{"header":{"title":"Faded","artist":"Alan Walker","source":"https://musescore.com/user/5596391/scores/4787193","bpm":89.9999550000225,"duration":205.19871371041708},"tracks":[{"instrument_number":0,"notes":[{"name":"G4","midi":67,"time":0,"velocity":0.6299212598425197,"duration":0.6319447604166667},{"name":"G4","midi":67,"time":0.666667,"velocity":0.6299212598425197,"duration":0.6319447604166667},{"name":"G4","midi":67,"time":1.333334,"velocity":0.6299212598425197,"duration":0.6319447604166666},{"name":"B4","midi":71,"time":2.000001,"velocity":0.6299212598425197,"duration":0.6319447604166668},{"name":"E5","midi":76,"time":2.6666680000000005,"velocity":0.6299212598425197,"duration":0.6319447604166668},{"name":"E5","midi":76,"time":3.333335000000001,"velocity":0.6299212598425197,"duration":0.6319447604166668},{"name":"E5","midi":76,"time":4.000002000000001,"velocity":0.6299212598425197,"duration":0.6319447604166664},{"name":"D5","midi":74,"time":4.666669000000001,"velocity":0.6299212598425197,"duration":0.6319447604166664},{"name":"B4","midi":71,"time":5.333336,"velocity":0.6299212598425197,"duration":0.6319447604166664},{"name":"B4","midi":71,"time":6.0000029999999995,"velocity":0.6299212598425197,"duration":0.6319447604166664},{"name":"B4","midi":71,"time":6.666669999999999,"velocity":0.6299212598425197,"duration":0.6319447604166664},{"name":"B4","midi":71,"time":7.333336999999998,"velocity":0.6299212598425197,"duration":0.6319447604166664},{"name":"F#4","midi":66,"time":8.000003999999999,"velocity":0.6299212598425197,"duration":0.6319447604166673},{"name":"F#4","midi":66,"time":8.666671,"velocity":0.6299212598425197,"duration":0.6319447604166673},{"name":"F#4","midi":66,"time":9.333338,"velocity":0.6299212598425197,"duration":0.6319447604166673},{"name":"E4","midi":64,"time":10.000005,"velocity":0.6299212598425197,"duration":0.6319447604166673},{"name":"G4","midi":67,"time":11.0000055,"velocity":0.6299212598425197,"duration":0.3152779354166668},{"name":"G4","midi":67,"time":11.333339,"velocity":0.6299212598425197,"duration":0.3152779354166668},{"name":"E4","midi":64,"time":11.6666725,"velocity":0.6299212598425197,"duration":0.3152779354166668},{"name":"G4","midi":67,"time":12.000006,"velocity":0.6299212598425197,"duration":0.3152779354166668},{"name":"E4","midi":64,"time":12.333339500000001,"velocity":0.6299212598425197,"duration":0.3152779354166668},{"name":"G4","midi":67,"time":12.666673000000001,"velocity":0.6299212598425197,"duration":0.3152779354166668},{"name":"A4","midi":69,"time":13.000006500000001,"velocity":0.6299212598425197,"duration":0.3152779354166668},{"name":"B4","midi":71,"time":13.333340000000002,"velocity":0.6299212598425197,"duration":0.6319447604166673},{"name":"G4","midi":67,"time":14.000007000000002,"velocity":0.6299212598425197,"duration":0.3152779354166668},{"name":"G4","midi":67,"time":14.333340500000002,"velocity":0.6299212598425197,"duration":0.3152779354166668},{"name":"D4","midi":62,"time":14.666674000000002,"velocity":0.6299212598425197,"duration":0.3152779354166668},{"name":"B4","midi":71,"time":15.000007500000002,"velocity":0.6299212598425197,"duration":1.2652784104166663},{"name":"G4","midi":67,"time":17.666675500000004,"velocity":0.6299212598425197,"duration":0.3152779354166668},{"name":"G4","midi":67,"time":18.000009000000002,"velocity":0.6299212598425197,"duration":0.3152779354166668},{"name":"G4","midi":67,"time":18.3333425,"velocity":0.6299212598425197,"duration":0.3152779354166668},{"name":"F#4","midi":66,"time":18.666676,"velocity":0.6299212598425197,"duration":0.9486115854166677},{"name":"F#4","midi":66,"time":19.6666765,"velocity":0.6299212598425197,"duration":0.3152779354166668},{"name":"F#4","midi":66,"time":20.00001,"velocity":0.6299212598425197,"duration":0.3152779354166668},{"name":"E4","midi":64,"time":20.333343499999998,"velocity":0.6299212598425197,"duration":0.3152779354166668},{"name":"G4","midi":67,"time":20.666676999999996,"velocity":0.6299212598425197,"duration":0.6319447604166655},{"name":"G4","midi":67,"time":21.666677499999995,"velocity":0.6299212598425197,"duration":0.3152779354166668},{"name":"G4","midi":67,"time":22.000010999999994,"velocity":0.6299212598425197,"duration":0.3152779354166668},{"name":"E4","midi":64,"time":22.333344499999992,"velocity":0.6299212598425197,"duration":0.3152779354166668},{"name":"G4","midi":67,"time":22.66667799999999,"velocity":0.6299212598425197,"duration":0.3152779354166668},{"name":"E4","midi":64,"time":23.00001149999999,"velocity":0.6299212598425197,"duration":0.3152779354166668},{"name":"G4","midi":67,"time":23.333344999999987,"velocity":0.6299212598425197,"duration":0.3152779354166668},{"name":"A4","midi":69,"time":23.666678499999986,"velocity":0.6299212598425197,"duration":0.3152779354166668},{"name":"B4","midi":71,"time":24.000011999999984,"velocity":0.6299212598425197,"duration":0.6319447604166655},{"name":"G4","midi":67,"time":24.666678999999984,"velocity":0.6299212598425197,"duration":0.3152779354166668},{"name":"G4","midi":67,"time":25.000012499999983,"velocity":0.6299212598425197,"duration":0.3152779354166668},{"name":"D5","midi":74,"time":25.33334599999998,"velocity":0.6299212598425197,"duration":0.3152779354166668},{"name":"B4","midi":71,"time":25.66667949999998,"velocity":0.6299212598425197,"duration":0.9486115854166677},{"name":"G4","midi":67,"time":28.33334749999998,"velocity":0.6299212598425197,"duration":0.3152779354166668},{"name":"G4","midi":67,"time":28.66668099999998,"velocity":0.6299212598425197,"duration":0.3152779354166668},{"name":"A4","midi":69,"time":29.000014499999978,"velocity":0.6299212598425197,"duration":1.5819452354166685},{"name":"B4","midi":71,"time":31.00001549999998,"velocity":0.6299212598425197,"duration":0.3152779354166668},{"name":"B4","midi":71,"time":31.333348999999977,"velocity":0.6299212598425197,"duration":0.3152779354166668},{"name":"B4","midi":71,"time":31.666682499999975,"velocity":0.6299212598425197,"duration":0.3152779354166668},{"name":"G4","midi":67,"time":32.000015999999974,"velocity":0.6299212598425197,"duration":0.6319447604166655},{"name":"B4","midi":71,"time":32.000015999999974,"velocity":0.6299212598425197,"duration":0.6319447604166655},{"name":"G4","midi":67,"time":32.66668299999997,"velocity":0.6299212598425197,"duration":0.6319447604166655},{"name":"G4","midi":67,"time":33.33334999999997,"velocity":0.6299212598425197,"duration":0.6319447604166655},{"name":"B4","midi":71,"time":34.000016999999964,"velocity":0.6299212598425197,"duration":0.6319447604166655},{"name":"E5","midi":76,"time":34.66668399999996,"velocity":0.6299212598425197,"duration":0.6319447604166655},{"name":"E5","midi":76,"time":35.33335099999996,"velocity":0.6299212598425197,"duration":0.6319447604166655},{"name":"E5","midi":76,"time":36.000017999999955,"velocity":0.6299212598425197,"duration":0.3152779354166668},{"name":"B4","midi":71,"time":36.33335149999996,"velocity":0.6299212598425197,"duration":0.3152779354166668},{"name":"B4","midi":71,"time":36.66668499999996,"velocity":0.6299212598425197,"duration":0.3152779354166668},{"name":"D5","midi":74,"time":36.66668499999996,"velocity":0.6299212598425197,"duration":0.3152779354166668},{"name":"B4","midi":71,"time":37.00001849999996,"velocity":0.6299212598425197,"duration":0.3152779354166668},{"name":"B4","midi":71,"time":37.33335199999996,"velocity":0.6299212598425197,"duration":0.6319447604166655},{"name":"B4","midi":71,"time":38.00001899999996,"velocity":0.6299212598425197,"duration":0.6319447604166655},{"name":"B4","midi":71,"time":38.666685999999956,"velocity":0.6299212598425197,"duration":0.6319447604166655},{"name":"B4","midi":71,"time":39.33335299999995,"velocity":0.6299212598425197,"duration":0.6319447604166655},{"name":"F#4","midi":66,"time":40.00001999999995,"velocity":0.6299212598425197,"duration":0.6319447604166655},{"name":"F#4","midi":66,"time":40.666686999999946,"velocity":0.6299212598425197,"duration":0.6319447604166655},{"name":"F#4","midi":66,"time":41.33335399999994,"velocity":0.6299212598425197,"duration":0.3152779354166668},{"name":"B4","midi":71,"time":41.666687499999945,"velocity":0.6299212598425197,"duration":0.3152779354166668},{"name":"F#4","midi":66,"time":42.00002099999995,"velocity":0.6299212598425197,"duration":0.3152779354166668},{"name":"B4","midi":71,"time":42.00002099999995,"velocity":0.6299212598425197,"duration":0.3152779354166668},{"name":"B4","midi":71,"time":42.33335449999995,"velocity":0.6299212598425197,"duration":0.3152779354166668},{"name":"G4","midi":67,"time":42.66668799999995,"velocity":0.6299212598425197,"duration":1.2652784104166699},{"name":"B4","midi":71,"time":42.66668799999995,"velocity":0.6299212598425197,"duration":1.2652784104166699},{"name":"G4","midi":67,"time":44.33335549999995,"velocity":0.6299212598425197,"duration":0.1569445229166675},{"name":"A4","midi":69,"time":44.50002224999995,"velocity":0.6299212598425197,"duration":0.1569445229166675},{"name":"A4","midi":69,"time":44.66668899999995,"velocity":0.6299212598425197,"duration":0.3152779354166668},{"name":"A4","midi":69,"time":45.00002249999995,"velocity":0.6299212598425197,"duration":0.1569445229166675},{"name":"B4","midi":71,"time":45.16668924999995,"velocity":0.6299212598425197,"duration":0.1569445229166675},{"name":"A4","midi":69,"time":45.333355999999945,"velocity":0.6299212598425197,"duration":0.3152779354166668},{"name":"G4","midi":67,"time":45.66668949999995,"velocity":0.6299212598425197,"duration":0.3152779354166668},{"name":"G4","midi":67,"time":46.00002299999995,"velocity":0.6299212598425197,"duration":0.9486115854166641},{"name":"B4","midi":71,"time":47.00002349999995,"velocity":0.6299212598425197,"duration":0.3152779354166668},{"name":"B4","midi":71,"time":47.33335699999995,"velocity":0.6299212598425197,"duration":0.3152779354166668},{"name":"B4","midi":71,"time":47.66669049999995,"velocity":0.6299212598425197,"duration":0.3152779354166668},{"name":"B4","midi":71,"time":48.000023999999954,"velocity":0.6299212598425197,"duration":1.2652784104166699},{"name":"G4","midi":67,"time":49.666691499999956,"velocity":0.6299212598425197,"duration":0.1569445229166675},{"name":"G4","midi":67,"time":49.833358249999954,"velocity":0.6299212598425197,"duration":0.1569445229166675},{"name":"G4","midi":67,"time":50.00002499999995,"velocity":0.6299212598425197,"duration":0.3152779354166668},{"name":"G4","midi":67,"time":50.33335849999995,"velocity":0.6299212598425197,"duration":0.1569445229166675},{"name":"A4","midi":69,"time":50.50002524999995,"velocity":0.6299212598425197,"duration":0.1569445229166675},{"name":"F#4","midi":66,"time":50.66669199999995,"velocity":0.6299212598425197,"duration":0.3152779354166668},{"name":"F#4","midi":66,"time":51.00002549999995,"velocity":0.6299212598425197,"duration":0.3152779354166668},{"name":"F#4","midi":66,"time":51.33335899999995,"velocity":0.6299212598425197,"duration":0.3152779354166668},{"name":"G4","midi":67,"time":51.666692499999954,"velocity":0.6299212598425197,"duration":1.2652784104166699},{"name":"B4","midi":71,"time":53.66669349999996,"velocity":0.6299212598425197,"duration":0.3152779354166668},{"name":"B4","midi":71,"time":54.00002699999996,"velocity":0.6299212598425197,"duration":0.3152779354166668},{"name":"B4","midi":71,"time":54.33336049999996,"velocity":0.6299212598425197,"duration":0.3152779354166668},{"name":"B4","midi":71,"time":54.666693999999964,"velocity":0.6299212598425197,"duration":1.2652784104166699},{"name":"G4","midi":67,"time":57.00002849999997,"velocity":0.6299212598425197,"duration":0.3152779354166668},{"name":"E4","midi":64,"time":57.33336199999997,"velocity":0.6299212598425197,"duration":0.3152779354166668},{"name":"D4","midi":62,"time":57.666695499999975,"velocity":0.6299212598425197,"duration":1.2652784104166699},{"name":"G4","midi":67,"time":59.000029499999975,"velocity":0.6299212598425197,"duration":0.3152779354166668},{"name":"D5","midi":74,"time":59.33336299999998,"velocity":0.6299212598425197,"duration":0.3152779354166668},{"name":"D5","midi":74,"time":59.66669649999998,"velocity":0.6299212598425197,"duration":0.1569445229166675},{"name":"B4","midi":71,"time":59.83336324999998,"velocity":0.6299212598425197,"duration":1.4236118229166692},{"name":"G4","midi":67,"time":61.66669749999998,"velocity":0.6299212598425197,"duration":0.3152779354166668},{"name":"D5","midi":74,"time":62.00003099999998,"velocity":0.6299212598425197,"duration":0.3152779354166668},{"name":"D5","midi":74,"time":62.33336449999998,"velocity":0.6299212598425197,"duration":0.1569445229166675},{"name":"B4","midi":71,"time":62.50003124999998,"velocity":0.6299212598425197,"duration":1.1069449979166635},{"name":"A4","midi":69,"time":63.666698499999974,"velocity":0.6299212598425197,"duration":0.6319447604166655},{"name":"B4","midi":71,"time":64.33336549999997,"velocity":0.6299212598425197,"duration":0.3152779354166597},{"name":"B4","midi":71,"time":64.66669899999997,"velocity":0.6299212598425197,"duration":0.3152779354166597},{"name":"B4","midi":71,"time":65.00003249999996,"velocity":0.6299212598425197,"duration":0.3152779354166597},{"name":"B4","midi":71,"time":65.33336599999996,"velocity":0.6299212598425197,"duration":1.2652784104166699},{"name":"G4","midi":67,"time":66.66669999999996,"velocity":0.6299212598425197,"duration":0.47361134791667325},{"name":"G4","midi":67,"time":67.16670024999998,"velocity":0.6299212598425197,"duration":0.1569445229166604},{"name":"E4","midi":64,"time":67.33336699999997,"velocity":0.6299212598425197,"duration":0.3152779354166597},{"name":"C5","midi":72,"time":67.66670049999996,"velocity":0.6299212598425197,"duration":2.215278885416666},{"name":"D5","midi":74,"time":70.33336849999996,"velocity":0.6299212598425197,"duration":0.3152779354166597},{"name":"B4","midi":71,"time":70.66670199999996,"velocity":0.6299212598425197,"duration":0.3152779354166597},{"name":"D5","midi":74,"time":71.00003549999995,"velocity":0.6299212598425197,"duration":0.3152779354166597},{"name":"B4","midi":71,"time":71.33336899999995,"velocity":0.6299212598425197,"duration":0.3152779354166597},{"name":"D5","midi":74,"time":71.66670249999994,"velocity":0.6299212598425197,"duration":0.3152779354166597},{"name":"B4","midi":71,"time":72.00003599999994,"velocity":0.6299212598425197,"duration":0.3152779354166597},{"name":"D5","midi":74,"time":72.33336949999993,"velocity":0.6299212598425197,"duration":0.3152779354166597},{"name":"B4","midi":71,"time":72.66670299999993,"velocity":0.6299212598425197,"duration":0.3152779354166597},{"name":"A4","midi":69,"time":73.00003649999992,"velocity":0.6299212598425197,"duration":0.1569445229166604},{"name":"C5","midi":72,"time":73.16670324999991,"velocity":0.6299212598425197,"duration":1.1069449979166706},{"name":"E4","midi":64,"time":74.33337049999992,"velocity":0.6299212598425197,"duration":0.3152779354166597},{"name":"C5","midi":72,"time":74.66670399999991,"velocity":0.6299212598425197,"duration":0.6319447604166726},{"name":"E5","midi":76,"time":74.66670399999991,"velocity":0.6299212598425197,"duration":0.6319447604166726},{"name":"B4","midi":71,"time":75.33337099999991,"velocity":0.6299212598425197,"duration":0.6319447604166726},{"name":"D5","midi":74,"time":75.33337099999991,"velocity":0.6299212598425197,"duration":0.6319447604166726},{"name":"E4","midi":64,"time":79.66670649999992,"velocity":0.6299212598425197,"duration":0.3152779354166597},{"name":"C5","midi":72,"time":80.00003999999991,"velocity":0.6299212598425197,"duration":0.6319447604166726},{"name":"B4","midi":71,"time":80.66670699999992,"velocity":0.6299212598425197,"duration":0.6319447604166726},{"name":"G4","midi":67,"time":83.66670849999993,"velocity":0.6299212598425197,"duration":0.3152779354166597},{"name":"F#4","midi":66,"time":84.00004199999992,"velocity":0.6299212598425197,"duration":0.6319447604166726},{"name":"E4","midi":64,"time":85.00004249999994,"velocity":0.6299212598425197,"duration":0.3152779354166597},{"name":"C5","midi":72,"time":85.33337599999993,"velocity":0.6299212598425197,"duration":0.6319447604166726},{"name":"E5","midi":76,"time":85.33337599999993,"velocity":0.6299212598425197,"duration":0.6319447604166726},{"name":"B4","midi":71,"time":86.00004299999993,"velocity":0.6299212598425197,"duration":0.6319447604166726},{"name":"D5","midi":74,"time":86.00004299999993,"velocity":0.6299212598425197,"duration":0.6319447604166726},{"name":"E4","midi":64,"time":90.33337849999994,"velocity":0.6299212598425197,"duration":0.3152779354166597},{"name":"C5","midi":72,"time":90.66671199999993,"velocity":0.6299212598425197,"duration":0.6319447604166726},{"name":"D5","midi":74,"time":91.33337899999994,"velocity":0.6299212598425197,"duration":0.6319447604166726},{"name":"G4","midi":67,"time":94.33338049999995,"velocity":0.6299212598425197,"duration":0.3152779354166597},{"name":"F#4","midi":66,"time":94.66671399999994,"velocity":0.6299212598425197,"duration":0.6319447604166726},{"name":"E4","midi":64,"time":95.66671449999996,"velocity":0.6299212598425197,"duration":0.3152779354166597},{"name":"C5","midi":72,"time":96.00004799999995,"velocity":0.6299212598425197,"duration":0.6319447604166726},{"name":"B4","midi":71,"time":96.66671499999995,"velocity":0.6299212598425197,"duration":0.6319447604166726},{"name":"G4","midi":67,"time":97.66671549999997,"velocity":0.6299212598425197,"duration":0.3152779354166597},{"name":"G4","midi":67,"time":98.00004899999996,"velocity":0.6299212598425197,"duration":0.3152779354166597},{"name":"G4","midi":67,"time":98.33338249999996,"velocity":0.6299212598425197,"duration":0.3152779354166597},{"name":"G4","midi":67,"time":98.66671599999995,"velocity":0.6299212598425197,"duration":0.3152779354166597},{"name":"E4","midi":64,"time":99.00004949999995,"velocity":0.6299212598425197,"duration":0.3152779354166597},{"name":"G4","midi":67,"time":99.33338299999994,"velocity":0.6299212598425197,"duration":0.3152779354166597},{"name":"A4","midi":69,"time":99.66671649999994,"velocity":0.6299212598425197,"duration":0.3152779354166597},{"name":"B4","midi":71,"time":100.00004999999993,"velocity":0.6299212598425197,"duration":0.6319447604166726},{"name":"G4","midi":67,"time":100.66671699999993,"velocity":0.6299212598425197,"duration":0.3152779354166597},{"name":"G4","midi":67,"time":101.00005049999993,"velocity":0.6299212598425197,"duration":0.3152779354166597},{"name":"D4","midi":62,"time":101.33338399999992,"velocity":0.6299212598425197,"duration":0.3152779354166597},{"name":"B4","midi":71,"time":101.66671749999992,"velocity":0.6299212598425197,"duration":0.9486115854166712},{"name":"G4","midi":67,"time":104.33338549999992,"velocity":0.6299212598425197,"duration":0.3152779354166597},{"name":"G4","midi":67,"time":104.66671899999992,"velocity":0.6299212598425197,"duration":0.3152779354166597},{"name":"G4","midi":67,"time":105.00005249999991,"velocity":0.6299212598425197,"duration":0.3152779354166597},{"name":"F#4","midi":66,"time":105.3333859999999,"velocity":0.6299212598425197,"duration":0.9486115854166712},{"name":"F#4","midi":66,"time":106.3333864999999,"velocity":0.6299212598425197,"duration":0.3152779354166597},{"name":"F#4","midi":66,"time":106.6667199999999,"velocity":0.6299212598425197,"duration":0.3152779354166597},{"name":"E4","midi":64,"time":107.0000534999999,"velocity":0.6299212598425197,"duration":0.3152779354166597},{"name":"G4","midi":67,"time":107.33338699999989,"velocity":0.6299212598425197,"duration":0.6319447604166726},{"name":"G4","midi":67,"time":108.3333874999999,"velocity":0.6299212598425197,"duration":0.3152779354166597},{"name":"G4","midi":67,"time":108.6667209999999,"velocity":0.6299212598425197,"duration":0.3152779354166597},{"name":"A4","midi":69,"time":109.00005449999989,"velocity":0.6299212598425197,"duration":0.3152779354166597},{"name":"G4","midi":67,"time":109.33338799999989,"velocity":0.6299212598425197,"duration":0.3152779354166597},{"name":"E4","midi":64,"time":109.66672149999988,"velocity":0.6299212598425197,"duration":0.3152779354166597},{"name":"G4","midi":67,"time":110.00005499999988,"velocity":0.6299212598425197,"duration":0.3152779354166597},{"name":"A4","midi":69,"time":110.33338849999987,"velocity":0.6299212598425197,"duration":0.3152779354166597},{"name":"B4","midi":71,"time":110.66672199999987,"velocity":0.6299212598425197,"duration":0.9486115854166712},{"name":"G4","midi":67,"time":111.66672249999986,"velocity":0.6299212598425197,"duration":0.3152779354166597},{"name":"D5","midi":74,"time":112.00005599999986,"velocity":0.6299212598425197,"duration":0.47361134791667325},{"name":"B4","midi":71,"time":112.50005624999987,"velocity":0.6299212598425197,"duration":0.7902781729166719},{"name":"G4","midi":67,"time":115.00005749999988,"velocity":0.6299212598425197,"duration":0.3152779354166597},{"name":"G4","midi":67,"time":115.33339099999988,"velocity":0.6299212598425197,"duration":0.3152779354166597},{"name":"A4","midi":69,"time":115.66672449999987,"velocity":0.6299212598425197,"duration":1.5819452354166685},{"name":"B4","midi":71,"time":117.66672549999987,"velocity":0.6299212598425197,"duration":0.3152779354166597},{"name":"B4","midi":71,"time":118.00005899999987,"velocity":0.6299212598425197,"duration":0.3152779354166597},{"name":"B4","midi":71,"time":118.33339249999986,"velocity":0.6299212598425197,"duration":0.3152779354166597},{"name":"B4","midi":71,"time":118.66672599999985,"velocity":0.6299212598425197,"duration":2.5319457104166645},{"name":"B4","midi":71,"time":123.00006149999986,"velocity":0.6299212598425197,"duration":0.3152779354166597},{"name":"B4","midi":71,"time":123.33339499999985,"velocity":0.6299212598425197,"duration":0.3152779354166597},{"name":"B4","midi":71,"time":123.66672849999985,"velocity":0.6299212598425197,"duration":0.3152779354166597},{"name":"B4","midi":71,"time":124.00006199999984,"velocity":0.6299212598425197,"duration":2.5319457104166645},{"name":"G4","midi":67,"time":128.33339749999985,"velocity":0.6299212598425197,"duration":0.3152779354166739},{"name":"D5","midi":74,"time":128.66673099999986,"velocity":0.6299212598425197,"duration":0.3152779354166739},{"name":"D5","midi":74,"time":129.00006449999987,"velocity":0.6299212598425197,"duration":0.1569445229166604},{"name":"B4","midi":71,"time":129.16673124999986,"velocity":0.6299212598425197,"duration":0.47361134791665904},{"name":"G4","midi":67,"time":129.66673149999986,"velocity":0.6299212598425197,"duration":0.3152779354166739},{"name":"D5","midi":74,"time":130.00006499999986,"velocity":0.6299212598425197,"duration":0.47361134791665904},{"name":"B4","midi":71,"time":130.50006524999986,"velocity":0.6299212598425197,"duration":0.47361134791665904},{"name":"G4","midi":67,"time":131.00006549999986,"velocity":0.6299212598425197,"duration":0.3152779354166739},{"name":"D5","midi":74,"time":131.33339899999987,"velocity":0.6299212598425197,"duration":0.3152779354166739},{"name":"D5","midi":74,"time":131.66673249999988,"velocity":0.6299212598425197,"duration":0.1569445229166604},{"name":"A4","midi":69,"time":131.83339924999987,"velocity":0.6299212598425197,"duration":0.47361134791665904},{"name":"G4","midi":67,"time":132.33339949999987,"velocity":0.6299212598425197,"duration":0.3152779354166739},{"name":"G4","midi":67,"time":132.66673299999988,"velocity":0.6299212598425197,"duration":0.3152779354166739},{"name":"B4","midi":71,"time":133.0000664999999,"velocity":0.6299212598425197,"duration":0.6319447604166726},{"name":"G4","midi":67,"time":133.6667334999999,"velocity":0.6299212598425197,"duration":0.3152779354166739},{"name":"D5","midi":74,"time":134.00006699999992,"velocity":0.6299212598425197,"duration":0.3152779354166739},{"name":"D5","midi":74,"time":134.33340049999993,"velocity":0.6299212598425197,"duration":0.1569445229166604},{"name":"A4","midi":69,"time":134.50006724999992,"velocity":0.6299212598425197,"duration":1.423611822916655},{"name":"G4","midi":67,"time":136.3334014999999,"velocity":0.6299212598425197,"duration":0.3152779354166739},{"name":"D5","midi":74,"time":136.6667349999999,"velocity":0.6299212598425197,"duration":0.3152779354166739},{"name":"D5","midi":74,"time":137.0000684999999,"velocity":0.6299212598425197,"duration":0.1569445229166604},{"name":"A4","midi":69,"time":137.1667352499999,"velocity":0.6299212598425197,"duration":1.423611822916655},{"name":"G4","midi":67,"time":140.00006999999988,"velocity":0.6299212598425197,"duration":0.1569445229166604},{"name":"G4","midi":67,"time":140.16673674999987,"velocity":0.6299212598425197,"duration":0.3152779354166739},{"name":"A4","midi":69,"time":140.50007024999988,"velocity":0.6299212598425197,"duration":0.1569445229166604},{"name":"G4","midi":67,"time":140.66673699999987,"velocity":0.6299212598425197,"duration":0.3152779354166739},{"name":"G4","midi":67,"time":141.00007049999988,"velocity":0.6299212598425197,"duration":0.1569445229166604},{"name":"D5","midi":74,"time":141.16673724999987,"velocity":0.6299212598425197,"duration":0.47361134791665904},{"name":"G4","midi":67,"time":141.66673749999987,"velocity":0.6299212598425197,"duration":0.1569445229166604},{"name":"A4","midi":69,"time":141.83340424999986,"velocity":0.6299212598425197,"duration":0.1569445229166604},{"name":"G4","midi":67,"time":142.00007099999985,"velocity":0.6299212598425197,"duration":0.3152779354166739},{"name":"G4","midi":67,"time":142.33340449999986,"velocity":0.6299212598425197,"duration":0.3152779354166739},{"name":"G4","midi":67,"time":142.66673799999987,"velocity":0.6299212598425197,"duration":0.1569445229166604},{"name":"G4","midi":67,"time":142.83340474999986,"velocity":0.6299212598425197,"duration":0.3152779354166739},{"name":"A4","midi":69,"time":143.16673824999987,"velocity":0.6299212598425197,"duration":0.1569445229166604},{"name":"G4","midi":67,"time":143.33340499999986,"velocity":0.6299212598425197,"duration":0.3152779354166739},{"name":"G4","midi":67,"time":143.66673849999987,"velocity":0.6299212598425197,"duration":0.1569445229166604},{"name":"D5","midi":74,"time":143.83340524999986,"velocity":0.6299212598425197,"duration":0.47361134791665904},{"name":"G4","midi":67,"time":144.33340549999986,"velocity":0.6299212598425197,"duration":0.1569445229166604},{"name":"A4","midi":69,"time":144.50007224999985,"velocity":0.6299212598425197,"duration":0.1569445229166604},{"name":"G4","midi":67,"time":144.66673899999984,"velocity":0.6299212598425197,"duration":0.3152779354166739},{"name":"G4","midi":67,"time":145.00007249999985,"velocity":0.6299212598425197,"duration":0.3152779354166739},{"name":"G4","midi":67,"time":145.33340599999985,"velocity":0.6299212598425197,"duration":0.1569445229166604},{"name":"G4","midi":67,"time":145.50007274999984,"velocity":0.6299212598425197,"duration":0.3152779354166739},{"name":"A4","midi":69,"time":145.83340624999985,"velocity":0.6299212598425197,"duration":0.1569445229166604},{"name":"G4","midi":67,"time":146.00007299999984,"velocity":0.6299212598425197,"duration":0.3152779354166739},{"name":"G4","midi":67,"time":146.33340649999985,"velocity":0.6299212598425197,"duration":0.1569445229166604},{"name":"D5","midi":74,"time":146.50007324999984,"velocity":0.6299212598425197,"duration":0.47361134791665904},{"name":"G4","midi":67,"time":147.00007349999984,"velocity":0.6299212598425197,"duration":0.1569445229166604},{"name":"A4","midi":69,"time":147.16674024999983,"velocity":0.6299212598425197,"duration":0.1569445229166604},{"name":"G4","midi":67,"time":147.33340699999982,"velocity":0.6299212598425197,"duration":0.3152779354166739},{"name":"G4","midi":67,"time":147.66674049999983,"velocity":0.6299212598425197,"duration":0.3152779354166739},{"name":"G4","midi":67,"time":148.00007399999984,"velocity":0.6299212598425197,"duration":0.1569445229166604},{"name":"G4","midi":67,"time":148.16674074999983,"velocity":0.6299212598425197,"duration":0.3152779354166739},{"name":"A4","midi":69,"time":148.50007424999984,"velocity":0.6299212598425197,"duration":0.1569445229166604},{"name":"G4","midi":67,"time":148.66674099999983,"velocity":0.6299212598425197,"duration":0.3152779354166739},{"name":"G4","midi":67,"time":149.00007449999984,"velocity":0.6299212598425197,"duration":0.1569445229166604},{"name":"D5","midi":74,"time":149.16674124999983,"velocity":0.6299212598425197,"duration":0.47361134791665904},{"name":"G4","midi":67,"time":149.66674149999983,"velocity":0.6299212598425197,"duration":0.1569445229166604},{"name":"A4","midi":69,"time":149.83340824999982,"velocity":0.6299212598425197,"duration":0.1569445229166604},{"name":"G4","midi":67,"time":150.0000749999998,"velocity":0.6299212598425197,"duration":0.3152779354166739},{"name":"G4","midi":67,"time":150.33340849999982,"velocity":0.6299212598425197,"duration":0.3152779354166739},{"name":"B4","midi":71,"time":151.00007549999984,"velocity":0.6299212598425197,"duration":0.3152779354166739},{"name":"B4","midi":71,"time":151.33340899999985,"velocity":0.6299212598425197,"duration":0.3152779354166739},{"name":"B4","midi":71,"time":151.66674249999986,"velocity":0.6299212598425197,"duration":0.3152779354166739},{"name":"B4","midi":71,"time":152.00007599999986,"velocity":0.6299212598425197,"duration":1.2652784104166699},{"name":"G4","midi":67,"time":154.33341049999987,"velocity":0.6299212598425197,"duration":0.3152779354166739},{"name":"E4","midi":64,"time":154.66674399999988,"velocity":0.6299212598425197,"duration":0.3152779354166739},{"name":"D4","midi":62,"time":155.0000774999999,"velocity":0.6299212598425197,"duration":1.2652784104166699},{"name":"G4","midi":67,"time":156.3334114999999,"velocity":0.6299212598425197,"duration":0.3152779354166739},{"name":"D5","midi":74,"time":156.6667449999999,"velocity":0.6299212598425197,"duration":0.3152779354166739},{"name":"D5","midi":74,"time":157.00007849999992,"velocity":0.6299212598425197,"duration":0.1569445229166604},{"name":"B4","midi":71,"time":157.1667452499999,"velocity":0.6299212598425197,"duration":1.423611822916655},{"name":"G4","midi":67,"time":159.00007949999988,"velocity":0.6299212598425197,"duration":0.3152779354166739},{"name":"D5","midi":74,"time":159.3334129999999,"velocity":0.6299212598425197,"duration":0.3152779354166739},{"name":"D5","midi":74,"time":159.6667464999999,"velocity":0.6299212598425197,"duration":0.1569445229166604},{"name":"B4","midi":71,"time":159.8334132499999,"velocity":0.6299212598425197,"duration":1.1069449979166563},{"name":"A4","midi":69,"time":161.00008049999988,"velocity":0.6299212598425197,"duration":0.6319447604166726},{"name":"B4","midi":71,"time":161.6667474999999,"velocity":0.6299212598425197,"duration":0.3152779354166739},{"name":"B4","midi":71,"time":162.0000809999999,"velocity":0.6299212598425197,"duration":0.3152779354166739},{"name":"B4","midi":71,"time":162.33341449999992,"velocity":0.6299212598425197,"duration":0.3152779354166739},{"name":"B4","midi":71,"time":162.66674799999993,"velocity":0.6299212598425197,"duration":1.2652784104166699},{"name":"G4","midi":67,"time":164.00008199999994,"velocity":0.6299212598425197,"duration":0.47361134791665904},{"name":"G4","midi":67,"time":164.50008224999993,"velocity":0.6299212598425197,"duration":0.1569445229166604},{"name":"E4","midi":64,"time":164.66674899999992,"velocity":0.6299212598425197,"duration":0.3152779354166739},{"name":"C5","midi":72,"time":165.00008249999993,"velocity":0.6299212598425197,"duration":2.215278885416666},{"name":"D5","midi":74,"time":167.66675049999992,"velocity":0.6299212598425197,"duration":0.3152779354166739},{"name":"B4","midi":71,"time":168.00008399999993,"velocity":0.6299212598425197,"duration":0.3152779354166739},{"name":"D5","midi":74,"time":168.33341749999994,"velocity":0.6299212598425197,"duration":0.3152779354166739},{"name":"B4","midi":71,"time":168.66675099999995,"velocity":0.6299212598425197,"duration":0.3152779354166739},{"name":"D5","midi":74,"time":169.00008449999996,"velocity":0.6299212598425197,"duration":0.3152779354166739},{"name":"B4","midi":71,"time":169.33341799999997,"velocity":0.6299212598425197,"duration":0.3152779354166739},{"name":"D5","midi":74,"time":169.66675149999998,"velocity":0.6299212598425197,"duration":0.3152779354166739},{"name":"B4","midi":71,"time":170.00008499999998,"velocity":0.6299212598425197,"duration":0.3152779354166739},{"name":"A4","midi":69,"time":170.3334185,"velocity":0.6299212598425197,"duration":0.1569445229166604},{"name":"C5","midi":72,"time":170.50008524999998,"velocity":0.6299212598425197,"duration":1.1069449979166563},{"name":"E4","midi":64,"time":171.66675249999997,"velocity":0.6299212598425197,"duration":0.3152779354166739},{"name":"C5","midi":72,"time":172.00008599999998,"velocity":0.6299212598425197,"duration":0.6319447604166726},{"name":"E5","midi":76,"time":172.00008599999998,"velocity":0.6299212598425197,"duration":0.6319447604166726},{"name":"B4","midi":71,"time":172.666753,"velocity":0.6299212598425197,"duration":0.6319447604166726},{"name":"D5","midi":74,"time":172.666753,"velocity":0.6299212598425197,"duration":0.6319447604166726},{"name":"E4","midi":64,"time":177.0000885,"velocity":0.6299212598425197,"duration":0.3152779354166739},{"name":"C5","midi":72,"time":177.333422,"velocity":0.6299212598425197,"duration":0.6319447604166726},{"name":"B4","midi":71,"time":178.00008900000003,"velocity":0.6299212598425197,"duration":0.6319447604166726},{"name":"G4","midi":67,"time":181.00009050000003,"velocity":0.6299212598425197,"duration":0.3152779354166739},{"name":"F#4","midi":66,"time":181.33342400000004,"velocity":0.6299212598425197,"duration":0.6319447604166726},{"name":"E4","midi":64,"time":182.33342450000004,"velocity":0.6299212598425197,"duration":0.3152779354166739},{"name":"C5","midi":72,"time":182.66675800000004,"velocity":0.6299212598425197,"duration":0.6319447604166726},{"name":"E5","midi":76,"time":182.66675800000004,"velocity":0.6299212598425197,"duration":0.6319447604166726},{"name":"B4","midi":71,"time":183.33342500000006,"velocity":0.6299212598425197,"duration":0.6319447604166726},{"name":"D5","midi":74,"time":183.33342500000006,"velocity":0.6299212598425197,"duration":0.6319447604166726},{"name":"E4","midi":64,"time":187.66676050000007,"velocity":0.6299212598425197,"duration":0.3152779354166739},{"name":"C5","midi":72,"time":188.00009400000008,"velocity":0.6299212598425197,"duration":0.6319447604166726},{"name":"D5","midi":74,"time":188.6667610000001,"velocity":0.6299212598425197,"duration":0.6319447604166726},{"name":"G4","midi":67,"time":191.6667625000001,"velocity":0.6299212598425197,"duration":0.3152779354166739},{"name":"F#4","midi":66,"time":192.0000960000001,"velocity":0.6299212598425197,"duration":0.6319447604166726},{"name":"E4","midi":64,"time":193.0000965000001,"velocity":0.6299212598425197,"duration":0.3152779354166739},{"name":"C5","midi":72,"time":193.3334300000001,"velocity":0.6299212598425197,"duration":0.6319447604166726},{"name":"B4","midi":71,"time":194.00009700000012,"velocity":0.6299212598425197,"duration":0.6319447604166726},{"name":"G4","midi":67,"time":194.66676400000014,"velocity":0.6299212598425197,"duration":0.6319447604166726},{"name":"G4","midi":67,"time":195.33343100000016,"velocity":0.6299212598425197,"duration":0.6319447604166726},{"name":"G4","midi":67,"time":196.00009800000018,"velocity":0.6299212598425197,"duration":0.6319447604166726},{"name":"B4","midi":71,"time":196.6667650000002,"velocity":0.6299212598425197,"duration":0.6319447604166726},{"name":"E5","midi":76,"time":197.33343200000022,"velocity":0.6299212598425197,"duration":0.6319447604166726},{"name":"E5","midi":76,"time":198.00009900000023,"velocity":0.6299212598425197,"duration":0.6319447604166726},{"name":"E5","midi":76,"time":198.66676600000025,"velocity":0.6299212598425197,"duration":0.6319447604166726},{"name":"D5","midi":74,"time":199.33343300000027,"velocity":0.6299212598425197,"duration":0.6319447604166726},{"name":"B4","midi":71,"time":200.0001000000003,"velocity":0.6299212598425197,"duration":0.6319447604166726},{"name":"B4","midi":71,"time":200.6667670000003,"velocity":0.6299212598425197,"duration":0.6319447604166726},{"name":"B4","midi":71,"time":201.33343400000032,"velocity":0.6299212598425197,"duration":0.6319447604166726},{"name":"B4","midi":71,"time":202.00010100000034,"velocity":0.6299212598425197,"duration":0.6319447604166726},{"name":"F#4","midi":66,"time":202.66676800000036,"velocity":0.6299212598425197,"duration":2.5319457104166645}]},{"instrument_number":-1,"notes":[{"name":"E3","midi":52,"time":0,"velocity":0.6299212598425197,"duration":0.31527793541666665},{"name":"B3","midi":59,"time":0.3333335,"velocity":0.6299212598425197,"duration":0.31527793541666665},{"name":"G3","midi":55,"time":0.666667,"velocity":0.6299212598425197,"duration":0.3152779354166667},{"name":"B3","midi":59,"time":1.0000005,"velocity":0.6299212598425197,"duration":0.3152779354166666},{"name":"E3","midi":52,"time":1.333334,"velocity":0.6299212598425197,"duration":0.3152779354166666},{"name":"B3","midi":59,"time":1.6666675,"velocity":0.6299212598425197,"duration":0.3152779354166666},{"name":"G3","midi":55,"time":2.0000009999999997,"velocity":0.6299212598425197,"duration":0.3152779354166668},{"name":"B3","midi":59,"time":2.3333345,"velocity":0.6299212598425197,"duration":0.3152779354166668},{"name":"C3","midi":48,"time":2.666668,"velocity":0.6299212598425197,"duration":0.3152779354166668},{"name":"G3","midi":55,"time":3.0000015,"velocity":0.6299212598425197,"duration":0.3152779354166668},{"name":"E3","midi":52,"time":3.3333350000000004,"velocity":0.6299212598425197,"duration":0.3152779354166668},{"name":"G3","midi":55,"time":3.6666685000000006,"velocity":0.6299212598425197,"duration":0.3152779354166668},{"name":"C3","midi":48,"time":4.000002,"velocity":0.6299212598425197,"duration":0.3152779354166668},{"name":"G3","midi":55,"time":4.3333355000000005,"velocity":0.6299212598425197,"duration":0.3152779354166668},{"name":"E3","midi":52,"time":4.666669000000001,"velocity":0.6299212598425197,"duration":0.3152779354166668},{"name":"G3","midi":55,"time":5.000002500000001,"velocity":0.6299212598425197,"duration":0.3152779354166668},{"name":"G3","midi":55,"time":5.333336000000001,"velocity":0.6299212598425197,"duration":0.3152779354166668},{"name":"D4","midi":62,"time":5.666669500000001,"velocity":0.6299212598425197,"duration":0.3152779354166668},{"name":"B3","midi":59,"time":6.000003000000001,"velocity":0.6299212598425197,"duration":0.3152779354166668},{"name":"D4","midi":62,"time":6.3333365000000015,"velocity":0.6299212598425197,"duration":0.3152779354166668},{"name":"G3","midi":55,"time":6.666670000000002,"velocity":0.6299212598425197,"duration":0.3152779354166668},{"name":"D4","midi":62,"time":7.000003500000002,"velocity":0.6299212598425197,"duration":0.3152779354166668},{"name":"B3","midi":59,"time":7.333337000000002,"velocity":0.6299212598425197,"duration":0.3152779354166668},{"name":"D4","midi":62,"time":7.666670500000002,"velocity":0.6299212598425197,"duration":0.3152779354166668},{"name":"D3","midi":50,"time":8.000004000000002,"velocity":0.6299212598425197,"duration":0.3152779354166668},{"name":"A3","midi":57,"time":8.333337500000003,"velocity":0.6299212598425197,"duration":0.3152779354166668},{"name":"F#3","midi":54,"time":8.666671000000003,"velocity":0.6299212598425197,"duration":0.3152779354166668},{"name":"A3","midi":57,"time":9.000004500000003,"velocity":0.6299212598425197,"duration":0.3152779354166668},{"name":"D3","midi":50,"time":9.333338000000003,"velocity":0.6299212598425197,"duration":0.3152779354166668},{"name":"A3","midi":57,"time":9.666671500000003,"velocity":0.6299212598425197,"duration":0.3152779354166668},{"name":"F#3","midi":54,"time":10.000005000000003,"velocity":0.6299212598425197,"duration":0.3152779354166668},{"name":"A3","midi":57,"time":10.333338500000004,"velocity":0.6299212598425197,"duration":0.3152779354166668},{"name":"E3","midi":52,"time":10.666672000000004,"velocity":0.6299212598425197,"duration":0.3152779354166668},{"name":"B3","midi":59,"time":11.000005500000004,"velocity":0.6299212598425197,"duration":0.3152779354166668},{"name":"G3","midi":55,"time":11.333339000000004,"velocity":0.6299212598425197,"duration":0.3152779354166668},{"name":"B3","midi":59,"time":11.666672500000004,"velocity":0.6299212598425197,"duration":0.3152779354166668},{"name":"E3","midi":52,"time":12.000006000000004,"velocity":0.6299212598425197,"duration":0.3152779354166668},{"name":"B3","midi":59,"time":12.333339500000005,"velocity":0.6299212598425197,"duration":0.3152779354166668},{"name":"G3","midi":55,"time":12.666673000000005,"velocity":0.6299212598425197,"duration":0.3152779354166668},{"name":"B3","midi":59,"time":13.000006500000005,"velocity":0.6299212598425197,"duration":0.3152779354166668},{"name":"C3","midi":48,"time":13.333340000000005,"velocity":0.6299212598425197,"duration":0.3152779354166668},{"name":"G3","midi":55,"time":13.666673500000005,"velocity":0.6299212598425197,"duration":0.3152779354166668},{"name":"E3","midi":52,"time":14.000007000000005,"velocity":0.6299212598425197,"duration":0.3152779354166668},{"name":"G3","midi":55,"time":14.333340500000006,"velocity":0.6299212598425197,"duration":0.3152779354166668},{"name":"C3","midi":48,"time":14.666674000000006,"velocity":0.6299212598425197,"duration":0.3152779354166668},{"name":"G3","midi":55,"time":15.000007500000006,"velocity":0.6299212598425197,"duration":0.3152779354166668},{"name":"E3","midi":52,"time":15.333341000000006,"velocity":0.6299212598425197,"duration":0.3152779354166668},{"name":"G3","midi":55,"time":15.666674500000006,"velocity":0.6299212598425197,"duration":0.3152779354166668},{"name":"G3","midi":55,"time":16.000008000000005,"velocity":0.6299212598425197,"duration":0.3152779354166668},{"name":"D4","midi":62,"time":16.333341500000003,"velocity":0.6299212598425197,"duration":0.3152779354166668},{"name":"B3","midi":59,"time":16.666675,"velocity":0.6299212598425197,"duration":0.3152779354166668},{"name":"D4","midi":62,"time":17.0000085,"velocity":0.6299212598425197,"duration":0.3152779354166668},{"name":"G3","midi":55,"time":17.333342,"velocity":0.6299212598425197,"duration":0.3152779354166668},{"name":"D4","midi":62,"time":17.666675499999997,"velocity":0.6299212598425197,"duration":0.3152779354166668},{"name":"B3","midi":59,"time":18.000008999999995,"velocity":0.6299212598425197,"duration":0.3152779354166668},{"name":"D4","midi":62,"time":18.333342499999993,"velocity":0.6299212598425197,"duration":0.3152779354166668},{"name":"D3","midi":50,"time":18.666675999999992,"velocity":0.6299212598425197,"duration":0.3152779354166668},{"name":"A3","midi":57,"time":19.00000949999999,"velocity":0.6299212598425197,"duration":0.3152779354166668},{"name":"F#3","midi":54,"time":19.33334299999999,"velocity":0.6299212598425197,"duration":0.3152779354166668},{"name":"A3","midi":57,"time":19.666676499999987,"velocity":0.6299212598425197,"duration":0.3152779354166668},{"name":"D3","midi":50,"time":20.000009999999985,"velocity":0.6299212598425197,"duration":0.3152779354166668},{"name":"A3","midi":57,"time":20.333343499999984,"velocity":0.6299212598425197,"duration":0.3152779354166668},{"name":"F#3","midi":54,"time":20.666676999999982,"velocity":0.6299212598425197,"duration":0.3152779354166668},{"name":"A3","midi":57,"time":21.00001049999998,"velocity":0.6299212598425197,"duration":0.3152779354166668},{"name":"E3","midi":52,"time":21.33334399999998,"velocity":0.6299212598425197,"duration":0.3152779354166668},{"name":"B3","midi":59,"time":21.666677499999977,"velocity":0.6299212598425197,"duration":0.3152779354166668},{"name":"G3","midi":55,"time":22.000010999999976,"velocity":0.6299212598425197,"duration":0.3152779354166668},{"name":"B3","midi":59,"time":22.333344499999974,"velocity":0.6299212598425197,"duration":0.3152779354166668},{"name":"E3","midi":52,"time":22.666677999999973,"velocity":0.6299212598425197,"duration":0.3152779354166668},{"name":"B3","midi":59,"time":23.00001149999997,"velocity":0.6299212598425197,"duration":0.3152779354166668},{"name":"G3","midi":55,"time":23.33334499999997,"velocity":0.6299212598425197,"duration":0.3152779354166668},{"name":"B3","midi":59,"time":23.666678499999968,"velocity":0.6299212598425197,"duration":0.3152779354166668},{"name":"C3","midi":48,"time":24.000011999999966,"velocity":0.6299212598425197,"duration":0.3152779354166668},{"name":"G3","midi":55,"time":24.333345499999965,"velocity":0.6299212598425197,"duration":0.3152779354166668},{"name":"E3","midi":52,"time":24.666678999999963,"velocity":0.6299212598425197,"duration":0.3152779354166668},{"name":"G3","midi":55,"time":25.00001249999996,"velocity":0.6299212598425197,"duration":0.3152779354166668},{"name":"C3","midi":48,"time":25.33334599999996,"velocity":0.6299212598425197,"duration":0.3152779354166668},{"name":"G3","midi":55,"time":25.666679499999958,"velocity":0.6299212598425197,"duration":0.3152779354166668},{"name":"E3","midi":52,"time":26.000012999999957,"velocity":0.6299212598425197,"duration":0.3152779354166668},{"name":"G3","midi":55,"time":26.333346499999955,"velocity":0.6299212598425197,"duration":0.3152779354166668},{"name":"G3","midi":55,"time":26.666679999999953,"velocity":0.6299212598425197,"duration":0.3152779354166668},{"name":"D4","midi":62,"time":27.00001349999995,"velocity":0.6299212598425197,"duration":0.3152779354166668},{"name":"B3","midi":59,"time":27.33334699999995,"velocity":0.6299212598425197,"duration":0.3152779354166668},{"name":"D4","midi":62,"time":27.66668049999995,"velocity":0.6299212598425197,"duration":0.3152779354166668},{"name":"G3","midi":55,"time":28.000013999999947,"velocity":0.6299212598425197,"duration":0.3152779354166668},{"name":"D4","midi":62,"time":28.333347499999945,"velocity":0.6299212598425197,"duration":0.3152779354166668},{"name":"B3","midi":59,"time":28.666680999999944,"velocity":0.6299212598425197,"duration":0.3152779354166668},{"name":"D4","midi":62,"time":29.000014499999942,"velocity":0.6299212598425197,"duration":0.3152779354166668},{"name":"D3","midi":50,"time":29.33334799999994,"velocity":0.6299212598425197,"duration":0.3152779354166668},{"name":"A3","midi":57,"time":29.66668149999994,"velocity":0.6299212598425197,"duration":0.3152779354166668},{"name":"F#3","midi":54,"time":30.000014999999937,"velocity":0.6299212598425197,"duration":0.3152779354166668},{"name":"A3","midi":57,"time":30.333348499999936,"velocity":0.6299212598425197,"duration":0.3152779354166668},{"name":"D3","midi":50,"time":30.666681999999934,"velocity":0.6299212598425197,"duration":0.3152779354166668},{"name":"A3","midi":57,"time":31.000015499999932,"velocity":0.6299212598425197,"duration":0.3152779354166668},{"name":"F#3","midi":54,"time":31.33334899999993,"velocity":0.6299212598425197,"duration":0.3152779354166668},{"name":"A3","midi":57,"time":31.66668249999993,"velocity":0.6299212598425197,"duration":0.3152779354166668},{"name":"B2","midi":47,"time":32.00001599999993,"velocity":0.6299212598425197,"duration":2.5319457104166645},{"name":"E3","midi":52,"time":32.00001599999993,"velocity":0.6299212598425197,"duration":2.5319457104166645},{"name":"G3","midi":55,"time":32.00001599999993,"velocity":0.6299212598425197,"duration":2.5319457104166645},{"name":"C3","midi":48,"time":34.66668399999993,"velocity":0.6299212598425197,"duration":2.5319457104166645},{"name":"E3","midi":52,"time":34.66668399999993,"velocity":0.6299212598425197,"duration":2.5319457104166645},{"name":"G3","midi":55,"time":34.66668399999993,"velocity":0.6299212598425197,"duration":2.5319457104166645},{"name":"D3","midi":50,"time":37.333351999999934,"velocity":0.6299212598425197,"duration":2.5319457104166645},{"name":"G3","midi":55,"time":37.333351999999934,"velocity":0.6299212598425197,"duration":2.5319457104166645},{"name":"B3","midi":59,"time":37.333351999999934,"velocity":0.6299212598425197,"duration":2.5319457104166645},{"name":"D3","midi":50,"time":40.000019999999935,"velocity":0.6299212598425197,"duration":2.5319457104166645},{"name":"F#3","midi":54,"time":40.000019999999935,"velocity":0.6299212598425197,"duration":2.5319457104166645},{"name":"A3","midi":57,"time":40.000019999999935,"velocity":0.6299212598425197,"duration":2.5319457104166645},{"name":"B2","midi":47,"time":42.66668799999994,"velocity":0.6299212598425197,"duration":0.6319447604166655},{"name":"E3","midi":52,"time":42.66668799999994,"velocity":0.6299212598425197,"duration":0.6319447604166655},{"name":"G3","midi":55,"time":42.66668799999994,"velocity":0.6299212598425197,"duration":0.6319447604166655},{"name":"G3","midi":55,"time":42.66668799999994,"velocity":0.6299212598425197,"duration":0.6319447604166655},{"name":"B2","midi":47,"time":43.33335499999993,"velocity":0.6299212598425197,"duration":1.2652784104166699},{"name":"E3","midi":52,"time":43.33335499999993,"velocity":0.6299212598425197,"duration":1.2652784104166699},{"name":"G3","midi":55,"time":43.33335499999993,"velocity":0.6299212598425197,"duration":1.2652784104166699},{"name":"B2","midi":47,"time":44.666688999999934,"velocity":0.6299212598425197,"duration":0.6319447604166655},{"name":"E3","midi":52,"time":44.666688999999934,"velocity":0.6299212598425197,"duration":0.6319447604166655},{"name":"G3","midi":55,"time":44.666688999999934,"velocity":0.6299212598425197,"duration":0.6319447604166655},{"name":"C3","midi":48,"time":45.33335599999993,"velocity":0.6299212598425197,"duration":0.6319447604166655},{"name":"E3","midi":52,"time":45.33335599999993,"velocity":0.6299212598425197,"duration":0.6319447604166655},{"name":"G3","midi":55,"time":45.33335599999993,"velocity":0.6299212598425197,"duration":0.6319447604166655},{"name":"C3","midi":48,"time":46.00002299999993,"velocity":0.6299212598425197,"duration":1.2652784104166699},{"name":"E3","midi":52,"time":46.00002299999993,"velocity":0.6299212598425197,"duration":1.2652784104166699},{"name":"G3","midi":55,"time":46.00002299999993,"velocity":0.6299212598425197,"duration":1.2652784104166699},{"name":"C3","midi":48,"time":47.33335699999993,"velocity":0.6299212598425197,"duration":0.6319447604166655},{"name":"E3","midi":52,"time":47.33335699999993,"velocity":0.6299212598425197,"duration":0.6319447604166655},{"name":"G3","midi":55,"time":47.33335699999993,"velocity":0.6299212598425197,"duration":0.6319447604166655},{"name":"D3","midi":50,"time":48.000023999999925,"velocity":0.6299212598425197,"duration":0.6319447604166655},{"name":"G3","midi":55,"time":48.000023999999925,"velocity":0.6299212598425197,"duration":0.6319447604166655},{"name":"B3","midi":59,"time":48.000023999999925,"velocity":0.6299212598425197,"duration":0.6319447604166655},{"name":"D3","midi":50,"time":48.66669099999992,"velocity":0.6299212598425197,"duration":1.2652784104166699},{"name":"G3","midi":55,"time":48.66669099999992,"velocity":0.6299212598425197,"duration":1.2652784104166699},{"name":"B3","midi":59,"time":48.66669099999992,"velocity":0.6299212598425197,"duration":1.2652784104166699},{"name":"D3","midi":50,"time":50.00002499999992,"velocity":0.6299212598425197,"duration":0.6319447604166655},{"name":"G3","midi":55,"time":50.00002499999992,"velocity":0.6299212598425197,"duration":0.6319447604166655},{"name":"B3","midi":59,"time":50.00002499999992,"velocity":0.6299212598425197,"duration":0.6319447604166655},{"name":"D3","midi":50,"time":50.66669199999992,"velocity":0.6299212598425197,"duration":0.6319447604166655},{"name":"F#3","midi":54,"time":50.66669199999992,"velocity":0.6299212598425197,"duration":0.6319447604166655},{"name":"A3","midi":57,"time":50.66669199999992,"velocity":0.6299212598425197,"duration":0.6319447604166655},{"name":"D3","midi":50,"time":51.333358999999916,"velocity":0.6299212598425197,"duration":3.165279360416669},{"name":"F#3","midi":54,"time":51.333358999999916,"velocity":0.6299212598425197,"duration":3.165279360416669},{"name":"A3","midi":57,"time":51.333358999999916,"velocity":0.6299212598425197,"duration":3.165279360416669},{"name":"E3","midi":52,"time":54.66669399999992,"velocity":0.6299212598425197,"duration":0.3152779354166668},{"name":"B3","midi":59,"time":55.00002749999992,"velocity":0.6299212598425197,"duration":0.3152779354166668},{"name":"G3","midi":55,"time":55.333360999999925,"velocity":0.6299212598425197,"duration":0.3152779354166668},{"name":"B3","midi":59,"time":55.66669449999993,"velocity":0.6299212598425197,"duration":0.3152779354166668},{"name":"E3","midi":52,"time":56.00002799999993,"velocity":0.6299212598425197,"duration":0.3152779354166668},{"name":"B3","midi":59,"time":56.33336149999993,"velocity":0.6299212598425197,"duration":0.3152779354166668},{"name":"G3","midi":55,"time":56.66669499999993,"velocity":0.6299212598425197,"duration":0.3152779354166668},{"name":"B3","midi":59,"time":57.000028499999935,"velocity":0.6299212598425197,"duration":0.3152779354166668},{"name":"C3","midi":48,"time":57.33336199999994,"velocity":0.6299212598425197,"duration":0.3152779354166668},{"name":"G3","midi":55,"time":57.66669549999994,"velocity":0.6299212598425197,"duration":0.3152779354166668},{"name":"E3","midi":52,"time":58.00002899999994,"velocity":0.6299212598425197,"duration":0.3152779354166668},{"name":"G3","midi":55,"time":58.33336249999994,"velocity":0.6299212598425197,"duration":0.3152779354166668},{"name":"C3","midi":48,"time":58.666695999999945,"velocity":0.6299212598425197,"duration":0.3152779354166668},{"name":"G3","midi":55,"time":59.00002949999995,"velocity":0.6299212598425197,"duration":0.3152779354166668},{"name":"E3","midi":52,"time":59.33336299999995,"velocity":0.6299212598425197,"duration":0.3152779354166668},{"name":"G3","midi":55,"time":59.66669649999995,"velocity":0.6299212598425197,"duration":0.3152779354166668},{"name":"G3","midi":55,"time":60.00002999999995,"velocity":0.6299212598425197,"duration":0.3152779354166668},{"name":"D4","midi":62,"time":60.333363499999955,"velocity":0.6299212598425197,"duration":0.3152779354166668},{"name":"B3","midi":59,"time":60.66669699999996,"velocity":0.6299212598425197,"duration":0.3152779354166668},{"name":"D4","midi":62,"time":61.00003049999996,"velocity":0.6299212598425197,"duration":0.3152779354166668},{"name":"G3","midi":55,"time":61.33336399999996,"velocity":0.6299212598425197,"duration":0.3152779354166668},{"name":"D4","midi":62,"time":61.66669749999996,"velocity":0.6299212598425197,"duration":0.3152779354166668},{"name":"B3","midi":59,"time":62.000030999999964,"velocity":0.6299212598425197,"duration":0.3152779354166668},{"name":"D4","midi":62,"time":62.333364499999966,"velocity":0.6299212598425197,"duration":0.3152779354166668},{"name":"D3","midi":50,"time":62.66669799999997,"velocity":0.6299212598425197,"duration":0.3152779354166668},{"name":"A3","midi":57,"time":63.00003149999997,"velocity":0.6299212598425197,"duration":0.3152779354166668},{"name":"F#3","midi":54,"time":63.33336499999997,"velocity":0.6299212598425197,"duration":0.3152779354166668},{"name":"A3","midi":57,"time":63.666698499999974,"velocity":0.6299212598425197,"duration":0.3152779354166668},{"name":"D3","midi":50,"time":64.00003199999998,"velocity":0.6299212598425197,"duration":0.3152779354166597},{"name":"A3","midi":57,"time":64.33336549999997,"velocity":0.6299212598425197,"duration":0.3152779354166597},{"name":"F#3","midi":54,"time":64.66669899999997,"velocity":0.6299212598425197,"duration":0.3152779354166597},{"name":"A3","midi":57,"time":65.00003249999996,"velocity":0.6299212598425197,"duration":0.3152779354166597},{"name":"E3","midi":52,"time":65.33336599999996,"velocity":0.6299212598425197,"duration":0.3152779354166597},{"name":"B3","midi":59,"time":65.66669949999995,"velocity":0.6299212598425197,"duration":0.3152779354166597},{"name":"G3","midi":55,"time":66.00003299999995,"velocity":0.6299212598425197,"duration":0.3152779354166597},{"name":"B3","midi":59,"time":66.33336649999994,"velocity":0.6299212598425197,"duration":0.3152779354166597},{"name":"E3","midi":52,"time":66.66669999999993,"velocity":0.6299212598425197,"duration":0.3152779354166597},{"name":"B3","midi":59,"time":67.00003349999993,"velocity":0.6299212598425197,"duration":0.3152779354166597},{"name":"G3","midi":55,"time":67.33336699999992,"velocity":0.6299212598425197,"duration":0.3152779354166597},{"name":"B3","midi":59,"time":67.66670049999992,"velocity":0.6299212598425197,"duration":0.3152779354166597},{"name":"C3","midi":48,"time":68.00003399999991,"velocity":0.6299212598425197,"duration":0.3152779354166597},{"name":"G3","midi":55,"time":68.33336749999991,"velocity":0.6299212598425197,"duration":0.3152779354166597},{"name":"E3","midi":52,"time":68.6667009999999,"velocity":0.6299212598425197,"duration":0.3152779354166597},{"name":"G3","midi":55,"time":69.0000344999999,"velocity":0.6299212598425197,"duration":0.3152779354166597},{"name":"C3","midi":48,"time":69.3333679999999,"velocity":0.6299212598425197,"duration":0.3152779354166597},{"name":"G3","midi":55,"time":69.66670149999989,"velocity":0.6299212598425197,"duration":0.3152779354166597},{"name":"E3","midi":52,"time":70.00003499999988,"velocity":0.6299212598425197,"duration":0.3152779354166597},{"name":"G3","midi":55,"time":70.33336849999988,"velocity":0.6299212598425197,"duration":0.3152779354166597},{"name":"G3","midi":55,"time":70.66670199999987,"velocity":0.6299212598425197,"duration":0.3152779354166597},{"name":"D4","midi":62,"time":71.00003549999987,"velocity":0.6299212598425197,"duration":0.3152779354166597},{"name":"B3","midi":59,"time":71.33336899999986,"velocity":0.6299212598425197,"duration":0.3152779354166597},{"name":"D4","midi":62,"time":71.66670249999986,"velocity":0.6299212598425197,"duration":0.3152779354166597},{"name":"G3","midi":55,"time":72.00003599999985,"velocity":0.6299212598425197,"duration":0.3152779354166597},{"name":"D4","midi":62,"time":72.33336949999985,"velocity":0.6299212598425197,"duration":0.3152779354166597},{"name":"B3","midi":59,"time":72.66670299999984,"velocity":0.6299212598425197,"duration":0.3152779354166597},{"name":"D4","midi":62,"time":73.00003649999984,"velocity":0.6299212598425197,"duration":0.3152779354166597},{"name":"D3","midi":50,"time":73.33336999999983,"velocity":0.6299212598425197,"duration":0.3152779354166597},{"name":"A3","midi":57,"time":73.66670349999983,"velocity":0.6299212598425197,"duration":0.3152779354166597},{"name":"F#3","midi":54,"time":74.00003699999982,"velocity":0.6299212598425197,"duration":0.3152779354166597},{"name":"A3","midi":57,"time":74.33337049999982,"velocity":0.6299212598425197,"duration":0.3152779354166597},{"name":"D3","midi":50,"time":74.66670399999981,"velocity":0.6299212598425197,"duration":0.3152779354166597},{"name":"A3","midi":57,"time":75.0000374999998,"velocity":0.6299212598425197,"duration":0.3152779354166597},{"name":"F#3","midi":54,"time":75.3333709999998,"velocity":0.6299212598425197,"duration":0.3152779354166597},{"name":"A3","midi":57,"time":75.6667044999998,"velocity":0.6299212598425197,"duration":0.3152779354166597},{"name":"E3","midi":52,"time":76.00003799999979,"velocity":0.6299212598425197,"duration":0.3152779354166597},{"name":"B3","midi":59,"time":76.33337149999979,"velocity":0.6299212598425197,"duration":0.3152779354166597},{"name":"G3","midi":55,"time":76.66670499999978,"velocity":0.6299212598425197,"duration":0.3152779354166597},{"name":"B3","midi":59,"time":77.00003849999977,"velocity":0.6299212598425197,"duration":0.3152779354166597},{"name":"E3","midi":52,"time":77.33337199999977,"velocity":0.6299212598425197,"duration":0.3152779354166597},{"name":"B3","midi":59,"time":77.66670549999976,"velocity":0.6299212598425197,"duration":0.3152779354166597},{"name":"G3","midi":55,"time":78.00003899999976,"velocity":0.6299212598425197,"duration":0.3152779354166597},{"name":"B3","midi":59,"time":78.33337249999975,"velocity":0.6299212598425197,"duration":0.3152779354166597},{"name":"C3","midi":48,"time":78.66670599999975,"velocity":0.6299212598425197,"duration":0.3152779354166597},{"name":"G3","midi":55,"time":79.00003949999974,"velocity":0.6299212598425197,"duration":0.3152779354166597},{"name":"E3","midi":52,"time":79.33337299999974,"velocity":0.6299212598425197,"duration":0.3152779354166597},{"name":"G3","midi":55,"time":79.66670649999973,"velocity":0.6299212598425197,"duration":0.3152779354166597},{"name":"C3","midi":48,"time":80.00003999999973,"velocity":0.6299212598425197,"duration":0.3152779354166597},{"name":"G3","midi":55,"time":80.33337349999972,"velocity":0.6299212598425197,"duration":0.3152779354166597},{"name":"E3","midi":52,"time":80.66670699999972,"velocity":0.6299212598425197,"duration":0.3152779354166597},{"name":"G3","midi":55,"time":81.00004049999971,"velocity":0.6299212598425197,"duration":0.3152779354166597},{"name":"G3","midi":55,"time":81.33337399999971,"velocity":0.6299212598425197,"duration":0.3152779354166597},{"name":"D4","midi":62,"time":81.6667074999997,"velocity":0.6299212598425197,"duration":0.3152779354166597},{"name":"B3","midi":59,"time":82.0000409999997,"velocity":0.6299212598425197,"duration":0.3152779354166597},{"name":"D4","midi":62,"time":82.33337449999969,"velocity":0.6299212598425197,"duration":0.3152779354166597},{"name":"G3","midi":55,"time":82.66670799999969,"velocity":0.6299212598425197,"duration":0.3152779354166597},{"name":"D4","midi":62,"time":83.00004149999968,"velocity":0.6299212598425197,"duration":0.3152779354166597},{"name":"B3","midi":59,"time":83.33337499999968,"velocity":0.6299212598425197,"duration":0.3152779354166597},{"name":"D4","midi":62,"time":83.66670849999967,"velocity":0.6299212598425197,"duration":0.3152779354166597},{"name":"D3","midi":50,"time":84.00004199999967,"velocity":0.6299212598425197,"duration":0.3152779354166597},{"name":"A3","midi":57,"time":84.33337549999966,"velocity":0.6299212598425197,"duration":0.3152779354166597},{"name":"F#3","midi":54,"time":84.66670899999966,"velocity":0.6299212598425197,"duration":0.3152779354166597},{"name":"A3","midi":57,"time":85.00004249999965,"velocity":0.6299212598425197,"duration":0.3152779354166597},{"name":"D3","midi":50,"time":85.33337599999965,"velocity":0.6299212598425197,"duration":0.3152779354166597},{"name":"A3","midi":57,"time":85.66670949999964,"velocity":0.6299212598425197,"duration":0.3152779354166597},{"name":"F#3","midi":54,"time":86.00004299999964,"velocity":0.6299212598425197,"duration":0.3152779354166597},{"name":"A3","midi":57,"time":86.33337649999963,"velocity":0.6299212598425197,"duration":0.3152779354166597},{"name":"E3","midi":52,"time":86.66670999999963,"velocity":0.6299212598425197,"duration":0.3152779354166597},{"name":"B3","midi":59,"time":87.00004349999962,"velocity":0.6299212598425197,"duration":0.3152779354166597},{"name":"G3","midi":55,"time":87.33337699999962,"velocity":0.6299212598425197,"duration":0.3152779354166597},{"name":"B3","midi":59,"time":87.66671049999961,"velocity":0.6299212598425197,"duration":0.3152779354166597},{"name":"E3","midi":52,"time":88.0000439999996,"velocity":0.6299212598425197,"duration":0.3152779354166597},{"name":"B3","midi":59,"time":88.3333774999996,"velocity":0.6299212598425197,"duration":0.3152779354166597},{"name":"G3","midi":55,"time":88.6667109999996,"velocity":0.6299212598425197,"duration":0.3152779354166597},{"name":"B3","midi":59,"time":89.00004449999959,"velocity":0.6299212598425197,"duration":0.3152779354166597},{"name":"C3","midi":48,"time":89.33337799999958,"velocity":0.6299212598425197,"duration":0.3152779354166597},{"name":"G3","midi":55,"time":89.66671149999958,"velocity":0.6299212598425197,"duration":0.3152779354166597},{"name":"E3","midi":52,"time":90.00004499999957,"velocity":0.6299212598425197,"duration":0.3152779354166597},{"name":"G3","midi":55,"time":90.33337849999957,"velocity":0.6299212598425197,"duration":0.3152779354166597},{"name":"C3","midi":48,"time":90.66671199999956,"velocity":0.6299212598425197,"duration":0.3152779354166597},{"name":"G3","midi":55,"time":91.00004549999956,"velocity":0.6299212598425197,"duration":0.3152779354166597},{"name":"E3","midi":52,"time":91.33337899999955,"velocity":0.6299212598425197,"duration":0.3152779354166597},{"name":"G3","midi":55,"time":91.66671249999955,"velocity":0.6299212598425197,"duration":0.3152779354166597},{"name":"G3","midi":55,"time":92.00004599999954,"velocity":0.6299212598425197,"duration":0.3152779354166597},{"name":"D4","midi":62,"time":92.33337949999954,"velocity":0.6299212598425197,"duration":0.3152779354166597},{"name":"B3","midi":59,"time":92.66671299999953,"velocity":0.6299212598425197,"duration":0.3152779354166597},{"name":"D4","midi":62,"time":93.00004649999953,"velocity":0.6299212598425197,"duration":0.3152779354166597},{"name":"G3","midi":55,"time":93.33337999999952,"velocity":0.6299212598425197,"duration":0.3152779354166597},{"name":"D4","midi":62,"time":93.66671349999952,"velocity":0.6299212598425197,"duration":0.3152779354166597},{"name":"B3","midi":59,"time":94.00004699999951,"velocity":0.6299212598425197,"duration":0.3152779354166597},{"name":"D4","midi":62,"time":94.3333804999995,"velocity":0.6299212598425197,"duration":0.3152779354166597},{"name":"D3","midi":50,"time":94.6667139999995,"velocity":0.6299212598425197,"duration":0.3152779354166597},{"name":"A3","midi":57,"time":95.0000474999995,"velocity":0.6299212598425197,"duration":0.3152779354166597},{"name":"F#3","midi":54,"time":95.33338099999949,"velocity":0.6299212598425197,"duration":0.3152779354166597},{"name":"A3","midi":57,"time":95.66671449999949,"velocity":0.6299212598425197,"duration":0.3152779354166597},{"name":"D3","midi":50,"time":96.00004799999948,"velocity":0.6299212598425197,"duration":0.3152779354166597},{"name":"A3","midi":57,"time":96.33338149999948,"velocity":0.6299212598425197,"duration":0.3152779354166597},{"name":"F#3","midi":54,"time":96.66671499999947,"velocity":0.6299212598425197,"duration":0.3152779354166597},{"name":"A3","midi":57,"time":97.00004849999947,"velocity":0.6299212598425197,"duration":0.3152779354166597},{"name":"E3","midi":52,"time":97.33338199999946,"velocity":0.6299212598425197,"duration":0.3152779354166597},{"name":"B3","midi":59,"time":97.66671549999946,"velocity":0.6299212598425197,"duration":0.3152779354166597},{"name":"G3","midi":55,"time":98.00004899999945,"velocity":0.6299212598425197,"duration":0.3152779354166597},{"name":"B3","midi":59,"time":98.33338249999944,"velocity":0.6299212598425197,"duration":0.3152779354166597},{"name":"E3","midi":52,"time":98.66671599999944,"velocity":0.6299212598425197,"duration":0.3152779354166597},{"name":"B3","midi":59,"time":99.00004949999943,"velocity":0.6299212598425197,"duration":0.3152779354166597},{"name":"G3","midi":55,"time":99.33338299999943,"velocity":0.6299212598425197,"duration":0.3152779354166597},{"name":"B3","midi":59,"time":99.66671649999942,"velocity":0.6299212598425197,"duration":0.3152779354166597},{"name":"C3","midi":48,"time":100.00004999999942,"velocity":0.6299212598425197,"duration":0.3152779354166597},{"name":"G3","midi":55,"time":100.33338349999941,"velocity":0.6299212598425197,"duration":0.3152779354166597},{"name":"E3","midi":52,"time":100.66671699999941,"velocity":0.6299212598425197,"duration":0.3152779354166597},{"name":"G3","midi":55,"time":101.0000504999994,"velocity":0.6299212598425197,"duration":0.3152779354166597},{"name":"C3","midi":48,"time":101.3333839999994,"velocity":0.6299212598425197,"duration":0.3152779354166597},{"name":"G3","midi":55,"time":101.6667174999994,"velocity":0.6299212598425197,"duration":0.3152779354166597},{"name":"E3","midi":52,"time":102.00005099999939,"velocity":0.6299212598425197,"duration":0.3152779354166597},{"name":"G3","midi":55,"time":102.33338449999938,"velocity":0.6299212598425197,"duration":0.3152779354166597},{"name":"G3","midi":55,"time":102.66671799999938,"velocity":0.6299212598425197,"duration":0.3152779354166597},{"name":"D4","midi":62,"time":103.00005149999937,"velocity":0.6299212598425197,"duration":0.3152779354166597},{"name":"B3","midi":59,"time":103.33338499999937,"velocity":0.6299212598425197,"duration":0.3152779354166597},{"name":"D4","midi":62,"time":103.66671849999936,"velocity":0.6299212598425197,"duration":0.3152779354166597},{"name":"G3","midi":55,"time":104.00005199999936,"velocity":0.6299212598425197,"duration":0.3152779354166597},{"name":"D4","midi":62,"time":104.33338549999935,"velocity":0.6299212598425197,"duration":0.3152779354166597},{"name":"B3","midi":59,"time":104.66671899999935,"velocity":0.6299212598425197,"duration":0.3152779354166597},{"name":"D4","midi":62,"time":105.00005249999934,"velocity":0.6299212598425197,"duration":0.3152779354166597},{"name":"D3","midi":50,"time":105.33338599999934,"velocity":0.6299212598425197,"duration":0.3152779354166597},{"name":"A3","midi":57,"time":105.66671949999933,"velocity":0.6299212598425197,"duration":0.3152779354166597},{"name":"F#3","midi":54,"time":106.00005299999933,"velocity":0.6299212598425197,"duration":0.3152779354166597},{"name":"A3","midi":57,"time":106.33338649999932,"velocity":0.6299212598425197,"duration":0.3152779354166597},{"name":"D3","midi":50,"time":106.66671999999932,"velocity":0.6299212598425197,"duration":0.3152779354166597},{"name":"A3","midi":57,"time":107.00005349999931,"velocity":0.6299212598425197,"duration":0.3152779354166597},{"name":"E3","midi":52,"time":107.3333869999993,"velocity":0.6299212598425197,"duration":0.6319447604166726},{"name":"E3","midi":52,"time":108.00005399999931,"velocity":0.6299212598425197,"duration":0.3152779354166597},{"name":"B3","midi":59,"time":108.3333874999993,"velocity":0.6299212598425197,"duration":0.3152779354166597},{"name":"G3","midi":55,"time":108.6667209999993,"velocity":0.6299212598425197,"duration":0.3152779354166597},{"name":"B3","midi":59,"time":109.0000544999993,"velocity":0.6299212598425197,"duration":0.3152779354166597},{"name":"E3","midi":52,"time":109.33338799999929,"velocity":0.6299212598425197,"duration":0.3152779354166597},{"name":"B3","midi":59,"time":109.66672149999928,"velocity":0.6299212598425197,"duration":0.3152779354166597},{"name":"G3","midi":55,"time":110.00005499999928,"velocity":0.6299212598425197,"duration":0.3152779354166597},{"name":"B3","midi":59,"time":110.33338849999927,"velocity":0.6299212598425197,"duration":0.3152779354166597},{"name":"C3","midi":48,"time":110.66672199999927,"velocity":0.6299212598425197,"duration":0.3152779354166597},{"name":"G3","midi":55,"time":111.00005549999926,"velocity":0.6299212598425197,"duration":0.3152779354166597},{"name":"E3","midi":52,"time":111.33338899999926,"velocity":0.6299212598425197,"duration":0.3152779354166597},{"name":"G3","midi":55,"time":111.66672249999925,"velocity":0.6299212598425197,"duration":0.3152779354166597},{"name":"C3","midi":48,"time":112.00005599999925,"velocity":0.6299212598425197,"duration":0.3152779354166597},{"name":"G3","midi":55,"time":112.33338949999924,"velocity":0.6299212598425197,"duration":0.3152779354166597},{"name":"E3","midi":52,"time":112.66672299999924,"velocity":0.6299212598425197,"duration":0.3152779354166597},{"name":"G3","midi":55,"time":113.00005649999923,"velocity":0.6299212598425197,"duration":0.3152779354166597},{"name":"G3","midi":55,"time":113.33338999999923,"velocity":0.6299212598425197,"duration":0.3152779354166597},{"name":"D4","midi":62,"time":113.66672349999922,"velocity":0.6299212598425197,"duration":0.3152779354166597},{"name":"B3","midi":59,"time":114.00005699999922,"velocity":0.6299212598425197,"duration":0.3152779354166597},{"name":"D4","midi":62,"time":114.33339049999921,"velocity":0.6299212598425197,"duration":0.3152779354166597},{"name":"G3","midi":55,"time":114.6667239999992,"velocity":0.6299212598425197,"duration":0.3152779354166597},{"name":"D4","midi":62,"time":115.0000574999992,"velocity":0.6299212598425197,"duration":0.3152779354166597},{"name":"B3","midi":59,"time":115.3333909999992,"velocity":0.6299212598425197,"duration":0.3152779354166597},{"name":"D4","midi":62,"time":115.66672449999919,"velocity":0.6299212598425197,"duration":0.3152779354166597},{"name":"D3","midi":50,"time":116.00005799999919,"velocity":0.6299212598425197,"duration":0.3152779354166597},{"name":"A3","midi":57,"time":116.33339149999918,"velocity":0.6299212598425197,"duration":0.3152779354166597},{"name":"F#3","midi":54,"time":116.66672499999918,"velocity":0.6299212598425197,"duration":0.3152779354166597},{"name":"A3","midi":57,"time":117.00005849999917,"velocity":0.6299212598425197,"duration":0.3152779354166597},{"name":"D3","midi":50,"time":117.33339199999917,"velocity":0.6299212598425197,"duration":0.3152779354166597},{"name":"A3","midi":57,"time":117.66672549999916,"velocity":0.6299212598425197,"duration":0.3152779354166597},{"name":"E3","midi":52,"time":118.00005899999915,"velocity":0.6299212598425197,"duration":0.6319447604166726},{"name":"E3","midi":52,"time":118.66672599999916,"velocity":0.6299212598425197,"duration":0.3152779354166597},{"name":"B3","midi":59,"time":119.00005949999915,"velocity":0.6299212598425197,"duration":0.3152779354166597},{"name":"G3","midi":55,"time":119.33339299999915,"velocity":0.6299212598425197,"duration":0.3152779354166597},{"name":"B3","midi":59,"time":119.66672649999914,"velocity":0.6299212598425197,"duration":0.3152779354166597},{"name":"E3","midi":52,"time":120.00005999999914,"velocity":0.6299212598425197,"duration":0.3152779354166597},{"name":"B3","midi":59,"time":120.33339349999913,"velocity":0.6299212598425197,"duration":0.3152779354166597},{"name":"G3","midi":55,"time":120.66672699999913,"velocity":0.6299212598425197,"duration":0.3152779354166597},{"name":"B3","midi":59,"time":121.00006049999912,"velocity":0.6299212598425197,"duration":0.3152779354166597},{"name":"C3","midi":48,"time":121.33339399999912,"velocity":0.6299212598425197,"duration":0.3152779354166597},{"name":"G3","midi":55,"time":121.66672749999911,"velocity":0.6299212598425197,"duration":0.3152779354166597},{"name":"E3","midi":52,"time":122.0000609999991,"velocity":0.6299212598425197,"duration":0.3152779354166597},{"name":"G3","midi":55,"time":122.3333944999991,"velocity":0.6299212598425197,"duration":0.3152779354166597},{"name":"C3","midi":48,"time":122.6667279999991,"velocity":0.6299212598425197,"duration":0.3152779354166597},{"name":"G3","midi":55,"time":123.00006149999909,"velocity":0.6299212598425197,"duration":0.3152779354166597},{"name":"E3","midi":52,"time":123.33339499999909,"velocity":0.6299212598425197,"duration":0.3152779354166597},{"name":"G3","midi":55,"time":123.66672849999908,"velocity":0.6299212598425197,"duration":0.3152779354166597},{"name":"G3","midi":55,"time":124.00006199999908,"velocity":0.6299212598425197,"duration":0.3152779354166597},{"name":"D4","midi":62,"time":124.33339549999907,"velocity":0.6299212598425197,"duration":0.3152779354166597},{"name":"B3","midi":59,"time":124.66672899999907,"velocity":0.6299212598425197,"duration":0.3152779354166597},{"name":"D4","midi":62,"time":125.00006249999906,"velocity":0.6299212598425197,"duration":0.3152779354166597},{"name":"G3","midi":55,"time":125.33339599999906,"velocity":0.6299212598425197,"duration":0.3152779354166597},{"name":"D4","midi":62,"time":125.66672949999905,"velocity":0.6299212598425197,"duration":0.3152779354166597},{"name":"B3","midi":59,"time":126.00006299999905,"velocity":0.6299212598425197,"duration":0.3152779354166597},{"name":"D4","midi":62,"time":126.33339649999904,"velocity":0.6299212598425197,"duration":0.3152779354166597},{"name":"D3","midi":50,"time":126.66672999999903,"velocity":0.6299212598425197,"duration":0.3152779354166597},{"name":"A3","midi":57,"time":127.00006349999903,"velocity":0.6299212598425197,"duration":0.3152779354166597},{"name":"F#3","midi":54,"time":127.33339699999902,"velocity":0.6299212598425197,"duration":0.3152779354166597},{"name":"A3","midi":57,"time":127.66673049999902,"velocity":0.6299212598425197,"duration":0.3152779354166597},{"name":"D3","midi":50,"time":128.000063999999,"velocity":0.6299212598425197,"duration":0.3152779354166739},{"name":"A3","midi":57,"time":128.33339749999902,"velocity":0.6299212598425197,"duration":0.3152779354166739},{"name":"F#3","midi":54,"time":128.66673099999903,"velocity":0.6299212598425197,"duration":0.3152779354166739},{"name":"A3","midi":57,"time":129.00006449999904,"velocity":0.6299212598425197,"duration":0.3152779354166739},{"name":"B2","midi":47,"time":129.33339799999905,"velocity":0.6299212598425197,"duration":2.5319457104166645},{"name":"E3","midi":52,"time":129.33339799999905,"velocity":0.6299212598425197,"duration":2.5319457104166645},{"name":"G3","midi":55,"time":129.33339799999905,"velocity":0.6299212598425197,"duration":2.5319457104166645},{"name":"C3","midi":48,"time":132.00006599999904,"velocity":0.6299212598425197,"duration":2.5319457104166645},{"name":"E3","midi":52,"time":132.00006599999904,"velocity":0.6299212598425197,"duration":2.5319457104166645},{"name":"G3","midi":55,"time":132.00006599999904,"velocity":0.6299212598425197,"duration":2.5319457104166645},{"name":"D3","midi":50,"time":134.66673399999902,"velocity":0.6299212598425197,"duration":2.5319457104166645},{"name":"G3","midi":55,"time":134.66673399999902,"velocity":0.6299212598425197,"duration":2.5319457104166645},{"name":"B3","midi":59,"time":134.66673399999902,"velocity":0.6299212598425197,"duration":2.5319457104166645},{"name":"D3","midi":50,"time":137.333401999999,"velocity":0.6299212598425197,"duration":2.5319457104166645},{"name":"F#3","midi":54,"time":137.333401999999,"velocity":0.6299212598425197,"duration":2.5319457104166645},{"name":"A3","midi":57,"time":137.333401999999,"velocity":0.6299212598425197,"duration":2.5319457104166645},{"name":"A3","midi":57,"time":137.333401999999,"velocity":0.6299212598425197,"duration":2.5319457104166645},{"name":"B2","midi":47,"time":140.000069999999,"velocity":0.6299212598425197,"duration":1.2652784104166699},{"name":"E3","midi":52,"time":140.000069999999,"velocity":0.6299212598425197,"duration":1.2652784104166699},{"name":"G3","midi":55,"time":140.000069999999,"velocity":0.6299212598425197,"duration":1.2652784104166699},{"name":"B2","midi":47,"time":141.333403999999,"velocity":0.6299212598425197,"duration":1.2652784104166699},{"name":"E3","midi":52,"time":141.333403999999,"velocity":0.6299212598425197,"duration":1.2652784104166699},{"name":"G3","midi":55,"time":141.333403999999,"velocity":0.6299212598425197,"duration":1.2652784104166699},{"name":"C3","midi":48,"time":142.66673799999901,"velocity":0.6299212598425197,"duration":1.2652784104166699},{"name":"E3","midi":52,"time":142.66673799999901,"velocity":0.6299212598425197,"duration":1.2652784104166699},{"name":"G3","midi":55,"time":142.66673799999901,"velocity":0.6299212598425197,"duration":1.2652784104166699},{"name":"C3","midi":48,"time":144.00007199999902,"velocity":0.6299212598425197,"duration":1.2652784104166699},{"name":"E3","midi":52,"time":144.00007199999902,"velocity":0.6299212598425197,"duration":1.2652784104166699},{"name":"G3","midi":55,"time":144.00007199999902,"velocity":0.6299212598425197,"duration":1.2652784104166699},{"name":"D3","midi":50,"time":145.33340599999903,"velocity":0.6299212598425197,"duration":1.2652784104166699},{"name":"G3","midi":55,"time":145.33340599999903,"velocity":0.6299212598425197,"duration":1.2652784104166699},{"name":"B3","midi":59,"time":145.33340599999903,"velocity":0.6299212598425197,"duration":1.2652784104166699},{"name":"D3","midi":50,"time":146.66673999999904,"velocity":0.6299212598425197,"duration":1.2652784104166699},{"name":"G3","midi":55,"time":146.66673999999904,"velocity":0.6299212598425197,"duration":1.2652784104166699},{"name":"B3","midi":59,"time":146.66673999999904,"velocity":0.6299212598425197,"duration":1.2652784104166699},{"name":"D3","midi":50,"time":148.00007399999905,"velocity":0.6299212598425197,"duration":1.2652784104166699},{"name":"F#3","midi":54,"time":148.00007399999905,"velocity":0.6299212598425197,"duration":1.2652784104166699},{"name":"A3","midi":57,"time":148.00007399999905,"velocity":0.6299212598425197,"duration":1.2652784104166699},{"name":"D3","midi":50,"time":149.33340799999905,"velocity":0.6299212598425197,"duration":2.5319457104166645},{"name":"F#3","midi":54,"time":149.33340799999905,"velocity":0.6299212598425197,"duration":2.5319457104166645},{"name":"A3","midi":57,"time":149.33340799999905,"velocity":0.6299212598425197,"duration":2.5319457104166645},{"name":"E3","midi":52,"time":152.00007599999904,"velocity":0.6299212598425197,"duration":0.3152779354166739},{"name":"B3","midi":59,"time":152.33340949999905,"velocity":0.6299212598425197,"duration":0.3152779354166739},{"name":"G3","midi":55,"time":152.66674299999906,"velocity":0.6299212598425197,"duration":0.3152779354166739},{"name":"B3","midi":59,"time":153.00007649999907,"velocity":0.6299212598425197,"duration":0.3152779354166739},{"name":"E3","midi":52,"time":153.33340999999908,"velocity":0.6299212598425197,"duration":0.3152779354166739},{"name":"B3","midi":59,"time":153.6667434999991,"velocity":0.6299212598425197,"duration":0.3152779354166739},{"name":"G3","midi":55,"time":154.0000769999991,"velocity":0.6299212598425197,"duration":0.3152779354166739},{"name":"B3","midi":59,"time":154.3334104999991,"velocity":0.6299212598425197,"duration":0.3152779354166739},{"name":"C3","midi":48,"time":154.6667439999991,"velocity":0.6299212598425197,"duration":0.3152779354166739},{"name":"G3","midi":55,"time":155.00007749999912,"velocity":0.6299212598425197,"duration":0.3152779354166739},{"name":"E3","midi":52,"time":155.33341099999913,"velocity":0.6299212598425197,"duration":0.3152779354166739},{"name":"G3","midi":55,"time":155.66674449999914,"velocity":0.6299212598425197,"duration":0.3152779354166739},{"name":"C3","midi":48,"time":156.00007799999915,"velocity":0.6299212598425197,"duration":0.3152779354166739},{"name":"G3","midi":55,"time":156.33341149999916,"velocity":0.6299212598425197,"duration":0.3152779354166739},{"name":"E3","midi":52,"time":156.66674499999917,"velocity":0.6299212598425197,"duration":0.3152779354166739},{"name":"G3","midi":55,"time":157.00007849999918,"velocity":0.6299212598425197,"duration":0.3152779354166739},{"name":"G3","midi":55,"time":157.33341199999919,"velocity":0.6299212598425197,"duration":0.3152779354166739},{"name":"D4","midi":62,"time":157.6667454999992,"velocity":0.6299212598425197,"duration":0.3152779354166739},{"name":"B3","midi":59,"time":158.0000789999992,"velocity":0.6299212598425197,"duration":0.3152779354166739},{"name":"D4","midi":62,"time":158.3334124999992,"velocity":0.6299212598425197,"duration":0.3152779354166739},{"name":"G3","midi":55,"time":158.66674599999922,"velocity":0.6299212598425197,"duration":0.3152779354166739},{"name":"D4","midi":62,"time":159.00007949999923,"velocity":0.6299212598425197,"duration":0.3152779354166739},{"name":"B3","midi":59,"time":159.33341299999924,"velocity":0.6299212598425197,"duration":0.3152779354166739},{"name":"D4","midi":62,"time":159.66674649999925,"velocity":0.6299212598425197,"duration":0.3152779354166739},{"name":"D3","midi":50,"time":160.00007999999926,"velocity":0.6299212598425197,"duration":0.3152779354166739},{"name":"A3","midi":57,"time":160.33341349999927,"velocity":0.6299212598425197,"duration":0.3152779354166739},{"name":"F#3","midi":54,"time":160.66674699999928,"velocity":0.6299212598425197,"duration":0.3152779354166739},{"name":"A3","midi":57,"time":161.00008049999929,"velocity":0.6299212598425197,"duration":0.3152779354166739},{"name":"D3","midi":50,"time":161.3334139999993,"velocity":0.6299212598425197,"duration":0.3152779354166739},{"name":"A3","midi":57,"time":161.6667474999993,"velocity":0.6299212598425197,"duration":0.3152779354166739},{"name":"F#3","midi":54,"time":162.0000809999993,"velocity":0.6299212598425197,"duration":0.3152779354166739},{"name":"A3","midi":57,"time":162.33341449999932,"velocity":0.6299212598425197,"duration":0.3152779354166739},{"name":"E3","midi":52,"time":162.66674799999933,"velocity":0.6299212598425197,"duration":0.3152779354166739},{"name":"B3","midi":59,"time":163.00008149999934,"velocity":0.6299212598425197,"duration":0.3152779354166739},{"name":"G3","midi":55,"time":163.33341499999935,"velocity":0.6299212598425197,"duration":0.3152779354166739},{"name":"B3","midi":59,"time":163.66674849999936,"velocity":0.6299212598425197,"duration":0.3152779354166739},{"name":"E3","midi":52,"time":164.00008199999937,"velocity":0.6299212598425197,"duration":0.3152779354166739},{"name":"B3","midi":59,"time":164.33341549999938,"velocity":0.6299212598425197,"duration":0.3152779354166739},{"name":"G3","midi":55,"time":164.66674899999938,"velocity":0.6299212598425197,"duration":0.3152779354166739},{"name":"B3","midi":59,"time":165.0000824999994,"velocity":0.6299212598425197,"duration":0.3152779354166739},{"name":"C3","midi":48,"time":165.3334159999994,"velocity":0.6299212598425197,"duration":0.3152779354166739},{"name":"G3","midi":55,"time":165.6667494999994,"velocity":0.6299212598425197,"duration":0.3152779354166739},{"name":"E3","midi":52,"time":166.00008299999942,"velocity":0.6299212598425197,"duration":0.3152779354166739},{"name":"G3","midi":55,"time":166.33341649999943,"velocity":0.6299212598425197,"duration":0.3152779354166739},{"name":"C3","midi":48,"time":166.66674999999944,"velocity":0.6299212598425197,"duration":0.3152779354166739},{"name":"G3","midi":55,"time":167.00008349999945,"velocity":0.6299212598425197,"duration":0.3152779354166739},{"name":"E3","midi":52,"time":167.33341699999946,"velocity":0.6299212598425197,"duration":0.3152779354166739},{"name":"G3","midi":55,"time":167.66675049999947,"velocity":0.6299212598425197,"duration":0.3152779354166739},{"name":"G3","midi":55,"time":168.00008399999948,"velocity":0.6299212598425197,"duration":0.3152779354166739},{"name":"D4","midi":62,"time":168.33341749999948,"velocity":0.6299212598425197,"duration":0.3152779354166739},{"name":"B3","midi":59,"time":168.6667509999995,"velocity":0.6299212598425197,"duration":0.3152779354166739},{"name":"D4","midi":62,"time":169.0000844999995,"velocity":0.6299212598425197,"duration":0.3152779354166739},{"name":"G3","midi":55,"time":169.3334179999995,"velocity":0.6299212598425197,"duration":0.3152779354166739},{"name":"D4","midi":62,"time":169.66675149999952,"velocity":0.6299212598425197,"duration":0.3152779354166739},{"name":"B3","midi":59,"time":170.00008499999953,"velocity":0.6299212598425197,"duration":0.3152779354166739},{"name":"D4","midi":62,"time":170.33341849999954,"velocity":0.6299212598425197,"duration":0.3152779354166739},{"name":"D3","midi":50,"time":170.66675199999955,"velocity":0.6299212598425197,"duration":0.3152779354166739},{"name":"A3","midi":57,"time":171.00008549999956,"velocity":0.6299212598425197,"duration":0.3152779354166739},{"name":"F#3","midi":54,"time":171.33341899999957,"velocity":0.6299212598425197,"duration":0.3152779354166739},{"name":"A3","midi":57,"time":171.66675249999957,"velocity":0.6299212598425197,"duration":0.3152779354166739},{"name":"D3","midi":50,"time":172.00008599999958,"velocity":0.6299212598425197,"duration":0.3152779354166739},{"name":"A3","midi":57,"time":172.3334194999996,"velocity":0.6299212598425197,"duration":0.3152779354166739},{"name":"F#3","midi":54,"time":172.6667529999996,"velocity":0.6299212598425197,"duration":0.3152779354166739},{"name":"A3","midi":57,"time":173.0000864999996,"velocity":0.6299212598425197,"duration":0.3152779354166739},{"name":"E3","midi":52,"time":173.33341999999962,"velocity":0.6299212598425197,"duration":0.3152779354166739},{"name":"B3","midi":59,"time":173.66675349999963,"velocity":0.6299212598425197,"duration":0.3152779354166739},{"name":"G3","midi":55,"time":174.00008699999964,"velocity":0.6299212598425197,"duration":0.3152779354166739},{"name":"B3","midi":59,"time":174.33342049999965,"velocity":0.6299212598425197,"duration":0.3152779354166739},{"name":"E3","midi":52,"time":174.66675399999966,"velocity":0.6299212598425197,"duration":0.3152779354166739},{"name":"B3","midi":59,"time":175.00008749999967,"velocity":0.6299212598425197,"duration":0.3152779354166739},{"name":"G3","midi":55,"time":175.33342099999967,"velocity":0.6299212598425197,"duration":0.3152779354166739},{"name":"B3","midi":59,"time":175.66675449999968,"velocity":0.6299212598425197,"duration":0.3152779354166739},{"name":"C3","midi":48,"time":176.0000879999997,"velocity":0.6299212598425197,"duration":0.3152779354166739},{"name":"G3","midi":55,"time":176.3334214999997,"velocity":0.6299212598425197,"duration":0.3152779354166739},{"name":"E3","midi":52,"time":176.6667549999997,"velocity":0.6299212598425197,"duration":0.3152779354166739},{"name":"G3","midi":55,"time":177.00008849999972,"velocity":0.6299212598425197,"duration":0.3152779354166739},{"name":"C3","midi":48,"time":177.33342199999973,"velocity":0.6299212598425197,"duration":0.3152779354166739},{"name":"G3","midi":55,"time":177.66675549999974,"velocity":0.6299212598425197,"duration":0.3152779354166739},{"name":"E3","midi":52,"time":178.00008899999975,"velocity":0.6299212598425197,"duration":0.3152779354166739},{"name":"G3","midi":55,"time":178.33342249999976,"velocity":0.6299212598425197,"duration":0.3152779354166739},{"name":"G3","midi":55,"time":178.66675599999976,"velocity":0.6299212598425197,"duration":0.3152779354166739},{"name":"D4","midi":62,"time":179.00008949999977,"velocity":0.6299212598425197,"duration":0.3152779354166739},{"name":"B3","midi":59,"time":179.33342299999978,"velocity":0.6299212598425197,"duration":0.3152779354166739},{"name":"D4","midi":62,"time":179.6667564999998,"velocity":0.6299212598425197,"duration":0.3152779354166739},{"name":"G3","midi":55,"time":180.0000899999998,"velocity":0.6299212598425197,"duration":0.3152779354166739},{"name":"D4","midi":62,"time":180.3334234999998,"velocity":0.6299212598425197,"duration":0.3152779354166739},{"name":"B3","midi":59,"time":180.66675699999982,"velocity":0.6299212598425197,"duration":0.3152779354166739},{"name":"D4","midi":62,"time":181.00009049999983,"velocity":0.6299212598425197,"duration":0.3152779354166739},{"name":"D3","midi":50,"time":181.33342399999984,"velocity":0.6299212598425197,"duration":0.3152779354166739},{"name":"A3","midi":57,"time":181.66675749999985,"velocity":0.6299212598425197,"duration":0.3152779354166739},{"name":"F#3","midi":54,"time":182.00009099999986,"velocity":0.6299212598425197,"duration":0.3152779354166739},{"name":"A3","midi":57,"time":182.33342449999986,"velocity":0.6299212598425197,"duration":0.3152779354166739},{"name":"D3","midi":50,"time":182.66675799999987,"velocity":0.6299212598425197,"duration":0.3152779354166739},{"name":"A3","midi":57,"time":183.00009149999988,"velocity":0.6299212598425197,"duration":0.3152779354166739},{"name":"F#3","midi":54,"time":183.3334249999999,"velocity":0.6299212598425197,"duration":0.3152779354166739},{"name":"A3","midi":57,"time":183.6667584999999,"velocity":0.6299212598425197,"duration":0.3152779354166739},{"name":"E3","midi":52,"time":184.0000919999999,"velocity":0.6299212598425197,"duration":0.3152779354166739},{"name":"B3","midi":59,"time":184.33342549999992,"velocity":0.6299212598425197,"duration":0.3152779354166739},{"name":"G3","midi":55,"time":184.66675899999993,"velocity":0.6299212598425197,"duration":0.3152779354166739},{"name":"B3","midi":59,"time":185.00009249999994,"velocity":0.6299212598425197,"duration":0.3152779354166739},{"name":"E3","midi":52,"time":185.33342599999995,"velocity":0.6299212598425197,"duration":0.3152779354166739},{"name":"B3","midi":59,"time":185.66675949999996,"velocity":0.6299212598425197,"duration":0.3152779354166739},{"name":"G3","midi":55,"time":186.00009299999996,"velocity":0.6299212598425197,"duration":0.3152779354166739},{"name":"B3","midi":59,"time":186.33342649999997,"velocity":0.6299212598425197,"duration":0.3152779354166739},{"name":"C3","midi":48,"time":186.66675999999998,"velocity":0.6299212598425197,"duration":0.3152779354166739},{"name":"G3","midi":55,"time":187.0000935,"velocity":0.6299212598425197,"duration":0.3152779354166739},{"name":"E3","midi":52,"time":187.333427,"velocity":0.6299212598425197,"duration":0.3152779354166739},{"name":"G3","midi":55,"time":187.6667605,"velocity":0.6299212598425197,"duration":0.3152779354166739},{"name":"C3","midi":48,"time":188.00009400000002,"velocity":0.6299212598425197,"duration":0.3152779354166739},{"name":"G3","midi":55,"time":188.33342750000003,"velocity":0.6299212598425197,"duration":0.3152779354166739},{"name":"E3","midi":52,"time":188.66676100000004,"velocity":0.6299212598425197,"duration":0.3152779354166739},{"name":"G3","midi":55,"time":189.00009450000005,"velocity":0.6299212598425197,"duration":0.3152779354166739},{"name":"G3","midi":55,"time":189.33342800000005,"velocity":0.6299212598425197,"duration":0.3152779354166739},{"name":"D4","midi":62,"time":189.66676150000006,"velocity":0.6299212598425197,"duration":0.3152779354166739},{"name":"B3","midi":59,"time":190.00009500000007,"velocity":0.6299212598425197,"duration":0.3152779354166739},{"name":"D4","midi":62,"time":190.33342850000008,"velocity":0.6299212598425197,"duration":0.3152779354166739},{"name":"G3","midi":55,"time":190.6667620000001,"velocity":0.6299212598425197,"duration":0.3152779354166739},{"name":"D4","midi":62,"time":191.0000955000001,"velocity":0.6299212598425197,"duration":0.3152779354166739},{"name":"B3","midi":59,"time":191.3334290000001,"velocity":0.6299212598425197,"duration":0.3152779354166739},{"name":"D4","midi":62,"time":191.66676250000012,"velocity":0.6299212598425197,"duration":0.3152779354166739},{"name":"D3","midi":50,"time":192.00009600000013,"velocity":0.6299212598425197,"duration":0.3152779354166739},{"name":"A3","midi":57,"time":192.33342950000014,"velocity":0.6299212598425197,"duration":0.3152779354166739},{"name":"F#3","midi":54,"time":192.66676300000015,"velocity":0.6299212598425197,"duration":0.3152779354166739},{"name":"A3","midi":57,"time":193.00009650000015,"velocity":0.6299212598425197,"duration":0.3152779354166739},{"name":"D3","midi":50,"time":193.33343000000016,"velocity":0.6299212598425197,"duration":0.3152779354166739},{"name":"A3","midi":57,"time":193.66676350000017,"velocity":0.6299212598425197,"duration":0.3152779354166739},{"name":"F#3","midi":54,"time":194.00009700000018,"velocity":0.6299212598425197,"duration":0.3152779354166739},{"name":"A3","midi":57,"time":194.3334305000002,"velocity":0.6299212598425197,"duration":0.3152779354166739},{"name":"E3","midi":52,"time":194.6667640000002,"velocity":0.6299212598425197,"duration":0.3152779354166739},{"name":"B3","midi":59,"time":195.0000975000002,"velocity":0.6299212598425197,"duration":0.3152779354166739},{"name":"G3","midi":55,"time":195.33343100000022,"velocity":0.6299212598425197,"duration":0.3152779354166739},{"name":"B3","midi":59,"time":195.66676450000023,"velocity":0.6299212598425197,"duration":0.3152779354166739},{"name":"E3","midi":52,"time":196.00009800000024,"velocity":0.6299212598425197,"duration":0.3152779354166739},{"name":"B3","midi":59,"time":196.33343150000024,"velocity":0.6299212598425197,"duration":0.3152779354166739},{"name":"G3","midi":55,"time":196.66676500000025,"velocity":0.6299212598425197,"duration":0.3152779354166739},{"name":"B3","midi":59,"time":197.00009850000026,"velocity":0.6299212598425197,"duration":0.3152779354166739},{"name":"C3","midi":48,"time":197.33343200000027,"velocity":0.6299212598425197,"duration":0.3152779354166739},{"name":"G3","midi":55,"time":197.66676550000028,"velocity":0.6299212598425197,"duration":0.3152779354166739},{"name":"E3","midi":52,"time":198.0000990000003,"velocity":0.6299212598425197,"duration":0.3152779354166739},{"name":"G3","midi":55,"time":198.3334325000003,"velocity":0.6299212598425197,"duration":0.3152779354166739},{"name":"C3","midi":48,"time":198.6667660000003,"velocity":0.6299212598425197,"duration":0.3152779354166739},{"name":"G3","midi":55,"time":199.00009950000032,"velocity":0.6299212598425197,"duration":0.3152779354166739},{"name":"E3","midi":52,"time":199.33343300000033,"velocity":0.6299212598425197,"duration":0.3152779354166739},{"name":"G3","midi":55,"time":199.66676650000034,"velocity":0.6299212598425197,"duration":0.3152779354166739},{"name":"G3","midi":55,"time":200.00010000000034,"velocity":0.6299212598425197,"duration":0.3152779354166739},{"name":"D4","midi":62,"time":200.33343350000035,"velocity":0.6299212598425197,"duration":0.3152779354166739},{"name":"B3","midi":59,"time":200.66676700000036,"velocity":0.6299212598425197,"duration":0.3152779354166739},{"name":"D4","midi":62,"time":201.00010050000037,"velocity":0.6299212598425197,"duration":0.3152779354166739},{"name":"G3","midi":55,"time":201.33343400000038,"velocity":0.6299212598425197,"duration":0.3152779354166739},{"name":"D4","midi":62,"time":201.6667675000004,"velocity":0.6299212598425197,"duration":0.3152779354166739},{"name":"B3","midi":59,"time":202.0001010000004,"velocity":0.6299212598425197,"duration":0.3152779354166739},{"name":"D4","midi":62,"time":202.3334345000004,"velocity":0.6299212598425197,"duration":0.3152779354166739},{"name":"D3","midi":50,"time":202.66676800000042,"velocity":0.6299212598425197,"duration":2.5319457104166645},{"name":"A3","midi":57,"time":202.66676800000042,"velocity":0.6299212598425197,"duration":2.5319457104166645}]}]}