{"header":{"title":"Sonate No. 14, \"Moonlight\" 1st Movement","artist":"Ludwig van Beethoven","source":"https://musescore.com/classicman/scores/55352","bpm":43.99997946667625,"duration":376.3609710895929},"tracks":[{"instrument_number":0,"notes":[{"name":"G#3","midi":56,"time":0,"velocity":0.25984251968503935,"duration":0.45170475625},{"name":"C#4","midi":61,"time":0.4545456666666667,"velocity":0.25984251968503935,"duration":0.45170475625},{"name":"E4","midi":64,"time":0.9090913333333334,"velocity":0.25984251968503935,"duration":0.45170475624999995},{"name":"G#3","midi":56,"time":1.363637,"velocity":0.25984251968503935,"duration":0.45170475625000006},{"name":"C#4","midi":61,"time":1.8181826666666667,"velocity":0.25984251968503935,"duration":0.45170475625000006},{"name":"E4","midi":64,"time":2.2727283333333332,"velocity":0.25984251968503935,"duration":0.45170475624999984},{"name":"G#3","midi":56,"time":2.7272739999999995,"velocity":0.25984251968503935,"duration":0.45170475624999984},{"name":"C#4","midi":61,"time":3.181819666666666,"velocity":0.25984251968503935,"duration":0.45170475624999984},{"name":"E4","midi":64,"time":3.636365333333332,"velocity":0.25984251968503935,"duration":0.45170475624999984},{"name":"G#3","midi":56,"time":4.090910999999998,"velocity":0.25984251968503935,"duration":0.45170475624999984},{"name":"C#4","midi":61,"time":4.545456666666665,"velocity":0.25984251968503935,"duration":0.45170475624999984},{"name":"E4","midi":64,"time":5.000002333333331,"velocity":0.25984251968503935,"duration":0.45170475624999984},{"name":"G#3","midi":56,"time":5.454547999999997,"velocity":0.25984251968503935,"duration":0.45170475624999984},{"name":"C#4","midi":61,"time":5.909093666666664,"velocity":0.25984251968503935,"duration":0.45170475624999984},{"name":"E4","midi":64,"time":6.36363933333333,"velocity":0.25984251968503935,"duration":0.45170475624999984},{"name":"G#3","midi":56,"time":6.818184999999996,"velocity":0.25984251968503935,"duration":0.45170475624999984},{"name":"C#4","midi":61,"time":7.2727306666666625,"velocity":0.25984251968503935,"duration":0.45170475624999984},{"name":"E4","midi":64,"time":7.727276333333329,"velocity":0.25984251968503935,"duration":0.4517047562500007},{"name":"G#3","midi":56,"time":8.181821999999997,"velocity":0.25984251968503935,"duration":0.4517047562500007},{"name":"C#4","midi":61,"time":8.636367666666665,"velocity":0.25984251968503935,"duration":0.4517047562500007},{"name":"E4","midi":64,"time":9.090913333333333,"velocity":0.25984251968503935,"duration":0.4517047562500007},{"name":"G#3","midi":56,"time":9.545459000000001,"velocity":0.25984251968503935,"duration":0.4517047562500007},{"name":"C#4","midi":61,"time":10.000004666666669,"velocity":0.25984251968503935,"duration":0.4517047562500007},{"name":"E4","midi":64,"time":10.454550333333337,"velocity":0.25984251968503935,"duration":0.4517047562500007},{"name":"A3","midi":57,"time":10.909096000000005,"velocity":0.25984251968503935,"duration":0.4517047562500007},{"name":"C#4","midi":61,"time":11.363641666666673,"velocity":0.25984251968503935,"duration":0.4517047562500007},{"name":"E4","midi":64,"time":11.818187333333341,"velocity":0.25984251968503935,"duration":0.4517047562500007},{"name":"A3","midi":57,"time":12.27273300000001,"velocity":0.25984251968503935,"duration":0.4517047562500007},{"name":"C#4","midi":61,"time":12.727278666666678,"velocity":0.25984251968503935,"duration":0.4517047562500007},{"name":"E4","midi":64,"time":13.181824333333346,"velocity":0.25984251968503935,"duration":0.4517047562500007},{"name":"A3","midi":57,"time":13.636370000000014,"velocity":0.25984251968503935,"duration":0.4517047562500007},{"name":"D4","midi":62,"time":14.090915666666682,"velocity":0.25984251968503935,"duration":0.4517047562500007},{"name":"F#4","midi":66,"time":14.54546133333335,"velocity":0.25984251968503935,"duration":0.4517047562500007},{"name":"A3","midi":57,"time":15.000007000000018,"velocity":0.25984251968503935,"duration":0.4517047562500007},{"name":"D4","midi":62,"time":15.454552666666686,"velocity":0.25984251968503935,"duration":0.4517047562500007},{"name":"F#4","midi":66,"time":15.909098333333354,"velocity":0.25984251968503935,"duration":0.45170475624999895},{"name":"G#3","midi":56,"time":16.36364400000002,"velocity":0.25984251968503935,"duration":0.45170475624999895},{"name":"C4","midi":60,"time":16.818189666666683,"velocity":0.25984251968503935,"duration":0.45170475624999895},{"name":"F#4","midi":66,"time":17.272735333333348,"velocity":0.25984251968503935,"duration":0.45170475624999895},{"name":"G#3","midi":56,"time":17.727281000000012,"velocity":0.25984251968503935,"duration":0.45170475624999895},{"name":"C#4","midi":61,"time":18.181826666666677,"velocity":0.25984251968503935,"duration":0.45170475624999895},{"name":"E4","midi":64,"time":18.63637233333334,"velocity":0.25984251968503935,"duration":0.45170475624999895},{"name":"G#3","midi":56,"time":19.090918000000006,"velocity":0.25984251968503935,"duration":0.45170475624999895},{"name":"C#4","midi":61,"time":19.54546366666667,"velocity":0.25984251968503935,"duration":0.45170475624999895},{"name":"D#4","midi":63,"time":20.000009333333335,"velocity":0.25984251968503935,"duration":0.45170475624999895},{"name":"F#3","midi":54,"time":20.454555,"velocity":0.25984251968503935,"duration":0.45170475624999895},{"name":"C4","midi":60,"time":20.909100666666664,"velocity":0.25984251968503935,"duration":0.45170475624999895},{"name":"D#4","midi":63,"time":21.363646333333328,"velocity":0.25984251968503935,"duration":0.45170475624999895},{"name":"E3","midi":52,"time":21.818191999999993,"velocity":0.25984251968503935,"duration":0.45170475624999895},{"name":"G#3","midi":56,"time":22.272737666666657,"velocity":0.25984251968503935,"duration":0.45170475624999895},{"name":"C#4","midi":61,"time":22.72728333333332,"velocity":0.25984251968503935,"duration":0.45170475624999895},{"name":"G#3","midi":56,"time":23.181828999999986,"velocity":0.25984251968503935,"duration":0.45170475624999895},{"name":"C#4","midi":61,"time":23.63637466666665,"velocity":0.25984251968503935,"duration":0.45170475624999895},{"name":"E4","midi":64,"time":24.090920333333315,"velocity":0.25984251968503935,"duration":0.45170475624999895},{"name":"G#3","midi":56,"time":24.54546599999998,"velocity":0.25984251968503935,"duration":0.45170475624999895},{"name":"C#4","midi":61,"time":25.000011666666644,"velocity":0.25984251968503935,"duration":0.45170475624999895},{"name":"E4","midi":64,"time":25.45455733333331,"velocity":0.25984251968503935,"duration":0.45170475624999895},{"name":"G#4","midi":68,"time":25.909102999999973,"velocity":0.25984251968503935,"duration":1.0198868395833287},{"name":"G#3","midi":56,"time":25.909102999999973,"velocity":0.25984251968503935,"duration":0.45170475624999895},{"name":"C#4","midi":61,"time":26.363648666666638,"velocity":0.25984251968503935,"duration":0.45170475624999895},{"name":"E4","midi":64,"time":26.818194333333302,"velocity":0.25984251968503935,"duration":0.45170475624999895},{"name":"G#4","midi":68,"time":26.931830749999968,"velocity":0.25984251968503935,"duration":0.3380683395833337},{"name":"G#4","midi":68,"time":27.272739999999967,"velocity":0.25984251968503935,"duration":4.088070089583315},{"name":"G#3","midi":56,"time":27.272739999999967,"velocity":0.25984251968503935,"duration":0.45170475624999895},{"name":"D#4","midi":63,"time":27.72728566666663,"velocity":0.25984251968503935,"duration":0.45170475624999895},{"name":"F#4","midi":66,"time":28.181831333333296,"velocity":0.25984251968503935,"duration":0.45170475624999895},{"name":"G#3","midi":56,"time":28.63637699999996,"velocity":0.25984251968503935,"duration":0.45170475624999895},{"name":"D#4","midi":63,"time":29.090922666666625,"velocity":0.25984251968503935,"duration":0.45170475624999895},{"name":"F#4","midi":66,"time":29.54546833333329,"velocity":0.25984251968503935,"duration":0.45170475624999895},{"name":"G#3","midi":56,"time":30.000013999999954,"velocity":0.25984251968503935,"duration":0.45170475624999895},{"name":"D#4","midi":63,"time":30.45455966666662,"velocity":0.25984251968503935,"duration":0.45170475624999895},{"name":"F#4","midi":66,"time":30.909105333333283,"velocity":0.25984251968503935,"duration":0.45170475624999895},{"name":"G#4","midi":68,"time":31.363650999999948,"velocity":0.25984251968503935,"duration":1.0198868395833287},{"name":"G#3","midi":56,"time":31.363650999999948,"velocity":0.25984251968503935,"duration":0.45170475624999895},{"name":"D#4","midi":63,"time":31.818196666666612,"velocity":0.25984251968503935,"duration":0.45170475624999895},{"name":"F#4","midi":66,"time":32.27274233333328,"velocity":0.25984251968503935,"duration":0.4517047562499954},{"name":"G#4","midi":68,"time":32.38637874999994,"velocity":0.25984251968503935,"duration":0.33806833958333016},{"name":"G#4","midi":68,"time":32.72728799999994,"velocity":0.25984251968503935,"duration":2.724433089583343},{"name":"G#3","midi":56,"time":32.72728799999994,"velocity":0.25984251968503935,"duration":0.4517047562500025},{"name":"C#4","midi":61,"time":33.181833666666606,"velocity":0.25984251968503935,"duration":0.4517047562500025},{"name":"E4","midi":64,"time":33.636379333333274,"velocity":0.25984251968503935,"duration":0.4517047562500025},{"name":"G#3","midi":56,"time":34.09092499999994,"velocity":0.25984251968503935,"duration":0.4517047562500025},{"name":"C#4","midi":61,"time":34.54547066666661,"velocity":0.25984251968503935,"duration":0.4517047562500025},{"name":"E4","midi":64,"time":35.00001633333328,"velocity":0.25984251968503935,"duration":0.4517047562500025},{"name":"A4","midi":69,"time":35.454561999999946,"velocity":0.25984251968503935,"duration":2.724433089583343},{"name":"A3","midi":57,"time":35.454561999999946,"velocity":0.25984251968503935,"duration":0.4517047562500025},{"name":"C#4","midi":61,"time":35.909107666666614,"velocity":0.25984251968503935,"duration":0.4517047562500025},{"name":"F#4","midi":66,"time":36.36365333333328,"velocity":0.25984251968503935,"duration":0.4517047562500025},{"name":"A3","midi":57,"time":36.81819899999995,"velocity":0.25984251968503935,"duration":0.4517047562500025},{"name":"C#4","midi":61,"time":37.27274466666662,"velocity":0.25984251968503935,"duration":0.4517047562500025},{"name":"F#4","midi":66,"time":37.727290333333286,"velocity":0.25984251968503935,"duration":0.4517047562500025},{"name":"G#4","midi":68,"time":38.181835999999954,"velocity":0.25984251968503935,"duration":2.724433089583343},{"name":"G#3","midi":56,"time":38.181835999999954,"velocity":0.25984251968503935,"duration":0.4517047562500025},{"name":"B3","midi":59,"time":38.63638166666662,"velocity":0.25984251968503935,"duration":0.4517047562500025},{"name":"E4","midi":64,"time":39.09092733333329,"velocity":0.25984251968503935,"duration":0.4517047562500025},{"name":"G#3","midi":56,"time":39.54547299999996,"velocity":0.25984251968503935,"duration":0.4517047562500025},{"name":"B3","midi":59,"time":40.00001866666663,"velocity":0.25984251968503935,"duration":0.4517047562500025},{"name":"E4","midi":64,"time":40.454564333333295,"velocity":0.25984251968503935,"duration":0.4517047562500025},{"name":"F#4","midi":66,"time":40.90910999999996,"velocity":0.25984251968503935,"duration":1.3607960895833386},{"name":"A3","midi":57,"time":40.90910999999996,"velocity":0.25984251968503935,"duration":0.4517047562500025},{"name":"B3","midi":59,"time":41.36365566666663,"velocity":0.25984251968503935,"duration":0.4517047562500025},{"name":"D#4","midi":63,"time":41.8182013333333,"velocity":0.25984251968503935,"duration":0.4517047562500025},{"name":"B4","midi":71,"time":42.27274699999997,"velocity":0.25984251968503935,"duration":1.3607960895833386},{"name":"A3","midi":57,"time":42.27274699999997,"velocity":0.25984251968503935,"duration":0.4517047562500025},{"name":"B3","midi":59,"time":42.727292666666635,"velocity":0.25984251968503935,"duration":0.4517047562500025},{"name":"D#4","midi":63,"time":43.1818383333333,"velocity":0.25984251968503935,"duration":0.4517047562500025},{"name":"E4","midi":64,"time":43.63638399999997,"velocity":0.25984251968503935,"duration":0.9090913333333361},{"name":"G#3","midi":56,"time":43.63638399999997,"velocity":0.25984251968503935,"duration":0.4517047562500025},{"name":"B3","midi":59,"time":44.09092966666664,"velocity":0.25984251968503935,"duration":0.4517047562500025},{"name":"E4","midi":64,"time":44.54547533333331,"velocity":0.25984251968503935,"duration":0.4517047562500025},{"name":"G#3","midi":56,"time":45.000020999999975,"velocity":0.25984251968503935,"duration":0.4517047562500025},{"name":"B3","midi":59,"time":45.45456666666664,"velocity":0.25984251968503935,"duration":0.4517047562500025},{"name":"E4","midi":64,"time":45.90911233333331,"velocity":0.25984251968503935,"duration":0.4517047562500025},{"name":"G#3","midi":56,"time":46.36365799999998,"velocity":0.25984251968503935,"duration":0.4517047562500025},{"name":"B3","midi":59,"time":46.81820366666665,"velocity":0.25984251968503935,"duration":0.4517047562500025},{"name":"E4","midi":64,"time":47.272749333333316,"velocity":0.25984251968503935,"duration":0.4517047562500025},{"name":"G#3","midi":56,"time":47.727294999999984,"velocity":0.25984251968503935,"duration":0.4517047562500025},{"name":"B3","midi":59,"time":48.18184066666665,"velocity":0.25984251968503935,"duration":0.4517047562500025},{"name":"E4","midi":64,"time":48.63638633333332,"velocity":0.25984251968503935,"duration":0.4517047562500025},{"name":"G3","midi":55,"time":49.09093199999999,"velocity":0.25984251968503935,"duration":0.4517047562500025},{"name":"B3","midi":59,"time":49.545477666666656,"velocity":0.25984251968503935,"duration":0.4517047562500025},{"name":"E4","midi":64,"time":50.000023333333324,"velocity":0.25984251968503935,"duration":0.4517047562500025},{"name":"G3","midi":55,"time":50.45456899999999,"velocity":0.25984251968503935,"duration":0.4517047562500025},{"name":"B3","midi":59,"time":50.90911466666666,"velocity":0.25984251968503935,"duration":0.4517047562500025},{"name":"E4","midi":64,"time":51.36366033333333,"velocity":0.25984251968503935,"duration":0.4517047562500025},{"name":"G3","midi":55,"time":51.818205999999996,"velocity":0.25984251968503935,"duration":0.4517047562500025},{"name":"B3","midi":59,"time":52.272751666666665,"velocity":0.25984251968503935,"duration":0.4517047562500025},{"name":"E4","midi":64,"time":52.72729733333333,"velocity":0.25984251968503935,"duration":0.4517047562500025},{"name":"G4","midi":67,"time":53.181843,"velocity":0.25984251968503935,"duration":1.0198868395833358},{"name":"G3","midi":55,"time":53.181843,"velocity":0.25984251968503935,"duration":0.4517047562500025},{"name":"B3","midi":59,"time":53.63638866666667,"velocity":0.25984251968503935,"duration":0.4517047562500025},{"name":"E4","midi":64,"time":54.09093433333334,"velocity":0.25984251968503935,"duration":0.4517047562499954},{"name":"G4","midi":67,"time":54.20457075,"velocity":0.25984251968503935,"duration":0.33806833958333016},{"name":"G4","midi":67,"time":54.54548,"velocity":0.25984251968503935,"duration":4.088070089583347},{"name":"G3","midi":55,"time":54.54548,"velocity":0.25984251968503935,"duration":0.4517047562500025},{"name":"B3","midi":59,"time":55.000025666666666,"velocity":0.25984251968503935,"duration":0.4517047562500025},{"name":"F4","midi":65,"time":55.454571333333334,"velocity":0.25984251968503935,"duration":0.4517047562500025},{"name":"G3","midi":55,"time":55.909117,"velocity":0.25984251968503935,"duration":0.4517047562500025},{"name":"B3","midi":59,"time":56.36366266666667,"velocity":0.25984251968503935,"duration":0.4517047562500025},{"name":"F4","midi":65,"time":56.81820833333334,"velocity":0.25984251968503935,"duration":0.4517047562500025},{"name":"G3","midi":55,"time":57.272754000000006,"velocity":0.25984251968503935,"duration":0.4517047562500025},{"name":"B3","midi":59,"time":57.727299666666674,"velocity":0.25984251968503935,"duration":0.4517047562500025},{"name":"F4","midi":65,"time":58.18184533333334,"velocity":0.25984251968503935,"duration":0.4517047562500025},{"name":"G4","midi":67,"time":58.63639100000001,"velocity":0.25984251968503935,"duration":1.0198868395833358},{"name":"G3","midi":55,"time":58.63639100000001,"velocity":0.25984251968503935,"duration":0.4517047562500025},{"name":"B3","midi":59,"time":59.09093666666668,"velocity":0.25984251968503935,"duration":0.4517047562500025},{"name":"F4","midi":65,"time":59.54548233333335,"velocity":0.25984251968503935,"duration":0.4517047562499954},{"name":"G4","midi":67,"time":59.65911875000001,"velocity":0.25984251968503935,"duration":0.33806833958333016},{"name":"G4","midi":67,"time":60.00002800000001,"velocity":0.25984251968503935,"duration":4.088070089583347},{"name":"G3","midi":55,"time":60.00002800000001,"velocity":0.25984251968503935,"duration":0.4517047562500025},{"name":"C4","midi":60,"time":60.454573666666676,"velocity":0.25984251968503935,"duration":0.4517047562500025},{"name":"E4","midi":64,"time":60.909119333333344,"velocity":0.25984251968503935,"duration":0.4517047562500025},{"name":"G3","midi":55,"time":61.36366500000001,"velocity":0.25984251968503935,"duration":0.4517047562500025},{"name":"B3","midi":59,"time":61.81821066666668,"velocity":0.25984251968503935,"duration":0.4517047562500025},{"name":"E4","midi":64,"time":62.27275633333335,"velocity":0.25984251968503935,"duration":0.4517047562500025},{"name":"G3","midi":55,"time":62.727302000000016,"velocity":0.25984251968503935,"duration":0.4517047562500025},{"name":"C#4","midi":61,"time":63.181847666666684,"velocity":0.25984251968503935,"duration":0.4517047562500025},{"name":"E4","midi":64,"time":63.63639333333335,"velocity":0.25984251968503935,"duration":0.4517047562500025},{"name":"F#4","midi":66,"time":64.09093900000002,"velocity":0.25984251968503935,"duration":1.3607960895833173},{"name":"F#3","midi":54,"time":64.09093900000002,"velocity":0.25984251968503935,"duration":0.4517047562499954},{"name":"C#4","midi":61,"time":64.54548466666668,"velocity":0.25984251968503935,"duration":0.4517047562499954},{"name":"E4","midi":64,"time":65.00003033333334,"velocity":0.25984251968503935,"duration":0.4517047562499954},{"name":"F#4","midi":66,"time":65.454576,"velocity":0.25984251968503935,"duration":2.7244330895833},{"name":"F#3","midi":54,"time":65.454576,"velocity":0.25984251968503935,"duration":0.4517047562499954},{"name":"B3","midi":59,"time":65.90912166666666,"velocity":0.25984251968503935,"duration":0.4517047562499954},{"name":"D4","midi":62,"time":66.36366733333332,"velocity":0.25984251968503935,"duration":0.4517047562499954},{"name":"F#3","midi":54,"time":66.81821299999999,"velocity":0.25984251968503935,"duration":0.4517047562499954},{"name":"B3","midi":59,"time":67.27275866666665,"velocity":0.25984251968503935,"duration":0.4517047562499954},{"name":"D4","midi":62,"time":67.72730433333331,"velocity":0.25984251968503935,"duration":0.4517047562499954},{"name":"G4","midi":67,"time":68.18184999999997,"velocity":0.25984251968503935,"duration":1.3607960895833173},{"name":"G3","midi":55,"time":68.18184999999997,"velocity":0.25984251968503935,"duration":0.4517047562499954},{"name":"B3","midi":59,"time":68.63639566666663,"velocity":0.25984251968503935,"duration":0.4517047562499954},{"name":"C#4","midi":61,"time":69.09094133333329,"velocity":0.25984251968503935,"duration":0.4517047562499954},{"name":"E4","midi":64,"time":69.54548699999995,"velocity":0.25984251968503935,"duration":1.3607960895833173},{"name":"E3","midi":52,"time":69.54548699999995,"velocity":0.25984251968503935,"duration":0.4517047562499954},{"name":"B3","midi":59,"time":70.00003266666661,"velocity":0.25984251968503935,"duration":0.4517047562499954},{"name":"C#4","midi":61,"time":70.45457833333327,"velocity":0.25984251968503935,"duration":0.4517047562499954},{"name":"F#4","midi":66,"time":70.90912399999993,"velocity":0.25984251968503935,"duration":2.7244330895833},{"name":"F#3","midi":54,"time":70.90912399999993,"velocity":0.25984251968503935,"duration":0.4517047562499954},{"name":"B3","midi":59,"time":71.3636696666666,"velocity":0.25984251968503935,"duration":0.4517047562499954},{"name":"D4","midi":62,"time":71.81821533333326,"velocity":0.25984251968503935,"duration":0.4517047562499954},{"name":"F#3","midi":54,"time":72.27276099999992,"velocity":0.25984251968503935,"duration":0.4517047562499954},{"name":"B3","midi":59,"time":72.72730666666658,"velocity":0.25984251968503935,"duration":0.4517047562499954},{"name":"D4","midi":62,"time":73.18185233333324,"velocity":0.25984251968503935,"duration":0.4517047562499954},{"name":"F#4","midi":66,"time":73.6363979999999,"velocity":0.25984251968503935,"duration":2.7244330895833},{"name":"F#3","midi":54,"time":73.6363979999999,"velocity":0.25984251968503935,"duration":0.4517047562499954},{"name":"A#3","midi":58,"time":74.09094366666656,"velocity":0.25984251968503935,"duration":0.4517047562499954},{"name":"C#4","midi":61,"time":74.54548933333322,"velocity":0.25984251968503935,"duration":0.4517047562499954},{"name":"F#3","midi":54,"time":75.00003499999988,"velocity":0.25984251968503935,"duration":0.4517047562499954},{"name":"A#3","midi":58,"time":75.45458066666654,"velocity":0.25984251968503935,"duration":0.4517047562499954},{"name":"C#4","midi":61,"time":75.9091263333332,"velocity":0.25984251968503935,"duration":0.4517047562499954},{"name":"B3","midi":59,"time":76.36367199999987,"velocity":0.25984251968503935,"duration":1.3607960895833173},{"name":"D4","midi":62,"time":76.81821766666653,"velocity":0.25984251968503935,"duration":0.4517047562499954},{"name":"F#4","midi":66,"time":77.27276333333319,"velocity":0.25984251968503935,"duration":0.4517047562499954},{"name":"B3","midi":59,"time":77.72730899999985,"velocity":0.25984251968503935,"duration":0.4517047562499954},{"name":"D4","midi":62,"time":78.18185466666651,"velocity":0.25984251968503935,"duration":0.4517047562499954},{"name":"F#4","midi":66,"time":78.63640033333317,"velocity":0.25984251968503935,"duration":0.4517047562499954},{"name":"B3","midi":59,"time":79.09094599999983,"velocity":0.25984251968503935,"duration":0.4517047562499954},{"name":"D#4","midi":63,"time":79.54549166666649,"velocity":0.25984251968503935,"duration":0.4517047562499954},{"name":"F#4","midi":66,"time":80.00003733333315,"velocity":0.25984251968503935,"duration":0.4517047562499954},{"name":"B4","midi":71,"time":80.45458299999981,"velocity":0.25984251968503935,"duration":1.3607960895833173},{"name":"B3","midi":59,"time":80.45458299999981,"velocity":0.25984251968503935,"duration":0.4517047562499954},{"name":"D#4","midi":63,"time":80.90912866666648,"velocity":0.25984251968503935,"duration":0.4517047562499954},{"name":"F#4","midi":66,"time":81.36367433333314,"velocity":0.25984251968503935,"duration":0.4517047562499954},{"name":"C5","midi":72,"time":81.8182199999998,"velocity":0.25984251968503935,"duration":4.088070089583283},{"name":"B3","midi":59,"time":81.8182199999998,"velocity":0.25984251968503935,"duration":0.4517047562499954},{"name":"E4","midi":64,"time":82.27276566666646,"velocity":0.2677165354330709,"duration":0.4517047562499954},{"name":"G4","midi":67,"time":82.72731133333312,"velocity":0.2755905511811024,"duration":0.4517047562499954},{"name":"B3","midi":59,"time":83.18185699999978,"velocity":0.29133858267716534,"duration":0.4517047562499954},{"name":"E4","midi":64,"time":83.63640266666644,"velocity":0.2992125984251969,"duration":0.4517047562499954},{"name":"G4","midi":67,"time":84.0909483333331,"velocity":0.30708661417322836,"duration":0.4517047562499954},{"name":"B3","midi":59,"time":84.54549399999976,"velocity":0.3228346456692913,"duration":0.4517047562499954},{"name":"E4","midi":64,"time":85.00003966666642,"velocity":0.31496062992125984,"duration":0.4517047562499954},{"name":"G4","midi":67,"time":85.45458533333309,"velocity":0.30708661417322836,"duration":0.4517047562499954},{"name":"A#4","midi":70,"time":85.90913099999975,"velocity":0.29133858267716534,"duration":1.3607960895833173},{"name":"B3","midi":59,"time":85.90913099999975,"velocity":0.29133858267716534,"duration":0.4517047562499954},{"name":"E4","midi":64,"time":86.36367666666641,"velocity":0.28346456692913385,"duration":0.4517047562499954},{"name":"G4","midi":67,"time":86.81822233333307,"velocity":0.2755905511811024,"duration":0.4517047562499954},{"name":"B4","midi":71,"time":87.27276799999973,"velocity":0.25984251968503935,"duration":4.088070089583283},{"name":"B3","midi":59,"time":87.27276799999973,"velocity":0.25984251968503935,"duration":0.4517047562499954},{"name":"D#4","midi":63,"time":87.72731366666639,"velocity":0.25984251968503935,"duration":0.4517047562499954},{"name":"F#4","midi":66,"time":88.18185933333305,"velocity":0.25984251968503935,"duration":0.4517047562499954},{"name":"B3","midi":59,"time":88.63640499999971,"velocity":0.25984251968503935,"duration":0.4517047562499954},{"name":"D#4","midi":63,"time":89.09095066666637,"velocity":0.25984251968503935,"duration":0.4517047562499954},{"name":"F#4","midi":66,"time":89.54549633333303,"velocity":0.25984251968503935,"duration":0.4517047562499954},{"name":"B3","midi":59,"time":90.0000419999997,"velocity":0.25984251968503935,"duration":0.4517047562499954},{"name":"D#4","midi":63,"time":90.45458766666636,"velocity":0.25984251968503935,"duration":0.4517047562499954},{"name":"F#4","midi":66,"time":90.90913333333302,"velocity":0.25984251968503935,"duration":0.4517047562499954},{"name":"B4","midi":71,"time":91.36367899999968,"velocity":0.25984251968503935,"duration":1.3607960895833173},{"name":"B3","midi":59,"time":91.36367899999968,"velocity":0.25984251968503935,"duration":0.4517047562499954},{"name":"D#4","midi":63,"time":91.81822466666634,"velocity":0.25984251968503935,"duration":0.4517047562499954},{"name":"F#4","midi":66,"time":92.272770333333,"velocity":0.25984251968503935,"duration":0.4517047562499954},{"name":"C5","midi":72,"time":92.72731599999966,"velocity":0.25984251968503935,"duration":4.088070089583283},{"name":"B3","midi":59,"time":92.72731599999966,"velocity":0.25984251968503935,"duration":0.4517047562499954},{"name":"E4","midi":64,"time":93.18186166666632,"velocity":0.2677165354330709,"duration":0.4517047562499954},{"name":"G4","midi":67,"time":93.63640733333298,"velocity":0.2755905511811024,"duration":0.4517047562499954},{"name":"B3","midi":59,"time":94.09095299999964,"velocity":0.29133858267716534,"duration":0.4517047562499954},{"name":"E4","midi":64,"time":94.5454986666663,"velocity":0.2992125984251969,"duration":0.4517047562499954},{"name":"G4","midi":67,"time":95.00004433333297,"velocity":0.30708661417322836,"duration":0.4517047562499954},{"name":"B3","midi":59,"time":95.45458999999963,"velocity":0.3228346456692913,"duration":0.4517047562499954},{"name":"E4","midi":64,"time":95.90913566666629,"velocity":0.31496062992125984,"duration":0.4517047562499954},{"name":"G4","midi":67,"time":96.36368133333295,"velocity":0.30708661417322836,"duration":0.4517047562499954},{"name":"A#4","midi":70,"time":96.81822699999961,"velocity":0.29133858267716534,"duration":1.3607960895833173},{"name":"B3","midi":59,"time":96.81822699999961,"velocity":0.29133858267716534,"duration":0.4517047562499954},{"name":"E4","midi":64,"time":97.27277266666627,"velocity":0.28346456692913385,"duration":0.4517047562499954},{"name":"G4","midi":67,"time":97.72731833333293,"velocity":0.2755905511811024,"duration":0.4517047562499954},{"name":"B4","midi":71,"time":98.18186399999959,"velocity":0.25984251968503935,"duration":2.7244330895833},{"name":"B3","midi":59,"time":98.18186399999959,"velocity":0.25984251968503935,"duration":0.4517047562499954},{"name":"D#4","midi":63,"time":98.63640966666625,"velocity":0.25984251968503935,"duration":0.4517047562499954},{"name":"F#4","midi":66,"time":99.09095533333291,"velocity":0.25984251968503935,"duration":0.4517047562499954},{"name":"B3","midi":59,"time":99.54550099999958,"velocity":0.25984251968503935,"duration":0.4517047562499954},{"name":"D#4","midi":63,"time":100.00004666666624,"velocity":0.25984251968503935,"duration":0.4517047562499954},{"name":"F#4","midi":66,"time":100.4545923333329,"velocity":0.25984251968503935,"duration":0.4517047562499954},{"name":"B4","midi":71,"time":100.90913799999956,"velocity":0.25984251968503935,"duration":2.7244330895833},{"name":"B3","midi":59,"time":100.90913799999956,"velocity":0.25984251968503935,"duration":0.4517047562499954},{"name":"D4","midi":62,"time":101.36368366666622,"velocity":0.25984251968503935,"duration":0.4517047562499954},{"name":"F4","midi":65,"time":101.81822933333288,"velocity":0.25984251968503935,"duration":0.4517047562499954},{"name":"B3","midi":59,"time":102.27277499999954,"velocity":0.25984251968503935,"duration":0.4517047562499954},{"name":"D4","midi":62,"time":102.7273206666662,"velocity":0.25984251968503935,"duration":0.4517047562499954},{"name":"F4","midi":65,"time":103.18186633333286,"velocity":0.25984251968503935,"duration":0.4517047562499954},{"name":"B4","midi":71,"time":103.63641199999952,"velocity":0.25984251968503935,"duration":2.7244330895833},{"name":"B3","midi":59,"time":103.63641199999952,"velocity":0.25984251968503935,"duration":0.4517047562499954},{"name":"C#4","midi":61,"time":104.09095766666618,"velocity":0.25984251968503935,"duration":0.4517047562499954},{"name":"G#4","midi":68,"time":104.54550333333285,"velocity":0.25984251968503935,"duration":0.4517047562499954},{"name":"B3","midi":59,"time":105.0000489999995,"velocity":0.25984251968503935,"duration":0.4517047562499954},{"name":"C#4","midi":61,"time":105.45459466666617,"velocity":0.25984251968503935,"duration":0.4517047562499954},{"name":"G#4","midi":68,"time":105.90914033333283,"velocity":0.25984251968503935,"duration":0.4517047562499954},{"name":"A4","midi":69,"time":106.36368599999949,"velocity":0.25984251968503935,"duration":2.7244330895833},{"name":"A3","midi":57,"time":106.36368599999949,"velocity":0.25984251968503935,"duration":0.4517047562499954},{"name":"C#4","midi":61,"time":106.81823166666615,"velocity":0.25984251968503935,"duration":0.4517047562499954},{"name":"F#4","midi":66,"time":107.27277733333281,"velocity":0.25984251968503935,"duration":0.4517047562499954},{"name":"A3","midi":57,"time":107.72732299999947,"velocity":0.25984251968503935,"duration":0.4517047562499954},{"name":"C#4","midi":61,"time":108.18186866666613,"velocity":0.25984251968503935,"duration":0.4517047562499954},{"name":"F#4","midi":66,"time":108.6364143333328,"velocity":0.25984251968503935,"duration":0.4517047562499954},{"name":"G4","midi":67,"time":109.09095999999946,"velocity":0.25984251968503935,"duration":2.7244330895833},{"name":"G3","midi":55,"time":109.09095999999946,"velocity":0.25984251968503935,"duration":0.4517047562499954},{"name":"B3","midi":59,"time":109.54550566666612,"velocity":0.25984251968503935,"duration":0.4517047562499954},{"name":"D4","midi":62,"time":110.00005133333278,"velocity":0.25984251968503935,"duration":0.4517047562499954},{"name":"G3","midi":55,"time":110.45459699999944,"velocity":0.25984251968503935,"duration":0.4517047562499954},{"name":"B3","midi":59,"time":110.9091426666661,"velocity":0.25984251968503935,"duration":0.4517047562499954},{"name":"D4","midi":62,"time":111.36368833333276,"velocity":0.25984251968503935,"duration":0.4517047562499954},{"name":"F#4","midi":66,"time":111.81823399999942,"velocity":0.25984251968503935,"duration":2.7244330895833},{"name":"F#3","midi":54,"time":111.81823399999942,"velocity":0.25984251968503935,"duration":0.4517047562499954},{"name":"A3","midi":57,"time":112.27277966666608,"velocity":0.25984251968503935,"duration":0.4517047562499954},{"name":"D#4","midi":63,"time":112.72732533333274,"velocity":0.25984251968503935,"duration":0.4517047562499954},{"name":"F#3","midi":54,"time":113.1818709999994,"velocity":0.25984251968503935,"duration":0.4517047562499954},{"name":"A3","midi":57,"time":113.63641666666607,"velocity":0.25984251968503935,"duration":0.4517047562499954},{"name":"D#4","midi":63,"time":114.09096233333273,"velocity":0.25984251968503935,"duration":0.4517047562499954},{"name":"C#4","midi":61,"time":114.54550799999939,"velocity":0.25984251968503935,"duration":2.7244330895833},{"name":"C#3","midi":49,"time":114.54550799999939,"velocity":0.25984251968503935,"duration":0.4517047562499954},{"name":"F#3","midi":54,"time":115.00005366666605,"velocity":0.25984251968503935,"duration":0.4517047562499954},{"name":"A3","midi":57,"time":115.45459933333271,"velocity":0.25984251968503935,"duration":0.4517047562499954},{"name":"C#3","midi":49,"time":115.90914499999937,"velocity":0.25984251968503935,"duration":0.4517047562499954},{"name":"F#3","midi":54,"time":116.36369066666603,"velocity":0.25984251968503935,"duration":0.4517047562499954},{"name":"A3","midi":57,"time":116.81823633333269,"velocity":0.25984251968503935,"duration":0.4517047562499954},{"name":"C#4","midi":61,"time":117.27278199999935,"velocity":0.25984251968503935,"duration":1.3607960895833173},{"name":"C#3","midi":49,"time":117.27278199999935,"velocity":0.25984251968503935,"duration":0.4517047562499954},{"name":"F#3","midi":54,"time":117.72732766666601,"velocity":0.25984251968503935,"duration":0.4517047562499954},{"name":"G#3","midi":56,"time":118.18187333333267,"velocity":0.25984251968503935,"duration":0.4517047562499954},{"name":"C#4","midi":61,"time":118.63641899999934,"velocity":0.25984251968503935,"duration":1.3607960895833173},{"name":"C#3","midi":49,"time":118.63641899999934,"velocity":0.25984251968503935,"duration":0.4517047562499954},{"name":"F3","midi":53,"time":119.090964666666,"velocity":0.25984251968503935,"duration":0.4517047562499954},{"name":"G#3","midi":56,"time":119.54551033333266,"velocity":0.25984251968503935,"duration":0.4517047562499954},{"name":"F#3","midi":54,"time":120.00005599999932,"velocity":0.25984251968503935,"duration":1.3607960895833173},{"name":"A3","midi":57,"time":120.45460166666598,"velocity":0.25984251968503935,"duration":0.4517047562499954},{"name":"C#4","midi":61,"time":120.90914733333264,"velocity":0.25984251968503935,"duration":0.4517047562499954},{"name":"A3","midi":57,"time":121.3636929999993,"velocity":0.25984251968503935,"duration":0.4517047562499954},{"name":"C#4","midi":61,"time":121.81823866666596,"velocity":0.25984251968503935,"duration":0.4517047562499954},{"name":"F#4","midi":66,"time":122.27278433333262,"velocity":0.25984251968503935,"duration":0.4517047562499954},{"name":"C#4","midi":61,"time":122.72732999999928,"velocity":0.25984251968503935,"duration":0.4517047562499954},{"name":"F#4","midi":66,"time":123.18187566666595,"velocity":0.25984251968503935,"duration":0.4517047562499954},{"name":"A4","midi":69,"time":123.6364213333326,"velocity":0.25984251968503935,"duration":0.4517047562499954},{"name":"C#5","midi":73,"time":124.09096699999927,"velocity":0.25984251968503935,"duration":1.0198868395833216},{"name":"C#4","midi":61,"time":124.09096699999927,"velocity":0.25984251968503935,"duration":0.4517047562499954},{"name":"F#4","midi":66,"time":124.54551266666593,"velocity":0.25984251968503935,"duration":0.4517047562499954},{"name":"A4","midi":69,"time":125.00005833333259,"velocity":0.25984251968503935,"duration":0.4517047562499954},{"name":"C#5","midi":73,"time":125.11369474999925,"velocity":0.25984251968503935,"duration":0.33806833958333016},{"name":"C#5","midi":73,"time":125.45460399999925,"velocity":0.25984251968503935,"duration":4.088070089583283},{"name":"C#4","midi":61,"time":125.45460399999925,"velocity":0.25984251968503935,"duration":0.4517047562499954},{"name":"G#4","midi":68,"time":125.90914966666591,"velocity":0.25984251968503935,"duration":0.4517047562499954},{"name":"B4","midi":71,"time":126.36369533333257,"velocity":0.25984251968503935,"duration":0.4517047562499954},{"name":"C#4","midi":61,"time":126.81824099999923,"velocity":0.25984251968503935,"duration":0.4517047562499954},{"name":"G#4","midi":68,"time":127.2727866666659,"velocity":0.25984251968503935,"duration":0.4517047562499954},{"name":"B4","midi":71,"time":127.72733233333255,"velocity":0.25984251968503935,"duration":0.4517047562499954},{"name":"C#4","midi":61,"time":128.18187799999922,"velocity":0.25984251968503935,"duration":0.4517047562499954},{"name":"G#4","midi":68,"time":128.63642366666588,"velocity":0.25984251968503935,"duration":0.4517047562499954},{"name":"B4","midi":71,"time":129.09096933333254,"velocity":0.25984251968503935,"duration":0.4517047562499954},{"name":"C#5","midi":73,"time":129.5455149999992,"velocity":0.25984251968503935,"duration":1.0198868395833358},{"name":"C#4","midi":61,"time":129.5455149999992,"velocity":0.25984251968503935,"duration":0.4517047562499954},{"name":"G#4","midi":68,"time":130.00006066666586,"velocity":0.25984251968503935,"duration":0.4517047562499954},{"name":"B4","midi":71,"time":130.45460633333252,"velocity":0.25984251968503935,"duration":0.4517047562500238},{"name":"C#5","midi":73,"time":130.5682427499992,"velocity":0.25984251968503935,"duration":0.33806833958334437},{"name":"C#5","midi":73,"time":130.9091519999992,"velocity":0.25984251968503935,"duration":2.7244330895833},{"name":"C#4","midi":61,"time":130.9091519999992,"velocity":0.25984251968503935,"duration":0.4517047562499954},{"name":"F#4","midi":66,"time":131.36369766666587,"velocity":0.2677165354330709,"duration":0.4517047562499954},{"name":"A4","midi":69,"time":131.81824333333253,"velocity":0.2755905511811024,"duration":0.4517047562499954},{"name":"C#4","midi":61,"time":132.2727889999992,"velocity":0.28346456692913385,"duration":0.4517047562499954},{"name":"F#4","midi":66,"time":132.72733466666585,"velocity":0.2992125984251969,"duration":0.4517047562499954},{"name":"A4","midi":69,"time":133.18188033333251,"velocity":0.30708661417322836,"duration":0.4517047562499954},{"name":"C5","midi":72,"time":133.63642599999918,"velocity":0.31496062992125984,"duration":1.3607960895833173},{"name":"C4","midi":60,"time":133.63642599999918,"velocity":0.31496062992125984,"duration":0.4517047562499954},{"name":"F#4","midi":66,"time":134.09097166666584,"velocity":0.33070866141732286,"duration":0.4517047562499954},{"name":"A4","midi":69,"time":134.5455173333325,"velocity":0.33858267716535434,"duration":0.4517047562499954},{"name":"C#5","midi":73,"time":135.00006299999916,"velocity":0.3464566929133858,"duration":1.3607960895833173},{"name":"C#4","midi":61,"time":135.00006299999916,"velocity":0.3464566929133858,"duration":0.4517047562499954},{"name":"F#4","midi":66,"time":135.45460866666582,"velocity":0.3543307086614173,"duration":0.4517047562499954},{"name":"A4","midi":69,"time":135.90915433333248,"velocity":0.3700787401574803,"duration":0.4517047562499954},{"name":"D#5","midi":75,"time":136.36369999999914,"velocity":0.3779527559055118,"duration":4.088070089583283},{"name":"D#4","midi":63,"time":136.36369999999914,"velocity":0.3779527559055118,"duration":0.4517047562499954},{"name":"F#4","midi":66,"time":136.8182456666658,"velocity":0.3858267716535433,"duration":0.4517047562499954},{"name":"G#4","midi":68,"time":137.27279133333246,"velocity":0.4015748031496063,"duration":0.4517047562499954},{"name":"D#4","midi":63,"time":137.72733699999912,"velocity":0.4094488188976378,"duration":0.4517047562499954},{"name":"F#4","midi":66,"time":138.18188266666579,"velocity":0.41732283464566927,"duration":0.4517047562499954},{"name":"G#4","midi":68,"time":138.63642833333245,"velocity":0.4251968503937008,"duration":0.4517047562499954},{"name":"D#4","midi":63,"time":139.0909739999991,"velocity":0.4409448818897638,"duration":0.4517047562499954},{"name":"F#4","midi":66,"time":139.54551966666577,"velocity":0.44881889763779526,"duration":0.4517047562499954},{"name":"G#4","midi":68,"time":140.00006533333243,"velocity":0.4566929133858268,"duration":0.4517047562499954},{"name":"D#5","midi":75,"time":140.4546109999991,"velocity":0.47244094488188976,"duration":1.3607960895833173},{"name":"D#4","midi":63,"time":140.4546109999991,"velocity":0.47244094488188976,"duration":0.4517047562499954},{"name":"F#4","midi":66,"time":140.90915666666575,"velocity":0.48031496062992124,"duration":0.4517047562499954},{"name":"G#4","midi":68,"time":141.3637023333324,"velocity":0.4881889763779528,"duration":0.4517047562499954},{"name":"E5","midi":76,"time":141.81824799999907,"velocity":0.5039370078740157,"duration":2.7244330895833},{"name":"E4","midi":64,"time":141.81824799999907,"velocity":0.5039370078740157,"duration":0.4517047562499954},{"name":"G#4","midi":68,"time":142.27279366666573,"velocity":0.49606299212598426,"duration":0.4517047562499954},{"name":"C#5","midi":73,"time":142.7273393333324,"velocity":0.4881889763779528,"duration":0.4517047562499954},{"name":"E4","midi":64,"time":143.18188499999906,"velocity":0.48031496062992124,"duration":0.4517047562499954},{"name":"G#4","midi":68,"time":143.63643066666572,"velocity":0.4645669291338583,"duration":0.4517047562499954},{"name":"C#5","midi":73,"time":144.09097633333238,"velocity":0.4566929133858268,"duration":0.4517047562499954},{"name":"D#5","midi":75,"time":144.54552199999904,"velocity":0.44881889763779526,"duration":1.3607960895833173},{"name":"D#4","midi":63,"time":144.54552199999904,"velocity":0.44881889763779526,"duration":0.4517047562499954},{"name":"F#4","midi":66,"time":145.0000676666657,"velocity":0.4409448818897638,"duration":0.4517047562499954},{"name":"A4","midi":69,"time":145.45461333333236,"velocity":0.4251968503937008,"duration":0.4517047562499954},{"name":"C#5","midi":73,"time":145.90915899999902,"velocity":0.41732283464566927,"duration":1.3607960895833173},{"name":"C#4","midi":61,"time":145.90915899999902,"velocity":0.41732283464566927,"duration":0.4517047562499954},{"name":"E4","midi":64,"time":146.36370466666568,"velocity":0.4094488188976378,"duration":0.4517047562499954},{"name":"A#4","midi":70,"time":146.81825033333234,"velocity":0.4015748031496063,"duration":0.4517047562499954},{"name":"C5","midi":72,"time":147.272795999999,"velocity":0.3858267716535433,"duration":0.4517047562499954},{"name":"C4","midi":60,"time":147.72734166666567,"velocity":0.3858267716535433,"duration":0.4517047562499954},{"name":"D#4","midi":63,"time":148.18188733333233,"velocity":0.3858267716535433,"duration":0.4517047562499954},{"name":"G#4","midi":68,"time":148.636432999999,"velocity":0.3858267716535433,"duration":1.3607960895833173},{"name":"C4","midi":60,"time":149.09097866666565,"velocity":0.3858267716535433,"duration":0.4517047562499954},{"name":"D#4","midi":63,"time":149.5455243333323,"velocity":0.3858267716535433,"duration":0.4517047562499954},{"name":"A4","midi":69,"time":150.00006999999897,"velocity":0.3858267716535433,"duration":1.3607960895833173},{"name":"C4","midi":60,"time":150.45461566666563,"velocity":0.3858267716535433,"duration":0.4517047562499954},{"name":"D#4","midi":63,"time":150.9091613333323,"velocity":0.3858267716535433,"duration":0.4517047562499954},{"name":"F#4","midi":66,"time":151.36370699999895,"velocity":0.3858267716535433,"duration":1.3607960895833173},{"name":"C4","midi":60,"time":151.81825266666561,"velocity":0.3858267716535433,"duration":0.4517047562499954},{"name":"D#4","midi":63,"time":152.27279833333228,"velocity":0.3858267716535433,"duration":0.4517047562499954},{"name":"C4","midi":60,"time":153.1818896666656,"velocity":0.3858267716535433,"duration":0.4517047562499954},{"name":"D#4","midi":63,"time":153.63643533333226,"velocity":0.3858267716535433,"duration":0.4517047562499954},{"name":"G#3","midi":56,"time":154.09098099999892,"velocity":0.3858267716535433,"duration":1.3607960895833173},{"name":"C4","midi":60,"time":154.54552666666558,"velocity":0.3858267716535433,"duration":0.4517047562499954},{"name":"D#4","midi":63,"time":155.00007233333224,"velocity":0.3858267716535433,"duration":0.4517047562499954},{"name":"A3","midi":57,"time":155.4546179999989,"velocity":0.3858267716535433,"duration":1.3607960895833173},{"name":"C4","midi":60,"time":155.90916366666556,"velocity":0.3858267716535433,"duration":0.4517047562499954},{"name":"D#4","midi":63,"time":156.36370933333222,"velocity":0.3858267716535433,"duration":0.4517047562499954},{"name":"F#3","midi":54,"time":156.81825499999889,"velocity":0.3858267716535433,"duration":1.3607960895833173},{"name":"C4","midi":60,"time":157.27280066666555,"velocity":0.3858267716535433,"duration":0.4517047562499954},{"name":"D#4","midi":63,"time":157.7273463333322,"velocity":0.3858267716535433,"duration":0.4517047562499954},{"name":"E3","midi":52,"time":158.18189199999887,"velocity":0.3858267716535433,"duration":0.4517047562499954},{"name":"E4","midi":64,"time":158.63643766666553,"velocity":0.3858267716535433,"duration":0.4517047562499954},{"name":"G#4","midi":68,"time":159.0909833333322,"velocity":0.3858267716535433,"duration":0.4517047562499954},{"name":"C#5","midi":73,"time":159.54552899999885,"velocity":0.3858267716535433,"duration":1.3607960895833173},{"name":"E4","midi":64,"time":160.0000746666655,"velocity":0.3858267716535433,"duration":0.4517047562499954},{"name":"G#4","midi":68,"time":160.45462033333217,"velocity":0.3858267716535433,"duration":0.4517047562499954},{"name":"E5","midi":76,"time":160.90916599999883,"velocity":0.3858267716535433,"duration":1.3607960895833173},{"name":"E4","midi":64,"time":161.3637116666655,"velocity":0.3858267716535433,"duration":0.4517047562499954},{"name":"G#4","midi":68,"time":161.81825733333216,"velocity":0.3858267716535433,"duration":0.4517047562499954},{"name":"C#5","midi":73,"time":162.27280299999882,"velocity":0.3858267716535433,"duration":1.3607960895833173},{"name":"E4","midi":64,"time":162.72734866666548,"velocity":0.3858267716535433,"duration":0.4517047562499954},{"name":"G#4","midi":68,"time":163.18189433333214,"velocity":0.3858267716535433,"duration":0.4517047562499954},{"name":"E3","midi":52,"time":164.09098566666546,"velocity":0.3858267716535433,"duration":0.4517047562499954},{"name":"G#3","midi":56,"time":164.54553133333212,"velocity":0.3858267716535433,"duration":0.4517047562499954},{"name":"C#4","midi":61,"time":165.00007699999878,"velocity":0.3858267716535433,"duration":1.3607960895833173},{"name":"C#4","midi":61,"time":165.00007699999878,"velocity":0.3858267716535433,"duration":2.727273999999966},{"name":"E3","midi":52,"time":165.45462266666544,"velocity":0.3858267716535433,"duration":0.4517047562499954},{"name":"G#3","midi":56,"time":165.9091683333321,"velocity":0.3858267716535433,"duration":0.4517047562499954},{"name":"E4","midi":64,"time":166.36371399999877,"velocity":0.3858267716535433,"duration":1.3607960895833173},{"name":"E4","midi":64,"time":166.36371399999877,"velocity":0.3858267716535433,"duration":9.997163756249876},{"name":"E3","midi":52,"time":166.81825966666543,"velocity":0.3858267716535433,"duration":0.4517047562499954},{"name":"G#3","midi":56,"time":167.2728053333321,"velocity":0.3858267716535433,"duration":0.4517047562499954},{"name":"C#4","midi":61,"time":167.72735099999875,"velocity":0.3858267716535433,"duration":1.3607960895833173},{"name":"C#4","midi":61,"time":167.72735099999875,"velocity":0.3858267716535433,"duration":7.724435422916571},{"name":"E3","midi":52,"time":168.1818966666654,"velocity":0.3858267716535433,"duration":0.4517047562499954},{"name":"G#3","midi":56,"time":168.63644233333207,"velocity":0.3858267716535433,"duration":0.4517047562499954},{"name":"D#3","midi":51,"time":169.09098799999873,"velocity":0.3858267716535433,"duration":0.4517047562499954},{"name":"A3","midi":57,"time":169.5455336666654,"velocity":0.3858267716535433,"duration":0.4517047562499954},{"name":"F#3","midi":54,"time":170.00007933333205,"velocity":0.3858267716535433,"duration":0.4517047562499954},{"name":"C4","midi":60,"time":170.4546249999987,"velocity":0.3858267716535433,"duration":0.4517047562499954},{"name":"A3","midi":57,"time":170.90917066666537,"velocity":0.3858267716535433,"duration":0.4517047562499954},{"name":"D#4","midi":63,"time":171.36371633333204,"velocity":0.3858267716535433,"duration":0.4517047562499954},{"name":"C4","midi":60,"time":171.8182619999987,"velocity":0.3858267716535433,"duration":0.4517047562499954},{"name":"F#4","midi":66,"time":172.27280766666536,"velocity":0.3858267716535433,"duration":0.4517047562499954},{"name":"D#4","midi":63,"time":172.72735333333202,"velocity":0.3858267716535433,"duration":0.4517047562499954},{"name":"A4","midi":69,"time":173.18189899999868,"velocity":0.3858267716535433,"duration":0.4517047562499954},{"name":"F#4","midi":66,"time":173.63644466666534,"velocity":0.3858267716535433,"duration":0.4517047562499954},{"name":"C5","midi":72,"time":174.090990333332,"velocity":0.3858267716535433,"duration":0.4517047562499954},{"name":"E3","midi":52,"time":174.54553599999866,"velocity":0.3858267716535433,"duration":0.4517047562499954},{"name":"C#4","midi":61,"time":175.00008166666532,"velocity":0.3858267716535433,"duration":1.8153417562499783},{"name":"G#3","midi":56,"time":175.45462733333198,"velocity":0.3858267716535433,"duration":0.4517047562499954},{"name":"E4","midi":64,"time":175.90917299999865,"velocity":0.3858267716535433,"duration":1.8153417562499783},{"name":"C#4","midi":61,"time":176.3637186666653,"velocity":0.3858267716535433,"duration":4.088070089583283},{"name":"G#4","midi":68,"time":176.81826433333197,"velocity":0.3858267716535433,"duration":0.4517047562499954},{"name":"E4","midi":64,"time":177.27280999999863,"velocity":0.3858267716535433,"duration":4.088070089583283},{"name":"C#5","midi":73,"time":177.7273556666653,"velocity":0.3858267716535433,"duration":0.4517047562499954},{"name":"G#4","midi":68,"time":178.18190133333195,"velocity":0.3858267716535433,"duration":0.4517047562499954},{"name":"E5","midi":76,"time":178.6364469999986,"velocity":0.3858267716535433,"duration":0.4517047562499954},{"name":"C#5","midi":73,"time":179.09099266666527,"velocity":0.3858267716535433,"duration":0.4517047562499954},{"name":"G#4","midi":68,"time":179.54553833333193,"velocity":0.3858267716535433,"duration":0.4517047562499954},{"name":"C#4","midi":61,"time":180.0000839999986,"velocity":0.3858267716535433,"duration":36.81535808958287},{"name":"G4","midi":67,"time":180.45462966666526,"velocity":0.3858267716535433,"duration":0.4517047562499954},{"name":"E4","midi":64,"time":180.90917533333192,"velocity":0.3858267716535433,"duration":45.45172575624943},{"name":"A#4","midi":70,"time":181.36372099999858,"velocity":0.3858267716535433,"duration":0.4517047562499954},{"name":"G4","midi":67,"time":181.81826666666524,"velocity":0.3858267716535433,"duration":0.4517047562499954},{"name":"C#5","midi":73,"time":182.2728123333319,"velocity":0.3858267716535433,"duration":0.4517047562499954},{"name":"A#4","midi":70,"time":182.72735799999856,"velocity":0.3858267716535433,"duration":0.4517047562499954},{"name":"E5","midi":76,"time":183.18190366666522,"velocity":0.3858267716535433,"duration":0.4517047562499954},{"name":"C#5","midi":73,"time":183.63644933333188,"velocity":0.3858267716535433,"duration":0.4517047562499954},{"name":"G5","midi":79,"time":184.09099499999854,"velocity":0.3858267716535433,"duration":0.4517047562499954},{"name":"E5","midi":76,"time":184.5455406666652,"velocity":0.3858267716535433,"duration":0.4517047562499954},{"name":"A#5","midi":82,"time":185.00008633333186,"velocity":0.3858267716535433,"duration":0.4517047562499954},{"name":"F#4","midi":66,"time":185.45463199999853,"velocity":0.3858267716535433,"duration":0.4517047562499954},{"name":"C5","midi":72,"time":185.9091776666652,"velocity":0.3858267716535433,"duration":0.4517047562499954},{"name":"A4","midi":69,"time":186.36372333333185,"velocity":0.3858267716535433,"duration":0.4517047562499954},{"name":"D#5","midi":75,"time":186.8182689999985,"velocity":0.3858267716535433,"duration":0.4517047562499954},{"name":"C5","midi":72,"time":187.27281466666517,"velocity":0.3858267716535433,"duration":0.4517047562499954},{"name":"F#5","midi":78,"time":187.72736033333183,"velocity":0.3858267716535433,"duration":0.4517047562499954},{"name":"D#5","midi":75,"time":188.1819059999985,"velocity":0.3858267716535433,"duration":0.4517047562499954},{"name":"A5","midi":81,"time":188.63645166666515,"velocity":0.3858267716535433,"duration":0.4517047562499954},{"name":"F#5","midi":78,"time":189.0909973333318,"velocity":0.3858267716535433,"duration":0.4517047562499954},{"name":"C6","midi":84,"time":189.54554299999847,"velocity":0.3858267716535433,"duration":0.4517047562499954},{"name":"A5","midi":81,"time":190.00008866666514,"velocity":0.3858267716535433,"duration":0.4517047562499954},{"name":"D#6","midi":87,"time":190.4546343333318,"velocity":0.3858267716535433,"duration":0.4517047562499954},{"name":"C6","midi":84,"time":190.90917999999846,"velocity":0.3858267716535433,"duration":0.4517047562499954},{"name":"F#5","midi":78,"time":191.36372566666512,"velocity":0.3858267716535433,"duration":0.4517047562499954},{"name":"A5","midi":81,"time":191.81827133333178,"velocity":0.3858267716535433,"duration":0.4517047562499954},{"name":"D#5","midi":75,"time":192.27281699999844,"velocity":0.3858267716535433,"duration":0.4517047562499954},{"name":"F#5","midi":78,"time":192.7273626666651,"velocity":0.3858267716535433,"duration":0.4517047562499954},{"name":"C5","midi":72,"time":193.18190833333176,"velocity":0.3858267716535433,"duration":0.4517047562499954},{"name":"D#5","midi":75,"time":193.63645399999842,"velocity":0.3858267716535433,"duration":0.4517047562499954},{"name":"A4","midi":69,"time":194.09099966666508,"velocity":0.3858267716535433,"duration":0.4517047562499954},{"name":"C5","midi":72,"time":194.54554533333175,"velocity":0.3858267716535433,"duration":0.4517047562499954},{"name":"F#4","midi":66,"time":195.0000909999984,"velocity":0.3858267716535433,"duration":0.4517047562499954},{"name":"A4","midi":69,"time":195.45463666666507,"velocity":0.3858267716535433,"duration":0.4517047562499954},{"name":"D#4","midi":63,"time":195.90918233333173,"velocity":0.3858267716535433,"duration":0.4517047562499954},{"name":"F#4","midi":66,"time":196.3637279999984,"velocity":0.3858267716535433,"duration":0.4517047562499954},{"name":"C4","midi":60,"time":196.81827366666505,"velocity":0.3858267716535433,"duration":0.4517047562499954},{"name":"D#4","midi":63,"time":197.2728193333317,"velocity":0.3858267716535433,"duration":0.4517047562499954},{"name":"A3","midi":57,"time":197.72736499999837,"velocity":0.3858267716535433,"duration":0.4517047562499954},{"name":"C4","midi":60,"time":198.18191066666503,"velocity":0.3858267716535433,"duration":0.4517047562499954},{"name":"F#3","midi":54,"time":198.6364563333317,"velocity":0.3858267716535433,"duration":0.4517047562499954},{"name":"A3","midi":57,"time":199.09100199999835,"velocity":0.3858267716535433,"duration":0.4517047562499954},{"name":"D#3","midi":51,"time":199.54554766666502,"velocity":0.3858267716535433,"duration":0.9062504229166564},{"name":"F#3","midi":54,"time":200.00009333333168,"velocity":0.3858267716535433,"duration":0.4517047562499954},{"name":"C#3","midi":49,"time":200.45463899999834,"velocity":0.3858267716535433,"duration":1.3607960895833173},{"name":"F#3","midi":54,"time":200.909184666665,"velocity":0.3858267716535433,"duration":0.4517047562499954},{"name":"A3","midi":57,"time":201.36373033333166,"velocity":0.3858267716535433,"duration":0.4517047562499954},{"name":"C3","midi":48,"time":201.81827599999832,"velocity":0.3858267716535433,"duration":2.7244330895833},{"name":"F#3","midi":54,"time":202.27282166666498,"velocity":0.3858267716535433,"duration":0.4517047562499954},{"name":"G#3","midi":56,"time":202.72736733333164,"velocity":0.3858267716535433,"duration":0.4517047562499954},{"name":"A3","midi":57,"time":203.1819129999983,"velocity":0.3858267716535433,"duration":0.4517047562499954},{"name":"G#3","midi":56,"time":203.63645866666496,"velocity":0.3858267716535433,"duration":0.4517047562499954},{"name":"F#3","midi":54,"time":204.09100433333163,"velocity":0.3858267716535433,"duration":0.4517047562499954},{"name":"D#3","midi":51,"time":204.5455499999983,"velocity":0.3858267716535433,"duration":1.3607960895833173},{"name":"F#3","midi":54,"time":205.00009566666495,"velocity":0.3858267716535433,"duration":0.4517047562499954},{"name":"A3","midi":57,"time":205.4546413333316,"velocity":0.3858267716535433,"duration":0.4517047562499954},{"name":"C#3","midi":49,"time":205.90918699999827,"velocity":0.3858267716535433,"duration":1.3607960895833173},{"name":"F#3","midi":54,"time":206.36373266666493,"velocity":0.3858267716535433,"duration":0.4517047562499954},{"name":"A3","midi":57,"time":206.8182783333316,"velocity":0.3858267716535433,"duration":0.4517047562499954},{"name":"C3","midi":48,"time":207.27282399999825,"velocity":0.3858267716535433,"duration":2.7244330895833},{"name":"F#3","midi":54,"time":207.7273696666649,"velocity":0.3858267716535433,"duration":0.4517047562499954},{"name":"G#3","midi":56,"time":208.18191533333157,"velocity":0.3858267716535433,"duration":0.4517047562499954},{"name":"A3","midi":57,"time":208.63646099999823,"velocity":0.3858267716535433,"duration":0.4517047562499954},{"name":"G#3","midi":56,"time":209.0910066666649,"velocity":0.3858267716535433,"duration":0.4517047562499954},{"name":"F#3","midi":54,"time":209.54555233333156,"velocity":0.3858267716535433,"duration":0.4517047562499954},{"name":"D3","midi":50,"time":210.00009799999822,"velocity":0.3858267716535433,"duration":1.3607960895833173},{"name":"F#3","midi":54,"time":210.45464366666488,"velocity":0.3858267716535433,"duration":0.4517047562499954},{"name":"A3","midi":57,"time":210.90918933333154,"velocity":0.3858267716535433,"duration":0.4517047562499954},{"name":"C#3","midi":49,"time":211.3637349999982,"velocity":0.3858267716535433,"duration":1.3607960895833173},{"name":"F#3","midi":54,"time":211.81828066666486,"velocity":0.3858267716535433,"duration":0.4517047562499954},{"name":"A3","midi":57,"time":212.27282633333152,"velocity":0.3858267716535433,"duration":0.4517047562499954},{"name":"C3","midi":48,"time":212.72737199999818,"velocity":0.3858267716535433,"duration":2.7244330895833},{"name":"F#3","midi":54,"time":213.18191766666484,"velocity":0.3858267716535433,"duration":0.4517047562499954},{"name":"G#3","midi":56,"time":213.6364633333315,"velocity":0.3779527559055118,"duration":0.4517047562499954},{"name":"A3","midi":57,"time":214.09100899999817,"velocity":0.3700787401574803,"duration":0.4517047562499954},{"name":"G#3","midi":56,"time":214.54555466666483,"velocity":0.3700787401574803,"duration":0.4517047562499954},{"name":"F#3","midi":54,"time":215.0001003333315,"velocity":0.36220472440944884,"duration":0.4517047562499954},{"name":"C#3","midi":49,"time":215.45464599999815,"velocity":0.3543307086614173,"duration":0.4517047562499954},{"name":"E3","midi":52,"time":215.9091916666648,"velocity":0.3543307086614173,"duration":0.4517047562499954},{"name":"C#4","midi":61,"time":216.36373733333147,"velocity":0.3464566929133858,"duration":1.8153417562499783},{"name":"C#3","midi":49,"time":216.81828299999813,"velocity":0.33858267716535434,"duration":0.4517047562499954},{"name":"E3","midi":52,"time":217.2728286666648,"velocity":0.33858267716535434,"duration":0.4517047562499954},{"name":"C#4","midi":61,"time":217.72737433333145,"velocity":0.33070866141732286,"duration":1.8153417562499783},{"name":"D#3","midi":51,"time":218.18191999999812,"velocity":0.3228346456692913,"duration":0.4517047562499954},{"name":"A3","midi":57,"time":218.63646566666478,"velocity":0.3228346456692913,"duration":0.4517047562499954},{"name":"C#4","midi":61,"time":219.09101133333144,"velocity":0.31496062992125984,"duration":1.8153417562499783},{"name":"D#3","midi":51,"time":219.5455569999981,"velocity":0.30708661417322836,"duration":0.4517047562499954},{"name":"A3","midi":57,"time":220.00010266666476,"velocity":0.30708661417322836,"duration":0.4517047562499954},{"name":"C#4","midi":61,"time":220.45464833333142,"velocity":0.2992125984251969,"duration":4.542615756249944},{"name":"D#3","midi":51,"time":220.90919399999808,"velocity":0.29133858267716534,"duration":0.4517047562499954},{"name":"G#3","midi":56,"time":221.36373966666474,"velocity":0.29133858267716534,"duration":0.4517047562499954},{"name":"C4","midi":60,"time":221.8182853333314,"velocity":0.28346456692913385,"duration":0.4517047562499954},{"name":"D#3","midi":51,"time":222.27283099999806,"velocity":0.2755905511811024,"duration":0.4517047562499954},{"name":"F#3","midi":54,"time":222.72737666666472,"velocity":0.2755905511811024,"duration":0.4517047562499954},{"name":"C4","midi":60,"time":223.18192233333139,"velocity":0.2677165354330709,"duration":0.4517047562499954},{"name":"E3","midi":52,"time":223.63646799999805,"velocity":0.25984251968503935,"duration":0.4517047562499954},{"name":"G#3","midi":56,"time":224.0910136666647,"velocity":0.25984251968503935,"duration":0.4517047562499954},{"name":"C#4","midi":61,"time":224.54555933333137,"velocity":0.25984251968503935,"duration":1.3607960895833173},{"name":"G#3","midi":56,"time":225.00010499999803,"velocity":0.25984251968503935,"duration":0.4517047562499954},{"name":"C#4","midi":61,"time":225.4546506666647,"velocity":0.25984251968503935,"duration":1.8153417562499783},{"name":"E4","midi":64,"time":225.90919633333135,"velocity":0.25984251968503935,"duration":1.8153417562499783},{"name":"G#3","midi":56,"time":226.363741999998,"velocity":0.25984251968503935,"duration":0.4517047562499954},{"name":"C#4","midi":61,"time":226.81828766666467,"velocity":0.25984251968503935,"duration":1.8153417562499783},{"name":"E4","midi":64,"time":227.27283333333133,"velocity":0.25984251968503935,"duration":1.8153417562500067},{"name":"G#4","midi":68,"time":227.727378999998,"velocity":0.25984251968503935,"duration":1.0198868395833358},{"name":"G#3","midi":56,"time":227.727378999998,"velocity":0.25984251968503935,"duration":0.4517047562499954},{"name":"C#4","midi":61,"time":228.18192466666466,"velocity":0.25984251968503935,"duration":7.269889756249967},{"name":"E4","midi":64,"time":228.63647033333132,"velocity":0.25984251968503935,"duration":7.269889756249967},{"name":"G#4","midi":68,"time":228.750106749998,"velocity":0.25984251968503935,"duration":0.33806833958334437},{"name":"G#4","midi":68,"time":229.091015999998,"velocity":0.25984251968503935,"duration":4.088070089583283},{"name":"G#3","midi":56,"time":229.091015999998,"velocity":0.25984251968503935,"duration":0.4517047562499954},{"name":"D#4","midi":63,"time":229.54556166666467,"velocity":0.25984251968503935,"duration":0.4517047562499954},{"name":"F#4","midi":66,"time":230.00010733333133,"velocity":0.25984251968503935,"duration":0.4517047562499954},{"name":"G#3","midi":56,"time":230.454652999998,"velocity":0.25984251968503935,"duration":0.4517047562499954},{"name":"D#4","midi":63,"time":230.90919866666465,"velocity":0.25984251968503935,"duration":0.4517047562499954},{"name":"F#4","midi":66,"time":231.3637443333313,"velocity":0.25984251968503935,"duration":0.4517047562499954},{"name":"G#3","midi":56,"time":231.81828999999797,"velocity":0.25984251968503935,"duration":0.4517047562499954},{"name":"D#4","midi":63,"time":232.27283566666463,"velocity":0.25984251968503935,"duration":0.4517047562499954},{"name":"F#4","midi":66,"time":232.7273813333313,"velocity":0.25984251968503935,"duration":0.4517047562499954},{"name":"G#4","midi":68,"time":233.18192699999796,"velocity":0.25984251968503935,"duration":1.0198868395833358},{"name":"G#3","midi":56,"time":233.18192699999796,"velocity":0.25984251968503935,"duration":0.4517047562499954},{"name":"D#4","midi":63,"time":233.63647266666462,"velocity":0.25984251968503935,"duration":0.4517047562499954},{"name":"F#4","midi":66,"time":234.09101833333128,"velocity":0.25984251968503935,"duration":0.4517047562500238},{"name":"G#4","midi":68,"time":234.20465474999796,"velocity":0.25984251968503935,"duration":0.33806833958334437},{"name":"G#4","midi":68,"time":234.54556399999797,"velocity":0.25984251968503935,"duration":2.7244330895833},{"name":"G#3","midi":56,"time":234.54556399999797,"velocity":0.25984251968503935,"duration":0.4517047562499954},{"name":"C#4","midi":61,"time":235.00010966666463,"velocity":0.25984251968503935,"duration":1.8153417562499783},{"name":"E4","midi":64,"time":235.4546553333313,"velocity":0.25984251968503935,"duration":1.8153417562499783},{"name":"G#3","midi":56,"time":235.90920099999795,"velocity":0.25984251968503935,"duration":0.4517047562499954},{"name":"C#4","midi":61,"time":236.3637466666646,"velocity":0.25984251968503935,"duration":1.8153417562499783},{"name":"E4","midi":64,"time":236.81829233333127,"velocity":0.25984251968503935,"duration":4.542615756249944},{"name":"A4","midi":69,"time":237.27283799999793,"velocity":0.25984251968503935,"duration":2.7244330895833},{"name":"A3","midi":57,"time":237.27283799999793,"velocity":0.25984251968503935,"duration":0.4517047562499954},{"name":"C#4","midi":61,"time":237.7273836666646,"velocity":0.25984251968503935,"duration":1.8153417562499783},{"name":"F#4","midi":66,"time":238.18192933333125,"velocity":0.25984251968503935,"duration":0.4517047562499954},{"name":"A3","midi":57,"time":238.63647499999792,"velocity":0.25984251968503935,"duration":0.4517047562499954},{"name":"C#4","midi":61,"time":239.09102066666458,"velocity":0.25984251968503935,"duration":21.815351089583714},{"name":"F#4","midi":66,"time":239.54556633333124,"velocity":0.25984251968503935,"duration":0.4517047562499954},{"name":"G#4","midi":68,"time":240.0001119999979,"velocity":0.25984251968503935,"duration":2.7244330895833},{"name":"G#3","midi":56,"time":240.0001119999979,"velocity":0.25984251968503935,"duration":0.4517047562499954},{"name":"B3","midi":59,"time":240.45465766666456,"velocity":0.25984251968503935,"duration":0.4517047562499954},{"name":"E4","midi":64,"time":240.90920333333122,"velocity":0.25984251968503935,"duration":1.8153417562499783},{"name":"G#3","midi":56,"time":241.36374899999788,"velocity":0.25984251968503935,"duration":0.4517047562499954},{"name":"B3","midi":59,"time":241.81829466666454,"velocity":0.25984251968503935,"duration":0.4517047562499954},{"name":"E4","midi":64,"time":242.2728403333312,"velocity":0.25984251968503935,"duration":4.090910999999949},{"name":"F#4","midi":66,"time":242.72738599999786,"velocity":0.25984251968503935,"duration":1.3607960895833173},{"name":"A3","midi":57,"time":242.72738599999786,"velocity":0.25984251968503935,"duration":0.4517047562499954},{"name":"B3","midi":59,"time":243.18193166666452,"velocity":0.25984251968503935,"duration":0.4517047562499954},{"name":"D#4","midi":63,"time":243.6364773333312,"velocity":0.25984251968503935,"duration":0.4517047562499954},{"name":"B4","midi":71,"time":244.09102299999785,"velocity":0.25984251968503935,"duration":1.3607960895833173},{"name":"A3","midi":57,"time":244.09102299999785,"velocity":0.25984251968503935,"duration":0.4517047562499954},{"name":"B3","midi":59,"time":244.5455686666645,"velocity":0.25984251968503935,"duration":0.4517047562499954},{"name":"D#4","midi":63,"time":245.00011433333117,"velocity":0.25984251968503935,"duration":0.4517047562499954},{"name":"E4","midi":64,"time":245.45465999999783,"velocity":0.25984251968503935,"duration":1.3607960895833173},{"name":"G#3","midi":56,"time":245.45465999999783,"velocity":0.25984251968503935,"duration":0.4517047562499954},{"name":"B3","midi":59,"time":245.9092056666645,"velocity":0.25984251968503935,"duration":0.4517047562499954},{"name":"E4","midi":64,"time":246.36375133333115,"velocity":0.25984251968503935,"duration":1.3607960895833173},{"name":"B3","midi":59,"time":246.8182969999978,"velocity":0.25984251968503935,"duration":0.4517047562499954},{"name":"E4","midi":64,"time":247.27284266666447,"velocity":0.25984251968503935,"duration":1.8153417562499783},{"name":"G#4","midi":68,"time":247.72738833333113,"velocity":0.25984251968503935,"duration":0.4517047562499954},{"name":"B3","midi":59,"time":248.1819339999978,"velocity":0.25984251968503935,"duration":0.4517047562499954},{"name":"E4","midi":64,"time":248.63647966666446,"velocity":0.25984251968503935,"duration":1.8153417562499783},{"name":"G#4","midi":68,"time":249.09102533333112,"velocity":0.25984251968503935,"duration":0.4517047562499954},{"name":"B4","midi":71,"time":249.54557099999778,"velocity":0.25984251968503935,"duration":1.0198868395833358},{"name":"B3","midi":59,"time":249.54557099999778,"velocity":0.25984251968503935,"duration":0.4517047562499954},{"name":"E4","midi":64,"time":250.00011666666444,"velocity":0.25984251968503935,"duration":7.269889756250109},{"name":"G#4","midi":68,"time":250.4546623333311,"velocity":0.25984251968503935,"duration":0.4517047562500238},{"name":"B4","midi":71,"time":250.56829874999778,"velocity":0.25984251968503935,"duration":0.33806833958334437},{"name":"B4","midi":71,"time":250.9092079999978,"velocity":0.25984251968503935,"duration":4.088070089583283},{"name":"B3","midi":59,"time":250.9092079999978,"velocity":0.25984251968503935,"duration":0.4517047562499954},{"name":"F#4","midi":66,"time":251.36375366666445,"velocity":0.25984251968503935,"duration":0.4517047562499954},{"name":"A4","midi":69,"time":251.8182993333311,"velocity":0.25984251968503935,"duration":0.4517047562499954},{"name":"B3","midi":59,"time":252.27284499999777,"velocity":0.25984251968503935,"duration":0.4517047562499954},{"name":"F#4","midi":66,"time":252.72739066666443,"velocity":0.25984251968503935,"duration":0.4517047562499954},{"name":"A4","midi":69,"time":253.1819363333311,"velocity":0.25984251968503935,"duration":0.4517047562499954},{"name":"B3","midi":59,"time":253.63648199999776,"velocity":0.25984251968503935,"duration":0.4517047562499954},{"name":"F#4","midi":66,"time":254.09102766666442,"velocity":0.25984251968503935,"duration":0.4517047562499954},{"name":"A4","midi":69,"time":254.54557333333108,"velocity":0.25984251968503935,"duration":0.4517047562499954},{"name":"B4","midi":71,"time":255.00011899999774,"velocity":0.25984251968503935,"duration":1.0198868395833358},{"name":"B3","midi":59,"time":255.00011899999774,"velocity":0.25984251968503935,"duration":0.4517047562499954},{"name":"F#4","midi":66,"time":255.4546646666644,"velocity":0.25984251968503935,"duration":0.4517047562499954},{"name":"A4","midi":69,"time":255.90921033333106,"velocity":0.25984251968503935,"duration":0.45170475625005224},{"name":"B4","midi":71,"time":256.02284674999777,"velocity":0.25984251968503935,"duration":0.33806833958334437},{"name":"B4","midi":71,"time":256.3637559999978,"velocity":0.25984251968503935,"duration":2.724433089583613},{"name":"B3","midi":59,"time":256.3637559999978,"velocity":0.25984251968503935,"duration":0.4517047562500238},{"name":"E4","midi":64,"time":256.8183016666645,"velocity":0.2677165354330709,"duration":1.8153417562501772},{"name":"G#4","midi":68,"time":257.27284733333124,"velocity":0.2755905511811024,"duration":0.4517047562500238},{"name":"B3","midi":59,"time":257.72739299999796,"velocity":0.29133858267716534,"duration":0.4517047562500238},{"name":"E4","midi":64,"time":258.1819386666647,"velocity":0.2992125984251969,"duration":3.1789787562503307},{"name":"G#4","midi":68,"time":258.6364843333314,"velocity":0.30708661417322836,"duration":0.4517047562500238},{"name":"C5","midi":72,"time":259.0910299999981,"velocity":0.3228346456692913,"duration":1.3607960895834594},{"name":"C4","midi":60,"time":259.0910299999981,"velocity":0.3228346456692913,"duration":0.4517047562500238},{"name":"F#4","midi":66,"time":259.54557566666483,"velocity":0.33070866141732286,"duration":0.4517047562500238},{"name":"G#4","midi":68,"time":260.00012133333155,"velocity":0.33858267716535434,"duration":0.4517047562500238},{"name":"C#5","midi":73,"time":260.45466699999827,"velocity":0.3543307086614173,"duration":1.3607960895834594},{"name":"C#4","midi":61,"time":260.45466699999827,"velocity":0.3543307086614173,"duration":12.724437756251405},{"name":"E4","midi":64,"time":260.909212666665,"velocity":0.36220472440944884,"duration":4.088070089583766},{"name":"G#4","midi":68,"time":261.3637583333317,"velocity":0.3700787401574803,"duration":0.4517047562500238},{"name":"D#5","midi":75,"time":261.8183039999984,"velocity":0.3858267716535433,"duration":2.724433089583613},{"name":"D#4","midi":63,"time":261.8183039999984,"velocity":0.3858267716535433,"duration":0.4517047562500238},{"name":"F#4","midi":66,"time":262.27284966666514,"velocity":0.3858267716535433,"duration":0.4517047562500238},{"name":"G#4","midi":68,"time":262.72739533333186,"velocity":0.3858267716535433,"duration":0.4517047562500238},{"name":"D#4","midi":63,"time":263.1819409999986,"velocity":0.3858267716535433,"duration":0.4517047562500238},{"name":"F#4","midi":66,"time":263.6364866666653,"velocity":0.3858267716535433,"duration":0.4517047562500238},{"name":"G#4","midi":68,"time":264.091032333332,"velocity":0.3858267716535433,"duration":0.4517047562500238},{"name":"E5","midi":76,"time":264.5455779999987,"velocity":0.3858267716535433,"duration":2.724433089583613},{"name":"E4","midi":64,"time":264.5455779999987,"velocity":0.3858267716535433,"duration":1.8153417562501772},{"name":"G#4","midi":68,"time":265.00012366666544,"velocity":0.3858267716535433,"duration":0.4517047562500238},{"name":"C#5","midi":73,"time":265.45466933333216,"velocity":0.3858267716535433,"duration":0.4517047562500238},{"name":"E4","midi":64,"time":265.9092149999989,"velocity":0.3858267716535433,"duration":7.724435422917509},{"name":"G#4","midi":68,"time":266.3637606666656,"velocity":0.3858267716535433,"duration":0.4517047562500238},{"name":"C#5","midi":73,"time":266.8183063333323,"velocity":0.3858267716535433,"duration":0.4517047562500238},{"name":"D5","midi":74,"time":267.27285199999903,"velocity":0.3858267716535433,"duration":2.724433089583613},{"name":"D4","midi":62,"time":267.27285199999903,"velocity":0.3858267716535433,"duration":0.4517047562500238},{"name":"F#4","midi":66,"time":267.72739766666575,"velocity":0.3858267716535433,"duration":0.4517047562500238},{"name":"A4","midi":69,"time":268.18194333333247,"velocity":0.3858267716535433,"duration":0.4517047562500238},{"name":"D4","midi":62,"time":268.6364889999992,"velocity":0.3858267716535433,"duration":0.4517047562500238},{"name":"F#4","midi":66,"time":269.0910346666659,"velocity":0.3858267716535433,"duration":0.4517047562500238},{"name":"A4","midi":69,"time":269.5455803333326,"velocity":0.3858267716535433,"duration":0.4517047562500238},{"name":"C5","midi":72,"time":270.00012599999934,"velocity":0.3858267716535433,"duration":2.724433089583613},{"name":"C4","midi":60,"time":270.00012599999934,"velocity":0.3858267716535433,"duration":0.4517047562500238},{"name":"F#4","midi":66,"time":270.45467166666606,"velocity":0.3858267716535433,"duration":0.4517047562500238},{"name":"G#4","midi":68,"time":270.9092173333328,"velocity":0.3858267716535433,"duration":0.4517047562500238},{"name":"C4","midi":60,"time":271.3637629999995,"velocity":0.3858267716535433,"duration":0.4517047562500238},{"name":"F#4","midi":66,"time":271.8183086666662,"velocity":0.3858267716535433,"duration":0.4517047562500238},{"name":"G#4","midi":68,"time":272.27285433333293,"velocity":0.3858267716535433,"duration":0.4517047562500238},{"name":"C#5","midi":73,"time":272.72739999999965,"velocity":0.3858267716535433,"duration":4.088070089583766},{"name":"C#4","midi":61,"time":272.72739999999965,"velocity":0.3858267716535433,"duration":1.8153417562501772},{"name":"E4","midi":64,"time":273.18194566666637,"velocity":0.3858267716535433,"duration":1.8153417562501772},{"name":"G#4","midi":68,"time":273.6364913333331,"velocity":0.3858267716535433,"duration":0.4517047562500238},{"name":"C#4","midi":61,"time":274.0910369999998,"velocity":0.3858267716535433,"duration":1.8153417562501772},{"name":"E4","midi":64,"time":274.5455826666665,"velocity":0.3858267716535433,"duration":30.4517187562534},{"name":"G#4","midi":68,"time":275.00012833333324,"velocity":0.3858267716535433,"duration":0.4517047562500238},{"name":"C#4","midi":61,"time":275.45467399999995,"velocity":0.3858267716535433,"duration":1.8153417562501772},{"name":"F4","midi":65,"time":275.9092196666667,"velocity":0.3858267716535433,"duration":0.4517047562500238},{"name":"G#4","midi":68,"time":276.3637653333334,"velocity":0.3858267716535433,"duration":0.4517047562500238},{"name":"C#5","midi":73,"time":276.8183110000001,"velocity":0.3858267716535433,"duration":1.3607960895834594},{"name":"C#4","midi":61,"time":276.8183110000001,"velocity":0.3858267716535433,"duration":1.8153417562501772},{"name":"F4","midi":65,"time":277.2728566666668,"velocity":0.3858267716535433,"duration":0.4517047562500238},{"name":"G#4","midi":68,"time":277.72740233333354,"velocity":0.3858267716535433,"duration":0.4517047562500238},{"name":"D5","midi":74,"time":278.18194800000026,"velocity":0.3858267716535433,"duration":4.088070089583766},{"name":"C#4","midi":61,"time":278.18194800000026,"velocity":0.3858267716535433,"duration":1.8153417562501772},{"name":"F#4","midi":66,"time":278.636493666667,"velocity":0.3937007874015748,"duration":0.4517047562500238},{"name":"A4","midi":69,"time":279.0910393333337,"velocity":0.4094488188976378,"duration":0.4517047562500238},{"name":"C#4","midi":61,"time":279.5455850000004,"velocity":0.4251968503937008,"duration":1.8153417562501772},{"name":"F#4","midi":66,"time":280.00013066666713,"velocity":0.4409448818897638,"duration":0.4517047562500238},{"name":"A4","midi":69,"time":280.45467633333385,"velocity":0.4566929133858268,"duration":0.4517047562500238},{"name":"C#4","midi":61,"time":280.90922200000057,"velocity":0.47244094488188976,"duration":1.8153417562501772},{"name":"F#4","midi":66,"time":281.3637676666673,"velocity":0.47244094488188976,"duration":0.4517047562500238},{"name":"A4","midi":69,"time":281.818313333334,"velocity":0.4566929133858268,"duration":0.4517047562500238},{"name":"C5","midi":72,"time":282.2728590000007,"velocity":0.4409448818897638,"duration":1.3607960895834594},{"name":"C#4","midi":61,"time":282.2728590000007,"velocity":0.4409448818897638,"duration":1.8153417562501772},{"name":"F#4","midi":66,"time":282.72740466666744,"velocity":0.4251968503937008,"duration":0.4517047562500238},{"name":"A4","midi":69,"time":283.18195033333416,"velocity":0.4094488188976378,"duration":0.4517047562500238},{"name":"C#5","midi":73,"time":283.6364960000009,"velocity":0.3858267716535433,"duration":4.088070089583766},{"name":"C#4","midi":61,"time":283.6364960000009,"velocity":0.3858267716535433,"duration":1.8153417562501772},{"name":"F4","midi":65,"time":284.0910416666676,"velocity":0.3858267716535433,"duration":0.4517047562500238},{"name":"G#4","midi":68,"time":284.5455873333343,"velocity":0.3858267716535433,"duration":0.4517047562500238},{"name":"C#4","midi":61,"time":285.00013300000103,"velocity":0.3858267716535433,"duration":1.8153417562501772},{"name":"F4","midi":65,"time":285.45467866666775,"velocity":0.3858267716535433,"duration":0.4517047562500238},{"name":"G#4","midi":68,"time":285.90922433333446,"velocity":0.3858267716535433,"duration":0.4517047562500238},{"name":"C#4","midi":61,"time":286.3637700000012,"velocity":0.3858267716535433,"duration":1.8153417562501772},{"name":"F4","midi":65,"time":286.8183156666679,"velocity":0.3858267716535433,"duration":0.4517047562500238},{"name":"G#4","midi":68,"time":287.2728613333346,"velocity":0.3858267716535433,"duration":0.4517047562500238},{"name":"C#5","midi":73,"time":287.72740700000134,"velocity":0.3858267716535433,"duration":1.3607960895834594},{"name":"C#4","midi":61,"time":287.72740700000134,"velocity":0.3858267716535433,"duration":1.8153417562501772},{"name":"F4","midi":65,"time":288.18195266666805,"velocity":0.3858267716535433,"duration":0.4517047562500238},{"name":"G#4","midi":68,"time":288.63649833333477,"velocity":0.3858267716535433,"duration":0.4517047562500238},{"name":"D5","midi":74,"time":289.0910440000015,"velocity":0.3858267716535433,"duration":4.088070089583766},{"name":"C#4","midi":61,"time":289.0910440000015,"velocity":0.3858267716535433,"duration":1.8153417562501772},{"name":"F#4","midi":66,"time":289.5455896666682,"velocity":0.3937007874015748,"duration":0.4517047562500238},{"name":"A4","midi":69,"time":290.0001353333349,"velocity":0.4094488188976378,"duration":0.4517047562500238},{"name":"C#4","midi":61,"time":290.45468100000164,"velocity":0.4251968503937008,"duration":1.8153417562501772},{"name":"F#4","midi":66,"time":290.90922666666836,"velocity":0.4409448818897638,"duration":0.4517047562500238},{"name":"A4","midi":69,"time":291.3637723333351,"velocity":0.4566929133858268,"duration":0.4517047562500238},{"name":"C#4","midi":61,"time":291.8183180000018,"velocity":0.47244094488188976,"duration":1.8153417562501772},{"name":"F#4","midi":66,"time":292.2728636666685,"velocity":0.3858267716535433,"duration":0.4517047562500238},{"name":"A4","midi":69,"time":292.72740933333523,"velocity":0.3858267716535433,"duration":0.4517047562500238},{"name":"C5","midi":72,"time":293.18195500000195,"velocity":0.3858267716535433,"duration":1.3607960895834594},{"name":"C#4","midi":61,"time":293.18195500000195,"velocity":0.3858267716535433,"duration":1.8153417562501772},{"name":"F#4","midi":66,"time":293.63650066666867,"velocity":0.3858267716535433,"duration":0.4517047562500238},{"name":"A4","midi":69,"time":294.0910463333354,"velocity":0.3858267716535433,"duration":0.4517047562500238},{"name":"C#5","midi":73,"time":294.5455920000021,"velocity":0.3858267716535433,"duration":2.724433089583613},{"name":"C#4","midi":61,"time":294.5455920000021,"velocity":0.3858267716535433,"duration":1.8153417562501772},{"name":"F4","midi":65,"time":295.0001376666688,"velocity":0.3858267716535433,"duration":0.4517047562500238},{"name":"G#4","midi":68,"time":295.45468333333554,"velocity":0.3858267716535433,"duration":0.4517047562500238},{"name":"C#4","midi":61,"time":295.90922900000226,"velocity":0.3858267716535433,"duration":1.8153417562501772},{"name":"F4","midi":65,"time":296.363774666669,"velocity":0.3858267716535433,"duration":0.4517047562500238},{"name":"G#4","midi":68,"time":296.8183203333357,"velocity":0.3858267716535433,"duration":0.4517047562500238},{"name":"C#5","midi":73,"time":297.2728660000024,"velocity":0.3858267716535433,"duration":2.724433089583613},{"name":"C#4","midi":61,"time":297.2728660000024,"velocity":0.3858267716535433,"duration":1.8153417562501772},{"name":"F#4","midi":66,"time":297.7274116666691,"velocity":0.3858267716535433,"duration":0.4517047562500238},{"name":"A4","midi":69,"time":298.18195733333584,"velocity":0.3858267716535433,"duration":0.4517047562500238},{"name":"C#4","midi":61,"time":298.63650300000256,"velocity":0.3858267716535433,"duration":11.815346422917969},{"name":"F#4","midi":66,"time":299.0910486666693,"velocity":0.3858267716535433,"duration":0.4517047562500238},{"name":"A4","midi":69,"time":299.545594333336,"velocity":0.3858267716535433,"duration":0.4517047562500238},{"name":"B4","midi":71,"time":300.0001400000027,"velocity":0.3858267716535433,"duration":4.088070089583766},{"name":"B3","midi":59,"time":300.0001400000027,"velocity":0.3858267716535433,"duration":0.4517047562500238},{"name":"F#4","midi":66,"time":300.45468566666943,"velocity":0.3858267716535433,"duration":0.4517047562500238},{"name":"A4","midi":69,"time":300.90923133333615,"velocity":0.3858267716535433,"duration":0.4517047562500238},{"name":"B3","midi":59,"time":301.36377700000287,"velocity":0.3858267716535433,"duration":0.4517047562500238},{"name":"F#4","midi":66,"time":301.8183226666696,"velocity":0.3858267716535433,"duration":0.4517047562500238},{"name":"A4","midi":69,"time":302.2728683333363,"velocity":0.3858267716535433,"duration":0.4517047562500238},{"name":"B3","midi":59,"time":302.727414000003,"velocity":0.3858267716535433,"duration":0.4517047562500238},{"name":"F#4","midi":66,"time":303.18195966666974,"velocity":0.3858267716535433,"duration":0.4517047562500238},{"name":"A4","midi":69,"time":303.63650533333646,"velocity":0.3858267716535433,"duration":0.4517047562500238},{"name":"B4","midi":71,"time":304.0910510000032,"velocity":0.3858267716535433,"duration":1.3607960895834594},{"name":"B3","midi":59,"time":304.0910510000032,"velocity":0.3858267716535433,"duration":0.4517047562500238},{"name":"E4","midi":64,"time":304.5455966666699,"velocity":0.3858267716535433,"duration":1.8153417562501772},{"name":"G#4","midi":68,"time":305.0001423333366,"velocity":0.3858267716535433,"duration":0.4517047562500238},{"name":"A4","midi":69,"time":305.45468800000333,"velocity":0.3858267716535433,"duration":1.3607960895834594},{"name":"A3","midi":57,"time":305.45468800000333,"velocity":0.3858267716535433,"duration":0.4517047562500238},{"name":"E4","midi":64,"time":305.90923366667005,"velocity":0.3858267716535433,"duration":4.997161422917202},{"name":"G#4","midi":68,"time":306.36377933333677,"velocity":0.3858267716535433,"duration":0.4517047562500238},{"name":"A4","midi":69,"time":306.8183250000035,"velocity":0.3858267716535433,"duration":1.3607960895834594},{"name":"A3","midi":57,"time":306.8183250000035,"velocity":0.3858267716535433,"duration":0.4517047562500238},{"name":"D#4","midi":63,"time":307.2728706666702,"velocity":0.3858267716535433,"duration":0.4517047562500238},{"name":"F#4","midi":66,"time":307.7274163333369,"velocity":0.3858267716535433,"duration":0.4517047562500238},{"name":"G#4","midi":68,"time":308.18196200000364,"velocity":0.3858267716535433,"duration":1.3607960895834594},{"name":"G#3","midi":56,"time":308.18196200000364,"velocity":0.3858267716535433,"duration":0.4517047562500238},{"name":"D#4","midi":63,"time":308.63650766667035,"velocity":0.3858267716535433,"duration":0.4517047562500238},{"name":"F#4","midi":66,"time":309.0910533333371,"velocity":0.3858267716535433,"duration":0.4517047562500238},{"name":"G#4","midi":68,"time":309.5455990000038,"velocity":0.3858267716535433,"duration":1.3607960895834594},{"name":"G#3","midi":56,"time":309.5455990000038,"velocity":0.3858267716535433,"duration":0.4517047562500238},{"name":"C#4","midi":61,"time":310.0001446666705,"velocity":0.3858267716535433,"duration":1.8153417562501772},{"name":"E4","midi":64,"time":310.4546903333372,"velocity":0.3858267716535433,"duration":7.269889756250791},{"name":"F#4","midi":66,"time":310.90923600000394,"velocity":0.3858267716535433,"duration":2.724433089583613},{"name":"F#3","midi":54,"time":310.90923600000394,"velocity":0.3858267716535433,"duration":0.4517047562500238},{"name":"C#4","midi":61,"time":311.36378166667066,"velocity":0.3858267716535433,"duration":1.8153417562501772},{"name":"D#4","midi":63,"time":311.8183273333374,"velocity":0.3858267716535433,"duration":0.4517047562500238},{"name":"F#3","midi":54,"time":312.2728730000041,"velocity":0.3858267716535433,"duration":0.4517047562500238},{"name":"C#4","midi":61,"time":312.7274186666708,"velocity":0.3858267716535433,"duration":1.8153417562501772},{"name":"D#4","midi":63,"time":313.18196433333753,"velocity":0.3858267716535433,"duration":0.4517047562500238},{"name":"G#4","midi":68,"time":313.63651000000425,"velocity":0.3858267716535433,"duration":1.3607960895834594},{"name":"G#3","midi":56,"time":313.63651000000425,"velocity":0.3858267716535433,"duration":0.4517047562500238},{"name":"C#4","midi":61,"time":314.09105566667097,"velocity":0.3858267716535433,"duration":1.8153417562501772},{"name":"D#4","midi":63,"time":314.5456013333377,"velocity":0.3858267716535433,"duration":0.4517047562500238},{"name":"A4","midi":69,"time":315.0001470000044,"velocity":0.3858267716535433,"duration":1.3607960895834594},{"name":"A3","midi":57,"time":315.0001470000044,"velocity":0.3858267716535433,"duration":0.4517047562500238},{"name":"C#4","midi":61,"time":315.4546926666711,"velocity":0.3858267716535433,"duration":1.8153417562501772},{"name":"D#4","midi":63,"time":315.90923833333784,"velocity":0.3858267716535433,"duration":0.4517047562500238},{"name":"G#4","midi":68,"time":316.36378400000456,"velocity":0.3858267716535433,"duration":2.724433089583613},{"name":"G#3","midi":56,"time":316.36378400000456,"velocity":0.3858267716535433,"duration":0.4517047562500238},{"name":"C#4","midi":61,"time":316.8183296666713,"velocity":0.3858267716535433,"duration":1.8153417562501772},{"name":"E4","midi":64,"time":317.272875333338,"velocity":0.3858267716535433,"duration":1.8153417562501772},{"name":"G#3","midi":56,"time":317.7274210000047,"velocity":0.3858267716535433,"duration":0.4517047562500238},{"name":"C#4","midi":61,"time":318.1819666666714,"velocity":0.3858267716535433,"duration":4.545456666667178},{"name":"E4","midi":64,"time":318.63651233333815,"velocity":0.3858267716535433,"duration":5.9062527562506375},{"name":"G#4","midi":68,"time":319.09105800000486,"velocity":0.3858267716535433,"duration":2.724433089583613},{"name":"F#3","midi":54,"time":319.09105800000486,"velocity":0.3858267716535433,"duration":0.4517047562500238},{"name":"C4","midi":60,"time":319.5456036666716,"velocity":0.3858267716535433,"duration":0.4517047562500238},{"name":"D#4","midi":63,"time":320.0001493333383,"velocity":0.3858267716535433,"duration":0.4517047562500238},{"name":"F#3","midi":54,"time":320.454695000005,"velocity":0.3858267716535433,"duration":0.4517047562500238},{"name":"C4","midi":60,"time":320.90924066667174,"velocity":0.3858267716535433,"duration":0.4517047562500238},{"name":"D#4","midi":63,"time":321.36378633333845,"velocity":0.3858267716535433,"duration":0.4517047562500238},{"name":"E3","midi":52,"time":321.81833200000517,"velocity":0.25984251968503935,"duration":0.4517047562500238},{"name":"C#4","midi":61,"time":321.81833200000517,"velocity":0.25984251968503935,"duration":1.3607960895834594},{"name":"G#3","midi":56,"time":322.2728776666719,"velocity":0.25984251968503935,"duration":0.4517047562500238},{"name":"C#4","midi":61,"time":322.7274233333386,"velocity":0.25984251968503935,"duration":1.3607960895834594},{"name":"G#3","midi":56,"time":323.1819690000053,"velocity":0.25984251968503935,"duration":0.4517047562500238},{"name":"C#4","midi":61,"time":323.63651466667204,"velocity":0.25984251968503935,"duration":1.8153417562501772},{"name":"E4","midi":64,"time":324.09106033333876,"velocity":0.25984251968503935,"duration":1.8153417562501772},{"name":"G#3","midi":56,"time":324.5456060000055,"velocity":0.25984251968503935,"duration":0.4517047562500238},{"name":"C#4","midi":61,"time":325.0001516666722,"velocity":0.25984251968503935,"duration":1.8153417562501772},{"name":"E4","midi":64,"time":325.4546973333389,"velocity":0.25984251968503935,"duration":1.8153417562501772},{"name":"G#3","midi":56,"time":325.90924300000563,"velocity":0.25984251968503935,"duration":0.4517047562500238},{"name":"C#4","midi":61,"time":326.36378866667235,"velocity":0.25984251968503935,"duration":7.724435422917509},{"name":"E4","midi":64,"time":326.81833433333907,"velocity":0.25984251968503935,"duration":6.815344089584073},{"name":"G#3","midi":56,"time":327.2728800000058,"velocity":0.25984251968503935,"duration":0.4517047562500238},{"name":"D#4","midi":63,"time":327.7274256666725,"velocity":0.25984251968503935,"duration":0.4517047562500238},{"name":"F#4","midi":66,"time":328.1819713333392,"velocity":0.25984251968503935,"duration":0.4517047562500238},{"name":"G#3","midi":56,"time":328.63651700000594,"velocity":0.25984251968503935,"duration":0.4517047562500238},{"name":"D#4","midi":63,"time":329.09106266667266,"velocity":0.25984251968503935,"duration":0.4517047562500238},{"name":"F#4","midi":66,"time":329.5456083333394,"velocity":0.25984251968503935,"duration":0.4517047562500238},{"name":"G#3","midi":56,"time":330.0001540000061,"velocity":0.25984251968503935,"duration":0.4517047562500238},{"name":"D#4","midi":63,"time":330.4546996666728,"velocity":0.25984251968503935,"duration":0.4517047562500238},{"name":"F#4","midi":66,"time":330.9092453333395,"velocity":0.25984251968503935,"duration":0.4517047562500238},{"name":"G#3","midi":56,"time":331.36379100000624,"velocity":0.25984251968503935,"duration":0.4517047562500238},{"name":"D#4","midi":63,"time":331.81833666667296,"velocity":0.25984251968503935,"duration":0.4517047562500238},{"name":"F#4","midi":66,"time":332.2728823333397,"velocity":0.25984251968503935,"duration":0.4517047562500238},{"name":"G#3","midi":56,"time":332.7274280000064,"velocity":0.25984251968503935,"duration":0.4517047562500238},{"name":"E4","midi":64,"time":333.1819736666731,"velocity":0.25984251968503935,"duration":1.8153417562501772},{"name":"C#4","midi":61,"time":333.63651933333983,"velocity":0.2677165354330709,"duration":10.451709422917759},{"name":"G#4","midi":68,"time":334.09106500000655,"velocity":0.2755905511811024,"duration":0.4517047562500238},{"name":"E4","midi":64,"time":334.54561066667327,"velocity":0.2755905511811024,"duration":9.997163756251041},{"name":"C#5","midi":73,"time":335.00015633334,"velocity":0.28346456692913385,"duration":0.4517047562500238},{"name":"G#4","midi":68,"time":335.4547020000067,"velocity":0.29133858267716534,"duration":0.4517047562500238},{"name":"E5","midi":76,"time":335.9092476666734,"velocity":0.29133858267716534,"duration":0.4517047562500238},{"name":"C#5","midi":73,"time":336.36379333334014,"velocity":0.2992125984251969,"duration":0.4517047562500238},{"name":"G#5","midi":80,"time":336.81833900000686,"velocity":0.30708661417322836,"duration":0.4517047562500238},{"name":"E5","midi":76,"time":337.2728846666736,"velocity":0.30708661417322836,"duration":0.4517047562500238},{"name":"C#5","midi":73,"time":337.7274303333403,"velocity":0.31496062992125984,"duration":0.4517047562500238},{"name":"C5","midi":72,"time":338.181976000007,"velocity":0.3228346456692913,"duration":0.4517047562500238},{"name":"D#5","midi":75,"time":338.63652166667373,"velocity":0.3228346456692913,"duration":0.4517047562500238},{"name":"A4","midi":69,"time":339.09106733334045,"velocity":0.31496062992125984,"duration":0.4517047562500238},{"name":"C5","midi":72,"time":339.54561300000717,"velocity":0.30708661417322836,"duration":0.4517047562500238},{"name":"F#4","midi":66,"time":340.0001586666739,"velocity":0.30708661417322836,"duration":0.4517047562500238},{"name":"A4","midi":69,"time":340.4547043333406,"velocity":0.2992125984251969,"duration":0.4517047562500238},{"name":"D#4","midi":63,"time":340.9092500000073,"velocity":0.29133858267716534,"duration":0.4517047562500238},{"name":"F#4","midi":66,"time":341.36379566667404,"velocity":0.29133858267716534,"duration":0.4517047562500238},{"name":"A3","midi":57,"time":341.81834133334075,"velocity":0.28346456692913385,"duration":0.9062504229166848},{"name":"C4","midi":60,"time":342.2728870000074,"velocity":0.2755905511811024,"duration":1.3607960895834594},{"name":"G#3","midi":56,"time":342.72743266667413,"velocity":0.2755905511811024,"duration":0.4517047562500238},{"name":"F#3","midi":54,"time":343.18197833334085,"velocity":0.2677165354330709,"duration":0.4517047562500238},{"name":"E3","midi":52,"time":343.63652400000757,"velocity":0.25984251968503935,"duration":0.4517047562500238},{"name":"C#4","midi":61,"time":343.63652400000757,"velocity":0.25984251968503935,"duration":1.3607960895834594},{"name":"E4","midi":64,"time":344.0910696666743,"velocity":0.25984251968503935,"duration":1.8153417562501772},{"name":"C#4","midi":61,"time":344.545615333341,"velocity":0.2677165354330709,"duration":10.451709422917759},{"name":"G#4","midi":68,"time":345.0001610000077,"velocity":0.2755905511811024,"duration":0.4517047562500238},{"name":"E4","midi":64,"time":345.45470666667444,"velocity":0.2755905511811024,"duration":10.906255089584477},{"name":"C#5","midi":73,"time":345.90925233334116,"velocity":0.28346456692913385,"duration":0.4517047562500238},{"name":"G#4","midi":68,"time":346.3637980000079,"velocity":0.29133858267716534,"duration":0.4517047562500238},{"name":"E5","midi":76,"time":346.8183436666746,"velocity":0.29133858267716534,"duration":0.4517047562500238},{"name":"C#5","midi":73,"time":347.2728893333413,"velocity":0.2992125984251969,"duration":0.4517047562500238},{"name":"G#5","midi":80,"time":347.72743500000803,"velocity":0.30708661417322836,"duration":0.4517047562500238},{"name":"E5","midi":76,"time":348.18198066667475,"velocity":0.30708661417322836,"duration":0.4517047562500238},{"name":"C#5","midi":73,"time":348.63652633334146,"velocity":0.31496062992125984,"duration":0.4517047562500238},{"name":"C5","midi":72,"time":349.0910720000082,"velocity":0.3228346456692913,"duration":0.4517047562500238},{"name":"D#5","midi":75,"time":349.5456176666749,"velocity":0.3228346456692913,"duration":0.4517047562500238},{"name":"A4","midi":69,"time":350.0001633333416,"velocity":0.31496062992125984,"duration":0.4517047562500238},{"name":"C5","midi":72,"time":350.45470900000834,"velocity":0.30708661417322836,"duration":0.4517047562500238},{"name":"F#4","midi":66,"time":350.90925466667505,"velocity":0.30708661417322836,"duration":0.4517047562500238},{"name":"A4","midi":69,"time":351.36380033334177,"velocity":0.2992125984251969,"duration":0.4517047562500238},{"name":"D#4","midi":63,"time":351.8183460000085,"velocity":0.29133858267716534,"duration":0.4517047562500238},{"name":"F#4","midi":66,"time":352.2728916666752,"velocity":0.29133858267716534,"duration":0.4517047562500238},{"name":"A3","midi":57,"time":352.7274373333419,"velocity":0.28346456692913385,"duration":0.9062504229166848},{"name":"C4","midi":60,"time":353.1819830000086,"velocity":0.2755905511811024,"duration":1.3607960895834594},{"name":"G#3","midi":56,"time":353.6365286666753,"velocity":0.2755905511811024,"duration":0.4517047562500238},{"name":"F#3","midi":54,"time":354.091074333342,"velocity":0.2677165354330709,"duration":0.4517047562500238},{"name":"E3","midi":52,"time":354.54562000000874,"velocity":0.25984251968503935,"duration":0.4517047562500238},{"name":"C#4","midi":61,"time":354.54562000000874,"velocity":0.25984251968503935,"duration":1.3607960895834594},{"name":"G#3","midi":56,"time":355.00016566667546,"velocity":0.25984251968503935,"duration":0.4517047562500238},{"name":"C#4","midi":61,"time":355.4547113333422,"velocity":0.25984251968503935,"duration":1.3607960895834594},{"name":"E4","midi":64,"time":355.9092570000089,"velocity":0.25984251968503935,"duration":0},{"name":"C#4","midi":61,"time":356.3638026666756,"velocity":0.25984251968503935,"duration":2.724433089583556},{"name":"G#3","midi":56,"time":356.8183483333423,"velocity":0.25984251968503935,"duration":0.4517047562500238},{"name":"E3","midi":52,"time":357.7274396666757,"velocity":0.25984251968503935,"duration":0.4517047562500238},{"name":"G#3","midi":56,"time":358.1819853333424,"velocity":0.25984251968503935,"duration":0.4517047562500238},{"name":"C#4","midi":61,"time":358.63653100000914,"velocity":0.25984251968503935,"duration":12.26989208958372},{"name":"G#3","midi":56,"time":359.09107666667586,"velocity":0.25984251968503935,"duration":0.4517047562500238},{"name":"E3","midi":52,"time":359.5456223333426,"velocity":0.25984251968503935,"duration":0.4517047562500238},{"name":"C#3","midi":49,"time":360.45471366667596,"velocity":0.25984251968503935,"duration":0.4517047562500238},{"name":"E3","midi":52,"time":360.9092593333427,"velocity":0.25984251968503935,"duration":0.4517047562500238},{"name":"G#3","midi":56,"time":361.3638050000094,"velocity":0.25984251968503935,"duration":0.4517047562500238},{"name":"E3","midi":52,"time":361.8183506666761,"velocity":0.25984251968503935,"duration":0.4517047562500238},{"name":"C#3","midi":49,"time":362.2728963333428,"velocity":0.25984251968503935,"duration":0.4517047562500238},{"name":"C#4","midi":61,"time":368.18199000000953,"velocity":0.25984251968503935,"duration":8.178981089583374},{"name":"E3","midi":52,"time":368.18199000000953,"velocity":0.25984251968503935,"duration":2.7244330895833286},{"name":"G#3","midi":56,"time":368.18199000000953,"velocity":0.25984251968503935,"duration":2.7244330895833286},{"name":"C#4","midi":61,"time":370.90926400000956,"velocity":0.25984251968503935,"duration":0},{"name":"E3","midi":52,"time":370.90926400000956,"velocity":0.25984251968503935,"duration":5.451707089583351},{"name":"G#3","midi":56,"time":370.90926400000956,"velocity":0.25984251968503935,"duration":5.451707089583351}]},{"instrument_number":-1,"notes":[{"name":"C#2","midi":37,"time":0,"velocity":0.25984251968503935,"duration":5.4517070895833335},{"name":"C#3","midi":49,"time":0,"velocity":0.25984251968503935,"duration":5.4517070895833335},{"name":"B1","midi":35,"time":5.454548,"velocity":0.25984251968503935,"duration":5.451707089583333},{"name":"B2","midi":47,"time":5.454548,"velocity":0.25984251968503935,"duration":5.451707089583333},{"name":"A1","midi":33,"time":10.909096,"velocity":0.25984251968503935,"duration":2.724433089583334},{"name":"A2","midi":45,"time":10.909096,"velocity":0.25984251968503935,"duration":2.724433089583334},{"name":"F#1","midi":30,"time":13.636370000000001,"velocity":0.25984251968503935,"duration":2.724433089583334},{"name":"F#2","midi":42,"time":13.636370000000001,"velocity":0.25984251968503935,"duration":2.724433089583334},{"name":"G#1","midi":32,"time":16.363644,"velocity":0.25984251968503935,"duration":2.724433089583332},{"name":"G#2","midi":44,"time":16.363644,"velocity":0.25984251968503935,"duration":2.724433089583332},{"name":"G#1","midi":32,"time":19.090918,"velocity":0.25984251968503935,"duration":2.724433089583332},{"name":"G#2","midi":44,"time":19.090918,"velocity":0.25984251968503935,"duration":2.724433089583332},{"name":"C#2","midi":37,"time":21.818191999999996,"velocity":0.25984251968503935,"duration":5.4517070895833335},{"name":"G#2","midi":44,"time":21.818191999999996,"velocity":0.25984251968503935,"duration":5.4517070895833335},{"name":"C#3","midi":49,"time":21.818191999999996,"velocity":0.25984251968503935,"duration":5.4517070895833335},{"name":"C2","midi":36,"time":27.272739999999995,"velocity":0.25984251968503935,"duration":5.4517070895833335},{"name":"G#2","midi":44,"time":27.272739999999995,"velocity":0.25984251968503935,"duration":5.4517070895833335},{"name":"C3","midi":48,"time":27.272739999999995,"velocity":0.25984251968503935,"duration":5.4517070895833335},{"name":"C#2","midi":37,"time":32.727287999999994,"velocity":0.25984251968503935,"duration":2.7244330895833357},{"name":"C#3","midi":49,"time":32.727287999999994,"velocity":0.25984251968503935,"duration":2.7244330895833357},{"name":"F#1","midi":30,"time":35.454561999999996,"velocity":0.25984251968503935,"duration":2.7244330895833357},{"name":"F#2","midi":42,"time":35.454561999999996,"velocity":0.25984251968503935,"duration":2.7244330895833357},{"name":"B1","midi":35,"time":38.181836,"velocity":0.25984251968503935,"duration":2.7244330895833357},{"name":"B2","midi":47,"time":38.181836,"velocity":0.25984251968503935,"duration":2.7244330895833357},{"name":"B1","midi":35,"time":40.90911,"velocity":0.25984251968503935,"duration":2.7244330895833357},{"name":"B2","midi":47,"time":40.90911,"velocity":0.25984251968503935,"duration":2.7244330895833357},{"name":"E2","midi":40,"time":43.636384,"velocity":0.25984251968503935,"duration":5.45170708958333},{"name":"E3","midi":52,"time":43.636384,"velocity":0.25984251968503935,"duration":5.45170708958333},{"name":"E2","midi":40,"time":49.090931999999995,"velocity":0.25984251968503935,"duration":5.451707089583337},{"name":"E3","midi":52,"time":49.090931999999995,"velocity":0.25984251968503935,"duration":5.451707089583337},{"name":"D2","midi":38,"time":54.54548,"velocity":0.25984251968503935,"duration":5.451707089583337},{"name":"D3","midi":50,"time":54.54548,"velocity":0.25984251968503935,"duration":5.451707089583337},{"name":"C2","midi":36,"time":60.000028,"velocity":0.25984251968503935,"duration":1.3607960895833315},{"name":"C3","midi":48,"time":60.000028,"velocity":0.25984251968503935,"duration":1.3607960895833315},{"name":"B1","midi":35,"time":61.363665,"velocity":0.25984251968503935,"duration":1.3607960895833315},{"name":"B2","midi":47,"time":61.363665,"velocity":0.25984251968503935,"duration":1.3607960895833315},{"name":"A#1","midi":34,"time":62.727301999999995,"velocity":0.25984251968503935,"duration":2.7244330895833286},{"name":"A#2","midi":46,"time":62.727301999999995,"velocity":0.25984251968503935,"duration":2.7244330895833286},{"name":"B1","midi":35,"time":65.45457599999999,"velocity":0.25984251968503935,"duration":2.7244330895833286},{"name":"B2","midi":47,"time":65.45457599999999,"velocity":0.25984251968503935,"duration":2.7244330895833286},{"name":"E2","midi":40,"time":68.18184999999998,"velocity":0.25984251968503935,"duration":1.3607960895833315},{"name":"G2","midi":43,"time":69.54548699999998,"velocity":0.25984251968503935,"duration":1.3607960895833315},{"name":"F#2","midi":42,"time":70.90912399999998,"velocity":0.25984251968503935,"duration":2.7244330895833286},{"name":"F#1","midi":30,"time":73.63639799999997,"velocity":0.25984251968503935,"duration":2.7244330895833286},{"name":"F#2","midi":42,"time":73.63639799999997,"velocity":0.25984251968503935,"duration":2.7244330895833286},{"name":"B1","midi":35,"time":76.36367199999997,"velocity":0.25984251968503935,"duration":6.815344089583334},{"name":"B2","midi":47,"time":76.36367199999997,"velocity":0.25984251968503935,"duration":6.815344089583334},{"name":"E2","midi":40,"time":83.18185699999997,"velocity":0.29133858267716534,"duration":1.3607960895833315},{"name":"E3","midi":52,"time":83.18185699999997,"velocity":0.29133858267716534,"duration":1.3607960895833315},{"name":"G2","midi":43,"time":84.54549399999996,"velocity":0.3228346456692913,"duration":1.3607960895833315},{"name":"G3","midi":55,"time":84.54549399999996,"velocity":0.3228346456692913,"duration":1.3607960895833315},{"name":"E2","midi":40,"time":85.90913099999996,"velocity":0.29133858267716534,"duration":1.3607960895833315},{"name":"E3","midi":52,"time":85.90913099999996,"velocity":0.29133858267716534,"duration":1.3607960895833315},{"name":"B1","midi":35,"time":87.27276799999996,"velocity":0.25984251968503935,"duration":6.815344089583334},{"name":"B2","midi":47,"time":87.27276799999996,"velocity":0.25984251968503935,"duration":6.815344089583334},{"name":"E2","midi":40,"time":94.09095299999996,"velocity":0.29133858267716534,"duration":1.3607960895833315},{"name":"E3","midi":52,"time":94.09095299999996,"velocity":0.29133858267716534,"duration":1.3607960895833315},{"name":"G2","midi":43,"time":95.45458999999995,"velocity":0.3228346456692913,"duration":1.3607960895833315},{"name":"G3","midi":55,"time":95.45458999999995,"velocity":0.3228346456692913,"duration":1.3607960895833315},{"name":"E2","midi":40,"time":96.81822699999995,"velocity":0.29133858267716534,"duration":1.3607960895833315},{"name":"E3","midi":52,"time":96.81822699999995,"velocity":0.29133858267716534,"duration":1.3607960895833315},{"name":"B1","midi":35,"time":98.18186399999995,"velocity":0.25984251968503935,"duration":2.7244330895833286},{"name":"B2","midi":47,"time":98.18186399999995,"velocity":0.25984251968503935,"duration":2.7244330895833286},{"name":"G#1","midi":32,"time":100.90913799999994,"velocity":0.25984251968503935,"duration":2.7244330895833286},{"name":"G#2","midi":44,"time":100.90913799999994,"velocity":0.25984251968503935,"duration":2.7244330895833286},{"name":"F1","midi":29,"time":103.63641199999994,"velocity":0.25984251968503935,"duration":2.7244330895833286},{"name":"F2","midi":41,"time":103.63641199999994,"velocity":0.25984251968503935,"duration":2.7244330895833286},{"name":"F#1","midi":30,"time":106.36368599999993,"velocity":0.25984251968503935,"duration":2.7244330895833286},{"name":"F#2","midi":42,"time":106.36368599999993,"velocity":0.25984251968503935,"duration":2.7244330895833286},{"name":"B1","midi":35,"time":109.09095999999992,"velocity":0.25984251968503935,"duration":2.7244330895833286},{"name":"B2","midi":47,"time":109.09095999999992,"velocity":0.25984251968503935,"duration":2.7244330895833286},{"name":"C2","midi":36,"time":111.81823399999992,"velocity":0.25984251968503935,"duration":2.7244330895833286},{"name":"C3","midi":48,"time":111.81823399999992,"velocity":0.25984251968503935,"duration":2.7244330895833286},{"name":"C#2","midi":37,"time":114.54550799999991,"velocity":0.25984251968503935,"duration":2.7244330895833286},{"name":"C#2","midi":37,"time":117.2727819999999,"velocity":0.25984251968503935,"duration":2.7244330895833286},{"name":"F#1","midi":30,"time":120.0000559999999,"velocity":0.25984251968503935,"duration":5.451707089583337},{"name":"C#2","midi":37,"time":120.0000559999999,"velocity":0.25984251968503935,"duration":5.451707089583337},{"name":"F#2","midi":42,"time":120.0000559999999,"velocity":0.25984251968503935,"duration":5.451707089583337},{"name":"F2","midi":41,"time":125.4546039999999,"velocity":0.25984251968503935,"duration":5.451707089583323},{"name":"C#3","midi":49,"time":125.4546039999999,"velocity":0.25984251968503935,"duration":5.451707089583323},{"name":"F3","midi":53,"time":125.4546039999999,"velocity":0.25984251968503935,"duration":5.451707089583323},{"name":"F#2","midi":42,"time":130.9091519999999,"velocity":0.25984251968503935,"duration":2.7244330895833286},{"name":"F#3","midi":54,"time":130.9091519999999,"velocity":0.25984251968503935,"duration":2.7244330895833286},{"name":"D#2","midi":39,"time":133.6364259999999,"velocity":0.31496062992125984,"duration":1.3607960895833457},{"name":"D#3","midi":51,"time":133.6364259999999,"velocity":0.31496062992125984,"duration":1.3607960895833457},{"name":"C#2","midi":37,"time":135.0000629999999,"velocity":0.3464566929133858,"duration":1.3607960895833457},{"name":"C#3","midi":49,"time":135.0000629999999,"velocity":0.3464566929133858,"duration":1.3607960895833457},{"name":"C2","midi":36,"time":136.3636999999999,"velocity":0.3779527559055118,"duration":4.08807008958334},{"name":"G#2","midi":44,"time":136.3636999999999,"velocity":0.3779527559055118,"duration":4.08807008958334},{"name":"C3","midi":48,"time":136.3636999999999,"velocity":0.3779527559055118,"duration":4.08807008958334},{"name":"C2","midi":36,"time":140.45461099999991,"velocity":0.47244094488188976,"duration":1.3607960895833457},{"name":"G#2","midi":44,"time":140.45461099999991,"velocity":0.47244094488188976,"duration":1.3607960895833457},{"name":"C3","midi":48,"time":140.45461099999991,"velocity":0.47244094488188976,"duration":1.3607960895833457},{"name":"C#2","midi":37,"time":141.81824799999993,"velocity":0.5039370078740157,"duration":2.7244330895833286},{"name":"G#2","midi":44,"time":141.81824799999993,"velocity":0.5039370078740157,"duration":2.7244330895833286},{"name":"C#3","midi":49,"time":141.81824799999993,"velocity":0.5039370078740157,"duration":2.7244330895833286},{"name":"F#1","midi":30,"time":144.54552199999992,"velocity":0.44881889763779526,"duration":1.3607960895833457},{"name":"F#2","midi":42,"time":144.54552199999992,"velocity":0.44881889763779526,"duration":1.3607960895833457},{"name":"G1","midi":31,"time":145.90915899999993,"velocity":0.41732283464566927,"duration":1.3607960895833457},{"name":"G2","midi":43,"time":145.90915899999993,"velocity":0.41732283464566927,"duration":1.3607960895833457},{"name":"G#1","midi":32,"time":147.27279599999994,"velocity":0.3858267716535433,"duration":5.451707089583323},{"name":"G#2","midi":44,"time":147.27279599999994,"velocity":0.3858267716535433,"duration":5.451707089583323},{"name":"G#1","midi":32,"time":152.72734399999993,"velocity":0.3858267716535433,"duration":5.451707089583323},{"name":"G#2","midi":44,"time":152.72734399999993,"velocity":0.3858267716535433,"duration":5.451707089583323},{"name":"G#1","midi":32,"time":158.18189199999992,"velocity":0.3858267716535433,"duration":5.451707089583323},{"name":"G#2","midi":44,"time":158.18189199999992,"velocity":0.3858267716535433,"duration":5.451707089583323},{"name":"G#1","midi":32,"time":163.6364399999999,"velocity":0.3858267716535433,"duration":5.451707089583323},{"name":"G#2","midi":44,"time":163.6364399999999,"velocity":0.3858267716535433,"duration":5.451707089583323},{"name":"G#1","midi":32,"time":169.0909879999999,"velocity":0.3858267716535433,"duration":5.451707089583323},{"name":"G#2","midi":44,"time":169.0909879999999,"velocity":0.3858267716535433,"duration":5.451707089583323},{"name":"G#1","midi":32,"time":174.54553599999988,"velocity":0.3858267716535433,"duration":5.451707089583323},{"name":"G#2","midi":44,"time":174.54553599999988,"velocity":0.3858267716535433,"duration":5.451707089583323},{"name":"G#1","midi":32,"time":180.00008399999987,"velocity":0.3858267716535433,"duration":5.451707089583323},{"name":"G#2","midi":44,"time":180.00008399999987,"velocity":0.3858267716535433,"duration":5.451707089583323},{"name":"G#1","midi":32,"time":185.45463199999986,"velocity":0.3858267716535433,"duration":16.360803089583328},{"name":"G#2","midi":44,"time":185.45463199999986,"velocity":0.3858267716535433,"duration":16.360803089583328},{"name":"G#1","midi":32,"time":201.81827599999986,"velocity":0.3858267716535433,"duration":5.451707089583323},{"name":"G#2","midi":44,"time":201.81827599999986,"velocity":0.3858267716535433,"duration":5.451707089583323},{"name":"G#1","midi":32,"time":207.27282399999984,"velocity":0.3858267716535433,"duration":5.451707089583323},{"name":"G#2","midi":44,"time":207.27282399999984,"velocity":0.3858267716535433,"duration":5.451707089583323},{"name":"G#1","midi":32,"time":212.72737199999983,"velocity":0.3858267716535433,"duration":2.7244330895833286},{"name":"G#2","midi":44,"time":212.72737199999983,"velocity":0.3858267716535433,"duration":2.7244330895833286},{"name":"A1","midi":33,"time":215.45464599999983,"velocity":0.3543307086614173,"duration":2.7244330895833286},{"name":"A2","midi":45,"time":215.45464599999983,"velocity":0.3543307086614173,"duration":2.7244330895833286},{"name":"F#1","midi":30,"time":218.18191999999982,"velocity":0.3228346456692913,"duration":2.7244330895833286},{"name":"F#2","midi":42,"time":218.18191999999982,"velocity":0.3228346456692913,"duration":2.7244330895833286},{"name":"G#1","midi":32,"time":220.90919399999981,"velocity":0.29133858267716534,"duration":2.7244330895833286},{"name":"G#2","midi":44,"time":220.90919399999981,"velocity":0.29133858267716534,"duration":2.7244330895833286},{"name":"C#2","midi":37,"time":223.6364679999998,"velocity":0.25984251968503935,"duration":5.451707089583323},{"name":"G#2","midi":44,"time":223.6364679999998,"velocity":0.25984251968503935,"duration":5.451707089583323},{"name":"C#3","midi":49,"time":223.6364679999998,"velocity":0.25984251968503935,"duration":5.451707089583323},{"name":"C2","midi":36,"time":229.0910159999998,"velocity":0.25984251968503935,"duration":5.451707089583323},{"name":"G#2","midi":44,"time":229.0910159999998,"velocity":0.25984251968503935,"duration":5.451707089583323},{"name":"C3","midi":48,"time":229.0910159999998,"velocity":0.25984251968503935,"duration":5.451707089583323},{"name":"C#2","midi":37,"time":234.54556399999979,"velocity":0.25984251968503935,"duration":2.7244330895833286},{"name":"C#3","midi":49,"time":234.54556399999979,"velocity":0.25984251968503935,"duration":2.7244330895833286},{"name":"F#1","midi":30,"time":237.27283799999978,"velocity":0.25984251968503935,"duration":2.7244330895833286},{"name":"F#2","midi":42,"time":237.27283799999978,"velocity":0.25984251968503935,"duration":2.7244330895833286},{"name":"B1","midi":35,"time":240.00011199999977,"velocity":0.25984251968503935,"duration":2.7244330895833286},{"name":"B2","midi":47,"time":240.00011199999977,"velocity":0.25984251968503935,"duration":2.7244330895833286},{"name":"B1","midi":35,"time":242.72738599999977,"velocity":0.25984251968503935,"duration":2.7244330895833286},{"name":"B2","midi":47,"time":242.72738599999977,"velocity":0.25984251968503935,"duration":2.7244330895833286},{"name":"E2","midi":40,"time":245.45465999999976,"velocity":0.25984251968503935,"duration":5.451707089583323},{"name":"E3","midi":52,"time":245.45465999999976,"velocity":0.25984251968503935,"duration":5.451707089583323},{"name":"D#2","midi":39,"time":250.90920799999975,"velocity":0.25984251968503935,"duration":5.451707089583351},{"name":"D#3","midi":51,"time":250.90920799999975,"velocity":0.25984251968503935,"duration":5.451707089583351},{"name":"E2","midi":40,"time":256.3637559999998,"velocity":0.25984251968503935,"duration":2.7244330895833286},{"name":"E3","midi":52,"time":256.3637559999998,"velocity":0.25984251968503935,"duration":2.7244330895833286},{"name":"D#2","midi":39,"time":259.0910299999998,"velocity":0.3228346456692913,"duration":1.3607960895833457},{"name":"D#3","midi":51,"time":259.0910299999998,"velocity":0.3228346456692913,"duration":1.3607960895833457},{"name":"C#2","midi":37,"time":260.45466699999986,"velocity":0.3543307086614173,"duration":1.3607960895833457},{"name":"C#3","midi":49,"time":260.45466699999986,"velocity":0.3543307086614173,"duration":1.3607960895833457},{"name":"C2","midi":36,"time":261.8183039999999,"velocity":0.3858267716535433,"duration":2.7244330895833286},{"name":"G#2","midi":44,"time":261.8183039999999,"velocity":0.3858267716535433,"duration":2.7244330895833286},{"name":"C3","midi":48,"time":261.8183039999999,"velocity":0.3858267716535433,"duration":2.7244330895833286},{"name":"C#2","midi":37,"time":264.5455779999999,"velocity":0.3858267716535433,"duration":2.7244330895833286},{"name":"G#2","midi":44,"time":264.5455779999999,"velocity":0.3858267716535433,"duration":2.7244330895833286},{"name":"C#3","midi":49,"time":264.5455779999999,"velocity":0.3858267716535433,"duration":2.7244330895833286},{"name":"F#1","midi":30,"time":267.27285199999994,"velocity":0.3858267716535433,"duration":2.7244330895833286},{"name":"F#2","midi":42,"time":267.27285199999994,"velocity":0.3858267716535433,"duration":2.7244330895833286},{"name":"G#1","midi":32,"time":270.00012599999997,"velocity":0.3858267716535433,"duration":2.7244330895833286},{"name":"G#2","midi":44,"time":270.00012599999997,"velocity":0.3858267716535433,"duration":2.7244330895833286},{"name":"C#2","midi":37,"time":272.7274,"velocity":0.3858267716535433,"duration":6.815344089583334},{"name":"C#3","midi":49,"time":272.7274,"velocity":0.3858267716535433,"duration":6.815344089583334},{"name":"F#2","midi":42,"time":279.545585,"velocity":0.4251968503937008,"duration":1.3607960895833457},{"name":"F#3","midi":54,"time":279.545585,"velocity":0.4251968503937008,"duration":1.3607960895833457},{"name":"A2","midi":45,"time":280.90922200000006,"velocity":0.47244094488188976,"duration":1.3607960895833457},{"name":"A3","midi":57,"time":280.90922200000006,"velocity":0.47244094488188976,"duration":1.3607960895833457},{"name":"F#2","midi":42,"time":282.2728590000001,"velocity":0.4409448818897638,"duration":1.3607960895833457},{"name":"F#3","midi":54,"time":282.2728590000001,"velocity":0.4409448818897638,"duration":1.3607960895833457},{"name":"C#2","midi":37,"time":283.63649600000014,"velocity":0.3858267716535433,"duration":6.815344089583334},{"name":"C#3","midi":49,"time":283.63649600000014,"velocity":0.3858267716535433,"duration":6.815344089583334},{"name":"F#2","midi":42,"time":290.45468100000016,"velocity":0.4251968503937008,"duration":1.3607960895833457},{"name":"F#3","midi":54,"time":290.45468100000016,"velocity":0.4251968503937008,"duration":1.3607960895833457},{"name":"A2","midi":45,"time":291.8183180000002,"velocity":0.47244094488188976,"duration":1.3607960895833457},{"name":"A3","midi":57,"time":291.8183180000002,"velocity":0.47244094488188976,"duration":1.3607960895833457},{"name":"F#2","midi":42,"time":293.18195500000024,"velocity":0.3858267716535433,"duration":1.3607960895833457},{"name":"F#3","midi":54,"time":293.18195500000024,"velocity":0.3858267716535433,"duration":1.3607960895833457},{"name":"C#2","midi":37,"time":294.5455920000003,"velocity":0.3858267716535433,"duration":2.7244330895833286},{"name":"C#3","midi":49,"time":294.5455920000003,"velocity":0.3858267716535433,"duration":2.7244330895833286},{"name":"F#1","midi":30,"time":297.2728660000003,"velocity":0.3858267716535433,"duration":2.7244330895833286},{"name":"F#2","midi":42,"time":297.2728660000003,"velocity":0.3858267716535433,"duration":2.7244330895833286},{"name":"D#2","midi":39,"time":300.00014000000033,"velocity":0.3858267716535433,"duration":4.0880700895833115},{"name":"D#3","midi":51,"time":300.00014000000033,"velocity":0.3858267716535433,"duration":4.0880700895833115},{"name":"E2","midi":40,"time":304.09105100000033,"velocity":0.3858267716535433,"duration":1.3607960895833457},{"name":"E3","midi":52,"time":304.09105100000033,"velocity":0.3858267716535433,"duration":1.3607960895833457},{"name":"C#2","midi":37,"time":305.4546880000004,"velocity":0.3858267716535433,"duration":1.3607960895833457},{"name":"C#3","midi":49,"time":305.4546880000004,"velocity":0.3858267716535433,"duration":1.3607960895833457},{"name":"D#2","midi":39,"time":306.8183250000004,"velocity":0.3858267716535433,"duration":1.3607960895833457},{"name":"D#3","midi":51,"time":306.8183250000004,"velocity":0.3858267716535433,"duration":1.3607960895833457},{"name":"C2","midi":36,"time":308.18196200000045,"velocity":0.3858267716535433,"duration":1.3607960895833457},{"name":"C3","midi":48,"time":308.18196200000045,"velocity":0.3858267716535433,"duration":1.3607960895833457},{"name":"C#2","midi":37,"time":309.5455990000005,"velocity":0.3858267716535433,"duration":1.3607960895833457},{"name":"C#3","midi":49,"time":309.5455990000005,"velocity":0.3858267716535433,"duration":1.3607960895833457},{"name":"A1","midi":33,"time":310.90923600000053,"velocity":0.3858267716535433,"duration":2.7244330895833286},{"name":"A2","midi":45,"time":310.90923600000053,"velocity":0.3858267716535433,"duration":2.7244330895833286},{"name":"G#1","midi":32,"time":313.63651000000056,"velocity":0.3858267716535433,"duration":1.3607960895833457},{"name":"G#2","midi":44,"time":313.63651000000056,"velocity":0.3858267716535433,"duration":1.3607960895833457},{"name":"F#1","midi":30,"time":315.0001470000006,"velocity":0.3858267716535433,"duration":1.3607960895833457},{"name":"F#2","midi":42,"time":315.0001470000006,"velocity":0.3858267716535433,"duration":1.3607960895833457},{"name":"G#1","midi":32,"time":316.36378400000063,"velocity":0.3858267716535433,"duration":2.7244330895833286},{"name":"G#2","midi":44,"time":316.36378400000063,"velocity":0.3858267716535433,"duration":2.7244330895833286},{"name":"G#1","midi":32,"time":319.09105800000066,"velocity":0.3858267716535433,"duration":2.7244330895833286},{"name":"G#2","midi":44,"time":319.09105800000066,"velocity":0.3858267716535433,"duration":2.7244330895833286},{"name":"G#2","midi":44,"time":321.8183320000007,"velocity":0.25984251968503935,"duration":4.0880700895833115},{"name":"C#2","midi":37,"time":321.8183320000007,"velocity":0.25984251968503935,"duration":5.451707089583351},{"name":"G#2","midi":44,"time":325.9092430000007,"velocity":0.25984251968503935,"duration":1.0198868395833074},{"name":"G#2","midi":44,"time":326.9319707500007,"velocity":0.25984251968503935,"duration":0.33806833958334437},{"name":"G#2","midi":44,"time":327.2728800000007,"velocity":0.25984251968503935,"duration":4.0880700895833115},{"name":"C2","midi":36,"time":327.2728800000007,"velocity":0.25984251968503935,"duration":5.451707089583351},{"name":"G#2","midi":44,"time":331.36379100000073,"velocity":0.25984251968503935,"duration":1.0198868395833074},{"name":"G#2","midi":44,"time":332.38651875000073,"velocity":0.25984251968503935,"duration":0.33806833958334437},{"name":"G#2","midi":44,"time":332.72742800000077,"velocity":0.25984251968503935,"duration":4.0880700895833115},{"name":"C#2","midi":37,"time":332.72742800000077,"velocity":0.25984251968503935,"duration":5.451707089583351},{"name":"G#2","midi":44,"time":336.8183390000008,"velocity":0.30708661417322836,"duration":1.0198868395833074},{"name":"G#2","midi":44,"time":337.8410667500008,"velocity":0.31496062992125984,"duration":0.33806833958334437},{"name":"G#2","midi":44,"time":338.1819760000008,"velocity":0.3228346456692913,"duration":4.0880700895833115},{"name":"G#1","midi":32,"time":338.1819760000008,"velocity":0.3228346456692913,"duration":5.451707089583351},{"name":"G#2","midi":44,"time":342.2728870000008,"velocity":0.2755905511811024,"duration":1.0198868395833074},{"name":"G#2","midi":44,"time":343.2956147500008,"velocity":0.2677165354330709,"duration":0.33806833958334437},{"name":"G#2","midi":44,"time":343.63652400000086,"velocity":0.25984251968503935,"duration":4.0880700895833115},{"name":"C#2","midi":37,"time":343.63652400000086,"velocity":0.25984251968503935,"duration":5.451707089583351},{"name":"G#2","midi":44,"time":347.72743500000087,"velocity":0.30708661417322836,"duration":1.0198868395833074},{"name":"G#2","midi":44,"time":348.75016275000087,"velocity":0.31496062992125984,"duration":0.33806833958334437},{"name":"G#2","midi":44,"time":349.0910720000009,"velocity":0.3228346456692913,"duration":4.0880700895833115},{"name":"G#1","midi":32,"time":349.0910720000009,"velocity":0.3228346456692913,"duration":5.451707089583351},{"name":"G#2","midi":44,"time":353.1819830000009,"velocity":0.2755905511811024,"duration":1.0198868395833074},{"name":"G#2","midi":44,"time":354.2047107500009,"velocity":0.2677165354330709,"duration":0.33806833958334437},{"name":"G#2","midi":44,"time":354.54562000000095,"velocity":0.25984251968503935,"duration":2.7244330895833286},{"name":"C#2","midi":37,"time":354.54562000000095,"velocity":0.25984251968503935,"duration":8.178981089583374},{"name":"C#3","midi":49,"time":357.272894000001,"velocity":0.25984251968503935,"duration":2.7244330895833286},{"name":"G#2","midi":44,"time":360.000168000001,"velocity":0.25984251968503935,"duration":2.7244330895833286},{"name":"G#2","midi":44,"time":362.727442000001,"velocity":0.25984251968503935,"duration":0.4517047562500238},{"name":"C#3","midi":49,"time":363.18198766666774,"velocity":0.25984251968503935,"duration":0.4517047562500238},{"name":"G#2","midi":44,"time":363.63653333333446,"velocity":0.25984251968503935,"duration":0.4517047562500238},{"name":"E2","midi":40,"time":364.0910790000012,"velocity":0.25984251968503935,"duration":0.4517047562500238},{"name":"G#2","midi":44,"time":364.5456246666679,"velocity":0.25984251968503935,"duration":0.4517047562500238},{"name":"E2","midi":40,"time":365.0001703333346,"velocity":0.25984251968503935,"duration":0.4517047562500238},{"name":"C#2","midi":37,"time":365.4547160000013,"velocity":0.25984251968503935,"duration":2.7244330895833286},{"name":"C#2","midi":37,"time":368.18199000000135,"velocity":0.25984251968503935,"duration":2.7244330895833286},{"name":"G#2","midi":44,"time":368.18199000000135,"velocity":0.25984251968503935,"duration":2.7244330895833286},{"name":"C#3","midi":49,"time":368.18199000000135,"velocity":0.25984251968503935,"duration":2.7244330895833286},{"name":"C#2","midi":37,"time":370.9092640000014,"velocity":0.25984251968503935,"duration":5.451707089583351},{"name":"G#2","midi":44,"time":370.9092640000014,"velocity":0.25984251968503935,"duration":5.451707089583351},{"name":"C#3","midi":49,"time":370.9092640000014,"velocity":0.25984251968503935,"duration":5.451707089583351}]}]}