{"header":{"title":"Sonate No. 14, \"Moonlight\" 3rd Movement","artist":"Ludwig van Beethoven","source":"https://musescore.com/classicman/scores/33715","bpm":163.9998469334762,"duration":391.0971638041541},"tracks":[{"instrument_number":0,"notes":[{"name":"G#2","midi":44,"time":0.0914635,"velocity":0.3858267716535433,"duration":0.09070130416666669},{"name":"C#3","midi":49,"time":0.18292700000000003,"velocity":0.3858267716535433,"duration":0.09070130416666669},{"name":"E3","midi":52,"time":0.27439050000000004,"velocity":0.3858267716535433,"duration":0.09070130416666666},{"name":"G#3","midi":56,"time":0.365854,"velocity":0.3858267716535433,"duration":0.09070130416666666},{"name":"C#3","midi":49,"time":0.4573175,"velocity":0.3858267716535433,"duration":0.09070130416666672},{"name":"E3","midi":52,"time":0.5487810000000001,"velocity":0.3858267716535433,"duration":0.09070130416666666},{"name":"G#3","midi":56,"time":0.6402445000000001,"velocity":0.3858267716535433,"duration":0.09070130416666666},{"name":"C#4","midi":61,"time":0.7317080000000001,"velocity":0.3858267716535433,"duration":0.09070130416666666},{"name":"E3","midi":52,"time":0.8231715000000002,"velocity":0.3858267716535433,"duration":0.09070130416666666},{"name":"G#3","midi":56,"time":0.9146350000000002,"velocity":0.3858267716535433,"duration":0.09070130416666677},{"name":"C#4","midi":61,"time":1.0060985000000002,"velocity":0.3858267716535433,"duration":0.09070130416666666},{"name":"E4","midi":64,"time":1.0975620000000001,"velocity":0.3858267716535433,"duration":0.09070130416666666},{"name":"G#3","midi":56,"time":1.1890255,"velocity":0.3858267716535433,"duration":0.09070130416666666},{"name":"C#4","midi":61,"time":1.280489,"velocity":0.3858267716535433,"duration":0.09070130416666666},{"name":"E4","midi":64,"time":1.3719525,"velocity":0.3858267716535433,"duration":0.09070130416666666},{"name":"G#4","midi":68,"time":1.4634159999999998,"velocity":0.3858267716535433,"duration":0.09070130416666666},{"name":"C#4","midi":61,"time":1.5548794999999997,"velocity":0.3858267716535433,"duration":0.09070130416666666},{"name":"E4","midi":64,"time":1.6463429999999997,"velocity":0.3858267716535433,"duration":0.09070130416666666},{"name":"G#4","midi":68,"time":1.7378064999999996,"velocity":0.3858267716535433,"duration":0.09070130416666666},{"name":"C#5","midi":73,"time":1.8292699999999995,"velocity":0.3858267716535433,"duration":0.09070130416666666},{"name":"E4","midi":64,"time":1.9207334999999994,"velocity":0.3858267716535433,"duration":0.09070130416666666},{"name":"G#4","midi":68,"time":2.0121969999999996,"velocity":0.3858267716535433,"duration":0.09070130416666666},{"name":"C#5","midi":73,"time":2.1036604999999997,"velocity":0.3858267716535433,"duration":0.09070130416666666},{"name":"E5","midi":76,"time":2.195124,"velocity":0.3858267716535433,"duration":0.09070130416666666},{"name":"G#4","midi":68,"time":2.2865875,"velocity":0.3858267716535433,"duration":0.09070130416666666},{"name":"C#5","midi":73,"time":2.378051,"velocity":0.3858267716535433,"duration":0.09070130416666666},{"name":"E5","midi":76,"time":2.4695145000000003,"velocity":0.3858267716535433,"duration":0.09070130416666666},{"name":"G#4","midi":68,"time":2.5609780000000004,"velocity":0.5039370078740157,"duration":0.09070130416666666},{"name":"C#5","midi":73,"time":2.5609780000000004,"velocity":0.5039370078740157,"duration":0.09070130416666666},{"name":"E5","midi":76,"time":2.5609780000000004,"velocity":0.5039370078740157,"duration":0.09070130416666666},{"name":"G#5","midi":80,"time":2.5609780000000004,"velocity":0.5039370078740157,"duration":0.09070130416666666},{"name":"G#4","midi":68,"time":2.7439050000000003,"velocity":0.3858267716535433,"duration":0.09070130416666666},{"name":"C#5","midi":73,"time":2.7439050000000003,"velocity":0.3858267716535433,"duration":0.09070130416666666},{"name":"E5","midi":76,"time":2.7439050000000003,"velocity":0.3858267716535433,"duration":0.09070130416666666},{"name":"G#5","midi":80,"time":2.7439050000000003,"velocity":0.3858267716535433,"duration":0.09070130416666666},{"name":"G#2","midi":44,"time":3.0182955000000002,"velocity":0.3858267716535433,"duration":0.09070130416666666},{"name":"C3","midi":48,"time":3.1097590000000004,"velocity":0.3858267716535433,"duration":0.09070130416666666},{"name":"D#3","midi":51,"time":3.2012225000000005,"velocity":0.3858267716535433,"duration":0.09070130416666666},{"name":"G#3","midi":56,"time":3.2926860000000007,"velocity":0.3858267716535433,"duration":0.09070130416666666},{"name":"C3","midi":48,"time":3.384149500000001,"velocity":0.3858267716535433,"duration":0.09070130416666666},{"name":"D#3","midi":51,"time":3.475613000000001,"velocity":0.3858267716535433,"duration":0.09070130416666666},{"name":"G#3","midi":56,"time":3.567076500000001,"velocity":0.3858267716535433,"duration":0.09070130416666666},{"name":"C4","midi":60,"time":3.6585400000000012,"velocity":0.3858267716535433,"duration":0.09070130416666666},{"name":"D#3","midi":51,"time":3.7500035000000014,"velocity":0.3858267716535433,"duration":0.09070130416666666},{"name":"G#3","midi":56,"time":3.8414670000000015,"velocity":0.3858267716535433,"duration":0.09070130416666666},{"name":"C4","midi":60,"time":3.9329305000000017,"velocity":0.3858267716535433,"duration":0.09070130416666666},{"name":"D#4","midi":63,"time":4.024394000000002,"velocity":0.3858267716535433,"duration":0.09070130416666711},{"name":"G#3","midi":56,"time":4.115857500000002,"velocity":0.3858267716535433,"duration":0.09070130416666711},{"name":"C4","midi":60,"time":4.207321000000003,"velocity":0.3858267716535433,"duration":0.09070130416666711},{"name":"D#4","midi":63,"time":4.298784500000004,"velocity":0.3858267716535433,"duration":0.09070130416666711},{"name":"G#4","midi":68,"time":4.390248000000004,"velocity":0.3858267716535433,"duration":0.09070130416666711},{"name":"C4","midi":60,"time":4.481711500000005,"velocity":0.3858267716535433,"duration":0.09070130416666711},{"name":"D#4","midi":63,"time":4.573175000000005,"velocity":0.3858267716535433,"duration":0.09070130416666711},{"name":"G#4","midi":68,"time":4.664638500000006,"velocity":0.3858267716535433,"duration":0.09070130416666711},{"name":"C5","midi":72,"time":4.7561020000000065,"velocity":0.3858267716535433,"duration":0.09070130416666711},{"name":"D#4","midi":63,"time":4.847565500000007,"velocity":0.3858267716535433,"duration":0.09070130416666711},{"name":"G#4","midi":68,"time":4.939029000000008,"velocity":0.3858267716535433,"duration":0.09070130416666711},{"name":"C5","midi":72,"time":5.030492500000008,"velocity":0.3858267716535433,"duration":0.09070130416666711},{"name":"D#5","midi":75,"time":5.121956000000009,"velocity":0.3858267716535433,"duration":0.09070130416666711},{"name":"G#4","midi":68,"time":5.213419500000009,"velocity":0.3858267716535433,"duration":0.09070130416666711},{"name":"C5","midi":72,"time":5.30488300000001,"velocity":0.3858267716535433,"duration":0.09070130416666711},{"name":"D#5","midi":75,"time":5.396346500000011,"velocity":0.3858267716535433,"duration":0.09070130416666711},{"name":"G#4","midi":68,"time":5.487810000000011,"velocity":0.5039370078740157,"duration":0.09070130416666711},{"name":"C5","midi":72,"time":5.487810000000011,"velocity":0.5039370078740157,"duration":0.09070130416666711},{"name":"D#5","midi":75,"time":5.487810000000011,"velocity":0.5039370078740157,"duration":0.09070130416666711},{"name":"G#5","midi":80,"time":5.487810000000011,"velocity":0.5039370078740157,"duration":0.09070130416666711},{"name":"G#4","midi":68,"time":5.6707370000000115,"velocity":0.3858267716535433,"duration":0.09070130416666711},{"name":"C5","midi":72,"time":5.6707370000000115,"velocity":0.3858267716535433,"duration":0.09070130416666711},{"name":"D#5","midi":75,"time":5.6707370000000115,"velocity":0.3858267716535433,"duration":0.09070130416666711},{"name":"G#5","midi":80,"time":5.6707370000000115,"velocity":0.3858267716535433,"duration":0.09070130416666711},{"name":"C#3","midi":49,"time":5.945127500000012,"velocity":0.3858267716535433,"duration":0.09070130416666711},{"name":"F3","midi":53,"time":6.036591000000013,"velocity":0.3858267716535433,"duration":0.09070130416666711},{"name":"G#3","midi":56,"time":6.1280545000000135,"velocity":0.3858267716535433,"duration":0.09070130416666711},{"name":"C#4","midi":61,"time":6.219518000000014,"velocity":0.3858267716535433,"duration":0.09070130416666711},{"name":"F3","midi":53,"time":6.310981500000015,"velocity":0.3858267716535433,"duration":0.09070130416666711},{"name":"G#3","midi":56,"time":6.402445000000015,"velocity":0.3858267716535433,"duration":0.09070130416666711},{"name":"C#4","midi":61,"time":6.493908500000016,"velocity":0.3858267716535433,"duration":0.09070130416666711},{"name":"F4","midi":65,"time":6.585372000000016,"velocity":0.3858267716535433,"duration":0.09070130416666711},{"name":"G#3","midi":56,"time":6.676835500000017,"velocity":0.3858267716535433,"duration":0.09070130416666711},{"name":"C#4","midi":61,"time":6.768299000000018,"velocity":0.3858267716535433,"duration":0.09070130416666711},{"name":"F4","midi":65,"time":6.859762500000018,"velocity":0.3858267716535433,"duration":0.09070130416666711},{"name":"G#4","midi":68,"time":6.951226000000019,"velocity":0.3858267716535433,"duration":0.09070130416666711},{"name":"C#4","midi":61,"time":7.042689500000019,"velocity":0.3858267716535433,"duration":0.09070130416666711},{"name":"F4","midi":65,"time":7.13415300000002,"velocity":0.3858267716535433,"duration":0.09070130416666711},{"name":"G#4","midi":68,"time":7.2256165000000205,"velocity":0.3858267716535433,"duration":0.09070130416666711},{"name":"C#5","midi":73,"time":7.317080000000021,"velocity":0.3858267716535433,"duration":0.09070130416666711},{"name":"F4","midi":65,"time":7.408543500000022,"velocity":0.3858267716535433,"duration":0.09070130416666711},{"name":"G#4","midi":68,"time":7.500007000000022,"velocity":0.3858267716535433,"duration":0.09070130416666711},{"name":"C#5","midi":73,"time":7.591470500000023,"velocity":0.3858267716535433,"duration":0.09070130416666711},{"name":"F5","midi":77,"time":7.6829340000000235,"velocity":0.3858267716535433,"duration":0.09070130416666711},{"name":"G#4","midi":68,"time":7.774397500000024,"velocity":0.3858267716535433,"duration":0.09070130416666711},{"name":"C#5","midi":73,"time":7.865861000000025,"velocity":0.3858267716535433,"duration":0.09070130416666711},{"name":"F5","midi":77,"time":7.957324500000025,"velocity":0.3858267716535433,"duration":0.09070130416666622},{"name":"G#5","midi":80,"time":8.048788000000025,"velocity":0.3858267716535433,"duration":0.09070130416666622},{"name":"C#5","midi":73,"time":8.140251500000025,"velocity":0.3858267716535433,"duration":0.09070130416666622},{"name":"F5","midi":77,"time":8.231715000000024,"velocity":0.3858267716535433,"duration":0.09070130416666622},{"name":"G#5","midi":80,"time":8.323178500000024,"velocity":0.3858267716535433,"duration":0.09070130416666622},{"name":"C#5","midi":73,"time":8.414642000000024,"velocity":0.5039370078740157,"duration":0.09070130416666622},{"name":"F5","midi":77,"time":8.414642000000024,"velocity":0.5039370078740157,"duration":0.09070130416666622},{"name":"G#5","midi":80,"time":8.414642000000024,"velocity":0.5039370078740157,"duration":0.09070130416666622},{"name":"C#6","midi":85,"time":8.414642000000024,"velocity":0.5039370078740157,"duration":0.09070130416666622},{"name":"C#5","midi":73,"time":8.597569000000023,"velocity":0.3858267716535433,"duration":0.09070130416666622},{"name":"F5","midi":77,"time":8.597569000000023,"velocity":0.3858267716535433,"duration":0.09070130416666622},{"name":"G#5","midi":80,"time":8.597569000000023,"velocity":0.3858267716535433,"duration":0.09070130416666622},{"name":"C#6","midi":85,"time":8.597569000000023,"velocity":0.3858267716535433,"duration":0.09070130416666622},{"name":"C#3","midi":49,"time":8.871959500000022,"velocity":0.3858267716535433,"duration":0.09070130416666622},{"name":"F#3","midi":54,"time":8.963423000000022,"velocity":0.4094488188976378,"duration":0.09070130416666622},{"name":"A3","midi":57,"time":9.054886500000022,"velocity":0.4251968503937008,"duration":0.09070130416666622},{"name":"C#4","midi":61,"time":9.146350000000021,"velocity":0.4409448818897638,"duration":0.04496955416666637},{"name":"C#4","midi":61,"time":9.237813500000021,"velocity":0.4566929133858268,"duration":0.09070130416666622},{"name":"F#4","midi":66,"time":9.32927700000002,"velocity":0.4645669291338583,"duration":0.09070130416666622},{"name":"A4","midi":69,"time":9.42074050000002,"velocity":0.48031496062992124,"duration":0.09070130416666622},{"name":"C#5","midi":73,"time":9.51220400000002,"velocity":0.49606299212598426,"duration":0.04496955416666637},{"name":"C#5","midi":73,"time":9.60366750000002,"velocity":0.5118110236220472,"duration":0.09070130416666622},{"name":"F#5","midi":78,"time":9.69513100000002,"velocity":0.5196850393700787,"duration":0.09070130416666622},{"name":"A5","midi":81,"time":9.78659450000002,"velocity":0.5354330708661418,"duration":0.09070130416666622},{"name":"C#5","midi":73,"time":9.878058000000019,"velocity":0.6141732283464567,"duration":0.09070130416666622},{"name":"F#5","midi":78,"time":9.878058000000019,"velocity":0.6141732283464567,"duration":0.09070130416666622},{"name":"C#6","midi":85,"time":9.878058000000019,"velocity":0.6141732283464567,"duration":0.09070130416666622},{"name":"C#5","midi":73,"time":10.060985000000018,"velocity":0.5669291338582677,"duration":0.09070130416666622},{"name":"F#5","midi":78,"time":10.060985000000018,"velocity":0.5669291338582677,"duration":0.09070130416666622},{"name":"C#6","midi":85,"time":10.060985000000018,"velocity":0.5669291338582677,"duration":0.09070130416666622},{"name":"C#3","midi":49,"time":10.335375500000017,"velocity":0.5748031496062992,"duration":0.09070130416666622},{"name":"E3","midi":52,"time":10.426839000000017,"velocity":0.5905511811023622,"duration":0.09070130416666622},{"name":"G3","midi":55,"time":10.518302500000017,"velocity":0.6062992125984252,"duration":0.09070130416666622},{"name":"C#4","midi":61,"time":10.609766000000016,"velocity":0.6220472440944882,"duration":0.04496955416666637},{"name":"C#4","midi":61,"time":10.701229500000016,"velocity":0.6299212598425197,"duration":0.09070130416666622},{"name":"E4","midi":64,"time":10.792693000000016,"velocity":0.6456692913385826,"duration":0.09070130416666622},{"name":"G4","midi":67,"time":10.884156500000016,"velocity":0.6614173228346457,"duration":0.09070130416666622},{"name":"C#5","midi":73,"time":10.975620000000015,"velocity":0.6771653543307087,"duration":0.04496955416666637},{"name":"C#5","midi":73,"time":11.067083500000015,"velocity":0.6850393700787402,"duration":0.09070130416666622},{"name":"E5","midi":76,"time":11.158547000000015,"velocity":0.7007874015748031,"duration":0.09070130416666622},{"name":"G5","midi":79,"time":11.250010500000014,"velocity":0.7165354330708661,"duration":0.09070130416666622},{"name":"C#5","midi":73,"time":11.341474000000014,"velocity":0.7874015748031497,"duration":0.09070130416666622},{"name":"G5","midi":79,"time":11.341474000000014,"velocity":0.7874015748031497,"duration":0.09070130416666622},{"name":"C#6","midi":85,"time":11.341474000000014,"velocity":0.7874015748031497,"duration":0.09070130416666622},{"name":"C#5","midi":73,"time":11.524401000000013,"velocity":0.7401574803149606,"duration":0.09070130416666622},{"name":"G5","midi":79,"time":11.524401000000013,"velocity":0.7401574803149606,"duration":0.09070130416666622},{"name":"C#6","midi":85,"time":11.524401000000013,"velocity":0.7401574803149606,"duration":0.09070130416666622},{"name":"C5","midi":72,"time":11.707328000000013,"velocity":0.7559055118110236,"duration":0.18216480416666592},{"name":"G#5","midi":80,"time":11.707328000000013,"velocity":0.7559055118110236,"duration":0.18216480416666592},{"name":"C6","midi":84,"time":11.707328000000013,"velocity":0.7559055118110236,"duration":0.18216480416666592},{"name":"G#4","midi":68,"time":11.890255000000012,"velocity":0.7559055118110236,"duration":0.09070130416666622},{"name":"G#5","midi":80,"time":11.981718500000012,"velocity":0.7559055118110236,"duration":0.09070130416666622},{"name":"G#4","midi":68,"time":12.073182000000012,"velocity":0.7559055118110236,"duration":0.09070130416666622},{"name":"G#5","midi":80,"time":12.164645500000011,"velocity":0.7559055118110236,"duration":0.09070130416666622},{"name":"A#4","midi":70,"time":12.256109000000011,"velocity":0.7559055118110236,"duration":0.09070130416666622},{"name":"G#5","midi":80,"time":12.34757250000001,"velocity":0.7559055118110236,"duration":0.09070130416666622},{"name":"C5","midi":72,"time":12.43903600000001,"velocity":0.7559055118110236,"duration":0.09070130416666622},{"name":"G#5","midi":80,"time":12.53049950000001,"velocity":0.7559055118110236,"duration":0.09070130416666622},{"name":"C#5","midi":73,"time":12.62196300000001,"velocity":0.7559055118110236,"duration":0.09070130416666622},{"name":"G#5","midi":80,"time":12.71342650000001,"velocity":0.7559055118110236,"duration":0.09070130416666622},{"name":"D#5","midi":75,"time":12.80489000000001,"velocity":0.7559055118110236,"duration":0.09070130416666622},{"name":"G#5","midi":80,"time":12.896353500000009,"velocity":0.7559055118110236,"duration":0.09070130416666622},{"name":"C5","midi":72,"time":12.987817000000009,"velocity":0.7559055118110236,"duration":0.09070130416666622},{"name":"G#5","midi":80,"time":13.079280500000008,"velocity":0.7559055118110236,"duration":0.09070130416666622},{"name":"D#5","midi":75,"time":13.170744000000008,"velocity":0.7559055118110236,"duration":0.09070130416666622},{"name":"G#5","midi":80,"time":13.262207500000008,"velocity":0.7559055118110236,"duration":0.09070130416666622},{"name":"C#5","midi":73,"time":13.353671000000007,"velocity":0.7559055118110236,"duration":0.09070130416666622},{"name":"G#5","midi":80,"time":13.445134500000007,"velocity":0.7559055118110236,"duration":0.09070130416666622},{"name":"F#5","midi":78,"time":13.536598000000007,"velocity":0.7559055118110236,"duration":0.09070130416666622},{"name":"G#5","midi":80,"time":13.628061500000006,"velocity":0.7559055118110236,"duration":0.09070130416666622},{"name":"E5","midi":76,"time":13.719525000000006,"velocity":0.7559055118110236,"duration":0.09070130416666622},{"name":"G#5","midi":80,"time":13.810988500000006,"velocity":0.7559055118110236,"duration":0.09070130416666622},{"name":"D#5","midi":75,"time":13.902452000000006,"velocity":0.7559055118110236,"duration":0.09070130416666622},{"name":"G#5","midi":80,"time":13.993915500000005,"velocity":0.7559055118110236,"duration":0.09070130416666622},{"name":"C#5","midi":73,"time":14.085379000000005,"velocity":0.7559055118110236,"duration":0.09070130416666622},{"name":"G#5","midi":80,"time":14.176842500000005,"velocity":0.7559055118110236,"duration":0.09070130416666622},{"name":"C5","midi":72,"time":14.268306000000004,"velocity":0.7559055118110236,"duration":0.09070130416666622},{"name":"G#5","midi":80,"time":14.359769500000004,"velocity":0.7559055118110236,"duration":0.09070130416666622},{"name":"A4","midi":69,"time":14.451233000000004,"velocity":0.7559055118110236,"duration":0.09070130416666622},{"name":"G5","midi":79,"time":14.542696500000003,"velocity":0.7559055118110236,"duration":0.09070130416666622},{"name":"G#4","midi":68,"time":14.634160000000003,"velocity":0.7559055118110236,"duration":0.09070130416666622},{"name":"G#5","midi":80,"time":14.725623500000003,"velocity":0.7559055118110236,"duration":0.09070130416666622},{"name":"G#4","midi":68,"time":14.817087000000003,"velocity":0.7559055118110236,"duration":0.09070130416666622},{"name":"G#5","midi":80,"time":14.908550500000002,"velocity":0.7559055118110236,"duration":0.09070130416666622},{"name":"G#4","midi":68,"time":15.000014000000002,"velocity":0.7559055118110236,"duration":0.09070130416666622},{"name":"G#5","midi":80,"time":15.091477500000002,"velocity":0.7559055118110236,"duration":0.09070130416666622},{"name":"A#4","midi":70,"time":15.182941000000001,"velocity":0.7559055118110236,"duration":0.09070130416666622},{"name":"G#5","midi":80,"time":15.274404500000001,"velocity":0.7559055118110236,"duration":0.09070130416666622},{"name":"C5","midi":72,"time":15.365868,"velocity":0.7559055118110236,"duration":0.09070130416666622},{"name":"G#5","midi":80,"time":15.4573315,"velocity":0.7559055118110236,"duration":0.09070130416666622},{"name":"C#5","midi":73,"time":15.548795,"velocity":0.7559055118110236,"duration":0.09070130416666622},{"name":"G#5","midi":80,"time":15.6402585,"velocity":0.7559055118110236,"duration":0.09070130416666622},{"name":"D#5","midi":75,"time":15.731722,"velocity":0.7559055118110236,"duration":0.09070130416666622},{"name":"G#5","midi":80,"time":15.8231855,"velocity":0.7559055118110236,"duration":0.09070130416666622},{"name":"C5","midi":72,"time":15.914648999999999,"velocity":0.7559055118110236,"duration":0.09070130416666622},{"name":"G#5","midi":80,"time":16.006112499999997,"velocity":0.7559055118110236,"duration":0.090701304166668},{"name":"D#5","midi":75,"time":16.097575999999997,"velocity":0.7559055118110236,"duration":0.090701304166668},{"name":"G#5","midi":80,"time":16.189039499999996,"velocity":0.7559055118110236,"duration":0.090701304166668},{"name":"C#5","midi":73,"time":16.280502999999996,"velocity":0.7559055118110236,"duration":0.090701304166668},{"name":"G#5","midi":80,"time":16.371966499999996,"velocity":0.7559055118110236,"duration":0.090701304166668},{"name":"F#5","midi":78,"time":16.463429999999995,"velocity":0.7559055118110236,"duration":0.090701304166668},{"name":"G#5","midi":80,"time":16.554893499999995,"velocity":0.7559055118110236,"duration":0.090701304166668},{"name":"E5","midi":76,"time":16.646356999999995,"velocity":0.7559055118110236,"duration":0.090701304166668},{"name":"G#5","midi":80,"time":16.737820499999994,"velocity":0.7559055118110236,"duration":0.090701304166668},{"name":"D#5","midi":75,"time":16.829283999999994,"velocity":0.7559055118110236,"duration":0.090701304166668},{"name":"G#5","midi":80,"time":16.920747499999994,"velocity":0.7559055118110236,"duration":0.090701304166668},{"name":"C#5","midi":73,"time":17.012210999999994,"velocity":0.7559055118110236,"duration":0.090701304166668},{"name":"G#5","midi":80,"time":17.103674499999993,"velocity":0.7559055118110236,"duration":0.090701304166668},{"name":"C5","midi":72,"time":17.195137999999993,"velocity":0.7559055118110236,"duration":0.090701304166668},{"name":"G#5","midi":80,"time":17.286601499999993,"velocity":0.7559055118110236,"duration":0.090701304166668},{"name":"A4","midi":69,"time":17.378064999999992,"velocity":0.7559055118110236,"duration":0.090701304166668},{"name":"G5","midi":79,"time":17.469528499999992,"velocity":0.7559055118110236,"duration":0.090701304166668},{"name":"G#4","midi":68,"time":17.56099199999999,"velocity":0.7559055118110236,"duration":0.090701304166668},{"name":"G#5","midi":80,"time":17.65245549999999,"velocity":0.7559055118110236,"duration":0.090701304166668},{"name":"A4","midi":69,"time":17.74391899999999,"velocity":0.7559055118110236,"duration":0.090701304166668},{"name":"G5","midi":79,"time":17.83538249999999,"velocity":0.7559055118110236,"duration":0.090701304166668},{"name":"G#4","midi":68,"time":17.92684599999999,"velocity":0.7559055118110236,"duration":0.090701304166668},{"name":"G#5","midi":80,"time":18.01830949999999,"velocity":0.7559055118110236,"duration":0.090701304166668},{"name":"A4","midi":69,"time":18.10977299999999,"velocity":0.7559055118110236,"duration":0.090701304166668},{"name":"G5","midi":79,"time":18.20123649999999,"velocity":0.7559055118110236,"duration":0.090701304166668},{"name":"G#4","midi":68,"time":18.29269999999999,"velocity":0.7559055118110236,"duration":0.090701304166668},{"name":"G#5","midi":80,"time":18.38416349999999,"velocity":0.7559055118110236,"duration":0.090701304166668},{"name":"A4","midi":69,"time":18.47562699999999,"velocity":0.7559055118110236,"duration":0.090701304166668},{"name":"G5","midi":79,"time":18.56709049999999,"velocity":0.7559055118110236,"duration":0.090701304166668},{"name":"G#4","midi":68,"time":18.658553999999988,"velocity":0.7559055118110236,"duration":0.090701304166668},{"name":"G#5","midi":80,"time":18.750017499999988,"velocity":0.7559055118110236,"duration":0.090701304166668},{"name":"A4","midi":69,"time":18.841480999999987,"velocity":0.7559055118110236,"duration":0.090701304166668},{"name":"G5","midi":79,"time":18.932944499999987,"velocity":0.7559055118110236,"duration":0.090701304166668},{"name":"G#4","midi":68,"time":19.024407999999987,"velocity":0.7559055118110236,"duration":0.1821648041666677},{"name":"G#5","midi":80,"time":19.024407999999987,"velocity":0.7559055118110236,"duration":0.1821648041666677},{"name":"G#3","midi":56,"time":19.39026199999999,"velocity":0.8267716535433071,"duration":1.0967998041666682},{"name":"G#2","midi":44,"time":20.57928749999999,"velocity":0.3858267716535433,"duration":0.090701304166668},{"name":"C#3","midi":49,"time":20.67075099999999,"velocity":0.3858267716535433,"duration":0.090701304166668},{"name":"E3","midi":52,"time":20.76221449999999,"velocity":0.3858267716535433,"duration":0.090701304166668},{"name":"G#3","midi":56,"time":20.853677999999988,"velocity":0.3858267716535433,"duration":0.090701304166668},{"name":"C#3","midi":49,"time":20.945141499999988,"velocity":0.3858267716535433,"duration":0.090701304166668},{"name":"E3","midi":52,"time":21.036604999999987,"velocity":0.3858267716535433,"duration":0.090701304166668},{"name":"G#3","midi":56,"time":21.128068499999987,"velocity":0.3858267716535433,"duration":0.090701304166668},{"name":"C#4","midi":61,"time":21.219531999999987,"velocity":0.3858267716535433,"duration":0.090701304166668},{"name":"E3","midi":52,"time":21.310995499999986,"velocity":0.3858267716535433,"duration":0.090701304166668},{"name":"G#3","midi":56,"time":21.402458999999986,"velocity":0.3858267716535433,"duration":0.090701304166668},{"name":"C#4","midi":61,"time":21.493922499999986,"velocity":0.3858267716535433,"duration":0.090701304166668},{"name":"E4","midi":64,"time":21.585385999999986,"velocity":0.3858267716535433,"duration":0.090701304166668},{"name":"G#3","midi":56,"time":21.676849499999985,"velocity":0.3858267716535433,"duration":0.090701304166668},{"name":"C#4","midi":61,"time":21.768312999999985,"velocity":0.3858267716535433,"duration":0.090701304166668},{"name":"E4","midi":64,"time":21.859776499999985,"velocity":0.3858267716535433,"duration":0.090701304166668},{"name":"G#4","midi":68,"time":21.951239999999984,"velocity":0.3858267716535433,"duration":0.090701304166668},{"name":"C#4","midi":61,"time":22.042703499999984,"velocity":0.3858267716535433,"duration":0.090701304166668},{"name":"E4","midi":64,"time":22.134166999999984,"velocity":0.3858267716535433,"duration":0.090701304166668},{"name":"G#4","midi":68,"time":22.225630499999983,"velocity":0.3858267716535433,"duration":0.090701304166668},{"name":"C#5","midi":73,"time":22.317093999999983,"velocity":0.3858267716535433,"duration":0.090701304166668},{"name":"E4","midi":64,"time":22.408557499999983,"velocity":0.3858267716535433,"duration":0.090701304166668},{"name":"G#4","midi":68,"time":22.500020999999983,"velocity":0.3858267716535433,"duration":0.090701304166668},{"name":"C#5","midi":73,"time":22.591484499999982,"velocity":0.3858267716535433,"duration":0.090701304166668},{"name":"E5","midi":76,"time":22.682947999999982,"velocity":0.3858267716535433,"duration":0.090701304166668},{"name":"E5","midi":76,"time":22.77441149999998,"velocity":0.3858267716535433,"duration":0.090701304166668},{"name":"G#5","midi":80,"time":22.86587499999998,"velocity":0.3858267716535433,"duration":0.090701304166668},{"name":"C#6","midi":85,"time":22.95733849999998,"velocity":0.3858267716535433,"duration":0.090701304166668},{"name":"E5","midi":76,"time":23.04880199999998,"velocity":0.5039370078740157,"duration":0.090701304166668},{"name":"E6","midi":88,"time":23.04880199999998,"velocity":0.5039370078740157,"duration":0.090701304166668},{"name":"E5","midi":76,"time":23.231728999999984,"velocity":0.3858267716535433,"duration":0.090701304166668},{"name":"E6","midi":88,"time":23.231728999999984,"velocity":0.3858267716535433,"duration":0.090701304166668},{"name":"E3","midi":52,"time":23.506119499999986,"velocity":0.3858267716535433,"duration":0.090701304166668},{"name":"G3","midi":55,"time":23.597582999999986,"velocity":0.3858267716535433,"duration":0.090701304166668},{"name":"C#4","midi":61,"time":23.689046499999986,"velocity":0.3858267716535433,"duration":0.090701304166668},{"name":"E4","midi":64,"time":23.780509999999985,"velocity":0.3858267716535433,"duration":0.090701304166668},{"name":"G3","midi":55,"time":23.871973499999985,"velocity":0.3858267716535433,"duration":0.090701304166668},{"name":"C#4","midi":61,"time":23.963436999999985,"velocity":0.3858267716535433,"duration":0.090701304166668},{"name":"E4","midi":64,"time":24.054900499999984,"velocity":0.3858267716535433,"duration":0.090701304166668},{"name":"G4","midi":67,"time":24.146363999999984,"velocity":0.3858267716535433,"duration":0.090701304166668},{"name":"C#4","midi":61,"time":24.237827499999984,"velocity":0.3858267716535433,"duration":0.090701304166668},{"name":"E4","midi":64,"time":24.329290999999984,"velocity":0.3858267716535433,"duration":0.090701304166668},{"name":"G4","midi":67,"time":24.420754499999983,"velocity":0.3858267716535433,"duration":0.090701304166668},{"name":"C#5","midi":73,"time":24.512217999999983,"velocity":0.3858267716535433,"duration":0.090701304166668},{"name":"E4","midi":64,"time":24.603681499999983,"velocity":0.3858267716535433,"duration":0.090701304166668},{"name":"G4","midi":67,"time":24.695144999999982,"velocity":0.3858267716535433,"duration":0.090701304166668},{"name":"C#5","midi":73,"time":24.786608499999982,"velocity":0.3858267716535433,"duration":0.090701304166668},{"name":"E5","midi":76,"time":24.87807199999998,"velocity":0.3858267716535433,"duration":0.090701304166668},{"name":"G4","midi":67,"time":24.96953549999998,"velocity":0.3858267716535433,"duration":0.090701304166668},{"name":"C#5","midi":73,"time":25.06099899999998,"velocity":0.3858267716535433,"duration":0.090701304166668},{"name":"E5","midi":76,"time":25.15246249999998,"velocity":0.3858267716535433,"duration":0.090701304166668},{"name":"G5","midi":79,"time":25.24392599999998,"velocity":0.3858267716535433,"duration":0.090701304166668},{"name":"C#5","midi":73,"time":25.33538949999998,"velocity":0.3858267716535433,"duration":0.090701304166668},{"name":"E5","midi":76,"time":25.42685299999998,"velocity":0.3858267716535433,"duration":0.090701304166668},{"name":"G5","midi":79,"time":25.51831649999998,"velocity":0.3858267716535433,"duration":0.090701304166668},{"name":"C#6","midi":85,"time":25.60977999999998,"velocity":0.3858267716535433,"duration":0.090701304166668},{"name":"E5","midi":76,"time":25.70124349999998,"velocity":0.3858267716535433,"duration":0.090701304166668},{"name":"G5","midi":79,"time":25.79270699999998,"velocity":0.3858267716535433,"duration":0.090701304166668},{"name":"C#6","midi":85,"time":25.88417049999998,"velocity":0.3858267716535433,"duration":0.090701304166668},{"name":"E5","midi":76,"time":25.975633999999978,"velocity":0.5039370078740157,"duration":0.090701304166668},{"name":"E6","midi":88,"time":25.975633999999978,"velocity":0.5039370078740157,"duration":0.090701304166668},{"name":"E5","midi":76,"time":26.15856099999998,"velocity":0.3858267716535433,"duration":0.090701304166668},{"name":"E6","midi":88,"time":26.15856099999998,"velocity":0.3858267716535433,"duration":0.090701304166668},{"name":"D#3","midi":51,"time":26.432951499999984,"velocity":0.3858267716535433,"duration":0.090701304166668},{"name":"A#3","midi":58,"time":26.524414999999983,"velocity":0.3937007874015748,"duration":0.090701304166668},{"name":"C#4","midi":61,"time":26.615878499999983,"velocity":0.3937007874015748,"duration":0.090701304166668},{"name":"D#4","midi":63,"time":26.707341999999983,"velocity":0.4015748031496063,"duration":0.090701304166668},{"name":"A#3","midi":58,"time":26.798805499999983,"velocity":0.4015748031496063,"duration":0.090701304166668},{"name":"C#4","midi":61,"time":26.890268999999982,"velocity":0.4094488188976378,"duration":0.090701304166668},{"name":"D#4","midi":63,"time":26.981732499999982,"velocity":0.4094488188976378,"duration":0.090701304166668},{"name":"A#4","midi":70,"time":27.07319599999998,"velocity":0.41732283464566927,"duration":0.090701304166668},{"name":"C#4","midi":61,"time":27.16465949999998,"velocity":0.41732283464566927,"duration":0.090701304166668},{"name":"D#4","midi":63,"time":27.25612299999998,"velocity":0.4251968503937008,"duration":0.090701304166668},{"name":"A#4","midi":70,"time":27.34758649999998,"velocity":0.4251968503937008,"duration":0.090701304166668},{"name":"C#5","midi":73,"time":27.43904999999998,"velocity":0.4330708661417323,"duration":0.090701304166668},{"name":"D#4","midi":63,"time":27.53051349999998,"velocity":0.4330708661417323,"duration":0.090701304166668},{"name":"A#4","midi":70,"time":27.62197699999998,"velocity":0.4409448818897638,"duration":0.090701304166668},{"name":"C#5","midi":73,"time":27.71344049999998,"velocity":0.4409448818897638,"duration":0.090701304166668},{"name":"D#5","midi":75,"time":27.80490399999998,"velocity":0.44881889763779526,"duration":0.090701304166668},{"name":"A#4","midi":70,"time":27.89636749999998,"velocity":0.44881889763779526,"duration":0.090701304166668},{"name":"C#5","midi":73,"time":27.98783099999998,"velocity":0.4566929133858268,"duration":0.090701304166668},{"name":"D#5","midi":75,"time":28.07929449999998,"velocity":0.4566929133858268,"duration":0.090701304166668},{"name":"A#5","midi":82,"time":28.170757999999978,"velocity":0.4645669291338583,"duration":0.090701304166668},{"name":"C#5","midi":73,"time":28.262221499999978,"velocity":0.4645669291338583,"duration":0.090701304166668},{"name":"D#5","midi":75,"time":28.353684999999977,"velocity":0.47244094488188976,"duration":0.090701304166668},{"name":"A#5","midi":82,"time":28.445148499999977,"velocity":0.47244094488188976,"duration":0.090701304166668},{"name":"C#6","midi":85,"time":28.536611999999977,"velocity":0.48031496062992124,"duration":0.090701304166668},{"name":"A#5","midi":82,"time":28.628075499999976,"velocity":0.48031496062992124,"duration":0.090701304166668},{"name":"D#5","midi":75,"time":28.719538999999976,"velocity":0.4881889763779528,"duration":0.090701304166668},{"name":"C#5","midi":73,"time":28.811002499999976,"velocity":0.4881889763779528,"duration":0.090701304166668},{"name":"A#5","midi":82,"time":28.902465999999976,"velocity":0.49606299212598426,"duration":0.090701304166668},{"name":"D#5","midi":75,"time":28.993929499999975,"velocity":0.49606299212598426,"duration":0.090701304166668},{"name":"C#5","midi":73,"time":29.085392999999975,"velocity":0.5039370078740157,"duration":0.090701304166668},{"name":"A#4","midi":70,"time":29.176856499999975,"velocity":0.5039370078740157,"duration":0.090701304166668},{"name":"B4","midi":71,"time":29.268319999999974,"velocity":0.3858267716535433,"duration":0.1821648041666677},{"name":"D#5","midi":75,"time":29.634173999999977,"velocity":0.3858267716535433,"duration":0.7309458041666659},{"name":"B4","midi":71,"time":30.365881999999974,"velocity":0.3858267716535433,"duration":0.2736283041666674},{"name":"G#4","midi":68,"time":30.640272499999973,"velocity":0.3858267716535433,"duration":0.090701304166668},{"name":"G4","midi":67,"time":30.731735999999973,"velocity":0.3858267716535433,"duration":0.05945127500000069},{"name":"G#4","midi":68,"time":30.791949470833305,"velocity":0.3858267716535433,"duration":0.05945127500000069},{"name":"A#4","midi":70,"time":30.852925137499973,"velocity":0.3858267716535433,"duration":0.05945127500000069},{"name":"G#4","midi":68,"time":30.914662999999972,"velocity":0.3858267716535433,"duration":0.1821648041666677},{"name":"G4","midi":67,"time":31.097589999999972,"velocity":0.3858267716535433,"duration":0.5480188041666665},{"name":"G4","midi":67,"time":31.64637099999997,"velocity":0.3858267716535433,"duration":0.1821648041666677},{"name":"D#5","midi":75,"time":31.82929799999997,"velocity":0.3858267716535433,"duration":0.2736283041666674},{"name":"G4","midi":67,"time":32.10368849999997,"velocity":0.3858267716535433,"duration":0.09070130416666444},{"name":"A#4","midi":70,"time":32.195151999999965,"velocity":0.3858267716535433,"duration":0.3650918041666671},{"name":"G#4","midi":68,"time":32.56100599999996,"velocity":0.3858267716535433,"duration":0.5480188041666665},{"name":"G#4","midi":68,"time":33.10978699999996,"velocity":0.3858267716535433,"duration":0.1821648041666677},{"name":"D#5","midi":75,"time":33.29271399999996,"velocity":0.3858267716535433,"duration":0.27362830416666384},{"name":"G#4","midi":68,"time":33.56710449999996,"velocity":0.3858267716535433,"duration":0.09070130416666444},{"name":"B4","midi":71,"time":33.65856799999995,"velocity":0.3858267716535433,"duration":0.3650918041666671},{"name":"A#4","midi":70,"time":34.02442199999995,"velocity":0.3858267716535433,"duration":0.5480188041666665},{"name":"A#4","midi":70,"time":34.57320299999995,"velocity":0.3858267716535433,"duration":0.1821648041666677},{"name":"D#5","midi":75,"time":34.75612999999995,"velocity":0.3858267716535433,"duration":0.27362830416666384},{"name":"A#4","midi":70,"time":35.030520499999945,"velocity":0.3858267716535433,"duration":0.09070130416666444},{"name":"B4","midi":71,"time":35.12198399999994,"velocity":0.3858267716535433,"duration":0.09070130416666444},{"name":"D#5","midi":75,"time":35.30491099999994,"velocity":0.3858267716535433,"duration":0.3650918041666671},{"name":"D#6","midi":87,"time":35.30491099999994,"velocity":0.3858267716535433,"duration":0.3650918041666671},{"name":"D#5","midi":75,"time":35.67076499999994,"velocity":0.3858267716535433,"duration":0.3650918041666671},{"name":"D#6","midi":87,"time":35.67076499999994,"velocity":0.3858267716535433,"duration":0.3650918041666671},{"name":"D#5","midi":75,"time":36.03661899999994,"velocity":0.3858267716535433,"duration":0.09070130416666444},{"name":"D#6","midi":87,"time":36.03661899999994,"velocity":0.3858267716535433,"duration":0.09070130416666444},{"name":"B4","midi":71,"time":36.21954599999994,"velocity":0.3858267716535433,"duration":0.09070130416666444},{"name":"B5","midi":83,"time":36.21954599999994,"velocity":0.3858267716535433,"duration":0.09070130416666444},{"name":"G#4","midi":68,"time":36.40247299999994,"velocity":0.3858267716535433,"duration":0.09070130416666444},{"name":"G#5","midi":80,"time":36.40247299999994,"velocity":0.3858267716535433,"duration":0.09070130416666444},{"name":"G#4","midi":68,"time":36.585399999999936,"velocity":0.3858267716535433,"duration":0.09070130416666444},{"name":"G#5","midi":80,"time":36.585399999999936,"velocity":0.3858267716535433,"duration":0.09070130416666444},{"name":"G4","midi":67,"time":36.768326999999935,"velocity":0.3858267716535433,"duration":0.3650918041666671},{"name":"G5","midi":79,"time":36.768326999999935,"velocity":0.3858267716535433,"duration":0.3650918041666671},{"name":"G4","midi":67,"time":37.134180999999934,"velocity":0.3858267716535433,"duration":0.3650918041666671},{"name":"G5","midi":79,"time":37.134180999999934,"velocity":0.3858267716535433,"duration":0.3650918041666671},{"name":"G4","midi":67,"time":37.50003499999993,"velocity":0.3858267716535433,"duration":0.09070130416666444},{"name":"G5","midi":79,"time":37.50003499999993,"velocity":0.3858267716535433,"duration":0.09070130416666444},{"name":"D#5","midi":75,"time":37.68296199999993,"velocity":0.3858267716535433,"duration":0.09070130416666444},{"name":"D#6","midi":87,"time":37.68296199999993,"velocity":0.3858267716535433,"duration":0.09070130416666444},{"name":"G4","midi":67,"time":37.86588899999993,"velocity":0.3858267716535433,"duration":0.09070130416666444},{"name":"G5","midi":79,"time":37.86588899999993,"velocity":0.3858267716535433,"duration":0.09070130416666444},{"name":"A#4","midi":70,"time":38.04881599999993,"velocity":0.3858267716535433,"duration":0.09070130416666444},{"name":"A#5","midi":82,"time":38.04881599999993,"velocity":0.3858267716535433,"duration":0.09070130416666444},{"name":"G#4","midi":68,"time":38.23174299999993,"velocity":0.3858267716535433,"duration":0.3650918041666671},{"name":"G#5","midi":80,"time":38.23174299999993,"velocity":0.3858267716535433,"duration":0.3650918041666671},{"name":"G#4","midi":68,"time":38.59759699999993,"velocity":0.3858267716535433,"duration":0.3650918041666671},{"name":"G#5","midi":80,"time":38.59759699999993,"velocity":0.3858267716535433,"duration":0.3650918041666671},{"name":"G#4","midi":68,"time":38.96345099999993,"velocity":0.3858267716535433,"duration":0.09070130416666444},{"name":"G#5","midi":80,"time":38.96345099999993,"velocity":0.3858267716535433,"duration":0.09070130416666444},{"name":"D#5","midi":75,"time":39.14637799999993,"velocity":0.3858267716535433,"duration":0.09070130416666444},{"name":"D#6","midi":87,"time":39.14637799999993,"velocity":0.3858267716535433,"duration":0.09070130416666444},{"name":"G#4","midi":68,"time":39.32930499999993,"velocity":0.3858267716535433,"duration":0.09070130416666444},{"name":"G#5","midi":80,"time":39.32930499999993,"velocity":0.3858267716535433,"duration":0.09070130416666444},{"name":"B4","midi":71,"time":39.512231999999926,"velocity":0.3858267716535433,"duration":0.09070130416666444},{"name":"B5","midi":83,"time":39.512231999999926,"velocity":0.3858267716535433,"duration":0.09070130416666444},{"name":"A#4","midi":70,"time":39.695158999999926,"velocity":0.3858267716535433,"duration":0.3650918041666671},{"name":"A#5","midi":82,"time":39.695158999999926,"velocity":0.3858267716535433,"duration":0.3650918041666671},{"name":"A#4","midi":70,"time":40.061012999999924,"velocity":0.3858267716535433,"duration":0.3650918041666671},{"name":"A#5","midi":82,"time":40.061012999999924,"velocity":0.3858267716535433,"duration":0.3650918041666671},{"name":"A#4","midi":70,"time":40.42686699999992,"velocity":0.3858267716535433,"duration":0.09070130416666444},{"name":"A#5","midi":82,"time":40.42686699999992,"velocity":0.3858267716535433,"duration":0.09070130416666444},{"name":"D#5","midi":75,"time":40.60979399999992,"velocity":0.3858267716535433,"duration":0.09070130416666444},{"name":"D#6","midi":87,"time":40.60979399999992,"velocity":0.3858267716535433,"duration":0.09070130416666444},{"name":"A#4","midi":70,"time":40.79272099999992,"velocity":0.3858267716535433,"duration":0.09070130416666444},{"name":"A#5","midi":82,"time":40.79272099999992,"velocity":0.3858267716535433,"duration":0.09070130416666444},{"name":"C5","midi":72,"time":40.97564799999992,"velocity":0.4566929133858268,"duration":0.7309458041666659},{"name":"C6","midi":84,"time":40.97564799999992,"velocity":0.4566929133858268,"duration":0.7309458041666659},{"name":"C#5","midi":73,"time":41.70735599999992,"velocity":0.4566929133858268,"duration":0.7309458041666659},{"name":"C#6","midi":85,"time":41.70735599999992,"velocity":0.4566929133858268,"duration":0.7309458041666659},{"name":"A#4","midi":70,"time":42.43906399999992,"velocity":0.3858267716535433,"duration":0.3650918041666742},{"name":"A#5","midi":82,"time":42.43906399999992,"velocity":0.3858267716535433,"duration":0.10442082916667061},{"name":"B5","midi":83,"time":42.490893316666586,"velocity":0.3858267716535433,"duration":0.051829316666669456},{"name":"A#5","midi":82,"time":42.54348482916659,"velocity":0.3858267716535433,"duration":0.10518302500000232},{"name":"B5","midi":83,"time":42.59607634166659,"velocity":0.3858267716535433,"duration":0.051829316666669456},{"name":"A#5","midi":82,"time":42.64866785416659,"velocity":0.3858267716535433,"duration":0.10518302500000232},{"name":"G#5","midi":80,"time":42.70125936666659,"velocity":0.3858267716535433,"duration":0.051829316666669456},{"name":"A#5","midi":82,"time":42.75385087916659,"velocity":0.3858267716535433,"duration":0.05182931666666235},{"name":"B4","midi":71,"time":42.80491799999992,"velocity":0.4566929133858268,"duration":1.0967998041666647},{"name":"B5","midi":83,"time":42.80491799999992,"velocity":0.4566929133858268,"duration":1.0967998041666647},{"name":"G#4","midi":68,"time":43.90247999999992,"velocity":0.4566929133858268,"duration":0.7309458041666659},{"name":"G#5","midi":80,"time":43.90247999999992,"velocity":0.4566929133858268,"duration":0.7309458041666659},{"name":"A4","midi":69,"time":44.63418799999992,"velocity":0.4566929133858268,"duration":0.7309458041666659},{"name":"A5","midi":81,"time":44.63418799999992,"velocity":0.4566929133858268,"duration":0.7309458041666659},{"name":"G4","midi":67,"time":45.365895999999914,"velocity":0.3858267716535433,"duration":0.3650918041666742},{"name":"G5","midi":79,"time":45.365895999999914,"velocity":0.3858267716535433,"duration":0.10442082916667061},{"name":"G#5","midi":80,"time":45.41772531666658,"velocity":0.3858267716535433,"duration":0.051829316666669456},{"name":"G5","midi":79,"time":45.470316829166585,"velocity":0.3858267716535433,"duration":0.10518302500000232},{"name":"G#5","midi":80,"time":45.522908341666586,"velocity":0.3858267716535433,"duration":0.051829316666669456},{"name":"G5","midi":79,"time":45.57549985416659,"velocity":0.3858267716535433,"duration":0.10518302500000232},{"name":"F5","midi":77,"time":45.62809136666659,"velocity":0.3858267716535433,"duration":0.051829316666669456},{"name":"G5","midi":79,"time":45.68068287916659,"velocity":0.3858267716535433,"duration":0.05182931666666235},{"name":"G#4","midi":68,"time":45.73174999999992,"velocity":0.4566929133858268,"duration":1.0967998041666647},{"name":"G#5","midi":80,"time":45.73174999999992,"velocity":0.4566929133858268,"duration":1.0967998041666647},{"name":"A4","midi":69,"time":46.829311999999916,"velocity":0.8818897637795275,"duration":0.8224093041666691},{"name":"C#5","midi":73,"time":46.829311999999916,"velocity":0.8818897637795275,"duration":0.8224093041666691},{"name":"E5","midi":76,"time":46.829311999999916,"velocity":0.8818897637795275,"duration":0.8224093041666691},{"name":"A5","midi":81,"time":46.829311999999916,"velocity":0.8818897637795275,"duration":0.8224093041666691},{"name":"E5","midi":76,"time":47.65248349999992,"velocity":0.3858267716535433,"duration":0.09070130416666444},{"name":"F#5","midi":78,"time":47.74394699999991,"velocity":0.3858267716535433,"duration":0.09070130416666444},{"name":"G#5","midi":80,"time":47.83541049999991,"velocity":0.3858267716535433,"duration":0.09070130416666444},{"name":"A5","midi":81,"time":47.926873999999906,"velocity":0.3858267716535433,"duration":0.09070130416666444},{"name":"B5","midi":83,"time":48.0183374999999,"velocity":0.3858267716535433,"duration":0.09070130416666444},{"name":"C#6","midi":85,"time":48.1098009999999,"velocity":0.3858267716535433,"duration":0.09070130416666444},{"name":"B5","midi":83,"time":48.201264499999894,"velocity":0.3858267716535433,"duration":0.09070130416666444},{"name":"A5","midi":81,"time":48.29272799999989,"velocity":0.3858267716535433,"duration":0.09070130416666444},{"name":"E5","midi":76,"time":48.384191499999886,"velocity":0.3858267716535433,"duration":0.09070130416666444},{"name":"F#5","midi":78,"time":48.47565499999988,"velocity":0.3858267716535433,"duration":0.09070130416666444},{"name":"G#5","midi":80,"time":48.56711849999988,"velocity":0.3858267716535433,"duration":0.09070130416666444},{"name":"A5","midi":81,"time":48.658581999999875,"velocity":0.3858267716535433,"duration":0.09070130416666444},{"name":"B5","midi":83,"time":48.75004549999987,"velocity":0.3858267716535433,"duration":0.09070130416666444},{"name":"C#6","midi":85,"time":48.84150899999987,"velocity":0.3858267716535433,"duration":0.09070130416666444},{"name":"B5","midi":83,"time":48.93297249999986,"velocity":0.3858267716535433,"duration":0.09070130416666444},{"name":"A5","midi":81,"time":49.02443599999986,"velocity":0.3858267716535433,"duration":0.09070130416666444},{"name":"E5","midi":76,"time":49.115899499999855,"velocity":0.3858267716535433,"duration":0.09070130416666444},{"name":"F#5","midi":78,"time":49.20736299999985,"velocity":0.3858267716535433,"duration":0.09070130416666444},{"name":"G#5","midi":80,"time":49.29882649999985,"velocity":0.3858267716535433,"duration":0.09070130416666444},{"name":"A5","midi":81,"time":49.390289999999844,"velocity":0.3858267716535433,"duration":0.09070130416666444},{"name":"B5","midi":83,"time":49.48175349999984,"velocity":0.3858267716535433,"duration":0.09070130416666444},{"name":"C#6","midi":85,"time":49.573216999999836,"velocity":0.3858267716535433,"duration":0.09070130416666444},{"name":"B5","midi":83,"time":49.66468049999983,"velocity":0.3858267716535433,"duration":0.09070130416666444},{"name":"A5","midi":81,"time":49.75614399999983,"velocity":0.3858267716535433,"duration":0.09070130416666444},{"name":"E5","midi":76,"time":49.847607499999825,"velocity":0.4015748031496063,"duration":0.09070130416666444},{"name":"F#5","midi":78,"time":49.93907099999982,"velocity":0.4094488188976378,"duration":0.09070130416666444},{"name":"G#5","midi":80,"time":50.03053449999982,"velocity":0.41732283464566927,"duration":0.09070130416666444},{"name":"A5","midi":81,"time":50.12199799999981,"velocity":0.4251968503937008,"duration":0.09070130416666444},{"name":"B5","midi":83,"time":50.21346149999981,"velocity":0.4330708661417323,"duration":0.09070130416666444},{"name":"C#6","midi":85,"time":50.304924999999805,"velocity":0.4409448818897638,"duration":0.09070130416666444},{"name":"D6","midi":86,"time":50.3963884999998,"velocity":0.44881889763779526,"duration":0.09070130416666444},{"name":"E6","midi":88,"time":50.4878519999998,"velocity":0.44881889763779526,"duration":0.09070130416666444},{"name":"D#6","midi":87,"time":50.579315499999794,"velocity":0.4566929133858268,"duration":0.09070130416666444},{"name":"E6","midi":88,"time":50.67077899999979,"velocity":0.4645669291338583,"duration":0.09070130416666444},{"name":"D#6","midi":87,"time":50.762242499999786,"velocity":0.47244094488188976,"duration":0.09070130416666444},{"name":"E6","midi":88,"time":50.85370599999978,"velocity":0.48031496062992124,"duration":0.09070130416666444},{"name":"C#6","midi":85,"time":50.94516949999978,"velocity":0.4881889763779528,"duration":0.09070130416666444},{"name":"B5","midi":83,"time":51.036632999999775,"velocity":0.49606299212598426,"duration":0.09070130416666444},{"name":"A5","midi":81,"time":51.12809649999977,"velocity":0.5039370078740157,"duration":0.09070130416666444},{"name":"G#5","midi":80,"time":51.21955999999977,"velocity":0.3858267716535433,"duration":0.7309458041666659},{"name":"A#5","midi":82,"time":51.951267999999764,"velocity":0.3858267716535433,"duration":0.09756106666666398},{"name":"B5","midi":83,"time":52.0000485333331,"velocity":0.3858267716535433,"duration":0.04801833749999673},{"name":"A#5","midi":82,"time":52.04882906666643,"velocity":0.3858267716535433,"duration":0.09756106666666398},{"name":"B5","midi":83,"time":52.097609599999764,"velocity":0.3858267716535433,"duration":0.04801833749999673},{"name":"A#5","midi":82,"time":52.14639013333309,"velocity":0.3858267716535433,"duration":0.09756106666666398},{"name":"B5","midi":83,"time":52.19517066666643,"velocity":0.3858267716535433,"duration":0.04801833749999673},{"name":"A#5","midi":82,"time":52.243951199999756,"velocity":0.3858267716535433,"duration":0.09756106666666398},{"name":"B5","midi":83,"time":52.29273173333309,"velocity":0.3858267716535433,"duration":0.04801833749999673},{"name":"A#5","midi":82,"time":52.34151226666642,"velocity":0.3858267716535433,"duration":0.09756106666666398},{"name":"B5","midi":83,"time":52.390292799999756,"velocity":0.3858267716535433,"duration":0.04801833749999673},{"name":"A#5","midi":82,"time":52.439073333333084,"velocity":0.3858267716535433,"duration":0.09756106666666398},{"name":"B5","midi":83,"time":52.48785386666642,"velocity":0.3858267716535433,"duration":0.04801833749999673},{"name":"A#5","midi":82,"time":52.53663439999975,"velocity":0.3858267716535433,"duration":0.09756106666666398},{"name":"G#5","midi":80,"time":52.585414933333084,"velocity":0.3858267716535433,"duration":0.04801833749999673},{"name":"A#5","midi":82,"time":52.63419546666641,"velocity":0.3858267716535433,"duration":0.04801833749999673},{"name":"G#5","midi":80,"time":52.68297599999974,"velocity":0.3858267716535433,"duration":0.1821648041666677},{"name":"A3","midi":57,"time":53.04882999999974,"velocity":0.8818897637795275,"duration":0.45655530416666323},{"name":"C#4","midi":61,"time":53.04882999999974,"velocity":0.8818897637795275,"duration":0.45655530416666323},{"name":"E4","midi":64,"time":53.04882999999974,"velocity":0.8818897637795275,"duration":0.45655530416666323},{"name":"A4","midi":69,"time":53.04882999999974,"velocity":0.8818897637795275,"duration":0.45655530416666323},{"name":"E4","midi":64,"time":53.506147499999734,"velocity":0.3858267716535433,"duration":0.09070130416666444},{"name":"F#4","midi":66,"time":53.59761099999973,"velocity":0.3858267716535433,"duration":0.09070130416666444},{"name":"G#4","midi":68,"time":53.68907449999973,"velocity":0.3858267716535433,"duration":0.09070130416666444},{"name":"A4","midi":69,"time":53.78053799999972,"velocity":0.3858267716535433,"duration":0.09070130416666444},{"name":"B4","midi":71,"time":53.87200149999972,"velocity":0.3858267716535433,"duration":0.09070130416666444},{"name":"C#5","midi":73,"time":53.963464999999715,"velocity":0.3858267716535433,"duration":0.09070130416666444},{"name":"B4","midi":71,"time":54.05492849999971,"velocity":0.3858267716535433,"duration":0.09070130416666444},{"name":"A4","midi":69,"time":54.14639199999971,"velocity":0.3858267716535433,"duration":0.09070130416666444},{"name":"E4","midi":64,"time":54.237855499999704,"velocity":0.3858267716535433,"duration":0.09070130416666444},{"name":"F#4","midi":66,"time":54.3293189999997,"velocity":0.3858267716535433,"duration":0.09070130416666444},{"name":"G#4","midi":68,"time":54.420782499999696,"velocity":0.3858267716535433,"duration":0.09070130416666444},{"name":"A4","midi":69,"time":54.51224599999969,"velocity":0.3858267716535433,"duration":0.09070130416666444},{"name":"B4","midi":71,"time":54.60370949999969,"velocity":0.3858267716535433,"duration":0.09070130416666444},{"name":"C#5","midi":73,"time":54.695172999999684,"velocity":0.3858267716535433,"duration":0.09070130416666444},{"name":"B4","midi":71,"time":54.78663649999968,"velocity":0.3858267716535433,"duration":0.09070130416666444},{"name":"A4","midi":69,"time":54.87809999999968,"velocity":0.3858267716535433,"duration":0.09070130416666444},{"name":"E4","midi":64,"time":54.96956349999967,"velocity":0.3858267716535433,"duration":0.09070130416666444},{"name":"F#4","midi":66,"time":55.06102699999967,"velocity":0.3858267716535433,"duration":0.09070130416666444},{"name":"G#4","midi":68,"time":55.152490499999665,"velocity":0.3858267716535433,"duration":0.09070130416666444},{"name":"A4","midi":69,"time":55.24395399999966,"velocity":0.3858267716535433,"duration":0.09070130416666444},{"name":"B4","midi":71,"time":55.33541749999966,"velocity":0.3858267716535433,"duration":0.09070130416666444},{"name":"C#5","midi":73,"time":55.42688099999965,"velocity":0.3858267716535433,"duration":0.09070130416666444},{"name":"B4","midi":71,"time":55.51834449999965,"velocity":0.3858267716535433,"duration":0.09070130416666444},{"name":"A4","midi":69,"time":55.609807999999646,"velocity":0.3858267716535433,"duration":0.09070130416666444},{"name":"E4","midi":64,"time":55.70127149999964,"velocity":0.4094488188976378,"duration":0.09070130416666444},{"name":"F#4","midi":66,"time":55.79273499999964,"velocity":0.41732283464566927,"duration":0.09070130416666444},{"name":"G#4","midi":68,"time":55.884198499999634,"velocity":0.4330708661417323,"duration":0.09070130416666444},{"name":"A4","midi":69,"time":55.97566199999963,"velocity":0.4409448818897638,"duration":0.09070130416666444},{"name":"B4","midi":71,"time":56.06712549999963,"velocity":0.4566929133858268,"duration":0.09070130416666444},{"name":"C#5","midi":73,"time":56.15858899999962,"velocity":0.4645669291338583,"duration":0.09070130416666444},{"name":"B4","midi":71,"time":56.25005249999962,"velocity":0.47244094488188976,"duration":0.09070130416666444},{"name":"A4","midi":69,"time":56.341515999999615,"velocity":0.4881889763779528,"duration":0.09070130416666444},{"name":"E4","midi":64,"time":56.43297949999961,"velocity":0.49606299212598426,"duration":0.09070130416666444},{"name":"F#4","midi":66,"time":56.52444299999961,"velocity":0.5118110236220472,"duration":0.09070130416666444},{"name":"G#4","midi":68,"time":56.6159064999996,"velocity":0.5196850393700787,"duration":0.09070130416666444},{"name":"A4","midi":69,"time":56.7073699999996,"velocity":0.5354330708661418,"duration":0.09070130416666444},{"name":"B4","midi":71,"time":56.798833499999596,"velocity":0.5433070866141733,"duration":0.09070130416666444},{"name":"C#5","midi":73,"time":56.89029699999959,"velocity":0.5511811023622047,"duration":0.09070130416666444},{"name":"B4","midi":71,"time":56.98176049999959,"velocity":0.5669291338582677,"duration":0.09070130416666444},{"name":"A4","midi":69,"time":57.073223999999584,"velocity":0.5748031496062992,"duration":0.09070130416666444},{"name":"E4","midi":64,"time":57.16468749999958,"velocity":0.5905511811023622,"duration":0.09070130416666444},{"name":"F#4","midi":66,"time":57.256150999999576,"velocity":0.5984251968503937,"duration":0.09070130416666444},{"name":"G#4","midi":68,"time":57.34761449999957,"velocity":0.6062992125984252,"duration":0.09070130416666444},{"name":"A4","midi":69,"time":57.43907799999957,"velocity":0.6220472440944882,"duration":0.09070130416666444},{"name":"B4","midi":71,"time":57.530541499999565,"velocity":0.6299212598425197,"duration":0.09070130416666444},{"name":"C#5","midi":73,"time":57.62200499999956,"velocity":0.6456692913385826,"duration":0.09070130416666444},{"name":"D5","midi":74,"time":57.71346849999956,"velocity":0.6535433070866141,"duration":0.09070130416666444},{"name":"E5","midi":76,"time":57.80493199999955,"velocity":0.6692913385826772,"duration":0.09070130416666444},{"name":"F#5","midi":78,"time":57.89639549999955,"velocity":0.6771653543307087,"duration":0.09070130416666444},{"name":"G#5","midi":80,"time":57.987858999999546,"velocity":0.6850393700787402,"duration":0.09070130416666444},{"name":"A5","midi":81,"time":58.07932249999954,"velocity":0.7007874015748031,"duration":0.09070130416666444},{"name":"B5","midi":83,"time":58.17078599999954,"velocity":0.7086614173228346,"duration":0.09070130416666444},{"name":"C#6","midi":85,"time":58.262249499999534,"velocity":0.7244094488188977,"duration":0.09070130416666444},{"name":"D6","midi":86,"time":58.35371299999953,"velocity":0.7322834645669292,"duration":0.09070130416666444},{"name":"D#6","midi":87,"time":58.445176499999526,"velocity":0.7480314960629921,"duration":0.09070130416666444},{"name":"E5","midi":76,"time":58.53663999999952,"velocity":0.7559055118110236,"duration":0.7309458041666659},{"name":"E6","midi":88,"time":58.53663999999952,"velocity":0.7559055118110236,"duration":0.7309458041666659},{"name":"G#4","midi":68,"time":59.26834799999952,"velocity":0.7559055118110236,"duration":0.7309458041666659},{"name":"G#5","midi":80,"time":59.26834799999952,"velocity":0.7559055118110236,"duration":0.7309458041666659},{"name":"B4","midi":71,"time":60.00005599999952,"velocity":0.7559055118110236,"duration":0.7309458041666659},{"name":"B5","midi":83,"time":60.00005599999952,"velocity":0.7559055118110236,"duration":0.7309458041666659},{"name":"C#4","midi":61,"time":60.731763999999515,"velocity":0.7559055118110236,"duration":0.7309458041666659},{"name":"G4","midi":67,"time":60.731763999999515,"velocity":0.7559055118110236,"duration":0.7309458041666659},{"name":"G3","midi":55,"time":60.731763999999515,"velocity":0.7559055118110236,"duration":0.7309458041666659},{"name":"B3","midi":59,"time":61.46347199999951,"velocity":0.7559055118110236,"duration":0.1821648041666677},{"name":"G#4","midi":68,"time":61.46347199999951,"velocity":0.7559055118110236,"duration":0.1821648041666677},{"name":"G#3","midi":56,"time":61.46347199999951,"velocity":0.7559055118110236,"duration":0.1821648041666677},{"name":"D#4","midi":63,"time":61.64639899999951,"velocity":0.3858267716535433,"duration":0.09070130416666444},{"name":"B4","midi":71,"time":61.64639899999951,"velocity":0.3858267716535433,"duration":0.09070130416666444},{"name":"D#4","midi":63,"time":61.82932599999951,"velocity":0.3858267716535433,"duration":0.09070130416666444},{"name":"B4","midi":71,"time":61.82932599999951,"velocity":0.3858267716535433,"duration":0.09070130416666444},{"name":"D#4","midi":63,"time":62.01225299999951,"velocity":0.3858267716535433,"duration":0.09070130416666444},{"name":"B4","midi":71,"time":62.01225299999951,"velocity":0.3858267716535433,"duration":0.09070130416666444},{"name":"D#4","midi":63,"time":62.19517999999951,"velocity":0.3858267716535433,"duration":0.09070130416666444},{"name":"B4","midi":71,"time":62.19517999999951,"velocity":0.3858267716535433,"duration":0.09070130416666444},{"name":"D#4","midi":63,"time":62.37810699999951,"velocity":0.3858267716535433,"duration":0.09070130416666444},{"name":"B4","midi":71,"time":62.37810699999951,"velocity":0.3858267716535433,"duration":0.09070130416666444},{"name":"D#4","midi":63,"time":62.56103399999951,"velocity":0.3858267716535433,"duration":0.09070130416666444},{"name":"A#4","midi":70,"time":62.56103399999951,"velocity":0.3858267716535433,"duration":0.09070130416666444},{"name":"D#4","midi":63,"time":62.74396099999951,"velocity":0.3858267716535433,"duration":0.09070130416666444},{"name":"G#4","midi":68,"time":62.74396099999951,"velocity":0.3858267716535433,"duration":0.09070130416666444},{"name":"D#4","midi":63,"time":62.92688799999951,"velocity":0.3858267716535433,"duration":0.09070130416666444},{"name":"G4","midi":67,"time":62.92688799999951,"velocity":0.3858267716535433,"duration":0.09070130416666444},{"name":"G4","midi":67,"time":63.10981499999951,"velocity":0.3858267716535433,"duration":0.09070130416666444},{"name":"D#5","midi":75,"time":63.10981499999951,"velocity":0.3858267716535433,"duration":0.09070130416666444},{"name":"G4","midi":67,"time":63.29274199999951,"velocity":0.3858267716535433,"duration":0.09070130416666444},{"name":"D#5","midi":75,"time":63.29274199999951,"velocity":0.3858267716535433,"duration":0.09070130416666444},{"name":"G4","midi":67,"time":63.475668999999506,"velocity":0.3858267716535433,"duration":0.09070130416666444},{"name":"D#5","midi":75,"time":63.475668999999506,"velocity":0.3858267716535433,"duration":0.09070130416666444},{"name":"G4","midi":67,"time":63.658595999999505,"velocity":0.3858267716535433,"duration":0.09070130416666444},{"name":"D#5","midi":75,"time":63.658595999999505,"velocity":0.3858267716535433,"duration":0.09070130416666444},{"name":"G4","midi":67,"time":63.841522999999505,"velocity":0.3858267716535433,"duration":0.09070130416666444},{"name":"D#5","midi":75,"time":63.841522999999505,"velocity":0.3858267716535433,"duration":0.09070130416666444},{"name":"G#4","midi":68,"time":64.0244499999995,"velocity":0.3858267716535433,"duration":0.09070130416667155},{"name":"D#5","midi":75,"time":64.0244499999995,"velocity":0.3858267716535433,"duration":0.09070130416667155},{"name":"A#4","midi":70,"time":64.20737699999951,"velocity":0.3858267716535433,"duration":0.09070130416667155},{"name":"D#5","midi":75,"time":64.20737699999951,"velocity":0.3858267716535433,"duration":0.09070130416667155},{"name":"B4","midi":71,"time":64.39030399999952,"velocity":0.3858267716535433,"duration":0.09070130416667155},{"name":"D#5","midi":75,"time":64.39030399999952,"velocity":0.3858267716535433,"duration":0.09070130416667155},{"name":"D#4","midi":63,"time":64.57323099999952,"velocity":0.3858267716535433,"duration":0.09070130416667155},{"name":"B4","midi":71,"time":64.57323099999952,"velocity":0.3858267716535433,"duration":0.09070130416667155},{"name":"D#4","midi":63,"time":64.75615799999953,"velocity":0.3858267716535433,"duration":0.09070130416667155},{"name":"B4","midi":71,"time":64.75615799999953,"velocity":0.3858267716535433,"duration":0.09070130416667155},{"name":"D#4","midi":63,"time":64.93908499999954,"velocity":0.3858267716535433,"duration":0.09070130416667155},{"name":"B4","midi":71,"time":64.93908499999954,"velocity":0.3858267716535433,"duration":0.09070130416667155},{"name":"D#4","midi":63,"time":65.12201199999954,"velocity":0.3858267716535433,"duration":0.09070130416667155},{"name":"B4","midi":71,"time":65.12201199999954,"velocity":0.3858267716535433,"duration":0.09070130416667155},{"name":"D#4","midi":63,"time":65.30493899999955,"velocity":0.3858267716535433,"duration":0.09070130416667155},{"name":"B4","midi":71,"time":65.30493899999955,"velocity":0.3858267716535433,"duration":0.09070130416667155},{"name":"D#4","midi":63,"time":65.48786599999956,"velocity":0.3858267716535433,"duration":0.09070130416667155},{"name":"A#4","midi":70,"time":65.48786599999956,"velocity":0.3858267716535433,"duration":0.09070130416667155},{"name":"D#4","midi":63,"time":65.67079299999956,"velocity":0.3858267716535433,"duration":0.09070130416667155},{"name":"G#4","midi":68,"time":65.67079299999956,"velocity":0.3858267716535433,"duration":0.09070130416667155},{"name":"D#4","midi":63,"time":65.85371999999957,"velocity":0.3858267716535433,"duration":0.09070130416667155},{"name":"G4","midi":67,"time":65.85371999999957,"velocity":0.3858267716535433,"duration":0.09070130416667155},{"name":"G4","midi":67,"time":66.03664699999958,"velocity":0.3858267716535433,"duration":0.09070130416667155},{"name":"D#5","midi":75,"time":66.03664699999958,"velocity":0.3858267716535433,"duration":0.09070130416667155},{"name":"G4","midi":67,"time":66.21957399999958,"velocity":0.3858267716535433,"duration":0.09070130416667155},{"name":"D#5","midi":75,"time":66.21957399999958,"velocity":0.3858267716535433,"duration":0.09070130416667155},{"name":"G4","midi":67,"time":66.40250099999959,"velocity":0.3858267716535433,"duration":0.09070130416667155},{"name":"D#5","midi":75,"time":66.40250099999959,"velocity":0.3858267716535433,"duration":0.09070130416667155},{"name":"G4","midi":67,"time":66.5854279999996,"velocity":0.3858267716535433,"duration":0.09070130416667155},{"name":"D#5","midi":75,"time":66.5854279999996,"velocity":0.3858267716535433,"duration":0.09070130416667155},{"name":"G4","midi":67,"time":66.7683549999996,"velocity":0.3858267716535433,"duration":0.09070130416667155},{"name":"D#5","midi":75,"time":66.7683549999996,"velocity":0.3858267716535433,"duration":0.09070130416667155},{"name":"G#4","midi":68,"time":66.95128199999961,"velocity":0.3858267716535433,"duration":0.09070130416667155},{"name":"D#5","midi":75,"time":66.95128199999961,"velocity":0.3858267716535433,"duration":0.09070130416667155},{"name":"A#4","midi":70,"time":67.13420899999961,"velocity":0.3858267716535433,"duration":0.09070130416667155},{"name":"D#5","midi":75,"time":67.13420899999961,"velocity":0.3858267716535433,"duration":0.09070130416667155},{"name":"B4","midi":71,"time":67.31713599999962,"velocity":0.3858267716535433,"duration":0.09070130416667155},{"name":"D#5","midi":75,"time":67.31713599999962,"velocity":0.3858267716535433,"duration":0.09070130416667155},{"name":"B4","midi":71,"time":67.50006299999963,"velocity":0.3858267716535433,"duration":0.09070130416667155},{"name":"D#5","midi":75,"time":67.50006299999963,"velocity":0.3858267716535433,"duration":0.09070130416667155},{"name":"B4","midi":71,"time":67.68298999999963,"velocity":0.3858267716535433,"duration":0.1821648041666606},{"name":"D#5","midi":75,"time":67.68298999999963,"velocity":0.3858267716535433,"duration":0.1821648041666606},{"name":"G#4","midi":68,"time":67.86591699999963,"velocity":0.3858267716535433,"duration":0.1821648041666606},{"name":"B4","midi":71,"time":67.86591699999963,"velocity":0.3858267716535433,"duration":0.1821648041666606},{"name":"C#5","midi":73,"time":68.23177099999963,"velocity":0.3858267716535433,"duration":0.09070130416667155},{"name":"E5","midi":76,"time":68.23177099999963,"velocity":0.3858267716535433,"duration":0.09070130416667155},{"name":"C#5","midi":73,"time":68.41469799999963,"velocity":0.3858267716535433,"duration":0.1821648041666606},{"name":"E5","midi":76,"time":68.41469799999963,"velocity":0.3858267716535433,"duration":0.1821648041666606},{"name":"G#4","midi":68,"time":68.59762499999962,"velocity":0.3858267716535433,"duration":0.1821648041666606},{"name":"C#5","midi":73,"time":68.59762499999962,"velocity":0.3858267716535433,"duration":0.1821648041666606},{"name":"B4","midi":71,"time":68.96347899999962,"velocity":0.3858267716535433,"duration":0.09070130416667155},{"name":"D#5","midi":75,"time":68.96347899999962,"velocity":0.3858267716535433,"duration":0.09070130416667155},{"name":"B4","midi":71,"time":69.14640599999963,"velocity":0.3858267716535433,"duration":0.1821648041666606},{"name":"D#5","midi":75,"time":69.14640599999963,"velocity":0.3858267716535433,"duration":0.1821648041666606},{"name":"G#4","midi":68,"time":69.32933299999962,"velocity":0.3858267716535433,"duration":0.1821648041666606},{"name":"B4","midi":71,"time":69.32933299999962,"velocity":0.3858267716535433,"duration":0.1821648041666606},{"name":"A#4","midi":70,"time":69.69518699999962,"velocity":0.3858267716535433,"duration":0.09070130416667155},{"name":"D#5","midi":75,"time":69.69518699999962,"velocity":0.3858267716535433,"duration":0.09070130416667155},{"name":"A#4","midi":70,"time":69.87811399999963,"velocity":0.3858267716535433,"duration":0.1821648041666606},{"name":"D#5","midi":75,"time":69.87811399999963,"velocity":0.3858267716535433,"duration":0.1821648041666606},{"name":"G4","midi":67,"time":70.06104099999962,"velocity":0.3858267716535433,"duration":0.1821648041666606},{"name":"A#4","midi":70,"time":70.06104099999962,"velocity":0.3858267716535433,"duration":0.1821648041666606},{"name":"G#4","midi":68,"time":70.24396799999961,"velocity":0.3858267716535433,"duration":0.09070130416667155},{"name":"B4","midi":71,"time":70.24396799999961,"velocity":0.3858267716535433,"duration":0.09070130416667155},{"name":"B4","midi":71,"time":70.42689499999962,"velocity":0.3858267716535433,"duration":0.09070130416667155},{"name":"D#5","midi":75,"time":70.42689499999962,"velocity":0.3858267716535433,"duration":0.09070130416667155},{"name":"B5","midi":83,"time":70.42689499999962,"velocity":0.3858267716535433,"duration":0.09070130416667155},{"name":"B4","midi":71,"time":70.60982199999962,"velocity":0.3858267716535433,"duration":0.09070130416667155},{"name":"D#5","midi":75,"time":70.60982199999962,"velocity":0.3858267716535433,"duration":0.09070130416667155},{"name":"B5","midi":83,"time":70.60982199999962,"velocity":0.3858267716535433,"duration":0.09070130416667155},{"name":"B4","midi":71,"time":70.79274899999963,"velocity":0.3858267716535433,"duration":0.09070130416667155},{"name":"D#5","midi":75,"time":70.79274899999963,"velocity":0.3858267716535433,"duration":0.09070130416667155},{"name":"B5","midi":83,"time":70.79274899999963,"velocity":0.3858267716535433,"duration":0.09070130416667155},{"name":"B4","midi":71,"time":70.97567599999964,"velocity":0.4881889763779528,"duration":0.09070130416667155},{"name":"D#5","midi":75,"time":70.97567599999964,"velocity":0.4881889763779528,"duration":0.09070130416667155},{"name":"B5","midi":83,"time":70.97567599999964,"velocity":0.4881889763779528,"duration":0.09070130416667155},{"name":"B4","midi":71,"time":71.15860299999964,"velocity":0.5433070866141733,"duration":0.09070130416667155},{"name":"D#5","midi":75,"time":71.15860299999964,"velocity":0.5433070866141733,"duration":0.09070130416667155},{"name":"B5","midi":83,"time":71.15860299999964,"velocity":0.5433070866141733,"duration":0.09070130416667155},{"name":"A#4","midi":70,"time":71.34152999999965,"velocity":0.5984251968503937,"duration":0.09070130416667155},{"name":"C#5","midi":73,"time":71.34152999999965,"velocity":0.5984251968503937,"duration":0.09070130416667155},{"name":"A#5","midi":82,"time":71.34152999999965,"velocity":0.5984251968503937,"duration":0.09070130416667155},{"name":"G#4","midi":68,"time":71.52445699999966,"velocity":0.6535433070866141,"duration":0.09070130416667155},{"name":"B4","midi":71,"time":71.52445699999966,"velocity":0.6535433070866141,"duration":0.09070130416667155},{"name":"G#5","midi":80,"time":71.52445699999966,"velocity":0.6535433070866141,"duration":0.09070130416667155},{"name":"G4","midi":67,"time":71.70738399999966,"velocity":0.7007874015748031,"duration":0.09070130416667155},{"name":"A#4","midi":70,"time":71.70738399999966,"velocity":0.7007874015748031,"duration":0.09070130416667155},{"name":"G5","midi":79,"time":71.70738399999966,"velocity":0.7007874015748031,"duration":0.09070130416667155},{"name":"E5","midi":76,"time":71.89031099999967,"velocity":0.7559055118110236,"duration":0.09070130416667155},{"name":"G5","midi":79,"time":71.89031099999967,"velocity":0.7559055118110236,"duration":0.09070130416667155},{"name":"E6","midi":88,"time":71.89031099999967,"velocity":0.7559055118110236,"duration":0.09070130416667155},{"name":"E5","midi":76,"time":72.07323799999968,"velocity":0.7559055118110236,"duration":0.09070130416667155},{"name":"G5","midi":79,"time":72.07323799999968,"velocity":0.7559055118110236,"duration":0.09070130416667155},{"name":"E6","midi":88,"time":72.07323799999968,"velocity":0.7559055118110236,"duration":0.09070130416667155},{"name":"E5","midi":76,"time":72.25616499999968,"velocity":0.7559055118110236,"duration":0.09070130416667155},{"name":"G5","midi":79,"time":72.25616499999968,"velocity":0.7559055118110236,"duration":0.09070130416667155},{"name":"E6","midi":88,"time":72.25616499999968,"velocity":0.7559055118110236,"duration":0.09070130416667155},{"name":"E5","midi":76,"time":72.43909199999969,"velocity":0.7559055118110236,"duration":0.09070130416667155},{"name":"G5","midi":79,"time":72.43909199999969,"velocity":0.7559055118110236,"duration":0.09070130416667155},{"name":"E6","midi":88,"time":72.43909199999969,"velocity":0.7559055118110236,"duration":0.09070130416667155},{"name":"E5","midi":76,"time":72.6220189999997,"velocity":0.7559055118110236,"duration":0.09070130416667155},{"name":"G5","midi":79,"time":72.6220189999997,"velocity":0.7559055118110236,"duration":0.09070130416667155},{"name":"E6","midi":88,"time":72.6220189999997,"velocity":0.7559055118110236,"duration":0.09070130416667155},{"name":"D#5","midi":75,"time":72.8049459999997,"velocity":0.7559055118110236,"duration":0.09070130416667155},{"name":"G5","midi":79,"time":72.8049459999997,"velocity":0.7559055118110236,"duration":0.09070130416667155},{"name":"D#6","midi":87,"time":72.8049459999997,"velocity":0.7559055118110236,"duration":0.09070130416667155},{"name":"C#5","midi":73,"time":72.98787299999971,"velocity":0.7559055118110236,"duration":0.09070130416667155},{"name":"G5","midi":79,"time":72.98787299999971,"velocity":0.7559055118110236,"duration":0.09070130416667155},{"name":"C#6","midi":85,"time":72.98787299999971,"velocity":0.7559055118110236,"duration":0.09070130416667155},{"name":"B4","midi":71,"time":73.17079999999972,"velocity":0.7559055118110236,"duration":0.09070130416667155},{"name":"G#5","midi":80,"time":73.17079999999972,"velocity":0.7559055118110236,"duration":0.09070130416667155},{"name":"B5","midi":83,"time":73.17079999999972,"velocity":0.7559055118110236,"duration":0.09070130416667155},{"name":"B4","midi":71,"time":73.35372699999972,"velocity":0.3858267716535433,"duration":0.09070130416667155},{"name":"D#5","midi":75,"time":73.35372699999972,"velocity":0.3858267716535433,"duration":0.09070130416667155},{"name":"B5","midi":83,"time":73.35372699999972,"velocity":0.3858267716535433,"duration":0.09070130416667155},{"name":"B4","midi":71,"time":73.53665399999973,"velocity":0.3858267716535433,"duration":0.09070130416667155},{"name":"D#5","midi":75,"time":73.53665399999973,"velocity":0.3858267716535433,"duration":0.09070130416667155},{"name":"B5","midi":83,"time":73.53665399999973,"velocity":0.3858267716535433,"duration":0.09070130416667155},{"name":"B4","midi":71,"time":73.71958099999974,"velocity":0.3858267716535433,"duration":0.09070130416667155},{"name":"D#5","midi":75,"time":73.71958099999974,"velocity":0.3858267716535433,"duration":0.09070130416667155},{"name":"B5","midi":83,"time":73.71958099999974,"velocity":0.3858267716535433,"duration":0.09070130416667155},{"name":"B4","midi":71,"time":73.90250799999974,"velocity":0.4881889763779528,"duration":0.09070130416667155},{"name":"D#5","midi":75,"time":73.90250799999974,"velocity":0.4881889763779528,"duration":0.09070130416667155},{"name":"B5","midi":83,"time":73.90250799999974,"velocity":0.4881889763779528,"duration":0.09070130416667155},{"name":"B4","midi":71,"time":74.08543499999975,"velocity":0.5433070866141733,"duration":0.09070130416667155},{"name":"D#5","midi":75,"time":74.08543499999975,"velocity":0.5433070866141733,"duration":0.09070130416667155},{"name":"B5","midi":83,"time":74.08543499999975,"velocity":0.5433070866141733,"duration":0.09070130416667155},{"name":"A#4","midi":70,"time":74.26836199999975,"velocity":0.5984251968503937,"duration":0.09070130416667155},{"name":"C#5","midi":73,"time":74.26836199999975,"velocity":0.5984251968503937,"duration":0.09070130416667155},{"name":"A#5","midi":82,"time":74.26836199999975,"velocity":0.5984251968503937,"duration":0.09070130416667155},{"name":"G#4","midi":68,"time":74.45128899999976,"velocity":0.6535433070866141,"duration":0.09070130416667155},{"name":"B4","midi":71,"time":74.45128899999976,"velocity":0.6535433070866141,"duration":0.09070130416667155},{"name":"G#5","midi":80,"time":74.45128899999976,"velocity":0.6535433070866141,"duration":0.09070130416667155},{"name":"G4","midi":67,"time":74.63421599999977,"velocity":0.7007874015748031,"duration":0.09070130416667155},{"name":"A#4","midi":70,"time":74.63421599999977,"velocity":0.7007874015748031,"duration":0.09070130416667155},{"name":"G5","midi":79,"time":74.63421599999977,"velocity":0.7007874015748031,"duration":0.09070130416667155},{"name":"E5","midi":76,"time":74.81714299999977,"velocity":0.7559055118110236,"duration":0.09070130416667155},{"name":"G5","midi":79,"time":74.81714299999977,"velocity":0.7559055118110236,"duration":0.09070130416667155},{"name":"E6","midi":88,"time":74.81714299999977,"velocity":0.7559055118110236,"duration":0.09070130416667155},{"name":"E5","midi":76,"time":75.00006999999978,"velocity":0.7559055118110236,"duration":0.09070130416667155},{"name":"G5","midi":79,"time":75.00006999999978,"velocity":0.7559055118110236,"duration":0.09070130416667155},{"name":"E6","midi":88,"time":75.00006999999978,"velocity":0.7559055118110236,"duration":0.09070130416667155},{"name":"E5","midi":76,"time":75.18299699999979,"velocity":0.7559055118110236,"duration":0.09070130416667155},{"name":"G5","midi":79,"time":75.18299699999979,"velocity":0.7559055118110236,"duration":0.09070130416667155},{"name":"E6","midi":88,"time":75.18299699999979,"velocity":0.7559055118110236,"duration":0.09070130416667155},{"name":"E5","midi":76,"time":75.3659239999998,"velocity":0.7559055118110236,"duration":0.09070130416667155},{"name":"G5","midi":79,"time":75.3659239999998,"velocity":0.7559055118110236,"duration":0.09070130416667155},{"name":"E6","midi":88,"time":75.3659239999998,"velocity":0.7559055118110236,"duration":0.09070130416667155},{"name":"E5","midi":76,"time":75.5488509999998,"velocity":0.7559055118110236,"duration":0.09070130416667155},{"name":"G5","midi":79,"time":75.5488509999998,"velocity":0.7559055118110236,"duration":0.09070130416667155},{"name":"E6","midi":88,"time":75.5488509999998,"velocity":0.7559055118110236,"duration":0.09070130416667155},{"name":"D#5","midi":75,"time":75.7317779999998,"velocity":0.7559055118110236,"duration":0.09070130416667155},{"name":"G5","midi":79,"time":75.7317779999998,"velocity":0.7559055118110236,"duration":0.09070130416667155},{"name":"D#6","midi":87,"time":75.7317779999998,"velocity":0.7559055118110236,"duration":0.09070130416667155},{"name":"C#5","midi":73,"time":75.91470499999981,"velocity":0.7559055118110236,"duration":0.09070130416667155},{"name":"G5","midi":79,"time":75.91470499999981,"velocity":0.7559055118110236,"duration":0.09070130416667155},{"name":"C#6","midi":85,"time":75.91470499999981,"velocity":0.7559055118110236,"duration":0.09070130416667155},{"name":"B4","midi":71,"time":76.09763199999982,"velocity":0.7559055118110236,"duration":0.09070130416667155},{"name":"G#5","midi":80,"time":76.09763199999982,"velocity":0.7559055118110236,"duration":0.09070130416667155},{"name":"B5","midi":83,"time":76.09763199999982,"velocity":0.7559055118110236,"duration":0.09070130416667155},{"name":"G#5","midi":80,"time":76.28055899999983,"velocity":0.3858267716535433,"duration":0.09070130416667155},{"name":"B5","midi":83,"time":76.28055899999983,"velocity":0.3858267716535433,"duration":0.09070130416667155},{"name":"G#5","midi":80,"time":76.46348599999983,"velocity":0.3858267716535433,"duration":0.1821648041666606},{"name":"B5","midi":83,"time":76.46348599999983,"velocity":0.3858267716535433,"duration":0.1821648041666606},{"name":"B5","midi":83,"time":76.64641299999982,"velocity":0.3858267716535433,"duration":0.1821648041666606},{"name":"D#6","midi":87,"time":76.64641299999982,"velocity":0.3858267716535433,"duration":0.1821648041666606},{"name":"G#5","midi":80,"time":77.01226699999982,"velocity":0.3858267716535433,"duration":0.09070130416667155},{"name":"C#6","midi":85,"time":77.01226699999982,"velocity":0.3858267716535433,"duration":0.09070130416667155},{"name":"G#5","midi":80,"time":77.19519399999983,"velocity":0.3858267716535433,"duration":0.1821648041666606},{"name":"C#6","midi":85,"time":77.19519399999983,"velocity":0.3858267716535433,"duration":0.1821648041666606},{"name":"C#6","midi":85,"time":77.37812099999982,"velocity":0.3858267716535433,"duration":0.1821648041666606},{"name":"E6","midi":88,"time":77.37812099999982,"velocity":0.3858267716535433,"duration":0.1821648041666606},{"name":"G#5","midi":80,"time":77.74397499999982,"velocity":0.3858267716535433,"duration":0.09070130416667155},{"name":"B5","midi":83,"time":77.74397499999982,"velocity":0.3858267716535433,"duration":0.09070130416667155},{"name":"G#5","midi":80,"time":77.92690199999983,"velocity":0.3858267716535433,"duration":0.1821648041666606},{"name":"B5","midi":83,"time":77.92690199999983,"velocity":0.3858267716535433,"duration":0.1821648041666606},{"name":"B5","midi":83,"time":78.10982899999982,"velocity":0.3858267716535433,"duration":0.1821648041666606},{"name":"D#6","midi":87,"time":78.10982899999982,"velocity":0.3858267716535433,"duration":0.1821648041666606},{"name":"G5","midi":79,"time":78.47568299999982,"velocity":0.3858267716535433,"duration":0.09070130416667155},{"name":"A#5","midi":82,"time":78.47568299999982,"velocity":0.3858267716535433,"duration":0.09070130416667155},{"name":"G5","midi":79,"time":78.65860999999983,"velocity":0.3858267716535433,"duration":0.1821648041666606},{"name":"A#5","midi":82,"time":78.65860999999983,"velocity":0.3858267716535433,"duration":0.1821648041666606},{"name":"A#5","midi":82,"time":78.84153699999982,"velocity":0.3858267716535433,"duration":0.1821648041666606},{"name":"D#6","midi":87,"time":78.84153699999982,"velocity":0.3858267716535433,"duration":0.1821648041666606},{"name":"D#5","midi":75,"time":79.20739099999982,"velocity":0.3858267716535433,"duration":0.09070130416667155},{"name":"B5","midi":83,"time":79.20739099999982,"velocity":0.3858267716535433,"duration":0.09070130416667155},{"name":"D#5","midi":75,"time":79.39031799999982,"velocity":0.4094488188976378,"duration":0.1821648041666606},{"name":"B5","midi":83,"time":79.39031799999982,"velocity":0.4094488188976378,"duration":0.1821648041666606},{"name":"G#5","midi":80,"time":79.57324499999982,"velocity":0.4251968503937008,"duration":0.1821648041666606},{"name":"D#6","midi":87,"time":79.57324499999982,"velocity":0.4251968503937008,"duration":0.1821648041666606},{"name":"C#5","midi":73,"time":79.93909899999981,"velocity":0.4409448818897638,"duration":0.09070130416667155},{"name":"A5","midi":81,"time":79.93909899999981,"velocity":0.4409448818897638,"duration":0.09070130416667155},{"name":"C#5","midi":73,"time":80.12202599999982,"velocity":0.44881889763779526,"duration":0.1821648041666606},{"name":"A5","midi":81,"time":80.12202599999982,"velocity":0.44881889763779526,"duration":0.1821648041666606},{"name":"E5","midi":76,"time":80.30495299999981,"velocity":0.4645669291338583,"duration":0.1821648041666606},{"name":"C#6","midi":85,"time":80.30495299999981,"velocity":0.4645669291338583,"duration":0.1821648041666606},{"name":"B4","midi":71,"time":80.67080699999981,"velocity":0.48031496062992124,"duration":0.09070130416667155},{"name":"G#5","midi":80,"time":80.67080699999981,"velocity":0.48031496062992124,"duration":0.09070130416667155},{"name":"B4","midi":71,"time":80.85373399999982,"velocity":0.49606299212598426,"duration":0.1821648041666606},{"name":"G#5","midi":80,"time":80.85373399999982,"velocity":0.49606299212598426,"duration":0.1821648041666606},{"name":"D#5","midi":75,"time":81.03666099999981,"velocity":0.5039370078740157,"duration":0.1821648041666606},{"name":"B5","midi":83,"time":81.03666099999981,"velocity":0.5039370078740157,"duration":0.1821648041666606},{"name":"A#4","midi":70,"time":81.40251499999981,"velocity":0.44881889763779526,"duration":0.09070130416667155},{"name":"G5","midi":79,"time":81.40251499999981,"velocity":0.44881889763779526,"duration":0.09070130416667155},{"name":"A#4","midi":70,"time":81.58544199999982,"velocity":0.4251968503937008,"duration":0.1821648041666606},{"name":"G5","midi":79,"time":81.58544199999982,"velocity":0.4251968503937008,"duration":0.1821648041666606},{"name":"C#5","midi":73,"time":81.76836899999981,"velocity":0.4094488188976378,"duration":0.1821648041666606},{"name":"A#5","midi":82,"time":81.76836899999981,"velocity":0.4094488188976378,"duration":0.1821648041666606},{"name":"B4","midi":71,"time":81.9512959999998,"velocity":0.3858267716535433,"duration":0.3650918041666671},{"name":"G#5","midi":80,"time":81.9512959999998,"velocity":0.3858267716535433,"duration":0.3650918041666671},{"name":"B4","midi":71,"time":83.0488579999998,"velocity":0.3858267716535433,"duration":0.27362830416666384},{"name":"G#4","midi":68,"time":83.32324849999979,"velocity":0.3858267716535433,"duration":0.09070130416667155},{"name":"G4","midi":67,"time":83.4147119999998,"velocity":0.3858267716535433,"duration":0.3650918041666671},{"name":"C#4","midi":61,"time":83.7805659999998,"velocity":0.3858267716535433,"duration":0.1821648041666606},{"name":"G4","midi":67,"time":83.7805659999998,"velocity":0.3858267716535433,"duration":0.1821648041666606},{"name":"D#5","midi":75,"time":83.7805659999998,"velocity":0.3858267716535433,"duration":0.1821648041666606},{"name":"C#4","midi":61,"time":84.1464199999998,"velocity":0.3858267716535433,"duration":0.1821648041666606},{"name":"G4","midi":67,"time":84.1464199999998,"velocity":0.3858267716535433,"duration":0.1821648041666606},{"name":"D#5","midi":75,"time":84.1464199999998,"velocity":0.3858267716535433,"duration":0.1821648041666606},{"name":"C#4","midi":61,"time":84.51227399999979,"velocity":0.3858267716535433,"duration":0.1821648041666606},{"name":"G4","midi":67,"time":84.51227399999979,"velocity":0.3858267716535433,"duration":0.1821648041666606},{"name":"D#5","midi":75,"time":84.51227399999979,"velocity":0.3858267716535433,"duration":0.1821648041666606},{"name":"B3","midi":59,"time":84.87812799999979,"velocity":0.3858267716535433,"duration":0.06326225416667342},{"name":"G#4","midi":68,"time":84.9421524499998,"velocity":0.3858267716535433,"duration":0.06326225416667342},{"name":"D#5","midi":75,"time":85.00693909583313,"velocity":0.3858267716535433,"duration":0.9672265125000052},{"name":"B5","midi":83,"time":85.9756899999998,"velocity":0.3858267716535433,"duration":0.27362830416666384},{"name":"G#5","midi":80,"time":86.2500804999998,"velocity":0.3858267716535433,"duration":0.09070130416667155},{"name":"G5","midi":79,"time":86.3415439999998,"velocity":0.3858267716535433,"duration":0.3650918041666671},{"name":"C#5","midi":73,"time":86.7073979999998,"velocity":0.3858267716535433,"duration":0.1821648041666606},{"name":"G5","midi":79,"time":86.7073979999998,"velocity":0.3858267716535433,"duration":0.1821648041666606},{"name":"D#6","midi":87,"time":86.7073979999998,"velocity":0.3858267716535433,"duration":0.1821648041666606},{"name":"C#5","midi":73,"time":87.0732519999998,"velocity":0.3858267716535433,"duration":0.1821648041666606},{"name":"G5","midi":79,"time":87.0732519999998,"velocity":0.3858267716535433,"duration":0.1821648041666606},{"name":"D#6","midi":87,"time":87.0732519999998,"velocity":0.3858267716535433,"duration":0.1821648041666606},{"name":"C#5","midi":73,"time":87.4391059999998,"velocity":0.3858267716535433,"duration":0.1821648041666606},{"name":"G5","midi":79,"time":87.4391059999998,"velocity":0.3858267716535433,"duration":0.1821648041666606},{"name":"D#6","midi":87,"time":87.4391059999998,"velocity":0.3858267716535433,"duration":0.1821648041666606},{"name":"B4","midi":71,"time":87.8049599999998,"velocity":0.3858267716535433,"duration":0.06326225416667342},{"name":"G#5","midi":80,"time":87.8689844499998,"velocity":0.3858267716535433,"duration":0.06326225416667342},{"name":"D#6","midi":87,"time":87.93377109583314,"velocity":0.3858267716535433,"duration":0.6013725125000065},{"name":"C#5","midi":73,"time":88.5366679999998,"velocity":0.3858267716535433,"duration":0.06326225416667342},{"name":"G5","midi":79,"time":88.60069244999981,"velocity":0.3858267716535433,"duration":0.06326225416667342},{"name":"D#6","midi":87,"time":88.66547909583315,"velocity":0.3858267716535433,"duration":0.6013725125000065},{"name":"B4","midi":71,"time":89.26837599999982,"velocity":0.3858267716535433,"duration":0.06326225416667342},{"name":"G#5","midi":80,"time":89.33240044999982,"velocity":0.3858267716535433,"duration":0.06326225416667342},{"name":"D#6","midi":87,"time":89.39718709583316,"velocity":0.3858267716535433,"duration":0.6013725125000065},{"name":"C#5","midi":73,"time":90.00008399999983,"velocity":0.3858267716535433,"duration":0.06326225416667342},{"name":"G5","midi":79,"time":90.06410844999984,"velocity":0.3858267716535433,"duration":0.06326225416667342},{"name":"D#6","midi":87,"time":90.12889509583317,"velocity":0.3858267716535433,"duration":0.6013725125000065},{"name":"B3","midi":59,"time":90.73179199999984,"velocity":0.3858267716535433,"duration":0.09070130416667155},{"name":"G#4","midi":68,"time":90.82325549999985,"velocity":0.4094488188976378,"duration":0.09070130416667155},{"name":"D#4","midi":63,"time":90.91471899999985,"velocity":0.41732283464566927,"duration":0.09070130416667155},{"name":"G#4","midi":68,"time":91.00618249999985,"velocity":0.4330708661417323,"duration":0.09070130416667155},{"name":"B3","midi":59,"time":91.09764599999986,"velocity":0.4409448818897638,"duration":0.09070130416667155},{"name":"G#4","midi":68,"time":91.18910949999986,"velocity":0.4566929133858268,"duration":0.09070130416667155},{"name":"D#4","midi":63,"time":91.28057299999986,"velocity":0.4645669291338583,"duration":0.09070130416667155},{"name":"G#4","midi":68,"time":91.37203649999987,"velocity":0.47244094488188976,"duration":0.09070130416667155},{"name":"B3","midi":59,"time":91.46349999999987,"velocity":0.4881889763779528,"duration":0.09070130416667155},{"name":"G#4","midi":68,"time":91.55496349999987,"velocity":0.49606299212598426,"duration":0.09070130416667155},{"name":"D#4","midi":63,"time":91.64642699999987,"velocity":0.5118110236220472,"duration":0.09070130416667155},{"name":"G#4","midi":68,"time":91.73789049999988,"velocity":0.5196850393700787,"duration":0.09070130416667155},{"name":"B3","midi":59,"time":91.82935399999988,"velocity":0.5354330708661418,"duration":0.09070130416667155},{"name":"G#4","midi":68,"time":91.92081749999988,"velocity":0.5433070866141733,"duration":0.09070130416667155},{"name":"D#4","midi":63,"time":92.01228099999989,"velocity":0.5511811023622047,"duration":0.09070130416667155},{"name":"G#4","midi":68,"time":92.10374449999989,"velocity":0.5669291338582677,"duration":0.09070130416667155},{"name":"C4","midi":60,"time":92.1952079999999,"velocity":0.5748031496062992,"duration":0.09070130416667155},{"name":"F#4","midi":66,"time":92.2866714999999,"velocity":0.5905511811023622,"duration":0.09070130416667155},{"name":"D#4","midi":63,"time":92.3781349999999,"velocity":0.5984251968503937,"duration":0.09070130416667155},{"name":"F#4","midi":66,"time":92.4695984999999,"velocity":0.6062992125984252,"duration":0.09070130416667155},{"name":"C4","midi":60,"time":92.56106199999991,"velocity":0.6220472440944882,"duration":0.09070130416667155},{"name":"F#4","midi":66,"time":92.65252549999991,"velocity":0.6299212598425197,"duration":0.09070130416667155},{"name":"D#4","midi":63,"time":92.74398899999991,"velocity":0.6456692913385826,"duration":0.09070130416667155},{"name":"F#4","midi":66,"time":92.83545249999992,"velocity":0.6535433070866141,"duration":0.09070130416667155},{"name":"C4","midi":60,"time":92.92691599999992,"velocity":0.6692913385826772,"duration":0.09070130416667155},{"name":"F#4","midi":66,"time":93.01837949999992,"velocity":0.6771653543307087,"duration":0.09070130416667155},{"name":"D#4","midi":63,"time":93.10984299999993,"velocity":0.6850393700787402,"duration":0.09070130416667155},{"name":"F#4","midi":66,"time":93.20130649999993,"velocity":0.7007874015748031,"duration":0.09070130416667155},{"name":"C4","midi":60,"time":93.29276999999993,"velocity":0.7086614173228346,"duration":0.09070130416667155},{"name":"F#4","midi":66,"time":93.38423349999994,"velocity":0.7244094488188977,"duration":0.09070130416667155},{"name":"D#4","midi":63,"time":93.47569699999994,"velocity":0.7322834645669292,"duration":0.09070130416667155},{"name":"F#4","midi":66,"time":93.56716049999994,"velocity":0.7480314960629921,"duration":0.09070130416667155},{"name":"E3","midi":52,"time":93.65862399999995,"velocity":0.7559055118110236,"duration":0.09070130416667155},{"name":"G#3","midi":56,"time":93.65862399999995,"velocity":0.7559055118110236,"duration":0.09070130416667155},{"name":"C#4","midi":61,"time":93.65862399999995,"velocity":0.7559055118110236,"duration":0.09070130416667155},{"name":"E4","midi":64,"time":93.65862399999995,"velocity":0.7559055118110236,"duration":0.09070130416667155},{"name":"G#2","midi":44,"time":93.75008749999995,"velocity":0.3858267716535433,"duration":0.09070130416667155},{"name":"C#3","midi":49,"time":93.84155099999995,"velocity":0.3858267716535433,"duration":0.09070130416667155},{"name":"E3","midi":52,"time":93.93301449999996,"velocity":0.3858267716535433,"duration":0.09070130416667155},{"name":"G#3","midi":56,"time":94.02447799999996,"velocity":0.3858267716535433,"duration":0.09070130416667155},{"name":"C#3","midi":49,"time":94.11594149999996,"velocity":0.3858267716535433,"duration":0.09070130416667155},{"name":"E3","midi":52,"time":94.20740499999997,"velocity":0.3858267716535433,"duration":0.09070130416667155},{"name":"G#3","midi":56,"time":94.29886849999997,"velocity":0.3858267716535433,"duration":0.09070130416667155},{"name":"C#4","midi":61,"time":94.39033199999997,"velocity":0.3858267716535433,"duration":0.09070130416667155},{"name":"E3","midi":52,"time":94.48179549999998,"velocity":0.3858267716535433,"duration":0.09070130416667155},{"name":"G#3","midi":56,"time":94.57325899999998,"velocity":0.3858267716535433,"duration":0.09070130416667155},{"name":"C#4","midi":61,"time":94.66472249999998,"velocity":0.3858267716535433,"duration":0.09070130416667155},{"name":"E4","midi":64,"time":94.75618599999999,"velocity":0.3858267716535433,"duration":0.09070130416667155},{"name":"G#3","midi":56,"time":94.84764949999999,"velocity":0.3858267716535433,"duration":0.09070130416667155},{"name":"C#4","midi":61,"time":94.93911299999999,"velocity":0.3858267716535433,"duration":0.09070130416667155},{"name":"E4","midi":64,"time":95.0305765,"velocity":0.3858267716535433,"duration":0.09070130416667155},{"name":"G#4","midi":68,"time":95.12204,"velocity":0.3858267716535433,"duration":0.09070130416667155},{"name":"C#4","midi":61,"time":95.2135035,"velocity":0.3858267716535433,"duration":0.09070130416667155},{"name":"E4","midi":64,"time":95.304967,"velocity":0.3858267716535433,"duration":0.09070130416667155},{"name":"G#4","midi":68,"time":95.39643050000001,"velocity":0.3858267716535433,"duration":0.09070130416667155},{"name":"C#5","midi":73,"time":95.48789400000001,"velocity":0.3858267716535433,"duration":0.09070130416667155},{"name":"E4","midi":64,"time":95.57935750000001,"velocity":0.3858267716535433,"duration":0.09070130416667155},{"name":"G#4","midi":68,"time":95.67082100000002,"velocity":0.3858267716535433,"duration":0.09070130416667155},{"name":"C#5","midi":73,"time":95.76228450000002,"velocity":0.3858267716535433,"duration":0.09070130416667155},{"name":"E5","midi":76,"time":95.85374800000002,"velocity":0.3858267716535433,"duration":0.09070130416667155},{"name":"G#4","midi":68,"time":95.94521150000003,"velocity":0.3858267716535433,"duration":0.09070130416667155},{"name":"C#5","midi":73,"time":96.03667500000003,"velocity":0.3858267716535433,"duration":0.09070130416667155},{"name":"E5","midi":76,"time":96.12813850000003,"velocity":0.3858267716535433,"duration":0.09070130416667155},{"name":"G#4","midi":68,"time":96.21960200000004,"velocity":0.5039370078740157,"duration":0.09070130416667155},{"name":"C#5","midi":73,"time":96.21960200000004,"velocity":0.5039370078740157,"duration":0.09070130416667155},{"name":"E5","midi":76,"time":96.21960200000004,"velocity":0.5039370078740157,"duration":0.09070130416667155},{"name":"G#5","midi":80,"time":96.21960200000004,"velocity":0.5039370078740157,"duration":0.09070130416667155},{"name":"G#4","midi":68,"time":96.40252900000004,"velocity":0.3858267716535433,"duration":0.09070130416667155},{"name":"C#5","midi":73,"time":96.40252900000004,"velocity":0.3858267716535433,"duration":0.09070130416667155},{"name":"E5","midi":76,"time":96.40252900000004,"velocity":0.3858267716535433,"duration":0.09070130416667155},{"name":"G#5","midi":80,"time":96.40252900000004,"velocity":0.3858267716535433,"duration":0.09070130416667155},{"name":"G#2","midi":44,"time":96.67691950000005,"velocity":0.3858267716535433,"duration":0.09070130416667155},{"name":"C3","midi":48,"time":96.76838300000006,"velocity":0.3858267716535433,"duration":0.09070130416667155},{"name":"D#3","midi":51,"time":96.85984650000006,"velocity":0.3858267716535433,"duration":0.09070130416667155},{"name":"G#3","midi":56,"time":96.95131000000006,"velocity":0.3858267716535433,"duration":0.09070130416667155},{"name":"C3","midi":48,"time":97.04277350000007,"velocity":0.3858267716535433,"duration":0.09070130416667155},{"name":"D#3","midi":51,"time":97.13423700000007,"velocity":0.3858267716535433,"duration":0.09070130416667155},{"name":"G#3","midi":56,"time":97.22570050000007,"velocity":0.3858267716535433,"duration":0.09070130416667155},{"name":"C4","midi":60,"time":97.31716400000008,"velocity":0.3858267716535433,"duration":0.09070130416667155},{"name":"D#3","midi":51,"time":97.40862750000008,"velocity":0.3858267716535433,"duration":0.09070130416667155},{"name":"G#3","midi":56,"time":97.50009100000008,"velocity":0.3858267716535433,"duration":0.09070130416667155},{"name":"C4","midi":60,"time":97.59155450000009,"velocity":0.3858267716535433,"duration":0.09070130416667155},{"name":"D#4","midi":63,"time":97.68301800000009,"velocity":0.3858267716535433,"duration":0.09070130416667155},{"name":"G#3","midi":56,"time":97.77448150000009,"velocity":0.3858267716535433,"duration":0.09070130416667155},{"name":"C4","midi":60,"time":97.8659450000001,"velocity":0.3858267716535433,"duration":0.09070130416667155},{"name":"D#4","midi":63,"time":97.9574085000001,"velocity":0.3858267716535433,"duration":0.09070130416667155},{"name":"G#4","midi":68,"time":98.0488720000001,"velocity":0.3858267716535433,"duration":0.09070130416667155},{"name":"C4","midi":60,"time":98.1403355000001,"velocity":0.3858267716535433,"duration":0.09070130416667155},{"name":"D#4","midi":63,"time":98.23179900000011,"velocity":0.3858267716535433,"duration":0.09070130416667155},{"name":"G#4","midi":68,"time":98.32326250000011,"velocity":0.3858267716535433,"duration":0.09070130416667155},{"name":"C5","midi":72,"time":98.41472600000012,"velocity":0.3858267716535433,"duration":0.09070130416667155},{"name":"D#4","midi":63,"time":98.50618950000012,"velocity":0.3858267716535433,"duration":0.09070130416667155},{"name":"G#4","midi":68,"time":98.59765300000012,"velocity":0.3858267716535433,"duration":0.09070130416667155},{"name":"C5","midi":72,"time":98.68911650000013,"velocity":0.3858267716535433,"duration":0.09070130416667155},{"name":"D#5","midi":75,"time":98.78058000000013,"velocity":0.3858267716535433,"duration":0.09070130416667155},{"name":"G#4","midi":68,"time":98.87204350000013,"velocity":0.3858267716535433,"duration":0.09070130416667155},{"name":"C5","midi":72,"time":98.96350700000013,"velocity":0.3858267716535433,"duration":0.09070130416667155},{"name":"D#5","midi":75,"time":99.05497050000014,"velocity":0.3858267716535433,"duration":0.09070130416667155},{"name":"G#4","midi":68,"time":99.14643400000014,"velocity":0.5039370078740157,"duration":0.09070130416667155},{"name":"C5","midi":72,"time":99.14643400000014,"velocity":0.5039370078740157,"duration":0.09070130416667155},{"name":"D#5","midi":75,"time":99.14643400000014,"velocity":0.5039370078740157,"duration":0.09070130416667155},{"name":"G#5","midi":80,"time":99.14643400000014,"velocity":0.5039370078740157,"duration":0.09070130416667155},{"name":"G#4","midi":68,"time":99.32936100000015,"velocity":0.3858267716535433,"duration":0.09070130416667155},{"name":"C5","midi":72,"time":99.32936100000015,"velocity":0.3858267716535433,"duration":0.09070130416667155},{"name":"D#5","midi":75,"time":99.32936100000015,"velocity":0.3858267716535433,"duration":0.09070130416667155},{"name":"G#5","midi":80,"time":99.32936100000015,"velocity":0.3858267716535433,"duration":0.09070130416667155},{"name":"C#3","midi":49,"time":99.60375150000016,"velocity":0.3858267716535433,"duration":0.09070130416667155},{"name":"F3","midi":53,"time":99.69521500000016,"velocity":0.3858267716535433,"duration":0.09070130416667155},{"name":"G#3","midi":56,"time":99.78667850000016,"velocity":0.3858267716535433,"duration":0.09070130416667155},{"name":"C#4","midi":61,"time":99.87814200000017,"velocity":0.3858267716535433,"duration":0.09070130416667155},{"name":"F3","midi":53,"time":99.96960550000017,"velocity":0.3858267716535433,"duration":0.09070130416667155},{"name":"G#3","midi":56,"time":100.06106900000017,"velocity":0.3858267716535433,"duration":0.09070130416667155},{"name":"C#4","midi":61,"time":100.15253250000018,"velocity":0.3858267716535433,"duration":0.09070130416667155},{"name":"F4","midi":65,"time":100.24399600000018,"velocity":0.3858267716535433,"duration":0.09070130416667155},{"name":"G#3","midi":56,"time":100.33545950000018,"velocity":0.3858267716535433,"duration":0.09070130416667155},{"name":"C#4","midi":61,"time":100.42692300000019,"velocity":0.3858267716535433,"duration":0.09070130416667155},{"name":"F4","midi":65,"time":100.51838650000019,"velocity":0.3858267716535433,"duration":0.09070130416667155},{"name":"G#4","midi":68,"time":100.6098500000002,"velocity":0.3858267716535433,"duration":0.09070130416667155},{"name":"C#4","midi":61,"time":100.7013135000002,"velocity":0.3858267716535433,"duration":0.09070130416667155},{"name":"F4","midi":65,"time":100.7927770000002,"velocity":0.3858267716535433,"duration":0.09070130416667155},{"name":"G#4","midi":68,"time":100.8842405000002,"velocity":0.3858267716535433,"duration":0.09070130416667155},{"name":"C#5","midi":73,"time":100.9757040000002,"velocity":0.3858267716535433,"duration":0.09070130416667155},{"name":"F4","midi":65,"time":101.06716750000021,"velocity":0.3858267716535433,"duration":0.09070130416667155},{"name":"G#4","midi":68,"time":101.15863100000021,"velocity":0.3858267716535433,"duration":0.09070130416667155},{"name":"C#5","midi":73,"time":101.25009450000022,"velocity":0.3858267716535433,"duration":0.09070130416667155},{"name":"F5","midi":77,"time":101.34155800000022,"velocity":0.3858267716535433,"duration":0.09070130416667155},{"name":"G#4","midi":68,"time":101.43302150000022,"velocity":0.3858267716535433,"duration":0.09070130416667155},{"name":"C#5","midi":73,"time":101.52448500000023,"velocity":0.3858267716535433,"duration":0.09070130416667155},{"name":"F5","midi":77,"time":101.61594850000023,"velocity":0.3858267716535433,"duration":0.09070130416667155},{"name":"G#5","midi":80,"time":101.70741200000023,"velocity":0.3858267716535433,"duration":0.09070130416667155},{"name":"C#5","midi":73,"time":101.79887550000024,"velocity":0.3858267716535433,"duration":0.09070130416667155},{"name":"F5","midi":77,"time":101.89033900000024,"velocity":0.3858267716535433,"duration":0.09070130416667155},{"name":"G#5","midi":80,"time":101.98180250000024,"velocity":0.3858267716535433,"duration":0.09070130416667155},{"name":"C#5","midi":73,"time":102.07326600000025,"velocity":0.5039370078740157,"duration":0.09070130416667155},{"name":"F5","midi":77,"time":102.07326600000025,"velocity":0.5039370078740157,"duration":0.09070130416667155},{"name":"G#5","midi":80,"time":102.07326600000025,"velocity":0.5039370078740157,"duration":0.09070130416667155},{"name":"C#6","midi":85,"time":102.07326600000025,"velocity":0.5039370078740157,"duration":0.09070130416667155},{"name":"C#5","midi":73,"time":102.25619300000025,"velocity":0.3858267716535433,"duration":0.09070130416667155},{"name":"F5","midi":77,"time":102.25619300000025,"velocity":0.3858267716535433,"duration":0.09070130416667155},{"name":"G#5","midi":80,"time":102.25619300000025,"velocity":0.3858267716535433,"duration":0.09070130416667155},{"name":"C#6","midi":85,"time":102.25619300000025,"velocity":0.3858267716535433,"duration":0.09070130416667155},{"name":"C#3","midi":49,"time":102.53058350000026,"velocity":0.3858267716535433,"duration":0.09070130416667155},{"name":"F#3","midi":54,"time":102.62204700000026,"velocity":0.4094488188976378,"duration":0.09070130416667155},{"name":"A3","midi":57,"time":102.71351050000027,"velocity":0.4251968503937008,"duration":0.09070130416667155},{"name":"C#4","midi":61,"time":102.80497400000027,"velocity":0.4409448818897638,"duration":0.04496955416666992},{"name":"C#4","midi":61,"time":102.89643750000027,"velocity":0.4566929133858268,"duration":0.09070130416667155},{"name":"F#4","midi":66,"time":102.98790100000028,"velocity":0.4645669291338583,"duration":0.09070130416667155},{"name":"A4","midi":69,"time":103.07936450000028,"velocity":0.48031496062992124,"duration":0.09070130416667155},{"name":"C#5","midi":73,"time":103.17082800000028,"velocity":0.49606299212598426,"duration":0.04496955416666992},{"name":"C#5","midi":73,"time":103.26229150000029,"velocity":0.5118110236220472,"duration":0.09070130416667155},{"name":"F#5","midi":78,"time":103.35375500000029,"velocity":0.5196850393700787,"duration":0.09070130416667155},{"name":"A5","midi":81,"time":103.4452185000003,"velocity":0.5354330708661418,"duration":0.09070130416667155},{"name":"C#5","midi":73,"time":103.5366820000003,"velocity":0.6141732283464567,"duration":0.09070130416667155},{"name":"F#5","midi":78,"time":103.5366820000003,"velocity":0.6141732283464567,"duration":0.09070130416667155},{"name":"C#6","midi":85,"time":103.5366820000003,"velocity":0.6141732283464567,"duration":0.09070130416667155},{"name":"C#5","midi":73,"time":103.7196090000003,"velocity":0.5669291338582677,"duration":0.09070130416667155},{"name":"F#5","midi":78,"time":103.7196090000003,"velocity":0.5669291338582677,"duration":0.09070130416667155},{"name":"C#6","midi":85,"time":103.7196090000003,"velocity":0.5669291338582677,"duration":0.09070130416667155},{"name":"C#3","midi":49,"time":103.99399950000031,"velocity":0.5748031496062992,"duration":0.09070130416667155},{"name":"E3","midi":52,"time":104.08546300000032,"velocity":0.5905511811023622,"duration":0.09070130416667155},{"name":"G3","midi":55,"time":104.17692650000032,"velocity":0.6062992125984252,"duration":0.09070130416667155},{"name":"C#4","midi":61,"time":104.26839000000032,"velocity":0.6220472440944882,"duration":0.04496955416666992},{"name":"C#4","midi":61,"time":104.35985350000033,"velocity":0.6299212598425197,"duration":0.09070130416667155},{"name":"E4","midi":64,"time":104.45131700000033,"velocity":0.6456692913385826,"duration":0.09070130416667155},{"name":"G4","midi":67,"time":104.54278050000033,"velocity":0.6614173228346457,"duration":0.09070130416667155},{"name":"C#5","midi":73,"time":104.63424400000034,"velocity":0.6771653543307087,"duration":0.04496955416666992},{"name":"C#5","midi":73,"time":104.72570750000034,"velocity":0.6850393700787402,"duration":0.09070130416667155},{"name":"E5","midi":76,"time":104.81717100000034,"velocity":0.7007874015748031,"duration":0.09070130416667155},{"name":"G5","midi":79,"time":104.90863450000035,"velocity":0.7165354330708661,"duration":0.09070130416667155},{"name":"C#5","midi":73,"time":105.00009800000035,"velocity":0.7874015748031497,"duration":0.09070130416667155},{"name":"G5","midi":79,"time":105.00009800000035,"velocity":0.7874015748031497,"duration":0.09070130416667155},{"name":"C#6","midi":85,"time":105.00009800000035,"velocity":0.7874015748031497,"duration":0.09070130416667155},{"name":"C#5","midi":73,"time":105.18302500000036,"velocity":0.7401574803149606,"duration":0.09070130416667155},{"name":"G5","midi":79,"time":105.18302500000036,"velocity":0.7401574803149606,"duration":0.09070130416667155},{"name":"C#6","midi":85,"time":105.18302500000036,"velocity":0.7401574803149606,"duration":0.09070130416667155},{"name":"C5","midi":72,"time":105.36595200000036,"velocity":0.7559055118110236,"duration":0.1821648041666606},{"name":"G#5","midi":80,"time":105.36595200000036,"velocity":0.7559055118110236,"duration":0.1821648041666606},{"name":"C6","midi":84,"time":105.36595200000036,"velocity":0.7559055118110236,"duration":0.1821648041666606},{"name":"G#4","midi":68,"time":105.54887900000035,"velocity":0.7559055118110236,"duration":0.09070130416667155},{"name":"G#5","midi":80,"time":105.64034250000036,"velocity":0.7559055118110236,"duration":0.09070130416667155},{"name":"G#4","midi":68,"time":105.73180600000036,"velocity":0.7559055118110236,"duration":0.09070130416667155},{"name":"G#5","midi":80,"time":105.82326950000036,"velocity":0.7559055118110236,"duration":0.09070130416667155},{"name":"A#4","midi":70,"time":105.91473300000037,"velocity":0.7559055118110236,"duration":0.09070130416667155},{"name":"G#5","midi":80,"time":106.00619650000037,"velocity":0.7559055118110236,"duration":0.09070130416667155},{"name":"C5","midi":72,"time":106.09766000000037,"velocity":0.7559055118110236,"duration":0.09070130416667155},{"name":"G#5","midi":80,"time":106.18912350000038,"velocity":0.7559055118110236,"duration":0.09070130416667155},{"name":"C#5","midi":73,"time":106.28058700000038,"velocity":0.7559055118110236,"duration":0.09070130416667155},{"name":"G#5","midi":80,"time":106.37205050000038,"velocity":0.7559055118110236,"duration":0.09070130416667155},{"name":"D#5","midi":75,"time":106.46351400000039,"velocity":0.7559055118110236,"duration":0.09070130416667155},{"name":"G#5","midi":80,"time":106.55497750000039,"velocity":0.7559055118110236,"duration":0.09070130416667155},{"name":"C5","midi":72,"time":106.6464410000004,"velocity":0.7559055118110236,"duration":0.09070130416667155},{"name":"G#5","midi":80,"time":106.7379045000004,"velocity":0.7559055118110236,"duration":0.09070130416667155},{"name":"D#5","midi":75,"time":106.8293680000004,"velocity":0.7559055118110236,"duration":0.09070130416667155},{"name":"G#5","midi":80,"time":106.9208315000004,"velocity":0.7559055118110236,"duration":0.09070130416667155},{"name":"C#5","midi":73,"time":107.0122950000004,"velocity":0.7559055118110236,"duration":0.09070130416667155},{"name":"G#5","midi":80,"time":107.10375850000041,"velocity":0.7559055118110236,"duration":0.09070130416667155},{"name":"F#5","midi":78,"time":107.19522200000041,"velocity":0.7559055118110236,"duration":0.09070130416667155},{"name":"G#5","midi":80,"time":107.28668550000042,"velocity":0.7559055118110236,"duration":0.09070130416667155},{"name":"E5","midi":76,"time":107.37814900000042,"velocity":0.7559055118110236,"duration":0.09070130416667155},{"name":"G#5","midi":80,"time":107.46961250000042,"velocity":0.7559055118110236,"duration":0.09070130416667155},{"name":"D#5","midi":75,"time":107.56107600000043,"velocity":0.7559055118110236,"duration":0.09070130416667155},{"name":"G#5","midi":80,"time":107.65253950000043,"velocity":0.7559055118110236,"duration":0.09070130416667155},{"name":"C#5","midi":73,"time":107.74400300000043,"velocity":0.7559055118110236,"duration":0.09070130416667155},{"name":"G#5","midi":80,"time":107.83546650000044,"velocity":0.7559055118110236,"duration":0.09070130416667155},{"name":"C5","midi":72,"time":107.92693000000044,"velocity":0.7559055118110236,"duration":0.09070130416667155},{"name":"G#5","midi":80,"time":108.01839350000044,"velocity":0.7559055118110236,"duration":0.09070130416667155},{"name":"A4","midi":69,"time":108.10985700000045,"velocity":0.7559055118110236,"duration":0.09070130416667155},{"name":"G5","midi":79,"time":108.20132050000045,"velocity":0.7559055118110236,"duration":0.09070130416667155},{"name":"G#4","midi":68,"time":108.29278400000045,"velocity":0.7559055118110236,"duration":0.09070130416667155},{"name":"G#5","midi":80,"time":108.38424750000046,"velocity":0.7559055118110236,"duration":0.09070130416667155},{"name":"G#4","midi":68,"time":108.47571100000046,"velocity":0.7559055118110236,"duration":0.09070130416667155},{"name":"G#5","midi":80,"time":108.56717450000046,"velocity":0.7559055118110236,"duration":0.09070130416667155},{"name":"G#4","midi":68,"time":108.65863800000047,"velocity":0.7559055118110236,"duration":0.09070130416667155},{"name":"G#5","midi":80,"time":108.75010150000047,"velocity":0.7559055118110236,"duration":0.09070130416667155},{"name":"A#4","midi":70,"time":108.84156500000047,"velocity":0.7559055118110236,"duration":0.09070130416667155},{"name":"G#5","midi":80,"time":108.93302850000047,"velocity":0.7559055118110236,"duration":0.09070130416667155},{"name":"C5","midi":72,"time":109.02449200000048,"velocity":0.7559055118110236,"duration":0.09070130416667155},{"name":"G#5","midi":80,"time":109.11595550000048,"velocity":0.7559055118110236,"duration":0.09070130416667155},{"name":"C#5","midi":73,"time":109.20741900000048,"velocity":0.7559055118110236,"duration":0.09070130416667155},{"name":"G#5","midi":80,"time":109.29888250000049,"velocity":0.7559055118110236,"duration":0.09070130416667155},{"name":"D#5","midi":75,"time":109.39034600000049,"velocity":0.7559055118110236,"duration":0.09070130416667155},{"name":"G#5","midi":80,"time":109.4818095000005,"velocity":0.7559055118110236,"duration":0.09070130416667155},{"name":"C5","midi":72,"time":109.5732730000005,"velocity":0.7559055118110236,"duration":0.09070130416667155},{"name":"G#5","midi":80,"time":109.6647365000005,"velocity":0.7559055118110236,"duration":0.09070130416667155},{"name":"D#5","midi":75,"time":109.7562000000005,"velocity":0.7559055118110236,"duration":0.09070130416667155},{"name":"G#5","midi":80,"time":109.84766350000051,"velocity":0.7559055118110236,"duration":0.09070130416667155},{"name":"C#5","midi":73,"time":109.93912700000051,"velocity":0.7559055118110236,"duration":0.09070130416667155},{"name":"G#5","midi":80,"time":110.03059050000051,"velocity":0.7559055118110236,"duration":0.09070130416667155},{"name":"F#5","midi":78,"time":110.12205400000052,"velocity":0.7559055118110236,"duration":0.09070130416667155},{"name":"G#5","midi":80,"time":110.21351750000052,"velocity":0.7559055118110236,"duration":0.09070130416667155},{"name":"E5","midi":76,"time":110.30498100000052,"velocity":0.7559055118110236,"duration":0.09070130416667155},{"name":"G#5","midi":80,"time":110.39644450000053,"velocity":0.7559055118110236,"duration":0.09070130416667155},{"name":"D#5","midi":75,"time":110.48790800000053,"velocity":0.7559055118110236,"duration":0.09070130416667155},{"name":"G#5","midi":80,"time":110.57937150000053,"velocity":0.7559055118110236,"duration":0.09070130416667155},{"name":"C#5","midi":73,"time":110.67083500000054,"velocity":0.7559055118110236,"duration":0.09070130416667155},{"name":"G#5","midi":80,"time":110.76229850000054,"velocity":0.7559055118110236,"duration":0.09070130416667155},{"name":"C5","midi":72,"time":110.85376200000054,"velocity":0.7559055118110236,"duration":0.09070130416667155},{"name":"G#5","midi":80,"time":110.94522550000055,"velocity":0.7559055118110236,"duration":0.09070130416667155},{"name":"A4","midi":69,"time":111.03668900000055,"velocity":0.7559055118110236,"duration":0.09070130416667155},{"name":"G5","midi":79,"time":111.12815250000055,"velocity":0.7559055118110236,"duration":0.09070130416667155},{"name":"G#4","midi":68,"time":111.21961600000056,"velocity":0.7559055118110236,"duration":0.09070130416667155},{"name":"G#5","midi":80,"time":111.31107950000056,"velocity":0.7559055118110236,"duration":0.09070130416667155},{"name":"A4","midi":69,"time":111.40254300000056,"velocity":0.7559055118110236,"duration":0.09070130416667155},{"name":"G5","midi":79,"time":111.49400650000057,"velocity":0.7559055118110236,"duration":0.09070130416667155},{"name":"G#4","midi":68,"time":111.58547000000057,"velocity":0.7559055118110236,"duration":0.09070130416667155},{"name":"G#5","midi":80,"time":111.67693350000057,"velocity":0.7559055118110236,"duration":0.09070130416667155},{"name":"A4","midi":69,"time":111.76839700000058,"velocity":0.7559055118110236,"duration":0.09070130416667155},{"name":"G5","midi":79,"time":111.85986050000058,"velocity":0.7559055118110236,"duration":0.09070130416667155},{"name":"G#4","midi":68,"time":111.95132400000058,"velocity":0.7559055118110236,"duration":0.09070130416667155},{"name":"G#5","midi":80,"time":112.04278750000059,"velocity":0.7559055118110236,"duration":0.09070130416667155},{"name":"A4","midi":69,"time":112.13425100000059,"velocity":0.7559055118110236,"duration":0.09070130416667155},{"name":"G5","midi":79,"time":112.22571450000059,"velocity":0.7559055118110236,"duration":0.09070130416667155},{"name":"G#4","midi":68,"time":112.3171780000006,"velocity":0.7559055118110236,"duration":0.09070130416667155},{"name":"G#5","midi":80,"time":112.4086415000006,"velocity":0.7559055118110236,"duration":0.09070130416667155},{"name":"A4","midi":69,"time":112.5001050000006,"velocity":0.7559055118110236,"duration":0.09070130416667155},{"name":"G5","midi":79,"time":112.5915685000006,"velocity":0.7559055118110236,"duration":0.09070130416667155},{"name":"G#4","midi":68,"time":112.68303200000061,"velocity":0.7559055118110236,"duration":0.1821648041666606},{"name":"G#5","midi":80,"time":112.68303200000061,"velocity":0.7559055118110236,"duration":0.1821648041666606},{"name":"G#3","midi":56,"time":113.0488860000006,"velocity":0.8267716535433071,"duration":1.0967998041666647},{"name":"G#2","midi":44,"time":114.2379115000006,"velocity":0.3858267716535433,"duration":0.09070130416667155},{"name":"C#3","midi":49,"time":114.32937500000061,"velocity":0.3858267716535433,"duration":0.09070130416667155},{"name":"E3","midi":52,"time":114.42083850000061,"velocity":0.3858267716535433,"duration":0.09070130416667155},{"name":"G#3","midi":56,"time":114.51230200000062,"velocity":0.3858267716535433,"duration":0.09070130416667155},{"name":"C#3","midi":49,"time":114.60376550000062,"velocity":0.3858267716535433,"duration":0.09070130416667155},{"name":"E3","midi":52,"time":114.69522900000062,"velocity":0.3858267716535433,"duration":0.09070130416667155},{"name":"G#3","midi":56,"time":114.78669250000063,"velocity":0.3858267716535433,"duration":0.09070130416667155},{"name":"C#4","midi":61,"time":114.87815600000063,"velocity":0.3858267716535433,"duration":0.09070130416667155},{"name":"E3","midi":52,"time":114.96961950000063,"velocity":0.3858267716535433,"duration":0.09070130416667155},{"name":"G#3","midi":56,"time":115.06108300000064,"velocity":0.3858267716535433,"duration":0.09070130416667155},{"name":"C#4","midi":61,"time":115.15254650000064,"velocity":0.3858267716535433,"duration":0.09070130416667155},{"name":"E4","midi":64,"time":115.24401000000064,"velocity":0.3858267716535433,"duration":0.09070130416667155},{"name":"G#3","midi":56,"time":115.33547350000065,"velocity":0.3858267716535433,"duration":0.09070130416667155},{"name":"C#4","midi":61,"time":115.42693700000065,"velocity":0.3858267716535433,"duration":0.09070130416667155},{"name":"E4","midi":64,"time":115.51840050000065,"velocity":0.3858267716535433,"duration":0.09070130416667155},{"name":"G#4","midi":68,"time":115.60986400000066,"velocity":0.3858267716535433,"duration":0.09070130416667155},{"name":"C#4","midi":61,"time":115.70132750000066,"velocity":0.3858267716535433,"duration":0.09070130416667155},{"name":"E4","midi":64,"time":115.79279100000066,"velocity":0.3858267716535433,"duration":0.09070130416667155},{"name":"G#4","midi":68,"time":115.88425450000067,"velocity":0.3858267716535433,"duration":0.09070130416667155},{"name":"C#5","midi":73,"time":115.97571800000067,"velocity":0.3858267716535433,"duration":0.09070130416667155},{"name":"E4","midi":64,"time":116.06718150000067,"velocity":0.3858267716535433,"duration":0.09070130416667155},{"name":"G#4","midi":68,"time":116.15864500000067,"velocity":0.3858267716535433,"duration":0.09070130416667155},{"name":"C#5","midi":73,"time":116.25010850000068,"velocity":0.3858267716535433,"duration":0.09070130416667155},{"name":"E5","midi":76,"time":116.34157200000068,"velocity":0.3858267716535433,"duration":0.09070130416667155},{"name":"E5","midi":76,"time":116.43303550000068,"velocity":0.3858267716535433,"duration":0.09070130416667155},{"name":"G#5","midi":80,"time":116.52449900000069,"velocity":0.3858267716535433,"duration":0.09070130416667155},{"name":"C#6","midi":85,"time":116.61596250000069,"velocity":0.3858267716535433,"duration":0.09070130416667155},{"name":"E5","midi":76,"time":116.7074260000007,"velocity":0.5039370078740157,"duration":0.09070130416667155},{"name":"E6","midi":88,"time":116.7074260000007,"velocity":0.5039370078740157,"duration":0.09070130416667155},{"name":"E5","midi":76,"time":116.8903530000007,"velocity":0.3858267716535433,"duration":0.09070130416667155},{"name":"E6","midi":88,"time":116.8903530000007,"velocity":0.3858267716535433,"duration":0.09070130416667155},{"name":"E3","midi":52,"time":117.16474350000071,"velocity":0.3858267716535433,"duration":0.09070130416667155},{"name":"G3","midi":55,"time":117.25620700000071,"velocity":0.3858267716535433,"duration":0.09070130416667155},{"name":"C#4","midi":61,"time":117.34767050000072,"velocity":0.3858267716535433,"duration":0.09070130416667155},{"name":"E4","midi":64,"time":117.43913400000072,"velocity":0.3858267716535433,"duration":0.09070130416667155},{"name":"G3","midi":55,"time":117.53059750000072,"velocity":0.3858267716535433,"duration":0.09070130416667155},{"name":"C#4","midi":61,"time":117.62206100000073,"velocity":0.3858267716535433,"duration":0.09070130416667155},{"name":"E4","midi":64,"time":117.71352450000073,"velocity":0.3858267716535433,"duration":0.09070130416667155},{"name":"G4","midi":67,"time":117.80498800000073,"velocity":0.3858267716535433,"duration":0.09070130416667155},{"name":"C#4","midi":61,"time":117.89645150000074,"velocity":0.3858267716535433,"duration":0.09070130416667155},{"name":"E4","midi":64,"time":117.98791500000074,"velocity":0.3858267716535433,"duration":0.09070130416667155},{"name":"G4","midi":67,"time":118.07937850000074,"velocity":0.3858267716535433,"duration":0.09070130416667155},{"name":"C#5","midi":73,"time":118.17084200000075,"velocity":0.3858267716535433,"duration":0.09070130416667155},{"name":"E4","midi":64,"time":118.26230550000075,"velocity":0.3858267716535433,"duration":0.09070130416667155},{"name":"G4","midi":67,"time":118.35376900000075,"velocity":0.3858267716535433,"duration":0.09070130416667155},{"name":"C#5","midi":73,"time":118.44523250000076,"velocity":0.3858267716535433,"duration":0.09070130416667155},{"name":"E5","midi":76,"time":118.53669600000076,"velocity":0.3858267716535433,"duration":0.09070130416667155},{"name":"G4","midi":67,"time":118.62815950000076,"velocity":0.3858267716535433,"duration":0.09070130416667155},{"name":"C#5","midi":73,"time":118.71962300000077,"velocity":0.3858267716535433,"duration":0.09070130416667155},{"name":"E5","midi":76,"time":118.81108650000077,"velocity":0.3858267716535433,"duration":0.09070130416667155},{"name":"G5","midi":79,"time":118.90255000000077,"velocity":0.3858267716535433,"duration":0.09070130416667155},{"name":"C#5","midi":73,"time":118.99401350000078,"velocity":0.3858267716535433,"duration":0.09070130416667155},{"name":"E5","midi":76,"time":119.08547700000078,"velocity":0.3858267716535433,"duration":0.09070130416667155},{"name":"G5","midi":79,"time":119.17694050000078,"velocity":0.3858267716535433,"duration":0.09070130416667155},{"name":"C#6","midi":85,"time":119.26840400000079,"velocity":0.3858267716535433,"duration":0.09070130416667155},{"name":"E5","midi":76,"time":119.35986750000079,"velocity":0.3858267716535433,"duration":0.09070130416667155},{"name":"G5","midi":79,"time":119.45133100000079,"velocity":0.3858267716535433,"duration":0.09070130416667155},{"name":"C#6","midi":85,"time":119.5427945000008,"velocity":0.3858267716535433,"duration":0.09070130416667155},{"name":"E5","midi":76,"time":119.6342580000008,"velocity":0.5039370078740157,"duration":0.09070130416667155},{"name":"E6","midi":88,"time":119.6342580000008,"velocity":0.5039370078740157,"duration":0.09070130416667155},{"name":"E5","midi":76,"time":119.8171850000008,"velocity":0.3858267716535433,"duration":0.09070130416667155},{"name":"E6","midi":88,"time":119.8171850000008,"velocity":0.3858267716535433,"duration":0.09070130416667155},{"name":"D#3","midi":51,"time":120.09157550000081,"velocity":0.3858267716535433,"duration":0.09070130416667155},{"name":"A#3","midi":58,"time":120.18303900000082,"velocity":0.3937007874015748,"duration":0.09070130416667155},{"name":"C#4","midi":61,"time":120.27450250000082,"velocity":0.3937007874015748,"duration":0.09070130416667155},{"name":"D#4","midi":63,"time":120.36596600000082,"velocity":0.4015748031496063,"duration":0.09070130416667155},{"name":"A#3","midi":58,"time":120.45742950000083,"velocity":0.4015748031496063,"duration":0.09070130416667155},{"name":"C#4","midi":61,"time":120.54889300000083,"velocity":0.4094488188976378,"duration":0.09070130416667155},{"name":"D#4","midi":63,"time":120.64035650000083,"velocity":0.4094488188976378,"duration":0.09070130416667155},{"name":"A#4","midi":70,"time":120.73182000000084,"velocity":0.41732283464566927,"duration":0.09070130416667155},{"name":"C#4","midi":61,"time":120.82328350000084,"velocity":0.41732283464566927,"duration":0.09070130416667155},{"name":"D#4","midi":63,"time":120.91474700000084,"velocity":0.4251968503937008,"duration":0.09070130416667155},{"name":"A#4","midi":70,"time":121.00621050000085,"velocity":0.4251968503937008,"duration":0.09070130416667155},{"name":"C#5","midi":73,"time":121.09767400000085,"velocity":0.4330708661417323,"duration":0.09070130416667155},{"name":"D#4","midi":63,"time":121.18913750000085,"velocity":0.4330708661417323,"duration":0.09070130416667155},{"name":"A#4","midi":70,"time":121.28060100000086,"velocity":0.4409448818897638,"duration":0.09070130416667155},{"name":"C#5","midi":73,"time":121.37206450000086,"velocity":0.4409448818897638,"duration":0.09070130416667155},{"name":"D#5","midi":75,"time":121.46352800000086,"velocity":0.44881889763779526,"duration":0.09070130416667155},{"name":"A#4","midi":70,"time":121.55499150000087,"velocity":0.44881889763779526,"duration":0.09070130416667155},{"name":"C#5","midi":73,"time":121.64645500000087,"velocity":0.4566929133858268,"duration":0.09070130416667155},{"name":"D#5","midi":75,"time":121.73791850000087,"velocity":0.4566929133858268,"duration":0.09070130416667155},{"name":"A#5","midi":82,"time":121.82938200000088,"velocity":0.4645669291338583,"duration":0.09070130416667155},{"name":"C#5","midi":73,"time":121.92084550000088,"velocity":0.4645669291338583,"duration":0.09070130416667155},{"name":"D#5","midi":75,"time":122.01230900000088,"velocity":0.47244094488188976,"duration":0.09070130416667155},{"name":"A#5","midi":82,"time":122.10377250000089,"velocity":0.47244094488188976,"duration":0.09070130416667155},{"name":"C#6","midi":85,"time":122.19523600000089,"velocity":0.48031496062992124,"duration":0.09070130416667155},{"name":"A#5","midi":82,"time":122.28669950000089,"velocity":0.48031496062992124,"duration":0.09070130416667155},{"name":"D#5","midi":75,"time":122.3781630000009,"velocity":0.4881889763779528,"duration":0.09070130416667155},{"name":"C#5","midi":73,"time":122.4696265000009,"velocity":0.4881889763779528,"duration":0.09070130416667155},{"name":"A#5","midi":82,"time":122.5610900000009,"velocity":0.49606299212598426,"duration":0.09070130416667155},{"name":"D#5","midi":75,"time":122.6525535000009,"velocity":0.49606299212598426,"duration":0.09070130416667155},{"name":"C#5","midi":73,"time":122.74401700000091,"velocity":0.5039370078740157,"duration":0.09070130416667155},{"name":"A#4","midi":70,"time":122.83548050000091,"velocity":0.5039370078740157,"duration":0.09070130416667155},{"name":"B4","midi":71,"time":122.92694400000092,"velocity":0.3858267716535433,"duration":0.1821648041666606},{"name":"D#5","midi":75,"time":123.29279800000091,"velocity":0.3858267716535433,"duration":0.7309458041666659},{"name":"B4","midi":71,"time":124.02450600000091,"velocity":0.3858267716535433,"duration":0.27362830416666384},{"name":"G#4","midi":68,"time":124.29889650000091,"velocity":0.3858267716535433,"duration":0.09070130416667155},{"name":"G4","midi":67,"time":124.39036000000091,"velocity":0.3858267716535433,"duration":0.05945127500000069},{"name":"G#4","midi":68,"time":124.45057347083424,"velocity":0.3858267716535433,"duration":0.05945127500000069},{"name":"A#4","midi":70,"time":124.51154913750091,"velocity":0.3858267716535433,"duration":0.05945127500000069},{"name":"G#4","midi":68,"time":124.5732870000009,"velocity":0.3858267716535433,"duration":0.1821648041666606},{"name":"G4","midi":67,"time":124.7562140000009,"velocity":0.3858267716535433,"duration":0.5480188041666736},{"name":"G4","midi":67,"time":125.3049950000009,"velocity":0.3858267716535433,"duration":0.1821648041666606},{"name":"D#5","midi":75,"time":125.48792200000089,"velocity":0.3858267716535433,"duration":0.27362830416666384},{"name":"G4","midi":67,"time":125.76231250000089,"velocity":0.3858267716535433,"duration":0.09070130416667155},{"name":"A#4","midi":70,"time":125.85377600000089,"velocity":0.3858267716535433,"duration":0.3650918041666671},{"name":"G#4","midi":68,"time":126.21963000000089,"velocity":0.3858267716535433,"duration":0.5480188041666736},{"name":"G#4","midi":68,"time":126.7684110000009,"velocity":0.3858267716535433,"duration":0.1821648041666606},{"name":"D#5","midi":75,"time":126.95133800000089,"velocity":0.3858267716535433,"duration":0.27362830416666384},{"name":"G#4","midi":68,"time":127.22572850000088,"velocity":0.3858267716535433,"duration":0.09070130416667155},{"name":"B4","midi":71,"time":127.31719200000089,"velocity":0.3858267716535433,"duration":0.3650918041666671},{"name":"A#4","midi":70,"time":127.68304600000089,"velocity":0.3858267716535433,"duration":0.5480188041666594},{"name":"A#4","midi":70,"time":128.2318270000009,"velocity":0.3858267716535433,"duration":0.1821648041666606},{"name":"D#5","midi":75,"time":128.4147540000009,"velocity":0.3858267716535433,"duration":0.27362830416666384},{"name":"A#4","midi":70,"time":128.6891445000009,"velocity":0.3858267716535433,"duration":0.09070130416665734},{"name":"B4","midi":71,"time":128.7806080000009,"velocity":0.3858267716535433,"duration":0.09070130416665734},{"name":"D#5","midi":75,"time":128.9635350000009,"velocity":0.3858267716535433,"duration":0.3650918041666671},{"name":"D#6","midi":87,"time":128.9635350000009,"velocity":0.3858267716535433,"duration":0.3650918041666671},{"name":"D#5","midi":75,"time":129.3293890000009,"velocity":0.3858267716535433,"duration":0.3650918041666671},{"name":"D#6","midi":87,"time":129.3293890000009,"velocity":0.3858267716535433,"duration":0.3650918041666671},{"name":"D#5","midi":75,"time":129.69524300000091,"velocity":0.3858267716535433,"duration":0.09070130416665734},{"name":"D#6","midi":87,"time":129.69524300000091,"velocity":0.3858267716535433,"duration":0.09070130416665734},{"name":"B4","midi":71,"time":129.8781700000009,"velocity":0.3858267716535433,"duration":0.09070130416665734},{"name":"B5","midi":83,"time":129.8781700000009,"velocity":0.3858267716535433,"duration":0.09070130416665734},{"name":"G#4","midi":68,"time":130.06109700000087,"velocity":0.3858267716535433,"duration":0.09070130416665734},{"name":"G#5","midi":80,"time":130.06109700000087,"velocity":0.3858267716535433,"duration":0.09070130416665734},{"name":"G#4","midi":68,"time":130.24402400000085,"velocity":0.3858267716535433,"duration":0.09070130416665734},{"name":"G#5","midi":80,"time":130.24402400000085,"velocity":0.3858267716535433,"duration":0.09070130416665734},{"name":"G4","midi":67,"time":130.42695100000083,"velocity":0.3858267716535433,"duration":0.3650918041666671},{"name":"G5","midi":79,"time":130.42695100000083,"velocity":0.3858267716535433,"duration":0.3650918041666671},{"name":"G4","midi":67,"time":130.79280500000084,"velocity":0.3858267716535433,"duration":0.3650918041666671},{"name":"G5","midi":79,"time":130.79280500000084,"velocity":0.3858267716535433,"duration":0.3650918041666671},{"name":"G4","midi":67,"time":131.15865900000085,"velocity":0.3858267716535433,"duration":0.09070130416665734},{"name":"G5","midi":79,"time":131.15865900000085,"velocity":0.3858267716535433,"duration":0.09070130416665734},{"name":"D#5","midi":75,"time":131.34158600000083,"velocity":0.3858267716535433,"duration":0.09070130416665734},{"name":"D#6","midi":87,"time":131.34158600000083,"velocity":0.3858267716535433,"duration":0.09070130416665734},{"name":"G4","midi":67,"time":131.5245130000008,"velocity":0.3858267716535433,"duration":0.09070130416665734},{"name":"G5","midi":79,"time":131.5245130000008,"velocity":0.3858267716535433,"duration":0.09070130416665734},{"name":"A#4","midi":70,"time":131.7074400000008,"velocity":0.3858267716535433,"duration":0.09070130416665734},{"name":"A#5","midi":82,"time":131.7074400000008,"velocity":0.3858267716535433,"duration":0.09070130416665734},{"name":"G#4","midi":68,"time":131.89036700000077,"velocity":0.3858267716535433,"duration":0.3650918041666671},{"name":"G#5","midi":80,"time":131.89036700000077,"velocity":0.3858267716535433,"duration":0.3650918041666671},{"name":"G#4","midi":68,"time":132.25622100000078,"velocity":0.3858267716535433,"duration":0.3650918041666671},{"name":"G#5","midi":80,"time":132.25622100000078,"velocity":0.3858267716535433,"duration":0.3650918041666671},{"name":"G#4","midi":68,"time":132.6220750000008,"velocity":0.3858267716535433,"duration":0.09070130416665734},{"name":"G#5","midi":80,"time":132.6220750000008,"velocity":0.3858267716535433,"duration":0.09070130416665734},{"name":"D#5","midi":75,"time":132.80500200000077,"velocity":0.3858267716535433,"duration":0.09070130416665734},{"name":"D#6","midi":87,"time":132.80500200000077,"velocity":0.3858267716535433,"duration":0.09070130416665734},{"name":"G#4","midi":68,"time":132.98792900000075,"velocity":0.3858267716535433,"duration":0.09070130416665734},{"name":"G#5","midi":80,"time":132.98792900000075,"velocity":0.3858267716535433,"duration":0.09070130416665734},{"name":"B4","midi":71,"time":133.17085600000073,"velocity":0.3858267716535433,"duration":0.09070130416665734},{"name":"B5","midi":83,"time":133.17085600000073,"velocity":0.3858267716535433,"duration":0.09070130416665734},{"name":"A#4","midi":70,"time":133.3537830000007,"velocity":0.3858267716535433,"duration":0.3650918041666671},{"name":"A#5","midi":82,"time":133.3537830000007,"velocity":0.3858267716535433,"duration":0.3650918041666671},{"name":"A#4","midi":70,"time":133.71963700000072,"velocity":0.3858267716535433,"duration":0.3650918041666671},{"name":"A#5","midi":82,"time":133.71963700000072,"velocity":0.3858267716535433,"duration":0.3650918041666671},{"name":"A#4","midi":70,"time":134.08549100000073,"velocity":0.3858267716535433,"duration":0.09070130416665734},{"name":"A#5","midi":82,"time":134.08549100000073,"velocity":0.3858267716535433,"duration":0.09070130416665734},{"name":"D#5","midi":75,"time":134.2684180000007,"velocity":0.3858267716535433,"duration":0.09070130416665734},{"name":"D#6","midi":87,"time":134.2684180000007,"velocity":0.3858267716535433,"duration":0.09070130416665734},{"name":"A#4","midi":70,"time":134.45134500000069,"velocity":0.3858267716535433,"duration":0.09070130416665734},{"name":"A#5","midi":82,"time":134.45134500000069,"velocity":0.3858267716535433,"duration":0.09070130416665734},{"name":"C5","midi":72,"time":134.63427200000066,"velocity":0.4566929133858268,"duration":0.7309458041666801},{"name":"C6","midi":84,"time":134.63427200000066,"velocity":0.4566929133858268,"duration":0.7309458041666801},{"name":"C#5","midi":73,"time":135.3659800000007,"velocity":0.4566929133858268,"duration":0.7309458041666801},{"name":"C#6","midi":85,"time":135.3659800000007,"velocity":0.4566929133858268,"duration":0.7309458041666801},{"name":"A#4","midi":70,"time":136.09768800000072,"velocity":0.3858267716535433,"duration":0.3650918041666955},{"name":"A#5","midi":82,"time":136.09768800000072,"velocity":0.3858267716535433,"duration":0.10442082916668483},{"name":"B5","midi":83,"time":136.14951731666739,"velocity":0.3858267716535433,"duration":0.051829316666669456},{"name":"A#5","midi":82,"time":136.2021088291674,"velocity":0.3858267716535433,"duration":0.10518302500000232},{"name":"B5","midi":83,"time":136.2547003416674,"velocity":0.3858267716535433,"duration":0.051829316666669456},{"name":"A#5","midi":82,"time":136.3072918541674,"velocity":0.3858267716535433,"duration":0.10518302500000232},{"name":"G#5","midi":80,"time":136.3598833666674,"velocity":0.3858267716535433,"duration":0.051829316666669456},{"name":"A#5","midi":82,"time":136.4124748791674,"velocity":0.3858267716535433,"duration":0.05182931666669788},{"name":"B4","midi":71,"time":136.46354200000076,"velocity":0.4566929133858268,"duration":1.096799804166693},{"name":"B5","midi":83,"time":136.46354200000076,"velocity":0.4566929133858268,"duration":1.096799804166693},{"name":"G#4","midi":68,"time":137.5611040000008,"velocity":0.4566929133858268,"duration":0.7309458041666801},{"name":"G#5","midi":80,"time":137.5611040000008,"velocity":0.4566929133858268,"duration":0.7309458041666801},{"name":"A4","midi":69,"time":138.29281200000082,"velocity":0.4566929133858268,"duration":0.7309458041666801},{"name":"A5","midi":81,"time":138.29281200000082,"velocity":0.4566929133858268,"duration":0.7309458041666801},{"name":"G4","midi":67,"time":139.02452000000085,"velocity":0.3858267716535433,"duration":0.3650918041666955},{"name":"G5","midi":79,"time":139.02452000000085,"velocity":0.3858267716535433,"duration":0.10442082916668483},{"name":"G#5","midi":80,"time":139.07634931666752,"velocity":0.3858267716535433,"duration":0.051829316666669456},{"name":"G5","midi":79,"time":139.12894082916753,"velocity":0.3858267716535433,"duration":0.10518302500000232},{"name":"G#5","midi":80,"time":139.18153234166752,"velocity":0.3858267716535433,"duration":0.051829316666669456},{"name":"G5","midi":79,"time":139.23412385416754,"velocity":0.3858267716535433,"duration":0.10518302500000232},{"name":"F5","midi":77,"time":139.28671536666752,"velocity":0.3858267716535433,"duration":0.051829316666669456},{"name":"G5","midi":79,"time":139.33930687916754,"velocity":0.3858267716535433,"duration":0.05182931666669788},{"name":"G#4","midi":68,"time":139.3903740000009,"velocity":0.4566929133858268,"duration":1.096799804166693},{"name":"G#5","midi":80,"time":139.3903740000009,"velocity":0.4566929133858268,"duration":1.096799804166693},{"name":"A4","midi":69,"time":140.48793600000093,"velocity":0.8818897637795275,"duration":0.8224093041666549},{"name":"C#5","midi":73,"time":140.48793600000093,"velocity":0.8818897637795275,"duration":0.8224093041666549},{"name":"E5","midi":76,"time":140.48793600000093,"velocity":0.8818897637795275,"duration":0.8224093041666549},{"name":"A5","midi":81,"time":140.48793600000093,"velocity":0.8818897637795275,"duration":0.8224093041666549},{"name":"E5","midi":76,"time":141.31110750000093,"velocity":0.3858267716535433,"duration":0.09070130416665734},{"name":"F#5","midi":78,"time":141.40257100000093,"velocity":0.3858267716535433,"duration":0.09070130416665734},{"name":"G#5","midi":80,"time":141.49403450000094,"velocity":0.3858267716535433,"duration":0.09070130416665734},{"name":"A5","midi":81,"time":141.58549800000094,"velocity":0.3858267716535433,"duration":0.09070130416665734},{"name":"B5","midi":83,"time":141.67696150000094,"velocity":0.3858267716535433,"duration":0.09070130416665734},{"name":"C#6","midi":85,"time":141.76842500000095,"velocity":0.3858267716535433,"duration":0.09070130416665734},{"name":"B5","midi":83,"time":141.85988850000095,"velocity":0.3858267716535433,"duration":0.09070130416665734},{"name":"A5","midi":81,"time":141.95135200000095,"velocity":0.3858267716535433,"duration":0.09070130416665734},{"name":"E5","midi":76,"time":142.04281550000096,"velocity":0.3858267716535433,"duration":0.09070130416665734},{"name":"F#5","midi":78,"time":142.13427900000096,"velocity":0.3858267716535433,"duration":0.09070130416665734},{"name":"G#5","midi":80,"time":142.22574250000096,"velocity":0.3858267716535433,"duration":0.09070130416665734},{"name":"A5","midi":81,"time":142.31720600000097,"velocity":0.3858267716535433,"duration":0.09070130416665734},{"name":"B5","midi":83,"time":142.40866950000097,"velocity":0.3858267716535433,"duration":0.09070130416665734},{"name":"C#6","midi":85,"time":142.50013300000097,"velocity":0.3858267716535433,"duration":0.09070130416665734},{"name":"B5","midi":83,"time":142.59159650000097,"velocity":0.3858267716535433,"duration":0.09070130416665734},{"name":"A5","midi":81,"time":142.68306000000098,"velocity":0.3858267716535433,"duration":0.09070130416665734},{"name":"E5","midi":76,"time":142.77452350000098,"velocity":0.3858267716535433,"duration":0.09070130416665734},{"name":"F#5","midi":78,"time":142.86598700000098,"velocity":0.3858267716535433,"duration":0.09070130416665734},{"name":"G#5","midi":80,"time":142.957450500001,"velocity":0.3858267716535433,"duration":0.09070130416665734},{"name":"A5","midi":81,"time":143.048914000001,"velocity":0.3858267716535433,"duration":0.09070130416665734},{"name":"B5","midi":83,"time":143.140377500001,"velocity":0.3858267716535433,"duration":0.09070130416665734},{"name":"C#6","midi":85,"time":143.231841000001,"velocity":0.3858267716535433,"duration":0.09070130416665734},{"name":"B5","midi":83,"time":143.323304500001,"velocity":0.3858267716535433,"duration":0.09070130416665734},{"name":"A5","midi":81,"time":143.414768000001,"velocity":0.3858267716535433,"duration":0.09070130416665734},{"name":"E5","midi":76,"time":143.506231500001,"velocity":0.4015748031496063,"duration":0.09070130416665734},{"name":"F#5","midi":78,"time":143.597695000001,"velocity":0.4094488188976378,"duration":0.09070130416665734},{"name":"G#5","midi":80,"time":143.689158500001,"velocity":0.41732283464566927,"duration":0.09070130416665734},{"name":"A5","midi":81,"time":143.78062200000102,"velocity":0.4251968503937008,"duration":0.09070130416665734},{"name":"B5","midi":83,"time":143.87208550000102,"velocity":0.4330708661417323,"duration":0.09070130416665734},{"name":"C#6","midi":85,"time":143.96354900000102,"velocity":0.4409448818897638,"duration":0.09070130416665734},{"name":"D6","midi":86,"time":144.05501250000103,"velocity":0.44881889763779526,"duration":0.09070130416665734},{"name":"E6","midi":88,"time":144.14647600000103,"velocity":0.44881889763779526,"duration":0.09070130416665734},{"name":"D#6","midi":87,"time":144.23793950000103,"velocity":0.4566929133858268,"duration":0.09070130416665734},{"name":"E6","midi":88,"time":144.32940300000104,"velocity":0.4645669291338583,"duration":0.09070130416665734},{"name":"D#6","midi":87,"time":144.42086650000104,"velocity":0.47244094488188976,"duration":0.09070130416665734},{"name":"E6","midi":88,"time":144.51233000000104,"velocity":0.48031496062992124,"duration":0.09070130416665734},{"name":"C#6","midi":85,"time":144.60379350000105,"velocity":0.4881889763779528,"duration":0.09070130416665734},{"name":"B5","midi":83,"time":144.69525700000105,"velocity":0.49606299212598426,"duration":0.09070130416665734},{"name":"A5","midi":81,"time":144.78672050000105,"velocity":0.5039370078740157,"duration":0.09070130416665734},{"name":"G#5","midi":80,"time":144.87818400000106,"velocity":0.3858267716535433,"duration":0.7309458041666801},{"name":"A#5","midi":82,"time":145.60989200000108,"velocity":0.3858267716535433,"duration":0.09756106666668529},{"name":"B5","midi":83,"time":145.65867253333442,"velocity":0.3858267716535433,"duration":0.04801833749999673},{"name":"A#5","midi":82,"time":145.70745306666777,"velocity":0.3858267716535433,"duration":0.09756106666668529},{"name":"B5","midi":83,"time":145.7562336000011,"velocity":0.3858267716535433,"duration":0.04801833749999673},{"name":"A#5","midi":82,"time":145.80501413333445,"velocity":0.3858267716535433,"duration":0.09756106666668529},{"name":"B5","midi":83,"time":145.8537946666678,"velocity":0.3858267716535433,"duration":0.04801833749999673},{"name":"A#5","midi":82,"time":145.90257520000114,"velocity":0.3858267716535433,"duration":0.09756106666668529},{"name":"B5","midi":83,"time":145.95135573333448,"velocity":0.3858267716535433,"duration":0.04801833749999673},{"name":"A#5","midi":82,"time":146.00013626666782,"velocity":0.3858267716535433,"duration":0.09756106666668529},{"name":"B5","midi":83,"time":146.04891680000117,"velocity":0.3858267716535433,"duration":0.04801833749999673},{"name":"A#5","midi":82,"time":146.0976973333345,"velocity":0.3858267716535433,"duration":0.09756106666668529},{"name":"B5","midi":83,"time":146.14647786666785,"velocity":0.3858267716535433,"duration":0.04801833749999673},{"name":"A#5","midi":82,"time":146.1952584000012,"velocity":0.3858267716535433,"duration":0.09756106666668529},{"name":"G#5","midi":80,"time":146.24403893333454,"velocity":0.3858267716535433,"duration":0.04801833749999673},{"name":"A#5","midi":82,"time":146.29281946666788,"velocity":0.3858267716535433,"duration":0.04801833749999673},{"name":"G#5","midi":80,"time":146.34160000000122,"velocity":0.3858267716535433,"duration":0.1821648041666606},{"name":"A3","midi":57,"time":146.7074540000012,"velocity":0.8818897637795275,"duration":0.45655530416667034},{"name":"C#4","midi":61,"time":146.7074540000012,"velocity":0.8818897637795275,"duration":0.45655530416667034},{"name":"E4","midi":64,"time":146.7074540000012,"velocity":0.8818897637795275,"duration":0.45655530416667034},{"name":"A4","midi":69,"time":146.7074540000012,"velocity":0.8818897637795275,"duration":0.45655530416667034},{"name":"E4","midi":64,"time":147.16477150000122,"velocity":0.3858267716535433,"duration":0.09070130416665734},{"name":"F#4","midi":66,"time":147.25623500000123,"velocity":0.3858267716535433,"duration":0.09070130416665734},{"name":"G#4","midi":68,"time":147.34769850000123,"velocity":0.3858267716535433,"duration":0.09070130416665734},{"name":"A4","midi":69,"time":147.43916200000123,"velocity":0.3858267716535433,"duration":0.09070130416665734},{"name":"B4","midi":71,"time":147.53062550000124,"velocity":0.3858267716535433,"duration":0.09070130416665734},{"name":"C#5","midi":73,"time":147.62208900000124,"velocity":0.3858267716535433,"duration":0.09070130416665734},{"name":"B4","midi":71,"time":147.71355250000124,"velocity":0.3858267716535433,"duration":0.09070130416665734},{"name":"A4","midi":69,"time":147.80501600000125,"velocity":0.3858267716535433,"duration":0.09070130416665734},{"name":"E4","midi":64,"time":147.89647950000125,"velocity":0.3858267716535433,"duration":0.09070130416665734},{"name":"F#4","midi":66,"time":147.98794300000125,"velocity":0.3858267716535433,"duration":0.09070130416665734},{"name":"G#4","midi":68,"time":148.07940650000126,"velocity":0.3858267716535433,"duration":0.09070130416665734},{"name":"A4","midi":69,"time":148.17087000000126,"velocity":0.3858267716535433,"duration":0.09070130416665734},{"name":"B4","midi":71,"time":148.26233350000126,"velocity":0.3858267716535433,"duration":0.09070130416665734},{"name":"C#5","midi":73,"time":148.35379700000126,"velocity":0.3858267716535433,"duration":0.09070130416665734},{"name":"B4","midi":71,"time":148.44526050000127,"velocity":0.3858267716535433,"duration":0.09070130416665734},{"name":"A4","midi":69,"time":148.53672400000127,"velocity":0.3858267716535433,"duration":0.09070130416665734},{"name":"E4","midi":64,"time":148.62818750000127,"velocity":0.3858267716535433,"duration":0.09070130416665734},{"name":"F#4","midi":66,"time":148.71965100000128,"velocity":0.3858267716535433,"duration":0.09070130416665734},{"name":"G#4","midi":68,"time":148.81111450000128,"velocity":0.3858267716535433,"duration":0.09070130416665734},{"name":"A4","midi":69,"time":148.90257800000128,"velocity":0.3858267716535433,"duration":0.09070130416665734},{"name":"B4","midi":71,"time":148.9940415000013,"velocity":0.3858267716535433,"duration":0.09070130416665734},{"name":"C#5","midi":73,"time":149.0855050000013,"velocity":0.3858267716535433,"duration":0.09070130416665734},{"name":"B4","midi":71,"time":149.1769685000013,"velocity":0.3858267716535433,"duration":0.09070130416665734},{"name":"A4","midi":69,"time":149.2684320000013,"velocity":0.3858267716535433,"duration":0.09070130416665734},{"name":"E4","midi":64,"time":149.3598955000013,"velocity":0.4094488188976378,"duration":0.09070130416665734},{"name":"F#4","midi":66,"time":149.4513590000013,"velocity":0.41732283464566927,"duration":0.09070130416665734},{"name":"G#4","midi":68,"time":149.5428225000013,"velocity":0.4330708661417323,"duration":0.09070130416665734},{"name":"A4","midi":69,"time":149.6342860000013,"velocity":0.4409448818897638,"duration":0.09070130416665734},{"name":"B4","midi":71,"time":149.7257495000013,"velocity":0.4566929133858268,"duration":0.09070130416665734},{"name":"C#5","midi":73,"time":149.81721300000132,"velocity":0.4645669291338583,"duration":0.09070130416665734},{"name":"B4","midi":71,"time":149.90867650000132,"velocity":0.47244094488188976,"duration":0.09070130416665734},{"name":"A4","midi":69,"time":150.00014000000132,"velocity":0.4881889763779528,"duration":0.09070130416665734},{"name":"E4","midi":64,"time":150.09160350000133,"velocity":0.49606299212598426,"duration":0.09070130416665734},{"name":"F#4","midi":66,"time":150.18306700000133,"velocity":0.5118110236220472,"duration":0.09070130416665734},{"name":"G#4","midi":68,"time":150.27453050000133,"velocity":0.5196850393700787,"duration":0.09070130416665734},{"name":"A4","midi":69,"time":150.36599400000134,"velocity":0.5354330708661418,"duration":0.09070130416665734},{"name":"B4","midi":71,"time":150.45745750000134,"velocity":0.5433070866141733,"duration":0.09070130416665734},{"name":"C#5","midi":73,"time":150.54892100000134,"velocity":0.5511811023622047,"duration":0.09070130416665734},{"name":"B4","midi":71,"time":150.64038450000135,"velocity":0.5669291338582677,"duration":0.09070130416665734},{"name":"A4","midi":69,"time":150.73184800000135,"velocity":0.5748031496062992,"duration":0.09070130416665734},{"name":"E4","midi":64,"time":150.82331150000135,"velocity":0.5905511811023622,"duration":0.09070130416665734},{"name":"F#4","midi":66,"time":150.91477500000136,"velocity":0.5984251968503937,"duration":0.09070130416665734},{"name":"G#4","midi":68,"time":151.00623850000136,"velocity":0.6062992125984252,"duration":0.09070130416665734},{"name":"A4","midi":69,"time":151.09770200000136,"velocity":0.6220472440944882,"duration":0.09070130416665734},{"name":"B4","midi":71,"time":151.18916550000137,"velocity":0.6299212598425197,"duration":0.09070130416665734},{"name":"C#5","midi":73,"time":151.28062900000137,"velocity":0.6456692913385826,"duration":0.09070130416665734},{"name":"D5","midi":74,"time":151.37209250000137,"velocity":0.6535433070866141,"duration":0.09070130416665734},{"name":"E5","midi":76,"time":151.46355600000138,"velocity":0.6692913385826772,"duration":0.09070130416665734},{"name":"F#5","midi":78,"time":151.55501950000138,"velocity":0.6771653543307087,"duration":0.09070130416665734},{"name":"G#5","midi":80,"time":151.64648300000138,"velocity":0.6850393700787402,"duration":0.09070130416665734},{"name":"A5","midi":81,"time":151.73794650000139,"velocity":0.7007874015748031,"duration":0.09070130416665734},{"name":"B5","midi":83,"time":151.8294100000014,"velocity":0.7086614173228346,"duration":0.09070130416665734},{"name":"C#6","midi":85,"time":151.9208735000014,"velocity":0.7244094488188977,"duration":0.09070130416665734},{"name":"D6","midi":86,"time":152.0123370000014,"velocity":0.7322834645669292,"duration":0.09070130416665734},{"name":"D#6","midi":87,"time":152.1038005000014,"velocity":0.7480314960629921,"duration":0.09070130416665734},{"name":"E5","midi":76,"time":152.1952640000014,"velocity":0.7559055118110236,"duration":0.7309458041666801},{"name":"E6","midi":88,"time":152.1952640000014,"velocity":0.7559055118110236,"duration":0.7309458041666801},{"name":"G#4","midi":68,"time":152.92697200000143,"velocity":0.7559055118110236,"duration":0.7309458041666801},{"name":"G#5","midi":80,"time":152.92697200000143,"velocity":0.7559055118110236,"duration":0.7309458041666801},{"name":"B4","midi":71,"time":153.65868000000145,"velocity":0.7559055118110236,"duration":0.7309458041666801},{"name":"B5","midi":83,"time":153.65868000000145,"velocity":0.7559055118110236,"duration":0.7309458041666801},{"name":"C#4","midi":61,"time":154.39038800000148,"velocity":0.7559055118110236,"duration":0.7309458041666801},{"name":"G4","midi":67,"time":154.39038800000148,"velocity":0.7559055118110236,"duration":0.7309458041666801},{"name":"G3","midi":55,"time":154.39038800000148,"velocity":0.7559055118110236,"duration":0.7309458041666801},{"name":"B3","midi":59,"time":155.1220960000015,"velocity":0.7559055118110236,"duration":0.1821648041666606},{"name":"G#4","midi":68,"time":155.1220960000015,"velocity":0.7559055118110236,"duration":0.1821648041666606},{"name":"G#3","midi":56,"time":155.1220960000015,"velocity":0.7559055118110236,"duration":0.1821648041666606},{"name":"D#4","midi":63,"time":155.3050230000015,"velocity":0.3858267716535433,"duration":0.09070130416665734},{"name":"B4","midi":71,"time":155.3050230000015,"velocity":0.3858267716535433,"duration":0.09070130416665734},{"name":"D#4","midi":63,"time":155.4879500000015,"velocity":0.3858267716535433,"duration":0.09070130416665734},{"name":"B4","midi":71,"time":155.4879500000015,"velocity":0.3858267716535433,"duration":0.09070130416665734},{"name":"D#4","midi":63,"time":155.67087700000147,"velocity":0.3858267716535433,"duration":0.09070130416665734},{"name":"B4","midi":71,"time":155.67087700000147,"velocity":0.3858267716535433,"duration":0.09070130416665734},{"name":"D#4","midi":63,"time":155.85380400000145,"velocity":0.3858267716535433,"duration":0.09070130416665734},{"name":"B4","midi":71,"time":155.85380400000145,"velocity":0.3858267716535433,"duration":0.09070130416665734},{"name":"D#4","midi":63,"time":156.03673100000142,"velocity":0.3858267716535433,"duration":0.09070130416665734},{"name":"B4","midi":71,"time":156.03673100000142,"velocity":0.3858267716535433,"duration":0.09070130416665734},{"name":"D#4","midi":63,"time":156.2196580000014,"velocity":0.3858267716535433,"duration":0.09070130416665734},{"name":"A#4","midi":70,"time":156.2196580000014,"velocity":0.3858267716535433,"duration":0.09070130416665734},{"name":"D#4","midi":63,"time":156.40258500000138,"velocity":0.3858267716535433,"duration":0.09070130416665734},{"name":"G#4","midi":68,"time":156.40258500000138,"velocity":0.3858267716535433,"duration":0.09070130416665734},{"name":"D#4","midi":63,"time":156.58551200000136,"velocity":0.3858267716535433,"duration":0.09070130416665734},{"name":"G4","midi":67,"time":156.58551200000136,"velocity":0.3858267716535433,"duration":0.09070130416665734},{"name":"G4","midi":67,"time":156.76843900000134,"velocity":0.3858267716535433,"duration":0.09070130416665734},{"name":"D#5","midi":75,"time":156.76843900000134,"velocity":0.3858267716535433,"duration":0.09070130416665734},{"name":"G4","midi":67,"time":156.95136600000131,"velocity":0.3858267716535433,"duration":0.09070130416665734},{"name":"D#5","midi":75,"time":156.95136600000131,"velocity":0.3858267716535433,"duration":0.09070130416665734},{"name":"G4","midi":67,"time":157.1342930000013,"velocity":0.3858267716535433,"duration":0.09070130416665734},{"name":"D#5","midi":75,"time":157.1342930000013,"velocity":0.3858267716535433,"duration":0.09070130416665734},{"name":"G4","midi":67,"time":157.31722000000127,"velocity":0.3858267716535433,"duration":0.09070130416665734},{"name":"D#5","midi":75,"time":157.31722000000127,"velocity":0.3858267716535433,"duration":0.09070130416665734},{"name":"G4","midi":67,"time":157.50014700000125,"velocity":0.3858267716535433,"duration":0.09070130416665734},{"name":"D#5","midi":75,"time":157.50014700000125,"velocity":0.3858267716535433,"duration":0.09070130416665734},{"name":"G#4","midi":68,"time":157.68307400000123,"velocity":0.3858267716535433,"duration":0.09070130416665734},{"name":"D#5","midi":75,"time":157.68307400000123,"velocity":0.3858267716535433,"duration":0.09070130416665734},{"name":"A#4","midi":70,"time":157.8660010000012,"velocity":0.3858267716535433,"duration":0.09070130416665734},{"name":"D#5","midi":75,"time":157.8660010000012,"velocity":0.3858267716535433,"duration":0.09070130416665734},{"name":"B4","midi":71,"time":158.04892800000118,"velocity":0.3858267716535433,"duration":0.09070130416665734},{"name":"D#5","midi":75,"time":158.04892800000118,"velocity":0.3858267716535433,"duration":0.09070130416665734},{"name":"D#4","midi":63,"time":158.23185500000116,"velocity":0.3858267716535433,"duration":0.09070130416665734},{"name":"B4","midi":71,"time":158.23185500000116,"velocity":0.3858267716535433,"duration":0.09070130416665734},{"name":"D#4","midi":63,"time":158.41478200000114,"velocity":0.3858267716535433,"duration":0.09070130416665734},{"name":"B4","midi":71,"time":158.41478200000114,"velocity":0.3858267716535433,"duration":0.09070130416665734},{"name":"D#4","midi":63,"time":158.59770900000112,"velocity":0.3858267716535433,"duration":0.09070130416665734},{"name":"B4","midi":71,"time":158.59770900000112,"velocity":0.3858267716535433,"duration":0.09070130416665734},{"name":"D#4","midi":63,"time":158.7806360000011,"velocity":0.3858267716535433,"duration":0.09070130416665734},{"name":"B4","midi":71,"time":158.7806360000011,"velocity":0.3858267716535433,"duration":0.09070130416665734},{"name":"D#4","midi":63,"time":158.96356300000107,"velocity":0.3858267716535433,"duration":0.09070130416665734},{"name":"B4","midi":71,"time":158.96356300000107,"velocity":0.3858267716535433,"duration":0.09070130416665734},{"name":"D#4","midi":63,"time":159.14649000000105,"velocity":0.3858267716535433,"duration":0.09070130416665734},{"name":"A#4","midi":70,"time":159.14649000000105,"velocity":0.3858267716535433,"duration":0.09070130416665734},{"name":"D#4","midi":63,"time":159.32941700000103,"velocity":0.3858267716535433,"duration":0.09070130416665734},{"name":"G#4","midi":68,"time":159.32941700000103,"velocity":0.3858267716535433,"duration":0.09070130416665734},{"name":"D#4","midi":63,"time":159.512344000001,"velocity":0.3858267716535433,"duration":0.09070130416665734},{"name":"G4","midi":67,"time":159.512344000001,"velocity":0.3858267716535433,"duration":0.09070130416665734},{"name":"G4","midi":67,"time":159.695271000001,"velocity":0.3858267716535433,"duration":0.09070130416665734},{"name":"D#5","midi":75,"time":159.695271000001,"velocity":0.3858267716535433,"duration":0.09070130416665734},{"name":"G4","midi":67,"time":159.87819800000096,"velocity":0.3858267716535433,"duration":0.09070130416665734},{"name":"D#5","midi":75,"time":159.87819800000096,"velocity":0.3858267716535433,"duration":0.09070130416665734},{"name":"G4","midi":67,"time":160.06112500000094,"velocity":0.3858267716535433,"duration":0.09070130416665734},{"name":"D#5","midi":75,"time":160.06112500000094,"velocity":0.3858267716535433,"duration":0.09070130416665734},{"name":"G4","midi":67,"time":160.24405200000092,"velocity":0.3858267716535433,"duration":0.09070130416665734},{"name":"D#5","midi":75,"time":160.24405200000092,"velocity":0.3858267716535433,"duration":0.09070130416665734},{"name":"G4","midi":67,"time":160.4269790000009,"velocity":0.3858267716535433,"duration":0.09070130416665734},{"name":"D#5","midi":75,"time":160.4269790000009,"velocity":0.3858267716535433,"duration":0.09070130416665734},{"name":"G#4","midi":68,"time":160.60990600000088,"velocity":0.3858267716535433,"duration":0.09070130416665734},{"name":"D#5","midi":75,"time":160.60990600000088,"velocity":0.3858267716535433,"duration":0.09070130416665734},{"name":"A#4","midi":70,"time":160.79283300000085,"velocity":0.3858267716535433,"duration":0.09070130416665734},{"name":"D#5","midi":75,"time":160.79283300000085,"velocity":0.3858267716535433,"duration":0.09070130416665734},{"name":"B4","midi":71,"time":160.97576000000083,"velocity":0.3858267716535433,"duration":0.09070130416665734},{"name":"D#5","midi":75,"time":160.97576000000083,"velocity":0.3858267716535433,"duration":0.09070130416665734},{"name":"B4","midi":71,"time":161.1586870000008,"velocity":0.3858267716535433,"duration":0.09070130416665734},{"name":"D#5","midi":75,"time":161.1586870000008,"velocity":0.3858267716535433,"duration":0.09070130416665734},{"name":"B4","midi":71,"time":161.3416140000008,"velocity":0.3858267716535433,"duration":0.1821648041666606},{"name":"D#5","midi":75,"time":161.3416140000008,"velocity":0.3858267716535433,"duration":0.1821648041666606},{"name":"G#4","midi":68,"time":161.5245410000008,"velocity":0.3858267716535433,"duration":0.1821648041666606},{"name":"B4","midi":71,"time":161.5245410000008,"velocity":0.3858267716535433,"duration":0.1821648041666606},{"name":"C#5","midi":73,"time":161.89039500000078,"velocity":0.3858267716535433,"duration":0.09070130416665734},{"name":"E5","midi":76,"time":161.89039500000078,"velocity":0.3858267716535433,"duration":0.09070130416665734},{"name":"C#5","midi":73,"time":162.07332200000076,"velocity":0.3858267716535433,"duration":0.1821648041666606},{"name":"E5","midi":76,"time":162.07332200000076,"velocity":0.3858267716535433,"duration":0.1821648041666606},{"name":"G#4","midi":68,"time":162.25624900000076,"velocity":0.3858267716535433,"duration":0.1821648041666606},{"name":"C#5","midi":73,"time":162.25624900000076,"velocity":0.3858267716535433,"duration":0.1821648041666606},{"name":"B4","midi":71,"time":162.62210300000075,"velocity":0.3858267716535433,"duration":0.09070130416665734},{"name":"D#5","midi":75,"time":162.62210300000075,"velocity":0.3858267716535433,"duration":0.09070130416665734},{"name":"B4","midi":71,"time":162.80503000000073,"velocity":0.3858267716535433,"duration":0.1821648041666606},{"name":"D#5","midi":75,"time":162.80503000000073,"velocity":0.3858267716535433,"duration":0.1821648041666606},{"name":"G#4","midi":68,"time":162.98795700000073,"velocity":0.3858267716535433,"duration":0.1821648041666606},{"name":"B4","midi":71,"time":162.98795700000073,"velocity":0.3858267716535433,"duration":0.1821648041666606},{"name":"A#4","midi":70,"time":163.35381100000072,"velocity":0.3858267716535433,"duration":0.09070130416665734},{"name":"D#5","midi":75,"time":163.35381100000072,"velocity":0.3858267716535433,"duration":0.09070130416665734},{"name":"A#4","midi":70,"time":163.5367380000007,"velocity":0.3858267716535433,"duration":0.1821648041666606},{"name":"D#5","midi":75,"time":163.5367380000007,"velocity":0.3858267716535433,"duration":0.1821648041666606},{"name":"G4","midi":67,"time":163.7196650000007,"velocity":0.3858267716535433,"duration":0.1821648041666606},{"name":"A#4","midi":70,"time":163.7196650000007,"velocity":0.3858267716535433,"duration":0.1821648041666606},{"name":"G#4","midi":68,"time":163.9025920000007,"velocity":0.3858267716535433,"duration":0.09070130416665734},{"name":"B4","midi":71,"time":163.9025920000007,"velocity":0.3858267716535433,"duration":0.09070130416665734},{"name":"B4","midi":71,"time":164.0855190000007,"velocity":0.3858267716535433,"duration":0.09070130416665734},{"name":"D#5","midi":75,"time":164.0855190000007,"velocity":0.3858267716535433,"duration":0.09070130416665734},{"name":"B5","midi":83,"time":164.0855190000007,"velocity":0.3858267716535433,"duration":0.09070130416665734},{"name":"B4","midi":71,"time":164.26844600000067,"velocity":0.3858267716535433,"duration":0.09070130416665734},{"name":"D#5","midi":75,"time":164.26844600000067,"velocity":0.3858267716535433,"duration":0.09070130416665734},{"name":"B5","midi":83,"time":164.26844600000067,"velocity":0.3858267716535433,"duration":0.09070130416665734},{"name":"B4","midi":71,"time":164.45137300000064,"velocity":0.3858267716535433,"duration":0.09070130416665734},{"name":"D#5","midi":75,"time":164.45137300000064,"velocity":0.3858267716535433,"duration":0.09070130416665734},{"name":"B5","midi":83,"time":164.45137300000064,"velocity":0.3858267716535433,"duration":0.09070130416665734},{"name":"B4","midi":71,"time":164.63430000000062,"velocity":0.4881889763779528,"duration":0.09070130416665734},{"name":"D#5","midi":75,"time":164.63430000000062,"velocity":0.4881889763779528,"duration":0.09070130416665734},{"name":"B5","midi":83,"time":164.63430000000062,"velocity":0.4881889763779528,"duration":0.09070130416665734},{"name":"B4","midi":71,"time":164.8172270000006,"velocity":0.5433070866141733,"duration":0.09070130416665734},{"name":"D#5","midi":75,"time":164.8172270000006,"velocity":0.5433070866141733,"duration":0.09070130416665734},{"name":"B5","midi":83,"time":164.8172270000006,"velocity":0.5433070866141733,"duration":0.09070130416665734},{"name":"A#4","midi":70,"time":165.00015400000058,"velocity":0.5984251968503937,"duration":0.09070130416665734},{"name":"C#5","midi":73,"time":165.00015400000058,"velocity":0.5984251968503937,"duration":0.09070130416665734},{"name":"A#5","midi":82,"time":165.00015400000058,"velocity":0.5984251968503937,"duration":0.09070130416665734},{"name":"G#4","midi":68,"time":165.18308100000056,"velocity":0.6535433070866141,"duration":0.09070130416665734},{"name":"B4","midi":71,"time":165.18308100000056,"velocity":0.6535433070866141,"duration":0.09070130416665734},{"name":"G#5","midi":80,"time":165.18308100000056,"velocity":0.6535433070866141,"duration":0.09070130416665734},{"name":"G4","midi":67,"time":165.36600800000053,"velocity":0.7007874015748031,"duration":0.09070130416665734},{"name":"A#4","midi":70,"time":165.36600800000053,"velocity":0.7007874015748031,"duration":0.09070130416665734},{"name":"G5","midi":79,"time":165.36600800000053,"velocity":0.7007874015748031,"duration":0.09070130416665734},{"name":"E5","midi":76,"time":165.5489350000005,"velocity":0.7559055118110236,"duration":0.09070130416665734},{"name":"G5","midi":79,"time":165.5489350000005,"velocity":0.7559055118110236,"duration":0.09070130416665734},{"name":"E6","midi":88,"time":165.5489350000005,"velocity":0.7559055118110236,"duration":0.09070130416665734},{"name":"E5","midi":76,"time":165.7318620000005,"velocity":0.7559055118110236,"duration":0.09070130416665734},{"name":"G5","midi":79,"time":165.7318620000005,"velocity":0.7559055118110236,"duration":0.09070130416665734},{"name":"E6","midi":88,"time":165.7318620000005,"velocity":0.7559055118110236,"duration":0.09070130416665734},{"name":"E5","midi":76,"time":165.91478900000047,"velocity":0.7559055118110236,"duration":0.09070130416665734},{"name":"G5","midi":79,"time":165.91478900000047,"velocity":0.7559055118110236,"duration":0.09070130416665734},{"name":"E6","midi":88,"time":165.91478900000047,"velocity":0.7559055118110236,"duration":0.09070130416665734},{"name":"E5","midi":76,"time":166.09771600000045,"velocity":0.7559055118110236,"duration":0.09070130416665734},{"name":"G5","midi":79,"time":166.09771600000045,"velocity":0.7559055118110236,"duration":0.09070130416665734},{"name":"E6","midi":88,"time":166.09771600000045,"velocity":0.7559055118110236,"duration":0.09070130416665734},{"name":"E5","midi":76,"time":166.28064300000042,"velocity":0.7559055118110236,"duration":0.09070130416665734},{"name":"G5","midi":79,"time":166.28064300000042,"velocity":0.7559055118110236,"duration":0.09070130416665734},{"name":"E6","midi":88,"time":166.28064300000042,"velocity":0.7559055118110236,"duration":0.09070130416665734},{"name":"D#5","midi":75,"time":166.4635700000004,"velocity":0.7559055118110236,"duration":0.09070130416665734},{"name":"G5","midi":79,"time":166.4635700000004,"velocity":0.7559055118110236,"duration":0.09070130416665734},{"name":"D#6","midi":87,"time":166.4635700000004,"velocity":0.7559055118110236,"duration":0.09070130416665734},{"name":"C#5","midi":73,"time":166.64649700000038,"velocity":0.7559055118110236,"duration":0.09070130416665734},{"name":"G5","midi":79,"time":166.64649700000038,"velocity":0.7559055118110236,"duration":0.09070130416665734},{"name":"C#6","midi":85,"time":166.64649700000038,"velocity":0.7559055118110236,"duration":0.09070130416665734},{"name":"B4","midi":71,"time":166.82942400000036,"velocity":0.7559055118110236,"duration":0.09070130416665734},{"name":"G#5","midi":80,"time":166.82942400000036,"velocity":0.7559055118110236,"duration":0.09070130416665734},{"name":"B5","midi":83,"time":166.82942400000036,"velocity":0.7559055118110236,"duration":0.09070130416665734},{"name":"B4","midi":71,"time":167.01235100000034,"velocity":0.3858267716535433,"duration":0.09070130416665734},{"name":"D#5","midi":75,"time":167.01235100000034,"velocity":0.3858267716535433,"duration":0.09070130416665734},{"name":"B5","midi":83,"time":167.01235100000034,"velocity":0.3858267716535433,"duration":0.09070130416665734},{"name":"B4","midi":71,"time":167.19527800000031,"velocity":0.3858267716535433,"duration":0.09070130416665734},{"name":"D#5","midi":75,"time":167.19527800000031,"velocity":0.3858267716535433,"duration":0.09070130416665734},{"name":"B5","midi":83,"time":167.19527800000031,"velocity":0.3858267716535433,"duration":0.09070130416665734},{"name":"B4","midi":71,"time":167.3782050000003,"velocity":0.3858267716535433,"duration":0.09070130416665734},{"name":"D#5","midi":75,"time":167.3782050000003,"velocity":0.3858267716535433,"duration":0.09070130416665734},{"name":"B5","midi":83,"time":167.3782050000003,"velocity":0.3858267716535433,"duration":0.09070130416665734},{"name":"B4","midi":71,"time":167.56113200000027,"velocity":0.4881889763779528,"duration":0.09070130416665734},{"name":"D#5","midi":75,"time":167.56113200000027,"velocity":0.4881889763779528,"duration":0.09070130416665734},{"name":"B5","midi":83,"time":167.56113200000027,"velocity":0.4881889763779528,"duration":0.09070130416665734},{"name":"B4","midi":71,"time":167.74405900000025,"velocity":0.5433070866141733,"duration":0.09070130416665734},{"name":"D#5","midi":75,"time":167.74405900000025,"velocity":0.5433070866141733,"duration":0.09070130416665734},{"name":"B5","midi":83,"time":167.74405900000025,"velocity":0.5433070866141733,"duration":0.09070130416665734},{"name":"A#4","midi":70,"time":167.92698600000023,"velocity":0.5984251968503937,"duration":0.09070130416665734},{"name":"C#5","midi":73,"time":167.92698600000023,"velocity":0.5984251968503937,"duration":0.09070130416665734},{"name":"A#5","midi":82,"time":167.92698600000023,"velocity":0.5984251968503937,"duration":0.09070130416665734},{"name":"G#4","midi":68,"time":168.1099130000002,"velocity":0.6535433070866141,"duration":0.09070130416665734},{"name":"B4","midi":71,"time":168.1099130000002,"velocity":0.6535433070866141,"duration":0.09070130416665734},{"name":"G#5","midi":80,"time":168.1099130000002,"velocity":0.6535433070866141,"duration":0.09070130416665734},{"name":"G4","midi":67,"time":168.29284000000018,"velocity":0.7007874015748031,"duration":0.09070130416665734},{"name":"A#4","midi":70,"time":168.29284000000018,"velocity":0.7007874015748031,"duration":0.09070130416665734},{"name":"G5","midi":79,"time":168.29284000000018,"velocity":0.7007874015748031,"duration":0.09070130416665734},{"name":"E5","midi":76,"time":168.47576700000016,"velocity":0.7559055118110236,"duration":0.09070130416665734},{"name":"G5","midi":79,"time":168.47576700000016,"velocity":0.7559055118110236,"duration":0.09070130416665734},{"name":"E6","midi":88,"time":168.47576700000016,"velocity":0.7559055118110236,"duration":0.09070130416665734},{"name":"E5","midi":76,"time":168.65869400000014,"velocity":0.7559055118110236,"duration":0.09070130416665734},{"name":"G5","midi":79,"time":168.65869400000014,"velocity":0.7559055118110236,"duration":0.09070130416665734},{"name":"E6","midi":88,"time":168.65869400000014,"velocity":0.7559055118110236,"duration":0.09070130416665734},{"name":"E5","midi":76,"time":168.84162100000012,"velocity":0.7559055118110236,"duration":0.09070130416665734},{"name":"G5","midi":79,"time":168.84162100000012,"velocity":0.7559055118110236,"duration":0.09070130416665734},{"name":"E6","midi":88,"time":168.84162100000012,"velocity":0.7559055118110236,"duration":0.09070130416665734},{"name":"E5","midi":76,"time":169.0245480000001,"velocity":0.7559055118110236,"duration":0.09070130416665734},{"name":"G5","midi":79,"time":169.0245480000001,"velocity":0.7559055118110236,"duration":0.09070130416665734},{"name":"E6","midi":88,"time":169.0245480000001,"velocity":0.7559055118110236,"duration":0.09070130416665734},{"name":"E5","midi":76,"time":169.20747500000007,"velocity":0.7559055118110236,"duration":0.09070130416665734},{"name":"G5","midi":79,"time":169.20747500000007,"velocity":0.7559055118110236,"duration":0.09070130416665734},{"name":"E6","midi":88,"time":169.20747500000007,"velocity":0.7559055118110236,"duration":0.09070130416665734},{"name":"D#5","midi":75,"time":169.39040200000005,"velocity":0.7559055118110236,"duration":0.09070130416665734},{"name":"G5","midi":79,"time":169.39040200000005,"velocity":0.7559055118110236,"duration":0.09070130416665734},{"name":"D#6","midi":87,"time":169.39040200000005,"velocity":0.7559055118110236,"duration":0.09070130416665734},{"name":"C#5","midi":73,"time":169.57332900000003,"velocity":0.7559055118110236,"duration":0.09070130416665734},{"name":"G5","midi":79,"time":169.57332900000003,"velocity":0.7559055118110236,"duration":0.09070130416665734},{"name":"C#6","midi":85,"time":169.57332900000003,"velocity":0.7559055118110236,"duration":0.09070130416665734},{"name":"B4","midi":71,"time":169.756256,"velocity":0.7559055118110236,"duration":0.09070130416665734},{"name":"G#5","midi":80,"time":169.756256,"velocity":0.7559055118110236,"duration":0.09070130416665734},{"name":"B5","midi":83,"time":169.756256,"velocity":0.7559055118110236,"duration":0.09070130416665734},{"name":"G#5","midi":80,"time":169.93918299999999,"velocity":0.3858267716535433,"duration":0.09070130416665734},{"name":"B5","midi":83,"time":169.93918299999999,"velocity":0.3858267716535433,"duration":0.09070130416665734},{"name":"G#5","midi":80,"time":170.12210999999996,"velocity":0.3858267716535433,"duration":0.1821648041666606},{"name":"B5","midi":83,"time":170.12210999999996,"velocity":0.3858267716535433,"duration":0.1821648041666606},{"name":"B5","midi":83,"time":170.30503699999997,"velocity":0.3858267716535433,"duration":0.1821648041666606},{"name":"D#6","midi":87,"time":170.30503699999997,"velocity":0.3858267716535433,"duration":0.1821648041666606},{"name":"G#5","midi":80,"time":170.67089099999995,"velocity":0.3858267716535433,"duration":0.09070130416665734},{"name":"C#6","midi":85,"time":170.67089099999995,"velocity":0.3858267716535433,"duration":0.09070130416665734},{"name":"G#5","midi":80,"time":170.85381799999993,"velocity":0.3858267716535433,"duration":0.1821648041666606},{"name":"C#6","midi":85,"time":170.85381799999993,"velocity":0.3858267716535433,"duration":0.1821648041666606},{"name":"C#6","midi":85,"time":171.03674499999994,"velocity":0.3858267716535433,"duration":0.1821648041666606},{"name":"E6","midi":88,"time":171.03674499999994,"velocity":0.3858267716535433,"duration":0.1821648041666606},{"name":"G#5","midi":80,"time":171.40259899999992,"velocity":0.3858267716535433,"duration":0.09070130416665734},{"name":"B5","midi":83,"time":171.40259899999992,"velocity":0.3858267716535433,"duration":0.09070130416665734},{"name":"G#5","midi":80,"time":171.5855259999999,"velocity":0.3858267716535433,"duration":0.1821648041666606},{"name":"B5","midi":83,"time":171.5855259999999,"velocity":0.3858267716535433,"duration":0.1821648041666606},{"name":"B5","midi":83,"time":171.7684529999999,"velocity":0.3858267716535433,"duration":0.1821648041666606},{"name":"D#6","midi":87,"time":171.7684529999999,"velocity":0.3858267716535433,"duration":0.1821648041666606},{"name":"G5","midi":79,"time":172.1343069999999,"velocity":0.3858267716535433,"duration":0.09070130416665734},{"name":"A#5","midi":82,"time":172.1343069999999,"velocity":0.3858267716535433,"duration":0.09070130416665734},{"name":"G5","midi":79,"time":172.31723399999987,"velocity":0.3858267716535433,"duration":0.1821648041666606},{"name":"A#5","midi":82,"time":172.31723399999987,"velocity":0.3858267716535433,"duration":0.1821648041666606},{"name":"A#5","midi":82,"time":172.50016099999988,"velocity":0.3858267716535433,"duration":0.1821648041666606},{"name":"D#6","midi":87,"time":172.50016099999988,"velocity":0.3858267716535433,"duration":0.1821648041666606},{"name":"D#5","midi":75,"time":172.86601499999986,"velocity":0.3858267716535433,"duration":0.09070130416665734},{"name":"B5","midi":83,"time":172.86601499999986,"velocity":0.3858267716535433,"duration":0.09070130416665734},{"name":"D#5","midi":75,"time":173.04894199999984,"velocity":0.4094488188976378,"duration":0.1821648041666606},{"name":"B5","midi":83,"time":173.04894199999984,"velocity":0.4094488188976378,"duration":0.1821648041666606},{"name":"G#5","midi":80,"time":173.23186899999985,"velocity":0.4251968503937008,"duration":0.1821648041666606},{"name":"D#6","midi":87,"time":173.23186899999985,"velocity":0.4251968503937008,"duration":0.1821648041666606},{"name":"C#5","midi":73,"time":173.59772299999983,"velocity":0.4409448818897638,"duration":0.09070130416665734},{"name":"A5","midi":81,"time":173.59772299999983,"velocity":0.4409448818897638,"duration":0.09070130416665734},{"name":"C#5","midi":73,"time":173.7806499999998,"velocity":0.44881889763779526,"duration":0.1821648041666606},{"name":"A5","midi":81,"time":173.7806499999998,"velocity":0.44881889763779526,"duration":0.1821648041666606},{"name":"E5","midi":76,"time":173.96357699999982,"velocity":0.4645669291338583,"duration":0.1821648041666606},{"name":"C#6","midi":85,"time":173.96357699999982,"velocity":0.4645669291338583,"duration":0.1821648041666606},{"name":"B4","midi":71,"time":174.3294309999998,"velocity":0.48031496062992124,"duration":0.09070130416665734},{"name":"G#5","midi":80,"time":174.3294309999998,"velocity":0.48031496062992124,"duration":0.09070130416665734},{"name":"B4","midi":71,"time":174.51235799999978,"velocity":0.49606299212598426,"duration":0.1821648041666606},{"name":"G#5","midi":80,"time":174.51235799999978,"velocity":0.49606299212598426,"duration":0.1821648041666606},{"name":"D#5","midi":75,"time":174.69528499999979,"velocity":0.5039370078740157,"duration":0.1821648041666606},{"name":"B5","midi":83,"time":174.69528499999979,"velocity":0.5039370078740157,"duration":0.1821648041666606},{"name":"A#4","midi":70,"time":175.06113899999977,"velocity":0.44881889763779526,"duration":0.09070130416665734},{"name":"G5","midi":79,"time":175.06113899999977,"velocity":0.44881889763779526,"duration":0.09070130416665734},{"name":"A#4","midi":70,"time":175.24406599999975,"velocity":0.4251968503937008,"duration":0.1821648041666606},{"name":"G5","midi":79,"time":175.24406599999975,"velocity":0.4251968503937008,"duration":0.1821648041666606},{"name":"C#5","midi":73,"time":175.42699299999975,"velocity":0.4094488188976378,"duration":0.1821648041666606},{"name":"A#5","midi":82,"time":175.42699299999975,"velocity":0.4094488188976378,"duration":0.1821648041666606},{"name":"B4","midi":71,"time":175.60991999999976,"velocity":0.3858267716535433,"duration":0.3650918041666671},{"name":"G#5","midi":80,"time":175.60991999999976,"velocity":0.3858267716535433,"duration":0.3650918041666671},{"name":"B4","midi":71,"time":176.70748199999977,"velocity":0.3858267716535433,"duration":0.27362830416666384},{"name":"G#4","midi":68,"time":176.98187249999978,"velocity":0.3858267716535433,"duration":0.09070130416665734},{"name":"G4","midi":67,"time":177.07333599999978,"velocity":0.3858267716535433,"duration":0.3650918041666671},{"name":"C#4","midi":61,"time":177.4391899999998,"velocity":0.3858267716535433,"duration":0.1821648041666606},{"name":"G4","midi":67,"time":177.4391899999998,"velocity":0.3858267716535433,"duration":0.1821648041666606},{"name":"D#5","midi":75,"time":177.4391899999998,"velocity":0.3858267716535433,"duration":0.1821648041666606},{"name":"C#4","midi":61,"time":177.80504399999978,"velocity":0.3858267716535433,"duration":0.1821648041666606},{"name":"G4","midi":67,"time":177.80504399999978,"velocity":0.3858267716535433,"duration":0.1821648041666606},{"name":"D#5","midi":75,"time":177.80504399999978,"velocity":0.3858267716535433,"duration":0.1821648041666606},{"name":"C#4","midi":61,"time":178.17089799999977,"velocity":0.3858267716535433,"duration":0.1821648041666606},{"name":"G4","midi":67,"time":178.17089799999977,"velocity":0.3858267716535433,"duration":0.1821648041666606},{"name":"D#5","midi":75,"time":178.17089799999977,"velocity":0.3858267716535433,"duration":0.1821648041666606},{"name":"B3","midi":59,"time":178.53675199999975,"velocity":0.3858267716535433,"duration":0.0632622541666592},{"name":"G#4","midi":68,"time":178.60077644999976,"velocity":0.3858267716535433,"duration":0.0632622541666592},{"name":"D#5","midi":75,"time":178.66556309583308,"velocity":0.3858267716535433,"duration":0.967226512499991},{"name":"B5","midi":83,"time":179.63431399999973,"velocity":0.3858267716535433,"duration":0.27362830416666384},{"name":"G#5","midi":80,"time":179.90870449999974,"velocity":0.3858267716535433,"duration":0.09070130416665734},{"name":"G5","midi":79,"time":180.00016799999975,"velocity":0.3858267716535433,"duration":0.3650918041666671},{"name":"C#5","midi":73,"time":180.36602199999976,"velocity":0.3858267716535433,"duration":0.1821648041666606},{"name":"G5","midi":79,"time":180.36602199999976,"velocity":0.3858267716535433,"duration":0.1821648041666606},{"name":"D#6","midi":87,"time":180.36602199999976,"velocity":0.3858267716535433,"duration":0.1821648041666606},{"name":"C#5","midi":73,"time":180.73187599999974,"velocity":0.3858267716535433,"duration":0.1821648041666606},{"name":"G5","midi":79,"time":180.73187599999974,"velocity":0.3858267716535433,"duration":0.1821648041666606},{"name":"D#6","midi":87,"time":180.73187599999974,"velocity":0.3858267716535433,"duration":0.1821648041666606},{"name":"C#5","midi":73,"time":181.09772999999973,"velocity":0.3858267716535433,"duration":0.1821648041666606},{"name":"G5","midi":79,"time":181.09772999999973,"velocity":0.3858267716535433,"duration":0.1821648041666606},{"name":"D#6","midi":87,"time":181.09772999999973,"velocity":0.3858267716535433,"duration":0.1821648041666606},{"name":"B4","midi":71,"time":181.4635839999997,"velocity":0.3858267716535433,"duration":0.0632622541666592},{"name":"G#5","midi":80,"time":181.52760844999972,"velocity":0.3858267716535433,"duration":0.0632622541666592},{"name":"D#6","midi":87,"time":181.59239509583304,"velocity":0.3858267716535433,"duration":0.6013725125000065},{"name":"C#5","midi":73,"time":182.1952919999997,"velocity":0.3858267716535433,"duration":0.0632622541666592},{"name":"G5","midi":79,"time":182.25931644999972,"velocity":0.3858267716535433,"duration":0.0632622541666592},{"name":"D#6","midi":87,"time":182.32410309583304,"velocity":0.3858267716535433,"duration":0.6013725125000065},{"name":"B4","midi":71,"time":182.9269999999997,"velocity":0.3858267716535433,"duration":0.0632622541666592},{"name":"G#5","midi":80,"time":182.9910244499997,"velocity":0.3858267716535433,"duration":0.0632622541666592},{"name":"D#6","midi":87,"time":183.05581109583304,"velocity":0.3858267716535433,"duration":0.6013725125000065},{"name":"C#5","midi":73,"time":183.6587079999997,"velocity":0.3858267716535433,"duration":0.0632622541666592},{"name":"G5","midi":79,"time":183.7227324499997,"velocity":0.3858267716535433,"duration":0.0632622541666592},{"name":"D#6","midi":87,"time":183.78751909583303,"velocity":0.3858267716535433,"duration":0.6013725125000065},{"name":"B3","midi":59,"time":184.3904159999997,"velocity":0.3858267716535433,"duration":0.09070130416665734},{"name":"G#4","midi":68,"time":184.4818794999997,"velocity":0.4094488188976378,"duration":0.09070130416665734},{"name":"D#4","midi":63,"time":184.5733429999997,"velocity":0.41732283464566927,"duration":0.09070130416665734},{"name":"G#4","midi":68,"time":184.6648064999997,"velocity":0.4330708661417323,"duration":0.09070130416665734},{"name":"B3","midi":59,"time":184.75626999999972,"velocity":0.4409448818897638,"duration":0.09070130416665734},{"name":"G#4","midi":68,"time":184.84773349999972,"velocity":0.4566929133858268,"duration":0.09070130416665734},{"name":"D#4","midi":63,"time":184.93919699999972,"velocity":0.4645669291338583,"duration":0.09070130416665734},{"name":"G#4","midi":68,"time":185.03066049999973,"velocity":0.47244094488188976,"duration":0.09070130416665734},{"name":"B3","midi":59,"time":185.12212399999973,"velocity":0.4881889763779528,"duration":0.09070130416665734},{"name":"G#4","midi":68,"time":185.21358749999973,"velocity":0.49606299212598426,"duration":0.09070130416665734},{"name":"D#4","midi":63,"time":185.30505099999974,"velocity":0.5118110236220472,"duration":0.09070130416665734},{"name":"G#4","midi":68,"time":185.39651449999974,"velocity":0.5196850393700787,"duration":0.09070130416665734},{"name":"B3","midi":59,"time":185.48797799999974,"velocity":0.5354330708661418,"duration":0.09070130416665734},{"name":"G#4","midi":68,"time":185.57944149999975,"velocity":0.5433070866141733,"duration":0.09070130416665734},{"name":"D#4","midi":63,"time":185.67090499999975,"velocity":0.5511811023622047,"duration":0.09070130416665734},{"name":"G#4","midi":68,"time":185.76236849999975,"velocity":0.5669291338582677,"duration":0.09070130416665734},{"name":"C4","midi":60,"time":185.85383199999976,"velocity":0.5748031496062992,"duration":0.09070130416665734},{"name":"F#4","midi":66,"time":185.94529549999976,"velocity":0.5905511811023622,"duration":0.09070130416665734},{"name":"D#4","midi":63,"time":186.03675899999976,"velocity":0.5984251968503937,"duration":0.09070130416665734},{"name":"F#4","midi":66,"time":186.12822249999977,"velocity":0.6062992125984252,"duration":0.09070130416665734},{"name":"C4","midi":60,"time":186.21968599999977,"velocity":0.6220472440944882,"duration":0.09070130416665734},{"name":"F#4","midi":66,"time":186.31114949999977,"velocity":0.6299212598425197,"duration":0.09070130416665734},{"name":"D#4","midi":63,"time":186.40261299999977,"velocity":0.6456692913385826,"duration":0.09070130416665734},{"name":"F#4","midi":66,"time":186.49407649999978,"velocity":0.6535433070866141,"duration":0.09070130416665734},{"name":"C4","midi":60,"time":186.58553999999978,"velocity":0.6692913385826772,"duration":0.09070130416665734},{"name":"F#4","midi":66,"time":186.67700349999978,"velocity":0.6771653543307087,"duration":0.09070130416665734},{"name":"D#4","midi":63,"time":186.7684669999998,"velocity":0.6850393700787402,"duration":0.09070130416665734},{"name":"F#4","midi":66,"time":186.8599304999998,"velocity":0.7007874015748031,"duration":0.09070130416665734},{"name":"C4","midi":60,"time":186.9513939999998,"velocity":0.7086614173228346,"duration":0.09070130416665734},{"name":"F#4","midi":66,"time":187.0428574999998,"velocity":0.7244094488188977,"duration":0.09070130416665734},{"name":"D#4","midi":63,"time":187.1343209999998,"velocity":0.7322834645669292,"duration":0.09070130416665734},{"name":"F#4","midi":66,"time":187.2257844999998,"velocity":0.7480314960629921,"duration":0.09070130416665734},{"name":"C#4","midi":61,"time":187.3172479999998,"velocity":0.7559055118110236,"duration":0.09070130416665734},{"name":"F4","midi":65,"time":187.3172479999998,"velocity":0.7559055118110236,"duration":0.09070130416665734},{"name":"F3","midi":53,"time":187.3172479999998,"velocity":0.7559055118110236,"duration":0.09070130416665734},{"name":"G#3","midi":56,"time":187.3172479999998,"velocity":0.7559055118110236,"duration":0.09070130416665734},{"name":"C#3","midi":49,"time":187.4087114999998,"velocity":0.3858267716535433,"duration":0.09070130416665734},{"name":"F3","midi":53,"time":187.5001749999998,"velocity":0.3858267716535433,"duration":0.09070130416665734},{"name":"G#3","midi":56,"time":187.59163849999982,"velocity":0.3858267716535433,"duration":0.09070130416665734},{"name":"C#4","midi":61,"time":187.68310199999982,"velocity":0.3858267716535433,"duration":0.09070130416665734},{"name":"F3","midi":53,"time":187.77456549999982,"velocity":0.3858267716535433,"duration":0.09070130416665734},{"name":"G#3","midi":56,"time":187.86602899999983,"velocity":0.3858267716535433,"duration":0.09070130416665734},{"name":"C#4","midi":61,"time":187.95749249999983,"velocity":0.3858267716535433,"duration":0.09070130416665734},{"name":"F4","midi":65,"time":188.04895599999983,"velocity":0.3858267716535433,"duration":0.09070130416665734},{"name":"G#3","midi":56,"time":188.14041949999984,"velocity":0.3858267716535433,"duration":0.09070130416665734},{"name":"C#4","midi":61,"time":188.23188299999984,"velocity":0.3858267716535433,"duration":0.09070130416665734},{"name":"F4","midi":65,"time":188.32334649999984,"velocity":0.3858267716535433,"duration":0.09070130416665734},{"name":"G#4","midi":68,"time":188.41480999999985,"velocity":0.3858267716535433,"duration":0.09070130416665734},{"name":"C#4","midi":61,"time":188.50627349999985,"velocity":0.3858267716535433,"duration":0.09070130416665734},{"name":"F4","midi":65,"time":188.59773699999985,"velocity":0.3858267716535433,"duration":0.09070130416665734},{"name":"G#4","midi":68,"time":188.68920049999986,"velocity":0.3858267716535433,"duration":0.09070130416665734},{"name":"C#5","midi":73,"time":188.78066399999986,"velocity":0.3858267716535433,"duration":0.09070130416665734},{"name":"F4","midi":65,"time":188.87212749999986,"velocity":0.3858267716535433,"duration":0.09070130416665734},{"name":"G#4","midi":68,"time":188.96359099999987,"velocity":0.3858267716535433,"duration":0.09070130416665734},{"name":"C#5","midi":73,"time":189.05505449999987,"velocity":0.3858267716535433,"duration":0.09070130416665734},{"name":"F5","midi":77,"time":189.14651799999987,"velocity":0.3858267716535433,"duration":0.09070130416665734},{"name":"G#4","midi":68,"time":189.23798149999988,"velocity":0.3858267716535433,"duration":0.09070130416665734},{"name":"C#5","midi":73,"time":189.32944499999988,"velocity":0.3858267716535433,"duration":0.09070130416665734},{"name":"F5","midi":77,"time":189.42090849999988,"velocity":0.3858267716535433,"duration":0.09070130416665734},{"name":"G#5","midi":80,"time":189.51237199999989,"velocity":0.3858267716535433,"duration":0.09070130416665734},{"name":"C#5","midi":73,"time":189.6038354999999,"velocity":0.3858267716535433,"duration":0.09070130416665734},{"name":"F5","midi":77,"time":189.6952989999999,"velocity":0.3858267716535433,"duration":0.09070130416665734},{"name":"G#5","midi":80,"time":189.7867624999999,"velocity":0.3858267716535433,"duration":0.09070130416665734},{"name":"C#5","midi":73,"time":189.8782259999999,"velocity":0.5039370078740157,"duration":0.09070130416665734},{"name":"F5","midi":77,"time":189.8782259999999,"velocity":0.5039370078740157,"duration":0.09070130416665734},{"name":"G#5","midi":80,"time":189.8782259999999,"velocity":0.5039370078740157,"duration":0.09070130416665734},{"name":"C#6","midi":85,"time":189.8782259999999,"velocity":0.5039370078740157,"duration":0.09070130416665734},{"name":"C#5","midi":73,"time":190.06115299999988,"velocity":0.3858267716535433,"duration":0.09070130416665734},{"name":"F5","midi":77,"time":190.06115299999988,"velocity":0.3858267716535433,"duration":0.09070130416665734},{"name":"G#5","midi":80,"time":190.06115299999988,"velocity":0.3858267716535433,"duration":0.09070130416665734},{"name":"C#6","midi":85,"time":190.06115299999988,"velocity":0.3858267716535433,"duration":0.09070130416665734},{"name":"C#3","midi":49,"time":190.33554349999986,"velocity":0.3858267716535433,"duration":0.09070130416665734},{"name":"F3","midi":53,"time":190.42700699999986,"velocity":0.3858267716535433,"duration":0.09070130416665734},{"name":"G#3","midi":56,"time":190.51847049999986,"velocity":0.3858267716535433,"duration":0.09070130416665734},{"name":"C#4","midi":61,"time":190.60993399999987,"velocity":0.3858267716535433,"duration":0.09070130416665734},{"name":"F3","midi":53,"time":190.70139749999987,"velocity":0.3858267716535433,"duration":0.09070130416665734},{"name":"G#3","midi":56,"time":190.79286099999987,"velocity":0.3858267716535433,"duration":0.09070130416665734},{"name":"C#4","midi":61,"time":190.88432449999988,"velocity":0.3858267716535433,"duration":0.09070130416665734},{"name":"F4","midi":65,"time":190.97578799999988,"velocity":0.3858267716535433,"duration":0.09070130416665734},{"name":"G#3","midi":56,"time":191.06725149999988,"velocity":0.3858267716535433,"duration":0.09070130416665734},{"name":"C#4","midi":61,"time":191.1587149999999,"velocity":0.3858267716535433,"duration":0.09070130416665734},{"name":"F4","midi":65,"time":191.2501784999999,"velocity":0.3858267716535433,"duration":0.09070130416665734},{"name":"G#4","midi":68,"time":191.3416419999999,"velocity":0.3858267716535433,"duration":0.09070130416665734},{"name":"C#4","midi":61,"time":191.4331054999999,"velocity":0.3858267716535433,"duration":0.09070130416665734},{"name":"F4","midi":65,"time":191.5245689999999,"velocity":0.3858267716535433,"duration":0.09070130416665734},{"name":"G#4","midi":68,"time":191.6160324999999,"velocity":0.3858267716535433,"duration":0.09070130416665734},{"name":"C#5","midi":73,"time":191.7074959999999,"velocity":0.3858267716535433,"duration":0.09070130416665734},{"name":"F4","midi":65,"time":191.7989594999999,"velocity":0.3858267716535433,"duration":0.09070130416665734},{"name":"G#4","midi":68,"time":191.8904229999999,"velocity":0.3858267716535433,"duration":0.09070130416665734},{"name":"C#5","midi":73,"time":191.98188649999992,"velocity":0.3858267716535433,"duration":0.09070130416665734},{"name":"F5","midi":77,"time":192.07334999999992,"velocity":0.3858267716535433,"duration":0.09070130416665734},{"name":"G#4","midi":68,"time":192.16481349999992,"velocity":0.3858267716535433,"duration":0.09070130416665734},{"name":"C#5","midi":73,"time":192.25627699999993,"velocity":0.3858267716535433,"duration":0.09070130416665734},{"name":"F5","midi":77,"time":192.34774049999993,"velocity":0.3858267716535433,"duration":0.09070130416665734},{"name":"G#5","midi":80,"time":192.43920399999993,"velocity":0.3858267716535433,"duration":0.09070130416665734},{"name":"C#5","midi":73,"time":192.53066749999994,"velocity":0.3858267716535433,"duration":0.09070130416665734},{"name":"F5","midi":77,"time":192.62213099999994,"velocity":0.3858267716535433,"duration":0.09070130416665734},{"name":"G#5","midi":80,"time":192.71359449999994,"velocity":0.3858267716535433,"duration":0.09070130416665734},{"name":"C#5","midi":73,"time":192.80505799999995,"velocity":0.5039370078740157,"duration":0.09070130416665734},{"name":"F5","midi":77,"time":192.80505799999995,"velocity":0.5039370078740157,"duration":0.09070130416665734},{"name":"G#5","midi":80,"time":192.80505799999995,"velocity":0.5039370078740157,"duration":0.09070130416665734},{"name":"C#6","midi":85,"time":192.80505799999995,"velocity":0.5039370078740157,"duration":0.09070130416665734},{"name":"C#5","midi":73,"time":192.98798499999992,"velocity":0.3858267716535433,"duration":0.09070130416665734},{"name":"F5","midi":77,"time":192.98798499999992,"velocity":0.3858267716535433,"duration":0.09070130416665734},{"name":"G#5","midi":80,"time":192.98798499999992,"velocity":0.3858267716535433,"duration":0.09070130416665734},{"name":"C#6","midi":85,"time":192.98798499999992,"velocity":0.3858267716535433,"duration":0.09070130416665734},{"name":"C#3","midi":49,"time":193.2623754999999,"velocity":0.3858267716535433,"duration":0.09070130416665734},{"name":"F#3","midi":54,"time":193.3538389999999,"velocity":0.3858267716535433,"duration":0.09070130416665734},{"name":"A3","midi":57,"time":193.4453024999999,"velocity":0.3858267716535433,"duration":0.09070130416665734},{"name":"C#4","midi":61,"time":193.53676599999991,"velocity":0.3858267716535433,"duration":0.04496955416666992},{"name":"C#4","midi":61,"time":193.62822949999992,"velocity":0.3858267716535433,"duration":0.09070130416665734},{"name":"F#4","midi":66,"time":193.71969299999992,"velocity":0.3858267716535433,"duration":0.09070130416665734},{"name":"A4","midi":69,"time":193.81115649999992,"velocity":0.3858267716535433,"duration":0.09070130416665734},{"name":"C#5","midi":73,"time":193.90261999999993,"velocity":0.3858267716535433,"duration":0.04496955416666992},{"name":"C#5","midi":73,"time":193.99408349999993,"velocity":0.3858267716535433,"duration":0.09070130416665734},{"name":"F#5","midi":78,"time":194.08554699999993,"velocity":0.3858267716535433,"duration":0.09070130416665734},{"name":"A5","midi":81,"time":194.17701049999994,"velocity":0.3858267716535433,"duration":0.09070130416665734},{"name":"C#5","midi":73,"time":194.26847399999994,"velocity":0.5039370078740157,"duration":0.09070130416665734},{"name":"F#5","midi":78,"time":194.26847399999994,"velocity":0.5039370078740157,"duration":0.09070130416665734},{"name":"A5","midi":81,"time":194.26847399999994,"velocity":0.5039370078740157,"duration":0.09070130416665734},{"name":"C#6","midi":85,"time":194.26847399999994,"velocity":0.5039370078740157,"duration":0.09070130416665734},{"name":"C#5","midi":73,"time":194.45140099999992,"velocity":0.3858267716535433,"duration":0.09070130416665734},{"name":"F#5","midi":78,"time":194.45140099999992,"velocity":0.3858267716535433,"duration":0.09070130416665734},{"name":"A5","midi":81,"time":194.45140099999992,"velocity":0.3858267716535433,"duration":0.09070130416665734},{"name":"C#6","midi":85,"time":194.45140099999992,"velocity":0.3858267716535433,"duration":0.09070130416665734},{"name":"C#3","midi":49,"time":194.7257914999999,"velocity":0.3858267716535433,"duration":0.09070130416665734},{"name":"G#3","midi":56,"time":194.8172549999999,"velocity":0.3858267716535433,"duration":0.09070130416665734},{"name":"B3","midi":59,"time":194.9087184999999,"velocity":0.3858267716535433,"duration":0.09070130416665734},{"name":"C#4","midi":61,"time":195.0001819999999,"velocity":0.3858267716535433,"duration":0.04496955416666992},{"name":"C#4","midi":61,"time":195.0916454999999,"velocity":0.3858267716535433,"duration":0.09070130416665734},{"name":"G#4","midi":68,"time":195.18310899999992,"velocity":0.3858267716535433,"duration":0.09070130416665734},{"name":"B4","midi":71,"time":195.27457249999992,"velocity":0.3858267716535433,"duration":0.09070130416665734},{"name":"C#5","midi":73,"time":195.36603599999992,"velocity":0.3858267716535433,"duration":0.04496955416666992},{"name":"C#5","midi":73,"time":195.45749949999993,"velocity":0.3858267716535433,"duration":0.09070130416665734},{"name":"G#5","midi":80,"time":195.54896299999993,"velocity":0.3858267716535433,"duration":0.09070130416665734},{"name":"B5","midi":83,"time":195.64042649999993,"velocity":0.3858267716535433,"duration":0.09070130416665734},{"name":"C#5","midi":73,"time":195.73188999999994,"velocity":0.5039370078740157,"duration":0.09070130416665734},{"name":"G#5","midi":80,"time":195.73188999999994,"velocity":0.5039370078740157,"duration":0.09070130416665734},{"name":"B5","midi":83,"time":195.73188999999994,"velocity":0.5039370078740157,"duration":0.09070130416665734},{"name":"C#6","midi":85,"time":195.73188999999994,"velocity":0.5039370078740157,"duration":0.09070130416665734},{"name":"C#5","midi":73,"time":195.9148169999999,"velocity":0.3858267716535433,"duration":0.09070130416665734},{"name":"G#5","midi":80,"time":195.9148169999999,"velocity":0.3858267716535433,"duration":0.09070130416665734},{"name":"B5","midi":83,"time":195.9148169999999,"velocity":0.3858267716535433,"duration":0.09070130416665734},{"name":"C#6","midi":85,"time":195.9148169999999,"velocity":0.3858267716535433,"duration":0.09070130416665734},{"name":"C#5","midi":73,"time":196.0977439999999,"velocity":0.3858267716535433,"duration":0.1821648041666606},{"name":"F#5","midi":78,"time":196.0977439999999,"velocity":0.3858267716535433,"duration":0.1821648041666606},{"name":"A5","midi":81,"time":196.0977439999999,"velocity":0.3858267716535433,"duration":0.1821648041666606},{"name":"C#6","midi":85,"time":196.0977439999999,"velocity":0.3858267716535433,"duration":0.1821648041666606},{"name":"C#5","midi":73,"time":196.46359799999988,"velocity":0.3858267716535433,"duration":0.7309458041666801},{"name":"A4","midi":69,"time":197.1953059999999,"velocity":0.3858267716535433,"duration":0.27362830416666384},{"name":"F#4","midi":66,"time":197.4696964999999,"velocity":0.3858267716535433,"duration":0.09070130416665734},{"name":"F4","midi":65,"time":197.56115999999992,"velocity":0.3858267716535433,"duration":0.05945127499998648},{"name":"F#4","midi":66,"time":197.62137347083325,"velocity":0.3858267716535433,"duration":0.05945127499998648},{"name":"G#4","midi":68,"time":197.6823491374999,"velocity":0.3858267716535433,"duration":0.05945127499998648},{"name":"F#4","midi":66,"time":197.7440869999999,"velocity":0.3858267716535433,"duration":0.1821648041666606},{"name":"F4","midi":65,"time":197.9270139999999,"velocity":0.3858267716535433,"duration":0.5480188041666736},{"name":"F4","midi":65,"time":198.47579499999992,"velocity":0.3858267716535433,"duration":0.1821648041666606},{"name":"C#5","midi":73,"time":198.65872199999993,"velocity":0.3858267716535433,"duration":0.27362830416666384},{"name":"F4","midi":65,"time":198.93311249999994,"velocity":0.3858267716535433,"duration":0.09070130416665734},{"name":"G#4","midi":68,"time":199.02457599999994,"velocity":0.3858267716535433,"duration":0.3650918041666671},{"name":"F#4","midi":66,"time":199.39042999999995,"velocity":0.3858267716535433,"duration":0.5480188041666736},{"name":"F#4","midi":66,"time":199.93921099999997,"velocity":0.3858267716535433,"duration":0.1821648041666606},{"name":"C#5","midi":73,"time":200.12213799999998,"velocity":0.3858267716535433,"duration":0.27362830416666384},{"name":"F#4","midi":66,"time":200.3965285,"velocity":0.3858267716535433,"duration":0.09070130416665734},{"name":"A4","midi":69,"time":200.487992,"velocity":0.3858267716535433,"duration":0.3650918041666671},{"name":"G#4","midi":68,"time":200.853846,"velocity":0.3858267716535433,"duration":0.5480188041666736},{"name":"G#4","midi":68,"time":201.40262700000002,"velocity":0.3858267716535433,"duration":0.1821648041666606},{"name":"C#5","midi":73,"time":201.58555400000003,"velocity":0.3858267716535433,"duration":0.27362830416666384},{"name":"G#4","midi":68,"time":201.85994450000004,"velocity":0.3858267716535433,"duration":0.09070130416665734},{"name":"A4","midi":69,"time":201.95140800000004,"velocity":0.3858267716535433,"duration":0.09070130416665734},{"name":"C#5","midi":73,"time":202.04287150000005,"velocity":0.3858267716535433,"duration":0.09070130416665734},{"name":"A4","midi":69,"time":202.13433500000005,"velocity":0.3858267716535433,"duration":0.09070130416665734},{"name":"C#5","midi":73,"time":202.22579850000005,"velocity":0.3858267716535433,"duration":0.09070130416665734},{"name":"F#4","midi":66,"time":202.31726200000006,"velocity":0.3858267716535433,"duration":0.09070130416665734},{"name":"C#5","midi":73,"time":202.40872550000006,"velocity":0.3858267716535433,"duration":0.09070130416665734},{"name":"A4","midi":69,"time":202.50018900000006,"velocity":0.3858267716535433,"duration":0.09070130416665734},{"name":"C#5","midi":73,"time":202.59165250000007,"velocity":0.3858267716535433,"duration":0.09070130416665734},{"name":"F#4","midi":66,"time":202.68311600000007,"velocity":0.3858267716535433,"duration":0.09070130416665734},{"name":"C#5","midi":73,"time":202.77457950000007,"velocity":0.3858267716535433,"duration":0.09070130416665734},{"name":"A4","midi":69,"time":202.86604300000008,"velocity":0.3858267716535433,"duration":0.09070130416665734},{"name":"C#5","midi":73,"time":202.95750650000008,"velocity":0.3858267716535433,"duration":0.09070130416665734},{"name":"F#4","midi":66,"time":203.04897000000008,"velocity":0.3858267716535433,"duration":0.09070130416665734},{"name":"C#5","midi":73,"time":203.14043350000009,"velocity":0.3858267716535433,"duration":0.09070130416665734},{"name":"A4","midi":69,"time":203.2318970000001,"velocity":0.3858267716535433,"duration":0.09070130416665734},{"name":"C#5","midi":73,"time":203.3233605000001,"velocity":0.3858267716535433,"duration":0.09070130416665734},{"name":"G#4","midi":68,"time":203.4148240000001,"velocity":0.3858267716535433,"duration":0.09070130416665734},{"name":"C#5","midi":73,"time":203.5062875000001,"velocity":0.3858267716535433,"duration":0.09070130416665734},{"name":"B4","midi":71,"time":203.5977510000001,"velocity":0.3858267716535433,"duration":0.09070130416665734},{"name":"C#5","midi":73,"time":203.6892145000001,"velocity":0.3858267716535433,"duration":0.09070130416665734},{"name":"G#4","midi":68,"time":203.7806780000001,"velocity":0.3858267716535433,"duration":0.09070130416665734},{"name":"C#5","midi":73,"time":203.8721415000001,"velocity":0.3858267716535433,"duration":0.09070130416665734},{"name":"B4","midi":71,"time":203.96360500000011,"velocity":0.3858267716535433,"duration":0.09070130416665734},{"name":"C#5","midi":73,"time":204.05506850000012,"velocity":0.3858267716535433,"duration":0.09070130416665734},{"name":"G#4","midi":68,"time":204.14653200000012,"velocity":0.3858267716535433,"duration":0.09070130416665734},{"name":"C#5","midi":73,"time":204.23799550000012,"velocity":0.3858267716535433,"duration":0.09070130416665734},{"name":"B4","midi":71,"time":204.32945900000013,"velocity":0.3858267716535433,"duration":0.09070130416665734},{"name":"C#5","midi":73,"time":204.42092250000013,"velocity":0.3858267716535433,"duration":0.09070130416665734},{"name":"G#4","midi":68,"time":204.51238600000013,"velocity":0.3858267716535433,"duration":0.09070130416665734},{"name":"C#5","midi":73,"time":204.60384950000014,"velocity":0.3858267716535433,"duration":0.09070130416665734},{"name":"B4","midi":71,"time":204.69531300000014,"velocity":0.3858267716535433,"duration":0.09070130416665734},{"name":"C#5","midi":73,"time":204.78677650000014,"velocity":0.3858267716535433,"duration":0.09070130416665734},{"name":"F#4","midi":66,"time":204.87824000000015,"velocity":0.3858267716535433,"duration":0.09070130416665734},{"name":"C#5","midi":73,"time":204.96970350000015,"velocity":0.3858267716535433,"duration":0.09070130416665734},{"name":"A4","midi":69,"time":205.06116700000015,"velocity":0.3858267716535433,"duration":0.09070130416665734},{"name":"C#5","midi":73,"time":205.15263050000016,"velocity":0.3858267716535433,"duration":0.09070130416665734},{"name":"F#4","midi":66,"time":205.24409400000016,"velocity":0.3858267716535433,"duration":0.09070130416665734},{"name":"C#5","midi":73,"time":205.33555750000016,"velocity":0.3858267716535433,"duration":0.09070130416665734},{"name":"A4","midi":69,"time":205.42702100000017,"velocity":0.3858267716535433,"duration":0.09070130416665734},{"name":"C#5","midi":73,"time":205.51848450000017,"velocity":0.3858267716535433,"duration":0.09070130416665734},{"name":"F#4","midi":66,"time":205.60994800000017,"velocity":0.3858267716535433,"duration":0.09070130416665734},{"name":"C#5","midi":73,"time":205.70141150000018,"velocity":0.3858267716535433,"duration":0.09070130416665734},{"name":"A4","midi":69,"time":205.79287500000018,"velocity":0.3858267716535433,"duration":0.09070130416665734},{"name":"C#5","midi":73,"time":205.88433850000018,"velocity":0.3858267716535433,"duration":0.09070130416665734},{"name":"F#4","midi":66,"time":205.9758020000002,"velocity":0.3858267716535433,"duration":0.09070130416665734},{"name":"C#5","midi":73,"time":206.0672655000002,"velocity":0.3858267716535433,"duration":0.09070130416665734},{"name":"A4","midi":69,"time":206.1587290000002,"velocity":0.3858267716535433,"duration":0.09070130416665734},{"name":"C#5","midi":73,"time":206.2501925000002,"velocity":0.3858267716535433,"duration":0.09070130416665734},{"name":"F#4","midi":66,"time":206.3416560000002,"velocity":0.3858267716535433,"duration":0.09070130416665734},{"name":"D5","midi":74,"time":206.4331195000002,"velocity":0.4330708661417323,"duration":0.09070130416665734},{"name":"A4","midi":69,"time":206.5245830000002,"velocity":0.44881889763779526,"duration":0.09070130416665734},{"name":"D5","midi":74,"time":206.6160465000002,"velocity":0.47244094488188976,"duration":0.09070130416665734},{"name":"F#4","midi":66,"time":206.7075100000002,"velocity":0.49606299212598426,"duration":0.09070130416665734},{"name":"D5","midi":74,"time":206.79897350000022,"velocity":0.5196850393700787,"duration":0.09070130416665734},{"name":"A4","midi":69,"time":206.89043700000022,"velocity":0.5354330708661418,"duration":0.09070130416665734},{"name":"D5","midi":74,"time":206.98190050000022,"velocity":0.5590551181102362,"duration":0.09070130416665734},{"name":"A4","midi":69,"time":207.07336400000023,"velocity":0.5826771653543307,"duration":0.09070130416665734},{"name":"D5","midi":74,"time":207.16482750000023,"velocity":0.6062992125984252,"duration":0.09070130416665734},{"name":"C5","midi":72,"time":207.25629100000023,"velocity":0.6220472440944882,"duration":0.09070130416665734},{"name":"D5","midi":74,"time":207.34775450000024,"velocity":0.6456692913385826,"duration":0.09070130416665734},{"name":"A4","midi":69,"time":207.43921800000024,"velocity":0.6692913385826772,"duration":0.09070130416665734},{"name":"D5","midi":74,"time":207.53068150000024,"velocity":0.6929133858267716,"duration":0.09070130416665734},{"name":"C5","midi":72,"time":207.62214500000024,"velocity":0.7086614173228346,"duration":0.09070130416665734},{"name":"D5","midi":74,"time":207.71360850000025,"velocity":0.7322834645669292,"duration":0.09070130416665734},{"name":"G4","midi":67,"time":207.80507200000025,"velocity":0.7559055118110236,"duration":0.09070130416665734},{"name":"D5","midi":74,"time":207.89653550000025,"velocity":0.6062992125984252,"duration":0.09070130416665734},{"name":"B4","midi":71,"time":207.98799900000026,"velocity":0.5354330708661418,"duration":0.09070130416665734},{"name":"D5","midi":74,"time":208.07946250000026,"velocity":0.4566929133858268,"duration":0.09070130416665734},{"name":"G4","midi":67,"time":208.17092600000026,"velocity":0.3858267716535433,"duration":0.09070130416665734},{"name":"D5","midi":74,"time":208.26238950000027,"velocity":0.3858267716535433,"duration":0.09070130416665734},{"name":"B4","midi":71,"time":208.35385300000027,"velocity":0.3858267716535433,"duration":0.09070130416665734},{"name":"D5","midi":74,"time":208.44531650000027,"velocity":0.3858267716535433,"duration":0.09070130416665734},{"name":"G4","midi":67,"time":208.53678000000028,"velocity":0.3858267716535433,"duration":0.09070130416665734},{"name":"D5","midi":74,"time":208.62824350000028,"velocity":0.3858267716535433,"duration":0.09070130416665734},{"name":"B4","midi":71,"time":208.71970700000028,"velocity":0.3858267716535433,"duration":0.09070130416665734},{"name":"D5","midi":74,"time":208.8111705000003,"velocity":0.3858267716535433,"duration":0.09070130416665734},{"name":"G4","midi":67,"time":208.9026340000003,"velocity":0.3858267716535433,"duration":0.09070130416665734},{"name":"D5","midi":74,"time":208.9940975000003,"velocity":0.3858267716535433,"duration":0.09070130416665734},{"name":"B4","midi":71,"time":209.0855610000003,"velocity":0.3858267716535433,"duration":0.09070130416665734},{"name":"D5","midi":74,"time":209.1770245000003,"velocity":0.3858267716535433,"duration":0.09070130416665734},{"name":"A4","midi":69,"time":209.2684880000003,"velocity":0.3858267716535433,"duration":0.09070130416665734},{"name":"D5","midi":74,"time":209.3599515000003,"velocity":0.3858267716535433,"duration":0.09070130416665734},{"name":"C5","midi":72,"time":209.4514150000003,"velocity":0.3858267716535433,"duration":0.09070130416665734},{"name":"D5","midi":74,"time":209.5428785000003,"velocity":0.3858267716535433,"duration":0.09070130416665734},{"name":"A4","midi":69,"time":209.63434200000032,"velocity":0.3858267716535433,"duration":0.09070130416665734},{"name":"D5","midi":74,"time":209.72580550000032,"velocity":0.3858267716535433,"duration":0.09070130416665734},{"name":"C5","midi":72,"time":209.81726900000032,"velocity":0.3858267716535433,"duration":0.09070130416665734},{"name":"D5","midi":74,"time":209.90873250000033,"velocity":0.3858267716535433,"duration":0.09070130416665734},{"name":"A4","midi":69,"time":210.00019600000033,"velocity":0.3858267716535433,"duration":0.09070130416665734},{"name":"D5","midi":74,"time":210.09165950000033,"velocity":0.3858267716535433,"duration":0.09070130416665734},{"name":"C5","midi":72,"time":210.18312300000034,"velocity":0.3858267716535433,"duration":0.09070130416665734},{"name":"D5","midi":74,"time":210.27458650000034,"velocity":0.3858267716535433,"duration":0.09070130416665734},{"name":"A4","midi":69,"time":210.36605000000034,"velocity":0.3858267716535433,"duration":0.09070130416665734},{"name":"D5","midi":74,"time":210.45751350000035,"velocity":0.3858267716535433,"duration":0.09070130416665734},{"name":"C5","midi":72,"time":210.54897700000035,"velocity":0.3858267716535433,"duration":0.09070130416665734},{"name":"D5","midi":74,"time":210.64044050000035,"velocity":0.3858267716535433,"duration":0.09070130416665734},{"name":"G4","midi":67,"time":210.73190400000036,"velocity":0.3858267716535433,"duration":0.09070130416665734},{"name":"D5","midi":74,"time":210.82336750000036,"velocity":0.3858267716535433,"duration":0.09070130416665734},{"name":"B4","midi":71,"time":210.91483100000036,"velocity":0.3858267716535433,"duration":0.09070130416665734},{"name":"D5","midi":74,"time":211.00629450000037,"velocity":0.3858267716535433,"duration":0.09070130416665734},{"name":"G4","midi":67,"time":211.09775800000037,"velocity":0.3858267716535433,"duration":0.09070130416665734},{"name":"D5","midi":74,"time":211.18922150000037,"velocity":0.3937007874015748,"duration":0.09070130416665734},{"name":"B4","midi":71,"time":211.28068500000037,"velocity":0.4015748031496063,"duration":0.09070130416665734},{"name":"D5","midi":74,"time":211.37214850000038,"velocity":0.4015748031496063,"duration":0.09070130416665734},{"name":"G4","midi":67,"time":211.46361200000038,"velocity":0.4094488188976378,"duration":0.09070130416665734},{"name":"D5","midi":74,"time":211.55507550000038,"velocity":0.4094488188976378,"duration":0.09070130416665734},{"name":"B4","midi":71,"time":211.6465390000004,"velocity":0.41732283464566927,"duration":0.09070130416665734},{"name":"D5","midi":74,"time":211.7380025000004,"velocity":0.41732283464566927,"duration":0.09070130416665734},{"name":"G4","midi":67,"time":211.8294660000004,"velocity":0.4251968503937008,"duration":0.09070130416665734},{"name":"D5","midi":74,"time":211.9209295000004,"velocity":0.4251968503937008,"duration":0.09070130416665734},{"name":"B4","midi":71,"time":212.0123930000004,"velocity":0.4330708661417323,"duration":0.09070130416665734},{"name":"D5","midi":74,"time":212.1038565000004,"velocity":0.4330708661417323,"duration":0.09070130416665734},{"name":"G#4","midi":68,"time":212.1953200000004,"velocity":0.4409448818897638,"duration":0.09070130416665734},{"name":"D5","midi":74,"time":212.2867835000004,"velocity":0.4409448818897638,"duration":0.09070130416665734},{"name":"B4","midi":71,"time":212.3782470000004,"velocity":0.44881889763779526,"duration":0.09070130416665734},{"name":"D5","midi":74,"time":212.46971050000042,"velocity":0.44881889763779526,"duration":0.09070130416665734},{"name":"G#4","midi":68,"time":212.56117400000042,"velocity":0.4566929133858268,"duration":0.09070130416665734},{"name":"C#5","midi":73,"time":212.65263750000042,"velocity":0.4566929133858268,"duration":0.09070130416665734},{"name":"B4","midi":71,"time":212.74410100000043,"velocity":0.4645669291338583,"duration":0.09070130416665734},{"name":"C#5","midi":73,"time":212.83556450000043,"velocity":0.4645669291338583,"duration":0.09070130416665734},{"name":"G#4","midi":68,"time":212.92702800000043,"velocity":0.47244094488188976,"duration":0.09070130416665734},{"name":"C#5","midi":73,"time":213.01849150000044,"velocity":0.47244094488188976,"duration":0.09070130416665734},{"name":"B4","midi":71,"time":213.10995500000044,"velocity":0.48031496062992124,"duration":0.09070130416665734},{"name":"C#5","midi":73,"time":213.20141850000044,"velocity":0.48031496062992124,"duration":0.09070130416665734},{"name":"G#4","midi":68,"time":213.29288200000045,"velocity":0.4881889763779528,"duration":0.09070130416665734},{"name":"C#5","midi":73,"time":213.38434550000045,"velocity":0.4881889763779528,"duration":0.09070130416665734},{"name":"B4","midi":71,"time":213.47580900000045,"velocity":0.49606299212598426,"duration":0.09070130416665734},{"name":"C#5","midi":73,"time":213.56727250000046,"velocity":0.49606299212598426,"duration":0.09070130416665734},{"name":"F#4","midi":66,"time":213.65873600000046,"velocity":0.5039370078740157,"duration":0.09070130416665734},{"name":"C#5","midi":73,"time":213.75019950000046,"velocity":0.5039370078740157,"duration":0.09070130416665734},{"name":"A4","midi":69,"time":213.84166300000047,"velocity":0.5118110236220472,"duration":0.09070130416665734},{"name":"C#5","midi":73,"time":213.93312650000047,"velocity":0.5118110236220472,"duration":0.09070130416665734},{"name":"F#4","midi":66,"time":214.02459000000047,"velocity":0.5196850393700787,"duration":0.09070130416665734},{"name":"C#5","midi":73,"time":214.11605350000048,"velocity":0.5196850393700787,"duration":0.09070130416665734},{"name":"A4","midi":69,"time":214.20751700000048,"velocity":0.5275590551181102,"duration":0.09070130416665734},{"name":"C#5","midi":73,"time":214.29898050000048,"velocity":0.5275590551181102,"duration":0.09070130416665734},{"name":"F#4","midi":66,"time":214.39044400000049,"velocity":0.5354330708661418,"duration":0.09070130416665734},{"name":"F#5","midi":78,"time":214.4819075000005,"velocity":0.5354330708661418,"duration":0.09070130416665734},{"name":"A4","midi":69,"time":214.5733710000005,"velocity":0.5433070866141733,"duration":0.09070130416665734},{"name":"F#5","midi":78,"time":214.6648345000005,"velocity":0.5433070866141733,"duration":0.09070130416665734},{"name":"F#4","midi":66,"time":214.7562980000005,"velocity":0.5511811023622047,"duration":0.09070130416665734},{"name":"F#5","midi":78,"time":214.8477615000005,"velocity":0.5511811023622047,"duration":0.09070130416665734},{"name":"A4","midi":69,"time":214.9392250000005,"velocity":0.5590551181102362,"duration":0.09070130416665734},{"name":"F#5","midi":78,"time":215.0306885000005,"velocity":0.5590551181102362,"duration":0.09070130416665734},{"name":"F#4","midi":66,"time":215.1221520000005,"velocity":0.5669291338582677,"duration":0.09070130416665734},{"name":"F#5","midi":78,"time":215.21361550000051,"velocity":0.5669291338582677,"duration":0.09070130416665734},{"name":"G#4","midi":68,"time":215.30507900000052,"velocity":0.5748031496062992,"duration":0.09070130416665734},{"name":"D#5","midi":75,"time":215.30507900000052,"velocity":0.5748031496062992,"duration":0.09070130416665734},{"name":"F#5","midi":78,"time":215.39654250000052,"velocity":0.5748031496062992,"duration":0.09070130416665734},{"name":"F#4","midi":66,"time":215.48800600000052,"velocity":0.5826771653543307,"duration":0.09070130416665734},{"name":"F#5","midi":78,"time":215.57946950000053,"velocity":0.5826771653543307,"duration":0.09070130416665734},{"name":"G#4","midi":68,"time":215.67093300000053,"velocity":0.5905511811023622,"duration":0.09070130416665734},{"name":"D#5","midi":75,"time":215.67093300000053,"velocity":0.5905511811023622,"duration":0.09070130416665734},{"name":"F#5","midi":78,"time":215.76239650000053,"velocity":0.5905511811023622,"duration":0.09070130416665734},{"name":"F#4","midi":66,"time":215.85386000000054,"velocity":0.5984251968503937,"duration":0.09070130416665734},{"name":"F#5","midi":78,"time":215.94532350000054,"velocity":0.5984251968503937,"duration":0.09070130416665734},{"name":"G#4","midi":68,"time":216.03678700000054,"velocity":0.6062992125984252,"duration":0.09070130416665734},{"name":"D#5","midi":75,"time":216.03678700000054,"velocity":0.6062992125984252,"duration":0.09070130416665734},{"name":"F#5","midi":78,"time":216.12825050000055,"velocity":0.6062992125984252,"duration":0.09070130416665734},{"name":"F#4","midi":66,"time":216.21971400000055,"velocity":0.6141732283464567,"duration":0.09070130416665734},{"name":"F#5","midi":78,"time":216.31117750000055,"velocity":0.6141732283464567,"duration":0.09070130416665734},{"name":"G#4","midi":68,"time":216.40264100000056,"velocity":0.6220472440944882,"duration":0.09070130416665734},{"name":"D#5","midi":75,"time":216.40264100000056,"velocity":0.6220472440944882,"duration":0.09070130416665734},{"name":"F#5","midi":78,"time":216.49410450000056,"velocity":0.6220472440944882,"duration":0.09070130416665734},{"name":"E4","midi":64,"time":216.58556800000056,"velocity":0.6299212598425197,"duration":0.09070130416665734},{"name":"E5","midi":76,"time":216.67703150000057,"velocity":0.6299212598425197,"duration":0.09070130416665734},{"name":"C#5","midi":73,"time":216.76849500000057,"velocity":0.6377952755905512,"duration":0.09070130416665734},{"name":"E5","midi":76,"time":216.85995850000057,"velocity":0.6377952755905512,"duration":0.09070130416665734},{"name":"E4","midi":64,"time":216.95142200000058,"velocity":0.6456692913385826,"duration":0.09070130416665734},{"name":"E5","midi":76,"time":217.04288550000058,"velocity":0.6456692913385826,"duration":0.09070130416665734},{"name":"C#5","midi":73,"time":217.13434900000058,"velocity":0.6535433070866141,"duration":0.09070130416665734},{"name":"E5","midi":76,"time":217.2258125000006,"velocity":0.6535433070866141,"duration":0.09070130416665734},{"name":"E4","midi":64,"time":217.3172760000006,"velocity":0.6614173228346457,"duration":0.09070130416665734},{"name":"E5","midi":76,"time":217.4087395000006,"velocity":0.6614173228346457,"duration":0.09070130416665734},{"name":"C#5","midi":73,"time":217.5002030000006,"velocity":0.6692913385826772,"duration":0.09070130416665734},{"name":"E5","midi":76,"time":217.5916665000006,"velocity":0.6692913385826772,"duration":0.09070130416665734},{"name":"E4","midi":64,"time":217.6831300000006,"velocity":0.6771653543307087,"duration":0.09070130416665734},{"name":"E5","midi":76,"time":217.7745935000006,"velocity":0.6771653543307087,"duration":0.09070130416665734},{"name":"C#5","midi":73,"time":217.8660570000006,"velocity":0.6850393700787402,"duration":0.09070130416665734},{"name":"E5","midi":76,"time":217.9575205000006,"velocity":0.6850393700787402,"duration":0.09070130416665734},{"name":"D#4","midi":63,"time":218.04898400000062,"velocity":0.6929133858267716,"duration":0.09070130416665734},{"name":"D#5","midi":75,"time":218.14044750000062,"velocity":0.6929133858267716,"duration":0.09070130416665734},{"name":"C#5","midi":73,"time":218.23191100000062,"velocity":0.7007874015748031,"duration":0.09070130416665734},{"name":"D#5","midi":75,"time":218.32337450000063,"velocity":0.7007874015748031,"duration":0.09070130416665734},{"name":"D#4","midi":63,"time":218.41483800000063,"velocity":0.7086614173228346,"duration":0.09070130416665734},{"name":"D#5","midi":75,"time":218.50630150000063,"velocity":0.7086614173228346,"duration":0.09070130416665734},{"name":"C#5","midi":73,"time":218.59776500000063,"velocity":0.7165354330708661,"duration":0.09070130416665734},{"name":"D#5","midi":75,"time":218.68922850000064,"velocity":0.7165354330708661,"duration":0.09070130416665734},{"name":"D#4","midi":63,"time":218.78069200000064,"velocity":0.7244094488188977,"duration":0.09070130416665734},{"name":"D#5","midi":75,"time":218.87215550000064,"velocity":0.7244094488188977,"duration":0.09070130416665734},{"name":"C#5","midi":73,"time":218.96361900000065,"velocity":0.7322834645669292,"duration":0.09070130416665734},{"name":"D#5","midi":75,"time":219.05508250000065,"velocity":0.7322834645669292,"duration":0.09070130416665734},{"name":"D#4","midi":63,"time":219.14654600000065,"velocity":0.7401574803149606,"duration":0.09070130416665734},{"name":"D#5","midi":75,"time":219.23800950000066,"velocity":0.7401574803149606,"duration":0.09070130416665734},{"name":"C#5","midi":73,"time":219.32947300000066,"velocity":0.7480314960629921,"duration":0.09070130416665734},{"name":"D#5","midi":75,"time":219.42093650000066,"velocity":0.7480314960629921,"duration":0.09070130416665734},{"name":"D#4","midi":63,"time":219.51240000000067,"velocity":0.7559055118110236,"duration":0.3650918041666671},{"name":"C5","midi":72,"time":219.51240000000067,"velocity":0.7559055118110236,"duration":0.3650918041666671},{"name":"D#5","midi":75,"time":219.51240000000067,"velocity":0.7559055118110236,"duration":0.3650918041666671},{"name":"G#4","midi":68,"time":219.87825400000068,"velocity":0.3858267716535433,"duration":0.7309458041666801},{"name":"A4","midi":69,"time":220.6099620000007,"velocity":0.3858267716535433,"duration":0.1821648041666606},{"name":"G#4","midi":68,"time":220.7928890000007,"velocity":0.3858267716535433,"duration":0.1821648041666606},{"name":"F#4","midi":66,"time":220.97581600000072,"velocity":0.3858267716535433,"duration":0.3650918041666671},{"name":"A3","midi":57,"time":220.97581600000072,"velocity":0.3858267716535433,"duration":0.7309458041666801},{"name":"C#4","midi":61,"time":220.97581600000072,"velocity":0.3858267716535433,"duration":0.7309458041666801},{"name":"G#4","midi":68,"time":221.34167000000073,"velocity":0.3858267716535433,"duration":0.1821648041666606},{"name":"F#4","midi":66,"time":221.52459700000074,"velocity":0.3858267716535433,"duration":0.1821648041666606},{"name":"E4","midi":64,"time":221.70752400000075,"velocity":0.3858267716535433,"duration":0.3650918041666671},{"name":"G#3","midi":56,"time":221.70752400000075,"velocity":0.3858267716535433,"duration":0.7309458041666801},{"name":"B3","midi":59,"time":221.70752400000075,"velocity":0.3858267716535433,"duration":0.7309458041666801},{"name":"F#4","midi":66,"time":222.07337800000076,"velocity":0.3858267716535433,"duration":0.1821648041666606},{"name":"E4","midi":64,"time":222.25630500000076,"velocity":0.3858267716535433,"duration":0.1821648041666606},{"name":"D#4","midi":63,"time":222.43923200000077,"velocity":0.3858267716535433,"duration":0.3650918041666671},{"name":"F#3","midi":54,"time":222.43923200000077,"velocity":0.3858267716535433,"duration":0.7309458041666801},{"name":"A3","midi":57,"time":222.43923200000077,"velocity":0.3858267716535433,"duration":0.7309458041666801},{"name":"E4","midi":64,"time":222.80508600000078,"velocity":0.3858267716535433,"duration":0.1821648041666606},{"name":"D#4","midi":63,"time":222.9880130000008,"velocity":0.3858267716535433,"duration":0.1821648041666606},{"name":"C#4","midi":61,"time":223.1709400000008,"velocity":0.3858267716535433,"duration":0.3650918041666671},{"name":"E3","midi":52,"time":223.1709400000008,"velocity":0.3858267716535433,"duration":0.7309458041666801},{"name":"G#3","midi":56,"time":223.1709400000008,"velocity":0.3858267716535433,"duration":0.7309458041666801},{"name":"D#4","midi":63,"time":223.5367940000008,"velocity":0.3858267716535433,"duration":0.1821648041666606},{"name":"C#4","midi":61,"time":223.71972100000082,"velocity":0.3858267716535433,"duration":0.1821648041666606},{"name":"C4","midi":60,"time":223.90264800000082,"velocity":0.3858267716535433,"duration":0.7309458041666801},{"name":"D#3","midi":51,"time":223.90264800000082,"velocity":0.3858267716535433,"duration":0.7309458041666801},{"name":"F#3","midi":54,"time":223.90264800000082,"velocity":0.3858267716535433,"duration":0.7309458041666801},{"name":"C#4","midi":61,"time":224.63435600000085,"velocity":0.3858267716535433,"duration":0.7309458041666801},{"name":"C#3","midi":49,"time":224.63435600000085,"velocity":0.3858267716535433,"duration":0.7309458041666801},{"name":"E3","midi":52,"time":224.63435600000085,"velocity":0.3858267716535433,"duration":0.7309458041666801},{"name":"C3","midi":48,"time":225.36606400000088,"velocity":0.3858267716535433,"duration":0.09070130416665734},{"name":"G#3","midi":56,"time":225.45752750000088,"velocity":0.3858267716535433,"duration":0.09070130416665734},{"name":"D#4","midi":63,"time":225.54899100000088,"velocity":0.3858267716535433,"duration":0.09070130416665734},{"name":"G#5","midi":80,"time":225.73191800000086,"velocity":0.3937007874015748,"duration":0.5480188041666736},{"name":"G#5","midi":80,"time":226.28069900000088,"velocity":0.4251968503937008,"duration":0.09070130416665734},{"name":"A5","midi":81,"time":226.46362600000086,"velocity":0.4409448818897638,"duration":0.09070130416665734},{"name":"G#5","midi":80,"time":226.64655300000084,"velocity":0.44881889763779526,"duration":0.09070130416665734},{"name":"F#5","midi":78,"time":226.8294800000008,"velocity":0.4566929133858268,"duration":0.09070130416665734},{"name":"A4","midi":69,"time":227.0124070000008,"velocity":0.47244094488188976,"duration":0.09070130416665734},{"name":"C#5","midi":73,"time":227.0124070000008,"velocity":0.47244094488188976,"duration":0.09070130416665734},{"name":"F#5","midi":78,"time":227.0124070000008,"velocity":0.47244094488188976,"duration":0.09070130416665734},{"name":"B4","midi":71,"time":227.19533400000077,"velocity":0.48031496062992124,"duration":0.09070130416665734},{"name":"D#5","midi":75,"time":227.19533400000077,"velocity":0.48031496062992124,"duration":0.09070130416665734},{"name":"G#5","midi":80,"time":227.19533400000077,"velocity":0.48031496062992124,"duration":0.09070130416665734},{"name":"A4","midi":69,"time":227.37826100000075,"velocity":0.4881889763779528,"duration":0.09070130416665734},{"name":"C#5","midi":73,"time":227.37826100000075,"velocity":0.4881889763779528,"duration":0.09070130416665734},{"name":"F#5","midi":78,"time":227.37826100000075,"velocity":0.4881889763779528,"duration":0.09070130416665734},{"name":"G#4","midi":68,"time":227.56118800000073,"velocity":0.5039370078740157,"duration":0.09070130416665734},{"name":"B4","midi":71,"time":227.56118800000073,"velocity":0.5039370078740157,"duration":0.09070130416665734},{"name":"E5","midi":76,"time":227.56118800000073,"velocity":0.5039370078740157,"duration":0.09070130416665734},{"name":"G#4","midi":68,"time":227.7441150000007,"velocity":0.5118110236220472,"duration":0.09070130416665734},{"name":"B4","midi":71,"time":227.7441150000007,"velocity":0.5118110236220472,"duration":0.09070130416665734},{"name":"E5","midi":76,"time":227.7441150000007,"velocity":0.5118110236220472,"duration":0.09070130416665734},{"name":"A4","midi":69,"time":227.92704200000068,"velocity":0.5275590551181102,"duration":0.09070130416665734},{"name":"C#5","midi":73,"time":227.92704200000068,"velocity":0.5275590551181102,"duration":0.09070130416665734},{"name":"F#5","midi":78,"time":227.92704200000068,"velocity":0.5275590551181102,"duration":0.09070130416665734},{"name":"G#4","midi":68,"time":228.10996900000066,"velocity":0.5354330708661418,"duration":0.09070130416665734},{"name":"B4","midi":71,"time":228.10996900000066,"velocity":0.5354330708661418,"duration":0.09070130416665734},{"name":"E5","midi":76,"time":228.10996900000066,"velocity":0.5354330708661418,"duration":0.09070130416665734},{"name":"F#4","midi":66,"time":228.29289600000064,"velocity":0.5433070866141733,"duration":0.09070130416665734},{"name":"A4","midi":69,"time":228.29289600000064,"velocity":0.5433070866141733,"duration":0.09070130416665734},{"name":"D#5","midi":75,"time":228.29289600000064,"velocity":0.5433070866141733,"duration":0.09070130416665734},{"name":"F#4","midi":66,"time":228.47582300000062,"velocity":0.5590551181102362,"duration":0.09070130416665734},{"name":"A4","midi":69,"time":228.47582300000062,"velocity":0.5590551181102362,"duration":0.09070130416665734},{"name":"D#5","midi":75,"time":228.47582300000062,"velocity":0.5590551181102362,"duration":0.09070130416665734},{"name":"G#4","midi":68,"time":228.6587500000006,"velocity":0.5669291338582677,"duration":0.09070130416665734},{"name":"B4","midi":71,"time":228.6587500000006,"velocity":0.5669291338582677,"duration":0.09070130416665734},{"name":"E5","midi":76,"time":228.6587500000006,"velocity":0.5669291338582677,"duration":0.09070130416665734},{"name":"F#4","midi":66,"time":228.84167700000057,"velocity":0.5748031496062992,"duration":0.09070130416665734},{"name":"A4","midi":69,"time":228.84167700000057,"velocity":0.5748031496062992,"duration":0.09070130416665734},{"name":"D#5","midi":75,"time":228.84167700000057,"velocity":0.5748031496062992,"duration":0.09070130416665734},{"name":"E4","midi":64,"time":229.02460400000055,"velocity":0.5905511811023622,"duration":0.09070130416665734},{"name":"G#4","midi":68,"time":229.02460400000055,"velocity":0.5905511811023622,"duration":0.09070130416665734},{"name":"C#5","midi":73,"time":229.02460400000055,"velocity":0.5905511811023622,"duration":0.09070130416665734},{"name":"E4","midi":64,"time":229.20753100000053,"velocity":0.5984251968503937,"duration":0.09070130416665734},{"name":"G#4","midi":68,"time":229.20753100000053,"velocity":0.5984251968503937,"duration":0.09070130416665734},{"name":"C#5","midi":73,"time":229.20753100000053,"velocity":0.5984251968503937,"duration":0.09070130416665734},{"name":"F#4","midi":66,"time":229.3904580000005,"velocity":0.6141732283464567,"duration":0.09070130416665734},{"name":"A4","midi":69,"time":229.3904580000005,"velocity":0.6141732283464567,"duration":0.09070130416665734},{"name":"D#5","midi":75,"time":229.3904580000005,"velocity":0.6141732283464567,"duration":0.09070130416665734},{"name":"E4","midi":64,"time":229.57338500000048,"velocity":0.6220472440944882,"duration":0.09070130416665734},{"name":"G#4","midi":68,"time":229.57338500000048,"velocity":0.6220472440944882,"duration":0.09070130416665734},{"name":"C#5","midi":73,"time":229.57338500000048,"velocity":0.6220472440944882,"duration":0.09070130416665734},{"name":"D#4","midi":63,"time":229.75631200000046,"velocity":0.3858267716535433,"duration":0.3650918041666671},{"name":"F#4","midi":66,"time":229.75631200000046,"velocity":0.3858267716535433,"duration":0.3650918041666671},{"name":"C5","midi":72,"time":229.75631200000046,"velocity":0.3858267716535433,"duration":0.3650918041666671},{"name":"C#4","midi":61,"time":230.48802000000046,"velocity":0.44881889763779526,"duration":0.3650918041666671},{"name":"E4","midi":64,"time":230.48802000000046,"velocity":0.44881889763779526,"duration":0.3650918041666671},{"name":"C#5","midi":73,"time":230.48802000000046,"velocity":0.44881889763779526,"duration":0.3650918041666671},{"name":"C4","midi":60,"time":231.21972800000046,"velocity":0.5039370078740157,"duration":0.0632622541666592},{"name":"F#4","midi":66,"time":231.28375245000046,"velocity":0.5039370078740157,"duration":0.0632622541666592},{"name":"D#5","midi":75,"time":231.3485390958338,"velocity":0.5039370078740157,"duration":0.967226512499991},{"name":"C#4","midi":61,"time":232.31729000000044,"velocity":0.41732283464566927,"duration":0.3650918041666671},{"name":"E4","midi":64,"time":232.31729000000044,"velocity":0.41732283464566927,"duration":0.3650918041666671},{"name":"C#5","midi":73,"time":232.31729000000044,"velocity":0.41732283464566927,"duration":0.3650918041666671},{"name":"D#4","midi":63,"time":232.68314400000045,"velocity":0.3858267716535433,"duration":0.1821648041666606},{"name":"F#4","midi":66,"time":232.68314400000045,"velocity":0.3858267716535433,"duration":0.1821648041666606},{"name":"C5","midi":72,"time":232.68314400000045,"velocity":0.3858267716535433,"duration":0.1821648041666606},{"name":"D#4","midi":63,"time":233.04899800000044,"velocity":0.41732283464566927,"duration":0.1821648041666606},{"name":"F#4","midi":66,"time":233.04899800000044,"velocity":0.41732283464566927,"duration":0.1821648041666606},{"name":"C5","midi":72,"time":233.04899800000044,"velocity":0.41732283464566927,"duration":0.1821648041666606},{"name":"C#4","midi":61,"time":233.41485200000042,"velocity":0.44881889763779526,"duration":0.1821648041666606},{"name":"E4","midi":64,"time":233.41485200000042,"velocity":0.44881889763779526,"duration":0.1821648041666606},{"name":"C#5","midi":73,"time":233.41485200000042,"velocity":0.44881889763779526,"duration":0.1821648041666606},{"name":"C#4","midi":61,"time":233.7807060000004,"velocity":0.47244094488188976,"duration":0.1821648041666606},{"name":"E4","midi":64,"time":233.7807060000004,"velocity":0.47244094488188976,"duration":0.1821648041666606},{"name":"C#5","midi":73,"time":233.7807060000004,"velocity":0.47244094488188976,"duration":0.1821648041666606},{"name":"C4","midi":60,"time":234.1465600000004,"velocity":0.5039370078740157,"duration":0.0632622541666592},{"name":"F#4","midi":66,"time":234.2105844500004,"velocity":0.5039370078740157,"duration":0.0632622541666592},{"name":"D#5","midi":75,"time":234.27537109583372,"velocity":0.5039370078740157,"duration":0.967226512499991},{"name":"C#4","midi":61,"time":235.24412200000037,"velocity":0.41732283464566927,"duration":0.1821648041666606},{"name":"E4","midi":64,"time":235.24412200000037,"velocity":0.41732283464566927,"duration":0.1821648041666606},{"name":"C#5","midi":73,"time":235.42704900000038,"velocity":0.4015748031496063,"duration":0.1821648041666606},{"name":"D#4","midi":63,"time":235.6099760000004,"velocity":0.3858267716535433,"duration":0.1821648041666606},{"name":"F#4","midi":66,"time":235.6099760000004,"velocity":0.3858267716535433,"duration":0.1821648041666606},{"name":"C5","midi":72,"time":235.7929030000004,"velocity":0.4015748031496063,"duration":0.1821648041666606},{"name":"D#4","midi":63,"time":235.9758300000004,"velocity":0.4094488188976378,"duration":0.1821648041666606},{"name":"F#4","midi":66,"time":235.9758300000004,"velocity":0.4094488188976378,"duration":0.1821648041666606},{"name":"C5","midi":72,"time":236.1587570000004,"velocity":0.4251968503937008,"duration":0.1821648041666606},{"name":"C#4","midi":61,"time":236.3416840000004,"velocity":0.4330708661417323,"duration":0.1821648041666606},{"name":"E4","midi":64,"time":236.3416840000004,"velocity":0.4330708661417323,"duration":0.1821648041666606},{"name":"C#5","midi":73,"time":236.52461100000042,"velocity":0.4409448818897638,"duration":0.1821648041666606},{"name":"C#4","midi":61,"time":236.70753800000043,"velocity":0.44881889763779526,"duration":0.1821648041666606},{"name":"E4","midi":64,"time":236.70753800000043,"velocity":0.44881889763779526,"duration":0.1821648041666606},{"name":"C#5","midi":73,"time":236.89046500000043,"velocity":0.4566929133858268,"duration":0.1821648041666606},{"name":"C4","midi":60,"time":237.07339200000044,"velocity":0.4645669291338583,"duration":0.1821648041666606},{"name":"F#4","midi":66,"time":237.07339200000044,"velocity":0.4645669291338583,"duration":0.1821648041666606},{"name":"D#5","midi":75,"time":237.25631900000045,"velocity":0.48031496062992124,"duration":0.1821648041666606},{"name":"C4","midi":60,"time":237.43924600000045,"velocity":0.4881889763779528,"duration":0.1821648041666606},{"name":"F#4","midi":66,"time":237.43924600000045,"velocity":0.4881889763779528,"duration":0.1821648041666606},{"name":"D#5","midi":75,"time":237.62217300000046,"velocity":0.49606299212598426,"duration":0.1821648041666606},{"name":"C#4","midi":61,"time":237.80510000000046,"velocity":0.5039370078740157,"duration":0.1821648041666606},{"name":"E4","midi":64,"time":237.80510000000046,"velocity":0.5039370078740157,"duration":0.1821648041666606},{"name":"C#5","midi":73,"time":237.98802700000047,"velocity":0.4566929133858268,"duration":0.1821648041666606},{"name":"C#4","midi":61,"time":238.17095400000048,"velocity":0.4330708661417323,"duration":0.1821648041666606},{"name":"E4","midi":64,"time":238.17095400000048,"velocity":0.4330708661417323,"duration":0.1821648041666606},{"name":"C#5","midi":73,"time":238.35388100000048,"velocity":0.4094488188976378,"duration":0.1821648041666606},{"name":"A3","midi":57,"time":238.5368080000005,"velocity":0.3858267716535433,"duration":1.4626538041666777},{"name":"C#4","midi":61,"time":238.5368080000005,"velocity":0.3858267716535433,"duration":1.4626538041666777},{"name":"D#4","midi":63,"time":238.5368080000005,"velocity":0.3858267716535433,"duration":1.4626538041666777},{"name":"A4","midi":69,"time":238.5368080000005,"velocity":0.3858267716535433,"duration":1.4626538041666777},{"name":"G#3","midi":56,"time":240.00022400000051,"velocity":0.25984251968503935,"duration":1.4626538041666777},{"name":"C4","midi":60,"time":240.00022400000051,"velocity":0.25984251968503935,"duration":1.4626538041666777},{"name":"D#4","midi":63,"time":240.00022400000051,"velocity":0.25984251968503935,"duration":1.4626538041666777},{"name":"G#4","midi":68,"time":240.00022400000051,"velocity":0.25984251968503935,"duration":1.4626538041666777},{"name":"G#2","midi":44,"time":241.5551035000005,"velocity":0.3858267716535433,"duration":0.09070130416665734},{"name":"C#3","midi":49,"time":241.64656700000052,"velocity":0.3858267716535433,"duration":0.09070130416665734},{"name":"E3","midi":52,"time":241.73803050000052,"velocity":0.3858267716535433,"duration":0.09070130416665734},{"name":"G#3","midi":56,"time":241.82949400000052,"velocity":0.3858267716535433,"duration":0.09070130416665734},{"name":"C#3","midi":49,"time":241.92095750000053,"velocity":0.3858267716535433,"duration":0.09070130416665734},{"name":"E3","midi":52,"time":242.01242100000053,"velocity":0.3858267716535433,"duration":0.09070130416665734},{"name":"G#3","midi":56,"time":242.10388450000053,"velocity":0.3858267716535433,"duration":0.09070130416665734},{"name":"C#4","midi":61,"time":242.19534800000054,"velocity":0.3858267716535433,"duration":0.09070130416665734},{"name":"E3","midi":52,"time":242.28681150000054,"velocity":0.3858267716535433,"duration":0.09070130416665734},{"name":"G#3","midi":56,"time":242.37827500000054,"velocity":0.3858267716535433,"duration":0.09070130416665734},{"name":"C#4","midi":61,"time":242.46973850000055,"velocity":0.3858267716535433,"duration":0.09070130416665734},{"name":"E4","midi":64,"time":242.56120200000055,"velocity":0.3858267716535433,"duration":0.09070130416665734},{"name":"G#3","midi":56,"time":242.65266550000055,"velocity":0.3858267716535433,"duration":0.09070130416665734},{"name":"C#4","midi":61,"time":242.74412900000056,"velocity":0.3858267716535433,"duration":0.09070130416665734},{"name":"E4","midi":64,"time":242.83559250000056,"velocity":0.3858267716535433,"duration":0.09070130416665734},{"name":"G#4","midi":68,"time":242.92705600000056,"velocity":0.3858267716535433,"duration":0.09070130416665734},{"name":"C#4","midi":61,"time":243.01851950000056,"velocity":0.3858267716535433,"duration":0.09070130416665734},{"name":"E4","midi":64,"time":243.10998300000057,"velocity":0.3858267716535433,"duration":0.09070130416665734},{"name":"G#4","midi":68,"time":243.20144650000057,"velocity":0.3858267716535433,"duration":0.09070130416665734},{"name":"C#5","midi":73,"time":243.29291000000057,"velocity":0.3858267716535433,"duration":0.09070130416665734},{"name":"E4","midi":64,"time":243.38437350000058,"velocity":0.3858267716535433,"duration":0.09070130416665734},{"name":"G#4","midi":68,"time":243.47583700000058,"velocity":0.3858267716535433,"duration":0.09070130416665734},{"name":"C#5","midi":73,"time":243.56730050000058,"velocity":0.3858267716535433,"duration":0.09070130416665734},{"name":"E5","midi":76,"time":243.6587640000006,"velocity":0.3858267716535433,"duration":0.09070130416665734},{"name":"G#4","midi":68,"time":243.7502275000006,"velocity":0.3858267716535433,"duration":0.09070130416665734},{"name":"C#5","midi":73,"time":243.8416910000006,"velocity":0.3858267716535433,"duration":0.09070130416665734},{"name":"E5","midi":76,"time":243.9331545000006,"velocity":0.3858267716535433,"duration":0.09070130416665734},{"name":"G#4","midi":68,"time":244.0246180000006,"velocity":0.5039370078740157,"duration":0.09070130416665734},{"name":"C#5","midi":73,"time":244.0246180000006,"velocity":0.5039370078740157,"duration":0.09070130416665734},{"name":"E5","midi":76,"time":244.0246180000006,"velocity":0.5039370078740157,"duration":0.09070130416665734},{"name":"G#5","midi":80,"time":244.0246180000006,"velocity":0.5039370078740157,"duration":0.09070130416665734},{"name":"G#4","midi":68,"time":244.20754500000058,"velocity":0.3858267716535433,"duration":0.09070130416665734},{"name":"C#5","midi":73,"time":244.20754500000058,"velocity":0.3858267716535433,"duration":0.09070130416665734},{"name":"E5","midi":76,"time":244.20754500000058,"velocity":0.3858267716535433,"duration":0.09070130416665734},{"name":"G#5","midi":80,"time":244.20754500000058,"velocity":0.3858267716535433,"duration":0.09070130416665734},{"name":"G#2","midi":44,"time":244.48193550000056,"velocity":0.3858267716535433,"duration":0.09070130416665734},{"name":"C3","midi":48,"time":244.57339900000056,"velocity":0.3858267716535433,"duration":0.09070130416665734},{"name":"D#3","midi":51,"time":244.66486250000057,"velocity":0.3858267716535433,"duration":0.09070130416665734},{"name":"G#3","midi":56,"time":244.75632600000057,"velocity":0.3858267716535433,"duration":0.09070130416665734},{"name":"C3","midi":48,"time":244.84778950000057,"velocity":0.3858267716535433,"duration":0.09070130416665734},{"name":"D#3","midi":51,"time":244.93925300000058,"velocity":0.3858267716535433,"duration":0.09070130416665734},{"name":"G#3","midi":56,"time":245.03071650000058,"velocity":0.3858267716535433,"duration":0.09070130416665734},{"name":"C4","midi":60,"time":245.12218000000058,"velocity":0.3858267716535433,"duration":0.09070130416665734},{"name":"D#3","midi":51,"time":245.2136435000006,"velocity":0.3858267716535433,"duration":0.09070130416665734},{"name":"G#3","midi":56,"time":245.3051070000006,"velocity":0.3858267716535433,"duration":0.09070130416665734},{"name":"C4","midi":60,"time":245.3965705000006,"velocity":0.3858267716535433,"duration":0.09070130416665734},{"name":"D#4","midi":63,"time":245.4880340000006,"velocity":0.3858267716535433,"duration":0.09070130416665734},{"name":"G#3","midi":56,"time":245.5794975000006,"velocity":0.3858267716535433,"duration":0.09070130416665734},{"name":"C4","midi":60,"time":245.6709610000006,"velocity":0.3858267716535433,"duration":0.09070130416665734},{"name":"D#4","midi":63,"time":245.7624245000006,"velocity":0.3858267716535433,"duration":0.09070130416665734},{"name":"G#4","midi":68,"time":245.8538880000006,"velocity":0.3858267716535433,"duration":0.09070130416665734},{"name":"C4","midi":60,"time":245.9453515000006,"velocity":0.3858267716535433,"duration":0.09070130416665734},{"name":"D#4","midi":63,"time":246.03681500000062,"velocity":0.3858267716535433,"duration":0.09070130416665734},{"name":"G#4","midi":68,"time":246.12827850000062,"velocity":0.3858267716535433,"duration":0.09070130416665734},{"name":"C5","midi":72,"time":246.21974200000062,"velocity":0.3858267716535433,"duration":0.09070130416665734},{"name":"D#4","midi":63,"time":246.31120550000063,"velocity":0.3858267716535433,"duration":0.09070130416665734},{"name":"G#4","midi":68,"time":246.40266900000063,"velocity":0.3858267716535433,"duration":0.09070130416665734},{"name":"C5","midi":72,"time":246.49413250000063,"velocity":0.3858267716535433,"duration":0.09070130416665734},{"name":"D#5","midi":75,"time":246.58559600000063,"velocity":0.3858267716535433,"duration":0.09070130416665734},{"name":"G#4","midi":68,"time":246.67705950000064,"velocity":0.3858267716535433,"duration":0.09070130416665734},{"name":"C5","midi":72,"time":246.76852300000064,"velocity":0.3858267716535433,"duration":0.09070130416665734},{"name":"D#5","midi":75,"time":246.85998650000064,"velocity":0.3858267716535433,"duration":0.09070130416665734},{"name":"G#4","midi":68,"time":246.95145000000065,"velocity":0.5039370078740157,"duration":0.09070130416665734},{"name":"C5","midi":72,"time":246.95145000000065,"velocity":0.5039370078740157,"duration":0.09070130416665734},{"name":"D#5","midi":75,"time":246.95145000000065,"velocity":0.5039370078740157,"duration":0.09070130416665734},{"name":"G#5","midi":80,"time":246.95145000000065,"velocity":0.5039370078740157,"duration":0.09070130416665734},{"name":"G#4","midi":68,"time":247.13437700000063,"velocity":0.3858267716535433,"duration":0.09070130416665734},{"name":"C5","midi":72,"time":247.13437700000063,"velocity":0.3858267716535433,"duration":0.09070130416665734},{"name":"D#5","midi":75,"time":247.13437700000063,"velocity":0.3858267716535433,"duration":0.09070130416665734},{"name":"G#5","midi":80,"time":247.13437700000063,"velocity":0.3858267716535433,"duration":0.09070130416665734},{"name":"C#3","midi":49,"time":247.4087675000006,"velocity":0.3858267716535433,"duration":0.09070130416665734},{"name":"F3","midi":53,"time":247.5002310000006,"velocity":0.3858267716535433,"duration":0.09070130416665734},{"name":"G#3","midi":56,"time":247.5916945000006,"velocity":0.3858267716535433,"duration":0.09070130416665734},{"name":"C#4","midi":61,"time":247.68315800000062,"velocity":0.3858267716535433,"duration":0.09070130416665734},{"name":"F3","midi":53,"time":247.77462150000062,"velocity":0.3858267716535433,"duration":0.09070130416665734},{"name":"G#3","midi":56,"time":247.86608500000062,"velocity":0.3858267716535433,"duration":0.09070130416665734},{"name":"C#4","midi":61,"time":247.95754850000063,"velocity":0.3858267716535433,"duration":0.09070130416665734},{"name":"F4","midi":65,"time":248.04901200000063,"velocity":0.3858267716535433,"duration":0.09070130416665734},{"name":"G#3","midi":56,"time":248.14047550000063,"velocity":0.3858267716535433,"duration":0.09070130416665734},{"name":"C#4","midi":61,"time":248.23193900000064,"velocity":0.3858267716535433,"duration":0.09070130416665734},{"name":"F4","midi":65,"time":248.32340250000064,"velocity":0.3858267716535433,"duration":0.09070130416665734},{"name":"G#4","midi":68,"time":248.41486600000064,"velocity":0.3858267716535433,"duration":0.09070130416665734},{"name":"C#4","midi":61,"time":248.50632950000065,"velocity":0.3858267716535433,"duration":0.09070130416665734},{"name":"F4","midi":65,"time":248.59779300000065,"velocity":0.3858267716535433,"duration":0.09070130416665734},{"name":"G#4","midi":68,"time":248.68925650000065,"velocity":0.3858267716535433,"duration":0.09070130416665734},{"name":"C#5","midi":73,"time":248.78072000000066,"velocity":0.3858267716535433,"duration":0.09070130416665734},{"name":"F4","midi":65,"time":248.87218350000066,"velocity":0.3858267716535433,"duration":0.09070130416665734},{"name":"G#4","midi":68,"time":248.96364700000066,"velocity":0.3858267716535433,"duration":0.09070130416665734},{"name":"C#5","midi":73,"time":249.05511050000067,"velocity":0.3858267716535433,"duration":0.09070130416665734},{"name":"F5","midi":77,"time":249.14657400000067,"velocity":0.3858267716535433,"duration":0.09070130416665734},{"name":"G#4","midi":68,"time":249.23803750000067,"velocity":0.3858267716535433,"duration":0.09070130416665734},{"name":"C#5","midi":73,"time":249.32950100000068,"velocity":0.3858267716535433,"duration":0.09070130416665734},{"name":"F5","midi":77,"time":249.42096450000068,"velocity":0.3858267716535433,"duration":0.09070130416665734},{"name":"G#5","midi":80,"time":249.51242800000068,"velocity":0.3858267716535433,"duration":0.09070130416665734},{"name":"C#5","midi":73,"time":249.60389150000069,"velocity":0.3858267716535433,"duration":0.09070130416665734},{"name":"F5","midi":77,"time":249.6953550000007,"velocity":0.3858267716535433,"duration":0.09070130416665734},{"name":"G#5","midi":80,"time":249.7868185000007,"velocity":0.3858267716535433,"duration":0.09070130416665734},{"name":"C#5","midi":73,"time":249.8782820000007,"velocity":0.5039370078740157,"duration":0.09070130416665734},{"name":"F5","midi":77,"time":249.8782820000007,"velocity":0.5039370078740157,"duration":0.09070130416665734},{"name":"G#5","midi":80,"time":249.8782820000007,"velocity":0.5039370078740157,"duration":0.09070130416665734},{"name":"C#6","midi":85,"time":249.8782820000007,"velocity":0.5039370078740157,"duration":0.09070130416665734},{"name":"C#5","midi":73,"time":250.06120900000067,"velocity":0.3858267716535433,"duration":0.09070130416665734},{"name":"F5","midi":77,"time":250.06120900000067,"velocity":0.3858267716535433,"duration":0.09070130416665734},{"name":"G#5","midi":80,"time":250.06120900000067,"velocity":0.3858267716535433,"duration":0.09070130416665734},{"name":"C#6","midi":85,"time":250.06120900000067,"velocity":0.3858267716535433,"duration":0.09070130416665734},{"name":"C#3","midi":49,"time":250.33559950000065,"velocity":0.3858267716535433,"duration":0.09070130416665734},{"name":"F#3","midi":54,"time":250.42706300000066,"velocity":0.4094488188976378,"duration":0.09070130416665734},{"name":"A3","midi":57,"time":250.51852650000066,"velocity":0.4251968503937008,"duration":0.09070130416665734},{"name":"C#4","midi":61,"time":250.60999000000066,"velocity":0.4409448818897638,"duration":0.04496955416666992},{"name":"C#4","midi":61,"time":250.70145350000067,"velocity":0.4566929133858268,"duration":0.09070130416665734},{"name":"F#4","midi":66,"time":250.79291700000067,"velocity":0.4645669291338583,"duration":0.09070130416665734},{"name":"A4","midi":69,"time":250.88438050000067,"velocity":0.48031496062992124,"duration":0.09070130416665734},{"name":"C#5","midi":73,"time":250.97584400000068,"velocity":0.49606299212598426,"duration":0.04496955416666992},{"name":"C#5","midi":73,"time":251.06730750000068,"velocity":0.5118110236220472,"duration":0.09070130416665734},{"name":"F#5","midi":78,"time":251.15877100000068,"velocity":0.5196850393700787,"duration":0.09070130416665734},{"name":"A5","midi":81,"time":251.2502345000007,"velocity":0.5354330708661418,"duration":0.09070130416665734},{"name":"C#5","midi":73,"time":251.3416980000007,"velocity":0.6141732283464567,"duration":0.09070130416665734},{"name":"F#5","midi":78,"time":251.3416980000007,"velocity":0.6141732283464567,"duration":0.09070130416665734},{"name":"C#6","midi":85,"time":251.3416980000007,"velocity":0.6141732283464567,"duration":0.09070130416665734},{"name":"C#5","midi":73,"time":251.52462500000067,"velocity":0.5669291338582677,"duration":0.09070130416665734},{"name":"F#5","midi":78,"time":251.52462500000067,"velocity":0.5669291338582677,"duration":0.09070130416665734},{"name":"C#6","midi":85,"time":251.52462500000067,"velocity":0.5669291338582677,"duration":0.09070130416665734},{"name":"C#3","midi":49,"time":251.79901550000065,"velocity":0.5748031496062992,"duration":0.09070130416665734},{"name":"E3","midi":52,"time":251.89047900000065,"velocity":0.5905511811023622,"duration":0.09070130416665734},{"name":"G3","midi":55,"time":251.98194250000066,"velocity":0.6062992125984252,"duration":0.09070130416665734},{"name":"C#4","midi":61,"time":252.07340600000066,"velocity":0.6220472440944882,"duration":0.04496955416666992},{"name":"C#4","midi":61,"time":252.16486950000066,"velocity":0.6299212598425197,"duration":0.09070130416665734},{"name":"E4","midi":64,"time":252.25633300000067,"velocity":0.6456692913385826,"duration":0.09070130416665734},{"name":"G4","midi":67,"time":252.34779650000067,"velocity":0.6614173228346457,"duration":0.09070130416665734},{"name":"C#5","midi":73,"time":252.43926000000067,"velocity":0.6771653543307087,"duration":0.04496955416666992},{"name":"C#5","midi":73,"time":252.53072350000068,"velocity":0.6850393700787402,"duration":0.09070130416665734},{"name":"E5","midi":76,"time":252.62218700000068,"velocity":0.7007874015748031,"duration":0.09070130416665734},{"name":"G5","midi":79,"time":252.71365050000068,"velocity":0.7165354330708661,"duration":0.09070130416665734},{"name":"C#5","midi":73,"time":252.80511400000069,"velocity":0.7874015748031497,"duration":0.09070130416665734},{"name":"G5","midi":79,"time":252.80511400000069,"velocity":0.7874015748031497,"duration":0.09070130416665734},{"name":"C#6","midi":85,"time":252.80511400000069,"velocity":0.7874015748031497,"duration":0.09070130416665734},{"name":"C#5","midi":73,"time":252.98804100000066,"velocity":0.7401574803149606,"duration":0.09070130416665734},{"name":"G5","midi":79,"time":252.98804100000066,"velocity":0.7401574803149606,"duration":0.09070130416665734},{"name":"C#6","midi":85,"time":252.98804100000066,"velocity":0.7401574803149606,"duration":0.09070130416665734},{"name":"C5","midi":72,"time":253.17096800000064,"velocity":0.7559055118110236,"duration":0.1821648041666606},{"name":"G#5","midi":80,"time":253.17096800000064,"velocity":0.7559055118110236,"duration":0.1821648041666606},{"name":"C6","midi":84,"time":253.17096800000064,"velocity":0.7559055118110236,"duration":0.1821648041666606},{"name":"G#4","midi":68,"time":253.35389500000065,"velocity":0.7559055118110236,"duration":0.09070130416665734},{"name":"G#5","midi":80,"time":253.44535850000065,"velocity":0.7559055118110236,"duration":0.09070130416665734},{"name":"G#4","midi":68,"time":253.53682200000065,"velocity":0.7559055118110236,"duration":0.09070130416665734},{"name":"G#5","midi":80,"time":253.62828550000066,"velocity":0.7559055118110236,"duration":0.09070130416665734},{"name":"A#4","midi":70,"time":253.71974900000066,"velocity":0.7559055118110236,"duration":0.09070130416665734},{"name":"G#5","midi":80,"time":253.81121250000066,"velocity":0.7559055118110236,"duration":0.09070130416665734},{"name":"C5","midi":72,"time":253.90267600000067,"velocity":0.7559055118110236,"duration":0.09070130416665734},{"name":"G#5","midi":80,"time":253.99413950000067,"velocity":0.7559055118110236,"duration":0.09070130416665734},{"name":"C#5","midi":73,"time":254.08560300000067,"velocity":0.7559055118110236,"duration":0.09070130416665734},{"name":"G#5","midi":80,"time":254.17706650000068,"velocity":0.7559055118110236,"duration":0.09070130416665734},{"name":"D#5","midi":75,"time":254.26853000000068,"velocity":0.7559055118110236,"duration":0.09070130416665734},{"name":"G#5","midi":80,"time":254.35999350000068,"velocity":0.7559055118110236,"duration":0.09070130416665734},{"name":"C5","midi":72,"time":254.4514570000007,"velocity":0.7559055118110236,"duration":0.09070130416665734},{"name":"G#5","midi":80,"time":254.5429205000007,"velocity":0.7559055118110236,"duration":0.09070130416665734},{"name":"D#5","midi":75,"time":254.6343840000007,"velocity":0.7559055118110236,"duration":0.09070130416665734},{"name":"G#5","midi":80,"time":254.7258475000007,"velocity":0.7559055118110236,"duration":0.09070130416665734},{"name":"C#5","midi":73,"time":254.8173110000007,"velocity":0.7559055118110236,"duration":0.09070130416665734},{"name":"G#5","midi":80,"time":254.9087745000007,"velocity":0.7559055118110236,"duration":0.09070130416665734},{"name":"F#5","midi":78,"time":255.0002380000007,"velocity":0.7559055118110236,"duration":0.09070130416665734},{"name":"G#5","midi":80,"time":255.0917015000007,"velocity":0.7559055118110236,"duration":0.09070130416665734},{"name":"E5","midi":76,"time":255.1831650000007,"velocity":0.7559055118110236,"duration":0.09070130416665734},{"name":"G#5","midi":80,"time":255.27462850000072,"velocity":0.7559055118110236,"duration":0.09070130416665734},{"name":"D#5","midi":75,"time":255.36609200000072,"velocity":0.7559055118110236,"duration":0.09070130416665734},{"name":"G#5","midi":80,"time":255.45755550000072,"velocity":0.7559055118110236,"duration":0.09070130416665734},{"name":"C#5","midi":73,"time":255.54901900000073,"velocity":0.7559055118110236,"duration":0.09070130416665734},{"name":"G#5","midi":80,"time":255.64048250000073,"velocity":0.7559055118110236,"duration":0.09070130416665734},{"name":"C5","midi":72,"time":255.73194600000073,"velocity":0.7559055118110236,"duration":0.09070130416665734},{"name":"G#5","midi":80,"time":255.82340950000074,"velocity":0.7559055118110236,"duration":0.09070130416665734},{"name":"A4","midi":69,"time":255.91487300000074,"velocity":0.7559055118110236,"duration":0.09070130416665734},{"name":"G5","midi":79,"time":256.0063365000007,"velocity":0.7559055118110236,"duration":0.09070130416665734},{"name":"G#4","midi":68,"time":256.0978000000007,"velocity":0.7559055118110236,"duration":0.09070130416665734},{"name":"G#5","midi":80,"time":256.18926350000066,"velocity":0.7559055118110236,"duration":0.09070130416665734},{"name":"G#4","midi":68,"time":256.28072700000064,"velocity":0.7559055118110236,"duration":0.09070130416665734},{"name":"G#5","midi":80,"time":256.3721905000006,"velocity":0.7559055118110236,"duration":0.09070130416665734},{"name":"G#4","midi":68,"time":256.4636540000006,"velocity":0.7559055118110236,"duration":0.09070130416665734},{"name":"G#5","midi":80,"time":256.55511750000056,"velocity":0.7559055118110236,"duration":0.09070130416665734},{"name":"A#4","midi":70,"time":256.64658100000054,"velocity":0.7559055118110236,"duration":0.09070130416665734},{"name":"G#5","midi":80,"time":256.7380445000005,"velocity":0.7559055118110236,"duration":0.09070130416665734},{"name":"C5","midi":72,"time":256.8295080000005,"velocity":0.7559055118110236,"duration":0.09070130416665734},{"name":"G#5","midi":80,"time":256.92097150000046,"velocity":0.7559055118110236,"duration":0.09070130416665734},{"name":"C#5","midi":73,"time":257.01243500000044,"velocity":0.7559055118110236,"duration":0.09070130416665734},{"name":"G#5","midi":80,"time":257.1038985000004,"velocity":0.7559055118110236,"duration":0.09070130416665734},{"name":"D#5","midi":75,"time":257.1953620000004,"velocity":0.7559055118110236,"duration":0.09070130416665734},{"name":"G#5","midi":80,"time":257.28682550000036,"velocity":0.7559055118110236,"duration":0.09070130416665734},{"name":"C5","midi":72,"time":257.37828900000034,"velocity":0.7559055118110236,"duration":0.09070130416665734},{"name":"G#5","midi":80,"time":257.4697525000003,"velocity":0.7559055118110236,"duration":0.09070130416665734},{"name":"D#5","midi":75,"time":257.5612160000003,"velocity":0.7559055118110236,"duration":0.09070130416665734},{"name":"G#5","midi":80,"time":257.65267950000026,"velocity":0.7559055118110236,"duration":0.09070130416665734},{"name":"C#5","midi":73,"time":257.74414300000024,"velocity":0.7559055118110236,"duration":0.09070130416665734},{"name":"G#5","midi":80,"time":257.8356065000002,"velocity":0.7559055118110236,"duration":0.09070130416665734},{"name":"F#5","midi":78,"time":257.9270700000002,"velocity":0.7559055118110236,"duration":0.09070130416665734},{"name":"G#5","midi":80,"time":258.01853350000016,"velocity":0.7559055118110236,"duration":0.09070130416665734},{"name":"E5","midi":76,"time":258.10999700000013,"velocity":0.7559055118110236,"duration":0.09070130416665734},{"name":"G#5","midi":80,"time":258.2014605000001,"velocity":0.7559055118110236,"duration":0.09070130416665734},{"name":"D#5","midi":75,"time":258.2929240000001,"velocity":0.7559055118110236,"duration":0.09070130416665734},{"name":"G#5","midi":80,"time":258.38438750000006,"velocity":0.7559055118110236,"duration":0.09070130416665734},{"name":"C#5","midi":73,"time":258.47585100000003,"velocity":0.7559055118110236,"duration":0.09070130416665734},{"name":"G#5","midi":80,"time":258.5673145,"velocity":0.7559055118110236,"duration":0.09070130416665734},{"name":"C5","midi":72,"time":258.658778,"velocity":0.7559055118110236,"duration":0.09070130416665734},{"name":"G#5","midi":80,"time":258.75024149999996,"velocity":0.7559055118110236,"duration":0.09070130416665734},{"name":"A4","midi":69,"time":258.84170499999993,"velocity":0.7559055118110236,"duration":0.09070130416665734},{"name":"G5","midi":79,"time":258.9331684999999,"velocity":0.7559055118110236,"duration":0.09070130416665734},{"name":"G#4","midi":68,"time":259.0246319999999,"velocity":0.7559055118110236,"duration":0.09070130416665734},{"name":"G#5","midi":80,"time":259.11609549999986,"velocity":0.7559055118110236,"duration":0.09070130416665734},{"name":"A4","midi":69,"time":259.20755899999983,"velocity":0.7559055118110236,"duration":0.09070130416665734},{"name":"G5","midi":79,"time":259.2990224999998,"velocity":0.7559055118110236,"duration":0.09070130416665734},{"name":"G#4","midi":68,"time":259.3904859999998,"velocity":0.7559055118110236,"duration":0.09070130416665734},{"name":"G#5","midi":80,"time":259.48194949999976,"velocity":0.7559055118110236,"duration":0.09070130416665734},{"name":"A4","midi":69,"time":259.57341299999973,"velocity":0.7559055118110236,"duration":0.09070130416665734},{"name":"G5","midi":79,"time":259.6648764999997,"velocity":0.7559055118110236,"duration":0.09070130416665734},{"name":"G#4","midi":68,"time":259.7563399999997,"velocity":0.7559055118110236,"duration":0.09070130416665734},{"name":"G#5","midi":80,"time":259.84780349999966,"velocity":0.7559055118110236,"duration":0.09070130416665734},{"name":"A4","midi":69,"time":259.93926699999963,"velocity":0.7559055118110236,"duration":0.09070130416665734},{"name":"G5","midi":79,"time":260.0307304999996,"velocity":0.7559055118110236,"duration":0.09070130416665734},{"name":"G#4","midi":68,"time":260.1221939999996,"velocity":0.7559055118110236,"duration":0.09070130416665734},{"name":"G#5","midi":80,"time":260.21365749999956,"velocity":0.7559055118110236,"duration":0.09070130416665734},{"name":"A4","midi":69,"time":260.30512099999953,"velocity":0.7559055118110236,"duration":0.09070130416665734},{"name":"G5","midi":79,"time":260.3965844999995,"velocity":0.7559055118110236,"duration":0.09070130416665734},{"name":"G#4","midi":68,"time":260.4880479999995,"velocity":0.7559055118110236,"duration":0.182164804166689},{"name":"G#5","midi":80,"time":260.4880479999995,"velocity":0.7559055118110236,"duration":0.182164804166689},{"name":"G#3","midi":56,"time":260.8539019999995,"velocity":0.8267716535433071,"duration":1.0967998041666647},{"name":"G#4","midi":68,"time":262.3173179999995,"velocity":0.3858267716535433,"duration":0.7309458041666517},{"name":"E4","midi":64,"time":263.04902599999946,"velocity":0.3858267716535433,"duration":0.27362830416666384},{"name":"C#4","midi":61,"time":263.32341649999944,"velocity":0.3858267716535433,"duration":0.09070130416665734},{"name":"C4","midi":60,"time":263.4148799999994,"velocity":0.3858267716535433,"duration":0.0594512750000149},{"name":"C#4","midi":61,"time":263.47509347083275,"velocity":0.3858267716535433,"duration":0.0594512750000149},{"name":"D#4","midi":63,"time":263.53606913749945,"velocity":0.3858267716535433,"duration":0.0594512750000149},{"name":"C#4","midi":61,"time":263.5978069999995,"velocity":0.3858267716535433,"duration":0.182164804166689},{"name":"C4","midi":60,"time":263.7807339999995,"velocity":0.3858267716535433,"duration":0.5480188041666452},{"name":"C4","midi":60,"time":264.32951499999945,"velocity":0.3858267716535433,"duration":0.182164804166689},{"name":"G#4","midi":68,"time":264.51244199999945,"velocity":0.3858267716535433,"duration":0.27362830416666384},{"name":"C4","midi":60,"time":264.78683249999943,"velocity":0.3858267716535433,"duration":0.09070130416665734},{"name":"D#4","midi":63,"time":264.8782959999994,"velocity":0.3858267716535433,"duration":0.36509180416663867},{"name":"C#4","midi":61,"time":265.24414999999937,"velocity":0.3858267716535433,"duration":0.5480188041666452},{"name":"C#4","midi":61,"time":265.7929309999993,"velocity":0.3858267716535433,"duration":0.182164804166689},{"name":"G#4","midi":68,"time":265.97585799999933,"velocity":0.3858267716535433,"duration":0.27362830416666384},{"name":"C#4","midi":61,"time":266.2502484999993,"velocity":0.3858267716535433,"duration":0.09070130416665734},{"name":"E4","midi":64,"time":266.3417119999993,"velocity":0.3858267716535433,"duration":0.36509180416663867},{"name":"D#4","midi":63,"time":266.70756599999925,"velocity":0.3858267716535433,"duration":0.5480188041666452},{"name":"D#4","midi":63,"time":267.2563469999992,"velocity":0.3858267716535433,"duration":0.182164804166689},{"name":"G#4","midi":68,"time":267.4392739999992,"velocity":0.3858267716535433,"duration":0.27362830416666384},{"name":"D#4","midi":63,"time":267.7136644999992,"velocity":0.3858267716535433,"duration":0.09070130416665734},{"name":"E4","midi":64,"time":267.8051279999992,"velocity":0.3858267716535433,"duration":0.182164804166689},{"name":"G#4","midi":68,"time":267.9880549999992,"velocity":0.3858267716535433,"duration":0.36509180416663867},{"name":"G#5","midi":80,"time":267.9880549999992,"velocity":0.3858267716535433,"duration":0.36509180416663867},{"name":"G#4","midi":68,"time":268.35390899999913,"velocity":0.3858267716535433,"duration":0.36509180416663867},{"name":"G#5","midi":80,"time":268.35390899999913,"velocity":0.3858267716535433,"duration":0.36509180416663867},{"name":"G#4","midi":68,"time":268.7197629999991,"velocity":0.3858267716535433,"duration":0.09070130416665734},{"name":"G#5","midi":80,"time":268.7197629999991,"velocity":0.3858267716535433,"duration":0.09070130416665734},{"name":"E4","midi":64,"time":268.9026899999991,"velocity":0.3858267716535433,"duration":0.09070130416665734},{"name":"E5","midi":76,"time":268.9026899999991,"velocity":0.3858267716535433,"duration":0.09070130416665734},{"name":"C#4","midi":61,"time":269.0856169999991,"velocity":0.3858267716535433,"duration":0.09070130416665734},{"name":"C#5","midi":73,"time":269.0856169999991,"velocity":0.3858267716535433,"duration":0.09070130416665734},{"name":"C#4","midi":61,"time":269.2685439999991,"velocity":0.3858267716535433,"duration":0.09070130416665734},{"name":"C#5","midi":73,"time":269.2685439999991,"velocity":0.3858267716535433,"duration":0.09070130416665734},{"name":"C4","midi":60,"time":269.4514709999991,"velocity":0.3858267716535433,"duration":0.36509180416663867},{"name":"C5","midi":72,"time":269.4514709999991,"velocity":0.3858267716535433,"duration":0.36509180416663867},{"name":"C4","midi":60,"time":269.8173249999991,"velocity":0.3858267716535433,"duration":0.36509180416663867},{"name":"C5","midi":72,"time":269.8173249999991,"velocity":0.3858267716535433,"duration":0.36509180416663867},{"name":"C4","midi":60,"time":270.18317899999903,"velocity":0.3858267716535433,"duration":0.09070130416665734},{"name":"C5","midi":72,"time":270.18317899999903,"velocity":0.3858267716535433,"duration":0.09070130416665734},{"name":"G#4","midi":68,"time":270.36610599999904,"velocity":0.3858267716535433,"duration":0.09070130416665734},{"name":"G#5","midi":80,"time":270.36610599999904,"velocity":0.3858267716535433,"duration":0.09070130416665734},{"name":"C4","midi":60,"time":270.54903299999904,"velocity":0.3858267716535433,"duration":0.09070130416665734},{"name":"C5","midi":72,"time":270.54903299999904,"velocity":0.3858267716535433,"duration":0.09070130416665734},{"name":"D#4","midi":63,"time":270.73195999999905,"velocity":0.3858267716535433,"duration":0.09070130416665734},{"name":"D#5","midi":75,"time":270.73195999999905,"velocity":0.3858267716535433,"duration":0.09070130416665734},{"name":"C#4","midi":61,"time":270.91488699999906,"velocity":0.3858267716535433,"duration":0.36509180416663867},{"name":"C#5","midi":73,"time":270.91488699999906,"velocity":0.3858267716535433,"duration":0.36509180416663867},{"name":"C#4","midi":61,"time":271.280740999999,"velocity":0.3858267716535433,"duration":0.36509180416663867},{"name":"C#5","midi":73,"time":271.280740999999,"velocity":0.3858267716535433,"duration":0.36509180416663867},{"name":"C#4","midi":61,"time":271.64659499999897,"velocity":0.3858267716535433,"duration":0.09070130416665734},{"name":"C#5","midi":73,"time":271.64659499999897,"velocity":0.3858267716535433,"duration":0.09070130416665734},{"name":"G#4","midi":68,"time":271.829521999999,"velocity":0.3858267716535433,"duration":0.09070130416665734},{"name":"G#5","midi":80,"time":271.829521999999,"velocity":0.3858267716535433,"duration":0.09070130416665734},{"name":"C#4","midi":61,"time":272.012448999999,"velocity":0.3858267716535433,"duration":0.09070130416665734},{"name":"C#5","midi":73,"time":272.012448999999,"velocity":0.3858267716535433,"duration":0.09070130416665734},{"name":"E4","midi":64,"time":272.195375999999,"velocity":0.3858267716535433,"duration":0.09070130416665734},{"name":"E5","midi":76,"time":272.195375999999,"velocity":0.3858267716535433,"duration":0.09070130416665734},{"name":"D#4","midi":63,"time":272.378302999999,"velocity":0.3858267716535433,"duration":0.36509180416663867},{"name":"D#5","midi":75,"time":272.378302999999,"velocity":0.3858267716535433,"duration":0.36509180416663867},{"name":"D#4","midi":63,"time":272.74415699999895,"velocity":0.3858267716535433,"duration":0.36509180416663867},{"name":"D#5","midi":75,"time":272.74415699999895,"velocity":0.3858267716535433,"duration":0.36509180416663867},{"name":"D#4","midi":63,"time":273.1100109999989,"velocity":0.3858267716535433,"duration":0.09070130416665734},{"name":"D#5","midi":75,"time":273.1100109999989,"velocity":0.3858267716535433,"duration":0.09070130416665734},{"name":"G#4","midi":68,"time":273.2929379999989,"velocity":0.3858267716535433,"duration":0.09070130416665734},{"name":"G#5","midi":80,"time":273.2929379999989,"velocity":0.3858267716535433,"duration":0.09070130416665734},{"name":"D#4","midi":63,"time":273.4758649999989,"velocity":0.3858267716535433,"duration":0.09070130416665734},{"name":"D#5","midi":75,"time":273.4758649999989,"velocity":0.3858267716535433,"duration":0.09070130416665734},{"name":"F4","midi":65,"time":273.6587919999989,"velocity":0.3858267716535433,"duration":0.7309458041666517},{"name":"F5","midi":77,"time":273.6587919999989,"velocity":0.3858267716535433,"duration":0.7309458041666517},{"name":"F#4","midi":66,"time":274.3904999999989,"velocity":0.3858267716535433,"duration":0.7309458041666517},{"name":"F#5","midi":78,"time":274.3904999999989,"velocity":0.3858267716535433,"duration":0.7309458041666517},{"name":"D#4","midi":63,"time":275.12220799999886,"velocity":0.3858267716535433,"duration":0.3650918041665818},{"name":"D#5","midi":75,"time":275.12220799999886,"velocity":0.3858267716535433,"duration":0.1044208291666564},{"name":"E5","midi":76,"time":275.17403731666553,"velocity":0.3858267716535433,"duration":0.051829316666669456},{"name":"D#5","midi":75,"time":275.2266288291655,"velocity":0.3858267716535433,"duration":0.1051830249999739},{"name":"E5","midi":76,"time":275.2792203416655,"velocity":0.3858267716535433,"duration":0.051829316666669456},{"name":"D#5","midi":75,"time":275.3318118541655,"velocity":0.3858267716535433,"duration":0.1051830249999739},{"name":"C#5","midi":73,"time":275.3844033666655,"velocity":0.3858267716535433,"duration":0.051829316666669456},{"name":"D#5","midi":75,"time":275.43699487916547,"velocity":0.3858267716535433,"duration":0.05182931666661261},{"name":"E4","midi":64,"time":275.48806199999876,"velocity":0.4566929133858268,"duration":1.0967998041666647},{"name":"E5","midi":76,"time":275.48806199999876,"velocity":0.4566929133858268,"duration":1.0967998041666647},{"name":"C#4","midi":61,"time":276.58562399999875,"velocity":0.4566929133858268,"duration":0.7309458041666517},{"name":"C#5","midi":73,"time":276.58562399999875,"velocity":0.4566929133858268,"duration":0.7309458041666517},{"name":"D4","midi":62,"time":277.3173319999987,"velocity":0.4566929133858268,"duration":0.7309458041666517},{"name":"D5","midi":74,"time":277.3173319999987,"velocity":0.4566929133858268,"duration":0.7309458041666517},{"name":"C4","midi":60,"time":278.0490399999987,"velocity":0.3858267716535433,"duration":0.3650918041665818},{"name":"C5","midi":72,"time":278.0490399999987,"velocity":0.3858267716535433,"duration":0.1044208291666564},{"name":"C#5","midi":73,"time":278.10086931666535,"velocity":0.3858267716535433,"duration":0.051829316666669456},{"name":"C5","midi":72,"time":278.15346082916534,"velocity":0.3858267716535433,"duration":0.1051830249999739},{"name":"C#5","midi":73,"time":278.2060523416653,"velocity":0.3858267716535433,"duration":0.051829316666669456},{"name":"C5","midi":72,"time":278.2586438541653,"velocity":0.3858267716535433,"duration":0.1051830249999739},{"name":"A#4","midi":70,"time":278.3112353666653,"velocity":0.3858267716535433,"duration":0.051829316666669456},{"name":"C5","midi":72,"time":278.3638268791653,"velocity":0.3858267716535433,"duration":0.05182931666661261},{"name":"C#4","midi":61,"time":278.4148939999986,"velocity":0.4566929133858268,"duration":1.0967998041666647},{"name":"C#5","midi":73,"time":278.4148939999986,"velocity":0.4566929133858268,"duration":1.0967998041666647},{"name":"D4","midi":62,"time":279.51245599999856,"velocity":0.8818897637795275,"duration":0.8224093041666833},{"name":"F#4","midi":66,"time":279.51245599999856,"velocity":0.8818897637795275,"duration":0.8224093041666833},{"name":"A4","midi":69,"time":279.51245599999856,"velocity":0.8818897637795275,"duration":0.8224093041666833},{"name":"D5","midi":74,"time":279.51245599999856,"velocity":0.8818897637795275,"duration":0.8224093041666833},{"name":"A4","midi":69,"time":280.33562749999857,"velocity":0.3858267716535433,"duration":0.09070130416665734},{"name":"B4","midi":71,"time":280.42709099999854,"velocity":0.3858267716535433,"duration":0.09070130416665734},{"name":"C#5","midi":73,"time":280.5185544999985,"velocity":0.3858267716535433,"duration":0.09070130416665734},{"name":"D5","midi":74,"time":280.6100179999985,"velocity":0.3858267716535433,"duration":0.09070130416665734},{"name":"E5","midi":76,"time":280.70148149999847,"velocity":0.3858267716535433,"duration":0.09070130416665734},{"name":"F#5","midi":78,"time":280.79294499999844,"velocity":0.3858267716535433,"duration":0.09070130416665734},{"name":"E5","midi":76,"time":280.8844084999984,"velocity":0.3858267716535433,"duration":0.09070130416665734},{"name":"D5","midi":74,"time":280.9758719999984,"velocity":0.3858267716535433,"duration":0.09070130416665734},{"name":"A4","midi":69,"time":281.06733549999836,"velocity":0.3858267716535433,"duration":0.09070130416665734},{"name":"B4","midi":71,"time":281.15879899999834,"velocity":0.3858267716535433,"duration":0.09070130416665734},{"name":"C#5","midi":73,"time":281.2502624999983,"velocity":0.3858267716535433,"duration":0.09070130416665734},{"name":"D5","midi":74,"time":281.3417259999983,"velocity":0.3858267716535433,"duration":0.09070130416665734},{"name":"E5","midi":76,"time":281.43318949999826,"velocity":0.3858267716535433,"duration":0.09070130416665734},{"name":"F#5","midi":78,"time":281.52465299999824,"velocity":0.3858267716535433,"duration":0.09070130416665734},{"name":"E5","midi":76,"time":281.6161164999982,"velocity":0.3858267716535433,"duration":0.09070130416665734},{"name":"D5","midi":74,"time":281.7075799999982,"velocity":0.3858267716535433,"duration":0.09070130416665734},{"name":"A4","midi":69,"time":281.79904349999816,"velocity":0.3858267716535433,"duration":0.09070130416665734},{"name":"B4","midi":71,"time":281.89050699999814,"velocity":0.3858267716535433,"duration":0.09070130416665734},{"name":"C#5","midi":73,"time":281.9819704999981,"velocity":0.3858267716535433,"duration":0.09070130416665734},{"name":"D5","midi":74,"time":282.0734339999981,"velocity":0.3858267716535433,"duration":0.09070130416665734},{"name":"E5","midi":76,"time":282.16489749999806,"velocity":0.3858267716535433,"duration":0.09070130416665734},{"name":"F#5","midi":78,"time":282.25636099999804,"velocity":0.3858267716535433,"duration":0.09070130416665734},{"name":"E5","midi":76,"time":282.347824499998,"velocity":0.3858267716535433,"duration":0.09070130416665734},{"name":"D5","midi":74,"time":282.439287999998,"velocity":0.3858267716535433,"duration":0.09070130416665734},{"name":"A4","midi":69,"time":282.53075149999796,"velocity":0.4015748031496063,"duration":0.09070130416665734},{"name":"B4","midi":71,"time":282.62221499999794,"velocity":0.4094488188976378,"duration":0.09070130416665734},{"name":"C#5","midi":73,"time":282.7136784999979,"velocity":0.41732283464566927,"duration":0.09070130416665734},{"name":"D5","midi":74,"time":282.8051419999979,"velocity":0.4251968503937008,"duration":0.09070130416665734},{"name":"E5","midi":76,"time":282.89660549999786,"velocity":0.4330708661417323,"duration":0.09070130416665734},{"name":"F#5","midi":78,"time":282.98806899999784,"velocity":0.4409448818897638,"duration":0.09070130416665734},{"name":"G5","midi":79,"time":283.0795324999978,"velocity":0.44881889763779526,"duration":0.09070130416665734},{"name":"A5","midi":81,"time":283.1709959999978,"velocity":0.44881889763779526,"duration":0.09070130416665734},{"name":"G#5","midi":80,"time":283.26245949999776,"velocity":0.4566929133858268,"duration":0.09070130416665734},{"name":"B5","midi":83,"time":283.35392299999774,"velocity":0.4645669291338583,"duration":0.09070130416665734},{"name":"A5","midi":81,"time":283.4453864999977,"velocity":0.47244094488188976,"duration":0.09070130416665734},{"name":"G5","midi":79,"time":283.5368499999977,"velocity":0.48031496062992124,"duration":0.09070130416665734},{"name":"F#5","midi":78,"time":283.62831349999766,"velocity":0.4881889763779528,"duration":0.09070130416665734},{"name":"E5","midi":76,"time":283.71977699999763,"velocity":0.49606299212598426,"duration":0.09070130416665734},{"name":"D5","midi":74,"time":283.8112404999976,"velocity":0.5039370078740157,"duration":0.09070130416665734},{"name":"C#5","midi":73,"time":283.9027039999976,"velocity":0.3858267716535433,"duration":0.7309458041666517},{"name":"D#5","midi":75,"time":284.63441199999755,"velocity":0.3858267716535433,"duration":0.09756106666668529},{"name":"E5","midi":76,"time":284.6831925333309,"velocity":0.3858267716535433,"duration":0.048018337500025154},{"name":"D#5","midi":75,"time":284.73197306666424,"velocity":0.3858267716535433,"duration":0.09756106666668529},{"name":"E5","midi":76,"time":284.7807535999976,"velocity":0.3858267716535433,"duration":0.048018337500025154},{"name":"D#5","midi":75,"time":284.8295341333309,"velocity":0.3858267716535433,"duration":0.09756106666668529},{"name":"E5","midi":76,"time":284.87831466666427,"velocity":0.3858267716535433,"duration":0.048018337500025154},{"name":"D#5","midi":75,"time":284.9270951999976,"velocity":0.3858267716535433,"duration":0.09756106666668529},{"name":"E5","midi":76,"time":284.97587573333095,"velocity":0.3858267716535433,"duration":0.048018337500025154},{"name":"D#5","midi":75,"time":285.0246562666643,"velocity":0.3858267716535433,"duration":0.09756106666668529},{"name":"E5","midi":76,"time":285.07343679999764,"velocity":0.3858267716535433,"duration":0.048018337500025154},{"name":"D#5","midi":75,"time":285.122217333331,"velocity":0.3858267716535433,"duration":0.09756106666668529},{"name":"E5","midi":76,"time":285.1709978666643,"velocity":0.3858267716535433,"duration":0.048018337500025154},{"name":"D#5","midi":75,"time":285.21977839999767,"velocity":0.3858267716535433,"duration":0.09756106666668529},{"name":"C#5","midi":73,"time":285.268558933331,"velocity":0.3858267716535433,"duration":0.048018337500025154},{"name":"D#5","midi":75,"time":285.31733946666435,"velocity":0.3858267716535433,"duration":0.048018337500025154},{"name":"C#5","midi":73,"time":285.3661199999977,"velocity":0.3858267716535433,"duration":0.182164804166689},{"name":"D3","midi":50,"time":285.7319739999977,"velocity":0.8818897637795275,"duration":0.45655530416667034},{"name":"F#3","midi":54,"time":285.7319739999977,"velocity":0.8818897637795275,"duration":0.45655530416667034},{"name":"A3","midi":57,"time":285.7319739999977,"velocity":0.8818897637795275,"duration":0.45655530416667034},{"name":"D4","midi":62,"time":285.7319739999977,"velocity":0.8818897637795275,"duration":0.45655530416667034},{"name":"A3","midi":57,"time":286.1892914999977,"velocity":0.3858267716535433,"duration":0.09070130416665734},{"name":"B3","midi":59,"time":286.28075499999767,"velocity":0.3858267716535433,"duration":0.09070130416665734},{"name":"C#4","midi":61,"time":286.37221849999764,"velocity":0.3858267716535433,"duration":0.09070130416665734},{"name":"D4","midi":62,"time":286.4636819999976,"velocity":0.3858267716535433,"duration":0.09070130416665734},{"name":"E4","midi":64,"time":286.5551454999976,"velocity":0.3858267716535433,"duration":0.09070130416665734},{"name":"F#4","midi":66,"time":286.64660899999757,"velocity":0.3858267716535433,"duration":0.09070130416665734},{"name":"E4","midi":64,"time":286.73807249999754,"velocity":0.3858267716535433,"duration":0.09070130416665734},{"name":"D4","midi":62,"time":286.8295359999975,"velocity":0.3858267716535433,"duration":0.09070130416665734},{"name":"A3","midi":57,"time":286.9209994999975,"velocity":0.3858267716535433,"duration":0.09070130416665734},{"name":"B3","midi":59,"time":287.01246299999747,"velocity":0.3858267716535433,"duration":0.09070130416665734},{"name":"C#4","midi":61,"time":287.10392649999744,"velocity":0.4094488188976378,"duration":0.09070130416665734},{"name":"D4","midi":62,"time":287.1953899999974,"velocity":0.4251968503937008,"duration":0.09070130416665734},{"name":"E4","midi":64,"time":287.2868534999974,"velocity":0.4330708661417323,"duration":0.09070130416665734},{"name":"F#4","midi":66,"time":287.37831699999737,"velocity":0.44881889763779526,"duration":0.09070130416665734},{"name":"E4","midi":64,"time":287.46978049999734,"velocity":0.4566929133858268,"duration":0.09070130416665734},{"name":"D4","midi":62,"time":287.5612439999973,"velocity":0.47244094488188976,"duration":0.09070130416665734},{"name":"A3","midi":57,"time":287.6527074999973,"velocity":0.48031496062992124,"duration":0.09070130416665734},{"name":"B3","midi":59,"time":287.74417099999727,"velocity":0.49606299212598426,"duration":0.09070130416665734},{"name":"C#4","midi":61,"time":287.83563449999724,"velocity":0.5039370078740157,"duration":0.09070130416665734},{"name":"D4","midi":62,"time":287.9270979999972,"velocity":0.5196850393700787,"duration":0.09070130416665734},{"name":"E4","midi":64,"time":288.0185614999972,"velocity":0.5275590551181102,"duration":0.09070130416665734},{"name":"F#4","midi":66,"time":288.11002499999717,"velocity":0.5433070866141733,"duration":0.09070130416665734},{"name":"E4","midi":64,"time":288.20148849999714,"velocity":0.5511811023622047,"duration":0.09070130416665734},{"name":"D4","midi":62,"time":288.2929519999971,"velocity":0.5669291338582677,"duration":0.09070130416665734},{"name":"A3","midi":57,"time":288.3844154999971,"velocity":0.5748031496062992,"duration":0.09070130416665734},{"name":"B3","midi":59,"time":288.47587899999706,"velocity":0.5905511811023622,"duration":0.09070130416665734},{"name":"C#4","midi":61,"time":288.56734249999704,"velocity":0.5984251968503937,"duration":0.09070130416665734},{"name":"D4","midi":62,"time":288.658805999997,"velocity":0.6141732283464567,"duration":0.09070130416665734},{"name":"E4","midi":64,"time":288.750269499997,"velocity":0.6220472440944882,"duration":0.09070130416665734},{"name":"F#4","midi":66,"time":288.84173299999696,"velocity":0.6377952755905512,"duration":0.09070130416665734},{"name":"G4","midi":67,"time":288.93319649999694,"velocity":0.6456692913385826,"duration":0.09070130416665734},{"name":"A4","midi":69,"time":289.0246599999969,"velocity":0.6614173228346457,"duration":0.09070130416665734},{"name":"B4","midi":71,"time":289.1161234999969,"velocity":0.6692913385826772,"duration":0.09070130416665734},{"name":"C#5","midi":73,"time":289.20758699999686,"velocity":0.6850393700787402,"duration":0.09070130416665734},{"name":"D5","midi":74,"time":289.29905049999684,"velocity":0.6929133858267716,"duration":0.09070130416665734},{"name":"E5","midi":76,"time":289.3905139999968,"velocity":0.7086614173228346,"duration":0.09070130416665734},{"name":"F#5","midi":78,"time":289.4819774999968,"velocity":0.7165354330708661,"duration":0.09070130416665734},{"name":"G5","midi":79,"time":289.57344099999676,"velocity":0.7322834645669292,"duration":0.09070130416665734},{"name":"G#5","midi":80,"time":289.66490449999674,"velocity":0.7401574803149606,"duration":0.09070130416665734},{"name":"A4","midi":69,"time":289.7563679999967,"velocity":0.7559055118110236,"duration":0.7309458041666517},{"name":"A5","midi":81,"time":289.7563679999967,"velocity":0.7559055118110236,"duration":0.7309458041666517},{"name":"C#4","midi":61,"time":290.4880759999967,"velocity":0.7559055118110236,"duration":0.7309458041666517},{"name":"C#5","midi":73,"time":290.4880759999967,"velocity":0.7559055118110236,"duration":0.7309458041666517},{"name":"E4","midi":64,"time":291.21978399999665,"velocity":0.7559055118110236,"duration":0.7309458041666517},{"name":"E5","midi":76,"time":291.21978399999665,"velocity":0.7559055118110236,"duration":0.7309458041666517},{"name":"C3","midi":48,"time":291.9514919999966,"velocity":0.7559055118110236,"duration":0.7309458041666517},{"name":"F#3","midi":54,"time":291.9514919999966,"velocity":0.7559055118110236,"duration":0.7309458041666517},{"name":"C4","midi":60,"time":291.9514919999966,"velocity":0.7559055118110236,"duration":0.7309458041666517},{"name":"C#3","midi":49,"time":292.6831999999966,"velocity":0.7559055118110236,"duration":0.182164804166689},{"name":"E3","midi":52,"time":292.6831999999966,"velocity":0.7559055118110236,"duration":0.182164804166689},{"name":"C#4","midi":61,"time":292.6831999999966,"velocity":0.7559055118110236,"duration":0.182164804166689},{"name":"G#3","midi":56,"time":292.8661269999966,"velocity":0.3858267716535433,"duration":0.09070130416665734},{"name":"E4","midi":64,"time":292.8661269999966,"velocity":0.3858267716535433,"duration":0.09070130416665734},{"name":"G#3","midi":56,"time":293.0490539999966,"velocity":0.3858267716535433,"duration":0.09070130416665734},{"name":"E4","midi":64,"time":293.0490539999966,"velocity":0.3858267716535433,"duration":0.09070130416665734},{"name":"G#3","midi":56,"time":293.2319809999966,"velocity":0.3858267716535433,"duration":0.09070130416665734},{"name":"E4","midi":64,"time":293.2319809999966,"velocity":0.3858267716535433,"duration":0.09070130416665734},{"name":"G#3","midi":56,"time":293.4149079999966,"velocity":0.3858267716535433,"duration":0.09070130416665734},{"name":"E4","midi":64,"time":293.4149079999966,"velocity":0.3858267716535433,"duration":0.09070130416665734},{"name":"G#3","midi":56,"time":293.5978349999966,"velocity":0.3858267716535433,"duration":0.09070130416665734},{"name":"E4","midi":64,"time":293.5978349999966,"velocity":0.3858267716535433,"duration":0.09070130416665734},{"name":"G#3","midi":56,"time":293.7807619999966,"velocity":0.3858267716535433,"duration":0.09070130416665734},{"name":"D#4","midi":63,"time":293.7807619999966,"velocity":0.3858267716535433,"duration":0.09070130416665734},{"name":"G#3","midi":56,"time":293.96368899999663,"velocity":0.3858267716535433,"duration":0.09070130416665734},{"name":"C#4","midi":61,"time":293.96368899999663,"velocity":0.3858267716535433,"duration":0.09070130416665734},{"name":"G#3","midi":56,"time":294.14661599999664,"velocity":0.3858267716535433,"duration":0.09070130416665734},{"name":"C4","midi":60,"time":294.14661599999664,"velocity":0.3858267716535433,"duration":0.09070130416665734},{"name":"C4","midi":60,"time":294.32954299999665,"velocity":0.3858267716535433,"duration":0.09070130416665734},{"name":"G#4","midi":68,"time":294.32954299999665,"velocity":0.3858267716535433,"duration":0.09070130416665734},{"name":"C4","midi":60,"time":294.51246999999665,"velocity":0.3858267716535433,"duration":0.09070130416665734},{"name":"G#4","midi":68,"time":294.51246999999665,"velocity":0.3858267716535433,"duration":0.09070130416665734},{"name":"C4","midi":60,"time":294.69539699999666,"velocity":0.3858267716535433,"duration":0.09070130416665734},{"name":"G#4","midi":68,"time":294.69539699999666,"velocity":0.3858267716535433,"duration":0.09070130416665734},{"name":"C4","midi":60,"time":294.87832399999667,"velocity":0.3858267716535433,"duration":0.09070130416665734},{"name":"G#4","midi":68,"time":294.87832399999667,"velocity":0.3858267716535433,"duration":0.09070130416665734},{"name":"C4","midi":60,"time":295.0612509999967,"velocity":0.3858267716535433,"duration":0.09070130416665734},{"name":"G#4","midi":68,"time":295.0612509999967,"velocity":0.3858267716535433,"duration":0.09070130416665734},{"name":"C#4","midi":61,"time":295.2441779999967,"velocity":0.3858267716535433,"duration":0.09070130416665734},{"name":"G#4","midi":68,"time":295.2441779999967,"velocity":0.3858267716535433,"duration":0.09070130416665734},{"name":"D#4","midi":63,"time":295.4271049999967,"velocity":0.3858267716535433,"duration":0.09070130416665734},{"name":"G#4","midi":68,"time":295.4271049999967,"velocity":0.3858267716535433,"duration":0.09070130416665734},{"name":"E4","midi":64,"time":295.6100319999967,"velocity":0.3858267716535433,"duration":0.09070130416665734},{"name":"G#4","midi":68,"time":295.6100319999967,"velocity":0.3858267716535433,"duration":0.09070130416665734},{"name":"G#3","midi":56,"time":295.7929589999967,"velocity":0.3858267716535433,"duration":0.09070130416665734},{"name":"E4","midi":64,"time":295.7929589999967,"velocity":0.3858267716535433,"duration":0.09070130416665734},{"name":"G#3","midi":56,"time":295.9758859999967,"velocity":0.3858267716535433,"duration":0.09070130416665734},{"name":"E4","midi":64,"time":295.9758859999967,"velocity":0.3858267716535433,"duration":0.09070130416665734},{"name":"G#3","midi":56,"time":296.1588129999967,"velocity":0.3858267716535433,"duration":0.09070130416665734},{"name":"E4","midi":64,"time":296.1588129999967,"velocity":0.3858267716535433,"duration":0.09070130416665734},{"name":"G#3","midi":56,"time":296.3417399999967,"velocity":0.3858267716535433,"duration":0.09070130416665734},{"name":"E4","midi":64,"time":296.3417399999967,"velocity":0.3858267716535433,"duration":0.09070130416665734},{"name":"G#3","midi":56,"time":296.5246669999967,"velocity":0.3858267716535433,"duration":0.09070130416665734},{"name":"E4","midi":64,"time":296.5246669999967,"velocity":0.3858267716535433,"duration":0.09070130416665734},{"name":"G#3","midi":56,"time":296.70759399999673,"velocity":0.3858267716535433,"duration":0.09070130416665734},{"name":"D#4","midi":63,"time":296.70759399999673,"velocity":0.3858267716535433,"duration":0.09070130416665734},{"name":"G#3","midi":56,"time":296.89052099999674,"velocity":0.3858267716535433,"duration":0.09070130416665734},{"name":"C#4","midi":61,"time":296.89052099999674,"velocity":0.3858267716535433,"duration":0.09070130416665734},{"name":"G#3","midi":56,"time":297.07344799999674,"velocity":0.3858267716535433,"duration":0.09070130416665734},{"name":"C4","midi":60,"time":297.07344799999674,"velocity":0.3858267716535433,"duration":0.09070130416665734},{"name":"C4","midi":60,"time":297.25637499999675,"velocity":0.3858267716535433,"duration":0.09070130416665734},{"name":"G#4","midi":68,"time":297.25637499999675,"velocity":0.3858267716535433,"duration":0.09070130416665734},{"name":"C4","midi":60,"time":297.43930199999676,"velocity":0.3858267716535433,"duration":0.09070130416665734},{"name":"G#4","midi":68,"time":297.43930199999676,"velocity":0.3858267716535433,"duration":0.09070130416665734},{"name":"C4","midi":60,"time":297.62222899999676,"velocity":0.3858267716535433,"duration":0.09070130416665734},{"name":"G#4","midi":68,"time":297.62222899999676,"velocity":0.3858267716535433,"duration":0.09070130416665734},{"name":"C4","midi":60,"time":297.80515599999677,"velocity":0.3858267716535433,"duration":0.09070130416665734},{"name":"G#4","midi":68,"time":297.80515599999677,"velocity":0.3858267716535433,"duration":0.09070130416665734},{"name":"C4","midi":60,"time":297.9880829999968,"velocity":0.3858267716535433,"duration":0.09070130416665734},{"name":"G#4","midi":68,"time":297.9880829999968,"velocity":0.3858267716535433,"duration":0.09070130416665734},{"name":"C#4","midi":61,"time":298.1710099999968,"velocity":0.3858267716535433,"duration":0.09070130416665734},{"name":"G#4","midi":68,"time":298.1710099999968,"velocity":0.3858267716535433,"duration":0.09070130416665734},{"name":"D#4","midi":63,"time":298.3539369999968,"velocity":0.3858267716535433,"duration":0.09070130416665734},{"name":"G#4","midi":68,"time":298.3539369999968,"velocity":0.3858267716535433,"duration":0.09070130416665734},{"name":"E4","midi":64,"time":298.5368639999968,"velocity":0.3858267716535433,"duration":0.09070130416665734},{"name":"G#4","midi":68,"time":298.5368639999968,"velocity":0.3858267716535433,"duration":0.09070130416665734},{"name":"E4","midi":64,"time":298.7197909999968,"velocity":0.3858267716535433,"duration":0.09070130416665734},{"name":"G#4","midi":68,"time":298.7197909999968,"velocity":0.3858267716535433,"duration":0.09070130416665734},{"name":"E4","midi":64,"time":298.9027179999968,"velocity":0.3858267716535433,"duration":0.182164804166689},{"name":"G#4","midi":68,"time":298.9027179999968,"velocity":0.3858267716535433,"duration":0.182164804166689},{"name":"C#4","midi":61,"time":299.0856449999968,"velocity":0.3858267716535433,"duration":0.182164804166689},{"name":"E4","midi":64,"time":299.0856449999968,"velocity":0.3858267716535433,"duration":0.182164804166689},{"name":"F#4","midi":66,"time":299.45149899999683,"velocity":0.3858267716535433,"duration":0.09070130416665734},{"name":"A4","midi":69,"time":299.45149899999683,"velocity":0.3858267716535433,"duration":0.09070130416665734},{"name":"F#4","midi":66,"time":299.63442599999684,"velocity":0.3858267716535433,"duration":0.182164804166689},{"name":"A4","midi":69,"time":299.63442599999684,"velocity":0.3858267716535433,"duration":0.182164804166689},{"name":"C#4","midi":61,"time":299.81735299999684,"velocity":0.3858267716535433,"duration":0.182164804166689},{"name":"F#4","midi":66,"time":299.81735299999684,"velocity":0.3858267716535433,"duration":0.182164804166689},{"name":"E4","midi":64,"time":300.18320699999686,"velocity":0.3858267716535433,"duration":0.09070130416665734},{"name":"G#4","midi":68,"time":300.18320699999686,"velocity":0.3858267716535433,"duration":0.09070130416665734},{"name":"E4","midi":64,"time":300.36613399999686,"velocity":0.3858267716535433,"duration":0.182164804166689},{"name":"G#4","midi":68,"time":300.36613399999686,"velocity":0.3858267716535433,"duration":0.182164804166689},{"name":"C#4","midi":61,"time":300.54906099999687,"velocity":0.3858267716535433,"duration":0.182164804166689},{"name":"E4","midi":64,"time":300.54906099999687,"velocity":0.3858267716535433,"duration":0.182164804166689},{"name":"D#4","midi":63,"time":300.9149149999969,"velocity":0.3858267716535433,"duration":0.09070130416665734},{"name":"G#4","midi":68,"time":300.9149149999969,"velocity":0.3858267716535433,"duration":0.09070130416665734},{"name":"D#4","midi":63,"time":301.0978419999969,"velocity":0.3858267716535433,"duration":0.182164804166689},{"name":"G#4","midi":68,"time":301.0978419999969,"velocity":0.3858267716535433,"duration":0.182164804166689},{"name":"C4","midi":60,"time":301.2807689999969,"velocity":0.3858267716535433,"duration":0.182164804166689},{"name":"D#4","midi":63,"time":301.2807689999969,"velocity":0.3858267716535433,"duration":0.182164804166689},{"name":"C#4","midi":61,"time":301.4636959999969,"velocity":0.3858267716535433,"duration":0.09070130416665734},{"name":"E4","midi":64,"time":301.4636959999969,"velocity":0.3858267716535433,"duration":0.09070130416665734},{"name":"E4","midi":64,"time":301.6466229999969,"velocity":0.3858267716535433,"duration":0.09070130416665734},{"name":"G#4","midi":68,"time":301.6466229999969,"velocity":0.3858267716535433,"duration":0.09070130416665734},{"name":"E5","midi":76,"time":301.6466229999969,"velocity":0.3858267716535433,"duration":0.09070130416665734},{"name":"E4","midi":64,"time":301.8295499999969,"velocity":0.4645669291338583,"duration":0.09070130416665734},{"name":"G#4","midi":68,"time":301.8295499999969,"velocity":0.4645669291338583,"duration":0.09070130416665734},{"name":"E5","midi":76,"time":301.8295499999969,"velocity":0.4645669291338583,"duration":0.09070130416665734},{"name":"E4","midi":64,"time":302.0124769999969,"velocity":0.5118110236220472,"duration":0.09070130416665734},{"name":"G#4","midi":68,"time":302.0124769999969,"velocity":0.5118110236220472,"duration":0.09070130416665734},{"name":"E5","midi":76,"time":302.0124769999969,"velocity":0.5118110236220472,"duration":0.09070130416665734},{"name":"E4","midi":64,"time":302.1954039999969,"velocity":0.5511811023622047,"duration":0.09070130416665734},{"name":"G#4","midi":68,"time":302.1954039999969,"velocity":0.5511811023622047,"duration":0.09070130416665734},{"name":"E5","midi":76,"time":302.1954039999969,"velocity":0.5511811023622047,"duration":0.09070130416665734},{"name":"E4","midi":64,"time":302.37833099999693,"velocity":0.5905511811023622,"duration":0.09070130416665734},{"name":"G#4","midi":68,"time":302.37833099999693,"velocity":0.5905511811023622,"duration":0.09070130416665734},{"name":"E5","midi":76,"time":302.37833099999693,"velocity":0.5905511811023622,"duration":0.09070130416665734},{"name":"D#4","midi":63,"time":302.56125799999694,"velocity":0.6299212598425197,"duration":0.09070130416665734},{"name":"F#4","midi":66,"time":302.56125799999694,"velocity":0.6299212598425197,"duration":0.09070130416665734},{"name":"D#5","midi":75,"time":302.56125799999694,"velocity":0.6299212598425197,"duration":0.09070130416665734},{"name":"C#4","midi":61,"time":302.74418499999695,"velocity":0.6771653543307087,"duration":0.09070130416665734},{"name":"E4","midi":64,"time":302.74418499999695,"velocity":0.6771653543307087,"duration":0.09070130416665734},{"name":"C#5","midi":73,"time":302.74418499999695,"velocity":0.6771653543307087,"duration":0.09070130416665734},{"name":"C4","midi":60,"time":302.92711199999695,"velocity":0.7165354330708661,"duration":0.09070130416665734},{"name":"D#4","midi":63,"time":302.92711199999695,"velocity":0.7165354330708661,"duration":0.09070130416665734},{"name":"C5","midi":72,"time":302.92711199999695,"velocity":0.7165354330708661,"duration":0.09070130416665734},{"name":"C5","midi":72,"time":303.11003899999696,"velocity":0.7559055118110236,"duration":0.09070130416665734},{"name":"D#5","midi":75,"time":303.11003899999696,"velocity":0.7559055118110236,"duration":0.09070130416665734},{"name":"C6","midi":84,"time":303.11003899999696,"velocity":0.7559055118110236,"duration":0.09070130416665734},{"name":"C5","midi":72,"time":303.29296599999697,"velocity":0.7559055118110236,"duration":0.09070130416665734},{"name":"D#5","midi":75,"time":303.29296599999697,"velocity":0.7559055118110236,"duration":0.09070130416665734},{"name":"C6","midi":84,"time":303.29296599999697,"velocity":0.7559055118110236,"duration":0.09070130416665734},{"name":"C5","midi":72,"time":303.475892999997,"velocity":0.7559055118110236,"duration":0.09070130416665734},{"name":"D#5","midi":75,"time":303.475892999997,"velocity":0.7559055118110236,"duration":0.09070130416665734},{"name":"C6","midi":84,"time":303.475892999997,"velocity":0.7559055118110236,"duration":0.09070130416665734},{"name":"C5","midi":72,"time":303.658819999997,"velocity":0.7559055118110236,"duration":0.09070130416665734},{"name":"D#5","midi":75,"time":303.658819999997,"velocity":0.7559055118110236,"duration":0.09070130416665734},{"name":"C6","midi":84,"time":303.658819999997,"velocity":0.7559055118110236,"duration":0.09070130416665734},{"name":"C5","midi":72,"time":303.841746999997,"velocity":0.7559055118110236,"duration":0.09070130416665734},{"name":"D#5","midi":75,"time":303.841746999997,"velocity":0.7559055118110236,"duration":0.09070130416665734},{"name":"C6","midi":84,"time":303.841746999997,"velocity":0.7559055118110236,"duration":0.09070130416665734},{"name":"C#5","midi":73,"time":304.024673999997,"velocity":0.7559055118110236,"duration":0.09070130416665734},{"name":"E5","midi":76,"time":304.024673999997,"velocity":0.7559055118110236,"duration":0.09070130416665734},{"name":"C#6","midi":85,"time":304.024673999997,"velocity":0.7559055118110236,"duration":0.09070130416665734},{"name":"D#5","midi":75,"time":304.207600999997,"velocity":0.7559055118110236,"duration":0.09070130416665734},{"name":"F#5","midi":78,"time":304.207600999997,"velocity":0.7559055118110236,"duration":0.09070130416665734},{"name":"D#6","midi":87,"time":304.207600999997,"velocity":0.7559055118110236,"duration":0.09070130416665734},{"name":"E5","midi":76,"time":304.390527999997,"velocity":0.7559055118110236,"duration":0.09070130416665734},{"name":"G#5","midi":80,"time":304.390527999997,"velocity":0.7559055118110236,"duration":0.09070130416665734},{"name":"E6","midi":88,"time":304.390527999997,"velocity":0.7559055118110236,"duration":0.09070130416665734},{"name":"E4","midi":64,"time":304.573454999997,"velocity":0.3858267716535433,"duration":0.09070130416665734},{"name":"G#4","midi":68,"time":304.573454999997,"velocity":0.3858267716535433,"duration":0.09070130416665734},{"name":"E5","midi":76,"time":304.573454999997,"velocity":0.3858267716535433,"duration":0.09070130416665734},{"name":"E4","midi":64,"time":304.756381999997,"velocity":0.4645669291338583,"duration":0.09070130416665734},{"name":"G#4","midi":68,"time":304.756381999997,"velocity":0.4645669291338583,"duration":0.09070130416665734},{"name":"E5","midi":76,"time":304.756381999997,"velocity":0.4645669291338583,"duration":0.09070130416665734},{"name":"E4","midi":64,"time":304.939308999997,"velocity":0.5118110236220472,"duration":0.09070130416665734},{"name":"G#4","midi":68,"time":304.939308999997,"velocity":0.5118110236220472,"duration":0.09070130416665734},{"name":"E5","midi":76,"time":304.939308999997,"velocity":0.5118110236220472,"duration":0.09070130416665734},{"name":"E4","midi":64,"time":305.12223599999703,"velocity":0.5511811023622047,"duration":0.09070130416665734},{"name":"G#4","midi":68,"time":305.12223599999703,"velocity":0.5511811023622047,"duration":0.09070130416665734},{"name":"E5","midi":76,"time":305.12223599999703,"velocity":0.5511811023622047,"duration":0.09070130416665734},{"name":"E4","midi":64,"time":305.30516299999704,"velocity":0.5905511811023622,"duration":0.09070130416665734},{"name":"G#4","midi":68,"time":305.30516299999704,"velocity":0.5905511811023622,"duration":0.09070130416665734},{"name":"E5","midi":76,"time":305.30516299999704,"velocity":0.5905511811023622,"duration":0.09070130416665734},{"name":"D#4","midi":63,"time":305.48808999999704,"velocity":0.6299212598425197,"duration":0.09070130416665734},{"name":"F#4","midi":66,"time":305.48808999999704,"velocity":0.6299212598425197,"duration":0.09070130416665734},{"name":"D#5","midi":75,"time":305.48808999999704,"velocity":0.6299212598425197,"duration":0.09070130416665734},{"name":"C#4","midi":61,"time":305.67101699999705,"velocity":0.6771653543307087,"duration":0.09070130416665734},{"name":"E4","midi":64,"time":305.67101699999705,"velocity":0.6771653543307087,"duration":0.09070130416665734},{"name":"C#5","midi":73,"time":305.67101699999705,"velocity":0.6771653543307087,"duration":0.09070130416665734},{"name":"C4","midi":60,"time":305.85394399999706,"velocity":0.7165354330708661,"duration":0.09070130416665734},{"name":"D#4","midi":63,"time":305.85394399999706,"velocity":0.7165354330708661,"duration":0.09070130416665734},{"name":"C5","midi":72,"time":305.85394399999706,"velocity":0.7165354330708661,"duration":0.09070130416665734},{"name":"C5","midi":72,"time":306.03687099999706,"velocity":0.7559055118110236,"duration":0.09070130416665734},{"name":"D#5","midi":75,"time":306.03687099999706,"velocity":0.7559055118110236,"duration":0.09070130416665734},{"name":"C6","midi":84,"time":306.03687099999706,"velocity":0.7559055118110236,"duration":0.09070130416665734},{"name":"C5","midi":72,"time":306.21979799999707,"velocity":0.7559055118110236,"duration":0.09070130416665734},{"name":"D#5","midi":75,"time":306.21979799999707,"velocity":0.7559055118110236,"duration":0.09070130416665734},{"name":"C6","midi":84,"time":306.21979799999707,"velocity":0.7559055118110236,"duration":0.09070130416665734},{"name":"C5","midi":72,"time":306.4027249999971,"velocity":0.7559055118110236,"duration":0.09070130416665734},{"name":"D#5","midi":75,"time":306.4027249999971,"velocity":0.7559055118110236,"duration":0.09070130416665734},{"name":"C6","midi":84,"time":306.4027249999971,"velocity":0.7559055118110236,"duration":0.09070130416665734},{"name":"C5","midi":72,"time":306.5856519999971,"velocity":0.7559055118110236,"duration":0.09070130416665734},{"name":"D#5","midi":75,"time":306.5856519999971,"velocity":0.7559055118110236,"duration":0.09070130416665734},{"name":"C6","midi":84,"time":306.5856519999971,"velocity":0.7559055118110236,"duration":0.09070130416665734},{"name":"C5","midi":72,"time":306.7685789999971,"velocity":0.7559055118110236,"duration":0.09070130416665734},{"name":"D#5","midi":75,"time":306.7685789999971,"velocity":0.7559055118110236,"duration":0.09070130416665734},{"name":"C6","midi":84,"time":306.7685789999971,"velocity":0.7559055118110236,"duration":0.09070130416665734},{"name":"C#5","midi":73,"time":306.9515059999971,"velocity":0.7559055118110236,"duration":0.09070130416665734},{"name":"E5","midi":76,"time":306.9515059999971,"velocity":0.7559055118110236,"duration":0.09070130416665734},{"name":"C#6","midi":85,"time":306.9515059999971,"velocity":0.7559055118110236,"duration":0.09070130416665734},{"name":"D#5","midi":75,"time":307.1344329999971,"velocity":0.7559055118110236,"duration":0.09070130416665734},{"name":"F#5","midi":78,"time":307.1344329999971,"velocity":0.7559055118110236,"duration":0.09070130416665734},{"name":"D#6","midi":87,"time":307.1344329999971,"velocity":0.7559055118110236,"duration":0.09070130416665734},{"name":"E5","midi":76,"time":307.3173599999971,"velocity":0.7559055118110236,"duration":0.09070130416665734},{"name":"G#5","midi":80,"time":307.3173599999971,"velocity":0.7559055118110236,"duration":0.09070130416665734},{"name":"E6","midi":88,"time":307.3173599999971,"velocity":0.7559055118110236,"duration":0.09070130416665734},{"name":"G#5","midi":80,"time":307.5002869999971,"velocity":0.3858267716535433,"duration":0.09070130416665734},{"name":"C#6","midi":85,"time":307.5002869999971,"velocity":0.3858267716535433,"duration":0.09070130416665734},{"name":"G#5","midi":80,"time":307.6832139999971,"velocity":0.3858267716535433,"duration":0.182164804166689},{"name":"C#6","midi":85,"time":307.6832139999971,"velocity":0.3858267716535433,"duration":0.182164804166689},{"name":"E5","midi":76,"time":307.8661409999971,"velocity":0.3858267716535433,"duration":0.182164804166689},{"name":"G#5","midi":80,"time":307.8661409999971,"velocity":0.3858267716535433,"duration":0.182164804166689},{"name":"A5","midi":81,"time":308.23199499999714,"velocity":0.3858267716535433,"duration":0.09070130416665734},{"name":"C#6","midi":85,"time":308.23199499999714,"velocity":0.3858267716535433,"duration":0.09070130416665734},{"name":"A5","midi":81,"time":308.41492199999715,"velocity":0.3858267716535433,"duration":0.182164804166689},{"name":"C#6","midi":85,"time":308.41492199999715,"velocity":0.3858267716535433,"duration":0.182164804166689},{"name":"F#5","midi":78,"time":308.59784899999715,"velocity":0.3858267716535433,"duration":0.182164804166689},{"name":"A5","midi":81,"time":308.59784899999715,"velocity":0.3858267716535433,"duration":0.182164804166689},{"name":"E5","midi":76,"time":308.96370299999717,"velocity":0.3858267716535433,"duration":0.09070130416665734},{"name":"G#5","midi":80,"time":308.96370299999717,"velocity":0.3858267716535433,"duration":0.09070130416665734},{"name":"E5","midi":76,"time":309.1466299999972,"velocity":0.3858267716535433,"duration":0.182164804166689},{"name":"G#5","midi":80,"time":309.1466299999972,"velocity":0.3858267716535433,"duration":0.182164804166689},{"name":"C#5","midi":73,"time":309.3295569999972,"velocity":0.3858267716535433,"duration":0.182164804166689},{"name":"E5","midi":76,"time":309.3295569999972,"velocity":0.3858267716535433,"duration":0.182164804166689},{"name":"D#5","midi":75,"time":309.6954109999972,"velocity":0.3858267716535433,"duration":0.09070130416665734},{"name":"G#5","midi":80,"time":309.6954109999972,"velocity":0.3858267716535433,"duration":0.09070130416665734},{"name":"D#5","midi":75,"time":309.8783379999972,"velocity":0.3858267716535433,"duration":0.182164804166689},{"name":"G#5","midi":80,"time":309.8783379999972,"velocity":0.3858267716535433,"duration":0.182164804166689},{"name":"C5","midi":72,"time":310.0612649999972,"velocity":0.3858267716535433,"duration":0.182164804166689},{"name":"D#5","midi":75,"time":310.0612649999972,"velocity":0.3858267716535433,"duration":0.182164804166689},{"name":"C#5","midi":73,"time":310.4271189999972,"velocity":0.3858267716535433,"duration":0.09070130416665734},{"name":"G#5","midi":80,"time":310.4271189999972,"velocity":0.3858267716535433,"duration":0.09070130416665734},{"name":"C#5","midi":73,"time":310.6100459999972,"velocity":0.4015748031496063,"duration":0.182164804166689},{"name":"G#5","midi":80,"time":310.6100459999972,"velocity":0.4015748031496063,"duration":0.182164804166689},{"name":"G#4","midi":68,"time":310.79297299999723,"velocity":0.4094488188976378,"duration":0.182164804166689},{"name":"E5","midi":76,"time":310.79297299999723,"velocity":0.4094488188976378,"duration":0.182164804166689},{"name":"A4","midi":69,"time":311.15882699999725,"velocity":0.4330708661417323,"duration":0.09070130416665734},{"name":"F#5","midi":78,"time":311.15882699999725,"velocity":0.4330708661417323,"duration":0.09070130416665734},{"name":"A4","midi":69,"time":311.34175399999725,"velocity":0.4409448818897638,"duration":0.182164804166689},{"name":"F#5","midi":78,"time":311.34175399999725,"velocity":0.4409448818897638,"duration":0.182164804166689},{"name":"F#4","midi":66,"time":311.52468099999726,"velocity":0.44881889763779526,"duration":0.182164804166689},{"name":"D5","midi":74,"time":311.52468099999726,"velocity":0.44881889763779526,"duration":0.182164804166689},{"name":"G#4","midi":68,"time":311.89053499999727,"velocity":0.4645669291338583,"duration":0.09070130416665734},{"name":"E5","midi":76,"time":311.89053499999727,"velocity":0.4645669291338583,"duration":0.09070130416665734},{"name":"G#4","midi":68,"time":312.0734619999973,"velocity":0.48031496062992124,"duration":0.182164804166689},{"name":"E5","midi":76,"time":312.0734619999973,"velocity":0.48031496062992124,"duration":0.182164804166689},{"name":"E4","midi":64,"time":312.2563889999973,"velocity":0.4881889763779528,"duration":0.182164804166689},{"name":"C#5","midi":73,"time":312.2563889999973,"velocity":0.4881889763779528,"duration":0.182164804166689},{"name":"F#4","midi":66,"time":312.6222429999973,"velocity":0.44881889763779526,"duration":0.09070130416665734},{"name":"D#5","midi":75,"time":312.6222429999973,"velocity":0.44881889763779526,"duration":0.09070130416665734},{"name":"F#4","midi":66,"time":312.8051699999973,"velocity":0.4330708661417323,"duration":0.182164804166689},{"name":"D#5","midi":75,"time":312.8051699999973,"velocity":0.4330708661417323,"duration":0.182164804166689},{"name":"D#4","midi":63,"time":312.9880969999973,"velocity":0.4094488188976378,"duration":0.182164804166689},{"name":"C5","midi":72,"time":312.9880969999973,"velocity":0.4094488188976378,"duration":0.182164804166689},{"name":"E4","midi":64,"time":313.1710239999973,"velocity":0.3858267716535433,"duration":0.36509180416663867},{"name":"C#5","midi":73,"time":313.1710239999973,"velocity":0.3858267716535433,"duration":0.36509180416663867},{"name":"E4","midi":64,"time":314.2685859999973,"velocity":0.3858267716535433,"duration":0.27362830416666384},{"name":"C#4","midi":61,"time":314.5429764999973,"velocity":0.3858267716535433,"duration":0.09070130416665734},{"name":"C4","midi":60,"time":314.63443999999726,"velocity":0.3858267716535433,"duration":0.36509180416663867},{"name":"F#3","midi":54,"time":315.0002939999972,"velocity":0.3858267716535433,"duration":0.182164804166689},{"name":"C4","midi":60,"time":315.0002939999972,"velocity":0.3858267716535433,"duration":0.182164804166689},{"name":"G#4","midi":68,"time":315.0002939999972,"velocity":0.3858267716535433,"duration":0.182164804166689},{"name":"F#3","midi":54,"time":315.3661479999972,"velocity":0.3858267716535433,"duration":0.182164804166689},{"name":"C4","midi":60,"time":315.3661479999972,"velocity":0.3858267716535433,"duration":0.182164804166689},{"name":"G#4","midi":68,"time":315.3661479999972,"velocity":0.3858267716535433,"duration":0.182164804166689},{"name":"F#3","midi":54,"time":315.73200199999724,"velocity":0.3858267716535433,"duration":0.182164804166689},{"name":"C4","midi":60,"time":315.73200199999724,"velocity":0.3858267716535433,"duration":0.182164804166689},{"name":"G#4","midi":68,"time":315.73200199999724,"velocity":0.3858267716535433,"duration":0.182164804166689},{"name":"E3","midi":52,"time":316.09785599999725,"velocity":0.3858267716535433,"duration":0.0632622541666592},{"name":"C#4","midi":61,"time":316.1618804499972,"velocity":0.3858267716535433,"duration":0.0632622541666592},{"name":"G#4","midi":68,"time":316.2266670958306,"velocity":0.3858267716535433,"duration":0.9672265125000195},{"name":"E5","midi":76,"time":317.1954179999973,"velocity":0.3858267716535433,"duration":0.27362830416666384},{"name":"C#5","midi":73,"time":317.46980849999727,"velocity":0.3858267716535433,"duration":0.09070130416665734},{"name":"C5","midi":72,"time":317.56127199999725,"velocity":0.3858267716535433,"duration":0.36509180416663867},{"name":"F#4","midi":66,"time":317.9271259999972,"velocity":0.3858267716535433,"duration":0.182164804166689},{"name":"C5","midi":72,"time":317.9271259999972,"velocity":0.3858267716535433,"duration":0.182164804166689},{"name":"G#5","midi":80,"time":317.9271259999972,"velocity":0.3858267716535433,"duration":0.182164804166689},{"name":"F#4","midi":66,"time":318.2929799999972,"velocity":0.3858267716535433,"duration":0.182164804166689},{"name":"C5","midi":72,"time":318.2929799999972,"velocity":0.3858267716535433,"duration":0.182164804166689},{"name":"G#5","midi":80,"time":318.2929799999972,"velocity":0.3858267716535433,"duration":0.182164804166689},{"name":"F#4","midi":66,"time":318.6588339999972,"velocity":0.3858267716535433,"duration":0.182164804166689},{"name":"C5","midi":72,"time":318.6588339999972,"velocity":0.3858267716535433,"duration":0.182164804166689},{"name":"G#5","midi":80,"time":318.6588339999972,"velocity":0.3858267716535433,"duration":0.182164804166689},{"name":"E4","midi":64,"time":319.02468799999724,"velocity":0.3858267716535433,"duration":0.0632622541666592},{"name":"C#5","midi":73,"time":319.0887124499972,"velocity":0.3858267716535433,"duration":0.0632622541666592},{"name":"G#5","midi":80,"time":319.15349909583057,"velocity":0.3858267716535433,"duration":0.6013725125000065},{"name":"F#4","midi":66,"time":319.75639599999727,"velocity":0.3858267716535433,"duration":0.0632622541666592},{"name":"C5","midi":72,"time":319.82042044999724,"velocity":0.3858267716535433,"duration":0.0632622541666592},{"name":"G#5","midi":80,"time":319.8852070958306,"velocity":0.3858267716535433,"duration":0.6013725125000065},{"name":"E4","midi":64,"time":320.4881039999973,"velocity":0.3858267716535433,"duration":0.0632622541666592},{"name":"C#5","midi":73,"time":320.55212844999727,"velocity":0.3858267716535433,"duration":0.0632622541666592},{"name":"G#5","midi":80,"time":320.6169150958306,"velocity":0.3858267716535433,"duration":0.6013725125000065},{"name":"F#4","midi":66,"time":321.2198119999973,"velocity":0.3858267716535433,"duration":0.0632622541666592},{"name":"C5","midi":72,"time":321.2838364499973,"velocity":0.3858267716535433,"duration":0.0632622541666592},{"name":"G#5","midi":80,"time":321.34862309583065,"velocity":0.3858267716535433,"duration":0.6013725125000065},{"name":"E3","midi":52,"time":321.95151999999734,"velocity":0.3858267716535433,"duration":0.09070130416665734},{"name":"C#4","midi":61,"time":322.0429834999973,"velocity":0.4094488188976378,"duration":0.09070130416665734},{"name":"G#3","midi":56,"time":322.1344469999973,"velocity":0.41732283464566927,"duration":0.09070130416665734},{"name":"C#4","midi":61,"time":322.22591049999727,"velocity":0.4330708661417323,"duration":0.09070130416665734},{"name":"E3","midi":52,"time":322.31737399999724,"velocity":0.4409448818897638,"duration":0.09070130416665734},{"name":"C#4","midi":61,"time":322.4088374999972,"velocity":0.4566929133858268,"duration":0.09070130416665734},{"name":"G#3","midi":56,"time":322.5003009999972,"velocity":0.4645669291338583,"duration":0.09070130416665734},{"name":"C#4","midi":61,"time":322.59176449999717,"velocity":0.47244094488188976,"duration":0.09070130416665734},{"name":"E3","midi":52,"time":322.68322799999714,"velocity":0.4881889763779528,"duration":0.09070130416665734},{"name":"C#4","midi":61,"time":322.7746914999971,"velocity":0.49606299212598426,"duration":0.09070130416665734},{"name":"G#3","midi":56,"time":322.8661549999971,"velocity":0.5118110236220472,"duration":0.09070130416665734},{"name":"C#4","midi":61,"time":322.95761849999707,"velocity":0.5196850393700787,"duration":0.09070130416665734},{"name":"E3","midi":52,"time":323.04908199999704,"velocity":0.5354330708661418,"duration":0.09070130416665734},{"name":"C#4","midi":61,"time":323.140545499997,"velocity":0.5433070866141733,"duration":0.09070130416665734},{"name":"G#3","midi":56,"time":323.232008999997,"velocity":0.5511811023622047,"duration":0.09070130416665734},{"name":"C#4","midi":61,"time":323.32347249999697,"velocity":0.5669291338582677,"duration":0.09070130416665734},{"name":"C#3","midi":49,"time":323.41493599999694,"velocity":0.5748031496062992,"duration":0.09070130416665734},{"name":"F3","midi":53,"time":323.41493599999694,"velocity":0.5748031496062992,"duration":0.09070130416665734},{"name":"C#4","midi":61,"time":323.5063994999969,"velocity":0.5905511811023622,"duration":0.09070130416665734},{"name":"G#3","midi":56,"time":323.5978629999969,"velocity":0.5984251968503937,"duration":0.09070130416665734},{"name":"C#4","midi":61,"time":323.68932649999687,"velocity":0.6062992125984252,"duration":0.09070130416665734},{"name":"C#3","midi":49,"time":323.78078999999684,"velocity":0.6220472440944882,"duration":0.09070130416665734},{"name":"F3","midi":53,"time":323.78078999999684,"velocity":0.6220472440944882,"duration":0.09070130416665734},{"name":"C#4","midi":61,"time":323.8722534999968,"velocity":0.6299212598425197,"duration":0.09070130416665734},{"name":"G#3","midi":56,"time":323.9637169999968,"velocity":0.6456692913385826,"duration":0.09070130416665734},{"name":"C#4","midi":61,"time":324.05518049999677,"velocity":0.6535433070866141,"duration":0.09070130416665734},{"name":"C#3","midi":49,"time":324.14664399999674,"velocity":0.6692913385826772,"duration":0.09070130416665734},{"name":"F3","midi":53,"time":324.14664399999674,"velocity":0.6692913385826772,"duration":0.09070130416665734},{"name":"C#4","midi":61,"time":324.2381074999967,"velocity":0.6771653543307087,"duration":0.09070130416665734},{"name":"G#3","midi":56,"time":324.3295709999967,"velocity":0.6850393700787402,"duration":0.09070130416665734},{"name":"C#4","midi":61,"time":324.42103449999667,"velocity":0.7007874015748031,"duration":0.09070130416665734},{"name":"C#3","midi":49,"time":324.51249799999664,"velocity":0.7086614173228346,"duration":0.09070130416665734},{"name":"F3","midi":53,"time":324.51249799999664,"velocity":0.7086614173228346,"duration":0.09070130416665734},{"name":"C#4","midi":61,"time":324.6039614999966,"velocity":0.7244094488188977,"duration":0.09070130416665734},{"name":"G#3","midi":56,"time":324.6954249999966,"velocity":0.7322834645669292,"duration":0.09070130416665734},{"name":"C#4","midi":61,"time":324.78688849999656,"velocity":0.7480314960629921,"duration":0.09070130416665734},{"name":"C#3","midi":49,"time":324.87835199999654,"velocity":0.7559055118110236,"duration":0.09070130416665734},{"name":"F#3","midi":54,"time":324.87835199999654,"velocity":0.7559055118110236,"duration":0.09070130416665734},{"name":"A3","midi":57,"time":324.87835199999654,"velocity":0.7559055118110236,"duration":0.09070130416665734},{"name":"C#4","midi":61,"time":324.87835199999654,"velocity":0.7559055118110236,"duration":0.09070130416665734},{"name":"C#3","midi":49,"time":324.9698154999965,"velocity":0.3858267716535433,"duration":0.09070130416665734},{"name":"F#3","midi":54,"time":325.0612789999965,"velocity":0.3858267716535433,"duration":0.09070130416665734},{"name":"A3","midi":57,"time":325.15274249999646,"velocity":0.3858267716535433,"duration":0.09070130416665734},{"name":"C#4","midi":61,"time":325.24420599999644,"velocity":0.3858267716535433,"duration":0.09070130416665734},{"name":"F#3","midi":54,"time":325.3356694999964,"velocity":0.3858267716535433,"duration":0.09070130416665734},{"name":"A3","midi":57,"time":325.4271329999964,"velocity":0.3858267716535433,"duration":0.09070130416665734},{"name":"C#4","midi":61,"time":325.51859649999636,"velocity":0.3858267716535433,"duration":0.09070130416665734},{"name":"F#4","midi":66,"time":325.61005999999634,"velocity":0.3858267716535433,"duration":0.09070130416665734},{"name":"A3","midi":57,"time":325.7015234999963,"velocity":0.3858267716535433,"duration":0.09070130416665734},{"name":"C#4","midi":61,"time":325.7929869999963,"velocity":0.3858267716535433,"duration":0.09070130416665734},{"name":"F#4","midi":66,"time":325.88445049999626,"velocity":0.3858267716535433,"duration":0.09070130416665734},{"name":"A4","midi":69,"time":325.97591399999624,"velocity":0.3858267716535433,"duration":0.09070130416665734},{"name":"C#4","midi":61,"time":326.0673774999962,"velocity":0.3858267716535433,"duration":0.09070130416665734},{"name":"F#4","midi":66,"time":326.1588409999962,"velocity":0.3858267716535433,"duration":0.09070130416665734},{"name":"A4","midi":69,"time":326.25030449999616,"velocity":0.3858267716535433,"duration":0.09070130416665734},{"name":"C#5","midi":73,"time":326.34176799999614,"velocity":0.3858267716535433,"duration":0.09070130416665734},{"name":"F#4","midi":66,"time":326.4332314999961,"velocity":0.3858267716535433,"duration":0.09070130416665734},{"name":"A4","midi":69,"time":326.5246949999961,"velocity":0.3858267716535433,"duration":0.09070130416665734},{"name":"C#5","midi":73,"time":326.61615849999606,"velocity":0.3858267716535433,"duration":0.09070130416665734},{"name":"F#5","midi":78,"time":326.70762199999604,"velocity":0.3858267716535433,"duration":0.09070130416665734},{"name":"A4","midi":69,"time":326.799085499996,"velocity":0.3858267716535433,"duration":0.09070130416665734},{"name":"C#5","midi":73,"time":326.890548999996,"velocity":0.3858267716535433,"duration":0.09070130416665734},{"name":"F#5","midi":78,"time":326.98201249999596,"velocity":0.3858267716535433,"duration":0.09070130416665734},{"name":"A5","midi":81,"time":327.07347599999594,"velocity":0.3858267716535433,"duration":0.09070130416665734},{"name":"C#5","midi":73,"time":327.1649394999959,"velocity":0.3858267716535433,"duration":0.09070130416665734},{"name":"F#5","midi":78,"time":327.2564029999959,"velocity":0.3858267716535433,"duration":0.09070130416665734},{"name":"A5","midi":81,"time":327.34786649999586,"velocity":0.3858267716535433,"duration":0.09070130416665734},{"name":"C#5","midi":73,"time":327.43932999999583,"velocity":0.5039370078740157,"duration":0.09070130416665734},{"name":"F#5","midi":78,"time":327.43932999999583,"velocity":0.5039370078740157,"duration":0.09070130416665734},{"name":"A5","midi":81,"time":327.43932999999583,"velocity":0.5039370078740157,"duration":0.09070130416665734},{"name":"C#6","midi":85,"time":327.43932999999583,"velocity":0.5039370078740157,"duration":0.09070130416665734},{"name":"C#5","midi":73,"time":327.62225699999584,"velocity":0.3858267716535433,"duration":0.09070130416665734},{"name":"F#5","midi":78,"time":327.62225699999584,"velocity":0.3858267716535433,"duration":0.09070130416665734},{"name":"A5","midi":81,"time":327.62225699999584,"velocity":0.3858267716535433,"duration":0.09070130416665734},{"name":"C#6","midi":85,"time":327.62225699999584,"velocity":0.3858267716535433,"duration":0.09070130416665734},{"name":"C#3","midi":49,"time":327.8966474999958,"velocity":0.3858267716535433,"duration":0.09070130416665734},{"name":"E3","midi":52,"time":327.9881109999958,"velocity":0.3858267716535433,"duration":0.09070130416665734},{"name":"G#3","midi":56,"time":328.0795744999958,"velocity":0.3858267716535433,"duration":0.09070130416665734},{"name":"C#4","midi":61,"time":328.17103799999575,"velocity":0.3858267716535433,"duration":0.09070130416665734},{"name":"E3","midi":52,"time":328.2625014999957,"velocity":0.3858267716535433,"duration":0.09070130416665734},{"name":"G#3","midi":56,"time":328.3539649999957,"velocity":0.3858267716535433,"duration":0.09070130416665734},{"name":"C#4","midi":61,"time":328.44542849999567,"velocity":0.3858267716535433,"duration":0.09070130416665734},{"name":"E4","midi":64,"time":328.53689199999565,"velocity":0.3858267716535433,"duration":0.09070130416665734},{"name":"G#3","midi":56,"time":328.6283554999956,"velocity":0.3858267716535433,"duration":0.09070130416665734},{"name":"C#4","midi":61,"time":328.7198189999956,"velocity":0.3858267716535433,"duration":0.09070130416665734},{"name":"E4","midi":64,"time":328.81128249999557,"velocity":0.3858267716535433,"duration":0.09070130416665734},{"name":"G#4","midi":68,"time":328.90274599999555,"velocity":0.3858267716535433,"duration":0.09070130416665734},{"name":"C#4","midi":61,"time":328.9942094999955,"velocity":0.3858267716535433,"duration":0.09070130416665734},{"name":"E4","midi":64,"time":329.0856729999955,"velocity":0.3858267716535433,"duration":0.09070130416665734},{"name":"G#4","midi":68,"time":329.17713649999547,"velocity":0.3858267716535433,"duration":0.09070130416665734},{"name":"C#5","midi":73,"time":329.26859999999544,"velocity":0.3858267716535433,"duration":0.09070130416665734},{"name":"E4","midi":64,"time":329.3600634999954,"velocity":0.3858267716535433,"duration":0.09070130416665734},{"name":"G#4","midi":68,"time":329.4515269999954,"velocity":0.3858267716535433,"duration":0.09070130416665734},{"name":"C#5","midi":73,"time":329.54299049999537,"velocity":0.3858267716535433,"duration":0.09070130416665734},{"name":"E5","midi":76,"time":329.63445399999534,"velocity":0.3858267716535433,"duration":0.09070130416665734},{"name":"G#4","midi":68,"time":329.7259174999953,"velocity":0.3858267716535433,"duration":0.09070130416665734},{"name":"C#5","midi":73,"time":329.8173809999953,"velocity":0.3858267716535433,"duration":0.09070130416665734},{"name":"E5","midi":76,"time":329.90884449999527,"velocity":0.3858267716535433,"duration":0.09070130416665734},{"name":"G#5","midi":80,"time":330.00030799999524,"velocity":0.3858267716535433,"duration":0.09070130416665734},{"name":"C#5","midi":73,"time":330.0917714999952,"velocity":0.3858267716535433,"duration":0.09070130416665734},{"name":"E5","midi":76,"time":330.1832349999952,"velocity":0.3858267716535433,"duration":0.09070130416665734},{"name":"G#5","midi":80,"time":330.27469849999517,"velocity":0.3858267716535433,"duration":0.09070130416665734},{"name":"C#5","midi":73,"time":330.36616199999514,"velocity":0.5039370078740157,"duration":0.09070130416665734},{"name":"E5","midi":76,"time":330.36616199999514,"velocity":0.5039370078740157,"duration":0.09070130416665734},{"name":"G#5","midi":80,"time":330.36616199999514,"velocity":0.5039370078740157,"duration":0.09070130416665734},{"name":"C#6","midi":85,"time":330.36616199999514,"velocity":0.5039370078740157,"duration":0.09070130416665734},{"name":"C#5","midi":73,"time":330.54908899999515,"velocity":0.3858267716535433,"duration":0.09070130416665734},{"name":"E5","midi":76,"time":330.54908899999515,"velocity":0.3858267716535433,"duration":0.09070130416665734},{"name":"G#5","midi":80,"time":330.54908899999515,"velocity":0.3858267716535433,"duration":0.09070130416665734},{"name":"C#6","midi":85,"time":330.54908899999515,"velocity":0.3858267716535433,"duration":0.09070130416665734},{"name":"C#3","midi":49,"time":330.91494299999516,"velocity":0.8818897637795275,"duration":0.7309458041667085},{"name":"E3","midi":52,"time":330.9606747499952,"velocity":0.8818897637795275,"duration":0.6852140541666927},{"name":"G3","midi":55,"time":331.0064064999952,"velocity":0.8818897637795275,"duration":0.6394823041666768},{"name":"A#3","midi":58,"time":331.0521382499952,"velocity":0.8818897637795275,"duration":0.593750554166661},{"name":"C#4","midi":61,"time":331.0978699999952,"velocity":0.8818897637795275,"duration":0.5480188041666452},{"name":"C#4","midi":61,"time":331.6466509999952,"velocity":0.8818897637795275,"duration":0.7309458041667085},{"name":"E4","midi":64,"time":331.6923827499952,"velocity":0.8818897637795275,"duration":0.6852140541666927},{"name":"G4","midi":67,"time":331.7381144999952,"velocity":0.8818897637795275,"duration":0.6394823041666768},{"name":"A#4","midi":70,"time":331.78384624999524,"velocity":0.8818897637795275,"duration":0.593750554166661},{"name":"C#5","midi":73,"time":331.82957799999525,"velocity":0.8818897637795275,"duration":0.5480188041666452},{"name":"C#5","midi":73,"time":332.3783589999952,"velocity":0.8818897637795275,"duration":1.279726804166728},{"name":"E5","midi":76,"time":332.42409074999523,"velocity":0.8818897637795275,"duration":1.2339950541667122},{"name":"G5","midi":79,"time":332.46982249999525,"velocity":0.8818897637795275,"duration":1.1882633041666963},{"name":"A#5","midi":82,"time":332.51555424999526,"velocity":0.8818897637795275,"duration":1.1425315541666805},{"name":"C#6","midi":85,"time":332.5612859999953,"velocity":0.8818897637795275,"duration":1.0967998041666647},{"name":"A2","midi":45,"time":333.84177499999527,"velocity":0.8818897637795275,"duration":0.7309458041667085},{"name":"C3","midi":48,"time":333.8875067499953,"velocity":0.8818897637795275,"duration":0.6852140541666927},{"name":"D#3","midi":51,"time":333.9332384999953,"velocity":0.8818897637795275,"duration":0.6394823041666768},{"name":"F#3","midi":54,"time":333.9789702499953,"velocity":0.8818897637795275,"duration":0.593750554166661},{"name":"A3","midi":57,"time":334.02470199999533,"velocity":0.8818897637795275,"duration":0.5480188041666452},{"name":"A3","midi":57,"time":334.5734829999953,"velocity":0.8818897637795275,"duration":0.6394823041667337},{"name":"C4","midi":60,"time":334.6192147499953,"velocity":0.8818897637795275,"duration":0.5937505541667178},{"name":"D#4","midi":63,"time":334.6649464999953,"velocity":0.8818897637795275,"duration":0.548018804166702},{"name":"F#4","midi":66,"time":334.71067824999534,"velocity":0.8818897637795275,"duration":0.5022870541666862},{"name":"A4","midi":69,"time":334.75640999999536,"velocity":0.8818897637795275,"duration":0.45655530416667034},{"name":"A4","midi":69,"time":335.21372749999534,"velocity":0.8818897637795275,"duration":1.3711903041665892},{"name":"C5","midi":72,"time":335.3051909999953,"velocity":0.8818897637795275,"duration":1.2797268041666143},{"name":"D#5","midi":75,"time":335.3966544999953,"velocity":0.8818897637795275,"duration":1.1882633041666395},{"name":"A5","midi":81,"time":335.48811799999527,"velocity":0.8818897637795275,"duration":1.0967998041666647},{"name":"G#4","midi":68,"time":336.6771434999952,"velocity":0.3858267716535433,"duration":0.09070130416665734},{"name":"E4","midi":64,"time":336.7686069999952,"velocity":0.3858267716535433,"duration":0.09070130416665734},{"name":"G#4","midi":68,"time":336.8600704999952,"velocity":0.3858267716535433,"duration":0.09070130416665734},{"name":"C#4","midi":61,"time":336.95153399999515,"velocity":0.3858267716535433,"duration":0.09070130416665734},{"name":"G#4","midi":68,"time":337.0429974999951,"velocity":0.3858267716535433,"duration":0.09070130416665734},{"name":"E4","midi":64,"time":337.1344609999951,"velocity":0.3858267716535433,"duration":0.09070130416665734},{"name":"G#4","midi":68,"time":337.2259244999951,"velocity":0.3858267716535433,"duration":0.09070130416665734},{"name":"C#4","midi":61,"time":337.31738799999505,"velocity":0.3858267716535433,"duration":0.09070130416665734},{"name":"G#4","midi":68,"time":337.408851499995,"velocity":0.3858267716535433,"duration":0.09070130416665734},{"name":"E4","midi":64,"time":337.500314999995,"velocity":0.3858267716535433,"duration":0.09070130416665734},{"name":"G#4","midi":68,"time":337.591778499995,"velocity":0.3858267716535433,"duration":0.09070130416665734},{"name":"C#4","midi":61,"time":337.68324199999495,"velocity":0.3858267716535433,"duration":0.09070130416665734},{"name":"G#4","midi":68,"time":337.7747054999949,"velocity":0.3858267716535433,"duration":0.09070130416665734},{"name":"E4","midi":64,"time":337.8661689999949,"velocity":0.3858267716535433,"duration":0.09070130416665734},{"name":"G#4","midi":68,"time":337.9576324999949,"velocity":0.3858267716535433,"duration":0.09070130416665734},{"name":"D#4","midi":63,"time":338.04909599999485,"velocity":0.3858267716535433,"duration":0.09070130416665734},{"name":"G#4","midi":68,"time":338.1405594999948,"velocity":0.3858267716535433,"duration":0.09070130416665734},{"name":"F#4","midi":66,"time":338.2320229999948,"velocity":0.3858267716535433,"duration":0.09070130416665734},{"name":"G#4","midi":68,"time":338.3234864999948,"velocity":0.3858267716535433,"duration":0.09070130416665734},{"name":"D#4","midi":63,"time":338.41494999999475,"velocity":0.3858267716535433,"duration":0.09070130416665734},{"name":"G#4","midi":68,"time":338.5064134999947,"velocity":0.3858267716535433,"duration":0.09070130416665734},{"name":"F#4","midi":66,"time":338.5978769999947,"velocity":0.3858267716535433,"duration":0.09070130416665734},{"name":"G#4","midi":68,"time":338.68934049999467,"velocity":0.3858267716535433,"duration":0.09070130416665734},{"name":"D#4","midi":63,"time":338.78080399999465,"velocity":0.3858267716535433,"duration":0.09070130416665734},{"name":"G#4","midi":68,"time":338.8722674999946,"velocity":0.3858267716535433,"duration":0.09070130416665734},{"name":"F#4","midi":66,"time":338.9637309999946,"velocity":0.3858267716535433,"duration":0.09070130416665734},{"name":"G#4","midi":68,"time":339.05519449999457,"velocity":0.3858267716535433,"duration":0.09070130416665734},{"name":"D#4","midi":63,"time":339.14665799999455,"velocity":0.3858267716535433,"duration":0.09070130416665734},{"name":"G#4","midi":68,"time":339.2381214999945,"velocity":0.3858267716535433,"duration":0.09070130416665734},{"name":"F#4","midi":66,"time":339.3295849999945,"velocity":0.3858267716535433,"duration":0.09070130416665734},{"name":"G#4","midi":68,"time":339.42104849999447,"velocity":0.3858267716535433,"duration":0.09070130416665734},{"name":"C#4","midi":61,"time":339.51251199999444,"velocity":0.3858267716535433,"duration":0.09070130416665734},{"name":"G#4","midi":68,"time":339.6039754999944,"velocity":0.3858267716535433,"duration":0.09070130416665734},{"name":"E4","midi":64,"time":339.6954389999944,"velocity":0.3858267716535433,"duration":0.09070130416665734},{"name":"G#4","midi":68,"time":339.78690249999437,"velocity":0.3858267716535433,"duration":0.09070130416665734},{"name":"C#4","midi":61,"time":339.87836599999434,"velocity":0.3858267716535433,"duration":0.09070130416665734},{"name":"G#4","midi":68,"time":339.9698294999943,"velocity":0.3858267716535433,"duration":0.09070130416665734},{"name":"E4","midi":64,"time":340.0612929999943,"velocity":0.3858267716535433,"duration":0.09070130416665734},{"name":"G#4","midi":68,"time":340.15275649999427,"velocity":0.3858267716535433,"duration":0.09070130416665734},{"name":"C#4","midi":61,"time":340.24421999999424,"velocity":0.3858267716535433,"duration":0.09070130416665734},{"name":"G#4","midi":68,"time":340.3356834999942,"velocity":0.3858267716535433,"duration":0.09070130416665734},{"name":"E4","midi":64,"time":340.4271469999942,"velocity":0.3858267716535433,"duration":0.09070130416665734},{"name":"G#4","midi":68,"time":340.51861049999417,"velocity":0.3858267716535433,"duration":0.09070130416665734},{"name":"C#4","midi":61,"time":340.61007399999414,"velocity":0.3858267716535433,"duration":0.09070130416665734},{"name":"G#4","midi":68,"time":340.7015374999941,"velocity":0.3858267716535433,"duration":0.09070130416665734},{"name":"E4","midi":64,"time":340.7930009999941,"velocity":0.3858267716535433,"duration":0.09070130416665734},{"name":"G#4","midi":68,"time":340.88446449999407,"velocity":0.3858267716535433,"duration":0.09070130416665734},{"name":"C4","midi":60,"time":340.97592799999404,"velocity":0.3858267716535433,"duration":0.09070130416665734},{"name":"G#4","midi":68,"time":341.067391499994,"velocity":0.3858267716535433,"duration":0.09070130416665734},{"name":"F#4","midi":66,"time":341.158854999994,"velocity":0.3858267716535433,"duration":0.09070130416665734},{"name":"G#4","midi":68,"time":341.25031849999397,"velocity":0.3858267716535433,"duration":0.09070130416665734},{"name":"C4","midi":60,"time":341.34178199999394,"velocity":0.3858267716535433,"duration":0.09070130416665734},{"name":"G#4","midi":68,"time":341.4332454999939,"velocity":0.3858267716535433,"duration":0.09070130416665734},{"name":"F#4","midi":66,"time":341.5247089999939,"velocity":0.3858267716535433,"duration":0.09070130416665734},{"name":"G#4","midi":68,"time":341.61617249999387,"velocity":0.3858267716535433,"duration":0.09070130416665734},{"name":"C4","midi":60,"time":341.70763599999384,"velocity":0.3858267716535433,"duration":0.09070130416665734},{"name":"G#4","midi":68,"time":341.7990994999938,"velocity":0.3858267716535433,"duration":0.09070130416665734},{"name":"F#4","midi":66,"time":341.8905629999938,"velocity":0.3858267716535433,"duration":0.09070130416665734},{"name":"G#4","midi":68,"time":341.98202649999376,"velocity":0.3858267716535433,"duration":0.09070130416665734},{"name":"C4","midi":60,"time":342.07348999999374,"velocity":0.3858267716535433,"duration":0.09070130416665734},{"name":"G#4","midi":68,"time":342.1649534999937,"velocity":0.3858267716535433,"duration":0.09070130416665734},{"name":"F#4","midi":66,"time":342.2564169999937,"velocity":0.3858267716535433,"duration":0.09070130416665734},{"name":"G#4","midi":68,"time":342.34788049999366,"velocity":0.3858267716535433,"duration":0.09070130416665734},{"name":"C#4","midi":61,"time":342.43934399999364,"velocity":0.3858267716535433,"duration":0.182164804166689},{"name":"E4","midi":64,"time":342.43934399999364,"velocity":0.3858267716535433,"duration":0.182164804166689},{"name":"G#4","midi":68,"time":342.43934399999364,"velocity":0.3858267716535433,"duration":0.182164804166689},{"name":"G#4","midi":68,"time":342.80519799999365,"velocity":0.3858267716535433,"duration":0.7309458041666517},{"name":"G#5","midi":80,"time":342.80519799999365,"velocity":0.3858267716535433,"duration":0.7309458041666517},{"name":"E4","midi":64,"time":343.5369059999936,"velocity":0.3858267716535433,"duration":0.27362830416666384},{"name":"E5","midi":76,"time":343.5369059999936,"velocity":0.3858267716535433,"duration":0.27362830416666384},{"name":"C#4","midi":61,"time":343.8112964999936,"velocity":0.3858267716535433,"duration":0.09070130416665734},{"name":"C#5","midi":73,"time":343.8112964999936,"velocity":0.3858267716535433,"duration":0.09070130416665734},{"name":"C#4","midi":61,"time":343.9027599999936,"velocity":0.3858267716535433,"duration":0.36509180416663867},{"name":"C#5","midi":73,"time":343.9027599999936,"velocity":0.3858267716535433,"duration":0.36509180416663867},{"name":"C4","midi":60,"time":344.26861399999353,"velocity":0.3858267716535433,"duration":0.5480188041666452},{"name":"C5","midi":72,"time":344.26861399999353,"velocity":0.3858267716535433,"duration":0.5480188041666452},{"name":"C4","midi":60,"time":344.8173949999935,"velocity":0.3858267716535433,"duration":0.182164804166689},{"name":"C5","midi":72,"time":344.8173949999935,"velocity":0.3858267716535433,"duration":0.182164804166689},{"name":"G#4","midi":68,"time":345.0003219999935,"velocity":0.3858267716535433,"duration":0.27362830416666384},{"name":"G#5","midi":80,"time":345.0003219999935,"velocity":0.3858267716535433,"duration":0.27362830416666384},{"name":"C4","midi":60,"time":345.2747124999935,"velocity":0.3858267716535433,"duration":0.09070130416665734},{"name":"C5","midi":72,"time":345.2747124999935,"velocity":0.3858267716535433,"duration":0.09070130416665734},{"name":"D#4","midi":63,"time":345.36617599999346,"velocity":0.3858267716535433,"duration":0.36509180416663867},{"name":"D#5","midi":75,"time":345.36617599999346,"velocity":0.3858267716535433,"duration":0.36509180416663867},{"name":"C#4","midi":61,"time":345.7320299999934,"velocity":0.3858267716535433,"duration":0.5480188041666452},{"name":"C#5","midi":73,"time":345.7320299999934,"velocity":0.3858267716535433,"duration":0.5480188041666452},{"name":"C#4","midi":61,"time":346.2808109999934,"velocity":0.3858267716535433,"duration":0.182164804166689},{"name":"C#5","midi":73,"time":346.2808109999934,"velocity":0.3858267716535433,"duration":0.182164804166689},{"name":"G#4","midi":68,"time":346.4637379999934,"velocity":0.3858267716535433,"duration":0.27362830416666384},{"name":"G#5","midi":80,"time":346.4637379999934,"velocity":0.3858267716535433,"duration":0.27362830416666384},{"name":"C#4","midi":61,"time":346.73812849999337,"velocity":0.3858267716535433,"duration":0.09070130416665734},{"name":"C#5","midi":73,"time":346.73812849999337,"velocity":0.3858267716535433,"duration":0.09070130416665734},{"name":"E4","midi":64,"time":346.82959199999334,"velocity":0.3858267716535433,"duration":0.36509180416663867},{"name":"E5","midi":76,"time":346.82959199999334,"velocity":0.3858267716535433,"duration":0.36509180416663867},{"name":"D#4","midi":63,"time":347.1954459999933,"velocity":0.3858267716535433,"duration":0.5480188041666452},{"name":"D#5","midi":75,"time":347.1954459999933,"velocity":0.3858267716535433,"duration":0.5480188041666452},{"name":"D#4","midi":63,"time":347.74422699999326,"velocity":0.3858267716535433,"duration":0.182164804166689},{"name":"D#5","midi":75,"time":347.74422699999326,"velocity":0.3858267716535433,"duration":0.182164804166689},{"name":"G#4","midi":68,"time":347.92715399999327,"velocity":0.3858267716535433,"duration":0.27362830416666384},{"name":"G#5","midi":80,"time":347.92715399999327,"velocity":0.3858267716535433,"duration":0.27362830416666384},{"name":"D#4","midi":63,"time":348.20154449999325,"velocity":0.3858267716535433,"duration":0.09070130416665734},{"name":"D#5","midi":75,"time":348.20154449999325,"velocity":0.3858267716535433,"duration":0.09070130416665734},{"name":"F#4","midi":66,"time":348.2930079999932,"velocity":0.3858267716535433,"duration":0.182164804166689},{"name":"F#5","midi":78,"time":348.2930079999932,"velocity":0.3858267716535433,"duration":0.182164804166689},{"name":"E4","midi":64,"time":348.4759349999932,"velocity":0.4330708661417323,"duration":0.182164804166689},{"name":"E5","midi":76,"time":348.4759349999932,"velocity":0.4330708661417323,"duration":0.182164804166689},{"name":"C#5","midi":73,"time":348.65886199999323,"velocity":0.44881889763779526,"duration":0.09070130416665734},{"name":"C#6","midi":85,"time":348.65886199999323,"velocity":0.44881889763779526,"duration":0.09070130416665734},{"name":"E4","midi":64,"time":348.84178899999324,"velocity":0.47244094488188976,"duration":0.09070130416665734},{"name":"E5","midi":76,"time":348.84178899999324,"velocity":0.47244094488188976,"duration":0.09070130416665734},{"name":"F#4","midi":66,"time":349.02471599999325,"velocity":0.49606299212598426,"duration":0.182164804166689},{"name":"F#5","midi":78,"time":349.02471599999325,"velocity":0.49606299212598426,"duration":0.182164804166689},{"name":"F4","midi":65,"time":349.20764299999325,"velocity":0.5196850393700787,"duration":0.182164804166689},{"name":"F5","midi":77,"time":349.20764299999325,"velocity":0.5196850393700787,"duration":0.182164804166689},{"name":"C#5","midi":73,"time":349.39056999999326,"velocity":0.5354330708661418,"duration":0.09070130416665734},{"name":"C#6","midi":85,"time":349.39056999999326,"velocity":0.5354330708661418,"duration":0.09070130416665734},{"name":"F4","midi":65,"time":349.57349699999327,"velocity":0.5590551181102362,"duration":0.09070130416665734},{"name":"F5","midi":77,"time":349.57349699999327,"velocity":0.5590551181102362,"duration":0.09070130416665734},{"name":"G#4","midi":68,"time":349.7564239999933,"velocity":0.5826771653543307,"duration":0.182164804166689},{"name":"G#5","midi":80,"time":349.7564239999933,"velocity":0.5826771653543307,"duration":0.182164804166689},{"name":"F#4","midi":66,"time":349.9393509999933,"velocity":0.6062992125984252,"duration":0.182164804166689},{"name":"F#5","midi":78,"time":349.9393509999933,"velocity":0.6062992125984252,"duration":0.182164804166689},{"name":"C#5","midi":73,"time":350.1222779999933,"velocity":0.6220472440944882,"duration":0.09070130416665734},{"name":"C#6","midi":85,"time":350.1222779999933,"velocity":0.6220472440944882,"duration":0.09070130416665734},{"name":"F#4","midi":66,"time":350.3052049999933,"velocity":0.6456692913385826,"duration":0.09070130416665734},{"name":"F#5","midi":78,"time":350.3052049999933,"velocity":0.6456692913385826,"duration":0.09070130416665734},{"name":"A4","midi":69,"time":350.4881319999933,"velocity":0.6692913385826772,"duration":0.182164804166689},{"name":"A5","midi":81,"time":350.4881319999933,"velocity":0.6692913385826772,"duration":0.182164804166689},{"name":"G#4","midi":68,"time":350.6710589999933,"velocity":0.6929133858267716,"duration":0.182164804166689},{"name":"G#5","midi":80,"time":350.6710589999933,"velocity":0.6929133858267716,"duration":0.182164804166689},{"name":"C#5","midi":73,"time":350.8539859999933,"velocity":0.7086614173228346,"duration":0.09070130416665734},{"name":"C#6","midi":85,"time":350.8539859999933,"velocity":0.7086614173228346,"duration":0.09070130416665734},{"name":"G#4","midi":68,"time":351.0369129999933,"velocity":0.7322834645669292,"duration":0.09070130416665734},{"name":"G#5","midi":80,"time":351.0369129999933,"velocity":0.7322834645669292,"duration":0.09070130416665734},{"name":"A5","midi":81,"time":351.2198399999933,"velocity":0.7559055118110236,"duration":0.12118913749998228},{"name":"F#5","midi":78,"time":351.3417913333266,"velocity":0.7559055118110236,"duration":0.12118913749998228},{"name":"C#5","midi":73,"time":351.4637426666599,"velocity":0.7559055118110236,"duration":0.12118913749998228},{"name":"A4","midi":69,"time":351.5856939999932,"velocity":0.7559055118110236,"duration":0.12118913749998228},{"name":"F#4","midi":66,"time":351.7076453333265,"velocity":0.7559055118110236,"duration":0.12118913749998228},{"name":"C#4","midi":61,"time":351.8295966666598,"velocity":0.7559055118110236,"duration":0.12118913749998228},{"name":"A4","midi":69,"time":351.9515479999931,"velocity":0.7559055118110236,"duration":0.12118913749998228},{"name":"F#4","midi":66,"time":352.0734993333264,"velocity":0.7559055118110236,"duration":0.12118913749998228},{"name":"C#4","midi":61,"time":352.1954506666597,"velocity":0.7559055118110236,"duration":0.12118913749998228},{"name":"A3","midi":57,"time":352.317401999993,"velocity":0.7559055118110236,"duration":0.12118913749998228},{"name":"F#3","midi":54,"time":352.4393533333263,"velocity":0.7559055118110236,"duration":0.12118913749998228},{"name":"C#3","midi":49,"time":352.5613046666596,"velocity":0.7559055118110236,"duration":0.12118913749998228},{"name":"A3","midi":57,"time":352.6832559999929,"velocity":0.7559055118110236,"duration":0.09070130416665734},{"name":"F#3","midi":54,"time":352.7747194999929,"velocity":0.7559055118110236,"duration":0.09070130416665734},{"name":"C#3","midi":49,"time":352.8661829999929,"velocity":0.7559055118110236,"duration":0.09070130416665734},{"name":"A2","midi":45,"time":352.95764649999285,"velocity":0.7559055118110236,"duration":0.09070130416665734},{"name":"C#3","midi":49,"time":353.0491099999928,"velocity":0.7559055118110236,"duration":0.09070130416665734},{"name":"F#3","midi":54,"time":353.1405734999928,"velocity":0.7559055118110236,"duration":0.09070130416665734},{"name":"A3","midi":57,"time":353.2320369999928,"velocity":0.7559055118110236,"duration":0.09070130416665734},{"name":"C#4","midi":61,"time":353.32350049999275,"velocity":0.7559055118110236,"duration":0.09070130416665734},{"name":"F#4","midi":66,"time":353.4149639999927,"velocity":0.7559055118110236,"duration":0.09070130416665734},{"name":"A4","midi":69,"time":353.5064274999927,"velocity":0.7559055118110236,"duration":0.09070130416665734},{"name":"C#5","midi":73,"time":353.59789099999267,"velocity":0.7559055118110236,"duration":0.09070130416665734},{"name":"F#5","midi":78,"time":353.68935449999265,"velocity":0.7559055118110236,"duration":0.09070130416665734},{"name":"A5","midi":81,"time":353.7808179999926,"velocity":0.7559055118110236,"duration":0.09070130416665734},{"name":"F#5","midi":78,"time":353.8722814999926,"velocity":0.7559055118110236,"duration":0.09070130416665734},{"name":"C#5","midi":73,"time":353.96374499999257,"velocity":0.7559055118110236,"duration":0.09070130416665734},{"name":"A4","midi":69,"time":354.05520849999255,"velocity":0.7559055118110236,"duration":0.09070130416665734},{"name":"A5","midi":81,"time":354.1466719999925,"velocity":0.7559055118110236,"duration":0.12118913749998228},{"name":"F#5","midi":78,"time":354.2686233333258,"velocity":0.7559055118110236,"duration":0.12118913749998228},{"name":"D5","midi":74,"time":354.3905746666591,"velocity":0.7559055118110236,"duration":0.12118913749998228},{"name":"A4","midi":69,"time":354.5125259999924,"velocity":0.7559055118110236,"duration":0.12118913749998228},{"name":"F#4","midi":66,"time":354.6344773333257,"velocity":0.7559055118110236,"duration":0.12118913749998228},{"name":"D4","midi":62,"time":354.756428666659,"velocity":0.7559055118110236,"duration":0.12118913749998228},{"name":"A4","midi":69,"time":354.8783799999923,"velocity":0.7559055118110236,"duration":0.12118913749998228},{"name":"F#4","midi":66,"time":355.0003313333256,"velocity":0.7559055118110236,"duration":0.12118913749998228},{"name":"D4","midi":62,"time":355.1222826666589,"velocity":0.7559055118110236,"duration":0.12118913749998228},{"name":"A3","midi":57,"time":355.2442339999922,"velocity":0.7559055118110236,"duration":0.12118913749998228},{"name":"F#3","midi":54,"time":355.3661853333255,"velocity":0.7559055118110236,"duration":0.12118913749998228},{"name":"D3","midi":50,"time":355.4881366666588,"velocity":0.7559055118110236,"duration":0.12118913749998228},{"name":"A3","midi":57,"time":355.6100879999921,"velocity":0.7559055118110236,"duration":0.09070130416665734},{"name":"F#3","midi":54,"time":355.7015514999921,"velocity":0.7559055118110236,"duration":0.09070130416665734},{"name":"D3","midi":50,"time":355.79301499999207,"velocity":0.7559055118110236,"duration":0.09070130416665734},{"name":"A2","midi":45,"time":355.88447849999204,"velocity":0.7559055118110236,"duration":0.09070130416665734},{"name":"D3","midi":50,"time":355.975941999992,"velocity":0.7559055118110236,"duration":0.09070130416665734},{"name":"F#3","midi":54,"time":356.067405499992,"velocity":0.7559055118110236,"duration":0.09070130416665734},{"name":"A3","midi":57,"time":356.15886899999197,"velocity":0.7559055118110236,"duration":0.09070130416665734},{"name":"D4","midi":62,"time":356.25033249999194,"velocity":0.7559055118110236,"duration":0.09070130416665734},{"name":"F#4","midi":66,"time":356.3417959999919,"velocity":0.7559055118110236,"duration":0.09070130416665734},{"name":"A4","midi":69,"time":356.4332594999919,"velocity":0.7559055118110236,"duration":0.09070130416665734},{"name":"D5","midi":74,"time":356.52472299999187,"velocity":0.7559055118110236,"duration":0.09070130416665734},{"name":"F#5","midi":78,"time":356.61618649999184,"velocity":0.7559055118110236,"duration":0.09070130416665734},{"name":"A5","midi":81,"time":356.7076499999918,"velocity":0.7559055118110236,"duration":0.09070130416665734},{"name":"F#5","midi":78,"time":356.7991134999918,"velocity":0.7559055118110236,"duration":0.09070130416665734},{"name":"D5","midi":74,"time":356.89057699999177,"velocity":0.7559055118110236,"duration":0.09070130416665734},{"name":"A4","midi":69,"time":356.98204049999174,"velocity":0.7559055118110236,"duration":0.09070130416665734},{"name":"C#6","midi":85,"time":357.0735039999917,"velocity":0.7559055118110236,"duration":0.12118913749998228},{"name":"A#5","midi":82,"time":357.195455333325,"velocity":0.7559055118110236,"duration":0.12118913749998228},{"name":"G5","midi":79,"time":357.3174066666583,"velocity":0.7559055118110236,"duration":0.12118913749998228},{"name":"E5","midi":76,"time":357.4393579999916,"velocity":0.7559055118110236,"duration":0.12118913749998228},{"name":"C#5","midi":73,"time":357.5613093333249,"velocity":0.7559055118110236,"duration":0.12118913749998228},{"name":"A#4","midi":70,"time":357.6832606666582,"velocity":0.7559055118110236,"duration":0.12118913749998228},{"name":"E5","midi":76,"time":357.8052119999915,"velocity":0.7559055118110236,"duration":0.12118913749998228},{"name":"C#5","midi":73,"time":357.9271633333248,"velocity":0.7559055118110236,"duration":0.12118913749998228},{"name":"A#4","midi":70,"time":358.0491146666581,"velocity":0.7559055118110236,"duration":0.12118913749998228},{"name":"G4","midi":67,"time":358.1710659999914,"velocity":0.7559055118110236,"duration":0.09070130416665734},{"name":"E4","midi":64,"time":358.2625294999914,"velocity":0.7559055118110236,"duration":0.09070130416665734},{"name":"C#4","midi":61,"time":358.35399299999136,"velocity":0.7559055118110236,"duration":0.09070130416665734},{"name":"A#3","midi":58,"time":358.44545649999134,"velocity":0.7559055118110236,"duration":0.09070130416665734},{"name":"E4","midi":64,"time":358.5369199999913,"velocity":0.7559055118110236,"duration":0.09070130416665734},{"name":"C#4","midi":61,"time":358.6283834999913,"velocity":0.7559055118110236,"duration":0.09070130416665734},{"name":"A#3","midi":58,"time":358.71984699999126,"velocity":0.7559055118110236,"duration":0.09070130416665734},{"name":"G3","midi":55,"time":358.81131049999124,"velocity":0.7559055118110236,"duration":0.09070130416665734},{"name":"E3","midi":52,"time":358.9027739999912,"velocity":0.7559055118110236,"duration":0.09070130416665734},{"name":"C#3","midi":49,"time":358.9942374999912,"velocity":0.7559055118110236,"duration":0.09070130416665734},{"name":"E3","midi":52,"time":359.08570099999116,"velocity":0.7559055118110236,"duration":0.09070130416665734},{"name":"G3","midi":55,"time":359.17716449999114,"velocity":0.7559055118110236,"duration":0.09070130416665734},{"name":"A#3","midi":58,"time":359.2686279999911,"velocity":0.7559055118110236,"duration":0.060213470833332394},{"name":"C#4","midi":61,"time":359.32960366665776,"velocity":0.7559055118110236,"duration":0.060213470833332394},{"name":"E4","midi":64,"time":359.3905793333244,"velocity":0.7559055118110236,"duration":0.060213470833332394},{"name":"G4","midi":67,"time":359.45155499999106,"velocity":0.7559055118110236,"duration":0.060213470833332394},{"name":"A#4","midi":70,"time":359.5125306666577,"velocity":0.7559055118110236,"duration":0.060213470833332394},{"name":"C#5","midi":73,"time":359.57350633332436,"velocity":0.7559055118110236,"duration":0.060213470833332394},{"name":"E5","midi":76,"time":359.634481999991,"velocity":0.7559055118110236,"duration":0.060213470833332394},{"name":"G5","midi":79,"time":359.69545766665766,"velocity":0.7559055118110236,"duration":0.060213470833332394},{"name":"A#5","midi":82,"time":359.7564333333243,"velocity":0.7559055118110236,"duration":0.060213470833332394},{"name":"C#6","midi":85,"time":359.81740899999096,"velocity":0.7559055118110236,"duration":0.060213470833332394},{"name":"A#5","midi":82,"time":359.8783846666576,"velocity":0.7559055118110236,"duration":0.060213470833332394},{"name":"E5","midi":76,"time":359.93936033332426,"velocity":0.7559055118110236,"duration":0.060213470833332394},{"name":"E6","midi":88,"time":360.0003359999909,"velocity":0.7559055118110236,"duration":0.12118913749998228},{"name":"C#6","midi":85,"time":360.1222873333242,"velocity":0.7559055118110236,"duration":0.12118913749998228},{"name":"G#5","midi":80,"time":360.2442386666575,"velocity":0.7559055118110236,"duration":0.12118913749998228},{"name":"E5","midi":76,"time":360.3661899999908,"velocity":0.7559055118110236,"duration":0.12118913749998228},{"name":"C#5","midi":73,"time":360.4881413333241,"velocity":0.7559055118110236,"duration":0.12118913749998228},{"name":"G#4","midi":68,"time":360.6100926666574,"velocity":0.7559055118110236,"duration":0.12118913749998228},{"name":"E5","midi":76,"time":360.7320439999907,"velocity":0.7559055118110236,"duration":0.12118913749998228},{"name":"C#5","midi":73,"time":360.853995333324,"velocity":0.7559055118110236,"duration":0.12118913749998228},{"name":"G#4","midi":68,"time":360.9759466666573,"velocity":0.7559055118110236,"duration":0.12118913749998228},{"name":"E4","midi":64,"time":361.0978979999906,"velocity":0.7559055118110236,"duration":0.09070130416665734},{"name":"C#5","midi":73,"time":361.1893614999906,"velocity":0.7559055118110236,"duration":0.09070130416665734},{"name":"G#4","midi":68,"time":361.28082499999056,"velocity":0.7559055118110236,"duration":0.09070130416665734},{"name":"E4","midi":64,"time":361.37228849999053,"velocity":0.7559055118110236,"duration":0.09070130416665734},{"name":"C#4","midi":61,"time":361.4637519999905,"velocity":0.7559055118110236,"duration":0.09070130416665734},{"name":"G#4","midi":68,"time":361.5552154999905,"velocity":0.7559055118110236,"duration":0.09070130416665734},{"name":"E4","midi":64,"time":361.64667899999046,"velocity":0.7559055118110236,"duration":0.09070130416665734},{"name":"C#4","midi":61,"time":361.73814249999043,"velocity":0.7559055118110236,"duration":0.09070130416665734},{"name":"G#3","midi":56,"time":361.8296059999904,"velocity":0.7559055118110236,"duration":0.09070130416665734},{"name":"E4","midi":64,"time":361.9210694999904,"velocity":0.7559055118110236,"duration":0.09070130416665734},{"name":"C#4","midi":61,"time":362.01253299999036,"velocity":0.7559055118110236,"duration":0.09070130416665734},{"name":"G#3","midi":56,"time":362.10399649999033,"velocity":0.7559055118110236,"duration":0.09070130416665734},{"name":"E3","midi":52,"time":362.1954599999903,"velocity":0.7559055118110236,"duration":0.09070130416665734},{"name":"C#4","midi":61,"time":362.2869234999903,"velocity":0.7559055118110236,"duration":0.09070130416665734},{"name":"G#3","midi":56,"time":362.37838699999025,"velocity":0.7559055118110236,"duration":0.09070130416665734},{"name":"E3","midi":52,"time":362.46985049999023,"velocity":0.7559055118110236,"duration":0.09070130416665734},{"name":"C#3","midi":49,"time":362.5613139999902,"velocity":0.7559055118110236,"duration":0.09070130416665734},{"name":"G#3","midi":56,"time":362.6527774999902,"velocity":0.7559055118110236,"duration":0.09070130416665734},{"name":"E3","midi":52,"time":362.74424099999015,"velocity":0.7559055118110236,"duration":0.09070130416665734},{"name":"C#3","midi":49,"time":362.83570449999013,"velocity":0.7559055118110236,"duration":0.09070130416665734},{"name":"G#2","midi":44,"time":362.9271679999901,"velocity":0.7559055118110236,"duration":0.09070130416665734},{"name":"A2","midi":45,"time":363.0186314999901,"velocity":0.7559055118110236,"duration":0.09070130416665734},{"name":"A#2","midi":46,"time":363.11009499999005,"velocity":0.7559055118110236,"duration":0.09070130416665734},{"name":"B2","midi":47,"time":363.20155849999,"velocity":0.7559055118110236,"duration":0.09070130416665734},{"name":"C3","midi":48,"time":363.29302199999,"velocity":0.7559055118110236,"duration":0.09070130416665734},{"name":"C#3","midi":49,"time":363.38448549999,"velocity":0.7559055118110236,"duration":0.09070130416665734},{"name":"D3","midi":50,"time":363.47594899998995,"velocity":0.7559055118110236,"duration":0.09070130416665734},{"name":"D#3","midi":51,"time":363.5674124999899,"velocity":0.7559055118110236,"duration":0.09070130416665734},{"name":"E3","midi":52,"time":363.6588759999899,"velocity":0.7559055118110236,"duration":0.09070130416665734},{"name":"F3","midi":53,"time":363.7503394999899,"velocity":0.7559055118110236,"duration":0.09070130416665734},{"name":"F#3","midi":54,"time":363.84180299998985,"velocity":0.7559055118110236,"duration":0.09070130416665734},{"name":"G3","midi":55,"time":363.9332664999898,"velocity":0.7559055118110236,"duration":0.09070130416665734},{"name":"G#3","midi":56,"time":364.0247299999898,"velocity":0.7559055118110236,"duration":0.09070130416665734},{"name":"A3","midi":57,"time":364.1161934999898,"velocity":0.7559055118110236,"duration":0.09070130416665734},{"name":"A#3","midi":58,"time":364.20765699998975,"velocity":0.7559055118110236,"duration":0.09070130416665734},{"name":"B3","midi":59,"time":364.2991204999897,"velocity":0.7559055118110236,"duration":0.09070130416665734},{"name":"C4","midi":60,"time":364.3905839999897,"velocity":0.7559055118110236,"duration":0.09070130416665734},{"name":"C#4","midi":61,"time":364.4820474999897,"velocity":0.7559055118110236,"duration":0.09070130416665734},{"name":"D4","midi":62,"time":364.57351099998965,"velocity":0.7559055118110236,"duration":0.09070130416665734},{"name":"D#4","midi":63,"time":364.6649744999896,"velocity":0.7559055118110236,"duration":0.09070130416665734},{"name":"E4","midi":64,"time":364.7564379999896,"velocity":0.7559055118110236,"duration":0.07240860416663963},{"name":"F4","midi":65,"time":364.82960879998956,"velocity":0.7559055118110236,"duration":0.07240860416663963},{"name":"F#4","midi":66,"time":364.9027795999895,"velocity":0.7559055118110236,"duration":0.07240860416663963},{"name":"G4","midi":67,"time":364.9759503999895,"velocity":0.7559055118110236,"duration":0.07240860416663963},{"name":"G#4","midi":68,"time":365.04912119998943,"velocity":0.7559055118110236,"duration":0.07240860416663963},{"name":"A4","midi":69,"time":365.1222919999894,"velocity":0.7559055118110236,"duration":0.07240860416663963},{"name":"A#4","midi":70,"time":365.19546279998934,"velocity":0.7559055118110236,"duration":0.07240860416663963},{"name":"B4","midi":71,"time":365.2686335999893,"velocity":0.7559055118110236,"duration":0.07240860416663963},{"name":"C5","midi":72,"time":365.34180439998926,"velocity":0.7559055118110236,"duration":0.07240860416663963},{"name":"C#5","midi":73,"time":365.4149751999892,"velocity":0.7559055118110236,"duration":0.07240860416663963},{"name":"D5","midi":74,"time":365.4881459999892,"velocity":0.7559055118110236,"duration":0.060213470833332394},{"name":"D#5","midi":75,"time":365.5491216666558,"velocity":0.7559055118110236,"duration":0.060213470833332394},{"name":"E5","midi":76,"time":365.61009733332247,"velocity":0.7559055118110236,"duration":0.060213470833332394},{"name":"F5","midi":77,"time":365.6710729999891,"velocity":0.7559055118110236,"duration":0.0449695541666415},{"name":"F#5","midi":78,"time":365.7168047499891,"velocity":0.7559055118110236,"duration":0.0449695541666415},{"name":"G5","midi":79,"time":365.76253649998904,"velocity":0.7559055118110236,"duration":0.0449695541666415},{"name":"G#5","midi":80,"time":365.808268249989,"velocity":0.7559055118110236,"duration":0.0449695541666415},{"name":"A5","midi":81,"time":365.85399999998896,"velocity":0.7559055118110236,"duration":0.04420735833332401},{"name":"B5","midi":83,"time":365.8989695541556,"velocity":0.7559055118110236,"duration":0.04420735833332401},{"name":"A5","midi":81,"time":365.9447013041556,"velocity":0.7559055118110236,"duration":0.04420735833332401},{"name":"B5","midi":83,"time":365.98967085832226,"velocity":0.7559055118110236,"duration":0.04420735833332401},{"name":"A5","midi":81,"time":366.0369269999889,"velocity":0.7559055118110236,"duration":0.04420735833332401},{"name":"B5","midi":83,"time":366.08189655415555,"velocity":0.7559055118110236,"duration":0.04420735833332401},{"name":"A5","midi":81,"time":366.12762830415556,"velocity":0.7559055118110236,"duration":0.04420735833332401},{"name":"B5","midi":83,"time":366.1725978583222,"velocity":0.7559055118110236,"duration":0.04420735833332401},{"name":"A5","midi":81,"time":366.21985399998886,"velocity":0.7559055118110236,"duration":0.04420735833332401},{"name":"B5","midi":83,"time":366.2648235541555,"velocity":0.7559055118110236,"duration":0.04420735833332401},{"name":"A5","midi":81,"time":366.3105553041555,"velocity":0.7559055118110236,"duration":0.04420735833332401},{"name":"B5","midi":83,"time":366.35552485832216,"velocity":0.7559055118110236,"duration":0.04420735833332401},{"name":"A5","midi":81,"time":366.4027809999888,"velocity":0.7559055118110236,"duration":0.04420735833332401},{"name":"B5","midi":83,"time":366.44775055415545,"velocity":0.7559055118110236,"duration":0.04420735833332401},{"name":"A5","midi":81,"time":366.49348230415546,"velocity":0.7559055118110236,"duration":0.04420735833332401},{"name":"B5","midi":83,"time":366.5384518583221,"velocity":0.7559055118110236,"duration":0.04420735833332401},{"name":"A5","midi":81,"time":366.58570799998876,"velocity":0.7559055118110236,"duration":0.04420735833332401},{"name":"B5","midi":83,"time":366.6306775541554,"velocity":0.7559055118110236,"duration":0.04420735833332401},{"name":"A5","midi":81,"time":366.6764093041554,"velocity":0.7559055118110236,"duration":0.04420735833332401},{"name":"B5","midi":83,"time":366.72137885832205,"velocity":0.7559055118110236,"duration":0.04420735833332401},{"name":"A5","midi":81,"time":366.7686349999887,"velocity":0.7559055118110236,"duration":0.04420735833332401},{"name":"B5","midi":83,"time":366.81360455415535,"velocity":0.7559055118110236,"duration":0.04420735833332401},{"name":"A5","midi":81,"time":366.85933630415536,"velocity":0.7559055118110236,"duration":0.04420735833332401},{"name":"B5","midi":83,"time":366.904305858322,"velocity":0.7559055118110236,"duration":0.04420735833332401},{"name":"A5","midi":81,"time":366.95156199998866,"velocity":0.7559055118110236,"duration":0.04420735833332401},{"name":"B5","midi":83,"time":366.9965315541553,"velocity":0.7559055118110236,"duration":0.04420735833332401},{"name":"A5","midi":81,"time":367.0422633041553,"velocity":0.7559055118110236,"duration":0.04420735833332401},{"name":"B5","midi":83,"time":367.08723285832195,"velocity":0.7559055118110236,"duration":0.04420735833332401},{"name":"A5","midi":81,"time":367.1344889999886,"velocity":0.7559055118110236,"duration":0.04420735833332401},{"name":"B5","midi":83,"time":367.17945855415525,"velocity":0.7559055118110236,"duration":0.04420735833332401},{"name":"A5","midi":81,"time":367.22519030415526,"velocity":0.7559055118110236,"duration":0.04420735833332401},{"name":"B5","midi":83,"time":367.2701598583219,"velocity":0.7559055118110236,"duration":0.04420735833332401},{"name":"G#5","midi":80,"time":367.31741599998855,"velocity":0.3858267716535433,"duration":0.182164804166689},{"name":"F#5","midi":78,"time":367.50034299998856,"velocity":0.3858267716535433,"duration":0.182164804166689},{"name":"E5","midi":76,"time":367.68326999998857,"velocity":0.3858267716535433,"duration":0.182164804166689},{"name":"D#5","midi":75,"time":367.8661969999886,"velocity":0.3779527559055118,"duration":0.182164804166689},{"name":"F#5","midi":78,"time":368.0491239999886,"velocity":0.3779527559055118,"duration":0.182164804166689},{"name":"C#5","midi":73,"time":368.2320509999886,"velocity":0.3700787401574803,"duration":0.182164804166689},{"name":"C5","midi":72,"time":368.4149779999886,"velocity":0.3700787401574803,"duration":0.182164804166689},{"name":"D#5","midi":75,"time":368.5979049999886,"velocity":0.36220472440944884,"duration":0.182164804166689},{"name":"A4","midi":69,"time":368.7808319999886,"velocity":0.36220472440944884,"duration":0.182164804166689},{"name":"G#4","midi":68,"time":368.9637589999886,"velocity":0.3543307086614173,"duration":0.182164804166689},{"name":"F#4","midi":66,"time":369.1466859999886,"velocity":0.3543307086614173,"duration":0.731708000000026},{"name":"A4","midi":69,"time":369.3296129999886,"velocity":0.3464566929133858,"duration":0.182164804166689},{"name":"E4","midi":64,"time":369.51253999998863,"velocity":0.3464566929133858,"duration":0.182164804166689},{"name":"D#4","midi":63,"time":369.69546699998864,"velocity":0.3858267716535433,"duration":0.182164804166689},{"name":"F#4","midi":66,"time":369.87839399998865,"velocity":0.3858267716535433,"duration":11.340711804166574},{"name":"C#4","midi":61,"time":370.06132099998865,"velocity":0.3858267716535433,"duration":0.182164804166689},{"name":"C4","midi":60,"time":370.24424799998866,"velocity":0.3858267716535433,"duration":7.865098804166564},{"name":"D#4","midi":63,"time":370.42717499998867,"velocity":0.3858267716535433,"duration":0.182164804166689},{"name":"A3","midi":57,"time":370.6101019999887,"velocity":0.3858267716535433,"duration":0.182164804166689},{"name":"G#3","midi":56,"time":370.7930289999887,"velocity":0.3858267716535433,"duration":17.926083804165614},{"name":"F#3","midi":54,"time":370.9759559999887,"velocity":0.3858267716535433,"duration":0.182164804166689},{"name":"A3","midi":57,"time":371.1588829999887,"velocity":0.3858267716535433,"duration":0.182164804166689},{"name":"E3","midi":52,"time":371.3418099999887,"velocity":0.3858267716535433,"duration":0.182164804166689},{"name":"D#3","midi":51,"time":371.5247369999887,"velocity":0.3858267716535433,"duration":0.182164804166689},{"name":"F#3","midi":54,"time":371.7076639999887,"velocity":0.3858267716535433,"duration":0.182164804166689},{"name":"C#3","midi":49,"time":371.8905909999887,"velocity":0.3858267716535433,"duration":0.182164804166689},{"name":"C3","midi":48,"time":372.0735179999887,"velocity":0.3858267716535433,"duration":0.182164804166689},{"name":"D#3","midi":51,"time":372.25644499998873,"velocity":0.3858267716535433,"duration":0.182164804166689},{"name":"A2","midi":45,"time":372.62229899998874,"velocity":0.3858267716535433,"duration":0.18216480416663217},{"name":"G#2","midi":44,"time":372.9881529999887,"velocity":0.2677165354330709,"duration":0.18216480416663217},{"name":"C#3","midi":49,"time":376.28083899998865,"velocity":0.3858267716535433,"duration":0.36509180416663867},{"name":"E4","midi":64,"time":377.3784009999886,"velocity":0.3858267716535433,"duration":0.27362830416666384},{"name":"C#4","midi":61,"time":377.6527914999886,"velocity":0.3858267716535433,"duration":0.09070130416665734},{"name":"C4","midi":60,"time":377.7442549999886,"velocity":0.3858267716535433,"duration":0.5480188041666452},{"name":"F#3","midi":54,"time":378.11010899998854,"velocity":0.3858267716535433,"duration":0.182164804166689},{"name":"C4","midi":60,"time":378.11010899998854,"velocity":0.3858267716535433,"duration":0.548018804166702},{"name":"G#4","midi":68,"time":378.11010899998854,"velocity":0.3858267716535433,"duration":0.182164804166689},{"name":"F#3","midi":54,"time":378.47596299998855,"velocity":0.3858267716535433,"duration":0.182164804166689},{"name":"C4","midi":60,"time":378.47596299998855,"velocity":0.3858267716535433,"duration":0.548018804166702},{"name":"G#4","midi":68,"time":378.47596299998855,"velocity":0.3858267716535433,"duration":0.182164804166689},{"name":"F#3","midi":54,"time":378.84181699998857,"velocity":0.3858267716535433,"duration":0.182164804166689},{"name":"C4","midi":60,"time":378.84181699998857,"velocity":0.3858267716535433,"duration":0},{"name":"G#4","midi":68,"time":378.84181699998857,"velocity":0.3858267716535433,"duration":0.182164804166689},{"name":"E3","midi":52,"time":379.2076709999886,"velocity":0.3858267716535433,"duration":0.0632622541666592},{"name":"C#4","midi":61,"time":379.27169544998856,"velocity":0.3858267716535433,"duration":0.0632622541666592},{"name":"G#4","midi":68,"time":379.3364820958219,"velocity":0.3858267716535433,"duration":0.9672265125000195},{"name":"E5","midi":76,"time":380.3052329999886,"velocity":0.3858267716535433,"duration":0.27362830416666384},{"name":"C#5","midi":73,"time":380.5796234999886,"velocity":0.3858267716535433,"duration":0.09070130416665734},{"name":"C5","midi":72,"time":380.6710869999886,"velocity":0.3858267716535433,"duration":0.36509180416663867},{"name":"F#4","midi":66,"time":381.03694099998853,"velocity":0.3858267716535433,"duration":0.548018804166702},{"name":"C5","midi":72,"time":381.03694099998853,"velocity":0.3858267716535433,"duration":0.182164804166689},{"name":"G#5","midi":80,"time":381.03694099998853,"velocity":0.3858267716535433,"duration":0.182164804166689},{"name":"F#4","midi":66,"time":381.40279499998854,"velocity":0.3858267716535433,"duration":0.548018804166702},{"name":"C5","midi":72,"time":381.40279499998854,"velocity":0.3858267716535433,"duration":0.182164804166689},{"name":"G#5","midi":80,"time":381.40279499998854,"velocity":0.3858267716535433,"duration":0.182164804166689},{"name":"F#4","midi":66,"time":381.76864899998856,"velocity":0.3858267716535433,"duration":1.1608242541666982},{"name":"C5","midi":72,"time":381.76864899998856,"velocity":0.3858267716535433,"duration":0.182164804166689},{"name":"G#5","midi":80,"time":381.76864899998856,"velocity":0.3858267716535433,"duration":0.182164804166689},{"name":"E4","midi":64,"time":382.13450299998857,"velocity":0.3858267716535433,"duration":0.0632622541666592},{"name":"C#5","midi":73,"time":382.19852744998855,"velocity":0.3858267716535433,"duration":0.0632622541666592},{"name":"G#5","midi":80,"time":382.2633140958219,"velocity":0.3858267716535433,"duration":0.6013725125000065},{"name":"F#4","midi":66,"time":382.8662109999886,"velocity":0.5039370078740157,"duration":1.5266782541667112},{"name":"C5","midi":72,"time":382.9302354499886,"velocity":0.5039370078740157,"duration":0.0632622541666592},{"name":"G#5","midi":80,"time":382.9950220958219,"velocity":0.5039370078740157,"duration":0.6013725125000065},{"name":"E4","midi":64,"time":383.5979189999886,"velocity":0.6299212598425197,"duration":0.0632622541666592},{"name":"C#5","midi":73,"time":383.6619434499886,"velocity":0.6299212598425197,"duration":0.0632622541666592},{"name":"G#5","midi":80,"time":383.72673009582195,"velocity":0.6299212598425197,"duration":0.6013725125000065},{"name":"F#4","midi":66,"time":384.32962699998865,"velocity":0.7559055118110236,"duration":0},{"name":"C5","midi":72,"time":384.3936514499886,"velocity":0.7559055118110236,"duration":0.0632622541666592},{"name":"G#5","midi":80,"time":384.458438095822,"velocity":0.7559055118110236,"duration":0.6013725125000065},{"name":"D#4","midi":63,"time":385.0613349999887,"velocity":0.7559055118110236,"duration":0.022103679166662005},{"name":"C#5","midi":73,"time":385.08420087498865,"velocity":0.7559055118110236,"duration":0.022103679166662005},{"name":"G#5","midi":80,"time":385.10706674998863,"velocity":0.7559055118110236,"duration":0.0449695541666415},{"name":"E4","midi":64,"time":385.1527984999886,"velocity":0.7559055118110236,"duration":0.09070130416665734},{"name":"G#4","midi":68,"time":385.24426199998857,"velocity":0.7559055118110236,"duration":0.09070130416665734},{"name":"C#5","midi":73,"time":385.33572549998854,"velocity":0.7559055118110236,"duration":0.09070130416665734},{"name":"E5","midi":76,"time":385.4271889999885,"velocity":0.7559055118110236,"duration":0.09070130416665734},{"name":"G#4","midi":68,"time":385.5186524999885,"velocity":0.7559055118110236,"duration":0.09070130416665734},{"name":"C#5","midi":73,"time":385.61011599998847,"velocity":0.7559055118110236,"duration":0.09070130416665734},{"name":"E5","midi":76,"time":385.70157949998844,"velocity":0.7559055118110236,"duration":0.09070130416665734},{"name":"G#5","midi":80,"time":385.7930429999884,"velocity":0.7559055118110236,"duration":0.09070130416665734},{"name":"C#5","midi":73,"time":385.8845064999884,"velocity":0.7559055118110236,"duration":0.09070130416665734},{"name":"E5","midi":76,"time":385.97596999998837,"velocity":0.7559055118110236,"duration":0.09070130416665734},{"name":"G#5","midi":80,"time":386.06743349998834,"velocity":0.7559055118110236,"duration":0.09070130416665734},{"name":"C#6","midi":85,"time":386.1588969999883,"velocity":0.7559055118110236,"duration":0.09070130416665734},{"name":"E5","midi":76,"time":386.2503604999883,"velocity":0.7559055118110236,"duration":0.09070130416665734},{"name":"G#5","midi":80,"time":386.34182399998826,"velocity":0.7559055118110236,"duration":0.09070130416665734},{"name":"C#6","midi":85,"time":386.43328749998824,"velocity":0.7559055118110236,"duration":0.09070130416665734},{"name":"E6","midi":88,"time":386.5247509999882,"velocity":0.7559055118110236,"duration":0.09070130416665734},{"name":"C#6","midi":85,"time":386.6162144999882,"velocity":0.7559055118110236,"duration":0.09070130416665734},{"name":"G#5","midi":80,"time":386.70767799998816,"velocity":0.7559055118110236,"duration":0.09070130416665734},{"name":"E5","midi":76,"time":386.79914149998814,"velocity":0.7559055118110236,"duration":0.09070130416665734},{"name":"C#6","midi":85,"time":386.8906049999881,"velocity":0.7559055118110236,"duration":0.09070130416665734},{"name":"G#5","midi":80,"time":386.9820684999881,"velocity":0.7559055118110236,"duration":0.09070130416665734},{"name":"E5","midi":76,"time":387.07353199998806,"velocity":0.7559055118110236,"duration":0.09070130416665734},{"name":"C#5","midi":73,"time":387.16499549998804,"velocity":0.7559055118110236,"duration":0.09070130416665734},{"name":"G#5","midi":80,"time":387.256458999988,"velocity":0.7559055118110236,"duration":0.09070130416665734},{"name":"E5","midi":76,"time":387.347922499988,"velocity":0.7559055118110236,"duration":0.09070130416665734},{"name":"C#5","midi":73,"time":387.43938599998796,"velocity":0.7559055118110236,"duration":0.09070130416665734},{"name":"G#4","midi":68,"time":387.53084949998794,"velocity":0.7559055118110236,"duration":0.09070130416665734},{"name":"E5","midi":76,"time":387.6223129999879,"velocity":0.7559055118110236,"duration":0.09070130416665734},{"name":"C#5","midi":73,"time":387.7137764999879,"velocity":0.7559055118110236,"duration":0.09070130416665734},{"name":"G#4","midi":68,"time":387.80523999998786,"velocity":0.7559055118110236,"duration":0.09070130416665734},{"name":"E4","midi":64,"time":387.89670349998784,"velocity":0.7559055118110236,"duration":0.09070130416665734},{"name":"C#5","midi":73,"time":387.9881669999878,"velocity":0.7559055118110236,"duration":0.09070130416665734},{"name":"G#4","midi":68,"time":388.0796304999878,"velocity":0.7559055118110236,"duration":0.09070130416665734},{"name":"E4","midi":64,"time":388.17109399998776,"velocity":0.7559055118110236,"duration":0.09070130416665734},{"name":"C#4","midi":61,"time":388.26255749998774,"velocity":0.7559055118110236,"duration":0.09070130416665734},{"name":"G#4","midi":68,"time":388.3540209999877,"velocity":0.7559055118110236,"duration":0.09070130416665734},{"name":"E4","midi":64,"time":388.4454844999877,"velocity":0.7559055118110236,"duration":0.09070130416665734},{"name":"C#4","midi":61,"time":388.53694799998766,"velocity":0.7559055118110236,"duration":0.09070130416665734},{"name":"G#3","midi":56,"time":388.62841149998764,"velocity":0.7559055118110236,"duration":0.3650918041665818},{"name":"E4","midi":64,"time":388.7198749999876,"velocity":0.7559055118110236,"duration":0.09070130416665734},{"name":"C#4","midi":61,"time":388.8113384999876,"velocity":0.7559055118110236,"duration":0.09070130416665734},{"name":"G#3","midi":56,"time":388.90280199998756,"velocity":0.7559055118110236,"duration":0.3650918041665818},{"name":"E3","midi":52,"time":388.99426549998753,"velocity":0.7559055118110236,"duration":0.09070130416665734},{"name":"C#4","midi":61,"time":389.0857289999875,"velocity":0.7559055118110236,"duration":0.09070130416665734},{"name":"G#3","midi":56,"time":389.1771924999875,"velocity":0.7559055118110236,"duration":0.273628304166607},{"name":"E3","midi":52,"time":389.26865599998746,"velocity":0.7559055118110236,"duration":0.09070130416665734},{"name":"G#3","midi":56,"time":389.36011949998743,"velocity":0.7559055118110236,"duration":0},{"name":"C#3","midi":49,"time":389.4515829999874,"velocity":0.7559055118110236,"duration":0.36509180416663867},{"name":"C#5","midi":73,"time":390.1832909999874,"velocity":0.8818897637795275,"duration":0.182164804166689},{"name":"E5","midi":76,"time":390.1832909999874,"velocity":0.8818897637795275,"duration":0.182164804166689},{"name":"G#5","midi":80,"time":390.1832909999874,"velocity":0.8818897637795275,"duration":0.182164804166689},{"name":"C#6","midi":85,"time":390.1832909999874,"velocity":0.8818897637795275,"duration":0.182164804166689},{"name":"C#4","midi":61,"time":390.9149989999874,"velocity":0.8818897637795275,"duration":0.182164804166689},{"name":"E4","midi":64,"time":390.9149989999874,"velocity":0.8818897637795275,"duration":0.182164804166689},{"name":"G#4","midi":68,"time":390.9149989999874,"velocity":0.8818897637795275,"duration":0.182164804166689},{"name":"C#5","midi":73,"time":390.9149989999874,"velocity":0.8818897637795275,"duration":0.182164804166689}]},{"instrument_number":-1,"notes":[{"name":"C#2","midi":37,"time":0,"velocity":0.3858267716535433,"duration":0.09070130416666668},{"name":"G#2","midi":44,"time":0.182927,"velocity":0.3858267716535433,"duration":0.09070130416666666},{"name":"C#2","midi":37,"time":0.365854,"velocity":0.3858267716535433,"duration":0.09070130416666666},{"name":"G#2","midi":44,"time":0.548781,"velocity":0.3858267716535433,"duration":0.09070130416666666},{"name":"C#2","midi":37,"time":0.7317079999999999,"velocity":0.3858267716535433,"duration":0.09070130416666666},{"name":"G#2","midi":44,"time":0.9146349999999999,"velocity":0.3858267716535433,"duration":0.09070130416666666},{"name":"C#2","midi":37,"time":1.097562,"velocity":0.3858267716535433,"duration":0.09070130416666666},{"name":"G#2","midi":44,"time":1.280489,"velocity":0.3858267716535433,"duration":0.09070130416666666},{"name":"C#2","midi":37,"time":1.463416,"velocity":0.3858267716535433,"duration":0.09070130416666666},{"name":"G#2","midi":44,"time":1.6463430000000001,"velocity":0.3858267716535433,"duration":0.09070130416666666},{"name":"C#2","midi":37,"time":1.8292700000000002,"velocity":0.3858267716535433,"duration":0.09070130416666666},{"name":"G#2","midi":44,"time":2.012197,"velocity":0.3858267716535433,"duration":0.09070130416666666},{"name":"C#2","midi":37,"time":2.195124,"velocity":0.3858267716535433,"duration":0.09070130416666666},{"name":"G#2","midi":44,"time":2.3780509999999997,"velocity":0.3858267716535433,"duration":0.09070130416666666},{"name":"C#2","midi":37,"time":2.5609779999999995,"velocity":0.5039370078740157,"duration":0.09070130416666666},{"name":"C#3","midi":49,"time":2.5609779999999995,"velocity":0.5039370078740157,"duration":0.09070130416666666},{"name":"G#2","midi":44,"time":2.7439049999999994,"velocity":0.3858267716535433,"duration":0.09070130416666666},{"name":"C2","midi":36,"time":2.926831999999999,"velocity":0.3858267716535433,"duration":0.09070130416666666},{"name":"G#2","midi":44,"time":3.109758999999999,"velocity":0.3858267716535433,"duration":0.09070130416666666},{"name":"C2","midi":36,"time":3.292685999999999,"velocity":0.3858267716535433,"duration":0.09070130416666666},{"name":"G#2","midi":44,"time":3.4756129999999987,"velocity":0.3858267716535433,"duration":0.09070130416666666},{"name":"C2","midi":36,"time":3.6585399999999986,"velocity":0.3858267716535433,"duration":0.09070130416666666},{"name":"G#2","midi":44,"time":3.8414669999999984,"velocity":0.3858267716535433,"duration":0.09070130416666666},{"name":"C2","midi":36,"time":4.024393999999998,"velocity":0.3858267716535433,"duration":0.09070130416666711},{"name":"G#2","midi":44,"time":4.2073209999999985,"velocity":0.3858267716535433,"duration":0.09070130416666711},{"name":"C2","midi":36,"time":4.390247999999999,"velocity":0.3858267716535433,"duration":0.09070130416666711},{"name":"G#2","midi":44,"time":4.573174999999999,"velocity":0.3858267716535433,"duration":0.09070130416666711},{"name":"C2","midi":36,"time":4.756101999999999,"velocity":0.3858267716535433,"duration":0.09070130416666711},{"name":"G#2","midi":44,"time":4.939029,"velocity":0.3858267716535433,"duration":0.09070130416666711},{"name":"C2","midi":36,"time":5.121956,"velocity":0.3858267716535433,"duration":0.09070130416666711},{"name":"G#2","midi":44,"time":5.304883,"velocity":0.3858267716535433,"duration":0.09070130416666711},{"name":"C2","midi":36,"time":5.4878100000000005,"velocity":0.5039370078740157,"duration":0.09070130416666711},{"name":"C3","midi":48,"time":5.4878100000000005,"velocity":0.5039370078740157,"duration":0.09070130416666711},{"name":"G#2","midi":44,"time":5.670737000000001,"velocity":0.3858267716535433,"duration":0.09070130416666711},{"name":"B1","midi":35,"time":5.853664000000001,"velocity":0.3858267716535433,"duration":0.09070130416666711},{"name":"G#2","midi":44,"time":6.036591000000001,"velocity":0.3858267716535433,"duration":0.09070130416666711},{"name":"B1","midi":35,"time":6.219518000000002,"velocity":0.3858267716535433,"duration":0.09070130416666711},{"name":"G#2","midi":44,"time":6.402445000000002,"velocity":0.3858267716535433,"duration":0.09070130416666711},{"name":"B1","midi":35,"time":6.585372000000002,"velocity":0.3858267716535433,"duration":0.09070130416666711},{"name":"G#2","midi":44,"time":6.7682990000000025,"velocity":0.3858267716535433,"duration":0.09070130416666711},{"name":"B1","midi":35,"time":6.951226000000003,"velocity":0.3858267716535433,"duration":0.09070130416666711},{"name":"G#2","midi":44,"time":7.134153000000003,"velocity":0.3858267716535433,"duration":0.09070130416666711},{"name":"B1","midi":35,"time":7.317080000000003,"velocity":0.3858267716535433,"duration":0.09070130416666711},{"name":"G#2","midi":44,"time":7.500007000000004,"velocity":0.3858267716535433,"duration":0.09070130416666711},{"name":"B1","midi":35,"time":7.682934000000004,"velocity":0.3858267716535433,"duration":0.09070130416666711},{"name":"G#2","midi":44,"time":7.865861000000004,"velocity":0.3858267716535433,"duration":0.09070130416666711},{"name":"B1","midi":35,"time":8.048788000000005,"velocity":0.3858267716535433,"duration":0.09070130416666622},{"name":"G#2","midi":44,"time":8.231715000000005,"velocity":0.3858267716535433,"duration":0.09070130416666622},{"name":"B1","midi":35,"time":8.414642000000004,"velocity":0.5039370078740157,"duration":0.09070130416666622},{"name":"B2","midi":47,"time":8.414642000000004,"velocity":0.5039370078740157,"duration":0.09070130416666622},{"name":"G#2","midi":44,"time":8.597569000000004,"velocity":0.3858267716535433,"duration":0.09070130416666622},{"name":"A1","midi":33,"time":8.780496000000003,"velocity":0.3858267716535433,"duration":0.09070130416666622},{"name":"A2","midi":45,"time":8.963423000000002,"velocity":0.4330708661417323,"duration":0.09070130416666622},{"name":"A1","midi":33,"time":9.146350000000002,"velocity":0.44881889763779526,"duration":0.09070130416666622},{"name":"A2","midi":45,"time":9.329277000000001,"velocity":0.47244094488188976,"duration":0.09070130416666622},{"name":"A1","midi":33,"time":9.512204,"velocity":0.49606299212598426,"duration":0.09070130416666622},{"name":"A2","midi":45,"time":9.695131,"velocity":0.5196850393700787,"duration":0.09070130416666622},{"name":"A1","midi":33,"time":9.878058,"velocity":0.6141732283464567,"duration":0.09070130416666622},{"name":"A2","midi":45,"time":10.060984999999999,"velocity":0.5590551181102362,"duration":0.09070130416666622},{"name":"A1","midi":33,"time":10.243911999999998,"velocity":0.5826771653543307,"duration":0.09070130416666622},{"name":"A2","midi":45,"time":10.426838999999998,"velocity":0.6062992125984252,"duration":0.09070130416666622},{"name":"A1","midi":33,"time":10.609765999999997,"velocity":0.6220472440944882,"duration":0.09070130416666622},{"name":"A2","midi":45,"time":10.792692999999996,"velocity":0.6456692913385826,"duration":0.09070130416666622},{"name":"A1","midi":33,"time":10.975619999999996,"velocity":0.6692913385826772,"duration":0.09070130416666622},{"name":"A2","midi":45,"time":11.158546999999995,"velocity":0.6929133858267716,"duration":0.09070130416666622},{"name":"A1","midi":33,"time":11.341473999999995,"velocity":0.7874015748031497,"duration":0.09070130416666622},{"name":"A2","midi":45,"time":11.524400999999994,"velocity":0.7322834645669292,"duration":0.09070130416666622},{"name":"G#1","midi":32,"time":11.707327999999993,"velocity":0.7559055118110236,"duration":0.1821648041666677},{"name":"G#2","midi":44,"time":11.707327999999993,"velocity":0.7559055118110236,"duration":0.1821648041666677},{"name":"C4","midi":60,"time":11.890254999999994,"velocity":0.7559055118110236,"duration":0.18216480416666592},{"name":"G#3","midi":56,"time":11.890254999999994,"velocity":0.7559055118110236,"duration":2.7431428041666575},{"name":"C4","midi":60,"time":12.073181999999994,"velocity":0.7559055118110236,"duration":0.18216480416666592},{"name":"C#4","midi":61,"time":12.256108999999993,"velocity":0.7559055118110236,"duration":0.18216480416666592},{"name":"D#4","midi":63,"time":12.439035999999993,"velocity":0.7559055118110236,"duration":0.18216480416666592},{"name":"E4","midi":64,"time":12.621962999999992,"velocity":0.7559055118110236,"duration":0.18216480416666592},{"name":"F#4","midi":66,"time":12.804889999999991,"velocity":0.7559055118110236,"duration":0.18216480416666592},{"name":"D#4","midi":63,"time":12.98781699999999,"velocity":0.7559055118110236,"duration":0.18216480416666592},{"name":"F#4","midi":66,"time":13.17074399999999,"velocity":0.7559055118110236,"duration":0.18216480416666592},{"name":"E4","midi":64,"time":13.35367099999999,"velocity":0.7559055118110236,"duration":0.18216480416666592},{"name":"A4","midi":69,"time":13.536597999999989,"velocity":0.7559055118110236,"duration":0.18216480416666592},{"name":"G#4","midi":68,"time":13.719524999999988,"velocity":0.7559055118110236,"duration":0.18216480416666592},{"name":"F#4","midi":66,"time":13.902451999999988,"velocity":0.7559055118110236,"duration":0.18216480416666592},{"name":"E4","midi":64,"time":14.085378999999987,"velocity":0.7559055118110236,"duration":0.18216480416666592},{"name":"D#4","midi":63,"time":14.268305999999987,"velocity":0.7559055118110236,"duration":0.18216480416666592},{"name":"C#4","midi":61,"time":14.451232999999986,"velocity":0.7559055118110236,"duration":0.18216480416666592},{"name":"G#3","midi":56,"time":14.634159999999985,"velocity":0.7559055118110236,"duration":2.926069804166657},{"name":"C4","midi":60,"time":14.634159999999985,"velocity":0.7559055118110236,"duration":0.18216480416666592},{"name":"C4","midi":60,"time":14.817086999999985,"velocity":0.7559055118110236,"duration":0.18216480416666592},{"name":"C4","midi":60,"time":15.000013999999984,"velocity":0.7559055118110236,"duration":0.18216480416666592},{"name":"C#4","midi":61,"time":15.182940999999984,"velocity":0.7559055118110236,"duration":0.18216480416666592},{"name":"D#4","midi":63,"time":15.365867999999983,"velocity":0.7559055118110236,"duration":0.18216480416666592},{"name":"E4","midi":64,"time":15.548794999999982,"velocity":0.7559055118110236,"duration":0.18216480416666592},{"name":"F#4","midi":66,"time":15.731721999999982,"velocity":0.7559055118110236,"duration":0.18216480416666592},{"name":"D#4","midi":63,"time":15.914648999999981,"velocity":0.7559055118110236,"duration":0.18216480416666592},{"name":"F#4","midi":66,"time":16.09757599999998,"velocity":0.7559055118110236,"duration":0.1821648041666677},{"name":"E4","midi":64,"time":16.280502999999978,"velocity":0.7559055118110236,"duration":0.1821648041666677},{"name":"A4","midi":69,"time":16.463429999999978,"velocity":0.7559055118110236,"duration":0.1821648041666677},{"name":"G#4","midi":68,"time":16.646356999999977,"velocity":0.7559055118110236,"duration":0.1821648041666677},{"name":"F#4","midi":66,"time":16.829283999999976,"velocity":0.7559055118110236,"duration":0.1821648041666677},{"name":"E4","midi":64,"time":17.012210999999976,"velocity":0.7559055118110236,"duration":0.1821648041666677},{"name":"D#4","midi":63,"time":17.195137999999975,"velocity":0.7559055118110236,"duration":0.1821648041666677},{"name":"C#4","midi":61,"time":17.378064999999975,"velocity":0.7559055118110236,"duration":0.1821648041666677},{"name":"C4","midi":60,"time":17.560991999999974,"velocity":0.7559055118110236,"duration":0.090701304166668},{"name":"G#3","midi":56,"time":17.560991999999974,"velocity":0.7559055118110236,"duration":0.090701304166668},{"name":"C#4","midi":61,"time":17.743918999999977,"velocity":0.7559055118110236,"duration":0.090701304166668},{"name":"G#3","midi":56,"time":17.743918999999977,"velocity":0.7559055118110236,"duration":0.090701304166668},{"name":"C4","midi":60,"time":17.92684599999998,"velocity":0.7559055118110236,"duration":0.090701304166668},{"name":"G#3","midi":56,"time":17.92684599999998,"velocity":0.7559055118110236,"duration":0.090701304166668},{"name":"C#4","midi":61,"time":18.109772999999983,"velocity":0.7559055118110236,"duration":0.090701304166668},{"name":"G#3","midi":56,"time":18.109772999999983,"velocity":0.7559055118110236,"duration":0.090701304166668},{"name":"C4","midi":60,"time":18.292699999999986,"velocity":0.7559055118110236,"duration":0.090701304166668},{"name":"G#3","midi":56,"time":18.292699999999986,"velocity":0.7559055118110236,"duration":0.090701304166668},{"name":"C#4","midi":61,"time":18.47562699999999,"velocity":0.7559055118110236,"duration":0.090701304166668},{"name":"G#3","midi":56,"time":18.47562699999999,"velocity":0.7559055118110236,"duration":0.090701304166668},{"name":"C4","midi":60,"time":18.65855399999999,"velocity":0.7559055118110236,"duration":0.090701304166668},{"name":"G#3","midi":56,"time":18.65855399999999,"velocity":0.7559055118110236,"duration":0.090701304166668},{"name":"C#4","midi":61,"time":18.841480999999995,"velocity":0.7559055118110236,"duration":0.090701304166668},{"name":"G#3","midi":56,"time":18.841480999999995,"velocity":0.7559055118110236,"duration":0.090701304166668},{"name":"G#3","midi":56,"time":19.024407999999998,"velocity":0.7559055118110236,"duration":0.1821648041666677},{"name":"C4","midi":60,"time":19.024407999999998,"velocity":0.7559055118110236,"duration":0.1821648041666677},{"name":"G#1","midi":32,"time":19.390262,"velocity":0.8267716535433071,"duration":1.0967998041666682},{"name":"G#2","midi":44,"time":19.390262,"velocity":0.8267716535433071,"duration":1.0967998041666682},{"name":"C#2","midi":37,"time":20.487824,"velocity":0.3858267716535433,"duration":0.090701304166668},{"name":"G#2","midi":44,"time":20.670751000000003,"velocity":0.3858267716535433,"duration":0.090701304166668},{"name":"C#2","midi":37,"time":20.853678000000006,"velocity":0.3858267716535433,"duration":0.090701304166668},{"name":"G#2","midi":44,"time":21.03660500000001,"velocity":0.3858267716535433,"duration":0.090701304166668},{"name":"C#2","midi":37,"time":21.21953200000001,"velocity":0.3858267716535433,"duration":0.090701304166668},{"name":"G#2","midi":44,"time":21.402459000000015,"velocity":0.3858267716535433,"duration":0.090701304166668},{"name":"C#2","midi":37,"time":21.585386000000018,"velocity":0.3858267716535433,"duration":0.090701304166668},{"name":"G#2","midi":44,"time":21.76831300000002,"velocity":0.3858267716535433,"duration":0.090701304166668},{"name":"C#2","midi":37,"time":21.951240000000023,"velocity":0.3858267716535433,"duration":0.090701304166668},{"name":"G#2","midi":44,"time":22.134167000000026,"velocity":0.3858267716535433,"duration":0.090701304166668},{"name":"C#2","midi":37,"time":22.31709400000003,"velocity":0.3858267716535433,"duration":0.090701304166668},{"name":"G#2","midi":44,"time":22.500021000000032,"velocity":0.3858267716535433,"duration":0.090701304166668},{"name":"C#2","midi":37,"time":22.682948000000035,"velocity":0.3858267716535433,"duration":0.090701304166668},{"name":"G#2","midi":44,"time":22.865875000000038,"velocity":0.3858267716535433,"duration":0.090701304166668},{"name":"C#2","midi":37,"time":23.04880200000004,"velocity":0.5039370078740157,"duration":0.090701304166668},{"name":"C#3","midi":49,"time":23.04880200000004,"velocity":0.5039370078740157,"duration":0.090701304166668},{"name":"G#2","midi":44,"time":23.231729000000044,"velocity":0.3858267716535433,"duration":0.090701304166668},{"name":"A#1","midi":34,"time":23.414656000000047,"velocity":0.3858267716535433,"duration":0.09070130416666444},{"name":"C#3","midi":49,"time":23.597583000000046,"velocity":0.3858267716535433,"duration":0.090701304166668},{"name":"A#2","midi":46,"time":23.78051000000005,"velocity":0.3858267716535433,"duration":0.090701304166668},{"name":"C#3","midi":49,"time":23.963437000000052,"velocity":0.3858267716535433,"duration":0.090701304166668},{"name":"A#2","midi":46,"time":24.146364000000055,"velocity":0.3858267716535433,"duration":0.090701304166668},{"name":"C#3","midi":49,"time":24.329291000000058,"velocity":0.3858267716535433,"duration":0.090701304166668},{"name":"A#2","midi":46,"time":24.51221800000006,"velocity":0.3858267716535433,"duration":0.090701304166668},{"name":"C#3","midi":49,"time":24.695145000000064,"velocity":0.3858267716535433,"duration":0.090701304166668},{"name":"A#2","midi":46,"time":24.878072000000067,"velocity":0.3858267716535433,"duration":0.090701304166668},{"name":"C#3","midi":49,"time":25.06099900000007,"velocity":0.3858267716535433,"duration":0.090701304166668},{"name":"A#2","midi":46,"time":25.243926000000073,"velocity":0.3858267716535433,"duration":0.090701304166668},{"name":"C#3","midi":49,"time":25.426853000000076,"velocity":0.3858267716535433,"duration":0.090701304166668},{"name":"A#2","midi":46,"time":25.60978000000008,"velocity":0.3858267716535433,"duration":0.090701304166668},{"name":"C#3","midi":49,"time":25.79270700000008,"velocity":0.3858267716535433,"duration":0.090701304166668},{"name":"A#1","midi":34,"time":25.975634000000085,"velocity":0.5039370078740157,"duration":0.090701304166668},{"name":"A#2","midi":46,"time":25.975634000000085,"velocity":0.5039370078740157,"duration":0.090701304166668},{"name":"C#3","midi":49,"time":26.158561000000088,"velocity":0.3858267716535433,"duration":0.090701304166668},{"name":"G1","midi":31,"time":26.34148800000009,"velocity":0.3858267716535433,"duration":0.09070130416666444},{"name":"D#3","midi":51,"time":26.52441500000009,"velocity":0.4015748031496063,"duration":0.090701304166668},{"name":"G2","midi":43,"time":26.707342000000093,"velocity":0.4094488188976378,"duration":0.090701304166668},{"name":"D#3","midi":51,"time":26.890269000000096,"velocity":0.41732283464566927,"duration":0.090701304166668},{"name":"G2","midi":43,"time":27.0731960000001,"velocity":0.4251968503937008,"duration":0.090701304166668},{"name":"D#3","midi":51,"time":27.256123000000102,"velocity":0.4330708661417323,"duration":0.090701304166668},{"name":"G2","midi":43,"time":27.439050000000105,"velocity":0.4409448818897638,"duration":0.090701304166668},{"name":"D#3","midi":51,"time":27.621977000000108,"velocity":0.44881889763779526,"duration":0.090701304166668},{"name":"G2","midi":43,"time":27.80490400000011,"velocity":0.44881889763779526,"duration":0.090701304166668},{"name":"D#3","midi":51,"time":27.987831000000114,"velocity":0.4566929133858268,"duration":0.090701304166668},{"name":"G2","midi":43,"time":28.170758000000117,"velocity":0.4645669291338583,"duration":0.090701304166668},{"name":"D#3","midi":51,"time":28.35368500000012,"velocity":0.47244094488188976,"duration":0.090701304166668},{"name":"G2","midi":43,"time":28.536612000000122,"velocity":0.48031496062992124,"duration":0.090701304166668},{"name":"D#3","midi":51,"time":28.719539000000125,"velocity":0.4881889763779528,"duration":0.090701304166668},{"name":"G2","midi":43,"time":28.90246600000013,"velocity":0.49606299212598426,"duration":0.090701304166668},{"name":"D#3","midi":51,"time":29.08539300000013,"velocity":0.5039370078740157,"duration":0.090701304166668},{"name":"G#2","midi":44,"time":29.268320000000134,"velocity":0.3858267716535433,"duration":0.090701304166668},{"name":"D#3","midi":51,"time":29.359783500000134,"velocity":0.3858267716535433,"duration":0.090701304166668},{"name":"B2","midi":47,"time":29.451247000000134,"velocity":0.3858267716535433,"duration":0.090701304166668},{"name":"D#3","midi":51,"time":29.542710500000133,"velocity":0.3858267716535433,"duration":0.090701304166668},{"name":"G#2","midi":44,"time":29.634174000000133,"velocity":0.3858267716535433,"duration":0.090701304166668},{"name":"D#3","midi":51,"time":29.725637500000133,"velocity":0.3858267716535433,"duration":0.090701304166668},{"name":"B2","midi":47,"time":29.817101000000132,"velocity":0.3858267716535433,"duration":0.090701304166668},{"name":"D#3","midi":51,"time":29.908564500000132,"velocity":0.3858267716535433,"duration":0.090701304166668},{"name":"G#2","midi":44,"time":30.000028000000132,"velocity":0.3858267716535433,"duration":0.090701304166668},{"name":"D#3","midi":51,"time":30.09149150000013,"velocity":0.3858267716535433,"duration":0.090701304166668},{"name":"B2","midi":47,"time":30.18295500000013,"velocity":0.3858267716535433,"duration":0.090701304166668},{"name":"D#3","midi":51,"time":30.27441850000013,"velocity":0.3858267716535433,"duration":0.090701304166668},{"name":"G#2","midi":44,"time":30.36588200000013,"velocity":0.3858267716535433,"duration":0.090701304166668},{"name":"D#3","midi":51,"time":30.45734550000013,"velocity":0.3858267716535433,"duration":0.090701304166668},{"name":"B2","midi":47,"time":30.54880900000013,"velocity":0.3858267716535433,"duration":0.090701304166668},{"name":"D#3","midi":51,"time":30.64027250000013,"velocity":0.3858267716535433,"duration":0.090701304166668},{"name":"A#2","midi":46,"time":30.73173600000013,"velocity":0.3858267716535433,"duration":0.090701304166668},{"name":"D#3","midi":51,"time":30.82319950000013,"velocity":0.3858267716535433,"duration":0.090701304166668},{"name":"C#3","midi":49,"time":30.91466300000013,"velocity":0.3858267716535433,"duration":0.090701304166668},{"name":"D#3","midi":51,"time":31.00612650000013,"velocity":0.3858267716535433,"duration":0.090701304166668},{"name":"A#2","midi":46,"time":31.097590000000128,"velocity":0.3858267716535433,"duration":0.090701304166668},{"name":"D#3","midi":51,"time":31.189053500000128,"velocity":0.3858267716535433,"duration":0.090701304166668},{"name":"C#3","midi":49,"time":31.280517000000128,"velocity":0.3858267716535433,"duration":0.090701304166668},{"name":"D#3","midi":51,"time":31.371980500000127,"velocity":0.3858267716535433,"duration":0.090701304166668},{"name":"A#2","midi":46,"time":31.463444000000127,"velocity":0.3858267716535433,"duration":0.090701304166668},{"name":"D#3","midi":51,"time":31.554907500000127,"velocity":0.3858267716535433,"duration":0.090701304166668},{"name":"C#3","midi":49,"time":31.646371000000126,"velocity":0.3858267716535433,"duration":0.090701304166668},{"name":"D#3","midi":51,"time":31.737834500000126,"velocity":0.3858267716535433,"duration":0.090701304166668},{"name":"A#2","midi":46,"time":31.829298000000126,"velocity":0.3858267716535433,"duration":0.090701304166668},{"name":"D#3","midi":51,"time":31.920761500000125,"velocity":0.3858267716535433,"duration":0.09070130416666444},{"name":"C#3","midi":49,"time":32.01222500000012,"velocity":0.3858267716535433,"duration":0.09070130416666444},{"name":"D#3","midi":51,"time":32.10368850000012,"velocity":0.3858267716535433,"duration":0.09070130416666444},{"name":"B2","midi":47,"time":32.195152000000114,"velocity":0.3858267716535433,"duration":0.09070130416666444},{"name":"D#3","midi":51,"time":32.28661550000011,"velocity":0.3858267716535433,"duration":0.09070130416666444},{"name":"B2","midi":47,"time":32.378079000000106,"velocity":0.3858267716535433,"duration":0.09070130416666444},{"name":"D#3","midi":51,"time":32.4695425000001,"velocity":0.3858267716535433,"duration":0.09070130416666444},{"name":"B2","midi":47,"time":32.5610060000001,"velocity":0.3858267716535433,"duration":0.09070130416666444},{"name":"D#3","midi":51,"time":32.652469500000095,"velocity":0.3858267716535433,"duration":0.09070130416666444},{"name":"B2","midi":47,"time":32.74393300000009,"velocity":0.3858267716535433,"duration":0.09070130416666444},{"name":"D#3","midi":51,"time":32.83539650000009,"velocity":0.3858267716535433,"duration":0.09070130416666444},{"name":"B2","midi":47,"time":32.92686000000008,"velocity":0.3858267716535433,"duration":0.09070130416666444},{"name":"D#3","midi":51,"time":33.01832350000008,"velocity":0.3858267716535433,"duration":0.09070130416666444},{"name":"B2","midi":47,"time":33.109787000000075,"velocity":0.3858267716535433,"duration":0.09070130416666444},{"name":"D#3","midi":51,"time":33.20125050000007,"velocity":0.3858267716535433,"duration":0.09070130416666444},{"name":"B2","midi":47,"time":33.29271400000007,"velocity":0.3858267716535433,"duration":0.09070130416666444},{"name":"D#3","midi":51,"time":33.384177500000064,"velocity":0.3858267716535433,"duration":0.09070130416666444},{"name":"B2","midi":47,"time":33.47564100000006,"velocity":0.3858267716535433,"duration":0.09070130416666444},{"name":"D#3","midi":51,"time":33.567104500000056,"velocity":0.3858267716535433,"duration":0.09070130416666444},{"name":"G2","midi":43,"time":33.65856800000005,"velocity":0.3858267716535433,"duration":0.09070130416666444},{"name":"D#3","midi":51,"time":33.75003150000005,"velocity":0.3858267716535433,"duration":0.09070130416666444},{"name":"G2","midi":43,"time":33.841495000000045,"velocity":0.3858267716535433,"duration":0.09070130416666444},{"name":"D#3","midi":51,"time":33.93295850000004,"velocity":0.3858267716535433,"duration":0.09070130416666444},{"name":"G2","midi":43,"time":34.02442200000004,"velocity":0.3858267716535433,"duration":0.09070130416666444},{"name":"D#3","midi":51,"time":34.11588550000003,"velocity":0.3858267716535433,"duration":0.09070130416666444},{"name":"G2","midi":43,"time":34.20734900000003,"velocity":0.3858267716535433,"duration":0.09070130416666444},{"name":"D#3","midi":51,"time":34.298812500000025,"velocity":0.3858267716535433,"duration":0.09070130416666444},{"name":"G2","midi":43,"time":34.39027600000002,"velocity":0.3858267716535433,"duration":0.09070130416666444},{"name":"D#3","midi":51,"time":34.48173950000002,"velocity":0.3858267716535433,"duration":0.09070130416666444},{"name":"G2","midi":43,"time":34.573203000000014,"velocity":0.3858267716535433,"duration":0.09070130416666444},{"name":"D#3","midi":51,"time":34.66466650000001,"velocity":0.3858267716535433,"duration":0.09070130416666444},{"name":"G2","midi":43,"time":34.756130000000006,"velocity":0.3858267716535433,"duration":0.09070130416666444},{"name":"D#3","midi":51,"time":34.8475935,"velocity":0.3858267716535433,"duration":0.09070130416666444},{"name":"G2","midi":43,"time":34.939057,"velocity":0.3858267716535433,"duration":0.09070130416666444},{"name":"D#3","midi":51,"time":35.030520499999994,"velocity":0.3858267716535433,"duration":0.09070130416666444},{"name":"G#2","midi":44,"time":35.12198399999999,"velocity":0.3858267716535433,"duration":0.09070130416666444},{"name":"D#3","midi":51,"time":35.21344749999999,"velocity":0.3858267716535433,"duration":0.09070130416666444},{"name":"B2","midi":47,"time":35.30491099999998,"velocity":0.3858267716535433,"duration":0.09070130416666444},{"name":"D#3","midi":51,"time":35.39637449999998,"velocity":0.3858267716535433,"duration":0.09070130416666444},{"name":"G#2","midi":44,"time":35.487837999999975,"velocity":0.3858267716535433,"duration":0.09070130416666444},{"name":"D#3","midi":51,"time":35.57930149999997,"velocity":0.3858267716535433,"duration":0.09070130416666444},{"name":"B2","midi":47,"time":35.67076499999997,"velocity":0.3858267716535433,"duration":0.09070130416666444},{"name":"D#3","midi":51,"time":35.762228499999964,"velocity":0.3858267716535433,"duration":0.09070130416666444},{"name":"G#2","midi":44,"time":35.85369199999996,"velocity":0.3858267716535433,"duration":0.09070130416666444},{"name":"D#3","midi":51,"time":35.945155499999956,"velocity":0.3858267716535433,"duration":0.09070130416666444},{"name":"B2","midi":47,"time":36.03661899999995,"velocity":0.3858267716535433,"duration":0.09070130416666444},{"name":"D#3","midi":51,"time":36.12808249999995,"velocity":0.3858267716535433,"duration":0.09070130416666444},{"name":"G#2","midi":44,"time":36.219545999999944,"velocity":0.3858267716535433,"duration":0.09070130416666444},{"name":"D#3","midi":51,"time":36.31100949999994,"velocity":0.3858267716535433,"duration":0.09070130416666444},{"name":"B2","midi":47,"time":36.40247299999994,"velocity":0.3858267716535433,"duration":0.09070130416666444},{"name":"D#3","midi":51,"time":36.49393649999993,"velocity":0.3858267716535433,"duration":0.09070130416666444},{"name":"A#2","midi":46,"time":36.58539999999993,"velocity":0.3858267716535433,"duration":0.09070130416666444},{"name":"D#3","midi":51,"time":36.676863499999925,"velocity":0.3858267716535433,"duration":0.09070130416666444},{"name":"C#3","midi":49,"time":36.76832699999992,"velocity":0.3858267716535433,"duration":0.09070130416666444},{"name":"D#3","midi":51,"time":36.85979049999992,"velocity":0.3858267716535433,"duration":0.09070130416666444},{"name":"A#2","midi":46,"time":36.95125399999991,"velocity":0.3858267716535433,"duration":0.09070130416666444},{"name":"D#3","midi":51,"time":37.04271749999991,"velocity":0.3858267716535433,"duration":0.09070130416666444},{"name":"C#3","midi":49,"time":37.134180999999906,"velocity":0.3858267716535433,"duration":0.09070130416666444},{"name":"D#3","midi":51,"time":37.2256444999999,"velocity":0.3858267716535433,"duration":0.09070130416666444},{"name":"A#2","midi":46,"time":37.3171079999999,"velocity":0.3858267716535433,"duration":0.09070130416666444},{"name":"D#3","midi":51,"time":37.408571499999894,"velocity":0.3858267716535433,"duration":0.09070130416666444},{"name":"C#3","midi":49,"time":37.50003499999989,"velocity":0.3858267716535433,"duration":0.09070130416666444},{"name":"D#3","midi":51,"time":37.59149849999989,"velocity":0.3858267716535433,"duration":0.09070130416666444},{"name":"A#2","midi":46,"time":37.68296199999988,"velocity":0.3858267716535433,"duration":0.09070130416666444},{"name":"D#3","midi":51,"time":37.77442549999988,"velocity":0.3858267716535433,"duration":0.09070130416666444},{"name":"C#3","midi":49,"time":37.865888999999875,"velocity":0.3858267716535433,"duration":0.09070130416666444},{"name":"D#3","midi":51,"time":37.95735249999987,"velocity":0.3858267716535433,"duration":0.09070130416666444},{"name":"B2","midi":47,"time":38.04881599999987,"velocity":0.3858267716535433,"duration":0.09070130416666444},{"name":"D#3","midi":51,"time":38.14027949999986,"velocity":0.3858267716535433,"duration":0.09070130416666444},{"name":"B2","midi":47,"time":38.23174299999986,"velocity":0.3858267716535433,"duration":0.09070130416666444},{"name":"D#3","midi":51,"time":38.323206499999856,"velocity":0.3858267716535433,"duration":0.09070130416666444},{"name":"B2","midi":47,"time":38.41466999999985,"velocity":0.3858267716535433,"duration":0.09070130416666444},{"name":"D#3","midi":51,"time":38.50613349999985,"velocity":0.3858267716535433,"duration":0.09070130416666444},{"name":"B2","midi":47,"time":38.597596999999844,"velocity":0.3858267716535433,"duration":0.09070130416666444},{"name":"D#3","midi":51,"time":38.68906049999984,"velocity":0.3858267716535433,"duration":0.09070130416666444},{"name":"B2","midi":47,"time":38.780523999999836,"velocity":0.3858267716535433,"duration":0.09070130416666444},{"name":"D#3","midi":51,"time":38.87198749999983,"velocity":0.3858267716535433,"duration":0.09070130416666444},{"name":"B2","midi":47,"time":38.96345099999983,"velocity":0.3858267716535433,"duration":0.09070130416666444},{"name":"D#3","midi":51,"time":39.054914499999825,"velocity":0.3858267716535433,"duration":0.09070130416666444},{"name":"B2","midi":47,"time":39.14637799999982,"velocity":0.3858267716535433,"duration":0.09070130416666444},{"name":"D#3","midi":51,"time":39.23784149999982,"velocity":0.3858267716535433,"duration":0.09070130416666444},{"name":"B2","midi":47,"time":39.32930499999981,"velocity":0.3858267716535433,"duration":0.09070130416666444},{"name":"D#3","midi":51,"time":39.42076849999981,"velocity":0.3858267716535433,"duration":0.09070130416666444},{"name":"G2","midi":43,"time":39.512231999999806,"velocity":0.3858267716535433,"duration":0.09070130416666444},{"name":"D#3","midi":51,"time":39.6036954999998,"velocity":0.3858267716535433,"duration":0.09070130416666444},{"name":"G2","midi":43,"time":39.6951589999998,"velocity":0.3858267716535433,"duration":0.09070130416666444},{"name":"D#3","midi":51,"time":39.786622499999794,"velocity":0.3858267716535433,"duration":0.09070130416666444},{"name":"G2","midi":43,"time":39.87808599999979,"velocity":0.3858267716535433,"duration":0.09070130416666444},{"name":"D#3","midi":51,"time":39.969549499999786,"velocity":0.3858267716535433,"duration":0.09070130416666444},{"name":"G2","midi":43,"time":40.06101299999978,"velocity":0.3858267716535433,"duration":0.09070130416666444},{"name":"D#3","midi":51,"time":40.15247649999978,"velocity":0.3858267716535433,"duration":0.09070130416666444},{"name":"G2","midi":43,"time":40.243939999999775,"velocity":0.3858267716535433,"duration":0.09070130416666444},{"name":"D#3","midi":51,"time":40.33540349999977,"velocity":0.3858267716535433,"duration":0.09070130416666444},{"name":"G2","midi":43,"time":40.42686699999977,"velocity":0.3858267716535433,"duration":0.09070130416666444},{"name":"D#3","midi":51,"time":40.51833049999976,"velocity":0.3858267716535433,"duration":0.09070130416666444},{"name":"G2","midi":43,"time":40.60979399999976,"velocity":0.3858267716535433,"duration":0.09070130416666444},{"name":"D#3","midi":51,"time":40.701257499999755,"velocity":0.3858267716535433,"duration":0.09070130416666444},{"name":"G2","midi":43,"time":40.79272099999975,"velocity":0.3858267716535433,"duration":0.09070130416666444},{"name":"D#3","midi":51,"time":40.88418449999975,"velocity":0.3858267716535433,"duration":0.09070130416666444},{"name":"F#2","midi":42,"time":40.975647999999744,"velocity":0.3858267716535433,"duration":0.09070130416666444},{"name":"D#3","midi":51,"time":41.06711149999974,"velocity":0.3858267716535433,"duration":0.09070130416666444},{"name":"G#2","midi":44,"time":41.158574999999736,"velocity":0.3858267716535433,"duration":0.09070130416666444},{"name":"D#3","midi":51,"time":41.25003849999973,"velocity":0.3858267716535433,"duration":0.09070130416666444},{"name":"F#2","midi":42,"time":41.34150199999973,"velocity":0.3858267716535433,"duration":0.09070130416666444},{"name":"D#3","midi":51,"time":41.432965499999725,"velocity":0.3858267716535433,"duration":0.09070130416666444},{"name":"G#2","midi":44,"time":41.52442899999972,"velocity":0.3858267716535433,"duration":0.09070130416666444},{"name":"D#3","midi":51,"time":41.61589249999972,"velocity":0.3858267716535433,"duration":0.09070130416666444},{"name":"E2","midi":40,"time":41.70735599999971,"velocity":0.3858267716535433,"duration":0.09070130416666444},{"name":"C#3","midi":49,"time":41.79881949999971,"velocity":0.3858267716535433,"duration":0.09070130416666444},{"name":"G#2","midi":44,"time":41.890282999999705,"velocity":0.3858267716535433,"duration":0.09070130416666444},{"name":"C#3","midi":49,"time":41.9817464999997,"velocity":0.3858267716535433,"duration":0.09070130416666444},{"name":"E2","midi":40,"time":42.0732099999997,"velocity":0.3858267716535433,"duration":0.09070130416666444},{"name":"C#3","midi":49,"time":42.164673499999694,"velocity":0.3858267716535433,"duration":0.09070130416666444},{"name":"G#2","midi":44,"time":42.25613699999969,"velocity":0.3858267716535433,"duration":0.09070130416666444},{"name":"C#3","midi":49,"time":42.347600499999686,"velocity":0.3858267716535433,"duration":0.09070130416666444},{"name":"E2","midi":40,"time":42.43906399999968,"velocity":0.3858267716535433,"duration":0.09070130416666444},{"name":"C#3","midi":49,"time":42.53052749999968,"velocity":0.3858267716535433,"duration":0.09070130416666444},{"name":"F#2","midi":42,"time":42.621990999999674,"velocity":0.3858267716535433,"duration":0.09070130416666444},{"name":"C#3","midi":49,"time":42.71345449999967,"velocity":0.3858267716535433,"duration":0.09070130416666444},{"name":"D#2","midi":39,"time":42.80491799999967,"velocity":0.3858267716535433,"duration":0.09070130416666444},{"name":"B2","midi":47,"time":42.89638149999966,"velocity":0.3858267716535433,"duration":0.09070130416666444},{"name":"F#2","midi":42,"time":42.98784499999966,"velocity":0.3858267716535433,"duration":0.09070130416666444},{"name":"B2","midi":47,"time":43.079308499999655,"velocity":0.3858267716535433,"duration":0.09070130416666444},{"name":"D#2","midi":39,"time":43.17077199999965,"velocity":0.3858267716535433,"duration":0.09070130416666444},{"name":"B2","midi":47,"time":43.26223549999965,"velocity":0.3858267716535433,"duration":0.09070130416666444},{"name":"F#2","midi":42,"time":43.353698999999644,"velocity":0.3858267716535433,"duration":0.09070130416666444},{"name":"B2","midi":47,"time":43.44516249999964,"velocity":0.3858267716535433,"duration":0.09070130416666444},{"name":"D#2","midi":39,"time":43.536625999999636,"velocity":0.3858267716535433,"duration":0.09070130416666444},{"name":"B2","midi":47,"time":43.62808949999963,"velocity":0.3858267716535433,"duration":0.09070130416666444},{"name":"F#2","midi":42,"time":43.71955299999963,"velocity":0.3858267716535433,"duration":0.09070130416666444},{"name":"B2","midi":47,"time":43.811016499999624,"velocity":0.3858267716535433,"duration":0.09070130416666444},{"name":"D2","midi":38,"time":43.90247999999962,"velocity":0.3858267716535433,"duration":0.09070130416666444},{"name":"B2","midi":47,"time":43.99394349999962,"velocity":0.3858267716535433,"duration":0.09070130416666444},{"name":"E2","midi":40,"time":44.08540699999961,"velocity":0.3858267716535433,"duration":0.09070130416666444},{"name":"B2","midi":47,"time":44.17687049999961,"velocity":0.3858267716535433,"duration":0.09070130416666444},{"name":"D2","midi":38,"time":44.268333999999605,"velocity":0.3858267716535433,"duration":0.09070130416666444},{"name":"B2","midi":47,"time":44.3597974999996,"velocity":0.3858267716535433,"duration":0.09070130416666444},{"name":"E2","midi":40,"time":44.4512609999996,"velocity":0.3858267716535433,"duration":0.09070130416666444},{"name":"B2","midi":47,"time":44.54272449999959,"velocity":0.3858267716535433,"duration":0.09070130416666444},{"name":"C#2","midi":37,"time":44.63418799999959,"velocity":0.3858267716535433,"duration":0.09070130416666444},{"name":"A2","midi":45,"time":44.725651499999586,"velocity":0.3858267716535433,"duration":0.09070130416666444},{"name":"E2","midi":40,"time":44.81711499999958,"velocity":0.3858267716535433,"duration":0.09070130416666444},{"name":"A2","midi":45,"time":44.90857849999958,"velocity":0.3858267716535433,"duration":0.09070130416666444},{"name":"C#2","midi":37,"time":45.000041999999574,"velocity":0.3858267716535433,"duration":0.09070130416666444},{"name":"A2","midi":45,"time":45.09150549999957,"velocity":0.3858267716535433,"duration":0.09070130416666444},{"name":"E2","midi":40,"time":45.18296899999957,"velocity":0.3858267716535433,"duration":0.09070130416666444},{"name":"A2","midi":45,"time":45.27443249999956,"velocity":0.3858267716535433,"duration":0.09070130416666444},{"name":"C#2","midi":37,"time":45.36589599999956,"velocity":0.3858267716535433,"duration":0.09070130416666444},{"name":"A#2","midi":46,"time":45.457359499999555,"velocity":0.3858267716535433,"duration":0.09070130416666444},{"name":"D#2","midi":39,"time":45.54882299999955,"velocity":0.3858267716535433,"duration":0.09070130416666444},{"name":"A#2","midi":46,"time":45.64028649999955,"velocity":0.3858267716535433,"duration":0.09070130416666444},{"name":"B1","midi":35,"time":45.73174999999954,"velocity":0.3858267716535433,"duration":0.09070130416666444},{"name":"G#2","midi":44,"time":45.82321349999954,"velocity":0.3858267716535433,"duration":0.09070130416666444},{"name":"D#2","midi":39,"time":45.914676999999536,"velocity":0.3858267716535433,"duration":0.09070130416666444},{"name":"G#2","midi":44,"time":46.00614049999953,"velocity":0.3858267716535433,"duration":0.09070130416666444},{"name":"B1","midi":35,"time":46.09760399999953,"velocity":0.3858267716535433,"duration":0.09070130416666444},{"name":"G#2","midi":44,"time":46.189067499999524,"velocity":0.3858267716535433,"duration":0.09070130416666444},{"name":"D#2","midi":39,"time":46.28053099999952,"velocity":0.3858267716535433,"duration":0.09070130416666444},{"name":"G#2","midi":44,"time":46.371994499999516,"velocity":0.3858267716535433,"duration":0.09070130416666444},{"name":"B1","midi":35,"time":46.46345799999951,"velocity":0.3858267716535433,"duration":0.09070130416666444},{"name":"G#2","midi":44,"time":46.55492149999951,"velocity":0.3858267716535433,"duration":0.09070130416666444},{"name":"D#2","midi":39,"time":46.646384999999505,"velocity":0.3858267716535433,"duration":0.09070130416666444},{"name":"G#2","midi":44,"time":46.7378484999995,"velocity":0.3858267716535433,"duration":0.09070130416666444},{"name":"C#2","midi":37,"time":46.8293119999995,"velocity":0.8818897637795275,"duration":1.0967998041666647},{"name":"E2","midi":40,"time":46.8293119999995,"velocity":0.8818897637795275,"duration":1.0967998041666647},{"name":"A2","midi":45,"time":46.8293119999995,"velocity":0.8818897637795275,"duration":1.0967998041666647},{"name":"C#3","midi":49,"time":46.8293119999995,"velocity":0.8818897637795275,"duration":1.0967998041666647},{"name":"C#4","midi":61,"time":48.29272799999949,"velocity":0.3858267716535433,"duration":0.3650918041666671},{"name":"E4","midi":64,"time":48.29272799999949,"velocity":0.3858267716535433,"duration":0.3650918041666671},{"name":"A4","midi":69,"time":48.29272799999949,"velocity":0.3858267716535433,"duration":0.3650918041666671},{"name":"C#4","midi":61,"time":49.02443599999949,"velocity":0.3858267716535433,"duration":0.3650918041666671},{"name":"E4","midi":64,"time":49.02443599999949,"velocity":0.3858267716535433,"duration":0.3650918041666671},{"name":"A4","midi":69,"time":49.02443599999949,"velocity":0.3858267716535433,"duration":0.3650918041666671},{"name":"C#4","midi":61,"time":49.75614399999949,"velocity":0.3858267716535433,"duration":0.3650918041666671},{"name":"E4","midi":64,"time":49.75614399999949,"velocity":0.3858267716535433,"duration":0.3650918041666671},{"name":"A4","midi":69,"time":49.75614399999949,"velocity":0.3858267716535433,"duration":0.3650918041666671},{"name":"C#4","midi":61,"time":50.121997999999486,"velocity":0.4251968503937008,"duration":0.3650918041666671},{"name":"E4","midi":64,"time":50.121997999999486,"velocity":0.4251968503937008,"duration":0.3650918041666671},{"name":"A4","midi":69,"time":50.121997999999486,"velocity":0.4251968503937008,"duration":0.3650918041666671},{"name":"C#4","midi":61,"time":50.487851999999485,"velocity":0.44881889763779526,"duration":0.3650918041666671},{"name":"E4","midi":64,"time":50.487851999999485,"velocity":0.44881889763779526,"duration":0.3650918041666671},{"name":"A4","midi":69,"time":50.487851999999485,"velocity":0.44881889763779526,"duration":0.3650918041666671},{"name":"C#4","midi":61,"time":50.853705999999484,"velocity":0.48031496062992124,"duration":0.3650918041666671},{"name":"E4","midi":64,"time":50.853705999999484,"velocity":0.48031496062992124,"duration":0.3650918041666671},{"name":"A4","midi":69,"time":50.853705999999484,"velocity":0.48031496062992124,"duration":0.3650918041666671},{"name":"D#4","midi":63,"time":51.21955999999948,"velocity":0.3858267716535433,"duration":0.09070130416666444},{"name":"B4","midi":71,"time":51.31102349999948,"velocity":0.3858267716535433,"duration":0.09070130416666444},{"name":"G#4","midi":68,"time":51.402486999999475,"velocity":0.3858267716535433,"duration":0.09070130416666444},{"name":"B4","midi":71,"time":51.49395049999947,"velocity":0.3858267716535433,"duration":0.09070130416666444},{"name":"D#4","midi":63,"time":51.58541399999947,"velocity":0.3858267716535433,"duration":0.09070130416666444},{"name":"B4","midi":71,"time":51.67687749999946,"velocity":0.3858267716535433,"duration":0.09070130416666444},{"name":"G#4","midi":68,"time":51.76834099999946,"velocity":0.3858267716535433,"duration":0.09070130416666444},{"name":"B4","midi":71,"time":51.859804499999456,"velocity":0.3858267716535433,"duration":0.09070130416666444},{"name":"D#4","midi":63,"time":51.95126799999945,"velocity":0.3858267716535433,"duration":0.09070130416666444},{"name":"C#5","midi":73,"time":52.04273149999945,"velocity":0.3858267716535433,"duration":0.09070130416666444},{"name":"G4","midi":67,"time":52.134194999999444,"velocity":0.3858267716535433,"duration":0.09070130416666444},{"name":"C#5","midi":73,"time":52.22565849999944,"velocity":0.3858267716535433,"duration":0.09070130416666444},{"name":"D#4","midi":63,"time":52.317121999999436,"velocity":0.3858267716535433,"duration":0.09070130416666444},{"name":"C#5","midi":73,"time":52.40858549999943,"velocity":0.3858267716535433,"duration":0.09070130416666444},{"name":"G4","midi":67,"time":52.50004899999943,"velocity":0.3858267716535433,"duration":0.09070130416666444},{"name":"C#5","midi":73,"time":52.591512499999425,"velocity":0.3858267716535433,"duration":0.09070130416666444},{"name":"E4","midi":64,"time":52.68297599999942,"velocity":0.3858267716535433,"duration":0.1821648041666677},{"name":"G#4","midi":68,"time":52.68297599999942,"velocity":0.3858267716535433,"duration":0.1821648041666677},{"name":"B4","midi":71,"time":52.68297599999942,"velocity":0.3858267716535433,"duration":0.1821648041666677},{"name":"C#2","midi":37,"time":53.04882999999942,"velocity":0.8818897637795275,"duration":0.7309458041666659},{"name":"E2","midi":40,"time":53.04882999999942,"velocity":0.8818897637795275,"duration":0.7309458041666659},{"name":"A2","midi":45,"time":53.04882999999942,"velocity":0.8818897637795275,"duration":0.7309458041666659},{"name":"C#3","midi":49,"time":53.04882999999942,"velocity":0.8818897637795275,"duration":0.7309458041666659},{"name":"C#3","midi":49,"time":54.51224599999942,"velocity":0.3858267716535433,"duration":0.3650918041666671},{"name":"E3","midi":52,"time":54.51224599999942,"velocity":0.3858267716535433,"duration":0.3650918041666671},{"name":"A3","midi":57,"time":54.51224599999942,"velocity":0.3858267716535433,"duration":0.3650918041666671},{"name":"C#3","midi":49,"time":55.24395399999942,"velocity":0.3858267716535433,"duration":0.3650918041666671},{"name":"E3","midi":52,"time":55.24395399999942,"velocity":0.3858267716535433,"duration":0.3650918041666671},{"name":"A3","midi":57,"time":55.24395399999942,"velocity":0.3858267716535433,"duration":0.3650918041666671},{"name":"C#3","midi":49,"time":55.79273499999942,"velocity":0.41732283464566927,"duration":0.1821648041666677},{"name":"E3","midi":52,"time":55.79273499999942,"velocity":0.41732283464566927,"duration":0.1821648041666677},{"name":"A3","midi":57,"time":55.79273499999942,"velocity":0.41732283464566927,"duration":0.1821648041666677},{"name":"C#3","midi":49,"time":56.15858899999942,"velocity":0.4645669291338583,"duration":0.1821648041666677},{"name":"E3","midi":52,"time":56.15858899999942,"velocity":0.4645669291338583,"duration":0.1821648041666677},{"name":"A3","midi":57,"time":56.15858899999942,"velocity":0.4645669291338583,"duration":0.1821648041666677},{"name":"C#3","midi":49,"time":56.524442999999415,"velocity":0.5118110236220472,"duration":0.1821648041666677},{"name":"E3","midi":52,"time":56.524442999999415,"velocity":0.5118110236220472,"duration":0.1821648041666677},{"name":"A3","midi":57,"time":56.524442999999415,"velocity":0.5118110236220472,"duration":0.1821648041666677},{"name":"C#3","midi":49,"time":56.890296999999414,"velocity":0.5511811023622047,"duration":0.1821648041666677},{"name":"E3","midi":52,"time":56.890296999999414,"velocity":0.5511811023622047,"duration":0.1821648041666677},{"name":"A3","midi":57,"time":56.890296999999414,"velocity":0.5511811023622047,"duration":0.1821648041666677},{"name":"C#3","midi":49,"time":57.07322399999941,"velocity":0.5748031496062992,"duration":0.3650918041666671},{"name":"E3","midi":52,"time":57.07322399999941,"velocity":0.5748031496062992,"duration":0.3650918041666671},{"name":"A3","midi":57,"time":57.07322399999941,"velocity":0.5748031496062992,"duration":0.3650918041666671},{"name":"C#3","midi":49,"time":58.536639999999416,"velocity":0.7559055118110236,"duration":0.09070130416666444},{"name":"A3","midi":57,"time":58.62810349999941,"velocity":0.7559055118110236,"duration":0.09070130416666444},{"name":"E3","midi":52,"time":58.71956699999941,"velocity":0.7559055118110236,"duration":0.09070130416666444},{"name":"A3","midi":57,"time":58.811030499999404,"velocity":0.7559055118110236,"duration":0.09070130416666444},{"name":"C#3","midi":49,"time":58.9024939999994,"velocity":0.7559055118110236,"duration":0.09070130416666444},{"name":"A3","midi":57,"time":58.9939574999994,"velocity":0.7559055118110236,"duration":0.09070130416666444},{"name":"E3","midi":52,"time":59.08542099999939,"velocity":0.7559055118110236,"duration":0.09070130416666444},{"name":"A3","midi":57,"time":59.17688449999939,"velocity":0.7559055118110236,"duration":0.09070130416666444},{"name":"D3","midi":50,"time":59.268347999999385,"velocity":0.7559055118110236,"duration":0.09070130416666444},{"name":"B3","midi":59,"time":59.35981149999938,"velocity":0.7559055118110236,"duration":0.09070130416666444},{"name":"F3","midi":53,"time":59.45127499999938,"velocity":0.7559055118110236,"duration":0.09070130416666444},{"name":"B3","midi":59,"time":59.54273849999937,"velocity":0.7559055118110236,"duration":0.09070130416666444},{"name":"D3","midi":50,"time":59.63420199999937,"velocity":0.7559055118110236,"duration":0.09070130416666444},{"name":"B3","midi":59,"time":59.725665499999366,"velocity":0.7559055118110236,"duration":0.09070130416666444},{"name":"F3","midi":53,"time":59.81712899999936,"velocity":0.7559055118110236,"duration":0.09070130416666444},{"name":"B3","midi":59,"time":59.90859249999936,"velocity":0.7559055118110236,"duration":0.09070130416666444},{"name":"D#3","midi":51,"time":60.000055999999354,"velocity":0.7559055118110236,"duration":0.09070130416666444},{"name":"B3","midi":59,"time":60.09151949999935,"velocity":0.7559055118110236,"duration":0.09070130416666444},{"name":"G#3","midi":56,"time":60.182982999999346,"velocity":0.7559055118110236,"duration":0.09070130416666444},{"name":"B3","midi":59,"time":60.27444649999934,"velocity":0.7559055118110236,"duration":0.09070130416666444},{"name":"D#3","midi":51,"time":60.36590999999934,"velocity":0.7559055118110236,"duration":0.09070130416666444},{"name":"B3","midi":59,"time":60.457373499999335,"velocity":0.7559055118110236,"duration":0.09070130416666444},{"name":"G#3","midi":56,"time":60.54883699999933,"velocity":0.7559055118110236,"duration":0.09070130416666444},{"name":"B3","midi":59,"time":60.64030049999933,"velocity":0.7559055118110236,"duration":0.09070130416666444},{"name":"D#2","midi":39,"time":60.73176399999932,"velocity":0.7559055118110236,"duration":0.09070130416666444},{"name":"D#3","midi":51,"time":60.82322749999932,"velocity":0.7559055118110236,"duration":0.09070130416666444},{"name":"D3","midi":50,"time":60.914690999999316,"velocity":0.7559055118110236,"duration":0.09070130416666444},{"name":"D#3","midi":51,"time":61.00615449999931,"velocity":0.7559055118110236,"duration":0.09070130416666444},{"name":"D3","midi":50,"time":61.09761799999931,"velocity":0.7559055118110236,"duration":0.09070130416666444},{"name":"D#3","midi":51,"time":61.189081499999304,"velocity":0.7559055118110236,"duration":0.09070130416666444},{"name":"D3","midi":50,"time":61.2805449999993,"velocity":0.7559055118110236,"duration":0.09070130416666444},{"name":"D#3","midi":51,"time":61.372008499999296,"velocity":0.7559055118110236,"duration":0.09070130416666444},{"name":"G#2","midi":44,"time":61.46347199999929,"velocity":0.7559055118110236,"duration":0.1821648041666677},{"name":"G#3","midi":56,"time":61.64639899999929,"velocity":0.3858267716535433,"duration":0.09070130416666444},{"name":"G#3","midi":56,"time":61.82932599999929,"velocity":0.3858267716535433,"duration":0.09070130416666444},{"name":"G#3","midi":56,"time":62.01225299999929,"velocity":0.3858267716535433,"duration":0.09070130416666444},{"name":"G#3","midi":56,"time":62.19517999999929,"velocity":0.3858267716535433,"duration":0.09070130416666444},{"name":"G#3","midi":56,"time":62.37810699999929,"velocity":0.3858267716535433,"duration":0.09070130416666444},{"name":"A#3","midi":58,"time":62.56103399999929,"velocity":0.3858267716535433,"duration":0.09070130416666444},{"name":"B3","midi":59,"time":62.74396099999929,"velocity":0.3858267716535433,"duration":0.09070130416666444},{"name":"D#3","midi":51,"time":62.92688799999929,"velocity":0.3858267716535433,"duration":0.09070130416666444},{"name":"C#4","midi":61,"time":62.92688799999929,"velocity":0.3858267716535433,"duration":0.09070130416666444},{"name":"C#4","midi":61,"time":63.10981499999929,"velocity":0.3858267716535433,"duration":0.09070130416666444},{"name":"D#4","midi":63,"time":63.10981499999929,"velocity":0.3858267716535433,"duration":0.09070130416666444},{"name":"C#4","midi":61,"time":63.292741999999286,"velocity":0.3858267716535433,"duration":0.09070130416666444},{"name":"D#4","midi":63,"time":63.292741999999286,"velocity":0.3858267716535433,"duration":0.09070130416666444},{"name":"C#4","midi":61,"time":63.475668999999286,"velocity":0.3858267716535433,"duration":0.09070130416666444},{"name":"D#4","midi":63,"time":63.475668999999286,"velocity":0.3858267716535433,"duration":0.09070130416666444},{"name":"C#4","midi":61,"time":63.658595999999285,"velocity":0.3858267716535433,"duration":0.09070130416666444},{"name":"D#4","midi":63,"time":63.658595999999285,"velocity":0.3858267716535433,"duration":0.09070130416666444},{"name":"C#4","midi":61,"time":63.841522999999285,"velocity":0.3858267716535433,"duration":0.09070130416666444},{"name":"D#4","midi":63,"time":63.841522999999285,"velocity":0.3858267716535433,"duration":0.09070130416666444},{"name":"B3","midi":59,"time":64.02444999999928,"velocity":0.3858267716535433,"duration":0.09070130416667155},{"name":"D#4","midi":63,"time":64.02444999999928,"velocity":0.3858267716535433,"duration":0.09070130416667155},{"name":"A#3","midi":58,"time":64.20737699999928,"velocity":0.3858267716535433,"duration":0.09070130416667155},{"name":"D#4","midi":63,"time":64.20737699999928,"velocity":0.3858267716535433,"duration":0.09070130416667155},{"name":"G#2","midi":44,"time":64.39030399999929,"velocity":0.3858267716535433,"duration":0.09070130416667155},{"name":"G#3","midi":56,"time":64.39030399999929,"velocity":0.3858267716535433,"duration":0.09070130416667155},{"name":"G#3","midi":56,"time":64.5732309999993,"velocity":0.3858267716535433,"duration":0.09070130416667155},{"name":"G#3","midi":56,"time":64.7561579999993,"velocity":0.3858267716535433,"duration":0.09070130416667155},{"name":"G#3","midi":56,"time":64.93908499999931,"velocity":0.3858267716535433,"duration":0.09070130416667155},{"name":"G#3","midi":56,"time":65.12201199999932,"velocity":0.3858267716535433,"duration":0.09070130416667155},{"name":"G#3","midi":56,"time":65.30493899999932,"velocity":0.3858267716535433,"duration":0.09070130416667155},{"name":"A#3","midi":58,"time":65.48786599999933,"velocity":0.3858267716535433,"duration":0.09070130416667155},{"name":"B3","midi":59,"time":65.67079299999934,"velocity":0.3858267716535433,"duration":0.09070130416667155},{"name":"D#3","midi":51,"time":65.85371999999934,"velocity":0.3858267716535433,"duration":0.09070130416667155},{"name":"C#4","midi":61,"time":65.85371999999934,"velocity":0.3858267716535433,"duration":0.09070130416667155},{"name":"C#4","midi":61,"time":66.03664699999935,"velocity":0.3858267716535433,"duration":0.09070130416667155},{"name":"D#4","midi":63,"time":66.03664699999935,"velocity":0.3858267716535433,"duration":0.09070130416667155},{"name":"C#4","midi":61,"time":66.21957399999935,"velocity":0.3858267716535433,"duration":0.09070130416667155},{"name":"D#4","midi":63,"time":66.21957399999935,"velocity":0.3858267716535433,"duration":0.09070130416667155},{"name":"C#4","midi":61,"time":66.40250099999936,"velocity":0.3858267716535433,"duration":0.09070130416667155},{"name":"D#4","midi":63,"time":66.40250099999936,"velocity":0.3858267716535433,"duration":0.09070130416667155},{"name":"C#4","midi":61,"time":66.58542799999937,"velocity":0.3858267716535433,"duration":0.09070130416667155},{"name":"D#4","midi":63,"time":66.58542799999937,"velocity":0.3858267716535433,"duration":0.09070130416667155},{"name":"C#4","midi":61,"time":66.76835499999937,"velocity":0.3858267716535433,"duration":0.09070130416667155},{"name":"D#4","midi":63,"time":66.76835499999937,"velocity":0.3858267716535433,"duration":0.09070130416667155},{"name":"B3","midi":59,"time":66.95128199999938,"velocity":0.3858267716535433,"duration":0.09070130416667155},{"name":"D#4","midi":63,"time":66.95128199999938,"velocity":0.3858267716535433,"duration":0.09070130416667155},{"name":"A#3","midi":58,"time":67.13420899999939,"velocity":0.3858267716535433,"duration":0.09070130416667155},{"name":"D#4","midi":63,"time":67.13420899999939,"velocity":0.3858267716535433,"duration":0.09070130416667155},{"name":"G#2","midi":44,"time":67.3171359999994,"velocity":0.3858267716535433,"duration":0.09070130416667155},{"name":"G#3","midi":56,"time":67.5000629999994,"velocity":0.3858267716535433,"duration":0.09070130416667155},{"name":"B3","midi":59,"time":67.5000629999994,"velocity":0.3858267716535433,"duration":0.09070130416667155},{"name":"G#3","midi":56,"time":67.6829899999994,"velocity":0.3858267716535433,"duration":0.1821648041666606},{"name":"B3","midi":59,"time":67.6829899999994,"velocity":0.3858267716535433,"duration":0.1821648041666606},{"name":"B3","midi":59,"time":67.8659169999994,"velocity":0.3858267716535433,"duration":0.1821648041666606},{"name":"D#4","midi":63,"time":67.8659169999994,"velocity":0.3858267716535433,"duration":0.1821648041666606},{"name":"C#3","midi":49,"time":68.04884399999939,"velocity":0.3858267716535433,"duration":0.09070130416667155},{"name":"G#3","midi":56,"time":68.2317709999994,"velocity":0.3858267716535433,"duration":0.09070130416667155},{"name":"C#4","midi":61,"time":68.2317709999994,"velocity":0.3858267716535433,"duration":0.09070130416667155},{"name":"G#3","midi":56,"time":68.4146979999994,"velocity":0.3858267716535433,"duration":0.1821648041666606},{"name":"C#4","midi":61,"time":68.4146979999994,"velocity":0.3858267716535433,"duration":0.1821648041666606},{"name":"C#4","midi":61,"time":68.5976249999994,"velocity":0.3858267716535433,"duration":0.1821648041666606},{"name":"E4","midi":64,"time":68.5976249999994,"velocity":0.3858267716535433,"duration":0.1821648041666606},{"name":"D#3","midi":51,"time":68.78055199999939,"velocity":0.3858267716535433,"duration":0.09070130416667155},{"name":"G#3","midi":56,"time":68.9634789999994,"velocity":0.3858267716535433,"duration":0.09070130416667155},{"name":"B3","midi":59,"time":68.9634789999994,"velocity":0.3858267716535433,"duration":0.09070130416667155},{"name":"G#3","midi":56,"time":69.1464059999994,"velocity":0.3858267716535433,"duration":0.1821648041666606},{"name":"B3","midi":59,"time":69.1464059999994,"velocity":0.3858267716535433,"duration":0.1821648041666606},{"name":"B3","midi":59,"time":69.3293329999994,"velocity":0.3858267716535433,"duration":0.1821648041666606},{"name":"D#4","midi":63,"time":69.3293329999994,"velocity":0.3858267716535433,"duration":0.1821648041666606},{"name":"D#3","midi":51,"time":69.51225999999939,"velocity":0.3858267716535433,"duration":0.09070130416667155},{"name":"G3","midi":55,"time":69.6951869999994,"velocity":0.3858267716535433,"duration":0.09070130416667155},{"name":"A#3","midi":58,"time":69.6951869999994,"velocity":0.3858267716535433,"duration":0.09070130416667155},{"name":"G3","midi":55,"time":69.8781139999994,"velocity":0.3858267716535433,"duration":0.1821648041666606},{"name":"A#3","midi":58,"time":69.8781139999994,"velocity":0.3858267716535433,"duration":0.1821648041666606},{"name":"A#3","midi":58,"time":70.06104099999939,"velocity":0.3858267716535433,"duration":0.1821648041666606},{"name":"D#4","midi":63,"time":70.06104099999939,"velocity":0.3858267716535433,"duration":0.1821648041666606},{"name":"G#1","midi":32,"time":70.24396799999938,"velocity":0.3858267716535433,"duration":0.09070130416667155},{"name":"G#2","midi":44,"time":70.24396799999938,"velocity":0.3858267716535433,"duration":0.09070130416667155},{"name":"G#2","midi":44,"time":70.42689499999939,"velocity":0.3858267716535433,"duration":0.09070130416667155},{"name":"D#3","midi":51,"time":70.42689499999939,"velocity":0.3858267716535433,"duration":0.09070130416667155},{"name":"G#2","midi":44,"time":70.6098219999994,"velocity":0.3858267716535433,"duration":0.09070130416667155},{"name":"D#3","midi":51,"time":70.6098219999994,"velocity":0.3858267716535433,"duration":0.09070130416667155},{"name":"G#2","midi":44,"time":70.7927489999994,"velocity":0.3858267716535433,"duration":0.09070130416667155},{"name":"D#3","midi":51,"time":70.7927489999994,"velocity":0.3858267716535433,"duration":0.09070130416667155},{"name":"G#2","midi":44,"time":70.97567599999941,"velocity":0.4881889763779528,"duration":0.09070130416667155},{"name":"D#3","midi":51,"time":70.97567599999941,"velocity":0.4881889763779528,"duration":0.09070130416667155},{"name":"G#2","midi":44,"time":71.15860299999942,"velocity":0.5433070866141733,"duration":0.09070130416667155},{"name":"D#3","midi":51,"time":71.15860299999942,"velocity":0.5433070866141733,"duration":0.09070130416667155},{"name":"A#2","midi":46,"time":71.34152999999942,"velocity":0.5984251968503937,"duration":0.09070130416667155},{"name":"D#3","midi":51,"time":71.34152999999942,"velocity":0.5984251968503937,"duration":0.09070130416667155},{"name":"B2","midi":47,"time":71.52445699999943,"velocity":0.6535433070866141,"duration":0.09070130416667155},{"name":"D#3","midi":51,"time":71.52445699999943,"velocity":0.6535433070866141,"duration":0.09070130416667155},{"name":"D#2","midi":39,"time":71.70738399999944,"velocity":0.7007874015748031,"duration":0.09070130416667155},{"name":"C#3","midi":49,"time":71.70738399999944,"velocity":0.7007874015748031,"duration":0.09070130416667155},{"name":"D#3","midi":51,"time":71.70738399999944,"velocity":0.7007874015748031,"duration":0.09070130416667155},{"name":"D#3","midi":51,"time":71.89031099999944,"velocity":0.7559055118110236,"duration":0.09070130416667155},{"name":"C#4","midi":61,"time":71.89031099999944,"velocity":0.7559055118110236,"duration":0.09070130416667155},{"name":"D#3","midi":51,"time":72.07323799999945,"velocity":0.7559055118110236,"duration":0.09070130416667155},{"name":"C#4","midi":61,"time":72.07323799999945,"velocity":0.7559055118110236,"duration":0.09070130416667155},{"name":"D#3","midi":51,"time":72.25616499999946,"velocity":0.7559055118110236,"duration":0.09070130416667155},{"name":"C#4","midi":61,"time":72.25616499999946,"velocity":0.7559055118110236,"duration":0.09070130416667155},{"name":"D#3","midi":51,"time":72.43909199999946,"velocity":0.7559055118110236,"duration":0.09070130416667155},{"name":"C#4","midi":61,"time":72.43909199999946,"velocity":0.7559055118110236,"duration":0.09070130416667155},{"name":"D#3","midi":51,"time":72.62201899999947,"velocity":0.7559055118110236,"duration":0.09070130416667155},{"name":"C#4","midi":61,"time":72.62201899999947,"velocity":0.7559055118110236,"duration":0.09070130416667155},{"name":"D#3","midi":51,"time":72.80494599999948,"velocity":0.7559055118110236,"duration":0.09070130416667155},{"name":"B3","midi":59,"time":72.80494599999948,"velocity":0.7559055118110236,"duration":0.09070130416667155},{"name":"D#3","midi":51,"time":72.98787299999948,"velocity":0.7559055118110236,"duration":0.09070130416667155},{"name":"A#3","midi":58,"time":72.98787299999948,"velocity":0.7559055118110236,"duration":0.09070130416667155},{"name":"G#1","midi":32,"time":73.17079999999949,"velocity":0.7559055118110236,"duration":0.09070130416667155},{"name":"G#2","midi":44,"time":73.17079999999949,"velocity":0.7559055118110236,"duration":0.09070130416667155},{"name":"G#2","midi":44,"time":73.3537269999995,"velocity":0.3858267716535433,"duration":0.09070130416667155},{"name":"D#3","midi":51,"time":73.3537269999995,"velocity":0.3858267716535433,"duration":0.09070130416667155},{"name":"G#2","midi":44,"time":73.5366539999995,"velocity":0.3858267716535433,"duration":0.09070130416667155},{"name":"D#3","midi":51,"time":73.5366539999995,"velocity":0.3858267716535433,"duration":0.09070130416667155},{"name":"G#2","midi":44,"time":73.71958099999951,"velocity":0.3858267716535433,"duration":0.09070130416667155},{"name":"D#3","midi":51,"time":73.71958099999951,"velocity":0.3858267716535433,"duration":0.09070130416667155},{"name":"G#2","midi":44,"time":73.90250799999951,"velocity":0.4881889763779528,"duration":0.09070130416667155},{"name":"D#3","midi":51,"time":73.90250799999951,"velocity":0.4881889763779528,"duration":0.09070130416667155},{"name":"G#2","midi":44,"time":74.08543499999952,"velocity":0.5433070866141733,"duration":0.09070130416667155},{"name":"D#3","midi":51,"time":74.08543499999952,"velocity":0.5433070866141733,"duration":0.09070130416667155},{"name":"A#2","midi":46,"time":74.26836199999953,"velocity":0.5984251968503937,"duration":0.09070130416667155},{"name":"D#3","midi":51,"time":74.26836199999953,"velocity":0.5984251968503937,"duration":0.09070130416667155},{"name":"B2","midi":47,"time":74.45128899999953,"velocity":0.6535433070866141,"duration":0.09070130416667155},{"name":"D#3","midi":51,"time":74.45128899999953,"velocity":0.6535433070866141,"duration":0.09070130416667155},{"name":"D#2","midi":39,"time":74.63421599999954,"velocity":0.7007874015748031,"duration":0.09070130416667155},{"name":"C#3","midi":49,"time":74.63421599999954,"velocity":0.7007874015748031,"duration":0.09070130416667155},{"name":"D#3","midi":51,"time":74.63421599999954,"velocity":0.7007874015748031,"duration":0.09070130416667155},{"name":"D#3","midi":51,"time":74.81714299999955,"velocity":0.7559055118110236,"duration":0.09070130416667155},{"name":"C#4","midi":61,"time":74.81714299999955,"velocity":0.7559055118110236,"duration":0.09070130416667155},{"name":"D#3","midi":51,"time":75.00006999999955,"velocity":0.7559055118110236,"duration":0.09070130416667155},{"name":"C#4","midi":61,"time":75.00006999999955,"velocity":0.7559055118110236,"duration":0.09070130416667155},{"name":"D#3","midi":51,"time":75.18299699999956,"velocity":0.7559055118110236,"duration":0.09070130416667155},{"name":"C#4","midi":61,"time":75.18299699999956,"velocity":0.7559055118110236,"duration":0.09070130416667155},{"name":"D#3","midi":51,"time":75.36592399999957,"velocity":0.7559055118110236,"duration":0.09070130416667155},{"name":"C#4","midi":61,"time":75.36592399999957,"velocity":0.7559055118110236,"duration":0.09070130416667155},{"name":"D#3","midi":51,"time":75.54885099999957,"velocity":0.7559055118110236,"duration":0.09070130416667155},{"name":"C#4","midi":61,"time":75.54885099999957,"velocity":0.7559055118110236,"duration":0.09070130416667155},{"name":"D#3","midi":51,"time":75.73177799999958,"velocity":0.7559055118110236,"duration":0.09070130416667155},{"name":"B3","midi":59,"time":75.73177799999958,"velocity":0.7559055118110236,"duration":0.09070130416667155},{"name":"D#3","midi":51,"time":75.91470499999959,"velocity":0.7559055118110236,"duration":0.09070130416667155},{"name":"A#3","midi":58,"time":75.91470499999959,"velocity":0.7559055118110236,"duration":0.09070130416667155},{"name":"G#2","midi":44,"time":76.09763199999959,"velocity":0.7559055118110236,"duration":0.09070130416667155},{"name":"G#3","midi":56,"time":76.09763199999959,"velocity":0.7559055118110236,"duration":0.09070130416667155},{"name":"B3","midi":59,"time":76.2805589999996,"velocity":0.3858267716535433,"duration":0.09070130416667155},{"name":"D#4","midi":63,"time":76.2805589999996,"velocity":0.3858267716535433,"duration":0.09070130416667155},{"name":"B3","midi":59,"time":76.4634859999996,"velocity":0.3858267716535433,"duration":0.1821648041666606},{"name":"D#4","midi":63,"time":76.4634859999996,"velocity":0.3858267716535433,"duration":0.1821648041666606},{"name":"G#3","midi":56,"time":76.6464129999996,"velocity":0.3858267716535433,"duration":0.1821648041666606},{"name":"B3","midi":59,"time":76.6464129999996,"velocity":0.3858267716535433,"duration":0.1821648041666606},{"name":"C#3","midi":49,"time":76.82933999999959,"velocity":0.3858267716535433,"duration":0.09070130416667155},{"name":"C#4","midi":61,"time":77.0122669999996,"velocity":0.3858267716535433,"duration":0.09070130416667155},{"name":"E4","midi":64,"time":77.0122669999996,"velocity":0.3858267716535433,"duration":0.09070130416667155},{"name":"C#4","midi":61,"time":77.1951939999996,"velocity":0.3858267716535433,"duration":0.1821648041666606},{"name":"E4","midi":64,"time":77.1951939999996,"velocity":0.3858267716535433,"duration":0.1821648041666606},{"name":"G#3","midi":56,"time":77.3781209999996,"velocity":0.3858267716535433,"duration":0.1821648041666606},{"name":"C#4","midi":61,"time":77.3781209999996,"velocity":0.3858267716535433,"duration":0.1821648041666606},{"name":"D#3","midi":51,"time":77.56104799999959,"velocity":0.3858267716535433,"duration":0.09070130416667155},{"name":"B3","midi":59,"time":77.7439749999996,"velocity":0.3858267716535433,"duration":0.09070130416667155},{"name":"D#4","midi":63,"time":77.7439749999996,"velocity":0.3858267716535433,"duration":0.09070130416667155},{"name":"B3","midi":59,"time":77.9269019999996,"velocity":0.3858267716535433,"duration":0.1821648041666606},{"name":"D#4","midi":63,"time":77.9269019999996,"velocity":0.3858267716535433,"duration":0.1821648041666606},{"name":"G#3","midi":56,"time":78.10982899999959,"velocity":0.3858267716535433,"duration":0.1821648041666606},{"name":"B3","midi":59,"time":78.10982899999959,"velocity":0.3858267716535433,"duration":0.1821648041666606},{"name":"C#3","midi":49,"time":78.29275599999959,"velocity":0.3858267716535433,"duration":0.09070130416667155},{"name":"A#3","midi":58,"time":78.47568299999959,"velocity":0.3858267716535433,"duration":0.09070130416667155},{"name":"D#4","midi":63,"time":78.47568299999959,"velocity":0.3858267716535433,"duration":0.09070130416667155},{"name":"A#3","midi":58,"time":78.6586099999996,"velocity":0.3858267716535433,"duration":0.1821648041666606},{"name":"D#4","midi":63,"time":78.6586099999996,"velocity":0.3858267716535433,"duration":0.1821648041666606},{"name":"G3","midi":55,"time":78.84153699999959,"velocity":0.3858267716535433,"duration":0.1821648041666606},{"name":"A#3","midi":58,"time":78.84153699999959,"velocity":0.3858267716535433,"duration":0.1821648041666606},{"name":"B2","midi":47,"time":79.02446399999958,"velocity":0.3858267716535433,"duration":0.09070130416667155},{"name":"D#4","midi":63,"time":79.20739099999959,"velocity":0.3858267716535433,"duration":0.09070130416667155},{"name":"G#4","midi":68,"time":79.20739099999959,"velocity":0.3858267716535433,"duration":0.09070130416667155},{"name":"D#4","midi":63,"time":79.3903179999996,"velocity":0.4094488188976378,"duration":0.1821648041666606},{"name":"G#4","midi":68,"time":79.3903179999996,"velocity":0.4094488188976378,"duration":0.1821648041666606},{"name":"B3","midi":59,"time":79.57324499999959,"velocity":0.41732283464566927,"duration":0.1821648041666606},{"name":"D#4","midi":63,"time":79.57324499999959,"velocity":0.41732283464566927,"duration":0.1821648041666606},{"name":"C#3","midi":49,"time":79.75617199999958,"velocity":0.4251968503937008,"duration":0.09070130416667155},{"name":"E4","midi":64,"time":79.93909899999959,"velocity":0.4409448818897638,"duration":0.09070130416667155},{"name":"A4","midi":69,"time":79.93909899999959,"velocity":0.4409448818897638,"duration":0.09070130416667155},{"name":"E4","midi":64,"time":80.1220259999996,"velocity":0.44881889763779526,"duration":0.1821648041666606},{"name":"A4","midi":69,"time":80.1220259999996,"velocity":0.44881889763779526,"duration":0.1821648041666606},{"name":"C#4","midi":61,"time":80.30495299999959,"velocity":0.4645669291338583,"duration":0.1821648041666606},{"name":"E4","midi":64,"time":80.30495299999959,"velocity":0.4645669291338583,"duration":0.1821648041666606},{"name":"D#3","midi":51,"time":80.48787999999958,"velocity":0.47244094488188976,"duration":0.09070130416667155},{"name":"D#4","midi":63,"time":80.67080699999958,"velocity":0.48031496062992124,"duration":0.09070130416667155},{"name":"G#4","midi":68,"time":80.67080699999958,"velocity":0.48031496062992124,"duration":0.09070130416667155},{"name":"D#4","midi":63,"time":80.85373399999959,"velocity":0.49606299212598426,"duration":0.1821648041666606},{"name":"G#4","midi":68,"time":80.85373399999959,"velocity":0.49606299212598426,"duration":0.1821648041666606},{"name":"B3","midi":59,"time":81.03666099999958,"velocity":0.5039370078740157,"duration":0.1821648041666606},{"name":"D#4","midi":63,"time":81.03666099999958,"velocity":0.5039370078740157,"duration":0.1821648041666606},{"name":"D#3","midi":51,"time":81.21958799999958,"velocity":0.4645669291338583,"duration":0.09070130416667155},{"name":"C#4","midi":61,"time":81.40251499999958,"velocity":0.44881889763779526,"duration":0.09070130416667155},{"name":"G4","midi":67,"time":81.40251499999958,"velocity":0.44881889763779526,"duration":0.09070130416667155},{"name":"C#4","midi":61,"time":81.58544199999959,"velocity":0.4251968503937008,"duration":0.1821648041666606},{"name":"G4","midi":67,"time":81.58544199999959,"velocity":0.4251968503937008,"duration":0.1821648041666606},{"name":"A#3","midi":58,"time":81.76836899999958,"velocity":0.4094488188976378,"duration":0.1821648041666606},{"name":"C#4","midi":61,"time":81.76836899999958,"velocity":0.4094488188976378,"duration":0.1821648041666606},{"name":"G#2","midi":44,"time":81.95129599999957,"velocity":0.3858267716535433,"duration":0.09070130416667155},{"name":"G#3","midi":56,"time":82.04275949999958,"velocity":0.3858267716535433,"duration":0.09070130416667155},{"name":"D#3","midi":51,"time":82.13422299999958,"velocity":0.3858267716535433,"duration":0.09070130416667155},{"name":"G#3","midi":56,"time":82.22568649999958,"velocity":0.3858267716535433,"duration":0.09070130416667155},{"name":"G#2","midi":44,"time":82.31714999999959,"velocity":0.3858267716535433,"duration":0.09070130416667155},{"name":"G#3","midi":56,"time":82.40861349999959,"velocity":0.3858267716535433,"duration":0.09070130416667155},{"name":"D#3","midi":51,"time":82.50007699999959,"velocity":0.3858267716535433,"duration":0.09070130416667155},{"name":"G#3","midi":56,"time":82.5915404999996,"velocity":0.3858267716535433,"duration":0.09070130416667155},{"name":"G#2","midi":44,"time":82.6830039999996,"velocity":0.3858267716535433,"duration":0.09070130416667155},{"name":"G#3","midi":56,"time":82.7744674999996,"velocity":0.3858267716535433,"duration":0.09070130416667155},{"name":"D#3","midi":51,"time":82.8659309999996,"velocity":0.3858267716535433,"duration":0.09070130416667155},{"name":"G#3","midi":56,"time":82.95739449999961,"velocity":0.3858267716535433,"duration":0.09070130416667155},{"name":"G#2","midi":44,"time":83.04885799999961,"velocity":0.3858267716535433,"duration":0.09070130416667155},{"name":"G#3","midi":56,"time":83.14032149999962,"velocity":0.3858267716535433,"duration":0.09070130416667155},{"name":"D#3","midi":51,"time":83.23178499999962,"velocity":0.3858267716535433,"duration":0.09070130416667155},{"name":"G#3","midi":56,"time":83.32324849999962,"velocity":0.3858267716535433,"duration":0.09070130416667155},{"name":"G#2","midi":44,"time":83.41471199999962,"velocity":0.3858267716535433,"duration":0.09070130416667155},{"name":"A#3","midi":58,"time":83.50617549999963,"velocity":0.3858267716535433,"duration":0.09070130416667155},{"name":"D#3","midi":51,"time":83.59763899999963,"velocity":0.3858267716535433,"duration":0.09070130416667155},{"name":"A#3","midi":58,"time":83.68910249999963,"velocity":0.3858267716535433,"duration":0.09070130416667155},{"name":"G#2","midi":44,"time":83.78056599999964,"velocity":0.3858267716535433,"duration":0.09070130416667155},{"name":"A#3","midi":58,"time":83.87202949999964,"velocity":0.3858267716535433,"duration":0.09070130416667155},{"name":"D#3","midi":51,"time":83.96349299999964,"velocity":0.3858267716535433,"duration":0.09070130416667155},{"name":"A#3","midi":58,"time":84.05495649999965,"velocity":0.3858267716535433,"duration":0.09070130416667155},{"name":"G#2","midi":44,"time":84.14641999999965,"velocity":0.3858267716535433,"duration":0.09070130416667155},{"name":"A#3","midi":58,"time":84.23788349999965,"velocity":0.3858267716535433,"duration":0.09070130416667155},{"name":"D#3","midi":51,"time":84.32934699999966,"velocity":0.3858267716535433,"duration":0.09070130416667155},{"name":"A#3","midi":58,"time":84.42081049999966,"velocity":0.3858267716535433,"duration":0.09070130416667155},{"name":"G#2","midi":44,"time":84.51227399999966,"velocity":0.3858267716535433,"duration":0.09070130416667155},{"name":"A#3","midi":58,"time":84.60373749999967,"velocity":0.3858267716535433,"duration":0.09070130416667155},{"name":"D#3","midi":51,"time":84.69520099999967,"velocity":0.3858267716535433,"duration":0.09070130416667155},{"name":"A#3","midi":58,"time":84.78666449999967,"velocity":0.3858267716535433,"duration":0.09070130416667155},{"name":"G#2","midi":44,"time":84.87812799999968,"velocity":0.3858267716535433,"duration":0.09070130416667155},{"name":"G#3","midi":56,"time":84.96959149999968,"velocity":0.3858267716535433,"duration":0.09070130416667155},{"name":"D#3","midi":51,"time":85.06105499999968,"velocity":0.3858267716535433,"duration":0.09070130416667155},{"name":"G#3","midi":56,"time":85.15251849999969,"velocity":0.3858267716535433,"duration":0.09070130416667155},{"name":"G#2","midi":44,"time":85.24398199999969,"velocity":0.3858267716535433,"duration":0.09070130416667155},{"name":"G#3","midi":56,"time":85.3354454999997,"velocity":0.3858267716535433,"duration":0.09070130416667155},{"name":"D#3","midi":51,"time":85.4269089999997,"velocity":0.3858267716535433,"duration":0.09070130416667155},{"name":"G#3","midi":56,"time":85.5183724999997,"velocity":0.3858267716535433,"duration":0.09070130416667155},{"name":"G#2","midi":44,"time":85.6098359999997,"velocity":0.3858267716535433,"duration":0.09070130416667155},{"name":"G#3","midi":56,"time":85.7012994999997,"velocity":0.3858267716535433,"duration":0.09070130416667155},{"name":"D#3","midi":51,"time":85.79276299999971,"velocity":0.3858267716535433,"duration":0.09070130416667155},{"name":"G#3","midi":56,"time":85.88422649999971,"velocity":0.3858267716535433,"duration":0.09070130416667155},{"name":"G#2","midi":44,"time":85.97568999999972,"velocity":0.3858267716535433,"duration":0.09070130416667155},{"name":"G#3","midi":56,"time":86.06715349999972,"velocity":0.3858267716535433,"duration":0.09070130416667155},{"name":"D#3","midi":51,"time":86.15861699999972,"velocity":0.3858267716535433,"duration":0.09070130416667155},{"name":"G#3","midi":56,"time":86.25008049999973,"velocity":0.3858267716535433,"duration":0.09070130416667155},{"name":"G#2","midi":44,"time":86.34154399999973,"velocity":0.3858267716535433,"duration":0.09070130416667155},{"name":"A#3","midi":58,"time":86.43300749999973,"velocity":0.3858267716535433,"duration":0.09070130416667155},{"name":"D#3","midi":51,"time":86.52447099999974,"velocity":0.3858267716535433,"duration":0.09070130416667155},{"name":"A#3","midi":58,"time":86.61593449999974,"velocity":0.3858267716535433,"duration":0.09070130416667155},{"name":"G#2","midi":44,"time":86.70739799999974,"velocity":0.3858267716535433,"duration":0.09070130416667155},{"name":"A#3","midi":58,"time":86.79886149999975,"velocity":0.3858267716535433,"duration":0.09070130416667155},{"name":"D#3","midi":51,"time":86.89032499999975,"velocity":0.3858267716535433,"duration":0.09070130416667155},{"name":"A#3","midi":58,"time":86.98178849999975,"velocity":0.3858267716535433,"duration":0.09070130416667155},{"name":"G#2","midi":44,"time":87.07325199999975,"velocity":0.3858267716535433,"duration":0.09070130416667155},{"name":"A#3","midi":58,"time":87.16471549999976,"velocity":0.3858267716535433,"duration":0.09070130416667155},{"name":"D#3","midi":51,"time":87.25617899999976,"velocity":0.3858267716535433,"duration":0.09070130416667155},{"name":"A#3","midi":58,"time":87.34764249999976,"velocity":0.3858267716535433,"duration":0.09070130416667155},{"name":"G#2","midi":44,"time":87.43910599999977,"velocity":0.3858267716535433,"duration":0.09070130416667155},{"name":"A#3","midi":58,"time":87.53056949999977,"velocity":0.3858267716535433,"duration":0.09070130416667155},{"name":"D#3","midi":51,"time":87.62203299999977,"velocity":0.3858267716535433,"duration":0.09070130416667155},{"name":"A#3","midi":58,"time":87.71349649999978,"velocity":0.3858267716535433,"duration":0.09070130416667155},{"name":"G#2","midi":44,"time":87.80495999999978,"velocity":0.3858267716535433,"duration":0.09070130416667155},{"name":"G#3","midi":56,"time":87.89642349999978,"velocity":0.3858267716535433,"duration":0.09070130416667155},{"name":"D#3","midi":51,"time":87.98788699999979,"velocity":0.3858267716535433,"duration":0.09070130416667155},{"name":"G#3","midi":56,"time":88.07935049999979,"velocity":0.3858267716535433,"duration":0.09070130416667155},{"name":"G#2","midi":44,"time":88.1708139999998,"velocity":0.3858267716535433,"duration":0.09070130416667155},{"name":"G#3","midi":56,"time":88.2622774999998,"velocity":0.3858267716535433,"duration":0.09070130416667155},{"name":"D#3","midi":51,"time":88.3537409999998,"velocity":0.3858267716535433,"duration":0.09070130416667155},{"name":"G#3","midi":56,"time":88.4452044999998,"velocity":0.3858267716535433,"duration":0.09070130416667155},{"name":"G#2","midi":44,"time":88.5366679999998,"velocity":0.3858267716535433,"duration":0.09070130416667155},{"name":"A#3","midi":58,"time":88.62813149999981,"velocity":0.3858267716535433,"duration":0.09070130416667155},{"name":"D#3","midi":51,"time":88.71959499999981,"velocity":0.3858267716535433,"duration":0.09070130416667155},{"name":"A#3","midi":58,"time":88.81105849999982,"velocity":0.3858267716535433,"duration":0.09070130416667155},{"name":"G#2","midi":44,"time":88.90252199999982,"velocity":0.3858267716535433,"duration":0.09070130416667155},{"name":"A#3","midi":58,"time":88.99398549999982,"velocity":0.3858267716535433,"duration":0.09070130416667155},{"name":"D#3","midi":51,"time":89.08544899999983,"velocity":0.3858267716535433,"duration":0.09070130416667155},{"name":"A#3","midi":58,"time":89.17691249999983,"velocity":0.3858267716535433,"duration":0.09070130416667155},{"name":"G#2","midi":44,"time":89.26837599999983,"velocity":0.3858267716535433,"duration":0.09070130416667155},{"name":"G#3","midi":56,"time":89.35983949999984,"velocity":0.3858267716535433,"duration":0.09070130416667155},{"name":"D#3","midi":51,"time":89.45130299999984,"velocity":0.3858267716535433,"duration":0.09070130416667155},{"name":"G#3","midi":56,"time":89.54276649999984,"velocity":0.3858267716535433,"duration":0.09070130416667155},{"name":"G#2","midi":44,"time":89.63422999999985,"velocity":0.3858267716535433,"duration":0.09070130416667155},{"name":"G#3","midi":56,"time":89.72569349999985,"velocity":0.3858267716535433,"duration":0.09070130416667155},{"name":"D#3","midi":51,"time":89.81715699999985,"velocity":0.3858267716535433,"duration":0.09070130416667155},{"name":"G#3","midi":56,"time":89.90862049999986,"velocity":0.3858267716535433,"duration":0.09070130416667155},{"name":"G#2","midi":44,"time":90.00008399999986,"velocity":0.3858267716535433,"duration":0.09070130416667155},{"name":"A#3","midi":58,"time":90.09154749999986,"velocity":0.3858267716535433,"duration":0.09070130416667155},{"name":"D#3","midi":51,"time":90.18301099999987,"velocity":0.3858267716535433,"duration":0.09070130416667155},{"name":"A#3","midi":58,"time":90.27447449999987,"velocity":0.3858267716535433,"duration":0.09070130416667155},{"name":"G#2","midi":44,"time":90.36593799999987,"velocity":0.3858267716535433,"duration":0.09070130416667155},{"name":"A#3","midi":58,"time":90.45740149999988,"velocity":0.3858267716535433,"duration":0.09070130416667155},{"name":"D#3","midi":51,"time":90.54886499999988,"velocity":0.3858267716535433,"duration":0.09070130416667155},{"name":"A#3","midi":58,"time":90.64032849999988,"velocity":0.3858267716535433,"duration":0.09070130416667155},{"name":"G#2","midi":44,"time":90.73179199999988,"velocity":0.3858267716535433,"duration":0.09070130416667155},{"name":"G#3","midi":56,"time":90.82325549999989,"velocity":0.4094488188976378,"duration":0.09070130416667155},{"name":"D#3","midi":51,"time":90.91471899999989,"velocity":0.41732283464566927,"duration":0.09070130416667155},{"name":"G#3","midi":56,"time":91.0061824999999,"velocity":0.4330708661417323,"duration":0.09070130416667155},{"name":"G#2","midi":44,"time":91.0976459999999,"velocity":0.4409448818897638,"duration":0.09070130416667155},{"name":"G#3","midi":56,"time":91.1891094999999,"velocity":0.4566929133858268,"duration":0.09070130416667155},{"name":"D#3","midi":51,"time":91.2805729999999,"velocity":0.4645669291338583,"duration":0.09070130416667155},{"name":"G#3","midi":56,"time":91.37203649999991,"velocity":0.47244094488188976,"duration":0.09070130416667155},{"name":"G#2","midi":44,"time":91.46349999999991,"velocity":0.4881889763779528,"duration":0.09070130416667155},{"name":"G#3","midi":56,"time":91.55496349999991,"velocity":0.49606299212598426,"duration":0.09070130416667155},{"name":"D#3","midi":51,"time":91.64642699999992,"velocity":0.5118110236220472,"duration":0.09070130416667155},{"name":"G#3","midi":56,"time":91.73789049999992,"velocity":0.5196850393700787,"duration":0.09070130416667155},{"name":"G#2","midi":44,"time":91.82935399999992,"velocity":0.5354330708661418,"duration":0.09070130416667155},{"name":"G#3","midi":56,"time":91.92081749999993,"velocity":0.5433070866141733,"duration":0.09070130416667155},{"name":"D#3","midi":51,"time":92.01228099999993,"velocity":0.5511811023622047,"duration":0.09070130416667155},{"name":"G#3","midi":56,"time":92.10374449999993,"velocity":0.5669291338582677,"duration":0.09070130416667155},{"name":"G#2","midi":44,"time":92.19520799999994,"velocity":0.5748031496062992,"duration":0.09070130416667155},{"name":"F#3","midi":54,"time":92.28667149999994,"velocity":0.5905511811023622,"duration":0.09070130416667155},{"name":"D#3","midi":51,"time":92.37813499999994,"velocity":0.5984251968503937,"duration":0.09070130416667155},{"name":"F#3","midi":54,"time":92.46959849999995,"velocity":0.6062992125984252,"duration":0.09070130416667155},{"name":"G#2","midi":44,"time":92.56106199999995,"velocity":0.6220472440944882,"duration":0.09070130416667155},{"name":"F#3","midi":54,"time":92.65252549999995,"velocity":0.6299212598425197,"duration":0.09070130416667155},{"name":"D#3","midi":51,"time":92.74398899999996,"velocity":0.6456692913385826,"duration":0.09070130416667155},{"name":"F#3","midi":54,"time":92.83545249999996,"velocity":0.6535433070866141,"duration":0.09070130416667155},{"name":"G#2","midi":44,"time":92.92691599999996,"velocity":0.6692913385826772,"duration":0.09070130416667155},{"name":"F#3","midi":54,"time":93.01837949999997,"velocity":0.6771653543307087,"duration":0.09070130416667155},{"name":"D#3","midi":51,"time":93.10984299999997,"velocity":0.6850393700787402,"duration":0.09070130416667155},{"name":"F#3","midi":54,"time":93.20130649999997,"velocity":0.7007874015748031,"duration":0.09070130416667155},{"name":"G#2","midi":44,"time":93.29276999999998,"velocity":0.7086614173228346,"duration":0.09070130416667155},{"name":"F#3","midi":54,"time":93.38423349999998,"velocity":0.7244094488188977,"duration":0.09070130416667155},{"name":"D#3","midi":51,"time":93.47569699999998,"velocity":0.7322834645669292,"duration":0.09070130416667155},{"name":"F#3","midi":54,"time":93.56716049999999,"velocity":0.7480314960629921,"duration":0.09070130416667155},{"name":"C#2","midi":37,"time":93.65862399999999,"velocity":0.7559055118110236,"duration":0.09070130416667155},{"name":"G#2","midi":44,"time":93.841551,"velocity":0.3858267716535433,"duration":0.09070130416667155},{"name":"C#2","midi":37,"time":94.024478,"velocity":0.3858267716535433,"duration":0.09070130416667155},{"name":"G#2","midi":44,"time":94.20740500000001,"velocity":0.3858267716535433,"duration":0.09070130416667155},{"name":"C#2","midi":37,"time":94.39033200000002,"velocity":0.3858267716535433,"duration":0.09070130416667155},{"name":"G#2","midi":44,"time":94.57325900000002,"velocity":0.3858267716535433,"duration":0.09070130416667155},{"name":"C#2","midi":37,"time":94.75618600000003,"velocity":0.3858267716535433,"duration":0.09070130416667155},{"name":"G#2","midi":44,"time":94.93911300000003,"velocity":0.3858267716535433,"duration":0.09070130416667155},{"name":"C#2","midi":37,"time":95.12204000000004,"velocity":0.3858267716535433,"duration":0.09070130416667155},{"name":"G#2","midi":44,"time":95.30496700000005,"velocity":0.3858267716535433,"duration":0.09070130416667155},{"name":"C#2","midi":37,"time":95.48789400000005,"velocity":0.3858267716535433,"duration":0.09070130416667155},{"name":"G#2","midi":44,"time":95.67082100000006,"velocity":0.3858267716535433,"duration":0.09070130416667155},{"name":"C#2","midi":37,"time":95.85374800000007,"velocity":0.3858267716535433,"duration":0.09070130416667155},{"name":"G#2","midi":44,"time":96.03667500000007,"velocity":0.3858267716535433,"duration":0.09070130416667155},{"name":"C#2","midi":37,"time":96.21960200000008,"velocity":0.5039370078740157,"duration":0.09070130416665734},{"name":"C#3","midi":49,"time":96.21960200000008,"velocity":0.5039370078740157,"duration":0.09070130416665734},{"name":"G#2","midi":44,"time":96.40252900000007,"velocity":0.3858267716535433,"duration":0.09070130416667155},{"name":"C2","midi":36,"time":96.58545600000008,"velocity":0.3858267716535433,"duration":0.09070130416667155},{"name":"G#2","midi":44,"time":96.76838300000009,"velocity":0.3858267716535433,"duration":0.09070130416667155},{"name":"C2","midi":36,"time":96.95131000000009,"velocity":0.3858267716535433,"duration":0.09070130416667155},{"name":"G#2","midi":44,"time":97.1342370000001,"velocity":0.3858267716535433,"duration":0.09070130416667155},{"name":"C2","midi":36,"time":97.3171640000001,"velocity":0.3858267716535433,"duration":0.09070130416667155},{"name":"G#2","midi":44,"time":97.50009100000011,"velocity":0.3858267716535433,"duration":0.09070130416667155},{"name":"C2","midi":36,"time":97.68301800000012,"velocity":0.3858267716535433,"duration":0.09070130416667155},{"name":"G#2","midi":44,"time":97.86594500000012,"velocity":0.3858267716535433,"duration":0.09070130416667155},{"name":"C2","midi":36,"time":98.04887200000013,"velocity":0.3858267716535433,"duration":0.09070130416667155},{"name":"G#2","midi":44,"time":98.23179900000014,"velocity":0.3858267716535433,"duration":0.09070130416667155},{"name":"C2","midi":36,"time":98.41472600000014,"velocity":0.3858267716535433,"duration":0.09070130416667155},{"name":"G#2","midi":44,"time":98.59765300000015,"velocity":0.3858267716535433,"duration":0.09070130416667155},{"name":"C2","midi":36,"time":98.78058000000016,"velocity":0.3858267716535433,"duration":0.09070130416667155},{"name":"G#2","midi":44,"time":98.96350700000016,"velocity":0.3858267716535433,"duration":0.09070130416667155},{"name":"C2","midi":36,"time":99.14643400000017,"velocity":0.5039370078740157,"duration":0.09070130416665734},{"name":"C3","midi":48,"time":99.14643400000017,"velocity":0.5039370078740157,"duration":0.09070130416665734},{"name":"G#2","midi":44,"time":99.32936100000016,"velocity":0.3858267716535433,"duration":0.09070130416667155},{"name":"B1","midi":35,"time":99.51228800000017,"velocity":0.3858267716535433,"duration":0.09070130416667155},{"name":"G#2","midi":44,"time":99.69521500000018,"velocity":0.3858267716535433,"duration":0.09070130416667155},{"name":"B1","midi":35,"time":99.87814200000018,"velocity":0.3858267716535433,"duration":0.09070130416667155},{"name":"G#2","midi":44,"time":100.06106900000019,"velocity":0.3858267716535433,"duration":0.09070130416667155},{"name":"B1","midi":35,"time":100.2439960000002,"velocity":0.3858267716535433,"duration":0.09070130416667155},{"name":"G#2","midi":44,"time":100.4269230000002,"velocity":0.3858267716535433,"duration":0.09070130416667155},{"name":"B1","midi":35,"time":100.60985000000021,"velocity":0.3858267716535433,"duration":0.09070130416667155},{"name":"G#2","midi":44,"time":100.79277700000021,"velocity":0.3858267716535433,"duration":0.09070130416667155},{"name":"B1","midi":35,"time":100.97570400000022,"velocity":0.3858267716535433,"duration":0.09070130416667155},{"name":"G#2","midi":44,"time":101.15863100000023,"velocity":0.3858267716535433,"duration":0.09070130416667155},{"name":"B1","midi":35,"time":101.34155800000023,"velocity":0.3858267716535433,"duration":0.09070130416667155},{"name":"G#2","midi":44,"time":101.52448500000024,"velocity":0.3858267716535433,"duration":0.09070130416667155},{"name":"B1","midi":35,"time":101.70741200000025,"velocity":0.3858267716535433,"duration":0.09070130416667155},{"name":"G#2","midi":44,"time":101.89033900000025,"velocity":0.3858267716535433,"duration":0.09070130416667155},{"name":"B1","midi":35,"time":102.07326600000026,"velocity":0.5039370078740157,"duration":0.09070130416665734},{"name":"B2","midi":47,"time":102.07326600000026,"velocity":0.5039370078740157,"duration":0.09070130416665734},{"name":"G#2","midi":44,"time":102.25619300000025,"velocity":0.3858267716535433,"duration":0.09070130416667155},{"name":"A1","midi":33,"time":102.43912000000026,"velocity":0.3858267716535433,"duration":0.09070130416667155},{"name":"A2","midi":45,"time":102.62204700000026,"velocity":0.4330708661417323,"duration":0.09070130416667155},{"name":"A1","midi":33,"time":102.80497400000027,"velocity":0.44881889763779526,"duration":0.09070130416667155},{"name":"A2","midi":45,"time":102.98790100000028,"velocity":0.47244094488188976,"duration":0.09070130416667155},{"name":"A1","midi":33,"time":103.17082800000028,"velocity":0.49606299212598426,"duration":0.09070130416667155},{"name":"A2","midi":45,"time":103.35375500000029,"velocity":0.5196850393700787,"duration":0.09070130416667155},{"name":"A1","midi":33,"time":103.5366820000003,"velocity":0.6141732283464567,"duration":0.09070130416665734},{"name":"A2","midi":45,"time":103.71960900000029,"velocity":0.5590551181102362,"duration":0.09070130416667155},{"name":"A1","midi":33,"time":103.9025360000003,"velocity":0.5826771653543307,"duration":0.09070130416667155},{"name":"A2","midi":45,"time":104.0854630000003,"velocity":0.6062992125984252,"duration":0.09070130416667155},{"name":"A1","midi":33,"time":104.26839000000031,"velocity":0.6220472440944882,"duration":0.09070130416667155},{"name":"A2","midi":45,"time":104.45131700000032,"velocity":0.6456692913385826,"duration":0.09070130416667155},{"name":"A1","midi":33,"time":104.63424400000032,"velocity":0.6692913385826772,"duration":0.09070130416667155},{"name":"A2","midi":45,"time":104.81717100000033,"velocity":0.6929133858267716,"duration":0.09070130416667155},{"name":"A1","midi":33,"time":105.00009800000034,"velocity":0.7874015748031497,"duration":0.09070130416665734},{"name":"A2","midi":45,"time":105.18302500000033,"velocity":0.7322834645669292,"duration":0.09070130416667155},{"name":"G#1","midi":32,"time":105.36595200000033,"velocity":0.7559055118110236,"duration":0.1821648041666606},{"name":"G#2","midi":44,"time":105.36595200000033,"velocity":0.7559055118110236,"duration":0.1821648041666606},{"name":"C4","midi":60,"time":105.54887900000033,"velocity":0.7559055118110236,"duration":0.1821648041666606},{"name":"G#3","midi":56,"time":105.54887900000033,"velocity":0.7559055118110236,"duration":2.7431428041665527},{"name":"C4","midi":60,"time":105.73180600000032,"velocity":0.7559055118110236,"duration":0.1821648041666606},{"name":"C#4","midi":61,"time":105.91473300000031,"velocity":0.7559055118110236,"duration":0.1821648041666606},{"name":"D#4","midi":63,"time":106.0976600000003,"velocity":0.7559055118110236,"duration":0.1821648041666606},{"name":"E4","midi":64,"time":106.2805870000003,"velocity":0.7559055118110236,"duration":0.1821648041666606},{"name":"F#4","midi":66,"time":106.46351400000029,"velocity":0.7559055118110236,"duration":0.1821648041666606},{"name":"D#4","midi":63,"time":106.64644100000028,"velocity":0.7559055118110236,"duration":0.1821648041666606},{"name":"F#4","midi":66,"time":106.82936800000027,"velocity":0.7559055118110236,"duration":0.1821648041666606},{"name":"E4","midi":64,"time":107.01229500000026,"velocity":0.7559055118110236,"duration":0.1821648041666606},{"name":"A4","midi":69,"time":107.19522200000026,"velocity":0.7559055118110236,"duration":0.1821648041666606},{"name":"G#4","midi":68,"time":107.37814900000025,"velocity":0.7559055118110236,"duration":0.1821648041666606},{"name":"F#4","midi":66,"time":107.56107600000024,"velocity":0.7559055118110236,"duration":0.1821648041666606},{"name":"E4","midi":64,"time":107.74400300000023,"velocity":0.7559055118110236,"duration":0.1821648041666606},{"name":"D#4","midi":63,"time":107.92693000000023,"velocity":0.7559055118110236,"duration":0.1821648041666606},{"name":"C#4","midi":61,"time":108.10985700000022,"velocity":0.7559055118110236,"duration":0.1821648041666606},{"name":"G#3","midi":56,"time":108.29278400000021,"velocity":0.7559055118110236,"duration":2.926069804166545},{"name":"C4","midi":60,"time":108.29278400000021,"velocity":0.7559055118110236,"duration":0.1821648041666606},{"name":"C4","midi":60,"time":108.4757110000002,"velocity":0.7559055118110236,"duration":0.1821648041666606},{"name":"C4","midi":60,"time":108.6586380000002,"velocity":0.7559055118110236,"duration":0.1821648041666606},{"name":"C#4","midi":61,"time":108.84156500000019,"velocity":0.7559055118110236,"duration":0.1821648041666606},{"name":"D#4","midi":63,"time":109.02449200000018,"velocity":0.7559055118110236,"duration":0.1821648041666606},{"name":"E4","midi":64,"time":109.20741900000017,"velocity":0.7559055118110236,"duration":0.1821648041666606},{"name":"F#4","midi":66,"time":109.39034600000016,"velocity":0.7559055118110236,"duration":0.1821648041666606},{"name":"D#4","midi":63,"time":109.57327300000016,"velocity":0.7559055118110236,"duration":0.1821648041666606},{"name":"F#4","midi":66,"time":109.75620000000015,"velocity":0.7559055118110236,"duration":0.1821648041666606},{"name":"E4","midi":64,"time":109.93912700000014,"velocity":0.7559055118110236,"duration":0.1821648041666606},{"name":"A4","midi":69,"time":110.12205400000013,"velocity":0.7559055118110236,"duration":0.1821648041666606},{"name":"G#4","midi":68,"time":110.30498100000013,"velocity":0.7559055118110236,"duration":0.1821648041666606},{"name":"F#4","midi":66,"time":110.48790800000012,"velocity":0.7559055118110236,"duration":0.1821648041666606},{"name":"E4","midi":64,"time":110.67083500000011,"velocity":0.7559055118110236,"duration":0.1821648041666606},{"name":"D#4","midi":63,"time":110.8537620000001,"velocity":0.7559055118110236,"duration":0.1821648041666606},{"name":"C#4","midi":61,"time":111.0366890000001,"velocity":0.7559055118110236,"duration":0.1821648041666606},{"name":"C4","midi":60,"time":111.21961600000009,"velocity":0.7559055118110236,"duration":0.09070130416667155},{"name":"G#3","midi":56,"time":111.21961600000009,"velocity":0.7559055118110236,"duration":0.09070130416667155},{"name":"C#4","midi":61,"time":111.4025430000001,"velocity":0.7559055118110236,"duration":0.09070130416667155},{"name":"G#3","midi":56,"time":111.4025430000001,"velocity":0.7559055118110236,"duration":0.09070130416667155},{"name":"C4","midi":60,"time":111.5854700000001,"velocity":0.7559055118110236,"duration":0.09070130416667155},{"name":"G#3","midi":56,"time":111.5854700000001,"velocity":0.7559055118110236,"duration":0.09070130416667155},{"name":"C#4","midi":61,"time":111.7683970000001,"velocity":0.7559055118110236,"duration":0.09070130416667155},{"name":"G#3","midi":56,"time":111.7683970000001,"velocity":0.7559055118110236,"duration":0.09070130416667155},{"name":"C4","midi":60,"time":111.95132400000011,"velocity":0.7559055118110236,"duration":0.09070130416667155},{"name":"G#3","midi":56,"time":111.95132400000011,"velocity":0.7559055118110236,"duration":0.09070130416667155},{"name":"C#4","midi":61,"time":112.13425100000012,"velocity":0.7559055118110236,"duration":0.09070130416667155},{"name":"G#3","midi":56,"time":112.13425100000012,"velocity":0.7559055118110236,"duration":0.09070130416667155},{"name":"C4","midi":60,"time":112.31717800000013,"velocity":0.7559055118110236,"duration":0.09070130416667155},{"name":"G#3","midi":56,"time":112.31717800000013,"velocity":0.7559055118110236,"duration":0.09070130416667155},{"name":"C#4","midi":61,"time":112.50010500000013,"velocity":0.7559055118110236,"duration":0.09070130416667155},{"name":"G#3","midi":56,"time":112.50010500000013,"velocity":0.7559055118110236,"duration":0.09070130416667155},{"name":"G#3","midi":56,"time":112.68303200000014,"velocity":0.7559055118110236,"duration":0.1821648041666606},{"name":"C4","midi":60,"time":112.68303200000014,"velocity":0.7559055118110236,"duration":0.1821648041666606},{"name":"G#1","midi":32,"time":113.04888600000014,"velocity":0.8267716535433071,"duration":1.0967998041666647},{"name":"G#2","midi":44,"time":113.04888600000014,"velocity":0.8267716535433071,"duration":1.0967998041666647},{"name":"C#2","midi":37,"time":114.14644800000013,"velocity":0.3858267716535433,"duration":0.09070130416667155},{"name":"G#2","midi":44,"time":114.32937500000014,"velocity":0.3858267716535433,"duration":0.09070130416667155},{"name":"C#2","midi":37,"time":114.51230200000015,"velocity":0.3858267716535433,"duration":0.09070130416667155},{"name":"G#2","midi":44,"time":114.69522900000015,"velocity":0.3858267716535433,"duration":0.09070130416667155},{"name":"C#2","midi":37,"time":114.87815600000016,"velocity":0.3858267716535433,"duration":0.09070130416667155},{"name":"G#2","midi":44,"time":115.06108300000017,"velocity":0.3858267716535433,"duration":0.09070130416667155},{"name":"C#2","midi":37,"time":115.24401000000017,"velocity":0.3858267716535433,"duration":0.09070130416667155},{"name":"G#2","midi":44,"time":115.42693700000018,"velocity":0.3858267716535433,"duration":0.09070130416667155},{"name":"C#2","midi":37,"time":115.60986400000019,"velocity":0.3858267716535433,"duration":0.09070130416667155},{"name":"G#2","midi":44,"time":115.7927910000002,"velocity":0.3858267716535433,"duration":0.09070130416667155},{"name":"C#2","midi":37,"time":115.9757180000002,"velocity":0.3858267716535433,"duration":0.09070130416667155},{"name":"G#2","midi":44,"time":116.1586450000002,"velocity":0.3858267716535433,"duration":0.09070130416667155},{"name":"C#2","midi":37,"time":116.34157200000021,"velocity":0.3858267716535433,"duration":0.09070130416667155},{"name":"G#2","midi":44,"time":116.52449900000022,"velocity":0.3858267716535433,"duration":0.09070130416667155},{"name":"C#2","midi":37,"time":116.70742600000023,"velocity":0.5039370078740157,"duration":0.09070130416665734},{"name":"C#3","midi":49,"time":116.70742600000023,"velocity":0.5039370078740157,"duration":0.09070130416665734},{"name":"G#2","midi":44,"time":116.89035300000022,"velocity":0.3858267716535433,"duration":0.09070130416667155},{"name":"A#1","midi":34,"time":117.07328000000022,"velocity":0.3858267716535433,"duration":0.09070130416667155},{"name":"C#3","midi":49,"time":117.25620700000023,"velocity":0.3858267716535433,"duration":0.09070130416667155},{"name":"A#2","midi":46,"time":117.43913400000024,"velocity":0.3858267716535433,"duration":0.09070130416667155},{"name":"C#3","midi":49,"time":117.62206100000024,"velocity":0.3858267716535433,"duration":0.09070130416667155},{"name":"A#2","midi":46,"time":117.80498800000025,"velocity":0.3858267716535433,"duration":0.09070130416667155},{"name":"C#3","midi":49,"time":117.98791500000026,"velocity":0.3858267716535433,"duration":0.09070130416667155},{"name":"A#2","midi":46,"time":118.17084200000026,"velocity":0.3858267716535433,"duration":0.09070130416667155},{"name":"C#3","midi":49,"time":118.35376900000027,"velocity":0.3858267716535433,"duration":0.09070130416667155},{"name":"A#2","midi":46,"time":118.53669600000028,"velocity":0.3858267716535433,"duration":0.09070130416667155},{"name":"C#3","midi":49,"time":118.71962300000028,"velocity":0.3858267716535433,"duration":0.09070130416667155},{"name":"A#2","midi":46,"time":118.90255000000029,"velocity":0.3858267716535433,"duration":0.09070130416667155},{"name":"C#3","midi":49,"time":119.0854770000003,"velocity":0.3858267716535433,"duration":0.09070130416667155},{"name":"A#2","midi":46,"time":119.2684040000003,"velocity":0.3858267716535433,"duration":0.09070130416667155},{"name":"C#3","midi":49,"time":119.45133100000031,"velocity":0.3858267716535433,"duration":0.09070130416667155},{"name":"A#1","midi":34,"time":119.63425800000032,"velocity":0.5039370078740157,"duration":0.09070130416665734},{"name":"A#2","midi":46,"time":119.63425800000032,"velocity":0.5039370078740157,"duration":0.09070130416665734},{"name":"C#3","midi":49,"time":119.81718500000031,"velocity":0.3858267716535433,"duration":0.09070130416667155},{"name":"G1","midi":31,"time":120.00011200000031,"velocity":0.3858267716535433,"duration":0.09070130416667155},{"name":"D#3","midi":51,"time":120.18303900000032,"velocity":0.4015748031496063,"duration":0.09070130416667155},{"name":"G2","midi":43,"time":120.36596600000033,"velocity":0.4094488188976378,"duration":0.09070130416667155},{"name":"D#3","midi":51,"time":120.54889300000033,"velocity":0.41732283464566927,"duration":0.09070130416667155},{"name":"G2","midi":43,"time":120.73182000000034,"velocity":0.4251968503937008,"duration":0.09070130416667155},{"name":"D#3","midi":51,"time":120.91474700000035,"velocity":0.4330708661417323,"duration":0.09070130416667155},{"name":"G2","midi":43,"time":121.09767400000035,"velocity":0.4409448818897638,"duration":0.09070130416667155},{"name":"D#3","midi":51,"time":121.28060100000036,"velocity":0.44881889763779526,"duration":0.09070130416667155},{"name":"G2","midi":43,"time":121.46352800000037,"velocity":0.44881889763779526,"duration":0.09070130416667155},{"name":"D#3","midi":51,"time":121.64645500000037,"velocity":0.4566929133858268,"duration":0.09070130416667155},{"name":"G2","midi":43,"time":121.82938200000038,"velocity":0.4645669291338583,"duration":0.09070130416667155},{"name":"D#3","midi":51,"time":122.01230900000039,"velocity":0.47244094488188976,"duration":0.09070130416667155},{"name":"G2","midi":43,"time":122.19523600000039,"velocity":0.48031496062992124,"duration":0.09070130416667155},{"name":"D#3","midi":51,"time":122.3781630000004,"velocity":0.4881889763779528,"duration":0.09070130416667155},{"name":"G2","midi":43,"time":122.5610900000004,"velocity":0.49606299212598426,"duration":0.09070130416667155},{"name":"D#3","midi":51,"time":122.74401700000041,"velocity":0.5039370078740157,"duration":0.09070130416667155},{"name":"G#2","midi":44,"time":122.92694400000042,"velocity":0.3858267716535433,"duration":0.09070130416667155},{"name":"D#3","midi":51,"time":123.01840750000042,"velocity":0.3858267716535433,"duration":0.09070130416667155},{"name":"B2","midi":47,"time":123.10987100000042,"velocity":0.3858267716535433,"duration":0.09070130416667155},{"name":"D#3","midi":51,"time":123.20133450000043,"velocity":0.3858267716535433,"duration":0.09070130416667155},{"name":"G#2","midi":44,"time":123.29279800000043,"velocity":0.3858267716535433,"duration":0.09070130416667155},{"name":"D#3","midi":51,"time":123.38426150000043,"velocity":0.3858267716535433,"duration":0.09070130416667155},{"name":"B2","midi":47,"time":123.47572500000044,"velocity":0.3858267716535433,"duration":0.09070130416667155},{"name":"D#3","midi":51,"time":123.56718850000044,"velocity":0.3858267716535433,"duration":0.09070130416667155},{"name":"G#2","midi":44,"time":123.65865200000044,"velocity":0.3858267716535433,"duration":0.09070130416667155},{"name":"D#3","midi":51,"time":123.75011550000045,"velocity":0.3858267716535433,"duration":0.09070130416667155},{"name":"B2","midi":47,"time":123.84157900000045,"velocity":0.3858267716535433,"duration":0.09070130416667155},{"name":"D#3","midi":51,"time":123.93304250000045,"velocity":0.3858267716535433,"duration":0.09070130416667155},{"name":"G#2","midi":44,"time":124.02450600000046,"velocity":0.3858267716535433,"duration":0.09070130416667155},{"name":"D#3","midi":51,"time":124.11596950000046,"velocity":0.3858267716535433,"duration":0.09070130416667155},{"name":"B2","midi":47,"time":124.20743300000046,"velocity":0.3858267716535433,"duration":0.09070130416667155},{"name":"D#3","midi":51,"time":124.29889650000047,"velocity":0.3858267716535433,"duration":0.09070130416667155},{"name":"A#2","midi":46,"time":124.39036000000047,"velocity":0.3858267716535433,"duration":0.09070130416667155},{"name":"D#3","midi":51,"time":124.48182350000047,"velocity":0.3858267716535433,"duration":0.09070130416667155},{"name":"C#3","midi":49,"time":124.57328700000048,"velocity":0.3858267716535433,"duration":0.09070130416667155},{"name":"D#3","midi":51,"time":124.66475050000048,"velocity":0.3858267716535433,"duration":0.09070130416667155},{"name":"A#2","midi":46,"time":124.75621400000048,"velocity":0.3858267716535433,"duration":0.09070130416667155},{"name":"D#3","midi":51,"time":124.84767750000049,"velocity":0.3858267716535433,"duration":0.09070130416667155},{"name":"C#3","midi":49,"time":124.93914100000049,"velocity":0.3858267716535433,"duration":0.09070130416667155},{"name":"D#3","midi":51,"time":125.03060450000049,"velocity":0.3858267716535433,"duration":0.09070130416667155},{"name":"A#2","midi":46,"time":125.1220680000005,"velocity":0.3858267716535433,"duration":0.09070130416667155},{"name":"D#3","midi":51,"time":125.2135315000005,"velocity":0.3858267716535433,"duration":0.09070130416667155},{"name":"C#3","midi":49,"time":125.3049950000005,"velocity":0.3858267716535433,"duration":0.09070130416667155},{"name":"D#3","midi":51,"time":125.3964585000005,"velocity":0.3858267716535433,"duration":0.09070130416667155},{"name":"A#2","midi":46,"time":125.48792200000051,"velocity":0.3858267716535433,"duration":0.09070130416667155},{"name":"D#3","midi":51,"time":125.57938550000051,"velocity":0.3858267716535433,"duration":0.09070130416667155},{"name":"C#3","midi":49,"time":125.67084900000052,"velocity":0.3858267716535433,"duration":0.09070130416667155},{"name":"D#3","midi":51,"time":125.76231250000052,"velocity":0.3858267716535433,"duration":0.09070130416667155},{"name":"B2","midi":47,"time":125.85377600000052,"velocity":0.3858267716535433,"duration":0.09070130416667155},{"name":"D#3","midi":51,"time":125.94523950000053,"velocity":0.3858267716535433,"duration":0.09070130416667155},{"name":"B2","midi":47,"time":126.03670300000053,"velocity":0.3858267716535433,"duration":0.09070130416667155},{"name":"D#3","midi":51,"time":126.12816650000053,"velocity":0.3858267716535433,"duration":0.09070130416667155},{"name":"B2","midi":47,"time":126.21963000000054,"velocity":0.3858267716535433,"duration":0.09070130416667155},{"name":"D#3","midi":51,"time":126.31109350000054,"velocity":0.3858267716535433,"duration":0.09070130416667155},{"name":"B2","midi":47,"time":126.40255700000054,"velocity":0.3858267716535433,"duration":0.09070130416667155},{"name":"D#3","midi":51,"time":126.49402050000054,"velocity":0.3858267716535433,"duration":0.09070130416667155},{"name":"B2","midi":47,"time":126.58548400000055,"velocity":0.3858267716535433,"duration":0.09070130416667155},{"name":"D#3","midi":51,"time":126.67694750000055,"velocity":0.3858267716535433,"duration":0.09070130416667155},{"name":"B2","midi":47,"time":126.76841100000055,"velocity":0.3858267716535433,"duration":0.09070130416667155},{"name":"D#3","midi":51,"time":126.85987450000056,"velocity":0.3858267716535433,"duration":0.09070130416667155},{"name":"B2","midi":47,"time":126.95133800000056,"velocity":0.3858267716535433,"duration":0.09070130416667155},{"name":"D#3","midi":51,"time":127.04280150000056,"velocity":0.3858267716535433,"duration":0.09070130416667155},{"name":"B2","midi":47,"time":127.13426500000057,"velocity":0.3858267716535433,"duration":0.09070130416667155},{"name":"D#3","midi":51,"time":127.22572850000057,"velocity":0.3858267716535433,"duration":0.09070130416667155},{"name":"G2","midi":43,"time":127.31719200000057,"velocity":0.3858267716535433,"duration":0.09070130416667155},{"name":"D#3","midi":51,"time":127.40865550000058,"velocity":0.3858267716535433,"duration":0.09070130416667155},{"name":"G2","midi":43,"time":127.50011900000058,"velocity":0.3858267716535433,"duration":0.09070130416667155},{"name":"D#3","midi":51,"time":127.59158250000058,"velocity":0.3858267716535433,"duration":0.09070130416667155},{"name":"G2","midi":43,"time":127.68304600000059,"velocity":0.3858267716535433,"duration":0.09070130416667155},{"name":"D#3","midi":51,"time":127.77450950000059,"velocity":0.3858267716535433,"duration":0.09070130416667155},{"name":"G2","midi":43,"time":127.8659730000006,"velocity":0.3858267716535433,"duration":0.09070130416667155},{"name":"D#3","midi":51,"time":127.9574365000006,"velocity":0.3858267716535433,"duration":0.09070130416665734},{"name":"G2","midi":43,"time":128.0489000000006,"velocity":0.3858267716535433,"duration":0.09070130416665734},{"name":"D#3","midi":51,"time":128.1403635000006,"velocity":0.3858267716535433,"duration":0.09070130416665734},{"name":"G2","midi":43,"time":128.2318270000006,"velocity":0.3858267716535433,"duration":0.09070130416665734},{"name":"D#3","midi":51,"time":128.3232905000006,"velocity":0.3858267716535433,"duration":0.09070130416665734},{"name":"G2","midi":43,"time":128.4147540000006,"velocity":0.3858267716535433,"duration":0.09070130416665734},{"name":"D#3","midi":51,"time":128.50621750000062,"velocity":0.3858267716535433,"duration":0.09070130416665734},{"name":"G2","midi":43,"time":128.59768100000062,"velocity":0.3858267716535433,"duration":0.09070130416665734},{"name":"D#3","midi":51,"time":128.68914450000062,"velocity":0.3858267716535433,"duration":0.09070130416665734},{"name":"G#2","midi":44,"time":128.78060800000063,"velocity":0.3858267716535433,"duration":0.09070130416665734},{"name":"D#3","midi":51,"time":128.87207150000063,"velocity":0.3858267716535433,"duration":0.09070130416665734},{"name":"B2","midi":47,"time":128.96353500000063,"velocity":0.3858267716535433,"duration":0.09070130416665734},{"name":"D#3","midi":51,"time":129.05499850000064,"velocity":0.3858267716535433,"duration":0.09070130416665734},{"name":"G#2","midi":44,"time":129.14646200000064,"velocity":0.3858267716535433,"duration":0.09070130416665734},{"name":"D#3","midi":51,"time":129.23792550000064,"velocity":0.3858267716535433,"duration":0.09070130416665734},{"name":"B2","midi":47,"time":129.32938900000065,"velocity":0.3858267716535433,"duration":0.09070130416665734},{"name":"D#3","midi":51,"time":129.42085250000065,"velocity":0.3858267716535433,"duration":0.09070130416665734},{"name":"G#2","midi":44,"time":129.51231600000065,"velocity":0.3858267716535433,"duration":0.09070130416665734},{"name":"D#3","midi":51,"time":129.60377950000066,"velocity":0.3858267716535433,"duration":0.09070130416665734},{"name":"B2","midi":47,"time":129.69524300000066,"velocity":0.3858267716535433,"duration":0.09070130416665734},{"name":"D#3","midi":51,"time":129.78670650000066,"velocity":0.3858267716535433,"duration":0.09070130416665734},{"name":"G#2","midi":44,"time":129.87817000000067,"velocity":0.3858267716535433,"duration":0.09070130416665734},{"name":"D#3","midi":51,"time":129.96963350000067,"velocity":0.3858267716535433,"duration":0.09070130416665734},{"name":"B2","midi":47,"time":130.06109700000067,"velocity":0.3858267716535433,"duration":0.09070130416665734},{"name":"D#3","midi":51,"time":130.15256050000067,"velocity":0.3858267716535433,"duration":0.09070130416665734},{"name":"A#2","midi":46,"time":130.24402400000068,"velocity":0.3858267716535433,"duration":0.09070130416665734},{"name":"D#3","midi":51,"time":130.33548750000068,"velocity":0.3858267716535433,"duration":0.09070130416665734},{"name":"C#3","midi":49,"time":130.42695100000068,"velocity":0.3858267716535433,"duration":0.09070130416665734},{"name":"D#3","midi":51,"time":130.5184145000007,"velocity":0.3858267716535433,"duration":0.09070130416665734},{"name":"A#2","midi":46,"time":130.6098780000007,"velocity":0.3858267716535433,"duration":0.09070130416665734},{"name":"D#3","midi":51,"time":130.7013415000007,"velocity":0.3858267716535433,"duration":0.09070130416665734},{"name":"C#3","midi":49,"time":130.7928050000007,"velocity":0.3858267716535433,"duration":0.09070130416665734},{"name":"D#3","midi":51,"time":130.8842685000007,"velocity":0.3858267716535433,"duration":0.09070130416665734},{"name":"A#2","midi":46,"time":130.9757320000007,"velocity":0.3858267716535433,"duration":0.09070130416665734},{"name":"D#3","midi":51,"time":131.0671955000007,"velocity":0.3858267716535433,"duration":0.09070130416665734},{"name":"C#3","midi":49,"time":131.1586590000007,"velocity":0.3858267716535433,"duration":0.09070130416665734},{"name":"D#3","midi":51,"time":131.2501225000007,"velocity":0.3858267716535433,"duration":0.09070130416665734},{"name":"A#2","midi":46,"time":131.34158600000072,"velocity":0.3858267716535433,"duration":0.09070130416665734},{"name":"D#3","midi":51,"time":131.43304950000072,"velocity":0.3858267716535433,"duration":0.09070130416665734},{"name":"C#3","midi":49,"time":131.52451300000072,"velocity":0.3858267716535433,"duration":0.09070130416665734},{"name":"D#3","midi":51,"time":131.61597650000073,"velocity":0.3858267716535433,"duration":0.09070130416665734},{"name":"B2","midi":47,"time":131.70744000000073,"velocity":0.3858267716535433,"duration":0.09070130416665734},{"name":"D#3","midi":51,"time":131.79890350000073,"velocity":0.3858267716535433,"duration":0.09070130416665734},{"name":"B2","midi":47,"time":131.89036700000074,"velocity":0.3858267716535433,"duration":0.09070130416665734},{"name":"D#3","midi":51,"time":131.98183050000074,"velocity":0.3858267716535433,"duration":0.09070130416665734},{"name":"B2","midi":47,"time":132.07329400000074,"velocity":0.3858267716535433,"duration":0.09070130416665734},{"name":"D#3","midi":51,"time":132.16475750000075,"velocity":0.3858267716535433,"duration":0.09070130416665734},{"name":"B2","midi":47,"time":132.25622100000075,"velocity":0.3858267716535433,"duration":0.09070130416665734},{"name":"D#3","midi":51,"time":132.34768450000075,"velocity":0.3858267716535433,"duration":0.09070130416665734},{"name":"B2","midi":47,"time":132.43914800000076,"velocity":0.3858267716535433,"duration":0.09070130416665734},{"name":"D#3","midi":51,"time":132.53061150000076,"velocity":0.3858267716535433,"duration":0.09070130416665734},{"name":"B2","midi":47,"time":132.62207500000076,"velocity":0.3858267716535433,"duration":0.09070130416665734},{"name":"D#3","midi":51,"time":132.71353850000077,"velocity":0.3858267716535433,"duration":0.09070130416665734},{"name":"B2","midi":47,"time":132.80500200000077,"velocity":0.3858267716535433,"duration":0.09070130416665734},{"name":"D#3","midi":51,"time":132.89646550000077,"velocity":0.3858267716535433,"duration":0.09070130416665734},{"name":"B2","midi":47,"time":132.98792900000078,"velocity":0.3858267716535433,"duration":0.09070130416665734},{"name":"D#3","midi":51,"time":133.07939250000078,"velocity":0.3858267716535433,"duration":0.09070130416665734},{"name":"G2","midi":43,"time":133.17085600000078,"velocity":0.3858267716535433,"duration":0.09070130416665734},{"name":"D#3","midi":51,"time":133.26231950000079,"velocity":0.3858267716535433,"duration":0.09070130416665734},{"name":"G2","midi":43,"time":133.3537830000008,"velocity":0.3858267716535433,"duration":0.09070130416665734},{"name":"D#3","midi":51,"time":133.4452465000008,"velocity":0.3858267716535433,"duration":0.09070130416665734},{"name":"G2","midi":43,"time":133.5367100000008,"velocity":0.3858267716535433,"duration":0.09070130416665734},{"name":"D#3","midi":51,"time":133.6281735000008,"velocity":0.3858267716535433,"duration":0.09070130416665734},{"name":"G2","midi":43,"time":133.7196370000008,"velocity":0.3858267716535433,"duration":0.09070130416665734},{"name":"D#3","midi":51,"time":133.8111005000008,"velocity":0.3858267716535433,"duration":0.09070130416665734},{"name":"G2","midi":43,"time":133.9025640000008,"velocity":0.3858267716535433,"duration":0.09070130416665734},{"name":"D#3","midi":51,"time":133.9940275000008,"velocity":0.3858267716535433,"duration":0.09070130416665734},{"name":"G2","midi":43,"time":134.08549100000081,"velocity":0.3858267716535433,"duration":0.09070130416665734},{"name":"D#3","midi":51,"time":134.17695450000082,"velocity":0.3858267716535433,"duration":0.09070130416665734},{"name":"G2","midi":43,"time":134.26841800000082,"velocity":0.3858267716535433,"duration":0.09070130416665734},{"name":"D#3","midi":51,"time":134.35988150000082,"velocity":0.3858267716535433,"duration":0.09070130416665734},{"name":"G2","midi":43,"time":134.45134500000083,"velocity":0.3858267716535433,"duration":0.09070130416665734},{"name":"D#3","midi":51,"time":134.54280850000083,"velocity":0.3858267716535433,"duration":0.09070130416665734},{"name":"F#2","midi":42,"time":134.63427200000083,"velocity":0.3858267716535433,"duration":0.09070130416665734},{"name":"D#3","midi":51,"time":134.72573550000084,"velocity":0.3858267716535433,"duration":0.09070130416665734},{"name":"G#2","midi":44,"time":134.81719900000084,"velocity":0.3858267716535433,"duration":0.09070130416665734},{"name":"D#3","midi":51,"time":134.90866250000084,"velocity":0.3858267716535433,"duration":0.09070130416665734},{"name":"F#2","midi":42,"time":135.00012600000085,"velocity":0.3858267716535433,"duration":0.09070130416665734},{"name":"D#3","midi":51,"time":135.09158950000085,"velocity":0.3858267716535433,"duration":0.09070130416665734},{"name":"G#2","midi":44,"time":135.18305300000085,"velocity":0.3858267716535433,"duration":0.09070130416665734},{"name":"D#3","midi":51,"time":135.27451650000086,"velocity":0.3858267716535433,"duration":0.09070130416665734},{"name":"E2","midi":40,"time":135.36598000000086,"velocity":0.3858267716535433,"duration":0.09070130416665734},{"name":"C#3","midi":49,"time":135.45744350000086,"velocity":0.3858267716535433,"duration":0.09070130416665734},{"name":"G#2","midi":44,"time":135.54890700000087,"velocity":0.3858267716535433,"duration":0.09070130416665734},{"name":"C#3","midi":49,"time":135.64037050000087,"velocity":0.3858267716535433,"duration":0.09070130416665734},{"name":"E2","midi":40,"time":135.73183400000087,"velocity":0.3858267716535433,"duration":0.09070130416665734},{"name":"C#3","midi":49,"time":135.82329750000088,"velocity":0.3858267716535433,"duration":0.09070130416665734},{"name":"G#2","midi":44,"time":135.91476100000088,"velocity":0.3858267716535433,"duration":0.09070130416665734},{"name":"C#3","midi":49,"time":136.00622450000088,"velocity":0.3858267716535433,"duration":0.09070130416665734},{"name":"E2","midi":40,"time":136.0976880000009,"velocity":0.3858267716535433,"duration":0.09070130416665734},{"name":"C#3","midi":49,"time":136.1891515000009,"velocity":0.3858267716535433,"duration":0.09070130416665734},{"name":"F#2","midi":42,"time":136.2806150000009,"velocity":0.3858267716535433,"duration":0.09070130416665734},{"name":"C#3","midi":49,"time":136.3720785000009,"velocity":0.3858267716535433,"duration":0.09070130416665734},{"name":"D#2","midi":39,"time":136.4635420000009,"velocity":0.3858267716535433,"duration":0.09070130416665734},{"name":"B2","midi":47,"time":136.5550055000009,"velocity":0.3858267716535433,"duration":0.09070130416665734},{"name":"F#2","midi":42,"time":136.6464690000009,"velocity":0.3858267716535433,"duration":0.09070130416665734},{"name":"B2","midi":47,"time":136.7379325000009,"velocity":0.3858267716535433,"duration":0.09070130416665734},{"name":"D#2","midi":39,"time":136.8293960000009,"velocity":0.3858267716535433,"duration":0.09070130416665734},{"name":"B2","midi":47,"time":136.92085950000092,"velocity":0.3858267716535433,"duration":0.09070130416665734},{"name":"F#2","midi":42,"time":137.01232300000092,"velocity":0.3858267716535433,"duration":0.09070130416665734},{"name":"B2","midi":47,"time":137.10378650000092,"velocity":0.3858267716535433,"duration":0.09070130416665734},{"name":"D#2","midi":39,"time":137.19525000000093,"velocity":0.3858267716535433,"duration":0.09070130416665734},{"name":"B2","midi":47,"time":137.28671350000093,"velocity":0.3858267716535433,"duration":0.09070130416665734},{"name":"F#2","midi":42,"time":137.37817700000093,"velocity":0.3858267716535433,"duration":0.09070130416665734},{"name":"B2","midi":47,"time":137.46964050000093,"velocity":0.3858267716535433,"duration":0.09070130416665734},{"name":"D2","midi":38,"time":137.56110400000094,"velocity":0.3858267716535433,"duration":0.09070130416665734},{"name":"B2","midi":47,"time":137.65256750000094,"velocity":0.3858267716535433,"duration":0.09070130416665734},{"name":"E2","midi":40,"time":137.74403100000094,"velocity":0.3858267716535433,"duration":0.09070130416665734},{"name":"B2","midi":47,"time":137.83549450000095,"velocity":0.3858267716535433,"duration":0.09070130416665734},{"name":"D2","midi":38,"time":137.92695800000095,"velocity":0.3858267716535433,"duration":0.09070130416665734},{"name":"B2","midi":47,"time":138.01842150000095,"velocity":0.3858267716535433,"duration":0.09070130416665734},{"name":"E2","midi":40,"time":138.10988500000096,"velocity":0.3858267716535433,"duration":0.09070130416665734},{"name":"B2","midi":47,"time":138.20134850000096,"velocity":0.3858267716535433,"duration":0.09070130416665734},{"name":"C#2","midi":37,"time":138.29281200000096,"velocity":0.3858267716535433,"duration":0.09070130416665734},{"name":"A2","midi":45,"time":138.38427550000097,"velocity":0.3858267716535433,"duration":0.09070130416665734},{"name":"E2","midi":40,"time":138.47573900000097,"velocity":0.3858267716535433,"duration":0.09070130416665734},{"name":"A2","midi":45,"time":138.56720250000097,"velocity":0.3858267716535433,"duration":0.09070130416665734},{"name":"C#2","midi":37,"time":138.65866600000098,"velocity":0.3858267716535433,"duration":0.09070130416665734},{"name":"A2","midi":45,"time":138.75012950000098,"velocity":0.3858267716535433,"duration":0.09070130416665734},{"name":"E2","midi":40,"time":138.84159300000098,"velocity":0.3858267716535433,"duration":0.09070130416665734},{"name":"A2","midi":45,"time":138.933056500001,"velocity":0.3858267716535433,"duration":0.09070130416665734},{"name":"C#2","midi":37,"time":139.024520000001,"velocity":0.3858267716535433,"duration":0.09070130416665734},{"name":"A#2","midi":46,"time":139.115983500001,"velocity":0.3858267716535433,"duration":0.09070130416665734},{"name":"D#2","midi":39,"time":139.207447000001,"velocity":0.3858267716535433,"duration":0.09070130416665734},{"name":"A#2","midi":46,"time":139.298910500001,"velocity":0.3858267716535433,"duration":0.09070130416665734},{"name":"B1","midi":35,"time":139.390374000001,"velocity":0.3858267716535433,"duration":0.09070130416665734},{"name":"G#2","midi":44,"time":139.481837500001,"velocity":0.3858267716535433,"duration":0.09070130416665734},{"name":"D#2","midi":39,"time":139.573301000001,"velocity":0.3858267716535433,"duration":0.09070130416665734},{"name":"G#2","midi":44,"time":139.664764500001,"velocity":0.3858267716535433,"duration":0.09070130416665734},{"name":"B1","midi":35,"time":139.75622800000102,"velocity":0.3858267716535433,"duration":0.09070130416665734},{"name":"G#2","midi":44,"time":139.84769150000102,"velocity":0.3858267716535433,"duration":0.09070130416665734},{"name":"D#2","midi":39,"time":139.93915500000102,"velocity":0.3858267716535433,"duration":0.09070130416665734},{"name":"G#2","midi":44,"time":140.03061850000103,"velocity":0.3858267716535433,"duration":0.09070130416665734},{"name":"B1","midi":35,"time":140.12208200000103,"velocity":0.3858267716535433,"duration":0.09070130416665734},{"name":"G#2","midi":44,"time":140.21354550000103,"velocity":0.3858267716535433,"duration":0.09070130416665734},{"name":"D#2","midi":39,"time":140.30500900000104,"velocity":0.3858267716535433,"duration":0.09070130416665734},{"name":"G#2","midi":44,"time":140.39647250000104,"velocity":0.3858267716535433,"duration":0.09070130416665734},{"name":"C#2","midi":37,"time":140.48793600000104,"velocity":0.8818897637795275,"duration":1.0967998041666647},{"name":"E2","midi":40,"time":140.48793600000104,"velocity":0.8818897637795275,"duration":1.0967998041666647},{"name":"A2","midi":45,"time":140.48793600000104,"velocity":0.8818897637795275,"duration":1.0967998041666647},{"name":"C#3","midi":49,"time":140.48793600000104,"velocity":0.8818897637795275,"duration":1.0967998041666647},{"name":"C#4","midi":61,"time":141.95135200000104,"velocity":0.3858267716535433,"duration":0.3650918041666671},{"name":"E4","midi":64,"time":141.95135200000104,"velocity":0.3858267716535433,"duration":0.3650918041666671},{"name":"A4","midi":69,"time":141.95135200000104,"velocity":0.3858267716535433,"duration":0.3650918041666671},{"name":"C#4","midi":61,"time":142.68306000000103,"velocity":0.3858267716535433,"duration":0.3650918041666671},{"name":"E4","midi":64,"time":142.68306000000103,"velocity":0.3858267716535433,"duration":0.3650918041666671},{"name":"A4","midi":69,"time":142.68306000000103,"velocity":0.3858267716535433,"duration":0.3650918041666671},{"name":"C#4","midi":61,"time":143.41476800000103,"velocity":0.3858267716535433,"duration":0.3650918041666671},{"name":"E4","midi":64,"time":143.41476800000103,"velocity":0.3858267716535433,"duration":0.3650918041666671},{"name":"A4","midi":69,"time":143.41476800000103,"velocity":0.3858267716535433,"duration":0.3650918041666671},{"name":"C#4","midi":61,"time":143.78062200000105,"velocity":0.4251968503937008,"duration":0.3650918041666671},{"name":"E4","midi":64,"time":143.78062200000105,"velocity":0.4251968503937008,"duration":0.3650918041666671},{"name":"A4","midi":69,"time":143.78062200000105,"velocity":0.4251968503937008,"duration":0.3650918041666671},{"name":"C#4","midi":61,"time":144.14647600000106,"velocity":0.44881889763779526,"duration":0.3650918041666671},{"name":"E4","midi":64,"time":144.14647600000106,"velocity":0.44881889763779526,"duration":0.3650918041666671},{"name":"A4","midi":69,"time":144.14647600000106,"velocity":0.44881889763779526,"duration":0.3650918041666671},{"name":"C#4","midi":61,"time":144.51233000000107,"velocity":0.48031496062992124,"duration":0.3650918041666671},{"name":"E4","midi":64,"time":144.51233000000107,"velocity":0.48031496062992124,"duration":0.3650918041666671},{"name":"A4","midi":69,"time":144.51233000000107,"velocity":0.48031496062992124,"duration":0.3650918041666671},{"name":"D#4","midi":63,"time":144.87818400000108,"velocity":0.3858267716535433,"duration":0.09070130416665734},{"name":"B4","midi":71,"time":144.9696475000011,"velocity":0.3858267716535433,"duration":0.09070130416665734},{"name":"G#4","midi":68,"time":145.0611110000011,"velocity":0.3858267716535433,"duration":0.09070130416665734},{"name":"B4","midi":71,"time":145.1525745000011,"velocity":0.3858267716535433,"duration":0.09070130416665734},{"name":"D#4","midi":63,"time":145.2440380000011,"velocity":0.3858267716535433,"duration":0.09070130416665734},{"name":"B4","midi":71,"time":145.3355015000011,"velocity":0.3858267716535433,"duration":0.09070130416665734},{"name":"G#4","midi":68,"time":145.4269650000011,"velocity":0.3858267716535433,"duration":0.09070130416665734},{"name":"B4","midi":71,"time":145.5184285000011,"velocity":0.3858267716535433,"duration":0.09070130416665734},{"name":"D#4","midi":63,"time":145.6098920000011,"velocity":0.3858267716535433,"duration":0.09070130416665734},{"name":"C#5","midi":73,"time":145.7013555000011,"velocity":0.3858267716535433,"duration":0.09070130416665734},{"name":"G4","midi":67,"time":145.79281900000112,"velocity":0.3858267716535433,"duration":0.09070130416665734},{"name":"C#5","midi":73,"time":145.88428250000112,"velocity":0.3858267716535433,"duration":0.09070130416665734},{"name":"D#4","midi":63,"time":145.97574600000112,"velocity":0.3858267716535433,"duration":0.09070130416665734},{"name":"C#5","midi":73,"time":146.06720950000113,"velocity":0.3858267716535433,"duration":0.09070130416665734},{"name":"G4","midi":67,"time":146.15867300000113,"velocity":0.3858267716535433,"duration":0.09070130416665734},{"name":"C#5","midi":73,"time":146.25013650000113,"velocity":0.3858267716535433,"duration":0.09070130416665734},{"name":"E4","midi":64,"time":146.34160000000114,"velocity":0.3858267716535433,"duration":0.1821648041666606},{"name":"G#4","midi":68,"time":146.34160000000114,"velocity":0.3858267716535433,"duration":0.1821648041666606},{"name":"B4","midi":71,"time":146.34160000000114,"velocity":0.3858267716535433,"duration":0.1821648041666606},{"name":"C#2","midi":37,"time":146.70745400000112,"velocity":0.8818897637795275,"duration":0.7309458041666801},{"name":"E2","midi":40,"time":146.70745400000112,"velocity":0.8818897637795275,"duration":0.7309458041666801},{"name":"A2","midi":45,"time":146.70745400000112,"velocity":0.8818897637795275,"duration":0.7309458041666801},{"name":"C#3","midi":49,"time":146.70745400000112,"velocity":0.8818897637795275,"duration":0.7309458041666801},{"name":"C#3","midi":49,"time":148.17087000000114,"velocity":0.3858267716535433,"duration":0.3650918041666671},{"name":"E3","midi":52,"time":148.17087000000114,"velocity":0.3858267716535433,"duration":0.3650918041666671},{"name":"A3","midi":57,"time":148.17087000000114,"velocity":0.3858267716535433,"duration":0.3650918041666671},{"name":"C#3","midi":49,"time":148.90257800000114,"velocity":0.3858267716535433,"duration":0.3650918041666671},{"name":"E3","midi":52,"time":148.90257800000114,"velocity":0.3858267716535433,"duration":0.3650918041666671},{"name":"A3","midi":57,"time":148.90257800000114,"velocity":0.3858267716535433,"duration":0.3650918041666671},{"name":"C#3","midi":49,"time":149.45135900000113,"velocity":0.41732283464566927,"duration":0.1821648041666606},{"name":"E3","midi":52,"time":149.45135900000113,"velocity":0.41732283464566927,"duration":0.1821648041666606},{"name":"A3","midi":57,"time":149.45135900000113,"velocity":0.41732283464566927,"duration":0.1821648041666606},{"name":"C#3","midi":49,"time":149.81721300000112,"velocity":0.4645669291338583,"duration":0.1821648041666606},{"name":"E3","midi":52,"time":149.81721300000112,"velocity":0.4645669291338583,"duration":0.1821648041666606},{"name":"A3","midi":57,"time":149.81721300000112,"velocity":0.4645669291338583,"duration":0.1821648041666606},{"name":"C#3","midi":49,"time":150.1830670000011,"velocity":0.5118110236220472,"duration":0.1821648041666606},{"name":"E3","midi":52,"time":150.1830670000011,"velocity":0.5118110236220472,"duration":0.1821648041666606},{"name":"A3","midi":57,"time":150.1830670000011,"velocity":0.5118110236220472,"duration":0.1821648041666606},{"name":"C#3","midi":49,"time":150.5489210000011,"velocity":0.5511811023622047,"duration":0.1821648041666606},{"name":"E3","midi":52,"time":150.5489210000011,"velocity":0.5511811023622047,"duration":0.1821648041666606},{"name":"A3","midi":57,"time":150.5489210000011,"velocity":0.5511811023622047,"duration":0.1821648041666606},{"name":"C#3","midi":49,"time":150.7318480000011,"velocity":0.5748031496062992,"duration":0.3650918041666671},{"name":"E3","midi":52,"time":150.7318480000011,"velocity":0.5748031496062992,"duration":0.3650918041666671},{"name":"A3","midi":57,"time":150.7318480000011,"velocity":0.5748031496062992,"duration":0.3650918041666671},{"name":"C#3","midi":49,"time":152.1952640000011,"velocity":0.7559055118110236,"duration":0.09070130416665734},{"name":"A3","midi":57,"time":152.2867275000011,"velocity":0.7559055118110236,"duration":0.09070130416665734},{"name":"E3","midi":52,"time":152.3781910000011,"velocity":0.7559055118110236,"duration":0.09070130416665734},{"name":"A3","midi":57,"time":152.4696545000011,"velocity":0.7559055118110236,"duration":0.09070130416665734},{"name":"C#3","midi":49,"time":152.5611180000011,"velocity":0.7559055118110236,"duration":0.09070130416665734},{"name":"A3","midi":57,"time":152.6525815000011,"velocity":0.7559055118110236,"duration":0.09070130416665734},{"name":"E3","midi":52,"time":152.7440450000011,"velocity":0.7559055118110236,"duration":0.09070130416665734},{"name":"A3","midi":57,"time":152.8355085000011,"velocity":0.7559055118110236,"duration":0.09070130416665734},{"name":"D3","midi":50,"time":152.92697200000111,"velocity":0.7559055118110236,"duration":0.09070130416665734},{"name":"B3","midi":59,"time":153.01843550000112,"velocity":0.7559055118110236,"duration":0.09070130416665734},{"name":"F3","midi":53,"time":153.10989900000112,"velocity":0.7559055118110236,"duration":0.09070130416665734},{"name":"B3","midi":59,"time":153.20136250000112,"velocity":0.7559055118110236,"duration":0.09070130416665734},{"name":"D3","midi":50,"time":153.29282600000113,"velocity":0.7559055118110236,"duration":0.09070130416665734},{"name":"B3","midi":59,"time":153.38428950000113,"velocity":0.7559055118110236,"duration":0.09070130416665734},{"name":"F3","midi":53,"time":153.47575300000113,"velocity":0.7559055118110236,"duration":0.09070130416665734},{"name":"B3","midi":59,"time":153.56721650000114,"velocity":0.7559055118110236,"duration":0.09070130416665734},{"name":"D#3","midi":51,"time":153.65868000000114,"velocity":0.7559055118110236,"duration":0.09070130416665734},{"name":"B3","midi":59,"time":153.75014350000114,"velocity":0.7559055118110236,"duration":0.09070130416665734},{"name":"G#3","midi":56,"time":153.84160700000115,"velocity":0.7559055118110236,"duration":0.09070130416665734},{"name":"B3","midi":59,"time":153.93307050000115,"velocity":0.7559055118110236,"duration":0.09070130416665734},{"name":"D#3","midi":51,"time":154.02453400000115,"velocity":0.7559055118110236,"duration":0.09070130416665734},{"name":"B3","midi":59,"time":154.11599750000116,"velocity":0.7559055118110236,"duration":0.09070130416665734},{"name":"G#3","midi":56,"time":154.20746100000116,"velocity":0.7559055118110236,"duration":0.09070130416665734},{"name":"B3","midi":59,"time":154.29892450000116,"velocity":0.7559055118110236,"duration":0.09070130416665734},{"name":"D#2","midi":39,"time":154.39038800000117,"velocity":0.7559055118110236,"duration":0.09070130416665734},{"name":"D#3","midi":51,"time":154.48185150000117,"velocity":0.7559055118110236,"duration":0.09070130416665734},{"name":"D3","midi":50,"time":154.57331500000117,"velocity":0.7559055118110236,"duration":0.09070130416665734},{"name":"D#3","midi":51,"time":154.66477850000118,"velocity":0.7559055118110236,"duration":0.09070130416665734},{"name":"D3","midi":50,"time":154.75624200000118,"velocity":0.7559055118110236,"duration":0.09070130416665734},{"name":"D#3","midi":51,"time":154.84770550000118,"velocity":0.7559055118110236,"duration":0.09070130416665734},{"name":"D3","midi":50,"time":154.9391690000012,"velocity":0.7559055118110236,"duration":0.09070130416665734},{"name":"D#3","midi":51,"time":155.0306325000012,"velocity":0.7559055118110236,"duration":0.09070130416665734},{"name":"G#2","midi":44,"time":155.1220960000012,"velocity":0.7559055118110236,"duration":0.1821648041666606},{"name":"G#3","midi":56,"time":155.3050230000012,"velocity":0.3858267716535433,"duration":0.09070130416665734},{"name":"G#3","midi":56,"time":155.48795000000118,"velocity":0.3858267716535433,"duration":0.09070130416665734},{"name":"G#3","midi":56,"time":155.67087700000116,"velocity":0.3858267716535433,"duration":0.09070130416665734},{"name":"G#3","midi":56,"time":155.85380400000113,"velocity":0.3858267716535433,"duration":0.09070130416665734},{"name":"G#3","midi":56,"time":156.0367310000011,"velocity":0.3858267716535433,"duration":0.09070130416665734},{"name":"A#3","midi":58,"time":156.2196580000011,"velocity":0.3858267716535433,"duration":0.09070130416665734},{"name":"B3","midi":59,"time":156.40258500000107,"velocity":0.3858267716535433,"duration":0.09070130416665734},{"name":"D#3","midi":51,"time":156.58551200000105,"velocity":0.3858267716535433,"duration":0.09070130416665734},{"name":"C#4","midi":61,"time":156.58551200000105,"velocity":0.3858267716535433,"duration":0.09070130416665734},{"name":"C#4","midi":61,"time":156.76843900000102,"velocity":0.3858267716535433,"duration":0.09070130416665734},{"name":"D#4","midi":63,"time":156.76843900000102,"velocity":0.3858267716535433,"duration":0.09070130416665734},{"name":"C#4","midi":61,"time":156.951366000001,"velocity":0.3858267716535433,"duration":0.09070130416665734},{"name":"D#4","midi":63,"time":156.951366000001,"velocity":0.3858267716535433,"duration":0.09070130416665734},{"name":"C#4","midi":61,"time":157.13429300000098,"velocity":0.3858267716535433,"duration":0.09070130416665734},{"name":"D#4","midi":63,"time":157.13429300000098,"velocity":0.3858267716535433,"duration":0.09070130416665734},{"name":"C#4","midi":61,"time":157.31722000000096,"velocity":0.3858267716535433,"duration":0.09070130416665734},{"name":"D#4","midi":63,"time":157.31722000000096,"velocity":0.3858267716535433,"duration":0.09070130416665734},{"name":"C#4","midi":61,"time":157.50014700000094,"velocity":0.3858267716535433,"duration":0.09070130416665734},{"name":"D#4","midi":63,"time":157.50014700000094,"velocity":0.3858267716535433,"duration":0.09070130416665734},{"name":"B3","midi":59,"time":157.68307400000091,"velocity":0.3858267716535433,"duration":0.09070130416665734},{"name":"D#4","midi":63,"time":157.68307400000091,"velocity":0.3858267716535433,"duration":0.09070130416665734},{"name":"A#3","midi":58,"time":157.8660010000009,"velocity":0.3858267716535433,"duration":0.09070130416665734},{"name":"D#4","midi":63,"time":157.8660010000009,"velocity":0.3858267716535433,"duration":0.09070130416665734},{"name":"G#2","midi":44,"time":158.04892800000087,"velocity":0.3858267716535433,"duration":0.09070130416665734},{"name":"G#3","midi":56,"time":158.04892800000087,"velocity":0.3858267716535433,"duration":0.09070130416665734},{"name":"G#3","midi":56,"time":158.23185500000085,"velocity":0.3858267716535433,"duration":0.09070130416665734},{"name":"G#3","midi":56,"time":158.41478200000083,"velocity":0.3858267716535433,"duration":0.09070130416665734},{"name":"G#3","midi":56,"time":158.5977090000008,"velocity":0.3858267716535433,"duration":0.09070130416665734},{"name":"G#3","midi":56,"time":158.78063600000078,"velocity":0.3858267716535433,"duration":0.09070130416665734},{"name":"G#3","midi":56,"time":158.96356300000076,"velocity":0.3858267716535433,"duration":0.09070130416665734},{"name":"A#3","midi":58,"time":159.14649000000074,"velocity":0.3858267716535433,"duration":0.09070130416665734},{"name":"B3","midi":59,"time":159.32941700000072,"velocity":0.3858267716535433,"duration":0.09070130416665734},{"name":"D#3","midi":51,"time":159.5123440000007,"velocity":0.3858267716535433,"duration":0.09070130416665734},{"name":"C#4","midi":61,"time":159.5123440000007,"velocity":0.3858267716535433,"duration":0.09070130416665734},{"name":"C#4","midi":61,"time":159.69527100000067,"velocity":0.3858267716535433,"duration":0.09070130416665734},{"name":"D#4","midi":63,"time":159.69527100000067,"velocity":0.3858267716535433,"duration":0.09070130416665734},{"name":"C#4","midi":61,"time":159.87819800000065,"velocity":0.3858267716535433,"duration":0.09070130416665734},{"name":"D#4","midi":63,"time":159.87819800000065,"velocity":0.3858267716535433,"duration":0.09070130416665734},{"name":"C#4","midi":61,"time":160.06112500000063,"velocity":0.3858267716535433,"duration":0.09070130416665734},{"name":"D#4","midi":63,"time":160.06112500000063,"velocity":0.3858267716535433,"duration":0.09070130416665734},{"name":"C#4","midi":61,"time":160.2440520000006,"velocity":0.3858267716535433,"duration":0.09070130416665734},{"name":"D#4","midi":63,"time":160.2440520000006,"velocity":0.3858267716535433,"duration":0.09070130416665734},{"name":"C#4","midi":61,"time":160.42697900000059,"velocity":0.3858267716535433,"duration":0.09070130416665734},{"name":"D#4","midi":63,"time":160.42697900000059,"velocity":0.3858267716535433,"duration":0.09070130416665734},{"name":"B3","midi":59,"time":160.60990600000056,"velocity":0.3858267716535433,"duration":0.09070130416665734},{"name":"D#4","midi":63,"time":160.60990600000056,"velocity":0.3858267716535433,"duration":0.09070130416665734},{"name":"A#3","midi":58,"time":160.79283300000054,"velocity":0.3858267716535433,"duration":0.09070130416665734},{"name":"D#4","midi":63,"time":160.79283300000054,"velocity":0.3858267716535433,"duration":0.09070130416665734},{"name":"G#2","midi":44,"time":160.97576000000052,"velocity":0.3858267716535433,"duration":0.09070130416665734},{"name":"G#3","midi":56,"time":161.1586870000005,"velocity":0.3858267716535433,"duration":0.09070130416665734},{"name":"B3","midi":59,"time":161.1586870000005,"velocity":0.3858267716535433,"duration":0.09070130416665734},{"name":"G#3","midi":56,"time":161.34161400000048,"velocity":0.3858267716535433,"duration":0.1821648041666606},{"name":"B3","midi":59,"time":161.34161400000048,"velocity":0.3858267716535433,"duration":0.1821648041666606},{"name":"B3","midi":59,"time":161.52454100000048,"velocity":0.3858267716535433,"duration":0.1821648041666606},{"name":"D#4","midi":63,"time":161.52454100000048,"velocity":0.3858267716535433,"duration":0.1821648041666606},{"name":"C#3","midi":49,"time":161.7074680000005,"velocity":0.3858267716535433,"duration":0.09070130416665734},{"name":"G#3","midi":56,"time":161.89039500000047,"velocity":0.3858267716535433,"duration":0.09070130416665734},{"name":"C#4","midi":61,"time":161.89039500000047,"velocity":0.3858267716535433,"duration":0.09070130416665734},{"name":"G#3","midi":56,"time":162.07332200000045,"velocity":0.3858267716535433,"duration":0.1821648041666606},{"name":"C#4","midi":61,"time":162.07332200000045,"velocity":0.3858267716535433,"duration":0.1821648041666606},{"name":"C#4","midi":61,"time":162.25624900000045,"velocity":0.3858267716535433,"duration":0.1821648041666606},{"name":"E4","midi":64,"time":162.25624900000045,"velocity":0.3858267716535433,"duration":0.1821648041666606},{"name":"D#3","midi":51,"time":162.43917600000046,"velocity":0.3858267716535433,"duration":0.09070130416665734},{"name":"G#3","midi":56,"time":162.62210300000044,"velocity":0.3858267716535433,"duration":0.09070130416665734},{"name":"B3","midi":59,"time":162.62210300000044,"velocity":0.3858267716535433,"duration":0.09070130416665734},{"name":"G#3","midi":56,"time":162.80503000000041,"velocity":0.3858267716535433,"duration":0.1821648041666606},{"name":"B3","midi":59,"time":162.80503000000041,"velocity":0.3858267716535433,"duration":0.1821648041666606},{"name":"B3","midi":59,"time":162.98795700000042,"velocity":0.3858267716535433,"duration":0.1821648041666606},{"name":"D#4","midi":63,"time":162.98795700000042,"velocity":0.3858267716535433,"duration":0.1821648041666606},{"name":"D#3","midi":51,"time":163.17088400000043,"velocity":0.3858267716535433,"duration":0.09070130416665734},{"name":"G3","midi":55,"time":163.3538110000004,"velocity":0.3858267716535433,"duration":0.09070130416665734},{"name":"A#3","midi":58,"time":163.3538110000004,"velocity":0.3858267716535433,"duration":0.09070130416665734},{"name":"G3","midi":55,"time":163.53673800000038,"velocity":0.3858267716535433,"duration":0.1821648041666606},{"name":"A#3","midi":58,"time":163.53673800000038,"velocity":0.3858267716535433,"duration":0.1821648041666606},{"name":"A#3","midi":58,"time":163.7196650000004,"velocity":0.3858267716535433,"duration":0.1821648041666606},{"name":"D#4","midi":63,"time":163.7196650000004,"velocity":0.3858267716535433,"duration":0.1821648041666606},{"name":"G#1","midi":32,"time":163.9025920000004,"velocity":0.3858267716535433,"duration":0.09070130416665734},{"name":"G#2","midi":44,"time":163.9025920000004,"velocity":0.3858267716535433,"duration":0.09070130416665734},{"name":"G#2","midi":44,"time":164.08551900000037,"velocity":0.3858267716535433,"duration":0.09070130416665734},{"name":"D#3","midi":51,"time":164.08551900000037,"velocity":0.3858267716535433,"duration":0.09070130416665734},{"name":"G#2","midi":44,"time":164.26844600000035,"velocity":0.3858267716535433,"duration":0.09070130416665734},{"name":"D#3","midi":51,"time":164.26844600000035,"velocity":0.3858267716535433,"duration":0.09070130416665734},{"name":"G#2","midi":44,"time":164.45137300000033,"velocity":0.3858267716535433,"duration":0.09070130416665734},{"name":"D#3","midi":51,"time":164.45137300000033,"velocity":0.3858267716535433,"duration":0.09070130416665734},{"name":"G#2","midi":44,"time":164.6343000000003,"velocity":0.4881889763779528,"duration":0.09070130416665734},{"name":"D#3","midi":51,"time":164.6343000000003,"velocity":0.4881889763779528,"duration":0.09070130416665734},{"name":"G#2","midi":44,"time":164.8172270000003,"velocity":0.5433070866141733,"duration":0.09070130416665734},{"name":"D#3","midi":51,"time":164.8172270000003,"velocity":0.5433070866141733,"duration":0.09070130416665734},{"name":"A#2","midi":46,"time":165.00015400000026,"velocity":0.5984251968503937,"duration":0.09070130416665734},{"name":"D#3","midi":51,"time":165.00015400000026,"velocity":0.5984251968503937,"duration":0.09070130416665734},{"name":"B2","midi":47,"time":165.18308100000024,"velocity":0.6535433070866141,"duration":0.09070130416665734},{"name":"D#3","midi":51,"time":165.18308100000024,"velocity":0.6535433070866141,"duration":0.09070130416665734},{"name":"D#2","midi":39,"time":165.36600800000022,"velocity":0.7007874015748031,"duration":0.09070130416665734},{"name":"C#3","midi":49,"time":165.36600800000022,"velocity":0.7007874015748031,"duration":0.09070130416665734},{"name":"D#3","midi":51,"time":165.36600800000022,"velocity":0.7007874015748031,"duration":0.09070130416665734},{"name":"D#3","midi":51,"time":165.5489350000002,"velocity":0.7559055118110236,"duration":0.09070130416665734},{"name":"C#4","midi":61,"time":165.5489350000002,"velocity":0.7559055118110236,"duration":0.09070130416665734},{"name":"D#3","midi":51,"time":165.73186200000018,"velocity":0.7559055118110236,"duration":0.09070130416665734},{"name":"C#4","midi":61,"time":165.73186200000018,"velocity":0.7559055118110236,"duration":0.09070130416665734},{"name":"D#3","midi":51,"time":165.91478900000016,"velocity":0.7559055118110236,"duration":0.09070130416665734},{"name":"C#4","midi":61,"time":165.91478900000016,"velocity":0.7559055118110236,"duration":0.09070130416665734},{"name":"D#3","midi":51,"time":166.09771600000013,"velocity":0.7559055118110236,"duration":0.09070130416665734},{"name":"C#4","midi":61,"time":166.09771600000013,"velocity":0.7559055118110236,"duration":0.09070130416665734},{"name":"D#3","midi":51,"time":166.2806430000001,"velocity":0.7559055118110236,"duration":0.09070130416665734},{"name":"C#4","midi":61,"time":166.2806430000001,"velocity":0.7559055118110236,"duration":0.09070130416665734},{"name":"D#3","midi":51,"time":166.4635700000001,"velocity":0.7559055118110236,"duration":0.09070130416665734},{"name":"B3","midi":59,"time":166.4635700000001,"velocity":0.7559055118110236,"duration":0.09070130416665734},{"name":"D#3","midi":51,"time":166.64649700000007,"velocity":0.7559055118110236,"duration":0.09070130416665734},{"name":"A#3","midi":58,"time":166.64649700000007,"velocity":0.7559055118110236,"duration":0.09070130416665734},{"name":"G#1","midi":32,"time":166.82942400000005,"velocity":0.7559055118110236,"duration":0.09070130416665734},{"name":"G#2","midi":44,"time":166.82942400000005,"velocity":0.7559055118110236,"duration":0.09070130416665734},{"name":"G#2","midi":44,"time":167.01235100000002,"velocity":0.3858267716535433,"duration":0.09070130416665734},{"name":"D#3","midi":51,"time":167.01235100000002,"velocity":0.3858267716535433,"duration":0.09070130416665734},{"name":"G#2","midi":44,"time":167.195278,"velocity":0.3858267716535433,"duration":0.09070130416665734},{"name":"D#3","midi":51,"time":167.195278,"velocity":0.3858267716535433,"duration":0.09070130416665734},{"name":"G#2","midi":44,"time":167.37820499999998,"velocity":0.3858267716535433,"duration":0.09070130416665734},{"name":"D#3","midi":51,"time":167.37820499999998,"velocity":0.3858267716535433,"duration":0.09070130416665734},{"name":"G#2","midi":44,"time":167.56113199999996,"velocity":0.4881889763779528,"duration":0.09070130416665734},{"name":"D#3","midi":51,"time":167.56113199999996,"velocity":0.4881889763779528,"duration":0.09070130416665734},{"name":"G#2","midi":44,"time":167.74405899999994,"velocity":0.5433070866141733,"duration":0.09070130416665734},{"name":"D#3","midi":51,"time":167.74405899999994,"velocity":0.5433070866141733,"duration":0.09070130416665734},{"name":"A#2","midi":46,"time":167.9269859999999,"velocity":0.5984251968503937,"duration":0.09070130416665734},{"name":"D#3","midi":51,"time":167.9269859999999,"velocity":0.5984251968503937,"duration":0.09070130416665734},{"name":"B2","midi":47,"time":168.1099129999999,"velocity":0.6535433070866141,"duration":0.09070130416665734},{"name":"D#3","midi":51,"time":168.1099129999999,"velocity":0.6535433070866141,"duration":0.09070130416665734},{"name":"D#2","midi":39,"time":168.29283999999987,"velocity":0.7007874015748031,"duration":0.09070130416665734},{"name":"C#3","midi":49,"time":168.29283999999987,"velocity":0.7007874015748031,"duration":0.09070130416665734},{"name":"D#3","midi":51,"time":168.29283999999987,"velocity":0.7007874015748031,"duration":0.09070130416665734},{"name":"D#3","midi":51,"time":168.47576699999985,"velocity":0.7559055118110236,"duration":0.09070130416665734},{"name":"C#4","midi":61,"time":168.47576699999985,"velocity":0.7559055118110236,"duration":0.09070130416665734},{"name":"D#3","midi":51,"time":168.65869399999983,"velocity":0.7559055118110236,"duration":0.09070130416665734},{"name":"C#4","midi":61,"time":168.65869399999983,"velocity":0.7559055118110236,"duration":0.09070130416665734},{"name":"D#3","midi":51,"time":168.8416209999998,"velocity":0.7559055118110236,"duration":0.09070130416665734},{"name":"C#4","midi":61,"time":168.8416209999998,"velocity":0.7559055118110236,"duration":0.09070130416665734},{"name":"D#3","midi":51,"time":169.02454799999978,"velocity":0.7559055118110236,"duration":0.09070130416665734},{"name":"C#4","midi":61,"time":169.02454799999978,"velocity":0.7559055118110236,"duration":0.09070130416665734},{"name":"D#3","midi":51,"time":169.20747499999976,"velocity":0.7559055118110236,"duration":0.09070130416665734},{"name":"C#4","midi":61,"time":169.20747499999976,"velocity":0.7559055118110236,"duration":0.09070130416665734},{"name":"D#3","midi":51,"time":169.39040199999974,"velocity":0.7559055118110236,"duration":0.09070130416665734},{"name":"B3","midi":59,"time":169.39040199999974,"velocity":0.7559055118110236,"duration":0.09070130416665734},{"name":"D#3","midi":51,"time":169.57332899999972,"velocity":0.7559055118110236,"duration":0.09070130416665734},{"name":"A#3","midi":58,"time":169.57332899999972,"velocity":0.7559055118110236,"duration":0.09070130416665734},{"name":"G#2","midi":44,"time":169.7562559999997,"velocity":0.7559055118110236,"duration":0.09070130416665734},{"name":"G#3","midi":56,"time":169.7562559999997,"velocity":0.7559055118110236,"duration":0.09070130416665734},{"name":"B3","midi":59,"time":169.93918299999967,"velocity":0.3858267716535433,"duration":0.09070130416665734},{"name":"D#4","midi":63,"time":169.93918299999967,"velocity":0.3858267716535433,"duration":0.09070130416665734},{"name":"B3","midi":59,"time":170.12210999999965,"velocity":0.3858267716535433,"duration":0.1821648041666606},{"name":"D#4","midi":63,"time":170.12210999999965,"velocity":0.3858267716535433,"duration":0.1821648041666606},{"name":"G#3","midi":56,"time":170.30503699999966,"velocity":0.3858267716535433,"duration":0.1821648041666606},{"name":"B3","midi":59,"time":170.30503699999966,"velocity":0.3858267716535433,"duration":0.1821648041666606},{"name":"C#3","midi":49,"time":170.48796399999966,"velocity":0.3858267716535433,"duration":0.09070130416665734},{"name":"C#4","midi":61,"time":170.67089099999964,"velocity":0.3858267716535433,"duration":0.09070130416665734},{"name":"E4","midi":64,"time":170.67089099999964,"velocity":0.3858267716535433,"duration":0.09070130416665734},{"name":"C#4","midi":61,"time":170.85381799999962,"velocity":0.3858267716535433,"duration":0.1821648041666606},{"name":"E4","midi":64,"time":170.85381799999962,"velocity":0.3858267716535433,"duration":0.1821648041666606},{"name":"G#3","midi":56,"time":171.03674499999963,"velocity":0.3858267716535433,"duration":0.1821648041666606},{"name":"C#4","midi":61,"time":171.03674499999963,"velocity":0.3858267716535433,"duration":0.1821648041666606},{"name":"D#3","midi":51,"time":171.21967199999963,"velocity":0.3858267716535433,"duration":0.09070130416665734},{"name":"B3","midi":59,"time":171.4025989999996,"velocity":0.3858267716535433,"duration":0.09070130416665734},{"name":"D#4","midi":63,"time":171.4025989999996,"velocity":0.3858267716535433,"duration":0.09070130416665734},{"name":"B3","midi":59,"time":171.5855259999996,"velocity":0.3858267716535433,"duration":0.1821648041666606},{"name":"D#4","midi":63,"time":171.5855259999996,"velocity":0.3858267716535433,"duration":0.1821648041666606},{"name":"G#3","midi":56,"time":171.7684529999996,"velocity":0.3858267716535433,"duration":0.1821648041666606},{"name":"B3","midi":59,"time":171.7684529999996,"velocity":0.3858267716535433,"duration":0.1821648041666606},{"name":"C#3","midi":49,"time":171.9513799999996,"velocity":0.3858267716535433,"duration":0.09070130416665734},{"name":"A#3","midi":58,"time":172.13430699999958,"velocity":0.3858267716535433,"duration":0.09070130416665734},{"name":"D#4","midi":63,"time":172.13430699999958,"velocity":0.3858267716535433,"duration":0.09070130416665734},{"name":"A#3","midi":58,"time":172.31723399999956,"velocity":0.3858267716535433,"duration":0.1821648041666606},{"name":"D#4","midi":63,"time":172.31723399999956,"velocity":0.3858267716535433,"duration":0.1821648041666606},{"name":"G3","midi":55,"time":172.50016099999957,"velocity":0.3858267716535433,"duration":0.1821648041666606},{"name":"A#3","midi":58,"time":172.50016099999957,"velocity":0.3858267716535433,"duration":0.1821648041666606},{"name":"B2","midi":47,"time":172.68308799999957,"velocity":0.3858267716535433,"duration":0.09070130416665734},{"name":"D#4","midi":63,"time":172.86601499999955,"velocity":0.3858267716535433,"duration":0.09070130416665734},{"name":"G#4","midi":68,"time":172.86601499999955,"velocity":0.3858267716535433,"duration":0.09070130416665734},{"name":"D#4","midi":63,"time":173.04894199999953,"velocity":0.4094488188976378,"duration":0.1821648041666606},{"name":"G#4","midi":68,"time":173.04894199999953,"velocity":0.4094488188976378,"duration":0.1821648041666606},{"name":"B3","midi":59,"time":173.23186899999953,"velocity":0.41732283464566927,"duration":0.1821648041666606},{"name":"D#4","midi":63,"time":173.23186899999953,"velocity":0.41732283464566927,"duration":0.1821648041666606},{"name":"C#3","midi":49,"time":173.41479599999954,"velocity":0.4251968503937008,"duration":0.09070130416665734},{"name":"E4","midi":64,"time":173.59772299999952,"velocity":0.4409448818897638,"duration":0.09070130416665734},{"name":"A4","midi":69,"time":173.59772299999952,"velocity":0.4409448818897638,"duration":0.09070130416665734},{"name":"E4","midi":64,"time":173.7806499999995,"velocity":0.44881889763779526,"duration":0.1821648041666606},{"name":"A4","midi":69,"time":173.7806499999995,"velocity":0.44881889763779526,"duration":0.1821648041666606},{"name":"C#4","midi":61,"time":173.9635769999995,"velocity":0.4645669291338583,"duration":0.1821648041666606},{"name":"E4","midi":64,"time":173.9635769999995,"velocity":0.4645669291338583,"duration":0.1821648041666606},{"name":"D#3","midi":51,"time":174.1465039999995,"velocity":0.47244094488188976,"duration":0.09070130416665734},{"name":"D#4","midi":63,"time":174.3294309999995,"velocity":0.48031496062992124,"duration":0.09070130416665734},{"name":"G#4","midi":68,"time":174.3294309999995,"velocity":0.48031496062992124,"duration":0.09070130416665734},{"name":"D#4","midi":63,"time":174.51235799999947,"velocity":0.49606299212598426,"duration":0.1821648041666606},{"name":"G#4","midi":68,"time":174.51235799999947,"velocity":0.49606299212598426,"duration":0.1821648041666606},{"name":"B3","midi":59,"time":174.69528499999947,"velocity":0.5039370078740157,"duration":0.1821648041666606},{"name":"D#4","midi":63,"time":174.69528499999947,"velocity":0.5039370078740157,"duration":0.1821648041666606},{"name":"D#3","midi":51,"time":174.87821199999948,"velocity":0.4645669291338583,"duration":0.09070130416665734},{"name":"C#4","midi":61,"time":175.06113899999946,"velocity":0.44881889763779526,"duration":0.09070130416665734},{"name":"G4","midi":67,"time":175.06113899999946,"velocity":0.44881889763779526,"duration":0.09070130416665734},{"name":"C#4","midi":61,"time":175.24406599999944,"velocity":0.4251968503937008,"duration":0.1821648041666606},{"name":"G4","midi":67,"time":175.24406599999944,"velocity":0.4251968503937008,"duration":0.1821648041666606},{"name":"A#3","midi":58,"time":175.42699299999944,"velocity":0.4094488188976378,"duration":0.1821648041666606},{"name":"C#4","midi":61,"time":175.42699299999944,"velocity":0.4094488188976378,"duration":0.1821648041666606},{"name":"G#2","midi":44,"time":175.60991999999945,"velocity":0.3858267716535433,"duration":0.09070130416665734},{"name":"G#3","midi":56,"time":175.70138349999945,"velocity":0.3858267716535433,"duration":0.09070130416665734},{"name":"D#3","midi":51,"time":175.79284699999945,"velocity":0.3858267716535433,"duration":0.09070130416665734},{"name":"G#3","midi":56,"time":175.88431049999946,"velocity":0.3858267716535433,"duration":0.09070130416665734},{"name":"G#2","midi":44,"time":175.97577399999946,"velocity":0.3858267716535433,"duration":0.09070130416665734},{"name":"G#3","midi":56,"time":176.06723749999946,"velocity":0.3858267716535433,"duration":0.09070130416665734},{"name":"D#3","midi":51,"time":176.15870099999947,"velocity":0.3858267716535433,"duration":0.09070130416665734},{"name":"G#3","midi":56,"time":176.25016449999947,"velocity":0.3858267716535433,"duration":0.09070130416665734},{"name":"G#2","midi":44,"time":176.34162799999947,"velocity":0.3858267716535433,"duration":0.09070130416665734},{"name":"G#3","midi":56,"time":176.43309149999948,"velocity":0.3858267716535433,"duration":0.09070130416665734},{"name":"D#3","midi":51,"time":176.52455499999948,"velocity":0.3858267716535433,"duration":0.09070130416665734},{"name":"G#3","midi":56,"time":176.61601849999948,"velocity":0.3858267716535433,"duration":0.09070130416665734},{"name":"G#2","midi":44,"time":176.7074819999995,"velocity":0.3858267716535433,"duration":0.09070130416665734},{"name":"G#3","midi":56,"time":176.7989454999995,"velocity":0.3858267716535433,"duration":0.09070130416665734},{"name":"D#3","midi":51,"time":176.8904089999995,"velocity":0.3858267716535433,"duration":0.09070130416665734},{"name":"G#3","midi":56,"time":176.9818724999995,"velocity":0.3858267716535433,"duration":0.09070130416665734},{"name":"G#2","midi":44,"time":177.0733359999995,"velocity":0.3858267716535433,"duration":0.09070130416665734},{"name":"A#3","midi":58,"time":177.1647994999995,"velocity":0.3858267716535433,"duration":0.09070130416665734},{"name":"D#3","midi":51,"time":177.2562629999995,"velocity":0.3858267716535433,"duration":0.09070130416665734},{"name":"A#3","midi":58,"time":177.3477264999995,"velocity":0.3858267716535433,"duration":0.09070130416665734},{"name":"G#2","midi":44,"time":177.4391899999995,"velocity":0.3858267716535433,"duration":0.09070130416665734},{"name":"A#3","midi":58,"time":177.53065349999952,"velocity":0.3858267716535433,"duration":0.09070130416665734},{"name":"D#3","midi":51,"time":177.62211699999952,"velocity":0.3858267716535433,"duration":0.09070130416665734},{"name":"A#3","midi":58,"time":177.71358049999952,"velocity":0.3858267716535433,"duration":0.09070130416665734},{"name":"G#2","midi":44,"time":177.80504399999953,"velocity":0.3858267716535433,"duration":0.09070130416665734},{"name":"A#3","midi":58,"time":177.89650749999953,"velocity":0.3858267716535433,"duration":0.09070130416665734},{"name":"D#3","midi":51,"time":177.98797099999953,"velocity":0.3858267716535433,"duration":0.09070130416665734},{"name":"A#3","midi":58,"time":178.07943449999954,"velocity":0.3858267716535433,"duration":0.09070130416665734},{"name":"G#2","midi":44,"time":178.17089799999954,"velocity":0.3858267716535433,"duration":0.09070130416665734},{"name":"A#3","midi":58,"time":178.26236149999954,"velocity":0.3858267716535433,"duration":0.09070130416665734},{"name":"D#3","midi":51,"time":178.35382499999955,"velocity":0.3858267716535433,"duration":0.09070130416665734},{"name":"A#3","midi":58,"time":178.44528849999955,"velocity":0.3858267716535433,"duration":0.09070130416665734},{"name":"G#2","midi":44,"time":178.53675199999955,"velocity":0.3858267716535433,"duration":0.09070130416665734},{"name":"G#3","midi":56,"time":178.62821549999956,"velocity":0.3858267716535433,"duration":0.09070130416665734},{"name":"D#3","midi":51,"time":178.71967899999956,"velocity":0.3858267716535433,"duration":0.09070130416665734},{"name":"G#3","midi":56,"time":178.81114249999956,"velocity":0.3858267716535433,"duration":0.09070130416665734},{"name":"G#2","midi":44,"time":178.90260599999957,"velocity":0.3858267716535433,"duration":0.09070130416665734},{"name":"G#3","midi":56,"time":178.99406949999957,"velocity":0.3858267716535433,"duration":0.09070130416665734},{"name":"D#3","midi":51,"time":179.08553299999957,"velocity":0.3858267716535433,"duration":0.09070130416665734},{"name":"G#3","midi":56,"time":179.17699649999958,"velocity":0.3858267716535433,"duration":0.09070130416665734},{"name":"G#2","midi":44,"time":179.26845999999958,"velocity":0.3858267716535433,"duration":0.09070130416665734},{"name":"G#3","midi":56,"time":179.35992349999958,"velocity":0.3858267716535433,"duration":0.09070130416665734},{"name":"D#3","midi":51,"time":179.45138699999958,"velocity":0.3858267716535433,"duration":0.09070130416665734},{"name":"G#3","midi":56,"time":179.5428504999996,"velocity":0.3858267716535433,"duration":0.09070130416665734},{"name":"G#2","midi":44,"time":179.6343139999996,"velocity":0.3858267716535433,"duration":0.09070130416665734},{"name":"G#3","midi":56,"time":179.7257774999996,"velocity":0.3858267716535433,"duration":0.09070130416665734},{"name":"D#3","midi":51,"time":179.8172409999996,"velocity":0.3858267716535433,"duration":0.09070130416665734},{"name":"G#3","midi":56,"time":179.9087044999996,"velocity":0.3858267716535433,"duration":0.09070130416665734},{"name":"G#2","midi":44,"time":180.0001679999996,"velocity":0.3858267716535433,"duration":0.09070130416665734},{"name":"A#3","midi":58,"time":180.0916314999996,"velocity":0.3858267716535433,"duration":0.09070130416665734},{"name":"D#3","midi":51,"time":180.1830949999996,"velocity":0.3858267716535433,"duration":0.09070130416665734},{"name":"A#3","midi":58,"time":180.2745584999996,"velocity":0.3858267716535433,"duration":0.09070130416665734},{"name":"G#2","midi":44,"time":180.36602199999962,"velocity":0.3858267716535433,"duration":0.09070130416665734},{"name":"A#3","midi":58,"time":180.45748549999962,"velocity":0.3858267716535433,"duration":0.09070130416665734},{"name":"D#3","midi":51,"time":180.54894899999962,"velocity":0.3858267716535433,"duration":0.09070130416665734},{"name":"A#3","midi":58,"time":180.64041249999963,"velocity":0.3858267716535433,"duration":0.09070130416665734},{"name":"G#2","midi":44,"time":180.73187599999963,"velocity":0.3858267716535433,"duration":0.09070130416665734},{"name":"A#3","midi":58,"time":180.82333949999963,"velocity":0.3858267716535433,"duration":0.09070130416665734},{"name":"D#3","midi":51,"time":180.91480299999964,"velocity":0.3858267716535433,"duration":0.09070130416665734},{"name":"A#3","midi":58,"time":181.00626649999964,"velocity":0.3858267716535433,"duration":0.09070130416665734},{"name":"G#2","midi":44,"time":181.09772999999964,"velocity":0.3858267716535433,"duration":0.09070130416665734},{"name":"A#3","midi":58,"time":181.18919349999965,"velocity":0.3858267716535433,"duration":0.09070130416665734},{"name":"D#3","midi":51,"time":181.28065699999965,"velocity":0.3858267716535433,"duration":0.09070130416665734},{"name":"A#3","midi":58,"time":181.37212049999965,"velocity":0.3858267716535433,"duration":0.09070130416665734},{"name":"G#2","midi":44,"time":181.46358399999966,"velocity":0.3858267716535433,"duration":0.09070130416665734},{"name":"G#3","midi":56,"time":181.55504749999966,"velocity":0.3858267716535433,"duration":0.09070130416665734},{"name":"D#3","midi":51,"time":181.64651099999966,"velocity":0.3858267716535433,"duration":0.09070130416665734},{"name":"G#3","midi":56,"time":181.73797449999967,"velocity":0.3858267716535433,"duration":0.09070130416665734},{"name":"G#2","midi":44,"time":181.82943799999967,"velocity":0.3858267716535433,"duration":0.09070130416665734},{"name":"G#3","midi":56,"time":181.92090149999967,"velocity":0.3858267716535433,"duration":0.09070130416665734},{"name":"D#3","midi":51,"time":182.01236499999968,"velocity":0.3858267716535433,"duration":0.09070130416665734},{"name":"G#3","midi":56,"time":182.10382849999968,"velocity":0.3858267716535433,"duration":0.09070130416665734},{"name":"G#2","midi":44,"time":182.19529199999968,"velocity":0.3858267716535433,"duration":0.09070130416665734},{"name":"A#3","midi":58,"time":182.28675549999969,"velocity":0.3858267716535433,"duration":0.09070130416665734},{"name":"D#3","midi":51,"time":182.3782189999997,"velocity":0.3858267716535433,"duration":0.09070130416665734},{"name":"A#3","midi":58,"time":182.4696824999997,"velocity":0.3858267716535433,"duration":0.09070130416665734},{"name":"G#2","midi":44,"time":182.5611459999997,"velocity":0.3858267716535433,"duration":0.09070130416665734},{"name":"A#3","midi":58,"time":182.6526094999997,"velocity":0.3858267716535433,"duration":0.09070130416665734},{"name":"D#3","midi":51,"time":182.7440729999997,"velocity":0.3858267716535433,"duration":0.09070130416665734},{"name":"A#3","midi":58,"time":182.8355364999997,"velocity":0.3858267716535433,"duration":0.09070130416665734},{"name":"G#2","midi":44,"time":182.9269999999997,"velocity":0.3858267716535433,"duration":0.09070130416665734},{"name":"G#3","midi":56,"time":183.0184634999997,"velocity":0.3858267716535433,"duration":0.09070130416665734},{"name":"D#3","midi":51,"time":183.10992699999971,"velocity":0.3858267716535433,"duration":0.09070130416665734},{"name":"G#3","midi":56,"time":183.20139049999972,"velocity":0.3858267716535433,"duration":0.09070130416665734},{"name":"G#2","midi":44,"time":183.29285399999972,"velocity":0.3858267716535433,"duration":0.09070130416665734},{"name":"G#3","midi":56,"time":183.38431749999972,"velocity":0.3858267716535433,"duration":0.09070130416665734},{"name":"D#3","midi":51,"time":183.47578099999973,"velocity":0.3858267716535433,"duration":0.09070130416665734},{"name":"G#3","midi":56,"time":183.56724449999973,"velocity":0.3858267716535433,"duration":0.09070130416665734},{"name":"G#2","midi":44,"time":183.65870799999973,"velocity":0.3858267716535433,"duration":0.09070130416665734},{"name":"A#3","midi":58,"time":183.75017149999974,"velocity":0.3858267716535433,"duration":0.09070130416665734},{"name":"D#3","midi":51,"time":183.84163499999974,"velocity":0.3858267716535433,"duration":0.09070130416665734},{"name":"A#3","midi":58,"time":183.93309849999974,"velocity":0.3858267716535433,"duration":0.09070130416665734},{"name":"G#2","midi":44,"time":184.02456199999975,"velocity":0.3858267716535433,"duration":0.09070130416665734},{"name":"A#3","midi":58,"time":184.11602549999975,"velocity":0.3858267716535433,"duration":0.09070130416665734},{"name":"D#3","midi":51,"time":184.20748899999975,"velocity":0.3858267716535433,"duration":0.09070130416665734},{"name":"A#3","midi":58,"time":184.29895249999976,"velocity":0.3858267716535433,"duration":0.09070130416665734},{"name":"G#2","midi":44,"time":184.39041599999976,"velocity":0.3858267716535433,"duration":0.09070130416665734},{"name":"G#3","midi":56,"time":184.48187949999976,"velocity":0.4094488188976378,"duration":0.09070130416665734},{"name":"D#3","midi":51,"time":184.57334299999977,"velocity":0.41732283464566927,"duration":0.09070130416665734},{"name":"G#3","midi":56,"time":184.66480649999977,"velocity":0.4330708661417323,"duration":0.09070130416665734},{"name":"G#2","midi":44,"time":184.75626999999977,"velocity":0.4409448818897638,"duration":0.09070130416665734},{"name":"G#3","midi":56,"time":184.84773349999978,"velocity":0.4566929133858268,"duration":0.09070130416665734},{"name":"D#3","midi":51,"time":184.93919699999978,"velocity":0.4645669291338583,"duration":0.09070130416665734},{"name":"G#3","midi":56,"time":185.03066049999978,"velocity":0.47244094488188976,"duration":0.09070130416665734},{"name":"G#2","midi":44,"time":185.1221239999998,"velocity":0.4881889763779528,"duration":0.09070130416665734},{"name":"G#3","midi":56,"time":185.2135874999998,"velocity":0.49606299212598426,"duration":0.09070130416665734},{"name":"D#3","midi":51,"time":185.3050509999998,"velocity":0.5118110236220472,"duration":0.09070130416665734},{"name":"G#3","midi":56,"time":185.3965144999998,"velocity":0.5196850393700787,"duration":0.09070130416665734},{"name":"G#2","midi":44,"time":185.4879779999998,"velocity":0.5354330708661418,"duration":0.09070130416665734},{"name":"G#3","midi":56,"time":185.5794414999998,"velocity":0.5433070866141733,"duration":0.09070130416665734},{"name":"D#3","midi":51,"time":185.6709049999998,"velocity":0.5511811023622047,"duration":0.09070130416665734},{"name":"G#3","midi":56,"time":185.7623684999998,"velocity":0.5669291338582677,"duration":0.09070130416665734},{"name":"G#2","midi":44,"time":185.8538319999998,"velocity":0.5748031496062992,"duration":0.09070130416665734},{"name":"F#3","midi":54,"time":185.94529549999982,"velocity":0.5905511811023622,"duration":0.09070130416665734},{"name":"D#3","midi":51,"time":186.03675899999982,"velocity":0.5984251968503937,"duration":0.09070130416665734},{"name":"F#3","midi":54,"time":186.12822249999982,"velocity":0.6062992125984252,"duration":0.09070130416665734},{"name":"G#2","midi":44,"time":186.21968599999983,"velocity":0.6220472440944882,"duration":0.09070130416665734},{"name":"F#3","midi":54,"time":186.31114949999983,"velocity":0.6299212598425197,"duration":0.09070130416665734},{"name":"D#3","midi":51,"time":186.40261299999983,"velocity":0.6456692913385826,"duration":0.09070130416665734},{"name":"F#3","midi":54,"time":186.49407649999984,"velocity":0.6535433070866141,"duration":0.09070130416665734},{"name":"G#2","midi":44,"time":186.58553999999984,"velocity":0.6692913385826772,"duration":0.09070130416665734},{"name":"F#3","midi":54,"time":186.67700349999984,"velocity":0.6771653543307087,"duration":0.09070130416665734},{"name":"D#3","midi":51,"time":186.76846699999984,"velocity":0.6850393700787402,"duration":0.09070130416665734},{"name":"F#3","midi":54,"time":186.85993049999985,"velocity":0.7007874015748031,"duration":0.09070130416665734},{"name":"G#2","midi":44,"time":186.95139399999985,"velocity":0.7086614173228346,"duration":0.09070130416665734},{"name":"F#3","midi":54,"time":187.04285749999985,"velocity":0.7244094488188977,"duration":0.09070130416665734},{"name":"D#3","midi":51,"time":187.13432099999986,"velocity":0.7322834645669292,"duration":0.09070130416665734},{"name":"F#3","midi":54,"time":187.22578449999986,"velocity":0.7480314960629921,"duration":0.09070130416665734},{"name":"C#2","midi":37,"time":187.31724799999986,"velocity":0.7559055118110236,"duration":0.09070130416665734},{"name":"G#2","midi":44,"time":187.50017499999984,"velocity":0.3858267716535433,"duration":0.09070130416665734},{"name":"C#2","midi":37,"time":187.68310199999982,"velocity":0.3858267716535433,"duration":0.09070130416665734},{"name":"G#2","midi":44,"time":187.8660289999998,"velocity":0.3858267716535433,"duration":0.09070130416665734},{"name":"C#2","midi":37,"time":188.04895599999978,"velocity":0.3858267716535433,"duration":0.09070130416665734},{"name":"G#2","midi":44,"time":188.23188299999975,"velocity":0.3858267716535433,"duration":0.09070130416665734},{"name":"C#2","midi":37,"time":188.41480999999973,"velocity":0.3858267716535433,"duration":0.09070130416665734},{"name":"G#2","midi":44,"time":188.5977369999997,"velocity":0.3858267716535433,"duration":0.09070130416665734},{"name":"C#2","midi":37,"time":188.7806639999997,"velocity":0.3858267716535433,"duration":0.09070130416665734},{"name":"G#2","midi":44,"time":188.96359099999967,"velocity":0.3858267716535433,"duration":0.09070130416665734},{"name":"C#2","midi":37,"time":189.14651799999965,"velocity":0.3858267716535433,"duration":0.09070130416665734},{"name":"G#2","midi":44,"time":189.32944499999962,"velocity":0.3858267716535433,"duration":0.09070130416665734},{"name":"C#2","midi":37,"time":189.5123719999996,"velocity":0.3858267716535433,"duration":0.09070130416665734},{"name":"G#2","midi":44,"time":189.69529899999958,"velocity":0.3858267716535433,"duration":0.09070130416665734},{"name":"C#2","midi":37,"time":189.87822599999956,"velocity":0.5039370078740157,"duration":0.09070130416665734},{"name":"C#3","midi":49,"time":189.87822599999956,"velocity":0.5039370078740157,"duration":0.09070130416665734},{"name":"G#2","midi":44,"time":190.06115299999954,"velocity":0.3858267716535433,"duration":0.09070130416665734},{"name":"B1","midi":35,"time":190.2440799999995,"velocity":0.3858267716535433,"duration":0.09070130416668576},{"name":"G#2","midi":44,"time":190.42700699999952,"velocity":0.3858267716535433,"duration":0.09070130416665734},{"name":"B1","midi":35,"time":190.6099339999995,"velocity":0.3858267716535433,"duration":0.09070130416665734},{"name":"G#2","midi":44,"time":190.79286099999948,"velocity":0.3858267716535433,"duration":0.09070130416665734},{"name":"B1","midi":35,"time":190.97578799999945,"velocity":0.3858267716535433,"duration":0.09070130416665734},{"name":"G#2","midi":44,"time":191.15871499999943,"velocity":0.3858267716535433,"duration":0.09070130416665734},{"name":"B1","midi":35,"time":191.3416419999994,"velocity":0.3858267716535433,"duration":0.09070130416665734},{"name":"G#2","midi":44,"time":191.5245689999994,"velocity":0.3858267716535433,"duration":0.09070130416665734},{"name":"B1","midi":35,"time":191.70749599999937,"velocity":0.3858267716535433,"duration":0.09070130416665734},{"name":"G#2","midi":44,"time":191.89042299999934,"velocity":0.3858267716535433,"duration":0.09070130416665734},{"name":"B1","midi":35,"time":192.07334999999932,"velocity":0.3858267716535433,"duration":0.09070130416665734},{"name":"G#2","midi":44,"time":192.2562769999993,"velocity":0.3858267716535433,"duration":0.09070130416665734},{"name":"B1","midi":35,"time":192.43920399999928,"velocity":0.3858267716535433,"duration":0.09070130416665734},{"name":"G#2","midi":44,"time":192.62213099999926,"velocity":0.3858267716535433,"duration":0.09070130416665734},{"name":"B1","midi":35,"time":192.80505799999924,"velocity":0.5039370078740157,"duration":0.09070130416665734},{"name":"B2","midi":47,"time":192.80505799999924,"velocity":0.5039370078740157,"duration":0.09070130416665734},{"name":"G#2","midi":44,"time":192.9879849999992,"velocity":0.3858267716535433,"duration":0.09070130416665734},{"name":"A1","midi":33,"time":193.1709119999992,"velocity":0.3858267716535433,"duration":0.09070130416668576},{"name":"A2","midi":45,"time":193.3538389999992,"velocity":0.3858267716535433,"duration":0.09070130416665734},{"name":"A1","midi":33,"time":193.53676599999918,"velocity":0.3858267716535433,"duration":0.09070130416665734},{"name":"A2","midi":45,"time":193.71969299999915,"velocity":0.3858267716535433,"duration":0.09070130416665734},{"name":"A1","midi":33,"time":193.90261999999913,"velocity":0.3858267716535433,"duration":0.09070130416665734},{"name":"A2","midi":45,"time":194.0855469999991,"velocity":0.3858267716535433,"duration":0.09070130416665734},{"name":"A1","midi":33,"time":194.2684739999991,"velocity":0.5039370078740157,"duration":0.09070130416665734},{"name":"A2","midi":45,"time":194.45140099999907,"velocity":0.3858267716535433,"duration":0.09070130416665734},{"name":"F1","midi":29,"time":194.63432799999904,"velocity":0.3858267716535433,"duration":0.09070130416668576},{"name":"F2","midi":41,"time":194.81725499999905,"velocity":0.3858267716535433,"duration":0.09070130416665734},{"name":"F1","midi":29,"time":195.00018199999903,"velocity":0.3858267716535433,"duration":0.09070130416665734},{"name":"F2","midi":41,"time":195.183108999999,"velocity":0.3858267716535433,"duration":0.09070130416665734},{"name":"F1","midi":29,"time":195.36603599999899,"velocity":0.3858267716535433,"duration":0.09070130416665734},{"name":"F2","midi":41,"time":195.54896299999896,"velocity":0.3858267716535433,"duration":0.09070130416665734},{"name":"F1","midi":29,"time":195.73188999999894,"velocity":0.5039370078740157,"duration":0.09070130416665734},{"name":"F2","midi":41,"time":195.91481699999892,"velocity":0.3858267716535433,"duration":0.09070130416665734},{"name":"F#1","midi":30,"time":196.0977439999989,"velocity":0.3858267716535433,"duration":0.09070130416668576},{"name":"F#2","midi":42,"time":196.0977439999989,"velocity":0.3858267716535433,"duration":0.09070130416668576},{"name":"C#4","midi":61,"time":196.18920749999893,"velocity":0.3858267716535433,"duration":0.09070130416665734},{"name":"A3","midi":57,"time":196.28067099999893,"velocity":0.3858267716535433,"duration":0.09070130416665734},{"name":"C#4","midi":61,"time":196.37213449999894,"velocity":0.3858267716535433,"duration":0.09070130416665734},{"name":"F#3","midi":54,"time":196.46359799999894,"velocity":0.3858267716535433,"duration":0.09070130416665734},{"name":"C#4","midi":61,"time":196.55506149999894,"velocity":0.3858267716535433,"duration":0.09070130416665734},{"name":"A3","midi":57,"time":196.64652499999895,"velocity":0.3858267716535433,"duration":0.09070130416665734},{"name":"C#4","midi":61,"time":196.73798849999895,"velocity":0.3858267716535433,"duration":0.09070130416665734},{"name":"F#3","midi":54,"time":196.82945199999895,"velocity":0.3858267716535433,"duration":0.09070130416665734},{"name":"C#4","midi":61,"time":196.92091549999896,"velocity":0.3858267716535433,"duration":0.09070130416665734},{"name":"A3","midi":57,"time":197.01237899999896,"velocity":0.3858267716535433,"duration":0.09070130416665734},{"name":"C#4","midi":61,"time":197.10384249999896,"velocity":0.3858267716535433,"duration":0.09070130416665734},{"name":"F#3","midi":54,"time":197.19530599999896,"velocity":0.3858267716535433,"duration":0.09070130416665734},{"name":"C#4","midi":61,"time":197.28676949999897,"velocity":0.3858267716535433,"duration":0.09070130416665734},{"name":"A3","midi":57,"time":197.37823299999897,"velocity":0.3858267716535433,"duration":0.09070130416665734},{"name":"C#4","midi":61,"time":197.46969649999897,"velocity":0.3858267716535433,"duration":0.09070130416665734},{"name":"G#3","midi":56,"time":197.56115999999898,"velocity":0.3858267716535433,"duration":0.09070130416665734},{"name":"C#4","midi":61,"time":197.65262349999898,"velocity":0.3858267716535433,"duration":0.09070130416665734},{"name":"B3","midi":59,"time":197.74408699999898,"velocity":0.3858267716535433,"duration":0.09070130416665734},{"name":"C#4","midi":61,"time":197.835550499999,"velocity":0.3858267716535433,"duration":0.09070130416665734},{"name":"G#3","midi":56,"time":197.927013999999,"velocity":0.3858267716535433,"duration":0.09070130416665734},{"name":"C#4","midi":61,"time":198.018477499999,"velocity":0.3858267716535433,"duration":0.09070130416665734},{"name":"B3","midi":59,"time":198.109940999999,"velocity":0.3858267716535433,"duration":0.09070130416665734},{"name":"C#4","midi":61,"time":198.201404499999,"velocity":0.3858267716535433,"duration":0.09070130416665734},{"name":"G#3","midi":56,"time":198.292867999999,"velocity":0.3858267716535433,"duration":0.09070130416665734},{"name":"C#4","midi":61,"time":198.384331499999,"velocity":0.3858267716535433,"duration":0.09070130416665734},{"name":"B3","midi":59,"time":198.475794999999,"velocity":0.3858267716535433,"duration":0.09070130416665734},{"name":"C#4","midi":61,"time":198.567258499999,"velocity":0.3858267716535433,"duration":0.09070130416665734},{"name":"G#3","midi":56,"time":198.65872199999902,"velocity":0.3858267716535433,"duration":0.09070130416665734},{"name":"C#4","midi":61,"time":198.75018549999902,"velocity":0.3858267716535433,"duration":0.09070130416665734},{"name":"B3","midi":59,"time":198.84164899999902,"velocity":0.3858267716535433,"duration":0.09070130416665734},{"name":"C#4","midi":61,"time":198.93311249999903,"velocity":0.3858267716535433,"duration":0.09070130416665734},{"name":"A3","midi":57,"time":199.02457599999903,"velocity":0.3858267716535433,"duration":0.09070130416665734},{"name":"C#4","midi":61,"time":199.11603949999903,"velocity":0.3858267716535433,"duration":0.09070130416665734},{"name":"A3","midi":57,"time":199.20750299999904,"velocity":0.3858267716535433,"duration":0.09070130416665734},{"name":"C#4","midi":61,"time":199.29896649999904,"velocity":0.3858267716535433,"duration":0.09070130416665734},{"name":"A3","midi":57,"time":199.39042999999904,"velocity":0.3858267716535433,"duration":0.09070130416665734},{"name":"C#4","midi":61,"time":199.48189349999905,"velocity":0.3858267716535433,"duration":0.09070130416665734},{"name":"A3","midi":57,"time":199.57335699999905,"velocity":0.3858267716535433,"duration":0.09070130416665734},{"name":"C#4","midi":61,"time":199.66482049999905,"velocity":0.3858267716535433,"duration":0.09070130416665734},{"name":"A3","midi":57,"time":199.75628399999906,"velocity":0.3858267716535433,"duration":0.09070130416665734},{"name":"C#4","midi":61,"time":199.84774749999906,"velocity":0.3858267716535433,"duration":0.09070130416665734},{"name":"A3","midi":57,"time":199.93921099999906,"velocity":0.3858267716535433,"duration":0.09070130416665734},{"name":"C#4","midi":61,"time":200.03067449999907,"velocity":0.3858267716535433,"duration":0.09070130416665734},{"name":"A3","midi":57,"time":200.12213799999907,"velocity":0.3858267716535433,"duration":0.09070130416665734},{"name":"C#4","midi":61,"time":200.21360149999907,"velocity":0.3858267716535433,"duration":0.09070130416665734},{"name":"A3","midi":57,"time":200.30506499999908,"velocity":0.3858267716535433,"duration":0.09070130416665734},{"name":"C#4","midi":61,"time":200.39652849999908,"velocity":0.3858267716535433,"duration":0.09070130416665734},{"name":"F3","midi":53,"time":200.48799199999908,"velocity":0.3858267716535433,"duration":0.09070130416665734},{"name":"C#4","midi":61,"time":200.57945549999909,"velocity":0.3858267716535433,"duration":0.09070130416665734},{"name":"F3","midi":53,"time":200.6709189999991,"velocity":0.3858267716535433,"duration":0.09070130416665734},{"name":"C#4","midi":61,"time":200.7623824999991,"velocity":0.3858267716535433,"duration":0.09070130416665734},{"name":"F3","midi":53,"time":200.8538459999991,"velocity":0.3858267716535433,"duration":0.09070130416665734},{"name":"C#4","midi":61,"time":200.9453094999991,"velocity":0.3858267716535433,"duration":0.09070130416665734},{"name":"F3","midi":53,"time":201.0367729999991,"velocity":0.3858267716535433,"duration":0.09070130416665734},{"name":"C#4","midi":61,"time":201.1282364999991,"velocity":0.3858267716535433,"duration":0.09070130416665734},{"name":"F3","midi":53,"time":201.2196999999991,"velocity":0.3858267716535433,"duration":0.09070130416665734},{"name":"C#4","midi":61,"time":201.3111634999991,"velocity":0.3858267716535433,"duration":0.09070130416665734},{"name":"F3","midi":53,"time":201.40262699999911,"velocity":0.3858267716535433,"duration":0.09070130416665734},{"name":"C#4","midi":61,"time":201.49409049999912,"velocity":0.3858267716535433,"duration":0.09070130416665734},{"name":"F3","midi":53,"time":201.58555399999912,"velocity":0.3858267716535433,"duration":0.09070130416665734},{"name":"C#4","midi":61,"time":201.67701749999912,"velocity":0.3858267716535433,"duration":0.09070130416665734},{"name":"F3","midi":53,"time":201.76848099999913,"velocity":0.3858267716535433,"duration":0.09070130416665734},{"name":"C#4","midi":61,"time":201.85994449999913,"velocity":0.3858267716535433,"duration":0.09070130416665734},{"name":"F#3","midi":54,"time":201.95140799999913,"velocity":0.3858267716535433,"duration":0.1821648041666606},{"name":"C#4","midi":61,"time":202.31726199999912,"velocity":0.3858267716535433,"duration":0.7309458041666801},{"name":"A3","midi":57,"time":203.04896999999914,"velocity":0.3858267716535433,"duration":0.27362830416666384},{"name":"F#3","midi":54,"time":203.32336049999915,"velocity":0.3858267716535433,"duration":0.09070130416665734},{"name":"F#3","midi":54,"time":203.41482399999916,"velocity":0.3858267716535433,"duration":0.3650918041666671},{"name":"F3","midi":53,"time":203.78067799999917,"velocity":0.3858267716535433,"duration":0.5480188041666736},{"name":"F3","midi":53,"time":204.3294589999992,"velocity":0.3858267716535433,"duration":0.1821648041666606},{"name":"C#4","midi":61,"time":204.5123859999992,"velocity":0.3858267716535433,"duration":0.27362830416666384},{"name":"F3","midi":53,"time":204.7867764999992,"velocity":0.3858267716535433,"duration":0.09070130416665734},{"name":"G#3","midi":56,"time":204.8782399999992,"velocity":0.3858267716535433,"duration":0.3650918041666671},{"name":"F#3","midi":54,"time":205.24409399999922,"velocity":0.3858267716535433,"duration":0.5480188041666736},{"name":"F#3","midi":54,"time":205.79287499999924,"velocity":0.3858267716535433,"duration":0.1821648041666606},{"name":"C#4","midi":61,"time":205.97580199999925,"velocity":0.3858267716535433,"duration":0.27362830416666384},{"name":"F#3","midi":54,"time":206.25019249999926,"velocity":0.3858267716535433,"duration":0.09070130416665734},{"name":"F#3","midi":54,"time":206.34165599999926,"velocity":0.3858267716535433,"duration":0.09070130416665734},{"name":"F#3","midi":54,"time":206.52458299999924,"velocity":0.4645669291338583,"duration":0.1821648041666606},{"name":"D4","midi":62,"time":206.70750999999925,"velocity":0.5118110236220472,"duration":0.27362830416666384},{"name":"F#3","midi":54,"time":206.98190049999926,"velocity":0.5511811023622047,"duration":0.09070130416665734},{"name":"F#3","midi":54,"time":207.07336399999926,"velocity":0.5905511811023622,"duration":0.09070130416665734},{"name":"F#3","midi":54,"time":207.25629099999924,"velocity":0.6299212598425197,"duration":0.1821648041666606},{"name":"D4","midi":62,"time":207.43921799999924,"velocity":0.6771653543307087,"duration":0.27362830416666384},{"name":"F#3","midi":54,"time":207.71360849999925,"velocity":0.7165354330708661,"duration":0.09070130416665734},{"name":"G3","midi":55,"time":207.80507199999926,"velocity":0.7559055118110236,"duration":0.3650918041666671},{"name":"D3","midi":50,"time":208.17092599999927,"velocity":0.3858267716535433,"duration":0.7309458041666801},{"name":"B2","midi":47,"time":208.9026339999993,"velocity":0.3858267716535433,"duration":0.27362830416666384},{"name":"G2","midi":43,"time":209.1770244999993,"velocity":0.3858267716535433,"duration":0.09070130416665734},{"name":"G2","midi":43,"time":209.2684879999993,"velocity":0.3858267716535433,"duration":0.3650918041666671},{"name":"F#2","midi":42,"time":209.63434199999932,"velocity":0.3858267716535433,"duration":0.5480188041666736},{"name":"F#2","midi":42,"time":210.18312299999934,"velocity":0.3858267716535433,"duration":0.1821648041666606},{"name":"D3","midi":50,"time":210.36604999999935,"velocity":0.3858267716535433,"duration":0.27362830416666384},{"name":"F#2","midi":42,"time":210.64044049999936,"velocity":0.3858267716535433,"duration":0.09070130416665734},{"name":"A2","midi":45,"time":210.73190399999936,"velocity":0.3858267716535433,"duration":0.3650918041666671},{"name":"G2","midi":43,"time":211.09775799999937,"velocity":0.3858267716535433,"duration":0.5480188041666736},{"name":"G2","midi":43,"time":211.6465389999994,"velocity":0.4094488188976378,"duration":0.1821648041666606},{"name":"D3","midi":50,"time":211.8294659999994,"velocity":0.4251968503937008,"duration":0.27362830416666384},{"name":"G2","midi":43,"time":212.1038564999994,"velocity":0.4330708661417323,"duration":0.09070130416665734},{"name":"F#2","midi":42,"time":212.1953199999994,"velocity":0.4409448818897638,"duration":0.3650918041666671},{"name":"F2","midi":41,"time":212.56117399999943,"velocity":0.44881889763779526,"duration":0.5480188041666736},{"name":"F2","midi":41,"time":213.10995499999945,"velocity":0.4645669291338583,"duration":0.1821648041666606},{"name":"C#3","midi":49,"time":213.29288199999945,"velocity":0.47244094488188976,"duration":0.27362830416666384},{"name":"F2","midi":41,"time":213.56727249999946,"velocity":0.4881889763779528,"duration":0.09070130416665734},{"name":"F#2","midi":42,"time":213.65873599999946,"velocity":0.6456692913385826,"duration":0.09070130416665734},{"name":"F#2","midi":42,"time":213.84166299999944,"velocity":0.5039370078740157,"duration":0.1821648041666606},{"name":"A2","midi":45,"time":214.02458999999945,"velocity":0.5118110236220472,"duration":0.1821648041666606},{"name":"F#2","midi":42,"time":214.20751699999946,"velocity":0.5196850393700787,"duration":0.1821648041666606},{"name":"D2","midi":38,"time":214.39044399999946,"velocity":0.6850393700787402,"duration":0.09070130416665734},{"name":"D2","midi":38,"time":214.57337099999944,"velocity":0.5354330708661418,"duration":0.1821648041666606},{"name":"F#2","midi":42,"time":214.75629799999945,"velocity":0.5511811023622047,"duration":0.1821648041666606},{"name":"D2","midi":38,"time":214.93922499999945,"velocity":0.5590551181102362,"duration":0.1821648041666606},{"name":"C2","midi":36,"time":215.12215199999946,"velocity":0.7401574803149606,"duration":0.9138728041666582},{"name":"C2","midi":36,"time":216.03678699999946,"velocity":0.5826771653543307,"duration":0.1821648041666606},{"name":"D#2","midi":39,"time":216.21971399999947,"velocity":0.5905511811023622,"duration":0.1821648041666606},{"name":"C2","midi":36,"time":216.40264099999948,"velocity":0.6062992125984252,"duration":0.1821648041666606},{"name":"C#2","midi":37,"time":216.58556799999948,"velocity":0.7952755905511811,"duration":0.09070130416665734},{"name":"C#2","midi":37,"time":216.76849499999946,"velocity":0.6220472440944882,"duration":0.1821648041666606},{"name":"E2","midi":40,"time":216.95142199999947,"velocity":0.6299212598425197,"duration":0.1821648041666606},{"name":"C#2","midi":37,"time":217.13434899999947,"velocity":0.6377952755905512,"duration":0.1821648041666606},{"name":"A1","midi":33,"time":217.31727599999948,"velocity":0.8346456692913385,"duration":0.09070130416665734},{"name":"A1","midi":33,"time":217.50020299999946,"velocity":0.6535433070866141,"duration":0.1821648041666606},{"name":"C#2","midi":37,"time":217.68312999999947,"velocity":0.6692913385826772,"duration":0.1821648041666606},{"name":"A1","midi":33,"time":217.86605699999947,"velocity":0.6771653543307087,"duration":0.1821648041666606},{"name":"F#1","midi":30,"time":218.04898399999948,"velocity":0.889763779527559,"duration":0.09070130416665734},{"name":"F#1","midi":30,"time":218.23191099999946,"velocity":0.6929133858267716,"duration":0.1821648041666606},{"name":"A1","midi":33,"time":218.41483799999946,"velocity":0.7007874015748031,"duration":0.1821648041666606},{"name":"F#1","midi":30,"time":218.59776499999947,"velocity":0.7086614173228346,"duration":0.1821648041666606},{"name":"G1","midi":31,"time":218.78069199999948,"velocity":0.9291338582677166,"duration":0.09070130416665734},{"name":"G1","midi":31,"time":218.96361899999945,"velocity":0.7322834645669292,"duration":0.1821648041666606},{"name":"A#1","midi":34,"time":219.14654599999946,"velocity":0.7401574803149606,"duration":0.1821648041666606},{"name":"G1","midi":31,"time":219.32947299999947,"velocity":0.7480314960629921,"duration":0.1821648041666606},{"name":"G#1","midi":32,"time":219.51239999999947,"velocity":0.7559055118110236,"duration":0.09070130416665734},{"name":"G#2","midi":44,"time":219.60386349999948,"velocity":0.6062992125984252,"duration":0.09070130416665734},{"name":"G#1","midi":32,"time":219.69532699999948,"velocity":0.5354330708661418,"duration":0.09070130416665734},{"name":"G#2","midi":44,"time":219.78679049999948,"velocity":0.4566929133858268,"duration":0.09070130416665734},{"name":"G#1","midi":32,"time":219.8782539999995,"velocity":0.3858267716535433,"duration":0.09070130416665734},{"name":"G#2","midi":44,"time":219.9697174999995,"velocity":0.3858267716535433,"duration":0.09070130416665734},{"name":"G#1","midi":32,"time":220.0611809999995,"velocity":0.3858267716535433,"duration":0.09070130416665734},{"name":"G#2","midi":44,"time":220.1526444999995,"velocity":0.3858267716535433,"duration":0.09070130416665734},{"name":"G#1","midi":32,"time":220.2441079999995,"velocity":0.3858267716535433,"duration":0.09070130416665734},{"name":"G#2","midi":44,"time":220.3355714999995,"velocity":0.3858267716535433,"duration":0.09070130416665734},{"name":"G#1","midi":32,"time":220.4270349999995,"velocity":0.3858267716535433,"duration":0.09070130416665734},{"name":"G#2","midi":44,"time":220.5184984999995,"velocity":0.3858267716535433,"duration":0.09070130416665734},{"name":"G#1","midi":32,"time":220.6099619999995,"velocity":0.3858267716535433,"duration":0.09070130416665734},{"name":"G#2","midi":44,"time":220.70142549999952,"velocity":0.3858267716535433,"duration":0.09070130416665734},{"name":"G#1","midi":32,"time":220.79288899999952,"velocity":0.3858267716535433,"duration":0.09070130416665734},{"name":"G#2","midi":44,"time":220.88435249999952,"velocity":0.3858267716535433,"duration":0.09070130416665734},{"name":"G#1","midi":32,"time":220.97581599999953,"velocity":0.3858267716535433,"duration":0.09070130416665734},{"name":"G#2","midi":44,"time":221.06727949999953,"velocity":0.3858267716535433,"duration":0.09070130416665734},{"name":"G#1","midi":32,"time":221.15874299999953,"velocity":0.3858267716535433,"duration":0.09070130416665734},{"name":"G#2","midi":44,"time":221.25020649999954,"velocity":0.3858267716535433,"duration":0.09070130416665734},{"name":"G#1","midi":32,"time":221.34166999999954,"velocity":0.3858267716535433,"duration":0.09070130416665734},{"name":"G#2","midi":44,"time":221.43313349999954,"velocity":0.3858267716535433,"duration":0.09070130416665734},{"name":"G#1","midi":32,"time":221.52459699999955,"velocity":0.3858267716535433,"duration":0.09070130416665734},{"name":"G#2","midi":44,"time":221.61606049999955,"velocity":0.3858267716535433,"duration":0.09070130416665734},{"name":"G#1","midi":32,"time":221.70752399999955,"velocity":0.3858267716535433,"duration":0.09070130416665734},{"name":"G#2","midi":44,"time":221.79898749999955,"velocity":0.3858267716535433,"duration":0.09070130416665734},{"name":"G#1","midi":32,"time":221.89045099999956,"velocity":0.3858267716535433,"duration":0.09070130416665734},{"name":"G#2","midi":44,"time":221.98191449999956,"velocity":0.3858267716535433,"duration":0.09070130416665734},{"name":"G#1","midi":32,"time":222.07337799999956,"velocity":0.3858267716535433,"duration":0.09070130416665734},{"name":"G#2","midi":44,"time":222.16484149999957,"velocity":0.3858267716535433,"duration":0.09070130416665734},{"name":"G#1","midi":32,"time":222.25630499999957,"velocity":0.3858267716535433,"duration":0.09070130416665734},{"name":"G#2","midi":44,"time":222.34776849999957,"velocity":0.3858267716535433,"duration":0.09070130416665734},{"name":"G#1","midi":32,"time":222.43923199999958,"velocity":0.3858267716535433,"duration":0.09070130416665734},{"name":"G#2","midi":44,"time":222.53069549999958,"velocity":0.3858267716535433,"duration":0.09070130416665734},{"name":"G#1","midi":32,"time":222.62215899999958,"velocity":0.3858267716535433,"duration":0.09070130416665734},{"name":"G#2","midi":44,"time":222.7136224999996,"velocity":0.3858267716535433,"duration":0.09070130416665734},{"name":"G#1","midi":32,"time":222.8050859999996,"velocity":0.3858267716535433,"duration":0.09070130416665734},{"name":"G#2","midi":44,"time":222.8965494999996,"velocity":0.3858267716535433,"duration":0.09070130416665734},{"name":"G#1","midi":32,"time":222.9880129999996,"velocity":0.3858267716535433,"duration":0.09070130416665734},{"name":"G#2","midi":44,"time":223.0794764999996,"velocity":0.3858267716535433,"duration":0.09070130416665734},{"name":"G#1","midi":32,"time":223.1709399999996,"velocity":0.3858267716535433,"duration":0.09070130416665734},{"name":"G#2","midi":44,"time":223.2624034999996,"velocity":0.3858267716535433,"duration":0.09070130416665734},{"name":"G#1","midi":32,"time":223.3538669999996,"velocity":0.3858267716535433,"duration":0.09070130416665734},{"name":"G#2","midi":44,"time":223.4453304999996,"velocity":0.3858267716535433,"duration":0.09070130416665734},{"name":"G#1","midi":32,"time":223.53679399999962,"velocity":0.3858267716535433,"duration":0.09070130416665734},{"name":"G#2","midi":44,"time":223.62825749999962,"velocity":0.3858267716535433,"duration":0.09070130416665734},{"name":"G#1","midi":32,"time":223.71972099999962,"velocity":0.3858267716535433,"duration":0.09070130416665734},{"name":"G#2","midi":44,"time":223.81118449999963,"velocity":0.3858267716535433,"duration":0.09070130416665734},{"name":"G#1","midi":32,"time":223.90264799999963,"velocity":0.3858267716535433,"duration":0.09070130416665734},{"name":"G#2","midi":44,"time":223.99411149999963,"velocity":0.3858267716535433,"duration":0.09070130416665734},{"name":"G#1","midi":32,"time":224.08557499999964,"velocity":0.3858267716535433,"duration":0.09070130416665734},{"name":"G#2","midi":44,"time":224.17703849999964,"velocity":0.3858267716535433,"duration":0.09070130416665734},{"name":"G#1","midi":32,"time":224.26850199999964,"velocity":0.3858267716535433,"duration":0.09070130416665734},{"name":"G#2","midi":44,"time":224.35996549999965,"velocity":0.3858267716535433,"duration":0.09070130416665734},{"name":"G#1","midi":32,"time":224.45142899999965,"velocity":0.3858267716535433,"duration":0.09070130416665734},{"name":"G#2","midi":44,"time":224.54289249999965,"velocity":0.3858267716535433,"duration":0.09070130416665734},{"name":"G#1","midi":32,"time":224.63435599999966,"velocity":0.3858267716535433,"duration":0.09070130416665734},{"name":"G#2","midi":44,"time":224.72581949999966,"velocity":0.3858267716535433,"duration":0.09070130416665734},{"name":"G#1","midi":32,"time":224.81728299999966,"velocity":0.3858267716535433,"duration":0.09070130416665734},{"name":"G#2","midi":44,"time":224.90874649999967,"velocity":0.3858267716535433,"duration":0.09070130416665734},{"name":"G#1","midi":32,"time":225.00020999999967,"velocity":0.3858267716535433,"duration":0.09070130416665734},{"name":"G#2","midi":44,"time":225.09167349999967,"velocity":0.3858267716535433,"duration":0.09070130416665734},{"name":"G#1","midi":32,"time":225.18313699999968,"velocity":0.3858267716535433,"duration":0.09070130416665734},{"name":"G#2","midi":44,"time":225.27460049999968,"velocity":0.3858267716535433,"duration":0.09070130416665734},{"name":"G#1","midi":32,"time":225.36606399999968,"velocity":0.3858267716535433,"duration":0.09070130416665734},{"name":"G#2","midi":44,"time":225.45752749999969,"velocity":0.3858267716535433,"duration":0.09070130416665734},{"name":"G#1","midi":32,"time":225.5489909999997,"velocity":0.3858267716535433,"duration":0.09070130416665734},{"name":"G#2","midi":44,"time":225.6404544999997,"velocity":0.3858267716535433,"duration":0.09070130416665734},{"name":"G#1","midi":32,"time":225.7319179999997,"velocity":0.3937007874015748,"duration":0.09070130416665734},{"name":"G#2","midi":44,"time":225.8233814999997,"velocity":0.4015748031496063,"duration":0.09070130416665734},{"name":"G#1","midi":32,"time":225.9148449999997,"velocity":0.4094488188976378,"duration":0.09070130416665734},{"name":"G#2","midi":44,"time":226.0063084999997,"velocity":0.4094488188976378,"duration":0.09070130416665734},{"name":"G#1","midi":32,"time":226.0977719999997,"velocity":0.41732283464566927,"duration":0.09070130416665734},{"name":"G#2","midi":44,"time":226.1892354999997,"velocity":0.4251968503937008,"duration":0.09070130416665734},{"name":"G#1","midi":32,"time":226.28069899999971,"velocity":0.4330708661417323,"duration":0.09070130416665734},{"name":"G#2","midi":44,"time":226.37216249999972,"velocity":0.4330708661417323,"duration":0.09070130416665734},{"name":"G#1","midi":32,"time":226.46362599999972,"velocity":0.4409448818897638,"duration":0.09070130416665734},{"name":"G#2","midi":44,"time":226.55508949999972,"velocity":0.44881889763779526,"duration":0.09070130416665734},{"name":"G#1","midi":32,"time":226.64655299999973,"velocity":0.44881889763779526,"duration":0.09070130416665734},{"name":"G#2","midi":44,"time":226.73801649999973,"velocity":0.4566929133858268,"duration":0.09070130416665734},{"name":"G#1","midi":32,"time":226.82947999999973,"velocity":0.4645669291338583,"duration":0.09070130416665734},{"name":"G#2","midi":44,"time":226.92094349999974,"velocity":0.4645669291338583,"duration":0.09070130416665734},{"name":"G#1","midi":32,"time":227.01240699999974,"velocity":0.47244094488188976,"duration":0.09070130416665734},{"name":"G#2","midi":44,"time":227.10387049999974,"velocity":0.48031496062992124,"duration":0.09070130416665734},{"name":"G#1","midi":32,"time":227.19533399999975,"velocity":0.48031496062992124,"duration":0.09070130416665734},{"name":"G#2","midi":44,"time":227.28679749999975,"velocity":0.4881889763779528,"duration":0.09070130416665734},{"name":"G#1","midi":32,"time":227.37826099999975,"velocity":0.49606299212598426,"duration":0.09070130416665734},{"name":"G#2","midi":44,"time":227.46972449999976,"velocity":0.49606299212598426,"duration":0.09070130416665734},{"name":"G#1","midi":32,"time":227.56118799999976,"velocity":0.5039370078740157,"duration":0.09070130416665734},{"name":"G#2","midi":44,"time":227.65265149999976,"velocity":0.5118110236220472,"duration":0.09070130416665734},{"name":"G#1","midi":32,"time":227.74411499999977,"velocity":0.5196850393700787,"duration":0.09070130416665734},{"name":"G#2","midi":44,"time":227.83557849999977,"velocity":0.5196850393700787,"duration":0.09070130416665734},{"name":"G#1","midi":32,"time":227.92704199999977,"velocity":0.5275590551181102,"duration":0.09070130416665734},{"name":"G#2","midi":44,"time":228.01850549999978,"velocity":0.5354330708661418,"duration":0.09070130416665734},{"name":"G#1","midi":32,"time":228.10996899999978,"velocity":0.5354330708661418,"duration":0.09070130416665734},{"name":"G#2","midi":44,"time":228.20143249999978,"velocity":0.5433070866141733,"duration":0.09070130416665734},{"name":"G#1","midi":32,"time":228.29289599999979,"velocity":0.5511811023622047,"duration":0.09070130416665734},{"name":"G#2","midi":44,"time":228.3843594999998,"velocity":0.5511811023622047,"duration":0.09070130416665734},{"name":"G#1","midi":32,"time":228.4758229999998,"velocity":0.5590551181102362,"duration":0.09070130416665734},{"name":"G#2","midi":44,"time":228.5672864999998,"velocity":0.5669291338582677,"duration":0.09070130416665734},{"name":"G#1","midi":32,"time":228.6587499999998,"velocity":0.5669291338582677,"duration":0.09070130416665734},{"name":"G#2","midi":44,"time":228.7502134999998,"velocity":0.5748031496062992,"duration":0.09070130416665734},{"name":"G#1","midi":32,"time":228.8416769999998,"velocity":0.5826771653543307,"duration":0.09070130416665734},{"name":"G#2","midi":44,"time":228.9331404999998,"velocity":0.5826771653543307,"duration":0.09070130416665734},{"name":"G#1","midi":32,"time":229.0246039999998,"velocity":0.5905511811023622,"duration":0.09070130416665734},{"name":"G#2","midi":44,"time":229.11606749999982,"velocity":0.5984251968503937,"duration":0.09070130416665734},{"name":"G#1","midi":32,"time":229.20753099999982,"velocity":0.6062992125984252,"duration":0.09070130416665734},{"name":"G#2","midi":44,"time":229.29899449999982,"velocity":0.6062992125984252,"duration":0.09070130416665734},{"name":"G#1","midi":32,"time":229.39045799999982,"velocity":0.6141732283464567,"duration":0.09070130416665734},{"name":"G#2","midi":44,"time":229.48192149999983,"velocity":0.6220472440944882,"duration":0.09070130416665734},{"name":"G#1","midi":32,"time":229.57338499999983,"velocity":0.6220472440944882,"duration":0.09070130416665734},{"name":"G#2","midi":44,"time":229.66484849999983,"velocity":0.6299212598425197,"duration":0.09070130416665734},{"name":"G#1","midi":32,"time":229.75631199999984,"velocity":0.3858267716535433,"duration":0.09070130416665734},{"name":"G#2","midi":44,"time":229.84777549999984,"velocity":0.4015748031496063,"duration":0.09070130416665734},{"name":"G#1","midi":32,"time":229.93923899999984,"velocity":0.4094488188976378,"duration":0.09070130416665734},{"name":"G#2","midi":44,"time":230.03070249999985,"velocity":0.41732283464566927,"duration":0.09070130416665734},{"name":"G#1","midi":32,"time":230.12216599999985,"velocity":0.41732283464566927,"duration":0.09070130416665734},{"name":"G#2","midi":44,"time":230.21362949999985,"velocity":0.4251968503937008,"duration":0.09070130416665734},{"name":"G#1","midi":32,"time":230.30509299999986,"velocity":0.4330708661417323,"duration":0.09070130416665734},{"name":"G#2","midi":44,"time":230.39655649999986,"velocity":0.4409448818897638,"duration":0.09070130416665734},{"name":"G#1","midi":32,"time":230.48801999999986,"velocity":0.44881889763779526,"duration":0.09070130416665734},{"name":"G#2","midi":44,"time":230.57948349999987,"velocity":0.4566929133858268,"duration":0.09070130416665734},{"name":"G#1","midi":32,"time":230.67094699999987,"velocity":0.4645669291338583,"duration":0.09070130416665734},{"name":"G#2","midi":44,"time":230.76241049999987,"velocity":0.47244094488188976,"duration":0.09070130416665734},{"name":"G#1","midi":32,"time":230.85387399999988,"velocity":0.47244094488188976,"duration":0.09070130416665734},{"name":"G#2","midi":44,"time":230.94533749999988,"velocity":0.48031496062992124,"duration":0.09070130416665734},{"name":"G#1","midi":32,"time":231.03680099999988,"velocity":0.4881889763779528,"duration":0.09070130416665734},{"name":"G#2","midi":44,"time":231.1282644999999,"velocity":0.49606299212598426,"duration":0.09070130416665734},{"name":"G#1","midi":32,"time":231.2197279999999,"velocity":0.5039370078740157,"duration":0.09070130416665734},{"name":"G#2","midi":44,"time":231.3111914999999,"velocity":0.4881889763779528,"duration":0.09070130416665734},{"name":"G#1","midi":32,"time":231.4026549999999,"velocity":0.48031496062992124,"duration":0.09070130416665734},{"name":"G#2","midi":44,"time":231.4941184999999,"velocity":0.47244094488188976,"duration":0.09070130416665734},{"name":"G#1","midi":32,"time":231.5855819999999,"velocity":0.47244094488188976,"duration":0.09070130416665734},{"name":"G#2","midi":44,"time":231.6770454999999,"velocity":0.4645669291338583,"duration":0.09070130416665734},{"name":"G#1","midi":32,"time":231.7685089999999,"velocity":0.4566929133858268,"duration":0.09070130416665734},{"name":"G#2","midi":44,"time":231.8599724999999,"velocity":0.44881889763779526,"duration":0.09070130416665734},{"name":"G#1","midi":32,"time":231.95143599999992,"velocity":0.4409448818897638,"duration":0.09070130416665734},{"name":"G#2","midi":44,"time":232.04289949999992,"velocity":0.4330708661417323,"duration":0.09070130416665734},{"name":"G#1","midi":32,"time":232.13436299999992,"velocity":0.4251968503937008,"duration":0.09070130416665734},{"name":"G#2","midi":44,"time":232.22582649999993,"velocity":0.41732283464566927,"duration":0.09070130416665734},{"name":"G#1","midi":32,"time":232.31728999999993,"velocity":0.41732283464566927,"duration":0.09070130416665734},{"name":"G#2","midi":44,"time":232.40875349999993,"velocity":0.4094488188976378,"duration":0.09070130416665734},{"name":"G#1","midi":32,"time":232.50021699999994,"velocity":0.4015748031496063,"duration":0.09070130416665734},{"name":"G#2","midi":44,"time":232.59168049999994,"velocity":0.3937007874015748,"duration":0.09070130416665734},{"name":"G#1","midi":32,"time":232.68314399999994,"velocity":0.3858267716535433,"duration":0.09070130416665734},{"name":"G#2","midi":44,"time":232.77460749999995,"velocity":0.4015748031496063,"duration":0.09070130416665734},{"name":"G#1","midi":32,"time":232.86607099999995,"velocity":0.4094488188976378,"duration":0.09070130416665734},{"name":"G#2","midi":44,"time":232.95753449999995,"velocity":0.41732283464566927,"duration":0.09070130416665734},{"name":"G#1","midi":32,"time":233.04899799999995,"velocity":0.41732283464566927,"duration":0.09070130416665734},{"name":"G#2","midi":44,"time":233.14046149999996,"velocity":0.4251968503937008,"duration":0.09070130416665734},{"name":"G#1","midi":32,"time":233.23192499999996,"velocity":0.4330708661417323,"duration":0.09070130416665734},{"name":"G#2","midi":44,"time":233.32338849999996,"velocity":0.4409448818897638,"duration":0.09070130416665734},{"name":"G#1","midi":32,"time":233.41485199999997,"velocity":0.44881889763779526,"duration":0.09070130416665734},{"name":"G#2","midi":44,"time":233.50631549999997,"velocity":0.4566929133858268,"duration":0.09070130416665734},{"name":"G#1","midi":32,"time":233.59777899999997,"velocity":0.4645669291338583,"duration":0.09070130416665734},{"name":"G#2","midi":44,"time":233.68924249999998,"velocity":0.47244094488188976,"duration":0.09070130416665734},{"name":"G#1","midi":32,"time":233.78070599999998,"velocity":0.47244094488188976,"duration":0.09070130416665734},{"name":"G#2","midi":44,"time":233.87216949999998,"velocity":0.48031496062992124,"duration":0.09070130416665734},{"name":"G#1","midi":32,"time":233.963633,"velocity":0.4881889763779528,"duration":0.09070130416665734},{"name":"G#2","midi":44,"time":234.0550965,"velocity":0.49606299212598426,"duration":0.09070130416665734},{"name":"G#1","midi":32,"time":234.14656,"velocity":0.5039370078740157,"duration":0.09070130416665734},{"name":"G#2","midi":44,"time":234.2380235,"velocity":0.4881889763779528,"duration":0.09070130416665734},{"name":"G#1","midi":32,"time":234.329487,"velocity":0.48031496062992124,"duration":0.09070130416665734},{"name":"G#2","midi":44,"time":234.4209505,"velocity":0.47244094488188976,"duration":0.09070130416665734},{"name":"G#1","midi":32,"time":234.512414,"velocity":0.47244094488188976,"duration":0.09070130416665734},{"name":"G#2","midi":44,"time":234.6038775,"velocity":0.4645669291338583,"duration":0.09070130416665734},{"name":"G#1","midi":32,"time":234.695341,"velocity":0.4566929133858268,"duration":0.09070130416665734},{"name":"G#2","midi":44,"time":234.78680450000002,"velocity":0.44881889763779526,"duration":0.09070130416665734},{"name":"G#1","midi":32,"time":234.87826800000002,"velocity":0.4409448818897638,"duration":0.09070130416665734},{"name":"G#2","midi":44,"time":234.96973150000002,"velocity":0.4330708661417323,"duration":0.09070130416665734},{"name":"G#1","midi":32,"time":235.06119500000003,"velocity":0.4251968503937008,"duration":0.09070130416665734},{"name":"G#2","midi":44,"time":235.15265850000003,"velocity":0.41732283464566927,"duration":0.09070130416665734},{"name":"G#1","midi":32,"time":235.24412200000003,"velocity":0.41732283464566927,"duration":0.09070130416665734},{"name":"G#2","midi":44,"time":235.33558550000004,"velocity":0.4094488188976378,"duration":0.09070130416665734},{"name":"G#1","midi":32,"time":235.42704900000004,"velocity":0.4015748031496063,"duration":0.09070130416665734},{"name":"G#2","midi":44,"time":235.51851250000004,"velocity":0.3937007874015748,"duration":0.09070130416665734},{"name":"G#1","midi":32,"time":235.60997600000005,"velocity":0.3858267716535433,"duration":0.09070130416665734},{"name":"G#2","midi":44,"time":235.70143950000005,"velocity":0.3937007874015748,"duration":0.09070130416665734},{"name":"G#1","midi":32,"time":235.79290300000005,"velocity":0.4015748031496063,"duration":0.09070130416665734},{"name":"G#2","midi":44,"time":235.88436650000006,"velocity":0.4015748031496063,"duration":0.09070130416665734},{"name":"G#1","midi":32,"time":235.97583000000006,"velocity":0.4094488188976378,"duration":0.09070130416665734},{"name":"G#2","midi":44,"time":236.06729350000006,"velocity":0.41732283464566927,"duration":0.09070130416665734},{"name":"G#1","midi":32,"time":236.15875700000007,"velocity":0.41732283464566927,"duration":0.09070130416665734},{"name":"G#2","midi":44,"time":236.25022050000007,"velocity":0.4251968503937008,"duration":0.09070130416665734},{"name":"G#1","midi":32,"time":236.34168400000007,"velocity":0.4251968503937008,"duration":0.09070130416665734},{"name":"G#2","midi":44,"time":236.43314750000008,"velocity":0.4330708661417323,"duration":0.09070130416665734},{"name":"G#1","midi":32,"time":236.52461100000008,"velocity":0.4409448818897638,"duration":0.09070130416665734},{"name":"G#2","midi":44,"time":236.61607450000008,"velocity":0.4409448818897638,"duration":0.09070130416665734},{"name":"G#1","midi":32,"time":236.70753800000008,"velocity":0.44881889763779526,"duration":0.09070130416665734},{"name":"G#2","midi":44,"time":236.7990015000001,"velocity":0.44881889763779526,"duration":0.09070130416665734},{"name":"G#1","midi":32,"time":236.8904650000001,"velocity":0.4566929133858268,"duration":0.09070130416665734},{"name":"G#2","midi":44,"time":236.9819285000001,"velocity":0.4645669291338583,"duration":0.09070130416665734},{"name":"G#1","midi":32,"time":237.0733920000001,"velocity":0.4645669291338583,"duration":0.09070130416665734},{"name":"G#2","midi":44,"time":237.1648555000001,"velocity":0.47244094488188976,"duration":0.09070130416665734},{"name":"G#1","midi":32,"time":237.2563190000001,"velocity":0.47244094488188976,"duration":0.09070130416665734},{"name":"G#2","midi":44,"time":237.3477825000001,"velocity":0.48031496062992124,"duration":0.09070130416665734},{"name":"G#1","midi":32,"time":237.4392460000001,"velocity":0.4881889763779528,"duration":0.09070130416665734},{"name":"G#2","midi":44,"time":237.5307095000001,"velocity":0.4881889763779528,"duration":0.09070130416665734},{"name":"G#1","midi":32,"time":237.62217300000012,"velocity":0.49606299212598426,"duration":0.09070130416665734},{"name":"G#2","midi":44,"time":237.71363650000012,"velocity":0.49606299212598426,"duration":0.09070130416665734},{"name":"A1","midi":33,"time":237.80510000000012,"velocity":0.5039370078740157,"duration":0.09070130416665734},{"name":"A2","midi":45,"time":237.89656350000013,"velocity":0.48031496062992124,"duration":0.09070130416665734},{"name":"A1","midi":33,"time":237.98802700000013,"velocity":0.4645669291338583,"duration":0.09070130416665734},{"name":"A2","midi":45,"time":238.07949050000013,"velocity":0.44881889763779526,"duration":0.09070130416665734},{"name":"A1","midi":33,"time":238.17095400000014,"velocity":0.4409448818897638,"duration":0.09070130416665734},{"name":"A2","midi":45,"time":238.26241750000014,"velocity":0.4251968503937008,"duration":0.09070130416665734},{"name":"A1","midi":33,"time":238.35388100000014,"velocity":0.4094488188976378,"duration":0.09070130416665734},{"name":"A2","midi":45,"time":238.44534450000015,"velocity":0.4015748031496063,"duration":0.09070130416665734},{"name":"F#1","midi":30,"time":238.53680800000015,"velocity":0.3858267716535433,"duration":1.4626538041666777},{"name":"F#2","midi":42,"time":238.53680800000015,"velocity":0.3858267716535433,"duration":1.4626538041666777},{"name":"G#1","midi":32,"time":240.00022400000017,"velocity":0.25984251968503935,"duration":1.4626538041666777},{"name":"G#2","midi":44,"time":240.00022400000017,"velocity":0.25984251968503935,"duration":1.4626538041666777},{"name":"C#2","midi":37,"time":241.4636400000002,"velocity":0.7559055118110236,"duration":0.09070130416665734},{"name":"G#2","midi":44,"time":241.64656700000018,"velocity":0.3858267716535433,"duration":0.09070130416665734},{"name":"C#2","midi":37,"time":241.82949400000015,"velocity":0.3858267716535433,"duration":0.09070130416665734},{"name":"G#2","midi":44,"time":242.01242100000013,"velocity":0.3858267716535433,"duration":0.09070130416665734},{"name":"C#2","midi":37,"time":242.1953480000001,"velocity":0.3858267716535433,"duration":0.09070130416665734},{"name":"G#2","midi":44,"time":242.3782750000001,"velocity":0.3858267716535433,"duration":0.09070130416665734},{"name":"C#2","midi":37,"time":242.56120200000007,"velocity":0.3858267716535433,"duration":0.09070130416665734},{"name":"G#2","midi":44,"time":242.74412900000004,"velocity":0.3858267716535433,"duration":0.09070130416665734},{"name":"C#2","midi":37,"time":242.92705600000002,"velocity":0.3858267716535433,"duration":0.09070130416665734},{"name":"G#2","midi":44,"time":243.109983,"velocity":0.3858267716535433,"duration":0.09070130416665734},{"name":"C#2","midi":37,"time":243.29290999999998,"velocity":0.3858267716535433,"duration":0.09070130416665734},{"name":"G#2","midi":44,"time":243.47583699999996,"velocity":0.3858267716535433,"duration":0.09070130416665734},{"name":"C#2","midi":37,"time":243.65876399999993,"velocity":0.3858267716535433,"duration":0.09070130416665734},{"name":"G#2","midi":44,"time":243.8416909999999,"velocity":0.3858267716535433,"duration":0.09070130416665734},{"name":"C#2","midi":37,"time":244.0246179999999,"velocity":0.5039370078740157,"duration":0.09070130416665734},{"name":"C#3","midi":49,"time":244.0246179999999,"velocity":0.5039370078740157,"duration":0.09070130416665734},{"name":"G#2","midi":44,"time":244.20754499999987,"velocity":0.3858267716535433,"duration":0.09070130416665734},{"name":"C2","midi":36,"time":244.39047199999985,"velocity":0.3858267716535433,"duration":0.09070130416668576},{"name":"G#2","midi":44,"time":244.57339899999985,"velocity":0.3858267716535433,"duration":0.09070130416665734},{"name":"C2","midi":36,"time":244.75632599999983,"velocity":0.3858267716535433,"duration":0.09070130416665734},{"name":"G#2","midi":44,"time":244.9392529999998,"velocity":0.3858267716535433,"duration":0.09070130416665734},{"name":"C2","midi":36,"time":245.1221799999998,"velocity":0.3858267716535433,"duration":0.09070130416665734},{"name":"G#2","midi":44,"time":245.30510699999977,"velocity":0.3858267716535433,"duration":0.09070130416665734},{"name":"C2","midi":36,"time":245.48803399999974,"velocity":0.3858267716535433,"duration":0.09070130416665734},{"name":"G#2","midi":44,"time":245.67096099999972,"velocity":0.3858267716535433,"duration":0.09070130416665734},{"name":"C2","midi":36,"time":245.8538879999997,"velocity":0.3858267716535433,"duration":0.09070130416665734},{"name":"G#2","midi":44,"time":246.03681499999968,"velocity":0.3858267716535433,"duration":0.09070130416665734},{"name":"C2","midi":36,"time":246.21974199999966,"velocity":0.3858267716535433,"duration":0.09070130416665734},{"name":"G#2","midi":44,"time":246.40266899999963,"velocity":0.3858267716535433,"duration":0.09070130416665734},{"name":"C2","midi":36,"time":246.5855959999996,"velocity":0.3858267716535433,"duration":0.09070130416665734},{"name":"G#2","midi":44,"time":246.7685229999996,"velocity":0.3858267716535433,"duration":0.09070130416665734},{"name":"C2","midi":36,"time":246.95144999999957,"velocity":0.5039370078740157,"duration":0.09070130416665734},{"name":"C3","midi":48,"time":246.95144999999957,"velocity":0.5039370078740157,"duration":0.09070130416665734},{"name":"G#2","midi":44,"time":247.13437699999955,"velocity":0.3858267716535433,"duration":0.09070130416665734},{"name":"B1","midi":35,"time":247.31730399999952,"velocity":0.3858267716535433,"duration":0.09070130416668576},{"name":"G#2","midi":44,"time":247.50023099999953,"velocity":0.3858267716535433,"duration":0.09070130416665734},{"name":"B1","midi":35,"time":247.6831579999995,"velocity":0.3858267716535433,"duration":0.09070130416665734},{"name":"G#2","midi":44,"time":247.8660849999995,"velocity":0.3858267716535433,"duration":0.09070130416665734},{"name":"B1","midi":35,"time":248.04901199999946,"velocity":0.3858267716535433,"duration":0.09070130416665734},{"name":"G#2","midi":44,"time":248.23193899999944,"velocity":0.3858267716535433,"duration":0.09070130416665734},{"name":"B1","midi":35,"time":248.41486599999942,"velocity":0.3858267716535433,"duration":0.09070130416665734},{"name":"G#2","midi":44,"time":248.5977929999994,"velocity":0.3858267716535433,"duration":0.09070130416665734},{"name":"B1","midi":35,"time":248.78071999999938,"velocity":0.3858267716535433,"duration":0.09070130416665734},{"name":"G#2","midi":44,"time":248.96364699999936,"velocity":0.3858267716535433,"duration":0.09070130416665734},{"name":"B1","midi":35,"time":249.14657399999933,"velocity":0.3858267716535433,"duration":0.09070130416665734},{"name":"G#2","midi":44,"time":249.3295009999993,"velocity":0.3858267716535433,"duration":0.09070130416665734},{"name":"B1","midi":35,"time":249.5124279999993,"velocity":0.3858267716535433,"duration":0.09070130416665734},{"name":"G#2","midi":44,"time":249.69535499999927,"velocity":0.3858267716535433,"duration":0.09070130416665734},{"name":"B1","midi":35,"time":249.87828199999925,"velocity":0.5039370078740157,"duration":0.09070130416665734},{"name":"B2","midi":47,"time":249.87828199999925,"velocity":0.5039370078740157,"duration":0.09070130416665734},{"name":"G#2","midi":44,"time":250.06120899999922,"velocity":0.3858267716535433,"duration":0.09070130416665734},{"name":"A1","midi":33,"time":250.2441359999992,"velocity":0.3858267716535433,"duration":0.09070130416668576},{"name":"A2","midi":45,"time":250.4270629999992,"velocity":0.4330708661417323,"duration":0.09070130416665734},{"name":"A1","midi":33,"time":250.6099899999992,"velocity":0.44881889763779526,"duration":0.09070130416665734},{"name":"A2","midi":45,"time":250.79291699999916,"velocity":0.47244094488188976,"duration":0.09070130416665734},{"name":"A1","midi":33,"time":250.97584399999914,"velocity":0.49606299212598426,"duration":0.09070130416665734},{"name":"A2","midi":45,"time":251.15877099999912,"velocity":0.5196850393700787,"duration":0.09070130416665734},{"name":"A1","midi":33,"time":251.3416979999991,"velocity":0.6141732283464567,"duration":0.09070130416665734},{"name":"A2","midi":45,"time":251.52462499999908,"velocity":0.5590551181102362,"duration":0.09070130416665734},{"name":"A1","midi":33,"time":251.70755199999905,"velocity":0.5826771653543307,"duration":0.09070130416668576},{"name":"A2","midi":45,"time":251.89047899999906,"velocity":0.6062992125984252,"duration":0.09070130416665734},{"name":"A1","midi":33,"time":252.07340599999904,"velocity":0.6220472440944882,"duration":0.09070130416665734},{"name":"A2","midi":45,"time":252.25633299999902,"velocity":0.6456692913385826,"duration":0.09070130416665734},{"name":"A1","midi":33,"time":252.439259999999,"velocity":0.6692913385826772,"duration":0.09070130416665734},{"name":"A2","midi":45,"time":252.62218699999897,"velocity":0.6929133858267716,"duration":0.09070130416665734},{"name":"A1","midi":33,"time":252.80511399999895,"velocity":0.7874015748031497,"duration":0.09070130416665734},{"name":"A2","midi":45,"time":252.98804099999893,"velocity":0.7322834645669292,"duration":0.09070130416665734},{"name":"G#1","midi":32,"time":253.1709679999989,"velocity":0.7559055118110236,"duration":0.182164804166689},{"name":"G#2","midi":44,"time":253.1709679999989,"velocity":0.7559055118110236,"duration":0.182164804166689},{"name":"C4","midi":60,"time":253.35389499999894,"velocity":0.7559055118110236,"duration":0.1821648041666606},{"name":"G#3","midi":56,"time":253.35389499999894,"velocity":0.7559055118110236,"duration":2.74314280416678},{"name":"C4","midi":60,"time":253.53682199999895,"velocity":0.7559055118110236,"duration":0.1821648041666606},{"name":"C#4","midi":61,"time":253.71974899999896,"velocity":0.7559055118110236,"duration":0.1821648041666606},{"name":"D#4","midi":63,"time":253.90267599999896,"velocity":0.7559055118110236,"duration":0.1821648041666606},{"name":"E4","midi":64,"time":254.08560299999897,"velocity":0.7559055118110236,"duration":0.1821648041666606},{"name":"F#4","midi":66,"time":254.26852999999898,"velocity":0.7559055118110236,"duration":0.1821648041666606},{"name":"D#4","midi":63,"time":254.45145699999898,"velocity":0.7559055118110236,"duration":0.1821648041666606},{"name":"F#4","midi":66,"time":254.634383999999,"velocity":0.7559055118110236,"duration":0.1821648041666606},{"name":"E4","midi":64,"time":254.817310999999,"velocity":0.7559055118110236,"duration":0.1821648041666606},{"name":"A4","midi":69,"time":255.000237999999,"velocity":0.7559055118110236,"duration":0.1821648041666606},{"name":"G#4","midi":68,"time":255.183164999999,"velocity":0.7559055118110236,"duration":0.1821648041666606},{"name":"F#4","midi":66,"time":255.366091999999,"velocity":0.7559055118110236,"duration":0.1821648041666606},{"name":"E4","midi":64,"time":255.54901899999902,"velocity":0.7559055118110236,"duration":0.1821648041666606},{"name":"D#4","midi":63,"time":255.73194599999903,"velocity":0.7559055118110236,"duration":0.1821648041666606},{"name":"C#4","midi":61,"time":255.91487299999903,"velocity":0.7559055118110236,"duration":0.182164804166689},{"name":"G#3","midi":56,"time":256.09779999999904,"velocity":0.7559055118110236,"duration":2.9260698041667865},{"name":"C4","midi":60,"time":256.09779999999904,"velocity":0.7559055118110236,"duration":0.182164804166689},{"name":"C4","midi":60,"time":256.28072699999905,"velocity":0.7559055118110236,"duration":0.182164804166689},{"name":"C4","midi":60,"time":256.46365399999905,"velocity":0.7559055118110236,"duration":0.182164804166689},{"name":"C#4","midi":61,"time":256.64658099999906,"velocity":0.7559055118110236,"duration":0.182164804166689},{"name":"D#4","midi":63,"time":256.82950799999907,"velocity":0.7559055118110236,"duration":0.182164804166689},{"name":"E4","midi":64,"time":257.0124349999991,"velocity":0.7559055118110236,"duration":0.182164804166689},{"name":"F#4","midi":66,"time":257.1953619999991,"velocity":0.7559055118110236,"duration":0.182164804166689},{"name":"D#4","midi":63,"time":257.3782889999991,"velocity":0.7559055118110236,"duration":0.182164804166689},{"name":"F#4","midi":66,"time":257.5612159999991,"velocity":0.7559055118110236,"duration":0.182164804166689},{"name":"E4","midi":64,"time":257.7441429999991,"velocity":0.7559055118110236,"duration":0.182164804166689},{"name":"A4","midi":69,"time":257.9270699999991,"velocity":0.7559055118110236,"duration":0.182164804166689},{"name":"G#4","midi":68,"time":258.1099969999991,"velocity":0.7559055118110236,"duration":0.182164804166689},{"name":"F#4","midi":66,"time":258.2929239999991,"velocity":0.7559055118110236,"duration":0.182164804166689},{"name":"E4","midi":64,"time":258.4758509999991,"velocity":0.7559055118110236,"duration":0.182164804166689},{"name":"D#4","midi":63,"time":258.65877799999913,"velocity":0.7559055118110236,"duration":0.182164804166689},{"name":"C#4","midi":61,"time":258.84170499999914,"velocity":0.7559055118110236,"duration":0.182164804166689},{"name":"C4","midi":60,"time":259.02463199999914,"velocity":0.7559055118110236,"duration":0.09070130416665734},{"name":"G#3","midi":56,"time":259.02463199999914,"velocity":0.7559055118110236,"duration":0.09070130416665734},{"name":"C#4","midi":61,"time":259.20755899999915,"velocity":0.7559055118110236,"duration":0.09070130416665734},{"name":"G#3","midi":56,"time":259.20755899999915,"velocity":0.7559055118110236,"duration":0.09070130416665734},{"name":"C4","midi":60,"time":259.39048599999916,"velocity":0.7559055118110236,"duration":0.09070130416665734},{"name":"G#3","midi":56,"time":259.39048599999916,"velocity":0.7559055118110236,"duration":0.09070130416665734},{"name":"C#4","midi":61,"time":259.57341299999916,"velocity":0.7559055118110236,"duration":0.09070130416665734},{"name":"G#3","midi":56,"time":259.57341299999916,"velocity":0.7559055118110236,"duration":0.09070130416665734},{"name":"C4","midi":60,"time":259.75633999999917,"velocity":0.7559055118110236,"duration":0.09070130416665734},{"name":"G#3","midi":56,"time":259.75633999999917,"velocity":0.7559055118110236,"duration":0.09070130416665734},{"name":"C#4","midi":61,"time":259.9392669999992,"velocity":0.7559055118110236,"duration":0.09070130416665734},{"name":"G#3","midi":56,"time":259.9392669999992,"velocity":0.7559055118110236,"duration":0.09070130416665734},{"name":"C4","midi":60,"time":260.1221939999992,"velocity":0.7559055118110236,"duration":0.09070130416665734},{"name":"G#3","midi":56,"time":260.1221939999992,"velocity":0.7559055118110236,"duration":0.09070130416665734},{"name":"C#4","midi":61,"time":260.3051209999992,"velocity":0.7559055118110236,"duration":0.09070130416665734},{"name":"G#3","midi":56,"time":260.3051209999992,"velocity":0.7559055118110236,"duration":0.09070130416665734},{"name":"G#3","midi":56,"time":260.4880479999992,"velocity":0.7559055118110236,"duration":0.182164804166689},{"name":"C4","midi":60,"time":260.4880479999992,"velocity":0.7559055118110236,"duration":0.182164804166689},{"name":"G#1","midi":32,"time":260.8539019999992,"velocity":0.8267716535433071,"duration":1.0967998041666647},{"name":"G#2","midi":44,"time":260.8539019999992,"velocity":0.8267716535433071,"duration":1.0967998041666647},{"name":"C#3","midi":49,"time":261.9514639999992,"velocity":0.3858267716535433,"duration":0.09070130416665734},{"name":"G#3","midi":56,"time":262.04292749999917,"velocity":0.3858267716535433,"duration":0.09070130416665734},{"name":"E3","midi":52,"time":262.13439099999914,"velocity":0.3858267716535433,"duration":0.09070130416665734},{"name":"G#3","midi":56,"time":262.2258544999991,"velocity":0.3858267716535433,"duration":0.09070130416665734},{"name":"C#3","midi":49,"time":262.3173179999991,"velocity":0.3858267716535433,"duration":0.09070130416665734},{"name":"G#3","midi":56,"time":262.40878149999907,"velocity":0.3858267716535433,"duration":0.09070130416665734},{"name":"E3","midi":52,"time":262.50024499999904,"velocity":0.3858267716535433,"duration":0.09070130416665734},{"name":"G#3","midi":56,"time":262.591708499999,"velocity":0.3858267716535433,"duration":0.09070130416665734},{"name":"C#3","midi":49,"time":262.683171999999,"velocity":0.3858267716535433,"duration":0.09070130416665734},{"name":"G#3","midi":56,"time":262.77463549999896,"velocity":0.3858267716535433,"duration":0.09070130416665734},{"name":"E3","midi":52,"time":262.86609899999894,"velocity":0.3858267716535433,"duration":0.09070130416665734},{"name":"G#3","midi":56,"time":262.9575624999989,"velocity":0.3858267716535433,"duration":0.09070130416665734},{"name":"C#3","midi":49,"time":263.0490259999989,"velocity":0.3858267716535433,"duration":0.09070130416665734},{"name":"G#3","midi":56,"time":263.14048949999886,"velocity":0.3858267716535433,"duration":0.09070130416665734},{"name":"E3","midi":52,"time":263.23195299999884,"velocity":0.3858267716535433,"duration":0.09070130416665734},{"name":"G#3","midi":56,"time":263.3234164999988,"velocity":0.3858267716535433,"duration":0.09070130416665734},{"name":"D#3","midi":51,"time":263.4148799999988,"velocity":0.3858267716535433,"duration":0.09070130416665734},{"name":"G#3","midi":56,"time":263.50634349999876,"velocity":0.3858267716535433,"duration":0.09070130416665734},{"name":"F#3","midi":54,"time":263.59780699999874,"velocity":0.3858267716535433,"duration":0.09070130416665734},{"name":"G#3","midi":56,"time":263.6892704999987,"velocity":0.3858267716535433,"duration":0.09070130416665734},{"name":"D#3","midi":51,"time":263.7807339999987,"velocity":0.3858267716535433,"duration":0.09070130416665734},{"name":"G#3","midi":56,"time":263.87219749999866,"velocity":0.3858267716535433,"duration":0.09070130416665734},{"name":"F#3","midi":54,"time":263.96366099999864,"velocity":0.3858267716535433,"duration":0.09070130416665734},{"name":"G#3","midi":56,"time":264.0551244999986,"velocity":0.3858267716535433,"duration":0.09070130416665734},{"name":"D#3","midi":51,"time":264.1465879999986,"velocity":0.3858267716535433,"duration":0.09070130416665734},{"name":"G#3","midi":56,"time":264.23805149999856,"velocity":0.3858267716535433,"duration":0.09070130416665734},{"name":"F#3","midi":54,"time":264.32951499999854,"velocity":0.3858267716535433,"duration":0.09070130416665734},{"name":"G#3","midi":56,"time":264.4209784999985,"velocity":0.3858267716535433,"duration":0.09070130416665734},{"name":"D#3","midi":51,"time":264.5124419999985,"velocity":0.3858267716535433,"duration":0.09070130416665734},{"name":"G#3","midi":56,"time":264.60390549999846,"velocity":0.3858267716535433,"duration":0.09070130416665734},{"name":"F#3","midi":54,"time":264.69536899999844,"velocity":0.3858267716535433,"duration":0.09070130416665734},{"name":"G#3","midi":56,"time":264.7868324999984,"velocity":0.3858267716535433,"duration":0.09070130416665734},{"name":"E3","midi":52,"time":264.8782959999984,"velocity":0.3858267716535433,"duration":0.09070130416665734},{"name":"G#3","midi":56,"time":264.96975949999836,"velocity":0.3858267716535433,"duration":0.09070130416665734},{"name":"E3","midi":52,"time":265.06122299999834,"velocity":0.3858267716535433,"duration":0.09070130416665734},{"name":"G#3","midi":56,"time":265.1526864999983,"velocity":0.3858267716535433,"duration":0.09070130416665734},{"name":"E3","midi":52,"time":265.2441499999983,"velocity":0.3858267716535433,"duration":0.09070130416665734},{"name":"G#3","midi":56,"time":265.33561349999826,"velocity":0.3858267716535433,"duration":0.09070130416665734},{"name":"E3","midi":52,"time":265.42707699999823,"velocity":0.3858267716535433,"duration":0.09070130416665734},{"name":"G#3","midi":56,"time":265.5185404999982,"velocity":0.3858267716535433,"duration":0.09070130416665734},{"name":"E3","midi":52,"time":265.6100039999982,"velocity":0.3858267716535433,"duration":0.09070130416665734},{"name":"G#3","midi":56,"time":265.70146749999816,"velocity":0.3858267716535433,"duration":0.09070130416665734},{"name":"E3","midi":52,"time":265.79293099999813,"velocity":0.3858267716535433,"duration":0.09070130416665734},{"name":"G#3","midi":56,"time":265.8843944999981,"velocity":0.3858267716535433,"duration":0.09070130416665734},{"name":"E3","midi":52,"time":265.9758579999981,"velocity":0.3858267716535433,"duration":0.09070130416665734},{"name":"G#3","midi":56,"time":266.06732149999806,"velocity":0.3858267716535433,"duration":0.09070130416665734},{"name":"E3","midi":52,"time":266.15878499999803,"velocity":0.3858267716535433,"duration":0.09070130416665734},{"name":"G#3","midi":56,"time":266.250248499998,"velocity":0.3858267716535433,"duration":0.09070130416665734},{"name":"C3","midi":48,"time":266.341711999998,"velocity":0.3858267716535433,"duration":0.09070130416665734},{"name":"G#3","midi":56,"time":266.43317549999796,"velocity":0.3858267716535433,"duration":0.09070130416665734},{"name":"C3","midi":48,"time":266.52463899999793,"velocity":0.3858267716535433,"duration":0.09070130416665734},{"name":"G#3","midi":56,"time":266.6161024999979,"velocity":0.3858267716535433,"duration":0.09070130416665734},{"name":"C3","midi":48,"time":266.7075659999979,"velocity":0.3858267716535433,"duration":0.09070130416665734},{"name":"G#3","midi":56,"time":266.79902949999786,"velocity":0.3858267716535433,"duration":0.09070130416665734},{"name":"C3","midi":48,"time":266.89049299999783,"velocity":0.3858267716535433,"duration":0.09070130416665734},{"name":"G#3","midi":56,"time":266.9819564999978,"velocity":0.3858267716535433,"duration":0.09070130416665734},{"name":"C3","midi":48,"time":267.0734199999978,"velocity":0.3858267716535433,"duration":0.09070130416665734},{"name":"G#3","midi":56,"time":267.16488349999776,"velocity":0.3858267716535433,"duration":0.09070130416665734},{"name":"C3","midi":48,"time":267.25634699999773,"velocity":0.3858267716535433,"duration":0.09070130416665734},{"name":"G#3","midi":56,"time":267.3478104999977,"velocity":0.3858267716535433,"duration":0.09070130416665734},{"name":"C3","midi":48,"time":267.4392739999977,"velocity":0.3858267716535433,"duration":0.09070130416665734},{"name":"G#3","midi":56,"time":267.53073749999766,"velocity":0.3858267716535433,"duration":0.09070130416665734},{"name":"C3","midi":48,"time":267.62220099999763,"velocity":0.3858267716535433,"duration":0.09070130416665734},{"name":"G#3","midi":56,"time":267.7136644999976,"velocity":0.3858267716535433,"duration":0.09070130416665734},{"name":"C#3","midi":49,"time":267.8051279999976,"velocity":0.3858267716535433,"duration":0.09070130416665734},{"name":"G#3","midi":56,"time":267.89659149999756,"velocity":0.3858267716535433,"duration":0.09070130416665734},{"name":"E3","midi":52,"time":267.98805499999753,"velocity":0.3858267716535433,"duration":0.09070130416665734},{"name":"G#3","midi":56,"time":268.0795184999975,"velocity":0.3858267716535433,"duration":0.09070130416665734},{"name":"C#3","midi":49,"time":268.1709819999975,"velocity":0.3858267716535433,"duration":0.09070130416665734},{"name":"G#3","midi":56,"time":268.26244549999745,"velocity":0.3858267716535433,"duration":0.09070130416665734},{"name":"E3","midi":52,"time":268.35390899999743,"velocity":0.3858267716535433,"duration":0.09070130416665734},{"name":"G#3","midi":56,"time":268.4453724999974,"velocity":0.3858267716535433,"duration":0.09070130416665734},{"name":"C#3","midi":49,"time":268.5368359999974,"velocity":0.3858267716535433,"duration":0.09070130416665734},{"name":"G#3","midi":56,"time":268.62829949999735,"velocity":0.3858267716535433,"duration":0.09070130416665734},{"name":"E3","midi":52,"time":268.71976299999733,"velocity":0.3858267716535433,"duration":0.09070130416665734},{"name":"G#3","midi":56,"time":268.8112264999973,"velocity":0.3858267716535433,"duration":0.09070130416665734},{"name":"C#3","midi":49,"time":268.9026899999973,"velocity":0.3858267716535433,"duration":0.09070130416665734},{"name":"G#3","midi":56,"time":268.99415349999725,"velocity":0.3858267716535433,"duration":0.09070130416665734},{"name":"E3","midi":52,"time":269.0856169999972,"velocity":0.3858267716535433,"duration":0.09070130416665734},{"name":"G#3","midi":56,"time":269.1770804999972,"velocity":0.3858267716535433,"duration":0.09070130416665734},{"name":"D#3","midi":51,"time":269.2685439999972,"velocity":0.3858267716535433,"duration":0.09070130416665734},{"name":"G#3","midi":56,"time":269.36000749999715,"velocity":0.3858267716535433,"duration":0.09070130416665734},{"name":"F#3","midi":54,"time":269.4514709999971,"velocity":0.3858267716535433,"duration":0.09070130416665734},{"name":"G#3","midi":56,"time":269.5429344999971,"velocity":0.3858267716535433,"duration":0.09070130416665734},{"name":"D#3","midi":51,"time":269.6343979999971,"velocity":0.3858267716535433,"duration":0.09070130416665734},{"name":"G#3","midi":56,"time":269.72586149999705,"velocity":0.3858267716535433,"duration":0.09070130416665734},{"name":"F#3","midi":54,"time":269.817324999997,"velocity":0.3858267716535433,"duration":0.09070130416665734},{"name":"G#3","midi":56,"time":269.908788499997,"velocity":0.3858267716535433,"duration":0.09070130416665734},{"name":"D#3","midi":51,"time":270.000251999997,"velocity":0.3858267716535433,"duration":0.09070130416665734},{"name":"G#3","midi":56,"time":270.09171549999695,"velocity":0.3858267716535433,"duration":0.09070130416665734},{"name":"F#3","midi":54,"time":270.1831789999969,"velocity":0.3858267716535433,"duration":0.09070130416665734},{"name":"G#3","midi":56,"time":270.2746424999969,"velocity":0.3858267716535433,"duration":0.09070130416665734},{"name":"D#3","midi":51,"time":270.3661059999969,"velocity":0.3858267716535433,"duration":0.09070130416665734},{"name":"G#3","midi":56,"time":270.45756949999685,"velocity":0.3858267716535433,"duration":0.09070130416665734},{"name":"F#3","midi":54,"time":270.5490329999968,"velocity":0.3858267716535433,"duration":0.09070130416665734},{"name":"G#3","midi":56,"time":270.6404964999968,"velocity":0.3858267716535433,"duration":0.09070130416665734},{"name":"E3","midi":52,"time":270.7319599999968,"velocity":0.3858267716535433,"duration":0.09070130416665734},{"name":"G#3","midi":56,"time":270.82342349999675,"velocity":0.3858267716535433,"duration":0.09070130416665734},{"name":"E3","midi":52,"time":270.9148869999967,"velocity":0.3858267716535433,"duration":0.09070130416665734},{"name":"G#3","midi":56,"time":271.0063504999967,"velocity":0.3858267716535433,"duration":0.09070130416665734},{"name":"E3","midi":52,"time":271.0978139999967,"velocity":0.3858267716535433,"duration":0.09070130416665734},{"name":"G#3","midi":56,"time":271.18927749999665,"velocity":0.3858267716535433,"duration":0.09070130416665734},{"name":"E3","midi":52,"time":271.2807409999966,"velocity":0.3858267716535433,"duration":0.09070130416665734},{"name":"G#3","midi":56,"time":271.3722044999966,"velocity":0.3858267716535433,"duration":0.09070130416665734},{"name":"E3","midi":52,"time":271.4636679999966,"velocity":0.3858267716535433,"duration":0.09070130416665734},{"name":"G#3","midi":56,"time":271.55513149999655,"velocity":0.3858267716535433,"duration":0.09070130416665734},{"name":"E3","midi":52,"time":271.6465949999965,"velocity":0.3858267716535433,"duration":0.09070130416665734},{"name":"G#3","midi":56,"time":271.7380584999965,"velocity":0.3858267716535433,"duration":0.09070130416665734},{"name":"E3","midi":52,"time":271.8295219999965,"velocity":0.3858267716535433,"duration":0.09070130416665734},{"name":"G#3","midi":56,"time":271.92098549999645,"velocity":0.3858267716535433,"duration":0.09070130416665734},{"name":"E3","midi":52,"time":272.0124489999964,"velocity":0.3858267716535433,"duration":0.09070130416665734},{"name":"G#3","midi":56,"time":272.1039124999964,"velocity":0.3858267716535433,"duration":0.09070130416665734},{"name":"C3","midi":48,"time":272.1953759999964,"velocity":0.3858267716535433,"duration":0.09070130416665734},{"name":"G#3","midi":56,"time":272.28683949999635,"velocity":0.3858267716535433,"duration":0.09070130416665734},{"name":"C3","midi":48,"time":272.3783029999963,"velocity":0.3858267716535433,"duration":0.09070130416665734},{"name":"G#3","midi":56,"time":272.4697664999963,"velocity":0.3858267716535433,"duration":0.09070130416665734},{"name":"C3","midi":48,"time":272.56122999999627,"velocity":0.3858267716535433,"duration":0.09070130416665734},{"name":"G#3","midi":56,"time":272.65269349999625,"velocity":0.3858267716535433,"duration":0.09070130416665734},{"name":"C3","midi":48,"time":272.7441569999962,"velocity":0.3858267716535433,"duration":0.09070130416665734},{"name":"G#3","midi":56,"time":272.8356204999962,"velocity":0.3858267716535433,"duration":0.09070130416665734},{"name":"C3","midi":48,"time":272.92708399999617,"velocity":0.3858267716535433,"duration":0.09070130416665734},{"name":"G#3","midi":56,"time":273.01854749999615,"velocity":0.3858267716535433,"duration":0.09070130416665734},{"name":"C3","midi":48,"time":273.1100109999961,"velocity":0.3858267716535433,"duration":0.09070130416665734},{"name":"G#3","midi":56,"time":273.2014744999961,"velocity":0.3858267716535433,"duration":0.09070130416665734},{"name":"C3","midi":48,"time":273.29293799999607,"velocity":0.3858267716535433,"duration":0.09070130416665734},{"name":"G#3","midi":56,"time":273.38440149999605,"velocity":0.3858267716535433,"duration":0.09070130416665734},{"name":"C3","midi":48,"time":273.475864999996,"velocity":0.3858267716535433,"duration":0.09070130416665734},{"name":"G#3","midi":56,"time":273.567328499996,"velocity":0.3858267716535433,"duration":0.09070130416665734},{"name":"B2","midi":47,"time":273.65879199999597,"velocity":0.3858267716535433,"duration":0.09070130416665734},{"name":"G#3","midi":56,"time":273.75025549999594,"velocity":0.3858267716535433,"duration":0.09070130416665734},{"name":"C#3","midi":49,"time":273.8417189999959,"velocity":0.3858267716535433,"duration":0.09070130416665734},{"name":"G#3","midi":56,"time":273.9331824999959,"velocity":0.3858267716535433,"duration":0.09070130416665734},{"name":"B2","midi":47,"time":274.02464599999587,"velocity":0.3858267716535433,"duration":0.09070130416665734},{"name":"G#3","midi":56,"time":274.11610949999584,"velocity":0.3858267716535433,"duration":0.09070130416665734},{"name":"C#3","midi":49,"time":274.2075729999958,"velocity":0.3858267716535433,"duration":0.09070130416665734},{"name":"G#3","midi":56,"time":274.2990364999958,"velocity":0.3858267716535433,"duration":0.09070130416665734},{"name":"A2","midi":45,"time":274.39049999999577,"velocity":0.3858267716535433,"duration":0.09070130416665734},{"name":"F#3","midi":54,"time":274.48196349999574,"velocity":0.3858267716535433,"duration":0.09070130416665734},{"name":"C#3","midi":49,"time":274.5734269999957,"velocity":0.3858267716535433,"duration":0.09070130416665734},{"name":"F#3","midi":54,"time":274.6648904999957,"velocity":0.3858267716535433,"duration":0.09070130416665734},{"name":"A2","midi":45,"time":274.75635399999567,"velocity":0.3858267716535433,"duration":0.09070130416665734},{"name":"F#3","midi":54,"time":274.84781749999564,"velocity":0.3858267716535433,"duration":0.09070130416665734},{"name":"C#3","midi":49,"time":274.9392809999956,"velocity":0.3858267716535433,"duration":0.09070130416665734},{"name":"F#3","midi":54,"time":275.0307444999956,"velocity":0.3858267716535433,"duration":0.09070130416665734},{"name":"A2","midi":45,"time":275.12220799999557,"velocity":0.3858267716535433,"duration":0.09070130416665734},{"name":"F#3","midi":54,"time":275.21367149999554,"velocity":0.3858267716535433,"duration":0.09070130416665734},{"name":"B2","midi":47,"time":275.3051349999955,"velocity":0.3858267716535433,"duration":0.09070130416665734},{"name":"F#3","midi":54,"time":275.3965984999955,"velocity":0.3858267716535433,"duration":0.09070130416665734},{"name":"G#2","midi":44,"time":275.48806199999547,"velocity":0.3858267716535433,"duration":0.09070130416665734},{"name":"E3","midi":52,"time":275.57952549999544,"velocity":0.3858267716535433,"duration":0.09070130416665734},{"name":"B2","midi":47,"time":275.6709889999954,"velocity":0.3858267716535433,"duration":0.09070130416665734},{"name":"E3","midi":52,"time":275.7624524999954,"velocity":0.3858267716535433,"duration":0.09070130416665734},{"name":"G#2","midi":44,"time":275.85391599999537,"velocity":0.3858267716535433,"duration":0.09070130416665734},{"name":"E3","midi":52,"time":275.94537949999534,"velocity":0.3858267716535433,"duration":0.09070130416665734},{"name":"B2","midi":47,"time":276.0368429999953,"velocity":0.3858267716535433,"duration":0.09070130416665734},{"name":"E3","midi":52,"time":276.1283064999953,"velocity":0.3858267716535433,"duration":0.09070130416665734},{"name":"G#2","midi":44,"time":276.21976999999526,"velocity":0.3858267716535433,"duration":0.09070130416665734},{"name":"E3","midi":52,"time":276.31123349999524,"velocity":0.3858267716535433,"duration":0.09070130416665734},{"name":"B2","midi":47,"time":276.4026969999952,"velocity":0.3858267716535433,"duration":0.09070130416665734},{"name":"E3","midi":52,"time":276.4941604999952,"velocity":0.3858267716535433,"duration":0.09070130416665734},{"name":"G2","midi":43,"time":276.58562399999516,"velocity":0.3858267716535433,"duration":0.09070130416665734},{"name":"E3","midi":52,"time":276.67708749999514,"velocity":0.3858267716535433,"duration":0.09070130416665734},{"name":"A2","midi":45,"time":276.7685509999951,"velocity":0.3858267716535433,"duration":0.09070130416665734},{"name":"E3","midi":52,"time":276.8600144999951,"velocity":0.3858267716535433,"duration":0.09070130416665734},{"name":"G2","midi":43,"time":276.95147799999506,"velocity":0.3858267716535433,"duration":0.09070130416665734},{"name":"E3","midi":52,"time":277.04294149999504,"velocity":0.3858267716535433,"duration":0.09070130416665734},{"name":"A2","midi":45,"time":277.134404999995,"velocity":0.3858267716535433,"duration":0.09070130416665734},{"name":"E3","midi":52,"time":277.225868499995,"velocity":0.3858267716535433,"duration":0.09070130416665734},{"name":"F#2","midi":42,"time":277.31733199999496,"velocity":0.3858267716535433,"duration":0.09070130416665734},{"name":"D3","midi":50,"time":277.40879549999494,"velocity":0.3858267716535433,"duration":0.09070130416665734},{"name":"A2","midi":45,"time":277.5002589999949,"velocity":0.3858267716535433,"duration":0.09070130416665734},{"name":"D3","midi":50,"time":277.5917224999949,"velocity":0.3858267716535433,"duration":0.09070130416665734},{"name":"F#2","midi":42,"time":277.68318599999486,"velocity":0.3858267716535433,"duration":0.09070130416665734},{"name":"D3","midi":50,"time":277.77464949999484,"velocity":0.3858267716535433,"duration":0.09070130416665734},{"name":"A2","midi":45,"time":277.8661129999948,"velocity":0.3858267716535433,"duration":0.09070130416665734},{"name":"D3","midi":50,"time":277.9575764999948,"velocity":0.3858267716535433,"duration":0.09070130416665734},{"name":"F#2","midi":42,"time":278.04903999999476,"velocity":0.3858267716535433,"duration":0.09070130416665734},{"name":"D#3","midi":51,"time":278.14050349999474,"velocity":0.3858267716535433,"duration":0.09070130416665734},{"name":"G#2","midi":44,"time":278.2319669999947,"velocity":0.3858267716535433,"duration":0.09070130416665734},{"name":"D#3","midi":51,"time":278.3234304999947,"velocity":0.3858267716535433,"duration":0.09070130416665734},{"name":"E2","midi":40,"time":278.41489399999466,"velocity":0.3858267716535433,"duration":0.09070130416665734},{"name":"C#3","midi":49,"time":278.50635749999464,"velocity":0.3858267716535433,"duration":0.09070130416665734},{"name":"G#2","midi":44,"time":278.5978209999946,"velocity":0.3858267716535433,"duration":0.09070130416665734},{"name":"C#3","midi":49,"time":278.6892844999946,"velocity":0.3858267716535433,"duration":0.09070130416665734},{"name":"E2","midi":40,"time":278.78074799999456,"velocity":0.3858267716535433,"duration":0.09070130416665734},{"name":"C#3","midi":49,"time":278.87221149999453,"velocity":0.3858267716535433,"duration":0.09070130416665734},{"name":"G#2","midi":44,"time":278.9636749999945,"velocity":0.3858267716535433,"duration":0.09070130416665734},{"name":"C#3","midi":49,"time":279.0551384999945,"velocity":0.3858267716535433,"duration":0.09070130416665734},{"name":"E2","midi":40,"time":279.14660199999446,"velocity":0.3858267716535433,"duration":0.09070130416665734},{"name":"C#3","midi":49,"time":279.23806549999443,"velocity":0.3858267716535433,"duration":0.09070130416665734},{"name":"G#2","midi":44,"time":279.3295289999944,"velocity":0.3858267716535433,"duration":0.09070130416665734},{"name":"C#3","midi":49,"time":279.4209924999944,"velocity":0.3858267716535433,"duration":0.09070130416665734},{"name":"F#2","midi":42,"time":279.51245599999436,"velocity":0.8818897637795275,"duration":1.0967998041666647},{"name":"A2","midi":45,"time":279.51245599999436,"velocity":0.8818897637795275,"duration":1.0967998041666647},{"name":"D3","midi":50,"time":279.51245599999436,"velocity":0.8818897637795275,"duration":1.0967998041666647},{"name":"F#3","midi":54,"time":279.51245599999436,"velocity":0.8818897637795275,"duration":1.0967998041666647},{"name":"F#3","midi":54,"time":280.97587199999435,"velocity":0.3858267716535433,"duration":0.36509180416663867},{"name":"A3","midi":57,"time":280.97587199999435,"velocity":0.3858267716535433,"duration":0.36509180416663867},{"name":"D4","midi":62,"time":280.97587199999435,"velocity":0.3858267716535433,"duration":0.36509180416663867},{"name":"F#3","midi":54,"time":281.7075799999943,"velocity":0.3858267716535433,"duration":0.36509180416663867},{"name":"A3","midi":57,"time":281.7075799999943,"velocity":0.3858267716535433,"duration":0.36509180416663867},{"name":"D4","midi":62,"time":281.7075799999943,"velocity":0.3858267716535433,"duration":0.36509180416663867},{"name":"F#3","midi":54,"time":282.4392879999943,"velocity":0.3858267716535433,"duration":0.36509180416663867},{"name":"A3","midi":57,"time":282.4392879999943,"velocity":0.3858267716535433,"duration":0.36509180416663867},{"name":"D4","midi":62,"time":282.4392879999943,"velocity":0.3858267716535433,"duration":0.36509180416663867},{"name":"F#3","midi":54,"time":282.80514199999425,"velocity":0.4251968503937008,"duration":0.36509180416663867},{"name":"A3","midi":57,"time":282.80514199999425,"velocity":0.4251968503937008,"duration":0.36509180416663867},{"name":"D4","midi":62,"time":282.80514199999425,"velocity":0.4251968503937008,"duration":0.36509180416663867},{"name":"F#3","midi":54,"time":283.1709959999942,"velocity":0.44881889763779526,"duration":0.36509180416663867},{"name":"A3","midi":57,"time":283.1709959999942,"velocity":0.44881889763779526,"duration":0.36509180416663867},{"name":"D4","midi":62,"time":283.1709959999942,"velocity":0.44881889763779526,"duration":0.36509180416663867},{"name":"F#3","midi":54,"time":283.53684999999416,"velocity":0.48031496062992124,"duration":0.36509180416663867},{"name":"A3","midi":57,"time":283.53684999999416,"velocity":0.48031496062992124,"duration":0.36509180416663867},{"name":"D4","midi":62,"time":283.53684999999416,"velocity":0.48031496062992124,"duration":0.36509180416663867},{"name":"G#3","midi":56,"time":283.9027039999941,"velocity":0.3858267716535433,"duration":0.09070130416665734},{"name":"E4","midi":64,"time":283.9941674999941,"velocity":0.3858267716535433,"duration":0.09070130416665734},{"name":"C#4","midi":61,"time":284.08563099999407,"velocity":0.3858267716535433,"duration":0.09070130416665734},{"name":"E4","midi":64,"time":284.17709449999404,"velocity":0.3858267716535433,"duration":0.09070130416665734},{"name":"G#3","midi":56,"time":284.268557999994,"velocity":0.3858267716535433,"duration":0.09070130416665734},{"name":"E4","midi":64,"time":284.360021499994,"velocity":0.3858267716535433,"duration":0.09070130416665734},{"name":"C#4","midi":61,"time":284.45148499999397,"velocity":0.3858267716535433,"duration":0.09070130416665734},{"name":"E4","midi":64,"time":284.54294849999394,"velocity":0.3858267716535433,"duration":0.09070130416665734},{"name":"G#3","midi":56,"time":284.6344119999939,"velocity":0.3858267716535433,"duration":0.09070130416665734},{"name":"F#4","midi":66,"time":284.7258754999939,"velocity":0.3858267716535433,"duration":0.09070130416665734},{"name":"C4","midi":60,"time":284.81733899999386,"velocity":0.3858267716535433,"duration":0.09070130416665734},{"name":"F#4","midi":66,"time":284.90880249999384,"velocity":0.3858267716535433,"duration":0.09070130416665734},{"name":"G#3","midi":56,"time":285.0002659999938,"velocity":0.3858267716535433,"duration":0.09070130416665734},{"name":"F#4","midi":66,"time":285.0917294999938,"velocity":0.3858267716535433,"duration":0.09070130416665734},{"name":"C4","midi":60,"time":285.18319299999376,"velocity":0.3858267716535433,"duration":0.09070130416665734},{"name":"F#4","midi":66,"time":285.27465649999374,"velocity":0.3858267716535433,"duration":0.09070130416665734},{"name":"A3","midi":57,"time":285.3661199999937,"velocity":0.3858267716535433,"duration":0.182164804166689},{"name":"C#4","midi":61,"time":285.3661199999937,"velocity":0.3858267716535433,"duration":0.182164804166689},{"name":"E4","midi":64,"time":285.3661199999937,"velocity":0.3858267716535433,"duration":0.182164804166689},{"name":"F#1","midi":30,"time":285.7319739999937,"velocity":0.8818897637795275,"duration":0.7309458041666517},{"name":"A1","midi":33,"time":285.7319739999937,"velocity":0.8818897637795275,"duration":0.7309458041666517},{"name":"D2","midi":38,"time":285.7319739999937,"velocity":0.8818897637795275,"duration":0.7309458041666517},{"name":"F#2","midi":42,"time":285.7319739999937,"velocity":0.8818897637795275,"duration":0.7309458041666517},{"name":"F#2","midi":42,"time":287.1953899999937,"velocity":0.4251968503937008,"duration":0.36509180416663867},{"name":"A2","midi":45,"time":287.1953899999937,"velocity":0.4251968503937008,"duration":0.36509180416663867},{"name":"D3","midi":50,"time":287.1953899999937,"velocity":0.4251968503937008,"duration":0.36509180416663867},{"name":"F#2","midi":42,"time":287.9270979999937,"velocity":0.5196850393700787,"duration":0.36509180416663867},{"name":"A2","midi":45,"time":287.9270979999937,"velocity":0.5196850393700787,"duration":0.36509180416663867},{"name":"D3","midi":50,"time":287.9270979999937,"velocity":0.5196850393700787,"duration":0.36509180416663867},{"name":"F#2","midi":42,"time":288.47587899999365,"velocity":0.5905511811023622,"duration":0.182164804166689},{"name":"A2","midi":45,"time":288.47587899999365,"velocity":0.5905511811023622,"duration":0.182164804166689},{"name":"D3","midi":50,"time":288.47587899999365,"velocity":0.5905511811023622,"duration":0.182164804166689},{"name":"F#2","midi":42,"time":288.84173299999367,"velocity":0.6377952755905512,"duration":0.182164804166689},{"name":"A2","midi":45,"time":288.84173299999367,"velocity":0.6377952755905512,"duration":0.182164804166689},{"name":"D3","midi":50,"time":288.84173299999367,"velocity":0.6377952755905512,"duration":0.182164804166689},{"name":"F#2","midi":42,"time":289.2075869999937,"velocity":0.6850393700787402,"duration":0.182164804166689},{"name":"A2","midi":45,"time":289.2075869999937,"velocity":0.6850393700787402,"duration":0.182164804166689},{"name":"D3","midi":50,"time":289.2075869999937,"velocity":0.6850393700787402,"duration":0.182164804166689},{"name":"F#2","midi":42,"time":289.5734409999937,"velocity":0.7322834645669292,"duration":0.182164804166689},{"name":"A2","midi":45,"time":289.5734409999937,"velocity":0.7322834645669292,"duration":0.182164804166689},{"name":"D3","midi":50,"time":289.5734409999937,"velocity":0.7322834645669292,"duration":0.182164804166689},{"name":"F#2","midi":42,"time":289.7563679999937,"velocity":0.7559055118110236,"duration":0.09070130416665734},{"name":"D3","midi":50,"time":289.8478314999937,"velocity":0.7559055118110236,"duration":0.09070130416665734},{"name":"A2","midi":45,"time":289.93929499999365,"velocity":0.7559055118110236,"duration":0.09070130416665734},{"name":"D3","midi":50,"time":290.0307584999936,"velocity":0.7559055118110236,"duration":0.09070130416665734},{"name":"F#2","midi":42,"time":290.1222219999936,"velocity":0.7559055118110236,"duration":0.09070130416665734},{"name":"D3","midi":50,"time":290.2136854999936,"velocity":0.7559055118110236,"duration":0.09070130416665734},{"name":"A2","midi":45,"time":290.30514899999355,"velocity":0.7559055118110236,"duration":0.09070130416665734},{"name":"D3","midi":50,"time":290.3966124999935,"velocity":0.7559055118110236,"duration":0.09070130416665734},{"name":"G2","midi":43,"time":290.4880759999935,"velocity":0.7559055118110236,"duration":0.09070130416665734},{"name":"E3","midi":52,"time":290.5795394999935,"velocity":0.7559055118110236,"duration":0.09070130416665734},{"name":"A#2","midi":46,"time":290.67100299999345,"velocity":0.7559055118110236,"duration":0.09070130416665734},{"name":"E3","midi":52,"time":290.7624664999934,"velocity":0.7559055118110236,"duration":0.09070130416665734},{"name":"G2","midi":43,"time":290.8539299999934,"velocity":0.7559055118110236,"duration":0.09070130416665734},{"name":"E3","midi":52,"time":290.9453934999934,"velocity":0.7559055118110236,"duration":0.09070130416665734},{"name":"A#2","midi":46,"time":291.03685699999335,"velocity":0.7559055118110236,"duration":0.09070130416665734},{"name":"E3","midi":52,"time":291.1283204999933,"velocity":0.7559055118110236,"duration":0.09070130416665734},{"name":"G#2","midi":44,"time":291.2197839999933,"velocity":0.7559055118110236,"duration":0.09070130416665734},{"name":"E3","midi":52,"time":291.31124749999327,"velocity":0.7559055118110236,"duration":0.09070130416665734},{"name":"C#3","midi":49,"time":291.40271099999325,"velocity":0.7559055118110236,"duration":0.09070130416665734},{"name":"E3","midi":52,"time":291.4941744999932,"velocity":0.7559055118110236,"duration":0.09070130416665734},{"name":"G#2","midi":44,"time":291.5856379999932,"velocity":0.7559055118110236,"duration":0.09070130416665734},{"name":"E3","midi":52,"time":291.67710149999317,"velocity":0.7559055118110236,"duration":0.09070130416665734},{"name":"C#3","midi":49,"time":291.76856499999315,"velocity":0.7559055118110236,"duration":0.09070130416665734},{"name":"E3","midi":52,"time":291.8600284999931,"velocity":0.7559055118110236,"duration":0.09070130416665734},{"name":"G#1","midi":32,"time":291.9514919999931,"velocity":0.7559055118110236,"duration":0.09070130416665734},{"name":"G#2","midi":44,"time":292.04295549999307,"velocity":0.7559055118110236,"duration":0.09070130416665734},{"name":"G2","midi":43,"time":292.13441899999304,"velocity":0.7559055118110236,"duration":0.09070130416665734},{"name":"G#2","midi":44,"time":292.225882499993,"velocity":0.7559055118110236,"duration":0.09070130416665734},{"name":"G2","midi":43,"time":292.317345999993,"velocity":0.7559055118110236,"duration":0.09070130416665734},{"name":"G#2","midi":44,"time":292.40880949999297,"velocity":0.7559055118110236,"duration":0.09070130416665734},{"name":"G2","midi":43,"time":292.50027299999294,"velocity":0.7559055118110236,"duration":0.09070130416665734},{"name":"G#2","midi":44,"time":292.5917364999929,"velocity":0.7559055118110236,"duration":0.09070130416665734},{"name":"C#2","midi":37,"time":292.6831999999929,"velocity":0.7559055118110236,"duration":0.182164804166689},{"name":"C#3","midi":49,"time":292.8661269999929,"velocity":0.3858267716535433,"duration":0.09070130416665734},{"name":"C#3","midi":49,"time":293.0490539999929,"velocity":0.3858267716535433,"duration":0.09070130416665734},{"name":"C#3","midi":49,"time":293.2319809999929,"velocity":0.3858267716535433,"duration":0.09070130416665734},{"name":"C#3","midi":49,"time":293.4149079999929,"velocity":0.3858267716535433,"duration":0.09070130416665734},{"name":"C#3","midi":49,"time":293.5978349999929,"velocity":0.3858267716535433,"duration":0.09070130416665734},{"name":"D#3","midi":51,"time":293.78076199999293,"velocity":0.3858267716535433,"duration":0.09070130416665734},{"name":"E3","midi":52,"time":293.96368899999294,"velocity":0.3858267716535433,"duration":0.09070130416665734},{"name":"G#2","midi":44,"time":294.14661599999295,"velocity":0.3858267716535433,"duration":0.09070130416665734},{"name":"F#3","midi":54,"time":294.14661599999295,"velocity":0.3858267716535433,"duration":0.09070130416665734},{"name":"F#3","midi":54,"time":294.32954299999295,"velocity":0.3858267716535433,"duration":0.09070130416665734},{"name":"G#3","midi":56,"time":294.32954299999295,"velocity":0.3858267716535433,"duration":0.09070130416665734},{"name":"F#3","midi":54,"time":294.51246999999296,"velocity":0.3858267716535433,"duration":0.09070130416665734},{"name":"G#3","midi":56,"time":294.51246999999296,"velocity":0.3858267716535433,"duration":0.09070130416665734},{"name":"F#3","midi":54,"time":294.69539699999297,"velocity":0.3858267716535433,"duration":0.09070130416665734},{"name":"G#3","midi":56,"time":294.69539699999297,"velocity":0.3858267716535433,"duration":0.09070130416665734},{"name":"F#3","midi":54,"time":294.878323999993,"velocity":0.3858267716535433,"duration":0.09070130416665734},{"name":"G#3","midi":56,"time":294.878323999993,"velocity":0.3858267716535433,"duration":0.09070130416665734},{"name":"F#3","midi":54,"time":295.061250999993,"velocity":0.3858267716535433,"duration":0.09070130416665734},{"name":"G#3","midi":56,"time":295.061250999993,"velocity":0.3858267716535433,"duration":0.09070130416665734},{"name":"E3","midi":52,"time":295.244177999993,"velocity":0.3858267716535433,"duration":0.09070130416665734},{"name":"G#3","midi":56,"time":295.244177999993,"velocity":0.3858267716535433,"duration":0.09070130416665734},{"name":"D#3","midi":51,"time":295.427104999993,"velocity":0.3858267716535433,"duration":0.09070130416665734},{"name":"G#3","midi":56,"time":295.427104999993,"velocity":0.3858267716535433,"duration":0.09070130416665734},{"name":"C#2","midi":37,"time":295.610031999993,"velocity":0.3858267716535433,"duration":0.09070130416665734},{"name":"C#3","midi":49,"time":295.610031999993,"velocity":0.3858267716535433,"duration":0.09070130416665734},{"name":"C#3","midi":49,"time":295.792958999993,"velocity":0.3858267716535433,"duration":0.09070130416665734},{"name":"C#3","midi":49,"time":295.975885999993,"velocity":0.3858267716535433,"duration":0.09070130416665734},{"name":"C#3","midi":49,"time":296.158812999993,"velocity":0.3858267716535433,"duration":0.09070130416665734},{"name":"C#3","midi":49,"time":296.341739999993,"velocity":0.3858267716535433,"duration":0.09070130416665734},{"name":"C#3","midi":49,"time":296.52466699999303,"velocity":0.3858267716535433,"duration":0.09070130416665734},{"name":"D#3","midi":51,"time":296.70759399999304,"velocity":0.3858267716535433,"duration":0.09070130416665734},{"name":"E3","midi":52,"time":296.89052099999304,"velocity":0.3858267716535433,"duration":0.09070130416665734},{"name":"G#2","midi":44,"time":297.07344799999305,"velocity":0.3858267716535433,"duration":0.09070130416665734},{"name":"F#3","midi":54,"time":297.07344799999305,"velocity":0.3858267716535433,"duration":0.09070130416665734},{"name":"F#3","midi":54,"time":297.25637499999306,"velocity":0.3858267716535433,"duration":0.09070130416665734},{"name":"G#3","midi":56,"time":297.25637499999306,"velocity":0.3858267716535433,"duration":0.09070130416665734},{"name":"F#3","midi":54,"time":297.43930199999306,"velocity":0.3858267716535433,"duration":0.09070130416665734},{"name":"G#3","midi":56,"time":297.43930199999306,"velocity":0.3858267716535433,"duration":0.09070130416665734},{"name":"F#3","midi":54,"time":297.62222899999307,"velocity":0.3858267716535433,"duration":0.09070130416665734},{"name":"G#3","midi":56,"time":297.62222899999307,"velocity":0.3858267716535433,"duration":0.09070130416665734},{"name":"F#3","midi":54,"time":297.8051559999931,"velocity":0.3858267716535433,"duration":0.09070130416665734},{"name":"G#3","midi":56,"time":297.8051559999931,"velocity":0.3858267716535433,"duration":0.09070130416665734},{"name":"F#3","midi":54,"time":297.9880829999931,"velocity":0.3858267716535433,"duration":0.09070130416665734},{"name":"G#3","midi":56,"time":297.9880829999931,"velocity":0.3858267716535433,"duration":0.09070130416665734},{"name":"E3","midi":52,"time":298.1710099999931,"velocity":0.3858267716535433,"duration":0.09070130416665734},{"name":"G#3","midi":56,"time":298.1710099999931,"velocity":0.3858267716535433,"duration":0.09070130416665734},{"name":"D#3","midi":51,"time":298.3539369999931,"velocity":0.3858267716535433,"duration":0.09070130416665734},{"name":"G#3","midi":56,"time":298.3539369999931,"velocity":0.3858267716535433,"duration":0.09070130416665734},{"name":"C#2","midi":37,"time":298.5368639999931,"velocity":0.3858267716535433,"duration":0.09070130416665734},{"name":"C#3","midi":49,"time":298.5368639999931,"velocity":0.3858267716535433,"duration":0.09070130416665734},{"name":"C#3","midi":49,"time":298.7197909999931,"velocity":0.3858267716535433,"duration":0.09070130416665734},{"name":"E3","midi":52,"time":298.7197909999931,"velocity":0.3858267716535433,"duration":0.09070130416665734},{"name":"C#3","midi":49,"time":298.9027179999931,"velocity":0.3858267716535433,"duration":0.182164804166689},{"name":"E3","midi":52,"time":298.9027179999931,"velocity":0.3858267716535433,"duration":0.182164804166689},{"name":"E3","midi":52,"time":299.0856449999931,"velocity":0.3858267716535433,"duration":0.182164804166689},{"name":"G#3","midi":56,"time":299.0856449999931,"velocity":0.3858267716535433,"duration":0.182164804166689},{"name":"F#2","midi":42,"time":299.2685719999931,"velocity":0.3858267716535433,"duration":0.09070130416665734},{"name":"C#3","midi":49,"time":299.45149899999313,"velocity":0.3858267716535433,"duration":0.09070130416665734},{"name":"F#3","midi":54,"time":299.45149899999313,"velocity":0.3858267716535433,"duration":0.09070130416665734},{"name":"C#3","midi":49,"time":299.63442599999314,"velocity":0.3858267716535433,"duration":0.182164804166689},{"name":"F#3","midi":54,"time":299.63442599999314,"velocity":0.3858267716535433,"duration":0.182164804166689},{"name":"F#3","midi":54,"time":299.81735299999315,"velocity":0.3858267716535433,"duration":0.182164804166689},{"name":"A3","midi":57,"time":299.81735299999315,"velocity":0.3858267716535433,"duration":0.182164804166689},{"name":"G#2","midi":44,"time":300.00027999999315,"velocity":0.3858267716535433,"duration":0.09070130416665734},{"name":"C#3","midi":49,"time":300.18320699999316,"velocity":0.3858267716535433,"duration":0.09070130416665734},{"name":"E3","midi":52,"time":300.18320699999316,"velocity":0.3858267716535433,"duration":0.09070130416665734},{"name":"C#3","midi":49,"time":300.36613399999317,"velocity":0.3858267716535433,"duration":0.182164804166689},{"name":"E3","midi":52,"time":300.36613399999317,"velocity":0.3858267716535433,"duration":0.182164804166689},{"name":"E3","midi":52,"time":300.5490609999932,"velocity":0.3858267716535433,"duration":0.182164804166689},{"name":"G#3","midi":56,"time":300.5490609999932,"velocity":0.3858267716535433,"duration":0.182164804166689},{"name":"G#2","midi":44,"time":300.7319879999932,"velocity":0.3858267716535433,"duration":0.09070130416665734},{"name":"C3","midi":48,"time":300.9149149999932,"velocity":0.3858267716535433,"duration":0.09070130416665734},{"name":"D#3","midi":51,"time":300.9149149999932,"velocity":0.3858267716535433,"duration":0.09070130416665734},{"name":"C3","midi":48,"time":301.0978419999932,"velocity":0.3858267716535433,"duration":0.182164804166689},{"name":"D#3","midi":51,"time":301.0978419999932,"velocity":0.3858267716535433,"duration":0.182164804166689},{"name":"D#3","midi":51,"time":301.2807689999932,"velocity":0.3858267716535433,"duration":0.182164804166689},{"name":"G#3","midi":56,"time":301.2807689999932,"velocity":0.3858267716535433,"duration":0.182164804166689},{"name":"C#2","midi":37,"time":301.4636959999932,"velocity":0.3858267716535433,"duration":0.09070130416665734},{"name":"C#3","midi":49,"time":301.4636959999932,"velocity":0.3858267716535433,"duration":0.09070130416665734},{"name":"C#3","midi":49,"time":301.6466229999932,"velocity":0.3858267716535433,"duration":0.09070130416665734},{"name":"G#3","midi":56,"time":301.6466229999932,"velocity":0.3858267716535433,"duration":0.09070130416665734},{"name":"C#3","midi":49,"time":301.8295499999932,"velocity":0.4645669291338583,"duration":0.09070130416665734},{"name":"G#3","midi":56,"time":301.8295499999932,"velocity":0.4645669291338583,"duration":0.09070130416665734},{"name":"C#3","midi":49,"time":302.0124769999932,"velocity":0.5118110236220472,"duration":0.09070130416665734},{"name":"G#3","midi":56,"time":302.0124769999932,"velocity":0.5118110236220472,"duration":0.09070130416665734},{"name":"C#3","midi":49,"time":302.19540399999323,"velocity":0.5511811023622047,"duration":0.09070130416665734},{"name":"G#3","midi":56,"time":302.19540399999323,"velocity":0.5511811023622047,"duration":0.09070130416665734},{"name":"C#3","midi":49,"time":302.37833099999324,"velocity":0.5905511811023622,"duration":0.09070130416665734},{"name":"G#3","midi":56,"time":302.37833099999324,"velocity":0.5905511811023622,"duration":0.09070130416665734},{"name":"D#3","midi":51,"time":302.56125799999324,"velocity":0.6299212598425197,"duration":0.09070130416665734},{"name":"G#3","midi":56,"time":302.56125799999324,"velocity":0.6299212598425197,"duration":0.09070130416665734},{"name":"E3","midi":52,"time":302.74418499999325,"velocity":0.6771653543307087,"duration":0.09070130416665734},{"name":"G#3","midi":56,"time":302.74418499999325,"velocity":0.6771653543307087,"duration":0.09070130416665734},{"name":"G#2","midi":44,"time":302.92711199999326,"velocity":0.7165354330708661,"duration":0.09070130416665734},{"name":"F#3","midi":54,"time":302.92711199999326,"velocity":0.7165354330708661,"duration":0.09070130416665734},{"name":"G#3","midi":56,"time":302.92711199999326,"velocity":0.7165354330708661,"duration":0.09070130416665734},{"name":"G#3","midi":56,"time":303.11003899999326,"velocity":0.7559055118110236,"duration":0.09070130416665734},{"name":"F#4","midi":66,"time":303.11003899999326,"velocity":0.7559055118110236,"duration":0.09070130416665734},{"name":"G#3","midi":56,"time":303.29296599999327,"velocity":0.7559055118110236,"duration":0.09070130416665734},{"name":"F#4","midi":66,"time":303.29296599999327,"velocity":0.7559055118110236,"duration":0.09070130416665734},{"name":"G#3","midi":56,"time":303.4758929999933,"velocity":0.7559055118110236,"duration":0.09070130416665734},{"name":"F#4","midi":66,"time":303.4758929999933,"velocity":0.7559055118110236,"duration":0.09070130416665734},{"name":"G#3","midi":56,"time":303.6588199999933,"velocity":0.7559055118110236,"duration":0.09070130416665734},{"name":"F#4","midi":66,"time":303.6588199999933,"velocity":0.7559055118110236,"duration":0.09070130416665734},{"name":"G#3","midi":56,"time":303.8417469999933,"velocity":0.7559055118110236,"duration":0.09070130416665734},{"name":"F#4","midi":66,"time":303.8417469999933,"velocity":0.7559055118110236,"duration":0.09070130416665734},{"name":"G#3","midi":56,"time":304.0246739999933,"velocity":0.7559055118110236,"duration":0.09070130416665734},{"name":"E4","midi":64,"time":304.0246739999933,"velocity":0.7559055118110236,"duration":0.09070130416665734},{"name":"G#3","midi":56,"time":304.2076009999933,"velocity":0.7559055118110236,"duration":0.09070130416665734},{"name":"D#4","midi":63,"time":304.2076009999933,"velocity":0.7559055118110236,"duration":0.09070130416665734},{"name":"C#2","midi":37,"time":304.3905279999933,"velocity":0.7559055118110236,"duration":0.09070130416665734},{"name":"C#3","midi":49,"time":304.3905279999933,"velocity":0.7559055118110236,"duration":0.09070130416665734},{"name":"C#3","midi":49,"time":304.5734549999933,"velocity":0.3858267716535433,"duration":0.09070130416665734},{"name":"G#3","midi":56,"time":304.5734549999933,"velocity":0.3858267716535433,"duration":0.09070130416665734},{"name":"C#3","midi":49,"time":304.7563819999933,"velocity":0.4645669291338583,"duration":0.09070130416665734},{"name":"G#3","midi":56,"time":304.7563819999933,"velocity":0.4645669291338583,"duration":0.09070130416665734},{"name":"C#3","midi":49,"time":304.93930899999333,"velocity":0.5118110236220472,"duration":0.09070130416665734},{"name":"G#3","midi":56,"time":304.93930899999333,"velocity":0.5118110236220472,"duration":0.09070130416665734},{"name":"C#3","midi":49,"time":305.12223599999334,"velocity":0.5511811023622047,"duration":0.09070130416665734},{"name":"G#3","midi":56,"time":305.12223599999334,"velocity":0.5511811023622047,"duration":0.09070130416665734},{"name":"C#3","midi":49,"time":305.30516299999334,"velocity":0.5905511811023622,"duration":0.09070130416665734},{"name":"G#3","midi":56,"time":305.30516299999334,"velocity":0.5905511811023622,"duration":0.09070130416665734},{"name":"D#3","midi":51,"time":305.48808999999335,"velocity":0.6299212598425197,"duration":0.09070130416665734},{"name":"G#3","midi":56,"time":305.48808999999335,"velocity":0.6299212598425197,"duration":0.09070130416665734},{"name":"E3","midi":52,"time":305.67101699999336,"velocity":0.6771653543307087,"duration":0.09070130416665734},{"name":"G#3","midi":56,"time":305.67101699999336,"velocity":0.6771653543307087,"duration":0.09070130416665734},{"name":"G#2","midi":44,"time":305.85394399999336,"velocity":0.7165354330708661,"duration":0.09070130416665734},{"name":"F#3","midi":54,"time":305.85394399999336,"velocity":0.7165354330708661,"duration":0.09070130416665734},{"name":"G#3","midi":56,"time":305.85394399999336,"velocity":0.7165354330708661,"duration":0.09070130416665734},{"name":"G#3","midi":56,"time":306.03687099999337,"velocity":0.7559055118110236,"duration":0.09070130416665734},{"name":"F#4","midi":66,"time":306.03687099999337,"velocity":0.7559055118110236,"duration":0.09070130416665734},{"name":"G#3","midi":56,"time":306.2197979999934,"velocity":0.7559055118110236,"duration":0.09070130416665734},{"name":"F#4","midi":66,"time":306.2197979999934,"velocity":0.7559055118110236,"duration":0.09070130416665734},{"name":"G#3","midi":56,"time":306.4027249999934,"velocity":0.7559055118110236,"duration":0.09070130416665734},{"name":"F#4","midi":66,"time":306.4027249999934,"velocity":0.7559055118110236,"duration":0.09070130416665734},{"name":"G#3","midi":56,"time":306.5856519999934,"velocity":0.7559055118110236,"duration":0.09070130416665734},{"name":"F#4","midi":66,"time":306.5856519999934,"velocity":0.7559055118110236,"duration":0.09070130416665734},{"name":"G#3","midi":56,"time":306.7685789999934,"velocity":0.7559055118110236,"duration":0.09070130416665734},{"name":"F#4","midi":66,"time":306.7685789999934,"velocity":0.7559055118110236,"duration":0.09070130416665734},{"name":"G#3","midi":56,"time":306.9515059999934,"velocity":0.7559055118110236,"duration":0.09070130416665734},{"name":"E4","midi":64,"time":306.9515059999934,"velocity":0.7559055118110236,"duration":0.09070130416665734},{"name":"G#3","midi":56,"time":307.1344329999934,"velocity":0.7559055118110236,"duration":0.09070130416665734},{"name":"D#4","midi":63,"time":307.1344329999934,"velocity":0.7559055118110236,"duration":0.09070130416665734},{"name":"C#2","midi":37,"time":307.3173599999934,"velocity":0.7559055118110236,"duration":0.09070130416665734},{"name":"C#3","midi":49,"time":307.3173599999934,"velocity":0.7559055118110236,"duration":0.09070130416665734},{"name":"C#4","midi":61,"time":307.5002869999934,"velocity":0.3858267716535433,"duration":0.09070130416665734},{"name":"E4","midi":64,"time":307.5002869999934,"velocity":0.3858267716535433,"duration":0.09070130416665734},{"name":"C#4","midi":61,"time":307.6832139999934,"velocity":0.3858267716535433,"duration":0.182164804166689},{"name":"E4","midi":64,"time":307.6832139999934,"velocity":0.3858267716535433,"duration":0.182164804166689},{"name":"E4","midi":64,"time":307.86614099999343,"velocity":0.3858267716535433,"duration":0.182164804166689},{"name":"G#4","midi":68,"time":307.86614099999343,"velocity":0.3858267716535433,"duration":0.182164804166689},{"name":"F#3","midi":54,"time":308.04906799999344,"velocity":0.3858267716535433,"duration":0.09070130416665734},{"name":"C#4","midi":61,"time":308.23199499999345,"velocity":0.3858267716535433,"duration":0.09070130416665734},{"name":"F#4","midi":66,"time":308.23199499999345,"velocity":0.3858267716535433,"duration":0.09070130416665734},{"name":"C#4","midi":61,"time":308.41492199999345,"velocity":0.3858267716535433,"duration":0.182164804166689},{"name":"F#4","midi":66,"time":308.41492199999345,"velocity":0.3858267716535433,"duration":0.182164804166689},{"name":"F#4","midi":66,"time":308.59784899999346,"velocity":0.3858267716535433,"duration":0.182164804166689},{"name":"A4","midi":69,"time":308.59784899999346,"velocity":0.3858267716535433,"duration":0.182164804166689},{"name":"G#3","midi":56,"time":308.78077599999347,"velocity":0.3858267716535433,"duration":0.09070130416665734},{"name":"C#4","midi":61,"time":308.9637029999935,"velocity":0.3858267716535433,"duration":0.09070130416665734},{"name":"E4","midi":64,"time":308.9637029999935,"velocity":0.3858267716535433,"duration":0.09070130416665734},{"name":"C#4","midi":61,"time":309.1466299999935,"velocity":0.3858267716535433,"duration":0.182164804166689},{"name":"E4","midi":64,"time":309.1466299999935,"velocity":0.3858267716535433,"duration":0.182164804166689},{"name":"E4","midi":64,"time":309.3295569999935,"velocity":0.3858267716535433,"duration":0.182164804166689},{"name":"G#4","midi":68,"time":309.3295569999935,"velocity":0.3858267716535433,"duration":0.182164804166689},{"name":"F#3","midi":54,"time":309.5124839999935,"velocity":0.3858267716535433,"duration":0.09070130416665734},{"name":"C4","midi":60,"time":309.6954109999935,"velocity":0.3858267716535433,"duration":0.09070130416665734},{"name":"D#4","midi":63,"time":309.6954109999935,"velocity":0.3858267716535433,"duration":0.09070130416665734},{"name":"C4","midi":60,"time":309.8783379999935,"velocity":0.3858267716535433,"duration":0.182164804166689},{"name":"D#4","midi":63,"time":309.8783379999935,"velocity":0.3858267716535433,"duration":0.182164804166689},{"name":"D#4","midi":63,"time":310.0612649999935,"velocity":0.3858267716535433,"duration":0.182164804166689},{"name":"G#4","midi":68,"time":310.0612649999935,"velocity":0.3858267716535433,"duration":0.182164804166689},{"name":"E3","midi":52,"time":310.2441919999935,"velocity":0.3858267716535433,"duration":0.09070130416665734},{"name":"G#3","midi":56,"time":310.4271189999935,"velocity":0.3858267716535433,"duration":0.09070130416665734},{"name":"C#4","midi":61,"time":310.4271189999935,"velocity":0.3858267716535433,"duration":0.09070130416665734},{"name":"G#3","midi":56,"time":310.61004599999353,"velocity":0.4015748031496063,"duration":0.182164804166689},{"name":"C#4","midi":61,"time":310.61004599999353,"velocity":0.4015748031496063,"duration":0.182164804166689},{"name":"C#4","midi":61,"time":310.79297299999354,"velocity":0.4094488188976378,"duration":0.182164804166689},{"name":"E4","midi":64,"time":310.79297299999354,"velocity":0.4094488188976378,"duration":0.182164804166689},{"name":"F#2","midi":42,"time":310.97589999999354,"velocity":0.4251968503937008,"duration":0.09070130416665734},{"name":"F#3","midi":54,"time":311.15882699999355,"velocity":0.4330708661417323,"duration":0.09070130416665734},{"name":"A3","midi":57,"time":311.15882699999355,"velocity":0.4330708661417323,"duration":0.09070130416665734},{"name":"F#3","midi":54,"time":311.34175399999356,"velocity":0.4409448818897638,"duration":0.182164804166689},{"name":"A3","midi":57,"time":311.34175399999356,"velocity":0.4409448818897638,"duration":0.182164804166689},{"name":"A3","midi":57,"time":311.52468099999356,"velocity":0.44881889763779526,"duration":0.182164804166689},{"name":"D4","midi":62,"time":311.52468099999356,"velocity":0.44881889763779526,"duration":0.182164804166689},{"name":"G#2","midi":44,"time":311.70760799999357,"velocity":0.4566929133858268,"duration":0.09070130416665734},{"name":"E3","midi":52,"time":311.8905349999936,"velocity":0.4645669291338583,"duration":0.09070130416665734},{"name":"G#3","midi":56,"time":311.8905349999936,"velocity":0.4645669291338583,"duration":0.09070130416665734},{"name":"E3","midi":52,"time":312.0734619999936,"velocity":0.48031496062992124,"duration":0.182164804166689},{"name":"G#3","midi":56,"time":312.0734619999936,"velocity":0.48031496062992124,"duration":0.182164804166689},{"name":"G#3","midi":56,"time":312.2563889999936,"velocity":0.4881889763779528,"duration":0.182164804166689},{"name":"C#4","midi":61,"time":312.2563889999936,"velocity":0.4881889763779528,"duration":0.182164804166689},{"name":"G#2","midi":44,"time":312.4393159999936,"velocity":0.49606299212598426,"duration":0.09070130416665734},{"name":"D#3","midi":51,"time":312.6222429999936,"velocity":0.44881889763779526,"duration":0.09070130416665734},{"name":"F#3","midi":54,"time":312.6222429999936,"velocity":0.44881889763779526,"duration":0.09070130416665734},{"name":"D#3","midi":51,"time":312.8051699999936,"velocity":0.4330708661417323,"duration":0.182164804166689},{"name":"F#3","midi":54,"time":312.8051699999936,"velocity":0.4330708661417323,"duration":0.182164804166689},{"name":"F#3","midi":54,"time":312.9880969999936,"velocity":0.4094488188976378,"duration":0.182164804166689},{"name":"C4","midi":60,"time":312.9880969999936,"velocity":0.4094488188976378,"duration":0.182164804166689},{"name":"C#2","midi":37,"time":313.1710239999936,"velocity":0.3858267716535433,"duration":0.09070130416665734},{"name":"C#3","midi":49,"time":313.2624874999936,"velocity":0.3858267716535433,"duration":0.09070130416665734},{"name":"G#2","midi":44,"time":313.3539509999936,"velocity":0.3858267716535433,"duration":0.09070130416665734},{"name":"C#3","midi":49,"time":313.44541449999355,"velocity":0.3858267716535433,"duration":0.09070130416665734},{"name":"C#2","midi":37,"time":313.5368779999935,"velocity":0.3858267716535433,"duration":0.09070130416665734},{"name":"C#3","midi":49,"time":313.6283414999935,"velocity":0.3858267716535433,"duration":0.09070130416665734},{"name":"G#2","midi":44,"time":313.71980499999347,"velocity":0.3858267716535433,"duration":0.09070130416665734},{"name":"C#3","midi":49,"time":313.81126849999345,"velocity":0.3858267716535433,"duration":0.09070130416665734},{"name":"C#2","midi":37,"time":313.9027319999934,"velocity":0.3858267716535433,"duration":0.09070130416665734},{"name":"C#3","midi":49,"time":313.9941954999934,"velocity":0.3858267716535433,"duration":0.09070130416665734},{"name":"G#2","midi":44,"time":314.08565899999337,"velocity":0.3858267716535433,"duration":0.09070130416665734},{"name":"C#3","midi":49,"time":314.17712249999335,"velocity":0.3858267716535433,"duration":0.09070130416665734},{"name":"C#2","midi":37,"time":314.2685859999933,"velocity":0.3858267716535433,"duration":0.09070130416665734},{"name":"C#3","midi":49,"time":314.3600494999933,"velocity":0.3858267716535433,"duration":0.09070130416665734},{"name":"G#2","midi":44,"time":314.45151299999327,"velocity":0.3858267716535433,"duration":0.09070130416665734},{"name":"C#3","midi":49,"time":314.54297649999324,"velocity":0.3858267716535433,"duration":0.09070130416665734},{"name":"C#2","midi":37,"time":314.6344399999932,"velocity":0.3858267716535433,"duration":0.09070130416665734},{"name":"D#3","midi":51,"time":314.7259034999932,"velocity":0.3858267716535433,"duration":0.09070130416665734},{"name":"G#2","midi":44,"time":314.81736699999317,"velocity":0.3858267716535433,"duration":0.09070130416665734},{"name":"D#3","midi":51,"time":314.90883049999314,"velocity":0.3858267716535433,"duration":0.09070130416665734},{"name":"C#2","midi":37,"time":315.0002939999931,"velocity":0.3858267716535433,"duration":0.09070130416665734},{"name":"D#3","midi":51,"time":315.0917574999931,"velocity":0.3858267716535433,"duration":0.09070130416665734},{"name":"G#2","midi":44,"time":315.18322099999307,"velocity":0.3858267716535433,"duration":0.09070130416665734},{"name":"D#3","midi":51,"time":315.27468449999304,"velocity":0.3858267716535433,"duration":0.09070130416665734},{"name":"C#2","midi":37,"time":315.366147999993,"velocity":0.3858267716535433,"duration":0.09070130416665734},{"name":"D#3","midi":51,"time":315.457611499993,"velocity":0.3858267716535433,"duration":0.09070130416665734},{"name":"G#2","midi":44,"time":315.54907499999297,"velocity":0.3858267716535433,"duration":0.09070130416665734},{"name":"D#3","midi":51,"time":315.64053849999294,"velocity":0.3858267716535433,"duration":0.09070130416665734},{"name":"C#2","midi":37,"time":315.7320019999929,"velocity":0.3858267716535433,"duration":0.09070130416665734},{"name":"D#3","midi":51,"time":315.8234654999929,"velocity":0.3858267716535433,"duration":0.09070130416665734},{"name":"G#2","midi":44,"time":315.91492899999287,"velocity":0.3858267716535433,"duration":0.09070130416665734},{"name":"D#3","midi":51,"time":316.00639249999284,"velocity":0.3858267716535433,"duration":0.09070130416665734},{"name":"C#2","midi":37,"time":316.0978559999928,"velocity":0.3858267716535433,"duration":0.09070130416665734},{"name":"C#3","midi":49,"time":316.1893194999928,"velocity":0.3858267716535433,"duration":0.09070130416665734},{"name":"G#2","midi":44,"time":316.28078299999277,"velocity":0.3858267716535433,"duration":0.09070130416665734},{"name":"C#3","midi":49,"time":316.37224649999274,"velocity":0.3858267716535433,"duration":0.09070130416665734},{"name":"C#2","midi":37,"time":316.4637099999927,"velocity":0.3858267716535433,"duration":0.09070130416665734},{"name":"C#3","midi":49,"time":316.5551734999927,"velocity":0.3858267716535433,"duration":0.09070130416665734},{"name":"G#2","midi":44,"time":316.64663699999267,"velocity":0.3858267716535433,"duration":0.09070130416665734},{"name":"C#3","midi":49,"time":316.73810049999264,"velocity":0.3858267716535433,"duration":0.09070130416665734},{"name":"C#2","midi":37,"time":316.8295639999926,"velocity":0.3858267716535433,"duration":0.09070130416665734},{"name":"C#3","midi":49,"time":316.9210274999926,"velocity":0.3858267716535433,"duration":0.09070130416665734},{"name":"G#2","midi":44,"time":317.01249099999256,"velocity":0.3858267716535433,"duration":0.09070130416665734},{"name":"C#3","midi":49,"time":317.10395449999254,"velocity":0.3858267716535433,"duration":0.09070130416665734},{"name":"C#2","midi":37,"time":317.1954179999925,"velocity":0.3858267716535433,"duration":0.09070130416665734},{"name":"C#3","midi":49,"time":317.2868814999925,"velocity":0.3858267716535433,"duration":0.09070130416665734},{"name":"G#2","midi":44,"time":317.37834499999246,"velocity":0.3858267716535433,"duration":0.09070130416665734},{"name":"C#3","midi":49,"time":317.46980849999244,"velocity":0.3858267716535433,"duration":0.09070130416665734},{"name":"C#2","midi":37,"time":317.5612719999924,"velocity":0.3858267716535433,"duration":0.09070130416665734},{"name":"D#3","midi":51,"time":317.6527354999924,"velocity":0.3858267716535433,"duration":0.09070130416665734},{"name":"G#2","midi":44,"time":317.74419899999236,"velocity":0.3858267716535433,"duration":0.09070130416665734},{"name":"D#3","midi":51,"time":317.83566249999234,"velocity":0.3858267716535433,"duration":0.09070130416665734},{"name":"C#2","midi":37,"time":317.9271259999923,"velocity":0.3858267716535433,"duration":0.09070130416665734},{"name":"D#3","midi":51,"time":318.0185894999923,"velocity":0.3858267716535433,"duration":0.09070130416665734},{"name":"G#2","midi":44,"time":318.11005299999226,"velocity":0.3858267716535433,"duration":0.09070130416665734},{"name":"D#3","midi":51,"time":318.20151649999224,"velocity":0.3858267716535433,"duration":0.09070130416665734},{"name":"C#2","midi":37,"time":318.2929799999922,"velocity":0.3858267716535433,"duration":0.09070130416665734},{"name":"D#3","midi":51,"time":318.3844434999922,"velocity":0.3858267716535433,"duration":0.09070130416665734},{"name":"G#2","midi":44,"time":318.47590699999216,"velocity":0.3858267716535433,"duration":0.09070130416665734},{"name":"D#3","midi":51,"time":318.56737049999214,"velocity":0.3858267716535433,"duration":0.09070130416665734},{"name":"C#2","midi":37,"time":318.6588339999921,"velocity":0.3858267716535433,"duration":0.09070130416665734},{"name":"D#3","midi":51,"time":318.7502974999921,"velocity":0.3858267716535433,"duration":0.09070130416665734},{"name":"G#2","midi":44,"time":318.84176099999206,"velocity":0.3858267716535433,"duration":0.09070130416665734},{"name":"D#3","midi":51,"time":318.93322449999204,"velocity":0.3858267716535433,"duration":0.09070130416665734},{"name":"C#2","midi":37,"time":319.024687999992,"velocity":0.3858267716535433,"duration":0.09070130416665734},{"name":"C#3","midi":49,"time":319.116151499992,"velocity":0.3858267716535433,"duration":0.09070130416665734},{"name":"G#2","midi":44,"time":319.20761499999196,"velocity":0.3858267716535433,"duration":0.09070130416665734},{"name":"C#3","midi":49,"time":319.29907849999194,"velocity":0.3858267716535433,"duration":0.09070130416665734},{"name":"C#2","midi":37,"time":319.3905419999919,"velocity":0.3858267716535433,"duration":0.09070130416665734},{"name":"C#3","midi":49,"time":319.4820054999919,"velocity":0.3858267716535433,"duration":0.09070130416665734},{"name":"G#2","midi":44,"time":319.57346899999186,"velocity":0.3858267716535433,"duration":0.09070130416665734},{"name":"C#3","midi":49,"time":319.66493249999183,"velocity":0.3858267716535433,"duration":0.09070130416665734},{"name":"C#2","midi":37,"time":319.7563959999918,"velocity":0.3858267716535433,"duration":0.09070130416665734},{"name":"D#3","midi":51,"time":319.8478594999918,"velocity":0.3858267716535433,"duration":0.09070130416665734},{"name":"G#2","midi":44,"time":319.93932299999176,"velocity":0.3858267716535433,"duration":0.09070130416665734},{"name":"D#3","midi":51,"time":320.03078649999173,"velocity":0.3858267716535433,"duration":0.09070130416665734},{"name":"C#2","midi":37,"time":320.1222499999917,"velocity":0.3858267716535433,"duration":0.09070130416665734},{"name":"D#3","midi":51,"time":320.2137134999917,"velocity":0.3858267716535433,"duration":0.09070130416665734},{"name":"G#2","midi":44,"time":320.30517699999166,"velocity":0.3858267716535433,"duration":0.09070130416665734},{"name":"D#3","midi":51,"time":320.39664049999163,"velocity":0.3858267716535433,"duration":0.09070130416665734},{"name":"C#2","midi":37,"time":320.4881039999916,"velocity":0.3858267716535433,"duration":0.09070130416665734},{"name":"C#3","midi":49,"time":320.5795674999916,"velocity":0.3858267716535433,"duration":0.09070130416665734},{"name":"G#2","midi":44,"time":320.67103099999156,"velocity":0.3858267716535433,"duration":0.09070130416665734},{"name":"C#3","midi":49,"time":320.76249449999153,"velocity":0.3858267716535433,"duration":0.09070130416665734},{"name":"C#2","midi":37,"time":320.8539579999915,"velocity":0.3858267716535433,"duration":0.09070130416665734},{"name":"C#3","midi":49,"time":320.9454214999915,"velocity":0.3858267716535433,"duration":0.09070130416665734},{"name":"G#2","midi":44,"time":321.03688499999146,"velocity":0.3858267716535433,"duration":0.09070130416665734},{"name":"C#3","midi":49,"time":321.12834849999143,"velocity":0.3858267716535433,"duration":0.09070130416665734},{"name":"C#2","midi":37,"time":321.2198119999914,"velocity":0.3858267716535433,"duration":0.09070130416665734},{"name":"D#3","midi":51,"time":321.3112754999914,"velocity":0.3858267716535433,"duration":0.09070130416665734},{"name":"G#2","midi":44,"time":321.40273899999136,"velocity":0.3858267716535433,"duration":0.09070130416665734},{"name":"D#3","midi":51,"time":321.49420249999133,"velocity":0.3858267716535433,"duration":0.09070130416665734},{"name":"C#2","midi":37,"time":321.5856659999913,"velocity":0.3858267716535433,"duration":0.09070130416665734},{"name":"D#3","midi":51,"time":321.6771294999913,"velocity":0.3858267716535433,"duration":0.09070130416665734},{"name":"G#2","midi":44,"time":321.76859299999126,"velocity":0.3858267716535433,"duration":0.09070130416665734},{"name":"D#3","midi":51,"time":321.86005649999123,"velocity":0.3858267716535433,"duration":0.09070130416665734},{"name":"C#2","midi":37,"time":321.9515199999912,"velocity":0.3858267716535433,"duration":0.09070130416665734},{"name":"C#3","midi":49,"time":322.0429834999912,"velocity":0.4094488188976378,"duration":0.09070130416665734},{"name":"G#2","midi":44,"time":322.13444699999116,"velocity":0.41732283464566927,"duration":0.09070130416665734},{"name":"C#3","midi":49,"time":322.22591049999113,"velocity":0.4330708661417323,"duration":0.09070130416665734},{"name":"C#2","midi":37,"time":322.3173739999911,"velocity":0.4409448818897638,"duration":0.09070130416665734},{"name":"C#3","midi":49,"time":322.4088374999911,"velocity":0.4566929133858268,"duration":0.09070130416665734},{"name":"G#2","midi":44,"time":322.50030099999105,"velocity":0.4645669291338583,"duration":0.09070130416665734},{"name":"C#3","midi":49,"time":322.59176449999103,"velocity":0.47244094488188976,"duration":0.09070130416665734},{"name":"C#2","midi":37,"time":322.683227999991,"velocity":0.4881889763779528,"duration":0.09070130416665734},{"name":"C#3","midi":49,"time":322.774691499991,"velocity":0.49606299212598426,"duration":0.09070130416665734},{"name":"G#2","midi":44,"time":322.86615499999095,"velocity":0.5118110236220472,"duration":0.09070130416665734},{"name":"C#3","midi":49,"time":322.95761849999093,"velocity":0.5196850393700787,"duration":0.09070130416665734},{"name":"C#2","midi":37,"time":323.0490819999909,"velocity":0.5354330708661418,"duration":0.09070130416665734},{"name":"C#3","midi":49,"time":323.1405454999909,"velocity":0.5433070866141733,"duration":0.09070130416665734},{"name":"G#2","midi":44,"time":323.23200899999085,"velocity":0.5511811023622047,"duration":0.09070130416665734},{"name":"C#3","midi":49,"time":323.3234724999908,"velocity":0.5669291338582677,"duration":0.09070130416665734},{"name":"B1","midi":35,"time":323.4149359999908,"velocity":0.5748031496062992,"duration":0.09070130416665734},{"name":"B2","midi":47,"time":323.5063994999908,"velocity":0.5905511811023622,"duration":0.09070130416665734},{"name":"C#2","midi":37,"time":323.59786299999075,"velocity":0.5984251968503937,"duration":0.09070130416665734},{"name":"B2","midi":47,"time":323.6893264999907,"velocity":0.6062992125984252,"duration":0.09070130416665734},{"name":"B1","midi":35,"time":323.7807899999907,"velocity":0.6220472440944882,"duration":0.09070130416665734},{"name":"B2","midi":47,"time":323.8722534999907,"velocity":0.6299212598425197,"duration":0.09070130416665734},{"name":"C#2","midi":37,"time":323.96371699999065,"velocity":0.6456692913385826,"duration":0.09070130416665734},{"name":"B2","midi":47,"time":324.0551804999906,"velocity":0.6535433070866141,"duration":0.09070130416665734},{"name":"B1","midi":35,"time":324.1466439999906,"velocity":0.6692913385826772,"duration":0.09070130416665734},{"name":"B2","midi":47,"time":324.2381074999906,"velocity":0.6771653543307087,"duration":0.09070130416665734},{"name":"C#2","midi":37,"time":324.32957099999055,"velocity":0.6850393700787402,"duration":0.09070130416665734},{"name":"B2","midi":47,"time":324.4210344999905,"velocity":0.7007874015748031,"duration":0.09070130416665734},{"name":"B1","midi":35,"time":324.5124979999905,"velocity":0.7086614173228346,"duration":0.09070130416665734},{"name":"B2","midi":47,"time":324.6039614999905,"velocity":0.7244094488188977,"duration":0.09070130416665734},{"name":"C#2","midi":37,"time":324.69542499999045,"velocity":0.7322834645669292,"duration":0.09070130416665734},{"name":"B2","midi":47,"time":324.7868884999904,"velocity":0.7480314960629921,"duration":0.09070130416665734},{"name":"A1","midi":33,"time":324.8783519999904,"velocity":0.7559055118110236,"duration":0.09070130416665734},{"name":"A2","midi":45,"time":324.8783519999904,"velocity":0.7559055118110236,"duration":0.09070130416665734},{"name":"F#2","midi":42,"time":325.0612789999904,"velocity":0.3858267716535433,"duration":0.09070130416665734},{"name":"A1","midi":33,"time":325.2442059999904,"velocity":0.3858267716535433,"duration":0.09070130416665734},{"name":"F#2","midi":42,"time":325.4271329999904,"velocity":0.3858267716535433,"duration":0.09070130416665734},{"name":"A1","midi":33,"time":325.6100599999904,"velocity":0.3858267716535433,"duration":0.09070130416665734},{"name":"F#2","midi":42,"time":325.79298699999043,"velocity":0.3858267716535433,"duration":0.09070130416665734},{"name":"A1","midi":33,"time":325.97591399999044,"velocity":0.3858267716535433,"duration":0.09070130416665734},{"name":"F#2","midi":42,"time":326.15884099999045,"velocity":0.3858267716535433,"duration":0.09070130416665734},{"name":"A1","midi":33,"time":326.34176799999045,"velocity":0.3858267716535433,"duration":0.09070130416665734},{"name":"F#2","midi":42,"time":326.52469499999046,"velocity":0.3858267716535433,"duration":0.09070130416665734},{"name":"A1","midi":33,"time":326.70762199999047,"velocity":0.3858267716535433,"duration":0.09070130416665734},{"name":"F#2","midi":42,"time":326.8905489999905,"velocity":0.3858267716535433,"duration":0.09070130416665734},{"name":"A1","midi":33,"time":327.0734759999905,"velocity":0.3858267716535433,"duration":0.09070130416665734},{"name":"F#2","midi":42,"time":327.2564029999905,"velocity":0.3858267716535433,"duration":0.09070130416665734},{"name":"A1","midi":33,"time":327.4393299999905,"velocity":0.5039370078740157,"duration":0.09070130416671418},{"name":"A2","midi":45,"time":327.4393299999905,"velocity":0.5039370078740157,"duration":0.09070130416671418},{"name":"F#2","midi":42,"time":327.62225699999055,"velocity":0.3858267716535433,"duration":0.09070130416665734},{"name":"G#1","midi":32,"time":327.80518399999056,"velocity":0.3858267716535433,"duration":0.09070130416665734},{"name":"E2","midi":40,"time":327.98811099999057,"velocity":0.3858267716535433,"duration":0.09070130416665734},{"name":"G#1","midi":32,"time":328.1710379999906,"velocity":0.3858267716535433,"duration":0.09070130416665734},{"name":"E2","midi":40,"time":328.3539649999906,"velocity":0.3858267716535433,"duration":0.09070130416665734},{"name":"G#1","midi":32,"time":328.5368919999906,"velocity":0.3858267716535433,"duration":0.09070130416665734},{"name":"E2","midi":40,"time":328.7198189999906,"velocity":0.3858267716535433,"duration":0.09070130416665734},{"name":"G#1","midi":32,"time":328.9027459999906,"velocity":0.3858267716535433,"duration":0.09070130416665734},{"name":"E2","midi":40,"time":329.0856729999906,"velocity":0.3858267716535433,"duration":0.09070130416665734},{"name":"G#1","midi":32,"time":329.2685999999906,"velocity":0.3858267716535433,"duration":0.09070130416665734},{"name":"E2","midi":40,"time":329.4515269999906,"velocity":0.3858267716535433,"duration":0.09070130416665734},{"name":"G#1","midi":32,"time":329.6344539999906,"velocity":0.3858267716535433,"duration":0.09070130416665734},{"name":"E2","midi":40,"time":329.81738099999063,"velocity":0.3858267716535433,"duration":0.09070130416665734},{"name":"G#1","midi":32,"time":330.00030799999064,"velocity":0.3858267716535433,"duration":0.09070130416665734},{"name":"E2","midi":40,"time":330.18323499999065,"velocity":0.3858267716535433,"duration":0.09070130416665734},{"name":"G#1","midi":32,"time":330.36616199999065,"velocity":0.5039370078740157,"duration":0.09070130416671418},{"name":"G#2","midi":44,"time":330.36616199999065,"velocity":0.5039370078740157,"duration":0.09070130416671418},{"name":"E2","midi":40,"time":330.5490889999907,"velocity":0.3858267716535433,"duration":0.09070130416665734},{"name":"G1","midi":31,"time":330.7320159999907,"velocity":0.8818897637795275,"duration":0.5480188041666452},{"name":"G1","midi":31,"time":331.2807969999907,"velocity":0.8818897637795275,"duration":0.7309458041667085},{"name":"A#1","midi":34,"time":331.3265287499907,"velocity":0.8818897637795275,"duration":0.6852140541666927},{"name":"C#2","midi":37,"time":331.3722604999907,"velocity":0.8818897637795275,"duration":0.6394823041666768},{"name":"E2","midi":40,"time":331.41799224999073,"velocity":0.8818897637795275,"duration":0.593750554166661},{"name":"G2","midi":43,"time":331.46372399999075,"velocity":0.8818897637795275,"duration":0.5480188041666452},{"name":"G2","midi":43,"time":332.0125049999907,"velocity":0.8818897637795275,"duration":0.548018804166702},{"name":"A#2","midi":46,"time":332.0582367499907,"velocity":0.8818897637795275,"duration":0.5022870541666862},{"name":"C#3","midi":49,"time":332.10396849999074,"velocity":0.8818897637795275,"duration":0.45655530416667034},{"name":"E3","midi":52,"time":332.14970024999076,"velocity":0.8818897637795275,"duration":0.4108235541666545},{"name":"G3","midi":55,"time":332.1954319999908,"velocity":0.8818897637795275,"duration":0.36509180416663867},{"name":"G3","midi":55,"time":332.56128599999073,"velocity":0.8818897637795275,"duration":1.0967998041666647},{"name":"A#3","midi":58,"time":332.56128599999073,"velocity":0.8818897637795275,"duration":1.0967998041666647},{"name":"C#4","midi":61,"time":332.56128599999073,"velocity":0.8818897637795275,"duration":1.0967998041666647},{"name":"E4","midi":64,"time":332.56128599999073,"velocity":0.8818897637795275,"duration":1.0967998041666647},{"name":"F#1","midi":30,"time":333.6588479999907,"velocity":0.8818897637795275,"duration":0.5480188041666452},{"name":"F#1","midi":30,"time":334.2076289999907,"velocity":0.8818897637795275,"duration":0.7309458041667085},{"name":"A1","midi":33,"time":334.2533607499907,"velocity":0.8818897637795275,"duration":0.6852140541666927},{"name":"C2","midi":36,"time":334.2990924999907,"velocity":0.8818897637795275,"duration":0.6394823041666768},{"name":"D#2","midi":39,"time":334.3448242499907,"velocity":0.8818897637795275,"duration":0.593750554166661},{"name":"F#2","midi":42,"time":334.39055599999074,"velocity":0.8818897637795275,"duration":0.5480188041666452},{"name":"F#2","midi":42,"time":334.9393369999907,"velocity":0.8818897637795275,"duration":0.548018804166702},{"name":"A2","midi":45,"time":334.9850687499907,"velocity":0.8818897637795275,"duration":0.5022870541666862},{"name":"C3","midi":48,"time":335.03080049999073,"velocity":0.8818897637795275,"duration":0.45655530416667034},{"name":"D#3","midi":51,"time":335.07653224999075,"velocity":0.8818897637795275,"duration":0.4108235541666545},{"name":"F#3","midi":54,"time":335.12226399999076,"velocity":0.8818897637795275,"duration":0.36509180416663867},{"name":"F#3","midi":54,"time":335.4881179999907,"velocity":0.8818897637795275,"duration":1.0967998041666647},{"name":"A3","midi":57,"time":335.4881179999907,"velocity":0.8818897637795275,"duration":1.0967998041666647},{"name":"C4","midi":60,"time":335.4881179999907,"velocity":0.8818897637795275,"duration":1.0967998041666647},{"name":"D#4","midi":63,"time":335.4881179999907,"velocity":0.8818897637795275,"duration":1.0967998041666647},{"name":"C#3","midi":49,"time":336.5856799999907,"velocity":0.3858267716535433,"duration":0.18216480416663217},{"name":"G#3","midi":56,"time":336.95153399999066,"velocity":0.3858267716535433,"duration":0.7309458041666517},{"name":"E3","midi":52,"time":337.6832419999906,"velocity":0.3858267716535433,"duration":0.27362830416666384},{"name":"C#3","midi":49,"time":337.9576324999906,"velocity":0.3858267716535433,"duration":0.09070130416665734},{"name":"C#3","midi":49,"time":338.0490959999906,"velocity":0.3858267716535433,"duration":0.36509180416663867},{"name":"C3","midi":48,"time":338.41494999999054,"velocity":0.3858267716535433,"duration":0.5480188041666452},{"name":"C3","midi":48,"time":338.9637309999905,"velocity":0.3858267716535433,"duration":0.182164804166689},{"name":"G#3","midi":56,"time":339.1466579999905,"velocity":0.3858267716535433,"duration":0.27362830416666384},{"name":"C3","midi":48,"time":339.4210484999905,"velocity":0.3858267716535433,"duration":0.09070130416665734},{"name":"D#3","midi":51,"time":339.51251199999047,"velocity":0.3858267716535433,"duration":0.36509180416663867},{"name":"C#3","midi":49,"time":339.8783659999904,"velocity":0.3858267716535433,"duration":0.5480188041666452},{"name":"C#3","midi":49,"time":340.4271469999904,"velocity":0.3858267716535433,"duration":0.182164804166689},{"name":"G#3","midi":56,"time":340.6100739999904,"velocity":0.3858267716535433,"duration":0.27362830416666384},{"name":"C#3","midi":49,"time":340.8844644999904,"velocity":0.3858267716535433,"duration":0.09070130416665734},{"name":"E3","midi":52,"time":340.97592799999035,"velocity":0.3858267716535433,"duration":0.36509180416663867},{"name":"D#3","midi":51,"time":341.3417819999903,"velocity":0.3858267716535433,"duration":0.5480188041666452},{"name":"D#3","midi":51,"time":341.89056299999027,"velocity":0.3858267716535433,"duration":0.182164804166689},{"name":"G#3","midi":56,"time":342.0734899999903,"velocity":0.3858267716535433,"duration":0.27362830416666384},{"name":"D#3","midi":51,"time":342.34788049999025,"velocity":0.3858267716535433,"duration":0.09070130416665734},{"name":"E3","midi":52,"time":342.43934399999023,"velocity":0.3858267716535433,"duration":0.09070130416665734},{"name":"G#3","midi":56,"time":342.5308074999902,"velocity":0.3858267716535433,"duration":0.09070130416665734},{"name":"E3","midi":52,"time":342.6222709999902,"velocity":0.3858267716535433,"duration":0.09070130416665734},{"name":"G#3","midi":56,"time":342.71373449999015,"velocity":0.3858267716535433,"duration":0.09070130416665734},{"name":"E3","midi":52,"time":342.8051979999901,"velocity":0.3858267716535433,"duration":0.09070130416665734},{"name":"G#3","midi":56,"time":342.8966614999901,"velocity":0.3858267716535433,"duration":0.09070130416665734},{"name":"E3","midi":52,"time":342.9881249999901,"velocity":0.3858267716535433,"duration":0.09070130416665734},{"name":"G#3","midi":56,"time":343.07958849999005,"velocity":0.3858267716535433,"duration":0.09070130416665734},{"name":"E3","midi":52,"time":343.17105199999,"velocity":0.3858267716535433,"duration":0.09070130416665734},{"name":"G#3","midi":56,"time":343.26251549999,"velocity":0.3858267716535433,"duration":0.09070130416665734},{"name":"E3","midi":52,"time":343.35397899999,"velocity":0.3858267716535433,"duration":0.09070130416665734},{"name":"G#3","midi":56,"time":343.44544249998995,"velocity":0.3858267716535433,"duration":0.09070130416665734},{"name":"E3","midi":52,"time":343.5369059999899,"velocity":0.3858267716535433,"duration":0.09070130416665734},{"name":"G#3","midi":56,"time":343.6283694999899,"velocity":0.3858267716535433,"duration":0.09070130416665734},{"name":"E3","midi":52,"time":343.7198329999899,"velocity":0.3858267716535433,"duration":0.09070130416665734},{"name":"G#3","midi":56,"time":343.81129649998985,"velocity":0.3858267716535433,"duration":0.09070130416665734},{"name":"F#3","midi":54,"time":343.9027599999898,"velocity":0.3858267716535433,"duration":0.09070130416665734},{"name":"G#3","midi":56,"time":343.9942234999898,"velocity":0.3858267716535433,"duration":0.09070130416665734},{"name":"F#3","midi":54,"time":344.0856869999898,"velocity":0.3858267716535433,"duration":0.09070130416665734},{"name":"G#3","midi":56,"time":344.17715049998975,"velocity":0.3858267716535433,"duration":0.09070130416665734},{"name":"F#3","midi":54,"time":344.2686139999897,"velocity":0.3858267716535433,"duration":0.09070130416665734},{"name":"G#3","midi":56,"time":344.3600774999897,"velocity":0.3858267716535433,"duration":0.09070130416665734},{"name":"F#3","midi":54,"time":344.4515409999897,"velocity":0.3858267716535433,"duration":0.09070130416665734},{"name":"G#3","midi":56,"time":344.54300449998965,"velocity":0.3858267716535433,"duration":0.09070130416665734},{"name":"F#3","midi":54,"time":344.6344679999896,"velocity":0.3858267716535433,"duration":0.09070130416665734},{"name":"G#3","midi":56,"time":344.7259314999896,"velocity":0.3858267716535433,"duration":0.09070130416665734},{"name":"F#3","midi":54,"time":344.8173949999896,"velocity":0.3858267716535433,"duration":0.09070130416665734},{"name":"G#3","midi":56,"time":344.90885849998955,"velocity":0.3858267716535433,"duration":0.09070130416665734},{"name":"F#3","midi":54,"time":345.0003219999895,"velocity":0.3858267716535433,"duration":0.09070130416665734},{"name":"G#3","midi":56,"time":345.0917854999895,"velocity":0.3858267716535433,"duration":0.09070130416665734},{"name":"F#3","midi":54,"time":345.1832489999895,"velocity":0.3858267716535433,"duration":0.09070130416665734},{"name":"G#3","midi":56,"time":345.27471249998945,"velocity":0.3858267716535433,"duration":0.09070130416665734},{"name":"E3","midi":52,"time":345.3661759999894,"velocity":0.3858267716535433,"duration":0.09070130416665734},{"name":"G#3","midi":56,"time":345.4576394999894,"velocity":0.3858267716535433,"duration":0.09070130416665734},{"name":"E3","midi":52,"time":345.5491029999894,"velocity":0.3858267716535433,"duration":0.09070130416665734},{"name":"G#3","midi":56,"time":345.64056649998935,"velocity":0.3858267716535433,"duration":0.09070130416665734},{"name":"E3","midi":52,"time":345.7320299999893,"velocity":0.3858267716535433,"duration":0.09070130416665734},{"name":"G#3","midi":56,"time":345.8234934999893,"velocity":0.3858267716535433,"duration":0.09070130416665734},{"name":"E3","midi":52,"time":345.9149569999893,"velocity":0.3858267716535433,"duration":0.09070130416665734},{"name":"G#3","midi":56,"time":346.00642049998925,"velocity":0.3858267716535433,"duration":0.09070130416665734},{"name":"E3","midi":52,"time":346.0978839999892,"velocity":0.3858267716535433,"duration":0.09070130416665734},{"name":"G#3","midi":56,"time":346.1893474999892,"velocity":0.3858267716535433,"duration":0.09070130416665734},{"name":"E3","midi":52,"time":346.28081099998917,"velocity":0.3858267716535433,"duration":0.09070130416665734},{"name":"G#3","midi":56,"time":346.37227449998915,"velocity":0.3858267716535433,"duration":0.09070130416665734},{"name":"E3","midi":52,"time":346.4637379999891,"velocity":0.3858267716535433,"duration":0.09070130416665734},{"name":"G#3","midi":56,"time":346.5552014999891,"velocity":0.3858267716535433,"duration":0.09070130416665734},{"name":"E3","midi":52,"time":346.64666499998907,"velocity":0.3858267716535433,"duration":0.09070130416665734},{"name":"G#3","midi":56,"time":346.73812849998905,"velocity":0.3858267716535433,"duration":0.09070130416665734},{"name":"C3","midi":48,"time":346.829591999989,"velocity":0.3858267716535433,"duration":0.09070130416665734},{"name":"G#3","midi":56,"time":346.921055499989,"velocity":0.3858267716535433,"duration":0.09070130416665734},{"name":"C3","midi":48,"time":347.01251899998897,"velocity":0.3858267716535433,"duration":0.09070130416665734},{"name":"G#3","midi":56,"time":347.10398249998894,"velocity":0.3858267716535433,"duration":0.09070130416665734},{"name":"C3","midi":48,"time":347.1954459999889,"velocity":0.3858267716535433,"duration":0.09070130416665734},{"name":"G#3","midi":56,"time":347.2869094999889,"velocity":0.3858267716535433,"duration":0.09070130416665734},{"name":"C3","midi":48,"time":347.37837299998887,"velocity":0.3858267716535433,"duration":0.09070130416665734},{"name":"G#3","midi":56,"time":347.46983649998884,"velocity":0.3858267716535433,"duration":0.09070130416665734},{"name":"C3","midi":48,"time":347.5612999999888,"velocity":0.3858267716535433,"duration":0.09070130416665734},{"name":"G#3","midi":56,"time":347.6527634999888,"velocity":0.3858267716535433,"duration":0.09070130416665734},{"name":"C3","midi":48,"time":347.74422699998877,"velocity":0.3858267716535433,"duration":0.09070130416665734},{"name":"G#3","midi":56,"time":347.83569049998874,"velocity":0.3858267716535433,"duration":0.09070130416665734},{"name":"C3","midi":48,"time":347.9271539999887,"velocity":0.3858267716535433,"duration":0.09070130416665734},{"name":"G#3","midi":56,"time":348.0186174999887,"velocity":0.3858267716535433,"duration":0.09070130416665734},{"name":"C3","midi":48,"time":348.11008099998867,"velocity":0.3858267716535433,"duration":0.09070130416665734},{"name":"G#3","midi":56,"time":348.20154449998864,"velocity":0.3858267716535433,"duration":0.09070130416665734},{"name":"C#3","midi":49,"time":348.2930079999886,"velocity":0.3858267716535433,"duration":0.09070130416665734},{"name":"G#3","midi":56,"time":348.3844714999886,"velocity":0.4094488188976378,"duration":0.09070130416665734},{"name":"C#3","midi":49,"time":348.47593499998857,"velocity":0.41732283464566927,"duration":0.09070130416665734},{"name":"G#3","midi":56,"time":348.56739849998854,"velocity":0.4330708661417323,"duration":0.09070130416665734},{"name":"C#3","midi":49,"time":348.6588619999885,"velocity":0.4409448818897638,"duration":0.09070130416665734},{"name":"G#3","midi":56,"time":348.7503254999885,"velocity":0.4566929133858268,"duration":0.09070130416665734},{"name":"C#3","midi":49,"time":348.84178899998847,"velocity":0.4645669291338583,"duration":0.09070130416665734},{"name":"G#3","midi":56,"time":348.93325249998844,"velocity":0.47244094488188976,"duration":0.09070130416665734},{"name":"B2","midi":47,"time":349.0247159999884,"velocity":0.4881889763779528,"duration":0.09070130416665734},{"name":"C#3","midi":49,"time":349.1161794999884,"velocity":0.49606299212598426,"duration":0.09070130416665734},{"name":"B2","midi":47,"time":349.20764299998837,"velocity":0.5118110236220472,"duration":0.09070130416665734},{"name":"C#3","midi":49,"time":349.29910649998834,"velocity":0.5196850393700787,"duration":0.09070130416665734},{"name":"B2","midi":47,"time":349.3905699999883,"velocity":0.5354330708661418,"duration":0.09070130416665734},{"name":"C#3","midi":49,"time":349.4820334999883,"velocity":0.5433070866141733,"duration":0.09070130416665734},{"name":"B2","midi":47,"time":349.57349699998827,"velocity":0.5511811023622047,"duration":0.09070130416665734},{"name":"C#3","midi":49,"time":349.66496049998824,"velocity":0.5669291338582677,"duration":0.09070130416665734},{"name":"A2","midi":45,"time":349.7564239999882,"velocity":0.5748031496062992,"duration":0.09070130416665734},{"name":"C#3","midi":49,"time":349.8478874999882,"velocity":0.5905511811023622,"duration":0.09070130416665734},{"name":"A2","midi":45,"time":349.93935099998816,"velocity":0.5984251968503937,"duration":0.09070130416665734},{"name":"C#3","midi":49,"time":350.03081449998814,"velocity":0.6062992125984252,"duration":0.09070130416665734},{"name":"A2","midi":45,"time":350.1222779999881,"velocity":0.6220472440944882,"duration":0.09070130416665734},{"name":"C#3","midi":49,"time":350.2137414999881,"velocity":0.6299212598425197,"duration":0.09070130416665734},{"name":"A2","midi":45,"time":350.30520499998806,"velocity":0.6456692913385826,"duration":0.09070130416665734},{"name":"C#3","midi":49,"time":350.39666849998804,"velocity":0.6535433070866141,"duration":0.09070130416665734},{"name":"F2","midi":41,"time":350.488131999988,"velocity":0.6692913385826772,"duration":0.09070130416665734},{"name":"C#3","midi":49,"time":350.579595499988,"velocity":0.6771653543307087,"duration":0.09070130416665734},{"name":"F2","midi":41,"time":350.67105899998796,"velocity":0.6850393700787402,"duration":0.09070130416665734},{"name":"C#3","midi":49,"time":350.76252249998794,"velocity":0.7007874015748031,"duration":0.09070130416665734},{"name":"F2","midi":41,"time":350.8539859999879,"velocity":0.7086614173228346,"duration":0.09070130416665734},{"name":"C#3","midi":49,"time":350.9454494999879,"velocity":0.7244094488188977,"duration":0.09070130416665734},{"name":"F2","midi":41,"time":351.03691299998786,"velocity":0.7322834645669292,"duration":0.09070130416665734},{"name":"C#3","midi":49,"time":351.12837649998784,"velocity":0.7480314960629921,"duration":0.09070130416665734},{"name":"F#1","midi":30,"time":351.2198399999878,"velocity":0.7559055118110236,"duration":2.926069804166673},{"name":"C#2","midi":37,"time":351.2198399999878,"velocity":0.7559055118110236,"duration":2.926069804166673},{"name":"F#2","midi":42,"time":351.2198399999878,"velocity":0.7559055118110236,"duration":2.926069804166673},{"name":"F#1","midi":30,"time":354.1466719999878,"velocity":0.7559055118110236,"duration":2.926069804166673},{"name":"D2","midi":38,"time":354.1466719999878,"velocity":0.7559055118110236,"duration":2.926069804166673},{"name":"F#2","midi":42,"time":354.1466719999878,"velocity":0.7559055118110236,"duration":2.926069804166673},{"name":"G1","midi":31,"time":357.0735039999878,"velocity":0.7559055118110236,"duration":2.926069804166673},{"name":"C#2","midi":37,"time":357.0735039999878,"velocity":0.7559055118110236,"duration":2.926069804166673},{"name":"G2","midi":43,"time":357.0735039999878,"velocity":0.7559055118110236,"duration":2.926069804166673},{"name":"G#1","midi":32,"time":360.0003359999878,"velocity":0.7559055118110236,"duration":2.926069804166673},{"name":"C#2","midi":37,"time":360.0003359999878,"velocity":0.7559055118110236,"duration":2.926069804166673},{"name":"G#2","midi":44,"time":360.0003359999878,"velocity":0.7559055118110236,"duration":2.926069804166673},{"name":"G#3","midi":56,"time":365.85399999998776,"velocity":0.7559055118110236,"duration":7.499244804166665},{"name":"C4","midi":60,"time":365.85399999998776,"velocity":0.7559055118110236,"duration":7.499244804166665},{"name":"F#4","midi":66,"time":365.85399999998776,"velocity":0.7559055118110236,"duration":7.499244804166665},{"name":"G1","midi":31,"time":373.35400699998775,"velocity":0.25984251968503935,"duration":1.4626538041666777},{"name":"G2","midi":43,"time":373.35400699998775,"velocity":0.25984251968503935,"duration":1.4626538041666777},{"name":"G#1","midi":32,"time":374.81742299998774,"velocity":0.25984251968503935,"duration":1.4626538041666777},{"name":"G#2","midi":44,"time":374.81742299998774,"velocity":0.25984251968503935,"duration":1.4626538041666777},{"name":"C#2","midi":37,"time":376.28083899998774,"velocity":0.3858267716535433,"duration":0.09070130416665734},{"name":"C#3","midi":49,"time":376.3723024999877,"velocity":0.3858267716535433,"duration":0.18292699999994966},{"name":"G#2","midi":44,"time":376.4637659999877,"velocity":0.3858267716535433,"duration":0.09070130416665734},{"name":"C#3","midi":49,"time":376.55522949998766,"velocity":0.3858267716535433,"duration":0.273628304166607},{"name":"C#2","midi":37,"time":376.64669299998764,"velocity":0.3858267716535433,"duration":0.09070130416665734},{"name":"C#3","midi":49,"time":376.7381564999876,"velocity":0.3858267716535433,"duration":0.273628304166607},{"name":"G#2","midi":44,"time":376.8296199999876,"velocity":0.3858267716535433,"duration":0.09070130416665734},{"name":"C#3","midi":49,"time":376.92108349998756,"velocity":0.3858267716535433,"duration":0.273628304166607},{"name":"C#2","midi":37,"time":377.01254699998753,"velocity":0.3858267716535433,"duration":0.09070130416665734},{"name":"C#3","midi":49,"time":377.1040104999875,"velocity":0.3858267716535433,"duration":0.273628304166607},{"name":"G#2","midi":44,"time":377.1954739999875,"velocity":0.3858267716535433,"duration":0.09070130416665734},{"name":"C#3","midi":49,"time":377.28693749998746,"velocity":0.3858267716535433,"duration":0.273628304166607},{"name":"C#2","midi":37,"time":377.37840099998743,"velocity":0.3858267716535433,"duration":0.09070130416665734},{"name":"C#3","midi":49,"time":377.4698644999874,"velocity":0.3858267716535433,"duration":0.273628304166607},{"name":"G#2","midi":44,"time":377.5613279999874,"velocity":0.3858267716535433,"duration":0.09070130416665734},{"name":"C#3","midi":49,"time":377.65279149998736,"velocity":0.3858267716535433,"duration":1.7370443041662043},{"name":"C#2","midi":37,"time":377.74425499998733,"velocity":0.3858267716535433,"duration":0.09070130416665734},{"name":"D#3","midi":51,"time":377.8357184999873,"velocity":0.3858267716535433,"duration":0.09070130416665734},{"name":"G#2","midi":44,"time":377.9271819999873,"velocity":0.3858267716535433,"duration":0.09070130416665734},{"name":"D#3","midi":51,"time":378.01864549998726,"velocity":0.3858267716535433,"duration":0.09070130416665734},{"name":"C#2","midi":37,"time":378.11010899998723,"velocity":0.3858267716535433,"duration":0.09070130416665734},{"name":"D#3","midi":51,"time":378.2015724999872,"velocity":0.3858267716535433,"duration":0.09070130416665734},{"name":"G#2","midi":44,"time":378.2930359999872,"velocity":0.3858267716535433,"duration":0.09070130416665734},{"name":"D#3","midi":51,"time":378.38449949998716,"velocity":0.3858267716535433,"duration":0.09070130416665734},{"name":"C#2","midi":37,"time":378.47596299998713,"velocity":0.3858267716535433,"duration":0.09070130416665734},{"name":"D#3","midi":51,"time":378.5674264999871,"velocity":0.3858267716535433,"duration":0.09070130416665734},{"name":"G#2","midi":44,"time":378.6588899999871,"velocity":0.3858267716535433,"duration":0.09070130416665734},{"name":"D#3","midi":51,"time":378.75035349998706,"velocity":0.3858267716535433,"duration":0.09070130416665734},{"name":"C#2","midi":37,"time":378.84181699998703,"velocity":0.3858267716535433,"duration":0.09070130416665734},{"name":"D#3","midi":51,"time":378.933280499987,"velocity":0.3858267716535433,"duration":0.09070130416665734},{"name":"G#2","midi":44,"time":379.024743999987,"velocity":0.3858267716535433,"duration":0.09070130416665734},{"name":"D#3","midi":51,"time":379.11620749998696,"velocity":0.3858267716535433,"duration":0.09070130416665734},{"name":"C#2","midi":37,"time":379.20767099998693,"velocity":0.3858267716535433,"duration":0.09070130416665734},{"name":"C#3","midi":49,"time":379.2991344999869,"velocity":0.3858267716535433,"duration":0.273628304166607},{"name":"G#2","midi":44,"time":379.3905979999869,"velocity":0.3858267716535433,"duration":0.09070130416665734},{"name":"C#3","midi":49,"time":379.48206149998686,"velocity":0.3858267716535433,"duration":0.273628304166607},{"name":"C#2","midi":37,"time":379.57352499998683,"velocity":0.3858267716535433,"duration":0.09070130416665734},{"name":"C#3","midi":49,"time":379.6649884999868,"velocity":0.3858267716535433,"duration":0.273628304166607},{"name":"G#2","midi":44,"time":379.7564519999868,"velocity":0.3858267716535433,"duration":0.09070130416665734},{"name":"C#3","midi":49,"time":379.84791549998675,"velocity":0.3858267716535433,"duration":0.273628304166607},{"name":"C#2","midi":37,"time":379.93937899998673,"velocity":0.3858267716535433,"duration":0.09070130416665734},{"name":"C#3","midi":49,"time":380.0308424999867,"velocity":0.3858267716535433,"duration":0.273628304166607},{"name":"G#2","midi":44,"time":380.1223059999867,"velocity":0.3858267716535433,"duration":0.09070130416665734},{"name":"C#3","midi":49,"time":380.21376949998665,"velocity":0.3858267716535433,"duration":0.273628304166607},{"name":"C#2","midi":37,"time":380.30523299998663,"velocity":0.3858267716535433,"duration":0.09070130416665734},{"name":"C#3","midi":49,"time":380.3966964999866,"velocity":0.3858267716535433,"duration":0.273628304166607},{"name":"G#2","midi":44,"time":380.4881599999866,"velocity":0.3858267716535433,"duration":0.09070130416665734},{"name":"C#3","midi":49,"time":380.57962349998655,"velocity":0.3858267716535433,"duration":1.7370443041662043},{"name":"C#2","midi":37,"time":380.6710869999865,"velocity":0.3858267716535433,"duration":0.09070130416665734},{"name":"D#3","midi":51,"time":380.7625504999865,"velocity":0.3858267716535433,"duration":0.09070130416665734},{"name":"G#2","midi":44,"time":380.8540139999865,"velocity":0.3858267716535433,"duration":0.09070130416665734},{"name":"D#3","midi":51,"time":380.94547749998645,"velocity":0.3858267716535433,"duration":0.09070130416665734},{"name":"C#2","midi":37,"time":381.0369409999864,"velocity":0.3858267716535433,"duration":0.09070130416665734},{"name":"D#3","midi":51,"time":381.1284044999864,"velocity":0.3858267716535433,"duration":0.09070130416665734},{"name":"G#2","midi":44,"time":381.2198679999864,"velocity":0.3858267716535433,"duration":0.09070130416665734},{"name":"D#3","midi":51,"time":381.31133149998635,"velocity":0.3858267716535433,"duration":0.09070130416665734},{"name":"C#2","midi":37,"time":381.4027949999863,"velocity":0.3858267716535433,"duration":0.09070130416665734},{"name":"D#3","midi":51,"time":381.4942584999863,"velocity":0.3858267716535433,"duration":0.09070130416665734},{"name":"G#2","midi":44,"time":381.5857219999863,"velocity":0.3858267716535433,"duration":0.09070130416665734},{"name":"D#3","midi":51,"time":381.67718549998625,"velocity":0.3858267716535433,"duration":0.09070130416665734},{"name":"C#2","midi":37,"time":381.7686489999862,"velocity":0.3858267716535433,"duration":0.09070130416665734},{"name":"D#3","midi":51,"time":381.8601124999862,"velocity":0.3858267716535433,"duration":0.09070130416665734},{"name":"G#2","midi":44,"time":381.9515759999862,"velocity":0.3858267716535433,"duration":0.09070130416665734},{"name":"D#3","midi":51,"time":382.04303949998615,"velocity":0.3858267716535433,"duration":0.09070130416665734},{"name":"C#2","midi":37,"time":382.1345029999861,"velocity":0.3858267716535433,"duration":0.09070130416665734},{"name":"C#3","midi":49,"time":382.2259664999861,"velocity":0.3937007874015748,"duration":0.273628304166607},{"name":"G#2","midi":44,"time":382.3174299999861,"velocity":0.4094488188976378,"duration":0.09070130416665734},{"name":"C#3","midi":49,"time":382.40889349998605,"velocity":0.4251968503937008,"duration":0.273628304166607},{"name":"C#2","midi":37,"time":382.500356999986,"velocity":0.4409448818897638,"duration":0.09070130416665734},{"name":"C#3","midi":49,"time":382.591820499986,"velocity":0.4566929133858268,"duration":0.273628304166607},{"name":"G#2","midi":44,"time":382.683283999986,"velocity":0.47244094488188976,"duration":0.09070130416665734},{"name":"C#3","midi":49,"time":382.77474749998595,"velocity":0.4881889763779528,"duration":1.0053363041664056},{"name":"C#2","midi":37,"time":382.8662109999859,"velocity":0.5039370078740157,"duration":0.09070130416665734},{"name":"D#3","midi":51,"time":382.9576744999859,"velocity":0.5196850393700787,"duration":0.09070130416665734},{"name":"G#2","midi":44,"time":383.0491379999859,"velocity":0.5354330708661418,"duration":0.09070130416665734},{"name":"D#3","midi":51,"time":383.14060149998585,"velocity":0.5511811023622047,"duration":0.09070130416665734},{"name":"C#2","midi":37,"time":383.2320649999858,"velocity":0.5669291338582677,"duration":0.09070130416665734},{"name":"D#3","midi":51,"time":383.3235284999858,"velocity":0.5826771653543307,"duration":0.09070130416665734},{"name":"G#2","midi":44,"time":383.4149919999858,"velocity":0.5984251968503937,"duration":0.09070130416665734},{"name":"D#3","midi":51,"time":383.50645549998575,"velocity":0.6141732283464567,"duration":0.09070130416665734},{"name":"C#2","midi":37,"time":383.5979189999857,"velocity":0.6299212598425197,"duration":0.09070130416665734},{"name":"C#3","midi":49,"time":383.6893824999857,"velocity":0.6456692913385826,"duration":0.273628304166607},{"name":"G#2","midi":44,"time":383.7808459999857,"velocity":0.6614173228346457,"duration":0.09070130416665734},{"name":"C#3","midi":49,"time":383.87230949998565,"velocity":0.6771653543307087,"duration":0.273628304166607},{"name":"C#2","midi":37,"time":383.9637729999856,"velocity":0.6929133858267716,"duration":0.09070130416665734},{"name":"C#3","midi":49,"time":384.0552364999856,"velocity":0.7086614173228346,"duration":0.273628304166607},{"name":"G#2","midi":44,"time":384.1466999999856,"velocity":0.7244094488188977,"duration":0.09070130416665734},{"name":"C#3","midi":49,"time":384.23816349998555,"velocity":0.7401574803149606,"duration":0.9138728041664308},{"name":"C#2","midi":37,"time":384.3296269999855,"velocity":0.7559055118110236,"duration":0.09070130416665734},{"name":"D#3","midi":51,"time":384.4210904999855,"velocity":0.7559055118110236,"duration":0.09070130416665734},{"name":"G#2","midi":44,"time":384.51255399998547,"velocity":0.7559055118110236,"duration":0.09070130416665734},{"name":"D#3","midi":51,"time":384.60401749998545,"velocity":0.7559055118110236,"duration":0.09070130416665734},{"name":"C#2","midi":37,"time":384.6954809999854,"velocity":0.7559055118110236,"duration":0.09070130416665734},{"name":"D#3","midi":51,"time":384.7869444999854,"velocity":0.7559055118110236,"duration":0.09070130416665734},{"name":"G#2","midi":44,"time":384.87840799998537,"velocity":0.7559055118110236,"duration":0.09070130416665734},{"name":"D#3","midi":51,"time":384.96987149998535,"velocity":0.7559055118110236,"duration":0.09070130416665734},{"name":"C#2","midi":37,"time":385.0613349999853,"velocity":0.7559055118110236,"duration":0.09070130416665734},{"name":"G#2","midi":44,"time":385.0613349999853,"velocity":0.7559055118110236,"duration":0.09070130416665734},{"name":"C#3","midi":49,"time":385.0613349999853,"velocity":0.7559055118110236,"duration":3.2919238041657763},{"name":"E3","midi":52,"time":385.1527984999853,"velocity":0.7559055118110236,"duration":0.09070130416665734},{"name":"G#3","midi":56,"time":385.24426199998527,"velocity":0.7559055118110236,"duration":0.09070130416665734},{"name":"C#4","midi":61,"time":385.33572549998524,"velocity":0.7559055118110236,"duration":0.09070130416665734},{"name":"E4","midi":64,"time":385.4271889999852,"velocity":0.7559055118110236,"duration":0.09070130416665734},{"name":"G#3","midi":56,"time":385.5186524999852,"velocity":0.7559055118110236,"duration":0.09070130416665734},{"name":"C#4","midi":61,"time":385.61011599998517,"velocity":0.7559055118110236,"duration":0.09070130416665734},{"name":"E4","midi":64,"time":385.70157949998514,"velocity":0.7559055118110236,"duration":0.09070130416665734},{"name":"G#4","midi":68,"time":385.7930429999851,"velocity":0.7559055118110236,"duration":0.09070130416665734},{"name":"C#4","midi":61,"time":385.8845064999851,"velocity":0.7559055118110236,"duration":0.09070130416665734},{"name":"E4","midi":64,"time":385.97596999998507,"velocity":0.7559055118110236,"duration":0.09070130416665734},{"name":"G#4","midi":68,"time":386.06743349998504,"velocity":0.7559055118110236,"duration":0.09070130416665734},{"name":"C#5","midi":73,"time":386.158896999985,"velocity":0.7559055118110236,"duration":0.09070130416665734},{"name":"E4","midi":64,"time":386.250360499985,"velocity":0.7559055118110236,"duration":0.09070130416665734},{"name":"G#4","midi":68,"time":386.34182399998497,"velocity":0.7559055118110236,"duration":0.09070130416665734},{"name":"C#5","midi":73,"time":386.43328749998494,"velocity":0.7559055118110236,"duration":0.09070130416665734},{"name":"E5","midi":76,"time":386.5247509999849,"velocity":0.7559055118110236,"duration":0.09070130416665734},{"name":"C#5","midi":73,"time":386.6162144999849,"velocity":0.7559055118110236,"duration":0.09070130416665734},{"name":"G#4","midi":68,"time":386.70767799998487,"velocity":0.7559055118110236,"duration":0.09070130416665734},{"name":"E4","midi":64,"time":386.79914149998484,"velocity":0.7559055118110236,"duration":0.09070130416665734},{"name":"C#5","midi":73,"time":386.8906049999848,"velocity":0.7559055118110236,"duration":0.09070130416665734},{"name":"G#4","midi":68,"time":386.9820684999848,"velocity":0.7559055118110236,"duration":0.09070130416665734},{"name":"E4","midi":64,"time":387.07353199998477,"velocity":0.7559055118110236,"duration":0.09070130416665734},{"name":"C#4","midi":61,"time":387.16499549998474,"velocity":0.7559055118110236,"duration":0.09070130416665734},{"name":"G#4","midi":68,"time":387.2564589999847,"velocity":0.7559055118110236,"duration":0.09070130416665734},{"name":"E4","midi":64,"time":387.3479224999847,"velocity":0.7559055118110236,"duration":0.09070130416665734},{"name":"C#4","midi":61,"time":387.43938599998467,"velocity":0.7559055118110236,"duration":0.09070130416665734},{"name":"G#3","midi":56,"time":387.53084949998464,"velocity":0.7559055118110236,"duration":0.09070130416665734},{"name":"E4","midi":64,"time":387.6223129999846,"velocity":0.7559055118110236,"duration":0.09070130416665734},{"name":"C#4","midi":61,"time":387.7137764999846,"velocity":0.7559055118110236,"duration":0.09070130416665734},{"name":"G#3","midi":56,"time":387.80523999998456,"velocity":0.7559055118110236,"duration":0.09070130416665734},{"name":"E3","midi":52,"time":387.89670349998454,"velocity":0.7559055118110236,"duration":0.09070130416665734},{"name":"C#4","midi":61,"time":387.9881669999845,"velocity":0.7559055118110236,"duration":0.09070130416665734},{"name":"G#3","midi":56,"time":388.0796304999845,"velocity":0.7559055118110236,"duration":0.09070130416665734},{"name":"E3","midi":52,"time":388.17109399998446,"velocity":0.7559055118110236,"duration":0.09070130416665734},{"name":"C#3","midi":49,"time":388.26255749998444,"velocity":0.7559055118110236,"duration":0.3650918041665818},{"name":"G#3","midi":56,"time":388.3540209999844,"velocity":0.7559055118110236,"duration":0.09070130416665734},{"name":"E3","midi":52,"time":388.4454844999844,"velocity":0.7559055118110236,"duration":0.09070130416665734},{"name":"C#3","midi":49,"time":388.53694799998436,"velocity":0.7559055118110236,"duration":0.3650918041665818},{"name":"G#2","midi":44,"time":388.62841149998434,"velocity":0.7559055118110236,"duration":0.09070130416665734},{"name":"E3","midi":52,"time":388.7198749999843,"velocity":0.7559055118110236,"duration":0.09070130416665734},{"name":"C#3","midi":49,"time":388.8113384999843,"velocity":0.7559055118110236,"duration":0.3650918041665818},{"name":"G#2","midi":44,"time":388.90280199998426,"velocity":0.7559055118110236,"duration":0.09070130416665734},{"name":"E2","midi":40,"time":388.99426549998424,"velocity":0.7559055118110236,"duration":0.09070130416665734},{"name":"C#3","midi":49,"time":389.0857289999842,"velocity":0.7559055118110236,"duration":1.2797268041665575},{"name":"G#2","midi":44,"time":389.1771924999842,"velocity":0.7559055118110236,"duration":0.09070130416665734},{"name":"E2","midi":40,"time":389.26865599998416,"velocity":0.7559055118110236,"duration":0.09070130416665734},{"name":"G#2","midi":44,"time":389.36011949998414,"velocity":0.7559055118110236,"duration":0.09070130416665734},{"name":"C#2","midi":37,"time":389.4515829999841,"velocity":0.7559055118110236,"duration":0.36509180416663867},{"name":"C#2","midi":37,"time":390.1832909999841,"velocity":0.8818897637795275,"duration":0.182164804166689},{"name":"E2","midi":40,"time":390.1832909999841,"velocity":0.8818897637795275,"duration":0.182164804166689},{"name":"G#2","midi":44,"time":390.1832909999841,"velocity":0.8818897637795275,"duration":0.182164804166689},{"name":"C#3","midi":49,"time":390.1832909999841,"velocity":0.8818897637795275,"duration":0.913872804166715},{"name":"C#2","midi":37,"time":390.9149989999841,"velocity":0.8818897637795275,"duration":0.182164804166689},{"name":"E2","midi":40,"time":390.9149989999841,"velocity":0.8818897637795275,"duration":0.182164804166689},{"name":"G#2","midi":44,"time":390.9149989999841,"velocity":0.8818897637795275,"duration":0.182164804166689},{"name":"C#3","midi":49,"time":390.9149989999841,"velocity":0.8818897637795275,"duration":0}]}]}