{"header":{"title":"DDU-DU DDU-DU","artist":"BLACKPINK","source":"https://musescore.com/user/131257/scores/5170855","bpm":120,"duration":236.47395833333334},"tracks":[{"instrument_number":0,"notes":[{"duration":0.4739583333333333,"durationTicks":455,"midi":76,"name":"E5","ticks":0,"time":0,"velocity":0.6299212598425197},{"duration":0.23645833333333333,"durationTicks":227,"midi":76,"name":"E5","ticks":480,"time":0.5,"velocity":0.6299212598425197},{"duration":0.23645833333333333,"durationTicks":227,"midi":76,"name":"E5","ticks":720,"time":0.75,"velocity":0.6299212598425197},{"duration":0.7114583333333333,"durationTicks":683,"midi":79,"name":"G5","ticks":960,"time":1,"velocity":0.6299212598425197},{"duration":0.23645833333333344,"durationTicks":227,"midi":78,"name":"F#5","ticks":1680,"time":1.75,"velocity":0.6299212598425197},{"duration":0.23645833333333321,"durationTicks":227,"midi":83,"name":"B5","ticks":1920,"time":2,"velocity":0.6299212598425197},{"duration":0.23645833333333321,"durationTicks":227,"midi":82,"name":"A#5","ticks":2160,"time":2.25,"velocity":0.6299212598425197},{"duration":0.23645833333333321,"durationTicks":227,"midi":83,"name":"B5","ticks":2400,"time":2.5,"velocity":0.6299212598425197},{"duration":0.23645833333333321,"durationTicks":227,"midi":79,"name":"G5","ticks":2640,"time":2.75,"velocity":0.6299212598425197},{"duration":0.23645833333333321,"durationTicks":227,"midi":76,"name":"E5","ticks":2880,"time":3,"velocity":0.6299212598425197},{"duration":0.47395833333333304,"durationTicks":455,"midi":76,"name":"E5","ticks":3840,"time":4,"velocity":0.6299212598425197},{"duration":0.23645833333333321,"durationTicks":227,"midi":76,"name":"E5","ticks":4320,"time":4.5,"velocity":0.6299212598425197},{"duration":0.23645833333333321,"durationTicks":227,"midi":76,"name":"E5","ticks":4560,"time":4.75,"velocity":0.6299212598425197},{"duration":0.7114583333333337,"durationTicks":683,"midi":79,"name":"G5","ticks":4800,"time":5,"velocity":0.6299212598425197},{"duration":0.23645833333333321,"durationTicks":227,"midi":78,"name":"F#5","ticks":5520,"time":5.75,"velocity":0.6299212598425197},{"duration":0.23645833333333321,"durationTicks":227,"midi":83,"name":"B5","ticks":5760,"time":6,"velocity":0.6299212598425197},{"duration":0.23645833333333321,"durationTicks":227,"midi":82,"name":"A#5","ticks":6000,"time":6.25,"velocity":0.6299212598425197},{"duration":0.23645833333333321,"durationTicks":227,"midi":83,"name":"B5","ticks":6240,"time":6.5,"velocity":0.6299212598425197},{"duration":0.23645833333333321,"durationTicks":227,"midi":79,"name":"G5","ticks":6480,"time":6.75,"velocity":0.6299212598425197},{"duration":0.23645833333333321,"durationTicks":227,"midi":76,"name":"E5","ticks":6720,"time":7,"velocity":0.6299212598425197}]},{"instrument_number":0,"notes":[{"duration":0.4739583333333333,"durationTicks":455,"midi":76,"name":"E5","ticks":0,"time":0,"velocity":0.6299212598425197},{"duration":0.23645833333333333,"durationTicks":227,"midi":76,"name":"E5","ticks":480,"time":0.5,"velocity":0.6299212598425197},{"duration":0.23645833333333333,"durationTicks":227,"midi":76,"name":"E5","ticks":720,"time":0.75,"velocity":0.6299212598425197},{"duration":0.7114583333333333,"durationTicks":683,"midi":79,"name":"G5","ticks":960,"time":1,"velocity":0.6299212598425197},{"duration":0.23645833333333344,"durationTicks":227,"midi":78,"name":"F#5","ticks":1680,"time":1.75,"velocity":0.6299212598425197},{"duration":0.23645833333333321,"durationTicks":227,"midi":83,"name":"B5","ticks":1920,"time":2,"velocity":0.6299212598425197},{"duration":0.23645833333333321,"durationTicks":227,"midi":82,"name":"A#5","ticks":2160,"time":2.25,"velocity":0.6299212598425197},{"duration":0.23645833333333321,"durationTicks":227,"midi":83,"name":"B5","ticks":2400,"time":2.5,"velocity":0.6299212598425197},{"duration":0.23645833333333321,"durationTicks":227,"midi":79,"name":"G5","ticks":2640,"time":2.75,"velocity":0.6299212598425197},{"duration":0.23645833333333321,"durationTicks":227,"midi":76,"name":"E5","ticks":2880,"time":3,"velocity":0.6299212598425197},{"duration":0.47395833333333304,"durationTicks":455,"midi":76,"name":"E5","ticks":3840,"time":4,"velocity":0.6299212598425197},{"duration":0.23645833333333321,"durationTicks":227,"midi":76,"name":"E5","ticks":4320,"time":4.5,"velocity":0.6299212598425197},{"duration":0.23645833333333321,"durationTicks":227,"midi":76,"name":"E5","ticks":4560,"time":4.75,"velocity":0.6299212598425197},{"duration":0.7114583333333337,"durationTicks":683,"midi":79,"name":"G5","ticks":4800,"time":5,"velocity":0.6299212598425197},{"duration":0.23645833333333321,"durationTicks":227,"midi":78,"name":"F#5","ticks":5520,"time":5.75,"velocity":0.6299212598425197},{"duration":0.23645833333333321,"durationTicks":227,"midi":83,"name":"B5","ticks":5760,"time":6,"velocity":0.6299212598425197},{"duration":0.23645833333333321,"durationTicks":227,"midi":82,"name":"A#5","ticks":6000,"time":6.25,"velocity":0.6299212598425197},{"duration":0.23645833333333321,"durationTicks":227,"midi":83,"name":"B5","ticks":6240,"time":6.5,"velocity":0.6299212598425197},{"duration":0.23645833333333321,"durationTicks":227,"midi":79,"name":"G5","ticks":6480,"time":6.75,"velocity":0.6299212598425197},{"duration":0.23645833333333321,"durationTicks":227,"midi":76,"name":"E5","ticks":6720,"time":7,"velocity":0.6299212598425197},{"duration":0.23645833333333321,"durationTicks":227,"midi":62,"name":"D4","ticks":6960,"time":7.25,"velocity":0.6299212598425197},{"duration":0.23645833333333321,"durationTicks":227,"midi":74,"name":"D5","ticks":6960,"time":7.25,"velocity":0.6299212598425197},{"duration":0.23645833333333321,"durationTicks":227,"midi":79,"name":"G5","ticks":6960,"time":7.25,"velocity":0.6299212598425197},{"duration":0.47395833333333304,"durationTicks":455,"midi":66,"name":"F#4","ticks":7200,"time":7.5,"velocity":0.6299212598425197},{"duration":0.47395833333333304,"durationTicks":455,"midi":74,"name":"D5","ticks":7200,"time":7.5,"velocity":0.6299212598425197},{"duration":0.47395833333333304,"durationTicks":455,"midi":78,"name":"F#5","ticks":7200,"time":7.5,"velocity":0.6299212598425197},{"duration":0.4739583333333339,"durationTicks":455,"midi":76,"name":"E5","ticks":7680,"time":8,"velocity":0.6299212598425197},{"duration":0.23645833333333321,"durationTicks":227,"midi":76,"name":"E5","ticks":8160,"time":8.5,"velocity":0.6299212598425197},{"duration":0.23645833333333321,"durationTicks":227,"midi":76,"name":"E5","ticks":8400,"time":8.75,"velocity":0.6299212598425197},{"duration":0.7114583333333329,"durationTicks":683,"midi":79,"name":"G5","ticks":8640,"time":9,"velocity":0.6299212598425197},{"duration":0.11770833333333286,"durationTicks":113,"midi":79,"name":"G5","ticks":9360,"time":9.75,"velocity":0.6299212598425197},{"duration":0.11770833333333286,"durationTicks":113,"midi":81,"name":"A5","ticks":9480,"time":9.875,"velocity":0.6299212598425197},{"duration":0.23645833333333321,"durationTicks":227,"midi":83,"name":"B5","ticks":9600,"time":10,"velocity":0.6299212598425197},{"duration":0.23645833333333321,"durationTicks":227,"midi":82,"name":"A#5","ticks":9840,"time":10.25,"velocity":0.6299212598425197},{"duration":0.23645833333333321,"durationTicks":227,"midi":83,"name":"B5","ticks":10080,"time":10.5,"velocity":0.6299212598425197},{"duration":0.23645833333333321,"durationTicks":227,"midi":79,"name":"G5","ticks":10320,"time":10.75,"velocity":0.6299212598425197},{"duration":0.23645833333333321,"durationTicks":227,"midi":76,"name":"E5","ticks":10560,"time":11,"velocity":0.6299212598425197},{"duration":0.4739583333333339,"durationTicks":455,"midi":76,"name":"E5","ticks":11520,"time":12,"velocity":0.6299212598425197},{"duration":0.23645833333333321,"durationTicks":227,"midi":76,"name":"E5","ticks":12000,"time":12.5,"velocity":0.6299212598425197},{"duration":0.23645833333333321,"durationTicks":227,"midi":76,"name":"E5","ticks":12240,"time":12.75,"velocity":0.6299212598425197},{"duration":0.7114583333333329,"durationTicks":683,"midi":79,"name":"G5","ticks":12480,"time":13,"velocity":0.6299212598425197},{"duration":0.23645833333333321,"durationTicks":227,"midi":78,"name":"F#5","ticks":13200,"time":13.75,"velocity":0.6299212598425197},{"duration":0.23645833333333321,"durationTicks":227,"midi":83,"name":"B5","ticks":13440,"time":14,"velocity":0.6299212598425197},{"duration":0.23645833333333321,"durationTicks":227,"midi":82,"name":"A#5","ticks":13680,"time":14.25,"velocity":0.6299212598425197},{"duration":0.23645833333333321,"durationTicks":227,"midi":83,"name":"B5","ticks":13920,"time":14.5,"velocity":0.6299212598425197},{"duration":0.23645833333333321,"durationTicks":227,"midi":79,"name":"G5","ticks":14160,"time":14.75,"velocity":0.6299212598425197},{"duration":0.23645833333333321,"durationTicks":227,"midi":76,"name":"E5","ticks":14400,"time":15,"velocity":0.6299212598425197},{"duration":0.47395833333333215,"durationTicks":455,"midi":76,"name":"E5","ticks":15360,"time":16,"velocity":0.6299212598425197},{"duration":0.236458333333335,"durationTicks":227,"midi":76,"name":"E5","ticks":15840,"time":16.5,"velocity":0.6299212598425197},{"duration":0.236458333333335,"durationTicks":227,"midi":76,"name":"E5","ticks":16080,"time":16.75,"velocity":0.6299212598425197},{"duration":0.7114583333333329,"durationTicks":683,"midi":79,"name":"G5","ticks":16320,"time":17,"velocity":0.6299212598425197},{"duration":0.11770833333333286,"durationTicks":113,"midi":79,"name":"G5","ticks":17040,"time":17.75,"velocity":0.6299212598425197},{"duration":0.11770833333333286,"durationTicks":113,"midi":81,"name":"A5","ticks":17160,"time":17.875,"velocity":0.6299212598425197},{"duration":0.236458333333335,"durationTicks":227,"midi":83,"name":"B5","ticks":17280,"time":18,"velocity":0.6299212598425197},{"duration":0.236458333333335,"durationTicks":227,"midi":82,"name":"A#5","ticks":17520,"time":18.25,"velocity":0.6299212598425197},{"duration":0.236458333333335,"durationTicks":227,"midi":83,"name":"B5","ticks":17760,"time":18.5,"velocity":0.6299212598425197},{"duration":0.236458333333335,"durationTicks":227,"midi":79,"name":"G5","ticks":18000,"time":18.75,"velocity":0.6299212598425197},{"duration":0.236458333333335,"durationTicks":227,"midi":76,"name":"E5","ticks":18240,"time":19,"velocity":0.6299212598425197},{"duration":0.47395833333333215,"durationTicks":455,"midi":76,"name":"E5","ticks":19200,"time":20,"velocity":0.6299212598425197},{"duration":0.236458333333335,"durationTicks":227,"midi":76,"name":"E5","ticks":19680,"time":20.5,"velocity":0.6299212598425197},{"duration":0.236458333333335,"durationTicks":227,"midi":76,"name":"E5","ticks":19920,"time":20.75,"velocity":0.6299212598425197},{"duration":0.7114583333333329,"durationTicks":683,"midi":79,"name":"G5","ticks":20160,"time":21,"velocity":0.6299212598425197},{"duration":0.236458333333335,"durationTicks":227,"midi":81,"name":"A5","ticks":20880,"time":21.75,"velocity":0.6299212598425197},{"duration":0.236458333333335,"durationTicks":227,"midi":83,"name":"B5","ticks":21120,"time":22,"velocity":0.6299212598425197},{"duration":0.236458333333335,"durationTicks":227,"midi":82,"name":"A#5","ticks":21360,"time":22.25,"velocity":0.6299212598425197},{"duration":0.236458333333335,"durationTicks":227,"midi":83,"name":"B5","ticks":21600,"time":22.5,"velocity":0.6299212598425197},{"duration":0.236458333333335,"durationTicks":227,"midi":79,"name":"G5","ticks":21840,"time":22.75,"velocity":0.6299212598425197},{"duration":0.236458333333335,"durationTicks":227,"midi":76,"name":"E5","ticks":22080,"time":23,"velocity":0.6299212598425197},{"duration":0.236458333333335,"durationTicks":227,"midi":76,"name":"E5","ticks":23520,"time":24.5,"velocity":0.6299212598425197},{"duration":0.236458333333335,"durationTicks":227,"midi":76,"name":"E5","ticks":23760,"time":24.75,"velocity":0.6299212598425197},{"duration":0.236458333333335,"durationTicks":227,"midi":71,"name":"B4","ticks":24000,"time":25,"velocity":0.6299212598425197},{"duration":0.236458333333335,"durationTicks":227,"midi":71,"name":"B4","ticks":24240,"time":25.25,"velocity":0.6299212598425197},{"duration":0.236458333333335,"durationTicks":227,"midi":71,"name":"B4","ticks":24480,"time":25.5,"velocity":0.6299212598425197},{"duration":0.236458333333335,"durationTicks":227,"midi":71,"name":"B4","ticks":24720,"time":25.75,"velocity":0.6299212598425197},{"duration":0.236458333333335,"durationTicks":227,"midi":64,"name":"E4","ticks":24960,"time":26,"velocity":0.6299212598425197},{"duration":0.236458333333335,"durationTicks":227,"midi":64,"name":"E4","ticks":25200,"time":26.25,"velocity":0.6299212598425197},{"duration":0.236458333333335,"durationTicks":227,"midi":71,"name":"B4","ticks":25440,"time":26.5,"velocity":0.6299212598425197},{"duration":0.236458333333335,"durationTicks":227,"midi":71,"name":"B4","ticks":25680,"time":26.75,"velocity":0.6299212598425197},{"duration":0.236458333333335,"durationTicks":227,"midi":72,"name":"C5","ticks":25920,"time":27,"velocity":0.6299212598425197},{"duration":0.236458333333335,"durationTicks":227,"midi":71,"name":"B4","ticks":26160,"time":27.25,"velocity":0.6299212598425197},{"duration":0.236458333333335,"durationTicks":227,"midi":71,"name":"B4","ticks":26640,"time":27.75,"velocity":0.6299212598425197},{"duration":0.236458333333335,"durationTicks":227,"midi":76,"name":"E5","ticks":26880,"time":28,"velocity":0.6299212598425197},{"duration":0.236458333333335,"durationTicks":227,"midi":76,"name":"E5","ticks":27120,"time":28.25,"velocity":0.6299212598425197},{"duration":0.236458333333335,"durationTicks":227,"midi":71,"name":"B4","ticks":27360,"time":28.5,"velocity":0.6299212598425197},{"duration":0.236458333333335,"durationTicks":227,"midi":71,"name":"B4","ticks":27600,"time":28.75,"velocity":0.6299212598425197},{"duration":0.236458333333335,"durationTicks":227,"midi":67,"name":"G4","ticks":27840,"time":29,"velocity":0.6299212598425197},{"duration":0.236458333333335,"durationTicks":227,"midi":67,"name":"G4","ticks":28080,"time":29.25,"velocity":0.6299212598425197},{"duration":0.236458333333335,"durationTicks":227,"midi":71,"name":"B4","ticks":28320,"time":29.5,"velocity":0.6299212598425197},{"duration":0.236458333333335,"durationTicks":227,"midi":71,"name":"B4","ticks":28560,"time":29.75,"velocity":0.6299212598425197},{"duration":0.236458333333335,"durationTicks":227,"midi":64,"name":"E4","ticks":28800,"time":30,"velocity":0.6299212598425197},{"duration":0.236458333333335,"durationTicks":227,"midi":64,"name":"E4","ticks":29040,"time":30.25,"velocity":0.6299212598425197},{"duration":0.236458333333335,"durationTicks":227,"midi":71,"name":"B4","ticks":29280,"time":30.5,"velocity":0.6299212598425197},{"duration":0.236458333333335,"durationTicks":227,"midi":71,"name":"B4","ticks":29520,"time":30.75,"velocity":0.6299212598425197},{"duration":0.236458333333335,"durationTicks":227,"midi":72,"name":"C5","ticks":29760,"time":31,"velocity":0.6299212598425197},{"duration":0.236458333333335,"durationTicks":227,"midi":71,"name":"B4","ticks":30000,"time":31.25,"velocity":0.6299212598425197},{"duration":0.23645833333333144,"durationTicks":227,"midi":76,"name":"E5","ticks":30720,"time":32,"velocity":0.6299212598425197},{"duration":0.23645833333333144,"durationTicks":227,"midi":76,"name":"E5","ticks":30960,"time":32.25,"velocity":0.6299212598425197},{"duration":0.23645833333333144,"durationTicks":227,"midi":71,"name":"B4","ticks":31200,"time":32.5,"velocity":0.6299212598425197},{"duration":0.23645833333333144,"durationTicks":227,"midi":71,"name":"B4","ticks":31440,"time":32.75,"velocity":0.6299212598425197},{"duration":0.23645833333333144,"durationTicks":227,"midi":67,"name":"G4","ticks":31680,"time":33,"velocity":0.6299212598425197},{"duration":0.23645833333333144,"durationTicks":227,"midi":67,"name":"G4","ticks":31920,"time":33.25,"velocity":0.6299212598425197},{"duration":0.23645833333333144,"durationTicks":227,"midi":71,"name":"B4","ticks":32160,"time":33.5,"velocity":0.6299212598425197},{"duration":0.23645833333333144,"durationTicks":227,"midi":71,"name":"B4","ticks":32400,"time":33.75,"velocity":0.6299212598425197},{"duration":0.23645833333333144,"durationTicks":227,"midi":64,"name":"E4","ticks":32640,"time":34,"velocity":0.6299212598425197},{"duration":0.23645833333333144,"durationTicks":227,"midi":64,"name":"E4","ticks":32880,"time":34.25,"velocity":0.6299212598425197},{"duration":0.23645833333333144,"durationTicks":227,"midi":71,"name":"B4","ticks":33120,"time":34.5,"velocity":0.6299212598425197},{"duration":0.23645833333333144,"durationTicks":227,"midi":71,"name":"B4","ticks":33360,"time":34.75,"velocity":0.6299212598425197},{"duration":0.23645833333333144,"durationTicks":227,"midi":72,"name":"C5","ticks":33600,"time":35,"velocity":0.6299212598425197},{"duration":0.23645833333333144,"durationTicks":227,"midi":71,"name":"B4","ticks":33840,"time":35.25,"velocity":0.6299212598425197},{"duration":0.4739583333333357,"durationTicks":455,"midi":76,"name":"E5","ticks":34560,"time":36,"velocity":0.6299212598425197},{"duration":0.23645833333333144,"durationTicks":227,"midi":71,"name":"B4","ticks":35040,"time":36.5,"velocity":0.6299212598425197},{"duration":0.23645833333333144,"durationTicks":227,"midi":71,"name":"B4","ticks":35280,"time":36.75,"velocity":0.6299212598425197},{"duration":0.4739583333333357,"durationTicks":455,"midi":67,"name":"G4","ticks":35520,"time":37,"velocity":0.6299212598425197},{"duration":0.23645833333333144,"durationTicks":227,"midi":71,"name":"B4","ticks":36000,"time":37.5,"velocity":0.6299212598425197},{"duration":0.23645833333333144,"durationTicks":227,"midi":71,"name":"B4","ticks":36240,"time":37.75,"velocity":0.6299212598425197},{"duration":0.23645833333333144,"durationTicks":227,"midi":64,"name":"E4","ticks":36480,"time":38,"velocity":0.6299212598425197},{"duration":0.23645833333333144,"durationTicks":227,"midi":64,"name":"E4","ticks":36720,"time":38.25,"velocity":0.6299212598425197},{"duration":0.23645833333333144,"durationTicks":227,"midi":71,"name":"B4","ticks":36960,"time":38.5,"velocity":0.6299212598425197},{"duration":0.23645833333333144,"durationTicks":227,"midi":71,"name":"B4","ticks":37200,"time":38.75,"velocity":0.6299212598425197},{"duration":0.23645833333333144,"durationTicks":227,"midi":72,"name":"C5","ticks":37440,"time":39,"velocity":0.6299212598425197},{"duration":0.23645833333333144,"durationTicks":227,"midi":71,"name":"B4","ticks":37680,"time":39.25,"velocity":0.6299212598425197},{"duration":0.15729166666666572,"durationTicks":151,"midi":67,"name":"G4","ticks":38880,"time":40.5,"velocity":0.6299212598425197},{"duration":0.15729166666666572,"durationTicks":151,"midi":67,"name":"G4","ticks":39040,"time":40.666666666666664,"velocity":0.6299212598425197},{"duration":0.15729166666666572,"durationTicks":151,"midi":67,"name":"G4","ticks":39200,"time":40.833333333333336,"velocity":0.6299212598425197},{"duration":0.15729166666666572,"durationTicks":151,"midi":67,"name":"G4","ticks":39360,"time":41,"velocity":0.6299212598425197},{"duration":0.15729166666666572,"durationTicks":151,"midi":66,"name":"F#4","ticks":39520,"time":41.166666666666664,"velocity":0.6299212598425197},{"duration":0.15729166666666572,"durationTicks":151,"midi":64,"name":"E4","ticks":39680,"time":41.333333333333336,"velocity":0.6299212598425197},{"duration":0.23645833333333144,"durationTicks":227,"midi":67,"name":"G4","ticks":39840,"time":41.5,"velocity":0.6299212598425197},{"duration":0.15729166666666572,"durationTicks":151,"midi":67,"name":"G4","ticks":40800,"time":42.5,"velocity":0.6299212598425197},{"duration":0.15729166666666572,"durationTicks":151,"midi":67,"name":"G4","ticks":40960,"time":42.666666666666664,"velocity":0.6299212598425197},{"duration":0.15729166666666572,"durationTicks":151,"midi":67,"name":"G4","ticks":41120,"time":42.833333333333336,"velocity":0.6299212598425197},{"duration":0.15729166666666572,"durationTicks":151,"midi":67,"name":"G4","ticks":41280,"time":43,"velocity":0.6299212598425197},{"duration":0.15729166666666572,"durationTicks":151,"midi":66,"name":"F#4","ticks":41440,"time":43.166666666666664,"velocity":0.6299212598425197},{"duration":0.15729166666666572,"durationTicks":151,"midi":64,"name":"E4","ticks":41600,"time":43.333333333333336,"velocity":0.6299212598425197},{"duration":0.23645833333333144,"durationTicks":227,"midi":67,"name":"G4","ticks":41760,"time":43.5,"velocity":0.6299212598425197},{"duration":0.15729166666666572,"durationTicks":151,"midi":67,"name":"G4","ticks":42720,"time":44.5,"velocity":0.6299212598425197},{"duration":0.15729166666666572,"durationTicks":151,"midi":67,"name":"G4","ticks":42880,"time":44.666666666666664,"velocity":0.6299212598425197},{"duration":0.15729166666666572,"durationTicks":151,"midi":67,"name":"G4","ticks":43040,"time":44.833333333333336,"velocity":0.6299212598425197},{"duration":0.15729166666666572,"durationTicks":151,"midi":67,"name":"G4","ticks":43200,"time":45,"velocity":0.6299212598425197},{"duration":0.15729166666666572,"durationTicks":151,"midi":66,"name":"F#4","ticks":43360,"time":45.166666666666664,"velocity":0.6299212598425197},{"duration":0.15729166666666572,"durationTicks":151,"midi":64,"name":"E4","ticks":43520,"time":45.333333333333336,"velocity":0.6299212598425197},{"duration":0.23645833333333144,"durationTicks":227,"midi":67,"name":"G4","ticks":43680,"time":45.5,"velocity":0.6299212598425197},{"duration":0.23645833333333144,"durationTicks":227,"midi":66,"name":"F#4","ticks":43920,"time":45.75,"velocity":0.6299212598425197},{"duration":0.15729166666666572,"durationTicks":151,"midi":67,"name":"G4","ticks":44640,"time":46.5,"velocity":0.6299212598425197},{"duration":0.15729166666666572,"durationTicks":151,"midi":67,"name":"G4","ticks":44800,"time":46.666666666666664,"velocity":0.6299212598425197},{"duration":0.15729166666666572,"durationTicks":151,"midi":67,"name":"G4","ticks":44960,"time":46.833333333333336,"velocity":0.6299212598425197},{"duration":0.15729166666666572,"durationTicks":151,"midi":67,"name":"G4","ticks":45120,"time":47,"velocity":0.6299212598425197},{"duration":0.15729166666666572,"durationTicks":151,"midi":66,"name":"F#4","ticks":45280,"time":47.166666666666664,"velocity":0.6299212598425197},{"duration":0.15729166666666572,"durationTicks":151,"midi":64,"name":"E4","ticks":45440,"time":47.333333333333336,"velocity":0.6299212598425197},{"duration":0.23645833333333144,"durationTicks":227,"midi":67,"name":"G4","ticks":45600,"time":47.5,"velocity":0.6299212598425197},{"duration":0.23645833333333144,"durationTicks":227,"midi":64,"name":"E4","ticks":45840,"time":47.75,"velocity":0.6299212598425197},{"duration":0.23645833333333144,"durationTicks":227,"midi":64,"name":"E4","ticks":46320,"time":48.25,"velocity":0.6299212598425197},{"duration":0.23645833333333144,"durationTicks":227,"midi":67,"name":"G4","ticks":46560,"time":48.5,"velocity":0.6299212598425197},{"duration":0.23645833333333144,"durationTicks":227,"midi":64,"name":"E4","ticks":46800,"time":48.75,"velocity":0.6299212598425197},{"duration":0.23645833333333144,"durationTicks":227,"midi":64,"name":"E4","ticks":47280,"time":49.25,"velocity":0.6299212598425197},{"duration":0.23645833333333144,"durationTicks":227,"midi":67,"name":"G4","ticks":47520,"time":49.5,"velocity":0.6299212598425197},{"duration":0.23645833333333144,"durationTicks":227,"midi":64,"name":"E4","ticks":47760,"time":49.75,"velocity":0.6299212598425197},{"duration":0.23645833333333144,"durationTicks":227,"midi":64,"name":"E4","ticks":48240,"time":50.25,"velocity":0.6299212598425197},{"duration":0.23645833333333144,"durationTicks":227,"midi":67,"name":"G4","ticks":48480,"time":50.5,"velocity":0.6299212598425197},{"duration":0.23645833333333144,"durationTicks":227,"midi":64,"name":"E4","ticks":48720,"time":50.75,"velocity":0.6299212598425197},{"duration":0.23645833333333144,"durationTicks":227,"midi":64,"name":"E4","ticks":49200,"time":51.25,"velocity":0.6299212598425197},{"duration":0.23645833333333144,"durationTicks":227,"midi":67,"name":"G4","ticks":49440,"time":51.5,"velocity":0.6299212598425197},{"duration":0.23645833333333144,"durationTicks":227,"midi":64,"name":"E4","ticks":49680,"time":51.75,"velocity":0.6299212598425197},{"duration":0.23645833333333144,"durationTicks":227,"midi":64,"name":"E4","ticks":50160,"time":52.25,"velocity":0.6299212598425197},{"duration":0.23645833333333144,"durationTicks":227,"midi":67,"name":"G4","ticks":50400,"time":52.5,"velocity":0.6299212598425197},{"duration":0.23645833333333144,"durationTicks":227,"midi":64,"name":"E4","ticks":50640,"time":52.75,"velocity":0.6299212598425197},{"duration":0.23645833333333144,"durationTicks":227,"midi":64,"name":"E4","ticks":51120,"time":53.25,"velocity":0.6299212598425197},{"duration":0.23645833333333144,"durationTicks":227,"midi":67,"name":"G4","ticks":51360,"time":53.5,"velocity":0.6299212598425197},{"duration":0.23645833333333144,"durationTicks":227,"midi":64,"name":"E4","ticks":51600,"time":53.75,"velocity":0.6299212598425197},{"duration":0.23645833333333144,"durationTicks":227,"midi":64,"name":"E4","ticks":52080,"time":54.25,"velocity":0.6299212598425197},{"duration":0.23645833333333144,"durationTicks":227,"midi":67,"name":"G4","ticks":52320,"time":54.5,"velocity":0.6299212598425197},{"duration":0.23645833333333144,"durationTicks":227,"midi":64,"name":"E4","ticks":52560,"time":54.75,"velocity":0.6299212598425197},{"duration":0.23645833333333144,"durationTicks":227,"midi":64,"name":"E4","ticks":53040,"time":55.25,"velocity":0.6299212598425197},{"duration":0.23645833333333144,"durationTicks":227,"midi":67,"name":"G4","ticks":53280,"time":55.5,"velocity":0.6299212598425197},{"duration":0.23645833333333144,"durationTicks":227,"midi":64,"name":"E4","ticks":53520,"time":55.75,"velocity":0.6299212598425197},{"duration":0.23645833333333144,"durationTicks":227,"midi":71,"name":"B4","ticks":54720,"time":57,"velocity":0.6299212598425197},{"duration":0.23645833333333144,"durationTicks":227,"midi":69,"name":"A4","ticks":54960,"time":57.25,"velocity":0.6299212598425197},{"duration":0.23645833333333144,"durationTicks":227,"midi":67,"name":"G4","ticks":55200,"time":57.5,"velocity":0.6299212598425197},{"duration":0.23645833333333144,"durationTicks":227,"midi":64,"name":"E4","ticks":55440,"time":57.75,"velocity":0.6299212598425197},{"duration":1.4239583333333314,"durationTicks":1367,"midi":69,"name":"A4","ticks":55680,"time":58,"velocity":0.6299212598425197},{"duration":0.23645833333333144,"durationTicks":227,"midi":67,"name":"G4","ticks":57120,"time":59.5,"velocity":0.6299212598425197},{"duration":0.23645833333333144,"durationTicks":227,"midi":69,"name":"A4","ticks":57360,"time":59.75,"velocity":0.6299212598425197},{"duration":0.35520833333333,"durationTicks":341,"midi":71,"name":"B4","ticks":57600,"time":60,"velocity":0.6299212598425197},{"duration":0.35520833333333,"durationTicks":341,"midi":71,"name":"B4","ticks":57960,"time":60.375,"velocity":0.6299212598425197},{"duration":0.23645833333333144,"durationTicks":227,"midi":71,"name":"B4","ticks":58320,"time":60.75,"velocity":0.6299212598425197},{"duration":0.35520833333333,"durationTicks":341,"midi":71,"name":"B4","ticks":58560,"time":61,"velocity":0.6299212598425197},{"duration":0.35520833333333,"durationTicks":341,"midi":69,"name":"A4","ticks":58920,"time":61.375,"velocity":0.6299212598425197},{"duration":0.23645833333333144,"durationTicks":227,"midi":71,"name":"B4","ticks":59280,"time":61.75,"velocity":0.6299212598425197},{"duration":0.35520833333333,"durationTicks":341,"midi":72,"name":"C5","ticks":59520,"time":62,"velocity":0.6299212598425197},{"duration":0.35520833333333,"durationTicks":341,"midi":72,"name":"C5","ticks":59880,"time":62.375,"velocity":0.6299212598425197},{"duration":0.23645833333333144,"durationTicks":227,"midi":72,"name":"C5","ticks":60240,"time":62.75,"velocity":0.6299212598425197},{"duration":0.35520833333333,"durationTicks":341,"midi":72,"name":"C5","ticks":60480,"time":63,"velocity":0.6299212598425197},{"duration":0.35520833333333,"durationTicks":341,"midi":71,"name":"B4","ticks":60840,"time":63.375,"velocity":0.6299212598425197},{"duration":0.23645833333333144,"durationTicks":227,"midi":69,"name":"A4","ticks":61200,"time":63.75,"velocity":0.6299212598425197},{"duration":0.23645833333333144,"durationTicks":227,"midi":71,"name":"B4","ticks":62400,"time":65,"velocity":0.6299212598425197},{"duration":0.23645833333333144,"durationTicks":227,"midi":69,"name":"A4","ticks":62640,"time":65.25,"velocity":0.6299212598425197},{"duration":0.23645833333333144,"durationTicks":227,"midi":67,"name":"G4","ticks":62880,"time":65.5,"velocity":0.6299212598425197},{"duration":0.23645833333333144,"durationTicks":227,"midi":64,"name":"E4","ticks":63120,"time":65.75,"velocity":0.6299212598425197},{"duration":1.4239583333333314,"durationTicks":1367,"midi":69,"name":"A4","ticks":63360,"time":66,"velocity":0.6299212598425197},{"duration":0.23645833333333144,"durationTicks":227,"midi":67,"name":"G4","ticks":64800,"time":67.5,"velocity":0.6299212598425197},{"duration":0.23645833333333144,"durationTicks":227,"midi":69,"name":"A4","ticks":65040,"time":67.75,"velocity":0.6299212598425197},{"duration":0.3552083333333371,"durationTicks":341,"midi":71,"name":"B4","ticks":65280,"time":68,"velocity":0.6299212598425197},{"duration":0.3552083333333371,"durationTicks":341,"midi":71,"name":"B4","ticks":65640,"time":68.375,"velocity":0.6299212598425197},{"duration":0.4739583333333286,"durationTicks":455,"midi":71,"name":"B4","ticks":66000,"time":68.75,"velocity":0.6299212598425197},{"duration":0.23645833333333144,"durationTicks":227,"midi":69,"name":"A4","ticks":66480,"time":69.25,"velocity":0.6299212598425197},{"duration":0.23645833333333144,"durationTicks":227,"midi":69,"name":"A4","ticks":66720,"time":69.5,"velocity":0.6299212598425197},{"duration":0.23645833333333144,"durationTicks":227,"midi":71,"name":"B4","ticks":66960,"time":69.75,"velocity":0.6299212598425197},{"duration":0.3552083333333371,"durationTicks":341,"midi":72,"name":"C5","ticks":67200,"time":70,"velocity":0.6299212598425197},{"duration":0.3552083333333371,"durationTicks":341,"midi":72,"name":"C5","ticks":67560,"time":70.375,"velocity":0.6299212598425197},{"duration":0.23645833333333144,"durationTicks":227,"midi":72,"name":"C5","ticks":67920,"time":70.75,"velocity":0.6299212598425197},{"duration":0.4739583333333286,"durationTicks":455,"midi":71,"name":"B4","ticks":68160,"time":71,"velocity":0.6299212598425197},{"duration":0.4739583333333286,"durationTicks":455,"midi":69,"name":"A4","ticks":68640,"time":71.5,"velocity":0.6299212598425197},{"duration":0.3552083333333371,"durationTicks":341,"midi":67,"name":"G4","ticks":70080,"time":73,"velocity":0.6299212598425197},{"duration":0.3552083333333371,"durationTicks":341,"midi":69,"name":"A4","ticks":70440,"time":73.375,"velocity":0.6299212598425197},{"duration":0.23645833333333144,"durationTicks":227,"midi":67,"name":"G4","ticks":70800,"time":73.75,"velocity":0.6299212598425197},{"duration":0.3552083333333371,"durationTicks":341,"midi":69,"name":"A4","ticks":71040,"time":74,"velocity":0.6299212598425197},{"duration":0.3552083333333371,"durationTicks":341,"midi":69,"name":"A4","ticks":71400,"time":74.375,"velocity":0.6299212598425197},{"duration":0.23645833333333144,"durationTicks":227,"midi":67,"name":"G4","ticks":71760,"time":74.75,"velocity":0.6299212598425197},{"duration":0.3552083333333371,"durationTicks":341,"midi":69,"name":"A4","ticks":72000,"time":75,"velocity":0.6299212598425197},{"duration":0.3552083333333371,"durationTicks":341,"midi":64,"name":"E4","ticks":72360,"time":75.375,"velocity":0.6299212598425197},{"duration":0.23645833333333144,"durationTicks":227,"midi":64,"name":"E4","ticks":72720,"time":75.75,"velocity":0.6299212598425197},{"duration":0.3552083333333371,"durationTicks":341,"midi":67,"name":"G4","ticks":72960,"time":76,"velocity":0.6299212598425197},{"duration":0.3552083333333371,"durationTicks":341,"midi":69,"name":"A4","ticks":73320,"time":76.375,"velocity":0.6299212598425197},{"duration":0.23645833333333144,"durationTicks":227,"midi":67,"name":"G4","ticks":73680,"time":76.75,"velocity":0.6299212598425197},{"duration":0.3552083333333371,"durationTicks":341,"midi":69,"name":"A4","ticks":73920,"time":77,"velocity":0.6299212598425197},{"duration":0.3552083333333371,"durationTicks":341,"midi":64,"name":"E4","ticks":74280,"time":77.375,"velocity":0.6299212598425197},{"duration":0.23645833333333144,"durationTicks":227,"midi":67,"name":"G4","ticks":74640,"time":77.75,"velocity":0.6299212598425197},{"duration":0.23645833333333144,"durationTicks":227,"midi":71,"name":"B4","ticks":74880,"time":78,"velocity":0.6299212598425197},{"duration":0.23645833333333144,"durationTicks":227,"midi":69,"name":"A4","ticks":75120,"time":78.25,"velocity":0.6299212598425197},{"duration":0.23645833333333144,"durationTicks":227,"midi":69,"name":"A4","ticks":75360,"time":78.5,"velocity":0.6299212598425197},{"duration":0.23645833333333144,"durationTicks":227,"midi":67,"name":"G4","ticks":75600,"time":78.75,"velocity":0.6299212598425197},{"duration":0.4739583333333286,"durationTicks":455,"midi":69,"name":"A4","ticks":75840,"time":79,"velocity":0.6299212598425197},{"duration":0.4739583333333286,"durationTicks":455,"midi":67,"name":"G4","ticks":76320,"time":79.5,"velocity":0.6299212598425197},{"duration":0.3552083333333371,"durationTicks":341,"midi":67,"name":"G4","ticks":77760,"time":81,"velocity":0.6299212598425197},{"duration":0.3552083333333371,"durationTicks":341,"midi":69,"name":"A4","ticks":78120,"time":81.375,"velocity":0.6299212598425197},{"duration":0.23645833333333144,"durationTicks":227,"midi":67,"name":"G4","ticks":78480,"time":81.75,"velocity":0.6299212598425197},{"duration":0.3552083333333371,"durationTicks":341,"midi":69,"name":"A4","ticks":78720,"time":82,"velocity":0.6299212598425197},{"duration":0.3552083333333371,"durationTicks":341,"midi":69,"name":"A4","ticks":79080,"time":82.375,"velocity":0.6299212598425197},{"duration":0.23645833333333144,"durationTicks":227,"midi":67,"name":"G4","ticks":79440,"time":82.75,"velocity":0.6299212598425197},{"duration":0.4739583333333286,"durationTicks":455,"midi":69,"name":"A4","ticks":79680,"time":83,"velocity":0.6299212598425197},{"duration":0.4739583333333286,"durationTicks":455,"midi":71,"name":"B4","ticks":80160,"time":83.5,"velocity":0.6299212598425197},{"duration":0.4739583333333286,"durationTicks":455,"midi":76,"name":"E5","ticks":80640,"time":84,"velocity":0.6299212598425197},{"duration":0.4739583333333286,"durationTicks":455,"midi":74,"name":"D5","ticks":81120,"time":84.5,"velocity":0.6299212598425197},{"duration":0.23645833333333144,"durationTicks":227,"midi":71,"name":"B4","ticks":81600,"time":85,"velocity":0.6299212598425197},{"duration":0.23645833333333144,"durationTicks":227,"midi":71,"name":"B4","ticks":81840,"time":85.25,"velocity":0.6299212598425197},{"duration":0.23645833333333144,"durationTicks":227,"midi":69,"name":"A4","ticks":82080,"time":85.5,"velocity":0.6299212598425197},{"duration":0.23645833333333144,"durationTicks":227,"midi":69,"name":"A4","ticks":82320,"time":85.75,"velocity":0.6299212598425197},{"duration":0.23645833333333144,"durationTicks":227,"midi":67,"name":"G4","ticks":82560,"time":86,"velocity":0.6299212598425197},{"duration":0.23645833333333144,"durationTicks":227,"midi":67,"name":"G4","ticks":82800,"time":86.25,"velocity":0.6299212598425197},{"duration":0.23645833333333144,"durationTicks":227,"midi":67,"name":"G4","ticks":83040,"time":86.5,"velocity":0.6299212598425197},{"duration":0.23645833333333144,"durationTicks":227,"midi":67,"name":"G4","ticks":83280,"time":86.75,"velocity":0.6299212598425197},{"duration":0.11770833333333997,"durationTicks":113,"midi":67,"name":"G4","ticks":83520,"time":87,"velocity":0.6299212598425197},{"duration":0.11770833333333997,"durationTicks":113,"midi":67,"name":"G4","ticks":83640,"time":87.125,"velocity":0.6299212598425197},{"duration":0.11770833333333997,"durationTicks":113,"midi":66,"name":"F#4","ticks":84000,"time":87.5,"velocity":0.6299212598425197},{"duration":0.11770833333333997,"durationTicks":113,"midi":66,"name":"F#4","ticks":84120,"time":87.625,"velocity":0.6299212598425197},{"duration":0.4739583333333286,"durationTicks":455,"midi":76,"name":"E5","ticks":84480,"time":88,"velocity":0.6299212598425197},{"duration":0.23645833333333144,"durationTicks":227,"midi":76,"name":"E5","ticks":84960,"time":88.5,"velocity":0.6299212598425197},{"duration":0.23645833333333144,"durationTicks":227,"midi":76,"name":"E5","ticks":85200,"time":88.75,"velocity":0.6299212598425197},{"duration":0.71145833333334,"durationTicks":683,"midi":79,"name":"G5","ticks":85440,"time":89,"velocity":0.6299212598425197},{"duration":0.11770833333333997,"durationTicks":113,"midi":79,"name":"G5","ticks":86160,"time":89.75,"velocity":0.6299212598425197},{"duration":0.11770833333333997,"durationTicks":113,"midi":81,"name":"A5","ticks":86280,"time":89.875,"velocity":0.6299212598425197},{"duration":0.23645833333333144,"durationTicks":227,"midi":83,"name":"B5","ticks":86400,"time":90,"velocity":0.6299212598425197},{"duration":0.23645833333333144,"durationTicks":227,"midi":82,"name":"A#5","ticks":86640,"time":90.25,"velocity":0.6299212598425197},{"duration":0.23645833333333144,"durationTicks":227,"midi":83,"name":"B5","ticks":86880,"time":90.5,"velocity":0.6299212598425197},{"duration":0.23645833333333144,"durationTicks":227,"midi":79,"name":"G5","ticks":87120,"time":90.75,"velocity":0.6299212598425197},{"duration":0.23645833333333144,"durationTicks":227,"midi":76,"name":"E5","ticks":87360,"time":91,"velocity":0.6299212598425197},{"duration":0.23645833333333144,"durationTicks":227,"midi":79,"name":"G5","ticks":87600,"time":91.25,"velocity":0.6299212598425197},{"duration":0.23645833333333144,"durationTicks":227,"midi":79,"name":"G5","ticks":87840,"time":91.5,"velocity":0.6299212598425197},{"duration":0.23645833333333144,"durationTicks":227,"midi":79,"name":"G5","ticks":88080,"time":91.75,"velocity":0.6299212598425197},{"duration":0.4739583333333286,"durationTicks":455,"midi":76,"name":"E5","ticks":88320,"time":92,"velocity":0.6299212598425197},{"duration":0.4739583333333286,"durationTicks":455,"midi":79,"name":"G5","ticks":88320,"time":92,"velocity":0.6299212598425197},{"duration":0.23645833333333144,"durationTicks":227,"midi":76,"name":"E5","ticks":88800,"time":92.5,"velocity":0.6299212598425197},{"duration":0.23645833333333144,"durationTicks":227,"midi":76,"name":"E5","ticks":89040,"time":92.75,"velocity":0.6299212598425197},{"duration":0.71145833333334,"durationTicks":683,"midi":79,"name":"G5","ticks":89280,"time":93,"velocity":0.6299212598425197},{"duration":0.23645833333333144,"durationTicks":227,"midi":78,"name":"F#5","ticks":90000,"time":93.75,"velocity":0.6299212598425197},{"duration":0.23645833333333144,"durationTicks":227,"midi":79,"name":"G5","ticks":90240,"time":94,"velocity":0.6299212598425197},{"duration":0.23645833333333144,"durationTicks":227,"midi":79,"name":"G5","ticks":90480,"time":94.25,"velocity":0.6299212598425197},{"duration":0.23645833333333144,"durationTicks":227,"midi":79,"name":"G5","ticks":90720,"time":94.5,"velocity":0.6299212598425197},{"duration":0.23645833333333144,"durationTicks":227,"midi":79,"name":"G5","ticks":90960,"time":94.75,"velocity":0.6299212598425197},{"duration":0.11770833333333997,"durationTicks":113,"midi":79,"name":"G5","ticks":91200,"time":95,"velocity":0.6299212598425197},{"duration":0.11770833333333997,"durationTicks":113,"midi":79,"name":"G5","ticks":91320,"time":95.125,"velocity":0.6299212598425197},{"duration":0.11770833333333997,"durationTicks":113,"midi":78,"name":"F#5","ticks":91680,"time":95.5,"velocity":0.6299212598425197},{"duration":0.11770833333333997,"durationTicks":113,"midi":78,"name":"F#5","ticks":91800,"time":95.625,"velocity":0.6299212598425197},{"duration":0.4739583333333286,"durationTicks":455,"midi":76,"name":"E5","ticks":92160,"time":96,"velocity":0.6299212598425197},{"duration":0.23645833333333144,"durationTicks":227,"midi":76,"name":"E5","ticks":92640,"time":96.5,"velocity":0.6299212598425197},{"duration":0.23645833333333144,"durationTicks":227,"midi":76,"name":"E5","ticks":92880,"time":96.75,"velocity":0.6299212598425197},{"duration":0.71145833333334,"durationTicks":683,"midi":79,"name":"G5","ticks":93120,"time":97,"velocity":0.6299212598425197},{"duration":0.11770833333333997,"durationTicks":113,"midi":79,"name":"G5","ticks":93840,"time":97.75,"velocity":0.6299212598425197},{"duration":0.11770833333333997,"durationTicks":113,"midi":81,"name":"A5","ticks":93960,"time":97.875,"velocity":0.6299212598425197},{"duration":0.23645833333333144,"durationTicks":227,"midi":83,"name":"B5","ticks":94080,"time":98,"velocity":0.6299212598425197},{"duration":0.23645833333333144,"durationTicks":227,"midi":82,"name":"A#5","ticks":94320,"time":98.25,"velocity":0.6299212598425197},{"duration":0.23645833333333144,"durationTicks":227,"midi":83,"name":"B5","ticks":94560,"time":98.5,"velocity":0.6299212598425197},{"duration":0.23645833333333144,"durationTicks":227,"midi":79,"name":"G5","ticks":94800,"time":98.75,"velocity":0.6299212598425197},{"duration":0.23645833333333144,"durationTicks":227,"midi":76,"name":"E5","ticks":95040,"time":99,"velocity":0.6299212598425197},{"duration":0.23645833333333144,"durationTicks":227,"midi":79,"name":"G5","ticks":95280,"time":99.25,"velocity":0.6299212598425197},{"duration":0.23645833333333144,"durationTicks":227,"midi":79,"name":"G5","ticks":95520,"time":99.5,"velocity":0.6299212598425197},{"duration":0.23645833333333144,"durationTicks":227,"midi":81,"name":"A5","ticks":95760,"time":99.75,"velocity":0.6299212598425197},{"duration":0.11770833333333997,"durationTicks":113,"midi":81,"name":"A5","ticks":96000,"time":100,"velocity":0.6299212598425197},{"duration":0.11770833333333997,"durationTicks":113,"midi":79,"name":"G5","ticks":96120,"time":100.125,"velocity":0.6299212598425197},{"duration":0.23645833333333144,"durationTicks":227,"midi":76,"name":"E5","ticks":96240,"time":100.25,"velocity":0.6299212598425197},{"duration":0.23645833333333144,"durationTicks":227,"midi":76,"name":"E5","ticks":96480,"time":100.5,"velocity":0.6299212598425197},{"duration":0.23645833333333144,"durationTicks":227,"midi":76,"name":"E5","ticks":96720,"time":100.75,"velocity":0.6299212598425197},{"duration":0.71145833333334,"durationTicks":683,"midi":79,"name":"G5","ticks":96960,"time":101,"velocity":0.6299212598425197},{"duration":0.11770833333333997,"durationTicks":113,"midi":79,"name":"G5","ticks":97680,"time":101.75,"velocity":0.6299212598425197},{"duration":0.11770833333333997,"durationTicks":113,"midi":81,"name":"A5","ticks":97800,"time":101.875,"velocity":0.6299212598425197},{"duration":0.23645833333333144,"durationTicks":227,"midi":83,"name":"B5","ticks":97920,"time":102,"velocity":0.6299212598425197},{"duration":0.23645833333333144,"durationTicks":227,"midi":82,"name":"A#5","ticks":98160,"time":102.25,"velocity":0.6299212598425197},{"duration":0.23645833333333144,"durationTicks":227,"midi":83,"name":"B5","ticks":98400,"time":102.5,"velocity":0.6299212598425197},{"duration":0.23645833333333144,"durationTicks":227,"midi":79,"name":"G5","ticks":98640,"time":102.75,"velocity":0.6299212598425197},{"duration":0.23645833333333144,"durationTicks":227,"midi":76,"name":"E5","ticks":98880,"time":103,"velocity":0.6299212598425197},{"duration":0.23645833333333144,"durationTicks":227,"midi":64,"name":"E4","ticks":100080,"time":104.25,"velocity":0.6299212598425197},{"duration":0.23645833333333144,"durationTicks":227,"midi":67,"name":"G4","ticks":100080,"time":104.25,"velocity":0.6299212598425197},{"duration":0.23645833333333144,"durationTicks":227,"midi":64,"name":"E4","ticks":100320,"time":104.5,"velocity":0.6299212598425197},{"duration":0.23645833333333144,"durationTicks":227,"midi":67,"name":"G4","ticks":100320,"time":104.5,"velocity":0.6299212598425197},{"duration":0.23645833333333144,"durationTicks":227,"midi":64,"name":"E4","ticks":100560,"time":104.75,"velocity":0.6299212598425197},{"duration":0.23645833333333144,"durationTicks":227,"midi":67,"name":"G4","ticks":100560,"time":104.75,"velocity":0.6299212598425197},{"duration":0.23645833333333144,"durationTicks":227,"midi":64,"name":"E4","ticks":100800,"time":105,"velocity":0.6299212598425197},{"duration":0.23645833333333144,"durationTicks":227,"midi":67,"name":"G4","ticks":100800,"time":105,"velocity":0.6299212598425197},{"duration":0.23645833333333144,"durationTicks":227,"midi":64,"name":"E4","ticks":101040,"time":105.25,"velocity":0.6299212598425197},{"duration":0.23645833333333144,"durationTicks":227,"midi":67,"name":"G4","ticks":101040,"time":105.25,"velocity":0.6299212598425197},{"duration":0.23645833333333144,"durationTicks":227,"midi":64,"name":"E4","ticks":101280,"time":105.5,"velocity":0.6299212598425197},{"duration":0.23645833333333144,"durationTicks":227,"midi":67,"name":"G4","ticks":101280,"time":105.5,"velocity":0.6299212598425197},{"duration":0.23645833333333144,"durationTicks":227,"midi":64,"name":"E4","ticks":101520,"time":105.75,"velocity":0.6299212598425197},{"duration":0.23645833333333144,"durationTicks":227,"midi":67,"name":"G4","ticks":101520,"time":105.75,"velocity":0.6299212598425197},{"duration":0.23645833333333144,"durationTicks":227,"midi":64,"name":"E4","ticks":101760,"time":106,"velocity":0.6299212598425197},{"duration":0.23645833333333144,"durationTicks":227,"midi":67,"name":"G4","ticks":101760,"time":106,"velocity":0.6299212598425197},{"duration":0.23645833333333144,"durationTicks":227,"midi":64,"name":"E4","ticks":102000,"time":106.25,"velocity":0.6299212598425197},{"duration":0.23645833333333144,"durationTicks":227,"midi":67,"name":"G4","ticks":102000,"time":106.25,"velocity":0.6299212598425197},{"duration":0.23645833333333144,"durationTicks":227,"midi":64,"name":"E4","ticks":102240,"time":106.5,"velocity":0.6299212598425197},{"duration":0.23645833333333144,"durationTicks":227,"midi":67,"name":"G4","ticks":102240,"time":106.5,"velocity":0.6299212598425197},{"duration":0.23645833333333144,"durationTicks":227,"midi":64,"name":"E4","ticks":102480,"time":106.75,"velocity":0.6299212598425197},{"duration":0.23645833333333144,"durationTicks":227,"midi":67,"name":"G4","ticks":102480,"time":106.75,"velocity":0.6299212598425197},{"duration":0.23645833333333144,"durationTicks":227,"midi":64,"name":"E4","ticks":102960,"time":107.25,"velocity":0.6299212598425197},{"duration":0.23645833333333144,"durationTicks":227,"midi":67,"name":"G4","ticks":102960,"time":107.25,"velocity":0.6299212598425197},{"duration":0.23645833333333144,"durationTicks":227,"midi":64,"name":"E4","ticks":103200,"time":107.5,"velocity":0.6299212598425197},{"duration":0.23645833333333144,"durationTicks":227,"midi":67,"name":"G4","ticks":103200,"time":107.5,"velocity":0.6299212598425197},{"duration":0.11770833333333997,"durationTicks":113,"midi":67,"name":"G4","ticks":104160,"time":108.5,"velocity":0.6299212598425197},{"duration":0.11770833333333997,"durationTicks":113,"midi":66,"name":"F#4","ticks":104280,"time":108.625,"velocity":0.6299212598425197},{"duration":0.11770833333333997,"durationTicks":113,"midi":64,"name":"E4","ticks":104400,"time":108.75,"velocity":0.6299212598425197},{"duration":0.11770833333333997,"durationTicks":113,"midi":66,"name":"F#4","ticks":104520,"time":108.875,"velocity":0.6299212598425197},{"duration":0.11770833333333997,"durationTicks":113,"midi":67,"name":"G4","ticks":104640,"time":109,"velocity":0.6299212598425197},{"duration":0.11770833333333997,"durationTicks":113,"midi":66,"name":"F#4","ticks":104760,"time":109.125,"velocity":0.6299212598425197},{"duration":0.11770833333333997,"durationTicks":113,"midi":64,"name":"E4","ticks":104880,"time":109.25,"velocity":0.6299212598425197},{"duration":0.11770833333333997,"durationTicks":113,"midi":66,"name":"F#4","ticks":105000,"time":109.375,"velocity":0.6299212598425197},{"duration":0.11770833333333997,"durationTicks":113,"midi":67,"name":"G4","ticks":105120,"time":109.5,"velocity":0.6299212598425197},{"duration":0.11770833333333997,"durationTicks":113,"midi":64,"name":"E4","ticks":105240,"time":109.625,"velocity":0.6299212598425197},{"duration":0.23645833333333144,"durationTicks":227,"midi":67,"name":"G4","ticks":105840,"time":110.25,"velocity":0.6299212598425197},{"duration":0.23645833333333144,"durationTicks":227,"midi":67,"name":"G4","ticks":106080,"time":110.5,"velocity":0.6299212598425197},{"duration":0.23645833333333144,"durationTicks":227,"midi":67,"name":"G4","ticks":106320,"time":110.75,"velocity":0.6299212598425197},{"duration":0.23645833333333144,"durationTicks":227,"midi":67,"name":"G4","ticks":106560,"time":111,"velocity":0.6299212598425197},{"duration":0.23645833333333144,"durationTicks":227,"midi":67,"name":"G4","ticks":106800,"time":111.25,"velocity":0.6299212598425197},{"duration":0.11770833333333997,"durationTicks":113,"midi":67,"name":"G4","ticks":107040,"time":111.5,"velocity":0.6299212598425197},{"duration":0.11770833333333997,"durationTicks":113,"midi":64,"name":"E4","ticks":107160,"time":111.625,"velocity":0.6299212598425197},{"duration":0.11770833333333997,"durationTicks":113,"midi":64,"name":"E4","ticks":108000,"time":112.5,"velocity":0.6299212598425197},{"duration":0.11770833333333997,"durationTicks":113,"midi":64,"name":"E4","ticks":108120,"time":112.625,"velocity":0.6299212598425197},{"duration":0.23645833333333144,"durationTicks":227,"midi":67,"name":"G4","ticks":108240,"time":112.75,"velocity":0.6299212598425197},{"duration":0.11770833333333997,"durationTicks":113,"midi":64,"name":"E4","ticks":108480,"time":113,"velocity":0.6299212598425197},{"duration":0.11770833333333997,"durationTicks":113,"midi":62,"name":"D4","ticks":108600,"time":113.125,"velocity":0.6299212598425197},{"duration":0.11770833333333997,"durationTicks":113,"midi":64,"name":"E4","ticks":108720,"time":113.25,"velocity":0.6299212598425197},{"duration":0.11770833333333997,"durationTicks":113,"midi":64,"name":"E4","ticks":108840,"time":113.375,"velocity":0.6299212598425197},{"duration":0.11770833333333997,"durationTicks":113,"midi":64,"name":"E4","ticks":108960,"time":113.5,"velocity":0.6299212598425197},{"duration":0.11770833333333997,"durationTicks":113,"midi":64,"name":"E4","ticks":109080,"time":113.625,"velocity":0.6299212598425197},{"duration":0.11770833333333997,"durationTicks":113,"midi":64,"name":"E4","ticks":109200,"time":113.75,"velocity":0.6299212598425197},{"duration":0.11770833333333997,"durationTicks":113,"midi":67,"name":"G4","ticks":109320,"time":113.875,"velocity":0.6299212598425197},{"duration":0.23645833333333144,"durationTicks":227,"midi":64,"name":"E4","ticks":109440,"time":114,"velocity":0.6299212598425197},{"duration":0.23645833333333144,"durationTicks":227,"midi":64,"name":"E4","ticks":109680,"time":114.25,"velocity":0.6299212598425197},{"duration":0.23645833333333144,"durationTicks":227,"midi":67,"name":"G4","ticks":109920,"time":114.5,"velocity":0.6299212598425197},{"duration":0.23645833333333144,"durationTicks":227,"midi":62,"name":"D4","ticks":110160,"time":114.75,"velocity":0.6299212598425197},{"duration":0.4739583333333286,"durationTicks":455,"midi":64,"name":"E4","ticks":110400,"time":115,"velocity":0.6299212598425197},{"duration":0.23645833333333144,"durationTicks":227,"midi":64,"name":"E4","ticks":110880,"time":115.5,"velocity":0.6299212598425197},{"duration":0.23645833333333144,"durationTicks":227,"midi":67,"name":"G4","ticks":111120,"time":115.75,"velocity":0.6299212598425197},{"duration":0.23645833333333144,"durationTicks":227,"midi":71,"name":"B4","ticks":111360,"time":116,"velocity":0.6299212598425197},{"duration":0.23645833333333144,"durationTicks":227,"midi":67,"name":"G4","ticks":111600,"time":116.25,"velocity":0.6299212598425197},{"duration":0.23645833333333144,"durationTicks":227,"midi":66,"name":"F#4","ticks":111840,"time":116.5,"velocity":0.6299212598425197},{"duration":0.23645833333333144,"durationTicks":227,"midi":67,"name":"G4","ticks":112080,"time":116.75,"velocity":0.6299212598425197},{"duration":0.11770833333333997,"durationTicks":113,"midi":67,"name":"G4","ticks":112320,"time":117,"velocity":0.6299212598425197},{"duration":0.11770833333333997,"durationTicks":113,"midi":66,"name":"F#4","ticks":112440,"time":117.125,"velocity":0.6299212598425197},{"duration":0.11770833333333997,"durationTicks":113,"midi":64,"name":"E4","ticks":112560,"time":117.25,"velocity":0.6299212598425197},{"duration":0.11770833333333997,"durationTicks":113,"midi":66,"name":"F#4","ticks":112680,"time":117.375,"velocity":0.6299212598425197},{"duration":0.11770833333333997,"durationTicks":113,"midi":67,"name":"G4","ticks":112800,"time":117.5,"velocity":0.6299212598425197},{"duration":0.11770833333333997,"durationTicks":113,"midi":66,"name":"F#4","ticks":112920,"time":117.625,"velocity":0.6299212598425197},{"duration":0.11770833333333997,"durationTicks":113,"midi":64,"name":"E4","ticks":113040,"time":117.75,"velocity":0.6299212598425197},{"duration":0.11770833333333997,"durationTicks":113,"midi":66,"name":"F#4","ticks":113160,"time":117.875,"velocity":0.6299212598425197},{"duration":0.11770833333333997,"durationTicks":113,"midi":67,"name":"G4","ticks":113280,"time":118,"velocity":0.6299212598425197},{"duration":0.11770833333333997,"durationTicks":113,"midi":66,"name":"F#4","ticks":113400,"time":118.125,"velocity":0.6299212598425197},{"duration":0.11770833333333997,"durationTicks":113,"midi":64,"name":"E4","ticks":113520,"time":118.25,"velocity":0.6299212598425197},{"duration":0.11770833333333997,"durationTicks":113,"midi":66,"name":"F#4","ticks":113640,"time":118.375,"velocity":0.6299212598425197},{"duration":0.11770833333333997,"durationTicks":113,"midi":67,"name":"G4","ticks":113760,"time":118.5,"velocity":0.6299212598425197},{"duration":0.11770833333333997,"durationTicks":113,"midi":66,"name":"F#4","ticks":113880,"time":118.625,"velocity":0.6299212598425197},{"duration":0.11770833333333997,"durationTicks":113,"midi":64,"name":"E4","ticks":114000,"time":118.75,"velocity":0.6299212598425197},{"duration":0.11770833333333997,"durationTicks":113,"midi":66,"name":"F#4","ticks":114120,"time":118.875,"velocity":0.6299212598425197},{"duration":0.4739583333333286,"durationTicks":455,"midi":67,"name":"G4","ticks":114240,"time":119,"velocity":0.6299212598425197},{"duration":0.4739583333333286,"durationTicks":455,"midi":64,"name":"E4","ticks":114720,"time":119.5,"velocity":0.6299212598425197},{"duration":0.23645833333333144,"durationTicks":227,"midi":71,"name":"B4","ticks":115200,"time":120,"velocity":0.6299212598425197},{"duration":0.23645833333333144,"durationTicks":227,"midi":67,"name":"G4","ticks":115440,"time":120.25,"velocity":0.6299212598425197},{"duration":0.23645833333333144,"durationTicks":227,"midi":66,"name":"F#4","ticks":115680,"time":120.5,"velocity":0.6299212598425197},{"duration":0.23645833333333144,"durationTicks":227,"midi":67,"name":"G4","ticks":115920,"time":120.75,"velocity":0.6299212598425197},{"duration":0.11770833333333997,"durationTicks":113,"midi":67,"name":"G4","ticks":116160,"time":121,"velocity":0.6299212598425197},{"duration":0.11770833333333997,"durationTicks":113,"midi":66,"name":"F#4","ticks":116280,"time":121.125,"velocity":0.6299212598425197},{"duration":0.11770833333333997,"durationTicks":113,"midi":64,"name":"E4","ticks":116400,"time":121.25,"velocity":0.6299212598425197},{"duration":0.11770833333333997,"durationTicks":113,"midi":66,"name":"F#4","ticks":116520,"time":121.375,"velocity":0.6299212598425197},{"duration":0.11770833333333997,"durationTicks":113,"midi":67,"name":"G4","ticks":116640,"time":121.5,"velocity":0.6299212598425197},{"duration":0.11770833333333997,"durationTicks":113,"midi":66,"name":"F#4","ticks":116760,"time":121.625,"velocity":0.6299212598425197},{"duration":0.11770833333333997,"durationTicks":113,"midi":64,"name":"E4","ticks":116880,"time":121.75,"velocity":0.6299212598425197},{"duration":0.11770833333333997,"durationTicks":113,"midi":66,"name":"F#4","ticks":117000,"time":121.875,"velocity":0.6299212598425197},{"duration":0.11770833333333997,"durationTicks":113,"midi":67,"name":"G4","ticks":117120,"time":122,"velocity":0.6299212598425197},{"duration":0.11770833333333997,"durationTicks":113,"midi":66,"name":"F#4","ticks":117240,"time":122.125,"velocity":0.6299212598425197},{"duration":0.11770833333333997,"durationTicks":113,"midi":64,"name":"E4","ticks":117360,"time":122.25,"velocity":0.6299212598425197},{"duration":0.11770833333333997,"durationTicks":113,"midi":66,"name":"F#4","ticks":117480,"time":122.375,"velocity":0.6299212598425197},{"duration":0.11770833333333997,"durationTicks":113,"midi":67,"name":"G4","ticks":117600,"time":122.5,"velocity":0.6299212598425197},{"duration":0.11770833333333997,"durationTicks":113,"midi":66,"name":"F#4","ticks":117720,"time":122.625,"velocity":0.6299212598425197},{"duration":0.11770833333333997,"durationTicks":113,"midi":64,"name":"E4","ticks":117840,"time":122.75,"velocity":0.6299212598425197},{"duration":0.11770833333333997,"durationTicks":113,"midi":66,"name":"F#4","ticks":117960,"time":122.875,"velocity":0.6299212598425197},{"duration":0.4739583333333286,"durationTicks":455,"midi":67,"name":"G4","ticks":118080,"time":123,"velocity":0.6299212598425197},{"duration":0.4739583333333286,"durationTicks":455,"midi":64,"name":"E4","ticks":118560,"time":123.5,"velocity":0.6299212598425197},{"duration":0.23645833333333144,"durationTicks":227,"midi":71,"name":"B4","ticks":120000,"time":125,"velocity":0.6299212598425197},{"duration":0.23645833333333144,"durationTicks":227,"midi":69,"name":"A4","ticks":120240,"time":125.25,"velocity":0.6299212598425197},{"duration":0.23645833333333144,"durationTicks":227,"midi":67,"name":"G4","ticks":120480,"time":125.5,"velocity":0.6299212598425197},{"duration":0.23645833333333144,"durationTicks":227,"midi":64,"name":"E4","ticks":120720,"time":125.75,"velocity":0.6299212598425197},{"duration":1.4239583333333314,"durationTicks":1367,"midi":69,"name":"A4","ticks":120960,"time":126,"velocity":0.6299212598425197},{"duration":0.23645833333333144,"durationTicks":227,"midi":67,"name":"G4","ticks":122400,"time":127.5,"velocity":0.6299212598425197},{"duration":0.23645833333333144,"durationTicks":227,"midi":69,"name":"A4","ticks":122640,"time":127.75,"velocity":0.6299212598425197},{"duration":0.3552083333333371,"durationTicks":341,"midi":71,"name":"B4","ticks":122880,"time":128,"velocity":0.6299212598425197},{"duration":0.3552083333333371,"durationTicks":341,"midi":71,"name":"B4","ticks":123240,"time":128.375,"velocity":0.6299212598425197},{"duration":0.23645833333333144,"durationTicks":227,"midi":71,"name":"B4","ticks":123600,"time":128.75,"velocity":0.6299212598425197},{"duration":0.3552083333333371,"durationTicks":341,"midi":71,"name":"B4","ticks":123840,"time":129,"velocity":0.6299212598425197},{"duration":0.3552083333333371,"durationTicks":341,"midi":69,"name":"A4","ticks":124200,"time":129.375,"velocity":0.6299212598425197},{"duration":0.23645833333333144,"durationTicks":227,"midi":71,"name":"B4","ticks":124560,"time":129.75,"velocity":0.6299212598425197},{"duration":0.3552083333333371,"durationTicks":341,"midi":72,"name":"C5","ticks":124800,"time":130,"velocity":0.6299212598425197},{"duration":0.3552083333333371,"durationTicks":341,"midi":72,"name":"C5","ticks":125160,"time":130.375,"velocity":0.6299212598425197},{"duration":0.23645833333333144,"durationTicks":227,"midi":72,"name":"C5","ticks":125520,"time":130.75,"velocity":0.6299212598425197},{"duration":0.3552083333333371,"durationTicks":341,"midi":72,"name":"C5","ticks":125760,"time":131,"velocity":0.6299212598425197},{"duration":0.3552083333333371,"durationTicks":341,"midi":71,"name":"B4","ticks":126120,"time":131.375,"velocity":0.6299212598425197},{"duration":0.23645833333333144,"durationTicks":227,"midi":69,"name":"A4","ticks":126480,"time":131.75,"velocity":0.6299212598425197},{"duration":0.23645833333333144,"durationTicks":227,"midi":71,"name":"B4","ticks":127680,"time":133,"velocity":0.6299212598425197},{"duration":0.23645833333333144,"durationTicks":227,"midi":69,"name":"A4","ticks":127920,"time":133.25,"velocity":0.6299212598425197},{"duration":0.23645833333333144,"durationTicks":227,"midi":67,"name":"G4","ticks":128160,"time":133.5,"velocity":0.6299212598425197},{"duration":0.23645833333333144,"durationTicks":227,"midi":64,"name":"E4","ticks":128400,"time":133.75,"velocity":0.6299212598425197},{"duration":1.4239583333333314,"durationTicks":1367,"midi":69,"name":"A4","ticks":128640,"time":134,"velocity":0.6299212598425197},{"duration":0.23645833333333144,"durationTicks":227,"midi":67,"name":"G4","ticks":130080,"time":135.5,"velocity":0.6299212598425197},{"duration":0.23645833333333144,"durationTicks":227,"midi":69,"name":"A4","ticks":130320,"time":135.75,"velocity":0.6299212598425197},{"duration":0.3552083333333371,"durationTicks":341,"midi":71,"name":"B4","ticks":130560,"time":136,"velocity":0.6299212598425197},{"duration":0.3552083333333371,"durationTicks":341,"midi":71,"name":"B4","ticks":130920,"time":136.375,"velocity":0.6299212598425197},{"duration":0.4739583333333428,"durationTicks":455,"midi":71,"name":"B4","ticks":131280,"time":136.75,"velocity":0.6299212598425197},{"duration":0.23645833333333144,"durationTicks":227,"midi":69,"name":"A4","ticks":131760,"time":137.25,"velocity":0.6299212598425197},{"duration":0.23645833333333144,"durationTicks":227,"midi":69,"name":"A4","ticks":132000,"time":137.5,"velocity":0.6299212598425197},{"duration":0.23645833333333144,"durationTicks":227,"midi":71,"name":"B4","ticks":132240,"time":137.75,"velocity":0.6299212598425197},{"duration":0.3552083333333371,"durationTicks":341,"midi":72,"name":"C5","ticks":132480,"time":138,"velocity":0.6299212598425197},{"duration":0.3552083333333371,"durationTicks":341,"midi":72,"name":"C5","ticks":132840,"time":138.375,"velocity":0.6299212598425197},{"duration":0.23645833333333144,"durationTicks":227,"midi":72,"name":"C5","ticks":133200,"time":138.75,"velocity":0.6299212598425197},{"duration":0.4739583333333428,"durationTicks":455,"midi":71,"name":"B4","ticks":133440,"time":139,"velocity":0.6299212598425197},{"duration":0.4739583333333428,"durationTicks":455,"midi":69,"name":"A4","ticks":133920,"time":139.5,"velocity":0.6299212598425197},{"duration":0.3552083333333371,"durationTicks":341,"midi":67,"name":"G4","ticks":135360,"time":141,"velocity":0.6299212598425197},{"duration":0.3552083333333371,"durationTicks":341,"midi":69,"name":"A4","ticks":135720,"time":141.375,"velocity":0.6299212598425197},{"duration":0.23645833333333144,"durationTicks":227,"midi":67,"name":"G4","ticks":136080,"time":141.75,"velocity":0.6299212598425197},{"duration":0.3552083333333371,"durationTicks":341,"midi":69,"name":"A4","ticks":136320,"time":142,"velocity":0.6299212598425197},{"duration":0.3552083333333371,"durationTicks":341,"midi":69,"name":"A4","ticks":136680,"time":142.375,"velocity":0.6299212598425197},{"duration":0.23645833333333144,"durationTicks":227,"midi":67,"name":"G4","ticks":137040,"time":142.75,"velocity":0.6299212598425197},{"duration":0.3552083333333371,"durationTicks":341,"midi":69,"name":"A4","ticks":137280,"time":143,"velocity":0.6299212598425197},{"duration":0.3552083333333371,"durationTicks":341,"midi":64,"name":"E4","ticks":137640,"time":143.375,"velocity":0.6299212598425197},{"duration":0.23645833333333144,"durationTicks":227,"midi":64,"name":"E4","ticks":138000,"time":143.75,"velocity":0.6299212598425197},{"duration":0.3552083333333371,"durationTicks":341,"midi":67,"name":"G4","ticks":138240,"time":144,"velocity":0.6299212598425197},{"duration":0.3552083333333371,"durationTicks":341,"midi":69,"name":"A4","ticks":138600,"time":144.375,"velocity":0.6299212598425197},{"duration":0.23645833333333144,"durationTicks":227,"midi":67,"name":"G4","ticks":138960,"time":144.75,"velocity":0.6299212598425197},{"duration":0.3552083333333371,"durationTicks":341,"midi":69,"name":"A4","ticks":139200,"time":145,"velocity":0.6299212598425197},{"duration":0.3552083333333371,"durationTicks":341,"midi":64,"name":"E4","ticks":139560,"time":145.375,"velocity":0.6299212598425197},{"duration":0.23645833333333144,"durationTicks":227,"midi":67,"name":"G4","ticks":139920,"time":145.75,"velocity":0.6299212598425197},{"duration":0.23645833333333144,"durationTicks":227,"midi":71,"name":"B4","ticks":140160,"time":146,"velocity":0.6299212598425197},{"duration":0.23645833333333144,"durationTicks":227,"midi":69,"name":"A4","ticks":140400,"time":146.25,"velocity":0.6299212598425197},{"duration":0.23645833333333144,"durationTicks":227,"midi":69,"name":"A4","ticks":140640,"time":146.5,"velocity":0.6299212598425197},{"duration":0.23645833333333144,"durationTicks":227,"midi":67,"name":"G4","ticks":140880,"time":146.75,"velocity":0.6299212598425197},{"duration":0.4739583333333428,"durationTicks":455,"midi":67,"name":"G4","ticks":141120,"time":147,"velocity":0.6299212598425197},{"duration":0.4739583333333428,"durationTicks":455,"midi":71,"name":"B4","ticks":141600,"time":147.5,"velocity":0.6299212598425197},{"duration":0.3552083333333371,"durationTicks":341,"midi":67,"name":"G4","ticks":143040,"time":149,"velocity":0.6299212598425197},{"duration":0.3552083333333371,"durationTicks":341,"midi":69,"name":"A4","ticks":143400,"time":149.375,"velocity":0.6299212598425197},{"duration":0.23645833333333144,"durationTicks":227,"midi":67,"name":"G4","ticks":143760,"time":149.75,"velocity":0.6299212598425197},{"duration":0.3552083333333371,"durationTicks":341,"midi":69,"name":"A4","ticks":144000,"time":150,"velocity":0.6299212598425197},{"duration":0.3552083333333371,"durationTicks":341,"midi":69,"name":"A4","ticks":144360,"time":150.375,"velocity":0.6299212598425197},{"duration":0.23645833333333144,"durationTicks":227,"midi":67,"name":"G4","ticks":144720,"time":150.75,"velocity":0.6299212598425197},{"duration":0.4739583333333428,"durationTicks":455,"midi":69,"name":"A4","ticks":144960,"time":151,"velocity":0.6299212598425197},{"duration":0.4739583333333428,"durationTicks":455,"midi":71,"name":"B4","ticks":145440,"time":151.5,"velocity":0.6299212598425197},{"duration":0.4739583333333428,"durationTicks":455,"midi":76,"name":"E5","ticks":145920,"time":152,"velocity":0.6299212598425197},{"duration":0.4739583333333428,"durationTicks":455,"midi":74,"name":"D5","ticks":146400,"time":152.5,"velocity":0.6299212598425197},{"duration":0.23645833333333144,"durationTicks":227,"midi":71,"name":"B4","ticks":146880,"time":153,"velocity":0.6299212598425197},{"duration":0.23645833333333144,"durationTicks":227,"midi":71,"name":"B4","ticks":147120,"time":153.25,"velocity":0.6299212598425197},{"duration":0.23645833333333144,"durationTicks":227,"midi":69,"name":"A4","ticks":147360,"time":153.5,"velocity":0.6299212598425197},{"duration":0.23645833333333144,"durationTicks":227,"midi":69,"name":"A4","ticks":147600,"time":153.75,"velocity":0.6299212598425197},{"duration":0.23645833333333144,"durationTicks":227,"midi":67,"name":"G4","ticks":147840,"time":154,"velocity":0.6299212598425197},{"duration":0.23645833333333144,"durationTicks":227,"midi":67,"name":"G4","ticks":148080,"time":154.25,"velocity":0.6299212598425197},{"duration":0.23645833333333144,"durationTicks":227,"midi":67,"name":"G4","ticks":148320,"time":154.5,"velocity":0.6299212598425197},{"duration":0.23645833333333144,"durationTicks":227,"midi":67,"name":"G4","ticks":148560,"time":154.75,"velocity":0.6299212598425197},{"duration":0.11770833333332575,"durationTicks":113,"midi":67,"name":"G4","ticks":148800,"time":155,"velocity":0.6299212598425197},{"duration":0.11770833333332575,"durationTicks":113,"midi":67,"name":"G4","ticks":148920,"time":155.125,"velocity":0.6299212598425197},{"duration":0.11770833333332575,"durationTicks":113,"midi":66,"name":"F#4","ticks":149280,"time":155.5,"velocity":0.6299212598425197},{"duration":0.11770833333332575,"durationTicks":113,"midi":66,"name":"F#4","ticks":149400,"time":155.625,"velocity":0.6299212598425197},{"duration":0.4739583333333428,"durationTicks":455,"midi":76,"name":"E5","ticks":149760,"time":156,"velocity":0.6299212598425197},{"duration":0.23645833333333144,"durationTicks":227,"midi":76,"name":"E5","ticks":150240,"time":156.5,"velocity":0.6299212598425197},{"duration":0.23645833333333144,"durationTicks":227,"midi":76,"name":"E5","ticks":150480,"time":156.75,"velocity":0.6299212598425197},{"duration":0.7114583333333258,"durationTicks":683,"midi":79,"name":"G5","ticks":150720,"time":157,"velocity":0.6299212598425197},{"duration":0.11770833333332575,"durationTicks":113,"midi":79,"name":"G5","ticks":151440,"time":157.75,"velocity":0.6299212598425197},{"duration":0.11770833333332575,"durationTicks":113,"midi":81,"name":"A5","ticks":151560,"time":157.875,"velocity":0.6299212598425197},{"duration":0.23645833333333144,"durationTicks":227,"midi":83,"name":"B5","ticks":151680,"time":158,"velocity":0.6299212598425197},{"duration":0.23645833333333144,"durationTicks":227,"midi":82,"name":"A#5","ticks":151920,"time":158.25,"velocity":0.6299212598425197},{"duration":0.23645833333333144,"durationTicks":227,"midi":83,"name":"B5","ticks":152160,"time":158.5,"velocity":0.6299212598425197},{"duration":0.23645833333333144,"durationTicks":227,"midi":79,"name":"G5","ticks":152400,"time":158.75,"velocity":0.6299212598425197},{"duration":0.23645833333333144,"durationTicks":227,"midi":76,"name":"E5","ticks":152640,"time":159,"velocity":0.6299212598425197},{"duration":0.23645833333333144,"durationTicks":227,"midi":79,"name":"G5","ticks":152880,"time":159.25,"velocity":0.6299212598425197},{"duration":0.23645833333333144,"durationTicks":227,"midi":79,"name":"G5","ticks":153120,"time":159.5,"velocity":0.6299212598425197},{"duration":0.23645833333333144,"durationTicks":227,"midi":79,"name":"G5","ticks":153360,"time":159.75,"velocity":0.6299212598425197},{"duration":0.4739583333333428,"durationTicks":455,"midi":76,"name":"E5","ticks":153600,"time":160,"velocity":0.6299212598425197},{"duration":0.4739583333333428,"durationTicks":455,"midi":79,"name":"G5","ticks":153600,"time":160,"velocity":0.6299212598425197},{"duration":0.23645833333333144,"durationTicks":227,"midi":76,"name":"E5","ticks":154080,"time":160.5,"velocity":0.6299212598425197},{"duration":0.23645833333333144,"durationTicks":227,"midi":76,"name":"E5","ticks":154320,"time":160.75,"velocity":0.6299212598425197},{"duration":0.7114583333333258,"durationTicks":683,"midi":79,"name":"G5","ticks":154560,"time":161,"velocity":0.6299212598425197},{"duration":0.23645833333333144,"durationTicks":227,"midi":78,"name":"F#5","ticks":155280,"time":161.75,"velocity":0.6299212598425197},{"duration":0.23645833333333144,"durationTicks":227,"midi":79,"name":"G5","ticks":155520,"time":162,"velocity":0.6299212598425197},{"duration":0.23645833333333144,"durationTicks":227,"midi":79,"name":"G5","ticks":155760,"time":162.25,"velocity":0.6299212598425197},{"duration":0.23645833333333144,"durationTicks":227,"midi":79,"name":"G5","ticks":156000,"time":162.5,"velocity":0.6299212598425197},{"duration":0.23645833333333144,"durationTicks":227,"midi":79,"name":"G5","ticks":156240,"time":162.75,"velocity":0.6299212598425197},{"duration":0.11770833333332575,"durationTicks":113,"midi":79,"name":"G5","ticks":156480,"time":163,"velocity":0.6299212598425197},{"duration":0.11770833333332575,"durationTicks":113,"midi":79,"name":"G5","ticks":156600,"time":163.125,"velocity":0.6299212598425197},{"duration":0.11770833333332575,"durationTicks":113,"midi":78,"name":"F#5","ticks":156960,"time":163.5,"velocity":0.6299212598425197},{"duration":0.11770833333332575,"durationTicks":113,"midi":78,"name":"F#5","ticks":157080,"time":163.625,"velocity":0.6299212598425197},{"duration":0.4739583333333428,"durationTicks":455,"midi":76,"name":"E5","ticks":157440,"time":164,"velocity":0.6299212598425197},{"duration":0.23645833333333144,"durationTicks":227,"midi":76,"name":"E5","ticks":157920,"time":164.5,"velocity":0.6299212598425197},{"duration":0.23645833333333144,"durationTicks":227,"midi":76,"name":"E5","ticks":158160,"time":164.75,"velocity":0.6299212598425197},{"duration":0.7114583333333258,"durationTicks":683,"midi":79,"name":"G5","ticks":158400,"time":165,"velocity":0.6299212598425197},{"duration":0.11770833333332575,"durationTicks":113,"midi":79,"name":"G5","ticks":159120,"time":165.75,"velocity":0.6299212598425197},{"duration":0.11770833333332575,"durationTicks":113,"midi":81,"name":"A5","ticks":159240,"time":165.875,"velocity":0.6299212598425197},{"duration":0.23645833333333144,"durationTicks":227,"midi":83,"name":"B5","ticks":159360,"time":166,"velocity":0.6299212598425197},{"duration":0.23645833333333144,"durationTicks":227,"midi":82,"name":"A#5","ticks":159600,"time":166.25,"velocity":0.6299212598425197},{"duration":0.23645833333333144,"durationTicks":227,"midi":83,"name":"B5","ticks":159840,"time":166.5,"velocity":0.6299212598425197},{"duration":0.23645833333333144,"durationTicks":227,"midi":79,"name":"G5","ticks":160080,"time":166.75,"velocity":0.6299212598425197},{"duration":0.23645833333333144,"durationTicks":227,"midi":76,"name":"E5","ticks":160320,"time":167,"velocity":0.6299212598425197},{"duration":0.23645833333333144,"durationTicks":227,"midi":79,"name":"G5","ticks":160560,"time":167.25,"velocity":0.6299212598425197},{"duration":0.23645833333333144,"durationTicks":227,"midi":79,"name":"G5","ticks":160800,"time":167.5,"velocity":0.6299212598425197},{"duration":0.23645833333333144,"durationTicks":227,"midi":81,"name":"A5","ticks":161040,"time":167.75,"velocity":0.6299212598425197},{"duration":0.11770833333332575,"durationTicks":113,"midi":81,"name":"A5","ticks":161280,"time":168,"velocity":0.6299212598425197},{"duration":0.11770833333332575,"durationTicks":113,"midi":79,"name":"G5","ticks":161400,"time":168.125,"velocity":0.6299212598425197},{"duration":0.23645833333333144,"durationTicks":227,"midi":76,"name":"E5","ticks":161520,"time":168.25,"velocity":0.6299212598425197},{"duration":0.23645833333333144,"durationTicks":227,"midi":76,"name":"E5","ticks":161760,"time":168.5,"velocity":0.6299212598425197},{"duration":0.23645833333333144,"durationTicks":227,"midi":76,"name":"E5","ticks":162000,"time":168.75,"velocity":0.6299212598425197},{"duration":0.7114583333333258,"durationTicks":683,"midi":79,"name":"G5","ticks":162240,"time":169,"velocity":0.6299212598425197},{"duration":0.11770833333332575,"durationTicks":113,"midi":79,"name":"G5","ticks":162960,"time":169.75,"velocity":0.6299212598425197},{"duration":0.11770833333332575,"durationTicks":113,"midi":81,"name":"A5","ticks":163080,"time":169.875,"velocity":0.6299212598425197},{"duration":0.23645833333333144,"durationTicks":227,"midi":83,"name":"B5","ticks":163200,"time":170,"velocity":0.6299212598425197},{"duration":0.23645833333333144,"durationTicks":227,"midi":82,"name":"A#5","ticks":163440,"time":170.25,"velocity":0.6299212598425197},{"duration":0.23645833333333144,"durationTicks":227,"midi":83,"name":"B5","ticks":163680,"time":170.5,"velocity":0.6299212598425197},{"duration":0.23645833333333144,"durationTicks":227,"midi":79,"name":"G5","ticks":163920,"time":170.75,"velocity":0.6299212598425197},{"duration":0.23645833333333144,"durationTicks":227,"midi":76,"name":"E5","ticks":164160,"time":171,"velocity":0.6299212598425197},{"duration":0.23645833333333144,"durationTicks":227,"midi":76,"name":"E5","ticks":165120,"time":172,"velocity":0.6299212598425197},{"duration":0.23645833333333144,"durationTicks":227,"midi":76,"name":"E5","ticks":165360,"time":172.25,"velocity":0.6299212598425197},{"duration":0.23645833333333144,"durationTicks":227,"midi":76,"name":"E5","ticks":165600,"time":172.5,"velocity":0.6299212598425197},{"duration":0.23645833333333144,"durationTicks":227,"midi":76,"name":"E5","ticks":165840,"time":172.75,"velocity":0.6299212598425197},{"duration":0.3552083333333371,"durationTicks":341,"midi":76,"name":"E5","ticks":166080,"time":173,"velocity":0.6299212598425197},{"duration":0.3552083333333371,"durationTicks":341,"midi":71,"name":"B4","ticks":166440,"time":173.375,"velocity":0.6299212598425197},{"duration":0.23645833333333144,"durationTicks":227,"midi":71,"name":"B4","ticks":166800,"time":173.75,"velocity":0.6299212598425197},{"duration":0.3552083333333371,"durationTicks":341,"midi":72,"name":"C5","ticks":167040,"time":174,"velocity":0.6299212598425197},{"duration":0.3552083333333371,"durationTicks":341,"midi":72,"name":"C5","ticks":167400,"time":174.375,"velocity":0.6299212598425197},{"duration":0.23645833333333144,"durationTicks":227,"midi":74,"name":"D5","ticks":167760,"time":174.75,"velocity":0.6299212598425197},{"duration":0.3552083333333371,"durationTicks":341,"midi":72,"name":"C5","ticks":168000,"time":175,"velocity":0.6299212598425197},{"duration":0.3552083333333371,"durationTicks":341,"midi":71,"name":"B4","ticks":168360,"time":175.375,"velocity":0.6299212598425197},{"duration":0.23645833333333144,"durationTicks":227,"midi":71,"name":"B4","ticks":168720,"time":175.75,"velocity":0.6299212598425197},{"duration":1.4239583333333314,"durationTicks":1367,"midi":71,"name":"B4","ticks":168960,"time":176,"velocity":0.6299212598425197},{"duration":0.23645833333333144,"durationTicks":227,"midi":72,"name":"C5","ticks":170640,"time":177.75,"velocity":0.6299212598425197},{"duration":1.4239583333333314,"durationTicks":1367,"midi":71,"name":"B4","ticks":170880,"time":178,"velocity":0.6299212598425197},{"duration":0.23645833333333144,"durationTicks":227,"midi":76,"name":"E5","ticks":172800,"time":180,"velocity":0.6299212598425197},{"duration":0.23645833333333144,"durationTicks":227,"midi":76,"name":"E5","ticks":173040,"time":180.25,"velocity":0.6299212598425197},{"duration":0.23645833333333144,"durationTicks":227,"midi":76,"name":"E5","ticks":173280,"time":180.5,"velocity":0.6299212598425197},{"duration":0.23645833333333144,"durationTicks":227,"midi":76,"name":"E5","ticks":173520,"time":180.75,"velocity":0.6299212598425197},{"duration":0.3552083333333371,"durationTicks":341,"midi":76,"name":"E5","ticks":173760,"time":181,"velocity":0.6299212598425197},{"duration":0.3552083333333371,"durationTicks":341,"midi":71,"name":"B4","ticks":174120,"time":181.375,"velocity":0.6299212598425197},{"duration":0.23645833333333144,"durationTicks":227,"midi":71,"name":"B4","ticks":174480,"time":181.75,"velocity":0.6299212598425197},{"duration":0.3552083333333371,"durationTicks":341,"midi":72,"name":"C5","ticks":174720,"time":182,"velocity":0.6299212598425197},{"duration":0.3552083333333371,"durationTicks":341,"midi":72,"name":"C5","ticks":175080,"time":182.375,"velocity":0.6299212598425197},{"duration":0.23645833333333144,"durationTicks":227,"midi":74,"name":"D5","ticks":175440,"time":182.75,"velocity":0.6299212598425197},{"duration":0.3552083333333371,"durationTicks":341,"midi":72,"name":"C5","ticks":175680,"time":183,"velocity":0.6299212598425197},{"duration":0.3552083333333371,"durationTicks":341,"midi":71,"name":"B4","ticks":176040,"time":183.375,"velocity":0.6299212598425197},{"duration":0.23645833333333144,"durationTicks":227,"midi":71,"name":"B4","ticks":176400,"time":183.75,"velocity":0.6299212598425197},{"duration":1.4239583333333314,"durationTicks":1367,"midi":71,"name":"B4","ticks":176640,"time":184,"velocity":0.6299212598425197},{"duration":0.23645833333333144,"durationTicks":227,"midi":69,"name":"A4","ticks":178320,"time":185.75,"velocity":0.6299212598425197},{"duration":0.23645833333333144,"durationTicks":227,"midi":71,"name":"B4","ticks":178560,"time":186,"velocity":0.6299212598425197},{"duration":0.11770833333332575,"durationTicks":113,"midi":79,"name":"G5","ticks":178800,"time":186.25,"velocity":0.6299212598425197},{"duration":0.11770833333332575,"durationTicks":113,"midi":79,"name":"G5","ticks":178920,"time":186.375,"velocity":0.6299212598425197},{"duration":0.23645833333333144,"durationTicks":227,"midi":79,"name":"G5","ticks":179040,"time":186.5,"velocity":0.6299212598425197},{"duration":0.11770833333332575,"durationTicks":113,"midi":79,"name":"G5","ticks":179280,"time":186.75,"velocity":0.6299212598425197},{"duration":0.11770833333332575,"durationTicks":113,"midi":79,"name":"G5","ticks":179400,"time":186.875,"velocity":0.6299212598425197},{"duration":0.23645833333333144,"durationTicks":227,"midi":79,"name":"G5","ticks":179520,"time":187,"velocity":0.6299212598425197},{"duration":0.11770833333332575,"durationTicks":113,"midi":79,"name":"G5","ticks":179760,"time":187.25,"velocity":0.6299212598425197},{"duration":0.11770833333332575,"durationTicks":113,"midi":79,"name":"G5","ticks":179880,"time":187.375,"velocity":0.6299212598425197},{"duration":0.23645833333333144,"durationTicks":227,"midi":78,"name":"F#5","ticks":180000,"time":187.5,"velocity":0.6299212598425197},{"duration":0.7114583333333258,"durationTicks":683,"midi":64,"name":"E4","ticks":180480,"time":188,"velocity":0.6299212598425197},{"duration":0.9489583333333371,"durationTicks":911,"midi":76,"name":"E5","ticks":181200,"time":188.75,"velocity":0.6299212598425197},{"duration":0.11770833333332575,"durationTicks":113,"midi":79,"name":"G5","ticks":182160,"time":189.75,"velocity":0.6299212598425197},{"duration":0.11770833333332575,"durationTicks":113,"midi":81,"name":"A5","ticks":182280,"time":189.875,"velocity":0.6299212598425197},{"duration":0.23645833333333144,"durationTicks":227,"midi":83,"name":"B5","ticks":182400,"time":190,"velocity":0.6299212598425197},{"duration":0.23645833333333144,"durationTicks":227,"midi":81,"name":"A5","ticks":182640,"time":190.25,"velocity":0.6299212598425197},{"duration":0.23645833333333144,"durationTicks":227,"midi":83,"name":"B5","ticks":182880,"time":190.5,"velocity":0.6299212598425197},{"duration":0.23645833333333144,"durationTicks":227,"midi":79,"name":"G5","ticks":183120,"time":190.75,"velocity":0.6299212598425197},{"duration":0.4739583333333428,"durationTicks":455,"midi":76,"name":"E5","ticks":183360,"time":191,"velocity":0.6299212598425197},{"duration":0.11770833333332575,"durationTicks":113,"midi":79,"name":"G5","ticks":184080,"time":191.75,"velocity":0.6299212598425197},{"duration":0.11770833333332575,"durationTicks":113,"midi":81,"name":"A5","ticks":184200,"time":191.875,"velocity":0.6299212598425197},{"duration":0.23645833333333144,"durationTicks":227,"midi":83,"name":"B5","ticks":184320,"time":192,"velocity":0.6299212598425197},{"duration":0.23645833333333144,"durationTicks":227,"midi":81,"name":"A5","ticks":184560,"time":192.25,"velocity":0.6299212598425197},{"duration":0.23645833333333144,"durationTicks":227,"midi":83,"name":"B5","ticks":184800,"time":192.5,"velocity":0.6299212598425197},{"duration":0.23645833333333144,"durationTicks":227,"midi":79,"name":"G5","ticks":185040,"time":192.75,"velocity":0.6299212598425197},{"duration":0.4739583333333428,"durationTicks":455,"midi":76,"name":"E5","ticks":185280,"time":193,"velocity":0.6299212598425197},{"duration":0.11770833333332575,"durationTicks":113,"midi":79,"name":"G5","ticks":186480,"time":194.25,"velocity":0.6299212598425197},{"duration":0.11770833333332575,"durationTicks":113,"midi":79,"name":"G5","ticks":186600,"time":194.375,"velocity":0.6299212598425197},{"duration":0.23645833333333144,"durationTicks":227,"midi":79,"name":"G5","ticks":186720,"time":194.5,"velocity":0.6299212598425197},{"duration":0.11770833333332575,"durationTicks":113,"midi":79,"name":"G5","ticks":186960,"time":194.75,"velocity":0.6299212598425197},{"duration":0.11770833333332575,"durationTicks":113,"midi":79,"name":"G5","ticks":187080,"time":194.875,"velocity":0.6299212598425197},{"duration":0.23645833333333144,"durationTicks":227,"midi":79,"name":"G5","ticks":187200,"time":195,"velocity":0.6299212598425197},{"duration":0.11770833333332575,"durationTicks":113,"midi":79,"name":"G5","ticks":187440,"time":195.25,"velocity":0.6299212598425197},{"duration":0.11770833333332575,"durationTicks":113,"midi":79,"name":"G5","ticks":187560,"time":195.375,"velocity":0.6299212598425197},{"duration":0.23645833333333144,"durationTicks":227,"midi":78,"name":"F#5","ticks":187680,"time":195.5,"velocity":0.6299212598425197},{"duration":0.7114583333333258,"durationTicks":683,"midi":64,"name":"E4","ticks":188160,"time":196,"velocity":0.6299212598425197},{"duration":0.9489583333333371,"durationTicks":911,"midi":76,"name":"E5","ticks":188880,"time":196.75,"velocity":0.6299212598425197},{"duration":0.11770833333332575,"durationTicks":113,"midi":79,"name":"G5","ticks":189840,"time":197.75,"velocity":0.6299212598425197},{"duration":0.11770833333332575,"durationTicks":113,"midi":81,"name":"A5","ticks":189960,"time":197.875,"velocity":0.6299212598425197},{"duration":0.23645833333333144,"durationTicks":227,"midi":83,"name":"B5","ticks":190080,"time":198,"velocity":0.6299212598425197},{"duration":0.23645833333333144,"durationTicks":227,"midi":81,"name":"A5","ticks":190320,"time":198.25,"velocity":0.6299212598425197},{"duration":0.23645833333333144,"durationTicks":227,"midi":83,"name":"B5","ticks":190560,"time":198.5,"velocity":0.6299212598425197},{"duration":0.23645833333333144,"durationTicks":227,"midi":79,"name":"G5","ticks":190800,"time":198.75,"velocity":0.6299212598425197},{"duration":0.4739583333333428,"durationTicks":455,"midi":76,"name":"E5","ticks":191040,"time":199,"velocity":0.6299212598425197},{"duration":0.11770833333332575,"durationTicks":113,"midi":79,"name":"G5","ticks":191760,"time":199.75,"velocity":0.6299212598425197},{"duration":0.11770833333332575,"durationTicks":113,"midi":81,"name":"A5","ticks":191880,"time":199.875,"velocity":0.6299212598425197},{"duration":0.23645833333333144,"durationTicks":227,"midi":83,"name":"B5","ticks":192000,"time":200,"velocity":0.6299212598425197},{"duration":0.23645833333333144,"durationTicks":227,"midi":81,"name":"A5","ticks":192240,"time":200.25,"velocity":0.6299212598425197},{"duration":0.23645833333333144,"durationTicks":227,"midi":83,"name":"B5","ticks":192480,"time":200.5,"velocity":0.6299212598425197},{"duration":0.23645833333333144,"durationTicks":227,"midi":79,"name":"G5","ticks":192720,"time":200.75,"velocity":0.6299212598425197},{"duration":0.4739583333333428,"durationTicks":455,"midi":76,"name":"E5","ticks":192960,"time":201,"velocity":0.6299212598425197},{"duration":0.23645833333333144,"durationTicks":227,"midi":74,"name":"D5","ticks":195120,"time":203.25,"velocity":0.6299212598425197},{"duration":0.23645833333333144,"durationTicks":227,"midi":79,"name":"G5","ticks":195120,"time":203.25,"velocity":0.6299212598425197},{"duration":0.4739583333333428,"durationTicks":455,"midi":66,"name":"F#4","ticks":195360,"time":203.5,"velocity":0.6299212598425197},{"duration":0.4739583333333428,"durationTicks":455,"midi":74,"name":"D5","ticks":195360,"time":203.5,"velocity":0.6299212598425197},{"duration":0.4739583333333428,"durationTicks":455,"midi":78,"name":"F#5","ticks":195360,"time":203.5,"velocity":0.6299212598425197},{"duration":0.4739583333333428,"durationTicks":455,"midi":76,"name":"E5","ticks":195840,"time":204,"velocity":0.6299212598425197},{"duration":0.23645833333333144,"durationTicks":227,"midi":76,"name":"E5","ticks":196320,"time":204.5,"velocity":0.6299212598425197},{"duration":0.23645833333333144,"durationTicks":227,"midi":76,"name":"E5","ticks":196560,"time":204.75,"velocity":0.6299212598425197},{"duration":0.23645833333333144,"durationTicks":227,"midi":77,"name":"F5","ticks":196800,"time":205,"velocity":0.6299212598425197},{"duration":0.23645833333333144,"durationTicks":227,"midi":76,"name":"E5","ticks":197040,"time":205.25,"velocity":0.6299212598425197},{"duration":0.23645833333333144,"durationTicks":227,"midi":76,"name":"E5","ticks":197280,"time":205.5,"velocity":0.6299212598425197},{"duration":0.23645833333333144,"durationTicks":227,"midi":77,"name":"F5","ticks":197520,"time":205.75,"velocity":0.6299212598425197},{"duration":0.23645833333333144,"durationTicks":227,"midi":76,"name":"E5","ticks":197760,"time":206,"velocity":0.6299212598425197},{"duration":0.23645833333333144,"durationTicks":227,"midi":76,"name":"E5","ticks":198000,"time":206.25,"velocity":0.6299212598425197},{"duration":0.23645833333333144,"durationTicks":227,"midi":76,"name":"E5","ticks":198240,"time":206.5,"velocity":0.6299212598425197},{"duration":0.23645833333333144,"durationTicks":227,"midi":71,"name":"B4","ticks":198480,"time":206.75,"velocity":0.6299212598425197},{"duration":0.23645833333333144,"durationTicks":227,"midi":77,"name":"F5","ticks":198720,"time":207,"velocity":0.6299212598425197},{"duration":0.23645833333333144,"durationTicks":227,"midi":76,"name":"E5","ticks":198960,"time":207.25,"velocity":0.6299212598425197},{"duration":0.23645833333333144,"durationTicks":227,"midi":76,"name":"E5","ticks":199200,"time":207.5,"velocity":0.6299212598425197},{"duration":0.23645833333333144,"durationTicks":227,"midi":83,"name":"B5","ticks":199440,"time":207.75,"velocity":0.6299212598425197},{"duration":0.4739583333333428,"durationTicks":455,"midi":76,"name":"E5","ticks":199680,"time":208,"velocity":0.6299212598425197},{"duration":0.23645833333333144,"durationTicks":227,"midi":76,"name":"E5","ticks":200160,"time":208.5,"velocity":0.6299212598425197},{"duration":0.23645833333333144,"durationTicks":227,"midi":76,"name":"E5","ticks":200400,"time":208.75,"velocity":0.6299212598425197},{"duration":0.23645833333333144,"durationTicks":227,"midi":77,"name":"F5","ticks":200640,"time":209,"velocity":0.6299212598425197},{"duration":0.23645833333333144,"durationTicks":227,"midi":76,"name":"E5","ticks":200880,"time":209.25,"velocity":0.6299212598425197},{"duration":0.23645833333333144,"durationTicks":227,"midi":76,"name":"E5","ticks":201120,"time":209.5,"velocity":0.6299212598425197},{"duration":0.23645833333333144,"durationTicks":227,"midi":77,"name":"F5","ticks":201360,"time":209.75,"velocity":0.6299212598425197},{"duration":0.23645833333333144,"durationTicks":227,"midi":76,"name":"E5","ticks":201600,"time":210,"velocity":0.6299212598425197},{"duration":0.23645833333333144,"durationTicks":227,"midi":76,"name":"E5","ticks":201840,"time":210.25,"velocity":0.6299212598425197},{"duration":0.23645833333333144,"durationTicks":227,"midi":76,"name":"E5","ticks":202080,"time":210.5,"velocity":0.6299212598425197},{"duration":0.23645833333333144,"durationTicks":227,"midi":71,"name":"B4","ticks":202320,"time":210.75,"velocity":0.6299212598425197},{"duration":0.23645833333333144,"durationTicks":227,"midi":77,"name":"F5","ticks":202560,"time":211,"velocity":0.6299212598425197},{"duration":0.23645833333333144,"durationTicks":227,"midi":76,"name":"E5","ticks":202800,"time":211.25,"velocity":0.6299212598425197},{"duration":0.23645833333333144,"durationTicks":227,"midi":76,"name":"E5","ticks":203040,"time":211.5,"velocity":0.6299212598425197},{"duration":0.23645833333333144,"durationTicks":227,"midi":83,"name":"B5","ticks":203280,"time":211.75,"velocity":0.6299212598425197},{"duration":0.23645833333333144,"durationTicks":227,"midi":83,"name":"B5","ticks":203520,"time":212,"velocity":0.6299212598425197},{"duration":0.11770833333332575,"durationTicks":113,"midi":83,"name":"B5","ticks":203760,"time":212.25,"velocity":0.6299212598425197},{"duration":0.11770833333332575,"durationTicks":113,"midi":79,"name":"G5","ticks":203880,"time":212.375,"velocity":0.6299212598425197},{"duration":0.23645833333333144,"durationTicks":227,"midi":76,"name":"E5","ticks":204000,"time":212.5,"velocity":0.6299212598425197},{"duration":0.23645833333333144,"durationTicks":227,"midi":83,"name":"B5","ticks":204240,"time":212.75,"velocity":0.6299212598425197},{"duration":0.11770833333332575,"durationTicks":113,"midi":83,"name":"B5","ticks":204480,"time":213,"velocity":0.6299212598425197},{"duration":0.11770833333332575,"durationTicks":113,"midi":79,"name":"G5","ticks":204600,"time":213.125,"velocity":0.6299212598425197},{"duration":0.23645833333333144,"durationTicks":227,"midi":76,"name":"E5","ticks":204720,"time":213.25,"velocity":0.6299212598425197},{"duration":0.23645833333333144,"durationTicks":227,"midi":76,"name":"E5","ticks":204960,"time":213.5,"velocity":0.6299212598425197},{"duration":0.23645833333333144,"durationTicks":227,"midi":78,"name":"F#5","ticks":205200,"time":213.75,"velocity":0.6299212598425197},{"duration":0.23645833333333144,"durationTicks":227,"midi":83,"name":"B5","ticks":205440,"time":214,"velocity":0.6299212598425197},{"duration":0.11770833333332575,"durationTicks":113,"midi":83,"name":"B5","ticks":205680,"time":214.25,"velocity":0.6299212598425197},{"duration":0.11770833333332575,"durationTicks":113,"midi":79,"name":"G5","ticks":205800,"time":214.375,"velocity":0.6299212598425197},{"duration":0.23645833333333144,"durationTicks":227,"midi":76,"name":"E5","ticks":205920,"time":214.5,"velocity":0.6299212598425197},{"duration":0.23645833333333144,"durationTicks":227,"midi":83,"name":"B5","ticks":206160,"time":214.75,"velocity":0.6299212598425197},{"duration":0.11770833333332575,"durationTicks":113,"midi":83,"name":"B5","ticks":206400,"time":215,"velocity":0.6299212598425197},{"duration":0.11770833333332575,"durationTicks":113,"midi":79,"name":"G5","ticks":206520,"time":215.125,"velocity":0.6299212598425197},{"duration":0.23645833333333144,"durationTicks":227,"midi":76,"name":"E5","ticks":206640,"time":215.25,"velocity":0.6299212598425197},{"duration":0.23645833333333144,"durationTicks":227,"midi":76,"name":"E5","ticks":206880,"time":215.5,"velocity":0.6299212598425197},{"duration":0.23645833333333144,"durationTicks":227,"midi":78,"name":"F#5","ticks":207120,"time":215.75,"velocity":0.6299212598425197},{"duration":0.23645833333333144,"durationTicks":227,"midi":83,"name":"B5","ticks":207360,"time":216,"velocity":0.6299212598425197},{"duration":0.11770833333332575,"durationTicks":113,"midi":83,"name":"B5","ticks":207600,"time":216.25,"velocity":0.6299212598425197},{"duration":0.11770833333332575,"durationTicks":113,"midi":79,"name":"G5","ticks":207720,"time":216.375,"velocity":0.6299212598425197},{"duration":0.23645833333333144,"durationTicks":227,"midi":76,"name":"E5","ticks":207840,"time":216.5,"velocity":0.6299212598425197},{"duration":0.23645833333333144,"durationTicks":227,"midi":83,"name":"B5","ticks":208080,"time":216.75,"velocity":0.6299212598425197},{"duration":0.11770833333332575,"durationTicks":113,"midi":83,"name":"B5","ticks":208320,"time":217,"velocity":0.6299212598425197},{"duration":0.11770833333332575,"durationTicks":113,"midi":79,"name":"G5","ticks":208440,"time":217.125,"velocity":0.6299212598425197},{"duration":0.23645833333333144,"durationTicks":227,"midi":76,"name":"E5","ticks":208560,"time":217.25,"velocity":0.6299212598425197},{"duration":0.23645833333333144,"durationTicks":227,"midi":76,"name":"E5","ticks":208800,"time":217.5,"velocity":0.6299212598425197},{"duration":0.23645833333333144,"durationTicks":227,"midi":78,"name":"F#5","ticks":209040,"time":217.75,"velocity":0.6299212598425197},{"duration":0.11770833333332575,"durationTicks":113,"midi":79,"name":"G5","ticks":209520,"time":218.25,"velocity":0.6299212598425197},{"duration":0.11770833333332575,"durationTicks":113,"midi":79,"name":"G5","ticks":209640,"time":218.375,"velocity":0.6299212598425197},{"duration":0.23645833333333144,"durationTicks":227,"midi":79,"name":"G5","ticks":209760,"time":218.5,"velocity":0.6299212598425197},{"duration":0.11770833333332575,"durationTicks":113,"midi":79,"name":"G5","ticks":210000,"time":218.75,"velocity":0.6299212598425197},{"duration":0.11770833333332575,"durationTicks":113,"midi":79,"name":"G5","ticks":210120,"time":218.875,"velocity":0.6299212598425197},{"duration":0.23645833333333144,"durationTicks":227,"midi":79,"name":"G5","ticks":210240,"time":219,"velocity":0.6299212598425197},{"duration":0.11770833333332575,"durationTicks":113,"midi":79,"name":"G5","ticks":210480,"time":219.25,"velocity":0.6299212598425197},{"duration":0.11770833333332575,"durationTicks":113,"midi":79,"name":"G5","ticks":210600,"time":219.375,"velocity":0.6299212598425197},{"duration":0.23645833333333144,"durationTicks":227,"midi":78,"name":"F#5","ticks":210720,"time":219.5,"velocity":0.6299212598425197},{"duration":0.23645833333333144,"durationTicks":227,"midi":78,"name":"F#5","ticks":210960,"time":219.75,"velocity":0.6299212598425197},{"duration":0.4739583333333428,"durationTicks":455,"midi":76,"name":"E5","ticks":211200,"time":220,"velocity":0.6299212598425197},{"duration":0.4739583333333428,"durationTicks":455,"midi":76,"name":"E5","ticks":211680,"time":220.5,"velocity":0.6299212598425197},{"duration":0.23645833333333144,"durationTicks":227,"midi":77,"name":"F5","ticks":212160,"time":221,"velocity":0.6299212598425197},{"duration":0.23645833333333144,"durationTicks":227,"midi":76,"name":"E5","ticks":212400,"time":221.25,"velocity":0.6299212598425197},{"duration":0.23645833333333144,"durationTicks":227,"midi":76,"name":"E5","ticks":212640,"time":221.5,"velocity":0.6299212598425197},{"duration":0.23645833333333144,"durationTicks":227,"midi":77,"name":"F5","ticks":212880,"time":221.75,"velocity":0.6299212598425197},{"duration":0.23645833333333144,"durationTicks":227,"midi":76,"name":"E5","ticks":213120,"time":222,"velocity":0.6299212598425197},{"duration":0.23645833333333144,"durationTicks":227,"midi":76,"name":"E5","ticks":213360,"time":222.25,"velocity":0.6299212598425197},{"duration":0.23645833333333144,"durationTicks":227,"midi":76,"name":"E5","ticks":213600,"time":222.5,"velocity":0.6299212598425197},{"duration":0.23645833333333144,"durationTicks":227,"midi":71,"name":"B4","ticks":213840,"time":222.75,"velocity":0.6299212598425197},{"duration":0.23645833333333144,"durationTicks":227,"midi":77,"name":"F5","ticks":214080,"time":223,"velocity":0.6299212598425197},{"duration":0.23645833333333144,"durationTicks":227,"midi":76,"name":"E5","ticks":214320,"time":223.25,"velocity":0.6299212598425197},{"duration":0.23645833333333144,"durationTicks":227,"midi":76,"name":"E5","ticks":214560,"time":223.5,"velocity":0.6299212598425197},{"duration":0.23645833333333144,"durationTicks":227,"midi":83,"name":"B5","ticks":214800,"time":223.75,"velocity":0.6299212598425197},{"duration":0.4739583333333428,"durationTicks":455,"midi":76,"name":"E5","ticks":215040,"time":224,"velocity":0.6299212598425197},{"duration":0.4739583333333428,"durationTicks":455,"midi":76,"name":"E5","ticks":215520,"time":224.5,"velocity":0.6299212598425197},{"duration":0.23645833333333144,"durationTicks":227,"midi":77,"name":"F5","ticks":216000,"time":225,"velocity":0.6299212598425197},{"duration":0.23645833333333144,"durationTicks":227,"midi":76,"name":"E5","ticks":216240,"time":225.25,"velocity":0.6299212598425197},{"duration":0.23645833333333144,"durationTicks":227,"midi":76,"name":"E5","ticks":216480,"time":225.5,"velocity":0.6299212598425197},{"duration":0.23645833333333144,"durationTicks":227,"midi":77,"name":"F5","ticks":216720,"time":225.75,"velocity":0.6299212598425197},{"duration":0.23645833333333144,"durationTicks":227,"midi":76,"name":"E5","ticks":216960,"time":226,"velocity":0.6299212598425197},{"duration":0.23645833333333144,"durationTicks":227,"midi":76,"name":"E5","ticks":217200,"time":226.25,"velocity":0.6299212598425197},{"duration":0.23645833333333144,"durationTicks":227,"midi":76,"name":"E5","ticks":217440,"time":226.5,"velocity":0.6299212598425197},{"duration":0.23645833333333144,"durationTicks":227,"midi":71,"name":"B4","ticks":217680,"time":226.75,"velocity":0.6299212598425197},{"duration":0.23645833333333144,"durationTicks":227,"midi":77,"name":"F5","ticks":217920,"time":227,"velocity":0.6299212598425197},{"duration":0.23645833333333144,"durationTicks":227,"midi":76,"name":"E5","ticks":218160,"time":227.25,"velocity":0.6299212598425197},{"duration":0.23645833333333144,"durationTicks":227,"midi":76,"name":"E5","ticks":218400,"time":227.5,"velocity":0.6299212598425197},{"duration":0.23645833333333144,"durationTicks":227,"midi":83,"name":"B5","ticks":218640,"time":227.75,"velocity":0.6299212598425197},{"duration":0.23645833333333144,"durationTicks":227,"midi":79,"name":"G5","ticks":218880,"time":228,"velocity":0.6299212598425197},{"duration":0.11770833333332575,"durationTicks":113,"midi":79,"name":"G5","ticks":219120,"time":228.25,"velocity":0.6299212598425197},{"duration":0.11770833333332575,"durationTicks":113,"midi":78,"name":"F#5","ticks":219240,"time":228.375,"velocity":0.6299212598425197},{"duration":0.23645833333333144,"durationTicks":227,"midi":76,"name":"E5","ticks":219360,"time":228.5,"velocity":0.6299212598425197},{"duration":0.23645833333333144,"durationTicks":227,"midi":79,"name":"G5","ticks":219600,"time":228.75,"velocity":0.6299212598425197},{"duration":0.11770833333332575,"durationTicks":113,"midi":79,"name":"G5","ticks":219840,"time":229,"velocity":0.6299212598425197},{"duration":0.11770833333332575,"durationTicks":113,"midi":78,"name":"F#5","ticks":219960,"time":229.125,"velocity":0.6299212598425197},{"duration":0.23645833333333144,"durationTicks":227,"midi":76,"name":"E5","ticks":220080,"time":229.25,"velocity":0.6299212598425197},{"duration":0.23645833333333144,"durationTicks":227,"midi":76,"name":"E5","ticks":220320,"time":229.5,"velocity":0.6299212598425197},{"duration":0.23645833333333144,"durationTicks":227,"midi":78,"name":"F#5","ticks":220560,"time":229.75,"velocity":0.6299212598425197},{"duration":0.23645833333333144,"durationTicks":227,"midi":79,"name":"G5","ticks":220800,"time":230,"velocity":0.6299212598425197},{"duration":0.11770833333332575,"durationTicks":113,"midi":79,"name":"G5","ticks":221040,"time":230.25,"velocity":0.6299212598425197},{"duration":0.11770833333332575,"durationTicks":113,"midi":78,"name":"F#5","ticks":221160,"time":230.375,"velocity":0.6299212598425197},{"duration":0.23645833333333144,"durationTicks":227,"midi":76,"name":"E5","ticks":221280,"time":230.5,"velocity":0.6299212598425197},{"duration":0.23645833333333144,"durationTicks":227,"midi":79,"name":"G5","ticks":221520,"time":230.75,"velocity":0.6299212598425197},{"duration":0.11770833333332575,"durationTicks":113,"midi":79,"name":"G5","ticks":221760,"time":231,"velocity":0.6299212598425197},{"duration":0.11770833333332575,"durationTicks":113,"midi":78,"name":"F#5","ticks":221880,"time":231.125,"velocity":0.6299212598425197},{"duration":0.23645833333333144,"durationTicks":227,"midi":76,"name":"E5","ticks":222000,"time":231.25,"velocity":0.6299212598425197},{"duration":0.23645833333333144,"durationTicks":227,"midi":76,"name":"E5","ticks":222240,"time":231.5,"velocity":0.6299212598425197},{"duration":0.23645833333333144,"durationTicks":227,"midi":78,"name":"F#5","ticks":222480,"time":231.75,"velocity":0.6299212598425197},{"duration":0.23645833333333144,"durationTicks":227,"midi":83,"name":"B5","ticks":222720,"time":232,"velocity":0.6299212598425197},{"duration":0.11770833333332575,"durationTicks":113,"midi":83,"name":"B5","ticks":222960,"time":232.25,"velocity":0.6299212598425197},{"duration":0.11770833333332575,"durationTicks":113,"midi":79,"name":"G5","ticks":223080,"time":232.375,"velocity":0.6299212598425197},{"duration":0.23645833333333144,"durationTicks":227,"midi":76,"name":"E5","ticks":223200,"time":232.5,"velocity":0.6299212598425197},{"duration":0.23645833333333144,"durationTicks":227,"midi":83,"name":"B5","ticks":223440,"time":232.75,"velocity":0.6299212598425197},{"duration":0.11770833333332575,"durationTicks":113,"midi":83,"name":"B5","ticks":223680,"time":233,"velocity":0.6299212598425197},{"duration":0.11770833333332575,"durationTicks":113,"midi":79,"name":"G5","ticks":223800,"time":233.125,"velocity":0.6299212598425197},{"duration":0.23645833333333144,"durationTicks":227,"midi":76,"name":"E5","ticks":223920,"time":233.25,"velocity":0.6299212598425197},{"duration":0.23645833333333144,"durationTicks":227,"midi":76,"name":"E5","ticks":224160,"time":233.5,"velocity":0.6299212598425197},{"duration":0.23645833333333144,"durationTicks":227,"midi":78,"name":"F#5","ticks":224400,"time":233.75,"velocity":0.6299212598425197},{"duration":0.23645833333333144,"durationTicks":227,"midi":79,"name":"G5","ticks":224640,"time":234,"velocity":0.6299212598425197},{"duration":0.23645833333333144,"durationTicks":227,"midi":79,"name":"G5","ticks":224880,"time":234.25,"velocity":0.6299212598425197},{"duration":0.23645833333333144,"durationTicks":227,"midi":79,"name":"G5","ticks":225120,"time":234.5,"velocity":0.6299212598425197},{"duration":0.23645833333333144,"durationTicks":227,"midi":79,"name":"G5","ticks":225360,"time":234.75,"velocity":0.6299212598425197},{"duration":0.11770833333332575,"durationTicks":113,"midi":79,"name":"G5","ticks":225600,"time":235,"velocity":0.6299212598425197},{"duration":0.11770833333332575,"durationTicks":113,"midi":79,"name":"G5","ticks":225720,"time":235.125,"velocity":0.6299212598425197},{"duration":0.11770833333332575,"durationTicks":113,"midi":78,"name":"F#5","ticks":226080,"time":235.5,"velocity":0.6299212598425197},{"duration":0.11770833333332575,"durationTicks":113,"midi":78,"name":"F#5","ticks":226200,"time":235.625,"velocity":0.6299212598425197},{"duration":0.4739583333333428,"durationTicks":455,"midi":64,"name":"E4","ticks":226560,"time":236,"velocity":0.6299212598425197},{"duration":0.4739583333333428,"durationTicks":455,"midi":67,"name":"G4","ticks":226560,"time":236,"velocity":0.6299212598425197},{"duration":0.4739583333333428,"durationTicks":455,"midi":71,"name":"B4","ticks":226560,"time":236,"velocity":0.6299212598425197},{"duration":0.4739583333333428,"durationTicks":455,"midi":76,"name":"E5","ticks":226560,"time":236,"velocity":0.6299212598425197}]},{"instrument_number":0,"notes":[{"duration":0.23645833333333321,"durationTicks":227,"midi":55,"name":"G3","ticks":6960,"time":7.25,"velocity":0.6299212598425197},{"duration":0.47395833333333304,"durationTicks":455,"midi":54,"name":"F#3","ticks":7200,"time":7.5,"velocity":0.6299212598425197},{"duration":0.23645833333333321,"durationTicks":227,"midi":52,"name":"E3","ticks":7680,"time":8,"velocity":0.6299212598425197},{"duration":0.23645833333333321,"durationTicks":227,"midi":55,"name":"G3","ticks":7920,"time":8.25,"velocity":0.6299212598425197},{"duration":0.23645833333333321,"durationTicks":227,"midi":59,"name":"B3","ticks":8160,"time":8.5,"velocity":0.6299212598425197},{"duration":0.23645833333333321,"durationTicks":227,"midi":52,"name":"E3","ticks":8400,"time":8.75,"velocity":0.6299212598425197},{"duration":0.23645833333333321,"durationTicks":227,"midi":55,"name":"G3","ticks":8640,"time":9,"velocity":0.6299212598425197},{"duration":0.23645833333333321,"durationTicks":227,"midi":59,"name":"B3","ticks":8880,"time":9.25,"velocity":0.6299212598425197},{"duration":0.23645833333333321,"durationTicks":227,"midi":52,"name":"E3","ticks":9120,"time":9.5,"velocity":0.6299212598425197},{"duration":0.23645833333333321,"durationTicks":227,"midi":55,"name":"G3","ticks":9360,"time":9.75,"velocity":0.6299212598425197},{"duration":0.23645833333333321,"durationTicks":227,"midi":48,"name":"C3","ticks":9600,"time":10,"velocity":0.6299212598425197},{"duration":0.23645833333333321,"durationTicks":227,"midi":52,"name":"E3","ticks":9840,"time":10.25,"velocity":0.6299212598425197},{"duration":0.23645833333333321,"durationTicks":227,"midi":55,"name":"G3","ticks":10080,"time":10.5,"velocity":0.6299212598425197},{"duration":0.23645833333333321,"durationTicks":227,"midi":48,"name":"C3","ticks":10320,"time":10.75,"velocity":0.6299212598425197},{"duration":0.23645833333333321,"durationTicks":227,"midi":52,"name":"E3","ticks":10560,"time":11,"velocity":0.6299212598425197},{"duration":0.23645833333333321,"durationTicks":227,"midi":55,"name":"G3","ticks":10800,"time":11.25,"velocity":0.6299212598425197},{"duration":0.23645833333333321,"durationTicks":227,"midi":48,"name":"C3","ticks":11040,"time":11.5,"velocity":0.6299212598425197},{"duration":0.23645833333333321,"durationTicks":227,"midi":52,"name":"E3","ticks":11280,"time":11.75,"velocity":0.6299212598425197},{"duration":0.23645833333333321,"durationTicks":227,"midi":55,"name":"G3","ticks":11520,"time":12,"velocity":0.6299212598425197},{"duration":0.23645833333333321,"durationTicks":227,"midi":59,"name":"B3","ticks":11760,"time":12.25,"velocity":0.6299212598425197},{"duration":0.23645833333333321,"durationTicks":227,"midi":62,"name":"D4","ticks":12000,"time":12.5,"velocity":0.6299212598425197},{"duration":0.23645833333333321,"durationTicks":227,"midi":55,"name":"G3","ticks":12240,"time":12.75,"velocity":0.6299212598425197},{"duration":0.23645833333333321,"durationTicks":227,"midi":59,"name":"B3","ticks":12480,"time":13,"velocity":0.6299212598425197},{"duration":0.23645833333333321,"durationTicks":227,"midi":62,"name":"D4","ticks":12720,"time":13.25,"velocity":0.6299212598425197},{"duration":0.23645833333333321,"durationTicks":227,"midi":55,"name":"G3","ticks":12960,"time":13.5,"velocity":0.6299212598425197},{"duration":0.23645833333333321,"durationTicks":227,"midi":59,"name":"B3","ticks":13200,"time":13.75,"velocity":0.6299212598425197},{"duration":0.23645833333333321,"durationTicks":227,"midi":50,"name":"D3","ticks":13440,"time":14,"velocity":0.6299212598425197},{"duration":0.23645833333333321,"durationTicks":227,"midi":54,"name":"F#3","ticks":13680,"time":14.25,"velocity":0.6299212598425197},{"duration":0.23645833333333321,"durationTicks":227,"midi":57,"name":"A3","ticks":13920,"time":14.5,"velocity":0.6299212598425197},{"duration":0.23645833333333321,"durationTicks":227,"midi":50,"name":"D3","ticks":14160,"time":14.75,"velocity":0.6299212598425197},{"duration":0.23645833333333321,"durationTicks":227,"midi":54,"name":"F#3","ticks":14400,"time":15,"velocity":0.6299212598425197},{"duration":0.23645833333333321,"durationTicks":227,"midi":57,"name":"A3","ticks":14640,"time":15.25,"velocity":0.6299212598425197},{"duration":0.23645833333333321,"durationTicks":227,"midi":50,"name":"D3","ticks":14880,"time":15.5,"velocity":0.6299212598425197},{"duration":0.23645833333333321,"durationTicks":227,"midi":54,"name":"F#3","ticks":15120,"time":15.75,"velocity":0.6299212598425197},{"duration":0.236458333333335,"durationTicks":227,"midi":52,"name":"E3","ticks":15360,"time":16,"velocity":0.6299212598425197},{"duration":0.236458333333335,"durationTicks":227,"midi":55,"name":"G3","ticks":15600,"time":16.25,"velocity":0.6299212598425197},{"duration":0.236458333333335,"durationTicks":227,"midi":59,"name":"B3","ticks":15840,"time":16.5,"velocity":0.6299212598425197},{"duration":0.236458333333335,"durationTicks":227,"midi":52,"name":"E3","ticks":16080,"time":16.75,"velocity":0.6299212598425197},{"duration":0.236458333333335,"durationTicks":227,"midi":55,"name":"G3","ticks":16320,"time":17,"velocity":0.6299212598425197},{"duration":0.236458333333335,"durationTicks":227,"midi":59,"name":"B3","ticks":16560,"time":17.25,"velocity":0.6299212598425197},{"duration":0.236458333333335,"durationTicks":227,"midi":52,"name":"E3","ticks":16800,"time":17.5,"velocity":0.6299212598425197},{"duration":0.236458333333335,"durationTicks":227,"midi":55,"name":"G3","ticks":17040,"time":17.75,"velocity":0.6299212598425197},{"duration":0.236458333333335,"durationTicks":227,"midi":48,"name":"C3","ticks":17280,"time":18,"velocity":0.6299212598425197},{"duration":0.236458333333335,"durationTicks":227,"midi":52,"name":"E3","ticks":17520,"time":18.25,"velocity":0.6299212598425197},{"duration":0.236458333333335,"durationTicks":227,"midi":55,"name":"G3","ticks":17760,"time":18.5,"velocity":0.6299212598425197},{"duration":0.236458333333335,"durationTicks":227,"midi":48,"name":"C3","ticks":18000,"time":18.75,"velocity":0.6299212598425197},{"duration":0.236458333333335,"durationTicks":227,"midi":52,"name":"E3","ticks":18240,"time":19,"velocity":0.6299212598425197},{"duration":0.236458333333335,"durationTicks":227,"midi":55,"name":"G3","ticks":18480,"time":19.25,"velocity":0.6299212598425197},{"duration":0.236458333333335,"durationTicks":227,"midi":48,"name":"C3","ticks":18720,"time":19.5,"velocity":0.6299212598425197},{"duration":0.236458333333335,"durationTicks":227,"midi":52,"name":"E3","ticks":18960,"time":19.75,"velocity":0.6299212598425197},{"duration":0.236458333333335,"durationTicks":227,"midi":55,"name":"G3","ticks":19200,"time":20,"velocity":0.6299212598425197},{"duration":0.236458333333335,"durationTicks":227,"midi":59,"name":"B3","ticks":19440,"time":20.25,"velocity":0.6299212598425197},{"duration":0.236458333333335,"durationTicks":227,"midi":62,"name":"D4","ticks":19680,"time":20.5,"velocity":0.6299212598425197},{"duration":0.236458333333335,"durationTicks":227,"midi":55,"name":"G3","ticks":19920,"time":20.75,"velocity":0.6299212598425197},{"duration":0.236458333333335,"durationTicks":227,"midi":59,"name":"B3","ticks":20160,"time":21,"velocity":0.6299212598425197},{"duration":0.236458333333335,"durationTicks":227,"midi":62,"name":"D4","ticks":20400,"time":21.25,"velocity":0.6299212598425197},{"duration":0.236458333333335,"durationTicks":227,"midi":55,"name":"G3","ticks":20640,"time":21.5,"velocity":0.6299212598425197},{"duration":0.236458333333335,"durationTicks":227,"midi":59,"name":"B3","ticks":20880,"time":21.75,"velocity":0.6299212598425197},{"duration":0.236458333333335,"durationTicks":227,"midi":50,"name":"D3","ticks":21120,"time":22,"velocity":0.6299212598425197},{"duration":0.236458333333335,"durationTicks":227,"midi":54,"name":"F#3","ticks":21360,"time":22.25,"velocity":0.6299212598425197},{"duration":0.236458333333335,"durationTicks":227,"midi":57,"name":"A3","ticks":21600,"time":22.5,"velocity":0.6299212598425197},{"duration":0.236458333333335,"durationTicks":227,"midi":50,"name":"D3","ticks":21840,"time":22.75,"velocity":0.6299212598425197},{"duration":0.236458333333335,"durationTicks":227,"midi":54,"name":"F#3","ticks":22080,"time":23,"velocity":0.6299212598425197},{"duration":0.236458333333335,"durationTicks":227,"midi":57,"name":"A3","ticks":22320,"time":23.25,"velocity":0.6299212598425197},{"duration":0.236458333333335,"durationTicks":227,"midi":50,"name":"D3","ticks":22560,"time":23.5,"velocity":0.6299212598425197},{"duration":0.236458333333335,"durationTicks":227,"midi":54,"name":"F#3","ticks":22800,"time":23.75,"velocity":0.6299212598425197},{"duration":0.7114583333333329,"durationTicks":683,"midi":52,"name":"E3","ticks":23040,"time":24,"velocity":0.6299212598425197},{"duration":0.7114583333333329,"durationTicks":683,"midi":55,"name":"G3","ticks":23040,"time":24,"velocity":0.6299212598425197},{"duration":0.7114583333333329,"durationTicks":683,"midi":59,"name":"B3","ticks":23040,"time":24,"velocity":0.6299212598425197},{"duration":0.7114583333333329,"durationTicks":683,"midi":52,"name":"E3","ticks":23760,"time":24.75,"velocity":0.6299212598425197},{"duration":0.7114583333333329,"durationTicks":683,"midi":55,"name":"G3","ticks":23760,"time":24.75,"velocity":0.6299212598425197},{"duration":0.7114583333333329,"durationTicks":683,"midi":59,"name":"B3","ticks":23760,"time":24.75,"velocity":0.6299212598425197},{"duration":0.47395833333333215,"durationTicks":455,"midi":52,"name":"E3","ticks":24480,"time":25.5,"velocity":0.6299212598425197},{"duration":0.47395833333333215,"durationTicks":455,"midi":55,"name":"G3","ticks":24480,"time":25.5,"velocity":0.6299212598425197},{"duration":0.47395833333333215,"durationTicks":455,"midi":59,"name":"B3","ticks":24480,"time":25.5,"velocity":0.6299212598425197},{"duration":0.7114583333333329,"durationTicks":683,"midi":48,"name":"C3","ticks":24960,"time":26,"velocity":0.6299212598425197},{"duration":0.7114583333333329,"durationTicks":683,"midi":52,"name":"E3","ticks":24960,"time":26,"velocity":0.6299212598425197},{"duration":0.7114583333333329,"durationTicks":683,"midi":55,"name":"G3","ticks":24960,"time":26,"velocity":0.6299212598425197},{"duration":0.7114583333333329,"durationTicks":683,"midi":48,"name":"C3","ticks":25680,"time":26.75,"velocity":0.6299212598425197},{"duration":0.7114583333333329,"durationTicks":683,"midi":52,"name":"E3","ticks":25680,"time":26.75,"velocity":0.6299212598425197},{"duration":0.7114583333333329,"durationTicks":683,"midi":55,"name":"G3","ticks":25680,"time":26.75,"velocity":0.6299212598425197},{"duration":0.47395833333333215,"durationTicks":455,"midi":48,"name":"C3","ticks":26400,"time":27.5,"velocity":0.6299212598425197},{"duration":0.47395833333333215,"durationTicks":455,"midi":52,"name":"E3","ticks":26400,"time":27.5,"velocity":0.6299212598425197},{"duration":0.47395833333333215,"durationTicks":455,"midi":55,"name":"G3","ticks":26400,"time":27.5,"velocity":0.6299212598425197},{"duration":0.7114583333333329,"durationTicks":683,"midi":55,"name":"G3","ticks":26880,"time":28,"velocity":0.6299212598425197},{"duration":0.7114583333333329,"durationTicks":683,"midi":59,"name":"B3","ticks":26880,"time":28,"velocity":0.6299212598425197},{"duration":0.7114583333333329,"durationTicks":683,"midi":62,"name":"D4","ticks":26880,"time":28,"velocity":0.6299212598425197},{"duration":0.7114583333333329,"durationTicks":683,"midi":55,"name":"G3","ticks":27600,"time":28.75,"velocity":0.6299212598425197},{"duration":0.7114583333333329,"durationTicks":683,"midi":59,"name":"B3","ticks":27600,"time":28.75,"velocity":0.6299212598425197},{"duration":0.7114583333333329,"durationTicks":683,"midi":62,"name":"D4","ticks":27600,"time":28.75,"velocity":0.6299212598425197},{"duration":0.47395833333333215,"durationTicks":455,"midi":55,"name":"G3","ticks":28320,"time":29.5,"velocity":0.6299212598425197},{"duration":0.47395833333333215,"durationTicks":455,"midi":59,"name":"B3","ticks":28320,"time":29.5,"velocity":0.6299212598425197},{"duration":0.47395833333333215,"durationTicks":455,"midi":62,"name":"D4","ticks":28320,"time":29.5,"velocity":0.6299212598425197},{"duration":0.7114583333333329,"durationTicks":683,"midi":50,"name":"D3","ticks":28800,"time":30,"velocity":0.6299212598425197},{"duration":0.7114583333333329,"durationTicks":683,"midi":54,"name":"F#3","ticks":28800,"time":30,"velocity":0.6299212598425197},{"duration":0.7114583333333329,"durationTicks":683,"midi":57,"name":"A3","ticks":28800,"time":30,"velocity":0.6299212598425197},{"duration":0.7114583333333329,"durationTicks":683,"midi":50,"name":"D3","ticks":29520,"time":30.75,"velocity":0.6299212598425197},{"duration":0.7114583333333329,"durationTicks":683,"midi":54,"name":"F#3","ticks":29520,"time":30.75,"velocity":0.6299212598425197},{"duration":0.7114583333333329,"durationTicks":683,"midi":57,"name":"A3","ticks":29520,"time":30.75,"velocity":0.6299212598425197},{"duration":0.47395833333333215,"durationTicks":455,"midi":50,"name":"D3","ticks":30240,"time":31.5,"velocity":0.6299212598425197},{"duration":0.47395833333333215,"durationTicks":455,"midi":54,"name":"F#3","ticks":30240,"time":31.5,"velocity":0.6299212598425197},{"duration":0.47395833333333215,"durationTicks":455,"midi":57,"name":"A3","ticks":30240,"time":31.5,"velocity":0.6299212598425197},{"duration":0.7114583333333329,"durationTicks":683,"midi":52,"name":"E3","ticks":30720,"time":32,"velocity":0.6299212598425197},{"duration":0.7114583333333329,"durationTicks":683,"midi":55,"name":"G3","ticks":30720,"time":32,"velocity":0.6299212598425197},{"duration":0.7114583333333329,"durationTicks":683,"midi":59,"name":"B3","ticks":30720,"time":32,"velocity":0.6299212598425197},{"duration":0.7114583333333329,"durationTicks":683,"midi":52,"name":"E3","ticks":31440,"time":32.75,"velocity":0.6299212598425197},{"duration":0.7114583333333329,"durationTicks":683,"midi":55,"name":"G3","ticks":31440,"time":32.75,"velocity":0.6299212598425197},{"duration":0.7114583333333329,"durationTicks":683,"midi":59,"name":"B3","ticks":31440,"time":32.75,"velocity":0.6299212598425197},{"duration":0.23645833333333144,"durationTicks":227,"midi":52,"name":"E3","ticks":32160,"time":33.5,"velocity":0.6299212598425197},{"duration":0.23645833333333144,"durationTicks":227,"midi":55,"name":"G3","ticks":32400,"time":33.75,"velocity":0.6299212598425197},{"duration":0.7114583333333329,"durationTicks":683,"midi":48,"name":"C3","ticks":32640,"time":34,"velocity":0.6299212598425197},{"duration":0.7114583333333329,"durationTicks":683,"midi":52,"name":"E3","ticks":32640,"time":34,"velocity":0.6299212598425197},{"duration":0.7114583333333329,"durationTicks":683,"midi":55,"name":"G3","ticks":32640,"time":34,"velocity":0.6299212598425197},{"duration":0.7114583333333329,"durationTicks":683,"midi":48,"name":"C3","ticks":33360,"time":34.75,"velocity":0.6299212598425197},{"duration":0.7114583333333329,"durationTicks":683,"midi":52,"name":"E3","ticks":33360,"time":34.75,"velocity":0.6299212598425197},{"duration":0.7114583333333329,"durationTicks":683,"midi":55,"name":"G3","ticks":33360,"time":34.75,"velocity":0.6299212598425197},{"duration":0.23645833333333144,"durationTicks":227,"midi":48,"name":"C3","ticks":34080,"time":35.5,"velocity":0.6299212598425197},{"duration":0.23645833333333144,"durationTicks":227,"midi":52,"name":"E3","ticks":34320,"time":35.75,"velocity":0.6299212598425197},{"duration":0.7114583333333329,"durationTicks":683,"midi":55,"name":"G3","ticks":34560,"time":36,"velocity":0.6299212598425197},{"duration":0.7114583333333329,"durationTicks":683,"midi":59,"name":"B3","ticks":34560,"time":36,"velocity":0.6299212598425197},{"duration":0.7114583333333329,"durationTicks":683,"midi":62,"name":"D4","ticks":34560,"time":36,"velocity":0.6299212598425197},{"duration":0.7114583333333329,"durationTicks":683,"midi":55,"name":"G3","ticks":35280,"time":36.75,"velocity":0.6299212598425197},{"duration":0.7114583333333329,"durationTicks":683,"midi":59,"name":"B3","ticks":35280,"time":36.75,"velocity":0.6299212598425197},{"duration":0.7114583333333329,"durationTicks":683,"midi":62,"name":"D4","ticks":35280,"time":36.75,"velocity":0.6299212598425197},{"duration":0.23645833333333144,"durationTicks":227,"midi":55,"name":"G3","ticks":36000,"time":37.5,"velocity":0.6299212598425197},{"duration":0.23645833333333144,"durationTicks":227,"midi":59,"name":"B3","ticks":36240,"time":37.75,"velocity":0.6299212598425197},{"duration":0.7114583333333329,"durationTicks":683,"midi":50,"name":"D3","ticks":36480,"time":38,"velocity":0.6299212598425197},{"duration":0.7114583333333329,"durationTicks":683,"midi":54,"name":"F#3","ticks":36480,"time":38,"velocity":0.6299212598425197},{"duration":0.7114583333333329,"durationTicks":683,"midi":57,"name":"A3","ticks":36480,"time":38,"velocity":0.6299212598425197},{"duration":0.7114583333333329,"durationTicks":683,"midi":50,"name":"D3","ticks":37200,"time":38.75,"velocity":0.6299212598425197},{"duration":0.7114583333333329,"durationTicks":683,"midi":54,"name":"F#3","ticks":37200,"time":38.75,"velocity":0.6299212598425197},{"duration":0.7114583333333329,"durationTicks":683,"midi":57,"name":"A3","ticks":37200,"time":38.75,"velocity":0.6299212598425197},{"duration":0.23645833333333144,"durationTicks":227,"midi":50,"name":"D3","ticks":37920,"time":39.5,"velocity":0.6299212598425197},{"duration":0.23645833333333144,"durationTicks":227,"midi":54,"name":"F#3","ticks":38160,"time":39.75,"velocity":0.6299212598425197},{"duration":0.23645833333333144,"durationTicks":227,"midi":52,"name":"E3","ticks":38400,"time":40,"velocity":0.6299212598425197},{"duration":0.23645833333333144,"durationTicks":227,"midi":55,"name":"G3","ticks":38640,"time":40.25,"velocity":0.6299212598425197},{"duration":0.23645833333333144,"durationTicks":227,"midi":59,"name":"B3","ticks":38880,"time":40.5,"velocity":0.6299212598425197},{"duration":0.23645833333333144,"durationTicks":227,"midi":52,"name":"E3","ticks":39120,"time":40.75,"velocity":0.6299212598425197},{"duration":0.23645833333333144,"durationTicks":227,"midi":55,"name":"G3","ticks":39360,"time":41,"velocity":0.6299212598425197},{"duration":0.23645833333333144,"durationTicks":227,"midi":59,"name":"B3","ticks":39600,"time":41.25,"velocity":0.6299212598425197},{"duration":0.23645833333333144,"durationTicks":227,"midi":52,"name":"E3","ticks":39840,"time":41.5,"velocity":0.6299212598425197},{"duration":0.23645833333333144,"durationTicks":227,"midi":55,"name":"G3","ticks":40080,"time":41.75,"velocity":0.6299212598425197},{"duration":0.23645833333333144,"durationTicks":227,"midi":48,"name":"C3","ticks":40320,"time":42,"velocity":0.6299212598425197},{"duration":0.23645833333333144,"durationTicks":227,"midi":52,"name":"E3","ticks":40560,"time":42.25,"velocity":0.6299212598425197},{"duration":0.23645833333333144,"durationTicks":227,"midi":55,"name":"G3","ticks":40800,"time":42.5,"velocity":0.6299212598425197},{"duration":0.23645833333333144,"durationTicks":227,"midi":48,"name":"C3","ticks":41040,"time":42.75,"velocity":0.6299212598425197},{"duration":0.23645833333333144,"durationTicks":227,"midi":52,"name":"E3","ticks":41280,"time":43,"velocity":0.6299212598425197},{"duration":0.23645833333333144,"durationTicks":227,"midi":55,"name":"G3","ticks":41520,"time":43.25,"velocity":0.6299212598425197},{"duration":0.23645833333333144,"durationTicks":227,"midi":48,"name":"C3","ticks":41760,"time":43.5,"velocity":0.6299212598425197},{"duration":0.23645833333333144,"durationTicks":227,"midi":52,"name":"E3","ticks":42000,"time":43.75,"velocity":0.6299212598425197},{"duration":0.23645833333333144,"durationTicks":227,"midi":55,"name":"G3","ticks":42240,"time":44,"velocity":0.6299212598425197},{"duration":0.23645833333333144,"durationTicks":227,"midi":59,"name":"B3","ticks":42480,"time":44.25,"velocity":0.6299212598425197},{"duration":0.23645833333333144,"durationTicks":227,"midi":62,"name":"D4","ticks":42720,"time":44.5,"velocity":0.6299212598425197},{"duration":0.23645833333333144,"durationTicks":227,"midi":55,"name":"G3","ticks":42960,"time":44.75,"velocity":0.6299212598425197},{"duration":0.23645833333333144,"durationTicks":227,"midi":59,"name":"B3","ticks":43200,"time":45,"velocity":0.6299212598425197},{"duration":0.23645833333333144,"durationTicks":227,"midi":62,"name":"D4","ticks":43440,"time":45.25,"velocity":0.6299212598425197},{"duration":0.23645833333333144,"durationTicks":227,"midi":55,"name":"G3","ticks":43680,"time":45.5,"velocity":0.6299212598425197},{"duration":0.23645833333333144,"durationTicks":227,"midi":59,"name":"B3","ticks":43920,"time":45.75,"velocity":0.6299212598425197},{"duration":0.23645833333333144,"durationTicks":227,"midi":50,"name":"D3","ticks":44160,"time":46,"velocity":0.6299212598425197},{"duration":0.23645833333333144,"durationTicks":227,"midi":54,"name":"F#3","ticks":44400,"time":46.25,"velocity":0.6299212598425197},{"duration":0.23645833333333144,"durationTicks":227,"midi":57,"name":"A3","ticks":44640,"time":46.5,"velocity":0.6299212598425197},{"duration":0.23645833333333144,"durationTicks":227,"midi":50,"name":"D3","ticks":44880,"time":46.75,"velocity":0.6299212598425197},{"duration":0.23645833333333144,"durationTicks":227,"midi":54,"name":"F#3","ticks":45120,"time":47,"velocity":0.6299212598425197},{"duration":0.23645833333333144,"durationTicks":227,"midi":57,"name":"A3","ticks":45360,"time":47.25,"velocity":0.6299212598425197},{"duration":0.23645833333333144,"durationTicks":227,"midi":50,"name":"D3","ticks":45600,"time":47.5,"velocity":0.6299212598425197},{"duration":0.23645833333333144,"durationTicks":227,"midi":54,"name":"F#3","ticks":45840,"time":47.75,"velocity":0.6299212598425197},{"duration":0.23645833333333144,"durationTicks":227,"midi":52,"name":"E3","ticks":46080,"time":48,"velocity":0.6299212598425197},{"duration":0.23645833333333144,"durationTicks":227,"midi":55,"name":"G3","ticks":46320,"time":48.25,"velocity":0.6299212598425197},{"duration":0.23645833333333144,"durationTicks":227,"midi":59,"name":"B3","ticks":46560,"time":48.5,"velocity":0.6299212598425197},{"duration":0.23645833333333144,"durationTicks":227,"midi":52,"name":"E3","ticks":46800,"time":48.75,"velocity":0.6299212598425197},{"duration":0.23645833333333144,"durationTicks":227,"midi":55,"name":"G3","ticks":47040,"time":49,"velocity":0.6299212598425197},{"duration":0.23645833333333144,"durationTicks":227,"midi":59,"name":"B3","ticks":47280,"time":49.25,"velocity":0.6299212598425197},{"duration":0.23645833333333144,"durationTicks":227,"midi":52,"name":"E3","ticks":47520,"time":49.5,"velocity":0.6299212598425197},{"duration":0.23645833333333144,"durationTicks":227,"midi":55,"name":"G3","ticks":47760,"time":49.75,"velocity":0.6299212598425197},{"duration":0.23645833333333144,"durationTicks":227,"midi":48,"name":"C3","ticks":48000,"time":50,"velocity":0.6299212598425197},{"duration":0.23645833333333144,"durationTicks":227,"midi":52,"name":"E3","ticks":48240,"time":50.25,"velocity":0.6299212598425197},{"duration":0.23645833333333144,"durationTicks":227,"midi":55,"name":"G3","ticks":48480,"time":50.5,"velocity":0.6299212598425197},{"duration":0.23645833333333144,"durationTicks":227,"midi":48,"name":"C3","ticks":48720,"time":50.75,"velocity":0.6299212598425197},{"duration":0.23645833333333144,"durationTicks":227,"midi":52,"name":"E3","ticks":48960,"time":51,"velocity":0.6299212598425197},{"duration":0.23645833333333144,"durationTicks":227,"midi":55,"name":"G3","ticks":49200,"time":51.25,"velocity":0.6299212598425197},{"duration":0.23645833333333144,"durationTicks":227,"midi":48,"name":"C3","ticks":49440,"time":51.5,"velocity":0.6299212598425197},{"duration":0.23645833333333144,"durationTicks":227,"midi":52,"name":"E3","ticks":49680,"time":51.75,"velocity":0.6299212598425197},{"duration":0.23645833333333144,"durationTicks":227,"midi":55,"name":"G3","ticks":49920,"time":52,"velocity":0.6299212598425197},{"duration":0.23645833333333144,"durationTicks":227,"midi":59,"name":"B3","ticks":50160,"time":52.25,"velocity":0.6299212598425197},{"duration":0.23645833333333144,"durationTicks":227,"midi":62,"name":"D4","ticks":50400,"time":52.5,"velocity":0.6299212598425197},{"duration":0.23645833333333144,"durationTicks":227,"midi":55,"name":"G3","ticks":50640,"time":52.75,"velocity":0.6299212598425197},{"duration":0.23645833333333144,"durationTicks":227,"midi":59,"name":"B3","ticks":50880,"time":53,"velocity":0.6299212598425197},{"duration":0.23645833333333144,"durationTicks":227,"midi":62,"name":"D4","ticks":51120,"time":53.25,"velocity":0.6299212598425197},{"duration":0.23645833333333144,"durationTicks":227,"midi":55,"name":"G3","ticks":51360,"time":53.5,"velocity":0.6299212598425197},{"duration":0.23645833333333144,"durationTicks":227,"midi":59,"name":"B3","ticks":51600,"time":53.75,"velocity":0.6299212598425197},{"duration":0.23645833333333144,"durationTicks":227,"midi":50,"name":"D3","ticks":51840,"time":54,"velocity":0.6299212598425197},{"duration":0.23645833333333144,"durationTicks":227,"midi":54,"name":"F#3","ticks":52080,"time":54.25,"velocity":0.6299212598425197},{"duration":0.23645833333333144,"durationTicks":227,"midi":57,"name":"A3","ticks":52320,"time":54.5,"velocity":0.6299212598425197},{"duration":0.23645833333333144,"durationTicks":227,"midi":50,"name":"D3","ticks":52560,"time":54.75,"velocity":0.6299212598425197},{"duration":0.23645833333333144,"durationTicks":227,"midi":54,"name":"F#3","ticks":52800,"time":55,"velocity":0.6299212598425197},{"duration":0.23645833333333144,"durationTicks":227,"midi":57,"name":"A3","ticks":53040,"time":55.25,"velocity":0.6299212598425197},{"duration":0.23645833333333144,"durationTicks":227,"midi":50,"name":"D3","ticks":53280,"time":55.5,"velocity":0.6299212598425197},{"duration":0.23645833333333144,"durationTicks":227,"midi":54,"name":"F#3","ticks":53520,"time":55.75,"velocity":0.6299212598425197},{"duration":1.8989583333333329,"durationTicks":1823,"midi":52,"name":"E3","ticks":53760,"time":56,"velocity":0.6299212598425197},{"duration":1.8989583333333329,"durationTicks":1823,"midi":55,"name":"G3","ticks":53760,"time":56,"velocity":0.6299212598425197},{"duration":1.8989583333333329,"durationTicks":1823,"midi":59,"name":"B3","ticks":53760,"time":56,"velocity":0.6299212598425197},{"duration":1.8989583333333329,"durationTicks":1823,"midi":48,"name":"C3","ticks":55680,"time":58,"velocity":0.6299212598425197},{"duration":1.8989583333333329,"durationTicks":1823,"midi":52,"name":"E3","ticks":55680,"time":58,"velocity":0.6299212598425197},{"duration":1.8989583333333329,"durationTicks":1823,"midi":55,"name":"G3","ticks":55680,"time":58,"velocity":0.6299212598425197},{"duration":1.8989583333333329,"durationTicks":1823,"midi":55,"name":"G3","ticks":57600,"time":60,"velocity":0.6299212598425197},{"duration":1.8989583333333329,"durationTicks":1823,"midi":59,"name":"B3","ticks":57600,"time":60,"velocity":0.6299212598425197},{"duration":1.8989583333333329,"durationTicks":1823,"midi":62,"name":"D4","ticks":57600,"time":60,"velocity":0.6299212598425197},{"duration":1.8989583333333329,"durationTicks":1823,"midi":50,"name":"D3","ticks":59520,"time":62,"velocity":0.6299212598425197},{"duration":1.8989583333333329,"durationTicks":1823,"midi":54,"name":"F#3","ticks":59520,"time":62,"velocity":0.6299212598425197},{"duration":1.8989583333333329,"durationTicks":1823,"midi":57,"name":"A3","ticks":59520,"time":62,"velocity":0.6299212598425197},{"duration":0.9489583333333371,"durationTicks":911,"midi":52,"name":"E3","ticks":61440,"time":64,"velocity":0.6299212598425197},{"duration":0.9489583333333371,"durationTicks":911,"midi":55,"name":"G3","ticks":61440,"time":64,"velocity":0.6299212598425197},{"duration":0.9489583333333371,"durationTicks":911,"midi":59,"name":"B3","ticks":61440,"time":64,"velocity":0.6299212598425197},{"duration":0.9489583333333371,"durationTicks":911,"midi":52,"name":"E3","ticks":62400,"time":65,"velocity":0.6299212598425197},{"duration":0.9489583333333371,"durationTicks":911,"midi":55,"name":"G3","ticks":62400,"time":65,"velocity":0.6299212598425197},{"duration":0.9489583333333371,"durationTicks":911,"midi":59,"name":"B3","ticks":62400,"time":65,"velocity":0.6299212598425197},{"duration":0.9489583333333371,"durationTicks":911,"midi":48,"name":"C3","ticks":63360,"time":66,"velocity":0.6299212598425197},{"duration":0.9489583333333371,"durationTicks":911,"midi":52,"name":"E3","ticks":63360,"time":66,"velocity":0.6299212598425197},{"duration":0.9489583333333371,"durationTicks":911,"midi":55,"name":"G3","ticks":63360,"time":66,"velocity":0.6299212598425197},{"duration":0.9489583333333371,"durationTicks":911,"midi":48,"name":"C3","ticks":64320,"time":67,"velocity":0.6299212598425197},{"duration":0.9489583333333371,"durationTicks":911,"midi":52,"name":"E3","ticks":64320,"time":67,"velocity":0.6299212598425197},{"duration":0.9489583333333371,"durationTicks":911,"midi":55,"name":"G3","ticks":64320,"time":67,"velocity":0.6299212598425197},{"duration":0.9489583333333371,"durationTicks":911,"midi":55,"name":"G3","ticks":65280,"time":68,"velocity":0.6299212598425197},{"duration":0.9489583333333371,"durationTicks":911,"midi":59,"name":"B3","ticks":65280,"time":68,"velocity":0.6299212598425197},{"duration":0.9489583333333371,"durationTicks":911,"midi":62,"name":"D4","ticks":65280,"time":68,"velocity":0.6299212598425197},{"duration":0.9489583333333371,"durationTicks":911,"midi":55,"name":"G3","ticks":66240,"time":69,"velocity":0.6299212598425197},{"duration":0.9489583333333371,"durationTicks":911,"midi":59,"name":"B3","ticks":66240,"time":69,"velocity":0.6299212598425197},{"duration":0.9489583333333371,"durationTicks":911,"midi":62,"name":"D4","ticks":66240,"time":69,"velocity":0.6299212598425197},{"duration":0.9489583333333371,"durationTicks":911,"midi":50,"name":"D3","ticks":67200,"time":70,"velocity":0.6299212598425197},{"duration":0.9489583333333371,"durationTicks":911,"midi":54,"name":"F#3","ticks":67200,"time":70,"velocity":0.6299212598425197},{"duration":0.9489583333333371,"durationTicks":911,"midi":57,"name":"A3","ticks":67200,"time":70,"velocity":0.6299212598425197},{"duration":0.9489583333333371,"durationTicks":911,"midi":50,"name":"D3","ticks":68160,"time":71,"velocity":0.6299212598425197},{"duration":0.9489583333333371,"durationTicks":911,"midi":54,"name":"F#3","ticks":68160,"time":71,"velocity":0.6299212598425197},{"duration":0.9489583333333371,"durationTicks":911,"midi":57,"name":"A3","ticks":68160,"time":71,"velocity":0.6299212598425197},{"duration":0.71145833333334,"durationTicks":683,"midi":52,"name":"E3","ticks":69120,"time":72,"velocity":0.6299212598425197},{"duration":0.71145833333334,"durationTicks":683,"midi":55,"name":"G3","ticks":69120,"time":72,"velocity":0.6299212598425197},{"duration":0.71145833333334,"durationTicks":683,"midi":59,"name":"B3","ticks":69120,"time":72,"velocity":0.6299212598425197},{"duration":0.71145833333334,"durationTicks":683,"midi":52,"name":"E3","ticks":69840,"time":72.75,"velocity":0.6299212598425197},{"duration":0.71145833333334,"durationTicks":683,"midi":55,"name":"G3","ticks":69840,"time":72.75,"velocity":0.6299212598425197},{"duration":0.71145833333334,"durationTicks":683,"midi":59,"name":"B3","ticks":69840,"time":72.75,"velocity":0.6299212598425197},{"duration":0.4739583333333286,"durationTicks":455,"midi":52,"name":"E3","ticks":70560,"time":73.5,"velocity":0.6299212598425197},{"duration":0.4739583333333286,"durationTicks":455,"midi":55,"name":"G3","ticks":70560,"time":73.5,"velocity":0.6299212598425197},{"duration":0.4739583333333286,"durationTicks":455,"midi":59,"name":"B3","ticks":70560,"time":73.5,"velocity":0.6299212598425197},{"duration":0.71145833333334,"durationTicks":683,"midi":48,"name":"C3","ticks":71040,"time":74,"velocity":0.6299212598425197},{"duration":0.71145833333334,"durationTicks":683,"midi":52,"name":"E3","ticks":71040,"time":74,"velocity":0.6299212598425197},{"duration":0.71145833333334,"durationTicks":683,"midi":55,"name":"G3","ticks":71040,"time":74,"velocity":0.6299212598425197},{"duration":0.71145833333334,"durationTicks":683,"midi":48,"name":"C3","ticks":71760,"time":74.75,"velocity":0.6299212598425197},{"duration":0.71145833333334,"durationTicks":683,"midi":52,"name":"E3","ticks":71760,"time":74.75,"velocity":0.6299212598425197},{"duration":0.71145833333334,"durationTicks":683,"midi":55,"name":"G3","ticks":71760,"time":74.75,"velocity":0.6299212598425197},{"duration":0.4739583333333286,"durationTicks":455,"midi":48,"name":"C3","ticks":72480,"time":75.5,"velocity":0.6299212598425197},{"duration":0.4739583333333286,"durationTicks":455,"midi":52,"name":"E3","ticks":72480,"time":75.5,"velocity":0.6299212598425197},{"duration":0.4739583333333286,"durationTicks":455,"midi":55,"name":"G3","ticks":72480,"time":75.5,"velocity":0.6299212598425197},{"duration":0.71145833333334,"durationTicks":683,"midi":55,"name":"G3","ticks":72960,"time":76,"velocity":0.6299212598425197},{"duration":0.71145833333334,"durationTicks":683,"midi":59,"name":"B3","ticks":72960,"time":76,"velocity":0.6299212598425197},{"duration":0.71145833333334,"durationTicks":683,"midi":62,"name":"D4","ticks":72960,"time":76,"velocity":0.6299212598425197},{"duration":0.71145833333334,"durationTicks":683,"midi":55,"name":"G3","ticks":73680,"time":76.75,"velocity":0.6299212598425197},{"duration":0.71145833333334,"durationTicks":683,"midi":59,"name":"B3","ticks":73680,"time":76.75,"velocity":0.6299212598425197},{"duration":0.71145833333334,"durationTicks":683,"midi":62,"name":"D4","ticks":73680,"time":76.75,"velocity":0.6299212598425197},{"duration":0.4739583333333286,"durationTicks":455,"midi":55,"name":"G3","ticks":74400,"time":77.5,"velocity":0.6299212598425197},{"duration":0.4739583333333286,"durationTicks":455,"midi":59,"name":"B3","ticks":74400,"time":77.5,"velocity":0.6299212598425197},{"duration":0.4739583333333286,"durationTicks":455,"midi":62,"name":"D4","ticks":74400,"time":77.5,"velocity":0.6299212598425197},{"duration":0.71145833333334,"durationTicks":683,"midi":50,"name":"D3","ticks":74880,"time":78,"velocity":0.6299212598425197},{"duration":0.71145833333334,"durationTicks":683,"midi":54,"name":"F#3","ticks":74880,"time":78,"velocity":0.6299212598425197},{"duration":0.71145833333334,"durationTicks":683,"midi":57,"name":"A3","ticks":74880,"time":78,"velocity":0.6299212598425197},{"duration":0.71145833333334,"durationTicks":683,"midi":50,"name":"D3","ticks":75600,"time":78.75,"velocity":0.6299212598425197},{"duration":0.71145833333334,"durationTicks":683,"midi":54,"name":"F#3","ticks":75600,"time":78.75,"velocity":0.6299212598425197},{"duration":0.71145833333334,"durationTicks":683,"midi":57,"name":"A3","ticks":75600,"time":78.75,"velocity":0.6299212598425197},{"duration":0.4739583333333286,"durationTicks":455,"midi":50,"name":"D3","ticks":76320,"time":79.5,"velocity":0.6299212598425197},{"duration":0.4739583333333286,"durationTicks":455,"midi":54,"name":"F#3","ticks":76320,"time":79.5,"velocity":0.6299212598425197},{"duration":0.4739583333333286,"durationTicks":455,"midi":57,"name":"A3","ticks":76320,"time":79.5,"velocity":0.6299212598425197},{"duration":0.71145833333334,"durationTicks":683,"midi":52,"name":"E3","ticks":76800,"time":80,"velocity":0.6299212598425197},{"duration":0.71145833333334,"durationTicks":683,"midi":55,"name":"G3","ticks":76800,"time":80,"velocity":0.6299212598425197},{"duration":0.71145833333334,"durationTicks":683,"midi":59,"name":"B3","ticks":76800,"time":80,"velocity":0.6299212598425197},{"duration":0.71145833333334,"durationTicks":683,"midi":52,"name":"E3","ticks":77520,"time":80.75,"velocity":0.6299212598425197},{"duration":0.71145833333334,"durationTicks":683,"midi":55,"name":"G3","ticks":77520,"time":80.75,"velocity":0.6299212598425197},{"duration":0.71145833333334,"durationTicks":683,"midi":59,"name":"B3","ticks":77520,"time":80.75,"velocity":0.6299212598425197},{"duration":0.4739583333333286,"durationTicks":455,"midi":52,"name":"E3","ticks":78240,"time":81.5,"velocity":0.6299212598425197},{"duration":0.4739583333333286,"durationTicks":455,"midi":55,"name":"G3","ticks":78240,"time":81.5,"velocity":0.6299212598425197},{"duration":0.4739583333333286,"durationTicks":455,"midi":59,"name":"B3","ticks":78240,"time":81.5,"velocity":0.6299212598425197},{"duration":0.71145833333334,"durationTicks":683,"midi":48,"name":"C3","ticks":78720,"time":82,"velocity":0.6299212598425197},{"duration":0.71145833333334,"durationTicks":683,"midi":52,"name":"E3","ticks":78720,"time":82,"velocity":0.6299212598425197},{"duration":0.71145833333334,"durationTicks":683,"midi":55,"name":"G3","ticks":78720,"time":82,"velocity":0.6299212598425197},{"duration":0.71145833333334,"durationTicks":683,"midi":48,"name":"C3","ticks":79440,"time":82.75,"velocity":0.6299212598425197},{"duration":0.71145833333334,"durationTicks":683,"midi":52,"name":"E3","ticks":79440,"time":82.75,"velocity":0.6299212598425197},{"duration":0.71145833333334,"durationTicks":683,"midi":55,"name":"G3","ticks":79440,"time":82.75,"velocity":0.6299212598425197},{"duration":0.4739583333333286,"durationTicks":455,"midi":48,"name":"C3","ticks":80160,"time":83.5,"velocity":0.6299212598425197},{"duration":0.4739583333333286,"durationTicks":455,"midi":52,"name":"E3","ticks":80160,"time":83.5,"velocity":0.6299212598425197},{"duration":0.4739583333333286,"durationTicks":455,"midi":55,"name":"G3","ticks":80160,"time":83.5,"velocity":0.6299212598425197},{"duration":0.71145833333334,"durationTicks":683,"midi":55,"name":"G3","ticks":80640,"time":84,"velocity":0.6299212598425197},{"duration":0.71145833333334,"durationTicks":683,"midi":59,"name":"B3","ticks":80640,"time":84,"velocity":0.6299212598425197},{"duration":0.71145833333334,"durationTicks":683,"midi":62,"name":"D4","ticks":80640,"time":84,"velocity":0.6299212598425197},{"duration":0.71145833333334,"durationTicks":683,"midi":55,"name":"G3","ticks":81360,"time":84.75,"velocity":0.6299212598425197},{"duration":0.71145833333334,"durationTicks":683,"midi":59,"name":"B3","ticks":81360,"time":84.75,"velocity":0.6299212598425197},{"duration":0.71145833333334,"durationTicks":683,"midi":62,"name":"D4","ticks":81360,"time":84.75,"velocity":0.6299212598425197},{"duration":0.4739583333333286,"durationTicks":455,"midi":55,"name":"G3","ticks":82080,"time":85.5,"velocity":0.6299212598425197},{"duration":0.4739583333333286,"durationTicks":455,"midi":59,"name":"B3","ticks":82080,"time":85.5,"velocity":0.6299212598425197},{"duration":0.4739583333333286,"durationTicks":455,"midi":62,"name":"D4","ticks":82080,"time":85.5,"velocity":0.6299212598425197},{"duration":0.71145833333334,"durationTicks":683,"midi":50,"name":"D3","ticks":82560,"time":86,"velocity":0.6299212598425197},{"duration":0.71145833333334,"durationTicks":683,"midi":54,"name":"F#3","ticks":82560,"time":86,"velocity":0.6299212598425197},{"duration":0.71145833333334,"durationTicks":683,"midi":57,"name":"A3","ticks":82560,"time":86,"velocity":0.6299212598425197},{"duration":0.71145833333334,"durationTicks":683,"midi":50,"name":"D3","ticks":83280,"time":86.75,"velocity":0.6299212598425197},{"duration":0.71145833333334,"durationTicks":683,"midi":54,"name":"F#3","ticks":83280,"time":86.75,"velocity":0.6299212598425197},{"duration":0.71145833333334,"durationTicks":683,"midi":57,"name":"A3","ticks":83280,"time":86.75,"velocity":0.6299212598425197},{"duration":0.4739583333333286,"durationTicks":455,"midi":50,"name":"D3","ticks":84000,"time":87.5,"velocity":0.6299212598425197},{"duration":0.4739583333333286,"durationTicks":455,"midi":54,"name":"F#3","ticks":84000,"time":87.5,"velocity":0.6299212598425197},{"duration":0.4739583333333286,"durationTicks":455,"midi":57,"name":"A3","ticks":84000,"time":87.5,"velocity":0.6299212598425197},{"duration":0.23645833333333144,"durationTicks":227,"midi":52,"name":"E3","ticks":84480,"time":88,"velocity":0.6299212598425197},{"duration":0.23645833333333144,"durationTicks":227,"midi":55,"name":"G3","ticks":84720,"time":88.25,"velocity":0.6299212598425197},{"duration":0.23645833333333144,"durationTicks":227,"midi":59,"name":"B3","ticks":84960,"time":88.5,"velocity":0.6299212598425197},{"duration":0.23645833333333144,"durationTicks":227,"midi":52,"name":"E3","ticks":85200,"time":88.75,"velocity":0.6299212598425197},{"duration":0.23645833333333144,"durationTicks":227,"midi":55,"name":"G3","ticks":85440,"time":89,"velocity":0.6299212598425197},{"duration":0.23645833333333144,"durationTicks":227,"midi":59,"name":"B3","ticks":85680,"time":89.25,"velocity":0.6299212598425197},{"duration":0.23645833333333144,"durationTicks":227,"midi":52,"name":"E3","ticks":85920,"time":89.5,"velocity":0.6299212598425197},{"duration":0.23645833333333144,"durationTicks":227,"midi":55,"name":"G3","ticks":86160,"time":89.75,"velocity":0.6299212598425197},{"duration":0.23645833333333144,"durationTicks":227,"midi":48,"name":"C3","ticks":86400,"time":90,"velocity":0.6299212598425197},{"duration":0.23645833333333144,"durationTicks":227,"midi":52,"name":"E3","ticks":86640,"time":90.25,"velocity":0.6299212598425197},{"duration":0.23645833333333144,"durationTicks":227,"midi":55,"name":"G3","ticks":86880,"time":90.5,"velocity":0.6299212598425197},{"duration":0.23645833333333144,"durationTicks":227,"midi":48,"name":"C3","ticks":87120,"time":90.75,"velocity":0.6299212598425197},{"duration":0.23645833333333144,"durationTicks":227,"midi":52,"name":"E3","ticks":87360,"time":91,"velocity":0.6299212598425197},{"duration":0.23645833333333144,"durationTicks":227,"midi":55,"name":"G3","ticks":87600,"time":91.25,"velocity":0.6299212598425197},{"duration":0.23645833333333144,"durationTicks":227,"midi":48,"name":"C3","ticks":87840,"time":91.5,"velocity":0.6299212598425197},{"duration":0.23645833333333144,"durationTicks":227,"midi":52,"name":"E3","ticks":88080,"time":91.75,"velocity":0.6299212598425197},{"duration":0.23645833333333144,"durationTicks":227,"midi":55,"name":"G3","ticks":88320,"time":92,"velocity":0.6299212598425197},{"duration":0.23645833333333144,"durationTicks":227,"midi":59,"name":"B3","ticks":88560,"time":92.25,"velocity":0.6299212598425197},{"duration":0.23645833333333144,"durationTicks":227,"midi":62,"name":"D4","ticks":88800,"time":92.5,"velocity":0.6299212598425197},{"duration":0.23645833333333144,"durationTicks":227,"midi":55,"name":"G3","ticks":89040,"time":92.75,"velocity":0.6299212598425197},{"duration":0.23645833333333144,"durationTicks":227,"midi":59,"name":"B3","ticks":89280,"time":93,"velocity":0.6299212598425197},{"duration":0.23645833333333144,"durationTicks":227,"midi":62,"name":"D4","ticks":89520,"time":93.25,"velocity":0.6299212598425197},{"duration":0.23645833333333144,"durationTicks":227,"midi":55,"name":"G3","ticks":89760,"time":93.5,"velocity":0.6299212598425197},{"duration":0.23645833333333144,"durationTicks":227,"midi":59,"name":"B3","ticks":90000,"time":93.75,"velocity":0.6299212598425197},{"duration":0.23645833333333144,"durationTicks":227,"midi":50,"name":"D3","ticks":90240,"time":94,"velocity":0.6299212598425197},{"duration":0.23645833333333144,"durationTicks":227,"midi":54,"name":"F#3","ticks":90480,"time":94.25,"velocity":0.6299212598425197},{"duration":0.23645833333333144,"durationTicks":227,"midi":57,"name":"A3","ticks":90720,"time":94.5,"velocity":0.6299212598425197},{"duration":0.23645833333333144,"durationTicks":227,"midi":50,"name":"D3","ticks":90960,"time":94.75,"velocity":0.6299212598425197},{"duration":0.23645833333333144,"durationTicks":227,"midi":54,"name":"F#3","ticks":91200,"time":95,"velocity":0.6299212598425197},{"duration":0.23645833333333144,"durationTicks":227,"midi":57,"name":"A3","ticks":91440,"time":95.25,"velocity":0.6299212598425197},{"duration":0.23645833333333144,"durationTicks":227,"midi":50,"name":"D3","ticks":91680,"time":95.5,"velocity":0.6299212598425197},{"duration":0.23645833333333144,"durationTicks":227,"midi":54,"name":"F#3","ticks":91920,"time":95.75,"velocity":0.6299212598425197},{"duration":0.23645833333333144,"durationTicks":227,"midi":52,"name":"E3","ticks":92160,"time":96,"velocity":0.6299212598425197},{"duration":0.23645833333333144,"durationTicks":227,"midi":55,"name":"G3","ticks":92400,"time":96.25,"velocity":0.6299212598425197},{"duration":0.23645833333333144,"durationTicks":227,"midi":59,"name":"B3","ticks":92640,"time":96.5,"velocity":0.6299212598425197},{"duration":0.23645833333333144,"durationTicks":227,"midi":52,"name":"E3","ticks":92880,"time":96.75,"velocity":0.6299212598425197},{"duration":0.23645833333333144,"durationTicks":227,"midi":55,"name":"G3","ticks":93120,"time":97,"velocity":0.6299212598425197},{"duration":0.23645833333333144,"durationTicks":227,"midi":59,"name":"B3","ticks":93360,"time":97.25,"velocity":0.6299212598425197},{"duration":0.23645833333333144,"durationTicks":227,"midi":52,"name":"E3","ticks":93600,"time":97.5,"velocity":0.6299212598425197},{"duration":0.23645833333333144,"durationTicks":227,"midi":55,"name":"G3","ticks":93840,"time":97.75,"velocity":0.6299212598425197},{"duration":0.23645833333333144,"durationTicks":227,"midi":48,"name":"C3","ticks":94080,"time":98,"velocity":0.6299212598425197},{"duration":0.23645833333333144,"durationTicks":227,"midi":52,"name":"E3","ticks":94320,"time":98.25,"velocity":0.6299212598425197},{"duration":0.23645833333333144,"durationTicks":227,"midi":55,"name":"G3","ticks":94560,"time":98.5,"velocity":0.6299212598425197},{"duration":0.23645833333333144,"durationTicks":227,"midi":48,"name":"C3","ticks":94800,"time":98.75,"velocity":0.6299212598425197},{"duration":0.23645833333333144,"durationTicks":227,"midi":52,"name":"E3","ticks":95040,"time":99,"velocity":0.6299212598425197},{"duration":0.23645833333333144,"durationTicks":227,"midi":55,"name":"G3","ticks":95280,"time":99.25,"velocity":0.6299212598425197},{"duration":0.23645833333333144,"durationTicks":227,"midi":48,"name":"C3","ticks":95520,"time":99.5,"velocity":0.6299212598425197},{"duration":0.23645833333333144,"durationTicks":227,"midi":52,"name":"E3","ticks":95760,"time":99.75,"velocity":0.6299212598425197},{"duration":0.23645833333333144,"durationTicks":227,"midi":55,"name":"G3","ticks":96000,"time":100,"velocity":0.6299212598425197},{"duration":0.23645833333333144,"durationTicks":227,"midi":59,"name":"B3","ticks":96240,"time":100.25,"velocity":0.6299212598425197},{"duration":0.23645833333333144,"durationTicks":227,"midi":62,"name":"D4","ticks":96480,"time":100.5,"velocity":0.6299212598425197},{"duration":0.23645833333333144,"durationTicks":227,"midi":55,"name":"G3","ticks":96720,"time":100.75,"velocity":0.6299212598425197},{"duration":0.23645833333333144,"durationTicks":227,"midi":59,"name":"B3","ticks":96960,"time":101,"velocity":0.6299212598425197},{"duration":0.23645833333333144,"durationTicks":227,"midi":62,"name":"D4","ticks":97200,"time":101.25,"velocity":0.6299212598425197},{"duration":0.23645833333333144,"durationTicks":227,"midi":55,"name":"G3","ticks":97440,"time":101.5,"velocity":0.6299212598425197},{"duration":0.23645833333333144,"durationTicks":227,"midi":59,"name":"B3","ticks":97680,"time":101.75,"velocity":0.6299212598425197},{"duration":0.23645833333333144,"durationTicks":227,"midi":59,"name":"B3","ticks":100080,"time":104.25,"velocity":0.6299212598425197},{"duration":0.23645833333333144,"durationTicks":227,"midi":59,"name":"B3","ticks":100320,"time":104.5,"velocity":0.6299212598425197},{"duration":0.23645833333333144,"durationTicks":227,"midi":59,"name":"B3","ticks":100560,"time":104.75,"velocity":0.6299212598425197},{"duration":0.23645833333333144,"durationTicks":227,"midi":59,"name":"B3","ticks":100800,"time":105,"velocity":0.6299212598425197},{"duration":0.23645833333333144,"durationTicks":227,"midi":59,"name":"B3","ticks":101040,"time":105.25,"velocity":0.6299212598425197},{"duration":0.23645833333333144,"durationTicks":227,"midi":59,"name":"B3","ticks":101280,"time":105.5,"velocity":0.6299212598425197},{"duration":0.23645833333333144,"durationTicks":227,"midi":59,"name":"B3","ticks":101520,"time":105.75,"velocity":0.6299212598425197},{"duration":0.23645833333333144,"durationTicks":227,"midi":52,"name":"E3","ticks":101760,"time":106,"velocity":0.6299212598425197},{"duration":0.23645833333333144,"durationTicks":227,"midi":59,"name":"B3","ticks":101760,"time":106,"velocity":0.6299212598425197},{"duration":0.23645833333333144,"durationTicks":227,"midi":52,"name":"E3","ticks":102000,"time":106.25,"velocity":0.6299212598425197},{"duration":0.23645833333333144,"durationTicks":227,"midi":59,"name":"B3","ticks":102000,"time":106.25,"velocity":0.6299212598425197},{"duration":0.23645833333333144,"durationTicks":227,"midi":52,"name":"E3","ticks":102240,"time":106.5,"velocity":0.6299212598425197},{"duration":0.23645833333333144,"durationTicks":227,"midi":59,"name":"B3","ticks":102240,"time":106.5,"velocity":0.6299212598425197},{"duration":0.23645833333333144,"durationTicks":227,"midi":52,"name":"E3","ticks":102480,"time":106.75,"velocity":0.6299212598425197},{"duration":0.23645833333333144,"durationTicks":227,"midi":59,"name":"B3","ticks":102480,"time":106.75,"velocity":0.6299212598425197},{"duration":0.23645833333333144,"durationTicks":227,"midi":55,"name":"G3","ticks":102960,"time":107.25,"velocity":0.6299212598425197},{"duration":0.23645833333333144,"durationTicks":227,"midi":54,"name":"F#3","ticks":103200,"time":107.5,"velocity":0.6299212598425197},{"duration":0.23645833333333144,"durationTicks":227,"midi":52,"name":"E3","ticks":103680,"time":108,"velocity":0.6299212598425197},{"duration":0.23645833333333144,"durationTicks":227,"midi":55,"name":"G3","ticks":103920,"time":108.25,"velocity":0.6299212598425197},{"duration":0.23645833333333144,"durationTicks":227,"midi":59,"name":"B3","ticks":104160,"time":108.5,"velocity":0.6299212598425197},{"duration":0.23645833333333144,"durationTicks":227,"midi":52,"name":"E3","ticks":104400,"time":108.75,"velocity":0.6299212598425197},{"duration":0.23645833333333144,"durationTicks":227,"midi":55,"name":"G3","ticks":104640,"time":109,"velocity":0.6299212598425197},{"duration":0.23645833333333144,"durationTicks":227,"midi":59,"name":"B3","ticks":104880,"time":109.25,"velocity":0.6299212598425197},{"duration":0.23645833333333144,"durationTicks":227,"midi":52,"name":"E3","ticks":105120,"time":109.5,"velocity":0.6299212598425197},{"duration":0.23645833333333144,"durationTicks":227,"midi":55,"name":"G3","ticks":105360,"time":109.75,"velocity":0.6299212598425197},{"duration":0.23645833333333144,"durationTicks":227,"midi":48,"name":"C3","ticks":105600,"time":110,"velocity":0.6299212598425197},{"duration":0.23645833333333144,"durationTicks":227,"midi":52,"name":"E3","ticks":105840,"time":110.25,"velocity":0.6299212598425197},{"duration":0.23645833333333144,"durationTicks":227,"midi":55,"name":"G3","ticks":106080,"time":110.5,"velocity":0.6299212598425197},{"duration":0.23645833333333144,"durationTicks":227,"midi":48,"name":"C3","ticks":106320,"time":110.75,"velocity":0.6299212598425197},{"duration":0.23645833333333144,"durationTicks":227,"midi":52,"name":"E3","ticks":106560,"time":111,"velocity":0.6299212598425197},{"duration":0.23645833333333144,"durationTicks":227,"midi":55,"name":"G3","ticks":106800,"time":111.25,"velocity":0.6299212598425197},{"duration":0.23645833333333144,"durationTicks":227,"midi":48,"name":"C3","ticks":107040,"time":111.5,"velocity":0.6299212598425197},{"duration":0.23645833333333144,"durationTicks":227,"midi":52,"name":"E3","ticks":107280,"time":111.75,"velocity":0.6299212598425197},{"duration":0.23645833333333144,"durationTicks":227,"midi":55,"name":"G3","ticks":107520,"time":112,"velocity":0.6299212598425197},{"duration":0.23645833333333144,"durationTicks":227,"midi":59,"name":"B3","ticks":107760,"time":112.25,"velocity":0.6299212598425197},{"duration":0.23645833333333144,"durationTicks":227,"midi":62,"name":"D4","ticks":108000,"time":112.5,"velocity":0.6299212598425197},{"duration":0.23645833333333144,"durationTicks":227,"midi":55,"name":"G3","ticks":108240,"time":112.75,"velocity":0.6299212598425197},{"duration":0.23645833333333144,"durationTicks":227,"midi":59,"name":"B3","ticks":108480,"time":113,"velocity":0.6299212598425197},{"duration":0.23645833333333144,"durationTicks":227,"midi":62,"name":"D4","ticks":108720,"time":113.25,"velocity":0.6299212598425197},{"duration":0.23645833333333144,"durationTicks":227,"midi":55,"name":"G3","ticks":108960,"time":113.5,"velocity":0.6299212598425197},{"duration":0.23645833333333144,"durationTicks":227,"midi":59,"name":"B3","ticks":109200,"time":113.75,"velocity":0.6299212598425197},{"duration":0.23645833333333144,"durationTicks":227,"midi":50,"name":"D3","ticks":109440,"time":114,"velocity":0.6299212598425197},{"duration":0.23645833333333144,"durationTicks":227,"midi":54,"name":"F#3","ticks":109680,"time":114.25,"velocity":0.6299212598425197},{"duration":0.23645833333333144,"durationTicks":227,"midi":57,"name":"A3","ticks":109920,"time":114.5,"velocity":0.6299212598425197},{"duration":0.23645833333333144,"durationTicks":227,"midi":50,"name":"D3","ticks":110160,"time":114.75,"velocity":0.6299212598425197},{"duration":0.23645833333333144,"durationTicks":227,"midi":54,"name":"F#3","ticks":110400,"time":115,"velocity":0.6299212598425197},{"duration":0.23645833333333144,"durationTicks":227,"midi":57,"name":"A3","ticks":110640,"time":115.25,"velocity":0.6299212598425197},{"duration":0.23645833333333144,"durationTicks":227,"midi":50,"name":"D3","ticks":110880,"time":115.5,"velocity":0.6299212598425197},{"duration":0.23645833333333144,"durationTicks":227,"midi":54,"name":"F#3","ticks":111120,"time":115.75,"velocity":0.6299212598425197},{"duration":0.23645833333333144,"durationTicks":227,"midi":52,"name":"E3","ticks":111360,"time":116,"velocity":0.6299212598425197},{"duration":0.23645833333333144,"durationTicks":227,"midi":55,"name":"G3","ticks":111600,"time":116.25,"velocity":0.6299212598425197},{"duration":0.23645833333333144,"durationTicks":227,"midi":59,"name":"B3","ticks":111840,"time":116.5,"velocity":0.6299212598425197},{"duration":0.23645833333333144,"durationTicks":227,"midi":52,"name":"E3","ticks":112080,"time":116.75,"velocity":0.6299212598425197},{"duration":0.23645833333333144,"durationTicks":227,"midi":55,"name":"G3","ticks":112320,"time":117,"velocity":0.6299212598425197},{"duration":0.23645833333333144,"durationTicks":227,"midi":59,"name":"B3","ticks":112560,"time":117.25,"velocity":0.6299212598425197},{"duration":0.23645833333333144,"durationTicks":227,"midi":52,"name":"E3","ticks":112800,"time":117.5,"velocity":0.6299212598425197},{"duration":0.23645833333333144,"durationTicks":227,"midi":55,"name":"G3","ticks":113040,"time":117.75,"velocity":0.6299212598425197},{"duration":0.23645833333333144,"durationTicks":227,"midi":48,"name":"C3","ticks":113280,"time":118,"velocity":0.6299212598425197},{"duration":0.23645833333333144,"durationTicks":227,"midi":52,"name":"E3","ticks":113520,"time":118.25,"velocity":0.6299212598425197},{"duration":0.23645833333333144,"durationTicks":227,"midi":55,"name":"G3","ticks":113760,"time":118.5,"velocity":0.6299212598425197},{"duration":0.23645833333333144,"durationTicks":227,"midi":48,"name":"C3","ticks":114000,"time":118.75,"velocity":0.6299212598425197},{"duration":0.23645833333333144,"durationTicks":227,"midi":52,"name":"E3","ticks":114240,"time":119,"velocity":0.6299212598425197},{"duration":0.23645833333333144,"durationTicks":227,"midi":55,"name":"G3","ticks":114480,"time":119.25,"velocity":0.6299212598425197},{"duration":0.23645833333333144,"durationTicks":227,"midi":48,"name":"C3","ticks":114720,"time":119.5,"velocity":0.6299212598425197},{"duration":0.23645833333333144,"durationTicks":227,"midi":52,"name":"E3","ticks":114960,"time":119.75,"velocity":0.6299212598425197},{"duration":0.23645833333333144,"durationTicks":227,"midi":55,"name":"G3","ticks":115200,"time":120,"velocity":0.6299212598425197},{"duration":0.23645833333333144,"durationTicks":227,"midi":59,"name":"B3","ticks":115440,"time":120.25,"velocity":0.6299212598425197},{"duration":0.23645833333333144,"durationTicks":227,"midi":62,"name":"D4","ticks":115680,"time":120.5,"velocity":0.6299212598425197},{"duration":0.23645833333333144,"durationTicks":227,"midi":55,"name":"G3","ticks":115920,"time":120.75,"velocity":0.6299212598425197},{"duration":0.23645833333333144,"durationTicks":227,"midi":59,"name":"B3","ticks":116160,"time":121,"velocity":0.6299212598425197},{"duration":0.23645833333333144,"durationTicks":227,"midi":62,"name":"D4","ticks":116400,"time":121.25,"velocity":0.6299212598425197},{"duration":0.23645833333333144,"durationTicks":227,"midi":55,"name":"G3","ticks":116640,"time":121.5,"velocity":0.6299212598425197},{"duration":0.23645833333333144,"durationTicks":227,"midi":59,"name":"B3","ticks":116880,"time":121.75,"velocity":0.6299212598425197},{"duration":0.23645833333333144,"durationTicks":227,"midi":50,"name":"D3","ticks":117120,"time":122,"velocity":0.6299212598425197},{"duration":0.23645833333333144,"durationTicks":227,"midi":54,"name":"F#3","ticks":117360,"time":122.25,"velocity":0.6299212598425197},{"duration":0.23645833333333144,"durationTicks":227,"midi":57,"name":"A3","ticks":117600,"time":122.5,"velocity":0.6299212598425197},{"duration":0.23645833333333144,"durationTicks":227,"midi":50,"name":"D3","ticks":117840,"time":122.75,"velocity":0.6299212598425197},{"duration":0.23645833333333144,"durationTicks":227,"midi":54,"name":"F#3","ticks":118080,"time":123,"velocity":0.6299212598425197},{"duration":0.23645833333333144,"durationTicks":227,"midi":57,"name":"A3","ticks":118320,"time":123.25,"velocity":0.6299212598425197},{"duration":0.23645833333333144,"durationTicks":227,"midi":50,"name":"D3","ticks":118560,"time":123.5,"velocity":0.6299212598425197},{"duration":0.23645833333333144,"durationTicks":227,"midi":54,"name":"F#3","ticks":118800,"time":123.75,"velocity":0.6299212598425197},{"duration":1.89895833333334,"durationTicks":1823,"midi":52,"name":"E3","ticks":119040,"time":124,"velocity":0.6299212598425197},{"duration":1.89895833333334,"durationTicks":1823,"midi":55,"name":"G3","ticks":119040,"time":124,"velocity":0.6299212598425197},{"duration":1.89895833333334,"durationTicks":1823,"midi":59,"name":"B3","ticks":119040,"time":124,"velocity":0.6299212598425197},{"duration":1.89895833333334,"durationTicks":1823,"midi":48,"name":"C3","ticks":120960,"time":126,"velocity":0.6299212598425197},{"duration":1.89895833333334,"durationTicks":1823,"midi":52,"name":"E3","ticks":120960,"time":126,"velocity":0.6299212598425197},{"duration":1.89895833333334,"durationTicks":1823,"midi":55,"name":"G3","ticks":120960,"time":126,"velocity":0.6299212598425197},{"duration":1.8989583333333258,"durationTicks":1823,"midi":55,"name":"G3","ticks":122880,"time":128,"velocity":0.6299212598425197},{"duration":1.8989583333333258,"durationTicks":1823,"midi":59,"name":"B3","ticks":122880,"time":128,"velocity":0.6299212598425197},{"duration":1.8989583333333258,"durationTicks":1823,"midi":62,"name":"D4","ticks":122880,"time":128,"velocity":0.6299212598425197},{"duration":1.8989583333333258,"durationTicks":1823,"midi":50,"name":"D3","ticks":124800,"time":130,"velocity":0.6299212598425197},{"duration":1.8989583333333258,"durationTicks":1823,"midi":54,"name":"F#3","ticks":124800,"time":130,"velocity":0.6299212598425197},{"duration":1.8989583333333258,"durationTicks":1823,"midi":57,"name":"A3","ticks":124800,"time":130,"velocity":0.6299212598425197},{"duration":1.4239583333333314,"durationTicks":1367,"midi":52,"name":"E3","ticks":126720,"time":132,"velocity":0.6299212598425197},{"duration":1.4239583333333314,"durationTicks":1367,"midi":55,"name":"G3","ticks":126720,"time":132,"velocity":0.6299212598425197},{"duration":1.4239583333333314,"durationTicks":1367,"midi":59,"name":"B3","ticks":126720,"time":132,"velocity":0.6299212598425197},{"duration":0.4739583333333428,"durationTicks":455,"midi":52,"name":"E3","ticks":128160,"time":133.5,"velocity":0.6299212598425197},{"duration":0.4739583333333428,"durationTicks":455,"midi":55,"name":"G3","ticks":128160,"time":133.5,"velocity":0.6299212598425197},{"duration":0.4739583333333428,"durationTicks":455,"midi":59,"name":"B3","ticks":128160,"time":133.5,"velocity":0.6299212598425197},{"duration":1.4239583333333314,"durationTicks":1367,"midi":48,"name":"C3","ticks":128640,"time":134,"velocity":0.6299212598425197},{"duration":1.4239583333333314,"durationTicks":1367,"midi":52,"name":"E3","ticks":128640,"time":134,"velocity":0.6299212598425197},{"duration":1.4239583333333314,"durationTicks":1367,"midi":55,"name":"G3","ticks":128640,"time":134,"velocity":0.6299212598425197},{"duration":0.4739583333333428,"durationTicks":455,"midi":48,"name":"C3","ticks":130080,"time":135.5,"velocity":0.6299212598425197},{"duration":0.4739583333333428,"durationTicks":455,"midi":52,"name":"E3","ticks":130080,"time":135.5,"velocity":0.6299212598425197},{"duration":0.4739583333333428,"durationTicks":455,"midi":55,"name":"G3","ticks":130080,"time":135.5,"velocity":0.6299212598425197},{"duration":1.4239583333333314,"durationTicks":1367,"midi":55,"name":"G3","ticks":130560,"time":136,"velocity":0.6299212598425197},{"duration":1.4239583333333314,"durationTicks":1367,"midi":59,"name":"B3","ticks":130560,"time":136,"velocity":0.6299212598425197},{"duration":1.4239583333333314,"durationTicks":1367,"midi":62,"name":"D4","ticks":130560,"time":136,"velocity":0.6299212598425197},{"duration":0.4739583333333428,"durationTicks":455,"midi":55,"name":"G3","ticks":132000,"time":137.5,"velocity":0.6299212598425197},{"duration":0.4739583333333428,"durationTicks":455,"midi":59,"name":"B3","ticks":132000,"time":137.5,"velocity":0.6299212598425197},{"duration":0.4739583333333428,"durationTicks":455,"midi":62,"name":"D4","ticks":132000,"time":137.5,"velocity":0.6299212598425197},{"duration":1.4239583333333314,"durationTicks":1367,"midi":50,"name":"D3","ticks":132480,"time":138,"velocity":0.6299212598425197},{"duration":1.4239583333333314,"durationTicks":1367,"midi":54,"name":"F#3","ticks":132480,"time":138,"velocity":0.6299212598425197},{"duration":1.4239583333333314,"durationTicks":1367,"midi":57,"name":"A3","ticks":132480,"time":138,"velocity":0.6299212598425197},{"duration":0.4739583333333428,"durationTicks":455,"midi":50,"name":"D3","ticks":133920,"time":139.5,"velocity":0.6299212598425197},{"duration":0.4739583333333428,"durationTicks":455,"midi":54,"name":"F#3","ticks":133920,"time":139.5,"velocity":0.6299212598425197},{"duration":0.4739583333333428,"durationTicks":455,"midi":57,"name":"A3","ticks":133920,"time":139.5,"velocity":0.6299212598425197},{"duration":0.7114583333333258,"durationTicks":683,"midi":52,"name":"E3","ticks":134400,"time":140,"velocity":0.6299212598425197},{"duration":0.7114583333333258,"durationTicks":683,"midi":55,"name":"G3","ticks":134400,"time":140,"velocity":0.6299212598425197},{"duration":0.7114583333333258,"durationTicks":683,"midi":59,"name":"B3","ticks":134400,"time":140,"velocity":0.6299212598425197},{"duration":0.7114583333333258,"durationTicks":683,"midi":52,"name":"E3","ticks":135120,"time":140.75,"velocity":0.6299212598425197},{"duration":0.7114583333333258,"durationTicks":683,"midi":55,"name":"G3","ticks":135120,"time":140.75,"velocity":0.6299212598425197},{"duration":0.7114583333333258,"durationTicks":683,"midi":59,"name":"B3","ticks":135120,"time":140.75,"velocity":0.6299212598425197},{"duration":0.4739583333333428,"durationTicks":455,"midi":52,"name":"E3","ticks":135840,"time":141.5,"velocity":0.6299212598425197},{"duration":0.4739583333333428,"durationTicks":455,"midi":55,"name":"G3","ticks":135840,"time":141.5,"velocity":0.6299212598425197},{"duration":0.4739583333333428,"durationTicks":455,"midi":59,"name":"B3","ticks":135840,"time":141.5,"velocity":0.6299212598425197},{"duration":0.7114583333333258,"durationTicks":683,"midi":48,"name":"C3","ticks":136320,"time":142,"velocity":0.6299212598425197},{"duration":0.7114583333333258,"durationTicks":683,"midi":52,"name":"E3","ticks":136320,"time":142,"velocity":0.6299212598425197},{"duration":0.7114583333333258,"durationTicks":683,"midi":55,"name":"G3","ticks":136320,"time":142,"velocity":0.6299212598425197},{"duration":0.7114583333333258,"durationTicks":683,"midi":48,"name":"C3","ticks":137040,"time":142.75,"velocity":0.6299212598425197},{"duration":0.7114583333333258,"durationTicks":683,"midi":52,"name":"E3","ticks":137040,"time":142.75,"velocity":0.6299212598425197},{"duration":0.7114583333333258,"durationTicks":683,"midi":55,"name":"G3","ticks":137040,"time":142.75,"velocity":0.6299212598425197},{"duration":0.4739583333333428,"durationTicks":455,"midi":48,"name":"C3","ticks":137760,"time":143.5,"velocity":0.6299212598425197},{"duration":0.4739583333333428,"durationTicks":455,"midi":52,"name":"E3","ticks":137760,"time":143.5,"velocity":0.6299212598425197},{"duration":0.4739583333333428,"durationTicks":455,"midi":55,"name":"G3","ticks":137760,"time":143.5,"velocity":0.6299212598425197},{"duration":0.7114583333333258,"durationTicks":683,"midi":55,"name":"G3","ticks":138240,"time":144,"velocity":0.6299212598425197},{"duration":0.7114583333333258,"durationTicks":683,"midi":59,"name":"B3","ticks":138240,"time":144,"velocity":0.6299212598425197},{"duration":0.7114583333333258,"durationTicks":683,"midi":62,"name":"D4","ticks":138240,"time":144,"velocity":0.6299212598425197},{"duration":0.7114583333333258,"durationTicks":683,"midi":55,"name":"G3","ticks":138960,"time":144.75,"velocity":0.6299212598425197},{"duration":0.7114583333333258,"durationTicks":683,"midi":59,"name":"B3","ticks":138960,"time":144.75,"velocity":0.6299212598425197},{"duration":0.7114583333333258,"durationTicks":683,"midi":62,"name":"D4","ticks":138960,"time":144.75,"velocity":0.6299212598425197},{"duration":0.4739583333333428,"durationTicks":455,"midi":55,"name":"G3","ticks":139680,"time":145.5,"velocity":0.6299212598425197},{"duration":0.4739583333333428,"durationTicks":455,"midi":59,"name":"B3","ticks":139680,"time":145.5,"velocity":0.6299212598425197},{"duration":0.4739583333333428,"durationTicks":455,"midi":62,"name":"D4","ticks":139680,"time":145.5,"velocity":0.6299212598425197},{"duration":0.7114583333333258,"durationTicks":683,"midi":50,"name":"D3","ticks":140160,"time":146,"velocity":0.6299212598425197},{"duration":0.7114583333333258,"durationTicks":683,"midi":54,"name":"F#3","ticks":140160,"time":146,"velocity":0.6299212598425197},{"duration":0.7114583333333258,"durationTicks":683,"midi":57,"name":"A3","ticks":140160,"time":146,"velocity":0.6299212598425197},{"duration":0.7114583333333258,"durationTicks":683,"midi":50,"name":"D3","ticks":140880,"time":146.75,"velocity":0.6299212598425197},{"duration":0.7114583333333258,"durationTicks":683,"midi":54,"name":"F#3","ticks":140880,"time":146.75,"velocity":0.6299212598425197},{"duration":0.7114583333333258,"durationTicks":683,"midi":57,"name":"A3","ticks":140880,"time":146.75,"velocity":0.6299212598425197},{"duration":0.4739583333333428,"durationTicks":455,"midi":50,"name":"D3","ticks":141600,"time":147.5,"velocity":0.6299212598425197},{"duration":0.4739583333333428,"durationTicks":455,"midi":54,"name":"F#3","ticks":141600,"time":147.5,"velocity":0.6299212598425197},{"duration":0.4739583333333428,"durationTicks":455,"midi":57,"name":"A3","ticks":141600,"time":147.5,"velocity":0.6299212598425197},{"duration":0.4739583333333428,"durationTicks":455,"midi":52,"name":"E3","ticks":142080,"time":148,"velocity":0.6299212598425197},{"duration":0.4739583333333428,"durationTicks":455,"midi":55,"name":"G3","ticks":142080,"time":148,"velocity":0.6299212598425197},{"duration":0.4739583333333428,"durationTicks":455,"midi":59,"name":"B3","ticks":142080,"time":148,"velocity":0.6299212598425197},{"duration":0.4739583333333428,"durationTicks":455,"midi":52,"name":"E3","ticks":142560,"time":148.5,"velocity":0.6299212598425197},{"duration":0.4739583333333428,"durationTicks":455,"midi":55,"name":"G3","ticks":142560,"time":148.5,"velocity":0.6299212598425197},{"duration":0.4739583333333428,"durationTicks":455,"midi":59,"name":"B3","ticks":142560,"time":148.5,"velocity":0.6299212598425197},{"duration":0.4739583333333428,"durationTicks":455,"midi":52,"name":"E3","ticks":143040,"time":149,"velocity":0.6299212598425197},{"duration":0.4739583333333428,"durationTicks":455,"midi":55,"name":"G3","ticks":143040,"time":149,"velocity":0.6299212598425197},{"duration":0.4739583333333428,"durationTicks":455,"midi":59,"name":"B3","ticks":143040,"time":149,"velocity":0.6299212598425197},{"duration":0.4739583333333428,"durationTicks":455,"midi":52,"name":"E3","ticks":143520,"time":149.5,"velocity":0.6299212598425197},{"duration":0.4739583333333428,"durationTicks":455,"midi":55,"name":"G3","ticks":143520,"time":149.5,"velocity":0.6299212598425197},{"duration":0.4739583333333428,"durationTicks":455,"midi":59,"name":"B3","ticks":143520,"time":149.5,"velocity":0.6299212598425197},{"duration":0.4739583333333428,"durationTicks":455,"midi":48,"name":"C3","ticks":144000,"time":150,"velocity":0.6299212598425197},{"duration":0.4739583333333428,"durationTicks":455,"midi":52,"name":"E3","ticks":144000,"time":150,"velocity":0.6299212598425197},{"duration":0.4739583333333428,"durationTicks":455,"midi":55,"name":"G3","ticks":144000,"time":150,"velocity":0.6299212598425197},{"duration":0.4739583333333428,"durationTicks":455,"midi":48,"name":"C3","ticks":144480,"time":150.5,"velocity":0.6299212598425197},{"duration":0.4739583333333428,"durationTicks":455,"midi":52,"name":"E3","ticks":144480,"time":150.5,"velocity":0.6299212598425197},{"duration":0.4739583333333428,"durationTicks":455,"midi":55,"name":"G3","ticks":144480,"time":150.5,"velocity":0.6299212598425197},{"duration":0.4739583333333428,"durationTicks":455,"midi":48,"name":"C3","ticks":144960,"time":151,"velocity":0.6299212598425197},{"duration":0.4739583333333428,"durationTicks":455,"midi":52,"name":"E3","ticks":144960,"time":151,"velocity":0.6299212598425197},{"duration":0.4739583333333428,"durationTicks":455,"midi":55,"name":"G3","ticks":144960,"time":151,"velocity":0.6299212598425197},{"duration":0.4739583333333428,"durationTicks":455,"midi":48,"name":"C3","ticks":145440,"time":151.5,"velocity":0.6299212598425197},{"duration":0.4739583333333428,"durationTicks":455,"midi":52,"name":"E3","ticks":145440,"time":151.5,"velocity":0.6299212598425197},{"duration":0.4739583333333428,"durationTicks":455,"midi":55,"name":"G3","ticks":145440,"time":151.5,"velocity":0.6299212598425197},{"duration":0.23645833333333144,"durationTicks":227,"midi":55,"name":"G3","ticks":145920,"time":152,"velocity":0.6299212598425197},{"duration":0.23645833333333144,"durationTicks":227,"midi":59,"name":"B3","ticks":145920,"time":152,"velocity":0.6299212598425197},{"duration":0.23645833333333144,"durationTicks":227,"midi":62,"name":"D4","ticks":145920,"time":152,"velocity":0.6299212598425197},{"duration":0.23645833333333144,"durationTicks":227,"midi":55,"name":"G3","ticks":146160,"time":152.25,"velocity":0.6299212598425197},{"duration":0.23645833333333144,"durationTicks":227,"midi":59,"name":"B3","ticks":146160,"time":152.25,"velocity":0.6299212598425197},{"duration":0.23645833333333144,"durationTicks":227,"midi":62,"name":"D4","ticks":146160,"time":152.25,"velocity":0.6299212598425197},{"duration":0.23645833333333144,"durationTicks":227,"midi":55,"name":"G3","ticks":146400,"time":152.5,"velocity":0.6299212598425197},{"duration":0.23645833333333144,"durationTicks":227,"midi":59,"name":"B3","ticks":146400,"time":152.5,"velocity":0.6299212598425197},{"duration":0.23645833333333144,"durationTicks":227,"midi":62,"name":"D4","ticks":146400,"time":152.5,"velocity":0.6299212598425197},{"duration":0.23645833333333144,"durationTicks":227,"midi":55,"name":"G3","ticks":146640,"time":152.75,"velocity":0.6299212598425197},{"duration":0.23645833333333144,"durationTicks":227,"midi":59,"name":"B3","ticks":146640,"time":152.75,"velocity":0.6299212598425197},{"duration":0.23645833333333144,"durationTicks":227,"midi":62,"name":"D4","ticks":146640,"time":152.75,"velocity":0.6299212598425197},{"duration":0.23645833333333144,"durationTicks":227,"midi":55,"name":"G3","ticks":146880,"time":153,"velocity":0.6299212598425197},{"duration":0.23645833333333144,"durationTicks":227,"midi":59,"name":"B3","ticks":146880,"time":153,"velocity":0.6299212598425197},{"duration":0.23645833333333144,"durationTicks":227,"midi":62,"name":"D4","ticks":146880,"time":153,"velocity":0.6299212598425197},{"duration":0.23645833333333144,"durationTicks":227,"midi":55,"name":"G3","ticks":147120,"time":153.25,"velocity":0.6299212598425197},{"duration":0.23645833333333144,"durationTicks":227,"midi":59,"name":"B3","ticks":147120,"time":153.25,"velocity":0.6299212598425197},{"duration":0.23645833333333144,"durationTicks":227,"midi":62,"name":"D4","ticks":147120,"time":153.25,"velocity":0.6299212598425197},{"duration":0.23645833333333144,"durationTicks":227,"midi":55,"name":"G3","ticks":147360,"time":153.5,"velocity":0.6299212598425197},{"duration":0.23645833333333144,"durationTicks":227,"midi":59,"name":"B3","ticks":147360,"time":153.5,"velocity":0.6299212598425197},{"duration":0.23645833333333144,"durationTicks":227,"midi":62,"name":"D4","ticks":147360,"time":153.5,"velocity":0.6299212598425197},{"duration":0.23645833333333144,"durationTicks":227,"midi":55,"name":"G3","ticks":147600,"time":153.75,"velocity":0.6299212598425197},{"duration":0.23645833333333144,"durationTicks":227,"midi":59,"name":"B3","ticks":147600,"time":153.75,"velocity":0.6299212598425197},{"duration":0.23645833333333144,"durationTicks":227,"midi":62,"name":"D4","ticks":147600,"time":153.75,"velocity":0.6299212598425197},{"duration":0.23645833333333144,"durationTicks":227,"midi":50,"name":"D3","ticks":147840,"time":154,"velocity":0.6299212598425197},{"duration":0.23645833333333144,"durationTicks":227,"midi":54,"name":"F#3","ticks":147840,"time":154,"velocity":0.6299212598425197},{"duration":0.23645833333333144,"durationTicks":227,"midi":57,"name":"A3","ticks":147840,"time":154,"velocity":0.6299212598425197},{"duration":0.23645833333333144,"durationTicks":227,"midi":50,"name":"D3","ticks":148080,"time":154.25,"velocity":0.6299212598425197},{"duration":0.23645833333333144,"durationTicks":227,"midi":54,"name":"F#3","ticks":148080,"time":154.25,"velocity":0.6299212598425197},{"duration":0.23645833333333144,"durationTicks":227,"midi":57,"name":"A3","ticks":148080,"time":154.25,"velocity":0.6299212598425197},{"duration":0.23645833333333144,"durationTicks":227,"midi":50,"name":"D3","ticks":148320,"time":154.5,"velocity":0.6299212598425197},{"duration":0.23645833333333144,"durationTicks":227,"midi":54,"name":"F#3","ticks":148320,"time":154.5,"velocity":0.6299212598425197},{"duration":0.23645833333333144,"durationTicks":227,"midi":57,"name":"A3","ticks":148320,"time":154.5,"velocity":0.6299212598425197},{"duration":0.23645833333333144,"durationTicks":227,"midi":50,"name":"D3","ticks":148560,"time":154.75,"velocity":0.6299212598425197},{"duration":0.23645833333333144,"durationTicks":227,"midi":54,"name":"F#3","ticks":148560,"time":154.75,"velocity":0.6299212598425197},{"duration":0.23645833333333144,"durationTicks":227,"midi":57,"name":"A3","ticks":148560,"time":154.75,"velocity":0.6299212598425197},{"duration":0.23645833333333144,"durationTicks":227,"midi":50,"name":"D3","ticks":148800,"time":155,"velocity":0.6299212598425197},{"duration":0.23645833333333144,"durationTicks":227,"midi":54,"name":"F#3","ticks":148800,"time":155,"velocity":0.6299212598425197},{"duration":0.23645833333333144,"durationTicks":227,"midi":57,"name":"A3","ticks":148800,"time":155,"velocity":0.6299212598425197},{"duration":0.23645833333333144,"durationTicks":227,"midi":50,"name":"D3","ticks":149280,"time":155.5,"velocity":0.6299212598425197},{"duration":0.23645833333333144,"durationTicks":227,"midi":54,"name":"F#3","ticks":149280,"time":155.5,"velocity":0.6299212598425197},{"duration":0.23645833333333144,"durationTicks":227,"midi":57,"name":"A3","ticks":149280,"time":155.5,"velocity":0.6299212598425197},{"duration":0.23645833333333144,"durationTicks":227,"midi":52,"name":"E3","ticks":149760,"time":156,"velocity":0.6299212598425197},{"duration":0.23645833333333144,"durationTicks":227,"midi":55,"name":"G3","ticks":150000,"time":156.25,"velocity":0.6299212598425197},{"duration":0.23645833333333144,"durationTicks":227,"midi":59,"name":"B3","ticks":150240,"time":156.5,"velocity":0.6299212598425197},{"duration":0.23645833333333144,"durationTicks":227,"midi":52,"name":"E3","ticks":150480,"time":156.75,"velocity":0.6299212598425197},{"duration":0.23645833333333144,"durationTicks":227,"midi":55,"name":"G3","ticks":150720,"time":157,"velocity":0.6299212598425197},{"duration":0.23645833333333144,"durationTicks":227,"midi":59,"name":"B3","ticks":150960,"time":157.25,"velocity":0.6299212598425197},{"duration":0.23645833333333144,"durationTicks":227,"midi":52,"name":"E3","ticks":151200,"time":157.5,"velocity":0.6299212598425197},{"duration":0.23645833333333144,"durationTicks":227,"midi":55,"name":"G3","ticks":151440,"time":157.75,"velocity":0.6299212598425197},{"duration":0.23645833333333144,"durationTicks":227,"midi":48,"name":"C3","ticks":151680,"time":158,"velocity":0.6299212598425197},{"duration":0.23645833333333144,"durationTicks":227,"midi":52,"name":"E3","ticks":151920,"time":158.25,"velocity":0.6299212598425197},{"duration":0.23645833333333144,"durationTicks":227,"midi":55,"name":"G3","ticks":152160,"time":158.5,"velocity":0.6299212598425197},{"duration":0.23645833333333144,"durationTicks":227,"midi":48,"name":"C3","ticks":152400,"time":158.75,"velocity":0.6299212598425197},{"duration":0.23645833333333144,"durationTicks":227,"midi":52,"name":"E3","ticks":152640,"time":159,"velocity":0.6299212598425197},{"duration":0.23645833333333144,"durationTicks":227,"midi":55,"name":"G3","ticks":152880,"time":159.25,"velocity":0.6299212598425197},{"duration":0.23645833333333144,"durationTicks":227,"midi":48,"name":"C3","ticks":153120,"time":159.5,"velocity":0.6299212598425197},{"duration":0.23645833333333144,"durationTicks":227,"midi":52,"name":"E3","ticks":153360,"time":159.75,"velocity":0.6299212598425197},{"duration":0.23645833333333144,"durationTicks":227,"midi":55,"name":"G3","ticks":153600,"time":160,"velocity":0.6299212598425197},{"duration":0.23645833333333144,"durationTicks":227,"midi":59,"name":"B3","ticks":153840,"time":160.25,"velocity":0.6299212598425197},{"duration":0.23645833333333144,"durationTicks":227,"midi":62,"name":"D4","ticks":154080,"time":160.5,"velocity":0.6299212598425197},{"duration":0.23645833333333144,"durationTicks":227,"midi":55,"name":"G3","ticks":154320,"time":160.75,"velocity":0.6299212598425197},{"duration":0.23645833333333144,"durationTicks":227,"midi":59,"name":"B3","ticks":154560,"time":161,"velocity":0.6299212598425197},{"duration":0.23645833333333144,"durationTicks":227,"midi":62,"name":"D4","ticks":154800,"time":161.25,"velocity":0.6299212598425197},{"duration":0.23645833333333144,"durationTicks":227,"midi":55,"name":"G3","ticks":155040,"time":161.5,"velocity":0.6299212598425197},{"duration":0.23645833333333144,"durationTicks":227,"midi":59,"name":"B3","ticks":155280,"time":161.75,"velocity":0.6299212598425197},{"duration":0.23645833333333144,"durationTicks":227,"midi":50,"name":"D3","ticks":155520,"time":162,"velocity":0.6299212598425197},{"duration":0.23645833333333144,"durationTicks":227,"midi":54,"name":"F#3","ticks":155760,"time":162.25,"velocity":0.6299212598425197},{"duration":0.23645833333333144,"durationTicks":227,"midi":57,"name":"A3","ticks":156000,"time":162.5,"velocity":0.6299212598425197},{"duration":0.23645833333333144,"durationTicks":227,"midi":50,"name":"D3","ticks":156240,"time":162.75,"velocity":0.6299212598425197},{"duration":0.23645833333333144,"durationTicks":227,"midi":54,"name":"F#3","ticks":156480,"time":163,"velocity":0.6299212598425197},{"duration":0.23645833333333144,"durationTicks":227,"midi":57,"name":"A3","ticks":156720,"time":163.25,"velocity":0.6299212598425197},{"duration":0.23645833333333144,"durationTicks":227,"midi":50,"name":"D3","ticks":156960,"time":163.5,"velocity":0.6299212598425197},{"duration":0.23645833333333144,"durationTicks":227,"midi":54,"name":"F#3","ticks":157200,"time":163.75,"velocity":0.6299212598425197},{"duration":0.23645833333333144,"durationTicks":227,"midi":52,"name":"E3","ticks":157440,"time":164,"velocity":0.6299212598425197},{"duration":0.23645833333333144,"durationTicks":227,"midi":55,"name":"G3","ticks":157680,"time":164.25,"velocity":0.6299212598425197},{"duration":0.23645833333333144,"durationTicks":227,"midi":59,"name":"B3","ticks":157920,"time":164.5,"velocity":0.6299212598425197},{"duration":0.23645833333333144,"durationTicks":227,"midi":52,"name":"E3","ticks":158160,"time":164.75,"velocity":0.6299212598425197},{"duration":0.23645833333333144,"durationTicks":227,"midi":55,"name":"G3","ticks":158400,"time":165,"velocity":0.6299212598425197},{"duration":0.23645833333333144,"durationTicks":227,"midi":59,"name":"B3","ticks":158640,"time":165.25,"velocity":0.6299212598425197},{"duration":0.23645833333333144,"durationTicks":227,"midi":52,"name":"E3","ticks":158880,"time":165.5,"velocity":0.6299212598425197},{"duration":0.23645833333333144,"durationTicks":227,"midi":55,"name":"G3","ticks":159120,"time":165.75,"velocity":0.6299212598425197},{"duration":0.23645833333333144,"durationTicks":227,"midi":48,"name":"C3","ticks":159360,"time":166,"velocity":0.6299212598425197},{"duration":0.23645833333333144,"durationTicks":227,"midi":52,"name":"E3","ticks":159600,"time":166.25,"velocity":0.6299212598425197},{"duration":0.23645833333333144,"durationTicks":227,"midi":55,"name":"G3","ticks":159840,"time":166.5,"velocity":0.6299212598425197},{"duration":0.23645833333333144,"durationTicks":227,"midi":48,"name":"C3","ticks":160080,"time":166.75,"velocity":0.6299212598425197},{"duration":0.23645833333333144,"durationTicks":227,"midi":52,"name":"E3","ticks":160320,"time":167,"velocity":0.6299212598425197},{"duration":0.23645833333333144,"durationTicks":227,"midi":55,"name":"G3","ticks":160560,"time":167.25,"velocity":0.6299212598425197},{"duration":0.23645833333333144,"durationTicks":227,"midi":48,"name":"C3","ticks":160800,"time":167.5,"velocity":0.6299212598425197},{"duration":0.23645833333333144,"durationTicks":227,"midi":52,"name":"E3","ticks":161040,"time":167.75,"velocity":0.6299212598425197},{"duration":0.23645833333333144,"durationTicks":227,"midi":55,"name":"G3","ticks":161280,"time":168,"velocity":0.6299212598425197},{"duration":0.23645833333333144,"durationTicks":227,"midi":59,"name":"B3","ticks":161520,"time":168.25,"velocity":0.6299212598425197},{"duration":0.23645833333333144,"durationTicks":227,"midi":62,"name":"D4","ticks":161760,"time":168.5,"velocity":0.6299212598425197},{"duration":0.23645833333333144,"durationTicks":227,"midi":55,"name":"G3","ticks":162000,"time":168.75,"velocity":0.6299212598425197},{"duration":0.23645833333333144,"durationTicks":227,"midi":59,"name":"B3","ticks":162240,"time":169,"velocity":0.6299212598425197},{"duration":0.23645833333333144,"durationTicks":227,"midi":62,"name":"D4","ticks":162480,"time":169.25,"velocity":0.6299212598425197},{"duration":0.23645833333333144,"durationTicks":227,"midi":55,"name":"G3","ticks":162720,"time":169.5,"velocity":0.6299212598425197},{"duration":0.23645833333333144,"durationTicks":227,"midi":59,"name":"B3","ticks":162960,"time":169.75,"velocity":0.6299212598425197},{"duration":0.23645833333333144,"durationTicks":227,"midi":50,"name":"D3","ticks":163200,"time":170,"velocity":0.6299212598425197},{"duration":0.23645833333333144,"durationTicks":227,"midi":54,"name":"F#3","ticks":163440,"time":170.25,"velocity":0.6299212598425197},{"duration":0.23645833333333144,"durationTicks":227,"midi":57,"name":"A3","ticks":163680,"time":170.5,"velocity":0.6299212598425197},{"duration":0.23645833333333144,"durationTicks":227,"midi":50,"name":"D3","ticks":163920,"time":170.75,"velocity":0.6299212598425197},{"duration":0.23645833333333144,"durationTicks":227,"midi":54,"name":"F#3","ticks":164160,"time":171,"velocity":0.6299212598425197},{"duration":0.23645833333333144,"durationTicks":227,"midi":57,"name":"A3","ticks":164400,"time":171.25,"velocity":0.6299212598425197},{"duration":0.23645833333333144,"durationTicks":227,"midi":50,"name":"D3","ticks":164640,"time":171.5,"velocity":0.6299212598425197},{"duration":0.23645833333333144,"durationTicks":227,"midi":54,"name":"F#3","ticks":164880,"time":171.75,"velocity":0.6299212598425197},{"duration":0.7114583333333258,"durationTicks":683,"midi":52,"name":"E3","ticks":165120,"time":172,"velocity":0.6299212598425197},{"duration":0.7114583333333258,"durationTicks":683,"midi":55,"name":"G3","ticks":165120,"time":172,"velocity":0.6299212598425197},{"duration":0.7114583333333258,"durationTicks":683,"midi":59,"name":"B3","ticks":165120,"time":172,"velocity":0.6299212598425197},{"duration":0.7114583333333258,"durationTicks":683,"midi":52,"name":"E3","ticks":165840,"time":172.75,"velocity":0.6299212598425197},{"duration":0.7114583333333258,"durationTicks":683,"midi":55,"name":"G3","ticks":165840,"time":172.75,"velocity":0.6299212598425197},{"duration":0.7114583333333258,"durationTicks":683,"midi":59,"name":"B3","ticks":165840,"time":172.75,"velocity":0.6299212598425197},{"duration":0.4739583333333428,"durationTicks":455,"midi":52,"name":"E3","ticks":166560,"time":173.5,"velocity":0.6299212598425197},{"duration":0.4739583333333428,"durationTicks":455,"midi":55,"name":"G3","ticks":166560,"time":173.5,"velocity":0.6299212598425197},{"duration":0.4739583333333428,"durationTicks":455,"midi":59,"name":"B3","ticks":166560,"time":173.5,"velocity":0.6299212598425197},{"duration":0.7114583333333258,"durationTicks":683,"midi":48,"name":"C3","ticks":167040,"time":174,"velocity":0.6299212598425197},{"duration":0.7114583333333258,"durationTicks":683,"midi":52,"name":"E3","ticks":167040,"time":174,"velocity":0.6299212598425197},{"duration":0.7114583333333258,"durationTicks":683,"midi":55,"name":"G3","ticks":167040,"time":174,"velocity":0.6299212598425197},{"duration":0.7114583333333258,"durationTicks":683,"midi":48,"name":"C3","ticks":167760,"time":174.75,"velocity":0.6299212598425197},{"duration":0.7114583333333258,"durationTicks":683,"midi":52,"name":"E3","ticks":167760,"time":174.75,"velocity":0.6299212598425197},{"duration":0.7114583333333258,"durationTicks":683,"midi":55,"name":"G3","ticks":167760,"time":174.75,"velocity":0.6299212598425197},{"duration":0.4739583333333428,"durationTicks":455,"midi":48,"name":"C3","ticks":168480,"time":175.5,"velocity":0.6299212598425197},{"duration":0.4739583333333428,"durationTicks":455,"midi":52,"name":"E3","ticks":168480,"time":175.5,"velocity":0.6299212598425197},{"duration":0.4739583333333428,"durationTicks":455,"midi":55,"name":"G3","ticks":168480,"time":175.5,"velocity":0.6299212598425197},{"duration":0.7114583333333258,"durationTicks":683,"midi":55,"name":"G3","ticks":168960,"time":176,"velocity":0.6299212598425197},{"duration":0.7114583333333258,"durationTicks":683,"midi":59,"name":"B3","ticks":168960,"time":176,"velocity":0.6299212598425197},{"duration":0.7114583333333258,"durationTicks":683,"midi":62,"name":"D4","ticks":168960,"time":176,"velocity":0.6299212598425197},{"duration":0.7114583333333258,"durationTicks":683,"midi":55,"name":"G3","ticks":169680,"time":176.75,"velocity":0.6299212598425197},{"duration":0.7114583333333258,"durationTicks":683,"midi":59,"name":"B3","ticks":169680,"time":176.75,"velocity":0.6299212598425197},{"duration":0.7114583333333258,"durationTicks":683,"midi":62,"name":"D4","ticks":169680,"time":176.75,"velocity":0.6299212598425197},{"duration":0.4739583333333428,"durationTicks":455,"midi":55,"name":"G3","ticks":170400,"time":177.5,"velocity":0.6299212598425197},{"duration":0.4739583333333428,"durationTicks":455,"midi":59,"name":"B3","ticks":170400,"time":177.5,"velocity":0.6299212598425197},{"duration":0.4739583333333428,"durationTicks":455,"midi":62,"name":"D4","ticks":170400,"time":177.5,"velocity":0.6299212598425197},{"duration":0.7114583333333258,"durationTicks":683,"midi":50,"name":"D3","ticks":170880,"time":178,"velocity":0.6299212598425197},{"duration":0.7114583333333258,"durationTicks":683,"midi":54,"name":"F#3","ticks":170880,"time":178,"velocity":0.6299212598425197},{"duration":0.7114583333333258,"durationTicks":683,"midi":57,"name":"A3","ticks":170880,"time":178,"velocity":0.6299212598425197},{"duration":0.7114583333333258,"durationTicks":683,"midi":50,"name":"D3","ticks":171600,"time":178.75,"velocity":0.6299212598425197},{"duration":0.7114583333333258,"durationTicks":683,"midi":54,"name":"F#3","ticks":171600,"time":178.75,"velocity":0.6299212598425197},{"duration":0.7114583333333258,"durationTicks":683,"midi":57,"name":"A3","ticks":171600,"time":178.75,"velocity":0.6299212598425197},{"duration":0.4739583333333428,"durationTicks":455,"midi":50,"name":"D3","ticks":172320,"time":179.5,"velocity":0.6299212598425197},{"duration":0.4739583333333428,"durationTicks":455,"midi":54,"name":"F#3","ticks":172320,"time":179.5,"velocity":0.6299212598425197},{"duration":0.4739583333333428,"durationTicks":455,"midi":57,"name":"A3","ticks":172320,"time":179.5,"velocity":0.6299212598425197},{"duration":0.7114583333333258,"durationTicks":683,"midi":52,"name":"E3","ticks":172800,"time":180,"velocity":0.6299212598425197},{"duration":0.7114583333333258,"durationTicks":683,"midi":55,"name":"G3","ticks":172800,"time":180,"velocity":0.6299212598425197},{"duration":0.7114583333333258,"durationTicks":683,"midi":59,"name":"B3","ticks":172800,"time":180,"velocity":0.6299212598425197},{"duration":0.7114583333333258,"durationTicks":683,"midi":52,"name":"E3","ticks":173520,"time":180.75,"velocity":0.6299212598425197},{"duration":0.7114583333333258,"durationTicks":683,"midi":55,"name":"G3","ticks":173520,"time":180.75,"velocity":0.6299212598425197},{"duration":0.7114583333333258,"durationTicks":683,"midi":59,"name":"B3","ticks":173520,"time":180.75,"velocity":0.6299212598425197},{"duration":0.4739583333333428,"durationTicks":455,"midi":52,"name":"E3","ticks":174240,"time":181.5,"velocity":0.6299212598425197},{"duration":0.4739583333333428,"durationTicks":455,"midi":55,"name":"G3","ticks":174240,"time":181.5,"velocity":0.6299212598425197},{"duration":0.4739583333333428,"durationTicks":455,"midi":59,"name":"B3","ticks":174240,"time":181.5,"velocity":0.6299212598425197},{"duration":0.7114583333333258,"durationTicks":683,"midi":48,"name":"C3","ticks":174720,"time":182,"velocity":0.6299212598425197},{"duration":0.7114583333333258,"durationTicks":683,"midi":52,"name":"E3","ticks":174720,"time":182,"velocity":0.6299212598425197},{"duration":0.7114583333333258,"durationTicks":683,"midi":55,"name":"G3","ticks":174720,"time":182,"velocity":0.6299212598425197},{"duration":0.7114583333333258,"durationTicks":683,"midi":48,"name":"C3","ticks":175440,"time":182.75,"velocity":0.6299212598425197},{"duration":0.7114583333333258,"durationTicks":683,"midi":52,"name":"E3","ticks":175440,"time":182.75,"velocity":0.6299212598425197},{"duration":0.7114583333333258,"durationTicks":683,"midi":55,"name":"G3","ticks":175440,"time":182.75,"velocity":0.6299212598425197},{"duration":0.4739583333333428,"durationTicks":455,"midi":48,"name":"C3","ticks":176160,"time":183.5,"velocity":0.6299212598425197},{"duration":0.4739583333333428,"durationTicks":455,"midi":52,"name":"E3","ticks":176160,"time":183.5,"velocity":0.6299212598425197},{"duration":0.4739583333333428,"durationTicks":455,"midi":55,"name":"G3","ticks":176160,"time":183.5,"velocity":0.6299212598425197},{"duration":0.7114583333333258,"durationTicks":683,"midi":55,"name":"G3","ticks":176640,"time":184,"velocity":0.6299212598425197},{"duration":0.7114583333333258,"durationTicks":683,"midi":59,"name":"B3","ticks":176640,"time":184,"velocity":0.6299212598425197},{"duration":0.7114583333333258,"durationTicks":683,"midi":62,"name":"D4","ticks":176640,"time":184,"velocity":0.6299212598425197},{"duration":0.7114583333333258,"durationTicks":683,"midi":55,"name":"G3","ticks":177360,"time":184.75,"velocity":0.6299212598425197},{"duration":0.7114583333333258,"durationTicks":683,"midi":59,"name":"B3","ticks":177360,"time":184.75,"velocity":0.6299212598425197},{"duration":0.7114583333333258,"durationTicks":683,"midi":62,"name":"D4","ticks":177360,"time":184.75,"velocity":0.6299212598425197},{"duration":0.4739583333333428,"durationTicks":455,"midi":55,"name":"G3","ticks":178080,"time":185.5,"velocity":0.6299212598425197},{"duration":0.4739583333333428,"durationTicks":455,"midi":59,"name":"B3","ticks":178080,"time":185.5,"velocity":0.6299212598425197},{"duration":0.4739583333333428,"durationTicks":455,"midi":62,"name":"D4","ticks":178080,"time":185.5,"velocity":0.6299212598425197},{"duration":0.7114583333333258,"durationTicks":683,"midi":50,"name":"D3","ticks":178560,"time":186,"velocity":0.6299212598425197},{"duration":0.7114583333333258,"durationTicks":683,"midi":54,"name":"F#3","ticks":178560,"time":186,"velocity":0.6299212598425197},{"duration":0.7114583333333258,"durationTicks":683,"midi":57,"name":"A3","ticks":178560,"time":186,"velocity":0.6299212598425197},{"duration":0.7114583333333258,"durationTicks":683,"midi":50,"name":"D3","ticks":179280,"time":186.75,"velocity":0.6299212598425197},{"duration":0.7114583333333258,"durationTicks":683,"midi":54,"name":"F#3","ticks":179280,"time":186.75,"velocity":0.6299212598425197},{"duration":0.7114583333333258,"durationTicks":683,"midi":57,"name":"A3","ticks":179280,"time":186.75,"velocity":0.6299212598425197},{"duration":0.4739583333333428,"durationTicks":455,"midi":50,"name":"D3","ticks":180000,"time":187.5,"velocity":0.6299212598425197},{"duration":0.4739583333333428,"durationTicks":455,"midi":54,"name":"F#3","ticks":180000,"time":187.5,"velocity":0.6299212598425197},{"duration":0.4739583333333428,"durationTicks":455,"midi":57,"name":"A3","ticks":180000,"time":187.5,"velocity":0.6299212598425197},{"duration":0.23645833333333144,"durationTicks":227,"midi":52,"name":"E3","ticks":180480,"time":188,"velocity":0.6299212598425197},{"duration":0.23645833333333144,"durationTicks":227,"midi":55,"name":"G3","ticks":180720,"time":188.25,"velocity":0.6299212598425197},{"duration":0.23645833333333144,"durationTicks":227,"midi":59,"name":"B3","ticks":180960,"time":188.5,"velocity":0.6299212598425197},{"duration":0.23645833333333144,"durationTicks":227,"midi":52,"name":"E3","ticks":181200,"time":188.75,"velocity":0.6299212598425197},{"duration":0.23645833333333144,"durationTicks":227,"midi":55,"name":"G3","ticks":181440,"time":189,"velocity":0.6299212598425197},{"duration":0.23645833333333144,"durationTicks":227,"midi":59,"name":"B3","ticks":181680,"time":189.25,"velocity":0.6299212598425197},{"duration":0.23645833333333144,"durationTicks":227,"midi":52,"name":"E3","ticks":181920,"time":189.5,"velocity":0.6299212598425197},{"duration":0.23645833333333144,"durationTicks":227,"midi":55,"name":"G3","ticks":182160,"time":189.75,"velocity":0.6299212598425197},{"duration":0.23645833333333144,"durationTicks":227,"midi":48,"name":"C3","ticks":182400,"time":190,"velocity":0.6299212598425197},{"duration":0.23645833333333144,"durationTicks":227,"midi":52,"name":"E3","ticks":182640,"time":190.25,"velocity":0.6299212598425197},{"duration":0.23645833333333144,"durationTicks":227,"midi":55,"name":"G3","ticks":182880,"time":190.5,"velocity":0.6299212598425197},{"duration":0.23645833333333144,"durationTicks":227,"midi":48,"name":"C3","ticks":183120,"time":190.75,"velocity":0.6299212598425197},{"duration":0.23645833333333144,"durationTicks":227,"midi":52,"name":"E3","ticks":183360,"time":191,"velocity":0.6299212598425197},{"duration":0.23645833333333144,"durationTicks":227,"midi":55,"name":"G3","ticks":183600,"time":191.25,"velocity":0.6299212598425197},{"duration":0.23645833333333144,"durationTicks":227,"midi":48,"name":"C3","ticks":183840,"time":191.5,"velocity":0.6299212598425197},{"duration":0.23645833333333144,"durationTicks":227,"midi":52,"name":"E3","ticks":184080,"time":191.75,"velocity":0.6299212598425197},{"duration":0.23645833333333144,"durationTicks":227,"midi":55,"name":"G3","ticks":184320,"time":192,"velocity":0.6299212598425197},{"duration":0.23645833333333144,"durationTicks":227,"midi":59,"name":"B3","ticks":184560,"time":192.25,"velocity":0.6299212598425197},{"duration":0.23645833333333144,"durationTicks":227,"midi":62,"name":"D4","ticks":184800,"time":192.5,"velocity":0.6299212598425197},{"duration":0.23645833333333144,"durationTicks":227,"midi":55,"name":"G3","ticks":185040,"time":192.75,"velocity":0.6299212598425197},{"duration":0.23645833333333144,"durationTicks":227,"midi":59,"name":"B3","ticks":185280,"time":193,"velocity":0.6299212598425197},{"duration":0.23645833333333144,"durationTicks":227,"midi":62,"name":"D4","ticks":185520,"time":193.25,"velocity":0.6299212598425197},{"duration":0.23645833333333144,"durationTicks":227,"midi":55,"name":"G3","ticks":185760,"time":193.5,"velocity":0.6299212598425197},{"duration":0.23645833333333144,"durationTicks":227,"midi":59,"name":"B3","ticks":186000,"time":193.75,"velocity":0.6299212598425197},{"duration":0.23645833333333144,"durationTicks":227,"midi":50,"name":"D3","ticks":186240,"time":194,"velocity":0.6299212598425197},{"duration":0.23645833333333144,"durationTicks":227,"midi":54,"name":"F#3","ticks":186480,"time":194.25,"velocity":0.6299212598425197},{"duration":0.23645833333333144,"durationTicks":227,"midi":57,"name":"A3","ticks":186720,"time":194.5,"velocity":0.6299212598425197},{"duration":0.23645833333333144,"durationTicks":227,"midi":50,"name":"D3","ticks":186960,"time":194.75,"velocity":0.6299212598425197},{"duration":0.23645833333333144,"durationTicks":227,"midi":54,"name":"F#3","ticks":187200,"time":195,"velocity":0.6299212598425197},{"duration":0.23645833333333144,"durationTicks":227,"midi":57,"name":"A3","ticks":187440,"time":195.25,"velocity":0.6299212598425197},{"duration":0.23645833333333144,"durationTicks":227,"midi":50,"name":"D3","ticks":187680,"time":195.5,"velocity":0.6299212598425197},{"duration":0.23645833333333144,"durationTicks":227,"midi":54,"name":"F#3","ticks":187920,"time":195.75,"velocity":0.6299212598425197},{"duration":0.23645833333333144,"durationTicks":227,"midi":52,"name":"E3","ticks":188160,"time":196,"velocity":0.6299212598425197},{"duration":0.23645833333333144,"durationTicks":227,"midi":55,"name":"G3","ticks":188400,"time":196.25,"velocity":0.6299212598425197},{"duration":0.23645833333333144,"durationTicks":227,"midi":59,"name":"B3","ticks":188640,"time":196.5,"velocity":0.6299212598425197},{"duration":0.23645833333333144,"durationTicks":227,"midi":52,"name":"E3","ticks":188880,"time":196.75,"velocity":0.6299212598425197},{"duration":0.23645833333333144,"durationTicks":227,"midi":55,"name":"G3","ticks":189120,"time":197,"velocity":0.6299212598425197},{"duration":0.23645833333333144,"durationTicks":227,"midi":59,"name":"B3","ticks":189360,"time":197.25,"velocity":0.6299212598425197},{"duration":0.23645833333333144,"durationTicks":227,"midi":52,"name":"E3","ticks":189600,"time":197.5,"velocity":0.6299212598425197},{"duration":0.23645833333333144,"durationTicks":227,"midi":55,"name":"G3","ticks":189840,"time":197.75,"velocity":0.6299212598425197},{"duration":0.23645833333333144,"durationTicks":227,"midi":48,"name":"C3","ticks":190080,"time":198,"velocity":0.6299212598425197},{"duration":0.23645833333333144,"durationTicks":227,"midi":52,"name":"E3","ticks":190320,"time":198.25,"velocity":0.6299212598425197},{"duration":0.23645833333333144,"durationTicks":227,"midi":55,"name":"G3","ticks":190560,"time":198.5,"velocity":0.6299212598425197},{"duration":0.23645833333333144,"durationTicks":227,"midi":48,"name":"C3","ticks":190800,"time":198.75,"velocity":0.6299212598425197},{"duration":0.23645833333333144,"durationTicks":227,"midi":52,"name":"E3","ticks":191040,"time":199,"velocity":0.6299212598425197},{"duration":0.23645833333333144,"durationTicks":227,"midi":55,"name":"G3","ticks":191280,"time":199.25,"velocity":0.6299212598425197},{"duration":0.23645833333333144,"durationTicks":227,"midi":48,"name":"C3","ticks":191520,"time":199.5,"velocity":0.6299212598425197},{"duration":0.23645833333333144,"durationTicks":227,"midi":52,"name":"E3","ticks":191760,"time":199.75,"velocity":0.6299212598425197},{"duration":0.23645833333333144,"durationTicks":227,"midi":55,"name":"G3","ticks":192000,"time":200,"velocity":0.6299212598425197},{"duration":0.23645833333333144,"durationTicks":227,"midi":59,"name":"B3","ticks":192240,"time":200.25,"velocity":0.6299212598425197},{"duration":0.23645833333333144,"durationTicks":227,"midi":62,"name":"D4","ticks":192480,"time":200.5,"velocity":0.6299212598425197},{"duration":0.23645833333333144,"durationTicks":227,"midi":55,"name":"G3","ticks":192720,"time":200.75,"velocity":0.6299212598425197},{"duration":0.23645833333333144,"durationTicks":227,"midi":59,"name":"B3","ticks":192960,"time":201,"velocity":0.6299212598425197},{"duration":0.23645833333333144,"durationTicks":227,"midi":62,"name":"D4","ticks":193200,"time":201.25,"velocity":0.6299212598425197},{"duration":0.23645833333333144,"durationTicks":227,"midi":55,"name":"G3","ticks":193440,"time":201.5,"velocity":0.6299212598425197},{"duration":0.23645833333333144,"durationTicks":227,"midi":59,"name":"B3","ticks":193680,"time":201.75,"velocity":0.6299212598425197},{"duration":0.23645833333333144,"durationTicks":227,"midi":50,"name":"D3","ticks":193920,"time":202,"velocity":0.6299212598425197},{"duration":0.23645833333333144,"durationTicks":227,"midi":54,"name":"F#3","ticks":194160,"time":202.25,"velocity":0.6299212598425197},{"duration":0.23645833333333144,"durationTicks":227,"midi":57,"name":"A3","ticks":194400,"time":202.5,"velocity":0.6299212598425197},{"duration":0.23645833333333144,"durationTicks":227,"midi":50,"name":"D3","ticks":194640,"time":202.75,"velocity":0.6299212598425197},{"duration":0.23645833333333144,"durationTicks":227,"midi":54,"name":"F#3","ticks":194880,"time":203,"velocity":0.6299212598425197},{"duration":0.23645833333333144,"durationTicks":227,"midi":57,"name":"A3","ticks":195120,"time":203.25,"velocity":0.6299212598425197},{"duration":0.23645833333333144,"durationTicks":227,"midi":50,"name":"D3","ticks":195360,"time":203.5,"velocity":0.6299212598425197},{"duration":0.23645833333333144,"durationTicks":227,"midi":54,"name":"F#3","ticks":195600,"time":203.75,"velocity":0.6299212598425197},{"duration":0.7114583333333258,"durationTicks":683,"midi":52,"name":"E3","ticks":195840,"time":204,"velocity":0.6299212598425197},{"duration":0.7114583333333258,"durationTicks":683,"midi":55,"name":"G3","ticks":195840,"time":204,"velocity":0.6299212598425197},{"duration":0.7114583333333258,"durationTicks":683,"midi":59,"name":"B3","ticks":195840,"time":204,"velocity":0.6299212598425197},{"duration":0.7114583333333258,"durationTicks":683,"midi":52,"name":"E3","ticks":196560,"time":204.75,"velocity":0.6299212598425197},{"duration":0.7114583333333258,"durationTicks":683,"midi":55,"name":"G3","ticks":196560,"time":204.75,"velocity":0.6299212598425197},{"duration":0.7114583333333258,"durationTicks":683,"midi":59,"name":"B3","ticks":196560,"time":204.75,"velocity":0.6299212598425197},{"duration":0.4739583333333428,"durationTicks":455,"midi":52,"name":"E3","ticks":197280,"time":205.5,"velocity":0.6299212598425197},{"duration":0.4739583333333428,"durationTicks":455,"midi":55,"name":"G3","ticks":197280,"time":205.5,"velocity":0.6299212598425197},{"duration":0.4739583333333428,"durationTicks":455,"midi":59,"name":"B3","ticks":197280,"time":205.5,"velocity":0.6299212598425197},{"duration":0.7114583333333258,"durationTicks":683,"midi":48,"name":"C3","ticks":197760,"time":206,"velocity":0.6299212598425197},{"duration":0.7114583333333258,"durationTicks":683,"midi":52,"name":"E3","ticks":197760,"time":206,"velocity":0.6299212598425197},{"duration":0.7114583333333258,"durationTicks":683,"midi":55,"name":"G3","ticks":197760,"time":206,"velocity":0.6299212598425197},{"duration":0.7114583333333258,"durationTicks":683,"midi":48,"name":"C3","ticks":198480,"time":206.75,"velocity":0.6299212598425197},{"duration":0.7114583333333258,"durationTicks":683,"midi":52,"name":"E3","ticks":198480,"time":206.75,"velocity":0.6299212598425197},{"duration":0.7114583333333258,"durationTicks":683,"midi":55,"name":"G3","ticks":198480,"time":206.75,"velocity":0.6299212598425197},{"duration":0.4739583333333428,"durationTicks":455,"midi":48,"name":"C3","ticks":199200,"time":207.5,"velocity":0.6299212598425197},{"duration":0.4739583333333428,"durationTicks":455,"midi":52,"name":"E3","ticks":199200,"time":207.5,"velocity":0.6299212598425197},{"duration":0.4739583333333428,"durationTicks":455,"midi":55,"name":"G3","ticks":199200,"time":207.5,"velocity":0.6299212598425197},{"duration":0.7114583333333258,"durationTicks":683,"midi":55,"name":"G3","ticks":199680,"time":208,"velocity":0.6299212598425197},{"duration":0.7114583333333258,"durationTicks":683,"midi":59,"name":"B3","ticks":199680,"time":208,"velocity":0.6299212598425197},{"duration":0.7114583333333258,"durationTicks":683,"midi":62,"name":"D4","ticks":199680,"time":208,"velocity":0.6299212598425197},{"duration":0.7114583333333258,"durationTicks":683,"midi":55,"name":"G3","ticks":200400,"time":208.75,"velocity":0.6299212598425197},{"duration":0.7114583333333258,"durationTicks":683,"midi":59,"name":"B3","ticks":200400,"time":208.75,"velocity":0.6299212598425197},{"duration":0.7114583333333258,"durationTicks":683,"midi":62,"name":"D4","ticks":200400,"time":208.75,"velocity":0.6299212598425197},{"duration":0.4739583333333428,"durationTicks":455,"midi":55,"name":"G3","ticks":201120,"time":209.5,"velocity":0.6299212598425197},{"duration":0.4739583333333428,"durationTicks":455,"midi":59,"name":"B3","ticks":201120,"time":209.5,"velocity":0.6299212598425197},{"duration":0.4739583333333428,"durationTicks":455,"midi":62,"name":"D4","ticks":201120,"time":209.5,"velocity":0.6299212598425197},{"duration":0.7114583333333258,"durationTicks":683,"midi":50,"name":"D3","ticks":201600,"time":210,"velocity":0.6299212598425197},{"duration":0.7114583333333258,"durationTicks":683,"midi":54,"name":"F#3","ticks":201600,"time":210,"velocity":0.6299212598425197},{"duration":0.7114583333333258,"durationTicks":683,"midi":57,"name":"A3","ticks":201600,"time":210,"velocity":0.6299212598425197},{"duration":0.7114583333333258,"durationTicks":683,"midi":50,"name":"D3","ticks":202320,"time":210.75,"velocity":0.6299212598425197},{"duration":0.7114583333333258,"durationTicks":683,"midi":54,"name":"F#3","ticks":202320,"time":210.75,"velocity":0.6299212598425197},{"duration":0.7114583333333258,"durationTicks":683,"midi":57,"name":"A3","ticks":202320,"time":210.75,"velocity":0.6299212598425197},{"duration":0.4739583333333428,"durationTicks":455,"midi":50,"name":"D3","ticks":203040,"time":211.5,"velocity":0.6299212598425197},{"duration":0.4739583333333428,"durationTicks":455,"midi":54,"name":"F#3","ticks":203040,"time":211.5,"velocity":0.6299212598425197},{"duration":0.4739583333333428,"durationTicks":455,"midi":57,"name":"A3","ticks":203040,"time":211.5,"velocity":0.6299212598425197},{"duration":0.7114583333333258,"durationTicks":683,"midi":52,"name":"E3","ticks":203520,"time":212,"velocity":0.6299212598425197},{"duration":0.7114583333333258,"durationTicks":683,"midi":55,"name":"G3","ticks":203520,"time":212,"velocity":0.6299212598425197},{"duration":0.7114583333333258,"durationTicks":683,"midi":59,"name":"B3","ticks":203520,"time":212,"velocity":0.6299212598425197},{"duration":0.7114583333333258,"durationTicks":683,"midi":52,"name":"E3","ticks":204240,"time":212.75,"velocity":0.6299212598425197},{"duration":0.7114583333333258,"durationTicks":683,"midi":55,"name":"G3","ticks":204240,"time":212.75,"velocity":0.6299212598425197},{"duration":0.7114583333333258,"durationTicks":683,"midi":59,"name":"B3","ticks":204240,"time":212.75,"velocity":0.6299212598425197},{"duration":0.4739583333333428,"durationTicks":455,"midi":52,"name":"E3","ticks":204960,"time":213.5,"velocity":0.6299212598425197},{"duration":0.4739583333333428,"durationTicks":455,"midi":55,"name":"G3","ticks":204960,"time":213.5,"velocity":0.6299212598425197},{"duration":0.4739583333333428,"durationTicks":455,"midi":59,"name":"B3","ticks":204960,"time":213.5,"velocity":0.6299212598425197},{"duration":0.7114583333333258,"durationTicks":683,"midi":48,"name":"C3","ticks":205440,"time":214,"velocity":0.6299212598425197},{"duration":0.7114583333333258,"durationTicks":683,"midi":52,"name":"E3","ticks":205440,"time":214,"velocity":0.6299212598425197},{"duration":0.7114583333333258,"durationTicks":683,"midi":55,"name":"G3","ticks":205440,"time":214,"velocity":0.6299212598425197},{"duration":0.7114583333333258,"durationTicks":683,"midi":48,"name":"C3","ticks":206160,"time":214.75,"velocity":0.6299212598425197},{"duration":0.7114583333333258,"durationTicks":683,"midi":52,"name":"E3","ticks":206160,"time":214.75,"velocity":0.6299212598425197},{"duration":0.7114583333333258,"durationTicks":683,"midi":55,"name":"G3","ticks":206160,"time":214.75,"velocity":0.6299212598425197},{"duration":0.4739583333333428,"durationTicks":455,"midi":48,"name":"C3","ticks":206880,"time":215.5,"velocity":0.6299212598425197},{"duration":0.4739583333333428,"durationTicks":455,"midi":52,"name":"E3","ticks":206880,"time":215.5,"velocity":0.6299212598425197},{"duration":0.4739583333333428,"durationTicks":455,"midi":55,"name":"G3","ticks":206880,"time":215.5,"velocity":0.6299212598425197},{"duration":0.7114583333333258,"durationTicks":683,"midi":55,"name":"G3","ticks":207360,"time":216,"velocity":0.6299212598425197},{"duration":0.7114583333333258,"durationTicks":683,"midi":59,"name":"B3","ticks":207360,"time":216,"velocity":0.6299212598425197},{"duration":0.7114583333333258,"durationTicks":683,"midi":62,"name":"D4","ticks":207360,"time":216,"velocity":0.6299212598425197},{"duration":0.7114583333333258,"durationTicks":683,"midi":55,"name":"G3","ticks":208080,"time":216.75,"velocity":0.6299212598425197},{"duration":0.7114583333333258,"durationTicks":683,"midi":59,"name":"B3","ticks":208080,"time":216.75,"velocity":0.6299212598425197},{"duration":0.7114583333333258,"durationTicks":683,"midi":62,"name":"D4","ticks":208080,"time":216.75,"velocity":0.6299212598425197},{"duration":0.4739583333333428,"durationTicks":455,"midi":55,"name":"G3","ticks":208800,"time":217.5,"velocity":0.6299212598425197},{"duration":0.4739583333333428,"durationTicks":455,"midi":59,"name":"B3","ticks":208800,"time":217.5,"velocity":0.6299212598425197},{"duration":0.4739583333333428,"durationTicks":455,"midi":62,"name":"D4","ticks":208800,"time":217.5,"velocity":0.6299212598425197},{"duration":0.7114583333333258,"durationTicks":683,"midi":50,"name":"D3","ticks":209280,"time":218,"velocity":0.6299212598425197},{"duration":0.7114583333333258,"durationTicks":683,"midi":54,"name":"F#3","ticks":209280,"time":218,"velocity":0.6299212598425197},{"duration":0.7114583333333258,"durationTicks":683,"midi":57,"name":"A3","ticks":209280,"time":218,"velocity":0.6299212598425197},{"duration":0.7114583333333258,"durationTicks":683,"midi":50,"name":"D3","ticks":210000,"time":218.75,"velocity":0.6299212598425197},{"duration":0.7114583333333258,"durationTicks":683,"midi":54,"name":"F#3","ticks":210000,"time":218.75,"velocity":0.6299212598425197},{"duration":0.7114583333333258,"durationTicks":683,"midi":57,"name":"A3","ticks":210000,"time":218.75,"velocity":0.6299212598425197},{"duration":0.4739583333333428,"durationTicks":455,"midi":50,"name":"D3","ticks":210720,"time":219.5,"velocity":0.6299212598425197},{"duration":0.4739583333333428,"durationTicks":455,"midi":54,"name":"F#3","ticks":210720,"time":219.5,"velocity":0.6299212598425197},{"duration":0.4739583333333428,"durationTicks":455,"midi":57,"name":"A3","ticks":210720,"time":219.5,"velocity":0.6299212598425197},{"duration":0.7114583333333258,"durationTicks":683,"midi":52,"name":"E3","ticks":211200,"time":220,"velocity":0.6299212598425197},{"duration":0.7114583333333258,"durationTicks":683,"midi":59,"name":"B3","ticks":211200,"time":220,"velocity":0.6299212598425197},{"duration":0.7114583333333258,"durationTicks":683,"midi":64,"name":"E4","ticks":211920,"time":220.75,"velocity":0.6299212598425197},{"duration":0.4739583333333428,"durationTicks":455,"midi":64,"name":"E4","ticks":212640,"time":221.5,"velocity":0.6299212598425197},{"duration":0.7114583333333258,"durationTicks":683,"midi":48,"name":"C3","ticks":213120,"time":222,"velocity":0.6299212598425197},{"duration":0.7114583333333258,"durationTicks":683,"midi":55,"name":"G3","ticks":213120,"time":222,"velocity":0.6299212598425197},{"duration":0.7114583333333258,"durationTicks":683,"midi":64,"name":"E4","ticks":213840,"time":222.75,"velocity":0.6299212598425197},{"duration":0.4739583333333428,"durationTicks":455,"midi":64,"name":"E4","ticks":214560,"time":223.5,"velocity":0.6299212598425197},{"duration":0.7114583333333258,"durationTicks":683,"midi":55,"name":"G3","ticks":215040,"time":224,"velocity":0.6299212598425197},{"duration":0.7114583333333258,"durationTicks":683,"midi":59,"name":"B3","ticks":215040,"time":224,"velocity":0.6299212598425197},{"duration":0.7114583333333258,"durationTicks":683,"midi":64,"name":"E4","ticks":215760,"time":224.75,"velocity":0.6299212598425197},{"duration":0.4739583333333428,"durationTicks":455,"midi":64,"name":"E4","ticks":216480,"time":225.5,"velocity":0.6299212598425197},{"duration":0.11770833333332575,"durationTicks":113,"midi":55,"name":"G3","ticks":217200,"time":226.25,"velocity":0.6299212598425197},{"duration":0.11770833333332575,"durationTicks":113,"midi":55,"name":"G3","ticks":217320,"time":226.375,"velocity":0.6299212598425197},{"duration":0.23645833333333144,"durationTicks":227,"midi":55,"name":"G3","ticks":217440,"time":226.5,"velocity":0.6299212598425197},{"duration":0.11770833333332575,"durationTicks":113,"midi":55,"name":"G3","ticks":217680,"time":226.75,"velocity":0.6299212598425197},{"duration":0.11770833333332575,"durationTicks":113,"midi":55,"name":"G3","ticks":217800,"time":226.875,"velocity":0.6299212598425197},{"duration":0.23645833333333144,"durationTicks":227,"midi":55,"name":"G3","ticks":217920,"time":227,"velocity":0.6299212598425197},{"duration":0.11770833333332575,"durationTicks":113,"midi":55,"name":"G3","ticks":218160,"time":227.25,"velocity":0.6299212598425197},{"duration":0.11770833333332575,"durationTicks":113,"midi":55,"name":"G3","ticks":218280,"time":227.375,"velocity":0.6299212598425197},{"duration":0.4739583333333428,"durationTicks":455,"midi":54,"name":"F#3","ticks":218400,"time":227.5,"velocity":0.6299212598425197},{"duration":0.7114583333333258,"durationTicks":683,"midi":52,"name":"E3","ticks":218880,"time":228,"velocity":0.6299212598425197},{"duration":0.7114583333333258,"durationTicks":683,"midi":64,"name":"E4","ticks":219600,"time":228.75,"velocity":0.6299212598425197},{"duration":0.4739583333333428,"durationTicks":455,"midi":64,"name":"E4","ticks":220320,"time":229.5,"velocity":0.6299212598425197},{"duration":0.7114583333333258,"durationTicks":683,"midi":48,"name":"C3","ticks":220800,"time":230,"velocity":0.6299212598425197},{"duration":0.7114583333333258,"durationTicks":683,"midi":55,"name":"G3","ticks":220800,"time":230,"velocity":0.6299212598425197},{"duration":0.7114583333333258,"durationTicks":683,"midi":64,"name":"E4","ticks":221520,"time":230.75,"velocity":0.6299212598425197},{"duration":0.4739583333333428,"durationTicks":455,"midi":64,"name":"E4","ticks":222240,"time":231.5,"velocity":0.6299212598425197},{"duration":0.7114583333333258,"durationTicks":683,"midi":55,"name":"G3","ticks":222720,"time":232,"velocity":0.6299212598425197},{"duration":0.7114583333333258,"durationTicks":683,"midi":59,"name":"B3","ticks":222720,"time":232,"velocity":0.6299212598425197},{"duration":0.7114583333333258,"durationTicks":683,"midi":64,"name":"E4","ticks":223440,"time":232.75,"velocity":0.6299212598425197},{"duration":0.4739583333333428,"durationTicks":455,"midi":64,"name":"E4","ticks":224160,"time":233.5,"velocity":0.6299212598425197},{"duration":0.23645833333333144,"durationTicks":227,"midi":52,"name":"E3","ticks":224640,"time":234,"velocity":0.6299212598425197},{"duration":0.23645833333333144,"durationTicks":227,"midi":55,"name":"G3","ticks":224640,"time":234,"velocity":0.6299212598425197},{"duration":0.23645833333333144,"durationTicks":227,"midi":52,"name":"E3","ticks":224880,"time":234.25,"velocity":0.6299212598425197},{"duration":0.23645833333333144,"durationTicks":227,"midi":55,"name":"G3","ticks":224880,"time":234.25,"velocity":0.6299212598425197},{"duration":0.23645833333333144,"durationTicks":227,"midi":52,"name":"E3","ticks":225120,"time":234.5,"velocity":0.6299212598425197},{"duration":0.23645833333333144,"durationTicks":227,"midi":55,"name":"G3","ticks":225120,"time":234.5,"velocity":0.6299212598425197},{"duration":0.23645833333333144,"durationTicks":227,"midi":52,"name":"E3","ticks":225360,"time":234.75,"velocity":0.6299212598425197},{"duration":0.23645833333333144,"durationTicks":227,"midi":55,"name":"G3","ticks":225360,"time":234.75,"velocity":0.6299212598425197},{"duration":0.11770833333332575,"durationTicks":113,"midi":55,"name":"G3","ticks":225600,"time":235,"velocity":0.6299212598425197},{"duration":0.11770833333332575,"durationTicks":113,"midi":55,"name":"G3","ticks":225720,"time":235.125,"velocity":0.6299212598425197},{"duration":0.11770833333332575,"durationTicks":113,"midi":54,"name":"F#3","ticks":226080,"time":235.5,"velocity":0.6299212598425197},{"duration":0.11770833333332575,"durationTicks":113,"midi":54,"name":"F#3","ticks":226200,"time":235.625,"velocity":0.6299212598425197},{"duration":0.23645833333333144,"durationTicks":227,"midi":47,"name":"B2","ticks":226560,"time":236,"velocity":0.6299212598425197},{"duration":0.23645833333333144,"durationTicks":227,"midi":52,"name":"E3","ticks":226560,"time":236,"velocity":0.6299212598425197},{"duration":0.23645833333333144,"durationTicks":227,"midi":55,"name":"G3","ticks":226560,"time":236,"velocity":0.6299212598425197}]}]}