{
  "header": {
    "title": "How You Like That",
    "artist": "BLACKPINK",
    "source": "https://musescore.com/user/7358591/scores/6220943",
    "bpm": 130.00013000013,
    "duration": 177.13732286250143
  },
  "tracks": [
    {
      "instrument_number": 0,
      "notes": [
        {
          "name": "D#4",
          "midi": 63,
          "time": 0,
          "velocity": 0.25984251968503935,
          "duration": 0.0759614625
        },
        {
          "name": "A#3",
          "midi": 58,
          "time": 0.07692299999999999,
          "velocity": 0.25984251968503935,
          "duration": 0.0759614625
        },
        {
          "name": "D#4",
          "midi": 63,
          "time": 0.15384599999999998,
          "velocity": 0.2755905511811024,
          "duration": 0.07596146249999997
        },
        {
          "name": "A#3",
          "midi": 58,
          "time": 0.23076899999999995,
          "velocity": 0.29133858267716534,
          "duration": 0.07596146249999997
        },
        {
          "name": "D#4",
          "midi": 63,
          "time": 0.3076919999999999,
          "velocity": 0.30708661417322836,
          "duration": 0.07596146249999997
        },
        {
          "name": "A#3",
          "midi": 58,
          "time": 0.3846149999999999,
          "velocity": 0.3228346456692913,
          "duration": 0.07211531249999997
        },
        {
          "name": "F#4",
          "midi": 66,
          "time": 0.46153799999999984,
          "velocity": 0.33858267716535434,
          "duration": 0.07596146250000008
        },
        {
          "name": "D#4",
          "midi": 63,
          "time": 0.538461,
          "velocity": 0.3543307086614173,
          "duration": 0.07596146250000002
        },
        {
          "name": "F#4",
          "midi": 66,
          "time": 0.615384,
          "velocity": 0.3700787401574803,
          "duration": 0.07596146249999991
        },
        {
          "name": "D#4",
          "midi": 63,
          "time": 0.692307,
          "velocity": 0.3858267716535433,
          "duration": 0.07596146249999991
        },
        {
          "name": "F#4",
          "midi": 66,
          "time": 0.76923,
          "velocity": 0.4015748031496063,
          "duration": 0.07596146249999991
        },
        {
          "name": "D#4",
          "midi": 63,
          "time": 0.8461529999999999,
          "velocity": 0.41732283464566927,
          "duration": 0.07211531250000003
        },
        {
          "name": "A#4",
          "midi": 70,
          "time": 0.923076,
          "velocity": 0.4330708661417323,
          "duration": 0.07596146250000002
        },
        {
          "name": "F#4",
          "midi": 66,
          "time": 0.9999990000000001,
          "velocity": 0.44881889763779526,
          "duration": 0.07596146250000002
        },
        {
          "name": "A#4",
          "midi": 70,
          "time": 1.0769220000000002,
          "velocity": 0.4645669291338583,
          "duration": 0.07596146250000024
        },
        {
          "name": "F#4",
          "midi": 66,
          "time": 1.1538450000000005,
          "velocity": 0.48031496062992124,
          "duration": 0.07596146250000002
        },
        {
          "name": "A#4",
          "midi": 70,
          "time": 1.2307680000000005,
          "velocity": 0.49606299212598426,
          "duration": 0.07596146250000024
        },
        {
          "name": "F#4",
          "midi": 66,
          "time": 1.3076910000000008,
          "velocity": 0.5118110236220472,
          "duration": 0.0721153124999998
        },
        {
          "name": "C#5",
          "midi": 73,
          "time": 1.3846140000000007,
          "velocity": 0.5275590551181102,
          "duration": 0.07596146250000002
        },
        {
          "name": "A#4",
          "midi": 70,
          "time": 1.4615370000000008,
          "velocity": 0.5433070866141733,
          "duration": 0.07596146250000002
        },
        {
          "name": "C#5",
          "midi": 73,
          "time": 1.5384600000000008,
          "velocity": 0.5590551181102362,
          "duration": 0.07596146250000002
        },
        {
          "name": "A#4",
          "midi": 70,
          "time": 1.615383000000001,
          "velocity": 0.5748031496062992,
          "duration": 0.07596146250000024
        },
        {
          "name": "C#5",
          "midi": 73,
          "time": 1.6923060000000012,
          "velocity": 0.5905511811023622,
          "duration": 0.07596146250000002
        },
        {
          "name": "A#4",
          "midi": 70,
          "time": 1.7692290000000013,
          "velocity": 0.6062992125984252,
          "duration": 0.07211531250000025
        },
        {
          "name": "D#5",
          "midi": 75,
          "time": 1.8461520000000016,
          "velocity": 0.6299212598425197,
          "duration": 0.22980746249999995
        },
        {
          "name": "D#4",
          "midi": 63,
          "time": 1.8461520000000016,
          "velocity": 0.6299212598425197,
          "duration": 0.1451921624999999
        },
        {
          "name": "D#5",
          "midi": 75,
          "time": 1.8461520000000016,
          "velocity": 0.6299212598425197,
          "duration": 0.7605761624999989
        },
        {
          "name": "F#4",
          "midi": 66,
          "time": 1.9999980000000015,
          "velocity": 0.6299212598425197,
          "duration": 0.1451921624999999
        },
        {
          "name": "A#4",
          "midi": 70,
          "time": 2.153844000000001,
          "velocity": 0.6299212598425197,
          "duration": 0.1451921624999999
        },
        {
          "name": "A#5",
          "midi": 82,
          "time": 2.307690000000001,
          "velocity": 0.6377952755905512,
          "duration": 0.22980746249999973
        },
        {
          "name": "A#4",
          "midi": 70,
          "time": 2.307690000000001,
          "velocity": 0.6377952755905512,
          "duration": 0.1451921624999999
        },
        {
          "name": "A#5",
          "midi": 82,
          "time": 2.307690000000001,
          "velocity": 0.6377952755905512,
          "duration": 1.3846139999999978
        },
        {
          "name": "D#5",
          "midi": 75,
          "time": 2.4615360000000006,
          "velocity": 0.6456692913385826,
          "duration": 1.5298061624999977
        },
        {
          "name": "F#5",
          "midi": 78,
          "time": 2.6153820000000003,
          "velocity": 0.6456692913385826,
          "duration": 0.14519216250000033
        },
        {
          "name": "B5",
          "midi": 83,
          "time": 2.7692280000000005,
          "velocity": 0.6535433070866141,
          "duration": 0.22980746249999973
        },
        {
          "name": "B4",
          "midi": 71,
          "time": 2.7692280000000005,
          "velocity": 0.6535433070866141,
          "duration": 0.1451921624999999
        },
        {
          "name": "B5",
          "midi": 83,
          "time": 2.7692280000000005,
          "velocity": 0.6535433070866141,
          "duration": 30.789392287499954
        },
        {
          "name": "E5",
          "midi": 76,
          "time": 2.923074,
          "velocity": 0.6614173228346457,
          "duration": 0.1451921624999999
        },
        {
          "name": "G#5",
          "midi": 80,
          "time": 3.07692,
          "velocity": 0.6614173228346457,
          "duration": 0.1451921624999999
        },
        {
          "name": "G#5",
          "midi": 80,
          "time": 3.2307659999999996,
          "velocity": 0.6692913385826772,
          "duration": 0.22980746249999973
        },
        {
          "name": "G#4",
          "midi": 68,
          "time": 3.2307659999999996,
          "velocity": 0.6692913385826772,
          "duration": 0.1451921624999999
        },
        {
          "name": "G#5",
          "midi": 80,
          "time": 3.2307659999999996,
          "velocity": 0.6692913385826772,
          "duration": 1.3846139999999978
        },
        {
          "name": "B4",
          "midi": 71,
          "time": 3.3846119999999993,
          "velocity": 0.6771653543307087,
          "duration": 0.1451921624999999
        },
        {
          "name": "E5",
          "midi": 76,
          "time": 3.538457999999999,
          "velocity": 0.6771653543307087,
          "duration": 0.1451921624999999
        },
        {
          "name": "A#5",
          "midi": 82,
          "time": 3.6923039999999987,
          "velocity": 0.6850393700787402,
          "duration": 0.22980746249999973
        },
        {
          "name": "A#4",
          "midi": 70,
          "time": 3.6923039999999987,
          "velocity": 0.6850393700787402,
          "duration": 0.1451921624999999
        },
        {
          "name": "A#5",
          "midi": 82,
          "time": 3.6923039999999987,
          "velocity": 0.6850393700787402,
          "duration": 4.153841999999994
        },
        {
          "name": "D#5",
          "midi": 75,
          "time": 3.8461499999999984,
          "velocity": 0.6929133858267716,
          "duration": 0.7605761624999992
        },
        {
          "name": "F#5",
          "midi": 78,
          "time": 3.999995999999998,
          "velocity": 0.6929133858267716,
          "duration": 0.14519216250000033
        },
        {
          "name": "F#5",
          "midi": 78,
          "time": 4.153841999999998,
          "velocity": 0.7007874015748031,
          "duration": 0.22980746249999928
        },
        {
          "name": "F#4",
          "midi": 66,
          "time": 4.153841999999998,
          "velocity": 0.7007874015748031,
          "duration": 0.1451921624999999
        },
        {
          "name": "F#5",
          "midi": 78,
          "time": 4.153841999999998,
          "velocity": 0.7007874015748031,
          "duration": 1.8461519999999965
        },
        {
          "name": "A#4",
          "midi": 70,
          "time": 4.307687999999998,
          "velocity": 0.7086614173228346,
          "duration": 0.1451921624999999
        },
        {
          "name": "D#5",
          "midi": 75,
          "time": 4.461533999999998,
          "velocity": 0.7086614173228346,
          "duration": 1.076921999999998
        },
        {
          "name": "G#5",
          "midi": 80,
          "time": 4.615379999999997,
          "velocity": 0.7165354330708661,
          "duration": 0.22980746249999928
        },
        {
          "name": "G#4",
          "midi": 68,
          "time": 4.615379999999997,
          "velocity": 0.7165354330708661,
          "duration": 0.1451921624999999
        },
        {
          "name": "G#5",
          "midi": 80,
          "time": 4.615379999999997,
          "velocity": 0.7165354330708661,
          "duration": 2.3076899999999956
        },
        {
          "name": "B4",
          "midi": 71,
          "time": 4.769225999999997,
          "velocity": 0.7244094488188977,
          "duration": 0.1451921624999999
        },
        {
          "name": "E5",
          "midi": 76,
          "time": 4.923071999999997,
          "velocity": 0.7244094488188977,
          "duration": 0.1451921624999999
        },
        {
          "name": "E5",
          "midi": 76,
          "time": 5.0769179999999965,
          "velocity": 0.7322834645669292,
          "duration": 0.22980746249999928
        },
        {
          "name": "E4",
          "midi": 64,
          "time": 5.0769179999999965,
          "velocity": 0.7322834645669292,
          "duration": 0.1451921624999999
        },
        {
          "name": "E5",
          "midi": 76,
          "time": 5.0769179999999965,
          "velocity": 0.7322834645669292,
          "duration": 1.3846139999999973
        },
        {
          "name": "G#4",
          "midi": 68,
          "time": 5.230763999999996,
          "velocity": 0.7401574803149606,
          "duration": 0.1451921624999999
        },
        {
          "name": "B4",
          "midi": 71,
          "time": 5.384609999999996,
          "velocity": 0.7401574803149606,
          "duration": 0.1451921624999999
        },
        {
          "name": "D#5",
          "midi": 75,
          "time": 5.538455999999996,
          "velocity": 0.7480314960629921,
          "duration": 0.22980746249999928
        },
        {
          "name": "D#4",
          "midi": 63,
          "time": 5.538455999999996,
          "velocity": 0.7480314960629921,
          "duration": 0.1451921624999999
        },
        {
          "name": "D#5",
          "midi": 75,
          "time": 5.538455999999996,
          "velocity": 0.7480314960629921,
          "duration": 0.9144221624999984
        },
        {
          "name": "F#4",
          "midi": 66,
          "time": 5.692301999999995,
          "velocity": 0.7559055118110236,
          "duration": 0.1451921624999999
        },
        {
          "name": "A#4",
          "midi": 70,
          "time": 5.846147999999995,
          "velocity": 0.7637795275590551,
          "duration": 0.1451921624999999
        },
        {
          "name": "F#5",
          "midi": 78,
          "time": 5.999993999999995,
          "velocity": 0.7637795275590551,
          "duration": 0.22980746249999928
        },
        {
          "name": "F#4",
          "midi": 66,
          "time": 5.999993999999995,
          "velocity": 0.7637795275590551,
          "duration": 0.1451921624999999
        },
        {
          "name": "F#5",
          "midi": 78,
          "time": 5.999993999999995,
          "velocity": 0.7637795275590551,
          "duration": 1.3846139999999973
        },
        {
          "name": "A#4",
          "midi": 70,
          "time": 6.153839999999994,
          "velocity": 0.7716535433070866,
          "duration": 0.1451921624999999
        },
        {
          "name": "D#5",
          "midi": 75,
          "time": 6.307685999999994,
          "velocity": 0.7795275590551181,
          "duration": 3.753842400000006
        },
        {
          "name": "E5",
          "midi": 76,
          "time": 6.461531999999994,
          "velocity": 0.7795275590551181,
          "duration": 0.22980746249999928
        },
        {
          "name": "E4",
          "midi": 64,
          "time": 6.461531999999994,
          "velocity": 0.7795275590551181,
          "duration": 0.1451921624999999
        },
        {
          "name": "E5",
          "midi": 76,
          "time": 6.461531999999994,
          "velocity": 0.7795275590551181,
          "duration": 0.9144221624999984
        },
        {
          "name": "G#4",
          "midi": 68,
          "time": 6.6153779999999935,
          "velocity": 0.7874015748031497,
          "duration": 0.1451921624999999
        },
        {
          "name": "B4",
          "midi": 71,
          "time": 6.769223999999993,
          "velocity": 0.7952755905511811,
          "duration": 0.1451921624999999
        },
        {
          "name": "G#5",
          "midi": 80,
          "time": 6.923069999999993,
          "velocity": 0.7952755905511811,
          "duration": 0.22980746249999928
        },
        {
          "name": "G#4",
          "midi": 68,
          "time": 6.923069999999993,
          "velocity": 0.7952755905511811,
          "duration": 0.1451921624999999
        },
        {
          "name": "G#5",
          "midi": 80,
          "time": 6.923069999999993,
          "velocity": 0.7952755905511811,
          "duration": 1.3846140000000018
        },
        {
          "name": "B4",
          "midi": 71,
          "time": 7.076915999999993,
          "velocity": 0.8031496062992126,
          "duration": 0.1451921624999999
        },
        {
          "name": "E5",
          "midi": 76,
          "time": 7.230761999999992,
          "velocity": 0.8110236220472441,
          "duration": 1.5298061625000061
        },
        {
          "name": "F#5",
          "midi": 78,
          "time": 7.384607999999992,
          "velocity": 0.8110236220472441,
          "duration": 0.22980746250000017
        },
        {
          "name": "F#4",
          "midi": 66,
          "time": 7.384607999999992,
          "velocity": 0.8110236220472441,
          "duration": 0.14519216250000078
        },
        {
          "name": "F#5",
          "midi": 78,
          "time": 7.384607999999992,
          "velocity": 0.8110236220472441,
          "duration": 0.914422162500002
        },
        {
          "name": "A#4",
          "midi": 70,
          "time": 7.538453999999993,
          "velocity": 0.8188976377952756,
          "duration": 0.1451921624999999
        },
        {
          "name": "C#5",
          "midi": 73,
          "time": 7.692299999999992,
          "velocity": 0.8267716535433071,
          "duration": 0.1451921624999999
        },
        {
          "name": "A#5",
          "midi": 82,
          "time": 7.846145999999992,
          "velocity": 0.8267716535433071,
          "duration": 0.22980746250000017
        },
        {
          "name": "A#4",
          "midi": 70,
          "time": 7.846145999999992,
          "velocity": 0.8267716535433071,
          "duration": 0.1451921624999999
        },
        {
          "name": "A#5",
          "midi": 82,
          "time": 7.846145999999992,
          "velocity": 0.8267716535433071,
          "duration": 1.846152000000009
        },
        {
          "name": "C#5",
          "midi": 73,
          "time": 7.999991999999992,
          "velocity": 0.8346456692913385,
          "duration": 0.14519216250000078
        },
        {
          "name": "F#5",
          "midi": 78,
          "time": 8.153837999999993,
          "velocity": 0.84251968503937,
          "duration": 1.8153828000000072
        },
        {
          "name": "G#5",
          "midi": 80,
          "time": 8.307683999999995,
          "velocity": 0.84251968503937,
          "duration": 0.22980746250000195
        },
        {
          "name": "G#4",
          "midi": 68,
          "time": 8.307683999999995,
          "velocity": 0.84251968503937,
          "duration": 0.14519216250000078
        },
        {
          "name": "G#5",
          "midi": 80,
          "time": 8.307683999999995,
          "velocity": 0.84251968503937,
          "duration": 0.9144221625000064
        },
        {
          "name": "B4",
          "midi": 71,
          "time": 8.461529999999996,
          "velocity": 0.8503937007874016,
          "duration": 0.14519216250000078
        },
        {
          "name": "E5",
          "midi": 76,
          "time": 8.615375999999998,
          "velocity": 0.8582677165354331,
          "duration": 0.45288416250000196
        },
        {
          "name": "C#6",
          "midi": 85,
          "time": 8.769222,
          "velocity": 0.8582677165354331,
          "duration": 0.22980746250000017
        },
        {
          "name": "C#5",
          "midi": 73,
          "time": 8.769222,
          "velocity": 0.8582677165354331,
          "duration": 0.145192162499999
        },
        {
          "name": "C#6",
          "midi": 85,
          "time": 8.769222,
          "velocity": 0.8582677165354331,
          "duration": 25.26824396249995
        },
        {
          "name": "E5",
          "midi": 76,
          "time": 8.923067999999999,
          "velocity": 0.8661417322834646,
          "duration": 35.377849237499916
        },
        {
          "name": "G#5",
          "midi": 80,
          "time": 9.076914,
          "velocity": 0.8740157480314961,
          "duration": 7.756723012499995
        },
        {
          "name": "D#5",
          "midi": 75,
          "time": 9.230760000000002,
          "velocity": 0.8818897637795275,
          "duration": 1.015383599999998
        },
        {
          "name": "F#5",
          "midi": 78,
          "time": 9.230760000000002,
          "velocity": 0.8818897637795275,
          "duration": 2.1913439624999977
        },
        {
          "name": "A#5",
          "midi": 82,
          "time": 9.230760000000002,
          "velocity": 0.8818897637795275,
          "duration": 0.6461531999999988
        },
        {
          "name": "D#6",
          "midi": 87,
          "time": 9.230760000000002,
          "velocity": 0.8818897637795275,
          "duration": 0.5538455999999989
        },
        {
          "name": "A#5",
          "midi": 82,
          "time": 9.692298000000001,
          "velocity": 0.8818897637795275,
          "duration": 1.7298059624999986
        },
        {
          "name": "D#6",
          "midi": 87,
          "time": 9.7846056,
          "velocity": 0.8818897637795275,
          "duration": 1.6374983624999988
        },
        {
          "name": "A#5",
          "midi": 82,
          "time": 9.8769132,
          "velocity": 0.8818897637795275,
          "duration": 7.187492812499993
        },
        {
          "name": "F#5",
          "midi": 78,
          "time": 9.9692208,
          "velocity": 0.8818897637795275,
          "duration": 3.391342762499999
        },
        {
          "name": "D#5",
          "midi": 75,
          "time": 10.0615284,
          "velocity": 0.8818897637795275,
          "duration": 1.3605755624999993
        },
        {
          "name": "A#4",
          "midi": 70,
          "time": 10.153836,
          "velocity": 0.8818897637795275,
          "duration": 0.09134606249999955
        },
        {
          "name": "D#5",
          "midi": 75,
          "time": 10.2461436,
          "velocity": 0.8818897637795275,
          "duration": 2.214420862499999
        },
        {
          "name": "A#4",
          "midi": 70,
          "time": 10.3384512,
          "velocity": 0.8818897637795275,
          "duration": 0.09134606249999955
        },
        {
          "name": "F#4",
          "midi": 66,
          "time": 10.4307588,
          "velocity": 0.8818897637795275,
          "duration": 0.09134606249999955
        },
        {
          "name": "D#4",
          "midi": 63,
          "time": 10.5230664,
          "velocity": 0.8818897637795275,
          "duration": 0.08653837499999995
        },
        {
          "name": "A#4",
          "midi": 70,
          "time": 12.230756999999999,
          "velocity": 0.6299212598425197,
          "duration": 0.22980746250000017
        },
        {
          "name": "D#5",
          "midi": 75,
          "time": 12.230756999999999,
          "velocity": 0.6299212598425197,
          "duration": 0.4605764625000006
        },
        {
          "name": "A#4",
          "midi": 70,
          "time": 12.461526,
          "velocity": 0.6299212598425197,
          "duration": 0.22980746250000017
        },
        {
          "name": "D#5",
          "midi": 75,
          "time": 12.461526,
          "velocity": 0.6299212598425197,
          "duration": 6.899031562499985
        },
        {
          "name": "G#4",
          "midi": 68,
          "time": 12.692295,
          "velocity": 0.6299212598425197,
          "duration": 0.22980746250000017
        },
        {
          "name": "F5",
          "midi": 77,
          "time": 12.692295,
          "velocity": 0.6299212598425197,
          "duration": 0.22980746250000017
        },
        {
          "name": "A#4",
          "midi": 70,
          "time": 12.923064,
          "velocity": 0.6299212598425197,
          "duration": 0.43749956249999933
        },
        {
          "name": "F#5",
          "midi": 78,
          "time": 12.923064,
          "velocity": 0.6299212598425197,
          "duration": 1.6144214624999993
        },
        {
          "name": "F5",
          "midi": 77,
          "time": 14.076908999999999,
          "velocity": 0.6299212598425197,
          "duration": 0.22980746250000017
        },
        {
          "name": "A#4",
          "midi": 70,
          "time": 14.076908999999999,
          "velocity": 0.6299212598425197,
          "duration": 0.6913454625000011
        },
        {
          "name": "F#5",
          "midi": 78,
          "time": 14.307678,
          "velocity": 0.6299212598425197,
          "duration": 4.1298035624999905
        },
        {
          "name": "F5",
          "midi": 77,
          "time": 14.538447,
          "velocity": 0.6299212598425197,
          "duration": 0.22980746250000017
        },
        {
          "name": "A#4",
          "midi": 70,
          "time": 14.769216,
          "velocity": 0.6299212598425197,
          "duration": 0.43749956249999933
        },
        {
          "name": "C#5",
          "midi": 73,
          "time": 14.769216,
          "velocity": 0.6299212598425197,
          "duration": 0.43749956249999933
        },
        {
          "name": "A#4",
          "midi": 70,
          "time": 15.923060999999999,
          "velocity": 0.6299212598425197,
          "duration": 0.21826901250000041
        },
        {
          "name": "C#5",
          "midi": 73,
          "time": 15.923060999999999,
          "velocity": 0.6299212598425197,
          "duration": 0.21826901250000041
        },
        {
          "name": "A#4",
          "midi": 70,
          "time": 16.15383,
          "velocity": 0.6299212598425197,
          "duration": 0.21826901249999864
        },
        {
          "name": "C#5",
          "midi": 73,
          "time": 16.15383,
          "velocity": 0.6299212598425197,
          "duration": 0.21826901249999864
        },
        {
          "name": "A#4",
          "midi": 70,
          "time": 16.384598999999998,
          "velocity": 0.6299212598425197,
          "duration": 0.21826901249999864
        },
        {
          "name": "C#5",
          "midi": 73,
          "time": 16.384598999999998,
          "velocity": 0.6299212598425197,
          "duration": 0.21826901249999864
        },
        {
          "name": "C#5",
          "midi": 73,
          "time": 16.615367999999997,
          "velocity": 0.6299212598425197,
          "duration": 0.21826901249999864
        },
        {
          "name": "G#5",
          "midi": 80,
          "time": 16.615367999999997,
          "velocity": 0.6299212598425197,
          "duration": 1.372114012499992
        },
        {
          "name": "C#5",
          "midi": 73,
          "time": 16.846136999999995,
          "velocity": 0.6299212598425197,
          "duration": 0.21826901249999864
        },
        {
          "name": "A#5",
          "midi": 82,
          "time": 16.846136999999995,
          "velocity": 0.6299212598425197,
          "duration": 0.4490380124999973
        },
        {
          "name": "C#5",
          "midi": 73,
          "time": 17.076905999999994,
          "velocity": 0.6299212598425197,
          "duration": 0.21826901249999864
        },
        {
          "name": "A#5",
          "midi": 82,
          "time": 17.076905999999994,
          "velocity": 0.6299212598425197,
          "duration": 0.4490380124999973
        },
        {
          "name": "C#5",
          "midi": 73,
          "time": 17.307674999999993,
          "velocity": 0.6299212598425197,
          "duration": 0.21826901249999864
        },
        {
          "name": "A#5",
          "midi": 82,
          "time": 17.307674999999993,
          "velocity": 0.6299212598425197,
          "duration": 0.4490380124999973
        },
        {
          "name": "C#5",
          "midi": 73,
          "time": 17.53844399999999,
          "velocity": 0.6299212598425197,
          "duration": 0.21826901249999864
        },
        {
          "name": "A#5",
          "midi": 82,
          "time": 17.53844399999999,
          "velocity": 0.6299212598425197,
          "duration": 14.29517801249996
        },
        {
          "name": "B4",
          "midi": 71,
          "time": 17.76921299999999,
          "velocity": 0.6299212598425197,
          "duration": 0.21826901249999864
        },
        {
          "name": "G#5",
          "midi": 80,
          "time": 17.76921299999999,
          "velocity": 0.6299212598425197,
          "duration": 1.0317297374999974
        },
        {
          "name": "A#4",
          "midi": 70,
          "time": 17.99998199999999,
          "velocity": 0.6299212598425197,
          "duration": 0.4374995625000011
        },
        {
          "name": "F#5",
          "midi": 78,
          "time": 17.99998199999999,
          "velocity": 0.6299212598425197,
          "duration": 0.6798070124999995
        },
        {
          "name": "F#5",
          "midi": 78,
          "time": 18.46151999999999,
          "velocity": 0.6299212598425197,
          "duration": 0.4548072374999954
        },
        {
          "name": "B4",
          "midi": 71,
          "time": 18.46151999999999,
          "velocity": 0.6299212598425197,
          "duration": 0.8759606624999954
        },
        {
          "name": "G#5",
          "midi": 80,
          "time": 18.692288999999988,
          "velocity": 0.6299212598425197,
          "duration": 12.910564012499965
        },
        {
          "name": "F#5",
          "midi": 78,
          "time": 18.807673499999986,
          "velocity": 0.6299212598425197,
          "duration": 2.4221129624999875
        },
        {
          "name": "D#5",
          "midi": 75,
          "time": 18.923057999999983,
          "velocity": 0.6299212598425197,
          "duration": 2.0759594624999913
        },
        {
          "name": "B3",
          "midi": 59,
          "time": 19.615364999999983,
          "velocity": 0.6299212598425197,
          "duration": 0.21826901249999864
        },
        {
          "name": "D#4",
          "midi": 63,
          "time": 19.615364999999983,
          "velocity": 0.6299212598425197,
          "duration": 0.21826901249999864
        },
        {
          "name": "B3",
          "midi": 59,
          "time": 19.84613399999998,
          "velocity": 0.6299212598425197,
          "duration": 0
        },
        {
          "name": "D#4",
          "midi": 63,
          "time": 19.84613399999998,
          "velocity": 0.6299212598425197,
          "duration": 0.21826901249999864
        },
        {
          "name": "C#4",
          "midi": 61,
          "time": 20.07690299999998,
          "velocity": 0.6299212598425197,
          "duration": 0.21826901249999864
        },
        {
          "name": "F4",
          "midi": 65,
          "time": 20.07690299999998,
          "velocity": 0.6299212598425197,
          "duration": 0.21826901249999864
        },
        {
          "name": "F#4",
          "midi": 66,
          "time": 20.30767199999998,
          "velocity": 0.6299212598425197,
          "duration": 0.43749956249999755
        },
        {
          "name": "A#4",
          "midi": 70,
          "time": 20.538440999999978,
          "velocity": 0.6299212598425197,
          "duration": 0.2298074624999984
        },
        {
          "name": "D#5",
          "midi": 75,
          "time": 20.769209999999976,
          "velocity": 0.6299212598425197,
          "duration": 0.6913454624999957
        },
        {
          "name": "F#5",
          "midi": 78,
          "time": 20.999978999999975,
          "velocity": 0.6299212598425197,
          "duration": 4.602880012499973
        },
        {
          "name": "D#5",
          "midi": 75,
          "time": 21.230747999999974,
          "velocity": 0.6299212598425197,
          "duration": 2.9874970124999827
        },
        {
          "name": "A#4",
          "midi": 70,
          "time": 21.461516999999972,
          "velocity": 0.6299212598425197,
          "duration": 0.2298074624999984
        },
        {
          "name": "F4",
          "midi": 65,
          "time": 21.461516999999972,
          "velocity": 0.6299212598425197,
          "duration": 0.2298074624999984
        },
        {
          "name": "F#4",
          "midi": 66,
          "time": 21.69228599999997,
          "velocity": 0.6299212598425197,
          "duration": 0.2298074624999984
        },
        {
          "name": "F#4",
          "midi": 66,
          "time": 21.69228599999997,
          "velocity": 0.6299212598425197,
          "duration": 4.129803562499976
        },
        {
          "name": "A#4",
          "midi": 70,
          "time": 21.92305499999997,
          "velocity": 0.6299212598425197,
          "duration": 0.2298074624999984
        },
        {
          "name": "F4",
          "midi": 65,
          "time": 21.92305499999997,
          "velocity": 0.6299212598425197,
          "duration": 0.2298074624999984
        },
        {
          "name": "C#4",
          "midi": 61,
          "time": 22.153823999999968,
          "velocity": 0.6299212598425197,
          "duration": 0.43749956249999755
        },
        {
          "name": "F4",
          "midi": 65,
          "time": 22.384592999999967,
          "velocity": 0.6299212598425197,
          "duration": 0.2298074624999984
        },
        {
          "name": "A#4",
          "midi": 70,
          "time": 22.615361999999966,
          "velocity": 0.6299212598425197,
          "duration": 0.2298074624999984
        },
        {
          "name": "C#5",
          "midi": 73,
          "time": 22.846130999999964,
          "velocity": 0.6299212598425197,
          "duration": 0.2298074624999984
        },
        {
          "name": "A#4",
          "midi": 70,
          "time": 23.076899999999963,
          "velocity": 0.6299212598425197,
          "duration": 0.2298074624999984
        },
        {
          "name": "F4",
          "midi": 65,
          "time": 23.30766899999996,
          "velocity": 0.6299212598425197,
          "duration": 0.2298074624999984
        },
        {
          "name": "C#4",
          "midi": 61,
          "time": 23.30766899999996,
          "velocity": 0.6299212598425197,
          "duration": 0.2298074624999984
        },
        {
          "name": "A#4",
          "midi": 70,
          "time": 23.53843799999996,
          "velocity": 0.6299212598425197,
          "duration": 0.2298074624999984
        },
        {
          "name": "C#4",
          "midi": 61,
          "time": 23.53843799999996,
          "velocity": 0.6299212598425197,
          "duration": 0.2298074624999984
        },
        {
          "name": "F4",
          "midi": 65,
          "time": 23.76920699999996,
          "velocity": 0.6299212598425197,
          "duration": 0.21826901249999864
        },
        {
          "name": "C#4",
          "midi": 61,
          "time": 23.76920699999996,
          "velocity": 0.6299212598425197,
          "duration": 0.21826901249999864
        },
        {
          "name": "D#5",
          "midi": 75,
          "time": 23.999975999999958,
          "velocity": 0.6299212598425197,
          "duration": 1.372114012499992
        },
        {
          "name": "G#4",
          "midi": 68,
          "time": 23.999975999999958,
          "velocity": 0.6299212598425197,
          "duration": 0.21826901249999864
        },
        {
          "name": "C#5",
          "midi": 73,
          "time": 24.230744999999956,
          "velocity": 0.6299212598425197,
          "duration": 0.21826901249999864
        },
        {
          "name": "A#4",
          "midi": 70,
          "time": 24.230744999999956,
          "velocity": 0.6299212598425197,
          "duration": 0.21826901249999864
        },
        {
          "name": "C#5",
          "midi": 73,
          "time": 24.461513999999955,
          "velocity": 0.6299212598425197,
          "duration": 0.21826901249999864
        },
        {
          "name": "A#4",
          "midi": 70,
          "time": 24.461513999999955,
          "velocity": 0.6299212598425197,
          "duration": 0.21826901249999864
        },
        {
          "name": "C#5",
          "midi": 73,
          "time": 24.692282999999954,
          "velocity": 0.6299212598425197,
          "duration": 0.21826901249999864
        },
        {
          "name": "A#4",
          "midi": 70,
          "time": 24.692282999999954,
          "velocity": 0.6299212598425197,
          "duration": 0.21826901249999864
        },
        {
          "name": "C#5",
          "midi": 73,
          "time": 24.923051999999952,
          "velocity": 0.6299212598425197,
          "duration": 0.21826901249999864
        },
        {
          "name": "A#4",
          "midi": 70,
          "time": 24.923051999999952,
          "velocity": 0.6299212598425197,
          "duration": 0.21826901249999864
        },
        {
          "name": "D#5",
          "midi": 75,
          "time": 25.15382099999995,
          "velocity": 0.6299212598425197,
          "duration": 1.8336520124999929
        },
        {
          "name": "G#4",
          "midi": 68,
          "time": 25.15382099999995,
          "velocity": 0.6299212598425197,
          "duration": 0.21826901249999864
        },
        {
          "name": "F#5",
          "midi": 78,
          "time": 25.38458999999995,
          "velocity": 0.6299212598425197,
          "duration": 2.635574287499992
        },
        {
          "name": "F#4",
          "midi": 66,
          "time": 25.38458999999995,
          "velocity": 0.6299212598425197,
          "duration": 0.679807012499996
        },
        {
          "name": "C#5",
          "midi": 73,
          "time": 25.61535899999995,
          "velocity": 0.6299212598425197,
          "duration": 0.21826901249999864
        },
        {
          "name": "B4",
          "midi": 71,
          "time": 25.846127999999947,
          "velocity": 0.6299212598425197,
          "duration": 0.21826901249999864
        },
        {
          "name": "F#4",
          "midi": 66,
          "time": 25.846127999999947,
          "velocity": 0.6299212598425197,
          "duration": 0.4548072375000025
        },
        {
          "name": "G#4",
          "midi": 68,
          "time": 26.076896999999946,
          "velocity": 0.6299212598425197,
          "duration": 0.2182690125000022
        },
        {
          "name": "G#4",
          "midi": 68,
          "time": 26.076896999999946,
          "velocity": 0.6299212598425197,
          "duration": 22.36055456249992
        },
        {
          "name": "F#4",
          "midi": 66,
          "time": 26.192281499999947,
          "velocity": 0.6299212598425197,
          "duration": 20.87786373749994
        },
        {
          "name": "B4",
          "midi": 71,
          "time": 26.307665999999948,
          "velocity": 0.6299212598425197,
          "duration": 0.21826901249999864
        },
        {
          "name": "D#4",
          "midi": 63,
          "time": 26.307665999999948,
          "velocity": 0.6299212598425197,
          "duration": 0.43749956249999755
        },
        {
          "name": "C#5",
          "midi": 73,
          "time": 26.538434999999946,
          "velocity": 0.6299212598425197,
          "duration": 0.21826901249999864
        },
        {
          "name": "D#5",
          "midi": 75,
          "time": 26.769203999999945,
          "velocity": 0.6299212598425197,
          "duration": 0.679807012499996
        },
        {
          "name": "C#5",
          "midi": 73,
          "time": 26.999972999999944,
          "velocity": 0.6299212598425197,
          "duration": 0.21826901249999864
        },
        {
          "name": "B4",
          "midi": 71,
          "time": 27.230741999999942,
          "velocity": 0.6299212598425197,
          "duration": 0.21826901249999864
        },
        {
          "name": "D#5",
          "midi": 75,
          "time": 27.230741999999942,
          "velocity": 0.6299212598425197,
          "duration": 1.3721140125000026
        },
        {
          "name": "A#4",
          "midi": 70,
          "time": 27.46151099999994,
          "velocity": 0.6299212598425197,
          "duration": 0.21826901249999864
        },
        {
          "name": "F5",
          "midi": 77,
          "time": 27.46151099999994,
          "velocity": 0.6299212598425197,
          "duration": 0.21826901249999864
        },
        {
          "name": "A#4",
          "midi": 70,
          "time": 27.69227999999994,
          "velocity": 0.6299212598425197,
          "duration": 0.32788428750000165
        },
        {
          "name": "F#5",
          "midi": 78,
          "time": 27.69227999999994,
          "velocity": 0.6299212598425197,
          "duration": 0.674037787500005
        },
        {
          "name": "A#4",
          "midi": 70,
          "time": 28.038433499999943,
          "velocity": 0.6299212598425197,
          "duration": 0.32788428750000165
        },
        {
          "name": "F#5",
          "midi": 78,
          "time": 28.038433499999943,
          "velocity": 0.6299212598425197,
          "duration": 0.9048067875000037
        },
        {
          "name": "A#4",
          "midi": 70,
          "time": 28.384586999999946,
          "velocity": 0.6299212598425197,
          "duration": 0.21826901249999864
        },
        {
          "name": "D#5",
          "midi": 75,
          "time": 28.384586999999946,
          "velocity": 0.6299212598425197,
          "duration": 1.141345012500004
        },
        {
          "name": "A#4",
          "midi": 70,
          "time": 28.615355999999945,
          "velocity": 0.6299212598425197,
          "duration": 0.32788428750000165
        },
        {
          "name": "F#5",
          "midi": 78,
          "time": 28.615355999999945,
          "velocity": 0.6299212598425197,
          "duration": 0.674037787500005
        },
        {
          "name": "A#4",
          "midi": 70,
          "time": 28.96150949999995,
          "velocity": 0.6299212598425197,
          "duration": 0.32788428750000165
        },
        {
          "name": "F#5",
          "midi": 78,
          "time": 28.96150949999995,
          "velocity": 0.6299212598425197,
          "duration": 4.256726512500009
        },
        {
          "name": "A#4",
          "midi": 70,
          "time": 29.307662999999952,
          "velocity": 0.6299212598425197,
          "duration": 0.21826901249999864
        },
        {
          "name": "D#5",
          "midi": 75,
          "time": 29.307662999999952,
          "velocity": 0.6299212598425197,
          "duration": 4.250957287500004
        },
        {
          "name": "A#4",
          "midi": 70,
          "time": 29.53843199999995,
          "velocity": 0.6299212598425197,
          "duration": 0.32788428750000165
        },
        {
          "name": "F5",
          "midi": 77,
          "time": 29.53843199999995,
          "velocity": 0.6299212598425197,
          "duration": 0.32788428750000165
        },
        {
          "name": "A#4",
          "midi": 70,
          "time": 29.884585499999954,
          "velocity": 0.6299212598425197,
          "duration": 0.32788428750000165
        },
        {
          "name": "F5",
          "midi": 77,
          "time": 29.884585499999954,
          "velocity": 0.6299212598425197,
          "duration": 0.32788428750000165
        },
        {
          "name": "A#4",
          "midi": 70,
          "time": 30.230738999999957,
          "velocity": 0.6299212598425197,
          "duration": 0.21826901249999864
        },
        {
          "name": "C#5",
          "midi": 73,
          "time": 30.230738999999957,
          "velocity": 0.6299212598425197,
          "duration": 0.21826901249999864
        },
        {
          "name": "F4",
          "midi": 65,
          "time": 30.461507999999956,
          "velocity": 0.6299212598425197,
          "duration": 0.4374995625000011
        },
        {
          "name": "C#5",
          "midi": 73,
          "time": 30.461507999999956,
          "velocity": 0.6299212598425197,
          "duration": 0.4374995625000011
        },
        {
          "name": "A#4",
          "midi": 70,
          "time": 31.153814999999955,
          "velocity": 0.6299212598425197,
          "duration": 0.21826901249999864
        },
        {
          "name": "C#5",
          "midi": 73,
          "time": 31.153814999999955,
          "velocity": 0.6299212598425197,
          "duration": 0.21826901249999864
        },
        {
          "name": "C#5",
          "midi": 73,
          "time": 31.384583999999954,
          "velocity": 0.6299212598425197,
          "duration": 0.21826901249999864
        },
        {
          "name": "G#5",
          "midi": 80,
          "time": 31.384583999999954,
          "velocity": 0.6299212598425197,
          "duration": 1.5971137874999997
        },
        {
          "name": "C#5",
          "midi": 73,
          "time": 31.615352999999953,
          "velocity": 0.6299212598425197,
          "duration": 0.21826901249999864
        },
        {
          "name": "A#5",
          "midi": 82,
          "time": 31.615352999999953,
          "velocity": 0.6299212598425197,
          "duration": 0.44903801250000086
        },
        {
          "name": "C#5",
          "midi": 73,
          "time": 31.84612199999995,
          "velocity": 0.6299212598425197,
          "duration": 0.2182690125000022
        },
        {
          "name": "A#5",
          "midi": 82,
          "time": 31.84612199999995,
          "velocity": 0.6299212598425197,
          "duration": 0.4490380125000044
        },
        {
          "name": "C#5",
          "midi": 73,
          "time": 32.076890999999954,
          "velocity": 0.6299212598425197,
          "duration": 0.2182690125000022
        },
        {
          "name": "A#5",
          "midi": 82,
          "time": 32.076890999999954,
          "velocity": 0.6299212598425197,
          "duration": 0.5586532875000003
        },
        {
          "name": "C#5",
          "midi": 73,
          "time": 32.307659999999956,
          "velocity": 0.6299212598425197,
          "duration": 0.3278842874999981
        },
        {
          "name": "A#5",
          "midi": 82,
          "time": 32.307659999999956,
          "velocity": 0.6299212598425197,
          "duration": 2.0644210124999915
        },
        {
          "name": "B4",
          "midi": 71,
          "time": 32.653813499999956,
          "velocity": 0.6299212598425197,
          "duration": 0.3278842874999981
        },
        {
          "name": "G#5",
          "midi": 80,
          "time": 32.653813499999956,
          "velocity": 0.6299212598425197,
          "duration": 1.949036512499994
        },
        {
          "name": "A#4",
          "midi": 70,
          "time": 32.999966999999955,
          "velocity": 0.6299212598425197,
          "duration": 0.2182690125000022
        },
        {
          "name": "F#5",
          "midi": 78,
          "time": 32.999966999999955,
          "velocity": 0.6299212598425197,
          "duration": 1.729805962499995
        },
        {
          "name": "D#5",
          "midi": 75,
          "time": 33.23073599999996,
          "velocity": 0.6299212598425197,
          "duration": 0.9163452374999892
        },
        {
          "name": "B5",
          "midi": 83,
          "time": 33.23073599999996,
          "velocity": 0.6299212598425197,
          "duration": 0.5701917374999965
        },
        {
          "name": "D#5",
          "midi": 75,
          "time": 33.57688949999996,
          "velocity": 0.6299212598425197,
          "duration": 1.3836524624999882
        },
        {
          "name": "B5",
          "midi": 83,
          "time": 33.57688949999996,
          "velocity": 0.6299212598425197,
          "duration": 0.5759609624999911
        },
        {
          "name": "D#6",
          "midi": 87,
          "time": 33.80765849999995,
          "velocity": 0.6299212598425197,
          "duration": 0.11442296250000084
        },
        {
          "name": "C#6",
          "midi": 85,
          "time": 33.92304299999995,
          "velocity": 0.6299212598425197,
          "duration": 9.34518296249999
        },
        {
          "name": "B5",
          "midi": 83,
          "time": 34.03842749999995,
          "velocity": 0.6299212598425197,
          "duration": 9.460567462499988
        },
        {
          "name": "C#5",
          "midi": 73,
          "time": 34.153811999999945,
          "velocity": 0.6299212598425197,
          "duration": 0.2182690125000022
        },
        {
          "name": "A#5",
          "midi": 82,
          "time": 34.153811999999945,
          "velocity": 0.6299212598425197,
          "duration": 5.975955562500012
        },
        {
          "name": "B4",
          "midi": 71,
          "time": 34.38458099999995,
          "velocity": 0.6299212598425197,
          "duration": 0.2182690125000022
        },
        {
          "name": "G#5",
          "midi": 80,
          "time": 34.38458099999995,
          "velocity": 0.6299212598425197,
          "duration": 4.954802737500003
        },
        {
          "name": "F#5",
          "midi": 78,
          "time": 34.61534999999995,
          "velocity": 0.6299212598425197,
          "duration": 0.7894222874999883
        },
        {
          "name": "B4",
          "midi": 71,
          "time": 34.61534999999995,
          "velocity": 0.6299212598425197,
          "duration": 0.4605764624999935
        },
        {
          "name": "F5",
          "midi": 77,
          "time": 34.73073449999995,
          "velocity": 0.6299212598425197,
          "duration": 0.11442296250000084
        },
        {
          "name": "D#5",
          "midi": 75,
          "time": 34.846118999999945,
          "velocity": 0.6299212598425197,
          "duration": 1.1413450124999969
        },
        {
          "name": "F5",
          "midi": 77,
          "time": 34.96150349999994,
          "velocity": 0.6299212598425197,
          "duration": 0.10865373749999918
        },
        {
          "name": "A#4",
          "midi": 70,
          "time": 35.07688799999994,
          "velocity": 0.6299212598425197,
          "duration": 0.3278842874999981
        },
        {
          "name": "F#5",
          "midi": 78,
          "time": 35.07688799999994,
          "velocity": 0.6299212598425197,
          "duration": 0.6740377874999979
        },
        {
          "name": "A#4",
          "midi": 70,
          "time": 35.42304149999994,
          "velocity": 0.6377952755905512,
          "duration": 0.3278842874999981
        },
        {
          "name": "F#5",
          "midi": 78,
          "time": 35.42304149999994,
          "velocity": 0.6377952755905512,
          "duration": 0.9048067875000001
        },
        {
          "name": "A#4",
          "midi": 70,
          "time": 35.76919499999994,
          "velocity": 0.6456692913385826,
          "duration": 0.2182690125000022
        },
        {
          "name": "D#5",
          "midi": 75,
          "time": 35.76919499999994,
          "velocity": 0.6456692913385826,
          "duration": 1.1413450124999969
        },
        {
          "name": "A#4",
          "midi": 70,
          "time": 35.99996399999994,
          "velocity": 0.6456692913385826,
          "duration": 0.3278842874999981
        },
        {
          "name": "F#5",
          "midi": 78,
          "time": 35.99996399999994,
          "velocity": 0.6456692913385826,
          "duration": 0.6740377874999979
        },
        {
          "name": "A#4",
          "midi": 70,
          "time": 36.34611749999994,
          "velocity": 0.6535433070866141,
          "duration": 0.3278842874999981
        },
        {
          "name": "F#5",
          "midi": 78,
          "time": 36.34611749999994,
          "velocity": 0.6535433070866141,
          "duration": 2.8605740625000067
        },
        {
          "name": "A#4",
          "midi": 70,
          "time": 36.69227099999994,
          "velocity": 0.6614173228346457,
          "duration": 0.21826901249999509
        },
        {
          "name": "D#5",
          "midi": 75,
          "time": 36.69227099999994,
          "velocity": 0.6614173228346457,
          "duration": 2.6471127375000094
        },
        {
          "name": "A#4",
          "midi": 70,
          "time": 36.923039999999936,
          "velocity": 0.6692913385826772,
          "duration": 0.3278842875000052
        },
        {
          "name": "F5",
          "midi": 77,
          "time": 36.923039999999936,
          "velocity": 0.6692913385826772,
          "duration": 0.3278842875000052
        },
        {
          "name": "A#4",
          "midi": 70,
          "time": 37.26919349999994,
          "velocity": 0.6771653543307087,
          "duration": 0.3278842875000052
        },
        {
          "name": "F5",
          "midi": 77,
          "time": 37.26919349999994,
          "velocity": 0.6771653543307087,
          "duration": 0.3278842875000052
        },
        {
          "name": "A#4",
          "midi": 70,
          "time": 37.61534699999995,
          "velocity": 0.6850393700787402,
          "duration": 0.2182690125000022
        },
        {
          "name": "C#5",
          "midi": 73,
          "time": 37.61534699999995,
          "velocity": 0.6850393700787402,
          "duration": 0.2182690125000022
        },
        {
          "name": "F4",
          "midi": 65,
          "time": 37.84611599999995,
          "velocity": 0.6929133858267716,
          "duration": 0.4374995625000011
        },
        {
          "name": "C#5",
          "midi": 73,
          "time": 37.84611599999995,
          "velocity": 0.6929133858267716,
          "duration": 0.4374995625000011
        },
        {
          "name": "A#4",
          "midi": 70,
          "time": 38.30765399999996,
          "velocity": 0.7007874015748031,
          "duration": 0.10865373749999918
        },
        {
          "name": "C#5",
          "midi": 73,
          "time": 38.30765399999996,
          "velocity": 0.7007874015748031,
          "duration": 0.10865373749999918
        },
        {
          "name": "A#4",
          "midi": 70,
          "time": 38.423038499999954,
          "velocity": 0.7007874015748031,
          "duration": 0.3278842874999981
        },
        {
          "name": "C#5",
          "midi": 73,
          "time": 38.423038499999954,
          "velocity": 0.7007874015748031,
          "duration": 0.3278842874999981
        },
        {
          "name": "C#5",
          "midi": 73,
          "time": 38.769191999999954,
          "velocity": 0.7086614173228346,
          "duration": 0.437499562499994
        },
        {
          "name": "F#5",
          "midi": 78,
          "time": 38.769191999999954,
          "velocity": 0.7086614173228346,
          "duration": 1.3605755625000029
        },
        {
          "name": "D#5",
          "midi": 75,
          "time": 39.23072999999995,
          "velocity": 0.7244094488188977,
          "duration": 0.44326878750000276
        },
        {
          "name": "G#5",
          "midi": 80,
          "time": 39.23072999999995,
          "velocity": 0.7244094488188977,
          "duration": 0.44326878750000276
        },
        {
          "name": "D#5",
          "midi": 75,
          "time": 39.34611449999995,
          "velocity": 0.7244094488188977,
          "duration": 1.2451910625000053
        },
        {
          "name": "G#5",
          "midi": 80,
          "time": 39.34611449999995,
          "velocity": 0.7244094488188977,
          "duration": 1.2451910625000053
        },
        {
          "name": "F#5",
          "midi": 78,
          "time": 39.692267999999956,
          "velocity": 0.7322834645669292,
          "duration": 2.6067281624999907
        },
        {
          "name": "A#5",
          "midi": 82,
          "time": 39.692267999999956,
          "velocity": 0.7322834645669292,
          "duration": 2.760574162499992
        },
        {
          "name": "D#5",
          "midi": 75,
          "time": 40.15380599999996,
          "velocity": 0.7401574803149606,
          "duration": 1.3836524624999953
        },
        {
          "name": "G#5",
          "midi": 80,
          "time": 40.15380599999996,
          "velocity": 0.7401574803149606,
          "duration": 3.685573237499966
        },
        {
          "name": "A#4",
          "midi": 70,
          "time": 41.076881999999955,
          "velocity": 0.7559055118110236,
          "duration": 0.4605764625000006
        },
        {
          "name": "D#5",
          "midi": 75,
          "time": 41.076881999999955,
          "velocity": 0.7559055118110236,
          "duration": 0.6913454624999957
        },
        {
          "name": "A#4",
          "midi": 70,
          "time": 41.53841999999995,
          "velocity": 0.7559055118110236,
          "duration": 0.2298074624999984
        },
        {
          "name": "D#5",
          "midi": 75,
          "time": 41.53841999999995,
          "velocity": 0.7559055118110236,
          "duration": 0.922114462499998
        },
        {
          "name": "A#4",
          "midi": 70,
          "time": 41.76918899999995,
          "velocity": 0.7559055118110236,
          "duration": 0.2298074624999984
        },
        {
          "name": "C#5",
          "midi": 73,
          "time": 41.76918899999995,
          "velocity": 0.7559055118110236,
          "duration": 0.2298074624999984
        },
        {
          "name": "D#5",
          "midi": 75,
          "time": 41.99995799999994,
          "velocity": 0.7559055118110236,
          "duration": 0.9221144625000051
        },
        {
          "name": "A#4",
          "midi": 70,
          "time": 41.99995799999994,
          "velocity": 0.7559055118110236,
          "duration": 0.14519216250000255
        },
        {
          "name": "F#5",
          "midi": 78,
          "time": 42.153803999999944,
          "velocity": 0.7559055118110236,
          "duration": 1.691344462499984
        },
        {
          "name": "A#5",
          "midi": 82,
          "time": 42.307649999999946,
          "velocity": 0.7559055118110236,
          "duration": 1.0759604624999923
        },
        {
          "name": "D#5",
          "midi": 75,
          "time": 42.46149599999995,
          "velocity": 0.7559055118110236,
          "duration": 1.9605749624999689
        },
        {
          "name": "D#6",
          "midi": 87,
          "time": 42.46149599999995,
          "velocity": 0.7559055118110236,
          "duration": 0.4605764625000006
        },
        {
          "name": "D#6",
          "midi": 87,
          "time": 42.923033999999944,
          "velocity": 0.7559055118110236,
          "duration": 0.11442296250000084
        },
        {
          "name": "A#5",
          "midi": 82,
          "time": 42.923033999999944,
          "velocity": 0.7559055118110236,
          "duration": 0.6913454624999886
        },
        {
          "name": "D6",
          "midi": 86,
          "time": 43.03841849999994,
          "velocity": 0.7559055118110236,
          "duration": 0.11442296250000084
        },
        {
          "name": "C#6",
          "midi": 85,
          "time": 43.15380299999994,
          "velocity": 0.7559055118110236,
          "duration": 7.833646012499926
        },
        {
          "name": "C6",
          "midi": 84,
          "time": 43.26918749999994,
          "velocity": 0.7559055118110236,
          "duration": 0.10865373749999918
        },
        {
          "name": "B5",
          "midi": 83,
          "time": 43.384571999999935,
          "velocity": 0.7559055118110236,
          "duration": 7.839415237499928
        },
        {
          "name": "F#5",
          "midi": 78,
          "time": 43.384571999999935,
          "velocity": 0.7559055118110236,
          "duration": 0.6913454624999886
        },
        {
          "name": "A#5",
          "midi": 82,
          "time": 43.49995649999993,
          "velocity": 0.7559055118110236,
          "duration": 3.0913430624999663
        },
        {
          "name": "A5",
          "midi": 81,
          "time": 43.61534099999993,
          "velocity": 0.7559055118110236,
          "duration": 0.11442296250000084
        },
        {
          "name": "G#5",
          "midi": 80,
          "time": 43.73072549999993,
          "velocity": 0.7559055118110236,
          "duration": 1.6086522374999745
        },
        {
          "name": "G5",
          "midi": 79,
          "time": 43.846109999999925,
          "velocity": 0.7559055118110236,
          "duration": 0.11442296250000084
        },
        {
          "name": "C#5",
          "midi": 73,
          "time": 43.846109999999925,
          "velocity": 0.7559055118110236,
          "duration": 0.4605764624999935
        },
        {
          "name": "F#5",
          "midi": 78,
          "time": 43.96149449999992,
          "velocity": 0.7559055118110236,
          "duration": 1.0374989624999813
        },
        {
          "name": "F5",
          "midi": 77,
          "time": 44.07687899999992,
          "velocity": 0.7559055118110236,
          "duration": 0.11442296250000084
        },
        {
          "name": "E5",
          "midi": 76,
          "time": 44.19226349999992,
          "velocity": 0.7559055118110236,
          "duration": 0.5701917374999894
        },
        {
          "name": "D#5",
          "midi": 75,
          "time": 44.307647999999915,
          "velocity": 0.7559055118110236,
          "duration": 0.34519196249999595
        },
        {
          "name": "A#4",
          "midi": 70,
          "time": 44.307647999999915,
          "velocity": 0.7559055118110236,
          "duration": 0.4605764624999935
        },
        {
          "name": "D5",
          "midi": 74,
          "time": 44.42303249999991,
          "velocity": 0.7559055118110236,
          "duration": 0.11442296250000084
        },
        {
          "name": "D#5",
          "midi": 75,
          "time": 44.53841699999991,
          "velocity": 0.7559055118110236,
          "duration": 0.8009607374999916
        },
        {
          "name": "E5",
          "midi": 76,
          "time": 44.65380149999991,
          "velocity": 0.7559055118110236,
          "duration": 3.56441951249996
        },
        {
          "name": "F5",
          "midi": 77,
          "time": 44.769185999999905,
          "velocity": 0.7559055118110236,
          "duration": 0.11442296250000084
        },
        {
          "name": "A#4",
          "midi": 70,
          "time": 44.769185999999905,
          "velocity": 0.7559055118110236,
          "duration": 0.4605764625000006
        },
        {
          "name": "F#5",
          "midi": 78,
          "time": 44.8845704999999,
          "velocity": 0.7559055118110236,
          "duration": 1.4932677374999983
        },
        {
          "name": "G5",
          "midi": 79,
          "time": 44.9999549999999,
          "velocity": 0.7559055118110236,
          "duration": 0.2182690125000022
        },
        {
          "name": "D#5",
          "midi": 75,
          "time": 45.2307239999999,
          "velocity": 0.7559055118110236,
          "duration": 0.44326878749999565
        },
        {
          "name": "G#5",
          "midi": 80,
          "time": 45.2307239999999,
          "velocity": 0.7559055118110236,
          "duration": 0.44326878749999565
        },
        {
          "name": "D#5",
          "midi": 75,
          "time": 45.3461084999999,
          "velocity": 0.7559055118110236,
          "duration": 0.7836530625000009
        },
        {
          "name": "G#5",
          "midi": 80,
          "time": 45.3461084999999,
          "velocity": 0.7559055118110236,
          "duration": 0.7836530625000009
        },
        {
          "name": "D#5",
          "midi": 75,
          "time": 45.6922619999999,
          "velocity": 0.7559055118110236,
          "duration": 0.46153800000000444
        },
        {
          "name": "G#5",
          "midi": 80,
          "time": 45.6922619999999,
          "velocity": 0.7559055118110236,
          "duration": 6.218263012499968
        },
        {
          "name": "D#5",
          "midi": 75,
          "time": 46.153799999999904,
          "velocity": 0.7559055118110236,
          "duration": 0.23076899999999512
        },
        {
          "name": "A#5",
          "midi": 82,
          "time": 46.153799999999904,
          "velocity": 0.7559055118110236,
          "duration": 3.6836501624999656
        },
        {
          "name": "D#5",
          "midi": 75,
          "time": 46.153799999999904,
          "velocity": 0.7559055118110236,
          "duration": 0.437499562499994
        },
        {
          "name": "F#5",
          "midi": 78,
          "time": 46.2691844999999,
          "velocity": 0.7559055118110236,
          "duration": 0.5644225124999878
        },
        {
          "name": "D#5",
          "midi": 75,
          "time": 46.3845689999999,
          "velocity": 0.7559055118110236,
          "duration": 0.23076899999999512
        },
        {
          "name": "A#4",
          "midi": 70,
          "time": 46.4999534999999,
          "velocity": 0.7559055118110236,
          "duration": 0.10865373749999918
        },
        {
          "name": "D#5",
          "midi": 75,
          "time": 46.615337999999895,
          "velocity": 0.7559055118110236,
          "duration": 0.21826901249999509
        },
        {
          "name": "F#5",
          "midi": 78,
          "time": 46.615337999999895,
          "velocity": 0.7559055118110236,
          "duration": 3.068266162499974
        },
        {
          "name": "D#5",
          "midi": 75,
          "time": 46.615337999999895,
          "velocity": 0.7559055118110236,
          "duration": 0.8990375624999842
        },
        {
          "name": "A#4",
          "midi": 70,
          "time": 46.73072249999989,
          "velocity": 0.7559055118110236,
          "duration": 0.10865373749999918
        },
        {
          "name": "C#5",
          "midi": 73,
          "time": 46.84610699999989,
          "velocity": 0.7559055118110236,
          "duration": 0.21826901249999509
        },
        {
          "name": "F5",
          "midi": 77,
          "time": 46.84610699999989,
          "velocity": 0.7559055118110236,
          "duration": 0.21826901249999509
        },
        {
          "name": "C#5",
          "midi": 73,
          "time": 46.84610699999989,
          "velocity": 0.7559055118110236,
          "duration": 2.537497462499978
        },
        {
          "name": "F#4",
          "midi": 66,
          "time": 46.96149149999989,
          "velocity": 0.7559055118110236,
          "duration": 0.3394227374999943
        },
        {
          "name": "A#4",
          "midi": 70,
          "time": 47.076875999999885,
          "velocity": 0.7559055118110236,
          "duration": 0.437499562499994
        },
        {
          "name": "D#5",
          "midi": 75,
          "time": 47.076875999999885,
          "velocity": 0.7559055118110236,
          "duration": 0.8990375624999842
        },
        {
          "name": "A#4",
          "midi": 70,
          "time": 47.076875999999885,
          "velocity": 0.7559055118110236,
          "duration": 0.46153799999999023
        },
        {
          "name": "F#4",
          "midi": 66,
          "time": 47.19226049999988,
          "velocity": 0.7559055118110236,
          "duration": 0.3394227374999943
        },
        {
          "name": "D#4",
          "midi": 63,
          "time": 47.30764499999988,
          "velocity": 0.7559055118110236,
          "duration": 0.10865373749999918
        },
        {
          "name": "F#4",
          "midi": 66,
          "time": 47.42302949999988,
          "velocity": 0.7559055118110236,
          "duration": 0.3394227374999943
        },
        {
          "name": "A#4",
          "midi": 70,
          "time": 47.538413999999875,
          "velocity": 0.7559055118110236,
          "duration": 0.437499562499994
        },
        {
          "name": "D#5",
          "midi": 75,
          "time": 47.538413999999875,
          "velocity": 0.7559055118110236,
          "duration": 1.6144214624999975
        },
        {
          "name": "A#4",
          "midi": 70,
          "time": 47.538413999999875,
          "velocity": 0.7559055118110236,
          "duration": 1.6144214624999975
        },
        {
          "name": "F#4",
          "midi": 66,
          "time": 47.65379849999987,
          "velocity": 0.7559055118110236,
          "duration": 0.3394227374999943
        },
        {
          "name": "D#4",
          "midi": 63,
          "time": 47.76918299999987,
          "velocity": 0.7559055118110236,
          "duration": 0.20673056249999888
        },
        {
          "name": "F#4",
          "midi": 66,
          "time": 47.88456749999987,
          "velocity": 0.7559055118110236,
          "duration": 4.152880462500001
        },
        {
          "name": "E5",
          "midi": 76,
          "time": 47.999951999999865,
          "velocity": 0.7559055118110236,
          "duration": 0.8990375625000055
        },
        {
          "name": "G#4",
          "midi": 68,
          "time": 47.999951999999865,
          "velocity": 0.7559055118110236,
          "duration": 0.46153800000000444
        },
        {
          "name": "B4",
          "midi": 71,
          "time": 48.23072099999987,
          "velocity": 0.7559055118110236,
          "duration": 0.2182690125000022
        },
        {
          "name": "G#4",
          "midi": 68,
          "time": 48.46148999999987,
          "velocity": 0.7559055118110236,
          "duration": 0.4374995625000011
        },
        {
          "name": "E5",
          "midi": 76,
          "time": 48.46148999999987,
          "velocity": 0.7559055118110236,
          "duration": 3.9163422374999897
        },
        {
          "name": "G#4",
          "midi": 68,
          "time": 48.46148999999987,
          "velocity": 0.7559055118110236,
          "duration": 5.762494237499979
        },
        {
          "name": "E4",
          "midi": 64,
          "time": 48.69225899999987,
          "velocity": 0.7559055118110236,
          "duration": 0.2182690125000022
        },
        {
          "name": "A#4",
          "midi": 70,
          "time": 48.923027999999874,
          "velocity": 0.7559055118110236,
          "duration": 0.4605764624999935
        },
        {
          "name": "D#5",
          "midi": 75,
          "time": 48.923027999999874,
          "velocity": 0.7559055118110236,
          "duration": 0.922114462499998
        },
        {
          "name": "A#4",
          "midi": 70,
          "time": 49.15379699999987,
          "velocity": 0.7559055118110236,
          "duration": 0.37596116249999767
        },
        {
          "name": "C#5",
          "midi": 73,
          "time": 49.15379699999987,
          "velocity": 0.7559055118110236,
          "duration": 5.076917999999978
        },
        {
          "name": "D#5",
          "midi": 75,
          "time": 49.384565999999865,
          "velocity": 0.7559055118110236,
          "duration": 0.8990375625000055
        },
        {
          "name": "A#4",
          "midi": 70,
          "time": 49.384565999999865,
          "velocity": 0.7559055118110236,
          "duration": 2.652881962500004
        },
        {
          "name": "F#5",
          "midi": 78,
          "time": 49.538411999999866,
          "velocity": 0.7559055118110236,
          "duration": 1.570190737499999
        },
        {
          "name": "A#5",
          "midi": 82,
          "time": 49.69225799999987,
          "velocity": 0.7559055118110236,
          "duration": 0.9548067375000002
        },
        {
          "name": "D#5",
          "midi": 75,
          "time": 49.84610399999987,
          "velocity": 0.7559055118110236,
          "duration": 1.8336520124999964
        },
        {
          "name": "D#6",
          "midi": 87,
          "time": 49.84610399999987,
          "velocity": 0.7559055118110236,
          "duration": 0.4374995625000011
        },
        {
          "name": "A#5",
          "midi": 82,
          "time": 50.53841099999987,
          "velocity": 0.7559055118110236,
          "duration": 0.22403823749999674
        },
        {
          "name": "D#6",
          "midi": 87,
          "time": 50.53841099999987,
          "velocity": 0.7559055118110236,
          "duration": 0.10865373749999918
        },
        {
          "name": "A#5",
          "midi": 82,
          "time": 50.653795499999866,
          "velocity": 0.7559055118110236,
          "duration": 0.33365351249999975
        },
        {
          "name": "D6",
          "midi": 86,
          "time": 50.653795499999866,
          "velocity": 0.7559055118110236,
          "duration": 0.10865373749999918
        },
        {
          "name": "A#5",
          "midi": 82,
          "time": 50.769179999999864,
          "velocity": 0.7559055118110236,
          "duration": 0.6798070124999995
        },
        {
          "name": "C#6",
          "midi": 85,
          "time": 50.769179999999864,
          "velocity": 0.7559055118110236,
          "duration": 6.454801237499964
        },
        {
          "name": "F#5",
          "midi": 78,
          "time": 50.999948999999866,
          "velocity": 0.7559055118110236,
          "duration": 0.22403823749999674
        },
        {
          "name": "C6",
          "midi": 84,
          "time": 50.999948999999866,
          "velocity": 0.7559055118110236,
          "duration": 0.10865373749999918
        },
        {
          "name": "F#5",
          "midi": 78,
          "time": 51.11533349999986,
          "velocity": 0.7559055118110236,
          "duration": 0.33365351249999975
        },
        {
          "name": "B5",
          "midi": 83,
          "time": 51.11533349999986,
          "velocity": 0.7559055118110236,
          "duration": 5.883647962499971
        },
        {
          "name": "F#5",
          "midi": 78,
          "time": 51.23071799999986,
          "velocity": 0.7559055118110236,
          "duration": 1.2682679624999977
        },
        {
          "name": "A#5",
          "midi": 82,
          "time": 51.23071799999986,
          "velocity": 0.7559055118110236,
          "duration": 2.745189562499995
        },
        {
          "name": "D#5",
          "midi": 75,
          "time": 51.46148699999986,
          "velocity": 0.7559055118110236,
          "duration": 0.4490380125000044
        },
        {
          "name": "A5",
          "midi": 81,
          "time": 51.46148699999986,
          "velocity": 0.7559055118110236,
          "duration": 0.2182690125000022
        },
        {
          "name": "D#5",
          "midi": 75,
          "time": 51.692255999999865,
          "velocity": 0.7559055118110236,
          "duration": 0.5759609624999982
        },
        {
          "name": "G#5",
          "midi": 80,
          "time": 51.692255999999865,
          "velocity": 0.7559055118110236,
          "duration": 1.1413450124999898
        },
        {
          "name": "F#4",
          "midi": 66,
          "time": 51.92302499999987,
          "velocity": 0.7559055118110236,
          "duration": 20.42209496249997
        },
        {
          "name": "A#4",
          "midi": 70,
          "time": 51.92302499999987,
          "velocity": 0.7559055118110236,
          "duration": 0.34519196249999595
        },
        {
          "name": "B4",
          "midi": 71,
          "time": 52.038409499999865,
          "velocity": 0.7559055118110236,
          "duration": 0.10865373749999918
        },
        {
          "name": "A#4",
          "midi": 70,
          "time": 52.15379399999986,
          "velocity": 0.7559055118110236,
          "duration": 3.668265562499961
        },
        {
          "name": "D#5",
          "midi": 75,
          "time": 52.15379399999986,
          "velocity": 0.7559055118110236,
          "duration": 0.34519196249999595
        },
        {
          "name": "E5",
          "midi": 76,
          "time": 52.26917849999986,
          "velocity": 0.7559055118110236,
          "duration": 3.3336505124999647
        },
        {
          "name": "D#5",
          "midi": 75,
          "time": 52.38456299999986,
          "velocity": 0.7559055118110236,
          "duration": 0.4490380124999973
        },
        {
          "name": "F#5",
          "midi": 78,
          "time": 52.38456299999986,
          "velocity": 0.7559055118110236,
          "duration": 1.8336520124999893
        },
        {
          "name": "G5",
          "midi": 79,
          "time": 52.499947499999855,
          "velocity": 0.7559055118110236,
          "duration": 0.10865373749999918
        },
        {
          "name": "D#5",
          "midi": 75,
          "time": 52.61533199999985,
          "velocity": 0.7559055118110236,
          "duration": 0.4490380125000044
        },
        {
          "name": "G#5",
          "midi": 80,
          "time": 52.61533199999985,
          "velocity": 0.7559055118110236,
          "duration": 0.4490380125000044
        },
        {
          "name": "D#5",
          "midi": 75,
          "time": 52.846100999999855,
          "velocity": 0.7559055118110236,
          "duration": 0.6682685625000033
        },
        {
          "name": "G#5",
          "midi": 80,
          "time": 52.846100999999855,
          "velocity": 0.7559055118110236,
          "duration": 0.6682685625000033
        },
        {
          "name": "D#5",
          "midi": 75,
          "time": 53.07686999999986,
          "velocity": 0.7559055118110236,
          "duration": 0.46153800000000444
        },
        {
          "name": "G#5",
          "midi": 80,
          "time": 53.07686999999986,
          "velocity": 0.7559055118110236,
          "duration": 7.129800562499959
        },
        {
          "name": "D#5",
          "midi": 75,
          "time": 53.53840799999986,
          "velocity": 0.7559055118110236,
          "duration": 0.23076899999999512
        },
        {
          "name": "A#5",
          "midi": 82,
          "time": 53.53840799999986,
          "velocity": 0.7559055118110236,
          "duration": 3.345188962499975
        },
        {
          "name": "D#5",
          "midi": 75,
          "time": 53.53840799999986,
          "velocity": 0.7559055118110236,
          "duration": 0.437499562499994
        },
        {
          "name": "B4",
          "midi": 71,
          "time": 53.65379249999986,
          "velocity": 0.7559055118110236,
          "duration": 0.10865373749999918
        },
        {
          "name": "D#5",
          "midi": 75,
          "time": 53.76917699999986,
          "velocity": 0.7559055118110236,
          "duration": 0.23076899999999512
        },
        {
          "name": "B4",
          "midi": 71,
          "time": 53.884561499999855,
          "velocity": 0.7559055118110236,
          "duration": 0.10865373749999918
        },
        {
          "name": "D#5",
          "midi": 75,
          "time": 53.99994599999985,
          "velocity": 0.7559055118110236,
          "duration": 0.21826901249999509
        },
        {
          "name": "F#5",
          "midi": 78,
          "time": 53.99994599999985,
          "velocity": 0.7559055118110236,
          "duration": 6.575954962499964
        },
        {
          "name": "D#5",
          "midi": 75,
          "time": 53.99994599999985,
          "velocity": 0.7559055118110236,
          "duration": 0.8990375624999842
        },
        {
          "name": "G#4",
          "midi": 68,
          "time": 54.11533049999985,
          "velocity": 0.7559055118110236,
          "duration": 0.3394227374999943
        },
        {
          "name": "C#5",
          "midi": 73,
          "time": 54.23071499999985,
          "velocity": 0.7559055118110236,
          "duration": 0.21826901249999509
        },
        {
          "name": "F5",
          "midi": 77,
          "time": 54.23071499999985,
          "velocity": 0.7559055118110236,
          "duration": 0.21826901249999509
        },
        {
          "name": "C#5",
          "midi": 73,
          "time": 54.23071499999985,
          "velocity": 0.7559055118110236,
          "duration": 8.306722462499955
        },
        {
          "name": "G#4",
          "midi": 68,
          "time": 54.346099499999845,
          "velocity": 0.7559055118110236,
          "duration": 0.11538449999999756
        },
        {
          "name": "G#4",
          "midi": 68,
          "time": 54.46148399999984,
          "velocity": 0.7559055118110236,
          "duration": 0.23076899999999512
        },
        {
          "name": "D#5",
          "midi": 75,
          "time": 54.46148399999984,
          "velocity": 0.7559055118110236,
          "duration": 0.8990375624999842
        },
        {
          "name": "G#4",
          "midi": 68,
          "time": 54.46148399999984,
          "velocity": 0.7559055118110236,
          "duration": 0.437499562499994
        },
        {
          "name": "B4",
          "midi": 71,
          "time": 54.57686849999984,
          "velocity": 0.7559055118110236,
          "duration": 0.10865373749999918
        },
        {
          "name": "G#4",
          "midi": 68,
          "time": 54.69225299999984,
          "velocity": 0.7559055118110236,
          "duration": 0.45480723749999186
        },
        {
          "name": "D#4",
          "midi": 63,
          "time": 54.807637499999835,
          "velocity": 0.7559055118110236,
          "duration": 0.10865373749999918
        },
        {
          "name": "B4",
          "midi": 71,
          "time": 54.92302199999983,
          "velocity": 0.7559055118110236,
          "duration": 0.437499562499994
        },
        {
          "name": "D#5",
          "midi": 75,
          "time": 54.92302199999983,
          "velocity": 0.7559055118110236,
          "duration": 1.8221135625000002
        },
        {
          "name": "B4",
          "midi": 71,
          "time": 54.92302199999983,
          "velocity": 0.7559055118110236,
          "duration": 0.9105760124999946
        },
        {
          "name": "G#4",
          "midi": 68,
          "time": 55.03840649999983,
          "velocity": 0.7559055118110236,
          "duration": 0.3394227374999943
        },
        {
          "name": "D#4",
          "midi": 63,
          "time": 55.15379099999983,
          "velocity": 0.7559055118110236,
          "duration": 0.10865373749999918
        },
        {
          "name": "G#4",
          "midi": 68,
          "time": 55.269175499999825,
          "velocity": 0.7559055118110236,
          "duration": 1.0259605125000064
        },
        {
          "name": "E5",
          "midi": 76,
          "time": 55.38455999999982,
          "velocity": 0.7559055118110236,
          "duration": 0.8990375625000055
        },
        {
          "name": "A#4",
          "midi": 70,
          "time": 55.38455999999982,
          "velocity": 0.7559055118110236,
          "duration": 0.46153800000000444
        },
        {
          "name": "B4",
          "midi": 71,
          "time": 55.615328999999825,
          "velocity": 0.7559055118110236,
          "duration": 7.602877012499981
        },
        {
          "name": "A#4",
          "midi": 70,
          "time": 55.84609799999983,
          "velocity": 0.7559055118110236,
          "duration": 0.4374995625000011
        },
        {
          "name": "E5",
          "midi": 76,
          "time": 55.84609799999983,
          "velocity": 0.7559055118110236,
          "duration": 5.064418012499985
        },
        {
          "name": "A#4",
          "midi": 70,
          "time": 55.84609799999983,
          "velocity": 0.7559055118110236,
          "duration": 0.8990375625000055
        },
        {
          "name": "G#4",
          "midi": 68,
          "time": 56.07686699999983,
          "velocity": 0.7559055118110236,
          "duration": 7.602877012499981
        },
        {
          "name": "A#4",
          "midi": 70,
          "time": 56.30763599999983,
          "velocity": 0.7559055118110236,
          "duration": 6.899031562499971
        },
        {
          "name": "D#5",
          "midi": 75,
          "time": 56.30763599999983,
          "velocity": 0.7559055118110236,
          "duration": 0.922114462499998
        },
        {
          "name": "A#5",
          "midi": 82,
          "time": 56.769173999999836,
          "velocity": 0.7559055118110236,
          "duration": 2.0759594624999878
        },
        {
          "name": "D#5",
          "midi": 75,
          "time": 56.769173999999836,
          "velocity": 0.7559055118110236,
          "duration": 5.537494462499971
        },
        {
          "name": "B5",
          "midi": 83,
          "time": 56.884558499999834,
          "velocity": 0.7559055118110236,
          "duration": 1.8451904624999926
        },
        {
          "name": "C6",
          "midi": 84,
          "time": 56.99994299999983,
          "velocity": 0.7559055118110236,
          "duration": 0.11442296250000084
        },
        {
          "name": "C#6",
          "midi": 85,
          "time": 57.11532749999983,
          "velocity": 0.7559055118110236,
          "duration": 1.2451910624999982
        },
        {
          "name": "D#6",
          "midi": 87,
          "time": 57.69224999999983,
          "velocity": 0.7559055118110236,
          "duration": 0.11442296250000084
        },
        {
          "name": "F#6",
          "midi": 90,
          "time": 57.69224999999983,
          "velocity": 0.7559055118110236,
          "duration": 0.11442296250000084
        },
        {
          "name": "D6",
          "midi": 86,
          "time": 57.80763449999983,
          "velocity": 0.7559055118110236,
          "duration": 0.11442296250000084
        },
        {
          "name": "F6",
          "midi": 89,
          "time": 57.80763449999983,
          "velocity": 0.7559055118110236,
          "duration": 0.11442296250000084
        },
        {
          "name": "C#6",
          "midi": 85,
          "time": 57.923018999999826,
          "velocity": 0.7559055118110236,
          "duration": 0.922114462499998
        },
        {
          "name": "E6",
          "midi": 88,
          "time": 57.923018999999826,
          "velocity": 0.7559055118110236,
          "duration": 0.4374995625000011
        },
        {
          "name": "C6",
          "midi": 84,
          "time": 58.38455699999983,
          "velocity": 0.7559055118110236,
          "duration": 0.2298074624999984
        },
        {
          "name": "D#6",
          "midi": 87,
          "time": 58.38455699999983,
          "velocity": 0.7559055118110236,
          "duration": 0.2298074624999984
        },
        {
          "name": "B5",
          "midi": 83,
          "time": 58.615325999999826,
          "velocity": 0.7559055118110236,
          "duration": 1.9605749624999902
        },
        {
          "name": "D6",
          "midi": 86,
          "time": 58.615325999999826,
          "velocity": 0.7559055118110236,
          "duration": 0.11442296250000084
        },
        {
          "name": "A#5",
          "midi": 82,
          "time": 58.73071049999982,
          "velocity": 0.7559055118110236,
          "duration": 0.922114462499998
        },
        {
          "name": "C#6",
          "midi": 85,
          "time": 58.73071049999982,
          "velocity": 0.7559055118110236,
          "duration": 1.4759600624999933
        },
        {
          "name": "A5",
          "midi": 81,
          "time": 58.84609499999982,
          "velocity": 0.7559055118110236,
          "duration": 0.2182690125000022
        },
        {
          "name": "C6",
          "midi": 84,
          "time": 58.84609499999982,
          "velocity": 0.7559055118110236,
          "duration": 0.2182690125000022
        },
        {
          "name": "A#5",
          "midi": 82,
          "time": 59.53840199999982,
          "velocity": 0.7559055118110236,
          "duration": 1.152883462499993
        },
        {
          "name": "D#6",
          "midi": 87,
          "time": 59.53840199999982,
          "velocity": 0.7559055118110236,
          "duration": 0.11442296250000084
        },
        {
          "name": "A5",
          "midi": 81,
          "time": 59.65378649999982,
          "velocity": 0.7559055118110236,
          "duration": 0.11442296250000084
        },
        {
          "name": "D6",
          "midi": 86,
          "time": 59.65378649999982,
          "velocity": 0.7559055118110236,
          "duration": 0.11442296250000084
        },
        {
          "name": "G#5",
          "midi": 80,
          "time": 59.769170999999815,
          "velocity": 0.7559055118110236,
          "duration": 2.2836515624999905
        },
        {
          "name": "C#6",
          "midi": 85,
          "time": 59.769170999999815,
          "velocity": 0.7559055118110236,
          "duration": 4.839418237500013
        },
        {
          "name": "G5",
          "midi": 79,
          "time": 60.23070899999982,
          "velocity": 0.7559055118110236,
          "duration": 0.2298074624999984
        },
        {
          "name": "C6",
          "midi": 84,
          "time": 60.23070899999982,
          "velocity": 0.7559055118110236,
          "duration": 0.2298074624999984
        },
        {
          "name": "F#5",
          "midi": 78,
          "time": 60.461477999999815,
          "velocity": 0.7559055118110236,
          "duration": 1.0374989624999955
        },
        {
          "name": "B5",
          "midi": 83,
          "time": 60.461477999999815,
          "velocity": 0.7559055118110236,
          "duration": 3.9221114624999984
        },
        {
          "name": "F5",
          "midi": 77,
          "time": 60.57686249999981,
          "velocity": 0.7559055118110236,
          "duration": 0.11442296250000084
        },
        {
          "name": "A#5",
          "midi": 82,
          "time": 60.57686249999981,
          "velocity": 0.7559055118110236,
          "duration": 0.922114462499998
        },
        {
          "name": "E5",
          "midi": 76,
          "time": 60.69224699999981,
          "velocity": 0.7559055118110236,
          "duration": 1.3605755624999958
        },
        {
          "name": "A5",
          "midi": 81,
          "time": 60.69224699999981,
          "velocity": 0.7559055118110236,
          "duration": 0.2182690125000022
        },
        {
          "name": "F#5",
          "midi": 78,
          "time": 61.38455399999981,
          "velocity": 0.7559055118110236,
          "duration": 1.0374989624999955
        },
        {
          "name": "A#5",
          "midi": 82,
          "time": 61.38455399999981,
          "velocity": 0.7559055118110236,
          "duration": 2.883650962499999
        },
        {
          "name": "F5",
          "midi": 77,
          "time": 61.49993849999981,
          "velocity": 0.7559055118110236,
          "duration": 0.11442296250000084
        },
        {
          "name": "A5",
          "midi": 81,
          "time": 61.49993849999981,
          "velocity": 0.7559055118110236,
          "duration": 0.11442296250000084
        },
        {
          "name": "E5",
          "midi": 76,
          "time": 61.615322999999805,
          "velocity": 0.7559055118110236,
          "duration": 1.1413450124999969
        },
        {
          "name": "G#5",
          "midi": 80,
          "time": 61.615322999999805,
          "velocity": 0.7559055118110236,
          "duration": 4.129803562500015
        },
        {
          "name": "D#5",
          "midi": 75,
          "time": 62.07686099999981,
          "velocity": 0.7559055118110236,
          "duration": 2.0528825625000025
        },
        {
          "name": "G5",
          "midi": 79,
          "time": 62.07686099999981,
          "velocity": 0.7559055118110236,
          "duration": 0.2298074624999984
        },
        {
          "name": "D5",
          "midi": 74,
          "time": 62.307629999999804,
          "velocity": 0.7559055118110236,
          "duration": 0.11442296250000084
        },
        {
          "name": "F#5",
          "midi": 78,
          "time": 62.307629999999804,
          "velocity": 0.7559055118110236,
          "duration": 3.806726962500022
        },
        {
          "name": "C#5",
          "midi": 73,
          "time": 62.4230144999998,
          "velocity": 0.7559055118110236,
          "duration": 5.652878962500047
        },
        {
          "name": "F5",
          "midi": 77,
          "time": 62.4230144999998,
          "velocity": 0.7559055118110236,
          "duration": 0.11442296250000084
        },
        {
          "name": "C5",
          "midi": 72,
          "time": 62.5383989999998,
          "velocity": 0.7559055118110236,
          "duration": 0.2182690125000022
        },
        {
          "name": "E5",
          "midi": 76,
          "time": 62.5383989999998,
          "velocity": 0.7559055118110236,
          "duration": 0.4490380125000044
        },
        {
          "name": "E5",
          "midi": 76,
          "time": 62.7691679999998,
          "velocity": 0.7559055118110236,
          "duration": 0.8990375625000055
        },
        {
          "name": "A#4",
          "midi": 70,
          "time": 62.7691679999998,
          "velocity": 0.7559055118110236,
          "duration": 0.46153800000000444
        },
        {
          "name": "B4",
          "midi": 71,
          "time": 62.999936999999804,
          "velocity": 0.7559055118110236,
          "duration": 6.806723962500058
        },
        {
          "name": "A#4",
          "midi": 70,
          "time": 63.230705999999806,
          "velocity": 0.7559055118110236,
          "duration": 0.4374995625000011
        },
        {
          "name": "E5",
          "midi": 76,
          "time": 63.230705999999806,
          "velocity": 0.7559055118110236,
          "duration": 3.218266012500031
        },
        {
          "name": "A#4",
          "midi": 70,
          "time": 63.230705999999806,
          "velocity": 0.7559055118110236,
          "duration": 0.8990375625000055
        },
        {
          "name": "G#4",
          "midi": 68,
          "time": 63.46147499999981,
          "velocity": 0.7559055118110236,
          "duration": 7.602877012500045
        },
        {
          "name": "A#4",
          "midi": 70,
          "time": 63.69224399999981,
          "velocity": 0.7559055118110236,
          "duration": 6.229801462500056
        },
        {
          "name": "D#5",
          "midi": 75,
          "time": 63.69224399999981,
          "velocity": 0.7559055118110236,
          "duration": 0.9221144625000122
        },
        {
          "name": "A#5",
          "midi": 82,
          "time": 64.15378199999981,
          "velocity": 0.7559055118110236,
          "duration": 1.0374989625000097
        },
        {
          "name": "D#5",
          "midi": 75,
          "time": 64.15378199999981,
          "velocity": 0.7559055118110236,
          "duration": 3.6913424625000317
        },
        {
          "name": "B5",
          "midi": 83,
          "time": 64.26916649999981,
          "velocity": 0.7559055118110236,
          "duration": 3.6913424625000317
        },
        {
          "name": "C6",
          "midi": 84,
          "time": 64.38455099999982,
          "velocity": 0.7559055118110236,
          "duration": 0.11442296250000084
        },
        {
          "name": "C#6",
          "midi": 85,
          "time": 64.49993549999982,
          "velocity": 0.7559055118110236,
          "duration": 1.7298059625000093
        },
        {
          "name": "A#5",
          "midi": 82,
          "time": 65.07685799999982,
          "velocity": 0.7559055118110236,
          "duration": 2.999035462500032
        },
        {
          "name": "F#6",
          "midi": 90,
          "time": 65.07685799999982,
          "velocity": 0.7559055118110236,
          "duration": 0.11442296250000084
        },
        {
          "name": "A5",
          "midi": 81,
          "time": 65.19224249999982,
          "velocity": 0.7559055118110236,
          "duration": 0.11442296250000084
        },
        {
          "name": "F6",
          "midi": 89,
          "time": 65.19224249999982,
          "velocity": 0.7559055118110236,
          "duration": 0.11442296250000084
        },
        {
          "name": "G#5",
          "midi": 80,
          "time": 65.30762699999983,
          "velocity": 0.7559055118110236,
          "duration": 4.12980356250003
        },
        {
          "name": "E6",
          "midi": 88,
          "time": 65.30762699999983,
          "velocity": 0.7559055118110236,
          "duration": 0.437499562499994
        },
        {
          "name": "G5",
          "midi": 79,
          "time": 65.76916499999982,
          "velocity": 0.7559055118110236,
          "duration": 0.2298074625000055
        },
        {
          "name": "D#6",
          "midi": 87,
          "time": 65.76916499999982,
          "velocity": 0.7559055118110236,
          "duration": 0.2298074625000055
        },
        {
          "name": "F#5",
          "midi": 78,
          "time": 65.99993399999983,
          "velocity": 0.7559055118110236,
          "duration": 1.0374989625000097
        },
        {
          "name": "D6",
          "midi": 86,
          "time": 65.99993399999983,
          "velocity": 0.7559055118110236,
          "duration": 0.11442296250000084
        },
        {
          "name": "F5",
          "midi": 77,
          "time": 66.11531849999983,
          "velocity": 0.7559055118110236,
          "duration": 0.11442296250000084
        },
        {
          "name": "C#6",
          "midi": 85,
          "time": 66.11531849999983,
          "velocity": 0.7559055118110236,
          "duration": 1.4759600625000076
        },
        {
          "name": "E5",
          "midi": 76,
          "time": 66.23070299999983,
          "velocity": 0.7559055118110236,
          "duration": 1.3605755625000029
        },
        {
          "name": "C6",
          "midi": 84,
          "time": 66.23070299999983,
          "velocity": 0.7559055118110236,
          "duration": 0.2182690125000022
        },
        {
          "name": "F#5",
          "midi": 78,
          "time": 66.92300999999983,
          "velocity": 0.7559055118110236,
          "duration": 2.8836509625000275
        },
        {
          "name": "D#6",
          "midi": 87,
          "time": 66.92300999999983,
          "velocity": 0.7559055118110236,
          "duration": 0.11442296250000084
        },
        {
          "name": "F5",
          "midi": 77,
          "time": 67.03839449999984,
          "velocity": 0.7559055118110236,
          "duration": 0.11442296250000084
        },
        {
          "name": "D6",
          "midi": 86,
          "time": 67.03839449999984,
          "velocity": 0.7559055118110236,
          "duration": 0.11442296250000084
        },
        {
          "name": "E5",
          "midi": 76,
          "time": 67.15377899999984,
          "velocity": 0.7559055118110236,
          "duration": 2.987497012500029
        },
        {
          "name": "C#6",
          "midi": 85,
          "time": 67.15377899999984,
          "velocity": 0.7559055118110236,
          "duration": 19.409595975000016
        },
        {
          "name": "D#5",
          "midi": 75,
          "time": 67.61531699999983,
          "velocity": 0.7559055118110236,
          "duration": 1.268267962500019
        },
        {
          "name": "C6",
          "midi": 84,
          "time": 67.61531699999983,
          "velocity": 0.7559055118110236,
          "duration": 0.2298074625000055
        },
        {
          "name": "D5",
          "midi": 74,
          "time": 67.84608599999984,
          "velocity": 0.7559055118110236,
          "duration": 0.11442296250000084
        },
        {
          "name": "B5",
          "midi": 83,
          "time": 67.84608599999984,
          "velocity": 0.7559055118110236,
          "duration": 7.960568962500048
        },
        {
          "name": "C#5",
          "midi": 73,
          "time": 67.96147049999985,
          "velocity": 0.7559055118110236,
          "duration": 1.4759600625000076
        },
        {
          "name": "A#5",
          "midi": 82,
          "time": 67.96147049999985,
          "velocity": 0.7559055118110236,
          "duration": 0.9221144625000051
        },
        {
          "name": "C5",
          "midi": 72,
          "time": 68.07685499999985,
          "velocity": 0.7559055118110236,
          "duration": 0.2182690125000022
        },
        {
          "name": "A5",
          "midi": 81,
          "time": 68.07685499999985,
          "velocity": 0.7559055118110236,
          "duration": 0.2182690125000022
        },
        {
          "name": "D#5",
          "midi": 75,
          "time": 68.76916199999985,
          "velocity": 0.7559055118110236,
          "duration": 2.745189562499988
        },
        {
          "name": "A#5",
          "midi": 82,
          "time": 68.76916199999985,
          "velocity": 0.7559055118110236,
          "duration": 5.191340962499979
        },
        {
          "name": "D5",
          "midi": 74,
          "time": 68.88454649999986,
          "velocity": 0.7559055118110236,
          "duration": 0.11442296250000084
        },
        {
          "name": "A5",
          "midi": 81,
          "time": 68.88454649999986,
          "velocity": 0.7559055118110236,
          "duration": 0.11442296250000084
        },
        {
          "name": "C#5",
          "midi": 73,
          "time": 68.99993099999986,
          "velocity": 0.7559055118110236,
          "duration": 2.9932662374999808
        },
        {
          "name": "G#5",
          "midi": 80,
          "time": 68.99993099999986,
          "velocity": 0.7559055118110236,
          "duration": 4.608649237499975
        },
        {
          "name": "C5",
          "midi": 72,
          "time": 69.46146899999985,
          "velocity": 0.7559055118110236,
          "duration": 0.2298074625000055
        },
        {
          "name": "G5",
          "midi": 79,
          "time": 69.46146899999985,
          "velocity": 0.7559055118110236,
          "duration": 0.2298074625000055
        },
        {
          "name": "B4",
          "midi": 71,
          "time": 69.69223799999986,
          "velocity": 0.7559055118110236,
          "duration": 0.9105760125000018
        },
        {
          "name": "F#5",
          "midi": 78,
          "time": 69.69223799999986,
          "velocity": 0.7559055118110236,
          "duration": 4.26826496249997
        },
        {
          "name": "A#4",
          "midi": 70,
          "time": 69.80762249999987,
          "velocity": 0.7559055118110236,
          "duration": 0.7836530624999938
        },
        {
          "name": "F5",
          "midi": 77,
          "time": 69.80762249999987,
          "velocity": 0.7559055118110236,
          "duration": 0.11442296250000084
        },
        {
          "name": "A4",
          "midi": 69,
          "time": 69.92300699999987,
          "velocity": 0.7559055118110236,
          "duration": 0.2182690125000022
        },
        {
          "name": "E5",
          "midi": 76,
          "time": 69.92300699999987,
          "velocity": 0.7559055118110236,
          "duration": 0.4490380124999973
        },
        {
          "name": "E5",
          "midi": 76,
          "time": 70.15377599999987,
          "velocity": 0.7559055118110236,
          "duration": 0.8990375624999842
        },
        {
          "name": "A#4",
          "midi": 70,
          "time": 70.15377599999987,
          "velocity": 0.7559055118110236,
          "duration": 0.46153799999999023
        },
        {
          "name": "B4",
          "midi": 71,
          "time": 70.38454499999986,
          "velocity": 0.7559055118110236,
          "duration": 2.0759594624999806
        },
        {
          "name": "A#4",
          "midi": 70,
          "time": 70.61531399999986,
          "velocity": 0.7559055118110236,
          "duration": 0.437499562499994
        },
        {
          "name": "E5",
          "midi": 76,
          "time": 70.61531399999986,
          "velocity": 0.7559055118110236,
          "duration": 2.2951900124999867
        },
        {
          "name": "A#4",
          "midi": 70,
          "time": 70.61531399999986,
          "velocity": 0.7559055118110236,
          "duration": 0.8990375624999842
        },
        {
          "name": "G#4",
          "midi": 68,
          "time": 70.84608299999985,
          "velocity": 0.7559055118110236,
          "duration": 7.6028770125000165
        },
        {
          "name": "A#4",
          "midi": 70,
          "time": 71.07685199999985,
          "velocity": 0.7559055118110236,
          "duration": 0.9163452374999963
        },
        {
          "name": "D#5",
          "midi": 75,
          "time": 71.07685199999985,
          "velocity": 0.7559055118110236,
          "duration": 1.1413450124999969
        },
        {
          "name": "A#4",
          "midi": 70,
          "time": 71.88454349999984,
          "velocity": 0.7559055118110236,
          "duration": 0.33365351250000685
        },
        {
          "name": "C#5",
          "midi": 73,
          "time": 71.88454349999984,
          "velocity": 0.7559055118110236,
          "duration": 1.2567295125000015
        },
        {
          "name": "D#4",
          "midi": 63,
          "time": 71.99992799999984,
          "velocity": 0.6299212598425197,
          "duration": 0.2182690125000022
        },
        {
          "name": "A#4",
          "midi": 70,
          "time": 71.99992799999984,
          "velocity": 0.6299212598425197,
          "duration": 0.34519196249999595
        },
        {
          "name": "D#5",
          "midi": 75,
          "time": 71.99992799999984,
          "velocity": 0.6299212598425197,
          "duration": 0.6798070125000066
        },
        {
          "name": "F#4",
          "midi": 66,
          "time": 72.23069699999984,
          "velocity": 0.6299212598425197,
          "duration": 58.383595462501276
        },
        {
          "name": "A#4",
          "midi": 70,
          "time": 72.23069699999984,
          "velocity": 0.6299212598425197,
          "duration": 0.4490380125000115
        },
        {
          "name": "B4",
          "midi": 71,
          "time": 72.34608149999984,
          "velocity": 0.6299212598425197,
          "duration": 5.179802512500046
        },
        {
          "name": "A#4",
          "midi": 70,
          "time": 72.46146599999985,
          "velocity": 0.6299212598425197,
          "duration": 0.4490380124999973
        },
        {
          "name": "D#5",
          "midi": 75,
          "time": 72.46146599999985,
          "velocity": 0.6299212598425197,
          "duration": 1.6144214624999904
        },
        {
          "name": "A#4",
          "midi": 70,
          "time": 72.69223499999984,
          "velocity": 0.6299212598425197,
          "duration": 6.910570012500003
        },
        {
          "name": "E5",
          "midi": 76,
          "time": 72.69223499999984,
          "velocity": 0.6299212598425197,
          "duration": 0.6798070124999924
        },
        {
          "name": "C#5",
          "midi": 73,
          "time": 72.92300399999984,
          "velocity": 0.6299212598425197,
          "duration": 0.4490380124999973
        },
        {
          "name": "G5",
          "midi": 79,
          "time": 72.92300399999984,
          "velocity": 0.6299212598425197,
          "duration": 0.2182690125000022
        },
        {
          "name": "C#5",
          "midi": 73,
          "time": 73.15377299999983,
          "velocity": 0.6299212598425197,
          "duration": 0.34519196249999595
        },
        {
          "name": "E5",
          "midi": 76,
          "time": 73.15377299999983,
          "velocity": 0.6299212598425197,
          "duration": 1.6028830125000297
        },
        {
          "name": "C#5",
          "midi": 73,
          "time": 73.38454199999983,
          "velocity": 0.6299212598425197,
          "duration": 1.8451904625000424
        },
        {
          "name": "G5",
          "midi": 79,
          "time": 73.38454199999983,
          "velocity": 0.6299212598425197,
          "duration": 0.11442296250000084
        },
        {
          "name": "G#5",
          "midi": 80,
          "time": 73.49992649999983,
          "velocity": 0.6299212598425197,
          "duration": 1.25672951250003
        },
        {
          "name": "F#5",
          "midi": 78,
          "time": 73.84607999999983,
          "velocity": 0.6299212598425197,
          "duration": 0.4605764625000148
        },
        {
          "name": "A#5",
          "midi": 82,
          "time": 73.84607999999983,
          "velocity": 0.6299212598425197,
          "duration": 0.34519196250001016
        },
        {
          "name": "D#5",
          "midi": 75,
          "time": 73.96146449999983,
          "velocity": 0.6299212598425197,
          "duration": 1.037498962500024
        },
        {
          "name": "A#5",
          "midi": 82,
          "time": 74.07684899999984,
          "velocity": 0.6299212598425197,
          "duration": 0.4605764625000148
        },
        {
          "name": "D#6",
          "midi": 87,
          "time": 74.07684899999984,
          "velocity": 0.6299212598425197,
          "duration": 0.11442296250000084
        },
        {
          "name": "F#5",
          "midi": 78,
          "time": 74.19223349999984,
          "velocity": 0.6299212598425197,
          "duration": 0.34519196250001016
        },
        {
          "name": "F#5",
          "midi": 78,
          "time": 74.30761799999985,
          "velocity": 0.6299212598425197,
          "duration": 0.9221144625000193
        },
        {
          "name": "A#5",
          "midi": 82,
          "time": 74.30761799999985,
          "velocity": 0.6299212598425197,
          "duration": 0.6913454625000099
        },
        {
          "name": "E5",
          "midi": 76,
          "time": 74.53838699999986,
          "velocity": 0.6299212598425197,
          "duration": 3.9105730125000093
        },
        {
          "name": "G#5",
          "midi": 80,
          "time": 74.53838699999986,
          "velocity": 0.6299212598425197,
          "duration": 2.2951900125000435
        },
        {
          "name": "D#5",
          "midi": 75,
          "time": 74.76915599999985,
          "velocity": 0.6299212598425197,
          "duration": 1.1528834625000428
        },
        {
          "name": "A#5",
          "midi": 82,
          "time": 74.76915599999985,
          "velocity": 0.6299212598425197,
          "duration": 0.9163452375000389
        },
        {
          "name": "C#5",
          "midi": 73,
          "time": 74.99992499999986,
          "velocity": 0.6299212598425197,
          "duration": 0.34519196250001016
        },
        {
          "name": "F#5",
          "midi": 78,
          "time": 74.99992499999986,
          "velocity": 0.6299212598425197,
          "duration": 0.4605764625000148
        },
        {
          "name": "C#5",
          "midi": 73,
          "time": 75.23069399999987,
          "velocity": 0.6299212598425197,
          "duration": 0.34519196250001016
        },
        {
          "name": "G5",
          "midi": 79,
          "time": 75.23069399999987,
          "velocity": 0.6299212598425197,
          "duration": 0.11442296250000084
        },
        {
          "name": "F#5",
          "midi": 78,
          "time": 75.34607849999988,
          "velocity": 0.6299212598425197,
          "duration": 0.4605764625000148
        },
        {
          "name": "C#5",
          "midi": 73,
          "time": 75.46146299999988,
          "velocity": 0.6299212598425197,
          "duration": 2.295190012500001
        },
        {
          "name": "A5",
          "midi": 81,
          "time": 75.46146299999988,
          "velocity": 0.6299212598425197,
          "duration": 0.11442296250000084
        },
        {
          "name": "A#5",
          "midi": 82,
          "time": 75.57684749999989,
          "velocity": 0.6299212598425197,
          "duration": 1.0259605125000206
        },
        {
          "name": "F#5",
          "midi": 78,
          "time": 75.69223199999989,
          "velocity": 0.6299212598425197,
          "duration": 0.6913454625000099
        },
        {
          "name": "B5",
          "midi": 83,
          "time": 75.69223199999989,
          "velocity": 0.6299212598425197,
          "duration": 0.4490380125000115
        },
        {
          "name": "D#5",
          "midi": 75,
          "time": 75.8076164999999,
          "velocity": 0.6299212598425197,
          "duration": 0.7951915125000113
        },
        {
          "name": "F5",
          "midi": 77,
          "time": 75.9230009999999,
          "velocity": 0.6299212598425197,
          "duration": 0.2182690125000022
        },
        {
          "name": "B5",
          "midi": 83,
          "time": 75.9230009999999,
          "velocity": 0.6299212598425197,
          "duration": 0.4605764625000006
        },
        {
          "name": "F#5",
          "midi": 78,
          "time": 76.1537699999999,
          "velocity": 0.6299212598425197,
          "duration": 0.6798070125000066
        },
        {
          "name": "B5",
          "midi": 83,
          "time": 76.1537699999999,
          "velocity": 0.6299212598425197,
          "duration": 7.141339012499969
        },
        {
          "name": "D#5",
          "midi": 75,
          "time": 76.3845389999999,
          "velocity": 0.6299212598425197,
          "duration": 0.6798070124999924
        },
        {
          "name": "A#5",
          "midi": 82,
          "time": 76.3845389999999,
          "velocity": 0.6299212598425197,
          "duration": 0.6798070124999924
        },
        {
          "name": "F#5",
          "midi": 78,
          "time": 76.6153079999999,
          "velocity": 0.6299212598425197,
          "duration": 2.2951900124999582
        },
        {
          "name": "G#5",
          "midi": 80,
          "time": 76.6153079999999,
          "velocity": 0.6299212598425197,
          "duration": 1.1413450124999827
        },
        {
          "name": "D#5",
          "midi": 75,
          "time": 76.8460769999999,
          "velocity": 0.6299212598425197,
          "duration": 0.4490380124999973
        },
        {
          "name": "A#5",
          "midi": 82,
          "time": 76.8460769999999,
          "velocity": 0.6299212598425197,
          "duration": 0.6798070124999924
        },
        {
          "name": "D#5",
          "midi": 75,
          "time": 77.07684599999989,
          "velocity": 0.6299212598425197,
          "duration": 1.602883012499973
        },
        {
          "name": "G5",
          "midi": 79,
          "time": 77.07684599999989,
          "velocity": 0.6299212598425197,
          "duration": 0.2182690125000022
        },
        {
          "name": "B4",
          "midi": 71,
          "time": 77.30761499999988,
          "velocity": 0.6299212598425197,
          "duration": 7.268261962499949
        },
        {
          "name": "A#5",
          "midi": 82,
          "time": 77.30761499999988,
          "velocity": 0.6299212598425197,
          "duration": 0.6798070124999924
        },
        {
          "name": "C#5",
          "midi": 73,
          "time": 77.53838399999988,
          "velocity": 0.6299212598425197,
          "duration": 0.6798070124999924
        },
        {
          "name": "G#5",
          "midi": 80,
          "time": 77.53838399999988,
          "velocity": 0.6299212598425197,
          "duration": 3.6798040124999716
        },
        {
          "name": "F5",
          "midi": 77,
          "time": 77.76915299999987,
          "velocity": 0.6299212598425197,
          "duration": 0.2182690125000022
        },
        {
          "name": "A#5",
          "midi": 82,
          "time": 77.76915299999987,
          "velocity": 0.6299212598425197,
          "duration": 3.691342462499975
        },
        {
          "name": "C#5",
          "midi": 73,
          "time": 77.99992199999987,
          "velocity": 0.6299212598425197,
          "duration": 0.9105760124999875
        },
        {
          "name": "G5",
          "midi": 79,
          "time": 77.99992199999987,
          "velocity": 0.6299212598425197,
          "duration": 0.2182690125000022
        },
        {
          "name": "G#4",
          "midi": 68,
          "time": 78.23069099999987,
          "velocity": 0.6299212598425197,
          "duration": 0.4490380124999973
        },
        {
          "name": "E5",
          "midi": 76,
          "time": 78.23069099999987,
          "velocity": 0.6299212598425197,
          "duration": 1.1413450124999827
        },
        {
          "name": "G#4",
          "midi": 68,
          "time": 78.46145999999986,
          "velocity": 0.6299212598425197,
          "duration": 0.9105760124999875
        },
        {
          "name": "D#5",
          "midi": 75,
          "time": 78.46145999999986,
          "velocity": 0.6299212598425197,
          "duration": 1.1413450124999827
        },
        {
          "name": "C#5",
          "midi": 73,
          "time": 78.69222899999986,
          "velocity": 0.6299212598425197,
          "duration": 0.4490380124999973
        },
        {
          "name": "F#5",
          "midi": 78,
          "time": 78.69222899999986,
          "velocity": 0.6299212598425197,
          "duration": 2.9990354625000037
        },
        {
          "name": "C#5",
          "midi": 73,
          "time": 78.92299799999985,
          "velocity": 0.6299212598425197,
          "duration": 4.037495962500003
        },
        {
          "name": "F5",
          "midi": 77,
          "time": 78.92299799999985,
          "velocity": 0.6299212598425197,
          "duration": 0.2182690125000022
        },
        {
          "name": "G#4",
          "midi": 68,
          "time": 79.15376699999985,
          "velocity": 0.6299212598425197,
          "duration": 32.30092923750077
        },
        {
          "name": "E5",
          "midi": 76,
          "time": 79.15376699999985,
          "velocity": 0.6299212598425197,
          "duration": 1.60865223750001
        },
        {
          "name": "D#4",
          "midi": 63,
          "time": 79.38453599999984,
          "velocity": 0.6299212598425197,
          "duration": 0.2182690125000022
        },
        {
          "name": "A#4",
          "midi": 70,
          "time": 79.38453599999984,
          "velocity": 0.6299212598425197,
          "duration": 0.4605764625000006
        },
        {
          "name": "D#5",
          "midi": 75,
          "time": 79.38453599999984,
          "velocity": 0.6299212598425197,
          "duration": 0.4605764625000006
        },
        {
          "name": "D#4",
          "midi": 63,
          "time": 79.61530499999984,
          "velocity": 0.9448818897637795,
          "duration": 66.23070300000069
        },
        {
          "name": "A#4",
          "midi": 70,
          "time": 79.61530499999984,
          "velocity": 0.9448818897637795,
          "duration": 1.0374989625000097
        },
        {
          "name": "D#5",
          "midi": 75,
          "time": 79.61530499999984,
          "velocity": 0.9448818897637795,
          "duration": 1.0374989625000097
        },
        {
          "name": "A#4",
          "midi": 70,
          "time": 80.53838099999984,
          "velocity": 0.6299212598425197,
          "duration": 0.4490380125000115
        },
        {
          "name": "D#5",
          "midi": 75,
          "time": 80.53838099999984,
          "velocity": 0.6299212598425197,
          "duration": 0.6798070125000066
        },
        {
          "name": "E5",
          "midi": 76,
          "time": 80.65376549999985,
          "velocity": 0.6299212598425197,
          "duration": 5.179802512500018
        },
        {
          "name": "A#4",
          "midi": 70,
          "time": 80.76914999999985,
          "velocity": 0.6299212598425197,
          "duration": 4.383649462500003
        },
        {
          "name": "G5",
          "midi": 79,
          "time": 80.76914999999985,
          "velocity": 0.6299212598425197,
          "duration": 0.2182690125000022
        },
        {
          "name": "D#5",
          "midi": 75,
          "time": 80.99991899999985,
          "velocity": 0.6299212598425197,
          "duration": 0.4605764625000006
        },
        {
          "name": "G#5",
          "midi": 80,
          "time": 80.99991899999985,
          "velocity": 0.6299212598425197,
          "duration": 1.8336520125000106
        },
        {
          "name": "D#5",
          "midi": 75,
          "time": 81.23068799999984,
          "velocity": 0.6299212598425197,
          "duration": 1.3721140125000204
        },
        {
          "name": "A#5",
          "midi": 82,
          "time": 81.23068799999984,
          "velocity": 0.6299212598425197,
          "duration": 1.3721140125000204
        },
        {
          "name": "F#5",
          "midi": 78,
          "time": 81.46145699999985,
          "velocity": 0.9448818897637795,
          "duration": 3.3451889624999893
        },
        {
          "name": "D#6",
          "midi": 87,
          "time": 81.46145699999985,
          "velocity": 0.9448818897637795,
          "duration": 0.2298074625000055
        },
        {
          "name": "D#5",
          "midi": 75,
          "time": 82.38453299999986,
          "velocity": 0.6299212598425197,
          "duration": 0.4490380124999973
        },
        {
          "name": "A#5",
          "midi": 82,
          "time": 82.38453299999986,
          "velocity": 0.6299212598425197,
          "duration": 0.5759609624999911
        },
        {
          "name": "D#5",
          "midi": 75,
          "time": 82.61530199999986,
          "velocity": 0.6299212598425197,
          "duration": 0.6798070125000066
        },
        {
          "name": "G#5",
          "midi": 80,
          "time": 82.61530199999986,
          "velocity": 0.6299212598425197,
          "duration": 1.602883012499987
        },
        {
          "name": "C#5",
          "midi": 73,
          "time": 82.84607099999985,
          "velocity": 0.6299212598425197,
          "duration": 1.1413450124999969
        },
        {
          "name": "A#5",
          "midi": 82,
          "time": 82.84607099999985,
          "velocity": 0.6299212598425197,
          "duration": 1.1413450124999969
        },
        {
          "name": "A5",
          "midi": 81,
          "time": 82.96145549999986,
          "velocity": 0.6299212598425197,
          "duration": 0.10865373750000629
        },
        {
          "name": "D#5",
          "midi": 75,
          "time": 83.07683999999986,
          "velocity": 0.6299212598425197,
          "duration": 0.4490380124999973
        },
        {
          "name": "B5",
          "midi": 83,
          "time": 83.07683999999986,
          "velocity": 0.6299212598425197,
          "duration": 0.4490380124999973
        },
        {
          "name": "D#5",
          "midi": 75,
          "time": 83.30760899999986,
          "velocity": 0.6299212598425197,
          "duration": 0.4490380124999973
        },
        {
          "name": "B5",
          "midi": 83,
          "time": 83.30760899999986,
          "velocity": 0.6299212598425197,
          "duration": 0.4490380124999973
        },
        {
          "name": "D#5",
          "midi": 75,
          "time": 83.53837799999985,
          "velocity": 0.6299212598425197,
          "duration": 0.6798070124999924
        },
        {
          "name": "B5",
          "midi": 83,
          "time": 83.53837799999985,
          "velocity": 0.6299212598425197,
          "duration": 2.92211246250001
        },
        {
          "name": "C#5",
          "midi": 73,
          "time": 83.76914699999985,
          "velocity": 0.6299212598425197,
          "duration": 0.6798070124999924
        },
        {
          "name": "A#5",
          "midi": 82,
          "time": 83.76914699999985,
          "velocity": 0.6299212598425197,
          "duration": 0.6798070124999924
        },
        {
          "name": "D#5",
          "midi": 75,
          "time": 83.99991599999984,
          "velocity": 0.6299212598425197,
          "duration": 1.9480749750000115
        },
        {
          "name": "G#5",
          "midi": 80,
          "time": 83.99991599999984,
          "velocity": 0.6299212598425197,
          "duration": 1.1528834625000144
        },
        {
          "name": "C#5",
          "midi": 73,
          "time": 84.23068499999984,
          "velocity": 0.6299212598425197,
          "duration": 16.84517546250055
        },
        {
          "name": "A#5",
          "midi": 82,
          "time": 84.23068499999984,
          "velocity": 0.6299212598425197,
          "duration": 2.127882487500031
        },
        {
          "name": "B4",
          "midi": 71,
          "time": 84.46145399999983,
          "velocity": 0.6299212598425197,
          "duration": 0.34519196250001016
        },
        {
          "name": "G5",
          "midi": 79,
          "time": 84.46145399999983,
          "velocity": 0.6299212598425197,
          "duration": 0.11442296250000084
        },
        {
          "name": "F5",
          "midi": 77,
          "time": 84.57683849999984,
          "velocity": 0.6299212598425197,
          "duration": 0.11442296250000084
        },
        {
          "name": "B4",
          "midi": 71,
          "time": 84.69222299999984,
          "velocity": 0.6299212598425197,
          "duration": 22.615362000000687
        },
        {
          "name": "F#5",
          "midi": 78,
          "time": 84.69222299999984,
          "velocity": 0.6299212598425197,
          "duration": 1.4605754625000316
        },
        {
          "name": "G5",
          "midi": 79,
          "time": 84.80760749999985,
          "velocity": 0.6299212598425197,
          "duration": 0.10865373750000629
        },
        {
          "name": "A#4",
          "midi": 70,
          "time": 84.92299199999985,
          "velocity": 0.6299212598425197,
          "duration": 0.910576012500016
        },
        {
          "name": "G#5",
          "midi": 80,
          "time": 84.92299199999985,
          "velocity": 0.6299212598425197,
          "duration": 1.3326909750000198
        },
        {
          "name": "D5",
          "midi": 74,
          "time": 85.15376099999986,
          "velocity": 0.6299212598425197,
          "duration": 0.2182690125000022
        },
        {
          "name": "G5",
          "midi": 79,
          "time": 85.15376099999986,
          "velocity": 0.6299212598425197,
          "duration": 0.2182690125000022
        },
        {
          "name": "A#4",
          "midi": 70,
          "time": 85.61529899999987,
          "velocity": 0.6299212598425197,
          "duration": 14.999023462500503
        },
        {
          "name": "E5",
          "midi": 76,
          "time": 85.61529899999987,
          "velocity": 0.6299212598425197,
          "duration": 18.10863573750062
        },
        {
          "name": "D#5",
          "midi": 75,
          "time": 85.84606799999986,
          "velocity": 0.6299212598425197,
          "duration": 14.768254462500508
        },
        {
          "name": "F5",
          "midi": 77,
          "time": 85.94895251249986,
          "velocity": 0.6062992125984252,
          "duration": 0.10192297500000791
        },
        {
          "name": "F#5",
          "midi": 78,
          "time": 86.05087548749987,
          "velocity": 0.5748031496062992,
          "duration": 15.324984675000522
        },
        {
          "name": "G#5",
          "midi": 80,
          "time": 86.15375999999988,
          "velocity": 0.5433070866141733,
          "duration": 18.031712737500627
        },
        {
          "name": "A#5",
          "midi": 82,
          "time": 86.25664451249988,
          "velocity": 0.5118110236220472,
          "duration": 0.7423069499999997
        },
        {
          "name": "B5",
          "midi": 83,
          "time": 86.35856748749987,
          "velocity": 0.48031496062992124,
          "duration": 12.871140975000472
        },
        {
          "name": "C#6",
          "midi": 85,
          "time": 86.46145199999987,
          "velocity": 0.44881889763779526,
          "duration": 0.9990374625000271
        },
        {
          "name": "D#6",
          "midi": 87,
          "time": 86.56433651249986,
          "velocity": 0.41732283464566927,
          "duration": 0.10192297500000791
        },
        {
          "name": "F6",
          "midi": 89,
          "time": 86.66625948749987,
          "velocity": 0.3858267716535433,
          "duration": 0.09615374999999915
        },
        {
          "name": "F#6",
          "midi": 90,
          "time": 86.76914399999987,
          "velocity": 0.3858267716535433,
          "duration": 0.34519196250001016
        },
        {
          "name": "F#6",
          "midi": 90,
          "time": 86.76914399999987,
          "velocity": 0.3858267716535433,
          "duration": 0.346153500000014
        },
        {
          "name": "A#5",
          "midi": 82,
          "time": 86.88452849999987,
          "velocity": 0.3858267716535433,
          "duration": 0.4605764625000148
        },
        {
          "name": "D#6",
          "midi": 87,
          "time": 86.99991299999988,
          "velocity": 0.3858267716535433,
          "duration": 0.11442296250000084
        },
        {
          "name": "F#6",
          "midi": 90,
          "time": 87.11529749999988,
          "velocity": 0.3858267716535433,
          "duration": 0.34519196250001016
        },
        {
          "name": "F#6",
          "midi": 90,
          "time": 87.11529749999988,
          "velocity": 0.3858267716535433,
          "duration": 0.5769225000000233
        },
        {
          "name": "A#5",
          "midi": 82,
          "time": 87.23068199999989,
          "velocity": 0.3858267716535433,
          "duration": 0.4605764625000148
        },
        {
          "name": "C#6",
          "midi": 85,
          "time": 87.34606649999989,
          "velocity": 0.3858267716535433,
          "duration": 1.0374989625000381
        },
        {
          "name": "D#6",
          "midi": 87,
          "time": 87.4614509999999,
          "velocity": 0.3858267716535433,
          "duration": 0.2298074625000055
        },
        {
          "name": "D#6",
          "midi": 87,
          "time": 87.4614509999999,
          "velocity": 0.3858267716535433,
          "duration": 0.5759609625000195
        },
        {
          "name": "A#5",
          "midi": 82,
          "time": 87.5768354999999,
          "velocity": 0.3858267716535433,
          "duration": 0.34519196250001016
        },
        {
          "name": "F#6",
          "midi": 90,
          "time": 87.6922199999999,
          "velocity": 0.3858267716535433,
          "duration": 0.34519196250001016
        },
        {
          "name": "F#6",
          "midi": 90,
          "time": 87.6922199999999,
          "velocity": 0.3858267716535433,
          "duration": 0.346153500000014
        },
        {
          "name": "A#5",
          "midi": 82,
          "time": 87.80760449999991,
          "velocity": 0.3858267716535433,
          "duration": 0.4605764625000148
        },
        {
          "name": "D#6",
          "midi": 87,
          "time": 87.92298899999992,
          "velocity": 0.3858267716535433,
          "duration": 0.46153800000001866
        },
        {
          "name": "F#6",
          "midi": 90,
          "time": 88.03837349999992,
          "velocity": 0.3858267716535433,
          "duration": 0.34519196250001016
        },
        {
          "name": "F#6",
          "midi": 90,
          "time": 88.03837349999992,
          "velocity": 0.3858267716535433,
          "duration": 2.768266462500094
        },
        {
          "name": "A#5",
          "midi": 82,
          "time": 88.15375799999993,
          "velocity": 0.3858267716535433,
          "duration": 0.4605764625000148
        },
        {
          "name": "C#6",
          "midi": 85,
          "time": 88.26914249999993,
          "velocity": 0.3858267716535433,
          "duration": 0.6913454625000242
        },
        {
          "name": "D#6",
          "midi": 87,
          "time": 88.38452699999993,
          "velocity": 0.3858267716535433,
          "duration": 0.2298074625000055
        },
        {
          "name": "D#6",
          "midi": 87,
          "time": 88.38452699999993,
          "velocity": 0.3858267716535433,
          "duration": 3.691342462500131
        },
        {
          "name": "A#5",
          "midi": 82,
          "time": 88.49991149999994,
          "velocity": 0.3858267716535433,
          "duration": 0.34519196250001016
        },
        {
          "name": "F6",
          "midi": 89,
          "time": 88.61529599999994,
          "velocity": 0.3858267716535433,
          "duration": 0.34519196250001016
        },
        {
          "name": "F6",
          "midi": 89,
          "time": 88.61529599999994,
          "velocity": 0.3858267716535433,
          "duration": 0.346153500000014
        },
        {
          "name": "A#5",
          "midi": 82,
          "time": 88.73068049999995,
          "velocity": 0.3858267716535433,
          "duration": 0.5759609625000195
        },
        {
          "name": "C#6",
          "midi": 85,
          "time": 88.84606499999995,
          "velocity": 0.3858267716535433,
          "duration": 0.46153800000001866
        },
        {
          "name": "F6",
          "midi": 89,
          "time": 88.96144949999996,
          "velocity": 0.3858267716535433,
          "duration": 0.34519196250001016
        },
        {
          "name": "F6",
          "midi": 89,
          "time": 88.96144949999996,
          "velocity": 0.3858267716535433,
          "duration": 6.575954962500262
        },
        {
          "name": "F5",
          "midi": 77,
          "time": 89.07683399999996,
          "velocity": 0.3858267716535433,
          "duration": 0.11442296250000084
        },
        {
          "name": "A#5",
          "midi": 82,
          "time": 89.19221849999997,
          "velocity": 0.3858267716535433,
          "duration": 0.6913454625000242
        },
        {
          "name": "C#6",
          "midi": 85,
          "time": 89.30760299999997,
          "velocity": 0.3858267716535433,
          "duration": 0.2298074625000055
        },
        {
          "name": "C#6",
          "midi": 85,
          "time": 89.30760299999997,
          "velocity": 0.3858267716535433,
          "duration": 0.23076900000000933
        },
        {
          "name": "F5",
          "midi": 77,
          "time": 89.42298749999998,
          "velocity": 0.3858267716535433,
          "duration": 0.11442296250000084
        },
        {
          "name": "C#6",
          "midi": 85,
          "time": 89.53837199999998,
          "velocity": 0.3858267716535433,
          "duration": 0.34519196250001016
        },
        {
          "name": "C#6",
          "midi": 85,
          "time": 89.53837199999998,
          "velocity": 0.3858267716535433,
          "duration": 0.346153500000014
        },
        {
          "name": "F5",
          "midi": 77,
          "time": 89.65375649999999,
          "velocity": 0.3858267716535433,
          "duration": 0.11442296250000084
        },
        {
          "name": "A#5",
          "midi": 82,
          "time": 89.76914099999999,
          "velocity": 0.3858267716535433,
          "duration": 0.4605764625000148
        },
        {
          "name": "C#6",
          "midi": 85,
          "time": 89.8845255,
          "velocity": 0.3858267716535433,
          "duration": 0.34519196250001016
        },
        {
          "name": "C#6",
          "midi": 85,
          "time": 89.8845255,
          "velocity": 0.3858267716535433,
          "duration": 0.346153500000014
        },
        {
          "name": "F5",
          "midi": 77,
          "time": 89.99991,
          "velocity": 0.3858267716535433,
          "duration": 0.11442296250000084
        },
        {
          "name": "A#5",
          "midi": 82,
          "time": 90.1152945,
          "velocity": 0.3858267716535433,
          "duration": 0.3394227375000014
        },
        {
          "name": "C#6",
          "midi": 85,
          "time": 90.23067900000001,
          "velocity": 0.3858267716535433,
          "duration": 0.2182690125000022
        },
        {
          "name": "C#6",
          "midi": 85,
          "time": 90.23067900000001,
          "velocity": 0.3858267716535433,
          "duration": 0.4605764625000006
        },
        {
          "name": "A#5",
          "midi": 82,
          "time": 90.34606350000001,
          "velocity": 0.3858267716535433,
          "duration": 5.88364796250022
        },
        {
          "name": "G#6",
          "midi": 92,
          "time": 90.461448,
          "velocity": 0.3858267716535433,
          "duration": 0.34519196250001016
        },
        {
          "name": "G#6",
          "midi": 92,
          "time": 90.461448,
          "velocity": 0.3858267716535433,
          "duration": 1.2692295000000513
        },
        {
          "name": "C#6",
          "midi": 85,
          "time": 90.57683250000001,
          "velocity": 0.3858267716535433,
          "duration": 0.4605764625000148
        },
        {
          "name": "F#6",
          "midi": 90,
          "time": 90.69221700000001,
          "velocity": 0.3858267716535433,
          "duration": 0.4605764625000148
        },
        {
          "name": "A#6",
          "midi": 94,
          "time": 90.80760150000002,
          "velocity": 0.3858267716535433,
          "duration": 0.34519196250001016
        },
        {
          "name": "A#6",
          "midi": 94,
          "time": 90.80760150000002,
          "velocity": 0.3858267716535433,
          "duration": 0.346153500000014
        },
        {
          "name": "C#6",
          "midi": 85,
          "time": 90.92298600000002,
          "velocity": 0.3858267716535433,
          "duration": 0.4605764625000148
        },
        {
          "name": "F#6",
          "midi": 90,
          "time": 91.03837050000003,
          "velocity": 0.3858267716535433,
          "duration": 0.6913454625000242
        },
        {
          "name": "A#6",
          "midi": 94,
          "time": 91.15375500000003,
          "velocity": 0.3858267716535433,
          "duration": 0.2298074625000055
        },
        {
          "name": "A#6",
          "midi": 94,
          "time": 91.15375500000003,
          "velocity": 0.3858267716535433,
          "duration": 0.23076900000000933
        },
        {
          "name": "C#6",
          "midi": 85,
          "time": 91.26913950000004,
          "velocity": 0.3858267716535433,
          "duration": 0.34519196250001016
        },
        {
          "name": "A#6",
          "midi": 94,
          "time": 91.38452400000004,
          "velocity": 0.3858267716535433,
          "duration": 0.34519196250001016
        },
        {
          "name": "A#6",
          "midi": 94,
          "time": 91.38452400000004,
          "velocity": 0.3858267716535433,
          "duration": 1.8461520000000746
        },
        {
          "name": "C#6",
          "midi": 85,
          "time": 91.49990850000005,
          "velocity": 0.3858267716535433,
          "duration": 0.4605764625000148
        },
        {
          "name": "F#6",
          "midi": 90,
          "time": 91.61529300000005,
          "velocity": 0.3858267716535433,
          "duration": 0.46153800000001866
        },
        {
          "name": "G#6",
          "midi": 92,
          "time": 91.73067750000006,
          "velocity": 0.3858267716535433,
          "duration": 0.34519196250001016
        },
        {
          "name": "G#6",
          "midi": 92,
          "time": 91.73067750000006,
          "velocity": 0.3858267716535433,
          "duration": 1.73076750000007
        },
        {
          "name": "C#6",
          "midi": 85,
          "time": 91.84606200000006,
          "velocity": 0.3858267716535433,
          "duration": 0.4605764625000148
        },
        {
          "name": "D#6",
          "midi": 87,
          "time": 91.96144650000006,
          "velocity": 0.3858267716535433,
          "duration": 0.5759609625000195
        },
        {
          "name": "F#6",
          "midi": 90,
          "time": 92.07683100000007,
          "velocity": 0.3858267716535433,
          "duration": 0.2298074625000055
        },
        {
          "name": "F#6",
          "midi": 90,
          "time": 92.07683100000007,
          "velocity": 0.3858267716535433,
          "duration": 0.5759609625000195
        },
        {
          "name": "C#6",
          "midi": 85,
          "time": 92.19221550000007,
          "velocity": 0.3858267716535433,
          "duration": 3.9105730125001656
        },
        {
          "name": "B6",
          "midi": 95,
          "time": 92.30760000000008,
          "velocity": 0.3858267716535433,
          "duration": 0.34519196250001016
        },
        {
          "name": "B6",
          "midi": 95,
          "time": 92.30760000000008,
          "velocity": 0.3858267716535433,
          "duration": 0.346153500000014
        },
        {
          "name": "D#6",
          "midi": 87,
          "time": 92.42298450000008,
          "velocity": 0.3858267716535433,
          "duration": 0.4605764625000148
        },
        {
          "name": "F#6",
          "midi": 90,
          "time": 92.53836900000009,
          "velocity": 0.3858267716535433,
          "duration": 0.4605764625000148
        },
        {
          "name": "B6",
          "midi": 95,
          "time": 92.6537535000001,
          "velocity": 0.3858267716535433,
          "duration": 0.34519196250001016
        },
        {
          "name": "B6",
          "midi": 95,
          "time": 92.6537535000001,
          "velocity": 0.3858267716535433,
          "duration": 0.346153500000014
        },
        {
          "name": "D#6",
          "midi": 87,
          "time": 92.7691380000001,
          "velocity": 0.3858267716535433,
          "duration": 0.4605764625000148
        },
        {
          "name": "F#6",
          "midi": 90,
          "time": 92.8845225000001,
          "velocity": 0.3858267716535433,
          "duration": 0.9221144625000477
        },
        {
          "name": "B6",
          "midi": 95,
          "time": 92.9999070000001,
          "velocity": 0.3858267716535433,
          "duration": 0.2298074625000055
        },
        {
          "name": "B6",
          "midi": 95,
          "time": 92.9999070000001,
          "velocity": 0.3858267716535433,
          "duration": 1.0374989625000524
        },
        {
          "name": "D#6",
          "midi": 87,
          "time": 93.11529150000011,
          "velocity": 0.3858267716535433,
          "duration": 0.34519196250001016
        },
        {
          "name": "A#6",
          "midi": 94,
          "time": 93.23067600000012,
          "velocity": 0.3858267716535433,
          "duration": 0.2298074625000055
        },
        {
          "name": "A#6",
          "midi": 94,
          "time": 93.23067600000012,
          "velocity": 0.3858267716535433,
          "duration": 0.6913454625000384
        },
        {
          "name": "D#6",
          "midi": 87,
          "time": 93.34606050000012,
          "velocity": 0.3937007874015748,
          "duration": 0.3451919625000244
        },
        {
          "name": "G#6",
          "midi": 92,
          "time": 93.46144500000013,
          "velocity": 0.4094488188976378,
          "duration": 0.2298074625000197
        },
        {
          "name": "G#6",
          "midi": 92,
          "time": 93.46144500000013,
          "velocity": 0.4094488188976378,
          "duration": 1.6144214625000757
        },
        {
          "name": "D#6",
          "midi": 87,
          "time": 93.57682950000013,
          "velocity": 0.4251968503937008,
          "duration": 2.0759594625000943
        },
        {
          "name": "F#6",
          "midi": 90,
          "time": 93.69221400000015,
          "velocity": 0.4409448818897638,
          "duration": 1.4990369625000568
        },
        {
          "name": "A#6",
          "midi": 94,
          "time": 93.80759850000015,
          "velocity": 0.4566929133858268,
          "duration": 0.9221144625000335
        },
        {
          "name": "B6",
          "midi": 95,
          "time": 93.92298300000016,
          "velocity": 0.47244094488188976,
          "duration": 0
        },
        {
          "name": "C#7",
          "midi": 97,
          "time": 94.03836750000016,
          "velocity": 0.4881889763779528,
          "duration": 0.10865373750000629
        },
        {
          "name": "D#7",
          "midi": 99,
          "time": 94.15375200000017,
          "velocity": 0.5039370078740157,
          "duration": 0.11442296250000084
        },
        {
          "name": "F#7",
          "midi": 102,
          "time": 94.26913650000017,
          "velocity": 0.5039370078740157,
          "duration": 0.11442296250000084
        },
        {
          "name": "D#7",
          "midi": 99,
          "time": 94.38452100000018,
          "velocity": 0.5039370078740157,
          "duration": 0.11442296250000084
        },
        {
          "name": "C#7",
          "midi": 97,
          "time": 94.49990550000018,
          "velocity": 0.5039370078740157,
          "duration": 0.11442296250000084
        },
        {
          "name": "A#6",
          "midi": 94,
          "time": 94.61529000000019,
          "velocity": 0.5039370078740157,
          "duration": 0.34519196250001016
        },
        {
          "name": "D#7",
          "midi": 99,
          "time": 94.73067450000019,
          "velocity": 0.5039370078740157,
          "duration": 0.11442296250000084
        },
        {
          "name": "A#6",
          "midi": 94,
          "time": 94.8460590000002,
          "velocity": 0.5039370078740157,
          "duration": 0.4605764625000148
        },
        {
          "name": "G#6",
          "midi": 92,
          "time": 94.9614435000002,
          "velocity": 0.5039370078740157,
          "duration": 1.9605749625000612
        },
        {
          "name": "F#6",
          "midi": 90,
          "time": 95.0768280000002,
          "velocity": 0.5039370078740157,
          "duration": 0.34519196250001016
        },
        {
          "name": "A#6",
          "midi": 94,
          "time": 95.19221250000021,
          "velocity": 0.5039370078740157,
          "duration": 1.8451904625000566
        },
        {
          "name": "F#6",
          "midi": 90,
          "time": 95.30759700000021,
          "velocity": 0.5039370078740157,
          "duration": 0.4605764625000148
        },
        {
          "name": "F6",
          "midi": 89,
          "time": 95.42298150000022,
          "velocity": 0.5039370078740157,
          "duration": 1.1528834625000286
        },
        {
          "name": "D#6",
          "midi": 87,
          "time": 95.53836600000022,
          "velocity": 0.5039370078740157,
          "duration": 0.34519196250001016
        },
        {
          "name": "F#6",
          "midi": 90,
          "time": 95.65375050000023,
          "velocity": 0.5039370078740157,
          "duration": 2.7682664625000797
        },
        {
          "name": "D#6",
          "midi": 87,
          "time": 95.76913500000023,
          "velocity": 0.5039370078740157,
          "duration": 0.6913454625000099
        },
        {
          "name": "C#6",
          "midi": 85,
          "time": 95.88451950000024,
          "velocity": 0.5039370078740157,
          "duration": 0.4605764625000006
        },
        {
          "name": "F5",
          "midi": 77,
          "time": 95.99990400000024,
          "velocity": 0.5039370078740157,
          "duration": 0.3461534999999998
        },
        {
          "name": "A#5",
          "midi": 82,
          "time": 96.11528850000023,
          "velocity": 0.5039370078740157,
          "duration": 5.414417662500156
        },
        {
          "name": "C#6",
          "midi": 85,
          "time": 96.23067300000024,
          "velocity": 0.5039370078740157,
          "duration": 0.4605764625000148
        },
        {
          "name": "D#6",
          "midi": 87,
          "time": 96.34605750000024,
          "velocity": 0.5039370078740157,
          "duration": 2.42211296250008
        },
        {
          "name": "F6",
          "midi": 89,
          "time": 96.46144200000025,
          "velocity": 0.5039370078740157,
          "duration": 0.34519196250001016
        },
        {
          "name": "C#6",
          "midi": 85,
          "time": 96.57682650000025,
          "velocity": 0.5039370078740157,
          "duration": 2.3067284625000752
        },
        {
          "name": "F6",
          "midi": 89,
          "time": 96.69221100000026,
          "velocity": 0.5039370078740157,
          "duration": 0.4605764625000148
        },
        {
          "name": "G#6",
          "midi": 92,
          "time": 96.80759550000026,
          "velocity": 0.5039370078740157,
          "duration": 0.4605764625000148
        },
        {
          "name": "A#6",
          "midi": 94,
          "time": 96.92298000000027,
          "velocity": 0.5039370078740157,
          "duration": 0.4605764625000148
        },
        {
          "name": "F6",
          "midi": 89,
          "time": 97.03836450000027,
          "velocity": 0.5039370078740157,
          "duration": 2.5374974625000846
        },
        {
          "name": "G#6",
          "midi": 92,
          "time": 97.15374900000027,
          "velocity": 0.5039370078740157,
          "duration": 1.1528834625000286
        },
        {
          "name": "A#6",
          "midi": 94,
          "time": 97.26913350000028,
          "velocity": 0.5039370078740157,
          "duration": 0.34519196250001016
        },
        {
          "name": "C#7",
          "midi": 97,
          "time": 97.38451800000028,
          "velocity": 0.5039370078740157,
          "duration": 0.11442296250000084
        },
        {
          "name": "A#6",
          "midi": 94,
          "time": 97.49990250000029,
          "velocity": 0.5039370078740157,
          "duration": 0.4490380125000115
        },
        {
          "name": "C#7",
          "midi": 97,
          "time": 97.6152870000003,
          "velocity": 0.5039370078740157,
          "duration": 0.11442296250000084
        },
        {
          "name": "A#6",
          "midi": 94,
          "time": 97.7306715000003,
          "velocity": 0.5039370078740157,
          "duration": 0.4605764625000006
        },
        {
          "name": "C#7",
          "midi": 97,
          "time": 97.9614405000003,
          "velocity": 0.5039370078740157,
          "duration": 0.11442296250000084
        },
        {
          "name": "A#6",
          "midi": 94,
          "time": 98.0768250000003,
          "velocity": 0.5039370078740157,
          "duration": 0.4605764625000148
        },
        {
          "name": "G#6",
          "midi": 92,
          "time": 98.1922095000003,
          "velocity": 0.5039370078740157,
          "duration": 43.954763737500514
        },
        {
          "name": "F#6",
          "midi": 90,
          "time": 98.30759400000031,
          "velocity": 0.5039370078740157,
          "duration": 0.34519196250001016
        },
        {
          "name": "A#6",
          "midi": 94,
          "time": 98.42297850000031,
          "velocity": 0.5039370078740157,
          "duration": 43.96053296250051
        },
        {
          "name": "F#6",
          "midi": 90,
          "time": 98.53836300000032,
          "velocity": 0.5039370078740157,
          "duration": 0.4605764625000148
        },
        {
          "name": "D#6",
          "midi": 87,
          "time": 98.65374750000032,
          "velocity": 0.5039370078740157,
          "duration": 0.8067299625000288
        },
        {
          "name": "C#6",
          "midi": 85,
          "time": 98.76913200000033,
          "velocity": 0.5039370078740157,
          "duration": 0.34519196250001016
        },
        {
          "name": "F#6",
          "midi": 90,
          "time": 98.88451650000033,
          "velocity": 0.5039370078740157,
          "duration": 0.8009607375000343
        },
        {
          "name": "C#6",
          "midi": 85,
          "time": 98.99990100000034,
          "velocity": 0.5039370078740157,
          "duration": 0.34519196250001016
        },
        {
          "name": "B5",
          "midi": 83,
          "time": 99.11528550000034,
          "velocity": 0.5039370078740157,
          "duration": 11.076912000000263
        },
        {
          "name": "C#6",
          "midi": 85,
          "time": 99.23067000000034,
          "velocity": 0.5039370078740157,
          "duration": 2.8778817375000756
        },
        {
          "name": "D#6",
          "midi": 87,
          "time": 99.34605450000035,
          "velocity": 0.5039370078740157,
          "duration": 2.4221129625000515
        },
        {
          "name": "F6",
          "midi": 89,
          "time": 99.46143900000035,
          "velocity": 0.5039370078740157,
          "duration": 17.300944237500403
        },
        {
          "name": "F#6",
          "midi": 90,
          "time": 99.57682350000036,
          "velocity": 0.5039370078740157,
          "duration": 2.416343737500057
        },
        {
          "name": "A#4",
          "midi": 70,
          "time": 100.15374600000037,
          "velocity": 0.5039370078740157,
          "duration": 0.6913454625000099
        },
        {
          "name": "D#5",
          "midi": 75,
          "time": 100.15374600000037,
          "velocity": 0.5039370078740157,
          "duration": 0.6913454625000099
        },
        {
          "name": "A#4",
          "midi": 70,
          "time": 100.61528400000037,
          "velocity": 0.5039370078740157,
          "duration": 0.4605764625000148
        },
        {
          "name": "D#5",
          "midi": 75,
          "time": 100.61528400000037,
          "velocity": 0.5039370078740157,
          "duration": 0.9221144625000193
        },
        {
          "name": "A#4",
          "midi": 70,
          "time": 100.84605300000038,
          "velocity": 0.5039370078740157,
          "duration": 0.3759611625000048
        },
        {
          "name": "C#5",
          "midi": 73,
          "time": 100.84605300000038,
          "velocity": 0.5039370078740157,
          "duration": 2.185574737500076
        },
        {
          "name": "D#5",
          "midi": 75,
          "time": 101.07682200000039,
          "velocity": 0.5039370078740157,
          "duration": 0.6913454625000099
        },
        {
          "name": "A#4",
          "midi": 70,
          "time": 101.07682200000039,
          "velocity": 0.5039370078740157,
          "duration": 2.185574737500076
        },
        {
          "name": "F#5",
          "midi": 78,
          "time": 101.23066800000039,
          "velocity": 0.5039370078740157,
          "duration": 1.3394217375000466
        },
        {
          "name": "A#5",
          "midi": 82,
          "time": 101.3845140000004,
          "velocity": 0.5039370078740157,
          "duration": 0.9548067375000358
        },
        {
          "name": "D#5",
          "midi": 75,
          "time": 101.5383600000004,
          "velocity": 0.6299212598425197,
          "duration": 1.262498737500053
        },
        {
          "name": "D#6",
          "midi": 87,
          "time": 101.5383600000004,
          "velocity": 0.6299212598425197,
          "duration": 0.3394227375000156
        },
        {
          "name": "D#6",
          "midi": 87,
          "time": 101.7691290000004,
          "velocity": 0.6299212598425197,
          "duration": 0.4548072375000203
        },
        {
          "name": "F#6",
          "midi": 90,
          "time": 101.88451350000041,
          "velocity": 0.6299212598425197,
          "duration": 14.884600500000346
        },
        {
          "name": "C#6",
          "midi": 85,
          "time": 101.99989800000041,
          "velocity": 0.6299212598425197,
          "duration": 0.4548072375000203
        },
        {
          "name": "D#6",
          "midi": 87,
          "time": 102.11528250000042,
          "velocity": 0.6299212598425197,
          "duration": 7.24518506250017
        },
        {
          "name": "A#5",
          "midi": 82,
          "time": 102.23066700000042,
          "velocity": 0.6299212598425197,
          "duration": 0.4548072375000203
        },
        {
          "name": "C#6",
          "midi": 85,
          "time": 102.34605150000043,
          "velocity": 0.6299212598425197,
          "duration": 6.570185737500168
        },
        {
          "name": "F#5",
          "midi": 78,
          "time": 102.46143600000043,
          "velocity": 0.6299212598425197,
          "duration": 0.4548072375000203
        },
        {
          "name": "A#5",
          "midi": 82,
          "time": 102.57682050000044,
          "velocity": 0.6299212598425197,
          "duration": 2.653843500000079
        },
        {
          "name": "D#5",
          "midi": 75,
          "time": 102.69220500000044,
          "velocity": 0.6299212598425197,
          "duration": 0.4548072375000203
        },
        {
          "name": "F#5",
          "midi": 78,
          "time": 102.80758950000045,
          "velocity": 0.6299212598425197,
          "duration": 1.1471142375000483
        },
        {
          "name": "C#5",
          "midi": 73,
          "time": 102.92297400000045,
          "velocity": 0.6299212598425197,
          "duration": 0.4548072375000203
        },
        {
          "name": "D#5",
          "midi": 75,
          "time": 103.03835850000046,
          "velocity": 0.6299212598425197,
          "duration": 0.5701917375000249
        },
        {
          "name": "A#4",
          "midi": 70,
          "time": 103.15374300000046,
          "velocity": 0.6299212598425197,
          "duration": 5.070187237500107
        },
        {
          "name": "C#5",
          "midi": 73,
          "time": 103.26912750000047,
          "velocity": 0.6299212598425197,
          "duration": 1.3778832375000576
        },
        {
          "name": "D5",
          "midi": 74,
          "time": 103.38451200000047,
          "velocity": 0.6299212598425197,
          "duration": 0.10865373750000629
        },
        {
          "name": "D#5",
          "midi": 75,
          "time": 103.49989650000047,
          "velocity": 0.6299212598425197,
          "duration": 1.0317297375000436
        },
        {
          "name": "E5",
          "midi": 76,
          "time": 103.61528100000048,
          "velocity": 0.6299212598425197,
          "duration": 3.4615350000000404
        },
        {
          "name": "F5",
          "midi": 77,
          "time": 103.73066550000048,
          "velocity": 0.6299212598425197,
          "duration": 0.10865373750000629
        },
        {
          "name": "F#5",
          "midi": 78,
          "time": 103.84605000000049,
          "velocity": 0.6299212598425197,
          "duration": 1.846152000000032
        },
        {
          "name": "G5",
          "midi": 79,
          "time": 103.9614345000005,
          "velocity": 0.6299212598425197,
          "duration": 0.10865373750000629
        },
        {
          "name": "G#5",
          "midi": 80,
          "time": 104.0768190000005,
          "velocity": 0.6299212598425197,
          "duration": 0.23076900000000933
        },
        {
          "name": "G5",
          "midi": 79,
          "time": 104.1922035000005,
          "velocity": 0.6299212598425197,
          "duration": 0.10865373750000629
        },
        {
          "name": "G#5",
          "midi": 80,
          "time": 104.30758800000051,
          "velocity": 0.6299212598425197,
          "duration": 0.4374995625000082
        },
        {
          "name": "G#5",
          "midi": 80,
          "time": 104.30758800000051,
          "velocity": 0.6299212598425197,
          "duration": 0.46153800000000444
        },
        {
          "name": "D#5",
          "midi": 75,
          "time": 104.42297250000051,
          "velocity": 0.6299212598425197,
          "duration": 0.3394227375000014
        },
        {
          "name": "C#5",
          "midi": 73,
          "time": 104.53835700000052,
          "velocity": 0.6299212598425197,
          "duration": 0.5701917375000107
        },
        {
          "name": "D#5",
          "midi": 75,
          "time": 104.65374150000052,
          "velocity": 0.6299212598425197,
          "duration": 0.3394227375000014
        },
        {
          "name": "G#5",
          "midi": 80,
          "time": 104.76912600000051,
          "velocity": 0.6299212598425197,
          "duration": 0.4374995625000082
        },
        {
          "name": "G#5",
          "midi": 80,
          "time": 104.76912600000051,
          "velocity": 0.6299212598425197,
          "duration": 5.999994000000086
        },
        {
          "name": "D#5",
          "midi": 75,
          "time": 104.88451050000052,
          "velocity": 0.6299212598425197,
          "duration": 0.3394227375000014
        },
        {
          "name": "C#5",
          "midi": 73,
          "time": 104.99989500000052,
          "velocity": 0.6299212598425197,
          "duration": 0.5701917375000107
        },
        {
          "name": "D#5",
          "midi": 75,
          "time": 105.11527950000053,
          "velocity": 0.6299212598425197,
          "duration": 0.3394227375000014
        },
        {
          "name": "A#5",
          "midi": 82,
          "time": 105.23066400000052,
          "velocity": 0.6299212598425197,
          "duration": 0.4374995625000082
        },
        {
          "name": "A#5",
          "midi": 82,
          "time": 105.23066400000052,
          "velocity": 0.6299212598425197,
          "duration": 3.570188737500075
        },
        {
          "name": "D#5",
          "midi": 75,
          "time": 105.34604850000052,
          "velocity": 0.6299212598425197,
          "duration": 0.3394227375000014
        },
        {
          "name": "C#5",
          "midi": 73,
          "time": 105.46143300000053,
          "velocity": 0.6299212598425197,
          "duration": 0.685576237499987
        },
        {
          "name": "D#5",
          "midi": 75,
          "time": 105.57681750000053,
          "velocity": 0.6299212598425197,
          "duration": 0.3394227374999872
        },
        {
          "name": "F#5",
          "midi": 78,
          "time": 105.69220200000052,
          "velocity": 0.6299212598425197,
          "duration": 0.2182690125000022
        },
        {
          "name": "F#5",
          "midi": 78,
          "time": 105.69220200000052,
          "velocity": 0.6299212598425197,
          "duration": 2.993266237500066
        },
        {
          "name": "D#5",
          "midi": 75,
          "time": 105.80758650000053,
          "velocity": 0.6299212598425197,
          "duration": 0.34615349999998557
        },
        {
          "name": "F5",
          "midi": 77,
          "time": 105.92297100000052,
          "velocity": 0.6299212598425197,
          "duration": 0.2182690125000022
        },
        {
          "name": "F5",
          "midi": 77,
          "time": 105.92297100000052,
          "velocity": 0.6299212598425197,
          "duration": 1.1471142375000056
        },
        {
          "name": "C#5",
          "midi": 73,
          "time": 106.03835550000052,
          "velocity": 0.6299212598425197,
          "duration": 0.45480723750000607
        },
        {
          "name": "D#5",
          "midi": 75,
          "time": 106.15374000000051,
          "velocity": 0.6299212598425197,
          "duration": 0.4374995625000082
        },
        {
          "name": "D#5",
          "midi": 75,
          "time": 106.15374000000051,
          "velocity": 0.6299212598425197,
          "duration": 0.46153800000000444
        },
        {
          "name": "C5",
          "midi": 72,
          "time": 106.26912450000052,
          "velocity": 0.6299212598425197,
          "duration": 0.10865373750000629
        },
        {
          "name": "C#5",
          "midi": 73,
          "time": 106.38450900000052,
          "velocity": 0.6299212598425197,
          "duration": 0.9163452375000105
        },
        {
          "name": "D5",
          "midi": 74,
          "time": 106.49989350000052,
          "velocity": 0.6299212598425197,
          "duration": 0.10865373749999208
        },
        {
          "name": "D#5",
          "midi": 75,
          "time": 106.61527800000052,
          "velocity": 0.6299212598425197,
          "duration": 0.23076900000000933
        },
        {
          "name": "D#5",
          "midi": 75,
          "time": 106.61527800000052,
          "velocity": 0.6299212598425197,
          "duration": 0.4374995625000082
        },
        {
          "name": "D5",
          "midi": 74,
          "time": 106.73066250000052,
          "velocity": 0.6299212598425197,
          "duration": 0.10865373750000629
        },
        {
          "name": "D#5",
          "midi": 75,
          "time": 106.84604700000052,
          "velocity": 0.6299212598425197,
          "duration": 1.1538450000000324
        },
        {
          "name": "F5",
          "midi": 77,
          "time": 106.96143150000053,
          "velocity": 0.6299212598425197,
          "duration": 0.8009607375000201
        },
        {
          "name": "E5",
          "midi": 76,
          "time": 107.07681600000052,
          "velocity": 0.6299212598425197,
          "duration": 0.2298074625000055
        },
        {
          "name": "E5",
          "midi": 76,
          "time": 107.07681600000052,
          "velocity": 0.6299212598425197,
          "duration": 0.46153800000001866
        },
        {
          "name": "C#5",
          "midi": 73,
          "time": 107.19220050000052,
          "velocity": 0.6299212598425197,
          "duration": 0.3394227375000156
        },
        {
          "name": "B4",
          "midi": 71,
          "time": 107.30758500000053,
          "velocity": 0.6299212598425197,
          "duration": 0.2298074625000055
        },
        {
          "name": "B4",
          "midi": 71,
          "time": 107.30758500000053,
          "velocity": 0.6299212598425197,
          "duration": 3.916342237500075
        },
        {
          "name": "C#5",
          "midi": 73,
          "time": 107.42296950000053,
          "velocity": 0.6299212598425197,
          "duration": 0.8076915000000326
        },
        {
          "name": "E5",
          "midi": 76,
          "time": 107.53835400000054,
          "velocity": 0.6299212598425197,
          "duration": 0.23076900000000933
        },
        {
          "name": "E5",
          "midi": 76,
          "time": 107.53835400000054,
          "velocity": 0.6299212598425197,
          "duration": 0.4605764625000148
        },
        {
          "name": "F5",
          "midi": 77,
          "time": 107.65373850000054,
          "velocity": 0.6299212598425197,
          "duration": 4.493264737500084
        },
        {
          "name": "E5",
          "midi": 76,
          "time": 107.76912300000055,
          "velocity": 0.6299212598425197,
          "duration": 3.3394197375000516
        },
        {
          "name": "D5",
          "midi": 74,
          "time": 107.88450750000055,
          "velocity": 0.6299212598425197,
          "duration": 0.10865373750000629
        },
        {
          "name": "D#5",
          "midi": 75,
          "time": 107.99989200000056,
          "velocity": 0.6299212598425197,
          "duration": 0.2298074625000055
        },
        {
          "name": "D#5",
          "midi": 75,
          "time": 107.99989200000056,
          "velocity": 0.6299212598425197,
          "duration": 0.46153800000001866
        },
        {
          "name": "A#4",
          "midi": 70,
          "time": 108.11527650000056,
          "velocity": 0.6299212598425197,
          "duration": 0.3394227375000156
        },
        {
          "name": "C#5",
          "midi": 73,
          "time": 108.23066100000057,
          "velocity": 0.6299212598425197,
          "duration": 0.2298074625000055
        },
        {
          "name": "C#5",
          "midi": 73,
          "time": 108.23066100000057,
          "velocity": 0.6299212598425197,
          "duration": 5.7624942375000785
        },
        {
          "name": "A#4",
          "midi": 70,
          "time": 108.34604550000057,
          "velocity": 0.6299212598425197,
          "duration": 6.570185737500111
        },
        {
          "name": "D#5",
          "midi": 75,
          "time": 108.46143000000058,
          "velocity": 0.6299212598425197,
          "duration": 0.4605764625000148
        },
        {
          "name": "D#5",
          "midi": 75,
          "time": 108.46143000000058,
          "velocity": 0.6299212598425197,
          "duration": 0.6923070000000138
        },
        {
          "name": "F#5",
          "midi": 78,
          "time": 108.57681450000058,
          "velocity": 0.6299212598425197,
          "duration": 0.8009607375000058
        },
        {
          "name": "A#5",
          "midi": 82,
          "time": 108.69219900000058,
          "velocity": 0.6299212598425197,
          "duration": 0.8009607375000058
        },
        {
          "name": "C#6",
          "midi": 85,
          "time": 108.80758350000059,
          "velocity": 0.6299212598425197,
          "duration": 0.8009607375000058
        },
        {
          "name": "D#5",
          "midi": 75,
          "time": 108.9229680000006,
          "velocity": 0.6299212598425197,
          "duration": 0.437499562499994
        },
        {
          "name": "D#6",
          "midi": 87,
          "time": 108.9229680000006,
          "velocity": 0.6299212598425197,
          "duration": 0.6923069999999996
        },
        {
          "name": "D#5",
          "midi": 75,
          "time": 109.15373700000059,
          "velocity": 0.6299212598425197,
          "duration": 1.60865223750001
        },
        {
          "name": "F#5",
          "midi": 78,
          "time": 109.2691215000006,
          "velocity": 0.6299212598425197,
          "duration": 1.2624987375000103
        },
        {
          "name": "A#5",
          "midi": 82,
          "time": 109.38450600000058,
          "velocity": 0.6299212598425197,
          "duration": 0.6855762375000154
        },
        {
          "name": "C#6",
          "midi": 85,
          "time": 109.49989050000059,
          "velocity": 0.6299212598425197,
          "duration": 0.346153500000014
        },
        {
          "name": "D#6",
          "midi": 87,
          "time": 109.6152750000006,
          "velocity": 0.6299212598425197,
          "duration": 0.10865373750000629
        },
        {
          "name": "D#6",
          "midi": 87,
          "time": 109.6152750000006,
          "velocity": 0.6299212598425197,
          "duration": 6.800954737500149
        },
        {
          "name": "D6",
          "midi": 86,
          "time": 109.7306595000006,
          "velocity": 0.6299212598425197,
          "duration": 0.10865373750000629
        },
        {
          "name": "D6",
          "midi": 86,
          "time": 109.7306595000006,
          "velocity": 0.6299212598425197,
          "duration": 7.724030737500172
        },
        {
          "name": "C#6",
          "midi": 85,
          "time": 109.8460440000006,
          "velocity": 0.6299212598425197,
          "duration": 0.2182690125000022
        },
        {
          "name": "C#6",
          "midi": 85,
          "time": 109.8460440000006,
          "velocity": 0.6299212598425197,
          "duration": 6.454801237500135
        },
        {
          "name": "A#5",
          "midi": 82,
          "time": 109.96142850000061,
          "velocity": 0.6299212598425197,
          "duration": 0.3461534999999998
        },
        {
          "name": "C6",
          "midi": 84,
          "time": 110.0768130000006,
          "velocity": 0.6299212598425197,
          "duration": 0.10865373750000629
        },
        {
          "name": "C6",
          "midi": 84,
          "time": 110.0768130000006,
          "velocity": 0.6299212598425197,
          "duration": 7.147108237500177
        },
        {
          "name": "B5",
          "midi": 83,
          "time": 110.1921975000006,
          "velocity": 0.6299212598425197,
          "duration": 0.10865373750000629
        },
        {
          "name": "B5",
          "midi": 83,
          "time": 110.1921975000006,
          "velocity": 0.6299212598425197,
          "duration": 8.300953237500181
        },
        {
          "name": "A#5",
          "midi": 82,
          "time": 110.30758200000061,
          "velocity": 0.6299212598425197,
          "duration": 0.2182690125000022
        },
        {
          "name": "A#5",
          "midi": 82,
          "time": 110.30758200000061,
          "velocity": 0.6299212598425197,
          "duration": 2.3076900000000364
        },
        {
          "name": "F#5",
          "midi": 78,
          "time": 110.42296650000061,
          "velocity": 0.6299212598425197,
          "duration": 1.8394212375000194
        },
        {
          "name": "A5",
          "midi": 81,
          "time": 110.5383510000006,
          "velocity": 0.6299212598425197,
          "duration": 0.2182690125000022
        },
        {
          "name": "A5",
          "midi": 81,
          "time": 110.5383510000006,
          "velocity": 0.6299212598425197,
          "duration": 2.070190237500043
        },
        {
          "name": "D#5",
          "midi": 75,
          "time": 110.65373550000061,
          "velocity": 0.6299212598425197,
          "duration": 0.3394227374999872
        },
        {
          "name": "G#5",
          "midi": 80,
          "time": 110.7691200000006,
          "velocity": 0.6299212598425197,
          "duration": 0.2182690125000022
        },
        {
          "name": "G#5",
          "midi": 80,
          "time": 110.7691200000006,
          "velocity": 0.6299212598425197,
          "duration": 0.9230760000000231
        },
        {
          "name": "D#5",
          "midi": 75,
          "time": 110.8845045000006,
          "velocity": 0.6299212598425197,
          "duration": 0.45480723750000607
        },
        {
          "name": "E5",
          "midi": 76,
          "time": 110.99988900000059,
          "velocity": 0.6299212598425197,
          "duration": 0.6855762375000296
        },
        {
          "name": "B4",
          "midi": 71,
          "time": 111.1152735000006,
          "velocity": 0.6299212598425197,
          "duration": 0.4548072375000203
        },
        {
          "name": "D#5",
          "midi": 75,
          "time": 111.2306580000006,
          "velocity": 0.6299212598425197,
          "duration": 0.6855762375000296
        },
        {
          "name": "G#4",
          "midi": 68,
          "time": 111.3460425000006,
          "velocity": 0.6299212598425197,
          "duration": 3.339419737500066
        },
        {
          "name": "B4",
          "midi": 71,
          "time": 111.46142700000061,
          "velocity": 0.6299212598425197,
          "duration": 1.493267737500048
        },
        {
          "name": "E5",
          "midi": 76,
          "time": 111.57681150000062,
          "velocity": 0.6299212598425197,
          "duration": 0.4548072375000203
        },
        {
          "name": "G#5",
          "midi": 80,
          "time": 111.69219600000062,
          "velocity": 0.6299212598425197,
          "duration": 0.4374995625000082
        },
        {
          "name": "G#5",
          "midi": 80,
          "time": 111.69219600000062,
          "velocity": 0.6299212598425197,
          "duration": 0.8009607375000201
        },
        {
          "name": "D#5",
          "midi": 75,
          "time": 111.80758050000063,
          "velocity": 0.6299212598425197,
          "duration": 1.0317297375000294
        },
        {
          "name": "E5",
          "midi": 76,
          "time": 111.92296500000063,
          "velocity": 0.6299212598425197,
          "duration": 2.4163437375000285
        },
        {
          "name": "F5",
          "midi": 77,
          "time": 112.03834950000063,
          "velocity": 0.6299212598425197,
          "duration": 1.2692295000000087
        },
        {
          "name": "F#5",
          "midi": 78,
          "time": 112.15373400000063,
          "velocity": 0.6299212598425197,
          "duration": 0.9230760000000231
        },
        {
          "name": "G5",
          "midi": 79,
          "time": 112.26911850000063,
          "velocity": 0.6299212598425197,
          "duration": 0.10865373750000629
        },
        {
          "name": "G#5",
          "midi": 80,
          "time": 112.38450300000063,
          "velocity": 0.6299212598425197,
          "duration": 5.87787873750014
        },
        {
          "name": "A5",
          "midi": 81,
          "time": 112.49988750000064,
          "velocity": 0.6299212598425197,
          "duration": 6.570185737500168
        },
        {
          "name": "A#5",
          "midi": 82,
          "time": 112.61527200000064,
          "velocity": 0.6299212598425197,
          "duration": 0.4374995625000082
        },
        {
          "name": "A#5",
          "midi": 82,
          "time": 112.61527200000064,
          "velocity": 0.6299212598425197,
          "duration": 3.5701887375000894
        },
        {
          "name": "D#5",
          "midi": 75,
          "time": 112.73065650000065,
          "velocity": 0.6299212598425197,
          "duration": 0.3394227375000014
        },
        {
          "name": "B4",
          "midi": 71,
          "time": 112.84604100000065,
          "velocity": 0.6299212598425197,
          "duration": 0.685576237499987
        },
        {
          "name": "D#5",
          "midi": 75,
          "time": 112.96142550000066,
          "velocity": 0.6299212598425197,
          "duration": 0.3394227374999872
        },
        {
          "name": "F#5",
          "midi": 78,
          "time": 113.07681000000065,
          "velocity": 0.6299212598425197,
          "duration": 0.2182690125000022
        },
        {
          "name": "F#5",
          "midi": 78,
          "time": 113.07681000000065,
          "velocity": 0.6299212598425197,
          "duration": 2.9932662375000803
        },
        {
          "name": "D#5",
          "midi": 75,
          "time": 113.19219450000065,
          "velocity": 0.6299212598425197,
          "duration": 0.34615349999998557
        },
        {
          "name": "F5",
          "midi": 77,
          "time": 113.30757900000064,
          "velocity": 0.6299212598425197,
          "duration": 0.2182690125000022
        },
        {
          "name": "F5",
          "midi": 77,
          "time": 113.30757900000064,
          "velocity": 0.6299212598425197,
          "duration": 1.1471142375000198
        },
        {
          "name": "B4",
          "midi": 71,
          "time": 113.42296350000065,
          "velocity": 0.6299212598425197,
          "duration": 0.3394227375000014
        },
        {
          "name": "D#5",
          "midi": 75,
          "time": 113.53834800000064,
          "velocity": 0.6299212598425197,
          "duration": 0.4374995625000082
        },
        {
          "name": "D#5",
          "midi": 75,
          "time": 113.53834800000064,
          "velocity": 0.6299212598425197,
          "duration": 0.6855762375000154
        },
        {
          "name": "B4",
          "midi": 71,
          "time": 113.65373250000064,
          "velocity": 0.6299212598425197,
          "duration": 1.3778832375000434
        },
        {
          "name": "C5",
          "midi": 72,
          "time": 113.76911700000065,
          "velocity": 0.6299212598425197,
          "duration": 0.10865373750000629
        },
        {
          "name": "C#5",
          "midi": 73,
          "time": 113.88450150000065,
          "velocity": 0.6299212598425197,
          "duration": 1.3778832375000434
        },
        {
          "name": "D5",
          "midi": 74,
          "time": 113.99988600000064,
          "velocity": 0.6299212598425197,
          "duration": 0.10865373750000629
        },
        {
          "name": "D#5",
          "midi": 75,
          "time": 114.11527050000065,
          "velocity": 0.6299212598425197,
          "duration": 1.2692295000000513
        },
        {
          "name": "E5",
          "midi": 76,
          "time": 114.23065500000065,
          "velocity": 0.6299212598425197,
          "duration": 0.23076900000000933
        },
        {
          "name": "F5",
          "midi": 77,
          "time": 114.34603950000066,
          "velocity": 0.6299212598425197,
          "duration": 5.7624942375001496
        },
        {
          "name": "E5",
          "midi": 76,
          "time": 114.46142400000066,
          "velocity": 0.6299212598425197,
          "duration": 0.4605764625000148
        },
        {
          "name": "E5",
          "midi": 76,
          "time": 114.46142400000066,
          "velocity": 0.6299212598425197,
          "duration": 6.4548012375001775
        },
        {
          "name": "G#4",
          "midi": 68,
          "time": 114.57680850000067,
          "velocity": 0.6299212598425197,
          "duration": 14.877869737500404
        },
        {
          "name": "A4",
          "midi": 69,
          "time": 114.69219300000067,
          "velocity": 0.6299212598425197,
          "duration": 0.10865373750000629
        },
        {
          "name": "A#4",
          "midi": 70,
          "time": 114.80757750000068,
          "velocity": 0.6299212598425197,
          "duration": 0.8009607375000343
        },
        {
          "name": "B4",
          "midi": 71,
          "time": 114.92296200000068,
          "velocity": 0.6299212598425197,
          "duration": 7.153839000000161
        },
        {
          "name": "C5",
          "midi": 72,
          "time": 115.03834650000069,
          "velocity": 0.6299212598425197,
          "duration": 0.10865373750000629
        },
        {
          "name": "C#5",
          "midi": 73,
          "time": 115.15373100000069,
          "velocity": 0.6299212598425197,
          "duration": 6.685570237500144
        },
        {
          "name": "D5",
          "midi": 74,
          "time": 115.2691155000007,
          "velocity": 0.6299212598425197,
          "duration": 0.10865373750000629
        },
        {
          "name": "D#5",
          "midi": 75,
          "time": 115.3845000000007,
          "velocity": 0.6299212598425197,
          "duration": 0.23076900000000933
        },
        {
          "name": "D#5",
          "midi": 75,
          "time": 115.3845000000007,
          "velocity": 0.6299212598425197,
          "duration": 0.4605764625000148
        },
        {
          "name": "A#4",
          "midi": 70,
          "time": 115.4998845000007,
          "velocity": 0.6299212598425197,
          "duration": 0.3394227375000156
        },
        {
          "name": "D#5",
          "midi": 75,
          "time": 115.61526900000071,
          "velocity": 0.6299212598425197,
          "duration": 0.3394227375000156
        },
        {
          "name": "A#4",
          "midi": 70,
          "time": 115.73065350000071,
          "velocity": 0.6299212598425197,
          "duration": 7.2624927375001676
        },
        {
          "name": "D#5",
          "midi": 75,
          "time": 115.84603800000072,
          "velocity": 0.6299212598425197,
          "duration": 4.147111237500084
        },
        {
          "name": "F#5",
          "midi": 78,
          "time": 115.96142250000072,
          "velocity": 0.6299212598425197,
          "duration": 2.1855747375000476
        },
        {
          "name": "A#5",
          "midi": 82,
          "time": 116.07680700000073,
          "velocity": 0.6299212598425197,
          "duration": 0.4548072375000203
        },
        {
          "name": "C#6",
          "midi": 85,
          "time": 116.19219150000073,
          "velocity": 0.6299212598425197,
          "duration": 1.1471142375000483
        },
        {
          "name": "D#6",
          "midi": 87,
          "time": 116.30757600000074,
          "velocity": 0.6299212598425197,
          "duration": 0.3394227375000156
        },
        {
          "name": "A#5",
          "midi": 82,
          "time": 116.42296050000074,
          "velocity": 0.6299212598425197,
          "duration": 1.2624987375000245
        },
        {
          "name": "D#6",
          "midi": 87,
          "time": 116.53834500000075,
          "velocity": 0.6299212598425197,
          "duration": 0.9230760000000231
        },
        {
          "name": "F6",
          "midi": 89,
          "time": 116.65372950000075,
          "velocity": 0.6299212598425197,
          "duration": 0.23076900000000933
        },
        {
          "name": "F#6",
          "midi": 90,
          "time": 116.76911400000076,
          "velocity": 0.6299212598425197,
          "duration": 0.10865373750000629
        },
        {
          "name": "F#6",
          "midi": 90,
          "time": 116.76911400000076,
          "velocity": 0.6299212598425197,
          "duration": 7.384608000000171
        },
        {
          "name": "F6",
          "midi": 89,
          "time": 116.88449850000076,
          "velocity": 0.6299212598425197,
          "duration": 0.10865373750000629
        },
        {
          "name": "F6",
          "midi": 89,
          "time": 116.88449850000076,
          "velocity": 0.6299212598425197,
          "duration": 7.2624927375001676
        },
        {
          "name": "E6",
          "midi": 88,
          "time": 116.99988300000076,
          "velocity": 0.6299212598425197,
          "duration": 0.4374995625000082
        },
        {
          "name": "E6",
          "midi": 88,
          "time": 116.99988300000076,
          "velocity": 0.6299212598425197,
          "duration": 7.384608000000171
        },
        {
          "name": "C6",
          "midi": 84,
          "time": 117.11526750000077,
          "velocity": 0.6299212598425197,
          "duration": 0.8076915000000042
        },
        {
          "name": "C#6",
          "midi": 85,
          "time": 117.23065200000077,
          "velocity": 0.6299212598425197,
          "duration": 0.5769224999999949
        },
        {
          "name": "D6",
          "midi": 86,
          "time": 117.34603650000078,
          "velocity": 0.6299212598425197,
          "duration": 0.34615349999998557
        },
        {
          "name": "D#6",
          "midi": 87,
          "time": 117.46142100000077,
          "velocity": 0.6299212598425197,
          "duration": 0.2182690125000022
        },
        {
          "name": "D#6",
          "midi": 87,
          "time": 117.46142100000077,
          "velocity": 0.6299212598425197,
          "duration": 1.1538450000000182
        },
        {
          "name": "A#5",
          "midi": 82,
          "time": 117.57680550000077,
          "velocity": 0.6299212598425197,
          "duration": 0.8009607375000058
        },
        {
          "name": "D6",
          "midi": 86,
          "time": 117.69219000000076,
          "velocity": 0.6299212598425197,
          "duration": 0.10865373750000629
        },
        {
          "name": "D6",
          "midi": 86,
          "time": 117.69219000000076,
          "velocity": 0.6299212598425197,
          "duration": 1.0384605000000278
        },
        {
          "name": "C#6",
          "midi": 85,
          "time": 117.80757450000077,
          "velocity": 0.6299212598425197,
          "duration": 0.10865373750000629
        },
        {
          "name": "C#6",
          "midi": 85,
          "time": 117.80757450000077,
          "velocity": 0.6299212598425197,
          "duration": 0.8009607375000201
        },
        {
          "name": "C6",
          "midi": 84,
          "time": 117.92295900000077,
          "velocity": 0.6299212598425197,
          "duration": 0.2182690125000022
        },
        {
          "name": "C6",
          "midi": 84,
          "time": 117.92295900000077,
          "velocity": 0.6299212598425197,
          "duration": 1.3846140000000275
        },
        {
          "name": "F#5",
          "midi": 78,
          "time": 118.03834350000078,
          "velocity": 0.6299212598425197,
          "duration": 1.4932677375000196
        },
        {
          "name": "G#5",
          "midi": 80,
          "time": 118.15372800000077,
          "velocity": 0.6299212598425197,
          "duration": 2.1855747375000476
        },
        {
          "name": "A#5",
          "midi": 82,
          "time": 118.26911250000077,
          "velocity": 0.6299212598425197,
          "duration": 0.9163452375000389
        },
        {
          "name": "B5",
          "midi": 83,
          "time": 118.38449700000078,
          "velocity": 0.6299212598425197,
          "duration": 0.9163452375000247
        },
        {
          "name": "C#6",
          "midi": 85,
          "time": 118.49988150000078,
          "velocity": 0.6299212598425197,
          "duration": 0.346153500000014
        },
        {
          "name": "D#6",
          "midi": 87,
          "time": 118.61526600000079,
          "velocity": 0.6299212598425197,
          "duration": 0.10865373750000629
        },
        {
          "name": "D#6",
          "midi": 87,
          "time": 118.61526600000079,
          "velocity": 0.6299212598425197,
          "duration": 5.185571737500126
        },
        {
          "name": "D6",
          "midi": 86,
          "time": 118.73065050000079,
          "velocity": 0.6299212598425197,
          "duration": 0.10865373750000629
        },
        {
          "name": "D6",
          "midi": 86,
          "time": 118.73065050000079,
          "velocity": 0.6299212598425197,
          "duration": 6.346147500000143
        },
        {
          "name": "C#6",
          "midi": 85,
          "time": 118.8460350000008,
          "velocity": 0.6299212598425197,
          "duration": 0.4374995625000082
        },
        {
          "name": "C#6",
          "midi": 85,
          "time": 118.8460350000008,
          "velocity": 0.6299212598425197,
          "duration": 4.839418237500112
        },
        {
          "name": "A5",
          "midi": 81,
          "time": 118.9614195000008,
          "velocity": 0.6299212598425197,
          "duration": 0.8076915000000042
        },
        {
          "name": "A#5",
          "midi": 82,
          "time": 119.0768040000008,
          "velocity": 0.6299212598425197,
          "duration": 0.5769224999999949
        },
        {
          "name": "B5",
          "midi": 83,
          "time": 119.19218850000081,
          "velocity": 0.6299212598425197,
          "duration": 0.34615349999998557
        },
        {
          "name": "C6",
          "midi": 84,
          "time": 119.3075730000008,
          "velocity": 0.6299212598425197,
          "duration": 0.2182690125000022
        },
        {
          "name": "C6",
          "midi": 84,
          "time": 119.3075730000008,
          "velocity": 0.6299212598425197,
          "duration": 5.999994000000143
        },
        {
          "name": "F#5",
          "midi": 78,
          "time": 119.4229575000008,
          "velocity": 0.6299212598425197,
          "duration": 0.8009607375000058
        },
        {
          "name": "B5",
          "midi": 83,
          "time": 119.5383420000008,
          "velocity": 0.6299212598425197,
          "duration": 0.10865373750000629
        },
        {
          "name": "B5",
          "midi": 83,
          "time": 119.5383420000008,
          "velocity": 0.6299212598425197,
          "duration": 5.185571737500155
        },
        {
          "name": "A#5",
          "midi": 82,
          "time": 119.6537265000008,
          "velocity": 0.6299212598425197,
          "duration": 0.10865373750000629
        },
        {
          "name": "A#5",
          "midi": 82,
          "time": 119.6537265000008,
          "velocity": 0.6299212598425197,
          "duration": 0.8076915000000184
        },
        {
          "name": "A5",
          "midi": 81,
          "time": 119.7691110000008,
          "velocity": 0.6299212598425197,
          "duration": 0.2182690125000022
        },
        {
          "name": "A5",
          "midi": 81,
          "time": 119.7691110000008,
          "velocity": 0.6299212598425197,
          "duration": 0.6855762375000154
        },
        {
          "name": "D#5",
          "midi": 75,
          "time": 119.88449550000081,
          "velocity": 0.6299212598425197,
          "duration": 1.4932677375000196
        },
        {
          "name": "F5",
          "midi": 77,
          "time": 119.9998800000008,
          "velocity": 0.6299212598425197,
          "duration": 1.0317297375000436
        },
        {
          "name": "F#5",
          "midi": 78,
          "time": 120.1152645000008,
          "velocity": 0.6299212598425197,
          "duration": 1.0317297375000294
        },
        {
          "name": "G#5",
          "midi": 80,
          "time": 120.23064900000081,
          "velocity": 0.6299212598425197,
          "duration": 0.46153800000001866
        },
        {
          "name": "A5",
          "midi": 81,
          "time": 120.34603350000081,
          "velocity": 0.6299212598425197,
          "duration": 0.23076900000000933
        },
        {
          "name": "A#5",
          "midi": 82,
          "time": 120.46141800000082,
          "velocity": 0.6299212598425197,
          "duration": 0.10865373750000629
        },
        {
          "name": "A#5",
          "midi": 82,
          "time": 120.46141800000082,
          "velocity": 0.6299212598425197,
          "duration": 3.108650737500085
        },
        {
          "name": "A5",
          "midi": 81,
          "time": 120.57680250000082,
          "velocity": 0.6299212598425197,
          "duration": 0.10865373750000629
        },
        {
          "name": "A5",
          "midi": 81,
          "time": 120.57680250000082,
          "velocity": 0.6299212598425197,
          "duration": 6.576916500000152
        },
        {
          "name": "G#5",
          "midi": 80,
          "time": 120.69218700000083,
          "velocity": 0.6299212598425197,
          "duration": 0.4374995625000082
        },
        {
          "name": "G#5",
          "midi": 80,
          "time": 120.69218700000083,
          "velocity": 0.6299212598425197,
          "duration": 4.954802737500117
        },
        {
          "name": "E5",
          "midi": 76,
          "time": 120.80757150000083,
          "velocity": 0.6299212598425197,
          "duration": 0.8076915000000042
        },
        {
          "name": "F5",
          "midi": 77,
          "time": 120.92295600000084,
          "velocity": 0.6299212598425197,
          "duration": 0.5769224999999949
        },
        {
          "name": "F#5",
          "midi": 78,
          "time": 121.03834050000084,
          "velocity": 0.6299212598425197,
          "duration": 0.34615349999998557
        },
        {
          "name": "G5",
          "midi": 79,
          "time": 121.15372500000083,
          "velocity": 0.6299212598425197,
          "duration": 0.2182690125000022
        },
        {
          "name": "G5",
          "midi": 79,
          "time": 121.15372500000083,
          "velocity": 0.6299212598425197,
          "duration": 7.384608000000213
        },
        {
          "name": "D#5",
          "midi": 75,
          "time": 121.26910950000084,
          "velocity": 0.6299212598425197,
          "duration": 1.4999985000000322
        },
        {
          "name": "F#5",
          "midi": 78,
          "time": 121.38449400000083,
          "velocity": 0.6299212598425197,
          "duration": 0.10865373750000629
        },
        {
          "name": "F#5",
          "midi": 78,
          "time": 121.38449400000083,
          "velocity": 0.6299212598425197,
          "duration": 2.0701902375000714
        },
        {
          "name": "F5",
          "midi": 77,
          "time": 121.49987850000083,
          "velocity": 0.6299212598425197,
          "duration": 0.10865373750000629
        },
        {
          "name": "F5",
          "midi": 77,
          "time": 121.49987850000083,
          "velocity": 0.6299212598425197,
          "duration": 1.0317297375000294
        },
        {
          "name": "E5",
          "midi": 76,
          "time": 121.61526300000084,
          "velocity": 0.6299212598425197,
          "duration": 0.2182690125000022
        },
        {
          "name": "E5",
          "midi": 76,
          "time": 121.61526300000084,
          "velocity": 0.6299212598425197,
          "duration": 0.23076899999999512
        },
        {
          "name": "C#5",
          "midi": 73,
          "time": 121.73064750000084,
          "velocity": 0.6299212598425197,
          "duration": 0.3394227375000014
        },
        {
          "name": "E5",
          "midi": 76,
          "time": 121.84603200000083,
          "velocity": 0.6299212598425197,
          "duration": 0.2298074625000055
        },
        {
          "name": "E5",
          "midi": 76,
          "time": 121.84603200000083,
          "velocity": 0.6299212598425197,
          "duration": 0.46153800000001866
        },
        {
          "name": "C#5",
          "midi": 73,
          "time": 121.96141650000084,
          "velocity": 0.6299212598425197,
          "duration": 0.3394227375000156
        },
        {
          "name": "B4",
          "midi": 71,
          "time": 122.07680100000084,
          "velocity": 0.6299212598425197,
          "duration": 0.2298074625000055
        },
        {
          "name": "B4",
          "midi": 71,
          "time": 122.07680100000084,
          "velocity": 0.6299212598425197,
          "duration": 7.724030737500215
        },
        {
          "name": "C#5",
          "midi": 73,
          "time": 122.19218550000085,
          "velocity": 0.6299212598425197,
          "duration": 6.108647737500149
        },
        {
          "name": "E5",
          "midi": 76,
          "time": 122.30757000000085,
          "velocity": 0.6299212598425197,
          "duration": 0.23076900000000933
        },
        {
          "name": "E5",
          "midi": 76,
          "time": 122.30757000000085,
          "velocity": 0.6299212598425197,
          "duration": 0.4605764625000148
        },
        {
          "name": "F5",
          "midi": 77,
          "time": 122.42295450000086,
          "velocity": 0.6299212598425197,
          "duration": 5.070187237500122
        },
        {
          "name": "E5",
          "midi": 76,
          "time": 122.53833900000086,
          "velocity": 0.6299212598425197,
          "duration": 5.993263237500173
        },
        {
          "name": "D5",
          "midi": 74,
          "time": 122.65372350000086,
          "velocity": 0.6299212598425197,
          "duration": 0.10865373750000629
        },
        {
          "name": "D#5",
          "midi": 75,
          "time": 122.76910800000087,
          "velocity": 0.6299212598425197,
          "duration": 0.23076900000000933
        },
        {
          "name": "D#5",
          "midi": 75,
          "time": 122.76910800000087,
          "velocity": 0.6299212598425197,
          "duration": 0.4605764625000148
        },
        {
          "name": "A#4",
          "midi": 70,
          "time": 122.88449250000087,
          "velocity": 0.6299212598425197,
          "duration": 0.3394227375000156
        },
        {
          "name": "D#5",
          "midi": 75,
          "time": 122.99987700000088,
          "velocity": 0.6299212598425197,
          "duration": 0.3394227375000156
        },
        {
          "name": "A#4",
          "midi": 70,
          "time": 123.11526150000088,
          "velocity": 0.6299212598425197,
          "duration": 6.570185737500196
        },
        {
          "name": "D#5",
          "midi": 75,
          "time": 123.23064600000089,
          "velocity": 0.6299212598425197,
          "duration": 4.147111237500084
        },
        {
          "name": "F#5",
          "midi": 78,
          "time": 123.3460305000009,
          "velocity": 0.6299212598425197,
          "duration": 2.1855747375000476
        },
        {
          "name": "A#5",
          "midi": 82,
          "time": 123.4614150000009,
          "velocity": 0.6299212598425197,
          "duration": 0.4548072375000203
        },
        {
          "name": "C#6",
          "midi": 85,
          "time": 123.5767995000009,
          "velocity": 0.6299212598425197,
          "duration": 1.2624987375000387
        },
        {
          "name": "D#6",
          "midi": 87,
          "time": 123.6921840000009,
          "velocity": 0.6299212598425197,
          "duration": 0.3394227375000156
        },
        {
          "name": "A#5",
          "midi": 82,
          "time": 123.80756850000091,
          "velocity": 0.6299212598425197,
          "duration": 0.8009607375000343
        },
        {
          "name": "D#6",
          "midi": 87,
          "time": 123.92295300000092,
          "velocity": 0.6299212598425197,
          "duration": 0.9230760000000231
        },
        {
          "name": "F6",
          "midi": 89,
          "time": 124.03833750000092,
          "velocity": 0.6299212598425197,
          "duration": 0.23076900000000933
        },
        {
          "name": "F#6",
          "midi": 90,
          "time": 124.15372200000093,
          "velocity": 0.6299212598425197,
          "duration": 0.10865373750000629
        },
        {
          "name": "F#6",
          "midi": 90,
          "time": 124.15372200000093,
          "velocity": 0.6299212598425197,
          "duration": 17.88363596249991
        },
        {
          "name": "F6",
          "midi": 89,
          "time": 124.26910650000093,
          "velocity": 0.6299212598425197,
          "duration": 0.10865373750000629
        },
        {
          "name": "F6",
          "midi": 89,
          "time": 124.26910650000093,
          "velocity": 0.6299212598425197,
          "duration": 20.191325962499775
        },
        {
          "name": "E6",
          "midi": 88,
          "time": 124.38449100000093,
          "velocity": 0.6299212598425197,
          "duration": 0.4374995625000082
        },
        {
          "name": "E6",
          "midi": 88,
          "time": 124.38449100000093,
          "velocity": 0.6299212598425197,
          "duration": 20.30671046249975
        },
        {
          "name": "A#5",
          "midi": 82,
          "time": 124.49987550000094,
          "velocity": 0.6299212598425197,
          "duration": 0.5701917374999965
        },
        {
          "name": "B5",
          "midi": 83,
          "time": 124.61526000000094,
          "velocity": 0.6299212598425197,
          "duration": 1.2624987375000103
        },
        {
          "name": "C#6",
          "midi": 85,
          "time": 124.73064450000095,
          "velocity": 0.6299212598425197,
          "duration": 0.46153799999999023
        },
        {
          "name": "D#6",
          "midi": 87,
          "time": 124.84602900000094,
          "velocity": 0.6299212598425197,
          "duration": 0.2182690125000022
        },
        {
          "name": "D#6",
          "midi": 87,
          "time": 124.84602900000094,
          "velocity": 0.6299212598425197,
          "duration": 1.1538450000000182
        },
        {
          "name": "A#5",
          "midi": 82,
          "time": 124.96141350000094,
          "velocity": 0.6299212598425197,
          "duration": 0.8009607375000058
        },
        {
          "name": "D6",
          "midi": 86,
          "time": 125.07679800000093,
          "velocity": 0.6299212598425197,
          "duration": 0.10865373750000629
        },
        {
          "name": "D6",
          "midi": 86,
          "time": 125.07679800000093,
          "velocity": 0.6299212598425197,
          "duration": 1.0384605000000278
        },
        {
          "name": "C#6",
          "midi": 85,
          "time": 125.19218250000094,
          "velocity": 0.6299212598425197,
          "duration": 0.10865373750000629
        },
        {
          "name": "C#6",
          "midi": 85,
          "time": 125.19218250000094,
          "velocity": 0.6299212598425197,
          "duration": 0.8009607375000201
        },
        {
          "name": "C6",
          "midi": 84,
          "time": 125.30756700000094,
          "velocity": 0.6299212598425197,
          "duration": 0.2182690125000022
        },
        {
          "name": "C6",
          "midi": 84,
          "time": 125.30756700000094,
          "velocity": 0.6299212598425197,
          "duration": 1.3846140000000275
        },
        {
          "name": "F#5",
          "midi": 78,
          "time": 125.42295150000095,
          "velocity": 0.6299212598425197,
          "duration": 1.0317297375000294
        },
        {
          "name": "G#5",
          "midi": 80,
          "time": 125.53833600000094,
          "velocity": 0.6299212598425197,
          "duration": 1.0317297375000436
        },
        {
          "name": "A#5",
          "midi": 82,
          "time": 125.65372050000094,
          "velocity": 0.6299212598425197,
          "duration": 1.0317297375000294
        },
        {
          "name": "B5",
          "midi": 83,
          "time": 125.76910500000095,
          "velocity": 0.6299212598425197,
          "duration": 1.1538450000000182
        },
        {
          "name": "C#6",
          "midi": 85,
          "time": 125.88448950000095,
          "velocity": 0.6299212598425197,
          "duration": 0.346153500000014
        },
        {
          "name": "D#6",
          "midi": 87,
          "time": 125.99987400000096,
          "velocity": 0.6299212598425197,
          "duration": 0.10865373750000629
        },
        {
          "name": "D#6",
          "midi": 87,
          "time": 125.99987400000096,
          "velocity": 0.6299212598425197,
          "duration": 15.9220994624999
        },
        {
          "name": "D6",
          "midi": 86,
          "time": 126.11525850000096,
          "velocity": 0.6299212598425197,
          "duration": 0.10865373750000629
        },
        {
          "name": "D6",
          "midi": 86,
          "time": 126.11525850000096,
          "velocity": 0.6299212598425197,
          "duration": 16.49902196249984
        },
        {
          "name": "C#6",
          "midi": 85,
          "time": 126.23064300000097,
          "velocity": 0.6299212598425197,
          "duration": 0.4374995625000082
        },
        {
          "name": "C#6",
          "midi": 85,
          "time": 126.23064300000097,
          "velocity": 0.6299212598425197,
          "duration": 16.614406462499815
        },
        {
          "name": "F#5",
          "midi": 78,
          "time": 126.34602750000097,
          "velocity": 0.6299212598425197,
          "duration": 0.5701917374999965
        },
        {
          "name": "G#5",
          "midi": 80,
          "time": 126.46141200000098,
          "velocity": 0.6299212598425197,
          "duration": 1.2624987375000103
        },
        {
          "name": "A#5",
          "midi": 82,
          "time": 126.57679650000098,
          "velocity": 0.6299212598425197,
          "duration": 0.46153799999999023
        },
        {
          "name": "C6",
          "midi": 84,
          "time": 126.69218100000097,
          "velocity": 0.6299212598425197,
          "duration": 0.2182690125000022
        },
        {
          "name": "C6",
          "midi": 84,
          "time": 126.69218100000097,
          "velocity": 0.6299212598425197,
          "duration": 16.38363746249979
        },
        {
          "name": "F#5",
          "midi": 78,
          "time": 126.80756550000098,
          "velocity": 0.6299212598425197,
          "duration": 0.8009607375000058
        },
        {
          "name": "B5",
          "midi": 83,
          "time": 126.92295000000097,
          "velocity": 0.6299212598425197,
          "duration": 0.10865373750000629
        },
        {
          "name": "B5",
          "midi": 83,
          "time": 126.92295000000097,
          "velocity": 0.6299212598425197,
          "duration": 14.883638962499916
        },
        {
          "name": "A#5",
          "midi": 82,
          "time": 127.03833450000097,
          "velocity": 0.6299212598425197,
          "duration": 0.10865373750000629
        },
        {
          "name": "A#5",
          "midi": 82,
          "time": 127.03833450000097,
          "velocity": 0.6299212598425197,
          "duration": 0.8076915000000184
        },
        {
          "name": "A5",
          "midi": 81,
          "time": 127.15371900000098,
          "velocity": 0.6299212598425197,
          "duration": 0.2182690125000022
        },
        {
          "name": "A5",
          "midi": 81,
          "time": 127.15371900000098,
          "velocity": 0.6299212598425197,
          "duration": 0.6855762375000154
        },
        {
          "name": "D#5",
          "midi": 75,
          "time": 127.26910350000098,
          "velocity": 0.6299212598425197,
          "duration": 1.1471142375000198
        },
        {
          "name": "F5",
          "midi": 77,
          "time": 127.38448800000097,
          "velocity": 0.6299212598425197,
          "duration": 1.499998500000089
        },
        {
          "name": "F#5",
          "midi": 78,
          "time": 127.49987250000098,
          "velocity": 0.6299212598425197,
          "duration": 1.2692295000000797
        },
        {
          "name": "G#5",
          "midi": 80,
          "time": 127.61525700000098,
          "velocity": 0.6299212598425197,
          "duration": 0.46153800000001866
        },
        {
          "name": "A5",
          "midi": 81,
          "time": 127.73064150000098,
          "velocity": 0.6299212598425197,
          "duration": 0.23076900000000933
        },
        {
          "name": "A#5",
          "midi": 82,
          "time": 127.84602600000099,
          "velocity": 0.6299212598425197,
          "duration": 0.10865373750000629
        },
        {
          "name": "A#5",
          "midi": 82,
          "time": 127.84602600000099,
          "velocity": 0.6299212598425197,
          "duration": 3.922111462500112
        },
        {
          "name": "A5",
          "midi": 81,
          "time": 127.961410500001,
          "velocity": 0.6299212598425197,
          "duration": 0.10865373749999208
        },
        {
          "name": "A5",
          "midi": 81,
          "time": 127.961410500001,
          "velocity": 0.6299212598425197,
          "duration": 14.652869962499807
        },
        {
          "name": "G#5",
          "midi": 80,
          "time": 128.076795000001,
          "velocity": 0.6299212598425197,
          "duration": 0.4374995625000224
        },
        {
          "name": "G#5",
          "midi": 80,
          "time": 128.076795000001,
          "velocity": 0.6299212598425197,
          "duration": 5.283648562499991
        },
        {
          "name": "C#5",
          "midi": 73,
          "time": 128.192179500001,
          "velocity": 0.6299212598425197,
          "duration": 1.0317297375000578
        },
        {
          "name": "D#5",
          "midi": 75,
          "time": 128.307564000001,
          "velocity": 0.6299212598425197,
          "duration": 0.4548072375000345
        },
        {
          "name": "E5",
          "midi": 76,
          "time": 128.422948500001,
          "velocity": 0.6299212598425197,
          "duration": 0.5769225000000517
        },
        {
          "name": "G5",
          "midi": 79,
          "time": 128.53833300000105,
          "velocity": 0.6299212598425197,
          "duration": 0.2182690125000022
        },
        {
          "name": "G5",
          "midi": 79,
          "time": 128.53833300000105,
          "velocity": 0.6299212598425197,
          "duration": 14.537485462499717
        },
        {
          "name": "D#5",
          "midi": 75,
          "time": 128.65371750000105,
          "velocity": 0.6299212598425197,
          "duration": 1.9605749625000612
        },
        {
          "name": "F#5",
          "midi": 78,
          "time": 128.76910200000106,
          "velocity": 0.6299212598425197,
          "duration": 0.10865373749999208
        },
        {
          "name": "F#5",
          "midi": 78,
          "time": 128.76910200000106,
          "velocity": 0.6299212598425197,
          "duration": 3.218266012500038
        },
        {
          "name": "F5",
          "midi": 77,
          "time": 128.88448650000106,
          "velocity": 0.6299212598425197,
          "duration": 0.10865373749999208
        },
        {
          "name": "F5",
          "midi": 77,
          "time": 128.88448650000106,
          "velocity": 0.6299212598425197,
          "duration": 8.168261062499909
        },
        {
          "name": "E5",
          "midi": 76,
          "time": 128.99987100000106,
          "velocity": 0.6299212598425197,
          "duration": 0.2182690125000022
        },
        {
          "name": "E5",
          "midi": 76,
          "time": 128.99987100000106,
          "velocity": 0.6299212598425197,
          "duration": 0.23076900000000933
        },
        {
          "name": "C#5",
          "midi": 73,
          "time": 129.11525550000107,
          "velocity": 0.6299212598425197,
          "duration": 0.9163452374999963
        },
        {
          "name": "E5",
          "midi": 76,
          "time": 129.23064000000107,
          "velocity": 0.6299212598425197,
          "duration": 0.4605764625000006
        },
        {
          "name": "E5",
          "midi": 76,
          "time": 129.23064000000107,
          "velocity": 0.6299212598425197,
          "duration": 15.460561462499612
        },
        {
          "name": "G#4",
          "midi": 68,
          "time": 129.34602450000108,
          "velocity": 0.6299212598425197,
          "duration": 7.70672306249989
        },
        {
          "name": "A4",
          "midi": 69,
          "time": 129.46140900000108,
          "velocity": 0.6299212598425197,
          "duration": 0.10865373749999208
        },
        {
          "name": "A#4",
          "midi": 70,
          "time": 129.5767935000011,
          "velocity": 0.6299212598425197,
          "duration": 5.883647962499879
        },
        {
          "name": "B4",
          "midi": 71,
          "time": 129.69217800000106,
          "velocity": 0.6299212598425197,
          "duration": 3.6682655624999256
        },
        {
          "name": "C5",
          "midi": 72,
          "time": 129.80756250000107,
          "velocity": 0.6299212598425197,
          "duration": 0.10865373749999208
        },
        {
          "name": "C#5",
          "midi": 73,
          "time": 129.92294700000107,
          "velocity": 0.6299212598425197,
          "duration": 5.537494462499893
        },
        {
          "name": "D5",
          "midi": 74,
          "time": 130.03833150000108,
          "velocity": 0.6299212598425197,
          "duration": 0.10865373749999208
        },
        {
          "name": "F#4",
          "midi": 66,
          "time": 130.15371600000108,
          "velocity": 0.6299212598425197,
          "duration": 5.525956012499876
        },
        {
          "name": "D#5",
          "midi": 75,
          "time": 130.15371600000108,
          "velocity": 0.6299212598425197,
          "duration": 1.8451904624999997
        },
        {
          "name": "A#5",
          "midi": 82,
          "time": 131.5383300000011,
          "velocity": 0.5039370078740157,
          "duration": 0.6913454624999531
        },
        {
          "name": "D#5",
          "midi": 75,
          "time": 131.5383300000011,
          "velocity": 0.5039370078740157,
          "duration": 0.922114462499934
        },
        {
          "name": "F#5",
          "midi": 78,
          "time": 131.7690990000011,
          "velocity": 0.5039370078740157,
          "duration": 0.679807012499964
        },
        {
          "name": "A#5",
          "midi": 82,
          "time": 131.99986800000107,
          "velocity": 0.5039370078740157,
          "duration": 0.6913454624999531
        },
        {
          "name": "D#5",
          "midi": 75,
          "time": 131.99986800000107,
          "velocity": 0.5039370078740157,
          "duration": 0.922114462499934
        },
        {
          "name": "F#5",
          "midi": 78,
          "time": 132.23063700000105,
          "velocity": 0.5039370078740157,
          "duration": 0.679807012499964
        },
        {
          "name": "A#5",
          "midi": 82,
          "time": 132.46140600000103,
          "velocity": 0.5039370078740157,
          "duration": 6.691339462499968
        },
        {
          "name": "D#5",
          "midi": 75,
          "time": 132.46140600000103,
          "velocity": 0.5039370078740157,
          "duration": 1.360575562499946
        },
        {
          "name": "F#5",
          "midi": 78,
          "time": 132.69217500000101,
          "velocity": 0.5039370078740157,
          "duration": 1.1298065624999651
        },
        {
          "name": "B4",
          "midi": 71,
          "time": 132.922944000001,
          "velocity": 0.5039370078740157,
          "duration": 1.5913445624999838
        },
        {
          "name": "G#5",
          "midi": 80,
          "time": 132.922944000001,
          "velocity": 0.5039370078740157,
          "duration": 7.822107562499895
        },
        {
          "name": "D#5",
          "midi": 75,
          "time": 133.384482000001,
          "velocity": 0.5039370078740157,
          "duration": 0.6798070124999924
        },
        {
          "name": "F#5",
          "midi": 78,
          "time": 133.384482000001,
          "velocity": 0.5039370078740157,
          "duration": 1.1298065624999936
        },
        {
          "name": "D#5",
          "midi": 75,
          "time": 133.84602000000098,
          "velocity": 0.5039370078740157,
          "duration": 1.8336520124999822
        },
        {
          "name": "B4",
          "midi": 71,
          "time": 134.07678900000099,
          "velocity": 0.5039370078740157,
          "duration": 0.6798070124999924
        },
        {
          "name": "F#5",
          "midi": 78,
          "time": 134.07678900000099,
          "velocity": 0.5039370078740157,
          "duration": 0.6798070124999924
        },
        {
          "name": "B4",
          "midi": 71,
          "time": 134.53832700000098,
          "velocity": 0.5039370078740157,
          "duration": 3.6682655625000393
        },
        {
          "name": "F#5",
          "midi": 78,
          "time": 134.53832700000098,
          "velocity": 0.5039370078740157,
          "duration": 4.833649012500018
        },
        {
          "name": "C#5",
          "midi": 73,
          "time": 135.23063400000098,
          "velocity": 0.5039370078740157,
          "duration": 0.6913454624999815
        },
        {
          "name": "A#4",
          "midi": 70,
          "time": 135.23063400000098,
          "velocity": 0.5039370078740157,
          "duration": 0.6913454624999815
        },
        {
          "name": "D#5",
          "midi": 75,
          "time": 135.46140300000096,
          "velocity": 0.5039370078740157,
          "duration": 0.6798070124999924
        },
        {
          "name": "F#4",
          "midi": 66,
          "time": 135.46140300000096,
          "velocity": 0.5039370078740157,
          "duration": 0.8874991124999951
        },
        {
          "name": "C#5",
          "midi": 73,
          "time": 135.69217200000097,
          "velocity": 0.5039370078740157,
          "duration": 0.6913454624999815
        },
        {
          "name": "A#4",
          "midi": 70,
          "time": 135.69217200000097,
          "velocity": 0.5039370078740157,
          "duration": 0.6913454624999815
        },
        {
          "name": "D#5",
          "midi": 75,
          "time": 135.92294100000095,
          "velocity": 0.5039370078740157,
          "duration": 0.6798070124999924
        },
        {
          "name": "F#4",
          "midi": 66,
          "time": 135.92294100000095,
          "velocity": 0.5039370078740157,
          "duration": 0.6798070124999924
        },
        {
          "name": "C#5",
          "midi": 73,
          "time": 136.15371000000096,
          "velocity": 0.5039370078740157,
          "duration": 25.83939723750015
        },
        {
          "name": "A#4",
          "midi": 70,
          "time": 136.15371000000096,
          "velocity": 0.5039370078740157,
          "duration": 2.0528825625000593
        },
        {
          "name": "D#5",
          "midi": 75,
          "time": 136.38447900000094,
          "velocity": 0.5039370078740157,
          "duration": 1.1298065625000504
        },
        {
          "name": "F#4",
          "midi": 66,
          "time": 136.38447900000094,
          "velocity": 0.5039370078740157,
          "duration": 1.1298065625000504
        },
        {
          "name": "F5",
          "midi": 77,
          "time": 136.61524800000095,
          "velocity": 0.5039370078740157,
          "duration": 7.845184462499759
        },
        {
          "name": "G#4",
          "midi": 68,
          "time": 136.61524800000095,
          "velocity": 0.5039370078740157,
          "duration": 1.1413450125000395
        },
        {
          "name": "D#5",
          "midi": 75,
          "time": 137.07678600000096,
          "velocity": 0.5354330708661418,
          "duration": 2.3067284625000184
        },
        {
          "name": "F#4",
          "midi": 66,
          "time": 137.07678600000096,
          "velocity": 0.5354330708661418,
          "duration": 9.461528999999587
        },
        {
          "name": "D5",
          "midi": 74,
          "time": 137.53832400000098,
          "velocity": 0.5669291338582677,
          "duration": 0.2182690125000022
        },
        {
          "name": "G#4",
          "midi": 68,
          "time": 137.53832400000098,
          "velocity": 0.5669291338582677,
          "duration": 8.191337962499546
        },
        {
          "name": "B4",
          "midi": 71,
          "time": 137.769093000001,
          "velocity": 0.5826771653543307,
          "duration": 2.9759585624998977
        },
        {
          "name": "A#4",
          "midi": 70,
          "time": 137.769093000001,
          "velocity": 0.5826771653543307,
          "duration": 0.46153800000001866
        },
        {
          "name": "A#4",
          "midi": 70,
          "time": 138.230631000001,
          "velocity": 0.6141732283464567,
          "duration": 0.2182690125000022
        },
        {
          "name": "A#4",
          "midi": 70,
          "time": 138.230631000001,
          "velocity": 0.6141732283464567,
          "duration": 8.53845299999955
        },
        {
          "name": "A#5",
          "midi": 82,
          "time": 138.922938000001,
          "velocity": 0.6299212598425197,
          "duration": 0.6913454624999531
        },
        {
          "name": "D#5",
          "midi": 75,
          "time": 138.922938000001,
          "velocity": 0.6299212598425197,
          "duration": 0.922114462499934
        },
        {
          "name": "F#5",
          "midi": 78,
          "time": 139.153707000001,
          "velocity": 0.6299212598425197,
          "duration": 0.679807012499964
        },
        {
          "name": "A#5",
          "midi": 82,
          "time": 139.38447600000097,
          "velocity": 0.6299212598425197,
          "duration": 0.6913454624999531
        },
        {
          "name": "D#5",
          "midi": 75,
          "time": 139.38447600000097,
          "velocity": 0.6299212598425197,
          "duration": 0.922114462499934
        },
        {
          "name": "F#5",
          "midi": 78,
          "time": 139.61524500000095,
          "velocity": 0.6299212598425197,
          "duration": 0.679807012499964
        },
        {
          "name": "A#5",
          "midi": 82,
          "time": 139.84601400000093,
          "velocity": 0.6299212598425197,
          "duration": 2.5374974624998856
        },
        {
          "name": "D#5",
          "midi": 75,
          "time": 139.84601400000093,
          "velocity": 0.6299212598425197,
          "duration": 1.360575562499946
        },
        {
          "name": "F#5",
          "midi": 78,
          "time": 140.07678300000092,
          "velocity": 0.6299212598425197,
          "duration": 1.1298065624999651
        },
        {
          "name": "B4",
          "midi": 71,
          "time": 140.3075520000009,
          "velocity": 0.6299212598425197,
          "duration": 1.1413450124999827
        },
        {
          "name": "G#5",
          "midi": 80,
          "time": 140.3075520000009,
          "velocity": 0.6299212598425197,
          "duration": 2.5374974624998856
        },
        {
          "name": "D#5",
          "midi": 75,
          "time": 140.7690900000009,
          "velocity": 0.6299212598425197,
          "duration": 0.6798070124999924
        },
        {
          "name": "F#5",
          "midi": 78,
          "time": 140.7690900000009,
          "velocity": 0.6299212598425197,
          "duration": 0.9105760125000018
        },
        {
          "name": "B4",
          "midi": 71,
          "time": 141.23062800000088,
          "velocity": 0.6299212598425197,
          "duration": 4.383649462499676
        },
        {
          "name": "D#5",
          "midi": 75,
          "time": 141.23062800000088,
          "velocity": 0.6299212598425197,
          "duration": 0.4490380125000115
        },
        {
          "name": "D#5",
          "midi": 75,
          "time": 141.4613970000009,
          "velocity": 0.6299212598425197,
          "duration": 3.460573462499781
        },
        {
          "name": "F#5",
          "midi": 78,
          "time": 141.4613970000009,
          "velocity": 0.6299212598425197,
          "duration": 2.075959462499867
        },
        {
          "name": "B5",
          "midi": 83,
          "time": 141.6921660000009,
          "velocity": 0.6299212598425197,
          "duration": 1.8451904624998576
        },
        {
          "name": "D#6",
          "midi": 87,
          "time": 141.80755050000087,
          "velocity": 0.6299212598425197,
          "duration": 0.5759609624999484
        },
        {
          "name": "F#6",
          "midi": 90,
          "time": 141.92293500000085,
          "velocity": 0.6299212598425197,
          "duration": 1.6144214624999051
        },
        {
          "name": "G#6",
          "midi": 92,
          "time": 142.03831950000082,
          "velocity": 0.6299212598425197,
          "duration": 0.8067299624999578
        },
        {
          "name": "A#5",
          "midi": 82,
          "time": 142.15370400000083,
          "velocity": 0.6299212598425197,
          "duration": 2.3067284624998763
        },
        {
          "name": "D#6",
          "midi": 87,
          "time": 142.15370400000083,
          "velocity": 0.6299212598425197,
          "duration": 2.768266462499838
        },
        {
          "name": "A#6",
          "midi": 94,
          "time": 142.15370400000083,
          "velocity": 0.6299212598425197,
          "duration": 33.11438996250061
        },
        {
          "name": "A5",
          "midi": 81,
          "time": 142.3844730000008,
          "velocity": 0.6377952755905512,
          "duration": 2.3067284624998763
        },
        {
          "name": "D6",
          "midi": 86,
          "time": 142.3844730000008,
          "velocity": 0.6377952755905512,
          "duration": 2.768266462499838
        },
        {
          "name": "A6",
          "midi": 93,
          "time": 142.3844730000008,
          "velocity": 0.6377952755905512,
          "duration": 0.2298074624999913
        },
        {
          "name": "G#5",
          "midi": 80,
          "time": 142.6152420000008,
          "velocity": 0.6456692913385826,
          "duration": 2.3067284624998763
        },
        {
          "name": "C#6",
          "midi": 85,
          "time": 142.6152420000008,
          "velocity": 0.6456692913385826,
          "duration": 17.537482462500265
        },
        {
          "name": "G#6",
          "midi": 92,
          "time": 142.6152420000008,
          "velocity": 0.6456692913385826,
          "duration": 0
        },
        {
          "name": "G5",
          "midi": 79,
          "time": 142.84601100000077,
          "velocity": 0.6535433070866141,
          "duration": 0.9221144624999624
        },
        {
          "name": "C6",
          "midi": 84,
          "time": 142.84601100000077,
          "velocity": 0.6535433070866141,
          "duration": 0.9221144624999624
        },
        {
          "name": "G6",
          "midi": 91,
          "time": 142.84601100000077,
          "velocity": 0.6535433070866141,
          "duration": 0.2298074624999913
        },
        {
          "name": "F#5",
          "midi": 78,
          "time": 143.07678000000075,
          "velocity": 0.6614173228346457,
          "duration": 0.9221144624999624
        },
        {
          "name": "B5",
          "midi": 83,
          "time": 143.07678000000075,
          "velocity": 0.6614173228346457,
          "duration": 0.9221144624999624
        },
        {
          "name": "F#6",
          "midi": 90,
          "time": 143.07678000000075,
          "velocity": 0.6614173228346457,
          "duration": 0.9221144624999624
        },
        {
          "name": "G5",
          "midi": 79,
          "time": 143.53831800000074,
          "velocity": 0.6771653543307087,
          "duration": 18.923058000000395
        },
        {
          "name": "C6",
          "midi": 84,
          "time": 143.53831800000074,
          "velocity": 0.6771653543307087,
          "duration": 17.76921300000032
        },
        {
          "name": "G6",
          "midi": 91,
          "time": 143.53831800000074,
          "velocity": 0.6771653543307087,
          "duration": 0.2298074624999913
        },
        {
          "name": "F#5",
          "midi": 78,
          "time": 143.76908700000072,
          "velocity": 0.6850393700787402,
          "duration": 5.30768699999993
        },
        {
          "name": "B5",
          "midi": 83,
          "time": 143.76908700000072,
          "velocity": 0.6850393700787402,
          "duration": 1.4990369624999005
        },
        {
          "name": "F#6",
          "midi": 90,
          "time": 143.76908700000072,
          "velocity": 0.6850393700787402,
          "duration": 16.845175462500322
        },
        {
          "name": "F5",
          "midi": 77,
          "time": 143.9998560000007,
          "velocity": 0.6929133858267716,
          "duration": 18.807673500000448
        },
        {
          "name": "A#5",
          "midi": 82,
          "time": 143.9998560000007,
          "velocity": 0.6929133858267716,
          "duration": 4.038457499999907
        },
        {
          "name": "F6",
          "midi": 89,
          "time": 143.9998560000007,
          "velocity": 0.6929133858267716,
          "duration": 0
        },
        {
          "name": "E5",
          "midi": 76,
          "time": 144.4613940000007,
          "velocity": 0.7086614173228346,
          "duration": 1.0374989624998818
        },
        {
          "name": "A5",
          "midi": 81,
          "time": 144.4613940000007,
          "velocity": 0.7086614173228346,
          "duration": 17.538444000000425
        },
        {
          "name": "E6",
          "midi": 88,
          "time": 144.4613940000007,
          "velocity": 0.7086614173228346,
          "duration": 6.9230700000000525
        },
        {
          "name": "D#5",
          "midi": 75,
          "time": 144.69216300000068,
          "velocity": 0.7165354330708661,
          "duration": 2.769227999999913
        },
        {
          "name": "G#5",
          "midi": 80,
          "time": 144.69216300000068,
          "velocity": 0.7165354330708661,
          "duration": 0.4605764624999722
        },
        {
          "name": "D#6",
          "midi": 87,
          "time": 144.69216300000068,
          "velocity": 0.7165354330708661,
          "duration": 6.461532000000062
        },
        {
          "name": "D5",
          "midi": 74,
          "time": 144.92293200000066,
          "velocity": 0.7244094488188977,
          "duration": 0.2298074624999913
        },
        {
          "name": "G#5",
          "midi": 80,
          "time": 144.92293200000066,
          "velocity": 0.7244094488188977,
          "duration": 0.4605764624999438
        },
        {
          "name": "D6",
          "midi": 86,
          "time": 144.92293200000066,
          "velocity": 0.7244094488188977,
          "duration": 15.923061000000388
        },
        {
          "name": "B5",
          "midi": 83,
          "time": 145.15370100000064,
          "velocity": 0.7322834645669292,
          "duration": 2.999996999999979
        },
        {
          "name": "G#5",
          "midi": 80,
          "time": 145.2690855000006,
          "velocity": 0.7322834645669292,
          "duration": 6.454801237500135
        },
        {
          "name": "E5",
          "midi": 76,
          "time": 145.3844700000006,
          "velocity": 0.7401574803149606,
          "duration": 2.307690000000008
        },
        {
          "name": "B4",
          "midi": 71,
          "time": 145.49985450000057,
          "velocity": 0.7401574803149606,
          "duration": 1.7307675000000131
        },
        {
          "name": "G#4",
          "midi": 68,
          "time": 145.61523900000054,
          "velocity": 0.7480314960629921,
          "duration": 17.070175237500592
        },
        {
          "name": "E4",
          "midi": 64,
          "time": 145.73062350000052,
          "velocity": 0.7480314960629921,
          "duration": 0.10865373749999208
        },
        {
          "name": "D#4",
          "midi": 63,
          "time": 145.84600800000052,
          "velocity": 0.7559055118110236,
          "duration": 0.3278842875000123
        },
        {
          "name": "D#4",
          "midi": 63,
          "time": 145.84600800000052,
          "velocity": 0.7559055118110236,
          "duration": 0.346153500000014
        },
        {
          "name": "F#3",
          "midi": 54,
          "time": 145.96139250000053,
          "velocity": 0.7559055118110236,
          "duration": 0.10865373749999208
        },
        {
          "name": "A#3",
          "midi": 58,
          "time": 146.07677700000053,
          "velocity": 0.7559055118110236,
          "duration": 0.10865373749999208
        },
        {
          "name": "D#4",
          "midi": 63,
          "time": 146.19216150000054,
          "velocity": 0.7559055118110236,
          "duration": 0.10865373749999208
        },
        {
          "name": "D#4",
          "midi": 63,
          "time": 146.19216150000054,
          "velocity": 0.7559055118110236,
          "duration": 0.11538450000000466
        },
        {
          "name": "D#4",
          "midi": 63,
          "time": 146.30754600000054,
          "velocity": 0.7559055118110236,
          "duration": 0.2182690125000022
        },
        {
          "name": "D#4",
          "midi": 63,
          "time": 146.30754600000054,
          "velocity": 0.7559055118110236,
          "duration": 0.45480723750000607
        },
        {
          "name": "A#3",
          "midi": 58,
          "time": 146.42293050000055,
          "velocity": 0.7559055118110236,
          "duration": 0.10865373749999208
        },
        {
          "name": "F#4",
          "midi": 66,
          "time": 146.53831500000055,
          "velocity": 0.7559055118110236,
          "duration": 0.2182690125000022
        },
        {
          "name": "F#4",
          "midi": 66,
          "time": 146.53831500000055,
          "velocity": 0.7559055118110236,
          "duration": 0.5701917375000107
        },
        {
          "name": "D#4",
          "midi": 63,
          "time": 146.65369950000056,
          "velocity": 0.7559055118110236,
          "duration": 0.3394227375000014
        },
        {
          "name": "A#4",
          "midi": 70,
          "time": 146.76908400000056,
          "velocity": 0.7559055118110236,
          "duration": 0.3278842875000123
        },
        {
          "name": "A#4",
          "midi": 70,
          "time": 146.76908400000056,
          "velocity": 0.7559055118110236,
          "duration": 0.346153500000014
        },
        {
          "name": "D#4",
          "midi": 63,
          "time": 146.88446850000057,
          "velocity": 0.7559055118110236,
          "duration": 6.10287851250024
        },
        {
          "name": "F#4",
          "midi": 66,
          "time": 146.99985300000057,
          "velocity": 0.7559055118110236,
          "duration": 0.45480723750000607
        },
        {
          "name": "A#4",
          "midi": 70,
          "time": 147.11523750000057,
          "velocity": 0.7559055118110236,
          "duration": 0.10865373749999208
        },
        {
          "name": "A#4",
          "midi": 70,
          "time": 147.11523750000057,
          "velocity": 0.7559055118110236,
          "duration": 0.5701917375000107
        },
        {
          "name": "B4",
          "midi": 71,
          "time": 147.23062200000058,
          "velocity": 0.7559055118110236,
          "duration": 0.2182690125000022
        },
        {
          "name": "B4",
          "midi": 71,
          "time": 147.23062200000058,
          "velocity": 0.7559055118110236,
          "duration": 0.6855762375000154
        },
        {
          "name": "F#4",
          "midi": 66,
          "time": 147.34600650000058,
          "velocity": 0.7559055118110236,
          "duration": 2.4163437375000854
        },
        {
          "name": "D#5",
          "midi": 75,
          "time": 147.4613910000006,
          "velocity": 0.7559055118110236,
          "duration": 0.2182690125000022
        },
        {
          "name": "D#5",
          "midi": 75,
          "time": 147.4613910000006,
          "velocity": 0.7559055118110236,
          "duration": 1.1538450000000466
        },
        {
          "name": "A#4",
          "midi": 70,
          "time": 147.5767755000006,
          "velocity": 0.7559055118110236,
          "duration": 1.2624987375000387
        },
        {
          "name": "E5",
          "midi": 76,
          "time": 147.6921600000006,
          "velocity": 0.7559055118110236,
          "duration": 0.23076900000000933
        },
        {
          "name": "E5",
          "midi": 76,
          "time": 147.6921600000006,
          "velocity": 0.7559055118110236,
          "duration": 0.3394227375000014
        },
        {
          "name": "B4",
          "midi": 71,
          "time": 147.8075445000006,
          "velocity": 0.7559055118110236,
          "duration": 0.5701917375000107
        },
        {
          "name": "E5",
          "midi": 76,
          "time": 147.9229290000006,
          "velocity": 0.7559055118110236,
          "duration": 0.46153800000001866
        },
        {
          "name": "A#5",
          "midi": 82,
          "time": 148.0383135000006,
          "velocity": 0.7559055118110236,
          "duration": 0.10865373749999208
        },
        {
          "name": "A#5",
          "midi": 82,
          "time": 148.0383135000006,
          "velocity": 0.7559055118110236,
          "duration": 0.8076915000000326
        },
        {
          "name": "B5",
          "midi": 83,
          "time": 148.15369800000062,
          "velocity": 0.7559055118110236,
          "duration": 0.2182690125000022
        },
        {
          "name": "B5",
          "midi": 83,
          "time": 148.15369800000062,
          "velocity": 0.7559055118110236,
          "duration": 2.769228000000112
        },
        {
          "name": "B4",
          "midi": 71,
          "time": 148.26908250000062,
          "velocity": 0.7559055118110236,
          "duration": 0.3394227375000014
        },
        {
          "name": "E5",
          "midi": 76,
          "time": 148.38446700000063,
          "velocity": 0.7559055118110236,
          "duration": 0.2182690125000022
        },
        {
          "name": "E5",
          "midi": 76,
          "time": 148.38446700000063,
          "velocity": 0.7559055118110236,
          "duration": 0.9230760000000373
        },
        {
          "name": "B4",
          "midi": 71,
          "time": 148.49985150000063,
          "velocity": 0.7559055118110236,
          "duration": 6.115378500000247
        },
        {
          "name": "D#5",
          "midi": 75,
          "time": 148.61523600000064,
          "velocity": 0.7559055118110236,
          "duration": 0.2182690125000022
        },
        {
          "name": "D#5",
          "midi": 75,
          "time": 148.61523600000064,
          "velocity": 0.7559055118110236,
          "duration": 0.9230760000000373
        },
        {
          "name": "A#4",
          "midi": 70,
          "time": 148.73062050000064,
          "velocity": 0.7559055118110236,
          "duration": 0.3394227375000014
        },
        {
          "name": "A#5",
          "midi": 82,
          "time": 148.84600500000064,
          "velocity": 0.7559055118110236,
          "duration": 0.2182690125000022
        },
        {
          "name": "A#5",
          "midi": 82,
          "time": 148.84600500000064,
          "velocity": 0.7559055118110236,
          "duration": 1.6153830000000653
        },
        {
          "name": "A#4",
          "midi": 70,
          "time": 148.96138950000065,
          "velocity": 0.7559055118110236,
          "duration": 0.3394227375000014
        },
        {
          "name": "F#5",
          "midi": 78,
          "time": 149.07677400000065,
          "velocity": 0.7559055118110236,
          "duration": 0.2182690125000022
        },
        {
          "name": "F#5",
          "midi": 78,
          "time": 149.07677400000065,
          "velocity": 0.7559055118110236,
          "duration": 1.1538450000000466
        },
        {
          "name": "A#4",
          "midi": 70,
          "time": 149.19215850000066,
          "velocity": 0.7559055118110236,
          "duration": 0.3394227375000014
        },
        {
          "name": "E5",
          "midi": 76,
          "time": 149.30754300000066,
          "velocity": 0.7559055118110236,
          "duration": 0.2182690125000022
        },
        {
          "name": "E5",
          "midi": 76,
          "time": 149.30754300000066,
          "velocity": 0.7559055118110236,
          "duration": 2.3009592375000807
        },
        {
          "name": "A#4",
          "midi": 70,
          "time": 149.42292750000067,
          "velocity": 0.7559055118110236,
          "duration": 0.45480723750000607
        },
        {
          "name": "D#5",
          "midi": 75,
          "time": 149.53831200000067,
          "velocity": 0.7559055118110236,
          "duration": 0.3278842875000123
        },
        {
          "name": "D#5",
          "midi": 75,
          "time": 149.53831200000067,
          "velocity": 0.7559055118110236,
          "duration": 0.346153500000014
        },
        {
          "name": "F#4",
          "midi": 66,
          "time": 149.65369650000068,
          "velocity": 0.7559055118110236,
          "duration": 4.269226500000173
        },
        {
          "name": "A#4",
          "midi": 70,
          "time": 149.76908100000068,
          "velocity": 0.7559055118110236,
          "duration": 0.45480723750000607
        },
        {
          "name": "D#5",
          "midi": 75,
          "time": 149.8844655000007,
          "velocity": 0.7559055118110236,
          "duration": 0.10865373749999208
        },
        {
          "name": "D#5",
          "midi": 75,
          "time": 149.8844655000007,
          "velocity": 0.7559055118110236,
          "duration": 0.11538450000000466
        },
        {
          "name": "D#5",
          "midi": 75,
          "time": 149.9998500000007,
          "velocity": 0.7559055118110236,
          "duration": 0.2182690125000022
        },
        {
          "name": "D#5",
          "midi": 75,
          "time": 149.9998500000007,
          "velocity": 0.7559055118110236,
          "duration": 0.45480723750000607
        },
        {
          "name": "A#4",
          "midi": 70,
          "time": 150.1152345000007,
          "velocity": 0.7559055118110236,
          "duration": 2.6471127375000947
        },
        {
          "name": "F#5",
          "midi": 78,
          "time": 150.2306190000007,
          "velocity": 0.7559055118110236,
          "duration": 0.2182690125000022
        },
        {
          "name": "F#5",
          "midi": 78,
          "time": 150.2306190000007,
          "velocity": 0.7559055118110236,
          "duration": 0.5701917375000107
        },
        {
          "name": "D#5",
          "midi": 75,
          "time": 150.3460035000007,
          "velocity": 0.7559055118110236,
          "duration": 0.3394227375000014
        },
        {
          "name": "A#5",
          "midi": 82,
          "time": 150.4613880000007,
          "velocity": 0.7559055118110236,
          "duration": 0.3278842875000123
        },
        {
          "name": "A#5",
          "midi": 82,
          "time": 150.4613880000007,
          "velocity": 0.7559055118110236,
          "duration": 0.346153500000014
        },
        {
          "name": "D#5",
          "midi": 75,
          "time": 150.57677250000071,
          "velocity": 0.7559055118110236,
          "duration": 2.064421012500077
        },
        {
          "name": "F#5",
          "midi": 78,
          "time": 150.69215700000072,
          "velocity": 0.7559055118110236,
          "duration": 0.45480723750000607
        },
        {
          "name": "A#5",
          "midi": 82,
          "time": 150.80754150000072,
          "velocity": 0.7559055118110236,
          "duration": 0.10865373749999208
        },
        {
          "name": "A#5",
          "midi": 82,
          "time": 150.80754150000072,
          "velocity": 0.7559055118110236,
          "duration": 0.5701917375000107
        },
        {
          "name": "B5",
          "midi": 83,
          "time": 150.92292600000073,
          "velocity": 0.7559055118110236,
          "duration": 0.2182690125000022
        },
        {
          "name": "B5",
          "midi": 83,
          "time": 150.92292600000073,
          "velocity": 0.7559055118110236,
          "duration": 4.6153800000001866
        },
        {
          "name": "F#5",
          "midi": 78,
          "time": 151.03831050000073,
          "velocity": 0.7559055118110236,
          "duration": 5.423071500000219
        },
        {
          "name": "D#6",
          "midi": 87,
          "time": 151.15369500000074,
          "velocity": 0.7559055118110236,
          "duration": 0.2182690125000022
        },
        {
          "name": "D#6",
          "midi": 87,
          "time": 151.15369500000074,
          "velocity": 0.7559055118110236,
          "duration": 0.692307000000028
        },
        {
          "name": "A#5",
          "midi": 82,
          "time": 151.26907950000074,
          "velocity": 0.7559055118110236,
          "duration": 0.46153800000001866
        },
        {
          "name": "E6",
          "midi": 88,
          "time": 151.38446400000075,
          "velocity": 0.7559055118110236,
          "duration": 0.3278842875000123
        },
        {
          "name": "E6",
          "midi": 88,
          "time": 151.38446400000075,
          "velocity": 0.7559055118110236,
          "duration": 7.3846080000002985
        },
        {
          "name": "E5",
          "midi": 76,
          "time": 151.49984850000075,
          "velocity": 0.7559055118110236,
          "duration": 3.5769195000001446
        },
        {
          "name": "G#5",
          "midi": 80,
          "time": 151.61523300000076,
          "velocity": 0.7559055118110236,
          "duration": 7.493261737500291
        },
        {
          "name": "A#5",
          "midi": 82,
          "time": 151.73061750000076,
          "velocity": 0.7559055118110236,
          "duration": 0.10865373749999208
        },
        {
          "name": "A#5",
          "midi": 82,
          "time": 151.73061750000076,
          "velocity": 0.7559055118110236,
          "duration": 0.3394227375000014
        },
        {
          "name": "D#6",
          "midi": 87,
          "time": 151.84600200000077,
          "velocity": 0.7559055118110236,
          "duration": 0.2182690125000022
        },
        {
          "name": "D#6",
          "midi": 87,
          "time": 151.84600200000077,
          "velocity": 0.7559055118110236,
          "duration": 0.23076900000000933
        },
        {
          "name": "A#5",
          "midi": 82,
          "time": 151.96138650000077,
          "velocity": 0.7559055118110236,
          "duration": 0.3394227375000014
        },
        {
          "name": "D#6",
          "midi": 87,
          "time": 152.07677100000078,
          "velocity": 0.7559055118110236,
          "duration": 0.2182690125000022
        },
        {
          "name": "D#6",
          "midi": 87,
          "time": 152.07677100000078,
          "velocity": 0.7559055118110236,
          "duration": 0.3394227375000014
        },
        {
          "name": "A#5",
          "midi": 82,
          "time": 152.19215550000078,
          "velocity": 0.7559055118110236,
          "duration": 0.22403823749999674
        },
        {
          "name": "A#5",
          "midi": 82,
          "time": 152.30754000000078,
          "velocity": 0.7559055118110236,
          "duration": 0.33365351250000685
        },
        {
          "name": "D#6",
          "midi": 87,
          "time": 152.30754000000078,
          "velocity": 0.7559055118110236,
          "duration": 6.230763000000252
        },
        {
          "name": "D#5",
          "midi": 75,
          "time": 152.4229245000008,
          "velocity": 0.7559055118110236,
          "duration": 0.3394227375000014
        },
        {
          "name": "A#5",
          "midi": 82,
          "time": 152.4229245000008,
          "velocity": 0.7559055118110236,
          "duration": 2.9999970000001213
        },
        {
          "name": "A#4",
          "midi": 70,
          "time": 152.6536935000008,
          "velocity": 0.7559055118110236,
          "duration": 0.33365351250000685
        },
        {
          "name": "D#5",
          "midi": 75,
          "time": 152.6536935000008,
          "velocity": 0.7559055118110236,
          "duration": 2.1923055000000886
        },
        {
          "name": "D#4",
          "midi": 63,
          "time": 152.7690780000008,
          "velocity": 0.7559055118110236,
          "duration": 0.46153800000001866
        },
        {
          "name": "A#4",
          "midi": 70,
          "time": 152.7690780000008,
          "velocity": 0.7559055118110236,
          "duration": 1.384614000000056
        },
        {
          "name": "A#3",
          "midi": 58,
          "time": 152.9998470000008,
          "velocity": 0.7559055118110236,
          "duration": 0.2182690125000022
        },
        {
          "name": "E4",
          "midi": 64,
          "time": 152.9998470000008,
          "velocity": 0.7559055118110236,
          "duration": 0.2182690125000022
        },
        {
          "name": "D#4",
          "midi": 63,
          "time": 153.23061600000082,
          "velocity": 0.7559055118110236,
          "duration": 0.3278842875000123
        },
        {
          "name": "D#4",
          "midi": 63,
          "time": 153.23061600000082,
          "velocity": 0.7559055118110236,
          "duration": 0.346153500000014
        },
        {
          "name": "F#3",
          "midi": 54,
          "time": 153.34600050000083,
          "velocity": 0.7559055118110236,
          "duration": 0.10865373749999208
        },
        {
          "name": "A#3",
          "midi": 58,
          "time": 153.46138500000083,
          "velocity": 0.7559055118110236,
          "duration": 0.10865373749999208
        },
        {
          "name": "D#4",
          "midi": 63,
          "time": 153.57676950000084,
          "velocity": 0.7559055118110236,
          "duration": 0.10865373749999208
        },
        {
          "name": "D#4",
          "midi": 63,
          "time": 153.57676950000084,
          "velocity": 0.7559055118110236,
          "duration": 0.11538450000000466
        },
        {
          "name": "D#4",
          "midi": 63,
          "time": 153.69215400000084,
          "velocity": 0.7559055118110236,
          "duration": 0.2182690125000022
        },
        {
          "name": "D#4",
          "midi": 63,
          "time": 153.69215400000084,
          "velocity": 0.7559055118110236,
          "duration": 0.45480723750000607
        },
        {
          "name": "A#3",
          "midi": 58,
          "time": 153.80753850000085,
          "velocity": 0.7559055118110236,
          "duration": 0.10865373749999208
        },
        {
          "name": "F#4",
          "midi": 66,
          "time": 153.92292300000085,
          "velocity": 0.7559055118110236,
          "duration": 0.2182690125000022
        },
        {
          "name": "F#4",
          "midi": 66,
          "time": 153.92292300000085,
          "velocity": 0.7559055118110236,
          "duration": 0.5701917375000107
        },
        {
          "name": "D#4",
          "midi": 63,
          "time": 154.03830750000085,
          "velocity": 0.7559055118110236,
          "duration": 0.3394227375000014
        },
        {
          "name": "A#4",
          "midi": 70,
          "time": 154.15369200000086,
          "velocity": 0.7559055118110236,
          "duration": 0.3278842875000123
        },
        {
          "name": "A#4",
          "midi": 70,
          "time": 154.15369200000086,
          "velocity": 0.7559055118110236,
          "duration": 0.346153500000014
        },
        {
          "name": "D#4",
          "midi": 63,
          "time": 154.26907650000086,
          "velocity": 0.7559055118110236,
          "duration": 9.339413737500337
        },
        {
          "name": "F#4",
          "midi": 66,
          "time": 154.38446100000087,
          "velocity": 0.7559055118110236,
          "duration": 0.45480723750000607
        },
        {
          "name": "A#4",
          "midi": 70,
          "time": 154.49984550000087,
          "velocity": 0.7559055118110236,
          "duration": 0.10865373749999208
        },
        {
          "name": "A#4",
          "midi": 70,
          "time": 154.49984550000087,
          "velocity": 0.7559055118110236,
          "duration": 0.5701917375000107
        },
        {
          "name": "B4",
          "midi": 71,
          "time": 154.61523000000088,
          "velocity": 0.7559055118110236,
          "duration": 0.2182690125000022
        },
        {
          "name": "B4",
          "midi": 71,
          "time": 154.61523000000088,
          "velocity": 0.7559055118110236,
          "duration": 0.6855762375000154
        },
        {
          "name": "F#4",
          "midi": 66,
          "time": 154.73061450000088,
          "velocity": 0.7559055118110236,
          "duration": 2.4163437375000854
        },
        {
          "name": "D#5",
          "midi": 75,
          "time": 154.8459990000009,
          "velocity": 0.7559055118110236,
          "duration": 0.2182690125000022
        },
        {
          "name": "D#5",
          "midi": 75,
          "time": 154.8459990000009,
          "velocity": 0.7559055118110236,
          "duration": 1.1538450000000466
        },
        {
          "name": "A#4",
          "midi": 70,
          "time": 154.9613835000009,
          "velocity": 0.7559055118110236,
          "duration": 1.2624987375000387
        },
        {
          "name": "E5",
          "midi": 76,
          "time": 155.0767680000009,
          "velocity": 0.7559055118110236,
          "duration": 0.23076900000000933
        },
        {
          "name": "E5",
          "midi": 76,
          "time": 155.0767680000009,
          "velocity": 0.7559055118110236,
          "duration": 0.3394227375000014
        },
        {
          "name": "B4",
          "midi": 71,
          "time": 155.1921525000009,
          "velocity": 0.7559055118110236,
          "duration": 0.5701917375000107
        },
        {
          "name": "E5",
          "midi": 76,
          "time": 155.3075370000009,
          "velocity": 0.7559055118110236,
          "duration": 0.46153800000001866
        },
        {
          "name": "A#5",
          "midi": 82,
          "time": 155.4229215000009,
          "velocity": 0.7559055118110236,
          "duration": 0.10865373749999208
        },
        {
          "name": "A#5",
          "midi": 82,
          "time": 155.4229215000009,
          "velocity": 0.7559055118110236,
          "duration": 0.8076915000000326
        },
        {
          "name": "B5",
          "midi": 83,
          "time": 155.53830600000092,
          "velocity": 0.7559055118110236,
          "duration": 0.2182690125000022
        },
        {
          "name": "B5",
          "midi": 83,
          "time": 155.53830600000092,
          "velocity": 0.7559055118110236,
          "duration": 2.769228000000112
        },
        {
          "name": "B4",
          "midi": 71,
          "time": 155.65369050000092,
          "velocity": 0.7559055118110236,
          "duration": 0.3394227375000014
        },
        {
          "name": "E5",
          "midi": 76,
          "time": 155.76907500000092,
          "velocity": 0.7559055118110236,
          "duration": 0.2182690125000022
        },
        {
          "name": "E5",
          "midi": 76,
          "time": 155.76907500000092,
          "velocity": 0.7559055118110236,
          "duration": 0.9230760000000373
        },
        {
          "name": "B4",
          "midi": 71,
          "time": 155.88445950000093,
          "velocity": 0.7559055118110236,
          "duration": 6.685570237500201
        },
        {
          "name": "D#5",
          "midi": 75,
          "time": 155.99984400000093,
          "velocity": 0.7559055118110236,
          "duration": 0.2182690125000022
        },
        {
          "name": "D#5",
          "midi": 75,
          "time": 155.99984400000093,
          "velocity": 0.7559055118110236,
          "duration": 0.9230760000000373
        },
        {
          "name": "A#4",
          "midi": 70,
          "time": 156.11522850000094,
          "velocity": 0.7559055118110236,
          "duration": 0.3394227375000014
        },
        {
          "name": "A#5",
          "midi": 82,
          "time": 156.23061300000094,
          "velocity": 0.7559055118110236,
          "duration": 0.2182690125000022
        },
        {
          "name": "A#5",
          "midi": 82,
          "time": 156.23061300000094,
          "velocity": 0.7559055118110236,
          "duration": 1.6153830000000653
        },
        {
          "name": "A#4",
          "midi": 70,
          "time": 156.34599750000095,
          "velocity": 0.7559055118110236,
          "duration": 0.3394227375000014
        },
        {
          "name": "F#5",
          "midi": 78,
          "time": 156.46138200000095,
          "velocity": 0.7559055118110236,
          "duration": 0.2182690125000022
        },
        {
          "name": "F#5",
          "midi": 78,
          "time": 156.46138200000095,
          "velocity": 0.7559055118110236,
          "duration": 1.1538450000000466
        },
        {
          "name": "A#4",
          "midi": 70,
          "time": 156.57676650000096,
          "velocity": 0.7559055118110236,
          "duration": 0.3394227375000014
        },
        {
          "name": "E5",
          "midi": 76,
          "time": 156.69215100000096,
          "velocity": 0.7559055118110236,
          "duration": 0.2182690125000022
        },
        {
          "name": "E5",
          "midi": 76,
          "time": 156.69215100000096,
          "velocity": 0.7559055118110236,
          "duration": 2.3009592375000807
        },
        {
          "name": "A#4",
          "midi": 70,
          "time": 156.80753550000097,
          "velocity": 0.7559055118110236,
          "duration": 0.45480723750000607
        },
        {
          "name": "D#5",
          "midi": 75,
          "time": 156.92292000000097,
          "velocity": 0.7559055118110236,
          "duration": 0.3278842875000123
        },
        {
          "name": "D#5",
          "midi": 75,
          "time": 156.92292000000097,
          "velocity": 0.7559055118110236,
          "duration": 0.346153500000014
        },
        {
          "name": "F#4",
          "midi": 66,
          "time": 157.03830450000098,
          "velocity": 0.7559055118110236,
          "duration": 8.53172223750019
        },
        {
          "name": "A#4",
          "midi": 70,
          "time": 157.15368900000098,
          "velocity": 0.7559055118110236,
          "duration": 0.45480723750000607
        },
        {
          "name": "D#5",
          "midi": 75,
          "time": 157.26907350000099,
          "velocity": 0.7559055118110236,
          "duration": 0.10865373749999208
        },
        {
          "name": "D#5",
          "midi": 75,
          "time": 157.26907350000099,
          "velocity": 0.7559055118110236,
          "duration": 0.11538450000000466
        },
        {
          "name": "D#5",
          "midi": 75,
          "time": 157.384458000001,
          "velocity": 0.7559055118110236,
          "duration": 0.2182690125000022
        },
        {
          "name": "D#5",
          "midi": 75,
          "time": 157.384458000001,
          "velocity": 0.7559055118110236,
          "duration": 0.45480723750000607
        },
        {
          "name": "A#4",
          "midi": 70,
          "time": 157.499842500001,
          "velocity": 0.7559055118110236,
          "duration": 4.377880237500079
        },
        {
          "name": "F#5",
          "midi": 78,
          "time": 157.615227000001,
          "velocity": 0.7559055118110236,
          "duration": 0.2182690125000022
        },
        {
          "name": "F#5",
          "midi": 78,
          "time": 157.615227000001,
          "velocity": 0.7559055118110236,
          "duration": 0.5701917375000107
        },
        {
          "name": "D#5",
          "midi": 75,
          "time": 157.730611500001,
          "velocity": 0.7559055118110236,
          "duration": 0.3394227375000014
        },
        {
          "name": "A#5",
          "midi": 82,
          "time": 157.845996000001,
          "velocity": 0.7559055118110236,
          "duration": 0.3278842875000123
        },
        {
          "name": "A#5",
          "midi": 82,
          "time": 157.845996000001,
          "velocity": 0.7559055118110236,
          "duration": 0.346153500000014
        },
        {
          "name": "D#5",
          "midi": 75,
          "time": 157.961380500001,
          "velocity": 0.7559055118110236,
          "duration": 2.8778817375000187
        },
        {
          "name": "F#5",
          "midi": 78,
          "time": 158.07676500000102,
          "velocity": 0.7559055118110236,
          "duration": 0.45480723750000607
        },
        {
          "name": "A#5",
          "midi": 82,
          "time": 158.19214950000102,
          "velocity": 0.7559055118110236,
          "duration": 0.10865373749999208
        },
        {
          "name": "A#5",
          "midi": 82,
          "time": 158.19214950000102,
          "velocity": 0.7559055118110236,
          "duration": 0.5701917375000107
        },
        {
          "name": "B5",
          "midi": 83,
          "time": 158.30753400000103,
          "velocity": 0.7559055118110236,
          "duration": 0.2182690125000022
        },
        {
          "name": "B5",
          "midi": 83,
          "time": 158.30753400000103,
          "velocity": 0.7559055118110236,
          "duration": 3.1153815000000407
        },
        {
          "name": "F#5",
          "midi": 78,
          "time": 158.42291850000103,
          "velocity": 0.7559055118110236,
          "duration": 2.9932662375000234
        },
        {
          "name": "D#6",
          "midi": 87,
          "time": 158.53830300000104,
          "velocity": 0.7559055118110236,
          "duration": 0.2182690125000022
        },
        {
          "name": "D#6",
          "midi": 87,
          "time": 158.53830300000104,
          "velocity": 0.7559055118110236,
          "duration": 0.692307000000028
        },
        {
          "name": "A#5",
          "midi": 82,
          "time": 158.65368750000104,
          "velocity": 0.7559055118110236,
          "duration": 0.46153800000001866
        },
        {
          "name": "E6",
          "midi": 88,
          "time": 158.76907200000105,
          "velocity": 0.7559055118110236,
          "duration": 0.3278842875000123
        },
        {
          "name": "E6",
          "midi": 88,
          "time": 158.76907200000105,
          "velocity": 0.7559055118110236,
          "duration": 1.8451904624999997
        },
        {
          "name": "E5",
          "midi": 76,
          "time": 158.88445650000105,
          "velocity": 0.7559055118110236,
          "duration": 1.2682679625000048
        },
        {
          "name": "G#5",
          "midi": 80,
          "time": 158.99984100000106,
          "velocity": 0.7559055118110236,
          "duration": 3.2307660000000737
        },
        {
          "name": "A#5",
          "midi": 82,
          "time": 159.11522550000106,
          "velocity": 0.7559055118110236,
          "duration": 0.10865373749999208
        },
        {
          "name": "A#5",
          "midi": 82,
          "time": 159.11522550000106,
          "velocity": 0.7559055118110236,
          "duration": 0.3394227375000014
        },
        {
          "name": "D#6",
          "midi": 87,
          "time": 159.23061000000106,
          "velocity": 0.7559055118110236,
          "duration": 0.2182690125000022
        },
        {
          "name": "D#6",
          "midi": 87,
          "time": 159.23061000000106,
          "velocity": 0.7559055118110236,
          "duration": 0.23076900000000933
        },
        {
          "name": "A#5",
          "midi": 82,
          "time": 159.34599450000107,
          "velocity": 0.7559055118110236,
          "duration": 0.3394227375000014
        },
        {
          "name": "D#6",
          "midi": 87,
          "time": 159.46137900000107,
          "velocity": 0.7559055118110236,
          "duration": 0.2182690125000022
        },
        {
          "name": "D#6",
          "midi": 87,
          "time": 159.46137900000107,
          "velocity": 0.7559055118110236,
          "duration": 1.1538449999999614
        },
        {
          "name": "A#5",
          "midi": 82,
          "time": 159.57676350000108,
          "velocity": 0.7559055118110236,
          "duration": 0.5759609624999769
        },
        {
          "name": "E5",
          "midi": 76,
          "time": 159.92291700000106,
          "velocity": 1,
          "duration": 2.999997000000093
        },
        {
          "name": "A#5",
          "midi": 82,
          "time": 159.92291700000106,
          "velocity": 1,
          "duration": 0.6913454624999815
        },
        {
          "name": "C#6",
          "midi": 85,
          "time": 159.92291700000106,
          "velocity": 1,
          "duration": 1.1538449999999898
        },
        {
          "name": "A#5",
          "midi": 82,
          "time": 160.15368600000104,
          "velocity": 1,
          "duration": 0.5701917374999823
        },
        {
          "name": "E6",
          "midi": 88,
          "time": 160.15368600000104,
          "velocity": 1,
          "duration": 0
        },
        {
          "name": "F#6",
          "midi": 90,
          "time": 160.15368600000104,
          "velocity": 1,
          "duration": 14.999023462500418
        },
        {
          "name": "D#6",
          "midi": 87,
          "time": 160.61522400000104,
          "velocity": 0.8818897637795275,
          "duration": 0.2182690125000022
        },
        {
          "name": "A#5",
          "midi": 82,
          "time": 160.61522400000104,
          "velocity": 0.8818897637795275,
          "duration": 0.3394227375000014
        },
        {
          "name": "D#6",
          "midi": 87,
          "time": 160.61522400000104,
          "velocity": 0.8818897637795275,
          "duration": 14.19133196250047
        },
        {
          "name": "D#5",
          "midi": 75,
          "time": 160.73060850000104,
          "velocity": 0.8818897637795275,
          "duration": 0.3394227375000014
        },
        {
          "name": "D6",
          "midi": 86,
          "time": 160.84599300000104,
          "velocity": 0.8818897637795275,
          "duration": 0.2182690125000022
        },
        {
          "name": "A#5",
          "midi": 82,
          "time": 160.84599300000104,
          "velocity": 0.8818897637795275,
          "duration": 0.3394227375000014
        },
        {
          "name": "D6",
          "midi": 86,
          "time": 160.84599300000104,
          "velocity": 0.8818897637795275,
          "duration": 7.384608000000185
        },
        {
          "name": "D#5",
          "midi": 75,
          "time": 160.96137750000105,
          "velocity": 0.8818897637795275,
          "duration": 0.3394227375000014
        },
        {
          "name": "C#6",
          "midi": 85,
          "time": 161.07676200000105,
          "velocity": 0.8818897637795275,
          "duration": 0.2182690125000022
        },
        {
          "name": "A#5",
          "midi": 82,
          "time": 161.07676200000105,
          "velocity": 0.8818897637795275,
          "duration": 0.46153800000001866
        },
        {
          "name": "C#6",
          "midi": 85,
          "time": 161.07676200000105,
          "velocity": 0.8818897637795275,
          "duration": 7.384608000000185
        },
        {
          "name": "D#5",
          "midi": 75,
          "time": 161.19214650000106,
          "velocity": 0.8818897637795275,
          "duration": 0.3394227375000014
        },
        {
          "name": "C6",
          "midi": 84,
          "time": 161.30753100000106,
          "velocity": 0.8818897637795275,
          "duration": 0.10865373749999208
        },
        {
          "name": "F#5",
          "midi": 78,
          "time": 161.30753100000106,
          "velocity": 0.8818897637795275,
          "duration": 0.3394227375000014
        },
        {
          "name": "C6",
          "midi": 84,
          "time": 161.30753100000106,
          "velocity": 0.8818897637795275,
          "duration": 7.384608000000185
        },
        {
          "name": "B5",
          "midi": 83,
          "time": 161.42291550000107,
          "velocity": 0.8818897637795275,
          "duration": 0.10865373749999208
        },
        {
          "name": "D#5",
          "midi": 75,
          "time": 161.42291550000107,
          "velocity": 0.8818897637795275,
          "duration": 0.3394227375000014
        },
        {
          "name": "B5",
          "midi": 83,
          "time": 161.42291550000107,
          "velocity": 0.8818897637795275,
          "duration": 7.384608000000185
        },
        {
          "name": "A#5",
          "midi": 82,
          "time": 161.53830000000107,
          "velocity": 0.8818897637795275,
          "duration": 0.4374995625000224
        },
        {
          "name": "F#5",
          "midi": 78,
          "time": 161.53830000000107,
          "velocity": 0.8818897637795275,
          "duration": 1.153845000000075
        },
        {
          "name": "A#5",
          "midi": 82,
          "time": 161.53830000000107,
          "velocity": 0.8818897637795275,
          "duration": 2.7692280000000835
        },
        {
          "name": "D#5",
          "midi": 75,
          "time": 161.65368450000108,
          "velocity": 0.8818897637795275,
          "duration": 0.4548072375000345
        },
        {
          "name": "A#4",
          "midi": 70,
          "time": 161.76906900000108,
          "velocity": 0.8818897637795275,
          "duration": 0.4548072375000345
        },
        {
          "name": "C#5",
          "midi": 73,
          "time": 161.8844535000011,
          "velocity": 0.8818897637795275,
          "duration": 1.7307675000000984
        },
        {
          "name": "A5",
          "midi": 81,
          "time": 161.99983800000112,
          "velocity": 0.8818897637795275,
          "duration": 0.2182690125000022
        },
        {
          "name": "D#5",
          "midi": 75,
          "time": 161.99983800000112,
          "velocity": 0.8818897637795275,
          "duration": 0.3394227375000014
        },
        {
          "name": "A5",
          "midi": 81,
          "time": 161.99983800000112,
          "velocity": 0.8818897637795275,
          "duration": 2.5384590000000173
        },
        {
          "name": "A#4",
          "midi": 70,
          "time": 162.11522250000112,
          "velocity": 0.8818897637795275,
          "duration": 0.3394227375000014
        },
        {
          "name": "G#5",
          "midi": 80,
          "time": 162.23060700000113,
          "velocity": 0.8818897637795275,
          "duration": 0.2182690125000022
        },
        {
          "name": "D#5",
          "midi": 75,
          "time": 162.23060700000113,
          "velocity": 0.8818897637795275,
          "duration": 1.153845000000075
        },
        {
          "name": "G#5",
          "midi": 80,
          "time": 162.23060700000113,
          "velocity": 0.8818897637795275,
          "duration": 2.5384590000000173
        },
        {
          "name": "A#4",
          "midi": 70,
          "time": 162.34599150000113,
          "velocity": 0.8818897637795275,
          "duration": 1.1471142375000625
        },
        {
          "name": "G5",
          "midi": 79,
          "time": 162.46137600000114,
          "velocity": 0.8818897637795275,
          "duration": 0.2182690125000022
        },
        {
          "name": "B4",
          "midi": 71,
          "time": 162.46137600000114,
          "velocity": 0.8818897637795275,
          "duration": 0.3394227375000014
        },
        {
          "name": "G5",
          "midi": 79,
          "time": 162.46137600000114,
          "velocity": 0.8818897637795275,
          "duration": 2.5384590000000173
        },
        {
          "name": "G#4",
          "midi": 68,
          "time": 162.57676050000114,
          "velocity": 0.8818897637795275,
          "duration": 0.3394227375000014
        },
        {
          "name": "F#5",
          "midi": 78,
          "time": 162.69214500000115,
          "velocity": 0.8818897637795275,
          "duration": 0.10865373749999208
        },
        {
          "name": "B4",
          "midi": 71,
          "time": 162.69214500000115,
          "velocity": 0.8818897637795275,
          "duration": 0.3394227375000014
        },
        {
          "name": "F#5",
          "midi": 78,
          "time": 162.69214500000115,
          "velocity": 0.8818897637795275,
          "duration": 2.4230745000000127
        },
        {
          "name": "F5",
          "midi": 77,
          "time": 162.80752950000115,
          "velocity": 0.8818897637795275,
          "duration": 0.10865373749999208
        },
        {
          "name": "G#4",
          "midi": 68,
          "time": 162.80752950000115,
          "velocity": 0.8818897637795275,
          "duration": 0.3394227375000014
        },
        {
          "name": "F5",
          "midi": 77,
          "time": 162.80752950000115,
          "velocity": 0.8818897637795275,
          "duration": 2.860574062500035
        },
        {
          "name": "E5",
          "midi": 76,
          "time": 162.92291400000116,
          "velocity": 0.8818897637795275,
          "duration": 0.4374995625000224
        },
        {
          "name": "B4",
          "midi": 71,
          "time": 162.92291400000116,
          "velocity": 0.8818897637795275,
          "duration": 3.339419737500066
        },
        {
          "name": "E5",
          "midi": 76,
          "time": 162.92291400000116,
          "velocity": 0.8818897637795275,
          "duration": 2.769228000000055
        },
        {
          "name": "G#4",
          "midi": 68,
          "time": 163.03829850000116,
          "velocity": 0.8818897637795275,
          "duration": 0.3394227375000298
        },
        {
          "name": "E4",
          "midi": 64,
          "time": 163.15368300000117,
          "velocity": 0.8818897637795275,
          "duration": 0.10865373749999208
        },
        {
          "name": "G#4",
          "midi": 68,
          "time": 163.26906750000117,
          "velocity": 0.8818897637795275,
          "duration": 3.1086507375000565
        },
        {
          "name": "D#5",
          "midi": 75,
          "time": 163.3844520000012,
          "velocity": 0.8818897637795275,
          "duration": 0.2298074624999913
        },
        {
          "name": "A#4",
          "midi": 70,
          "time": 163.3844520000012,
          "velocity": 0.8818897637795275,
          "duration": 0.339422737499973
        },
        {
          "name": "D#5",
          "midi": 75,
          "time": 163.3844520000012,
          "velocity": 0.8818897637795275,
          "duration": 0.4615379999999618
        },
        {
          "name": "D#4",
          "midi": 63,
          "time": 163.4998365000012,
          "velocity": 0.8818897637795275,
          "duration": 0.339422737499973
        },
        {
          "name": "C#5",
          "midi": 73,
          "time": 163.61522100000118,
          "velocity": 0.8818897637795275,
          "duration": 0.2298074624999913
        },
        {
          "name": "A#4",
          "midi": 70,
          "time": 163.61522100000118,
          "velocity": 0.8818897637795275,
          "duration": 0.339422737499973
        },
        {
          "name": "C#5",
          "midi": 73,
          "time": 163.61522100000118,
          "velocity": 0.8818897637795275,
          "duration": 1.724036737499972
        },
        {
          "name": "D#4",
          "midi": 63,
          "time": 163.7306055000012,
          "velocity": 0.8818897637795275,
          "duration": 0.339422737499973
        },
        {
          "name": "D#5",
          "midi": 75,
          "time": 163.84599000000117,
          "velocity": 0.8818897637795275,
          "duration": 0.346153500000014
        },
        {
          "name": "A#4",
          "midi": 70,
          "time": 163.84599000000117,
          "velocity": 0.8818897637795275,
          "duration": 0.3394227375000014
        },
        {
          "name": "D#5",
          "midi": 75,
          "time": 163.84599000000117,
          "velocity": 0.8818897637795275,
          "duration": 0.4605764625000006
        },
        {
          "name": "D#4",
          "midi": 63,
          "time": 163.96137450000117,
          "velocity": 0.8818897637795275,
          "duration": 2.1855747375000476
        },
        {
          "name": "A#4",
          "midi": 70,
          "time": 164.07675900000118,
          "velocity": 0.8818897637795275,
          "duration": 0.45480723749997765
        },
        {
          "name": "D#5",
          "midi": 75,
          "time": 164.19214350000118,
          "velocity": 0.8818897637795275,
          "duration": 0.22403823749996832
        },
        {
          "name": "A#5",
          "midi": 82,
          "time": 164.30752800000116,
          "velocity": 0.8818897637795275,
          "duration": 0.2298074624999913
        },
        {
          "name": "D#5",
          "midi": 75,
          "time": 164.30752800000116,
          "velocity": 0.8818897637795275,
          "duration": 0.339422737499973
        },
        {
          "name": "A#5",
          "midi": 82,
          "time": 164.30752800000116,
          "velocity": 0.8818897637795275,
          "duration": 3.6923040000000924
        },
        {
          "name": "A#4",
          "midi": 70,
          "time": 164.42291250000116,
          "velocity": 0.8818897637795275,
          "duration": 0.339422737499973
        },
        {
          "name": "A5",
          "midi": 81,
          "time": 164.53829700000114,
          "velocity": 0.8818897637795275,
          "duration": 0.2182690125000022
        },
        {
          "name": "D#5",
          "midi": 75,
          "time": 164.53829700000114,
          "velocity": 0.8818897637795275,
          "duration": 0.3394227375000014
        },
        {
          "name": "A5",
          "midi": 81,
          "time": 164.53829700000114,
          "velocity": 0.8818897637795275,
          "duration": 4.8461490000001675
        },
        {
          "name": "A#4",
          "midi": 70,
          "time": 164.65368150000114,
          "velocity": 0.8818897637795275,
          "duration": 0.3394227375000014
        },
        {
          "name": "G#5",
          "midi": 80,
          "time": 164.76906600000115,
          "velocity": 0.8818897637795275,
          "duration": 0.2182690125000022
        },
        {
          "name": "D#5",
          "midi": 75,
          "time": 164.76906600000115,
          "velocity": 0.8818897637795275,
          "duration": 0.3394227375000014
        },
        {
          "name": "G#5",
          "midi": 80,
          "time": 164.76906600000115,
          "velocity": 0.8818897637795275,
          "duration": 2.3076900000001217
        },
        {
          "name": "A#4",
          "midi": 70,
          "time": 164.88445050000115,
          "velocity": 0.8818897637795275,
          "duration": 0.3394227375000014
        },
        {
          "name": "G5",
          "midi": 79,
          "time": 164.99983500000116,
          "velocity": 0.8818897637795275,
          "duration": 0.10865373749999208
        },
        {
          "name": "D#5",
          "midi": 75,
          "time": 164.99983500000116,
          "velocity": 0.8818897637795275,
          "duration": 1.141345012500068
        },
        {
          "name": "G5",
          "midi": 79,
          "time": 164.99983500000116,
          "velocity": 0.8818897637795275,
          "duration": 2.0644210125001052
        },
        {
          "name": "F#5",
          "midi": 78,
          "time": 165.11521950000116,
          "velocity": 0.8818897637795275,
          "duration": 0.10865373749999208
        },
        {
          "name": "A#4",
          "midi": 70,
          "time": 165.11521950000116,
          "velocity": 0.8818897637795275,
          "duration": 0.3394227375000014
        },
        {
          "name": "F#5",
          "midi": 78,
          "time": 165.11521950000116,
          "velocity": 0.8818897637795275,
          "duration": 1.7240367375000858
        },
        {
          "name": "F5",
          "midi": 77,
          "time": 165.23060400000116,
          "velocity": 0.8818897637795275,
          "duration": 1.3846140000000844
        },
        {
          "name": "C#5",
          "midi": 73,
          "time": 165.23060400000116,
          "velocity": 0.8818897637795275,
          "duration": 0.5701917375000392
        },
        {
          "name": "A#4",
          "midi": 70,
          "time": 165.34598850000117,
          "velocity": 0.8818897637795275,
          "duration": 0.3394227375000298
        },
        {
          "name": "F#4",
          "midi": 66,
          "time": 165.46137300000117,
          "velocity": 0.8818897637795275,
          "duration": 0.4548072375000345
        },
        {
          "name": "A#4",
          "midi": 70,
          "time": 165.57675750000118,
          "velocity": 0.8818897637795275,
          "duration": 0.4548072375000345
        },
        {
          "name": "E5",
          "midi": 76,
          "time": 165.6921420000012,
          "velocity": 0.8818897637795275,
          "duration": 0.2182690125000022
        },
        {
          "name": "C#5",
          "midi": 73,
          "time": 165.6921420000012,
          "velocity": 0.8818897637795275,
          "duration": 1.3721140125000488
        },
        {
          "name": "E5",
          "midi": 76,
          "time": 165.6921420000012,
          "velocity": 0.8818897637795275,
          "duration": 0.9163452375000247
        },
        {
          "name": "F#4",
          "midi": 66,
          "time": 165.80752650000122,
          "velocity": 0.8818897637795275,
          "duration": 2.070190237500043
        },
        {
          "name": "D#5",
          "midi": 75,
          "time": 165.92291100000122,
          "velocity": 0.8818897637795275,
          "duration": 0.5586532875000216
        },
        {
          "name": "A#4",
          "midi": 70,
          "time": 165.92291100000122,
          "velocity": 0.8818897637795275,
          "duration": 1.8394212375000336
        },
        {
          "name": "D#4",
          "midi": 63,
          "time": 166.03829550000123,
          "velocity": 0.8818897637795275,
          "duration": 4.9548027375001595
        },
        {
          "name": "D#5",
          "midi": 75,
          "time": 166.15368000000123,
          "velocity": 0.8818897637795275,
          "duration": 1.0317297375000294
        },
        {
          "name": "B4",
          "midi": 71,
          "time": 166.15368000000123,
          "velocity": 0.8818897637795275,
          "duration": 0.3394227375000014
        },
        {
          "name": "G#4",
          "midi": 68,
          "time": 166.26906450000124,
          "velocity": 0.8740157480314961,
          "duration": 0.3394227375000014
        },
        {
          "name": "B4",
          "midi": 71,
          "time": 166.38444900000124,
          "velocity": 0.8661417322834646,
          "duration": 0.4490380125000115
        },
        {
          "name": "E5",
          "midi": 76,
          "time": 166.49983350000124,
          "velocity": 0.8582677165354331,
          "duration": 3.807688500000097
        },
        {
          "name": "G#4",
          "midi": 68,
          "time": 166.49983350000124,
          "velocity": 0.8582677165354331,
          "duration": 3.570188737500075
        },
        {
          "name": "F5",
          "midi": 77,
          "time": 166.61521800000125,
          "velocity": 0.8503937007874016,
          "duration": 0.2182690125000022
        },
        {
          "name": "B4",
          "midi": 71,
          "time": 166.61521800000125,
          "velocity": 0.8503937007874016,
          "duration": 3.339419737500066
        },
        {
          "name": "F5",
          "midi": 77,
          "time": 166.61521800000125,
          "velocity": 0.8503937007874016,
          "duration": 3.5769195000000877
        },
        {
          "name": "F#5",
          "midi": 78,
          "time": 166.73060250000125,
          "velocity": 0.84251968503937,
          "duration": 1.3778832374999865
        },
        {
          "name": "G5",
          "midi": 79,
          "time": 166.84598700000126,
          "velocity": 0.8346456692913385,
          "duration": 2.9999970000000644
        },
        {
          "name": "C#5",
          "midi": 73,
          "time": 166.84598700000126,
          "velocity": 0.8346456692913385,
          "duration": 2.531728237500033
        },
        {
          "name": "G#5",
          "midi": 80,
          "time": 167.07675600000127,
          "velocity": 0.8188976377952756,
          "duration": 0.11442296249998662
        },
        {
          "name": "D#5",
          "midi": 75,
          "time": 167.07675600000127,
          "velocity": 0.8188976377952756,
          "duration": 0.44326878749998855
        },
        {
          "name": "G#5",
          "midi": 80,
          "time": 167.07675600000127,
          "velocity": 0.8188976377952756,
          "duration": 0.11538449999997624
        },
        {
          "name": "G#5",
          "midi": 80,
          "time": 167.19214050000124,
          "velocity": 0.8110236220472441,
          "duration": 0.3451919625000244
        },
        {
          "name": "D#5",
          "midi": 75,
          "time": 167.19214050000124,
          "velocity": 0.8110236220472441,
          "duration": 0.45480723750000607
        },
        {
          "name": "G#5",
          "midi": 80,
          "time": 167.19214050000124,
          "velocity": 0.8110236220472441,
          "duration": 0.346153500000014
        },
        {
          "name": "G#5",
          "midi": 80,
          "time": 167.53829400000126,
          "velocity": 0.7874015748031497,
          "duration": 0.4605764625000006
        },
        {
          "name": "D#5",
          "midi": 75,
          "time": 167.53829400000126,
          "velocity": 0.7874015748031497,
          "duration": 0.685576237499987
        },
        {
          "name": "G#5",
          "midi": 80,
          "time": 167.53829400000126,
          "velocity": 0.7874015748031497,
          "duration": 2.0769210000000555
        },
        {
          "name": "A#4",
          "midi": 70,
          "time": 167.65367850000126,
          "velocity": 0.7795275590551181,
          "duration": 0.3394227375000014
        },
        {
          "name": "F#4",
          "midi": 66,
          "time": 167.76906300000127,
          "velocity": 0.7716535433070866,
          "duration": 5.185571737500169
        },
        {
          "name": "A#4",
          "midi": 70,
          "time": 167.88444750000127,
          "velocity": 0.7637795275590551,
          "duration": 1.3778832374999865
        },
        {
          "name": "A#5",
          "midi": 82,
          "time": 167.99983200000125,
          "velocity": 0.7559055118110236,
          "duration": 0.2298074624999913
        },
        {
          "name": "F#5",
          "midi": 78,
          "time": 167.99983200000125,
          "velocity": 0.7559055118110236,
          "duration": 0.8009607374999916
        },
        {
          "name": "A#5",
          "midi": 82,
          "time": 167.99983200000125,
          "velocity": 0.7559055118110236,
          "duration": 0.339422737499973
        },
        {
          "name": "D#5",
          "midi": 75,
          "time": 168.11521650000125,
          "velocity": 0.7559055118110236,
          "duration": 0.339422737499973
        },
        {
          "name": "D6",
          "midi": 86,
          "time": 168.23060100000123,
          "velocity": 0.7559055118110236,
          "duration": 0.2182690125000022
        },
        {
          "name": "A#5",
          "midi": 82,
          "time": 168.23060100000123,
          "velocity": 0.7559055118110236,
          "duration": 0.3394227375000014
        },
        {
          "name": "D6",
          "midi": 86,
          "time": 168.23060100000123,
          "velocity": 0.7559055118110236,
          "duration": 0
        },
        {
          "name": "D#5",
          "midi": 75,
          "time": 168.34598550000123,
          "velocity": 0.7559055118110236,
          "duration": 0.3394227375000014
        },
        {
          "name": "C#6",
          "midi": 85,
          "time": 168.46137000000124,
          "velocity": 0.7559055118110236,
          "duration": 0.2182690125000022
        },
        {
          "name": "A#5",
          "midi": 82,
          "time": 168.46137000000124,
          "velocity": 0.7559055118110236,
          "duration": 0.46153800000001866
        },
        {
          "name": "C#6",
          "midi": 85,
          "time": 168.46137000000124,
          "velocity": 0.7559055118110236,
          "duration": 0
        },
        {
          "name": "D#5",
          "midi": 75,
          "time": 168.57675450000124,
          "velocity": 0.7559055118110236,
          "duration": 0.3394227375000014
        },
        {
          "name": "C6",
          "midi": 84,
          "time": 168.69213900000125,
          "velocity": 0.7559055118110236,
          "duration": 0.10865373749999208
        },
        {
          "name": "F#5",
          "midi": 78,
          "time": 168.69213900000125,
          "velocity": 0.7559055118110236,
          "duration": 0.3394227375000014
        },
        {
          "name": "C6",
          "midi": 84,
          "time": 168.69213900000125,
          "velocity": 0.7559055118110236,
          "duration": 0
        },
        {
          "name": "B5",
          "midi": 83,
          "time": 168.80752350000125,
          "velocity": 0.7559055118110236,
          "duration": 0.10865373749999208
        },
        {
          "name": "D#5",
          "midi": 75,
          "time": 168.80752350000125,
          "velocity": 0.7559055118110236,
          "duration": 0.3394227375000014
        },
        {
          "name": "B5",
          "midi": 83,
          "time": 168.80752350000125,
          "velocity": 0.7559055118110236,
          "duration": 0
        },
        {
          "name": "A#5",
          "midi": 82,
          "time": 168.92290800000126,
          "velocity": 0.7559055118110236,
          "duration": 0.4374995625000224
        },
        {
          "name": "F#5",
          "midi": 78,
          "time": 168.92290800000126,
          "velocity": 0.7559055118110236,
          "duration": 1.153845000000075
        },
        {
          "name": "A#5",
          "midi": 82,
          "time": 168.92290800000126,
          "velocity": 0.7559055118110236,
          "duration": 2.7692280000000835
        },
        {
          "name": "D#5",
          "midi": 75,
          "time": 169.03829250000126,
          "velocity": 0.7559055118110236,
          "duration": 0.4548072375000345
        },
        {
          "name": "A#4",
          "midi": 70,
          "time": 169.15367700000127,
          "velocity": 0.7559055118110236,
          "duration": 0.4548072375000345
        },
        {
          "name": "C#5",
          "midi": 73,
          "time": 169.26906150000127,
          "velocity": 0.7559055118110236,
          "duration": 1.7307675000000984
        },
        {
          "name": "A5",
          "midi": 81,
          "time": 169.3844460000013,
          "velocity": 0.7559055118110236,
          "duration": 0.2182690125000022
        },
        {
          "name": "D#5",
          "midi": 75,
          "time": 169.3844460000013,
          "velocity": 0.7559055118110236,
          "duration": 0.3394227375000014
        },
        {
          "name": "A5",
          "midi": 81,
          "time": 169.3844460000013,
          "velocity": 0.7559055118110236,
          "duration": 2.5384590000000173
        },
        {
          "name": "A#4",
          "midi": 70,
          "time": 169.4998305000013,
          "velocity": 0.7559055118110236,
          "duration": 0.3394227375000014
        },
        {
          "name": "G#5",
          "midi": 80,
          "time": 169.6152150000013,
          "velocity": 0.7559055118110236,
          "duration": 0.2182690125000022
        },
        {
          "name": "D#5",
          "midi": 75,
          "time": 169.6152150000013,
          "velocity": 0.7559055118110236,
          "duration": 1.153845000000075
        },
        {
          "name": "G#5",
          "midi": 80,
          "time": 169.6152150000013,
          "velocity": 0.7559055118110236,
          "duration": 2.5384590000000173
        },
        {
          "name": "A#4",
          "midi": 70,
          "time": 169.73059950000132,
          "velocity": 0.7559055118110236,
          "duration": 1.1471142375000625
        },
        {
          "name": "G5",
          "midi": 79,
          "time": 169.84598400000132,
          "velocity": 0.7559055118110236,
          "duration": 0.2182690125000022
        },
        {
          "name": "B4",
          "midi": 71,
          "time": 169.84598400000132,
          "velocity": 0.7559055118110236,
          "duration": 0.3394227375000014
        },
        {
          "name": "G5",
          "midi": 79,
          "time": 169.84598400000132,
          "velocity": 0.7559055118110236,
          "duration": 2.5384590000000458
        },
        {
          "name": "G#4",
          "midi": 68,
          "time": 169.96136850000133,
          "velocity": 0.7559055118110236,
          "duration": 0.3394227375000014
        },
        {
          "name": "F#5",
          "midi": 78,
          "time": 170.07675300000133,
          "velocity": 0.7559055118110236,
          "duration": 0.10865373749999208
        },
        {
          "name": "B4",
          "midi": 71,
          "time": 170.07675300000133,
          "velocity": 0.7559055118110236,
          "duration": 0.3394227375000014
        },
        {
          "name": "F#5",
          "midi": 78,
          "time": 170.07675300000133,
          "velocity": 0.7559055118110236,
          "duration": 2.423074500000041
        },
        {
          "name": "F5",
          "midi": 77,
          "time": 170.19213750000134,
          "velocity": 0.7559055118110236,
          "duration": 0.10865373749999208
        },
        {
          "name": "G#4",
          "midi": 68,
          "time": 170.19213750000134,
          "velocity": 0.7559055118110236,
          "duration": 0.3394227375000014
        },
        {
          "name": "F5",
          "midi": 77,
          "time": 170.19213750000134,
          "velocity": 0.7559055118110236,
          "duration": 2.860574062500092
        },
        {
          "name": "E5",
          "midi": 76,
          "time": 170.30752200000134,
          "velocity": 0.7559055118110236,
          "duration": 0.4374995625000224
        },
        {
          "name": "B4",
          "midi": 71,
          "time": 170.30752200000134,
          "velocity": 0.7559055118110236,
          "duration": 3.3394197375001227
        },
        {
          "name": "E5",
          "midi": 76,
          "time": 170.30752200000134,
          "velocity": 0.7559055118110236,
          "duration": 2.769228000000112
        },
        {
          "name": "G#4",
          "midi": 68,
          "time": 170.42290650000135,
          "velocity": 0.7559055118110236,
          "duration": 0.3394227375000298
        },
        {
          "name": "E4",
          "midi": 64,
          "time": 170.53829100000135,
          "velocity": 0.7559055118110236,
          "duration": 0.10865373749999208
        },
        {
          "name": "G#4",
          "midi": 68,
          "time": 170.65367550000136,
          "velocity": 0.7559055118110236,
          "duration": 3.1086507375001133
        },
        {
          "name": "D#5",
          "midi": 75,
          "time": 170.7690600000014,
          "velocity": 0.7559055118110236,
          "duration": 0.2298074624999913
        },
        {
          "name": "A#4",
          "midi": 70,
          "time": 170.7690600000014,
          "velocity": 0.7559055118110236,
          "duration": 0.339422737499973
        },
        {
          "name": "D#5",
          "midi": 75,
          "time": 170.7690600000014,
          "velocity": 0.7559055118110236,
          "duration": 0.4615379999999618
        },
        {
          "name": "D#4",
          "midi": 63,
          "time": 170.8844445000014,
          "velocity": 0.7559055118110236,
          "duration": 0.339422737499973
        },
        {
          "name": "C#5",
          "midi": 73,
          "time": 170.99982900000137,
          "velocity": 0.7559055118110236,
          "duration": 0.2298074624999913
        },
        {
          "name": "A#4",
          "midi": 70,
          "time": 170.99982900000137,
          "velocity": 0.7559055118110236,
          "duration": 0.339422737499973
        },
        {
          "name": "C#5",
          "midi": 73,
          "time": 170.99982900000137,
          "velocity": 0.7559055118110236,
          "duration": 1.7240367375000574
        },
        {
          "name": "D#4",
          "midi": 63,
          "time": 171.11521350000137,
          "velocity": 0.7559055118110236,
          "duration": 0.339422737499973
        },
        {
          "name": "D#5",
          "midi": 75,
          "time": 171.23059800000135,
          "velocity": 0.7559055118110236,
          "duration": 0.346153500000014
        },
        {
          "name": "A#4",
          "midi": 70,
          "time": 171.23059800000135,
          "velocity": 0.7559055118110236,
          "duration": 0.3394227375000014
        },
        {
          "name": "D#5",
          "midi": 75,
          "time": 171.23059800000135,
          "velocity": 0.7559055118110236,
          "duration": 0.4605764625000006
        },
        {
          "name": "D#4",
          "midi": 63,
          "time": 171.34598250000136,
          "velocity": 0.7559055118110236,
          "duration": 2.1855747375001044
        },
        {
          "name": "A#4",
          "midi": 70,
          "time": 171.46136700000136,
          "velocity": 0.7559055118110236,
          "duration": 0.45480723749997765
        },
        {
          "name": "D#5",
          "midi": 75,
          "time": 171.57675150000136,
          "velocity": 0.7559055118110236,
          "duration": 0.22403823749996832
        },
        {
          "name": "A#5",
          "midi": 82,
          "time": 171.69213600000134,
          "velocity": 0.7559055118110236,
          "duration": 0.2298074624999913
        },
        {
          "name": "D#5",
          "midi": 75,
          "time": 171.69213600000134,
          "velocity": 0.7559055118110236,
          "duration": 0.339422737499973
        },
        {
          "name": "A#5",
          "midi": 82,
          "time": 171.69213600000134,
          "velocity": 0.7559055118110236,
          "duration": 2.9990354625001885
        },
        {
          "name": "A#4",
          "midi": 70,
          "time": 171.80752050000135,
          "velocity": 0.7480314960629921,
          "duration": 0.339422737499973
        },
        {
          "name": "A5",
          "midi": 81,
          "time": 171.92290500000132,
          "velocity": 0.7401574803149606,
          "duration": 0.2182690125000022
        },
        {
          "name": "D#5",
          "midi": 75,
          "time": 171.92290500000132,
          "velocity": 0.7401574803149606,
          "duration": 0.3394227375000298
        },
        {
          "name": "A5",
          "midi": 81,
          "time": 171.92290500000132,
          "velocity": 0.7401574803149606,
          "duration": 0
        },
        {
          "name": "A#4",
          "midi": 70,
          "time": 172.03828950000133,
          "velocity": 0.7244094488188977,
          "duration": 0.3394227375000298
        },
        {
          "name": "G#5",
          "midi": 80,
          "time": 172.15367400000133,
          "velocity": 0.7165354330708661,
          "duration": 0.2182690125000306
        },
        {
          "name": "D#5",
          "midi": 75,
          "time": 172.15367400000133,
          "velocity": 0.7165354330708661,
          "duration": 0.3394227375000298
        },
        {
          "name": "G#5",
          "midi": 80,
          "time": 172.15367400000133,
          "velocity": 0.7165354330708661,
          "duration": 0
        },
        {
          "name": "A#4",
          "midi": 70,
          "time": 172.26905850000136,
          "velocity": 0.7007874015748031,
          "duration": 0.3394227375000298
        },
        {
          "name": "G5",
          "midi": 79,
          "time": 172.38444300000137,
          "velocity": 0.6929133858267716,
          "duration": 0.10865373749999208
        },
        {
          "name": "D#5",
          "midi": 75,
          "time": 172.38444300000137,
          "velocity": 0.6929133858267716,
          "duration": 1.1413450125000963
        },
        {
          "name": "G5",
          "midi": 79,
          "time": 172.38444300000137,
          "velocity": 0.6929133858267716,
          "duration": 2.064421012500162
        },
        {
          "name": "F#5",
          "midi": 78,
          "time": 172.49982750000137,
          "velocity": 0.6771653543307087,
          "duration": 0.1086537375000205
        },
        {
          "name": "A#4",
          "midi": 70,
          "time": 172.49982750000137,
          "velocity": 0.6771653543307087,
          "duration": 0.33942273750005825
        },
        {
          "name": "F#5",
          "midi": 78,
          "time": 172.49982750000137,
          "velocity": 0.6771653543307087,
          "duration": 1.7240367375001142
        },
        {
          "name": "F5",
          "midi": 77,
          "time": 172.6152120000014,
          "velocity": 0.6692913385826772,
          "duration": 1.3846140000000844
        },
        {
          "name": "C#5",
          "midi": 73,
          "time": 172.6152120000014,
          "velocity": 0.6692913385826772,
          "duration": 0.5701917375000392
        },
        {
          "name": "A#4",
          "midi": 70,
          "time": 172.73059650000144,
          "velocity": 0.6535433070866141,
          "duration": 0.3394227375000014
        },
        {
          "name": "F#4",
          "midi": 66,
          "time": 172.84598100000144,
          "velocity": 0.6456692913385826,
          "duration": 0.45480723750000607
        },
        {
          "name": "A#4",
          "midi": 70,
          "time": 172.96136550000145,
          "velocity": 0.6299212598425197,
          "duration": 0.45480723750000607
        },
        {
          "name": "E5",
          "midi": 76,
          "time": 173.07675000000145,
          "velocity": 0.6220472440944882,
          "duration": 0.2182690125000022
        },
        {
          "name": "C#5",
          "midi": 73,
          "time": 173.07675000000145,
          "velocity": 0.6220472440944882,
          "duration": 1.3721140125000773
        },
        {
          "name": "E5",
          "midi": 76,
          "time": 173.07675000000145,
          "velocity": 0.6220472440944882,
          "duration": 0.9163452375000247
        },
        {
          "name": "F#4",
          "midi": 66,
          "time": 173.19213450000146,
          "velocity": 0.6062992125984252,
          "duration": 0
        },
        {
          "name": "D#5",
          "midi": 75,
          "time": 173.30751900000146,
          "velocity": 0.5984251968503937,
          "duration": 0.5586532875000216
        },
        {
          "name": "A#4",
          "midi": 70,
          "time": 173.30751900000146,
          "velocity": 0.5984251968503937,
          "duration": 0
        },
        {
          "name": "D#4",
          "midi": 63,
          "time": 173.42290350000147,
          "velocity": 0.5826771653543307,
          "duration": 0
        },
        {
          "name": "D#5",
          "midi": 75,
          "time": 173.53828800000147,
          "velocity": 0.5748031496062992,
          "duration": 0
        },
        {
          "name": "B4",
          "midi": 71,
          "time": 173.53828800000147,
          "velocity": 0.5748031496062992,
          "duration": 0.3394227375000014
        },
        {
          "name": "G#4",
          "midi": 68,
          "time": 173.65367250000148,
          "velocity": 0.5669291338582677,
          "duration": 0.3394227375000014
        },
        {
          "name": "B4",
          "midi": 71,
          "time": 173.76905700000148,
          "velocity": 0.5511811023622047,
          "duration": 0.4490380125000115
        },
        {
          "name": "E5",
          "midi": 76,
          "time": 173.8844415000015,
          "velocity": 0.5433070866141733,
          "duration": 0
        },
        {
          "name": "G#4",
          "midi": 68,
          "time": 173.8844415000015,
          "velocity": 0.5433070866141733,
          "duration": 0
        },
        {
          "name": "F5",
          "midi": 77,
          "time": 173.9998260000015,
          "velocity": 0.5275590551181102,
          "duration": 0.2182690125000022
        },
        {
          "name": "B4",
          "midi": 71,
          "time": 173.9998260000015,
          "velocity": 0.5275590551181102,
          "duration": 0
        },
        {
          "name": "F5",
          "midi": 77,
          "time": 173.9998260000015,
          "velocity": 0.5275590551181102,
          "duration": 0
        },
        {
          "name": "F#5",
          "midi": 78,
          "time": 174.1152105000015,
          "velocity": 0.5196850393700787,
          "duration": 0.46057646250005746
        },
        {
          "name": "G5",
          "midi": 79,
          "time": 174.2305950000015,
          "velocity": 0.5039370078740157,
          "duration": 0
        },
        {
          "name": "C#5",
          "midi": 73,
          "time": 174.2305950000015,
          "velocity": 0.5039370078740157,
          "duration": 0
        },
        {
          "name": "F#5",
          "midi": 78,
          "time": 174.46136400000154,
          "velocity": 0.48031496062992124,
          "duration": 0
        },
        {
          "name": "A#5",
          "midi": 82,
          "time": 174.57674850000154,
          "velocity": 0.47244094488188976,
          "duration": 0.34519196249996753
        },
        {
          "name": "D#6",
          "midi": 87,
          "time": 174.69213300000152,
          "velocity": 0.4566929133858268,
          "duration": 0.34519196249996753
        },
        {
          "name": "A#5",
          "midi": 82,
          "time": 174.8075175000015,
          "velocity": 0.44881889763779526,
          "duration": 0
        },
        {
          "name": "D#6",
          "midi": 87,
          "time": 174.9229020000015,
          "velocity": 0.4330708661417323,
          "duration": 2.214420862499935
        },
        {
          "name": "F#6",
          "midi": 90,
          "time": 175.03828650000148,
          "velocity": 0.4251968503937008,
          "duration": 0
        },
        {
          "name": "A#6",
          "midi": 94,
          "time": 175.15367100000145,
          "velocity": 0.4094488188976378,
          "duration": 0
        },
        {
          "name": "C#7",
          "midi": 97,
          "time": 175.26905550000143,
          "velocity": 0.4015748031496063,
          "duration": 0.10865373749999208
        },
        {
          "name": "D#6",
          "midi": 87,
          "time": 175.38444000000143,
          "velocity": 0.3858267716535433,
          "duration": 0
        },
        {
          "name": "D#7",
          "midi": 99,
          "time": 175.38444000000143,
          "velocity": 0.3858267716535433,
          "duration": 1.7528828625000017
        }
      ]
    },
    {
      "instrument_number": -1,
      "notes": [
        {
          "name": "D#2",
          "midi": 39,
          "time": 0,
          "velocity": 0.25984251968503935,
          "duration": 1.7528828625
        },
        {
          "name": "D#3",
          "midi": 51,
          "time": 0,
          "velocity": 0.25984251968503935,
          "duration": 1.7528828625
        },
        {
          "name": "D#2",
          "midi": 39,
          "time": 1.846152,
          "velocity": 0.6299212598425197,
          "duration": 0.22980746250000017
        },
        {
          "name": "A#2",
          "midi": 46,
          "time": 1.846152,
          "velocity": 0.6299212598425197,
          "duration": 0.22980746250000017
        },
        {
          "name": "D#3",
          "midi": 51,
          "time": 1.846152,
          "velocity": 0.6299212598425197,
          "duration": 0.22980746250000017
        },
        {
          "name": "D#2",
          "midi": 39,
          "time": 2.30769,
          "velocity": 0.6377952755905512,
          "duration": 0.22980746250000017
        },
        {
          "name": "A#2",
          "midi": 46,
          "time": 2.30769,
          "velocity": 0.6377952755905512,
          "duration": 0.22980746250000017
        },
        {
          "name": "D#3",
          "midi": 51,
          "time": 2.30769,
          "velocity": 0.6377952755905512,
          "duration": 0.22980746250000017
        },
        {
          "name": "E2",
          "midi": 40,
          "time": 2.769228,
          "velocity": 0.6535433070866141,
          "duration": 0.22980746250000017
        },
        {
          "name": "B2",
          "midi": 47,
          "time": 2.769228,
          "velocity": 0.6535433070866141,
          "duration": 0.22980746250000017
        },
        {
          "name": "E3",
          "midi": 52,
          "time": 2.769228,
          "velocity": 0.6535433070866141,
          "duration": 0.22980746250000017
        },
        {
          "name": "E2",
          "midi": 40,
          "time": 3.230766,
          "velocity": 0.6692913385826772,
          "duration": 0.22980746250000017
        },
        {
          "name": "B2",
          "midi": 47,
          "time": 3.230766,
          "velocity": 0.6692913385826772,
          "duration": 0.22980746250000017
        },
        {
          "name": "E3",
          "midi": 52,
          "time": 3.230766,
          "velocity": 0.6692913385826772,
          "duration": 0.22980746250000017
        },
        {
          "name": "D#2",
          "midi": 39,
          "time": 3.692304,
          "velocity": 0.6850393700787402,
          "duration": 0.22980746250000017
        },
        {
          "name": "A#2",
          "midi": 46,
          "time": 3.692304,
          "velocity": 0.6850393700787402,
          "duration": 0.22980746250000017
        },
        {
          "name": "D#3",
          "midi": 51,
          "time": 3.692304,
          "velocity": 0.6850393700787402,
          "duration": 0.22980746250000017
        },
        {
          "name": "D#2",
          "midi": 39,
          "time": 4.153842,
          "velocity": 0.7007874015748031,
          "duration": 0.22980746250000017
        },
        {
          "name": "A#2",
          "midi": 46,
          "time": 4.153842,
          "velocity": 0.7007874015748031,
          "duration": 0.22980746250000017
        },
        {
          "name": "D#3",
          "midi": 51,
          "time": 4.153842,
          "velocity": 0.7007874015748031,
          "duration": 0.22980746250000017
        },
        {
          "name": "E2",
          "midi": 40,
          "time": 4.61538,
          "velocity": 0.7165354330708661,
          "duration": 0.22980746250000017
        },
        {
          "name": "B2",
          "midi": 47,
          "time": 4.61538,
          "velocity": 0.7165354330708661,
          "duration": 0.22980746250000017
        },
        {
          "name": "E3",
          "midi": 52,
          "time": 4.61538,
          "velocity": 0.7165354330708661,
          "duration": 0.22980746250000017
        },
        {
          "name": "E2",
          "midi": 40,
          "time": 5.076918,
          "velocity": 0.7322834645669292,
          "duration": 0.22980746250000017
        },
        {
          "name": "B2",
          "midi": 47,
          "time": 5.076918,
          "velocity": 0.7322834645669292,
          "duration": 0.22980746250000017
        },
        {
          "name": "E3",
          "midi": 52,
          "time": 5.076918,
          "velocity": 0.7322834645669292,
          "duration": 0.22980746250000017
        },
        {
          "name": "D#2",
          "midi": 39,
          "time": 5.538456,
          "velocity": 0.7480314960629921,
          "duration": 0.22980746250000017
        },
        {
          "name": "A#2",
          "midi": 46,
          "time": 5.538456,
          "velocity": 0.7480314960629921,
          "duration": 0.22980746250000017
        },
        {
          "name": "D#3",
          "midi": 51,
          "time": 5.538456,
          "velocity": 0.7480314960629921,
          "duration": 0.22980746250000017
        },
        {
          "name": "D#2",
          "midi": 39,
          "time": 5.999994,
          "velocity": 0.7637795275590551,
          "duration": 0.22980746250000017
        },
        {
          "name": "A#2",
          "midi": 46,
          "time": 5.999994,
          "velocity": 0.7637795275590551,
          "duration": 0.22980746250000017
        },
        {
          "name": "D#3",
          "midi": 51,
          "time": 5.999994,
          "velocity": 0.7637795275590551,
          "duration": 0.22980746250000017
        },
        {
          "name": "E2",
          "midi": 40,
          "time": 6.461532,
          "velocity": 0.7795275590551181,
          "duration": 0.22980746250000017
        },
        {
          "name": "B2",
          "midi": 47,
          "time": 6.461532,
          "velocity": 0.7795275590551181,
          "duration": 0.22980746250000017
        },
        {
          "name": "E3",
          "midi": 52,
          "time": 6.461532,
          "velocity": 0.7795275590551181,
          "duration": 0.22980746250000017
        },
        {
          "name": "E2",
          "midi": 40,
          "time": 6.92307,
          "velocity": 0.7952755905511811,
          "duration": 0.22980746250000017
        },
        {
          "name": "B2",
          "midi": 47,
          "time": 6.92307,
          "velocity": 0.7952755905511811,
          "duration": 0.22980746250000017
        },
        {
          "name": "E3",
          "midi": 52,
          "time": 6.92307,
          "velocity": 0.7952755905511811,
          "duration": 0.22980746250000017
        },
        {
          "name": "F#2",
          "midi": 42,
          "time": 7.384608,
          "velocity": 0.8110236220472441,
          "duration": 0.22980746250000017
        },
        {
          "name": "C#3",
          "midi": 49,
          "time": 7.384608,
          "velocity": 0.8110236220472441,
          "duration": 0.22980746250000017
        },
        {
          "name": "F#3",
          "midi": 54,
          "time": 7.384608,
          "velocity": 0.8110236220472441,
          "duration": 0.22980746250000017
        },
        {
          "name": "F#2",
          "midi": 42,
          "time": 7.846146,
          "velocity": 0.8267716535433071,
          "duration": 0.22980746249999928
        },
        {
          "name": "C#3",
          "midi": 49,
          "time": 7.846146,
          "velocity": 0.8267716535433071,
          "duration": 0.22980746249999928
        },
        {
          "name": "F#3",
          "midi": 54,
          "time": 7.846146,
          "velocity": 0.8267716535433071,
          "duration": 0.22980746249999928
        },
        {
          "name": "E2",
          "midi": 40,
          "time": 8.307684,
          "velocity": 0.84251968503937,
          "duration": 0.22980746250000017
        },
        {
          "name": "B2",
          "midi": 47,
          "time": 8.307684,
          "velocity": 0.84251968503937,
          "duration": 0.22980746250000017
        },
        {
          "name": "E3",
          "midi": 52,
          "time": 8.307684,
          "velocity": 0.84251968503937,
          "duration": 0.22980746250000017
        },
        {
          "name": "E2",
          "midi": 40,
          "time": 8.769222000000001,
          "velocity": 0.8582677165354331,
          "duration": 0.22980746250000017
        },
        {
          "name": "B2",
          "midi": 47,
          "time": 8.769222000000001,
          "velocity": 0.8582677165354331,
          "duration": 0.22980746250000017
        },
        {
          "name": "E3",
          "midi": 52,
          "time": 8.769222000000001,
          "velocity": 0.8582677165354331,
          "duration": 0.22980746250000017
        },
        {
          "name": "D#2",
          "midi": 39,
          "time": 9.230760000000002,
          "velocity": 0.8818897637795275,
          "duration": 1.7528828625
        },
        {
          "name": "A#2",
          "midi": 46,
          "time": 9.230760000000002,
          "velocity": 0.8818897637795275,
          "duration": 1.7528828625
        },
        {
          "name": "D#3",
          "midi": 51,
          "time": 9.230760000000002,
          "velocity": 0.8818897637795275,
          "duration": 1.7528828625
        },
        {
          "name": "A#3",
          "midi": 58,
          "time": 10.615374000000003,
          "velocity": 0.8818897637795275,
          "duration": 0.09134606249999955
        },
        {
          "name": "D#4",
          "midi": 63,
          "time": 10.707681600000003,
          "velocity": 0.8818897637795275,
          "duration": 0.09134606249999955
        },
        {
          "name": "A#3",
          "midi": 58,
          "time": 10.799989200000002,
          "velocity": 0.8818897637795275,
          "duration": 0.09134606249999955
        },
        {
          "name": "F#3",
          "midi": 54,
          "time": 10.892296800000002,
          "velocity": 0.8818897637795275,
          "duration": 0.09134606249999955
        },
        {
          "name": "D#3",
          "midi": 51,
          "time": 10.984604400000002,
          "velocity": 0.8818897637795275,
          "duration": 0.08653837499999995
        },
        {
          "name": "D#1",
          "midi": 27,
          "time": 11.076912000000002,
          "velocity": 0.8818897637795275,
          "duration": 0.43749956249999933
        },
        {
          "name": "D#2",
          "midi": 39,
          "time": 11.076912000000002,
          "velocity": 0.8818897637795275,
          "duration": 0.43749956249999933
        },
        {
          "name": "D#3",
          "midi": 51,
          "time": 12.923064000000002,
          "velocity": 0.6299212598425197,
          "duration": 0.21826901250000041
        },
        {
          "name": "D#2",
          "midi": 39,
          "time": 12.923064000000002,
          "velocity": 0.6299212598425197,
          "duration": 0.6567301125
        },
        {
          "name": "A#2",
          "midi": 46,
          "time": 13.153833000000002,
          "velocity": 0.6299212598425197,
          "duration": 0.21826901250000041
        },
        {
          "name": "D#3",
          "midi": 51,
          "time": 13.384602000000003,
          "velocity": 0.6299212598425197,
          "duration": 0.21826901249999864
        },
        {
          "name": "A#3",
          "midi": 58,
          "time": 13.615371000000001,
          "velocity": 0.6299212598425197,
          "duration": 0.21826901250000041
        },
        {
          "name": "A#2",
          "midi": 46,
          "time": 13.615371000000001,
          "velocity": 0.6299212598425197,
          "duration": 0.4615380000000009
        },
        {
          "name": "F#3",
          "midi": 54,
          "time": 13.846140000000002,
          "velocity": 0.6299212598425197,
          "duration": 0.21826901250000041
        },
        {
          "name": "A#2",
          "midi": 46,
          "time": 14.076909000000002,
          "velocity": 0.6299212598425197,
          "duration": 0.21826901250000041
        },
        {
          "name": "D#3",
          "midi": 51,
          "time": 14.307678000000003,
          "velocity": 0.6299212598425197,
          "duration": 0.21826901250000041
        },
        {
          "name": "D#2",
          "midi": 39,
          "time": 14.307678000000003,
          "velocity": 0.6299212598425197,
          "duration": 0.4374995625000011
        },
        {
          "name": "A#2",
          "midi": 46,
          "time": 14.538447000000003,
          "velocity": 0.6299212598425197,
          "duration": 0.21826901250000041
        },
        {
          "name": "A#3",
          "midi": 58,
          "time": 14.769216000000004,
          "velocity": 0.6299212598425197,
          "duration": 0.21826901250000041
        },
        {
          "name": "A#2",
          "midi": 46,
          "time": 14.769216000000004,
          "velocity": 0.6299212598425197,
          "duration": 0.6567301125
        },
        {
          "name": "F3",
          "midi": 53,
          "time": 14.999985000000004,
          "velocity": 0.6299212598425197,
          "duration": 0.21826901250000041
        },
        {
          "name": "A#3",
          "midi": 58,
          "time": 15.230754000000005,
          "velocity": 0.6299212598425197,
          "duration": 0.21826901249999864
        },
        {
          "name": "F4",
          "midi": 65,
          "time": 15.461523000000003,
          "velocity": 0.6299212598425197,
          "duration": 0.21826901250000041
        },
        {
          "name": "F3",
          "midi": 53,
          "time": 15.461523000000003,
          "velocity": 0.6299212598425197,
          "duration": 0.4615380000000009
        },
        {
          "name": "C#4",
          "midi": 61,
          "time": 15.692292000000004,
          "velocity": 0.6299212598425197,
          "duration": 0.21826901250000041
        },
        {
          "name": "F3",
          "midi": 53,
          "time": 15.923061000000004,
          "velocity": 0.6299212598425197,
          "duration": 0.21826901249999864
        },
        {
          "name": "A#3",
          "midi": 58,
          "time": 16.153830000000003,
          "velocity": 0.6299212598425197,
          "duration": 0.21826901249999864
        },
        {
          "name": "A#2",
          "midi": 46,
          "time": 16.153830000000003,
          "velocity": 0.6299212598425197,
          "duration": 0.43749956249999755
        },
        {
          "name": "F3",
          "midi": 53,
          "time": 16.384599,
          "velocity": 0.6299212598425197,
          "duration": 0.21826901249999864
        },
        {
          "name": "F#3",
          "midi": 54,
          "time": 16.615368,
          "velocity": 0.6299212598425197,
          "duration": 0.2182690125000022
        },
        {
          "name": "F#2",
          "midi": 42,
          "time": 16.615368,
          "velocity": 0.6299212598425197,
          "duration": 0.6567301125
        },
        {
          "name": "C#3",
          "midi": 49,
          "time": 16.846137000000002,
          "velocity": 0.6299212598425197,
          "duration": 0.21826901249999864
        },
        {
          "name": "F#3",
          "midi": 54,
          "time": 17.076906,
          "velocity": 0.6299212598425197,
          "duration": 0.21826901249999864
        },
        {
          "name": "C#4",
          "midi": 61,
          "time": 17.307675,
          "velocity": 0.6299212598425197,
          "duration": 0.21826901249999864
        },
        {
          "name": "C#3",
          "midi": 49,
          "time": 17.307675,
          "velocity": 0.6299212598425197,
          "duration": 0.46153799999999734
        },
        {
          "name": "A#3",
          "midi": 58,
          "time": 17.538444,
          "velocity": 0.6299212598425197,
          "duration": 0.21826901249999864
        },
        {
          "name": "C#3",
          "midi": 49,
          "time": 17.769212999999997,
          "velocity": 0.6299212598425197,
          "duration": 0.21826901249999864
        },
        {
          "name": "F#3",
          "midi": 54,
          "time": 17.999981999999996,
          "velocity": 0.6299212598425197,
          "duration": 0.21826901249999864
        },
        {
          "name": "F#2",
          "midi": 42,
          "time": 17.999981999999996,
          "velocity": 0.6299212598425197,
          "duration": 0.43749956249999755
        },
        {
          "name": "C#3",
          "midi": 49,
          "time": 18.230750999999994,
          "velocity": 0.6299212598425197,
          "duration": 0.21826901249999864
        },
        {
          "name": "B3",
          "midi": 59,
          "time": 18.461519999999993,
          "velocity": 0.6299212598425197,
          "duration": 0.2182690125000022
        },
        {
          "name": "B2",
          "midi": 47,
          "time": 18.461519999999993,
          "velocity": 0.6299212598425197,
          "duration": 0.6567301125
        },
        {
          "name": "F#3",
          "midi": 54,
          "time": 18.692288999999995,
          "velocity": 0.6299212598425197,
          "duration": 0.21826901249999864
        },
        {
          "name": "B3",
          "midi": 59,
          "time": 18.923057999999994,
          "velocity": 0.6299212598425197,
          "duration": 0.21826901249999864
        },
        {
          "name": "F#4",
          "midi": 66,
          "time": 19.153826999999993,
          "velocity": 0.6299212598425197,
          "duration": 0.21826901249999864
        },
        {
          "name": "F#3",
          "midi": 54,
          "time": 19.153826999999993,
          "velocity": 0.6299212598425197,
          "duration": 0.46153799999999734
        },
        {
          "name": "D#4",
          "midi": 63,
          "time": 19.38459599999999,
          "velocity": 0.6299212598425197,
          "duration": 0.21826901249999864
        },
        {
          "name": "F#3",
          "midi": 54,
          "time": 19.61536499999999,
          "velocity": 0.6299212598425197,
          "duration": 0.21826901249999864
        },
        {
          "name": "B3",
          "midi": 59,
          "time": 19.84613399999999,
          "velocity": 0.6299212598425197,
          "duration": 0.21826901249999864
        },
        {
          "name": "B2",
          "midi": 47,
          "time": 19.84613399999999,
          "velocity": 0.6299212598425197,
          "duration": 0.43749956249999755
        },
        {
          "name": "F#3",
          "midi": 54,
          "time": 20.076902999999987,
          "velocity": 0.6299212598425197,
          "duration": 0.21826901249999864
        },
        {
          "name": "D#3",
          "midi": 51,
          "time": 20.307671999999986,
          "velocity": 0.6299212598425197,
          "duration": 0.4374995625000011
        },
        {
          "name": "A#3",
          "midi": 58,
          "time": 20.307671999999986,
          "velocity": 0.6299212598425197,
          "duration": 0.4374995625000011
        },
        {
          "name": "F#3",
          "midi": 54,
          "time": 20.769209999999987,
          "velocity": 0.6299212598425197,
          "duration": 0.21826901249999864
        },
        {
          "name": "D#3",
          "midi": 51,
          "time": 20.999978999999986,
          "velocity": 0.6299212598425197,
          "duration": 0.4374995625000011
        },
        {
          "name": "A#3",
          "midi": 58,
          "time": 20.999978999999986,
          "velocity": 0.6299212598425197,
          "duration": 0.4374995625000011
        },
        {
          "name": "F#3",
          "midi": 54,
          "time": 21.461516999999986,
          "velocity": 0.6299212598425197,
          "duration": 0.21826901249999864
        },
        {
          "name": "D#3",
          "midi": 51,
          "time": 21.692285999999985,
          "velocity": 0.6299212598425197,
          "duration": 0.4374995625000011
        },
        {
          "name": "A#3",
          "midi": 58,
          "time": 21.692285999999985,
          "velocity": 0.6299212598425197,
          "duration": 0.4374995625000011
        },
        {
          "name": "A#2",
          "midi": 46,
          "time": 22.153823999999986,
          "velocity": 0.6299212598425197,
          "duration": 0.4374995625000011
        },
        {
          "name": "F3",
          "midi": 53,
          "time": 22.153823999999986,
          "velocity": 0.6299212598425197,
          "duration": 0.4374995625000011
        },
        {
          "name": "C#3",
          "midi": 49,
          "time": 22.615361999999987,
          "velocity": 0.6299212598425197,
          "duration": 0.21826901249999864
        },
        {
          "name": "A#2",
          "midi": 46,
          "time": 22.846130999999986,
          "velocity": 0.6299212598425197,
          "duration": 0.4374995625000011
        },
        {
          "name": "F3",
          "midi": 53,
          "time": 22.846130999999986,
          "velocity": 0.6299212598425197,
          "duration": 0.4374995625000011
        },
        {
          "name": "C#3",
          "midi": 49,
          "time": 23.307668999999986,
          "velocity": 0.6299212598425197,
          "duration": 0.21826901249999864
        },
        {
          "name": "A#2",
          "midi": 46,
          "time": 23.538437999999985,
          "velocity": 0.6299212598425197,
          "duration": 0.4374995625000011
        },
        {
          "name": "F3",
          "midi": 53,
          "time": 23.538437999999985,
          "velocity": 0.6299212598425197,
          "duration": 0.4374995625000011
        },
        {
          "name": "F#3",
          "midi": 54,
          "time": 23.999975999999986,
          "velocity": 0.6299212598425197,
          "duration": 0.4374995625000011
        },
        {
          "name": "C#4",
          "midi": 61,
          "time": 23.999975999999986,
          "velocity": 0.6299212598425197,
          "duration": 0.4374995625000011
        },
        {
          "name": "A#3",
          "midi": 58,
          "time": 24.461513999999987,
          "velocity": 0.6299212598425197,
          "duration": 0.21826901249999864
        },
        {
          "name": "F#3",
          "midi": 54,
          "time": 24.692282999999986,
          "velocity": 0.6299212598425197,
          "duration": 0.4374995625000011
        },
        {
          "name": "C#4",
          "midi": 61,
          "time": 24.692282999999986,
          "velocity": 0.6299212598425197,
          "duration": 0.4374995625000011
        },
        {
          "name": "A#3",
          "midi": 58,
          "time": 25.153820999999986,
          "velocity": 0.6299212598425197,
          "duration": 0.21826901249999864
        },
        {
          "name": "F#3",
          "midi": 54,
          "time": 25.384589999999985,
          "velocity": 0.6299212598425197,
          "duration": 0.4374995625000011
        },
        {
          "name": "C#4",
          "midi": 61,
          "time": 25.384589999999985,
          "velocity": 0.6299212598425197,
          "duration": 0.4374995625000011
        },
        {
          "name": "B2",
          "midi": 47,
          "time": 25.846127999999986,
          "velocity": 0.6299212598425197,
          "duration": 0.4374995625000011
        },
        {
          "name": "F#3",
          "midi": 54,
          "time": 25.846127999999986,
          "velocity": 0.6299212598425197,
          "duration": 0.4374995625000011
        },
        {
          "name": "D#3",
          "midi": 51,
          "time": 26.307665999999987,
          "velocity": 0.6299212598425197,
          "duration": 0.21826901249999864
        },
        {
          "name": "B2",
          "midi": 47,
          "time": 26.538434999999986,
          "velocity": 0.6299212598425197,
          "duration": 0.4374995625000011
        },
        {
          "name": "F#3",
          "midi": 54,
          "time": 26.538434999999986,
          "velocity": 0.6299212598425197,
          "duration": 0.4374995625000011
        },
        {
          "name": "D#3",
          "midi": 51,
          "time": 26.999972999999986,
          "velocity": 0.6299212598425197,
          "duration": 0.21826901249999864
        },
        {
          "name": "B2",
          "midi": 47,
          "time": 27.230741999999985,
          "velocity": 0.6299212598425197,
          "duration": 0.4374995625000011
        },
        {
          "name": "F#3",
          "midi": 54,
          "time": 27.230741999999985,
          "velocity": 0.6299212598425197,
          "duration": 0.4374995625000011
        },
        {
          "name": "D#3",
          "midi": 51,
          "time": 27.692279999999986,
          "velocity": 0.6299212598425197,
          "duration": 0.10865373749999918
        },
        {
          "name": "D#2",
          "midi": 39,
          "time": 27.692279999999986,
          "velocity": 0.6299212598425197,
          "duration": 1.752882862499984
        },
        {
          "name": "A#2",
          "midi": 46,
          "time": 27.807664499999984,
          "velocity": 0.6299212598425197,
          "duration": 0.10865373749999918
        },
        {
          "name": "D#3",
          "midi": 51,
          "time": 27.92304899999998,
          "velocity": 0.6299212598425197,
          "duration": 0.10865373749999918
        },
        {
          "name": "F3",
          "midi": 53,
          "time": 28.03843349999998,
          "velocity": 0.6299212598425197,
          "duration": 0.10865373749999918
        },
        {
          "name": "F#3",
          "midi": 54,
          "time": 28.153817999999976,
          "velocity": 0.6299212598425197,
          "duration": 0.32788428750000165
        },
        {
          "name": "A#2",
          "midi": 46,
          "time": 28.49997149999998,
          "velocity": 0.6299212598425197,
          "duration": 0.10865373749999918
        },
        {
          "name": "D#3",
          "midi": 51,
          "time": 28.615355999999977,
          "velocity": 0.6299212598425197,
          "duration": 0.10865373749999918
        },
        {
          "name": "A#2",
          "midi": 46,
          "time": 28.730740499999975,
          "velocity": 0.6299212598425197,
          "duration": 0.10865373749999918
        },
        {
          "name": "D#3",
          "midi": 51,
          "time": 28.846124999999972,
          "velocity": 0.6299212598425197,
          "duration": 0.10865373749999918
        },
        {
          "name": "F3",
          "midi": 53,
          "time": 28.96150949999997,
          "velocity": 0.6299212598425197,
          "duration": 0.10865373749999918
        },
        {
          "name": "F#3",
          "midi": 54,
          "time": 29.076893999999967,
          "velocity": 0.6299212598425197,
          "duration": 0.32788428750000165
        },
        {
          "name": "D#3",
          "midi": 51,
          "time": 29.42304749999997,
          "velocity": 0.6299212598425197,
          "duration": 0.10865373749999918
        },
        {
          "name": "A#3",
          "midi": 58,
          "time": 29.53843199999997,
          "velocity": 0.6299212598425197,
          "duration": 0.10865373749999918
        },
        {
          "name": "A#2",
          "midi": 46,
          "time": 29.53843199999997,
          "velocity": 0.6299212598425197,
          "duration": 1.752882862499984
        },
        {
          "name": "F3",
          "midi": 53,
          "time": 29.653816499999966,
          "velocity": 0.6299212598425197,
          "duration": 0.10865373749999918
        },
        {
          "name": "G#3",
          "midi": 56,
          "time": 29.769200999999963,
          "velocity": 0.6299212598425197,
          "duration": 0.10865373749999918
        },
        {
          "name": "A#3",
          "midi": 58,
          "time": 29.88458549999996,
          "velocity": 0.6299212598425197,
          "duration": 0.10865373749999918
        },
        {
          "name": "C#4",
          "midi": 61,
          "time": 29.99996999999996,
          "velocity": 0.6299212598425197,
          "duration": 0.32788428750000165
        },
        {
          "name": "F3",
          "midi": 53,
          "time": 30.346123499999962,
          "velocity": 0.6299212598425197,
          "duration": 0.10865373749999918
        },
        {
          "name": "A#3",
          "midi": 58,
          "time": 30.46150799999996,
          "velocity": 0.6299212598425197,
          "duration": 0.10865373749999918
        },
        {
          "name": "F3",
          "midi": 53,
          "time": 30.576892499999957,
          "velocity": 0.6299212598425197,
          "duration": 0.10865373749999918
        },
        {
          "name": "G#3",
          "midi": 56,
          "time": 30.692276999999955,
          "velocity": 0.6299212598425197,
          "duration": 0.10865373749999918
        },
        {
          "name": "A#3",
          "midi": 58,
          "time": 30.807661499999952,
          "velocity": 0.6299212598425197,
          "duration": 0.10865373749999918
        },
        {
          "name": "C#4",
          "midi": 61,
          "time": 30.92304599999995,
          "velocity": 0.6299212598425197,
          "duration": 0.32788428750000165
        },
        {
          "name": "F3",
          "midi": 53,
          "time": 31.269199499999953,
          "velocity": 0.6299212598425197,
          "duration": 0.10865373749999918
        },
        {
          "name": "F#3",
          "midi": 54,
          "time": 31.38458399999995,
          "velocity": 0.6299212598425197,
          "duration": 0.10865373749999918
        },
        {
          "name": "F#2",
          "midi": 42,
          "time": 31.38458399999995,
          "velocity": 0.6299212598425197,
          "duration": 1.752882862499984
        },
        {
          "name": "C#3",
          "midi": 49,
          "time": 31.499968499999948,
          "velocity": 0.6299212598425197,
          "duration": 0.10865373749999918
        },
        {
          "name": "F#3",
          "midi": 54,
          "time": 31.615352999999946,
          "velocity": 0.6299212598425197,
          "duration": 0.10865373749999918
        },
        {
          "name": "G#3",
          "midi": 56,
          "time": 31.730737499999943,
          "velocity": 0.6299212598425197,
          "duration": 0.10865373749999918
        },
        {
          "name": "A#3",
          "midi": 58,
          "time": 31.84612199999994,
          "velocity": 0.6299212598425197,
          "duration": 0.32788428750000165
        },
        {
          "name": "C#3",
          "midi": 49,
          "time": 32.192275499999944,
          "velocity": 0.6299212598425197,
          "duration": 0.10865373749999918
        },
        {
          "name": "F#3",
          "midi": 54,
          "time": 32.30765999999994,
          "velocity": 0.6299212598425197,
          "duration": 0.10865373749999918
        },
        {
          "name": "C#3",
          "midi": 49,
          "time": 32.42304449999994,
          "velocity": 0.6299212598425197,
          "duration": 0.10865373749999918
        },
        {
          "name": "F#3",
          "midi": 54,
          "time": 32.53842899999994,
          "velocity": 0.6299212598425197,
          "duration": 0.10865373749999918
        },
        {
          "name": "G#3",
          "midi": 56,
          "time": 32.653813499999934,
          "velocity": 0.6299212598425197,
          "duration": 0.10865373749999918
        },
        {
          "name": "A#3",
          "midi": 58,
          "time": 32.76919799999993,
          "velocity": 0.6299212598425197,
          "duration": 0.3278842874999981
        },
        {
          "name": "F#3",
          "midi": 54,
          "time": 33.11535149999993,
          "velocity": 0.6299212598425197,
          "duration": 0.10865373750000629
        },
        {
          "name": "B3",
          "midi": 59,
          "time": 33.230735999999936,
          "velocity": 0.6299212598425197,
          "duration": 0.10865373749999208
        },
        {
          "name": "B2",
          "midi": 47,
          "time": 33.230735999999936,
          "velocity": 0.6299212598425197,
          "duration": 1.7528828624999733
        },
        {
          "name": "F#3",
          "midi": 54,
          "time": 33.34612049999993,
          "velocity": 0.6299212598425197,
          "duration": 0.10865373749999918
        },
        {
          "name": "B3",
          "midi": 59,
          "time": 33.461504999999924,
          "velocity": 0.6299212598425197,
          "duration": 0.10865373749999918
        },
        {
          "name": "C#4",
          "midi": 61,
          "time": 33.57688949999992,
          "velocity": 0.6299212598425197,
          "duration": 0.10865373749999918
        },
        {
          "name": "D#4",
          "midi": 63,
          "time": 33.69227399999992,
          "velocity": 0.6299212598425197,
          "duration": 0.3278842874999981
        },
        {
          "name": "F#3",
          "midi": 54,
          "time": 34.03842749999992,
          "velocity": 0.6299212598425197,
          "duration": 0.10865373749999918
        },
        {
          "name": "B3",
          "midi": 59,
          "time": 34.15381199999992,
          "velocity": 0.6299212598425197,
          "duration": 0.10865373749999918
        },
        {
          "name": "F#3",
          "midi": 54,
          "time": 34.269196499999914,
          "velocity": 0.6299212598425197,
          "duration": 0.10865373749999918
        },
        {
          "name": "B3",
          "midi": 59,
          "time": 34.38458099999991,
          "velocity": 0.6299212598425197,
          "duration": 0.10865373749999918
        },
        {
          "name": "C#4",
          "midi": 61,
          "time": 34.49996549999991,
          "velocity": 0.6299212598425197,
          "duration": 0.10865373749999918
        },
        {
          "name": "D#4",
          "midi": 63,
          "time": 34.61534999999991,
          "velocity": 0.6299212598425197,
          "duration": 0.3278842874999981
        },
        {
          "name": "F#3",
          "midi": 54,
          "time": 34.96150349999991,
          "velocity": 0.6299212598425197,
          "duration": 0.10865373750000629
        },
        {
          "name": "D#3",
          "midi": 51,
          "time": 35.07688799999991,
          "velocity": 0.6299212598425197,
          "duration": 0.10865373749999208
        },
        {
          "name": "D#2",
          "midi": 39,
          "time": 35.07688799999991,
          "velocity": 0.6299212598425197,
          "duration": 1.752882862499959
        },
        {
          "name": "A#2",
          "midi": 46,
          "time": 35.1922724999999,
          "velocity": 0.6299212598425197,
          "duration": 0.10865373749999918
        },
        {
          "name": "D#3",
          "midi": 51,
          "time": 35.3076569999999,
          "velocity": 0.6299212598425197,
          "duration": 0.10865373749999918
        },
        {
          "name": "F#3",
          "midi": 54,
          "time": 35.4230414999999,
          "velocity": 0.6377952755905512,
          "duration": 0.10865373749999918
        },
        {
          "name": "A#3",
          "midi": 58,
          "time": 35.538425999999895,
          "velocity": 0.6377952755905512,
          "duration": 0.10865373749999918
        },
        {
          "name": "F#3",
          "midi": 54,
          "time": 35.65381049999989,
          "velocity": 0.6377952755905512,
          "duration": 0.10865373749999918
        },
        {
          "name": "D#3",
          "midi": 51,
          "time": 35.76919499999989,
          "velocity": 0.6456692913385826,
          "duration": 0.10865373749999918
        },
        {
          "name": "A#2",
          "midi": 46,
          "time": 35.88457949999989,
          "velocity": 0.6456692913385826,
          "duration": 0.10865373749999918
        },
        {
          "name": "D#3",
          "midi": 51,
          "time": 35.999963999999885,
          "velocity": 0.6456692913385826,
          "duration": 0.10865373749999918
        },
        {
          "name": "A#2",
          "midi": 46,
          "time": 36.11534849999988,
          "velocity": 0.6535433070866141,
          "duration": 0.10865373749999918
        },
        {
          "name": "D#3",
          "midi": 51,
          "time": 36.23073299999988,
          "velocity": 0.6535433070866141,
          "duration": 0.10865373749999918
        },
        {
          "name": "F#3",
          "midi": 54,
          "time": 36.34611749999988,
          "velocity": 0.6535433070866141,
          "duration": 0.10865373749999918
        },
        {
          "name": "A#3",
          "midi": 58,
          "time": 36.461501999999875,
          "velocity": 0.6614173228346457,
          "duration": 0.10865373749999918
        },
        {
          "name": "F#3",
          "midi": 54,
          "time": 36.57688649999987,
          "velocity": 0.6614173228346457,
          "duration": 0.10865373749999918
        },
        {
          "name": "D#3",
          "midi": 51,
          "time": 36.69227099999987,
          "velocity": 0.6614173228346457,
          "duration": 0.10865373749999918
        },
        {
          "name": "A#2",
          "midi": 46,
          "time": 36.80765549999987,
          "velocity": 0.6692913385826772,
          "duration": 0.10865373750000629
        },
        {
          "name": "A#3",
          "midi": 58,
          "time": 36.92303999999987,
          "velocity": 0.6692913385826772,
          "duration": 0.10865373749999208
        },
        {
          "name": "A#2",
          "midi": 46,
          "time": 36.92303999999987,
          "velocity": 0.6692913385826772,
          "duration": 1.752882862499959
        },
        {
          "name": "F3",
          "midi": 53,
          "time": 37.03842449999986,
          "velocity": 0.6692913385826772,
          "duration": 0.10865373749999918
        },
        {
          "name": "A#3",
          "midi": 58,
          "time": 37.15380899999986,
          "velocity": 0.6771653543307087,
          "duration": 0.10865373749999918
        },
        {
          "name": "C#4",
          "midi": 61,
          "time": 37.26919349999986,
          "velocity": 0.6771653543307087,
          "duration": 0.10865373749999918
        },
        {
          "name": "F4",
          "midi": 65,
          "time": 37.384577999999856,
          "velocity": 0.6771653543307087,
          "duration": 0.10865373749999918
        },
        {
          "name": "C#4",
          "midi": 61,
          "time": 37.49996249999985,
          "velocity": 0.6850393700787402,
          "duration": 0.10865373749999918
        },
        {
          "name": "A#3",
          "midi": 58,
          "time": 37.61534699999985,
          "velocity": 0.6850393700787402,
          "duration": 0.10865373749999918
        },
        {
          "name": "F3",
          "midi": 53,
          "time": 37.73073149999985,
          "velocity": 0.6850393700787402,
          "duration": 0.10865373749999918
        },
        {
          "name": "A#3",
          "midi": 58,
          "time": 37.846115999999846,
          "velocity": 0.6929133858267716,
          "duration": 0.10865373749999918
        },
        {
          "name": "F3",
          "midi": 53,
          "time": 37.96150049999984,
          "velocity": 0.6929133858267716,
          "duration": 0.10865373749999918
        },
        {
          "name": "A#3",
          "midi": 58,
          "time": 38.07688499999984,
          "velocity": 0.6929133858267716,
          "duration": 0.10865373749999918
        },
        {
          "name": "C#4",
          "midi": 61,
          "time": 38.19226949999984,
          "velocity": 0.7007874015748031,
          "duration": 0.10865373749999918
        },
        {
          "name": "F4",
          "midi": 65,
          "time": 38.307653999999836,
          "velocity": 0.7007874015748031,
          "duration": 0.10865373749999918
        },
        {
          "name": "C#4",
          "midi": 61,
          "time": 38.423038499999834,
          "velocity": 0.7007874015748031,
          "duration": 0.10865373749999918
        },
        {
          "name": "A#3",
          "midi": 58,
          "time": 38.53842299999983,
          "velocity": 0.7086614173228346,
          "duration": 0.10865373749999918
        },
        {
          "name": "F3",
          "midi": 53,
          "time": 38.65380749999983,
          "velocity": 0.7086614173228346,
          "duration": 0.10865373750000629
        },
        {
          "name": "F#3",
          "midi": 54,
          "time": 38.76919199999983,
          "velocity": 0.7086614173228346,
          "duration": 0.10865373749999208
        },
        {
          "name": "F#2",
          "midi": 42,
          "time": 38.76919199999983,
          "velocity": 0.7086614173228346,
          "duration": 1.752882862499959
        },
        {
          "name": "C#3",
          "midi": 49,
          "time": 38.884576499999824,
          "velocity": 0.7165354330708661,
          "duration": 0.10865373749999918
        },
        {
          "name": "F#3",
          "midi": 54,
          "time": 38.99996099999982,
          "velocity": 0.7165354330708661,
          "duration": 0.10865373749999918
        },
        {
          "name": "A#3",
          "midi": 58,
          "time": 39.11534549999982,
          "velocity": 0.7165354330708661,
          "duration": 0.10865373749999918
        },
        {
          "name": "C#4",
          "midi": 61,
          "time": 39.23072999999982,
          "velocity": 0.7244094488188977,
          "duration": 0.10865373749999918
        },
        {
          "name": "A#3",
          "midi": 58,
          "time": 39.346114499999814,
          "velocity": 0.7244094488188977,
          "duration": 0.10865373749999918
        },
        {
          "name": "F#3",
          "midi": 54,
          "time": 39.46149899999981,
          "velocity": 0.7244094488188977,
          "duration": 0.10865373749999918
        },
        {
          "name": "C#3",
          "midi": 49,
          "time": 39.57688349999981,
          "velocity": 0.7322834645669292,
          "duration": 0.10865373749999918
        },
        {
          "name": "F#3",
          "midi": 54,
          "time": 39.69226799999981,
          "velocity": 0.7322834645669292,
          "duration": 0.10865373749999918
        },
        {
          "name": "C#3",
          "midi": 49,
          "time": 39.807652499999804,
          "velocity": 0.7322834645669292,
          "duration": 0.10865373749999918
        },
        {
          "name": "F#3",
          "midi": 54,
          "time": 39.9230369999998,
          "velocity": 0.7401574803149606,
          "duration": 0.10865373749999918
        },
        {
          "name": "A#3",
          "midi": 58,
          "time": 40.0384214999998,
          "velocity": 0.7401574803149606,
          "duration": 0.10865373749999918
        },
        {
          "name": "C#4",
          "midi": 61,
          "time": 40.1538059999998,
          "velocity": 0.7401574803149606,
          "duration": 0.10865373749999918
        },
        {
          "name": "A#3",
          "midi": 58,
          "time": 40.269190499999794,
          "velocity": 0.7480314960629921,
          "duration": 0.10865373749999918
        },
        {
          "name": "F#3",
          "midi": 54,
          "time": 40.38457499999979,
          "velocity": 0.7480314960629921,
          "duration": 0.10865373749999918
        },
        {
          "name": "C#3",
          "midi": 49,
          "time": 40.49995949999979,
          "velocity": 0.7480314960629921,
          "duration": 0.10865373750000629
        },
        {
          "name": "D#2",
          "midi": 39,
          "time": 42.4614959999998,
          "velocity": 0.7559055118110236,
          "duration": 0.437499562499994
        },
        {
          "name": "D#3",
          "midi": 51,
          "time": 42.4614959999998,
          "velocity": 0.7559055118110236,
          "duration": 0.23076899999999512
        },
        {
          "name": "D#2",
          "midi": 39,
          "time": 42.4614959999998,
          "velocity": 0.7559055118110236,
          "duration": 3.692303999999929
        },
        {
          "name": "A#2",
          "midi": 46,
          "time": 42.576880499999795,
          "velocity": 0.7559055118110236,
          "duration": 0.10865373749999918
        },
        {
          "name": "D#3",
          "midi": 51,
          "time": 42.69226499999979,
          "velocity": 0.7559055118110236,
          "duration": 0.20673056249999888
        },
        {
          "name": "A#2",
          "midi": 46,
          "time": 42.80764949999979,
          "velocity": 0.7559055118110236,
          "duration": 0.10865373749999918
        },
        {
          "name": "D#3",
          "midi": 51,
          "time": 42.92303399999979,
          "velocity": 0.7559055118110236,
          "duration": 0.21826901249999509
        },
        {
          "name": "D#3",
          "midi": 51,
          "time": 42.92303399999979,
          "velocity": 0.7559055118110236,
          "duration": 0.45480723749999186
        },
        {
          "name": "A#2",
          "midi": 46,
          "time": 43.038418499999786,
          "velocity": 0.7559055118110236,
          "duration": 0.10865373749999918
        },
        {
          "name": "F#3",
          "midi": 54,
          "time": 43.15380299999978,
          "velocity": 0.7559055118110236,
          "duration": 0.21826901249999509
        },
        {
          "name": "F#3",
          "midi": 54,
          "time": 43.15380299999978,
          "velocity": 0.7559055118110236,
          "duration": 0.5701917374999894
        },
        {
          "name": "D#3",
          "midi": 51,
          "time": 43.26918749999978,
          "velocity": 0.7559055118110236,
          "duration": 0.3394227374999943
        },
        {
          "name": "B3",
          "midi": 59,
          "time": 43.38457199999978,
          "velocity": 0.7559055118110236,
          "duration": 0.437499562499994
        },
        {
          "name": "B3",
          "midi": 59,
          "time": 43.38457199999978,
          "velocity": 0.7559055118110236,
          "duration": 1.1538449999999756
        },
        {
          "name": "D#3",
          "midi": 51,
          "time": 43.499956499999776,
          "velocity": 0.7559055118110236,
          "duration": 0.3394227374999943
        },
        {
          "name": "F#3",
          "midi": 54,
          "time": 43.61534099999977,
          "velocity": 0.7559055118110236,
          "duration": 0.45480723749999186
        },
        {
          "name": "D#3",
          "midi": 51,
          "time": 43.73072549999977,
          "velocity": 0.7559055118110236,
          "duration": 1.4999984999999683
        },
        {
          "name": "D#4",
          "midi": 63,
          "time": 43.84610999999977,
          "velocity": 0.7559055118110236,
          "duration": 0.437499562499994
        },
        {
          "name": "D#4",
          "midi": 63,
          "time": 43.84610999999977,
          "velocity": 0.7559055118110236,
          "duration": 1.8221135624999647
        },
        {
          "name": "F#3",
          "midi": 54,
          "time": 43.961494499999766,
          "velocity": 0.7559055118110236,
          "duration": 0.3394227374999943
        },
        {
          "name": "A#3",
          "midi": 58,
          "time": 44.076878999999764,
          "velocity": 0.7559055118110236,
          "duration": 0.10865373749999918
        },
        {
          "name": "F#3",
          "midi": 54,
          "time": 44.19226349999976,
          "velocity": 0.7559055118110236,
          "duration": 1.2624987374999748
        },
        {
          "name": "E4",
          "midi": 64,
          "time": 44.30764799999976,
          "velocity": 0.7559055118110236,
          "duration": 0.21826901249999509
        },
        {
          "name": "E4",
          "midi": 64,
          "time": 44.30764799999976,
          "velocity": 0.7559055118110236,
          "duration": 0.46153799999999023
        },
        {
          "name": "G#3",
          "midi": 56,
          "time": 44.423032499999756,
          "velocity": 0.7559055118110236,
          "duration": 0.10865373749999918
        },
        {
          "name": "B3",
          "midi": 59,
          "time": 44.538416999999754,
          "velocity": 0.7559055118110236,
          "duration": 0.21826901249999509
        },
        {
          "name": "B3",
          "midi": 59,
          "time": 44.538416999999754,
          "velocity": 0.7559055118110236,
          "duration": 0.5701917374999894
        },
        {
          "name": "G#3",
          "midi": 56,
          "time": 44.65380149999975,
          "velocity": 0.7559055118110236,
          "duration": 0.10865373749999918
        },
        {
          "name": "E4",
          "midi": 64,
          "time": 44.76918599999975,
          "velocity": 0.7559055118110236,
          "duration": 0.437499562499994
        },
        {
          "name": "E4",
          "midi": 64,
          "time": 44.76918599999975,
          "velocity": 0.7559055118110236,
          "duration": 3.2307659999999387
        },
        {
          "name": "G#3",
          "midi": 56,
          "time": 44.88457049999975,
          "velocity": 0.7559055118110236,
          "duration": 0.10865373749999918
        },
        {
          "name": "B3",
          "midi": 59,
          "time": 44.999954999999744,
          "velocity": 0.7559055118110236,
          "duration": 2.076920999999963
        },
        {
          "name": "G#3",
          "midi": 56,
          "time": 45.11533949999974,
          "velocity": 0.7559055118110236,
          "duration": 0.10865373749999918
        },
        {
          "name": "D#3",
          "midi": 51,
          "time": 45.23072399999974,
          "velocity": 0.7559055118110236,
          "duration": 0.437499562499994
        },
        {
          "name": "D#4",
          "midi": 63,
          "time": 45.23072399999974,
          "velocity": 0.7559055118110236,
          "duration": 0.5701917374999894
        },
        {
          "name": "D#3",
          "midi": 51,
          "time": 45.23072399999974,
          "velocity": 0.7559055118110236,
          "duration": 1.1538449999999827
        },
        {
          "name": "F#3",
          "midi": 54,
          "time": 45.34610849999974,
          "velocity": 0.7559055118110236,
          "duration": 0.3394227374999943
        },
        {
          "name": "A#3",
          "midi": 58,
          "time": 45.461492999999734,
          "velocity": 0.7559055118110236,
          "duration": 0.10865373749999918
        },
        {
          "name": "F#3",
          "midi": 54,
          "time": 45.57687749999973,
          "velocity": 0.7559055118110236,
          "duration": 0.3394227374999943
        },
        {
          "name": "D#4",
          "midi": 63,
          "time": 45.69226199999973,
          "velocity": 0.7559055118110236,
          "duration": 1.846151999999968
        },
        {
          "name": "F#3",
          "midi": 54,
          "time": 45.80764649999973,
          "velocity": 0.7559055118110236,
          "duration": 1.0384604999999851
        },
        {
          "name": "A#3",
          "midi": 58,
          "time": 45.923030999999725,
          "velocity": 0.7559055118110236,
          "duration": 0.2182690125000022
        },
        {
          "name": "D#2",
          "midi": 39,
          "time": 46.15379999999973,
          "velocity": 0.7559055118110236,
          "duration": 0.437499562499994
        },
        {
          "name": "D#3",
          "midi": 51,
          "time": 46.15379999999973,
          "velocity": 0.7559055118110236,
          "duration": 0.437499562499994
        },
        {
          "name": "D#2",
          "midi": 39,
          "time": 46.15379999999973,
          "velocity": 0.7559055118110236,
          "duration": 3.692303999999929
        },
        {
          "name": "A#2",
          "midi": 46,
          "time": 46.269184499999724,
          "velocity": 0.7559055118110236,
          "duration": 0.10865373749999918
        },
        {
          "name": "D#3",
          "midi": 51,
          "time": 46.38456899999972,
          "velocity": 0.7559055118110236,
          "duration": 0.23076899999999512
        },
        {
          "name": "A#2",
          "midi": 46,
          "time": 46.49995349999972,
          "velocity": 0.7559055118110236,
          "duration": 0.10865373749999918
        },
        {
          "name": "D#3",
          "midi": 51,
          "time": 46.61533799999972,
          "velocity": 0.7559055118110236,
          "duration": 0.21826901249999509
        },
        {
          "name": "D#3",
          "midi": 51,
          "time": 46.61533799999972,
          "velocity": 0.7559055118110236,
          "duration": 0.45480723749999186
        },
        {
          "name": "A#2",
          "midi": 46,
          "time": 46.730722499999715,
          "velocity": 0.7559055118110236,
          "duration": 0.10865373749999918
        },
        {
          "name": "F#3",
          "midi": 54,
          "time": 46.84610699999971,
          "velocity": 0.7559055118110236,
          "duration": 0.21826901249999509
        },
        {
          "name": "F#3",
          "midi": 54,
          "time": 46.84610699999971,
          "velocity": 0.7559055118110236,
          "duration": 0.5701917374999894
        },
        {
          "name": "D#3",
          "midi": 51,
          "time": 46.96149149999971,
          "velocity": 0.7559055118110236,
          "duration": 0.3394227374999943
        },
        {
          "name": "B3",
          "midi": 59,
          "time": 47.07687599999971,
          "velocity": 0.7559055118110236,
          "duration": 0.437499562499994
        },
        {
          "name": "B3",
          "midi": 59,
          "time": 47.07687599999971,
          "velocity": 0.7559055118110236,
          "duration": 1.1538449999999756
        },
        {
          "name": "D#3",
          "midi": 51,
          "time": 47.192260499999705,
          "velocity": 0.7559055118110236,
          "duration": 0.3394227374999943
        },
        {
          "name": "F#3",
          "midi": 54,
          "time": 47.3076449999997,
          "velocity": 0.7559055118110236,
          "duration": 0.45480723749999186
        },
        {
          "name": "D#3",
          "midi": 51,
          "time": 47.4230294999997,
          "velocity": 0.7559055118110236,
          "duration": 1.4999984999999683
        },
        {
          "name": "D#4",
          "midi": 63,
          "time": 47.5384139999997,
          "velocity": 0.7559055118110236,
          "duration": 0.23076899999999512
        },
        {
          "name": "D#4",
          "midi": 63,
          "time": 47.5384139999997,
          "velocity": 0.7559055118110236,
          "duration": 1.8221135624999647
        },
        {
          "name": "F#3",
          "midi": 54,
          "time": 47.653798499999695,
          "velocity": 0.7559055118110236,
          "duration": 0.3394227374999943
        },
        {
          "name": "A#3",
          "midi": 58,
          "time": 47.76918299999969,
          "velocity": 0.7559055118110236,
          "duration": 0.10865373749999918
        },
        {
          "name": "F#3",
          "midi": 54,
          "time": 47.88456749999969,
          "velocity": 0.7559055118110236,
          "duration": 1.2624987374999748
        },
        {
          "name": "E4",
          "midi": 64,
          "time": 47.99995199999969,
          "velocity": 0.7559055118110236,
          "duration": 0.21826901249999509
        },
        {
          "name": "E4",
          "midi": 64,
          "time": 47.99995199999969,
          "velocity": 0.7559055118110236,
          "duration": 0.46153799999999023
        },
        {
          "name": "G#3",
          "midi": 56,
          "time": 48.115336499999685,
          "velocity": 0.7559055118110236,
          "duration": 0.10865373749999918
        },
        {
          "name": "B3",
          "midi": 59,
          "time": 48.23072099999968,
          "velocity": 0.7559055118110236,
          "duration": 0.21826901249999509
        },
        {
          "name": "B3",
          "midi": 59,
          "time": 48.23072099999968,
          "velocity": 0.7559055118110236,
          "duration": 0.5701917374999894
        },
        {
          "name": "G#3",
          "midi": 56,
          "time": 48.34610549999968,
          "velocity": 0.7559055118110236,
          "duration": 0.10865373749999918
        },
        {
          "name": "E4",
          "midi": 64,
          "time": 48.46148999999968,
          "velocity": 0.7559055118110236,
          "duration": 0.23076899999999512
        },
        {
          "name": "E4",
          "midi": 64,
          "time": 48.46148999999968,
          "velocity": 0.7559055118110236,
          "duration": 10.615373999999797
        },
        {
          "name": "G#3",
          "midi": 56,
          "time": 48.576874499999676,
          "velocity": 0.7559055118110236,
          "duration": 0.10865373749999918
        },
        {
          "name": "B3",
          "midi": 59,
          "time": 48.69225899999967,
          "velocity": 0.7559055118110236,
          "duration": 9.461528999999821
        },
        {
          "name": "G#3",
          "midi": 56,
          "time": 48.80764349999967,
          "velocity": 0.7559055118110236,
          "duration": 0.10865373749999918
        },
        {
          "name": "D#3",
          "midi": 51,
          "time": 48.92302799999967,
          "velocity": 0.7559055118110236,
          "duration": 0.437499562499994
        },
        {
          "name": "D#4",
          "midi": 63,
          "time": 48.92302799999967,
          "velocity": 0.7559055118110236,
          "duration": 0.5701917374999894
        },
        {
          "name": "D#3",
          "midi": 51,
          "time": 48.92302799999967,
          "velocity": 0.7559055118110236,
          "duration": 1.1538449999999827
        },
        {
          "name": "F#3",
          "midi": 54,
          "time": 49.038412499999666,
          "velocity": 0.7559055118110236,
          "duration": 0.3394227374999943
        },
        {
          "name": "A#3",
          "midi": 58,
          "time": 49.15379699999966,
          "velocity": 0.7559055118110236,
          "duration": 0.10865373749999918
        },
        {
          "name": "F#3",
          "midi": 54,
          "time": 49.26918149999966,
          "velocity": 0.7559055118110236,
          "duration": 0.3394227374999943
        },
        {
          "name": "D#4",
          "midi": 63,
          "time": 49.38456599999966,
          "velocity": 0.7559055118110236,
          "duration": 9.230759999999826
        },
        {
          "name": "F#3",
          "midi": 54,
          "time": 49.499950499999656,
          "velocity": 0.7559055118110236,
          "duration": 8.423068499999843
        },
        {
          "name": "A#3",
          "midi": 58,
          "time": 49.615334999999654,
          "velocity": 0.7559055118110236,
          "duration": 0.2182690125000022
        },
        {
          "name": "D#2",
          "midi": 39,
          "time": 49.846103999999656,
          "velocity": 0.7559055118110236,
          "duration": 0.437499562499994
        },
        {
          "name": "D#3",
          "midi": 51,
          "time": 49.846103999999656,
          "velocity": 0.7559055118110236,
          "duration": 0.437499562499994
        },
        {
          "name": "D#2",
          "midi": 39,
          "time": 49.846103999999656,
          "velocity": 0.7559055118110236,
          "duration": 0.46153799999999023
        },
        {
          "name": "A#2",
          "midi": 46,
          "time": 49.96148849999965,
          "velocity": 0.7559055118110236,
          "duration": 0.10865373749999918
        },
        {
          "name": "D#3",
          "midi": 51,
          "time": 50.07687299999965,
          "velocity": 0.7559055118110236,
          "duration": 0.9163452374999821
        },
        {
          "name": "A#2",
          "midi": 46,
          "time": 50.19225749999965,
          "velocity": 0.7559055118110236,
          "duration": 0.10865373749999918
        },
        {
          "name": "D#2",
          "midi": 39,
          "time": 50.307641999999646,
          "velocity": 0.7559055118110236,
          "duration": 0.21826901249999509
        },
        {
          "name": "D#2",
          "midi": 39,
          "time": 50.307641999999646,
          "velocity": 0.7559055118110236,
          "duration": 2.307689999999951
        },
        {
          "name": "A#2",
          "midi": 46,
          "time": 50.423026499999644,
          "velocity": 0.7559055118110236,
          "duration": 0.10865373749999918
        },
        {
          "name": "F#2",
          "midi": 42,
          "time": 50.53841099999964,
          "velocity": 0.7559055118110236,
          "duration": 0.21826901249999509
        },
        {
          "name": "F#2",
          "midi": 42,
          "time": 50.53841099999964,
          "velocity": 0.7559055118110236,
          "duration": 0.5701917374999894
        },
        {
          "name": "A#2",
          "midi": 46,
          "time": 50.65379549999964,
          "velocity": 0.7559055118110236,
          "duration": 0.10865373749999918
        },
        {
          "name": "B2",
          "midi": 47,
          "time": 50.769179999999636,
          "velocity": 0.7559055118110236,
          "duration": 0.3461534999999927
        },
        {
          "name": "B2",
          "midi": 47,
          "time": 50.769179999999636,
          "velocity": 0.7559055118110236,
          "duration": 0.45480723749999186
        },
        {
          "name": "D#3",
          "midi": 51,
          "time": 50.884564499999634,
          "velocity": 0.7559055118110236,
          "duration": 0.3461534999999927
        },
        {
          "name": "F#2",
          "midi": 42,
          "time": 50.99994899999963,
          "velocity": 0.7559055118110236,
          "duration": 0.45480723749999186
        },
        {
          "name": "B2",
          "midi": 47,
          "time": 51.11533349999963,
          "velocity": 0.7559055118110236,
          "duration": 0.8076914999999829
        },
        {
          "name": "D#3",
          "midi": 51,
          "time": 51.23071799999963,
          "velocity": 0.7559055118110236,
          "duration": 0.437499562499994
        },
        {
          "name": "D#3",
          "midi": 51,
          "time": 51.23071799999963,
          "velocity": 0.7559055118110236,
          "duration": 1.8221135624999647
        },
        {
          "name": "F#2",
          "midi": 42,
          "time": 51.346102499999624,
          "velocity": 0.7559055118110236,
          "duration": 0.3394227374999943
        },
        {
          "name": "A#2",
          "midi": 46,
          "time": 51.46148699999962,
          "velocity": 0.7559055118110236,
          "duration": 0.10865373749999918
        },
        {
          "name": "F#2",
          "midi": 42,
          "time": 51.57687149999962,
          "velocity": 0.7559055118110236,
          "duration": 1.2624987374999748
        },
        {
          "name": "E3",
          "midi": 52,
          "time": 51.69225599999962,
          "velocity": 0.7559055118110236,
          "duration": 0.21826901249999509
        },
        {
          "name": "E3",
          "midi": 52,
          "time": 51.69225599999962,
          "velocity": 0.7559055118110236,
          "duration": 0.46153799999999023
        },
        {
          "name": "G#2",
          "midi": 44,
          "time": 51.807640499999614,
          "velocity": 0.7559055118110236,
          "duration": 0.10865373749999918
        },
        {
          "name": "B2",
          "midi": 47,
          "time": 51.92302499999961,
          "velocity": 0.7559055118110236,
          "duration": 0.21826901249999509
        },
        {
          "name": "B2",
          "midi": 47,
          "time": 51.92302499999961,
          "velocity": 0.7559055118110236,
          "duration": 0.5701917374999894
        },
        {
          "name": "G#2",
          "midi": 44,
          "time": 52.03840949999961,
          "velocity": 0.7559055118110236,
          "duration": 0.10865373749999918
        },
        {
          "name": "E3",
          "midi": 52,
          "time": 52.15379399999961,
          "velocity": 0.7559055118110236,
          "duration": 0.437499562499994
        },
        {
          "name": "E3",
          "midi": 52,
          "time": 52.15379399999961,
          "velocity": 0.7559055118110236,
          "duration": 3.449035012499934
        },
        {
          "name": "G#2",
          "midi": 44,
          "time": 52.269178499999605,
          "velocity": 0.7559055118110236,
          "duration": 0.10865373749999918
        },
        {
          "name": "B2",
          "midi": 47,
          "time": 52.3845629999996,
          "velocity": 0.7559055118110236,
          "duration": 2.076920999999963
        },
        {
          "name": "G#2",
          "midi": 44,
          "time": 52.4999474999996,
          "velocity": 0.7559055118110236,
          "duration": 0.10865373749999918
        },
        {
          "name": "D#2",
          "midi": 39,
          "time": 52.6153319999996,
          "velocity": 0.7559055118110236,
          "duration": 0.437499562499994
        },
        {
          "name": "D#3",
          "midi": 51,
          "time": 52.6153319999996,
          "velocity": 0.7559055118110236,
          "duration": 0.5701917374999894
        },
        {
          "name": "D#2",
          "midi": 39,
          "time": 52.6153319999996,
          "velocity": 0.7559055118110236,
          "duration": 3.692303999999929
        },
        {
          "name": "F#2",
          "midi": 42,
          "time": 52.730716499999595,
          "velocity": 0.7559055118110236,
          "duration": 0.3394227374999943
        },
        {
          "name": "A#2",
          "midi": 46,
          "time": 52.84610099999959,
          "velocity": 0.7559055118110236,
          "duration": 0.10865373749999918
        },
        {
          "name": "F#2",
          "midi": 42,
          "time": 52.96148549999959,
          "velocity": 0.7559055118110236,
          "duration": 0.3394227374999943
        },
        {
          "name": "D#3",
          "midi": 51,
          "time": 53.07686999999959,
          "velocity": 0.7559055118110236,
          "duration": 0.6855762374999941
        },
        {
          "name": "F#2",
          "midi": 42,
          "time": 53.192254499999585,
          "velocity": 0.7559055118110236,
          "duration": 3.339419737499938
        },
        {
          "name": "A#2",
          "midi": 46,
          "time": 53.30763899999958,
          "velocity": 0.7559055118110236,
          "duration": 0.2182690125000022
        },
        {
          "name": "G#2",
          "midi": 44,
          "time": 53.538407999999585,
          "velocity": 0.7559055118110236,
          "duration": 0.23076899999999512
        },
        {
          "name": "G#3",
          "midi": 56,
          "time": 53.538407999999585,
          "velocity": 0.7559055118110236,
          "duration": 0.437499562499994
        },
        {
          "name": "G#2",
          "midi": 44,
          "time": 53.538407999999585,
          "velocity": 0.7559055118110236,
          "duration": 0.437499562499994
        },
        {
          "name": "D#3",
          "midi": 51,
          "time": 53.65379249999958,
          "velocity": 0.7559055118110236,
          "duration": 0.3394227374999943
        },
        {
          "name": "G#2",
          "midi": 44,
          "time": 53.76917699999958,
          "velocity": 0.7559055118110236,
          "duration": 0.23076899999999512
        },
        {
          "name": "D#3",
          "midi": 51,
          "time": 53.88456149999958,
          "velocity": 0.7559055118110236,
          "duration": 0.3394227374999943
        },
        {
          "name": "G#2",
          "midi": 44,
          "time": 53.999945999999575,
          "velocity": 0.7559055118110236,
          "duration": 0.21826901249999509
        },
        {
          "name": "G#2",
          "midi": 44,
          "time": 53.999945999999575,
          "velocity": 0.7559055118110236,
          "duration": 0.46153799999999023
        },
        {
          "name": "D#3",
          "midi": 51,
          "time": 54.11533049999957,
          "velocity": 0.7559055118110236,
          "duration": 0.3394227374999943
        },
        {
          "name": "A#2",
          "midi": 46,
          "time": 54.23071499999957,
          "velocity": 0.7559055118110236,
          "duration": 0.21826901249999509
        },
        {
          "name": "A#2",
          "midi": 46,
          "time": 54.23071499999957,
          "velocity": 0.7559055118110236,
          "duration": 1.1538449999999756
        },
        {
          "name": "D#3",
          "midi": 51,
          "time": 54.34609949999957,
          "velocity": 0.7559055118110236,
          "duration": 0.3394227374999943
        },
        {
          "name": "G#2",
          "midi": 44,
          "time": 54.461483999999565,
          "velocity": 0.7559055118110236,
          "duration": 0.23076899999999512
        },
        {
          "name": "B2",
          "midi": 47,
          "time": 54.461483999999565,
          "velocity": 0.7559055118110236,
          "duration": 0.3461534999999927
        },
        {
          "name": "G#2",
          "midi": 44,
          "time": 54.461483999999565,
          "velocity": 0.7559055118110236,
          "duration": 0.437499562499994
        },
        {
          "name": "B2",
          "midi": 47,
          "time": 54.461483999999565,
          "velocity": 0.7559055118110236,
          "duration": 0.45480723749999186
        },
        {
          "name": "D#3",
          "midi": 51,
          "time": 54.57686849999956,
          "velocity": 0.7559055118110236,
          "duration": 0.3461534999999927
        },
        {
          "name": "G#2",
          "midi": 44,
          "time": 54.69225299999956,
          "velocity": 0.7559055118110236,
          "duration": 0.45480723749999186
        },
        {
          "name": "B2",
          "midi": 47,
          "time": 54.80763749999956,
          "velocity": 0.7559055118110236,
          "duration": 0.45480723749999186
        },
        {
          "name": "D#3",
          "midi": 51,
          "time": 54.923021999999555,
          "velocity": 0.7559055118110236,
          "duration": 0.437499562499994
        },
        {
          "name": "D#3",
          "midi": 51,
          "time": 54.923021999999555,
          "velocity": 0.7559055118110236,
          "duration": 1.8221135624999647
        },
        {
          "name": "G#2",
          "midi": 44,
          "time": 55.03840649999955,
          "velocity": 0.7559055118110236,
          "duration": 0.3394227374999943
        },
        {
          "name": "B2",
          "midi": 47,
          "time": 55.15379099999955,
          "velocity": 0.7559055118110236,
          "duration": 0.46153799999999023
        },
        {
          "name": "G#2",
          "midi": 44,
          "time": 55.26917549999955,
          "velocity": 0.7559055118110236,
          "duration": 11.416334737499838
        },
        {
          "name": "A#2",
          "midi": 46,
          "time": 55.384559999999546,
          "velocity": 0.7559055118110236,
          "duration": 0.21826901249999509
        },
        {
          "name": "E3",
          "midi": 52,
          "time": 55.384559999999546,
          "velocity": 0.7559055118110236,
          "duration": 0.46153799999999023
        },
        {
          "name": "A#2",
          "midi": 46,
          "time": 55.384559999999546,
          "velocity": 0.7559055118110236,
          "duration": 0.685576237499987
        },
        {
          "name": "D3",
          "midi": 50,
          "time": 55.49994449999954,
          "velocity": 0.7559055118110236,
          "duration": 0.10865373749999918
        },
        {
          "name": "B2",
          "midi": 47,
          "time": 55.61532899999954,
          "velocity": 0.7559055118110236,
          "duration": 0.21826901249999509
        },
        {
          "name": "B2",
          "midi": 47,
          "time": 55.61532899999954,
          "velocity": 0.7559055118110236,
          "duration": 9.923066999999826
        },
        {
          "name": "D3",
          "midi": 50,
          "time": 55.73071349999954,
          "velocity": 0.7559055118110236,
          "duration": 0.10865373749999918
        },
        {
          "name": "E3",
          "midi": 52,
          "time": 55.846097999999536,
          "velocity": 0.7559055118110236,
          "duration": 0.437499562499994
        },
        {
          "name": "E3",
          "midi": 52,
          "time": 55.846097999999536,
          "velocity": 0.7559055118110236,
          "duration": 10.615373999999854
        },
        {
          "name": "A#2",
          "midi": 46,
          "time": 55.96148249999953,
          "velocity": 0.7559055118110236,
          "duration": 0.3394227374999943
        },
        {
          "name": "D3",
          "midi": 50,
          "time": 56.07686699999953,
          "velocity": 0.7559055118110236,
          "duration": 0.10865373749999918
        },
        {
          "name": "A#2",
          "midi": 46,
          "time": 56.19225149999953,
          "velocity": 0.7559055118110236,
          "duration": 0.45480723749999186
        },
        {
          "name": "D#2",
          "midi": 39,
          "time": 56.307635999999526,
          "velocity": 0.7559055118110236,
          "duration": 0.437499562499994
        },
        {
          "name": "D#3",
          "midi": 51,
          "time": 56.307635999999526,
          "velocity": 0.7559055118110236,
          "duration": 0.5701917374999894
        },
        {
          "name": "D#2",
          "midi": 39,
          "time": 56.307635999999526,
          "velocity": 0.7559055118110236,
          "duration": 0.9230759999999876
        },
        {
          "name": "F#2",
          "midi": 42,
          "time": 56.423020499999524,
          "velocity": 0.7559055118110236,
          "duration": 0.3394227374999943
        },
        {
          "name": "A#2",
          "midi": 46,
          "time": 56.53840499999952,
          "velocity": 0.7559055118110236,
          "duration": 0.6798070124999924
        },
        {
          "name": "F#2",
          "midi": 42,
          "time": 56.65378949999952,
          "velocity": 0.7559055118110236,
          "duration": 0.3394227374999943
        },
        {
          "name": "D#3",
          "midi": 51,
          "time": 56.769173999999516,
          "velocity": 0.7559055118110236,
          "duration": 0.6923069999999925
        },
        {
          "name": "F#2",
          "midi": 42,
          "time": 56.884558499999514,
          "velocity": 0.7559055118110236,
          "duration": 8.423068499999857
        },
        {
          "name": "A#2",
          "midi": 46,
          "time": 56.99994299999951,
          "velocity": 0.7559055118110236,
          "duration": 0.45480723749999896
        },
        {
          "name": "D#2",
          "midi": 39,
          "time": 57.230711999999514,
          "velocity": 0.7559055118110236,
          "duration": 0.437499562499994
        },
        {
          "name": "D#3",
          "midi": 51,
          "time": 57.230711999999514,
          "velocity": 0.7559055118110236,
          "duration": 0.437499562499994
        },
        {
          "name": "D#2",
          "midi": 39,
          "time": 57.230711999999514,
          "velocity": 0.7559055118110236,
          "duration": 3.692303999999929
        },
        {
          "name": "A#2",
          "midi": 46,
          "time": 57.34609649999951,
          "velocity": 0.7559055118110236,
          "duration": 0.3394227374999943
        },
        {
          "name": "D#3",
          "midi": 51,
          "time": 57.46148099999951,
          "velocity": 0.7559055118110236,
          "duration": 0.23076899999999512
        },
        {
          "name": "A#2",
          "midi": 46,
          "time": 57.576865499999506,
          "velocity": 0.7559055118110236,
          "duration": 0.3394227374999943
        },
        {
          "name": "D#3",
          "midi": 51,
          "time": 57.692249999999504,
          "velocity": 0.7559055118110236,
          "duration": 0.21826901249999509
        },
        {
          "name": "D#3",
          "midi": 51,
          "time": 57.692249999999504,
          "velocity": 0.7559055118110236,
          "duration": 0.45480723749999186
        },
        {
          "name": "A#2",
          "midi": 46,
          "time": 57.8076344999995,
          "velocity": 0.7559055118110236,
          "duration": 3.339419737499938
        },
        {
          "name": "F#3",
          "midi": 54,
          "time": 57.9230189999995,
          "velocity": 0.7559055118110236,
          "duration": 0.21826901249999509
        },
        {
          "name": "F#3",
          "midi": 54,
          "time": 57.9230189999995,
          "velocity": 0.7559055118110236,
          "duration": 0.5701917374999894
        },
        {
          "name": "D#3",
          "midi": 51,
          "time": 58.0384034999995,
          "velocity": 0.7559055118110236,
          "duration": 0.3394227374999943
        },
        {
          "name": "B3",
          "midi": 59,
          "time": 58.153787999999494,
          "velocity": 0.7559055118110236,
          "duration": 0.437499562499994
        },
        {
          "name": "B3",
          "midi": 59,
          "time": 58.153787999999494,
          "velocity": 0.7559055118110236,
          "duration": 1.1538449999999756
        },
        {
          "name": "D#3",
          "midi": 51,
          "time": 58.26917249999949,
          "velocity": 0.7559055118110236,
          "duration": 0.3394227374999943
        },
        {
          "name": "F#3",
          "midi": 54,
          "time": 58.38455699999949,
          "velocity": 0.7559055118110236,
          "duration": 0.45480723749999186
        },
        {
          "name": "D#3",
          "midi": 51,
          "time": 58.49994149999949,
          "velocity": 0.7559055118110236,
          "duration": 1.4999984999999683
        },
        {
          "name": "D#4",
          "midi": 63,
          "time": 58.615325999999484,
          "velocity": 0.7559055118110236,
          "duration": 0.437499562499994
        },
        {
          "name": "D#4",
          "midi": 63,
          "time": 58.615325999999484,
          "velocity": 0.7559055118110236,
          "duration": 1.8221135624999647
        },
        {
          "name": "F#3",
          "midi": 54,
          "time": 58.73071049999948,
          "velocity": 0.7559055118110236,
          "duration": 0.3394227374999943
        },
        {
          "name": "A#3",
          "midi": 58,
          "time": 58.84609499999948,
          "velocity": 0.7559055118110236,
          "duration": 0.10865373749999918
        },
        {
          "name": "F#3",
          "midi": 54,
          "time": 58.96147949999948,
          "velocity": 0.7559055118110236,
          "duration": 1.2624987374999748
        },
        {
          "name": "E4",
          "midi": 64,
          "time": 59.076863999999475,
          "velocity": 0.7559055118110236,
          "duration": 0.21826901249999509
        },
        {
          "name": "E4",
          "midi": 64,
          "time": 59.076863999999475,
          "velocity": 0.7559055118110236,
          "duration": 0.46153799999999023
        },
        {
          "name": "G#3",
          "midi": 56,
          "time": 59.19224849999947,
          "velocity": 0.7559055118110236,
          "duration": 0.10865373749999918
        },
        {
          "name": "B3",
          "midi": 59,
          "time": 59.30763299999947,
          "velocity": 0.7559055118110236,
          "duration": 0.21826901249999509
        },
        {
          "name": "B3",
          "midi": 59,
          "time": 59.30763299999947,
          "velocity": 0.7559055118110236,
          "duration": 0.5701917374999894
        },
        {
          "name": "G#3",
          "midi": 56,
          "time": 59.42301749999947,
          "velocity": 0.7559055118110236,
          "duration": 0.10865373749999918
        },
        {
          "name": "E4",
          "midi": 64,
          "time": 59.538401999999465,
          "velocity": 0.7559055118110236,
          "duration": 0.437499562499994
        },
        {
          "name": "E4",
          "midi": 64,
          "time": 59.538401999999465,
          "velocity": 0.7559055118110236,
          "duration": 3.2307659999999387
        },
        {
          "name": "G#3",
          "midi": 56,
          "time": 59.65378649999946,
          "velocity": 0.7559055118110236,
          "duration": 0.10865373749999918
        },
        {
          "name": "B3",
          "midi": 59,
          "time": 59.76917099999946,
          "velocity": 0.7559055118110236,
          "duration": 2.076920999999963
        },
        {
          "name": "G#3",
          "midi": 56,
          "time": 59.88455549999946,
          "velocity": 0.7559055118110236,
          "duration": 0.10865373749999918
        },
        {
          "name": "D#3",
          "midi": 51,
          "time": 59.999939999999455,
          "velocity": 0.7559055118110236,
          "duration": 0.437499562499994
        },
        {
          "name": "D#4",
          "midi": 63,
          "time": 59.999939999999455,
          "velocity": 0.7559055118110236,
          "duration": 0.5701917374999894
        },
        {
          "name": "D#3",
          "midi": 51,
          "time": 59.999939999999455,
          "velocity": 0.7559055118110236,
          "duration": 1.1538449999999827
        },
        {
          "name": "F#3",
          "midi": 54,
          "time": 60.11532449999945,
          "velocity": 0.7559055118110236,
          "duration": 0.3394227374999943
        },
        {
          "name": "A#3",
          "midi": 58,
          "time": 60.23070899999945,
          "velocity": 0.7559055118110236,
          "duration": 0.10865373749999918
        },
        {
          "name": "F#3",
          "midi": 54,
          "time": 60.34609349999945,
          "velocity": 0.7559055118110236,
          "duration": 0.3394227374999943
        },
        {
          "name": "D#4",
          "midi": 63,
          "time": 60.461477999999445,
          "velocity": 0.7559055118110236,
          "duration": 1.846151999999968
        },
        {
          "name": "F#3",
          "midi": 54,
          "time": 60.57686249999944,
          "velocity": 0.7559055118110236,
          "duration": 1.0384604999999851
        },
        {
          "name": "A#3",
          "midi": 58,
          "time": 60.69224699999944,
          "velocity": 0.7559055118110236,
          "duration": 0.2182690125000022
        },
        {
          "name": "D#2",
          "midi": 39,
          "time": 60.92301599999944,
          "velocity": 0.7559055118110236,
          "duration": 0.437499562499994
        },
        {
          "name": "D#3",
          "midi": 51,
          "time": 60.92301599999944,
          "velocity": 0.7559055118110236,
          "duration": 0.437499562499994
        },
        {
          "name": "D#2",
          "midi": 39,
          "time": 60.92301599999944,
          "velocity": 0.7559055118110236,
          "duration": 3.692303999999929
        },
        {
          "name": "A#2",
          "midi": 46,
          "time": 61.03840049999944,
          "velocity": 0.7559055118110236,
          "duration": 0.3394227374999943
        },
        {
          "name": "D#3",
          "midi": 51,
          "time": 61.15378499999944,
          "velocity": 0.7559055118110236,
          "duration": 0.23076899999999512
        },
        {
          "name": "A#2",
          "midi": 46,
          "time": 61.269169499999435,
          "velocity": 0.7559055118110236,
          "duration": 0.3394227374999943
        },
        {
          "name": "D#3",
          "midi": 51,
          "time": 61.38455399999943,
          "velocity": 0.7559055118110236,
          "duration": 0.21826901249999509
        },
        {
          "name": "D#3",
          "midi": 51,
          "time": 61.38455399999943,
          "velocity": 0.7559055118110236,
          "duration": 0.45480723749999186
        },
        {
          "name": "A#2",
          "midi": 46,
          "time": 61.49993849999943,
          "velocity": 0.7559055118110236,
          "duration": 3.339419737499952
        },
        {
          "name": "F#3",
          "midi": 54,
          "time": 61.61532299999943,
          "velocity": 0.7559055118110236,
          "duration": 0.21826901249999509
        },
        {
          "name": "F#3",
          "midi": 54,
          "time": 61.61532299999943,
          "velocity": 0.7559055118110236,
          "duration": 0.5701917374999894
        },
        {
          "name": "D#3",
          "midi": 51,
          "time": 61.730707499999426,
          "velocity": 0.7559055118110236,
          "duration": 0.3394227374999943
        },
        {
          "name": "B3",
          "midi": 59,
          "time": 61.84609199999942,
          "velocity": 0.7559055118110236,
          "duration": 0.437499562499994
        },
        {
          "name": "B3",
          "midi": 59,
          "time": 61.84609199999942,
          "velocity": 0.7559055118110236,
          "duration": 1.1538449999999756
        },
        {
          "name": "D#3",
          "midi": 51,
          "time": 61.96147649999942,
          "velocity": 0.7559055118110236,
          "duration": 0.3394227374999943
        },
        {
          "name": "F#3",
          "midi": 54,
          "time": 62.07686099999942,
          "velocity": 0.7559055118110236,
          "duration": 0.45480723749999186
        },
        {
          "name": "D#3",
          "midi": 51,
          "time": 62.192245499999416,
          "velocity": 0.7559055118110236,
          "duration": 1.4999984999999683
        },
        {
          "name": "D#4",
          "midi": 63,
          "time": 62.30762999999941,
          "velocity": 0.7559055118110236,
          "duration": 0.437499562499994
        },
        {
          "name": "D#4",
          "midi": 63,
          "time": 62.30762999999941,
          "velocity": 0.7559055118110236,
          "duration": 1.8221135624999576
        },
        {
          "name": "F#3",
          "midi": 54,
          "time": 62.42301449999941,
          "velocity": 0.7559055118110236,
          "duration": 0.3394227374999943
        },
        {
          "name": "A#3",
          "midi": 58,
          "time": 62.53839899999941,
          "velocity": 0.7559055118110236,
          "duration": 0.10865373749999918
        },
        {
          "name": "F#3",
          "midi": 54,
          "time": 62.653783499999406,
          "velocity": 0.7559055118110236,
          "duration": 1.2624987374999748
        },
        {
          "name": "E4",
          "midi": 64,
          "time": 62.769167999999404,
          "velocity": 0.7559055118110236,
          "duration": 0.21826901249999509
        },
        {
          "name": "E4",
          "midi": 64,
          "time": 62.769167999999404,
          "velocity": 0.7559055118110236,
          "duration": 0.46153799999999023
        },
        {
          "name": "G#3",
          "midi": 56,
          "time": 62.8845524999994,
          "velocity": 0.7559055118110236,
          "duration": 0.10865373749999918
        },
        {
          "name": "B3",
          "midi": 59,
          "time": 62.9999369999994,
          "velocity": 0.7559055118110236,
          "duration": 0.21826901249999509
        },
        {
          "name": "B3",
          "midi": 59,
          "time": 62.9999369999994,
          "velocity": 0.7559055118110236,
          "duration": 0.5701917374999894
        },
        {
          "name": "G#3",
          "midi": 56,
          "time": 63.115321499999396,
          "velocity": 0.7559055118110236,
          "duration": 0.10865373749999918
        },
        {
          "name": "E4",
          "midi": 64,
          "time": 63.230705999999394,
          "velocity": 0.7559055118110236,
          "duration": 0.437499562499994
        },
        {
          "name": "E4",
          "midi": 64,
          "time": 63.230705999999394,
          "velocity": 0.7559055118110236,
          "duration": 40.37207501250037
        },
        {
          "name": "G#3",
          "midi": 56,
          "time": 63.34609049999939,
          "velocity": 0.7559055118110236,
          "duration": 0.10865373749999918
        },
        {
          "name": "B3",
          "midi": 59,
          "time": 63.46147499999939,
          "velocity": 0.7559055118110236,
          "duration": 12.449026012500106
        },
        {
          "name": "G#3",
          "midi": 56,
          "time": 63.57685949999939,
          "velocity": 0.7559055118110236,
          "duration": 0.10865373749999918
        },
        {
          "name": "D#3",
          "midi": 51,
          "time": 63.692243999999384,
          "velocity": 0.7559055118110236,
          "duration": 0.4374995624999869
        },
        {
          "name": "D#4",
          "midi": 63,
          "time": 63.692243999999384,
          "velocity": 0.7559055118110236,
          "duration": 0.5701917374999894
        },
        {
          "name": "D#3",
          "midi": 51,
          "time": 63.692243999999384,
          "velocity": 0.7559055118110236,
          "duration": 1.153844999999997
        },
        {
          "name": "F#3",
          "midi": 54,
          "time": 63.80762849999938,
          "velocity": 0.7559055118110236,
          "duration": 0.3394227374999872
        },
        {
          "name": "A#3",
          "midi": 58,
          "time": 63.92301299999938,
          "velocity": 0.7559055118110236,
          "duration": 0.10865373749999918
        },
        {
          "name": "F#3",
          "midi": 54,
          "time": 64.03839749999938,
          "velocity": 0.7559055118110236,
          "duration": 0.3394227375000014
        },
        {
          "name": "D#4",
          "midi": 63,
          "time": 64.15378199999937,
          "velocity": 0.7559055118110236,
          "duration": 8.18556873750002
        },
        {
          "name": "F#3",
          "midi": 54,
          "time": 64.26916649999937,
          "velocity": 0.7559055118110236,
          "duration": 11.877872737500127
        },
        {
          "name": "A#3",
          "midi": 58,
          "time": 64.38455099999938,
          "velocity": 0.7559055118110236,
          "duration": 0.2182690125000022
        },
        {
          "name": "D#2",
          "midi": 39,
          "time": 64.61531999999937,
          "velocity": 0.7559055118110236,
          "duration": 0.4374995625000082
        },
        {
          "name": "D#3",
          "midi": 51,
          "time": 64.61531999999937,
          "velocity": 0.7559055118110236,
          "duration": 0.4374995625000082
        },
        {
          "name": "D#2",
          "midi": 39,
          "time": 64.61531999999937,
          "velocity": 0.7559055118110236,
          "duration": 0.46153800000000444
        },
        {
          "name": "A#2",
          "midi": 46,
          "time": 64.73070449999938,
          "velocity": 0.7559055118110236,
          "duration": 0.3394227375000014
        },
        {
          "name": "D#3",
          "midi": 51,
          "time": 64.84608899999938,
          "velocity": 0.7559055118110236,
          "duration": 0.9163452374999963
        },
        {
          "name": "A#2",
          "midi": 46,
          "time": 64.96147349999939,
          "velocity": 0.7559055118110236,
          "duration": 0.3394227374999872
        },
        {
          "name": "D#2",
          "midi": 39,
          "time": 65.07685799999938,
          "velocity": 0.7559055118110236,
          "duration": 0.2182690125000022
        },
        {
          "name": "D#2",
          "midi": 39,
          "time": 65.07685799999938,
          "velocity": 0.7559055118110236,
          "duration": 2.307690000000008
        },
        {
          "name": "A#2",
          "midi": 46,
          "time": 65.19224249999938,
          "velocity": 0.7559055118110236,
          "duration": 0.3394227374999872
        },
        {
          "name": "F#2",
          "midi": 42,
          "time": 65.30762699999937,
          "velocity": 0.7559055118110236,
          "duration": 0.2182690125000022
        },
        {
          "name": "F#2",
          "midi": 42,
          "time": 65.30762699999937,
          "velocity": 0.7559055118110236,
          "duration": 0.5701917375000107
        },
        {
          "name": "A#2",
          "midi": 46,
          "time": 65.42301149999938,
          "velocity": 0.7559055118110236,
          "duration": 0.9163452375000247
        },
        {
          "name": "B2",
          "midi": 47,
          "time": 65.53839599999937,
          "velocity": 0.7559055118110236,
          "duration": 0.346153500000014
        },
        {
          "name": "B2",
          "midi": 47,
          "time": 65.53839599999937,
          "velocity": 0.7559055118110236,
          "duration": 0.4548072375000203
        },
        {
          "name": "D#3",
          "midi": 51,
          "time": 65.65378049999937,
          "velocity": 0.7559055118110236,
          "duration": 0.346153500000014
        },
        {
          "name": "F#2",
          "midi": 42,
          "time": 65.76916499999938,
          "velocity": 0.7559055118110236,
          "duration": 0.4548072375000203
        },
        {
          "name": "B2",
          "midi": 47,
          "time": 65.88454949999938,
          "velocity": 0.7559055118110236,
          "duration": 0.8076915000000042
        },
        {
          "name": "D#3",
          "midi": 51,
          "time": 65.99993399999939,
          "velocity": 0.7559055118110236,
          "duration": 0.4374995625000082
        },
        {
          "name": "D#3",
          "midi": 51,
          "time": 65.99993399999939,
          "velocity": 0.7559055118110236,
          "duration": 1.8221135625000073
        },
        {
          "name": "F#2",
          "midi": 42,
          "time": 66.11531849999939,
          "velocity": 0.7559055118110236,
          "duration": 0.3394227375000014
        },
        {
          "name": "A#2",
          "midi": 46,
          "time": 66.2307029999994,
          "velocity": 0.7559055118110236,
          "duration": 1.4932677375000054
        },
        {
          "name": "F#2",
          "midi": 42,
          "time": 66.3460874999994,
          "velocity": 0.7559055118110236,
          "duration": 1.262498737499996
        },
        {
          "name": "E3",
          "midi": 52,
          "time": 66.46147199999939,
          "velocity": 0.7559055118110236,
          "duration": 0.2182690125000022
        },
        {
          "name": "E3",
          "midi": 52,
          "time": 66.46147199999939,
          "velocity": 0.7559055118110236,
          "duration": 0.46153799999999023
        },
        {
          "name": "G#2",
          "midi": 44,
          "time": 66.5768564999994,
          "velocity": 0.7559055118110236,
          "duration": 0.3394227374999872
        },
        {
          "name": "B2",
          "midi": 47,
          "time": 66.69224099999938,
          "velocity": 0.7559055118110236,
          "duration": 0.2182690125000022
        },
        {
          "name": "B2",
          "midi": 47,
          "time": 66.69224099999938,
          "velocity": 0.7559055118110236,
          "duration": 0.5701917375000107
        },
        {
          "name": "G#2",
          "midi": 44,
          "time": 66.80762549999939,
          "velocity": 0.7559055118110236,
          "duration": 0.3394227375000014
        },
        {
          "name": "E3",
          "midi": 52,
          "time": 66.92300999999938,
          "velocity": 0.7559055118110236,
          "duration": 0.4374995625000082
        },
        {
          "name": "E3",
          "midi": 52,
          "time": 66.92300999999938,
          "velocity": 0.7559055118110236,
          "duration": 3.449035012500019
        },
        {
          "name": "G#2",
          "midi": 44,
          "time": 67.03839449999938,
          "velocity": 0.7559055118110236,
          "duration": 0.3394227375000014
        },
        {
          "name": "B2",
          "midi": 47,
          "time": 67.15377899999939,
          "velocity": 0.7559055118110236,
          "duration": 2.4230745000000127
        },
        {
          "name": "G#2",
          "midi": 44,
          "time": 67.2691634999994,
          "velocity": 0.7559055118110236,
          "duration": 1.0384604999999993
        },
        {
          "name": "D#2",
          "midi": 39,
          "time": 67.38454799999938,
          "velocity": 0.7559055118110236,
          "duration": 0.4374995625000082
        },
        {
          "name": "D#3",
          "midi": 51,
          "time": 67.38454799999938,
          "velocity": 0.7559055118110236,
          "duration": 0.5701917375000107
        },
        {
          "name": "D#2",
          "midi": 39,
          "time": 67.38454799999938,
          "velocity": 0.7559055118110236,
          "duration": 3.692304000000007
        },
        {
          "name": "F#2",
          "midi": 42,
          "time": 67.49993249999939,
          "velocity": 0.7559055118110236,
          "duration": 0.3394227375000014
        },
        {
          "name": "A#2",
          "midi": 46,
          "time": 67.6153169999994,
          "velocity": 0.7559055118110236,
          "duration": 0.6798070125000066
        },
        {
          "name": "F#2",
          "midi": 42,
          "time": 67.7307014999994,
          "velocity": 0.7559055118110236,
          "duration": 0.3394227375000014
        },
        {
          "name": "D#3",
          "midi": 51,
          "time": 67.84608599999939,
          "velocity": 0.7559055118110236,
          "duration": 0.6855762375000154
        },
        {
          "name": "F#2",
          "midi": 42,
          "time": 67.9614704999994,
          "velocity": 0.7559055118110236,
          "duration": 3.339419737500009
        },
        {
          "name": "A#2",
          "midi": 46,
          "time": 68.0768549999994,
          "velocity": 0.7559055118110236,
          "duration": 0.9230759999999947
        },
        {
          "name": "G#2",
          "midi": 44,
          "time": 68.3076239999994,
          "velocity": 0.7559055118110236,
          "duration": 0.23076900000000933
        },
        {
          "name": "G#3",
          "midi": 56,
          "time": 68.3076239999994,
          "velocity": 0.7559055118110236,
          "duration": 0.4374995625000082
        },
        {
          "name": "G#2",
          "midi": 44,
          "time": 68.3076239999994,
          "velocity": 0.7559055118110236,
          "duration": 0.4374995625000082
        },
        {
          "name": "D#3",
          "midi": 51,
          "time": 68.4230084999994,
          "velocity": 0.7559055118110236,
          "duration": 0.3394227375000014
        },
        {
          "name": "G#2",
          "midi": 44,
          "time": 68.5383929999994,
          "velocity": 0.7559055118110236,
          "duration": 0.23076899999999512
        },
        {
          "name": "D#3",
          "midi": 51,
          "time": 68.6537774999994,
          "velocity": 0.7559055118110236,
          "duration": 0.3394227374999872
        },
        {
          "name": "G#2",
          "midi": 44,
          "time": 68.7691619999994,
          "velocity": 0.7559055118110236,
          "duration": 0.2182690125000022
        },
        {
          "name": "G#2",
          "midi": 44,
          "time": 68.7691619999994,
          "velocity": 0.7559055118110236,
          "duration": 0.46153799999999023
        },
        {
          "name": "D#3",
          "midi": 51,
          "time": 68.8845464999994,
          "velocity": 0.7559055118110236,
          "duration": 0.3394227374999872
        },
        {
          "name": "A#2",
          "midi": 46,
          "time": 68.99993099999939,
          "velocity": 0.7559055118110236,
          "duration": 0.2182690125000022
        },
        {
          "name": "A#2",
          "midi": 46,
          "time": 68.99993099999939,
          "velocity": 0.7559055118110236,
          "duration": 1.153845000000004
        },
        {
          "name": "D#3",
          "midi": 51,
          "time": 69.1153154999994,
          "velocity": 0.7559055118110236,
          "duration": 0.3394227375000014
        },
        {
          "name": "G#2",
          "midi": 44,
          "time": 69.23069999999939,
          "velocity": 0.7559055118110236,
          "duration": 0.23076900000000933
        },
        {
          "name": "B2",
          "midi": 47,
          "time": 69.23069999999939,
          "velocity": 0.7559055118110236,
          "duration": 0.45480723750000607
        },
        {
          "name": "G#2",
          "midi": 44,
          "time": 69.23069999999939,
          "velocity": 0.7559055118110236,
          "duration": 0.4374995625000082
        },
        {
          "name": "D#3",
          "midi": 51,
          "time": 69.34608449999939,
          "velocity": 0.7559055118110236,
          "duration": 0.3461534999999998
        },
        {
          "name": "G#2",
          "midi": 44,
          "time": 69.4614689999994,
          "velocity": 0.7559055118110236,
          "duration": 0.45480723750000607
        },
        {
          "name": "B2",
          "midi": 47,
          "time": 69.5768534999994,
          "velocity": 0.7559055118110236,
          "duration": 0.45480723750000607
        },
        {
          "name": "D#3",
          "midi": 51,
          "time": 69.69223799999939,
          "velocity": 0.7559055118110236,
          "duration": 0.4374995625000082
        },
        {
          "name": "D#3",
          "midi": 51,
          "time": 69.69223799999939,
          "velocity": 0.7559055118110236,
          "duration": 1.8221135625000073
        },
        {
          "name": "G#2",
          "midi": 44,
          "time": 69.8076224999994,
          "velocity": 0.7559055118110236,
          "duration": 0.3394227375000014
        },
        {
          "name": "B2",
          "midi": 47,
          "time": 69.9230069999994,
          "velocity": 0.7559055118110236,
          "duration": 0.46153799999999023
        },
        {
          "name": "G#2",
          "midi": 44,
          "time": 70.0383914999994,
          "velocity": 0.7559055118110236,
          "duration": 7.954799737500139
        },
        {
          "name": "A#2",
          "midi": 46,
          "time": 70.1537759999994,
          "velocity": 0.7559055118110236,
          "duration": 0.2182690125000022
        },
        {
          "name": "E3",
          "midi": 52,
          "time": 70.1537759999994,
          "velocity": 0.7559055118110236,
          "duration": 0.46153799999999023
        },
        {
          "name": "A#2",
          "midi": 46,
          "time": 70.1537759999994,
          "velocity": 0.7559055118110236,
          "duration": 0.6855762375000012
        },
        {
          "name": "D3",
          "midi": 50,
          "time": 70.2691604999994,
          "velocity": 0.7559055118110236,
          "duration": 0.10865373749999208
        },
        {
          "name": "B2",
          "midi": 47,
          "time": 70.38454499999939,
          "velocity": 0.7559055118110236,
          "duration": 0.2182690125000022
        },
        {
          "name": "B2",
          "midi": 47,
          "time": 70.38454499999939,
          "velocity": 0.7559055118110236,
          "duration": 5.525956012500103
        },
        {
          "name": "D3",
          "midi": 50,
          "time": 70.4999294999994,
          "velocity": 0.7559055118110236,
          "duration": 0.10865373749999208
        },
        {
          "name": "E3",
          "midi": 52,
          "time": 70.61531399999939,
          "velocity": 0.7559055118110236,
          "duration": 0.4374995625000082
        },
        {
          "name": "E3",
          "midi": 52,
          "time": 70.61531399999939,
          "velocity": 0.7559055118110236,
          "duration": 32.987467012500375
        },
        {
          "name": "A#2",
          "midi": 46,
          "time": 70.73069849999939,
          "velocity": 0.7559055118110236,
          "duration": 0.3394227375000014
        },
        {
          "name": "D3",
          "midi": 50,
          "time": 70.8460829999994,
          "velocity": 0.7559055118110236,
          "duration": 0.10865373750000629
        },
        {
          "name": "A#2",
          "midi": 46,
          "time": 70.9614674999994,
          "velocity": 0.7559055118110236,
          "duration": 0.45480723750000607
        },
        {
          "name": "D#2",
          "midi": 39,
          "time": 71.07685199999939,
          "velocity": 0.7559055118110236,
          "duration": 0.4374995625000082
        },
        {
          "name": "D#3",
          "midi": 51,
          "time": 71.07685199999939,
          "velocity": 0.7559055118110236,
          "duration": 0.8990375624999984
        },
        {
          "name": "D#2",
          "midi": 39,
          "time": 71.07685199999939,
          "velocity": 0.7559055118110236,
          "duration": 0.8990375624999984
        },
        {
          "name": "F#2",
          "midi": 42,
          "time": 71.1922364999994,
          "velocity": 0.7559055118110236,
          "duration": 0.3394227375000014
        },
        {
          "name": "A#2",
          "midi": 46,
          "time": 71.3076209999994,
          "velocity": 0.7559055118110236,
          "duration": 1.60865223750001
        },
        {
          "name": "F#2",
          "midi": 42,
          "time": 71.4230054999994,
          "velocity": 0.7559055118110236,
          "duration": 31.02593051250038
        },
        {
          "name": "D#2",
          "midi": 39,
          "time": 71.5383899999994,
          "velocity": 0.7559055118110236,
          "duration": 0.6798070124999924
        },
        {
          "name": "D#3",
          "midi": 51,
          "time": 71.5383899999994,
          "velocity": 0.7559055118110236,
          "duration": 0.6798070124999924
        },
        {
          "name": "D#2",
          "midi": 39,
          "time": 71.99992799999939,
          "velocity": 0.6299212598425197,
          "duration": 1.602883012500044
        },
        {
          "name": "D#3",
          "midi": 51,
          "time": 71.99992799999939,
          "velocity": 0.6299212598425197,
          "duration": 0.5701917375000107
        },
        {
          "name": "D#4",
          "midi": 63,
          "time": 72.23069699999938,
          "velocity": 0.6299212598425197,
          "duration": 1.493267737500048
        },
        {
          "name": "A#3",
          "midi": 58,
          "time": 72.34608149999939,
          "velocity": 0.6299212598425197,
          "duration": 0.10865373750000629
        },
        {
          "name": "D#3",
          "midi": 51,
          "time": 72.46146599999939,
          "velocity": 0.6299212598425197,
          "duration": 0.3394227375000156
        },
        {
          "name": "A#3",
          "midi": 58,
          "time": 72.5768504999994,
          "velocity": 0.6299212598425197,
          "duration": 0.10865373750000629
        },
        {
          "name": "D#3",
          "midi": 51,
          "time": 72.6922349999994,
          "velocity": 0.6299212598425197,
          "duration": 0.3394227375000156
        },
        {
          "name": "A#2",
          "midi": 46,
          "time": 72.8076194999994,
          "velocity": 0.6299212598425197,
          "duration": 0.5701917375000249
        },
        {
          "name": "D#3",
          "midi": 51,
          "time": 72.92300399999941,
          "velocity": 0.6299212598425197,
          "duration": 0.3394227375000156
        },
        {
          "name": "A#3",
          "midi": 58,
          "time": 73.03838849999941,
          "velocity": 0.6299212598425197,
          "duration": 0.10865373750000629
        },
        {
          "name": "D#3",
          "midi": 51,
          "time": 73.15377299999942,
          "velocity": 0.6299212598425197,
          "duration": 0.4490380125000115
        },
        {
          "name": "A#2",
          "midi": 46,
          "time": 73.26915749999942,
          "velocity": 0.6299212598425197,
          "duration": 1.0317297375000294
        },
        {
          "name": "D#2",
          "midi": 39,
          "time": 73.38454199999943,
          "velocity": 0.6299212598425197,
          "duration": 1.1413450125000253
        },
        {
          "name": "D#3",
          "midi": 51,
          "time": 73.38454199999943,
          "velocity": 0.6299212598425197,
          "duration": 0.5701917375000107
        },
        {
          "name": "D#4",
          "midi": 63,
          "time": 73.61531099999942,
          "velocity": 0.6299212598425197,
          "duration": 1.0317297375000294
        },
        {
          "name": "A#3",
          "midi": 58,
          "time": 73.73069549999943,
          "velocity": 0.6299212598425197,
          "duration": 0.10865373750000629
        },
        {
          "name": "D#3",
          "midi": 51,
          "time": 73.84607999999943,
          "velocity": 0.6299212598425197,
          "duration": 0.3394227375000156
        },
        {
          "name": "A#3",
          "midi": 58,
          "time": 73.96146449999944,
          "velocity": 0.6299212598425197,
          "duration": 0.10865373750000629
        },
        {
          "name": "D#3",
          "midi": 51,
          "time": 74.07684899999944,
          "velocity": 0.6299212598425197,
          "duration": 0.4490380125000115
        },
        {
          "name": "A#2",
          "midi": 46,
          "time": 74.19223349999945,
          "velocity": 0.6299212598425197,
          "duration": 1.0317297375000294
        },
        {
          "name": "D#2",
          "midi": 39,
          "time": 74.30761799999945,
          "velocity": 0.6299212598425197,
          "duration": 5.295187012500136
        },
        {
          "name": "D#3",
          "midi": 51,
          "time": 74.30761799999945,
          "velocity": 0.6299212598425197,
          "duration": 0.5701917375000107
        },
        {
          "name": "D#4",
          "midi": 63,
          "time": 74.53838699999945,
          "velocity": 0.6299212598425197,
          "duration": 1.9548057375000525
        },
        {
          "name": "A#3",
          "midi": 58,
          "time": 74.65377149999945,
          "velocity": 0.6299212598425197,
          "duration": 0.10865373750000629
        },
        {
          "name": "D#3",
          "midi": 51,
          "time": 74.76915599999946,
          "velocity": 0.6299212598425197,
          "duration": 0.3394227375000156
        },
        {
          "name": "A#3",
          "midi": 58,
          "time": 74.88454049999946,
          "velocity": 0.6299212598425197,
          "duration": 0.10865373750000629
        },
        {
          "name": "D#3",
          "midi": 51,
          "time": 74.99992499999946,
          "velocity": 0.6299212598425197,
          "duration": 0.3394227375000156
        },
        {
          "name": "A#2",
          "midi": 46,
          "time": 75.11530949999947,
          "velocity": 0.6299212598425197,
          "duration": 0.5701917375000249
        },
        {
          "name": "D#3",
          "midi": 51,
          "time": 75.23069399999947,
          "velocity": 0.6299212598425197,
          "duration": 0.3394227375000156
        },
        {
          "name": "A#3",
          "midi": 58,
          "time": 75.34607849999948,
          "velocity": 0.6299212598425197,
          "duration": 0.10865373750000629
        },
        {
          "name": "D#3",
          "midi": 51,
          "time": 75.46146299999948,
          "velocity": 0.6299212598425197,
          "duration": 0.5701917375000107
        },
        {
          "name": "A#2",
          "midi": 46,
          "time": 75.57684749999949,
          "velocity": 0.6299212598425197,
          "duration": 4.724033737500122
        },
        {
          "name": "B2",
          "midi": 47,
          "time": 75.69223199999949,
          "velocity": 0.6299212598425197,
          "duration": 0.6798070125000066
        },
        {
          "name": "B3",
          "midi": 59,
          "time": 75.69223199999949,
          "velocity": 0.6299212598425197,
          "duration": 0.6798070125000066
        },
        {
          "name": "D#3",
          "midi": 51,
          "time": 75.92300099999949,
          "velocity": 0.6299212598425197,
          "duration": 1.147114237500034
        },
        {
          "name": "F#3",
          "midi": 54,
          "time": 76.03838549999949,
          "velocity": 0.6299212598425197,
          "duration": 0.6855762375000154
        },
        {
          "name": "B2",
          "midi": 47,
          "time": 76.1537699999995,
          "velocity": 0.6299212598425197,
          "duration": 1.1413450125000253
        },
        {
          "name": "B3",
          "midi": 59,
          "time": 76.1537699999995,
          "velocity": 0.6299212598425197,
          "duration": 0.45480723750000607
        },
        {
          "name": "D#4",
          "midi": 63,
          "time": 76.38453899999949,
          "velocity": 0.6299212598425197,
          "duration": 1.0317297375000294
        },
        {
          "name": "B3",
          "midi": 59,
          "time": 76.4999234999995,
          "velocity": 0.6299212598425197,
          "duration": 0.3394227375000156
        },
        {
          "name": "F#3",
          "midi": 54,
          "time": 76.6153079999995,
          "velocity": 0.6299212598425197,
          "duration": 0.3394227375000156
        },
        {
          "name": "B3",
          "midi": 59,
          "time": 76.7306924999995,
          "velocity": 0.6299212598425197,
          "duration": 0.5644225125000162
        },
        {
          "name": "F#3",
          "midi": 54,
          "time": 76.84607699999951,
          "velocity": 0.6299212598425197,
          "duration": 25.602859012500275
        },
        {
          "name": "D#3",
          "midi": 51,
          "time": 76.96146149999952,
          "velocity": 0.6299212598425197,
          "duration": 2.6413435125000717
        },
        {
          "name": "B2",
          "midi": 47,
          "time": 77.07684599999952,
          "velocity": 0.6299212598425197,
          "duration": 25.822089562500253
        },
        {
          "name": "B3",
          "midi": 59,
          "time": 77.07684599999952,
          "velocity": 0.6299212598425197,
          "duration": 0.45480723750000607
        },
        {
          "name": "D#4",
          "midi": 63,
          "time": 77.30761499999952,
          "velocity": 0.6299212598425197,
          "duration": 2.5374974625000704
        },
        {
          "name": "B3",
          "midi": 59,
          "time": 77.42299949999952,
          "velocity": 0.6299212598425197,
          "duration": 15.212484787500287
        },
        {
          "name": "C#4",
          "midi": 61,
          "time": 77.53838399999952,
          "velocity": 0.6299212598425197,
          "duration": 0.10865373750000629
        },
        {
          "name": "G#3",
          "midi": 56,
          "time": 77.65376849999953,
          "velocity": 0.6299212598425197,
          "duration": 0.10865373750000629
        },
        {
          "name": "C#3",
          "midi": 49,
          "time": 77.76915299999953,
          "velocity": 0.6299212598425197,
          "duration": 0.10865373750000629
        },
        {
          "name": "G#2",
          "midi": 44,
          "time": 77.88453749999954,
          "velocity": 0.6299212598425197,
          "duration": 1.0317297375000294
        },
        {
          "name": "C#2",
          "midi": 37,
          "time": 77.99992199999954,
          "velocity": 0.6299212598425197,
          "duration": 0.2182690125000022
        },
        {
          "name": "C#3",
          "midi": 49,
          "time": 77.99992199999954,
          "velocity": 0.6299212598425197,
          "duration": 0.2182690125000022
        },
        {
          "name": "C#4",
          "midi": 61,
          "time": 78.23069099999954,
          "velocity": 0.6299212598425197,
          "duration": 0.10865373750000629
        },
        {
          "name": "G#3",
          "midi": 56,
          "time": 78.34607549999954,
          "velocity": 0.6299212598425197,
          "duration": 0.10865373750000629
        },
        {
          "name": "C#3",
          "midi": 49,
          "time": 78.46145999999955,
          "velocity": 0.6299212598425197,
          "duration": 0.10865373750000629
        },
        {
          "name": "G#3",
          "midi": 56,
          "time": 78.57684449999955,
          "velocity": 0.6299212598425197,
          "duration": 0.10865373750000629
        },
        {
          "name": "C#3",
          "midi": 49,
          "time": 78.69222899999956,
          "velocity": 0.6299212598425197,
          "duration": 0.10865373750000629
        },
        {
          "name": "G#2",
          "midi": 44,
          "time": 78.80761349999956,
          "velocity": 0.6299212598425197,
          "duration": 0.5701917375000249
        },
        {
          "name": "C#3",
          "midi": 49,
          "time": 78.92299799999957,
          "velocity": 0.6299212598425197,
          "duration": 0.10865373750000629
        },
        {
          "name": "G#3",
          "midi": 56,
          "time": 79.03838249999957,
          "velocity": 0.6299212598425197,
          "duration": 0.10865373750000629
        },
        {
          "name": "C#3",
          "midi": 49,
          "time": 79.15376699999958,
          "velocity": 0.6299212598425197,
          "duration": 0.10865373750000629
        },
        {
          "name": "G#2",
          "midi": 44,
          "time": 79.26915149999958,
          "velocity": 0.6299212598425197,
          "duration": 3.9163422375001176
        },
        {
          "name": "D#2",
          "midi": 39,
          "time": 79.38453599999958,
          "velocity": 0.6299212598425197,
          "duration": 1.602883012500044
        },
        {
          "name": "D#3",
          "midi": 51,
          "time": 79.38453599999958,
          "velocity": 0.6299212598425197,
          "duration": 0.5701917375000107
        },
        {
          "name": "D#4",
          "midi": 63,
          "time": 79.61530499999958,
          "velocity": 0.6299212598425197,
          "duration": 1.493267737500048
        },
        {
          "name": "A#3",
          "midi": 58,
          "time": 79.73068949999958,
          "velocity": 0.6299212598425197,
          "duration": 0.10865373750000629
        },
        {
          "name": "D#3",
          "midi": 51,
          "time": 79.84607399999959,
          "velocity": 0.6299212598425197,
          "duration": 0.3394227375000156
        },
        {
          "name": "A#3",
          "midi": 58,
          "time": 79.9614584999996,
          "velocity": 0.6299212598425197,
          "duration": 0.10865373750000629
        },
        {
          "name": "D#3",
          "midi": 51,
          "time": 80.0768429999996,
          "velocity": 0.6299212598425197,
          "duration": 0.3394227375000156
        },
        {
          "name": "A#2",
          "midi": 46,
          "time": 80.1922274999996,
          "velocity": 0.6299212598425197,
          "duration": 0.5701917375000249
        },
        {
          "name": "D#3",
          "midi": 51,
          "time": 80.30761199999961,
          "velocity": 0.6299212598425197,
          "duration": 0.3394227375000156
        },
        {
          "name": "A#3",
          "midi": 58,
          "time": 80.42299649999961,
          "velocity": 0.6299212598425197,
          "duration": 0.10865373750000629
        },
        {
          "name": "D#3",
          "midi": 51,
          "time": 80.53838099999962,
          "velocity": 0.6299212598425197,
          "duration": 0.4490380125000115
        },
        {
          "name": "A#2",
          "midi": 46,
          "time": 80.65376549999962,
          "velocity": 0.6299212598425197,
          "duration": 1.0317297375000294
        },
        {
          "name": "D#2",
          "midi": 39,
          "time": 80.76914999999963,
          "velocity": 0.6299212598425197,
          "duration": 1.1413450125000253
        },
        {
          "name": "D#3",
          "midi": 51,
          "time": 80.76914999999963,
          "velocity": 0.6299212598425197,
          "duration": 0.5701917375000107
        },
        {
          "name": "D#4",
          "midi": 63,
          "time": 80.99991899999962,
          "velocity": 0.6299212598425197,
          "duration": 1.0317297375000294
        },
        {
          "name": "A#3",
          "midi": 58,
          "time": 81.11530349999963,
          "velocity": 0.6299212598425197,
          "duration": 0.10865373750000629
        },
        {
          "name": "D#3",
          "midi": 51,
          "time": 81.23068799999963,
          "velocity": 0.6299212598425197,
          "duration": 0.3394227375000156
        },
        {
          "name": "A#3",
          "midi": 58,
          "time": 81.34607249999964,
          "velocity": 0.6299212598425197,
          "duration": 0.10865373750000629
        },
        {
          "name": "D#3",
          "midi": 51,
          "time": 81.46145699999964,
          "velocity": 0.6299212598425197,
          "duration": 0.4490380125000115
        },
        {
          "name": "A#2",
          "midi": 46,
          "time": 81.57684149999965,
          "velocity": 0.6299212598425197,
          "duration": 1.0317297375000294
        },
        {
          "name": "D#2",
          "midi": 39,
          "time": 81.69222599999965,
          "velocity": 0.6299212598425197,
          "duration": 5.029802662500131
        },
        {
          "name": "D#3",
          "midi": 51,
          "time": 81.69222599999965,
          "velocity": 0.6299212598425197,
          "duration": 0.5701917375000107
        },
        {
          "name": "D#4",
          "midi": 63,
          "time": 81.92299499999964,
          "velocity": 0.6299212598425197,
          "duration": 5.174033287500151
        },
        {
          "name": "A#3",
          "midi": 58,
          "time": 82.03837949999965,
          "velocity": 0.6299212598425197,
          "duration": 0.10865373750000629
        },
        {
          "name": "D#3",
          "midi": 51,
          "time": 82.15376399999965,
          "velocity": 0.6299212598425197,
          "duration": 0.3394227375000156
        },
        {
          "name": "A#3",
          "midi": 58,
          "time": 82.26914849999966,
          "velocity": 0.6299212598425197,
          "duration": 0.10865373750000629
        },
        {
          "name": "D#3",
          "midi": 51,
          "time": 82.38453299999966,
          "velocity": 0.6299212598425197,
          "duration": 0.3394227375000156
        },
        {
          "name": "A#2",
          "midi": 46,
          "time": 82.49991749999967,
          "velocity": 0.6299212598425197,
          "duration": 0.5701917375000249
        },
        {
          "name": "D#3",
          "midi": 51,
          "time": 82.61530199999967,
          "velocity": 0.6299212598425197,
          "duration": 0.3394227375000156
        },
        {
          "name": "A#3",
          "midi": 58,
          "time": 82.73068649999968,
          "velocity": 0.6299212598425197,
          "duration": 0.10865373750000629
        },
        {
          "name": "D#3",
          "midi": 51,
          "time": 82.84607099999968,
          "velocity": 0.6299212598425197,
          "duration": 0.4548072375000203
        },
        {
          "name": "A#2",
          "midi": 46,
          "time": 82.96145549999969,
          "velocity": 0.6299212598425197,
          "duration": 2.1798055125000815
        },
        {
          "name": "G#2",
          "midi": 44,
          "time": 83.07683999999969,
          "velocity": 0.6299212598425197,
          "duration": 0.5701917375000249
        },
        {
          "name": "G#3",
          "midi": 56,
          "time": 83.07683999999969,
          "velocity": 0.6299212598425197,
          "duration": 0.10865373750000629
        },
        {
          "name": "D#3",
          "midi": 51,
          "time": 83.1922244999997,
          "velocity": 0.6299212598425197,
          "duration": 0.3394227375000156
        },
        {
          "name": "G#3",
          "midi": 56,
          "time": 83.3076089999997,
          "velocity": 0.6299212598425197,
          "duration": 0.10865373750000629
        },
        {
          "name": "D#3",
          "midi": 51,
          "time": 83.4229934999997,
          "velocity": 0.6299212598425197,
          "duration": 0.3394227375000156
        },
        {
          "name": "G#2",
          "midi": 44,
          "time": 83.53837799999971,
          "velocity": 0.6299212598425197,
          "duration": 0.5701917375000249
        },
        {
          "name": "G#3",
          "midi": 56,
          "time": 83.53837799999971,
          "velocity": 0.6299212598425197,
          "duration": 0.10865373750000629
        },
        {
          "name": "D#3",
          "midi": 51,
          "time": 83.65376249999971,
          "velocity": 0.6299212598425197,
          "duration": 0.3394227375000156
        },
        {
          "name": "G#3",
          "midi": 56,
          "time": 83.76914699999972,
          "velocity": 0.6299212598425197,
          "duration": 0.10865373750000629
        },
        {
          "name": "D#3",
          "midi": 51,
          "time": 83.88453149999972,
          "velocity": 0.6299212598425197,
          "duration": 0.3394227375000156
        },
        {
          "name": "G#2",
          "midi": 44,
          "time": 83.99991599999973,
          "velocity": 0.6299212598425197,
          "duration": 0.5701917375000249
        },
        {
          "name": "G#3",
          "midi": 56,
          "time": 83.99991599999973,
          "velocity": 0.6299212598425197,
          "duration": 0.10865373750000629
        },
        {
          "name": "D#3",
          "midi": 51,
          "time": 84.11530049999973,
          "velocity": 0.6299212598425197,
          "duration": 0.3394227375000156
        },
        {
          "name": "G#3",
          "midi": 56,
          "time": 84.23068499999974,
          "velocity": 0.6299212598425197,
          "duration": 0.10865373750000629
        },
        {
          "name": "D#3",
          "midi": 51,
          "time": 84.34606949999974,
          "velocity": 0.6299212598425197,
          "duration": 0.3394227375000156
        },
        {
          "name": "G#2",
          "midi": 44,
          "time": 84.46145399999975,
          "velocity": 0.6299212598425197,
          "duration": 28.59131756249981
        },
        {
          "name": "G#3",
          "midi": 56,
          "time": 84.46145399999975,
          "velocity": 0.6299212598425197,
          "duration": 0.10865373750000629
        },
        {
          "name": "D#3",
          "midi": 51,
          "time": 84.57683849999975,
          "velocity": 0.6299212598425197,
          "duration": 0.3394227375000156
        },
        {
          "name": "G#3",
          "midi": 56,
          "time": 84.69222299999976,
          "velocity": 0.6299212598425197,
          "duration": 0.10865373750000629
        },
        {
          "name": "D#3",
          "midi": 51,
          "time": 84.80760749999976,
          "velocity": 0.6299212598425197,
          "duration": 1.9144211625000196
        },
        {
          "name": "A#2",
          "midi": 46,
          "time": 84.92299199999977,
          "velocity": 0.6299212598425197,
          "duration": 0.9163452375000247
        },
        {
          "name": "A#3",
          "midi": 58,
          "time": 84.92299199999977,
          "velocity": 0.6299212598425197,
          "duration": 0.2182690125000022
        },
        {
          "name": "F4",
          "midi": 65,
          "time": 85.15376099999976,
          "velocity": 0.6299212598425197,
          "duration": 0.10865373750000629
        },
        {
          "name": "A#3",
          "midi": 58,
          "time": 85.26914549999977,
          "velocity": 0.6299212598425197,
          "duration": 0.10865373750000629
        },
        {
          "name": "F3",
          "midi": 53,
          "time": 85.38452999999977,
          "velocity": 0.6299212598425197,
          "duration": 0.10865373750000629
        },
        {
          "name": "A#3",
          "midi": 58,
          "time": 85.49991449999978,
          "velocity": 0.6299212598425197,
          "duration": 0.10865373750000629
        },
        {
          "name": "F3",
          "midi": 53,
          "time": 85.61529899999978,
          "velocity": 0.6299212598425197,
          "duration": 0.10865373750000629
        },
        {
          "name": "A#2",
          "midi": 46,
          "time": 85.73068349999978,
          "velocity": 0.6299212598425197,
          "duration": 16.245176062500008
        },
        {
          "name": "D#2",
          "midi": 39,
          "time": 85.84606799999979,
          "velocity": 0.6299212598425197,
          "duration": 16.129791562500003
        },
        {
          "name": "D#3",
          "midi": 51,
          "time": 85.84606799999979,
          "velocity": 0.6299212598425197,
          "duration": 16.129791562500003
        },
        {
          "name": "D#4",
          "midi": 63,
          "time": 86.76914399999978,
          "velocity": 0.3858267716535433,
          "duration": 9.137490862500016
        },
        {
          "name": "A#4",
          "midi": 70,
          "time": 87.1152974999998,
          "velocity": 0.3858267716535433,
          "duration": 0.3278842874999981
        },
        {
          "name": "D#5",
          "midi": 75,
          "time": 87.4614509999998,
          "velocity": 0.3858267716535433,
          "duration": 0.2182690125000022
        },
        {
          "name": "F#5",
          "midi": 78,
          "time": 87.69221999999979,
          "velocity": 0.3858267716535433,
          "duration": 0.3278842874999981
        },
        {
          "name": "D#5",
          "midi": 75,
          "time": 88.03837349999979,
          "velocity": 0.3858267716535433,
          "duration": 0.3278842874999981
        },
        {
          "name": "A#4",
          "midi": 70,
          "time": 88.38452699999979,
          "velocity": 0.3858267716535433,
          "duration": 0.2182690125000022
        },
        {
          "name": "A#3",
          "midi": 58,
          "time": 88.61529599999979,
          "velocity": 0.3858267716535433,
          "duration": 0.3278842875000123
        },
        {
          "name": "F4",
          "midi": 65,
          "time": 88.9614494999998,
          "velocity": 0.3858267716535433,
          "duration": 0.3278842874999981
        },
        {
          "name": "A#4",
          "midi": 70,
          "time": 89.3076029999998,
          "velocity": 0.3858267716535433,
          "duration": 0.2182690125000022
        },
        {
          "name": "C#5",
          "midi": 73,
          "time": 89.5383719999998,
          "velocity": 0.3858267716535433,
          "duration": 0.3278842874999981
        },
        {
          "name": "A#4",
          "midi": 70,
          "time": 89.8845254999998,
          "velocity": 0.3858267716535433,
          "duration": 0.3278842874999981
        },
        {
          "name": "F4",
          "midi": 65,
          "time": 90.2306789999998,
          "velocity": 0.3858267716535433,
          "duration": 0.2182690125000022
        },
        {
          "name": "F#4",
          "midi": 66,
          "time": 90.46144799999979,
          "velocity": 0.3858267716535433,
          "duration": 0.3278842875000123
        },
        {
          "name": "C#5",
          "midi": 73,
          "time": 90.8076014999998,
          "velocity": 0.3858267716535433,
          "duration": 0.3278842874999981
        },
        {
          "name": "F#5",
          "midi": 78,
          "time": 91.1537549999998,
          "velocity": 0.3858267716535433,
          "duration": 0.2182690125000022
        },
        {
          "name": "A#5",
          "midi": 82,
          "time": 91.3845239999998,
          "velocity": 0.3858267716535433,
          "duration": 0.3278842874999981
        },
        {
          "name": "F#5",
          "midi": 78,
          "time": 91.7306774999998,
          "velocity": 0.3858267716535433,
          "duration": 0.3278842874999981
        },
        {
          "name": "C#5",
          "midi": 73,
          "time": 92.0768309999998,
          "velocity": 0.3858267716535433,
          "duration": 0.2182690125000022
        },
        {
          "name": "B3",
          "midi": 59,
          "time": 92.3075999999998,
          "velocity": 0.3858267716535433,
          "duration": 10.591335562499978
        },
        {
          "name": "F#4",
          "midi": 66,
          "time": 92.65375349999981,
          "velocity": 0.3858267716535433,
          "duration": 0.3278842874999981
        },
        {
          "name": "B4",
          "midi": 71,
          "time": 92.99990699999981,
          "velocity": 0.3858267716535433,
          "duration": 0.2182690125000022
        },
        {
          "name": "D#5",
          "midi": 75,
          "time": 93.2306759999998,
          "velocity": 0.3858267716535433,
          "duration": 0.3278842874999981
        },
        {
          "name": "B4",
          "midi": 71,
          "time": 93.5768294999998,
          "velocity": 0.4251968503937008,
          "duration": 0.3278842874999981
        },
        {
          "name": "F#4",
          "midi": 66,
          "time": 93.9229829999998,
          "velocity": 0.47244094488188976,
          "duration": 0.2182690125000022
        },
        {
          "name": "A#4",
          "midi": 70,
          "time": 94.1537519999998,
          "velocity": 0.5039370078740157,
          "duration": 0.34519196250001016
        },
        {
          "name": "D#4",
          "midi": 63,
          "time": 94.1537519999998,
          "velocity": 0.5039370078740157,
          "duration": 9.206721562499965
        },
        {
          "name": "F#5",
          "midi": 78,
          "time": 94.20279041249981,
          "velocity": 0.5039370078740157,
          "duration": 0.2951920124999958
        },
        {
          "name": "A#4",
          "midi": 70,
          "time": 94.49990549999981,
          "velocity": 0.5039370078740157,
          "duration": 0.3278842874999981
        },
        {
          "name": "F#5",
          "midi": 78,
          "time": 94.49990549999981,
          "velocity": 0.5039370078740157,
          "duration": 0.3278842874999981
        },
        {
          "name": "A#4",
          "midi": 70,
          "time": 94.84605899999981,
          "velocity": 0.5039370078740157,
          "duration": 0.2182690125000022
        },
        {
          "name": "D#5",
          "midi": 75,
          "time": 94.84605899999981,
          "velocity": 0.5039370078740157,
          "duration": 0.2182690125000022
        },
        {
          "name": "A#4",
          "midi": 70,
          "time": 95.07682799999981,
          "velocity": 0.5039370078740157,
          "duration": 0.3278842874999981
        },
        {
          "name": "F#5",
          "midi": 78,
          "time": 95.07682799999981,
          "velocity": 0.5039370078740157,
          "duration": 0.3278842874999981
        },
        {
          "name": "A#4",
          "midi": 70,
          "time": 95.4229814999998,
          "velocity": 0.5039370078740157,
          "duration": 0.3278842874999981
        },
        {
          "name": "F#5",
          "midi": 78,
          "time": 95.4229814999998,
          "velocity": 0.5039370078740157,
          "duration": 0.3278842874999981
        },
        {
          "name": "A#4",
          "midi": 70,
          "time": 95.7691349999998,
          "velocity": 0.5039370078740157,
          "duration": 0.21826901249998798
        },
        {
          "name": "D#5",
          "midi": 75,
          "time": 95.7691349999998,
          "velocity": 0.5039370078740157,
          "duration": 0.21826901249998798
        },
        {
          "name": "A#4",
          "midi": 70,
          "time": 95.99990399999979,
          "velocity": 0.5039370078740157,
          "duration": 0.34519196250001016
        },
        {
          "name": "A#3",
          "midi": 58,
          "time": 95.99990399999979,
          "velocity": 0.5039370078740157,
          "duration": 1.7528828625000017
        },
        {
          "name": "A#4",
          "midi": 70,
          "time": 96.3460574999998,
          "velocity": 0.5039370078740157,
          "duration": 0.3278842874999981
        },
        {
          "name": "F5",
          "midi": 77,
          "time": 96.3460574999998,
          "velocity": 0.5039370078740157,
          "duration": 0.3278842874999981
        },
        {
          "name": "A#4",
          "midi": 70,
          "time": 96.6922109999998,
          "velocity": 0.5039370078740157,
          "duration": 0.2182690125000022
        },
        {
          "name": "C#5",
          "midi": 73,
          "time": 96.6922109999998,
          "velocity": 0.5039370078740157,
          "duration": 0.2182690125000022
        },
        {
          "name": "F4",
          "midi": 65,
          "time": 96.9229799999998,
          "velocity": 0.5039370078740157,
          "duration": 0.437499562499994
        },
        {
          "name": "C#5",
          "midi": 73,
          "time": 96.9229799999998,
          "velocity": 0.5039370078740157,
          "duration": 0.437499562499994
        },
        {
          "name": "A#4",
          "midi": 70,
          "time": 97.38451799999979,
          "velocity": 0.5039370078740157,
          "duration": 0.10865373750000629
        },
        {
          "name": "C#5",
          "midi": 73,
          "time": 97.38451799999979,
          "velocity": 0.5039370078740157,
          "duration": 0.10865373750000629
        },
        {
          "name": "A#4",
          "midi": 70,
          "time": 97.49990249999979,
          "velocity": 0.5039370078740157,
          "duration": 0.3278842874999981
        },
        {
          "name": "C#5",
          "midi": 73,
          "time": 97.49990249999979,
          "velocity": 0.5039370078740157,
          "duration": 0.3278842874999981
        },
        {
          "name": "C#5",
          "midi": 73,
          "time": 97.84605599999979,
          "velocity": 0.5039370078740157,
          "duration": 0.4374995625000082
        },
        {
          "name": "F#5",
          "midi": 78,
          "time": 97.84605599999979,
          "velocity": 0.5039370078740157,
          "duration": 0.4374995625000082
        },
        {
          "name": "F#4",
          "midi": 66,
          "time": 97.84605599999979,
          "velocity": 0.5039370078740157,
          "duration": 1.7528828625000017
        },
        {
          "name": "D#5",
          "midi": 75,
          "time": 98.3075939999998,
          "velocity": 0.5039370078740157,
          "duration": 0.10865373750000629
        },
        {
          "name": "G#5",
          "midi": 80,
          "time": 98.3075939999998,
          "velocity": 0.5039370078740157,
          "duration": 0.10865373750000629
        },
        {
          "name": "D#5",
          "midi": 75,
          "time": 98.4229784999998,
          "velocity": 0.5039370078740157,
          "duration": 0.3278842874999981
        },
        {
          "name": "G#5",
          "midi": 80,
          "time": 98.4229784999998,
          "velocity": 0.5039370078740157,
          "duration": 0.3278842874999981
        },
        {
          "name": "F#5",
          "midi": 78,
          "time": 98.7691319999998,
          "velocity": 0.5039370078740157,
          "duration": 0.437499562499994
        },
        {
          "name": "A#5",
          "midi": 82,
          "time": 98.7691319999998,
          "velocity": 0.5039370078740157,
          "duration": 0.437499562499994
        },
        {
          "name": "D#5",
          "midi": 75,
          "time": 99.23066999999979,
          "velocity": 0.5039370078740157,
          "duration": 0.4374995625000082
        },
        {
          "name": "G#5",
          "midi": 80,
          "time": 99.23066999999979,
          "velocity": 0.5039370078740157,
          "duration": 0.4374995625000082
        },
        {
          "name": "D#2",
          "midi": 39,
          "time": 101.5383599999998,
          "velocity": 0.6299212598425197,
          "duration": 0.6798070124999924
        },
        {
          "name": "A#2",
          "midi": 46,
          "time": 101.5383599999998,
          "velocity": 0.6299212598425197,
          "duration": 4.129803562499916
        },
        {
          "name": "D#3",
          "midi": 51,
          "time": 101.5383599999998,
          "velocity": 0.6299212598425197,
          "duration": 0.6798070124999924
        },
        {
          "name": "D#2",
          "midi": 39,
          "time": 101.99989799999979,
          "velocity": 0.6299212598425197,
          "duration": 3.6682655624999256
        },
        {
          "name": "D#3",
          "midi": 51,
          "time": 101.99989799999979,
          "velocity": 0.6299212598425197,
          "duration": 1.3605755624999745
        },
        {
          "name": "F#2",
          "midi": 42,
          "time": 102.23066699999978,
          "velocity": 0.6299212598425197,
          "duration": 3.910573012499924
        },
        {
          "name": "F#3",
          "midi": 54,
          "time": 102.23066699999978,
          "velocity": 0.6299212598425197,
          "duration": 3.910573012499924
        },
        {
          "name": "B2",
          "midi": 47,
          "time": 102.46143599999978,
          "velocity": 0.6299212598425197,
          "duration": 1.3721140124999778
        },
        {
          "name": "B3",
          "midi": 59,
          "time": 102.46143599999978,
          "velocity": 0.6299212598425197,
          "duration": 1.1413450124999827
        },
        {
          "name": "D#3",
          "midi": 51,
          "time": 102.92297399999977,
          "velocity": 0.6299212598425197,
          "duration": 1.8221135624999647
        },
        {
          "name": "D#4",
          "midi": 63,
          "time": 102.92297399999977,
          "velocity": 0.6299212598425197,
          "duration": 1.8221135624999647
        },
        {
          "name": "E3",
          "midi": 52,
          "time": 103.38451199999976,
          "velocity": 0.6299212598425197,
          "duration": 0.8990375624999842
        },
        {
          "name": "B3",
          "midi": 59,
          "time": 103.38451199999976,
          "velocity": 0.6299212598425197,
          "duration": 0.4490380124999973
        },
        {
          "name": "E4",
          "midi": 64,
          "time": 103.38451199999976,
          "velocity": 0.6299212598425197,
          "duration": 0.8990375624999842
        },
        {
          "name": "B2",
          "midi": 47,
          "time": 103.61528099999975,
          "velocity": 0.6299212598425197,
          "duration": 2.9759585624999403
        },
        {
          "name": "B3",
          "midi": 59,
          "time": 103.61528099999975,
          "velocity": 0.6299212598425197,
          "duration": 2.9759585624999403
        },
        {
          "name": "E3",
          "midi": 52,
          "time": 103.84604999999975,
          "velocity": 0.6299212598425197,
          "duration": 3.449035012499934
        },
        {
          "name": "E4",
          "midi": 64,
          "time": 103.84604999999975,
          "velocity": 0.6299212598425197,
          "duration": 3.449035012499934
        },
        {
          "name": "D#3",
          "midi": 51,
          "time": 104.30758799999974,
          "velocity": 0.6299212598425197,
          "duration": 0.8990375624999842
        },
        {
          "name": "D#4",
          "midi": 63,
          "time": 104.30758799999974,
          "velocity": 0.6299212598425197,
          "duration": 0.8990375624999842
        },
        {
          "name": "D#3",
          "midi": 51,
          "time": 104.76912599999973,
          "velocity": 0.6299212598425197,
          "duration": 0.8990375624999842
        },
        {
          "name": "D#4",
          "midi": 63,
          "time": 104.76912599999973,
          "velocity": 0.6299212598425197,
          "duration": 2.283651562499955
        },
        {
          "name": "D#2",
          "midi": 39,
          "time": 105.23066399999972,
          "velocity": 0.6299212598425197,
          "duration": 0.6798070124999924
        },
        {
          "name": "A#2",
          "midi": 46,
          "time": 105.23066399999972,
          "velocity": 0.6299212598425197,
          "duration": 4.129803562499916
        },
        {
          "name": "D#3",
          "midi": 51,
          "time": 105.23066399999972,
          "velocity": 0.6299212598425197,
          "duration": 0.6798070124999924
        },
        {
          "name": "D#2",
          "midi": 39,
          "time": 105.69220199999971,
          "velocity": 0.6299212598425197,
          "duration": 3.6682655624999256
        },
        {
          "name": "D#3",
          "midi": 51,
          "time": 105.69220199999971,
          "velocity": 0.6299212598425197,
          "duration": 1.3605755624999745
        },
        {
          "name": "F#2",
          "midi": 42,
          "time": 105.9229709999997,
          "velocity": 0.6299212598425197,
          "duration": 3.910573012499924
        },
        {
          "name": "F#3",
          "midi": 54,
          "time": 105.9229709999997,
          "velocity": 0.6299212598425197,
          "duration": 3.910573012499924
        },
        {
          "name": "B2",
          "midi": 47,
          "time": 106.1537399999997,
          "velocity": 0.6299212598425197,
          "duration": 1.3721140124999778
        },
        {
          "name": "B3",
          "midi": 59,
          "time": 106.1537399999997,
          "velocity": 0.6299212598425197,
          "duration": 1.1413450124999827
        },
        {
          "name": "D#3",
          "midi": 51,
          "time": 106.61527799999969,
          "velocity": 0.6299212598425197,
          "duration": 1.8221135624999647
        },
        {
          "name": "D#4",
          "midi": 63,
          "time": 106.61527799999969,
          "velocity": 0.6299212598425197,
          "duration": 1.8221135624999647
        },
        {
          "name": "E3",
          "midi": 52,
          "time": 107.07681599999968,
          "velocity": 0.6299212598425197,
          "duration": 0.8990375624999842
        },
        {
          "name": "B3",
          "midi": 59,
          "time": 107.07681599999968,
          "velocity": 0.6299212598425197,
          "duration": 0.4490380124999973
        },
        {
          "name": "E4",
          "midi": 64,
          "time": 107.07681599999968,
          "velocity": 0.6299212598425197,
          "duration": 0.8990375624999842
        },
        {
          "name": "B2",
          "midi": 47,
          "time": 107.30758499999968,
          "velocity": 0.6299212598425197,
          "duration": 2.9759585624999403
        },
        {
          "name": "B3",
          "midi": 59,
          "time": 107.30758499999968,
          "velocity": 0.6299212598425197,
          "duration": 2.9759585624999403
        },
        {
          "name": "E3",
          "midi": 52,
          "time": 107.53835399999967,
          "velocity": 0.6299212598425197,
          "duration": 3.449035012499934
        },
        {
          "name": "E4",
          "midi": 64,
          "time": 107.53835399999967,
          "velocity": 0.6299212598425197,
          "duration": 3.449035012499934
        },
        {
          "name": "D#3",
          "midi": 51,
          "time": 107.99989199999966,
          "velocity": 0.6299212598425197,
          "duration": 0.8990375624999842
        },
        {
          "name": "D#4",
          "midi": 63,
          "time": 107.99989199999966,
          "velocity": 0.6299212598425197,
          "duration": 0.8990375624999842
        },
        {
          "name": "D#3",
          "midi": 51,
          "time": 108.46142999999965,
          "velocity": 0.6299212598425197,
          "duration": 0.8990375624999842
        },
        {
          "name": "D#4",
          "midi": 63,
          "time": 108.46142999999965,
          "velocity": 0.6299212598425197,
          "duration": 2.283651562499955
        },
        {
          "name": "D#2",
          "midi": 39,
          "time": 108.92296799999964,
          "velocity": 0.6299212598425197,
          "duration": 0.6798070124999924
        },
        {
          "name": "A#2",
          "midi": 46,
          "time": 108.92296799999964,
          "velocity": 0.6299212598425197,
          "duration": 4.602880012499909
        },
        {
          "name": "D#3",
          "midi": 51,
          "time": 108.92296799999964,
          "velocity": 0.6299212598425197,
          "duration": 0.6798070124999924
        },
        {
          "name": "D#2",
          "midi": 39,
          "time": 109.38450599999963,
          "velocity": 0.6299212598425197,
          "duration": 7.3605695624998475
        },
        {
          "name": "D#3",
          "midi": 51,
          "time": 109.38450599999963,
          "velocity": 0.6299212598425197,
          "duration": 1.3605755624999745
        },
        {
          "name": "F#2",
          "midi": 42,
          "time": 109.61527499999963,
          "velocity": 0.6299212598425197,
          "duration": 7.602877012499846
        },
        {
          "name": "F#3",
          "midi": 54,
          "time": 109.61527499999963,
          "velocity": 0.6299212598425197,
          "duration": 7.602877012499846
        },
        {
          "name": "B2",
          "midi": 47,
          "time": 109.84604399999962,
          "velocity": 0.6299212598425197,
          "duration": 1.3721140124999778
        },
        {
          "name": "B3",
          "midi": 59,
          "time": 109.84604399999962,
          "velocity": 0.6299212598425197,
          "duration": 1.1413450124999827
        },
        {
          "name": "D#3",
          "midi": 51,
          "time": 110.30758199999961,
          "velocity": 0.6299212598425197,
          "duration": 1.8221135624999647
        },
        {
          "name": "D#4",
          "midi": 63,
          "time": 110.30758199999961,
          "velocity": 0.6299212598425197,
          "duration": 1.8221135624999647
        },
        {
          "name": "E3",
          "midi": 52,
          "time": 110.7691199999996,
          "velocity": 0.6299212598425197,
          "duration": 0.8990375624999842
        },
        {
          "name": "B3",
          "midi": 59,
          "time": 110.7691199999996,
          "velocity": 0.6299212598425197,
          "duration": 0.4490380124999973
        },
        {
          "name": "E4",
          "midi": 64,
          "time": 110.7691199999996,
          "velocity": 0.6299212598425197,
          "duration": 0.8990375624999842
        },
        {
          "name": "B2",
          "midi": 47,
          "time": 110.9998889999996,
          "velocity": 0.6299212598425197,
          "duration": 2.9759585624999403
        },
        {
          "name": "B3",
          "midi": 59,
          "time": 110.9998889999996,
          "velocity": 0.6299212598425197,
          "duration": 2.9759585624999403
        },
        {
          "name": "E3",
          "midi": 52,
          "time": 111.2306579999996,
          "velocity": 0.6299212598425197,
          "duration": 3.449035012499934
        },
        {
          "name": "E4",
          "midi": 64,
          "time": 111.2306579999996,
          "velocity": 0.6299212598425197,
          "duration": 3.449035012499934
        },
        {
          "name": "D#3",
          "midi": 51,
          "time": 111.69219599999958,
          "velocity": 0.6299212598425197,
          "duration": 0.8990375624999842
        },
        {
          "name": "D#4",
          "midi": 63,
          "time": 111.69219599999958,
          "velocity": 0.6299212598425197,
          "duration": 0.8990375624999842
        },
        {
          "name": "D#3",
          "midi": 51,
          "time": 112.15373399999957,
          "velocity": 0.6299212598425197,
          "duration": 0.8990375624999842
        },
        {
          "name": "D#4",
          "midi": 63,
          "time": 112.15373399999957,
          "velocity": 0.6299212598425197,
          "duration": 2.283651562499955
        },
        {
          "name": "G#2",
          "midi": 44,
          "time": 112.61527199999956,
          "velocity": 0.6299212598425197,
          "duration": 0.6798070124999924
        },
        {
          "name": "D#3",
          "midi": 51,
          "time": 112.61527199999956,
          "velocity": 0.6299212598425197,
          "duration": 1.8221135624999647
        },
        {
          "name": "G#3",
          "midi": 56,
          "time": 112.61527199999956,
          "velocity": 0.6299212598425197,
          "duration": 0.437499562499994
        },
        {
          "name": "G#2",
          "midi": 44,
          "time": 113.07680999999955,
          "velocity": 0.6299212598425197,
          "duration": 14.745177562499691
        },
        {
          "name": "G#3",
          "midi": 56,
          "time": 113.07680999999955,
          "velocity": 0.6299212598425197,
          "duration": 0.2182690125000022
        },
        {
          "name": "A#2",
          "midi": 46,
          "time": 113.30757899999955,
          "velocity": 0.6299212598425197,
          "duration": 3.4374965624999305
        },
        {
          "name": "A#3",
          "midi": 58,
          "time": 113.30757899999955,
          "velocity": 0.6299212598425197,
          "duration": 0.2182690125000022
        },
        {
          "name": "B2",
          "midi": 47,
          "time": 113.53834799999954,
          "velocity": 0.6299212598425197,
          "duration": 1.3721140124999778
        },
        {
          "name": "B3",
          "midi": 59,
          "time": 113.53834799999954,
          "velocity": 0.6299212598425197,
          "duration": 1.1413450124999827
        },
        {
          "name": "D#3",
          "midi": 51,
          "time": 113.99988599999953,
          "velocity": 0.6299212598425197,
          "duration": 1.8221135624999647
        },
        {
          "name": "D#4",
          "midi": 63,
          "time": 113.99988599999953,
          "velocity": 0.6299212598425197,
          "duration": 1.8221135624999647
        },
        {
          "name": "E3",
          "midi": 52,
          "time": 114.46142399999952,
          "velocity": 0.6299212598425197,
          "duration": 0.8990375624999842
        },
        {
          "name": "B3",
          "midi": 59,
          "time": 114.46142399999952,
          "velocity": 0.6299212598425197,
          "duration": 0.4490380124999973
        },
        {
          "name": "E4",
          "midi": 64,
          "time": 114.46142399999952,
          "velocity": 0.6299212598425197,
          "duration": 0.8990375624999842
        },
        {
          "name": "B2",
          "midi": 47,
          "time": 114.69219299999952,
          "velocity": 0.6299212598425197,
          "duration": 2.9759585624999403
        },
        {
          "name": "B3",
          "midi": 59,
          "time": 114.69219299999952,
          "velocity": 0.6299212598425197,
          "duration": 2.9759585624999403
        },
        {
          "name": "E3",
          "midi": 52,
          "time": 114.92296199999952,
          "velocity": 0.6299212598425197,
          "duration": 3.449035012499934
        },
        {
          "name": "E4",
          "midi": 64,
          "time": 114.92296199999952,
          "velocity": 0.6299212598425197,
          "duration": 3.449035012499934
        },
        {
          "name": "D#3",
          "midi": 51,
          "time": 115.3844999999995,
          "velocity": 0.6299212598425197,
          "duration": 0.8990375624999842
        },
        {
          "name": "D#4",
          "midi": 63,
          "time": 115.3844999999995,
          "velocity": 0.6299212598425197,
          "duration": 0.8990375624999842
        },
        {
          "name": "D#3",
          "midi": 51,
          "time": 115.8460379999995,
          "velocity": 0.6299212598425197,
          "duration": 0.8990375624999842
        },
        {
          "name": "D#4",
          "midi": 63,
          "time": 115.8460379999995,
          "velocity": 0.6299212598425197,
          "duration": 2.283651562499955
        },
        {
          "name": "D#2",
          "midi": 39,
          "time": 116.30757599999949,
          "velocity": 0.6299212598425197,
          "duration": 0.6798070124999924
        },
        {
          "name": "A#2",
          "midi": 46,
          "time": 116.30757599999949,
          "velocity": 0.6299212598425197,
          "duration": 4.129803562499916
        },
        {
          "name": "D#3",
          "midi": 51,
          "time": 116.30757599999949,
          "velocity": 0.6299212598425197,
          "duration": 0.6798070124999924
        },
        {
          "name": "D#2",
          "midi": 39,
          "time": 116.76911399999948,
          "velocity": 0.6299212598425197,
          "duration": 3.6682655624999256
        },
        {
          "name": "D#3",
          "midi": 51,
          "time": 116.76911399999948,
          "velocity": 0.6299212598425197,
          "duration": 1.3605755624999745
        },
        {
          "name": "F#2",
          "midi": 42,
          "time": 116.99988299999947,
          "velocity": 0.6299212598425197,
          "duration": 3.910573012499924
        },
        {
          "name": "F#3",
          "midi": 54,
          "time": 116.99988299999947,
          "velocity": 0.6299212598425197,
          "duration": 3.910573012499924
        },
        {
          "name": "B2",
          "midi": 47,
          "time": 117.23065199999947,
          "velocity": 0.6299212598425197,
          "duration": 1.3721140124999778
        },
        {
          "name": "B3",
          "midi": 59,
          "time": 117.23065199999947,
          "velocity": 0.6299212598425197,
          "duration": 1.1413450124999827
        },
        {
          "name": "D#3",
          "midi": 51,
          "time": 117.69218999999946,
          "velocity": 0.6299212598425197,
          "duration": 1.8221135624999647
        },
        {
          "name": "D#4",
          "midi": 63,
          "time": 117.69218999999946,
          "velocity": 0.6299212598425197,
          "duration": 1.8221135624999647
        },
        {
          "name": "E3",
          "midi": 52,
          "time": 118.15372799999945,
          "velocity": 0.6299212598425197,
          "duration": 0.8990375624999842
        },
        {
          "name": "B3",
          "midi": 59,
          "time": 118.15372799999945,
          "velocity": 0.6299212598425197,
          "duration": 0.4490380124999973
        },
        {
          "name": "E4",
          "midi": 64,
          "time": 118.15372799999945,
          "velocity": 0.6299212598425197,
          "duration": 0.8990375624999842
        },
        {
          "name": "B2",
          "midi": 47,
          "time": 118.38449699999944,
          "velocity": 0.6299212598425197,
          "duration": 2.9759585624999403
        },
        {
          "name": "B3",
          "midi": 59,
          "time": 118.38449699999944,
          "velocity": 0.6299212598425197,
          "duration": 2.9759585624999403
        },
        {
          "name": "E3",
          "midi": 52,
          "time": 118.61526599999944,
          "velocity": 0.6299212598425197,
          "duration": 3.449035012499934
        },
        {
          "name": "E4",
          "midi": 64,
          "time": 118.61526599999944,
          "velocity": 0.6299212598425197,
          "duration": 3.449035012499934
        },
        {
          "name": "D#3",
          "midi": 51,
          "time": 119.07680399999943,
          "velocity": 0.6299212598425197,
          "duration": 0.8990375624999842
        },
        {
          "name": "D#4",
          "midi": 63,
          "time": 119.07680399999943,
          "velocity": 0.6299212598425197,
          "duration": 0.8990375624999842
        },
        {
          "name": "D#3",
          "midi": 51,
          "time": 119.53834199999942,
          "velocity": 0.6299212598425197,
          "duration": 0.8990375624999842
        },
        {
          "name": "D#4",
          "midi": 63,
          "time": 119.53834199999942,
          "velocity": 0.6299212598425197,
          "duration": 2.283651562499955
        },
        {
          "name": "D#2",
          "midi": 39,
          "time": 119.99987999999941,
          "velocity": 0.6299212598425197,
          "duration": 0.6798070124999924
        },
        {
          "name": "A#2",
          "midi": 46,
          "time": 119.99987999999941,
          "velocity": 0.6299212598425197,
          "duration": 4.129803562499916
        },
        {
          "name": "D#3",
          "midi": 51,
          "time": 119.99987999999941,
          "velocity": 0.6299212598425197,
          "duration": 0.6798070124999924
        },
        {
          "name": "D#2",
          "midi": 39,
          "time": 120.4614179999994,
          "velocity": 0.6299212598425197,
          "duration": 3.6682655624999256
        },
        {
          "name": "D#3",
          "midi": 51,
          "time": 120.4614179999994,
          "velocity": 0.6299212598425197,
          "duration": 1.3605755624999745
        },
        {
          "name": "F#2",
          "midi": 42,
          "time": 120.6921869999994,
          "velocity": 0.6299212598425197,
          "duration": 3.910573012499924
        },
        {
          "name": "F#3",
          "midi": 54,
          "time": 120.6921869999994,
          "velocity": 0.6299212598425197,
          "duration": 3.910573012499924
        },
        {
          "name": "B2",
          "midi": 47,
          "time": 120.92295599999939,
          "velocity": 0.6299212598425197,
          "duration": 1.3721140124999778
        },
        {
          "name": "B3",
          "midi": 59,
          "time": 120.92295599999939,
          "velocity": 0.6299212598425197,
          "duration": 1.1413450124999827
        },
        {
          "name": "D#3",
          "midi": 51,
          "time": 121.38449399999938,
          "velocity": 0.6299212598425197,
          "duration": 1.8221135624999647
        },
        {
          "name": "D#4",
          "midi": 63,
          "time": 121.38449399999938,
          "velocity": 0.6299212598425197,
          "duration": 1.8221135624999647
        },
        {
          "name": "E3",
          "midi": 52,
          "time": 121.84603199999937,
          "velocity": 0.6299212598425197,
          "duration": 0.8990375624999842
        },
        {
          "name": "B3",
          "midi": 59,
          "time": 121.84603199999937,
          "velocity": 0.6299212598425197,
          "duration": 0.4490380124999973
        },
        {
          "name": "E4",
          "midi": 64,
          "time": 121.84603199999937,
          "velocity": 0.6299212598425197,
          "duration": 0.8990375624999842
        },
        {
          "name": "B2",
          "midi": 47,
          "time": 122.07680099999936,
          "velocity": 0.6299212598425197,
          "duration": 2.9759585624999403
        },
        {
          "name": "B3",
          "midi": 59,
          "time": 122.07680099999936,
          "velocity": 0.6299212598425197,
          "duration": 2.9759585624999403
        },
        {
          "name": "E3",
          "midi": 52,
          "time": 122.30756999999936,
          "velocity": 0.6299212598425197,
          "duration": 3.449035012499934
        },
        {
          "name": "E4",
          "midi": 64,
          "time": 122.30756999999936,
          "velocity": 0.6299212598425197,
          "duration": 3.449035012499934
        },
        {
          "name": "D#3",
          "midi": 51,
          "time": 122.76910799999935,
          "velocity": 0.6299212598425197,
          "duration": 0.8990375624999842
        },
        {
          "name": "D#4",
          "midi": 63,
          "time": 122.76910799999935,
          "velocity": 0.6299212598425197,
          "duration": 0.8990375624999842
        },
        {
          "name": "D#3",
          "midi": 51,
          "time": 123.23064599999934,
          "velocity": 0.6299212598425197,
          "duration": 0.8990375624999842
        },
        {
          "name": "D#4",
          "midi": 63,
          "time": 123.23064599999934,
          "velocity": 0.6299212598425197,
          "duration": 2.283651562499955
        },
        {
          "name": "D#2",
          "midi": 39,
          "time": 123.69218399999933,
          "velocity": 0.6299212598425197,
          "duration": 0.6798070124999924
        },
        {
          "name": "A#2",
          "midi": 46,
          "time": 123.69218399999933,
          "velocity": 0.6299212598425197,
          "duration": 4.602880012499909
        },
        {
          "name": "D#3",
          "midi": 51,
          "time": 123.69218399999933,
          "velocity": 0.6299212598425197,
          "duration": 0.6798070124999924
        },
        {
          "name": "D#2",
          "midi": 39,
          "time": 124.15372199999932,
          "velocity": 0.6299212598425197,
          "duration": 8.675952862499955
        },
        {
          "name": "D#3",
          "midi": 51,
          "time": 124.15372199999932,
          "velocity": 0.6299212598425197,
          "duration": 1.3605755624999745
        },
        {
          "name": "F#2",
          "midi": 42,
          "time": 124.38449099999931,
          "velocity": 0.6299212598425197,
          "duration": 19.614403462500036
        },
        {
          "name": "F#3",
          "midi": 54,
          "time": 124.38449099999931,
          "velocity": 0.6299212598425197,
          "duration": 7.60287701249996
        },
        {
          "name": "B2",
          "midi": 47,
          "time": 124.61525999999931,
          "velocity": 0.6299212598425197,
          "duration": 1.3721140124999778
        },
        {
          "name": "B3",
          "midi": 59,
          "time": 124.61525999999931,
          "velocity": 0.6299212598425197,
          "duration": 1.1413450124999827
        },
        {
          "name": "D#3",
          "midi": 51,
          "time": 125.0767979999993,
          "velocity": 0.6299212598425197,
          "duration": 1.8221135624999647
        },
        {
          "name": "D#4",
          "midi": 63,
          "time": 125.0767979999993,
          "velocity": 0.6299212598425197,
          "duration": 1.8221135624999647
        },
        {
          "name": "E3",
          "midi": 52,
          "time": 125.53833599999929,
          "velocity": 0.6299212598425197,
          "duration": 0.8990375624999842
        },
        {
          "name": "B3",
          "midi": 59,
          "time": 125.53833599999929,
          "velocity": 0.6299212598425197,
          "duration": 0.4490380124999973
        },
        {
          "name": "E4",
          "midi": 64,
          "time": 125.53833599999929,
          "velocity": 0.6299212598425197,
          "duration": 0.8990375624999842
        },
        {
          "name": "B2",
          "midi": 47,
          "time": 125.76910499999929,
          "velocity": 0.6299212598425197,
          "duration": 2.9759585624999545
        },
        {
          "name": "B3",
          "midi": 59,
          "time": 125.76910499999929,
          "velocity": 0.6299212598425197,
          "duration": 2.9759585624999545
        },
        {
          "name": "E3",
          "midi": 52,
          "time": 125.99987399999928,
          "velocity": 0.6299212598425197,
          "duration": 3.449035012499948
        },
        {
          "name": "E4",
          "midi": 64,
          "time": 125.99987399999928,
          "velocity": 0.6299212598425197,
          "duration": 3.449035012499948
        },
        {
          "name": "D#3",
          "midi": 51,
          "time": 126.46141199999927,
          "velocity": 0.6299212598425197,
          "duration": 0.8990375624999842
        },
        {
          "name": "D#4",
          "midi": 63,
          "time": 126.46141199999927,
          "velocity": 0.6299212598425197,
          "duration": 0.8990375624999842
        },
        {
          "name": "D#3",
          "midi": 51,
          "time": 126.92294999999926,
          "velocity": 0.6299212598425197,
          "duration": 0.8990375624999842
        },
        {
          "name": "D#4",
          "midi": 63,
          "time": 126.92294999999926,
          "velocity": 0.6299212598425197,
          "duration": 2.283651562499969
        },
        {
          "name": "G#2",
          "midi": 44,
          "time": 127.38448799999925,
          "velocity": 0.6299212598425197,
          "duration": 0.6798070124999782
        },
        {
          "name": "D#3",
          "midi": 51,
          "time": 127.38448799999925,
          "velocity": 0.6299212598425197,
          "duration": 1.822113562499979
        },
        {
          "name": "G#3",
          "midi": 56,
          "time": 127.38448799999925,
          "velocity": 0.6299212598425197,
          "duration": 0.437499562499994
        },
        {
          "name": "G#2",
          "midi": 44,
          "time": 127.84602599999924,
          "velocity": 0.6299212598425197,
          "duration": 6.829800862500051
        },
        {
          "name": "G#3",
          "midi": 56,
          "time": 127.84602599999924,
          "velocity": 0.6299212598425197,
          "duration": 0.21826901249998798
        },
        {
          "name": "A#2",
          "midi": 46,
          "time": 128.07679499999924,
          "velocity": 0.6299212598425197,
          "duration": 2.9759585625000113
        },
        {
          "name": "A#3",
          "midi": 58,
          "time": 128.07679499999924,
          "velocity": 0.6299212598425197,
          "duration": 0.2182690125000022
        },
        {
          "name": "B2",
          "midi": 47,
          "time": 128.30756399999925,
          "velocity": 0.6299212598425197,
          "duration": 1.372114012499992
        },
        {
          "name": "B3",
          "midi": 59,
          "time": 128.30756399999925,
          "velocity": 0.6299212598425197,
          "duration": 1.1413450124999827
        },
        {
          "name": "D#3",
          "midi": 51,
          "time": 128.76910199999924,
          "velocity": 0.6299212598425197,
          "duration": 1.8221135624999931
        },
        {
          "name": "D#4",
          "midi": 63,
          "time": 128.76910199999924,
          "velocity": 0.6299212598425197,
          "duration": 1.8221135624999931
        },
        {
          "name": "E3",
          "midi": 52,
          "time": 129.23063999999923,
          "velocity": 0.6299212598425197,
          "duration": 0.8990375625000127
        },
        {
          "name": "B3",
          "midi": 59,
          "time": 129.23063999999923,
          "velocity": 0.6299212598425197,
          "duration": 0.4490380125000115
        },
        {
          "name": "E4",
          "midi": 64,
          "time": 129.23063999999923,
          "velocity": 0.6299212598425197,
          "duration": 0.8990375625000127
        },
        {
          "name": "B2",
          "midi": 47,
          "time": 129.46140899999924,
          "velocity": 0.6299212598425197,
          "duration": 7.060569862500074
        },
        {
          "name": "B3",
          "midi": 59,
          "time": 129.46140899999924,
          "velocity": 0.6299212598425197,
          "duration": 4.372111012500056
        },
        {
          "name": "E3",
          "midi": 52,
          "time": 129.69217799999925,
          "velocity": 0.6299212598425197,
          "duration": 18.57017373750014
        },
        {
          "name": "E4",
          "midi": 64,
          "time": 129.69217799999925,
          "velocity": 0.6299212598425197,
          "duration": 33.108620737500644
        },
        {
          "name": "D#3",
          "midi": 51,
          "time": 130.15371599999924,
          "velocity": 0.6299212598425197,
          "duration": 1.141345012500011
        },
        {
          "name": "A#3",
          "midi": 58,
          "time": 130.15371599999924,
          "velocity": 0.6299212598425197,
          "duration": 0.437499562499994
        },
        {
          "name": "D#4",
          "midi": 63,
          "time": 130.15371599999924,
          "velocity": 0.6299212598425197,
          "duration": 4.34903411250005
        },
        {
          "name": "A#2",
          "midi": 46,
          "time": 130.61525399999923,
          "velocity": 0.5669291338582677,
          "duration": 0.9105760125000302
        },
        {
          "name": "A#3",
          "midi": 58,
          "time": 130.61525399999923,
          "velocity": 0.5669291338582677,
          "duration": 0.4374995625000224
        },
        {
          "name": "D#3",
          "midi": 51,
          "time": 131.07679199999924,
          "velocity": 0.5039370078740157,
          "duration": 0.6798070125000208
        },
        {
          "name": "D#2",
          "midi": 39,
          "time": 131.07679199999924,
          "velocity": 0.5039370078740157,
          "duration": 9.137490862500101
        },
        {
          "name": "A#2",
          "midi": 46,
          "time": 131.30756099999925,
          "velocity": 0.5039370078740157,
          "duration": 7.060569862500074
        },
        {
          "name": "D#3",
          "midi": 51,
          "time": 131.53832999999926,
          "velocity": 0.5039370078740157,
          "duration": 1.3721140125000204
        },
        {
          "name": "F#3",
          "midi": 54,
          "time": 131.76909899999927,
          "velocity": 0.5039370078740157,
          "duration": 3.449035012500019
        },
        {
          "name": "A#3",
          "midi": 58,
          "time": 131.99986799999928,
          "velocity": 0.5039370078740157,
          "duration": 0.6567301124999858
        },
        {
          "name": "D#3",
          "midi": 51,
          "time": 132.69217499999928,
          "velocity": 0.5039370078740157,
          "duration": 0.6798070124999924
        },
        {
          "name": "G#3",
          "midi": 56,
          "time": 132.9229439999993,
          "velocity": 0.5039370078740157,
          "duration": 0.21826901249997377
        },
        {
          "name": "G#2",
          "midi": 44,
          "time": 132.9229439999993,
          "velocity": 0.5039370078740157,
          "duration": 9.137490862500073
        },
        {
          "name": "D#3",
          "midi": 51,
          "time": 133.15371299999927,
          "velocity": 0.5039370078740157,
          "duration": 5.525956012500046
        },
        {
          "name": "G#3",
          "midi": 56,
          "time": 133.38448199999928,
          "velocity": 0.5039370078740157,
          "duration": 0.2182690125000022
        },
        {
          "name": "B3",
          "midi": 59,
          "time": 133.6152509999993,
          "velocity": 0.5039370078740157,
          "duration": 1.372114012499992
        },
        {
          "name": "D#4",
          "midi": 63,
          "time": 133.8460199999993,
          "velocity": 0.5039370078740157,
          "duration": 1.8336520125000106
        },
        {
          "name": "G#3",
          "midi": 56,
          "time": 134.5383269999993,
          "velocity": 0.5039370078740157,
          "duration": 0.2182690125000022
        },
        {
          "name": "B3",
          "midi": 59,
          "time": 134.7690959999993,
          "velocity": 0.5039370078740157,
          "duration": 0.6798070124999924
        },
        {
          "name": "B2",
          "midi": 47,
          "time": 134.7690959999993,
          "velocity": 0.5039370078740157,
          "duration": 11.074988925000014
        },
        {
          "name": "F#3",
          "midi": 54,
          "time": 134.9998649999993,
          "velocity": 0.5039370078740157,
          "duration": 4.372111012500056
        },
        {
          "name": "B3",
          "midi": 59,
          "time": 135.2306339999993,
          "velocity": 0.5039370078740157,
          "duration": 1.3721140125000204
        },
        {
          "name": "D#4",
          "midi": 63,
          "time": 135.4614029999993,
          "velocity": 0.5039370078740157,
          "duration": 6.4259551125000485
        },
        {
          "name": "F#4",
          "midi": 66,
          "time": 135.69217199999932,
          "velocity": 0.5039370078740157,
          "duration": 0.23076900000000933
        },
        {
          "name": "B3",
          "midi": 59,
          "time": 136.38447899999932,
          "velocity": 0.5039370078740157,
          "duration": 4.833649012500047
        },
        {
          "name": "A#3",
          "midi": 58,
          "time": 136.61524799999933,
          "velocity": 0.5039370078740157,
          "duration": 0.21826901249997377
        },
        {
          "name": "A#2",
          "midi": 46,
          "time": 136.61524799999933,
          "velocity": 0.5039370078740157,
          "duration": 2.295190012500001
        },
        {
          "name": "F3",
          "midi": 53,
          "time": 136.8460169999993,
          "velocity": 0.5196850393700787,
          "duration": 0.2182690125000022
        },
        {
          "name": "A#3",
          "midi": 58,
          "time": 137.07678599999932,
          "velocity": 0.5354330708661418,
          "duration": 0.2182690125000022
        },
        {
          "name": "D4",
          "midi": 62,
          "time": 137.30755499999933,
          "velocity": 0.5511811023622047,
          "duration": 0.2182690125000022
        },
        {
          "name": "F4",
          "midi": 65,
          "time": 137.53832399999934,
          "velocity": 0.5669291338582677,
          "duration": 0.6567301124999858
        },
        {
          "name": "G#3",
          "midi": 56,
          "time": 138.23063099999933,
          "velocity": 0.6141732283464567,
          "duration": 0.2182690125000022
        },
        {
          "name": "D#3",
          "midi": 51,
          "time": 138.46139999999934,
          "velocity": 0.6299212598425197,
          "duration": 0.6798070124999924
        },
        {
          "name": "D#2",
          "midi": 39,
          "time": 138.46139999999934,
          "velocity": 0.6299212598425197,
          "duration": 7.4932617374999495
        },
        {
          "name": "A#2",
          "midi": 46,
          "time": 138.69216899999932,
          "velocity": 0.6299212598425197,
          "duration": 7.377877237499973
        },
        {
          "name": "D#3",
          "midi": 51,
          "time": 138.92293799999933,
          "velocity": 0.6299212598425197,
          "duration": 1.3721140125000204
        },
        {
          "name": "F#3",
          "midi": 54,
          "time": 139.15370699999934,
          "velocity": 0.6299212598425197,
          "duration": 7.493261737499978
        },
        {
          "name": "A#3",
          "midi": 58,
          "time": 139.38447599999935,
          "velocity": 0.6299212598425197,
          "duration": 0.6567301124999858
        },
        {
          "name": "D#3",
          "midi": 51,
          "time": 140.07678299999935,
          "velocity": 0.6299212598425197,
          "duration": 0.6798070124999924
        },
        {
          "name": "G#3",
          "midi": 56,
          "time": 140.30755199999936,
          "velocity": 0.6299212598425197,
          "duration": 0.21826901249997377
        },
        {
          "name": "G#2",
          "midi": 44,
          "time": 140.30755199999936,
          "velocity": 0.6299212598425197,
          "duration": 0
        },
        {
          "name": "D#3",
          "midi": 51,
          "time": 140.53832099999934,
          "velocity": 0.6299212598425197,
          "duration": 5.8778787374999695
        },
        {
          "name": "G#3",
          "midi": 56,
          "time": 140.76908999999935,
          "velocity": 0.6299212598425197,
          "duration": 0.2182690125000022
        },
        {
          "name": "B3",
          "midi": 59,
          "time": 140.99985899999936,
          "velocity": 0.6299212598425197,
          "duration": 21.685555237500523
        },
        {
          "name": "D#4",
          "midi": 63,
          "time": 141.23062799999937,
          "velocity": 0.6299212598425197,
          "duration": 22.493246737500527
        },
        {
          "name": "G#3",
          "midi": 56,
          "time": 141.92293499999937,
          "velocity": 0.6299212598425197,
          "duration": 0.2182690125000022
        },
        {
          "name": "F#2",
          "midi": 42,
          "time": 142.15370399999938,
          "velocity": 0.6299212598425197,
          "duration": 19.15382700000049
        },
        {
          "name": "C#3",
          "midi": 49,
          "time": 142.18447319999936,
          "velocity": 0.6299212598425197,
          "duration": 1.8134597250000013
        },
        {
          "name": "A#3",
          "midi": 58,
          "time": 142.21812701249937,
          "velocity": 0.6299212598425197,
          "duration": 1.7798059124999952
        },
        {
          "name": "F2",
          "midi": 41,
          "time": 143.99985599999934,
          "velocity": 0.6929133858267716,
          "duration": 0.9221144624999909
        },
        {
          "name": "C3",
          "midi": 48,
          "time": 144.03158673749934,
          "velocity": 0.6929133858267716,
          "duration": 0.8894221875000028
        },
        {
          "name": "A3",
          "midi": 57,
          "time": 144.06620208749933,
          "velocity": 0.6929133858267716,
          "duration": 0.8548068375000071
        },
        {
          "name": "E2",
          "midi": 40,
          "time": 144.92293199999932,
          "velocity": 0.7244094488188977,
          "duration": 0.9221144624999909
        },
        {
          "name": "B2",
          "midi": 47,
          "time": 144.95466273749932,
          "velocity": 0.7244094488188977,
          "duration": 2.9615355000000534
        },
        {
          "name": "G#3",
          "midi": 56,
          "time": 144.98927808749932,
          "velocity": 0.7244094488188977,
          "duration": 0.8548068375000071
        },
        {
          "name": "D#2",
          "midi": 39,
          "time": 145.8460079999993,
          "velocity": 0.7559055118110236,
          "duration": 0.3394227375000014
        },
        {
          "name": "A#2",
          "midi": 46,
          "time": 145.9613924999993,
          "velocity": 0.7559055118110236,
          "duration": 0.3394227375000014
        },
        {
          "name": "D#2",
          "midi": 39,
          "time": 146.0767769999993,
          "velocity": 0.7559055118110236,
          "duration": 0.8009607375000201
        },
        {
          "name": "A#2",
          "midi": 46,
          "time": 146.19216149999932,
          "velocity": 0.7559055118110236,
          "duration": 0.3394227375000014
        },
        {
          "name": "D#3",
          "midi": 51,
          "time": 146.30754599999932,
          "velocity": 0.7559055118110236,
          "duration": 1.0317297375000294
        },
        {
          "name": "A#2",
          "midi": 46,
          "time": 146.42293049999932,
          "velocity": 0.7559055118110236,
          "duration": 0.3394227375000014
        },
        {
          "name": "F#3",
          "midi": 54,
          "time": 146.53831499999933,
          "velocity": 0.7559055118110236,
          "duration": 1.0317297375000294
        },
        {
          "name": "A#2",
          "midi": 46,
          "time": 146.65369949999933,
          "velocity": 0.7559055118110236,
          "duration": 0.3394227375000014
        },
        {
          "name": "D#2",
          "midi": 39,
          "time": 146.76908399999934,
          "velocity": 0.7559055118110236,
          "duration": 0.3394227375000014
        },
        {
          "name": "A#2",
          "midi": 46,
          "time": 146.88446849999934,
          "velocity": 0.7559055118110236,
          "duration": 0.3394227375000014
        },
        {
          "name": "D#2",
          "midi": 39,
          "time": 146.99985299999935,
          "velocity": 0.7559055118110236,
          "duration": 1.7240367375000574
        },
        {
          "name": "A#2",
          "midi": 46,
          "time": 147.11523749999935,
          "velocity": 0.7559055118110236,
          "duration": 0.3394227375000014
        },
        {
          "name": "D#3",
          "midi": 51,
          "time": 147.23062199999936,
          "velocity": 0.7559055118110236,
          "duration": 1.9548057375000667
        },
        {
          "name": "A#2",
          "midi": 46,
          "time": 147.34600649999936,
          "velocity": 0.7559055118110236,
          "duration": 0.3394227375000014
        },
        {
          "name": "F#3",
          "midi": 54,
          "time": 147.46139099999937,
          "velocity": 0.7559055118110236,
          "duration": 1.9548057375000667
        },
        {
          "name": "A#2",
          "midi": 46,
          "time": 147.57677549999937,
          "velocity": 0.7559055118110236,
          "duration": 1.2624987375000387
        },
        {
          "name": "E2",
          "midi": 40,
          "time": 147.69215999999938,
          "velocity": 0.7559055118110236,
          "duration": 0.10865373749999208
        },
        {
          "name": "B2",
          "midi": 47,
          "time": 147.80754449999938,
          "velocity": 0.7559055118110236,
          "duration": 0.3394227375000014
        },
        {
          "name": "E2",
          "midi": 40,
          "time": 147.92292899999939,
          "velocity": 0.7559055118110236,
          "duration": 0.10865373749999208
        },
        {
          "name": "B2",
          "midi": 47,
          "time": 148.0383134999994,
          "velocity": 0.7559055118110236,
          "duration": 0.3394227375000014
        },
        {
          "name": "E3",
          "midi": 52,
          "time": 148.1536979999994,
          "velocity": 0.7559055118110236,
          "duration": 3.8009577375001413
        },
        {
          "name": "B2",
          "midi": 47,
          "time": 148.2690824999994,
          "velocity": 0.7559055118110236,
          "duration": 0.3394227375000014
        },
        {
          "name": "G#3",
          "midi": 56,
          "time": 148.3844669999994,
          "velocity": 0.7559055118110236,
          "duration": 0.10865373749999208
        },
        {
          "name": "B2",
          "midi": 47,
          "time": 148.4998514999994,
          "velocity": 0.7559055118110236,
          "duration": 3.1086507375001133
        },
        {
          "name": "D#2",
          "midi": 39,
          "time": 148.6152359999994,
          "velocity": 0.7559055118110236,
          "duration": 0.3394227375000014
        },
        {
          "name": "A#2",
          "midi": 46,
          "time": 148.73062049999942,
          "velocity": 0.7559055118110236,
          "duration": 0.3394227375000014
        },
        {
          "name": "D#2",
          "midi": 39,
          "time": 148.84600499999942,
          "velocity": 0.7559055118110236,
          "duration": 0.8009607375000201
        },
        {
          "name": "A#2",
          "midi": 46,
          "time": 148.96138949999943,
          "velocity": 0.7559055118110236,
          "duration": 0.3394227375000014
        },
        {
          "name": "D#3",
          "midi": 51,
          "time": 149.07677399999943,
          "velocity": 0.7559055118110236,
          "duration": 1.0317297375000294
        },
        {
          "name": "A#2",
          "midi": 46,
          "time": 149.19215849999944,
          "velocity": 0.7559055118110236,
          "duration": 0.3394227375000014
        },
        {
          "name": "F#3",
          "midi": 54,
          "time": 149.30754299999944,
          "velocity": 0.7559055118110236,
          "duration": 1.0317297375000294
        },
        {
          "name": "A#2",
          "midi": 46,
          "time": 149.42292749999945,
          "velocity": 0.7559055118110236,
          "duration": 0.3394227375000014
        },
        {
          "name": "D#2",
          "midi": 39,
          "time": 149.53831199999945,
          "velocity": 0.7559055118110236,
          "duration": 0.3394227375000014
        },
        {
          "name": "A#2",
          "midi": 46,
          "time": 149.65369649999946,
          "velocity": 0.7559055118110236,
          "duration": 0.3394227375000014
        },
        {
          "name": "D#2",
          "midi": 39,
          "time": 149.76908099999946,
          "velocity": 0.7559055118110236,
          "duration": 0.8009607375000201
        },
        {
          "name": "A#2",
          "midi": 46,
          "time": 149.88446549999946,
          "velocity": 0.7559055118110236,
          "duration": 0.3394227375000014
        },
        {
          "name": "D#3",
          "midi": 51,
          "time": 149.99984999999947,
          "velocity": 0.7559055118110236,
          "duration": 1.0317297375000294
        },
        {
          "name": "A#2",
          "midi": 46,
          "time": 150.11523449999947,
          "velocity": 0.7559055118110236,
          "duration": 0.3394227375000014
        },
        {
          "name": "F#3",
          "midi": 54,
          "time": 150.23061899999948,
          "velocity": 0.7559055118110236,
          "duration": 1.0317297375000294
        },
        {
          "name": "A#2",
          "midi": 46,
          "time": 150.34600349999948,
          "velocity": 0.7559055118110236,
          "duration": 0.3394227375000014
        },
        {
          "name": "D#2",
          "midi": 39,
          "time": 150.4613879999995,
          "velocity": 0.7559055118110236,
          "duration": 0.3394227375000014
        },
        {
          "name": "A#2",
          "midi": 46,
          "time": 150.5767724999995,
          "velocity": 0.7559055118110236,
          "duration": 0.3394227375000014
        },
        {
          "name": "D#2",
          "midi": 39,
          "time": 150.6921569999995,
          "velocity": 0.7559055118110236,
          "duration": 1.7240367375000574
        },
        {
          "name": "A#2",
          "midi": 46,
          "time": 150.8075414999995,
          "velocity": 0.7559055118110236,
          "duration": 0.3394227375000014
        },
        {
          "name": "D#3",
          "midi": 51,
          "time": 150.9229259999995,
          "velocity": 0.7559055118110236,
          "duration": 1.9548057375000667
        },
        {
          "name": "A#2",
          "midi": 46,
          "time": 151.0383104999995,
          "velocity": 0.7559055118110236,
          "duration": 0.3394227375000014
        },
        {
          "name": "F#3",
          "midi": 54,
          "time": 151.15369499999952,
          "velocity": 0.7559055118110236,
          "duration": 1.9548057375000667
        },
        {
          "name": "A#2",
          "midi": 46,
          "time": 151.26907949999952,
          "velocity": 0.7559055118110236,
          "duration": 1.2624987375000387
        },
        {
          "name": "E2",
          "midi": 40,
          "time": 151.38446399999953,
          "velocity": 0.7559055118110236,
          "duration": 0.10865373749999208
        },
        {
          "name": "B2",
          "midi": 47,
          "time": 151.49984849999953,
          "velocity": 0.7559055118110236,
          "duration": 0.3394227375000014
        },
        {
          "name": "E2",
          "midi": 40,
          "time": 151.61523299999953,
          "velocity": 0.7559055118110236,
          "duration": 0.10865373749999208
        },
        {
          "name": "B2",
          "midi": 47,
          "time": 151.73061749999954,
          "velocity": 0.7559055118110236,
          "duration": 0.3394227375000014
        },
        {
          "name": "E3",
          "midi": 52,
          "time": 151.84600199999954,
          "velocity": 0.7559055118110236,
          "duration": 3.8009577375001413
        },
        {
          "name": "B2",
          "midi": 47,
          "time": 151.96138649999955,
          "velocity": 0.7559055118110236,
          "duration": 0.3394227375000014
        },
        {
          "name": "G#3",
          "midi": 56,
          "time": 152.07677099999955,
          "velocity": 0.7559055118110236,
          "duration": 0.10865373749999208
        },
        {
          "name": "B2",
          "midi": 47,
          "time": 152.19215549999956,
          "velocity": 0.7559055118110236,
          "duration": 3.1086507375001133
        },
        {
          "name": "D#2",
          "midi": 39,
          "time": 152.30753999999956,
          "velocity": 0.7559055118110236,
          "duration": 0.3394227375000014
        },
        {
          "name": "A#2",
          "midi": 46,
          "time": 152.42292449999957,
          "velocity": 0.7559055118110236,
          "duration": 0.3394227375000014
        },
        {
          "name": "D#2",
          "midi": 39,
          "time": 152.53830899999957,
          "velocity": 0.7559055118110236,
          "duration": 0.8009607375000201
        },
        {
          "name": "A#2",
          "midi": 46,
          "time": 152.65369349999958,
          "velocity": 0.7559055118110236,
          "duration": 0.3394227375000014
        },
        {
          "name": "D#3",
          "midi": 51,
          "time": 152.76907799999958,
          "velocity": 0.7559055118110236,
          "duration": 1.0317297375000294
        },
        {
          "name": "A#2",
          "midi": 46,
          "time": 152.8844624999996,
          "velocity": 0.7559055118110236,
          "duration": 0.3394227375000014
        },
        {
          "name": "F#3",
          "midi": 54,
          "time": 152.9998469999996,
          "velocity": 0.7559055118110236,
          "duration": 1.0317297375000294
        },
        {
          "name": "A#2",
          "midi": 46,
          "time": 153.1152314999996,
          "velocity": 0.7559055118110236,
          "duration": 0.3394227375000014
        },
        {
          "name": "D#2",
          "midi": 39,
          "time": 153.2306159999996,
          "velocity": 0.7559055118110236,
          "duration": 0.3394227375000014
        },
        {
          "name": "A#2",
          "midi": 46,
          "time": 153.3460004999996,
          "velocity": 0.7559055118110236,
          "duration": 0.3394227375000014
        },
        {
          "name": "D#2",
          "midi": 39,
          "time": 153.4613849999996,
          "velocity": 0.7559055118110236,
          "duration": 0.8009607375000201
        },
        {
          "name": "A#2",
          "midi": 46,
          "time": 153.5767694999996,
          "velocity": 0.7559055118110236,
          "duration": 0.3394227375000014
        },
        {
          "name": "D#3",
          "midi": 51,
          "time": 153.69215399999962,
          "velocity": 0.7559055118110236,
          "duration": 1.0317297375000294
        },
        {
          "name": "A#2",
          "midi": 46,
          "time": 153.80753849999962,
          "velocity": 0.7559055118110236,
          "duration": 0.3394227375000014
        },
        {
          "name": "F#3",
          "midi": 54,
          "time": 153.92292299999963,
          "velocity": 0.7559055118110236,
          "duration": 1.0317297375000294
        },
        {
          "name": "A#2",
          "midi": 46,
          "time": 154.03830749999963,
          "velocity": 0.7559055118110236,
          "duration": 0.3394227375000014
        },
        {
          "name": "D#2",
          "midi": 39,
          "time": 154.15369199999964,
          "velocity": 0.7559055118110236,
          "duration": 0.3394227375000014
        },
        {
          "name": "A#2",
          "midi": 46,
          "time": 154.26907649999964,
          "velocity": 0.7559055118110236,
          "duration": 0.3394227375000014
        },
        {
          "name": "D#2",
          "midi": 39,
          "time": 154.38446099999965,
          "velocity": 0.7559055118110236,
          "duration": 1.7240367375000574
        },
        {
          "name": "A#2",
          "midi": 46,
          "time": 154.49984549999965,
          "velocity": 0.7559055118110236,
          "duration": 0.3394227375000014
        },
        {
          "name": "D#3",
          "midi": 51,
          "time": 154.61522999999966,
          "velocity": 0.7559055118110236,
          "duration": 1.9548057375000667
        },
        {
          "name": "A#2",
          "midi": 46,
          "time": 154.73061449999966,
          "velocity": 0.7559055118110236,
          "duration": 0.3394227375000014
        },
        {
          "name": "F#3",
          "midi": 54,
          "time": 154.84599899999967,
          "velocity": 0.7559055118110236,
          "duration": 1.9548057375000667
        },
        {
          "name": "A#2",
          "midi": 46,
          "time": 154.96138349999967,
          "velocity": 0.7559055118110236,
          "duration": 1.2624987375000387
        },
        {
          "name": "E2",
          "midi": 40,
          "time": 155.07676799999967,
          "velocity": 0.7559055118110236,
          "duration": 0.10865373749999208
        },
        {
          "name": "B2",
          "midi": 47,
          "time": 155.19215249999968,
          "velocity": 0.7559055118110236,
          "duration": 0.3394227375000014
        },
        {
          "name": "E2",
          "midi": 40,
          "time": 155.30753699999968,
          "velocity": 0.7559055118110236,
          "duration": 0.10865373749999208
        },
        {
          "name": "B2",
          "midi": 47,
          "time": 155.4229214999997,
          "velocity": 0.7559055118110236,
          "duration": 0.3394227375000014
        },
        {
          "name": "E3",
          "midi": 52,
          "time": 155.5383059999997,
          "velocity": 0.7559055118110236,
          "duration": 3.8009577375001413
        },
        {
          "name": "B2",
          "midi": 47,
          "time": 155.6536904999997,
          "velocity": 0.7559055118110236,
          "duration": 0.3394227375000014
        },
        {
          "name": "G#3",
          "midi": 56,
          "time": 155.7690749999997,
          "velocity": 0.7559055118110236,
          "duration": 0.10865373749999208
        },
        {
          "name": "B2",
          "midi": 47,
          "time": 155.8844594999997,
          "velocity": 0.7559055118110236,
          "duration": 3.1086507375001133
        },
        {
          "name": "D#2",
          "midi": 39,
          "time": 155.9998439999997,
          "velocity": 0.7559055118110236,
          "duration": 0.3394227375000014
        },
        {
          "name": "A#2",
          "midi": 46,
          "time": 156.11522849999972,
          "velocity": 0.7559055118110236,
          "duration": 0.3394227375000014
        },
        {
          "name": "D#2",
          "midi": 39,
          "time": 156.23061299999972,
          "velocity": 0.7559055118110236,
          "duration": 0.8009607375000201
        },
        {
          "name": "A#2",
          "midi": 46,
          "time": 156.34599749999973,
          "velocity": 0.7559055118110236,
          "duration": 0.3394227375000014
        },
        {
          "name": "D#3",
          "midi": 51,
          "time": 156.46138199999973,
          "velocity": 0.7559055118110236,
          "duration": 1.0317297375000294
        },
        {
          "name": "A#2",
          "midi": 46,
          "time": 156.57676649999974,
          "velocity": 0.7559055118110236,
          "duration": 0.3394227375000014
        },
        {
          "name": "F#3",
          "midi": 54,
          "time": 156.69215099999974,
          "velocity": 0.7559055118110236,
          "duration": 1.0317297375000294
        },
        {
          "name": "A#2",
          "midi": 46,
          "time": 156.80753549999974,
          "velocity": 0.7559055118110236,
          "duration": 0.3394227375000014
        },
        {
          "name": "D#2",
          "midi": 39,
          "time": 156.92291999999975,
          "velocity": 0.7559055118110236,
          "duration": 0.3394227375000014
        },
        {
          "name": "A#2",
          "midi": 46,
          "time": 157.03830449999975,
          "velocity": 0.7559055118110236,
          "duration": 0.3394227375000014
        },
        {
          "name": "D#2",
          "midi": 39,
          "time": 157.15368899999976,
          "velocity": 0.7559055118110236,
          "duration": 0.8009607375000201
        },
        {
          "name": "A#2",
          "midi": 46,
          "time": 157.26907349999976,
          "velocity": 0.7559055118110236,
          "duration": 0.3394227375000014
        },
        {
          "name": "D#3",
          "midi": 51,
          "time": 157.38445799999977,
          "velocity": 0.7559055118110236,
          "duration": 1.0317297375000294
        },
        {
          "name": "A#2",
          "midi": 46,
          "time": 157.49984249999977,
          "velocity": 0.7559055118110236,
          "duration": 0.3394227375000014
        },
        {
          "name": "F#3",
          "midi": 54,
          "time": 157.61522699999978,
          "velocity": 0.7559055118110236,
          "duration": 1.0317297375000294
        },
        {
          "name": "A#2",
          "midi": 46,
          "time": 157.73061149999978,
          "velocity": 0.7559055118110236,
          "duration": 0.3394227375000014
        },
        {
          "name": "D#2",
          "midi": 39,
          "time": 157.8459959999998,
          "velocity": 0.7559055118110236,
          "duration": 0.3394227375000014
        },
        {
          "name": "A#2",
          "midi": 46,
          "time": 157.9613804999998,
          "velocity": 0.7559055118110236,
          "duration": 0.3394227375000014
        },
        {
          "name": "D#2",
          "midi": 39,
          "time": 158.0767649999998,
          "velocity": 0.7559055118110236,
          "duration": 2.5384590000000458
        },
        {
          "name": "A#2",
          "midi": 46,
          "time": 158.1921494999998,
          "velocity": 0.7559055118110236,
          "duration": 0.3394227375000014
        },
        {
          "name": "D#3",
          "midi": 51,
          "time": 158.3075339999998,
          "velocity": 0.7559055118110236,
          "duration": 2.647112737500038
        },
        {
          "name": "A#2",
          "midi": 46,
          "time": 158.4229184999998,
          "velocity": 0.7559055118110236,
          "duration": 0.3394227375000014
        },
        {
          "name": "F#3",
          "midi": 54,
          "time": 158.53830299999981,
          "velocity": 0.7559055118110236,
          "duration": 0
        },
        {
          "name": "A#2",
          "midi": 46,
          "time": 158.65368749999982,
          "velocity": 0.7559055118110236,
          "duration": 2.185574737500019
        },
        {
          "name": "E2",
          "midi": 40,
          "time": 158.76907199999982,
          "velocity": 0.7559055118110236,
          "duration": 0.10865373749999208
        },
        {
          "name": "B2",
          "midi": 47,
          "time": 158.88445649999983,
          "velocity": 0.7559055118110236,
          "duration": 0.3394227375000014
        },
        {
          "name": "E2",
          "midi": 40,
          "time": 158.99984099999983,
          "velocity": 0.7559055118110236,
          "duration": 0.10865373749999208
        },
        {
          "name": "B2",
          "midi": 47,
          "time": 159.11522549999984,
          "velocity": 0.7559055118110236,
          "duration": 0.3394227375000014
        },
        {
          "name": "E3",
          "midi": 52,
          "time": 159.23060999999984,
          "velocity": 0.7559055118110236,
          "duration": 3.2307660000000737
        },
        {
          "name": "B2",
          "midi": 47,
          "time": 159.34599449999985,
          "velocity": 0.7559055118110236,
          "duration": 0.3394227375000014
        },
        {
          "name": "G#3",
          "midi": 56,
          "time": 159.46137899999985,
          "velocity": 0.7559055118110236,
          "duration": 0.10865373749999208
        },
        {
          "name": "B2",
          "midi": 47,
          "time": 159.57676349999986,
          "velocity": 0.7559055118110236,
          "duration": 2.423074500000041
        },
        {
          "name": "D#2",
          "midi": 39,
          "time": 160.61522399999984,
          "velocity": 0.8818897637795275,
          "duration": 0.3278842875000123
        },
        {
          "name": "D#2",
          "midi": 39,
          "time": 160.61522399999984,
          "velocity": 0.8818897637795275,
          "duration": 0.346153500000014
        },
        {
          "name": "A#2",
          "midi": 46,
          "time": 160.73060849999985,
          "velocity": 0.8818897637795275,
          "duration": 0.8076915000000326
        },
        {
          "name": "D#3",
          "midi": 51,
          "time": 160.84599299999985,
          "velocity": 0.8818897637795275,
          "duration": 0.45480723750000607
        },
        {
          "name": "D#2",
          "midi": 39,
          "time": 160.96137749999986,
          "velocity": 0.8818897637795275,
          "duration": 0.10865373749999208
        },
        {
          "name": "D#2",
          "midi": 39,
          "time": 160.96137749999986,
          "velocity": 0.8818897637795275,
          "duration": 0.11538450000000466
        },
        {
          "name": "D#2",
          "midi": 39,
          "time": 161.07676199999986,
          "velocity": 0.8818897637795275,
          "duration": 0.2182690125000022
        },
        {
          "name": "D#2",
          "midi": 39,
          "time": 161.07676199999986,
          "velocity": 0.8818897637795275,
          "duration": 3.108650737500085
        },
        {
          "name": "D#3",
          "midi": 51,
          "time": 161.19214649999986,
          "velocity": 0.8818897637795275,
          "duration": 0.3394227375000014
        },
        {
          "name": "F#2",
          "midi": 42,
          "time": 161.30753099999987,
          "velocity": 0.8818897637795275,
          "duration": 0.2182690125000022
        },
        {
          "name": "F#2",
          "midi": 42,
          "time": 161.30753099999987,
          "velocity": 0.8818897637795275,
          "duration": 3.6923040000000924
        },
        {
          "name": "D#3",
          "midi": 51,
          "time": 161.42291549999987,
          "velocity": 0.8818897637795275,
          "duration": 0.3394227375000014
        },
        {
          "name": "A#2",
          "midi": 46,
          "time": 161.53829999999988,
          "velocity": 0.8818897637795275,
          "duration": 0.3278842875000123
        },
        {
          "name": "A#2",
          "midi": 46,
          "time": 161.53829999999988,
          "velocity": 0.8818897637795275,
          "duration": 0.346153500000014
        },
        {
          "name": "D#3",
          "midi": 51,
          "time": 161.65368449999988,
          "velocity": 0.8818897637795275,
          "duration": 0.5769225000000233
        },
        {
          "name": "A#3",
          "midi": 58,
          "time": 161.7690689999999,
          "velocity": 0.8818897637795275,
          "duration": 0.10865373749999208
        },
        {
          "name": "A#2",
          "midi": 46,
          "time": 161.8844534999999,
          "velocity": 0.8818897637795275,
          "duration": 0.10865373749999208
        },
        {
          "name": "A#2",
          "midi": 46,
          "time": 161.8844534999999,
          "velocity": 0.8818897637795275,
          "duration": 2.1855747375000476
        },
        {
          "name": "B2",
          "midi": 47,
          "time": 161.9998379999999,
          "velocity": 0.8818897637795275,
          "duration": 0.2182690125000022
        },
        {
          "name": "B2",
          "midi": 47,
          "time": 161.9998379999999,
          "velocity": 0.8818897637795275,
          "duration": 3.6923040000000924
        },
        {
          "name": "A#3",
          "midi": 58,
          "time": 162.1152224999999,
          "velocity": 0.8818897637795275,
          "duration": 0.10865373749999208
        },
        {
          "name": "D#3",
          "midi": 51,
          "time": 162.2306069999999,
          "velocity": 0.8818897637795275,
          "duration": 0.2182690125000022
        },
        {
          "name": "D#3",
          "midi": 51,
          "time": 162.2306069999999,
          "velocity": 0.8818897637795275,
          "duration": 1.1538450000000182
        },
        {
          "name": "A#3",
          "midi": 58,
          "time": 162.3459914999999,
          "velocity": 0.8818897637795275,
          "duration": 0.10865373749999208
        },
        {
          "name": "E3",
          "midi": 52,
          "time": 162.46137599999992,
          "velocity": 0.8818897637795275,
          "duration": 0.3278842874999839
        },
        {
          "name": "E3",
          "midi": 52,
          "time": 162.46137599999992,
          "velocity": 0.8818897637795275,
          "duration": 0.6923069999999996
        },
        {
          "name": "B3",
          "midi": 59,
          "time": 162.5767604999999,
          "velocity": 0.8818897637795275,
          "duration": 0.346153500000014
        },
        {
          "name": "E4",
          "midi": 64,
          "time": 162.6921449999999,
          "velocity": 0.8818897637795275,
          "duration": 0.45480723750000607
        },
        {
          "name": "A#3",
          "midi": 58,
          "time": 162.8075294999999,
          "velocity": 0.8818897637795275,
          "duration": 0.10865373749999208
        },
        {
          "name": "A#3",
          "midi": 58,
          "time": 162.8075294999999,
          "velocity": 0.8818897637795275,
          "duration": 0.8009607374999916
        },
        {
          "name": "B3",
          "midi": 59,
          "time": 162.9229139999999,
          "velocity": 0.8818897637795275,
          "duration": 0.2182690125000022
        },
        {
          "name": "B3",
          "midi": 59,
          "time": 162.9229139999999,
          "velocity": 0.8818897637795275,
          "duration": 3.4548042375000705
        },
        {
          "name": "E4",
          "midi": 64,
          "time": 163.0382984999999,
          "velocity": 0.8818897637795275,
          "duration": 0.3394227375000014
        },
        {
          "name": "E3",
          "midi": 52,
          "time": 163.15368299999992,
          "velocity": 0.8818897637795275,
          "duration": 0.2182690125000022
        },
        {
          "name": "E3",
          "midi": 52,
          "time": 163.15368299999992,
          "velocity": 0.8818897637795275,
          "duration": 2.999997000000093
        },
        {
          "name": "E4",
          "midi": 64,
          "time": 163.26906749999992,
          "velocity": 0.8818897637795275,
          "duration": 6.916339237500154
        },
        {
          "name": "D#3",
          "midi": 51,
          "time": 163.38445199999992,
          "velocity": 0.8818897637795275,
          "duration": 0.437499562499994
        },
        {
          "name": "D#3",
          "midi": 51,
          "time": 163.38445199999992,
          "velocity": 0.8818897637795275,
          "duration": 0.5701917375000107
        },
        {
          "name": "A#3",
          "midi": 58,
          "time": 163.4998364999999,
          "velocity": 0.8818897637795275,
          "duration": 0.3394227375000298
        },
        {
          "name": "D#4",
          "midi": 63,
          "time": 163.6152209999999,
          "velocity": 0.8818897637795275,
          "duration": 3.800957737500113
        },
        {
          "name": "A#3",
          "midi": 58,
          "time": 163.7306054999999,
          "velocity": 0.8818897637795275,
          "duration": 1.839421237500062
        },
        {
          "name": "D#3",
          "midi": 51,
          "time": 163.84598999999994,
          "velocity": 0.8818897637795275,
          "duration": 0.8009607374999916
        },
        {
          "name": "A#2",
          "midi": 46,
          "time": 163.96137449999995,
          "velocity": 0.8818897637795275,
          "duration": 0.3394227375000014
        },
        {
          "name": "D#2",
          "midi": 39,
          "time": 164.07675899999995,
          "velocity": 0.8818897637795275,
          "duration": 0.23076900000000933
        },
        {
          "name": "A#2",
          "midi": 46,
          "time": 164.19214349999996,
          "velocity": 0.8818897637795275,
          "duration": 0.339422737499973
        },
        {
          "name": "D#2",
          "midi": 39,
          "time": 164.30752799999996,
          "velocity": 0.8818897637795275,
          "duration": 0.3278842874999839
        },
        {
          "name": "D#2",
          "midi": 39,
          "time": 164.30752799999996,
          "velocity": 0.8818897637795275,
          "duration": 0.34615349999998557
        },
        {
          "name": "A#2",
          "midi": 46,
          "time": 164.42291249999994,
          "velocity": 0.8818897637795275,
          "duration": 0.8076915000000326
        },
        {
          "name": "D#3",
          "midi": 51,
          "time": 164.53829699999994,
          "velocity": 0.8818897637795275,
          "duration": 0.45480723750000607
        },
        {
          "name": "D#2",
          "midi": 39,
          "time": 164.65368149999995,
          "velocity": 0.8818897637795275,
          "duration": 0.10865373749999208
        },
        {
          "name": "D#2",
          "midi": 39,
          "time": 164.65368149999995,
          "velocity": 0.8818897637795275,
          "duration": 0.11538450000000466
        },
        {
          "name": "D#2",
          "midi": 39,
          "time": 164.76906599999995,
          "velocity": 0.8818897637795275,
          "duration": 0.2182690125000022
        },
        {
          "name": "D#2",
          "midi": 39,
          "time": 164.76906599999995,
          "velocity": 0.8818897637795275,
          "duration": 3.108650737500085
        },
        {
          "name": "D#3",
          "midi": 51,
          "time": 164.88445049999996,
          "velocity": 0.8818897637795275,
          "duration": 0.3394227375000014
        },
        {
          "name": "F#2",
          "midi": 42,
          "time": 164.99983499999996,
          "velocity": 0.8818897637795275,
          "duration": 0.2182690125000022
        },
        {
          "name": "F#2",
          "midi": 42,
          "time": 164.99983499999996,
          "velocity": 0.8818897637795275,
          "duration": 3.6923040000000924
        },
        {
          "name": "D#3",
          "midi": 51,
          "time": 165.11521949999997,
          "velocity": 0.8818897637795275,
          "duration": 0.3394227375000014
        },
        {
          "name": "A#2",
          "midi": 46,
          "time": 165.23060399999997,
          "velocity": 0.8818897637795275,
          "duration": 0.3278842875000123
        },
        {
          "name": "A#2",
          "midi": 46,
          "time": 165.23060399999997,
          "velocity": 0.8818897637795275,
          "duration": 0.346153500000014
        },
        {
          "name": "D#3",
          "midi": 51,
          "time": 165.34598849999998,
          "velocity": 0.8818897637795275,
          "duration": 0.5769225000000233
        },
        {
          "name": "A#3",
          "midi": 58,
          "time": 165.46137299999998,
          "velocity": 0.8818897637795275,
          "duration": 0.45480723750000607
        },
        {
          "name": "A#2",
          "midi": 46,
          "time": 165.57675749999999,
          "velocity": 0.8818897637795275,
          "duration": 0.10865373749999208
        },
        {
          "name": "A#2",
          "midi": 46,
          "time": 165.57675749999999,
          "velocity": 0.8818897637795275,
          "duration": 0.9230760000000089
        },
        {
          "name": "B2",
          "midi": 47,
          "time": 165.692142,
          "velocity": 0.8818897637795275,
          "duration": 0.2182690125000022
        },
        {
          "name": "B2",
          "midi": 47,
          "time": 165.692142,
          "velocity": 0.8818897637795275,
          "duration": 3.6923040000000924
        },
        {
          "name": "A#3",
          "midi": 58,
          "time": 165.8075265,
          "velocity": 0.8818897637795275,
          "duration": 0.3394227375000014
        },
        {
          "name": "D#3",
          "midi": 51,
          "time": 165.922911,
          "velocity": 0.8818897637795275,
          "duration": 0.2182690125000022
        },
        {
          "name": "D#3",
          "midi": 51,
          "time": 165.922911,
          "velocity": 0.8818897637795275,
          "duration": 0.6923069999999996
        },
        {
          "name": "A#3",
          "midi": 58,
          "time": 166.0382955,
          "velocity": 0.8818897637795275,
          "duration": 0.8009607374999916
        },
        {
          "name": "E3",
          "midi": 52,
          "time": 166.15368,
          "velocity": 0.8818897637795275,
          "duration": 0.2307689999999809
        },
        {
          "name": "E3",
          "midi": 52,
          "time": 166.15368,
          "velocity": 0.8818897637795275,
          "duration": 0.339422737499973
        },
        {
          "name": "B3",
          "midi": 59,
          "time": 166.26906449999998,
          "velocity": 0.8740157480314961,
          "duration": 3.8009577375000845
        },
        {
          "name": "E3",
          "midi": 52,
          "time": 166.384449,
          "velocity": 0.8661417322834646,
          "duration": 3.4615350000001115
        },
        {
          "name": "A#2",
          "midi": 46,
          "time": 166.4998335,
          "velocity": 0.8582677165354331,
          "duration": 0.10865373749999208
        },
        {
          "name": "A#2",
          "midi": 46,
          "time": 166.4998335,
          "velocity": 0.8582677165354331,
          "duration": 1.2624987375000387
        },
        {
          "name": "D#3",
          "midi": 51,
          "time": 166.615218,
          "velocity": 0.8503937007874016,
          "duration": 0.2182690125000022
        },
        {
          "name": "D#3",
          "midi": 51,
          "time": 166.615218,
          "velocity": 0.8503937007874016,
          "duration": 0.23076900000000933
        },
        {
          "name": "A#3",
          "midi": 58,
          "time": 166.7306025,
          "velocity": 0.84251968503937,
          "duration": 0.3394227375000014
        },
        {
          "name": "D#3",
          "midi": 51,
          "time": 166.845987,
          "velocity": 0.8346456692913385,
          "duration": 0.2182690125000022
        },
        {
          "name": "D#3",
          "midi": 51,
          "time": 166.845987,
          "velocity": 0.8346456692913385,
          "duration": 0.3394227375000014
        },
        {
          "name": "A#3",
          "midi": 58,
          "time": 166.9613715,
          "velocity": 0.8267716535433071,
          "duration": 0.3394227375000014
        },
        {
          "name": "D#3",
          "midi": 51,
          "time": 167.07675600000002,
          "velocity": 0.8188976377952756,
          "duration": 0.5701917375000107
        },
        {
          "name": "A#3",
          "midi": 58,
          "time": 167.19214050000002,
          "velocity": 0.8110236220472441,
          "duration": 0.3394227375000014
        },
        {
          "name": "D#4",
          "midi": 63,
          "time": 167.30752500000003,
          "velocity": 0.8031496062992126,
          "duration": 3.800957737500056
        },
        {
          "name": "A#3",
          "midi": 58,
          "time": 167.42290950000003,
          "velocity": 0.7952755905511811,
          "duration": 1.8394212375000336
        },
        {
          "name": "D#3",
          "midi": 51,
          "time": 167.53829400000004,
          "velocity": 0.7874015748031497,
          "duration": 0.8009607374999916
        },
        {
          "name": "A#2",
          "midi": 46,
          "time": 167.65367850000004,
          "velocity": 0.7795275590551181,
          "duration": 0.3394227375000014
        },
        {
          "name": "D#2",
          "midi": 39,
          "time": 167.76906300000005,
          "velocity": 0.7716535433070866,
          "duration": 0.23076900000000933
        },
        {
          "name": "A#2",
          "midi": 46,
          "time": 167.88444750000005,
          "velocity": 0.7637795275590551,
          "duration": 0.339422737499973
        },
        {
          "name": "D#2",
          "midi": 39,
          "time": 167.99983200000005,
          "velocity": 0.7559055118110236,
          "duration": 0.3278842874999839
        },
        {
          "name": "D#2",
          "midi": 39,
          "time": 167.99983200000005,
          "velocity": 0.7559055118110236,
          "duration": 0.34615349999998557
        },
        {
          "name": "A#2",
          "midi": 46,
          "time": 168.11521650000003,
          "velocity": 0.7559055118110236,
          "duration": 0.8076915000000326
        },
        {
          "name": "D#3",
          "midi": 51,
          "time": 168.23060100000004,
          "velocity": 0.7559055118110236,
          "duration": 0.45480723750000607
        },
        {
          "name": "D#2",
          "midi": 39,
          "time": 168.34598550000004,
          "velocity": 0.7559055118110236,
          "duration": 0.10865373749999208
        },
        {
          "name": "D#2",
          "midi": 39,
          "time": 168.34598550000004,
          "velocity": 0.7559055118110236,
          "duration": 0.11538450000000466
        },
        {
          "name": "D#2",
          "midi": 39,
          "time": 168.46137000000004,
          "velocity": 0.7559055118110236,
          "duration": 0.2182690125000022
        },
        {
          "name": "D#2",
          "midi": 39,
          "time": 168.46137000000004,
          "velocity": 0.7559055118110236,
          "duration": 3.108650737500085
        },
        {
          "name": "D#3",
          "midi": 51,
          "time": 168.57675450000005,
          "velocity": 0.7559055118110236,
          "duration": 0.3394227375000014
        },
        {
          "name": "F#2",
          "midi": 42,
          "time": 168.69213900000005,
          "velocity": 0.7559055118110236,
          "duration": 0.2182690125000022
        },
        {
          "name": "F#2",
          "midi": 42,
          "time": 168.69213900000005,
          "velocity": 0.7559055118110236,
          "duration": 3.6923040000000924
        },
        {
          "name": "D#3",
          "midi": 51,
          "time": 168.80752350000006,
          "velocity": 0.7559055118110236,
          "duration": 0.3394227375000014
        },
        {
          "name": "A#2",
          "midi": 46,
          "time": 168.92290800000006,
          "velocity": 0.7559055118110236,
          "duration": 0.3278842875000123
        },
        {
          "name": "A#2",
          "midi": 46,
          "time": 168.92290800000006,
          "velocity": 0.7559055118110236,
          "duration": 0.346153500000014
        },
        {
          "name": "D#3",
          "midi": 51,
          "time": 169.03829250000007,
          "velocity": 0.7559055118110236,
          "duration": 0.5769225000000233
        },
        {
          "name": "A#3",
          "midi": 58,
          "time": 169.15367700000007,
          "velocity": 0.7559055118110236,
          "duration": 0.45480723750000607
        },
        {
          "name": "A#2",
          "midi": 46,
          "time": 169.26906150000008,
          "velocity": 0.7559055118110236,
          "duration": 0.10865373749999208
        },
        {
          "name": "A#2",
          "midi": 46,
          "time": 169.26906150000008,
          "velocity": 0.7559055118110236,
          "duration": 2.1855747375000476
        },
        {
          "name": "B2",
          "midi": 47,
          "time": 169.38444600000008,
          "velocity": 0.7559055118110236,
          "duration": 0.2182690125000022
        },
        {
          "name": "B2",
          "midi": 47,
          "time": 169.38444600000008,
          "velocity": 0.7559055118110236,
          "duration": 3.6923040000000924
        },
        {
          "name": "A#3",
          "midi": 58,
          "time": 169.4998305000001,
          "velocity": 0.7559055118110236,
          "duration": 0.3394227375000014
        },
        {
          "name": "D#3",
          "midi": 51,
          "time": 169.6152150000001,
          "velocity": 0.7559055118110236,
          "duration": 0.2182690125000022
        },
        {
          "name": "D#3",
          "midi": 51,
          "time": 169.6152150000001,
          "velocity": 0.7559055118110236,
          "duration": 1.1538450000000182
        },
        {
          "name": "A#3",
          "midi": 58,
          "time": 169.7305995000001,
          "velocity": 0.7559055118110236,
          "duration": 0.46153799999999023
        },
        {
          "name": "E3",
          "midi": 52,
          "time": 169.8459840000001,
          "velocity": 0.7559055118110236,
          "duration": 0.3278842874999839
        },
        {
          "name": "E3",
          "midi": 52,
          "time": 169.8459840000001,
          "velocity": 0.7559055118110236,
          "duration": 0.6923069999999996
        },
        {
          "name": "B3",
          "midi": 59,
          "time": 169.96136850000008,
          "velocity": 0.7559055118110236,
          "duration": 0.346153500000014
        },
        {
          "name": "E4",
          "midi": 64,
          "time": 170.07675300000008,
          "velocity": 0.7559055118110236,
          "duration": 0.45480723750000607
        },
        {
          "name": "A#3",
          "midi": 58,
          "time": 170.1921375000001,
          "velocity": 0.7559055118110236,
          "duration": 0.10865373749999208
        },
        {
          "name": "A#3",
          "midi": 58,
          "time": 170.1921375000001,
          "velocity": 0.7559055118110236,
          "duration": 0.8009607374999916
        },
        {
          "name": "B3",
          "midi": 59,
          "time": 170.3075220000001,
          "velocity": 0.7559055118110236,
          "duration": 0.2182690125000022
        },
        {
          "name": "B3",
          "midi": 59,
          "time": 170.3075220000001,
          "velocity": 0.7559055118110236,
          "duration": 3.4548042375000705
        },
        {
          "name": "E4",
          "midi": 64,
          "time": 170.4229065000001,
          "velocity": 0.7559055118110236,
          "duration": 0.3394227375000014
        },
        {
          "name": "E3",
          "midi": 52,
          "time": 170.5382910000001,
          "velocity": 0.7559055118110236,
          "duration": 0.2182690125000022
        },
        {
          "name": "E3",
          "midi": 52,
          "time": 170.5382910000001,
          "velocity": 0.7559055118110236,
          "duration": 2.999997000000093
        },
        {
          "name": "E4",
          "midi": 64,
          "time": 170.6536755000001,
          "velocity": 0.7559055118110236,
          "duration": 0
        },
        {
          "name": "D#3",
          "midi": 51,
          "time": 170.7690600000001,
          "velocity": 0.7559055118110236,
          "duration": 0.437499562499994
        },
        {
          "name": "D#3",
          "midi": 51,
          "time": 170.7690600000001,
          "velocity": 0.7559055118110236,
          "duration": 0.5701917375000107
        },
        {
          "name": "A#3",
          "midi": 58,
          "time": 170.8844445000001,
          "velocity": 0.7559055118110236,
          "duration": 0.3394227375000298
        },
        {
          "name": "D#4",
          "midi": 63,
          "time": 170.9998290000001,
          "velocity": 0.7559055118110236,
          "duration": 3.5701887375001036
        },
        {
          "name": "A#3",
          "midi": 58,
          "time": 171.1152135000001,
          "velocity": 0.7559055118110236,
          "duration": 1.839421237500062
        },
        {
          "name": "D#3",
          "midi": 51,
          "time": 171.23059800000013,
          "velocity": 0.7559055118110236,
          "duration": 0.8009607374999916
        },
        {
          "name": "A#2",
          "midi": 46,
          "time": 171.34598250000013,
          "velocity": 0.7559055118110236,
          "duration": 0.3394227375000014
        },
        {
          "name": "D#2",
          "midi": 39,
          "time": 171.46136700000014,
          "velocity": 0.7559055118110236,
          "duration": 0.23076900000000933
        },
        {
          "name": "A#2",
          "midi": 46,
          "time": 171.57675150000014,
          "velocity": 0.7559055118110236,
          "duration": 0.339422737499973
        },
        {
          "name": "D#2",
          "midi": 39,
          "time": 171.69213600000015,
          "velocity": 0.7559055118110236,
          "duration": 0.3278842874999839
        },
        {
          "name": "D#2",
          "midi": 39,
          "time": 171.69213600000015,
          "velocity": 0.7559055118110236,
          "duration": 0.34615349999998557
        },
        {
          "name": "A#2",
          "midi": 46,
          "time": 171.80752050000012,
          "velocity": 0.7480314960629921,
          "duration": 0.8076915000000326
        },
        {
          "name": "D#3",
          "midi": 51,
          "time": 171.92290500000013,
          "velocity": 0.7401574803149606,
          "duration": 0.45480723750000607
        },
        {
          "name": "D#2",
          "midi": 39,
          "time": 172.03828950000013,
          "velocity": 0.7244094488188977,
          "duration": 0.10865373749999208
        },
        {
          "name": "D#2",
          "midi": 39,
          "time": 172.03828950000013,
          "velocity": 0.7244094488188977,
          "duration": 0.11538450000000466
        },
        {
          "name": "D#2",
          "midi": 39,
          "time": 172.15367400000014,
          "velocity": 0.7165354330708661,
          "duration": 0.2182690125000022
        },
        {
          "name": "D#2",
          "midi": 39,
          "time": 172.15367400000014,
          "velocity": 0.7165354330708661,
          "duration": 3.108650737500085
        },
        {
          "name": "D#3",
          "midi": 51,
          "time": 172.26905850000014,
          "velocity": 0.7007874015748031,
          "duration": 0.3394227375000014
        },
        {
          "name": "F#2",
          "midi": 42,
          "time": 172.38444300000015,
          "velocity": 0.6929133858267716,
          "duration": 0.2182690125000022
        },
        {
          "name": "F#2",
          "midi": 42,
          "time": 172.38444300000015,
          "velocity": 0.6929133858267716,
          "duration": 0
        },
        {
          "name": "D#3",
          "midi": 51,
          "time": 172.49982750000015,
          "velocity": 0.6771653543307087,
          "duration": 0.3394227375000014
        },
        {
          "name": "A#2",
          "midi": 46,
          "time": 172.61521200000016,
          "velocity": 0.6692913385826772,
          "duration": 0.3278842875000123
        },
        {
          "name": "A#2",
          "midi": 46,
          "time": 172.61521200000016,
          "velocity": 0.6692913385826772,
          "duration": 0.346153500000014
        },
        {
          "name": "D#3",
          "midi": 51,
          "time": 172.73059650000016,
          "velocity": 0.6535433070866141,
          "duration": 0.5769225000000233
        },
        {
          "name": "A#3",
          "midi": 58,
          "time": 172.84598100000017,
          "velocity": 0.6456692913385826,
          "duration": 0.45480723750000607
        },
        {
          "name": "A#2",
          "midi": 46,
          "time": 172.96136550000017,
          "velocity": 0.6299212598425197,
          "duration": 0.10865373749999208
        },
        {
          "name": "A#2",
          "midi": 46,
          "time": 172.96136550000017,
          "velocity": 0.6299212598425197,
          "duration": 0.9230760000000089
        },
        {
          "name": "B2",
          "midi": 47,
          "time": 173.07675000000017,
          "velocity": 0.6220472440944882,
          "duration": 0.2182690125000022
        },
        {
          "name": "B2",
          "midi": 47,
          "time": 173.07675000000017,
          "velocity": 0.6220472440944882,
          "duration": 0
        },
        {
          "name": "A#3",
          "midi": 58,
          "time": 173.19213450000018,
          "velocity": 0.6062992125984252,
          "duration": 0.3394227375000014
        },
        {
          "name": "D#3",
          "midi": 51,
          "time": 173.30751900000018,
          "velocity": 0.5984251968503937,
          "duration": 0.2182690125000022
        },
        {
          "name": "D#3",
          "midi": 51,
          "time": 173.30751900000018,
          "velocity": 0.5984251968503937,
          "duration": 0.6923069999999996
        },
        {
          "name": "A#3",
          "midi": 58,
          "time": 173.4229035000002,
          "velocity": 0.5826771653543307,
          "duration": 0.8009607374999916
        },
        {
          "name": "E3",
          "midi": 52,
          "time": 173.5382880000002,
          "velocity": 0.5748031496062992,
          "duration": 0.2307689999999809
        },
        {
          "name": "E3",
          "midi": 52,
          "time": 173.5382880000002,
          "velocity": 0.5748031496062992,
          "duration": 0.339422737499973
        },
        {
          "name": "B3",
          "midi": 59,
          "time": 173.65367250000017,
          "velocity": 0.5669291338582677,
          "duration": 0
        },
        {
          "name": "E3",
          "midi": 52,
          "time": 173.76905700000017,
          "velocity": 0.5511811023622047,
          "duration": 0
        },
        {
          "name": "A#2",
          "midi": 46,
          "time": 173.88444150000018,
          "velocity": 0.5433070866141733,
          "duration": 0.10865373749999208
        },
        {
          "name": "A#2",
          "midi": 46,
          "time": 173.88444150000018,
          "velocity": 0.5433070866141733,
          "duration": 1.2624987375000387
        },
        {
          "name": "D#3",
          "midi": 51,
          "time": 173.99982600000018,
          "velocity": 0.5275590551181102,
          "duration": 0.2182690125000022
        },
        {
          "name": "D#3",
          "midi": 51,
          "time": 173.99982600000018,
          "velocity": 0.5275590551181102,
          "duration": 0.23076900000000933
        },
        {
          "name": "A#3",
          "midi": 58,
          "time": 174.1152105000002,
          "velocity": 0.5196850393700787,
          "duration": 0.3394227375000014
        },
        {
          "name": "D#3",
          "midi": 51,
          "time": 174.2305950000002,
          "velocity": 0.5039370078740157,
          "duration": 0.2182690125000022
        },
        {
          "name": "D#3",
          "midi": 51,
          "time": 174.2305950000002,
          "velocity": 0.5039370078740157,
          "duration": 0.5701917375000107
        },
        {
          "name": "A#3",
          "midi": 58,
          "time": 174.3459795000002,
          "velocity": 0.49606299212598426,
          "duration": 0.3394227375000014
        },
        {
          "name": "D#4",
          "midi": 63,
          "time": 174.4613640000002,
          "velocity": 0.48031496062992124,
          "duration": 0
        },
        {
          "name": "A#3",
          "midi": 58,
          "time": 174.5767485000002,
          "velocity": 0.47244094488188976,
          "duration": 0.3394227375000014
        },
        {
          "name": "D#3",
          "midi": 51,
          "time": 174.6921330000002,
          "velocity": 0.4566929133858268,
          "duration": 0.3394227375000014
        },
        {
          "name": "A#3",
          "midi": 58,
          "time": 174.80751750000022,
          "velocity": 0.44881889763779526,
          "duration": 0
        },
        {
          "name": "D#3",
          "midi": 51,
          "time": 174.92290200000022,
          "velocity": 0.4330708661417323,
          "duration": 0
        },
        {
          "name": "A#2",
          "midi": 46,
          "time": 175.03828650000023,
          "velocity": 0.4251968503937008,
          "duration": 0
        },
        {
          "name": "D#2",
          "midi": 39,
          "time": 175.15367100000023,
          "velocity": 0.4094488188976378,
          "duration": 1.983651862500011
        },
        {
          "name": "A#1",
          "midi": 34,
          "time": 175.26905550000023,
          "velocity": 0.4015748031496063,
          "duration": 0.10865373749999208
        },
        {
          "name": "D#1",
          "midi": 27,
          "time": 175.38444000000024,
          "velocity": 0.3858267716535433,
          "duration": 1.7528828625000017
        },
        {
          "name": "D#2",
          "midi": 39,
          "time": 175.38444000000024,
          "velocity": 0.3858267716535433,
          "duration": 0
        }
      ]
    }
  ]
}
