{
  "header": {
    "title": "Don't Know What To Do",
    "artist": "BLACKPINK",
    "source": "https://musescore.com/user/7358591/scores/6220943",
    "bpm": 127.99972693391588,
    "duration": 200.62347487083275
  },
  "tracks": [
    {
      "instrument_number": 0,
      "notes": [
        {
          "name": "A4",
          "midi": 69,
          "time": 1.406253,
          "velocity": 0.5039370078740157,
          "duration": 0.4443368854166665
        },
        {
          "name": "E5",
          "midi": 76,
          "time": 1.875004,
          "velocity": 0.5039370078740157,
          "duration": 1.7802772354166672
        },
        {
          "name": "F#5",
          "midi": 78,
          "time": 2.5781305,
          "velocity": 0.5039370078740157,
          "duration": 0.22168016041666672
        },
        {
          "name": "A5",
          "midi": 81,
          "time": 2.812506,
          "velocity": 0.5039370078740157,
          "duration": 0.22168016041666672
        },
        {
          "name": "G#5",
          "midi": 80,
          "time": 3.0468815,
          "velocity": 0.5039370078740157,
          "duration": 0.22168016041666672
        },
        {
          "name": "F#5",
          "midi": 78,
          "time": 3.5156325,
          "velocity": 0.5039370078740157,
          "duration": 0.22168016041666672
        },
        {
          "name": "E5",
          "midi": 76,
          "time": 3.7500080000000002,
          "velocity": 0.5039370078740157,
          "duration": 0.22168016041666672
        },
        {
          "name": "E5",
          "midi": 76,
          "time": 3.9843835000000003,
          "velocity": 0.5039370078740157,
          "duration": 0.22168016041666627
        },
        {
          "name": "E5",
          "midi": 76,
          "time": 4.2187589999999995,
          "velocity": 0.5039370078740157,
          "duration": 0.22168016041666672
        },
        {
          "name": "E5",
          "midi": 76,
          "time": 4.453134499999999,
          "velocity": 0.5039370078740157,
          "duration": 0.22168016041666672
        },
        {
          "name": "F#5",
          "midi": 78,
          "time": 4.687509999999999,
          "velocity": 0.5039370078740157,
          "duration": 0.44433688541666694
        },
        {
          "name": "B4",
          "midi": 71,
          "time": 5.156260999999999,
          "velocity": 0.5039370078740157,
          "duration": 0.22168016041666672
        },
        {
          "name": "C#5",
          "midi": 73,
          "time": 5.3906364999999985,
          "velocity": 0.5039370078740157,
          "duration": 0.6669936104166663
        },
        {
          "name": "F#5",
          "midi": 78,
          "time": 6.328138499999998,
          "velocity": 0.5039370078740157,
          "duration": 0.22168016041666672
        },
        {
          "name": "C#6",
          "midi": 85,
          "time": 6.5625139999999975,
          "velocity": 0.5039370078740157,
          "duration": 0.22168016041666672
        },
        {
          "name": "G#5",
          "midi": 80,
          "time": 6.796889499999997,
          "velocity": 0.5039370078740157,
          "duration": 0.22168016041666672
        },
        {
          "name": "F#5",
          "midi": 78,
          "time": 7.265640499999997,
          "velocity": 0.5039370078740157,
          "duration": 0.22168016041666672
        },
        {
          "name": "A4",
          "midi": 69,
          "time": 8.906268999999996,
          "velocity": 0.5039370078740157,
          "duration": 0.44433688541666605
        },
        {
          "name": "E5",
          "midi": 76,
          "time": 9.375019999999996,
          "velocity": 0.5039370078740157,
          "duration": 1.7802772354166638
        },
        {
          "name": "F#5",
          "midi": 78,
          "time": 10.078146499999995,
          "velocity": 0.5039370078740157,
          "duration": 0.22168016041666583
        },
        {
          "name": "A5",
          "midi": 81,
          "time": 10.312521999999994,
          "velocity": 0.5039370078740157,
          "duration": 0.22168016041666583
        },
        {
          "name": "G#5",
          "midi": 80,
          "time": 10.546897499999993,
          "velocity": 0.5039370078740157,
          "duration": 0.22168016041666583
        },
        {
          "name": "F#5",
          "midi": 78,
          "time": 11.015648499999992,
          "velocity": 0.5039370078740157,
          "duration": 0.2216801604166676
        },
        {
          "name": "E5",
          "midi": 76,
          "time": 11.250023999999993,
          "velocity": 0.5039370078740157,
          "duration": 0.22168016041666583
        },
        {
          "name": "E5",
          "midi": 76,
          "time": 11.484399499999991,
          "velocity": 0.5039370078740157,
          "duration": 0.22168016041666583
        },
        {
          "name": "E5",
          "midi": 76,
          "time": 11.71877499999999,
          "velocity": 0.5039370078740157,
          "duration": 0.22168016041666583
        },
        {
          "name": "E5",
          "midi": 76,
          "time": 11.953150499999989,
          "velocity": 0.5039370078740157,
          "duration": 0.22168016041666583
        },
        {
          "name": "F#5",
          "midi": 78,
          "time": 12.187525999999988,
          "velocity": 0.5039370078740157,
          "duration": 0.44433688541666605
        },
        {
          "name": "B4",
          "midi": 71,
          "time": 12.656276999999987,
          "velocity": 0.5039370078740157,
          "duration": 0.22168016041666583
        },
        {
          "name": "D5",
          "midi": 74,
          "time": 12.890652499999986,
          "velocity": 0.5039370078740157,
          "duration": 0.22168016041666583
        },
        {
          "name": "C#5",
          "midi": 73,
          "time": 13.125027999999984,
          "velocity": 0.5039370078740157,
          "duration": 0.22168016041666583
        },
        {
          "name": "B4",
          "midi": 71,
          "time": 13.359403499999983,
          "velocity": 0.5039370078740157,
          "duration": 0.22168016041666583
        },
        {
          "name": "F#5",
          "midi": 78,
          "time": 13.828154499999982,
          "velocity": 0.5039370078740157,
          "duration": 0.22168016041666583
        },
        {
          "name": "C#6",
          "midi": 85,
          "time": 14.062529999999981,
          "velocity": 0.5039370078740157,
          "duration": 0.22168016041666583
        },
        {
          "name": "G#5",
          "midi": 80,
          "time": 14.29690549999998,
          "velocity": 0.5039370078740157,
          "duration": 0.22168016041666583
        },
        {
          "name": "F#5",
          "midi": 78,
          "time": 14.765656499999979,
          "velocity": 0.5039370078740157,
          "duration": 0.22168016041666583
        },
        {
          "name": "A4",
          "midi": 69,
          "time": 16.40628499999998,
          "velocity": 0.5039370078740157,
          "duration": 0.4443368854166678
        },
        {
          "name": "E5",
          "midi": 76,
          "time": 16.87503599999998,
          "velocity": 0.5039370078740157,
          "duration": 1.3349637854166723
        },
        {
          "name": "F#5",
          "midi": 78,
          "time": 17.57816249999998,
          "velocity": 0.5039370078740157,
          "duration": 0.2216801604166676
        },
        {
          "name": "A5",
          "midi": 81,
          "time": 17.812537999999982,
          "velocity": 0.5039370078740157,
          "duration": 0.2216801604166676
        },
        {
          "name": "G#5",
          "midi": 80,
          "time": 18.046913499999985,
          "velocity": 0.5039370078740157,
          "duration": 0.2216801604166676
        },
        {
          "name": "A4",
          "midi": 69,
          "time": 18.281288999999987,
          "velocity": 0.5039370078740157,
          "duration": 0.4443368854166643
        },
        {
          "name": "F#5",
          "midi": 78,
          "time": 18.515664499999986,
          "velocity": 0.5039370078740157,
          "duration": 0.22168016041666405
        },
        {
          "name": "E5",
          "midi": 76,
          "time": 18.750039999999984,
          "velocity": 0.5039370078740157,
          "duration": 0.4443368854166678
        },
        {
          "name": "E5",
          "midi": 76,
          "time": 19.218790999999985,
          "velocity": 0.5039370078740157,
          "duration": 0.2216801604166676
        },
        {
          "name": "E5",
          "midi": 76,
          "time": 19.453166499999988,
          "velocity": 0.5039370078740157,
          "duration": 0.2216801604166676
        },
        {
          "name": "F#5",
          "midi": 78,
          "time": 19.68754199999999,
          "velocity": 0.5039370078740157,
          "duration": 0.2216801604166676
        },
        {
          "name": "E5",
          "midi": 76,
          "time": 19.921917499999992,
          "velocity": 0.5039370078740157,
          "duration": 0.2216801604166676
        },
        {
          "name": "C#5",
          "midi": 73,
          "time": 20.156292999999994,
          "velocity": 0.5039370078740157,
          "duration": 0.2216801604166676
        },
        {
          "name": "C#5",
          "midi": 73,
          "time": 20.390668499999997,
          "velocity": 0.5039370078740157,
          "duration": 0.666993610416668
        },
        {
          "name": "F#5",
          "midi": 78,
          "time": 21.3281705,
          "velocity": 0.5039370078740157,
          "duration": 0.2216801604166676
        },
        {
          "name": "C#6",
          "midi": 85,
          "time": 21.562546,
          "velocity": 0.5039370078740157,
          "duration": 0.2216801604166676
        },
        {
          "name": "G#5",
          "midi": 80,
          "time": 21.796921500000003,
          "velocity": 0.5039370078740157,
          "duration": 0.2216801604166676
        },
        {
          "name": "F#5",
          "midi": 78,
          "time": 22.265672500000004,
          "velocity": 0.5039370078740157,
          "duration": 0.2216801604166676
        },
        {
          "name": "C#5",
          "midi": 73,
          "time": 23.906301000000006,
          "velocity": 0.5039370078740157,
          "duration": 0.4443368854166678
        },
        {
          "name": "D5",
          "midi": 74,
          "time": 24.375052000000007,
          "velocity": 0.5039370078740157,
          "duration": 1.3349637854166652
        },
        {
          "name": "D5",
          "midi": 74,
          "time": 25.781305000000007,
          "velocity": 0.5039370078740157,
          "duration": 0.2216801604166676
        },
        {
          "name": "D5",
          "midi": 74,
          "time": 26.01568050000001,
          "velocity": 0.5039370078740157,
          "duration": 0.2216801604166676
        },
        {
          "name": "F#5",
          "midi": 78,
          "time": 26.25005600000001,
          "velocity": 0.5039370078740157,
          "duration": 0.2216801604166676
        },
        {
          "name": "F#5",
          "midi": 78,
          "time": 26.484431500000014,
          "velocity": 0.5039370078740157,
          "duration": 0.4443368854166678
        },
        {
          "name": "A5",
          "midi": 81,
          "time": 26.953182500000015,
          "velocity": 0.5039370078740157,
          "duration": 0.4443368854166678
        },
        {
          "name": "A5",
          "midi": 81,
          "time": 27.421933500000016,
          "velocity": 0.5039370078740157,
          "duration": 0.2216801604166676
        },
        {
          "name": "F#5",
          "midi": 78,
          "time": 27.656309000000018,
          "velocity": 0.5039370078740157,
          "duration": 0.2216801604166676
        },
        {
          "name": "G#5",
          "midi": 80,
          "time": 27.89068450000002,
          "velocity": 0.5039370078740157,
          "duration": 2.002933960416666
        },
        {
          "name": "C#5",
          "midi": 73,
          "time": 31.17194150000002,
          "velocity": 0.5039370078740157,
          "duration": 0.2216801604166676
        },
        {
          "name": "C#5",
          "midi": 73,
          "time": 31.406317000000023,
          "velocity": 0.5039370078740157,
          "duration": 0.2216801604166676
        },
        {
          "name": "C#5",
          "midi": 73,
          "time": 31.640692500000025,
          "velocity": 0.5039370078740157,
          "duration": 0.2216801604166676
        },
        {
          "name": "D5",
          "midi": 74,
          "time": 31.875068000000027,
          "velocity": 0.5039370078740157,
          "duration": 0.4443368854166678
        },
        {
          "name": "C#6",
          "midi": 85,
          "time": 32.34381900000003,
          "velocity": 0.5039370078740157,
          "duration": 0.4443368854166678
        },
        {
          "name": "B5",
          "midi": 83,
          "time": 32.812570000000036,
          "velocity": 0.5039370078740157,
          "duration": 0.4443368854166678
        },
        {
          "name": "A5",
          "midi": 81,
          "time": 33.28132100000004,
          "velocity": 0.5039370078740157,
          "duration": 0.4443368854166678
        },
        {
          "name": "E5",
          "midi": 76,
          "time": 33.750072000000046,
          "velocity": 0.5039370078740157,
          "duration": 0.2216801604166676
        },
        {
          "name": "B5",
          "midi": 83,
          "time": 33.984447500000044,
          "velocity": 0.5039370078740157,
          "duration": 0.4443368854166678
        },
        {
          "name": "A5",
          "midi": 81,
          "time": 34.45319850000005,
          "velocity": 0.5039370078740157,
          "duration": 0.2216801604166676
        },
        {
          "name": "G#5",
          "midi": 80,
          "time": 34.68757400000005,
          "velocity": 0.5039370078740157,
          "duration": 0.8896503354166683
        },
        {
          "name": "C#5",
          "midi": 73,
          "time": 35.62507600000005,
          "velocity": 0.5039370078740157,
          "duration": 0.2216801604166676
        },
        {
          "name": "C#5",
          "midi": 73,
          "time": 35.85945150000005,
          "velocity": 0.5039370078740157,
          "duration": 0.2216801604166676
        },
        {
          "name": "C#5",
          "midi": 73,
          "time": 36.09382700000005,
          "velocity": 0.5039370078740157,
          "duration": 0.2216801604166676
        },
        {
          "name": "C#5",
          "midi": 73,
          "time": 36.328202500000046,
          "velocity": 0.5039370078740157,
          "duration": 0.2216801604166676
        },
        {
          "name": "C#5",
          "midi": 73,
          "time": 36.562578000000045,
          "velocity": 0.5039370078740157,
          "duration": 0.2216801604166676
        },
        {
          "name": "B4",
          "midi": 71,
          "time": 36.79695350000004,
          "velocity": 0.5039370078740157,
          "duration": 0.2216801604166676
        },
        {
          "name": "A4",
          "midi": 69,
          "time": 37.03132900000004,
          "velocity": 0.5039370078740157,
          "duration": 0.2216801604166676
        },
        {
          "name": "A4",
          "midi": 69,
          "time": 37.26570450000004,
          "velocity": 0.5039370078740157,
          "duration": 0.666993610416668
        },
        {
          "name": "C#5",
          "midi": 73,
          "time": 38.67195750000004,
          "velocity": 0.5039370078740157,
          "duration": 0.2216801604166676
        },
        {
          "name": "C#5",
          "midi": 73,
          "time": 38.90633300000004,
          "velocity": 0.5039370078740157,
          "duration": 0.2216801604166676
        },
        {
          "name": "C#5",
          "midi": 73,
          "time": 39.14070850000004,
          "velocity": 0.5039370078740157,
          "duration": 0.2216801604166676
        },
        {
          "name": "D5",
          "midi": 74,
          "time": 39.37508400000004,
          "velocity": 0.5039370078740157,
          "duration": 0.4443368854166678
        },
        {
          "name": "C#6",
          "midi": 85,
          "time": 39.84383500000004,
          "velocity": 0.5039370078740157,
          "duration": 0.4443368854166678
        },
        {
          "name": "B5",
          "midi": 83,
          "time": 40.312586000000046,
          "velocity": 0.5039370078740157,
          "duration": 0.4443368854166678
        },
        {
          "name": "A5",
          "midi": 81,
          "time": 40.78133700000005,
          "velocity": 0.5039370078740157,
          "duration": 0.4443368854166678
        },
        {
          "name": "E5",
          "midi": 76,
          "time": 41.250088000000055,
          "velocity": 0.5039370078740157,
          "duration": 0.2216801604166676
        },
        {
          "name": "B5",
          "midi": 83,
          "time": 41.484463500000054,
          "velocity": 0.5039370078740157,
          "duration": 0.4443368854166678
        },
        {
          "name": "A5",
          "midi": 81,
          "time": 41.95321450000006,
          "velocity": 0.5039370078740157,
          "duration": 0.2216801604166676
        },
        {
          "name": "G#5",
          "midi": 80,
          "time": 42.18759000000006,
          "velocity": 0.5039370078740157,
          "duration": 0.8896503354166683
        },
        {
          "name": "C#5",
          "midi": 73,
          "time": 43.12509200000006,
          "velocity": 0.5039370078740157,
          "duration": 0.2216801604166676
        },
        {
          "name": "C#5",
          "midi": 73,
          "time": 43.35946750000006,
          "velocity": 0.5039370078740157,
          "duration": 0.2216801604166676
        },
        {
          "name": "C#5",
          "midi": 73,
          "time": 43.59384300000006,
          "velocity": 0.5039370078740157,
          "duration": 0.2216801604166676
        },
        {
          "name": "C#5",
          "midi": 73,
          "time": 43.828218500000055,
          "velocity": 0.5039370078740157,
          "duration": 0.2216801604166676
        },
        {
          "name": "C#5",
          "midi": 73,
          "time": 44.062594000000054,
          "velocity": 0.5039370078740157,
          "duration": 0.2216801604166676
        },
        {
          "name": "B4",
          "midi": 71,
          "time": 44.29696950000005,
          "velocity": 0.5039370078740157,
          "duration": 0.2216801604166676
        },
        {
          "name": "A4",
          "midi": 69,
          "time": 44.53134500000005,
          "velocity": 0.5039370078740157,
          "duration": 0.2216801604166676
        },
        {
          "name": "A4",
          "midi": 69,
          "time": 44.76572050000005,
          "velocity": 0.5039370078740157,
          "duration": 0.666993610416668
        },
        {
          "name": "C#5",
          "midi": 73,
          "time": 46.17197350000005,
          "velocity": 0.5039370078740157,
          "duration": 0.2216801604166676
        },
        {
          "name": "C#5",
          "midi": 73,
          "time": 46.40634900000005,
          "velocity": 0.5039370078740157,
          "duration": 0.2216801604166676
        },
        {
          "name": "C#5",
          "midi": 73,
          "time": 46.64072450000005,
          "velocity": 0.5039370078740157,
          "duration": 0.2216801604166676
        },
        {
          "name": "C#5",
          "midi": 73,
          "time": 46.875100000000046,
          "velocity": 0.5039370078740157,
          "duration": 0.2216801604166676
        },
        {
          "name": "D5",
          "midi": 74,
          "time": 47.109475500000045,
          "velocity": 0.5039370078740157,
          "duration": 0.2216801604166676
        },
        {
          "name": "D5",
          "midi": 74,
          "time": 48.04697750000005,
          "velocity": 0.5039370078740157,
          "duration": 0.2216801604166676
        },
        {
          "name": "D5",
          "midi": 74,
          "time": 48.281353000000045,
          "velocity": 0.5039370078740157,
          "duration": 0.2216801604166676
        },
        {
          "name": "A5",
          "midi": 81,
          "time": 48.515728500000044,
          "velocity": 0.5039370078740157,
          "duration": 0.2216801604166676
        },
        {
          "name": "A5",
          "midi": 81,
          "time": 48.75010400000004,
          "velocity": 0.5039370078740157,
          "duration": 0.2216801604166676
        },
        {
          "name": "G#5",
          "midi": 80,
          "time": 48.98447950000004,
          "velocity": 0.5039370078740157,
          "duration": 0.2216801604166676
        },
        {
          "name": "D5",
          "midi": 74,
          "time": 49.921981500000044,
          "velocity": 0.5039370078740157,
          "duration": 0.2216801604166676
        },
        {
          "name": "D5",
          "midi": 74,
          "time": 50.15635700000004,
          "velocity": 0.5039370078740157,
          "duration": 0.2216801604166676
        },
        {
          "name": "D5",
          "midi": 74,
          "time": 50.39073250000004,
          "velocity": 0.5039370078740157,
          "duration": 0.2216801604166676
        },
        {
          "name": "D5",
          "midi": 74,
          "time": 50.62510800000004,
          "velocity": 0.5039370078740157,
          "duration": 0.2216801604166676
        },
        {
          "name": "C#5",
          "midi": 73,
          "time": 50.85948350000004,
          "velocity": 0.5039370078740157,
          "duration": 0.2216801604166676
        },
        {
          "name": "C#5",
          "midi": 73,
          "time": 51.79698550000004,
          "velocity": 0.5039370078740157,
          "duration": 0.2216801604166676
        },
        {
          "name": "C#5",
          "midi": 73,
          "time": 52.03136100000004,
          "velocity": 0.5039370078740157,
          "duration": 0.2216801604166676
        },
        {
          "name": "B5",
          "midi": 83,
          "time": 52.26573650000004,
          "velocity": 0.5039370078740157,
          "duration": 0.2216801604166676
        },
        {
          "name": "B5",
          "midi": 83,
          "time": 52.50011200000004,
          "velocity": 0.5039370078740157,
          "duration": 0.2216801604166676
        },
        {
          "name": "A5",
          "midi": 81,
          "time": 52.734487500000036,
          "velocity": 0.5039370078740157,
          "duration": 0.2216801604166676
        },
        {
          "name": "E5",
          "midi": 76,
          "time": 53.67198950000004,
          "velocity": 0.5039370078740157,
          "duration": 0.2216801604166676
        },
        {
          "name": "F#5",
          "midi": 78,
          "time": 53.90636500000004,
          "velocity": 0.5039370078740157,
          "duration": 0.2216801604166676
        },
        {
          "name": "A5",
          "midi": 81,
          "time": 54.140740500000035,
          "velocity": 0.5039370078740157,
          "duration": 0.2216801604166676
        },
        {
          "name": "E5",
          "midi": 76,
          "time": 54.60949150000003,
          "velocity": 0.5039370078740157,
          "duration": 0.2216801604166676
        },
        {
          "name": "F#5",
          "midi": 78,
          "time": 54.84386700000003,
          "velocity": 0.5039370078740157,
          "duration": 0.2216801604166676
        },
        {
          "name": "A5",
          "midi": 81,
          "time": 55.07824250000003,
          "velocity": 0.5039370078740157,
          "duration": 0.2216801604166676
        },
        {
          "name": "E5",
          "midi": 76,
          "time": 55.54699350000003,
          "velocity": 0.5039370078740157,
          "duration": 0.2216801604166676
        },
        {
          "name": "F#5",
          "midi": 78,
          "time": 55.781369000000026,
          "velocity": 0.5039370078740157,
          "duration": 0.2216801604166676
        },
        {
          "name": "A5",
          "midi": 81,
          "time": 56.015744500000025,
          "velocity": 0.5039370078740157,
          "duration": 0.2216801604166676
        },
        {
          "name": "E5",
          "midi": 76,
          "time": 56.48449550000002,
          "velocity": 0.5039370078740157,
          "duration": 0.2216801604166676
        },
        {
          "name": "F#5",
          "midi": 78,
          "time": 56.71887100000002,
          "velocity": 0.5039370078740157,
          "duration": 0.2216801604166676
        },
        {
          "name": "A5",
          "midi": 81,
          "time": 56.95324650000002,
          "velocity": 0.5039370078740157,
          "duration": 0.4443368854166678
        },
        {
          "name": "E5",
          "midi": 76,
          "time": 57.421997500000025,
          "velocity": 0.5039370078740157,
          "duration": 0.2216801604166676
        },
        {
          "name": "F#5",
          "midi": 78,
          "time": 57.65637300000002,
          "velocity": 0.5039370078740157,
          "duration": 0.2216801604166676
        },
        {
          "name": "C#6",
          "midi": 85,
          "time": 58.12512400000002,
          "velocity": 0.5039370078740157,
          "duration": 0.2216801604166676
        },
        {
          "name": "C#6",
          "midi": 85,
          "time": 58.35949950000002,
          "velocity": 0.5039370078740157,
          "duration": 0.2216801604166676
        },
        {
          "name": "C#6",
          "midi": 85,
          "time": 58.59387500000002,
          "velocity": 0.5039370078740157,
          "duration": 0.2216801604166676
        },
        {
          "name": "C#6",
          "midi": 85,
          "time": 58.82825050000002,
          "velocity": 0.5039370078740157,
          "duration": 0.2216801604166676
        },
        {
          "name": "C#6",
          "midi": 85,
          "time": 59.062626000000016,
          "velocity": 0.5039370078740157,
          "duration": 0.2216801604166676
        },
        {
          "name": "B5",
          "midi": 83,
          "time": 59.297001500000015,
          "velocity": 0.5039370078740157,
          "duration": 0.2216801604166676
        },
        {
          "name": "E5",
          "midi": 76,
          "time": 61.640756500000016,
          "velocity": 0.5039370078740157,
          "duration": 0.4443368854166678
        },
        {
          "name": "C#6",
          "midi": 85,
          "time": 62.10950750000002,
          "velocity": 0.5354330708661418,
          "duration": 0.2216801604166676
        },
        {
          "name": "C#6",
          "midi": 85,
          "time": 62.34388300000002,
          "velocity": 0.5669291338582677,
          "duration": 0.2216801604166676
        },
        {
          "name": "C#6",
          "midi": 85,
          "time": 62.57825850000002,
          "velocity": 0.5984251968503937,
          "duration": 0.2216801604166676
        },
        {
          "name": "C#6",
          "midi": 85,
          "time": 62.81263400000002,
          "velocity": 0.6299212598425197,
          "duration": 0.2216801604166676
        },
        {
          "name": "B5",
          "midi": 83,
          "time": 63.047009500000016,
          "velocity": 0.6614173228346457,
          "duration": 0.2216801604166676
        },
        {
          "name": "A5",
          "midi": 81,
          "time": 63.281385000000014,
          "velocity": 0.6929133858267716,
          "duration": 0.2216801604166676
        },
        {
          "name": "A5",
          "midi": 81,
          "time": 63.51576050000001,
          "velocity": 0.7244094488188977,
          "duration": 0.2216801604166676
        },
        {
          "name": "A4",
          "midi": 69,
          "time": 64.21888700000001,
          "velocity": 0.7559055118110236,
          "duration": 0.4443368854166607
        },
        {
          "name": "D5",
          "midi": 74,
          "time": 64.21888700000001,
          "velocity": 0.7559055118110236,
          "duration": 0.4443368854166607
        },
        {
          "name": "D5",
          "midi": 74,
          "time": 64.687638,
          "velocity": 0.7559055118110236,
          "duration": 0.4443368854166607
        },
        {
          "name": "F#5",
          "midi": 78,
          "time": 64.687638,
          "velocity": 0.7559055118110236,
          "duration": 0.4443368854166607
        },
        {
          "name": "F#5",
          "midi": 78,
          "time": 65.156389,
          "velocity": 0.7559055118110236,
          "duration": 0.4443368854166607
        },
        {
          "name": "A5",
          "midi": 81,
          "time": 65.156389,
          "velocity": 0.7559055118110236,
          "duration": 0.4443368854166607
        },
        {
          "name": "E5",
          "midi": 76,
          "time": 65.62514,
          "velocity": 0.7559055118110236,
          "duration": 0.4443368854166607
        },
        {
          "name": "B5",
          "midi": 83,
          "time": 65.62514,
          "velocity": 0.7559055118110236,
          "duration": 0.4443368854166607
        },
        {
          "name": "A5",
          "midi": 81,
          "time": 66.093891,
          "velocity": 0.7559055118110236,
          "duration": 0.4443368854166607
        },
        {
          "name": "C#6",
          "midi": 85,
          "time": 66.093891,
          "velocity": 0.7559055118110236,
          "duration": 0.4443368854166607
        },
        {
          "name": "E5",
          "midi": 76,
          "time": 66.562642,
          "velocity": 0.7559055118110236,
          "duration": 0.4443368854166607
        },
        {
          "name": "A5",
          "midi": 81,
          "time": 66.562642,
          "velocity": 0.7559055118110236,
          "duration": 0.4443368854166607
        },
        {
          "name": "A5",
          "midi": 81,
          "time": 67.031393,
          "velocity": 0.7559055118110236,
          "duration": 0.4443368854166607
        },
        {
          "name": "C#6",
          "midi": 85,
          "time": 67.031393,
          "velocity": 0.7559055118110236,
          "duration": 0.4443368854166607
        },
        {
          "name": "A4",
          "midi": 69,
          "time": 67.96889499999999,
          "velocity": 0.7559055118110236,
          "duration": 0.4443368854166607
        },
        {
          "name": "C#5",
          "midi": 73,
          "time": 67.96889499999999,
          "velocity": 0.7559055118110236,
          "duration": 0.4443368854166607
        },
        {
          "name": "C#5",
          "midi": 73,
          "time": 68.43764599999999,
          "velocity": 0.7559055118110236,
          "duration": 0.4443368854166607
        },
        {
          "name": "F#5",
          "midi": 78,
          "time": 68.43764599999999,
          "velocity": 0.7559055118110236,
          "duration": 0.4443368854166607
        },
        {
          "name": "F#5",
          "midi": 78,
          "time": 68.90639699999998,
          "velocity": 0.7559055118110236,
          "duration": 0.4443368854166607
        },
        {
          "name": "A5",
          "midi": 81,
          "time": 68.90639699999998,
          "velocity": 0.7559055118110236,
          "duration": 0.4443368854166607
        },
        {
          "name": "A5",
          "midi": 81,
          "time": 69.37514799999998,
          "velocity": 0.7559055118110236,
          "duration": 0.2216801604166676
        },
        {
          "name": "C#6",
          "midi": 85,
          "time": 69.37514799999998,
          "velocity": 0.7559055118110236,
          "duration": 0.2216801604166676
        },
        {
          "name": "C#6",
          "midi": 85,
          "time": 69.60952349999998,
          "velocity": 0.7559055118110236,
          "duration": 0.2216801604166676
        },
        {
          "name": "C#6",
          "midi": 85,
          "time": 69.84389899999998,
          "velocity": 0.7559055118110236,
          "duration": 0.2216801604166676
        },
        {
          "name": "C#6",
          "midi": 85,
          "time": 70.07827449999998,
          "velocity": 0.7559055118110236,
          "duration": 0.2216801604166676
        },
        {
          "name": "A5",
          "midi": 81,
          "time": 70.31264999999998,
          "velocity": 0.7559055118110236,
          "duration": 0.2216801604166676
        },
        {
          "name": "C#6",
          "midi": 85,
          "time": 70.31264999999998,
          "velocity": 0.7559055118110236,
          "duration": 0.2216801604166676
        },
        {
          "name": "B5",
          "midi": 83,
          "time": 70.54702549999998,
          "velocity": 0.7559055118110236,
          "duration": 0.2216801604166676
        },
        {
          "name": "A5",
          "midi": 81,
          "time": 70.78140099999997,
          "velocity": 0.7559055118110236,
          "duration": 0.2216801604166676
        },
        {
          "name": "D5",
          "midi": 74,
          "time": 71.01577649999997,
          "velocity": 0.7559055118110236,
          "duration": 0.2216801604166676
        },
        {
          "name": "A5",
          "midi": 81,
          "time": 71.01577649999997,
          "velocity": 0.7559055118110236,
          "duration": 0.2216801604166676
        },
        {
          "name": "A4",
          "midi": 69,
          "time": 71.71890299999997,
          "velocity": 0.7559055118110236,
          "duration": 0.4443368854166607
        },
        {
          "name": "D5",
          "midi": 74,
          "time": 71.71890299999997,
          "velocity": 0.7559055118110236,
          "duration": 0.4443368854166607
        },
        {
          "name": "D5",
          "midi": 74,
          "time": 72.18765399999997,
          "velocity": 0.7559055118110236,
          "duration": 0.4443368854166607
        },
        {
          "name": "F#5",
          "midi": 78,
          "time": 72.18765399999997,
          "velocity": 0.7559055118110236,
          "duration": 0.4443368854166607
        },
        {
          "name": "F#5",
          "midi": 78,
          "time": 72.65640499999996,
          "velocity": 0.7559055118110236,
          "duration": 0.4443368854166607
        },
        {
          "name": "A5",
          "midi": 81,
          "time": 72.65640499999996,
          "velocity": 0.7559055118110236,
          "duration": 0.4443368854166607
        },
        {
          "name": "E5",
          "midi": 76,
          "time": 73.12515599999996,
          "velocity": 0.7559055118110236,
          "duration": 0.4443368854166607
        },
        {
          "name": "B5",
          "midi": 83,
          "time": 73.12515599999996,
          "velocity": 0.7559055118110236,
          "duration": 0.4443368854166607
        },
        {
          "name": "A5",
          "midi": 81,
          "time": 73.59390699999996,
          "velocity": 0.7559055118110236,
          "duration": 0.4443368854166607
        },
        {
          "name": "C#6",
          "midi": 85,
          "time": 73.59390699999996,
          "velocity": 0.7559055118110236,
          "duration": 0.4443368854166607
        },
        {
          "name": "E5",
          "midi": 76,
          "time": 74.06265799999996,
          "velocity": 0.7559055118110236,
          "duration": 0.4443368854166607
        },
        {
          "name": "A5",
          "midi": 81,
          "time": 74.06265799999996,
          "velocity": 0.7559055118110236,
          "duration": 0.4443368854166607
        },
        {
          "name": "A5",
          "midi": 81,
          "time": 74.53140899999995,
          "velocity": 0.7559055118110236,
          "duration": 0.4443368854166607
        },
        {
          "name": "C#6",
          "midi": 85,
          "time": 74.53140899999995,
          "velocity": 0.7559055118110236,
          "duration": 0.4443368854166607
        },
        {
          "name": "B4",
          "midi": 71,
          "time": 75.46891099999995,
          "velocity": 0.7559055118110236,
          "duration": 0.4443368854166607
        },
        {
          "name": "E5",
          "midi": 76,
          "time": 75.46891099999995,
          "velocity": 0.7559055118110236,
          "duration": 0.4443368854166607
        },
        {
          "name": "E5",
          "midi": 76,
          "time": 75.93766199999995,
          "velocity": 0.7559055118110236,
          "duration": 0.4443368854166607
        },
        {
          "name": "G#5",
          "midi": 80,
          "time": 75.93766199999995,
          "velocity": 0.7559055118110236,
          "duration": 0.4443368854166607
        },
        {
          "name": "E5",
          "midi": 76,
          "time": 76.40641299999994,
          "velocity": 0.7559055118110236,
          "duration": 0.4443368854166607
        },
        {
          "name": "A5",
          "midi": 81,
          "time": 76.40641299999994,
          "velocity": 0.7559055118110236,
          "duration": 0.4443368854166607
        },
        {
          "name": "A5",
          "midi": 81,
          "time": 76.87516399999994,
          "velocity": 0.7559055118110236,
          "duration": 0.2216801604166676
        },
        {
          "name": "C#6",
          "midi": 85,
          "time": 76.87516399999994,
          "velocity": 0.7559055118110236,
          "duration": 0.2216801604166676
        },
        {
          "name": "C#6",
          "midi": 85,
          "time": 77.10953949999994,
          "velocity": 0.7559055118110236,
          "duration": 0.2216801604166676
        },
        {
          "name": "C#6",
          "midi": 85,
          "time": 77.34391499999994,
          "velocity": 0.7559055118110236,
          "duration": 0.2216801604166676
        },
        {
          "name": "C#6",
          "midi": 85,
          "time": 77.57829049999994,
          "velocity": 0.7559055118110236,
          "duration": 0.2216801604166676
        },
        {
          "name": "A5",
          "midi": 81,
          "time": 77.81266599999994,
          "velocity": 0.7559055118110236,
          "duration": 0.2216801604166676
        },
        {
          "name": "C#6",
          "midi": 85,
          "time": 77.81266599999994,
          "velocity": 0.7559055118110236,
          "duration": 0.2216801604166676
        },
        {
          "name": "B5",
          "midi": 83,
          "time": 78.04704149999993,
          "velocity": 0.7559055118110236,
          "duration": 0.2216801604166676
        },
        {
          "name": "A5",
          "midi": 81,
          "time": 78.28141699999993,
          "velocity": 0.7559055118110236,
          "duration": 0.2216801604166676
        },
        {
          "name": "D5",
          "midi": 74,
          "time": 78.51579249999993,
          "velocity": 0.7559055118110236,
          "duration": 0.2216801604166676
        },
        {
          "name": "A5",
          "midi": 81,
          "time": 78.51579249999993,
          "velocity": 0.7559055118110236,
          "duration": 0.2216801604166676
        },
        {
          "name": "C#5",
          "midi": 73,
          "time": 79.21891899999993,
          "velocity": 0.7559055118110236,
          "duration": 1.1123070604166685
        },
        {
          "name": "E5",
          "midi": 76,
          "time": 79.21891899999993,
          "velocity": 0.7559055118110236,
          "duration": 1.1123070604166685
        },
        {
          "name": "A4",
          "midi": 69,
          "time": 80.39079649999994,
          "velocity": 0.7559055118110236,
          "duration": 1.6406284999999912
        },
        {
          "name": "C#5",
          "midi": 73,
          "time": 80.39079649999994,
          "velocity": 0.7559055118110236,
          "duration": 0.4443368854166607
        },
        {
          "name": "E5",
          "midi": 76,
          "time": 80.85954749999993,
          "velocity": 0.7559055118110236,
          "duration": 0.4443368854166607
        },
        {
          "name": "C#5",
          "midi": 73,
          "time": 81.32829849999993,
          "velocity": 0.7559055118110236,
          "duration": 0.2216801604166676
        },
        {
          "name": "F#5",
          "midi": 78,
          "time": 81.56267399999993,
          "velocity": 0.7559055118110236,
          "duration": 0.2216801604166676
        },
        {
          "name": "E5",
          "midi": 76,
          "time": 81.79704949999993,
          "velocity": 0.7559055118110236,
          "duration": 0.2216801604166676
        },
        {
          "name": "A4",
          "midi": 69,
          "time": 82.03142499999993,
          "velocity": 0.7559055118110236,
          "duration": 0.362305460416664
        },
        {
          "name": "C#5",
          "midi": 73,
          "time": 82.03142499999993,
          "velocity": 0.7559055118110236,
          "duration": 0.2216801604166676
        },
        {
          "name": "A4",
          "midi": 69,
          "time": 82.96892699999992,
          "velocity": 0.7559055118110236,
          "duration": 1.1123070604166685
        },
        {
          "name": "C#5",
          "midi": 73,
          "time": 82.96892699999992,
          "velocity": 0.7559055118110236,
          "duration": 1.1123070604166685
        },
        {
          "name": "E4",
          "midi": 64,
          "time": 84.14080449999993,
          "velocity": 0.7559055118110236,
          "duration": 1.5576205104166547
        },
        {
          "name": "B4",
          "midi": 71,
          "time": 84.14080449999993,
          "velocity": 0.7559055118110236,
          "duration": 0.4443368854166607
        },
        {
          "name": "C#5",
          "midi": 73,
          "time": 84.60955549999993,
          "velocity": 0.7559055118110236,
          "duration": 0.4443368854166607
        },
        {
          "name": "B4",
          "midi": 71,
          "time": 85.07830649999993,
          "velocity": 0.7559055118110236,
          "duration": 0.2216801604166676
        },
        {
          "name": "C#5",
          "midi": 73,
          "time": 85.31268199999992,
          "velocity": 0.7559055118110236,
          "duration": 0.2216801604166676
        },
        {
          "name": "B4",
          "midi": 71,
          "time": 85.54705749999992,
          "velocity": 0.7559055118110236,
          "duration": 0.2216801604166676
        },
        {
          "name": "C#4",
          "midi": 61,
          "time": 85.78143299999992,
          "velocity": 0.7559055118110236,
          "duration": 91.87519599999958
        },
        {
          "name": "F#4",
          "midi": 66,
          "time": 85.78143299999992,
          "velocity": 0.7559055118110236,
          "duration": 91.87519599999958
        },
        {
          "name": "C#5",
          "midi": 73,
          "time": 86.71893499999992,
          "velocity": 0.7559055118110236,
          "duration": 1.1123070604166685
        },
        {
          "name": "E5",
          "midi": 76,
          "time": 86.71893499999992,
          "velocity": 0.7559055118110236,
          "duration": 1.1123070604166685
        },
        {
          "name": "A4",
          "midi": 69,
          "time": 87.89081249999992,
          "velocity": 0.7559055118110236,
          "duration": 1.1123070604166685
        },
        {
          "name": "C#5",
          "midi": 73,
          "time": 87.89081249999992,
          "velocity": 0.7559055118110236,
          "duration": 0.4443368854166607
        },
        {
          "name": "E5",
          "midi": 76,
          "time": 88.35956349999992,
          "velocity": 0.7559055118110236,
          "duration": 0.4443368854166607
        },
        {
          "name": "C#5",
          "midi": 73,
          "time": 88.82831449999992,
          "velocity": 0.7559055118110236,
          "duration": 0.2216801604166676
        },
        {
          "name": "F#5",
          "midi": 78,
          "time": 89.06268999999992,
          "velocity": 0.7559055118110236,
          "duration": 0.2216801604166676
        },
        {
          "name": "E5",
          "midi": 76,
          "time": 89.29706549999992,
          "velocity": 0.7559055118110236,
          "duration": 0.2216801604166676
        },
        {
          "name": "E5",
          "midi": 76,
          "time": 89.29706549999992,
          "velocity": 0.7559055118110236,
          "duration": 0.45605566041666634
        },
        {
          "name": "C#5",
          "midi": 73,
          "time": 89.53144099999992,
          "velocity": 0.7559055118110236,
          "duration": 0.2216801604166676
        },
        {
          "name": "E5",
          "midi": 76,
          "time": 89.53144099999992,
          "velocity": 0.7559055118110236,
          "duration": 0.45605566041666634
        },
        {
          "name": "E5",
          "midi": 76,
          "time": 89.76581649999991,
          "velocity": 0.7559055118110236,
          "duration": 5.764660735416641
        },
        {
          "name": "C#6",
          "midi": 85,
          "time": 90.00019199999991,
          "velocity": 0.7559055118110236,
          "duration": 0.2216801604166676
        },
        {
          "name": "B5",
          "midi": 83,
          "time": 90.23456749999991,
          "velocity": 0.7559055118110236,
          "duration": 0.2216801604166676
        },
        {
          "name": "C#6",
          "midi": 85,
          "time": 90.46894299999991,
          "velocity": 0.7559055118110236,
          "duration": 0.2216801604166676
        },
        {
          "name": "B5",
          "midi": 83,
          "time": 90.70331849999991,
          "velocity": 0.7559055118110236,
          "duration": 0.2216801604166676
        },
        {
          "name": "C#6",
          "midi": 85,
          "time": 90.93769399999991,
          "velocity": 0.7559055118110236,
          "duration": 0.2216801604166676
        },
        {
          "name": "B5",
          "midi": 83,
          "time": 91.1720694999999,
          "velocity": 0.7559055118110236,
          "duration": 0.2216801604166676
        },
        {
          "name": "C#6",
          "midi": 85,
          "time": 91.8751959999999,
          "velocity": 0.7559055118110236,
          "duration": 0.2216801604166676
        },
        {
          "name": "B5",
          "midi": 83,
          "time": 92.1095714999999,
          "velocity": 0.7559055118110236,
          "duration": 0.2216801604166676
        },
        {
          "name": "C#6",
          "midi": 85,
          "time": 92.3439469999999,
          "velocity": 0.7559055118110236,
          "duration": 0.2216801604166676
        },
        {
          "name": "B5",
          "midi": 83,
          "time": 92.5783224999999,
          "velocity": 0.7559055118110236,
          "duration": 0.2216801604166676
        },
        {
          "name": "C#6",
          "midi": 85,
          "time": 92.8126979999999,
          "velocity": 0.7559055118110236,
          "duration": 0.2216801604166676
        },
        {
          "name": "B5",
          "midi": 83,
          "time": 93.0470734999999,
          "velocity": 0.7559055118110236,
          "duration": 0.2216801604166676
        },
        {
          "name": "A4",
          "midi": 69,
          "time": 93.2814489999999,
          "velocity": 0.7559055118110236,
          "duration": 0.4443368854166607
        },
        {
          "name": "E5",
          "midi": 76,
          "time": 93.7501999999999,
          "velocity": 0.5039370078740157,
          "duration": 2.0966841604166575
        },
        {
          "name": "F#5",
          "midi": 78,
          "time": 94.45332649999989,
          "velocity": 0.5039370078740157,
          "duration": 0.2216801604166676
        },
        {
          "name": "A5",
          "midi": 81,
          "time": 94.68770199999989,
          "velocity": 0.5039370078740157,
          "duration": 0.2216801604166676
        },
        {
          "name": "G#5",
          "midi": 80,
          "time": 94.92207749999989,
          "velocity": 0.5039370078740157,
          "duration": 0.2216801604166676
        },
        {
          "name": "F#5",
          "midi": 78,
          "time": 95.39082849999988,
          "velocity": 0.5039370078740157,
          "duration": 0.2216801604166676
        },
        {
          "name": "E5",
          "midi": 76,
          "time": 95.62520399999988,
          "velocity": 0.5039370078740157,
          "duration": 0.45605566041666634
        },
        {
          "name": "E5",
          "midi": 76,
          "time": 95.85957949999988,
          "velocity": 0.5039370078740157,
          "duration": 0.45605566041666634
        },
        {
          "name": "E5",
          "midi": 76,
          "time": 96.09395499999988,
          "velocity": 0.5039370078740157,
          "duration": 0.45605566041666634
        },
        {
          "name": "E5",
          "midi": 76,
          "time": 96.32833049999988,
          "velocity": 0.5039370078740157,
          "duration": 6.70216273541665
        },
        {
          "name": "F#5",
          "midi": 78,
          "time": 96.56270599999988,
          "velocity": 0.5039370078740157,
          "duration": 0.4443368854166607
        },
        {
          "name": "B4",
          "midi": 71,
          "time": 97.03145699999988,
          "velocity": 0.5039370078740157,
          "duration": 0.2216801604166676
        },
        {
          "name": "C#5",
          "midi": 73,
          "time": 97.26583249999987,
          "velocity": 0.5039370078740157,
          "duration": 0.666993610416668
        },
        {
          "name": "F#5",
          "midi": 78,
          "time": 98.20333449999987,
          "velocity": 0.5039370078740157,
          "duration": 0.2216801604166676
        },
        {
          "name": "C#6",
          "midi": 85,
          "time": 98.43770999999987,
          "velocity": 0.5039370078740157,
          "duration": 0.2216801604166676
        },
        {
          "name": "G#5",
          "midi": 80,
          "time": 98.67208549999987,
          "velocity": 0.5039370078740157,
          "duration": 0.2216801604166676
        },
        {
          "name": "F#5",
          "midi": 78,
          "time": 99.14083649999986,
          "velocity": 0.5039370078740157,
          "duration": 0.2216801604166676
        },
        {
          "name": "A4",
          "midi": 69,
          "time": 100.78146499999987,
          "velocity": 0.5039370078740157,
          "duration": 0.4443368854166607
        },
        {
          "name": "E5",
          "midi": 76,
          "time": 101.25021599999987,
          "velocity": 0.5039370078740157,
          "duration": 2.0966841604166575
        },
        {
          "name": "F#5",
          "midi": 78,
          "time": 101.95334249999986,
          "velocity": 0.5039370078740157,
          "duration": 0.2216801604166676
        },
        {
          "name": "A5",
          "midi": 81,
          "time": 102.18771799999986,
          "velocity": 0.5039370078740157,
          "duration": 0.2216801604166676
        },
        {
          "name": "G#5",
          "midi": 80,
          "time": 102.42209349999986,
          "velocity": 0.5039370078740157,
          "duration": 0.2216801604166676
        },
        {
          "name": "F#5",
          "midi": 78,
          "time": 102.89084449999986,
          "velocity": 0.5039370078740157,
          "duration": 0.2216801604166676
        },
        {
          "name": "E5",
          "midi": 76,
          "time": 103.12521999999986,
          "velocity": 0.5039370078740157,
          "duration": 0.45605566041666634
        },
        {
          "name": "E5",
          "midi": 76,
          "time": 103.35959549999986,
          "velocity": 0.5039370078740157,
          "duration": 0.45605566041666634
        },
        {
          "name": "E5",
          "midi": 76,
          "time": 103.59397099999985,
          "velocity": 0.5039370078740157,
          "duration": 0.45605566041666634
        },
        {
          "name": "E5",
          "midi": 76,
          "time": 103.82834649999985,
          "velocity": 0.5039370078740157,
          "duration": 8.659198160416636
        },
        {
          "name": "F#5",
          "midi": 78,
          "time": 104.06272199999985,
          "velocity": 0.5039370078740157,
          "duration": 0.4443368854166607
        },
        {
          "name": "B4",
          "midi": 71,
          "time": 104.53147299999985,
          "velocity": 0.5039370078740157,
          "duration": 0.2216801604166676
        },
        {
          "name": "D5",
          "midi": 74,
          "time": 104.76584849999985,
          "velocity": 0.5039370078740157,
          "duration": 0.2216801604166676
        },
        {
          "name": "C#5",
          "midi": 73,
          "time": 105.00022399999985,
          "velocity": 0.5039370078740157,
          "duration": 0.2216801604166676
        },
        {
          "name": "B4",
          "midi": 71,
          "time": 105.23459949999985,
          "velocity": 0.5039370078740157,
          "duration": 0.2216801604166676
        },
        {
          "name": "F#5",
          "midi": 78,
          "time": 105.70335049999984,
          "velocity": 0.5039370078740157,
          "duration": 0.2216801604166676
        },
        {
          "name": "C#6",
          "midi": 85,
          "time": 105.93772599999984,
          "velocity": 0.5039370078740157,
          "duration": 0.2216801604166676
        },
        {
          "name": "G#5",
          "midi": 80,
          "time": 106.17210149999984,
          "velocity": 0.5039370078740157,
          "duration": 0.2216801604166676
        },
        {
          "name": "F#5",
          "midi": 78,
          "time": 106.64085249999984,
          "velocity": 0.5039370078740157,
          "duration": 0.2216801604166676
        },
        {
          "name": "B4",
          "midi": 71,
          "time": 108.04710549999984,
          "velocity": 0.6299212598425197,
          "duration": 0.2216801604166676
        },
        {
          "name": "B4",
          "midi": 71,
          "time": 108.28148099999984,
          "velocity": 0.6299212598425197,
          "duration": 0.2216801604166676
        },
        {
          "name": "B4",
          "midi": 71,
          "time": 108.51585649999984,
          "velocity": 0.6299212598425197,
          "duration": 0.2216801604166676
        },
        {
          "name": "B4",
          "midi": 71,
          "time": 108.98460749999984,
          "velocity": 0.6299212598425197,
          "duration": 0.2216801604166676
        },
        {
          "name": "B4",
          "midi": 71,
          "time": 109.45335849999984,
          "velocity": 0.6299212598425197,
          "duration": 0.2216801604166676
        },
        {
          "name": "A4",
          "midi": 69,
          "time": 109.92210949999983,
          "velocity": 0.6299212598425197,
          "duration": 0.2216801604166676
        },
        {
          "name": "A4",
          "midi": 69,
          "time": 110.15648499999983,
          "velocity": 0.6299212598425197,
          "duration": 0.2216801604166676
        },
        {
          "name": "C#5",
          "midi": 73,
          "time": 110.39086049999983,
          "velocity": 0.6299212598425197,
          "duration": 0.2216801604166676
        },
        {
          "name": "D5",
          "midi": 74,
          "time": 110.85961149999983,
          "velocity": 0.6299212598425197,
          "duration": 0.2216801604166676
        },
        {
          "name": "B4",
          "midi": 71,
          "time": 111.32836249999983,
          "velocity": 0.6299212598425197,
          "duration": 0.2216801604166676
        },
        {
          "name": "A4",
          "midi": 69,
          "time": 111.79711349999982,
          "velocity": 0.6299212598425197,
          "duration": 0.2216801604166676
        },
        {
          "name": "A4",
          "midi": 69,
          "time": 112.03148899999982,
          "velocity": 0.6299212598425197,
          "duration": 0.2216801604166676
        },
        {
          "name": "E5",
          "midi": 76,
          "time": 112.26586449999982,
          "velocity": 0.6299212598425197,
          "duration": 33.50300116041649
        },
        {
          "name": "C#5",
          "midi": 73,
          "time": 112.73461549999982,
          "velocity": 0.6299212598425197,
          "duration": 0.2216801604166676
        },
        {
          "name": "C#5",
          "midi": 73,
          "time": 113.20336649999982,
          "velocity": 0.6299212598425197,
          "duration": 0.2216801604166676
        },
        {
          "name": "B4",
          "midi": 71,
          "time": 113.67211749999981,
          "velocity": 0.6299212598425197,
          "duration": 0.2216801604166676
        },
        {
          "name": "A4",
          "midi": 69,
          "time": 113.90649299999981,
          "velocity": 0.6299212598425197,
          "duration": 0.2216801604166676
        },
        {
          "name": "B4",
          "midi": 71,
          "time": 114.14086849999981,
          "velocity": 0.6299212598425197,
          "duration": 0.2216801604166676
        },
        {
          "name": "C#5",
          "midi": 73,
          "time": 114.60961949999981,
          "velocity": 0.6299212598425197,
          "duration": 0.2216801604166676
        },
        {
          "name": "A4",
          "midi": 69,
          "time": 115.0783704999998,
          "velocity": 0.6299212598425197,
          "duration": 0.2216801604166676
        },
        {
          "name": "B4",
          "midi": 71,
          "time": 115.5471214999998,
          "velocity": 0.6299212598425197,
          "duration": 0.2216801604166676
        },
        {
          "name": "B4",
          "midi": 71,
          "time": 115.7814969999998,
          "velocity": 0.6299212598425197,
          "duration": 0.2216801604166676
        },
        {
          "name": "B4",
          "midi": 71,
          "time": 116.0158724999998,
          "velocity": 0.6299212598425197,
          "duration": 0.2216801604166676
        },
        {
          "name": "B4",
          "midi": 71,
          "time": 116.4846234999998,
          "velocity": 0.6299212598425197,
          "duration": 0.2216801604166676
        },
        {
          "name": "B4",
          "midi": 71,
          "time": 116.9533744999998,
          "velocity": 0.6299212598425197,
          "duration": 0.2216801604166676
        },
        {
          "name": "A4",
          "midi": 69,
          "time": 117.4221254999998,
          "velocity": 0.6299212598425197,
          "duration": 0.2216801604166676
        },
        {
          "name": "A4",
          "midi": 69,
          "time": 117.65650099999979,
          "velocity": 0.6299212598425197,
          "duration": 0.2216801604166676
        },
        {
          "name": "C#5",
          "midi": 73,
          "time": 117.89087649999979,
          "velocity": 0.6299212598425197,
          "duration": 0.2216801604166676
        },
        {
          "name": "D5",
          "midi": 74,
          "time": 118.35962749999979,
          "velocity": 0.6299212598425197,
          "duration": 0.2216801604166676
        },
        {
          "name": "B4",
          "midi": 71,
          "time": 118.82837849999979,
          "velocity": 0.6299212598425197,
          "duration": 0.2216801604166676
        },
        {
          "name": "A4",
          "midi": 69,
          "time": 119.29712949999978,
          "velocity": 0.6299212598425197,
          "duration": 0.2216801604166676
        },
        {
          "name": "B4",
          "midi": 71,
          "time": 119.76588049999978,
          "velocity": 0.6299212598425197,
          "duration": 0.2216801604166676
        },
        {
          "name": "B4",
          "midi": 71,
          "time": 120.70338249999978,
          "velocity": 0.6299212598425197,
          "duration": 0.2216801604166676
        },
        {
          "name": "B4",
          "midi": 71,
          "time": 120.93775799999977,
          "velocity": 0.6299212598425197,
          "duration": 0.2216801604166676
        },
        {
          "name": "A4",
          "midi": 69,
          "time": 121.17213349999977,
          "velocity": 0.6299212598425197,
          "duration": 0.4443368854166607
        },
        {
          "name": "B4",
          "midi": 71,
          "time": 121.64088449999977,
          "velocity": 0.6299212598425197,
          "duration": 0.4443368854166607
        },
        {
          "name": "C#5",
          "midi": 73,
          "time": 122.10963549999977,
          "velocity": 0.6299212598425197,
          "duration": 0.4443368854166607
        },
        {
          "name": "D5",
          "midi": 74,
          "time": 122.57838649999977,
          "velocity": 0.6299212598425197,
          "duration": 0.4443368854166607
        },
        {
          "name": "C#6",
          "midi": 85,
          "time": 123.04713749999976,
          "velocity": 0.5039370078740157,
          "duration": 0.2216801604166676
        },
        {
          "name": "C#6",
          "midi": 85,
          "time": 123.28151299999976,
          "velocity": 0.5039370078740157,
          "duration": 0.2216801604166676
        },
        {
          "name": "C#6",
          "midi": 85,
          "time": 123.51588849999976,
          "velocity": 0.5039370078740157,
          "duration": 0.2216801604166676
        },
        {
          "name": "D6",
          "midi": 86,
          "time": 123.75026399999976,
          "velocity": 0.5039370078740157,
          "duration": 0.4443368854166607
        },
        {
          "name": "C#7",
          "midi": 97,
          "time": 124.21901499999976,
          "velocity": 0.5039370078740157,
          "duration": 0.4443368854166607
        },
        {
          "name": "B6",
          "midi": 95,
          "time": 124.68776599999975,
          "velocity": 0.5039370078740157,
          "duration": 0.4443368854166607
        },
        {
          "name": "A6",
          "midi": 93,
          "time": 125.15651699999975,
          "velocity": 0.5039370078740157,
          "duration": 0.4443368854166607
        },
        {
          "name": "E6",
          "midi": 88,
          "time": 125.62526799999975,
          "velocity": 0.5039370078740157,
          "duration": 0.2216801604166676
        },
        {
          "name": "B6",
          "midi": 95,
          "time": 125.85964349999975,
          "velocity": 0.5039370078740157,
          "duration": 0.4443368854166607
        },
        {
          "name": "A6",
          "midi": 93,
          "time": 126.32839449999975,
          "velocity": 0.5039370078740157,
          "duration": 0.2216801604166676
        },
        {
          "name": "G#6",
          "midi": 92,
          "time": 126.56276999999974,
          "velocity": 0.5039370078740157,
          "duration": 0.8896503354166612
        },
        {
          "name": "C#6",
          "midi": 85,
          "time": 127.50027199999974,
          "velocity": 0.5039370078740157,
          "duration": 0.2216801604166676
        },
        {
          "name": "C#6",
          "midi": 85,
          "time": 127.73464749999974,
          "velocity": 0.5039370078740157,
          "duration": 0.2216801604166676
        },
        {
          "name": "C#6",
          "midi": 85,
          "time": 127.96902299999974,
          "velocity": 0.5039370078740157,
          "duration": 0.2216801604166676
        },
        {
          "name": "C#6",
          "midi": 85,
          "time": 128.20339849999974,
          "velocity": 0.5039370078740157,
          "duration": 0.2216801604166676
        },
        {
          "name": "C#6",
          "midi": 85,
          "time": 128.43777399999973,
          "velocity": 0.5039370078740157,
          "duration": 0.2216801604166676
        },
        {
          "name": "B5",
          "midi": 83,
          "time": 128.67214949999973,
          "velocity": 0.5039370078740157,
          "duration": 0.2216801604166676
        },
        {
          "name": "A5",
          "midi": 81,
          "time": 128.90652499999973,
          "velocity": 0.5039370078740157,
          "duration": 0.2216801604166676
        },
        {
          "name": "A5",
          "midi": 81,
          "time": 129.14090049999973,
          "velocity": 0.5039370078740157,
          "duration": 0.6669936104166538
        },
        {
          "name": "C#6",
          "midi": 85,
          "time": 130.54715349999972,
          "velocity": 0.5039370078740157,
          "duration": 0.2216801604166676
        },
        {
          "name": "C#6",
          "midi": 85,
          "time": 130.78152899999972,
          "velocity": 0.5039370078740157,
          "duration": 0.2216801604166676
        },
        {
          "name": "C#6",
          "midi": 85,
          "time": 131.01590449999972,
          "velocity": 0.5039370078740157,
          "duration": 0.2216801604166676
        },
        {
          "name": "D6",
          "midi": 86,
          "time": 131.25027999999972,
          "velocity": 0.5039370078740157,
          "duration": 0.44433688541667493
        },
        {
          "name": "C#7",
          "midi": 97,
          "time": 131.71903099999972,
          "velocity": 0.5039370078740157,
          "duration": 0.44433688541667493
        },
        {
          "name": "B6",
          "midi": 95,
          "time": 132.18778199999971,
          "velocity": 0.5039370078740157,
          "duration": 0.44433688541667493
        },
        {
          "name": "A6",
          "midi": 93,
          "time": 132.6565329999997,
          "velocity": 0.5039370078740157,
          "duration": 0.44433688541667493
        },
        {
          "name": "E6",
          "midi": 88,
          "time": 133.1252839999997,
          "velocity": 0.5039370078740157,
          "duration": 0.2216801604166676
        },
        {
          "name": "B6",
          "midi": 95,
          "time": 133.3596594999997,
          "velocity": 0.5039370078740157,
          "duration": 0.44433688541667493
        },
        {
          "name": "A6",
          "midi": 93,
          "time": 133.8284104999997,
          "velocity": 0.5039370078740157,
          "duration": 0.2216801604166676
        },
        {
          "name": "G#6",
          "midi": 92,
          "time": 134.0627859999997,
          "velocity": 0.5039370078740157,
          "duration": 0.8896503354166612
        },
        {
          "name": "C#6",
          "midi": 85,
          "time": 135.0002879999997,
          "velocity": 0.5039370078740157,
          "duration": 0.2216801604166676
        },
        {
          "name": "C#6",
          "midi": 85,
          "time": 135.2346634999997,
          "velocity": 0.5039370078740157,
          "duration": 0.2216801604166676
        },
        {
          "name": "C#6",
          "midi": 85,
          "time": 135.4690389999997,
          "velocity": 0.5039370078740157,
          "duration": 0.2216801604166676
        },
        {
          "name": "C#6",
          "midi": 85,
          "time": 135.7034144999997,
          "velocity": 0.5039370078740157,
          "duration": 0.2216801604166676
        },
        {
          "name": "C#6",
          "midi": 85,
          "time": 135.9377899999997,
          "velocity": 0.5039370078740157,
          "duration": 0.2216801604166676
        },
        {
          "name": "D6",
          "midi": 86,
          "time": 136.1721654999997,
          "velocity": 0.5039370078740157,
          "duration": 0.2216801604166676
        },
        {
          "name": "E6",
          "midi": 88,
          "time": 136.4065409999997,
          "velocity": 0.5039370078740157,
          "duration": 0.2216801604166676
        },
        {
          "name": "B6",
          "midi": 95,
          "time": 136.6409164999997,
          "velocity": 0.5039370078740157,
          "duration": 0.2216801604166676
        },
        {
          "name": "A6",
          "midi": 93,
          "time": 136.8752919999997,
          "velocity": 0.5039370078740157,
          "duration": 0.8896503354166612
        },
        {
          "name": "C#5",
          "midi": 73,
          "time": 138.04716949999968,
          "velocity": 0.6299212598425197,
          "duration": 0.2216801604166676
        },
        {
          "name": "C#5",
          "midi": 73,
          "time": 138.28154499999968,
          "velocity": 0.6299212598425197,
          "duration": 0.2216801604166676
        },
        {
          "name": "C#5",
          "midi": 73,
          "time": 138.51592049999968,
          "velocity": 0.6299212598425197,
          "duration": 0.2216801604166676
        },
        {
          "name": "C#5",
          "midi": 73,
          "time": 138.75029599999968,
          "velocity": 0.6299212598425197,
          "duration": 0.2216801604166676
        },
        {
          "name": "D5",
          "midi": 74,
          "time": 138.98467149999968,
          "velocity": 0.6299212598425197,
          "duration": 0.2216801604166676
        },
        {
          "name": "D5",
          "midi": 74,
          "time": 139.92217349999967,
          "velocity": 0.6299212598425197,
          "duration": 0.2216801604166676
        },
        {
          "name": "D5",
          "midi": 74,
          "time": 140.15654899999967,
          "velocity": 0.6299212598425197,
          "duration": 0.2216801604166676
        },
        {
          "name": "A5",
          "midi": 81,
          "time": 140.39092449999967,
          "velocity": 0.6299212598425197,
          "duration": 0.2216801604166676
        },
        {
          "name": "A5",
          "midi": 81,
          "time": 140.62529999999967,
          "velocity": 0.6299212598425197,
          "duration": 0.2216801604166676
        },
        {
          "name": "G#5",
          "midi": 80,
          "time": 140.85967549999967,
          "velocity": 0.6299212598425197,
          "duration": 0.2216801604166676
        },
        {
          "name": "D5",
          "midi": 74,
          "time": 141.79717749999966,
          "velocity": 0.6299212598425197,
          "duration": 0.2216801604166676
        },
        {
          "name": "D5",
          "midi": 74,
          "time": 142.03155299999966,
          "velocity": 0.6299212598425197,
          "duration": 0.2216801604166676
        },
        {
          "name": "D5",
          "midi": 74,
          "time": 142.26592849999966,
          "velocity": 0.6299212598425197,
          "duration": 0.2216801604166676
        },
        {
          "name": "D5",
          "midi": 74,
          "time": 142.50030399999966,
          "velocity": 0.6299212598425197,
          "duration": 0.2216801604166676
        },
        {
          "name": "C#5",
          "midi": 73,
          "time": 142.73467949999966,
          "velocity": 0.6299212598425197,
          "duration": 0.2216801604166676
        },
        {
          "name": "C#5",
          "midi": 73,
          "time": 143.67218149999965,
          "velocity": 0.6299212598425197,
          "duration": 0.2216801604166676
        },
        {
          "name": "C#5",
          "midi": 73,
          "time": 143.90655699999965,
          "velocity": 0.6299212598425197,
          "duration": 0.2216801604166676
        },
        {
          "name": "B5",
          "midi": 83,
          "time": 144.14093249999965,
          "velocity": 0.6299212598425197,
          "duration": 0.2216801604166676
        },
        {
          "name": "B5",
          "midi": 83,
          "time": 144.37530799999965,
          "velocity": 0.6299212598425197,
          "duration": 0.2216801604166676
        },
        {
          "name": "A5",
          "midi": 81,
          "time": 144.60968349999965,
          "velocity": 0.6299212598425197,
          "duration": 0.2216801604166676
        },
        {
          "name": "E5",
          "midi": 76,
          "time": 145.54718549999964,
          "velocity": 0.6299212598425197,
          "duration": 1.1591821604166626
        },
        {
          "name": "F#5",
          "midi": 78,
          "time": 145.78156099999964,
          "velocity": 0.6299212598425197,
          "duration": 0.2216801604166676
        },
        {
          "name": "A5",
          "midi": 81,
          "time": 146.01593649999964,
          "velocity": 0.6299212598425197,
          "duration": 0.2216801604166676
        },
        {
          "name": "E5",
          "midi": 76,
          "time": 146.48468749999964,
          "velocity": 0.6299212598425197,
          "duration": 1.1591821604166626
        },
        {
          "name": "F#5",
          "midi": 78,
          "time": 146.71906299999964,
          "velocity": 0.6299212598425197,
          "duration": 0.2216801604166676
        },
        {
          "name": "A5",
          "midi": 81,
          "time": 146.95343849999963,
          "velocity": 0.6299212598425197,
          "duration": 0.2216801604166676
        },
        {
          "name": "E5",
          "midi": 76,
          "time": 147.42218949999963,
          "velocity": 0.6299212598425197,
          "duration": 1.1591821604166626
        },
        {
          "name": "F#5",
          "midi": 78,
          "time": 147.65656499999963,
          "velocity": 0.6299212598425197,
          "duration": 0.2216801604166676
        },
        {
          "name": "A5",
          "midi": 81,
          "time": 147.89094049999963,
          "velocity": 0.6299212598425197,
          "duration": 0.2216801604166676
        },
        {
          "name": "E5",
          "midi": 76,
          "time": 148.35969149999963,
          "velocity": 0.6299212598425197,
          "duration": 1.1591821604166626
        },
        {
          "name": "F#5",
          "midi": 78,
          "time": 148.59406699999963,
          "velocity": 0.6299212598425197,
          "duration": 0.2216801604166676
        },
        {
          "name": "A5",
          "midi": 81,
          "time": 148.82844249999962,
          "velocity": 0.6299212598425197,
          "duration": 0.44433688541667493
        },
        {
          "name": "E5",
          "midi": 76,
          "time": 149.29719349999962,
          "velocity": 0.6299212598425197,
          "duration": 4.663095885416652
        },
        {
          "name": "F#5",
          "midi": 78,
          "time": 149.53156899999962,
          "velocity": 0.6299212598425197,
          "duration": 0.2216801604166676
        },
        {
          "name": "C#6",
          "midi": 85,
          "time": 150.00031999999962,
          "velocity": 0.6299212598425197,
          "duration": 0.2216801604166676
        },
        {
          "name": "C#6",
          "midi": 85,
          "time": 150.23469549999962,
          "velocity": 0.6299212598425197,
          "duration": 0.2216801604166676
        },
        {
          "name": "C#6",
          "midi": 85,
          "time": 150.46907099999962,
          "velocity": 0.6299212598425197,
          "duration": 0.2216801604166676
        },
        {
          "name": "C#6",
          "midi": 85,
          "time": 150.70344649999961,
          "velocity": 0.6299212598425197,
          "duration": 0.2216801604166676
        },
        {
          "name": "C#6",
          "midi": 85,
          "time": 150.9378219999996,
          "velocity": 0.6299212598425197,
          "duration": 0.2216801604166676
        },
        {
          "name": "B5",
          "midi": 83,
          "time": 151.1721974999996,
          "velocity": 0.6299212598425197,
          "duration": 0.2216801604166676
        },
        {
          "name": "E5",
          "midi": 76,
          "time": 153.5159524999996,
          "velocity": 0.6299212598425197,
          "duration": 4.4287203854166535
        },
        {
          "name": "C#6",
          "midi": 85,
          "time": 153.9847034999996,
          "velocity": 0.6456692913385826,
          "duration": 0.2216801604166676
        },
        {
          "name": "C#6",
          "midi": 85,
          "time": 154.2190789999996,
          "velocity": 0.6614173228346457,
          "duration": 0.2216801604166676
        },
        {
          "name": "C#6",
          "midi": 85,
          "time": 154.4534544999996,
          "velocity": 0.6771653543307087,
          "duration": 0.2216801604166676
        },
        {
          "name": "C#6",
          "midi": 85,
          "time": 154.6878299999996,
          "velocity": 0.6929133858267716,
          "duration": 0.2216801604166676
        },
        {
          "name": "B5",
          "midi": 83,
          "time": 154.9222054999996,
          "velocity": 0.7086614173228346,
          "duration": 0.2216801604166676
        },
        {
          "name": "A5",
          "midi": 81,
          "time": 155.1565809999996,
          "velocity": 0.7244094488188977,
          "duration": 0.2216801604166676
        },
        {
          "name": "A5",
          "midi": 81,
          "time": 155.3909564999996,
          "velocity": 0.7401574803149606,
          "duration": 0.2216801604166676
        },
        {
          "name": "A4",
          "midi": 69,
          "time": 156.09408299999959,
          "velocity": 0.7559055118110236,
          "duration": 0.44433688541667493
        },
        {
          "name": "D5",
          "midi": 74,
          "time": 156.09408299999959,
          "velocity": 0.7559055118110236,
          "duration": 0.44433688541667493
        },
        {
          "name": "D5",
          "midi": 74,
          "time": 156.56283399999958,
          "velocity": 0.7559055118110236,
          "duration": 0.44433688541667493
        },
        {
          "name": "F#5",
          "midi": 78,
          "time": 156.56283399999958,
          "velocity": 0.7559055118110236,
          "duration": 0.44433688541667493
        },
        {
          "name": "F#5",
          "midi": 78,
          "time": 157.03158499999958,
          "velocity": 0.7559055118110236,
          "duration": 0.44433688541667493
        },
        {
          "name": "A5",
          "midi": 81,
          "time": 157.03158499999958,
          "velocity": 0.7559055118110236,
          "duration": 0.44433688541667493
        },
        {
          "name": "E5",
          "midi": 76,
          "time": 157.50033599999958,
          "velocity": 0.7559055118110236,
          "duration": 1.3818388854166699
        },
        {
          "name": "B5",
          "midi": 83,
          "time": 157.50033599999958,
          "velocity": 0.7559055118110236,
          "duration": 0.44433688541667493
        },
        {
          "name": "A5",
          "midi": 81,
          "time": 157.96908699999958,
          "velocity": 0.7559055118110236,
          "duration": 0.44433688541667493
        },
        {
          "name": "C#6",
          "midi": 85,
          "time": 157.96908699999958,
          "velocity": 0.7559055118110236,
          "duration": 0.44433688541667493
        },
        {
          "name": "E5",
          "midi": 76,
          "time": 158.43783799999957,
          "velocity": 0.7559055118110236,
          "duration": 7.00685088541664
        },
        {
          "name": "A5",
          "midi": 81,
          "time": 158.43783799999957,
          "velocity": 0.7559055118110236,
          "duration": 0.44433688541667493
        },
        {
          "name": "A5",
          "midi": 81,
          "time": 158.90658899999957,
          "velocity": 0.7559055118110236,
          "duration": 0.44433688541667493
        },
        {
          "name": "C#6",
          "midi": 85,
          "time": 158.90658899999957,
          "velocity": 0.7559055118110236,
          "duration": 0.44433688541667493
        },
        {
          "name": "A4",
          "midi": 69,
          "time": 159.84409099999957,
          "velocity": 0.7559055118110236,
          "duration": 0.44433688541667493
        },
        {
          "name": "C#5",
          "midi": 73,
          "time": 159.84409099999957,
          "velocity": 0.7559055118110236,
          "duration": 0.44433688541667493
        },
        {
          "name": "C#5",
          "midi": 73,
          "time": 160.31284199999956,
          "velocity": 0.7559055118110236,
          "duration": 0.44433688541667493
        },
        {
          "name": "F#5",
          "midi": 78,
          "time": 160.31284199999956,
          "velocity": 0.7559055118110236,
          "duration": 0.44433688541667493
        },
        {
          "name": "F#5",
          "midi": 78,
          "time": 160.78159299999956,
          "velocity": 0.7559055118110236,
          "duration": 0.44433688541667493
        },
        {
          "name": "A5",
          "midi": 81,
          "time": 160.78159299999956,
          "velocity": 0.7559055118110236,
          "duration": 0.44433688541667493
        },
        {
          "name": "A5",
          "midi": 81,
          "time": 161.25034399999956,
          "velocity": 0.7559055118110236,
          "duration": 0.2216801604166676
        },
        {
          "name": "C#6",
          "midi": 85,
          "time": 161.25034399999956,
          "velocity": 0.7559055118110236,
          "duration": 0.2216801604166676
        },
        {
          "name": "C#6",
          "midi": 85,
          "time": 161.48471949999956,
          "velocity": 0.7559055118110236,
          "duration": 0.2216801604166676
        },
        {
          "name": "C#6",
          "midi": 85,
          "time": 161.71909499999956,
          "velocity": 0.7559055118110236,
          "duration": 0.2216801604166676
        },
        {
          "name": "C#6",
          "midi": 85,
          "time": 161.95347049999955,
          "velocity": 0.7559055118110236,
          "duration": 0.2216801604166676
        },
        {
          "name": "A5",
          "midi": 81,
          "time": 162.18784599999955,
          "velocity": 0.7559055118110236,
          "duration": 0.2216801604166676
        },
        {
          "name": "C#6",
          "midi": 85,
          "time": 162.18784599999955,
          "velocity": 0.7559055118110236,
          "duration": 0.2216801604166676
        },
        {
          "name": "B5",
          "midi": 83,
          "time": 162.42222149999955,
          "velocity": 0.7559055118110236,
          "duration": 0.2216801604166676
        },
        {
          "name": "A5",
          "midi": 81,
          "time": 162.65659699999955,
          "velocity": 0.7559055118110236,
          "duration": 0.2216801604166676
        },
        {
          "name": "D5",
          "midi": 74,
          "time": 162.89097249999955,
          "velocity": 0.7559055118110236,
          "duration": 0.2216801604166676
        },
        {
          "name": "A5",
          "midi": 81,
          "time": 162.89097249999955,
          "velocity": 0.7559055118110236,
          "duration": 0.2216801604166676
        },
        {
          "name": "A4",
          "midi": 69,
          "time": 163.59409899999955,
          "velocity": 0.7559055118110236,
          "duration": 0.44433688541667493
        },
        {
          "name": "D5",
          "midi": 74,
          "time": 163.59409899999955,
          "velocity": 0.7559055118110236,
          "duration": 0.44433688541667493
        },
        {
          "name": "D5",
          "midi": 74,
          "time": 164.06284999999954,
          "velocity": 0.7559055118110236,
          "duration": 0.44433688541667493
        },
        {
          "name": "F#5",
          "midi": 78,
          "time": 164.06284999999954,
          "velocity": 0.7559055118110236,
          "duration": 0.44433688541667493
        },
        {
          "name": "F#5",
          "midi": 78,
          "time": 164.53160099999954,
          "velocity": 0.7559055118110236,
          "duration": 0.44433688541667493
        },
        {
          "name": "A5",
          "midi": 81,
          "time": 164.53160099999954,
          "velocity": 0.7559055118110236,
          "duration": 0.44433688541667493
        },
        {
          "name": "E5",
          "midi": 76,
          "time": 165.00035199999954,
          "velocity": 0.7559055118110236,
          "duration": 1.3818388854166699
        },
        {
          "name": "B5",
          "midi": 83,
          "time": 165.00035199999954,
          "velocity": 0.7559055118110236,
          "duration": 0.44433688541667493
        },
        {
          "name": "A5",
          "midi": 81,
          "time": 165.46910299999954,
          "velocity": 0.7559055118110236,
          "duration": 0.44433688541667493
        },
        {
          "name": "C#6",
          "midi": 85,
          "time": 165.46910299999954,
          "velocity": 0.7559055118110236,
          "duration": 0.44433688541667493
        },
        {
          "name": "E5",
          "midi": 76,
          "time": 165.93785399999953,
          "velocity": 0.7559055118110236,
          "duration": 1.8505898854166674
        },
        {
          "name": "A5",
          "midi": 81,
          "time": 165.93785399999953,
          "velocity": 0.7559055118110236,
          "duration": 0.44433688541667493
        },
        {
          "name": "A5",
          "midi": 81,
          "time": 166.40660499999953,
          "velocity": 0.7559055118110236,
          "duration": 0.44433688541667493
        },
        {
          "name": "C#6",
          "midi": 85,
          "time": 166.40660499999953,
          "velocity": 0.7559055118110236,
          "duration": 0.44433688541667493
        },
        {
          "name": "B4",
          "midi": 71,
          "time": 167.34410699999952,
          "velocity": 0.7559055118110236,
          "duration": 0.44433688541667493
        },
        {
          "name": "E5",
          "midi": 76,
          "time": 167.34410699999952,
          "velocity": 0.7559055118110236,
          "duration": 0.9130878854166724
        },
        {
          "name": "E5",
          "midi": 76,
          "time": 167.81285799999952,
          "velocity": 0.7559055118110236,
          "duration": 0.9130878854166724
        },
        {
          "name": "G#5",
          "midi": 80,
          "time": 167.81285799999952,
          "velocity": 0.7559055118110236,
          "duration": 0.44433688541667493
        },
        {
          "name": "E5",
          "midi": 76,
          "time": 168.28160899999952,
          "velocity": 0.7559055118110236,
          "duration": 3.9248130604166533
        },
        {
          "name": "A5",
          "midi": 81,
          "time": 168.28160899999952,
          "velocity": 0.7559055118110236,
          "duration": 0.44433688541667493
        },
        {
          "name": "A5",
          "midi": 81,
          "time": 168.75035999999952,
          "velocity": 0.7559055118110236,
          "duration": 0.2216801604166676
        },
        {
          "name": "C#6",
          "midi": 85,
          "time": 168.75035999999952,
          "velocity": 0.7559055118110236,
          "duration": 0.2216801604166676
        },
        {
          "name": "C#6",
          "midi": 85,
          "time": 168.98473549999952,
          "velocity": 0.7559055118110236,
          "duration": 0.2216801604166676
        },
        {
          "name": "C#6",
          "midi": 85,
          "time": 169.21911099999951,
          "velocity": 0.7559055118110236,
          "duration": 0.2216801604166676
        },
        {
          "name": "C#6",
          "midi": 85,
          "time": 169.4534864999995,
          "velocity": 0.7559055118110236,
          "duration": 0.2216801604166676
        },
        {
          "name": "A5",
          "midi": 81,
          "time": 169.6878619999995,
          "velocity": 0.7559055118110236,
          "duration": 0.2216801604166676
        },
        {
          "name": "C#6",
          "midi": 85,
          "time": 169.6878619999995,
          "velocity": 0.7559055118110236,
          "duration": 0.2216801604166676
        },
        {
          "name": "B5",
          "midi": 83,
          "time": 169.9222374999995,
          "velocity": 0.7559055118110236,
          "duration": 0.2216801604166676
        },
        {
          "name": "A5",
          "midi": 81,
          "time": 170.1566129999995,
          "velocity": 0.7559055118110236,
          "duration": 0.2216801604166676
        },
        {
          "name": "D5",
          "midi": 74,
          "time": 170.3909884999995,
          "velocity": 0.7559055118110236,
          "duration": 0.2216801604166676
        },
        {
          "name": "A5",
          "midi": 81,
          "time": 170.3909884999995,
          "velocity": 0.7559055118110236,
          "duration": 0.2216801604166676
        },
        {
          "name": "C#5",
          "midi": 73,
          "time": 171.0941149999995,
          "velocity": 0.7559055118110236,
          "duration": 1.1123070604166685
        },
        {
          "name": "E5",
          "midi": 76,
          "time": 171.0941149999995,
          "velocity": 0.7559055118110236,
          "duration": 2.084965385416666
        },
        {
          "name": "A4",
          "midi": 69,
          "time": 172.2659924999995,
          "velocity": 0.7559055118110236,
          "duration": 1.6406284999999912
        },
        {
          "name": "C#5",
          "midi": 73,
          "time": 172.2659924999995,
          "velocity": 0.7559055118110236,
          "duration": 0.44433688541667493
        },
        {
          "name": "E5",
          "midi": 76,
          "time": 172.7347434999995,
          "velocity": 0.7559055118110236,
          "duration": 1.1591821604166626
        },
        {
          "name": "C#5",
          "midi": 73,
          "time": 173.2034944999995,
          "velocity": 0.7559055118110236,
          "duration": 0.2216801604166676
        },
        {
          "name": "F#5",
          "midi": 78,
          "time": 173.4378699999995,
          "velocity": 0.7559055118110236,
          "duration": 0.2216801604166676
        },
        {
          "name": "E5",
          "midi": 76,
          "time": 173.6722454999995,
          "velocity": 0.7559055118110236,
          "duration": 6.03419256041667
        },
        {
          "name": "A4",
          "midi": 69,
          "time": 173.9066209999995,
          "velocity": 0.7559055118110236,
          "duration": 0.3623054604166782
        },
        {
          "name": "C#5",
          "midi": 73,
          "time": 173.9066209999995,
          "velocity": 0.7559055118110236,
          "duration": 0.2216801604166676
        },
        {
          "name": "A4",
          "midi": 69,
          "time": 174.8441229999995,
          "velocity": 0.7559055118110236,
          "duration": 1.1123070604166685
        },
        {
          "name": "C#5",
          "midi": 73,
          "time": 174.8441229999995,
          "velocity": 0.7559055118110236,
          "duration": 1.1123070604166685
        },
        {
          "name": "E4",
          "midi": 64,
          "time": 176.0160004999995,
          "velocity": 0.7559055118110236,
          "duration": 1.5576205104166547
        },
        {
          "name": "B4",
          "midi": 71,
          "time": 176.0160004999995,
          "velocity": 0.7559055118110236,
          "duration": 0.44433688541667493
        },
        {
          "name": "C#5",
          "midi": 73,
          "time": 176.4847514999995,
          "velocity": 0.7559055118110236,
          "duration": 0.44433688541667493
        },
        {
          "name": "B4",
          "midi": 71,
          "time": 176.9535024999995,
          "velocity": 0.7559055118110236,
          "duration": 0.2216801604166676
        },
        {
          "name": "C#5",
          "midi": 73,
          "time": 177.1878779999995,
          "velocity": 0.7559055118110236,
          "duration": 0.2216801604166676
        },
        {
          "name": "B4",
          "midi": 71,
          "time": 177.4222534999995,
          "velocity": 0.7559055118110236,
          "duration": 0.2216801604166676
        },
        {
          "name": "C#4",
          "midi": 61,
          "time": 177.6566289999995,
          "velocity": 0.7559055118110236,
          "duration": 0
        },
        {
          "name": "F#4",
          "midi": 66,
          "time": 177.6566289999995,
          "velocity": 0.7559055118110236,
          "duration": 0
        },
        {
          "name": "C#5",
          "midi": 73,
          "time": 178.5941309999995,
          "velocity": 0.7559055118110236,
          "duration": 1.1123070604166685
        },
        {
          "name": "E5",
          "midi": 76,
          "time": 178.5941309999995,
          "velocity": 0.7559055118110236,
          "duration": 2.084965385416666
        },
        {
          "name": "A4",
          "midi": 69,
          "time": 179.7660084999995,
          "velocity": 0.7559055118110236,
          "duration": 1.1123070604166685
        },
        {
          "name": "C#5",
          "midi": 73,
          "time": 179.7660084999995,
          "velocity": 0.7559055118110236,
          "duration": 0.44433688541667493
        },
        {
          "name": "E5",
          "midi": 76,
          "time": 180.23475949999948,
          "velocity": 0.7559055118110236,
          "duration": 0.937501999999995
        },
        {
          "name": "C#5",
          "midi": 73,
          "time": 180.70351049999948,
          "velocity": 0.7559055118110236,
          "duration": 0.2216801604166676
        },
        {
          "name": "F#5",
          "midi": 78,
          "time": 180.93788599999948,
          "velocity": 0.7559055118110236,
          "duration": 0.2216801604166676
        },
        {
          "name": "E5",
          "midi": 76,
          "time": 181.17226149999948,
          "velocity": 0.7559055118110236,
          "duration": 0.2216801604166676
        },
        {
          "name": "E5",
          "midi": 76,
          "time": 181.17226149999948,
          "velocity": 0.7559055118110236,
          "duration": 0.45605566041666634
        },
        {
          "name": "C#5",
          "midi": 73,
          "time": 181.40663699999948,
          "velocity": 0.7559055118110236,
          "duration": 0.2216801604166676
        },
        {
          "name": "E5",
          "midi": 76,
          "time": 181.40663699999948,
          "velocity": 0.7559055118110236,
          "duration": 0.45605566041666634
        },
        {
          "name": "E5",
          "midi": 76,
          "time": 181.64101249999948,
          "velocity": 0.7559055118110236,
          "duration": 6.081067660416636
        },
        {
          "name": "C#6",
          "midi": 85,
          "time": 181.87538799999948,
          "velocity": 0.7559055118110236,
          "duration": 0.2216801604166676
        },
        {
          "name": "B5",
          "midi": 83,
          "time": 182.10976349999947,
          "velocity": 0.7559055118110236,
          "duration": 0.2216801604166676
        },
        {
          "name": "C#6",
          "midi": 85,
          "time": 182.34413899999947,
          "velocity": 0.7559055118110236,
          "duration": 0.2216801604166676
        },
        {
          "name": "B5",
          "midi": 83,
          "time": 182.57851449999947,
          "velocity": 0.7559055118110236,
          "duration": 0.2216801604166676
        },
        {
          "name": "C#6",
          "midi": 85,
          "time": 182.81288999999947,
          "velocity": 0.7559055118110236,
          "duration": 0.2216801604166676
        },
        {
          "name": "B5",
          "midi": 83,
          "time": 183.04726549999947,
          "velocity": 0.7559055118110236,
          "duration": 0.2216801604166676
        },
        {
          "name": "C#6",
          "midi": 85,
          "time": 183.75039199999947,
          "velocity": 0.7559055118110236,
          "duration": 0.2216801604166676
        },
        {
          "name": "B5",
          "midi": 83,
          "time": 183.98476749999946,
          "velocity": 0.7559055118110236,
          "duration": 0.2216801604166676
        },
        {
          "name": "C#6",
          "midi": 85,
          "time": 184.21914299999946,
          "velocity": 0.7559055118110236,
          "duration": 0.2216801604166676
        },
        {
          "name": "B5",
          "midi": 83,
          "time": 184.45351849999946,
          "velocity": 0.7559055118110236,
          "duration": 0.2216801604166676
        },
        {
          "name": "C#6",
          "midi": 85,
          "time": 184.68789399999946,
          "velocity": 0.7559055118110236,
          "duration": 0.2216801604166676
        },
        {
          "name": "B5",
          "midi": 83,
          "time": 184.92226949999946,
          "velocity": 0.5039370078740157,
          "duration": 0.2216801604166676
        },
        {
          "name": "C#5",
          "midi": 73,
          "time": 184.92226949999946,
          "velocity": 0.5039370078740157,
          "duration": 0.2216801604166676
        },
        {
          "name": "A5",
          "midi": 81,
          "time": 185.15664499999946,
          "velocity": 0.5039370078740157,
          "duration": 0.44433688541667493
        },
        {
          "name": "C#5",
          "midi": 73,
          "time": 185.15664499999946,
          "velocity": 0.5039370078740157,
          "duration": 0.2216801604166676
        },
        {
          "name": "C#5",
          "midi": 73,
          "time": 185.39102049999946,
          "velocity": 0.5039370078740157,
          "duration": 0.2216801604166676
        },
        {
          "name": "D5",
          "midi": 74,
          "time": 185.62539599999945,
          "velocity": 0.3858267716535433,
          "duration": 0.44433688541667493
        },
        {
          "name": "C#6",
          "midi": 85,
          "time": 186.09414699999945,
          "velocity": 0.3858267716535433,
          "duration": 0.44433688541667493
        },
        {
          "name": "B5",
          "midi": 83,
          "time": 186.56289799999945,
          "velocity": 0.3858267716535433,
          "duration": 0.44433688541667493
        },
        {
          "name": "A5",
          "midi": 81,
          "time": 187.03164899999945,
          "velocity": 0.3858267716535433,
          "duration": 0.44433688541667493
        },
        {
          "name": "E5",
          "midi": 76,
          "time": 187.50039999999944,
          "velocity": 0.3858267716535433,
          "duration": 7.721696160416627
        },
        {
          "name": "B5",
          "midi": 83,
          "time": 187.73477549999944,
          "velocity": 0.3858267716535433,
          "duration": 0.44433688541667493
        },
        {
          "name": "A5",
          "midi": 81,
          "time": 188.20352649999944,
          "velocity": 0.3858267716535433,
          "duration": 0.2216801604166676
        },
        {
          "name": "G#5",
          "midi": 80,
          "time": 188.43790199999944,
          "velocity": 0.3858267716535433,
          "duration": 0.8896503354166612
        },
        {
          "name": "C#5",
          "midi": 73,
          "time": 189.37540399999943,
          "velocity": 0.3858267716535433,
          "duration": 0.2216801604166676
        },
        {
          "name": "C#5",
          "midi": 73,
          "time": 189.60977949999943,
          "velocity": 0.3858267716535433,
          "duration": 0.2216801604166676
        },
        {
          "name": "C#5",
          "midi": 73,
          "time": 189.84415499999943,
          "velocity": 0.3858267716535433,
          "duration": 0.2216801604166676
        },
        {
          "name": "C#5",
          "midi": 73,
          "time": 190.07853049999943,
          "velocity": 0.3858267716535433,
          "duration": 0.2216801604166676
        },
        {
          "name": "C#5",
          "midi": 73,
          "time": 190.31290599999943,
          "velocity": 0.3858267716535433,
          "duration": 0.2216801604166676
        },
        {
          "name": "B4",
          "midi": 71,
          "time": 190.54728149999943,
          "velocity": 0.3858267716535433,
          "duration": 0.2216801604166676
        },
        {
          "name": "A4",
          "midi": 69,
          "time": 190.78165699999943,
          "velocity": 0.3858267716535433,
          "duration": 0.2216801604166676
        },
        {
          "name": "A4",
          "midi": 69,
          "time": 191.01603249999943,
          "velocity": 0.3858267716535433,
          "duration": 0.2216801604166676
        },
        {
          "name": "C#5",
          "midi": 73,
          "time": 192.42228549999942,
          "velocity": 0.3858267716535433,
          "duration": 0.2216801604166676
        },
        {
          "name": "C#5",
          "midi": 73,
          "time": 192.65666099999942,
          "velocity": 0.3858267716535433,
          "duration": 0.2216801604166676
        },
        {
          "name": "C#5",
          "midi": 73,
          "time": 192.89103649999942,
          "velocity": 0.3858267716535433,
          "duration": 0.2216801604166676
        },
        {
          "name": "D5",
          "midi": 74,
          "time": 193.12541199999941,
          "velocity": 0.3858267716535433,
          "duration": 0.44433688541667493
        },
        {
          "name": "C#6",
          "midi": 85,
          "time": 193.5941629999994,
          "velocity": 0.3858267716535433,
          "duration": 0.44433688541667493
        },
        {
          "name": "B5",
          "midi": 83,
          "time": 194.0629139999994,
          "velocity": 0.3858267716535433,
          "duration": 0.44433688541667493
        },
        {
          "name": "A5",
          "midi": 81,
          "time": 194.5316649999994,
          "velocity": 0.3858267716535433,
          "duration": 0.44433688541667493
        },
        {
          "name": "E5",
          "midi": 76,
          "time": 195.0004159999994,
          "velocity": 0.3858267716535433,
          "duration": 0
        },
        {
          "name": "B5",
          "midi": 83,
          "time": 195.2347914999994,
          "velocity": 0.3858267716535433,
          "duration": 0.44433688541667493
        },
        {
          "name": "A5",
          "midi": 81,
          "time": 195.7035424999994,
          "velocity": 0.3858267716535433,
          "duration": 0.2216801604166676
        },
        {
          "name": "G#5",
          "midi": 80,
          "time": 195.9379179999994,
          "velocity": 0.3858267716535433,
          "duration": 0.8896503354166612
        },
        {
          "name": "C#5",
          "midi": 73,
          "time": 196.8754199999994,
          "velocity": 0.3858267716535433,
          "duration": 0.2216801604166676
        },
        {
          "name": "C#5",
          "midi": 73,
          "time": 197.1097954999994,
          "velocity": 0.3858267716535433,
          "duration": 0.2216801604166676
        },
        {
          "name": "C#5",
          "midi": 73,
          "time": 197.3441709999994,
          "velocity": 0.3858267716535433,
          "duration": 0.2216801604166676
        },
        {
          "name": "C#5",
          "midi": 73,
          "time": 197.5785464999994,
          "velocity": 0.3858267716535433,
          "duration": 0.2216801604166676
        },
        {
          "name": "C#5",
          "midi": 73,
          "time": 197.8129219999994,
          "velocity": 0.3858267716535433,
          "duration": 0.2216801604166676
        },
        {
          "name": "B4",
          "midi": 71,
          "time": 198.0472974999994,
          "velocity": 0.3858267716535433,
          "duration": 0.2216801604166676
        },
        {
          "name": "A4",
          "midi": 69,
          "time": 198.2816729999994,
          "velocity": 0.3858267716535433,
          "duration": 0.2216801604166676
        },
        {
          "name": "A4",
          "midi": 69,
          "time": 198.51604849999939,
          "velocity": 0.3858267716535433,
          "duration": 2.0029339604166694
        }
      ]
    },
    {
      "instrument_number": -1,
      "notes": [
        {
          "name": "D3",
          "midi": 50,
          "time": 1.875004,
          "velocity": 0.5039370078740157,
          "duration": 3.5615310354166665
        },
        {
          "name": "D4",
          "midi": 62,
          "time": 1.875004,
          "velocity": 0.5039370078740157,
          "duration": 3.5615310354166665
        },
        {
          "name": "F#3",
          "midi": 54,
          "time": 5.625012,
          "velocity": 0.5039370078740157,
          "duration": 3.5615310354166656
        },
        {
          "name": "F#4",
          "midi": 66,
          "time": 5.625012,
          "velocity": 0.5039370078740157,
          "duration": 3.5615310354166656
        },
        {
          "name": "D3",
          "midi": 50,
          "time": 9.37502,
          "velocity": 0.5039370078740157,
          "duration": 3.5615310354166674
        },
        {
          "name": "D4",
          "midi": 62,
          "time": 9.37502,
          "velocity": 0.5039370078740157,
          "duration": 3.5615310354166674
        },
        {
          "name": "F#3",
          "midi": 54,
          "time": 13.125028,
          "velocity": 0.5039370078740157,
          "duration": 3.5615310354166674
        },
        {
          "name": "F#4",
          "midi": 66,
          "time": 13.125028,
          "velocity": 0.5039370078740157,
          "duration": 3.5615310354166674
        },
        {
          "name": "D3",
          "midi": 50,
          "time": 16.875036,
          "velocity": 0.5039370078740157,
          "duration": 3.5615310354166674
        },
        {
          "name": "D4",
          "midi": 62,
          "time": 16.875036,
          "velocity": 0.5039370078740157,
          "duration": 3.5615310354166674
        },
        {
          "name": "F#3",
          "midi": 54,
          "time": 20.625044000000003,
          "velocity": 0.5039370078740157,
          "duration": 3.5615310354166674
        },
        {
          "name": "F#4",
          "midi": 66,
          "time": 20.625044000000003,
          "velocity": 0.5039370078740157,
          "duration": 3.5615310354166674
        },
        {
          "name": "D3",
          "midi": 50,
          "time": 24.375052000000004,
          "velocity": 0.5039370078740157,
          "duration": 3.5615310354166674
        },
        {
          "name": "D4",
          "midi": 62,
          "time": 24.375052000000004,
          "velocity": 0.5039370078740157,
          "duration": 3.5615310354166674
        },
        {
          "name": "E3",
          "midi": 52,
          "time": 28.125060000000005,
          "velocity": 0.5039370078740157,
          "duration": 3.5615310354166674
        },
        {
          "name": "E4",
          "midi": 64,
          "time": 28.125060000000005,
          "velocity": 0.5039370078740157,
          "duration": 3.5615310354166674
        },
        {
          "name": "D3",
          "midi": 50,
          "time": 31.875068000000006,
          "velocity": 0.5039370078740157,
          "duration": 1.7802772354166763
        },
        {
          "name": "A3",
          "midi": 57,
          "time": 31.875068000000006,
          "velocity": 0.5039370078740157,
          "duration": 0.666993610416668
        },
        {
          "name": "D4",
          "midi": 62,
          "time": 31.875068000000006,
          "velocity": 0.5039370078740157,
          "duration": 0.666993610416668
        },
        {
          "name": "A3",
          "midi": 57,
          "time": 32.57819450000001,
          "velocity": 0.5039370078740157,
          "duration": 0.666993610416668
        },
        {
          "name": "D4",
          "midi": 62,
          "time": 32.57819450000001,
          "velocity": 0.5039370078740157,
          "duration": 0.666993610416668
        },
        {
          "name": "A3",
          "midi": 57,
          "time": 33.28132100000001,
          "velocity": 0.5039370078740157,
          "duration": 0.4443368854166678
        },
        {
          "name": "D4",
          "midi": 62,
          "time": 33.28132100000001,
          "velocity": 0.5039370078740157,
          "duration": 0.4443368854166678
        },
        {
          "name": "E3",
          "midi": 52,
          "time": 33.75007200000002,
          "velocity": 0.5039370078740157,
          "duration": 1.7802772354166763
        },
        {
          "name": "B3",
          "midi": 59,
          "time": 33.75007200000002,
          "velocity": 0.5039370078740157,
          "duration": 0.666993610416668
        },
        {
          "name": "E4",
          "midi": 64,
          "time": 33.75007200000002,
          "velocity": 0.5039370078740157,
          "duration": 0.666993610416668
        },
        {
          "name": "B3",
          "midi": 59,
          "time": 34.45319850000002,
          "velocity": 0.5039370078740157,
          "duration": 0.666993610416668
        },
        {
          "name": "E4",
          "midi": 64,
          "time": 34.45319850000002,
          "velocity": 0.5039370078740157,
          "duration": 0.666993610416668
        },
        {
          "name": "B3",
          "midi": 59,
          "time": 35.156325000000024,
          "velocity": 0.5039370078740157,
          "duration": 0.4443368854166678
        },
        {
          "name": "E4",
          "midi": 64,
          "time": 35.156325000000024,
          "velocity": 0.5039370078740157,
          "duration": 0.4443368854166678
        },
        {
          "name": "C#3",
          "midi": 49,
          "time": 35.62507600000003,
          "velocity": 0.5039370078740157,
          "duration": 1.7802772354166763
        },
        {
          "name": "G#3",
          "midi": 56,
          "time": 35.62507600000003,
          "velocity": 0.5039370078740157,
          "duration": 0.666993610416668
        },
        {
          "name": "C#4",
          "midi": 61,
          "time": 35.62507600000003,
          "velocity": 0.5039370078740157,
          "duration": 0.666993610416668
        },
        {
          "name": "G#3",
          "midi": 56,
          "time": 36.32820250000003,
          "velocity": 0.5039370078740157,
          "duration": 0.666993610416668
        },
        {
          "name": "C#4",
          "midi": 61,
          "time": 36.32820250000003,
          "velocity": 0.5039370078740157,
          "duration": 0.666993610416668
        },
        {
          "name": "G#3",
          "midi": 56,
          "time": 37.031329000000035,
          "velocity": 0.5039370078740157,
          "duration": 0.4443368854166678
        },
        {
          "name": "C#4",
          "midi": 61,
          "time": 37.031329000000035,
          "velocity": 0.5039370078740157,
          "duration": 0.4443368854166678
        },
        {
          "name": "F#3",
          "midi": 54,
          "time": 37.50008000000004,
          "velocity": 0.5039370078740157,
          "duration": 1.7802772354166763
        },
        {
          "name": "C#4",
          "midi": 61,
          "time": 37.50008000000004,
          "velocity": 0.5039370078740157,
          "duration": 0.666993610416668
        },
        {
          "name": "F#4",
          "midi": 66,
          "time": 37.50008000000004,
          "velocity": 0.5039370078740157,
          "duration": 0.666993610416668
        },
        {
          "name": "C#4",
          "midi": 61,
          "time": 38.20320650000004,
          "velocity": 0.5039370078740157,
          "duration": 0.666993610416668
        },
        {
          "name": "F#4",
          "midi": 66,
          "time": 38.20320650000004,
          "velocity": 0.5039370078740157,
          "duration": 0.666993610416668
        },
        {
          "name": "C#4",
          "midi": 61,
          "time": 38.906333000000046,
          "velocity": 0.5039370078740157,
          "duration": 0.4443368854166678
        },
        {
          "name": "F#4",
          "midi": 66,
          "time": 38.906333000000046,
          "velocity": 0.5039370078740157,
          "duration": 0.4443368854166678
        },
        {
          "name": "D3",
          "midi": 50,
          "time": 39.37508400000005,
          "velocity": 0.5039370078740157,
          "duration": 1.7802772354166763
        },
        {
          "name": "A3",
          "midi": 57,
          "time": 39.37508400000005,
          "velocity": 0.5039370078740157,
          "duration": 0.666993610416668
        },
        {
          "name": "D4",
          "midi": 62,
          "time": 39.37508400000005,
          "velocity": 0.5039370078740157,
          "duration": 0.666993610416668
        },
        {
          "name": "A3",
          "midi": 57,
          "time": 40.078210500000054,
          "velocity": 0.5039370078740157,
          "duration": 0.666993610416668
        },
        {
          "name": "D4",
          "midi": 62,
          "time": 40.078210500000054,
          "velocity": 0.5039370078740157,
          "duration": 0.666993610416668
        },
        {
          "name": "A3",
          "midi": 57,
          "time": 40.78133700000006,
          "velocity": 0.5039370078740157,
          "duration": 0.4443368854166678
        },
        {
          "name": "D4",
          "midi": 62,
          "time": 40.78133700000006,
          "velocity": 0.5039370078740157,
          "duration": 0.4443368854166678
        },
        {
          "name": "E3",
          "midi": 52,
          "time": 41.25008800000006,
          "velocity": 0.5039370078740157,
          "duration": 1.7802772354166763
        },
        {
          "name": "B3",
          "midi": 59,
          "time": 41.25008800000006,
          "velocity": 0.5039370078740157,
          "duration": 0.666993610416668
        },
        {
          "name": "E4",
          "midi": 64,
          "time": 41.25008800000006,
          "velocity": 0.5039370078740157,
          "duration": 0.666993610416668
        },
        {
          "name": "B3",
          "midi": 59,
          "time": 41.953214500000065,
          "velocity": 0.5039370078740157,
          "duration": 0.666993610416668
        },
        {
          "name": "E4",
          "midi": 64,
          "time": 41.953214500000065,
          "velocity": 0.5039370078740157,
          "duration": 0.666993610416668
        },
        {
          "name": "B3",
          "midi": 59,
          "time": 42.65634100000007,
          "velocity": 0.5039370078740157,
          "duration": 0.4443368854166678
        },
        {
          "name": "E4",
          "midi": 64,
          "time": 42.65634100000007,
          "velocity": 0.5039370078740157,
          "duration": 0.4443368854166678
        },
        {
          "name": "C#3",
          "midi": 49,
          "time": 43.12509200000007,
          "velocity": 0.5039370078740157,
          "duration": 1.7802772354166763
        },
        {
          "name": "G#3",
          "midi": 56,
          "time": 43.12509200000007,
          "velocity": 0.5039370078740157,
          "duration": 0.666993610416668
        },
        {
          "name": "C#4",
          "midi": 61,
          "time": 43.12509200000007,
          "velocity": 0.5039370078740157,
          "duration": 0.666993610416668
        },
        {
          "name": "G#3",
          "midi": 56,
          "time": 43.82821850000008,
          "velocity": 0.5039370078740157,
          "duration": 0.666993610416668
        },
        {
          "name": "C#4",
          "midi": 61,
          "time": 43.82821850000008,
          "velocity": 0.5039370078740157,
          "duration": 0.666993610416668
        },
        {
          "name": "G#3",
          "midi": 56,
          "time": 44.53134500000008,
          "velocity": 0.5039370078740157,
          "duration": 0.4443368854166678
        },
        {
          "name": "C#4",
          "midi": 61,
          "time": 44.53134500000008,
          "velocity": 0.5039370078740157,
          "duration": 0.4443368854166678
        },
        {
          "name": "F#3",
          "midi": 54,
          "time": 45.000096000000084,
          "velocity": 0.5039370078740157,
          "duration": 1.7802772354166763
        },
        {
          "name": "C#4",
          "midi": 61,
          "time": 45.000096000000084,
          "velocity": 0.5039370078740157,
          "duration": 0.666993610416668
        },
        {
          "name": "F#4",
          "midi": 66,
          "time": 45.000096000000084,
          "velocity": 0.5039370078740157,
          "duration": 0.666993610416668
        },
        {
          "name": "C#4",
          "midi": 61,
          "time": 45.70322250000009,
          "velocity": 0.5039370078740157,
          "duration": 0.666993610416668
        },
        {
          "name": "F#4",
          "midi": 66,
          "time": 45.70322250000009,
          "velocity": 0.5039370078740157,
          "duration": 0.666993610416668
        },
        {
          "name": "C#4",
          "midi": 61,
          "time": 46.40634900000009,
          "velocity": 0.5039370078740157,
          "duration": 0.4443368854166678
        },
        {
          "name": "F#4",
          "midi": 66,
          "time": 46.40634900000009,
          "velocity": 0.5039370078740157,
          "duration": 0.4443368854166678
        },
        {
          "name": "F#3",
          "midi": 54,
          "time": 46.875100000000096,
          "velocity": 0.5039370078740157,
          "duration": 0.2216801604166676
        },
        {
          "name": "A3",
          "midi": 57,
          "time": 46.875100000000096,
          "velocity": 0.5039370078740157,
          "duration": 0.2216801604166676
        },
        {
          "name": "D3",
          "midi": 50,
          "time": 47.109475500000094,
          "velocity": 0.5039370078740157,
          "duration": 0.2216801604166676
        },
        {
          "name": "F#3",
          "midi": 54,
          "time": 47.34385100000009,
          "velocity": 0.5039370078740157,
          "duration": 0.2216801604166676
        },
        {
          "name": "A3",
          "midi": 57,
          "time": 47.34385100000009,
          "velocity": 0.5039370078740157,
          "duration": 0.2216801604166676
        },
        {
          "name": "D3",
          "midi": 50,
          "time": 47.57822650000009,
          "velocity": 0.5039370078740157,
          "duration": 0.2216801604166676
        },
        {
          "name": "F#3",
          "midi": 54,
          "time": 47.81260200000009,
          "velocity": 0.5039370078740157,
          "duration": 0.2216801604166676
        },
        {
          "name": "A3",
          "midi": 57,
          "time": 47.81260200000009,
          "velocity": 0.5039370078740157,
          "duration": 0.2216801604166676
        },
        {
          "name": "D3",
          "midi": 50,
          "time": 48.04697750000009,
          "velocity": 0.5039370078740157,
          "duration": 0.2216801604166676
        },
        {
          "name": "F#3",
          "midi": 54,
          "time": 48.28135300000009,
          "velocity": 0.5039370078740157,
          "duration": 0.2216801604166676
        },
        {
          "name": "A3",
          "midi": 57,
          "time": 48.28135300000009,
          "velocity": 0.5039370078740157,
          "duration": 0.2216801604166676
        },
        {
          "name": "D3",
          "midi": 50,
          "time": 48.51572850000009,
          "velocity": 0.5039370078740157,
          "duration": 0.2216801604166676
        },
        {
          "name": "G#3",
          "midi": 56,
          "time": 48.750104000000086,
          "velocity": 0.5039370078740157,
          "duration": 0.2216801604166676
        },
        {
          "name": "B3",
          "midi": 59,
          "time": 48.750104000000086,
          "velocity": 0.5039370078740157,
          "duration": 0.2216801604166676
        },
        {
          "name": "E3",
          "midi": 52,
          "time": 48.984479500000084,
          "velocity": 0.5039370078740157,
          "duration": 0.2216801604166676
        },
        {
          "name": "G#3",
          "midi": 56,
          "time": 49.21885500000008,
          "velocity": 0.5039370078740157,
          "duration": 0.2216801604166676
        },
        {
          "name": "B3",
          "midi": 59,
          "time": 49.21885500000008,
          "velocity": 0.5039370078740157,
          "duration": 0.2216801604166676
        },
        {
          "name": "E3",
          "midi": 52,
          "time": 49.45323050000008,
          "velocity": 0.5039370078740157,
          "duration": 0.2216801604166676
        },
        {
          "name": "G#3",
          "midi": 56,
          "time": 49.68760600000008,
          "velocity": 0.5039370078740157,
          "duration": 0.2216801604166676
        },
        {
          "name": "B3",
          "midi": 59,
          "time": 49.68760600000008,
          "velocity": 0.5039370078740157,
          "duration": 0.2216801604166676
        },
        {
          "name": "E3",
          "midi": 52,
          "time": 49.92198150000008,
          "velocity": 0.5039370078740157,
          "duration": 0.2216801604166676
        },
        {
          "name": "G#3",
          "midi": 56,
          "time": 50.15635700000008,
          "velocity": 0.5039370078740157,
          "duration": 0.2216801604166676
        },
        {
          "name": "B3",
          "midi": 59,
          "time": 50.15635700000008,
          "velocity": 0.5039370078740157,
          "duration": 0.2216801604166676
        },
        {
          "name": "E3",
          "midi": 52,
          "time": 50.39073250000008,
          "velocity": 0.5039370078740157,
          "duration": 0.2216801604166676
        },
        {
          "name": "G#3",
          "midi": 56,
          "time": 50.625108000000075,
          "velocity": 0.5039370078740157,
          "duration": 0.2216801604166676
        },
        {
          "name": "B3",
          "midi": 59,
          "time": 50.625108000000075,
          "velocity": 0.5039370078740157,
          "duration": 0.2216801604166676
        },
        {
          "name": "C#3",
          "midi": 49,
          "time": 50.859483500000074,
          "velocity": 0.5039370078740157,
          "duration": 0.2216801604166676
        },
        {
          "name": "G#3",
          "midi": 56,
          "time": 51.09385900000007,
          "velocity": 0.5039370078740157,
          "duration": 0.2216801604166676
        },
        {
          "name": "B3",
          "midi": 59,
          "time": 51.09385900000007,
          "velocity": 0.5039370078740157,
          "duration": 0.2216801604166676
        },
        {
          "name": "C#3",
          "midi": 49,
          "time": 51.32823450000007,
          "velocity": 0.5039370078740157,
          "duration": 0.2216801604166676
        },
        {
          "name": "G#3",
          "midi": 56,
          "time": 51.56261000000007,
          "velocity": 0.5039370078740157,
          "duration": 0.2216801604166676
        },
        {
          "name": "B3",
          "midi": 59,
          "time": 51.56261000000007,
          "velocity": 0.5039370078740157,
          "duration": 0.2216801604166676
        },
        {
          "name": "C#3",
          "midi": 49,
          "time": 51.79698550000007,
          "velocity": 0.5039370078740157,
          "duration": 0.2216801604166676
        },
        {
          "name": "G#3",
          "midi": 56,
          "time": 52.03136100000007,
          "velocity": 0.5039370078740157,
          "duration": 0.2216801604166676
        },
        {
          "name": "B3",
          "midi": 59,
          "time": 52.03136100000007,
          "velocity": 0.5039370078740157,
          "duration": 0.2216801604166676
        },
        {
          "name": "C#3",
          "midi": 49,
          "time": 52.26573650000007,
          "velocity": 0.5039370078740157,
          "duration": 0.2216801604166676
        },
        {
          "name": "F#3",
          "midi": 54,
          "time": 52.500112000000065,
          "velocity": 0.5039370078740157,
          "duration": 0.2216801604166676
        },
        {
          "name": "A3",
          "midi": 57,
          "time": 52.500112000000065,
          "velocity": 0.5039370078740157,
          "duration": 0.2216801604166676
        },
        {
          "name": "C#3",
          "midi": 49,
          "time": 52.734487500000064,
          "velocity": 0.5039370078740157,
          "duration": 0.2216801604166676
        },
        {
          "name": "F#3",
          "midi": 54,
          "time": 52.96886300000006,
          "velocity": 0.5039370078740157,
          "duration": 0.2216801604166676
        },
        {
          "name": "A3",
          "midi": 57,
          "time": 52.96886300000006,
          "velocity": 0.5039370078740157,
          "duration": 0.2216801604166676
        },
        {
          "name": "C#3",
          "midi": 49,
          "time": 53.20323850000006,
          "velocity": 0.5039370078740157,
          "duration": 0.2216801604166676
        },
        {
          "name": "F#3",
          "midi": 54,
          "time": 53.43761400000006,
          "velocity": 0.5039370078740157,
          "duration": 0.2216801604166676
        },
        {
          "name": "A3",
          "midi": 57,
          "time": 53.43761400000006,
          "velocity": 0.5039370078740157,
          "duration": 0.2216801604166676
        },
        {
          "name": "C#3",
          "midi": 49,
          "time": 53.67198950000006,
          "velocity": 0.5039370078740157,
          "duration": 0.2216801604166676
        },
        {
          "name": "F#3",
          "midi": 54,
          "time": 53.90636500000006,
          "velocity": 0.5039370078740157,
          "duration": 0.2216801604166676
        },
        {
          "name": "A3",
          "midi": 57,
          "time": 53.90636500000006,
          "velocity": 0.5039370078740157,
          "duration": 0.2216801604166676
        },
        {
          "name": "C#3",
          "midi": 49,
          "time": 54.14074050000006,
          "velocity": 0.5039370078740157,
          "duration": 0.2216801604166676
        },
        {
          "name": "D3",
          "midi": 50,
          "time": 54.375116000000055,
          "velocity": 0.5039370078740157,
          "duration": 1.3349637854166687
        },
        {
          "name": "A3",
          "midi": 57,
          "time": 54.375116000000055,
          "velocity": 0.5039370078740157,
          "duration": 0.666993610416668
        },
        {
          "name": "D4",
          "midi": 62,
          "time": 54.375116000000055,
          "velocity": 0.5039370078740157,
          "duration": 0.666993610416668
        },
        {
          "name": "A3",
          "midi": 57,
          "time": 55.07824250000006,
          "velocity": 0.5039370078740157,
          "duration": 0.666993610416668
        },
        {
          "name": "D4",
          "midi": 62,
          "time": 55.07824250000006,
          "velocity": 0.5039370078740157,
          "duration": 0.666993610416668
        },
        {
          "name": "D3",
          "midi": 50,
          "time": 55.78136900000006,
          "velocity": 0.5039370078740157,
          "duration": 0.4443368854166678
        },
        {
          "name": "A3",
          "midi": 57,
          "time": 55.78136900000006,
          "velocity": 0.5039370078740157,
          "duration": 0.4443368854166678
        },
        {
          "name": "D4",
          "midi": 62,
          "time": 55.78136900000006,
          "velocity": 0.5039370078740157,
          "duration": 0.4443368854166678
        },
        {
          "name": "D3",
          "midi": 50,
          "time": 56.25012000000007,
          "velocity": 0.5039370078740157,
          "duration": 1.3349637854166687
        },
        {
          "name": "A3",
          "midi": 57,
          "time": 56.25012000000007,
          "velocity": 0.5039370078740157,
          "duration": 0.666993610416668
        },
        {
          "name": "D4",
          "midi": 62,
          "time": 56.25012000000007,
          "velocity": 0.5039370078740157,
          "duration": 0.666993610416668
        },
        {
          "name": "A3",
          "midi": 57,
          "time": 56.95324650000007,
          "velocity": 0.5039370078740157,
          "duration": 0.666993610416668
        },
        {
          "name": "D4",
          "midi": 62,
          "time": 56.95324650000007,
          "velocity": 0.5039370078740157,
          "duration": 0.666993610416668
        },
        {
          "name": "D3",
          "midi": 50,
          "time": 57.65637300000007,
          "velocity": 0.5039370078740157,
          "duration": 0.4443368854166678
        },
        {
          "name": "A3",
          "midi": 57,
          "time": 57.65637300000007,
          "velocity": 0.5039370078740157,
          "duration": 0.4443368854166678
        },
        {
          "name": "D4",
          "midi": 62,
          "time": 57.65637300000007,
          "velocity": 0.5039370078740157,
          "duration": 0.4443368854166678
        },
        {
          "name": "E3",
          "midi": 52,
          "time": 58.12512400000008,
          "velocity": 0.5039370078740157,
          "duration": 0.666993610416668
        },
        {
          "name": "B3",
          "midi": 59,
          "time": 58.12512400000008,
          "velocity": 0.5039370078740157,
          "duration": 0.8896503354166683
        },
        {
          "name": "E4",
          "midi": 64,
          "time": 58.12512400000008,
          "velocity": 0.5039370078740157,
          "duration": 0.8896503354166683
        },
        {
          "name": "E3",
          "midi": 52,
          "time": 58.82825050000008,
          "velocity": 0.5039370078740157,
          "duration": 2.893560860416663
        },
        {
          "name": "B3",
          "midi": 59,
          "time": 59.06262600000008,
          "velocity": 0.5039370078740157,
          "duration": 2.670904135416663
        },
        {
          "name": "E4",
          "midi": 64,
          "time": 59.06262600000008,
          "velocity": 0.5039370078740157,
          "duration": 2.670904135416663
        },
        {
          "name": "E3",
          "midi": 52,
          "time": 61.87513200000008,
          "velocity": 0.5039370078740157,
          "duration": 0.666993610416668
        },
        {
          "name": "B3",
          "midi": 59,
          "time": 61.87513200000008,
          "velocity": 0.5039370078740157,
          "duration": 0.666993610416668
        },
        {
          "name": "E4",
          "midi": 64,
          "time": 61.87513200000008,
          "velocity": 0.5039370078740157,
          "duration": 0.666993610416668
        },
        {
          "name": "E3",
          "midi": 52,
          "time": 62.57825850000008,
          "velocity": 0.5984251968503937,
          "duration": 0.2216801604166676
        },
        {
          "name": "B3",
          "midi": 59,
          "time": 62.81263400000008,
          "velocity": 0.6299212598425197,
          "duration": 0.2216801604166676
        },
        {
          "name": "E4",
          "midi": 64,
          "time": 62.81263400000008,
          "velocity": 0.6299212598425197,
          "duration": 0.2216801604166676
        },
        {
          "name": "E3",
          "midi": 52,
          "time": 63.04700950000008,
          "velocity": 0.6614173228346457,
          "duration": 0.2216801604166676
        },
        {
          "name": "B3",
          "midi": 59,
          "time": 63.28138500000008,
          "velocity": 0.6929133858267716,
          "duration": 0.2216801604166676
        },
        {
          "name": "E4",
          "midi": 64,
          "time": 63.28138500000008,
          "velocity": 0.6929133858267716,
          "duration": 0.2216801604166676
        },
        {
          "name": "G#4",
          "midi": 68,
          "time": 63.28138500000008,
          "velocity": 0.6929133858267716,
          "duration": 0.2216801604166676
        },
        {
          "name": "D3",
          "midi": 50,
          "time": 63.750136000000076,
          "velocity": 0.7559055118110236,
          "duration": 0.4443368854166678
        },
        {
          "name": "A3",
          "midi": 57,
          "time": 64.21888700000008,
          "velocity": 0.7559055118110236,
          "duration": 0.2216801604166676
        },
        {
          "name": "D4",
          "midi": 62,
          "time": 64.21888700000008,
          "velocity": 0.7559055118110236,
          "duration": 0.2216801604166676
        },
        {
          "name": "D3",
          "midi": 50,
          "time": 64.45326250000008,
          "velocity": 0.7559055118110236,
          "duration": 0.2216801604166676
        },
        {
          "name": "D3",
          "midi": 50,
          "time": 64.92201350000008,
          "velocity": 0.7559055118110236,
          "duration": 0.2216801604166676
        },
        {
          "name": "A3",
          "midi": 57,
          "time": 65.15638900000008,
          "velocity": 0.7559055118110236,
          "duration": 0.2216801604166676
        },
        {
          "name": "D4",
          "midi": 62,
          "time": 65.15638900000008,
          "velocity": 0.7559055118110236,
          "duration": 0.2216801604166676
        },
        {
          "name": "D3",
          "midi": 50,
          "time": 65.39076450000007,
          "velocity": 0.7559055118110236,
          "duration": 0.2216801604166676
        },
        {
          "name": "E3",
          "midi": 52,
          "time": 65.62514000000007,
          "velocity": 0.7559055118110236,
          "duration": 0.4443368854166607
        },
        {
          "name": "B3",
          "midi": 59,
          "time": 66.09389100000007,
          "velocity": 0.7559055118110236,
          "duration": 0.2216801604166676
        },
        {
          "name": "E4",
          "midi": 64,
          "time": 66.09389100000007,
          "velocity": 0.7559055118110236,
          "duration": 0.2216801604166676
        },
        {
          "name": "E3",
          "midi": 52,
          "time": 66.32826650000007,
          "velocity": 0.7559055118110236,
          "duration": 0.2216801604166676
        },
        {
          "name": "E3",
          "midi": 52,
          "time": 66.79701750000007,
          "velocity": 0.7559055118110236,
          "duration": 0.2216801604166676
        },
        {
          "name": "E4",
          "midi": 64,
          "time": 67.03139300000007,
          "velocity": 0.7559055118110236,
          "duration": 0.2216801604166676
        },
        {
          "name": "E3",
          "midi": 52,
          "time": 67.26576850000006,
          "velocity": 0.7559055118110236,
          "duration": 0.2216801604166676
        },
        {
          "name": "C#3",
          "midi": 49,
          "time": 67.50014400000006,
          "velocity": 0.7559055118110236,
          "duration": 0.4443368854166607
        },
        {
          "name": "G#3",
          "midi": 56,
          "time": 67.96889500000006,
          "velocity": 0.7559055118110236,
          "duration": 0.2216801604166676
        },
        {
          "name": "C#4",
          "midi": 61,
          "time": 67.96889500000006,
          "velocity": 0.7559055118110236,
          "duration": 0.2216801604166676
        },
        {
          "name": "C#3",
          "midi": 49,
          "time": 68.20327050000006,
          "velocity": 0.7559055118110236,
          "duration": 0.2216801604166676
        },
        {
          "name": "C#3",
          "midi": 49,
          "time": 68.67202150000006,
          "velocity": 0.7559055118110236,
          "duration": 0.2216801604166676
        },
        {
          "name": "G#3",
          "midi": 56,
          "time": 68.90639700000006,
          "velocity": 0.7559055118110236,
          "duration": 0.2216801604166676
        },
        {
          "name": "C#4",
          "midi": 61,
          "time": 68.90639700000006,
          "velocity": 0.7559055118110236,
          "duration": 0.2216801604166676
        },
        {
          "name": "C#3",
          "midi": 49,
          "time": 69.14077250000005,
          "velocity": 0.7559055118110236,
          "duration": 0.2216801604166676
        },
        {
          "name": "F#3",
          "midi": 54,
          "time": 69.37514800000005,
          "velocity": 0.7559055118110236,
          "duration": 0.4443368854166607
        },
        {
          "name": "C#4",
          "midi": 61,
          "time": 69.84389900000005,
          "velocity": 0.7559055118110236,
          "duration": 0.2216801604166676
        },
        {
          "name": "F#4",
          "midi": 66,
          "time": 69.84389900000005,
          "velocity": 0.7559055118110236,
          "duration": 0.2216801604166676
        },
        {
          "name": "F#3",
          "midi": 54,
          "time": 70.07827450000005,
          "velocity": 0.7559055118110236,
          "duration": 0.2216801604166676
        },
        {
          "name": "F#3",
          "midi": 54,
          "time": 70.54702550000005,
          "velocity": 0.7559055118110236,
          "duration": 0.2216801604166676
        },
        {
          "name": "C#4",
          "midi": 61,
          "time": 70.78140100000005,
          "velocity": 0.7559055118110236,
          "duration": 0.2216801604166676
        },
        {
          "name": "F#4",
          "midi": 66,
          "time": 70.78140100000005,
          "velocity": 0.7559055118110236,
          "duration": 0.2216801604166676
        },
        {
          "name": "F#3",
          "midi": 54,
          "time": 71.01577650000004,
          "velocity": 0.7559055118110236,
          "duration": 0.2216801604166676
        },
        {
          "name": "D3",
          "midi": 50,
          "time": 71.25015200000004,
          "velocity": 0.7559055118110236,
          "duration": 0.4443368854166607
        },
        {
          "name": "A3",
          "midi": 57,
          "time": 71.71890300000004,
          "velocity": 0.7559055118110236,
          "duration": 0.2216801604166676
        },
        {
          "name": "D4",
          "midi": 62,
          "time": 71.71890300000004,
          "velocity": 0.7559055118110236,
          "duration": 0.2216801604166676
        },
        {
          "name": "D3",
          "midi": 50,
          "time": 71.95327850000004,
          "velocity": 0.7559055118110236,
          "duration": 0.2216801604166676
        },
        {
          "name": "D3",
          "midi": 50,
          "time": 72.42202950000004,
          "velocity": 0.7559055118110236,
          "duration": 0.2216801604166676
        },
        {
          "name": "A3",
          "midi": 57,
          "time": 72.65640500000003,
          "velocity": 0.7559055118110236,
          "duration": 0.2216801604166676
        },
        {
          "name": "D4",
          "midi": 62,
          "time": 72.65640500000003,
          "velocity": 0.7559055118110236,
          "duration": 0.2216801604166676
        },
        {
          "name": "D3",
          "midi": 50,
          "time": 72.89078050000003,
          "velocity": 0.7559055118110236,
          "duration": 0.2216801604166676
        },
        {
          "name": "E3",
          "midi": 52,
          "time": 73.12515600000003,
          "velocity": 0.7559055118110236,
          "duration": 0.4443368854166607
        },
        {
          "name": "B3",
          "midi": 59,
          "time": 73.59390700000003,
          "velocity": 0.7559055118110236,
          "duration": 0.2216801604166676
        },
        {
          "name": "E4",
          "midi": 64,
          "time": 73.59390700000003,
          "velocity": 0.7559055118110236,
          "duration": 0.2216801604166676
        },
        {
          "name": "E3",
          "midi": 52,
          "time": 73.82828250000003,
          "velocity": 0.7559055118110236,
          "duration": 0.2216801604166676
        },
        {
          "name": "E3",
          "midi": 52,
          "time": 74.29703350000003,
          "velocity": 0.7559055118110236,
          "duration": 0.2216801604166676
        },
        {
          "name": "E4",
          "midi": 64,
          "time": 74.53140900000002,
          "velocity": 0.7559055118110236,
          "duration": 0.2216801604166676
        },
        {
          "name": "E3",
          "midi": 52,
          "time": 74.76578450000002,
          "velocity": 0.7559055118110236,
          "duration": 0.2216801604166676
        },
        {
          "name": "C#3",
          "midi": 49,
          "time": 75.00016000000002,
          "velocity": 0.7559055118110236,
          "duration": 0.4443368854166607
        },
        {
          "name": "G#3",
          "midi": 56,
          "time": 75.46891100000002,
          "velocity": 0.7559055118110236,
          "duration": 0.2216801604166676
        },
        {
          "name": "C#4",
          "midi": 61,
          "time": 75.46891100000002,
          "velocity": 0.7559055118110236,
          "duration": 0.2216801604166676
        },
        {
          "name": "C#3",
          "midi": 49,
          "time": 75.70328650000002,
          "velocity": 0.7559055118110236,
          "duration": 0.2216801604166676
        },
        {
          "name": "C#3",
          "midi": 49,
          "time": 76.17203750000002,
          "velocity": 0.7559055118110236,
          "duration": 0.2216801604166676
        },
        {
          "name": "G#3",
          "midi": 56,
          "time": 76.40641300000001,
          "velocity": 0.7559055118110236,
          "duration": 0.2216801604166676
        },
        {
          "name": "C#4",
          "midi": 61,
          "time": 76.40641300000001,
          "velocity": 0.7559055118110236,
          "duration": 0.2216801604166676
        },
        {
          "name": "C#3",
          "midi": 49,
          "time": 76.64078850000001,
          "velocity": 0.7559055118110236,
          "duration": 0.2216801604166676
        },
        {
          "name": "F#3",
          "midi": 54,
          "time": 76.87516400000001,
          "velocity": 0.7559055118110236,
          "duration": 0.4443368854166607
        },
        {
          "name": "C#4",
          "midi": 61,
          "time": 77.34391500000001,
          "velocity": 0.7559055118110236,
          "duration": 0.2216801604166676
        },
        {
          "name": "F#4",
          "midi": 66,
          "time": 77.34391500000001,
          "velocity": 0.7559055118110236,
          "duration": 0.2216801604166676
        },
        {
          "name": "F#3",
          "midi": 54,
          "time": 77.57829050000001,
          "velocity": 0.7559055118110236,
          "duration": 0.2216801604166676
        },
        {
          "name": "F#3",
          "midi": 54,
          "time": 78.0470415,
          "velocity": 0.7559055118110236,
          "duration": 0.2216801604166676
        },
        {
          "name": "C#4",
          "midi": 61,
          "time": 78.281417,
          "velocity": 0.7559055118110236,
          "duration": 0.2216801604166676
        },
        {
          "name": "F#4",
          "midi": 66,
          "time": 78.281417,
          "velocity": 0.7559055118110236,
          "duration": 0.2216801604166676
        },
        {
          "name": "F#3",
          "midi": 54,
          "time": 78.5157925,
          "velocity": 0.7559055118110236,
          "duration": 0.2216801604166676
        },
        {
          "name": "D3",
          "midi": 50,
          "time": 78.750168,
          "velocity": 0.7559055118110236,
          "duration": 0.4443368854166607
        },
        {
          "name": "A3",
          "midi": 57,
          "time": 79.218919,
          "velocity": 0.7559055118110236,
          "duration": 0.2216801604166676
        },
        {
          "name": "D4",
          "midi": 62,
          "time": 79.218919,
          "velocity": 0.7559055118110236,
          "duration": 0.2216801604166676
        },
        {
          "name": "D3",
          "midi": 50,
          "time": 79.4532945,
          "velocity": 0.7559055118110236,
          "duration": 0.2216801604166676
        },
        {
          "name": "D3",
          "midi": 50,
          "time": 79.9220455,
          "velocity": 0.7559055118110236,
          "duration": 0.2216801604166676
        },
        {
          "name": "A3",
          "midi": 57,
          "time": 80.156421,
          "velocity": 0.7559055118110236,
          "duration": 0.2216801604166676
        },
        {
          "name": "D4",
          "midi": 62,
          "time": 80.156421,
          "velocity": 0.7559055118110236,
          "duration": 0.2216801604166676
        },
        {
          "name": "D3",
          "midi": 50,
          "time": 80.3907965,
          "velocity": 0.7559055118110236,
          "duration": 0.2216801604166676
        },
        {
          "name": "E3",
          "midi": 52,
          "time": 80.62517199999999,
          "velocity": 0.7559055118110236,
          "duration": 0.4443368854166607
        },
        {
          "name": "B3",
          "midi": 59,
          "time": 81.09392299999999,
          "velocity": 0.7559055118110236,
          "duration": 0.2216801604166676
        },
        {
          "name": "E4",
          "midi": 64,
          "time": 81.09392299999999,
          "velocity": 0.7559055118110236,
          "duration": 0.2216801604166676
        },
        {
          "name": "E3",
          "midi": 52,
          "time": 81.32829849999999,
          "velocity": 0.7559055118110236,
          "duration": 0.2216801604166676
        },
        {
          "name": "E3",
          "midi": 52,
          "time": 81.79704949999999,
          "velocity": 0.7559055118110236,
          "duration": 0.2216801604166676
        },
        {
          "name": "E4",
          "midi": 64,
          "time": 82.03142499999998,
          "velocity": 0.7559055118110236,
          "duration": 0.2216801604166676
        },
        {
          "name": "E3",
          "midi": 52,
          "time": 82.26580049999998,
          "velocity": 0.7559055118110236,
          "duration": 0.2216801604166676
        },
        {
          "name": "C#3",
          "midi": 49,
          "time": 82.50017599999998,
          "velocity": 0.7559055118110236,
          "duration": 0.4443368854166607
        },
        {
          "name": "G#3",
          "midi": 56,
          "time": 82.96892699999998,
          "velocity": 0.7559055118110236,
          "duration": 0.2216801604166676
        },
        {
          "name": "C#4",
          "midi": 61,
          "time": 82.96892699999998,
          "velocity": 0.7559055118110236,
          "duration": 0.2216801604166676
        },
        {
          "name": "C#3",
          "midi": 49,
          "time": 83.20330249999998,
          "velocity": 0.7559055118110236,
          "duration": 0.2216801604166676
        },
        {
          "name": "C#3",
          "midi": 49,
          "time": 83.67205349999998,
          "velocity": 0.7559055118110236,
          "duration": 0.2216801604166676
        },
        {
          "name": "G#3",
          "midi": 56,
          "time": 83.90642899999997,
          "velocity": 0.7559055118110236,
          "duration": 0.2216801604166676
        },
        {
          "name": "C#4",
          "midi": 61,
          "time": 83.90642899999997,
          "velocity": 0.7559055118110236,
          "duration": 0.2216801604166676
        },
        {
          "name": "C#3",
          "midi": 49,
          "time": 84.14080449999997,
          "velocity": 0.7559055118110236,
          "duration": 0.2216801604166676
        },
        {
          "name": "F#3",
          "midi": 54,
          "time": 84.37517999999997,
          "velocity": 0.7559055118110236,
          "duration": 0.4443368854166607
        },
        {
          "name": "C#4",
          "midi": 61,
          "time": 84.84393099999997,
          "velocity": 0.7559055118110236,
          "duration": 0.2216801604166676
        },
        {
          "name": "F#4",
          "midi": 66,
          "time": 84.84393099999997,
          "velocity": 0.7559055118110236,
          "duration": 0.2216801604166676
        },
        {
          "name": "F#3",
          "midi": 54,
          "time": 85.07830649999997,
          "velocity": 0.7559055118110236,
          "duration": 0.2216801604166676
        },
        {
          "name": "F#3",
          "midi": 54,
          "time": 85.54705749999997,
          "velocity": 0.7559055118110236,
          "duration": 0.2216801604166676
        },
        {
          "name": "C#4",
          "midi": 61,
          "time": 85.78143299999996,
          "velocity": 0.7559055118110236,
          "duration": 0.2216801604166676
        },
        {
          "name": "F#4",
          "midi": 66,
          "time": 85.78143299999996,
          "velocity": 0.7559055118110236,
          "duration": 0.2216801604166676
        },
        {
          "name": "F#3",
          "midi": 54,
          "time": 86.01580849999996,
          "velocity": 0.7559055118110236,
          "duration": 0.2216801604166676
        },
        {
          "name": "D3",
          "midi": 50,
          "time": 86.25018399999996,
          "velocity": 0.7559055118110236,
          "duration": 0.4443368854166607
        },
        {
          "name": "A3",
          "midi": 57,
          "time": 86.71893499999996,
          "velocity": 0.7559055118110236,
          "duration": 0.2216801604166676
        },
        {
          "name": "D4",
          "midi": 62,
          "time": 86.71893499999996,
          "velocity": 0.7559055118110236,
          "duration": 0.2216801604166676
        },
        {
          "name": "D3",
          "midi": 50,
          "time": 86.95331049999996,
          "velocity": 0.7559055118110236,
          "duration": 0.2216801604166676
        },
        {
          "name": "D3",
          "midi": 50,
          "time": 87.42206149999996,
          "velocity": 0.7559055118110236,
          "duration": 0.2216801604166676
        },
        {
          "name": "A3",
          "midi": 57,
          "time": 87.65643699999995,
          "velocity": 0.7559055118110236,
          "duration": 0.2216801604166676
        },
        {
          "name": "D4",
          "midi": 62,
          "time": 87.65643699999995,
          "velocity": 0.7559055118110236,
          "duration": 0.2216801604166676
        },
        {
          "name": "D3",
          "midi": 50,
          "time": 87.89081249999995,
          "velocity": 0.7559055118110236,
          "duration": 0.2216801604166676
        },
        {
          "name": "E3",
          "midi": 52,
          "time": 88.12518799999995,
          "velocity": 0.7559055118110236,
          "duration": 0.4443368854166607
        },
        {
          "name": "B3",
          "midi": 59,
          "time": 88.59393899999995,
          "velocity": 0.7559055118110236,
          "duration": 0.2216801604166676
        },
        {
          "name": "E4",
          "midi": 64,
          "time": 88.59393899999995,
          "velocity": 0.7559055118110236,
          "duration": 0.2216801604166676
        },
        {
          "name": "E3",
          "midi": 52,
          "time": 88.82831449999995,
          "velocity": 0.7559055118110236,
          "duration": 0.2216801604166676
        },
        {
          "name": "E3",
          "midi": 52,
          "time": 89.29706549999995,
          "velocity": 0.7559055118110236,
          "duration": 0.2216801604166676
        },
        {
          "name": "E4",
          "midi": 64,
          "time": 89.53144099999994,
          "velocity": 0.7559055118110236,
          "duration": 0.2216801604166676
        },
        {
          "name": "E3",
          "midi": 52,
          "time": 89.76581649999994,
          "velocity": 0.7559055118110236,
          "duration": 0.2216801604166676
        },
        {
          "name": "C#3",
          "midi": 49,
          "time": 90.00019199999994,
          "velocity": 0.7559055118110236,
          "duration": 0.4443368854166607
        },
        {
          "name": "G#3",
          "midi": 56,
          "time": 90.46894299999994,
          "velocity": 0.7559055118110236,
          "duration": 0.2216801604166676
        },
        {
          "name": "C#4",
          "midi": 61,
          "time": 90.46894299999994,
          "velocity": 0.7559055118110236,
          "duration": 0.2216801604166676
        },
        {
          "name": "C#3",
          "midi": 49,
          "time": 90.70331849999994,
          "velocity": 0.7559055118110236,
          "duration": 0.2216801604166676
        },
        {
          "name": "C#3",
          "midi": 49,
          "time": 91.17206949999994,
          "velocity": 0.7559055118110236,
          "duration": 0.2216801604166676
        },
        {
          "name": "G#3",
          "midi": 56,
          "time": 91.40644499999993,
          "velocity": 0.7559055118110236,
          "duration": 0.2216801604166676
        },
        {
          "name": "C#4",
          "midi": 61,
          "time": 91.40644499999993,
          "velocity": 0.7559055118110236,
          "duration": 0.2216801604166676
        },
        {
          "name": "C#3",
          "midi": 49,
          "time": 91.64082049999993,
          "velocity": 0.7559055118110236,
          "duration": 0.2216801604166676
        },
        {
          "name": "F#3",
          "midi": 54,
          "time": 91.87519599999993,
          "velocity": 0.7559055118110236,
          "duration": 0.4443368854166607
        },
        {
          "name": "C#4",
          "midi": 61,
          "time": 92.34394699999993,
          "velocity": 0.7559055118110236,
          "duration": 0.2216801604166676
        },
        {
          "name": "F#4",
          "midi": 66,
          "time": 92.34394699999993,
          "velocity": 0.7559055118110236,
          "duration": 0.2216801604166676
        },
        {
          "name": "F#3",
          "midi": 54,
          "time": 92.57832249999993,
          "velocity": 0.7559055118110236,
          "duration": 0.2216801604166676
        },
        {
          "name": "F#3",
          "midi": 54,
          "time": 93.04707349999993,
          "velocity": 0.7559055118110236,
          "duration": 0.2216801604166676
        },
        {
          "name": "C#4",
          "midi": 61,
          "time": 93.28144899999992,
          "velocity": 0.7559055118110236,
          "duration": 0.2216801604166676
        },
        {
          "name": "F#4",
          "midi": 66,
          "time": 93.28144899999992,
          "velocity": 0.7559055118110236,
          "duration": 0.2216801604166676
        },
        {
          "name": "F#3",
          "midi": 54,
          "time": 93.51582449999992,
          "velocity": 0.7559055118110236,
          "duration": 0.2216801604166676
        },
        {
          "name": "D3",
          "midi": 50,
          "time": 93.75019999999992,
          "velocity": 0.5039370078740157,
          "duration": 1.780277235416662
        },
        {
          "name": "A3",
          "midi": 57,
          "time": 93.75019999999992,
          "velocity": 0.5039370078740157,
          "duration": 0.666993610416668
        },
        {
          "name": "D4",
          "midi": 62,
          "time": 93.75019999999992,
          "velocity": 0.5039370078740157,
          "duration": 0.666993610416668
        },
        {
          "name": "A3",
          "midi": 57,
          "time": 94.45332649999992,
          "velocity": 0.5039370078740157,
          "duration": 0.666993610416668
        },
        {
          "name": "D4",
          "midi": 62,
          "time": 94.45332649999992,
          "velocity": 0.5039370078740157,
          "duration": 0.666993610416668
        },
        {
          "name": "A3",
          "midi": 57,
          "time": 95.15645299999991,
          "velocity": 0.5039370078740157,
          "duration": 0.44433688541667493
        },
        {
          "name": "D4",
          "midi": 62,
          "time": 95.15645299999991,
          "velocity": 0.5039370078740157,
          "duration": 0.44433688541667493
        },
        {
          "name": "D3",
          "midi": 50,
          "time": 95.62520399999993,
          "velocity": 0.5039370078740157,
          "duration": 1.780277235416662
        },
        {
          "name": "A3",
          "midi": 57,
          "time": 95.62520399999993,
          "velocity": 0.5039370078740157,
          "duration": 0.666993610416668
        },
        {
          "name": "D4",
          "midi": 62,
          "time": 95.62520399999993,
          "velocity": 0.5039370078740157,
          "duration": 0.666993610416668
        },
        {
          "name": "A3",
          "midi": 57,
          "time": 96.32833049999992,
          "velocity": 0.5039370078740157,
          "duration": 0.666993610416668
        },
        {
          "name": "D4",
          "midi": 62,
          "time": 96.32833049999992,
          "velocity": 0.5039370078740157,
          "duration": 0.666993610416668
        },
        {
          "name": "A3",
          "midi": 57,
          "time": 97.03145699999992,
          "velocity": 0.5039370078740157,
          "duration": 0.44433688541667493
        },
        {
          "name": "D4",
          "midi": 62,
          "time": 97.03145699999992,
          "velocity": 0.5039370078740157,
          "duration": 0.44433688541667493
        },
        {
          "name": "F#3",
          "midi": 54,
          "time": 97.50020799999993,
          "velocity": 0.5039370078740157,
          "duration": 1.780277235416662
        },
        {
          "name": "C#4",
          "midi": 61,
          "time": 97.50020799999993,
          "velocity": 0.5039370078740157,
          "duration": 0.666993610416668
        },
        {
          "name": "F#4",
          "midi": 66,
          "time": 97.50020799999993,
          "velocity": 0.5039370078740157,
          "duration": 0.666993610416668
        },
        {
          "name": "C#4",
          "midi": 61,
          "time": 98.20333449999993,
          "velocity": 0.5039370078740157,
          "duration": 0.666993610416668
        },
        {
          "name": "F#4",
          "midi": 66,
          "time": 98.20333449999993,
          "velocity": 0.5039370078740157,
          "duration": 0.666993610416668
        },
        {
          "name": "C#4",
          "midi": 61,
          "time": 98.90646099999992,
          "velocity": 0.5039370078740157,
          "duration": 0.44433688541667493
        },
        {
          "name": "F#4",
          "midi": 66,
          "time": 98.90646099999992,
          "velocity": 0.5039370078740157,
          "duration": 0.44433688541667493
        },
        {
          "name": "F#3",
          "midi": 54,
          "time": 99.37521199999993,
          "velocity": 0.5039370078740157,
          "duration": 1.780277235416662
        },
        {
          "name": "C#4",
          "midi": 61,
          "time": 99.37521199999993,
          "velocity": 0.5039370078740157,
          "duration": 0.666993610416668
        },
        {
          "name": "F#4",
          "midi": 66,
          "time": 99.37521199999993,
          "velocity": 0.5039370078740157,
          "duration": 0.666993610416668
        },
        {
          "name": "C#4",
          "midi": 61,
          "time": 100.07833849999993,
          "velocity": 0.5039370078740157,
          "duration": 0.666993610416668
        },
        {
          "name": "F#4",
          "midi": 66,
          "time": 100.07833849999993,
          "velocity": 0.5039370078740157,
          "duration": 0.666993610416668
        },
        {
          "name": "C#4",
          "midi": 61,
          "time": 100.78146499999993,
          "velocity": 0.5039370078740157,
          "duration": 0.44433688541667493
        },
        {
          "name": "F#4",
          "midi": 66,
          "time": 100.78146499999993,
          "velocity": 0.5039370078740157,
          "duration": 0.44433688541667493
        },
        {
          "name": "D3",
          "midi": 50,
          "time": 101.25021599999994,
          "velocity": 0.5039370078740157,
          "duration": 1.780277235416662
        },
        {
          "name": "A3",
          "midi": 57,
          "time": 101.25021599999994,
          "velocity": 0.5039370078740157,
          "duration": 0.666993610416668
        },
        {
          "name": "D4",
          "midi": 62,
          "time": 101.25021599999994,
          "velocity": 0.5039370078740157,
          "duration": 0.666993610416668
        },
        {
          "name": "A3",
          "midi": 57,
          "time": 101.95334249999993,
          "velocity": 0.5039370078740157,
          "duration": 0.666993610416668
        },
        {
          "name": "D4",
          "midi": 62,
          "time": 101.95334249999993,
          "velocity": 0.5039370078740157,
          "duration": 0.666993610416668
        },
        {
          "name": "A3",
          "midi": 57,
          "time": 102.65646899999993,
          "velocity": 0.5039370078740157,
          "duration": 0.44433688541667493
        },
        {
          "name": "D4",
          "midi": 62,
          "time": 102.65646899999993,
          "velocity": 0.5039370078740157,
          "duration": 0.44433688541667493
        },
        {
          "name": "D3",
          "midi": 50,
          "time": 103.12521999999994,
          "velocity": 0.5039370078740157,
          "duration": 1.780277235416662
        },
        {
          "name": "A3",
          "midi": 57,
          "time": 103.12521999999994,
          "velocity": 0.5039370078740157,
          "duration": 0.666993610416668
        },
        {
          "name": "D4",
          "midi": 62,
          "time": 103.12521999999994,
          "velocity": 0.5039370078740157,
          "duration": 0.666993610416668
        },
        {
          "name": "A3",
          "midi": 57,
          "time": 103.82834649999994,
          "velocity": 0.5039370078740157,
          "duration": 0.666993610416668
        },
        {
          "name": "D4",
          "midi": 62,
          "time": 103.82834649999994,
          "velocity": 0.5039370078740157,
          "duration": 0.666993610416668
        },
        {
          "name": "A3",
          "midi": 57,
          "time": 104.53147299999993,
          "velocity": 0.5039370078740157,
          "duration": 0.44433688541667493
        },
        {
          "name": "D4",
          "midi": 62,
          "time": 104.53147299999993,
          "velocity": 0.5039370078740157,
          "duration": 0.44433688541667493
        },
        {
          "name": "F#3",
          "midi": 54,
          "time": 105.00022399999995,
          "velocity": 0.5039370078740157,
          "duration": 1.780277235416662
        },
        {
          "name": "C#4",
          "midi": 61,
          "time": 105.00022399999995,
          "velocity": 0.5039370078740157,
          "duration": 0.666993610416668
        },
        {
          "name": "F#4",
          "midi": 66,
          "time": 105.00022399999995,
          "velocity": 0.5039370078740157,
          "duration": 0.666993610416668
        },
        {
          "name": "C#4",
          "midi": 61,
          "time": 105.70335049999994,
          "velocity": 0.5039370078740157,
          "duration": 0.666993610416668
        },
        {
          "name": "F#4",
          "midi": 66,
          "time": 105.70335049999994,
          "velocity": 0.5039370078740157,
          "duration": 0.666993610416668
        },
        {
          "name": "C#4",
          "midi": 61,
          "time": 106.40647699999994,
          "velocity": 0.5039370078740157,
          "duration": 0.44433688541667493
        },
        {
          "name": "F#4",
          "midi": 66,
          "time": 106.40647699999994,
          "velocity": 0.5039370078740157,
          "duration": 0.44433688541667493
        },
        {
          "name": "F#3",
          "midi": 54,
          "time": 106.87522799999995,
          "velocity": 0.5039370078740157,
          "duration": 1.780277235416662
        },
        {
          "name": "C#4",
          "midi": 61,
          "time": 106.87522799999995,
          "velocity": 0.5039370078740157,
          "duration": 0.666993610416668
        },
        {
          "name": "F#4",
          "midi": 66,
          "time": 106.87522799999995,
          "velocity": 0.5039370078740157,
          "duration": 0.666993610416668
        },
        {
          "name": "C#4",
          "midi": 61,
          "time": 107.57835449999995,
          "velocity": 0.5039370078740157,
          "duration": 0.666993610416668
        },
        {
          "name": "F#4",
          "midi": 66,
          "time": 107.57835449999995,
          "velocity": 0.5039370078740157,
          "duration": 0.666993610416668
        },
        {
          "name": "C#4",
          "midi": 61,
          "time": 108.28148099999994,
          "velocity": 0.6299212598425197,
          "duration": 0.44433688541667493
        },
        {
          "name": "F#4",
          "midi": 66,
          "time": 108.28148099999994,
          "velocity": 0.6299212598425197,
          "duration": 0.44433688541667493
        },
        {
          "name": "D3",
          "midi": 50,
          "time": 108.75023199999995,
          "velocity": 0.6299212598425197,
          "duration": 0.4443368854166607
        },
        {
          "name": "A3",
          "midi": 57,
          "time": 109.21898299999995,
          "velocity": 0.6299212598425197,
          "duration": 0.2216801604166676
        },
        {
          "name": "D4",
          "midi": 62,
          "time": 109.21898299999995,
          "velocity": 0.6299212598425197,
          "duration": 0.2216801604166676
        },
        {
          "name": "D3",
          "midi": 50,
          "time": 109.45335849999995,
          "velocity": 0.6299212598425197,
          "duration": 0.2216801604166676
        },
        {
          "name": "D3",
          "midi": 50,
          "time": 109.68773399999995,
          "velocity": 0.6299212598425197,
          "duration": 0.4443368854166607
        },
        {
          "name": "A3",
          "midi": 57,
          "time": 110.15648499999995,
          "velocity": 0.6299212598425197,
          "duration": 0.2216801604166676
        },
        {
          "name": "D4",
          "midi": 62,
          "time": 110.15648499999995,
          "velocity": 0.6299212598425197,
          "duration": 0.2216801604166676
        },
        {
          "name": "D3",
          "midi": 50,
          "time": 110.39086049999995,
          "velocity": 0.6299212598425197,
          "duration": 0.2216801604166676
        },
        {
          "name": "E3",
          "midi": 52,
          "time": 110.62523599999994,
          "velocity": 0.6299212598425197,
          "duration": 0.4443368854166607
        },
        {
          "name": "B3",
          "midi": 59,
          "time": 111.09398699999994,
          "velocity": 0.6299212598425197,
          "duration": 0.2216801604166676
        },
        {
          "name": "E4",
          "midi": 64,
          "time": 111.09398699999994,
          "velocity": 0.6299212598425197,
          "duration": 0.2216801604166676
        },
        {
          "name": "E3",
          "midi": 52,
          "time": 111.32836249999994,
          "velocity": 0.6299212598425197,
          "duration": 0.2216801604166676
        },
        {
          "name": "E3",
          "midi": 52,
          "time": 111.56273799999994,
          "velocity": 0.6299212598425197,
          "duration": 0.4443368854166607
        },
        {
          "name": "B3",
          "midi": 59,
          "time": 112.03148899999994,
          "velocity": 0.6299212598425197,
          "duration": 0.2216801604166676
        },
        {
          "name": "E4",
          "midi": 64,
          "time": 112.03148899999994,
          "velocity": 0.6299212598425197,
          "duration": 0.2216801604166676
        },
        {
          "name": "E3",
          "midi": 52,
          "time": 112.26586449999994,
          "velocity": 0.6299212598425197,
          "duration": 0.2216801604166676
        },
        {
          "name": "C#3",
          "midi": 49,
          "time": 112.50023999999993,
          "velocity": 0.6299212598425197,
          "duration": 0.4443368854166607
        },
        {
          "name": "G#3",
          "midi": 56,
          "time": 112.96899099999993,
          "velocity": 0.6299212598425197,
          "duration": 0.2216801604166676
        },
        {
          "name": "C#4",
          "midi": 61,
          "time": 112.96899099999993,
          "velocity": 0.6299212598425197,
          "duration": 0.2216801604166676
        },
        {
          "name": "C#3",
          "midi": 49,
          "time": 113.20336649999993,
          "velocity": 0.6299212598425197,
          "duration": 0.2216801604166676
        },
        {
          "name": "C#3",
          "midi": 49,
          "time": 113.43774199999993,
          "velocity": 0.6299212598425197,
          "duration": 0.4443368854166607
        },
        {
          "name": "G#3",
          "midi": 56,
          "time": 113.90649299999993,
          "velocity": 0.6299212598425197,
          "duration": 0.2216801604166676
        },
        {
          "name": "C#4",
          "midi": 61,
          "time": 113.90649299999993,
          "velocity": 0.6299212598425197,
          "duration": 0.2216801604166676
        },
        {
          "name": "C#3",
          "midi": 49,
          "time": 114.14086849999993,
          "velocity": 0.6299212598425197,
          "duration": 0.2216801604166676
        },
        {
          "name": "F#3",
          "midi": 54,
          "time": 114.37524399999992,
          "velocity": 0.6299212598425197,
          "duration": 0.4443368854166607
        },
        {
          "name": "C#4",
          "midi": 61,
          "time": 114.84399499999992,
          "velocity": 0.6299212598425197,
          "duration": 0.2216801604166676
        },
        {
          "name": "F#4",
          "midi": 66,
          "time": 114.84399499999992,
          "velocity": 0.6299212598425197,
          "duration": 0.2216801604166676
        },
        {
          "name": "F#3",
          "midi": 54,
          "time": 115.07837049999992,
          "velocity": 0.6299212598425197,
          "duration": 0.2216801604166676
        },
        {
          "name": "F#3",
          "midi": 54,
          "time": 115.31274599999992,
          "velocity": 0.6299212598425197,
          "duration": 0.4443368854166607
        },
        {
          "name": "C#4",
          "midi": 61,
          "time": 115.78149699999992,
          "velocity": 0.6299212598425197,
          "duration": 0.2216801604166676
        },
        {
          "name": "F#4",
          "midi": 66,
          "time": 115.78149699999992,
          "velocity": 0.6299212598425197,
          "duration": 0.2216801604166676
        },
        {
          "name": "F#3",
          "midi": 54,
          "time": 116.01587249999992,
          "velocity": 0.6299212598425197,
          "duration": 0.2216801604166676
        },
        {
          "name": "D3",
          "midi": 50,
          "time": 116.25024799999991,
          "velocity": 0.6299212598425197,
          "duration": 0.4443368854166607
        },
        {
          "name": "A3",
          "midi": 57,
          "time": 116.71899899999991,
          "velocity": 0.6299212598425197,
          "duration": 0.2216801604166676
        },
        {
          "name": "D4",
          "midi": 62,
          "time": 116.71899899999991,
          "velocity": 0.6299212598425197,
          "duration": 0.2216801604166676
        },
        {
          "name": "D3",
          "midi": 50,
          "time": 116.95337449999991,
          "velocity": 0.6299212598425197,
          "duration": 0.2216801604166676
        },
        {
          "name": "D3",
          "midi": 50,
          "time": 117.18774999999991,
          "velocity": 0.6299212598425197,
          "duration": 0.4443368854166607
        },
        {
          "name": "A3",
          "midi": 57,
          "time": 117.6565009999999,
          "velocity": 0.6299212598425197,
          "duration": 0.2216801604166676
        },
        {
          "name": "D4",
          "midi": 62,
          "time": 117.6565009999999,
          "velocity": 0.6299212598425197,
          "duration": 0.2216801604166676
        },
        {
          "name": "D3",
          "midi": 50,
          "time": 117.8908764999999,
          "velocity": 0.6299212598425197,
          "duration": 0.2216801604166676
        },
        {
          "name": "E3",
          "midi": 52,
          "time": 118.1252519999999,
          "velocity": 0.6299212598425197,
          "duration": 0.4443368854166607
        },
        {
          "name": "B3",
          "midi": 59,
          "time": 118.5940029999999,
          "velocity": 0.6299212598425197,
          "duration": 0.2216801604166676
        },
        {
          "name": "E4",
          "midi": 64,
          "time": 118.5940029999999,
          "velocity": 0.6299212598425197,
          "duration": 0.2216801604166676
        },
        {
          "name": "E3",
          "midi": 52,
          "time": 118.8283784999999,
          "velocity": 0.6299212598425197,
          "duration": 0.2216801604166676
        },
        {
          "name": "E3",
          "midi": 52,
          "time": 119.0627539999999,
          "velocity": 0.6299212598425197,
          "duration": 0.4443368854166607
        },
        {
          "name": "B3",
          "midi": 59,
          "time": 119.5315049999999,
          "velocity": 0.6299212598425197,
          "duration": 0.2216801604166676
        },
        {
          "name": "E4",
          "midi": 64,
          "time": 119.5315049999999,
          "velocity": 0.6299212598425197,
          "duration": 0.2216801604166676
        },
        {
          "name": "E3",
          "midi": 52,
          "time": 119.7658804999999,
          "velocity": 0.6299212598425197,
          "duration": 0.2216801604166676
        },
        {
          "name": "C#3",
          "midi": 49,
          "time": 120.0002559999999,
          "velocity": 0.6299212598425197,
          "duration": 0.4443368854166607
        },
        {
          "name": "G#3",
          "midi": 56,
          "time": 120.46900699999989,
          "velocity": 0.6299212598425197,
          "duration": 0.2216801604166676
        },
        {
          "name": "C#4",
          "midi": 61,
          "time": 120.46900699999989,
          "velocity": 0.6299212598425197,
          "duration": 0.2216801604166676
        },
        {
          "name": "C#3",
          "midi": 49,
          "time": 120.70338249999989,
          "velocity": 0.6299212598425197,
          "duration": 0.2216801604166676
        },
        {
          "name": "C#3",
          "midi": 49,
          "time": 120.93775799999989,
          "velocity": 0.6299212598425197,
          "duration": 0.4443368854166607
        },
        {
          "name": "G#3",
          "midi": 56,
          "time": 121.40650899999989,
          "velocity": 0.6299212598425197,
          "duration": 0.2216801604166676
        },
        {
          "name": "C#4",
          "midi": 61,
          "time": 121.40650899999989,
          "velocity": 0.6299212598425197,
          "duration": 0.2216801604166676
        },
        {
          "name": "C#3",
          "midi": 49,
          "time": 121.64088449999988,
          "velocity": 0.6299212598425197,
          "duration": 0.2216801604166676
        },
        {
          "name": "F#3",
          "midi": 54,
          "time": 121.87525999999988,
          "velocity": 0.6299212598425197,
          "duration": 0.4443368854166607
        },
        {
          "name": "C#4",
          "midi": 61,
          "time": 122.34401099999988,
          "velocity": 0.6299212598425197,
          "duration": 0.2216801604166676
        },
        {
          "name": "F#4",
          "midi": 66,
          "time": 122.34401099999988,
          "velocity": 0.6299212598425197,
          "duration": 0.2216801604166676
        },
        {
          "name": "F#3",
          "midi": 54,
          "time": 122.57838649999988,
          "velocity": 0.6299212598425197,
          "duration": 0.2216801604166676
        },
        {
          "name": "F#3",
          "midi": 54,
          "time": 122.81276199999988,
          "velocity": 0.6299212598425197,
          "duration": 0.4443368854166607
        },
        {
          "name": "C#4",
          "midi": 61,
          "time": 123.28151299999988,
          "velocity": 0.5039370078740157,
          "duration": 0.2216801604166676
        },
        {
          "name": "F#4",
          "midi": 66,
          "time": 123.28151299999988,
          "velocity": 0.5039370078740157,
          "duration": 0.2216801604166676
        },
        {
          "name": "F#3",
          "midi": 54,
          "time": 123.51588849999987,
          "velocity": 0.5039370078740157,
          "duration": 0.2216801604166676
        },
        {
          "name": "D4",
          "midi": 62,
          "time": 123.75026399999987,
          "velocity": 0.5039370078740157,
          "duration": 0.2216801604166676
        },
        {
          "name": "A4",
          "midi": 69,
          "time": 123.75026399999987,
          "velocity": 0.5039370078740157,
          "duration": 0.2216801604166676
        },
        {
          "name": "F#4",
          "midi": 66,
          "time": 123.98463949999987,
          "velocity": 0.5039370078740157,
          "duration": 0.2216801604166676
        },
        {
          "name": "A4",
          "midi": 69,
          "time": 124.21901499999987,
          "velocity": 0.5039370078740157,
          "duration": 0.2216801604166676
        },
        {
          "name": "C#5",
          "midi": 73,
          "time": 124.45339049999987,
          "velocity": 0.5039370078740157,
          "duration": 0.2216801604166676
        },
        {
          "name": "D4",
          "midi": 62,
          "time": 124.68776599999987,
          "velocity": 0.5039370078740157,
          "duration": 0.2216801604166676
        },
        {
          "name": "A4",
          "midi": 69,
          "time": 124.68776599999987,
          "velocity": 0.5039370078740157,
          "duration": 0.2216801604166676
        },
        {
          "name": "F#4",
          "midi": 66,
          "time": 124.92214149999987,
          "velocity": 0.5039370078740157,
          "duration": 0.2216801604166676
        },
        {
          "name": "A4",
          "midi": 69,
          "time": 125.15651699999987,
          "velocity": 0.5039370078740157,
          "duration": 0.2216801604166676
        },
        {
          "name": "C#5",
          "midi": 73,
          "time": 125.39089249999986,
          "velocity": 0.5039370078740157,
          "duration": 0.2216801604166676
        },
        {
          "name": "E4",
          "midi": 64,
          "time": 125.62526799999986,
          "velocity": 0.5039370078740157,
          "duration": 0.22168016041668182
        },
        {
          "name": "B4",
          "midi": 71,
          "time": 125.62526799999986,
          "velocity": 0.5039370078740157,
          "duration": 0.22168016041668182
        },
        {
          "name": "G#4",
          "midi": 68,
          "time": 125.85964349999988,
          "velocity": 0.5039370078740157,
          "duration": 0.2216801604166676
        },
        {
          "name": "B4",
          "midi": 71,
          "time": 126.09401899999988,
          "velocity": 0.5039370078740157,
          "duration": 0.2216801604166676
        },
        {
          "name": "D5",
          "midi": 74,
          "time": 126.32839449999987,
          "velocity": 0.5039370078740157,
          "duration": 0.2216801604166676
        },
        {
          "name": "E4",
          "midi": 64,
          "time": 126.56276999999987,
          "velocity": 0.5039370078740157,
          "duration": 0.2216801604166676
        },
        {
          "name": "B4",
          "midi": 71,
          "time": 126.56276999999987,
          "velocity": 0.5039370078740157,
          "duration": 0.2216801604166676
        },
        {
          "name": "G#4",
          "midi": 68,
          "time": 126.79714549999987,
          "velocity": 0.5039370078740157,
          "duration": 0.2216801604166676
        },
        {
          "name": "B4",
          "midi": 71,
          "time": 127.03152099999987,
          "velocity": 0.5039370078740157,
          "duration": 0.2216801604166676
        },
        {
          "name": "D5",
          "midi": 74,
          "time": 127.26589649999987,
          "velocity": 0.5039370078740157,
          "duration": 0.2216801604166676
        },
        {
          "name": "C#4",
          "midi": 61,
          "time": 127.50027199999987,
          "velocity": 0.5039370078740157,
          "duration": 0.22168016041668182
        },
        {
          "name": "G#4",
          "midi": 68,
          "time": 127.50027199999987,
          "velocity": 0.5039370078740157,
          "duration": 0.22168016041668182
        },
        {
          "name": "E4",
          "midi": 64,
          "time": 127.73464749999988,
          "velocity": 0.5039370078740157,
          "duration": 0.2216801604166676
        },
        {
          "name": "G#4",
          "midi": 68,
          "time": 127.96902299999988,
          "velocity": 0.5039370078740157,
          "duration": 0.2216801604166676
        },
        {
          "name": "B4",
          "midi": 71,
          "time": 128.20339849999988,
          "velocity": 0.5039370078740157,
          "duration": 0.2216801604166676
        },
        {
          "name": "C#4",
          "midi": 61,
          "time": 128.43777399999988,
          "velocity": 0.5039370078740157,
          "duration": 0.2216801604166676
        },
        {
          "name": "G#4",
          "midi": 68,
          "time": 128.43777399999988,
          "velocity": 0.5039370078740157,
          "duration": 0.2216801604166676
        },
        {
          "name": "E4",
          "midi": 64,
          "time": 128.67214949999988,
          "velocity": 0.5039370078740157,
          "duration": 0.2216801604166676
        },
        {
          "name": "G#4",
          "midi": 68,
          "time": 128.90652499999987,
          "velocity": 0.5039370078740157,
          "duration": 0.2216801604166676
        },
        {
          "name": "B4",
          "midi": 71,
          "time": 129.14090049999987,
          "velocity": 0.5039370078740157,
          "duration": 0.2216801604166676
        },
        {
          "name": "C#4",
          "midi": 61,
          "time": 129.37527599999987,
          "velocity": 0.5039370078740157,
          "duration": 0.2216801604166676
        },
        {
          "name": "A4",
          "midi": 69,
          "time": 129.37527599999987,
          "velocity": 0.5039370078740157,
          "duration": 0.2216801604166676
        },
        {
          "name": "F#4",
          "midi": 66,
          "time": 129.60965149999987,
          "velocity": 0.5039370078740157,
          "duration": 0.2216801604166676
        },
        {
          "name": "A4",
          "midi": 69,
          "time": 129.84402699999987,
          "velocity": 0.5039370078740157,
          "duration": 0.2216801604166676
        },
        {
          "name": "C#5",
          "midi": 73,
          "time": 130.07840249999987,
          "velocity": 0.5039370078740157,
          "duration": 0.2216801604166676
        },
        {
          "name": "C#4",
          "midi": 61,
          "time": 130.31277799999987,
          "velocity": 0.5039370078740157,
          "duration": 0.2216801604166676
        },
        {
          "name": "A4",
          "midi": 69,
          "time": 130.31277799999987,
          "velocity": 0.5039370078740157,
          "duration": 0.2216801604166676
        },
        {
          "name": "F#4",
          "midi": 66,
          "time": 130.54715349999987,
          "velocity": 0.5039370078740157,
          "duration": 0.2216801604166676
        },
        {
          "name": "A4",
          "midi": 69,
          "time": 130.78152899999986,
          "velocity": 0.5039370078740157,
          "duration": 0.2216801604166676
        },
        {
          "name": "C#5",
          "midi": 73,
          "time": 131.01590449999986,
          "velocity": 0.5039370078740157,
          "duration": 0.2216801604166676
        },
        {
          "name": "D4",
          "midi": 62,
          "time": 131.25027999999986,
          "velocity": 0.5039370078740157,
          "duration": 0.2216801604166676
        },
        {
          "name": "A4",
          "midi": 69,
          "time": 131.25027999999986,
          "velocity": 0.5039370078740157,
          "duration": 0.2216801604166676
        },
        {
          "name": "F#4",
          "midi": 66,
          "time": 131.48465549999986,
          "velocity": 0.5039370078740157,
          "duration": 0.2216801604166676
        },
        {
          "name": "A4",
          "midi": 69,
          "time": 131.71903099999986,
          "velocity": 0.5039370078740157,
          "duration": 0.2216801604166676
        },
        {
          "name": "C#5",
          "midi": 73,
          "time": 131.95340649999986,
          "velocity": 0.5039370078740157,
          "duration": 0.2216801604166676
        },
        {
          "name": "D4",
          "midi": 62,
          "time": 132.18778199999986,
          "velocity": 0.5039370078740157,
          "duration": 0.2216801604166676
        },
        {
          "name": "A4",
          "midi": 69,
          "time": 132.18778199999986,
          "velocity": 0.5039370078740157,
          "duration": 0.2216801604166676
        },
        {
          "name": "F#4",
          "midi": 66,
          "time": 132.42215749999986,
          "velocity": 0.5039370078740157,
          "duration": 0.2216801604166676
        },
        {
          "name": "A4",
          "midi": 69,
          "time": 132.65653299999985,
          "velocity": 0.5039370078740157,
          "duration": 0.2216801604166676
        },
        {
          "name": "C#5",
          "midi": 73,
          "time": 132.89090849999985,
          "velocity": 0.5039370078740157,
          "duration": 0.2216801604166676
        },
        {
          "name": "E4",
          "midi": 64,
          "time": 133.12528399999985,
          "velocity": 0.5039370078740157,
          "duration": 0.2216801604166676
        },
        {
          "name": "B4",
          "midi": 71,
          "time": 133.12528399999985,
          "velocity": 0.5039370078740157,
          "duration": 0.2216801604166676
        },
        {
          "name": "G#4",
          "midi": 68,
          "time": 133.35965949999985,
          "velocity": 0.5039370078740157,
          "duration": 0.2216801604166676
        },
        {
          "name": "B4",
          "midi": 71,
          "time": 133.59403499999985,
          "velocity": 0.5039370078740157,
          "duration": 0.2216801604166676
        },
        {
          "name": "D5",
          "midi": 74,
          "time": 133.82841049999985,
          "velocity": 0.5039370078740157,
          "duration": 0.2216801604166676
        },
        {
          "name": "E4",
          "midi": 64,
          "time": 134.06278599999985,
          "velocity": 0.5039370078740157,
          "duration": 0.2216801604166676
        },
        {
          "name": "B4",
          "midi": 71,
          "time": 134.06278599999985,
          "velocity": 0.5039370078740157,
          "duration": 0.2216801604166676
        },
        {
          "name": "G#4",
          "midi": 68,
          "time": 134.29716149999985,
          "velocity": 0.5039370078740157,
          "duration": 0.2216801604166676
        },
        {
          "name": "B4",
          "midi": 71,
          "time": 134.53153699999984,
          "velocity": 0.5039370078740157,
          "duration": 0.2216801604166676
        },
        {
          "name": "D5",
          "midi": 74,
          "time": 134.76591249999984,
          "velocity": 0.5039370078740157,
          "duration": 0.2216801604166676
        },
        {
          "name": "C#4",
          "midi": 61,
          "time": 135.00028799999984,
          "velocity": 0.5039370078740157,
          "duration": 0.2216801604166676
        },
        {
          "name": "G#4",
          "midi": 68,
          "time": 135.00028799999984,
          "velocity": 0.5039370078740157,
          "duration": 0.2216801604166676
        },
        {
          "name": "E4",
          "midi": 64,
          "time": 135.23466349999984,
          "velocity": 0.5039370078740157,
          "duration": 0.2216801604166676
        },
        {
          "name": "G#4",
          "midi": 68,
          "time": 135.46903899999984,
          "velocity": 0.5039370078740157,
          "duration": 0.2216801604166676
        },
        {
          "name": "B4",
          "midi": 71,
          "time": 135.70341449999984,
          "velocity": 0.5039370078740157,
          "duration": 0.2216801604166676
        },
        {
          "name": "C#4",
          "midi": 61,
          "time": 135.93778999999984,
          "velocity": 0.5039370078740157,
          "duration": 0.2216801604166676
        },
        {
          "name": "G#4",
          "midi": 68,
          "time": 135.93778999999984,
          "velocity": 0.5039370078740157,
          "duration": 0.2216801604166676
        },
        {
          "name": "E4",
          "midi": 64,
          "time": 136.17216549999983,
          "velocity": 0.5039370078740157,
          "duration": 0.2216801604166676
        },
        {
          "name": "G#4",
          "midi": 68,
          "time": 136.40654099999983,
          "velocity": 0.5039370078740157,
          "duration": 0.2216801604166676
        },
        {
          "name": "B4",
          "midi": 71,
          "time": 136.64091649999983,
          "velocity": 0.5039370078740157,
          "duration": 0.2216801604166676
        },
        {
          "name": "C#4",
          "midi": 61,
          "time": 136.87529199999983,
          "velocity": 0.5039370078740157,
          "duration": 0.2216801604166676
        },
        {
          "name": "A4",
          "midi": 69,
          "time": 136.87529199999983,
          "velocity": 0.5039370078740157,
          "duration": 0.2216801604166676
        },
        {
          "name": "F#4",
          "midi": 66,
          "time": 137.10966749999983,
          "velocity": 0.5039370078740157,
          "duration": 0.2216801604166676
        },
        {
          "name": "A4",
          "midi": 69,
          "time": 137.34404299999983,
          "velocity": 0.5039370078740157,
          "duration": 0.2216801604166676
        },
        {
          "name": "C#5",
          "midi": 73,
          "time": 137.57841849999983,
          "velocity": 0.5039370078740157,
          "duration": 0.2216801604166676
        },
        {
          "name": "C#4",
          "midi": 61,
          "time": 137.81279399999983,
          "velocity": 0.5039370078740157,
          "duration": 0.2216801604166676
        },
        {
          "name": "A4",
          "midi": 69,
          "time": 137.81279399999983,
          "velocity": 0.5039370078740157,
          "duration": 0.2216801604166676
        },
        {
          "name": "F#4",
          "midi": 66,
          "time": 138.04716949999982,
          "velocity": 0.6299212598425197,
          "duration": 0.2216801604166676
        },
        {
          "name": "C#4",
          "midi": 61,
          "time": 138.28154499999982,
          "velocity": 0.6299212598425197,
          "duration": 0.2216801604166676
        },
        {
          "name": "A3",
          "midi": 57,
          "time": 138.51592049999982,
          "velocity": 0.6299212598425197,
          "duration": 0.2216801604166676
        },
        {
          "name": "D3",
          "midi": 50,
          "time": 138.75029599999982,
          "velocity": 0.6299212598425197,
          "duration": 0.2216801604166676
        },
        {
          "name": "A3",
          "midi": 57,
          "time": 138.75029599999982,
          "velocity": 0.6299212598425197,
          "duration": 0.2216801604166676
        },
        {
          "name": "D4",
          "midi": 62,
          "time": 138.75029599999982,
          "velocity": 0.6299212598425197,
          "duration": 0.2216801604166676
        },
        {
          "name": "D3",
          "midi": 50,
          "time": 139.21904699999982,
          "velocity": 0.6299212598425197,
          "duration": 0.6669936104166538
        },
        {
          "name": "A3",
          "midi": 57,
          "time": 139.21904699999982,
          "velocity": 0.6299212598425197,
          "duration": 0.2216801604166676
        },
        {
          "name": "D4",
          "midi": 62,
          "time": 139.21904699999982,
          "velocity": 0.6299212598425197,
          "duration": 0.6669936104166538
        },
        {
          "name": "F#3",
          "midi": 54,
          "time": 139.45342249999982,
          "velocity": 0.6299212598425197,
          "duration": 0.4443368854166465
        },
        {
          "name": "D3",
          "midi": 50,
          "time": 139.9221734999998,
          "velocity": 0.6299212598425197,
          "duration": 0.2216801604166676
        },
        {
          "name": "D3",
          "midi": 50,
          "time": 140.15654899999979,
          "velocity": 0.6299212598425197,
          "duration": 0.44433688541667493
        },
        {
          "name": "A3",
          "midi": 57,
          "time": 140.15654899999979,
          "velocity": 0.6299212598425197,
          "duration": 0.44433688541667493
        },
        {
          "name": "D4",
          "midi": 62,
          "time": 140.15654899999979,
          "velocity": 0.6299212598425197,
          "duration": 0.44433688541667493
        },
        {
          "name": "E3",
          "midi": 52,
          "time": 140.62529999999978,
          "velocity": 0.6299212598425197,
          "duration": 0.44433688541667493
        },
        {
          "name": "B3",
          "midi": 59,
          "time": 140.62529999999978,
          "velocity": 0.6299212598425197,
          "duration": 0.44433688541667493
        },
        {
          "name": "E4",
          "midi": 64,
          "time": 140.62529999999978,
          "velocity": 0.6299212598425197,
          "duration": 0.44433688541667493
        },
        {
          "name": "E3",
          "midi": 52,
          "time": 141.09405099999978,
          "velocity": 0.6299212598425197,
          "duration": 0.6669936104166538
        },
        {
          "name": "B3",
          "midi": 59,
          "time": 141.09405099999978,
          "velocity": 0.6299212598425197,
          "duration": 0.2216801604166676
        },
        {
          "name": "E4",
          "midi": 64,
          "time": 141.09405099999978,
          "velocity": 0.6299212598425197,
          "duration": 0.6669936104166538
        },
        {
          "name": "G#3",
          "midi": 56,
          "time": 141.32842649999978,
          "velocity": 0.6299212598425197,
          "duration": 0.4443368854166465
        },
        {
          "name": "E3",
          "midi": 52,
          "time": 141.79717749999975,
          "velocity": 0.6299212598425197,
          "duration": 0.2216801604166676
        },
        {
          "name": "E3",
          "midi": 52,
          "time": 142.03155299999975,
          "velocity": 0.6299212598425197,
          "duration": 0.44433688541667493
        },
        {
          "name": "B3",
          "midi": 59,
          "time": 142.03155299999975,
          "velocity": 0.6299212598425197,
          "duration": 0.44433688541667493
        },
        {
          "name": "E4",
          "midi": 64,
          "time": 142.03155299999975,
          "velocity": 0.6299212598425197,
          "duration": 0.44433688541667493
        },
        {
          "name": "C#3",
          "midi": 49,
          "time": 142.50030399999974,
          "velocity": 0.6299212598425197,
          "duration": 0.44433688541667493
        },
        {
          "name": "G#3",
          "midi": 56,
          "time": 142.50030399999974,
          "velocity": 0.6299212598425197,
          "duration": 0.44433688541667493
        },
        {
          "name": "C#4",
          "midi": 61,
          "time": 142.50030399999974,
          "velocity": 0.6299212598425197,
          "duration": 0.44433688541667493
        },
        {
          "name": "C#3",
          "midi": 49,
          "time": 142.96905499999974,
          "velocity": 0.6299212598425197,
          "duration": 0.6669936104166538
        },
        {
          "name": "G#3",
          "midi": 56,
          "time": 142.96905499999974,
          "velocity": 0.6299212598425197,
          "duration": 0.2216801604166676
        },
        {
          "name": "C#4",
          "midi": 61,
          "time": 142.96905499999974,
          "velocity": 0.6299212598425197,
          "duration": 0.6669936104166538
        },
        {
          "name": "E3",
          "midi": 52,
          "time": 143.20343049999974,
          "velocity": 0.6299212598425197,
          "duration": 0.4443368854166465
        },
        {
          "name": "C#3",
          "midi": 49,
          "time": 143.6721814999997,
          "velocity": 0.6299212598425197,
          "duration": 0.2216801604166676
        },
        {
          "name": "C#3",
          "midi": 49,
          "time": 143.9065569999997,
          "velocity": 0.6299212598425197,
          "duration": 0.44433688541667493
        },
        {
          "name": "G#3",
          "midi": 56,
          "time": 143.9065569999997,
          "velocity": 0.6299212598425197,
          "duration": 0.44433688541667493
        },
        {
          "name": "C#4",
          "midi": 61,
          "time": 143.9065569999997,
          "velocity": 0.6299212598425197,
          "duration": 0.44433688541667493
        },
        {
          "name": "F#3",
          "midi": 54,
          "time": 144.3753079999997,
          "velocity": 0.6299212598425197,
          "duration": 0.44433688541667493
        },
        {
          "name": "C#4",
          "midi": 61,
          "time": 144.3753079999997,
          "velocity": 0.6299212598425197,
          "duration": 0.44433688541667493
        },
        {
          "name": "F#4",
          "midi": 66,
          "time": 144.3753079999997,
          "velocity": 0.6299212598425197,
          "duration": 0.44433688541667493
        },
        {
          "name": "F#3",
          "midi": 54,
          "time": 144.8440589999997,
          "velocity": 0.6299212598425197,
          "duration": 0.6669936104166538
        },
        {
          "name": "C#4",
          "midi": 61,
          "time": 144.8440589999997,
          "velocity": 0.6299212598425197,
          "duration": 0.2216801604166676
        },
        {
          "name": "F#4",
          "midi": 66,
          "time": 144.8440589999997,
          "velocity": 0.6299212598425197,
          "duration": 0.6669936104166538
        },
        {
          "name": "A3",
          "midi": 57,
          "time": 145.0784344999997,
          "velocity": 0.6299212598425197,
          "duration": 0.4443368854166465
        },
        {
          "name": "F#3",
          "midi": 54,
          "time": 145.54718549999967,
          "velocity": 0.6299212598425197,
          "duration": 0.2216801604166676
        },
        {
          "name": "F#3",
          "midi": 54,
          "time": 145.78156099999967,
          "velocity": 0.6299212598425197,
          "duration": 0.44433688541667493
        },
        {
          "name": "C#4",
          "midi": 61,
          "time": 145.78156099999967,
          "velocity": 0.6299212598425197,
          "duration": 0.44433688541667493
        },
        {
          "name": "F#4",
          "midi": 66,
          "time": 145.78156099999967,
          "velocity": 0.6299212598425197,
          "duration": 0.44433688541667493
        },
        {
          "name": "D3",
          "midi": 50,
          "time": 146.25031199999967,
          "velocity": 0.6299212598425197,
          "duration": 1.3349637854166758
        },
        {
          "name": "A3",
          "midi": 57,
          "time": 146.25031199999967,
          "velocity": 0.6299212598425197,
          "duration": 0.6669936104166538
        },
        {
          "name": "D4",
          "midi": 62,
          "time": 146.25031199999967,
          "velocity": 0.6299212598425197,
          "duration": 0.6669936104166538
        },
        {
          "name": "A3",
          "midi": 57,
          "time": 146.95343849999966,
          "velocity": 0.6299212598425197,
          "duration": 0.6669936104166823
        },
        {
          "name": "D4",
          "midi": 62,
          "time": 146.95343849999966,
          "velocity": 0.6299212598425197,
          "duration": 0.6669936104166823
        },
        {
          "name": "D3",
          "midi": 50,
          "time": 147.6565649999997,
          "velocity": 0.6299212598425197,
          "duration": 0.44433688541667493
        },
        {
          "name": "A3",
          "midi": 57,
          "time": 147.6565649999997,
          "velocity": 0.6299212598425197,
          "duration": 0.44433688541667493
        },
        {
          "name": "D4",
          "midi": 62,
          "time": 147.6565649999997,
          "velocity": 0.6299212598425197,
          "duration": 0.44433688541667493
        },
        {
          "name": "D3",
          "midi": 50,
          "time": 148.12531599999969,
          "velocity": 0.6299212598425197,
          "duration": 1.3349637854166758
        },
        {
          "name": "A3",
          "midi": 57,
          "time": 148.12531599999969,
          "velocity": 0.6299212598425197,
          "duration": 0.6669936104166538
        },
        {
          "name": "D4",
          "midi": 62,
          "time": 148.12531599999969,
          "velocity": 0.6299212598425197,
          "duration": 0.6669936104166538
        },
        {
          "name": "A3",
          "midi": 57,
          "time": 148.82844249999968,
          "velocity": 0.6299212598425197,
          "duration": 0.6669936104166823
        },
        {
          "name": "D4",
          "midi": 62,
          "time": 148.82844249999968,
          "velocity": 0.6299212598425197,
          "duration": 0.6669936104166823
        },
        {
          "name": "D3",
          "midi": 50,
          "time": 149.5315689999997,
          "velocity": 0.6299212598425197,
          "duration": 0.44433688541667493
        },
        {
          "name": "A3",
          "midi": 57,
          "time": 149.5315689999997,
          "velocity": 0.6299212598425197,
          "duration": 0.44433688541667493
        },
        {
          "name": "D4",
          "midi": 62,
          "time": 149.5315689999997,
          "velocity": 0.6299212598425197,
          "duration": 0.44433688541667493
        },
        {
          "name": "E3",
          "midi": 52,
          "time": 150.0003199999997,
          "velocity": 0.6299212598425197,
          "duration": 0.6669936104166538
        },
        {
          "name": "B3",
          "midi": 59,
          "time": 150.0003199999997,
          "velocity": 0.6299212598425197,
          "duration": 0.8896503354166612
        },
        {
          "name": "E4",
          "midi": 64,
          "time": 150.0003199999997,
          "velocity": 0.6299212598425197,
          "duration": 0.8896503354166612
        },
        {
          "name": "E3",
          "midi": 52,
          "time": 150.7034464999997,
          "velocity": 0.6299212598425197,
          "duration": 2.8935608604166703
        },
        {
          "name": "B3",
          "midi": 59,
          "time": 150.9378219999997,
          "velocity": 0.6299212598425197,
          "duration": 2.670904135416663
        },
        {
          "name": "E4",
          "midi": 64,
          "time": 150.9378219999997,
          "velocity": 0.6299212598425197,
          "duration": 2.670904135416663
        },
        {
          "name": "E3",
          "midi": 52,
          "time": 153.75032799999968,
          "velocity": 0.6299212598425197,
          "duration": 0.6669936104166538
        },
        {
          "name": "B3",
          "midi": 59,
          "time": 153.75032799999968,
          "velocity": 0.6299212598425197,
          "duration": 0.6669936104166538
        },
        {
          "name": "E4",
          "midi": 64,
          "time": 153.75032799999968,
          "velocity": 0.6299212598425197,
          "duration": 0.6669936104166538
        },
        {
          "name": "E3",
          "midi": 52,
          "time": 154.45345449999968,
          "velocity": 0.6771653543307087,
          "duration": 0.2216801604166676
        },
        {
          "name": "B3",
          "midi": 59,
          "time": 154.68782999999968,
          "velocity": 0.6929133858267716,
          "duration": 0.2216801604166676
        },
        {
          "name": "E4",
          "midi": 64,
          "time": 154.68782999999968,
          "velocity": 0.6929133858267716,
          "duration": 0.2216801604166676
        },
        {
          "name": "E3",
          "midi": 52,
          "time": 154.92220549999968,
          "velocity": 0.7086614173228346,
          "duration": 0.2216801604166676
        },
        {
          "name": "B3",
          "midi": 59,
          "time": 155.15658099999968,
          "velocity": 0.7244094488188977,
          "duration": 0.2216801604166676
        },
        {
          "name": "E4",
          "midi": 64,
          "time": 155.15658099999968,
          "velocity": 0.7244094488188977,
          "duration": 0.2216801604166676
        },
        {
          "name": "G#4",
          "midi": 68,
          "time": 155.15658099999968,
          "velocity": 0.7244094488188977,
          "duration": 0.2216801604166676
        },
        {
          "name": "D3",
          "midi": 50,
          "time": 155.62533199999967,
          "velocity": 0.7559055118110236,
          "duration": 0.44433688541667493
        },
        {
          "name": "A3",
          "midi": 57,
          "time": 156.09408299999967,
          "velocity": 0.7559055118110236,
          "duration": 0.2216801604166676
        },
        {
          "name": "D4",
          "midi": 62,
          "time": 156.09408299999967,
          "velocity": 0.7559055118110236,
          "duration": 0.2216801604166676
        },
        {
          "name": "D3",
          "midi": 50,
          "time": 156.32845849999967,
          "velocity": 0.7559055118110236,
          "duration": 0.2216801604166676
        },
        {
          "name": "D3",
          "midi": 50,
          "time": 156.79720949999967,
          "velocity": 0.7559055118110236,
          "duration": 0.2216801604166676
        },
        {
          "name": "A3",
          "midi": 57,
          "time": 157.03158499999967,
          "velocity": 0.7559055118110236,
          "duration": 0.2216801604166676
        },
        {
          "name": "D4",
          "midi": 62,
          "time": 157.03158499999967,
          "velocity": 0.7559055118110236,
          "duration": 0.2216801604166676
        },
        {
          "name": "D3",
          "midi": 50,
          "time": 157.26596049999966,
          "velocity": 0.7559055118110236,
          "duration": 0.2216801604166676
        },
        {
          "name": "E3",
          "midi": 52,
          "time": 157.50033599999966,
          "velocity": 0.7559055118110236,
          "duration": 0.44433688541667493
        },
        {
          "name": "B3",
          "midi": 59,
          "time": 157.96908699999966,
          "velocity": 0.7559055118110236,
          "duration": 0.2216801604166676
        },
        {
          "name": "E4",
          "midi": 64,
          "time": 157.96908699999966,
          "velocity": 0.7559055118110236,
          "duration": 0.2216801604166676
        },
        {
          "name": "E3",
          "midi": 52,
          "time": 158.20346249999966,
          "velocity": 0.7559055118110236,
          "duration": 0.2216801604166676
        },
        {
          "name": "E3",
          "midi": 52,
          "time": 158.67221349999966,
          "velocity": 0.7559055118110236,
          "duration": 0.2216801604166676
        },
        {
          "name": "E4",
          "midi": 64,
          "time": 158.90658899999966,
          "velocity": 0.7559055118110236,
          "duration": 0.2216801604166676
        },
        {
          "name": "E3",
          "midi": 52,
          "time": 159.14096449999965,
          "velocity": 0.7559055118110236,
          "duration": 0.2216801604166676
        },
        {
          "name": "C#3",
          "midi": 49,
          "time": 159.37533999999965,
          "velocity": 0.7559055118110236,
          "duration": 0.44433688541667493
        },
        {
          "name": "G#3",
          "midi": 56,
          "time": 159.84409099999965,
          "velocity": 0.7559055118110236,
          "duration": 0.2216801604166676
        },
        {
          "name": "C#4",
          "midi": 61,
          "time": 159.84409099999965,
          "velocity": 0.7559055118110236,
          "duration": 0.2216801604166676
        },
        {
          "name": "C#3",
          "midi": 49,
          "time": 160.07846649999965,
          "velocity": 0.7559055118110236,
          "duration": 0.2216801604166676
        },
        {
          "name": "C#3",
          "midi": 49,
          "time": 160.54721749999965,
          "velocity": 0.7559055118110236,
          "duration": 0.2216801604166676
        },
        {
          "name": "G#3",
          "midi": 56,
          "time": 160.78159299999965,
          "velocity": 0.7559055118110236,
          "duration": 0.2216801604166676
        },
        {
          "name": "C#4",
          "midi": 61,
          "time": 160.78159299999965,
          "velocity": 0.7559055118110236,
          "duration": 0.2216801604166676
        },
        {
          "name": "C#3",
          "midi": 49,
          "time": 161.01596849999964,
          "velocity": 0.7559055118110236,
          "duration": 0.2216801604166676
        },
        {
          "name": "F#3",
          "midi": 54,
          "time": 161.25034399999964,
          "velocity": 0.7559055118110236,
          "duration": 0.44433688541667493
        },
        {
          "name": "C#4",
          "midi": 61,
          "time": 161.71909499999964,
          "velocity": 0.7559055118110236,
          "duration": 0.2216801604166676
        },
        {
          "name": "F#4",
          "midi": 66,
          "time": 161.71909499999964,
          "velocity": 0.7559055118110236,
          "duration": 0.2216801604166676
        },
        {
          "name": "F#3",
          "midi": 54,
          "time": 161.95347049999964,
          "velocity": 0.7559055118110236,
          "duration": 0.2216801604166676
        },
        {
          "name": "F#3",
          "midi": 54,
          "time": 162.42222149999964,
          "velocity": 0.7559055118110236,
          "duration": 0.2216801604166676
        },
        {
          "name": "C#4",
          "midi": 61,
          "time": 162.65659699999964,
          "velocity": 0.7559055118110236,
          "duration": 0.2216801604166676
        },
        {
          "name": "F#4",
          "midi": 66,
          "time": 162.65659699999964,
          "velocity": 0.7559055118110236,
          "duration": 0.2216801604166676
        },
        {
          "name": "F#3",
          "midi": 54,
          "time": 162.89097249999963,
          "velocity": 0.7559055118110236,
          "duration": 0.2216801604166676
        },
        {
          "name": "D3",
          "midi": 50,
          "time": 163.12534799999963,
          "velocity": 0.7559055118110236,
          "duration": 0.44433688541667493
        },
        {
          "name": "A3",
          "midi": 57,
          "time": 163.59409899999963,
          "velocity": 0.7559055118110236,
          "duration": 0.2216801604166676
        },
        {
          "name": "D4",
          "midi": 62,
          "time": 163.59409899999963,
          "velocity": 0.7559055118110236,
          "duration": 0.2216801604166676
        },
        {
          "name": "D3",
          "midi": 50,
          "time": 163.82847449999963,
          "velocity": 0.7559055118110236,
          "duration": 0.2216801604166676
        },
        {
          "name": "D3",
          "midi": 50,
          "time": 164.29722549999963,
          "velocity": 0.7559055118110236,
          "duration": 0.2216801604166676
        },
        {
          "name": "A3",
          "midi": 57,
          "time": 164.53160099999963,
          "velocity": 0.7559055118110236,
          "duration": 0.2216801604166676
        },
        {
          "name": "D4",
          "midi": 62,
          "time": 164.53160099999963,
          "velocity": 0.7559055118110236,
          "duration": 0.2216801604166676
        },
        {
          "name": "D3",
          "midi": 50,
          "time": 164.76597649999962,
          "velocity": 0.7559055118110236,
          "duration": 0.2216801604166676
        },
        {
          "name": "E3",
          "midi": 52,
          "time": 165.00035199999962,
          "velocity": 0.7559055118110236,
          "duration": 0.44433688541667493
        },
        {
          "name": "B3",
          "midi": 59,
          "time": 165.46910299999962,
          "velocity": 0.7559055118110236,
          "duration": 0.2216801604166676
        },
        {
          "name": "E4",
          "midi": 64,
          "time": 165.46910299999962,
          "velocity": 0.7559055118110236,
          "duration": 0.2216801604166676
        },
        {
          "name": "E3",
          "midi": 52,
          "time": 165.70347849999962,
          "velocity": 0.7559055118110236,
          "duration": 0.2216801604166676
        },
        {
          "name": "E3",
          "midi": 52,
          "time": 166.17222949999962,
          "velocity": 0.7559055118110236,
          "duration": 0.2216801604166676
        },
        {
          "name": "E4",
          "midi": 64,
          "time": 166.40660499999962,
          "velocity": 0.7559055118110236,
          "duration": 0.2216801604166676
        },
        {
          "name": "E3",
          "midi": 52,
          "time": 166.6409804999996,
          "velocity": 0.7559055118110236,
          "duration": 0.2216801604166676
        },
        {
          "name": "C#3",
          "midi": 49,
          "time": 166.8753559999996,
          "velocity": 0.7559055118110236,
          "duration": 0.44433688541667493
        },
        {
          "name": "G#3",
          "midi": 56,
          "time": 167.3441069999996,
          "velocity": 0.7559055118110236,
          "duration": 0.2216801604166676
        },
        {
          "name": "C#4",
          "midi": 61,
          "time": 167.3441069999996,
          "velocity": 0.7559055118110236,
          "duration": 0.2216801604166676
        },
        {
          "name": "C#3",
          "midi": 49,
          "time": 167.5784824999996,
          "velocity": 0.7559055118110236,
          "duration": 0.2216801604166676
        },
        {
          "name": "C#3",
          "midi": 49,
          "time": 168.0472334999996,
          "velocity": 0.7559055118110236,
          "duration": 0.2216801604166676
        },
        {
          "name": "G#3",
          "midi": 56,
          "time": 168.2816089999996,
          "velocity": 0.7559055118110236,
          "duration": 0.2216801604166676
        },
        {
          "name": "C#4",
          "midi": 61,
          "time": 168.2816089999996,
          "velocity": 0.7559055118110236,
          "duration": 0.2216801604166676
        },
        {
          "name": "C#3",
          "midi": 49,
          "time": 168.5159844999996,
          "velocity": 0.7559055118110236,
          "duration": 0.2216801604166676
        },
        {
          "name": "F#3",
          "midi": 54,
          "time": 168.7503599999996,
          "velocity": 0.7559055118110236,
          "duration": 0.44433688541667493
        },
        {
          "name": "C#4",
          "midi": 61,
          "time": 169.2191109999996,
          "velocity": 0.7559055118110236,
          "duration": 0.2216801604166676
        },
        {
          "name": "F#4",
          "midi": 66,
          "time": 169.2191109999996,
          "velocity": 0.7559055118110236,
          "duration": 0.2216801604166676
        },
        {
          "name": "F#3",
          "midi": 54,
          "time": 169.4534864999996,
          "velocity": 0.7559055118110236,
          "duration": 0.2216801604166676
        },
        {
          "name": "F#3",
          "midi": 54,
          "time": 169.9222374999996,
          "velocity": 0.7559055118110236,
          "duration": 0.2216801604166676
        },
        {
          "name": "C#4",
          "midi": 61,
          "time": 170.1566129999996,
          "velocity": 0.7559055118110236,
          "duration": 0.2216801604166676
        },
        {
          "name": "F#4",
          "midi": 66,
          "time": 170.1566129999996,
          "velocity": 0.7559055118110236,
          "duration": 0.2216801604166676
        },
        {
          "name": "F#3",
          "midi": 54,
          "time": 170.3909884999996,
          "velocity": 0.7559055118110236,
          "duration": 0.2216801604166676
        },
        {
          "name": "D3",
          "midi": 50,
          "time": 170.6253639999996,
          "velocity": 0.7559055118110236,
          "duration": 0.44433688541667493
        },
        {
          "name": "A3",
          "midi": 57,
          "time": 171.0941149999996,
          "velocity": 0.7559055118110236,
          "duration": 0.2216801604166676
        },
        {
          "name": "D4",
          "midi": 62,
          "time": 171.0941149999996,
          "velocity": 0.7559055118110236,
          "duration": 0.2216801604166676
        },
        {
          "name": "D3",
          "midi": 50,
          "time": 171.3284904999996,
          "velocity": 0.7559055118110236,
          "duration": 0.2216801604166676
        },
        {
          "name": "D3",
          "midi": 50,
          "time": 171.7972414999996,
          "velocity": 0.7559055118110236,
          "duration": 0.2216801604166676
        },
        {
          "name": "A3",
          "midi": 57,
          "time": 172.03161699999959,
          "velocity": 0.7559055118110236,
          "duration": 0.2216801604166676
        },
        {
          "name": "D4",
          "midi": 62,
          "time": 172.03161699999959,
          "velocity": 0.7559055118110236,
          "duration": 0.2216801604166676
        },
        {
          "name": "D3",
          "midi": 50,
          "time": 172.26599249999958,
          "velocity": 0.7559055118110236,
          "duration": 0.2216801604166676
        },
        {
          "name": "E3",
          "midi": 52,
          "time": 172.50036799999958,
          "velocity": 0.7559055118110236,
          "duration": 0.44433688541667493
        },
        {
          "name": "B3",
          "midi": 59,
          "time": 172.96911899999958,
          "velocity": 0.7559055118110236,
          "duration": 0.2216801604166676
        },
        {
          "name": "E4",
          "midi": 64,
          "time": 172.96911899999958,
          "velocity": 0.7559055118110236,
          "duration": 0.2216801604166676
        },
        {
          "name": "E3",
          "midi": 52,
          "time": 173.20349449999958,
          "velocity": 0.7559055118110236,
          "duration": 0.2216801604166676
        },
        {
          "name": "E3",
          "midi": 52,
          "time": 173.67224549999958,
          "velocity": 0.7559055118110236,
          "duration": 0.2216801604166676
        },
        {
          "name": "E4",
          "midi": 64,
          "time": 173.90662099999957,
          "velocity": 0.7559055118110236,
          "duration": 0.2216801604166676
        },
        {
          "name": "E3",
          "midi": 52,
          "time": 174.14099649999957,
          "velocity": 0.7559055118110236,
          "duration": 0.2216801604166676
        },
        {
          "name": "C#3",
          "midi": 49,
          "time": 174.37537199999957,
          "velocity": 0.7559055118110236,
          "duration": 0.44433688541667493
        },
        {
          "name": "G#3",
          "midi": 56,
          "time": 174.84412299999957,
          "velocity": 0.7559055118110236,
          "duration": 0.2216801604166676
        },
        {
          "name": "C#4",
          "midi": 61,
          "time": 174.84412299999957,
          "velocity": 0.7559055118110236,
          "duration": 0.2216801604166676
        },
        {
          "name": "C#3",
          "midi": 49,
          "time": 175.07849849999957,
          "velocity": 0.7559055118110236,
          "duration": 0.2216801604166676
        },
        {
          "name": "C#3",
          "midi": 49,
          "time": 175.54724949999957,
          "velocity": 0.7559055118110236,
          "duration": 0.2216801604166676
        },
        {
          "name": "G#3",
          "midi": 56,
          "time": 175.78162499999956,
          "velocity": 0.7559055118110236,
          "duration": 0.2216801604166676
        },
        {
          "name": "C#4",
          "midi": 61,
          "time": 175.78162499999956,
          "velocity": 0.7559055118110236,
          "duration": 0.2216801604166676
        },
        {
          "name": "C#3",
          "midi": 49,
          "time": 176.01600049999956,
          "velocity": 0.7559055118110236,
          "duration": 0.2216801604166676
        },
        {
          "name": "F#3",
          "midi": 54,
          "time": 176.25037599999956,
          "velocity": 0.7559055118110236,
          "duration": 0.44433688541667493
        },
        {
          "name": "C#4",
          "midi": 61,
          "time": 176.71912699999956,
          "velocity": 0.7559055118110236,
          "duration": 0.2216801604166676
        },
        {
          "name": "F#4",
          "midi": 66,
          "time": 176.71912699999956,
          "velocity": 0.7559055118110236,
          "duration": 0.2216801604166676
        },
        {
          "name": "F#3",
          "midi": 54,
          "time": 176.95350249999956,
          "velocity": 0.7559055118110236,
          "duration": 0.2216801604166676
        },
        {
          "name": "F#3",
          "midi": 54,
          "time": 177.42225349999956,
          "velocity": 0.7559055118110236,
          "duration": 0.2216801604166676
        },
        {
          "name": "C#4",
          "midi": 61,
          "time": 177.65662899999955,
          "velocity": 0.7559055118110236,
          "duration": 0.2216801604166676
        },
        {
          "name": "F#4",
          "midi": 66,
          "time": 177.65662899999955,
          "velocity": 0.7559055118110236,
          "duration": 0.2216801604166676
        },
        {
          "name": "F#3",
          "midi": 54,
          "time": 177.89100449999955,
          "velocity": 0.7559055118110236,
          "duration": 0.2216801604166676
        },
        {
          "name": "D3",
          "midi": 50,
          "time": 178.12537999999955,
          "velocity": 0.7559055118110236,
          "duration": 0.44433688541667493
        },
        {
          "name": "A3",
          "midi": 57,
          "time": 178.59413099999955,
          "velocity": 0.7559055118110236,
          "duration": 0.2216801604166676
        },
        {
          "name": "D4",
          "midi": 62,
          "time": 178.59413099999955,
          "velocity": 0.7559055118110236,
          "duration": 0.2216801604166676
        },
        {
          "name": "D3",
          "midi": 50,
          "time": 178.82850649999955,
          "velocity": 0.7559055118110236,
          "duration": 0.2216801604166676
        },
        {
          "name": "D3",
          "midi": 50,
          "time": 179.29725749999955,
          "velocity": 0.7559055118110236,
          "duration": 0.2216801604166676
        },
        {
          "name": "A3",
          "midi": 57,
          "time": 179.53163299999954,
          "velocity": 0.7559055118110236,
          "duration": 0.2216801604166676
        },
        {
          "name": "D4",
          "midi": 62,
          "time": 179.53163299999954,
          "velocity": 0.7559055118110236,
          "duration": 0.2216801604166676
        },
        {
          "name": "D3",
          "midi": 50,
          "time": 179.76600849999954,
          "velocity": 0.7559055118110236,
          "duration": 0.2216801604166676
        },
        {
          "name": "E3",
          "midi": 52,
          "time": 180.00038399999954,
          "velocity": 0.7559055118110236,
          "duration": 0.44433688541667493
        },
        {
          "name": "B3",
          "midi": 59,
          "time": 180.46913499999954,
          "velocity": 0.7559055118110236,
          "duration": 0.2216801604166676
        },
        {
          "name": "E4",
          "midi": 64,
          "time": 180.46913499999954,
          "velocity": 0.7559055118110236,
          "duration": 0.2216801604166676
        },
        {
          "name": "E3",
          "midi": 52,
          "time": 180.70351049999954,
          "velocity": 0.7559055118110236,
          "duration": 0.2216801604166676
        },
        {
          "name": "E3",
          "midi": 52,
          "time": 181.17226149999954,
          "velocity": 0.7559055118110236,
          "duration": 0.2216801604166676
        },
        {
          "name": "E4",
          "midi": 64,
          "time": 181.40663699999953,
          "velocity": 0.7559055118110236,
          "duration": 0.2216801604166676
        },
        {
          "name": "E3",
          "midi": 52,
          "time": 181.64101249999953,
          "velocity": 0.7559055118110236,
          "duration": 0.2216801604166676
        },
        {
          "name": "C#3",
          "midi": 49,
          "time": 181.87538799999953,
          "velocity": 0.7559055118110236,
          "duration": 0.44433688541667493
        },
        {
          "name": "G#3",
          "midi": 56,
          "time": 182.34413899999953,
          "velocity": 0.7559055118110236,
          "duration": 0.2216801604166676
        },
        {
          "name": "C#4",
          "midi": 61,
          "time": 182.34413899999953,
          "velocity": 0.7559055118110236,
          "duration": 0.2216801604166676
        },
        {
          "name": "C#3",
          "midi": 49,
          "time": 182.57851449999953,
          "velocity": 0.7559055118110236,
          "duration": 0.2216801604166676
        },
        {
          "name": "C#3",
          "midi": 49,
          "time": 183.04726549999953,
          "velocity": 0.7559055118110236,
          "duration": 0.2216801604166676
        },
        {
          "name": "G#3",
          "midi": 56,
          "time": 183.28164099999952,
          "velocity": 0.7559055118110236,
          "duration": 0.2216801604166676
        },
        {
          "name": "C#4",
          "midi": 61,
          "time": 183.28164099999952,
          "velocity": 0.7559055118110236,
          "duration": 0.2216801604166676
        },
        {
          "name": "C#3",
          "midi": 49,
          "time": 183.51601649999952,
          "velocity": 0.7559055118110236,
          "duration": 0.2216801604166676
        },
        {
          "name": "F#3",
          "midi": 54,
          "time": 183.75039199999952,
          "velocity": 0.7559055118110236,
          "duration": 0.44433688541667493
        },
        {
          "name": "C#4",
          "midi": 61,
          "time": 184.21914299999952,
          "velocity": 0.7559055118110236,
          "duration": 0.2216801604166676
        },
        {
          "name": "F#4",
          "midi": 66,
          "time": 184.21914299999952,
          "velocity": 0.7559055118110236,
          "duration": 0.2216801604166676
        },
        {
          "name": "F#3",
          "midi": 54,
          "time": 184.45351849999952,
          "velocity": 0.7559055118110236,
          "duration": 0.2216801604166676
        },
        {
          "name": "F#3",
          "midi": 54,
          "time": 184.92226949999952,
          "velocity": 0.5039370078740157,
          "duration": 0.2216801604166676
        },
        {
          "name": "C#4",
          "midi": 61,
          "time": 185.15664499999951,
          "velocity": 0.5039370078740157,
          "duration": 0.2216801604166676
        },
        {
          "name": "F#4",
          "midi": 66,
          "time": 185.15664499999951,
          "velocity": 0.5039370078740157,
          "duration": 0.2216801604166676
        },
        {
          "name": "F#3",
          "midi": 54,
          "time": 185.3910204999995,
          "velocity": 0.5039370078740157,
          "duration": 0.2216801604166676
        },
        {
          "name": "D3",
          "midi": 50,
          "time": 185.6253959999995,
          "velocity": 0.3858267716535433,
          "duration": 0.6669936104166538
        },
        {
          "name": "F#3",
          "midi": 54,
          "time": 185.6253959999995,
          "velocity": 0.3858267716535433,
          "duration": 0.6669936104166538
        },
        {
          "name": "A3",
          "midi": 57,
          "time": 185.6253959999995,
          "velocity": 0.3858267716535433,
          "duration": 0.6669936104166538
        },
        {
          "name": "F#3",
          "midi": 54,
          "time": 186.3285224999995,
          "velocity": 0.3858267716535433,
          "duration": 1.1123070604166685
        },
        {
          "name": "A3",
          "midi": 57,
          "time": 186.3285224999995,
          "velocity": 0.3858267716535433,
          "duration": 1.1123070604166685
        },
        {
          "name": "D4",
          "midi": 62,
          "time": 186.3285224999995,
          "velocity": 0.3858267716535433,
          "duration": 1.1123070604166685
        },
        {
          "name": "E3",
          "midi": 52,
          "time": 187.5003999999995,
          "velocity": 0.3858267716535433,
          "duration": 0.6669936104166538
        },
        {
          "name": "G#3",
          "midi": 56,
          "time": 187.5003999999995,
          "velocity": 0.3858267716535433,
          "duration": 0.6669936104166538
        },
        {
          "name": "B3",
          "midi": 59,
          "time": 187.5003999999995,
          "velocity": 0.3858267716535433,
          "duration": 0.6669936104166538
        },
        {
          "name": "G#3",
          "midi": 56,
          "time": 188.2035264999995,
          "velocity": 0.3858267716535433,
          "duration": 1.1123070604166685
        },
        {
          "name": "B3",
          "midi": 59,
          "time": 188.2035264999995,
          "velocity": 0.3858267716535433,
          "duration": 1.1123070604166685
        },
        {
          "name": "D4",
          "midi": 62,
          "time": 188.2035264999995,
          "velocity": 0.3858267716535433,
          "duration": 1.1123070604166685
        },
        {
          "name": "C#3",
          "midi": 49,
          "time": 189.3754039999995,
          "velocity": 0.3858267716535433,
          "duration": 0.6669936104166538
        },
        {
          "name": "E3",
          "midi": 52,
          "time": 189.3754039999995,
          "velocity": 0.3858267716535433,
          "duration": 0.6669936104166538
        },
        {
          "name": "G#3",
          "midi": 56,
          "time": 189.3754039999995,
          "velocity": 0.3858267716535433,
          "duration": 0.6669936104166538
        },
        {
          "name": "E3",
          "midi": 52,
          "time": 190.0785304999995,
          "velocity": 0.3858267716535433,
          "duration": 1.1123070604166685
        },
        {
          "name": "G#3",
          "midi": 56,
          "time": 190.0785304999995,
          "velocity": 0.3858267716535433,
          "duration": 1.1123070604166685
        },
        {
          "name": "B3",
          "midi": 59,
          "time": 190.0785304999995,
          "velocity": 0.3858267716535433,
          "duration": 1.1123070604166685
        },
        {
          "name": "C#3",
          "midi": 49,
          "time": 191.25040799999948,
          "velocity": 0.3858267716535433,
          "duration": 0.6669936104166538
        },
        {
          "name": "F#3",
          "midi": 54,
          "time": 191.25040799999948,
          "velocity": 0.3858267716535433,
          "duration": 0.6669936104166538
        },
        {
          "name": "A3",
          "midi": 57,
          "time": 191.25040799999948,
          "velocity": 0.3858267716535433,
          "duration": 0.6669936104166538
        },
        {
          "name": "F#3",
          "midi": 54,
          "time": 191.95353449999948,
          "velocity": 0.3858267716535433,
          "duration": 1.1123070604166685
        },
        {
          "name": "A3",
          "midi": 57,
          "time": 191.95353449999948,
          "velocity": 0.3858267716535433,
          "duration": 1.1123070604166685
        },
        {
          "name": "C#4",
          "midi": 61,
          "time": 191.95353449999948,
          "velocity": 0.3858267716535433,
          "duration": 1.1123070604166685
        },
        {
          "name": "D3",
          "midi": 50,
          "time": 193.12541199999947,
          "velocity": 0.3858267716535433,
          "duration": 0.6669936104166538
        },
        {
          "name": "F#3",
          "midi": 54,
          "time": 193.12541199999947,
          "velocity": 0.3858267716535433,
          "duration": 0.6669936104166538
        },
        {
          "name": "A3",
          "midi": 57,
          "time": 193.12541199999947,
          "velocity": 0.3858267716535433,
          "duration": 0.6669936104166538
        },
        {
          "name": "F#3",
          "midi": 54,
          "time": 193.82853849999947,
          "velocity": 0.3858267716535433,
          "duration": 1.1123070604166685
        },
        {
          "name": "A3",
          "midi": 57,
          "time": 193.82853849999947,
          "velocity": 0.3858267716535433,
          "duration": 1.1123070604166685
        },
        {
          "name": "D4",
          "midi": 62,
          "time": 193.82853849999947,
          "velocity": 0.3858267716535433,
          "duration": 1.1123070604166685
        },
        {
          "name": "E3",
          "midi": 52,
          "time": 195.00041599999946,
          "velocity": 0.3858267716535433,
          "duration": 0.6669936104166538
        },
        {
          "name": "G#3",
          "midi": 56,
          "time": 195.00041599999946,
          "velocity": 0.3858267716535433,
          "duration": 0.6669936104166538
        },
        {
          "name": "B3",
          "midi": 59,
          "time": 195.00041599999946,
          "velocity": 0.3858267716535433,
          "duration": 0.6669936104166538
        },
        {
          "name": "G#3",
          "midi": 56,
          "time": 195.70354249999946,
          "velocity": 0.3858267716535433,
          "duration": 1.1123070604166685
        },
        {
          "name": "B3",
          "midi": 59,
          "time": 195.70354249999946,
          "velocity": 0.3858267716535433,
          "duration": 1.1123070604166685
        },
        {
          "name": "D4",
          "midi": 62,
          "time": 195.70354249999946,
          "velocity": 0.3858267716535433,
          "duration": 1.1123070604166685
        },
        {
          "name": "C#3",
          "midi": 49,
          "time": 196.87541999999945,
          "velocity": 0.3858267716535433,
          "duration": 1.8740274354166502
        },
        {
          "name": "E3",
          "midi": 52,
          "time": 196.9408498270828,
          "velocity": 0.3858267716535433,
          "duration": 1.8076210437499753
        },
        {
          "name": "G#3",
          "midi": 56,
          "time": 197.00627965416612,
          "velocity": 0.3858267716535433,
          "duration": 1.7421912166666402
        },
        {
          "name": "C#4",
          "midi": 61,
          "time": 197.0736626104161,
          "velocity": 0.3858267716535433,
          "duration": 1.674808260416654
        },
        {
          "name": "C#3",
          "midi": 49,
          "time": 198.75042399999944,
          "velocity": 0.3858267716535433,
          "duration": 1.8740274354166502
        },
        {
          "name": "F#3",
          "midi": 54,
          "time": 198.81585382708278,
          "velocity": 0.3858267716535433,
          "duration": 1.8076210437499753
        },
        {
          "name": "A3",
          "midi": 57,
          "time": 198.8812836541661,
          "velocity": 0.3858267716535433,
          "duration": 1.7421912166666402
        },
        {
          "name": "C#4",
          "midi": 61,
          "time": 198.9486666104161,
          "velocity": 0.3858267716535433,
          "duration": 1.674808260416654
        }
      ]
    }
  ]
}
