{"header":{"title":"Stay","artist":"BLACKPINK","source":"https://musescore.com/user/29005619/scores/5197546","bpm":89.9999550000225,"duration":226.53205771041806},"tracks":[{"instrument_number":0,"notes":[{"name":"C#5","midi":73,"time":2.000001,"velocity":0.25984251968503935,"duration":0.3152779354166668},{"name":"C5","midi":72,"time":2.3333345000000003,"velocity":0.25984251968503935,"duration":0.3152779354166668},{"name":"A#4","midi":70,"time":2.6666680000000005,"velocity":0.25984251968503935,"duration":0.6319447604166668},{"name":"F#5","midi":78,"time":4.000002,"velocity":0.25984251968503935,"duration":0.6319447604166664},{"name":"C#5","midi":73,"time":4.666669,"velocity":0.2755905511811024,"duration":0.1569445229166666},{"name":"D#5","midi":75,"time":4.83333575,"velocity":0.2755905511811024,"duration":0.47361134791666704},{"name":"C#5","midi":73,"time":5.333336,"velocity":0.29133858267716534,"duration":1.2652784104166672},{"name":"C#5","midi":73,"time":7.000003500000001,"velocity":0.33070866141732286,"duration":0.3152779354166668},{"name":"A#5","midi":82,"time":7.333337000000001,"velocity":0.3464566929133858,"duration":0.3152779354166668},{"name":"A#5","midi":82,"time":7.666670500000001,"velocity":0.3543307086614173,"duration":0.6319447604166664},{"name":"G#5","midi":80,"time":8.3333375,"velocity":0.3700787401574803,"duration":0.9486115854166659},{"name":"F5","midi":77,"time":10.000005,"velocity":0.4094488188976378,"duration":0.6319447604166673},{"name":"C#5","midi":73,"time":10.666672,"velocity":0.4330708661417323,"duration":1.2652784104166663},{"name":"D#5","midi":75,"time":13.6666735,"velocity":0.5039370078740157,"duration":0.1569445229166675},{"name":"D#5","midi":75,"time":13.833340250000001,"velocity":0.5039370078740157,"duration":0.1569445229166675},{"name":"D#5","midi":75,"time":14.000007000000002,"velocity":0.5039370078740157,"duration":0.3152779354166668},{"name":"D#5","midi":75,"time":14.333340500000002,"velocity":0.5039370078740157,"duration":0.1569445229166675},{"name":"D#5","midi":75,"time":14.500007250000003,"velocity":0.5039370078740157,"duration":0.1569445229166675},{"name":"D#5","midi":75,"time":14.666674000000004,"velocity":0.5039370078740157,"duration":0.3152779354166668},{"name":"D#5","midi":75,"time":15.000007500000004,"velocity":0.5039370078740157,"duration":0.1569445229166675},{"name":"D#5","midi":75,"time":15.166674250000005,"velocity":0.5039370078740157,"duration":0.1569445229166675},{"name":"D#5","midi":75,"time":15.333341000000006,"velocity":0.5039370078740157,"duration":0.3152779354166668},{"name":"D#5","midi":75,"time":15.666674500000006,"velocity":0.5039370078740157,"duration":0.1569445229166675},{"name":"D#5","midi":75,"time":15.833341250000007,"velocity":0.5039370078740157,"duration":0.1569445229166675},{"name":"D#5","midi":75,"time":16.00000800000001,"velocity":0.5039370078740157,"duration":0.3152779354166668},{"name":"D#5","midi":75,"time":16.333341500000007,"velocity":0.5039370078740157,"duration":0.3152779354166668},{"name":"F5","midi":77,"time":16.666675000000005,"velocity":0.5039370078740157,"duration":0.3152779354166668},{"name":"C#5","midi":73,"time":17.000008500000003,"velocity":0.5039370078740157,"duration":0.1569445229166675},{"name":"C#5","midi":73,"time":17.166675250000004,"velocity":0.5039370078740157,"duration":0.3152779354166668},{"name":"C#5","midi":73,"time":18.500009250000005,"velocity":0.5039370078740157,"duration":0.1569445229166675},{"name":"D#5","midi":75,"time":18.666676000000006,"velocity":0.5039370078740157,"duration":0.1569445229166675},{"name":"D#5","midi":75,"time":19.000009500000008,"velocity":0.5039370078740157,"duration":0.1569445229166675},{"name":"D#5","midi":75,"time":19.16667625000001,"velocity":0.5039370078740157,"duration":0.1569445229166675},{"name":"D#5","midi":75,"time":19.33334300000001,"velocity":0.5039370078740157,"duration":0.3152779354166668},{"name":"D#5","midi":75,"time":20.00001000000001,"velocity":0.5039370078740157,"duration":0.1569445229166675},{"name":"D#5","midi":75,"time":20.333343500000012,"velocity":0.5039370078740157,"duration":0.1569445229166675},{"name":"D#5","midi":75,"time":20.500010250000013,"velocity":0.5039370078740157,"duration":0.1569445229166675},{"name":"D#5","midi":75,"time":20.666677000000014,"velocity":0.5039370078740157,"duration":0.1569445229166675},{"name":"C#5","midi":73,"time":20.833343750000015,"velocity":0.5039370078740157,"duration":0.1569445229166675},{"name":"C#5","midi":73,"time":21.000010500000016,"velocity":0.5039370078740157,"duration":0.3152779354166668},{"name":"D#5","midi":75,"time":21.333344000000015,"velocity":0.5039370078740157,"duration":0.3152779354166668},{"name":"D#5","midi":75,"time":21.666677500000013,"velocity":0.5039370078740157,"duration":0.1569445229166675},{"name":"D#5","midi":75,"time":21.833344250000014,"velocity":0.5039370078740157,"duration":0.1569445229166675},{"name":"F5","midi":77,"time":22.000011000000015,"velocity":0.5039370078740157,"duration":0.1569445229166675},{"name":"D#5","midi":75,"time":22.166677750000016,"velocity":0.5039370078740157,"duration":0.1569445229166675},{"name":"C#5","midi":73,"time":22.333344500000017,"velocity":0.5039370078740157,"duration":0.1569445229166675},{"name":"C#5","midi":73,"time":22.500011250000018,"velocity":0.5039370078740157,"duration":0.6319447604166655},{"name":"D#5","midi":75,"time":24.000012000000016,"velocity":0.5039370078740157,"duration":0.1569445229166675},{"name":"D#5","midi":75,"time":24.166678750000017,"velocity":0.5039370078740157,"duration":0.1569445229166675},{"name":"D#5","midi":75,"time":24.333345500000018,"velocity":0.5039370078740157,"duration":0.1569445229166675},{"name":"D#5","midi":75,"time":24.50001225000002,"velocity":0.5039370078740157,"duration":0.1569445229166675},{"name":"D#5","midi":75,"time":24.66667900000002,"velocity":0.5039370078740157,"duration":0.3152779354166668},{"name":"D#5","midi":75,"time":25.33334600000002,"velocity":0.5039370078740157,"duration":0.3152779354166668},{"name":"D#5","midi":75,"time":25.66667950000002,"velocity":0.5039370078740157,"duration":0.3152779354166668},{"name":"D#5","midi":75,"time":26.000013000000017,"velocity":0.5039370078740157,"duration":0.1569445229166675},{"name":"D#5","midi":75,"time":26.166679750000018,"velocity":0.5039370078740157,"duration":0.3152779354166668},{"name":"C#5","midi":73,"time":26.500013250000016,"velocity":0.5039370078740157,"duration":0.3152779354166668},{"name":"C#5","midi":73,"time":27.000013500000016,"velocity":0.5039370078740157,"duration":0.3152779354166668},{"name":"C#5","midi":73,"time":27.333347000000014,"velocity":0.5039370078740157,"duration":0.1569445229166675},{"name":"C#5","midi":73,"time":27.500013750000015,"velocity":0.5039370078740157,"duration":0.1569445229166675},{"name":"F5","midi":77,"time":27.666680500000016,"velocity":0.5039370078740157,"duration":0.3152779354166668},{"name":"F5","midi":77,"time":28.000014000000014,"velocity":0.5039370078740157,"duration":0.3152779354166668},{"name":"F5","midi":77,"time":28.666681000000015,"velocity":0.5039370078740157,"duration":0.3152779354166668},{"name":"D#5","midi":75,"time":29.000014500000013,"velocity":0.5039370078740157,"duration":0.3152779354166668},{"name":"C#5","midi":73,"time":30.000015000000012,"velocity":0.5039370078740157,"duration":0.3152779354166668},{"name":"C#5","midi":73,"time":30.33334850000001,"velocity":0.5039370078740157,"duration":0.3152779354166668},{"name":"C#5","midi":73,"time":31.33334900000001,"velocity":0.5039370078740157,"duration":0.3152779354166668},{"name":"C#5","midi":73,"time":31.83334925000001,"velocity":0.5039370078740157,"duration":0.31527793541666327},{"name":"D#5","midi":75,"time":35.000017500000006,"velocity":0.5039370078740157,"duration":0.3152779354166668},{"name":"D#5","midi":75,"time":35.33335100000001,"velocity":0.5039370078740157,"duration":0.3152779354166668},{"name":"D#5","midi":75,"time":36.000018000000004,"velocity":0.5039370078740157,"duration":0.3152779354166668},{"name":"D#5","midi":75,"time":36.333351500000006,"velocity":0.5039370078740157,"duration":0.1569445229166675},{"name":"C#5","midi":73,"time":36.500018250000004,"velocity":0.5039370078740157,"duration":0.1569445229166675},{"name":"D#5","midi":75,"time":36.666685,"velocity":0.5039370078740157,"duration":0.1569445229166675},{"name":"C#5","midi":73,"time":36.83335175,"velocity":0.5039370078740157,"duration":0.1569445229166675},{"name":"D#5","midi":75,"time":37.000018499999996,"velocity":0.5039370078740157,"duration":0.1569445229166675},{"name":"C#5","midi":73,"time":37.16668524999999,"velocity":0.5039370078740157,"duration":0.1569445229166675},{"name":"C#5","midi":73,"time":37.33335199999999,"velocity":0.5039370078740157,"duration":0.3152779354166668},{"name":"C#5","midi":73,"time":37.66668549999999,"velocity":0.5039370078740157,"duration":0.3152779354166668},{"name":"C#5","midi":73,"time":38.000018999999995,"velocity":0.5039370078740157,"duration":0.1569445229166675},{"name":"D#5","midi":75,"time":38.16668574999999,"velocity":0.5039370078740157,"duration":0.1569445229166675},{"name":"F5","midi":77,"time":38.33335249999999,"velocity":0.5039370078740157,"duration":0.1569445229166675},{"name":"F5","midi":77,"time":38.50001924999999,"velocity":0.5039370078740157,"duration":0.3152779354166668},{"name":"F5","midi":77,"time":39.33335299999999,"velocity":0.5039370078740157,"duration":0.3152779354166668},{"name":"D#5","midi":75,"time":39.66668649999999,"velocity":0.5039370078740157,"duration":0.3152779354166668},{"name":"D#5","midi":75,"time":40.33335349999999,"velocity":0.5039370078740157,"duration":0.3152779354166668},{"name":"D#5","midi":75,"time":40.66668699999999,"velocity":0.5039370078740157,"duration":0.3152779354166668},{"name":"D#5","midi":75,"time":41.333353999999986,"velocity":0.49606299212598426,"duration":0.3152779354166668},{"name":"D#5","midi":75,"time":41.66668749999999,"velocity":0.49606299212598426,"duration":0.1569445229166675},{"name":"C#5","midi":73,"time":41.833354249999985,"velocity":0.4881889763779528,"duration":0.1569445229166675},{"name":"D#5","midi":75,"time":42.00002099999998,"velocity":0.4881889763779528,"duration":0.1569445229166675},{"name":"C#5","midi":73,"time":42.16668774999998,"velocity":0.4881889763779528,"duration":0.1569445229166675},{"name":"D#5","midi":75,"time":42.33335449999998,"velocity":0.4881889763779528,"duration":0.1569445229166675},{"name":"C#5","midi":73,"time":42.500021249999975,"velocity":0.48031496062992124,"duration":0.1569445229166675},{"name":"C#5","midi":73,"time":42.66668799999997,"velocity":0.48031496062992124,"duration":0.3152779354166668},{"name":"C#5","midi":73,"time":43.000021499999974,"velocity":0.48031496062992124,"duration":0.3152779354166668},{"name":"C#5","midi":73,"time":43.333354999999976,"velocity":0.47244094488188976,"duration":0.1569445229166675},{"name":"C#5","midi":73,"time":43.66668849999998,"velocity":0.47244094488188976,"duration":0.1569445229166675},{"name":"A#4","midi":70,"time":43.833355249999975,"velocity":0.4645669291338583,"duration":0.1569445229166675},{"name":"F5","midi":77,"time":44.66668899999998,"velocity":0.4566929133858268,"duration":0.3152779354166668},{"name":"D#5","midi":75,"time":45.00002249999998,"velocity":0.4566929133858268,"duration":0.3152779354166668},{"name":"C#5","midi":73,"time":45.50002274999998,"velocity":0.44881889763779526,"duration":0.1569445229166675},{"name":"G#5","midi":80,"time":45.666689499999976,"velocity":0.44881889763779526,"duration":0.1569445229166675},{"name":"F#5","midi":78,"time":45.83335624999997,"velocity":0.44881889763779526,"duration":0.1569445229166675},{"name":"F#5","midi":78,"time":46.00002299999997,"velocity":0.4409448818897638,"duration":0.1569445229166675},{"name":"F5","midi":77,"time":46.16668974999997,"velocity":0.4409448818897638,"duration":0.1569445229166675},{"name":"F5","midi":77,"time":46.333356499999965,"velocity":0.4409448818897638,"duration":0.1569445229166675},{"name":"D#5","midi":75,"time":46.50002324999996,"velocity":0.4409448818897638,"duration":0.1569445229166675},{"name":"D#5","midi":75,"time":46.66668999999996,"velocity":0.4330708661417323,"duration":0.1569445229166675},{"name":"C#5","midi":73,"time":46.83335674999996,"velocity":0.4330708661417323,"duration":0.1569445229166675},{"name":"D#5","midi":75,"time":47.000023499999955,"velocity":0.4330708661417323,"duration":0.1569445229166675},{"name":"C#5","midi":73,"time":47.16669024999995,"velocity":0.4330708661417323,"duration":0.1569445229166675},{"name":"D#5","midi":75,"time":47.33335699999995,"velocity":0.4251968503937008,"duration":0.3152779354166668},{"name":"C#5","midi":73,"time":47.66669049999995,"velocity":0.4251968503937008,"duration":0.3152779354166668},{"name":"C#5","midi":73,"time":48.33335749999995,"velocity":0.41732283464566927,"duration":0.1569445229166675},{"name":"C#5","midi":73,"time":48.500024249999946,"velocity":0.41732283464566927,"duration":0.1569445229166675},{"name":"C#5","midi":73,"time":48.66669099999994,"velocity":0.4094488188976378,"duration":0.3152779354166668},{"name":"A#4","midi":70,"time":49.000024499999945,"velocity":0.4094488188976378,"duration":0.3152779354166668},{"name":"C#5","midi":73,"time":49.33335799999995,"velocity":0.4015748031496063,"duration":0.3152779354166668},{"name":"C#5","midi":73,"time":50.000024999999944,"velocity":0.3937007874015748,"duration":0.1569445229166675},{"name":"C#5","midi":73,"time":50.333358499999946,"velocity":0.3937007874015748,"duration":0.3152779354166668},{"name":"G#5","midi":80,"time":50.66669199999995,"velocity":0.3858267716535433,"duration":0.9486115854166641},{"name":"A#5","midi":82,"time":52.00002599999995,"velocity":0.3858267716535433,"duration":0.6319447604166655},{"name":"D#5","midi":75,"time":52.666692999999945,"velocity":0.3858267716535433,"duration":0.3152779354166668},{"name":"C#5","midi":73,"time":53.00002649999995,"velocity":0.3858267716535433,"duration":0.3152779354166668},{"name":"C#5","midi":73,"time":53.33335999999995,"velocity":0.3858267716535433,"duration":0.9486115854166641},{"name":"G#5","midi":80,"time":56.333361499999945,"velocity":0.3858267716535433,"duration":0.3152779354166668},{"name":"G#5","midi":80,"time":56.66669499999995,"velocity":0.3937007874015748,"duration":0.3152779354166668},{"name":"G#5","midi":80,"time":57.00002849999995,"velocity":0.4015748031496063,"duration":0.3152779354166668},{"name":"G#5","midi":80,"time":57.33336199999995,"velocity":0.4094488188976378,"duration":0.1569445229166675},{"name":"F#5","midi":78,"time":57.50002874999995,"velocity":0.41732283464566927,"duration":0.1569445229166675},{"name":"F#5","midi":78,"time":57.83336224999995,"velocity":0.4251968503937008,"duration":0.3152779354166668},{"name":"F5","midi":77,"time":58.16669574999995,"velocity":0.4330708661417323,"duration":0.3152779354166668},{"name":"F#5","midi":78,"time":58.500029249999955,"velocity":0.4409448818897638,"duration":0.3152779354166668},{"name":"F5","midi":77,"time":58.83336274999996,"velocity":0.4409448818897638,"duration":0.3152779354166668},{"name":"C#5","midi":73,"time":59.16669624999996,"velocity":0.44881889763779526,"duration":0.3152779354166668},{"name":"G#5","midi":80,"time":61.666697499999955,"velocity":0.5039370078740157,"duration":0.3152779354166668},{"name":"G#5","midi":80,"time":62.00003099999996,"velocity":0.5039370078740157,"duration":0.3152779354166668},{"name":"G#5","midi":80,"time":62.33336449999996,"velocity":0.5039370078740157,"duration":0.3152779354166668},{"name":"G#5","midi":80,"time":62.66669799999996,"velocity":0.5039370078740157,"duration":0.1569445229166675},{"name":"F#5","midi":78,"time":62.83336474999996,"velocity":0.5039370078740157,"duration":0.1569445229166675},{"name":"F#5","midi":78,"time":63.16669824999996,"velocity":0.5039370078740157,"duration":0.3152779354166668},{"name":"F5","midi":77,"time":63.50003174999996,"velocity":0.5039370078740157,"duration":0.3152779354166668},{"name":"G#5","midi":80,"time":63.833365249999964,"velocity":0.5039370078740157,"duration":0.47361134791666615},{"name":"A#5","midi":82,"time":65.00003249999996,"velocity":0.5039370078740157,"duration":0.3152779354166597},{"name":"G#5","midi":80,"time":65.33336599999996,"velocity":0.5039370078740157,"duration":0.47361134791667325},{"name":"G#5","midi":80,"time":67.00003349999996,"velocity":0.6299212598425197,"duration":0.3152779354166597},{"name":"G#5","midi":80,"time":67.33336699999995,"velocity":0.6299212598425197,"duration":0.3152779354166597},{"name":"G#5","midi":80,"time":67.66670049999995,"velocity":0.6299212598425197,"duration":0.3152779354166597},{"name":"G#5","midi":80,"time":68.00003399999994,"velocity":0.6299212598425197,"duration":0.1569445229166604},{"name":"F#5","midi":78,"time":68.16670074999993,"velocity":0.6299212598425197,"duration":0.1569445229166604},{"name":"F#5","midi":78,"time":68.50003424999993,"velocity":0.6299212598425197,"duration":0.3152779354166597},{"name":"F5","midi":77,"time":68.83336774999992,"velocity":0.6299212598425197,"duration":0.3152779354166597},{"name":"F#5","midi":78,"time":69.16670124999992,"velocity":0.6299212598425197,"duration":0.3152779354166597},{"name":"F5","midi":77,"time":69.50003474999991,"velocity":0.6299212598425197,"duration":0.3152779354166597},{"name":"C#5","midi":73,"time":69.83336824999991,"velocity":0.6299212598425197,"duration":0.7902781729166719},{"name":"C#5","midi":73,"time":71.33336899999992,"velocity":0.6299212598425197,"duration":0.3152779354166597},{"name":"C#5","midi":73,"time":71.66670249999991,"velocity":0.6299212598425197,"duration":0.6319447604166726},{"name":"D#5","midi":75,"time":72.66670299999993,"velocity":0.6299212598425197,"duration":0.3152779354166597},{"name":"D#5","midi":75,"time":73.00003649999992,"velocity":0.6299212598425197,"duration":0.6319447604166726},{"name":"F#5","midi":78,"time":73.66670349999993,"velocity":0.6299212598425197,"duration":0.3152779354166597},{"name":"F#5","midi":78,"time":74.00003699999992,"velocity":0.6299212598425197,"duration":0.3152779354166597},{"name":"F#5","midi":78,"time":74.33337049999992,"velocity":0.6299212598425197,"duration":0.6319447604166726},{"name":"G#5","midi":80,"time":75.00003749999992,"velocity":0.6299212598425197,"duration":0.6319447604166726},{"name":"A#5","midi":82,"time":76.00003799999993,"velocity":0.7559055118110236,"duration":0.3152779354166597},{"name":"A#5","midi":82,"time":76.33337149999993,"velocity":0.7559055118110236,"duration":0.3152779354166597},{"name":"A#5","midi":82,"time":76.66670499999992,"velocity":0.7559055118110236,"duration":0.3152779354166597},{"name":"G#5","midi":80,"time":77.00003849999992,"velocity":0.7559055118110236,"duration":0.3152779354166597},{"name":"F5","midi":77,"time":77.33337199999991,"velocity":0.7559055118110236,"duration":0.3152779354166597},{"name":"F5","midi":77,"time":77.6667054999999,"velocity":0.7559055118110236,"duration":0.3152779354166597},{"name":"F5","midi":77,"time":78.0000389999999,"velocity":0.7559055118110236,"duration":0.1569445229166604},{"name":"F5","midi":77,"time":78.16670574999989,"velocity":0.7559055118110236,"duration":0.3152779354166597},{"name":"F5","midi":77,"time":78.50003924999989,"velocity":0.7559055118110236,"duration":0.1569445229166604},{"name":"F#5","midi":78,"time":78.66670599999988,"velocity":0.7559055118110236,"duration":0.3152779354166597},{"name":"F#5","midi":78,"time":79.00003949999987,"velocity":0.7559055118110236,"duration":0.3152779354166597},{"name":"F#5","midi":78,"time":79.33337299999987,"velocity":0.7559055118110236,"duration":0.1569445229166604},{"name":"F#5","midi":78,"time":79.50003974999986,"velocity":0.7559055118110236,"duration":0.47361134791667325},{"name":"F5","midi":77,"time":80.00003999999987,"velocity":0.7559055118110236,"duration":0.3152779354166597},{"name":"F5","midi":77,"time":80.33337349999987,"velocity":0.7559055118110236,"duration":0.1569445229166604},{"name":"F5","midi":77,"time":80.50004024999986,"velocity":0.7559055118110236,"duration":0.1569445229166604},{"name":"D#5","midi":75,"time":80.66670699999985,"velocity":0.7559055118110236,"duration":0.1569445229166604},{"name":"D#5","midi":75,"time":80.83337374999984,"velocity":0.7559055118110236,"duration":0.1569445229166604},{"name":"C#5","midi":73,"time":81.00004049999983,"velocity":0.7559055118110236,"duration":0.1569445229166604},{"name":"D#5","midi":75,"time":81.16670724999982,"velocity":0.7559055118110236,"duration":0.47361134791667325},{"name":"D#5","midi":75,"time":82.00004099999983,"velocity":0.7559055118110236,"duration":0.3152779354166597},{"name":"C#5","midi":73,"time":82.33337449999982,"velocity":0.7559055118110236,"duration":0.3152779354166597},{"name":"F5","midi":77,"time":82.66670799999982,"velocity":0.8818897637795275,"duration":0.3152779354166597},{"name":"F5","midi":77,"time":83.00004149999981,"velocity":0.8818897637795275,"duration":0.3152779354166597},{"name":"F5","midi":77,"time":83.3333749999998,"velocity":0.8818897637795275,"duration":0.1569445229166604},{"name":"F5","midi":77,"time":83.5000417499998,"velocity":0.8818897637795275,"duration":0.3152779354166597},{"name":"F5","midi":77,"time":83.83337524999979,"velocity":0.8818897637795275,"duration":0.1569445229166604},{"name":"F#5","midi":78,"time":84.00004199999978,"velocity":0.8818897637795275,"duration":0.3152779354166597},{"name":"F#5","midi":78,"time":84.33337549999978,"velocity":0.8818897637795275,"duration":0.3152779354166597},{"name":"F#5","midi":78,"time":84.66670899999977,"velocity":0.8818897637795275,"duration":0.1569445229166604},{"name":"F#5","midi":78,"time":84.83337574999976,"velocity":0.8818897637795275,"duration":0.3152779354166597},{"name":"F5","midi":77,"time":85.33337599999976,"velocity":0.8818897637795275,"duration":0.3152779354166597},{"name":"F5","midi":77,"time":85.66670949999975,"velocity":0.8818897637795275,"duration":0.1569445229166604},{"name":"F5","midi":77,"time":85.83337624999974,"velocity":0.8818897637795275,"duration":0.1569445229166604},{"name":"G#5","midi":80,"time":86.00004299999974,"velocity":0.8818897637795275,"duration":0.1569445229166604},{"name":"F#5","midi":78,"time":86.16670974999973,"velocity":0.8818897637795275,"duration":0.1569445229166604},{"name":"F5","midi":77,"time":86.33337649999972,"velocity":0.8818897637795275,"duration":0.1569445229166604},{"name":"D#5","midi":75,"time":86.5000432499997,"velocity":0.8818897637795275,"duration":0.3152779354166597},{"name":"D#5","midi":75,"time":87.3333769999997,"velocity":0.8818897637795275,"duration":0.3152779354166597},{"name":"C#5","midi":73,"time":87.6667104999997,"velocity":0.8818897637795275,"duration":0.3152779354166597},{"name":"G#5","midi":80,"time":88.00004399999969,"velocity":0.9921259842519685,"duration":0.47361134791667325},{"name":"F5","midi":77,"time":88.5000442499997,"velocity":0.9921259842519685,"duration":0.47361134791667325},{"name":"D#5","midi":75,"time":89.00004449999972,"velocity":0.9921259842519685,"duration":0.47361134791667325},{"name":"C#5","midi":73,"time":89.50004474999973,"velocity":0.9921259842519685,"duration":0.47361134791667325},{"name":"F#5","midi":78,"time":90.00004499999974,"velocity":0.9921259842519685,"duration":0.3152779354166597},{"name":"F5","midi":77,"time":90.33337849999974,"velocity":0.9921259842519685,"duration":0.3152779354166597},{"name":"F5","midi":77,"time":90.66671199999973,"velocity":0.9921259842519685,"duration":0.3152779354166597},{"name":"D#5","midi":75,"time":91.16671224999973,"velocity":0.9921259842519685,"duration":0.3152779354166597},{"name":"C#5","midi":73,"time":91.66671249999973,"velocity":0.9921259842519685,"duration":0.3152779354166597},{"name":"C#5","midi":73,"time":92.00004599999973,"velocity":0.9921259842519685,"duration":0.1569445229166604},{"name":"C5","midi":72,"time":92.16671274999972,"velocity":0.9921259842519685,"duration":0.3152779354166597},{"name":"C#5","midi":73,"time":92.66671299999972,"velocity":0.9921259842519685,"duration":0.3152779354166597},{"name":"A#4","midi":70,"time":93.00004649999971,"velocity":0.9921259842519685,"duration":0.3152779354166597},{"name":"A#4","midi":70,"time":93.3333799999997,"velocity":0.9921259842519685,"duration":0.3152779354166597},{"name":"C#5","midi":73,"time":93.8333802499997,"velocity":0.9921259842519685,"duration":0.3152779354166597},{"name":"C#5","midi":73,"time":94.3333804999997,"velocity":0.9921259842519685,"duration":0.3152779354166597},{"name":"D#5","midi":75,"time":95.3333809999997,"velocity":0.9921259842519685,"duration":0.3152779354166597},{"name":"C#5","midi":73,"time":95.6667144999997,"velocity":0.9921259842519685,"duration":0.1569445229166604},{"name":"C#5","midi":73,"time":95.83338124999969,"velocity":0.9921259842519685,"duration":0.47361134791667325},{"name":"F5","midi":77,"time":99.00004949999969,"velocity":0.7559055118110236,"duration":0.1569445229166604},{"name":"F5","midi":77,"time":99.16671624999968,"velocity":0.7559055118110236,"duration":0.1569445229166604},{"name":"F5","midi":77,"time":99.33338299999967,"velocity":0.7559055118110236,"duration":0.1569445229166604},{"name":"D#5","midi":75,"time":99.50004974999966,"velocity":0.7559055118110236,"duration":0.1569445229166604},{"name":"C#5","midi":73,"time":99.66671649999965,"velocity":0.7559055118110236,"duration":0.1569445229166604},{"name":"D#5","midi":75,"time":99.83338324999964,"velocity":0.7559055118110236,"duration":0.3152779354166597},{"name":"D#5","midi":75,"time":100.33338349999964,"velocity":0.7559055118110236,"duration":0.1569445229166604},{"name":"D#5","midi":75,"time":100.50005024999963,"velocity":0.7559055118110236,"duration":0.1569445229166604},{"name":"D#5","midi":75,"time":100.66671699999962,"velocity":0.7559055118110236,"duration":0.1569445229166604},{"name":"F5","midi":77,"time":100.83338374999961,"velocity":0.7559055118110236,"duration":0.1569445229166604},{"name":"F#5","midi":78,"time":101.0000504999996,"velocity":0.7559055118110236,"duration":0.1569445229166604},{"name":"F5","midi":77,"time":101.16671724999959,"velocity":0.7559055118110236,"duration":0.3152779354166597},{"name":"F5","midi":77,"time":101.66671749999959,"velocity":0.7559055118110236,"duration":0.1569445229166604},{"name":"F5","midi":77,"time":101.83338424999958,"velocity":0.7559055118110236,"duration":0.1569445229166604},{"name":"F5","midi":77,"time":102.00005099999957,"velocity":0.7559055118110236,"duration":0.1569445229166604},{"name":"D#5","midi":75,"time":102.16671774999956,"velocity":0.7559055118110236,"duration":0.1569445229166604},{"name":"C#5","midi":73,"time":102.33338449999955,"velocity":0.7559055118110236,"duration":0.1569445229166604},{"name":"D#5","midi":75,"time":102.50005124999954,"velocity":0.7559055118110236,"duration":0.3152779354166597},{"name":"F5","midi":77,"time":104.33338549999954,"velocity":0.7559055118110236,"duration":0.1569445229166604},{"name":"F5","midi":77,"time":104.50005224999953,"velocity":0.7559055118110236,"duration":0.1569445229166604},{"name":"F5","midi":77,"time":104.66671899999952,"velocity":0.7559055118110236,"duration":0.1569445229166604},{"name":"D#5","midi":75,"time":104.83338574999951,"velocity":0.7559055118110236,"duration":0.1569445229166604},{"name":"C#5","midi":73,"time":105.0000524999995,"velocity":0.7559055118110236,"duration":0.1569445229166604},{"name":"D#5","midi":75,"time":105.16671924999949,"velocity":0.7559055118110236,"duration":0.3152779354166597},{"name":"D#5","midi":75,"time":105.66671949999949,"velocity":0.7559055118110236,"duration":0.1569445229166604},{"name":"D#5","midi":75,"time":105.83338624999948,"velocity":0.7559055118110236,"duration":0.1569445229166604},{"name":"D#5","midi":75,"time":106.00005299999947,"velocity":0.7559055118110236,"duration":0.1569445229166604},{"name":"F5","midi":77,"time":106.16671974999946,"velocity":0.7559055118110236,"duration":0.1569445229166604},{"name":"F#5","midi":78,"time":106.33338649999945,"velocity":0.7559055118110236,"duration":0.1569445229166604},{"name":"F5","midi":77,"time":106.50005324999944,"velocity":0.7559055118110236,"duration":0.3152779354166597},{"name":"F5","midi":77,"time":107.00005349999944,"velocity":0.7559055118110236,"duration":0.1569445229166604},{"name":"F5","midi":77,"time":107.16672024999943,"velocity":0.7559055118110236,"duration":0.1569445229166604},{"name":"G#5","midi":80,"time":107.33338699999942,"velocity":0.7559055118110236,"duration":0.1569445229166604},{"name":"F#5","midi":78,"time":107.50005374999941,"velocity":0.7559055118110236,"duration":0.1569445229166604},{"name":"F5","midi":77,"time":107.6667204999994,"velocity":0.7559055118110236,"duration":0.1569445229166604},{"name":"D#5","midi":75,"time":107.83338724999939,"velocity":0.7559055118110236,"duration":0.3152779354166597},{"name":"D#5","midi":75,"time":108.66672099999938,"velocity":0.7559055118110236,"duration":0.3152779354166597},{"name":"C#5","midi":73,"time":109.00005449999938,"velocity":0.7559055118110236,"duration":0.3152779354166597},{"name":"A#5","midi":82,"time":109.33338799999937,"velocity":0.6299212598425197,"duration":0.3152779354166597},{"name":"F5","midi":77,"time":109.83338824999937,"velocity":0.6299212598425197,"duration":0.3152779354166597},{"name":"D#5","midi":75,"time":110.33338849999937,"velocity":0.6299212598425197,"duration":0.3152779354166597},{"name":"C#5","midi":73,"time":110.83338874999937,"velocity":0.6299212598425197,"duration":0.3152779354166597},{"name":"F#5","midi":78,"time":111.33338899999937,"velocity":0.6299212598425197,"duration":0.3152779354166597},{"name":"F5","midi":77,"time":111.66672249999937,"velocity":0.6299212598425197,"duration":0.3152779354166597},{"name":"F5","midi":77,"time":112.00005599999936,"velocity":0.6299212598425197,"duration":0.1569445229166604},{"name":"F5","midi":77,"time":112.16672274999935,"velocity":0.6299212598425197,"duration":0.3152779354166597},{"name":"F5","midi":77,"time":112.50005624999935,"velocity":0.6299212598425197,"duration":0.1569445229166604},{"name":"D#5","midi":75,"time":112.66672299999934,"velocity":0.6299212598425197,"duration":0.3152779354166597},{"name":"C#5","midi":73,"time":113.00005649999933,"velocity":0.6299212598425197,"duration":0.1569445229166604},{"name":"C#5","midi":73,"time":113.16672324999932,"velocity":0.6299212598425197,"duration":0.3152779354166597},{"name":"C5","midi":72,"time":113.50005674999932,"velocity":0.6299212598425197,"duration":0.3152779354166597},{"name":"C5","midi":72,"time":114.00005699999932,"velocity":0.6299212598425197,"duration":0.3152779354166597},{"name":"A#4","midi":70,"time":114.33339049999931,"velocity":0.6299212598425197,"duration":0.3152779354166597},{"name":"A#4","midi":70,"time":114.6667239999993,"velocity":0.6299212598425197,"duration":0.3152779354166597},{"name":"C#5","midi":73,"time":115.1667242499993,"velocity":0.6299212598425197,"duration":0.3152779354166597},{"name":"C#5","midi":73,"time":115.5000577499993,"velocity":0.6299212598425197,"duration":0.3152779354166597},{"name":"C#5","midi":73,"time":116.66672499999929,"velocity":0.6299212598425197,"duration":0.3152779354166597},{"name":"C#5","midi":73,"time":117.00005849999928,"velocity":0.6299212598425197,"duration":0.1569445229166604},{"name":"C#5","midi":73,"time":117.16672524999927,"velocity":0.6299212598425197,"duration":0.6319447604166726},{"name":"G#5","midi":80,"time":141.66673749999927,"velocity":0.3858267716535433,"duration":0.3152779354166739},{"name":"G#5","midi":80,"time":142.00007099999928,"velocity":0.3858267716535433,"duration":0.3152779354166739},{"name":"G#5","midi":80,"time":142.3334044999993,"velocity":0.3937007874015748,"duration":0.3152779354166739},{"name":"G#5","midi":80,"time":142.6667379999993,"velocity":0.4015748031496063,"duration":0.1569445229166604},{"name":"F#5","midi":78,"time":142.8334047499993,"velocity":0.4094488188976378,"duration":0.1569445229166604},{"name":"F#5","midi":78,"time":143.16673824999927,"velocity":0.41732283464566927,"duration":0.3152779354166739},{"name":"F5","midi":77,"time":143.50007174999928,"velocity":0.4251968503937008,"duration":0.3152779354166739},{"name":"F#5","midi":78,"time":143.8334052499993,"velocity":0.4330708661417323,"duration":0.3152779354166739},{"name":"F5","midi":77,"time":144.1667387499993,"velocity":0.4409448818897638,"duration":0.3152779354166739},{"name":"C#5","midi":73,"time":144.5000722499993,"velocity":0.4409448818897638,"duration":0.3152779354166739},{"name":"G#5","midi":80,"time":147.0000734999993,"velocity":0.5039370078740157,"duration":0.3152779354166739},{"name":"G#5","midi":80,"time":147.3334069999993,"velocity":0.5039370078740157,"duration":0.3152779354166739},{"name":"G#5","midi":80,"time":147.66674049999932,"velocity":0.5039370078740157,"duration":0.3152779354166739},{"name":"G#5","midi":80,"time":148.00007399999933,"velocity":0.5039370078740157,"duration":0.1569445229166604},{"name":"F#5","midi":78,"time":148.16674074999932,"velocity":0.5039370078740157,"duration":0.1569445229166604},{"name":"F#5","midi":78,"time":148.5000742499993,"velocity":0.5039370078740157,"duration":0.3152779354166739},{"name":"F5","midi":77,"time":148.8334077499993,"velocity":0.5039370078740157,"duration":0.3152779354166739},{"name":"G#5","midi":80,"time":149.16674124999932,"velocity":0.5039370078740157,"duration":0.47361134791665904},{"name":"A#5","midi":82,"time":150.3334084999993,"velocity":0.5039370078740157,"duration":0.3152779354166739},{"name":"G#5","midi":80,"time":150.66674199999932,"velocity":0.5039370078740157,"duration":0.47361134791665904},{"name":"G#5","midi":80,"time":152.3334094999993,"velocity":0.6299212598425197,"duration":0.3152779354166739},{"name":"G#5","midi":80,"time":152.66674299999931,"velocity":0.6299212598425197,"duration":0.3152779354166739},{"name":"G#5","midi":80,"time":153.00007649999932,"velocity":0.6299212598425197,"duration":0.3152779354166739},{"name":"G#5","midi":80,"time":153.33340999999933,"velocity":0.6299212598425197,"duration":0.1569445229166604},{"name":"F#5","midi":78,"time":153.50007674999932,"velocity":0.6299212598425197,"duration":0.1569445229166604},{"name":"F#5","midi":78,"time":153.8334102499993,"velocity":0.6299212598425197,"duration":0.3152779354166739},{"name":"F5","midi":77,"time":154.1667437499993,"velocity":0.6299212598425197,"duration":0.3152779354166739},{"name":"F#5","midi":78,"time":154.50007724999932,"velocity":0.6299212598425197,"duration":0.3152779354166739},{"name":"F5","midi":77,"time":154.83341074999933,"velocity":0.6299212598425197,"duration":0.3152779354166739},{"name":"C#5","midi":73,"time":155.16674424999934,"velocity":0.6299212598425197,"duration":0.7902781729166577},{"name":"C#5","midi":73,"time":156.66674499999934,"velocity":0.6299212598425197,"duration":0.3152779354166739},{"name":"C#5","midi":73,"time":157.00007849999935,"velocity":0.6299212598425197,"duration":0.6319447604166726},{"name":"D#5","midi":75,"time":158.00007899999935,"velocity":0.6299212598425197,"duration":0.3152779354166739},{"name":"D#5","midi":75,"time":158.33341249999935,"velocity":0.6299212598425197,"duration":0.6319447604166726},{"name":"F#5","midi":78,"time":159.00007949999937,"velocity":0.6299212598425197,"duration":0.3152779354166739},{"name":"F#5","midi":78,"time":159.33341299999938,"velocity":0.6299212598425197,"duration":0.3152779354166739},{"name":"F#5","midi":78,"time":159.6667464999994,"velocity":0.6299212598425197,"duration":0.6319447604166726},{"name":"G#5","midi":80,"time":160.3334134999994,"velocity":0.6299212598425197,"duration":0.6319447604166726},{"name":"A#5","midi":82,"time":161.3334139999994,"velocity":0.7559055118110236,"duration":0.3152779354166739},{"name":"A#5","midi":82,"time":161.66674749999942,"velocity":0.7559055118110236,"duration":0.3152779354166739},{"name":"A#5","midi":82,"time":162.00008099999943,"velocity":0.7559055118110236,"duration":0.3152779354166739},{"name":"G#5","midi":80,"time":162.33341449999944,"velocity":0.7559055118110236,"duration":0.3152779354166739},{"name":"F5","midi":77,"time":162.66674799999944,"velocity":0.7559055118110236,"duration":0.3152779354166739},{"name":"F5","midi":77,"time":163.00008149999945,"velocity":0.7559055118110236,"duration":0.3152779354166739},{"name":"F5","midi":77,"time":163.33341499999946,"velocity":0.7559055118110236,"duration":0.1569445229166604},{"name":"F5","midi":77,"time":163.50008174999945,"velocity":0.7559055118110236,"duration":0.3152779354166739},{"name":"F5","midi":77,"time":163.83341524999946,"velocity":0.7559055118110236,"duration":0.1569445229166604},{"name":"F#5","midi":78,"time":164.00008199999945,"velocity":0.7559055118110236,"duration":0.3152779354166739},{"name":"F#5","midi":78,"time":164.33341549999946,"velocity":0.7559055118110236,"duration":0.3152779354166739},{"name":"F#5","midi":78,"time":164.66674899999947,"velocity":0.7559055118110236,"duration":0.1569445229166604},{"name":"F#5","midi":78,"time":164.83341574999946,"velocity":0.7559055118110236,"duration":0.47361134791665904},{"name":"F5","midi":77,"time":165.33341599999946,"velocity":0.7559055118110236,"duration":0.3152779354166739},{"name":"F5","midi":77,"time":165.66674949999947,"velocity":0.7559055118110236,"duration":0.1569445229166604},{"name":"F5","midi":77,"time":165.83341624999946,"velocity":0.7559055118110236,"duration":0.1569445229166604},{"name":"D#5","midi":75,"time":166.00008299999945,"velocity":0.7559055118110236,"duration":0.1569445229166604},{"name":"D#5","midi":75,"time":166.16674974999944,"velocity":0.7559055118110236,"duration":0.1569445229166604},{"name":"C#5","midi":73,"time":166.33341649999943,"velocity":0.7559055118110236,"duration":0.1569445229166604},{"name":"D#5","midi":75,"time":166.50008324999942,"velocity":0.7559055118110236,"duration":0.47361134791665904},{"name":"D#5","midi":75,"time":167.3334169999994,"velocity":0.7559055118110236,"duration":0.3152779354166739},{"name":"C#5","midi":73,"time":167.6667504999994,"velocity":0.7559055118110236,"duration":0.3152779354166739},{"name":"F5","midi":77,"time":168.00008399999942,"velocity":0.8818897637795275,"duration":0.3152779354166739},{"name":"F5","midi":77,"time":168.33341749999943,"velocity":0.8818897637795275,"duration":0.3152779354166739},{"name":"F5","midi":77,"time":168.66675099999944,"velocity":0.8818897637795275,"duration":0.1569445229166604},{"name":"F5","midi":77,"time":168.83341774999943,"velocity":0.8818897637795275,"duration":0.3152779354166739},{"name":"F5","midi":77,"time":169.16675124999944,"velocity":0.8818897637795275,"duration":0.1569445229166604},{"name":"F#5","midi":78,"time":169.33341799999943,"velocity":0.8818897637795275,"duration":0.3152779354166739},{"name":"F#5","midi":78,"time":169.66675149999944,"velocity":0.8818897637795275,"duration":0.3152779354166739},{"name":"F#5","midi":78,"time":170.00008499999944,"velocity":0.8818897637795275,"duration":0.1569445229166604},{"name":"F#5","midi":78,"time":170.16675174999943,"velocity":0.8818897637795275,"duration":0.3152779354166739},{"name":"F5","midi":77,"time":170.66675199999943,"velocity":0.8818897637795275,"duration":0.3152779354166739},{"name":"F5","midi":77,"time":171.00008549999944,"velocity":0.8818897637795275,"duration":0.1569445229166604},{"name":"F5","midi":77,"time":171.16675224999943,"velocity":0.8818897637795275,"duration":0.1569445229166604},{"name":"G#5","midi":80,"time":171.33341899999942,"velocity":0.8818897637795275,"duration":0.1569445229166604},{"name":"F#5","midi":78,"time":171.5000857499994,"velocity":0.8818897637795275,"duration":0.1569445229166604},{"name":"F5","midi":77,"time":171.6667524999994,"velocity":0.8818897637795275,"duration":0.1569445229166604},{"name":"D#5","midi":75,"time":171.8334192499994,"velocity":0.8818897637795275,"duration":0.3152779354166739},{"name":"D#5","midi":75,"time":172.6667529999994,"velocity":0.8818897637795275,"duration":0.3152779354166739},{"name":"C#5","midi":73,"time":173.0000864999994,"velocity":0.8818897637795275,"duration":0.3152779354166739},{"name":"G#5","midi":80,"time":173.33341999999942,"velocity":0.9921259842519685,"duration":0.47361134791665904},{"name":"F5","midi":77,"time":173.83342024999942,"velocity":0.9921259842519685,"duration":0.47361134791665904},{"name":"D#5","midi":75,"time":174.33342049999942,"velocity":0.9921259842519685,"duration":0.47361134791665904},{"name":"C#5","midi":73,"time":174.83342074999942,"velocity":0.9921259842519685,"duration":0.47361134791665904},{"name":"F#5","midi":78,"time":175.33342099999942,"velocity":0.9921259842519685,"duration":0.3152779354166739},{"name":"F5","midi":77,"time":175.66675449999943,"velocity":0.9921259842519685,"duration":0.3152779354166739},{"name":"F5","midi":77,"time":176.00008799999944,"velocity":0.9921259842519685,"duration":0.3152779354166739},{"name":"D#5","midi":75,"time":176.50008824999944,"velocity":0.9921259842519685,"duration":0.3152779354166739},{"name":"C#5","midi":73,"time":177.00008849999944,"velocity":0.9921259842519685,"duration":0.3152779354166739},{"name":"C#5","midi":73,"time":177.33342199999944,"velocity":0.9921259842519685,"duration":0.1569445229166604},{"name":"C5","midi":72,"time":177.50008874999943,"velocity":0.9921259842519685,"duration":0.3152779354166739},{"name":"C#5","midi":73,"time":178.00008899999943,"velocity":0.9921259842519685,"duration":0.3152779354166739},{"name":"A#4","midi":70,"time":178.33342249999944,"velocity":0.9921259842519685,"duration":0.3152779354166739},{"name":"A#4","midi":70,"time":178.66675599999945,"velocity":0.9921259842519685,"duration":0.3152779354166739},{"name":"C#5","midi":73,"time":179.16675624999945,"velocity":0.9921259842519685,"duration":0.3152779354166739},{"name":"C#5","midi":73,"time":179.66675649999945,"velocity":0.9921259842519685,"duration":0.3152779354166739},{"name":"D#5","midi":75,"time":180.66675699999945,"velocity":0.9921259842519685,"duration":0.3152779354166739},{"name":"C#5","midi":73,"time":181.00009049999946,"velocity":0.9921259842519685,"duration":0.1569445229166604},{"name":"C#5","midi":73,"time":181.16675724999945,"velocity":0.9921259842519685,"duration":0.47361134791665904},{"name":"F5","midi":77,"time":184.33342549999944,"velocity":0.9921259842519685,"duration":0.1569445229166604},{"name":"F5","midi":77,"time":184.50009224999943,"velocity":0.9921259842519685,"duration":0.1569445229166604},{"name":"F5","midi":77,"time":184.66675899999942,"velocity":0.9921259842519685,"duration":0.1569445229166604},{"name":"D#5","midi":75,"time":184.8334257499994,"velocity":0.9921259842519685,"duration":0.1569445229166604},{"name":"C#5","midi":73,"time":185.0000924999994,"velocity":0.9921259842519685,"duration":0.1569445229166604},{"name":"D#5","midi":75,"time":185.1667592499994,"velocity":0.9921259842519685,"duration":0.3152779354166739},{"name":"D#5","midi":75,"time":185.6667594999994,"velocity":0.9921259842519685,"duration":0.1569445229166604},{"name":"D#5","midi":75,"time":185.83342624999938,"velocity":0.9921259842519685,"duration":0.1569445229166604},{"name":"D#5","midi":75,"time":186.00009299999937,"velocity":0.9921259842519685,"duration":0.1569445229166604},{"name":"F5","midi":77,"time":186.16675974999936,"velocity":0.9921259842519685,"duration":0.1569445229166604},{"name":"F#5","midi":78,"time":186.33342649999935,"velocity":0.9921259842519685,"duration":0.1569445229166604},{"name":"F5","midi":77,"time":186.50009324999934,"velocity":0.9921259842519685,"duration":0.3152779354166739},{"name":"F5","midi":77,"time":187.00009349999934,"velocity":0.9921259842519685,"duration":0.1569445229166604},{"name":"F5","midi":77,"time":187.16676024999933,"velocity":0.9921259842519685,"duration":0.1569445229166604},{"name":"F5","midi":77,"time":187.33342699999932,"velocity":0.9921259842519685,"duration":0.1569445229166604},{"name":"D#5","midi":75,"time":187.5000937499993,"velocity":0.9921259842519685,"duration":0.1569445229166604},{"name":"C#5","midi":73,"time":187.6667604999993,"velocity":0.9921259842519685,"duration":0.1569445229166604},{"name":"D#5","midi":75,"time":187.8334272499993,"velocity":0.9921259842519685,"duration":0.3152779354166739},{"name":"F5","midi":77,"time":189.6667614999993,"velocity":0.9921259842519685,"duration":0.1569445229166604},{"name":"F5","midi":77,"time":189.8334282499993,"velocity":0.9921259842519685,"duration":0.1569445229166604},{"name":"F5","midi":77,"time":190.00009499999928,"velocity":0.9921259842519685,"duration":0.1569445229166604},{"name":"D#5","midi":75,"time":190.16676174999927,"velocity":0.9921259842519685,"duration":0.1569445229166604},{"name":"C#5","midi":73,"time":190.33342849999926,"velocity":0.9921259842519685,"duration":0.1569445229166604},{"name":"D#5","midi":75,"time":190.50009524999925,"velocity":0.9921259842519685,"duration":0.3152779354166739},{"name":"D#5","midi":75,"time":191.00009549999925,"velocity":0.9921259842519685,"duration":0.1569445229166604},{"name":"D#5","midi":75,"time":191.16676224999924,"velocity":0.9921259842519685,"duration":0.1569445229166604},{"name":"D#5","midi":75,"time":191.33342899999923,"velocity":0.9921259842519685,"duration":0.1569445229166604},{"name":"F5","midi":77,"time":191.50009574999922,"velocity":0.9921259842519685,"duration":0.1569445229166604},{"name":"F#5","midi":78,"time":191.6667624999992,"velocity":0.9921259842519685,"duration":0.1569445229166604},{"name":"F5","midi":77,"time":191.8334292499992,"velocity":0.9921259842519685,"duration":0.3152779354166739},{"name":"F5","midi":77,"time":192.3334294999992,"velocity":0.9921259842519685,"duration":0.1569445229166604},{"name":"F5","midi":77,"time":192.5000962499992,"velocity":0.9921259842519685,"duration":0.1569445229166604},{"name":"G#5","midi":80,"time":192.66676299999918,"velocity":0.9921259842519685,"duration":0.1569445229166604},{"name":"F#5","midi":78,"time":192.83342974999917,"velocity":0.9921259842519685,"duration":0.1569445229166604},{"name":"F5","midi":77,"time":193.00009649999916,"velocity":0.9921259842519685,"duration":0.1569445229166604},{"name":"D#5","midi":75,"time":193.16676324999915,"velocity":0.9921259842519685,"duration":0.3152779354166739},{"name":"D#5","midi":75,"time":194.00009699999916,"velocity":0.9921259842519685,"duration":0.3152779354166739},{"name":"C#5","midi":73,"time":194.33343049999917,"velocity":0.9921259842519685,"duration":0.3152779354166739},{"name":"A#5","midi":82,"time":194.66676399999918,"velocity":0.8818897637795275,"duration":0.3152779354166739},{"name":"F5","midi":77,"time":195.16676424999918,"velocity":0.8818897637795275,"duration":0.3152779354166739},{"name":"D#5","midi":75,"time":195.66676449999918,"velocity":0.8818897637795275,"duration":0.3152779354166739},{"name":"C#5","midi":73,"time":196.16676474999917,"velocity":0.8818897637795275,"duration":0.3152779354166739},{"name":"F#5","midi":78,"time":196.66676499999917,"velocity":0.8818897637795275,"duration":0.3152779354166739},{"name":"F5","midi":77,"time":197.00009849999918,"velocity":0.8818897637795275,"duration":0.3152779354166739},{"name":"F5","midi":77,"time":197.3334319999992,"velocity":0.8818897637795275,"duration":0.1569445229166604},{"name":"F5","midi":77,"time":197.50009874999918,"velocity":0.8818897637795275,"duration":0.3152779354166739},{"name":"F5","midi":77,"time":197.8334322499992,"velocity":0.8818897637795275,"duration":0.1569445229166604},{"name":"D#5","midi":75,"time":198.00009899999918,"velocity":0.8818897637795275,"duration":0.3152779354166739},{"name":"C#5","midi":73,"time":198.3334324999992,"velocity":0.8818897637795275,"duration":0.1569445229166604},{"name":"C#5","midi":73,"time":198.50009924999918,"velocity":0.8818897637795275,"duration":0.3152779354166739},{"name":"C5","midi":72,"time":198.8334327499992,"velocity":0.8818897637795275,"duration":0.3152779354166739},{"name":"C5","midi":72,"time":199.3334329999992,"velocity":0.8818897637795275,"duration":0.3152779354166739},{"name":"A#4","midi":70,"time":199.6667664999992,"velocity":0.8818897637795275,"duration":0.3152779354166739},{"name":"A#4","midi":70,"time":200.0000999999992,"velocity":0.8818897637795275,"duration":0.3152779354166739},{"name":"C#5","midi":73,"time":200.5001002499992,"velocity":0.8818897637795275,"duration":0.3152779354166739},{"name":"C#5","midi":73,"time":200.83343374999922,"velocity":0.8818897637795275,"duration":0.3152779354166739},{"name":"C#5","midi":73,"time":202.00010099999923,"velocity":0.8818897637795275,"duration":0.3152779354166739},{"name":"C#5","midi":73,"time":202.33343449999924,"velocity":0.8818897637795275,"duration":0.1569445229166604},{"name":"C#5","midi":73,"time":202.50010124999923,"velocity":0.8818897637795275,"duration":0.6319447604166726},{"name":"F5","midi":77,"time":205.66676949999925,"velocity":0.9921259842519685,"duration":0.1569445229166604},{"name":"F5","midi":77,"time":205.83343624999924,"velocity":0.9921259842519685,"duration":0.1569445229166604},{"name":"F5","midi":77,"time":206.00010299999923,"velocity":0.9921259842519685,"duration":0.1569445229166604},{"name":"D#5","midi":75,"time":206.16676974999922,"velocity":0.984251968503937,"duration":0.1569445229166604},{"name":"C#5","midi":73,"time":206.3334364999992,"velocity":0.984251968503937,"duration":0.1569445229166604},{"name":"D#5","midi":75,"time":206.5001032499992,"velocity":0.9763779527559056,"duration":0.3152779354166739},{"name":"D#5","midi":75,"time":207.0001034999992,"velocity":0.968503937007874,"duration":0.1569445229166604},{"name":"D#5","midi":75,"time":207.1667702499992,"velocity":0.9606299212598425,"duration":0.1569445229166604},{"name":"D#5","midi":75,"time":207.33343699999918,"velocity":0.9606299212598425,"duration":0.1569445229166604},{"name":"F5","midi":77,"time":207.50010374999917,"velocity":0.952755905511811,"duration":0.1569445229166604},{"name":"F#5","midi":78,"time":207.66677049999916,"velocity":0.952755905511811,"duration":0.1569445229166604},{"name":"F5","midi":77,"time":207.83343724999915,"velocity":0.9448818897637795,"duration":0.3152779354166739},{"name":"F5","midi":77,"time":208.33343749999915,"velocity":0.937007874015748,"duration":0.1569445229166604},{"name":"F5","midi":77,"time":208.50010424999914,"velocity":0.9291338582677166,"duration":0.1569445229166604},{"name":"F5","midi":77,"time":208.66677099999913,"velocity":0.9291338582677166,"duration":0.1569445229166604},{"name":"D#5","midi":75,"time":208.83343774999912,"velocity":0.9212598425196851,"duration":0.1569445229166604},{"name":"C#5","midi":73,"time":209.0001044999991,"velocity":0.9212598425196851,"duration":0.1569445229166604},{"name":"D#5","midi":75,"time":209.1667712499991,"velocity":0.9133858267716536,"duration":0.3152779354166739},{"name":"F5","midi":77,"time":211.0001054999991,"velocity":0.8740157480314961,"duration":0.1569445229166604},{"name":"F5","midi":77,"time":211.1667722499991,"velocity":0.8740157480314961,"duration":0.1569445229166604},{"name":"F5","midi":77,"time":211.3334389999991,"velocity":0.8661417322834646,"duration":0.1569445229166604},{"name":"D#5","midi":75,"time":211.50010574999908,"velocity":0.8661417322834646,"duration":0.1569445229166604},{"name":"C#5","midi":73,"time":211.66677249999907,"velocity":0.8582677165354331,"duration":0.1569445229166604},{"name":"D#5","midi":75,"time":211.83343924999906,"velocity":0.8582677165354331,"duration":0.3152779354166739},{"name":"D#5","midi":75,"time":212.33343949999906,"velocity":0.84251968503937,"duration":0.1569445229166604},{"name":"D#5","midi":75,"time":212.50010624999905,"velocity":0.84251968503937,"duration":0.1569445229166604},{"name":"D#5","midi":75,"time":212.66677299999904,"velocity":0.8346456692913385,"duration":0.1569445229166604},{"name":"F5","midi":77,"time":212.83343974999903,"velocity":0.8346456692913385,"duration":0.1569445229166604},{"name":"F#5","midi":78,"time":213.00010649999902,"velocity":0.8267716535433071,"duration":0.1569445229166604},{"name":"F5","midi":77,"time":213.166773249999,"velocity":0.8267716535433071,"duration":0.3152779354166739},{"name":"F5","midi":77,"time":213.666773499999,"velocity":0.8110236220472441,"duration":0.1569445229166604},{"name":"F5","midi":77,"time":213.833440249999,"velocity":0.8110236220472441,"duration":0.1569445229166604},{"name":"G#5","midi":80,"time":214.000106999999,"velocity":0.8031496062992126,"duration":0.1569445229166604},{"name":"F#5","midi":78,"time":214.16677374999898,"velocity":0.8031496062992126,"duration":0.1569445229166604},{"name":"F5","midi":77,"time":214.33344049999897,"velocity":0.7952755905511811,"duration":0.1569445229166604},{"name":"D#5","midi":75,"time":214.50010724999896,"velocity":0.7952755905511811,"duration":0.3152779354166739},{"name":"D#5","midi":75,"time":215.33344099999897,"velocity":0.7716535433070866,"duration":0.3152779354166739},{"name":"C#5","midi":73,"time":215.66677449999898,"velocity":0.7637795275590551,"duration":0.3152779354166739},{"name":"A#5","midi":82,"time":216.000107999999,"velocity":0.7559055118110236,"duration":0.3152779354166739},{"name":"F5","midi":77,"time":216.500108249999,"velocity":0.7559055118110236,"duration":0.3152779354166739},{"name":"D#5","midi":75,"time":217.000108499999,"velocity":0.7559055118110236,"duration":0.3152779354166739},{"name":"C#5","midi":73,"time":217.500108749999,"velocity":0.7559055118110236,"duration":0.3152779354166739},{"name":"F#5","midi":78,"time":218.000108999999,"velocity":0.7559055118110236,"duration":0.3152779354166739},{"name":"F5","midi":77,"time":218.333442499999,"velocity":0.7559055118110236,"duration":0.3152779354166739},{"name":"F5","midi":77,"time":218.666775999999,"velocity":0.7559055118110236,"duration":0.1569445229166604},{"name":"F5","midi":77,"time":218.833442749999,"velocity":0.7559055118110236,"duration":0.3152779354166739},{"name":"F5","midi":77,"time":219.166776249999,"velocity":0.7559055118110236,"duration":0.1569445229166604},{"name":"D#5","midi":75,"time":219.333442999999,"velocity":0.7559055118110236,"duration":0.3152779354166739},{"name":"C#5","midi":73,"time":219.666776499999,"velocity":0.7559055118110236,"duration":0.1569445229166604},{"name":"C#5","midi":73,"time":219.833443249999,"velocity":0.7559055118110236,"duration":0.3152779354166739},{"name":"C5","midi":72,"time":220.166776749999,"velocity":0.7559055118110236,"duration":0.3152779354166739},{"name":"C5","midi":72,"time":220.666776999999,"velocity":0.7559055118110236,"duration":0.3152779354166739},{"name":"A#4","midi":70,"time":221.000110499999,"velocity":0.7559055118110236,"duration":0.3152779354166739},{"name":"A#4","midi":70,"time":221.33344399999902,"velocity":0.7559055118110236,"duration":0.3152779354166739},{"name":"C#5","midi":73,"time":221.83344424999902,"velocity":0.5039370078740157,"duration":0.3152779354166739},{"name":"C#5","midi":73,"time":222.16677774999903,"velocity":0.5039370078740157,"duration":0.3152779354166739},{"name":"C#5","midi":73,"time":223.33344499999905,"velocity":0.5039370078740157,"duration":0.3152779354166739},{"name":"C#5","midi":73,"time":223.66677849999905,"velocity":0.5039370078740157,"duration":0.1569445229166604},{"name":"C#5","midi":73,"time":223.83344524999904,"velocity":0.5039370078740157,"duration":1.2652784104166699}]},{"instrument_number":-1,"notes":[{"name":"A#2","midi":46,"time":2.666668,"velocity":0.25984251968503935,"duration":1.2652784104166668},{"name":"A#3","midi":58,"time":2.666668,"velocity":0.25984251968503935,"duration":0.3152779354166668},{"name":"F3","midi":53,"time":3.0000015,"velocity":0.25984251968503935,"duration":0.9486115854166668},{"name":"A#3","midi":58,"time":3.3333350000000004,"velocity":0.25984251968503935,"duration":0.6319447604166668},{"name":"F#2","midi":42,"time":4.000002,"velocity":0.25984251968503935,"duration":1.2652784104166672},{"name":"F#3","midi":54,"time":4.000002,"velocity":0.25984251968503935,"duration":0.3152779354166668},{"name":"C#4","midi":61,"time":4.3333355000000005,"velocity":0.2677165354330709,"duration":0.3152779354166668},{"name":"F#3","midi":54,"time":4.666669000000001,"velocity":0.2755905511811024,"duration":0.6319447604166673},{"name":"C#3","midi":49,"time":5.333336000000001,"velocity":0.29133858267716534,"duration":2.531945710416667},{"name":"G#3","midi":56,"time":5.666669500000001,"velocity":0.2992125984251969,"duration":2.2152788854166667},{"name":"C#4","midi":61,"time":6.000003000000001,"velocity":0.30708661417322836,"duration":1.8986120604166663},{"name":"A#2","midi":46,"time":8.000004,"velocity":0.36220472440944884,"duration":1.2652784104166663},{"name":"A#3","midi":58,"time":8.000004,"velocity":0.36220472440944884,"duration":0.3152779354166668},{"name":"F3","midi":53,"time":8.3333375,"velocity":0.3700787401574803,"duration":0.9486115854166659},{"name":"A#3","midi":58,"time":8.666671000000001,"velocity":0.3779527559055118,"duration":0.6319447604166655},{"name":"F#2","midi":42,"time":9.333338,"velocity":0.3937007874015748,"duration":1.2652784104166663},{"name":"F#3","midi":54,"time":9.333338,"velocity":0.3937007874015748,"duration":0.3152779354166668},{"name":"C#4","midi":61,"time":9.6666715,"velocity":0.4015748031496063,"duration":0.3152779354166668},{"name":"F#3","midi":54,"time":10.000005,"velocity":0.4094488188976378,"duration":0.6319447604166655},{"name":"C#3","midi":49,"time":10.666671999999998,"velocity":0.4330708661417323,"duration":2.5319457104166663},{"name":"G#3","midi":56,"time":11.000005499999999,"velocity":0.4409448818897638,"duration":2.215278885416666},{"name":"C#4","midi":61,"time":11.333338999999999,"velocity":0.44881889763779526,"duration":1.8986120604166654},{"name":"A#2","midi":46,"time":13.333339999999998,"velocity":0.5039370078740157,"duration":1.2652784104166646},{"name":"F3","midi":53,"time":13.666673499999998,"velocity":0.5039370078740157,"duration":0.47361134791666615},{"name":"A#3","midi":58,"time":13.833340249999997,"velocity":0.5039370078740157,"duration":0.47361134791666615},{"name":"F3","midi":53,"time":14.333340499999997,"velocity":0.5039370078740157,"duration":0.31527793541666504},{"name":"F#3","midi":54,"time":14.666673999999995,"velocity":0.5039370078740157,"duration":1.2652784104166646},{"name":"C#4","midi":61,"time":15.000007499999995,"velocity":0.5039370078740157,"duration":0.31527793541666504},{"name":"F#4","midi":66,"time":15.166674249999994,"velocity":0.5039370078740157,"duration":0.15694452291666572},{"name":"G#4","midi":68,"time":15.166674249999994,"velocity":0.5039370078740157,"duration":0.47361134791666615},{"name":"F#4","midi":66,"time":15.333340999999994,"velocity":0.5039370078740157,"duration":0.3152779354166668},{"name":"C#4","midi":61,"time":15.666674499999994,"velocity":0.5039370078740157,"duration":0.31527793541666504},{"name":"C#3","midi":49,"time":16.00000799999999,"velocity":0.5039370078740157,"duration":1.8986120604166672},{"name":"G#3","midi":56,"time":16.50000824999999,"velocity":0.5039370078740157,"duration":0.47361134791666615},{"name":"C#4","midi":61,"time":16.50000824999999,"velocity":0.5039370078740157,"duration":0.47361134791666615},{"name":"F#4","midi":66,"time":16.50000824999999,"velocity":0.5039370078740157,"duration":0.47361134791666615},{"name":"F#4","midi":66,"time":17.00000849999999,"velocity":0.5039370078740157,"duration":0.1569445229166675},{"name":"C#4","midi":61,"time":17.16667524999999,"velocity":0.5039370078740157,"duration":0.1569445229166675},{"name":"C#4","midi":61,"time":17.33334199999999,"velocity":0.5039370078740157,"duration":0.3152779354166668},{"name":"F#4","midi":66,"time":17.33334199999999,"velocity":0.5039370078740157,"duration":0.6319447604166655},{"name":"C#3","midi":49,"time":18.00000899999999,"velocity":0.5039370078740157,"duration":0.6319447604166655},{"name":"C#4","midi":61,"time":18.00000899999999,"velocity":0.5039370078740157,"duration":0.6319447604166655},{"name":"F4","midi":65,"time":18.00000899999999,"velocity":0.5039370078740157,"duration":0.6319447604166655},{"name":"A#2","midi":46,"time":18.666675999999992,"velocity":0.5039370078740157,"duration":1.2652784104166663},{"name":"F3","midi":53,"time":19.00000949999999,"velocity":0.5039370078740157,"duration":0.47361134791666615},{"name":"A#3","midi":58,"time":19.16667624999999,"velocity":0.5039370078740157,"duration":0.47361134791666615},{"name":"F3","midi":53,"time":19.66667649999999,"velocity":0.5039370078740157,"duration":0.3152779354166668},{"name":"F#3","midi":54,"time":20.00000999999999,"velocity":0.5039370078740157,"duration":1.2652784104166663},{"name":"C#4","midi":61,"time":20.333343499999987,"velocity":0.5039370078740157,"duration":0.3152779354166668},{"name":"F#4","midi":66,"time":20.50001024999999,"velocity":0.5039370078740157,"duration":0.1569445229166675},{"name":"G#4","midi":68,"time":20.50001024999999,"velocity":0.5039370078740157,"duration":0.47361134791666615},{"name":"F#4","midi":66,"time":20.66667699999999,"velocity":0.5039370078740157,"duration":0.3152779354166668},{"name":"C#4","midi":61,"time":21.000010499999988,"velocity":0.5039370078740157,"duration":0.3152779354166668},{"name":"C#3","midi":49,"time":21.333343999999986,"velocity":0.5039370078740157,"duration":1.8986120604166672},{"name":"G#3","midi":56,"time":21.833344249999985,"velocity":0.5039370078740157,"duration":0.47361134791666615},{"name":"C#4","midi":61,"time":21.833344249999985,"velocity":0.5039370078740157,"duration":0.47361134791666615},{"name":"F#4","midi":66,"time":21.833344249999985,"velocity":0.5039370078740157,"duration":0.47361134791666615},{"name":"F#4","midi":66,"time":22.333344499999985,"velocity":0.5039370078740157,"duration":0.1569445229166675},{"name":"C#4","midi":61,"time":22.500011249999986,"velocity":0.5039370078740157,"duration":0.1569445229166675},{"name":"C#4","midi":61,"time":22.666677999999987,"velocity":0.5039370078740157,"duration":0.3152779354166668},{"name":"F#4","midi":66,"time":22.666677999999987,"velocity":0.5039370078740157,"duration":0.6319447604166655},{"name":"C#3","midi":49,"time":23.333344999999987,"velocity":0.5039370078740157,"duration":0.6319447604166655},{"name":"C#4","midi":61,"time":23.333344999999987,"velocity":0.5039370078740157,"duration":0.6319447604166655},{"name":"F4","midi":65,"time":23.333344999999987,"velocity":0.5039370078740157,"duration":0.6319447604166655},{"name":"A#2","midi":46,"time":24.000011999999987,"velocity":0.5039370078740157,"duration":1.2652784104166663},{"name":"F3","midi":53,"time":24.333345499999986,"velocity":0.5039370078740157,"duration":0.47361134791666615},{"name":"A#3","midi":58,"time":24.500012249999987,"velocity":0.5039370078740157,"duration":0.47361134791666615},{"name":"F3","midi":53,"time":25.000012499999986,"velocity":0.5039370078740157,"duration":0.3152779354166668},{"name":"F#3","midi":54,"time":25.333345999999985,"velocity":0.5039370078740157,"duration":1.2652784104166663},{"name":"C#4","midi":61,"time":25.666679499999983,"velocity":0.5039370078740157,"duration":0.3152779354166668},{"name":"F#4","midi":66,"time":25.833346249999984,"velocity":0.5039370078740157,"duration":0.1569445229166675},{"name":"G#4","midi":68,"time":25.833346249999984,"velocity":0.5039370078740157,"duration":0.47361134791666615},{"name":"F#4","midi":66,"time":26.000012999999985,"velocity":0.5039370078740157,"duration":0.3152779354166668},{"name":"C#4","midi":61,"time":26.333346499999983,"velocity":0.5039370078740157,"duration":0.3152779354166668},{"name":"C#3","midi":49,"time":26.66667999999998,"velocity":0.5039370078740157,"duration":1.8986120604166672},{"name":"G#3","midi":56,"time":27.16668024999998,"velocity":0.5039370078740157,"duration":0.47361134791666615},{"name":"C#4","midi":61,"time":27.16668024999998,"velocity":0.5039370078740157,"duration":0.47361134791666615},{"name":"F#4","midi":66,"time":27.16668024999998,"velocity":0.5039370078740157,"duration":0.47361134791666615},{"name":"F#4","midi":66,"time":27.66668049999998,"velocity":0.5039370078740157,"duration":0.1569445229166675},{"name":"C#4","midi":61,"time":27.83334724999998,"velocity":0.5039370078740157,"duration":0.1569445229166675},{"name":"C#4","midi":61,"time":28.000013999999982,"velocity":0.5039370078740157,"duration":0.3152779354166668},{"name":"F#4","midi":66,"time":28.000013999999982,"velocity":0.5039370078740157,"duration":0.6319447604166655},{"name":"C#3","midi":49,"time":28.666680999999983,"velocity":0.5039370078740157,"duration":0.6319447604166655},{"name":"C#4","midi":61,"time":28.666680999999983,"velocity":0.5039370078740157,"duration":0.6319447604166655},{"name":"F4","midi":65,"time":28.666680999999983,"velocity":0.5039370078740157,"duration":0.6319447604166655},{"name":"A#2","midi":46,"time":29.333347999999983,"velocity":0.5039370078740157,"duration":1.2652784104166663},{"name":"F3","midi":53,"time":29.66668149999998,"velocity":0.5039370078740157,"duration":0.47361134791666615},{"name":"A#3","midi":58,"time":29.833348249999982,"velocity":0.5039370078740157,"duration":0.47361134791666615},{"name":"F3","midi":53,"time":30.333348499999982,"velocity":0.5039370078740157,"duration":0.3152779354166668},{"name":"F#3","midi":54,"time":30.66668199999998,"velocity":0.5039370078740157,"duration":1.2652784104166663},{"name":"C#4","midi":61,"time":31.00001549999998,"velocity":0.5039370078740157,"duration":0.3152779354166668},{"name":"F#4","midi":66,"time":31.16668224999998,"velocity":0.5039370078740157,"duration":0.1569445229166675},{"name":"G#4","midi":68,"time":31.16668224999998,"velocity":0.5039370078740157,"duration":0.47361134791666615},{"name":"F#4","midi":66,"time":31.33334899999998,"velocity":0.5039370078740157,"duration":0.3152779354166668},{"name":"C#4","midi":61,"time":31.66668249999998,"velocity":0.5039370078740157,"duration":0.3152779354166668},{"name":"C#3","midi":49,"time":32.00001599999998,"velocity":0.5039370078740157,"duration":1.89861206041666},{"name":"G#3","midi":56,"time":32.50001624999998,"velocity":0.5039370078740157,"duration":0.47361134791666615},{"name":"C#4","midi":61,"time":32.50001624999998,"velocity":0.5039370078740157,"duration":0.47361134791666615},{"name":"F#4","midi":66,"time":32.50001624999998,"velocity":0.5039370078740157,"duration":0.47361134791666615},{"name":"F#4","midi":66,"time":33.00001649999998,"velocity":0.5039370078740157,"duration":0.1569445229166675},{"name":"C#4","midi":61,"time":33.16668324999998,"velocity":0.5039370078740157,"duration":0.1569445229166675},{"name":"C#4","midi":61,"time":33.333349999999975,"velocity":0.5039370078740157,"duration":0.3152779354166668},{"name":"F#4","midi":66,"time":33.333349999999975,"velocity":0.5039370078740157,"duration":0.6319447604166655},{"name":"C#3","midi":49,"time":34.00001699999997,"velocity":0.5039370078740157,"duration":0.6319447604166655},{"name":"C#4","midi":61,"time":34.00001699999997,"velocity":0.5039370078740157,"duration":0.6319447604166655},{"name":"F4","midi":65,"time":34.00001699999997,"velocity":0.5039370078740157,"duration":0.6319447604166655},{"name":"A#2","midi":46,"time":34.66668399999997,"velocity":0.5039370078740157,"duration":1.2652784104166628},{"name":"F3","midi":53,"time":35.00001749999997,"velocity":0.5039370078740157,"duration":0.47361134791666615},{"name":"A#3","midi":58,"time":35.16668424999997,"velocity":0.5039370078740157,"duration":0.47361134791666615},{"name":"F3","midi":53,"time":35.66668449999997,"velocity":0.5039370078740157,"duration":0.3152779354166668},{"name":"F#3","midi":54,"time":36.00001799999997,"velocity":0.5039370078740157,"duration":1.2652784104166628},{"name":"C#4","midi":61,"time":36.33335149999997,"velocity":0.5039370078740157,"duration":0.3152779354166668},{"name":"F#4","midi":66,"time":36.50001824999997,"velocity":0.5039370078740157,"duration":0.1569445229166675},{"name":"G#4","midi":68,"time":36.50001824999997,"velocity":0.5039370078740157,"duration":0.47361134791666615},{"name":"F#4","midi":66,"time":36.666684999999966,"velocity":0.5039370078740157,"duration":0.3152779354166668},{"name":"C#4","midi":61,"time":37.00001849999997,"velocity":0.5039370078740157,"duration":0.3152779354166668},{"name":"C#3","midi":49,"time":37.33335199999997,"velocity":0.5039370078740157,"duration":1.89861206041666},{"name":"G#3","midi":56,"time":37.83335224999997,"velocity":0.5039370078740157,"duration":0.47361134791666615},{"name":"C#4","midi":61,"time":37.83335224999997,"velocity":0.5039370078740157,"duration":0.47361134791666615},{"name":"F#4","midi":66,"time":37.83335224999997,"velocity":0.5039370078740157,"duration":0.47361134791666615},{"name":"F#4","midi":66,"time":38.33335249999997,"velocity":0.5039370078740157,"duration":0.1569445229166675},{"name":"C#4","midi":61,"time":38.500019249999966,"velocity":0.5039370078740157,"duration":0.1569445229166675},{"name":"C#4","midi":61,"time":38.66668599999996,"velocity":0.5039370078740157,"duration":0.3152779354166668},{"name":"F#4","midi":66,"time":38.66668599999996,"velocity":0.5039370078740157,"duration":0.6319447604166655},{"name":"C#3","midi":49,"time":39.33335299999996,"velocity":0.5039370078740157,"duration":0.6319447604166655},{"name":"C#4","midi":61,"time":39.33335299999996,"velocity":0.5039370078740157,"duration":0.6319447604166655},{"name":"F4","midi":65,"time":39.33335299999996,"velocity":0.5039370078740157,"duration":0.6319447604166655},{"name":"A#2","midi":46,"time":40.00001999999996,"velocity":0.5039370078740157,"duration":1.2652784104166628},{"name":"F3","midi":53,"time":40.33335349999996,"velocity":0.5039370078740157,"duration":0.47361134791666615},{"name":"A#3","midi":58,"time":40.500020249999956,"velocity":0.5039370078740157,"duration":0.47361134791666615},{"name":"F3","midi":53,"time":41.000020499999955,"velocity":0.5039370078740157,"duration":0.3152779354166668},{"name":"F#3","midi":54,"time":41.33335399999996,"velocity":0.49606299212598426,"duration":1.2652784104166628},{"name":"C#4","midi":61,"time":41.66668749999996,"velocity":0.49606299212598426,"duration":0.3152779354166668},{"name":"F#4","midi":66,"time":41.83335424999996,"velocity":0.4881889763779528,"duration":0.1569445229166675},{"name":"G#4","midi":68,"time":41.83335424999996,"velocity":0.4881889763779528,"duration":0.47361134791666615},{"name":"F#4","midi":66,"time":42.000020999999954,"velocity":0.4881889763779528,"duration":0.3152779354166668},{"name":"C#4","midi":61,"time":42.333354499999956,"velocity":0.4881889763779528,"duration":0.3152779354166668},{"name":"C#3","midi":49,"time":42.66668799999996,"velocity":0.48031496062992124,"duration":1.89861206041666},{"name":"G#3","midi":56,"time":43.16668824999996,"velocity":0.47244094488188976,"duration":0.47361134791666615},{"name":"C#4","midi":61,"time":43.16668824999996,"velocity":0.47244094488188976,"duration":0.47361134791666615},{"name":"F#4","midi":66,"time":43.16668824999996,"velocity":0.47244094488188976,"duration":0.47361134791666615},{"name":"F#4","midi":66,"time":43.66668849999996,"velocity":0.47244094488188976,"duration":0.1569445229166675},{"name":"C#4","midi":61,"time":43.833355249999954,"velocity":0.4645669291338583,"duration":0.1569445229166675},{"name":"C#4","midi":61,"time":44.00002199999995,"velocity":0.4645669291338583,"duration":0.3152779354166668},{"name":"F#4","midi":66,"time":44.00002199999995,"velocity":0.4645669291338583,"duration":0.6319447604166655},{"name":"C#3","midi":49,"time":44.66668899999995,"velocity":0.4566929133858268,"duration":0.6319447604166655},{"name":"C#4","midi":61,"time":44.66668899999995,"velocity":0.4566929133858268,"duration":0.6319447604166655},{"name":"F4","midi":65,"time":44.66668899999995,"velocity":0.4566929133858268,"duration":0.6319447604166655},{"name":"A#2","midi":46,"time":45.333355999999945,"velocity":0.44881889763779526,"duration":1.2652784104166628},{"name":"F3","midi":53,"time":45.66668949999995,"velocity":0.44881889763779526,"duration":0.47361134791666615},{"name":"A#3","midi":58,"time":45.833356249999945,"velocity":0.44881889763779526,"duration":0.47361134791666615},{"name":"F3","midi":53,"time":46.333356499999944,"velocity":0.4409448818897638,"duration":0.3152779354166668},{"name":"F#3","midi":54,"time":46.666689999999946,"velocity":0.4330708661417323,"duration":1.2652784104166628},{"name":"C#4","midi":61,"time":47.00002349999995,"velocity":0.4330708661417323,"duration":0.3152779354166668},{"name":"F#4","midi":66,"time":47.166690249999945,"velocity":0.4330708661417323,"duration":0.1569445229166675},{"name":"G#4","midi":68,"time":47.166690249999945,"velocity":0.4330708661417323,"duration":0.47361134791666615},{"name":"F#4","midi":66,"time":47.33335699999994,"velocity":0.4251968503937008,"duration":0.3152779354166668},{"name":"C#4","midi":61,"time":47.666690499999945,"velocity":0.4251968503937008,"duration":0.3152779354166668},{"name":"C#3","midi":49,"time":48.00002399999995,"velocity":0.41732283464566927,"duration":1.89861206041666},{"name":"G#3","midi":56,"time":48.500024249999946,"velocity":0.41732283464566927,"duration":0.47361134791666615},{"name":"C#4","midi":61,"time":48.500024249999946,"velocity":0.41732283464566927,"duration":0.47361134791666615},{"name":"F#4","midi":66,"time":48.500024249999946,"velocity":0.41732283464566927,"duration":0.47361134791666615},{"name":"F#4","midi":66,"time":49.000024499999945,"velocity":0.4094488188976378,"duration":0.1569445229166675},{"name":"C#4","midi":61,"time":49.16669124999994,"velocity":0.4094488188976378,"duration":0.1569445229166675},{"name":"C#4","midi":61,"time":49.33335799999994,"velocity":0.4015748031496063,"duration":0.3152779354166668},{"name":"F#4","midi":66,"time":49.33335799999994,"velocity":0.4015748031496063,"duration":0.6319447604166655},{"name":"C#3","midi":49,"time":50.00002499999994,"velocity":0.3937007874015748,"duration":0.6319447604166655},{"name":"C#4","midi":61,"time":50.00002499999994,"velocity":0.3937007874015748,"duration":0.6319447604166655},{"name":"F4","midi":65,"time":50.00002499999994,"velocity":0.3937007874015748,"duration":0.6319447604166655},{"name":"A#2","midi":46,"time":50.666691999999934,"velocity":0.3858267716535433,"duration":1.2652784104166628},{"name":"F3","midi":53,"time":51.000025499999936,"velocity":0.3858267716535433,"duration":0.47361134791666615},{"name":"A#3","midi":58,"time":51.16669224999993,"velocity":0.3858267716535433,"duration":0.47361134791666615},{"name":"F3","midi":53,"time":51.66669249999993,"velocity":0.3858267716535433,"duration":0.3152779354166668},{"name":"F#3","midi":54,"time":52.000025999999934,"velocity":0.3858267716535433,"duration":1.2652784104166628},{"name":"C#4","midi":61,"time":52.333359499999936,"velocity":0.3858267716535433,"duration":0.3152779354166668},{"name":"F#4","midi":66,"time":52.500026249999934,"velocity":0.3858267716535433,"duration":0.1569445229166675},{"name":"G#4","midi":68,"time":52.500026249999934,"velocity":0.3858267716535433,"duration":0.47361134791666615},{"name":"F#4","midi":66,"time":52.66669299999993,"velocity":0.3858267716535433,"duration":0.3152779354166668},{"name":"C#4","midi":61,"time":53.00002649999993,"velocity":0.3858267716535433,"duration":0.3152779354166668},{"name":"C#3","midi":49,"time":53.333359999999935,"velocity":0.3858267716535433,"duration":1.89861206041666},{"name":"G#3","midi":56,"time":53.833360249999934,"velocity":0.3858267716535433,"duration":0.47361134791666615},{"name":"C#4","midi":61,"time":53.833360249999934,"velocity":0.3858267716535433,"duration":0.47361134791666615},{"name":"F#4","midi":66,"time":53.833360249999934,"velocity":0.3858267716535433,"duration":0.47361134791666615},{"name":"F#4","midi":66,"time":54.333360499999934,"velocity":0.3858267716535433,"duration":0.1569445229166675},{"name":"C#4","midi":61,"time":54.50002724999993,"velocity":0.3858267716535433,"duration":0.1569445229166675},{"name":"C#4","midi":61,"time":54.66669399999993,"velocity":0.3858267716535433,"duration":0.3152779354166668},{"name":"F#4","midi":66,"time":54.66669399999993,"velocity":0.3858267716535433,"duration":0.6319447604166655},{"name":"C#3","midi":49,"time":55.333360999999925,"velocity":0.3858267716535433,"duration":0.6319447604166655},{"name":"C#4","midi":61,"time":55.333360999999925,"velocity":0.3858267716535433,"duration":0.6319447604166655},{"name":"F4","midi":65,"time":55.333360999999925,"velocity":0.3858267716535433,"duration":0.6319447604166655},{"name":"A#2","midi":46,"time":56.00002799999992,"velocity":0.3858267716535433,"duration":1.2652784104166699},{"name":"F3","midi":53,"time":56.00002799999992,"velocity":0.3858267716535433,"duration":1.2652784104166699},{"name":"C#4","midi":61,"time":56.00002799999992,"velocity":0.3858267716535433,"duration":1.2652784104166699},{"name":"F#3","midi":54,"time":57.33336199999992,"velocity":0.4094488188976378,"duration":1.2652784104166699},{"name":"C#4","midi":61,"time":57.33336199999992,"velocity":0.4094488188976378,"duration":1.2652784104166699},{"name":"G#4","midi":68,"time":57.33336199999992,"velocity":0.4094488188976378,"duration":1.2652784104166699},{"name":"C#3","midi":49,"time":58.666695999999924,"velocity":0.4409448818897638,"duration":1.7402786479166679},{"name":"G#3","midi":56,"time":58.666695999999924,"velocity":0.4409448818897638,"duration":1.7402786479166679},{"name":"F4","midi":65,"time":58.666695999999924,"velocity":0.4409448818897638,"duration":1.7402786479166679},{"name":"C#3","midi":49,"time":60.500030249999924,"velocity":0.48031496062992124,"duration":0.7902781729166648},{"name":"G#3","midi":56,"time":60.500030249999924,"velocity":0.48031496062992124,"duration":0.7902781729166648},{"name":"A#2","midi":46,"time":61.333363999999925,"velocity":0.5039370078740157,"duration":1.2652784104166699},{"name":"F3","midi":53,"time":61.333363999999925,"velocity":0.5039370078740157,"duration":1.2652784104166699},{"name":"C#4","midi":61,"time":61.333363999999925,"velocity":0.5039370078740157,"duration":1.2652784104166699},{"name":"F#3","midi":54,"time":62.666697999999926,"velocity":0.5039370078740157,"duration":1.2652784104166699},{"name":"C#4","midi":61,"time":62.666697999999926,"velocity":0.5039370078740157,"duration":1.2652784104166699},{"name":"G#4","midi":68,"time":62.666697999999926,"velocity":0.5039370078740157,"duration":1.2652784104166699},{"name":"C#3","midi":49,"time":64.00003199999993,"velocity":0.5039370078740157,"duration":1.7402786479166679},{"name":"G#3","midi":56,"time":64.00003199999993,"velocity":0.5039370078740157,"duration":1.7402786479166679},{"name":"F4","midi":65,"time":64.00003199999993,"velocity":0.5039370078740157,"duration":1.7402786479166679},{"name":"C#3","midi":49,"time":65.83336624999994,"velocity":0.5039370078740157,"duration":0.7902781729166719},{"name":"G#3","midi":56,"time":65.83336624999994,"velocity":0.5039370078740157,"duration":0.7902781729166719},{"name":"A#2","midi":46,"time":66.66669999999995,"velocity":0.6299212598425197,"duration":1.2652784104166699},{"name":"F3","midi":53,"time":66.66669999999995,"velocity":0.6299212598425197,"duration":1.2652784104166699},{"name":"C#4","midi":61,"time":66.66669999999995,"velocity":0.6299212598425197,"duration":1.2652784104166699},{"name":"F#3","midi":54,"time":68.00003399999996,"velocity":0.6299212598425197,"duration":1.2652784104166699},{"name":"C#4","midi":61,"time":68.00003399999996,"velocity":0.6299212598425197,"duration":1.2652784104166699},{"name":"G#4","midi":68,"time":68.00003399999996,"velocity":0.6299212598425197,"duration":1.2652784104166699},{"name":"C#3","midi":49,"time":69.33336799999996,"velocity":0.6299212598425197,"duration":1.7402786479166679},{"name":"G#3","midi":56,"time":69.33336799999996,"velocity":0.6299212598425197,"duration":1.7402786479166679},{"name":"F4","midi":65,"time":69.33336799999996,"velocity":0.6299212598425197,"duration":1.7402786479166679},{"name":"C#3","midi":49,"time":71.16670224999997,"velocity":0.6299212598425197,"duration":0.7902781729166719},{"name":"G#3","midi":56,"time":71.16670224999997,"velocity":0.6299212598425197,"duration":0.7902781729166719},{"name":"A#2","midi":46,"time":72.00003599999998,"velocity":0.6299212598425197,"duration":1.2652784104166699},{"name":"A#3","midi":58,"time":72.00003599999998,"velocity":0.6299212598425197,"duration":1.2652784104166699},{"name":"F#3","midi":54,"time":73.33336999999999,"velocity":0.6299212598425197,"duration":1.2652784104166699},{"name":"F#4","midi":66,"time":73.33336999999999,"velocity":0.6299212598425197,"duration":1.2652784104166699},{"name":"C#3","midi":49,"time":74.666704,"velocity":0.6299212598425197,"duration":0.3152779354166597},{"name":"G#3","midi":56,"time":74.666704,"velocity":0.6299212598425197,"duration":0.3152779354166597},{"name":"A#3","midi":58,"time":74.666704,"velocity":0.6299212598425197,"duration":0.3152779354166597},{"name":"C#3","midi":49,"time":75.00003749999999,"velocity":0.6299212598425197,"duration":0.3152779354166597},{"name":"G#3","midi":56,"time":75.00003749999999,"velocity":0.6299212598425197,"duration":0.3152779354166597},{"name":"A#3","midi":58,"time":75.00003749999999,"velocity":0.6299212598425197,"duration":0.3152779354166597},{"name":"C#3","midi":49,"time":75.33337099999999,"velocity":0.6299212598425197,"duration":0.3152779354166597},{"name":"G#3","midi":56,"time":75.33337099999999,"velocity":0.6299212598425197,"duration":0.3152779354166597},{"name":"A#3","midi":58,"time":75.33337099999999,"velocity":0.6299212598425197,"duration":0.3152779354166597},{"name":"C#3","midi":49,"time":75.66670449999998,"velocity":0.6299212598425197,"duration":0.3152779354166597},{"name":"G#3","midi":56,"time":75.66670449999998,"velocity":0.6299212598425197,"duration":0.3152779354166597},{"name":"A#3","midi":58,"time":75.66670449999998,"velocity":0.6299212598425197,"duration":0.3152779354166597},{"name":"C#3","midi":49,"time":76.00003799999998,"velocity":0.7559055118110236,"duration":0.3152779354166597},{"name":"G#3","midi":56,"time":76.00003799999998,"velocity":0.7559055118110236,"duration":0.3152779354166597},{"name":"A#3","midi":58,"time":76.00003799999998,"velocity":0.7559055118110236,"duration":0.3152779354166597},{"name":"A#2","midi":46,"time":77.33337199999997,"velocity":0.7559055118110236,"duration":1.265278410416684},{"name":"F3","midi":53,"time":77.50003874999997,"velocity":0.7559055118110236,"duration":0.47361134791667325},{"name":"A#3","midi":58,"time":77.66670549999998,"velocity":0.7559055118110236,"duration":0.9486115854166712},{"name":"F3","midi":53,"time":78.00003899999999,"velocity":0.7559055118110236,"duration":0.6319447604166584},{"name":"F#3","midi":54,"time":78.66670599999998,"velocity":0.7559055118110236,"duration":1.265278410416684},{"name":"C#4","midi":61,"time":78.83337274999998,"velocity":0.7559055118110236,"duration":0.47361134791667325},{"name":"F#4","midi":66,"time":79.00003949999999,"velocity":0.7559055118110236,"duration":0.9486115854166712},{"name":"C#4","midi":61,"time":79.333373,"velocity":0.7559055118110236,"duration":0.6319447604166584},{"name":"C#3","midi":49,"time":80.00003999999998,"velocity":0.7559055118110236,"duration":1.265278410416684},{"name":"G#3","midi":56,"time":80.16670674999999,"velocity":0.7559055118110236,"duration":0.47361134791667325},{"name":"C#4","midi":61,"time":80.3333735,"velocity":0.7559055118110236,"duration":0.9486115854166712},{"name":"G#3","midi":56,"time":80.666707,"velocity":0.7559055118110236,"duration":0.6319447604166584},{"name":"C#3","midi":49,"time":81.33337399999999,"velocity":0.7559055118110236,"duration":0.6319447604166868},{"name":"G#3","midi":56,"time":81.33337399999999,"velocity":0.7559055118110236,"duration":0.47361134791667325},{"name":"C#4","midi":61,"time":81.33337399999999,"velocity":0.7559055118110236,"duration":0.47361134791667325},{"name":"C#4","midi":61,"time":81.83337425,"velocity":0.7559055118110236,"duration":0.1569445229166746},{"name":"D#3","midi":51,"time":82.00004100000001,"velocity":0.7559055118110236,"duration":0.3152779354166597},{"name":"C#3","midi":49,"time":82.3333745,"velocity":0.7559055118110236,"duration":0.3152779354166597},{"name":"G#3","midi":56,"time":82.3333745,"velocity":0.7559055118110236,"duration":0.3152779354166597},{"name":"A#2","midi":46,"time":82.666708,"velocity":0.8818897637795275,"duration":1.265278410416684},{"name":"F3","midi":53,"time":82.83337475,"velocity":0.8818897637795275,"duration":0.47361134791667325},{"name":"A#3","midi":58,"time":83.00004150000001,"velocity":0.8818897637795275,"duration":0.9486115854166712},{"name":"F3","midi":53,"time":83.33337500000002,"velocity":0.8818897637795275,"duration":0.6319447604166584},{"name":"F#3","midi":54,"time":84.00004200000001,"velocity":0.8818897637795275,"duration":1.265278410416684},{"name":"C#4","midi":61,"time":84.16670875000001,"velocity":0.8818897637795275,"duration":0.47361134791667325},{"name":"F#4","midi":66,"time":84.33337550000002,"velocity":0.8818897637795275,"duration":0.9486115854166712},{"name":"C#4","midi":61,"time":84.66670900000003,"velocity":0.8818897637795275,"duration":0.6319447604166584},{"name":"C#3","midi":49,"time":85.33337600000002,"velocity":0.8818897637795275,"duration":1.265278410416684},{"name":"G#3","midi":56,"time":85.50004275000002,"velocity":0.8818897637795275,"duration":0.47361134791667325},{"name":"C#4","midi":61,"time":85.66670950000002,"velocity":0.8818897637795275,"duration":0.9486115854166712},{"name":"G#3","midi":56,"time":86.00004300000003,"velocity":0.8818897637795275,"duration":0.6319447604166584},{"name":"C#3","midi":49,"time":86.66671000000002,"velocity":0.8818897637795275,"duration":0.6319447604166868},{"name":"G#3","midi":56,"time":86.66671000000002,"velocity":0.8818897637795275,"duration":0.47361134791667325},{"name":"C#4","midi":61,"time":86.66671000000002,"velocity":0.8818897637795275,"duration":0.47361134791667325},{"name":"C#4","midi":61,"time":87.16671025000004,"velocity":0.8818897637795275,"duration":0.1569445229166746},{"name":"D#3","midi":51,"time":87.33337700000004,"velocity":0.8818897637795275,"duration":0.3152779354166597},{"name":"C#3","midi":49,"time":87.66671050000004,"velocity":0.8818897637795275,"duration":0.3152779354166597},{"name":"G#3","midi":56,"time":87.66671050000004,"velocity":0.8818897637795275,"duration":0.3152779354166597},{"name":"A#2","midi":46,"time":88.00004400000003,"velocity":0.9921259842519685,"duration":1.2652784104166557},{"name":"A#3","midi":58,"time":88.00004400000003,"velocity":0.9921259842519685,"duration":0.6319447604166584},{"name":"C#4","midi":61,"time":88.00004400000003,"velocity":0.9921259842519685,"duration":0.3152779354166597},{"name":"F3","midi":53,"time":88.33337750000003,"velocity":0.9921259842519685,"duration":0.3152779354166597},{"name":"F3","midi":53,"time":88.66671100000002,"velocity":0.9921259842519685,"duration":0.3152779354166597},{"name":"A#3","midi":58,"time":89.00004450000002,"velocity":0.9921259842519685,"duration":0.3152779354166739},{"name":"C#4","midi":61,"time":89.00004450000002,"velocity":0.9921259842519685,"duration":0.3152779354166739},{"name":"F#3","midi":54,"time":89.33337800000002,"velocity":0.9921259842519685,"duration":1.2652784104166557},{"name":"F#4","midi":66,"time":89.33337800000002,"velocity":0.9921259842519685,"duration":0.6319447604166584},{"name":"G#4","midi":68,"time":89.33337800000002,"velocity":0.9921259842519685,"duration":0.3152779354166597},{"name":"C#4","midi":61,"time":89.66671150000002,"velocity":0.9921259842519685,"duration":0.3152779354166597},{"name":"C#4","midi":61,"time":90.00004500000001,"velocity":0.9921259842519685,"duration":0.3152779354166597},{"name":"F#4","midi":66,"time":90.33337850000001,"velocity":0.9921259842519685,"duration":0.3152779354166739},{"name":"G#4","midi":68,"time":90.33337850000001,"velocity":0.9921259842519685,"duration":0.3152779354166739},{"name":"C#3","midi":49,"time":90.66671200000002,"velocity":0.9921259842519685,"duration":1.2652784104166557},{"name":"C#4","midi":61,"time":90.66671200000002,"velocity":0.9921259842519685,"duration":0.6319447604166584},{"name":"F4","midi":65,"time":90.66671200000002,"velocity":0.9921259842519685,"duration":0.3152779354166597},{"name":"G#3","midi":56,"time":91.00004550000001,"velocity":0.9921259842519685,"duration":0.3152779354166597},{"name":"G#3","midi":56,"time":91.33337900000001,"velocity":0.9921259842519685,"duration":0.3152779354166597},{"name":"C#4","midi":61,"time":91.6667125,"velocity":0.9921259842519685,"duration":0.3152779354166739},{"name":"C#3","midi":49,"time":92.00004600000001,"velocity":0.9921259842519685,"duration":1.2652784104166557},{"name":"C#4","midi":61,"time":92.00004600000001,"velocity":0.9921259842519685,"duration":0.6319447604166584},{"name":"F4","midi":65,"time":92.00004600000001,"velocity":0.9921259842519685,"duration":0.3152779354166597},{"name":"G#3","midi":56,"time":92.3333795,"velocity":0.9921259842519685,"duration":0.3152779354166597},{"name":"G#3","midi":56,"time":92.666713,"velocity":0.9921259842519685,"duration":0.3152779354166597},{"name":"D#4","midi":63,"time":92.666713,"velocity":0.9921259842519685,"duration":0.3152779354166597},{"name":"F#3","midi":54,"time":93.0000465,"velocity":0.9921259842519685,"duration":0.3152779354166739},{"name":"C#4","midi":61,"time":93.0000465,"velocity":0.9921259842519685,"duration":0.3152779354166739},{"name":"C#3","midi":49,"time":93.33338,"velocity":0.9921259842519685,"duration":1.265278410416684},{"name":"G#3","midi":56,"time":93.50004675000001,"velocity":0.9921259842519685,"duration":0.47361134791667325},{"name":"C#4","midi":61,"time":93.66671350000001,"velocity":0.9921259842519685,"duration":0.9486115854166712},{"name":"G#3","midi":56,"time":94.00004700000002,"velocity":0.9921259842519685,"duration":0.6319447604166584},{"name":"C#3","midi":49,"time":94.66671400000001,"velocity":0.9921259842519685,"duration":0.6319447604166868},{"name":"G#3","midi":56,"time":94.66671400000001,"velocity":0.9921259842519685,"duration":0.47361134791667325},{"name":"C#4","midi":61,"time":94.66671400000001,"velocity":0.9921259842519685,"duration":0.47361134791667325},{"name":"C#4","midi":61,"time":95.16671425000003,"velocity":0.9921259842519685,"duration":0.1569445229166746},{"name":"D#3","midi":51,"time":95.33338100000003,"velocity":0.9921259842519685,"duration":0.3152779354166597},{"name":"C#3","midi":49,"time":95.66671450000003,"velocity":0.9921259842519685,"duration":0.3152779354166597},{"name":"G#3","midi":56,"time":95.66671450000003,"velocity":0.9921259842519685,"duration":0.3152779354166597},{"name":"C#3","midi":49,"time":96.00004800000002,"velocity":0.9921259842519685,"duration":1.2652784104166557},{"name":"C#4","midi":61,"time":96.00004800000002,"velocity":0.9921259842519685,"duration":0.6319447604166584},{"name":"F4","midi":65,"time":96.00004800000002,"velocity":0.9921259842519685,"duration":0.3152779354166597},{"name":"G#3","midi":56,"time":96.33338150000002,"velocity":0.968503937007874,"duration":0.3152779354166597},{"name":"G#3","midi":56,"time":96.66671500000001,"velocity":0.937007874015748,"duration":0.3152779354166597},{"name":"C#4","midi":61,"time":97.0000485,"velocity":0.905511811023622,"duration":0.3152779354166739},{"name":"C#3","midi":49,"time":97.33338200000001,"velocity":0.8740157480314961,"duration":1.2652784104166557},{"name":"C#4","midi":61,"time":97.33338200000001,"velocity":0.8740157480314961,"duration":0.6319447604166584},{"name":"F4","midi":65,"time":97.33338200000001,"velocity":0.8740157480314961,"duration":0.3152779354166597},{"name":"G#3","midi":56,"time":97.66671550000001,"velocity":0.8503937007874016,"duration":0.3152779354166597},{"name":"G#3","midi":56,"time":98.000049,"velocity":0.8188976377952756,"duration":0.3152779354166597},{"name":"D#4","midi":63,"time":98.000049,"velocity":0.8188976377952756,"duration":0.3152779354166597},{"name":"F#3","midi":54,"time":98.3333825,"velocity":0.7874015748031497,"duration":0.3152779354166739},{"name":"C#4","midi":61,"time":98.3333825,"velocity":0.7874015748031497,"duration":0.3152779354166739},{"name":"A#2","midi":46,"time":98.66671600000001,"velocity":0.7559055118110236,"duration":1.2652784104166557},{"name":"A#3","midi":58,"time":98.66671600000001,"velocity":0.7559055118110236,"duration":0.6319447604166584},{"name":"C#4","midi":61,"time":98.66671600000001,"velocity":0.7559055118110236,"duration":0.3152779354166597},{"name":"F3","midi":53,"time":99.0000495,"velocity":0.7559055118110236,"duration":0.3152779354166597},{"name":"F3","midi":53,"time":99.333383,"velocity":0.7559055118110236,"duration":0.3152779354166597},{"name":"A#3","midi":58,"time":99.66671649999999,"velocity":0.7559055118110236,"duration":0.3152779354166739},{"name":"C#4","midi":61,"time":99.66671649999999,"velocity":0.7559055118110236,"duration":0.3152779354166739},{"name":"F#3","midi":54,"time":100.00005,"velocity":0.7559055118110236,"duration":1.2652784104166557},{"name":"F#4","midi":66,"time":100.00005,"velocity":0.7559055118110236,"duration":0.6319447604166584},{"name":"G#4","midi":68,"time":100.00005,"velocity":0.7559055118110236,"duration":0.3152779354166597},{"name":"C#4","midi":61,"time":100.3333835,"velocity":0.7559055118110236,"duration":0.3152779354166597},{"name":"C#4","midi":61,"time":100.66671699999999,"velocity":0.7559055118110236,"duration":0.3152779354166597},{"name":"F#4","midi":66,"time":101.00005049999999,"velocity":0.7559055118110236,"duration":0.3152779354166739},{"name":"G#4","midi":68,"time":101.00005049999999,"velocity":0.7559055118110236,"duration":0.3152779354166739},{"name":"C#3","midi":49,"time":101.333384,"velocity":0.7559055118110236,"duration":1.2652784104166557},{"name":"C#4","midi":61,"time":101.333384,"velocity":0.7559055118110236,"duration":0.6319447604166584},{"name":"F4","midi":65,"time":101.333384,"velocity":0.7559055118110236,"duration":0.3152779354166597},{"name":"G#3","midi":56,"time":101.66671749999999,"velocity":0.7559055118110236,"duration":0.3152779354166597},{"name":"G#3","midi":56,"time":102.00005099999998,"velocity":0.7559055118110236,"duration":0.3152779354166597},{"name":"C#4","midi":61,"time":102.33338449999998,"velocity":0.7559055118110236,"duration":0.3152779354166739},{"name":"C#3","midi":49,"time":102.66671799999999,"velocity":0.7559055118110236,"duration":1.2652784104166557},{"name":"C#4","midi":61,"time":102.66671799999999,"velocity":0.7559055118110236,"duration":0.6319447604166584},{"name":"F4","midi":65,"time":102.66671799999999,"velocity":0.7559055118110236,"duration":0.3152779354166597},{"name":"G#3","midi":56,"time":103.00005149999998,"velocity":0.7559055118110236,"duration":0.3152779354166597},{"name":"G#3","midi":56,"time":103.33338499999998,"velocity":0.7559055118110236,"duration":0.3152779354166597},{"name":"D#4","midi":63,"time":103.33338499999998,"velocity":0.7559055118110236,"duration":0.3152779354166597},{"name":"F#3","midi":54,"time":103.66671849999997,"velocity":0.7559055118110236,"duration":0.3152779354166739},{"name":"C#4","midi":61,"time":103.66671849999997,"velocity":0.7559055118110236,"duration":0.3152779354166739},{"name":"A#2","midi":46,"time":104.00005199999998,"velocity":0.7559055118110236,"duration":1.2652784104166557},{"name":"A#3","midi":58,"time":104.00005199999998,"velocity":0.7559055118110236,"duration":0.6319447604166584},{"name":"C#4","midi":61,"time":104.00005199999998,"velocity":0.7559055118110236,"duration":0.3152779354166597},{"name":"F3","midi":53,"time":104.33338549999998,"velocity":0.7559055118110236,"duration":0.3152779354166597},{"name":"F3","midi":53,"time":104.66671899999997,"velocity":0.7559055118110236,"duration":0.3152779354166597},{"name":"A#3","midi":58,"time":105.00005249999997,"velocity":0.7559055118110236,"duration":0.3152779354166739},{"name":"C#4","midi":61,"time":105.00005249999997,"velocity":0.7559055118110236,"duration":0.3152779354166739},{"name":"F#3","midi":54,"time":105.33338599999998,"velocity":0.7559055118110236,"duration":1.2652784104166557},{"name":"F#4","midi":66,"time":105.33338599999998,"velocity":0.7559055118110236,"duration":0.6319447604166584},{"name":"G#4","midi":68,"time":105.33338599999998,"velocity":0.7559055118110236,"duration":0.3152779354166597},{"name":"C#4","midi":61,"time":105.66671949999997,"velocity":0.7559055118110236,"duration":0.3152779354166597},{"name":"C#4","midi":61,"time":106.00005299999997,"velocity":0.7559055118110236,"duration":0.3152779354166597},{"name":"F#4","midi":66,"time":106.33338649999996,"velocity":0.7559055118110236,"duration":0.3152779354166739},{"name":"G#4","midi":68,"time":106.33338649999996,"velocity":0.7559055118110236,"duration":0.3152779354166739},{"name":"C#3","midi":49,"time":106.66671999999997,"velocity":0.7559055118110236,"duration":1.2652784104166557},{"name":"C#4","midi":61,"time":106.66671999999997,"velocity":0.7559055118110236,"duration":0.6319447604166584},{"name":"F4","midi":65,"time":106.66671999999997,"velocity":0.7559055118110236,"duration":0.3152779354166597},{"name":"G#3","midi":56,"time":107.00005349999996,"velocity":0.7559055118110236,"duration":0.3152779354166597},{"name":"G#3","midi":56,"time":107.33338699999996,"velocity":0.7559055118110236,"duration":0.3152779354166597},{"name":"C#4","midi":61,"time":107.66672049999995,"velocity":0.7559055118110236,"duration":0.3152779354166739},{"name":"C#3","midi":49,"time":108.00005399999996,"velocity":0.7559055118110236,"duration":1.2652784104166557},{"name":"C#4","midi":61,"time":108.00005399999996,"velocity":0.7559055118110236,"duration":0.6319447604166584},{"name":"F4","midi":65,"time":108.00005399999996,"velocity":0.7559055118110236,"duration":0.3152779354166597},{"name":"G#3","midi":56,"time":108.33338749999996,"velocity":0.7559055118110236,"duration":0.3152779354166597},{"name":"G#3","midi":56,"time":108.66672099999995,"velocity":0.7559055118110236,"duration":0.3152779354166597},{"name":"D#4","midi":63,"time":108.66672099999995,"velocity":0.7559055118110236,"duration":0.3152779354166597},{"name":"F#3","midi":54,"time":109.00005449999995,"velocity":0.7559055118110236,"duration":0.3152779354166739},{"name":"C#4","midi":61,"time":109.00005449999995,"velocity":0.7559055118110236,"duration":0.3152779354166739},{"name":"A#2","midi":46,"time":109.33338799999996,"velocity":0.6299212598425197,"duration":1.2652784104166557},{"name":"A#3","midi":58,"time":109.33338799999996,"velocity":0.6299212598425197,"duration":0.6319447604166584},{"name":"C#4","midi":61,"time":109.33338799999996,"velocity":0.6299212598425197,"duration":0.3152779354166597},{"name":"F3","midi":53,"time":109.66672149999995,"velocity":0.6299212598425197,"duration":0.3152779354166597},{"name":"F3","midi":53,"time":110.00005499999995,"velocity":0.6299212598425197,"duration":0.3152779354166597},{"name":"A#3","midi":58,"time":110.33338849999994,"velocity":0.6299212598425197,"duration":0.3152779354166739},{"name":"C#4","midi":61,"time":110.33338849999994,"velocity":0.6299212598425197,"duration":0.3152779354166739},{"name":"F#3","midi":54,"time":110.66672199999995,"velocity":0.6299212598425197,"duration":1.2652784104166557},{"name":"F#4","midi":66,"time":110.66672199999995,"velocity":0.6299212598425197,"duration":0.6319447604166584},{"name":"G#4","midi":68,"time":110.66672199999995,"velocity":0.6299212598425197,"duration":0.3152779354166597},{"name":"C#4","midi":61,"time":111.00005549999995,"velocity":0.6299212598425197,"duration":0.3152779354166597},{"name":"C#4","midi":61,"time":111.33338899999994,"velocity":0.6299212598425197,"duration":0.3152779354166597},{"name":"F#4","midi":66,"time":111.66672249999993,"velocity":0.6299212598425197,"duration":0.3152779354166739},{"name":"G#4","midi":68,"time":111.66672249999993,"velocity":0.6299212598425197,"duration":0.3152779354166739},{"name":"C#3","midi":49,"time":112.00005599999994,"velocity":0.6299212598425197,"duration":1.2652784104166557},{"name":"C#4","midi":61,"time":112.00005599999994,"velocity":0.6299212598425197,"duration":0.6319447604166584},{"name":"F4","midi":65,"time":112.00005599999994,"velocity":0.6299212598425197,"duration":0.3152779354166597},{"name":"G#3","midi":56,"time":112.33338949999994,"velocity":0.6299212598425197,"duration":0.3152779354166597},{"name":"G#3","midi":56,"time":112.66672299999993,"velocity":0.6299212598425197,"duration":0.3152779354166597},{"name":"C#4","midi":61,"time":113.00005649999993,"velocity":0.6299212598425197,"duration":0.3152779354166739},{"name":"C#3","midi":49,"time":113.33338999999994,"velocity":0.6299212598425197,"duration":1.2652784104166557},{"name":"C#4","midi":61,"time":113.33338999999994,"velocity":0.6299212598425197,"duration":0.6319447604166584},{"name":"F4","midi":65,"time":113.33338999999994,"velocity":0.6299212598425197,"duration":0.3152779354166597},{"name":"G#3","midi":56,"time":113.66672349999993,"velocity":0.6299212598425197,"duration":0.3152779354166597},{"name":"G#3","midi":56,"time":114.00005699999993,"velocity":0.6299212598425197,"duration":0.3152779354166597},{"name":"D#4","midi":63,"time":114.00005699999993,"velocity":0.6299212598425197,"duration":0.3152779354166597},{"name":"F#3","midi":54,"time":114.33339049999992,"velocity":0.6299212598425197,"duration":0.3152779354166739},{"name":"C#4","midi":61,"time":114.33339049999992,"velocity":0.6299212598425197,"duration":0.3152779354166739},{"name":"A#2","midi":46,"time":114.66672399999993,"velocity":0.6299212598425197,"duration":1.2652784104166557},{"name":"A#3","midi":58,"time":114.66672399999993,"velocity":0.6299212598425197,"duration":0.6319447604166584},{"name":"C#4","midi":61,"time":114.66672399999993,"velocity":0.6299212598425197,"duration":0.3152779354166597},{"name":"F3","midi":53,"time":115.00005749999993,"velocity":0.6299212598425197,"duration":0.3152779354166597},{"name":"F3","midi":53,"time":115.33339099999992,"velocity":0.6299212598425197,"duration":0.3152779354166597},{"name":"A#3","midi":58,"time":115.66672449999992,"velocity":0.6299212598425197,"duration":0.3152779354166739},{"name":"C#4","midi":61,"time":115.66672449999992,"velocity":0.6299212598425197,"duration":0.3152779354166739},{"name":"F#3","midi":54,"time":116.00005799999992,"velocity":0.6299212598425197,"duration":1.2652784104166557},{"name":"F#4","midi":66,"time":116.00005799999992,"velocity":0.6299212598425197,"duration":0.6319447604166584},{"name":"G#4","midi":68,"time":116.00005799999992,"velocity":0.6299212598425197,"duration":0.3152779354166597},{"name":"C#4","midi":61,"time":116.33339149999992,"velocity":0.6299212598425197,"duration":0.3152779354166597},{"name":"C#4","midi":61,"time":116.66672499999991,"velocity":0.6299212598425197,"duration":0.3152779354166597},{"name":"F#4","midi":66,"time":117.00005849999991,"velocity":0.6299212598425197,"duration":0.3152779354166739},{"name":"G#4","midi":68,"time":117.00005849999991,"velocity":0.6299212598425197,"duration":0.3152779354166739},{"name":"C#3","midi":49,"time":117.33339199999992,"velocity":0.6299212598425197,"duration":1.2652784104166557},{"name":"C#4","midi":61,"time":117.33339199999992,"velocity":0.6299212598425197,"duration":0.6319447604166584},{"name":"F4","midi":65,"time":117.33339199999992,"velocity":0.6299212598425197,"duration":0.3152779354166597},{"name":"G#3","midi":56,"time":117.66672549999991,"velocity":0.6299212598425197,"duration":0.3152779354166597},{"name":"G#3","midi":56,"time":118.00005899999991,"velocity":0.6299212598425197,"duration":0.3152779354166597},{"name":"C#4","midi":61,"time":118.3333924999999,"velocity":0.6299212598425197,"duration":0.3152779354166739},{"name":"C#3","midi":49,"time":118.66672599999991,"velocity":0.6299212598425197,"duration":0.6319447604166726},{"name":"C#4","midi":61,"time":118.66672599999991,"velocity":0.6299212598425197,"duration":0.6319447604166726},{"name":"F4","midi":65,"time":118.66672599999991,"velocity":0.6299212598425197,"duration":0.6319447604166726},{"name":"C#4","midi":61,"time":119.33339299999992,"velocity":0.8818897637795275,"duration":0.3152779354166597},{"name":"C#5","midi":73,"time":119.33339299999992,"velocity":0.8818897637795275,"duration":0.3152779354166597},{"name":"C4","midi":60,"time":119.66672649999991,"velocity":0.8818897637795275,"duration":0.3152779354166597},{"name":"C5","midi":72,"time":119.66672649999991,"velocity":0.8818897637795275,"duration":0.3152779354166597},{"name":"A#2","midi":46,"time":120.0000599999999,"velocity":0.6299212598425197,"duration":1.265278410416684},{"name":"A#3","midi":58,"time":120.0000599999999,"velocity":0.6299212598425197,"duration":0.3152779354166597},{"name":"F3","midi":53,"time":120.3333934999999,"velocity":0.6299212598425197,"duration":0.47361134791667325},{"name":"A#3","midi":58,"time":120.5000602499999,"velocity":0.6299212598425197,"duration":0.47361134791667325},{"name":"C#4","midi":61,"time":120.5000602499999,"velocity":0.6299212598425197,"duration":0.3152779354166739},{"name":"F3","midi":53,"time":121.00006049999992,"velocity":0.6299212598425197,"duration":0.3152779354166739},{"name":"F#3","midi":54,"time":121.33339399999993,"velocity":0.6299212598425197,"duration":1.265278410416684},{"name":"C#4","midi":61,"time":121.66672749999992,"velocity":0.6299212598425197,"duration":0.3152779354166739},{"name":"F#4","midi":66,"time":121.83339424999993,"velocity":0.6299212598425197,"duration":0.47361134791667325},{"name":"G#4","midi":68,"time":121.83339424999993,"velocity":0.6299212598425197,"duration":0.47361134791667325},{"name":"C#4","midi":61,"time":122.33339449999994,"velocity":0.6299212598425197,"duration":0.3152779354166739},{"name":"C#3","midi":49,"time":122.66672799999995,"velocity":0.6299212598425197,"duration":1.8986120604166672},{"name":"G#3","midi":56,"time":123.00006149999994,"velocity":0.6299212598425197,"duration":0.1569445229166604},{"name":"C#4","midi":61,"time":123.00006149999994,"velocity":0.6299212598425197,"duration":0.1569445229166604},{"name":"G#3","midi":56,"time":123.16672824999993,"velocity":0.6299212598425197,"duration":0.47361134791667325},{"name":"C#4","midi":61,"time":123.16672824999993,"velocity":0.6299212598425197,"duration":0.47361134791667325},{"name":"F#4","midi":66,"time":123.16672824999993,"velocity":0.6299212598425197,"duration":0.47361134791667325},{"name":"F#4","midi":66,"time":123.66672849999995,"velocity":0.6299212598425197,"duration":0.1569445229166604},{"name":"C#4","midi":61,"time":123.83339524999994,"velocity":0.6299212598425197,"duration":0.47361134791667325},{"name":"F#4","midi":66,"time":124.00006199999994,"velocity":0.6299212598425197,"duration":0.6319447604166726},{"name":"C#3","midi":49,"time":124.66672899999995,"velocity":0.6299212598425197,"duration":0.6319447604166726},{"name":"C#4","midi":61,"time":124.66672899999995,"velocity":0.6299212598425197,"duration":0.6319447604166726},{"name":"F4","midi":65,"time":124.66672899999995,"velocity":0.6299212598425197,"duration":0.6319447604166726},{"name":"A#2","midi":46,"time":125.33339599999995,"velocity":0.6299212598425197,"duration":1.265278410416684},{"name":"A#3","midi":58,"time":125.33339599999995,"velocity":0.6299212598425197,"duration":0.3152779354166597},{"name":"F3","midi":53,"time":125.66672949999995,"velocity":0.6299212598425197,"duration":0.47361134791667325},{"name":"A#3","midi":58,"time":125.83339624999995,"velocity":0.6299212598425197,"duration":0.47361134791667325},{"name":"C#4","midi":61,"time":125.83339624999995,"velocity":0.6299212598425197,"duration":0.3152779354166739},{"name":"F3","midi":53,"time":126.33339649999996,"velocity":0.6299212598425197,"duration":0.3152779354166739},{"name":"F#3","midi":54,"time":126.66672999999997,"velocity":0.6299212598425197,"duration":1.265278410416684},{"name":"C#4","midi":61,"time":127.00006349999997,"velocity":0.6299212598425197,"duration":0.3152779354166739},{"name":"F#4","midi":66,"time":127.16673024999997,"velocity":0.6299212598425197,"duration":0.47361134791667325},{"name":"G#4","midi":68,"time":127.16673024999997,"velocity":0.6299212598425197,"duration":0.47361134791667325},{"name":"C#4","midi":61,"time":127.66673049999999,"velocity":0.6299212598425197,"duration":0.3152779354166739},{"name":"C#3","midi":49,"time":128.00006399999998,"velocity":0.6299212598425197,"duration":1.8986120604166388},{"name":"G#3","midi":56,"time":128.3333975,"velocity":0.6299212598425197,"duration":0.1569445229166604},{"name":"C#4","midi":61,"time":128.3333975,"velocity":0.6299212598425197,"duration":0.1569445229166604},{"name":"G#3","midi":56,"time":128.50006424999998,"velocity":0.6299212598425197,"duration":0.47361134791665904},{"name":"C#4","midi":61,"time":128.50006424999998,"velocity":0.6299212598425197,"duration":0.47361134791665904},{"name":"F#4","midi":66,"time":128.50006424999998,"velocity":0.6299212598425197,"duration":0.47361134791665904},{"name":"F#4","midi":66,"time":129.00006449999998,"velocity":0.6299212598425197,"duration":0.1569445229166604},{"name":"C#4","midi":61,"time":129.16673124999997,"velocity":0.6299212598425197,"duration":0.47361134791665904},{"name":"F#4","midi":66,"time":129.33339799999996,"velocity":0.6299212598425197,"duration":0.6319447604166726},{"name":"C#3","midi":49,"time":130.00006499999998,"velocity":0.6299212598425197,"duration":0.6319447604166726},{"name":"C#4","midi":61,"time":130.00006499999998,"velocity":0.6299212598425197,"duration":0.6319447604166726},{"name":"F4","midi":65,"time":130.00006499999998,"velocity":0.6299212598425197,"duration":0.6319447604166726},{"name":"A#2","midi":46,"time":130.666732,"velocity":0.7559055118110236,"duration":1.2652784104166983},{"name":"A#3","midi":58,"time":130.666732,"velocity":0.7559055118110236,"duration":0.3152779354166739},{"name":"F3","midi":53,"time":131.0000655,"velocity":0.7480314960629921,"duration":0.47361134791665904},{"name":"A#3","midi":58,"time":131.16673225,"velocity":0.7480314960629921,"duration":0.47361134791668746},{"name":"C#4","midi":61,"time":131.16673225,"velocity":0.7480314960629921,"duration":0.3152779354166739},{"name":"F3","midi":53,"time":131.66673250000002,"velocity":0.7322834645669292,"duration":0.3152779354166739},{"name":"F#3","midi":54,"time":132.00006600000003,"velocity":0.7244094488188977,"duration":1.2652784104166699},{"name":"C#4","midi":61,"time":132.33339950000004,"velocity":0.7165354330708661,"duration":0.3152779354166455},{"name":"F#4","midi":66,"time":132.50006625000003,"velocity":0.7165354330708661,"duration":0.47361134791665904},{"name":"G#4","midi":68,"time":132.50006625000003,"velocity":0.7165354330708661,"duration":0.47361134791665904},{"name":"C#4","midi":61,"time":133.00006650000003,"velocity":0.7007874015748031,"duration":0.3152779354166739},{"name":"C#3","midi":49,"time":133.33340000000004,"velocity":0.6929133858267716,"duration":1.8986120604166388},{"name":"G#3","midi":56,"time":133.66673350000005,"velocity":0.6850393700787402,"duration":0.1569445229166604},{"name":"C#4","midi":61,"time":133.66673350000005,"velocity":0.6850393700787402,"duration":0.1569445229166604},{"name":"G#3","midi":56,"time":133.83340025000004,"velocity":0.6850393700787402,"duration":0.47361134791665904},{"name":"C#4","midi":61,"time":133.83340025000004,"velocity":0.6850393700787402,"duration":0.47361134791665904},{"name":"F#4","midi":66,"time":133.83340025000004,"velocity":0.6850393700787402,"duration":0.47361134791665904},{"name":"F#4","midi":66,"time":134.33340050000004,"velocity":0.6692913385826772,"duration":0.1569445229166604},{"name":"C#4","midi":61,"time":134.50006725000003,"velocity":0.6692913385826772,"duration":0.47361134791665904},{"name":"F#4","midi":66,"time":134.66673400000002,"velocity":0.6614173228346457,"duration":0.6319447604166726},{"name":"C#3","midi":49,"time":135.33340100000004,"velocity":0.6456692913385826,"duration":0.6319447604166726},{"name":"C#4","midi":61,"time":135.33340100000004,"velocity":0.6456692913385826,"duration":0.6319447604166726},{"name":"F4","midi":65,"time":135.33340100000004,"velocity":0.6456692913385826,"duration":0.6319447604166726},{"name":"A#2","midi":46,"time":136.00006800000006,"velocity":0.6299212598425197,"duration":1.2652784104166983},{"name":"A#3","midi":58,"time":136.00006800000006,"velocity":0.6299212598425197,"duration":0.3152779354166739},{"name":"F3","midi":53,"time":136.33340150000006,"velocity":0.6299212598425197,"duration":0.47361134791665904},{"name":"A#3","midi":58,"time":136.50006825000006,"velocity":0.6299212598425197,"duration":0.47361134791668746},{"name":"C#4","midi":61,"time":136.50006825000006,"velocity":0.6299212598425197,"duration":0.3152779354166739},{"name":"F3","midi":53,"time":137.00006850000008,"velocity":0.6299212598425197,"duration":0.3152779354166739},{"name":"F#3","midi":54,"time":137.3334020000001,"velocity":0.6299212598425197,"duration":1.2652784104166699},{"name":"C#4","midi":61,"time":137.6667355000001,"velocity":0.6299212598425197,"duration":0.3152779354166455},{"name":"F#4","midi":66,"time":137.8334022500001,"velocity":0.6299212598425197,"duration":0.47361134791665904},{"name":"G#4","midi":68,"time":137.8334022500001,"velocity":0.6299212598425197,"duration":0.47361134791665904},{"name":"C#4","midi":61,"time":138.3334025000001,"velocity":0.6299212598425197,"duration":0.3152779354166739},{"name":"C#3","midi":49,"time":138.6667360000001,"velocity":0.6299212598425197,"duration":1.8986120604166388},{"name":"G#3","midi":56,"time":139.0000695000001,"velocity":0.6299212598425197,"duration":0.1569445229166604},{"name":"C#4","midi":61,"time":139.0000695000001,"velocity":0.6299212598425197,"duration":0.1569445229166604},{"name":"G#3","midi":56,"time":139.1667362500001,"velocity":0.6299212598425197,"duration":0.47361134791665904},{"name":"C#4","midi":61,"time":139.1667362500001,"velocity":0.6299212598425197,"duration":0.47361134791665904},{"name":"F#4","midi":66,"time":139.1667362500001,"velocity":0.6299212598425197,"duration":0.47361134791665904},{"name":"F#4","midi":66,"time":139.6667365000001,"velocity":0.6299212598425197,"duration":0.1569445229166604},{"name":"C#4","midi":61,"time":139.8334032500001,"velocity":0.6299212598425197,"duration":0.47361134791665904},{"name":"F#4","midi":66,"time":140.00007000000008,"velocity":0.6299212598425197,"duration":0.6319447604166726},{"name":"C#3","midi":49,"time":140.6667370000001,"velocity":0.6299212598425197,"duration":0.6319447604166726},{"name":"C#4","midi":61,"time":140.6667370000001,"velocity":0.6299212598425197,"duration":0.6319447604166726},{"name":"F4","midi":65,"time":140.6667370000001,"velocity":0.6299212598425197,"duration":0.6319447604166726},{"name":"A#2","midi":46,"time":141.33340400000012,"velocity":0.3858267716535433,"duration":1.2652784104166699},{"name":"F3","midi":53,"time":141.33340400000012,"velocity":0.3858267716535433,"duration":1.2652784104166699},{"name":"C#4","midi":61,"time":141.33340400000012,"velocity":0.3858267716535433,"duration":1.2652784104166699},{"name":"F#3","midi":54,"time":142.66673800000012,"velocity":0.4015748031496063,"duration":1.2652784104166699},{"name":"C#4","midi":61,"time":142.66673800000012,"velocity":0.4015748031496063,"duration":1.2652784104166699},{"name":"G#4","midi":68,"time":142.66673800000012,"velocity":0.4015748031496063,"duration":1.2652784104166699},{"name":"C#3","midi":49,"time":144.00007200000013,"velocity":0.4330708661417323,"duration":1.7402786479166537},{"name":"G#3","midi":56,"time":144.00007200000013,"velocity":0.4330708661417323,"duration":1.7402786479166537},{"name":"F4","midi":65,"time":144.00007200000013,"velocity":0.4330708661417323,"duration":1.7402786479166537},{"name":"C#3","midi":49,"time":145.8334062500001,"velocity":0.47244094488188976,"duration":0.7902781729166577},{"name":"G#3","midi":56,"time":145.8334062500001,"velocity":0.47244094488188976,"duration":0.7902781729166577},{"name":"A#2","midi":46,"time":146.6667400000001,"velocity":0.49606299212598426,"duration":1.2652784104166699},{"name":"F3","midi":53,"time":146.6667400000001,"velocity":0.49606299212598426,"duration":1.2652784104166699},{"name":"C#4","midi":61,"time":146.6667400000001,"velocity":0.49606299212598426,"duration":1.2652784104166699},{"name":"F#3","midi":54,"time":148.0000740000001,"velocity":0.5039370078740157,"duration":1.2652784104166699},{"name":"C#4","midi":61,"time":148.0000740000001,"velocity":0.5039370078740157,"duration":1.2652784104166699},{"name":"G#4","midi":68,"time":148.0000740000001,"velocity":0.5039370078740157,"duration":1.2652784104166699},{"name":"C#3","midi":49,"time":149.3334080000001,"velocity":0.5039370078740157,"duration":1.7402786479166537},{"name":"G#3","midi":56,"time":149.3334080000001,"velocity":0.5039370078740157,"duration":1.7402786479166537},{"name":"F4","midi":65,"time":149.3334080000001,"velocity":0.5039370078740157,"duration":1.7402786479166537},{"name":"C#3","midi":49,"time":151.16674225000008,"velocity":0.5039370078740157,"duration":0.7902781729166577},{"name":"G#3","midi":56,"time":151.16674225000008,"velocity":0.5039370078740157,"duration":0.7902781729166577},{"name":"A#2","midi":46,"time":152.00007600000006,"velocity":0.5039370078740157,"duration":1.2652784104166699},{"name":"F3","midi":53,"time":152.00007600000006,"velocity":0.5039370078740157,"duration":1.2652784104166699},{"name":"C#4","midi":61,"time":152.00007600000006,"velocity":0.5039370078740157,"duration":1.2652784104166699},{"name":"F#3","midi":54,"time":153.33341000000007,"velocity":0.6299212598425197,"duration":1.2652784104166699},{"name":"C#4","midi":61,"time":153.33341000000007,"velocity":0.6299212598425197,"duration":1.2652784104166699},{"name":"G#4","midi":68,"time":153.33341000000007,"velocity":0.6299212598425197,"duration":1.2652784104166699},{"name":"C#3","midi":49,"time":154.66674400000008,"velocity":0.6299212598425197,"duration":1.7402786479166537},{"name":"G#3","midi":56,"time":154.66674400000008,"velocity":0.6299212598425197,"duration":1.7402786479166537},{"name":"F4","midi":65,"time":154.66674400000008,"velocity":0.6299212598425197,"duration":1.7402786479166537},{"name":"C#3","midi":49,"time":156.50007825000006,"velocity":0.6299212598425197,"duration":0.7902781729166577},{"name":"G#3","midi":56,"time":156.50007825000006,"velocity":0.6299212598425197,"duration":0.7902781729166577},{"name":"A#2","midi":46,"time":157.33341200000004,"velocity":0.6299212598425197,"duration":1.2652784104166699},{"name":"A#3","midi":58,"time":157.33341200000004,"velocity":0.6299212598425197,"duration":1.2652784104166699},{"name":"F#3","midi":54,"time":158.66674600000005,"velocity":0.6299212598425197,"duration":1.2652784104166699},{"name":"F#4","midi":66,"time":158.66674600000005,"velocity":0.6299212598425197,"duration":1.2652784104166699},{"name":"C#3","midi":49,"time":160.00008000000005,"velocity":0.6299212598425197,"duration":0.3152779354166739},{"name":"G#3","midi":56,"time":160.00008000000005,"velocity":0.6299212598425197,"duration":0.3152779354166739},{"name":"A#3","midi":58,"time":160.00008000000005,"velocity":0.6299212598425197,"duration":0.3152779354166739},{"name":"C#3","midi":49,"time":160.33341350000006,"velocity":0.6299212598425197,"duration":0.3152779354166739},{"name":"G#3","midi":56,"time":160.33341350000006,"velocity":0.6299212598425197,"duration":0.3152779354166739},{"name":"A#3","midi":58,"time":160.33341350000006,"velocity":0.6299212598425197,"duration":0.3152779354166739},{"name":"C#3","midi":49,"time":160.66674700000007,"velocity":0.6299212598425197,"duration":0.3152779354166739},{"name":"G#3","midi":56,"time":160.66674700000007,"velocity":0.6299212598425197,"duration":0.3152779354166739},{"name":"A#3","midi":58,"time":160.66674700000007,"velocity":0.6299212598425197,"duration":0.3152779354166739},{"name":"C#3","midi":49,"time":161.00008050000008,"velocity":0.6299212598425197,"duration":0.3152779354166739},{"name":"G#3","midi":56,"time":161.00008050000008,"velocity":0.6299212598425197,"duration":0.3152779354166739},{"name":"A#3","midi":58,"time":161.00008050000008,"velocity":0.6299212598425197,"duration":0.3152779354166739},{"name":"C#3","midi":49,"time":161.3334140000001,"velocity":0.7559055118110236,"duration":0.3152779354166739},{"name":"G#3","midi":56,"time":161.3334140000001,"velocity":0.7559055118110236,"duration":0.3152779354166739},{"name":"A#3","midi":58,"time":161.3334140000001,"velocity":0.7559055118110236,"duration":0.3152779354166739},{"name":"A#2","midi":46,"time":162.6667480000001,"velocity":0.7559055118110236,"duration":1.2652784104166699},{"name":"F3","midi":53,"time":162.8334147500001,"velocity":0.7559055118110236,"duration":0.47361134791665904},{"name":"A#3","midi":58,"time":163.00008150000008,"velocity":0.7559055118110236,"duration":0.9486115854166997},{"name":"F3","midi":53,"time":163.3334150000001,"velocity":0.7559055118110236,"duration":0.631944760416701},{"name":"F#3","midi":54,"time":164.00008200000013,"velocity":0.7559055118110236,"duration":1.2652784104166699},{"name":"C#4","midi":61,"time":164.16674875000012,"velocity":0.7559055118110236,"duration":0.47361134791665904},{"name":"F#4","midi":66,"time":164.33341550000011,"velocity":0.7559055118110236,"duration":0.9486115854166997},{"name":"C#4","midi":61,"time":164.66674900000012,"velocity":0.7559055118110236,"duration":0.631944760416701},{"name":"C#3","midi":49,"time":165.33341600000017,"velocity":0.7559055118110236,"duration":1.2652784104166699},{"name":"G#3","midi":56,"time":165.50008275000016,"velocity":0.7559055118110236,"duration":0.47361134791665904},{"name":"C#4","midi":61,"time":165.66674950000015,"velocity":0.7559055118110236,"duration":0.9486115854166997},{"name":"G#3","midi":56,"time":166.00008300000016,"velocity":0.7559055118110236,"duration":0.631944760416701},{"name":"C#3","midi":49,"time":166.6667500000002,"velocity":0.7559055118110236,"duration":0.6319447604166726},{"name":"G#3","midi":56,"time":166.6667500000002,"velocity":0.7559055118110236,"duration":0.47361134791665904},{"name":"C#4","midi":61,"time":166.6667500000002,"velocity":0.7559055118110236,"duration":0.47361134791665904},{"name":"C#4","midi":61,"time":167.1667502500002,"velocity":0.7559055118110236,"duration":0.1569445229166604},{"name":"D#3","midi":51,"time":167.3334170000002,"velocity":0.7559055118110236,"duration":0.3152779354166739},{"name":"C#3","midi":49,"time":167.6667505000002,"velocity":0.7559055118110236,"duration":0.3152779354166739},{"name":"G#3","midi":56,"time":167.6667505000002,"velocity":0.7559055118110236,"duration":0.3152779354166739},{"name":"A#2","midi":46,"time":168.00008400000021,"velocity":0.8818897637795275,"duration":1.2652784104166699},{"name":"F3","midi":53,"time":168.1667507500002,"velocity":0.8818897637795275,"duration":0.47361134791665904},{"name":"A#3","midi":58,"time":168.3334175000002,"velocity":0.8818897637795275,"duration":0.9486115854166997},{"name":"F3","midi":53,"time":168.6667510000002,"velocity":0.8818897637795275,"duration":0.631944760416701},{"name":"F#3","midi":54,"time":169.33341800000025,"velocity":0.8818897637795275,"duration":1.2652784104166699},{"name":"C#4","midi":61,"time":169.50008475000024,"velocity":0.8818897637795275,"duration":0.47361134791665904},{"name":"F#4","midi":66,"time":169.66675150000023,"velocity":0.8818897637795275,"duration":0.9486115854166997},{"name":"C#4","midi":61,"time":170.00008500000024,"velocity":0.8818897637795275,"duration":0.631944760416701},{"name":"C#3","midi":49,"time":170.6667520000003,"velocity":0.8818897637795275,"duration":1.2652784104166699},{"name":"G#3","midi":56,"time":170.83341875000028,"velocity":0.8818897637795275,"duration":0.47361134791665904},{"name":"C#4","midi":61,"time":171.00008550000027,"velocity":0.8818897637795275,"duration":0.9486115854166997},{"name":"G#3","midi":56,"time":171.33341900000028,"velocity":0.8818897637795275,"duration":0.631944760416701},{"name":"C#3","midi":49,"time":172.00008600000032,"velocity":0.8818897637795275,"duration":0.6319447604166726},{"name":"G#3","midi":56,"time":172.00008600000032,"velocity":0.8818897637795275,"duration":0.47361134791665904},{"name":"C#4","midi":61,"time":172.00008600000032,"velocity":0.8818897637795275,"duration":0.47361134791665904},{"name":"C#4","midi":61,"time":172.50008625000032,"velocity":0.8818897637795275,"duration":0.1569445229166604},{"name":"D#3","midi":51,"time":172.6667530000003,"velocity":0.8818897637795275,"duration":0.3152779354166739},{"name":"C#3","midi":49,"time":173.00008650000032,"velocity":0.8818897637795275,"duration":0.3152779354166739},{"name":"G#3","midi":56,"time":173.00008650000032,"velocity":0.8818897637795275,"duration":0.3152779354166739},{"name":"A#2","midi":46,"time":173.33342000000033,"velocity":0.9921259842519685,"duration":1.2652784104166983},{"name":"A#3","midi":58,"time":173.33342000000033,"velocity":0.9921259842519685,"duration":0.6319447604166726},{"name":"C#4","midi":61,"time":173.33342000000033,"velocity":0.9921259842519685,"duration":0.3152779354166739},{"name":"F3","midi":53,"time":173.66675350000034,"velocity":0.9921259842519685,"duration":0.3152779354166739},{"name":"F3","midi":53,"time":174.00008700000035,"velocity":0.9921259842519685,"duration":0.3152779354166739},{"name":"A#3","midi":58,"time":174.33342050000036,"velocity":0.9921259842519685,"duration":0.3152779354166739},{"name":"C#4","midi":61,"time":174.33342050000036,"velocity":0.9921259842519685,"duration":0.3152779354166739},{"name":"F#3","midi":54,"time":174.66675400000037,"velocity":0.9921259842519685,"duration":1.2652784104166983},{"name":"F#4","midi":66,"time":174.66675400000037,"velocity":0.9921259842519685,"duration":0.6319447604166726},{"name":"G#4","midi":68,"time":174.66675400000037,"velocity":0.9921259842519685,"duration":0.3152779354166739},{"name":"C#4","midi":61,"time":175.00008750000038,"velocity":0.9921259842519685,"duration":0.3152779354166739},{"name":"C#4","midi":61,"time":175.33342100000038,"velocity":0.9921259842519685,"duration":0.3152779354166739},{"name":"F#4","midi":66,"time":175.6667545000004,"velocity":0.9921259842519685,"duration":0.3152779354166739},{"name":"G#4","midi":68,"time":175.6667545000004,"velocity":0.9921259842519685,"duration":0.3152779354166739},{"name":"C#3","midi":49,"time":176.0000880000004,"velocity":0.9921259842519685,"duration":1.2652784104166983},{"name":"C#4","midi":61,"time":176.0000880000004,"velocity":0.9921259842519685,"duration":0.6319447604166726},{"name":"F4","midi":65,"time":176.0000880000004,"velocity":0.9921259842519685,"duration":0.3152779354166739},{"name":"G#3","midi":56,"time":176.3334215000004,"velocity":0.9921259842519685,"duration":0.3152779354166739},{"name":"G#3","midi":56,"time":176.66675500000042,"velocity":0.9921259842519685,"duration":0.3152779354166739},{"name":"C#4","midi":61,"time":177.00008850000043,"velocity":0.9921259842519685,"duration":0.3152779354166739},{"name":"C#3","midi":49,"time":177.33342200000044,"velocity":0.9921259842519685,"duration":1.2652784104166983},{"name":"C#4","midi":61,"time":177.33342200000044,"velocity":0.9921259842519685,"duration":0.6319447604166726},{"name":"F4","midi":65,"time":177.33342200000044,"velocity":0.9921259842519685,"duration":0.3152779354166739},{"name":"G#3","midi":56,"time":177.66675550000045,"velocity":0.9921259842519685,"duration":0.3152779354166739},{"name":"G#3","midi":56,"time":178.00008900000046,"velocity":0.9921259842519685,"duration":0.3152779354166739},{"name":"D#4","midi":63,"time":178.00008900000046,"velocity":0.9921259842519685,"duration":0.3152779354166739},{"name":"F#3","midi":54,"time":178.33342250000047,"velocity":0.9921259842519685,"duration":0.3152779354166739},{"name":"C#4","midi":61,"time":178.33342250000047,"velocity":0.9921259842519685,"duration":0.3152779354166739},{"name":"C#3","midi":49,"time":178.66675600000048,"velocity":0.9921259842519685,"duration":1.2652784104166699},{"name":"G#3","midi":56,"time":178.83342275000047,"velocity":0.9921259842519685,"duration":0.47361134791665904},{"name":"C#4","midi":61,"time":179.00008950000046,"velocity":0.9921259842519685,"duration":0.9486115854166997},{"name":"G#3","midi":56,"time":179.33342300000047,"velocity":0.9921259842519685,"duration":0.631944760416701},{"name":"C#3","midi":49,"time":180.0000900000005,"velocity":0.9921259842519685,"duration":0.6319447604166726},{"name":"G#3","midi":56,"time":180.0000900000005,"velocity":0.9921259842519685,"duration":0.47361134791665904},{"name":"C#4","midi":61,"time":180.0000900000005,"velocity":0.9921259842519685,"duration":0.47361134791665904},{"name":"C#4","midi":61,"time":180.5000902500005,"velocity":0.9921259842519685,"duration":0.1569445229166604},{"name":"D#3","midi":51,"time":180.6667570000005,"velocity":0.9921259842519685,"duration":0.3152779354166739},{"name":"C#3","midi":49,"time":181.0000905000005,"velocity":0.9921259842519685,"duration":0.3152779354166739},{"name":"G#3","midi":56,"time":181.0000905000005,"velocity":0.9921259842519685,"duration":0.3152779354166739},{"name":"C#3","midi":49,"time":181.33342400000052,"velocity":0.9921259842519685,"duration":1.2652784104166983},{"name":"C#4","midi":61,"time":181.33342400000052,"velocity":0.9921259842519685,"duration":0.6319447604166726},{"name":"F4","midi":65,"time":181.33342400000052,"velocity":0.9921259842519685,"duration":0.3152779354166739},{"name":"G#3","midi":56,"time":181.66675750000053,"velocity":0.9921259842519685,"duration":0.3152779354166739},{"name":"G#3","midi":56,"time":182.00009100000054,"velocity":0.9921259842519685,"duration":0.3152779354166739},{"name":"C#4","midi":61,"time":182.33342450000055,"velocity":0.9921259842519685,"duration":0.3152779354166739},{"name":"C#3","midi":49,"time":182.66675800000056,"velocity":0.9921259842519685,"duration":1.2652784104166983},{"name":"C#4","midi":61,"time":182.66675800000056,"velocity":0.9921259842519685,"duration":0.6319447604166726},{"name":"F4","midi":65,"time":182.66675800000056,"velocity":0.9921259842519685,"duration":0.3152779354166739},{"name":"G#3","midi":56,"time":183.00009150000056,"velocity":0.9921259842519685,"duration":0.3152779354166739},{"name":"G#3","midi":56,"time":183.33342500000057,"velocity":0.9921259842519685,"duration":0.3152779354166739},{"name":"D#4","midi":63,"time":183.33342500000057,"velocity":0.9921259842519685,"duration":0.3152779354166739},{"name":"F#3","midi":54,"time":183.66675850000058,"velocity":0.9921259842519685,"duration":0.3152779354166739},{"name":"C#4","midi":61,"time":183.66675850000058,"velocity":0.9921259842519685,"duration":0.3152779354166739},{"name":"A#2","midi":46,"time":184.0000920000006,"velocity":0.9921259842519685,"duration":1.2652784104166983},{"name":"A#3","midi":58,"time":184.0000920000006,"velocity":0.9921259842519685,"duration":0.6319447604166726},{"name":"C#4","midi":61,"time":184.0000920000006,"velocity":0.9921259842519685,"duration":0.3152779354166739},{"name":"F3","midi":53,"time":184.3334255000006,"velocity":0.9921259842519685,"duration":0.3152779354166739},{"name":"F3","midi":53,"time":184.6667590000006,"velocity":0.9921259842519685,"duration":0.3152779354166739},{"name":"A#3","midi":58,"time":185.00009250000062,"velocity":0.9921259842519685,"duration":0.3152779354166739},{"name":"C#4","midi":61,"time":185.00009250000062,"velocity":0.9921259842519685,"duration":0.3152779354166739},{"name":"F#3","midi":54,"time":185.33342600000063,"velocity":0.9921259842519685,"duration":1.2652784104166983},{"name":"F#4","midi":66,"time":185.33342600000063,"velocity":0.9921259842519685,"duration":0.6319447604166726},{"name":"G#4","midi":68,"time":185.33342600000063,"velocity":0.9921259842519685,"duration":0.3152779354166739},{"name":"C#4","midi":61,"time":185.66675950000064,"velocity":0.9921259842519685,"duration":0.3152779354166739},{"name":"C#4","midi":61,"time":186.00009300000065,"velocity":0.9921259842519685,"duration":0.3152779354166739},{"name":"F#4","midi":66,"time":186.33342650000066,"velocity":0.9921259842519685,"duration":0.3152779354166739},{"name":"G#4","midi":68,"time":186.33342650000066,"velocity":0.9921259842519685,"duration":0.3152779354166739},{"name":"C#3","midi":49,"time":186.66676000000066,"velocity":0.9921259842519685,"duration":1.2652784104166983},{"name":"C#4","midi":61,"time":186.66676000000066,"velocity":0.9921259842519685,"duration":0.6319447604166726},{"name":"F4","midi":65,"time":186.66676000000066,"velocity":0.9921259842519685,"duration":0.3152779354166739},{"name":"G#3","midi":56,"time":187.00009350000067,"velocity":0.9921259842519685,"duration":0.3152779354166739},{"name":"G#3","midi":56,"time":187.33342700000068,"velocity":0.9921259842519685,"duration":0.3152779354166739},{"name":"C#4","midi":61,"time":187.6667605000007,"velocity":0.9921259842519685,"duration":0.3152779354166739},{"name":"C#3","midi":49,"time":188.0000940000007,"velocity":0.9921259842519685,"duration":1.2652784104166983},{"name":"C#4","midi":61,"time":188.0000940000007,"velocity":0.9921259842519685,"duration":0.6319447604166726},{"name":"F4","midi":65,"time":188.0000940000007,"velocity":0.9921259842519685,"duration":0.3152779354166739},{"name":"G#3","midi":56,"time":188.3334275000007,"velocity":0.9921259842519685,"duration":0.3152779354166739},{"name":"G#3","midi":56,"time":188.66676100000072,"velocity":0.9921259842519685,"duration":0.3152779354166739},{"name":"D#4","midi":63,"time":188.66676100000072,"velocity":0.9921259842519685,"duration":0.3152779354166739},{"name":"F#3","midi":54,"time":189.00009450000073,"velocity":0.9921259842519685,"duration":0.3152779354166739},{"name":"C#4","midi":61,"time":189.00009450000073,"velocity":0.9921259842519685,"duration":0.3152779354166739},{"name":"A#2","midi":46,"time":189.33342800000074,"velocity":0.9921259842519685,"duration":1.2652784104166983},{"name":"A#3","midi":58,"time":189.33342800000074,"velocity":0.9921259842519685,"duration":0.6319447604166726},{"name":"C#4","midi":61,"time":189.33342800000074,"velocity":0.9921259842519685,"duration":0.3152779354166739},{"name":"F3","midi":53,"time":189.66676150000075,"velocity":0.9921259842519685,"duration":0.3152779354166739},{"name":"F3","midi":53,"time":190.00009500000075,"velocity":0.9921259842519685,"duration":0.3152779354166739},{"name":"A#3","midi":58,"time":190.33342850000076,"velocity":0.9921259842519685,"duration":0.3152779354166739},{"name":"C#4","midi":61,"time":190.33342850000076,"velocity":0.9921259842519685,"duration":0.3152779354166739},{"name":"F#3","midi":54,"time":190.66676200000077,"velocity":0.9921259842519685,"duration":1.2652784104166983},{"name":"F#4","midi":66,"time":190.66676200000077,"velocity":0.9921259842519685,"duration":0.6319447604166726},{"name":"G#4","midi":68,"time":190.66676200000077,"velocity":0.9921259842519685,"duration":0.3152779354166739},{"name":"C#4","midi":61,"time":191.00009550000078,"velocity":0.9921259842519685,"duration":0.3152779354166739},{"name":"C#4","midi":61,"time":191.3334290000008,"velocity":0.9921259842519685,"duration":0.3152779354166739},{"name":"F#4","midi":66,"time":191.6667625000008,"velocity":0.9921259842519685,"duration":0.3152779354166739},{"name":"G#4","midi":68,"time":191.6667625000008,"velocity":0.9921259842519685,"duration":0.3152779354166739},{"name":"C#3","midi":49,"time":192.0000960000008,"velocity":0.9921259842519685,"duration":1.2652784104166983},{"name":"C#4","midi":61,"time":192.0000960000008,"velocity":0.9921259842519685,"duration":0.6319447604166726},{"name":"F4","midi":65,"time":192.0000960000008,"velocity":0.9921259842519685,"duration":0.3152779354166739},{"name":"G#3","midi":56,"time":192.33342950000082,"velocity":0.9921259842519685,"duration":0.3152779354166739},{"name":"G#3","midi":56,"time":192.66676300000083,"velocity":0.9921259842519685,"duration":0.3152779354166739},{"name":"C#4","midi":61,"time":193.00009650000084,"velocity":0.9921259842519685,"duration":0.3152779354166739},{"name":"C#3","midi":49,"time":193.33343000000085,"velocity":0.9921259842519685,"duration":1.2652784104166983},{"name":"C#4","midi":61,"time":193.33343000000085,"velocity":0.9921259842519685,"duration":0.6319447604166726},{"name":"F4","midi":65,"time":193.33343000000085,"velocity":0.9921259842519685,"duration":0.3152779354166739},{"name":"G#3","midi":56,"time":193.66676350000085,"velocity":0.9921259842519685,"duration":0.3152779354166739},{"name":"G#3","midi":56,"time":194.00009700000086,"velocity":0.9921259842519685,"duration":0.3152779354166739},{"name":"D#4","midi":63,"time":194.00009700000086,"velocity":0.9921259842519685,"duration":0.3152779354166739},{"name":"F#3","midi":54,"time":194.33343050000087,"velocity":0.9921259842519685,"duration":0.3152779354166739},{"name":"C#4","midi":61,"time":194.33343050000087,"velocity":0.9921259842519685,"duration":0.3152779354166739},{"name":"A#2","midi":46,"time":194.66676400000088,"velocity":0.8818897637795275,"duration":1.2652784104166983},{"name":"A#3","midi":58,"time":194.66676400000088,"velocity":0.8818897637795275,"duration":0.6319447604166726},{"name":"C#4","midi":61,"time":194.66676400000088,"velocity":0.8818897637795275,"duration":0.3152779354166739},{"name":"F3","midi":53,"time":195.0000975000009,"velocity":0.8818897637795275,"duration":0.3152779354166739},{"name":"F3","midi":53,"time":195.3334310000009,"velocity":0.8818897637795275,"duration":0.3152779354166739},{"name":"A#3","midi":58,"time":195.6667645000009,"velocity":0.8818897637795275,"duration":0.3152779354166739},{"name":"C#4","midi":61,"time":195.6667645000009,"velocity":0.8818897637795275,"duration":0.3152779354166739},{"name":"F#3","midi":54,"time":196.00009800000092,"velocity":0.8818897637795275,"duration":1.2652784104166983},{"name":"F#4","midi":66,"time":196.00009800000092,"velocity":0.8818897637795275,"duration":0.6319447604166726},{"name":"G#4","midi":68,"time":196.00009800000092,"velocity":0.8818897637795275,"duration":0.3152779354166739},{"name":"C#4","midi":61,"time":196.33343150000093,"velocity":0.8818897637795275,"duration":0.3152779354166739},{"name":"C#4","midi":61,"time":196.66676500000094,"velocity":0.8818897637795275,"duration":0.3152779354166739},{"name":"F#4","midi":66,"time":197.00009850000095,"velocity":0.8818897637795275,"duration":0.3152779354166739},{"name":"G#4","midi":68,"time":197.00009850000095,"velocity":0.8818897637795275,"duration":0.3152779354166739},{"name":"C#3","midi":49,"time":197.33343200000095,"velocity":0.8818897637795275,"duration":1.2652784104166983},{"name":"C#4","midi":61,"time":197.33343200000095,"velocity":0.8818897637795275,"duration":0.6319447604166726},{"name":"F4","midi":65,"time":197.33343200000095,"velocity":0.8818897637795275,"duration":0.3152779354166739},{"name":"G#3","midi":56,"time":197.66676550000096,"velocity":0.8818897637795275,"duration":0.3152779354166739},{"name":"G#3","midi":56,"time":198.00009900000097,"velocity":0.8818897637795275,"duration":0.3152779354166739},{"name":"C#4","midi":61,"time":198.33343250000098,"velocity":0.8818897637795275,"duration":0.3152779354166739},{"name":"C#3","midi":49,"time":198.666766000001,"velocity":0.8818897637795275,"duration":1.2652784104166983},{"name":"C#4","midi":61,"time":198.666766000001,"velocity":0.8818897637795275,"duration":0.6319447604166726},{"name":"F4","midi":65,"time":198.666766000001,"velocity":0.8818897637795275,"duration":0.3152779354166739},{"name":"G#3","midi":56,"time":199.000099500001,"velocity":0.8818897637795275,"duration":0.3152779354166739},{"name":"G#3","midi":56,"time":199.333433000001,"velocity":0.8818897637795275,"duration":0.3152779354166739},{"name":"D#4","midi":63,"time":199.333433000001,"velocity":0.8818897637795275,"duration":0.3152779354166739},{"name":"F#3","midi":54,"time":199.66676650000102,"velocity":0.8818897637795275,"duration":0.3152779354166739},{"name":"C#4","midi":61,"time":199.66676650000102,"velocity":0.8818897637795275,"duration":0.3152779354166739},{"name":"A#2","midi":46,"time":200.00010000000103,"velocity":0.8818897637795275,"duration":1.2652784104166983},{"name":"A#3","midi":58,"time":200.00010000000103,"velocity":0.8818897637795275,"duration":0.6319447604166726},{"name":"C#4","midi":61,"time":200.00010000000103,"velocity":0.8818897637795275,"duration":0.3152779354166739},{"name":"F3","midi":53,"time":200.33343350000104,"velocity":0.8818897637795275,"duration":0.3152779354166739},{"name":"F3","midi":53,"time":200.66676700000104,"velocity":0.8818897637795275,"duration":0.3152779354166739},{"name":"A#3","midi":58,"time":201.00010050000105,"velocity":0.8818897637795275,"duration":0.3152779354166739},{"name":"C#4","midi":61,"time":201.00010050000105,"velocity":0.8818897637795275,"duration":0.3152779354166739},{"name":"F#3","midi":54,"time":201.33343400000106,"velocity":0.8818897637795275,"duration":1.2652784104166983},{"name":"F#4","midi":66,"time":201.33343400000106,"velocity":0.8818897637795275,"duration":0.6319447604166726},{"name":"G#4","midi":68,"time":201.33343400000106,"velocity":0.8818897637795275,"duration":0.3152779354166739},{"name":"C#4","midi":61,"time":201.66676750000107,"velocity":0.8818897637795275,"duration":0.3152779354166739},{"name":"C#4","midi":61,"time":202.00010100000108,"velocity":0.8818897637795275,"duration":0.3152779354166739},{"name":"F#4","midi":66,"time":202.3334345000011,"velocity":0.8818897637795275,"duration":0.3152779354166739},{"name":"G#4","midi":68,"time":202.3334345000011,"velocity":0.8818897637795275,"duration":0.3152779354166739},{"name":"C#3","midi":49,"time":202.6667680000011,"velocity":0.8818897637795275,"duration":1.2652784104166983},{"name":"C#4","midi":61,"time":202.6667680000011,"velocity":0.8818897637795275,"duration":0.6319447604166726},{"name":"F4","midi":65,"time":202.6667680000011,"velocity":0.8818897637795275,"duration":0.3152779354166739},{"name":"G#3","midi":56,"time":203.0001015000011,"velocity":0.8818897637795275,"duration":0.3152779354166739},{"name":"G#3","midi":56,"time":203.33343500000112,"velocity":0.8818897637795275,"duration":0.3152779354166739},{"name":"C#4","midi":61,"time":203.66676850000113,"velocity":0.8818897637795275,"duration":0.3152779354166739},{"name":"C#3","midi":49,"time":204.00010200000114,"velocity":0.8818897637795275,"duration":0.6319447604166726},{"name":"C#4","midi":61,"time":204.00010200000114,"velocity":0.8818897637795275,"duration":0.6319447604166726},{"name":"F4","midi":65,"time":204.00010200000114,"velocity":0.8818897637795275,"duration":0.6319447604166726},{"name":"C#4","midi":61,"time":204.66676900000115,"velocity":0.9921259842519685,"duration":0.3152779354166739},{"name":"C#5","midi":73,"time":204.66676900000115,"velocity":0.9921259842519685,"duration":0.3152779354166739},{"name":"C4","midi":60,"time":205.00010250000116,"velocity":0.9921259842519685,"duration":0.3152779354166739},{"name":"C5","midi":72,"time":205.00010250000116,"velocity":0.9921259842519685,"duration":0.3152779354166739},{"name":"A#2","midi":46,"time":205.33343600000117,"velocity":0.9921259842519685,"duration":1.2652784104166983},{"name":"A#3","midi":58,"time":205.33343600000117,"velocity":0.9921259842519685,"duration":0.3152779354166739},{"name":"F3","midi":53,"time":205.66676950000118,"velocity":0.9921259842519685,"duration":0.47361134791665904},{"name":"A#3","midi":58,"time":205.83343625000117,"velocity":0.9921259842519685,"duration":0.47361134791668746},{"name":"C#4","midi":61,"time":205.83343625000117,"velocity":0.9921259842519685,"duration":0.3152779354166739},{"name":"F3","midi":53,"time":206.3334365000012,"velocity":0.984251968503937,"duration":0.3152779354166739},{"name":"F#3","midi":54,"time":206.6667700000012,"velocity":0.9763779527559056,"duration":1.2652784104166699},{"name":"C#4","midi":61,"time":207.00010350000122,"velocity":0.968503937007874,"duration":0.3152779354166455},{"name":"F#4","midi":66,"time":207.1667702500012,"velocity":0.9606299212598425,"duration":0.47361134791665904},{"name":"G#4","midi":68,"time":207.1667702500012,"velocity":0.9606299212598425,"duration":0.47361134791665904},{"name":"C#4","midi":61,"time":207.6667705000012,"velocity":0.952755905511811,"duration":0.3152779354166739},{"name":"C#3","midi":49,"time":208.00010400000122,"velocity":0.9448818897637795,"duration":1.8986120604166388},{"name":"G#3","midi":56,"time":208.33343750000122,"velocity":0.937007874015748,"duration":0.1569445229166604},{"name":"C#4","midi":61,"time":208.33343750000122,"velocity":0.937007874015748,"duration":0.1569445229166604},{"name":"G#3","midi":56,"time":208.50010425000121,"velocity":0.9291338582677166,"duration":0.47361134791665904},{"name":"C#4","midi":61,"time":208.50010425000121,"velocity":0.9291338582677166,"duration":0.47361134791665904},{"name":"F#4","midi":66,"time":208.50010425000121,"velocity":0.9291338582677166,"duration":0.47361134791665904},{"name":"F#4","midi":66,"time":209.0001045000012,"velocity":0.9212598425196851,"duration":0.1569445229166604},{"name":"C#4","midi":61,"time":209.1667712500012,"velocity":0.9133858267716536,"duration":0.47361134791665904},{"name":"F#4","midi":66,"time":209.3334380000012,"velocity":0.9133858267716536,"duration":0.6319447604166726},{"name":"C#3","midi":49,"time":210.0001050000012,"velocity":0.8976377952755905,"duration":0.6319447604166726},{"name":"C#4","midi":61,"time":210.0001050000012,"velocity":0.8976377952755905,"duration":0.6319447604166726},{"name":"F4","midi":65,"time":210.0001050000012,"velocity":0.8976377952755905,"duration":0.6319447604166726},{"name":"A#2","midi":46,"time":210.66677200000123,"velocity":0.8818897637795275,"duration":1.2652784104166983},{"name":"A#3","midi":58,"time":210.66677200000123,"velocity":0.8818897637795275,"duration":0.3152779354166739},{"name":"F3","midi":53,"time":211.00010550000124,"velocity":0.8740157480314961,"duration":0.47361134791665904},{"name":"A#3","midi":58,"time":211.16677225000123,"velocity":0.8740157480314961,"duration":0.47361134791668746},{"name":"C#4","midi":61,"time":211.16677225000123,"velocity":0.8740157480314961,"duration":0.3152779354166739},{"name":"F3","midi":53,"time":211.66677250000126,"velocity":0.8582677165354331,"duration":0.3152779354166739},{"name":"F#3","midi":54,"time":212.00010600000127,"velocity":0.8503937007874016,"duration":1.2652784104166699},{"name":"C#4","midi":61,"time":212.33343950000128,"velocity":0.84251968503937,"duration":0.3152779354166455},{"name":"F#4","midi":66,"time":212.50010625000127,"velocity":0.84251968503937,"duration":0.47361134791665904},{"name":"G#4","midi":68,"time":212.50010625000127,"velocity":0.84251968503937,"duration":0.47361134791665904},{"name":"C#4","midi":61,"time":213.00010650000127,"velocity":0.8267716535433071,"duration":0.3152779354166739},{"name":"C#3","midi":49,"time":213.33344000000127,"velocity":0.8188976377952756,"duration":1.8986120604166388},{"name":"G#3","midi":56,"time":213.66677350000128,"velocity":0.8110236220472441,"duration":0.1569445229166604},{"name":"C#4","midi":61,"time":213.66677350000128,"velocity":0.8110236220472441,"duration":0.1569445229166604},{"name":"G#3","midi":56,"time":213.83344025000127,"velocity":0.8110236220472441,"duration":0.47361134791665904},{"name":"C#4","midi":61,"time":213.83344025000127,"velocity":0.8110236220472441,"duration":0.47361134791665904},{"name":"F#4","midi":66,"time":213.83344025000127,"velocity":0.8110236220472441,"duration":0.47361134791665904},{"name":"F#4","midi":66,"time":214.33344050000127,"velocity":0.7952755905511811,"duration":0.1569445229166604},{"name":"C#4","midi":61,"time":214.50010725000126,"velocity":0.7952755905511811,"duration":0.47361134791665904},{"name":"F#4","midi":66,"time":214.66677400000125,"velocity":0.7874015748031497,"duration":0.6319447604166726},{"name":"C#3","midi":49,"time":215.33344100000127,"velocity":0.7716535433070866,"duration":0.6319447604166726},{"name":"C#4","midi":61,"time":215.33344100000127,"velocity":0.7716535433070866,"duration":0.6319447604166726},{"name":"F4","midi":65,"time":215.33344100000127,"velocity":0.7716535433070866,"duration":0.6319447604166726},{"name":"A#2","midi":46,"time":216.0001080000013,"velocity":0.7559055118110236,"duration":1.2652784104166983},{"name":"A#3","midi":58,"time":216.0001080000013,"velocity":0.7559055118110236,"duration":0.3152779354166739},{"name":"F3","midi":53,"time":216.3334415000013,"velocity":0.7559055118110236,"duration":0.47361134791665904},{"name":"A#3","midi":58,"time":216.5001082500013,"velocity":0.7559055118110236,"duration":0.47361134791668746},{"name":"C#4","midi":61,"time":216.5001082500013,"velocity":0.7559055118110236,"duration":0.3152779354166739},{"name":"F3","midi":53,"time":217.00010850000132,"velocity":0.7559055118110236,"duration":0.3152779354166739},{"name":"F#3","midi":54,"time":217.33344200000133,"velocity":0.7559055118110236,"duration":1.2652784104166699},{"name":"C#4","midi":61,"time":217.66677550000134,"velocity":0.7559055118110236,"duration":0.3152779354166455},{"name":"F#4","midi":66,"time":217.83344225000133,"velocity":0.7559055118110236,"duration":0.47361134791665904},{"name":"G#4","midi":68,"time":217.83344225000133,"velocity":0.7559055118110236,"duration":0.47361134791665904},{"name":"C#4","midi":61,"time":218.33344250000133,"velocity":0.7559055118110236,"duration":0.3152779354166739},{"name":"C#3","midi":49,"time":218.66677600000133,"velocity":0.7559055118110236,"duration":1.8986120604166388},{"name":"G#3","midi":56,"time":219.00010950000134,"velocity":0.7559055118110236,"duration":0.1569445229166604},{"name":"C#4","midi":61,"time":219.00010950000134,"velocity":0.7559055118110236,"duration":0.1569445229166604},{"name":"G#3","midi":56,"time":219.16677625000133,"velocity":0.7559055118110236,"duration":0.47361134791665904},{"name":"C#4","midi":61,"time":219.16677625000133,"velocity":0.7559055118110236,"duration":0.47361134791665904},{"name":"F#4","midi":66,"time":219.16677625000133,"velocity":0.7559055118110236,"duration":0.47361134791665904},{"name":"F#4","midi":66,"time":219.66677650000133,"velocity":0.7559055118110236,"duration":0.1569445229166604},{"name":"C#4","midi":61,"time":219.83344325000132,"velocity":0.7559055118110236,"duration":0.47361134791665904},{"name":"F#4","midi":66,"time":220.0001100000013,"velocity":0.7559055118110236,"duration":0.6319447604166726},{"name":"C#3","midi":49,"time":220.66677700000133,"velocity":0.7559055118110236,"duration":0.6319447604166726},{"name":"C#4","midi":61,"time":220.66677700000133,"velocity":0.7559055118110236,"duration":0.6319447604166726},{"name":"F4","midi":65,"time":220.66677700000133,"velocity":0.7559055118110236,"duration":0.6319447604166726},{"name":"A#2","midi":46,"time":221.33344400000135,"velocity":0.7559055118110236,"duration":1.2652784104166983},{"name":"A#3","midi":58,"time":221.33344400000135,"velocity":0.7559055118110236,"duration":0.3152779354166739},{"name":"F3","midi":53,"time":221.66677750000136,"velocity":0.7559055118110236,"duration":0.47361134791665904},{"name":"A#3","midi":58,"time":221.83344425000135,"velocity":0.5039370078740157,"duration":0.47361134791668746},{"name":"C#4","midi":61,"time":221.83344425000135,"velocity":0.5039370078740157,"duration":0.3152779354166739},{"name":"F3","midi":53,"time":222.33344450000138,"velocity":0.5039370078740157,"duration":0.3152779354166739},{"name":"F#3","midi":54,"time":222.6667780000014,"velocity":0.5039370078740157,"duration":1.2652784104166699},{"name":"C#4","midi":61,"time":223.0001115000014,"velocity":0.5039370078740157,"duration":0.3152779354166455},{"name":"F#4","midi":66,"time":223.16677825000139,"velocity":0.5039370078740157,"duration":0.47361134791665904},{"name":"G#4","midi":68,"time":223.16677825000139,"velocity":0.5039370078740157,"duration":0.47361134791665904},{"name":"C#4","midi":61,"time":223.66677850000139,"velocity":0.5039370078740157,"duration":0.3152779354166739},{"name":"C#3","midi":49,"time":224.0001120000014,"velocity":0.5039370078740157,"duration":2.5319457104166645},{"name":"C#4","midi":61,"time":224.0001120000014,"velocity":0.5039370078740157,"duration":2.5319457104166645},{"name":"F4","midi":65,"time":224.0001120000014,"velocity":0.5039370078740157,"duration":2.5319457104166645}]}]}