{"header":{"title":"Run","artist":"BTS","source":"https://musescore.com/user/2137271/scores/1550586","bpm":70.00023333411112,"duration":222.85461429166395},"tracks":[{"instrument_number":44,"notes":[{"name":"E6","midi":88,"time":0,"velocity":0.6299212598425197,"duration":0.06249979166666667},{"name":"F#6","midi":90,"time":0.06428550000000001,"velocity":0.6299212598425197,"duration":1.2196387916666667},{"name":"E6","midi":88,"time":1.28571,"velocity":0.6299212598425197,"duration":0.2124992916666666},{"name":"F#6","midi":90,"time":1.4999949999999997,"velocity":0.6299212598425197,"duration":1.4982092916666665},{"name":"E6","midi":88,"time":2.9999899999999995,"velocity":0.6299212598425197,"duration":0.2124992916666666},{"name":"C#6","midi":85,"time":3.2142749999999993,"velocity":0.6299212598425197,"duration":1.4982092916666665},{"name":"B5","midi":83,"time":4.714269999999999,"velocity":0.6299212598425197,"duration":0.21249929166666703},{"name":"C#6","midi":85,"time":4.928554999999999,"velocity":0.6299212598425197,"duration":1.498209291666667},{"name":"A5","midi":81,"time":6.4285499999999995,"velocity":0.6299212598425197,"duration":0.21249929166666703},{"name":"B5","midi":83,"time":6.642835,"velocity":0.6299212598425197,"duration":1.498209291666667},{"name":"A5","midi":81,"time":8.14283,"velocity":0.6299212598425197,"duration":0.21249929166666703},{"name":"B5","midi":83,"time":8.357115,"velocity":0.6299212598425197,"duration":1.498209291666667},{"name":"B5","midi":83,"time":9.85711,"velocity":0.6299212598425197,"duration":0.21249929166666703},{"name":"C#6","midi":85,"time":10.071395,"velocity":0.6299212598425197,"duration":1.498209291666667},{"name":"E6","midi":88,"time":11.571390000000001,"velocity":0.6299212598425197,"duration":0.21249929166666703},{"name":"C#6","midi":85,"time":11.785675000000001,"velocity":0.6299212598425197,"duration":1.498209291666667},{"name":"F#5","midi":78,"time":13.285670000000001,"velocity":0.6299212598425197,"duration":0.21249929166666703},{"name":"G#5","midi":80,"time":13.499955000000002,"velocity":0.6299212598425197,"duration":0.21249929166666703},{"name":"A4","midi":69,"time":13.714240000000002,"velocity":0.6299212598425197,"duration":0.21249929166666703},{"name":"G#4","midi":68,"time":13.928525000000002,"velocity":0.6299212598425197,"duration":0.21249929166666703},{"name":"A4","midi":69,"time":14.142810000000003,"velocity":0.6299212598425197,"duration":0.21249929166666703},{"name":"G#4","midi":68,"time":14.357095000000003,"velocity":0.6299212598425197,"duration":0.21249929166666703},{"name":"A4","midi":69,"time":14.571380000000003,"velocity":0.6299212598425197,"duration":0.21249929166666703},{"name":"B4","midi":71,"time":14.785665000000003,"velocity":0.6299212598425197,"duration":0.21249929166666703},{"name":"F#4","midi":66,"time":15.214235000000004,"velocity":0.6299212598425197,"duration":0.21249929166666703},{"name":"A4","midi":69,"time":15.428520000000004,"velocity":0.6299212598425197,"duration":0.21249929166666703},{"name":"G#4","midi":68,"time":15.642805000000005,"velocity":0.6299212598425197,"duration":0.21249929166666703},{"name":"A4","midi":69,"time":15.857090000000005,"velocity":0.6299212598425197,"duration":0.21249929166666526},{"name":"G#4","midi":68,"time":16.071375000000003,"velocity":0.6299212598425197,"duration":0.21249929166666703},{"name":"A4","midi":69,"time":16.285660000000004,"velocity":0.6299212598425197,"duration":0.4267842916666673},{"name":"F#4","midi":66,"time":16.928515000000004,"velocity":0.6299212598425197,"duration":0.21249929166666703},{"name":"A4","midi":69,"time":17.142800000000005,"velocity":0.6299212598425197,"duration":0.21249929166666703},{"name":"G#4","midi":68,"time":17.357085000000005,"velocity":0.6299212598425197,"duration":0.21249929166666703},{"name":"A4","midi":69,"time":17.571370000000005,"velocity":0.6299212598425197,"duration":0.21249929166666703},{"name":"G#4","midi":68,"time":17.785655000000006,"velocity":0.6299212598425197,"duration":0.21249929166666703},{"name":"A4","midi":69,"time":17.999940000000006,"velocity":0.6299212598425197,"duration":0.21249929166666703},{"name":"B4","midi":71,"time":18.214225000000006,"velocity":0.6299212598425197,"duration":0.21249929166666703},{"name":"F#4","midi":66,"time":18.642795000000007,"velocity":0.6299212598425197,"duration":0.21249929166666703},{"name":"A4","midi":69,"time":18.857080000000007,"velocity":0.6299212598425197,"duration":0.21249929166666703},{"name":"G#4","midi":68,"time":19.071365000000007,"velocity":0.6299212598425197,"duration":0.21249929166666703},{"name":"A4","midi":69,"time":19.285650000000008,"velocity":0.6299212598425197,"duration":0.21249929166666703},{"name":"G#4","midi":68,"time":19.499935000000008,"velocity":0.6299212598425197,"duration":0.21249929166666703},{"name":"A4","midi":69,"time":19.714220000000008,"velocity":0.6299212598425197,"duration":0.21249929166666703},{"name":"F#4","midi":66,"time":20.35707500000001,"velocity":0.6299212598425197,"duration":0.21249929166666703},{"name":"A4","midi":69,"time":20.57136000000001,"velocity":0.6299212598425197,"duration":0.4267842916666673},{"name":"F#4","midi":66,"time":20.99993000000001,"velocity":0.6299212598425197,"duration":0.21249929166666703},{"name":"A4","midi":69,"time":21.21421500000001,"velocity":0.6299212598425197,"duration":0.4267842916666673},{"name":"F#4","midi":66,"time":21.64278500000001,"velocity":0.6299212598425197,"duration":0.4267842916666673},{"name":"F#4","midi":66,"time":22.07135500000001,"velocity":0.6299212598425197,"duration":0.21249929166666703},{"name":"A4","midi":69,"time":22.28564000000001,"velocity":0.6299212598425197,"duration":0.21249929166666703},{"name":"G#4","midi":68,"time":22.49992500000001,"velocity":0.6299212598425197,"duration":0.21249929166666703},{"name":"F#4","midi":66,"time":22.714210000000012,"velocity":0.6299212598425197,"duration":0.21249929166666703},{"name":"A4","midi":69,"time":22.928495000000012,"velocity":0.6299212598425197,"duration":0.21249929166666703},{"name":"G#4","midi":68,"time":23.142780000000013,"velocity":0.6299212598425197,"duration":0.21249929166666703},{"name":"F#4","midi":66,"time":23.357065000000013,"velocity":0.6299212598425197,"duration":0.4267842916666673},{"name":"F#4","midi":66,"time":23.785635000000013,"velocity":0.6299212598425197,"duration":0.21249929166666703},{"name":"A4","midi":69,"time":23.999920000000014,"velocity":0.6299212598425197,"duration":0.21249929166666703},{"name":"G#4","midi":68,"time":24.214205000000014,"velocity":0.6299212598425197,"duration":0.21249929166666703},{"name":"A4","midi":69,"time":24.428490000000014,"velocity":0.6299212598425197,"duration":0.21249929166666703},{"name":"G#4","midi":68,"time":24.642775000000015,"velocity":0.6299212598425197,"duration":0.21249929166666703},{"name":"A4","midi":69,"time":24.857060000000015,"velocity":0.6299212598425197,"duration":0.4267842916666673},{"name":"F#4","midi":66,"time":25.285630000000015,"velocity":0.6299212598425197,"duration":0.21249929166666703},{"name":"A4","midi":69,"time":25.499915000000016,"velocity":0.6299212598425197,"duration":0.21249929166666703},{"name":"B4","midi":71,"time":25.714200000000016,"velocity":0.6299212598425197,"duration":0.21249929166666703},{"name":"B4","midi":71,"time":25.928485000000016,"velocity":0.6299212598425197,"duration":0.21249929166666703},{"name":"A4","midi":69,"time":26.142770000000016,"velocity":0.6299212598425197,"duration":0.21249929166666703},{"name":"G#4","midi":68,"time":26.357055000000017,"velocity":0.6299212598425197,"duration":0.21249929166666703},{"name":"F#4","midi":66,"time":26.571340000000017,"velocity":0.6299212598425197,"duration":0.8553542916666679},{"name":"D5","midi":74,"time":41.14272000000002,"velocity":0.6299212598425197,"duration":0.06249979166666719},{"name":"E5","midi":76,"time":41.20700550000002,"velocity":0.6299212598425197,"duration":0.7910687916666674},{"name":"D5","midi":74,"time":41.99986000000003,"velocity":0.6299212598425197,"duration":0.42678429166666376},{"name":"C#5","midi":73,"time":42.42843000000003,"velocity":0.6299212598425197,"duration":0.21249929166666703},{"name":"C#5","midi":73,"time":42.64271500000003,"velocity":0.6299212598425197,"duration":0.21249929166666703},{"name":"A4","midi":69,"time":43.07128500000003,"velocity":0.6299212598425197,"duration":1.0696392916666682},{"name":"F#4","midi":66,"time":44.14271000000004,"velocity":0.6299212598425197,"duration":0.21249929166666703},{"name":"A4","midi":69,"time":44.35699500000004,"velocity":0.6299212598425197,"duration":0.21249929166666703},{"name":"E5","midi":76,"time":44.571280000000044,"velocity":0.6299212598425197,"duration":0.8553542916666643},{"name":"D5","midi":74,"time":45.428420000000045,"velocity":0.6299212598425197,"duration":0.42678429166666376},{"name":"C#5","midi":73,"time":45.856990000000046,"velocity":0.6299212598425197,"duration":0.21249929166666703},{"name":"C#5","midi":73,"time":46.07127500000005,"velocity":0.6299212598425197,"duration":0.21249929166666703},{"name":"B4","midi":71,"time":46.49984500000005,"velocity":0.6299212598425197,"duration":1.0696392916666682},{"name":"A5","midi":81,"time":47.78555500000005,"velocity":0.6299212598425197,"duration":0.21249929166666703},{"name":"B5","midi":83,"time":47.999840000000056,"velocity":0.6299212598425197,"duration":0.21249929166666703},{"name":"A5","midi":81,"time":48.21412500000006,"velocity":0.6299212598425197,"duration":0.21249929166666703},{"name":"B5","midi":83,"time":48.42841000000006,"velocity":0.6299212598425197,"duration":0.21249929166666703},{"name":"A5","midi":81,"time":48.64269500000007,"velocity":0.6299212598425197,"duration":0.21249929166666703},{"name":"B5","midi":83,"time":48.85698000000007,"velocity":0.6299212598425197,"duration":0.6410692916666676},{"name":"A5","midi":81,"time":49.499835000000076,"velocity":0.6299212598425197,"duration":0.21249929166666703},{"name":"B5","midi":83,"time":49.71412000000008,"velocity":0.6299212598425197,"duration":0.21249929166666703},{"name":"C#6","midi":85,"time":49.92840500000008,"velocity":0.6299212598425197,"duration":0.21249929166666703},{"name":"B5","midi":83,"time":50.14269000000009,"velocity":0.6299212598425197,"duration":0.8553542916666643},{"name":"F#5","midi":78,"time":50.99983000000009,"velocity":0.6299212598425197,"duration":0.21249929166666703},{"name":"A5","midi":81,"time":51.21411500000009,"velocity":0.6299212598425197,"duration":0.21249929166666703},{"name":"B5","midi":83,"time":51.428400000000096,"velocity":0.6299212598425197,"duration":0.21249929166666703},{"name":"A5","midi":81,"time":51.6426850000001,"velocity":0.6299212598425197,"duration":0.21249929166666703},{"name":"B5","midi":83,"time":51.8569700000001,"velocity":0.6299212598425197,"duration":0.21249929166666703},{"name":"A5","midi":81,"time":52.07125500000011,"velocity":0.6299212598425197,"duration":0.21249929166666703},{"name":"B5","midi":83,"time":52.28554000000011,"velocity":0.6299212598425197,"duration":0.6410692916666676},{"name":"A5","midi":81,"time":52.928395000000116,"velocity":0.6299212598425197,"duration":0.21249929166666703},{"name":"B5","midi":83,"time":53.14268000000012,"velocity":0.6299212598425197,"duration":0.21249929166666703},{"name":"C#6","midi":85,"time":53.35696500000012,"velocity":0.6299212598425197,"duration":0.21249929166666703},{"name":"C#6","midi":85,"time":53.57125000000013,"velocity":0.6299212598425197,"duration":0.8553542916666643},{"name":"C#6","midi":85,"time":54.42839000000013,"velocity":0.6299212598425197,"duration":0.21249929166666703},{"name":"E6","midi":88,"time":54.64267500000013,"velocity":0.6299212598425197,"duration":0.21249929166666703},{"name":"F#5","midi":78,"time":54.856960000000136,"velocity":0.6299212598425197,"duration":0.42678429166666376},{"name":"F#5","midi":78,"time":55.285530000000136,"velocity":0.6299212598425197,"duration":0.42678429166666376},{"name":"F#5","midi":78,"time":55.71410000000014,"velocity":0.6299212598425197,"duration":0.6410692916666676},{"name":"F#5","midi":78,"time":56.35695500000014,"velocity":0.6299212598425197,"duration":0.21249929166666703},{"name":"E5","midi":76,"time":56.571240000000145,"velocity":0.6299212598425197,"duration":0.21249929166666703},{"name":"F#5","midi":78,"time":56.78552500000015,"velocity":0.6299212598425197,"duration":0.21249929166666703},{"name":"F#5","midi":78,"time":56.99981000000015,"velocity":0.6299212598425197,"duration":0.21249929166666703},{"name":"E5","midi":76,"time":57.21409500000016,"velocity":0.6299212598425197,"duration":0.21249929166666703},{"name":"F#5","midi":78,"time":57.42838000000016,"velocity":0.6299212598425197,"duration":0.42678429166666376},{"name":"C#5","midi":73,"time":57.85695000000016,"velocity":0.6299212598425197,"duration":0.21249929166666703},{"name":"E5","midi":76,"time":58.071235000000165,"velocity":0.6299212598425197,"duration":0.21249929166666703},{"name":"B4","midi":71,"time":58.28552000000017,"velocity":0.6299212598425197,"duration":0.42678429166666376},{"name":"F#5","midi":78,"time":58.28552000000017,"velocity":0.6299212598425197,"duration":0.42678429166666376},{"name":"F#5","midi":78,"time":58.71409000000017,"velocity":0.6299212598425197,"duration":0.42678429166666376},{"name":"F#5","midi":78,"time":59.14266000000017,"velocity":0.6299212598425197,"duration":0.6410692916666676},{"name":"F#5","midi":78,"time":59.785515000000174,"velocity":0.6299212598425197,"duration":0.21249929166666703},{"name":"E5","midi":76,"time":59.99980000000018,"velocity":0.6299212598425197,"duration":0.21249929166666703},{"name":"F#5","midi":78,"time":60.21408500000018,"velocity":0.6299212598425197,"duration":0.21249929166666703},{"name":"F#5","midi":78,"time":60.428370000000186,"velocity":0.6299212598425197,"duration":0.21249929166666703},{"name":"E5","midi":76,"time":60.64265500000019,"velocity":0.6299212598425197,"duration":0.21249929166666703},{"name":"F#5","midi":78,"time":60.85694000000019,"velocity":0.6299212598425197,"duration":0.42678429166666376},{"name":"C#5","midi":73,"time":61.285510000000194,"velocity":0.6299212598425197,"duration":0.21249929166666703},{"name":"C#5","midi":73,"time":61.4997950000002,"velocity":0.6299212598425197,"duration":0.21249929166666703},{"name":"G#5","midi":80,"time":61.7140800000002,"velocity":0.6299212598425197,"duration":0.21249929166666703},{"name":"G#5","midi":80,"time":61.928365000000205,"velocity":0.6299212598425197,"duration":0.21249929166666703},{"name":"G#5","midi":80,"time":62.14265000000021,"velocity":0.6299212598425197,"duration":0.21249929166666703},{"name":"G#5","midi":80,"time":62.35693500000021,"velocity":0.6299212598425197,"duration":0.21249929166666703},{"name":"G#5","midi":80,"time":62.57122000000022,"velocity":0.6299212598425197,"duration":0.21249929166666703},{"name":"E5","midi":76,"time":62.78550500000022,"velocity":0.6299212598425197,"duration":0.21249929166666703},{"name":"C#5","midi":73,"time":62.999790000000225,"velocity":0.6299212598425197,"duration":0.21249929166666703},{"name":"E5","midi":76,"time":63.21407500000023,"velocity":0.6299212598425197,"duration":0.42678429166666376},{"name":"C#5","midi":73,"time":63.64264500000023,"velocity":0.6299212598425197,"duration":1.069639291666661},{"name":"C#5","midi":73,"time":64.71407000000022,"velocity":0.6299212598425197,"duration":0.21249929166665993},{"name":"E5","midi":76,"time":64.92835500000021,"velocity":0.6299212598425197,"duration":0.21249929166665993},{"name":"C#5","midi":73,"time":65.1426400000002,"velocity":0.6299212598425197,"duration":0.21249929166665993},{"name":"G#5","midi":80,"time":65.35692500000019,"velocity":0.6299212598425197,"duration":0.21249929166665993},{"name":"G#5","midi":80,"time":65.57121000000018,"velocity":0.6299212598425197,"duration":0.21249929166665993},{"name":"A5","midi":81,"time":65.78549500000017,"velocity":0.6299212598425197,"duration":0.21249929166665993},{"name":"G#5","midi":80,"time":65.99978000000016,"velocity":0.6299212598425197,"duration":0.21249929166665993},{"name":"E5","midi":76,"time":66.21406500000015,"velocity":0.6299212598425197,"duration":0.21249929166665993},{"name":"C#5","midi":73,"time":66.42835000000014,"velocity":0.6299212598425197,"duration":0.21249929166665993},{"name":"E5","midi":76,"time":66.64263500000013,"velocity":0.6299212598425197,"duration":0.42678429166666376},{"name":"F#5","midi":78,"time":67.07120500000012,"velocity":0.6299212598425197,"duration":1.069639291666661},{"name":"C#5","midi":73,"time":68.14263000000011,"velocity":0.6299212598425197,"duration":0.21249929166665993},{"name":"E5","midi":76,"time":68.3569150000001,"velocity":0.6299212598425197,"duration":0.21249929166665993},{"name":"A4","midi":69,"time":68.57120000000009,"velocity":0.6299212598425197,"duration":0.42678429166666376},{"name":"A4","midi":69,"time":68.99977000000008,"velocity":0.6299212598425197,"duration":0.42678429166666376},{"name":"A4","midi":69,"time":69.42834000000008,"velocity":0.6299212598425197,"duration":0.6410692916666676},{"name":"F#5","midi":78,"time":70.07119500000007,"velocity":0.6299212598425197,"duration":0.21249929166665993},{"name":"E5","midi":76,"time":70.28548000000006,"velocity":0.6299212598425197,"duration":0.21249929166665993},{"name":"F#5","midi":78,"time":70.49976500000005,"velocity":0.6299212598425197,"duration":0.21249929166665993},{"name":"F#5","midi":78,"time":70.71405000000004,"velocity":0.6299212598425197,"duration":0.21249929166665993},{"name":"E5","midi":76,"time":70.92833500000003,"velocity":0.6299212598425197,"duration":0.21249929166665993},{"name":"F#5","midi":78,"time":71.14262000000002,"velocity":0.6299212598425197,"duration":0.42678429166666376},{"name":"C#5","midi":73,"time":71.57119000000002,"velocity":0.6299212598425197,"duration":0.21249929166665993},{"name":"E5","midi":76,"time":71.785475,"velocity":0.6299212598425197,"duration":0.21249929166665993},{"name":"G#4","midi":68,"time":71.99976,"velocity":0.6299212598425197,"duration":0.42678429166666376},{"name":"B4","midi":71,"time":71.99976,"velocity":0.6299212598425197,"duration":0.42678429166666376},{"name":"F#5","midi":78,"time":72.42832999999999,"velocity":0.6299212598425197,"duration":0.42678429166666376},{"name":"F#5","midi":78,"time":72.85689999999998,"velocity":0.6299212598425197,"duration":0.6410692916666676},{"name":"F#5","midi":78,"time":73.49975499999998,"velocity":0.6299212598425197,"duration":0.21249929166665993},{"name":"E5","midi":76,"time":73.71403999999997,"velocity":0.6299212598425197,"duration":0.21249929166665993},{"name":"F#5","midi":78,"time":73.92832499999996,"velocity":0.6299212598425197,"duration":0.21249929166665993},{"name":"F#5","midi":78,"time":74.14260999999995,"velocity":0.6299212598425197,"duration":0.21249929166665993},{"name":"E5","midi":76,"time":74.35689499999994,"velocity":0.6299212598425197,"duration":0.21249929166665993},{"name":"F#5","midi":78,"time":74.57117999999993,"velocity":0.6299212598425197,"duration":0.42678429166666376},{"name":"C#5","midi":73,"time":74.99974999999992,"velocity":0.6299212598425197,"duration":0.21249929166665993},{"name":"C#5","midi":73,"time":75.21403499999991,"velocity":0.6299212598425197,"duration":0.21249929166665993},{"name":"C#5","midi":73,"time":75.4283199999999,"velocity":0.6299212598425197,"duration":0.21249929166665993},{"name":"G#5","midi":80,"time":75.64260499999989,"velocity":0.6299212598425197,"duration":0.21249929166665993},{"name":"G#5","midi":80,"time":75.85688999999988,"velocity":0.6299212598425197,"duration":0.21249929166665993},{"name":"A5","midi":81,"time":76.07117499999987,"velocity":0.6299212598425197,"duration":0.21249929166665993},{"name":"G#5","midi":80,"time":76.28545999999986,"velocity":0.6299212598425197,"duration":0.21249929166665993},{"name":"E5","midi":76,"time":76.49974499999985,"velocity":0.6299212598425197,"duration":0.21249929166665993},{"name":"C#5","midi":73,"time":76.71402999999984,"velocity":0.6299212598425197,"duration":0.21249929166665993},{"name":"E5","midi":76,"time":76.92831499999983,"velocity":0.6299212598425197,"duration":0.42678429166666376},{"name":"F#5","midi":78,"time":77.35688499999982,"velocity":0.6299212598425197,"duration":1.069639291666661},{"name":"C#5","midi":73,"time":78.42830999999981,"velocity":0.6299212598425197,"duration":0.21249929166665993},{"name":"E5","midi":76,"time":78.6425949999998,"velocity":0.6299212598425197,"duration":0.21249929166665993},{"name":"C#5","midi":73,"time":78.85687999999979,"velocity":0.6299212598425197,"duration":0.21249929166665993},{"name":"G#5","midi":80,"time":79.07116499999978,"velocity":0.6299212598425197,"duration":0.21249929166665993},{"name":"G#5","midi":80,"time":79.28544999999977,"velocity":0.6299212598425197,"duration":0.21249929166665993},{"name":"A5","midi":81,"time":79.49973499999976,"velocity":0.6299212598425197,"duration":0.21249929166665993},{"name":"G#5","midi":80,"time":79.71401999999975,"velocity":0.6299212598425197,"duration":0.21249929166665993},{"name":"E5","midi":76,"time":79.92830499999974,"velocity":0.6299212598425197,"duration":0.21249929166665993},{"name":"C#5","midi":73,"time":80.14258999999973,"velocity":0.6299212598425197,"duration":0.21249929166665993},{"name":"E5","midi":76,"time":80.35687499999972,"velocity":0.6299212598425197,"duration":0.42678429166666376},{"name":"F#5","midi":78,"time":80.78544499999971,"velocity":0.6299212598425197,"duration":1.4982092916666687},{"name":"C#6","midi":85,"time":82.28543999999971,"velocity":0.6299212598425197,"duration":0.8553542916666714},{"name":"B5","midi":83,"time":83.14257999999971,"velocity":0.6299212598425197,"duration":0.42678429166666376},{"name":"C#6","midi":85,"time":83.5711499999997,"velocity":0.6299212598425197,"duration":0.21249929166665993},{"name":"F#5","midi":78,"time":83.7854349999997,"velocity":0.6299212598425197,"duration":1.9267792916666622},{"name":"C#6","midi":85,"time":85.71399999999969,"velocity":0.6299212598425197,"duration":0.8553542916666714},{"name":"B5","midi":83,"time":86.57113999999969,"velocity":0.6299212598425197,"duration":0.42678429166666376},{"name":"C#6","midi":85,"time":86.99970999999968,"velocity":0.6299212598425197,"duration":0.21249929166665993},{"name":"F#5","midi":78,"time":87.21399499999967,"velocity":0.6299212598425197,"duration":1.9267792916666622},{"name":"C#6","midi":85,"time":89.14255999999966,"velocity":0.6299212598425197,"duration":0.8553542916666714},{"name":"B5","midi":83,"time":89.99969999999966,"velocity":0.6299212598425197,"duration":0.42678429166666376},{"name":"C#6","midi":85,"time":90.42826999999966,"velocity":0.6299212598425197,"duration":0.21249929166665993},{"name":"B5","midi":83,"time":90.64255499999965,"velocity":0.6299212598425197,"duration":1.4982092916666687},{"name":"B4","midi":71,"time":90.85683999999965,"velocity":0.6299212598425197,"duration":1.2839242916666649},{"name":"F#4","midi":66,"time":92.14254999999964,"velocity":0.6299212598425197,"duration":0.42678429166666376},{"name":"F#4","midi":66,"time":92.57111999999964,"velocity":0.6299212598425197,"duration":0.42678429166666376},{"name":"A4","midi":69,"time":92.57111999999964,"velocity":0.6299212598425197,"duration":0.42678429166666376},{"name":"F#4","midi":66,"time":92.99968999999963,"velocity":0.6299212598425197,"duration":0.42678429166666376},{"name":"A4","midi":69,"time":92.99968999999963,"velocity":0.6299212598425197,"duration":0.42678429166666376},{"name":"F#4","midi":66,"time":93.42825999999963,"velocity":0.6299212598425197,"duration":0.42678429166666376},{"name":"A4","midi":69,"time":93.42825999999963,"velocity":0.6299212598425197,"duration":0.42678429166666376},{"name":"F#4","midi":66,"time":93.85682999999962,"velocity":0.6299212598425197,"duration":0.42678429166666376},{"name":"A4","midi":69,"time":93.85682999999962,"velocity":0.6299212598425197,"duration":0.42678429166666376},{"name":"F#4","midi":66,"time":94.28539999999961,"velocity":0.6299212598425197,"duration":0.8553542916666714},{"name":"A4","midi":69,"time":94.28539999999961,"velocity":0.6299212598425197,"duration":0.8553542916666714},{"name":"F#4","midi":66,"time":95.35682499999962,"velocity":0.6299212598425197,"duration":0.21249929166665993},{"name":"F#4","midi":66,"time":95.5711099999996,"velocity":0.6299212598425197,"duration":0.21249929166665993},{"name":"G#4","midi":68,"time":95.7853949999996,"velocity":0.6299212598425197,"duration":0.21249929166665993},{"name":"A4","midi":69,"time":95.99967999999959,"velocity":0.6299212598425197,"duration":0.21249929166665993},{"name":"G#4","midi":68,"time":96.21396499999958,"velocity":0.6299212598425197,"duration":0.21249929166665993},{"name":"F#4","midi":66,"time":96.42824999999957,"velocity":0.6299212598425197,"duration":0.21249929166665993},{"name":"A4","midi":69,"time":96.64253499999955,"velocity":0.6299212598425197,"duration":0.21249929166665993},{"name":"F#4","midi":66,"time":97.07110499999955,"velocity":0.6299212598425197,"duration":0.21249929166665993},{"name":"F#4","midi":66,"time":97.28538999999954,"velocity":0.6299212598425197,"duration":0.21249929166665993},{"name":"G#4","midi":68,"time":97.49967499999953,"velocity":0.6299212598425197,"duration":0.21249929166665993},{"name":"A4","midi":69,"time":97.71395999999952,"velocity":0.6299212598425197,"duration":0.21249929166665993},{"name":"G#4","midi":68,"time":97.9282449999995,"velocity":0.6299212598425197,"duration":0.21249929166665993},{"name":"F#4","midi":66,"time":98.1425299999995,"velocity":0.6299212598425197,"duration":0.21249929166665993},{"name":"A4","midi":69,"time":98.35681499999949,"velocity":0.6299212598425197,"duration":0.21249929166665993},{"name":"F#4","midi":66,"time":98.78538499999948,"velocity":0.6299212598425197,"duration":0.21249929166665993},{"name":"F#4","midi":66,"time":98.99966999999947,"velocity":0.6299212598425197,"duration":0.21249929166665993},{"name":"F#4","midi":66,"time":99.21395499999946,"velocity":0.6299212598425197,"duration":0.21249929166665993},{"name":"B4","midi":71,"time":99.42823999999945,"velocity":0.6299212598425197,"duration":0.21249929166665993},{"name":"B4","midi":71,"time":99.64252499999944,"velocity":0.6299212598425197,"duration":0.21249929166665993},{"name":"C#5","midi":73,"time":99.85680999999943,"velocity":0.6299212598425197,"duration":0.21249929166665993},{"name":"F#4","midi":66,"time":100.07109499999942,"velocity":0.6299212598425197,"duration":0.21249929166665993},{"name":"F#4","midi":66,"time":100.49966499999941,"velocity":0.6299212598425197,"duration":0.21249929166665993},{"name":"F#4","midi":66,"time":100.7139499999994,"velocity":0.6299212598425197,"duration":0.21249929166665993},{"name":"F#4","midi":66,"time":100.92823499999939,"velocity":0.6299212598425197,"duration":0.21249929166665993},{"name":"B4","midi":71,"time":101.14251999999938,"velocity":0.6299212598425197,"duration":0.21249929166665993},{"name":"B4","midi":71,"time":101.35680499999937,"velocity":0.6299212598425197,"duration":0.21249929166665993},{"name":"C#5","midi":73,"time":101.57108999999936,"velocity":0.6299212598425197,"duration":0.21249929166665993},{"name":"F#4","midi":66,"time":101.78537499999935,"velocity":0.6299212598425197,"duration":0.21249929166665993},{"name":"F#4","midi":66,"time":102.21394499999934,"velocity":0.6299212598425197,"duration":0.6410692916666676},{"name":"C#4","midi":61,"time":102.85679999999934,"velocity":0.6299212598425197,"duration":0.21249929166665993},{"name":"F#4","midi":66,"time":102.85679999999934,"velocity":0.6299212598425197,"duration":0.21249929166665993},{"name":"G#4","midi":68,"time":103.07108499999933,"velocity":0.6299212598425197,"duration":0.21249929166665993},{"name":"F#4","midi":66,"time":103.28536999999932,"velocity":0.6299212598425197,"duration":0.21249929166665993},{"name":"A4","midi":69,"time":103.49965499999931,"velocity":0.6299212598425197,"duration":0.21249929166665993},{"name":"G#4","midi":68,"time":103.7139399999993,"velocity":0.6299212598425197,"duration":0.21249929166665993},{"name":"F#4","midi":66,"time":103.92822499999929,"velocity":0.6299212598425197,"duration":0.21249929166665993},{"name":"A4","midi":69,"time":104.14250999999928,"velocity":0.6299212598425197,"duration":0.21249929166665993},{"name":"G#4","midi":68,"time":104.35679499999927,"velocity":0.6299212598425197,"duration":0.21249929166665993},{"name":"B3","midi":59,"time":104.57107999999926,"velocity":0.6299212598425197,"duration":0.21249929166665993},{"name":"E4","midi":64,"time":104.57107999999926,"velocity":0.6299212598425197,"duration":0.21249929166665993},{"name":"G#4","midi":68,"time":104.78536499999925,"velocity":0.6299212598425197,"duration":0.21249929166665993},{"name":"E4","midi":64,"time":104.99964999999924,"velocity":0.6299212598425197,"duration":0.21249929166665993},{"name":"A4","midi":69,"time":105.21393499999922,"velocity":0.6299212598425197,"duration":0.21249929166665993},{"name":"G#4","midi":68,"time":105.42821999999921,"velocity":0.6299212598425197,"duration":0.21249929166665993},{"name":"E4","midi":64,"time":105.6425049999992,"velocity":0.6299212598425197,"duration":0.21249929166665993},{"name":"A4","midi":69,"time":105.8567899999992,"velocity":0.6299212598425197,"duration":0.21249929166665993},{"name":"G#4","midi":68,"time":106.07107499999918,"velocity":0.6299212598425197,"duration":0.21249929166665993},{"name":"C#4","midi":61,"time":106.28535999999917,"velocity":0.6299212598425197,"duration":0.21249929166665993},{"name":"E4","midi":64,"time":106.28535999999917,"velocity":0.6299212598425197,"duration":0.21249929166665993},{"name":"F#4","midi":66,"time":106.49964499999916,"velocity":0.6299212598425197,"duration":0.21249929166665993},{"name":"E4","midi":64,"time":106.71392999999915,"velocity":0.6299212598425197,"duration":0.21249929166665993},{"name":"G#4","midi":68,"time":106.92821499999914,"velocity":0.6299212598425197,"duration":0.21249929166665993},{"name":"F#4","midi":66,"time":107.14249999999913,"velocity":0.6299212598425197,"duration":0.21249929166665993},{"name":"E4","midi":64,"time":107.35678499999912,"velocity":0.6299212598425197,"duration":0.21249929166665993},{"name":"G#4","midi":68,"time":107.57106999999911,"velocity":0.6299212598425197,"duration":0.21249929166665993},{"name":"F#4","midi":66,"time":107.7853549999991,"velocity":0.6299212598425197,"duration":0.21249929166665993},{"name":"C#4","midi":61,"time":107.99963999999909,"velocity":0.6299212598425197,"duration":0.21249929166665993},{"name":"F#4","midi":66,"time":107.99963999999909,"velocity":0.6299212598425197,"duration":0.21249929166665993},{"name":"G#4","midi":68,"time":108.21392499999908,"velocity":0.6299212598425197,"duration":0.21249929166665993},{"name":"F#4","midi":66,"time":108.42820999999907,"velocity":0.6299212598425197,"duration":0.21249929166665993},{"name":"A4","midi":69,"time":108.64249499999906,"velocity":0.6299212598425197,"duration":0.21249929166665993},{"name":"G#4","midi":68,"time":108.85677999999905,"velocity":0.6299212598425197,"duration":0.21249929166665993},{"name":"F#4","midi":66,"time":109.07106499999904,"velocity":0.6299212598425197,"duration":0.21249929166665993},{"name":"A4","midi":69,"time":116.35675499999903,"velocity":0.6299212598425197,"duration":0.21249929166665993},{"name":"B4","midi":71,"time":116.57103999999902,"velocity":0.6299212598425197,"duration":0.21249929166665993},{"name":"A4","midi":69,"time":116.785324999999,"velocity":0.6299212598425197,"duration":0.21249929166665993},{"name":"B4","midi":71,"time":116.999609999999,"velocity":0.6299212598425197,"duration":0.21249929166665993},{"name":"A4","midi":69,"time":117.21389499999898,"velocity":0.6299212598425197,"duration":0.21249929166665993},{"name":"B4","midi":71,"time":117.42817999999897,"velocity":0.6299212598425197,"duration":0.6410692916666676},{"name":"A4","midi":69,"time":118.07103499999897,"velocity":0.6299212598425197,"duration":0.21249929166665993},{"name":"B4","midi":71,"time":118.28531999999896,"velocity":0.6299212598425197,"duration":0.21249929166665993},{"name":"C#5","midi":73,"time":118.49960499999895,"velocity":0.6299212598425197,"duration":0.21249929166665993},{"name":"B4","midi":71,"time":118.71388999999894,"velocity":0.6299212598425197,"duration":0.8553542916666714},{"name":"F#4","midi":66,"time":119.57102999999894,"velocity":0.6299212598425197,"duration":0.21249929166665993},{"name":"A4","midi":69,"time":119.78531499999893,"velocity":0.6299212598425197,"duration":0.21249929166665993},{"name":"B4","midi":71,"time":119.99959999999892,"velocity":0.6299212598425197,"duration":0.21249929166665993},{"name":"A4","midi":69,"time":120.21388499999891,"velocity":0.6299212598425197,"duration":0.21249929166665993},{"name":"B4","midi":71,"time":120.4281699999989,"velocity":0.6299212598425197,"duration":0.21249929166665993},{"name":"A4","midi":69,"time":120.64245499999889,"velocity":0.6299212598425197,"duration":0.21249929166665993},{"name":"B4","midi":71,"time":120.85673999999888,"velocity":0.6299212598425197,"duration":0.6410692916666676},{"name":"A4","midi":69,"time":121.49959499999888,"velocity":0.6299212598425197,"duration":0.21249929166665993},{"name":"B4","midi":71,"time":121.71387999999887,"velocity":0.6299212598425197,"duration":0.21249929166665993},{"name":"C#5","midi":73,"time":121.92816499999886,"velocity":0.6299212598425197,"duration":0.21249929166665993},{"name":"B4","midi":71,"time":122.14244999999885,"velocity":0.6299212598425197,"duration":0.8553542916666714},{"name":"C#5","midi":73,"time":122.99958999999885,"velocity":0.6299212598425197,"duration":0.21249929166665993},{"name":"E5","midi":76,"time":123.21387499999884,"velocity":0.6299212598425197,"duration":0.21249929166665993},{"name":"A4","midi":69,"time":123.42815999999883,"velocity":0.6299212598425197,"duration":0.42678429166666376},{"name":"A4","midi":69,"time":123.85672999999882,"velocity":0.6299212598425197,"duration":0.42678429166666376},{"name":"A4","midi":69,"time":124.28529999999881,"velocity":0.6299212598425197,"duration":0.6410692916666676},{"name":"F#5","midi":78,"time":124.92815499999881,"velocity":0.6299212598425197,"duration":0.21249929166665993},{"name":"E5","midi":76,"time":125.1424399999988,"velocity":0.6299212598425197,"duration":0.21249929166665993},{"name":"F#5","midi":78,"time":125.35672499999879,"velocity":0.6299212598425197,"duration":0.21249929166665993},{"name":"F#5","midi":78,"time":125.57100999999878,"velocity":0.6299212598425197,"duration":0.21249929166665993},{"name":"E5","midi":76,"time":125.78529499999877,"velocity":0.6299212598425197,"duration":0.21249929166665993},{"name":"F#5","midi":78,"time":125.99957999999876,"velocity":0.6299212598425197,"duration":0.42678429166666376},{"name":"C#5","midi":73,"time":126.42814999999875,"velocity":0.6299212598425197,"duration":0.21249929166665993},{"name":"E5","midi":76,"time":126.64243499999874,"velocity":0.6299212598425197,"duration":0.21249929166665993},{"name":"B4","midi":71,"time":126.85671999999873,"velocity":0.6299212598425197,"duration":0.42678429166666376},{"name":"F#5","midi":78,"time":126.85671999999873,"velocity":0.6299212598425197,"duration":0.42678429166666376},{"name":"F#5","midi":78,"time":127.28528999999872,"velocity":0.6299212598425197,"duration":0.42678429166666376},{"name":"F#5","midi":78,"time":127.71385999999872,"velocity":0.6299212598425197,"duration":0.6410692916666534},{"name":"F#5","midi":78,"time":128.3567149999987,"velocity":0.6299212598425197,"duration":0.21249929166665993},{"name":"E5","midi":76,"time":128.5709999999987,"velocity":0.6299212598425197,"duration":0.21249929166665993},{"name":"F#5","midi":78,"time":128.78528499999868,"velocity":0.6299212598425197,"duration":0.21249929166665993},{"name":"F#5","midi":78,"time":128.99956999999867,"velocity":0.6299212598425197,"duration":0.21249929166665993},{"name":"E5","midi":76,"time":129.21385499999866,"velocity":0.6299212598425197,"duration":0.21249929166665993},{"name":"F#5","midi":78,"time":129.42813999999865,"velocity":0.6299212598425197,"duration":0.426784291666678},{"name":"C#5","midi":73,"time":129.85670999999866,"velocity":0.6299212598425197,"duration":0.21249929166665993},{"name":"C#5","midi":73,"time":130.07099499999865,"velocity":0.6299212598425197,"duration":0.21249929166665993},{"name":"C#5","midi":73,"time":130.28527999999864,"velocity":0.6299212598425197,"duration":0.21249929166665993},{"name":"C#5","midi":73,"time":130.49956499999863,"velocity":0.6299212598425197,"duration":0.21249929166665993},{"name":"C#5","midi":73,"time":130.71384999999862,"velocity":0.6299212598425197,"duration":0.21249929166665993},{"name":"C#5","midi":73,"time":130.9281349999986,"velocity":0.6299212598425197,"duration":0.21249929166665993},{"name":"G#5","midi":80,"time":131.1424199999986,"velocity":0.6299212598425197,"duration":0.21249929166665993},{"name":"E5","midi":76,"time":131.35670499999858,"velocity":0.6299212598425197,"duration":0.21249929166665993},{"name":"C#5","midi":73,"time":131.57098999999857,"velocity":0.6299212598425197,"duration":0.21249929166665993},{"name":"E5","midi":76,"time":131.78527499999856,"velocity":0.6299212598425197,"duration":0.426784291666678},{"name":"F#5","midi":78,"time":132.21384499999857,"velocity":0.6299212598425197,"duration":1.0696392916666753},{"name":"C#5","midi":73,"time":133.28526999999858,"velocity":0.6299212598425197,"duration":0.21249929166665993},{"name":"E5","midi":76,"time":133.49955499999857,"velocity":0.6299212598425197,"duration":0.21249929166665993},{"name":"C#5","midi":73,"time":133.71383999999856,"velocity":0.6299212598425197,"duration":0.21249929166665993},{"name":"G#5","midi":80,"time":133.92812499999854,"velocity":0.6299212598425197,"duration":0.21249929166665993},{"name":"G#5","midi":80,"time":134.14240999999853,"velocity":0.6299212598425197,"duration":0.21249929166665993},{"name":"A5","midi":81,"time":134.35669499999852,"velocity":0.6299212598425197,"duration":0.21249929166665993},{"name":"G#5","midi":80,"time":134.5709799999985,"velocity":0.6299212598425197,"duration":0.21249929166665993},{"name":"E5","midi":76,"time":134.7852649999985,"velocity":0.6299212598425197,"duration":0.21249929166665993},{"name":"C#5","midi":73,"time":134.9995499999985,"velocity":0.6299212598425197,"duration":0.21249929166665993},{"name":"E5","midi":76,"time":135.21383499999848,"velocity":0.6299212598425197,"duration":0.426784291666678},{"name":"F#5","midi":78,"time":135.6424049999985,"velocity":0.6299212598425197,"duration":1.0696392916666753},{"name":"C#5","midi":73,"time":136.7138299999985,"velocity":0.6299212598425197,"duration":0.21249929166665993},{"name":"E5","midi":76,"time":136.92811499999848,"velocity":0.6299212598425197,"duration":0.21249929166665993},{"name":"F#5","midi":78,"time":137.14239999999847,"velocity":0.6299212598425197,"duration":0.426784291666678},{"name":"F#5","midi":78,"time":137.57096999999848,"velocity":0.6299212598425197,"duration":0.426784291666678},{"name":"F#5","midi":78,"time":137.9995399999985,"velocity":0.6299212598425197,"duration":0.6410692916666676},{"name":"F#5","midi":78,"time":138.6423949999985,"velocity":0.6299212598425197,"duration":0.21249929166665993},{"name":"E5","midi":76,"time":138.85667999999848,"velocity":0.6299212598425197,"duration":0.21249929166665993},{"name":"F#5","midi":78,"time":139.07096499999847,"velocity":0.6299212598425197,"duration":0.21249929166665993},{"name":"F#5","midi":78,"time":139.28524999999846,"velocity":0.6299212598425197,"duration":0.21249929166665993},{"name":"E5","midi":76,"time":139.49953499999845,"velocity":0.6299212598425197,"duration":0.21249929166665993},{"name":"F#5","midi":78,"time":139.71381999999844,"velocity":0.6299212598425197,"duration":0.426784291666678},{"name":"C#5","midi":73,"time":140.14238999999844,"velocity":0.6299212598425197,"duration":0.21249929166665993},{"name":"E5","midi":76,"time":140.35667499999843,"velocity":0.6299212598425197,"duration":0.21249929166665993},{"name":"G#4","midi":68,"time":140.57095999999842,"velocity":0.6299212598425197,"duration":0.426784291666678},{"name":"B4","midi":71,"time":140.57095999999842,"velocity":0.6299212598425197,"duration":0.426784291666678},{"name":"F#5","midi":78,"time":140.99952999999843,"velocity":0.6299212598425197,"duration":0.426784291666678},{"name":"F#5","midi":78,"time":141.42809999999844,"velocity":0.6299212598425197,"duration":0.6410692916666676},{"name":"F#5","midi":78,"time":142.07095499999843,"velocity":0.6299212598425197,"duration":0.21249929166665993},{"name":"E5","midi":76,"time":142.28523999999842,"velocity":0.6299212598425197,"duration":0.21249929166665993},{"name":"F#5","midi":78,"time":142.4995249999984,"velocity":0.6299212598425197,"duration":0.21249929166665993},{"name":"F#5","midi":78,"time":142.7138099999984,"velocity":0.6299212598425197,"duration":0.21249929166665993},{"name":"E5","midi":76,"time":142.9280949999984,"velocity":0.6299212598425197,"duration":0.21249929166665993},{"name":"F#5","midi":78,"time":143.14237999999838,"velocity":0.6299212598425197,"duration":0.426784291666678},{"name":"C#5","midi":73,"time":143.5709499999984,"velocity":0.6299212598425197,"duration":0.21249929166665993},{"name":"C#5","midi":73,"time":143.78523499999838,"velocity":0.6299212598425197,"duration":0.21249929166665993},{"name":"C#5","midi":73,"time":143.99951999999837,"velocity":0.6299212598425197,"duration":0.21249929166665993},{"name":"G#5","midi":80,"time":143.99951999999837,"velocity":0.6299212598425197,"duration":0.21249929166665993},{"name":"G#5","midi":80,"time":144.21380499999836,"velocity":0.6299212598425197,"duration":0.21249929166665993},{"name":"G#5","midi":80,"time":144.42808999999835,"velocity":0.6299212598425197,"duration":0.21249929166665993},{"name":"A5","midi":81,"time":144.64237499999834,"velocity":0.6299212598425197,"duration":0.21249929166665993},{"name":"G#5","midi":80,"time":144.85665999999833,"velocity":0.6299212598425197,"duration":0.21249929166665993},{"name":"E5","midi":76,"time":145.07094499999832,"velocity":0.6299212598425197,"duration":0.21249929166665993},{"name":"C#5","midi":73,"time":145.2852299999983,"velocity":0.6299212598425197,"duration":0.21249929166665993},{"name":"E5","midi":76,"time":145.4995149999983,"velocity":0.6299212598425197,"duration":0.426784291666678},{"name":"F#5","midi":78,"time":145.9280849999983,"velocity":0.6299212598425197,"duration":1.0696392916666753},{"name":"C#5","midi":73,"time":146.9995099999983,"velocity":0.6299212598425197,"duration":0.21249929166665993},{"name":"E5","midi":76,"time":147.2137949999983,"velocity":0.6299212598425197,"duration":0.21249929166665993},{"name":"C#5","midi":73,"time":147.4280799999983,"velocity":0.6299212598425197,"duration":0.21249929166665993},{"name":"G#5","midi":80,"time":147.4280799999983,"velocity":0.6299212598425197,"duration":0.21249929166665993},{"name":"G#5","midi":80,"time":147.64236499999828,"velocity":0.6299212598425197,"duration":0.21249929166665993},{"name":"G#5","midi":80,"time":147.85664999999827,"velocity":0.6299212598425197,"duration":0.21249929166665993},{"name":"A5","midi":81,"time":148.07093499999826,"velocity":0.6299212598425197,"duration":0.21249929166665993},{"name":"G#5","midi":80,"time":148.28521999999825,"velocity":0.6299212598425197,"duration":0.21249929166665993},{"name":"E5","midi":76,"time":148.49950499999824,"velocity":0.6299212598425197,"duration":0.21249929166665993},{"name":"C#5","midi":73,"time":148.71378999999823,"velocity":0.6299212598425197,"duration":0.21249929166665993},{"name":"E5","midi":76,"time":148.92807499999822,"velocity":0.6299212598425197,"duration":0.426784291666678},{"name":"F#5","midi":78,"time":149.35664499999822,"velocity":0.6299212598425197,"duration":1.4982092916666545},{"name":"C#5","midi":73,"time":151.28520999999822,"velocity":0.6299212598425197,"duration":0.21249929166665993},{"name":"B4","midi":71,"time":151.4994949999982,"velocity":0.6299212598425197,"duration":0.21249929166665993},{"name":"C#5","midi":73,"time":151.7137799999982,"velocity":0.6299212598425197,"duration":0.21249929166665993},{"name":"B4","midi":71,"time":151.92806499999818,"velocity":0.6299212598425197,"duration":0.21249929166665993},{"name":"A4","midi":69,"time":152.14234999999817,"velocity":0.6299212598425197,"duration":0.21249929166665993},{"name":"B4","midi":71,"time":152.35663499999816,"velocity":0.6299212598425197,"duration":0.21249929166665993},{"name":"C#5","midi":73,"time":152.57091999999815,"velocity":0.6299212598425197,"duration":0.21249929166665993},{"name":"E5","midi":76,"time":152.78520499999814,"velocity":0.6299212598425197,"duration":0.21249929166665993},{"name":"C#5","midi":73,"time":152.99948999999813,"velocity":0.6299212598425197,"duration":0.21249929166665993},{"name":"B4","midi":71,"time":153.21377499999812,"velocity":0.6299212598425197,"duration":0.06249979166665298},{"name":"C#5","midi":73,"time":153.2780604999981,"velocity":0.6299212598425197,"duration":0.14642808333331914},{"name":"B4","midi":71,"time":153.42805999999808,"velocity":0.6299212598425197,"duration":0.8553542916666572},{"name":"A4","midi":69,"time":154.28519999999807,"velocity":0.6299212598425197,"duration":0.2839276249999898},{"name":"A4","midi":69,"time":154.5709133333314,"velocity":0.6299212598425197,"duration":0.2839276249999898},{"name":"F#4","midi":66,"time":154.8566266666647,"velocity":0.6299212598425197,"duration":0.2839276249999898},{"name":"A4","midi":69,"time":155.14233999999803,"velocity":0.6299212598425197,"duration":0.21249929166665993},{"name":"B4","midi":71,"time":155.35662499999802,"velocity":0.6299212598425197,"duration":0.21249929166665993},{"name":"B4","midi":71,"time":155.570909999998,"velocity":0.6299212598425197,"duration":0.06249979166665298},{"name":"C#5","midi":73,"time":155.635195499998,"velocity":0.6299212598425197,"duration":0.14642808333334756},{"name":"B4","midi":71,"time":155.785194999998,"velocity":0.6299212598425197,"duration":1.4982092916666545},{"name":"E4","midi":64,"time":157.28518999999798,"velocity":0.6299212598425197,"duration":0.426784291666678},{"name":"E5","midi":76,"time":164.570879999998,"velocity":0.6299212598425197,"duration":0.21249929166665993},{"name":"D5","midi":74,"time":164.785164999998,"velocity":0.6299212598425197,"duration":0.21249929166665993},{"name":"C#5","midi":73,"time":164.99944999999798,"velocity":0.6299212598425197,"duration":0.21249929166665993},{"name":"C#5","midi":73,"time":165.21373499999797,"velocity":0.6299212598425197,"duration":0.426784291666678},{"name":"B4","midi":71,"time":165.64230499999798,"velocity":0.6299212598425197,"duration":0.426784291666678},{"name":"A4","midi":69,"time":166.07087499999798,"velocity":0.6299212598425197,"duration":0.21249929166665993},{"name":"E5","midi":76,"time":166.28515999999797,"velocity":0.6299212598425197,"duration":0.21249929166665993},{"name":"D5","midi":74,"time":166.49944499999796,"velocity":0.6299212598425197,"duration":0.21249929166665993},{"name":"C#5","midi":73,"time":166.71372999999795,"velocity":0.6299212598425197,"duration":0.21249929166665993},{"name":"C#5","midi":73,"time":166.92801499999794,"velocity":0.6299212598425197,"duration":0.426784291666678},{"name":"B4","midi":71,"time":167.35658499999795,"velocity":0.6299212598425197,"duration":0.426784291666678},{"name":"A4","midi":69,"time":167.78515499999796,"velocity":0.6299212598425197,"duration":0.21249929166665993},{"name":"E5","midi":76,"time":167.99943999999795,"velocity":0.6299212598425197,"duration":0.21249929166665993},{"name":"D5","midi":74,"time":168.21372499999794,"velocity":0.6299212598425197,"duration":0.21249929166665993},{"name":"C#5","midi":73,"time":168.42800999999793,"velocity":0.6299212598425197,"duration":0.21249929166665993},{"name":"C#5","midi":73,"time":168.64229499999792,"velocity":0.6299212598425197,"duration":0.426784291666678},{"name":"D5","midi":74,"time":169.07086499999792,"velocity":0.6299212598425197,"duration":0.21249929166665993},{"name":"C#5","midi":73,"time":169.2851499999979,"velocity":0.6299212598425197,"duration":0.21249929166665993},{"name":"B4","midi":71,"time":169.4994349999979,"velocity":0.6299212598425197,"duration":1.4982092916666545},{"name":"F#4","midi":66,"time":171.21371499999788,"velocity":0.6299212598425197,"duration":0.21249929166665993},{"name":"A4","midi":69,"time":173.14227999999787,"velocity":0.6299212598425197,"duration":0.2839276249999898},{"name":"B4","midi":71,"time":173.4279933333312,"velocity":0.6299212598425197,"duration":0.2839276249999898},{"name":"C#5","midi":73,"time":173.7137066666645,"velocity":0.6299212598425197,"duration":0.2839276249999898},{"name":"C#5","midi":73,"time":173.99941999999783,"velocity":0.6299212598425197,"duration":0.6410692916666676},{"name":"F#4","midi":66,"time":174.64227499999782,"velocity":0.6299212598425197,"duration":0.21249929166665993},{"name":"C#6","midi":85,"time":174.8565599999978,"velocity":0.6299212598425197,"duration":0.426784291666678},{"name":"C#6","midi":85,"time":175.28512999999782,"velocity":0.6299212598425197,"duration":0.426784291666678},{"name":"C#6","midi":85,"time":175.71369999999783,"velocity":0.6299212598425197,"duration":0.426784291666678},{"name":"D6","midi":86,"time":176.14226999999784,"velocity":0.6299212598425197,"duration":0.426784291666678},{"name":"E6","midi":88,"time":176.57083999999784,"velocity":0.6299212598425197,"duration":1.2839242916666649},{"name":"C#6","midi":85,"time":177.85654999999784,"velocity":0.6299212598425197,"duration":0.21249929166665993},{"name":"E6","midi":88,"time":178.07083499999783,"velocity":0.6299212598425197,"duration":0.21249929166665993},{"name":"C#5","midi":73,"time":178.28511999999782,"velocity":0.6299212598425197,"duration":0.426784291666678},{"name":"F#5","midi":78,"time":178.28511999999782,"velocity":0.6299212598425197,"duration":0.426784291666678},{"name":"C#5","midi":73,"time":178.71368999999783,"velocity":0.6299212598425197,"duration":0.426784291666678},{"name":"F#5","midi":78,"time":178.71368999999783,"velocity":0.6299212598425197,"duration":0.426784291666678},{"name":"C#5","midi":73,"time":179.14225999999783,"velocity":0.6299212598425197,"duration":0.6410692916666676},{"name":"F#5","midi":78,"time":179.14225999999783,"velocity":0.6299212598425197,"duration":0.6410692916666676},{"name":"F#5","midi":78,"time":179.78511499999783,"velocity":0.6299212598425197,"duration":0.21249929166665993},{"name":"C#5","midi":73,"time":179.99939999999782,"velocity":0.6299212598425197,"duration":0.21249929166665993},{"name":"E5","midi":76,"time":179.99939999999782,"velocity":0.6299212598425197,"duration":0.21249929166665993},{"name":"F#5","midi":78,"time":180.2136849999978,"velocity":0.6299212598425197,"duration":0.21249929166665993},{"name":"F#5","midi":78,"time":180.4279699999978,"velocity":0.6299212598425197,"duration":0.21249929166665993},{"name":"E5","midi":76,"time":180.6422549999978,"velocity":0.6299212598425197,"duration":0.21249929166665993},{"name":"F#5","midi":78,"time":180.85653999999778,"velocity":0.6299212598425197,"duration":0.426784291666678},{"name":"C#5","midi":73,"time":181.2851099999978,"velocity":0.6299212598425197,"duration":0.21249929166665993},{"name":"E5","midi":76,"time":181.49939499999778,"velocity":0.6299212598425197,"duration":0.21249929166665993},{"name":"A4","midi":69,"time":181.71367999999777,"velocity":0.6299212598425197,"duration":0.426784291666678},{"name":"F#5","midi":78,"time":181.71367999999777,"velocity":0.6299212598425197,"duration":0.426784291666678},{"name":"A4","midi":69,"time":182.14224999999777,"velocity":0.6299212598425197,"duration":0.426784291666678},{"name":"F#5","midi":78,"time":182.14224999999777,"velocity":0.6299212598425197,"duration":0.426784291666678},{"name":"A4","midi":69,"time":182.57081999999778,"velocity":0.6299212598425197,"duration":0.6410692916666676},{"name":"F#5","midi":78,"time":182.57081999999778,"velocity":0.6299212598425197,"duration":0.6410692916666676},{"name":"F#5","midi":78,"time":183.21367499999778,"velocity":0.6299212598425197,"duration":0.21249929166665993},{"name":"C#5","midi":73,"time":183.42795999999777,"velocity":0.6299212598425197,"duration":0.21249929166665993},{"name":"E5","midi":76,"time":183.42795999999777,"velocity":0.6299212598425197,"duration":0.21249929166665993},{"name":"F#5","midi":78,"time":183.64224499999776,"velocity":0.6299212598425197,"duration":0.21249929166665993},{"name":"F#5","midi":78,"time":183.85652999999775,"velocity":0.6299212598425197,"duration":0.21249929166665993},{"name":"E5","midi":76,"time":184.07081499999774,"velocity":0.6299212598425197,"duration":0.21249929166665993},{"name":"F#5","midi":78,"time":184.28509999999773,"velocity":0.6299212598425197,"duration":0.426784291666678},{"name":"C#5","midi":73,"time":184.71366999999773,"velocity":0.6299212598425197,"duration":0.21249929166665993},{"name":"C#5","midi":73,"time":184.92795499999772,"velocity":0.6299212598425197,"duration":0.21249929166665993},{"name":"G#5","midi":80,"time":185.1422399999977,"velocity":0.6299212598425197,"duration":0.21249929166665993},{"name":"G#5","midi":80,"time":185.3565249999977,"velocity":0.6299212598425197,"duration":0.21249929166665993},{"name":"G#5","midi":80,"time":185.5708099999977,"velocity":0.6299212598425197,"duration":0.21249929166665993},{"name":"G#5","midi":80,"time":185.78509499999768,"velocity":0.6299212598425197,"duration":0.21249929166665993},{"name":"G#5","midi":80,"time":185.99937999999767,"velocity":0.6299212598425197,"duration":0.21249929166665993},{"name":"E5","midi":76,"time":186.21366499999766,"velocity":0.6299212598425197,"duration":0.21249929166665993},{"name":"C#5","midi":73,"time":186.42794999999765,"velocity":0.6299212598425197,"duration":0.21249929166665993},{"name":"E5","midi":76,"time":186.64223499999764,"velocity":0.6299212598425197,"duration":0.426784291666678},{"name":"F#5","midi":78,"time":187.07080499999765,"velocity":0.6299212598425197,"duration":0.6410692916666676},{"name":"F#5","midi":78,"time":187.71365999999765,"velocity":0.6299212598425197,"duration":0.426784291666678},{"name":"C#5","midi":73,"time":188.14222999999765,"velocity":0.6299212598425197,"duration":0.21249929166665993},{"name":"E5","midi":76,"time":188.35651499999764,"velocity":0.6299212598425197,"duration":0.21249929166665993},{"name":"G#5","midi":80,"time":188.57079999999763,"velocity":0.6299212598425197,"duration":0.21249929166665993},{"name":"G#5","midi":80,"time":188.78508499999762,"velocity":0.6299212598425197,"duration":0.21249929166665993},{"name":"G#5","midi":80,"time":188.9993699999976,"velocity":0.6299212598425197,"duration":0.21249929166665993},{"name":"A5","midi":81,"time":189.2136549999976,"velocity":0.6299212598425197,"duration":0.21249929166665993},{"name":"G#5","midi":80,"time":189.4279399999976,"velocity":0.6299212598425197,"duration":0.21249929166665993},{"name":"E5","midi":76,"time":189.64222499999758,"velocity":0.6299212598425197,"duration":0.21249929166665993},{"name":"C#5","midi":73,"time":189.85650999999757,"velocity":0.6299212598425197,"duration":0.21249929166665993},{"name":"E5","midi":76,"time":190.07079499999756,"velocity":0.6299212598425197,"duration":0.426784291666678},{"name":"F#5","midi":78,"time":190.49936499999757,"velocity":0.6299212598425197,"duration":1.0696392916666753},{"name":"C#5","midi":73,"time":191.57078999999757,"velocity":0.6299212598425197,"duration":0.21249929166665993},{"name":"E5","midi":76,"time":191.78507499999756,"velocity":0.6299212598425197,"duration":0.21249929166665993},{"name":"C#5","midi":73,"time":191.99935999999755,"velocity":0.6299212598425197,"duration":0.426784291666678},{"name":"F#5","midi":78,"time":191.99935999999755,"velocity":0.6299212598425197,"duration":0.426784291666678},{"name":"C#5","midi":73,"time":192.42792999999756,"velocity":0.6299212598425197,"duration":0.426784291666678},{"name":"F#5","midi":78,"time":192.42792999999756,"velocity":0.6299212598425197,"duration":0.426784291666678},{"name":"C#5","midi":73,"time":192.85649999999757,"velocity":0.6299212598425197,"duration":0.6410692916666676},{"name":"F#5","midi":78,"time":192.85649999999757,"velocity":0.6299212598425197,"duration":0.6410692916666676},{"name":"F#5","midi":78,"time":193.49935499999756,"velocity":0.6299212598425197,"duration":0.21249929166665993},{"name":"C#5","midi":73,"time":193.71363999999755,"velocity":0.6299212598425197,"duration":0.21249929166665993},{"name":"E5","midi":76,"time":193.71363999999755,"velocity":0.6299212598425197,"duration":0.21249929166665993},{"name":"F#5","midi":78,"time":193.92792499999754,"velocity":0.6299212598425197,"duration":0.21249929166665993},{"name":"F#5","midi":78,"time":194.14220999999753,"velocity":0.6299212598425197,"duration":0.21249929166665993},{"name":"E5","midi":76,"time":194.35649499999752,"velocity":0.6299212598425197,"duration":0.21249929166665993},{"name":"F#5","midi":78,"time":194.5707799999975,"velocity":0.6299212598425197,"duration":0.426784291666678},{"name":"C#5","midi":73,"time":194.99934999999752,"velocity":0.6299212598425197,"duration":0.21249929166665993},{"name":"E5","midi":76,"time":195.2136349999975,"velocity":0.6299212598425197,"duration":0.21249929166665993},{"name":"A4","midi":69,"time":195.4279199999975,"velocity":0.6299212598425197,"duration":0.426784291666678},{"name":"F#5","midi":78,"time":195.4279199999975,"velocity":0.6299212598425197,"duration":0.426784291666678},{"name":"A4","midi":69,"time":195.8564899999975,"velocity":0.6299212598425197,"duration":0.426784291666678},{"name":"F#5","midi":78,"time":195.8564899999975,"velocity":0.6299212598425197,"duration":0.426784291666678},{"name":"A4","midi":69,"time":196.28505999999751,"velocity":0.6299212598425197,"duration":0.6410692916666676},{"name":"F#5","midi":78,"time":196.28505999999751,"velocity":0.6299212598425197,"duration":0.6410692916666676},{"name":"F#5","midi":78,"time":196.9279149999975,"velocity":0.6299212598425197,"duration":0.21249929166665993},{"name":"C#5","midi":73,"time":197.1421999999975,"velocity":0.6299212598425197,"duration":0.21249929166665993},{"name":"E5","midi":76,"time":197.1421999999975,"velocity":0.6299212598425197,"duration":0.21249929166665993},{"name":"F#5","midi":78,"time":197.3564849999975,"velocity":0.6299212598425197,"duration":0.21249929166665993},{"name":"F#5","midi":78,"time":197.57076999999748,"velocity":0.6299212598425197,"duration":0.21249929166665993},{"name":"E5","midi":76,"time":197.78505499999747,"velocity":0.6299212598425197,"duration":0.21249929166665993},{"name":"F#5","midi":78,"time":197.99933999999746,"velocity":0.6299212598425197,"duration":0.426784291666678},{"name":"C#5","midi":73,"time":198.42790999999747,"velocity":0.6299212598425197,"duration":0.21249929166665993},{"name":"C#5","midi":73,"time":198.64219499999746,"velocity":0.6299212598425197,"duration":0.21249929166665993},{"name":"G#5","midi":80,"time":198.85647999999745,"velocity":0.6299212598425197,"duration":0.21249929166665993},{"name":"G#5","midi":80,"time":199.07076499999744,"velocity":0.6299212598425197,"duration":0.21249929166665993},{"name":"G#5","midi":80,"time":199.28504999999743,"velocity":0.6299212598425197,"duration":0.21249929166665993},{"name":"G#5","midi":80,"time":199.49933499999742,"velocity":0.6299212598425197,"duration":0.21249929166665993},{"name":"G#5","midi":80,"time":199.7136199999974,"velocity":0.6299212598425197,"duration":0.21249929166665993},{"name":"E5","midi":76,"time":199.9279049999974,"velocity":0.6299212598425197,"duration":0.21249929166665993},{"name":"C#5","midi":73,"time":200.14218999999738,"velocity":0.6299212598425197,"duration":0.21249929166665993},{"name":"E5","midi":76,"time":200.35647499999737,"velocity":0.6299212598425197,"duration":0.426784291666678},{"name":"F#5","midi":78,"time":200.78504499999738,"velocity":0.6299212598425197,"duration":1.0696392916666753},{"name":"C#5","midi":73,"time":201.8564699999974,"velocity":0.6299212598425197,"duration":0.21249929166665993},{"name":"E5","midi":76,"time":202.07075499999738,"velocity":0.6299212598425197,"duration":0.21249929166665993},{"name":"G#5","midi":80,"time":202.28503999999737,"velocity":0.6299212598425197,"duration":0.21249929166665993},{"name":"G#5","midi":80,"time":202.49932499999736,"velocity":0.6299212598425197,"duration":0.21249929166665993},{"name":"G#5","midi":80,"time":202.71360999999735,"velocity":0.6299212598425197,"duration":0.21249929166665993},{"name":"A5","midi":81,"time":202.92789499999733,"velocity":0.6299212598425197,"duration":0.21249929166665993},{"name":"G#5","midi":80,"time":203.14217999999732,"velocity":0.6299212598425197,"duration":0.21249929166665993},{"name":"E5","midi":76,"time":203.3564649999973,"velocity":0.6299212598425197,"duration":0.21249929166665993},{"name":"C#5","midi":73,"time":203.5707499999973,"velocity":0.6299212598425197,"duration":0.21249929166665993},{"name":"E5","midi":76,"time":203.7850349999973,"velocity":0.6299212598425197,"duration":0.426784291666678},{"name":"F#5","midi":78,"time":204.2136049999973,"velocity":0.6299212598425197,"duration":1.0696392916666753},{"name":"F#5","midi":78,"time":205.2850299999973,"velocity":0.6299212598425197,"duration":0.426784291666678},{"name":"C#6","midi":85,"time":205.7135999999973,"velocity":0.6299212598425197,"duration":0.8553542916666572},{"name":"B5","midi":83,"time":206.5707399999973,"velocity":0.6299212598425197,"duration":0.426784291666678},{"name":"C#6","midi":85,"time":206.9993099999973,"velocity":0.6299212598425197,"duration":0.21249929166665993},{"name":"F#5","midi":78,"time":207.2135949999973,"velocity":0.6299212598425197,"duration":1.9267792916666622},{"name":"C#6","midi":85,"time":209.1421599999973,"velocity":0.6299212598425197,"duration":0.8553542916666572},{"name":"B5","midi":83,"time":209.99929999999728,"velocity":0.6299212598425197,"duration":0.426784291666678},{"name":"C#6","midi":85,"time":210.42786999999728,"velocity":0.6299212598425197,"duration":0.21249929166665993},{"name":"F#5","midi":78,"time":210.64215499999727,"velocity":0.6299212598425197,"duration":1.9267792916666622},{"name":"C#6","midi":85,"time":212.57071999999727,"velocity":0.6299212598425197,"duration":0.8553542916666572},{"name":"B5","midi":83,"time":213.42785999999725,"velocity":0.6299212598425197,"duration":0.426784291666678},{"name":"C#6","midi":85,"time":213.85642999999726,"velocity":0.6299212598425197,"duration":0.21249929166665993},{"name":"B5","midi":83,"time":214.07071499999725,"velocity":0.6299212598425197,"duration":1.9267792916666622},{"name":"F#4","midi":66,"time":216.21356499999723,"velocity":0.6299212598425197,"duration":0.21249929166665993},{"name":"A4","midi":69,"time":216.42784999999722,"velocity":0.6299212598425197,"duration":0.21249929166665993},{"name":"F#4","midi":66,"time":216.6421349999972,"velocity":0.6299212598425197,"duration":0.21249929166665993},{"name":"F#4","midi":66,"time":217.0707049999972,"velocity":0.6299212598425197,"duration":0.21249929166665993},{"name":"A4","midi":69,"time":217.28498999999718,"velocity":0.6299212598425197,"duration":0.21249929166665993},{"name":"F#4","midi":66,"time":217.49927499999717,"velocity":0.6299212598425197,"duration":0.21249929166665993},{"name":"F#4","midi":66,"time":217.92784499999715,"velocity":0.6299212598425197,"duration":0.21249929166665993},{"name":"A4","midi":69,"time":218.14212999999714,"velocity":0.6299212598425197,"duration":0.21249929166665993},{"name":"F#4","midi":66,"time":218.35641499999713,"velocity":0.6299212598425197,"duration":0.21249929166665993},{"name":"B5","midi":83,"time":218.57069999999712,"velocity":0.6299212598425197,"duration":0.426784291666678},{"name":"A5","midi":81,"time":218.99926999999713,"velocity":0.6299212598425197,"duration":3.855344291666654}]},{"instrument_number":44,"notes":[{"name":"E5","midi":76,"time":0,"velocity":0.6299212598425197,"duration":0.06249979166666667},{"name":"F#5","midi":78,"time":0.06428550000000001,"velocity":0.6299212598425197,"duration":1.2196387916666667},{"name":"E5","midi":76,"time":1.28571,"velocity":0.6299212598425197,"duration":0.2124992916666666},{"name":"F#5","midi":78,"time":1.4999949999999997,"velocity":0.6299212598425197,"duration":1.4982092916666665},{"name":"E5","midi":76,"time":2.9999899999999995,"velocity":0.6299212598425197,"duration":0.2124992916666666},{"name":"C#5","midi":73,"time":3.2142749999999993,"velocity":0.6299212598425197,"duration":1.4982092916666665},{"name":"B4","midi":71,"time":4.714269999999999,"velocity":0.6299212598425197,"duration":0.21249929166666703},{"name":"C#5","midi":73,"time":4.928554999999999,"velocity":0.6299212598425197,"duration":1.498209291666667},{"name":"A4","midi":69,"time":6.4285499999999995,"velocity":0.6299212598425197,"duration":0.21249929166666703},{"name":"B4","midi":71,"time":6.642835,"velocity":0.6299212598425197,"duration":1.498209291666667},{"name":"A4","midi":69,"time":8.14283,"velocity":0.6299212598425197,"duration":0.21249929166666703},{"name":"B4","midi":71,"time":8.357115,"velocity":0.6299212598425197,"duration":1.498209291666667},{"name":"B4","midi":71,"time":9.85711,"velocity":0.6299212598425197,"duration":0.21249929166666703},{"name":"C#5","midi":73,"time":10.071395,"velocity":0.6299212598425197,"duration":1.498209291666667},{"name":"E5","midi":76,"time":11.571390000000001,"velocity":0.6299212598425197,"duration":0.21249929166666703},{"name":"C#5","midi":73,"time":11.785675000000001,"velocity":0.6299212598425197,"duration":1.498209291666667},{"name":"F#4","midi":66,"time":13.285670000000001,"velocity":0.6299212598425197,"duration":0.21249929166666703},{"name":"G#4","midi":68,"time":13.499955000000002,"velocity":0.6299212598425197,"duration":0.21249929166666703},{"name":"A4","midi":69,"time":13.714240000000002,"velocity":0.6299212598425197,"duration":0.21249929166666703},{"name":"G#4","midi":68,"time":13.928525000000002,"velocity":0.6299212598425197,"duration":0.21249929166666703},{"name":"A4","midi":69,"time":14.142810000000003,"velocity":0.6299212598425197,"duration":0.21249929166666703},{"name":"G#4","midi":68,"time":14.357095000000003,"velocity":0.6299212598425197,"duration":0.21249929166666703},{"name":"A4","midi":69,"time":14.571380000000003,"velocity":0.6299212598425197,"duration":0.21249929166666703},{"name":"B4","midi":71,"time":14.785665000000003,"velocity":0.6299212598425197,"duration":0.21249929166666703},{"name":"F#4","midi":66,"time":15.214235000000004,"velocity":0.6299212598425197,"duration":0.21249929166666703},{"name":"A4","midi":69,"time":15.428520000000004,"velocity":0.6299212598425197,"duration":0.21249929166666703},{"name":"G#4","midi":68,"time":15.642805000000005,"velocity":0.6299212598425197,"duration":0.21249929166666703},{"name":"A4","midi":69,"time":15.857090000000005,"velocity":0.6299212598425197,"duration":0.21249929166666526},{"name":"G#4","midi":68,"time":16.071375000000003,"velocity":0.6299212598425197,"duration":0.21249929166666703},{"name":"A4","midi":69,"time":16.285660000000004,"velocity":0.6299212598425197,"duration":0.4267842916666673},{"name":"F#4","midi":66,"time":16.928515000000004,"velocity":0.6299212598425197,"duration":0.21249929166666703},{"name":"A4","midi":69,"time":17.142800000000005,"velocity":0.6299212598425197,"duration":0.21249929166666703},{"name":"G#4","midi":68,"time":17.357085000000005,"velocity":0.6299212598425197,"duration":0.21249929166666703},{"name":"A4","midi":69,"time":17.571370000000005,"velocity":0.6299212598425197,"duration":0.21249929166666703},{"name":"G#4","midi":68,"time":17.785655000000006,"velocity":0.6299212598425197,"duration":0.21249929166666703},{"name":"A4","midi":69,"time":17.999940000000006,"velocity":0.6299212598425197,"duration":0.21249929166666703},{"name":"B4","midi":71,"time":18.214225000000006,"velocity":0.6299212598425197,"duration":0.21249929166666703},{"name":"F#4","midi":66,"time":18.642795000000007,"velocity":0.6299212598425197,"duration":0.21249929166666703},{"name":"A4","midi":69,"time":18.857080000000007,"velocity":0.6299212598425197,"duration":0.21249929166666703},{"name":"G#4","midi":68,"time":19.071365000000007,"velocity":0.6299212598425197,"duration":0.21249929166666703},{"name":"A4","midi":69,"time":19.285650000000008,"velocity":0.6299212598425197,"duration":0.21249929166666703},{"name":"G#4","midi":68,"time":19.499935000000008,"velocity":0.6299212598425197,"duration":0.21249929166666703},{"name":"A4","midi":69,"time":19.714220000000008,"velocity":0.6299212598425197,"duration":0.21249929166666703},{"name":"F#4","midi":66,"time":20.35707500000001,"velocity":0.6299212598425197,"duration":0.21249929166666703},{"name":"A4","midi":69,"time":20.57136000000001,"velocity":0.6299212598425197,"duration":0.4267842916666673},{"name":"F#4","midi":66,"time":20.99993000000001,"velocity":0.6299212598425197,"duration":0.21249929166666703},{"name":"A4","midi":69,"time":21.21421500000001,"velocity":0.6299212598425197,"duration":0.4267842916666673},{"name":"F#4","midi":66,"time":21.64278500000001,"velocity":0.6299212598425197,"duration":0.4267842916666673},{"name":"F#4","midi":66,"time":22.07135500000001,"velocity":0.6299212598425197,"duration":0.21249929166666703},{"name":"A4","midi":69,"time":22.28564000000001,"velocity":0.6299212598425197,"duration":0.21249929166666703},{"name":"G#4","midi":68,"time":22.49992500000001,"velocity":0.6299212598425197,"duration":0.21249929166666703},{"name":"F#4","midi":66,"time":22.714210000000012,"velocity":0.6299212598425197,"duration":0.21249929166666703},{"name":"A4","midi":69,"time":22.928495000000012,"velocity":0.6299212598425197,"duration":0.21249929166666703},{"name":"G#4","midi":68,"time":23.142780000000013,"velocity":0.6299212598425197,"duration":0.21249929166666703},{"name":"F#4","midi":66,"time":23.357065000000013,"velocity":0.6299212598425197,"duration":0.4267842916666673},{"name":"F#4","midi":66,"time":23.785635000000013,"velocity":0.6299212598425197,"duration":0.21249929166666703},{"name":"A4","midi":69,"time":23.999920000000014,"velocity":0.6299212598425197,"duration":0.21249929166666703},{"name":"G#4","midi":68,"time":24.214205000000014,"velocity":0.6299212598425197,"duration":0.21249929166666703},{"name":"A4","midi":69,"time":24.428490000000014,"velocity":0.6299212598425197,"duration":0.21249929166666703},{"name":"G#4","midi":68,"time":24.642775000000015,"velocity":0.6299212598425197,"duration":0.21249929166666703},{"name":"A4","midi":69,"time":24.857060000000015,"velocity":0.6299212598425197,"duration":0.4267842916666673},{"name":"F#4","midi":66,"time":25.285630000000015,"velocity":0.6299212598425197,"duration":0.21249929166666703},{"name":"A4","midi":69,"time":25.499915000000016,"velocity":0.6299212598425197,"duration":0.21249929166666703},{"name":"B4","midi":71,"time":25.714200000000016,"velocity":0.6299212598425197,"duration":0.21249929166666703},{"name":"B4","midi":71,"time":25.928485000000016,"velocity":0.6299212598425197,"duration":0.21249929166666703},{"name":"A4","midi":69,"time":26.142770000000016,"velocity":0.6299212598425197,"duration":0.21249929166666703},{"name":"G#4","midi":68,"time":26.357055000000017,"velocity":0.6299212598425197,"duration":0.21249929166666703},{"name":"F#4","midi":66,"time":26.571340000000017,"velocity":0.6299212598425197,"duration":0.8553542916666679},{"name":"A4","midi":69,"time":27.428480000000018,"velocity":0.6299212598425197,"duration":1.2839242916666684},{"name":"F#5","midi":78,"time":27.428480000000018,"velocity":0.6299212598425197,"duration":1.2839242916666684},{"name":"E5","midi":76,"time":28.71419000000002,"velocity":0.6299212598425197,"duration":0.21249929166666703},{"name":"F#5","midi":78,"time":28.92847500000002,"velocity":0.6299212598425197,"duration":1.4982092916666652},{"name":"E5","midi":76,"time":30.42847000000002,"velocity":0.6299212598425197,"duration":0.21249929166666703},{"name":"C#5","midi":73,"time":30.64275500000002,"velocity":0.6299212598425197,"duration":1.4982092916666652},{"name":"B4","midi":71,"time":32.14275000000002,"velocity":0.6299212598425197,"duration":0.21249929166666703},{"name":"C#5","midi":73,"time":32.357035000000025,"velocity":0.6299212598425197,"duration":1.4982092916666687},{"name":"A4","midi":69,"time":33.85703000000003,"velocity":0.6299212598425197,"duration":0.21249929166666703},{"name":"B4","midi":71,"time":34.071315000000034,"velocity":0.6299212598425197,"duration":1.4982092916666687},{"name":"A4","midi":69,"time":35.57131000000004,"velocity":0.6299212598425197,"duration":0.21249929166666703},{"name":"B4","midi":71,"time":35.78559500000004,"velocity":0.6299212598425197,"duration":1.4982092916666687},{"name":"B4","midi":71,"time":37.28559000000005,"velocity":0.6299212598425197,"duration":0.21249929166666703},{"name":"C#5","midi":73,"time":37.49987500000005,"velocity":0.6299212598425197,"duration":1.4982092916666687},{"name":"E5","midi":76,"time":38.99987000000006,"velocity":0.6299212598425197,"duration":0.21249929166666703},{"name":"C#5","midi":73,"time":39.21415500000006,"velocity":0.6299212598425197,"duration":1.9267792916666693},{"name":"A4","midi":69,"time":47.785555000000066,"velocity":0.6299212598425197,"duration":0.21249929166666703},{"name":"B4","midi":71,"time":47.99984000000007,"velocity":0.6299212598425197,"duration":0.21249929166666703},{"name":"A4","midi":69,"time":48.214125000000074,"velocity":0.6299212598425197,"duration":0.21249929166666703},{"name":"B4","midi":71,"time":48.42841000000008,"velocity":0.6299212598425197,"duration":0.21249929166666703},{"name":"A4","midi":69,"time":48.64269500000008,"velocity":0.6299212598425197,"duration":0.21249929166666703},{"name":"B4","midi":71,"time":48.856980000000085,"velocity":0.6299212598425197,"duration":0.6410692916666676},{"name":"A4","midi":69,"time":49.49983500000009,"velocity":0.6299212598425197,"duration":0.21249929166666703},{"name":"B4","midi":71,"time":49.714120000000094,"velocity":0.6299212598425197,"duration":0.21249929166666703},{"name":"C#5","midi":73,"time":49.9284050000001,"velocity":0.6299212598425197,"duration":0.21249929166666703},{"name":"B4","midi":71,"time":50.1426900000001,"velocity":0.6299212598425197,"duration":0.8553542916666643},{"name":"F#4","midi":66,"time":50.9998300000001,"velocity":0.6299212598425197,"duration":0.21249929166666703},{"name":"A4","midi":69,"time":51.214115000000106,"velocity":0.6299212598425197,"duration":0.21249929166666703},{"name":"B4","midi":71,"time":51.42840000000011,"velocity":0.6299212598425197,"duration":0.21249929166666703},{"name":"A4","midi":69,"time":51.642685000000114,"velocity":0.6299212598425197,"duration":0.21249929166666703},{"name":"B4","midi":71,"time":51.85697000000012,"velocity":0.6299212598425197,"duration":0.21249929166666703},{"name":"A4","midi":69,"time":52.07125500000012,"velocity":0.6299212598425197,"duration":0.21249929166666703},{"name":"B4","midi":71,"time":52.285540000000125,"velocity":0.6299212598425197,"duration":0.6410692916666676},{"name":"A4","midi":69,"time":52.92839500000013,"velocity":0.6299212598425197,"duration":0.21249929166666703},{"name":"B4","midi":71,"time":53.142680000000134,"velocity":0.6299212598425197,"duration":0.21249929166666703},{"name":"C#5","midi":73,"time":53.35696500000014,"velocity":0.6299212598425197,"duration":0.21249929166666703},{"name":"C#5","midi":73,"time":53.57125000000014,"velocity":0.6299212598425197,"duration":0.8553542916666643},{"name":"C#5","midi":73,"time":54.42839000000014,"velocity":0.6299212598425197,"duration":0.21249929166666703},{"name":"E5","midi":76,"time":54.642675000000146,"velocity":0.6299212598425197,"duration":0.21249929166666703},{"name":"A3","midi":57,"time":54.85696000000015,"velocity":0.6299212598425197,"duration":0.42678429166666376},{"name":"A3","midi":57,"time":55.28553000000015,"velocity":0.6299212598425197,"duration":0.42678429166666376},{"name":"A3","midi":57,"time":55.71410000000015,"velocity":0.6299212598425197,"duration":0.6410692916666676},{"name":"F#4","midi":66,"time":56.356955000000156,"velocity":0.6299212598425197,"duration":0.21249929166666703},{"name":"E4","midi":64,"time":56.57124000000016,"velocity":0.6299212598425197,"duration":0.21249929166666703},{"name":"F#4","midi":66,"time":56.78552500000016,"velocity":0.6299212598425197,"duration":0.21249929166666703},{"name":"F#4","midi":66,"time":56.99981000000017,"velocity":0.6299212598425197,"duration":0.21249929166666703},{"name":"E4","midi":64,"time":57.21409500000017,"velocity":0.6299212598425197,"duration":0.21249929166666703},{"name":"F#4","midi":66,"time":57.428380000000175,"velocity":0.6299212598425197,"duration":0.42678429166666376},{"name":"C#4","midi":61,"time":57.856950000000175,"velocity":0.6299212598425197,"duration":0.21249929166666703},{"name":"E4","midi":64,"time":58.07123500000018,"velocity":0.6299212598425197,"duration":0.21249929166666703},{"name":"G#3","midi":56,"time":58.28552000000018,"velocity":0.6299212598425197,"duration":0.42678429166666376},{"name":"B3","midi":59,"time":58.28552000000018,"velocity":0.6299212598425197,"duration":0.42678429166666376},{"name":"F#4","midi":66,"time":58.71409000000018,"velocity":0.6299212598425197,"duration":0.42678429166666376},{"name":"F#4","midi":66,"time":59.142660000000184,"velocity":0.6299212598425197,"duration":0.6410692916666676},{"name":"F#4","midi":66,"time":59.78551500000019,"velocity":0.6299212598425197,"duration":0.21249929166666703},{"name":"E4","midi":64,"time":59.99980000000019,"velocity":0.6299212598425197,"duration":0.21249929166666703},{"name":"F#4","midi":66,"time":60.214085000000196,"velocity":0.6299212598425197,"duration":0.21249929166666703},{"name":"F#4","midi":66,"time":60.4283700000002,"velocity":0.6299212598425197,"duration":0.21249929166666703},{"name":"E4","midi":64,"time":60.642655000000204,"velocity":0.6299212598425197,"duration":0.21249929166666703},{"name":"F#4","midi":66,"time":60.85694000000021,"velocity":0.6299212598425197,"duration":0.42678429166666376},{"name":"C#4","midi":61,"time":61.28551000000021,"velocity":0.6299212598425197,"duration":0.21249929166666703},{"name":"C#4","midi":61,"time":61.49979500000021,"velocity":0.6299212598425197,"duration":0.21249929166666703},{"name":"C#4","midi":61,"time":61.714080000000216,"velocity":0.6299212598425197,"duration":0.21249929166666703},{"name":"C#4","midi":61,"time":61.92836500000022,"velocity":0.6299212598425197,"duration":0.21249929166666703},{"name":"C#4","midi":61,"time":62.14265000000022,"velocity":0.6299212598425197,"duration":0.21249929166666703},{"name":"C#4","midi":61,"time":62.35693500000023,"velocity":0.6299212598425197,"duration":0.21249929166666703},{"name":"G#4","midi":68,"time":62.57122000000023,"velocity":0.6299212598425197,"duration":0.21249929166666703},{"name":"E4","midi":64,"time":62.785505000000235,"velocity":0.6299212598425197,"duration":0.21249929166666703},{"name":"C#4","midi":61,"time":62.99979000000024,"velocity":0.6299212598425197,"duration":0.21249929166666703},{"name":"E4","midi":64,"time":63.21407500000024,"velocity":0.6299212598425197,"duration":0.42678429166666376},{"name":"F#4","midi":66,"time":63.64264500000024,"velocity":0.6299212598425197,"duration":1.069639291666661},{"name":"C#4","midi":61,"time":64.71407000000023,"velocity":0.6299212598425197,"duration":0.21249929166665993},{"name":"E4","midi":64,"time":64.92835500000022,"velocity":0.6299212598425197,"duration":0.21249929166665993},{"name":"G#4","midi":68,"time":65.14264000000021,"velocity":0.6299212598425197,"duration":0.21249929166665993},{"name":"G#4","midi":68,"time":65.3569250000002,"velocity":0.6299212598425197,"duration":0.21249929166665993},{"name":"G#4","midi":68,"time":65.57121000000019,"velocity":0.6299212598425197,"duration":0.21249929166665993},{"name":"A4","midi":69,"time":65.78549500000018,"velocity":0.6299212598425197,"duration":0.21249929166665993},{"name":"G#4","midi":68,"time":65.99978000000017,"velocity":0.6299212598425197,"duration":0.21249929166665993},{"name":"E4","midi":64,"time":66.21406500000016,"velocity":0.6299212598425197,"duration":0.21249929166665993},{"name":"C#4","midi":61,"time":66.42835000000015,"velocity":0.6299212598425197,"duration":0.21249929166665993},{"name":"E4","midi":64,"time":66.64263500000014,"velocity":0.6299212598425197,"duration":0.42678429166666376},{"name":"F#4","midi":66,"time":67.07120500000013,"velocity":0.6299212598425197,"duration":1.069639291666661},{"name":"C#4","midi":61,"time":68.14263000000012,"velocity":0.6299212598425197,"duration":0.21249929166665993},{"name":"E4","midi":64,"time":68.35691500000011,"velocity":0.6299212598425197,"duration":0.21249929166665993},{"name":"F#4","midi":66,"time":68.5712000000001,"velocity":0.6299212598425197,"duration":0.42678429166666376},{"name":"F#4","midi":66,"time":68.9997700000001,"velocity":0.6299212598425197,"duration":0.42678429166666376},{"name":"F#4","midi":66,"time":69.42834000000009,"velocity":0.6299212598425197,"duration":0.6410692916666676},{"name":"F#4","midi":66,"time":70.07119500000009,"velocity":0.6299212598425197,"duration":0.21249929166665993},{"name":"E4","midi":64,"time":70.28548000000008,"velocity":0.6299212598425197,"duration":0.21249929166665993},{"name":"F#4","midi":66,"time":70.49976500000007,"velocity":0.6299212598425197,"duration":0.21249929166665993},{"name":"F#4","midi":66,"time":70.71405000000006,"velocity":0.6299212598425197,"duration":0.21249929166665993},{"name":"E4","midi":64,"time":70.92833500000005,"velocity":0.6299212598425197,"duration":0.21249929166665993},{"name":"F#4","midi":66,"time":71.14262000000004,"velocity":0.6299212598425197,"duration":0.42678429166666376},{"name":"C#4","midi":61,"time":71.57119000000003,"velocity":0.6299212598425197,"duration":0.21249929166665993},{"name":"E4","midi":64,"time":71.78547500000002,"velocity":0.6299212598425197,"duration":0.21249929166665993},{"name":"B3","midi":59,"time":71.99976000000001,"velocity":0.6299212598425197,"duration":0.42678429166666376},{"name":"F#4","midi":66,"time":71.99976000000001,"velocity":0.6299212598425197,"duration":0.42678429166666376},{"name":"F#4","midi":66,"time":72.42833,"velocity":0.6299212598425197,"duration":0.42678429166666376},{"name":"F#4","midi":66,"time":72.8569,"velocity":0.6299212598425197,"duration":0.6410692916666676},{"name":"F#4","midi":66,"time":73.499755,"velocity":0.6299212598425197,"duration":0.21249929166665993},{"name":"E4","midi":64,"time":73.71403999999998,"velocity":0.6299212598425197,"duration":0.21249929166665993},{"name":"F#4","midi":66,"time":73.92832499999997,"velocity":0.6299212598425197,"duration":0.21249929166665993},{"name":"F#4","midi":66,"time":74.14260999999996,"velocity":0.6299212598425197,"duration":0.21249929166665993},{"name":"E4","midi":64,"time":74.35689499999995,"velocity":0.6299212598425197,"duration":0.21249929166665993},{"name":"F#4","midi":66,"time":74.57117999999994,"velocity":0.6299212598425197,"duration":0.42678429166666376},{"name":"C#4","midi":61,"time":74.99974999999993,"velocity":0.6299212598425197,"duration":0.21249929166665993},{"name":"C#4","midi":61,"time":75.21403499999992,"velocity":0.6299212598425197,"duration":0.21249929166665993},{"name":"G#4","midi":68,"time":75.42831999999991,"velocity":0.6299212598425197,"duration":0.21249929166665993},{"name":"G#4","midi":68,"time":75.6426049999999,"velocity":0.6299212598425197,"duration":0.21249929166665993},{"name":"G#4","midi":68,"time":75.8568899999999,"velocity":0.6299212598425197,"duration":0.21249929166665993},{"name":"A4","midi":69,"time":76.07117499999988,"velocity":0.6299212598425197,"duration":0.21249929166665993},{"name":"G#4","midi":68,"time":76.28545999999987,"velocity":0.6299212598425197,"duration":0.21249929166665993},{"name":"E4","midi":64,"time":76.49974499999986,"velocity":0.6299212598425197,"duration":0.21249929166665993},{"name":"C#4","midi":61,"time":76.71402999999985,"velocity":0.6299212598425197,"duration":0.21249929166665993},{"name":"E4","midi":64,"time":76.92831499999984,"velocity":0.6299212598425197,"duration":0.42678429166666376},{"name":"F#4","midi":66,"time":77.35688499999983,"velocity":0.6299212598425197,"duration":1.069639291666661},{"name":"C#4","midi":61,"time":78.42830999999983,"velocity":0.6299212598425197,"duration":0.21249929166665993},{"name":"E4","midi":64,"time":78.64259499999982,"velocity":0.6299212598425197,"duration":0.21249929166665993},{"name":"G#4","midi":68,"time":78.8568799999998,"velocity":0.6299212598425197,"duration":0.21249929166665993},{"name":"G#4","midi":68,"time":79.0711649999998,"velocity":0.6299212598425197,"duration":0.21249929166665993},{"name":"G#4","midi":68,"time":79.28544999999978,"velocity":0.6299212598425197,"duration":0.21249929166665993},{"name":"A4","midi":69,"time":79.49973499999977,"velocity":0.6299212598425197,"duration":0.21249929166665993},{"name":"G#4","midi":68,"time":79.71401999999976,"velocity":0.6299212598425197,"duration":0.21249929166665993},{"name":"E4","midi":64,"time":79.92830499999975,"velocity":0.6299212598425197,"duration":0.21249929166665993},{"name":"C#4","midi":61,"time":80.14258999999974,"velocity":0.6299212598425197,"duration":0.21249929166665993},{"name":"E4","midi":64,"time":80.35687499999973,"velocity":0.6299212598425197,"duration":0.42678429166666376},{"name":"F#4","midi":66,"time":80.78544499999973,"velocity":0.6299212598425197,"duration":1.4982092916666687},{"name":"C#5","midi":73,"time":82.28543999999972,"velocity":0.6299212598425197,"duration":0.8553542916666714},{"name":"B4","midi":71,"time":83.14257999999973,"velocity":0.6299212598425197,"duration":0.42678429166666376},{"name":"C#5","midi":73,"time":83.57114999999972,"velocity":0.6299212598425197,"duration":0.21249929166665993},{"name":"F#4","midi":66,"time":83.78543499999971,"velocity":0.6299212598425197,"duration":1.9267792916666622},{"name":"C#5","midi":73,"time":85.7139999999997,"velocity":0.6299212598425197,"duration":0.8553542916666714},{"name":"B4","midi":71,"time":86.5711399999997,"velocity":0.6299212598425197,"duration":0.42678429166666376},{"name":"C#5","midi":73,"time":86.9997099999997,"velocity":0.6299212598425197,"duration":0.21249929166665993},{"name":"F#4","midi":66,"time":87.21399499999968,"velocity":0.6299212598425197,"duration":1.9267792916666622},{"name":"C#5","midi":73,"time":89.14255999999968,"velocity":0.6299212598425197,"duration":0.8553542916666714},{"name":"B4","midi":71,"time":89.99969999999968,"velocity":0.6299212598425197,"duration":0.42678429166666376},{"name":"C#5","midi":73,"time":90.42826999999967,"velocity":0.6299212598425197,"duration":0.21249929166665993},{"name":"B4","midi":71,"time":90.64255499999966,"velocity":0.6299212598425197,"duration":1.4982092916666687},{"name":"F#4","midi":66,"time":92.14254999999966,"velocity":0.6299212598425197,"duration":0.42678429166666376},{"name":"C#4","midi":61,"time":92.57111999999965,"velocity":0.6299212598425197,"duration":0.42678429166666376},{"name":"F#4","midi":66,"time":92.57111999999965,"velocity":0.6299212598425197,"duration":0.42678429166666376},{"name":"C#4","midi":61,"time":92.99968999999965,"velocity":0.6299212598425197,"duration":0.42678429166666376},{"name":"F#4","midi":66,"time":92.99968999999965,"velocity":0.6299212598425197,"duration":0.42678429166666376},{"name":"C#4","midi":61,"time":93.42825999999964,"velocity":0.6299212598425197,"duration":0.42678429166666376},{"name":"F#4","midi":66,"time":93.42825999999964,"velocity":0.6299212598425197,"duration":0.42678429166666376},{"name":"C#4","midi":61,"time":93.85682999999963,"velocity":0.6299212598425197,"duration":0.42678429166666376},{"name":"F#4","midi":66,"time":93.85682999999963,"velocity":0.6299212598425197,"duration":0.42678429166666376},{"name":"C#4","midi":61,"time":94.28539999999963,"velocity":0.6299212598425197,"duration":0.8553542916666714},{"name":"F#4","midi":66,"time":94.28539999999963,"velocity":0.6299212598425197,"duration":0.8553542916666714},{"name":"F#4","midi":66,"time":95.35682499999963,"velocity":0.6299212598425197,"duration":0.21249929166665993},{"name":"F#4","midi":66,"time":95.57110999999962,"velocity":0.6299212598425197,"duration":0.21249929166665993},{"name":"G#4","midi":68,"time":95.78539499999961,"velocity":0.6299212598425197,"duration":0.21249929166665993},{"name":"A4","midi":69,"time":95.9996799999996,"velocity":0.6299212598425197,"duration":0.21249929166665993},{"name":"G#4","midi":68,"time":96.21396499999959,"velocity":0.6299212598425197,"duration":0.21249929166665993},{"name":"F#4","midi":66,"time":96.42824999999958,"velocity":0.6299212598425197,"duration":0.21249929166665993},{"name":"A4","midi":69,"time":96.64253499999957,"velocity":0.6299212598425197,"duration":0.21249929166665993},{"name":"F#4","midi":66,"time":97.07110499999956,"velocity":0.6299212598425197,"duration":0.21249929166665993},{"name":"F#4","midi":66,"time":97.28538999999955,"velocity":0.6299212598425197,"duration":0.21249929166665993},{"name":"G#4","midi":68,"time":97.49967499999954,"velocity":0.6299212598425197,"duration":0.21249929166665993},{"name":"A4","midi":69,"time":97.71395999999953,"velocity":0.6299212598425197,"duration":0.21249929166665993},{"name":"G#4","midi":68,"time":97.92824499999952,"velocity":0.6299212598425197,"duration":0.21249929166665993},{"name":"F#4","midi":66,"time":98.14252999999951,"velocity":0.6299212598425197,"duration":0.21249929166665993},{"name":"A4","midi":69,"time":98.3568149999995,"velocity":0.6299212598425197,"duration":0.21249929166665993},{"name":"F#4","midi":66,"time":98.7853849999995,"velocity":0.6299212598425197,"duration":0.21249929166665993},{"name":"F#4","midi":66,"time":98.99966999999948,"velocity":0.6299212598425197,"duration":0.21249929166665993},{"name":"F#4","midi":66,"time":99.21395499999947,"velocity":0.6299212598425197,"duration":0.21249929166665993},{"name":"B4","midi":71,"time":99.42823999999946,"velocity":0.6299212598425197,"duration":0.21249929166665993},{"name":"B4","midi":71,"time":99.64252499999945,"velocity":0.6299212598425197,"duration":0.21249929166665993},{"name":"C#5","midi":73,"time":99.85680999999944,"velocity":0.6299212598425197,"duration":0.21249929166665993},{"name":"F#4","midi":66,"time":100.07109499999943,"velocity":0.6299212598425197,"duration":0.21249929166665993},{"name":"F#4","midi":66,"time":100.49966499999942,"velocity":0.6299212598425197,"duration":0.21249929166665993},{"name":"F#4","midi":66,"time":100.71394999999941,"velocity":0.6299212598425197,"duration":0.21249929166665993},{"name":"F#4","midi":66,"time":100.9282349999994,"velocity":0.6299212598425197,"duration":0.21249929166665993},{"name":"B4","midi":71,"time":101.1425199999994,"velocity":0.6299212598425197,"duration":0.21249929166665993},{"name":"B4","midi":71,"time":101.35680499999938,"velocity":0.6299212598425197,"duration":0.21249929166665993},{"name":"C#5","midi":73,"time":101.57108999999937,"velocity":0.6299212598425197,"duration":0.21249929166665993},{"name":"F#4","midi":66,"time":101.78537499999936,"velocity":0.6299212598425197,"duration":0.21249929166665993},{"name":"F#4","midi":66,"time":102.21394499999936,"velocity":0.6299212598425197,"duration":0.6410692916666676},{"name":"F#4","midi":66,"time":102.85679999999935,"velocity":0.6299212598425197,"duration":0.21249929166665993},{"name":"A4","midi":69,"time":102.85679999999935,"velocity":0.6299212598425197,"duration":0.21249929166665993},{"name":"G#4","midi":68,"time":103.07108499999934,"velocity":0.6299212598425197,"duration":0.21249929166665993},{"name":"F#4","midi":66,"time":103.28536999999933,"velocity":0.6299212598425197,"duration":0.21249929166665993},{"name":"A4","midi":69,"time":103.49965499999932,"velocity":0.6299212598425197,"duration":0.21249929166665993},{"name":"G#4","midi":68,"time":103.71393999999931,"velocity":0.6299212598425197,"duration":0.21249929166665993},{"name":"F#4","midi":66,"time":103.9282249999993,"velocity":0.6299212598425197,"duration":0.21249929166665993},{"name":"A4","midi":69,"time":104.14250999999929,"velocity":0.6299212598425197,"duration":0.21249929166665993},{"name":"G#4","midi":68,"time":104.35679499999928,"velocity":0.6299212598425197,"duration":0.21249929166665993},{"name":"E4","midi":64,"time":104.57107999999927,"velocity":0.6299212598425197,"duration":0.21249929166665993},{"name":"A4","midi":69,"time":104.57107999999927,"velocity":0.6299212598425197,"duration":0.21249929166665993},{"name":"G#4","midi":68,"time":104.78536499999926,"velocity":0.6299212598425197,"duration":0.21249929166665993},{"name":"E4","midi":64,"time":104.99964999999925,"velocity":0.6299212598425197,"duration":0.21249929166665993},{"name":"A4","midi":69,"time":105.21393499999924,"velocity":0.6299212598425197,"duration":0.21249929166665993},{"name":"G#4","midi":68,"time":105.42821999999923,"velocity":0.6299212598425197,"duration":0.21249929166665993},{"name":"E4","midi":64,"time":105.64250499999922,"velocity":0.6299212598425197,"duration":0.21249929166665993},{"name":"A4","midi":69,"time":105.85678999999921,"velocity":0.6299212598425197,"duration":0.21249929166665993},{"name":"G#4","midi":68,"time":106.0710749999992,"velocity":0.6299212598425197,"duration":0.21249929166665993},{"name":"E4","midi":64,"time":106.28535999999919,"velocity":0.6299212598425197,"duration":0.21249929166665993},{"name":"G#4","midi":68,"time":106.28535999999919,"velocity":0.6299212598425197,"duration":0.21249929166665993},{"name":"F#4","midi":66,"time":106.49964499999918,"velocity":0.6299212598425197,"duration":0.21249929166665993},{"name":"E4","midi":64,"time":106.71392999999917,"velocity":0.6299212598425197,"duration":0.21249929166665993},{"name":"G#4","midi":68,"time":106.92821499999916,"velocity":0.6299212598425197,"duration":0.21249929166665993},{"name":"F#4","midi":66,"time":107.14249999999915,"velocity":0.6299212598425197,"duration":0.21249929166665993},{"name":"E4","midi":64,"time":107.35678499999914,"velocity":0.6299212598425197,"duration":0.21249929166665993},{"name":"G#4","midi":68,"time":107.57106999999912,"velocity":0.6299212598425197,"duration":0.21249929166665993},{"name":"F#4","midi":66,"time":107.78535499999911,"velocity":0.6299212598425197,"duration":0.21249929166665993},{"name":"F#4","midi":66,"time":107.9996399999991,"velocity":0.6299212598425197,"duration":0.21249929166665993},{"name":"A4","midi":69,"time":107.9996399999991,"velocity":0.6299212598425197,"duration":0.21249929166665993},{"name":"G#4","midi":68,"time":108.2139249999991,"velocity":0.6299212598425197,"duration":0.21249929166665993},{"name":"F#4","midi":66,"time":108.42820999999908,"velocity":0.6299212598425197,"duration":0.21249929166665993},{"name":"A4","midi":69,"time":108.64249499999907,"velocity":0.6299212598425197,"duration":0.21249929166665993},{"name":"G#4","midi":68,"time":108.85677999999906,"velocity":0.6299212598425197,"duration":0.21249929166665993},{"name":"F#4","midi":66,"time":109.07106499999905,"velocity":0.6299212598425197,"duration":0.21249929166665993},{"name":"A4","midi":69,"time":109.71391999999905,"velocity":0.6299212598425197,"duration":0.8553542916666572},{"name":"C#5","midi":73,"time":109.82641962499905,"velocity":0.6299212598425197,"duration":0.7410689583333294},{"name":"E5","midi":76,"time":109.94070495833238,"velocity":0.6299212598425197,"duration":0.6267836250000016},{"name":"D5","midi":74,"time":110.57105999999904,"velocity":0.6299212598425197,"duration":0.42678429166666376},{"name":"C#5","midi":73,"time":110.99962999999903,"velocity":0.6299212598425197,"duration":0.21249929166665993},{"name":"C#5","midi":73,"time":111.21391499999902,"velocity":0.6299212598425197,"duration":0.42678429166666376},{"name":"A4","midi":69,"time":111.64248499999901,"velocity":0.6299212598425197,"duration":1.069639291666661},{"name":"F#4","midi":66,"time":112.713909999999,"velocity":0.6299212598425197,"duration":0.21249929166665993},{"name":"A4","midi":69,"time":112.928194999999,"velocity":0.6299212598425197,"duration":0.21249929166665993},{"name":"G#4","midi":68,"time":113.14247999999898,"velocity":0.6299212598425197,"duration":0.8553542916666572},{"name":"B4","midi":71,"time":113.25497962499898,"velocity":0.6299212598425197,"duration":0.7410689583333294},{"name":"E5","midi":76,"time":113.36926495833231,"velocity":0.6299212598425197,"duration":0.6267836250000016},{"name":"D5","midi":74,"time":113.99961999999897,"velocity":0.6299212598425197,"duration":0.42678429166666376},{"name":"C#5","midi":73,"time":114.42818999999896,"velocity":0.6299212598425197,"duration":0.21249929166665993},{"name":"C#5","midi":73,"time":114.64247499999895,"velocity":0.6299212598425197,"duration":0.42678429166666376},{"name":"B4","midi":71,"time":115.07104499999895,"velocity":0.6299212598425197,"duration":1.2839242916666649},{"name":"F#3","midi":54,"time":119.57102999999894,"velocity":0.6299212598425197,"duration":0.21249929166665993},{"name":"A3","midi":57,"time":119.78531499999893,"velocity":0.6299212598425197,"duration":0.21249929166665993},{"name":"B3","midi":59,"time":119.99959999999892,"velocity":0.6299212598425197,"duration":0.21249929166665993},{"name":"A3","midi":57,"time":120.21388499999891,"velocity":0.6299212598425197,"duration":0.21249929166665993},{"name":"B3","midi":59,"time":120.4281699999989,"velocity":0.6299212598425197,"duration":0.21249929166665993},{"name":"A3","midi":57,"time":120.64245499999889,"velocity":0.6299212598425197,"duration":0.21249929166665993},{"name":"B3","midi":59,"time":120.85673999999888,"velocity":0.6299212598425197,"duration":0.6410692916666676},{"name":"A3","midi":57,"time":121.49959499999888,"velocity":0.6299212598425197,"duration":0.21249929166665993},{"name":"B3","midi":59,"time":121.71387999999887,"velocity":0.6299212598425197,"duration":0.21249929166665993},{"name":"C#4","midi":61,"time":121.92816499999886,"velocity":0.6299212598425197,"duration":0.21249929166665993},{"name":"B3","midi":59,"time":122.14244999999885,"velocity":0.6299212598425197,"duration":0.8553542916666714},{"name":"C#4","midi":61,"time":122.99958999999885,"velocity":0.6299212598425197,"duration":0.21249929166665993},{"name":"E4","midi":64,"time":123.21387499999884,"velocity":0.6299212598425197,"duration":0.21249929166665993},{"name":"F#4","midi":66,"time":123.42815999999883,"velocity":0.6299212598425197,"duration":0.42678429166666376},{"name":"F#4","midi":66,"time":123.85672999999882,"velocity":0.6299212598425197,"duration":0.42678429166666376},{"name":"F#4","midi":66,"time":124.28529999999881,"velocity":0.6299212598425197,"duration":0.6410692916666676},{"name":"F#4","midi":66,"time":124.92815499999881,"velocity":0.6299212598425197,"duration":0.21249929166665993},{"name":"E4","midi":64,"time":125.1424399999988,"velocity":0.6299212598425197,"duration":0.21249929166665993},{"name":"F#4","midi":66,"time":125.35672499999879,"velocity":0.6299212598425197,"duration":0.21249929166665993},{"name":"F#4","midi":66,"time":125.57100999999878,"velocity":0.6299212598425197,"duration":0.21249929166665993},{"name":"E4","midi":64,"time":125.78529499999877,"velocity":0.6299212598425197,"duration":0.21249929166665993},{"name":"F#4","midi":66,"time":125.99957999999876,"velocity":0.6299212598425197,"duration":0.42678429166666376},{"name":"C#4","midi":61,"time":126.42814999999875,"velocity":0.6299212598425197,"duration":0.21249929166665993},{"name":"E4","midi":64,"time":126.64243499999874,"velocity":0.6299212598425197,"duration":0.21249929166665993},{"name":"G#3","midi":56,"time":126.85671999999873,"velocity":0.6299212598425197,"duration":0.42678429166666376},{"name":"B3","midi":59,"time":126.85671999999873,"velocity":0.6299212598425197,"duration":0.42678429166666376},{"name":"F#4","midi":66,"time":127.28528999999872,"velocity":0.6299212598425197,"duration":0.42678429166666376},{"name":"F#4","midi":66,"time":127.71385999999872,"velocity":0.6299212598425197,"duration":0.6410692916666534},{"name":"F#4","midi":66,"time":128.3567149999987,"velocity":0.6299212598425197,"duration":0.21249929166665993},{"name":"E4","midi":64,"time":128.5709999999987,"velocity":0.6299212598425197,"duration":0.21249929166665993},{"name":"F#4","midi":66,"time":128.78528499999868,"velocity":0.6299212598425197,"duration":0.21249929166665993},{"name":"F#4","midi":66,"time":128.99956999999867,"velocity":0.6299212598425197,"duration":0.21249929166665993},{"name":"E4","midi":64,"time":129.21385499999866,"velocity":0.6299212598425197,"duration":0.21249929166665993},{"name":"F#4","midi":66,"time":129.42813999999865,"velocity":0.6299212598425197,"duration":0.426784291666678},{"name":"C#4","midi":61,"time":129.85670999999866,"velocity":0.6299212598425197,"duration":0.21249929166665993},{"name":"C#4","midi":61,"time":130.07099499999865,"velocity":0.6299212598425197,"duration":0.21249929166665993},{"name":"G#4","midi":68,"time":130.28527999999864,"velocity":0.6299212598425197,"duration":0.21249929166665993},{"name":"G#4","midi":68,"time":130.49956499999863,"velocity":0.6299212598425197,"duration":0.21249929166665993},{"name":"G#4","midi":68,"time":130.71384999999862,"velocity":0.6299212598425197,"duration":0.21249929166665993},{"name":"G#4","midi":68,"time":130.9281349999986,"velocity":0.6299212598425197,"duration":0.21249929166665993},{"name":"G#4","midi":68,"time":131.1424199999986,"velocity":0.6299212598425197,"duration":0.21249929166665993},{"name":"E4","midi":64,"time":131.35670499999858,"velocity":0.6299212598425197,"duration":0.21249929166665993},{"name":"C#4","midi":61,"time":131.57098999999857,"velocity":0.6299212598425197,"duration":0.21249929166665993},{"name":"E4","midi":64,"time":131.78527499999856,"velocity":0.6299212598425197,"duration":0.426784291666678},{"name":"F#4","midi":66,"time":132.21384499999857,"velocity":0.6299212598425197,"duration":1.0696392916666753},{"name":"C#4","midi":61,"time":133.28526999999858,"velocity":0.6299212598425197,"duration":0.21249929166665993},{"name":"E4","midi":64,"time":133.49955499999857,"velocity":0.6299212598425197,"duration":0.21249929166665993},{"name":"G#4","midi":68,"time":133.71383999999856,"velocity":0.6299212598425197,"duration":0.21249929166665993},{"name":"G#4","midi":68,"time":133.92812499999854,"velocity":0.6299212598425197,"duration":0.21249929166665993},{"name":"G#4","midi":68,"time":134.14240999999853,"velocity":0.6299212598425197,"duration":0.21249929166665993},{"name":"A4","midi":69,"time":134.35669499999852,"velocity":0.6299212598425197,"duration":0.21249929166665993},{"name":"G#4","midi":68,"time":134.5709799999985,"velocity":0.6299212598425197,"duration":0.21249929166665993},{"name":"E4","midi":64,"time":134.7852649999985,"velocity":0.6299212598425197,"duration":0.21249929166665993},{"name":"C#4","midi":61,"time":134.9995499999985,"velocity":0.6299212598425197,"duration":0.21249929166665993},{"name":"E4","midi":64,"time":135.21383499999848,"velocity":0.6299212598425197,"duration":0.426784291666678},{"name":"F#4","midi":66,"time":135.6424049999985,"velocity":0.6299212598425197,"duration":1.0696392916666753},{"name":"C#4","midi":61,"time":136.7138299999985,"velocity":0.6299212598425197,"duration":0.21249929166665993},{"name":"E4","midi":64,"time":136.92811499999848,"velocity":0.6299212598425197,"duration":0.21249929166665993},{"name":"F#4","midi":66,"time":137.14239999999847,"velocity":0.6299212598425197,"duration":0.426784291666678},{"name":"F#4","midi":66,"time":137.57096999999848,"velocity":0.6299212598425197,"duration":0.426784291666678},{"name":"F#4","midi":66,"time":137.9995399999985,"velocity":0.6299212598425197,"duration":0.6410692916666676},{"name":"F#4","midi":66,"time":138.6423949999985,"velocity":0.6299212598425197,"duration":0.21249929166665993},{"name":"E4","midi":64,"time":138.85667999999848,"velocity":0.6299212598425197,"duration":0.21249929166665993},{"name":"F#4","midi":66,"time":139.07096499999847,"velocity":0.6299212598425197,"duration":0.21249929166665993},{"name":"F#4","midi":66,"time":139.28524999999846,"velocity":0.6299212598425197,"duration":0.21249929166665993},{"name":"E4","midi":64,"time":139.49953499999845,"velocity":0.6299212598425197,"duration":0.21249929166665993},{"name":"F#4","midi":66,"time":139.71381999999844,"velocity":0.6299212598425197,"duration":0.426784291666678},{"name":"C#4","midi":61,"time":140.14238999999844,"velocity":0.6299212598425197,"duration":0.21249929166665993},{"name":"E4","midi":64,"time":140.35667499999843,"velocity":0.6299212598425197,"duration":0.21249929166665993},{"name":"B3","midi":59,"time":140.57095999999842,"velocity":0.6299212598425197,"duration":0.426784291666678},{"name":"F#4","midi":66,"time":140.57095999999842,"velocity":0.6299212598425197,"duration":0.426784291666678},{"name":"F#4","midi":66,"time":140.99952999999843,"velocity":0.6299212598425197,"duration":0.426784291666678},{"name":"F#4","midi":66,"time":141.42809999999844,"velocity":0.6299212598425197,"duration":0.6410692916666676},{"name":"F#4","midi":66,"time":142.07095499999843,"velocity":0.6299212598425197,"duration":0.21249929166665993},{"name":"E4","midi":64,"time":142.28523999999842,"velocity":0.6299212598425197,"duration":0.21249929166665993},{"name":"F#4","midi":66,"time":142.4995249999984,"velocity":0.6299212598425197,"duration":0.21249929166665993},{"name":"F#4","midi":66,"time":142.7138099999984,"velocity":0.6299212598425197,"duration":0.21249929166665993},{"name":"E4","midi":64,"time":142.9280949999984,"velocity":0.6299212598425197,"duration":0.21249929166665993},{"name":"F#4","midi":66,"time":143.14237999999838,"velocity":0.6299212598425197,"duration":0.426784291666678},{"name":"C#4","midi":61,"time":143.5709499999984,"velocity":0.6299212598425197,"duration":0.21249929166665993},{"name":"C#4","midi":61,"time":143.78523499999838,"velocity":0.6299212598425197,"duration":0.21249929166665993},{"name":"C#4","midi":61,"time":143.99951999999837,"velocity":0.6299212598425197,"duration":0.21249929166665993},{"name":"G#4","midi":68,"time":143.99951999999837,"velocity":0.6299212598425197,"duration":0.21249929166665993},{"name":"G#4","midi":68,"time":144.21380499999836,"velocity":0.6299212598425197,"duration":0.21249929166665993},{"name":"G#4","midi":68,"time":144.42808999999835,"velocity":0.6299212598425197,"duration":0.21249929166665993},{"name":"A4","midi":69,"time":144.64237499999834,"velocity":0.6299212598425197,"duration":0.21249929166665993},{"name":"G#4","midi":68,"time":144.85665999999833,"velocity":0.6299212598425197,"duration":0.21249929166665993},{"name":"E4","midi":64,"time":145.07094499999832,"velocity":0.6299212598425197,"duration":0.21249929166665993},{"name":"C#4","midi":61,"time":145.2852299999983,"velocity":0.6299212598425197,"duration":0.21249929166665993},{"name":"E4","midi":64,"time":145.4995149999983,"velocity":0.6299212598425197,"duration":0.426784291666678},{"name":"F#4","midi":66,"time":145.9280849999983,"velocity":0.6299212598425197,"duration":1.0696392916666753},{"name":"C#4","midi":61,"time":146.9995099999983,"velocity":0.6299212598425197,"duration":0.21249929166665993},{"name":"E4","midi":64,"time":147.2137949999983,"velocity":0.6299212598425197,"duration":0.21249929166665993},{"name":"C#4","midi":61,"time":147.4280799999983,"velocity":0.6299212598425197,"duration":0.21249929166665993},{"name":"G#4","midi":68,"time":147.4280799999983,"velocity":0.6299212598425197,"duration":0.21249929166665993},{"name":"G#4","midi":68,"time":147.64236499999828,"velocity":0.6299212598425197,"duration":0.21249929166665993},{"name":"G#4","midi":68,"time":147.85664999999827,"velocity":0.6299212598425197,"duration":0.21249929166665993},{"name":"A4","midi":69,"time":148.07093499999826,"velocity":0.6299212598425197,"duration":0.21249929166665993},{"name":"G#4","midi":68,"time":148.28521999999825,"velocity":0.6299212598425197,"duration":0.21249929166665993},{"name":"E4","midi":64,"time":148.49950499999824,"velocity":0.6299212598425197,"duration":0.21249929166665993},{"name":"C#4","midi":61,"time":148.71378999999823,"velocity":0.6299212598425197,"duration":0.21249929166665993},{"name":"E4","midi":64,"time":148.92807499999822,"velocity":0.6299212598425197,"duration":0.426784291666678},{"name":"F#4","midi":66,"time":149.35664499999822,"velocity":0.6299212598425197,"duration":1.4982092916666545},{"name":"B4","midi":71,"time":157.71375999999822,"velocity":0.6299212598425197,"duration":0.21249929166665993},{"name":"A4","midi":69,"time":157.9280449999982,"velocity":0.6299212598425197,"duration":0.21249929166665993},{"name":"B4","midi":71,"time":158.1423299999982,"velocity":0.6299212598425197,"duration":0.21249929166665993},{"name":"C#5","midi":73,"time":158.3566149999982,"velocity":0.6299212598425197,"duration":0.21249929166665993},{"name":"B4","midi":71,"time":158.57089999999818,"velocity":0.6299212598425197,"duration":0.6410692916666676},{"name":"E4","midi":64,"time":159.21375499999817,"velocity":0.6299212598425197,"duration":0.21249929166665993},{"name":"B4","midi":71,"time":159.42803999999816,"velocity":0.6299212598425197,"duration":0.21249929166665993},{"name":"A4","midi":69,"time":159.64232499999815,"velocity":0.6299212598425197,"duration":0.21249929166665993},{"name":"B4","midi":71,"time":159.85660999999814,"velocity":0.6299212598425197,"duration":0.21249929166665993},{"name":"C#5","midi":73,"time":160.07089499999813,"velocity":0.6299212598425197,"duration":0.21249929166665993},{"name":"B4","midi":71,"time":160.28517999999812,"velocity":0.6299212598425197,"duration":0.6410692916666676},{"name":"E4","midi":64,"time":160.92803499999812,"velocity":0.6299212598425197,"duration":0.21249929166665993},{"name":"A4","midi":69,"time":161.1423199999981,"velocity":0.6299212598425197,"duration":0.21249929166665993},{"name":"F#4","midi":66,"time":161.3566049999981,"velocity":0.6299212598425197,"duration":0.21249929166665993},{"name":"A4","midi":69,"time":161.5708899999981,"velocity":0.6299212598425197,"duration":0.21249929166665993},{"name":"F#4","midi":66,"time":161.78517499999808,"velocity":0.6299212598425197,"duration":0.21249929166665993},{"name":"A4","midi":69,"time":161.99945999999807,"velocity":0.6299212598425197,"duration":0.426784291666678},{"name":"E5","midi":76,"time":162.42802999999807,"velocity":0.6299212598425197,"duration":0.426784291666678},{"name":"E5","midi":76,"time":162.85659999999808,"velocity":0.6299212598425197,"duration":0.21249929166665993},{"name":"D5","midi":74,"time":163.07088499999807,"velocity":0.6299212598425197,"duration":0.21249929166665993},{"name":"C#5","midi":73,"time":163.28516999999806,"velocity":0.6299212598425197,"duration":0.21249929166665993},{"name":"D5","midi":74,"time":163.49945499999805,"velocity":0.6299212598425197,"duration":0.21249929166665993},{"name":"C#5","midi":73,"time":163.71373999999804,"velocity":0.6299212598425197,"duration":0.426784291666678},{"name":"B4","midi":71,"time":164.14230999999805,"velocity":0.6299212598425197,"duration":0.21249929166665993},{"name":"A4","midi":69,"time":164.35659499999804,"velocity":0.6299212598425197,"duration":0.21249929166665993},{"name":"A4","midi":69,"time":171.42799999999804,"velocity":0.6299212598425197,"duration":0.2839276249999898},{"name":"B4","midi":71,"time":171.71371333333136,"velocity":0.6299212598425197,"duration":0.2839276249999898},{"name":"C#5","midi":73,"time":171.99942666666468,"velocity":0.6299212598425197,"duration":0.2839276249999898},{"name":"C#5","midi":73,"time":172.285139999998,"velocity":0.6299212598425197,"duration":0.6410692916666676},{"name":"F#4","midi":66,"time":172.927994999998,"velocity":0.6299212598425197,"duration":0.21249929166665993},{"name":"C#5","midi":73,"time":174.85655999999798,"velocity":0.6299212598425197,"duration":0.426784291666678},{"name":"C#5","midi":73,"time":175.285129999998,"velocity":0.6299212598425197,"duration":0.426784291666678},{"name":"C#5","midi":73,"time":175.713699999998,"velocity":0.6299212598425197,"duration":0.426784291666678},{"name":"D5","midi":74,"time":176.142269999998,"velocity":0.6299212598425197,"duration":0.426784291666678},{"name":"E5","midi":76,"time":176.57083999999801,"velocity":0.6299212598425197,"duration":1.2839242916666649},{"name":"C#5","midi":73,"time":177.856549999998,"velocity":0.6299212598425197,"duration":0.21249929166665993},{"name":"E5","midi":76,"time":178.070834999998,"velocity":0.6299212598425197,"duration":0.21249929166665993},{"name":"F#4","midi":66,"time":178.285119999998,"velocity":0.6299212598425197,"duration":0.426784291666678},{"name":"C#5","midi":73,"time":178.285119999998,"velocity":0.6299212598425197,"duration":0.426784291666678},{"name":"F#4","midi":66,"time":178.713689999998,"velocity":0.6299212598425197,"duration":0.426784291666678},{"name":"C#5","midi":73,"time":178.713689999998,"velocity":0.6299212598425197,"duration":0.426784291666678},{"name":"F#4","midi":66,"time":179.142259999998,"velocity":0.6299212598425197,"duration":0.6410692916666676},{"name":"C#5","midi":73,"time":179.142259999998,"velocity":0.6299212598425197,"duration":0.6410692916666676},{"name":"F#5","midi":78,"time":179.785114999998,"velocity":0.6299212598425197,"duration":0.21249929166665993},{"name":"C#5","midi":73,"time":179.999399999998,"velocity":0.6299212598425197,"duration":0.21249929166665993},{"name":"E5","midi":76,"time":179.999399999998,"velocity":0.6299212598425197,"duration":0.21249929166665993},{"name":"F#5","midi":78,"time":180.21368499999798,"velocity":0.6299212598425197,"duration":0.21249929166665993},{"name":"F#5","midi":78,"time":180.42796999999797,"velocity":0.6299212598425197,"duration":0.21249929166665993},{"name":"E5","midi":76,"time":180.64225499999796,"velocity":0.6299212598425197,"duration":0.21249929166665993},{"name":"F#5","midi":78,"time":180.85653999999795,"velocity":0.6299212598425197,"duration":0.426784291666678},{"name":"C#5","midi":73,"time":181.28510999999796,"velocity":0.6299212598425197,"duration":0.21249929166665993},{"name":"E5","midi":76,"time":181.49939499999795,"velocity":0.6299212598425197,"duration":0.21249929166665993},{"name":"F#4","midi":66,"time":181.71367999999794,"velocity":0.6299212598425197,"duration":0.426784291666678},{"name":"A4","midi":69,"time":181.71367999999794,"velocity":0.6299212598425197,"duration":0.426784291666678},{"name":"F#4","midi":66,"time":182.14224999999794,"velocity":0.6299212598425197,"duration":0.426784291666678},{"name":"A4","midi":69,"time":182.14224999999794,"velocity":0.6299212598425197,"duration":0.426784291666678},{"name":"F#4","midi":66,"time":182.57081999999795,"velocity":0.6299212598425197,"duration":0.6410692916666676},{"name":"A4","midi":69,"time":182.57081999999795,"velocity":0.6299212598425197,"duration":0.6410692916666676},{"name":"F#5","midi":78,"time":183.21367499999795,"velocity":0.6299212598425197,"duration":0.21249929166665993},{"name":"C#5","midi":73,"time":183.42795999999794,"velocity":0.6299212598425197,"duration":0.21249929166665993},{"name":"E5","midi":76,"time":183.42795999999794,"velocity":0.6299212598425197,"duration":0.21249929166665993},{"name":"F#5","midi":78,"time":183.64224499999793,"velocity":0.6299212598425197,"duration":0.21249929166665993},{"name":"F#5","midi":78,"time":183.85652999999792,"velocity":0.6299212598425197,"duration":0.21249929166665993},{"name":"E5","midi":76,"time":184.0708149999979,"velocity":0.6299212598425197,"duration":0.21249929166665993},{"name":"F#5","midi":78,"time":184.2850999999979,"velocity":0.6299212598425197,"duration":0.426784291666678},{"name":"C#5","midi":73,"time":184.7136699999979,"velocity":0.6299212598425197,"duration":0.21249929166665993},{"name":"C#5","midi":73,"time":184.9279549999979,"velocity":0.6299212598425197,"duration":0.21249929166665993},{"name":"G#4","midi":68,"time":185.14223999999788,"velocity":0.6299212598425197,"duration":0.21249929166665993},{"name":"G#4","midi":68,"time":185.35652499999787,"velocity":0.6299212598425197,"duration":0.21249929166665993},{"name":"G#4","midi":68,"time":185.57080999999786,"velocity":0.6299212598425197,"duration":0.21249929166665993},{"name":"G#4","midi":68,"time":185.78509499999785,"velocity":0.6299212598425197,"duration":0.21249929166665993},{"name":"G#4","midi":68,"time":185.99937999999784,"velocity":0.6299212598425197,"duration":0.21249929166665993},{"name":"E4","midi":64,"time":186.21366499999783,"velocity":0.6299212598425197,"duration":0.21249929166665993},{"name":"C#4","midi":61,"time":186.42794999999782,"velocity":0.6299212598425197,"duration":0.21249929166665993},{"name":"E4","midi":64,"time":186.6422349999978,"velocity":0.6299212598425197,"duration":0.426784291666678},{"name":"F#4","midi":66,"time":187.07080499999782,"velocity":0.6299212598425197,"duration":0.6410692916666676},{"name":"F#4","midi":66,"time":187.71365999999782,"velocity":0.6299212598425197,"duration":0.426784291666678},{"name":"C#4","midi":61,"time":188.14222999999782,"velocity":0.6299212598425197,"duration":0.21249929166665993},{"name":"E4","midi":64,"time":188.3565149999978,"velocity":0.6299212598425197,"duration":0.21249929166665993},{"name":"G#4","midi":68,"time":188.5707999999978,"velocity":0.6299212598425197,"duration":0.21249929166665993},{"name":"G#4","midi":68,"time":188.7850849999978,"velocity":0.6299212598425197,"duration":0.21249929166665993},{"name":"G#4","midi":68,"time":188.99936999999778,"velocity":0.6299212598425197,"duration":0.21249929166665993},{"name":"A4","midi":69,"time":189.21365499999777,"velocity":0.6299212598425197,"duration":0.21249929166665993},{"name":"G#4","midi":68,"time":189.42793999999776,"velocity":0.6299212598425197,"duration":0.21249929166665993},{"name":"E4","midi":64,"time":189.64222499999775,"velocity":0.6299212598425197,"duration":0.21249929166665993},{"name":"C#4","midi":61,"time":189.85650999999774,"velocity":0.6299212598425197,"duration":0.21249929166665993},{"name":"E4","midi":64,"time":190.07079499999773,"velocity":0.6299212598425197,"duration":0.426784291666678},{"name":"F#4","midi":66,"time":190.49936499999774,"velocity":0.6299212598425197,"duration":1.0696392916666753},{"name":"C#5","midi":73,"time":191.57078999999774,"velocity":0.6299212598425197,"duration":0.21249929166665993},{"name":"E5","midi":76,"time":191.78507499999773,"velocity":0.6299212598425197,"duration":0.21249929166665993},{"name":"F#4","midi":66,"time":191.99935999999772,"velocity":0.6299212598425197,"duration":0.426784291666678},{"name":"C#5","midi":73,"time":191.99935999999772,"velocity":0.6299212598425197,"duration":0.426784291666678},{"name":"F#4","midi":66,"time":192.42792999999773,"velocity":0.6299212598425197,"duration":0.426784291666678},{"name":"C#5","midi":73,"time":192.42792999999773,"velocity":0.6299212598425197,"duration":0.426784291666678},{"name":"F#4","midi":66,"time":192.85649999999774,"velocity":0.6299212598425197,"duration":0.6410692916666676},{"name":"C#5","midi":73,"time":192.85649999999774,"velocity":0.6299212598425197,"duration":0.6410692916666676},{"name":"F#5","midi":78,"time":193.49935499999773,"velocity":0.6299212598425197,"duration":0.21249929166665993},{"name":"C#5","midi":73,"time":193.71363999999772,"velocity":0.6299212598425197,"duration":0.21249929166665993},{"name":"E5","midi":76,"time":193.71363999999772,"velocity":0.6299212598425197,"duration":0.21249929166665993},{"name":"F#5","midi":78,"time":193.9279249999977,"velocity":0.6299212598425197,"duration":0.21249929166665993},{"name":"F#5","midi":78,"time":194.1422099999977,"velocity":0.6299212598425197,"duration":0.21249929166665993},{"name":"E5","midi":76,"time":194.3564949999977,"velocity":0.6299212598425197,"duration":0.21249929166665993},{"name":"F#5","midi":78,"time":194.57077999999768,"velocity":0.6299212598425197,"duration":0.426784291666678},{"name":"C#5","midi":73,"time":194.9993499999977,"velocity":0.6299212598425197,"duration":0.21249929166665993},{"name":"E5","midi":76,"time":195.21363499999768,"velocity":0.6299212598425197,"duration":0.21249929166665993},{"name":"F#4","midi":66,"time":195.42791999999767,"velocity":0.6299212598425197,"duration":0.426784291666678},{"name":"A4","midi":69,"time":195.42791999999767,"velocity":0.6299212598425197,"duration":0.426784291666678},{"name":"F#4","midi":66,"time":195.85648999999768,"velocity":0.6299212598425197,"duration":0.426784291666678},{"name":"A4","midi":69,"time":195.85648999999768,"velocity":0.6299212598425197,"duration":0.426784291666678},{"name":"F#4","midi":66,"time":196.28505999999769,"velocity":0.6299212598425197,"duration":0.6410692916666676},{"name":"A4","midi":69,"time":196.28505999999769,"velocity":0.6299212598425197,"duration":0.6410692916666676},{"name":"F#5","midi":78,"time":196.92791499999768,"velocity":0.6299212598425197,"duration":0.21249929166665993},{"name":"C#5","midi":73,"time":197.14219999999767,"velocity":0.6299212598425197,"duration":0.21249929166665993},{"name":"E5","midi":76,"time":197.14219999999767,"velocity":0.6299212598425197,"duration":0.21249929166665993},{"name":"F#5","midi":78,"time":197.35648499999766,"velocity":0.6299212598425197,"duration":0.21249929166665993},{"name":"F#5","midi":78,"time":197.57076999999765,"velocity":0.6299212598425197,"duration":0.21249929166665993},{"name":"E5","midi":76,"time":197.78505499999764,"velocity":0.6299212598425197,"duration":0.21249929166665993},{"name":"F#5","midi":78,"time":197.99933999999763,"velocity":0.6299212598425197,"duration":0.426784291666678},{"name":"C#5","midi":73,"time":198.42790999999764,"velocity":0.6299212598425197,"duration":0.21249929166665993},{"name":"C#5","midi":73,"time":198.64219499999763,"velocity":0.6299212598425197,"duration":0.21249929166665993},{"name":"G#4","midi":68,"time":198.85647999999762,"velocity":0.6299212598425197,"duration":0.21249929166665993},{"name":"G#4","midi":68,"time":199.0707649999976,"velocity":0.6299212598425197,"duration":0.21249929166665993},{"name":"G#4","midi":68,"time":199.2850499999976,"velocity":0.6299212598425197,"duration":0.21249929166665993},{"name":"G#4","midi":68,"time":199.4993349999976,"velocity":0.6299212598425197,"duration":0.21249929166665993},{"name":"G#4","midi":68,"time":199.71361999999758,"velocity":0.6299212598425197,"duration":0.21249929166665993},{"name":"E4","midi":64,"time":199.92790499999757,"velocity":0.6299212598425197,"duration":0.21249929166665993},{"name":"C#4","midi":61,"time":200.14218999999756,"velocity":0.6299212598425197,"duration":0.21249929166665993},{"name":"E4","midi":64,"time":200.35647499999754,"velocity":0.6299212598425197,"duration":0.426784291666678},{"name":"F#4","midi":66,"time":200.78504499999755,"velocity":0.6299212598425197,"duration":1.0696392916666753},{"name":"C#4","midi":61,"time":201.85646999999756,"velocity":0.6299212598425197,"duration":0.21249929166665993},{"name":"E4","midi":64,"time":202.07075499999755,"velocity":0.6299212598425197,"duration":0.21249929166665993},{"name":"G#4","midi":68,"time":202.28503999999754,"velocity":0.6299212598425197,"duration":0.21249929166665993},{"name":"G#4","midi":68,"time":202.49932499999753,"velocity":0.6299212598425197,"duration":0.21249929166665993},{"name":"G#4","midi":68,"time":202.71360999999752,"velocity":0.6299212598425197,"duration":0.21249929166665993},{"name":"A4","midi":69,"time":202.9278949999975,"velocity":0.6299212598425197,"duration":0.21249929166665993},{"name":"G#4","midi":68,"time":203.1421799999975,"velocity":0.6299212598425197,"duration":0.21249929166665993},{"name":"E4","midi":64,"time":203.35646499999748,"velocity":0.6299212598425197,"duration":0.21249929166665993},{"name":"C#4","midi":61,"time":203.57074999999747,"velocity":0.6299212598425197,"duration":0.21249929166665993},{"name":"E4","midi":64,"time":203.78503499999746,"velocity":0.6299212598425197,"duration":0.426784291666678},{"name":"F#4","midi":66,"time":204.21360499999747,"velocity":0.6299212598425197,"duration":1.0696392916666753},{"name":"F#4","midi":66,"time":205.28502999999748,"velocity":0.6299212598425197,"duration":0.426784291666678},{"name":"C#5","midi":73,"time":205.71359999999748,"velocity":0.6299212598425197,"duration":0.8553542916666572},{"name":"B4","midi":71,"time":206.57073999999747,"velocity":0.6299212598425197,"duration":0.426784291666678},{"name":"C#5","midi":73,"time":206.99930999999748,"velocity":0.6299212598425197,"duration":0.21249929166665993},{"name":"F#4","midi":66,"time":207.21359499999747,"velocity":0.6299212598425197,"duration":1.9267792916666622},{"name":"C#5","midi":73,"time":209.14215999999746,"velocity":0.6299212598425197,"duration":0.8553542916666572},{"name":"B4","midi":71,"time":209.99929999999745,"velocity":0.6299212598425197,"duration":0.426784291666678},{"name":"C#5","midi":73,"time":210.42786999999745,"velocity":0.6299212598425197,"duration":0.21249929166665993},{"name":"F#4","midi":66,"time":210.64215499999744,"velocity":0.6299212598425197,"duration":1.9267792916666622},{"name":"C#5","midi":73,"time":212.57071999999744,"velocity":0.6299212598425197,"duration":0.8553542916666572},{"name":"B4","midi":71,"time":213.42785999999742,"velocity":0.6299212598425197,"duration":0.426784291666678},{"name":"C#5","midi":73,"time":213.85642999999743,"velocity":0.6299212598425197,"duration":0.21249929166665993},{"name":"B4","midi":71,"time":214.07071499999742,"velocity":0.6299212598425197,"duration":1.9267792916666622},{"name":"F#4","midi":66,"time":216.2135649999974,"velocity":0.6299212598425197,"duration":0.21249929166665993},{"name":"A4","midi":69,"time":216.4278499999974,"velocity":0.6299212598425197,"duration":0.21249929166665993},{"name":"F#4","midi":66,"time":216.64213499999738,"velocity":0.6299212598425197,"duration":0.21249929166665993},{"name":"F#4","midi":66,"time":217.07070499999736,"velocity":0.6299212598425197,"duration":0.21249929166665993},{"name":"A4","midi":69,"time":217.28498999999735,"velocity":0.6299212598425197,"duration":0.21249929166665993},{"name":"F#4","midi":66,"time":217.49927499999734,"velocity":0.6299212598425197,"duration":0.21249929166665993},{"name":"F#4","midi":66,"time":217.92784499999732,"velocity":0.6299212598425197,"duration":0.21249929166665993},{"name":"A4","midi":69,"time":218.1421299999973,"velocity":0.6299212598425197,"duration":0.21249929166665993},{"name":"F#4","midi":66,"time":218.3564149999973,"velocity":0.6299212598425197,"duration":0.21249929166665993},{"name":"B4","midi":71,"time":218.5706999999973,"velocity":0.6299212598425197,"duration":0.426784291666678},{"name":"A4","midi":69,"time":218.9992699999973,"velocity":0.6299212598425197,"duration":3.855344291666654}]},{"instrument_number":0,"notes":[{"name":"D4","midi":62,"time":0,"velocity":0.6299212598425197,"duration":3.2553462916666667},{"name":"F#4","midi":66,"time":0,"velocity":0.6299212598425197,"duration":3.2553462916666667},{"name":"A4","midi":69,"time":0,"velocity":0.6299212598425197,"duration":3.2553462916666667},{"name":"E4","midi":64,"time":3.42856,"velocity":0.6299212598425197,"duration":3.2553462916666662},{"name":"G#4","midi":68,"time":3.42856,"velocity":0.6299212598425197,"duration":3.2553462916666662},{"name":"B4","midi":71,"time":3.42856,"velocity":0.6299212598425197,"duration":3.2553462916666662},{"name":"C#4","midi":61,"time":6.857119999999999,"velocity":0.6299212598425197,"duration":3.2553462916666662},{"name":"E4","midi":64,"time":6.857119999999999,"velocity":0.6299212598425197,"duration":3.2553462916666662},{"name":"G#4","midi":68,"time":6.857119999999999,"velocity":0.6299212598425197,"duration":3.2553462916666662},{"name":"F#3","midi":54,"time":10.28568,"velocity":0.6299212598425197,"duration":3.255346291666667},{"name":"A3","midi":57,"time":10.28568,"velocity":0.6299212598425197,"duration":3.255346291666667},{"name":"C#4","midi":61,"time":10.28568,"velocity":0.6299212598425197,"duration":3.255346291666667},{"name":"D2","midi":38,"time":13.71424,"velocity":0.6299212598425197,"duration":0.20178504166666755},{"name":"A2","midi":45,"time":13.928525,"velocity":0.6299212598425197,"duration":0.20178504166666755},{"name":"D3","midi":50,"time":14.14281,"velocity":0.6299212598425197,"duration":0.20178504166666755},{"name":"A2","midi":45,"time":14.357095000000001,"velocity":0.6299212598425197,"duration":0.20178504166666755},{"name":"F#3","midi":54,"time":14.571380000000001,"velocity":0.6299212598425197,"duration":0.20178504166666755},{"name":"A2","midi":45,"time":14.785665000000002,"velocity":0.6299212598425197,"duration":0.20178504166666755},{"name":"D3","midi":50,"time":14.999950000000002,"velocity":0.6299212598425197,"duration":0.20178504166666755},{"name":"A2","midi":45,"time":15.214235000000002,"velocity":0.6299212598425197,"duration":0.20178504166666755},{"name":"E2","midi":40,"time":15.428520000000002,"velocity":0.6299212598425197,"duration":0.20178504166666755},{"name":"B2","midi":47,"time":15.642805000000003,"velocity":0.6299212598425197,"duration":0.20178504166666755},{"name":"E3","midi":52,"time":15.857090000000003,"velocity":0.6299212598425197,"duration":0.20178504166666755},{"name":"B2","midi":47,"time":16.071375000000003,"velocity":0.6299212598425197,"duration":0.20178504166666755},{"name":"G#3","midi":56,"time":16.285660000000004,"velocity":0.6299212598425197,"duration":0.20178504166666755},{"name":"B2","midi":47,"time":16.499945000000004,"velocity":0.6299212598425197,"duration":0.20178504166666755},{"name":"E3","midi":52,"time":16.714230000000004,"velocity":0.6299212598425197,"duration":0.20178504166666755},{"name":"B2","midi":47,"time":16.928515000000004,"velocity":0.6299212598425197,"duration":0.20178504166666755},{"name":"F#2","midi":42,"time":17.142800000000005,"velocity":0.6299212598425197,"duration":0.20178504166666755},{"name":"C#3","midi":49,"time":17.357085000000005,"velocity":0.6299212598425197,"duration":0.20178504166666755},{"name":"F#3","midi":54,"time":17.571370000000005,"velocity":0.6299212598425197,"duration":0.20178504166666755},{"name":"C#3","midi":49,"time":17.785655000000006,"velocity":0.6299212598425197,"duration":0.20178504166666755},{"name":"A3","midi":57,"time":17.999940000000006,"velocity":0.6299212598425197,"duration":0.20178504166666755},{"name":"C#3","midi":49,"time":18.214225000000006,"velocity":0.6299212598425197,"duration":0.20178504166666755},{"name":"F#3","midi":54,"time":18.428510000000006,"velocity":0.6299212598425197,"duration":0.20178504166666755},{"name":"C#3","midi":49,"time":18.642795000000007,"velocity":0.6299212598425197,"duration":0.20178504166666755},{"name":"F#2","midi":42,"time":18.857080000000007,"velocity":0.6299212598425197,"duration":0.20178504166666755},{"name":"C#3","midi":49,"time":19.071365000000007,"velocity":0.6299212598425197,"duration":0.20178504166666755},{"name":"F#3","midi":54,"time":19.285650000000008,"velocity":0.6299212598425197,"duration":0.20178504166666755},{"name":"C#3","midi":49,"time":19.499935000000008,"velocity":0.6299212598425197,"duration":0.20178504166666755},{"name":"A3","midi":57,"time":19.714220000000008,"velocity":0.6299212598425197,"duration":0.20178504166666755},{"name":"C#3","midi":49,"time":19.92850500000001,"velocity":0.6299212598425197,"duration":0.20178504166666755},{"name":"F#3","midi":54,"time":20.14279000000001,"velocity":0.6299212598425197,"duration":0.20178504166666755},{"name":"C#3","midi":49,"time":20.35707500000001,"velocity":0.6299212598425197,"duration":0.20178504166666755},{"name":"D2","midi":38,"time":20.57136000000001,"velocity":0.6299212598425197,"duration":0.20178504166666755},{"name":"A2","midi":45,"time":20.57136000000001,"velocity":0.6299212598425197,"duration":0.20178504166666755},{"name":"D3","midi":50,"time":20.57136000000001,"velocity":0.6299212598425197,"duration":0.20178504166666755},{"name":"A2","midi":45,"time":20.78564500000001,"velocity":0.6299212598425197,"duration":0.20178504166666755},{"name":"D3","midi":50,"time":20.78564500000001,"velocity":0.6299212598425197,"duration":0.20178504166666755},{"name":"A2","midi":45,"time":20.99993000000001,"velocity":0.6299212598425197,"duration":0.20178504166666755},{"name":"D3","midi":50,"time":20.99993000000001,"velocity":0.6299212598425197,"duration":0.20178504166666755},{"name":"A2","midi":45,"time":21.21421500000001,"velocity":0.6299212598425197,"duration":0.20178504166666755},{"name":"D3","midi":50,"time":21.21421500000001,"velocity":0.6299212598425197,"duration":0.20178504166666755},{"name":"A2","midi":45,"time":21.42850000000001,"velocity":0.6299212598425197,"duration":0.20178504166666755},{"name":"D3","midi":50,"time":21.42850000000001,"velocity":0.6299212598425197,"duration":0.20178504166666755},{"name":"A2","midi":45,"time":21.64278500000001,"velocity":0.6299212598425197,"duration":0.20178504166666755},{"name":"D3","midi":50,"time":21.64278500000001,"velocity":0.6299212598425197,"duration":0.20178504166666755},{"name":"A2","midi":45,"time":21.85707000000001,"velocity":0.6299212598425197,"duration":0.20178504166666755},{"name":"D3","midi":50,"time":21.85707000000001,"velocity":0.6299212598425197,"duration":0.20178504166666755},{"name":"A2","midi":45,"time":22.07135500000001,"velocity":0.6299212598425197,"duration":0.20178504166666755},{"name":"D3","midi":50,"time":22.07135500000001,"velocity":0.6299212598425197,"duration":0.20178504166666755},{"name":"E2","midi":40,"time":22.28564000000001,"velocity":0.6299212598425197,"duration":0.20178504166666755},{"name":"B2","midi":47,"time":22.28564000000001,"velocity":0.6299212598425197,"duration":0.20178504166666755},{"name":"E3","midi":52,"time":22.28564000000001,"velocity":0.6299212598425197,"duration":0.20178504166666755},{"name":"B2","midi":47,"time":22.49992500000001,"velocity":0.6299212598425197,"duration":0.20178504166666755},{"name":"E3","midi":52,"time":22.49992500000001,"velocity":0.6299212598425197,"duration":0.20178504166666755},{"name":"B2","midi":47,"time":22.714210000000012,"velocity":0.6299212598425197,"duration":0.20178504166666755},{"name":"E3","midi":52,"time":22.714210000000012,"velocity":0.6299212598425197,"duration":0.20178504166666755},{"name":"B2","midi":47,"time":22.928495000000012,"velocity":0.6299212598425197,"duration":0.20178504166666755},{"name":"E3","midi":52,"time":22.928495000000012,"velocity":0.6299212598425197,"duration":0.20178504166666755},{"name":"B2","midi":47,"time":23.142780000000013,"velocity":0.6299212598425197,"duration":0.20178504166666755},{"name":"E3","midi":52,"time":23.142780000000013,"velocity":0.6299212598425197,"duration":0.20178504166666755},{"name":"B2","midi":47,"time":23.357065000000013,"velocity":0.6299212598425197,"duration":0.20178504166666755},{"name":"E3","midi":52,"time":23.357065000000013,"velocity":0.6299212598425197,"duration":0.20178504166666755},{"name":"B2","midi":47,"time":23.571350000000013,"velocity":0.6299212598425197,"duration":0.20178504166666755},{"name":"E3","midi":52,"time":23.571350000000013,"velocity":0.6299212598425197,"duration":0.20178504166666755},{"name":"B2","midi":47,"time":23.785635000000013,"velocity":0.6299212598425197,"duration":0.20178504166666755},{"name":"E3","midi":52,"time":23.785635000000013,"velocity":0.6299212598425197,"duration":0.20178504166666755},{"name":"F#2","midi":42,"time":23.999920000000014,"velocity":0.6299212598425197,"duration":0.20178504166666755},{"name":"C#3","midi":49,"time":23.999920000000014,"velocity":0.6299212598425197,"duration":0.20178504166666755},{"name":"F#3","midi":54,"time":23.999920000000014,"velocity":0.6299212598425197,"duration":0.20178504166666755},{"name":"C#3","midi":49,"time":24.214205000000014,"velocity":0.6299212598425197,"duration":0.20178504166666755},{"name":"F#3","midi":54,"time":24.214205000000014,"velocity":0.6299212598425197,"duration":0.20178504166666755},{"name":"C#3","midi":49,"time":24.428490000000014,"velocity":0.6299212598425197,"duration":0.20178504166666755},{"name":"F#3","midi":54,"time":24.428490000000014,"velocity":0.6299212598425197,"duration":0.20178504166666755},{"name":"C#3","midi":49,"time":24.642775000000015,"velocity":0.6299212598425197,"duration":0.20178504166666755},{"name":"F#3","midi":54,"time":24.642775000000015,"velocity":0.6299212598425197,"duration":0.20178504166666755},{"name":"C#3","midi":49,"time":24.857060000000015,"velocity":0.6299212598425197,"duration":0.20178504166666755},{"name":"F#3","midi":54,"time":24.857060000000015,"velocity":0.6299212598425197,"duration":0.20178504166666755},{"name":"C#3","midi":49,"time":25.071345000000015,"velocity":0.6299212598425197,"duration":0.20178504166666755},{"name":"F#3","midi":54,"time":25.071345000000015,"velocity":0.6299212598425197,"duration":0.20178504166666755},{"name":"C#3","midi":49,"time":25.285630000000015,"velocity":0.6299212598425197,"duration":0.20178504166666755},{"name":"F#3","midi":54,"time":25.285630000000015,"velocity":0.6299212598425197,"duration":0.20178504166666755},{"name":"C#3","midi":49,"time":25.499915000000016,"velocity":0.6299212598425197,"duration":0.20178504166666755},{"name":"F#3","midi":54,"time":25.499915000000016,"velocity":0.6299212598425197,"duration":0.20178504166666755},{"name":"F#2","midi":42,"time":25.714200000000016,"velocity":0.6299212598425197,"duration":0.20178504166666755},{"name":"C#3","midi":49,"time":25.714200000000016,"velocity":0.6299212598425197,"duration":0.20178504166666755},{"name":"F#3","midi":54,"time":25.714200000000016,"velocity":0.6299212598425197,"duration":0.20178504166666755},{"name":"C#3","midi":49,"time":25.928485000000016,"velocity":0.6299212598425197,"duration":0.20178504166666755},{"name":"F#3","midi":54,"time":25.928485000000016,"velocity":0.6299212598425197,"duration":0.20178504166666755},{"name":"C#3","midi":49,"time":26.142770000000016,"velocity":0.6299212598425197,"duration":0.20178504166666755},{"name":"F#3","midi":54,"time":26.142770000000016,"velocity":0.6299212598425197,"duration":0.20178504166666755},{"name":"C#3","midi":49,"time":26.357055000000017,"velocity":0.6299212598425197,"duration":0.20178504166666755},{"name":"F#3","midi":54,"time":26.357055000000017,"velocity":0.6299212598425197,"duration":0.20178504166666755},{"name":"C#3","midi":49,"time":26.571340000000017,"velocity":0.6299212598425197,"duration":0.20178504166666755},{"name":"F#3","midi":54,"time":26.571340000000017,"velocity":0.6299212598425197,"duration":0.20178504166666755},{"name":"C#3","midi":49,"time":26.785625000000017,"velocity":0.6299212598425197,"duration":0.20178504166666755},{"name":"F#3","midi":54,"time":26.785625000000017,"velocity":0.6299212598425197,"duration":0.20178504166666755},{"name":"C#3","midi":49,"time":26.999910000000018,"velocity":0.6299212598425197,"duration":0.20178504166666755},{"name":"F#3","midi":54,"time":26.999910000000018,"velocity":0.6299212598425197,"duration":0.20178504166666755},{"name":"C#3","midi":49,"time":27.214195000000018,"velocity":0.6299212598425197,"duration":0.20178504166666755},{"name":"F#3","midi":54,"time":27.214195000000018,"velocity":0.6299212598425197,"duration":0.20178504166666755},{"name":"D2","midi":38,"time":27.428480000000018,"velocity":0.6299212598425197,"duration":0.8124972916666664},{"name":"D3","midi":50,"time":27.428480000000018,"velocity":0.6299212598425197,"duration":0.8124972916666664},{"name":"D3","midi":50,"time":28.28562000000002,"velocity":0.6299212598425197,"duration":0.8124972916666664},{"name":"F#3","midi":54,"time":28.28562000000002,"velocity":0.6299212598425197,"duration":0.8124972916666664},{"name":"A3","midi":57,"time":28.28562000000002,"velocity":0.6299212598425197,"duration":0.8124972916666664},{"name":"D3","midi":50,"time":29.14276000000002,"velocity":0.6299212598425197,"duration":0.8124972916666664},{"name":"F#3","midi":54,"time":29.14276000000002,"velocity":0.6299212598425197,"duration":0.8124972916666664},{"name":"A3","midi":57,"time":29.14276000000002,"velocity":0.6299212598425197,"duration":0.8124972916666664},{"name":"D3","midi":50,"time":29.99990000000002,"velocity":0.6299212598425197,"duration":0.8124972916666664},{"name":"F#3","midi":54,"time":29.99990000000002,"velocity":0.6299212598425197,"duration":0.8124972916666664},{"name":"A3","midi":57,"time":29.99990000000002,"velocity":0.6299212598425197,"duration":0.8124972916666664},{"name":"E2","midi":40,"time":30.857040000000023,"velocity":0.6299212598425197,"duration":0.8124972916666664},{"name":"E3","midi":52,"time":30.857040000000023,"velocity":0.6299212598425197,"duration":0.8124972916666664},{"name":"E3","midi":52,"time":31.714180000000024,"velocity":0.6299212598425197,"duration":0.81249729166667},{"name":"G#3","midi":56,"time":31.714180000000024,"velocity":0.6299212598425197,"duration":0.81249729166667},{"name":"B3","midi":59,"time":31.714180000000024,"velocity":0.6299212598425197,"duration":0.81249729166667},{"name":"E3","midi":52,"time":32.57132000000003,"velocity":0.6299212598425197,"duration":0.8124972916666664},{"name":"G#3","midi":56,"time":32.57132000000003,"velocity":0.6299212598425197,"duration":0.8124972916666664},{"name":"B3","midi":59,"time":32.57132000000003,"velocity":0.6299212598425197,"duration":0.8124972916666664},{"name":"E3","midi":52,"time":33.42846000000003,"velocity":0.6299212598425197,"duration":0.8124972916666664},{"name":"G#3","midi":56,"time":33.42846000000003,"velocity":0.6299212598425197,"duration":0.8124972916666664},{"name":"B3","midi":59,"time":33.42846000000003,"velocity":0.6299212598425197,"duration":0.8124972916666664},{"name":"C#2","midi":37,"time":34.28560000000003,"velocity":0.6299212598425197,"duration":0.8124972916666664},{"name":"C#3","midi":49,"time":34.28560000000003,"velocity":0.6299212598425197,"duration":0.8124972916666664},{"name":"C#3","midi":49,"time":35.14274000000003,"velocity":0.6299212598425197,"duration":0.8124972916666664},{"name":"E3","midi":52,"time":35.14274000000003,"velocity":0.6299212598425197,"duration":0.8124972916666664},{"name":"G#3","midi":56,"time":35.14274000000003,"velocity":0.6299212598425197,"duration":0.8124972916666664},{"name":"C#3","midi":49,"time":35.99988000000003,"velocity":0.6299212598425197,"duration":0.8124972916666664},{"name":"E3","midi":52,"time":35.99988000000003,"velocity":0.6299212598425197,"duration":0.8124972916666664},{"name":"G#3","midi":56,"time":35.99988000000003,"velocity":0.6299212598425197,"duration":0.8124972916666664},{"name":"C#3","midi":49,"time":36.857020000000034,"velocity":0.6299212598425197,"duration":0.8124972916666664},{"name":"E3","midi":52,"time":36.857020000000034,"velocity":0.6299212598425197,"duration":0.8124972916666664},{"name":"G#3","midi":56,"time":36.857020000000034,"velocity":0.6299212598425197,"duration":0.8124972916666664},{"name":"F#2","midi":42,"time":37.714160000000035,"velocity":0.6299212598425197,"duration":0.8124972916666664},{"name":"F#3","midi":54,"time":37.714160000000035,"velocity":0.6299212598425197,"duration":0.8124972916666664},{"name":"F#3","midi":54,"time":38.571300000000036,"velocity":0.6299212598425197,"duration":0.8124972916666664},{"name":"A3","midi":57,"time":38.571300000000036,"velocity":0.6299212598425197,"duration":0.8124972916666664},{"name":"C#4","midi":61,"time":38.571300000000036,"velocity":0.6299212598425197,"duration":0.8124972916666664},{"name":"F#3","midi":54,"time":39.42844000000004,"velocity":0.6299212598425197,"duration":0.8124972916666664},{"name":"A3","midi":57,"time":39.42844000000004,"velocity":0.6299212598425197,"duration":0.8124972916666664},{"name":"C#4","midi":61,"time":39.42844000000004,"velocity":0.6299212598425197,"duration":0.8124972916666664},{"name":"F#3","midi":54,"time":40.28558000000004,"velocity":0.6299212598425197,"duration":0.8124972916666664},{"name":"A3","midi":57,"time":40.28558000000004,"velocity":0.6299212598425197,"duration":0.8124972916666664},{"name":"C#4","midi":61,"time":40.28558000000004,"velocity":0.6299212598425197,"duration":0.8124972916666664},{"name":"D3","midi":50,"time":41.14272000000004,"velocity":0.6299212598425197,"duration":0.4053557916666648},{"name":"A3","midi":57,"time":41.57129000000004,"velocity":0.6299212598425197,"duration":0.4053557916666648},{"name":"D4","midi":62,"time":41.99986000000004,"velocity":0.6299212598425197,"duration":0.4053557916666648},{"name":"A3","midi":57,"time":42.42843000000004,"velocity":0.6299212598425197,"duration":0.4053557916666648},{"name":"F#4","midi":66,"time":42.85700000000004,"velocity":0.6299212598425197,"duration":0.4053557916666648},{"name":"A3","midi":57,"time":43.28557000000004,"velocity":0.6299212598425197,"duration":0.4053557916666648},{"name":"D4","midi":62,"time":43.71414000000004,"velocity":0.6299212598425197,"duration":0.4053557916666648},{"name":"A3","midi":57,"time":44.142710000000044,"velocity":0.6299212598425197,"duration":0.4053557916666648},{"name":"E3","midi":52,"time":44.571280000000044,"velocity":0.6299212598425197,"duration":0.4053557916666648},{"name":"B3","midi":59,"time":44.999850000000045,"velocity":0.6299212598425197,"duration":0.4053557916666648},{"name":"E4","midi":64,"time":45.428420000000045,"velocity":0.6299212598425197,"duration":0.4053557916666648},{"name":"B3","midi":59,"time":45.856990000000046,"velocity":0.6299212598425197,"duration":0.4053557916666648},{"name":"G#4","midi":68,"time":46.285560000000046,"velocity":0.6299212598425197,"duration":0.4053557916666648},{"name":"B3","midi":59,"time":46.71413000000005,"velocity":0.6299212598425197,"duration":0.4053557916666648},{"name":"E4","midi":64,"time":47.14270000000005,"velocity":0.6299212598425197,"duration":0.4053557916666648},{"name":"B3","midi":59,"time":47.57127000000005,"velocity":0.6299212598425197,"duration":0.4053557916666648},{"name":"C#3","midi":49,"time":47.99984000000005,"velocity":0.6299212598425197,"duration":0.4053557916666648},{"name":"G#3","midi":56,"time":48.42841000000005,"velocity":0.6299212598425197,"duration":0.4053557916666648},{"name":"C#4","midi":61,"time":48.85698000000005,"velocity":0.6299212598425197,"duration":0.4053557916666648},{"name":"G#3","midi":56,"time":49.28555000000005,"velocity":0.6299212598425197,"duration":0.4053557916666648},{"name":"E4","midi":64,"time":49.71412000000005,"velocity":0.6299212598425197,"duration":0.4053557916666648},{"name":"G#3","midi":56,"time":50.14269000000005,"velocity":0.6299212598425197,"duration":0.4053557916666648},{"name":"C#4","midi":61,"time":50.57126000000005,"velocity":0.6299212598425197,"duration":0.4053557916666648},{"name":"G#3","midi":56,"time":50.99983000000005,"velocity":0.6299212598425197,"duration":0.4053557916666648},{"name":"F#2","midi":42,"time":51.42840000000005,"velocity":0.6299212598425197,"duration":0.4053557916666648},{"name":"F#3","midi":54,"time":51.42840000000005,"velocity":0.6299212598425197,"duration":0.4053557916666648},{"name":"F#2","midi":42,"time":51.856970000000054,"velocity":0.6299212598425197,"duration":0.4053557916666648},{"name":"F#3","midi":54,"time":51.856970000000054,"velocity":0.6299212598425197,"duration":0.4053557916666648},{"name":"F#2","midi":42,"time":52.285540000000054,"velocity":0.6299212598425197,"duration":0.4053557916666648},{"name":"F#3","midi":54,"time":52.285540000000054,"velocity":0.6299212598425197,"duration":0.4053557916666648},{"name":"F#2","midi":42,"time":52.714110000000055,"velocity":0.6299212598425197,"duration":0.4053557916666648},{"name":"F#3","midi":54,"time":52.714110000000055,"velocity":0.6299212598425197,"duration":0.4053557916666648},{"name":"F#2","midi":42,"time":53.142680000000055,"velocity":0.6299212598425197,"duration":0.4053557916666648},{"name":"F#3","midi":54,"time":53.142680000000055,"velocity":0.6299212598425197,"duration":0.4053557916666648},{"name":"F#2","midi":42,"time":53.571250000000056,"velocity":0.6299212598425197,"duration":0.4053557916666648},{"name":"F#3","midi":54,"time":53.571250000000056,"velocity":0.6299212598425197,"duration":0.4053557916666648},{"name":"F#2","midi":42,"time":53.99982000000006,"velocity":0.6299212598425197,"duration":0.4053557916666648},{"name":"F#3","midi":54,"time":53.99982000000006,"velocity":0.6299212598425197,"duration":0.4053557916666648},{"name":"F#2","midi":42,"time":54.42839000000006,"velocity":0.6299212598425197,"duration":0.4053557916666648},{"name":"F#3","midi":54,"time":54.42839000000006,"velocity":0.6299212598425197,"duration":0.4053557916666648},{"name":"D2","midi":38,"time":54.85696000000006,"velocity":0.6299212598425197,"duration":0.6089265416666692},{"name":"D3","midi":50,"time":54.85696000000006,"velocity":0.6299212598425197,"duration":0.6089265416666692},{"name":"D3","midi":50,"time":55.49981500000006,"velocity":0.6299212598425197,"duration":0.20178504166666755},{"name":"A3","midi":57,"time":55.714100000000066,"velocity":0.6299212598425197,"duration":0.4053557916666648},{"name":"D4","midi":62,"time":55.714100000000066,"velocity":0.6299212598425197,"duration":0.4053557916666648},{"name":"D3","midi":50,"time":56.14267000000007,"velocity":0.6299212598425197,"duration":0.4053557916666648},{"name":"D2","midi":38,"time":56.57124000000007,"velocity":0.6299212598425197,"duration":0.6089265416666692},{"name":"D3","midi":50,"time":56.57124000000007,"velocity":0.6299212598425197,"duration":0.6089265416666692},{"name":"D3","midi":50,"time":57.21409500000007,"velocity":0.6299212598425197,"duration":0.20178504166666755},{"name":"A3","midi":57,"time":57.428380000000075,"velocity":0.6299212598425197,"duration":0.4053557916666648},{"name":"D4","midi":62,"time":57.428380000000075,"velocity":0.6299212598425197,"duration":0.4053557916666648},{"name":"D3","midi":50,"time":57.856950000000076,"velocity":0.6299212598425197,"duration":0.4053557916666648},{"name":"E2","midi":40,"time":58.285520000000076,"velocity":0.6299212598425197,"duration":0.6089265416666692},{"name":"E3","midi":52,"time":58.285520000000076,"velocity":0.6299212598425197,"duration":0.6089265416666692},{"name":"E3","midi":52,"time":58.92837500000008,"velocity":0.6299212598425197,"duration":0.20178504166666755},{"name":"B3","midi":59,"time":59.142660000000085,"velocity":0.6299212598425197,"duration":0.4053557916666648},{"name":"E4","midi":64,"time":59.142660000000085,"velocity":0.6299212598425197,"duration":0.4053557916666648},{"name":"E3","midi":52,"time":59.571230000000085,"velocity":0.6299212598425197,"duration":0.4053557916666648},{"name":"E2","midi":40,"time":59.999800000000086,"velocity":0.6299212598425197,"duration":0.6089265416666692},{"name":"E3","midi":52,"time":59.999800000000086,"velocity":0.6299212598425197,"duration":0.6089265416666692},{"name":"E3","midi":52,"time":60.64265500000009,"velocity":0.6299212598425197,"duration":0.20178504166666755},{"name":"B3","midi":59,"time":60.856940000000094,"velocity":0.6299212598425197,"duration":0.4053557916666648},{"name":"E4","midi":64,"time":60.856940000000094,"velocity":0.6299212598425197,"duration":0.4053557916666648},{"name":"E3","midi":52,"time":61.285510000000095,"velocity":0.6299212598425197,"duration":0.4053557916666648},{"name":"C#2","midi":37,"time":61.714080000000095,"velocity":0.6299212598425197,"duration":0.6089265416666692},{"name":"C#3","midi":49,"time":61.714080000000095,"velocity":0.6299212598425197,"duration":0.6089265416666692},{"name":"C#3","midi":49,"time":62.3569350000001,"velocity":0.6299212598425197,"duration":0.20178504166666755},{"name":"G#3","midi":56,"time":62.5712200000001,"velocity":0.6299212598425197,"duration":0.4053557916666648},{"name":"C#4","midi":61,"time":62.5712200000001,"velocity":0.6299212598425197,"duration":0.4053557916666648},{"name":"C#3","midi":49,"time":62.999790000000104,"velocity":0.6299212598425197,"duration":0.4053557916666648},{"name":"C#2","midi":37,"time":63.428360000000104,"velocity":0.6299212598425197,"duration":0.6089265416666692},{"name":"C#3","midi":49,"time":63.428360000000104,"velocity":0.6299212598425197,"duration":0.6089265416666692},{"name":"C#3","midi":49,"time":64.07121500000011,"velocity":0.6299212598425197,"duration":0.20178504166666755},{"name":"G#3","midi":56,"time":64.28550000000011,"velocity":0.6299212598425197,"duration":0.4053557916666648},{"name":"C#4","midi":61,"time":64.28550000000011,"velocity":0.6299212598425197,"duration":0.4053557916666648},{"name":"C#3","midi":49,"time":64.7140700000001,"velocity":0.6299212598425197,"duration":0.4053557916666648},{"name":"F#2","midi":42,"time":65.1426400000001,"velocity":0.6299212598425197,"duration":0.608926541666662},{"name":"F#3","midi":54,"time":65.1426400000001,"velocity":0.6299212598425197,"duration":0.608926541666662},{"name":"F#3","midi":54,"time":65.7854950000001,"velocity":0.6299212598425197,"duration":0.20178504166666755},{"name":"C#4","midi":61,"time":65.9997800000001,"velocity":0.6299212598425197,"duration":0.4053557916666648},{"name":"F#4","midi":66,"time":65.9997800000001,"velocity":0.6299212598425197,"duration":0.4053557916666648},{"name":"F#3","midi":54,"time":66.4283500000001,"velocity":0.6299212598425197,"duration":0.4053557916666648},{"name":"F#2","midi":42,"time":66.85692000000009,"velocity":0.6299212598425197,"duration":0.608926541666662},{"name":"F#3","midi":54,"time":66.85692000000009,"velocity":0.6299212598425197,"duration":0.608926541666662},{"name":"F#3","midi":54,"time":67.49977500000008,"velocity":0.6299212598425197,"duration":0.20178504166666755},{"name":"C#4","midi":61,"time":67.71406000000009,"velocity":0.6299212598425197,"duration":0.4053557916666648},{"name":"F#4","midi":66,"time":67.71406000000009,"velocity":0.6299212598425197,"duration":0.4053557916666648},{"name":"F#3","midi":54,"time":68.14263000000008,"velocity":0.6299212598425197,"duration":0.4053557916666648},{"name":"D2","midi":38,"time":68.57120000000008,"velocity":0.6299212598425197,"duration":0.608926541666662},{"name":"D3","midi":50,"time":68.57120000000008,"velocity":0.6299212598425197,"duration":0.608926541666662},{"name":"D3","midi":50,"time":69.21405500000007,"velocity":0.6299212598425197,"duration":0.20178504166666755},{"name":"A3","midi":57,"time":69.42834000000008,"velocity":0.6299212598425197,"duration":0.4053557916666648},{"name":"D4","midi":62,"time":69.42834000000008,"velocity":0.6299212598425197,"duration":0.4053557916666648},{"name":"D3","midi":50,"time":69.85691000000007,"velocity":0.6299212598425197,"duration":0.4053557916666648},{"name":"D2","midi":38,"time":70.28548000000006,"velocity":0.6299212598425197,"duration":0.608926541666662},{"name":"D3","midi":50,"time":70.28548000000006,"velocity":0.6299212598425197,"duration":0.608926541666662},{"name":"D3","midi":50,"time":70.92833500000006,"velocity":0.6299212598425197,"duration":0.20178504166666755},{"name":"A3","midi":57,"time":71.14262000000006,"velocity":0.6299212598425197,"duration":0.4053557916666648},{"name":"D4","midi":62,"time":71.14262000000006,"velocity":0.6299212598425197,"duration":0.4053557916666648},{"name":"D3","midi":50,"time":71.57119000000006,"velocity":0.6299212598425197,"duration":0.4053557916666648},{"name":"E2","midi":40,"time":71.99976000000005,"velocity":0.6299212598425197,"duration":0.608926541666662},{"name":"E3","midi":52,"time":71.99976000000005,"velocity":0.6299212598425197,"duration":0.608926541666662},{"name":"E3","midi":52,"time":72.64261500000005,"velocity":0.6299212598425197,"duration":0.20178504166666755},{"name":"B3","midi":59,"time":72.85690000000005,"velocity":0.6299212598425197,"duration":0.4053557916666648},{"name":"E4","midi":64,"time":72.85690000000005,"velocity":0.6299212598425197,"duration":0.4053557916666648},{"name":"E3","midi":52,"time":73.28547000000005,"velocity":0.6299212598425197,"duration":0.4053557916666648},{"name":"E2","midi":40,"time":73.71404000000004,"velocity":0.6299212598425197,"duration":0.608926541666662},{"name":"E3","midi":52,"time":73.71404000000004,"velocity":0.6299212598425197,"duration":0.608926541666662},{"name":"E3","midi":52,"time":74.35689500000004,"velocity":0.6299212598425197,"duration":0.20178504166666755},{"name":"B3","midi":59,"time":74.57118000000004,"velocity":0.6299212598425197,"duration":0.4053557916666648},{"name":"E4","midi":64,"time":74.57118000000004,"velocity":0.6299212598425197,"duration":0.4053557916666648},{"name":"E3","midi":52,"time":74.99975000000003,"velocity":0.6299212598425197,"duration":0.4053557916666648},{"name":"C#2","midi":37,"time":75.42832000000003,"velocity":0.6299212598425197,"duration":0.608926541666662},{"name":"C#3","midi":49,"time":75.42832000000003,"velocity":0.6299212598425197,"duration":0.608926541666662},{"name":"C#3","midi":49,"time":76.07117500000003,"velocity":0.6299212598425197,"duration":0.20178504166666755},{"name":"G#3","midi":56,"time":76.28546000000003,"velocity":0.6299212598425197,"duration":0.4053557916666648},{"name":"C#4","midi":61,"time":76.28546000000003,"velocity":0.6299212598425197,"duration":0.4053557916666648},{"name":"C#3","midi":49,"time":76.71403000000002,"velocity":0.6299212598425197,"duration":0.4053557916666648},{"name":"C#2","midi":37,"time":77.14260000000002,"velocity":0.6299212598425197,"duration":0.608926541666662},{"name":"C#3","midi":49,"time":77.14260000000002,"velocity":0.6299212598425197,"duration":0.608926541666662},{"name":"C#3","midi":49,"time":77.78545500000001,"velocity":0.6299212598425197,"duration":0.20178504166666755},{"name":"G#3","midi":56,"time":77.99974000000002,"velocity":0.6299212598425197,"duration":0.4053557916666648},{"name":"C#4","midi":61,"time":77.99974000000002,"velocity":0.6299212598425197,"duration":0.4053557916666648},{"name":"C#3","midi":49,"time":78.42831000000001,"velocity":0.6299212598425197,"duration":0.4053557916666648},{"name":"F#2","midi":42,"time":78.85688,"velocity":0.6299212598425197,"duration":0.608926541666662},{"name":"F#3","midi":54,"time":78.85688,"velocity":0.6299212598425197,"duration":0.608926541666662},{"name":"F#3","midi":54,"time":79.499735,"velocity":0.6299212598425197,"duration":0.20178504166666755},{"name":"C#4","midi":61,"time":79.71402,"velocity":0.6299212598425197,"duration":0.4053557916666648},{"name":"F#4","midi":66,"time":79.71402,"velocity":0.6299212598425197,"duration":0.4053557916666648},{"name":"F#3","midi":54,"time":80.14259,"velocity":0.6299212598425197,"duration":0.4053557916666648},{"name":"F#2","midi":42,"time":80.57115999999999,"velocity":0.6299212598425197,"duration":0.608926541666662},{"name":"F#3","midi":54,"time":80.57115999999999,"velocity":0.6299212598425197,"duration":0.608926541666662},{"name":"F#3","midi":54,"time":81.21401499999999,"velocity":0.6299212598425197,"duration":0.20178504166666755},{"name":"C#4","midi":61,"time":81.4283,"velocity":0.6299212598425197,"duration":0.4053557916666648},{"name":"F#4","midi":66,"time":81.4283,"velocity":0.6299212598425197,"duration":0.4053557916666648},{"name":"F#3","midi":54,"time":81.85686999999999,"velocity":0.6299212598425197,"duration":0.4053557916666648},{"name":"D2","midi":38,"time":82.28543999999998,"velocity":0.6299212598425197,"duration":0.8124972916666735},{"name":"D3","midi":50,"time":82.28543999999998,"velocity":0.6299212598425197,"duration":0.8124972916666735},{"name":"D3","midi":50,"time":83.14257999999998,"velocity":0.6299212598425197,"duration":0.8124972916666735},{"name":"F#3","midi":54,"time":83.14257999999998,"velocity":0.6299212598425197,"duration":0.8124972916666735},{"name":"A3","midi":57,"time":83.14257999999998,"velocity":0.6299212598425197,"duration":0.8124972916666735},{"name":"D3","midi":50,"time":83.99971999999998,"velocity":0.6299212598425197,"duration":0.8124972916666735},{"name":"F#3","midi":54,"time":83.99971999999998,"velocity":0.6299212598425197,"duration":0.8124972916666735},{"name":"A3","midi":57,"time":83.99971999999998,"velocity":0.6299212598425197,"duration":0.8124972916666735},{"name":"D3","midi":50,"time":84.85685999999998,"velocity":0.6299212598425197,"duration":0.8124972916666735},{"name":"F#3","midi":54,"time":84.85685999999998,"velocity":0.6299212598425197,"duration":0.8124972916666735},{"name":"A3","midi":57,"time":84.85685999999998,"velocity":0.6299212598425197,"duration":0.8124972916666735},{"name":"E2","midi":40,"time":85.71399999999998,"velocity":0.6299212598425197,"duration":0.8124972916666735},{"name":"E3","midi":52,"time":85.71399999999998,"velocity":0.6299212598425197,"duration":0.8124972916666735},{"name":"E3","midi":52,"time":86.57113999999999,"velocity":0.6299212598425197,"duration":0.8124972916666735},{"name":"G#3","midi":56,"time":86.57113999999999,"velocity":0.6299212598425197,"duration":0.8124972916666735},{"name":"B3","midi":59,"time":86.57113999999999,"velocity":0.6299212598425197,"duration":0.8124972916666735},{"name":"E3","midi":52,"time":87.42827999999999,"velocity":0.6299212598425197,"duration":0.8124972916666735},{"name":"G#3","midi":56,"time":87.42827999999999,"velocity":0.6299212598425197,"duration":0.8124972916666735},{"name":"B3","midi":59,"time":87.42827999999999,"velocity":0.6299212598425197,"duration":0.8124972916666735},{"name":"E3","midi":52,"time":88.28541999999999,"velocity":0.6299212598425197,"duration":0.8124972916666735},{"name":"G#3","midi":56,"time":88.28541999999999,"velocity":0.6299212598425197,"duration":0.8124972916666735},{"name":"B3","midi":59,"time":88.28541999999999,"velocity":0.6299212598425197,"duration":0.8124972916666735},{"name":"C#2","midi":37,"time":89.14255999999999,"velocity":0.6299212598425197,"duration":0.8124972916666735},{"name":"C#3","midi":49,"time":89.14255999999999,"velocity":0.6299212598425197,"duration":0.8124972916666735},{"name":"C#3","midi":49,"time":89.99969999999999,"velocity":0.6299212598425197,"duration":0.8124972916666735},{"name":"E3","midi":52,"time":89.99969999999999,"velocity":0.6299212598425197,"duration":0.8124972916666735},{"name":"G#3","midi":56,"time":89.99969999999999,"velocity":0.6299212598425197,"duration":0.8124972916666735},{"name":"C#3","midi":49,"time":90.85683999999999,"velocity":0.6299212598425197,"duration":0.8124972916666735},{"name":"E3","midi":52,"time":90.85683999999999,"velocity":0.6299212598425197,"duration":0.8124972916666735},{"name":"G#3","midi":56,"time":90.85683999999999,"velocity":0.6299212598425197,"duration":0.8124972916666735},{"name":"C#3","midi":49,"time":91.71397999999999,"velocity":0.6299212598425197,"duration":0.8124972916666735},{"name":"E3","midi":52,"time":91.71397999999999,"velocity":0.6299212598425197,"duration":0.8124972916666735},{"name":"G#3","midi":56,"time":91.71397999999999,"velocity":0.6299212598425197,"duration":0.8124972916666735},{"name":"F#2","midi":42,"time":92.57112,"velocity":0.6299212598425197,"duration":0.4053557916666648},{"name":"F#3","midi":54,"time":92.57112,"velocity":0.6299212598425197,"duration":0.4053557916666648},{"name":"F#2","midi":42,"time":92.99968999999999,"velocity":0.6299212598425197,"duration":0.4053557916666648},{"name":"F#3","midi":54,"time":92.99968999999999,"velocity":0.6299212598425197,"duration":0.4053557916666648},{"name":"F#2","midi":42,"time":93.42825999999998,"velocity":0.6299212598425197,"duration":0.4053557916666648},{"name":"F#3","midi":54,"time":93.42825999999998,"velocity":0.6299212598425197,"duration":0.4053557916666648},{"name":"F#2","midi":42,"time":93.85682999999997,"velocity":0.6299212598425197,"duration":0.4053557916666648},{"name":"F#3","midi":54,"time":93.85682999999997,"velocity":0.6299212598425197,"duration":0.4053557916666648},{"name":"F#2","midi":42,"time":94.28539999999997,"velocity":0.6299212598425197,"duration":1.6267802916666625},{"name":"F#3","midi":54,"time":94.28539999999997,"velocity":0.6299212598425197,"duration":1.6267802916666625},{"name":"D2","midi":38,"time":95.99967999999997,"velocity":0.6299212598425197,"duration":0.20178504166666755},{"name":"A2","midi":45,"time":96.21396499999997,"velocity":0.6299212598425197,"duration":0.20178504166666755},{"name":"D3","midi":50,"time":96.42824999999998,"velocity":0.6299212598425197,"duration":0.20178504166666755},{"name":"A2","midi":45,"time":96.64253499999998,"velocity":0.6299212598425197,"duration":0.20178504166666755},{"name":"F#3","midi":54,"time":96.85681999999998,"velocity":0.6299212598425197,"duration":0.20178504166666755},{"name":"A2","midi":45,"time":97.07110499999999,"velocity":0.6299212598425197,"duration":0.20178504166666755},{"name":"D3","midi":50,"time":97.28538999999999,"velocity":0.6299212598425197,"duration":0.20178504166666755},{"name":"A2","midi":45,"time":97.499675,"velocity":0.6299212598425197,"duration":0.20178504166666755},{"name":"E2","midi":40,"time":97.71396,"velocity":0.6299212598425197,"duration":0.20178504166666755},{"name":"B2","midi":47,"time":97.928245,"velocity":0.6299212598425197,"duration":0.20178504166666755},{"name":"E3","midi":52,"time":98.14253000000001,"velocity":0.6299212598425197,"duration":0.20178504166666755},{"name":"B2","midi":47,"time":98.35681500000001,"velocity":0.6299212598425197,"duration":0.20178504166666755},{"name":"G#3","midi":56,"time":98.57110000000002,"velocity":0.6299212598425197,"duration":0.20178504166666755},{"name":"B2","midi":47,"time":98.78538500000002,"velocity":0.6299212598425197,"duration":0.20178504166666755},{"name":"E3","midi":52,"time":98.99967000000002,"velocity":0.6299212598425197,"duration":0.20178504166666755},{"name":"B2","midi":47,"time":99.21395500000003,"velocity":0.6299212598425197,"duration":0.20178504166666755},{"name":"C#2","midi":37,"time":99.42824000000003,"velocity":0.6299212598425197,"duration":0.20178504166666755},{"name":"G#2","midi":44,"time":99.64252500000003,"velocity":0.6299212598425197,"duration":0.20178504166666755},{"name":"C#3","midi":49,"time":99.85681000000004,"velocity":0.6299212598425197,"duration":0.20178504166666755},{"name":"G#2","midi":44,"time":100.07109500000004,"velocity":0.6299212598425197,"duration":0.20178504166666755},{"name":"E3","midi":52,"time":100.28538000000005,"velocity":0.6299212598425197,"duration":0.20178504166666755},{"name":"G#2","midi":44,"time":100.49966500000005,"velocity":0.6299212598425197,"duration":0.20178504166666755},{"name":"C#3","midi":49,"time":100.71395000000005,"velocity":0.6299212598425197,"duration":0.20178504166666755},{"name":"G#2","midi":44,"time":100.92823500000006,"velocity":0.6299212598425197,"duration":0.20178504166666755},{"name":"F#2","midi":42,"time":101.14252000000006,"velocity":0.6299212598425197,"duration":0.20178504166666755},{"name":"C#3","midi":49,"time":101.35680500000007,"velocity":0.6299212598425197,"duration":0.20178504166666755},{"name":"F#3","midi":54,"time":101.57109000000007,"velocity":0.6299212598425197,"duration":0.20178504166666755},{"name":"C#3","midi":49,"time":101.78537500000007,"velocity":0.6299212598425197,"duration":0.20178504166666755},{"name":"A3","midi":57,"time":101.99966000000008,"velocity":0.6299212598425197,"duration":0.20178504166666755},{"name":"C#3","midi":49,"time":102.21394500000008,"velocity":0.6299212598425197,"duration":0.20178504166666755},{"name":"F#3","midi":54,"time":102.42823000000008,"velocity":0.6299212598425197,"duration":0.20178504166666755},{"name":"C#3","midi":49,"time":102.64251500000009,"velocity":0.6299212598425197,"duration":0.20178504166666755},{"name":"D3","midi":50,"time":102.85680000000009,"velocity":0.6299212598425197,"duration":0.4053557916666648},{"name":"A3","midi":57,"time":102.85680000000009,"velocity":0.6299212598425197,"duration":0.4053557916666648},{"name":"D3","midi":50,"time":103.28537000000009,"velocity":0.6299212598425197,"duration":0.4053557916666648},{"name":"A3","midi":57,"time":103.28537000000009,"velocity":0.6299212598425197,"duration":0.4053557916666648},{"name":"D3","midi":50,"time":103.71394000000008,"velocity":0.6299212598425197,"duration":0.4053557916666648},{"name":"A3","midi":57,"time":103.71394000000008,"velocity":0.6299212598425197,"duration":0.4053557916666648},{"name":"D3","midi":50,"time":104.14251000000007,"velocity":0.6299212598425197,"duration":0.4053557916666648},{"name":"A3","midi":57,"time":104.14251000000007,"velocity":0.6299212598425197,"duration":0.4053557916666648},{"name":"E3","midi":52,"time":104.57108000000007,"velocity":0.6299212598425197,"duration":0.4053557916666648},{"name":"B3","midi":59,"time":104.57108000000007,"velocity":0.6299212598425197,"duration":0.4053557916666648},{"name":"E3","midi":52,"time":104.99965000000006,"velocity":0.6299212598425197,"duration":0.4053557916666648},{"name":"B3","midi":59,"time":104.99965000000006,"velocity":0.6299212598425197,"duration":0.4053557916666648},{"name":"E3","midi":52,"time":105.42822000000005,"velocity":0.6299212598425197,"duration":0.4053557916666648},{"name":"B3","midi":59,"time":105.42822000000005,"velocity":0.6299212598425197,"duration":0.4053557916666648},{"name":"E3","midi":52,"time":105.85679000000005,"velocity":0.6299212598425197,"duration":0.4053557916666648},{"name":"B3","midi":59,"time":105.85679000000005,"velocity":0.6299212598425197,"duration":0.4053557916666648},{"name":"C#3","midi":49,"time":106.28536000000004,"velocity":0.6299212598425197,"duration":0.4053557916666648},{"name":"G#3","midi":56,"time":106.28536000000004,"velocity":0.6299212598425197,"duration":0.4053557916666648},{"name":"C#3","midi":49,"time":106.71393000000003,"velocity":0.6299212598425197,"duration":0.4053557916666648},{"name":"G#3","midi":56,"time":106.71393000000003,"velocity":0.6299212598425197,"duration":0.4053557916666648},{"name":"C#3","midi":49,"time":107.14250000000003,"velocity":0.6299212598425197,"duration":0.4053557916666648},{"name":"G#3","midi":56,"time":107.14250000000003,"velocity":0.6299212598425197,"duration":0.4053557916666648},{"name":"C#3","midi":49,"time":107.57107000000002,"velocity":0.6299212598425197,"duration":0.4053557916666648},{"name":"G#3","midi":56,"time":107.57107000000002,"velocity":0.6299212598425197,"duration":0.4053557916666648},{"name":"F#3","midi":54,"time":107.99964000000001,"velocity":0.6299212598425197,"duration":0.4053557916666648},{"name":"C#4","midi":61,"time":107.99964000000001,"velocity":0.6299212598425197,"duration":0.4053557916666648},{"name":"F#3","midi":54,"time":108.42821,"velocity":0.6299212598425197,"duration":0.4053557916666648},{"name":"C#4","midi":61,"time":108.42821,"velocity":0.6299212598425197,"duration":0.4053557916666648},{"name":"F#3","midi":54,"time":108.85678,"velocity":0.6299212598425197,"duration":0.4053557916666648},{"name":"C#4","midi":61,"time":108.85678,"velocity":0.6299212598425197,"duration":0.4053557916666648},{"name":"F#3","midi":54,"time":109.28535,"velocity":0.6299212598425197,"duration":0.4053557916666648},{"name":"C#4","midi":61,"time":109.28535,"velocity":0.6299212598425197,"duration":0.4053557916666648},{"name":"D3","midi":50,"time":109.71391999999999,"velocity":0.6299212598425197,"duration":0.8124972916666735},{"name":"A3","midi":57,"time":109.71391999999999,"velocity":0.6299212598425197,"duration":0.8124972916666735},{"name":"D3","midi":50,"time":110.57105999999999,"velocity":0.6299212598425197,"duration":0.8124972916666735},{"name":"A3","midi":57,"time":110.57105999999999,"velocity":0.6299212598425197,"duration":0.8124972916666735},{"name":"D3","midi":50,"time":111.42819999999999,"velocity":0.6299212598425197,"duration":0.8124972916666735},{"name":"A3","midi":57,"time":111.42819999999999,"velocity":0.6299212598425197,"duration":0.8124972916666735},{"name":"D3","midi":50,"time":112.28533999999999,"velocity":0.6299212598425197,"duration":0.8124972916666735},{"name":"A3","midi":57,"time":112.28533999999999,"velocity":0.6299212598425197,"duration":0.8124972916666735},{"name":"E3","midi":52,"time":113.14247999999999,"velocity":0.6299212598425197,"duration":0.8124972916666735},{"name":"B3","midi":59,"time":113.14247999999999,"velocity":0.6299212598425197,"duration":0.8124972916666735},{"name":"E3","midi":52,"time":113.99962,"velocity":0.6299212598425197,"duration":0.8124972916666735},{"name":"B3","midi":59,"time":113.99962,"velocity":0.6299212598425197,"duration":0.8124972916666735},{"name":"E3","midi":52,"time":114.85676,"velocity":0.6299212598425197,"duration":0.8124972916666735},{"name":"B3","midi":59,"time":114.85676,"velocity":0.6299212598425197,"duration":0.8124972916666735},{"name":"E3","midi":52,"time":115.7139,"velocity":0.6299212598425197,"duration":0.8124972916666735},{"name":"B3","midi":59,"time":115.7139,"velocity":0.6299212598425197,"duration":0.8124972916666735},{"name":"C#3","midi":49,"time":116.57104,"velocity":0.6299212598425197,"duration":0.8124972916666735},{"name":"G#3","midi":56,"time":116.57104,"velocity":0.6299212598425197,"duration":0.8124972916666735},{"name":"C#3","midi":49,"time":117.42818,"velocity":0.6299212598425197,"duration":0.8124972916666735},{"name":"G#3","midi":56,"time":117.42818,"velocity":0.6299212598425197,"duration":0.8124972916666735},{"name":"C#3","midi":49,"time":118.28532,"velocity":0.6299212598425197,"duration":0.8124972916666735},{"name":"G#3","midi":56,"time":118.28532,"velocity":0.6299212598425197,"duration":0.8124972916666735},{"name":"C#3","midi":49,"time":119.14246,"velocity":0.6299212598425197,"duration":0.8124972916666735},{"name":"G#3","midi":56,"time":119.14246,"velocity":0.6299212598425197,"duration":0.8124972916666735},{"name":"F#3","midi":54,"time":119.9996,"velocity":0.6299212598425197,"duration":0.8124972916666735},{"name":"C#4","midi":61,"time":119.9996,"velocity":0.6299212598425197,"duration":0.8124972916666735},{"name":"F#3","midi":54,"time":120.85674,"velocity":0.6299212598425197,"duration":0.8124972916666735},{"name":"C#4","midi":61,"time":120.85674,"velocity":0.6299212598425197,"duration":0.8124972916666735},{"name":"F#3","midi":54,"time":121.71388,"velocity":0.6299212598425197,"duration":0.8124972916666735},{"name":"C#4","midi":61,"time":121.71388,"velocity":0.6299212598425197,"duration":0.8124972916666735},{"name":"D2","midi":38,"time":123.42816,"velocity":0.6299212598425197,"duration":0.608926541666662},{"name":"D3","midi":50,"time":123.42816,"velocity":0.6299212598425197,"duration":0.608926541666662},{"name":"D3","midi":50,"time":124.071015,"velocity":0.6299212598425197,"duration":0.20178504166666755},{"name":"A3","midi":57,"time":124.2853,"velocity":0.6299212598425197,"duration":0.4053557916666648},{"name":"D4","midi":62,"time":124.2853,"velocity":0.6299212598425197,"duration":0.4053557916666648},{"name":"D3","midi":50,"time":124.71387,"velocity":0.6299212598425197,"duration":0.4053557916666648},{"name":"D2","midi":38,"time":125.14244,"velocity":0.6299212598425197,"duration":0.608926541666662},{"name":"D3","midi":50,"time":125.14244,"velocity":0.6299212598425197,"duration":0.608926541666662},{"name":"D3","midi":50,"time":125.78529499999999,"velocity":0.6299212598425197,"duration":0.20178504166666755},{"name":"A3","midi":57,"time":125.99958,"velocity":0.6299212598425197,"duration":0.4053557916666648},{"name":"D4","midi":62,"time":125.99958,"velocity":0.6299212598425197,"duration":0.4053557916666648},{"name":"D3","midi":50,"time":126.42814999999999,"velocity":0.6299212598425197,"duration":0.4053557916666648},{"name":"E2","midi":40,"time":126.85671999999998,"velocity":0.6299212598425197,"duration":0.608926541666662},{"name":"E3","midi":52,"time":126.85671999999998,"velocity":0.6299212598425197,"duration":0.608926541666662},{"name":"E3","midi":52,"time":127.49957499999998,"velocity":0.6299212598425197,"duration":0.20178504166666755},{"name":"B3","midi":59,"time":127.71385999999998,"velocity":0.6299212598425197,"duration":0.4053557916666648},{"name":"E4","midi":64,"time":127.71385999999998,"velocity":0.6299212598425197,"duration":0.4053557916666648},{"name":"E3","midi":52,"time":128.14243,"velocity":0.6299212598425197,"duration":0.4053557916666648},{"name":"E2","midi":40,"time":128.571,"velocity":0.6299212598425197,"duration":0.6089265416666763},{"name":"E3","midi":52,"time":128.571,"velocity":0.6299212598425197,"duration":0.6089265416666763},{"name":"E3","midi":52,"time":129.213855,"velocity":0.6299212598425197,"duration":0.20178504166665334},{"name":"B3","midi":59,"time":129.42813999999998,"velocity":0.6299212598425197,"duration":0.4053557916666648},{"name":"E4","midi":64,"time":129.42813999999998,"velocity":0.6299212598425197,"duration":0.4053557916666648},{"name":"E3","midi":52,"time":129.85671,"velocity":0.6299212598425197,"duration":0.4053557916666648},{"name":"C#2","midi":37,"time":130.28528,"velocity":0.6299212598425197,"duration":0.6089265416666763},{"name":"C#3","midi":49,"time":130.28528,"velocity":0.6299212598425197,"duration":0.6089265416666763},{"name":"C#3","midi":49,"time":130.928135,"velocity":0.6299212598425197,"duration":0.20178504166665334},{"name":"G#3","midi":56,"time":131.14242,"velocity":0.6299212598425197,"duration":0.4053557916666648},{"name":"C#4","midi":61,"time":131.14242,"velocity":0.6299212598425197,"duration":0.4053557916666648},{"name":"C#3","midi":49,"time":131.57099,"velocity":0.6299212598425197,"duration":0.4053557916666648},{"name":"C#2","midi":37,"time":131.99956,"velocity":0.6299212598425197,"duration":0.6089265416666763},{"name":"C#3","midi":49,"time":131.99956,"velocity":0.6299212598425197,"duration":0.6089265416666763},{"name":"C#3","midi":49,"time":132.642415,"velocity":0.6299212598425197,"duration":0.20178504166665334},{"name":"G#3","midi":56,"time":132.8567,"velocity":0.6299212598425197,"duration":0.4053557916666648},{"name":"C#4","midi":61,"time":132.8567,"velocity":0.6299212598425197,"duration":0.4053557916666648},{"name":"C#3","midi":49,"time":133.28527,"velocity":0.6299212598425197,"duration":0.4053557916666648},{"name":"F#2","midi":42,"time":133.71384,"velocity":0.6299212598425197,"duration":0.6089265416666763},{"name":"F#3","midi":54,"time":133.71384,"velocity":0.6299212598425197,"duration":0.6089265416666763},{"name":"F#3","midi":54,"time":134.356695,"velocity":0.6299212598425197,"duration":0.20178504166665334},{"name":"C#4","midi":61,"time":134.57098,"velocity":0.6299212598425197,"duration":0.4053557916666648},{"name":"F#4","midi":66,"time":134.57098,"velocity":0.6299212598425197,"duration":0.4053557916666648},{"name":"F#3","midi":54,"time":134.99955,"velocity":0.6299212598425197,"duration":0.4053557916666648},{"name":"F#2","midi":42,"time":135.42812,"velocity":0.6299212598425197,"duration":0.6089265416666763},{"name":"F#3","midi":54,"time":135.42812,"velocity":0.6299212598425197,"duration":0.6089265416666763},{"name":"F#3","midi":54,"time":136.070975,"velocity":0.6299212598425197,"duration":0.20178504166665334},{"name":"C#4","midi":61,"time":136.28526,"velocity":0.6299212598425197,"duration":0.4053557916666648},{"name":"F#4","midi":66,"time":136.28526,"velocity":0.6299212598425197,"duration":0.4053557916666648},{"name":"F#3","midi":54,"time":136.71383,"velocity":0.6299212598425197,"duration":0.4053557916666648},{"name":"D2","midi":38,"time":137.1424,"velocity":0.6299212598425197,"duration":0.6089265416666763},{"name":"D3","midi":50,"time":137.1424,"velocity":0.6299212598425197,"duration":0.6089265416666763},{"name":"D3","midi":50,"time":137.785255,"velocity":0.6299212598425197,"duration":0.20178504166665334},{"name":"A3","midi":57,"time":137.99954,"velocity":0.6299212598425197,"duration":0.4053557916666648},{"name":"D4","midi":62,"time":137.99954,"velocity":0.6299212598425197,"duration":0.4053557916666648},{"name":"D3","midi":50,"time":138.42811,"velocity":0.6299212598425197,"duration":0.4053557916666648},{"name":"D2","midi":38,"time":138.85668,"velocity":0.6299212598425197,"duration":0.6089265416666763},{"name":"D3","midi":50,"time":138.85668,"velocity":0.6299212598425197,"duration":0.6089265416666763},{"name":"D3","midi":50,"time":139.499535,"velocity":0.6299212598425197,"duration":0.20178504166665334},{"name":"A3","midi":57,"time":139.71382,"velocity":0.6299212598425197,"duration":0.4053557916666648},{"name":"D4","midi":62,"time":139.71382,"velocity":0.6299212598425197,"duration":0.4053557916666648},{"name":"D3","midi":50,"time":140.14239,"velocity":0.6299212598425197,"duration":0.4053557916666648},{"name":"E2","midi":40,"time":140.57096,"velocity":0.6299212598425197,"duration":0.6089265416666763},{"name":"E3","midi":52,"time":140.57096,"velocity":0.6299212598425197,"duration":0.6089265416666763},{"name":"E3","midi":52,"time":141.213815,"velocity":0.6299212598425197,"duration":0.20178504166665334},{"name":"B3","midi":59,"time":141.4281,"velocity":0.6299212598425197,"duration":0.4053557916666648},{"name":"E4","midi":64,"time":141.4281,"velocity":0.6299212598425197,"duration":0.4053557916666648},{"name":"E3","midi":52,"time":141.85667,"velocity":0.6299212598425197,"duration":0.4053557916666648},{"name":"E2","midi":40,"time":142.28524000000002,"velocity":0.6299212598425197,"duration":0.6089265416666763},{"name":"E3","midi":52,"time":142.28524000000002,"velocity":0.6299212598425197,"duration":0.6089265416666763},{"name":"E3","midi":52,"time":142.928095,"velocity":0.6299212598425197,"duration":0.20178504166665334},{"name":"B3","midi":59,"time":143.14238,"velocity":0.6299212598425197,"duration":0.4053557916666648},{"name":"E4","midi":64,"time":143.14238,"velocity":0.6299212598425197,"duration":0.4053557916666648},{"name":"E3","midi":52,"time":143.57095,"velocity":0.6299212598425197,"duration":0.4053557916666648},{"name":"C#2","midi":37,"time":143.99952000000002,"velocity":0.6299212598425197,"duration":0.6089265416666763},{"name":"C#3","midi":49,"time":143.99952000000002,"velocity":0.6299212598425197,"duration":0.6089265416666763},{"name":"C#3","midi":49,"time":144.64237500000002,"velocity":0.6299212598425197,"duration":0.20178504166665334},{"name":"G#3","midi":56,"time":144.85666,"velocity":0.6299212598425197,"duration":0.4053557916666648},{"name":"C#4","midi":61,"time":144.85666,"velocity":0.6299212598425197,"duration":0.4053557916666648},{"name":"C#3","midi":49,"time":145.28523,"velocity":0.6299212598425197,"duration":0.4053557916666648},{"name":"C#2","midi":37,"time":145.71380000000002,"velocity":0.6299212598425197,"duration":0.6089265416666763},{"name":"C#3","midi":49,"time":145.71380000000002,"velocity":0.6299212598425197,"duration":0.6089265416666763},{"name":"C#3","midi":49,"time":146.35665500000002,"velocity":0.6299212598425197,"duration":0.20178504166665334},{"name":"G#3","midi":56,"time":146.57094,"velocity":0.6299212598425197,"duration":0.4053557916666648},{"name":"C#4","midi":61,"time":146.57094,"velocity":0.6299212598425197,"duration":0.4053557916666648},{"name":"C#3","midi":49,"time":146.99951000000001,"velocity":0.6299212598425197,"duration":0.4053557916666648},{"name":"F#2","midi":42,"time":147.42808000000002,"velocity":0.6299212598425197,"duration":0.6089265416666763},{"name":"F#3","midi":54,"time":147.42808000000002,"velocity":0.6299212598425197,"duration":0.6089265416666763},{"name":"F#3","midi":54,"time":148.07093500000002,"velocity":0.6299212598425197,"duration":0.20178504166665334},{"name":"C#4","midi":61,"time":148.28522,"velocity":0.6299212598425197,"duration":0.4053557916666648},{"name":"F#4","midi":66,"time":148.28522,"velocity":0.6299212598425197,"duration":0.4053557916666648},{"name":"F#3","midi":54,"time":148.71379000000002,"velocity":0.6299212598425197,"duration":0.4053557916666648},{"name":"F#2","midi":42,"time":149.14236000000002,"velocity":0.6299212598425197,"duration":0.6089265416666763},{"name":"F#3","midi":54,"time":149.14236000000002,"velocity":0.6299212598425197,"duration":0.6089265416666763},{"name":"F#3","midi":54,"time":149.78521500000002,"velocity":0.6299212598425197,"duration":0.20178504166665334},{"name":"C#4","midi":61,"time":149.9995,"velocity":0.6299212598425197,"duration":0.4053557916666648},{"name":"F#4","midi":66,"time":149.9995,"velocity":0.6299212598425197,"duration":0.4053557916666648},{"name":"F#3","midi":54,"time":150.42807000000002,"velocity":0.6299212598425197,"duration":0.4053557916666648},{"name":"D3","midi":50,"time":150.85664000000003,"velocity":0.6299212598425197,"duration":3.2553462916666547},{"name":"F#3","midi":54,"time":150.85664000000003,"velocity":0.6299212598425197,"duration":3.2553462916666547},{"name":"A3","midi":57,"time":150.85664000000003,"velocity":0.6299212598425197,"duration":3.2553462916666547},{"name":"E3","midi":52,"time":154.2852,"velocity":0.6299212598425197,"duration":3.2553462916666547},{"name":"G#3","midi":56,"time":154.2852,"velocity":0.6299212598425197,"duration":3.2553462916666547},{"name":"B3","midi":59,"time":154.2852,"velocity":0.6299212598425197,"duration":3.2553462916666547},{"name":"C#3","midi":49,"time":157.71375999999998,"velocity":0.6299212598425197,"duration":3.2553462916666547},{"name":"E3","midi":52,"time":157.71375999999998,"velocity":0.6299212598425197,"duration":3.2553462916666547},{"name":"G#3","midi":56,"time":157.71375999999998,"velocity":0.6299212598425197,"duration":3.2553462916666547},{"name":"F#3","midi":54,"time":161.14231999999996,"velocity":0.6299212598425197,"duration":3.2553462916666547},{"name":"A3","midi":57,"time":161.14231999999996,"velocity":0.6299212598425197,"duration":3.2553462916666547},{"name":"C#4","midi":61,"time":161.14231999999996,"velocity":0.6299212598425197,"duration":3.2553462916666547},{"name":"D3","midi":50,"time":164.57087999999993,"velocity":0.6299212598425197,"duration":0.20178504166665334},{"name":"A3","midi":57,"time":164.78516499999992,"velocity":0.6299212598425197,"duration":0.20178504166665334},{"name":"D4","midi":62,"time":164.9994499999999,"velocity":0.6299212598425197,"duration":0.20178504166665334},{"name":"E4","midi":64,"time":165.2137349999999,"velocity":0.6299212598425197,"duration":0.20178504166665334},{"name":"F#4","midi":66,"time":165.4280199999999,"velocity":0.6299212598425197,"duration":0.4053557916666648},{"name":"D4","midi":62,"time":165.8565899999999,"velocity":0.6299212598425197,"duration":0.4053557916666648},{"name":"E3","midi":52,"time":166.2851599999999,"velocity":0.6299212598425197,"duration":0.20178504166665334},{"name":"B3","midi":59,"time":166.4994449999999,"velocity":0.6299212598425197,"duration":0.20178504166665334},{"name":"E4","midi":64,"time":166.71372999999988,"velocity":0.6299212598425197,"duration":0.20178504166665334},{"name":"F#4","midi":66,"time":166.92801499999987,"velocity":0.6299212598425197,"duration":0.20178504166665334},{"name":"G#4","midi":68,"time":167.14229999999986,"velocity":0.6299212598425197,"duration":0.4053557916666648},{"name":"E4","midi":64,"time":167.57086999999987,"velocity":0.6299212598425197,"duration":0.4053557916666648},{"name":"C#3","midi":49,"time":167.99943999999988,"velocity":0.6299212598425197,"duration":0.20178504166665334},{"name":"G#3","midi":56,"time":168.21372499999987,"velocity":0.6299212598425197,"duration":0.20178504166665334},{"name":"C#4","midi":61,"time":168.42800999999986,"velocity":0.6299212598425197,"duration":0.20178504166665334},{"name":"D4","midi":62,"time":168.64229499999985,"velocity":0.6299212598425197,"duration":0.20178504166665334},{"name":"E4","midi":64,"time":168.85657999999984,"velocity":0.6299212598425197,"duration":0.4053557916666648},{"name":"C#4","midi":61,"time":169.28514999999985,"velocity":0.6299212598425197,"duration":0.4053557916666648},{"name":"F#2","midi":42,"time":169.71371999999985,"velocity":0.6299212598425197,"duration":0.20178504166665334},{"name":"C#3","midi":49,"time":169.92800499999984,"velocity":0.6299212598425197,"duration":0.20178504166665334},{"name":"F#3","midi":54,"time":170.14228999999983,"velocity":0.6299212598425197,"duration":0.20178504166665334},{"name":"G#3","midi":56,"time":170.35657499999982,"velocity":0.6299212598425197,"duration":0.20178504166665334},{"name":"A3","midi":57,"time":170.5708599999998,"velocity":0.6299212598425197,"duration":0.4053557916666648},{"name":"F#3","midi":54,"time":170.99942999999982,"velocity":0.6299212598425197,"duration":0.4053557916666648},{"name":"D3","midi":50,"time":171.42799999999983,"velocity":0.6299212598425197,"duration":3.2553462916666547},{"name":"F#3","midi":54,"time":171.42799999999983,"velocity":0.6299212598425197,"duration":3.2553462916666547},{"name":"A3","midi":57,"time":171.42799999999983,"velocity":0.6299212598425197,"duration":3.2553462916666547},{"name":"D4","midi":62,"time":171.42799999999983,"velocity":0.6299212598425197,"duration":3.2553462916666547},{"name":"F#2","midi":42,"time":174.8565599999998,"velocity":0.6299212598425197,"duration":0.4053557916666648},{"name":"C#3","midi":49,"time":174.8565599999998,"velocity":0.6299212598425197,"duration":0.4053557916666648},{"name":"F#2","midi":42,"time":175.2851299999998,"velocity":0.6299212598425197,"duration":0.4053557916666648},{"name":"C#3","midi":49,"time":175.2851299999998,"velocity":0.6299212598425197,"duration":0.4053557916666648},{"name":"F#2","midi":42,"time":175.71369999999982,"velocity":0.6299212598425197,"duration":0.4053557916666648},{"name":"C#3","midi":49,"time":175.71369999999982,"velocity":0.6299212598425197,"duration":0.4053557916666648},{"name":"F#2","midi":42,"time":176.14226999999983,"velocity":0.6299212598425197,"duration":0.4053557916666648},{"name":"D3","midi":50,"time":176.14226999999983,"velocity":0.6299212598425197,"duration":0.4053557916666648},{"name":"E2","midi":40,"time":176.57083999999983,"velocity":0.6299212598425197,"duration":1.2196387916666538},{"name":"B2","midi":47,"time":176.57083999999983,"velocity":0.6299212598425197,"duration":1.2196387916666538},{"name":"E3","midi":52,"time":176.57083999999983,"velocity":0.6299212598425197,"duration":1.2196387916666538},{"name":"D2","midi":38,"time":178.2851199999998,"velocity":0.6299212598425197,"duration":0.6089265416666763},{"name":"D3","midi":50,"time":178.2851199999998,"velocity":0.6299212598425197,"duration":0.6089265416666763},{"name":"D3","midi":50,"time":178.9279749999998,"velocity":0.6299212598425197,"duration":0.20178504166665334},{"name":"A3","midi":57,"time":179.1422599999998,"velocity":0.6299212598425197,"duration":0.4053557916666648},{"name":"D4","midi":62,"time":179.1422599999998,"velocity":0.6299212598425197,"duration":0.4053557916666648},{"name":"D3","midi":50,"time":179.5708299999998,"velocity":0.6299212598425197,"duration":0.4053557916666648},{"name":"D2","midi":38,"time":179.9993999999998,"velocity":0.6299212598425197,"duration":0.6089265416666763},{"name":"D3","midi":50,"time":179.9993999999998,"velocity":0.6299212598425197,"duration":0.6089265416666763},{"name":"D3","midi":50,"time":180.6422549999998,"velocity":0.6299212598425197,"duration":0.20178504166665334},{"name":"A3","midi":57,"time":180.8565399999998,"velocity":0.6299212598425197,"duration":0.4053557916666648},{"name":"D4","midi":62,"time":180.8565399999998,"velocity":0.6299212598425197,"duration":0.4053557916666648},{"name":"D3","midi":50,"time":181.2851099999998,"velocity":0.6299212598425197,"duration":0.4053557916666648},{"name":"E2","midi":40,"time":181.7136799999998,"velocity":0.6299212598425197,"duration":0.6089265416666763},{"name":"E3","midi":52,"time":181.7136799999998,"velocity":0.6299212598425197,"duration":0.6089265416666763},{"name":"E3","midi":52,"time":182.3565349999998,"velocity":0.6299212598425197,"duration":0.20178504166665334},{"name":"B3","midi":59,"time":182.5708199999998,"velocity":0.6299212598425197,"duration":0.4053557916666648},{"name":"E4","midi":64,"time":182.5708199999998,"velocity":0.6299212598425197,"duration":0.4053557916666648},{"name":"E3","midi":52,"time":182.9993899999998,"velocity":0.6299212598425197,"duration":0.4053557916666648},{"name":"E2","midi":40,"time":183.4279599999998,"velocity":0.6299212598425197,"duration":0.6089265416666763},{"name":"E3","midi":52,"time":183.4279599999998,"velocity":0.6299212598425197,"duration":0.6089265416666763},{"name":"E3","midi":52,"time":184.0708149999998,"velocity":0.6299212598425197,"duration":0.20178504166665334},{"name":"B3","midi":59,"time":184.2850999999998,"velocity":0.6299212598425197,"duration":0.4053557916666648},{"name":"E4","midi":64,"time":184.2850999999998,"velocity":0.6299212598425197,"duration":0.4053557916666648},{"name":"E3","midi":52,"time":184.7136699999998,"velocity":0.6299212598425197,"duration":0.4053557916666648},{"name":"C#2","midi":37,"time":185.14223999999982,"velocity":0.6299212598425197,"duration":0.6089265416666763},{"name":"C#3","midi":49,"time":185.14223999999982,"velocity":0.6299212598425197,"duration":0.6089265416666763},{"name":"C#3","midi":49,"time":185.7850949999998,"velocity":0.6299212598425197,"duration":0.20178504166665334},{"name":"G#3","midi":56,"time":185.9993799999998,"velocity":0.6299212598425197,"duration":0.4053557916666648},{"name":"C#4","midi":61,"time":185.9993799999998,"velocity":0.6299212598425197,"duration":0.4053557916666648},{"name":"C#3","midi":49,"time":186.4279499999998,"velocity":0.6299212598425197,"duration":0.4053557916666648},{"name":"C#2","midi":37,"time":186.85651999999982,"velocity":0.6299212598425197,"duration":0.6089265416666763},{"name":"C#3","midi":49,"time":186.85651999999982,"velocity":0.6299212598425197,"duration":0.6089265416666763},{"name":"C#3","midi":49,"time":187.49937499999982,"velocity":0.6299212598425197,"duration":0.20178504166665334},{"name":"G#3","midi":56,"time":187.7136599999998,"velocity":0.6299212598425197,"duration":0.4053557916666648},{"name":"C#4","midi":61,"time":187.7136599999998,"velocity":0.6299212598425197,"duration":0.4053557916666648},{"name":"C#3","midi":49,"time":188.1422299999998,"velocity":0.6299212598425197,"duration":0.4053557916666648},{"name":"F#1","midi":30,"time":188.57079999999982,"velocity":0.6299212598425197,"duration":0.6089265416666763},{"name":"F#2","midi":42,"time":188.57079999999982,"velocity":0.6299212598425197,"duration":0.6089265416666763},{"name":"F#2","midi":42,"time":189.21365499999982,"velocity":0.6299212598425197,"duration":0.20178504166665334},{"name":"C#3","midi":49,"time":189.4279399999998,"velocity":0.6299212598425197,"duration":0.4053557916666648},{"name":"F#3","midi":54,"time":189.4279399999998,"velocity":0.6299212598425197,"duration":0.4053557916666648},{"name":"F#2","midi":42,"time":189.85650999999982,"velocity":0.6299212598425197,"duration":0.4053557916666648},{"name":"F#1","midi":30,"time":190.28507999999982,"velocity":0.6299212598425197,"duration":0.6089265416666763},{"name":"F#2","midi":42,"time":190.28507999999982,"velocity":0.6299212598425197,"duration":0.6089265416666763},{"name":"F#2","midi":42,"time":190.92793499999982,"velocity":0.6299212598425197,"duration":0.20178504166665334},{"name":"C#3","midi":49,"time":191.1422199999998,"velocity":0.6299212598425197,"duration":0.4053557916666648},{"name":"F#3","midi":54,"time":191.1422199999998,"velocity":0.6299212598425197,"duration":0.4053557916666648},{"name":"F#2","midi":42,"time":191.57078999999982,"velocity":0.6299212598425197,"duration":0.4053557916666648},{"name":"D2","midi":38,"time":191.99935999999983,"velocity":0.6299212598425197,"duration":0.6089265416666763},{"name":"D3","midi":50,"time":191.99935999999983,"velocity":0.6299212598425197,"duration":0.6089265416666763},{"name":"D3","midi":50,"time":192.64221499999982,"velocity":0.6299212598425197,"duration":0.20178504166665334},{"name":"A3","midi":57,"time":192.8564999999998,"velocity":0.6299212598425197,"duration":0.4053557916666648},{"name":"D4","midi":62,"time":192.8564999999998,"velocity":0.6299212598425197,"duration":0.4053557916666648},{"name":"D3","midi":50,"time":193.28506999999982,"velocity":0.6299212598425197,"duration":0.4053557916666648},{"name":"D2","midi":38,"time":193.71363999999983,"velocity":0.6299212598425197,"duration":0.6089265416666763},{"name":"D3","midi":50,"time":193.71363999999983,"velocity":0.6299212598425197,"duration":0.6089265416666763},{"name":"D3","midi":50,"time":194.35649499999982,"velocity":0.6299212598425197,"duration":0.20178504166665334},{"name":"A3","midi":57,"time":194.57077999999981,"velocity":0.6299212598425197,"duration":0.4053557916666648},{"name":"D4","midi":62,"time":194.57077999999981,"velocity":0.6299212598425197,"duration":0.4053557916666648},{"name":"D3","midi":50,"time":194.99934999999982,"velocity":0.6299212598425197,"duration":0.4053557916666648},{"name":"E2","midi":40,"time":195.42791999999983,"velocity":0.6299212598425197,"duration":0.6089265416666763},{"name":"E3","midi":52,"time":195.42791999999983,"velocity":0.6299212598425197,"duration":0.6089265416666763},{"name":"E3","midi":52,"time":196.07077499999983,"velocity":0.6299212598425197,"duration":0.20178504166665334},{"name":"B3","midi":59,"time":196.28505999999982,"velocity":0.6299212598425197,"duration":0.4053557916666648},{"name":"E4","midi":64,"time":196.28505999999982,"velocity":0.6299212598425197,"duration":0.4053557916666648},{"name":"E3","midi":52,"time":196.71362999999982,"velocity":0.6299212598425197,"duration":0.4053557916666648},{"name":"E2","midi":40,"time":197.14219999999983,"velocity":0.6299212598425197,"duration":0.6089265416666763},{"name":"E3","midi":52,"time":197.14219999999983,"velocity":0.6299212598425197,"duration":0.6089265416666763},{"name":"E3","midi":52,"time":197.78505499999983,"velocity":0.6299212598425197,"duration":0.20178504166665334},{"name":"B3","midi":59,"time":197.99933999999982,"velocity":0.6299212598425197,"duration":0.4053557916666648},{"name":"E4","midi":64,"time":197.99933999999982,"velocity":0.6299212598425197,"duration":0.4053557916666648},{"name":"E3","midi":52,"time":198.42790999999983,"velocity":0.6299212598425197,"duration":0.4053557916666648},{"name":"C#2","midi":37,"time":198.85647999999983,"velocity":0.6299212598425197,"duration":0.6089265416666763},{"name":"C#3","midi":49,"time":198.85647999999983,"velocity":0.6299212598425197,"duration":0.6089265416666763},{"name":"C#3","midi":49,"time":199.49933499999983,"velocity":0.6299212598425197,"duration":0.20178504166665334},{"name":"G#3","midi":56,"time":199.71361999999982,"velocity":0.6299212598425197,"duration":0.4053557916666648},{"name":"C#4","midi":61,"time":199.71361999999982,"velocity":0.6299212598425197,"duration":0.4053557916666648},{"name":"C#3","midi":49,"time":200.14218999999983,"velocity":0.6299212598425197,"duration":0.4053557916666648},{"name":"C#2","midi":37,"time":200.57075999999984,"velocity":0.6299212598425197,"duration":0.6089265416666763},{"name":"C#3","midi":49,"time":200.57075999999984,"velocity":0.6299212598425197,"duration":0.6089265416666763},{"name":"C#3","midi":49,"time":201.21361499999983,"velocity":0.6299212598425197,"duration":0.20178504166665334},{"name":"G#3","midi":56,"time":201.42789999999982,"velocity":0.6299212598425197,"duration":0.4053557916666648},{"name":"C#4","midi":61,"time":201.42789999999982,"velocity":0.6299212598425197,"duration":0.4053557916666648},{"name":"C#3","midi":49,"time":201.85646999999983,"velocity":0.6299212598425197,"duration":0.4053557916666648},{"name":"F#1","midi":30,"time":202.28503999999984,"velocity":0.6299212598425197,"duration":0.6089265416666763},{"name":"F#2","midi":42,"time":202.28503999999984,"velocity":0.6299212598425197,"duration":0.6089265416666763},{"name":"F#2","midi":42,"time":202.92789499999984,"velocity":0.6299212598425197,"duration":0.20178504166665334},{"name":"C#3","midi":49,"time":203.14217999999983,"velocity":0.6299212598425197,"duration":0.4053557916666648},{"name":"F#3","midi":54,"time":203.14217999999983,"velocity":0.6299212598425197,"duration":0.4053557916666648},{"name":"F#2","midi":42,"time":203.57074999999983,"velocity":0.6299212598425197,"duration":0.4053557916666648},{"name":"F#1","midi":30,"time":203.99931999999984,"velocity":0.6299212598425197,"duration":0.6089265416666763},{"name":"F#2","midi":42,"time":203.99931999999984,"velocity":0.6299212598425197,"duration":0.6089265416666763},{"name":"F#2","midi":42,"time":204.64217499999984,"velocity":0.6299212598425197,"duration":0.20178504166665334},{"name":"C#3","midi":49,"time":204.85645999999983,"velocity":0.6299212598425197,"duration":0.4053557916666648},{"name":"F#3","midi":54,"time":204.85645999999983,"velocity":0.6299212598425197,"duration":0.4053557916666648},{"name":"F#2","midi":42,"time":205.28502999999984,"velocity":0.6299212598425197,"duration":0.4053557916666648},{"name":"D2","midi":38,"time":205.71359999999984,"velocity":0.6299212598425197,"duration":0.8124972916666593},{"name":"D3","midi":50,"time":205.71359999999984,"velocity":0.6299212598425197,"duration":0.8124972916666593},{"name":"D3","midi":50,"time":206.57073999999983,"velocity":0.6299212598425197,"duration":0.8124972916666593},{"name":"F#3","midi":54,"time":206.57073999999983,"velocity":0.6299212598425197,"duration":0.8124972916666593},{"name":"A3","midi":57,"time":206.57073999999983,"velocity":0.6299212598425197,"duration":0.8124972916666593},{"name":"D3","midi":50,"time":207.42787999999982,"velocity":0.6299212598425197,"duration":0.8124972916666593},{"name":"F#3","midi":54,"time":207.42787999999982,"velocity":0.6299212598425197,"duration":0.8124972916666593},{"name":"A3","midi":57,"time":207.42787999999982,"velocity":0.6299212598425197,"duration":0.8124972916666593},{"name":"D3","midi":50,"time":208.2850199999998,"velocity":0.6299212598425197,"duration":0.8124972916666593},{"name":"F#3","midi":54,"time":208.2850199999998,"velocity":0.6299212598425197,"duration":0.8124972916666593},{"name":"A3","midi":57,"time":208.2850199999998,"velocity":0.6299212598425197,"duration":0.8124972916666593},{"name":"E2","midi":40,"time":209.1421599999998,"velocity":0.6299212598425197,"duration":0.8124972916666593},{"name":"E3","midi":52,"time":209.1421599999998,"velocity":0.6299212598425197,"duration":0.8124972916666593},{"name":"E3","midi":52,"time":209.99929999999978,"velocity":0.6299212598425197,"duration":0.8124972916666593},{"name":"G#3","midi":56,"time":209.99929999999978,"velocity":0.6299212598425197,"duration":0.8124972916666593},{"name":"B3","midi":59,"time":209.99929999999978,"velocity":0.6299212598425197,"duration":0.8124972916666593},{"name":"E3","midi":52,"time":210.85643999999976,"velocity":0.6299212598425197,"duration":0.8124972916666593},{"name":"G#3","midi":56,"time":210.85643999999976,"velocity":0.6299212598425197,"duration":0.8124972916666593},{"name":"B3","midi":59,"time":210.85643999999976,"velocity":0.6299212598425197,"duration":0.8124972916666593},{"name":"E3","midi":52,"time":211.71357999999975,"velocity":0.6299212598425197,"duration":0.8124972916666593},{"name":"G#3","midi":56,"time":211.71357999999975,"velocity":0.6299212598425197,"duration":0.8124972916666593},{"name":"B3","midi":59,"time":211.71357999999975,"velocity":0.6299212598425197,"duration":0.8124972916666593},{"name":"C#2","midi":37,"time":212.57071999999974,"velocity":0.6299212598425197,"duration":0.8124972916666593},{"name":"C#3","midi":49,"time":212.57071999999974,"velocity":0.6299212598425197,"duration":0.8124972916666593},{"name":"C#3","midi":49,"time":213.42785999999973,"velocity":0.6299212598425197,"duration":0.8124972916666593},{"name":"E3","midi":52,"time":213.42785999999973,"velocity":0.6299212598425197,"duration":0.8124972916666593},{"name":"G#3","midi":56,"time":213.42785999999973,"velocity":0.6299212598425197,"duration":0.8124972916666593},{"name":"C#3","midi":49,"time":214.2849999999997,"velocity":0.6299212598425197,"duration":0.8124972916666593},{"name":"E3","midi":52,"time":214.2849999999997,"velocity":0.6299212598425197,"duration":0.8124972916666593},{"name":"G#3","midi":56,"time":214.2849999999997,"velocity":0.6299212598425197,"duration":0.8124972916666593},{"name":"C#3","midi":49,"time":215.1421399999997,"velocity":0.6299212598425197,"duration":0.8124972916666593},{"name":"E3","midi":52,"time":215.1421399999997,"velocity":0.6299212598425197,"duration":0.8124972916666593},{"name":"G#3","midi":56,"time":215.1421399999997,"velocity":0.6299212598425197,"duration":0.8124972916666593},{"name":"F#2","midi":42,"time":215.9992799999997,"velocity":0.6299212598425197,"duration":0.8124972916666593},{"name":"C#3","midi":49,"time":215.9992799999997,"velocity":0.6299212598425197,"duration":0.8124972916666593},{"name":"F#3","midi":54,"time":215.9992799999997,"velocity":0.6299212598425197,"duration":0.8124972916666593},{"name":"F#2","midi":42,"time":216.85641999999967,"velocity":0.6299212598425197,"duration":0.8124972916666593},{"name":"C#3","midi":49,"time":216.85641999999967,"velocity":0.6299212598425197,"duration":0.8124972916666593},{"name":"F#3","midi":54,"time":216.85641999999967,"velocity":0.6299212598425197,"duration":0.8124972916666593},{"name":"F#2","midi":42,"time":217.71355999999966,"velocity":0.6299212598425197,"duration":0.8124972916666593},{"name":"C#3","midi":49,"time":217.71355999999966,"velocity":0.6299212598425197,"duration":0.8124972916666593},{"name":"F#3","midi":54,"time":217.71355999999966,"velocity":0.6299212598425197,"duration":0.8124972916666593},{"name":"B2","midi":47,"time":218.57069999999965,"velocity":0.6299212598425197,"duration":0.4053557916666648},{"name":"B3","midi":59,"time":218.57069999999965,"velocity":0.6299212598425197,"duration":0.4053557916666648},{"name":"A2","midi":45,"time":218.99926999999965,"velocity":0.6299212598425197,"duration":0.4053557916666648},{"name":"A3","midi":57,"time":218.99926999999965,"velocity":0.6299212598425197,"duration":0.4053557916666648},{"name":"F#1","midi":30,"time":219.42783999999966,"velocity":0.6299212598425197,"duration":3.2553462916666547},{"name":"F#2","midi":42,"time":219.42783999999966,"velocity":0.6299212598425197,"duration":3.2553462916666547}]}]}