{"header":{"title":"Spring Day","artist":"BTS","source":"https://musescore.com/bunnipoo/spring_day_-_bts","bpm":109.99970666744889,"duration":263.9995676333333},"tracks":[{"instrument_number":0,"notes":[{"duration":0.4079556333333333,"durationTicks":359,"midi":60,"name":"C4","ticks":0,"time":0,"velocity":0.3858267716535433},{"duration":0.40795563333333323,"durationTicks":359,"midi":67,"name":"G4","ticks":360,"time":0.40909199999999996,"velocity":0.3858267716535433},{"duration":0.27159163333333314,"durationTicks":239,"midi":67,"name":"G4","ticks":720,"time":0.8181839999999999,"velocity":0.3858267716535433},{"duration":0.4079556333333334,"durationTicks":359,"midi":67,"name":"G4","ticks":960,"time":1.0909119999999999,"velocity":0.3858267716535433},{"duration":0.4079556333333334,"durationTicks":359,"midi":65,"name":"F4","ticks":1320,"time":1.500004,"velocity":0.3858267716535433},{"duration":0.27159163333333325,"durationTicks":239,"midi":65,"name":"F4","ticks":1680,"time":1.909096,"velocity":0.3858267716535433},{"duration":0.4079556333333332,"durationTicks":359,"midi":65,"name":"F4","ticks":1920,"time":2.1818239999999998,"velocity":0.3858267716535433},{"duration":0.4079556333333336,"durationTicks":359,"midi":63,"name":"D#4","ticks":2280,"time":2.5909159999999996,"velocity":0.3858267716535433},{"duration":0.27159163333333325,"durationTicks":239,"midi":63,"name":"D#4","ticks":2640,"time":3.000008,"velocity":0.3858267716535433},{"duration":0.4079556333333332,"durationTicks":359,"midi":63,"name":"D#4","ticks":2880,"time":3.2727359999999996,"velocity":0.3858267716535433},{"duration":0.4079556333333336,"durationTicks":359,"midi":60,"name":"C4","ticks":3240,"time":3.6818279999999994,"velocity":0.3858267716535433},{"duration":0.4079556333333336,"durationTicks":359,"midi":60,"name":"C4","ticks":3840,"time":4.3636479999999995,"velocity":0.3858267716535433},{"duration":0.40795563333333273,"durationTicks":359,"midi":67,"name":"G4","ticks":4200,"time":4.77274,"velocity":0.3858267716535433},{"duration":0.27159163333333414,"durationTicks":239,"midi":67,"name":"G4","ticks":4560,"time":5.181831999999999,"velocity":0.3858267716535433},{"duration":0.4079556333333336,"durationTicks":359,"midi":67,"name":"G4","ticks":4800,"time":5.454559999999999,"velocity":0.3858267716535433},{"duration":0.4079556333333336,"durationTicks":359,"midi":65,"name":"F4","ticks":5160,"time":5.863651999999999,"velocity":0.3858267716535433},{"duration":0.27159163333333325,"durationTicks":239,"midi":65,"name":"F4","ticks":5520,"time":6.272743999999999,"velocity":0.3858267716535433},{"duration":0.4079556333333336,"durationTicks":359,"midi":65,"name":"F4","ticks":5760,"time":6.545471999999999,"velocity":0.3858267716535433},{"duration":0.40795563333333273,"durationTicks":359,"midi":63,"name":"D#4","ticks":6120,"time":6.9545639999999995,"velocity":0.3858267716535433},{"duration":0.27159163333333414,"durationTicks":239,"midi":63,"name":"D#4","ticks":6480,"time":7.363655999999999,"velocity":0.3858267716535433},{"duration":0.4079556333333336,"durationTicks":359,"midi":63,"name":"D#4","ticks":6720,"time":7.636384,"velocity":0.3858267716535433},{"duration":0.4079556333333336,"durationTicks":359,"midi":65,"name":"F4","ticks":7080,"time":8.045475999999999,"velocity":0.3858267716535433},{"duration":0.40795563333333185,"durationTicks":359,"midi":60,"name":"C4","ticks":7680,"time":8.727295999999999,"velocity":0.3858267716535433},{"duration":0.4079556333333336,"durationTicks":359,"midi":67,"name":"G4","ticks":8040,"time":9.136387999999998,"velocity":0.3858267716535433},{"duration":0.2715916333333315,"durationTicks":239,"midi":67,"name":"G4","ticks":8400,"time":9.54548,"velocity":0.3858267716535433},{"duration":0.4079556333333336,"durationTicks":359,"midi":67,"name":"G4","ticks":8640,"time":9.818207999999998,"velocity":0.3858267716535433},{"duration":0.40795563333333185,"durationTicks":359,"midi":65,"name":"F4","ticks":9000,"time":10.2273,"velocity":0.3858267716535433},{"duration":0.2715916333333315,"durationTicks":239,"midi":65,"name":"F4","ticks":9360,"time":10.636391999999999,"velocity":0.3858267716535433},{"duration":0.4079556333333336,"durationTicks":359,"midi":65,"name":"F4","ticks":9600,"time":10.909119999999998,"velocity":0.3858267716535433},{"duration":0.40795563333333185,"durationTicks":359,"midi":63,"name":"D#4","ticks":9960,"time":11.318211999999999,"velocity":0.3858267716535433},{"duration":0.27159163333333325,"durationTicks":239,"midi":63,"name":"D#4","ticks":10320,"time":11.727303999999998,"velocity":0.3858267716535433},{"duration":0.40795563333333185,"durationTicks":359,"midi":63,"name":"D#4","ticks":10560,"time":12.000032,"velocity":0.3858267716535433},{"duration":0.40795563333333185,"durationTicks":359,"midi":60,"name":"C4","ticks":10920,"time":12.409123999999998,"velocity":0.3858267716535433},{"duration":0.40795563333333185,"durationTicks":359,"midi":60,"name":"C4","ticks":11520,"time":13.090943999999999,"velocity":0.3858267716535433},{"duration":0.4079556333333336,"durationTicks":359,"midi":67,"name":"G4","ticks":11880,"time":13.500035999999998,"velocity":0.3858267716535433},{"duration":0.2715916333333315,"durationTicks":239,"midi":67,"name":"G4","ticks":12240,"time":13.909127999999999,"velocity":0.3858267716535433},{"duration":0.4079556333333336,"durationTicks":359,"midi":67,"name":"G4","ticks":12480,"time":14.181855999999998,"velocity":0.3858267716535433},{"duration":0.40795563333333185,"durationTicks":359,"midi":65,"name":"F4","ticks":12840,"time":14.590948,"velocity":0.3858267716535433},{"duration":0.2715916333333315,"durationTicks":239,"midi":65,"name":"F4","ticks":13200,"time":15.000039999999998,"velocity":0.3858267716535433},{"duration":0.40795563333333185,"durationTicks":359,"midi":65,"name":"F4","ticks":13440,"time":15.272768,"velocity":0.3858267716535433},{"duration":0.40795563333333185,"durationTicks":359,"midi":63,"name":"D#4","ticks":13800,"time":15.681859999999999,"velocity":0.47244094488188976},{"duration":0.27159163333333325,"durationTicks":239,"midi":63,"name":"D#4","ticks":14160,"time":16.090951999999998,"velocity":0.5669291338582677},{"duration":0.27159163333333325,"durationTicks":239,"midi":63,"name":"D#4","ticks":14400,"time":16.36368,"velocity":0.6299212598425197},{"duration":0.13522763333333288,"durationTicks":119,"midi":63,"name":"D#4","ticks":14640,"time":16.636408,"velocity":0.6299212598425197},{"duration":0.40795563333333007,"durationTicks":359,"midi":65,"name":"F4","ticks":14760,"time":16.772772,"velocity":0.6299212598425197},{"duration":0.27159163333333325,"durationTicks":239,"midi":63,"name":"D#4","ticks":15120,"time":17.181863999999997,"velocity":0.6299212598425197},{"duration":0.544319633333334,"durationTicks":479,"midi":63,"name":"D#4","ticks":15360,"time":17.454591999999998,"velocity":0.6299212598425197},{"duration":0.13522763333333643,"durationTicks":119,"midi":58,"name":"A#3","ticks":17040,"time":19.363687999999996,"velocity":0.6299212598425197},{"duration":0.13522763333333643,"durationTicks":119,"midi":58,"name":"A#3","ticks":17160,"time":19.500051999999997,"velocity":0.6299212598425197},{"duration":0.2715916333333368,"durationTicks":239,"midi":67,"name":"G4","ticks":17280,"time":19.636415999999997,"velocity":0.6299212598425197},{"duration":0.13522763333333288,"durationTicks":119,"midi":67,"name":"G4","ticks":17520,"time":19.909143999999998,"velocity":0.6299212598425197},{"duration":0.13522763333333288,"durationTicks":119,"midi":67,"name":"G4","ticks":17640,"time":20.045507999999998,"velocity":0.6299212598425197},{"duration":0.27159163333333325,"durationTicks":239,"midi":67,"name":"G4","ticks":17760,"time":20.181872,"velocity":0.6299212598425197},{"duration":0.13522763333333288,"durationTicks":119,"midi":65,"name":"F4","ticks":18000,"time":20.4546,"velocity":0.6299212598425197},{"duration":0.4079556333333372,"durationTicks":359,"midi":65,"name":"F4","ticks":18120,"time":20.590963999999996,"velocity":0.6299212598425197},{"duration":0.27159163333333325,"durationTicks":239,"midi":63,"name":"D#4","ticks":18480,"time":21.000055999999997,"velocity":0.6299212598425197},{"duration":0.27159163333333325,"durationTicks":239,"midi":65,"name":"F4","ticks":18720,"time":21.272783999999998,"velocity":0.6299212598425197},{"duration":0.27159163333333325,"durationTicks":239,"midi":63,"name":"D#4","ticks":18960,"time":21.545512,"velocity":0.6299212598425197},{"duration":0.5443196333333375,"durationTicks":479,"midi":63,"name":"D#4","ticks":19200,"time":21.818239999999996,"velocity":0.6299212598425197},{"duration":0.27159163333333325,"durationTicks":239,"midi":58,"name":"A#3","ticks":20640,"time":23.454607999999997,"velocity":0.6299212598425197},{"duration":0.27159163333333325,"durationTicks":239,"midi":58,"name":"A#3","ticks":20880,"time":23.727335999999998,"velocity":0.6299212598425197},{"duration":0.13522763333333288,"durationTicks":119,"midi":67,"name":"G4","ticks":21120,"time":24.000064,"velocity":0.6299212598425197},{"duration":0.13522763333333288,"durationTicks":119,"midi":67,"name":"G4","ticks":21240,"time":24.136428,"velocity":0.6299212598425197},{"duration":0.13522763333333288,"durationTicks":119,"midi":67,"name":"G4","ticks":21360,"time":24.272792,"velocity":0.6299212598425197},{"duration":0.13522763333333643,"durationTicks":119,"midi":67,"name":"G4","ticks":21480,"time":24.409155999999996,"velocity":0.6299212598425197},{"duration":0.2715916333333368,"durationTicks":239,"midi":67,"name":"G4","ticks":21600,"time":24.545519999999996,"velocity":0.6299212598425197},{"duration":0.13522763333333643,"durationTicks":119,"midi":65,"name":"F4","ticks":21840,"time":24.818247999999997,"velocity":0.6299212598425197},{"duration":0.4079556333333336,"durationTicks":359,"midi":65,"name":"F4","ticks":21960,"time":24.954611999999997,"velocity":0.6299212598425197},{"duration":0.27159163333333325,"durationTicks":239,"midi":63,"name":"D#4","ticks":22320,"time":25.363704,"velocity":0.6299212598425197},{"duration":0.2715916333333368,"durationTicks":239,"midi":65,"name":"F4","ticks":22560,"time":25.636431999999996,"velocity":0.6299212598425197},{"duration":0.2715916333333368,"durationTicks":239,"midi":63,"name":"D#4","ticks":22800,"time":25.909159999999996,"velocity":0.6299212598425197},{"duration":0.544319633333334,"durationTicks":479,"midi":63,"name":"D#4","ticks":23040,"time":26.181887999999997,"velocity":0.6299212598425197},{"duration":0.13522763333333643,"durationTicks":119,"midi":63,"name":"D#4","ticks":23760,"time":27.000071999999996,"velocity":0.6299212598425197},{"duration":0.4079556333333336,"durationTicks":359,"midi":63,"name":"D#4","ticks":23880,"time":27.136435999999996,"velocity":0.6299212598425197},{"duration":0.27159163333333325,"durationTicks":239,"midi":63,"name":"D#4","ticks":24240,"time":27.545527999999997,"velocity":0.6299212598425197},{"duration":0.27159163333333325,"durationTicks":239,"midi":65,"name":"F4","ticks":24480,"time":27.818255999999998,"velocity":0.6299212598425197},{"duration":0.2715916333333368,"durationTicks":239,"midi":63,"name":"D#4","ticks":24720,"time":28.090983999999995,"velocity":0.6299212598425197},{"duration":0.544319633333334,"durationTicks":479,"midi":63,"name":"D#4","ticks":24960,"time":28.363711999999996,"velocity":0.6299212598425197},{"duration":0.13522763333333288,"durationTicks":119,"midi":63,"name":"D#4","ticks":25680,"time":29.181896,"velocity":0.6299212598425197},{"duration":0.4079556333333372,"durationTicks":359,"midi":63,"name":"D#4","ticks":25800,"time":29.318259999999995,"velocity":0.6299212598425197},{"duration":0.27159163333333325,"durationTicks":239,"midi":63,"name":"D#4","ticks":26160,"time":29.727351999999996,"velocity":0.6299212598425197},{"duration":0.27159163333333325,"durationTicks":239,"midi":65,"name":"F4","ticks":26400,"time":30.000079999999997,"velocity":0.6299212598425197},{"duration":0.27159163333333325,"durationTicks":239,"midi":58,"name":"A#3","ticks":26640,"time":30.272807999999998,"velocity":0.6299212598425197},{"duration":0.27159163333333325,"durationTicks":239,"midi":67,"name":"G4","ticks":26880,"time":30.545536,"velocity":0.6299212598425197},{"duration":0.13522763333333643,"durationTicks":119,"midi":67,"name":"G4","ticks":27120,"time":30.818263999999996,"velocity":0.6299212598425197},{"duration":0.13522763333333643,"durationTicks":119,"midi":67,"name":"G4","ticks":27240,"time":30.954627999999996,"velocity":0.6299212598425197},{"duration":0.13522763333333288,"durationTicks":119,"midi":67,"name":"G4","ticks":27360,"time":31.090991999999996,"velocity":0.6299212598425197},{"duration":0.13522763333333288,"durationTicks":119,"midi":58,"name":"A#3","ticks":27480,"time":31.227355999999997,"velocity":0.6299212598425197},{"duration":0.27159163333333325,"durationTicks":239,"midi":58,"name":"A#3","ticks":27600,"time":31.363719999999997,"velocity":0.6299212598425197},{"duration":0.13522763333333288,"durationTicks":119,"midi":67,"name":"G4","ticks":27840,"time":31.636447999999998,"velocity":0.6299212598425197},{"duration":0.13522763333333288,"durationTicks":119,"midi":67,"name":"G4","ticks":27960,"time":31.772812,"velocity":0.6299212598425197},{"duration":0.13522763333333643,"durationTicks":119,"midi":67,"name":"G4","ticks":28080,"time":31.909175999999995,"velocity":0.6299212598425197},{"duration":0.4079556333333372,"durationTicks":359,"midi":67,"name":"G4","ticks":28200,"time":32.045539999999995,"velocity":0.6299212598425197},{"duration":0.2715916333333368,"durationTicks":239,"midi":58,"name":"A#3","ticks":28560,"time":32.454632,"velocity":0.6299212598425197},{"duration":0.2715916333333368,"durationTicks":239,"midi":65,"name":"F4","ticks":28800,"time":32.72736,"velocity":0.6299212598425197},{"duration":0.13522763333332932,"durationTicks":119,"midi":58,"name":"A#3","ticks":29040,"time":33.000088,"velocity":0.6299212598425197},{"duration":0.40795563333333007,"durationTicks":359,"midi":65,"name":"F4","ticks":29160,"time":33.136452,"velocity":0.6299212598425197},{"duration":0.2715916333333297,"durationTicks":239,"midi":63,"name":"D#4","ticks":29520,"time":33.545544,"velocity":0.6299212598425197},{"duration":0.5443196333333375,"durationTicks":479,"midi":63,"name":"D#4","ticks":29760,"time":33.81827199999999,"velocity":0.6299212598425197},{"duration":0.4079556333333372,"durationTicks":359,"midi":60,"name":"C4","ticks":30720,"time":34.909183999999996,"velocity":0.3858267716535433},{"duration":0.40795563333333007,"durationTicks":359,"midi":67,"name":"G4","ticks":31080,"time":35.318276,"velocity":0.3858267716535433},{"duration":0.2715916333333297,"durationTicks":239,"midi":67,"name":"G4","ticks":31440,"time":35.727368,"velocity":0.3858267716535433},{"duration":0.40795563333333007,"durationTicks":359,"midi":67,"name":"G4","ticks":31680,"time":36.000096,"velocity":0.3858267716535433},{"duration":0.4079556333333372,"durationTicks":359,"midi":65,"name":"F4","ticks":32040,"time":36.40918799999999,"velocity":0.3858267716535433},{"duration":0.2715916333333368,"durationTicks":239,"midi":65,"name":"F4","ticks":32400,"time":36.818279999999994,"velocity":0.3858267716535433},{"duration":0.4079556333333372,"durationTicks":359,"midi":65,"name":"F4","ticks":32640,"time":37.091007999999995,"velocity":0.3858267716535433},{"duration":0.4079556333333372,"durationTicks":359,"midi":63,"name":"D#4","ticks":33000,"time":37.500099999999996,"velocity":0.3858267716535433},{"duration":0.2715916333333297,"durationTicks":239,"midi":63,"name":"D#4","ticks":33360,"time":37.909192,"velocity":0.3858267716535433},{"duration":0.40795563333333007,"durationTicks":359,"midi":63,"name":"D#4","ticks":33600,"time":38.18192,"velocity":0.3858267716535433},{"duration":0.40795563333333007,"durationTicks":359,"midi":60,"name":"C4","ticks":33960,"time":38.591012,"velocity":0.3858267716535433},{"duration":0.4079556333333372,"durationTicks":359,"midi":60,"name":"C4","ticks":34560,"time":39.272831999999994,"velocity":0.3858267716535433},{"duration":0.4079556333333372,"durationTicks":359,"midi":67,"name":"G4","ticks":34920,"time":39.681923999999995,"velocity":0.3858267716535433},{"duration":0.2715916333333368,"durationTicks":239,"midi":67,"name":"G4","ticks":35280,"time":40.091015999999996,"velocity":0.3858267716535433},{"duration":0.40795563333333007,"durationTicks":359,"midi":67,"name":"G4","ticks":35520,"time":40.363744,"velocity":0.3858267716535433},{"duration":0.40795563333333007,"durationTicks":359,"midi":65,"name":"F4","ticks":35880,"time":40.772836,"velocity":0.3858267716535433},{"duration":0.2715916333333368,"durationTicks":239,"midi":65,"name":"F4","ticks":36240,"time":41.18192799999999,"velocity":0.3858267716535433},{"duration":0.4079556333333372,"durationTicks":359,"midi":65,"name":"F4","ticks":36480,"time":41.45465599999999,"velocity":0.3858267716535433},{"duration":0.4079556333333372,"durationTicks":359,"midi":63,"name":"D#4","ticks":36840,"time":41.863747999999994,"velocity":0.3858267716535433},{"duration":0.2715916333333368,"durationTicks":239,"midi":63,"name":"D#4","ticks":37200,"time":42.272839999999995,"velocity":0.4409448818897638},{"duration":0.4079556333333372,"durationTicks":359,"midi":63,"name":"D#4","ticks":37440,"time":42.545567999999996,"velocity":0.47244094488188976},{"duration":0.40795563333333007,"durationTicks":359,"midi":65,"name":"F4","ticks":37800,"time":42.95466,"velocity":0.5354330708661418},{"duration":0.2715916333333368,"durationTicks":239,"midi":67,"name":"G4","ticks":38400,"time":43.63647999999999,"velocity":0.6299212598425197},{"duration":0.13522763333333643,"durationTicks":119,"midi":67,"name":"G4","ticks":38640,"time":43.90920799999999,"velocity":0.7559055118110236},{"duration":0.4079556333333372,"durationTicks":359,"midi":67,"name":"G4","ticks":38760,"time":44.04557199999999,"velocity":0.7559055118110236},{"duration":0.2715916333333368,"durationTicks":239,"midi":67,"name":"G4","ticks":39120,"time":44.454663999999994,"velocity":0.7559055118110236},{"duration":0.2715916333333368,"durationTicks":239,"midi":70,"name":"A#4","ticks":39360,"time":44.727391999999995,"velocity":0.7559055118110236},{"duration":0.13522763333333643,"durationTicks":119,"midi":70,"name":"A#4","ticks":39600,"time":45.000119999999995,"velocity":0.7559055118110236},{"duration":0.40795563333333007,"durationTicks":359,"midi":70,"name":"A#4","ticks":39720,"time":45.136483999999996,"velocity":0.7559055118110236},{"duration":0.2715916333333297,"durationTicks":239,"midi":65,"name":"F4","ticks":40080,"time":45.545576,"velocity":0.7559055118110236},{"duration":0.2715916333333297,"durationTicks":239,"midi":65,"name":"F4","ticks":40320,"time":45.818304,"velocity":0.7559055118110236},{"duration":0.13522763333332932,"durationTicks":119,"midi":65,"name":"F4","ticks":40560,"time":46.091032,"velocity":0.7559055118110236},{"duration":0.4079556333333372,"durationTicks":359,"midi":65,"name":"F4","ticks":40680,"time":46.22739599999999,"velocity":0.7559055118110236},{"duration":0.2715916333333368,"durationTicks":239,"midi":63,"name":"D#4","ticks":41040,"time":46.63648799999999,"velocity":0.7559055118110236},{"duration":0.5443196333333375,"durationTicks":479,"midi":65,"name":"F4","ticks":41280,"time":46.909215999999994,"velocity":0.7559055118110236},{"duration":0.2715916333333368,"durationTicks":239,"midi":67,"name":"G4","ticks":41760,"time":47.454671999999995,"velocity":0.7559055118110236},{"duration":0.2715916333333368,"durationTicks":239,"midi":60,"name":"C4","ticks":42000,"time":47.727399999999996,"velocity":0.7559055118110236},{"duration":0.2715916333333297,"durationTicks":239,"midi":67,"name":"G4","ticks":42240,"time":48.000128,"velocity":0.7559055118110236},{"duration":0.13522763333332932,"durationTicks":119,"midi":67,"name":"G4","ticks":42480,"time":48.272856,"velocity":0.7559055118110236},{"duration":0.40795563333333007,"durationTicks":359,"midi":67,"name":"G4","ticks":42600,"time":48.40922,"velocity":0.7559055118110236},{"duration":0.2715916333333368,"durationTicks":239,"midi":60,"name":"C4","ticks":42960,"time":48.81831199999999,"velocity":0.7559055118110236},{"duration":0.2715916333333368,"durationTicks":239,"midi":67,"name":"G4","ticks":43200,"time":49.09103999999999,"velocity":0.7559055118110236},{"duration":0.13522763333333643,"durationTicks":119,"midi":67,"name":"G4","ticks":43440,"time":49.36376799999999,"velocity":0.7559055118110236},{"duration":0.2715916333333368,"durationTicks":239,"midi":67,"name":"G4","ticks":43560,"time":49.500131999999994,"velocity":0.7559055118110236},{"duration":0.2715916333333368,"durationTicks":239,"midi":65,"name":"F4","ticks":43920,"time":49.909223999999995,"velocity":0.7559055118110236},{"duration":0.2715916333333368,"durationTicks":239,"midi":65,"name":"F4","ticks":44160,"time":50.181951999999995,"velocity":0.7559055118110236},{"duration":0.13522763333332932,"durationTicks":119,"midi":65,"name":"F4","ticks":44400,"time":50.454679999999996,"velocity":0.7559055118110236},{"duration":0.2715916333333297,"durationTicks":239,"midi":65,"name":"F4","ticks":44520,"time":50.591044,"velocity":0.7559055118110236},{"duration":0.40795563333333007,"durationTicks":359,"midi":65,"name":"F4","ticks":44760,"time":50.863772,"velocity":0.7559055118110236},{"duration":0.5443196333333375,"durationTicks":479,"midi":63,"name":"D#4","ticks":45120,"time":51.27286399999999,"velocity":0.7559055118110236},{"duration":0.2715916333333368,"durationTicks":239,"midi":58,"name":"A#3","ticks":45840,"time":52.091047999999994,"velocity":0.7559055118110236},{"duration":0.5443196333333375,"durationTicks":479,"midi":67,"name":"G4","ticks":46080,"time":52.363775999999994,"velocity":0.7559055118110236},{"duration":0.5443196333333304,"durationTicks":479,"midi":63,"name":"D#4","ticks":46560,"time":52.909231999999996,"velocity":0.7559055118110236},{"duration":0.40795563333333007,"durationTicks":359,"midi":63,"name":"D#4","ticks":47040,"time":53.454688,"velocity":0.7559055118110236},{"duration":0.13522763333333643,"durationTicks":119,"midi":63,"name":"D#4","ticks":47400,"time":53.86377999999999,"velocity":0.7559055118110236},{"duration":0.2715916333333368,"durationTicks":239,"midi":63,"name":"D#4","ticks":47520,"time":54.00014399999999,"velocity":0.7559055118110236},{"duration":0.8170476333333383,"durationTicks":719,"midi":62,"name":"D4","ticks":47760,"time":54.27287199999999,"velocity":0.7559055118110236},{"duration":0.5443196333333304,"durationTicks":479,"midi":58,"name":"A#3","ticks":48480,"time":55.091055999999995,"velocity":0.7559055118110236},{"duration":0.40795563333333007,"durationTicks":359,"midi":65,"name":"F4","ticks":48960,"time":55.636511999999996,"velocity":0.7559055118110236},{"duration":0.13522763333332932,"durationTicks":119,"midi":63,"name":"D#4","ticks":49320,"time":56.045604,"velocity":0.7559055118110236},{"duration":0.2715916333333368,"durationTicks":239,"midi":62,"name":"D4","ticks":49440,"time":56.18196799999999,"velocity":0.7559055118110236},{"duration":0.8170476333333383,"durationTicks":719,"midi":63,"name":"D#4","ticks":49680,"time":56.45469599999999,"velocity":0.7559055118110236},{"duration":0.5443196333333375,"durationTicks":479,"midi":58,"name":"A#3","ticks":50400,"time":57.272879999999994,"velocity":0.7559055118110236},{"duration":0.40795563333333007,"durationTicks":359,"midi":65,"name":"F4","ticks":50880,"time":57.818335999999995,"velocity":0.7559055118110236},{"duration":0.13522763333332932,"durationTicks":119,"midi":63,"name":"D#4","ticks":51240,"time":58.227427999999996,"velocity":0.7559055118110236},{"duration":0.2715916333333297,"durationTicks":239,"midi":62,"name":"D4","ticks":51360,"time":58.363792,"velocity":0.7559055118110236},{"duration":0.5443196333333375,"durationTicks":479,"midi":63,"name":"D#4","ticks":51600,"time":58.63651999999999,"velocity":0.7559055118110236},{"duration":0.8170476333333383,"durationTicks":719,"midi":65,"name":"F4","ticks":52080,"time":59.18197599999999,"velocity":0.7559055118110236},{"duration":0.2715916333333297,"durationTicks":239,"midi":65,"name":"F4","ticks":53520,"time":60.818343999999996,"velocity":0.7559055118110236},{"duration":0.5443196333333304,"durationTicks":479,"midi":67,"name":"G4","ticks":53760,"time":61.091072,"velocity":0.7559055118110236},{"duration":0.5443196333333375,"durationTicks":479,"midi":63,"name":"D#4","ticks":54240,"time":61.63652799999999,"velocity":0.7559055118110236},{"duration":0.4079556333333372,"durationTicks":359,"midi":63,"name":"D#4","ticks":54720,"time":62.18198399999999,"velocity":0.7559055118110236},{"duration":0.13522763333333643,"durationTicks":119,"midi":63,"name":"D#4","ticks":55080,"time":62.591075999999994,"velocity":0.7559055118110236},{"duration":0.2715916333333297,"durationTicks":239,"midi":63,"name":"D#4","ticks":55200,"time":62.727439999999994,"velocity":0.7559055118110236},{"duration":0.5443196333333304,"durationTicks":479,"midi":65,"name":"F4","ticks":55440,"time":63.000167999999995,"velocity":0.7559055118110236},{"duration":0.5443196333333375,"durationTicks":479,"midi":63,"name":"D#4","ticks":55920,"time":63.545624,"velocity":0.7559055118110236},{"duration":0.2715916333333297,"durationTicks":239,"midi":58,"name":"A#3","ticks":56400,"time":64.09107999999999,"velocity":0.7559055118110236},{"duration":0.2715916333333297,"durationTicks":239,"midi":63,"name":"D#4","ticks":56640,"time":64.36380799999999,"velocity":0.7559055118110236},{"duration":0.2715916333333297,"durationTicks":239,"midi":65,"name":"F4","ticks":56880,"time":64.63653599999999,"velocity":0.7559055118110236},{"duration":0.2715916333333297,"durationTicks":239,"midi":67,"name":"G4","ticks":57120,"time":64.909264,"velocity":0.7559055118110236},{"duration":0.8170476333333312,"durationTicks":719,"midi":67,"name":"G4","ticks":57360,"time":65.181992,"velocity":0.7559055118110236},{"duration":0.2715916333333297,"durationTicks":239,"midi":67,"name":"G4","ticks":58080,"time":66.000176,"velocity":0.7559055118110236},{"duration":0.2715916333333297,"durationTicks":239,"midi":67,"name":"G4","ticks":58320,"time":66.272904,"velocity":0.7559055118110236},{"duration":0.40795563333333007,"durationTicks":359,"midi":68,"name":"G#4","ticks":58560,"time":66.545632,"velocity":0.7559055118110236},{"duration":0.40795563333333007,"durationTicks":359,"midi":67,"name":"G4","ticks":58920,"time":66.954724,"velocity":0.7559055118110236},{"duration":0.2715916333333439,"durationTicks":239,"midi":65,"name":"F4","ticks":59280,"time":67.36381599999999,"velocity":0.7559055118110236},{"duration":0.2715916333333439,"durationTicks":239,"midi":65,"name":"F4","ticks":59520,"time":67.63654399999999,"velocity":0.7559055118110236},{"duration":0.2715916333333439,"durationTicks":239,"midi":63,"name":"D#4","ticks":59760,"time":67.90927199999999,"velocity":0.7559055118110236},{"duration":0.5443196333333447,"durationTicks":479,"midi":65,"name":"F4","ticks":60000,"time":68.18199999999999,"velocity":0.7559055118110236},{"duration":0.5443196333333304,"durationTicks":479,"midi":63,"name":"D#4","ticks":60480,"time":68.72745599999999,"velocity":0.7559055118110236},{"duration":0.5443196333333304,"durationTicks":479,"midi":67,"name":"G4","ticks":60960,"time":69.27291199999999,"velocity":0.7559055118110236},{"duration":0.8170476333333312,"durationTicks":719,"midi":67,"name":"G4","ticks":61440,"time":69.81836799999999,"velocity":0.7559055118110236},{"duration":0.2715916333333297,"durationTicks":239,"midi":67,"name":"G4","ticks":62160,"time":70.636552,"velocity":0.7559055118110236},{"duration":0.5443196333333304,"durationTicks":479,"midi":67,"name":"G4","ticks":62400,"time":70.90928,"velocity":0.7559055118110236},{"duration":0.5443196333333304,"durationTicks":479,"midi":63,"name":"D#4","ticks":62880,"time":71.454736,"velocity":0.7559055118110236},{"duration":0.8170476333333312,"durationTicks":719,"midi":65,"name":"F4","ticks":63360,"time":72.000192,"velocity":0.7559055118110236},{"duration":0.2715916333333439,"durationTicks":239,"midi":63,"name":"D#4","ticks":64080,"time":72.81837599999999,"velocity":0.7559055118110236},{"duration":0.5443196333333447,"durationTicks":479,"midi":63,"name":"D#4","ticks":64320,"time":73.09110399999999,"velocity":0.7559055118110236},{"duration":0.5443196333333447,"durationTicks":479,"midi":67,"name":"G4","ticks":64800,"time":73.63655999999999,"velocity":0.7559055118110236},{"duration":0.8170476333333312,"durationTicks":719,"midi":67,"name":"G4","ticks":65280,"time":74.18201599999999,"velocity":0.7559055118110236},{"duration":0.2715916333333297,"durationTicks":239,"midi":67,"name":"G4","ticks":66000,"time":75.00019999999999,"velocity":0.7559055118110236},{"duration":0.5443196333333304,"durationTicks":479,"midi":67,"name":"G4","ticks":66240,"time":75.272928,"velocity":0.7559055118110236},{"duration":0.5443196333333304,"durationTicks":479,"midi":63,"name":"D#4","ticks":66720,"time":75.818384,"velocity":0.7559055118110236},{"duration":0.5443196333333304,"durationTicks":479,"midi":65,"name":"F4","ticks":67200,"time":76.36384,"velocity":0.7559055118110236},{"duration":0.2715916333333297,"durationTicks":239,"midi":63,"name":"D#4","ticks":67920,"time":77.182024,"velocity":0.7559055118110236},{"duration":0.5443196333333447,"durationTicks":479,"midi":63,"name":"D#4","ticks":68160,"time":77.45475199999998,"velocity":0.7559055118110236},{"duration":0.5443196333333447,"durationTicks":479,"midi":70,"name":"A#4","ticks":68640,"time":78.00020799999999,"velocity":0.7559055118110236},{"duration":0.2715916333333439,"durationTicks":239,"midi":67,"name":"G4","ticks":69120,"time":78.54566399999999,"velocity":0.7559055118110236},{"duration":0.5443196333333304,"durationTicks":479,"midi":65,"name":"F4","ticks":69360,"time":78.81839199999999,"velocity":0.7559055118110236},{"duration":0.2715916333333297,"durationTicks":239,"midi":63,"name":"D#4","ticks":69840,"time":79.36384799999999,"velocity":0.6299212598425197},{"duration":0.5443196333333304,"durationTicks":479,"midi":63,"name":"D#4","ticks":70080,"time":79.63657599999999,"velocity":0.6299212598425197},{"duration":0.5443196333333304,"durationTicks":479,"midi":62,"name":"D4","ticks":70560,"time":80.18203199999999,"velocity":0.6299212598425197},{"duration":0.2715916333333297,"durationTicks":239,"midi":58,"name":"A#3","ticks":71040,"time":80.727488,"velocity":0.6299212598425197},{"duration":0.27272800000000075,"durationTicks":240,"midi":55,"name":"G3","ticks":71280,"time":81.000216,"velocity":0.6299212598425197},{"duration":0.2715916333333297,"durationTicks":239,"midi":63,"name":"D#4","ticks":71760,"time":81.545672,"velocity":0.7559055118110236},{"duration":0.5443196333333304,"durationTicks":479,"midi":63,"name":"D#4","ticks":72000,"time":81.8184,"velocity":0.7559055118110236},{"duration":0.5443196333333447,"durationTicks":479,"midi":70,"name":"A#4","ticks":72480,"time":82.36385599999998,"velocity":0.7559055118110236},{"duration":0.2715916333333439,"durationTicks":239,"midi":67,"name":"G4","ticks":72960,"time":82.90931199999999,"velocity":0.7559055118110236},{"duration":0.5443196333333447,"durationTicks":479,"midi":65,"name":"F4","ticks":73200,"time":83.18203999999999,"velocity":0.7559055118110236},{"duration":0.2715916333333439,"durationTicks":239,"midi":63,"name":"D#4","ticks":73680,"time":83.72749599999999,"velocity":0.6299212598425197},{"duration":0.5443196333333304,"durationTicks":479,"midi":63,"name":"D#4","ticks":73920,"time":84.00022399999999,"velocity":0.6299212598425197},{"duration":0.5443196333333304,"durationTicks":479,"midi":62,"name":"D4","ticks":74400,"time":84.54567999999999,"velocity":0.6299212598425197},{"duration":0.2715916333333297,"durationTicks":239,"midi":58,"name":"A#3","ticks":74880,"time":85.09113599999999,"velocity":0.6299212598425197},{"duration":0.5443196333333304,"durationTicks":479,"midi":55,"name":"G3","ticks":75120,"time":85.36386399999999,"velocity":0.6299212598425197},{"duration":0.5443196333333304,"durationTicks":479,"midi":63,"name":"D#4","ticks":75840,"time":86.182048,"velocity":0.7559055118110236},{"duration":0.5443196333333304,"durationTicks":479,"midi":67,"name":"G4","ticks":76320,"time":86.727504,"velocity":0.7559055118110236},{"duration":0.8170476333333454,"durationTicks":719,"midi":67,"name":"G4","ticks":76800,"time":87.27295999999998,"velocity":0.7559055118110236},{"duration":0.2715916333333439,"durationTicks":239,"midi":67,"name":"G4","ticks":77520,"time":88.09114399999999,"velocity":0.7559055118110236},{"duration":0.2715916333333439,"durationTicks":239,"midi":67,"name":"G4","ticks":77760,"time":88.36387199999999,"velocity":0.7559055118110236},{"duration":0.2715916333333439,"durationTicks":239,"midi":65,"name":"F4","ticks":78000,"time":88.63659999999999,"velocity":0.7559055118110236},{"duration":0.5443196333333304,"durationTicks":479,"midi":63,"name":"D#4","ticks":78240,"time":88.90932799999999,"velocity":0.7559055118110236},{"duration":0.8170476333333312,"durationTicks":719,"midi":65,"name":"F4","ticks":78720,"time":89.45478399999999,"velocity":0.7559055118110236},{"duration":0.2715916333333297,"durationTicks":239,"midi":63,"name":"D#4","ticks":79440,"time":90.27296799999999,"velocity":0.7559055118110236},{"duration":0.5443196333333304,"durationTicks":479,"midi":63,"name":"D#4","ticks":79680,"time":90.54569599999999,"velocity":0.7559055118110236},{"duration":0.5443196333333304,"durationTicks":479,"midi":67,"name":"G4","ticks":80160,"time":91.091152,"velocity":0.7559055118110236},{"duration":0.8170476333333312,"durationTicks":719,"midi":67,"name":"G4","ticks":80640,"time":91.636608,"velocity":0.7559055118110236},{"duration":0.2715916333333439,"durationTicks":239,"midi":67,"name":"G4","ticks":81360,"time":92.45479199999998,"velocity":0.7559055118110236},{"duration":0.5443196333333447,"durationTicks":479,"midi":67,"name":"G4","ticks":81600,"time":92.72751999999998,"velocity":0.7559055118110236},{"duration":0.5443196333333447,"durationTicks":479,"midi":63,"name":"D#4","ticks":82080,"time":93.27297599999999,"velocity":0.7559055118110236},{"duration":0.5443196333333304,"durationTicks":479,"midi":65,"name":"F4","ticks":82560,"time":93.81843199999999,"velocity":0.7559055118110236},{"duration":0.2715916333333297,"durationTicks":239,"midi":63,"name":"D#4","ticks":83280,"time":94.63661599999999,"velocity":0.7559055118110236},{"duration":0.2715916333333297,"durationTicks":239,"midi":63,"name":"D#4","ticks":83520,"time":94.90934399999999,"velocity":0.7559055118110236},{"duration":0.2715916333333297,"durationTicks":239,"midi":63,"name":"D#4","ticks":83760,"time":95.18207199999999,"velocity":0.7559055118110236},{"duration":0.5443196333333304,"durationTicks":479,"midi":70,"name":"A#4","ticks":84000,"time":95.45479999999999,"velocity":0.7559055118110236},{"duration":0.2715916333333297,"durationTicks":239,"midi":67,"name":"G4","ticks":84480,"time":96.000256,"velocity":0.7559055118110236},{"duration":0.5443196333333304,"durationTicks":479,"midi":65,"name":"F4","ticks":84720,"time":96.272984,"velocity":0.7559055118110236},{"duration":0.2715916333333297,"durationTicks":239,"midi":63,"name":"D#4","ticks":85200,"time":96.81844,"velocity":0.6299212598425197},{"duration":0.2715916333333297,"durationTicks":239,"midi":63,"name":"D#4","ticks":85440,"time":97.091168,"velocity":0.6299212598425197},{"duration":0.2715916333333439,"durationTicks":239,"midi":63,"name":"D#4","ticks":85680,"time":97.36389599999998,"velocity":0.6299212598425197},{"duration":0.5443196333333447,"durationTicks":479,"midi":62,"name":"D4","ticks":85920,"time":97.63662399999998,"velocity":0.6299212598425197},{"duration":0.2715916333333439,"durationTicks":239,"midi":58,"name":"A#3","ticks":86400,"time":98.18207999999998,"velocity":0.6299212598425197},{"duration":0.27272800000000075,"durationTicks":240,"midi":55,"name":"G3","ticks":86640,"time":98.45480799999999,"velocity":0.6299212598425197},{"duration":0.2715916333333297,"durationTicks":239,"midi":63,"name":"D#4","ticks":87120,"time":99.00026399999999,"velocity":0.7559055118110236},{"duration":0.2715916333333297,"durationTicks":239,"midi":63,"name":"D#4","ticks":87360,"time":99.27299199999999,"velocity":0.7559055118110236},{"duration":0.2715916333333297,"durationTicks":239,"midi":63,"name":"D#4","ticks":87600,"time":99.54571999999999,"velocity":0.7559055118110236},{"duration":0.5443196333333304,"durationTicks":479,"midi":70,"name":"A#4","ticks":87840,"time":99.81844799999999,"velocity":0.7559055118110236},{"duration":0.2715916333333297,"durationTicks":239,"midi":67,"name":"G4","ticks":88320,"time":100.36390399999999,"velocity":0.7559055118110236},{"duration":0.5443196333333304,"durationTicks":479,"midi":65,"name":"F4","ticks":88560,"time":100.63663199999999,"velocity":0.7559055118110236},{"duration":0.2715916333333297,"durationTicks":239,"midi":63,"name":"D#4","ticks":89040,"time":101.182088,"velocity":0.6299212598425197},{"duration":0.2715916333333297,"durationTicks":239,"midi":63,"name":"D#4","ticks":89280,"time":101.454816,"velocity":0.6299212598425197},{"duration":0.2715916333333297,"durationTicks":239,"midi":63,"name":"D#4","ticks":89520,"time":101.727544,"velocity":0.6299212598425197},{"duration":0.5443196333333304,"durationTicks":479,"midi":62,"name":"D4","ticks":89760,"time":102.000272,"velocity":0.6299212598425197},{"duration":0.5443196333333447,"durationTicks":479,"midi":58,"name":"A#3","ticks":90240,"time":102.54572799999998,"velocity":0.6299212598425197},{"duration":0.5443196333333447,"durationTicks":479,"midi":58,"name":"A#3","ticks":90720,"time":103.09118399999998,"velocity":0.7559055118110236},{"duration":0.5443196333333304,"durationTicks":479,"midi":68,"name":"G#4","ticks":91200,"time":103.63663999999999,"velocity":0.7559055118110236},{"duration":1.089775633333332,"durationTicks":959,"midi":67,"name":"G4","ticks":91680,"time":104.18209599999999,"velocity":0.7559055118110236},{"duration":0.5443196333333304,"durationTicks":479,"midi":67,"name":"G4","ticks":92640,"time":105.27300799999999,"velocity":0.7559055118110236},{"duration":0.5443196333333304,"durationTicks":479,"midi":67,"name":"G4","ticks":93120,"time":105.81846399999999,"velocity":0.7559055118110236},{"duration":0.2715916333333297,"durationTicks":239,"midi":67,"name":"G4","ticks":93600,"time":106.36392,"velocity":0.7559055118110236},{"duration":0.2715916333333297,"durationTicks":239,"midi":67,"name":"G4","ticks":93840,"time":106.636648,"velocity":0.7559055118110236},{"duration":0.2715916333333297,"durationTicks":239,"midi":68,"name":"G#4","ticks":94080,"time":106.909376,"velocity":0.7559055118110236},{"duration":0.2715916333333297,"durationTicks":239,"midi":67,"name":"G4","ticks":94320,"time":107.182104,"velocity":0.7559055118110236},{"duration":0.2715916333333439,"durationTicks":239,"midi":65,"name":"F4","ticks":94560,"time":107.45483199999998,"velocity":0.7559055118110236},{"duration":0.5443196333333447,"durationTicks":479,"midi":65,"name":"F4","ticks":94800,"time":107.72755999999998,"velocity":0.7559055118110236},{"duration":0.5443196333333447,"durationTicks":479,"midi":67,"name":"G4","ticks":95280,"time":108.27301599999998,"velocity":0.7559055118110236},{"duration":0.2715916333333297,"durationTicks":239,"midi":67,"name":"G4","ticks":96480,"time":109.63665599999999,"velocity":0.7559055118110236},{"duration":0.2715916333333297,"durationTicks":239,"midi":67,"name":"G4","ticks":96720,"time":109.90938399999999,"velocity":0.7559055118110236},{"duration":0.5443196333333304,"durationTicks":479,"midi":67,"name":"G4","ticks":96960,"time":110.18211199999999,"velocity":0.7559055118110236},{"duration":0.2715916333333297,"durationTicks":239,"midi":67,"name":"G4","ticks":97440,"time":110.72756799999999,"velocity":0.7559055118110236},{"duration":0.2715916333333297,"durationTicks":239,"midi":67,"name":"G4","ticks":97680,"time":111.00029599999999,"velocity":0.7559055118110236},{"duration":0.2715916333333297,"durationTicks":239,"midi":68,"name":"G#4","ticks":97920,"time":111.27302399999999,"velocity":0.7559055118110236},{"duration":0.2715916333333297,"durationTicks":239,"midi":67,"name":"G4","ticks":98160,"time":111.545752,"velocity":0.7559055118110236},{"duration":0.2715916333333297,"durationTicks":239,"midi":65,"name":"F4","ticks":98400,"time":111.81848,"velocity":0.7559055118110236},{"duration":0.8170476333333312,"durationTicks":719,"midi":65,"name":"F4","ticks":98640,"time":112.091208,"velocity":0.7559055118110236},{"duration":0.2715916333333439,"durationTicks":239,"midi":67,"name":"G4","ticks":99360,"time":112.90939199999998,"velocity":0.7559055118110236},{"duration":0.2715916333333439,"durationTicks":239,"midi":67,"name":"G4","ticks":99600,"time":113.18211999999998,"velocity":0.7559055118110236},{"duration":0.2715916333333439,"durationTicks":239,"midi":68,"name":"G#4","ticks":99840,"time":113.45484799999998,"velocity":0.7559055118110236},{"duration":0.2715916333333439,"durationTicks":239,"midi":67,"name":"G4","ticks":100080,"time":113.72757599999998,"velocity":0.7559055118110236},{"duration":0.2715916333333297,"durationTicks":239,"midi":63,"name":"D#4","ticks":100320,"time":114.00030399999999,"velocity":0.7559055118110236},{"duration":0.8170476333333312,"durationTicks":719,"midi":63,"name":"D#4","ticks":100560,"time":114.27303199999999,"velocity":0.7559055118110236},{"duration":0.2715916333333297,"durationTicks":239,"midi":65,"name":"F4","ticks":101280,"time":115.09121599999999,"velocity":0.7559055118110236},{"duration":0.8170476333333312,"durationTicks":719,"midi":62,"name":"D4","ticks":101520,"time":115.36394399999999,"velocity":0.7559055118110236},{"duration":0.2715916333333297,"durationTicks":239,"midi":58,"name":"A#3","ticks":102480,"time":116.45485599999999,"velocity":0.7559055118110236},{"duration":0,"durationTicks":0,"midi":58,"name":"A#3","ticks":102720,"time":116.727584,"velocity":0.7559055118110236},{"duration":0.2715916333333297,"durationTicks":239,"midi":60,"name":"C4","ticks":102960,"time":117.000312,"velocity":0.7559055118110236},{"duration":0.2715916333333439,"durationTicks":239,"midi":62,"name":"D4","ticks":103200,"time":117.27303999999998,"velocity":0.7559055118110236},{"duration":0.8170476333333454,"durationTicks":719,"midi":63,"name":"D#4","ticks":103440,"time":117.54576799999998,"velocity":0.7559055118110236},{"duration":0.2715916333333439,"durationTicks":239,"midi":65,"name":"F4","ticks":104160,"time":118.36395199999998,"velocity":0.7559055118110236},{"duration":0.8170476333333312,"durationTicks":719,"midi":65,"name":"F4","ticks":104400,"time":118.63667999999998,"velocity":0.7559055118110236},{"duration":0.2715916333333297,"durationTicks":239,"midi":63,"name":"D#4","ticks":105120,"time":119.45486399999999,"velocity":0.7559055118110236},{"duration":0.8170476333333312,"durationTicks":719,"midi":63,"name":"D#4","ticks":105360,"time":119.72759199999999,"velocity":0.7559055118110236},{"duration":0.2715916333333297,"durationTicks":239,"midi":59,"name":"B3","ticks":106080,"time":120.54577599999999,"velocity":0.7559055118110236},{"duration":0.8170476333333312,"durationTicks":719,"midi":59,"name":"B3","ticks":106320,"time":120.81850399999999,"velocity":0.7559055118110236},{"duration":0.2715916333333297,"durationTicks":239,"midi":59,"name":"B3","ticks":107040,"time":121.63668799999999,"velocity":0.7559055118110236},{"duration":0.8170476333333312,"durationTicks":719,"midi":58,"name":"A#3","ticks":107280,"time":121.909416,"velocity":0.7559055118110236},{"duration":0.13522763333334353,"durationTicks":119,"midi":63,"name":"D#4","ticks":108480,"time":123.27305599999998,"velocity":0.5039370078740157},{"duration":0.13522763333334353,"durationTicks":119,"midi":63,"name":"D#4","ticks":108600,"time":123.40941999999998,"velocity":0.5039370078740157},{"duration":0.13522763333334353,"durationTicks":119,"midi":63,"name":"D#4","ticks":108720,"time":123.54578399999998,"velocity":0.5039370078740157},{"duration":0.13522763333334353,"durationTicks":119,"midi":60,"name":"C4","ticks":108840,"time":123.68214799999998,"velocity":0.5039370078740157},{"duration":0.2715916333333297,"durationTicks":239,"midi":63,"name":"D#4","ticks":108960,"time":123.81851199999998,"velocity":0.5039370078740157},{"duration":0.2715916333333297,"durationTicks":239,"midi":65,"name":"F4","ticks":109200,"time":124.09123999999998,"velocity":0.5039370078740157},{"duration":0.13522763333332932,"durationTicks":119,"midi":63,"name":"D#4","ticks":110400,"time":125.45487999999999,"velocity":0.5039370078740157},{"duration":0.13522763333332932,"durationTicks":119,"midi":63,"name":"D#4","ticks":110520,"time":125.59124399999999,"velocity":0.5039370078740157},{"duration":0.13522763333332932,"durationTicks":119,"midi":63,"name":"D#4","ticks":110640,"time":125.72760799999999,"velocity":0.5039370078740157},{"duration":0.13522763333332932,"durationTicks":119,"midi":60,"name":"C4","ticks":110760,"time":125.86397199999999,"velocity":0.5039370078740157},{"duration":0.2715916333333297,"durationTicks":239,"midi":63,"name":"D#4","ticks":110880,"time":126.00033599999999,"velocity":0.5039370078740157},{"duration":0.2715916333333297,"durationTicks":239,"midi":60,"name":"C4","ticks":111120,"time":126.27306399999999,"velocity":0.5039370078740157},{"duration":0.13522763333334353,"durationTicks":119,"midi":63,"name":"D#4","ticks":112320,"time":127.63670399999998,"velocity":0.5039370078740157},{"duration":0.13522763333334353,"durationTicks":119,"midi":63,"name":"D#4","ticks":112440,"time":127.77306799999998,"velocity":0.5039370078740157},{"duration":0.13522763333332932,"durationTicks":119,"midi":63,"name":"D#4","ticks":112560,"time":127.90943199999998,"velocity":0.5039370078740157},{"duration":0.13522763333332932,"durationTicks":119,"midi":60,"name":"C4","ticks":112680,"time":128.045796,"velocity":0.5039370078740157},{"duration":0.2715916333333439,"durationTicks":239,"midi":63,"name":"D#4","ticks":112800,"time":128.18215999999998,"velocity":0.5039370078740157},{"duration":0.2715916333333439,"durationTicks":239,"midi":65,"name":"F4","ticks":113040,"time":128.45488799999998,"velocity":0.5039370078740157},{"duration":0.13522763333332932,"durationTicks":119,"midi":63,"name":"D#4","ticks":114240,"time":129.818528,"velocity":0.5039370078740157},{"duration":0.13522763333335774,"durationTicks":119,"midi":63,"name":"D#4","ticks":114360,"time":129.95489199999997,"velocity":0.5039370078740157},{"duration":0.13522763333332932,"durationTicks":119,"midi":63,"name":"D#4","ticks":114480,"time":130.091256,"velocity":0.5039370078740157},{"duration":0.13522763333335774,"durationTicks":119,"midi":60,"name":"C4","ticks":114600,"time":130.22761999999997,"velocity":0.5039370078740157},{"duration":0.2715916333333439,"durationTicks":239,"midi":67,"name":"G4","ticks":114720,"time":130.363984,"velocity":0.5039370078740157},{"duration":0.2715916333333439,"durationTicks":239,"midi":65,"name":"F4","ticks":114960,"time":130.636712,"velocity":0.5039370078740157},{"duration":0.40795563333333007,"durationTicks":359,"midi":63,"name":"D#4","ticks":115200,"time":130.90944,"velocity":0.5039370078740157},{"duration":0.40795563333333007,"durationTicks":359,"midi":67,"name":"G4","ticks":115560,"time":131.31853199999998,"velocity":0.5039370078740157},{"duration":0.2715916333333155,"durationTicks":239,"midi":67,"name":"G4","ticks":115920,"time":131.727624,"velocity":0.5039370078740157},{"duration":0.40795563333333007,"durationTicks":359,"midi":67,"name":"G4","ticks":116160,"time":132.000352,"velocity":0.5039370078740157},{"duration":0.40795563333333007,"durationTicks":359,"midi":65,"name":"F4","ticks":116520,"time":132.40944399999998,"velocity":0.5039370078740157},{"duration":0.2715916333333155,"durationTicks":239,"midi":65,"name":"F4","ticks":116880,"time":132.818536,"velocity":0.5039370078740157},{"duration":0.40795563333333007,"durationTicks":359,"midi":65,"name":"F4","ticks":117120,"time":133.091264,"velocity":0.5039370078740157},{"duration":0.40795563333333007,"durationTicks":359,"midi":63,"name":"D#4","ticks":117480,"time":133.50035599999998,"velocity":0.5039370078740157},{"duration":0.2715916333333155,"durationTicks":239,"midi":63,"name":"D#4","ticks":117840,"time":133.909448,"velocity":0.5039370078740157},{"duration":0.40795563333333007,"durationTicks":359,"midi":63,"name":"D#4","ticks":118080,"time":134.182176,"velocity":0.5039370078740157},{"duration":0.40795563333333007,"durationTicks":359,"midi":60,"name":"C4","ticks":118440,"time":134.59126799999999,"velocity":0.5039370078740157},{"duration":0.4079556333333585,"durationTicks":359,"midi":60,"name":"C4","ticks":119040,"time":135.27308799999997,"velocity":0.5039370078740157},{"duration":0.40795563333333007,"durationTicks":359,"midi":67,"name":"G4","ticks":119400,"time":135.68218,"velocity":0.5039370078740157},{"duration":0.2715916333333439,"durationTicks":239,"midi":67,"name":"G4","ticks":119760,"time":136.09127199999998,"velocity":0.5039370078740157},{"duration":0.40795563333333007,"durationTicks":359,"midi":67,"name":"G4","ticks":120000,"time":136.36399999999998,"velocity":0.5039370078740157},{"duration":0.40795563333333007,"durationTicks":359,"midi":65,"name":"F4","ticks":120360,"time":136.773092,"velocity":0.5039370078740157},{"duration":0.2715916333333439,"durationTicks":239,"midi":65,"name":"F4","ticks":120720,"time":137.18218399999998,"velocity":0.5039370078740157},{"duration":0.40795563333333007,"durationTicks":359,"midi":65,"name":"F4","ticks":120960,"time":137.45491199999998,"velocity":0.5039370078740157},{"duration":0.40795563333333007,"durationTicks":359,"midi":63,"name":"D#4","ticks":121320,"time":137.864004,"velocity":0.5039370078740157},{"duration":0.2715916333333439,"durationTicks":239,"midi":63,"name":"D#4","ticks":121680,"time":138.27309599999998,"velocity":0.5039370078740157},{"duration":0.40795563333333007,"durationTicks":359,"midi":63,"name":"D#4","ticks":121920,"time":138.54582399999998,"velocity":0.5039370078740157},{"duration":0.40795563333333007,"durationTicks":359,"midi":65,"name":"F4","ticks":122280,"time":138.954916,"velocity":0.5039370078740157},{"duration":0.2715916333333439,"durationTicks":239,"midi":58,"name":"A#3","ticks":122640,"time":139.36400799999998,"velocity":0.5039370078740157},{"duration":0.5443196333333162,"durationTicks":479,"midi":67,"name":"G4","ticks":122880,"time":139.63673599999998,"velocity":0.5039370078740157},{"duration":0.5443196333333162,"durationTicks":479,"midi":63,"name":"D#4","ticks":123360,"time":140.182192,"velocity":0.5039370078740157},{"duration":0.40795563333330165,"durationTicks":359,"midi":63,"name":"D#4","ticks":123840,"time":140.727648,"velocity":0.5039370078740157},{"duration":0.13522763333332932,"durationTicks":119,"midi":63,"name":"D#4","ticks":124200,"time":141.13673999999997,"velocity":0.5039370078740157},{"duration":0.2715916333333155,"durationTicks":239,"midi":63,"name":"D#4","ticks":124320,"time":141.273104,"velocity":0.5039370078740157},{"duration":0.817047633333317,"durationTicks":719,"midi":62,"name":"D4","ticks":124560,"time":141.545832,"velocity":0.5039370078740157},{"duration":0.5443196333333162,"durationTicks":479,"midi":58,"name":"A#3","ticks":125280,"time":142.364016,"velocity":0.5039370078740157},{"duration":0.40795563333330165,"durationTicks":359,"midi":65,"name":"F4","ticks":125760,"time":142.909472,"velocity":0.5039370078740157},{"duration":0.13522763333332932,"durationTicks":119,"midi":63,"name":"D#4","ticks":126120,"time":143.31856399999998,"velocity":0.5039370078740157},{"duration":0.2715916333333155,"durationTicks":239,"midi":62,"name":"D4","ticks":126240,"time":143.454928,"velocity":0.5039370078740157},{"duration":0.817047633333317,"durationTicks":719,"midi":63,"name":"D#4","ticks":126480,"time":143.727656,"velocity":0.5039370078740157},{"duration":0.5443196333333162,"durationTicks":479,"midi":58,"name":"A#3","ticks":127200,"time":144.54584,"velocity":0.5039370078740157},{"duration":0.40795563333333007,"durationTicks":359,"midi":65,"name":"F4","ticks":127680,"time":145.09129599999997,"velocity":0.5039370078740157},{"duration":0.13522763333332932,"durationTicks":119,"midi":63,"name":"D#4","ticks":128040,"time":145.500388,"velocity":0.5039370078740157},{"duration":0.2715916333333439,"durationTicks":239,"midi":62,"name":"D4","ticks":128160,"time":145.63675199999997,"velocity":0.5039370078740157},{"duration":0.5443196333333162,"durationTicks":479,"midi":63,"name":"D#4","ticks":128400,"time":145.90947999999997,"velocity":0.5039370078740157},{"duration":0.817047633333317,"durationTicks":719,"midi":65,"name":"F4","ticks":128880,"time":146.45493599999998,"velocity":0.5039370078740157},{"duration":0.2715916333333155,"durationTicks":239,"midi":65,"name":"F4","ticks":130320,"time":148.09130399999998,"velocity":0.5039370078740157},{"duration":0.5443196333333162,"durationTicks":479,"midi":67,"name":"G4","ticks":130560,"time":148.36403199999998,"velocity":0.5039370078740157},{"duration":0.5443196333333162,"durationTicks":479,"midi":63,"name":"D#4","ticks":131040,"time":148.90948799999998,"velocity":0.5039370078740157},{"duration":0.40795563333333007,"durationTicks":359,"midi":63,"name":"D#4","ticks":131520,"time":149.45494399999998,"velocity":0.5039370078740157},{"duration":0.13522763333332932,"durationTicks":119,"midi":63,"name":"D#4","ticks":131880,"time":149.86403599999997,"velocity":0.5039370078740157},{"duration":0.2715916333333155,"durationTicks":239,"midi":63,"name":"D#4","ticks":132000,"time":150.00039999999998,"velocity":0.5039370078740157},{"duration":0.5443196333333162,"durationTicks":479,"midi":65,"name":"F4","ticks":132240,"time":150.27312799999999,"velocity":0.5039370078740157},{"duration":0.5443196333333162,"durationTicks":479,"midi":63,"name":"D#4","ticks":132720,"time":150.818584,"velocity":0.5039370078740157},{"duration":0.2715916333333155,"durationTicks":239,"midi":58,"name":"A#3","ticks":133200,"time":151.36404,"velocity":0.5039370078740157},{"duration":0.2715916333333155,"durationTicks":239,"midi":63,"name":"D#4","ticks":133440,"time":151.636768,"velocity":0.5039370078740157},{"duration":0.2715916333333155,"durationTicks":239,"midi":65,"name":"F4","ticks":133680,"time":151.909496,"velocity":0.5039370078740157},{"duration":0.2715916333333155,"durationTicks":239,"midi":67,"name":"G4","ticks":133920,"time":152.182224,"velocity":0.5039370078740157},{"duration":0.817047633333317,"durationTicks":719,"midi":67,"name":"G4","ticks":134160,"time":152.454952,"velocity":0.5039370078740157},{"duration":0.2715916333333155,"durationTicks":239,"midi":67,"name":"G4","ticks":134880,"time":153.273136,"velocity":0.5039370078740157},{"duration":0.2715916333333155,"durationTicks":239,"midi":67,"name":"G4","ticks":135120,"time":153.545864,"velocity":0.5039370078740157},{"duration":0.40795563333330165,"durationTicks":359,"midi":68,"name":"G#4","ticks":135360,"time":153.818592,"velocity":0.5039370078740157},{"duration":0.40795563333333007,"durationTicks":359,"midi":67,"name":"G4","ticks":135720,"time":154.22768399999998,"velocity":0.5039370078740157},{"duration":0.2715916333333439,"durationTicks":239,"midi":65,"name":"F4","ticks":136080,"time":154.63677599999997,"velocity":0.5039370078740157},{"duration":0.2715916333333439,"durationTicks":239,"midi":65,"name":"F4","ticks":136320,"time":154.90950399999997,"velocity":0.5039370078740157},{"duration":0.2715916333333439,"durationTicks":239,"midi":63,"name":"D#4","ticks":136560,"time":155.18223199999997,"velocity":0.5669291338582677},{"duration":0.5443196333333447,"durationTicks":479,"midi":65,"name":"F4","ticks":136800,"time":155.45495999999997,"velocity":0.6299212598425197},{"duration":0.5443196333333162,"durationTicks":479,"midi":63,"name":"D#4","ticks":137280,"time":156.00041599999997,"velocity":0.7559055118110236},{"duration":0.5443196333333162,"durationTicks":479,"midi":67,"name":"G4","ticks":137760,"time":156.54587199999997,"velocity":0.7559055118110236},{"duration":0.817047633333317,"durationTicks":719,"midi":67,"name":"G4","ticks":138240,"time":157.09132799999998,"velocity":0.7559055118110236},{"duration":0.2715916333333155,"durationTicks":239,"midi":67,"name":"G4","ticks":138960,"time":157.90951199999998,"velocity":0.7559055118110236},{"duration":0.5443196333333162,"durationTicks":479,"midi":67,"name":"G4","ticks":139200,"time":158.18223999999998,"velocity":0.7559055118110236},{"duration":0.5443196333333162,"durationTicks":479,"midi":63,"name":"D#4","ticks":139680,"time":158.72769599999998,"velocity":0.7559055118110236},{"duration":0.817047633333317,"durationTicks":719,"midi":65,"name":"F4","ticks":140160,"time":159.27315199999998,"velocity":0.7559055118110236},{"duration":0.2715916333333155,"durationTicks":239,"midi":63,"name":"D#4","ticks":140880,"time":160.09133599999998,"velocity":0.7559055118110236},{"duration":0.5443196333333162,"durationTicks":479,"midi":63,"name":"D#4","ticks":141120,"time":160.36406399999998,"velocity":0.7559055118110236},{"duration":0.5443196333333162,"durationTicks":479,"midi":67,"name":"G4","ticks":141600,"time":160.90952,"velocity":0.7559055118110236},{"duration":0.817047633333317,"durationTicks":719,"midi":67,"name":"G4","ticks":142080,"time":161.454976,"velocity":0.7559055118110236},{"duration":0.2715916333333155,"durationTicks":239,"midi":67,"name":"G4","ticks":142800,"time":162.27316,"velocity":0.7559055118110236},{"duration":0.5443196333333162,"durationTicks":479,"midi":67,"name":"G4","ticks":143040,"time":162.545888,"velocity":0.7559055118110236},{"duration":0.5443196333333162,"durationTicks":479,"midi":63,"name":"D#4","ticks":143520,"time":163.091344,"velocity":0.7559055118110236},{"duration":0.5443196333333162,"durationTicks":479,"midi":65,"name":"F4","ticks":144000,"time":163.6368,"velocity":0.7559055118110236},{"duration":0.2715916333333155,"durationTicks":239,"midi":63,"name":"D#4","ticks":144720,"time":164.454984,"velocity":0.7559055118110236},{"duration":0.5443196333333447,"durationTicks":479,"midi":63,"name":"D#4","ticks":144960,"time":164.72771199999997,"velocity":0.7559055118110236},{"duration":0.5443196333333447,"durationTicks":479,"midi":70,"name":"A#4","ticks":145440,"time":165.27316799999997,"velocity":0.7559055118110236},{"duration":0.2715916333333155,"durationTicks":239,"midi":67,"name":"G4","ticks":145920,"time":165.81862399999997,"velocity":0.7559055118110236},{"duration":0.5443196333333162,"durationTicks":479,"midi":65,"name":"F4","ticks":146160,"time":166.09135199999997,"velocity":0.7559055118110236},{"duration":0.2715916333333155,"durationTicks":239,"midi":63,"name":"D#4","ticks":146640,"time":166.63680799999997,"velocity":0.6299212598425197},{"duration":0.5443196333333162,"durationTicks":479,"midi":63,"name":"D#4","ticks":146880,"time":166.90953599999997,"velocity":0.6299212598425197},{"duration":0.5443196333333162,"durationTicks":479,"midi":62,"name":"D4","ticks":147360,"time":167.45499199999998,"velocity":0.6299212598425197},{"duration":0.2715916333333155,"durationTicks":239,"midi":58,"name":"A#3","ticks":147840,"time":168.00044799999998,"velocity":0.6299212598425197},{"duration":0.27272800000000075,"durationTicks":240,"midi":55,"name":"G3","ticks":148080,"time":168.27317599999998,"velocity":0.6299212598425197},{"duration":0.2715916333333155,"durationTicks":239,"midi":63,"name":"D#4","ticks":148560,"time":168.81863199999998,"velocity":0.7559055118110236},{"duration":0.5443196333333162,"durationTicks":479,"midi":63,"name":"D#4","ticks":148800,"time":169.09135999999998,"velocity":0.7559055118110236},{"duration":0.5443196333333162,"durationTicks":479,"midi":70,"name":"A#4","ticks":149280,"time":169.63681599999998,"velocity":0.7559055118110236},{"duration":0.2715916333333155,"durationTicks":239,"midi":67,"name":"G4","ticks":149760,"time":170.18227199999998,"velocity":0.7559055118110236},{"duration":0.5443196333333162,"durationTicks":479,"midi":65,"name":"F4","ticks":150000,"time":170.45499999999998,"velocity":0.7559055118110236},{"duration":0.2715916333333155,"durationTicks":239,"midi":63,"name":"D#4","ticks":150480,"time":171.00045599999999,"velocity":0.6299212598425197},{"duration":0.5443196333333162,"durationTicks":479,"midi":63,"name":"D#4","ticks":150720,"time":171.273184,"velocity":0.6299212598425197},{"duration":0.5443196333333162,"durationTicks":479,"midi":62,"name":"D4","ticks":151200,"time":171.81864,"velocity":0.6299212598425197},{"duration":0.2715916333333155,"durationTicks":239,"midi":58,"name":"A#3","ticks":151680,"time":172.364096,"velocity":0.6299212598425197},{"duration":0.5443196333333162,"durationTicks":479,"midi":55,"name":"G3","ticks":151920,"time":172.636824,"velocity":0.6299212598425197},{"duration":0.5443196333333162,"durationTicks":479,"midi":63,"name":"D#4","ticks":152640,"time":173.455008,"velocity":0.7559055118110236},{"duration":0.5443196333333162,"durationTicks":479,"midi":67,"name":"G4","ticks":153120,"time":174.000464,"velocity":0.7559055118110236},{"duration":0.8170476333333454,"durationTicks":719,"midi":67,"name":"G4","ticks":153600,"time":174.54591999999997,"velocity":0.7559055118110236},{"duration":0.2715916333333439,"durationTicks":239,"midi":67,"name":"G4","ticks":154320,"time":175.36410399999997,"velocity":0.7559055118110236},{"duration":0.2715916333333439,"durationTicks":239,"midi":67,"name":"G4","ticks":154560,"time":175.63683199999997,"velocity":0.7559055118110236},{"duration":0.2715916333333155,"durationTicks":239,"midi":65,"name":"F4","ticks":154800,"time":175.90955999999997,"velocity":0.7559055118110236},{"duration":0.5443196333333162,"durationTicks":479,"midi":63,"name":"D#4","ticks":155040,"time":176.18228799999997,"velocity":0.7559055118110236},{"duration":0.817047633333317,"durationTicks":719,"midi":65,"name":"F4","ticks":155520,"time":176.72774399999997,"velocity":0.7559055118110236},{"duration":0.2715916333333155,"durationTicks":239,"midi":63,"name":"D#4","ticks":156240,"time":177.54592799999998,"velocity":0.7559055118110236},{"duration":0.5443196333333162,"durationTicks":479,"midi":63,"name":"D#4","ticks":156480,"time":177.81865599999998,"velocity":0.7559055118110236},{"duration":0.5443196333333162,"durationTicks":479,"midi":67,"name":"G4","ticks":156960,"time":178.36411199999998,"velocity":0.7559055118110236},{"duration":0.817047633333317,"durationTicks":719,"midi":67,"name":"G4","ticks":157440,"time":178.90956799999998,"velocity":0.7559055118110236},{"duration":0.2715916333333155,"durationTicks":239,"midi":67,"name":"G4","ticks":158160,"time":179.72775199999998,"velocity":0.7559055118110236},{"duration":0.5443196333333162,"durationTicks":479,"midi":67,"name":"G4","ticks":158400,"time":180.00047999999998,"velocity":0.7559055118110236},{"duration":0.5443196333333162,"durationTicks":479,"midi":63,"name":"D#4","ticks":158880,"time":180.54593599999998,"velocity":0.7559055118110236},{"duration":0.5443196333333162,"durationTicks":479,"midi":65,"name":"F4","ticks":159360,"time":181.09139199999998,"velocity":0.7559055118110236},{"duration":0.2715916333333155,"durationTicks":239,"midi":63,"name":"D#4","ticks":160080,"time":181.909576,"velocity":0.7559055118110236},{"duration":0.2715916333333155,"durationTicks":239,"midi":63,"name":"D#4","ticks":160320,"time":182.182304,"velocity":0.7559055118110236},{"duration":0.2715916333333155,"durationTicks":239,"midi":63,"name":"D#4","ticks":160560,"time":182.455032,"velocity":0.7559055118110236},{"duration":0.5443196333333162,"durationTicks":479,"midi":70,"name":"A#4","ticks":160800,"time":182.72776,"velocity":0.7559055118110236},{"duration":0.2715916333333155,"durationTicks":239,"midi":67,"name":"G4","ticks":161280,"time":183.273216,"velocity":0.7559055118110236},{"duration":0.5443196333333162,"durationTicks":479,"midi":65,"name":"F4","ticks":161520,"time":183.545944,"velocity":0.7559055118110236},{"duration":0.2715916333333155,"durationTicks":239,"midi":63,"name":"D#4","ticks":162000,"time":184.0914,"velocity":0.6299212598425197},{"duration":0.2715916333333155,"durationTicks":239,"midi":63,"name":"D#4","ticks":162240,"time":184.364128,"velocity":0.6299212598425197},{"duration":0.2715916333333439,"durationTicks":239,"midi":63,"name":"D#4","ticks":162480,"time":184.63685599999997,"velocity":0.6299212598425197},{"duration":0.5443196333333447,"durationTicks":479,"midi":62,"name":"D4","ticks":162720,"time":184.90958399999997,"velocity":0.6299212598425197},{"duration":0.2715916333333439,"durationTicks":239,"midi":58,"name":"A#3","ticks":163200,"time":185.45503999999997,"velocity":0.6299212598425197},{"duration":0.27272800000000075,"durationTicks":240,"midi":55,"name":"G3","ticks":163440,"time":185.72776799999997,"velocity":0.6299212598425197},{"duration":0.2715916333333155,"durationTicks":239,"midi":63,"name":"D#4","ticks":163920,"time":186.27322399999997,"velocity":0.7559055118110236},{"duration":0.2715916333333155,"durationTicks":239,"midi":63,"name":"D#4","ticks":164160,"time":186.54595199999997,"velocity":0.7559055118110236},{"duration":0.2715916333333155,"durationTicks":239,"midi":63,"name":"D#4","ticks":164400,"time":186.81867999999997,"velocity":0.7559055118110236},{"duration":0.5443196333333162,"durationTicks":479,"midi":70,"name":"A#4","ticks":164640,"time":187.09140799999997,"velocity":0.7559055118110236},{"duration":0.2715916333333155,"durationTicks":239,"midi":67,"name":"G4","ticks":165120,"time":187.63686399999997,"velocity":0.7559055118110236},{"duration":0.5443196333333162,"durationTicks":479,"midi":65,"name":"F4","ticks":165360,"time":187.90959199999998,"velocity":0.7559055118110236},{"duration":0.2715916333333155,"durationTicks":239,"midi":63,"name":"D#4","ticks":165840,"time":188.45504799999998,"velocity":0.6299212598425197},{"duration":0.2715916333333155,"durationTicks":239,"midi":63,"name":"D#4","ticks":166080,"time":188.72777599999998,"velocity":0.6299212598425197},{"duration":0.2715916333333155,"durationTicks":239,"midi":63,"name":"D#4","ticks":166320,"time":189.00050399999998,"velocity":0.6299212598425197},{"duration":0.5443196333333162,"durationTicks":479,"midi":62,"name":"D4","ticks":166560,"time":189.27323199999998,"velocity":0.6299212598425197},{"duration":0.2715916333333155,"durationTicks":239,"midi":58,"name":"A#3","ticks":167040,"time":189.81868799999998,"velocity":0.6299212598425197},{"duration":0.2715916333333155,"durationTicks":239,"midi":55,"name":"G3","ticks":167280,"time":190.09141599999998,"velocity":0.6299212598425197},{"duration":0.2715916333333155,"durationTicks":239,"midi":53,"name":"F3","ticks":167520,"time":190.36414399999998,"velocity":0.6299212598425197},{"duration":0.2715916333333155,"durationTicks":239,"midi":51,"name":"D#3","ticks":167760,"time":190.63687199999998,"velocity":0.6299212598425197},{"duration":0.5443196333333162,"durationTicks":479,"midi":58,"name":"A#3","ticks":168000,"time":190.90959999999998,"velocity":0.6299212598425197},{"duration":0.5443196333333162,"durationTicks":479,"midi":55,"name":"G3","ticks":168480,"time":191.45505599999998,"velocity":0.6299212598425197},{"duration":0.2715916333333155,"durationTicks":239,"midi":58,"name":"A#3","ticks":169680,"time":192.818696,"velocity":0.5039370078740157},{"duration":0.40795563333330165,"durationTicks":359,"midi":63,"name":"D#4","ticks":169920,"time":193.091424,"velocity":0.5039370078740157},{"duration":0.40795563333333007,"durationTicks":359,"midi":65,"name":"F4","ticks":170280,"time":193.50051599999998,"velocity":0.5039370078740157},{"duration":0.817047633333317,"durationTicks":719,"midi":65,"name":"F4","ticks":170640,"time":193.909608,"velocity":0.5039370078740157},{"duration":0.2715916333333439,"durationTicks":239,"midi":58,"name":"A#3","ticks":171600,"time":195.00051999999997,"velocity":0.5039370078740157},{"duration":0.40795563333333007,"durationTicks":359,"midi":63,"name":"D#4","ticks":171840,"time":195.27324799999997,"velocity":0.5039370078740157},{"duration":0.40795563333330165,"durationTicks":359,"midi":65,"name":"F4","ticks":172200,"time":195.68233999999998,"velocity":0.5039370078740157},{"duration":0.817047633333317,"durationTicks":719,"midi":65,"name":"F4","ticks":172560,"time":196.09143199999997,"velocity":0.5039370078740157},{"duration":0.2715916333333155,"durationTicks":239,"midi":67,"name":"G4","ticks":173520,"time":197.18234399999997,"velocity":0.5039370078740157},{"duration":0.40795563333333007,"durationTicks":359,"midi":67,"name":"G4","ticks":173760,"time":197.45507199999997,"velocity":0.5039370078740157},{"duration":0.40795563333330165,"durationTicks":359,"midi":67,"name":"G4","ticks":174120,"time":197.864164,"velocity":0.5039370078740157},{"duration":0.5443196333333162,"durationTicks":479,"midi":70,"name":"A#4","ticks":174480,"time":198.27325599999998,"velocity":0.5039370078740157},{"duration":0.5443196333333162,"durationTicks":479,"midi":70,"name":"A#4","ticks":174960,"time":198.81871199999998,"velocity":0.5039370078740157},{"duration":0.5443196333333162,"durationTicks":479,"midi":67,"name":"G4","ticks":175440,"time":199.36416799999998,"velocity":0.5039370078740157},{"duration":0.2715916333333155,"durationTicks":239,"midi":65,"name":"F4","ticks":175920,"time":199.90962399999998,"velocity":0.5039370078740157},{"duration":0.5443196333333162,"durationTicks":479,"midi":63,"name":"D#4","ticks":176160,"time":200.18235199999998,"velocity":0.5039370078740157},{"duration":0.2715916333333155,"durationTicks":239,"midi":60,"name":"C4","ticks":176640,"time":200.72780799999998,"velocity":0.5039370078740157},{"duration":0.5443196333333162,"durationTicks":479,"midi":58,"name":"A#3","ticks":176880,"time":201.00053599999998,"velocity":0.5039370078740157},{"duration":0.1352276333333009,"durationTicks":119,"midi":58,"name":"A#3","ticks":177360,"time":201.54599199999998,"velocity":0.5039370078740157},{"duration":0.13522763333332932,"durationTicks":119,"midi":58,"name":"A#3","ticks":177480,"time":201.68235599999997,"velocity":0.5039370078740157},{"duration":0.40795563333330165,"durationTicks":359,"midi":63,"name":"D#4","ticks":177600,"time":201.81871999999998,"velocity":0.5039370078740157},{"duration":0.40795563333333007,"durationTicks":359,"midi":65,"name":"F4","ticks":177960,"time":202.22781199999997,"velocity":0.5039370078740157},{"duration":0.817047633333317,"durationTicks":719,"midi":65,"name":"F4","ticks":178320,"time":202.636904,"velocity":0.5039370078740157},{"duration":0.1352276333333009,"durationTicks":119,"midi":58,"name":"A#3","ticks":179280,"time":203.727816,"velocity":0.5039370078740157},{"duration":0.13522763333332932,"durationTicks":119,"midi":58,"name":"A#3","ticks":179400,"time":203.86417999999998,"velocity":0.5039370078740157},{"duration":0.40795563333330165,"durationTicks":359,"midi":63,"name":"D#4","ticks":179520,"time":204.000544,"velocity":0.5039370078740157},{"duration":0.40795563333333007,"durationTicks":359,"midi":65,"name":"F4","ticks":179880,"time":204.40963599999998,"velocity":0.5039370078740157},{"duration":0.8170476333333454,"durationTicks":719,"midi":65,"name":"F4","ticks":180240,"time":204.81872799999996,"velocity":0.5039370078740157},{"duration":0.2715916333333155,"durationTicks":239,"midi":58,"name":"A#3","ticks":181200,"time":205.90963999999997,"velocity":0.5039370078740157},{"duration":0.40795563333333007,"durationTicks":359,"midi":67,"name":"G4","ticks":181440,"time":206.18236799999997,"velocity":0.5039370078740157},{"duration":0.40795563333330165,"durationTicks":359,"midi":67,"name":"G4","ticks":181800,"time":206.59145999999998,"velocity":0.5039370078740157},{"duration":0.817047633333317,"durationTicks":719,"midi":70,"name":"A#4","ticks":182160,"time":207.00055199999997,"velocity":0.5039370078740157},{"duration":0.2715916333333155,"durationTicks":239,"midi":67,"name":"G4","ticks":182880,"time":207.81873599999997,"velocity":0.5039370078740157},{"duration":0.2715916333333155,"durationTicks":239,"midi":65,"name":"F4","ticks":183120,"time":208.09146399999997,"velocity":0.5039370078740157},{"duration":0.5443196333333162,"durationTicks":479,"midi":63,"name":"D#4","ticks":183360,"time":208.36419199999997,"velocity":0.7559055118110236},{"duration":0.5443196333333162,"durationTicks":479,"midi":67,"name":"G4","ticks":183840,"time":208.90964799999998,"velocity":0.7559055118110236},{"duration":0.817047633333317,"durationTicks":719,"midi":67,"name":"G4","ticks":184320,"time":209.45510399999998,"velocity":0.7559055118110236},{"duration":0.2715916333333155,"durationTicks":239,"midi":67,"name":"G4","ticks":185040,"time":210.27328799999998,"velocity":0.7559055118110236},{"duration":0.5443196333333162,"durationTicks":479,"midi":67,"name":"G4","ticks":185280,"time":210.54601599999998,"velocity":0.7559055118110236},{"duration":0.5443196333333162,"durationTicks":479,"midi":63,"name":"D#4","ticks":185760,"time":211.09147199999998,"velocity":0.7559055118110236},{"duration":0.817047633333317,"durationTicks":719,"midi":65,"name":"F4","ticks":186240,"time":211.63692799999998,"velocity":0.7559055118110236},{"duration":0.2715916333333155,"durationTicks":239,"midi":63,"name":"D#4","ticks":186960,"time":212.45511199999999,"velocity":0.7559055118110236},{"duration":0.5443196333333162,"durationTicks":479,"midi":63,"name":"D#4","ticks":187200,"time":212.72784,"velocity":0.7559055118110236},{"duration":0.5443196333333162,"durationTicks":479,"midi":67,"name":"G4","ticks":187680,"time":213.273296,"velocity":0.7559055118110236},{"duration":0.817047633333317,"durationTicks":719,"midi":67,"name":"G4","ticks":188160,"time":213.818752,"velocity":0.7559055118110236},{"duration":0.2715916333333439,"durationTicks":239,"midi":67,"name":"G4","ticks":188880,"time":214.63693599999996,"velocity":0.7559055118110236},{"duration":0.5443196333333447,"durationTicks":479,"midi":67,"name":"G4","ticks":189120,"time":214.90966399999996,"velocity":0.7559055118110236},{"duration":0.5443196333333162,"durationTicks":479,"midi":63,"name":"D#4","ticks":189600,"time":215.45511999999997,"velocity":0.7559055118110236},{"duration":0.5443196333333162,"durationTicks":479,"midi":65,"name":"F4","ticks":190080,"time":216.00057599999997,"velocity":0.7559055118110236},{"duration":0.2715916333333155,"durationTicks":239,"midi":63,"name":"D#4","ticks":190800,"time":216.81875999999997,"velocity":0.7559055118110236},{"duration":0.5443196333333162,"durationTicks":479,"midi":63,"name":"D#4","ticks":191040,"time":217.09148799999997,"velocity":0.7559055118110236},{"duration":0.5443196333333162,"durationTicks":479,"midi":70,"name":"A#4","ticks":191520,"time":217.63694399999997,"velocity":0.7559055118110236},{"duration":0.2715916333333155,"durationTicks":239,"midi":67,"name":"G4","ticks":192000,"time":218.18239999999997,"velocity":0.7559055118110236},{"duration":0.5443196333333162,"durationTicks":479,"midi":65,"name":"F4","ticks":192240,"time":218.45512799999997,"velocity":0.7559055118110236},{"duration":0.2715916333333155,"durationTicks":239,"midi":63,"name":"D#4","ticks":192720,"time":219.00058399999998,"velocity":0.6299212598425197},{"duration":0.5443196333333162,"durationTicks":479,"midi":63,"name":"D#4","ticks":192960,"time":219.27331199999998,"velocity":0.6299212598425197},{"duration":0.5443196333333162,"durationTicks":479,"midi":62,"name":"D4","ticks":193440,"time":219.81876799999998,"velocity":0.6299212598425197},{"duration":0.2715916333333155,"durationTicks":239,"midi":58,"name":"A#3","ticks":193920,"time":220.36422399999998,"velocity":0.6299212598425197},{"duration":0.27272800000000075,"durationTicks":240,"midi":55,"name":"G3","ticks":194160,"time":220.63695199999998,"velocity":0.6299212598425197},{"duration":0.2715916333333155,"durationTicks":239,"midi":63,"name":"D#4","ticks":194640,"time":221.18240799999998,"velocity":0.7559055118110236},{"duration":0.5443196333333162,"durationTicks":479,"midi":63,"name":"D#4","ticks":194880,"time":221.45513599999998,"velocity":0.7559055118110236},{"duration":0.5443196333333162,"durationTicks":479,"midi":70,"name":"A#4","ticks":195360,"time":222.00059199999998,"velocity":0.7559055118110236},{"duration":0.2715916333333155,"durationTicks":239,"midi":67,"name":"G4","ticks":195840,"time":222.54604799999998,"velocity":0.7559055118110236},{"duration":0.5443196333333162,"durationTicks":479,"midi":65,"name":"F4","ticks":196080,"time":222.81877599999999,"velocity":0.7559055118110236},{"duration":0.2715916333333155,"durationTicks":239,"midi":63,"name":"D#4","ticks":196560,"time":223.364232,"velocity":0.6299212598425197},{"duration":0.5443196333333162,"durationTicks":479,"midi":63,"name":"D#4","ticks":196800,"time":223.63696,"velocity":0.6299212598425197},{"duration":0.5443196333333162,"durationTicks":479,"midi":62,"name":"D4","ticks":197280,"time":224.182416,"velocity":0.6299212598425197},{"duration":0.2715916333333439,"durationTicks":239,"midi":58,"name":"A#3","ticks":197760,"time":224.72787199999996,"velocity":0.6299212598425197},{"duration":0.5443196333333447,"durationTicks":479,"midi":55,"name":"G3","ticks":198000,"time":225.00059999999996,"velocity":0.6299212598425197},{"duration":0.5443196333333162,"durationTicks":479,"midi":63,"name":"D#4","ticks":198720,"time":225.81878399999997,"velocity":0.7559055118110236},{"duration":0.5443196333333162,"durationTicks":479,"midi":67,"name":"G4","ticks":199200,"time":226.36423999999997,"velocity":0.7559055118110236},{"duration":0.817047633333317,"durationTicks":719,"midi":67,"name":"G4","ticks":199680,"time":226.90969599999997,"velocity":0.7559055118110236},{"duration":0.2715916333333155,"durationTicks":239,"midi":67,"name":"G4","ticks":200400,"time":227.72787999999997,"velocity":0.7559055118110236},{"duration":0.2715916333333155,"durationTicks":239,"midi":67,"name":"G4","ticks":200640,"time":228.00060799999997,"velocity":0.7559055118110236},{"duration":0.2715916333333155,"durationTicks":239,"midi":65,"name":"F4","ticks":200880,"time":228.27333599999997,"velocity":0.7559055118110236},{"duration":0.5443196333333162,"durationTicks":479,"midi":63,"name":"D#4","ticks":201120,"time":228.54606399999997,"velocity":0.7559055118110236},{"duration":0.817047633333317,"durationTicks":719,"midi":65,"name":"F4","ticks":201600,"time":229.09151999999997,"velocity":0.7559055118110236},{"duration":0.2715916333333155,"durationTicks":239,"midi":63,"name":"D#4","ticks":202320,"time":229.90970399999998,"velocity":0.7559055118110236},{"duration":0.5443196333333162,"durationTicks":479,"midi":63,"name":"D#4","ticks":202560,"time":230.18243199999998,"velocity":0.7559055118110236},{"duration":0.5443196333333162,"durationTicks":479,"midi":67,"name":"G4","ticks":203040,"time":230.72788799999998,"velocity":0.7559055118110236},{"duration":0.817047633333317,"durationTicks":719,"midi":67,"name":"G4","ticks":203520,"time":231.27334399999998,"velocity":0.7559055118110236},{"duration":0.2715916333333155,"durationTicks":239,"midi":67,"name":"G4","ticks":204240,"time":232.09152799999998,"velocity":0.7559055118110236},{"duration":0.5443196333333162,"durationTicks":479,"midi":67,"name":"G4","ticks":204480,"time":232.36425599999998,"velocity":0.7559055118110236},{"duration":0.5443196333333162,"durationTicks":479,"midi":63,"name":"D#4","ticks":204960,"time":232.90971199999998,"velocity":0.7559055118110236},{"duration":0.5443196333333162,"durationTicks":479,"midi":65,"name":"F4","ticks":205440,"time":233.455168,"velocity":0.7559055118110236},{"duration":0.2715916333333155,"durationTicks":239,"midi":63,"name":"D#4","ticks":206160,"time":234.273352,"velocity":0.7559055118110236},{"duration":0.2715916333333439,"durationTicks":239,"midi":63,"name":"D#4","ticks":206400,"time":234.54607999999996,"velocity":0.7559055118110236},{"duration":0.2715916333333439,"durationTicks":239,"midi":63,"name":"D#4","ticks":206640,"time":234.81880799999996,"velocity":0.7559055118110236},{"duration":0.5443196333333447,"durationTicks":479,"midi":70,"name":"A#4","ticks":206880,"time":235.09153599999996,"velocity":0.7559055118110236},{"duration":0.2715916333333155,"durationTicks":239,"midi":67,"name":"G4","ticks":207360,"time":235.63699199999996,"velocity":0.7559055118110236},{"duration":0.5443196333333162,"durationTicks":479,"midi":65,"name":"F4","ticks":207600,"time":235.90971999999996,"velocity":0.7559055118110236},{"duration":0.2715916333333155,"durationTicks":239,"midi":63,"name":"D#4","ticks":208080,"time":236.45517599999997,"velocity":0.6299212598425197},{"duration":0.2715916333333155,"durationTicks":239,"midi":63,"name":"D#4","ticks":208320,"time":236.72790399999997,"velocity":0.6299212598425197},{"duration":0.2715916333333155,"durationTicks":239,"midi":63,"name":"D#4","ticks":208560,"time":237.00063199999997,"velocity":0.6299212598425197},{"duration":0.5443196333333162,"durationTicks":479,"midi":62,"name":"D4","ticks":208800,"time":237.27335999999997,"velocity":0.6299212598425197},{"duration":0.2715916333333155,"durationTicks":239,"midi":58,"name":"A#3","ticks":209280,"time":237.81881599999997,"velocity":0.6299212598425197},{"duration":0.27272800000000075,"durationTicks":240,"midi":55,"name":"G3","ticks":209520,"time":238.09154399999997,"velocity":0.6299212598425197},{"duration":0.2715916333333155,"durationTicks":239,"midi":63,"name":"D#4","ticks":210000,"time":238.63699999999997,"velocity":0.7559055118110236},{"duration":0.2715916333333155,"durationTicks":239,"midi":63,"name":"D#4","ticks":210240,"time":238.90972799999997,"velocity":0.7559055118110236},{"duration":0.2715916333333155,"durationTicks":239,"midi":63,"name":"D#4","ticks":210480,"time":239.18245599999997,"velocity":0.7559055118110236},{"duration":0.5443196333333162,"durationTicks":479,"midi":70,"name":"A#4","ticks":210720,"time":239.45518399999997,"velocity":0.7559055118110236},{"duration":0.2715916333333155,"durationTicks":239,"midi":67,"name":"G4","ticks":211200,"time":240.00063999999998,"velocity":0.7559055118110236},{"duration":0.5443196333333162,"durationTicks":479,"midi":65,"name":"F4","ticks":211440,"time":240.27336799999998,"velocity":0.7559055118110236},{"duration":0.2715916333333155,"durationTicks":239,"midi":63,"name":"D#4","ticks":211920,"time":240.81882399999998,"velocity":0.6299212598425197},{"duration":0.2715916333333155,"durationTicks":239,"midi":63,"name":"D#4","ticks":212160,"time":241.09155199999998,"velocity":0.6299212598425197},{"duration":0.2715916333333155,"durationTicks":239,"midi":63,"name":"D#4","ticks":212400,"time":241.36427999999998,"velocity":0.6299212598425197},{"duration":0.5443196333333162,"durationTicks":479,"midi":62,"name":"D4","ticks":212640,"time":241.63700799999998,"velocity":0.6299212598425197},{"duration":0.5443196333333162,"durationTicks":479,"midi":58,"name":"A#3","ticks":213120,"time":242.18246399999998,"velocity":0.6299212598425197},{"duration":0.5443196333333162,"durationTicks":479,"midi":58,"name":"A#3","ticks":213600,"time":242.72791999999998,"velocity":0.7559055118110236},{"duration":0.5443196333333162,"durationTicks":479,"midi":68,"name":"G#4","ticks":214080,"time":243.27337599999998,"velocity":0.7559055118110236},{"duration":1.0897756333333177,"durationTicks":959,"midi":67,"name":"G4","ticks":214560,"time":243.818832,"velocity":0.7559055118110236},{"duration":0.5443196333333447,"durationTicks":479,"midi":67,"name":"G4","ticks":215520,"time":244.90974399999996,"velocity":0.7559055118110236},{"duration":0.5443196333333162,"durationTicks":479,"midi":67,"name":"G4","ticks":216000,"time":245.45519999999996,"velocity":0.7559055118110236},{"duration":0.2715916333333155,"durationTicks":239,"midi":67,"name":"G4","ticks":216480,"time":246.00065599999996,"velocity":0.7559055118110236},{"duration":0.2715916333333155,"durationTicks":239,"midi":67,"name":"G4","ticks":216720,"time":246.27338399999996,"velocity":0.7559055118110236},{"duration":0.2715916333333155,"durationTicks":239,"midi":68,"name":"G#4","ticks":216960,"time":246.54611199999997,"velocity":0.7559055118110236},{"duration":0.2715916333333155,"durationTicks":239,"midi":67,"name":"G4","ticks":217200,"time":246.81883999999997,"velocity":0.7559055118110236},{"duration":0.2715916333333155,"durationTicks":239,"midi":65,"name":"F4","ticks":217440,"time":247.09156799999997,"velocity":0.7559055118110236},{"duration":0.5443196333333162,"durationTicks":479,"midi":65,"name":"F4","ticks":217680,"time":247.36429599999997,"velocity":0.7559055118110236},{"duration":0.5443196333333162,"durationTicks":479,"midi":67,"name":"G4","ticks":218160,"time":247.90975199999997,"velocity":0.7559055118110236},{"duration":0.2715916333333155,"durationTicks":239,"midi":67,"name":"G4","ticks":219360,"time":249.27339199999997,"velocity":0.7559055118110236},{"duration":0.2715916333333155,"durationTicks":239,"midi":67,"name":"G4","ticks":219600,"time":249.54611999999997,"velocity":0.7559055118110236},{"duration":0.5443196333333162,"durationTicks":479,"midi":67,"name":"G4","ticks":219840,"time":249.81884799999997,"velocity":0.7559055118110236},{"duration":0.2715916333333155,"durationTicks":239,"midi":67,"name":"G4","ticks":220320,"time":250.36430399999998,"velocity":0.7559055118110236},{"duration":0.2715916333333155,"durationTicks":239,"midi":67,"name":"G4","ticks":220560,"time":250.63703199999998,"velocity":0.7559055118110236},{"duration":0.2715916333333155,"durationTicks":239,"midi":68,"name":"G#4","ticks":220800,"time":250.90975999999998,"velocity":0.7559055118110236},{"duration":0.2715916333333155,"durationTicks":239,"midi":67,"name":"G4","ticks":221040,"time":251.18248799999998,"velocity":0.7559055118110236},{"duration":0.2715916333333155,"durationTicks":239,"midi":65,"name":"F4","ticks":221280,"time":251.45521599999998,"velocity":0.7559055118110236},{"duration":0.817047633333317,"durationTicks":719,"midi":65,"name":"F4","ticks":221520,"time":251.72794399999998,"velocity":0.7559055118110236},{"duration":0.2715916333333155,"durationTicks":239,"midi":67,"name":"G4","ticks":222240,"time":252.54612799999998,"velocity":0.7559055118110236},{"duration":0.2715916333333155,"durationTicks":239,"midi":67,"name":"G4","ticks":222480,"time":252.81885599999998,"velocity":0.7559055118110236},{"duration":0.2715916333333155,"durationTicks":239,"midi":68,"name":"G#4","ticks":222720,"time":253.09158399999998,"velocity":0.7559055118110236},{"duration":0.2715916333333155,"durationTicks":239,"midi":67,"name":"G4","ticks":222960,"time":253.36431199999998,"velocity":0.7559055118110236},{"duration":0.2715916333333155,"durationTicks":239,"midi":63,"name":"D#4","ticks":223200,"time":253.63703999999998,"velocity":0.7559055118110236},{"duration":0.817047633333317,"durationTicks":719,"midi":63,"name":"D#4","ticks":223440,"time":253.90976799999999,"velocity":0.7559055118110236},{"duration":0.2715916333333439,"durationTicks":239,"midi":65,"name":"F4","ticks":224160,"time":254.72795199999996,"velocity":0.7559055118110236},{"duration":0.817047633333317,"durationTicks":719,"midi":62,"name":"D4","ticks":224400,"time":255.00067999999996,"velocity":0.7559055118110236},{"duration":0.27159163333328706,"durationTicks":239,"midi":58,"name":"A#3","ticks":225360,"time":256.091592,"velocity":0.7559055118110236},{"duration":0,"durationTicks":0,"midi":58,"name":"A#3","ticks":225600,"time":256.36431999999996,"velocity":0.7559055118110236},{"duration":0.27159163333328706,"durationTicks":239,"midi":60,"name":"C4","ticks":225840,"time":256.637048,"velocity":0.7559055118110236},{"duration":0.2715916333333439,"durationTicks":239,"midi":62,"name":"D4","ticks":226080,"time":256.90977599999997,"velocity":0.7559055118110236},{"duration":0.8170476333332886,"durationTicks":719,"midi":63,"name":"D#4","ticks":226320,"time":257.182504,"velocity":0.7559055118110236},{"duration":0.2715916333333439,"durationTicks":239,"midi":65,"name":"F4","ticks":227040,"time":258.00068799999997,"velocity":0.7559055118110236},{"duration":0.8170476333332886,"durationTicks":719,"midi":65,"name":"F4","ticks":227280,"time":258.273416,"velocity":0.7559055118110236},{"duration":0.2715916333333439,"durationTicks":239,"midi":63,"name":"D#4","ticks":228000,"time":259.09159999999997,"velocity":0.7559055118110236},{"duration":0.8170476333333454,"durationTicks":719,"midi":63,"name":"D#4","ticks":228240,"time":259.36432799999994,"velocity":0.7559055118110236},{"duration":0.2715916333333439,"durationTicks":239,"midi":59,"name":"B3","ticks":228960,"time":260.182512,"velocity":0.7559055118110236},{"duration":0.8170476333333454,"durationTicks":719,"midi":59,"name":"B3","ticks":229200,"time":260.45523999999995,"velocity":0.7559055118110236},{"duration":0.2715916333333439,"durationTicks":239,"midi":59,"name":"B3","ticks":230160,"time":261.54615199999995,"velocity":0.7559055118110236},{"duration":0.13522763333332932,"durationTicks":119,"midi":58,"name":"A#3","ticks":230400,"time":261.81888,"velocity":0.7559055118110236},{"duration":0.13522763333327248,"durationTicks":119,"midi":56,"name":"G#3","ticks":230520,"time":261.955244,"velocity":0.7559055118110236},{"duration":1.6352316333333192,"durationTicks":1439,"midi":55,"name":"G3","ticks":230640,"time":262.09160799999995,"velocity":0.7559055118110236}]},{"instrument_number":0,"notes":[{"duration":2.180687633333333,"durationTicks":1919,"midi":39,"name":"D#2","ticks":0,"time":0,"velocity":0.3858267716535433},{"duration":2.180687633333333,"durationTicks":1919,"midi":51,"name":"D#3","ticks":0,"time":0,"velocity":0.3858267716535433},{"duration":2.180687633333333,"durationTicks":1919,"midi":43,"name":"G2","ticks":1920,"time":2.1818239999999998,"velocity":0.3858267716535433},{"duration":2.180687633333333,"durationTicks":1919,"midi":50,"name":"D3","ticks":1920,"time":2.1818239999999998,"velocity":0.3858267716535433},{"duration":2.180687633333333,"durationTicks":1919,"midi":36,"name":"C2","ticks":3840,"time":4.3636479999999995,"velocity":0.3858267716535433},{"duration":2.180687633333333,"durationTicks":1919,"midi":43,"name":"G2","ticks":3840,"time":4.3636479999999995,"velocity":0.3858267716535433},{"duration":2.180687633333334,"durationTicks":1919,"midi":44,"name":"G#2","ticks":5760,"time":6.545471999999999,"velocity":0.3858267716535433},{"duration":2.180687633333334,"durationTicks":1919,"midi":51,"name":"D#3","ticks":5760,"time":6.545471999999999,"velocity":0.3858267716535433},{"duration":2.1806876333333314,"durationTicks":1919,"midi":39,"name":"D#2","ticks":7680,"time":8.727295999999999,"velocity":0.3858267716535433},{"duration":2.1806876333333314,"durationTicks":1919,"midi":51,"name":"D#3","ticks":7680,"time":8.727295999999999,"velocity":0.3858267716535433},{"duration":2.180687633333333,"durationTicks":1919,"midi":43,"name":"G2","ticks":9600,"time":10.909119999999998,"velocity":0.3858267716535433},{"duration":2.180687633333333,"durationTicks":1919,"midi":50,"name":"D3","ticks":9600,"time":10.909119999999998,"velocity":0.3858267716535433},{"duration":2.1806876333333314,"durationTicks":1919,"midi":36,"name":"C2","ticks":11520,"time":13.090943999999999,"velocity":0.3858267716535433},{"duration":2.1806876333333314,"durationTicks":1919,"midi":43,"name":"G2","ticks":11520,"time":13.090943999999999,"velocity":0.3858267716535433},{"duration":2.1806876333333314,"durationTicks":1919,"midi":44,"name":"G#2","ticks":13440,"time":15.272768,"velocity":0.3858267716535433},{"duration":2.1806876333333314,"durationTicks":1919,"midi":51,"name":"D#3","ticks":13440,"time":15.272768,"velocity":0.3858267716535433},{"duration":2.180687633333335,"durationTicks":1919,"midi":39,"name":"D#2","ticks":15360,"time":17.454591999999998,"velocity":0.6299212598425197},{"duration":0.27159163333333325,"durationTicks":239,"midi":51,"name":"D#3","ticks":15600,"time":17.72732,"velocity":0.6299212598425197},{"duration":0.27159163333333325,"durationTicks":239,"midi":51,"name":"D#3","ticks":15840,"time":18.000048,"velocity":0.6299212598425197},{"duration":0.2715916333333368,"durationTicks":239,"midi":51,"name":"D#3","ticks":16080,"time":18.272775999999997,"velocity":0.6299212598425197},{"duration":0.27159163333333325,"durationTicks":239,"midi":51,"name":"D#3","ticks":16320,"time":18.545503999999998,"velocity":0.6299212598425197},{"duration":0.27159163333333325,"durationTicks":239,"midi":51,"name":"D#3","ticks":16560,"time":18.818232,"velocity":0.6299212598425197},{"duration":0.27159163333333325,"durationTicks":239,"midi":51,"name":"D#3","ticks":16800,"time":19.09096,"velocity":0.6299212598425197},{"duration":0.2715916333333368,"durationTicks":239,"midi":51,"name":"D#3","ticks":17040,"time":19.363687999999996,"velocity":0.6299212598425197},{"duration":2.180687633333335,"durationTicks":1919,"midi":43,"name":"G2","ticks":17280,"time":19.636415999999997,"velocity":0.6299212598425197},{"duration":0.27159163333333325,"durationTicks":239,"midi":55,"name":"G3","ticks":17520,"time":19.909143999999998,"velocity":0.6299212598425197},{"duration":0.27159163333333325,"durationTicks":239,"midi":55,"name":"G3","ticks":17760,"time":20.181872,"velocity":0.6299212598425197},{"duration":0.27159163333333325,"durationTicks":239,"midi":55,"name":"G3","ticks":18000,"time":20.4546,"velocity":0.6299212598425197},{"duration":0.2715916333333368,"durationTicks":239,"midi":55,"name":"G3","ticks":18240,"time":20.727327999999996,"velocity":0.6299212598425197},{"duration":0.27159163333333325,"durationTicks":239,"midi":55,"name":"G3","ticks":18480,"time":21.000055999999997,"velocity":0.6299212598425197},{"duration":0.27159163333333325,"durationTicks":239,"midi":55,"name":"G3","ticks":18720,"time":21.272783999999998,"velocity":0.6299212598425197},{"duration":0.27159163333333325,"durationTicks":239,"midi":55,"name":"G3","ticks":18960,"time":21.545512,"velocity":0.6299212598425197},{"duration":2.180687633333335,"durationTicks":1919,"midi":36,"name":"C2","ticks":19200,"time":21.818239999999996,"velocity":0.6299212598425197},{"duration":0.2715916333333368,"durationTicks":239,"midi":48,"name":"C3","ticks":19440,"time":22.090967999999997,"velocity":0.6299212598425197},{"duration":0.27159163333333325,"durationTicks":239,"midi":48,"name":"C3","ticks":19680,"time":22.363695999999997,"velocity":0.6299212598425197},{"duration":0.27159163333333325,"durationTicks":239,"midi":48,"name":"C3","ticks":19920,"time":22.636423999999998,"velocity":0.6299212598425197},{"duration":0.27159163333333325,"durationTicks":239,"midi":48,"name":"C3","ticks":20160,"time":22.909152,"velocity":0.6299212598425197},{"duration":0.2715916333333368,"durationTicks":239,"midi":48,"name":"C3","ticks":20400,"time":23.181879999999996,"velocity":0.6299212598425197},{"duration":0.27159163333333325,"durationTicks":239,"midi":48,"name":"C3","ticks":20640,"time":23.454607999999997,"velocity":0.6299212598425197},{"duration":0.27159163333333325,"durationTicks":239,"midi":48,"name":"C3","ticks":20880,"time":23.727335999999998,"velocity":0.6299212598425197},{"duration":2.180687633333335,"durationTicks":1919,"midi":44,"name":"G#2","ticks":21120,"time":24.000064,"velocity":0.6299212598425197},{"duration":0.27159163333333325,"durationTicks":239,"midi":56,"name":"G#3","ticks":21360,"time":24.272792,"velocity":0.6299212598425197},{"duration":0.2715916333333368,"durationTicks":239,"midi":56,"name":"G#3","ticks":21600,"time":24.545519999999996,"velocity":0.6299212598425197},{"duration":0.27159163333333325,"durationTicks":239,"midi":56,"name":"G#3","ticks":21840,"time":24.818247999999997,"velocity":0.6299212598425197},{"duration":0.27159163333333325,"durationTicks":239,"midi":56,"name":"G#3","ticks":22080,"time":25.090975999999998,"velocity":0.6299212598425197},{"duration":0.27159163333333325,"durationTicks":239,"midi":56,"name":"G#3","ticks":22320,"time":25.363704,"velocity":0.6299212598425197},{"duration":0.2715916333333368,"durationTicks":239,"midi":56,"name":"G#3","ticks":22560,"time":25.636431999999996,"velocity":0.6299212598425197},{"duration":0.2715916333333368,"durationTicks":239,"midi":56,"name":"G#3","ticks":22800,"time":25.909159999999996,"velocity":0.6299212598425197},{"duration":2.180687633333335,"durationTicks":1919,"midi":39,"name":"D#2","ticks":23040,"time":26.181887999999997,"velocity":0.6299212598425197},{"duration":0.27159163333333325,"durationTicks":239,"midi":51,"name":"D#3","ticks":23280,"time":26.454615999999998,"velocity":0.6299212598425197},{"duration":0.27159163333333325,"durationTicks":239,"midi":51,"name":"D#3","ticks":23520,"time":26.727344,"velocity":0.6299212598425197},{"duration":0.2715916333333368,"durationTicks":239,"midi":51,"name":"D#3","ticks":23760,"time":27.000071999999996,"velocity":0.6299212598425197},{"duration":0.27159163333333325,"durationTicks":239,"midi":51,"name":"D#3","ticks":24000,"time":27.272799999999997,"velocity":0.6299212598425197},{"duration":0.27159163333333325,"durationTicks":239,"midi":51,"name":"D#3","ticks":24240,"time":27.545527999999997,"velocity":0.6299212598425197},{"duration":0.27159163333333325,"durationTicks":239,"midi":51,"name":"D#3","ticks":24480,"time":27.818255999999998,"velocity":0.6299212598425197},{"duration":0.2715916333333368,"durationTicks":239,"midi":51,"name":"D#3","ticks":24720,"time":28.090983999999995,"velocity":0.6299212598425197},{"duration":2.180687633333335,"durationTicks":1919,"midi":43,"name":"G2","ticks":24960,"time":28.363711999999996,"velocity":0.6299212598425197},{"duration":0.27159163333333325,"durationTicks":239,"midi":55,"name":"G3","ticks":25200,"time":28.636439999999997,"velocity":0.6299212598425197},{"duration":0.27159163333333325,"durationTicks":239,"midi":55,"name":"G3","ticks":25440,"time":28.909167999999998,"velocity":0.6299212598425197},{"duration":0.27159163333333325,"durationTicks":239,"midi":55,"name":"G3","ticks":25680,"time":29.181896,"velocity":0.6299212598425197},{"duration":0.2715916333333368,"durationTicks":239,"midi":55,"name":"G3","ticks":25920,"time":29.454623999999995,"velocity":0.6299212598425197},{"duration":0.27159163333333325,"durationTicks":239,"midi":55,"name":"G3","ticks":26160,"time":29.727351999999996,"velocity":0.6299212598425197},{"duration":0.27159163333333325,"durationTicks":239,"midi":55,"name":"G3","ticks":26400,"time":30.000079999999997,"velocity":0.6299212598425197},{"duration":0.27159163333333325,"durationTicks":239,"midi":55,"name":"G3","ticks":26640,"time":30.272807999999998,"velocity":0.6299212598425197},{"duration":2.180687633333335,"durationTicks":1919,"midi":36,"name":"C2","ticks":26880,"time":30.545536,"velocity":0.6299212598425197},{"duration":0.2715916333333368,"durationTicks":239,"midi":48,"name":"C3","ticks":27120,"time":30.818263999999996,"velocity":0.6299212598425197},{"duration":0.27159163333333325,"durationTicks":239,"midi":48,"name":"C3","ticks":27360,"time":31.090991999999996,"velocity":0.6299212598425197},{"duration":0.27159163333333325,"durationTicks":239,"midi":48,"name":"C3","ticks":27600,"time":31.363719999999997,"velocity":0.6299212598425197},{"duration":0.27159163333333325,"durationTicks":239,"midi":48,"name":"C3","ticks":27840,"time":31.636447999999998,"velocity":0.6299212598425197},{"duration":0.2715916333333368,"durationTicks":239,"midi":48,"name":"C3","ticks":28080,"time":31.909175999999995,"velocity":0.6299212598425197},{"duration":0.2715916333333368,"durationTicks":239,"midi":48,"name":"C3","ticks":28320,"time":32.181903999999996,"velocity":0.6299212598425197},{"duration":0.2715916333333368,"durationTicks":239,"midi":48,"name":"C3","ticks":28560,"time":32.454632,"velocity":0.6299212598425197},{"duration":2.180687633333335,"durationTicks":1919,"midi":44,"name":"G#2","ticks":28800,"time":32.72736,"velocity":0.6299212598425197},{"duration":0.2715916333333297,"durationTicks":239,"midi":56,"name":"G#3","ticks":29040,"time":33.000088,"velocity":0.6299212598425197},{"duration":0.2715916333333297,"durationTicks":239,"midi":56,"name":"G#3","ticks":29280,"time":33.272816,"velocity":0.6299212598425197},{"duration":0.2715916333333297,"durationTicks":239,"midi":56,"name":"G#3","ticks":29520,"time":33.545544,"velocity":0.6299212598425197},{"duration":0.2715916333333368,"durationTicks":239,"midi":56,"name":"G#3","ticks":29760,"time":33.81827199999999,"velocity":0.6299212598425197},{"duration":0.2715916333333368,"durationTicks":239,"midi":56,"name":"G#3","ticks":30000,"time":34.090999999999994,"velocity":0.6299212598425197},{"duration":0.2715916333333368,"durationTicks":239,"midi":56,"name":"G#3","ticks":30240,"time":34.363727999999995,"velocity":0.6299212598425197},{"duration":0.2715916333333368,"durationTicks":239,"midi":56,"name":"G#3","ticks":30480,"time":34.636455999999995,"velocity":0.6299212598425197},{"duration":2.180687633333335,"durationTicks":1919,"midi":39,"name":"D#2","ticks":30720,"time":34.909183999999996,"velocity":0.3858267716535433},{"duration":0.27272800000000075,"durationTicks":240,"midi":51,"name":"D#3","ticks":30720,"time":34.909183999999996,"velocity":0.3858267716535433},{"duration":0.27272800000000075,"durationTicks":240,"midi":51,"name":"D#3","ticks":30960,"time":35.181912,"velocity":0.3858267716535433},{"duration":0.27272800000000075,"durationTicks":240,"midi":51,"name":"D#3","ticks":31200,"time":35.45464,"velocity":0.3858267716535433},{"duration":0.27272800000000075,"durationTicks":240,"midi":51,"name":"D#3","ticks":31440,"time":35.727368,"velocity":0.3858267716535433},{"duration":0.27272799999999364,"durationTicks":240,"midi":51,"name":"D#3","ticks":31680,"time":36.000096,"velocity":0.3858267716535433},{"duration":0.27272800000000075,"durationTicks":240,"midi":51,"name":"D#3","ticks":31920,"time":36.27282399999999,"velocity":0.3858267716535433},{"duration":0.27272800000000075,"durationTicks":240,"midi":51,"name":"D#3","ticks":32160,"time":36.545551999999994,"velocity":0.3858267716535433},{"duration":0.2715916333333368,"durationTicks":239,"midi":51,"name":"D#3","ticks":32400,"time":36.818279999999994,"velocity":0.3858267716535433},{"duration":2.180687633333335,"durationTicks":1919,"midi":43,"name":"G2","ticks":32640,"time":37.091007999999995,"velocity":0.3858267716535433},{"duration":2.180687633333335,"durationTicks":1919,"midi":50,"name":"D3","ticks":32640,"time":37.091007999999995,"velocity":0.3858267716535433},{"duration":0.2715916333333368,"durationTicks":239,"midi":55,"name":"G3","ticks":32880,"time":37.363735999999996,"velocity":0.3858267716535433},{"duration":0.2715916333333368,"durationTicks":239,"midi":55,"name":"G3","ticks":33120,"time":37.636464,"velocity":0.3858267716535433},{"duration":0.2715916333333297,"durationTicks":239,"midi":55,"name":"G3","ticks":33360,"time":37.909192,"velocity":0.3858267716535433},{"duration":0.2715916333333297,"durationTicks":239,"midi":55,"name":"G3","ticks":33600,"time":38.18192,"velocity":0.3858267716535433},{"duration":0.2715916333333297,"durationTicks":239,"midi":55,"name":"G3","ticks":33840,"time":38.454648,"velocity":0.3858267716535433},{"duration":0.2715916333333368,"durationTicks":239,"midi":55,"name":"G3","ticks":34080,"time":38.72737599999999,"velocity":0.3858267716535433},{"duration":0.2715916333333368,"durationTicks":239,"midi":55,"name":"G3","ticks":34320,"time":39.00010399999999,"velocity":0.3858267716535433},{"duration":2.180687633333335,"durationTicks":1919,"midi":36,"name":"C2","ticks":34560,"time":39.272831999999994,"velocity":0.3858267716535433},{"duration":2.180687633333335,"durationTicks":1919,"midi":43,"name":"G2","ticks":34560,"time":39.272831999999994,"velocity":0.3858267716535433},{"duration":0.2715916333333368,"durationTicks":239,"midi":48,"name":"C3","ticks":34800,"time":39.545559999999995,"velocity":0.3858267716535433},{"duration":0.2715916333333368,"durationTicks":239,"midi":48,"name":"C3","ticks":35040,"time":39.818287999999995,"velocity":0.3858267716535433},{"duration":0.2715916333333368,"durationTicks":239,"midi":48,"name":"C3","ticks":35280,"time":40.091015999999996,"velocity":0.3858267716535433},{"duration":0.2715916333333297,"durationTicks":239,"midi":48,"name":"C3","ticks":35520,"time":40.363744,"velocity":0.3858267716535433},{"duration":0.2715916333333297,"durationTicks":239,"midi":48,"name":"C3","ticks":35760,"time":40.636472,"velocity":0.3858267716535433},{"duration":0.2715916333333297,"durationTicks":239,"midi":48,"name":"C3","ticks":36000,"time":40.9092,"velocity":0.3858267716535433},{"duration":0.2715916333333368,"durationTicks":239,"midi":48,"name":"C3","ticks":36240,"time":41.18192799999999,"velocity":0.3858267716535433},{"duration":2.180687633333335,"durationTicks":1919,"midi":44,"name":"G#2","ticks":36480,"time":41.45465599999999,"velocity":0.3858267716535433},{"duration":2.180687633333335,"durationTicks":1919,"midi":51,"name":"D#3","ticks":36480,"time":41.45465599999999,"velocity":0.3858267716535433},{"duration":0.2715916333333368,"durationTicks":239,"midi":56,"name":"G#3","ticks":36720,"time":41.727383999999994,"velocity":0.3858267716535433},{"duration":0.2715916333333368,"durationTicks":239,"midi":56,"name":"G#3","ticks":36960,"time":42.000111999999994,"velocity":0.4015748031496063},{"duration":0.2715916333333368,"durationTicks":239,"midi":56,"name":"G#3","ticks":37200,"time":42.272839999999995,"velocity":0.4409448818897638},{"duration":0.2715916333333368,"durationTicks":239,"midi":56,"name":"G#3","ticks":37440,"time":42.545567999999996,"velocity":0.47244094488188976},{"duration":0.2715916333333297,"durationTicks":239,"midi":56,"name":"G#3","ticks":37680,"time":42.818296,"velocity":0.5118110236220472},{"duration":0.2715916333333297,"durationTicks":239,"midi":56,"name":"G#3","ticks":37920,"time":43.091024,"velocity":0.5511811023622047},{"duration":0.2715916333333297,"durationTicks":239,"midi":56,"name":"G#3","ticks":38160,"time":43.363752,"velocity":0.5905511811023622},{"duration":2.180687633333335,"durationTicks":1919,"midi":39,"name":"D#2","ticks":38400,"time":43.63647999999999,"velocity":0.6299212598425197},{"duration":0.2715916333333368,"durationTicks":239,"midi":51,"name":"D#3","ticks":38640,"time":43.90920799999999,"velocity":0.7559055118110236},{"duration":0.2715916333333368,"durationTicks":239,"midi":51,"name":"D#3","ticks":38880,"time":44.18193599999999,"velocity":0.7559055118110236},{"duration":0.2715916333333368,"durationTicks":239,"midi":51,"name":"D#3","ticks":39120,"time":44.454663999999994,"velocity":0.7559055118110236},{"duration":0.2715916333333368,"durationTicks":239,"midi":51,"name":"D#3","ticks":39360,"time":44.727391999999995,"velocity":0.7559055118110236},{"duration":0.2715916333333368,"durationTicks":239,"midi":51,"name":"D#3","ticks":39600,"time":45.000119999999995,"velocity":0.7559055118110236},{"duration":0.2715916333333297,"durationTicks":239,"midi":51,"name":"D#3","ticks":39840,"time":45.272847999999996,"velocity":0.7559055118110236},{"duration":0.2715916333333297,"durationTicks":239,"midi":51,"name":"D#3","ticks":40080,"time":45.545576,"velocity":0.7559055118110236},{"duration":2.180687633333335,"durationTicks":1919,"midi":43,"name":"G2","ticks":40320,"time":45.818304,"velocity":0.7559055118110236},{"duration":0.2715916333333297,"durationTicks":239,"midi":55,"name":"G3","ticks":40560,"time":46.091032,"velocity":0.7559055118110236},{"duration":0.2715916333333368,"durationTicks":239,"midi":55,"name":"G3","ticks":40800,"time":46.36375999999999,"velocity":0.7559055118110236},{"duration":0.2715916333333368,"durationTicks":239,"midi":55,"name":"G3","ticks":41040,"time":46.63648799999999,"velocity":0.7559055118110236},{"duration":0.2715916333333368,"durationTicks":239,"midi":55,"name":"G3","ticks":41280,"time":46.909215999999994,"velocity":0.7559055118110236},{"duration":0.2715916333333368,"durationTicks":239,"midi":55,"name":"G3","ticks":41520,"time":47.181943999999994,"velocity":0.7559055118110236},{"duration":0.2715916333333368,"durationTicks":239,"midi":55,"name":"G3","ticks":41760,"time":47.454671999999995,"velocity":0.7559055118110236},{"duration":0.2715916333333368,"durationTicks":239,"midi":55,"name":"G3","ticks":42000,"time":47.727399999999996,"velocity":0.7559055118110236},{"duration":2.180687633333335,"durationTicks":1919,"midi":36,"name":"C2","ticks":42240,"time":48.000128,"velocity":0.7559055118110236},{"duration":0.2715916333333297,"durationTicks":239,"midi":48,"name":"C3","ticks":42480,"time":48.272856,"velocity":0.7559055118110236},{"duration":0.2715916333333297,"durationTicks":239,"midi":48,"name":"C3","ticks":42720,"time":48.545584,"velocity":0.7559055118110236},{"duration":0.2715916333333368,"durationTicks":239,"midi":48,"name":"C3","ticks":42960,"time":48.81831199999999,"velocity":0.7559055118110236},{"duration":0.2715916333333368,"durationTicks":239,"midi":48,"name":"C3","ticks":43200,"time":49.09103999999999,"velocity":0.7559055118110236},{"duration":0.2715916333333368,"durationTicks":239,"midi":48,"name":"C3","ticks":43440,"time":49.36376799999999,"velocity":0.7559055118110236},{"duration":0.2715916333333368,"durationTicks":239,"midi":48,"name":"C3","ticks":43680,"time":49.636495999999994,"velocity":0.7559055118110236},{"duration":0.2715916333333368,"durationTicks":239,"midi":48,"name":"C3","ticks":43920,"time":49.909223999999995,"velocity":0.7559055118110236},{"duration":2.180687633333335,"durationTicks":1919,"midi":44,"name":"G#2","ticks":44160,"time":50.181951999999995,"velocity":0.7559055118110236},{"duration":0.2715916333333297,"durationTicks":239,"midi":56,"name":"G#3","ticks":44400,"time":50.454679999999996,"velocity":0.7559055118110236},{"duration":0.2715916333333297,"durationTicks":239,"midi":56,"name":"G#3","ticks":44640,"time":50.727408,"velocity":0.7559055118110236},{"duration":0.2715916333333297,"durationTicks":239,"midi":56,"name":"G#3","ticks":44880,"time":51.000136,"velocity":0.7559055118110236},{"duration":0.2715916333333368,"durationTicks":239,"midi":56,"name":"G#3","ticks":45120,"time":51.27286399999999,"velocity":0.7559055118110236},{"duration":0.2715916333333368,"durationTicks":239,"midi":56,"name":"G#3","ticks":45360,"time":51.54559199999999,"velocity":0.7559055118110236},{"duration":0.2715916333333368,"durationTicks":239,"midi":56,"name":"G#3","ticks":45600,"time":51.81831999999999,"velocity":0.7559055118110236},{"duration":0.2715916333333368,"durationTicks":239,"midi":56,"name":"G#3","ticks":45840,"time":52.091047999999994,"velocity":0.7559055118110236},{"duration":1.089775633333332,"durationTicks":959,"midi":39,"name":"D#2","ticks":46080,"time":52.363775999999994,"velocity":0.7559055118110236},{"duration":1.089775633333332,"durationTicks":959,"midi":51,"name":"D#3","ticks":46080,"time":52.363775999999994,"velocity":0.7559055118110236},{"duration":1.089775633333332,"durationTicks":959,"midi":46,"name":"A#2","ticks":47040,"time":53.454688,"velocity":0.7559055118110236},{"duration":1.089775633333332,"durationTicks":959,"midi":51,"name":"D#3","ticks":47040,"time":53.454688,"velocity":0.7559055118110236},{"duration":1.089775633333332,"durationTicks":959,"midi":55,"name":"G3","ticks":47040,"time":53.454688,"velocity":0.7559055118110236},{"duration":1.089775633333332,"durationTicks":959,"midi":43,"name":"G2","ticks":48000,"time":54.54559999999999,"velocity":0.7559055118110236},{"duration":1.089775633333332,"durationTicks":959,"midi":55,"name":"G3","ticks":48000,"time":54.54559999999999,"velocity":0.7559055118110236},{"duration":1.089775633333332,"durationTicks":959,"midi":50,"name":"D3","ticks":48960,"time":55.636511999999996,"velocity":0.7559055118110236},{"duration":1.089775633333332,"durationTicks":959,"midi":55,"name":"G3","ticks":48960,"time":55.636511999999996,"velocity":0.7559055118110236},{"duration":1.089775633333332,"durationTicks":959,"midi":58,"name":"A#3","ticks":48960,"time":55.636511999999996,"velocity":0.7559055118110236},{"duration":1.089775633333339,"durationTicks":959,"midi":36,"name":"C2","ticks":49920,"time":56.72742399999999,"velocity":0.7559055118110236},{"duration":1.089775633333339,"durationTicks":959,"midi":48,"name":"C3","ticks":49920,"time":56.72742399999999,"velocity":0.7559055118110236},{"duration":1.089775633333332,"durationTicks":959,"midi":43,"name":"G2","ticks":50880,"time":57.818335999999995,"velocity":0.7559055118110236},{"duration":1.089775633333332,"durationTicks":959,"midi":48,"name":"C3","ticks":50880,"time":57.818335999999995,"velocity":0.7559055118110236},{"duration":1.089775633333332,"durationTicks":959,"midi":51,"name":"D#3","ticks":50880,"time":57.818335999999995,"velocity":0.7559055118110236},{"duration":1.089775633333339,"durationTicks":959,"midi":44,"name":"G#2","ticks":51840,"time":58.90924799999999,"velocity":0.7559055118110236},{"duration":1.089775633333339,"durationTicks":959,"midi":56,"name":"G#3","ticks":51840,"time":58.90924799999999,"velocity":0.7559055118110236},{"duration":1.089775633333332,"durationTicks":959,"midi":51,"name":"D#3","ticks":52800,"time":60.000159999999994,"velocity":0.7559055118110236},{"duration":1.089775633333332,"durationTicks":959,"midi":56,"name":"G#3","ticks":52800,"time":60.000159999999994,"velocity":0.7559055118110236},{"duration":1.089775633333332,"durationTicks":959,"midi":60,"name":"C4","ticks":52800,"time":60.000159999999994,"velocity":0.7559055118110236},{"duration":1.089775633333332,"durationTicks":959,"midi":39,"name":"D#2","ticks":53760,"time":61.091072,"velocity":0.7559055118110236},{"duration":1.089775633333332,"durationTicks":959,"midi":51,"name":"D#3","ticks":53760,"time":61.091072,"velocity":0.7559055118110236},{"duration":1.089775633333332,"durationTicks":959,"midi":46,"name":"A#2","ticks":54720,"time":62.18198399999999,"velocity":0.7559055118110236},{"duration":1.089775633333332,"durationTicks":959,"midi":51,"name":"D#3","ticks":54720,"time":62.18198399999999,"velocity":0.7559055118110236},{"duration":1.089775633333332,"durationTicks":959,"midi":55,"name":"G3","ticks":54720,"time":62.18198399999999,"velocity":0.7559055118110236},{"duration":1.0897756333333248,"durationTicks":959,"midi":43,"name":"G2","ticks":55680,"time":63.272895999999996,"velocity":0.7559055118110236},{"duration":1.0897756333333248,"durationTicks":959,"midi":55,"name":"G3","ticks":55680,"time":63.272895999999996,"velocity":0.7559055118110236},{"duration":1.089775633333332,"durationTicks":959,"midi":50,"name":"D3","ticks":56640,"time":64.36380799999999,"velocity":0.7559055118110236},{"duration":1.089775633333332,"durationTicks":959,"midi":55,"name":"G3","ticks":56640,"time":64.36380799999999,"velocity":0.7559055118110236},{"duration":1.089775633333332,"durationTicks":959,"midi":58,"name":"A#3","ticks":56640,"time":64.36380799999999,"velocity":0.7559055118110236},{"duration":1.089775633333332,"durationTicks":959,"midi":36,"name":"C2","ticks":57600,"time":65.45472,"velocity":0.7559055118110236},{"duration":1.089775633333332,"durationTicks":959,"midi":48,"name":"C3","ticks":57600,"time":65.45472,"velocity":0.7559055118110236},{"duration":1.089775633333332,"durationTicks":959,"midi":43,"name":"G2","ticks":58560,"time":66.545632,"velocity":0.7559055118110236},{"duration":1.089775633333332,"durationTicks":959,"midi":48,"name":"C3","ticks":58560,"time":66.545632,"velocity":0.7559055118110236},{"duration":1.089775633333332,"durationTicks":959,"midi":51,"name":"D#3","ticks":58560,"time":66.545632,"velocity":0.7559055118110236},{"duration":0.2715916333333439,"durationTicks":239,"midi":44,"name":"G#2","ticks":59520,"time":67.63654399999999,"velocity":0.7559055118110236},{"duration":0.2715916333333439,"durationTicks":239,"midi":56,"name":"G#3","ticks":59520,"time":67.63654399999999,"velocity":0.7559055118110236},{"duration":0.2715916333333439,"durationTicks":239,"midi":44,"name":"G#2","ticks":59760,"time":67.90927199999999,"velocity":0.7559055118110236},{"duration":0.2715916333333439,"durationTicks":239,"midi":56,"name":"G#3","ticks":59760,"time":67.90927199999999,"velocity":0.7559055118110236},{"duration":0.2715916333333439,"durationTicks":239,"midi":44,"name":"G#2","ticks":60000,"time":68.18199999999999,"velocity":0.7559055118110236},{"duration":0.2715916333333439,"durationTicks":239,"midi":56,"name":"G#3","ticks":60000,"time":68.18199999999999,"velocity":0.7559055118110236},{"duration":0.2715916333333439,"durationTicks":239,"midi":44,"name":"G#2","ticks":60240,"time":68.45472799999999,"velocity":0.7559055118110236},{"duration":0.2715916333333439,"durationTicks":239,"midi":56,"name":"G#3","ticks":60240,"time":68.45472799999999,"velocity":0.7559055118110236},{"duration":0.2715916333333439,"durationTicks":239,"midi":51,"name":"D#3","ticks":60480,"time":68.72745599999999,"velocity":0.7559055118110236},{"duration":0.2715916333333439,"durationTicks":239,"midi":56,"name":"G#3","ticks":60480,"time":68.72745599999999,"velocity":0.7559055118110236},{"duration":0.2715916333333439,"durationTicks":239,"midi":60,"name":"C4","ticks":60480,"time":68.72745599999999,"velocity":0.7559055118110236},{"duration":0.2715916333333297,"durationTicks":239,"midi":51,"name":"D#3","ticks":60720,"time":69.00018399999999,"velocity":0.7559055118110236},{"duration":0.2715916333333297,"durationTicks":239,"midi":56,"name":"G#3","ticks":60720,"time":69.00018399999999,"velocity":0.7559055118110236},{"duration":0.2715916333333297,"durationTicks":239,"midi":60,"name":"C4","ticks":60720,"time":69.00018399999999,"velocity":0.7559055118110236},{"duration":0.2715916333333297,"durationTicks":239,"midi":51,"name":"D#3","ticks":60960,"time":69.27291199999999,"velocity":0.7559055118110236},{"duration":0.2715916333333297,"durationTicks":239,"midi":56,"name":"G#3","ticks":60960,"time":69.27291199999999,"velocity":0.7559055118110236},{"duration":0.2715916333333297,"durationTicks":239,"midi":60,"name":"C4","ticks":60960,"time":69.27291199999999,"velocity":0.7559055118110236},{"duration":0.2715916333333297,"durationTicks":239,"midi":51,"name":"D#3","ticks":61200,"time":69.54563999999999,"velocity":0.7559055118110236},{"duration":0.2715916333333297,"durationTicks":239,"midi":56,"name":"G#3","ticks":61200,"time":69.54563999999999,"velocity":0.7559055118110236},{"duration":0.2715916333333297,"durationTicks":239,"midi":60,"name":"C4","ticks":61200,"time":69.54563999999999,"velocity":0.7559055118110236},{"duration":0.5443196333333304,"durationTicks":479,"midi":39,"name":"D#2","ticks":61440,"time":69.81836799999999,"velocity":0.7559055118110236},{"duration":0.5443196333333304,"durationTicks":479,"midi":46,"name":"A#2","ticks":61440,"time":69.81836799999999,"velocity":0.7559055118110236},{"duration":0.5443196333333304,"durationTicks":479,"midi":51,"name":"D#3","ticks":61440,"time":69.81836799999999,"velocity":0.7559055118110236},{"duration":0.2715916333333297,"durationTicks":239,"midi":39,"name":"D#2","ticks":61920,"time":70.363824,"velocity":0.7559055118110236},{"duration":0.2715916333333297,"durationTicks":239,"midi":51,"name":"D#3","ticks":61920,"time":70.363824,"velocity":0.7559055118110236},{"duration":0.2715916333333297,"durationTicks":239,"midi":39,"name":"D#2","ticks":62160,"time":70.636552,"velocity":0.7559055118110236},{"duration":0.2715916333333297,"durationTicks":239,"midi":51,"name":"D#3","ticks":62160,"time":70.636552,"velocity":0.7559055118110236},{"duration":0.5443196333333304,"durationTicks":479,"midi":46,"name":"A#2","ticks":62400,"time":70.90928,"velocity":0.7559055118110236},{"duration":0.5443196333333304,"durationTicks":479,"midi":51,"name":"D#3","ticks":62400,"time":70.90928,"velocity":0.7559055118110236},{"duration":0.5443196333333304,"durationTicks":479,"midi":55,"name":"G3","ticks":62400,"time":70.90928,"velocity":0.7559055118110236},{"duration":0.5443196333333304,"durationTicks":479,"midi":39,"name":"D#2","ticks":62880,"time":71.454736,"velocity":0.7559055118110236},{"duration":0.5443196333333304,"durationTicks":479,"midi":46,"name":"A#2","ticks":62880,"time":71.454736,"velocity":0.7559055118110236},{"duration":0.5443196333333304,"durationTicks":479,"midi":51,"name":"D#3","ticks":62880,"time":71.454736,"velocity":0.7559055118110236},{"duration":0.5443196333333304,"durationTicks":479,"midi":43,"name":"G2","ticks":63360,"time":72.000192,"velocity":0.7559055118110236},{"duration":0.5443196333333304,"durationTicks":479,"midi":50,"name":"D3","ticks":63360,"time":72.000192,"velocity":0.7559055118110236},{"duration":0.5443196333333304,"durationTicks":479,"midi":55,"name":"G3","ticks":63360,"time":72.000192,"velocity":0.7559055118110236},{"duration":0.2715916333333439,"durationTicks":239,"midi":43,"name":"G2","ticks":63840,"time":72.54564799999999,"velocity":0.7559055118110236},{"duration":0.2715916333333439,"durationTicks":239,"midi":55,"name":"G3","ticks":63840,"time":72.54564799999999,"velocity":0.7559055118110236},{"duration":0.2715916333333439,"durationTicks":239,"midi":43,"name":"G2","ticks":64080,"time":72.81837599999999,"velocity":0.7559055118110236},{"duration":0.2715916333333439,"durationTicks":239,"midi":55,"name":"G3","ticks":64080,"time":72.81837599999999,"velocity":0.7559055118110236},{"duration":0.5443196333333447,"durationTicks":479,"midi":50,"name":"D3","ticks":64320,"time":73.09110399999999,"velocity":0.7559055118110236},{"duration":0.5443196333333447,"durationTicks":479,"midi":55,"name":"G3","ticks":64320,"time":73.09110399999999,"velocity":0.7559055118110236},{"duration":0.5443196333333447,"durationTicks":479,"midi":58,"name":"A#3","ticks":64320,"time":73.09110399999999,"velocity":0.7559055118110236},{"duration":0.5443196333333447,"durationTicks":479,"midi":43,"name":"G2","ticks":64800,"time":73.63655999999999,"velocity":0.7559055118110236},{"duration":0.5443196333333447,"durationTicks":479,"midi":50,"name":"D3","ticks":64800,"time":73.63655999999999,"velocity":0.7559055118110236},{"duration":0.5443196333333447,"durationTicks":479,"midi":55,"name":"G3","ticks":64800,"time":73.63655999999999,"velocity":0.7559055118110236},{"duration":0.5443196333333304,"durationTicks":479,"midi":36,"name":"C2","ticks":65280,"time":74.18201599999999,"velocity":0.7559055118110236},{"duration":0.5443196333333304,"durationTicks":479,"midi":43,"name":"G2","ticks":65280,"time":74.18201599999999,"velocity":0.7559055118110236},{"duration":0.5443196333333304,"durationTicks":479,"midi":48,"name":"C3","ticks":65280,"time":74.18201599999999,"velocity":0.7559055118110236},{"duration":0.2715916333333297,"durationTicks":239,"midi":36,"name":"C2","ticks":65760,"time":74.72747199999999,"velocity":0.7559055118110236},{"duration":0.2715916333333297,"durationTicks":239,"midi":48,"name":"C3","ticks":65760,"time":74.72747199999999,"velocity":0.7559055118110236},{"duration":0.2715916333333297,"durationTicks":239,"midi":36,"name":"C2","ticks":66000,"time":75.00019999999999,"velocity":0.7559055118110236},{"duration":0.2715916333333297,"durationTicks":239,"midi":48,"name":"C3","ticks":66000,"time":75.00019999999999,"velocity":0.7559055118110236},{"duration":0.5443196333333304,"durationTicks":479,"midi":43,"name":"G2","ticks":66240,"time":75.272928,"velocity":0.7559055118110236},{"duration":0.5443196333333304,"durationTicks":479,"midi":48,"name":"C3","ticks":66240,"time":75.272928,"velocity":0.7559055118110236},{"duration":0.5443196333333304,"durationTicks":479,"midi":51,"name":"D#3","ticks":66240,"time":75.272928,"velocity":0.7559055118110236},{"duration":0.5443196333333304,"durationTicks":479,"midi":36,"name":"C2","ticks":66720,"time":75.818384,"velocity":0.7559055118110236},{"duration":0.5443196333333304,"durationTicks":479,"midi":43,"name":"G2","ticks":66720,"time":75.818384,"velocity":0.7559055118110236},{"duration":0.5443196333333304,"durationTicks":479,"midi":48,"name":"C3","ticks":66720,"time":75.818384,"velocity":0.7559055118110236},{"duration":0.5443196333333304,"durationTicks":479,"midi":44,"name":"G#2","ticks":67200,"time":76.36384,"velocity":0.7559055118110236},{"duration":0.5443196333333304,"durationTicks":479,"midi":51,"name":"D#3","ticks":67200,"time":76.36384,"velocity":0.7559055118110236},{"duration":0.5443196333333304,"durationTicks":479,"midi":56,"name":"G#3","ticks":67200,"time":76.36384,"velocity":0.7559055118110236},{"duration":0.2715916333333297,"durationTicks":239,"midi":44,"name":"G#2","ticks":67680,"time":76.909296,"velocity":0.7559055118110236},{"duration":0.2715916333333297,"durationTicks":239,"midi":56,"name":"G#3","ticks":67680,"time":76.909296,"velocity":0.7559055118110236},{"duration":0.2715916333333297,"durationTicks":239,"midi":44,"name":"G#2","ticks":67920,"time":77.182024,"velocity":0.7559055118110236},{"duration":0.2715916333333297,"durationTicks":239,"midi":56,"name":"G#3","ticks":67920,"time":77.182024,"velocity":0.7559055118110236},{"duration":0.5443196333333447,"durationTicks":479,"midi":51,"name":"D#3","ticks":68160,"time":77.45475199999998,"velocity":0.7559055118110236},{"duration":0.5443196333333447,"durationTicks":479,"midi":56,"name":"G#3","ticks":68160,"time":77.45475199999998,"velocity":0.7559055118110236},{"duration":0.5443196333333447,"durationTicks":479,"midi":60,"name":"C4","ticks":68160,"time":77.45475199999998,"velocity":0.7559055118110236},{"duration":0.5443196333333447,"durationTicks":479,"midi":44,"name":"G#2","ticks":68640,"time":78.00020799999999,"velocity":0.7559055118110236},{"duration":0.5443196333333447,"durationTicks":479,"midi":51,"name":"D#3","ticks":68640,"time":78.00020799999999,"velocity":0.7559055118110236},{"duration":0.5443196333333447,"durationTicks":479,"midi":56,"name":"G#3","ticks":68640,"time":78.00020799999999,"velocity":0.7559055118110236},{"duration":0.5443196333333447,"durationTicks":479,"midi":39,"name":"D#2","ticks":69120,"time":78.54566399999999,"velocity":0.7559055118110236},{"duration":0.5443196333333447,"durationTicks":479,"midi":46,"name":"A#2","ticks":69120,"time":78.54566399999999,"velocity":0.7559055118110236},{"duration":0.5443196333333447,"durationTicks":479,"midi":51,"name":"D#3","ticks":69120,"time":78.54566399999999,"velocity":0.7559055118110236},{"duration":0.2715916333333297,"durationTicks":239,"midi":39,"name":"D#2","ticks":69600,"time":79.09111999999999,"velocity":0.7559055118110236},{"duration":0.2715916333333297,"durationTicks":239,"midi":51,"name":"D#3","ticks":69600,"time":79.09111999999999,"velocity":0.7559055118110236},{"duration":0.2715916333333297,"durationTicks":239,"midi":39,"name":"D#2","ticks":69840,"time":79.36384799999999,"velocity":0.6299212598425197},{"duration":0.2715916333333297,"durationTicks":239,"midi":51,"name":"D#3","ticks":69840,"time":79.36384799999999,"velocity":0.6299212598425197},{"duration":0.5443196333333304,"durationTicks":479,"midi":46,"name":"A#2","ticks":70080,"time":79.63657599999999,"velocity":0.6299212598425197},{"duration":0.5443196333333304,"durationTicks":479,"midi":51,"name":"D#3","ticks":70080,"time":79.63657599999999,"velocity":0.6299212598425197},{"duration":0.5443196333333304,"durationTicks":479,"midi":55,"name":"G3","ticks":70080,"time":79.63657599999999,"velocity":0.6299212598425197},{"duration":0.5443196333333304,"durationTicks":479,"midi":39,"name":"D#2","ticks":70560,"time":80.18203199999999,"velocity":0.6299212598425197},{"duration":0.5443196333333304,"durationTicks":479,"midi":46,"name":"A#2","ticks":70560,"time":80.18203199999999,"velocity":0.6299212598425197},{"duration":0.5443196333333304,"durationTicks":479,"midi":51,"name":"D#3","ticks":70560,"time":80.18203199999999,"velocity":0.6299212598425197},{"duration":0.5443196333333304,"durationTicks":479,"midi":43,"name":"G2","ticks":71040,"time":80.727488,"velocity":0.6299212598425197},{"duration":0.5443196333333304,"durationTicks":479,"midi":50,"name":"D3","ticks":71040,"time":80.727488,"velocity":0.6299212598425197},{"duration":0.27272800000000075,"durationTicks":240,"midi":55,"name":"G3","ticks":71040,"time":80.727488,"velocity":0.6299212598425197},{"duration":0.2715916333333297,"durationTicks":239,"midi":43,"name":"G2","ticks":71520,"time":81.272944,"velocity":0.6299212598425197},{"duration":0.2715916333333297,"durationTicks":239,"midi":55,"name":"G3","ticks":71520,"time":81.272944,"velocity":0.6299212598425197},{"duration":0.2715916333333297,"durationTicks":239,"midi":43,"name":"G2","ticks":71760,"time":81.545672,"velocity":0.7559055118110236},{"duration":0.2715916333333297,"durationTicks":239,"midi":55,"name":"G3","ticks":71760,"time":81.545672,"velocity":0.7559055118110236},{"duration":0.5443196333333304,"durationTicks":479,"midi":50,"name":"D3","ticks":72000,"time":81.8184,"velocity":0.7559055118110236},{"duration":0.5443196333333304,"durationTicks":479,"midi":55,"name":"G3","ticks":72000,"time":81.8184,"velocity":0.7559055118110236},{"duration":0.5443196333333304,"durationTicks":479,"midi":58,"name":"A#3","ticks":72000,"time":81.8184,"velocity":0.7559055118110236},{"duration":0.5443196333333447,"durationTicks":479,"midi":43,"name":"G2","ticks":72480,"time":82.36385599999998,"velocity":0.7559055118110236},{"duration":0.5443196333333447,"durationTicks":479,"midi":50,"name":"D3","ticks":72480,"time":82.36385599999998,"velocity":0.7559055118110236},{"duration":0.5443196333333447,"durationTicks":479,"midi":55,"name":"G3","ticks":72480,"time":82.36385599999998,"velocity":0.7559055118110236},{"duration":0.5443196333333447,"durationTicks":479,"midi":36,"name":"C2","ticks":72960,"time":82.90931199999999,"velocity":0.7559055118110236},{"duration":0.5443196333333447,"durationTicks":479,"midi":43,"name":"G2","ticks":72960,"time":82.90931199999999,"velocity":0.7559055118110236},{"duration":0.5443196333333447,"durationTicks":479,"midi":48,"name":"C3","ticks":72960,"time":82.90931199999999,"velocity":0.7559055118110236},{"duration":0.2715916333333439,"durationTicks":239,"midi":36,"name":"C2","ticks":73440,"time":83.45476799999999,"velocity":0.7559055118110236},{"duration":0.2715916333333439,"durationTicks":239,"midi":48,"name":"C3","ticks":73440,"time":83.45476799999999,"velocity":0.7559055118110236},{"duration":0.2715916333333439,"durationTicks":239,"midi":36,"name":"C2","ticks":73680,"time":83.72749599999999,"velocity":0.6299212598425197},{"duration":0.2715916333333439,"durationTicks":239,"midi":48,"name":"C3","ticks":73680,"time":83.72749599999999,"velocity":0.6299212598425197},{"duration":0.5443196333333304,"durationTicks":479,"midi":43,"name":"G2","ticks":73920,"time":84.00022399999999,"velocity":0.6299212598425197},{"duration":0.5443196333333304,"durationTicks":479,"midi":48,"name":"C3","ticks":73920,"time":84.00022399999999,"velocity":0.6299212598425197},{"duration":0.5443196333333304,"durationTicks":479,"midi":51,"name":"D#3","ticks":73920,"time":84.00022399999999,"velocity":0.6299212598425197},{"duration":0.5443196333333304,"durationTicks":479,"midi":36,"name":"C2","ticks":74400,"time":84.54567999999999,"velocity":0.6299212598425197},{"duration":0.5443196333333304,"durationTicks":479,"midi":43,"name":"G2","ticks":74400,"time":84.54567999999999,"velocity":0.6299212598425197},{"duration":0.5443196333333304,"durationTicks":479,"midi":48,"name":"C3","ticks":74400,"time":84.54567999999999,"velocity":0.6299212598425197},{"duration":0.5443196333333304,"durationTicks":479,"midi":44,"name":"G#2","ticks":74880,"time":85.09113599999999,"velocity":0.6299212598425197},{"duration":0.5443196333333304,"durationTicks":479,"midi":51,"name":"D#3","ticks":74880,"time":85.09113599999999,"velocity":0.6299212598425197},{"duration":0.5443196333333304,"durationTicks":479,"midi":56,"name":"G#3","ticks":74880,"time":85.09113599999999,"velocity":0.6299212598425197},{"duration":0.2715916333333297,"durationTicks":239,"midi":44,"name":"G#2","ticks":75360,"time":85.636592,"velocity":0.6299212598425197},{"duration":0.2715916333333297,"durationTicks":239,"midi":56,"name":"G#3","ticks":75360,"time":85.636592,"velocity":0.6299212598425197},{"duration":0.2715916333333297,"durationTicks":239,"midi":44,"name":"G#2","ticks":75600,"time":85.90932,"velocity":0.6299212598425197},{"duration":0.2715916333333297,"durationTicks":239,"midi":56,"name":"G#3","ticks":75600,"time":85.90932,"velocity":0.6299212598425197},{"duration":0.5443196333333304,"durationTicks":479,"midi":51,"name":"D#3","ticks":75840,"time":86.182048,"velocity":0.7559055118110236},{"duration":0.5443196333333304,"durationTicks":479,"midi":56,"name":"G#3","ticks":75840,"time":86.182048,"velocity":0.7559055118110236},{"duration":0.5443196333333304,"durationTicks":479,"midi":60,"name":"C4","ticks":75840,"time":86.182048,"velocity":0.7559055118110236},{"duration":0.5443196333333304,"durationTicks":479,"midi":44,"name":"G#2","ticks":76320,"time":86.727504,"velocity":0.7559055118110236},{"duration":0.5443196333333304,"durationTicks":479,"midi":51,"name":"D#3","ticks":76320,"time":86.727504,"velocity":0.7559055118110236},{"duration":0.5443196333333304,"durationTicks":479,"midi":56,"name":"G#3","ticks":76320,"time":86.727504,"velocity":0.7559055118110236},{"duration":0.5443196333333447,"durationTicks":479,"midi":39,"name":"D#2","ticks":76800,"time":87.27295999999998,"velocity":0.7559055118110236},{"duration":0.5443196333333447,"durationTicks":479,"midi":46,"name":"A#2","ticks":76800,"time":87.27295999999998,"velocity":0.7559055118110236},{"duration":0.5443196333333447,"durationTicks":479,"midi":51,"name":"D#3","ticks":76800,"time":87.27295999999998,"velocity":0.7559055118110236},{"duration":0.2715916333333439,"durationTicks":239,"midi":39,"name":"D#2","ticks":77280,"time":87.81841599999998,"velocity":0.7559055118110236},{"duration":0.2715916333333439,"durationTicks":239,"midi":51,"name":"D#3","ticks":77280,"time":87.81841599999998,"velocity":0.7559055118110236},{"duration":0.2715916333333439,"durationTicks":239,"midi":39,"name":"D#2","ticks":77520,"time":88.09114399999999,"velocity":0.7559055118110236},{"duration":0.2715916333333439,"durationTicks":239,"midi":51,"name":"D#3","ticks":77520,"time":88.09114399999999,"velocity":0.7559055118110236},{"duration":0.5443196333333447,"durationTicks":479,"midi":46,"name":"A#2","ticks":77760,"time":88.36387199999999,"velocity":0.7559055118110236},{"duration":0.5443196333333447,"durationTicks":479,"midi":51,"name":"D#3","ticks":77760,"time":88.36387199999999,"velocity":0.7559055118110236},{"duration":0.5443196333333447,"durationTicks":479,"midi":55,"name":"G3","ticks":77760,"time":88.36387199999999,"velocity":0.7559055118110236},{"duration":0.5443196333333304,"durationTicks":479,"midi":39,"name":"D#2","ticks":78240,"time":88.90932799999999,"velocity":0.7559055118110236},{"duration":0.5443196333333304,"durationTicks":479,"midi":46,"name":"A#2","ticks":78240,"time":88.90932799999999,"velocity":0.7559055118110236},{"duration":0.5443196333333304,"durationTicks":479,"midi":51,"name":"D#3","ticks":78240,"time":88.90932799999999,"velocity":0.7559055118110236},{"duration":0.5443196333333304,"durationTicks":479,"midi":43,"name":"G2","ticks":78720,"time":89.45478399999999,"velocity":0.7559055118110236},{"duration":0.5443196333333304,"durationTicks":479,"midi":50,"name":"D3","ticks":78720,"time":89.45478399999999,"velocity":0.7559055118110236},{"duration":0.5443196333333304,"durationTicks":479,"midi":55,"name":"G3","ticks":78720,"time":89.45478399999999,"velocity":0.7559055118110236},{"duration":0.2715916333333297,"durationTicks":239,"midi":43,"name":"G2","ticks":79200,"time":90.00023999999999,"velocity":0.7559055118110236},{"duration":0.2715916333333297,"durationTicks":239,"midi":55,"name":"G3","ticks":79200,"time":90.00023999999999,"velocity":0.7559055118110236},{"duration":0.2715916333333297,"durationTicks":239,"midi":43,"name":"G2","ticks":79440,"time":90.27296799999999,"velocity":0.7559055118110236},{"duration":0.2715916333333297,"durationTicks":239,"midi":55,"name":"G3","ticks":79440,"time":90.27296799999999,"velocity":0.7559055118110236},{"duration":0.5443196333333304,"durationTicks":479,"midi":50,"name":"D3","ticks":79680,"time":90.54569599999999,"velocity":0.7559055118110236},{"duration":0.5443196333333304,"durationTicks":479,"midi":55,"name":"G3","ticks":79680,"time":90.54569599999999,"velocity":0.7559055118110236},{"duration":0.5443196333333304,"durationTicks":479,"midi":58,"name":"A#3","ticks":79680,"time":90.54569599999999,"velocity":0.7559055118110236},{"duration":0.5443196333333304,"durationTicks":479,"midi":43,"name":"G2","ticks":80160,"time":91.091152,"velocity":0.7559055118110236},{"duration":0.5443196333333304,"durationTicks":479,"midi":50,"name":"D3","ticks":80160,"time":91.091152,"velocity":0.7559055118110236},{"duration":0.5443196333333304,"durationTicks":479,"midi":55,"name":"G3","ticks":80160,"time":91.091152,"velocity":0.7559055118110236},{"duration":0.5443196333333304,"durationTicks":479,"midi":36,"name":"C2","ticks":80640,"time":91.636608,"velocity":0.7559055118110236},{"duration":0.5443196333333304,"durationTicks":479,"midi":43,"name":"G2","ticks":80640,"time":91.636608,"velocity":0.7559055118110236},{"duration":0.5443196333333304,"durationTicks":479,"midi":48,"name":"C3","ticks":80640,"time":91.636608,"velocity":0.7559055118110236},{"duration":0.2715916333333297,"durationTicks":239,"midi":36,"name":"C2","ticks":81120,"time":92.182064,"velocity":0.7559055118110236},{"duration":0.2715916333333297,"durationTicks":239,"midi":48,"name":"C3","ticks":81120,"time":92.182064,"velocity":0.7559055118110236},{"duration":0.2715916333333439,"durationTicks":239,"midi":36,"name":"C2","ticks":81360,"time":92.45479199999998,"velocity":0.7559055118110236},{"duration":0.2715916333333439,"durationTicks":239,"midi":48,"name":"C3","ticks":81360,"time":92.45479199999998,"velocity":0.7559055118110236},{"duration":0.5443196333333447,"durationTicks":479,"midi":43,"name":"G2","ticks":81600,"time":92.72751999999998,"velocity":0.7559055118110236},{"duration":0.5443196333333447,"durationTicks":479,"midi":48,"name":"C3","ticks":81600,"time":92.72751999999998,"velocity":0.7559055118110236},{"duration":0.5443196333333447,"durationTicks":479,"midi":51,"name":"D#3","ticks":81600,"time":92.72751999999998,"velocity":0.7559055118110236},{"duration":0.5443196333333447,"durationTicks":479,"midi":36,"name":"C2","ticks":82080,"time":93.27297599999999,"velocity":0.7559055118110236},{"duration":0.5443196333333447,"durationTicks":479,"midi":43,"name":"G2","ticks":82080,"time":93.27297599999999,"velocity":0.7559055118110236},{"duration":0.5443196333333447,"durationTicks":479,"midi":48,"name":"C3","ticks":82080,"time":93.27297599999999,"velocity":0.7559055118110236},{"duration":0.5443196333333304,"durationTicks":479,"midi":44,"name":"G#2","ticks":82560,"time":93.81843199999999,"velocity":0.7559055118110236},{"duration":0.5443196333333304,"durationTicks":479,"midi":51,"name":"D#3","ticks":82560,"time":93.81843199999999,"velocity":0.7559055118110236},{"duration":0.5443196333333304,"durationTicks":479,"midi":56,"name":"G#3","ticks":82560,"time":93.81843199999999,"velocity":0.7559055118110236},{"duration":0.2715916333333297,"durationTicks":239,"midi":44,"name":"G#2","ticks":83040,"time":94.36388799999999,"velocity":0.7559055118110236},{"duration":0.2715916333333297,"durationTicks":239,"midi":56,"name":"G#3","ticks":83040,"time":94.36388799999999,"velocity":0.7559055118110236},{"duration":0.2715916333333297,"durationTicks":239,"midi":44,"name":"G#2","ticks":83280,"time":94.63661599999999,"velocity":0.7559055118110236},{"duration":0.2715916333333297,"durationTicks":239,"midi":56,"name":"G#3","ticks":83280,"time":94.63661599999999,"velocity":0.7559055118110236},{"duration":0.5443196333333304,"durationTicks":479,"midi":51,"name":"D#3","ticks":83520,"time":94.90934399999999,"velocity":0.7559055118110236},{"duration":0.5443196333333304,"durationTicks":479,"midi":56,"name":"G#3","ticks":83520,"time":94.90934399999999,"velocity":0.7559055118110236},{"duration":0.5443196333333304,"durationTicks":479,"midi":60,"name":"C4","ticks":83520,"time":94.90934399999999,"velocity":0.7559055118110236},{"duration":0.5443196333333304,"durationTicks":479,"midi":44,"name":"G#2","ticks":84000,"time":95.45479999999999,"velocity":0.7559055118110236},{"duration":0.5443196333333304,"durationTicks":479,"midi":51,"name":"D#3","ticks":84000,"time":95.45479999999999,"velocity":0.7559055118110236},{"duration":0.5443196333333304,"durationTicks":479,"midi":56,"name":"G#3","ticks":84000,"time":95.45479999999999,"velocity":0.7559055118110236},{"duration":0.5443196333333304,"durationTicks":479,"midi":39,"name":"D#2","ticks":84480,"time":96.000256,"velocity":0.7559055118110236},{"duration":0.5443196333333304,"durationTicks":479,"midi":46,"name":"A#2","ticks":84480,"time":96.000256,"velocity":0.7559055118110236},{"duration":0.5443196333333304,"durationTicks":479,"midi":51,"name":"D#3","ticks":84480,"time":96.000256,"velocity":0.7559055118110236},{"duration":0.2715916333333297,"durationTicks":239,"midi":39,"name":"D#2","ticks":84960,"time":96.545712,"velocity":0.7559055118110236},{"duration":0.2715916333333297,"durationTicks":239,"midi":51,"name":"D#3","ticks":84960,"time":96.545712,"velocity":0.7559055118110236},{"duration":0.2715916333333297,"durationTicks":239,"midi":39,"name":"D#2","ticks":85200,"time":96.81844,"velocity":0.6299212598425197},{"duration":0.2715916333333297,"durationTicks":239,"midi":51,"name":"D#3","ticks":85200,"time":96.81844,"velocity":0.6299212598425197},{"duration":0.5443196333333304,"durationTicks":479,"midi":46,"name":"A#2","ticks":85440,"time":97.091168,"velocity":0.6299212598425197},{"duration":0.5443196333333304,"durationTicks":479,"midi":51,"name":"D#3","ticks":85440,"time":97.091168,"velocity":0.6299212598425197},{"duration":0.5443196333333304,"durationTicks":479,"midi":55,"name":"G3","ticks":85440,"time":97.091168,"velocity":0.6299212598425197},{"duration":0.5443196333333447,"durationTicks":479,"midi":39,"name":"D#2","ticks":85920,"time":97.63662399999998,"velocity":0.6299212598425197},{"duration":0.5443196333333447,"durationTicks":479,"midi":46,"name":"A#2","ticks":85920,"time":97.63662399999998,"velocity":0.6299212598425197},{"duration":0.5443196333333447,"durationTicks":479,"midi":51,"name":"D#3","ticks":85920,"time":97.63662399999998,"velocity":0.6299212598425197},{"duration":0.5443196333333447,"durationTicks":479,"midi":43,"name":"G2","ticks":86400,"time":98.18207999999998,"velocity":0.6299212598425197},{"duration":0.5443196333333447,"durationTicks":479,"midi":50,"name":"D3","ticks":86400,"time":98.18207999999998,"velocity":0.6299212598425197},{"duration":0.27272800000000075,"durationTicks":240,"midi":55,"name":"G3","ticks":86400,"time":98.18207999999998,"velocity":0.6299212598425197},{"duration":0.2715916333333439,"durationTicks":239,"midi":43,"name":"G2","ticks":86880,"time":98.72753599999999,"velocity":0.6299212598425197},{"duration":0.2715916333333439,"durationTicks":239,"midi":55,"name":"G3","ticks":86880,"time":98.72753599999999,"velocity":0.6299212598425197},{"duration":0.2715916333333297,"durationTicks":239,"midi":43,"name":"G2","ticks":87120,"time":99.00026399999999,"velocity":0.7559055118110236},{"duration":0.2715916333333297,"durationTicks":239,"midi":55,"name":"G3","ticks":87120,"time":99.00026399999999,"velocity":0.7559055118110236},{"duration":0.5443196333333304,"durationTicks":479,"midi":50,"name":"D3","ticks":87360,"time":99.27299199999999,"velocity":0.7559055118110236},{"duration":0.5443196333333304,"durationTicks":479,"midi":55,"name":"G3","ticks":87360,"time":99.27299199999999,"velocity":0.7559055118110236},{"duration":0.5443196333333304,"durationTicks":479,"midi":58,"name":"A#3","ticks":87360,"time":99.27299199999999,"velocity":0.7559055118110236},{"duration":0.5443196333333304,"durationTicks":479,"midi":43,"name":"G2","ticks":87840,"time":99.81844799999999,"velocity":0.7559055118110236},{"duration":0.5443196333333304,"durationTicks":479,"midi":50,"name":"D3","ticks":87840,"time":99.81844799999999,"velocity":0.7559055118110236},{"duration":0.5443196333333304,"durationTicks":479,"midi":55,"name":"G3","ticks":87840,"time":99.81844799999999,"velocity":0.7559055118110236},{"duration":0.5443196333333304,"durationTicks":479,"midi":36,"name":"C2","ticks":88320,"time":100.36390399999999,"velocity":0.7559055118110236},{"duration":0.5443196333333304,"durationTicks":479,"midi":43,"name":"G2","ticks":88320,"time":100.36390399999999,"velocity":0.7559055118110236},{"duration":0.5443196333333304,"durationTicks":479,"midi":48,"name":"C3","ticks":88320,"time":100.36390399999999,"velocity":0.7559055118110236},{"duration":0.2715916333333297,"durationTicks":239,"midi":36,"name":"C2","ticks":88800,"time":100.90935999999999,"velocity":0.7559055118110236},{"duration":0.2715916333333297,"durationTicks":239,"midi":48,"name":"C3","ticks":88800,"time":100.90935999999999,"velocity":0.7559055118110236},{"duration":0.2715916333333297,"durationTicks":239,"midi":36,"name":"C2","ticks":89040,"time":101.182088,"velocity":0.6299212598425197},{"duration":0.2715916333333297,"durationTicks":239,"midi":48,"name":"C3","ticks":89040,"time":101.182088,"velocity":0.6299212598425197},{"duration":0.5443196333333304,"durationTicks":479,"midi":43,"name":"G2","ticks":89280,"time":101.454816,"velocity":0.6299212598425197},{"duration":0.5443196333333304,"durationTicks":479,"midi":48,"name":"C3","ticks":89280,"time":101.454816,"velocity":0.6299212598425197},{"duration":0.5443196333333304,"durationTicks":479,"midi":51,"name":"D#3","ticks":89280,"time":101.454816,"velocity":0.6299212598425197},{"duration":0.5443196333333304,"durationTicks":479,"midi":36,"name":"C2","ticks":89760,"time":102.000272,"velocity":0.6299212598425197},{"duration":0.5443196333333304,"durationTicks":479,"midi":43,"name":"G2","ticks":89760,"time":102.000272,"velocity":0.6299212598425197},{"duration":0.5443196333333304,"durationTicks":479,"midi":48,"name":"C3","ticks":89760,"time":102.000272,"velocity":0.6299212598425197},{"duration":0.5443196333333447,"durationTicks":479,"midi":44,"name":"G#2","ticks":90240,"time":102.54572799999998,"velocity":0.6299212598425197},{"duration":0.5443196333333447,"durationTicks":479,"midi":51,"name":"D#3","ticks":90240,"time":102.54572799999998,"velocity":0.6299212598425197},{"duration":0.5443196333333447,"durationTicks":479,"midi":56,"name":"G#3","ticks":90240,"time":102.54572799999998,"velocity":0.6299212598425197},{"duration":0.2715916333333439,"durationTicks":239,"midi":44,"name":"G#2","ticks":90720,"time":103.09118399999998,"velocity":0.7559055118110236},{"duration":0.2715916333333439,"durationTicks":239,"midi":56,"name":"G#3","ticks":90720,"time":103.09118399999998,"velocity":0.7559055118110236},{"duration":0.2715916333333439,"durationTicks":239,"midi":44,"name":"G#2","ticks":90960,"time":103.36391199999998,"velocity":0.7559055118110236},{"duration":0.2715916333333439,"durationTicks":239,"midi":56,"name":"G#3","ticks":90960,"time":103.36391199999998,"velocity":0.7559055118110236},{"duration":0.5443196333333304,"durationTicks":479,"midi":51,"name":"D#3","ticks":91200,"time":103.63663999999999,"velocity":0.7559055118110236},{"duration":0.5443196333333304,"durationTicks":479,"midi":56,"name":"G#3","ticks":91200,"time":103.63663999999999,"velocity":0.7559055118110236},{"duration":0.5443196333333304,"durationTicks":479,"midi":60,"name":"C4","ticks":91200,"time":103.63663999999999,"velocity":0.7559055118110236},{"duration":0.5443196333333304,"durationTicks":479,"midi":44,"name":"G#2","ticks":91680,"time":104.18209599999999,"velocity":0.7559055118110236},{"duration":0.5443196333333304,"durationTicks":479,"midi":51,"name":"D#3","ticks":91680,"time":104.18209599999999,"velocity":0.7559055118110236},{"duration":0.5443196333333304,"durationTicks":479,"midi":56,"name":"G#3","ticks":91680,"time":104.18209599999999,"velocity":0.7559055118110236},{"duration":0.5443196333333304,"durationTicks":479,"midi":39,"name":"D#2","ticks":92160,"time":104.72755199999999,"velocity":0.7559055118110236},{"duration":0.5443196333333304,"durationTicks":479,"midi":46,"name":"A#2","ticks":92160,"time":104.72755199999999,"velocity":0.7559055118110236},{"duration":0.5443196333333304,"durationTicks":479,"midi":51,"name":"D#3","ticks":92160,"time":104.72755199999999,"velocity":0.7559055118110236},{"duration":0.2715916333333297,"durationTicks":239,"midi":39,"name":"D#2","ticks":92640,"time":105.27300799999999,"velocity":0.7559055118110236},{"duration":0.2715916333333297,"durationTicks":239,"midi":51,"name":"D#3","ticks":92640,"time":105.27300799999999,"velocity":0.7559055118110236},{"duration":0.2715916333333297,"durationTicks":239,"midi":39,"name":"D#2","ticks":92880,"time":105.54573599999999,"velocity":0.7559055118110236},{"duration":0.2715916333333297,"durationTicks":239,"midi":51,"name":"D#3","ticks":92880,"time":105.54573599999999,"velocity":0.7559055118110236},{"duration":0.5443196333333304,"durationTicks":479,"midi":46,"name":"A#2","ticks":93120,"time":105.81846399999999,"velocity":0.7559055118110236},{"duration":0.5443196333333304,"durationTicks":479,"midi":51,"name":"D#3","ticks":93120,"time":105.81846399999999,"velocity":0.7559055118110236},{"duration":0.5443196333333304,"durationTicks":479,"midi":55,"name":"G3","ticks":93120,"time":105.81846399999999,"velocity":0.7559055118110236},{"duration":0.5443196333333304,"durationTicks":479,"midi":39,"name":"D#2","ticks":93600,"time":106.36392,"velocity":0.7559055118110236},{"duration":0.5443196333333304,"durationTicks":479,"midi":46,"name":"A#2","ticks":93600,"time":106.36392,"velocity":0.7559055118110236},{"duration":0.5443196333333304,"durationTicks":479,"midi":51,"name":"D#3","ticks":93600,"time":106.36392,"velocity":0.7559055118110236},{"duration":0.5443196333333304,"durationTicks":479,"midi":43,"name":"G2","ticks":94080,"time":106.909376,"velocity":0.7559055118110236},{"duration":0.5443196333333304,"durationTicks":479,"midi":50,"name":"D3","ticks":94080,"time":106.909376,"velocity":0.7559055118110236},{"duration":0.5443196333333304,"durationTicks":479,"midi":55,"name":"G3","ticks":94080,"time":106.909376,"velocity":0.7559055118110236},{"duration":0.2715916333333439,"durationTicks":239,"midi":43,"name":"G2","ticks":94560,"time":107.45483199999998,"velocity":0.7559055118110236},{"duration":0.2715916333333439,"durationTicks":239,"midi":55,"name":"G3","ticks":94560,"time":107.45483199999998,"velocity":0.7559055118110236},{"duration":0.2715916333333439,"durationTicks":239,"midi":43,"name":"G2","ticks":94800,"time":107.72755999999998,"velocity":0.7559055118110236},{"duration":0.2715916333333439,"durationTicks":239,"midi":55,"name":"G3","ticks":94800,"time":107.72755999999998,"velocity":0.7559055118110236},{"duration":0.5443196333333447,"durationTicks":479,"midi":50,"name":"D3","ticks":95040,"time":108.00028799999998,"velocity":0.7559055118110236},{"duration":0.5443196333333447,"durationTicks":479,"midi":55,"name":"G3","ticks":95040,"time":108.00028799999998,"velocity":0.7559055118110236},{"duration":0.5443196333333447,"durationTicks":479,"midi":58,"name":"A#3","ticks":95040,"time":108.00028799999998,"velocity":0.7559055118110236},{"duration":0.5443196333333447,"durationTicks":479,"midi":43,"name":"G2","ticks":95520,"time":108.54574399999998,"velocity":0.7559055118110236},{"duration":0.5443196333333447,"durationTicks":479,"midi":50,"name":"D3","ticks":95520,"time":108.54574399999998,"velocity":0.7559055118110236},{"duration":0.5443196333333447,"durationTicks":479,"midi":55,"name":"G3","ticks":95520,"time":108.54574399999998,"velocity":0.7559055118110236},{"duration":0.5443196333333304,"durationTicks":479,"midi":36,"name":"C2","ticks":96000,"time":109.09119999999999,"velocity":0.7559055118110236},{"duration":0.5443196333333304,"durationTicks":479,"midi":43,"name":"G2","ticks":96000,"time":109.09119999999999,"velocity":0.7559055118110236},{"duration":0.5443196333333304,"durationTicks":479,"midi":48,"name":"C3","ticks":96000,"time":109.09119999999999,"velocity":0.7559055118110236},{"duration":0.2715916333333297,"durationTicks":239,"midi":36,"name":"C2","ticks":96480,"time":109.63665599999999,"velocity":0.7559055118110236},{"duration":0.2715916333333297,"durationTicks":239,"midi":48,"name":"C3","ticks":96480,"time":109.63665599999999,"velocity":0.7559055118110236},{"duration":0.2715916333333297,"durationTicks":239,"midi":36,"name":"C2","ticks":96720,"time":109.90938399999999,"velocity":0.7559055118110236},{"duration":0.2715916333333297,"durationTicks":239,"midi":48,"name":"C3","ticks":96720,"time":109.90938399999999,"velocity":0.7559055118110236},{"duration":0.5443196333333304,"durationTicks":479,"midi":43,"name":"G2","ticks":96960,"time":110.18211199999999,"velocity":0.7559055118110236},{"duration":0.5443196333333304,"durationTicks":479,"midi":48,"name":"C3","ticks":96960,"time":110.18211199999999,"velocity":0.7559055118110236},{"duration":0.5443196333333304,"durationTicks":479,"midi":51,"name":"D#3","ticks":96960,"time":110.18211199999999,"velocity":0.7559055118110236},{"duration":0.5443196333333304,"durationTicks":479,"midi":36,"name":"C2","ticks":97440,"time":110.72756799999999,"velocity":0.7559055118110236},{"duration":0.5443196333333304,"durationTicks":479,"midi":43,"name":"G2","ticks":97440,"time":110.72756799999999,"velocity":0.7559055118110236},{"duration":0.5443196333333304,"durationTicks":479,"midi":48,"name":"C3","ticks":97440,"time":110.72756799999999,"velocity":0.7559055118110236},{"duration":0.5443196333333304,"durationTicks":479,"midi":44,"name":"G#2","ticks":97920,"time":111.27302399999999,"velocity":0.7559055118110236},{"duration":0.5443196333333304,"durationTicks":479,"midi":51,"name":"D#3","ticks":97920,"time":111.27302399999999,"velocity":0.7559055118110236},{"duration":0.5443196333333304,"durationTicks":479,"midi":56,"name":"G#3","ticks":97920,"time":111.27302399999999,"velocity":0.7559055118110236},{"duration":0.2715916333333297,"durationTicks":239,"midi":44,"name":"G#2","ticks":98400,"time":111.81848,"velocity":0.7559055118110236},{"duration":0.2715916333333297,"durationTicks":239,"midi":56,"name":"G#3","ticks":98400,"time":111.81848,"velocity":0.7559055118110236},{"duration":0.2715916333333297,"durationTicks":239,"midi":44,"name":"G#2","ticks":98640,"time":112.091208,"velocity":0.7559055118110236},{"duration":0.2715916333333297,"durationTicks":239,"midi":56,"name":"G#3","ticks":98640,"time":112.091208,"velocity":0.7559055118110236},{"duration":0.5443196333333447,"durationTicks":479,"midi":51,"name":"D#3","ticks":98880,"time":112.36393599999998,"velocity":0.7559055118110236},{"duration":0.5443196333333447,"durationTicks":479,"midi":56,"name":"G#3","ticks":98880,"time":112.36393599999998,"velocity":0.7559055118110236},{"duration":0.5443196333333447,"durationTicks":479,"midi":60,"name":"C4","ticks":98880,"time":112.36393599999998,"velocity":0.7559055118110236},{"duration":0.5443196333333447,"durationTicks":479,"midi":44,"name":"G#2","ticks":99360,"time":112.90939199999998,"velocity":0.7559055118110236},{"duration":0.5443196333333447,"durationTicks":479,"midi":51,"name":"D#3","ticks":99360,"time":112.90939199999998,"velocity":0.7559055118110236},{"duration":0.5443196333333447,"durationTicks":479,"midi":56,"name":"G#3","ticks":99360,"time":112.90939199999998,"velocity":0.7559055118110236},{"duration":0.5443196333333447,"durationTicks":479,"midi":39,"name":"D#2","ticks":99840,"time":113.45484799999998,"velocity":0.7559055118110236},{"duration":0.5443196333333447,"durationTicks":479,"midi":46,"name":"A#2","ticks":99840,"time":113.45484799999998,"velocity":0.7559055118110236},{"duration":0.5443196333333447,"durationTicks":479,"midi":51,"name":"D#3","ticks":99840,"time":113.45484799999998,"velocity":0.7559055118110236},{"duration":0.2715916333333297,"durationTicks":239,"midi":39,"name":"D#2","ticks":100320,"time":114.00030399999999,"velocity":0.7559055118110236},{"duration":0.2715916333333297,"durationTicks":239,"midi":51,"name":"D#3","ticks":100320,"time":114.00030399999999,"velocity":0.7559055118110236},{"duration":0.2715916333333297,"durationTicks":239,"midi":39,"name":"D#2","ticks":100560,"time":114.27303199999999,"velocity":0.7559055118110236},{"duration":0.2715916333333297,"durationTicks":239,"midi":51,"name":"D#3","ticks":100560,"time":114.27303199999999,"velocity":0.7559055118110236},{"duration":0.5443196333333304,"durationTicks":479,"midi":46,"name":"A#2","ticks":100800,"time":114.54575999999999,"velocity":0.7559055118110236},{"duration":0.5443196333333304,"durationTicks":479,"midi":51,"name":"D#3","ticks":100800,"time":114.54575999999999,"velocity":0.7559055118110236},{"duration":0.5443196333333304,"durationTicks":479,"midi":55,"name":"G3","ticks":100800,"time":114.54575999999999,"velocity":0.7559055118110236},{"duration":0.5443196333333304,"durationTicks":479,"midi":39,"name":"D#2","ticks":101280,"time":115.09121599999999,"velocity":0.7559055118110236},{"duration":0.5443196333333304,"durationTicks":479,"midi":46,"name":"A#2","ticks":101280,"time":115.09121599999999,"velocity":0.7559055118110236},{"duration":0.5443196333333304,"durationTicks":479,"midi":51,"name":"D#3","ticks":101280,"time":115.09121599999999,"velocity":0.7559055118110236},{"duration":0.5443196333333304,"durationTicks":479,"midi":43,"name":"G2","ticks":101760,"time":115.63667199999999,"velocity":0.7559055118110236},{"duration":0.5443196333333304,"durationTicks":479,"midi":50,"name":"D3","ticks":101760,"time":115.63667199999999,"velocity":0.7559055118110236},{"duration":0.5443196333333304,"durationTicks":479,"midi":55,"name":"G3","ticks":101760,"time":115.63667199999999,"velocity":0.7559055118110236},{"duration":0.2715916333333297,"durationTicks":239,"midi":43,"name":"G2","ticks":102240,"time":116.18212799999999,"velocity":0.7559055118110236},{"duration":0.2715916333333297,"durationTicks":239,"midi":55,"name":"G3","ticks":102240,"time":116.18212799999999,"velocity":0.7559055118110236},{"duration":0.2715916333333297,"durationTicks":239,"midi":43,"name":"G2","ticks":102480,"time":116.45485599999999,"velocity":0.7559055118110236},{"duration":0.2715916333333297,"durationTicks":239,"midi":55,"name":"G3","ticks":102480,"time":116.45485599999999,"velocity":0.7559055118110236},{"duration":0.5443196333333304,"durationTicks":479,"midi":50,"name":"D3","ticks":102720,"time":116.727584,"velocity":0.7559055118110236},{"duration":0.5443196333333304,"durationTicks":479,"midi":55,"name":"G3","ticks":102720,"time":116.727584,"velocity":0.7559055118110236},{"duration":0.5443196333333304,"durationTicks":479,"midi":58,"name":"A#3","ticks":102720,"time":116.727584,"velocity":0.7559055118110236},{"duration":0.5443196333333447,"durationTicks":479,"midi":43,"name":"G2","ticks":103200,"time":117.27303999999998,"velocity":0.7559055118110236},{"duration":0.5443196333333447,"durationTicks":479,"midi":50,"name":"D3","ticks":103200,"time":117.27303999999998,"velocity":0.7559055118110236},{"duration":0.5443196333333447,"durationTicks":479,"midi":55,"name":"G3","ticks":103200,"time":117.27303999999998,"velocity":0.7559055118110236},{"duration":0.5443196333333447,"durationTicks":479,"midi":36,"name":"C2","ticks":103680,"time":117.81849599999998,"velocity":0.7559055118110236},{"duration":0.5443196333333447,"durationTicks":479,"midi":43,"name":"G2","ticks":103680,"time":117.81849599999998,"velocity":0.7559055118110236},{"duration":0.5443196333333447,"durationTicks":479,"midi":48,"name":"C3","ticks":103680,"time":117.81849599999998,"velocity":0.7559055118110236},{"duration":0.2715916333333439,"durationTicks":239,"midi":36,"name":"C2","ticks":104160,"time":118.36395199999998,"velocity":0.7559055118110236},{"duration":0.2715916333333439,"durationTicks":239,"midi":48,"name":"C3","ticks":104160,"time":118.36395199999998,"velocity":0.7559055118110236},{"duration":0.2715916333333439,"durationTicks":239,"midi":36,"name":"C2","ticks":104400,"time":118.63667999999998,"velocity":0.7559055118110236},{"duration":0.2715916333333439,"durationTicks":239,"midi":48,"name":"C3","ticks":104400,"time":118.63667999999998,"velocity":0.7559055118110236},{"duration":0.5443196333333304,"durationTicks":479,"midi":43,"name":"G2","ticks":104640,"time":118.90940799999998,"velocity":0.7559055118110236},{"duration":0.5443196333333304,"durationTicks":479,"midi":48,"name":"C3","ticks":104640,"time":118.90940799999998,"velocity":0.7559055118110236},{"duration":0.5443196333333304,"durationTicks":479,"midi":51,"name":"D#3","ticks":104640,"time":118.90940799999998,"velocity":0.7559055118110236},{"duration":0.5443196333333304,"durationTicks":479,"midi":36,"name":"C2","ticks":105120,"time":119.45486399999999,"velocity":0.7559055118110236},{"duration":0.5443196333333304,"durationTicks":479,"midi":43,"name":"G2","ticks":105120,"time":119.45486399999999,"velocity":0.7559055118110236},{"duration":0.5443196333333304,"durationTicks":479,"midi":48,"name":"C3","ticks":105120,"time":119.45486399999999,"velocity":0.7559055118110236},{"duration":0.5443196333333304,"durationTicks":479,"midi":44,"name":"G#2","ticks":105600,"time":120.00031999999999,"velocity":0.7559055118110236},{"duration":0.5443196333333304,"durationTicks":479,"midi":51,"name":"D#3","ticks":105600,"time":120.00031999999999,"velocity":0.7559055118110236},{"duration":0.5443196333333304,"durationTicks":479,"midi":56,"name":"G#3","ticks":105600,"time":120.00031999999999,"velocity":0.7559055118110236},{"duration":0.2715916333333297,"durationTicks":239,"midi":44,"name":"G#2","ticks":106080,"time":120.54577599999999,"velocity":0.7559055118110236},{"duration":0.2715916333333297,"durationTicks":239,"midi":56,"name":"G#3","ticks":106080,"time":120.54577599999999,"velocity":0.7559055118110236},{"duration":0.2715916333333297,"durationTicks":239,"midi":44,"name":"G#2","ticks":106320,"time":120.81850399999999,"velocity":0.7559055118110236},{"duration":0.2715916333333297,"durationTicks":239,"midi":56,"name":"G#3","ticks":106320,"time":120.81850399999999,"velocity":0.7559055118110236},{"duration":1.089775633333332,"durationTicks":959,"midi":44,"name":"G#2","ticks":106560,"time":121.09123199999999,"velocity":0.7559055118110236},{"duration":1.089775633333332,"durationTicks":959,"midi":51,"name":"D#3","ticks":106560,"time":121.09123199999999,"velocity":0.7559055118110236},{"duration":1.089775633333332,"durationTicks":959,"midi":56,"name":"G#3","ticks":106560,"time":121.09123199999999,"velocity":0.7559055118110236},{"duration":2.1806876333333207,"durationTicks":1919,"midi":39,"name":"D#2","ticks":107520,"time":122.182144,"velocity":0.7559055118110236},{"duration":2.1806876333333207,"durationTicks":1919,"midi":43,"name":"G2","ticks":107520,"time":122.182144,"velocity":0.7559055118110236},{"duration":2.1806876333333207,"durationTicks":1919,"midi":46,"name":"A#2","ticks":107520,"time":122.182144,"velocity":0.7559055118110236},{"duration":2.1806876333333207,"durationTicks":1919,"midi":51,"name":"D#3","ticks":107520,"time":122.182144,"velocity":0.7559055118110236},{"duration":2.180687633333335,"durationTicks":1919,"midi":43,"name":"G2","ticks":109440,"time":124.36396799999999,"velocity":0.5039370078740157},{"duration":2.180687633333335,"durationTicks":1919,"midi":50,"name":"D3","ticks":109440,"time":124.36396799999999,"velocity":0.5039370078740157},{"duration":2.180687633333335,"durationTicks":1919,"midi":36,"name":"C2","ticks":111360,"time":126.54579199999999,"velocity":0.5039370078740157},{"duration":2.180687633333335,"durationTicks":1919,"midi":43,"name":"G2","ticks":111360,"time":126.54579199999999,"velocity":0.5039370078740157},{"duration":2.180687633333349,"durationTicks":1919,"midi":44,"name":"G#2","ticks":113280,"time":128.72761599999998,"velocity":0.5039370078740157},{"duration":2.180687633333349,"durationTicks":1919,"midi":51,"name":"D#3","ticks":113280,"time":128.72761599999998,"velocity":0.5039370078740157},{"duration":2.1806876333333207,"durationTicks":1919,"midi":39,"name":"D#2","ticks":115200,"time":130.90944,"velocity":0.5039370078740157},{"duration":2.1806876333333207,"durationTicks":1919,"midi":51,"name":"D#3","ticks":115200,"time":130.90944,"velocity":0.5039370078740157},{"duration":2.1806876333333207,"durationTicks":1919,"midi":43,"name":"G2","ticks":117120,"time":133.091264,"velocity":0.5039370078740157},{"duration":2.1806876333333207,"durationTicks":1919,"midi":50,"name":"D3","ticks":117120,"time":133.091264,"velocity":0.5039370078740157},{"duration":2.180687633333349,"durationTicks":1919,"midi":36,"name":"C2","ticks":119040,"time":135.27308799999997,"velocity":0.5039370078740157},{"duration":2.180687633333349,"durationTicks":1919,"midi":43,"name":"G2","ticks":119040,"time":135.27308799999997,"velocity":0.5039370078740157},{"duration":2.180687633333349,"durationTicks":1919,"midi":44,"name":"G#2","ticks":120960,"time":137.45491199999998,"velocity":0.5039370078740157},{"duration":2.180687633333349,"durationTicks":1919,"midi":51,"name":"D#3","ticks":120960,"time":137.45491199999998,"velocity":0.5039370078740157},{"duration":1.0897756333333177,"durationTicks":959,"midi":39,"name":"D#2","ticks":122880,"time":139.63673599999998,"velocity":0.5039370078740157},{"duration":1.0897756333333177,"durationTicks":959,"midi":51,"name":"D#3","ticks":122880,"time":139.63673599999998,"velocity":0.5039370078740157},{"duration":1.0897756333333177,"durationTicks":959,"midi":46,"name":"A#2","ticks":123840,"time":140.727648,"velocity":0.5039370078740157},{"duration":1.0897756333333177,"durationTicks":959,"midi":51,"name":"D#3","ticks":123840,"time":140.727648,"velocity":0.5039370078740157},{"duration":1.0897756333333177,"durationTicks":959,"midi":55,"name":"G3","ticks":123840,"time":140.727648,"velocity":0.5039370078740157},{"duration":1.0897756333333177,"durationTicks":959,"midi":43,"name":"G2","ticks":124800,"time":141.81856,"velocity":0.5039370078740157},{"duration":1.0897756333333177,"durationTicks":959,"midi":55,"name":"G3","ticks":124800,"time":141.81856,"velocity":0.5039370078740157},{"duration":1.0897756333333177,"durationTicks":959,"midi":50,"name":"D3","ticks":125760,"time":142.909472,"velocity":0.5039370078740157},{"duration":1.0897756333333177,"durationTicks":959,"midi":55,"name":"G3","ticks":125760,"time":142.909472,"velocity":0.5039370078740157},{"duration":1.0897756333333177,"durationTicks":959,"midi":58,"name":"A#3","ticks":125760,"time":142.909472,"velocity":0.5039370078740157},{"duration":1.0897756333333177,"durationTicks":959,"midi":36,"name":"C2","ticks":126720,"time":144.000384,"velocity":0.5039370078740157},{"duration":1.0897756333333177,"durationTicks":959,"midi":48,"name":"C3","ticks":126720,"time":144.000384,"velocity":0.5039370078740157},{"duration":1.0897756333333177,"durationTicks":959,"midi":43,"name":"G2","ticks":127680,"time":145.09129599999997,"velocity":0.5039370078740157},{"duration":1.0897756333333177,"durationTicks":959,"midi":48,"name":"C3","ticks":127680,"time":145.09129599999997,"velocity":0.5039370078740157},{"duration":1.0897756333333177,"durationTicks":959,"midi":51,"name":"D#3","ticks":127680,"time":145.09129599999997,"velocity":0.5039370078740157},{"duration":1.0897756333333177,"durationTicks":959,"midi":44,"name":"G#2","ticks":128640,"time":146.18220799999997,"velocity":0.5039370078740157},{"duration":1.0897756333333177,"durationTicks":959,"midi":56,"name":"G#3","ticks":128640,"time":146.18220799999997,"velocity":0.5039370078740157},{"duration":1.0897756333333177,"durationTicks":959,"midi":51,"name":"D#3","ticks":129600,"time":147.27311999999998,"velocity":0.5039370078740157},{"duration":1.0897756333333177,"durationTicks":959,"midi":56,"name":"G#3","ticks":129600,"time":147.27311999999998,"velocity":0.5039370078740157},{"duration":1.0897756333333177,"durationTicks":959,"midi":60,"name":"C4","ticks":129600,"time":147.27311999999998,"velocity":0.5039370078740157},{"duration":1.0897756333333177,"durationTicks":959,"midi":39,"name":"D#2","ticks":130560,"time":148.36403199999998,"velocity":0.5039370078740157},{"duration":1.0897756333333177,"durationTicks":959,"midi":51,"name":"D#3","ticks":130560,"time":148.36403199999998,"velocity":0.5039370078740157},{"duration":1.0897756333333177,"durationTicks":959,"midi":46,"name":"A#2","ticks":131520,"time":149.45494399999998,"velocity":0.5039370078740157},{"duration":1.0897756333333177,"durationTicks":959,"midi":51,"name":"D#3","ticks":131520,"time":149.45494399999998,"velocity":0.5039370078740157},{"duration":1.0897756333333177,"durationTicks":959,"midi":55,"name":"G3","ticks":131520,"time":149.45494399999998,"velocity":0.5039370078740157},{"duration":1.0897756333333177,"durationTicks":959,"midi":43,"name":"G2","ticks":132480,"time":150.545856,"velocity":0.5039370078740157},{"duration":1.0897756333333177,"durationTicks":959,"midi":55,"name":"G3","ticks":132480,"time":150.545856,"velocity":0.5039370078740157},{"duration":1.0897756333333177,"durationTicks":959,"midi":50,"name":"D3","ticks":133440,"time":151.636768,"velocity":0.5039370078740157},{"duration":1.0897756333333177,"durationTicks":959,"midi":55,"name":"G3","ticks":133440,"time":151.636768,"velocity":0.5039370078740157},{"duration":1.0897756333333177,"durationTicks":959,"midi":58,"name":"A#3","ticks":133440,"time":151.636768,"velocity":0.5039370078740157},{"duration":1.0897756333333177,"durationTicks":959,"midi":36,"name":"C2","ticks":134400,"time":152.72768,"velocity":0.5039370078740157},{"duration":1.0897756333333177,"durationTicks":959,"midi":48,"name":"C3","ticks":134400,"time":152.72768,"velocity":0.5039370078740157},{"duration":1.0897756333333177,"durationTicks":959,"midi":43,"name":"G2","ticks":135360,"time":153.818592,"velocity":0.5039370078740157},{"duration":1.0897756333333177,"durationTicks":959,"midi":48,"name":"C3","ticks":135360,"time":153.818592,"velocity":0.5039370078740157},{"duration":1.0897756333333177,"durationTicks":959,"midi":51,"name":"D#3","ticks":135360,"time":153.818592,"velocity":0.5039370078740157},{"duration":0.2715916333333439,"durationTicks":239,"midi":44,"name":"G#2","ticks":136320,"time":154.90950399999997,"velocity":0.5039370078740157},{"duration":0.2715916333333439,"durationTicks":239,"midi":56,"name":"G#3","ticks":136320,"time":154.90950399999997,"velocity":0.5039370078740157},{"duration":0.2715916333333439,"durationTicks":239,"midi":44,"name":"G#2","ticks":136560,"time":155.18223199999997,"velocity":0.5669291338582677},{"duration":0.2715916333333439,"durationTicks":239,"midi":56,"name":"G#3","ticks":136560,"time":155.18223199999997,"velocity":0.5669291338582677},{"duration":0.2715916333333439,"durationTicks":239,"midi":44,"name":"G#2","ticks":136800,"time":155.45495999999997,"velocity":0.6299212598425197},{"duration":0.2715916333333439,"durationTicks":239,"midi":56,"name":"G#3","ticks":136800,"time":155.45495999999997,"velocity":0.6299212598425197},{"duration":0.2715916333333439,"durationTicks":239,"midi":44,"name":"G#2","ticks":137040,"time":155.72768799999997,"velocity":0.6929133858267716},{"duration":0.2715916333333439,"durationTicks":239,"midi":56,"name":"G#3","ticks":137040,"time":155.72768799999997,"velocity":0.6929133858267716},{"duration":0.2715916333333155,"durationTicks":239,"midi":51,"name":"D#3","ticks":137280,"time":156.00041599999997,"velocity":0.7559055118110236},{"duration":0.2715916333333155,"durationTicks":239,"midi":56,"name":"G#3","ticks":137280,"time":156.00041599999997,"velocity":0.7559055118110236},{"duration":0.2715916333333155,"durationTicks":239,"midi":60,"name":"C4","ticks":137280,"time":156.00041599999997,"velocity":0.7559055118110236},{"duration":0.2715916333333155,"durationTicks":239,"midi":51,"name":"D#3","ticks":137520,"time":156.27314399999997,"velocity":0.7559055118110236},{"duration":0.2715916333333155,"durationTicks":239,"midi":56,"name":"G#3","ticks":137520,"time":156.27314399999997,"velocity":0.7559055118110236},{"duration":0.2715916333333155,"durationTicks":239,"midi":60,"name":"C4","ticks":137520,"time":156.27314399999997,"velocity":0.7559055118110236},{"duration":0.2715916333333155,"durationTicks":239,"midi":51,"name":"D#3","ticks":137760,"time":156.54587199999997,"velocity":0.7559055118110236},{"duration":0.2715916333333155,"durationTicks":239,"midi":56,"name":"G#3","ticks":137760,"time":156.54587199999997,"velocity":0.7559055118110236},{"duration":0.2715916333333155,"durationTicks":239,"midi":60,"name":"C4","ticks":137760,"time":156.54587199999997,"velocity":0.7559055118110236},{"duration":0.2715916333333155,"durationTicks":239,"midi":51,"name":"D#3","ticks":138000,"time":156.81859999999998,"velocity":0.7559055118110236},{"duration":0.2715916333333155,"durationTicks":239,"midi":56,"name":"G#3","ticks":138000,"time":156.81859999999998,"velocity":0.7559055118110236},{"duration":0.2715916333333155,"durationTicks":239,"midi":60,"name":"C4","ticks":138000,"time":156.81859999999998,"velocity":0.7559055118110236},{"duration":0.5443196333333162,"durationTicks":479,"midi":39,"name":"D#2","ticks":138240,"time":157.09132799999998,"velocity":0.7559055118110236},{"duration":0.5443196333333162,"durationTicks":479,"midi":46,"name":"A#2","ticks":138240,"time":157.09132799999998,"velocity":0.7559055118110236},{"duration":0.5443196333333162,"durationTicks":479,"midi":51,"name":"D#3","ticks":138240,"time":157.09132799999998,"velocity":0.7559055118110236},{"duration":0.2715916333333155,"durationTicks":239,"midi":39,"name":"D#2","ticks":138720,"time":157.63678399999998,"velocity":0.7559055118110236},{"duration":0.2715916333333155,"durationTicks":239,"midi":51,"name":"D#3","ticks":138720,"time":157.63678399999998,"velocity":0.7559055118110236},{"duration":0.2715916333333155,"durationTicks":239,"midi":39,"name":"D#2","ticks":138960,"time":157.90951199999998,"velocity":0.7559055118110236},{"duration":0.2715916333333155,"durationTicks":239,"midi":51,"name":"D#3","ticks":138960,"time":157.90951199999998,"velocity":0.7559055118110236},{"duration":0.5443196333333162,"durationTicks":479,"midi":46,"name":"A#2","ticks":139200,"time":158.18223999999998,"velocity":0.7559055118110236},{"duration":0.5443196333333162,"durationTicks":479,"midi":51,"name":"D#3","ticks":139200,"time":158.18223999999998,"velocity":0.7559055118110236},{"duration":0.5443196333333162,"durationTicks":479,"midi":55,"name":"G3","ticks":139200,"time":158.18223999999998,"velocity":0.7559055118110236},{"duration":0.5443196333333162,"durationTicks":479,"midi":39,"name":"D#2","ticks":139680,"time":158.72769599999998,"velocity":0.7559055118110236},{"duration":0.5443196333333162,"durationTicks":479,"midi":46,"name":"A#2","ticks":139680,"time":158.72769599999998,"velocity":0.7559055118110236},{"duration":0.5443196333333162,"durationTicks":479,"midi":51,"name":"D#3","ticks":139680,"time":158.72769599999998,"velocity":0.7559055118110236},{"duration":0.5443196333333162,"durationTicks":479,"midi":43,"name":"G2","ticks":140160,"time":159.27315199999998,"velocity":0.7559055118110236},{"duration":0.5443196333333162,"durationTicks":479,"midi":50,"name":"D3","ticks":140160,"time":159.27315199999998,"velocity":0.7559055118110236},{"duration":0.5443196333333162,"durationTicks":479,"midi":55,"name":"G3","ticks":140160,"time":159.27315199999998,"velocity":0.7559055118110236},{"duration":0.2715916333333155,"durationTicks":239,"midi":43,"name":"G2","ticks":140640,"time":159.81860799999998,"velocity":0.7559055118110236},{"duration":0.2715916333333155,"durationTicks":239,"midi":55,"name":"G3","ticks":140640,"time":159.81860799999998,"velocity":0.7559055118110236},{"duration":0.2715916333333155,"durationTicks":239,"midi":43,"name":"G2","ticks":140880,"time":160.09133599999998,"velocity":0.7559055118110236},{"duration":0.2715916333333155,"durationTicks":239,"midi":55,"name":"G3","ticks":140880,"time":160.09133599999998,"velocity":0.7559055118110236},{"duration":0.5443196333333162,"durationTicks":479,"midi":50,"name":"D3","ticks":141120,"time":160.36406399999998,"velocity":0.7559055118110236},{"duration":0.5443196333333162,"durationTicks":479,"midi":55,"name":"G3","ticks":141120,"time":160.36406399999998,"velocity":0.7559055118110236},{"duration":0.5443196333333162,"durationTicks":479,"midi":58,"name":"A#3","ticks":141120,"time":160.36406399999998,"velocity":0.7559055118110236},{"duration":0.5443196333333162,"durationTicks":479,"midi":43,"name":"G2","ticks":141600,"time":160.90952,"velocity":0.7559055118110236},{"duration":0.5443196333333162,"durationTicks":479,"midi":50,"name":"D3","ticks":141600,"time":160.90952,"velocity":0.7559055118110236},{"duration":0.5443196333333162,"durationTicks":479,"midi":55,"name":"G3","ticks":141600,"time":160.90952,"velocity":0.7559055118110236},{"duration":0.5443196333333162,"durationTicks":479,"midi":36,"name":"C2","ticks":142080,"time":161.454976,"velocity":0.7559055118110236},{"duration":0.5443196333333162,"durationTicks":479,"midi":43,"name":"G2","ticks":142080,"time":161.454976,"velocity":0.7559055118110236},{"duration":0.5443196333333162,"durationTicks":479,"midi":48,"name":"C3","ticks":142080,"time":161.454976,"velocity":0.7559055118110236},{"duration":0.2715916333333155,"durationTicks":239,"midi":36,"name":"C2","ticks":142560,"time":162.000432,"velocity":0.7559055118110236},{"duration":0.2715916333333155,"durationTicks":239,"midi":48,"name":"C3","ticks":142560,"time":162.000432,"velocity":0.7559055118110236},{"duration":0.2715916333333155,"durationTicks":239,"midi":36,"name":"C2","ticks":142800,"time":162.27316,"velocity":0.7559055118110236},{"duration":0.2715916333333155,"durationTicks":239,"midi":48,"name":"C3","ticks":142800,"time":162.27316,"velocity":0.7559055118110236},{"duration":0.5443196333333162,"durationTicks":479,"midi":43,"name":"G2","ticks":143040,"time":162.545888,"velocity":0.7559055118110236},{"duration":0.5443196333333162,"durationTicks":479,"midi":48,"name":"C3","ticks":143040,"time":162.545888,"velocity":0.7559055118110236},{"duration":0.5443196333333162,"durationTicks":479,"midi":51,"name":"D#3","ticks":143040,"time":162.545888,"velocity":0.7559055118110236},{"duration":0.5443196333333162,"durationTicks":479,"midi":36,"name":"C2","ticks":143520,"time":163.091344,"velocity":0.7559055118110236},{"duration":0.5443196333333162,"durationTicks":479,"midi":43,"name":"G2","ticks":143520,"time":163.091344,"velocity":0.7559055118110236},{"duration":0.5443196333333162,"durationTicks":479,"midi":48,"name":"C3","ticks":143520,"time":163.091344,"velocity":0.7559055118110236},{"duration":0.5443196333333162,"durationTicks":479,"midi":44,"name":"G#2","ticks":144000,"time":163.6368,"velocity":0.7559055118110236},{"duration":0.5443196333333162,"durationTicks":479,"midi":51,"name":"D#3","ticks":144000,"time":163.6368,"velocity":0.7559055118110236},{"duration":0.5443196333333162,"durationTicks":479,"midi":56,"name":"G#3","ticks":144000,"time":163.6368,"velocity":0.7559055118110236},{"duration":0.2715916333333155,"durationTicks":239,"midi":44,"name":"G#2","ticks":144480,"time":164.182256,"velocity":0.7559055118110236},{"duration":0.2715916333333155,"durationTicks":239,"midi":56,"name":"G#3","ticks":144480,"time":164.182256,"velocity":0.7559055118110236},{"duration":0.2715916333333155,"durationTicks":239,"midi":44,"name":"G#2","ticks":144720,"time":164.454984,"velocity":0.7559055118110236},{"duration":0.2715916333333155,"durationTicks":239,"midi":56,"name":"G#3","ticks":144720,"time":164.454984,"velocity":0.7559055118110236},{"duration":0.5443196333333447,"durationTicks":479,"midi":51,"name":"D#3","ticks":144960,"time":164.72771199999997,"velocity":0.7559055118110236},{"duration":0.5443196333333447,"durationTicks":479,"midi":56,"name":"G#3","ticks":144960,"time":164.72771199999997,"velocity":0.7559055118110236},{"duration":0.5443196333333447,"durationTicks":479,"midi":60,"name":"C4","ticks":144960,"time":164.72771199999997,"velocity":0.7559055118110236},{"duration":0.5443196333333447,"durationTicks":479,"midi":44,"name":"G#2","ticks":145440,"time":165.27316799999997,"velocity":0.7559055118110236},{"duration":0.5443196333333447,"durationTicks":479,"midi":51,"name":"D#3","ticks":145440,"time":165.27316799999997,"velocity":0.7559055118110236},{"duration":0.5443196333333447,"durationTicks":479,"midi":56,"name":"G#3","ticks":145440,"time":165.27316799999997,"velocity":0.7559055118110236},{"duration":0.5443196333333162,"durationTicks":479,"midi":39,"name":"D#2","ticks":145920,"time":165.81862399999997,"velocity":0.7559055118110236},{"duration":0.5443196333333162,"durationTicks":479,"midi":46,"name":"A#2","ticks":145920,"time":165.81862399999997,"velocity":0.7559055118110236},{"duration":0.5443196333333162,"durationTicks":479,"midi":51,"name":"D#3","ticks":145920,"time":165.81862399999997,"velocity":0.7559055118110236},{"duration":0.2715916333333155,"durationTicks":239,"midi":39,"name":"D#2","ticks":146400,"time":166.36407999999997,"velocity":0.7559055118110236},{"duration":0.2715916333333155,"durationTicks":239,"midi":51,"name":"D#3","ticks":146400,"time":166.36407999999997,"velocity":0.7559055118110236},{"duration":0.2715916333333155,"durationTicks":239,"midi":39,"name":"D#2","ticks":146640,"time":166.63680799999997,"velocity":0.6299212598425197},{"duration":0.2715916333333155,"durationTicks":239,"midi":51,"name":"D#3","ticks":146640,"time":166.63680799999997,"velocity":0.6299212598425197},{"duration":0.5443196333333162,"durationTicks":479,"midi":46,"name":"A#2","ticks":146880,"time":166.90953599999997,"velocity":0.6299212598425197},{"duration":0.5443196333333162,"durationTicks":479,"midi":51,"name":"D#3","ticks":146880,"time":166.90953599999997,"velocity":0.6299212598425197},{"duration":0.5443196333333162,"durationTicks":479,"midi":55,"name":"G3","ticks":146880,"time":166.90953599999997,"velocity":0.6299212598425197},{"duration":0.5443196333333162,"durationTicks":479,"midi":39,"name":"D#2","ticks":147360,"time":167.45499199999998,"velocity":0.6299212598425197},{"duration":0.5443196333333162,"durationTicks":479,"midi":46,"name":"A#2","ticks":147360,"time":167.45499199999998,"velocity":0.6299212598425197},{"duration":0.5443196333333162,"durationTicks":479,"midi":51,"name":"D#3","ticks":147360,"time":167.45499199999998,"velocity":0.6299212598425197},{"duration":0.5443196333333162,"durationTicks":479,"midi":43,"name":"G2","ticks":147840,"time":168.00044799999998,"velocity":0.6299212598425197},{"duration":0.5443196333333162,"durationTicks":479,"midi":50,"name":"D3","ticks":147840,"time":168.00044799999998,"velocity":0.6299212598425197},{"duration":0.27272800000000075,"durationTicks":240,"midi":55,"name":"G3","ticks":147840,"time":168.00044799999998,"velocity":0.6299212598425197},{"duration":0.2715916333333155,"durationTicks":239,"midi":43,"name":"G2","ticks":148320,"time":168.54590399999998,"velocity":0.6299212598425197},{"duration":0.2715916333333155,"durationTicks":239,"midi":55,"name":"G3","ticks":148320,"time":168.54590399999998,"velocity":0.6299212598425197},{"duration":0.2715916333333155,"durationTicks":239,"midi":43,"name":"G2","ticks":148560,"time":168.81863199999998,"velocity":0.7559055118110236},{"duration":0.2715916333333155,"durationTicks":239,"midi":55,"name":"G3","ticks":148560,"time":168.81863199999998,"velocity":0.7559055118110236},{"duration":0.5443196333333162,"durationTicks":479,"midi":50,"name":"D3","ticks":148800,"time":169.09135999999998,"velocity":0.7559055118110236},{"duration":0.5443196333333162,"durationTicks":479,"midi":55,"name":"G3","ticks":148800,"time":169.09135999999998,"velocity":0.7559055118110236},{"duration":0.5443196333333162,"durationTicks":479,"midi":58,"name":"A#3","ticks":148800,"time":169.09135999999998,"velocity":0.7559055118110236},{"duration":0.5443196333333162,"durationTicks":479,"midi":43,"name":"G2","ticks":149280,"time":169.63681599999998,"velocity":0.7559055118110236},{"duration":0.5443196333333162,"durationTicks":479,"midi":50,"name":"D3","ticks":149280,"time":169.63681599999998,"velocity":0.7559055118110236},{"duration":0.5443196333333162,"durationTicks":479,"midi":55,"name":"G3","ticks":149280,"time":169.63681599999998,"velocity":0.7559055118110236},{"duration":0.5443196333333162,"durationTicks":479,"midi":36,"name":"C2","ticks":149760,"time":170.18227199999998,"velocity":0.7559055118110236},{"duration":0.5443196333333162,"durationTicks":479,"midi":43,"name":"G2","ticks":149760,"time":170.18227199999998,"velocity":0.7559055118110236},{"duration":0.5443196333333162,"durationTicks":479,"midi":48,"name":"C3","ticks":149760,"time":170.18227199999998,"velocity":0.7559055118110236},{"duration":0.2715916333333155,"durationTicks":239,"midi":36,"name":"C2","ticks":150240,"time":170.72772799999998,"velocity":0.7559055118110236},{"duration":0.2715916333333155,"durationTicks":239,"midi":48,"name":"C3","ticks":150240,"time":170.72772799999998,"velocity":0.7559055118110236},{"duration":0.2715916333333155,"durationTicks":239,"midi":36,"name":"C2","ticks":150480,"time":171.00045599999999,"velocity":0.6299212598425197},{"duration":0.2715916333333155,"durationTicks":239,"midi":48,"name":"C3","ticks":150480,"time":171.00045599999999,"velocity":0.6299212598425197},{"duration":0.5443196333333162,"durationTicks":479,"midi":43,"name":"G2","ticks":150720,"time":171.273184,"velocity":0.6299212598425197},{"duration":0.5443196333333162,"durationTicks":479,"midi":48,"name":"C3","ticks":150720,"time":171.273184,"velocity":0.6299212598425197},{"duration":0.5443196333333162,"durationTicks":479,"midi":51,"name":"D#3","ticks":150720,"time":171.273184,"velocity":0.6299212598425197},{"duration":0.5443196333333162,"durationTicks":479,"midi":36,"name":"C2","ticks":151200,"time":171.81864,"velocity":0.6299212598425197},{"duration":0.5443196333333162,"durationTicks":479,"midi":43,"name":"G2","ticks":151200,"time":171.81864,"velocity":0.6299212598425197},{"duration":0.5443196333333162,"durationTicks":479,"midi":48,"name":"C3","ticks":151200,"time":171.81864,"velocity":0.6299212598425197},{"duration":0.5443196333333162,"durationTicks":479,"midi":44,"name":"G#2","ticks":151680,"time":172.364096,"velocity":0.6299212598425197},{"duration":0.5443196333333162,"durationTicks":479,"midi":51,"name":"D#3","ticks":151680,"time":172.364096,"velocity":0.6299212598425197},{"duration":0.5443196333333162,"durationTicks":479,"midi":56,"name":"G#3","ticks":151680,"time":172.364096,"velocity":0.6299212598425197},{"duration":0.2715916333333155,"durationTicks":239,"midi":44,"name":"G#2","ticks":152160,"time":172.909552,"velocity":0.6299212598425197},{"duration":0.2715916333333155,"durationTicks":239,"midi":56,"name":"G#3","ticks":152160,"time":172.909552,"velocity":0.6299212598425197},{"duration":0.2715916333333155,"durationTicks":239,"midi":44,"name":"G#2","ticks":152400,"time":173.18228,"velocity":0.6299212598425197},{"duration":0.2715916333333155,"durationTicks":239,"midi":56,"name":"G#3","ticks":152400,"time":173.18228,"velocity":0.6299212598425197},{"duration":0.5443196333333162,"durationTicks":479,"midi":51,"name":"D#3","ticks":152640,"time":173.455008,"velocity":0.7559055118110236},{"duration":0.5443196333333162,"durationTicks":479,"midi":56,"name":"G#3","ticks":152640,"time":173.455008,"velocity":0.7559055118110236},{"duration":0.5443196333333162,"durationTicks":479,"midi":60,"name":"C4","ticks":152640,"time":173.455008,"velocity":0.7559055118110236},{"duration":0.5443196333333162,"durationTicks":479,"midi":44,"name":"G#2","ticks":153120,"time":174.000464,"velocity":0.7559055118110236},{"duration":0.5443196333333162,"durationTicks":479,"midi":51,"name":"D#3","ticks":153120,"time":174.000464,"velocity":0.7559055118110236},{"duration":0.5443196333333162,"durationTicks":479,"midi":56,"name":"G#3","ticks":153120,"time":174.000464,"velocity":0.7559055118110236},{"duration":0.5443196333333447,"durationTicks":479,"midi":39,"name":"D#2","ticks":153600,"time":174.54591999999997,"velocity":0.7559055118110236},{"duration":0.5443196333333447,"durationTicks":479,"midi":46,"name":"A#2","ticks":153600,"time":174.54591999999997,"velocity":0.7559055118110236},{"duration":0.5443196333333447,"durationTicks":479,"midi":51,"name":"D#3","ticks":153600,"time":174.54591999999997,"velocity":0.7559055118110236},{"duration":0.2715916333333439,"durationTicks":239,"midi":39,"name":"D#2","ticks":154080,"time":175.09137599999997,"velocity":0.7559055118110236},{"duration":0.2715916333333439,"durationTicks":239,"midi":51,"name":"D#3","ticks":154080,"time":175.09137599999997,"velocity":0.7559055118110236},{"duration":0.2715916333333439,"durationTicks":239,"midi":39,"name":"D#2","ticks":154320,"time":175.36410399999997,"velocity":0.7559055118110236},{"duration":0.2715916333333439,"durationTicks":239,"midi":51,"name":"D#3","ticks":154320,"time":175.36410399999997,"velocity":0.7559055118110236},{"duration":0.5443196333333162,"durationTicks":479,"midi":46,"name":"A#2","ticks":154560,"time":175.63683199999997,"velocity":0.7559055118110236},{"duration":0.5443196333333162,"durationTicks":479,"midi":51,"name":"D#3","ticks":154560,"time":175.63683199999997,"velocity":0.7559055118110236},{"duration":0.5443196333333162,"durationTicks":479,"midi":55,"name":"G3","ticks":154560,"time":175.63683199999997,"velocity":0.7559055118110236},{"duration":0.5443196333333162,"durationTicks":479,"midi":39,"name":"D#2","ticks":155040,"time":176.18228799999997,"velocity":0.7559055118110236},{"duration":0.5443196333333162,"durationTicks":479,"midi":46,"name":"A#2","ticks":155040,"time":176.18228799999997,"velocity":0.7559055118110236},{"duration":0.5443196333333162,"durationTicks":479,"midi":51,"name":"D#3","ticks":155040,"time":176.18228799999997,"velocity":0.7559055118110236},{"duration":0.5443196333333162,"durationTicks":479,"midi":43,"name":"G2","ticks":155520,"time":176.72774399999997,"velocity":0.7559055118110236},{"duration":0.5443196333333162,"durationTicks":479,"midi":50,"name":"D3","ticks":155520,"time":176.72774399999997,"velocity":0.7559055118110236},{"duration":0.5443196333333162,"durationTicks":479,"midi":55,"name":"G3","ticks":155520,"time":176.72774399999997,"velocity":0.7559055118110236},{"duration":0.2715916333333155,"durationTicks":239,"midi":43,"name":"G2","ticks":156000,"time":177.27319999999997,"velocity":0.7559055118110236},{"duration":0.2715916333333155,"durationTicks":239,"midi":55,"name":"G3","ticks":156000,"time":177.27319999999997,"velocity":0.7559055118110236},{"duration":0.2715916333333155,"durationTicks":239,"midi":43,"name":"G2","ticks":156240,"time":177.54592799999998,"velocity":0.7559055118110236},{"duration":0.2715916333333155,"durationTicks":239,"midi":55,"name":"G3","ticks":156240,"time":177.54592799999998,"velocity":0.7559055118110236},{"duration":0.5443196333333162,"durationTicks":479,"midi":50,"name":"D3","ticks":156480,"time":177.81865599999998,"velocity":0.7559055118110236},{"duration":0.5443196333333162,"durationTicks":479,"midi":55,"name":"G3","ticks":156480,"time":177.81865599999998,"velocity":0.7559055118110236},{"duration":0.5443196333333162,"durationTicks":479,"midi":58,"name":"A#3","ticks":156480,"time":177.81865599999998,"velocity":0.7559055118110236},{"duration":0.5443196333333162,"durationTicks":479,"midi":43,"name":"G2","ticks":156960,"time":178.36411199999998,"velocity":0.7559055118110236},{"duration":0.5443196333333162,"durationTicks":479,"midi":50,"name":"D3","ticks":156960,"time":178.36411199999998,"velocity":0.7559055118110236},{"duration":0.5443196333333162,"durationTicks":479,"midi":55,"name":"G3","ticks":156960,"time":178.36411199999998,"velocity":0.7559055118110236},{"duration":0.5443196333333162,"durationTicks":479,"midi":36,"name":"C2","ticks":157440,"time":178.90956799999998,"velocity":0.7559055118110236},{"duration":0.5443196333333162,"durationTicks":479,"midi":43,"name":"G2","ticks":157440,"time":178.90956799999998,"velocity":0.7559055118110236},{"duration":0.5443196333333162,"durationTicks":479,"midi":48,"name":"C3","ticks":157440,"time":178.90956799999998,"velocity":0.7559055118110236},{"duration":0.2715916333333155,"durationTicks":239,"midi":36,"name":"C2","ticks":157920,"time":179.45502399999998,"velocity":0.7559055118110236},{"duration":0.2715916333333155,"durationTicks":239,"midi":48,"name":"C3","ticks":157920,"time":179.45502399999998,"velocity":0.7559055118110236},{"duration":0.2715916333333155,"durationTicks":239,"midi":36,"name":"C2","ticks":158160,"time":179.72775199999998,"velocity":0.7559055118110236},{"duration":0.2715916333333155,"durationTicks":239,"midi":48,"name":"C3","ticks":158160,"time":179.72775199999998,"velocity":0.7559055118110236},{"duration":0.5443196333333162,"durationTicks":479,"midi":43,"name":"G2","ticks":158400,"time":180.00047999999998,"velocity":0.7559055118110236},{"duration":0.5443196333333162,"durationTicks":479,"midi":48,"name":"C3","ticks":158400,"time":180.00047999999998,"velocity":0.7559055118110236},{"duration":0.5443196333333162,"durationTicks":479,"midi":51,"name":"D#3","ticks":158400,"time":180.00047999999998,"velocity":0.7559055118110236},{"duration":0.5443196333333162,"durationTicks":479,"midi":36,"name":"C2","ticks":158880,"time":180.54593599999998,"velocity":0.7559055118110236},{"duration":0.5443196333333162,"durationTicks":479,"midi":43,"name":"G2","ticks":158880,"time":180.54593599999998,"velocity":0.7559055118110236},{"duration":0.5443196333333162,"durationTicks":479,"midi":48,"name":"C3","ticks":158880,"time":180.54593599999998,"velocity":0.7559055118110236},{"duration":0.5443196333333162,"durationTicks":479,"midi":44,"name":"G#2","ticks":159360,"time":181.09139199999998,"velocity":0.7559055118110236},{"duration":0.5443196333333162,"durationTicks":479,"midi":51,"name":"D#3","ticks":159360,"time":181.09139199999998,"velocity":0.7559055118110236},{"duration":0.5443196333333162,"durationTicks":479,"midi":56,"name":"G#3","ticks":159360,"time":181.09139199999998,"velocity":0.7559055118110236},{"duration":0.2715916333333155,"durationTicks":239,"midi":44,"name":"G#2","ticks":159840,"time":181.636848,"velocity":0.7559055118110236},{"duration":0.2715916333333155,"durationTicks":239,"midi":56,"name":"G#3","ticks":159840,"time":181.636848,"velocity":0.7559055118110236},{"duration":0.2715916333333155,"durationTicks":239,"midi":44,"name":"G#2","ticks":160080,"time":181.909576,"velocity":0.7559055118110236},{"duration":0.2715916333333155,"durationTicks":239,"midi":56,"name":"G#3","ticks":160080,"time":181.909576,"velocity":0.7559055118110236},{"duration":0.5443196333333162,"durationTicks":479,"midi":51,"name":"D#3","ticks":160320,"time":182.182304,"velocity":0.7559055118110236},{"duration":0.5443196333333162,"durationTicks":479,"midi":56,"name":"G#3","ticks":160320,"time":182.182304,"velocity":0.7559055118110236},{"duration":0.5443196333333162,"durationTicks":479,"midi":60,"name":"C4","ticks":160320,"time":182.182304,"velocity":0.7559055118110236},{"duration":0.5443196333333162,"durationTicks":479,"midi":44,"name":"G#2","ticks":160800,"time":182.72776,"velocity":0.7559055118110236},{"duration":0.5443196333333162,"durationTicks":479,"midi":51,"name":"D#3","ticks":160800,"time":182.72776,"velocity":0.7559055118110236},{"duration":0.5443196333333162,"durationTicks":479,"midi":56,"name":"G#3","ticks":160800,"time":182.72776,"velocity":0.7559055118110236},{"duration":0.5443196333333162,"durationTicks":479,"midi":39,"name":"D#2","ticks":161280,"time":183.273216,"velocity":0.7559055118110236},{"duration":0.5443196333333162,"durationTicks":479,"midi":46,"name":"A#2","ticks":161280,"time":183.273216,"velocity":0.7559055118110236},{"duration":0.5443196333333162,"durationTicks":479,"midi":51,"name":"D#3","ticks":161280,"time":183.273216,"velocity":0.7559055118110236},{"duration":0.2715916333333155,"durationTicks":239,"midi":39,"name":"D#2","ticks":161760,"time":183.818672,"velocity":0.7559055118110236},{"duration":0.2715916333333155,"durationTicks":239,"midi":51,"name":"D#3","ticks":161760,"time":183.818672,"velocity":0.7559055118110236},{"duration":0.2715916333333155,"durationTicks":239,"midi":39,"name":"D#2","ticks":162000,"time":184.0914,"velocity":0.6299212598425197},{"duration":0.2715916333333155,"durationTicks":239,"midi":51,"name":"D#3","ticks":162000,"time":184.0914,"velocity":0.6299212598425197},{"duration":0.5443196333333162,"durationTicks":479,"midi":46,"name":"A#2","ticks":162240,"time":184.364128,"velocity":0.6299212598425197},{"duration":0.5443196333333162,"durationTicks":479,"midi":51,"name":"D#3","ticks":162240,"time":184.364128,"velocity":0.6299212598425197},{"duration":0.5443196333333162,"durationTicks":479,"midi":55,"name":"G3","ticks":162240,"time":184.364128,"velocity":0.6299212598425197},{"duration":0.5443196333333447,"durationTicks":479,"midi":39,"name":"D#2","ticks":162720,"time":184.90958399999997,"velocity":0.6299212598425197},{"duration":0.5443196333333447,"durationTicks":479,"midi":46,"name":"A#2","ticks":162720,"time":184.90958399999997,"velocity":0.6299212598425197},{"duration":0.5443196333333447,"durationTicks":479,"midi":51,"name":"D#3","ticks":162720,"time":184.90958399999997,"velocity":0.6299212598425197},{"duration":0.5443196333333162,"durationTicks":479,"midi":43,"name":"G2","ticks":163200,"time":185.45503999999997,"velocity":0.6299212598425197},{"duration":0.5443196333333162,"durationTicks":479,"midi":50,"name":"D3","ticks":163200,"time":185.45503999999997,"velocity":0.6299212598425197},{"duration":0.27272800000000075,"durationTicks":240,"midi":55,"name":"G3","ticks":163200,"time":185.45503999999997,"velocity":0.6299212598425197},{"duration":0.2715916333333155,"durationTicks":239,"midi":43,"name":"G2","ticks":163680,"time":186.00049599999997,"velocity":0.6299212598425197},{"duration":0.2715916333333155,"durationTicks":239,"midi":55,"name":"G3","ticks":163680,"time":186.00049599999997,"velocity":0.6299212598425197},{"duration":0.2715916333333155,"durationTicks":239,"midi":43,"name":"G2","ticks":163920,"time":186.27322399999997,"velocity":0.7559055118110236},{"duration":0.2715916333333155,"durationTicks":239,"midi":55,"name":"G3","ticks":163920,"time":186.27322399999997,"velocity":0.7559055118110236},{"duration":0.5443196333333162,"durationTicks":479,"midi":50,"name":"D3","ticks":164160,"time":186.54595199999997,"velocity":0.7559055118110236},{"duration":0.5443196333333162,"durationTicks":479,"midi":55,"name":"G3","ticks":164160,"time":186.54595199999997,"velocity":0.7559055118110236},{"duration":0.5443196333333162,"durationTicks":479,"midi":58,"name":"A#3","ticks":164160,"time":186.54595199999997,"velocity":0.7559055118110236},{"duration":0.5443196333333162,"durationTicks":479,"midi":43,"name":"G2","ticks":164640,"time":187.09140799999997,"velocity":0.7559055118110236},{"duration":0.5443196333333162,"durationTicks":479,"midi":50,"name":"D3","ticks":164640,"time":187.09140799999997,"velocity":0.7559055118110236},{"duration":0.5443196333333162,"durationTicks":479,"midi":55,"name":"G3","ticks":164640,"time":187.09140799999997,"velocity":0.7559055118110236},{"duration":0.5443196333333162,"durationTicks":479,"midi":36,"name":"C2","ticks":165120,"time":187.63686399999997,"velocity":0.7559055118110236},{"duration":0.5443196333333162,"durationTicks":479,"midi":43,"name":"G2","ticks":165120,"time":187.63686399999997,"velocity":0.7559055118110236},{"duration":0.5443196333333162,"durationTicks":479,"midi":48,"name":"C3","ticks":165120,"time":187.63686399999997,"velocity":0.7559055118110236},{"duration":0.2715916333333155,"durationTicks":239,"midi":36,"name":"C2","ticks":165600,"time":188.18231999999998,"velocity":0.7559055118110236},{"duration":0.2715916333333155,"durationTicks":239,"midi":48,"name":"C3","ticks":165600,"time":188.18231999999998,"velocity":0.7559055118110236},{"duration":0.2715916333333155,"durationTicks":239,"midi":36,"name":"C2","ticks":165840,"time":188.45504799999998,"velocity":0.6299212598425197},{"duration":0.2715916333333155,"durationTicks":239,"midi":48,"name":"C3","ticks":165840,"time":188.45504799999998,"velocity":0.6299212598425197},{"duration":0.5443196333333162,"durationTicks":479,"midi":43,"name":"G2","ticks":166080,"time":188.72777599999998,"velocity":0.6299212598425197},{"duration":0.5443196333333162,"durationTicks":479,"midi":48,"name":"C3","ticks":166080,"time":188.72777599999998,"velocity":0.6299212598425197},{"duration":0.5443196333333162,"durationTicks":479,"midi":51,"name":"D#3","ticks":166080,"time":188.72777599999998,"velocity":0.6299212598425197},{"duration":0.5443196333333162,"durationTicks":479,"midi":36,"name":"C2","ticks":166560,"time":189.27323199999998,"velocity":0.6299212598425197},{"duration":0.5443196333333162,"durationTicks":479,"midi":43,"name":"G2","ticks":166560,"time":189.27323199999998,"velocity":0.6299212598425197},{"duration":0.5443196333333162,"durationTicks":479,"midi":48,"name":"C3","ticks":166560,"time":189.27323199999998,"velocity":0.6299212598425197},{"duration":0.5443196333333162,"durationTicks":479,"midi":44,"name":"G#2","ticks":167040,"time":189.81868799999998,"velocity":0.6299212598425197},{"duration":0.5443196333333162,"durationTicks":479,"midi":51,"name":"D#3","ticks":167040,"time":189.81868799999998,"velocity":0.6299212598425197},{"duration":0.5443196333333162,"durationTicks":479,"midi":56,"name":"G#3","ticks":167040,"time":189.81868799999998,"velocity":0.6299212598425197},{"duration":0.2715916333333155,"durationTicks":239,"midi":44,"name":"G#2","ticks":167520,"time":190.36414399999998,"velocity":0.6299212598425197},{"duration":0.2715916333333155,"durationTicks":239,"midi":56,"name":"G#3","ticks":167520,"time":190.36414399999998,"velocity":0.6299212598425197},{"duration":0.2715916333333155,"durationTicks":239,"midi":44,"name":"G#2","ticks":167760,"time":190.63687199999998,"velocity":0.6299212598425197},{"duration":0.2715916333333155,"durationTicks":239,"midi":56,"name":"G#3","ticks":167760,"time":190.63687199999998,"velocity":0.6299212598425197},{"duration":0.5443196333333162,"durationTicks":479,"midi":51,"name":"D#3","ticks":168000,"time":190.90959999999998,"velocity":0.6299212598425197},{"duration":0.5443196333333162,"durationTicks":479,"midi":56,"name":"G#3","ticks":168000,"time":190.90959999999998,"velocity":0.6299212598425197},{"duration":0.5443196333333162,"durationTicks":479,"midi":60,"name":"C4","ticks":168000,"time":190.90959999999998,"velocity":0.6299212598425197},{"duration":0.5443196333333162,"durationTicks":479,"midi":44,"name":"G#2","ticks":168480,"time":191.45505599999998,"velocity":0.6299212598425197},{"duration":0.5443196333333162,"durationTicks":479,"midi":51,"name":"D#3","ticks":168480,"time":191.45505599999998,"velocity":0.6299212598425197},{"duration":0.5443196333333162,"durationTicks":479,"midi":56,"name":"G#3","ticks":168480,"time":191.45505599999998,"velocity":0.6299212598425197},{"duration":1.0897756333333177,"durationTicks":959,"midi":39,"name":"D#2","ticks":168960,"time":192.000512,"velocity":0.5039370078740157},{"duration":1.0897756333333177,"durationTicks":959,"midi":51,"name":"D#3","ticks":168960,"time":192.000512,"velocity":0.5039370078740157},{"duration":1.0897756333333177,"durationTicks":959,"midi":46,"name":"A#2","ticks":169920,"time":193.091424,"velocity":0.5039370078740157},{"duration":1.0897756333333177,"durationTicks":959,"midi":51,"name":"D#3","ticks":169920,"time":193.091424,"velocity":0.5039370078740157},{"duration":1.0897756333333177,"durationTicks":959,"midi":55,"name":"G3","ticks":169920,"time":193.091424,"velocity":0.5039370078740157},{"duration":1.0897756333333177,"durationTicks":959,"midi":43,"name":"G2","ticks":170880,"time":194.182336,"velocity":0.5039370078740157},{"duration":1.0897756333333177,"durationTicks":959,"midi":55,"name":"G3","ticks":170880,"time":194.182336,"velocity":0.5039370078740157},{"duration":1.0897756333333177,"durationTicks":959,"midi":50,"name":"D3","ticks":171840,"time":195.27324799999997,"velocity":0.5039370078740157},{"duration":1.0897756333333177,"durationTicks":959,"midi":55,"name":"G3","ticks":171840,"time":195.27324799999997,"velocity":0.5039370078740157},{"duration":1.0897756333333177,"durationTicks":959,"midi":58,"name":"A#3","ticks":171840,"time":195.27324799999997,"velocity":0.5039370078740157},{"duration":1.0897756333333177,"durationTicks":959,"midi":36,"name":"C2","ticks":172800,"time":196.36415999999997,"velocity":0.5039370078740157},{"duration":1.0897756333333177,"durationTicks":959,"midi":48,"name":"C3","ticks":172800,"time":196.36415999999997,"velocity":0.5039370078740157},{"duration":1.0897756333333177,"durationTicks":959,"midi":43,"name":"G2","ticks":173760,"time":197.45507199999997,"velocity":0.5039370078740157},{"duration":1.0897756333333177,"durationTicks":959,"midi":48,"name":"C3","ticks":173760,"time":197.45507199999997,"velocity":0.5039370078740157},{"duration":1.0897756333333177,"durationTicks":959,"midi":51,"name":"D#3","ticks":173760,"time":197.45507199999997,"velocity":0.5039370078740157},{"duration":1.0897756333333177,"durationTicks":959,"midi":44,"name":"G#2","ticks":174720,"time":198.54598399999998,"velocity":0.5039370078740157},{"duration":1.0897756333333177,"durationTicks":959,"midi":56,"name":"G#3","ticks":174720,"time":198.54598399999998,"velocity":0.5039370078740157},{"duration":1.0897756333333177,"durationTicks":959,"midi":51,"name":"D#3","ticks":175680,"time":199.63689599999998,"velocity":0.5039370078740157},{"duration":1.0897756333333177,"durationTicks":959,"midi":56,"name":"G#3","ticks":175680,"time":199.63689599999998,"velocity":0.5039370078740157},{"duration":1.0897756333333177,"durationTicks":959,"midi":60,"name":"C4","ticks":175680,"time":199.63689599999998,"velocity":0.5039370078740157},{"duration":1.0897756333333177,"durationTicks":959,"midi":39,"name":"D#2","ticks":176640,"time":200.72780799999998,"velocity":0.5039370078740157},{"duration":1.0897756333333177,"durationTicks":959,"midi":51,"name":"D#3","ticks":176640,"time":200.72780799999998,"velocity":0.5039370078740157},{"duration":1.0897756333333177,"durationTicks":959,"midi":46,"name":"A#2","ticks":177600,"time":201.81871999999998,"velocity":0.5039370078740157},{"duration":1.0897756333333177,"durationTicks":959,"midi":51,"name":"D#3","ticks":177600,"time":201.81871999999998,"velocity":0.5039370078740157},{"duration":1.0897756333333177,"durationTicks":959,"midi":55,"name":"G3","ticks":177600,"time":201.81871999999998,"velocity":0.5039370078740157},{"duration":1.0897756333333177,"durationTicks":959,"midi":43,"name":"G2","ticks":178560,"time":202.909632,"velocity":0.5039370078740157},{"duration":1.0897756333333177,"durationTicks":959,"midi":55,"name":"G3","ticks":178560,"time":202.909632,"velocity":0.5039370078740157},{"duration":1.0897756333333177,"durationTicks":959,"midi":50,"name":"D3","ticks":179520,"time":204.000544,"velocity":0.5039370078740157},{"duration":1.0897756333333177,"durationTicks":959,"midi":55,"name":"G3","ticks":179520,"time":204.000544,"velocity":0.5039370078740157},{"duration":1.0897756333333177,"durationTicks":959,"midi":58,"name":"A#3","ticks":179520,"time":204.000544,"velocity":0.5039370078740157},{"duration":1.0897756333333177,"durationTicks":959,"midi":36,"name":"C2","ticks":180480,"time":205.09145599999997,"velocity":0.5039370078740157},{"duration":1.0897756333333177,"durationTicks":959,"midi":48,"name":"C3","ticks":180480,"time":205.09145599999997,"velocity":0.5039370078740157},{"duration":1.0897756333333177,"durationTicks":959,"midi":43,"name":"G2","ticks":181440,"time":206.18236799999997,"velocity":0.5039370078740157},{"duration":1.0897756333333177,"durationTicks":959,"midi":48,"name":"C3","ticks":181440,"time":206.18236799999997,"velocity":0.5039370078740157},{"duration":1.0897756333333177,"durationTicks":959,"midi":51,"name":"D#3","ticks":181440,"time":206.18236799999997,"velocity":0.5039370078740157},{"duration":0.2715916333333155,"durationTicks":239,"midi":44,"name":"G#2","ticks":182400,"time":207.27327999999997,"velocity":0.5039370078740157},{"duration":0.2715916333333155,"durationTicks":239,"midi":56,"name":"G#3","ticks":182400,"time":207.27327999999997,"velocity":0.5039370078740157},{"duration":0.2715916333333155,"durationTicks":239,"midi":44,"name":"G#2","ticks":182640,"time":207.54600799999997,"velocity":0.5039370078740157},{"duration":0.2715916333333155,"durationTicks":239,"midi":56,"name":"G#3","ticks":182640,"time":207.54600799999997,"velocity":0.5039370078740157},{"duration":0.2715916333333155,"durationTicks":239,"midi":44,"name":"G#2","ticks":182880,"time":207.81873599999997,"velocity":0.5039370078740157},{"duration":0.2715916333333155,"durationTicks":239,"midi":56,"name":"G#3","ticks":182880,"time":207.81873599999997,"velocity":0.5039370078740157},{"duration":0.2715916333333155,"durationTicks":239,"midi":44,"name":"G#2","ticks":183120,"time":208.09146399999997,"velocity":0.5039370078740157},{"duration":0.2715916333333155,"durationTicks":239,"midi":56,"name":"G#3","ticks":183120,"time":208.09146399999997,"velocity":0.5039370078740157},{"duration":0.2715916333333155,"durationTicks":239,"midi":51,"name":"D#3","ticks":183360,"time":208.36419199999997,"velocity":0.7559055118110236},{"duration":0.2715916333333155,"durationTicks":239,"midi":56,"name":"G#3","ticks":183360,"time":208.36419199999997,"velocity":0.7559055118110236},{"duration":0.2715916333333155,"durationTicks":239,"midi":60,"name":"C4","ticks":183360,"time":208.36419199999997,"velocity":0.7559055118110236},{"duration":0.2715916333333155,"durationTicks":239,"midi":51,"name":"D#3","ticks":183600,"time":208.63691999999998,"velocity":0.7559055118110236},{"duration":0.2715916333333155,"durationTicks":239,"midi":56,"name":"G#3","ticks":183600,"time":208.63691999999998,"velocity":0.7559055118110236},{"duration":0.2715916333333155,"durationTicks":239,"midi":60,"name":"C4","ticks":183600,"time":208.63691999999998,"velocity":0.7559055118110236},{"duration":0.2715916333333155,"durationTicks":239,"midi":51,"name":"D#3","ticks":183840,"time":208.90964799999998,"velocity":0.7559055118110236},{"duration":0.2715916333333155,"durationTicks":239,"midi":56,"name":"G#3","ticks":183840,"time":208.90964799999998,"velocity":0.7559055118110236},{"duration":0.2715916333333155,"durationTicks":239,"midi":60,"name":"C4","ticks":183840,"time":208.90964799999998,"velocity":0.7559055118110236},{"duration":0.2715916333333155,"durationTicks":239,"midi":51,"name":"D#3","ticks":184080,"time":209.18237599999998,"velocity":0.7559055118110236},{"duration":0.2715916333333155,"durationTicks":239,"midi":56,"name":"G#3","ticks":184080,"time":209.18237599999998,"velocity":0.7559055118110236},{"duration":0.2715916333333155,"durationTicks":239,"midi":60,"name":"C4","ticks":184080,"time":209.18237599999998,"velocity":0.7559055118110236},{"duration":0.5443196333333162,"durationTicks":479,"midi":39,"name":"D#2","ticks":184320,"time":209.45510399999998,"velocity":0.7559055118110236},{"duration":0.5443196333333162,"durationTicks":479,"midi":46,"name":"A#2","ticks":184320,"time":209.45510399999998,"velocity":0.7559055118110236},{"duration":0.5443196333333162,"durationTicks":479,"midi":51,"name":"D#3","ticks":184320,"time":209.45510399999998,"velocity":0.7559055118110236},{"duration":0.2715916333333155,"durationTicks":239,"midi":39,"name":"D#2","ticks":184800,"time":210.00055999999998,"velocity":0.7559055118110236},{"duration":0.2715916333333155,"durationTicks":239,"midi":51,"name":"D#3","ticks":184800,"time":210.00055999999998,"velocity":0.7559055118110236},{"duration":0.2715916333333155,"durationTicks":239,"midi":39,"name":"D#2","ticks":185040,"time":210.27328799999998,"velocity":0.7559055118110236},{"duration":0.2715916333333155,"durationTicks":239,"midi":51,"name":"D#3","ticks":185040,"time":210.27328799999998,"velocity":0.7559055118110236},{"duration":0.5443196333333162,"durationTicks":479,"midi":46,"name":"A#2","ticks":185280,"time":210.54601599999998,"velocity":0.7559055118110236},{"duration":0.5443196333333162,"durationTicks":479,"midi":51,"name":"D#3","ticks":185280,"time":210.54601599999998,"velocity":0.7559055118110236},{"duration":0.5443196333333162,"durationTicks":479,"midi":55,"name":"G3","ticks":185280,"time":210.54601599999998,"velocity":0.7559055118110236},{"duration":0.5443196333333162,"durationTicks":479,"midi":39,"name":"D#2","ticks":185760,"time":211.09147199999998,"velocity":0.7559055118110236},{"duration":0.5443196333333162,"durationTicks":479,"midi":46,"name":"A#2","ticks":185760,"time":211.09147199999998,"velocity":0.7559055118110236},{"duration":0.5443196333333162,"durationTicks":479,"midi":51,"name":"D#3","ticks":185760,"time":211.09147199999998,"velocity":0.7559055118110236},{"duration":0.5443196333333162,"durationTicks":479,"midi":43,"name":"G2","ticks":186240,"time":211.63692799999998,"velocity":0.7559055118110236},{"duration":0.5443196333333162,"durationTicks":479,"midi":50,"name":"D3","ticks":186240,"time":211.63692799999998,"velocity":0.7559055118110236},{"duration":0.5443196333333162,"durationTicks":479,"midi":55,"name":"G3","ticks":186240,"time":211.63692799999998,"velocity":0.7559055118110236},{"duration":0.2715916333333155,"durationTicks":239,"midi":43,"name":"G2","ticks":186720,"time":212.18238399999998,"velocity":0.7559055118110236},{"duration":0.2715916333333155,"durationTicks":239,"midi":55,"name":"G3","ticks":186720,"time":212.18238399999998,"velocity":0.7559055118110236},{"duration":0.2715916333333155,"durationTicks":239,"midi":43,"name":"G2","ticks":186960,"time":212.45511199999999,"velocity":0.7559055118110236},{"duration":0.2715916333333155,"durationTicks":239,"midi":55,"name":"G3","ticks":186960,"time":212.45511199999999,"velocity":0.7559055118110236},{"duration":0.5443196333333162,"durationTicks":479,"midi":50,"name":"D3","ticks":187200,"time":212.72784,"velocity":0.7559055118110236},{"duration":0.5443196333333162,"durationTicks":479,"midi":55,"name":"G3","ticks":187200,"time":212.72784,"velocity":0.7559055118110236},{"duration":0.5443196333333162,"durationTicks":479,"midi":58,"name":"A#3","ticks":187200,"time":212.72784,"velocity":0.7559055118110236},{"duration":0.5443196333333162,"durationTicks":479,"midi":43,"name":"G2","ticks":187680,"time":213.273296,"velocity":0.7559055118110236},{"duration":0.5443196333333162,"durationTicks":479,"midi":50,"name":"D3","ticks":187680,"time":213.273296,"velocity":0.7559055118110236},{"duration":0.5443196333333162,"durationTicks":479,"midi":55,"name":"G3","ticks":187680,"time":213.273296,"velocity":0.7559055118110236},{"duration":0.5443196333333162,"durationTicks":479,"midi":36,"name":"C2","ticks":188160,"time":213.818752,"velocity":0.7559055118110236},{"duration":0.5443196333333162,"durationTicks":479,"midi":43,"name":"G2","ticks":188160,"time":213.818752,"velocity":0.7559055118110236},{"duration":0.5443196333333162,"durationTicks":479,"midi":48,"name":"C3","ticks":188160,"time":213.818752,"velocity":0.7559055118110236},{"duration":0.2715916333333155,"durationTicks":239,"midi":36,"name":"C2","ticks":188640,"time":214.364208,"velocity":0.7559055118110236},{"duration":0.2715916333333155,"durationTicks":239,"midi":48,"name":"C3","ticks":188640,"time":214.364208,"velocity":0.7559055118110236},{"duration":0.2715916333333439,"durationTicks":239,"midi":36,"name":"C2","ticks":188880,"time":214.63693599999996,"velocity":0.7559055118110236},{"duration":0.2715916333333439,"durationTicks":239,"midi":48,"name":"C3","ticks":188880,"time":214.63693599999996,"velocity":0.7559055118110236},{"duration":0.5443196333333447,"durationTicks":479,"midi":43,"name":"G2","ticks":189120,"time":214.90966399999996,"velocity":0.7559055118110236},{"duration":0.5443196333333447,"durationTicks":479,"midi":48,"name":"C3","ticks":189120,"time":214.90966399999996,"velocity":0.7559055118110236},{"duration":0.5443196333333447,"durationTicks":479,"midi":51,"name":"D#3","ticks":189120,"time":214.90966399999996,"velocity":0.7559055118110236},{"duration":0.5443196333333162,"durationTicks":479,"midi":36,"name":"C2","ticks":189600,"time":215.45511999999997,"velocity":0.7559055118110236},{"duration":0.5443196333333162,"durationTicks":479,"midi":43,"name":"G2","ticks":189600,"time":215.45511999999997,"velocity":0.7559055118110236},{"duration":0.5443196333333162,"durationTicks":479,"midi":48,"name":"C3","ticks":189600,"time":215.45511999999997,"velocity":0.7559055118110236},{"duration":0.5443196333333162,"durationTicks":479,"midi":44,"name":"G#2","ticks":190080,"time":216.00057599999997,"velocity":0.7559055118110236},{"duration":0.5443196333333162,"durationTicks":479,"midi":51,"name":"D#3","ticks":190080,"time":216.00057599999997,"velocity":0.7559055118110236},{"duration":0.5443196333333162,"durationTicks":479,"midi":56,"name":"G#3","ticks":190080,"time":216.00057599999997,"velocity":0.7559055118110236},{"duration":0.2715916333333155,"durationTicks":239,"midi":44,"name":"G#2","ticks":190560,"time":216.54603199999997,"velocity":0.7559055118110236},{"duration":0.2715916333333155,"durationTicks":239,"midi":56,"name":"G#3","ticks":190560,"time":216.54603199999997,"velocity":0.7559055118110236},{"duration":0.2715916333333155,"durationTicks":239,"midi":44,"name":"G#2","ticks":190800,"time":216.81875999999997,"velocity":0.7559055118110236},{"duration":0.2715916333333155,"durationTicks":239,"midi":56,"name":"G#3","ticks":190800,"time":216.81875999999997,"velocity":0.7559055118110236},{"duration":0.5443196333333162,"durationTicks":479,"midi":51,"name":"D#3","ticks":191040,"time":217.09148799999997,"velocity":0.7559055118110236},{"duration":0.5443196333333162,"durationTicks":479,"midi":56,"name":"G#3","ticks":191040,"time":217.09148799999997,"velocity":0.7559055118110236},{"duration":0.5443196333333162,"durationTicks":479,"midi":60,"name":"C4","ticks":191040,"time":217.09148799999997,"velocity":0.7559055118110236},{"duration":0.5443196333333162,"durationTicks":479,"midi":44,"name":"G#2","ticks":191520,"time":217.63694399999997,"velocity":0.7559055118110236},{"duration":0.5443196333333162,"durationTicks":479,"midi":51,"name":"D#3","ticks":191520,"time":217.63694399999997,"velocity":0.7559055118110236},{"duration":0.5443196333333162,"durationTicks":479,"midi":56,"name":"G#3","ticks":191520,"time":217.63694399999997,"velocity":0.7559055118110236},{"duration":0.5443196333333162,"durationTicks":479,"midi":39,"name":"D#2","ticks":192000,"time":218.18239999999997,"velocity":0.7559055118110236},{"duration":0.5443196333333162,"durationTicks":479,"midi":46,"name":"A#2","ticks":192000,"time":218.18239999999997,"velocity":0.7559055118110236},{"duration":0.5443196333333162,"durationTicks":479,"midi":51,"name":"D#3","ticks":192000,"time":218.18239999999997,"velocity":0.7559055118110236},{"duration":0.2715916333333155,"durationTicks":239,"midi":39,"name":"D#2","ticks":192480,"time":218.72785599999997,"velocity":0.7559055118110236},{"duration":0.2715916333333155,"durationTicks":239,"midi":51,"name":"D#3","ticks":192480,"time":218.72785599999997,"velocity":0.7559055118110236},{"duration":0.2715916333333155,"durationTicks":239,"midi":39,"name":"D#2","ticks":192720,"time":219.00058399999998,"velocity":0.6299212598425197},{"duration":0.2715916333333155,"durationTicks":239,"midi":51,"name":"D#3","ticks":192720,"time":219.00058399999998,"velocity":0.6299212598425197},{"duration":0.5443196333333162,"durationTicks":479,"midi":46,"name":"A#2","ticks":192960,"time":219.27331199999998,"velocity":0.6299212598425197},{"duration":0.5443196333333162,"durationTicks":479,"midi":51,"name":"D#3","ticks":192960,"time":219.27331199999998,"velocity":0.6299212598425197},{"duration":0.5443196333333162,"durationTicks":479,"midi":55,"name":"G3","ticks":192960,"time":219.27331199999998,"velocity":0.6299212598425197},{"duration":0.5443196333333162,"durationTicks":479,"midi":39,"name":"D#2","ticks":193440,"time":219.81876799999998,"velocity":0.6299212598425197},{"duration":0.5443196333333162,"durationTicks":479,"midi":46,"name":"A#2","ticks":193440,"time":219.81876799999998,"velocity":0.6299212598425197},{"duration":0.5443196333333162,"durationTicks":479,"midi":51,"name":"D#3","ticks":193440,"time":219.81876799999998,"velocity":0.6299212598425197},{"duration":0.5443196333333162,"durationTicks":479,"midi":43,"name":"G2","ticks":193920,"time":220.36422399999998,"velocity":0.6299212598425197},{"duration":0.5443196333333162,"durationTicks":479,"midi":50,"name":"D3","ticks":193920,"time":220.36422399999998,"velocity":0.6299212598425197},{"duration":0.27272800000000075,"durationTicks":240,"midi":55,"name":"G3","ticks":193920,"time":220.36422399999998,"velocity":0.6299212598425197},{"duration":0.2715916333333155,"durationTicks":239,"midi":43,"name":"G2","ticks":194400,"time":220.90967999999998,"velocity":0.6299212598425197},{"duration":0.2715916333333155,"durationTicks":239,"midi":55,"name":"G3","ticks":194400,"time":220.90967999999998,"velocity":0.6299212598425197},{"duration":0.2715916333333155,"durationTicks":239,"midi":43,"name":"G2","ticks":194640,"time":221.18240799999998,"velocity":0.7559055118110236},{"duration":0.2715916333333155,"durationTicks":239,"midi":55,"name":"G3","ticks":194640,"time":221.18240799999998,"velocity":0.7559055118110236},{"duration":0.5443196333333162,"durationTicks":479,"midi":50,"name":"D3","ticks":194880,"time":221.45513599999998,"velocity":0.7559055118110236},{"duration":0.5443196333333162,"durationTicks":479,"midi":55,"name":"G3","ticks":194880,"time":221.45513599999998,"velocity":0.7559055118110236},{"duration":0.5443196333333162,"durationTicks":479,"midi":58,"name":"A#3","ticks":194880,"time":221.45513599999998,"velocity":0.7559055118110236},{"duration":0.5443196333333162,"durationTicks":479,"midi":43,"name":"G2","ticks":195360,"time":222.00059199999998,"velocity":0.7559055118110236},{"duration":0.5443196333333162,"durationTicks":479,"midi":50,"name":"D3","ticks":195360,"time":222.00059199999998,"velocity":0.7559055118110236},{"duration":0.5443196333333162,"durationTicks":479,"midi":55,"name":"G3","ticks":195360,"time":222.00059199999998,"velocity":0.7559055118110236},{"duration":0.5443196333333162,"durationTicks":479,"midi":36,"name":"C2","ticks":195840,"time":222.54604799999998,"velocity":0.7559055118110236},{"duration":0.5443196333333162,"durationTicks":479,"midi":43,"name":"G2","ticks":195840,"time":222.54604799999998,"velocity":0.7559055118110236},{"duration":0.5443196333333162,"durationTicks":479,"midi":48,"name":"C3","ticks":195840,"time":222.54604799999998,"velocity":0.7559055118110236},{"duration":0.2715916333333155,"durationTicks":239,"midi":36,"name":"C2","ticks":196320,"time":223.091504,"velocity":0.7559055118110236},{"duration":0.2715916333333155,"durationTicks":239,"midi":48,"name":"C3","ticks":196320,"time":223.091504,"velocity":0.7559055118110236},{"duration":0.2715916333333155,"durationTicks":239,"midi":36,"name":"C2","ticks":196560,"time":223.364232,"velocity":0.6299212598425197},{"duration":0.2715916333333155,"durationTicks":239,"midi":48,"name":"C3","ticks":196560,"time":223.364232,"velocity":0.6299212598425197},{"duration":0.5443196333333162,"durationTicks":479,"midi":43,"name":"G2","ticks":196800,"time":223.63696,"velocity":0.6299212598425197},{"duration":0.5443196333333162,"durationTicks":479,"midi":48,"name":"C3","ticks":196800,"time":223.63696,"velocity":0.6299212598425197},{"duration":0.5443196333333162,"durationTicks":479,"midi":51,"name":"D#3","ticks":196800,"time":223.63696,"velocity":0.6299212598425197},{"duration":0.5443196333333162,"durationTicks":479,"midi":36,"name":"C2","ticks":197280,"time":224.182416,"velocity":0.6299212598425197},{"duration":0.5443196333333162,"durationTicks":479,"midi":43,"name":"G2","ticks":197280,"time":224.182416,"velocity":0.6299212598425197},{"duration":0.5443196333333162,"durationTicks":479,"midi":48,"name":"C3","ticks":197280,"time":224.182416,"velocity":0.6299212598425197},{"duration":0.5443196333333447,"durationTicks":479,"midi":44,"name":"G#2","ticks":197760,"time":224.72787199999996,"velocity":0.6299212598425197},{"duration":0.5443196333333447,"durationTicks":479,"midi":51,"name":"D#3","ticks":197760,"time":224.72787199999996,"velocity":0.6299212598425197},{"duration":0.5443196333333447,"durationTicks":479,"midi":56,"name":"G#3","ticks":197760,"time":224.72787199999996,"velocity":0.6299212598425197},{"duration":0.2715916333333439,"durationTicks":239,"midi":44,"name":"G#2","ticks":198240,"time":225.27332799999996,"velocity":0.6299212598425197},{"duration":0.2715916333333439,"durationTicks":239,"midi":56,"name":"G#3","ticks":198240,"time":225.27332799999996,"velocity":0.6299212598425197},{"duration":0.2715916333333439,"durationTicks":239,"midi":44,"name":"G#2","ticks":198480,"time":225.54605599999996,"velocity":0.6299212598425197},{"duration":0.2715916333333439,"durationTicks":239,"midi":56,"name":"G#3","ticks":198480,"time":225.54605599999996,"velocity":0.6299212598425197},{"duration":0.5443196333333162,"durationTicks":479,"midi":51,"name":"D#3","ticks":198720,"time":225.81878399999997,"velocity":0.7559055118110236},{"duration":0.5443196333333162,"durationTicks":479,"midi":56,"name":"G#3","ticks":198720,"time":225.81878399999997,"velocity":0.7559055118110236},{"duration":0.5443196333333162,"durationTicks":479,"midi":60,"name":"C4","ticks":198720,"time":225.81878399999997,"velocity":0.7559055118110236},{"duration":0.5443196333333162,"durationTicks":479,"midi":44,"name":"G#2","ticks":199200,"time":226.36423999999997,"velocity":0.7559055118110236},{"duration":0.5443196333333162,"durationTicks":479,"midi":51,"name":"D#3","ticks":199200,"time":226.36423999999997,"velocity":0.7559055118110236},{"duration":0.5443196333333162,"durationTicks":479,"midi":56,"name":"G#3","ticks":199200,"time":226.36423999999997,"velocity":0.7559055118110236},{"duration":0.5443196333333162,"durationTicks":479,"midi":39,"name":"D#2","ticks":199680,"time":226.90969599999997,"velocity":0.7559055118110236},{"duration":0.5443196333333162,"durationTicks":479,"midi":46,"name":"A#2","ticks":199680,"time":226.90969599999997,"velocity":0.7559055118110236},{"duration":0.5443196333333162,"durationTicks":479,"midi":51,"name":"D#3","ticks":199680,"time":226.90969599999997,"velocity":0.7559055118110236},{"duration":0.2715916333333155,"durationTicks":239,"midi":39,"name":"D#2","ticks":200160,"time":227.45515199999997,"velocity":0.7559055118110236},{"duration":0.2715916333333155,"durationTicks":239,"midi":51,"name":"D#3","ticks":200160,"time":227.45515199999997,"velocity":0.7559055118110236},{"duration":0.2715916333333155,"durationTicks":239,"midi":39,"name":"D#2","ticks":200400,"time":227.72787999999997,"velocity":0.7559055118110236},{"duration":0.2715916333333155,"durationTicks":239,"midi":51,"name":"D#3","ticks":200400,"time":227.72787999999997,"velocity":0.7559055118110236},{"duration":0.5443196333333162,"durationTicks":479,"midi":46,"name":"A#2","ticks":200640,"time":228.00060799999997,"velocity":0.7559055118110236},{"duration":0.5443196333333162,"durationTicks":479,"midi":51,"name":"D#3","ticks":200640,"time":228.00060799999997,"velocity":0.7559055118110236},{"duration":0.5443196333333162,"durationTicks":479,"midi":55,"name":"G3","ticks":200640,"time":228.00060799999997,"velocity":0.7559055118110236},{"duration":0.5443196333333162,"durationTicks":479,"midi":39,"name":"D#2","ticks":201120,"time":228.54606399999997,"velocity":0.7559055118110236},{"duration":0.5443196333333162,"durationTicks":479,"midi":46,"name":"A#2","ticks":201120,"time":228.54606399999997,"velocity":0.7559055118110236},{"duration":0.5443196333333162,"durationTicks":479,"midi":51,"name":"D#3","ticks":201120,"time":228.54606399999997,"velocity":0.7559055118110236},{"duration":0.5443196333333162,"durationTicks":479,"midi":43,"name":"G2","ticks":201600,"time":229.09151999999997,"velocity":0.7559055118110236},{"duration":0.5443196333333162,"durationTicks":479,"midi":50,"name":"D3","ticks":201600,"time":229.09151999999997,"velocity":0.7559055118110236},{"duration":0.5443196333333162,"durationTicks":479,"midi":55,"name":"G3","ticks":201600,"time":229.09151999999997,"velocity":0.7559055118110236},{"duration":0.2715916333333155,"durationTicks":239,"midi":43,"name":"G2","ticks":202080,"time":229.63697599999998,"velocity":0.7559055118110236},{"duration":0.2715916333333155,"durationTicks":239,"midi":55,"name":"G3","ticks":202080,"time":229.63697599999998,"velocity":0.7559055118110236},{"duration":0.2715916333333155,"durationTicks":239,"midi":43,"name":"G2","ticks":202320,"time":229.90970399999998,"velocity":0.7559055118110236},{"duration":0.2715916333333155,"durationTicks":239,"midi":55,"name":"G3","ticks":202320,"time":229.90970399999998,"velocity":0.7559055118110236},{"duration":0.5443196333333162,"durationTicks":479,"midi":50,"name":"D3","ticks":202560,"time":230.18243199999998,"velocity":0.7559055118110236},{"duration":0.5443196333333162,"durationTicks":479,"midi":55,"name":"G3","ticks":202560,"time":230.18243199999998,"velocity":0.7559055118110236},{"duration":0.5443196333333162,"durationTicks":479,"midi":58,"name":"A#3","ticks":202560,"time":230.18243199999998,"velocity":0.7559055118110236},{"duration":0.5443196333333162,"durationTicks":479,"midi":43,"name":"G2","ticks":203040,"time":230.72788799999998,"velocity":0.7559055118110236},{"duration":0.5443196333333162,"durationTicks":479,"midi":50,"name":"D3","ticks":203040,"time":230.72788799999998,"velocity":0.7559055118110236},{"duration":0.5443196333333162,"durationTicks":479,"midi":55,"name":"G3","ticks":203040,"time":230.72788799999998,"velocity":0.7559055118110236},{"duration":0.5443196333333162,"durationTicks":479,"midi":36,"name":"C2","ticks":203520,"time":231.27334399999998,"velocity":0.7559055118110236},{"duration":0.5443196333333162,"durationTicks":479,"midi":43,"name":"G2","ticks":203520,"time":231.27334399999998,"velocity":0.7559055118110236},{"duration":0.5443196333333162,"durationTicks":479,"midi":48,"name":"C3","ticks":203520,"time":231.27334399999998,"velocity":0.7559055118110236},{"duration":0.2715916333333155,"durationTicks":239,"midi":36,"name":"C2","ticks":204000,"time":231.81879999999998,"velocity":0.7559055118110236},{"duration":0.2715916333333155,"durationTicks":239,"midi":48,"name":"C3","ticks":204000,"time":231.81879999999998,"velocity":0.7559055118110236},{"duration":0.2715916333333155,"durationTicks":239,"midi":36,"name":"C2","ticks":204240,"time":232.09152799999998,"velocity":0.7559055118110236},{"duration":0.2715916333333155,"durationTicks":239,"midi":48,"name":"C3","ticks":204240,"time":232.09152799999998,"velocity":0.7559055118110236},{"duration":0.5443196333333162,"durationTicks":479,"midi":43,"name":"G2","ticks":204480,"time":232.36425599999998,"velocity":0.7559055118110236},{"duration":0.5443196333333162,"durationTicks":479,"midi":48,"name":"C3","ticks":204480,"time":232.36425599999998,"velocity":0.7559055118110236},{"duration":0.5443196333333162,"durationTicks":479,"midi":51,"name":"D#3","ticks":204480,"time":232.36425599999998,"velocity":0.7559055118110236},{"duration":0.5443196333333162,"durationTicks":479,"midi":36,"name":"C2","ticks":204960,"time":232.90971199999998,"velocity":0.7559055118110236},{"duration":0.5443196333333162,"durationTicks":479,"midi":43,"name":"G2","ticks":204960,"time":232.90971199999998,"velocity":0.7559055118110236},{"duration":0.5443196333333162,"durationTicks":479,"midi":48,"name":"C3","ticks":204960,"time":232.90971199999998,"velocity":0.7559055118110236},{"duration":0.5443196333333162,"durationTicks":479,"midi":44,"name":"G#2","ticks":205440,"time":233.455168,"velocity":0.7559055118110236},{"duration":0.5443196333333162,"durationTicks":479,"midi":51,"name":"D#3","ticks":205440,"time":233.455168,"velocity":0.7559055118110236},{"duration":0.5443196333333162,"durationTicks":479,"midi":56,"name":"G#3","ticks":205440,"time":233.455168,"velocity":0.7559055118110236},{"duration":0.2715916333333155,"durationTicks":239,"midi":44,"name":"G#2","ticks":205920,"time":234.000624,"velocity":0.7559055118110236},{"duration":0.2715916333333155,"durationTicks":239,"midi":56,"name":"G#3","ticks":205920,"time":234.000624,"velocity":0.7559055118110236},{"duration":0.2715916333333155,"durationTicks":239,"midi":44,"name":"G#2","ticks":206160,"time":234.273352,"velocity":0.7559055118110236},{"duration":0.2715916333333155,"durationTicks":239,"midi":56,"name":"G#3","ticks":206160,"time":234.273352,"velocity":0.7559055118110236},{"duration":0.5443196333333447,"durationTicks":479,"midi":51,"name":"D#3","ticks":206400,"time":234.54607999999996,"velocity":0.7559055118110236},{"duration":0.5443196333333447,"durationTicks":479,"midi":56,"name":"G#3","ticks":206400,"time":234.54607999999996,"velocity":0.7559055118110236},{"duration":0.5443196333333447,"durationTicks":479,"midi":60,"name":"C4","ticks":206400,"time":234.54607999999996,"velocity":0.7559055118110236},{"duration":0.5443196333333447,"durationTicks":479,"midi":44,"name":"G#2","ticks":206880,"time":235.09153599999996,"velocity":0.7559055118110236},{"duration":0.5443196333333447,"durationTicks":479,"midi":51,"name":"D#3","ticks":206880,"time":235.09153599999996,"velocity":0.7559055118110236},{"duration":0.5443196333333447,"durationTicks":479,"midi":56,"name":"G#3","ticks":206880,"time":235.09153599999996,"velocity":0.7559055118110236},{"duration":0.5443196333333162,"durationTicks":479,"midi":39,"name":"D#2","ticks":207360,"time":235.63699199999996,"velocity":0.7559055118110236},{"duration":0.5443196333333162,"durationTicks":479,"midi":46,"name":"A#2","ticks":207360,"time":235.63699199999996,"velocity":0.7559055118110236},{"duration":0.5443196333333162,"durationTicks":479,"midi":51,"name":"D#3","ticks":207360,"time":235.63699199999996,"velocity":0.7559055118110236},{"duration":0.2715916333333155,"durationTicks":239,"midi":39,"name":"D#2","ticks":207840,"time":236.18244799999997,"velocity":0.7559055118110236},{"duration":0.2715916333333155,"durationTicks":239,"midi":51,"name":"D#3","ticks":207840,"time":236.18244799999997,"velocity":0.7559055118110236},{"duration":0.2715916333333155,"durationTicks":239,"midi":39,"name":"D#2","ticks":208080,"time":236.45517599999997,"velocity":0.6299212598425197},{"duration":0.2715916333333155,"durationTicks":239,"midi":51,"name":"D#3","ticks":208080,"time":236.45517599999997,"velocity":0.6299212598425197},{"duration":0.5443196333333162,"durationTicks":479,"midi":46,"name":"A#2","ticks":208320,"time":236.72790399999997,"velocity":0.6299212598425197},{"duration":0.5443196333333162,"durationTicks":479,"midi":51,"name":"D#3","ticks":208320,"time":236.72790399999997,"velocity":0.6299212598425197},{"duration":0.5443196333333162,"durationTicks":479,"midi":55,"name":"G3","ticks":208320,"time":236.72790399999997,"velocity":0.6299212598425197},{"duration":0.5443196333333162,"durationTicks":479,"midi":39,"name":"D#2","ticks":208800,"time":237.27335999999997,"velocity":0.6299212598425197},{"duration":0.5443196333333162,"durationTicks":479,"midi":46,"name":"A#2","ticks":208800,"time":237.27335999999997,"velocity":0.6299212598425197},{"duration":0.5443196333333162,"durationTicks":479,"midi":51,"name":"D#3","ticks":208800,"time":237.27335999999997,"velocity":0.6299212598425197},{"duration":0.5443196333333162,"durationTicks":479,"midi":43,"name":"G2","ticks":209280,"time":237.81881599999997,"velocity":0.6299212598425197},{"duration":0.5443196333333162,"durationTicks":479,"midi":50,"name":"D3","ticks":209280,"time":237.81881599999997,"velocity":0.6299212598425197},{"duration":0.27272800000000075,"durationTicks":240,"midi":55,"name":"G3","ticks":209280,"time":237.81881599999997,"velocity":0.6299212598425197},{"duration":0.2715916333333155,"durationTicks":239,"midi":43,"name":"G2","ticks":209760,"time":238.36427199999997,"velocity":0.6299212598425197},{"duration":0.2715916333333155,"durationTicks":239,"midi":55,"name":"G3","ticks":209760,"time":238.36427199999997,"velocity":0.6299212598425197},{"duration":0.2715916333333155,"durationTicks":239,"midi":43,"name":"G2","ticks":210000,"time":238.63699999999997,"velocity":0.7559055118110236},{"duration":0.2715916333333155,"durationTicks":239,"midi":55,"name":"G3","ticks":210000,"time":238.63699999999997,"velocity":0.7559055118110236},{"duration":0.5443196333333162,"durationTicks":479,"midi":50,"name":"D3","ticks":210240,"time":238.90972799999997,"velocity":0.7559055118110236},{"duration":0.5443196333333162,"durationTicks":479,"midi":55,"name":"G3","ticks":210240,"time":238.90972799999997,"velocity":0.7559055118110236},{"duration":0.5443196333333162,"durationTicks":479,"midi":58,"name":"A#3","ticks":210240,"time":238.90972799999997,"velocity":0.7559055118110236},{"duration":0.5443196333333162,"durationTicks":479,"midi":43,"name":"G2","ticks":210720,"time":239.45518399999997,"velocity":0.7559055118110236},{"duration":0.5443196333333162,"durationTicks":479,"midi":50,"name":"D3","ticks":210720,"time":239.45518399999997,"velocity":0.7559055118110236},{"duration":0.5443196333333162,"durationTicks":479,"midi":55,"name":"G3","ticks":210720,"time":239.45518399999997,"velocity":0.7559055118110236},{"duration":0.5443196333333162,"durationTicks":479,"midi":36,"name":"C2","ticks":211200,"time":240.00063999999998,"velocity":0.7559055118110236},{"duration":0.5443196333333162,"durationTicks":479,"midi":43,"name":"G2","ticks":211200,"time":240.00063999999998,"velocity":0.7559055118110236},{"duration":0.5443196333333162,"durationTicks":479,"midi":48,"name":"C3","ticks":211200,"time":240.00063999999998,"velocity":0.7559055118110236},{"duration":0.2715916333333155,"durationTicks":239,"midi":36,"name":"C2","ticks":211680,"time":240.54609599999998,"velocity":0.7559055118110236},{"duration":0.2715916333333155,"durationTicks":239,"midi":48,"name":"C3","ticks":211680,"time":240.54609599999998,"velocity":0.7559055118110236},{"duration":0.2715916333333155,"durationTicks":239,"midi":36,"name":"C2","ticks":211920,"time":240.81882399999998,"velocity":0.6299212598425197},{"duration":0.2715916333333155,"durationTicks":239,"midi":48,"name":"C3","ticks":211920,"time":240.81882399999998,"velocity":0.6299212598425197},{"duration":0.5443196333333162,"durationTicks":479,"midi":43,"name":"G2","ticks":212160,"time":241.09155199999998,"velocity":0.6299212598425197},{"duration":0.5443196333333162,"durationTicks":479,"midi":48,"name":"C3","ticks":212160,"time":241.09155199999998,"velocity":0.6299212598425197},{"duration":0.5443196333333162,"durationTicks":479,"midi":51,"name":"D#3","ticks":212160,"time":241.09155199999998,"velocity":0.6299212598425197},{"duration":0.5443196333333162,"durationTicks":479,"midi":36,"name":"C2","ticks":212640,"time":241.63700799999998,"velocity":0.6299212598425197},{"duration":0.5443196333333162,"durationTicks":479,"midi":43,"name":"G2","ticks":212640,"time":241.63700799999998,"velocity":0.6299212598425197},{"duration":0.5443196333333162,"durationTicks":479,"midi":48,"name":"C3","ticks":212640,"time":241.63700799999998,"velocity":0.6299212598425197},{"duration":0.5443196333333162,"durationTicks":479,"midi":44,"name":"G#2","ticks":213120,"time":242.18246399999998,"velocity":0.6299212598425197},{"duration":0.5443196333333162,"durationTicks":479,"midi":51,"name":"D#3","ticks":213120,"time":242.18246399999998,"velocity":0.6299212598425197},{"duration":0.5443196333333162,"durationTicks":479,"midi":56,"name":"G#3","ticks":213120,"time":242.18246399999998,"velocity":0.6299212598425197},{"duration":0.2715916333333155,"durationTicks":239,"midi":44,"name":"G#2","ticks":213600,"time":242.72791999999998,"velocity":0.7559055118110236},{"duration":0.2715916333333155,"durationTicks":239,"midi":56,"name":"G#3","ticks":213600,"time":242.72791999999998,"velocity":0.7559055118110236},{"duration":0.2715916333333155,"durationTicks":239,"midi":44,"name":"G#2","ticks":213840,"time":243.00064799999998,"velocity":0.7559055118110236},{"duration":0.2715916333333155,"durationTicks":239,"midi":56,"name":"G#3","ticks":213840,"time":243.00064799999998,"velocity":0.7559055118110236},{"duration":0.5443196333333162,"durationTicks":479,"midi":51,"name":"D#3","ticks":214080,"time":243.27337599999998,"velocity":0.7559055118110236},{"duration":0.5443196333333162,"durationTicks":479,"midi":56,"name":"G#3","ticks":214080,"time":243.27337599999998,"velocity":0.7559055118110236},{"duration":0.5443196333333162,"durationTicks":479,"midi":60,"name":"C4","ticks":214080,"time":243.27337599999998,"velocity":0.7559055118110236},{"duration":0.5443196333333162,"durationTicks":479,"midi":44,"name":"G#2","ticks":214560,"time":243.818832,"velocity":0.7559055118110236},{"duration":0.5443196333333162,"durationTicks":479,"midi":51,"name":"D#3","ticks":214560,"time":243.818832,"velocity":0.7559055118110236},{"duration":0.5443196333333162,"durationTicks":479,"midi":56,"name":"G#3","ticks":214560,"time":243.818832,"velocity":0.7559055118110236},{"duration":0.5443196333333162,"durationTicks":479,"midi":39,"name":"D#2","ticks":215040,"time":244.364288,"velocity":0.7559055118110236},{"duration":0.5443196333333162,"durationTicks":479,"midi":46,"name":"A#2","ticks":215040,"time":244.364288,"velocity":0.7559055118110236},{"duration":0.5443196333333162,"durationTicks":479,"midi":51,"name":"D#3","ticks":215040,"time":244.364288,"velocity":0.7559055118110236},{"duration":0.2715916333333439,"durationTicks":239,"midi":39,"name":"D#2","ticks":215520,"time":244.90974399999996,"velocity":0.7559055118110236},{"duration":0.2715916333333439,"durationTicks":239,"midi":51,"name":"D#3","ticks":215520,"time":244.90974399999996,"velocity":0.7559055118110236},{"duration":0.2715916333333439,"durationTicks":239,"midi":39,"name":"D#2","ticks":215760,"time":245.18247199999996,"velocity":0.7559055118110236},{"duration":0.2715916333333439,"durationTicks":239,"midi":51,"name":"D#3","ticks":215760,"time":245.18247199999996,"velocity":0.7559055118110236},{"duration":0.5443196333333162,"durationTicks":479,"midi":46,"name":"A#2","ticks":216000,"time":245.45519999999996,"velocity":0.7559055118110236},{"duration":0.5443196333333162,"durationTicks":479,"midi":51,"name":"D#3","ticks":216000,"time":245.45519999999996,"velocity":0.7559055118110236},{"duration":0.5443196333333162,"durationTicks":479,"midi":55,"name":"G3","ticks":216000,"time":245.45519999999996,"velocity":0.7559055118110236},{"duration":0.5443196333333162,"durationTicks":479,"midi":39,"name":"D#2","ticks":216480,"time":246.00065599999996,"velocity":0.7559055118110236},{"duration":0.5443196333333162,"durationTicks":479,"midi":46,"name":"A#2","ticks":216480,"time":246.00065599999996,"velocity":0.7559055118110236},{"duration":0.5443196333333162,"durationTicks":479,"midi":51,"name":"D#3","ticks":216480,"time":246.00065599999996,"velocity":0.7559055118110236},{"duration":0.5443196333333162,"durationTicks":479,"midi":43,"name":"G2","ticks":216960,"time":246.54611199999997,"velocity":0.7559055118110236},{"duration":0.5443196333333162,"durationTicks":479,"midi":50,"name":"D3","ticks":216960,"time":246.54611199999997,"velocity":0.7559055118110236},{"duration":0.5443196333333162,"durationTicks":479,"midi":55,"name":"G3","ticks":216960,"time":246.54611199999997,"velocity":0.7559055118110236},{"duration":0.2715916333333155,"durationTicks":239,"midi":43,"name":"G2","ticks":217440,"time":247.09156799999997,"velocity":0.7559055118110236},{"duration":0.2715916333333155,"durationTicks":239,"midi":55,"name":"G3","ticks":217440,"time":247.09156799999997,"velocity":0.7559055118110236},{"duration":0.2715916333333155,"durationTicks":239,"midi":43,"name":"G2","ticks":217680,"time":247.36429599999997,"velocity":0.7559055118110236},{"duration":0.2715916333333155,"durationTicks":239,"midi":55,"name":"G3","ticks":217680,"time":247.36429599999997,"velocity":0.7559055118110236},{"duration":0.5443196333333162,"durationTicks":479,"midi":50,"name":"D3","ticks":217920,"time":247.63702399999997,"velocity":0.7559055118110236},{"duration":0.5443196333333162,"durationTicks":479,"midi":55,"name":"G3","ticks":217920,"time":247.63702399999997,"velocity":0.7559055118110236},{"duration":0.5443196333333162,"durationTicks":479,"midi":58,"name":"A#3","ticks":217920,"time":247.63702399999997,"velocity":0.7559055118110236},{"duration":0.5443196333333162,"durationTicks":479,"midi":43,"name":"G2","ticks":218400,"time":248.18247999999997,"velocity":0.7559055118110236},{"duration":0.5443196333333162,"durationTicks":479,"midi":50,"name":"D3","ticks":218400,"time":248.18247999999997,"velocity":0.7559055118110236},{"duration":0.5443196333333162,"durationTicks":479,"midi":55,"name":"G3","ticks":218400,"time":248.18247999999997,"velocity":0.7559055118110236},{"duration":0.5443196333333162,"durationTicks":479,"midi":36,"name":"C2","ticks":218880,"time":248.72793599999997,"velocity":0.7559055118110236},{"duration":0.5443196333333162,"durationTicks":479,"midi":43,"name":"G2","ticks":218880,"time":248.72793599999997,"velocity":0.7559055118110236},{"duration":0.5443196333333162,"durationTicks":479,"midi":48,"name":"C3","ticks":218880,"time":248.72793599999997,"velocity":0.7559055118110236},{"duration":0.2715916333333155,"durationTicks":239,"midi":36,"name":"C2","ticks":219360,"time":249.27339199999997,"velocity":0.7559055118110236},{"duration":0.2715916333333155,"durationTicks":239,"midi":48,"name":"C3","ticks":219360,"time":249.27339199999997,"velocity":0.7559055118110236},{"duration":0.2715916333333155,"durationTicks":239,"midi":36,"name":"C2","ticks":219600,"time":249.54611999999997,"velocity":0.7559055118110236},{"duration":0.2715916333333155,"durationTicks":239,"midi":48,"name":"C3","ticks":219600,"time":249.54611999999997,"velocity":0.7559055118110236},{"duration":0.5443196333333162,"durationTicks":479,"midi":43,"name":"G2","ticks":219840,"time":249.81884799999997,"velocity":0.7559055118110236},{"duration":0.5443196333333162,"durationTicks":479,"midi":48,"name":"C3","ticks":219840,"time":249.81884799999997,"velocity":0.7559055118110236},{"duration":0.5443196333333162,"durationTicks":479,"midi":51,"name":"D#3","ticks":219840,"time":249.81884799999997,"velocity":0.7559055118110236},{"duration":0.5443196333333162,"durationTicks":479,"midi":36,"name":"C2","ticks":220320,"time":250.36430399999998,"velocity":0.7559055118110236},{"duration":0.5443196333333162,"durationTicks":479,"midi":43,"name":"G2","ticks":220320,"time":250.36430399999998,"velocity":0.7559055118110236},{"duration":0.5443196333333162,"durationTicks":479,"midi":48,"name":"C3","ticks":220320,"time":250.36430399999998,"velocity":0.7559055118110236},{"duration":0.5443196333333162,"durationTicks":479,"midi":44,"name":"G#2","ticks":220800,"time":250.90975999999998,"velocity":0.7559055118110236},{"duration":0.5443196333333162,"durationTicks":479,"midi":51,"name":"D#3","ticks":220800,"time":250.90975999999998,"velocity":0.7559055118110236},{"duration":0.5443196333333162,"durationTicks":479,"midi":56,"name":"G#3","ticks":220800,"time":250.90975999999998,"velocity":0.7559055118110236},{"duration":0.2715916333333155,"durationTicks":239,"midi":44,"name":"G#2","ticks":221280,"time":251.45521599999998,"velocity":0.7559055118110236},{"duration":0.2715916333333155,"durationTicks":239,"midi":56,"name":"G#3","ticks":221280,"time":251.45521599999998,"velocity":0.7559055118110236},{"duration":0.2715916333333155,"durationTicks":239,"midi":44,"name":"G#2","ticks":221520,"time":251.72794399999998,"velocity":0.7559055118110236},{"duration":0.2715916333333155,"durationTicks":239,"midi":56,"name":"G#3","ticks":221520,"time":251.72794399999998,"velocity":0.7559055118110236},{"duration":0.5443196333333162,"durationTicks":479,"midi":51,"name":"D#3","ticks":221760,"time":252.00067199999998,"velocity":0.7559055118110236},{"duration":0.5443196333333162,"durationTicks":479,"midi":56,"name":"G#3","ticks":221760,"time":252.00067199999998,"velocity":0.7559055118110236},{"duration":0.5443196333333162,"durationTicks":479,"midi":60,"name":"C4","ticks":221760,"time":252.00067199999998,"velocity":0.7559055118110236},{"duration":0.5443196333333162,"durationTicks":479,"midi":44,"name":"G#2","ticks":222240,"time":252.54612799999998,"velocity":0.7559055118110236},{"duration":0.5443196333333162,"durationTicks":479,"midi":51,"name":"D#3","ticks":222240,"time":252.54612799999998,"velocity":0.7559055118110236},{"duration":0.5443196333333162,"durationTicks":479,"midi":56,"name":"G#3","ticks":222240,"time":252.54612799999998,"velocity":0.7559055118110236},{"duration":0.5443196333333162,"durationTicks":479,"midi":39,"name":"D#2","ticks":222720,"time":253.09158399999998,"velocity":0.7559055118110236},{"duration":0.5443196333333162,"durationTicks":479,"midi":46,"name":"A#2","ticks":222720,"time":253.09158399999998,"velocity":0.7559055118110236},{"duration":0.5443196333333162,"durationTicks":479,"midi":51,"name":"D#3","ticks":222720,"time":253.09158399999998,"velocity":0.7559055118110236},{"duration":0.2715916333333155,"durationTicks":239,"midi":39,"name":"D#2","ticks":223200,"time":253.63703999999998,"velocity":0.7559055118110236},{"duration":0.2715916333333155,"durationTicks":239,"midi":51,"name":"D#3","ticks":223200,"time":253.63703999999998,"velocity":0.7559055118110236},{"duration":0.2715916333333155,"durationTicks":239,"midi":39,"name":"D#2","ticks":223440,"time":253.90976799999999,"velocity":0.7559055118110236},{"duration":0.2715916333333155,"durationTicks":239,"midi":51,"name":"D#3","ticks":223440,"time":253.90976799999999,"velocity":0.7559055118110236},{"duration":0.5443196333333162,"durationTicks":479,"midi":46,"name":"A#2","ticks":223680,"time":254.182496,"velocity":0.7559055118110236},{"duration":0.5443196333333162,"durationTicks":479,"midi":51,"name":"D#3","ticks":223680,"time":254.182496,"velocity":0.7559055118110236},{"duration":0.5443196333333162,"durationTicks":479,"midi":55,"name":"G3","ticks":223680,"time":254.182496,"velocity":0.7559055118110236},{"duration":0.5443196333333447,"durationTicks":479,"midi":39,"name":"D#2","ticks":224160,"time":254.72795199999996,"velocity":0.7559055118110236},{"duration":0.5443196333333447,"durationTicks":479,"midi":46,"name":"A#2","ticks":224160,"time":254.72795199999996,"velocity":0.7559055118110236},{"duration":0.5443196333333447,"durationTicks":479,"midi":51,"name":"D#3","ticks":224160,"time":254.72795199999996,"velocity":0.7559055118110236},{"duration":0.5443196333333162,"durationTicks":479,"midi":43,"name":"G2","ticks":224640,"time":255.27340799999996,"velocity":0.7559055118110236},{"duration":0.5443196333333162,"durationTicks":479,"midi":50,"name":"D3","ticks":224640,"time":255.27340799999996,"velocity":0.7559055118110236},{"duration":0.5443196333333162,"durationTicks":479,"midi":55,"name":"G3","ticks":224640,"time":255.27340799999996,"velocity":0.7559055118110236},{"duration":0.2715916333333439,"durationTicks":239,"midi":43,"name":"G2","ticks":225120,"time":255.81886399999996,"velocity":0.7559055118110236},{"duration":0.2715916333333439,"durationTicks":239,"midi":55,"name":"G3","ticks":225120,"time":255.81886399999996,"velocity":0.7559055118110236},{"duration":0.27159163333328706,"durationTicks":239,"midi":43,"name":"G2","ticks":225360,"time":256.091592,"velocity":0.7559055118110236},{"duration":0.27159163333328706,"durationTicks":239,"midi":55,"name":"G3","ticks":225360,"time":256.091592,"velocity":0.7559055118110236},{"duration":0.5443196333333162,"durationTicks":479,"midi":50,"name":"D3","ticks":225600,"time":256.36431999999996,"velocity":0.7559055118110236},{"duration":0.5443196333333162,"durationTicks":479,"midi":55,"name":"G3","ticks":225600,"time":256.36431999999996,"velocity":0.7559055118110236},{"duration":0.5443196333333162,"durationTicks":479,"midi":58,"name":"A#3","ticks":225600,"time":256.36431999999996,"velocity":0.7559055118110236},{"duration":0.5443196333333162,"durationTicks":479,"midi":43,"name":"G2","ticks":226080,"time":256.90977599999997,"velocity":0.7559055118110236},{"duration":0.5443196333333162,"durationTicks":479,"midi":50,"name":"D3","ticks":226080,"time":256.90977599999997,"velocity":0.7559055118110236},{"duration":0.5443196333333162,"durationTicks":479,"midi":55,"name":"G3","ticks":226080,"time":256.90977599999997,"velocity":0.7559055118110236},{"duration":0.5443196333333162,"durationTicks":479,"midi":36,"name":"C2","ticks":226560,"time":257.45523199999997,"velocity":0.7559055118110236},{"duration":0.5443196333333162,"durationTicks":479,"midi":43,"name":"G2","ticks":226560,"time":257.45523199999997,"velocity":0.7559055118110236},{"duration":0.5443196333333162,"durationTicks":479,"midi":48,"name":"C3","ticks":226560,"time":257.45523199999997,"velocity":0.7559055118110236},{"duration":0.2715916333333439,"durationTicks":239,"midi":36,"name":"C2","ticks":227040,"time":258.00068799999997,"velocity":0.7559055118110236},{"duration":0.2715916333333439,"durationTicks":239,"midi":48,"name":"C3","ticks":227040,"time":258.00068799999997,"velocity":0.7559055118110236},{"duration":0.27159163333328706,"durationTicks":239,"midi":36,"name":"C2","ticks":227280,"time":258.273416,"velocity":0.7559055118110236},{"duration":0.27159163333328706,"durationTicks":239,"midi":48,"name":"C3","ticks":227280,"time":258.273416,"velocity":0.7559055118110236},{"duration":0.5443196333333162,"durationTicks":479,"midi":43,"name":"G2","ticks":227520,"time":258.54614399999997,"velocity":0.7559055118110236},{"duration":0.5443196333333162,"durationTicks":479,"midi":48,"name":"C3","ticks":227520,"time":258.54614399999997,"velocity":0.7559055118110236},{"duration":0.5443196333333162,"durationTicks":479,"midi":51,"name":"D#3","ticks":227520,"time":258.54614399999997,"velocity":0.7559055118110236},{"duration":0.5443196333333162,"durationTicks":479,"midi":36,"name":"C2","ticks":228000,"time":259.09159999999997,"velocity":0.7559055118110236},{"duration":0.5443196333333162,"durationTicks":479,"midi":43,"name":"G2","ticks":228000,"time":259.09159999999997,"velocity":0.7559055118110236},{"duration":0.5443196333333162,"durationTicks":479,"midi":48,"name":"C3","ticks":228000,"time":259.09159999999997,"velocity":0.7559055118110236},{"duration":0.5443196333333162,"durationTicks":479,"midi":44,"name":"G#2","ticks":228480,"time":259.637056,"velocity":0.7559055118110236},{"duration":0.5443196333333162,"durationTicks":479,"midi":51,"name":"D#3","ticks":228480,"time":259.637056,"velocity":0.7559055118110236},{"duration":0.5443196333333162,"durationTicks":479,"midi":56,"name":"G#3","ticks":228480,"time":259.637056,"velocity":0.7559055118110236},{"duration":0.2715916333333439,"durationTicks":239,"midi":44,"name":"G#2","ticks":228960,"time":260.182512,"velocity":0.7559055118110236},{"duration":0.2715916333333439,"durationTicks":239,"midi":56,"name":"G#3","ticks":228960,"time":260.182512,"velocity":0.7559055118110236},{"duration":0.2715916333333439,"durationTicks":239,"midi":44,"name":"G#2","ticks":229200,"time":260.45523999999995,"velocity":0.7559055118110236},{"duration":0.2715916333333439,"durationTicks":239,"midi":56,"name":"G#3","ticks":229200,"time":260.45523999999995,"velocity":0.7559055118110236},{"duration":1.0897756333333177,"durationTicks":959,"midi":44,"name":"G#2","ticks":229440,"time":260.727968,"velocity":0.7559055118110236},{"duration":1.0897756333333177,"durationTicks":959,"midi":51,"name":"D#3","ticks":229440,"time":260.727968,"velocity":0.7559055118110236},{"duration":1.0897756333333177,"durationTicks":959,"midi":56,"name":"G#3","ticks":229440,"time":260.727968,"velocity":0.7559055118110236},{"duration":2.1806876333333207,"durationTicks":1919,"midi":39,"name":"D#2","ticks":230400,"time":261.81888,"velocity":0.7559055118110236},{"duration":2.1806876333333207,"durationTicks":1919,"midi":43,"name":"G2","ticks":230400,"time":261.81888,"velocity":0.7559055118110236},{"duration":2.1806876333333207,"durationTicks":1919,"midi":46,"name":"A#2","ticks":230400,"time":261.81888,"velocity":0.7559055118110236}]}]}