{"header":{"title":"Blood Sweat & Tears","artist":"BTS","source":"https://musescore.com/user/10542136/scores/3042151","bpm":93.00004185001883,"duration":211.6114639145835},"tracks":[{"instrument_number":0,"notes":[{"name":"D#4","midi":63,"time":36.129016,"velocity":0.3858267716535433,"duration":0.15994616458333155},{"name":"G4","midi":67,"time":36.129016,"velocity":0.3858267716535433,"duration":0.15994616458333155},{"name":"D#5","midi":75,"time":36.129016,"velocity":0.3858267716535433,"duration":0.15994616458333155},{"name":"G5","midi":79,"time":36.129016,"velocity":0.3858267716535433,"duration":0.15994616458333155},{"name":"D#4","midi":63,"time":36.61288675,"velocity":0.3858267716535433,"duration":0.4583331270833355},{"name":"G4","midi":67,"time":36.61288675,"velocity":0.3858267716535433,"duration":0.4583331270833355},{"name":"D#5","midi":75,"time":36.61288675,"velocity":0.3858267716535433,"duration":0.4583331270833355},{"name":"G5","midi":79,"time":36.61288675,"velocity":0.3858267716535433,"duration":0.4583331270833355},{"name":"D#4","midi":63,"time":37.0967575,"velocity":0.3858267716535433,"duration":0.0793010395833349},{"name":"G4","midi":67,"time":37.0967575,"velocity":0.3858267716535433,"duration":0.0793010395833349},{"name":"D#5","midi":75,"time":37.0967575,"velocity":0.3858267716535433,"duration":0.0793010395833349},{"name":"G5","midi":79,"time":37.0967575,"velocity":0.3858267716535433,"duration":0.0793010395833349},{"name":"D4","midi":62,"time":37.419338,"velocity":0.3858267716535433,"duration":0.15994616458333155},{"name":"F4","midi":65,"time":37.419338,"velocity":0.3858267716535433,"duration":0.15994616458333155},{"name":"D5","midi":74,"time":37.419338,"velocity":0.3858267716535433,"duration":0.15994616458333155},{"name":"F5","midi":77,"time":37.419338,"velocity":0.3858267716535433,"duration":0.15994616458333155},{"name":"D4","midi":62,"time":37.903208750000005,"velocity":0.3858267716535433,"duration":0.4583331270833355},{"name":"F4","midi":65,"time":37.903208750000005,"velocity":0.3858267716535433,"duration":0.4583331270833355},{"name":"D5","midi":74,"time":37.903208750000005,"velocity":0.3858267716535433,"duration":0.4583331270833355},{"name":"F5","midi":77,"time":37.903208750000005,"velocity":0.3858267716535433,"duration":0.4583331270833355},{"name":"D4","midi":62,"time":38.387079500000006,"velocity":0.3858267716535433,"duration":0.0793010395833349},{"name":"F4","midi":65,"time":38.387079500000006,"velocity":0.3858267716535433,"duration":0.0793010395833349},{"name":"D5","midi":74,"time":38.387079500000006,"velocity":0.3858267716535433,"duration":0.0793010395833349},{"name":"F5","midi":77,"time":38.387079500000006,"velocity":0.3858267716535433,"duration":0.0793010395833349},{"name":"C4","midi":60,"time":38.70966000000001,"velocity":0.3858267716535433,"duration":0.15994616458333155},{"name":"D#4","midi":63,"time":38.70966000000001,"velocity":0.3858267716535433,"duration":0.15994616458333155},{"name":"C5","midi":72,"time":38.70966000000001,"velocity":0.3858267716535433,"duration":0.15994616458333155},{"name":"D#5","midi":75,"time":38.70966000000001,"velocity":0.3858267716535433,"duration":0.15994616458333155},{"name":"C4","midi":60,"time":39.19353075000001,"velocity":0.3858267716535433,"duration":0.4583331270833355},{"name":"D#4","midi":63,"time":39.19353075000001,"velocity":0.3858267716535433,"duration":0.4583331270833355},{"name":"C5","midi":72,"time":39.19353075000001,"velocity":0.3858267716535433,"duration":0.4583331270833355},{"name":"D#5","midi":75,"time":39.19353075000001,"velocity":0.3858267716535433,"duration":0.4583331270833355},{"name":"C4","midi":60,"time":39.67740150000001,"velocity":0.3858267716535433,"duration":0.0793010395833349},{"name":"D#4","midi":63,"time":39.67740150000001,"velocity":0.3858267716535433,"duration":0.0793010395833349},{"name":"C5","midi":72,"time":39.67740150000001,"velocity":0.3858267716535433,"duration":0.0793010395833349},{"name":"D#5","midi":75,"time":39.67740150000001,"velocity":0.3858267716535433,"duration":0.0793010395833349},{"name":"D4","midi":62,"time":39.99998200000001,"velocity":0.3858267716535433,"duration":0.15994616458333155},{"name":"F4","midi":65,"time":39.99998200000001,"velocity":0.3858267716535433,"duration":0.15994616458333155},{"name":"D5","midi":74,"time":39.99998200000001,"velocity":0.3858267716535433,"duration":0.15994616458333155},{"name":"F5","midi":77,"time":39.99998200000001,"velocity":0.3858267716535433,"duration":0.15994616458333155},{"name":"D4","midi":62,"time":40.48385275000001,"velocity":0.3858267716535433,"duration":0.4583331270833355},{"name":"F4","midi":65,"time":40.48385275000001,"velocity":0.3858267716535433,"duration":0.4583331270833355},{"name":"D5","midi":74,"time":40.48385275000001,"velocity":0.3858267716535433,"duration":0.4583331270833355},{"name":"F5","midi":77,"time":40.48385275000001,"velocity":0.3858267716535433,"duration":0.4583331270833355},{"name":"D4","midi":62,"time":40.96772350000001,"velocity":0.3858267716535433,"duration":0.0793010395833349},{"name":"F4","midi":65,"time":40.96772350000001,"velocity":0.3858267716535433,"duration":0.0793010395833349},{"name":"D5","midi":74,"time":40.96772350000001,"velocity":0.3858267716535433,"duration":0.0793010395833349},{"name":"F5","midi":77,"time":40.96772350000001,"velocity":0.3858267716535433,"duration":0.0793010395833349},{"name":"D#4","midi":63,"time":41.29030400000001,"velocity":0.3858267716535433,"duration":0.15994616458333155},{"name":"G4","midi":67,"time":41.29030400000001,"velocity":0.3858267716535433,"duration":0.15994616458333155},{"name":"D#5","midi":75,"time":41.29030400000001,"velocity":0.3858267716535433,"duration":0.15994616458333155},{"name":"G5","midi":79,"time":41.29030400000001,"velocity":0.3858267716535433,"duration":0.15994616458333155},{"name":"D#4","midi":63,"time":41.774174750000014,"velocity":0.3858267716535433,"duration":0.4583331270833355},{"name":"G4","midi":67,"time":41.774174750000014,"velocity":0.3858267716535433,"duration":0.4583331270833355},{"name":"D#5","midi":75,"time":41.774174750000014,"velocity":0.3858267716535433,"duration":0.4583331270833355},{"name":"G5","midi":79,"time":41.774174750000014,"velocity":0.3858267716535433,"duration":0.4583331270833355},{"name":"D#4","midi":63,"time":42.258045500000016,"velocity":0.3858267716535433,"duration":0.0793010395833349},{"name":"G4","midi":67,"time":42.258045500000016,"velocity":0.3858267716535433,"duration":0.0793010395833349},{"name":"D#5","midi":75,"time":42.258045500000016,"velocity":0.3858267716535433,"duration":0.0793010395833349},{"name":"G5","midi":79,"time":42.258045500000016,"velocity":0.3858267716535433,"duration":0.0793010395833349},{"name":"D4","midi":62,"time":42.58062600000002,"velocity":0.3858267716535433,"duration":0.15994616458333155},{"name":"F4","midi":65,"time":42.58062600000002,"velocity":0.3858267716535433,"duration":0.15994616458333155},{"name":"D5","midi":74,"time":42.58062600000002,"velocity":0.3858267716535433,"duration":0.15994616458333155},{"name":"F5","midi":77,"time":42.58062600000002,"velocity":0.3858267716535433,"duration":0.15994616458333155},{"name":"D4","midi":62,"time":43.06449675000002,"velocity":0.3858267716535433,"duration":0.4583331270833355},{"name":"F4","midi":65,"time":43.06449675000002,"velocity":0.3858267716535433,"duration":0.4583331270833355},{"name":"D5","midi":74,"time":43.06449675000002,"velocity":0.3858267716535433,"duration":0.4583331270833355},{"name":"F5","midi":77,"time":43.06449675000002,"velocity":0.3858267716535433,"duration":0.4583331270833355},{"name":"D4","midi":62,"time":43.54836750000002,"velocity":0.3858267716535433,"duration":0.0793010395833349},{"name":"F4","midi":65,"time":43.54836750000002,"velocity":0.3858267716535433,"duration":0.0793010395833349},{"name":"D5","midi":74,"time":43.54836750000002,"velocity":0.3858267716535433,"duration":0.0793010395833349},{"name":"F5","midi":77,"time":43.54836750000002,"velocity":0.3858267716535433,"duration":0.0793010395833349},{"name":"C4","midi":60,"time":43.87094800000002,"velocity":0.3858267716535433,"duration":0.15994616458333155},{"name":"D#4","midi":63,"time":43.87094800000002,"velocity":0.3858267716535433,"duration":0.15994616458333155},{"name":"C5","midi":72,"time":43.87094800000002,"velocity":0.3858267716535433,"duration":0.15994616458333155},{"name":"D#5","midi":75,"time":43.87094800000002,"velocity":0.3858267716535433,"duration":0.15994616458333155},{"name":"C4","midi":60,"time":44.35481875000002,"velocity":0.3858267716535433,"duration":0.4583331270833355},{"name":"D#4","midi":63,"time":44.35481875000002,"velocity":0.3858267716535433,"duration":0.4583331270833355},{"name":"C5","midi":72,"time":44.35481875000002,"velocity":0.3858267716535433,"duration":0.4583331270833355},{"name":"D#5","midi":75,"time":44.35481875000002,"velocity":0.3858267716535433,"duration":0.4583331270833355},{"name":"C4","midi":60,"time":44.83868950000002,"velocity":0.3858267716535433,"duration":0.0793010395833349},{"name":"D#4","midi":63,"time":44.83868950000002,"velocity":0.3858267716535433,"duration":0.0793010395833349},{"name":"C5","midi":72,"time":44.83868950000002,"velocity":0.3858267716535433,"duration":0.0793010395833349},{"name":"D#5","midi":75,"time":44.83868950000002,"velocity":0.3858267716535433,"duration":0.0793010395833349},{"name":"D4","midi":62,"time":45.16127000000002,"velocity":0.3858267716535433,"duration":0.15994616458333155},{"name":"F4","midi":65,"time":45.16127000000002,"velocity":0.3858267716535433,"duration":0.15994616458333155},{"name":"D5","midi":74,"time":45.16127000000002,"velocity":0.3858267716535433,"duration":0.15994616458333155},{"name":"F5","midi":77,"time":45.16127000000002,"velocity":0.3858267716535433,"duration":0.15994616458333155},{"name":"D#4","midi":63,"time":56.774168000000024,"velocity":0.5039370078740157,"duration":0.15994616458333155},{"name":"G4","midi":67,"time":56.774168000000024,"velocity":0.5039370078740157,"duration":0.15994616458333155},{"name":"D#5","midi":75,"time":56.774168000000024,"velocity":0.5039370078740157,"duration":0.15994616458333155},{"name":"G5","midi":79,"time":56.774168000000024,"velocity":0.5039370078740157,"duration":0.15994616458333155},{"name":"D#4","midi":63,"time":57.258038750000026,"velocity":0.5039370078740157,"duration":0.4583331270833355},{"name":"G4","midi":67,"time":57.258038750000026,"velocity":0.5039370078740157,"duration":0.4583331270833355},{"name":"D#5","midi":75,"time":57.258038750000026,"velocity":0.5039370078740157,"duration":0.4583331270833355},{"name":"G5","midi":79,"time":57.258038750000026,"velocity":0.5039370078740157,"duration":0.4583331270833355},{"name":"D#4","midi":63,"time":57.74190950000003,"velocity":0.5039370078740157,"duration":0.0793010395833349},{"name":"G4","midi":67,"time":57.74190950000003,"velocity":0.5039370078740157,"duration":0.0793010395833349},{"name":"D#5","midi":75,"time":57.74190950000003,"velocity":0.5039370078740157,"duration":0.0793010395833349},{"name":"G5","midi":79,"time":57.74190950000003,"velocity":0.5039370078740157,"duration":0.0793010395833349},{"name":"D4","midi":62,"time":58.06449000000003,"velocity":0.5039370078740157,"duration":0.15994616458333155},{"name":"F4","midi":65,"time":58.06449000000003,"velocity":0.5039370078740157,"duration":0.15994616458333155},{"name":"D5","midi":74,"time":58.06449000000003,"velocity":0.5039370078740157,"duration":0.15994616458333155},{"name":"F5","midi":77,"time":58.06449000000003,"velocity":0.5039370078740157,"duration":0.15994616458333155},{"name":"D4","midi":62,"time":58.54836075000003,"velocity":0.5039370078740157,"duration":0.4583331270833355},{"name":"F4","midi":65,"time":58.54836075000003,"velocity":0.5039370078740157,"duration":0.4583331270833355},{"name":"D5","midi":74,"time":58.54836075000003,"velocity":0.5039370078740157,"duration":0.4583331270833355},{"name":"F5","midi":77,"time":58.54836075000003,"velocity":0.5039370078740157,"duration":0.4583331270833355},{"name":"D4","midi":62,"time":59.03223150000003,"velocity":0.5039370078740157,"duration":0.0793010395833349},{"name":"F4","midi":65,"time":59.03223150000003,"velocity":0.5039370078740157,"duration":0.0793010395833349},{"name":"D5","midi":74,"time":59.03223150000003,"velocity":0.5039370078740157,"duration":0.0793010395833349},{"name":"F5","midi":77,"time":59.03223150000003,"velocity":0.5039370078740157,"duration":0.0793010395833349},{"name":"C4","midi":60,"time":59.35481200000003,"velocity":0.5039370078740157,"duration":0.15994616458333155},{"name":"D#4","midi":63,"time":59.35481200000003,"velocity":0.5039370078740157,"duration":0.15994616458333155},{"name":"C5","midi":72,"time":59.35481200000003,"velocity":0.5039370078740157,"duration":0.15994616458333155},{"name":"D#5","midi":75,"time":59.35481200000003,"velocity":0.5039370078740157,"duration":0.15994616458333155},{"name":"C4","midi":60,"time":59.83868275000003,"velocity":0.5039370078740157,"duration":0.4583331270833355},{"name":"D#4","midi":63,"time":59.83868275000003,"velocity":0.5039370078740157,"duration":0.4583331270833355},{"name":"C5","midi":72,"time":59.83868275000003,"velocity":0.5039370078740157,"duration":0.4583331270833355},{"name":"D#5","midi":75,"time":59.83868275000003,"velocity":0.5039370078740157,"duration":0.4583331270833355},{"name":"C4","midi":60,"time":60.32255350000003,"velocity":0.5039370078740157,"duration":0.0793010395833349},{"name":"D#4","midi":63,"time":60.32255350000003,"velocity":0.5039370078740157,"duration":0.0793010395833349},{"name":"C5","midi":72,"time":60.32255350000003,"velocity":0.5039370078740157,"duration":0.0793010395833349},{"name":"D#5","midi":75,"time":60.32255350000003,"velocity":0.5039370078740157,"duration":0.0793010395833349},{"name":"D4","midi":62,"time":60.645134000000034,"velocity":0.5039370078740157,"duration":0.15994616458333155},{"name":"F4","midi":65,"time":60.645134000000034,"velocity":0.5039370078740157,"duration":0.15994616458333155},{"name":"D5","midi":74,"time":60.645134000000034,"velocity":0.5039370078740157,"duration":0.15994616458333155},{"name":"F5","midi":77,"time":60.645134000000034,"velocity":0.5039370078740157,"duration":0.15994616458333155},{"name":"D4","midi":62,"time":61.129004750000036,"velocity":0.5039370078740157,"duration":0.4583331270833355},{"name":"F4","midi":65,"time":61.129004750000036,"velocity":0.5039370078740157,"duration":0.4583331270833355},{"name":"D5","midi":74,"time":61.129004750000036,"velocity":0.5039370078740157,"duration":0.4583331270833355},{"name":"F5","midi":77,"time":61.129004750000036,"velocity":0.5039370078740157,"duration":0.4583331270833355},{"name":"D4","midi":62,"time":61.61287550000004,"velocity":0.5039370078740157,"duration":0.0793010395833349},{"name":"F4","midi":65,"time":61.61287550000004,"velocity":0.5039370078740157,"duration":0.0793010395833349},{"name":"D5","midi":74,"time":61.61287550000004,"velocity":0.5039370078740157,"duration":0.0793010395833349},{"name":"F5","midi":77,"time":61.61287550000004,"velocity":0.5039370078740157,"duration":0.0793010395833349},{"name":"D#4","midi":63,"time":61.93545600000004,"velocity":0.5039370078740157,"duration":0.15994616458333155},{"name":"G4","midi":67,"time":61.93545600000004,"velocity":0.5039370078740157,"duration":0.15994616458333155},{"name":"D#5","midi":75,"time":61.93545600000004,"velocity":0.5039370078740157,"duration":0.15994616458333155},{"name":"G5","midi":79,"time":61.93545600000004,"velocity":0.5039370078740157,"duration":0.15994616458333155},{"name":"D#4","midi":63,"time":62.41932675000004,"velocity":0.5039370078740157,"duration":0.4583331270833355},{"name":"G4","midi":67,"time":62.41932675000004,"velocity":0.5039370078740157,"duration":0.4583331270833355},{"name":"D#5","midi":75,"time":62.41932675000004,"velocity":0.5039370078740157,"duration":0.4583331270833355},{"name":"G5","midi":79,"time":62.41932675000004,"velocity":0.5039370078740157,"duration":0.4583331270833355},{"name":"D#4","midi":63,"time":62.90319750000004,"velocity":0.5039370078740157,"duration":0.0793010395833349},{"name":"G4","midi":67,"time":62.90319750000004,"velocity":0.5039370078740157,"duration":0.0793010395833349},{"name":"D#5","midi":75,"time":62.90319750000004,"velocity":0.5039370078740157,"duration":0.0793010395833349},{"name":"G5","midi":79,"time":62.90319750000004,"velocity":0.5039370078740157,"duration":0.0793010395833349},{"name":"D4","midi":62,"time":63.22577800000004,"velocity":0.5039370078740157,"duration":0.15994616458333155},{"name":"F4","midi":65,"time":63.22577800000004,"velocity":0.5039370078740157,"duration":0.15994616458333155},{"name":"D5","midi":74,"time":63.22577800000004,"velocity":0.5039370078740157,"duration":0.15994616458333155},{"name":"F5","midi":77,"time":63.22577800000004,"velocity":0.5039370078740157,"duration":0.15994616458333155},{"name":"D4","midi":62,"time":63.70964875000004,"velocity":0.5039370078740157,"duration":0.4583331270833355},{"name":"F4","midi":65,"time":63.70964875000004,"velocity":0.5039370078740157,"duration":0.4583331270833355},{"name":"D5","midi":74,"time":63.70964875000004,"velocity":0.5039370078740157,"duration":0.4583331270833355},{"name":"F5","midi":77,"time":63.70964875000004,"velocity":0.5039370078740157,"duration":0.4583331270833355},{"name":"D4","midi":62,"time":64.19351950000005,"velocity":0.5039370078740157,"duration":0.07930103958332779},{"name":"F4","midi":65,"time":64.19351950000005,"velocity":0.5039370078740157,"duration":0.07930103958332779},{"name":"D5","midi":74,"time":64.19351950000005,"velocity":0.5039370078740157,"duration":0.07930103958332779},{"name":"F5","midi":77,"time":64.19351950000005,"velocity":0.5039370078740157,"duration":0.07930103958332779},{"name":"D#5","midi":75,"time":108.38704800000005,"velocity":0.3858267716535433,"duration":0.30510738958332695},{"name":"D#5","midi":75,"time":108.70962850000004,"velocity":0.3858267716535433,"duration":0.07930103958332779},{"name":"D#5","midi":75,"time":108.87091875000003,"velocity":0.3858267716535433,"duration":0.07930103958332779},{"name":"D#5","midi":75,"time":109.03220900000002,"velocity":0.3858267716535433,"duration":0.30510738958332695},{"name":"D#5","midi":75,"time":109.35478950000001,"velocity":0.3858267716535433,"duration":0.30510738958332695},{"name":"D#5","midi":75,"time":109.67737,"velocity":0.3858267716535433,"duration":0.22849452083333688},{"name":"D#5","midi":75,"time":109.919305375,"velocity":0.3858267716535433,"duration":0.22849452083333688},{"name":"D#5","midi":75,"time":110.16124074999999,"velocity":0.3858267716535433,"duration":0.30510738958332695},{"name":"C5","midi":72,"time":110.80640174999998,"velocity":0.3858267716535433,"duration":0.1518816520833326},{"name":"D#5","midi":75,"time":110.96769199999997,"velocity":0.3858267716535433,"duration":0.30510738958332695},{"name":"D#5","midi":75,"time":111.29027249999996,"velocity":0.3858267716535433,"duration":0.07930103958332779},{"name":"D#5","midi":75,"time":111.45156274999995,"velocity":0.3858267716535433,"duration":0.07930103958332779},{"name":"D#5","midi":75,"time":111.61285299999994,"velocity":0.3858267716535433,"duration":0.30510738958332695},{"name":"D#5","midi":75,"time":111.93543349999993,"velocity":0.3858267716535433,"duration":0.1518816520833326},{"name":"D#5","midi":75,"time":112.09672374999992,"velocity":0.3858267716535433,"duration":0.1518816520833326},{"name":"D#5","midi":75,"time":112.25801399999992,"velocity":0.3858267716535433,"duration":0.30510738958332695},{"name":"D#5","midi":75,"time":113.5483359999999,"velocity":0.3858267716535433,"duration":0.30510738958332695},{"name":"D#5","midi":75,"time":113.8709164999999,"velocity":0.3858267716535433,"duration":0.1518816520833326},{"name":"D#5","midi":75,"time":114.03220674999989,"velocity":0.3858267716535433,"duration":0.1518816520833326},{"name":"D#5","midi":75,"time":114.19349699999988,"velocity":0.3858267716535433,"duration":0.30510738958332695},{"name":"D#5","midi":75,"time":114.51607749999987,"velocity":0.3858267716535433,"duration":0.30510738958332695},{"name":"F5","midi":77,"time":114.83865799999985,"velocity":0.3858267716535433,"duration":0.22849452083333688},{"name":"F5","midi":77,"time":115.08059337499985,"velocity":0.3858267716535433,"duration":0.22849452083333688},{"name":"D#5","midi":75,"time":115.32252874999985,"velocity":0.3858267716535433,"duration":0.30510738958332695},{"name":"C5","midi":72,"time":115.96768974999983,"velocity":0.3858267716535433,"duration":0.1518816520833326},{"name":"D#5","midi":75,"time":116.12897999999983,"velocity":0.3858267716535433,"duration":0.30510738958332695},{"name":"D#5","midi":75,"time":116.45156049999981,"velocity":0.3858267716535433,"duration":0.07930103958332779},{"name":"D#5","midi":75,"time":116.61285074999981,"velocity":0.3858267716535433,"duration":0.07930103958332779},{"name":"D#5","midi":75,"time":116.7741409999998,"velocity":0.3858267716535433,"duration":0.30510738958332695},{"name":"D#5","midi":75,"time":117.09672149999979,"velocity":0.3858267716535433,"duration":0.1518816520833326},{"name":"D5","midi":74,"time":117.25801174999978,"velocity":0.3858267716535433,"duration":0.1518816520833326},{"name":"C5","midi":72,"time":117.41930199999977,"velocity":0.3858267716535433,"duration":0.30510738958332695},{"name":"D#4","midi":63,"time":119.03220449999976,"velocity":0.5039370078740157,"duration":0.30510738958332695},{"name":"G4","midi":67,"time":119.03220449999976,"velocity":0.5039370078740157,"duration":0.30510738958332695},{"name":"D#5","midi":75,"time":119.03220449999976,"velocity":0.5039370078740157,"duration":0.30510738958332695},{"name":"G5","midi":79,"time":119.03220449999976,"velocity":0.5039370078740157,"duration":0.30510738958332695},{"name":"D#4","midi":63,"time":119.67736549999975,"velocity":0.5039370078740157,"duration":0.30510738958332695},{"name":"G4","midi":67,"time":119.67736549999975,"velocity":0.5039370078740157,"duration":0.30510738958332695},{"name":"D#5","midi":75,"time":119.67736549999975,"velocity":0.5039370078740157,"duration":0.30510738958332695},{"name":"G5","midi":79,"time":119.67736549999975,"velocity":0.5039370078740157,"duration":0.30510738958332695},{"name":"D4","midi":62,"time":120.32252649999974,"velocity":0.5039370078740157,"duration":0.30510738958332695},{"name":"F4","midi":65,"time":120.32252649999974,"velocity":0.5039370078740157,"duration":0.30510738958332695},{"name":"D5","midi":74,"time":120.32252649999974,"velocity":0.5039370078740157,"duration":0.30510738958332695},{"name":"F5","midi":77,"time":120.32252649999974,"velocity":0.5039370078740157,"duration":0.30510738958332695},{"name":"D4","midi":62,"time":120.96768749999973,"velocity":0.5039370078740157,"duration":0.30510738958332695},{"name":"F4","midi":65,"time":120.96768749999973,"velocity":0.5039370078740157,"duration":0.30510738958332695},{"name":"D5","midi":74,"time":120.96768749999973,"velocity":0.5039370078740157,"duration":0.30510738958332695},{"name":"F5","midi":77,"time":120.96768749999973,"velocity":0.5039370078740157,"duration":0.30510738958332695},{"name":"C4","midi":60,"time":121.61284849999971,"velocity":0.5039370078740157,"duration":0.30510738958332695},{"name":"D#4","midi":63,"time":121.61284849999971,"velocity":0.5039370078740157,"duration":0.30510738958332695},{"name":"C5","midi":72,"time":121.61284849999971,"velocity":0.5039370078740157,"duration":0.30510738958332695},{"name":"D#5","midi":75,"time":121.61284849999971,"velocity":0.5039370078740157,"duration":0.30510738958332695},{"name":"C4","midi":60,"time":122.2580094999997,"velocity":0.5039370078740157,"duration":0.30510738958332695},{"name":"D#4","midi":63,"time":122.2580094999997,"velocity":0.5039370078740157,"duration":0.30510738958332695},{"name":"C5","midi":72,"time":122.2580094999997,"velocity":0.5039370078740157,"duration":0.30510738958332695},{"name":"D#5","midi":75,"time":122.2580094999997,"velocity":0.5039370078740157,"duration":0.30510738958332695},{"name":"A#3","midi":58,"time":122.90317049999969,"velocity":0.5039370078740157,"duration":0.30510738958332695},{"name":"D4","midi":62,"time":122.90317049999969,"velocity":0.5039370078740157,"duration":0.30510738958332695},{"name":"A#4","midi":70,"time":122.90317049999969,"velocity":0.5039370078740157,"duration":0.30510738958332695},{"name":"D5","midi":74,"time":122.90317049999969,"velocity":0.5039370078740157,"duration":0.30510738958332695},{"name":"A#3","midi":58,"time":123.54833149999968,"velocity":0.5039370078740157,"duration":0.30510738958332695},{"name":"D4","midi":62,"time":123.54833149999968,"velocity":0.5039370078740157,"duration":0.30510738958332695},{"name":"A#4","midi":70,"time":123.54833149999968,"velocity":0.5039370078740157,"duration":0.30510738958332695},{"name":"D5","midi":74,"time":123.54833149999968,"velocity":0.5039370078740157,"duration":0.30510738958332695},{"name":"D#4","midi":63,"time":124.19349249999966,"velocity":0.5039370078740157,"duration":0.30510738958332695},{"name":"G4","midi":67,"time":124.19349249999966,"velocity":0.5039370078740157,"duration":0.30510738958332695},{"name":"D#5","midi":75,"time":124.19349249999966,"velocity":0.5039370078740157,"duration":0.30510738958332695},{"name":"G5","midi":79,"time":124.19349249999966,"velocity":0.5039370078740157,"duration":0.30510738958332695},{"name":"D#4","midi":63,"time":124.83865349999965,"velocity":0.5039370078740157,"duration":0.30510738958332695},{"name":"G4","midi":67,"time":124.83865349999965,"velocity":0.5039370078740157,"duration":0.30510738958332695},{"name":"D#5","midi":75,"time":124.83865349999965,"velocity":0.5039370078740157,"duration":0.30510738958332695},{"name":"G5","midi":79,"time":124.83865349999965,"velocity":0.5039370078740157,"duration":0.30510738958332695},{"name":"D4","midi":62,"time":125.48381449999964,"velocity":0.5039370078740157,"duration":0.30510738958332695},{"name":"F4","midi":65,"time":125.48381449999964,"velocity":0.5039370078740157,"duration":0.30510738958332695},{"name":"D5","midi":74,"time":125.48381449999964,"velocity":0.5039370078740157,"duration":0.30510738958332695},{"name":"F5","midi":77,"time":125.48381449999964,"velocity":0.5039370078740157,"duration":0.30510738958332695},{"name":"D4","midi":62,"time":126.12897549999963,"velocity":0.5039370078740157,"duration":0.30510738958332695},{"name":"F4","midi":65,"time":126.12897549999963,"velocity":0.5039370078740157,"duration":0.30510738958332695},{"name":"D5","midi":74,"time":126.12897549999963,"velocity":0.5039370078740157,"duration":0.30510738958332695},{"name":"F5","midi":77,"time":126.12897549999963,"velocity":0.5039370078740157,"duration":0.30510738958332695},{"name":"C4","midi":60,"time":126.77413649999961,"velocity":0.5039370078740157,"duration":0.30510738958332695},{"name":"D#4","midi":63,"time":126.77413649999961,"velocity":0.5039370078740157,"duration":0.30510738958332695},{"name":"C5","midi":72,"time":126.77413649999961,"velocity":0.5039370078740157,"duration":0.30510738958332695},{"name":"D#5","midi":75,"time":126.77413649999961,"velocity":0.5039370078740157,"duration":0.30510738958332695},{"name":"C4","midi":60,"time":127.4192974999996,"velocity":0.5039370078740157,"duration":0.30510738958332695},{"name":"D#4","midi":63,"time":127.4192974999996,"velocity":0.5039370078740157,"duration":0.30510738958332695},{"name":"C5","midi":72,"time":127.4192974999996,"velocity":0.5039370078740157,"duration":0.30510738958332695},{"name":"D#5","midi":75,"time":127.4192974999996,"velocity":0.5039370078740157,"duration":0.30510738958332695},{"name":"G#3","midi":56,"time":170.32250399999958,"velocity":0.5039370078740157,"duration":2.579299914583345},{"name":"C4","midi":60,"time":170.32250399999958,"velocity":0.5039370078740157,"duration":2.579299914583345},{"name":"D#4","midi":63,"time":170.32250399999958,"velocity":0.5039370078740157,"duration":2.579299914583345},{"name":"G#4","midi":68,"time":170.32250399999958,"velocity":0.5039370078740157,"duration":2.579299914583345},{"name":"C5","midi":72,"time":170.32250399999958,"velocity":0.5039370078740157,"duration":2.579299914583345},{"name":"C4","midi":60,"time":172.9031479999996,"velocity":0.5039370078740157,"duration":2.579299914583345},{"name":"D#4","midi":63,"time":172.9031479999996,"velocity":0.5039370078740157,"duration":2.579299914583345},{"name":"C5","midi":72,"time":172.9031479999996,"velocity":0.5039370078740157,"duration":2.579299914583345},{"name":"D#5","midi":75,"time":172.9031479999996,"velocity":0.5039370078740157,"duration":2.579299914583345},{"name":"G#3","midi":56,"time":175.4837919999996,"velocity":0.5039370078740157,"duration":1.2889779145833415},{"name":"C4","midi":60,"time":175.4837919999996,"velocity":0.5039370078740157,"duration":1.2889779145833415},{"name":"D#4","midi":63,"time":175.4837919999996,"velocity":0.5039370078740157,"duration":1.2889779145833415},{"name":"G#4","midi":68,"time":175.4837919999996,"velocity":0.5039370078740157,"duration":1.2889779145833415},{"name":"C5","midi":72,"time":175.4837919999996,"velocity":0.5039370078740157,"duration":1.2889779145833415},{"name":"A#3","midi":58,"time":176.7741139999996,"velocity":0.5039370078740157,"duration":0.9180103395833328},{"name":"D4","midi":62,"time":176.7741139999996,"velocity":0.5039370078740157,"duration":0.9180103395833328},{"name":"G4","midi":67,"time":176.7741139999996,"velocity":0.5039370078740157,"duration":0.9180103395833328},{"name":"D5","midi":74,"time":176.7741139999996,"velocity":0.5039370078740157,"duration":0.9180103395833328},{"name":"D#4","midi":63,"time":177.7418554999996,"velocity":0.5039370078740157,"duration":2.756719189583322},{"name":"G4","midi":67,"time":177.7418554999996,"velocity":0.5039370078740157,"duration":2.756719189583322},{"name":"C5","midi":72,"time":177.7418554999996,"velocity":0.5039370078740157,"duration":2.756719189583322},{"name":"D#5","midi":75,"time":177.7418554999996,"velocity":0.5039370078740157,"duration":2.756719189583322},{"name":"G3","midi":55,"time":195.16120249999958,"velocity":0.6299212598425197,"duration":0.30510738958332695},{"name":"G4","midi":67,"time":195.16120249999958,"velocity":0.6299212598425197,"duration":0.30510738958332695},{"name":"G5","midi":79,"time":195.16120249999958,"velocity":0.6299212598425197,"duration":0.30510738958332695},{"name":"G#3","midi":56,"time":195.48378299999956,"velocity":0.6299212598425197,"duration":0.30510738958332695},{"name":"G#4","midi":68,"time":195.48378299999956,"velocity":0.6299212598425197,"duration":0.30510738958332695},{"name":"G#5","midi":80,"time":195.48378299999956,"velocity":0.6299212598425197,"duration":0.30510738958332695},{"name":"G3","midi":55,"time":195.80636349999955,"velocity":0.6299212598425197,"duration":0.30510738958332695},{"name":"G4","midi":67,"time":195.80636349999955,"velocity":0.6299212598425197,"duration":0.30510738958332695},{"name":"G5","midi":79,"time":195.80636349999955,"velocity":0.6299212598425197,"duration":0.30510738958332695},{"name":"G3","midi":55,"time":196.12894399999954,"velocity":0.6299212598425197,"duration":0.30510738958332695},{"name":"G4","midi":67,"time":196.12894399999954,"velocity":0.6299212598425197,"duration":0.30510738958332695},{"name":"G5","midi":79,"time":196.12894399999954,"velocity":0.6299212598425197,"duration":0.30510738958332695},{"name":"G3","midi":55,"time":196.45152449999952,"velocity":0.6299212598425197,"duration":0.1518816520833468},{"name":"G4","midi":67,"time":196.45152449999952,"velocity":0.6299212598425197,"duration":0.1518816520833468},{"name":"G5","midi":79,"time":196.45152449999952,"velocity":0.6299212598425197,"duration":0.1518816520833468},{"name":"F3","midi":53,"time":196.61281474999953,"velocity":0.6299212598425197,"duration":0.1518816520833468},{"name":"F4","midi":65,"time":196.61281474999953,"velocity":0.6299212598425197,"duration":0.1518816520833468},{"name":"F5","midi":77,"time":196.61281474999953,"velocity":0.6299212598425197,"duration":0.1518816520833468},{"name":"D#3","midi":51,"time":196.77410499999954,"velocity":0.6299212598425197,"duration":0.6115588645833441},{"name":"D#4","midi":63,"time":196.77410499999954,"velocity":0.6299212598425197,"duration":0.6115588645833441},{"name":"D#5","midi":75,"time":196.77410499999954,"velocity":0.6299212598425197,"duration":0.6115588645833441},{"name":"G3","midi":55,"time":205.48377849999954,"velocity":0.6299212598425197,"duration":0.30510738958332695},{"name":"G4","midi":67,"time":205.48377849999954,"velocity":0.6299212598425197,"duration":0.30510738958332695},{"name":"G5","midi":79,"time":205.48377849999954,"velocity":0.6299212598425197,"duration":0.30510738958332695},{"name":"G#3","midi":56,"time":205.80635899999953,"velocity":0.6299212598425197,"duration":0.30510738958332695},{"name":"G#4","midi":68,"time":205.80635899999953,"velocity":0.6299212598425197,"duration":0.30510738958332695},{"name":"G#5","midi":80,"time":205.80635899999953,"velocity":0.6299212598425197,"duration":0.30510738958332695},{"name":"G3","midi":55,"time":206.12893949999952,"velocity":0.6299212598425197,"duration":0.30510738958332695},{"name":"G4","midi":67,"time":206.12893949999952,"velocity":0.6299212598425197,"duration":0.30510738958332695},{"name":"G5","midi":79,"time":206.12893949999952,"velocity":0.6299212598425197,"duration":0.30510738958332695},{"name":"G3","midi":55,"time":206.4515199999995,"velocity":0.6299212598425197,"duration":0.30510738958332695},{"name":"G4","midi":67,"time":206.4515199999995,"velocity":0.6299212598425197,"duration":0.30510738958332695},{"name":"G5","midi":79,"time":206.4515199999995,"velocity":0.6299212598425197,"duration":0.30510738958332695},{"name":"G3","midi":55,"time":206.7741004999995,"velocity":0.6299212598425197,"duration":0.1518816520833468},{"name":"G4","midi":67,"time":206.7741004999995,"velocity":0.6299212598425197,"duration":0.1518816520833468},{"name":"G5","midi":79,"time":206.7741004999995,"velocity":0.6299212598425197,"duration":0.1518816520833468},{"name":"F3","midi":53,"time":206.9353907499995,"velocity":0.6299212598425197,"duration":0.1518816520833468},{"name":"F4","midi":65,"time":206.9353907499995,"velocity":0.6299212598425197,"duration":0.1518816520833468},{"name":"F5","midi":77,"time":206.9353907499995,"velocity":0.6299212598425197,"duration":0.1518816520833468},{"name":"D#3","midi":51,"time":207.0966809999995,"velocity":0.6299212598425197,"duration":0.6115588645833441},{"name":"D#4","midi":63,"time":207.0966809999995,"velocity":0.6299212598425197,"duration":0.6115588645833441},{"name":"D#5","midi":75,"time":207.0966809999995,"velocity":0.6299212598425197,"duration":0.6115588645833441}]},{"instrument_number":-1,"notes":[{"name":"D#3","midi":51,"time":87.096735,"velocity":0.7559055118110236,"duration":0.1518816520833326},{"name":"D#3","midi":51,"time":87.25802524999999,"velocity":0.7559055118110236,"duration":0.1518816520833326},{"name":"D3","midi":50,"time":87.41931549999998,"velocity":0.7559055118110236,"duration":0.1518816520833326},{"name":"D#3","midi":51,"time":87.58060574999998,"velocity":0.7559055118110236,"duration":0.1518816520833326},{"name":"D3","midi":50,"time":87.74189599999997,"velocity":0.7559055118110236,"duration":0.1518816520833326},{"name":"C3","midi":48,"time":87.90318624999996,"velocity":0.7559055118110236,"duration":0.6115588645833299},{"name":"D3","midi":50,"time":89.99995949999996,"velocity":0.7559055118110236,"duration":0.1518816520833326},{"name":"D#3","midi":51,"time":90.16124974999995,"velocity":0.7559055118110236,"duration":0.1518816520833326},{"name":"D3","midi":50,"time":90.32253999999995,"velocity":0.7559055118110236,"duration":0.1518816520833326},{"name":"C3","midi":48,"time":90.48383024999994,"velocity":0.7559055118110236,"duration":0.6115588645833299},{"name":"D#3","midi":51,"time":92.25802299999994,"velocity":0.7559055118110236,"duration":0.1518816520833326},{"name":"D#3","midi":51,"time":92.41931324999993,"velocity":0.7559055118110236,"duration":0.1518816520833326},{"name":"D3","midi":50,"time":92.58060349999992,"velocity":0.7559055118110236,"duration":0.1518816520833326},{"name":"D#3","midi":51,"time":92.74189374999992,"velocity":0.7559055118110236,"duration":0.1518816520833326},{"name":"D3","midi":50,"time":92.90318399999991,"velocity":0.7559055118110236,"duration":0.1518816520833326},{"name":"C3","midi":48,"time":93.0644742499999,"velocity":0.7559055118110236,"duration":0.6115588645833299},{"name":"D3","midi":50,"time":95.1612474999999,"velocity":0.7559055118110236,"duration":0.1518816520833326},{"name":"D#3","midi":51,"time":95.3225377499999,"velocity":0.7559055118110236,"duration":0.1518816520833326},{"name":"D3","midi":50,"time":95.48382799999989,"velocity":0.7559055118110236,"duration":0.1518816520833326},{"name":"C3","midi":48,"time":95.64511824999988,"velocity":0.7559055118110236,"duration":0.4583331270833355},{"name":"D3","midi":50,"time":96.12898899999989,"velocity":0.7559055118110236,"duration":0.1518816520833326},{"name":"C3","midi":48,"time":96.29027924999988,"velocity":0.7559055118110236,"duration":0.4583331270833355},{"name":"D3","midi":50,"time":96.77414999999989,"velocity":0.7559055118110236,"duration":0.1518816520833326},{"name":"C3","midi":48,"time":96.93544024999989,"velocity":0.7559055118110236,"duration":0.4583331270833355},{"name":"D#3","midi":51,"time":97.4193109999999,"velocity":0.7559055118110236,"duration":0.1518816520833326},{"name":"D#3","midi":51,"time":97.58060124999989,"velocity":0.7559055118110236,"duration":0.1518816520833326},{"name":"D3","midi":50,"time":97.74189149999988,"velocity":0.7559055118110236,"duration":0.1518816520833326},{"name":"D#3","midi":51,"time":97.90318174999987,"velocity":0.7559055118110236,"duration":0.1518816520833326},{"name":"D3","midi":50,"time":98.06447199999987,"velocity":0.7559055118110236,"duration":0.1518816520833326},{"name":"C3","midi":48,"time":98.22576224999986,"velocity":0.7559055118110236,"duration":0.6115588645833299},{"name":"D3","midi":50,"time":100.32253549999986,"velocity":0.7559055118110236,"duration":0.1518816520833326},{"name":"D#3","midi":51,"time":100.48382574999985,"velocity":0.7559055118110236,"duration":0.1518816520833326},{"name":"D3","midi":50,"time":100.64511599999985,"velocity":0.7559055118110236,"duration":0.1518816520833326},{"name":"C3","midi":48,"time":100.80640624999984,"velocity":0.7559055118110236,"duration":0.6115588645833299},{"name":"D#3","midi":51,"time":102.58059899999984,"velocity":0.7559055118110236,"duration":0.1518816520833326},{"name":"D#3","midi":51,"time":102.74188924999983,"velocity":0.7559055118110236,"duration":0.1518816520833326},{"name":"D3","midi":50,"time":102.90317949999982,"velocity":0.7559055118110236,"duration":0.1518816520833326},{"name":"D#3","midi":51,"time":103.06446974999982,"velocity":0.7559055118110236,"duration":0.1518816520833326},{"name":"D3","midi":50,"time":103.22575999999981,"velocity":0.7559055118110236,"duration":0.1518816520833326},{"name":"C3","midi":48,"time":103.3870502499998,"velocity":0.7559055118110236,"duration":0.6115588645833299},{"name":"D3","midi":50,"time":105.4838234999998,"velocity":0.7559055118110236,"duration":0.1518816520833326},{"name":"D#3","midi":51,"time":105.6451137499998,"velocity":0.7559055118110236,"duration":0.1518816520833326},{"name":"D3","midi":50,"time":105.80640399999979,"velocity":0.7559055118110236,"duration":0.1518816520833326},{"name":"C3","midi":48,"time":105.96769424999978,"velocity":0.7559055118110236,"duration":0.4583331270833355},{"name":"D3","midi":50,"time":106.45156499999979,"velocity":0.7559055118110236,"duration":0.1518816520833326},{"name":"C3","midi":48,"time":106.61285524999978,"velocity":0.7559055118110236,"duration":0.4583331270833355},{"name":"D3","midi":50,"time":107.09672599999979,"velocity":0.7559055118110236,"duration":0.1518816520833326},{"name":"C3","midi":48,"time":107.25801624999978,"velocity":0.7559055118110236,"duration":0.4583331270833355},{"name":"D#3","midi":51,"time":149.03219099999978,"velocity":0.7559055118110236,"duration":0.1518816520833468},{"name":"D#3","midi":51,"time":149.1934812499998,"velocity":0.7559055118110236,"duration":0.1518816520833468},{"name":"D3","midi":50,"time":149.3547714999998,"velocity":0.7559055118110236,"duration":0.1518816520833468},{"name":"D#3","midi":51,"time":149.5160617499998,"velocity":0.7559055118110236,"duration":0.1518816520833468},{"name":"D3","midi":50,"time":149.67735199999981,"velocity":0.7559055118110236,"duration":0.1518816520833468},{"name":"C3","midi":48,"time":149.83864224999982,"velocity":0.7559055118110236,"duration":0.6115588645833441},{"name":"D3","midi":50,"time":151.93541549999983,"velocity":0.7559055118110236,"duration":0.1518816520833468},{"name":"D#3","midi":51,"time":152.09670574999984,"velocity":0.7559055118110236,"duration":0.1518816520833468},{"name":"D3","midi":50,"time":152.25799599999985,"velocity":0.7559055118110236,"duration":0.1518816520833468},{"name":"C3","midi":48,"time":152.41928624999986,"velocity":0.7559055118110236,"duration":0.6115588645833441},{"name":"D#3","midi":51,"time":154.19347899999985,"velocity":0.7559055118110236,"duration":0.1518816520833468},{"name":"D#3","midi":51,"time":154.35476924999986,"velocity":0.7559055118110236,"duration":0.1518816520833468},{"name":"D3","midi":50,"time":154.51605949999987,"velocity":0.7559055118110236,"duration":0.1518816520833468},{"name":"D#3","midi":51,"time":154.67734974999988,"velocity":0.7559055118110236,"duration":0.1518816520833468},{"name":"D3","midi":50,"time":154.83863999999988,"velocity":0.7559055118110236,"duration":0.1518816520833468},{"name":"C3","midi":48,"time":154.9999302499999,"velocity":0.7559055118110236,"duration":0.6115588645833441},{"name":"D3","midi":50,"time":157.0967034999999,"velocity":0.7559055118110236,"duration":0.1518816520833468},{"name":"D#3","midi":51,"time":157.2579937499999,"velocity":0.7559055118110236,"duration":0.1518816520833468},{"name":"D3","midi":50,"time":157.41928399999992,"velocity":0.7559055118110236,"duration":0.1518816520833468},{"name":"C3","midi":48,"time":157.58057424999993,"velocity":0.7559055118110236,"duration":0.4583331270833355},{"name":"D3","midi":50,"time":158.06444499999992,"velocity":0.7559055118110236,"duration":0.1518816520833468},{"name":"C3","midi":48,"time":158.22573524999993,"velocity":0.7559055118110236,"duration":0.4583331270833355},{"name":"D3","midi":50,"time":158.70960599999992,"velocity":0.7559055118110236,"duration":0.1518816520833468},{"name":"C3","midi":48,"time":158.87089624999993,"velocity":0.7559055118110236,"duration":0.4583331270833355},{"name":"D#3","midi":51,"time":159.35476699999992,"velocity":0.7559055118110236,"duration":0.1518816520833468},{"name":"D#3","midi":51,"time":159.51605724999993,"velocity":0.7559055118110236,"duration":0.1518816520833468},{"name":"D3","midi":50,"time":159.67734749999994,"velocity":0.7559055118110236,"duration":0.1518816520833468},{"name":"D#3","midi":51,"time":159.83863774999995,"velocity":0.7559055118110236,"duration":0.1518816520833468},{"name":"D3","midi":50,"time":159.99992799999995,"velocity":0.7559055118110236,"duration":0.1518816520833468},{"name":"C3","midi":48,"time":160.16121824999996,"velocity":0.7559055118110236,"duration":0.6115588645833441},{"name":"D3","midi":50,"time":162.25799149999997,"velocity":0.7559055118110236,"duration":0.1518816520833468},{"name":"D#3","midi":51,"time":162.41928174999998,"velocity":0.7559055118110236,"duration":0.1518816520833468},{"name":"D3","midi":50,"time":162.580572,"velocity":0.7559055118110236,"duration":0.1518816520833468},{"name":"C3","midi":48,"time":162.74186225,"velocity":0.7559055118110236,"duration":0.6115588645833441},{"name":"D#3","midi":51,"time":164.516055,"velocity":0.7559055118110236,"duration":0.1518816520833468},{"name":"D#3","midi":51,"time":164.67734525,"velocity":0.7559055118110236,"duration":0.1518816520833468},{"name":"D3","midi":50,"time":164.8386355,"velocity":0.7559055118110236,"duration":0.1518816520833468},{"name":"D#3","midi":51,"time":164.99992575000002,"velocity":0.7559055118110236,"duration":0.1518816520833468},{"name":"D3","midi":50,"time":165.16121600000002,"velocity":0.7559055118110236,"duration":0.1518816520833468},{"name":"C3","midi":48,"time":165.32250625000003,"velocity":0.7559055118110236,"duration":0.6115588645833441},{"name":"D3","midi":50,"time":167.41927950000004,"velocity":0.7559055118110236,"duration":0.1518816520833468},{"name":"D#3","midi":51,"time":167.58056975000005,"velocity":0.7559055118110236,"duration":0.1518816520833468},{"name":"D3","midi":50,"time":167.74186000000006,"velocity":0.7559055118110236,"duration":0.1518816520833468},{"name":"C3","midi":48,"time":167.90315025000007,"velocity":0.7559055118110236,"duration":0.4583331270833355},{"name":"D3","midi":50,"time":168.38702100000006,"velocity":0.7559055118110236,"duration":0.1518816520833468},{"name":"C3","midi":48,"time":168.54831125000007,"velocity":0.7559055118110236,"duration":0.4583331270833355},{"name":"D3","midi":50,"time":169.03218200000006,"velocity":0.7559055118110236,"duration":0.1518816520833468},{"name":"C3","midi":48,"time":169.19347225000007,"velocity":0.7559055118110236,"duration":0.4583331270833355},{"name":"F2","midi":41,"time":180.64508000000006,"velocity":0.6299212598425197,"duration":2.450267714583333},{"name":"F3","midi":53,"time":180.64508000000006,"velocity":0.6299212598425197,"duration":2.450267714583333},{"name":"D#2","midi":39,"time":183.22572400000007,"velocity":0.6299212598425197,"duration":2.450267714583333},{"name":"D#3","midi":51,"time":183.22572400000007,"velocity":0.6299212598425197,"duration":2.450267714583333}]},{"instrument_number":44,"notes":[{"name":"G4","midi":67,"time":1.290322,"velocity":0.12598425196850394,"duration":1.2889779145833333},{"name":"G5","midi":79,"time":1.290322,"velocity":0.12598425196850394,"duration":3.869621914583334},{"name":"G4","midi":67,"time":2.580644,"velocity":0.25984251968503935,"duration":1.288977914583333},{"name":"G4","midi":67,"time":3.8709659999999997,"velocity":0.3858267716535433,"duration":0.6438169145833332},{"name":"G4","midi":67,"time":4.516127,"velocity":0.5039370078740157,"duration":0.6438169145833337},{"name":"D#4","midi":63,"time":15.483864,"velocity":0.5039370078740157,"duration":0.15994616458333333},{"name":"G4","midi":67,"time":15.483864,"velocity":0.5039370078740157,"duration":0.15994616458333333},{"name":"D#5","midi":75,"time":15.483864,"velocity":0.5039370078740157,"duration":0.15994616458333333},{"name":"G5","midi":79,"time":15.483864,"velocity":0.5039370078740157,"duration":0.15994616458333333},{"name":"D#4","midi":63,"time":15.96773475,"velocity":0.5039370078740157,"duration":0.48252666458333415},{"name":"G4","midi":67,"time":15.96773475,"velocity":0.5039370078740157,"duration":0.48252666458333415},{"name":"D#5","midi":75,"time":15.96773475,"velocity":0.5039370078740157,"duration":0.48252666458333415},{"name":"G5","midi":79,"time":15.96773475,"velocity":0.5039370078740157,"duration":0.48252666458333415},{"name":"D#4","midi":63,"time":16.4516055,"velocity":0.5039370078740157,"duration":0.0793010395833349},{"name":"G4","midi":67,"time":16.4516055,"velocity":0.5039370078740157,"duration":0.0793010395833349},{"name":"D#5","midi":75,"time":16.4516055,"velocity":0.5039370078740157,"duration":0.0793010395833349},{"name":"G5","midi":79,"time":16.4516055,"velocity":0.5039370078740157,"duration":0.0793010395833349},{"name":"D4","midi":62,"time":16.774186,"velocity":0.5039370078740157,"duration":0.15994616458333155},{"name":"F4","midi":65,"time":16.774186,"velocity":0.5039370078740157,"duration":0.15994616458333155},{"name":"D5","midi":74,"time":16.774186,"velocity":0.5039370078740157,"duration":0.15994616458333155},{"name":"F5","midi":77,"time":16.774186,"velocity":0.5039370078740157,"duration":0.15994616458333155},{"name":"D4","midi":62,"time":17.258056749999998,"velocity":0.5039370078740157,"duration":0.4825266645833324},{"name":"F4","midi":65,"time":17.258056749999998,"velocity":0.5039370078740157,"duration":0.4825266645833324},{"name":"D5","midi":74,"time":17.258056749999998,"velocity":0.5039370078740157,"duration":0.4825266645833324},{"name":"F5","midi":77,"time":17.258056749999998,"velocity":0.5039370078740157,"duration":0.4825266645833324},{"name":"D4","midi":62,"time":17.741927499999996,"velocity":0.5039370078740157,"duration":0.0793010395833349},{"name":"F4","midi":65,"time":17.741927499999996,"velocity":0.5039370078740157,"duration":0.0793010395833349},{"name":"D5","midi":74,"time":17.741927499999996,"velocity":0.5039370078740157,"duration":0.0793010395833349},{"name":"F5","midi":77,"time":17.741927499999996,"velocity":0.5039370078740157,"duration":0.0793010395833349},{"name":"C4","midi":60,"time":18.064507999999996,"velocity":0.5039370078740157,"duration":0.15994616458333155},{"name":"D#4","midi":63,"time":18.064507999999996,"velocity":0.5039370078740157,"duration":0.15994616458333155},{"name":"C5","midi":72,"time":18.064507999999996,"velocity":0.5039370078740157,"duration":0.15994616458333155},{"name":"D#5","midi":75,"time":18.064507999999996,"velocity":0.5039370078740157,"duration":0.15994616458333155},{"name":"C4","midi":60,"time":18.548378749999994,"velocity":0.5039370078740157,"duration":0.4825266645833324},{"name":"D#4","midi":63,"time":18.548378749999994,"velocity":0.5039370078740157,"duration":0.4825266645833324},{"name":"C5","midi":72,"time":18.548378749999994,"velocity":0.5039370078740157,"duration":0.4825266645833324},{"name":"D#5","midi":75,"time":18.548378749999994,"velocity":0.5039370078740157,"duration":0.4825266645833324},{"name":"C4","midi":60,"time":19.032249499999992,"velocity":0.5039370078740157,"duration":0.0793010395833349},{"name":"D#4","midi":63,"time":19.032249499999992,"velocity":0.5039370078740157,"duration":0.0793010395833349},{"name":"C5","midi":72,"time":19.032249499999992,"velocity":0.5039370078740157,"duration":0.0793010395833349},{"name":"D#5","midi":75,"time":19.032249499999992,"velocity":0.5039370078740157,"duration":0.0793010395833349},{"name":"D4","midi":62,"time":19.354829999999993,"velocity":0.5039370078740157,"duration":0.15994616458333155},{"name":"F4","midi":65,"time":19.354829999999993,"velocity":0.5039370078740157,"duration":0.15994616458333155},{"name":"D5","midi":74,"time":19.354829999999993,"velocity":0.5039370078740157,"duration":0.15994616458333155},{"name":"F5","midi":77,"time":19.354829999999993,"velocity":0.5039370078740157,"duration":0.15994616458333155},{"name":"D4","midi":62,"time":19.83870074999999,"velocity":0.5039370078740157,"duration":0.4825266645833324},{"name":"F4","midi":65,"time":19.83870074999999,"velocity":0.5039370078740157,"duration":0.4825266645833324},{"name":"D5","midi":74,"time":19.83870074999999,"velocity":0.5039370078740157,"duration":0.4825266645833324},{"name":"F5","midi":77,"time":19.83870074999999,"velocity":0.5039370078740157,"duration":0.4825266645833324},{"name":"D4","midi":62,"time":20.322571499999988,"velocity":0.5039370078740157,"duration":0.0793010395833349},{"name":"F4","midi":65,"time":20.322571499999988,"velocity":0.5039370078740157,"duration":0.0793010395833349},{"name":"D5","midi":74,"time":20.322571499999988,"velocity":0.5039370078740157,"duration":0.0793010395833349},{"name":"F5","midi":77,"time":20.322571499999988,"velocity":0.5039370078740157,"duration":0.0793010395833349},{"name":"D#4","midi":63,"time":20.64515199999999,"velocity":0.5039370078740157,"duration":0.15994616458333155},{"name":"G4","midi":67,"time":20.64515199999999,"velocity":0.5039370078740157,"duration":0.15994616458333155},{"name":"D#5","midi":75,"time":20.64515199999999,"velocity":0.5039370078740157,"duration":0.15994616458333155},{"name":"G5","midi":79,"time":20.64515199999999,"velocity":0.5039370078740157,"duration":0.15994616458333155},{"name":"D#4","midi":63,"time":21.129022749999987,"velocity":0.5039370078740157,"duration":0.4825266645833324},{"name":"G4","midi":67,"time":21.129022749999987,"velocity":0.5039370078740157,"duration":0.4825266645833324},{"name":"D#5","midi":75,"time":21.129022749999987,"velocity":0.5039370078740157,"duration":0.4825266645833324},{"name":"G5","midi":79,"time":21.129022749999987,"velocity":0.5039370078740157,"duration":0.4825266645833324},{"name":"D#4","midi":63,"time":21.612893499999984,"velocity":0.5039370078740157,"duration":0.0793010395833349},{"name":"G4","midi":67,"time":21.612893499999984,"velocity":0.5039370078740157,"duration":0.0793010395833349},{"name":"D#5","midi":75,"time":21.612893499999984,"velocity":0.5039370078740157,"duration":0.0793010395833349},{"name":"G5","midi":79,"time":21.612893499999984,"velocity":0.5039370078740157,"duration":0.0793010395833349},{"name":"D4","midi":62,"time":21.935473999999985,"velocity":0.5039370078740157,"duration":0.15994616458333155},{"name":"F4","midi":65,"time":21.935473999999985,"velocity":0.5039370078740157,"duration":0.15994616458333155},{"name":"D5","midi":74,"time":21.935473999999985,"velocity":0.5039370078740157,"duration":0.15994616458333155},{"name":"F5","midi":77,"time":21.935473999999985,"velocity":0.5039370078740157,"duration":0.15994616458333155},{"name":"D4","midi":62,"time":22.419344749999983,"velocity":0.5039370078740157,"duration":0.4825266645833324},{"name":"F4","midi":65,"time":22.419344749999983,"velocity":0.5039370078740157,"duration":0.4825266645833324},{"name":"D5","midi":74,"time":22.419344749999983,"velocity":0.5039370078740157,"duration":0.4825266645833324},{"name":"F5","midi":77,"time":22.419344749999983,"velocity":0.5039370078740157,"duration":0.4825266645833324},{"name":"D4","midi":62,"time":22.90321549999998,"velocity":0.5039370078740157,"duration":0.0793010395833349},{"name":"F4","midi":65,"time":22.90321549999998,"velocity":0.5039370078740157,"duration":0.0793010395833349},{"name":"D5","midi":74,"time":22.90321549999998,"velocity":0.5039370078740157,"duration":0.0793010395833349},{"name":"F5","midi":77,"time":22.90321549999998,"velocity":0.5039370078740157,"duration":0.0793010395833349},{"name":"C4","midi":60,"time":33.87095249999999,"velocity":0.6299212598425197,"duration":0.6438169145833328},{"name":"C5","midi":72,"time":33.87095249999999,"velocity":0.6299212598425197,"duration":0.6438169145833328},{"name":"D#4","midi":63,"time":34.51611349999999,"velocity":0.6299212598425197,"duration":0.6438169145833328},{"name":"D#5","midi":75,"time":34.51611349999999,"velocity":0.6299212598425197,"duration":0.6438169145833328},{"name":"F4","midi":65,"time":35.16127449999999,"velocity":0.6299212598425197,"duration":0.6438169145833328},{"name":"F5","midi":77,"time":35.16127449999999,"velocity":0.6299212598425197,"duration":0.6438169145833328},{"name":"G4","midi":67,"time":35.80643549999999,"velocity":0.6299212598425197,"duration":0.32123641458333196},{"name":"G5","midi":79,"time":35.80643549999999,"velocity":0.6299212598425197,"duration":0.32123641458333196},{"name":"D#4","midi":63,"time":56.77416799999999,"velocity":0.5984251968503937,"duration":0.43010733333333206},{"name":"C5","midi":72,"time":56.77416799999999,"velocity":0.5984251968503937,"duration":0.43010733333333206},{"name":"D4","midi":62,"time":58.064489999999985,"velocity":0.5984251968503937,"duration":0.43010733333333206},{"name":"A#4","midi":70,"time":58.064489999999985,"velocity":0.5984251968503937,"duration":0.43010733333333206},{"name":"C4","midi":60,"time":59.35481199999998,"velocity":0.5984251968503937,"duration":0.43010733333333206},{"name":"G#4","midi":68,"time":59.35481199999998,"velocity":0.5984251968503937,"duration":0.43010733333333206},{"name":"D#4","midi":63,"time":61.93545599999998,"velocity":0.5984251968503937,"duration":0.43010733333333206},{"name":"C5","midi":72,"time":61.93545599999998,"velocity":0.5984251968503937,"duration":0.43010733333333206},{"name":"D4","midi":62,"time":63.22577799999998,"velocity":0.5984251968503937,"duration":0.43010733333333206},{"name":"A#4","midi":70,"time":63.22577799999998,"velocity":0.5984251968503937,"duration":0.43010733333333206},{"name":"C4","midi":60,"time":64.51609999999998,"velocity":0.4566929133858268,"duration":0.43010733333333917},{"name":"G#4","midi":68,"time":64.51609999999998,"velocity":0.4566929133858268,"duration":0.43010733333333917},{"name":"D#4","midi":63,"time":77.41931999999998,"velocity":0.5039370078740157,"duration":0.15994616458333155},{"name":"G4","midi":67,"time":77.41931999999998,"velocity":0.5039370078740157,"duration":0.15994616458333155},{"name":"D#5","midi":75,"time":77.41931999999998,"velocity":0.5039370078740157,"duration":0.15994616458333155},{"name":"G5","midi":79,"time":77.41931999999998,"velocity":0.5039370078740157,"duration":0.15994616458333155},{"name":"D#4","midi":63,"time":77.90319074999998,"velocity":0.5039370078740157,"duration":0.4825266645833324},{"name":"G4","midi":67,"time":77.90319074999998,"velocity":0.5039370078740157,"duration":0.4825266645833324},{"name":"D#5","midi":75,"time":77.90319074999998,"velocity":0.5039370078740157,"duration":0.4825266645833324},{"name":"G5","midi":79,"time":77.90319074999998,"velocity":0.5039370078740157,"duration":0.4825266645833324},{"name":"D#4","midi":63,"time":78.38706149999997,"velocity":0.5039370078740157,"duration":0.07930103958332779},{"name":"G4","midi":67,"time":78.38706149999997,"velocity":0.5039370078740157,"duration":0.07930103958332779},{"name":"D#5","midi":75,"time":78.38706149999997,"velocity":0.5039370078740157,"duration":0.07930103958332779},{"name":"G5","midi":79,"time":78.38706149999997,"velocity":0.5039370078740157,"duration":0.07930103958332779},{"name":"D4","midi":62,"time":78.70964199999997,"velocity":0.5039370078740157,"duration":0.15994616458333155},{"name":"F4","midi":65,"time":78.70964199999997,"velocity":0.5039370078740157,"duration":0.15994616458333155},{"name":"D5","midi":74,"time":78.70964199999997,"velocity":0.5039370078740157,"duration":0.15994616458333155},{"name":"F5","midi":77,"time":78.70964199999997,"velocity":0.5039370078740157,"duration":0.15994616458333155},{"name":"D4","midi":62,"time":79.19351274999997,"velocity":0.5039370078740157,"duration":0.4825266645833324},{"name":"F4","midi":65,"time":79.19351274999997,"velocity":0.5039370078740157,"duration":0.4825266645833324},{"name":"D5","midi":74,"time":79.19351274999997,"velocity":0.5039370078740157,"duration":0.4825266645833324},{"name":"F5","midi":77,"time":79.19351274999997,"velocity":0.5039370078740157,"duration":0.4825266645833324},{"name":"D4","midi":62,"time":79.67738349999996,"velocity":0.5039370078740157,"duration":0.07930103958332779},{"name":"F4","midi":65,"time":79.67738349999996,"velocity":0.5039370078740157,"duration":0.07930103958332779},{"name":"D5","midi":74,"time":79.67738349999996,"velocity":0.5039370078740157,"duration":0.07930103958332779},{"name":"F5","midi":77,"time":79.67738349999996,"velocity":0.5039370078740157,"duration":0.07930103958332779},{"name":"C4","midi":60,"time":79.99996399999996,"velocity":0.5039370078740157,"duration":0.15994616458333155},{"name":"D#4","midi":63,"time":79.99996399999996,"velocity":0.5039370078740157,"duration":0.15994616458333155},{"name":"C5","midi":72,"time":79.99996399999996,"velocity":0.5039370078740157,"duration":0.15994616458333155},{"name":"D#5","midi":75,"time":79.99996399999996,"velocity":0.5039370078740157,"duration":0.15994616458333155},{"name":"C4","midi":60,"time":80.48383474999996,"velocity":0.5039370078740157,"duration":0.4825266645833324},{"name":"D#4","midi":63,"time":80.48383474999996,"velocity":0.5039370078740157,"duration":0.4825266645833324},{"name":"C5","midi":72,"time":80.48383474999996,"velocity":0.5039370078740157,"duration":0.4825266645833324},{"name":"D#5","midi":75,"time":80.48383474999996,"velocity":0.5039370078740157,"duration":0.4825266645833324},{"name":"C4","midi":60,"time":80.96770549999995,"velocity":0.5039370078740157,"duration":0.07930103958332779},{"name":"D#4","midi":63,"time":80.96770549999995,"velocity":0.5039370078740157,"duration":0.07930103958332779},{"name":"C5","midi":72,"time":80.96770549999995,"velocity":0.5039370078740157,"duration":0.07930103958332779},{"name":"D#5","midi":75,"time":80.96770549999995,"velocity":0.5039370078740157,"duration":0.07930103958332779},{"name":"D4","midi":62,"time":81.29028599999995,"velocity":0.5039370078740157,"duration":0.15994616458333155},{"name":"F4","midi":65,"time":81.29028599999995,"velocity":0.5039370078740157,"duration":0.15994616458333155},{"name":"D5","midi":74,"time":81.29028599999995,"velocity":0.5039370078740157,"duration":0.15994616458333155},{"name":"F5","midi":77,"time":81.29028599999995,"velocity":0.5039370078740157,"duration":0.15994616458333155},{"name":"D4","midi":62,"time":81.77415674999995,"velocity":0.5039370078740157,"duration":0.4825266645833324},{"name":"F4","midi":65,"time":81.77415674999995,"velocity":0.5039370078740157,"duration":0.4825266645833324},{"name":"D5","midi":74,"time":81.77415674999995,"velocity":0.5039370078740157,"duration":0.4825266645833324},{"name":"F5","midi":77,"time":81.77415674999995,"velocity":0.5039370078740157,"duration":0.4825266645833324},{"name":"D4","midi":62,"time":82.25802749999994,"velocity":0.5039370078740157,"duration":0.07930103958332779},{"name":"F4","midi":65,"time":82.25802749999994,"velocity":0.5039370078740157,"duration":0.07930103958332779},{"name":"D5","midi":74,"time":82.25802749999994,"velocity":0.5039370078740157,"duration":0.07930103958332779},{"name":"F5","midi":77,"time":82.25802749999994,"velocity":0.5039370078740157,"duration":0.07930103958332779},{"name":"D#4","midi":63,"time":82.58060799999994,"velocity":0.5039370078740157,"duration":0.15994616458333155},{"name":"G4","midi":67,"time":82.58060799999994,"velocity":0.5039370078740157,"duration":0.15994616458333155},{"name":"D#5","midi":75,"time":82.58060799999994,"velocity":0.5039370078740157,"duration":0.15994616458333155},{"name":"G5","midi":79,"time":82.58060799999994,"velocity":0.5039370078740157,"duration":0.15994616458333155},{"name":"D#4","midi":63,"time":83.06447874999994,"velocity":0.5039370078740157,"duration":0.4825266645833324},{"name":"G4","midi":67,"time":83.06447874999994,"velocity":0.5039370078740157,"duration":0.4825266645833324},{"name":"D#5","midi":75,"time":83.06447874999994,"velocity":0.5039370078740157,"duration":0.4825266645833324},{"name":"G5","midi":79,"time":83.06447874999994,"velocity":0.5039370078740157,"duration":0.4825266645833324},{"name":"D#4","midi":63,"time":83.54834949999993,"velocity":0.5039370078740157,"duration":0.07930103958332779},{"name":"G4","midi":67,"time":83.54834949999993,"velocity":0.5039370078740157,"duration":0.07930103958332779},{"name":"D#5","midi":75,"time":83.54834949999993,"velocity":0.5039370078740157,"duration":0.07930103958332779},{"name":"G5","midi":79,"time":83.54834949999993,"velocity":0.5039370078740157,"duration":0.07930103958332779},{"name":"D4","midi":62,"time":83.87092999999993,"velocity":0.5039370078740157,"duration":0.15994616458333155},{"name":"F4","midi":65,"time":83.87092999999993,"velocity":0.5039370078740157,"duration":0.15994616458333155},{"name":"D5","midi":74,"time":83.87092999999993,"velocity":0.5039370078740157,"duration":0.15994616458333155},{"name":"F5","midi":77,"time":83.87092999999993,"velocity":0.5039370078740157,"duration":0.15994616458333155},{"name":"D4","midi":62,"time":84.35480074999992,"velocity":0.5039370078740157,"duration":0.4825266645833324},{"name":"F4","midi":65,"time":84.35480074999992,"velocity":0.5039370078740157,"duration":0.4825266645833324},{"name":"D5","midi":74,"time":84.35480074999992,"velocity":0.5039370078740157,"duration":0.4825266645833324},{"name":"F5","midi":77,"time":84.35480074999992,"velocity":0.5039370078740157,"duration":0.4825266645833324},{"name":"D4","midi":62,"time":84.83867149999992,"velocity":0.5039370078740157,"duration":0.07930103958332779},{"name":"F4","midi":65,"time":84.83867149999992,"velocity":0.5039370078740157,"duration":0.07930103958332779},{"name":"D5","midi":74,"time":84.83867149999992,"velocity":0.5039370078740157,"duration":0.07930103958332779},{"name":"F5","midi":77,"time":84.83867149999992,"velocity":0.5039370078740157,"duration":0.07930103958332779},{"name":"C4","midi":60,"time":85.16125199999992,"velocity":0.5039370078740157,"duration":0.15994616458333155},{"name":"D#4","midi":63,"time":85.16125199999992,"velocity":0.5039370078740157,"duration":0.15994616458333155},{"name":"C5","midi":72,"time":85.16125199999992,"velocity":0.5039370078740157,"duration":0.15994616458333155},{"name":"D#5","midi":75,"time":85.16125199999992,"velocity":0.5039370078740157,"duration":0.15994616458333155},{"name":"C4","midi":60,"time":85.64512274999991,"velocity":0.5039370078740157,"duration":0.4825266645833324},{"name":"D#4","midi":63,"time":85.64512274999991,"velocity":0.5039370078740157,"duration":0.4825266645833324},{"name":"C5","midi":72,"time":85.64512274999991,"velocity":0.5039370078740157,"duration":0.4825266645833324},{"name":"D#5","midi":75,"time":85.64512274999991,"velocity":0.5039370078740157,"duration":0.4825266645833324},{"name":"C4","midi":60,"time":86.12899349999991,"velocity":0.5039370078740157,"duration":0.07930103958332779},{"name":"D#4","midi":63,"time":86.12899349999991,"velocity":0.5039370078740157,"duration":0.07930103958332779},{"name":"C5","midi":72,"time":86.12899349999991,"velocity":0.5039370078740157,"duration":0.07930103958332779},{"name":"D#5","midi":75,"time":86.12899349999991,"velocity":0.5039370078740157,"duration":0.07930103958332779},{"name":"D4","midi":62,"time":86.45157399999991,"velocity":0.5039370078740157,"duration":0.15994616458333155},{"name":"F4","midi":65,"time":86.45157399999991,"velocity":0.5039370078740157,"duration":0.15994616458333155},{"name":"D5","midi":74,"time":86.45157399999991,"velocity":0.5039370078740157,"duration":0.15994616458333155},{"name":"F5","midi":77,"time":86.45157399999991,"velocity":0.5039370078740157,"duration":0.15994616458333155},{"name":"C4","midi":60,"time":95.8064084999999,"velocity":0.6299212598425197,"duration":0.6438169145833399},{"name":"C5","midi":72,"time":95.8064084999999,"velocity":0.6299212598425197,"duration":0.6438169145833399},{"name":"D#4","midi":63,"time":96.4515694999999,"velocity":0.6299212598425197,"duration":0.6438169145833399},{"name":"D#5","midi":75,"time":96.4515694999999,"velocity":0.6299212598425197,"duration":0.6438169145833399},{"name":"F4","midi":65,"time":97.09673049999991,"velocity":0.6299212598425197,"duration":0.6438169145833399},{"name":"F5","midi":77,"time":97.09673049999991,"velocity":0.6299212598425197,"duration":0.6438169145833399},{"name":"G4","midi":67,"time":97.74189149999991,"velocity":0.6299212598425197,"duration":0.32123641458333907},{"name":"G5","midi":79,"time":97.74189149999991,"velocity":0.6299212598425197,"duration":0.32123641458333907},{"name":"C4","midi":60,"time":106.12898449999992,"velocity":0.6299212598425197,"duration":0.6438169145833399},{"name":"C5","midi":72,"time":106.12898449999992,"velocity":0.6299212598425197,"duration":0.6438169145833399},{"name":"D#4","midi":63,"time":106.77414549999992,"velocity":0.6299212598425197,"duration":0.6438169145833399},{"name":"D#5","midi":75,"time":106.77414549999992,"velocity":0.6299212598425197,"duration":0.6438169145833399},{"name":"F4","midi":65,"time":107.41930649999992,"velocity":0.6299212598425197,"duration":0.6438169145833399},{"name":"F5","midi":77,"time":107.41930649999992,"velocity":0.6299212598425197,"duration":0.6438169145833399},{"name":"G4","midi":67,"time":108.06446749999992,"velocity":0.6299212598425197,"duration":0.32123641458333907},{"name":"G5","midi":79,"time":108.06446749999992,"velocity":0.6299212598425197,"duration":0.32123641458333907},{"name":"D#4","midi":63,"time":118.70962399999993,"velocity":0.5984251968503937,"duration":0.43010733333333917},{"name":"C5","midi":72,"time":118.70962399999993,"velocity":0.5984251968503937,"duration":0.43010733333333917},{"name":"D#4","midi":63,"time":119.67736549999994,"velocity":0.5039370078740157,"duration":0.32123641458333907},{"name":"C5","midi":72,"time":119.67736549999994,"velocity":0.5039370078740157,"duration":0.32123641458333907},{"name":"D4","midi":62,"time":119.99994599999994,"velocity":0.5984251968503937,"duration":0.43010733333333917},{"name":"A#4","midi":70,"time":119.99994599999994,"velocity":0.5984251968503937,"duration":0.43010733333333917},{"name":"D4","midi":62,"time":120.96768749999994,"velocity":0.5039370078740157,"duration":0.32123641458333907},{"name":"A#4","midi":70,"time":120.96768749999994,"velocity":0.5039370078740157,"duration":0.32123641458333907},{"name":"C4","midi":60,"time":121.29026799999994,"velocity":0.5984251968503937,"duration":0.43010733333333917},{"name":"G#4","midi":68,"time":121.29026799999994,"velocity":0.5984251968503937,"duration":0.43010733333333917},{"name":"D#4","midi":63,"time":123.87091199999995,"velocity":0.5984251968503937,"duration":0.43010733333333917},{"name":"C5","midi":72,"time":123.87091199999995,"velocity":0.5984251968503937,"duration":0.43010733333333917},{"name":"D#4","midi":63,"time":124.83865349999995,"velocity":0.5039370078740157,"duration":0.32123641458333907},{"name":"C5","midi":72,"time":124.83865349999995,"velocity":0.5039370078740157,"duration":0.32123641458333907},{"name":"D4","midi":62,"time":125.16123399999995,"velocity":0.5984251968503937,"duration":0.43010733333333917},{"name":"A#4","midi":70,"time":125.16123399999995,"velocity":0.5984251968503937,"duration":0.43010733333333917},{"name":"D4","midi":62,"time":126.12897549999995,"velocity":0.5039370078740157,"duration":0.32123641458333907},{"name":"A#4","midi":70,"time":126.12897549999995,"velocity":0.5039370078740157,"duration":0.32123641458333907},{"name":"C4","midi":60,"time":126.45155599999995,"velocity":0.4566929133858268,"duration":0.43010733333333917},{"name":"G#4","midi":68,"time":126.45155599999995,"velocity":0.4566929133858268,"duration":0.43010733333333917},{"name":"D#4","midi":63,"time":139.35477599999996,"velocity":0.5039370078740157,"duration":0.15994616458334576},{"name":"G4","midi":67,"time":139.35477599999996,"velocity":0.5039370078740157,"duration":0.15994616458334576},{"name":"D#5","midi":75,"time":139.35477599999996,"velocity":0.5039370078740157,"duration":0.15994616458334576},{"name":"G5","midi":79,"time":139.35477599999996,"velocity":0.5039370078740157,"duration":0.15994616458334576},{"name":"D#4","midi":63,"time":139.83864674999998,"velocity":0.5039370078740157,"duration":0.4825266645833324},{"name":"G4","midi":67,"time":139.83864674999998,"velocity":0.5039370078740157,"duration":0.4825266645833324},{"name":"D#5","midi":75,"time":139.83864674999998,"velocity":0.5039370078740157,"duration":0.4825266645833324},{"name":"G5","midi":79,"time":139.83864674999998,"velocity":0.5039370078740157,"duration":0.4825266645833324},{"name":"D#4","midi":63,"time":140.32251749999998,"velocity":0.5039370078740157,"duration":0.07930103958332779},{"name":"G4","midi":67,"time":140.32251749999998,"velocity":0.5039370078740157,"duration":0.07930103958332779},{"name":"D#5","midi":75,"time":140.32251749999998,"velocity":0.5039370078740157,"duration":0.07930103958332779},{"name":"G5","midi":79,"time":140.32251749999998,"velocity":0.5039370078740157,"duration":0.07930103958332779},{"name":"D4","midi":62,"time":140.64509799999996,"velocity":0.5039370078740157,"duration":0.15994616458334576},{"name":"F4","midi":65,"time":140.64509799999996,"velocity":0.5039370078740157,"duration":0.15994616458334576},{"name":"D5","midi":74,"time":140.64509799999996,"velocity":0.5039370078740157,"duration":0.15994616458334576},{"name":"F5","midi":77,"time":140.64509799999996,"velocity":0.5039370078740157,"duration":0.15994616458334576},{"name":"D4","midi":62,"time":141.12896874999998,"velocity":0.5039370078740157,"duration":0.4825266645833324},{"name":"F4","midi":65,"time":141.12896874999998,"velocity":0.5039370078740157,"duration":0.4825266645833324},{"name":"D5","midi":74,"time":141.12896874999998,"velocity":0.5039370078740157,"duration":0.4825266645833324},{"name":"F5","midi":77,"time":141.12896874999998,"velocity":0.5039370078740157,"duration":0.4825266645833324},{"name":"D4","midi":62,"time":141.61283949999998,"velocity":0.5039370078740157,"duration":0.07930103958332779},{"name":"F4","midi":65,"time":141.61283949999998,"velocity":0.5039370078740157,"duration":0.07930103958332779},{"name":"D5","midi":74,"time":141.61283949999998,"velocity":0.5039370078740157,"duration":0.07930103958332779},{"name":"F5","midi":77,"time":141.61283949999998,"velocity":0.5039370078740157,"duration":0.07930103958332779},{"name":"C4","midi":60,"time":141.93541999999997,"velocity":0.5039370078740157,"duration":0.15994616458334576},{"name":"D#4","midi":63,"time":141.93541999999997,"velocity":0.5039370078740157,"duration":0.15994616458334576},{"name":"C5","midi":72,"time":141.93541999999997,"velocity":0.5039370078740157,"duration":0.15994616458334576},{"name":"D#5","midi":75,"time":141.93541999999997,"velocity":0.5039370078740157,"duration":0.15994616458334576},{"name":"C4","midi":60,"time":142.41929075,"velocity":0.5039370078740157,"duration":0.4825266645833324},{"name":"D#4","midi":63,"time":142.41929075,"velocity":0.5039370078740157,"duration":0.4825266645833324},{"name":"C5","midi":72,"time":142.41929075,"velocity":0.5039370078740157,"duration":0.4825266645833324},{"name":"D#5","midi":75,"time":142.41929075,"velocity":0.5039370078740157,"duration":0.4825266645833324},{"name":"C4","midi":60,"time":142.90316149999998,"velocity":0.5039370078740157,"duration":0.07930103958332779},{"name":"D#4","midi":63,"time":142.90316149999998,"velocity":0.5039370078740157,"duration":0.07930103958332779},{"name":"C5","midi":72,"time":142.90316149999998,"velocity":0.5039370078740157,"duration":0.07930103958332779},{"name":"D#5","midi":75,"time":142.90316149999998,"velocity":0.5039370078740157,"duration":0.07930103958332779},{"name":"D4","midi":62,"time":143.22574199999997,"velocity":0.5039370078740157,"duration":0.15994616458334576},{"name":"F4","midi":65,"time":143.22574199999997,"velocity":0.5039370078740157,"duration":0.15994616458334576},{"name":"D5","midi":74,"time":143.22574199999997,"velocity":0.5039370078740157,"duration":0.15994616458334576},{"name":"F5","midi":77,"time":143.22574199999997,"velocity":0.5039370078740157,"duration":0.15994616458334576},{"name":"D4","midi":62,"time":143.70961275,"velocity":0.5039370078740157,"duration":0.4825266645833324},{"name":"F4","midi":65,"time":143.70961275,"velocity":0.5039370078740157,"duration":0.4825266645833324},{"name":"D5","midi":74,"time":143.70961275,"velocity":0.5039370078740157,"duration":0.4825266645833324},{"name":"F5","midi":77,"time":143.70961275,"velocity":0.5039370078740157,"duration":0.4825266645833324},{"name":"D4","midi":62,"time":144.19348349999999,"velocity":0.5039370078740157,"duration":0.07930103958332779},{"name":"F4","midi":65,"time":144.19348349999999,"velocity":0.5039370078740157,"duration":0.07930103958332779},{"name":"D5","midi":74,"time":144.19348349999999,"velocity":0.5039370078740157,"duration":0.07930103958332779},{"name":"F5","midi":77,"time":144.19348349999999,"velocity":0.5039370078740157,"duration":0.07930103958332779},{"name":"D#4","midi":63,"time":144.51606399999997,"velocity":0.5039370078740157,"duration":0.15994616458334576},{"name":"G4","midi":67,"time":144.51606399999997,"velocity":0.5039370078740157,"duration":0.15994616458334576},{"name":"D#5","midi":75,"time":144.51606399999997,"velocity":0.5039370078740157,"duration":0.15994616458334576},{"name":"G5","midi":79,"time":144.51606399999997,"velocity":0.5039370078740157,"duration":0.15994616458334576},{"name":"D#4","midi":63,"time":144.99993475,"velocity":0.5039370078740157,"duration":0.4825266645833324},{"name":"G4","midi":67,"time":144.99993475,"velocity":0.5039370078740157,"duration":0.4825266645833324},{"name":"D#5","midi":75,"time":144.99993475,"velocity":0.5039370078740157,"duration":0.4825266645833324},{"name":"G5","midi":79,"time":144.99993475,"velocity":0.5039370078740157,"duration":0.4825266645833324},{"name":"D#4","midi":63,"time":145.4838055,"velocity":0.5039370078740157,"duration":0.07930103958332779},{"name":"G4","midi":67,"time":145.4838055,"velocity":0.5039370078740157,"duration":0.07930103958332779},{"name":"D#5","midi":75,"time":145.4838055,"velocity":0.5039370078740157,"duration":0.07930103958332779},{"name":"G5","midi":79,"time":145.4838055,"velocity":0.5039370078740157,"duration":0.07930103958332779},{"name":"D4","midi":62,"time":145.80638599999997,"velocity":0.5039370078740157,"duration":0.15994616458334576},{"name":"F4","midi":65,"time":145.80638599999997,"velocity":0.5039370078740157,"duration":0.15994616458334576},{"name":"D5","midi":74,"time":145.80638599999997,"velocity":0.5039370078740157,"duration":0.15994616458334576},{"name":"F5","midi":77,"time":145.80638599999997,"velocity":0.5039370078740157,"duration":0.15994616458334576},{"name":"D4","midi":62,"time":146.29025675,"velocity":0.5039370078740157,"duration":0.4825266645833324},{"name":"F4","midi":65,"time":146.29025675,"velocity":0.5039370078740157,"duration":0.4825266645833324},{"name":"D5","midi":74,"time":146.29025675,"velocity":0.5039370078740157,"duration":0.4825266645833324},{"name":"F5","midi":77,"time":146.29025675,"velocity":0.5039370078740157,"duration":0.4825266645833324},{"name":"D4","midi":62,"time":146.7741275,"velocity":0.5039370078740157,"duration":0.07930103958332779},{"name":"F4","midi":65,"time":146.7741275,"velocity":0.5039370078740157,"duration":0.07930103958332779},{"name":"D5","midi":74,"time":146.7741275,"velocity":0.5039370078740157,"duration":0.07930103958332779},{"name":"F5","midi":77,"time":146.7741275,"velocity":0.5039370078740157,"duration":0.07930103958332779},{"name":"C4","midi":60,"time":147.09670799999998,"velocity":0.5039370078740157,"duration":0.15994616458334576},{"name":"D#4","midi":63,"time":147.09670799999998,"velocity":0.5039370078740157,"duration":0.15994616458334576},{"name":"C5","midi":72,"time":147.09670799999998,"velocity":0.5039370078740157,"duration":0.15994616458334576},{"name":"D#5","midi":75,"time":147.09670799999998,"velocity":0.5039370078740157,"duration":0.15994616458334576},{"name":"C4","midi":60,"time":147.58057875,"velocity":0.5039370078740157,"duration":0.4825266645833324},{"name":"D#4","midi":63,"time":147.58057875,"velocity":0.5039370078740157,"duration":0.4825266645833324},{"name":"C5","midi":72,"time":147.58057875,"velocity":0.5039370078740157,"duration":0.4825266645833324},{"name":"D#5","midi":75,"time":147.58057875,"velocity":0.5039370078740157,"duration":0.4825266645833324},{"name":"C4","midi":60,"time":148.0644495,"velocity":0.5039370078740157,"duration":0.07930103958332779},{"name":"D#4","midi":63,"time":148.0644495,"velocity":0.5039370078740157,"duration":0.07930103958332779},{"name":"C5","midi":72,"time":148.0644495,"velocity":0.5039370078740157,"duration":0.07930103958332779},{"name":"D#5","midi":75,"time":148.0644495,"velocity":0.5039370078740157,"duration":0.07930103958332779},{"name":"D4","midi":62,"time":148.38702999999998,"velocity":0.5039370078740157,"duration":0.15994616458334576},{"name":"F4","midi":65,"time":148.38702999999998,"velocity":0.5039370078740157,"duration":0.15994616458334576},{"name":"D5","midi":74,"time":148.38702999999998,"velocity":0.5039370078740157,"duration":0.15994616458334576},{"name":"F5","midi":77,"time":148.38702999999998,"velocity":0.5039370078740157,"duration":0.15994616458334576},{"name":"C4","midi":60,"time":157.7418645,"velocity":0.6299212598425197,"duration":0.6438169145833399},{"name":"C5","midi":72,"time":157.7418645,"velocity":0.6299212598425197,"duration":0.6438169145833399},{"name":"D#4","midi":63,"time":158.3870255,"velocity":0.6299212598425197,"duration":0.6438169145833399},{"name":"D#5","midi":75,"time":158.3870255,"velocity":0.6299212598425197,"duration":0.6438169145833399},{"name":"F4","midi":65,"time":159.0321865,"velocity":0.6299212598425197,"duration":0.6438169145833399},{"name":"F5","midi":77,"time":159.0321865,"velocity":0.6299212598425197,"duration":0.6438169145833399},{"name":"G4","midi":67,"time":159.6773475,"velocity":0.6299212598425197,"duration":0.32123641458332486},{"name":"G5","midi":79,"time":159.6773475,"velocity":0.6299212598425197,"duration":0.32123641458332486},{"name":"C4","midi":60,"time":168.0644405,"velocity":0.6299212598425197,"duration":0.6438169145833399},{"name":"C5","midi":72,"time":168.0644405,"velocity":0.6299212598425197,"duration":0.6438169145833399},{"name":"D#4","midi":63,"time":168.7096015,"velocity":0.6299212598425197,"duration":0.6438169145833399},{"name":"D#5","midi":75,"time":168.7096015,"velocity":0.6299212598425197,"duration":0.6438169145833399},{"name":"F4","midi":65,"time":169.3547625,"velocity":0.6299212598425197,"duration":0.6438169145833399},{"name":"F5","midi":77,"time":169.3547625,"velocity":0.6299212598425197,"duration":0.6438169145833399},{"name":"G4","midi":67,"time":169.9999235,"velocity":0.6299212598425197,"duration":0.32123641458332486},{"name":"G5","midi":79,"time":169.9999235,"velocity":0.6299212598425197,"duration":0.32123641458332486},{"name":"C4","midi":60,"time":199.03216849999998,"velocity":0.6299212598425197,"duration":0.6438169145833399},{"name":"C5","midi":72,"time":199.03216849999998,"velocity":0.6299212598425197,"duration":0.6438169145833399},{"name":"D#4","midi":63,"time":199.67732949999998,"velocity":0.6299212598425197,"duration":0.6438169145833399},{"name":"D#5","midi":75,"time":199.67732949999998,"velocity":0.6299212598425197,"duration":0.6438169145833399},{"name":"F4","midi":65,"time":200.3224905,"velocity":0.6299212598425197,"duration":0.6438169145833399},{"name":"F5","midi":77,"time":200.3224905,"velocity":0.6299212598425197,"duration":0.6438169145833399},{"name":"G4","midi":67,"time":200.9676515,"velocity":0.6299212598425197,"duration":0.32123641458332486},{"name":"G5","midi":79,"time":200.9676515,"velocity":0.6299212598425197,"duration":0.32123641458332486},{"name":"C4","midi":60,"time":209.35474449999998,"velocity":0.6299212598425197,"duration":0.6438169145833399},{"name":"C5","midi":72,"time":209.35474449999998,"velocity":0.6299212598425197,"duration":0.6438169145833399},{"name":"D#4","midi":63,"time":209.99990549999998,"velocity":0.6299212598425197,"duration":0.6438169145833399},{"name":"D#5","midi":75,"time":209.99990549999998,"velocity":0.6299212598425197,"duration":0.6438169145833399},{"name":"F4","midi":65,"time":210.64506649999998,"velocity":0.6299212598425197,"duration":0.6438169145833399},{"name":"F5","midi":77,"time":210.64506649999998,"velocity":0.6299212598425197,"duration":0.6438169145833399},{"name":"G4","midi":67,"time":211.2902275,"velocity":0.6299212598425197,"duration":0.32123641458332486},{"name":"G5","midi":79,"time":211.2902275,"velocity":0.6299212598425197,"duration":0.32123641458332486}]},{"instrument_number":72,"notes":[{"name":"A#5","midi":82,"time":179.83862875,"velocity":0.6299212598425197,"duration":0.15994616458334576},{"name":"C6","midi":84,"time":179.999919,"velocity":0.6299212598425197,"duration":0.15994616458334576},{"name":"C6","midi":84,"time":180.16120925,"velocity":0.6299212598425197,"duration":0.15994616458334576},{"name":"D#6","midi":87,"time":180.32249950000002,"velocity":0.6299212598425197,"duration":0.15994616458334576},{"name":"C6","midi":84,"time":180.48378975000003,"velocity":0.6299212598425197,"duration":0.15994616458334576},{"name":"G6","midi":91,"time":180.64508000000004,"velocity":0.6299212598425197,"duration":0.32123641458332486},{"name":"D#6","midi":87,"time":180.96766050000002,"velocity":0.6299212598425197,"duration":0.15994616458334576},{"name":"D#6","midi":87,"time":181.12895075000003,"velocity":0.6299212598425197,"duration":0.32123641458332486},{"name":"C6","midi":84,"time":181.45153125000002,"velocity":0.6299212598425197,"duration":0.15994616458334576},{"name":"D#6","midi":87,"time":181.61282150000002,"velocity":0.6299212598425197,"duration":0.32123641458332486},{"name":"C6","midi":84,"time":181.935402,"velocity":0.6299212598425197,"duration":0.4825266645833324},{"name":"C6","midi":84,"time":182.580563,"velocity":0.6299212598425197,"duration":0.15994616458334576},{"name":"C6","midi":84,"time":182.74185325000002,"velocity":0.6299212598425197,"duration":0.15994616458334576},{"name":"D#6","midi":87,"time":182.90314350000003,"velocity":0.6299212598425197,"duration":0.15994616458334576},{"name":"C6","midi":84,"time":183.06443375000003,"velocity":0.6299212598425197,"duration":0.15994616458334576},{"name":"G6","midi":91,"time":183.22572400000004,"velocity":0.6299212598425197,"duration":0.32123641458332486},{"name":"D#6","midi":87,"time":183.54830450000003,"velocity":0.6299212598425197,"duration":0.15994616458334576},{"name":"D#6","midi":87,"time":183.70959475000004,"velocity":0.6299212598425197,"duration":0.32123641458332486},{"name":"C6","midi":84,"time":184.03217525000002,"velocity":0.6299212598425197,"duration":0.15994616458334576},{"name":"D#6","midi":87,"time":184.19346550000003,"velocity":0.6299212598425197,"duration":0.32123641458332486},{"name":"F6","midi":89,"time":184.51604600000002,"velocity":0.6299212598425197,"duration":0.4825266645833324},{"name":"A#5","midi":82,"time":185.32249725000003,"velocity":0.6299212598425197,"duration":0.15994616458334576},{"name":"A#5","midi":82,"time":185.48378750000003,"velocity":0.6299212598425197,"duration":0.15994616458334576},{"name":"C6","midi":84,"time":185.64507775000004,"velocity":0.6299212598425197,"duration":0.15994616458334576},{"name":"G6","midi":91,"time":185.80636800000005,"velocity":0.6299212598425197,"duration":0.32123641458332486},{"name":"F6","midi":89,"time":186.12894850000004,"velocity":0.6299212598425197,"duration":0.15994616458334576},{"name":"F6","midi":89,"time":186.29023875000004,"velocity":0.6299212598425197,"duration":0.32123641458332486},{"name":"D#6","midi":87,"time":186.61281925000003,"velocity":0.6299212598425197,"duration":0.15994616458334576},{"name":"D#6","midi":87,"time":186.77410950000004,"velocity":0.6299212598425197,"duration":0.32123641458332486},{"name":"G6","midi":91,"time":187.09669000000002,"velocity":0.6299212598425197,"duration":0.32123641458332486},{"name":"F6","midi":89,"time":187.4192705,"velocity":0.6299212598425197,"duration":0.15994616458334576},{"name":"F6","midi":89,"time":187.58056075000002,"velocity":0.6299212598425197,"duration":0.32123641458332486},{"name":"D#6","midi":87,"time":187.90314125,"velocity":0.6299212598425197,"duration":0.15994616458334576},{"name":"D#6","midi":87,"time":188.0644315,"velocity":0.6299212598425197,"duration":0.32123641458332486},{"name":"G6","midi":91,"time":188.387012,"velocity":0.6299212598425197,"duration":0.32123641458332486},{"name":"F6","midi":89,"time":188.70959249999999,"velocity":0.6299212598425197,"duration":0.15994616458334576},{"name":"F6","midi":89,"time":188.87088275,"velocity":0.6299212598425197,"duration":0.32123641458332486},{"name":"D#6","midi":87,"time":189.19346324999998,"velocity":0.6299212598425197,"duration":0.15994616458334576},{"name":"F6","midi":89,"time":189.3547535,"velocity":0.6299212598425197,"duration":0.32123641458332486},{"name":"G6","midi":91,"time":189.67733399999997,"velocity":0.6299212598425197,"duration":0.32123641458332486},{"name":"C7","midi":96,"time":190.32249499999998,"velocity":0.6299212598425197,"duration":0.32123641458332486}]},{"instrument_number":73,"notes":[{"name":"C5","midi":72,"time":4.35483675,"velocity":0.6299212598425197,"duration":0.30510738958333317},{"name":"C5","midi":72,"time":4.6774172499999995,"velocity":0.6299212598425197,"duration":0.15188165208333348},{"name":"G5","midi":79,"time":4.8387075,"velocity":0.6299212598425197,"duration":0.30510738958333317},{"name":"F5","midi":77,"time":5.161288,"velocity":0.6299212598425197,"duration":0.30510738958333317},{"name":"G5","midi":79,"time":5.4838685,"velocity":0.6299212598425197,"duration":0.45833312708333374},{"name":"C5","midi":72,"time":6.7741905000000004,"velocity":0.6299212598425197,"duration":0.15188165208333348},{"name":"C5","midi":72,"time":6.935480750000001,"velocity":0.6299212598425197,"duration":0.30510738958333317},{"name":"C5","midi":72,"time":7.258061250000001,"velocity":0.6299212598425197,"duration":0.15188165208333348},{"name":"G5","midi":79,"time":7.419351500000001,"velocity":0.6299212598425197,"duration":0.30510738958333317},{"name":"F5","midi":77,"time":7.741932000000001,"velocity":0.6299212598425197,"duration":0.45833312708333285},{"name":"G5","midi":79,"time":8.225802750000001,"velocity":0.6299212598425197,"duration":0.45833312708333374},{"name":"F5","midi":77,"time":8.709673500000003,"velocity":0.6299212598425197,"duration":0.45833312708333374},{"name":"D#5","midi":75,"time":9.677415000000003,"velocity":0.6299212598425197,"duration":0.30510738958333405},{"name":"D#5","midi":75,"time":9.999995500000004,"velocity":0.6299212598425197,"duration":0.30510738958333405},{"name":"C6","midi":84,"time":10.322576000000005,"velocity":0.6299212598425197,"duration":0.15994616458333333},{"name":"A#5","midi":82,"time":10.483866250000005,"velocity":0.6299212598425197,"duration":0.15994616458333333},{"name":"G5","midi":79,"time":10.645156500000006,"velocity":0.6299212598425197,"duration":0.15994616458333333},{"name":"A#5","midi":82,"time":10.806446750000006,"velocity":0.6299212598425197,"duration":0.30510738958333405},{"name":"G5","midi":79,"time":11.129027250000007,"velocity":0.6299212598425197,"duration":0.1518816520833326},{"name":"F5","midi":77,"time":11.290317500000006,"velocity":0.6299212598425197,"duration":0.1518816520833326},{"name":"G5","midi":79,"time":11.451607750000004,"velocity":0.6299212598425197,"duration":0.1518816520833326},{"name":"F5","midi":77,"time":11.612898000000003,"velocity":0.6299212598425197,"duration":0.30510738958333405},{"name":"D#5","midi":75,"time":11.935478500000004,"velocity":0.6299212598425197,"duration":0.30510738958333405},{"name":"C5","midi":72,"time":12.258059000000005,"velocity":0.6299212598425197,"duration":0.30510738958333405},{"name":"C6","midi":84,"time":12.903220000000005,"velocity":0.6299212598425197,"duration":0.15994616458333333},{"name":"A#5","midi":82,"time":13.064510250000005,"velocity":0.6299212598425197,"duration":0.15994616458333333},{"name":"G5","midi":79,"time":13.225800500000005,"velocity":0.6299212598425197,"duration":0.15994616458333333},{"name":"A#5","midi":82,"time":13.387090750000006,"velocity":0.6299212598425197,"duration":0.30510738958333405},{"name":"G5","midi":79,"time":13.709671250000007,"velocity":0.6299212598425197,"duration":0.1518816520833326},{"name":"F5","midi":77,"time":13.870961500000005,"velocity":0.6299212598425197,"duration":0.1518816520833326},{"name":"G5","midi":79,"time":14.032251750000004,"velocity":0.6299212598425197,"duration":0.1518816520833326},{"name":"F5","midi":77,"time":14.193542000000003,"velocity":0.6299212598425197,"duration":0.45833312708333374},{"name":"C5","midi":72,"time":24.99998875,"velocity":0.6299212598425197,"duration":0.1518816520833326},{"name":"C5","midi":72,"time":25.161279,"velocity":0.6299212598425197,"duration":0.30510738958333405},{"name":"G5","midi":79,"time":25.4838595,"velocity":0.6299212598425197,"duration":0.30510738958333405},{"name":"F5","midi":77,"time":25.806440000000002,"velocity":0.6299212598425197,"duration":0.30510738958333405},{"name":"G5","midi":79,"time":26.129020500000003,"velocity":0.6299212598425197,"duration":0.45833312708333196},{"name":"C5","midi":72,"time":128.22574875,"velocity":0.6299212598425197,"duration":0.1518816520833468},{"name":"C5","midi":72,"time":128.38703900000002,"velocity":0.6299212598425197,"duration":0.30510738958332695},{"name":"G5","midi":79,"time":128.7096195,"velocity":0.6299212598425197,"duration":0.30510738958332695},{"name":"F5","midi":77,"time":129.0322,"velocity":0.6299212598425197,"duration":0.30510738958332695},{"name":"G5","midi":79,"time":129.35478049999998,"velocity":0.6299212598425197,"duration":0.4583331270833355},{"name":"C5","midi":72,"time":130.64510249999998,"velocity":0.6299212598425197,"duration":0.1518816520833468},{"name":"C5","midi":72,"time":130.80639275,"velocity":0.6299212598425197,"duration":0.30510738958332695},{"name":"C5","midi":72,"time":131.12897324999997,"velocity":0.6299212598425197,"duration":0.1518816520833468},{"name":"G5","midi":79,"time":131.29026349999998,"velocity":0.6299212598425197,"duration":0.30510738958332695},{"name":"F5","midi":77,"time":131.61284399999997,"velocity":0.6299212598425197,"duration":0.4583331270833355},{"name":"G5","midi":79,"time":132.09671474999996,"velocity":0.6299212598425197,"duration":0.4583331270833355},{"name":"F5","midi":77,"time":132.58058549999996,"velocity":0.6299212598425197,"duration":0.4583331270833355},{"name":"D#5","midi":75,"time":133.54832699999994,"velocity":0.6299212598425197,"duration":0.30510738958332695},{"name":"D#5","midi":75,"time":133.87090749999993,"velocity":0.6299212598425197,"duration":0.30510738958332695},{"name":"C6","midi":84,"time":134.19348799999992,"velocity":0.6299212598425197,"duration":0.15994616458334576},{"name":"A#5","midi":82,"time":134.35477824999992,"velocity":0.6299212598425197,"duration":0.15994616458334576},{"name":"G5","midi":79,"time":134.51606849999993,"velocity":0.6299212598425197,"duration":0.15994616458334576},{"name":"A#5","midi":82,"time":134.67735874999994,"velocity":0.6299212598425197,"duration":0.30510738958332695},{"name":"G5","midi":79,"time":134.99993924999993,"velocity":0.6299212598425197,"duration":0.1518816520833468},{"name":"F5","midi":77,"time":135.16122949999993,"velocity":0.6299212598425197,"duration":0.1518816520833468},{"name":"G5","midi":79,"time":135.32251974999994,"velocity":0.6299212598425197,"duration":0.1518816520833468},{"name":"F5","midi":77,"time":135.48380999999995,"velocity":0.6299212598425197,"duration":0.30510738958332695},{"name":"D#5","midi":75,"time":135.80639049999994,"velocity":0.6299212598425197,"duration":0.30510738958332695},{"name":"C5","midi":72,"time":136.12897099999992,"velocity":0.6299212598425197,"duration":0.30510738958332695},{"name":"C6","midi":84,"time":136.77413199999992,"velocity":0.6299212598425197,"duration":0.15994616458334576},{"name":"A#5","midi":82,"time":136.93542224999993,"velocity":0.6299212598425197,"duration":0.15994616458334576},{"name":"G5","midi":79,"time":137.09671249999994,"velocity":0.6299212598425197,"duration":0.15994616458334576},{"name":"A#5","midi":82,"time":137.25800274999995,"velocity":0.6299212598425197,"duration":0.30510738958332695},{"name":"G5","midi":79,"time":137.58058324999993,"velocity":0.6299212598425197,"duration":0.1518816520833468},{"name":"F5","midi":77,"time":137.74187349999994,"velocity":0.6299212598425197,"duration":0.1518816520833468},{"name":"G5","midi":79,"time":137.90316374999995,"velocity":0.6299212598425197,"duration":0.1518816520833468},{"name":"F5","midi":77,"time":138.06445399999996,"velocity":0.6299212598425197,"duration":0.4583331270833355},{"name":"C5","midi":72,"time":190.16120474999997,"velocity":0.6299212598425197,"duration":0.1518816520833468},{"name":"C5","midi":72,"time":190.32249499999998,"velocity":0.6299212598425197,"duration":0.30510738958332695},{"name":"G5","midi":79,"time":190.64507549999996,"velocity":0.6299212598425197,"duration":0.30510738958332695},{"name":"F5","midi":77,"time":190.96765599999995,"velocity":0.6299212598425197,"duration":0.30510738958332695},{"name":"G5","midi":79,"time":191.29023649999993,"velocity":0.6299212598425197,"duration":0.4583331270833355},{"name":"C5","midi":72,"time":200.48378074999994,"velocity":0.6299212598425197,"duration":0.1518816520833468},{"name":"C6","midi":84,"time":200.48378074999994,"velocity":0.6299212598425197,"duration":0.1518816520833468},{"name":"C5","midi":72,"time":200.64507099999994,"velocity":0.6299212598425197,"duration":0.30510738958332695},{"name":"C6","midi":84,"time":200.64507099999994,"velocity":0.6299212598425197,"duration":0.30510738958332695},{"name":"G5","midi":79,"time":200.96765149999993,"velocity":0.6299212598425197,"duration":0.30510738958332695},{"name":"G6","midi":91,"time":200.96765149999993,"velocity":0.6299212598425197,"duration":0.30510738958332695},{"name":"F5","midi":77,"time":201.29023199999992,"velocity":0.6299212598425197,"duration":0.30510738958332695},{"name":"F6","midi":89,"time":201.29023199999992,"velocity":0.6299212598425197,"duration":0.30510738958332695},{"name":"G5","midi":79,"time":201.6128124999999,"velocity":0.6299212598425197,"duration":0.6115588645833441},{"name":"G6","midi":91,"time":201.6128124999999,"velocity":0.6299212598425197,"duration":0.6115588645833441}]},{"instrument_number":68,"notes":[{"name":"C5","midi":72,"time":66.29029274999999,"velocity":0.6299212598425197,"duration":0.15994616458333155},{"name":"C5","midi":72,"time":66.45158299999999,"velocity":0.6299212598425197,"duration":0.32123641458333907},{"name":"G5","midi":79,"time":66.77416349999999,"velocity":0.6299212598425197,"duration":0.32123641458333907},{"name":"F5","midi":77,"time":67.09674399999999,"velocity":0.6299212598425197,"duration":0.32123641458333907},{"name":"G5","midi":79,"time":67.41932449999999,"velocity":0.6299212598425197,"duration":0.4825266645833324},{"name":"C5","midi":72,"time":68.70964649999999,"velocity":0.6299212598425197,"duration":0.15994616458333155},{"name":"C5","midi":72,"time":68.87093674999998,"velocity":0.6299212598425197,"duration":0.32123641458333907},{"name":"C5","midi":72,"time":69.19351724999999,"velocity":0.6299212598425197,"duration":0.15994616458333155},{"name":"G5","midi":79,"time":69.35480749999998,"velocity":0.6299212598425197,"duration":0.32123641458333907},{"name":"F5","midi":77,"time":69.67738799999998,"velocity":0.6299212598425197,"duration":0.4825266645833324},{"name":"G5","midi":79,"time":70.16125874999997,"velocity":0.6299212598425197,"duration":0.4825266645833324},{"name":"F5","midi":77,"time":70.64512949999997,"velocity":0.6299212598425197,"duration":0.4825266645833324},{"name":"D#5","midi":75,"time":71.61287099999997,"velocity":0.6299212598425197,"duration":0.32123641458333907},{"name":"D#5","midi":75,"time":71.93545149999997,"velocity":0.6299212598425197,"duration":0.32123641458333907},{"name":"C6","midi":84,"time":72.25803199999997,"velocity":0.6299212598425197,"duration":0.15994616458333155},{"name":"A#5","midi":82,"time":72.41932224999996,"velocity":0.6299212598425197,"duration":0.15994616458333155},{"name":"G5","midi":79,"time":72.58061249999996,"velocity":0.6299212598425197,"duration":0.15994616458333155},{"name":"A#5","midi":82,"time":72.74190274999995,"velocity":0.6299212598425197,"duration":0.32123641458333907},{"name":"G5","midi":79,"time":73.06448324999995,"velocity":0.6299212598425197,"duration":0.15994616458333155},{"name":"F5","midi":77,"time":73.22577349999995,"velocity":0.6299212598425197,"duration":0.15994616458333155},{"name":"G5","midi":79,"time":73.38706374999994,"velocity":0.6299212598425197,"duration":0.15994616458333155},{"name":"F5","midi":77,"time":73.54835399999993,"velocity":0.6299212598425197,"duration":0.32123641458333907},{"name":"D#5","midi":75,"time":73.87093449999993,"velocity":0.6299212598425197,"duration":0.32123641458333907},{"name":"C5","midi":72,"time":74.19351499999993,"velocity":0.6299212598425197,"duration":0.32123641458333907},{"name":"C6","midi":84,"time":74.83867599999994,"velocity":0.6299212598425197,"duration":0.15994616458333155},{"name":"A#5","midi":82,"time":74.99996624999993,"velocity":0.6299212598425197,"duration":0.15994616458333155},{"name":"G5","midi":79,"time":75.16125649999992,"velocity":0.6299212598425197,"duration":0.15994616458333155},{"name":"A#5","midi":82,"time":75.32254674999992,"velocity":0.6299212598425197,"duration":0.32123641458333907},{"name":"G5","midi":79,"time":75.64512724999992,"velocity":0.6299212598425197,"duration":0.15994616458333155},{"name":"F5","midi":77,"time":75.80641749999991,"velocity":0.6299212598425197,"duration":0.15994616458333155},{"name":"G5","midi":79,"time":75.9677077499999,"velocity":0.6299212598425197,"duration":0.15994616458333155},{"name":"F5","midi":77,"time":76.1289979999999,"velocity":0.6299212598425197,"duration":0.4825266645833324},{"name":"C5","midi":72,"time":138.5483247499999,"velocity":0.6299212598425197,"duration":0.15994616458334576},{"name":"C5","midi":72,"time":138.7096149999999,"velocity":0.6299212598425197,"duration":0.32123641458332486},{"name":"G5","midi":79,"time":139.0321954999999,"velocity":0.6299212598425197,"duration":0.32123641458332486},{"name":"F5","midi":77,"time":139.35477599999987,"velocity":0.6299212598425197,"duration":0.32123641458332486},{"name":"G5","midi":79,"time":139.67735649999986,"velocity":0.6299212598425197,"duration":0.4825266645833324},{"name":"C5","midi":72,"time":140.96767849999986,"velocity":0.6299212598425197,"duration":0.15994616458334576},{"name":"C5","midi":72,"time":141.12896874999987,"velocity":0.6299212598425197,"duration":0.32123641458332486},{"name":"C5","midi":72,"time":141.45154924999986,"velocity":0.6299212598425197,"duration":0.15994616458334576},{"name":"G5","midi":79,"time":141.61283949999986,"velocity":0.6299212598425197,"duration":0.32123641458332486},{"name":"F5","midi":77,"time":141.93541999999985,"velocity":0.6299212598425197,"duration":0.4825266645833324},{"name":"G5","midi":79,"time":142.41929074999985,"velocity":0.6299212598425197,"duration":0.4825266645833324},{"name":"F5","midi":77,"time":142.90316149999984,"velocity":0.6299212598425197,"duration":0.4825266645833324},{"name":"D#5","midi":75,"time":143.87090299999983,"velocity":0.6299212598425197,"duration":0.32123641458332486},{"name":"D#5","midi":75,"time":144.19348349999981,"velocity":0.6299212598425197,"duration":0.32123641458332486},{"name":"C6","midi":84,"time":144.5160639999998,"velocity":0.6299212598425197,"duration":0.15994616458334576},{"name":"A#5","midi":82,"time":144.6773542499998,"velocity":0.6299212598425197,"duration":0.15994616458334576},{"name":"G5","midi":79,"time":144.83864449999982,"velocity":0.6299212598425197,"duration":0.15994616458334576},{"name":"A#5","midi":82,"time":144.99993474999982,"velocity":0.6299212598425197,"duration":0.32123641458332486},{"name":"G5","midi":79,"time":145.3225152499998,"velocity":0.6299212598425197,"duration":0.15994616458334576},{"name":"F5","midi":77,"time":145.48380549999982,"velocity":0.6299212598425197,"duration":0.15994616458334576},{"name":"G5","midi":79,"time":145.64509574999983,"velocity":0.6299212598425197,"duration":0.15994616458334576},{"name":"F5","midi":77,"time":145.80638599999983,"velocity":0.6299212598425197,"duration":0.32123641458332486},{"name":"D#5","midi":75,"time":146.12896649999982,"velocity":0.6299212598425197,"duration":0.32123641458332486},{"name":"C5","midi":72,"time":146.4515469999998,"velocity":0.6299212598425197,"duration":0.32123641458332486},{"name":"C6","midi":84,"time":147.0967079999998,"velocity":0.6299212598425197,"duration":0.15994616458334576},{"name":"A#5","midi":82,"time":147.25799824999982,"velocity":0.6299212598425197,"duration":0.15994616458334576},{"name":"G5","midi":79,"time":147.41928849999982,"velocity":0.6299212598425197,"duration":0.15994616458334576},{"name":"A#5","midi":82,"time":147.58057874999983,"velocity":0.6299212598425197,"duration":0.32123641458332486},{"name":"G5","midi":79,"time":147.90315924999982,"velocity":0.6299212598425197,"duration":0.15994616458334576},{"name":"F5","midi":77,"time":148.06444949999982,"velocity":0.6299212598425197,"duration":0.15994616458334576},{"name":"G5","midi":79,"time":148.22573974999983,"velocity":0.6299212598425197,"duration":0.15994616458334576},{"name":"F5","midi":77,"time":148.38702999999984,"velocity":0.6299212598425197,"duration":0.4825266645833324},{"name":"C5","midi":72,"time":169.67734299999984,"velocity":0.7559055118110236,"duration":0.32123641458332486},{"name":"D5","midi":74,"time":169.99992349999982,"velocity":0.7559055118110236,"duration":0.32123641458332486},{"name":"D#5","midi":75,"time":170.3225039999998,"velocity":0.6299212598425197,"duration":0.32123641458332486},{"name":"D5","midi":74,"time":170.6450844999998,"velocity":0.6299212598425197,"duration":0.32123641458332486},{"name":"C5","midi":72,"time":170.96766499999978,"velocity":0.6299212598425197,"duration":0.32123641458332486},{"name":"A#4","midi":70,"time":171.29024549999977,"velocity":0.6299212598425197,"duration":0.32123641458332486},{"name":"G4","midi":67,"time":171.61282599999976,"velocity":0.6299212598425197,"duration":0.4825266645833324},{"name":"C5","midi":72,"time":172.09669674999975,"velocity":0.6299212598425197,"duration":0.4825266645833324},{"name":"C5","midi":72,"time":172.58056749999974,"velocity":0.6299212598425197,"duration":1.2889779145833415}]},{"instrument_number":64,"notes":[{"name":"C5","midi":72,"time":14.67741275,"velocity":0.6299212598425197,"duration":0.15994616458333333},{"name":"C5","midi":72,"time":14.838703,"velocity":0.6299212598425197,"duration":0.32123641458333374},{"name":"G5","midi":79,"time":15.161283500000001,"velocity":0.6299212598425197,"duration":0.32123641458333374},{"name":"F5","midi":77,"time":15.483864000000002,"velocity":0.6299212598425197,"duration":0.32123641458333374},{"name":"G5","midi":79,"time":15.806444500000003,"velocity":0.6299212598425197,"duration":0.48252666458333415},{"name":"C5","midi":72,"time":17.096766500000005,"velocity":0.6299212598425197,"duration":0.1599461645833351},{"name":"C5","midi":72,"time":17.258056750000005,"velocity":0.6299212598425197,"duration":0.32123641458333196},{"name":"C5","midi":72,"time":17.580637250000002,"velocity":0.6299212598425197,"duration":0.15994616458333155},{"name":"G5","midi":79,"time":17.7419275,"velocity":0.6299212598425197,"duration":0.32123641458333196},{"name":"F5","midi":77,"time":18.064507999999996,"velocity":0.6299212598425197,"duration":0.4825266645833324},{"name":"G5","midi":79,"time":18.548378749999994,"velocity":0.6299212598425197,"duration":0.4825266645833324},{"name":"F5","midi":77,"time":19.032249499999992,"velocity":0.6299212598425197,"duration":0.4825266645833324},{"name":"D#5","midi":75,"time":19.99999099999999,"velocity":0.6299212598425197,"duration":0.32123641458333196},{"name":"D#5","midi":75,"time":20.322571499999988,"velocity":0.6299212598425197,"duration":0.32123641458333196},{"name":"C6","midi":84,"time":20.645151999999985,"velocity":0.6299212598425197,"duration":0.1599461645833351},{"name":"A#5","midi":82,"time":20.806442249999986,"velocity":0.6299212598425197,"duration":0.1599461645833351},{"name":"G5","midi":79,"time":20.967732499999986,"velocity":0.6299212598425197,"duration":0.1599461645833351},{"name":"A#5","midi":82,"time":21.129022749999987,"velocity":0.6299212598425197,"duration":0.32123641458333196},{"name":"G5","midi":79,"time":21.451603249999984,"velocity":0.6299212598425197,"duration":0.15994616458333155},{"name":"F5","midi":77,"time":21.61289349999998,"velocity":0.6299212598425197,"duration":0.1599461645833351},{"name":"G5","midi":79,"time":21.77418374999998,"velocity":0.6299212598425197,"duration":0.1599461645833351},{"name":"F5","midi":77,"time":21.93547399999998,"velocity":0.6299212598425197,"duration":0.32123641458333196},{"name":"D#5","midi":75,"time":22.25805449999998,"velocity":0.6299212598425197,"duration":0.32123641458333196},{"name":"C5","midi":72,"time":22.580634999999976,"velocity":0.6299212598425197,"duration":0.32123641458333196},{"name":"C6","midi":84,"time":23.225795999999974,"velocity":0.6299212598425197,"duration":0.15994616458333155},{"name":"A#5","midi":82,"time":23.38708624999997,"velocity":0.6299212598425197,"duration":0.1599461645833351},{"name":"G5","midi":79,"time":23.54837649999997,"velocity":0.6299212598425197,"duration":0.1599461645833351},{"name":"A#5","midi":82,"time":23.709666749999972,"velocity":0.6299212598425197,"duration":0.32123641458333196},{"name":"G5","midi":79,"time":24.03224724999997,"velocity":0.6299212598425197,"duration":0.15994616458333155},{"name":"F5","midi":77,"time":24.193537499999966,"velocity":0.6299212598425197,"duration":0.1599461645833351},{"name":"G5","midi":79,"time":24.354827749999966,"velocity":0.6299212598425197,"duration":0.1599461645833351},{"name":"F5","midi":77,"time":24.516117999999967,"velocity":0.6299212598425197,"duration":0.4825266645833324},{"name":"A#4","midi":70,"time":51.61287999999996,"velocity":0.6299212598425197,"duration":0.21370958125000072},{"name":"G#4","midi":68,"time":51.82793366666663,"velocity":0.6299212598425197,"duration":0.21370958125000072},{"name":"G4","midi":67,"time":52.0429873333333,"velocity":0.6299212598425197,"duration":0.21370958125000072},{"name":"A#4","midi":70,"time":52.25804099999997,"velocity":0.6299212598425197,"duration":0.21370958125000072},{"name":"G#4","midi":68,"time":52.47309466666664,"velocity":0.6299212598425197,"duration":0.21370958125000072},{"name":"G4","midi":67,"time":52.68814833333331,"velocity":0.6299212598425197,"duration":0.21370958125000072},{"name":"F4","midi":65,"time":52.90320199999998,"velocity":0.6299212598425197,"duration":0.4825266645833324},{"name":"A#4","midi":70,"time":54.193523999999975,"velocity":0.6299212598425197,"duration":0.21370958125000072},{"name":"G#4","midi":68,"time":54.408577666666645,"velocity":0.6299212598425197,"duration":0.21370958125000072},{"name":"G4","midi":67,"time":54.623631333333314,"velocity":0.6299212598425197,"duration":0.21370958125000072},{"name":"A#4","midi":70,"time":54.838684999999984,"velocity":0.6299212598425197,"duration":0.21370958125000072},{"name":"G#4","midi":68,"time":55.05373866666665,"velocity":0.6299212598425197,"duration":0.21370958125000072},{"name":"G4","midi":67,"time":55.26879233333332,"velocity":0.6299212598425197,"duration":0.21370958125000072},{"name":"F4","midi":65,"time":55.48384599999999,"velocity":0.6299212598425197,"duration":0.4825266645833324},{"name":"G4","midi":67,"time":55.967716749999994,"velocity":0.6299212598425197,"duration":0.15994616458333155},{"name":"D#4","midi":63,"time":56.129006999999994,"velocity":0.6299212598425197,"duration":0.6438169145833328},{"name":"C5","midi":72,"time":76.61286874999999,"velocity":0.6299212598425197,"duration":0.15994616458333155},{"name":"C5","midi":72,"time":76.77415899999998,"velocity":0.6299212598425197,"duration":0.32123641458333907},{"name":"G5","midi":79,"time":77.09673949999998,"velocity":0.6299212598425197,"duration":0.32123641458333907},{"name":"F5","midi":77,"time":77.41931999999998,"velocity":0.6299212598425197,"duration":0.32123641458333907},{"name":"G5","midi":79,"time":77.74190049999999,"velocity":0.6299212598425197,"duration":0.4825266645833324},{"name":"C5","midi":72,"time":79.03222249999999,"velocity":0.6299212598425197,"duration":0.15994616458333155},{"name":"C5","midi":72,"time":79.19351274999998,"velocity":0.6299212598425197,"duration":0.32123641458333907},{"name":"C5","midi":72,"time":79.51609324999998,"velocity":0.6299212598425197,"duration":0.15994616458333155},{"name":"G5","midi":79,"time":79.67738349999998,"velocity":0.6299212598425197,"duration":0.32123641458333907},{"name":"F5","midi":77,"time":79.99996399999998,"velocity":0.6299212598425197,"duration":0.4825266645833324},{"name":"G5","midi":79,"time":80.48383474999997,"velocity":0.6299212598425197,"duration":0.4825266645833324},{"name":"F5","midi":77,"time":80.96770549999997,"velocity":0.6299212598425197,"duration":0.4825266645833324},{"name":"D#5","midi":75,"time":81.93544699999997,"velocity":0.6299212598425197,"duration":0.32123641458333907},{"name":"D#5","midi":75,"time":82.25802749999997,"velocity":0.6299212598425197,"duration":0.32123641458333907},{"name":"C6","midi":84,"time":82.58060799999997,"velocity":0.6299212598425197,"duration":0.15994616458333155},{"name":"A#5","midi":82,"time":82.74189824999996,"velocity":0.6299212598425197,"duration":0.15994616458333155},{"name":"G5","midi":79,"time":82.90318849999996,"velocity":0.6299212598425197,"duration":0.15994616458333155},{"name":"A#5","midi":82,"time":83.06447874999995,"velocity":0.6299212598425197,"duration":0.32123641458333907},{"name":"G5","midi":79,"time":83.38705924999995,"velocity":0.6299212598425197,"duration":0.15994616458333155},{"name":"F5","midi":77,"time":83.54834949999994,"velocity":0.6299212598425197,"duration":0.15994616458333155},{"name":"G5","midi":79,"time":83.70963974999994,"velocity":0.6299212598425197,"duration":0.15994616458333155},{"name":"F5","midi":77,"time":83.87092999999993,"velocity":0.6299212598425197,"duration":0.32123641458333907},{"name":"D#5","midi":75,"time":84.19351049999993,"velocity":0.6299212598425197,"duration":0.32123641458333907},{"name":"C5","midi":72,"time":84.51609099999993,"velocity":0.6299212598425197,"duration":0.32123641458333907},{"name":"C6","midi":84,"time":85.16125199999993,"velocity":0.6299212598425197,"duration":0.15994616458333155},{"name":"A#5","midi":82,"time":85.32254224999993,"velocity":0.6299212598425197,"duration":0.15994616458333155},{"name":"G5","midi":79,"time":85.48383249999992,"velocity":0.6299212598425197,"duration":0.15994616458333155},{"name":"A#5","midi":82,"time":85.64512274999991,"velocity":0.6299212598425197,"duration":0.32123641458333907},{"name":"G5","midi":79,"time":85.96770324999991,"velocity":0.6299212598425197,"duration":0.15994616458333155},{"name":"F5","midi":77,"time":86.12899349999991,"velocity":0.6299212598425197,"duration":0.15994616458333155},{"name":"G5","midi":79,"time":86.2902837499999,"velocity":0.6299212598425197,"duration":0.15994616458333155},{"name":"F5","midi":77,"time":86.4515739999999,"velocity":0.6299212598425197,"duration":0.4825266645833324},{"name":"D#5","midi":75,"time":97.4193109999999,"velocity":0.5039370078740157,"duration":0.15994616458333155},{"name":"D#5","midi":75,"time":97.58060124999989,"velocity":0.5039370078740157,"duration":0.15994616458333155},{"name":"D5","midi":74,"time":97.74189149999988,"velocity":0.5039370078740157,"duration":0.15994616458333155},{"name":"D#5","midi":75,"time":97.90318174999987,"velocity":0.5039370078740157,"duration":0.15994616458333155},{"name":"D5","midi":74,"time":98.06447199999987,"velocity":0.5039370078740157,"duration":0.15994616458333155},{"name":"C5","midi":72,"time":98.22576224999986,"velocity":0.5039370078740157,"duration":0.6438169145833399},{"name":"D5","midi":74,"time":100.32253549999987,"velocity":0.5039370078740157,"duration":0.15994616458333155},{"name":"D#5","midi":75,"time":100.48382574999987,"velocity":0.5039370078740157,"duration":0.15994616458333155},{"name":"D5","midi":74,"time":100.64511599999986,"velocity":0.5039370078740157,"duration":0.15994616458333155},{"name":"C5","midi":72,"time":100.80640624999985,"velocity":0.5039370078740157,"duration":0.6438169145833399},{"name":"D#5","midi":75,"time":102.58059899999986,"velocity":0.5039370078740157,"duration":0.15994616458333155},{"name":"D#5","midi":75,"time":102.74188924999986,"velocity":0.5039370078740157,"duration":0.15994616458333155},{"name":"D5","midi":74,"time":102.90317949999985,"velocity":0.5039370078740157,"duration":0.15994616458333155},{"name":"D#5","midi":75,"time":103.06446974999984,"velocity":0.5039370078740157,"duration":0.15994616458333155},{"name":"D5","midi":74,"time":103.22575999999984,"velocity":0.5039370078740157,"duration":0.15994616458333155},{"name":"C5","midi":72,"time":103.38705024999983,"velocity":0.5039370078740157,"duration":0.6438169145833399},{"name":"D5","midi":74,"time":105.48382349999984,"velocity":0.5039370078740157,"duration":0.15994616458333155},{"name":"D#5","midi":75,"time":105.64511374999984,"velocity":0.5039370078740157,"duration":0.15994616458333155},{"name":"D5","midi":74,"time":105.80640399999983,"velocity":0.5039370078740157,"duration":0.15994616458333155},{"name":"C5","midi":72,"time":105.96769424999982,"velocity":0.5039370078740157,"duration":0.4825266645833324},{"name":"D5","midi":74,"time":106.45156499999982,"velocity":0.5039370078740157,"duration":0.15994616458333155},{"name":"C5","midi":72,"time":106.61285524999981,"velocity":0.5039370078740157,"duration":0.4825266645833324},{"name":"D5","midi":74,"time":107.0967259999998,"velocity":0.5039370078740157,"duration":0.15994616458333155},{"name":"C5","midi":72,"time":107.2580162499998,"velocity":0.5039370078740157,"duration":0.4825266645833324},{"name":"D#5","midi":75,"time":159.3547669999998,"velocity":0.5039370078740157,"duration":0.15994616458334576},{"name":"D#5","midi":75,"time":159.51605724999982,"velocity":0.5039370078740157,"duration":0.15994616458334576},{"name":"D5","midi":74,"time":159.67734749999983,"velocity":0.5039370078740157,"duration":0.15994616458334576},{"name":"D#5","midi":75,"time":159.83863774999983,"velocity":0.5039370078740157,"duration":0.15994616458334576},{"name":"D5","midi":74,"time":159.99992799999984,"velocity":0.5039370078740157,"duration":0.15994616458334576},{"name":"C5","midi":72,"time":160.16121824999985,"velocity":0.5039370078740157,"duration":0.6438169145833399},{"name":"D5","midi":74,"time":162.25799149999986,"velocity":0.5039370078740157,"duration":0.15994616458334576},{"name":"D#5","midi":75,"time":162.41928174999987,"velocity":0.5039370078740157,"duration":0.15994616458334576},{"name":"D5","midi":74,"time":162.58057199999988,"velocity":0.5039370078740157,"duration":0.15994616458334576},{"name":"C5","midi":72,"time":162.74186224999988,"velocity":0.5039370078740157,"duration":0.6438169145833399},{"name":"D#5","midi":75,"time":164.51605499999988,"velocity":0.5039370078740157,"duration":0.15994616458334576},{"name":"D#5","midi":75,"time":164.6773452499999,"velocity":0.5039370078740157,"duration":0.15994616458334576},{"name":"D5","midi":74,"time":164.8386354999999,"velocity":0.5039370078740157,"duration":0.15994616458334576},{"name":"D#5","midi":75,"time":164.9999257499999,"velocity":0.5039370078740157,"duration":0.15994616458334576},{"name":"D5","midi":74,"time":165.1612159999999,"velocity":0.5039370078740157,"duration":0.15994616458334576},{"name":"C5","midi":72,"time":165.32250624999992,"velocity":0.5039370078740157,"duration":0.6438169145833399},{"name":"D5","midi":74,"time":167.41927949999993,"velocity":0.5039370078740157,"duration":0.15994616458334576},{"name":"D#5","midi":75,"time":167.58056974999994,"velocity":0.5039370078740157,"duration":0.15994616458334576},{"name":"D5","midi":74,"time":167.74185999999995,"velocity":0.5039370078740157,"duration":0.15994616458334576},{"name":"C5","midi":72,"time":167.90315024999995,"velocity":0.5039370078740157,"duration":0.4825266645833324},{"name":"D5","midi":74,"time":168.38702099999995,"velocity":0.5039370078740157,"duration":0.15994616458334576},{"name":"C5","midi":72,"time":168.54831124999995,"velocity":0.5039370078740157,"duration":0.4825266645833324},{"name":"D5","midi":74,"time":169.03218199999995,"velocity":0.5039370078740157,"duration":0.15994616458334576},{"name":"C5","midi":72,"time":169.19347224999996,"velocity":0.5039370078740157,"duration":0.4825266645833324},{"name":"C5","midi":72,"time":174.83863099999996,"velocity":0.6299212598425197,"duration":0.32123641458332486},{"name":"D5","midi":74,"time":175.16121149999995,"velocity":0.6299212598425197,"duration":0.32123641458332486},{"name":"D#5","midi":75,"time":175.48379199999994,"velocity":0.6299212598425197,"duration":0.32123641458332486},{"name":"D5","midi":74,"time":175.80637249999992,"velocity":0.6299212598425197,"duration":0.32123641458332486},{"name":"C5","midi":72,"time":176.1289529999999,"velocity":0.6299212598425197,"duration":0.32123641458332486},{"name":"A#4","midi":70,"time":176.4515334999999,"velocity":0.6299212598425197,"duration":0.32123641458332486},{"name":"G4","midi":67,"time":176.77411399999988,"velocity":0.6299212598425197,"duration":0.4825266645833324},{"name":"C5","midi":72,"time":177.25798474999988,"velocity":0.6299212598425197,"duration":0.4825266645833324},{"name":"C5","midi":72,"time":177.74185549999987,"velocity":0.6299212598425197,"duration":0.4825266645833324},{"name":"A#4","midi":70,"time":178.22572624999987,"velocity":0.6299212598425197,"duration":0.15994616458334576},{"name":"C5","midi":72,"time":178.38701649999987,"velocity":0.6299212598425197,"duration":0.15994616458334576},{"name":"D#5","midi":75,"time":178.54830674999988,"velocity":0.6299212598425197,"duration":0.15994616458334576},{"name":"C5","midi":72,"time":178.7095969999999,"velocity":0.6299212598425197,"duration":0.6438169145833399}]},{"instrument_number":66,"notes":[{"name":"G3","midi":55,"time":45.806430999999996,"velocity":0.6299212598425197,"duration":0.10618274791666948},{"name":"G3","midi":55,"time":46.021484666666666,"velocity":0.6299212598425197,"duration":0.21370958125000072},{"name":"G3","midi":55,"time":46.236538333333336,"velocity":0.6299212598425197,"duration":0.21370958125000072},{"name":"G3","midi":55,"time":46.451592000000005,"velocity":0.6299212598425197,"duration":0.32123641458333196},{"name":"G3","midi":55,"time":47.09675300000001,"velocity":0.6299212598425197,"duration":0.15994616458333155},{"name":"G3","midi":55,"time":47.25804325000001,"velocity":0.6299212598425197,"duration":0.15994616458333155},{"name":"G3","midi":55,"time":47.41933350000001,"velocity":0.6299212598425197,"duration":0.32123641458333196},{"name":"G3","midi":55,"time":47.74191400000001,"velocity":0.6299212598425197,"duration":0.32123641458333196},{"name":"G3","midi":55,"time":48.38707500000001,"velocity":0.6299212598425197,"duration":0.21370958125000072},{"name":"G3","midi":55,"time":48.60212866666668,"velocity":0.6299212598425197,"duration":0.21370958125000072},{"name":"G3","midi":55,"time":48.81718233333335,"velocity":0.6299212598425197,"duration":0.21370958125000072},{"name":"G3","midi":55,"time":49.03223600000002,"velocity":0.6299212598425197,"duration":0.32123641458333196},{"name":"C3","midi":48,"time":49.51610675000002,"velocity":0.6299212598425197,"duration":0.0793010395833349},{"name":"G3","midi":55,"time":49.67739700000002,"velocity":0.6299212598425197,"duration":0.21370958125000072},{"name":"G3","midi":55,"time":49.89245066666669,"velocity":0.6299212598425197,"duration":0.21370958125000072},{"name":"G3","midi":55,"time":50.10750433333336,"velocity":0.6299212598425197,"duration":0.21370958125000072},{"name":"G3","midi":55,"time":50.32255800000003,"velocity":0.6299212598425197,"duration":0.32123641458333196},{"name":"G3","midi":55,"time":50.96771900000003,"velocity":0.6299212598425197,"duration":0.21370958125000072},{"name":"G3","midi":55,"time":51.1827726666667,"velocity":0.6299212598425197,"duration":0.21370958125000072},{"name":"G3","midi":55,"time":51.39782633333337,"velocity":0.6299212598425197,"duration":0.21370958125000072},{"name":"A#3","midi":58,"time":51.61288000000004,"velocity":0.6299212598425197,"duration":0.21370958125000072},{"name":"G#3","midi":56,"time":51.82793366666671,"velocity":0.6299212598425197,"duration":0.21370958125000072},{"name":"G3","midi":55,"time":52.04298733333338,"velocity":0.6299212598425197,"duration":0.21370958125000072},{"name":"A#3","midi":58,"time":52.25804100000005,"velocity":0.6299212598425197,"duration":0.21370958125000072},{"name":"G#3","midi":56,"time":52.47309466666672,"velocity":0.6299212598425197,"duration":0.21370958125000072},{"name":"G3","midi":55,"time":52.68814833333339,"velocity":0.6299212598425197,"duration":0.21370958125000072},{"name":"F3","midi":53,"time":52.90320200000006,"velocity":0.6299212598425197,"duration":0.4825266645833324},{"name":"G3","midi":55,"time":53.54836300000006,"velocity":0.6299212598425197,"duration":0.21370958125000072},{"name":"G3","midi":55,"time":53.76341666666673,"velocity":0.6299212598425197,"duration":0.21370958125000072},{"name":"G3","midi":55,"time":53.9784703333334,"velocity":0.6299212598425197,"duration":0.21370958125000072},{"name":"A#3","midi":58,"time":54.19352400000007,"velocity":0.6299212598425197,"duration":0.21370958125000072},{"name":"G#3","midi":56,"time":54.40857766666674,"velocity":0.6299212598425197,"duration":0.21370958125000072},{"name":"G3","midi":55,"time":54.62363133333341,"velocity":0.6299212598425197,"duration":0.21370958125000072},{"name":"A#3","midi":58,"time":54.838685000000076,"velocity":0.6299212598425197,"duration":0.21370958125000072},{"name":"G#3","midi":56,"time":55.053738666666746,"velocity":0.6299212598425197,"duration":0.21370958125000072},{"name":"G3","midi":55,"time":55.268792333333415,"velocity":0.6299212598425197,"duration":0.21370958125000072},{"name":"F3","midi":53,"time":55.483846000000085,"velocity":0.6299212598425197,"duration":0.4825266645833324},{"name":"D#3","midi":51,"time":56.12900700000009,"velocity":0.6299212598425197,"duration":0.32123641458333196},{"name":"D#4","midi":63,"time":56.12900700000009,"velocity":0.6299212598425197,"duration":0.32123641458333196},{"name":"C3","midi":48,"time":56.45158750000009,"velocity":0.6299212598425197,"duration":0.32123641458333196},{"name":"C4","midi":60,"time":56.45158750000009,"velocity":0.6299212598425197,"duration":0.32123641458333196},{"name":"D#3","midi":51,"time":64.51610000000008,"velocity":0.6299212598425197,"duration":0.32123641458333907},{"name":"D#4","midi":63,"time":64.51610000000008,"velocity":0.6299212598425197,"duration":0.32123641458333907},{"name":"C3","midi":48,"time":64.83868050000008,"velocity":0.6299212598425197,"duration":0.32123641458333907},{"name":"C4","midi":60,"time":64.83868050000008,"velocity":0.6299212598425197,"duration":0.32123641458333907},{"name":"C3","midi":48,"time":65.32255125000009,"velocity":0.6299212598425197,"duration":0.15994616458333155},{"name":"C4","midi":60,"time":65.32255125000009,"velocity":0.6299212598425197,"duration":0.15994616458333155},{"name":"D#3","midi":51,"time":65.48384150000008,"velocity":0.6299212598425197,"duration":0.32123641458333907},{"name":"D#4","midi":63,"time":65.48384150000008,"velocity":0.6299212598425197,"duration":0.32123641458333907},{"name":"C3","midi":48,"time":65.80642200000008,"velocity":0.6299212598425197,"duration":0.32123641458333907},{"name":"C4","midi":60,"time":65.80642200000008,"velocity":0.6299212598425197,"duration":0.32123641458333907},{"name":"D#3","midi":51,"time":87.09673500000008,"velocity":0.6299212598425197,"duration":0.15994616458333155},{"name":"D#3","midi":51,"time":87.25802525000007,"velocity":0.6299212598425197,"duration":0.15994616458333155},{"name":"D3","midi":50,"time":87.41931550000007,"velocity":0.6299212598425197,"duration":0.15994616458333155},{"name":"D#3","midi":51,"time":87.58060575000006,"velocity":0.6299212598425197,"duration":0.15994616458333155},{"name":"D3","midi":50,"time":87.74189600000005,"velocity":0.6299212598425197,"duration":0.15994616458333155},{"name":"C3","midi":48,"time":87.90318625000005,"velocity":0.6299212598425197,"duration":0.6438169145833399},{"name":"D3","midi":50,"time":89.99995950000006,"velocity":0.6299212598425197,"duration":0.15994616458333155},{"name":"D#3","midi":51,"time":90.16124975000005,"velocity":0.6299212598425197,"duration":0.15994616458333155},{"name":"D3","midi":50,"time":90.32254000000005,"velocity":0.6299212598425197,"duration":0.15994616458333155},{"name":"C3","midi":48,"time":90.48383025000004,"velocity":0.6299212598425197,"duration":0.6438169145833399},{"name":"D#3","midi":51,"time":92.25802300000005,"velocity":0.6299212598425197,"duration":0.15994616458333155},{"name":"D#3","midi":51,"time":92.41931325000004,"velocity":0.6299212598425197,"duration":0.15994616458333155},{"name":"D3","midi":50,"time":92.58060350000004,"velocity":0.6299212598425197,"duration":0.15994616458333155},{"name":"D#3","midi":51,"time":92.74189375000003,"velocity":0.6299212598425197,"duration":0.15994616458333155},{"name":"D3","midi":50,"time":92.90318400000002,"velocity":0.6299212598425197,"duration":0.15994616458333155},{"name":"C3","midi":48,"time":93.06447425000002,"velocity":0.6299212598425197,"duration":0.6438169145833399},{"name":"D3","midi":50,"time":95.16124750000003,"velocity":0.6299212598425197,"duration":0.15994616458333155},{"name":"D#3","midi":51,"time":95.32253775000002,"velocity":0.6299212598425197,"duration":0.15994616458333155},{"name":"D3","midi":50,"time":95.48382800000002,"velocity":0.6299212598425197,"duration":0.15994616458333155},{"name":"C3","midi":48,"time":95.64511825000001,"velocity":0.6299212598425197,"duration":0.4825266645833324},{"name":"D3","midi":50,"time":96.128989,"velocity":0.6299212598425197,"duration":0.15994616458333155},{"name":"C3","midi":48,"time":96.29027925,"velocity":0.6299212598425197,"duration":0.4825266645833324},{"name":"D3","midi":50,"time":96.77414999999999,"velocity":0.6299212598425197,"duration":0.15994616458333155},{"name":"C3","midi":48,"time":96.93544024999998,"velocity":0.6299212598425197,"duration":0.4825266645833324},{"name":"D#3","midi":51,"time":97.41931099999998,"velocity":0.6299212598425197,"duration":0.15994616458333155},{"name":"D#3","midi":51,"time":97.58060124999997,"velocity":0.6299212598425197,"duration":0.15994616458333155},{"name":"D3","midi":50,"time":97.74189149999997,"velocity":0.6299212598425197,"duration":0.15994616458333155},{"name":"D#3","midi":51,"time":97.90318174999996,"velocity":0.6299212598425197,"duration":0.15994616458333155},{"name":"D3","midi":50,"time":98.06447199999995,"velocity":0.6299212598425197,"duration":0.15994616458333155},{"name":"C3","midi":48,"time":98.22576224999995,"velocity":0.6299212598425197,"duration":0.6438169145833399},{"name":"D3","midi":50,"time":100.32253549999996,"velocity":0.6299212598425197,"duration":0.15994616458333155},{"name":"D#3","midi":51,"time":100.48382574999995,"velocity":0.6299212598425197,"duration":0.15994616458333155},{"name":"D3","midi":50,"time":100.64511599999994,"velocity":0.6299212598425197,"duration":0.15994616458333155},{"name":"C3","midi":48,"time":100.80640624999994,"velocity":0.6299212598425197,"duration":0.6438169145833399},{"name":"D#3","midi":51,"time":102.58059899999995,"velocity":0.6299212598425197,"duration":0.15994616458333155},{"name":"D#3","midi":51,"time":102.74188924999994,"velocity":0.6299212598425197,"duration":0.15994616458333155},{"name":"D3","midi":50,"time":102.90317949999994,"velocity":0.6299212598425197,"duration":0.15994616458333155},{"name":"D#3","midi":51,"time":103.06446974999993,"velocity":0.6299212598425197,"duration":0.15994616458333155},{"name":"D3","midi":50,"time":103.22575999999992,"velocity":0.6299212598425197,"duration":0.15994616458333155},{"name":"C3","midi":48,"time":103.38705024999992,"velocity":0.6299212598425197,"duration":0.6438169145833399},{"name":"D3","midi":50,"time":105.48382349999993,"velocity":0.6299212598425197,"duration":0.15994616458333155},{"name":"D#3","midi":51,"time":105.64511374999992,"velocity":0.6299212598425197,"duration":0.15994616458333155},{"name":"D3","midi":50,"time":105.80640399999992,"velocity":0.6299212598425197,"duration":0.15994616458333155},{"name":"C3","midi":48,"time":105.96769424999991,"velocity":0.6299212598425197,"duration":0.4825266645833324},{"name":"D3","midi":50,"time":106.4515649999999,"velocity":0.6299212598425197,"duration":0.15994616458333155},{"name":"C3","midi":48,"time":106.6128552499999,"velocity":0.6299212598425197,"duration":0.4825266645833324},{"name":"D3","midi":50,"time":107.09672599999989,"velocity":0.6299212598425197,"duration":0.15994616458333155},{"name":"C3","midi":48,"time":107.25801624999988,"velocity":0.6299212598425197,"duration":0.4825266645833324},{"name":"D#3","midi":51,"time":108.38704799999988,"velocity":0.6299212598425197,"duration":0.32123641458333907},{"name":"D#3","midi":51,"time":108.70962849999988,"velocity":0.6299212598425197,"duration":0.07930103958332779},{"name":"D#3","midi":51,"time":108.87091874999987,"velocity":0.6299212598425197,"duration":0.07930103958332779},{"name":"D#3","midi":51,"time":109.03220899999987,"velocity":0.6299212598425197,"duration":0.32123641458333907},{"name":"D#3","midi":51,"time":109.35478949999987,"velocity":0.6299212598425197,"duration":0.32123641458333907},{"name":"D#3","midi":51,"time":109.67736999999987,"velocity":0.6299212598425197,"duration":0.2405912895833353},{"name":"D#3","midi":51,"time":109.91930537499987,"velocity":0.6299212598425197,"duration":0.2405912895833353},{"name":"D#3","midi":51,"time":110.16124074999986,"velocity":0.6299212598425197,"duration":0.32123641458333907},{"name":"C3","midi":48,"time":110.80640174999986,"velocity":0.6299212598425197,"duration":0.15994616458333155},{"name":"D#3","midi":51,"time":110.96769199999986,"velocity":0.6299212598425197,"duration":0.32123641458333907},{"name":"D#3","midi":51,"time":111.29027249999986,"velocity":0.6299212598425197,"duration":0.07930103958332779},{"name":"D#3","midi":51,"time":111.45156274999985,"velocity":0.6299212598425197,"duration":0.07930103958332779},{"name":"D#3","midi":51,"time":111.61285299999984,"velocity":0.6299212598425197,"duration":0.32123641458333907},{"name":"D#3","midi":51,"time":111.93543349999985,"velocity":0.6299212598425197,"duration":0.15994616458333155},{"name":"D#3","midi":51,"time":112.09672374999984,"velocity":0.6299212598425197,"duration":0.15994616458333155},{"name":"D#3","midi":51,"time":112.25801399999983,"velocity":0.6299212598425197,"duration":0.32123641458333907},{"name":"D#3","midi":51,"time":113.54833599999984,"velocity":0.6299212598425197,"duration":0.32123641458333907},{"name":"D#3","midi":51,"time":113.87091649999984,"velocity":0.6299212598425197,"duration":0.15994616458333155},{"name":"D#3","midi":51,"time":114.03220674999983,"velocity":0.6299212598425197,"duration":0.15994616458333155},{"name":"D#3","midi":51,"time":114.19349699999982,"velocity":0.6299212598425197,"duration":0.32123641458333907},{"name":"D#3","midi":51,"time":114.51607749999982,"velocity":0.6299212598425197,"duration":0.32123641458333907},{"name":"F3","midi":53,"time":114.83865799999982,"velocity":0.6299212598425197,"duration":0.2405912895833353},{"name":"F3","midi":53,"time":115.08059337499982,"velocity":0.6299212598425197,"duration":0.2405912895833353},{"name":"D#3","midi":51,"time":115.32252874999982,"velocity":0.6299212598425197,"duration":0.32123641458333907},{"name":"C3","midi":48,"time":115.96768974999982,"velocity":0.6299212598425197,"duration":0.15994616458333155},{"name":"D#3","midi":51,"time":116.12897999999981,"velocity":0.6299212598425197,"duration":0.32123641458333907},{"name":"D#3","midi":51,"time":116.45156049999981,"velocity":0.6299212598425197,"duration":0.07930103958332779},{"name":"D#3","midi":51,"time":116.61285074999981,"velocity":0.6299212598425197,"duration":0.07930103958332779},{"name":"D#3","midi":51,"time":116.7741409999998,"velocity":0.6299212598425197,"duration":0.32123641458333907},{"name":"D#3","midi":51,"time":117.0967214999998,"velocity":0.6299212598425197,"duration":0.15994616458333155},{"name":"D#3","midi":51,"time":117.2580117499998,"velocity":0.6299212598425197,"duration":0.15994616458333155},{"name":"D#3","midi":51,"time":117.41930199999979,"velocity":0.6299212598425197,"duration":0.32123641458333907},{"name":"D#3","midi":51,"time":149.03219099999978,"velocity":0.6299212598425197,"duration":0.15994616458334576},{"name":"D#3","midi":51,"time":149.1934812499998,"velocity":0.6299212598425197,"duration":0.15994616458334576},{"name":"D3","midi":50,"time":149.3547714999998,"velocity":0.6299212598425197,"duration":0.15994616458334576},{"name":"D#3","midi":51,"time":149.5160617499998,"velocity":0.6299212598425197,"duration":0.15994616458334576},{"name":"D3","midi":50,"time":149.67735199999981,"velocity":0.6299212598425197,"duration":0.15994616458334576},{"name":"C3","midi":48,"time":149.83864224999982,"velocity":0.6299212598425197,"duration":0.6438169145833399},{"name":"D3","midi":50,"time":151.93541549999983,"velocity":0.6299212598425197,"duration":0.15994616458334576},{"name":"D#3","midi":51,"time":152.09670574999984,"velocity":0.6299212598425197,"duration":0.15994616458334576},{"name":"D3","midi":50,"time":152.25799599999985,"velocity":0.6299212598425197,"duration":0.15994616458334576},{"name":"C3","midi":48,"time":152.41928624999986,"velocity":0.6299212598425197,"duration":0.6438169145833399},{"name":"D#3","midi":51,"time":154.19347899999985,"velocity":0.6299212598425197,"duration":0.15994616458334576},{"name":"D#3","midi":51,"time":154.35476924999986,"velocity":0.6299212598425197,"duration":0.15994616458334576},{"name":"D3","midi":50,"time":154.51605949999987,"velocity":0.6299212598425197,"duration":0.15994616458334576},{"name":"D#3","midi":51,"time":154.67734974999988,"velocity":0.6299212598425197,"duration":0.15994616458334576},{"name":"D3","midi":50,"time":154.83863999999988,"velocity":0.6299212598425197,"duration":0.15994616458334576},{"name":"C3","midi":48,"time":154.9999302499999,"velocity":0.6299212598425197,"duration":0.6438169145833399},{"name":"D3","midi":50,"time":157.0967034999999,"velocity":0.6299212598425197,"duration":0.15994616458334576},{"name":"D#3","midi":51,"time":157.2579937499999,"velocity":0.6299212598425197,"duration":0.15994616458334576},{"name":"D3","midi":50,"time":157.41928399999992,"velocity":0.6299212598425197,"duration":0.15994616458334576},{"name":"C3","midi":48,"time":157.58057424999993,"velocity":0.6299212598425197,"duration":0.4825266645833324},{"name":"D3","midi":50,"time":158.06444499999992,"velocity":0.6299212598425197,"duration":0.15994616458334576},{"name":"C3","midi":48,"time":158.22573524999993,"velocity":0.6299212598425197,"duration":0.4825266645833324},{"name":"D3","midi":50,"time":158.70960599999992,"velocity":0.6299212598425197,"duration":0.15994616458334576},{"name":"C3","midi":48,"time":158.87089624999993,"velocity":0.6299212598425197,"duration":0.4825266645833324},{"name":"D#3","midi":51,"time":159.35476699999992,"velocity":0.6299212598425197,"duration":0.15994616458334576},{"name":"D#3","midi":51,"time":159.51605724999993,"velocity":0.6299212598425197,"duration":0.15994616458334576},{"name":"D3","midi":50,"time":159.67734749999994,"velocity":0.6299212598425197,"duration":0.15994616458334576},{"name":"D#3","midi":51,"time":159.83863774999995,"velocity":0.6299212598425197,"duration":0.15994616458334576},{"name":"D3","midi":50,"time":159.99992799999995,"velocity":0.6299212598425197,"duration":0.15994616458334576},{"name":"C3","midi":48,"time":160.16121824999996,"velocity":0.6299212598425197,"duration":0.6438169145833399},{"name":"D3","midi":50,"time":162.25799149999997,"velocity":0.6299212598425197,"duration":0.15994616458334576},{"name":"D#3","midi":51,"time":162.41928174999998,"velocity":0.6299212598425197,"duration":0.15994616458334576},{"name":"D3","midi":50,"time":162.580572,"velocity":0.6299212598425197,"duration":0.15994616458334576},{"name":"C3","midi":48,"time":162.74186225,"velocity":0.6299212598425197,"duration":0.6438169145833399},{"name":"D#3","midi":51,"time":164.516055,"velocity":0.6299212598425197,"duration":0.15994616458334576},{"name":"D#3","midi":51,"time":164.67734525,"velocity":0.6299212598425197,"duration":0.15994616458334576},{"name":"D3","midi":50,"time":164.8386355,"velocity":0.6299212598425197,"duration":0.15994616458334576},{"name":"D#3","midi":51,"time":164.99992575000002,"velocity":0.6299212598425197,"duration":0.15994616458334576},{"name":"D3","midi":50,"time":165.16121600000002,"velocity":0.6299212598425197,"duration":0.15994616458334576},{"name":"C3","midi":48,"time":165.32250625000003,"velocity":0.6299212598425197,"duration":0.6438169145833399},{"name":"D3","midi":50,"time":167.41927950000004,"velocity":0.6299212598425197,"duration":0.15994616458334576},{"name":"D#3","midi":51,"time":167.58056975000005,"velocity":0.6299212598425197,"duration":0.15994616458334576},{"name":"D3","midi":50,"time":167.74186000000006,"velocity":0.6299212598425197,"duration":0.15994616458334576},{"name":"C3","midi":48,"time":167.90315025000007,"velocity":0.6299212598425197,"duration":0.4825266645833324},{"name":"D3","midi":50,"time":168.38702100000006,"velocity":0.6299212598425197,"duration":0.15994616458334576},{"name":"C3","midi":48,"time":168.54831125000007,"velocity":0.6299212598425197,"duration":0.4825266645833324},{"name":"D3","midi":50,"time":169.03218200000006,"velocity":0.6299212598425197,"duration":0.15994616458334576},{"name":"C3","midi":48,"time":169.19347225000007,"velocity":0.6299212598425197,"duration":0.4825266645833324}]},{"instrument_number":44,"notes":[{"name":"C5","midi":72,"time":26.1290205,"velocity":0.6299212598425197,"duration":0.32123641458333196},{"name":"C6","midi":84,"time":26.1290205,"velocity":0.6299212598425197,"duration":0.32123641458333196},{"name":"G5","midi":79,"time":26.451600999999997,"velocity":0.6299212598425197,"duration":0.15994616458333155},{"name":"G6","midi":91,"time":26.451600999999997,"velocity":0.6299212598425197,"duration":0.15994616458333155},{"name":"G5","midi":79,"time":26.774181499999994,"velocity":0.6299212598425197,"duration":0.32123641458333196},{"name":"G6","midi":91,"time":26.774181499999994,"velocity":0.6299212598425197,"duration":0.32123641458333196},{"name":"F5","midi":77,"time":27.09676199999999,"velocity":0.6299212598425197,"duration":0.32123641458333196},{"name":"F6","midi":89,"time":27.09676199999999,"velocity":0.6299212598425197,"duration":0.32123641458333196},{"name":"G5","midi":79,"time":27.41934249999999,"velocity":0.6299212598425197,"duration":0.1599461645833351},{"name":"G6","midi":91,"time":27.41934249999999,"velocity":0.6299212598425197,"duration":0.1599461645833351},{"name":"F5","midi":77,"time":27.58063274999999,"velocity":0.6299212598425197,"duration":0.1599461645833351},{"name":"F6","midi":89,"time":27.58063274999999,"velocity":0.6299212598425197,"duration":0.1599461645833351},{"name":"D#5","midi":75,"time":27.90321324999999,"velocity":0.6299212598425197,"duration":0.1599461645833351},{"name":"D#6","midi":87,"time":27.90321324999999,"velocity":0.6299212598425197,"duration":0.1599461645833351},{"name":"C5","midi":72,"time":28.06450349999999,"velocity":0.6299212598425197,"duration":0.32123641458333196},{"name":"C6","midi":84,"time":28.06450349999999,"velocity":0.6299212598425197,"duration":0.32123641458333196},{"name":"C5","midi":72,"time":28.709664499999988,"velocity":0.6299212598425197,"duration":0.15994616458333155},{"name":"C6","midi":84,"time":28.709664499999988,"velocity":0.6299212598425197,"duration":0.15994616458333155},{"name":"C5","midi":72,"time":28.870954749999985,"velocity":0.6299212598425197,"duration":0.1599461645833351},{"name":"C6","midi":84,"time":28.870954749999985,"velocity":0.6299212598425197,"duration":0.1599461645833351},{"name":"G5","midi":79,"time":29.032244999999985,"velocity":0.6299212598425197,"duration":0.1599461645833351},{"name":"G6","midi":91,"time":29.032244999999985,"velocity":0.6299212598425197,"duration":0.1599461645833351},{"name":"G5","midi":79,"time":29.354825499999986,"velocity":0.6299212598425197,"duration":0.32123641458333196},{"name":"G6","midi":91,"time":29.354825499999986,"velocity":0.6299212598425197,"duration":0.32123641458333196},{"name":"F5","midi":77,"time":29.677405999999984,"velocity":0.6299212598425197,"duration":0.32123641458333196},{"name":"F6","midi":89,"time":29.677405999999984,"velocity":0.6299212598425197,"duration":0.32123641458333196},{"name":"F5","midi":77,"time":29.99998649999998,"velocity":0.6299212598425197,"duration":0.1599461645833351},{"name":"F6","midi":89,"time":29.99998649999998,"velocity":0.6299212598425197,"duration":0.1599461645833351},{"name":"A#5","midi":82,"time":30.16127674999998,"velocity":0.6299212598425197,"duration":0.1599461645833351},{"name":"A#6","midi":94,"time":30.16127674999998,"velocity":0.6299212598425197,"duration":0.1599461645833351},{"name":"A#5","midi":82,"time":30.483857249999982,"velocity":0.6299212598425197,"duration":0.1599461645833351},{"name":"A#6","midi":94,"time":30.483857249999982,"velocity":0.6299212598425197,"duration":0.1599461645833351},{"name":"G5","midi":79,"time":30.645147499999982,"velocity":0.6299212598425197,"duration":0.32123641458333196},{"name":"G6","midi":91,"time":30.645147499999982,"velocity":0.6299212598425197,"duration":0.32123641458333196},{"name":"C5","midi":72,"time":31.29030849999998,"velocity":0.6299212598425197,"duration":0.32123641458333196},{"name":"C6","midi":84,"time":31.29030849999998,"velocity":0.6299212598425197,"duration":0.32123641458333196},{"name":"G5","midi":79,"time":31.612888999999978,"velocity":0.6299212598425197,"duration":0.1599461645833351},{"name":"G6","midi":91,"time":31.612888999999978,"velocity":0.6299212598425197,"duration":0.1599461645833351},{"name":"G5","midi":79,"time":31.93546949999998,"velocity":0.6299212598425197,"duration":0.3212364145833355},{"name":"G6","midi":91,"time":31.93546949999998,"velocity":0.6299212598425197,"duration":0.3212364145833355},{"name":"F5","midi":77,"time":32.25804999999998,"velocity":0.6299212598425197,"duration":0.32123641458333196},{"name":"F6","midi":89,"time":32.25804999999998,"velocity":0.6299212598425197,"duration":0.32123641458333196},{"name":"G5","midi":79,"time":32.580630499999984,"velocity":0.6299212598425197,"duration":0.15994616458333155},{"name":"G6","midi":91,"time":32.580630499999984,"velocity":0.6299212598425197,"duration":0.15994616458333155},{"name":"F5","midi":77,"time":32.741920749999984,"velocity":0.6299212598425197,"duration":0.15994616458333155},{"name":"F6","midi":89,"time":32.741920749999984,"velocity":0.6299212598425197,"duration":0.15994616458333155},{"name":"D#5","midi":75,"time":33.064501249999985,"velocity":0.6299212598425197,"duration":0.15994616458333155},{"name":"D#6","midi":87,"time":33.064501249999985,"velocity":0.6299212598425197,"duration":0.15994616458333155},{"name":"C5","midi":72,"time":33.225791499999985,"velocity":0.6299212598425197,"duration":0.32123641458333196},{"name":"C6","midi":84,"time":33.225791499999985,"velocity":0.6299212598425197,"duration":0.32123641458333196},{"name":"C5","midi":72,"time":88.06447649999998,"velocity":0.5039370078740157,"duration":0.32123641458333907},{"name":"C6","midi":84,"time":88.06447649999998,"velocity":0.5039370078740157,"duration":0.32123641458333907},{"name":"G5","midi":79,"time":88.38705699999998,"velocity":0.5039370078740157,"duration":0.15994616458333155},{"name":"G6","midi":91,"time":88.38705699999998,"velocity":0.5039370078740157,"duration":0.15994616458333155},{"name":"G5","midi":79,"time":88.70963749999999,"velocity":0.5039370078740157,"duration":0.32123641458333907},{"name":"G6","midi":91,"time":88.70963749999999,"velocity":0.5039370078740157,"duration":0.32123641458333907},{"name":"F5","midi":77,"time":89.03221799999999,"velocity":0.5039370078740157,"duration":0.32123641458333907},{"name":"F6","midi":89,"time":89.03221799999999,"velocity":0.5039370078740157,"duration":0.32123641458333907},{"name":"G5","midi":79,"time":89.35479849999999,"velocity":0.5039370078740157,"duration":0.15994616458333155},{"name":"G6","midi":91,"time":89.35479849999999,"velocity":0.5039370078740157,"duration":0.15994616458333155},{"name":"F5","midi":77,"time":89.51608874999998,"velocity":0.5039370078740157,"duration":0.15994616458333155},{"name":"F6","midi":89,"time":89.51608874999998,"velocity":0.5039370078740157,"duration":0.15994616458333155},{"name":"D#5","midi":75,"time":89.83866924999998,"velocity":0.5039370078740157,"duration":0.15994616458333155},{"name":"D#6","midi":87,"time":89.83866924999998,"velocity":0.5039370078740157,"duration":0.15994616458333155},{"name":"C5","midi":72,"time":89.99995949999997,"velocity":0.5039370078740157,"duration":0.32123641458333907},{"name":"C6","midi":84,"time":89.99995949999997,"velocity":0.5039370078740157,"duration":0.32123641458333907},{"name":"C5","midi":72,"time":90.64512049999998,"velocity":0.5039370078740157,"duration":0.15994616458333155},{"name":"C6","midi":84,"time":90.64512049999998,"velocity":0.5039370078740157,"duration":0.15994616458333155},{"name":"C5","midi":72,"time":90.80641074999997,"velocity":0.5039370078740157,"duration":0.15994616458333155},{"name":"C6","midi":84,"time":90.80641074999997,"velocity":0.5039370078740157,"duration":0.15994616458333155},{"name":"G5","midi":79,"time":90.96770099999996,"velocity":0.5039370078740157,"duration":0.15994616458333155},{"name":"G6","midi":91,"time":90.96770099999996,"velocity":0.5039370078740157,"duration":0.15994616458333155},{"name":"G5","midi":79,"time":91.29028149999996,"velocity":0.5039370078740157,"duration":0.32123641458333907},{"name":"G6","midi":91,"time":91.29028149999996,"velocity":0.5039370078740157,"duration":0.32123641458333907},{"name":"F5","midi":77,"time":91.61286199999996,"velocity":0.5039370078740157,"duration":0.32123641458333907},{"name":"F6","midi":89,"time":91.61286199999996,"velocity":0.5039370078740157,"duration":0.32123641458333907},{"name":"F5","midi":77,"time":91.93544249999997,"velocity":0.5039370078740157,"duration":0.15994616458333155},{"name":"F6","midi":89,"time":91.93544249999997,"velocity":0.5039370078740157,"duration":0.15994616458333155},{"name":"A#5","midi":82,"time":92.09673274999996,"velocity":0.5039370078740157,"duration":0.15994616458333155},{"name":"A#6","midi":94,"time":92.09673274999996,"velocity":0.5039370078740157,"duration":0.15994616458333155},{"name":"A#5","midi":82,"time":92.41931324999996,"velocity":0.5039370078740157,"duration":0.15994616458333155},{"name":"A#6","midi":94,"time":92.41931324999996,"velocity":0.5039370078740157,"duration":0.15994616458333155},{"name":"G5","midi":79,"time":92.58060349999995,"velocity":0.5039370078740157,"duration":0.32123641458333907},{"name":"G6","midi":91,"time":92.58060349999995,"velocity":0.5039370078740157,"duration":0.32123641458333907},{"name":"C5","midi":72,"time":93.22576449999995,"velocity":0.5039370078740157,"duration":0.32123641458333907},{"name":"C6","midi":84,"time":93.22576449999995,"velocity":0.5039370078740157,"duration":0.32123641458333907},{"name":"G5","midi":79,"time":93.54834499999996,"velocity":0.5039370078740157,"duration":0.15994616458333155},{"name":"G6","midi":91,"time":93.54834499999996,"velocity":0.5039370078740157,"duration":0.15994616458333155},{"name":"G5","midi":79,"time":93.87092549999996,"velocity":0.5039370078740157,"duration":0.32123641458333907},{"name":"G6","midi":91,"time":93.87092549999996,"velocity":0.5039370078740157,"duration":0.32123641458333907},{"name":"F5","midi":77,"time":94.19350599999996,"velocity":0.5039370078740157,"duration":0.32123641458333907},{"name":"F6","midi":89,"time":94.19350599999996,"velocity":0.5039370078740157,"duration":0.32123641458333907},{"name":"G5","midi":79,"time":94.51608649999996,"velocity":0.5039370078740157,"duration":0.15994616458333155},{"name":"G6","midi":91,"time":94.51608649999996,"velocity":0.5039370078740157,"duration":0.15994616458333155},{"name":"F5","midi":77,"time":94.67737674999995,"velocity":0.5039370078740157,"duration":0.15994616458333155},{"name":"F6","midi":89,"time":94.67737674999995,"velocity":0.5039370078740157,"duration":0.15994616458333155},{"name":"D#5","midi":75,"time":94.99995724999995,"velocity":0.5039370078740157,"duration":0.15994616458333155},{"name":"D#6","midi":87,"time":94.99995724999995,"velocity":0.5039370078740157,"duration":0.15994616458333155},{"name":"C5","midi":72,"time":95.16124749999994,"velocity":0.5039370078740157,"duration":0.32123641458333907},{"name":"C6","midi":84,"time":95.16124749999994,"velocity":0.5039370078740157,"duration":0.32123641458333907},{"name":"C5","midi":72,"time":98.38705249999995,"velocity":0.5039370078740157,"duration":0.32123641458333907},{"name":"C6","midi":84,"time":98.38705249999995,"velocity":0.5039370078740157,"duration":0.32123641458333907},{"name":"G5","midi":79,"time":98.70963299999995,"velocity":0.5039370078740157,"duration":0.15994616458333155},{"name":"G6","midi":91,"time":98.70963299999995,"velocity":0.5039370078740157,"duration":0.15994616458333155},{"name":"G5","midi":79,"time":99.03221349999995,"velocity":0.5039370078740157,"duration":0.32123641458333907},{"name":"G6","midi":91,"time":99.03221349999995,"velocity":0.5039370078740157,"duration":0.32123641458333907},{"name":"F5","midi":77,"time":99.35479399999996,"velocity":0.5039370078740157,"duration":0.32123641458333907},{"name":"F6","midi":89,"time":99.35479399999996,"velocity":0.5039370078740157,"duration":0.32123641458333907},{"name":"G5","midi":79,"time":99.67737449999996,"velocity":0.5039370078740157,"duration":0.15994616458333155},{"name":"G6","midi":91,"time":99.67737449999996,"velocity":0.5039370078740157,"duration":0.15994616458333155},{"name":"F5","midi":77,"time":99.83866474999995,"velocity":0.5039370078740157,"duration":0.15994616458333155},{"name":"F6","midi":89,"time":99.83866474999995,"velocity":0.5039370078740157,"duration":0.15994616458333155},{"name":"D#5","midi":75,"time":100.16124524999995,"velocity":0.5039370078740157,"duration":0.15994616458333155},{"name":"D#6","midi":87,"time":100.16124524999995,"velocity":0.5039370078740157,"duration":0.15994616458333155},{"name":"C5","midi":72,"time":100.32253549999994,"velocity":0.5039370078740157,"duration":0.32123641458333907},{"name":"C6","midi":84,"time":100.32253549999994,"velocity":0.5039370078740157,"duration":0.32123641458333907},{"name":"C5","midi":72,"time":100.96769649999995,"velocity":0.5039370078740157,"duration":0.15994616458333155},{"name":"C6","midi":84,"time":100.96769649999995,"velocity":0.5039370078740157,"duration":0.15994616458333155},{"name":"C5","midi":72,"time":101.12898674999994,"velocity":0.5039370078740157,"duration":0.15994616458333155},{"name":"C6","midi":84,"time":101.12898674999994,"velocity":0.5039370078740157,"duration":0.15994616458333155},{"name":"G5","midi":79,"time":101.29027699999993,"velocity":0.5039370078740157,"duration":0.15994616458333155},{"name":"G6","midi":91,"time":101.29027699999993,"velocity":0.5039370078740157,"duration":0.15994616458333155},{"name":"G5","midi":79,"time":101.61285749999993,"velocity":0.5039370078740157,"duration":0.32123641458333907},{"name":"G6","midi":91,"time":101.61285749999993,"velocity":0.5039370078740157,"duration":0.32123641458333907},{"name":"F5","midi":77,"time":101.93543799999993,"velocity":0.5039370078740157,"duration":0.32123641458333907},{"name":"F6","midi":89,"time":101.93543799999993,"velocity":0.5039370078740157,"duration":0.32123641458333907},{"name":"F5","midi":77,"time":102.25801849999993,"velocity":0.5039370078740157,"duration":0.15994616458333155},{"name":"F6","midi":89,"time":102.25801849999993,"velocity":0.5039370078740157,"duration":0.15994616458333155},{"name":"A#5","midi":82,"time":102.41930874999993,"velocity":0.5039370078740157,"duration":0.15994616458333155},{"name":"A#6","midi":94,"time":102.41930874999993,"velocity":0.5039370078740157,"duration":0.15994616458333155},{"name":"A#5","midi":82,"time":102.74188924999993,"velocity":0.5039370078740157,"duration":0.15994616458333155},{"name":"A#6","midi":94,"time":102.74188924999993,"velocity":0.5039370078740157,"duration":0.15994616458333155},{"name":"G5","midi":79,"time":102.90317949999992,"velocity":0.5039370078740157,"duration":0.32123641458333907},{"name":"G6","midi":91,"time":102.90317949999992,"velocity":0.5039370078740157,"duration":0.32123641458333907},{"name":"C5","midi":72,"time":103.54834049999992,"velocity":0.5039370078740157,"duration":0.32123641458333907},{"name":"C6","midi":84,"time":103.54834049999992,"velocity":0.5039370078740157,"duration":0.32123641458333907},{"name":"G5","midi":79,"time":103.87092099999992,"velocity":0.5039370078740157,"duration":0.15994616458333155},{"name":"G6","midi":91,"time":103.87092099999992,"velocity":0.5039370078740157,"duration":0.15994616458333155},{"name":"G5","midi":79,"time":104.19350149999993,"velocity":0.5039370078740157,"duration":0.32123641458333907},{"name":"G6","midi":91,"time":104.19350149999993,"velocity":0.5039370078740157,"duration":0.32123641458333907},{"name":"F5","midi":77,"time":104.51608199999993,"velocity":0.5039370078740157,"duration":0.32123641458333907},{"name":"F6","midi":89,"time":104.51608199999993,"velocity":0.5039370078740157,"duration":0.32123641458333907},{"name":"G5","midi":79,"time":104.83866249999993,"velocity":0.5039370078740157,"duration":0.15994616458333155},{"name":"G6","midi":91,"time":104.83866249999993,"velocity":0.5039370078740157,"duration":0.15994616458333155},{"name":"F5","midi":77,"time":104.99995274999992,"velocity":0.5039370078740157,"duration":0.15994616458333155},{"name":"F6","midi":89,"time":104.99995274999992,"velocity":0.5039370078740157,"duration":0.15994616458333155},{"name":"D#5","midi":75,"time":105.32253324999992,"velocity":0.5039370078740157,"duration":0.15994616458333155},{"name":"D#6","midi":87,"time":105.32253324999992,"velocity":0.5039370078740157,"duration":0.15994616458333155},{"name":"C5","midi":72,"time":105.48382349999991,"velocity":0.5039370078740157,"duration":0.32123641458333907},{"name":"C6","midi":84,"time":105.48382349999991,"velocity":0.5039370078740157,"duration":0.32123641458333907},{"name":"C5","midi":72,"time":149.99993249999991,"velocity":0.5039370078740157,"duration":0.32123641458332486},{"name":"C6","midi":84,"time":149.99993249999991,"velocity":0.5039370078740157,"duration":0.32123641458332486},{"name":"G5","midi":79,"time":150.3225129999999,"velocity":0.5039370078740157,"duration":0.15994616458334576},{"name":"G6","midi":91,"time":150.3225129999999,"velocity":0.5039370078740157,"duration":0.15994616458334576},{"name":"G5","midi":79,"time":150.64509349999992,"velocity":0.5039370078740157,"duration":0.32123641458332486},{"name":"G6","midi":91,"time":150.64509349999992,"velocity":0.5039370078740157,"duration":0.32123641458332486},{"name":"F5","midi":77,"time":150.9676739999999,"velocity":0.5039370078740157,"duration":0.32123641458332486},{"name":"F6","midi":89,"time":150.9676739999999,"velocity":0.5039370078740157,"duration":0.32123641458332486},{"name":"G5","midi":79,"time":151.2902544999999,"velocity":0.5039370078740157,"duration":0.15994616458334576},{"name":"G6","midi":91,"time":151.2902544999999,"velocity":0.5039370078740157,"duration":0.15994616458334576},{"name":"F5","midi":77,"time":151.4515447499999,"velocity":0.5039370078740157,"duration":0.15994616458334576},{"name":"F6","midi":89,"time":151.4515447499999,"velocity":0.5039370078740157,"duration":0.15994616458334576},{"name":"D#5","midi":75,"time":151.7741252499999,"velocity":0.5039370078740157,"duration":0.15994616458334576},{"name":"D#6","midi":87,"time":151.7741252499999,"velocity":0.5039370078740157,"duration":0.15994616458334576},{"name":"C5","midi":72,"time":151.93541549999992,"velocity":0.5039370078740157,"duration":0.32123641458332486},{"name":"C6","midi":84,"time":151.93541549999992,"velocity":0.5039370078740157,"duration":0.32123641458332486},{"name":"C5","midi":72,"time":152.58057649999992,"velocity":0.5039370078740157,"duration":0.15994616458334576},{"name":"C6","midi":84,"time":152.58057649999992,"velocity":0.5039370078740157,"duration":0.15994616458334576},{"name":"C5","midi":72,"time":152.74186674999993,"velocity":0.5039370078740157,"duration":0.15994616458334576},{"name":"C6","midi":84,"time":152.74186674999993,"velocity":0.5039370078740157,"duration":0.15994616458334576},{"name":"G5","midi":79,"time":152.90315699999994,"velocity":0.5039370078740157,"duration":0.15994616458334576},{"name":"G6","midi":91,"time":152.90315699999994,"velocity":0.5039370078740157,"duration":0.15994616458334576},{"name":"G5","midi":79,"time":153.22573749999995,"velocity":0.5039370078740157,"duration":0.32123641458332486},{"name":"G6","midi":91,"time":153.22573749999995,"velocity":0.5039370078740157,"duration":0.32123641458332486},{"name":"F5","midi":77,"time":153.54831799999994,"velocity":0.5039370078740157,"duration":0.32123641458332486},{"name":"F6","midi":89,"time":153.54831799999994,"velocity":0.5039370078740157,"duration":0.32123641458332486},{"name":"F5","midi":77,"time":153.87089849999992,"velocity":0.5039370078740157,"duration":0.15994616458334576},{"name":"F6","midi":89,"time":153.87089849999992,"velocity":0.5039370078740157,"duration":0.15994616458334576},{"name":"A#5","midi":82,"time":154.03218874999993,"velocity":0.5039370078740157,"duration":0.15994616458334576},{"name":"A#6","midi":94,"time":154.03218874999993,"velocity":0.5039370078740157,"duration":0.15994616458334576},{"name":"A#5","midi":82,"time":154.35476924999995,"velocity":0.5039370078740157,"duration":0.15994616458334576},{"name":"A#6","midi":94,"time":154.35476924999995,"velocity":0.5039370078740157,"duration":0.15994616458334576},{"name":"G5","midi":79,"time":154.51605949999995,"velocity":0.5039370078740157,"duration":0.32123641458332486},{"name":"G6","midi":91,"time":154.51605949999995,"velocity":0.5039370078740157,"duration":0.32123641458332486},{"name":"C5","midi":72,"time":155.16122049999996,"velocity":0.5039370078740157,"duration":0.32123641458332486},{"name":"C6","midi":84,"time":155.16122049999996,"velocity":0.5039370078740157,"duration":0.32123641458332486},{"name":"G5","midi":79,"time":155.48380099999994,"velocity":0.5039370078740157,"duration":0.15994616458334576},{"name":"G6","midi":91,"time":155.48380099999994,"velocity":0.5039370078740157,"duration":0.15994616458334576},{"name":"G5","midi":79,"time":155.80638149999996,"velocity":0.5039370078740157,"duration":0.32123641458332486},{"name":"G6","midi":91,"time":155.80638149999996,"velocity":0.5039370078740157,"duration":0.32123641458332486},{"name":"F5","midi":77,"time":156.12896199999994,"velocity":0.5039370078740157,"duration":0.32123641458332486},{"name":"F6","midi":89,"time":156.12896199999994,"velocity":0.5039370078740157,"duration":0.32123641458332486},{"name":"G5","midi":79,"time":156.45154249999993,"velocity":0.5039370078740157,"duration":0.15994616458334576},{"name":"G6","midi":91,"time":156.45154249999993,"velocity":0.5039370078740157,"duration":0.15994616458334576},{"name":"F5","midi":77,"time":156.61283274999994,"velocity":0.5039370078740157,"duration":0.15994616458334576},{"name":"F6","midi":89,"time":156.61283274999994,"velocity":0.5039370078740157,"duration":0.15994616458334576},{"name":"D#5","midi":75,"time":156.93541324999995,"velocity":0.5039370078740157,"duration":0.15994616458334576},{"name":"D#6","midi":87,"time":156.93541324999995,"velocity":0.5039370078740157,"duration":0.15994616458334576},{"name":"C5","midi":72,"time":157.09670349999996,"velocity":0.5039370078740157,"duration":0.32123641458332486},{"name":"C6","midi":84,"time":157.09670349999996,"velocity":0.5039370078740157,"duration":0.32123641458332486},{"name":"C5","midi":72,"time":160.32250849999994,"velocity":0.5039370078740157,"duration":0.32123641458332486},{"name":"C6","midi":84,"time":160.32250849999994,"velocity":0.5039370078740157,"duration":0.32123641458332486},{"name":"G5","midi":79,"time":160.64508899999993,"velocity":0.5039370078740157,"duration":0.15994616458334576},{"name":"G6","midi":91,"time":160.64508899999993,"velocity":0.5039370078740157,"duration":0.15994616458334576},{"name":"G5","midi":79,"time":160.96766949999994,"velocity":0.5039370078740157,"duration":0.32123641458332486},{"name":"G6","midi":91,"time":160.96766949999994,"velocity":0.5039370078740157,"duration":0.32123641458332486},{"name":"F5","midi":77,"time":161.29024999999993,"velocity":0.5039370078740157,"duration":0.32123641458332486},{"name":"F6","midi":89,"time":161.29024999999993,"velocity":0.5039370078740157,"duration":0.32123641458332486},{"name":"G5","midi":79,"time":161.61283049999992,"velocity":0.5039370078740157,"duration":0.15994616458334576},{"name":"G6","midi":91,"time":161.61283049999992,"velocity":0.5039370078740157,"duration":0.15994616458334576},{"name":"F5","midi":77,"time":161.77412074999992,"velocity":0.5039370078740157,"duration":0.15994616458334576},{"name":"F6","midi":89,"time":161.77412074999992,"velocity":0.5039370078740157,"duration":0.15994616458334576},{"name":"D#5","midi":75,"time":162.09670124999994,"velocity":0.5039370078740157,"duration":0.15994616458334576},{"name":"D#6","midi":87,"time":162.09670124999994,"velocity":0.5039370078740157,"duration":0.15994616458334576},{"name":"C5","midi":72,"time":162.25799149999995,"velocity":0.5039370078740157,"duration":0.32123641458332486},{"name":"C6","midi":84,"time":162.25799149999995,"velocity":0.5039370078740157,"duration":0.32123641458332486},{"name":"C5","midi":72,"time":162.90315249999995,"velocity":0.5039370078740157,"duration":0.15994616458334576},{"name":"C6","midi":84,"time":162.90315249999995,"velocity":0.5039370078740157,"duration":0.15994616458334576},{"name":"C5","midi":72,"time":163.06444274999996,"velocity":0.5039370078740157,"duration":0.15994616458334576},{"name":"C6","midi":84,"time":163.06444274999996,"velocity":0.5039370078740157,"duration":0.15994616458334576},{"name":"G5","midi":79,"time":163.22573299999996,"velocity":0.5039370078740157,"duration":0.15994616458334576},{"name":"G6","midi":91,"time":163.22573299999996,"velocity":0.5039370078740157,"duration":0.15994616458334576},{"name":"G5","midi":79,"time":163.54831349999998,"velocity":0.5039370078740157,"duration":0.32123641458332486},{"name":"G6","midi":91,"time":163.54831349999998,"velocity":0.5039370078740157,"duration":0.32123641458332486},{"name":"F5","midi":77,"time":163.87089399999996,"velocity":0.5039370078740157,"duration":0.32123641458332486},{"name":"F6","midi":89,"time":163.87089399999996,"velocity":0.5039370078740157,"duration":0.32123641458332486},{"name":"F5","midi":77,"time":164.19347449999995,"velocity":0.5039370078740157,"duration":0.15994616458334576},{"name":"F6","midi":89,"time":164.19347449999995,"velocity":0.5039370078740157,"duration":0.15994616458334576},{"name":"A#5","midi":82,"time":164.35476474999996,"velocity":0.5039370078740157,"duration":0.15994616458334576},{"name":"A#6","midi":94,"time":164.35476474999996,"velocity":0.5039370078740157,"duration":0.15994616458334576},{"name":"A#5","midi":82,"time":164.67734524999997,"velocity":0.5039370078740157,"duration":0.15994616458334576},{"name":"A#6","midi":94,"time":164.67734524999997,"velocity":0.5039370078740157,"duration":0.15994616458334576},{"name":"G5","midi":79,"time":164.83863549999998,"velocity":0.5039370078740157,"duration":0.32123641458332486},{"name":"G6","midi":91,"time":164.83863549999998,"velocity":0.5039370078740157,"duration":0.32123641458332486},{"name":"C5","midi":72,"time":165.48379649999998,"velocity":0.5039370078740157,"duration":0.32123641458332486},{"name":"C6","midi":84,"time":165.48379649999998,"velocity":0.5039370078740157,"duration":0.32123641458332486},{"name":"G5","midi":79,"time":165.80637699999997,"velocity":0.5039370078740157,"duration":0.15994616458334576},{"name":"G6","midi":91,"time":165.80637699999997,"velocity":0.5039370078740157,"duration":0.15994616458334576},{"name":"G5","midi":79,"time":166.12895749999998,"velocity":0.5039370078740157,"duration":0.32123641458332486},{"name":"G6","midi":91,"time":166.12895749999998,"velocity":0.5039370078740157,"duration":0.32123641458332486},{"name":"F5","midi":77,"time":166.45153799999997,"velocity":0.5039370078740157,"duration":0.32123641458332486},{"name":"F6","midi":89,"time":166.45153799999997,"velocity":0.5039370078740157,"duration":0.32123641458332486},{"name":"G5","midi":79,"time":166.77411849999996,"velocity":0.5039370078740157,"duration":0.15994616458334576},{"name":"G6","midi":91,"time":166.77411849999996,"velocity":0.5039370078740157,"duration":0.15994616458334576},{"name":"F5","midi":77,"time":166.93540874999997,"velocity":0.5039370078740157,"duration":0.15994616458334576},{"name":"F6","midi":89,"time":166.93540874999997,"velocity":0.5039370078740157,"duration":0.15994616458334576},{"name":"D#5","midi":75,"time":167.25798924999998,"velocity":0.5039370078740157,"duration":0.15994616458334576},{"name":"D#6","midi":87,"time":167.25798924999998,"velocity":0.5039370078740157,"duration":0.15994616458334576},{"name":"C5","midi":72,"time":167.4192795,"velocity":0.5039370078740157,"duration":0.32123641458332486},{"name":"C6","midi":84,"time":167.4192795,"velocity":0.5039370078740157,"duration":0.32123641458332486},{"name":"A#4","midi":70,"time":179.83862874999997,"velocity":0.5039370078740157,"duration":0.15994616458334576},{"name":"C5","midi":72,"time":179.99991899999998,"velocity":0.5039370078740157,"duration":0.15994616458334576},{"name":"C5","midi":72,"time":180.16120924999998,"velocity":0.5039370078740157,"duration":0.15994616458334576},{"name":"D#5","midi":75,"time":180.3224995,"velocity":0.5039370078740157,"duration":0.15994616458334576},{"name":"C5","midi":72,"time":180.48378975,"velocity":0.5039370078740157,"duration":0.15994616458334576},{"name":"G5","midi":79,"time":180.64508,"velocity":0.5039370078740157,"duration":0.32123641458332486},{"name":"D#5","midi":75,"time":180.9676605,"velocity":0.5039370078740157,"duration":0.15994616458334576},{"name":"D#5","midi":75,"time":181.12895075,"velocity":0.5039370078740157,"duration":0.32123641458332486},{"name":"C5","midi":72,"time":181.45153125,"velocity":0.5039370078740157,"duration":0.15994616458334576},{"name":"D#5","midi":75,"time":181.6128215,"velocity":0.5039370078740157,"duration":0.32123641458332486},{"name":"C5","midi":72,"time":181.93540199999998,"velocity":0.5039370078740157,"duration":0.4825266645833324},{"name":"C5","midi":72,"time":182.58056299999998,"velocity":0.5039370078740157,"duration":0.15994616458334576},{"name":"C5","midi":72,"time":182.74185325,"velocity":0.5039370078740157,"duration":0.15994616458334576},{"name":"D#5","midi":75,"time":182.9031435,"velocity":0.5039370078740157,"duration":0.15994616458334576},{"name":"C5","midi":72,"time":183.06443375,"velocity":0.5039370078740157,"duration":0.15994616458334576},{"name":"G5","midi":79,"time":183.225724,"velocity":0.5039370078740157,"duration":0.32123641458332486},{"name":"D#5","midi":75,"time":183.5483045,"velocity":0.5039370078740157,"duration":0.15994616458334576},{"name":"D#5","midi":75,"time":183.70959475,"velocity":0.5039370078740157,"duration":0.32123641458332486},{"name":"C5","midi":72,"time":184.03217525,"velocity":0.5039370078740157,"duration":0.15994616458334576},{"name":"D#5","midi":75,"time":184.1934655,"velocity":0.5039370078740157,"duration":0.32123641458332486},{"name":"F5","midi":77,"time":184.516046,"velocity":0.5039370078740157,"duration":0.4825266645833324},{"name":"A#4","midi":70,"time":185.32249725,"velocity":0.5039370078740157,"duration":0.15994616458334576},{"name":"A#4","midi":70,"time":185.4837875,"velocity":0.5039370078740157,"duration":0.15994616458334576},{"name":"C5","midi":72,"time":185.64507775,"velocity":0.5039370078740157,"duration":0.15994616458334576},{"name":"G5","midi":79,"time":185.80636800000002,"velocity":0.5039370078740157,"duration":0.32123641458332486},{"name":"F5","midi":77,"time":186.1289485,"velocity":0.5039370078740157,"duration":0.15994616458334576},{"name":"F5","midi":77,"time":186.29023875000001,"velocity":0.5039370078740157,"duration":0.32123641458332486},{"name":"D#5","midi":75,"time":186.61281925,"velocity":0.5039370078740157,"duration":0.15994616458334576},{"name":"D#5","midi":75,"time":186.7741095,"velocity":0.5039370078740157,"duration":0.32123641458332486},{"name":"G5","midi":79,"time":187.09669,"velocity":0.5039370078740157,"duration":0.32123641458332486},{"name":"F5","midi":77,"time":187.41927049999998,"velocity":0.5039370078740157,"duration":0.15994616458334576},{"name":"F5","midi":77,"time":187.58056075,"velocity":0.5039370078740157,"duration":0.32123641458332486},{"name":"D#5","midi":75,"time":187.90314124999998,"velocity":0.5039370078740157,"duration":0.15994616458334576},{"name":"D#5","midi":75,"time":188.06443149999998,"velocity":0.5039370078740157,"duration":0.32123641458332486},{"name":"G5","midi":79,"time":188.38701199999997,"velocity":0.5039370078740157,"duration":0.32123641458332486},{"name":"F5","midi":77,"time":188.70959249999996,"velocity":0.5039370078740157,"duration":0.15994616458334576},{"name":"F5","midi":77,"time":188.87088274999996,"velocity":0.5039370078740157,"duration":0.32123641458332486},{"name":"D#5","midi":75,"time":189.19346324999995,"velocity":0.5039370078740157,"duration":0.15994616458334576},{"name":"F5","midi":77,"time":189.35475349999996,"velocity":0.5039370078740157,"duration":0.32123641458332486},{"name":"G5","midi":79,"time":189.67733399999995,"velocity":0.5039370078740157,"duration":0.32123641458332486},{"name":"C5","midi":72,"time":191.29023649999993,"velocity":0.6299212598425197,"duration":0.32123641458332486},{"name":"C6","midi":84,"time":191.29023649999993,"velocity":0.6299212598425197,"duration":0.32123641458332486},{"name":"G5","midi":79,"time":191.61281699999992,"velocity":0.6299212598425197,"duration":0.15994616458334576},{"name":"G6","midi":91,"time":191.61281699999992,"velocity":0.6299212598425197,"duration":0.15994616458334576},{"name":"G5","midi":79,"time":191.93539749999994,"velocity":0.6299212598425197,"duration":0.32123641458332486},{"name":"G6","midi":91,"time":191.93539749999994,"velocity":0.6299212598425197,"duration":0.32123641458332486},{"name":"F5","midi":77,"time":192.25797799999992,"velocity":0.6299212598425197,"duration":0.32123641458332486},{"name":"F6","midi":89,"time":192.25797799999992,"velocity":0.6299212598425197,"duration":0.32123641458332486},{"name":"G5","midi":79,"time":192.5805584999999,"velocity":0.6299212598425197,"duration":0.15994616458334576},{"name":"G6","midi":91,"time":192.5805584999999,"velocity":0.6299212598425197,"duration":0.15994616458334576},{"name":"F5","midi":77,"time":192.74184874999992,"velocity":0.6299212598425197,"duration":0.15994616458334576},{"name":"F6","midi":89,"time":192.74184874999992,"velocity":0.6299212598425197,"duration":0.15994616458334576},{"name":"D#5","midi":75,"time":193.06442924999993,"velocity":0.6299212598425197,"duration":0.15994616458334576},{"name":"D#6","midi":87,"time":193.06442924999993,"velocity":0.6299212598425197,"duration":0.15994616458334576},{"name":"C5","midi":72,"time":193.22571949999994,"velocity":0.6299212598425197,"duration":0.32123641458332486},{"name":"C6","midi":84,"time":193.22571949999994,"velocity":0.6299212598425197,"duration":0.32123641458332486},{"name":"C5","midi":72,"time":193.87088049999994,"velocity":0.6299212598425197,"duration":0.15994616458334576},{"name":"C6","midi":84,"time":193.87088049999994,"velocity":0.6299212598425197,"duration":0.15994616458334576},{"name":"C5","midi":72,"time":194.03217074999995,"velocity":0.6299212598425197,"duration":0.15994616458334576},{"name":"C6","midi":84,"time":194.03217074999995,"velocity":0.6299212598425197,"duration":0.15994616458334576},{"name":"G5","midi":79,"time":194.19346099999996,"velocity":0.6299212598425197,"duration":0.15994616458334576},{"name":"G6","midi":91,"time":194.19346099999996,"velocity":0.6299212598425197,"duration":0.15994616458334576},{"name":"G5","midi":79,"time":194.51604149999997,"velocity":0.6299212598425197,"duration":0.32123641458332486},{"name":"G6","midi":91,"time":194.51604149999997,"velocity":0.6299212598425197,"duration":0.32123641458332486},{"name":"F5","midi":77,"time":194.83862199999996,"velocity":0.6299212598425197,"duration":0.32123641458332486},{"name":"F6","midi":89,"time":194.83862199999996,"velocity":0.6299212598425197,"duration":0.32123641458332486},{"name":"F5","midi":77,"time":195.16120249999994,"velocity":0.6299212598425197,"duration":0.15994616458334576},{"name":"F6","midi":89,"time":195.16120249999994,"velocity":0.6299212598425197,"duration":0.15994616458334576},{"name":"A#5","midi":82,"time":195.32249274999995,"velocity":0.6299212598425197,"duration":0.15994616458334576},{"name":"A#6","midi":94,"time":195.32249274999995,"velocity":0.6299212598425197,"duration":0.15994616458334576},{"name":"A#5","midi":82,"time":195.64507324999997,"velocity":0.6299212598425197,"duration":0.15994616458334576},{"name":"A#6","midi":94,"time":195.64507324999997,"velocity":0.6299212598425197,"duration":0.15994616458334576},{"name":"G5","midi":79,"time":195.80636349999997,"velocity":0.6299212598425197,"duration":0.32123641458332486},{"name":"G6","midi":91,"time":195.80636349999997,"velocity":0.6299212598425197,"duration":0.32123641458332486},{"name":"C5","midi":72,"time":196.45152449999998,"velocity":0.6299212598425197,"duration":0.32123641458332486},{"name":"C6","midi":84,"time":196.45152449999998,"velocity":0.6299212598425197,"duration":0.32123641458332486},{"name":"G5","midi":79,"time":196.77410499999996,"velocity":0.6299212598425197,"duration":0.15994616458334576},{"name":"G6","midi":91,"time":196.77410499999996,"velocity":0.6299212598425197,"duration":0.15994616458334576},{"name":"G5","midi":79,"time":197.09668549999998,"velocity":0.6299212598425197,"duration":0.32123641458332486},{"name":"G6","midi":91,"time":197.09668549999998,"velocity":0.6299212598425197,"duration":0.32123641458332486},{"name":"F5","midi":77,"time":197.41926599999996,"velocity":0.6299212598425197,"duration":0.32123641458332486},{"name":"F6","midi":89,"time":197.41926599999996,"velocity":0.6299212598425197,"duration":0.32123641458332486},{"name":"G5","midi":79,"time":197.74184649999995,"velocity":0.6299212598425197,"duration":0.15994616458334576},{"name":"G6","midi":91,"time":197.74184649999995,"velocity":0.6299212598425197,"duration":0.15994616458334576},{"name":"F5","midi":77,"time":197.90313674999996,"velocity":0.6299212598425197,"duration":0.15994616458334576},{"name":"F6","midi":89,"time":197.90313674999996,"velocity":0.6299212598425197,"duration":0.15994616458334576},{"name":"D#5","midi":75,"time":198.22571724999997,"velocity":0.6299212598425197,"duration":0.15994616458334576},{"name":"D#6","midi":87,"time":198.22571724999997,"velocity":0.6299212598425197,"duration":0.15994616458334576},{"name":"C5","midi":72,"time":198.38700749999998,"velocity":0.6299212598425197,"duration":0.32123641458332486},{"name":"C6","midi":84,"time":198.38700749999998,"velocity":0.6299212598425197,"duration":0.32123641458332486},{"name":"C5","midi":72,"time":201.61281249999996,"velocity":0.6299212598425197,"duration":0.32123641458332486},{"name":"C6","midi":84,"time":201.61281249999996,"velocity":0.6299212598425197,"duration":0.32123641458332486},{"name":"G5","midi":79,"time":201.93539299999995,"velocity":0.6299212598425197,"duration":0.15994616458334576},{"name":"G6","midi":91,"time":201.93539299999995,"velocity":0.6299212598425197,"duration":0.15994616458334576},{"name":"G5","midi":79,"time":202.25797349999996,"velocity":0.6299212598425197,"duration":0.32123641458332486},{"name":"G6","midi":91,"time":202.25797349999996,"velocity":0.6299212598425197,"duration":0.32123641458332486},{"name":"F5","midi":77,"time":202.58055399999995,"velocity":0.6299212598425197,"duration":0.32123641458332486},{"name":"F6","midi":89,"time":202.58055399999995,"velocity":0.6299212598425197,"duration":0.32123641458332486},{"name":"G5","midi":79,"time":202.90313449999994,"velocity":0.6299212598425197,"duration":0.15994616458334576},{"name":"G6","midi":91,"time":202.90313449999994,"velocity":0.6299212598425197,"duration":0.15994616458334576},{"name":"F5","midi":77,"time":203.06442474999994,"velocity":0.6299212598425197,"duration":0.15994616458334576},{"name":"F6","midi":89,"time":203.06442474999994,"velocity":0.6299212598425197,"duration":0.15994616458334576},{"name":"D#5","midi":75,"time":203.38700524999996,"velocity":0.6299212598425197,"duration":0.15994616458334576},{"name":"D#6","midi":87,"time":203.38700524999996,"velocity":0.6299212598425197,"duration":0.15994616458334576},{"name":"C5","midi":72,"time":203.54829549999997,"velocity":0.6299212598425197,"duration":0.32123641458332486},{"name":"C6","midi":84,"time":203.54829549999997,"velocity":0.6299212598425197,"duration":0.32123641458332486},{"name":"C5","midi":72,"time":204.19345649999997,"velocity":0.6299212598425197,"duration":0.15994616458334576},{"name":"C6","midi":84,"time":204.19345649999997,"velocity":0.6299212598425197,"duration":0.15994616458334576},{"name":"C5","midi":72,"time":204.35474674999998,"velocity":0.6299212598425197,"duration":0.15994616458334576},{"name":"C6","midi":84,"time":204.35474674999998,"velocity":0.6299212598425197,"duration":0.15994616458334576},{"name":"G5","midi":79,"time":204.51603699999998,"velocity":0.6299212598425197,"duration":0.15994616458334576},{"name":"G6","midi":91,"time":204.51603699999998,"velocity":0.6299212598425197,"duration":0.15994616458334576},{"name":"G5","midi":79,"time":204.8386175,"velocity":0.6299212598425197,"duration":0.32123641458332486},{"name":"G6","midi":91,"time":204.8386175,"velocity":0.6299212598425197,"duration":0.32123641458332486},{"name":"F5","midi":77,"time":205.16119799999998,"velocity":0.6299212598425197,"duration":0.32123641458332486},{"name":"F6","midi":89,"time":205.16119799999998,"velocity":0.6299212598425197,"duration":0.32123641458332486},{"name":"F5","midi":77,"time":205.48377849999997,"velocity":0.6299212598425197,"duration":0.15994616458334576},{"name":"F6","midi":89,"time":205.48377849999997,"velocity":0.6299212598425197,"duration":0.15994616458334576},{"name":"A#5","midi":82,"time":205.64506874999998,"velocity":0.6299212598425197,"duration":0.15994616458334576},{"name":"A#6","midi":94,"time":205.64506874999998,"velocity":0.6299212598425197,"duration":0.15994616458334576},{"name":"A#5","midi":82,"time":205.96764925,"velocity":0.6299212598425197,"duration":0.15994616458334576},{"name":"A#6","midi":94,"time":205.96764925,"velocity":0.6299212598425197,"duration":0.15994616458334576},{"name":"G5","midi":79,"time":206.1289395,"velocity":0.6299212598425197,"duration":0.32123641458332486},{"name":"G6","midi":91,"time":206.1289395,"velocity":0.6299212598425197,"duration":0.32123641458332486},{"name":"C5","midi":72,"time":206.7741005,"velocity":0.6299212598425197,"duration":0.32123641458332486},{"name":"C6","midi":84,"time":206.7741005,"velocity":0.6299212598425197,"duration":0.32123641458332486},{"name":"G5","midi":79,"time":207.096681,"velocity":0.6299212598425197,"duration":0.15994616458334576},{"name":"G6","midi":91,"time":207.096681,"velocity":0.6299212598425197,"duration":0.15994616458334576},{"name":"G5","midi":79,"time":207.4192615,"velocity":0.6299212598425197,"duration":0.32123641458332486},{"name":"G6","midi":91,"time":207.4192615,"velocity":0.6299212598425197,"duration":0.32123641458332486},{"name":"F5","midi":77,"time":207.741842,"velocity":0.6299212598425197,"duration":0.32123641458332486},{"name":"F6","midi":89,"time":207.741842,"velocity":0.6299212598425197,"duration":0.32123641458332486},{"name":"G5","midi":79,"time":208.06442249999998,"velocity":0.6299212598425197,"duration":0.15994616458334576},{"name":"G6","midi":91,"time":208.06442249999998,"velocity":0.6299212598425197,"duration":0.15994616458334576},{"name":"F5","midi":77,"time":208.22571274999999,"velocity":0.6299212598425197,"duration":0.15994616458334576},{"name":"F6","midi":89,"time":208.22571274999999,"velocity":0.6299212598425197,"duration":0.15994616458334576},{"name":"D#5","midi":75,"time":208.54829325,"velocity":0.6299212598425197,"duration":0.15994616458334576},{"name":"D#6","midi":87,"time":208.54829325,"velocity":0.6299212598425197,"duration":0.15994616458334576},{"name":"C5","midi":72,"time":208.7095835,"velocity":0.6299212598425197,"duration":0.32123641458332486},{"name":"C6","midi":84,"time":208.7095835,"velocity":0.6299212598425197,"duration":0.32123641458332486}]},{"instrument_number":59,"notes":[{"name":"C4","midi":60,"time":26.1290205,"velocity":0.6299212598425197,"duration":0.32123641458333196},{"name":"C5","midi":72,"time":26.1290205,"velocity":0.6299212598425197,"duration":0.32123641458333196},{"name":"G4","midi":67,"time":26.451600999999997,"velocity":0.6299212598425197,"duration":0.15994616458333155},{"name":"G5","midi":79,"time":26.451600999999997,"velocity":0.6299212598425197,"duration":0.15994616458333155},{"name":"G4","midi":67,"time":26.774181499999994,"velocity":0.6299212598425197,"duration":0.32123641458333196},{"name":"G5","midi":79,"time":26.774181499999994,"velocity":0.6299212598425197,"duration":0.32123641458333196},{"name":"F4","midi":65,"time":27.09676199999999,"velocity":0.6299212598425197,"duration":0.32123641458333196},{"name":"F5","midi":77,"time":27.09676199999999,"velocity":0.6299212598425197,"duration":0.32123641458333196},{"name":"G4","midi":67,"time":27.41934249999999,"velocity":0.6299212598425197,"duration":0.1599461645833351},{"name":"G5","midi":79,"time":27.41934249999999,"velocity":0.6299212598425197,"duration":0.1599461645833351},{"name":"F4","midi":65,"time":27.58063274999999,"velocity":0.6299212598425197,"duration":0.1599461645833351},{"name":"F5","midi":77,"time":27.58063274999999,"velocity":0.6299212598425197,"duration":0.1599461645833351},{"name":"D#4","midi":63,"time":27.90321324999999,"velocity":0.6299212598425197,"duration":0.1599461645833351},{"name":"D#5","midi":75,"time":27.90321324999999,"velocity":0.6299212598425197,"duration":0.1599461645833351},{"name":"C4","midi":60,"time":28.06450349999999,"velocity":0.6299212598425197,"duration":0.32123641458333196},{"name":"C5","midi":72,"time":28.06450349999999,"velocity":0.6299212598425197,"duration":0.32123641458333196},{"name":"C4","midi":60,"time":28.709664499999988,"velocity":0.6299212598425197,"duration":0.15994616458333155},{"name":"C5","midi":72,"time":28.709664499999988,"velocity":0.6299212598425197,"duration":0.15994616458333155},{"name":"C4","midi":60,"time":28.870954749999985,"velocity":0.6299212598425197,"duration":0.1599461645833351},{"name":"C5","midi":72,"time":28.870954749999985,"velocity":0.6299212598425197,"duration":0.1599461645833351},{"name":"G4","midi":67,"time":29.032244999999985,"velocity":0.6299212598425197,"duration":0.1599461645833351},{"name":"G5","midi":79,"time":29.032244999999985,"velocity":0.6299212598425197,"duration":0.1599461645833351},{"name":"G4","midi":67,"time":29.354825499999986,"velocity":0.6299212598425197,"duration":0.32123641458333196},{"name":"G5","midi":79,"time":29.354825499999986,"velocity":0.6299212598425197,"duration":0.32123641458333196},{"name":"F4","midi":65,"time":29.677405999999984,"velocity":0.6299212598425197,"duration":0.32123641458333196},{"name":"F5","midi":77,"time":29.677405999999984,"velocity":0.6299212598425197,"duration":0.32123641458333196},{"name":"F4","midi":65,"time":29.99998649999998,"velocity":0.6299212598425197,"duration":0.1599461645833351},{"name":"F5","midi":77,"time":29.99998649999998,"velocity":0.6299212598425197,"duration":0.1599461645833351},{"name":"A#4","midi":70,"time":30.16127674999998,"velocity":0.6299212598425197,"duration":0.1599461645833351},{"name":"A#5","midi":82,"time":30.16127674999998,"velocity":0.6299212598425197,"duration":0.1599461645833351},{"name":"A#4","midi":70,"time":30.483857249999982,"velocity":0.6299212598425197,"duration":0.1599461645833351},{"name":"A#5","midi":82,"time":30.483857249999982,"velocity":0.6299212598425197,"duration":0.1599461645833351},{"name":"G4","midi":67,"time":30.645147499999982,"velocity":0.6299212598425197,"duration":0.32123641458333196},{"name":"G5","midi":79,"time":30.645147499999982,"velocity":0.6299212598425197,"duration":0.32123641458333196},{"name":"C4","midi":60,"time":31.29030849999998,"velocity":0.6299212598425197,"duration":0.32123641458333196},{"name":"C5","midi":72,"time":31.29030849999998,"velocity":0.6299212598425197,"duration":0.32123641458333196},{"name":"G4","midi":67,"time":31.612888999999978,"velocity":0.6299212598425197,"duration":0.1599461645833351},{"name":"G5","midi":79,"time":31.612888999999978,"velocity":0.6299212598425197,"duration":0.1599461645833351},{"name":"G4","midi":67,"time":31.93546949999998,"velocity":0.6299212598425197,"duration":0.3212364145833355},{"name":"G5","midi":79,"time":31.93546949999998,"velocity":0.6299212598425197,"duration":0.3212364145833355},{"name":"F4","midi":65,"time":32.25804999999998,"velocity":0.6299212598425197,"duration":0.32123641458333196},{"name":"F5","midi":77,"time":32.25804999999998,"velocity":0.6299212598425197,"duration":0.32123641458333196},{"name":"G4","midi":67,"time":32.580630499999984,"velocity":0.6299212598425197,"duration":0.15994616458333155},{"name":"G5","midi":79,"time":32.580630499999984,"velocity":0.6299212598425197,"duration":0.15994616458333155},{"name":"F4","midi":65,"time":32.741920749999984,"velocity":0.6299212598425197,"duration":0.15994616458333155},{"name":"F5","midi":77,"time":32.741920749999984,"velocity":0.6299212598425197,"duration":0.15994616458333155},{"name":"D#4","midi":63,"time":33.064501249999985,"velocity":0.6299212598425197,"duration":0.15994616458333155},{"name":"D#5","midi":75,"time":33.064501249999985,"velocity":0.6299212598425197,"duration":0.15994616458333155},{"name":"C4","midi":60,"time":33.225791499999985,"velocity":0.6299212598425197,"duration":0.32123641458333196},{"name":"C5","midi":72,"time":33.225791499999985,"velocity":0.6299212598425197,"duration":0.32123641458333196},{"name":"C4","midi":60,"time":33.548371999999986,"velocity":0.5039370078740157,"duration":0.6438169145833328},{"name":"C5","midi":72,"time":33.548371999999986,"velocity":0.5039370078740157,"duration":0.6438169145833328},{"name":"D#4","midi":63,"time":34.19353299999999,"velocity":0.5039370078740157,"duration":0.6438169145833328},{"name":"D#5","midi":75,"time":34.19353299999999,"velocity":0.5039370078740157,"duration":0.6438169145833328},{"name":"F4","midi":65,"time":34.83869399999999,"velocity":0.5039370078740157,"duration":0.6438169145833328},{"name":"F5","midi":77,"time":34.83869399999999,"velocity":0.5039370078740157,"duration":0.6438169145833328},{"name":"G4","midi":67,"time":35.48385499999999,"velocity":0.5039370078740157,"duration":0.6438169145833328},{"name":"G5","midi":79,"time":35.48385499999999,"velocity":0.5039370078740157,"duration":0.6438169145833328},{"name":"D#4","midi":63,"time":56.77416799999999,"velocity":0.5984251968503937,"duration":0.43010733333333206},{"name":"C5","midi":72,"time":56.77416799999999,"velocity":0.5984251968503937,"duration":0.43010733333333206},{"name":"D4","midi":62,"time":58.064489999999985,"velocity":0.5984251968503937,"duration":0.43010733333333206},{"name":"A#4","midi":70,"time":58.064489999999985,"velocity":0.5984251968503937,"duration":0.43010733333333206},{"name":"C4","midi":60,"time":59.35481199999998,"velocity":0.5984251968503937,"duration":0.43010733333333206},{"name":"G#4","midi":68,"time":59.35481199999998,"velocity":0.5984251968503937,"duration":0.43010733333333206},{"name":"D#4","midi":63,"time":61.93545599999998,"velocity":0.5984251968503937,"duration":0.43010733333333206},{"name":"C5","midi":72,"time":61.93545599999998,"velocity":0.5984251968503937,"duration":0.43010733333333206},{"name":"D4","midi":62,"time":63.22577799999998,"velocity":0.5984251968503937,"duration":0.43010733333333206},{"name":"A#4","midi":70,"time":63.22577799999998,"velocity":0.5984251968503937,"duration":0.43010733333333206},{"name":"C4","midi":60,"time":64.51609999999998,"velocity":0.4566929133858268,"duration":0.43010733333333917},{"name":"G#4","midi":68,"time":64.51609999999998,"velocity":0.4566929133858268,"duration":0.43010733333333917},{"name":"C4","midi":60,"time":88.06447649999998,"velocity":0.5039370078740157,"duration":0.32123641458333907},{"name":"C5","midi":72,"time":88.06447649999998,"velocity":0.5039370078740157,"duration":0.32123641458333907},{"name":"G4","midi":67,"time":88.38705699999998,"velocity":0.5039370078740157,"duration":0.15994616458333155},{"name":"G5","midi":79,"time":88.38705699999998,"velocity":0.5039370078740157,"duration":0.15994616458333155},{"name":"G4","midi":67,"time":88.70963749999999,"velocity":0.5039370078740157,"duration":0.32123641458333907},{"name":"G5","midi":79,"time":88.70963749999999,"velocity":0.5039370078740157,"duration":0.32123641458333907},{"name":"F4","midi":65,"time":89.03221799999999,"velocity":0.5039370078740157,"duration":0.32123641458333907},{"name":"F5","midi":77,"time":89.03221799999999,"velocity":0.5039370078740157,"duration":0.32123641458333907},{"name":"G4","midi":67,"time":89.35479849999999,"velocity":0.5039370078740157,"duration":0.15994616458333155},{"name":"G5","midi":79,"time":89.35479849999999,"velocity":0.5039370078740157,"duration":0.15994616458333155},{"name":"F4","midi":65,"time":89.51608874999998,"velocity":0.5039370078740157,"duration":0.15994616458333155},{"name":"F5","midi":77,"time":89.51608874999998,"velocity":0.5039370078740157,"duration":0.15994616458333155},{"name":"D#4","midi":63,"time":89.83866924999998,"velocity":0.5039370078740157,"duration":0.15994616458333155},{"name":"D#5","midi":75,"time":89.83866924999998,"velocity":0.5039370078740157,"duration":0.15994616458333155},{"name":"C4","midi":60,"time":89.99995949999997,"velocity":0.5039370078740157,"duration":0.32123641458333907},{"name":"C5","midi":72,"time":89.99995949999997,"velocity":0.5039370078740157,"duration":0.32123641458333907},{"name":"C4","midi":60,"time":90.64512049999998,"velocity":0.5039370078740157,"duration":0.15994616458333155},{"name":"C5","midi":72,"time":90.64512049999998,"velocity":0.5039370078740157,"duration":0.15994616458333155},{"name":"C4","midi":60,"time":90.80641074999997,"velocity":0.5039370078740157,"duration":0.15994616458333155},{"name":"C5","midi":72,"time":90.80641074999997,"velocity":0.5039370078740157,"duration":0.15994616458333155},{"name":"G4","midi":67,"time":90.96770099999996,"velocity":0.5039370078740157,"duration":0.15994616458333155},{"name":"G5","midi":79,"time":90.96770099999996,"velocity":0.5039370078740157,"duration":0.15994616458333155},{"name":"G4","midi":67,"time":91.29028149999996,"velocity":0.5039370078740157,"duration":0.32123641458333907},{"name":"G5","midi":79,"time":91.29028149999996,"velocity":0.5039370078740157,"duration":0.32123641458333907},{"name":"F4","midi":65,"time":91.61286199999996,"velocity":0.5039370078740157,"duration":0.32123641458333907},{"name":"F5","midi":77,"time":91.61286199999996,"velocity":0.5039370078740157,"duration":0.32123641458333907},{"name":"F4","midi":65,"time":91.93544249999997,"velocity":0.5039370078740157,"duration":0.15994616458333155},{"name":"F5","midi":77,"time":91.93544249999997,"velocity":0.5039370078740157,"duration":0.15994616458333155},{"name":"A#4","midi":70,"time":92.09673274999996,"velocity":0.5039370078740157,"duration":0.15994616458333155},{"name":"A#5","midi":82,"time":92.09673274999996,"velocity":0.5039370078740157,"duration":0.15994616458333155},{"name":"A#4","midi":70,"time":92.41931324999996,"velocity":0.5039370078740157,"duration":0.15994616458333155},{"name":"A#5","midi":82,"time":92.41931324999996,"velocity":0.5039370078740157,"duration":0.15994616458333155},{"name":"G4","midi":67,"time":92.58060349999995,"velocity":0.5039370078740157,"duration":0.32123641458333907},{"name":"G5","midi":79,"time":92.58060349999995,"velocity":0.5039370078740157,"duration":0.32123641458333907},{"name":"C4","midi":60,"time":93.22576449999995,"velocity":0.5039370078740157,"duration":0.32123641458333907},{"name":"C5","midi":72,"time":93.22576449999995,"velocity":0.5039370078740157,"duration":0.32123641458333907},{"name":"G4","midi":67,"time":93.54834499999996,"velocity":0.5039370078740157,"duration":0.15994616458333155},{"name":"G5","midi":79,"time":93.54834499999996,"velocity":0.5039370078740157,"duration":0.15994616458333155},{"name":"G4","midi":67,"time":93.87092549999996,"velocity":0.5039370078740157,"duration":0.32123641458333907},{"name":"G5","midi":79,"time":93.87092549999996,"velocity":0.5039370078740157,"duration":0.32123641458333907},{"name":"F4","midi":65,"time":94.19350599999996,"velocity":0.5039370078740157,"duration":0.32123641458333907},{"name":"F5","midi":77,"time":94.19350599999996,"velocity":0.5039370078740157,"duration":0.32123641458333907},{"name":"G4","midi":67,"time":94.51608649999996,"velocity":0.5039370078740157,"duration":0.15994616458333155},{"name":"G5","midi":79,"time":94.51608649999996,"velocity":0.5039370078740157,"duration":0.15994616458333155},{"name":"F4","midi":65,"time":94.67737674999995,"velocity":0.5039370078740157,"duration":0.15994616458333155},{"name":"F5","midi":77,"time":94.67737674999995,"velocity":0.5039370078740157,"duration":0.15994616458333155},{"name":"D#4","midi":63,"time":94.99995724999995,"velocity":0.5039370078740157,"duration":0.15994616458333155},{"name":"D#5","midi":75,"time":94.99995724999995,"velocity":0.5039370078740157,"duration":0.15994616458333155},{"name":"C4","midi":60,"time":95.16124749999994,"velocity":0.5039370078740157,"duration":0.32123641458333907},{"name":"C5","midi":72,"time":95.16124749999994,"velocity":0.5039370078740157,"duration":0.32123641458333907},{"name":"C4","midi":60,"time":95.48382799999995,"velocity":0.5039370078740157,"duration":0.6438169145833399},{"name":"C5","midi":72,"time":95.48382799999995,"velocity":0.5039370078740157,"duration":0.6438169145833399},{"name":"D#4","midi":63,"time":96.12898899999995,"velocity":0.5039370078740157,"duration":0.6438169145833399},{"name":"D#5","midi":75,"time":96.12898899999995,"velocity":0.5039370078740157,"duration":0.6438169145833399},{"name":"F4","midi":65,"time":96.77414999999995,"velocity":0.5039370078740157,"duration":0.6438169145833399},{"name":"F5","midi":77,"time":96.77414999999995,"velocity":0.5039370078740157,"duration":0.6438169145833399},{"name":"G4","midi":67,"time":97.41931099999995,"velocity":0.5039370078740157,"duration":0.6438169145833399},{"name":"G5","midi":79,"time":97.41931099999995,"velocity":0.5039370078740157,"duration":0.6438169145833399},{"name":"C4","midi":60,"time":98.38705249999995,"velocity":0.5039370078740157,"duration":0.32123641458333907},{"name":"C5","midi":72,"time":98.38705249999995,"velocity":0.5039370078740157,"duration":0.32123641458333907},{"name":"G4","midi":67,"time":98.70963299999995,"velocity":0.5039370078740157,"duration":0.15994616458333155},{"name":"G5","midi":79,"time":98.70963299999995,"velocity":0.5039370078740157,"duration":0.15994616458333155},{"name":"G4","midi":67,"time":99.03221349999995,"velocity":0.5039370078740157,"duration":0.32123641458333907},{"name":"G5","midi":79,"time":99.03221349999995,"velocity":0.5039370078740157,"duration":0.32123641458333907},{"name":"F4","midi":65,"time":99.35479399999996,"velocity":0.5039370078740157,"duration":0.32123641458333907},{"name":"F5","midi":77,"time":99.35479399999996,"velocity":0.5039370078740157,"duration":0.32123641458333907},{"name":"G4","midi":67,"time":99.67737449999996,"velocity":0.5039370078740157,"duration":0.15994616458333155},{"name":"G5","midi":79,"time":99.67737449999996,"velocity":0.5039370078740157,"duration":0.15994616458333155},{"name":"F4","midi":65,"time":99.83866474999995,"velocity":0.5039370078740157,"duration":0.15994616458333155},{"name":"F5","midi":77,"time":99.83866474999995,"velocity":0.5039370078740157,"duration":0.15994616458333155},{"name":"D#4","midi":63,"time":100.16124524999995,"velocity":0.5039370078740157,"duration":0.15994616458333155},{"name":"D#5","midi":75,"time":100.16124524999995,"velocity":0.5039370078740157,"duration":0.15994616458333155},{"name":"C4","midi":60,"time":100.32253549999994,"velocity":0.5039370078740157,"duration":0.32123641458333907},{"name":"C5","midi":72,"time":100.32253549999994,"velocity":0.5039370078740157,"duration":0.32123641458333907},{"name":"C4","midi":60,"time":100.96769649999995,"velocity":0.5039370078740157,"duration":0.15994616458333155},{"name":"C5","midi":72,"time":100.96769649999995,"velocity":0.5039370078740157,"duration":0.15994616458333155},{"name":"C4","midi":60,"time":101.12898674999994,"velocity":0.5039370078740157,"duration":0.15994616458333155},{"name":"C5","midi":72,"time":101.12898674999994,"velocity":0.5039370078740157,"duration":0.15994616458333155},{"name":"G4","midi":67,"time":101.29027699999993,"velocity":0.5039370078740157,"duration":0.15994616458333155},{"name":"G5","midi":79,"time":101.29027699999993,"velocity":0.5039370078740157,"duration":0.15994616458333155},{"name":"G4","midi":67,"time":101.61285749999993,"velocity":0.5039370078740157,"duration":0.32123641458333907},{"name":"G5","midi":79,"time":101.61285749999993,"velocity":0.5039370078740157,"duration":0.32123641458333907},{"name":"F4","midi":65,"time":101.93543799999993,"velocity":0.5039370078740157,"duration":0.32123641458333907},{"name":"F5","midi":77,"time":101.93543799999993,"velocity":0.5039370078740157,"duration":0.32123641458333907},{"name":"F4","midi":65,"time":102.25801849999993,"velocity":0.5039370078740157,"duration":0.15994616458333155},{"name":"F5","midi":77,"time":102.25801849999993,"velocity":0.5039370078740157,"duration":0.15994616458333155},{"name":"A#4","midi":70,"time":102.41930874999993,"velocity":0.5039370078740157,"duration":0.15994616458333155},{"name":"A#5","midi":82,"time":102.41930874999993,"velocity":0.5039370078740157,"duration":0.15994616458333155},{"name":"A#4","midi":70,"time":102.74188924999993,"velocity":0.5039370078740157,"duration":0.15994616458333155},{"name":"A#5","midi":82,"time":102.74188924999993,"velocity":0.5039370078740157,"duration":0.15994616458333155},{"name":"G4","midi":67,"time":102.90317949999992,"velocity":0.5039370078740157,"duration":0.32123641458333907},{"name":"G5","midi":79,"time":102.90317949999992,"velocity":0.5039370078740157,"duration":0.32123641458333907},{"name":"C4","midi":60,"time":103.54834049999992,"velocity":0.5039370078740157,"duration":0.32123641458333907},{"name":"C5","midi":72,"time":103.54834049999992,"velocity":0.5039370078740157,"duration":0.32123641458333907},{"name":"G4","midi":67,"time":103.87092099999992,"velocity":0.5039370078740157,"duration":0.15994616458333155},{"name":"G5","midi":79,"time":103.87092099999992,"velocity":0.5039370078740157,"duration":0.15994616458333155},{"name":"G4","midi":67,"time":104.19350149999993,"velocity":0.5039370078740157,"duration":0.32123641458333907},{"name":"G5","midi":79,"time":104.19350149999993,"velocity":0.5039370078740157,"duration":0.32123641458333907},{"name":"F4","midi":65,"time":104.51608199999993,"velocity":0.5039370078740157,"duration":0.32123641458333907},{"name":"F5","midi":77,"time":104.51608199999993,"velocity":0.5039370078740157,"duration":0.32123641458333907},{"name":"G4","midi":67,"time":104.83866249999993,"velocity":0.5039370078740157,"duration":0.15994616458333155},{"name":"G5","midi":79,"time":104.83866249999993,"velocity":0.5039370078740157,"duration":0.15994616458333155},{"name":"F4","midi":65,"time":104.99995274999992,"velocity":0.5039370078740157,"duration":0.15994616458333155},{"name":"F5","midi":77,"time":104.99995274999992,"velocity":0.5039370078740157,"duration":0.15994616458333155},{"name":"D#4","midi":63,"time":105.32253324999992,"velocity":0.5039370078740157,"duration":0.15994616458333155},{"name":"D#5","midi":75,"time":105.32253324999992,"velocity":0.5039370078740157,"duration":0.15994616458333155},{"name":"C4","midi":60,"time":105.48382349999991,"velocity":0.5039370078740157,"duration":0.32123641458333907},{"name":"C5","midi":72,"time":105.48382349999991,"velocity":0.5039370078740157,"duration":0.32123641458333907},{"name":"C4","midi":60,"time":105.80640399999992,"velocity":0.5039370078740157,"duration":0.6438169145833399},{"name":"C5","midi":72,"time":105.80640399999992,"velocity":0.5039370078740157,"duration":0.6438169145833399},{"name":"D#4","midi":63,"time":106.45156499999992,"velocity":0.5039370078740157,"duration":0.6438169145833399},{"name":"D#5","midi":75,"time":106.45156499999992,"velocity":0.5039370078740157,"duration":0.6438169145833399},{"name":"F4","midi":65,"time":107.09672599999992,"velocity":0.5039370078740157,"duration":0.6438169145833399},{"name":"F5","midi":77,"time":107.09672599999992,"velocity":0.5039370078740157,"duration":0.6438169145833399},{"name":"G4","midi":67,"time":107.74188699999992,"velocity":0.5039370078740157,"duration":0.6438169145833399},{"name":"G5","midi":79,"time":107.74188699999992,"velocity":0.5039370078740157,"duration":0.6438169145833399},{"name":"D#4","midi":63,"time":118.70962399999993,"velocity":0.4566929133858268,"duration":0.43010733333333917},{"name":"C5","midi":72,"time":118.70962399999993,"velocity":0.4566929133858268,"duration":0.43010733333333917},{"name":"D#4","midi":63,"time":119.67736549999994,"velocity":0.3858267716535433,"duration":0.32123641458333907},{"name":"C5","midi":72,"time":119.67736549999994,"velocity":0.3858267716535433,"duration":0.32123641458333907},{"name":"D4","midi":62,"time":119.99994599999994,"velocity":0.4566929133858268,"duration":0.43010733333333917},{"name":"A#4","midi":70,"time":119.99994599999994,"velocity":0.4566929133858268,"duration":0.43010733333333917},{"name":"D4","midi":62,"time":120.96768749999994,"velocity":0.3858267716535433,"duration":0.32123641458333907},{"name":"A#4","midi":70,"time":120.96768749999994,"velocity":0.3858267716535433,"duration":0.32123641458333907},{"name":"C4","midi":60,"time":121.29026799999994,"velocity":0.4566929133858268,"duration":0.43010733333333917},{"name":"G#4","midi":68,"time":121.29026799999994,"velocity":0.4566929133858268,"duration":0.43010733333333917},{"name":"D#4","midi":63,"time":123.87091199999995,"velocity":0.4566929133858268,"duration":0.43010733333333917},{"name":"C5","midi":72,"time":123.87091199999995,"velocity":0.4566929133858268,"duration":0.43010733333333917},{"name":"D#4","midi":63,"time":124.83865349999995,"velocity":0.3858267716535433,"duration":0.32123641458333907},{"name":"C5","midi":72,"time":124.83865349999995,"velocity":0.3858267716535433,"duration":0.32123641458333907},{"name":"D4","midi":62,"time":125.16123399999995,"velocity":0.4566929133858268,"duration":0.43010733333333917},{"name":"A#4","midi":70,"time":125.16123399999995,"velocity":0.4566929133858268,"duration":0.43010733333333917},{"name":"D4","midi":62,"time":126.12897549999995,"velocity":0.3858267716535433,"duration":0.32123641458333907},{"name":"A#4","midi":70,"time":126.12897549999995,"velocity":0.3858267716535433,"duration":0.32123641458333907},{"name":"C4","midi":60,"time":126.45155599999995,"velocity":0.4566929133858268,"duration":0.43010733333333917},{"name":"G#4","midi":68,"time":126.45155599999995,"velocity":0.4566929133858268,"duration":0.43010733333333917},{"name":"C4","midi":60,"time":149.99993249999997,"velocity":0.5039370078740157,"duration":0.32123641458332486},{"name":"C5","midi":72,"time":149.99993249999997,"velocity":0.5039370078740157,"duration":0.32123641458332486},{"name":"G4","midi":67,"time":150.32251299999996,"velocity":0.5039370078740157,"duration":0.15994616458334576},{"name":"G5","midi":79,"time":150.32251299999996,"velocity":0.5039370078740157,"duration":0.15994616458334576},{"name":"G4","midi":67,"time":150.64509349999997,"velocity":0.5039370078740157,"duration":0.32123641458332486},{"name":"G5","midi":79,"time":150.64509349999997,"velocity":0.5039370078740157,"duration":0.32123641458332486},{"name":"F4","midi":65,"time":150.96767399999996,"velocity":0.5039370078740157,"duration":0.32123641458332486},{"name":"F5","midi":77,"time":150.96767399999996,"velocity":0.5039370078740157,"duration":0.32123641458332486},{"name":"G4","midi":67,"time":151.29025449999995,"velocity":0.5039370078740157,"duration":0.15994616458334576},{"name":"G5","midi":79,"time":151.29025449999995,"velocity":0.5039370078740157,"duration":0.15994616458334576},{"name":"F4","midi":65,"time":151.45154474999995,"velocity":0.5039370078740157,"duration":0.15994616458334576},{"name":"F5","midi":77,"time":151.45154474999995,"velocity":0.5039370078740157,"duration":0.15994616458334576},{"name":"D#4","midi":63,"time":151.77412524999997,"velocity":0.5039370078740157,"duration":0.15994616458334576},{"name":"D#5","midi":75,"time":151.77412524999997,"velocity":0.5039370078740157,"duration":0.15994616458334576},{"name":"C4","midi":60,"time":151.93541549999998,"velocity":0.5039370078740157,"duration":0.32123641458332486},{"name":"C5","midi":72,"time":151.93541549999998,"velocity":0.5039370078740157,"duration":0.32123641458332486},{"name":"C4","midi":60,"time":152.58057649999998,"velocity":0.5039370078740157,"duration":0.15994616458334576},{"name":"C5","midi":72,"time":152.58057649999998,"velocity":0.5039370078740157,"duration":0.15994616458334576},{"name":"C4","midi":60,"time":152.74186674999999,"velocity":0.5039370078740157,"duration":0.15994616458334576},{"name":"C5","midi":72,"time":152.74186674999999,"velocity":0.5039370078740157,"duration":0.15994616458334576},{"name":"G4","midi":67,"time":152.903157,"velocity":0.5039370078740157,"duration":0.15994616458334576},{"name":"G5","midi":79,"time":152.903157,"velocity":0.5039370078740157,"duration":0.15994616458334576},{"name":"G4","midi":67,"time":153.2257375,"velocity":0.5039370078740157,"duration":0.32123641458332486},{"name":"G5","midi":79,"time":153.2257375,"velocity":0.5039370078740157,"duration":0.32123641458332486},{"name":"F4","midi":65,"time":153.548318,"velocity":0.5039370078740157,"duration":0.32123641458332486},{"name":"F5","midi":77,"time":153.548318,"velocity":0.5039370078740157,"duration":0.32123641458332486},{"name":"F4","midi":65,"time":153.87089849999998,"velocity":0.5039370078740157,"duration":0.15994616458334576},{"name":"F5","midi":77,"time":153.87089849999998,"velocity":0.5039370078740157,"duration":0.15994616458334576},{"name":"A#4","midi":70,"time":154.03218875,"velocity":0.5039370078740157,"duration":0.15994616458334576},{"name":"A#5","midi":82,"time":154.03218875,"velocity":0.5039370078740157,"duration":0.15994616458334576},{"name":"A#4","midi":70,"time":154.35476925,"velocity":0.5039370078740157,"duration":0.15994616458334576},{"name":"A#5","midi":82,"time":154.35476925,"velocity":0.5039370078740157,"duration":0.15994616458334576},{"name":"G4","midi":67,"time":154.5160595,"velocity":0.5039370078740157,"duration":0.32123641458332486},{"name":"G5","midi":79,"time":154.5160595,"velocity":0.5039370078740157,"duration":0.32123641458332486},{"name":"C4","midi":60,"time":155.1612205,"velocity":0.5039370078740157,"duration":0.32123641458332486},{"name":"C5","midi":72,"time":155.1612205,"velocity":0.5039370078740157,"duration":0.32123641458332486},{"name":"G4","midi":67,"time":155.483801,"velocity":0.5039370078740157,"duration":0.15994616458334576},{"name":"G5","midi":79,"time":155.483801,"velocity":0.5039370078740157,"duration":0.15994616458334576},{"name":"G4","midi":67,"time":155.80638150000001,"velocity":0.5039370078740157,"duration":0.32123641458332486},{"name":"G5","midi":79,"time":155.80638150000001,"velocity":0.5039370078740157,"duration":0.32123641458332486},{"name":"F4","midi":65,"time":156.128962,"velocity":0.5039370078740157,"duration":0.32123641458332486},{"name":"F5","midi":77,"time":156.128962,"velocity":0.5039370078740157,"duration":0.32123641458332486},{"name":"G4","midi":67,"time":156.4515425,"velocity":0.5039370078740157,"duration":0.15994616458334576},{"name":"G5","midi":79,"time":156.4515425,"velocity":0.5039370078740157,"duration":0.15994616458334576},{"name":"F4","midi":65,"time":156.61283275,"velocity":0.5039370078740157,"duration":0.15994616458334576},{"name":"F5","midi":77,"time":156.61283275,"velocity":0.5039370078740157,"duration":0.15994616458334576},{"name":"D#4","midi":63,"time":156.93541325,"velocity":0.5039370078740157,"duration":0.15994616458334576},{"name":"D#5","midi":75,"time":156.93541325,"velocity":0.5039370078740157,"duration":0.15994616458334576},{"name":"C4","midi":60,"time":157.09670350000002,"velocity":0.5039370078740157,"duration":0.32123641458332486},{"name":"C5","midi":72,"time":157.09670350000002,"velocity":0.5039370078740157,"duration":0.32123641458332486},{"name":"C4","midi":60,"time":157.419284,"velocity":0.5039370078740157,"duration":0.6438169145833399},{"name":"C5","midi":72,"time":157.419284,"velocity":0.5039370078740157,"duration":0.6438169145833399},{"name":"D#4","midi":63,"time":158.064445,"velocity":0.5039370078740157,"duration":0.6438169145833399},{"name":"D#5","midi":75,"time":158.064445,"velocity":0.5039370078740157,"duration":0.6438169145833399},{"name":"F4","midi":65,"time":158.709606,"velocity":0.5039370078740157,"duration":0.6438169145833399},{"name":"F5","midi":77,"time":158.709606,"velocity":0.5039370078740157,"duration":0.6438169145833399},{"name":"G4","midi":67,"time":159.354767,"velocity":0.5039370078740157,"duration":0.6438169145833399},{"name":"G5","midi":79,"time":159.354767,"velocity":0.5039370078740157,"duration":0.6438169145833399},{"name":"C4","midi":60,"time":160.32250850000003,"velocity":0.5039370078740157,"duration":0.32123641458332486},{"name":"C5","midi":72,"time":160.32250850000003,"velocity":0.5039370078740157,"duration":0.32123641458332486},{"name":"G4","midi":67,"time":160.645089,"velocity":0.5039370078740157,"duration":0.15994616458334576},{"name":"G5","midi":79,"time":160.645089,"velocity":0.5039370078740157,"duration":0.15994616458334576},{"name":"G4","midi":67,"time":160.96766950000003,"velocity":0.5039370078740157,"duration":0.32123641458332486},{"name":"G5","midi":79,"time":160.96766950000003,"velocity":0.5039370078740157,"duration":0.32123641458332486},{"name":"F4","midi":65,"time":161.29025000000001,"velocity":0.5039370078740157,"duration":0.32123641458332486},{"name":"F5","midi":77,"time":161.29025000000001,"velocity":0.5039370078740157,"duration":0.32123641458332486},{"name":"G4","midi":67,"time":161.6128305,"velocity":0.5039370078740157,"duration":0.15994616458334576},{"name":"G5","midi":79,"time":161.6128305,"velocity":0.5039370078740157,"duration":0.15994616458334576},{"name":"F4","midi":65,"time":161.77412075,"velocity":0.5039370078740157,"duration":0.15994616458334576},{"name":"F5","midi":77,"time":161.77412075,"velocity":0.5039370078740157,"duration":0.15994616458334576},{"name":"D#4","midi":63,"time":162.09670125000002,"velocity":0.5039370078740157,"duration":0.15994616458334576},{"name":"D#5","midi":75,"time":162.09670125000002,"velocity":0.5039370078740157,"duration":0.15994616458334576},{"name":"C4","midi":60,"time":162.25799150000003,"velocity":0.5039370078740157,"duration":0.32123641458332486},{"name":"C5","midi":72,"time":162.25799150000003,"velocity":0.5039370078740157,"duration":0.32123641458332486},{"name":"C4","midi":60,"time":162.90315250000003,"velocity":0.5039370078740157,"duration":0.15994616458334576},{"name":"C5","midi":72,"time":162.90315250000003,"velocity":0.5039370078740157,"duration":0.15994616458334576},{"name":"C4","midi":60,"time":163.06444275000004,"velocity":0.5039370078740157,"duration":0.15994616458334576},{"name":"C5","midi":72,"time":163.06444275000004,"velocity":0.5039370078740157,"duration":0.15994616458334576},{"name":"G4","midi":67,"time":163.22573300000005,"velocity":0.5039370078740157,"duration":0.15994616458334576},{"name":"G5","midi":79,"time":163.22573300000005,"velocity":0.5039370078740157,"duration":0.15994616458334576},{"name":"G4","midi":67,"time":163.54831350000006,"velocity":0.5039370078740157,"duration":0.32123641458332486},{"name":"G5","midi":79,"time":163.54831350000006,"velocity":0.5039370078740157,"duration":0.32123641458332486},{"name":"F4","midi":65,"time":163.87089400000005,"velocity":0.5039370078740157,"duration":0.32123641458332486},{"name":"F5","midi":77,"time":163.87089400000005,"velocity":0.5039370078740157,"duration":0.32123641458332486},{"name":"F4","midi":65,"time":164.19347450000004,"velocity":0.5039370078740157,"duration":0.15994616458334576},{"name":"F5","midi":77,"time":164.19347450000004,"velocity":0.5039370078740157,"duration":0.15994616458334576},{"name":"A#4","midi":70,"time":164.35476475000004,"velocity":0.5039370078740157,"duration":0.15994616458334576},{"name":"A#5","midi":82,"time":164.35476475000004,"velocity":0.5039370078740157,"duration":0.15994616458334576},{"name":"A#4","midi":70,"time":164.67734525000006,"velocity":0.5039370078740157,"duration":0.15994616458334576},{"name":"A#5","midi":82,"time":164.67734525000006,"velocity":0.5039370078740157,"duration":0.15994616458334576},{"name":"G4","midi":67,"time":164.83863550000007,"velocity":0.5039370078740157,"duration":0.32123641458332486},{"name":"G5","midi":79,"time":164.83863550000007,"velocity":0.5039370078740157,"duration":0.32123641458332486},{"name":"C4","midi":60,"time":165.48379650000007,"velocity":0.5039370078740157,"duration":0.32123641458332486},{"name":"C5","midi":72,"time":165.48379650000007,"velocity":0.5039370078740157,"duration":0.32123641458332486},{"name":"G4","midi":67,"time":165.80637700000005,"velocity":0.5039370078740157,"duration":0.15994616458334576},{"name":"G5","midi":79,"time":165.80637700000005,"velocity":0.5039370078740157,"duration":0.15994616458334576},{"name":"G4","midi":67,"time":166.12895750000007,"velocity":0.5039370078740157,"duration":0.32123641458332486},{"name":"G5","midi":79,"time":166.12895750000007,"velocity":0.5039370078740157,"duration":0.32123641458332486},{"name":"F4","midi":65,"time":166.45153800000006,"velocity":0.5039370078740157,"duration":0.32123641458332486},{"name":"F5","midi":77,"time":166.45153800000006,"velocity":0.5039370078740157,"duration":0.32123641458332486},{"name":"G4","midi":67,"time":166.77411850000004,"velocity":0.5039370078740157,"duration":0.15994616458334576},{"name":"G5","midi":79,"time":166.77411850000004,"velocity":0.5039370078740157,"duration":0.15994616458334576},{"name":"F4","midi":65,"time":166.93540875000005,"velocity":0.5039370078740157,"duration":0.15994616458334576},{"name":"F5","midi":77,"time":166.93540875000005,"velocity":0.5039370078740157,"duration":0.15994616458334576},{"name":"D#4","midi":63,"time":167.25798925000007,"velocity":0.5039370078740157,"duration":0.15994616458334576},{"name":"D#5","midi":75,"time":167.25798925000007,"velocity":0.5039370078740157,"duration":0.15994616458334576},{"name":"C4","midi":60,"time":167.41927950000007,"velocity":0.5039370078740157,"duration":0.32123641458332486},{"name":"C5","midi":72,"time":167.41927950000007,"velocity":0.5039370078740157,"duration":0.32123641458332486},{"name":"C4","midi":60,"time":167.74186000000006,"velocity":0.5039370078740157,"duration":0.6438169145833399},{"name":"C5","midi":72,"time":167.74186000000006,"velocity":0.5039370078740157,"duration":0.6438169145833399},{"name":"D#4","midi":63,"time":168.38702100000006,"velocity":0.5039370078740157,"duration":0.6438169145833399},{"name":"D#5","midi":75,"time":168.38702100000006,"velocity":0.5039370078740157,"duration":0.6438169145833399},{"name":"F4","midi":65,"time":169.03218200000006,"velocity":0.5039370078740157,"duration":0.6438169145833399},{"name":"F5","midi":77,"time":169.03218200000006,"velocity":0.5039370078740157,"duration":0.6438169145833399},{"name":"G4","midi":67,"time":169.67734300000006,"velocity":0.5039370078740157,"duration":0.6438169145833399},{"name":"G5","midi":79,"time":169.67734300000006,"velocity":0.5039370078740157,"duration":0.6438169145833399},{"name":"C4","midi":60,"time":191.29023650000008,"velocity":0.6299212598425197,"duration":0.32123641458332486},{"name":"C5","midi":72,"time":191.29023650000008,"velocity":0.6299212598425197,"duration":0.32123641458332486},{"name":"G4","midi":67,"time":191.61281700000006,"velocity":0.6299212598425197,"duration":0.15994616458334576},{"name":"G5","midi":79,"time":191.61281700000006,"velocity":0.6299212598425197,"duration":0.15994616458334576},{"name":"G4","midi":67,"time":191.93539750000008,"velocity":0.6299212598425197,"duration":0.32123641458332486},{"name":"G5","midi":79,"time":191.93539750000008,"velocity":0.6299212598425197,"duration":0.32123641458332486},{"name":"F4","midi":65,"time":192.25797800000007,"velocity":0.6299212598425197,"duration":0.32123641458332486},{"name":"F5","midi":77,"time":192.25797800000007,"velocity":0.6299212598425197,"duration":0.32123641458332486},{"name":"G4","midi":67,"time":192.58055850000005,"velocity":0.6299212598425197,"duration":0.15994616458334576},{"name":"G5","midi":79,"time":192.58055850000005,"velocity":0.6299212598425197,"duration":0.15994616458334576},{"name":"F4","midi":65,"time":192.74184875000006,"velocity":0.6299212598425197,"duration":0.15994616458334576},{"name":"F5","midi":77,"time":192.74184875000006,"velocity":0.6299212598425197,"duration":0.15994616458334576},{"name":"D#4","midi":63,"time":193.06442925000007,"velocity":0.6299212598425197,"duration":0.15994616458334576},{"name":"D#5","midi":75,"time":193.06442925000007,"velocity":0.6299212598425197,"duration":0.15994616458334576},{"name":"C4","midi":60,"time":193.22571950000008,"velocity":0.6299212598425197,"duration":0.32123641458332486},{"name":"C5","midi":72,"time":193.22571950000008,"velocity":0.6299212598425197,"duration":0.32123641458332486},{"name":"C4","midi":60,"time":193.87088050000008,"velocity":0.6299212598425197,"duration":0.15994616458334576},{"name":"C5","midi":72,"time":193.87088050000008,"velocity":0.6299212598425197,"duration":0.15994616458334576},{"name":"C4","midi":60,"time":194.0321707500001,"velocity":0.6299212598425197,"duration":0.15994616458334576},{"name":"C5","midi":72,"time":194.0321707500001,"velocity":0.6299212598425197,"duration":0.15994616458334576},{"name":"G4","midi":67,"time":194.1934610000001,"velocity":0.6299212598425197,"duration":0.15994616458334576},{"name":"G5","midi":79,"time":194.1934610000001,"velocity":0.6299212598425197,"duration":0.15994616458334576},{"name":"G4","midi":67,"time":194.5160415000001,"velocity":0.6299212598425197,"duration":0.32123641458332486},{"name":"G5","midi":79,"time":194.5160415000001,"velocity":0.6299212598425197,"duration":0.32123641458332486},{"name":"F4","midi":65,"time":194.8386220000001,"velocity":0.6299212598425197,"duration":0.32123641458332486},{"name":"F5","midi":77,"time":194.8386220000001,"velocity":0.6299212598425197,"duration":0.32123641458332486},{"name":"F4","midi":65,"time":195.1612025000001,"velocity":0.6299212598425197,"duration":0.15994616458334576},{"name":"F5","midi":77,"time":195.1612025000001,"velocity":0.6299212598425197,"duration":0.15994616458334576},{"name":"A#4","midi":70,"time":195.3224927500001,"velocity":0.6299212598425197,"duration":0.15994616458334576},{"name":"A#5","midi":82,"time":195.3224927500001,"velocity":0.6299212598425197,"duration":0.15994616458334576},{"name":"A#4","midi":70,"time":195.6450732500001,"velocity":0.6299212598425197,"duration":0.15994616458334576},{"name":"A#5","midi":82,"time":195.6450732500001,"velocity":0.6299212598425197,"duration":0.15994616458334576},{"name":"G4","midi":67,"time":195.80636350000012,"velocity":0.6299212598425197,"duration":0.32123641458332486},{"name":"G5","midi":79,"time":195.80636350000012,"velocity":0.6299212598425197,"duration":0.32123641458332486},{"name":"C4","midi":60,"time":196.45152450000012,"velocity":0.6299212598425197,"duration":0.32123641458332486},{"name":"C5","midi":72,"time":196.45152450000012,"velocity":0.6299212598425197,"duration":0.32123641458332486},{"name":"G4","midi":67,"time":196.7741050000001,"velocity":0.6299212598425197,"duration":0.15994616458334576},{"name":"G5","midi":79,"time":196.7741050000001,"velocity":0.6299212598425197,"duration":0.15994616458334576},{"name":"G4","midi":67,"time":197.09668550000012,"velocity":0.6299212598425197,"duration":0.32123641458332486},{"name":"G5","midi":79,"time":197.09668550000012,"velocity":0.6299212598425197,"duration":0.32123641458332486},{"name":"F4","midi":65,"time":197.4192660000001,"velocity":0.6299212598425197,"duration":0.32123641458332486},{"name":"F5","midi":77,"time":197.4192660000001,"velocity":0.6299212598425197,"duration":0.32123641458332486},{"name":"G4","midi":67,"time":197.7418465000001,"velocity":0.6299212598425197,"duration":0.15994616458334576},{"name":"G5","midi":79,"time":197.7418465000001,"velocity":0.6299212598425197,"duration":0.15994616458334576},{"name":"F4","midi":65,"time":197.9031367500001,"velocity":0.6299212598425197,"duration":0.15994616458334576},{"name":"F5","midi":77,"time":197.9031367500001,"velocity":0.6299212598425197,"duration":0.15994616458334576},{"name":"D#4","midi":63,"time":198.22571725000012,"velocity":0.6299212598425197,"duration":0.15994616458334576},{"name":"D#5","midi":75,"time":198.22571725000012,"velocity":0.6299212598425197,"duration":0.15994616458334576},{"name":"C4","midi":60,"time":198.38700750000012,"velocity":0.6299212598425197,"duration":0.32123641458332486},{"name":"C5","midi":72,"time":198.38700750000012,"velocity":0.6299212598425197,"duration":0.32123641458332486},{"name":"C4","midi":60,"time":198.7095880000001,"velocity":0.5039370078740157,"duration":0.6438169145833399},{"name":"C5","midi":72,"time":198.7095880000001,"velocity":0.5039370078740157,"duration":0.6438169145833399},{"name":"D#4","midi":63,"time":199.3547490000001,"velocity":0.5039370078740157,"duration":0.6438169145833399},{"name":"D#5","midi":75,"time":199.3547490000001,"velocity":0.5039370078740157,"duration":0.6438169145833399},{"name":"F4","midi":65,"time":199.9999100000001,"velocity":0.5039370078740157,"duration":0.6438169145833399},{"name":"F5","midi":77,"time":199.9999100000001,"velocity":0.5039370078740157,"duration":0.6438169145833399},{"name":"G4","midi":67,"time":200.64507100000012,"velocity":0.5039370078740157,"duration":0.6438169145833399},{"name":"G5","midi":79,"time":200.64507100000012,"velocity":0.5039370078740157,"duration":0.6438169145833399},{"name":"C4","midi":60,"time":201.61281250000013,"velocity":0.6299212598425197,"duration":0.32123641458332486},{"name":"C5","midi":72,"time":201.61281250000013,"velocity":0.6299212598425197,"duration":0.32123641458332486},{"name":"G4","midi":67,"time":201.93539300000012,"velocity":0.6299212598425197,"duration":0.15994616458334576},{"name":"G5","midi":79,"time":201.93539300000012,"velocity":0.6299212598425197,"duration":0.15994616458334576},{"name":"G4","midi":67,"time":202.25797350000013,"velocity":0.6299212598425197,"duration":0.32123641458332486},{"name":"G5","midi":79,"time":202.25797350000013,"velocity":0.6299212598425197,"duration":0.32123641458332486},{"name":"F4","midi":65,"time":202.58055400000012,"velocity":0.6299212598425197,"duration":0.32123641458332486},{"name":"F5","midi":77,"time":202.58055400000012,"velocity":0.6299212598425197,"duration":0.32123641458332486},{"name":"G4","midi":67,"time":202.9031345000001,"velocity":0.6299212598425197,"duration":0.15994616458334576},{"name":"G5","midi":79,"time":202.9031345000001,"velocity":0.6299212598425197,"duration":0.15994616458334576},{"name":"F4","midi":65,"time":203.06442475000011,"velocity":0.6299212598425197,"duration":0.15994616458334576},{"name":"F5","midi":77,"time":203.06442475000011,"velocity":0.6299212598425197,"duration":0.15994616458334576},{"name":"D#4","midi":63,"time":203.38700525000013,"velocity":0.6299212598425197,"duration":0.15994616458334576},{"name":"D#5","midi":75,"time":203.38700525000013,"velocity":0.6299212598425197,"duration":0.15994616458334576},{"name":"C4","midi":60,"time":203.54829550000014,"velocity":0.6299212598425197,"duration":0.32123641458332486},{"name":"C5","midi":72,"time":203.54829550000014,"velocity":0.6299212598425197,"duration":0.32123641458332486},{"name":"C4","midi":60,"time":204.19345650000014,"velocity":0.6299212598425197,"duration":0.15994616458334576},{"name":"C5","midi":72,"time":204.19345650000014,"velocity":0.6299212598425197,"duration":0.15994616458334576},{"name":"C4","midi":60,"time":204.35474675000015,"velocity":0.6299212598425197,"duration":0.15994616458334576},{"name":"C5","midi":72,"time":204.35474675000015,"velocity":0.6299212598425197,"duration":0.15994616458334576},{"name":"G4","midi":67,"time":204.51603700000015,"velocity":0.6299212598425197,"duration":0.15994616458334576},{"name":"G5","midi":79,"time":204.51603700000015,"velocity":0.6299212598425197,"duration":0.15994616458334576},{"name":"G4","midi":67,"time":204.83861750000017,"velocity":0.6299212598425197,"duration":0.32123641458332486},{"name":"G5","midi":79,"time":204.83861750000017,"velocity":0.6299212598425197,"duration":0.32123641458332486},{"name":"F4","midi":65,"time":205.16119800000016,"velocity":0.6299212598425197,"duration":0.32123641458332486},{"name":"F5","midi":77,"time":205.16119800000016,"velocity":0.6299212598425197,"duration":0.32123641458332486},{"name":"F4","midi":65,"time":205.48377850000014,"velocity":0.6299212598425197,"duration":0.15994616458334576},{"name":"F5","midi":77,"time":205.48377850000014,"velocity":0.6299212598425197,"duration":0.15994616458334576},{"name":"A#4","midi":70,"time":205.64506875000015,"velocity":0.6299212598425197,"duration":0.15994616458334576},{"name":"A#5","midi":82,"time":205.64506875000015,"velocity":0.6299212598425197,"duration":0.15994616458334576},{"name":"A#4","midi":70,"time":205.96764925000016,"velocity":0.6299212598425197,"duration":0.15994616458334576},{"name":"A#5","midi":82,"time":205.96764925000016,"velocity":0.6299212598425197,"duration":0.15994616458334576},{"name":"G4","midi":67,"time":206.12893950000017,"velocity":0.6299212598425197,"duration":0.32123641458332486},{"name":"G5","midi":79,"time":206.12893950000017,"velocity":0.6299212598425197,"duration":0.32123641458332486},{"name":"C4","midi":60,"time":206.77410050000017,"velocity":0.6299212598425197,"duration":0.32123641458332486},{"name":"C5","midi":72,"time":206.77410050000017,"velocity":0.6299212598425197,"duration":0.32123641458332486},{"name":"G4","midi":67,"time":207.09668100000016,"velocity":0.6299212598425197,"duration":0.15994616458334576},{"name":"G5","midi":79,"time":207.09668100000016,"velocity":0.6299212598425197,"duration":0.15994616458334576},{"name":"G4","midi":67,"time":207.41926150000018,"velocity":0.6299212598425197,"duration":0.32123641458332486},{"name":"G5","midi":79,"time":207.41926150000018,"velocity":0.6299212598425197,"duration":0.32123641458332486},{"name":"F4","midi":65,"time":207.74184200000016,"velocity":0.6299212598425197,"duration":0.32123641458332486},{"name":"F5","midi":77,"time":207.74184200000016,"velocity":0.6299212598425197,"duration":0.32123641458332486},{"name":"G4","midi":67,"time":208.06442250000015,"velocity":0.6299212598425197,"duration":0.15994616458334576},{"name":"G5","midi":79,"time":208.06442250000015,"velocity":0.6299212598425197,"duration":0.15994616458334576},{"name":"F4","midi":65,"time":208.22571275000016,"velocity":0.6299212598425197,"duration":0.15994616458334576},{"name":"F5","midi":77,"time":208.22571275000016,"velocity":0.6299212598425197,"duration":0.15994616458334576},{"name":"D#4","midi":63,"time":208.54829325000017,"velocity":0.6299212598425197,"duration":0.15994616458334576},{"name":"D#5","midi":75,"time":208.54829325000017,"velocity":0.6299212598425197,"duration":0.15994616458334576},{"name":"C4","midi":60,"time":208.70958350000018,"velocity":0.6299212598425197,"duration":0.32123641458332486},{"name":"C5","midi":72,"time":208.70958350000018,"velocity":0.6299212598425197,"duration":0.32123641458332486},{"name":"C4","midi":60,"time":209.03216400000017,"velocity":0.5039370078740157,"duration":0.6438169145833399},{"name":"C5","midi":72,"time":209.03216400000017,"velocity":0.5039370078740157,"duration":0.6438169145833399},{"name":"D#4","midi":63,"time":209.67732500000017,"velocity":0.5039370078740157,"duration":0.6438169145833399},{"name":"D#5","midi":75,"time":209.67732500000017,"velocity":0.5039370078740157,"duration":0.6438169145833399},{"name":"F4","midi":65,"time":210.32248600000017,"velocity":0.5039370078740157,"duration":0.6438169145833399},{"name":"F5","midi":77,"time":210.32248600000017,"velocity":0.5039370078740157,"duration":0.6438169145833399},{"name":"G4","midi":67,"time":210.96764700000017,"velocity":0.5039370078740157,"duration":0.6438169145833399},{"name":"G5","midi":79,"time":210.96764700000017,"velocity":0.5039370078740157,"duration":0.6438169145833399}]},{"instrument_number":67,"notes":[{"name":"C3","midi":48,"time":5.161288,"velocity":0.5039370078740157,"duration":1.2889779145833336},{"name":"A#2","midi":46,"time":6.4516100000000005,"velocity":0.5039370078740157,"duration":1.2889779145833336},{"name":"G#2","midi":44,"time":7.741932000000001,"velocity":0.5039370078740157,"duration":1.2889779145833336},{"name":"A#2","midi":46,"time":9.032254000000002,"velocity":0.5039370078740157,"duration":1.2889779145833327},{"name":"C3","midi":48,"time":10.322576000000002,"velocity":0.5039370078740157,"duration":1.2889779145833327},{"name":"A#2","midi":46,"time":11.612898000000001,"velocity":0.5039370078740157,"duration":1.2889779145833327},{"name":"G#2","midi":44,"time":12.903220000000001,"velocity":0.5039370078740157,"duration":1.2889779145833327},{"name":"A#2","midi":46,"time":14.193542,"velocity":0.5039370078740157,"duration":0.32123641458333374},{"name":"G2","midi":43,"time":14.516122500000002,"velocity":0.5039370078740157,"duration":0.32123641458333374},{"name":"D3","midi":50,"time":14.838703000000002,"velocity":0.5039370078740157,"duration":0.6438169145833328},{"name":"A#2","midi":46,"time":16.774186,"velocity":0.5039370078740157,"duration":1.2889779145833344},{"name":"G#2","midi":44,"time":18.064508,"velocity":0.5039370078740157,"duration":1.2889779145833344},{"name":"A#2","midi":46,"time":19.35483,"velocity":0.5039370078740157,"duration":1.2889779145833344},{"name":"A#2","midi":46,"time":21.935474,"velocity":0.5039370078740157,"duration":1.2889779145833344},{"name":"G#2","midi":44,"time":23.225796,"velocity":0.5039370078740157,"duration":1.2889779145833344},{"name":"A#2","midi":46,"time":27.096762,"velocity":0.5039370078740157,"duration":1.2889779145833344},{"name":"G#2","midi":44,"time":28.387083999999998,"velocity":0.5039370078740157,"duration":1.2889779145833344},{"name":"A#2","midi":46,"time":29.677405999999998,"velocity":0.5039370078740157,"duration":1.2889779145833344},{"name":"A#2","midi":46,"time":32.25805,"velocity":0.5039370078740157,"duration":1.2889779145833344},{"name":"G#2","midi":44,"time":33.548372,"velocity":0.5039370078740157,"duration":1.2889779145833344},{"name":"A#2","midi":46,"time":34.838694000000004,"velocity":0.5039370078740157,"duration":1.2889779145833344},{"name":"C3","midi":48,"time":46.451592000000005,"velocity":0.5039370078740157,"duration":0.6438169145833328},{"name":"C3","midi":48,"time":47.41933350000001,"velocity":0.5039370078740157,"duration":0.32123641458333196},{"name":"A#2","midi":46,"time":47.74191400000001,"velocity":0.5039370078740157,"duration":0.6438169145833328},{"name":"A#2","midi":46,"time":48.70965550000001,"velocity":0.5039370078740157,"duration":0.32123641458333196},{"name":"G#2","midi":44,"time":49.03223600000001,"velocity":0.5039370078740157,"duration":0.6438169145833328},{"name":"G#2","midi":44,"time":49.999977500000014,"velocity":0.5039370078740157,"duration":0.32123641458333196},{"name":"A#2","midi":46,"time":50.322558000000015,"velocity":0.5039370078740157,"duration":0.6438169145833328},{"name":"A#2","midi":46,"time":51.29029950000002,"velocity":0.5039370078740157,"duration":0.32123641458333196},{"name":"C3","midi":48,"time":51.61288000000002,"velocity":0.5039370078740157,"duration":0.6438169145833328},{"name":"C3","midi":48,"time":52.58062150000002,"velocity":0.5039370078740157,"duration":0.32123641458333196},{"name":"A#2","midi":46,"time":52.90320200000002,"velocity":0.5039370078740157,"duration":0.6438169145833328},{"name":"A#2","midi":46,"time":53.870943500000024,"velocity":0.5039370078740157,"duration":0.32123641458333196},{"name":"G#2","midi":44,"time":54.193524000000025,"velocity":0.5039370078740157,"duration":0.6438169145833328},{"name":"G#2","midi":44,"time":55.16126550000003,"velocity":0.5039370078740157,"duration":0.32123641458333196},{"name":"A#2","midi":46,"time":55.48384600000003,"velocity":0.5039370078740157,"duration":0.6438169145833328},{"name":"A#2","midi":46,"time":56.45158750000003,"velocity":0.5039370078740157,"duration":0.32123641458333196},{"name":"C3","midi":48,"time":56.77416800000003,"velocity":0.5984251968503937,"duration":0.43010733333333206},{"name":"A#2","midi":46,"time":58.06449000000003,"velocity":0.5984251968503937,"duration":0.43010733333333206},{"name":"G#2","midi":44,"time":59.354812000000024,"velocity":0.5984251968503937,"duration":0.43010733333333206},{"name":"C3","midi":48,"time":61.93545600000002,"velocity":0.5984251968503937,"duration":0.43010733333333206},{"name":"A#2","midi":46,"time":63.22577800000002,"velocity":0.5984251968503937,"duration":0.43010733333333206},{"name":"G#2","midi":44,"time":64.51610000000002,"velocity":0.4566929133858268,"duration":0.43010733333333917},{"name":"C3","midi":48,"time":67.09674400000003,"velocity":0.5039370078740157,"duration":1.2889779145833273},{"name":"A#2","midi":46,"time":68.38706600000002,"velocity":0.5039370078740157,"duration":1.2889779145833273},{"name":"G#2","midi":44,"time":69.67738800000001,"velocity":0.5039370078740157,"duration":1.2889779145833273},{"name":"A#2","midi":46,"time":70.96771,"velocity":0.5039370078740157,"duration":1.2889779145833273},{"name":"C3","midi":48,"time":72.25803199999999,"velocity":0.5039370078740157,"duration":1.2889779145833273},{"name":"A#2","midi":46,"time":73.54835399999997,"velocity":0.5039370078740157,"duration":1.2889779145833273},{"name":"G#2","midi":44,"time":74.83867599999996,"velocity":0.5039370078740157,"duration":1.2889779145833273},{"name":"A#2","midi":46,"time":76.12899799999995,"velocity":0.5039370078740157,"duration":0.32123641458333907},{"name":"G2","midi":43,"time":76.45157849999995,"velocity":0.5039370078740157,"duration":0.32123641458333907},{"name":"D3","midi":50,"time":76.77415899999995,"velocity":0.5039370078740157,"duration":0.6438169145833399},{"name":"C3","midi":48,"time":77.41931999999996,"velocity":0.5039370078740157,"duration":1.2889779145833273},{"name":"A#2","midi":46,"time":78.70964199999995,"velocity":0.5039370078740157,"duration":1.2889779145833273},{"name":"G#2","midi":44,"time":79.99996399999993,"velocity":0.5039370078740157,"duration":1.2889779145833273},{"name":"A#2","midi":46,"time":81.29028599999992,"velocity":0.5039370078740157,"duration":1.2889779145833273},{"name":"C3","midi":48,"time":82.58060799999991,"velocity":0.5039370078740157,"duration":1.2889779145833273},{"name":"A#2","midi":46,"time":83.8709299999999,"velocity":0.5039370078740157,"duration":1.2889779145833273},{"name":"G#2","midi":44,"time":85.16125199999989,"velocity":0.5039370078740157,"duration":1.2889779145833273},{"name":"C3","midi":48,"time":87.74189599999988,"velocity":0.5039370078740157,"duration":1.2889779145833273},{"name":"A#2","midi":46,"time":89.03221799999987,"velocity":0.5039370078740157,"duration":1.2889779145833273},{"name":"G#2","midi":44,"time":90.32253999999986,"velocity":0.5039370078740157,"duration":1.2889779145833273},{"name":"A#2","midi":46,"time":91.61286199999985,"velocity":0.5039370078740157,"duration":1.2889779145833273},{"name":"C3","midi":48,"time":92.90318399999984,"velocity":0.5039370078740157,"duration":1.2889779145833273},{"name":"A#2","midi":46,"time":94.19350599999983,"velocity":0.5039370078740157,"duration":1.2889779145833273},{"name":"G#2","midi":44,"time":95.48382799999982,"velocity":0.5039370078740157,"duration":1.2889779145833273},{"name":"A#2","midi":46,"time":96.7741499999998,"velocity":0.5039370078740157,"duration":0.32123641458333907},{"name":"G2","midi":43,"time":97.09673049999981,"velocity":0.5039370078740157,"duration":0.32123641458333907},{"name":"D3","midi":50,"time":97.41931099999981,"velocity":0.5039370078740157,"duration":0.6438169145833399},{"name":"C3","midi":48,"time":98.06447199999981,"velocity":0.5039370078740157,"duration":1.2889779145833273},{"name":"A#2","midi":46,"time":99.3547939999998,"velocity":0.5039370078740157,"duration":1.2889779145833273},{"name":"G#2","midi":44,"time":100.64511599999979,"velocity":0.5039370078740157,"duration":1.2889779145833273},{"name":"A#2","midi":46,"time":101.93543799999978,"velocity":0.5039370078740157,"duration":1.2889779145833273},{"name":"C3","midi":48,"time":103.22575999999977,"velocity":0.5039370078740157,"duration":1.2889779145833273},{"name":"A#2","midi":46,"time":104.51608199999976,"velocity":0.5039370078740157,"duration":1.2889779145833273},{"name":"G#2","midi":44,"time":105.80640399999974,"velocity":0.5039370078740157,"duration":1.2889779145833273},{"name":"A#2","midi":46,"time":107.09672599999973,"velocity":0.5039370078740157,"duration":0.32123641458333907},{"name":"G2","midi":43,"time":107.41930649999973,"velocity":0.5039370078740157,"duration":0.32123641458333907},{"name":"D3","midi":50,"time":107.74188699999974,"velocity":0.5039370078740157,"duration":0.6438169145833399},{"name":"C3","midi":48,"time":118.70962399999974,"velocity":0.5984251968503937,"duration":0.43010733333333917},{"name":"A#2","midi":46,"time":119.99994599999974,"velocity":0.5984251968503937,"duration":0.43010733333333917},{"name":"G#2","midi":44,"time":121.29026799999974,"velocity":0.5984251968503937,"duration":0.43010733333333917},{"name":"C3","midi":48,"time":123.87091199999975,"velocity":0.5984251968503937,"duration":0.43010733333333917},{"name":"A#2","midi":46,"time":125.16123399999975,"velocity":0.5984251968503937,"duration":0.43010733333333917},{"name":"G#2","midi":44,"time":126.45155599999975,"velocity":0.4566929133858268,"duration":0.43010733333333917},{"name":"C3","midi":48,"time":129.03219999999976,"velocity":0.5039370078740157,"duration":1.2889779145833415},{"name":"A#2","midi":46,"time":130.32252199999976,"velocity":0.5039370078740157,"duration":1.2889779145833415},{"name":"G#2","midi":44,"time":131.61284399999977,"velocity":0.5039370078740157,"duration":1.2889779145833415},{"name":"A#2","midi":46,"time":132.90316599999977,"velocity":0.5039370078740157,"duration":1.2889779145833415},{"name":"C3","midi":48,"time":134.19348799999977,"velocity":0.5039370078740157,"duration":1.2889779145833415},{"name":"A#2","midi":46,"time":135.48380999999978,"velocity":0.5039370078740157,"duration":1.2889779145833415},{"name":"G#2","midi":44,"time":136.77413199999978,"velocity":0.5039370078740157,"duration":1.2889779145833415},{"name":"A#2","midi":46,"time":138.06445399999978,"velocity":0.5039370078740157,"duration":0.32123641458332486},{"name":"G2","midi":43,"time":138.38703449999977,"velocity":0.5039370078740157,"duration":0.32123641458332486},{"name":"D3","midi":50,"time":138.70961499999976,"velocity":0.5039370078740157,"duration":0.6438169145833399},{"name":"C3","midi":48,"time":139.35477599999976,"velocity":0.5039370078740157,"duration":1.2889779145833415},{"name":"A#2","midi":46,"time":140.64509799999976,"velocity":0.5039370078740157,"duration":1.2889779145833415},{"name":"G#2","midi":44,"time":141.93541999999977,"velocity":0.5039370078740157,"duration":1.2889779145833415},{"name":"A#2","midi":46,"time":143.22574199999977,"velocity":0.5039370078740157,"duration":1.2889779145833415},{"name":"C3","midi":48,"time":144.51606399999977,"velocity":0.5039370078740157,"duration":1.2889779145833415},{"name":"A#2","midi":46,"time":145.80638599999978,"velocity":0.5039370078740157,"duration":1.2889779145833415},{"name":"G#2","midi":44,"time":147.09670799999978,"velocity":0.5039370078740157,"duration":1.2889779145833415},{"name":"C3","midi":48,"time":149.6773519999998,"velocity":0.5039370078740157,"duration":1.2889779145833415},{"name":"A#2","midi":46,"time":150.9676739999998,"velocity":0.5039370078740157,"duration":1.2889779145833415},{"name":"G#2","midi":44,"time":152.2579959999998,"velocity":0.5039370078740157,"duration":1.2889779145833415},{"name":"A#2","midi":46,"time":153.5483179999998,"velocity":0.5039370078740157,"duration":1.2889779145833415},{"name":"C3","midi":48,"time":154.8386399999998,"velocity":0.5039370078740157,"duration":1.2889779145833415},{"name":"A#2","midi":46,"time":156.1289619999998,"velocity":0.5039370078740157,"duration":1.2889779145833415},{"name":"G#2","midi":44,"time":157.4192839999998,"velocity":0.5039370078740157,"duration":1.2889779145833415},{"name":"A#2","midi":46,"time":158.7096059999998,"velocity":0.5039370078740157,"duration":0.32123641458332486},{"name":"G2","midi":43,"time":159.0321864999998,"velocity":0.5039370078740157,"duration":0.32123641458332486},{"name":"D3","midi":50,"time":159.35476699999978,"velocity":0.5039370078740157,"duration":0.6438169145833399},{"name":"C3","midi":48,"time":159.99992799999978,"velocity":0.5039370078740157,"duration":1.2889779145833415},{"name":"A#2","midi":46,"time":161.2902499999998,"velocity":0.5039370078740157,"duration":1.2889779145833415},{"name":"G#2","midi":44,"time":162.5805719999998,"velocity":0.5039370078740157,"duration":1.2889779145833415},{"name":"A#2","midi":46,"time":163.8708939999998,"velocity":0.5039370078740157,"duration":1.2889779145833415},{"name":"C3","midi":48,"time":165.1612159999998,"velocity":0.5039370078740157,"duration":1.2889779145833415},{"name":"A#2","midi":46,"time":166.4515379999998,"velocity":0.5039370078740157,"duration":1.2889779145833415},{"name":"G#2","midi":44,"time":167.7418599999998,"velocity":0.5039370078740157,"duration":1.2889779145833415},{"name":"A#2","midi":46,"time":169.0321819999998,"velocity":0.5039370078740157,"duration":0.32123641458332486},{"name":"G2","midi":43,"time":169.3547624999998,"velocity":0.5039370078740157,"duration":0.32123641458332486},{"name":"D3","midi":50,"time":169.67734299999978,"velocity":0.5039370078740157,"duration":0.6438169145833399},{"name":"F2","midi":41,"time":180.64507999999978,"velocity":0.5039370078740157,"duration":0.6438169145833399},{"name":"F2","midi":41,"time":181.29024099999978,"velocity":0.5039370078740157,"duration":0.6438169145833399},{"name":"F2","midi":41,"time":181.93540199999978,"velocity":0.5039370078740157,"duration":0.6438169145833399},{"name":"F2","midi":41,"time":182.58056299999978,"velocity":0.5039370078740157,"duration":0.6438169145833399},{"name":"D#2","midi":39,"time":183.2257239999998,"velocity":0.5039370078740157,"duration":0.6438169145833399},{"name":"D#2","midi":39,"time":183.8708849999998,"velocity":0.5039370078740157,"duration":0.6438169145833399},{"name":"D#2","midi":39,"time":184.5160459999998,"velocity":0.5039370078740157,"duration":0.6438169145833399},{"name":"D#2","midi":39,"time":185.1612069999998,"velocity":0.5039370078740157,"duration":0.6438169145833399},{"name":"F2","midi":41,"time":185.8063679999998,"velocity":0.5039370078740157,"duration":0.6438169145833399},{"name":"F2","midi":41,"time":186.4515289999998,"velocity":0.5039370078740157,"duration":0.6438169145833399},{"name":"F2","midi":41,"time":187.0966899999998,"velocity":0.5039370078740157,"duration":0.6438169145833399},{"name":"F2","midi":41,"time":187.7418509999998,"velocity":0.5039370078740157,"duration":0.6438169145833399},{"name":"G2","midi":43,"time":188.3870119999998,"velocity":0.5039370078740157,"duration":0.6438169145833399},{"name":"G2","midi":43,"time":189.0321729999998,"velocity":0.5039370078740157,"duration":0.6438169145833399},{"name":"G2","midi":43,"time":189.6773339999998,"velocity":0.5039370078740157,"duration":0.6438169145833399},{"name":"A#2","midi":46,"time":192.2579779999998,"velocity":0.5039370078740157,"duration":1.2889779145833415},{"name":"G#2","midi":44,"time":193.5482999999998,"velocity":0.5039370078740157,"duration":1.2889779145833415},{"name":"A#2","midi":46,"time":194.83862199999982,"velocity":0.5039370078740157,"duration":1.2889779145833415},{"name":"A#2","midi":46,"time":197.41926599999982,"velocity":0.5039370078740157,"duration":1.2889779145833415},{"name":"G#2","midi":44,"time":198.70958799999983,"velocity":0.5039370078740157,"duration":1.2889779145833415},{"name":"A#2","midi":46,"time":199.99990999999983,"velocity":0.5039370078740157,"duration":1.2889779145833415},{"name":"A#2","midi":46,"time":202.58055399999984,"velocity":0.5039370078740157,"duration":1.2889779145833415},{"name":"G#2","midi":44,"time":203.87087599999984,"velocity":0.5039370078740157,"duration":1.2889779145833415},{"name":"A#2","midi":46,"time":205.16119799999984,"velocity":0.5039370078740157,"duration":1.2889779145833415},{"name":"A#2","midi":46,"time":207.74184199999985,"velocity":0.5039370078740157,"duration":1.2889779145833415},{"name":"G#2","midi":44,"time":209.03216399999985,"velocity":0.5039370078740157,"duration":1.2889779145833415},{"name":"A#2","midi":46,"time":210.32248599999986,"velocity":0.5039370078740157,"duration":1.2889779145833415}]},{"instrument_number":58,"notes":[{"name":"C3","midi":48,"time":15.483864,"velocity":0.5039370078740157,"duration":0.9663974145833336},{"name":"A#2","midi":46,"time":16.774186,"velocity":0.5039370078740157,"duration":1.2889779145833344},{"name":"G#2","midi":44,"time":18.064508,"velocity":0.5039370078740157,"duration":1.2889779145833344},{"name":"A#2","midi":46,"time":19.35483,"velocity":0.5039370078740157,"duration":1.2889779145833344},{"name":"C3","midi":48,"time":20.645152,"velocity":0.5039370078740157,"duration":0.9663974145833336},{"name":"A#2","midi":46,"time":21.935474,"velocity":0.5039370078740157,"duration":1.2889779145833344},{"name":"G#2","midi":44,"time":23.225796,"velocity":0.5039370078740157,"duration":1.2889779145833344},{"name":"C3","midi":48,"time":25.80644,"velocity":0.5039370078740157,"duration":0.9663974145833336},{"name":"A#2","midi":46,"time":27.096762,"velocity":0.5039370078740157,"duration":1.2889779145833344},{"name":"G#2","midi":44,"time":28.387083999999998,"velocity":0.5039370078740157,"duration":1.2889779145833344},{"name":"A#2","midi":46,"time":29.677405999999998,"velocity":0.5039370078740157,"duration":1.2889779145833344},{"name":"C3","midi":48,"time":30.967727999999997,"velocity":0.5039370078740157,"duration":0.9663974145833336},{"name":"A#2","midi":46,"time":32.25805,"velocity":0.5039370078740157,"duration":1.2889779145833344},{"name":"G#2","midi":44,"time":33.548372,"velocity":0.5039370078740157,"duration":1.2889779145833344},{"name":"A#2","midi":46,"time":34.838694000000004,"velocity":0.5039370078740157,"duration":1.2889779145833344},{"name":"C3","midi":48,"time":46.451592000000005,"velocity":0.5039370078740157,"duration":0.6438169145833328},{"name":"A#2","midi":46,"time":47.741914,"velocity":0.5039370078740157,"duration":0.6438169145833328},{"name":"G#2","midi":44,"time":49.032236,"velocity":0.5039370078740157,"duration":0.6438169145833328},{"name":"A#2","midi":46,"time":50.322557999999994,"velocity":0.5039370078740157,"duration":0.6438169145833328},{"name":"C3","midi":48,"time":51.61287999999999,"velocity":0.5039370078740157,"duration":0.6438169145833328},{"name":"A#2","midi":46,"time":52.903201999999986,"velocity":0.5039370078740157,"duration":0.6438169145833328},{"name":"G#2","midi":44,"time":54.19352399999998,"velocity":0.5039370078740157,"duration":0.6438169145833328},{"name":"A#2","midi":46,"time":55.48384599999998,"velocity":0.5039370078740157,"duration":0.6438169145833328},{"name":"C3","midi":48,"time":56.774167999999975,"velocity":0.5984251968503937,"duration":0.43010733333333206},{"name":"A#2","midi":46,"time":58.06448999999997,"velocity":0.5984251968503937,"duration":0.43010733333333206},{"name":"G#2","midi":44,"time":59.35481199999997,"velocity":0.5984251968503937,"duration":0.43010733333333206},{"name":"C3","midi":48,"time":61.93545599999997,"velocity":0.5984251968503937,"duration":0.43010733333333206},{"name":"A#2","midi":46,"time":63.22577799999996,"velocity":0.5984251968503937,"duration":0.43010733333333206},{"name":"G#2","midi":44,"time":64.51609999999997,"velocity":0.4566929133858268,"duration":0.43010733333333917},{"name":"C3","midi":48,"time":67.09674399999997,"velocity":0.5039370078740157,"duration":0.9663974145833265},{"name":"A#2","midi":46,"time":68.38706599999996,"velocity":0.5039370078740157,"duration":0.9663974145833265},{"name":"G#2","midi":44,"time":69.67738799999995,"velocity":0.5039370078740157,"duration":0.9663974145833265},{"name":"A#2","midi":46,"time":70.96770999999994,"velocity":0.5039370078740157,"duration":0.9663974145833265},{"name":"C3","midi":48,"time":72.25803199999993,"velocity":0.5039370078740157,"duration":0.9663974145833265},{"name":"A#2","midi":46,"time":73.54835399999992,"velocity":0.5039370078740157,"duration":0.9663974145833265},{"name":"G#2","midi":44,"time":74.83867599999991,"velocity":0.5039370078740157,"duration":0.9663974145833265},{"name":"A#2","midi":46,"time":76.1289979999999,"velocity":0.5039370078740157,"duration":0.32123641458333907},{"name":"G2","midi":43,"time":76.4515784999999,"velocity":0.5039370078740157,"duration":0.32123641458333907},{"name":"D3","midi":50,"time":76.7741589999999,"velocity":0.5039370078740157,"duration":0.6438169145833399},{"name":"C3","midi":48,"time":77.4193199999999,"velocity":0.5039370078740157,"duration":0.9663974145833265},{"name":"A#2","midi":46,"time":78.70964199999989,"velocity":0.5039370078740157,"duration":0.9663974145833265},{"name":"G#2","midi":44,"time":79.99996399999988,"velocity":0.5039370078740157,"duration":0.9663974145833265},{"name":"A#2","midi":46,"time":81.29028599999987,"velocity":0.5039370078740157,"duration":0.9663974145833265},{"name":"C3","midi":48,"time":82.58060799999986,"velocity":0.5039370078740157,"duration":0.9663974145833265},{"name":"A#2","midi":46,"time":83.87092999999984,"velocity":0.5039370078740157,"duration":0.9663974145833265},{"name":"G#2","midi":44,"time":85.16125199999983,"velocity":0.5039370078740157,"duration":0.9663974145833265},{"name":"C3","midi":48,"time":87.74189599999983,"velocity":0.5039370078740157,"duration":0.9663974145833265},{"name":"A#2","midi":46,"time":89.03221799999982,"velocity":0.5039370078740157,"duration":0.9663974145833265},{"name":"G#2","midi":44,"time":90.3225399999998,"velocity":0.5039370078740157,"duration":0.9663974145833265},{"name":"A#2","midi":46,"time":91.6128619999998,"velocity":0.5039370078740157,"duration":0.9663974145833265},{"name":"C3","midi":48,"time":92.90318399999978,"velocity":0.5039370078740157,"duration":0.9663974145833265},{"name":"A#2","midi":46,"time":94.19350599999977,"velocity":0.5039370078740157,"duration":0.9663974145833265},{"name":"G#2","midi":44,"time":95.48382799999976,"velocity":0.5039370078740157,"duration":0.9663974145833265},{"name":"A#2","midi":46,"time":96.77414999999975,"velocity":0.5039370078740157,"duration":0.32123641458333907},{"name":"G2","midi":43,"time":97.09673049999975,"velocity":0.5039370078740157,"duration":0.32123641458333907},{"name":"D3","midi":50,"time":97.41931099999975,"velocity":0.5039370078740157,"duration":0.6438169145833399},{"name":"C3","midi":48,"time":98.06447199999975,"velocity":0.5039370078740157,"duration":0.9663974145833265},{"name":"A#2","midi":46,"time":99.35479399999974,"velocity":0.5039370078740157,"duration":0.9663974145833265},{"name":"G#2","midi":44,"time":100.64511599999973,"velocity":0.5039370078740157,"duration":0.9663974145833265},{"name":"A#2","midi":46,"time":101.93543799999972,"velocity":0.5039370078740157,"duration":0.9663974145833265},{"name":"C3","midi":48,"time":103.22575999999971,"velocity":0.5039370078740157,"duration":0.9663974145833265},{"name":"A#2","midi":46,"time":104.5160819999997,"velocity":0.5039370078740157,"duration":0.9663974145833265},{"name":"G#2","midi":44,"time":105.80640399999969,"velocity":0.5039370078740157,"duration":0.9663974145833265},{"name":"A#2","midi":46,"time":107.09672599999968,"velocity":0.5039370078740157,"duration":0.32123641458333907},{"name":"G2","midi":43,"time":107.41930649999968,"velocity":0.5039370078740157,"duration":0.32123641458333907},{"name":"D3","midi":50,"time":107.74188699999968,"velocity":0.5039370078740157,"duration":0.6438169145833399},{"name":"C3","midi":48,"time":118.70962399999968,"velocity":0.5984251968503937,"duration":0.43010733333333917},{"name":"A#2","midi":46,"time":119.99994599999968,"velocity":0.5984251968503937,"duration":0.43010733333333917},{"name":"G#2","midi":44,"time":121.29026799999968,"velocity":0.5984251968503937,"duration":0.43010733333333917},{"name":"C3","midi":48,"time":123.87091199999969,"velocity":0.5984251968503937,"duration":0.43010733333333917},{"name":"A#2","midi":46,"time":125.1612339999997,"velocity":0.5984251968503937,"duration":0.43010733333333917},{"name":"G#2","midi":44,"time":126.4515559999997,"velocity":0.4566929133858268,"duration":0.43010733333333917},{"name":"C3","midi":48,"time":129.0321999999997,"velocity":0.5039370078740157,"duration":0.9663974145833265},{"name":"A#2","midi":46,"time":130.3225219999997,"velocity":0.5039370078740157,"duration":0.9663974145833265},{"name":"G#2","midi":44,"time":131.6128439999997,"velocity":0.5039370078740157,"duration":0.9663974145833265},{"name":"A#2","midi":46,"time":132.90316599999971,"velocity":0.5039370078740157,"duration":0.9663974145833265},{"name":"C3","midi":48,"time":134.19348799999972,"velocity":0.5039370078740157,"duration":0.9663974145833265},{"name":"A#2","midi":46,"time":135.48380999999972,"velocity":0.5039370078740157,"duration":0.9663974145833265},{"name":"G#2","midi":44,"time":136.77413199999972,"velocity":0.5039370078740157,"duration":0.9663974145833265},{"name":"A#2","midi":46,"time":138.06445399999973,"velocity":0.5039370078740157,"duration":0.32123641458332486},{"name":"G2","midi":43,"time":138.38703449999971,"velocity":0.5039370078740157,"duration":0.32123641458332486},{"name":"D3","midi":50,"time":138.7096149999997,"velocity":0.5039370078740157,"duration":0.6438169145833399},{"name":"C3","midi":48,"time":139.3547759999997,"velocity":0.5039370078740157,"duration":0.9663974145833265},{"name":"A#2","midi":46,"time":140.6450979999997,"velocity":0.5039370078740157,"duration":0.9663974145833265},{"name":"G#2","midi":44,"time":141.9354199999997,"velocity":0.5039370078740157,"duration":0.9663974145833265},{"name":"A#2","midi":46,"time":143.2257419999997,"velocity":0.5039370078740157,"duration":0.9663974145833265},{"name":"C3","midi":48,"time":144.51606399999972,"velocity":0.5039370078740157,"duration":0.9663974145833265},{"name":"A#2","midi":46,"time":145.80638599999972,"velocity":0.5039370078740157,"duration":0.9663974145833265},{"name":"G#2","midi":44,"time":147.09670799999972,"velocity":0.5039370078740157,"duration":0.9663974145833265},{"name":"C3","midi":48,"time":149.67735199999973,"velocity":0.5039370078740157,"duration":0.9663974145833265},{"name":"A#2","midi":46,"time":150.96767399999973,"velocity":0.5039370078740157,"duration":0.9663974145833265},{"name":"G#2","midi":44,"time":152.25799599999974,"velocity":0.5039370078740157,"duration":0.9663974145833265},{"name":"A#2","midi":46,"time":153.54831799999974,"velocity":0.5039370078740157,"duration":0.9663974145833265},{"name":"C3","midi":48,"time":154.83863999999974,"velocity":0.5039370078740157,"duration":0.9663974145833265},{"name":"A#2","midi":46,"time":156.12896199999975,"velocity":0.5039370078740157,"duration":0.9663974145833265},{"name":"G#2","midi":44,"time":157.41928399999975,"velocity":0.5039370078740157,"duration":0.9663974145833265},{"name":"A#2","midi":46,"time":158.70960599999975,"velocity":0.5039370078740157,"duration":0.32123641458332486},{"name":"G2","midi":43,"time":159.03218649999974,"velocity":0.5039370078740157,"duration":0.32123641458332486},{"name":"D3","midi":50,"time":159.35476699999973,"velocity":0.5039370078740157,"duration":0.6438169145833399},{"name":"C3","midi":48,"time":159.99992799999973,"velocity":0.5039370078740157,"duration":0.9663974145833265},{"name":"A#2","midi":46,"time":161.29024999999973,"velocity":0.5039370078740157,"duration":0.9663974145833265},{"name":"G#2","midi":44,"time":162.58057199999973,"velocity":0.5039370078740157,"duration":0.9663974145833265},{"name":"A#2","midi":46,"time":163.87089399999974,"velocity":0.5039370078740157,"duration":0.9663974145833265},{"name":"C3","midi":48,"time":165.16121599999974,"velocity":0.5039370078740157,"duration":0.9663974145833265},{"name":"A#2","midi":46,"time":166.45153799999974,"velocity":0.5039370078740157,"duration":0.9663974145833265},{"name":"G#2","midi":44,"time":167.74185999999975,"velocity":0.5039370078740157,"duration":0.9663974145833265},{"name":"A#2","midi":46,"time":169.03218199999975,"velocity":0.5039370078740157,"duration":0.32123641458332486},{"name":"G2","midi":43,"time":169.35476249999974,"velocity":0.5039370078740157,"duration":0.32123641458332486},{"name":"D3","midi":50,"time":169.67734299999972,"velocity":0.5039370078740157,"duration":0.6438169145833399},{"name":"F2","midi":41,"time":180.64507999999972,"velocity":0.5039370078740157,"duration":0.6438169145833399},{"name":"F2","midi":41,"time":181.29024099999972,"velocity":0.5039370078740157,"duration":0.6438169145833399},{"name":"F2","midi":41,"time":181.93540199999973,"velocity":0.5039370078740157,"duration":0.6438169145833399},{"name":"F2","midi":41,"time":182.58056299999973,"velocity":0.5039370078740157,"duration":0.6438169145833399},{"name":"D#2","midi":39,"time":183.22572399999973,"velocity":0.5039370078740157,"duration":0.6438169145833399},{"name":"D#2","midi":39,"time":183.87088499999973,"velocity":0.5039370078740157,"duration":0.6438169145833399},{"name":"D#2","midi":39,"time":184.51604599999973,"velocity":0.5039370078740157,"duration":0.6438169145833399},{"name":"D#2","midi":39,"time":185.16120699999973,"velocity":0.5039370078740157,"duration":0.6438169145833399},{"name":"F2","midi":41,"time":185.80636799999974,"velocity":0.5039370078740157,"duration":0.6438169145833399},{"name":"F2","midi":41,"time":186.45152899999974,"velocity":0.5039370078740157,"duration":0.6438169145833399},{"name":"F2","midi":41,"time":187.09668999999974,"velocity":0.5039370078740157,"duration":0.6438169145833399},{"name":"F2","midi":41,"time":187.74185099999974,"velocity":0.5039370078740157,"duration":0.6438169145833399},{"name":"G2","midi":43,"time":188.38701199999974,"velocity":0.5039370078740157,"duration":0.6438169145833399},{"name":"G2","midi":43,"time":189.03217299999974,"velocity":0.5039370078740157,"duration":0.6438169145833399},{"name":"G2","midi":43,"time":189.67733399999975,"velocity":0.5039370078740157,"duration":0.6438169145833399},{"name":"C3","midi":48,"time":190.96765599999975,"velocity":0.5039370078740157,"duration":0.9663974145833265},{"name":"A#2","midi":46,"time":192.25797799999975,"velocity":0.5039370078740157,"duration":1.2889779145833415},{"name":"G#2","midi":44,"time":193.54829999999976,"velocity":0.5039370078740157,"duration":1.2889779145833415},{"name":"A#2","midi":46,"time":194.83862199999976,"velocity":0.5039370078740157,"duration":1.2889779145833415},{"name":"C3","midi":48,"time":196.12894399999976,"velocity":0.5039370078740157,"duration":0.9663974145833265},{"name":"A#2","midi":46,"time":197.41926599999977,"velocity":0.5039370078740157,"duration":1.2889779145833415},{"name":"G#2","midi":44,"time":198.70958799999977,"velocity":0.5039370078740157,"duration":1.2889779145833415},{"name":"A#2","midi":46,"time":199.99990999999977,"velocity":0.5039370078740157,"duration":1.2889779145833415},{"name":"C3","midi":48,"time":201.29023199999978,"velocity":0.5039370078740157,"duration":0.9663974145833265},{"name":"A#2","midi":46,"time":202.58055399999978,"velocity":0.5039370078740157,"duration":1.2889779145833415},{"name":"G#2","midi":44,"time":203.87087599999978,"velocity":0.5039370078740157,"duration":1.2889779145833415},{"name":"A#2","midi":46,"time":205.16119799999979,"velocity":0.5039370078740157,"duration":1.2889779145833415},{"name":"C3","midi":48,"time":206.4515199999998,"velocity":0.5039370078740157,"duration":0.9663974145833265},{"name":"A#2","midi":46,"time":207.7418419999998,"velocity":0.5039370078740157,"duration":1.2889779145833415},{"name":"G#2","midi":44,"time":209.0321639999998,"velocity":0.5039370078740157,"duration":1.2889779145833415},{"name":"A#2","midi":46,"time":210.3224859999998,"velocity":0.5039370078740157,"duration":1.2889779145833415}]},{"instrument_number":9,"notes":[{"name":"D#7","midi":99,"time":5.161288,"velocity":0.6299212598425197,"duration":0.6438169145833337},{"name":"F7","midi":101,"time":6.129029500000001,"velocity":0.5039370078740157,"duration":0.32123641458333374},{"name":"G7","midi":103,"time":6.451610000000001,"velocity":0.5039370078740157,"duration":0.48252666458333326},{"name":"C7","midi":96,"time":6.935480750000002,"velocity":0.5039370078740157,"duration":0.48252666458333326},{"name":"A#6","midi":94,"time":7.419351500000002,"velocity":0.5039370078740157,"duration":0.32123641458333374},{"name":"D#7","midi":99,"time":7.741932000000003,"velocity":0.5039370078740157,"duration":0.6438169145833337},{"name":"F7","midi":101,"time":8.709673500000003,"velocity":0.5039370078740157,"duration":0.32123641458333374},{"name":"C7","midi":96,"time":9.032254000000004,"velocity":0.5039370078740157,"duration":0.48252666458333415},{"name":"C7","midi":96,"time":9.516124750000005,"velocity":0.3858267716535433,"duration":0.48252666458333415},{"name":"C7","midi":96,"time":9.999995500000006,"velocity":0.25984251968503935,"duration":0.32123641458333374},{"name":"D#7","midi":99,"time":10.322576000000007,"velocity":0.6299212598425197,"duration":0.6438169145833328},{"name":"F7","midi":101,"time":11.290317500000006,"velocity":0.5039370078740157,"duration":0.32123641458333374},{"name":"G7","midi":103,"time":11.612898000000007,"velocity":0.5039370078740157,"duration":0.48252666458333415},{"name":"C7","midi":96,"time":12.096768750000008,"velocity":0.5039370078740157,"duration":0.48252666458333415},{"name":"A#6","midi":94,"time":12.580639500000009,"velocity":0.5039370078740157,"duration":0.32123641458333374},{"name":"D#7","midi":99,"time":12.90322000000001,"velocity":0.5039370078740157,"duration":0.6438169145833328},{"name":"F7","midi":101,"time":13.870961500000009,"velocity":0.5039370078740157,"duration":0.32123641458333374},{"name":"C7","midi":96,"time":14.19354200000001,"velocity":0.5039370078740157,"duration":0.48252666458333415},{"name":"C7","midi":96,"time":14.67741275000001,"velocity":0.3858267716535433,"duration":0.48252666458333415},{"name":"C7","midi":96,"time":15.161283500000012,"velocity":0.25984251968503935,"duration":0.32123641458333374},{"name":"D#7","midi":99,"time":15.483864000000013,"velocity":0.6299212598425197,"duration":0.6438169145833346},{"name":"F7","midi":101,"time":16.451605500000014,"velocity":0.5039370078740157,"duration":0.32123641458333196},{"name":"G7","midi":103,"time":16.77418600000001,"velocity":0.5039370078740157,"duration":0.4825266645833324},{"name":"C7","midi":96,"time":17.25805675000001,"velocity":0.5039370078740157,"duration":0.4825266645833324},{"name":"A#6","midi":94,"time":17.741927500000006,"velocity":0.5039370078740157,"duration":0.32123641458333196},{"name":"D#7","midi":99,"time":18.064508000000004,"velocity":0.5039370078740157,"duration":0.6438169145833328},{"name":"F7","midi":101,"time":19.032249500000002,"velocity":0.5039370078740157,"duration":0.32123641458333196},{"name":"C7","midi":96,"time":19.35483,"velocity":0.5039370078740157,"duration":0.4825266645833324},{"name":"C7","midi":96,"time":19.838700749999997,"velocity":0.3858267716535433,"duration":0.4825266645833324},{"name":"C7","midi":96,"time":20.322571499999995,"velocity":0.25984251968503935,"duration":0.32123641458333196},{"name":"C7","midi":96,"time":39.999981999999996,"velocity":0.5039370078740157,"duration":0.4825266645833324},{"name":"C7","midi":96,"time":40.48385275,"velocity":0.3858267716535433,"duration":0.4825266645833324},{"name":"C7","midi":96,"time":40.9677235,"velocity":0.25984251968503935,"duration":0.32123641458333196},{"name":"C7","midi":96,"time":45.161269999999995,"velocity":0.5039370078740157,"duration":0.4825266645833324},{"name":"C7","midi":96,"time":45.645140749999996,"velocity":0.3858267716535433,"duration":0.4825266645833324},{"name":"C7","midi":96,"time":46.1290115,"velocity":0.25984251968503935,"duration":0.32123641458333196},{"name":"C7","midi":96,"time":50.322557999999994,"velocity":0.5039370078740157,"duration":0.4825266645833324},{"name":"C7","midi":96,"time":50.806428749999995,"velocity":0.3858267716535433,"duration":0.4825266645833324},{"name":"C7","midi":96,"time":51.290299499999996,"velocity":0.25984251968503935,"duration":0.32123641458333196},{"name":"C7","midi":96,"time":55.48384599999999,"velocity":0.5039370078740157,"duration":0.4825266645833324},{"name":"C7","midi":96,"time":55.967716749999994,"velocity":0.3858267716535433,"duration":0.4825266645833324},{"name":"C7","midi":96,"time":56.451587499999995,"velocity":0.25984251968503935,"duration":0.32123641458333196},{"name":"C7","midi":96,"time":60.64513399999999,"velocity":0.5039370078740157,"duration":0.4825266645833324},{"name":"C7","midi":96,"time":61.12900474999999,"velocity":0.3858267716535433,"duration":0.4825266645833324},{"name":"C7","midi":96,"time":61.612875499999994,"velocity":0.25984251968503935,"duration":0.32123641458333196},{"name":"D#7","midi":99,"time":64.5161,"velocity":0.5039370078740157,"duration":0.32123641458333907},{"name":"C7","midi":96,"time":64.8386805,"velocity":0.5039370078740157,"duration":0.32123641458333907},{"name":"C7","midi":96,"time":65.32255125,"velocity":0.5039370078740157,"duration":0.15994616458333155},{"name":"D#7","midi":99,"time":65.4838415,"velocity":0.5039370078740157,"duration":0.32123641458333907},{"name":"C7","midi":96,"time":65.806422,"velocity":0.5039370078740157,"duration":0.32123641458333907},{"name":"D#7","midi":99,"time":67.096744,"velocity":0.6299212598425197,"duration":0.6438169145833399},{"name":"F7","midi":101,"time":68.0644855,"velocity":0.5039370078740157,"duration":0.32123641458333907},{"name":"G7","midi":103,"time":68.387066,"velocity":0.5039370078740157,"duration":0.4825266645833324},{"name":"C7","midi":96,"time":68.87093675,"velocity":0.5039370078740157,"duration":0.4825266645833324},{"name":"A#6","midi":94,"time":69.35480749999999,"velocity":0.5039370078740157,"duration":0.32123641458333907},{"name":"D#7","midi":99,"time":69.677388,"velocity":0.5039370078740157,"duration":0.6438169145833399},{"name":"F7","midi":101,"time":70.6451295,"velocity":0.5039370078740157,"duration":0.32123641458333907},{"name":"C7","midi":96,"time":70.96771,"velocity":0.5039370078740157,"duration":0.4825266645833324},{"name":"C7","midi":96,"time":71.45158074999999,"velocity":0.3858267716535433,"duration":0.4825266645833324},{"name":"C7","midi":96,"time":71.93545149999999,"velocity":0.25984251968503935,"duration":0.32123641458333907},{"name":"D#7","midi":99,"time":72.25803199999999,"velocity":0.6299212598425197,"duration":0.6438169145833399},{"name":"F7","midi":101,"time":73.22577349999999,"velocity":0.5039370078740157,"duration":0.32123641458333907},{"name":"G7","midi":103,"time":73.54835399999999,"velocity":0.5039370078740157,"duration":0.4825266645833324},{"name":"C7","midi":96,"time":74.03222474999998,"velocity":0.5039370078740157,"duration":0.4825266645833324},{"name":"A#6","midi":94,"time":74.51609549999998,"velocity":0.5039370078740157,"duration":0.32123641458333907},{"name":"D#7","midi":99,"time":74.83867599999998,"velocity":0.5039370078740157,"duration":0.6438169145833399},{"name":"F7","midi":101,"time":75.80641749999998,"velocity":0.5039370078740157,"duration":0.32123641458333907},{"name":"C7","midi":96,"time":76.12899799999998,"velocity":0.5039370078740157,"duration":0.4825266645833324},{"name":"C7","midi":96,"time":76.61286874999998,"velocity":0.3858267716535433,"duration":0.4825266645833324},{"name":"C7","midi":96,"time":77.09673949999997,"velocity":0.25984251968503935,"duration":0.32123641458333907},{"name":"D#7","midi":99,"time":77.41931999999997,"velocity":0.6299212598425197,"duration":0.6438169145833399},{"name":"F7","midi":101,"time":78.38706149999997,"velocity":0.5039370078740157,"duration":0.32123641458333907},{"name":"G7","midi":103,"time":78.70964199999997,"velocity":0.5039370078740157,"duration":0.4825266645833324},{"name":"C7","midi":96,"time":79.19351274999997,"velocity":0.5039370078740157,"duration":0.4825266645833324},{"name":"A#6","midi":94,"time":79.67738349999996,"velocity":0.5039370078740157,"duration":0.32123641458333907},{"name":"D#7","midi":99,"time":79.99996399999996,"velocity":0.5039370078740157,"duration":0.6438169145833399},{"name":"F7","midi":101,"time":80.96770549999997,"velocity":0.5039370078740157,"duration":0.32123641458333907},{"name":"C7","midi":96,"time":81.29028599999997,"velocity":0.5039370078740157,"duration":0.4825266645833324},{"name":"C7","midi":96,"time":81.77415674999996,"velocity":0.3858267716535433,"duration":0.4825266645833324},{"name":"C7","midi":96,"time":82.25802749999995,"velocity":0.25984251968503935,"duration":0.32123641458333907},{"name":"C7","midi":96,"time":112.25801399999996,"velocity":0.5039370078740157,"duration":0.4825266645833324},{"name":"C7","midi":96,"time":117.41930199999996,"velocity":0.5039370078740157,"duration":0.4825266645833324},{"name":"C7","midi":96,"time":117.90317274999995,"velocity":0.3858267716535433,"duration":0.4825266645833324},{"name":"C7","midi":96,"time":118.38704349999995,"velocity":0.25984251968503935,"duration":0.32123641458333907},{"name":"C7","midi":96,"time":122.58058999999996,"velocity":0.5039370078740157,"duration":0.4825266645833324},{"name":"C7","midi":96,"time":123.06446074999995,"velocity":0.3858267716535433,"duration":0.4825266645833324},{"name":"C7","midi":96,"time":123.54833149999995,"velocity":0.25984251968503935,"duration":0.32123641458333907},{"name":"D#7","midi":99,"time":129.03219999999996,"velocity":0.6299212598425197,"duration":0.6438169145833399},{"name":"F7","midi":101,"time":129.99994149999998,"velocity":0.5039370078740157,"duration":0.32123641458332486},{"name":"G7","midi":103,"time":130.32252199999996,"velocity":0.5039370078740157,"duration":0.4825266645833324},{"name":"C7","midi":96,"time":130.80639274999996,"velocity":0.5039370078740157,"duration":0.4825266645833324},{"name":"A#6","midi":94,"time":131.29026349999995,"velocity":0.5039370078740157,"duration":0.32123641458332486},{"name":"D#7","midi":99,"time":131.61284399999994,"velocity":0.5039370078740157,"duration":0.6438169145833399},{"name":"F7","midi":101,"time":132.58058549999996,"velocity":0.5039370078740157,"duration":0.32123641458332486},{"name":"C7","midi":96,"time":132.90316599999994,"velocity":0.5039370078740157,"duration":0.4825266645833324},{"name":"C7","midi":96,"time":133.38703674999994,"velocity":0.3858267716535433,"duration":0.4825266645833324},{"name":"C7","midi":96,"time":133.87090749999993,"velocity":0.25984251968503935,"duration":0.32123641458332486},{"name":"D#7","midi":99,"time":134.19348799999992,"velocity":0.6299212598425197,"duration":0.6438169145833399},{"name":"F7","midi":101,"time":135.16122949999993,"velocity":0.5039370078740157,"duration":0.32123641458332486},{"name":"G7","midi":103,"time":135.48380999999992,"velocity":0.5039370078740157,"duration":0.4825266645833324},{"name":"C7","midi":96,"time":135.96768074999991,"velocity":0.5039370078740157,"duration":0.4825266645833324},{"name":"A#6","midi":94,"time":136.4515514999999,"velocity":0.5039370078740157,"duration":0.32123641458332486},{"name":"D#7","midi":99,"time":136.7741319999999,"velocity":0.5039370078740157,"duration":0.6438169145833399},{"name":"F7","midi":101,"time":137.7418734999999,"velocity":0.5039370078740157,"duration":0.32123641458332486},{"name":"C7","midi":96,"time":138.0644539999999,"velocity":0.5039370078740157,"duration":0.4825266645833324},{"name":"C7","midi":96,"time":138.5483247499999,"velocity":0.3858267716535433,"duration":0.4825266645833324},{"name":"C7","midi":96,"time":139.0321954999999,"velocity":0.25984251968503935,"duration":0.32123641458332486},{"name":"D#7","midi":99,"time":139.35477599999987,"velocity":0.6299212598425197,"duration":0.6438169145833399},{"name":"F7","midi":101,"time":140.3225174999999,"velocity":0.5039370078740157,"duration":0.32123641458332486},{"name":"G7","midi":103,"time":140.64509799999988,"velocity":0.5039370078740157,"duration":0.4825266645833324},{"name":"C7","midi":96,"time":141.12896874999987,"velocity":0.5039370078740157,"duration":0.4825266645833324},{"name":"A#6","midi":94,"time":141.61283949999986,"velocity":0.5039370078740157,"duration":0.32123641458332486},{"name":"D#7","midi":99,"time":141.93541999999985,"velocity":0.5039370078740157,"duration":0.6438169145833399},{"name":"F7","midi":101,"time":142.90316149999987,"velocity":0.5039370078740157,"duration":0.32123641458332486},{"name":"C7","midi":96,"time":143.22574199999985,"velocity":0.5039370078740157,"duration":0.4825266645833324},{"name":"C7","midi":96,"time":143.70961274999985,"velocity":0.3858267716535433,"duration":0.4825266645833324},{"name":"C7","midi":96,"time":144.19348349999984,"velocity":0.25984251968503935,"duration":0.32123641458332486}]},{"instrument_number":47,"notes":[{"name":"C3","midi":48,"time":67.096744,"velocity":0.9921259842519685,"duration":2.5792999145833306},{"name":"C3","midi":48,"time":129.0322,"velocity":0.9921259842519685,"duration":2.579299914583345}]},{"instrument_number":11,"notes":[{"name":"D#4","midi":63,"time":25.80644,"velocity":0.6299212598425197,"duration":0.1599461645833351},{"name":"G4","midi":67,"time":25.80644,"velocity":0.6299212598425197,"duration":0.1599461645833351},{"name":"D#5","midi":75,"time":25.80644,"velocity":0.6299212598425197,"duration":0.1599461645833351},{"name":"G5","midi":79,"time":25.80644,"velocity":0.6299212598425197,"duration":0.1599461645833351},{"name":"D#4","midi":63,"time":26.29031075,"velocity":0.6299212598425197,"duration":0.4825266645833324},{"name":"G4","midi":67,"time":26.29031075,"velocity":0.6299212598425197,"duration":0.4825266645833324},{"name":"D#5","midi":75,"time":26.29031075,"velocity":0.6299212598425197,"duration":0.4825266645833324},{"name":"G5","midi":79,"time":26.29031075,"velocity":0.6299212598425197,"duration":0.4825266645833324},{"name":"D#4","midi":63,"time":26.774181499999997,"velocity":0.6299212598425197,"duration":0.0793010395833349},{"name":"G4","midi":67,"time":26.774181499999997,"velocity":0.6299212598425197,"duration":0.0793010395833349},{"name":"D#5","midi":75,"time":26.774181499999997,"velocity":0.6299212598425197,"duration":0.0793010395833349},{"name":"G5","midi":79,"time":26.774181499999997,"velocity":0.6299212598425197,"duration":0.0793010395833349},{"name":"D4","midi":62,"time":27.096762,"velocity":0.6299212598425197,"duration":0.15994616458333155},{"name":"F4","midi":65,"time":27.096762,"velocity":0.6299212598425197,"duration":0.15994616458333155},{"name":"D5","midi":74,"time":27.096762,"velocity":0.6299212598425197,"duration":0.15994616458333155},{"name":"F5","midi":77,"time":27.096762,"velocity":0.6299212598425197,"duration":0.15994616458333155},{"name":"D4","midi":62,"time":27.580632749999996,"velocity":0.6299212598425197,"duration":0.4825266645833324},{"name":"F4","midi":65,"time":27.580632749999996,"velocity":0.6299212598425197,"duration":0.4825266645833324},{"name":"D5","midi":74,"time":27.580632749999996,"velocity":0.6299212598425197,"duration":0.4825266645833324},{"name":"F5","midi":77,"time":27.580632749999996,"velocity":0.6299212598425197,"duration":0.4825266645833324},{"name":"D4","midi":62,"time":28.064503499999994,"velocity":0.6299212598425197,"duration":0.0793010395833349},{"name":"F4","midi":65,"time":28.064503499999994,"velocity":0.6299212598425197,"duration":0.0793010395833349},{"name":"D5","midi":74,"time":28.064503499999994,"velocity":0.6299212598425197,"duration":0.0793010395833349},{"name":"F5","midi":77,"time":28.064503499999994,"velocity":0.6299212598425197,"duration":0.0793010395833349},{"name":"C4","midi":60,"time":28.387083999999994,"velocity":0.6299212598425197,"duration":0.15994616458333155},{"name":"D#4","midi":63,"time":28.387083999999994,"velocity":0.6299212598425197,"duration":0.15994616458333155},{"name":"C5","midi":72,"time":28.387083999999994,"velocity":0.6299212598425197,"duration":0.15994616458333155},{"name":"D#5","midi":75,"time":28.387083999999994,"velocity":0.6299212598425197,"duration":0.15994616458333155},{"name":"C4","midi":60,"time":28.870954749999992,"velocity":0.6299212598425197,"duration":0.4825266645833324},{"name":"D#4","midi":63,"time":28.870954749999992,"velocity":0.6299212598425197,"duration":0.4825266645833324},{"name":"C5","midi":72,"time":28.870954749999992,"velocity":0.6299212598425197,"duration":0.4825266645833324},{"name":"D#5","midi":75,"time":28.870954749999992,"velocity":0.6299212598425197,"duration":0.4825266645833324},{"name":"C4","midi":60,"time":29.35482549999999,"velocity":0.6299212598425197,"duration":0.0793010395833349},{"name":"D#4","midi":63,"time":29.35482549999999,"velocity":0.6299212598425197,"duration":0.0793010395833349},{"name":"C5","midi":72,"time":29.35482549999999,"velocity":0.6299212598425197,"duration":0.0793010395833349},{"name":"D#5","midi":75,"time":29.35482549999999,"velocity":0.6299212598425197,"duration":0.0793010395833349},{"name":"D4","midi":62,"time":29.67740599999999,"velocity":0.6299212598425197,"duration":0.15994616458333155},{"name":"F4","midi":65,"time":29.67740599999999,"velocity":0.6299212598425197,"duration":0.15994616458333155},{"name":"D5","midi":74,"time":29.67740599999999,"velocity":0.6299212598425197,"duration":0.15994616458333155},{"name":"F5","midi":77,"time":29.67740599999999,"velocity":0.6299212598425197,"duration":0.15994616458333155},{"name":"D4","midi":62,"time":30.16127674999999,"velocity":0.6299212598425197,"duration":0.4825266645833324},{"name":"F4","midi":65,"time":30.16127674999999,"velocity":0.6299212598425197,"duration":0.4825266645833324},{"name":"D5","midi":74,"time":30.16127674999999,"velocity":0.6299212598425197,"duration":0.4825266645833324},{"name":"F5","midi":77,"time":30.16127674999999,"velocity":0.6299212598425197,"duration":0.4825266645833324},{"name":"D4","midi":62,"time":30.645147499999986,"velocity":0.6299212598425197,"duration":0.0793010395833349},{"name":"F4","midi":65,"time":30.645147499999986,"velocity":0.6299212598425197,"duration":0.0793010395833349},{"name":"D5","midi":74,"time":30.645147499999986,"velocity":0.6299212598425197,"duration":0.0793010395833349},{"name":"F5","midi":77,"time":30.645147499999986,"velocity":0.6299212598425197,"duration":0.0793010395833349},{"name":"D#4","midi":63,"time":30.967727999999987,"velocity":0.6299212598425197,"duration":0.15994616458333155},{"name":"G4","midi":67,"time":30.967727999999987,"velocity":0.6299212598425197,"duration":0.15994616458333155},{"name":"D#5","midi":75,"time":30.967727999999987,"velocity":0.6299212598425197,"duration":0.15994616458333155},{"name":"G5","midi":79,"time":30.967727999999987,"velocity":0.6299212598425197,"duration":0.15994616458333155},{"name":"D#4","midi":63,"time":31.451598749999985,"velocity":0.6299212598425197,"duration":0.4825266645833324},{"name":"G4","midi":67,"time":31.451598749999985,"velocity":0.6299212598425197,"duration":0.4825266645833324},{"name":"D#5","midi":75,"time":31.451598749999985,"velocity":0.6299212598425197,"duration":0.4825266645833324},{"name":"G5","midi":79,"time":31.451598749999985,"velocity":0.6299212598425197,"duration":0.4825266645833324},{"name":"D#4","midi":63,"time":31.935469499999982,"velocity":0.6299212598425197,"duration":0.0793010395833349},{"name":"G4","midi":67,"time":31.935469499999982,"velocity":0.6299212598425197,"duration":0.0793010395833349},{"name":"D#5","midi":75,"time":31.935469499999982,"velocity":0.6299212598425197,"duration":0.0793010395833349},{"name":"G5","midi":79,"time":31.935469499999982,"velocity":0.6299212598425197,"duration":0.0793010395833349},{"name":"D4","midi":62,"time":32.25804999999998,"velocity":0.6299212598425197,"duration":0.15994616458333155},{"name":"F4","midi":65,"time":32.25804999999998,"velocity":0.6299212598425197,"duration":0.15994616458333155},{"name":"D5","midi":74,"time":32.25804999999998,"velocity":0.6299212598425197,"duration":0.15994616458333155},{"name":"F5","midi":77,"time":32.25804999999998,"velocity":0.6299212598425197,"duration":0.15994616458333155},{"name":"D4","midi":62,"time":32.741920749999984,"velocity":0.6299212598425197,"duration":0.4825266645833324},{"name":"F4","midi":65,"time":32.741920749999984,"velocity":0.6299212598425197,"duration":0.4825266645833324},{"name":"D5","midi":74,"time":32.741920749999984,"velocity":0.6299212598425197,"duration":0.4825266645833324},{"name":"F5","midi":77,"time":32.741920749999984,"velocity":0.6299212598425197,"duration":0.4825266645833324},{"name":"D4","midi":62,"time":33.225791499999985,"velocity":0.6299212598425197,"duration":0.0793010395833349},{"name":"F4","midi":65,"time":33.225791499999985,"velocity":0.6299212598425197,"duration":0.0793010395833349},{"name":"D5","midi":74,"time":33.225791499999985,"velocity":0.6299212598425197,"duration":0.0793010395833349},{"name":"F5","midi":77,"time":33.225791499999985,"velocity":0.6299212598425197,"duration":0.0793010395833349},{"name":"D#5","midi":75,"time":36.129015999999986,"velocity":0.6299212598425197,"duration":0.6438169145833328},{"name":"F5","midi":77,"time":37.09675749999999,"velocity":0.6299212598425197,"duration":0.32123641458333196},{"name":"G5","midi":79,"time":37.41933799999999,"velocity":0.6299212598425197,"duration":0.4825266645833324},{"name":"C5","midi":72,"time":37.90320874999999,"velocity":0.6299212598425197,"duration":0.4825266645833324},{"name":"A#4","midi":70,"time":38.38707949999999,"velocity":0.6299212598425197,"duration":0.32123641458333196},{"name":"D#5","midi":75,"time":38.70965999999999,"velocity":0.6299212598425197,"duration":0.6438169145833328},{"name":"C5","midi":72,"time":39.99998199999999,"velocity":0.5039370078740157,"duration":0.4825266645833324},{"name":"C5","midi":72,"time":40.48385274999999,"velocity":0.3858267716535433,"duration":0.4825266645833324},{"name":"C5","midi":72,"time":40.96772349999999,"velocity":0.25984251968503935,"duration":0.32123641458333196},{"name":"D#5","midi":75,"time":41.29030399999999,"velocity":0.6299212598425197,"duration":0.6438169145833328},{"name":"F5","midi":77,"time":42.258045499999994,"velocity":0.6299212598425197,"duration":0.32123641458333196},{"name":"G5","midi":79,"time":42.580625999999995,"velocity":0.6299212598425197,"duration":0.4825266645833324},{"name":"C5","midi":72,"time":43.064496749999996,"velocity":0.6299212598425197,"duration":0.4825266645833324},{"name":"A#4","midi":70,"time":43.5483675,"velocity":0.6299212598425197,"duration":0.32123641458333196},{"name":"D#5","midi":75,"time":43.870948,"velocity":0.6299212598425197,"duration":0.4825266645833324},{"name":"D#5","midi":75,"time":44.35481875,"velocity":0.6299212598425197,"duration":0.4825266645833324},{"name":"D#5","midi":75,"time":44.8386895,"velocity":0.6299212598425197,"duration":0.32123641458333196},{"name":"C5","midi":72,"time":45.16127,"velocity":0.6299212598425197,"duration":0.4825266645833324},{"name":"D#5","midi":75,"time":46.451592,"velocity":0.6299212598425197,"duration":0.6438169145833328},{"name":"F5","midi":77,"time":47.4193335,"velocity":0.6299212598425197,"duration":0.32123641458333196},{"name":"G5","midi":79,"time":47.741914,"velocity":0.6299212598425197,"duration":0.4825266645833324},{"name":"C5","midi":72,"time":48.22578475,"velocity":0.6299212598425197,"duration":0.4825266645833324},{"name":"A#4","midi":70,"time":48.709655500000004,"velocity":0.6299212598425197,"duration":0.32123641458333196},{"name":"D#5","midi":75,"time":49.032236000000005,"velocity":0.6299212598425197,"duration":0.6438169145833328},{"name":"C5","midi":72,"time":50.322558,"velocity":0.5039370078740157,"duration":0.4825266645833324},{"name":"C5","midi":72,"time":50.80642875,"velocity":0.3858267716535433,"duration":0.4825266645833324},{"name":"C5","midi":72,"time":51.2902995,"velocity":0.25984251968503935,"duration":0.32123641458333196},{"name":"D#5","midi":75,"time":51.612880000000004,"velocity":0.6299212598425197,"duration":0.6438169145833328},{"name":"F5","midi":77,"time":52.58062150000001,"velocity":0.6299212598425197,"duration":0.32123641458333196},{"name":"G5","midi":79,"time":52.90320200000001,"velocity":0.6299212598425197,"duration":0.4825266645833324},{"name":"C5","midi":72,"time":53.38707275000001,"velocity":0.6299212598425197,"duration":0.4825266645833324},{"name":"A#4","midi":70,"time":53.87094350000001,"velocity":0.6299212598425197,"duration":0.32123641458333196},{"name":"D#5","midi":75,"time":54.19352400000001,"velocity":0.6299212598425197,"duration":0.4825266645833324},{"name":"D#5","midi":75,"time":54.67739475000001,"velocity":0.6299212598425197,"duration":0.4825266645833324},{"name":"D#5","midi":75,"time":55.16126550000001,"velocity":0.6299212598425197,"duration":0.32123641458333196},{"name":"C5","midi":72,"time":55.483846000000014,"velocity":0.6299212598425197,"duration":0.4825266645833324},{"name":"D#5","midi":75,"time":56.77416800000001,"velocity":0.6299212598425197,"duration":0.6438169145833328},{"name":"F5","midi":77,"time":57.74190950000001,"velocity":0.6299212598425197,"duration":0.32123641458333196},{"name":"G5","midi":79,"time":58.06449000000001,"velocity":0.6299212598425197,"duration":0.4825266645833324},{"name":"C5","midi":72,"time":58.548360750000015,"velocity":0.6299212598425197,"duration":0.4825266645833324},{"name":"A#4","midi":70,"time":59.032231500000016,"velocity":0.6299212598425197,"duration":0.32123641458333196},{"name":"D#5","midi":75,"time":59.35481200000002,"velocity":0.6299212598425197,"duration":0.6438169145833328},{"name":"C5","midi":72,"time":60.64513400000001,"velocity":0.5039370078740157,"duration":0.4825266645833324},{"name":"C5","midi":72,"time":61.129004750000014,"velocity":0.3858267716535433,"duration":0.4825266645833324},{"name":"C5","midi":72,"time":61.612875500000015,"velocity":0.25984251968503935,"duration":0.32123641458333196},{"name":"D#5","midi":75,"time":61.935456000000016,"velocity":0.6299212598425197,"duration":0.6438169145833328},{"name":"F5","midi":77,"time":62.90319750000002,"velocity":0.6299212598425197,"duration":0.32123641458333196},{"name":"G5","midi":79,"time":63.22577800000002,"velocity":0.6299212598425197,"duration":0.4825266645833324},{"name":"C5","midi":72,"time":63.70964875000002,"velocity":0.6299212598425197,"duration":0.4825266645833395},{"name":"A#4","midi":70,"time":64.19351950000002,"velocity":0.6299212598425197,"duration":0.32123641458333907},{"name":"D#5","midi":75,"time":64.51610000000002,"velocity":0.6299212598425197,"duration":0.4825266645833324},{"name":"D#5","midi":75,"time":108.38704800000002,"velocity":0.6299212598425197,"duration":0.6438169145833399},{"name":"F5","midi":77,"time":109.35478950000002,"velocity":0.6299212598425197,"duration":0.32123641458333907},{"name":"G5","midi":79,"time":109.67737000000002,"velocity":0.6299212598425197,"duration":0.4825266645833324},{"name":"C5","midi":72,"time":110.16124075000002,"velocity":0.6299212598425197,"duration":0.4825266645833324},{"name":"A#4","midi":70,"time":110.64511150000001,"velocity":0.6299212598425197,"duration":0.32123641458333907},{"name":"D#5","midi":75,"time":110.96769200000001,"velocity":0.6299212598425197,"duration":0.6438169145833399},{"name":"C5","midi":72,"time":112.25801400000002,"velocity":0.5039370078740157,"duration":0.4825266645833324},{"name":"D#5","midi":75,"time":113.54833600000002,"velocity":0.6299212598425197,"duration":0.6438169145833399},{"name":"F5","midi":77,"time":114.51607750000002,"velocity":0.6299212598425197,"duration":0.32123641458333907},{"name":"G5","midi":79,"time":114.83865800000002,"velocity":0.6299212598425197,"duration":0.4825266645833324},{"name":"C5","midi":72,"time":115.32252875000002,"velocity":0.6299212598425197,"duration":0.4825266645833324},{"name":"A#4","midi":70,"time":115.80639950000001,"velocity":0.6299212598425197,"duration":0.32123641458333907},{"name":"D#5","midi":75,"time":116.12898000000001,"velocity":0.6299212598425197,"duration":0.4825266645833324},{"name":"D#5","midi":75,"time":116.61285075,"velocity":0.6299212598425197,"duration":0.4825266645833324},{"name":"D#5","midi":75,"time":117.0967215,"velocity":0.6299212598425197,"duration":0.32123641458333907},{"name":"C5","midi":72,"time":117.419302,"velocity":0.6299212598425197,"duration":0.4825266645833324},{"name":"D#5","midi":75,"time":118.709624,"velocity":0.6299212598425197,"duration":0.6438169145833399},{"name":"F5","midi":77,"time":119.67736550000001,"velocity":0.6299212598425197,"duration":0.32123641458333907},{"name":"G5","midi":79,"time":119.99994600000001,"velocity":0.6299212598425197,"duration":0.4825266645833324},{"name":"C5","midi":72,"time":120.48381675,"velocity":0.6299212598425197,"duration":0.4825266645833324},{"name":"A#4","midi":70,"time":120.9676875,"velocity":0.6299212598425197,"duration":0.32123641458333907},{"name":"D#5","midi":75,"time":121.290268,"velocity":0.6299212598425197,"duration":0.6438169145833399},{"name":"C5","midi":72,"time":122.58059,"velocity":0.5039370078740157,"duration":0.4825266645833324},{"name":"C5","midi":72,"time":123.06446075,"velocity":0.3858267716535433,"duration":0.4825266645833324},{"name":"C5","midi":72,"time":123.54833149999999,"velocity":0.25984251968503935,"duration":0.32123641458333907},{"name":"D#5","midi":75,"time":123.87091199999999,"velocity":0.6299212598425197,"duration":0.6438169145833399},{"name":"F5","midi":77,"time":124.83865349999999,"velocity":0.6299212598425197,"duration":0.32123641458333907},{"name":"G5","midi":79,"time":125.161234,"velocity":0.6299212598425197,"duration":0.4825266645833324},{"name":"C5","midi":72,"time":125.64510474999999,"velocity":0.6299212598425197,"duration":0.4825266645833324},{"name":"A#4","midi":70,"time":126.12897549999998,"velocity":0.6299212598425197,"duration":0.32123641458333907},{"name":"D#5","midi":75,"time":126.45155599999998,"velocity":0.6299212598425197,"duration":0.4825266645833324},{"name":"D#4","midi":63,"time":190.96765599999998,"velocity":0.6299212598425197,"duration":0.15994616458334576},{"name":"G4","midi":67,"time":190.96765599999998,"velocity":0.6299212598425197,"duration":0.15994616458334576},{"name":"D#5","midi":75,"time":190.96765599999998,"velocity":0.6299212598425197,"duration":0.15994616458334576},{"name":"G5","midi":79,"time":190.96765599999998,"velocity":0.6299212598425197,"duration":0.15994616458334576},{"name":"D#4","midi":63,"time":191.45152675,"velocity":0.6299212598425197,"duration":0.4825266645833324},{"name":"G4","midi":67,"time":191.45152675,"velocity":0.6299212598425197,"duration":0.4825266645833324},{"name":"D#5","midi":75,"time":191.45152675,"velocity":0.6299212598425197,"duration":0.4825266645833324},{"name":"G5","midi":79,"time":191.45152675,"velocity":0.6299212598425197,"duration":0.4825266645833324},{"name":"D#4","midi":63,"time":191.9353975,"velocity":0.6299212598425197,"duration":0.07930103958332779},{"name":"G4","midi":67,"time":191.9353975,"velocity":0.6299212598425197,"duration":0.07930103958332779},{"name":"D#5","midi":75,"time":191.9353975,"velocity":0.6299212598425197,"duration":0.07930103958332779},{"name":"G5","midi":79,"time":191.9353975,"velocity":0.6299212598425197,"duration":0.07930103958332779},{"name":"D4","midi":62,"time":192.25797799999998,"velocity":0.6299212598425197,"duration":0.15994616458334576},{"name":"F4","midi":65,"time":192.25797799999998,"velocity":0.6299212598425197,"duration":0.15994616458334576},{"name":"D5","midi":74,"time":192.25797799999998,"velocity":0.6299212598425197,"duration":0.15994616458334576},{"name":"F5","midi":77,"time":192.25797799999998,"velocity":0.6299212598425197,"duration":0.15994616458334576},{"name":"D4","midi":62,"time":192.74184875,"velocity":0.6299212598425197,"duration":0.4825266645833324},{"name":"F4","midi":65,"time":192.74184875,"velocity":0.6299212598425197,"duration":0.4825266645833324},{"name":"D5","midi":74,"time":192.74184875,"velocity":0.6299212598425197,"duration":0.4825266645833324},{"name":"F5","midi":77,"time":192.74184875,"velocity":0.6299212598425197,"duration":0.4825266645833324},{"name":"D4","midi":62,"time":193.2257195,"velocity":0.6299212598425197,"duration":0.07930103958332779},{"name":"F4","midi":65,"time":193.2257195,"velocity":0.6299212598425197,"duration":0.07930103958332779},{"name":"D5","midi":74,"time":193.2257195,"velocity":0.6299212598425197,"duration":0.07930103958332779},{"name":"F5","midi":77,"time":193.2257195,"velocity":0.6299212598425197,"duration":0.07930103958332779},{"name":"C4","midi":60,"time":193.54829999999998,"velocity":0.6299212598425197,"duration":0.15994616458334576},{"name":"D#4","midi":63,"time":193.54829999999998,"velocity":0.6299212598425197,"duration":0.15994616458334576},{"name":"C5","midi":72,"time":193.54829999999998,"velocity":0.6299212598425197,"duration":0.15994616458334576},{"name":"D#5","midi":75,"time":193.54829999999998,"velocity":0.6299212598425197,"duration":0.15994616458334576},{"name":"C4","midi":60,"time":194.03217075,"velocity":0.6299212598425197,"duration":0.4825266645833324},{"name":"D#4","midi":63,"time":194.03217075,"velocity":0.6299212598425197,"duration":0.4825266645833324},{"name":"C5","midi":72,"time":194.03217075,"velocity":0.6299212598425197,"duration":0.4825266645833324},{"name":"D#5","midi":75,"time":194.03217075,"velocity":0.6299212598425197,"duration":0.4825266645833324},{"name":"C4","midi":60,"time":194.5160415,"velocity":0.6299212598425197,"duration":0.07930103958332779},{"name":"D#4","midi":63,"time":194.5160415,"velocity":0.6299212598425197,"duration":0.07930103958332779},{"name":"C5","midi":72,"time":194.5160415,"velocity":0.6299212598425197,"duration":0.07930103958332779},{"name":"D#5","midi":75,"time":194.5160415,"velocity":0.6299212598425197,"duration":0.07930103958332779},{"name":"D4","midi":62,"time":194.838622,"velocity":0.6299212598425197,"duration":0.15994616458334576},{"name":"F4","midi":65,"time":194.838622,"velocity":0.6299212598425197,"duration":0.15994616458334576},{"name":"D5","midi":74,"time":194.838622,"velocity":0.6299212598425197,"duration":0.15994616458334576},{"name":"F5","midi":77,"time":194.838622,"velocity":0.6299212598425197,"duration":0.15994616458334576},{"name":"D4","midi":62,"time":195.32249275,"velocity":0.6299212598425197,"duration":0.4825266645833324},{"name":"F4","midi":65,"time":195.32249275,"velocity":0.6299212598425197,"duration":0.4825266645833324},{"name":"D5","midi":74,"time":195.32249275,"velocity":0.6299212598425197,"duration":0.4825266645833324},{"name":"F5","midi":77,"time":195.32249275,"velocity":0.6299212598425197,"duration":0.4825266645833324},{"name":"D4","midi":62,"time":195.8063635,"velocity":0.6299212598425197,"duration":0.07930103958332779},{"name":"F4","midi":65,"time":195.8063635,"velocity":0.6299212598425197,"duration":0.07930103958332779},{"name":"D5","midi":74,"time":195.8063635,"velocity":0.6299212598425197,"duration":0.07930103958332779},{"name":"F5","midi":77,"time":195.8063635,"velocity":0.6299212598425197,"duration":0.07930103958332779},{"name":"D#4","midi":63,"time":196.128944,"velocity":0.6299212598425197,"duration":0.15994616458334576},{"name":"G4","midi":67,"time":196.128944,"velocity":0.6299212598425197,"duration":0.15994616458334576},{"name":"D#5","midi":75,"time":196.128944,"velocity":0.6299212598425197,"duration":0.15994616458334576},{"name":"G5","midi":79,"time":196.128944,"velocity":0.6299212598425197,"duration":0.15994616458334576},{"name":"D#4","midi":63,"time":196.61281475,"velocity":0.6299212598425197,"duration":0.4825266645833324},{"name":"G4","midi":67,"time":196.61281475,"velocity":0.6299212598425197,"duration":0.4825266645833324},{"name":"D#5","midi":75,"time":196.61281475,"velocity":0.6299212598425197,"duration":0.4825266645833324},{"name":"G5","midi":79,"time":196.61281475,"velocity":0.6299212598425197,"duration":0.4825266645833324},{"name":"D#4","midi":63,"time":197.0966855,"velocity":0.6299212598425197,"duration":0.07930103958332779},{"name":"G4","midi":67,"time":197.0966855,"velocity":0.6299212598425197,"duration":0.07930103958332779},{"name":"D#5","midi":75,"time":197.0966855,"velocity":0.6299212598425197,"duration":0.07930103958332779},{"name":"G5","midi":79,"time":197.0966855,"velocity":0.6299212598425197,"duration":0.07930103958332779},{"name":"D4","midi":62,"time":197.419266,"velocity":0.6299212598425197,"duration":0.15994616458334576},{"name":"F4","midi":65,"time":197.419266,"velocity":0.6299212598425197,"duration":0.15994616458334576},{"name":"D5","midi":74,"time":197.419266,"velocity":0.6299212598425197,"duration":0.15994616458334576},{"name":"F5","midi":77,"time":197.419266,"velocity":0.6299212598425197,"duration":0.15994616458334576},{"name":"D4","midi":62,"time":197.90313675000002,"velocity":0.6299212598425197,"duration":0.4825266645833324},{"name":"F4","midi":65,"time":197.90313675000002,"velocity":0.6299212598425197,"duration":0.4825266645833324},{"name":"D5","midi":74,"time":197.90313675000002,"velocity":0.6299212598425197,"duration":0.4825266645833324},{"name":"F5","midi":77,"time":197.90313675000002,"velocity":0.6299212598425197,"duration":0.4825266645833324},{"name":"D4","midi":62,"time":198.3870075,"velocity":0.6299212598425197,"duration":0.07930103958332779},{"name":"F4","midi":65,"time":198.3870075,"velocity":0.6299212598425197,"duration":0.07930103958332779},{"name":"D5","midi":74,"time":198.3870075,"velocity":0.6299212598425197,"duration":0.07930103958332779},{"name":"F5","midi":77,"time":198.3870075,"velocity":0.6299212598425197,"duration":0.07930103958332779},{"name":"D#4","midi":63,"time":201.290232,"velocity":0.6299212598425197,"duration":0.15994616458334576},{"name":"G4","midi":67,"time":201.290232,"velocity":0.6299212598425197,"duration":0.15994616458334576},{"name":"D#5","midi":75,"time":201.290232,"velocity":0.6299212598425197,"duration":0.15994616458334576},{"name":"G5","midi":79,"time":201.290232,"velocity":0.6299212598425197,"duration":0.15994616458334576},{"name":"D#4","midi":63,"time":201.77410275000003,"velocity":0.6299212598425197,"duration":0.4825266645833324},{"name":"G4","midi":67,"time":201.77410275000003,"velocity":0.6299212598425197,"duration":0.4825266645833324},{"name":"D#5","midi":75,"time":201.77410275000003,"velocity":0.6299212598425197,"duration":0.4825266645833324},{"name":"G5","midi":79,"time":201.77410275000003,"velocity":0.6299212598425197,"duration":0.4825266645833324},{"name":"D#4","midi":63,"time":202.25797350000002,"velocity":0.6299212598425197,"duration":0.07930103958332779},{"name":"G4","midi":67,"time":202.25797350000002,"velocity":0.6299212598425197,"duration":0.07930103958332779},{"name":"D#5","midi":75,"time":202.25797350000002,"velocity":0.6299212598425197,"duration":0.07930103958332779},{"name":"G5","midi":79,"time":202.25797350000002,"velocity":0.6299212598425197,"duration":0.07930103958332779},{"name":"D4","midi":62,"time":202.580554,"velocity":0.6299212598425197,"duration":0.15994616458334576},{"name":"F4","midi":65,"time":202.580554,"velocity":0.6299212598425197,"duration":0.15994616458334576},{"name":"D5","midi":74,"time":202.580554,"velocity":0.6299212598425197,"duration":0.15994616458334576},{"name":"F5","midi":77,"time":202.580554,"velocity":0.6299212598425197,"duration":0.15994616458334576},{"name":"D4","midi":62,"time":203.06442475000003,"velocity":0.6299212598425197,"duration":0.4825266645833324},{"name":"F4","midi":65,"time":203.06442475000003,"velocity":0.6299212598425197,"duration":0.4825266645833324},{"name":"D5","midi":74,"time":203.06442475000003,"velocity":0.6299212598425197,"duration":0.4825266645833324},{"name":"F5","midi":77,"time":203.06442475000003,"velocity":0.6299212598425197,"duration":0.4825266645833324},{"name":"D4","midi":62,"time":203.54829550000002,"velocity":0.6299212598425197,"duration":0.07930103958332779},{"name":"F4","midi":65,"time":203.54829550000002,"velocity":0.6299212598425197,"duration":0.07930103958332779},{"name":"D5","midi":74,"time":203.54829550000002,"velocity":0.6299212598425197,"duration":0.07930103958332779},{"name":"F5","midi":77,"time":203.54829550000002,"velocity":0.6299212598425197,"duration":0.07930103958332779},{"name":"C4","midi":60,"time":203.870876,"velocity":0.6299212598425197,"duration":0.15994616458334576},{"name":"D#4","midi":63,"time":203.870876,"velocity":0.6299212598425197,"duration":0.15994616458334576},{"name":"C5","midi":72,"time":203.870876,"velocity":0.6299212598425197,"duration":0.15994616458334576},{"name":"D#5","midi":75,"time":203.870876,"velocity":0.6299212598425197,"duration":0.15994616458334576},{"name":"C4","midi":60,"time":204.35474675000003,"velocity":0.6299212598425197,"duration":0.4825266645833324},{"name":"D#4","midi":63,"time":204.35474675000003,"velocity":0.6299212598425197,"duration":0.4825266645833324},{"name":"C5","midi":72,"time":204.35474675000003,"velocity":0.6299212598425197,"duration":0.4825266645833324},{"name":"D#5","midi":75,"time":204.35474675000003,"velocity":0.6299212598425197,"duration":0.4825266645833324},{"name":"C4","midi":60,"time":204.83861750000003,"velocity":0.6299212598425197,"duration":0.07930103958332779},{"name":"D#4","midi":63,"time":204.83861750000003,"velocity":0.6299212598425197,"duration":0.07930103958332779},{"name":"C5","midi":72,"time":204.83861750000003,"velocity":0.6299212598425197,"duration":0.07930103958332779},{"name":"D#5","midi":75,"time":204.83861750000003,"velocity":0.6299212598425197,"duration":0.07930103958332779},{"name":"D4","midi":62,"time":205.161198,"velocity":0.6299212598425197,"duration":0.15994616458334576},{"name":"F4","midi":65,"time":205.161198,"velocity":0.6299212598425197,"duration":0.15994616458334576},{"name":"D5","midi":74,"time":205.161198,"velocity":0.6299212598425197,"duration":0.15994616458334576},{"name":"F5","midi":77,"time":205.161198,"velocity":0.6299212598425197,"duration":0.15994616458334576},{"name":"D4","midi":62,"time":205.64506875000004,"velocity":0.6299212598425197,"duration":0.4825266645833324},{"name":"F4","midi":65,"time":205.64506875000004,"velocity":0.6299212598425197,"duration":0.4825266645833324},{"name":"D5","midi":74,"time":205.64506875000004,"velocity":0.6299212598425197,"duration":0.4825266645833324},{"name":"F5","midi":77,"time":205.64506875000004,"velocity":0.6299212598425197,"duration":0.4825266645833324},{"name":"D4","midi":62,"time":206.12893950000003,"velocity":0.6299212598425197,"duration":0.07930103958332779},{"name":"F4","midi":65,"time":206.12893950000003,"velocity":0.6299212598425197,"duration":0.07930103958332779},{"name":"D5","midi":74,"time":206.12893950000003,"velocity":0.6299212598425197,"duration":0.07930103958332779},{"name":"F5","midi":77,"time":206.12893950000003,"velocity":0.6299212598425197,"duration":0.07930103958332779},{"name":"D#4","midi":63,"time":206.45152000000002,"velocity":0.6299212598425197,"duration":0.15994616458334576},{"name":"G4","midi":67,"time":206.45152000000002,"velocity":0.6299212598425197,"duration":0.15994616458334576},{"name":"D#5","midi":75,"time":206.45152000000002,"velocity":0.6299212598425197,"duration":0.15994616458334576},{"name":"G5","midi":79,"time":206.45152000000002,"velocity":0.6299212598425197,"duration":0.15994616458334576},{"name":"D#4","midi":63,"time":206.93539075000004,"velocity":0.6299212598425197,"duration":0.4825266645833324},{"name":"G4","midi":67,"time":206.93539075000004,"velocity":0.6299212598425197,"duration":0.4825266645833324},{"name":"D#5","midi":75,"time":206.93539075000004,"velocity":0.6299212598425197,"duration":0.4825266645833324},{"name":"G5","midi":79,"time":206.93539075000004,"velocity":0.6299212598425197,"duration":0.4825266645833324},{"name":"D#4","midi":63,"time":207.41926150000003,"velocity":0.6299212598425197,"duration":0.07930103958332779},{"name":"G4","midi":67,"time":207.41926150000003,"velocity":0.6299212598425197,"duration":0.07930103958332779},{"name":"D#5","midi":75,"time":207.41926150000003,"velocity":0.6299212598425197,"duration":0.07930103958332779},{"name":"G5","midi":79,"time":207.41926150000003,"velocity":0.6299212598425197,"duration":0.07930103958332779},{"name":"D4","midi":62,"time":207.74184200000002,"velocity":0.6299212598425197,"duration":0.15994616458334576},{"name":"F4","midi":65,"time":207.74184200000002,"velocity":0.6299212598425197,"duration":0.15994616458334576},{"name":"D5","midi":74,"time":207.74184200000002,"velocity":0.6299212598425197,"duration":0.15994616458334576},{"name":"F5","midi":77,"time":207.74184200000002,"velocity":0.6299212598425197,"duration":0.15994616458334576},{"name":"D4","midi":62,"time":208.22571275000004,"velocity":0.6299212598425197,"duration":0.4825266645833324},{"name":"F4","midi":65,"time":208.22571275000004,"velocity":0.6299212598425197,"duration":0.4825266645833324},{"name":"D5","midi":74,"time":208.22571275000004,"velocity":0.6299212598425197,"duration":0.4825266645833324},{"name":"F5","midi":77,"time":208.22571275000004,"velocity":0.6299212598425197,"duration":0.4825266645833324},{"name":"D4","midi":62,"time":208.70958350000004,"velocity":0.6299212598425197,"duration":0.07930103958332779},{"name":"F4","midi":65,"time":208.70958350000004,"velocity":0.6299212598425197,"duration":0.07930103958332779},{"name":"D5","midi":74,"time":208.70958350000004,"velocity":0.6299212598425197,"duration":0.07930103958332779},{"name":"F5","midi":77,"time":208.70958350000004,"velocity":0.6299212598425197,"duration":0.07930103958332779}]},{"instrument_number":1000,"notes":[{"name":"C#3","midi":49,"time":5.161288,"velocity":0.7559055118110236,"duration":2.5792999145833333},{"name":"E3","midi":52,"time":5.161288,"velocity":0.7559055118110236,"duration":2.5792999145833333},{"name":"C#3","midi":49,"time":15.483864,"velocity":0.7559055118110236,"duration":2.579299914583334},{"name":"E3","midi":52,"time":15.483864,"velocity":0.7559055118110236,"duration":2.579299914583334},{"name":"G2","midi":43,"time":20.645152000000003,"velocity":0.7559055118110236,"duration":0.6438169145833328},{"name":"G2","midi":43,"time":21.290313,"velocity":0.7559055118110236,"duration":0.6438169145833328},{"name":"G2","midi":43,"time":21.935474,"velocity":0.7559055118110236,"duration":0.6438169145833328},{"name":"G2","midi":43,"time":22.580634999999997,"velocity":0.7559055118110236,"duration":0.6438169145833328},{"name":"G2","midi":43,"time":23.225795999999995,"velocity":0.7559055118110236,"duration":0.15994616458333155},{"name":"G2","midi":43,"time":23.387086249999992,"velocity":0.7559055118110236,"duration":0.1599461645833351},{"name":"G2","midi":43,"time":23.548376499999993,"velocity":0.7559055118110236,"duration":0.1599461645833351},{"name":"G2","midi":43,"time":23.709666749999993,"velocity":0.7559055118110236,"duration":0.1599461645833351},{"name":"G2","midi":43,"time":23.870956999999994,"velocity":0.7559055118110236,"duration":0.1599461645833351},{"name":"G2","midi":43,"time":24.032247249999994,"velocity":0.7559055118110236,"duration":0.1599461645833351},{"name":"G2","midi":43,"time":24.193537499999994,"velocity":0.7559055118110236,"duration":0.1599461645833351},{"name":"G2","midi":43,"time":24.354827749999995,"velocity":0.7559055118110236,"duration":0.1599461645833351},{"name":"C#2","midi":37,"time":25.483859499999998,"velocity":0.7559055118110236,"duration":0.1599461645833351},{"name":"C#2","midi":37,"time":25.645149749999998,"velocity":0.7559055118110236,"duration":0.1599461645833351},{"name":"G2","midi":43,"time":25.80644,"velocity":0.7559055118110236,"duration":0.6438169145833363},{"name":"F#2","midi":42,"time":26.29031075,"velocity":0.7559055118110236,"duration":0.1599461645833351},{"name":"C#2","midi":37,"time":26.451601,"velocity":0.7559055118110236,"duration":0.32123641458333196},{"name":"G2","midi":43,"time":26.451601,"velocity":0.7559055118110236,"duration":0.6438169145833292},{"name":"F#2","midi":42,"time":26.774181499999997,"velocity":0.7559055118110236,"duration":0.15994616458333155},{"name":"G2","midi":43,"time":27.096761999999995,"velocity":0.7559055118110236,"duration":0.6438169145833363},{"name":"F#2","midi":42,"time":27.580632749999996,"velocity":0.7559055118110236,"duration":0.1599461645833351},{"name":"C#2","midi":37,"time":27.741922999999996,"velocity":0.7559055118110236,"duration":0.32123641458333196},{"name":"G2","midi":43,"time":27.741922999999996,"velocity":0.7559055118110236,"duration":0.6438169145833292},{"name":"F#2","midi":42,"time":28.064503499999994,"velocity":0.7559055118110236,"duration":0.15994616458333155},{"name":"G2","midi":43,"time":28.38708399999999,"velocity":0.7559055118110236,"duration":0.6438169145833363},{"name":"F#2","midi":42,"time":28.870954749999992,"velocity":0.7559055118110236,"duration":0.1599461645833351},{"name":"C#2","midi":37,"time":29.032244999999993,"velocity":0.7559055118110236,"duration":0.32123641458333196},{"name":"G2","midi":43,"time":29.032244999999993,"velocity":0.7559055118110236,"duration":0.6438169145833292},{"name":"F#2","midi":42,"time":29.35482549999999,"velocity":0.7559055118110236,"duration":0.15994616458333155},{"name":"G2","midi":43,"time":29.677405999999987,"velocity":0.7559055118110236,"duration":0.6438169145833363},{"name":"F#2","midi":42,"time":30.16127674999999,"velocity":0.7559055118110236,"duration":0.1599461645833351},{"name":"C#2","midi":37,"time":30.32256699999999,"velocity":0.7559055118110236,"duration":0.32123641458333196},{"name":"G2","midi":43,"time":30.32256699999999,"velocity":0.7559055118110236,"duration":0.6438169145833292},{"name":"F#2","midi":42,"time":30.645147499999986,"velocity":0.7559055118110236,"duration":0.15994616458333155},{"name":"G2","midi":43,"time":30.967727999999983,"velocity":0.7559055118110236,"duration":0.6438169145833363},{"name":"F#2","midi":42,"time":31.451598749999985,"velocity":0.7559055118110236,"duration":0.1599461645833351},{"name":"C#2","midi":37,"time":31.612888999999985,"velocity":0.7559055118110236,"duration":0.32123641458333196},{"name":"G2","midi":43,"time":31.612888999999985,"velocity":0.7559055118110236,"duration":0.6438169145833292},{"name":"F#2","midi":42,"time":31.935469499999982,"velocity":0.7559055118110236,"duration":0.15994616458333155},{"name":"G2","midi":43,"time":32.25804999999998,"velocity":0.7559055118110236,"duration":0.6438169145833328},{"name":"F#2","midi":42,"time":32.741920749999984,"velocity":0.7559055118110236,"duration":0.15994616458333155},{"name":"C#2","midi":37,"time":32.903210999999985,"velocity":0.7559055118110236,"duration":0.32123641458333196},{"name":"G2","midi":43,"time":32.903210999999985,"velocity":0.7559055118110236,"duration":0.6438169145833328},{"name":"F#2","midi":42,"time":33.225791499999985,"velocity":0.7559055118110236,"duration":0.15994616458333155},{"name":"G2","midi":43,"time":33.548371999999986,"velocity":0.7559055118110236,"duration":0.6438169145833328},{"name":"F#2","midi":42,"time":34.03224274999999,"velocity":0.7559055118110236,"duration":0.15994616458333155},{"name":"C#2","midi":37,"time":34.19353299999999,"velocity":0.7559055118110236,"duration":0.32123641458333196},{"name":"G2","midi":43,"time":34.19353299999999,"velocity":0.7559055118110236,"duration":0.6438169145833328},{"name":"F#2","midi":42,"time":34.51611349999999,"velocity":0.7559055118110236,"duration":0.15994616458333155},{"name":"G2","midi":43,"time":34.83869399999999,"velocity":0.7559055118110236,"duration":0.6438169145833328},{"name":"E2","midi":40,"time":34.99998424999999,"velocity":0.7559055118110236,"duration":0.32123641458333196},{"name":"E2","midi":40,"time":35.32256474999999,"velocity":0.7559055118110236,"duration":0.15994616458333155},{"name":"D2","midi":38,"time":35.48385499999999,"velocity":0.7559055118110236,"duration":0.15994616458333155},{"name":"G2","midi":43,"time":35.48385499999999,"velocity":0.7559055118110236,"duration":0.6438169145833399},{"name":"F#2","midi":42,"time":35.64514524999999,"velocity":0.7559055118110236,"duration":0.0793010395833349},{"name":"F#2","midi":42,"time":35.725790374999995,"velocity":0.7559055118110236,"duration":0.0793010395833349},{"name":"C#2","midi":37,"time":35.8064355,"velocity":0.7559055118110236,"duration":0.15994616458333155},{"name":"C#2","midi":37,"time":35.96772575,"velocity":0.7559055118110236,"duration":0.15994616458333155},{"name":"G2","midi":43,"time":36.129016,"velocity":0.7559055118110236,"duration":0.6438169145833328},{"name":"G2","midi":43,"time":38.3870795,"velocity":0.7559055118110236,"duration":0.32123641458333196},{"name":"G2","midi":43,"time":38.70966,"velocity":0.7559055118110236,"duration":0.6438169145833328},{"name":"G2","midi":43,"time":41.290304,"velocity":0.7559055118110236,"duration":0.6438169145833328},{"name":"G2","midi":43,"time":43.5483675,"velocity":0.7559055118110236,"duration":0.32123641458333196},{"name":"G2","midi":43,"time":43.870948,"velocity":0.7559055118110236,"duration":0.6438169145833328},{"name":"G2","midi":43,"time":44.516109,"velocity":0.7559055118110236,"duration":0.6438169145833328},{"name":"G2","midi":43,"time":45.16127,"velocity":0.7559055118110236,"duration":0.6438169145833328},{"name":"G2","midi":43,"time":45.806431,"velocity":0.7559055118110236,"duration":0.21370958125000072},{"name":"G2","midi":43,"time":46.02148466666667,"velocity":0.7559055118110236,"duration":0.21370958125000072},{"name":"G2","midi":43,"time":46.23653833333334,"velocity":0.7559055118110236,"duration":0.21370958125000072},{"name":"G2","midi":43,"time":46.45159200000001,"velocity":0.7559055118110236,"duration":0.6438169145833328},{"name":"F#2","midi":42,"time":46.93546275000001,"velocity":0.7559055118110236,"duration":0.15994616458333155},{"name":"C#2","midi":37,"time":47.096753000000014,"velocity":0.7559055118110236,"duration":0.32123641458333196},{"name":"G2","midi":43,"time":47.096753000000014,"velocity":0.7559055118110236,"duration":0.6438169145833328},{"name":"F#2","midi":42,"time":47.419333500000015,"velocity":0.7559055118110236,"duration":0.15994616458333155},{"name":"G2","midi":43,"time":47.741914000000016,"velocity":0.7559055118110236,"duration":0.6438169145833328},{"name":"F#2","midi":42,"time":48.22578475000002,"velocity":0.7559055118110236,"duration":0.15994616458333155},{"name":"C#2","midi":37,"time":48.38707500000002,"velocity":0.7559055118110236,"duration":0.32123641458333196},{"name":"G2","midi":43,"time":48.38707500000002,"velocity":0.7559055118110236,"duration":0.6438169145833328},{"name":"F#2","midi":42,"time":48.70965550000002,"velocity":0.7559055118110236,"duration":0.15994616458333155},{"name":"G2","midi":43,"time":49.03223600000002,"velocity":0.7559055118110236,"duration":0.6438169145833328},{"name":"F#2","midi":42,"time":49.51610675000002,"velocity":0.7559055118110236,"duration":0.15994616458333155},{"name":"C#2","midi":37,"time":49.67739700000002,"velocity":0.7559055118110236,"duration":0.32123641458333196},{"name":"G2","midi":43,"time":49.67739700000002,"velocity":0.7559055118110236,"duration":0.6438169145833328},{"name":"F#2","midi":42,"time":49.99997750000002,"velocity":0.7559055118110236,"duration":0.15994616458333155},{"name":"G2","midi":43,"time":50.32255800000002,"velocity":0.7559055118110236,"duration":0.6438169145833328},{"name":"F#2","midi":42,"time":50.80642875000002,"velocity":0.7559055118110236,"duration":0.15994616458333155},{"name":"C#2","midi":37,"time":50.967719000000024,"velocity":0.7559055118110236,"duration":0.32123641458333196},{"name":"G2","midi":43,"time":50.967719000000024,"velocity":0.7559055118110236,"duration":0.6438169145833328},{"name":"F#2","midi":42,"time":51.290299500000025,"velocity":0.7559055118110236,"duration":0.15994616458333155},{"name":"G2","midi":43,"time":51.612880000000025,"velocity":0.7559055118110236,"duration":0.6438169145833328},{"name":"F#2","midi":42,"time":52.09675075000003,"velocity":0.7559055118110236,"duration":0.15994616458333155},{"name":"C#2","midi":37,"time":52.25804100000003,"velocity":0.7559055118110236,"duration":0.32123641458333196},{"name":"G2","midi":43,"time":52.25804100000003,"velocity":0.7559055118110236,"duration":0.6438169145833328},{"name":"F#2","midi":42,"time":52.58062150000003,"velocity":0.7559055118110236,"duration":0.15994616458333155},{"name":"G2","midi":43,"time":52.90320200000003,"velocity":0.7559055118110236,"duration":0.6438169145833328},{"name":"F#2","midi":42,"time":53.38707275000003,"velocity":0.7559055118110236,"duration":0.15994616458333155},{"name":"C#2","midi":37,"time":53.54836300000003,"velocity":0.7559055118110236,"duration":0.32123641458333196},{"name":"G2","midi":43,"time":53.54836300000003,"velocity":0.7559055118110236,"duration":0.6438169145833328},{"name":"F#2","midi":42,"time":53.87094350000003,"velocity":0.7559055118110236,"duration":0.15994616458333155},{"name":"G2","midi":43,"time":54.19352400000003,"velocity":0.7559055118110236,"duration":0.6438169145833328},{"name":"F#2","midi":42,"time":54.67739475000003,"velocity":0.7559055118110236,"duration":0.15994616458333155},{"name":"C#2","midi":37,"time":54.838685000000034,"velocity":0.7559055118110236,"duration":0.32123641458333196},{"name":"G2","midi":43,"time":54.838685000000034,"velocity":0.7559055118110236,"duration":0.6438169145833328},{"name":"F#2","midi":42,"time":55.161265500000034,"velocity":0.7559055118110236,"duration":0.15994616458333155},{"name":"G2","midi":43,"time":55.483846000000035,"velocity":0.7559055118110236,"duration":0.6438169145833328},{"name":"C#2","midi":37,"time":55.96771675000004,"velocity":0.7559055118110236,"duration":0.15994616458333155},{"name":"C#2","midi":37,"time":56.12900700000004,"velocity":0.7559055118110236,"duration":0.15994616458333155},{"name":"G2","midi":43,"time":56.12900700000004,"velocity":0.7559055118110236,"duration":0.6438169145833328},{"name":"C#2","midi":37,"time":56.29029725000004,"velocity":0.7559055118110236,"duration":0.15994616458333155},{"name":"D2","midi":38,"time":56.45158750000004,"velocity":0.7559055118110236,"duration":0.15994616458333155},{"name":"D2","midi":38,"time":56.61287775000004,"velocity":0.7559055118110236,"duration":0.15994616458333155},{"name":"G2","midi":43,"time":56.77416800000004,"velocity":0.7559055118110236,"duration":0.6438169145833328},{"name":"C#2","midi":37,"time":57.25803875000004,"velocity":0.7559055118110236,"duration":0.15994616458333155},{"name":"F#3","midi":54,"time":57.41932900000004,"velocity":0.7559055118110236,"duration":0.32123641458333196},{"name":"G2","midi":43,"time":57.41932900000004,"velocity":0.7559055118110236,"duration":0.6438169145833328},{"name":"C#2","midi":37,"time":57.74190950000004,"velocity":0.7559055118110236,"duration":0.15994616458333155},{"name":"G2","midi":43,"time":58.06449000000004,"velocity":0.7559055118110236,"duration":0.6438169145833328},{"name":"C#2","midi":37,"time":58.54836075000004,"velocity":0.7559055118110236,"duration":0.15994616458333155},{"name":"F#3","midi":54,"time":58.70965100000004,"velocity":0.7559055118110236,"duration":0.32123641458333196},{"name":"G2","midi":43,"time":58.70965100000004,"velocity":0.7559055118110236,"duration":0.6438169145833328},{"name":"C#2","midi":37,"time":59.032231500000044,"velocity":0.7559055118110236,"duration":0.15994616458333155},{"name":"G2","midi":43,"time":59.354812000000045,"velocity":0.7559055118110236,"duration":0.6438169145833328},{"name":"C#2","midi":37,"time":59.838682750000046,"velocity":0.7559055118110236,"duration":0.15994616458333155},{"name":"F#3","midi":54,"time":59.99997300000005,"velocity":0.7559055118110236,"duration":0.32123641458333196},{"name":"G2","midi":43,"time":59.99997300000005,"velocity":0.7559055118110236,"duration":0.6438169145833328},{"name":"C#2","midi":37,"time":60.32255350000005,"velocity":0.7559055118110236,"duration":0.15994616458333155},{"name":"G2","midi":43,"time":60.64513400000005,"velocity":0.7559055118110236,"duration":0.6438169145833328},{"name":"C#2","midi":37,"time":61.12900475000005,"velocity":0.7559055118110236,"duration":0.15994616458333155},{"name":"F#3","midi":54,"time":61.29029500000005,"velocity":0.7559055118110236,"duration":0.32123641458333196},{"name":"G2","midi":43,"time":61.29029500000005,"velocity":0.7559055118110236,"duration":0.6438169145833328},{"name":"C#2","midi":37,"time":61.61287550000005,"velocity":0.7559055118110236,"duration":0.15994616458333155},{"name":"G2","midi":43,"time":61.93545600000005,"velocity":0.7559055118110236,"duration":0.6438169145833328},{"name":"C#2","midi":37,"time":62.41932675000005,"velocity":0.7559055118110236,"duration":0.15994616458333155},{"name":"F#3","midi":54,"time":62.58061700000005,"velocity":0.7559055118110236,"duration":0.32123641458333196},{"name":"G2","midi":43,"time":62.58061700000005,"velocity":0.7559055118110236,"duration":0.6438169145833328},{"name":"C#2","midi":37,"time":62.903197500000054,"velocity":0.7559055118110236,"duration":0.15994616458333155},{"name":"G2","midi":43,"time":63.225778000000055,"velocity":0.7559055118110236,"duration":0.6438169145833328},{"name":"C#2","midi":37,"time":63.709648750000056,"velocity":0.7559055118110236,"duration":0.15994616458333155},{"name":"F#3","midi":54,"time":63.87093900000006,"velocity":0.7559055118110236,"duration":0.32123641458333196},{"name":"G2","midi":43,"time":63.87093900000006,"velocity":0.7559055118110236,"duration":0.6438169145833186},{"name":"C#2","midi":37,"time":64.19351950000005,"velocity":0.7559055118110236,"duration":0.15994616458333155},{"name":"G2","midi":43,"time":64.51610000000004,"velocity":0.7559055118110236,"duration":0.6438169145833257},{"name":"C#2","midi":37,"time":64.99997075000003,"velocity":0.7559055118110236,"duration":0.15994616458333155},{"name":"F#3","midi":54,"time":65.16126100000002,"velocity":0.7559055118110236,"duration":0.32123641458333907},{"name":"G2","midi":43,"time":65.16126100000002,"velocity":0.7559055118110236,"duration":0.6438169145833257},{"name":"C#2","midi":37,"time":65.48384150000003,"velocity":0.7559055118110236,"duration":0.15994616458333155},{"name":"C#3","midi":49,"time":67.09674400000002,"velocity":0.7559055118110236,"duration":0.6438169145833399},{"name":"E3","midi":52,"time":67.09674400000002,"velocity":0.7559055118110236,"duration":0.6438169145833399},{"name":"C#3","midi":49,"time":77.41932000000003,"velocity":0.7559055118110236,"duration":2.5792999145833306},{"name":"E3","midi":52,"time":77.41932000000003,"velocity":0.7559055118110236,"duration":2.5792999145833306},{"name":"G2","midi":43,"time":85.16125200000002,"velocity":0.7559055118110236,"duration":0.15994616458333155},{"name":"G2","midi":43,"time":85.32254225000001,"velocity":0.7559055118110236,"duration":0.15994616458333155},{"name":"G2","midi":43,"time":85.64512275000001,"velocity":0.7559055118110236,"duration":0.15994616458333155},{"name":"G2","midi":43,"time":85.806413,"velocity":0.7559055118110236,"duration":0.15994616458333155},{"name":"G2","midi":43,"time":85.96770325,"velocity":0.7559055118110236,"duration":0.15994616458333155},{"name":"G2","midi":43,"time":86.12899349999999,"velocity":0.7559055118110236,"duration":0.15994616458333155},{"name":"G2","midi":43,"time":86.29028374999999,"velocity":0.7559055118110236,"duration":0.15994616458333155},{"name":"C#2","midi":37,"time":87.41931549999998,"velocity":0.7559055118110236,"duration":0.15994616458333155},{"name":"C#2","midi":37,"time":87.58060574999998,"velocity":0.7559055118110236,"duration":0.15994616458333155},{"name":"G2","midi":43,"time":87.74189599999997,"velocity":0.8818897637795275,"duration":0.6438169145833257},{"name":"F#2","midi":42,"time":88.22576674999996,"velocity":0.8818897637795275,"duration":0.15994616458333155},{"name":"C#2","midi":37,"time":88.38705699999996,"velocity":0.8818897637795275,"duration":0.32123641458333907},{"name":"G2","midi":43,"time":88.38705699999996,"velocity":0.8818897637795275,"duration":0.6438169145833257},{"name":"F#2","midi":42,"time":88.70963749999996,"velocity":0.8818897637795275,"duration":0.15994616458333155},{"name":"G2","midi":43,"time":89.03221799999994,"velocity":0.8818897637795275,"duration":0.6438169145833257},{"name":"F#2","midi":42,"time":89.51608874999994,"velocity":0.8818897637795275,"duration":0.15994616458333155},{"name":"C#2","midi":37,"time":89.67737899999993,"velocity":0.8818897637795275,"duration":0.32123641458333907},{"name":"G2","midi":43,"time":89.67737899999993,"velocity":0.8818897637795275,"duration":0.6438169145833257},{"name":"F#2","midi":42,"time":89.99995949999993,"velocity":0.8818897637795275,"duration":0.15994616458333155},{"name":"G2","midi":43,"time":90.32253999999992,"velocity":0.8818897637795275,"duration":0.6438169145833257},{"name":"F#2","midi":42,"time":90.80641074999991,"velocity":0.8818897637795275,"duration":0.15994616458333155},{"name":"C#2","midi":37,"time":90.9677009999999,"velocity":0.8818897637795275,"duration":0.32123641458333907},{"name":"G2","midi":43,"time":90.9677009999999,"velocity":0.8818897637795275,"duration":0.6438169145833257},{"name":"F#2","midi":42,"time":91.2902814999999,"velocity":0.8818897637795275,"duration":0.15994616458333155},{"name":"G2","midi":43,"time":91.6128619999999,"velocity":0.8818897637795275,"duration":0.6438169145833257},{"name":"F#2","midi":42,"time":92.09673274999989,"velocity":0.8818897637795275,"duration":0.15994616458333155},{"name":"C#2","midi":37,"time":92.25802299999988,"velocity":0.8818897637795275,"duration":0.32123641458333907},{"name":"G2","midi":43,"time":92.25802299999988,"velocity":0.8818897637795275,"duration":0.6438169145833257},{"name":"F#2","midi":42,"time":92.58060349999988,"velocity":0.8818897637795275,"duration":0.15994616458333155},{"name":"G2","midi":43,"time":92.90318399999987,"velocity":0.8818897637795275,"duration":0.6438169145833257},{"name":"F#2","midi":42,"time":93.38705474999986,"velocity":0.8818897637795275,"duration":0.15994616458333155},{"name":"C#2","midi":37,"time":93.54834499999986,"velocity":0.8818897637795275,"duration":0.32123641458333907},{"name":"G2","midi":43,"time":93.54834499999986,"velocity":0.8818897637795275,"duration":0.6438169145833257},{"name":"F#2","midi":42,"time":93.87092549999986,"velocity":0.8818897637795275,"duration":0.15994616458333155},{"name":"G2","midi":43,"time":94.19350599999984,"velocity":0.8818897637795275,"duration":0.6438169145833257},{"name":"F#2","midi":42,"time":94.67737674999984,"velocity":0.8818897637795275,"duration":0.15994616458333155},{"name":"C#2","midi":37,"time":94.83866699999983,"velocity":0.8818897637795275,"duration":0.32123641458333907},{"name":"G2","midi":43,"time":94.83866699999983,"velocity":0.8818897637795275,"duration":0.6438169145833257},{"name":"F#2","midi":42,"time":95.16124749999983,"velocity":0.8818897637795275,"duration":0.15994616458333155},{"name":"G2","midi":43,"time":95.48382799999982,"velocity":0.8818897637795275,"duration":0.6438169145833257},{"name":"F#2","midi":42,"time":95.96769874999981,"velocity":0.8818897637795275,"duration":0.15994616458333155},{"name":"C#2","midi":37,"time":96.1289889999998,"velocity":0.8818897637795275,"duration":0.32123641458333907},{"name":"G2","midi":43,"time":96.1289889999998,"velocity":0.8818897637795275,"duration":0.6438169145833257},{"name":"F#2","midi":42,"time":96.4515694999998,"velocity":0.8818897637795275,"duration":0.15994616458333155},{"name":"G2","midi":43,"time":96.77414999999979,"velocity":0.8818897637795275,"duration":0.6438169145833257},{"name":"E2","midi":40,"time":96.93544024999979,"velocity":0.8818897637795275,"duration":0.32123641458333907},{"name":"E2","midi":40,"time":97.25802074999979,"velocity":0.8818897637795275,"duration":0.15994616458333155},{"name":"D2","midi":38,"time":97.41931099999978,"velocity":0.8818897637795275,"duration":0.15994616458333155},{"name":"G2","midi":43,"time":97.41931099999978,"velocity":0.8818897637795275,"duration":0.6438169145832973},{"name":"F#2","midi":42,"time":97.58060124999977,"velocity":0.8818897637795275,"duration":0.07930103958332779},{"name":"F#2","midi":42,"time":97.66124637499976,"velocity":0.8818897637795275,"duration":0.07930103958332779},{"name":"C#2","midi":37,"time":97.74189149999975,"velocity":0.8818897637795275,"duration":0.15994616458333155},{"name":"C#2","midi":37,"time":97.90318174999975,"velocity":0.8818897637795275,"duration":0.15994616458333155},{"name":"G2","midi":43,"time":98.06447199999974,"velocity":0.8818897637795275,"duration":0.6438169145833257},{"name":"F#2","midi":42,"time":98.54834274999973,"velocity":0.8818897637795275,"duration":0.15994616458333155},{"name":"C#2","midi":37,"time":98.70963299999973,"velocity":0.8818897637795275,"duration":0.32123641458333907},{"name":"G2","midi":43,"time":98.70963299999973,"velocity":0.8818897637795275,"duration":0.6438169145833257},{"name":"F#2","midi":42,"time":99.03221349999973,"velocity":0.8818897637795275,"duration":0.15994616458333155},{"name":"G2","midi":43,"time":99.35479399999971,"velocity":0.8818897637795275,"duration":0.6438169145833257},{"name":"F#2","midi":42,"time":99.83866474999971,"velocity":0.8818897637795275,"duration":0.15994616458333155},{"name":"C#2","midi":37,"time":99.9999549999997,"velocity":0.8818897637795275,"duration":0.32123641458333907},{"name":"G2","midi":43,"time":99.9999549999997,"velocity":0.8818897637795275,"duration":0.6438169145833257},{"name":"F#2","midi":42,"time":100.3225354999997,"velocity":0.8818897637795275,"duration":0.15994616458333155},{"name":"G2","midi":43,"time":100.64511599999969,"velocity":0.8818897637795275,"duration":0.6438169145833257},{"name":"F#2","midi":42,"time":101.12898674999968,"velocity":0.8818897637795275,"duration":0.15994616458333155},{"name":"C#2","midi":37,"time":101.29027699999968,"velocity":0.8818897637795275,"duration":0.32123641458333907},{"name":"G2","midi":43,"time":101.29027699999968,"velocity":0.8818897637795275,"duration":0.6438169145833257},{"name":"F#2","midi":42,"time":101.61285749999968,"velocity":0.8818897637795275,"duration":0.15994616458333155},{"name":"G2","midi":43,"time":101.93543799999966,"velocity":0.8818897637795275,"duration":0.6438169145833257},{"name":"F#2","midi":42,"time":102.41930874999966,"velocity":0.8818897637795275,"duration":0.15994616458333155},{"name":"C#2","midi":37,"time":102.58059899999965,"velocity":0.8818897637795275,"duration":0.32123641458333907},{"name":"G2","midi":43,"time":102.58059899999965,"velocity":0.8818897637795275,"duration":0.6438169145833257},{"name":"F#2","midi":42,"time":102.90317949999965,"velocity":0.8818897637795275,"duration":0.15994616458333155},{"name":"G2","midi":43,"time":103.22575999999964,"velocity":0.8818897637795275,"duration":0.6438169145833257},{"name":"F#2","midi":42,"time":103.70963074999963,"velocity":0.8818897637795275,"duration":0.15994616458333155},{"name":"C#2","midi":37,"time":103.87092099999963,"velocity":0.8818897637795275,"duration":0.32123641458333907},{"name":"G2","midi":43,"time":103.87092099999963,"velocity":0.8818897637795275,"duration":0.6438169145833257},{"name":"F#2","midi":42,"time":104.19350149999963,"velocity":0.8818897637795275,"duration":0.15994616458333155},{"name":"G2","midi":43,"time":104.51608199999961,"velocity":0.8818897637795275,"duration":0.6438169145833257},{"name":"F#2","midi":42,"time":104.99995274999961,"velocity":0.8818897637795275,"duration":0.15994616458333155},{"name":"C#2","midi":37,"time":105.1612429999996,"velocity":0.8818897637795275,"duration":0.32123641458333907},{"name":"G2","midi":43,"time":105.1612429999996,"velocity":0.8818897637795275,"duration":0.6438169145833257},{"name":"F#2","midi":42,"time":105.4838234999996,"velocity":0.8818897637795275,"duration":0.15994616458333155},{"name":"G2","midi":43,"time":105.80640399999959,"velocity":0.8818897637795275,"duration":0.6438169145833257},{"name":"F#2","midi":42,"time":106.29027474999958,"velocity":0.8818897637795275,"duration":0.15994616458333155},{"name":"C#2","midi":37,"time":106.45156499999958,"velocity":0.8818897637795275,"duration":0.32123641458333907},{"name":"G2","midi":43,"time":106.45156499999958,"velocity":0.8818897637795275,"duration":0.6438169145833257},{"name":"F#2","midi":42,"time":106.77414549999958,"velocity":0.8818897637795275,"duration":0.15994616458333155},{"name":"G2","midi":43,"time":107.09672599999956,"velocity":0.8818897637795275,"duration":0.6438169145833257},{"name":"E2","midi":40,"time":107.25801624999956,"velocity":0.8818897637795275,"duration":0.32123641458333907},{"name":"E2","midi":40,"time":107.58059674999956,"velocity":0.8818897637795275,"duration":0.15994616458333155},{"name":"D2","midi":38,"time":107.74188699999955,"velocity":0.8818897637795275,"duration":0.15994616458333155},{"name":"G2","midi":43,"time":107.74188699999955,"velocity":0.8818897637795275,"duration":0.6438169145832973},{"name":"F#2","midi":42,"time":107.90317724999954,"velocity":0.8818897637795275,"duration":0.07930103958332779},{"name":"F#2","midi":42,"time":107.98382237499953,"velocity":0.8818897637795275,"duration":0.07930103958332779},{"name":"C#2","midi":37,"time":108.06446749999952,"velocity":0.8818897637795275,"duration":0.15994616458333155},{"name":"C#2","midi":37,"time":108.22575774999952,"velocity":0.8818897637795275,"duration":0.15994616458333155},{"name":"G2","midi":43,"time":108.38704799999951,"velocity":0.7559055118110236,"duration":0.6438169145833399},{"name":"G2","midi":43,"time":109.03220899999951,"velocity":0.7559055118110236,"duration":0.6438169145833399},{"name":"G2","midi":43,"time":109.67736999999951,"velocity":0.7559055118110236,"duration":0.6438169145833399},{"name":"G2","midi":43,"time":110.32253099999951,"velocity":0.7559055118110236,"duration":0.6438169145833399},{"name":"G2","midi":43,"time":110.96769199999952,"velocity":0.7559055118110236,"duration":0.6438169145833399},{"name":"G2","midi":43,"time":111.61285299999952,"velocity":0.7559055118110236,"duration":0.6438169145833399},{"name":"G2","midi":43,"time":112.25801399999952,"velocity":0.7559055118110236,"duration":0.6438169145833399},{"name":"F#3","midi":54,"time":112.90317499999952,"velocity":0.7559055118110236,"duration":0.6438169145833399},{"name":"E3","midi":52,"time":112.90317499999952,"velocity":0.7559055118110236,"duration":0.6438169145833399},{"name":"G2","midi":43,"time":113.54833599999952,"velocity":0.7559055118110236,"duration":0.6438169145833399},{"name":"G2","midi":43,"time":114.19349699999952,"velocity":0.7559055118110236,"duration":0.6438169145833399},{"name":"G2","midi":43,"time":114.83865799999953,"velocity":0.7559055118110236,"duration":0.6438169145833399},{"name":"G2","midi":43,"time":115.48381899999953,"velocity":0.7559055118110236,"duration":0.6438169145833399},{"name":"G2","midi":43,"time":116.12897999999953,"velocity":0.7559055118110236,"duration":0.6438169145833399},{"name":"G2","midi":43,"time":116.77414099999953,"velocity":0.7559055118110236,"duration":0.6438169145833399},{"name":"G2","midi":43,"time":117.41930199999953,"velocity":0.7559055118110236,"duration":0.6438169145833399},{"name":"G2","midi":43,"time":118.06446299999953,"velocity":0.7559055118110236,"duration":0.6438169145833399},{"name":"G2","midi":43,"time":118.70962399999954,"velocity":0.7559055118110236,"duration":0.6438169145833257},{"name":"C#2","midi":37,"time":119.19349474999953,"velocity":0.7559055118110236,"duration":0.15994616458333155},{"name":"F#3","midi":54,"time":119.35478499999952,"velocity":0.7559055118110236,"duration":0.32123641458333907},{"name":"G2","midi":43,"time":119.35478499999952,"velocity":0.7559055118110236,"duration":0.6438169145833257},{"name":"C#2","midi":37,"time":119.67736549999952,"velocity":0.7559055118110236,"duration":0.15994616458333155},{"name":"G2","midi":43,"time":119.99994599999951,"velocity":0.7559055118110236,"duration":0.6438169145833257},{"name":"C#2","midi":37,"time":120.4838167499995,"velocity":0.7559055118110236,"duration":0.15994616458333155},{"name":"F#3","midi":54,"time":120.6451069999995,"velocity":0.7559055118110236,"duration":0.32123641458333907},{"name":"G2","midi":43,"time":120.6451069999995,"velocity":0.7559055118110236,"duration":0.6438169145833257},{"name":"C#2","midi":37,"time":120.9676874999995,"velocity":0.7559055118110236,"duration":0.15994616458333155},{"name":"G2","midi":43,"time":121.29026799999949,"velocity":0.7559055118110236,"duration":0.6438169145833257},{"name":"C#2","midi":37,"time":121.77413874999948,"velocity":0.7559055118110236,"duration":0.15994616458333155},{"name":"F#3","midi":54,"time":121.93542899999947,"velocity":0.7559055118110236,"duration":0.32123641458333907},{"name":"G2","midi":43,"time":121.93542899999947,"velocity":0.7559055118110236,"duration":0.6438169145833257},{"name":"C#2","midi":37,"time":122.25800949999947,"velocity":0.7559055118110236,"duration":0.15994616458333155},{"name":"G2","midi":43,"time":122.58058999999946,"velocity":0.7559055118110236,"duration":0.6438169145833257},{"name":"C#2","midi":37,"time":123.06446074999945,"velocity":0.7559055118110236,"duration":0.15994616458333155},{"name":"F#3","midi":54,"time":123.22575099999945,"velocity":0.7559055118110236,"duration":0.32123641458333907},{"name":"G2","midi":43,"time":123.22575099999945,"velocity":0.7559055118110236,"duration":0.6438169145833257},{"name":"C#2","midi":37,"time":123.54833149999945,"velocity":0.7559055118110236,"duration":0.15994616458333155},{"name":"G2","midi":43,"time":123.87091199999944,"velocity":0.7559055118110236,"duration":0.6438169145833257},{"name":"C#2","midi":37,"time":124.35478274999943,"velocity":0.7559055118110236,"duration":0.15994616458333155},{"name":"F#3","midi":54,"time":124.51607299999942,"velocity":0.7559055118110236,"duration":0.32123641458333907},{"name":"G2","midi":43,"time":124.51607299999942,"velocity":0.7559055118110236,"duration":0.6438169145833257},{"name":"C#2","midi":37,"time":124.83865349999942,"velocity":0.7559055118110236,"duration":0.15994616458333155},{"name":"G2","midi":43,"time":125.16123399999941,"velocity":0.7559055118110236,"duration":0.6438169145833257},{"name":"C#2","midi":37,"time":125.6451047499994,"velocity":0.7559055118110236,"duration":0.15994616458333155},{"name":"F#3","midi":54,"time":125.8063949999994,"velocity":0.7559055118110236,"duration":0.32123641458333907},{"name":"G2","midi":43,"time":125.8063949999994,"velocity":0.7559055118110236,"duration":0.6438169145833257},{"name":"C#2","midi":37,"time":126.1289754999994,"velocity":0.7559055118110236,"duration":0.15994616458333155},{"name":"G2","midi":43,"time":126.45155599999939,"velocity":0.7559055118110236,"duration":0.32123641458333907},{"name":"G2","midi":43,"time":126.77413649999939,"velocity":0.7559055118110236,"duration":0.32123641458333907},{"name":"G2","midi":43,"time":127.09671699999939,"velocity":0.7559055118110236,"duration":0.32123641458333907},{"name":"G2","midi":43,"time":127.41929749999939,"velocity":0.7559055118110236,"duration":0.32123641458333907},{"name":"G2","midi":43,"time":127.74187799999939,"velocity":0.7559055118110236,"duration":0.6438169145833399},{"name":"C#3","midi":49,"time":129.0321999999994,"velocity":0.7559055118110236,"duration":0.6438169145833399},{"name":"E3","midi":52,"time":129.0321999999994,"velocity":0.7559055118110236,"duration":0.6438169145833399},{"name":"C#3","midi":49,"time":139.3547759999994,"velocity":0.7559055118110236,"duration":2.579299914583345},{"name":"E3","midi":52,"time":139.3547759999994,"velocity":0.7559055118110236,"duration":2.579299914583345},{"name":"G2","midi":43,"time":147.0967079999994,"velocity":0.7559055118110236,"duration":0.15994616458334576},{"name":"G2","midi":43,"time":147.25799824999942,"velocity":0.7559055118110236,"duration":0.15994616458334576},{"name":"G2","midi":43,"time":147.58057874999943,"velocity":0.7559055118110236,"duration":0.15994616458334576},{"name":"G2","midi":43,"time":147.74186899999944,"velocity":0.7559055118110236,"duration":0.15994616458334576},{"name":"G2","midi":43,"time":147.90315924999945,"velocity":0.7559055118110236,"duration":0.15994616458334576},{"name":"G2","midi":43,"time":148.06444949999945,"velocity":0.7559055118110236,"duration":0.15994616458334576},{"name":"G2","midi":43,"time":148.22573974999946,"velocity":0.7559055118110236,"duration":0.15994616458334576},{"name":"C#2","midi":37,"time":149.3547714999995,"velocity":0.7559055118110236,"duration":0.15994616458334576},{"name":"C#2","midi":37,"time":149.5160617499995,"velocity":0.7559055118110236,"duration":0.15994616458334576},{"name":"G2","midi":43,"time":149.6773519999995,"velocity":0.8818897637795275,"duration":0.6438169145833399},{"name":"F#2","midi":42,"time":150.1612227499995,"velocity":0.8818897637795275,"duration":0.15994616458334576},{"name":"C#2","midi":37,"time":150.3225129999995,"velocity":0.8818897637795275,"duration":0.32123641458332486},{"name":"G2","midi":43,"time":150.3225129999995,"velocity":0.8818897637795275,"duration":0.6438169145833399},{"name":"F#2","midi":42,"time":150.6450934999995,"velocity":0.8818897637795275,"duration":0.15994616458334576},{"name":"G2","midi":43,"time":150.9676739999995,"velocity":0.8818897637795275,"duration":0.6438169145833399},{"name":"F#2","midi":42,"time":151.4515447499995,"velocity":0.8818897637795275,"duration":0.15994616458334576},{"name":"C#2","midi":37,"time":151.6128349999995,"velocity":0.8818897637795275,"duration":0.32123641458332486},{"name":"G2","midi":43,"time":151.6128349999995,"velocity":0.8818897637795275,"duration":0.6438169145833399},{"name":"F#2","midi":42,"time":151.9354154999995,"velocity":0.8818897637795275,"duration":0.15994616458334576},{"name":"G2","midi":43,"time":152.2579959999995,"velocity":0.8818897637795275,"duration":0.6438169145833399},{"name":"F#2","midi":42,"time":152.7418667499995,"velocity":0.8818897637795275,"duration":0.15994616458334576},{"name":"C#2","midi":37,"time":152.9031569999995,"velocity":0.8818897637795275,"duration":0.32123641458332486},{"name":"G2","midi":43,"time":152.9031569999995,"velocity":0.8818897637795275,"duration":0.6438169145833399},{"name":"F#2","midi":42,"time":153.2257374999995,"velocity":0.8818897637795275,"duration":0.15994616458334576},{"name":"G2","midi":43,"time":153.5483179999995,"velocity":0.8818897637795275,"duration":0.6438169145833399},{"name":"F#2","midi":42,"time":154.0321887499995,"velocity":0.8818897637795275,"duration":0.15994616458334576},{"name":"C#2","midi":37,"time":154.1934789999995,"velocity":0.8818897637795275,"duration":0.32123641458332486},{"name":"G2","midi":43,"time":154.1934789999995,"velocity":0.8818897637795275,"duration":0.6438169145833399},{"name":"F#2","midi":42,"time":154.5160594999995,"velocity":0.8818897637795275,"duration":0.15994616458334576},{"name":"G2","midi":43,"time":154.83863999999951,"velocity":0.8818897637795275,"duration":0.6438169145833399},{"name":"F#2","midi":42,"time":155.3225107499995,"velocity":0.8818897637795275,"duration":0.15994616458334576},{"name":"C#2","midi":37,"time":155.48380099999952,"velocity":0.8818897637795275,"duration":0.32123641458332486},{"name":"G2","midi":43,"time":155.48380099999952,"velocity":0.8818897637795275,"duration":0.6438169145833399},{"name":"F#2","midi":42,"time":155.8063814999995,"velocity":0.8818897637795275,"duration":0.15994616458334576},{"name":"G2","midi":43,"time":156.12896199999952,"velocity":0.8818897637795275,"duration":0.6438169145833399},{"name":"F#2","midi":42,"time":156.6128327499995,"velocity":0.8818897637795275,"duration":0.15994616458334576},{"name":"C#2","midi":37,"time":156.77412299999952,"velocity":0.8818897637795275,"duration":0.32123641458332486},{"name":"G2","midi":43,"time":156.77412299999952,"velocity":0.8818897637795275,"duration":0.6438169145833399},{"name":"F#2","midi":42,"time":157.0967034999995,"velocity":0.8818897637795275,"duration":0.15994616458334576},{"name":"G2","midi":43,"time":157.41928399999952,"velocity":0.8818897637795275,"duration":0.6438169145833399},{"name":"F#2","midi":42,"time":157.90315474999952,"velocity":0.8818897637795275,"duration":0.15994616458334576},{"name":"C#2","midi":37,"time":158.06444499999952,"velocity":0.8818897637795275,"duration":0.32123641458332486},{"name":"G2","midi":43,"time":158.06444499999952,"velocity":0.8818897637795275,"duration":0.6438169145833399},{"name":"F#2","midi":42,"time":158.3870254999995,"velocity":0.8818897637795275,"duration":0.15994616458334576},{"name":"G2","midi":43,"time":158.70960599999952,"velocity":0.8818897637795275,"duration":0.6438169145833399},{"name":"E2","midi":40,"time":158.87089624999953,"velocity":0.8818897637795275,"duration":0.32123641458332486},{"name":"E2","midi":40,"time":159.19347674999952,"velocity":0.8818897637795275,"duration":0.15994616458334576},{"name":"D2","midi":38,"time":159.35476699999953,"velocity":0.8818897637795275,"duration":0.15994616458334576},{"name":"G2","midi":43,"time":159.35476699999953,"velocity":0.8818897637795275,"duration":0.6438169145833399},{"name":"F#2","midi":42,"time":159.51605724999953,"velocity":0.8818897637795275,"duration":0.07930103958332779},{"name":"F#2","midi":42,"time":159.59670237499952,"velocity":0.8818897637795275,"duration":0.07930103958332779},{"name":"C#2","midi":37,"time":159.6773474999995,"velocity":0.8818897637795275,"duration":0.15994616458334576},{"name":"C#2","midi":37,"time":159.83863774999952,"velocity":0.8818897637795275,"duration":0.15994616458334576},{"name":"G2","midi":43,"time":159.99992799999953,"velocity":0.8818897637795275,"duration":0.6438169145833399},{"name":"F#2","midi":42,"time":160.48379874999952,"velocity":0.8818897637795275,"duration":0.15994616458334576},{"name":"C#2","midi":37,"time":160.64508899999953,"velocity":0.8818897637795275,"duration":0.32123641458332486},{"name":"G2","midi":43,"time":160.64508899999953,"velocity":0.8818897637795275,"duration":0.6438169145833399},{"name":"F#2","midi":42,"time":160.96766949999952,"velocity":0.8818897637795275,"duration":0.15994616458334576},{"name":"G2","midi":43,"time":161.29024999999953,"velocity":0.8818897637795275,"duration":0.6438169145833399},{"name":"F#2","midi":42,"time":161.77412074999953,"velocity":0.8818897637795275,"duration":0.15994616458334576},{"name":"C#2","midi":37,"time":161.93541099999953,"velocity":0.8818897637795275,"duration":0.32123641458332486},{"name":"G2","midi":43,"time":161.93541099999953,"velocity":0.8818897637795275,"duration":0.6438169145833399},{"name":"F#2","midi":42,"time":162.25799149999952,"velocity":0.8818897637795275,"duration":0.15994616458334576},{"name":"G2","midi":43,"time":162.58057199999953,"velocity":0.8818897637795275,"duration":0.6438169145833399},{"name":"F#2","midi":42,"time":163.06444274999953,"velocity":0.8818897637795275,"duration":0.15994616458334576},{"name":"C#2","midi":37,"time":163.22573299999954,"velocity":0.8818897637795275,"duration":0.32123641458332486},{"name":"G2","midi":43,"time":163.22573299999954,"velocity":0.8818897637795275,"duration":0.6438169145833399},{"name":"F#2","midi":42,"time":163.54831349999952,"velocity":0.8818897637795275,"duration":0.15994616458334576},{"name":"G2","midi":43,"time":163.87089399999954,"velocity":0.8818897637795275,"duration":0.6438169145833399},{"name":"F#2","midi":42,"time":164.35476474999953,"velocity":0.8818897637795275,"duration":0.15994616458334576},{"name":"C#2","midi":37,"time":164.51605499999954,"velocity":0.8818897637795275,"duration":0.32123641458332486},{"name":"G2","midi":43,"time":164.51605499999954,"velocity":0.8818897637795275,"duration":0.6438169145833399},{"name":"F#2","midi":42,"time":164.83863549999953,"velocity":0.8818897637795275,"duration":0.15994616458334576},{"name":"G2","midi":43,"time":165.16121599999954,"velocity":0.8818897637795275,"duration":0.6438169145833399},{"name":"F#2","midi":42,"time":165.64508674999954,"velocity":0.8818897637795275,"duration":0.15994616458334576},{"name":"C#2","midi":37,"time":165.80637699999954,"velocity":0.8818897637795275,"duration":0.32123641458332486},{"name":"G2","midi":43,"time":165.80637699999954,"velocity":0.8818897637795275,"duration":0.6438169145833399},{"name":"F#2","midi":42,"time":166.12895749999953,"velocity":0.8818897637795275,"duration":0.15994616458334576},{"name":"G2","midi":43,"time":166.45153799999954,"velocity":0.8818897637795275,"duration":0.6438169145833399},{"name":"F#2","midi":42,"time":166.93540874999954,"velocity":0.8818897637795275,"duration":0.15994616458334576},{"name":"C#2","midi":37,"time":167.09669899999955,"velocity":0.8818897637795275,"duration":0.32123641458332486},{"name":"G2","midi":43,"time":167.09669899999955,"velocity":0.8818897637795275,"duration":0.6438169145833399},{"name":"F#2","midi":42,"time":167.41927949999953,"velocity":0.8818897637795275,"duration":0.15994616458334576},{"name":"G2","midi":43,"time":167.74185999999955,"velocity":0.8818897637795275,"duration":0.6438169145833399},{"name":"F#2","midi":42,"time":168.22573074999954,"velocity":0.8818897637795275,"duration":0.15994616458334576},{"name":"C#2","midi":37,"time":168.38702099999955,"velocity":0.8818897637795275,"duration":0.32123641458332486},{"name":"G2","midi":43,"time":168.38702099999955,"velocity":0.8818897637795275,"duration":0.6438169145833399},{"name":"F#2","midi":42,"time":168.70960149999954,"velocity":0.8818897637795275,"duration":0.15994616458334576},{"name":"G2","midi":43,"time":169.03218199999955,"velocity":0.8818897637795275,"duration":0.6438169145833399},{"name":"E2","midi":40,"time":169.19347224999956,"velocity":0.8818897637795275,"duration":0.32123641458332486},{"name":"E2","midi":40,"time":169.51605274999955,"velocity":0.8818897637795275,"duration":0.15994616458334576},{"name":"D2","midi":38,"time":169.67734299999955,"velocity":0.8818897637795275,"duration":0.15994616458334576},{"name":"G2","midi":43,"time":169.67734299999955,"velocity":0.8818897637795275,"duration":0.6438169145833399},{"name":"F#2","midi":42,"time":169.83863324999956,"velocity":0.8818897637795275,"duration":0.07930103958332779},{"name":"F#2","midi":42,"time":169.91927837499955,"velocity":0.8818897637795275,"duration":0.07930103958332779},{"name":"C#2","midi":37,"time":169.99992349999954,"velocity":0.8818897637795275,"duration":0.15994616458334576},{"name":"C#2","midi":37,"time":170.16121374999955,"velocity":0.8818897637795275,"duration":0.15994616458334576},{"name":"G2","midi":43,"time":180.64507999999955,"velocity":0.8818897637795275,"duration":0.6438169145833399},{"name":"G2","midi":43,"time":181.29024099999955,"velocity":0.8818897637795275,"duration":0.6438169145833399},{"name":"G2","midi":43,"time":181.93540199999956,"velocity":0.8818897637795275,"duration":0.6438169145833399},{"name":"G2","midi":43,"time":182.58056299999956,"velocity":0.8818897637795275,"duration":0.6438169145833399},{"name":"G2","midi":43,"time":183.22572399999956,"velocity":0.8818897637795275,"duration":0.6438169145833399},{"name":"G2","midi":43,"time":183.87088499999956,"velocity":0.8818897637795275,"duration":0.6438169145833399},{"name":"G2","midi":43,"time":184.51604599999956,"velocity":0.8818897637795275,"duration":0.6438169145833399},{"name":"G2","midi":43,"time":185.16120699999956,"velocity":0.8818897637795275,"duration":0.6438169145833399},{"name":"G2","midi":43,"time":185.80636799999957,"velocity":0.8818897637795275,"duration":0.32123641458332486},{"name":"G2","midi":43,"time":186.12894849999955,"velocity":0.8818897637795275,"duration":0.32123641458332486},{"name":"G2","midi":43,"time":186.45152899999954,"velocity":0.8818897637795275,"duration":0.32123641458332486},{"name":"G2","midi":43,"time":186.77410949999953,"velocity":0.8818897637795275,"duration":0.32123641458332486},{"name":"G2","midi":43,"time":187.0966899999995,"velocity":0.8818897637795275,"duration":0.32123641458332486},{"name":"G2","midi":43,"time":187.4192704999995,"velocity":0.8818897637795275,"duration":0.32123641458332486},{"name":"G2","midi":43,"time":187.74185099999949,"velocity":0.8818897637795275,"duration":0.32123641458332486},{"name":"G2","midi":43,"time":188.06443149999947,"velocity":0.8818897637795275,"duration":0.32123641458332486},{"name":"G2","midi":43,"time":188.38701199999946,"velocity":0.8818897637795275,"duration":0.15994616458334576},{"name":"G2","midi":43,"time":188.54830224999947,"velocity":0.8818897637795275,"duration":0.15994616458334576},{"name":"G2","midi":43,"time":188.87088274999948,"velocity":0.8818897637795275,"duration":0.15994616458334576},{"name":"G2","midi":43,"time":189.0321729999995,"velocity":0.8818897637795275,"duration":0.15994616458334576},{"name":"G2","midi":43,"time":189.1934632499995,"velocity":0.8818897637795275,"duration":0.15994616458334576},{"name":"G2","midi":43,"time":189.3547534999995,"velocity":0.8818897637795275,"duration":0.15994616458334576},{"name":"G2","midi":43,"time":189.5160437499995,"velocity":0.8818897637795275,"duration":0.15994616458334576},{"name":"G2","midi":43,"time":189.67733399999952,"velocity":0.8818897637795275,"duration":0.6438169145833399},{"name":"E3","midi":52,"time":189.67733399999952,"velocity":0.8818897637795275,"duration":0.6438169145833399},{"name":"G2","midi":43,"time":190.96765599999952,"velocity":0.8818897637795275,"duration":0.6438169145833399},{"name":"F#2","midi":42,"time":191.45152674999952,"velocity":0.8818897637795275,"duration":0.15994616458334576},{"name":"C#2","midi":37,"time":191.61281699999952,"velocity":0.8818897637795275,"duration":0.32123641458332486},{"name":"G2","midi":43,"time":191.61281699999952,"velocity":0.8818897637795275,"duration":0.6438169145833399},{"name":"F#2","midi":42,"time":191.9353974999995,"velocity":0.8818897637795275,"duration":0.15994616458334576},{"name":"G2","midi":43,"time":192.25797799999953,"velocity":0.8818897637795275,"duration":0.6438169145833399},{"name":"F#2","midi":42,"time":192.74184874999952,"velocity":0.8818897637795275,"duration":0.15994616458334576},{"name":"C#2","midi":37,"time":192.90313899999953,"velocity":0.8818897637795275,"duration":0.32123641458332486},{"name":"G2","midi":43,"time":192.90313899999953,"velocity":0.8818897637795275,"duration":0.6438169145833399},{"name":"F#2","midi":42,"time":193.2257194999995,"velocity":0.8818897637795275,"duration":0.15994616458334576},{"name":"G2","midi":43,"time":193.54829999999953,"velocity":0.8818897637795275,"duration":0.6438169145833399},{"name":"F#2","midi":42,"time":194.03217074999952,"velocity":0.8818897637795275,"duration":0.15994616458334576},{"name":"C#2","midi":37,"time":194.19346099999953,"velocity":0.8818897637795275,"duration":0.32123641458332486},{"name":"G2","midi":43,"time":194.19346099999953,"velocity":0.8818897637795275,"duration":0.6438169145833399},{"name":"F#2","midi":42,"time":194.51604149999952,"velocity":0.8818897637795275,"duration":0.15994616458334576},{"name":"G2","midi":43,"time":194.83862199999953,"velocity":0.8818897637795275,"duration":0.6438169145833399},{"name":"F#2","midi":42,"time":195.32249274999953,"velocity":0.8818897637795275,"duration":0.15994616458334576},{"name":"C#2","midi":37,"time":195.48378299999953,"velocity":0.8818897637795275,"duration":0.32123641458332486},{"name":"G2","midi":43,"time":195.48378299999953,"velocity":0.8818897637795275,"duration":0.6438169145833399},{"name":"F#2","midi":42,"time":195.80636349999952,"velocity":0.8818897637795275,"duration":0.15994616458334576},{"name":"G2","midi":43,"time":196.12894399999954,"velocity":0.8818897637795275,"duration":0.6438169145833399},{"name":"F#2","midi":42,"time":196.61281474999953,"velocity":0.8818897637795275,"duration":0.15994616458334576},{"name":"C#2","midi":37,"time":196.77410499999954,"velocity":0.8818897637795275,"duration":0.32123641458332486},{"name":"G2","midi":43,"time":196.77410499999954,"velocity":0.8818897637795275,"duration":0.6438169145833399},{"name":"F#2","midi":42,"time":197.09668549999952,"velocity":0.8818897637795275,"duration":0.15994616458334576},{"name":"G2","midi":43,"time":197.41926599999954,"velocity":0.8818897637795275,"duration":0.6438169145833399},{"name":"F#2","midi":42,"time":197.90313674999953,"velocity":0.8818897637795275,"duration":0.15994616458334576},{"name":"C#2","midi":37,"time":198.06442699999954,"velocity":0.8818897637795275,"duration":0.32123641458332486},{"name":"G2","midi":43,"time":198.06442699999954,"velocity":0.8818897637795275,"duration":0.6438169145833399},{"name":"F#2","midi":42,"time":198.38700749999953,"velocity":0.8818897637795275,"duration":0.15994616458334576},{"name":"G2","midi":43,"time":198.70958799999954,"velocity":0.8818897637795275,"duration":0.6438169145833399},{"name":"F#2","midi":42,"time":199.19345874999954,"velocity":0.8818897637795275,"duration":0.15994616458334576},{"name":"C#2","midi":37,"time":199.35474899999954,"velocity":0.8818897637795275,"duration":0.32123641458332486},{"name":"G2","midi":43,"time":199.35474899999954,"velocity":0.8818897637795275,"duration":0.6438169145833399},{"name":"F#2","midi":42,"time":199.67732949999953,"velocity":0.8818897637795275,"duration":0.15994616458334576},{"name":"G2","midi":43,"time":199.99990999999955,"velocity":0.8818897637795275,"duration":0.6438169145833399},{"name":"E2","midi":40,"time":200.16120024999955,"velocity":0.8818897637795275,"duration":0.32123641458332486},{"name":"E2","midi":40,"time":200.48378074999954,"velocity":0.8818897637795275,"duration":0.15994616458334576},{"name":"D2","midi":38,"time":200.64507099999955,"velocity":0.8818897637795275,"duration":0.15994616458334576},{"name":"G2","midi":43,"time":200.64507099999955,"velocity":0.8818897637795275,"duration":0.6438169145833399},{"name":"F#2","midi":42,"time":200.80636124999955,"velocity":0.8818897637795275,"duration":0.07930103958332779},{"name":"F#2","midi":42,"time":200.88700637499954,"velocity":0.8818897637795275,"duration":0.07930103958332779},{"name":"C#2","midi":37,"time":200.96765149999953,"velocity":0.8818897637795275,"duration":0.15994616458334576},{"name":"C#2","midi":37,"time":201.12894174999954,"velocity":0.8818897637795275,"duration":0.15994616458334576},{"name":"G2","midi":43,"time":201.29023199999955,"velocity":0.8818897637795275,"duration":0.6438169145833399},{"name":"F#2","midi":42,"time":201.77410274999954,"velocity":0.8818897637795275,"duration":0.15994616458334576},{"name":"C#2","midi":37,"time":201.93539299999955,"velocity":0.8818897637795275,"duration":0.32123641458332486},{"name":"G2","midi":43,"time":201.93539299999955,"velocity":0.8818897637795275,"duration":0.6438169145833399},{"name":"F#2","midi":42,"time":202.25797349999954,"velocity":0.8818897637795275,"duration":0.15994616458334576},{"name":"G2","midi":43,"time":202.58055399999955,"velocity":0.8818897637795275,"duration":0.6438169145833399},{"name":"F#2","midi":42,"time":203.06442474999955,"velocity":0.8818897637795275,"duration":0.15994616458334576},{"name":"C#2","midi":37,"time":203.22571499999955,"velocity":0.8818897637795275,"duration":0.32123641458332486},{"name":"G2","midi":43,"time":203.22571499999955,"velocity":0.8818897637795275,"duration":0.6438169145833399},{"name":"F#2","midi":42,"time":203.54829549999954,"velocity":0.8818897637795275,"duration":0.15994616458334576},{"name":"G2","midi":43,"time":203.87087599999956,"velocity":0.8818897637795275,"duration":0.6438169145833399},{"name":"F#2","midi":42,"time":204.35474674999955,"velocity":0.8818897637795275,"duration":0.15994616458334576},{"name":"C#2","midi":37,"time":204.51603699999956,"velocity":0.8818897637795275,"duration":0.32123641458332486},{"name":"G2","midi":43,"time":204.51603699999956,"velocity":0.8818897637795275,"duration":0.6438169145833399},{"name":"F#2","midi":42,"time":204.83861749999954,"velocity":0.8818897637795275,"duration":0.15994616458334576},{"name":"G2","midi":43,"time":205.16119799999956,"velocity":0.8818897637795275,"duration":0.6438169145833399},{"name":"F#2","midi":42,"time":205.64506874999955,"velocity":0.8818897637795275,"duration":0.15994616458334576},{"name":"C#2","midi":37,"time":205.80635899999956,"velocity":0.8818897637795275,"duration":0.32123641458332486},{"name":"G2","midi":43,"time":205.80635899999956,"velocity":0.8818897637795275,"duration":0.6438169145833399},{"name":"F#2","midi":42,"time":206.12893949999955,"velocity":0.8818897637795275,"duration":0.15994616458334576},{"name":"G2","midi":43,"time":206.45151999999956,"velocity":0.8818897637795275,"duration":0.6438169145833399},{"name":"F#2","midi":42,"time":206.93539074999956,"velocity":0.8818897637795275,"duration":0.15994616458334576},{"name":"C#2","midi":37,"time":207.09668099999956,"velocity":0.8818897637795275,"duration":0.32123641458332486},{"name":"G2","midi":43,"time":207.09668099999956,"velocity":0.8818897637795275,"duration":0.6438169145833399},{"name":"F#2","midi":42,"time":207.41926149999955,"velocity":0.8818897637795275,"duration":0.15994616458334576},{"name":"G2","midi":43,"time":207.74184199999956,"velocity":0.8818897637795275,"duration":0.6438169145833399},{"name":"F#2","midi":42,"time":208.22571274999956,"velocity":0.8818897637795275,"duration":0.15994616458334576},{"name":"C#2","midi":37,"time":208.38700299999957,"velocity":0.8818897637795275,"duration":0.32123641458332486},{"name":"G2","midi":43,"time":208.38700299999957,"velocity":0.8818897637795275,"duration":0.6438169145833399},{"name":"F#2","midi":42,"time":208.70958349999955,"velocity":0.8818897637795275,"duration":0.15994616458334576},{"name":"G2","midi":43,"time":209.03216399999957,"velocity":0.8818897637795275,"duration":0.6438169145833399},{"name":"F#2","midi":42,"time":209.51603474999956,"velocity":0.8818897637795275,"duration":0.15994616458334576},{"name":"C#2","midi":37,"time":209.67732499999957,"velocity":0.8818897637795275,"duration":0.32123641458332486},{"name":"G2","midi":43,"time":209.67732499999957,"velocity":0.8818897637795275,"duration":0.6438169145833399},{"name":"F#2","midi":42,"time":209.99990549999956,"velocity":0.8818897637795275,"duration":0.15994616458334576},{"name":"G2","midi":43,"time":210.32248599999957,"velocity":0.8818897637795275,"duration":0.6438169145833399},{"name":"E2","midi":40,"time":210.48377624999958,"velocity":0.8818897637795275,"duration":0.32123641458332486},{"name":"E2","midi":40,"time":210.80635674999957,"velocity":0.8818897637795275,"duration":0.15994616458334576},{"name":"D2","midi":38,"time":210.96764699999957,"velocity":0.8818897637795275,"duration":0.15994616458334576},{"name":"G2","midi":43,"time":210.96764699999957,"velocity":0.8818897637795275,"duration":0.6438169145833399},{"name":"F#2","midi":42,"time":211.12893724999958,"velocity":0.8818897637795275,"duration":0.07930103958332779},{"name":"F#2","midi":42,"time":211.20958237499957,"velocity":0.8818897637795275,"duration":0.07930103958332779},{"name":"C#2","midi":37,"time":211.29022749999956,"velocity":0.8818897637795275,"duration":0.15994616458334576},{"name":"C#2","midi":37,"time":211.45151774999957,"velocity":0.8818897637795275,"duration":0.15994616458334576}]},{"instrument_number":1000,"notes":[{"name":"D2","midi":38,"time":98.064472,"velocity":0.5039370078740157,"duration":0.15994616458333155},{"name":"D2","midi":38,"time":98.22576224999999,"velocity":0.5039370078740157,"duration":0.15994616458333155},{"name":"D2","midi":38,"time":98.38705249999998,"velocity":0.5039370078740157,"duration":0.15994616458333155},{"name":"D2","midi":38,"time":98.54834274999997,"velocity":0.5039370078740157,"duration":0.15994616458333155},{"name":"D2","midi":38,"time":98.70963299999997,"velocity":0.5039370078740157,"duration":0.15994616458333155},{"name":"C#2","midi":37,"time":98.87092324999996,"velocity":0.5039370078740157,"duration":0.07930103958332779},{"name":"C#2","midi":37,"time":98.95156837499995,"velocity":0.5039370078740157,"duration":0.07930103958332779},{"name":"D2","midi":38,"time":99.03221349999994,"velocity":0.5039370078740157,"duration":0.15994616458333155},{"name":"C#2","midi":37,"time":99.19350374999993,"velocity":0.5039370078740157,"duration":0.15994616458333155},{"name":"D2","midi":38,"time":99.35479399999993,"velocity":0.5039370078740157,"duration":0.15994616458333155},{"name":"D2","midi":38,"time":99.51608424999992,"velocity":0.5039370078740157,"duration":0.15994616458333155},{"name":"D2","midi":38,"time":99.67737449999991,"velocity":0.5039370078740157,"duration":0.15994616458333155},{"name":"D2","midi":38,"time":99.83866474999991,"velocity":0.5039370078740157,"duration":0.15994616458333155},{"name":"D2","midi":38,"time":99.9999549999999,"velocity":0.5039370078740157,"duration":0.15994616458333155},{"name":"D2","midi":38,"time":100.1612452499999,"velocity":0.5039370078740157,"duration":0.15994616458333155},{"name":"D2","midi":38,"time":100.32253549999989,"velocity":0.5039370078740157,"duration":0.15994616458333155},{"name":"D2","midi":38,"time":100.48382574999988,"velocity":0.5039370078740157,"duration":0.15994616458333155},{"name":"D2","midi":38,"time":100.64511599999987,"velocity":0.5039370078740157,"duration":0.15994616458333155},{"name":"D2","midi":38,"time":100.80640624999987,"velocity":0.5039370078740157,"duration":0.15994616458333155},{"name":"D2","midi":38,"time":100.96769649999986,"velocity":0.5039370078740157,"duration":0.15994616458333155},{"name":"D2","midi":38,"time":101.12898674999985,"velocity":0.5039370078740157,"duration":0.15994616458333155},{"name":"D2","midi":38,"time":101.29027699999985,"velocity":0.5039370078740157,"duration":0.15994616458333155},{"name":"C#2","midi":37,"time":101.45156724999984,"velocity":0.5039370078740157,"duration":0.07930103958332779},{"name":"C#2","midi":37,"time":101.53221237499983,"velocity":0.5039370078740157,"duration":0.07930103958332779},{"name":"D2","midi":38,"time":101.61285749999982,"velocity":0.5039370078740157,"duration":0.15994616458333155},{"name":"C#2","midi":37,"time":101.77414774999981,"velocity":0.5039370078740157,"duration":0.15994616458333155},{"name":"D2","midi":38,"time":101.9354379999998,"velocity":0.5039370078740157,"duration":0.15994616458333155},{"name":"D2","midi":38,"time":102.0967282499998,"velocity":0.5039370078740157,"duration":0.15994616458333155},{"name":"D2","midi":38,"time":102.25801849999979,"velocity":0.5039370078740157,"duration":0.15994616458333155},{"name":"D2","midi":38,"time":102.41930874999979,"velocity":0.5039370078740157,"duration":0.15994616458333155},{"name":"D2","midi":38,"time":102.58059899999978,"velocity":0.5039370078740157,"duration":0.15994616458333155},{"name":"D2","midi":38,"time":102.74188924999977,"velocity":0.5039370078740157,"duration":0.15994616458333155},{"name":"D2","midi":38,"time":102.90317949999977,"velocity":0.5039370078740157,"duration":0.15994616458333155},{"name":"D2","midi":38,"time":103.06446974999976,"velocity":0.5039370078740157,"duration":0.15994616458333155},{"name":"D2","midi":38,"time":103.22575999999975,"velocity":0.5039370078740157,"duration":0.15994616458333155},{"name":"D2","midi":38,"time":103.38705024999975,"velocity":0.5039370078740157,"duration":0.15994616458333155},{"name":"D2","midi":38,"time":103.54834049999974,"velocity":0.5039370078740157,"duration":0.15994616458333155},{"name":"D2","midi":38,"time":103.70963074999973,"velocity":0.5039370078740157,"duration":0.15994616458333155},{"name":"D2","midi":38,"time":103.87092099999973,"velocity":0.5039370078740157,"duration":0.15994616458333155},{"name":"C#2","midi":37,"time":104.03221124999972,"velocity":0.5039370078740157,"duration":0.07930103958332779},{"name":"C#2","midi":37,"time":104.11285637499971,"velocity":0.5039370078740157,"duration":0.07930103958332779},{"name":"D2","midi":38,"time":104.1935014999997,"velocity":0.5039370078740157,"duration":0.15994616458333155},{"name":"C#2","midi":37,"time":104.35479174999969,"velocity":0.5039370078740157,"duration":0.15994616458333155},{"name":"D2","midi":38,"time":104.51608199999968,"velocity":0.5039370078740157,"duration":0.15994616458333155},{"name":"D2","midi":38,"time":104.67737224999968,"velocity":0.5039370078740157,"duration":0.15994616458333155},{"name":"D2","midi":38,"time":104.83866249999967,"velocity":0.5039370078740157,"duration":0.15994616458333155},{"name":"D2","midi":38,"time":104.99995274999966,"velocity":0.5039370078740157,"duration":0.15994616458333155},{"name":"D2","midi":38,"time":105.16124299999966,"velocity":0.5039370078740157,"duration":0.15994616458333155},{"name":"D2","midi":38,"time":105.32253324999965,"velocity":0.5039370078740157,"duration":0.15994616458333155},{"name":"D2","midi":38,"time":105.48382349999964,"velocity":0.5039370078740157,"duration":0.15994616458333155},{"name":"D2","midi":38,"time":105.64511374999964,"velocity":0.5039370078740157,"duration":0.15994616458333155},{"name":"D2","midi":38,"time":105.80640399999963,"velocity":0.5039370078740157,"duration":0.15994616458333155},{"name":"C#2","midi":37,"time":105.96769424999962,"velocity":0.5039370078740157,"duration":0.07930103958332779},{"name":"C#2","midi":37,"time":106.04833937499961,"velocity":0.5039370078740157,"duration":0.07930103958332779},{"name":"D2","midi":38,"time":106.1289844999996,"velocity":0.5039370078740157,"duration":0.15994616458333155},{"name":"C#2","midi":37,"time":106.2902747499996,"velocity":0.5039370078740157,"duration":0.15994616458333155},{"name":"D2","midi":38,"time":106.45156499999959,"velocity":0.5039370078740157,"duration":0.15994616458333155},{"name":"C#2","midi":37,"time":106.61285524999958,"velocity":0.5039370078740157,"duration":0.07930103958332779},{"name":"C#2","midi":37,"time":106.69350037499957,"velocity":0.5039370078740157,"duration":0.07930103958332779},{"name":"D2","midi":38,"time":106.77414549999956,"velocity":0.5039370078740157,"duration":0.15994616458333155},{"name":"C#2","midi":37,"time":106.93543574999956,"velocity":0.5039370078740157,"duration":0.15994616458333155},{"name":"D2","midi":38,"time":107.09672599999955,"velocity":0.5039370078740157,"duration":0.15994616458333155},{"name":"C#2","midi":37,"time":107.25801624999954,"velocity":0.5039370078740157,"duration":0.07930103958332779},{"name":"C#2","midi":37,"time":107.33866137499953,"velocity":0.5039370078740157,"duration":0.07930103958332779},{"name":"D2","midi":38,"time":107.41930649999952,"velocity":0.5039370078740157,"duration":0.15994616458333155},{"name":"C#2","midi":37,"time":107.58059674999951,"velocity":0.5039370078740157,"duration":0.15994616458333155},{"name":"D2","midi":38,"time":107.74188699999951,"velocity":0.5039370078740157,"duration":0.15994616458333155},{"name":"C#2","midi":37,"time":107.9031772499995,"velocity":0.5039370078740157,"duration":0.07930103958332779},{"name":"C#2","midi":37,"time":107.98382237499949,"velocity":0.5039370078740157,"duration":0.07930103958332779},{"name":"D2","midi":38,"time":108.06446749999948,"velocity":0.5039370078740157,"duration":0.15994616458333155},{"name":"C#2","midi":37,"time":108.22575774999947,"velocity":0.5039370078740157,"duration":0.15994616458333155},{"name":"D2","midi":38,"time":159.99992799999947,"velocity":0.5039370078740157,"duration":0.15994616458334576},{"name":"D2","midi":38,"time":160.16121824999948,"velocity":0.5039370078740157,"duration":0.15994616458334576},{"name":"D2","midi":38,"time":160.3225084999995,"velocity":0.5039370078740157,"duration":0.15994616458334576},{"name":"D2","midi":38,"time":160.4837987499995,"velocity":0.5039370078740157,"duration":0.15994616458334576},{"name":"D2","midi":38,"time":160.6450889999995,"velocity":0.5039370078740157,"duration":0.15994616458334576},{"name":"C#2","midi":37,"time":160.8063792499995,"velocity":0.5039370078740157,"duration":0.07930103958332779},{"name":"C#2","midi":37,"time":160.8870243749995,"velocity":0.5039370078740157,"duration":0.07930103958332779},{"name":"D2","midi":38,"time":160.9676694999995,"velocity":0.5039370078740157,"duration":0.15994616458334576},{"name":"C#2","midi":37,"time":161.1289597499995,"velocity":0.5039370078740157,"duration":0.15994616458334576},{"name":"D2","midi":38,"time":161.2902499999995,"velocity":0.5039370078740157,"duration":0.15994616458334576},{"name":"D2","midi":38,"time":161.4515402499995,"velocity":0.5039370078740157,"duration":0.15994616458334576},{"name":"D2","midi":38,"time":161.61283049999952,"velocity":0.5039370078740157,"duration":0.15994616458334576},{"name":"D2","midi":38,"time":161.77412074999953,"velocity":0.5039370078740157,"duration":0.15994616458334576},{"name":"D2","midi":38,"time":161.93541099999953,"velocity":0.5039370078740157,"duration":0.15994616458334576},{"name":"D2","midi":38,"time":162.09670124999954,"velocity":0.5039370078740157,"duration":0.15994616458334576},{"name":"D2","midi":38,"time":162.25799149999955,"velocity":0.5039370078740157,"duration":0.15994616458334576},{"name":"D2","midi":38,"time":162.41928174999956,"velocity":0.5039370078740157,"duration":0.15994616458334576},{"name":"D2","midi":38,"time":162.58057199999956,"velocity":0.5039370078740157,"duration":0.15994616458334576},{"name":"D2","midi":38,"time":162.74186224999957,"velocity":0.5039370078740157,"duration":0.15994616458334576},{"name":"D2","midi":38,"time":162.90315249999958,"velocity":0.5039370078740157,"duration":0.15994616458334576},{"name":"D2","midi":38,"time":163.06444274999959,"velocity":0.5039370078740157,"duration":0.15994616458334576},{"name":"D2","midi":38,"time":163.2257329999996,"velocity":0.5039370078740157,"duration":0.15994616458334576},{"name":"C#2","midi":37,"time":163.3870232499996,"velocity":0.5039370078740157,"duration":0.07930103958332779},{"name":"C#2","midi":37,"time":163.4676683749996,"velocity":0.5039370078740157,"duration":0.07930103958332779},{"name":"D2","midi":38,"time":163.54831349999958,"velocity":0.5039370078740157,"duration":0.15994616458334576},{"name":"C#2","midi":37,"time":163.7096037499996,"velocity":0.5039370078740157,"duration":0.15994616458334576},{"name":"D2","midi":38,"time":163.8708939999996,"velocity":0.5039370078740157,"duration":0.15994616458334576},{"name":"D2","midi":38,"time":164.0321842499996,"velocity":0.5039370078740157,"duration":0.15994616458334576},{"name":"D2","midi":38,"time":164.1934744999996,"velocity":0.5039370078740157,"duration":0.15994616458334576},{"name":"D2","midi":38,"time":164.35476474999962,"velocity":0.5039370078740157,"duration":0.15994616458334576},{"name":"D2","midi":38,"time":164.51605499999962,"velocity":0.5039370078740157,"duration":0.15994616458334576},{"name":"D2","midi":38,"time":164.67734524999963,"velocity":0.5039370078740157,"duration":0.15994616458334576},{"name":"D2","midi":38,"time":164.83863549999964,"velocity":0.5039370078740157,"duration":0.15994616458334576},{"name":"D2","midi":38,"time":164.99992574999965,"velocity":0.5039370078740157,"duration":0.15994616458334576},{"name":"D2","midi":38,"time":165.16121599999965,"velocity":0.5039370078740157,"duration":0.15994616458334576},{"name":"D2","midi":38,"time":165.32250624999966,"velocity":0.5039370078740157,"duration":0.15994616458334576},{"name":"D2","midi":38,"time":165.48379649999967,"velocity":0.5039370078740157,"duration":0.15994616458334576},{"name":"D2","midi":38,"time":165.64508674999968,"velocity":0.5039370078740157,"duration":0.15994616458334576},{"name":"D2","midi":38,"time":165.80637699999969,"velocity":0.5039370078740157,"duration":0.15994616458334576},{"name":"C#2","midi":37,"time":165.9676672499997,"velocity":0.5039370078740157,"duration":0.07930103958332779},{"name":"C#2","midi":37,"time":166.04831237499968,"velocity":0.5039370078740157,"duration":0.07930103958332779},{"name":"D2","midi":38,"time":166.12895749999967,"velocity":0.5039370078740157,"duration":0.15994616458334576},{"name":"C#2","midi":37,"time":166.29024774999968,"velocity":0.5039370078740157,"duration":0.15994616458334576},{"name":"D2","midi":38,"time":166.4515379999997,"velocity":0.5039370078740157,"duration":0.15994616458334576},{"name":"D2","midi":38,"time":166.6128282499997,"velocity":0.5039370078740157,"duration":0.15994616458334576},{"name":"D2","midi":38,"time":166.7741184999997,"velocity":0.5039370078740157,"duration":0.15994616458334576},{"name":"D2","midi":38,"time":166.9354087499997,"velocity":0.5039370078740157,"duration":0.15994616458334576},{"name":"D2","midi":38,"time":167.09669899999972,"velocity":0.5039370078740157,"duration":0.15994616458334576},{"name":"D2","midi":38,"time":167.25798924999972,"velocity":0.5039370078740157,"duration":0.15994616458334576},{"name":"D2","midi":38,"time":167.41927949999973,"velocity":0.5039370078740157,"duration":0.15994616458334576},{"name":"D2","midi":38,"time":167.58056974999974,"velocity":0.5039370078740157,"duration":0.15994616458334576},{"name":"D2","midi":38,"time":167.74185999999975,"velocity":0.5039370078740157,"duration":0.15994616458334576},{"name":"C#2","midi":37,"time":167.90315024999975,"velocity":0.5039370078740157,"duration":0.07930103958332779},{"name":"C#2","midi":37,"time":167.98379537499974,"velocity":0.5039370078740157,"duration":0.07930103958332779},{"name":"D2","midi":38,"time":168.06444049999973,"velocity":0.5039370078740157,"duration":0.15994616458334576},{"name":"C#2","midi":37,"time":168.22573074999974,"velocity":0.5039370078740157,"duration":0.15994616458334576},{"name":"D2","midi":38,"time":168.38702099999975,"velocity":0.5039370078740157,"duration":0.15994616458334576},{"name":"C#2","midi":37,"time":168.54831124999976,"velocity":0.5039370078740157,"duration":0.07930103958332779},{"name":"C#2","midi":37,"time":168.62895637499975,"velocity":0.5039370078740157,"duration":0.07930103958332779},{"name":"D2","midi":38,"time":168.70960149999974,"velocity":0.5039370078740157,"duration":0.15994616458334576},{"name":"C#2","midi":37,"time":168.87089174999974,"velocity":0.5039370078740157,"duration":0.15994616458334576},{"name":"D2","midi":38,"time":169.03218199999975,"velocity":0.5039370078740157,"duration":0.15994616458334576},{"name":"C#2","midi":37,"time":169.19347224999976,"velocity":0.5039370078740157,"duration":0.07930103958332779},{"name":"C#2","midi":37,"time":169.27411737499975,"velocity":0.5039370078740157,"duration":0.07930103958332779},{"name":"D2","midi":38,"time":169.35476249999974,"velocity":0.5039370078740157,"duration":0.15994616458334576},{"name":"C#2","midi":37,"time":169.51605274999974,"velocity":0.5039370078740157,"duration":0.15994616458334576},{"name":"D2","midi":38,"time":169.67734299999975,"velocity":0.5039370078740157,"duration":0.15994616458334576},{"name":"C#2","midi":37,"time":169.83863324999976,"velocity":0.5039370078740157,"duration":0.07930103958332779},{"name":"C#2","midi":37,"time":169.91927837499975,"velocity":0.5039370078740157,"duration":0.07930103958332779},{"name":"D2","midi":38,"time":169.99992349999974,"velocity":0.5039370078740157,"duration":0.15994616458334576},{"name":"C#2","midi":37,"time":170.16121374999975,"velocity":0.5039370078740157,"duration":0.15994616458334576},{"name":"D2","midi":38,"time":201.29023199999975,"velocity":0.5039370078740157,"duration":0.15994616458334576},{"name":"D2","midi":38,"time":201.45152224999975,"velocity":0.5039370078740157,"duration":0.15994616458334576},{"name":"D2","midi":38,"time":201.61281249999976,"velocity":0.5039370078740157,"duration":0.15994616458334576},{"name":"D2","midi":38,"time":201.77410274999977,"velocity":0.5039370078740157,"duration":0.15994616458334576},{"name":"D2","midi":38,"time":201.93539299999978,"velocity":0.5039370078740157,"duration":0.15994616458334576},{"name":"C#2","midi":37,"time":202.09668324999978,"velocity":0.5039370078740157,"duration":0.07930103958332779},{"name":"C#2","midi":37,"time":202.17732837499977,"velocity":0.5039370078740157,"duration":0.07930103958332779},{"name":"D2","midi":38,"time":202.25797349999976,"velocity":0.5039370078740157,"duration":0.15994616458334576},{"name":"C#2","midi":37,"time":202.41926374999977,"velocity":0.5039370078740157,"duration":0.15994616458334576},{"name":"D2","midi":38,"time":202.58055399999978,"velocity":0.5039370078740157,"duration":0.15994616458334576},{"name":"D2","midi":38,"time":202.7418442499998,"velocity":0.5039370078740157,"duration":0.15994616458334576},{"name":"D2","midi":38,"time":202.9031344999998,"velocity":0.5039370078740157,"duration":0.15994616458334576},{"name":"D2","midi":38,"time":203.0644247499998,"velocity":0.5039370078740157,"duration":0.15994616458334576},{"name":"D2","midi":38,"time":203.2257149999998,"velocity":0.5039370078740157,"duration":0.15994616458334576},{"name":"D2","midi":38,"time":203.38700524999982,"velocity":0.5039370078740157,"duration":0.15994616458334576},{"name":"D2","midi":38,"time":203.54829549999982,"velocity":0.5039370078740157,"duration":0.15994616458334576},{"name":"D2","midi":38,"time":203.70958574999983,"velocity":0.5039370078740157,"duration":0.15994616458334576},{"name":"D2","midi":38,"time":203.87087599999984,"velocity":0.5039370078740157,"duration":0.15994616458334576},{"name":"D2","midi":38,"time":204.03216624999985,"velocity":0.5039370078740157,"duration":0.15994616458334576},{"name":"D2","midi":38,"time":204.19345649999985,"velocity":0.5039370078740157,"duration":0.15994616458334576},{"name":"D2","midi":38,"time":204.35474674999986,"velocity":0.5039370078740157,"duration":0.15994616458334576},{"name":"D2","midi":38,"time":204.51603699999987,"velocity":0.5039370078740157,"duration":0.15994616458334576},{"name":"C#2","midi":37,"time":204.67732724999988,"velocity":0.5039370078740157,"duration":0.07930103958332779},{"name":"C#2","midi":37,"time":204.75797237499987,"velocity":0.5039370078740157,"duration":0.07930103958332779},{"name":"D2","midi":38,"time":204.83861749999986,"velocity":0.5039370078740157,"duration":0.15994616458334576},{"name":"C#2","midi":37,"time":204.99990774999986,"velocity":0.5039370078740157,"duration":0.15994616458334576},{"name":"D2","midi":38,"time":205.16119799999987,"velocity":0.5039370078740157,"duration":0.15994616458334576},{"name":"D2","midi":38,"time":205.32248824999988,"velocity":0.5039370078740157,"duration":0.15994616458334576},{"name":"D2","midi":38,"time":205.4837784999999,"velocity":0.5039370078740157,"duration":0.15994616458334576},{"name":"D2","midi":38,"time":205.6450687499999,"velocity":0.5039370078740157,"duration":0.15994616458334576},{"name":"D2","midi":38,"time":205.8063589999999,"velocity":0.5039370078740157,"duration":0.15994616458334576},{"name":"D2","midi":38,"time":205.9676492499999,"velocity":0.5039370078740157,"duration":0.15994616458334576},{"name":"D2","midi":38,"time":206.12893949999992,"velocity":0.5039370078740157,"duration":0.15994616458334576},{"name":"D2","midi":38,"time":206.29022974999992,"velocity":0.5039370078740157,"duration":0.15994616458334576},{"name":"D2","midi":38,"time":206.45151999999993,"velocity":0.5039370078740157,"duration":0.15994616458334576},{"name":"D2","midi":38,"time":206.61281024999994,"velocity":0.5039370078740157,"duration":0.15994616458334576},{"name":"D2","midi":38,"time":206.77410049999995,"velocity":0.5039370078740157,"duration":0.15994616458334576},{"name":"D2","midi":38,"time":206.93539074999995,"velocity":0.5039370078740157,"duration":0.15994616458334576},{"name":"D2","midi":38,"time":207.09668099999996,"velocity":0.5039370078740157,"duration":0.15994616458334576},{"name":"C#2","midi":37,"time":207.25797124999997,"velocity":0.5039370078740157,"duration":0.07930103958332779},{"name":"C#2","midi":37,"time":207.33861637499996,"velocity":0.5039370078740157,"duration":0.07930103958332779},{"name":"D2","midi":38,"time":207.41926149999995,"velocity":0.5039370078740157,"duration":0.15994616458334576},{"name":"C#2","midi":37,"time":207.58055174999996,"velocity":0.5039370078740157,"duration":0.15994616458334576},{"name":"D2","midi":38,"time":207.74184199999996,"velocity":0.5039370078740157,"duration":0.15994616458334576},{"name":"D2","midi":38,"time":207.90313224999997,"velocity":0.5039370078740157,"duration":0.15994616458334576},{"name":"D2","midi":38,"time":208.06442249999998,"velocity":0.5039370078740157,"duration":0.15994616458334576},{"name":"D2","midi":38,"time":208.22571274999999,"velocity":0.5039370078740157,"duration":0.15994616458334576},{"name":"D2","midi":38,"time":208.387003,"velocity":0.5039370078740157,"duration":0.15994616458334576},{"name":"D2","midi":38,"time":208.54829325,"velocity":0.5039370078740157,"duration":0.15994616458334576},{"name":"D2","midi":38,"time":208.7095835,"velocity":0.5039370078740157,"duration":0.15994616458334576},{"name":"D2","midi":38,"time":208.87087375000002,"velocity":0.5039370078740157,"duration":0.15994616458334576},{"name":"D2","midi":38,"time":209.03216400000002,"velocity":0.5039370078740157,"duration":0.15994616458334576},{"name":"C#2","midi":37,"time":209.19345425000003,"velocity":0.5039370078740157,"duration":0.07930103958332779},{"name":"C#2","midi":37,"time":209.27409937500002,"velocity":0.5039370078740157,"duration":0.07930103958332779},{"name":"D2","midi":38,"time":209.3547445,"velocity":0.5039370078740157,"duration":0.15994616458334576},{"name":"C#2","midi":37,"time":209.51603475000002,"velocity":0.5039370078740157,"duration":0.15994616458334576},{"name":"D2","midi":38,"time":209.67732500000002,"velocity":0.5039370078740157,"duration":0.15994616458334576},{"name":"C#2","midi":37,"time":209.83861525000003,"velocity":0.5039370078740157,"duration":0.07930103958332779},{"name":"C#2","midi":37,"time":209.91926037500002,"velocity":0.5039370078740157,"duration":0.07930103958332779},{"name":"D2","midi":38,"time":209.9999055,"velocity":0.5039370078740157,"duration":0.15994616458334576},{"name":"C#2","midi":37,"time":210.16119575000002,"velocity":0.5039370078740157,"duration":0.15994616458334576},{"name":"D2","midi":38,"time":210.32248600000003,"velocity":0.5039370078740157,"duration":0.15994616458334576},{"name":"C#2","midi":37,"time":210.48377625000003,"velocity":0.5039370078740157,"duration":0.07930103958332779},{"name":"C#2","midi":37,"time":210.56442137500002,"velocity":0.5039370078740157,"duration":0.07930103958332779},{"name":"D2","midi":38,"time":210.6450665,"velocity":0.5039370078740157,"duration":0.15994616458334576},{"name":"C#2","midi":37,"time":210.80635675000002,"velocity":0.5039370078740157,"duration":0.15994616458334576},{"name":"D2","midi":38,"time":210.96764700000003,"velocity":0.5039370078740157,"duration":0.15994616458334576},{"name":"C#2","midi":37,"time":211.12893725000004,"velocity":0.5039370078740157,"duration":0.07930103958332779},{"name":"C#2","midi":37,"time":211.20958237500002,"velocity":0.5039370078740157,"duration":0.07930103958332779},{"name":"D2","midi":38,"time":211.29022750000001,"velocity":0.5039370078740157,"duration":0.15994616458334576},{"name":"C#2","midi":37,"time":211.45151775000002,"velocity":0.5039370078740157,"duration":0.15994616458334576}]},{"instrument_number":1000,"notes":[{"name":"D#2","midi":39,"time":15.483864,"velocity":0.6299212598425197,"duration":0.6438169145833328},{"name":"D#2","midi":39,"time":16.129025,"velocity":0.6299212598425197,"duration":0.6438169145833328},{"name":"D#2","midi":39,"time":16.774185999999997,"velocity":0.6299212598425197,"duration":0.6438169145833328},{"name":"D#2","midi":39,"time":17.419346999999995,"velocity":0.6299212598425197,"duration":0.6438169145833328},{"name":"D#2","midi":39,"time":18.064507999999993,"velocity":0.6299212598425197,"duration":0.6438169145833328},{"name":"D#2","midi":39,"time":18.70966899999999,"velocity":0.6299212598425197,"duration":0.6438169145833328},{"name":"D#2","midi":39,"time":19.35482999999999,"velocity":0.6299212598425197,"duration":0.6438169145833328},{"name":"D#2","midi":39,"time":19.999990999999987,"velocity":0.6299212598425197,"duration":0.32123641458333196},{"name":"D#2","midi":39,"time":20.322571499999984,"velocity":0.6299212598425197,"duration":0.32123641458333196},{"name":"D#2","midi":39,"time":20.64515199999998,"velocity":0.5039370078740157,"duration":0.6438169145833328},{"name":"D#2","midi":39,"time":21.29031299999998,"velocity":0.5039370078740157,"duration":0.6438169145833328},{"name":"D#2","midi":39,"time":21.935473999999978,"velocity":0.5039370078740157,"duration":0.6438169145833328},{"name":"D#2","midi":39,"time":22.580634999999976,"velocity":0.5039370078740157,"duration":0.6438169145833328},{"name":"D#2","midi":39,"time":36.77417699999998,"velocity":0.6299212598425197,"duration":0.6438169145833328},{"name":"D#2","midi":39,"time":38.06449899999998,"velocity":0.6299212598425197,"duration":0.6438169145833328},{"name":"D#2","midi":39,"time":39.35482099999997,"velocity":0.6299212598425197,"duration":0.6438169145833328},{"name":"D#2","midi":39,"time":40.64514299999997,"velocity":0.6299212598425197,"duration":0.6438169145833328},{"name":"D#2","midi":39,"time":41.935464999999965,"velocity":0.6299212598425197,"duration":0.6438169145833328},{"name":"D#2","midi":39,"time":43.22578699999996,"velocity":0.6299212598425197,"duration":0.6438169145833328},{"name":"D#2","midi":39,"time":44.51610899999996,"velocity":0.6299212598425197,"duration":0.6438169145833328},{"name":"D#2","midi":39,"time":45.806430999999954,"velocity":0.6299212598425197,"duration":0.6438169145833328},{"name":"D#2","midi":39,"time":57.419328999999955,"velocity":0.7559055118110236,"duration":0.6438169145833328},{"name":"D#2","midi":39,"time":58.70965099999995,"velocity":0.7559055118110236,"duration":0.6438169145833328},{"name":"D#2","midi":39,"time":59.99997299999995,"velocity":0.7559055118110236,"duration":0.6438169145833328},{"name":"D#2","midi":39,"time":61.290294999999944,"velocity":0.7559055118110236,"duration":0.6438169145833328},{"name":"D#2","midi":39,"time":62.58061699999994,"velocity":0.7559055118110236,"duration":0.6438169145833328},{"name":"D#2","midi":39,"time":63.870938999999936,"velocity":0.7559055118110236,"duration":0.6438169145833399},{"name":"D#2","midi":39,"time":65.16126099999994,"velocity":0.7559055118110236,"duration":0.6438169145833399},{"name":"D#2","midi":39,"time":77.41931999999994,"velocity":0.6299212598425197,"duration":0.6438169145833399},{"name":"D#2","midi":39,"time":78.06448099999994,"velocity":0.6299212598425197,"duration":0.6438169145833399},{"name":"D#2","midi":39,"time":78.70964199999995,"velocity":0.6299212598425197,"duration":0.6438169145833399},{"name":"D#2","midi":39,"time":79.35480299999995,"velocity":0.6299212598425197,"duration":0.6438169145833399},{"name":"D#2","midi":39,"time":79.99996399999995,"velocity":0.6299212598425197,"duration":0.6438169145833399},{"name":"D#2","midi":39,"time":80.64512499999995,"velocity":0.6299212598425197,"duration":0.6438169145833399},{"name":"D#2","midi":39,"time":81.29028599999995,"velocity":0.6299212598425197,"duration":0.6438169145833399},{"name":"D#2","midi":39,"time":81.93544699999995,"velocity":0.6299212598425197,"duration":0.32123641458333907},{"name":"D#2","midi":39,"time":82.25802749999995,"velocity":0.6299212598425197,"duration":0.32123641458333907},{"name":"D#2","midi":39,"time":82.58060799999996,"velocity":0.6299212598425197,"duration":0.6438169145833399},{"name":"D#2","midi":39,"time":83.22576899999996,"velocity":0.6299212598425197,"duration":0.6438169145833399},{"name":"D#2","midi":39,"time":83.87092999999996,"velocity":0.6299212598425197,"duration":0.6438169145833399},{"name":"D#2","midi":39,"time":84.51609099999996,"velocity":0.6299212598425197,"duration":0.6438169145833399},{"name":"D#2","midi":39,"time":119.35478499999996,"velocity":0.7559055118110236,"duration":0.6438169145833399},{"name":"D#2","midi":39,"time":120.64510699999997,"velocity":0.7559055118110236,"duration":0.6438169145833399},{"name":"D#2","midi":39,"time":121.93542899999997,"velocity":0.7559055118110236,"duration":0.6438169145833399},{"name":"D#2","midi":39,"time":123.22575099999997,"velocity":0.7559055118110236,"duration":0.6438169145833399},{"name":"D#2","midi":39,"time":124.51607299999998,"velocity":0.7559055118110236,"duration":0.6438169145833399},{"name":"D#2","midi":39,"time":125.80639499999998,"velocity":0.7559055118110236,"duration":0.6438169145833399},{"name":"D#2","midi":39,"time":127.09671699999998,"velocity":0.7559055118110236,"duration":0.6438169145833399},{"name":"D#2","midi":39,"time":139.354776,"velocity":0.6299212598425197,"duration":0.6438169145833399},{"name":"D#2","midi":39,"time":139.999937,"velocity":0.6299212598425197,"duration":0.6438169145833399},{"name":"D#2","midi":39,"time":140.645098,"velocity":0.6299212598425197,"duration":0.6438169145833399},{"name":"D#2","midi":39,"time":141.290259,"velocity":0.6299212598425197,"duration":0.6438169145833399},{"name":"D#2","midi":39,"time":141.93542,"velocity":0.6299212598425197,"duration":0.6438169145833399},{"name":"D#2","midi":39,"time":142.580581,"velocity":0.6299212598425197,"duration":0.6438169145833399},{"name":"D#2","midi":39,"time":143.225742,"velocity":0.6299212598425197,"duration":0.6438169145833399},{"name":"D#2","midi":39,"time":143.870903,"velocity":0.6299212598425197,"duration":0.32123641458332486},{"name":"D#2","midi":39,"time":144.19348349999999,"velocity":0.6299212598425197,"duration":0.32123641458332486},{"name":"D#2","midi":39,"time":144.51606399999997,"velocity":0.6299212598425197,"duration":0.6438169145833399},{"name":"D#2","midi":39,"time":145.16122499999997,"velocity":0.6299212598425197,"duration":0.6438169145833399},{"name":"D#2","midi":39,"time":145.80638599999997,"velocity":0.6299212598425197,"duration":0.6438169145833399},{"name":"D#2","midi":39,"time":146.45154699999998,"velocity":0.6299212598425197,"duration":0.6438169145833399},{"name":"D#2","midi":39,"time":170.96766499999998,"velocity":0.6299212598425197,"duration":0.6438169145833399},{"name":"D#2","midi":39,"time":172.25798699999999,"velocity":0.6299212598425197,"duration":0.6438169145833399},{"name":"D#2","midi":39,"time":173.548309,"velocity":0.6299212598425197,"duration":0.6438169145833399},{"name":"D#2","midi":39,"time":174.838631,"velocity":0.6299212598425197,"duration":0.6438169145833399},{"name":"D#2","midi":39,"time":176.128953,"velocity":0.6299212598425197,"duration":0.6438169145833399},{"name":"D#2","midi":39,"time":177.419275,"velocity":0.6299212598425197,"duration":0.6438169145833399},{"name":"D#2","midi":39,"time":178.709597,"velocity":0.6299212598425197,"duration":0.6438169145833399},{"name":"D#2","midi":39,"time":179.999919,"velocity":0.6299212598425197,"duration":0.6438169145833399},{"name":"D#2","midi":39,"time":180.64508,"velocity":0.5039370078740157,"duration":0.32123641458332486},{"name":"D#2","midi":39,"time":180.9676605,"velocity":0.5039370078740157,"duration":0.32123641458332486},{"name":"D#2","midi":39,"time":181.29024099999998,"velocity":0.5039370078740157,"duration":0.32123641458332486},{"name":"D#2","midi":39,"time":181.61282149999997,"velocity":0.5039370078740157,"duration":0.32123641458332486},{"name":"D#2","midi":39,"time":181.93540199999995,"velocity":0.5039370078740157,"duration":0.32123641458332486},{"name":"D#2","midi":39,"time":182.25798249999994,"velocity":0.5039370078740157,"duration":0.32123641458332486},{"name":"D#2","midi":39,"time":182.58056299999993,"velocity":0.5039370078740157,"duration":0.32123641458332486},{"name":"D#2","midi":39,"time":182.9031434999999,"velocity":0.5039370078740157,"duration":0.32123641458332486},{"name":"D#2","midi":39,"time":183.2257239999999,"velocity":0.5039370078740157,"duration":0.32123641458332486},{"name":"D#2","midi":39,"time":183.5483044999999,"velocity":0.5039370078740157,"duration":0.32123641458332486},{"name":"D#2","midi":39,"time":183.87088499999987,"velocity":0.5039370078740157,"duration":0.32123641458332486},{"name":"D#2","midi":39,"time":184.19346549999986,"velocity":0.5039370078740157,"duration":0.32123641458332486},{"name":"D#2","midi":39,"time":184.51604599999985,"velocity":0.5039370078740157,"duration":0.32123641458332486},{"name":"D#2","midi":39,"time":184.83862649999983,"velocity":0.5039370078740157,"duration":0.32123641458332486},{"name":"D#2","midi":39,"time":185.16120699999982,"velocity":0.5039370078740157,"duration":0.32123641458332486},{"name":"D#2","midi":39,"time":185.4837874999998,"velocity":0.5039370078740157,"duration":0.32123641458332486},{"name":"D#2","midi":39,"time":185.8063679999998,"velocity":0.5039370078740157,"duration":0.32123641458332486},{"name":"D#2","midi":39,"time":186.12894849999978,"velocity":0.5039370078740157,"duration":0.32123641458332486},{"name":"D#2","midi":39,"time":186.45152899999977,"velocity":0.5039370078740157,"duration":0.32123641458332486},{"name":"D#2","midi":39,"time":186.77410949999975,"velocity":0.5039370078740157,"duration":0.32123641458332486},{"name":"D#2","midi":39,"time":187.09668999999974,"velocity":0.5039370078740157,"duration":0.32123641458332486},{"name":"D#2","midi":39,"time":187.41927049999973,"velocity":0.5039370078740157,"duration":0.32123641458332486},{"name":"D#2","midi":39,"time":187.7418509999997,"velocity":0.5039370078740157,"duration":0.32123641458332486},{"name":"D#2","midi":39,"time":188.0644314999997,"velocity":0.5039370078740157,"duration":0.32123641458332486}]}]}