{"header":{"title":"The Scientist","artist":"Coldplay","source":"https://musescore.com/user/12540061/scores/4497696","bpm":75,"duration":291.15833333333336},"tracks":[{"instrument_number":0,"notes":[{"duration":0.37833333333333335,"durationTicks":227,"midi":69,"name":"A4","ticks":0,"time":0,"velocity":0.6299212598425197},{"duration":0.3783333333333333,"durationTicks":227,"midi":62,"name":"D4","ticks":240,"time":0.4,"velocity":0.6299212598425197},{"duration":0.3783333333333334,"durationTicks":227,"midi":69,"name":"A4","ticks":480,"time":0.8,"velocity":0.6299212598425197},{"duration":0.3783333333333332,"durationTicks":227,"midi":62,"name":"D4","ticks":720,"time":1.2000000000000002,"velocity":0.6299212598425197},{"duration":0.3783333333333334,"durationTicks":227,"midi":69,"name":"A4","ticks":960,"time":1.6,"velocity":0.6299212598425197},{"duration":0.3783333333333334,"durationTicks":227,"midi":62,"name":"D4","ticks":1200,"time":2,"velocity":0.6299212598425197},{"duration":0.3783333333333334,"durationTicks":227,"midi":69,"name":"A4","ticks":1440,"time":2.4000000000000004,"velocity":0.6299212598425197},{"duration":0.3783333333333334,"durationTicks":227,"midi":62,"name":"D4","ticks":1680,"time":2.8000000000000003,"velocity":0.6299212598425197},{"duration":0.37833333333333297,"durationTicks":227,"midi":70,"name":"A#4","ticks":1920,"time":3.2,"velocity":0.6299212598425197},{"duration":0.3783333333333334,"durationTicks":227,"midi":62,"name":"D4","ticks":2160,"time":3.6,"velocity":0.6299212598425197},{"duration":0.37833333333333297,"durationTicks":227,"midi":70,"name":"A#4","ticks":2400,"time":4,"velocity":0.6299212598425197},{"duration":0.37833333333333297,"durationTicks":227,"midi":62,"name":"D4","ticks":2640,"time":4.4,"velocity":0.6299212598425197},{"duration":0.37833333333333297,"durationTicks":227,"midi":70,"name":"A#4","ticks":2880,"time":4.800000000000001,"velocity":0.6299212598425197},{"duration":0.37833333333333297,"durationTicks":227,"midi":62,"name":"D4","ticks":3120,"time":5.2,"velocity":0.6299212598425197},{"duration":0.37833333333333297,"durationTicks":227,"midi":70,"name":"A#4","ticks":3360,"time":5.6000000000000005,"velocity":0.6299212598425197},{"duration":0.37833333333333385,"durationTicks":227,"midi":72,"name":"C5","ticks":3600,"time":6,"velocity":0.6299212598425197},{"duration":0.37833333333333297,"durationTicks":227,"midi":69,"name":"A4","ticks":3840,"time":6.4,"velocity":0.6299212598425197},{"duration":0.37833333333333297,"durationTicks":227,"midi":60,"name":"C4","ticks":4080,"time":6.800000000000001,"velocity":0.6299212598425197},{"duration":0.37833333333333297,"durationTicks":227,"midi":69,"name":"A4","ticks":4320,"time":7.2,"velocity":0.6299212598425197},{"duration":0.37833333333333297,"durationTicks":227,"midi":60,"name":"C4","ticks":4560,"time":7.6000000000000005,"velocity":0.6299212598425197},{"duration":0.37833333333333385,"durationTicks":227,"midi":69,"name":"A4","ticks":4800,"time":8,"velocity":0.6299212598425197},{"duration":0.37833333333333385,"durationTicks":227,"midi":60,"name":"C4","ticks":5040,"time":8.4,"velocity":0.6299212598425197},{"duration":0.3783333333333321,"durationTicks":227,"midi":69,"name":"A4","ticks":5280,"time":8.8,"velocity":0.6299212598425197},{"duration":0.3783333333333321,"durationTicks":227,"midi":60,"name":"C4","ticks":5520,"time":9.200000000000001,"velocity":0.6299212598425197},{"duration":0.3783333333333321,"durationTicks":227,"midi":67,"name":"G4","ticks":5760,"time":9.600000000000001,"velocity":0.6299212598425197},{"duration":0.37833333333333385,"durationTicks":227,"midi":60,"name":"C4","ticks":6000,"time":10,"velocity":0.6299212598425197},{"duration":0.37833333333333385,"durationTicks":227,"midi":67,"name":"G4","ticks":6240,"time":10.4,"velocity":0.6299212598425197},{"duration":0.37833333333333385,"durationTicks":227,"midi":60,"name":"C4","ticks":6480,"time":10.8,"velocity":0.6299212598425197},{"duration":0.3783333333333321,"durationTicks":227,"midi":67,"name":"G4","ticks":6720,"time":11.200000000000001,"velocity":0.6299212598425197},{"duration":0.3783333333333321,"durationTicks":227,"midi":60,"name":"C4","ticks":6960,"time":11.600000000000001,"velocity":0.6299212598425197},{"duration":0.37833333333333385,"durationTicks":227,"midi":67,"name":"G4","ticks":7200,"time":12,"velocity":0.6299212598425197},{"duration":0.37833333333333385,"durationTicks":227,"midi":60,"name":"C4","ticks":7440,"time":12.4,"velocity":0.6299212598425197},{"duration":0.37833333333333385,"durationTicks":227,"midi":69,"name":"A4","ticks":7680,"time":12.8,"velocity":0.6299212598425197},{"duration":0.3783333333333321,"durationTicks":227,"midi":62,"name":"D4","ticks":7920,"time":13.200000000000001,"velocity":0.6299212598425197},{"duration":0.3783333333333321,"durationTicks":227,"midi":69,"name":"A4","ticks":8160,"time":13.600000000000001,"velocity":0.6299212598425197},{"duration":0.37833333333333385,"durationTicks":227,"midi":62,"name":"D4","ticks":8400,"time":14,"velocity":0.6299212598425197},{"duration":0.37833333333333385,"durationTicks":227,"midi":69,"name":"A4","ticks":8640,"time":14.4,"velocity":0.6299212598425197},{"duration":0.37833333333333385,"durationTicks":227,"midi":62,"name":"D4","ticks":8880,"time":14.8,"velocity":0.6299212598425197},{"duration":0.3783333333333321,"durationTicks":227,"midi":69,"name":"A4","ticks":9120,"time":15.200000000000001,"velocity":0.6299212598425197},{"duration":0.3783333333333321,"durationTicks":227,"midi":62,"name":"D4","ticks":9360,"time":15.600000000000001,"velocity":0.6299212598425197},{"duration":0.37833333333333385,"durationTicks":227,"midi":70,"name":"A#4","ticks":9600,"time":16,"velocity":0.6299212598425197},{"duration":0.3783333333333303,"durationTicks":227,"midi":62,"name":"D4","ticks":9840,"time":16.400000000000002,"velocity":0.6299212598425197},{"duration":0.37833333333333385,"durationTicks":227,"midi":70,"name":"A#4","ticks":10080,"time":16.8,"velocity":0.6299212598425197},{"duration":0.37833333333333385,"durationTicks":227,"midi":62,"name":"D4","ticks":10320,"time":17.2,"velocity":0.6299212598425197},{"duration":0.37833333333333385,"durationTicks":227,"midi":70,"name":"A#4","ticks":10560,"time":17.6,"velocity":0.6299212598425197},{"duration":0.37833333333333385,"durationTicks":227,"midi":62,"name":"D4","ticks":10800,"time":18,"velocity":0.6299212598425197},{"duration":0.3783333333333303,"durationTicks":227,"midi":70,"name":"A#4","ticks":11040,"time":18.400000000000002,"velocity":0.6299212598425197},{"duration":0.37833333333333385,"durationTicks":227,"midi":72,"name":"C5","ticks":11280,"time":18.8,"velocity":0.6299212598425197},{"duration":0.3783333333333303,"durationTicks":227,"midi":69,"name":"A4","ticks":11520,"time":19.200000000000003,"velocity":0.6299212598425197},{"duration":0.37833333333333385,"durationTicks":227,"midi":60,"name":"C4","ticks":11760,"time":19.6,"velocity":0.6299212598425197},{"duration":0.37833333333333385,"durationTicks":227,"midi":69,"name":"A4","ticks":12000,"time":20,"velocity":0.6299212598425197},{"duration":0.37833333333333385,"durationTicks":227,"midi":60,"name":"C4","ticks":12240,"time":20.400000000000002,"velocity":0.6299212598425197},{"duration":0.37833333333333385,"durationTicks":227,"midi":69,"name":"A4","ticks":12480,"time":20.8,"velocity":0.6299212598425197},{"duration":0.3783333333333303,"durationTicks":227,"midi":60,"name":"C4","ticks":12720,"time":21.200000000000003,"velocity":0.6299212598425197},{"duration":0.37833333333333385,"durationTicks":227,"midi":69,"name":"A4","ticks":12960,"time":21.6,"velocity":0.6299212598425197},{"duration":0.37833333333333385,"durationTicks":227,"midi":60,"name":"C4","ticks":13200,"time":22,"velocity":0.6299212598425197},{"duration":0.37833333333333385,"durationTicks":227,"midi":67,"name":"G4","ticks":13440,"time":22.400000000000002,"velocity":0.6299212598425197},{"duration":0.37833333333333385,"durationTicks":227,"midi":60,"name":"C4","ticks":13680,"time":22.8,"velocity":0.6299212598425197},{"duration":0.3783333333333303,"durationTicks":227,"midi":67,"name":"G4","ticks":13920,"time":23.200000000000003,"velocity":0.6299212598425197},{"duration":0.37833333333333385,"durationTicks":227,"midi":60,"name":"C4","ticks":14160,"time":23.6,"velocity":0.6299212598425197},{"duration":0.37833333333333385,"durationTicks":227,"midi":67,"name":"G4","ticks":14400,"time":24,"velocity":0.6299212598425197},{"duration":0.37833333333333385,"durationTicks":227,"midi":60,"name":"C4","ticks":14640,"time":24.400000000000002,"velocity":0.6299212598425197},{"duration":0.37833333333333385,"durationTicks":227,"midi":67,"name":"G4","ticks":14880,"time":24.8,"velocity":0.6299212598425197},{"duration":0.3783333333333303,"durationTicks":227,"midi":60,"name":"C4","ticks":15120,"time":25.200000000000003,"velocity":0.6299212598425197},{"duration":0.37833333333333385,"durationTicks":227,"midi":65,"name":"F4","ticks":16320,"time":27.200000000000003,"velocity":0.6299212598425197},{"duration":0.3783333333333374,"durationTicks":227,"midi":67,"name":"G4","ticks":16560,"time":27.6,"velocity":0.6299212598425197},{"duration":0.3783333333333374,"durationTicks":227,"midi":65,"name":"F4","ticks":16800,"time":28,"velocity":0.6299212598425197},{"duration":0.7583333333333293,"durationTicks":455,"midi":72,"name":"C5","ticks":17040,"time":28.400000000000002,"velocity":0.6299212598425197},{"duration":0.7583333333333293,"durationTicks":455,"midi":69,"name":"A4","ticks":17520,"time":29.200000000000003,"velocity":0.6299212598425197},{"duration":0.37833333333333385,"durationTicks":227,"midi":65,"name":"F4","ticks":18240,"time":30.400000000000002,"velocity":0.6299212598425197},{"duration":0.3783333333333374,"durationTicks":227,"midi":67,"name":"G4","ticks":18480,"time":30.8,"velocity":0.6299212598425197},{"duration":0.37833333333333385,"durationTicks":227,"midi":65,"name":"F4","ticks":18720,"time":31.200000000000003,"velocity":0.6299212598425197},{"duration":0.7583333333333329,"durationTicks":455,"midi":72,"name":"C5","ticks":18960,"time":31.6,"velocity":0.6299212598425197},{"duration":0.3783333333333374,"durationTicks":227,"midi":69,"name":"A4","ticks":19440,"time":32.4,"velocity":0.6299212598425197},{"duration":0.3783333333333374,"durationTicks":227,"midi":65,"name":"F4","ticks":19920,"time":33.2,"velocity":0.6299212598425197},{"duration":0.3783333333333374,"durationTicks":227,"midi":65,"name":"F4","ticks":20160,"time":33.6,"velocity":0.6299212598425197},{"duration":0.3783333333333374,"durationTicks":227,"midi":65,"name":"F4","ticks":20400,"time":34,"velocity":0.6299212598425197},{"duration":0.3783333333333374,"durationTicks":227,"midi":65,"name":"F4","ticks":20640,"time":34.4,"velocity":0.6299212598425197},{"duration":0.7583333333333258,"durationTicks":455,"midi":65,"name":"F4","ticks":20880,"time":34.800000000000004,"velocity":0.6299212598425197},{"duration":0.7583333333333329,"durationTicks":455,"midi":67,"name":"G4","ticks":21360,"time":35.6,"velocity":0.6299212598425197},{"duration":0.3783333333333374,"durationTicks":227,"midi":65,"name":"F4","ticks":21840,"time":36.4,"velocity":0.6299212598425197},{"duration":0.7583333333333258,"durationTicks":455,"midi":65,"name":"F4","ticks":22080,"time":36.800000000000004,"velocity":0.6299212598425197},{"duration":0.7583333333333258,"durationTicks":455,"midi":69,"name":"A4","ticks":22080,"time":36.800000000000004,"velocity":0.6299212598425197},{"duration":0.3783333333333374,"durationTicks":227,"midi":64,"name":"E4","ticks":22560,"time":37.6,"velocity":0.6299212598425197},{"duration":0.3783333333333374,"durationTicks":227,"midi":67,"name":"G4","ticks":22560,"time":37.6,"velocity":0.6299212598425197},{"duration":0.3783333333333374,"durationTicks":227,"midi":65,"name":"F4","ticks":22800,"time":38,"velocity":0.6299212598425197},{"duration":0.3783333333333374,"durationTicks":227,"midi":65,"name":"F4","ticks":24000,"time":40,"velocity":0.6299212598425197},{"duration":0.3783333333333303,"durationTicks":227,"midi":67,"name":"G4","ticks":24240,"time":40.400000000000006,"velocity":0.6299212598425197},{"duration":0.3783333333333374,"durationTicks":227,"midi":65,"name":"F4","ticks":24480,"time":40.800000000000004,"velocity":0.6299212598425197},{"duration":0.7583333333333329,"durationTicks":455,"midi":72,"name":"C5","ticks":24720,"time":41.2,"velocity":0.6299212598425197},{"duration":0.7583333333333329,"durationTicks":455,"midi":69,"name":"A4","ticks":25200,"time":42,"velocity":0.6299212598425197},{"duration":0.18833333333333258,"durationTicks":113,"midi":65,"name":"F4","ticks":25800,"time":43,"velocity":0.6299212598425197},{"duration":0.3783333333333374,"durationTicks":227,"midi":65,"name":"F4","ticks":25920,"time":43.2,"velocity":0.6299212598425197},{"duration":0.3783333333333374,"durationTicks":227,"midi":67,"name":"G4","ticks":26160,"time":43.6,"velocity":0.6299212598425197},{"duration":0.3783333333333374,"durationTicks":227,"midi":65,"name":"F4","ticks":26400,"time":44,"velocity":0.6299212598425197},{"duration":0.7583333333333258,"durationTicks":455,"midi":72,"name":"C5","ticks":26640,"time":44.400000000000006,"velocity":0.6299212598425197},{"duration":0.3783333333333374,"durationTicks":227,"midi":69,"name":"A4","ticks":27120,"time":45.2,"velocity":0.6299212598425197},{"duration":0.18833333333333258,"durationTicks":113,"midi":65,"name":"F4","ticks":27720,"time":46.2,"velocity":0.6299212598425197},{"duration":0.3783333333333303,"durationTicks":227,"midi":65,"name":"F4","ticks":27840,"time":46.400000000000006,"velocity":0.6299212598425197},{"duration":0.3783333333333374,"durationTicks":227,"midi":67,"name":"G4","ticks":28080,"time":46.800000000000004,"velocity":0.6299212598425197},{"duration":0.3783333333333374,"durationTicks":227,"midi":65,"name":"F4","ticks":28320,"time":47.2,"velocity":0.6299212598425197},{"duration":0.7583333333333329,"durationTicks":455,"midi":69,"name":"A4","ticks":28560,"time":47.6,"velocity":0.6299212598425197},{"duration":1.518333333333338,"durationTicks":911,"midi":65,"name":"F4","ticks":28800,"time":48,"velocity":0.6299212598425197},{"duration":0.7583333333333258,"durationTicks":455,"midi":69,"name":"A4","ticks":29040,"time":48.400000000000006,"velocity":0.6299212598425197},{"duration":0.3783333333333374,"durationTicks":227,"midi":69,"name":"A4","ticks":29520,"time":49.2,"velocity":0.6299212598425197},{"duration":0.7583333333333329,"durationTicks":455,"midi":69,"name":"A4","ticks":29760,"time":49.6,"velocity":0.6299212598425197},{"duration":0.3783333333333303,"durationTicks":227,"midi":64,"name":"E4","ticks":30240,"time":50.400000000000006,"velocity":0.6299212598425197},{"duration":0.3783333333333303,"durationTicks":227,"midi":67,"name":"G4","ticks":30240,"time":50.400000000000006,"velocity":0.6299212598425197},{"duration":0.3783333333333374,"durationTicks":227,"midi":65,"name":"F4","ticks":30480,"time":50.800000000000004,"velocity":0.6299212598425197},{"duration":0.3783333333333303,"durationTicks":227,"midi":65,"name":"F4","ticks":31680,"time":52.800000000000004,"velocity":0.6299212598425197},{"duration":0.3783333333333303,"durationTicks":227,"midi":67,"name":"G4","ticks":31920,"time":53.2,"velocity":0.6299212598425197},{"duration":0.3783333333333303,"durationTicks":227,"midi":65,"name":"F4","ticks":32160,"time":53.6,"velocity":0.6299212598425197},{"duration":0.75833333333334,"durationTicks":455,"midi":72,"name":"C5","ticks":32400,"time":54,"velocity":0.6299212598425197},{"duration":0.7583333333333329,"durationTicks":455,"midi":69,"name":"A4","ticks":32880,"time":54.800000000000004,"velocity":0.6299212598425197},{"duration":0.18833333333333258,"durationTicks":113,"midi":65,"name":"F4","ticks":33480,"time":55.800000000000004,"velocity":0.6299212598425197},{"duration":0.3783333333333303,"durationTicks":227,"midi":65,"name":"F4","ticks":33600,"time":56,"velocity":0.6299212598425197},{"duration":0.3783333333333303,"durationTicks":227,"midi":67,"name":"G4","ticks":33840,"time":56.400000000000006,"velocity":0.6299212598425197},{"duration":0.3783333333333303,"durationTicks":227,"midi":65,"name":"F4","ticks":34080,"time":56.800000000000004,"velocity":0.6299212598425197},{"duration":0.75833333333334,"durationTicks":455,"midi":72,"name":"C5","ticks":34320,"time":57.2,"velocity":0.6299212598425197},{"duration":0.3783333333333303,"durationTicks":227,"midi":69,"name":"A4","ticks":34800,"time":58,"velocity":0.6299212598425197},{"duration":0.3783333333333303,"durationTicks":227,"midi":65,"name":"F4","ticks":35520,"time":59.2,"velocity":0.6299212598425197},{"duration":0.3783333333333303,"durationTicks":227,"midi":67,"name":"G4","ticks":35760,"time":59.6,"velocity":0.6299212598425197},{"duration":0.3783333333333303,"durationTicks":227,"midi":65,"name":"F4","ticks":36000,"time":60,"velocity":0.6299212598425197},{"duration":0.7583333333333329,"durationTicks":455,"midi":69,"name":"A4","ticks":36240,"time":60.400000000000006,"velocity":0.6299212598425197},{"duration":1.5183333333333238,"durationTicks":911,"midi":65,"name":"F4","ticks":36480,"time":60.800000000000004,"velocity":0.6299212598425197},{"duration":0.75833333333334,"durationTicks":455,"midi":69,"name":"A4","ticks":36720,"time":61.2,"velocity":0.6299212598425197},{"duration":0.3783333333333303,"durationTicks":227,"midi":69,"name":"A4","ticks":37200,"time":62,"velocity":0.6299212598425197},{"duration":0.7583333333333329,"durationTicks":455,"midi":69,"name":"A4","ticks":37440,"time":62.400000000000006,"velocity":0.6299212598425197},{"duration":0.3783333333333303,"durationTicks":227,"midi":64,"name":"E4","ticks":37920,"time":63.2,"velocity":0.6299212598425197},{"duration":0.3783333333333303,"durationTicks":227,"midi":67,"name":"G4","ticks":37920,"time":63.2,"velocity":0.6299212598425197},{"duration":0.3783333333333303,"durationTicks":227,"midi":65,"name":"F4","ticks":38160,"time":63.6,"velocity":0.6299212598425197},{"duration":0.3783333333333303,"durationTicks":227,"midi":65,"name":"F4","ticks":39360,"time":65.60000000000001,"velocity":0.6299212598425197},{"duration":0.3783333333333303,"durationTicks":227,"midi":67,"name":"G4","ticks":39600,"time":66,"velocity":0.6299212598425197},{"duration":0.3783333333333303,"durationTicks":227,"midi":65,"name":"F4","ticks":39840,"time":66.4,"velocity":0.6299212598425197},{"duration":0.75833333333334,"durationTicks":455,"midi":72,"name":"C5","ticks":40080,"time":66.8,"velocity":0.6299212598425197},{"duration":0.7583333333333258,"durationTicks":455,"midi":69,"name":"A4","ticks":40560,"time":67.60000000000001,"velocity":0.6299212598425197},{"duration":0.3783333333333303,"durationTicks":227,"midi":65,"name":"F4","ticks":41280,"time":68.8,"velocity":0.6299212598425197},{"duration":0.3783333333333303,"durationTicks":227,"midi":67,"name":"G4","ticks":41520,"time":69.2,"velocity":0.6299212598425197},{"duration":0.3783333333333303,"durationTicks":227,"midi":65,"name":"F4","ticks":41760,"time":69.60000000000001,"velocity":0.6299212598425197},{"duration":0.75833333333334,"durationTicks":455,"midi":72,"name":"C5","ticks":42000,"time":70,"velocity":0.6299212598425197},{"duration":0.3783333333333303,"durationTicks":227,"midi":69,"name":"A4","ticks":42480,"time":70.8,"velocity":0.6299212598425197},{"duration":0.3783333333333303,"durationTicks":227,"midi":65,"name":"F4","ticks":43200,"time":72,"velocity":0.6299212598425197},{"duration":0.3783333333333303,"durationTicks":227,"midi":67,"name":"G4","ticks":43440,"time":72.4,"velocity":0.6299212598425197},{"duration":0.3783333333333303,"durationTicks":227,"midi":65,"name":"F4","ticks":43680,"time":72.8,"velocity":0.6299212598425197},{"duration":0.75833333333334,"durationTicks":455,"midi":69,"name":"A4","ticks":43920,"time":73.2,"velocity":0.6299212598425197},{"duration":1.5183333333333167,"durationTicks":911,"midi":65,"name":"F4","ticks":44160,"time":73.60000000000001,"velocity":0.6299212598425197},{"duration":0.75833333333334,"durationTicks":455,"midi":69,"name":"A4","ticks":44400,"time":74,"velocity":0.6299212598425197},{"duration":0.3783333333333303,"durationTicks":227,"midi":69,"name":"A4","ticks":44880,"time":74.8,"velocity":0.6299212598425197},{"duration":0.75833333333334,"durationTicks":455,"midi":69,"name":"A4","ticks":45120,"time":75.2,"velocity":0.6299212598425197},{"duration":0.3783333333333303,"durationTicks":227,"midi":64,"name":"E4","ticks":45600,"time":76,"velocity":0.6299212598425197},{"duration":0.3783333333333303,"durationTicks":227,"midi":67,"name":"G4","ticks":45600,"time":76,"velocity":0.6299212598425197},{"duration":0.3783333333333303,"durationTicks":227,"midi":65,"name":"F4","ticks":45840,"time":76.4,"velocity":0.6299212598425197},{"duration":0.75833333333334,"durationTicks":455,"midi":77,"name":"F5","ticks":46800,"time":78,"velocity":0.6299212598425197},{"duration":0.3783333333333303,"durationTicks":227,"midi":74,"name":"D5","ticks":47280,"time":78.80000000000001,"velocity":0.6299212598425197},{"duration":0.3783333333333303,"durationTicks":227,"midi":72,"name":"C5","ticks":47520,"time":79.2,"velocity":0.6299212598425197},{"duration":0.75833333333334,"durationTicks":455,"midi":77,"name":"F5","ticks":47760,"time":79.60000000000001,"velocity":0.6299212598425197},{"duration":0.3783333333333303,"durationTicks":227,"midi":74,"name":"D5","ticks":48240,"time":80.4,"velocity":0.6299212598425197},{"duration":0.3783333333333303,"durationTicks":227,"midi":72,"name":"C5","ticks":48480,"time":80.80000000000001,"velocity":0.6299212598425197},{"duration":0.75833333333334,"durationTicks":455,"midi":77,"name":"F5","ticks":48720,"time":81.2,"velocity":0.6299212598425197},{"duration":0.18833333333333258,"durationTicks":113,"midi":74,"name":"D5","ticks":49200,"time":82,"velocity":0.6299212598425197},{"duration":0.9483333333333377,"durationTicks":569,"midi":72,"name":"C5","ticks":49320,"time":82.2,"velocity":0.6299212598425197},{"duration":0.3783333333333303,"durationTicks":227,"midi":69,"name":"A4","ticks":50880,"time":84.80000000000001,"velocity":0.6299212598425197},{"duration":0.3783333333333303,"durationTicks":227,"midi":72,"name":"C5","ticks":51120,"time":85.2,"velocity":0.6299212598425197},{"duration":0.3783333333333303,"durationTicks":227,"midi":72,"name":"C5","ticks":51360,"time":85.60000000000001,"velocity":0.6299212598425197},{"duration":0.3783333333333303,"durationTicks":227,"midi":69,"name":"A4","ticks":51600,"time":86,"velocity":0.6299212598425197},{"duration":0.3783333333333303,"durationTicks":227,"midi":74,"name":"D5","ticks":51840,"time":86.4,"velocity":0.6299212598425197},{"duration":0.3783333333333303,"durationTicks":227,"midi":69,"name":"A4","ticks":52080,"time":86.80000000000001,"velocity":0.6299212598425197},{"duration":0.3783333333333303,"durationTicks":227,"midi":69,"name":"A4","ticks":52320,"time":87.2,"velocity":0.6299212598425197},{"duration":0.3783333333333303,"durationTicks":227,"midi":69,"name":"A4","ticks":52560,"time":87.60000000000001,"velocity":0.6299212598425197},{"duration":0.75833333333334,"durationTicks":455,"midi":69,"name":"A4","ticks":52800,"time":88,"velocity":0.6299212598425197},{"duration":0.3783333333333303,"durationTicks":227,"midi":67,"name":"G4","ticks":53280,"time":88.80000000000001,"velocity":0.6299212598425197},{"duration":0.3783333333333303,"durationTicks":227,"midi":65,"name":"F4","ticks":53520,"time":89.2,"velocity":0.6299212598425197},{"duration":0.7583333333333258,"durationTicks":455,"midi":77,"name":"F5","ticks":54480,"time":90.80000000000001,"velocity":0.6299212598425197},{"duration":0.3783333333333303,"durationTicks":227,"midi":74,"name":"D5","ticks":54960,"time":91.60000000000001,"velocity":0.6299212598425197},{"duration":0.3783333333333303,"durationTicks":227,"midi":72,"name":"C5","ticks":55200,"time":92,"velocity":0.6299212598425197},{"duration":0.75833333333334,"durationTicks":455,"midi":77,"name":"F5","ticks":55440,"time":92.4,"velocity":0.6299212598425197},{"duration":0.3783333333333303,"durationTicks":227,"midi":74,"name":"D5","ticks":55920,"time":93.2,"velocity":0.6299212598425197},{"duration":0.3783333333333303,"durationTicks":227,"midi":72,"name":"C5","ticks":56160,"time":93.60000000000001,"velocity":0.6299212598425197},{"duration":0.75833333333334,"durationTicks":455,"midi":77,"name":"F5","ticks":56400,"time":94,"velocity":0.6299212598425197},{"duration":0.18833333333333258,"durationTicks":113,"midi":74,"name":"D5","ticks":56880,"time":94.80000000000001,"velocity":0.6299212598425197},{"duration":0.9483333333333377,"durationTicks":569,"midi":72,"name":"C5","ticks":57000,"time":95,"velocity":0.6299212598425197},{"duration":0.3783333333333303,"durationTicks":227,"midi":69,"name":"A4","ticks":58560,"time":97.60000000000001,"velocity":0.6299212598425197},{"duration":0.3783333333333303,"durationTicks":227,"midi":72,"name":"C5","ticks":58800,"time":98,"velocity":0.6299212598425197},{"duration":0.3783333333333303,"durationTicks":227,"midi":72,"name":"C5","ticks":59040,"time":98.4,"velocity":0.6299212598425197},{"duration":0.3783333333333303,"durationTicks":227,"midi":69,"name":"A4","ticks":59280,"time":98.80000000000001,"velocity":0.6299212598425197},{"duration":0.3783333333333303,"durationTicks":227,"midi":74,"name":"D5","ticks":59520,"time":99.2,"velocity":0.6299212598425197},{"duration":0.3783333333333303,"durationTicks":227,"midi":69,"name":"A4","ticks":59760,"time":99.60000000000001,"velocity":0.6299212598425197},{"duration":0.3783333333333303,"durationTicks":227,"midi":69,"name":"A4","ticks":60000,"time":100,"velocity":0.6299212598425197},{"duration":0.3783333333333303,"durationTicks":227,"midi":69,"name":"A4","ticks":60240,"time":100.4,"velocity":0.6299212598425197},{"duration":0.7583333333333258,"durationTicks":455,"midi":69,"name":"A4","ticks":60480,"time":100.80000000000001,"velocity":0.6299212598425197},{"duration":0.3783333333333303,"durationTicks":227,"midi":67,"name":"G4","ticks":60960,"time":101.60000000000001,"velocity":0.6299212598425197},{"duration":0.3783333333333303,"durationTicks":227,"midi":65,"name":"F4","ticks":61200,"time":102,"velocity":0.6299212598425197},{"duration":1.518333333333345,"durationTicks":911,"midi":64,"name":"E4","ticks":61440,"time":102.4,"velocity":0.6299212598425197},{"duration":0.3783333333333303,"durationTicks":227,"midi":70,"name":"A#4","ticks":63600,"time":106,"velocity":0.6299212598425197},{"duration":0.3783333333333303,"durationTicks":227,"midi":70,"name":"A#4","ticks":63840,"time":106.4,"velocity":0.6299212598425197},{"duration":0.3783333333333303,"durationTicks":227,"midi":70,"name":"A#4","ticks":64080,"time":106.80000000000001,"velocity":0.6299212598425197},{"duration":0.3783333333333303,"durationTicks":227,"midi":70,"name":"A#4","ticks":64320,"time":107.2,"velocity":0.6299212598425197},{"duration":0.3783333333333303,"durationTicks":227,"midi":70,"name":"A#4","ticks":64560,"time":107.60000000000001,"velocity":0.6299212598425197},{"duration":0.3783333333333303,"durationTicks":227,"midi":70,"name":"A#4","ticks":64800,"time":108,"velocity":0.6299212598425197},{"duration":0.1883333333333468,"durationTicks":113,"midi":70,"name":"A#4","ticks":65040,"time":108.4,"velocity":0.6299212598425197},{"duration":0.1883333333333468,"durationTicks":113,"midi":69,"name":"A4","ticks":65160,"time":108.60000000000001,"velocity":0.6299212598425197},{"duration":0.7583333333333258,"durationTicks":455,"midi":65,"name":"F4","ticks":65280,"time":108.80000000000001,"velocity":0.6299212598425197},{"duration":0.3783333333333303,"durationTicks":227,"midi":65,"name":"F4","ticks":66480,"time":110.80000000000001,"velocity":0.6299212598425197},{"duration":0.3783333333333303,"durationTicks":227,"midi":65,"name":"F4","ticks":66960,"time":111.60000000000001,"velocity":0.6299212598425197},{"duration":0.3783333333333303,"durationTicks":227,"midi":58,"name":"A#3","ticks":68400,"time":114,"velocity":0.6299212598425197},{"duration":0.3783333333333303,"durationTicks":227,"midi":65,"name":"F4","ticks":70320,"time":117.2,"velocity":0.6299212598425197},{"duration":0.3783333333333303,"durationTicks":227,"midi":65,"name":"F4","ticks":70800,"time":118,"velocity":0.6299212598425197},{"duration":0.3783333333333303,"durationTicks":227,"midi":65,"name":"F4","ticks":71760,"time":119.60000000000001,"velocity":0.6299212598425197},{"duration":0.3783333333333303,"durationTicks":227,"midi":65,"name":"F4","ticks":72240,"time":120.4,"velocity":0.6299212598425197},{"duration":0.3783333333333303,"durationTicks":227,"midi":65,"name":"F4","ticks":72720,"time":121.2,"velocity":0.6299212598425197},{"duration":0.3783333333333303,"durationTicks":227,"midi":65,"name":"F4","ticks":74160,"time":123.60000000000001,"velocity":0.6299212598425197},{"duration":0.3783333333333303,"durationTicks":227,"midi":65,"name":"F4","ticks":74640,"time":124.4,"velocity":0.6299212598425197},{"duration":0.3783333333333303,"durationTicks":227,"midi":58,"name":"A#3","ticks":76080,"time":126.80000000000001,"velocity":0.6299212598425197},{"duration":0.3783333333333303,"durationTicks":227,"midi":65,"name":"F4","ticks":78000,"time":130,"velocity":0.6299212598425197},{"duration":0.3783333333333303,"durationTicks":227,"midi":65,"name":"F4","ticks":78480,"time":130.8,"velocity":0.6299212598425197},{"duration":0.3783333333333303,"durationTicks":227,"midi":65,"name":"F4","ticks":79920,"time":133.20000000000002,"velocity":0.6299212598425197},{"duration":0.3783333333333303,"durationTicks":227,"midi":65,"name":"F4","ticks":81600,"time":136,"velocity":0.6299212598425197},{"duration":1.1383333333333496,"durationTicks":683,"midi":62,"name":"D4","ticks":81600,"time":136,"velocity":0.6299212598425197},{"duration":0.3783333333333303,"durationTicks":227,"midi":67,"name":"G4","ticks":81840,"time":136.4,"velocity":0.6299212598425197},{"duration":0.3783333333333303,"durationTicks":227,"midi":65,"name":"F4","ticks":82080,"time":136.8,"velocity":0.6299212598425197},{"duration":0.7583333333333258,"durationTicks":455,"midi":65,"name":"F4","ticks":82320,"time":137.20000000000002,"velocity":0.6299212598425197},{"duration":0.7583333333333258,"durationTicks":455,"midi":72,"name":"C5","ticks":82320,"time":137.20000000000002,"velocity":0.6299212598425197},{"duration":0.3783333333333303,"durationTicks":227,"midi":65,"name":"F4","ticks":82800,"time":138,"velocity":0.6299212598425197},{"duration":0.3783333333333303,"durationTicks":227,"midi":69,"name":"A4","ticks":82800,"time":138,"velocity":0.6299212598425197},{"duration":0.188333333333361,"durationTicks":113,"midi":65,"name":"F4","ticks":83400,"time":139,"velocity":0.6299212598425197},{"duration":0.3783333333333303,"durationTicks":227,"midi":65,"name":"F4","ticks":83520,"time":139.20000000000002,"velocity":0.6299212598425197},{"duration":1.1383333333333212,"durationTicks":683,"midi":62,"name":"D4","ticks":83520,"time":139.20000000000002,"velocity":0.6299212598425197},{"duration":0.3783333333333303,"durationTicks":227,"midi":67,"name":"G4","ticks":83760,"time":139.6,"velocity":0.6299212598425197},{"duration":0.3783333333333303,"durationTicks":227,"midi":65,"name":"F4","ticks":84000,"time":140,"velocity":0.6299212598425197},{"duration":0.7583333333333258,"durationTicks":455,"midi":65,"name":"F4","ticks":84240,"time":140.4,"velocity":0.6299212598425197},{"duration":0.7583333333333258,"durationTicks":455,"midi":72,"name":"C5","ticks":84240,"time":140.4,"velocity":0.6299212598425197},{"duration":0.3783333333333303,"durationTicks":227,"midi":65,"name":"F4","ticks":84720,"time":141.20000000000002,"velocity":0.6299212598425197},{"duration":0.3783333333333303,"durationTicks":227,"midi":69,"name":"A4","ticks":84720,"time":141.20000000000002,"velocity":0.6299212598425197},{"duration":0.3783333333333303,"durationTicks":227,"midi":65,"name":"F4","ticks":85440,"time":142.4,"velocity":0.6299212598425197},{"duration":0.3783333333333303,"durationTicks":227,"midi":67,"name":"G4","ticks":85680,"time":142.8,"velocity":0.6299212598425197},{"duration":0.3783333333333303,"durationTicks":227,"midi":65,"name":"F4","ticks":85920,"time":143.20000000000002,"velocity":0.6299212598425197},{"duration":0.7583333333333258,"durationTicks":455,"midi":69,"name":"A4","ticks":86160,"time":143.6,"velocity":0.6299212598425197},{"duration":1.518333333333345,"durationTicks":911,"midi":65,"name":"F4","ticks":86160,"time":143.6,"velocity":0.6299212598425197},{"duration":0.7583333333333258,"durationTicks":455,"midi":69,"name":"A4","ticks":86640,"time":144.4,"velocity":0.6299212598425197},{"duration":0.3783333333333303,"durationTicks":227,"midi":65,"name":"F4","ticks":87120,"time":145.20000000000002,"velocity":0.6299212598425197},{"duration":0.3783333333333303,"durationTicks":227,"midi":69,"name":"A4","ticks":87120,"time":145.20000000000002,"velocity":0.6299212598425197},{"duration":0.7583333333333258,"durationTicks":455,"midi":65,"name":"F4","ticks":87360,"time":145.6,"velocity":0.6299212598425197},{"duration":0.7583333333333258,"durationTicks":455,"midi":69,"name":"A4","ticks":87360,"time":145.6,"velocity":0.6299212598425197},{"duration":0.3783333333333303,"durationTicks":227,"midi":64,"name":"E4","ticks":87840,"time":146.4,"velocity":0.6299212598425197},{"duration":0.3783333333333303,"durationTicks":227,"midi":67,"name":"G4","ticks":87840,"time":146.4,"velocity":0.6299212598425197},{"duration":0.7583333333333258,"durationTicks":455,"midi":65,"name":"F4","ticks":88080,"time":146.8,"velocity":0.6299212598425197},{"duration":0.3783333333333303,"durationTicks":227,"midi":65,"name":"F4","ticks":89280,"time":148.8,"velocity":0.6299212598425197},{"duration":1.1383333333333496,"durationTicks":683,"midi":62,"name":"D4","ticks":89280,"time":148.8,"velocity":0.6299212598425197},{"duration":0.3783333333333303,"durationTicks":227,"midi":67,"name":"G4","ticks":89520,"time":149.20000000000002,"velocity":0.6299212598425197},{"duration":0.3783333333333303,"durationTicks":227,"midi":65,"name":"F4","ticks":89760,"time":149.6,"velocity":0.6299212598425197},{"duration":0.7583333333333258,"durationTicks":455,"midi":65,"name":"F4","ticks":90000,"time":150,"velocity":0.6299212598425197},{"duration":0.7583333333333258,"durationTicks":455,"midi":72,"name":"C5","ticks":90000,"time":150,"velocity":0.6299212598425197},{"duration":0.3783333333333303,"durationTicks":227,"midi":65,"name":"F4","ticks":90480,"time":150.8,"velocity":0.6299212598425197},{"duration":0.3783333333333303,"durationTicks":227,"midi":69,"name":"A4","ticks":90480,"time":150.8,"velocity":0.6299212598425197},{"duration":0.3783333333333303,"durationTicks":227,"midi":65,"name":"F4","ticks":91200,"time":152,"velocity":0.6299212598425197},{"duration":1.1383333333333496,"durationTicks":683,"midi":62,"name":"D4","ticks":91200,"time":152,"velocity":0.6299212598425197},{"duration":0.3783333333333303,"durationTicks":227,"midi":67,"name":"G4","ticks":91440,"time":152.4,"velocity":0.6299212598425197},{"duration":0.3783333333333303,"durationTicks":227,"midi":65,"name":"F4","ticks":91680,"time":152.8,"velocity":0.6299212598425197},{"duration":0.7583333333333258,"durationTicks":455,"midi":65,"name":"F4","ticks":91920,"time":153.20000000000002,"velocity":0.6299212598425197},{"duration":0.7583333333333258,"durationTicks":455,"midi":72,"name":"C5","ticks":91920,"time":153.20000000000002,"velocity":0.6299212598425197},{"duration":0.188333333333361,"durationTicks":113,"midi":69,"name":"A4","ticks":92400,"time":154,"velocity":0.6299212598425197},{"duration":0.18833333333333258,"durationTicks":113,"midi":67,"name":"G4","ticks":92520,"time":154.20000000000002,"velocity":0.6299212598425197},{"duration":0.3783333333333303,"durationTicks":227,"midi":65,"name":"F4","ticks":92640,"time":154.4,"velocity":0.6299212598425197},{"duration":0.188333333333361,"durationTicks":113,"midi":65,"name":"F4","ticks":93000,"time":155,"velocity":0.6299212598425197},{"duration":0.3783333333333303,"durationTicks":227,"midi":65,"name":"F4","ticks":93120,"time":155.20000000000002,"velocity":0.6299212598425197},{"duration":0.3783333333333303,"durationTicks":227,"midi":67,"name":"G4","ticks":93360,"time":155.60000000000002,"velocity":0.6299212598425197},{"duration":0.3783333333333303,"durationTicks":227,"midi":65,"name":"F4","ticks":93600,"time":156,"velocity":0.6299212598425197},{"duration":0.7583333333333258,"durationTicks":455,"midi":69,"name":"A4","ticks":93840,"time":156.4,"velocity":0.6299212598425197},{"duration":1.518333333333345,"durationTicks":911,"midi":65,"name":"F4","ticks":93840,"time":156.4,"velocity":0.6299212598425197},{"duration":0.7583333333333258,"durationTicks":455,"midi":69,"name":"A4","ticks":94320,"time":157.20000000000002,"velocity":0.6299212598425197},{"duration":0.3783333333333303,"durationTicks":227,"midi":65,"name":"F4","ticks":94800,"time":158,"velocity":0.6299212598425197},{"duration":0.3783333333333303,"durationTicks":227,"midi":69,"name":"A4","ticks":94800,"time":158,"velocity":0.6299212598425197},{"duration":0.7583333333333258,"durationTicks":455,"midi":65,"name":"F4","ticks":95040,"time":158.4,"velocity":0.6299212598425197},{"duration":0.7583333333333258,"durationTicks":455,"midi":69,"name":"A4","ticks":95040,"time":158.4,"velocity":0.6299212598425197},{"duration":0.3783333333333303,"durationTicks":227,"midi":64,"name":"E4","ticks":95520,"time":159.20000000000002,"velocity":0.6299212598425197},{"duration":0.3783333333333303,"durationTicks":227,"midi":67,"name":"G4","ticks":95520,"time":159.20000000000002,"velocity":0.6299212598425197},{"duration":0.7583333333333258,"durationTicks":455,"midi":65,"name":"F4","ticks":95760,"time":159.60000000000002,"velocity":0.6299212598425197},{"duration":0.3783333333333303,"durationTicks":227,"midi":65,"name":"F4","ticks":96960,"time":161.60000000000002,"velocity":0.6299212598425197},{"duration":1.1383333333333212,"durationTicks":683,"midi":62,"name":"D4","ticks":96960,"time":161.60000000000002,"velocity":0.6299212598425197},{"duration":0.3783333333333303,"durationTicks":227,"midi":67,"name":"G4","ticks":97200,"time":162,"velocity":0.6299212598425197},{"duration":0.3783333333333303,"durationTicks":227,"midi":65,"name":"F4","ticks":97440,"time":162.4,"velocity":0.6299212598425197},{"duration":0.7583333333333258,"durationTicks":455,"midi":65,"name":"F4","ticks":97680,"time":162.8,"velocity":0.6299212598425197},{"duration":0.7583333333333258,"durationTicks":455,"midi":72,"name":"C5","ticks":97680,"time":162.8,"velocity":0.6299212598425197},{"duration":0.3783333333333303,"durationTicks":227,"midi":65,"name":"F4","ticks":98160,"time":163.60000000000002,"velocity":0.6299212598425197},{"duration":0.3783333333333303,"durationTicks":227,"midi":69,"name":"A4","ticks":98160,"time":163.60000000000002,"velocity":0.6299212598425197},{"duration":0.3783333333333303,"durationTicks":227,"midi":65,"name":"F4","ticks":98880,"time":164.8,"velocity":0.6299212598425197},{"duration":1.1383333333333496,"durationTicks":683,"midi":62,"name":"D4","ticks":98880,"time":164.8,"velocity":0.6299212598425197},{"duration":0.3783333333333303,"durationTicks":227,"midi":67,"name":"G4","ticks":99120,"time":165.20000000000002,"velocity":0.6299212598425197},{"duration":0.3783333333333303,"durationTicks":227,"midi":65,"name":"F4","ticks":99360,"time":165.60000000000002,"velocity":0.6299212598425197},{"duration":0.7583333333333258,"durationTicks":455,"midi":65,"name":"F4","ticks":99600,"time":166,"velocity":0.6299212598425197},{"duration":0.7583333333333258,"durationTicks":455,"midi":72,"name":"C5","ticks":99600,"time":166,"velocity":0.6299212598425197},{"duration":0.3783333333333303,"durationTicks":227,"midi":65,"name":"F4","ticks":100080,"time":166.8,"velocity":0.6299212598425197},{"duration":0.3783333333333303,"durationTicks":227,"midi":69,"name":"A4","ticks":100080,"time":166.8,"velocity":0.6299212598425197},{"duration":0.3783333333333303,"durationTicks":227,"midi":65,"name":"F4","ticks":100800,"time":168,"velocity":0.6299212598425197},{"duration":0.3783333333333303,"durationTicks":227,"midi":67,"name":"G4","ticks":101040,"time":168.4,"velocity":0.6299212598425197},{"duration":0.3783333333333303,"durationTicks":227,"midi":65,"name":"F4","ticks":101280,"time":168.8,"velocity":0.6299212598425197},{"duration":0.7583333333333258,"durationTicks":455,"midi":69,"name":"A4","ticks":101520,"time":169.20000000000002,"velocity":0.6299212598425197},{"duration":1.518333333333345,"durationTicks":911,"midi":65,"name":"F4","ticks":101520,"time":169.20000000000002,"velocity":0.6299212598425197},{"duration":0.7583333333333258,"durationTicks":455,"midi":69,"name":"A4","ticks":102000,"time":170,"velocity":0.6299212598425197},{"duration":0.3783333333333303,"durationTicks":227,"midi":65,"name":"F4","ticks":102480,"time":170.8,"velocity":0.6299212598425197},{"duration":0.3783333333333303,"durationTicks":227,"midi":69,"name":"A4","ticks":102480,"time":170.8,"velocity":0.6299212598425197},{"duration":0.7583333333333258,"durationTicks":455,"midi":65,"name":"F4","ticks":102720,"time":171.20000000000002,"velocity":0.6299212598425197},{"duration":0.7583333333333258,"durationTicks":455,"midi":69,"name":"A4","ticks":102720,"time":171.20000000000002,"velocity":0.6299212598425197},{"duration":0.3783333333333303,"durationTicks":227,"midi":64,"name":"E4","ticks":103200,"time":172,"velocity":0.6299212598425197},{"duration":0.3783333333333303,"durationTicks":227,"midi":67,"name":"G4","ticks":103200,"time":172,"velocity":0.6299212598425197},{"duration":0.7583333333333258,"durationTicks":455,"midi":65,"name":"F4","ticks":103440,"time":172.4,"velocity":0.6299212598425197},{"duration":0.3783333333333303,"durationTicks":227,"midi":65,"name":"F4","ticks":104640,"time":174.4,"velocity":0.6299212598425197},{"duration":1.1383333333333496,"durationTicks":683,"midi":62,"name":"D4","ticks":104640,"time":174.4,"velocity":0.6299212598425197},{"duration":0.3783333333333303,"durationTicks":227,"midi":67,"name":"G4","ticks":104880,"time":174.8,"velocity":0.6299212598425197},{"duration":0.3783333333333303,"durationTicks":227,"midi":65,"name":"F4","ticks":105120,"time":175.20000000000002,"velocity":0.6299212598425197},{"duration":0.7583333333333258,"durationTicks":455,"midi":65,"name":"F4","ticks":105360,"time":175.60000000000002,"velocity":0.6299212598425197},{"duration":0.7583333333333258,"durationTicks":455,"midi":72,"name":"C5","ticks":105360,"time":175.60000000000002,"velocity":0.6299212598425197},{"duration":0.3783333333333303,"durationTicks":227,"midi":65,"name":"F4","ticks":105840,"time":176.4,"velocity":0.6299212598425197},{"duration":0.3783333333333303,"durationTicks":227,"midi":69,"name":"A4","ticks":105840,"time":176.4,"velocity":0.6299212598425197},{"duration":0.3783333333333303,"durationTicks":227,"midi":65,"name":"F4","ticks":106560,"time":177.60000000000002,"velocity":0.6299212598425197},{"duration":1.1383333333333212,"durationTicks":683,"midi":62,"name":"D4","ticks":106560,"time":177.60000000000002,"velocity":0.6299212598425197},{"duration":0.3783333333333303,"durationTicks":227,"midi":67,"name":"G4","ticks":106800,"time":178,"velocity":0.6299212598425197},{"duration":0.3783333333333303,"durationTicks":227,"midi":65,"name":"F4","ticks":107040,"time":178.4,"velocity":0.6299212598425197},{"duration":0.7583333333333258,"durationTicks":455,"midi":65,"name":"F4","ticks":107280,"time":178.8,"velocity":0.6299212598425197},{"duration":0.7583333333333258,"durationTicks":455,"midi":72,"name":"C5","ticks":107280,"time":178.8,"velocity":0.6299212598425197},{"duration":0.3783333333333303,"durationTicks":227,"midi":65,"name":"F4","ticks":107760,"time":179.60000000000002,"velocity":0.6299212598425197},{"duration":0.3783333333333303,"durationTicks":227,"midi":69,"name":"A4","ticks":107760,"time":179.60000000000002,"velocity":0.6299212598425197},{"duration":0.3783333333333303,"durationTicks":227,"midi":65,"name":"F4","ticks":108480,"time":180.8,"velocity":0.6299212598425197},{"duration":0.3783333333333303,"durationTicks":227,"midi":67,"name":"G4","ticks":108720,"time":181.20000000000002,"velocity":0.6299212598425197},{"duration":0.3783333333333303,"durationTicks":227,"midi":65,"name":"F4","ticks":108960,"time":181.60000000000002,"velocity":0.6299212598425197},{"duration":0.7583333333333258,"durationTicks":455,"midi":69,"name":"A4","ticks":109200,"time":182,"velocity":0.6299212598425197},{"duration":1.518333333333345,"durationTicks":911,"midi":65,"name":"F4","ticks":109200,"time":182,"velocity":0.6299212598425197},{"duration":0.7583333333333258,"durationTicks":455,"midi":69,"name":"A4","ticks":109680,"time":182.8,"velocity":0.6299212598425197},{"duration":0.3783333333333303,"durationTicks":227,"midi":65,"name":"F4","ticks":110160,"time":183.60000000000002,"velocity":0.6299212598425197},{"duration":0.3783333333333303,"durationTicks":227,"midi":69,"name":"A4","ticks":110160,"time":183.60000000000002,"velocity":0.6299212598425197},{"duration":0.7583333333333258,"durationTicks":455,"midi":65,"name":"F4","ticks":110400,"time":184,"velocity":0.6299212598425197},{"duration":0.7583333333333258,"durationTicks":455,"midi":69,"name":"A4","ticks":110400,"time":184,"velocity":0.6299212598425197},{"duration":0.3783333333333303,"durationTicks":227,"midi":64,"name":"E4","ticks":110880,"time":184.8,"velocity":0.6299212598425197},{"duration":0.3783333333333303,"durationTicks":227,"midi":67,"name":"G4","ticks":110880,"time":184.8,"velocity":0.6299212598425197},{"duration":0.7583333333333258,"durationTicks":455,"midi":65,"name":"F4","ticks":111120,"time":185.20000000000002,"velocity":0.6299212598425197},{"duration":0.7583333333333258,"durationTicks":455,"midi":65,"name":"F4","ticks":112080,"time":186.8,"velocity":0.6299212598425197},{"duration":0.7583333333333258,"durationTicks":455,"midi":77,"name":"F5","ticks":112080,"time":186.8,"velocity":0.6299212598425197},{"duration":0.3783333333333303,"durationTicks":227,"midi":70,"name":"A#4","ticks":112560,"time":187.60000000000002,"velocity":0.6299212598425197},{"duration":0.3783333333333303,"durationTicks":227,"midi":74,"name":"D5","ticks":112560,"time":187.60000000000002,"velocity":0.6299212598425197},{"duration":0.3783333333333303,"durationTicks":227,"midi":72,"name":"C5","ticks":112800,"time":188,"velocity":0.6299212598425197},{"duration":0.7583333333333258,"durationTicks":455,"midi":65,"name":"F4","ticks":113040,"time":188.4,"velocity":0.6299212598425197},{"duration":0.7583333333333258,"durationTicks":455,"midi":77,"name":"F5","ticks":113040,"time":188.4,"velocity":0.6299212598425197},{"duration":0.3783333333333303,"durationTicks":227,"midi":70,"name":"A#4","ticks":113520,"time":189.20000000000002,"velocity":0.6299212598425197},{"duration":0.3783333333333303,"durationTicks":227,"midi":74,"name":"D5","ticks":113520,"time":189.20000000000002,"velocity":0.6299212598425197},{"duration":0.3783333333333303,"durationTicks":227,"midi":72,"name":"C5","ticks":113760,"time":189.60000000000002,"velocity":0.6299212598425197},{"duration":0.7583333333333258,"durationTicks":455,"midi":65,"name":"F4","ticks":114000,"time":190,"velocity":0.6299212598425197},{"duration":0.7583333333333258,"durationTicks":455,"midi":77,"name":"F5","ticks":114000,"time":190,"velocity":0.6299212598425197},{"duration":0.3783333333333303,"durationTicks":227,"midi":70,"name":"A#4","ticks":114480,"time":190.8,"velocity":0.6299212598425197},{"duration":0.3783333333333303,"durationTicks":227,"midi":74,"name":"D5","ticks":114480,"time":190.8,"velocity":0.6299212598425197},{"duration":0.7583333333333258,"durationTicks":455,"midi":72,"name":"C5","ticks":114720,"time":191.20000000000002,"velocity":0.6299212598425197},{"duration":0.3783333333333303,"durationTicks":227,"midi":69,"name":"A4","ticks":116160,"time":193.60000000000002,"velocity":0.6299212598425197},{"duration":1.5183333333333167,"durationTicks":911,"midi":65,"name":"F4","ticks":116160,"time":193.60000000000002,"velocity":0.6299212598425197},{"duration":0.3783333333333303,"durationTicks":227,"midi":72,"name":"C5","ticks":116400,"time":194,"velocity":0.6299212598425197},{"duration":0.3783333333333303,"durationTicks":227,"midi":72,"name":"C5","ticks":116640,"time":194.4,"velocity":0.6299212598425197},{"duration":0.3783333333333303,"durationTicks":227,"midi":69,"name":"A4","ticks":116880,"time":194.8,"velocity":0.6299212598425197},{"duration":0.3783333333333303,"durationTicks":227,"midi":74,"name":"D5","ticks":117120,"time":195.20000000000002,"velocity":0.6299212598425197},{"duration":1.518333333333345,"durationTicks":911,"midi":65,"name":"F4","ticks":117120,"time":195.20000000000002,"velocity":0.6299212598425197},{"duration":0.3783333333333303,"durationTicks":227,"midi":69,"name":"A4","ticks":117360,"time":195.60000000000002,"velocity":0.6299212598425197},{"duration":0.3783333333333303,"durationTicks":227,"midi":69,"name":"A4","ticks":117600,"time":196,"velocity":0.6299212598425197},{"duration":0.3783333333333303,"durationTicks":227,"midi":69,"name":"A4","ticks":117840,"time":196.4,"velocity":0.6299212598425197},{"duration":0.7583333333333258,"durationTicks":455,"midi":65,"name":"F4","ticks":118080,"time":196.8,"velocity":0.6299212598425197},{"duration":0.7583333333333258,"durationTicks":455,"midi":69,"name":"A4","ticks":118080,"time":196.8,"velocity":0.6299212598425197},{"duration":0.3783333333333303,"durationTicks":227,"midi":64,"name":"E4","ticks":118560,"time":197.60000000000002,"velocity":0.6299212598425197},{"duration":0.3783333333333303,"durationTicks":227,"midi":67,"name":"G4","ticks":118560,"time":197.60000000000002,"velocity":0.6299212598425197},{"duration":0.3783333333333303,"durationTicks":227,"midi":65,"name":"F4","ticks":118800,"time":198,"velocity":0.6299212598425197},{"duration":0.3783333333333303,"durationTicks":227,"midi":65,"name":"F4","ticks":119040,"time":198.4,"velocity":0.6299212598425197},{"duration":0.7583333333333258,"durationTicks":455,"midi":65,"name":"F4","ticks":119760,"time":199.60000000000002,"velocity":0.6299212598425197},{"duration":0.7583333333333258,"durationTicks":455,"midi":77,"name":"F5","ticks":119760,"time":199.60000000000002,"velocity":0.6299212598425197},{"duration":0.3783333333333303,"durationTicks":227,"midi":70,"name":"A#4","ticks":120240,"time":200.4,"velocity":0.6299212598425197},{"duration":0.3783333333333303,"durationTicks":227,"midi":74,"name":"D5","ticks":120240,"time":200.4,"velocity":0.6299212598425197},{"duration":0.3783333333333303,"durationTicks":227,"midi":72,"name":"C5","ticks":120480,"time":200.8,"velocity":0.6299212598425197},{"duration":0.7583333333333258,"durationTicks":455,"midi":65,"name":"F4","ticks":120720,"time":201.20000000000002,"velocity":0.6299212598425197},{"duration":0.7583333333333258,"durationTicks":455,"midi":77,"name":"F5","ticks":120720,"time":201.20000000000002,"velocity":0.6299212598425197},{"duration":0.3783333333333303,"durationTicks":227,"midi":70,"name":"A#4","ticks":121200,"time":202,"velocity":0.6299212598425197},{"duration":0.3783333333333303,"durationTicks":227,"midi":74,"name":"D5","ticks":121200,"time":202,"velocity":0.6299212598425197},{"duration":0.3783333333333303,"durationTicks":227,"midi":72,"name":"C5","ticks":121440,"time":202.4,"velocity":0.6299212598425197},{"duration":0.7583333333333258,"durationTicks":455,"midi":65,"name":"F4","ticks":121680,"time":202.8,"velocity":0.6299212598425197},{"duration":0.7583333333333258,"durationTicks":455,"midi":77,"name":"F5","ticks":121680,"time":202.8,"velocity":0.6299212598425197},{"duration":0.3783333333333303,"durationTicks":227,"midi":70,"name":"A#4","ticks":122160,"time":203.60000000000002,"velocity":0.6299212598425197},{"duration":0.3783333333333303,"durationTicks":227,"midi":74,"name":"D5","ticks":122160,"time":203.60000000000002,"velocity":0.6299212598425197},{"duration":0.7583333333333258,"durationTicks":455,"midi":72,"name":"C5","ticks":122400,"time":204,"velocity":0.6299212598425197},{"duration":0.3783333333333303,"durationTicks":227,"midi":69,"name":"A4","ticks":123840,"time":206.4,"velocity":0.6299212598425197},{"duration":1.518333333333345,"durationTicks":911,"midi":65,"name":"F4","ticks":123840,"time":206.4,"velocity":0.6299212598425197},{"duration":0.3783333333333303,"durationTicks":227,"midi":72,"name":"C5","ticks":124080,"time":206.8,"velocity":0.6299212598425197},{"duration":0.3783333333333303,"durationTicks":227,"midi":72,"name":"C5","ticks":124320,"time":207.20000000000002,"velocity":0.6299212598425197},{"duration":0.3783333333333303,"durationTicks":227,"midi":69,"name":"A4","ticks":124560,"time":207.60000000000002,"velocity":0.6299212598425197},{"duration":0.3783333333333303,"durationTicks":227,"midi":74,"name":"D5","ticks":124800,"time":208,"velocity":0.6299212598425197},{"duration":1.518333333333345,"durationTicks":911,"midi":65,"name":"F4","ticks":124800,"time":208,"velocity":0.6299212598425197},{"duration":0.3783333333333303,"durationTicks":227,"midi":69,"name":"A4","ticks":125040,"time":208.4,"velocity":0.6299212598425197},{"duration":0.3783333333333303,"durationTicks":227,"midi":69,"name":"A4","ticks":125280,"time":208.8,"velocity":0.6299212598425197},{"duration":0.3783333333333303,"durationTicks":227,"midi":69,"name":"A4","ticks":125520,"time":209.20000000000002,"velocity":0.6299212598425197},{"duration":0.7583333333333258,"durationTicks":455,"midi":65,"name":"F4","ticks":125760,"time":209.60000000000002,"velocity":0.6299212598425197},{"duration":0.7583333333333258,"durationTicks":455,"midi":69,"name":"A4","ticks":125760,"time":209.60000000000002,"velocity":0.6299212598425197},{"duration":0.3783333333333303,"durationTicks":227,"midi":64,"name":"E4","ticks":126240,"time":210.4,"velocity":0.6299212598425197},{"duration":0.3783333333333303,"durationTicks":227,"midi":67,"name":"G4","ticks":126240,"time":210.4,"velocity":0.6299212598425197},{"duration":0.3783333333333303,"durationTicks":227,"midi":65,"name":"F4","ticks":126480,"time":210.8,"velocity":0.6299212598425197},{"duration":1.518333333333345,"durationTicks":911,"midi":60,"name":"C4","ticks":126720,"time":211.20000000000002,"velocity":0.6299212598425197},{"duration":1.518333333333345,"durationTicks":911,"midi":64,"name":"E4","ticks":126720,"time":211.20000000000002,"velocity":0.6299212598425197},{"duration":0.3783333333333303,"durationTicks":227,"midi":70,"name":"A#4","ticks":128880,"time":214.8,"velocity":0.6299212598425197},{"duration":1.1383333333333212,"durationTicks":683,"midi":67,"name":"G4","ticks":128880,"time":214.8,"velocity":0.6299212598425197},{"duration":0.3783333333333303,"durationTicks":227,"midi":70,"name":"A#4","ticks":129120,"time":215.20000000000002,"velocity":0.6299212598425197},{"duration":0.3783333333333303,"durationTicks":227,"midi":70,"name":"A#4","ticks":129360,"time":215.60000000000002,"velocity":0.6299212598425197},{"duration":0.3783333333333303,"durationTicks":227,"midi":70,"name":"A#4","ticks":129600,"time":216,"velocity":0.6299212598425197},{"duration":0.3783333333333303,"durationTicks":227,"midi":67,"name":"G4","ticks":129600,"time":216,"velocity":0.6299212598425197},{"duration":0.3783333333333303,"durationTicks":227,"midi":70,"name":"A#4","ticks":129840,"time":216.4,"velocity":0.6299212598425197},{"duration":0.3783333333333303,"durationTicks":227,"midi":67,"name":"G4","ticks":129840,"time":216.4,"velocity":0.6299212598425197},{"duration":0.3783333333333303,"durationTicks":227,"midi":70,"name":"A#4","ticks":130080,"time":216.8,"velocity":0.6299212598425197},{"duration":0.3783333333333303,"durationTicks":227,"midi":67,"name":"G4","ticks":130080,"time":216.8,"velocity":0.6299212598425197},{"duration":0.18833333333330415,"durationTicks":113,"midi":70,"name":"A#4","ticks":130320,"time":217.20000000000002,"velocity":0.6299212598425197},{"duration":0.3783333333333303,"durationTicks":227,"midi":67,"name":"G4","ticks":130320,"time":217.20000000000002,"velocity":0.6299212598425197},{"duration":0.18833333333333258,"durationTicks":113,"midi":69,"name":"A4","ticks":130440,"time":217.4,"velocity":0.6299212598425197},{"duration":0.7583333333333258,"durationTicks":455,"midi":65,"name":"F4","ticks":130560,"time":217.60000000000002,"velocity":0.6299212598425197},{"duration":0.7583333333333258,"durationTicks":455,"midi":77,"name":"F5","ticks":130560,"time":217.60000000000002,"velocity":0.6299212598425197},{"duration":0.3783333333333303,"durationTicks":227,"midi":65,"name":"F4","ticks":131760,"time":219.60000000000002,"velocity":0.6299212598425197},{"duration":0.3783333333333303,"durationTicks":227,"midi":77,"name":"F5","ticks":131760,"time":219.60000000000002,"velocity":0.6299212598425197},{"duration":0.3783333333333303,"durationTicks":227,"midi":65,"name":"F4","ticks":132240,"time":220.4,"velocity":0.6299212598425197},{"duration":0.3783333333333303,"durationTicks":227,"midi":77,"name":"F5","ticks":132240,"time":220.4,"velocity":0.6299212598425197},{"duration":0.3783333333333303,"durationTicks":227,"midi":58,"name":"A#3","ticks":133680,"time":222.8,"velocity":0.6299212598425197},{"duration":0.3783333333333303,"durationTicks":227,"midi":70,"name":"A#4","ticks":133680,"time":222.8,"velocity":0.6299212598425197},{"duration":0.3783333333333303,"durationTicks":227,"midi":65,"name":"F4","ticks":135600,"time":226,"velocity":0.6299212598425197},{"duration":0.3783333333333303,"durationTicks":227,"midi":77,"name":"F5","ticks":135600,"time":226,"velocity":0.6299212598425197},{"duration":0.3783333333333303,"durationTicks":227,"midi":65,"name":"F4","ticks":136080,"time":226.8,"velocity":0.6299212598425197},{"duration":0.3783333333333303,"durationTicks":227,"midi":77,"name":"F5","ticks":136080,"time":226.8,"velocity":0.6299212598425197},{"duration":0.3783333333333303,"durationTicks":227,"midi":65,"name":"F4","ticks":137040,"time":228.4,"velocity":0.6299212598425197},{"duration":0.3783333333333303,"durationTicks":227,"midi":77,"name":"F5","ticks":137040,"time":228.4,"velocity":0.6299212598425197},{"duration":0.3783333333333303,"durationTicks":227,"midi":65,"name":"F4","ticks":137520,"time":229.20000000000002,"velocity":0.6299212598425197},{"duration":0.3783333333333303,"durationTicks":227,"midi":77,"name":"F5","ticks":137520,"time":229.20000000000002,"velocity":0.6299212598425197},{"duration":0.3783333333333303,"durationTicks":227,"midi":65,"name":"F4","ticks":138000,"time":230,"velocity":0.6299212598425197},{"duration":0.3783333333333303,"durationTicks":227,"midi":77,"name":"F5","ticks":138000,"time":230,"velocity":0.6299212598425197},{"duration":0.3783333333333303,"durationTicks":227,"midi":65,"name":"F4","ticks":139440,"time":232.4,"velocity":0.6299212598425197},{"duration":0.3783333333333303,"durationTicks":227,"midi":77,"name":"F5","ticks":139440,"time":232.4,"velocity":0.6299212598425197},{"duration":0.3783333333333303,"durationTicks":227,"midi":65,"name":"F4","ticks":139920,"time":233.20000000000002,"velocity":0.6299212598425197},{"duration":0.3783333333333303,"durationTicks":227,"midi":77,"name":"F5","ticks":139920,"time":233.20000000000002,"velocity":0.6299212598425197},{"duration":0.3783333333333303,"durationTicks":227,"midi":58,"name":"A#3","ticks":141360,"time":235.60000000000002,"velocity":0.6299212598425197},{"duration":0.3783333333333303,"durationTicks":227,"midi":70,"name":"A#4","ticks":141360,"time":235.60000000000002,"velocity":0.6299212598425197},{"duration":0.3783333333333303,"durationTicks":227,"midi":65,"name":"F4","ticks":143280,"time":238.8,"velocity":0.6299212598425197},{"duration":0.3783333333333303,"durationTicks":227,"midi":77,"name":"F5","ticks":143280,"time":238.8,"velocity":0.6299212598425197},{"duration":0.3783333333333303,"durationTicks":227,"midi":65,"name":"F4","ticks":143760,"time":239.60000000000002,"velocity":0.6299212598425197},{"duration":0.3783333333333303,"durationTicks":227,"midi":77,"name":"F5","ticks":143760,"time":239.60000000000002,"velocity":0.6299212598425197},{"duration":0.3783333333333303,"durationTicks":227,"midi":65,"name":"F4","ticks":145200,"time":242,"velocity":0.6299212598425197},{"duration":0.3783333333333303,"durationTicks":227,"midi":77,"name":"F5","ticks":145200,"time":242,"velocity":0.6299212598425197},{"duration":0.7583333333333542,"durationTicks":455,"midi":72,"name":"C5","ticks":147120,"time":245.20000000000002,"velocity":0.6299212598425197},{"duration":2.278333333333336,"durationTicks":1367,"midi":81,"name":"A5","ticks":147600,"time":246,"velocity":0.6299212598425197},{"duration":0.3783333333333303,"durationTicks":227,"midi":79,"name":"G5","ticks":149040,"time":248.4,"velocity":0.6299212598425197},{"duration":0.3783333333333303,"durationTicks":227,"midi":77,"name":"F5","ticks":149280,"time":248.8,"velocity":0.6299212598425197},{"duration":0.3783333333333303,"durationTicks":227,"midi":74,"name":"D5","ticks":149520,"time":249.20000000000002,"velocity":0.6299212598425197},{"duration":3.0383333333332985,"durationTicks":1823,"midi":72,"name":"C5","ticks":149760,"time":249.60000000000002,"velocity":0.6299212598425197},{"duration":0.7583333333333826,"durationTicks":455,"midi":72,"name":"C5","ticks":154800,"time":258,"velocity":0.6299212598425197},{"duration":2.2783333333333076,"durationTicks":1367,"midi":81,"name":"A5","ticks":155280,"time":258.8,"velocity":0.6299212598425197},{"duration":0.3783333333333303,"durationTicks":227,"midi":79,"name":"G5","ticks":156720,"time":261.2,"velocity":0.6299212598425197},{"duration":0.3783333333333303,"durationTicks":227,"midi":77,"name":"F5","ticks":156960,"time":261.6,"velocity":0.6299212598425197},{"duration":0.3783333333333303,"durationTicks":227,"midi":74,"name":"D5","ticks":157200,"time":262,"velocity":0.6299212598425197},{"duration":3.0383333333332985,"durationTicks":1823,"midi":72,"name":"C5","ticks":157440,"time":262.40000000000003,"velocity":0.6299212598425197},{"duration":0.7583333333333258,"durationTicks":455,"midi":72,"name":"C5","ticks":162480,"time":270.8,"velocity":0.6299212598425197},{"duration":2.2783333333333076,"durationTicks":1367,"midi":81,"name":"A5","ticks":162960,"time":271.6,"velocity":0.6299212598425197},{"duration":0.3783333333333303,"durationTicks":227,"midi":79,"name":"G5","ticks":164400,"time":274,"velocity":0.6299212598425197},{"duration":0.3783333333333303,"durationTicks":227,"midi":77,"name":"F5","ticks":164640,"time":274.40000000000003,"velocity":0.6299212598425197},{"duration":0.3783333333333303,"durationTicks":227,"midi":74,"name":"D5","ticks":164880,"time":274.8,"velocity":0.6299212598425197},{"duration":3.0383333333333553,"durationTicks":1823,"midi":72,"name":"C5","ticks":165120,"time":275.2,"velocity":0.6299212598425197},{"duration":0.7583333333333258,"durationTicks":455,"midi":60,"name":"C4","ticks":170160,"time":283.6,"velocity":0.6299212598425197},{"duration":2.2783333333333076,"durationTicks":1367,"midi":69,"name":"A4","ticks":170640,"time":284.40000000000003,"velocity":0.6299212598425197},{"duration":0.3783333333333303,"durationTicks":227,"midi":67,"name":"G4","ticks":172080,"time":286.8,"velocity":0.6299212598425197},{"duration":3.0383333333333553,"durationTicks":1823,"midi":65,"name":"F4","ticks":172320,"time":287.2,"velocity":0.6299212598425197},{"duration":0.7583333333333258,"durationTicks":455,"midi":60,"name":"C4","ticks":174240,"time":290.40000000000003,"velocity":0.6299212598425197}]},{"instrument_number":0,"notes":[{"duration":0.7583333333333333,"durationTicks":455,"midi":50,"name":"D3","ticks":0,"time":0,"velocity":0.6299212598425197},{"duration":0.7583333333333333,"durationTicks":455,"midi":53,"name":"F3","ticks":0,"time":0,"velocity":0.6299212598425197},{"duration":0.7583333333333333,"durationTicks":455,"midi":57,"name":"A3","ticks":0,"time":0,"velocity":0.6299212598425197},{"duration":0.7583333333333333,"durationTicks":455,"midi":60,"name":"C4","ticks":0,"time":0,"velocity":0.6299212598425197},{"duration":0.7583333333333335,"durationTicks":455,"midi":50,"name":"D3","ticks":480,"time":0.8,"velocity":0.6299212598425197},{"duration":0.7583333333333335,"durationTicks":455,"midi":53,"name":"F3","ticks":480,"time":0.8,"velocity":0.6299212598425197},{"duration":0.7583333333333335,"durationTicks":455,"midi":57,"name":"A3","ticks":480,"time":0.8,"velocity":0.6299212598425197},{"duration":0.7583333333333335,"durationTicks":455,"midi":60,"name":"C4","ticks":480,"time":0.8,"velocity":0.6299212598425197},{"duration":0.7583333333333333,"durationTicks":455,"midi":50,"name":"D3","ticks":960,"time":1.6,"velocity":0.6299212598425197},{"duration":0.7583333333333333,"durationTicks":455,"midi":53,"name":"F3","ticks":960,"time":1.6,"velocity":0.6299212598425197},{"duration":0.7583333333333333,"durationTicks":455,"midi":57,"name":"A3","ticks":960,"time":1.6,"velocity":0.6299212598425197},{"duration":0.7583333333333333,"durationTicks":455,"midi":60,"name":"C4","ticks":960,"time":1.6,"velocity":0.6299212598425197},{"duration":0.7583333333333329,"durationTicks":455,"midi":50,"name":"D3","ticks":1440,"time":2.4000000000000004,"velocity":0.6299212598425197},{"duration":0.7583333333333329,"durationTicks":455,"midi":53,"name":"F3","ticks":1440,"time":2.4000000000000004,"velocity":0.6299212598425197},{"duration":0.7583333333333329,"durationTicks":455,"midi":57,"name":"A3","ticks":1440,"time":2.4000000000000004,"velocity":0.6299212598425197},{"duration":0.7583333333333329,"durationTicks":455,"midi":60,"name":"C4","ticks":1440,"time":2.4000000000000004,"velocity":0.6299212598425197},{"duration":0.7583333333333337,"durationTicks":455,"midi":46,"name":"A#2","ticks":1920,"time":3.2,"velocity":0.6299212598425197},{"duration":0.7583333333333337,"durationTicks":455,"midi":50,"name":"D3","ticks":1920,"time":3.2,"velocity":0.6299212598425197},{"duration":0.7583333333333337,"durationTicks":455,"midi":53,"name":"F3","ticks":1920,"time":3.2,"velocity":0.6299212598425197},{"duration":0.7583333333333337,"durationTicks":455,"midi":46,"name":"A#2","ticks":2400,"time":4,"velocity":0.6299212598425197},{"duration":0.7583333333333337,"durationTicks":455,"midi":50,"name":"D3","ticks":2400,"time":4,"velocity":0.6299212598425197},{"duration":0.7583333333333337,"durationTicks":455,"midi":53,"name":"F3","ticks":2400,"time":4,"velocity":0.6299212598425197},{"duration":0.7583333333333329,"durationTicks":455,"midi":46,"name":"A#2","ticks":2880,"time":4.800000000000001,"velocity":0.6299212598425197},{"duration":0.7583333333333329,"durationTicks":455,"midi":50,"name":"D3","ticks":2880,"time":4.800000000000001,"velocity":0.6299212598425197},{"duration":0.7583333333333329,"durationTicks":455,"midi":53,"name":"F3","ticks":2880,"time":4.800000000000001,"velocity":0.6299212598425197},{"duration":0.7583333333333337,"durationTicks":455,"midi":46,"name":"A#2","ticks":3360,"time":5.6000000000000005,"velocity":0.6299212598425197},{"duration":0.7583333333333337,"durationTicks":455,"midi":50,"name":"D3","ticks":3360,"time":5.6000000000000005,"velocity":0.6299212598425197},{"duration":0.7583333333333337,"durationTicks":455,"midi":53,"name":"F3","ticks":3360,"time":5.6000000000000005,"velocity":0.6299212598425197},{"duration":0.7583333333333329,"durationTicks":455,"midi":48,"name":"C3","ticks":3840,"time":6.4,"velocity":0.6299212598425197},{"duration":0.7583333333333329,"durationTicks":455,"midi":53,"name":"F3","ticks":3840,"time":6.4,"velocity":0.6299212598425197},{"duration":0.7583333333333329,"durationTicks":455,"midi":57,"name":"A3","ticks":3840,"time":6.4,"velocity":0.6299212598425197},{"duration":0.7583333333333329,"durationTicks":455,"midi":48,"name":"C3","ticks":4320,"time":7.2,"velocity":0.6299212598425197},{"duration":0.7583333333333329,"durationTicks":455,"midi":53,"name":"F3","ticks":4320,"time":7.2,"velocity":0.6299212598425197},{"duration":0.7583333333333329,"durationTicks":455,"midi":57,"name":"A3","ticks":4320,"time":7.2,"velocity":0.6299212598425197},{"duration":0.7583333333333329,"durationTicks":455,"midi":48,"name":"C3","ticks":4800,"time":8,"velocity":0.6299212598425197},{"duration":0.7583333333333329,"durationTicks":455,"midi":53,"name":"F3","ticks":4800,"time":8,"velocity":0.6299212598425197},{"duration":0.7583333333333329,"durationTicks":455,"midi":57,"name":"A3","ticks":4800,"time":8,"velocity":0.6299212598425197},{"duration":0.7583333333333329,"durationTicks":455,"midi":48,"name":"C3","ticks":5280,"time":8.8,"velocity":0.6299212598425197},{"duration":0.7583333333333329,"durationTicks":455,"midi":53,"name":"F3","ticks":5280,"time":8.8,"velocity":0.6299212598425197},{"duration":0.7583333333333329,"durationTicks":455,"midi":57,"name":"A3","ticks":5280,"time":8.8,"velocity":0.6299212598425197},{"duration":0.7583333333333329,"durationTicks":455,"midi":48,"name":"C3","ticks":5760,"time":9.600000000000001,"velocity":0.6299212598425197},{"duration":0.7583333333333329,"durationTicks":455,"midi":53,"name":"F3","ticks":5760,"time":9.600000000000001,"velocity":0.6299212598425197},{"duration":0.7583333333333329,"durationTicks":455,"midi":55,"name":"G3","ticks":5760,"time":9.600000000000001,"velocity":0.6299212598425197},{"duration":0.7583333333333329,"durationTicks":455,"midi":48,"name":"C3","ticks":6240,"time":10.4,"velocity":0.6299212598425197},{"duration":0.7583333333333329,"durationTicks":455,"midi":53,"name":"F3","ticks":6240,"time":10.4,"velocity":0.6299212598425197},{"duration":0.7583333333333329,"durationTicks":455,"midi":55,"name":"G3","ticks":6240,"time":10.4,"velocity":0.6299212598425197},{"duration":0.7583333333333329,"durationTicks":455,"midi":48,"name":"C3","ticks":6720,"time":11.200000000000001,"velocity":0.6299212598425197},{"duration":0.7583333333333329,"durationTicks":455,"midi":53,"name":"F3","ticks":6720,"time":11.200000000000001,"velocity":0.6299212598425197},{"duration":0.7583333333333329,"durationTicks":455,"midi":55,"name":"G3","ticks":6720,"time":11.200000000000001,"velocity":0.6299212598425197},{"duration":0.7583333333333329,"durationTicks":455,"midi":48,"name":"C3","ticks":7200,"time":12,"velocity":0.6299212598425197},{"duration":0.7583333333333329,"durationTicks":455,"midi":53,"name":"F3","ticks":7200,"time":12,"velocity":0.6299212598425197},{"duration":0.7583333333333329,"durationTicks":455,"midi":55,"name":"G3","ticks":7200,"time":12,"velocity":0.6299212598425197},{"duration":0.7583333333333346,"durationTicks":455,"midi":50,"name":"D3","ticks":7680,"time":12.8,"velocity":0.6299212598425197},{"duration":0.7583333333333346,"durationTicks":455,"midi":53,"name":"F3","ticks":7680,"time":12.8,"velocity":0.6299212598425197},{"duration":0.7583333333333346,"durationTicks":455,"midi":57,"name":"A3","ticks":7680,"time":12.8,"velocity":0.6299212598425197},{"duration":0.7583333333333346,"durationTicks":455,"midi":60,"name":"C4","ticks":7680,"time":12.8,"velocity":0.6299212598425197},{"duration":0.7583333333333329,"durationTicks":455,"midi":50,"name":"D3","ticks":8160,"time":13.600000000000001,"velocity":0.6299212598425197},{"duration":0.7583333333333329,"durationTicks":455,"midi":53,"name":"F3","ticks":8160,"time":13.600000000000001,"velocity":0.6299212598425197},{"duration":0.7583333333333329,"durationTicks":455,"midi":57,"name":"A3","ticks":8160,"time":13.600000000000001,"velocity":0.6299212598425197},{"duration":0.7583333333333329,"durationTicks":455,"midi":60,"name":"C4","ticks":8160,"time":13.600000000000001,"velocity":0.6299212598425197},{"duration":0.7583333333333346,"durationTicks":455,"midi":50,"name":"D3","ticks":8640,"time":14.4,"velocity":0.6299212598425197},{"duration":0.7583333333333346,"durationTicks":455,"midi":53,"name":"F3","ticks":8640,"time":14.4,"velocity":0.6299212598425197},{"duration":0.7583333333333346,"durationTicks":455,"midi":57,"name":"A3","ticks":8640,"time":14.4,"velocity":0.6299212598425197},{"duration":0.7583333333333346,"durationTicks":455,"midi":60,"name":"C4","ticks":8640,"time":14.4,"velocity":0.6299212598425197},{"duration":0.7583333333333346,"durationTicks":455,"midi":50,"name":"D3","ticks":9120,"time":15.200000000000001,"velocity":0.6299212598425197},{"duration":0.7583333333333346,"durationTicks":455,"midi":53,"name":"F3","ticks":9120,"time":15.200000000000001,"velocity":0.6299212598425197},{"duration":0.7583333333333346,"durationTicks":455,"midi":57,"name":"A3","ticks":9120,"time":15.200000000000001,"velocity":0.6299212598425197},{"duration":0.7583333333333346,"durationTicks":455,"midi":60,"name":"C4","ticks":9120,"time":15.200000000000001,"velocity":0.6299212598425197},{"duration":0.7583333333333364,"durationTicks":455,"midi":46,"name":"A#2","ticks":9600,"time":16,"velocity":0.6299212598425197},{"duration":0.7583333333333364,"durationTicks":455,"midi":50,"name":"D3","ticks":9600,"time":16,"velocity":0.6299212598425197},{"duration":0.7583333333333364,"durationTicks":455,"midi":53,"name":"F3","ticks":9600,"time":16,"velocity":0.6299212598425197},{"duration":0.7583333333333329,"durationTicks":455,"midi":46,"name":"A#2","ticks":10080,"time":16.8,"velocity":0.6299212598425197},{"duration":0.7583333333333329,"durationTicks":455,"midi":50,"name":"D3","ticks":10080,"time":16.8,"velocity":0.6299212598425197},{"duration":0.7583333333333329,"durationTicks":455,"midi":53,"name":"F3","ticks":10080,"time":16.8,"velocity":0.6299212598425197},{"duration":0.7583333333333329,"durationTicks":455,"midi":46,"name":"A#2","ticks":10560,"time":17.6,"velocity":0.6299212598425197},{"duration":0.7583333333333329,"durationTicks":455,"midi":50,"name":"D3","ticks":10560,"time":17.6,"velocity":0.6299212598425197},{"duration":0.7583333333333329,"durationTicks":455,"midi":53,"name":"F3","ticks":10560,"time":17.6,"velocity":0.6299212598425197},{"duration":0.7583333333333329,"durationTicks":455,"midi":46,"name":"A#2","ticks":11040,"time":18.400000000000002,"velocity":0.6299212598425197},{"duration":0.7583333333333329,"durationTicks":455,"midi":50,"name":"D3","ticks":11040,"time":18.400000000000002,"velocity":0.6299212598425197},{"duration":0.7583333333333329,"durationTicks":455,"midi":53,"name":"F3","ticks":11040,"time":18.400000000000002,"velocity":0.6299212598425197},{"duration":0.7583333333333329,"durationTicks":455,"midi":48,"name":"C3","ticks":11520,"time":19.200000000000003,"velocity":0.6299212598425197},{"duration":0.7583333333333329,"durationTicks":455,"midi":53,"name":"F3","ticks":11520,"time":19.200000000000003,"velocity":0.6299212598425197},{"duration":0.7583333333333329,"durationTicks":455,"midi":57,"name":"A3","ticks":11520,"time":19.200000000000003,"velocity":0.6299212598425197},{"duration":0.7583333333333364,"durationTicks":455,"midi":48,"name":"C3","ticks":12000,"time":20,"velocity":0.6299212598425197},{"duration":0.7583333333333364,"durationTicks":455,"midi":53,"name":"F3","ticks":12000,"time":20,"velocity":0.6299212598425197},{"duration":0.7583333333333364,"durationTicks":455,"midi":57,"name":"A3","ticks":12000,"time":20,"velocity":0.6299212598425197},{"duration":0.7583333333333364,"durationTicks":455,"midi":48,"name":"C3","ticks":12480,"time":20.8,"velocity":0.6299212598425197},{"duration":0.7583333333333364,"durationTicks":455,"midi":53,"name":"F3","ticks":12480,"time":20.8,"velocity":0.6299212598425197},{"duration":0.7583333333333364,"durationTicks":455,"midi":57,"name":"A3","ticks":12480,"time":20.8,"velocity":0.6299212598425197},{"duration":0.7583333333333329,"durationTicks":455,"midi":48,"name":"C3","ticks":12960,"time":21.6,"velocity":0.6299212598425197},{"duration":0.7583333333333329,"durationTicks":455,"midi":53,"name":"F3","ticks":12960,"time":21.6,"velocity":0.6299212598425197},{"duration":0.7583333333333329,"durationTicks":455,"midi":57,"name":"A3","ticks":12960,"time":21.6,"velocity":0.6299212598425197},{"duration":0.7583333333333329,"durationTicks":455,"midi":48,"name":"C3","ticks":13440,"time":22.400000000000002,"velocity":0.6299212598425197},{"duration":0.7583333333333329,"durationTicks":455,"midi":53,"name":"F3","ticks":13440,"time":22.400000000000002,"velocity":0.6299212598425197},{"duration":0.7583333333333329,"durationTicks":455,"midi":55,"name":"G3","ticks":13440,"time":22.400000000000002,"velocity":0.6299212598425197},{"duration":0.7583333333333329,"durationTicks":455,"midi":48,"name":"C3","ticks":13920,"time":23.200000000000003,"velocity":0.6299212598425197},{"duration":0.7583333333333329,"durationTicks":455,"midi":53,"name":"F3","ticks":13920,"time":23.200000000000003,"velocity":0.6299212598425197},{"duration":0.7583333333333329,"durationTicks":455,"midi":55,"name":"G3","ticks":13920,"time":23.200000000000003,"velocity":0.6299212598425197},{"duration":0.7583333333333364,"durationTicks":455,"midi":48,"name":"C3","ticks":14400,"time":24,"velocity":0.6299212598425197},{"duration":0.7583333333333364,"durationTicks":455,"midi":53,"name":"F3","ticks":14400,"time":24,"velocity":0.6299212598425197},{"duration":0.7583333333333364,"durationTicks":455,"midi":55,"name":"G3","ticks":14400,"time":24,"velocity":0.6299212598425197},{"duration":0.7583333333333364,"durationTicks":455,"midi":48,"name":"C3","ticks":14880,"time":24.8,"velocity":0.6299212598425197},{"duration":0.7583333333333364,"durationTicks":455,"midi":53,"name":"F3","ticks":14880,"time":24.8,"velocity":0.6299212598425197},{"duration":0.7583333333333364,"durationTicks":455,"midi":55,"name":"G3","ticks":14880,"time":24.8,"velocity":0.6299212598425197},{"duration":0.7583333333333329,"durationTicks":455,"midi":50,"name":"D3","ticks":15360,"time":25.6,"velocity":0.6299212598425197},{"duration":0.7583333333333329,"durationTicks":455,"midi":53,"name":"F3","ticks":15360,"time":25.6,"velocity":0.6299212598425197},{"duration":0.7583333333333329,"durationTicks":455,"midi":57,"name":"A3","ticks":15360,"time":25.6,"velocity":0.6299212598425197},{"duration":0.7583333333333329,"durationTicks":455,"midi":60,"name":"C4","ticks":15360,"time":25.6,"velocity":0.6299212598425197},{"duration":0.7583333333333293,"durationTicks":455,"midi":50,"name":"D3","ticks":15840,"time":26.400000000000002,"velocity":0.6299212598425197},{"duration":0.7583333333333293,"durationTicks":455,"midi":53,"name":"F3","ticks":15840,"time":26.400000000000002,"velocity":0.6299212598425197},{"duration":0.7583333333333293,"durationTicks":455,"midi":57,"name":"A3","ticks":15840,"time":26.400000000000002,"velocity":0.6299212598425197},{"duration":0.7583333333333293,"durationTicks":455,"midi":60,"name":"C4","ticks":15840,"time":26.400000000000002,"velocity":0.6299212598425197},{"duration":0.7583333333333293,"durationTicks":455,"midi":50,"name":"D3","ticks":16320,"time":27.200000000000003,"velocity":0.6299212598425197},{"duration":0.7583333333333293,"durationTicks":455,"midi":53,"name":"F3","ticks":16320,"time":27.200000000000003,"velocity":0.6299212598425197},{"duration":0.7583333333333293,"durationTicks":455,"midi":57,"name":"A3","ticks":16320,"time":27.200000000000003,"velocity":0.6299212598425197},{"duration":0.7583333333333293,"durationTicks":455,"midi":60,"name":"C4","ticks":16320,"time":27.200000000000003,"velocity":0.6299212598425197},{"duration":0.7583333333333329,"durationTicks":455,"midi":50,"name":"D3","ticks":16800,"time":28,"velocity":0.6299212598425197},{"duration":0.7583333333333329,"durationTicks":455,"midi":53,"name":"F3","ticks":16800,"time":28,"velocity":0.6299212598425197},{"duration":0.7583333333333329,"durationTicks":455,"midi":57,"name":"A3","ticks":16800,"time":28,"velocity":0.6299212598425197},{"duration":0.7583333333333329,"durationTicks":455,"midi":60,"name":"C4","ticks":16800,"time":28,"velocity":0.6299212598425197},{"duration":0.7583333333333329,"durationTicks":455,"midi":46,"name":"A#2","ticks":17280,"time":28.8,"velocity":0.6299212598425197},{"duration":0.7583333333333329,"durationTicks":455,"midi":50,"name":"D3","ticks":17280,"time":28.8,"velocity":0.6299212598425197},{"duration":0.7583333333333329,"durationTicks":455,"midi":53,"name":"F3","ticks":17280,"time":28.8,"velocity":0.6299212598425197},{"duration":0.7583333333333329,"durationTicks":455,"midi":46,"name":"A#2","ticks":17760,"time":29.6,"velocity":0.6299212598425197},{"duration":0.7583333333333329,"durationTicks":455,"midi":50,"name":"D3","ticks":17760,"time":29.6,"velocity":0.6299212598425197},{"duration":0.7583333333333329,"durationTicks":455,"midi":53,"name":"F3","ticks":17760,"time":29.6,"velocity":0.6299212598425197},{"duration":0.7583333333333293,"durationTicks":455,"midi":46,"name":"A#2","ticks":18240,"time":30.400000000000002,"velocity":0.6299212598425197},{"duration":0.7583333333333293,"durationTicks":455,"midi":50,"name":"D3","ticks":18240,"time":30.400000000000002,"velocity":0.6299212598425197},{"duration":0.7583333333333293,"durationTicks":455,"midi":53,"name":"F3","ticks":18240,"time":30.400000000000002,"velocity":0.6299212598425197},{"duration":0.7583333333333293,"durationTicks":455,"midi":46,"name":"A#2","ticks":18720,"time":31.200000000000003,"velocity":0.6299212598425197},{"duration":0.7583333333333293,"durationTicks":455,"midi":50,"name":"D3","ticks":18720,"time":31.200000000000003,"velocity":0.6299212598425197},{"duration":0.7583333333333293,"durationTicks":455,"midi":53,"name":"F3","ticks":18720,"time":31.200000000000003,"velocity":0.6299212598425197},{"duration":0.7583333333333329,"durationTicks":455,"midi":53,"name":"F3","ticks":19200,"time":32,"velocity":0.6299212598425197},{"duration":0.7583333333333329,"durationTicks":455,"midi":57,"name":"A3","ticks":19200,"time":32,"velocity":0.6299212598425197},{"duration":0.7583333333333329,"durationTicks":455,"midi":60,"name":"C4","ticks":19200,"time":32,"velocity":0.6299212598425197},{"duration":0.7583333333333258,"durationTicks":455,"midi":53,"name":"F3","ticks":19680,"time":32.800000000000004,"velocity":0.6299212598425197},{"duration":0.7583333333333258,"durationTicks":455,"midi":57,"name":"A3","ticks":19680,"time":32.800000000000004,"velocity":0.6299212598425197},{"duration":0.7583333333333258,"durationTicks":455,"midi":60,"name":"C4","ticks":19680,"time":32.800000000000004,"velocity":0.6299212598425197},{"duration":0.7583333333333329,"durationTicks":455,"midi":53,"name":"F3","ticks":20160,"time":33.6,"velocity":0.6299212598425197},{"duration":0.7583333333333329,"durationTicks":455,"midi":57,"name":"A3","ticks":20160,"time":33.6,"velocity":0.6299212598425197},{"duration":0.7583333333333329,"durationTicks":455,"midi":60,"name":"C4","ticks":20160,"time":33.6,"velocity":0.6299212598425197},{"duration":0.7583333333333329,"durationTicks":455,"midi":53,"name":"F3","ticks":20640,"time":34.4,"velocity":0.6299212598425197},{"duration":0.7583333333333329,"durationTicks":455,"midi":57,"name":"A3","ticks":20640,"time":34.4,"velocity":0.6299212598425197},{"duration":0.7583333333333329,"durationTicks":455,"midi":60,"name":"C4","ticks":20640,"time":34.4,"velocity":0.6299212598425197},{"duration":0.7583333333333329,"durationTicks":455,"midi":53,"name":"F3","ticks":21120,"time":35.2,"velocity":0.6299212598425197},{"duration":0.7583333333333329,"durationTicks":455,"midi":55,"name":"G3","ticks":21120,"time":35.2,"velocity":0.6299212598425197},{"duration":0.7583333333333329,"durationTicks":455,"midi":60,"name":"C4","ticks":21120,"time":35.2,"velocity":0.6299212598425197},{"duration":0.7583333333333329,"durationTicks":455,"midi":53,"name":"F3","ticks":21600,"time":36,"velocity":0.6299212598425197},{"duration":0.7583333333333329,"durationTicks":455,"midi":55,"name":"G3","ticks":21600,"time":36,"velocity":0.6299212598425197},{"duration":0.7583333333333329,"durationTicks":455,"midi":60,"name":"C4","ticks":21600,"time":36,"velocity":0.6299212598425197},{"duration":0.7583333333333258,"durationTicks":455,"midi":53,"name":"F3","ticks":22080,"time":36.800000000000004,"velocity":0.6299212598425197},{"duration":0.7583333333333258,"durationTicks":455,"midi":55,"name":"G3","ticks":22080,"time":36.800000000000004,"velocity":0.6299212598425197},{"duration":0.7583333333333258,"durationTicks":455,"midi":60,"name":"C4","ticks":22080,"time":36.800000000000004,"velocity":0.6299212598425197},{"duration":0.7583333333333329,"durationTicks":455,"midi":53,"name":"F3","ticks":22560,"time":37.6,"velocity":0.6299212598425197},{"duration":0.7583333333333329,"durationTicks":455,"midi":55,"name":"G3","ticks":22560,"time":37.6,"velocity":0.6299212598425197},{"duration":0.7583333333333329,"durationTicks":455,"midi":60,"name":"C4","ticks":22560,"time":37.6,"velocity":0.6299212598425197},{"duration":0.7583333333333258,"durationTicks":455,"midi":50,"name":"D3","ticks":23040,"time":38.400000000000006,"velocity":0.6299212598425197},{"duration":0.7583333333333258,"durationTicks":455,"midi":53,"name":"F3","ticks":23040,"time":38.400000000000006,"velocity":0.6299212598425197},{"duration":0.7583333333333258,"durationTicks":455,"midi":57,"name":"A3","ticks":23040,"time":38.400000000000006,"velocity":0.6299212598425197},{"duration":0.7583333333333258,"durationTicks":455,"midi":60,"name":"C4","ticks":23040,"time":38.400000000000006,"velocity":0.6299212598425197},{"duration":0.7583333333333329,"durationTicks":455,"midi":50,"name":"D3","ticks":23520,"time":39.2,"velocity":0.6299212598425197},{"duration":0.7583333333333329,"durationTicks":455,"midi":53,"name":"F3","ticks":23520,"time":39.2,"velocity":0.6299212598425197},{"duration":0.7583333333333329,"durationTicks":455,"midi":57,"name":"A3","ticks":23520,"time":39.2,"velocity":0.6299212598425197},{"duration":0.7583333333333329,"durationTicks":455,"midi":60,"name":"C4","ticks":23520,"time":39.2,"velocity":0.6299212598425197},{"duration":0.7583333333333329,"durationTicks":455,"midi":50,"name":"D3","ticks":24000,"time":40,"velocity":0.6299212598425197},{"duration":0.7583333333333329,"durationTicks":455,"midi":53,"name":"F3","ticks":24000,"time":40,"velocity":0.6299212598425197},{"duration":0.7583333333333329,"durationTicks":455,"midi":57,"name":"A3","ticks":24000,"time":40,"velocity":0.6299212598425197},{"duration":0.7583333333333329,"durationTicks":455,"midi":60,"name":"C4","ticks":24000,"time":40,"velocity":0.6299212598425197},{"duration":0.7583333333333329,"durationTicks":455,"midi":50,"name":"D3","ticks":24480,"time":40.800000000000004,"velocity":0.6299212598425197},{"duration":0.7583333333333329,"durationTicks":455,"midi":53,"name":"F3","ticks":24480,"time":40.800000000000004,"velocity":0.6299212598425197},{"duration":0.7583333333333329,"durationTicks":455,"midi":57,"name":"A3","ticks":24480,"time":40.800000000000004,"velocity":0.6299212598425197},{"duration":0.7583333333333329,"durationTicks":455,"midi":60,"name":"C4","ticks":24480,"time":40.800000000000004,"velocity":0.6299212598425197},{"duration":0.7583333333333329,"durationTicks":455,"midi":46,"name":"A#2","ticks":24960,"time":41.6,"velocity":0.6299212598425197},{"duration":0.7583333333333329,"durationTicks":455,"midi":50,"name":"D3","ticks":24960,"time":41.6,"velocity":0.6299212598425197},{"duration":0.7583333333333329,"durationTicks":455,"midi":53,"name":"F3","ticks":24960,"time":41.6,"velocity":0.6299212598425197},{"duration":0.7583333333333258,"durationTicks":455,"midi":46,"name":"A#2","ticks":25440,"time":42.400000000000006,"velocity":0.6299212598425197},{"duration":0.7583333333333258,"durationTicks":455,"midi":50,"name":"D3","ticks":25440,"time":42.400000000000006,"velocity":0.6299212598425197},{"duration":0.7583333333333258,"durationTicks":455,"midi":53,"name":"F3","ticks":25440,"time":42.400000000000006,"velocity":0.6299212598425197},{"duration":0.7583333333333329,"durationTicks":455,"midi":46,"name":"A#2","ticks":25920,"time":43.2,"velocity":0.6299212598425197},{"duration":0.7583333333333329,"durationTicks":455,"midi":50,"name":"D3","ticks":25920,"time":43.2,"velocity":0.6299212598425197},{"duration":0.7583333333333329,"durationTicks":455,"midi":53,"name":"F3","ticks":25920,"time":43.2,"velocity":0.6299212598425197},{"duration":0.7583333333333329,"durationTicks":455,"midi":46,"name":"A#2","ticks":26400,"time":44,"velocity":0.6299212598425197},{"duration":0.7583333333333329,"durationTicks":455,"midi":50,"name":"D3","ticks":26400,"time":44,"velocity":0.6299212598425197},{"duration":0.7583333333333329,"durationTicks":455,"midi":53,"name":"F3","ticks":26400,"time":44,"velocity":0.6299212598425197},{"duration":0.7583333333333329,"durationTicks":455,"midi":53,"name":"F3","ticks":26880,"time":44.800000000000004,"velocity":0.6299212598425197},{"duration":0.7583333333333329,"durationTicks":455,"midi":57,"name":"A3","ticks":26880,"time":44.800000000000004,"velocity":0.6299212598425197},{"duration":0.7583333333333329,"durationTicks":455,"midi":60,"name":"C4","ticks":26880,"time":44.800000000000004,"velocity":0.6299212598425197},{"duration":0.7583333333333329,"durationTicks":455,"midi":53,"name":"F3","ticks":27360,"time":45.6,"velocity":0.6299212598425197},{"duration":0.7583333333333329,"durationTicks":455,"midi":57,"name":"A3","ticks":27360,"time":45.6,"velocity":0.6299212598425197},{"duration":0.7583333333333329,"durationTicks":455,"midi":60,"name":"C4","ticks":27360,"time":45.6,"velocity":0.6299212598425197},{"duration":0.7583333333333258,"durationTicks":455,"midi":53,"name":"F3","ticks":27840,"time":46.400000000000006,"velocity":0.6299212598425197},{"duration":0.7583333333333258,"durationTicks":455,"midi":57,"name":"A3","ticks":27840,"time":46.400000000000006,"velocity":0.6299212598425197},{"duration":0.7583333333333258,"durationTicks":455,"midi":60,"name":"C4","ticks":27840,"time":46.400000000000006,"velocity":0.6299212598425197},{"duration":0.7583333333333329,"durationTicks":455,"midi":53,"name":"F3","ticks":28320,"time":47.2,"velocity":0.6299212598425197},{"duration":0.7583333333333329,"durationTicks":455,"midi":57,"name":"A3","ticks":28320,"time":47.2,"velocity":0.6299212598425197},{"duration":0.7583333333333329,"durationTicks":455,"midi":60,"name":"C4","ticks":28320,"time":47.2,"velocity":0.6299212598425197},{"duration":0.7583333333333329,"durationTicks":455,"midi":53,"name":"F3","ticks":28800,"time":48,"velocity":0.6299212598425197},{"duration":0.7583333333333329,"durationTicks":455,"midi":55,"name":"G3","ticks":28800,"time":48,"velocity":0.6299212598425197},{"duration":0.7583333333333329,"durationTicks":455,"midi":60,"name":"C4","ticks":28800,"time":48,"velocity":0.6299212598425197},{"duration":0.7583333333333329,"durationTicks":455,"midi":53,"name":"F3","ticks":29280,"time":48.800000000000004,"velocity":0.6299212598425197},{"duration":0.7583333333333329,"durationTicks":455,"midi":55,"name":"G3","ticks":29280,"time":48.800000000000004,"velocity":0.6299212598425197},{"duration":0.7583333333333329,"durationTicks":455,"midi":60,"name":"C4","ticks":29280,"time":48.800000000000004,"velocity":0.6299212598425197},{"duration":0.7583333333333329,"durationTicks":455,"midi":53,"name":"F3","ticks":29760,"time":49.6,"velocity":0.6299212598425197},{"duration":0.7583333333333329,"durationTicks":455,"midi":55,"name":"G3","ticks":29760,"time":49.6,"velocity":0.6299212598425197},{"duration":0.7583333333333329,"durationTicks":455,"midi":60,"name":"C4","ticks":29760,"time":49.6,"velocity":0.6299212598425197},{"duration":0.7583333333333258,"durationTicks":455,"midi":53,"name":"F3","ticks":30240,"time":50.400000000000006,"velocity":0.6299212598425197},{"duration":0.7583333333333258,"durationTicks":455,"midi":55,"name":"G3","ticks":30240,"time":50.400000000000006,"velocity":0.6299212598425197},{"duration":0.7583333333333258,"durationTicks":455,"midi":60,"name":"C4","ticks":30240,"time":50.400000000000006,"velocity":0.6299212598425197},{"duration":0.7583333333333258,"durationTicks":455,"midi":64,"name":"E4","ticks":30240,"time":50.400000000000006,"velocity":0.6299212598425197},{"duration":0.75833333333334,"durationTicks":455,"midi":50,"name":"D3","ticks":30720,"time":51.2,"velocity":0.6299212598425197},{"duration":0.75833333333334,"durationTicks":455,"midi":53,"name":"F3","ticks":30720,"time":51.2,"velocity":0.6299212598425197},{"duration":0.75833333333334,"durationTicks":455,"midi":57,"name":"A3","ticks":30720,"time":51.2,"velocity":0.6299212598425197},{"duration":0.75833333333334,"durationTicks":455,"midi":60,"name":"C4","ticks":30720,"time":51.2,"velocity":0.6299212598425197},{"duration":0.75833333333334,"durationTicks":455,"midi":50,"name":"D3","ticks":31200,"time":52,"velocity":0.6299212598425197},{"duration":0.75833333333334,"durationTicks":455,"midi":53,"name":"F3","ticks":31200,"time":52,"velocity":0.6299212598425197},{"duration":0.75833333333334,"durationTicks":455,"midi":57,"name":"A3","ticks":31200,"time":52,"velocity":0.6299212598425197},{"duration":0.75833333333334,"durationTicks":455,"midi":60,"name":"C4","ticks":31200,"time":52,"velocity":0.6299212598425197},{"duration":0.7583333333333329,"durationTicks":455,"midi":50,"name":"D3","ticks":31680,"time":52.800000000000004,"velocity":0.6299212598425197},{"duration":0.7583333333333329,"durationTicks":455,"midi":53,"name":"F3","ticks":31680,"time":52.800000000000004,"velocity":0.6299212598425197},{"duration":0.7583333333333329,"durationTicks":455,"midi":57,"name":"A3","ticks":31680,"time":52.800000000000004,"velocity":0.6299212598425197},{"duration":0.7583333333333329,"durationTicks":455,"midi":60,"name":"C4","ticks":31680,"time":52.800000000000004,"velocity":0.6299212598425197},{"duration":0.75833333333334,"durationTicks":455,"midi":50,"name":"D3","ticks":32160,"time":53.6,"velocity":0.6299212598425197},{"duration":0.75833333333334,"durationTicks":455,"midi":53,"name":"F3","ticks":32160,"time":53.6,"velocity":0.6299212598425197},{"duration":0.75833333333334,"durationTicks":455,"midi":57,"name":"A3","ticks":32160,"time":53.6,"velocity":0.6299212598425197},{"duration":0.75833333333334,"durationTicks":455,"midi":60,"name":"C4","ticks":32160,"time":53.6,"velocity":0.6299212598425197},{"duration":0.7583333333333329,"durationTicks":455,"midi":46,"name":"A#2","ticks":32640,"time":54.400000000000006,"velocity":0.6299212598425197},{"duration":0.7583333333333329,"durationTicks":455,"midi":50,"name":"D3","ticks":32640,"time":54.400000000000006,"velocity":0.6299212598425197},{"duration":0.7583333333333329,"durationTicks":455,"midi":53,"name":"F3","ticks":32640,"time":54.400000000000006,"velocity":0.6299212598425197},{"duration":0.75833333333334,"durationTicks":455,"midi":46,"name":"A#2","ticks":33120,"time":55.2,"velocity":0.6299212598425197},{"duration":0.75833333333334,"durationTicks":455,"midi":50,"name":"D3","ticks":33120,"time":55.2,"velocity":0.6299212598425197},{"duration":0.75833333333334,"durationTicks":455,"midi":53,"name":"F3","ticks":33120,"time":55.2,"velocity":0.6299212598425197},{"duration":0.75833333333334,"durationTicks":455,"midi":46,"name":"A#2","ticks":33600,"time":56,"velocity":0.6299212598425197},{"duration":0.75833333333334,"durationTicks":455,"midi":50,"name":"D3","ticks":33600,"time":56,"velocity":0.6299212598425197},{"duration":0.75833333333334,"durationTicks":455,"midi":53,"name":"F3","ticks":33600,"time":56,"velocity":0.6299212598425197},{"duration":0.7583333333333329,"durationTicks":455,"midi":46,"name":"A#2","ticks":34080,"time":56.800000000000004,"velocity":0.6299212598425197},{"duration":0.7583333333333329,"durationTicks":455,"midi":50,"name":"D3","ticks":34080,"time":56.800000000000004,"velocity":0.6299212598425197},{"duration":0.7583333333333329,"durationTicks":455,"midi":53,"name":"F3","ticks":34080,"time":56.800000000000004,"velocity":0.6299212598425197},{"duration":0.75833333333334,"durationTicks":455,"midi":53,"name":"F3","ticks":34560,"time":57.6,"velocity":0.6299212598425197},{"duration":0.75833333333334,"durationTicks":455,"midi":57,"name":"A3","ticks":34560,"time":57.6,"velocity":0.6299212598425197},{"duration":0.75833333333334,"durationTicks":455,"midi":60,"name":"C4","ticks":34560,"time":57.6,"velocity":0.6299212598425197},{"duration":0.7583333333333329,"durationTicks":455,"midi":53,"name":"F3","ticks":35040,"time":58.400000000000006,"velocity":0.6299212598425197},{"duration":0.7583333333333329,"durationTicks":455,"midi":57,"name":"A3","ticks":35040,"time":58.400000000000006,"velocity":0.6299212598425197},{"duration":0.7583333333333329,"durationTicks":455,"midi":60,"name":"C4","ticks":35040,"time":58.400000000000006,"velocity":0.6299212598425197},{"duration":0.75833333333334,"durationTicks":455,"midi":53,"name":"F3","ticks":35520,"time":59.2,"velocity":0.6299212598425197},{"duration":0.75833333333334,"durationTicks":455,"midi":57,"name":"A3","ticks":35520,"time":59.2,"velocity":0.6299212598425197},{"duration":0.75833333333334,"durationTicks":455,"midi":60,"name":"C4","ticks":35520,"time":59.2,"velocity":0.6299212598425197},{"duration":0.75833333333334,"durationTicks":455,"midi":53,"name":"F3","ticks":36000,"time":60,"velocity":0.6299212598425197},{"duration":0.75833333333334,"durationTicks":455,"midi":57,"name":"A3","ticks":36000,"time":60,"velocity":0.6299212598425197},{"duration":0.75833333333334,"durationTicks":455,"midi":60,"name":"C4","ticks":36000,"time":60,"velocity":0.6299212598425197},{"duration":0.7583333333333329,"durationTicks":455,"midi":53,"name":"F3","ticks":36480,"time":60.800000000000004,"velocity":0.6299212598425197},{"duration":0.7583333333333329,"durationTicks":455,"midi":55,"name":"G3","ticks":36480,"time":60.800000000000004,"velocity":0.6299212598425197},{"duration":0.7583333333333329,"durationTicks":455,"midi":60,"name":"C4","ticks":36480,"time":60.800000000000004,"velocity":0.6299212598425197},{"duration":0.75833333333334,"durationTicks":455,"midi":53,"name":"F3","ticks":36960,"time":61.6,"velocity":0.6299212598425197},{"duration":0.75833333333334,"durationTicks":455,"midi":55,"name":"G3","ticks":36960,"time":61.6,"velocity":0.6299212598425197},{"duration":0.75833333333334,"durationTicks":455,"midi":60,"name":"C4","ticks":36960,"time":61.6,"velocity":0.6299212598425197},{"duration":0.7583333333333329,"durationTicks":455,"midi":53,"name":"F3","ticks":37440,"time":62.400000000000006,"velocity":0.6299212598425197},{"duration":0.7583333333333329,"durationTicks":455,"midi":55,"name":"G3","ticks":37440,"time":62.400000000000006,"velocity":0.6299212598425197},{"duration":0.7583333333333329,"durationTicks":455,"midi":60,"name":"C4","ticks":37440,"time":62.400000000000006,"velocity":0.6299212598425197},{"duration":0.75833333333334,"durationTicks":455,"midi":53,"name":"F3","ticks":37920,"time":63.2,"velocity":0.6299212598425197},{"duration":0.75833333333334,"durationTicks":455,"midi":55,"name":"G3","ticks":37920,"time":63.2,"velocity":0.6299212598425197},{"duration":0.75833333333334,"durationTicks":455,"midi":60,"name":"C4","ticks":37920,"time":63.2,"velocity":0.6299212598425197},{"duration":0.75833333333334,"durationTicks":455,"midi":64,"name":"E4","ticks":37920,"time":63.2,"velocity":0.6299212598425197},{"duration":0.75833333333334,"durationTicks":455,"midi":50,"name":"D3","ticks":38400,"time":64,"velocity":0.6299212598425197},{"duration":0.75833333333334,"durationTicks":455,"midi":53,"name":"F3","ticks":38400,"time":64,"velocity":0.6299212598425197},{"duration":0.75833333333334,"durationTicks":455,"midi":57,"name":"A3","ticks":38400,"time":64,"velocity":0.6299212598425197},{"duration":0.75833333333334,"durationTicks":455,"midi":60,"name":"C4","ticks":38400,"time":64,"velocity":0.6299212598425197},{"duration":0.75833333333334,"durationTicks":455,"midi":50,"name":"D3","ticks":38880,"time":64.8,"velocity":0.6299212598425197},{"duration":0.75833333333334,"durationTicks":455,"midi":53,"name":"F3","ticks":38880,"time":64.8,"velocity":0.6299212598425197},{"duration":0.75833333333334,"durationTicks":455,"midi":57,"name":"A3","ticks":38880,"time":64.8,"velocity":0.6299212598425197},{"duration":0.75833333333334,"durationTicks":455,"midi":60,"name":"C4","ticks":38880,"time":64.8,"velocity":0.6299212598425197},{"duration":0.7583333333333258,"durationTicks":455,"midi":50,"name":"D3","ticks":39360,"time":65.60000000000001,"velocity":0.6299212598425197},{"duration":0.7583333333333258,"durationTicks":455,"midi":53,"name":"F3","ticks":39360,"time":65.60000000000001,"velocity":0.6299212598425197},{"duration":0.7583333333333258,"durationTicks":455,"midi":57,"name":"A3","ticks":39360,"time":65.60000000000001,"velocity":0.6299212598425197},{"duration":0.7583333333333258,"durationTicks":455,"midi":60,"name":"C4","ticks":39360,"time":65.60000000000001,"velocity":0.6299212598425197},{"duration":0.75833333333334,"durationTicks":455,"midi":50,"name":"D3","ticks":39840,"time":66.4,"velocity":0.6299212598425197},{"duration":0.75833333333334,"durationTicks":455,"midi":53,"name":"F3","ticks":39840,"time":66.4,"velocity":0.6299212598425197},{"duration":0.75833333333334,"durationTicks":455,"midi":57,"name":"A3","ticks":39840,"time":66.4,"velocity":0.6299212598425197},{"duration":0.75833333333334,"durationTicks":455,"midi":60,"name":"C4","ticks":39840,"time":66.4,"velocity":0.6299212598425197},{"duration":0.75833333333334,"durationTicks":455,"midi":46,"name":"A#2","ticks":40320,"time":67.2,"velocity":0.6299212598425197},{"duration":0.75833333333334,"durationTicks":455,"midi":50,"name":"D3","ticks":40320,"time":67.2,"velocity":0.6299212598425197},{"duration":0.75833333333334,"durationTicks":455,"midi":53,"name":"F3","ticks":40320,"time":67.2,"velocity":0.6299212598425197},{"duration":0.75833333333334,"durationTicks":455,"midi":46,"name":"A#2","ticks":40800,"time":68,"velocity":0.6299212598425197},{"duration":0.75833333333334,"durationTicks":455,"midi":50,"name":"D3","ticks":40800,"time":68,"velocity":0.6299212598425197},{"duration":0.75833333333334,"durationTicks":455,"midi":53,"name":"F3","ticks":40800,"time":68,"velocity":0.6299212598425197},{"duration":0.75833333333334,"durationTicks":455,"midi":46,"name":"A#2","ticks":41280,"time":68.8,"velocity":0.6299212598425197},{"duration":0.75833333333334,"durationTicks":455,"midi":50,"name":"D3","ticks":41280,"time":68.8,"velocity":0.6299212598425197},{"duration":0.75833333333334,"durationTicks":455,"midi":53,"name":"F3","ticks":41280,"time":68.8,"velocity":0.6299212598425197},{"duration":0.7583333333333258,"durationTicks":455,"midi":46,"name":"A#2","ticks":41760,"time":69.60000000000001,"velocity":0.6299212598425197},{"duration":0.7583333333333258,"durationTicks":455,"midi":50,"name":"D3","ticks":41760,"time":69.60000000000001,"velocity":0.6299212598425197},{"duration":0.7583333333333258,"durationTicks":455,"midi":53,"name":"F3","ticks":41760,"time":69.60000000000001,"velocity":0.6299212598425197},{"duration":0.75833333333334,"durationTicks":455,"midi":53,"name":"F3","ticks":42240,"time":70.4,"velocity":0.6299212598425197},{"duration":0.75833333333334,"durationTicks":455,"midi":57,"name":"A3","ticks":42240,"time":70.4,"velocity":0.6299212598425197},{"duration":0.75833333333334,"durationTicks":455,"midi":60,"name":"C4","ticks":42240,"time":70.4,"velocity":0.6299212598425197},{"duration":0.75833333333334,"durationTicks":455,"midi":53,"name":"F3","ticks":42720,"time":71.2,"velocity":0.6299212598425197},{"duration":0.75833333333334,"durationTicks":455,"midi":57,"name":"A3","ticks":42720,"time":71.2,"velocity":0.6299212598425197},{"duration":0.75833333333334,"durationTicks":455,"midi":60,"name":"C4","ticks":42720,"time":71.2,"velocity":0.6299212598425197},{"duration":0.75833333333334,"durationTicks":455,"midi":53,"name":"F3","ticks":43200,"time":72,"velocity":0.6299212598425197},{"duration":0.75833333333334,"durationTicks":455,"midi":57,"name":"A3","ticks":43200,"time":72,"velocity":0.6299212598425197},{"duration":0.75833333333334,"durationTicks":455,"midi":60,"name":"C4","ticks":43200,"time":72,"velocity":0.6299212598425197},{"duration":0.75833333333334,"durationTicks":455,"midi":53,"name":"F3","ticks":43680,"time":72.8,"velocity":0.6299212598425197},{"duration":0.75833333333334,"durationTicks":455,"midi":57,"name":"A3","ticks":43680,"time":72.8,"velocity":0.6299212598425197},{"duration":0.75833333333334,"durationTicks":455,"midi":60,"name":"C4","ticks":43680,"time":72.8,"velocity":0.6299212598425197},{"duration":0.7583333333333258,"durationTicks":455,"midi":53,"name":"F3","ticks":44160,"time":73.60000000000001,"velocity":0.6299212598425197},{"duration":0.7583333333333258,"durationTicks":455,"midi":55,"name":"G3","ticks":44160,"time":73.60000000000001,"velocity":0.6299212598425197},{"duration":0.7583333333333258,"durationTicks":455,"midi":60,"name":"C4","ticks":44160,"time":73.60000000000001,"velocity":0.6299212598425197},{"duration":0.75833333333334,"durationTicks":455,"midi":53,"name":"F3","ticks":44640,"time":74.4,"velocity":0.6299212598425197},{"duration":0.75833333333334,"durationTicks":455,"midi":55,"name":"G3","ticks":44640,"time":74.4,"velocity":0.6299212598425197},{"duration":0.75833333333334,"durationTicks":455,"midi":60,"name":"C4","ticks":44640,"time":74.4,"velocity":0.6299212598425197},{"duration":0.75833333333334,"durationTicks":455,"midi":53,"name":"F3","ticks":45120,"time":75.2,"velocity":0.6299212598425197},{"duration":0.75833333333334,"durationTicks":455,"midi":55,"name":"G3","ticks":45120,"time":75.2,"velocity":0.6299212598425197},{"duration":0.75833333333334,"durationTicks":455,"midi":60,"name":"C4","ticks":45120,"time":75.2,"velocity":0.6299212598425197},{"duration":0.75833333333334,"durationTicks":455,"midi":53,"name":"F3","ticks":45600,"time":76,"velocity":0.6299212598425197},{"duration":0.75833333333334,"durationTicks":455,"midi":55,"name":"G3","ticks":45600,"time":76,"velocity":0.6299212598425197},{"duration":0.75833333333334,"durationTicks":455,"midi":60,"name":"C4","ticks":45600,"time":76,"velocity":0.6299212598425197},{"duration":0.75833333333334,"durationTicks":455,"midi":64,"name":"E4","ticks":45600,"time":76,"velocity":0.6299212598425197},{"duration":0.7583333333333258,"durationTicks":455,"midi":46,"name":"A#2","ticks":46080,"time":76.80000000000001,"velocity":0.6299212598425197},{"duration":0.7583333333333258,"durationTicks":455,"midi":50,"name":"D3","ticks":46080,"time":76.80000000000001,"velocity":0.6299212598425197},{"duration":0.7583333333333258,"durationTicks":455,"midi":53,"name":"F3","ticks":46080,"time":76.80000000000001,"velocity":0.6299212598425197},{"duration":0.75833333333334,"durationTicks":455,"midi":46,"name":"A#2","ticks":46560,"time":77.60000000000001,"velocity":0.6299212598425197},{"duration":0.75833333333334,"durationTicks":455,"midi":50,"name":"D3","ticks":46560,"time":77.60000000000001,"velocity":0.6299212598425197},{"duration":0.75833333333334,"durationTicks":455,"midi":53,"name":"F3","ticks":46560,"time":77.60000000000001,"velocity":0.6299212598425197},{"duration":0.75833333333334,"durationTicks":455,"midi":46,"name":"A#2","ticks":47040,"time":78.4,"velocity":0.6299212598425197},{"duration":0.75833333333334,"durationTicks":455,"midi":50,"name":"D3","ticks":47040,"time":78.4,"velocity":0.6299212598425197},{"duration":0.75833333333334,"durationTicks":455,"midi":53,"name":"F3","ticks":47040,"time":78.4,"velocity":0.6299212598425197},{"duration":0.75833333333334,"durationTicks":455,"midi":46,"name":"A#2","ticks":47520,"time":79.2,"velocity":0.6299212598425197},{"duration":0.75833333333334,"durationTicks":455,"midi":50,"name":"D3","ticks":47520,"time":79.2,"velocity":0.6299212598425197},{"duration":0.75833333333334,"durationTicks":455,"midi":53,"name":"F3","ticks":47520,"time":79.2,"velocity":0.6299212598425197},{"duration":0.75833333333334,"durationTicks":455,"midi":46,"name":"A#2","ticks":48000,"time":80,"velocity":0.6299212598425197},{"duration":0.75833333333334,"durationTicks":455,"midi":50,"name":"D3","ticks":48000,"time":80,"velocity":0.6299212598425197},{"duration":0.75833333333334,"durationTicks":455,"midi":53,"name":"F3","ticks":48000,"time":80,"velocity":0.6299212598425197},{"duration":0.7583333333333258,"durationTicks":455,"midi":46,"name":"A#2","ticks":48480,"time":80.80000000000001,"velocity":0.6299212598425197},{"duration":0.7583333333333258,"durationTicks":455,"midi":50,"name":"D3","ticks":48480,"time":80.80000000000001,"velocity":0.6299212598425197},{"duration":0.7583333333333258,"durationTicks":455,"midi":53,"name":"F3","ticks":48480,"time":80.80000000000001,"velocity":0.6299212598425197},{"duration":0.75833333333334,"durationTicks":455,"midi":46,"name":"A#2","ticks":48960,"time":81.60000000000001,"velocity":0.6299212598425197},{"duration":0.75833333333334,"durationTicks":455,"midi":50,"name":"D3","ticks":48960,"time":81.60000000000001,"velocity":0.6299212598425197},{"duration":0.75833333333334,"durationTicks":455,"midi":53,"name":"F3","ticks":48960,"time":81.60000000000001,"velocity":0.6299212598425197},{"duration":0.75833333333334,"durationTicks":455,"midi":46,"name":"A#2","ticks":49440,"time":82.4,"velocity":0.6299212598425197},{"duration":0.75833333333334,"durationTicks":455,"midi":50,"name":"D3","ticks":49440,"time":82.4,"velocity":0.6299212598425197},{"duration":0.75833333333334,"durationTicks":455,"midi":53,"name":"F3","ticks":49440,"time":82.4,"velocity":0.6299212598425197},{"duration":0.75833333333334,"durationTicks":455,"midi":53,"name":"F3","ticks":49920,"time":83.2,"velocity":0.6299212598425197},{"duration":0.75833333333334,"durationTicks":455,"midi":57,"name":"A3","ticks":49920,"time":83.2,"velocity":0.6299212598425197},{"duration":0.75833333333334,"durationTicks":455,"midi":60,"name":"C4","ticks":49920,"time":83.2,"velocity":0.6299212598425197},{"duration":0.75833333333334,"durationTicks":455,"midi":53,"name":"F3","ticks":50400,"time":84,"velocity":0.6299212598425197},{"duration":0.75833333333334,"durationTicks":455,"midi":57,"name":"A3","ticks":50400,"time":84,"velocity":0.6299212598425197},{"duration":0.75833333333334,"durationTicks":455,"midi":60,"name":"C4","ticks":50400,"time":84,"velocity":0.6299212598425197},{"duration":0.7583333333333258,"durationTicks":455,"midi":53,"name":"F3","ticks":50880,"time":84.80000000000001,"velocity":0.6299212598425197},{"duration":0.7583333333333258,"durationTicks":455,"midi":57,"name":"A3","ticks":50880,"time":84.80000000000001,"velocity":0.6299212598425197},{"duration":0.7583333333333258,"durationTicks":455,"midi":60,"name":"C4","ticks":50880,"time":84.80000000000001,"velocity":0.6299212598425197},{"duration":0.75833333333334,"durationTicks":455,"midi":53,"name":"F3","ticks":51360,"time":85.60000000000001,"velocity":0.6299212598425197},{"duration":0.75833333333334,"durationTicks":455,"midi":57,"name":"A3","ticks":51360,"time":85.60000000000001,"velocity":0.6299212598425197},{"duration":0.75833333333334,"durationTicks":455,"midi":60,"name":"C4","ticks":51360,"time":85.60000000000001,"velocity":0.6299212598425197},{"duration":0.75833333333334,"durationTicks":455,"midi":53,"name":"F3","ticks":51840,"time":86.4,"velocity":0.6299212598425197},{"duration":0.75833333333334,"durationTicks":455,"midi":55,"name":"G3","ticks":51840,"time":86.4,"velocity":0.6299212598425197},{"duration":0.75833333333334,"durationTicks":455,"midi":60,"name":"C4","ticks":51840,"time":86.4,"velocity":0.6299212598425197},{"duration":0.75833333333334,"durationTicks":455,"midi":53,"name":"F3","ticks":52320,"time":87.2,"velocity":0.6299212598425197},{"duration":0.75833333333334,"durationTicks":455,"midi":55,"name":"G3","ticks":52320,"time":87.2,"velocity":0.6299212598425197},{"duration":0.75833333333334,"durationTicks":455,"midi":60,"name":"C4","ticks":52320,"time":87.2,"velocity":0.6299212598425197},{"duration":0.75833333333334,"durationTicks":455,"midi":53,"name":"F3","ticks":52800,"time":88,"velocity":0.6299212598425197},{"duration":0.75833333333334,"durationTicks":455,"midi":55,"name":"G3","ticks":52800,"time":88,"velocity":0.6299212598425197},{"duration":0.75833333333334,"durationTicks":455,"midi":60,"name":"C4","ticks":52800,"time":88,"velocity":0.6299212598425197},{"duration":0.7583333333333258,"durationTicks":455,"midi":53,"name":"F3","ticks":53280,"time":88.80000000000001,"velocity":0.6299212598425197},{"duration":0.7583333333333258,"durationTicks":455,"midi":55,"name":"G3","ticks":53280,"time":88.80000000000001,"velocity":0.6299212598425197},{"duration":0.7583333333333258,"durationTicks":455,"midi":60,"name":"C4","ticks":53280,"time":88.80000000000001,"velocity":0.6299212598425197},{"duration":0.75833333333334,"durationTicks":455,"midi":46,"name":"A#2","ticks":53760,"time":89.60000000000001,"velocity":0.6299212598425197},{"duration":0.75833333333334,"durationTicks":455,"midi":50,"name":"D3","ticks":53760,"time":89.60000000000001,"velocity":0.6299212598425197},{"duration":0.75833333333334,"durationTicks":455,"midi":53,"name":"F3","ticks":53760,"time":89.60000000000001,"velocity":0.6299212598425197},{"duration":0.75833333333334,"durationTicks":455,"midi":46,"name":"A#2","ticks":54240,"time":90.4,"velocity":0.6299212598425197},{"duration":0.75833333333334,"durationTicks":455,"midi":50,"name":"D3","ticks":54240,"time":90.4,"velocity":0.6299212598425197},{"duration":0.75833333333334,"durationTicks":455,"midi":53,"name":"F3","ticks":54240,"time":90.4,"velocity":0.6299212598425197},{"duration":0.75833333333334,"durationTicks":455,"midi":46,"name":"A#2","ticks":54720,"time":91.2,"velocity":0.6299212598425197},{"duration":0.75833333333334,"durationTicks":455,"midi":50,"name":"D3","ticks":54720,"time":91.2,"velocity":0.6299212598425197},{"duration":0.75833333333334,"durationTicks":455,"midi":53,"name":"F3","ticks":54720,"time":91.2,"velocity":0.6299212598425197},{"duration":0.75833333333334,"durationTicks":455,"midi":46,"name":"A#2","ticks":55200,"time":92,"velocity":0.6299212598425197},{"duration":0.75833333333334,"durationTicks":455,"midi":50,"name":"D3","ticks":55200,"time":92,"velocity":0.6299212598425197},{"duration":0.75833333333334,"durationTicks":455,"midi":53,"name":"F3","ticks":55200,"time":92,"velocity":0.6299212598425197},{"duration":0.7583333333333258,"durationTicks":455,"midi":46,"name":"A#2","ticks":55680,"time":92.80000000000001,"velocity":0.6299212598425197},{"duration":0.7583333333333258,"durationTicks":455,"midi":50,"name":"D3","ticks":55680,"time":92.80000000000001,"velocity":0.6299212598425197},{"duration":0.7583333333333258,"durationTicks":455,"midi":53,"name":"F3","ticks":55680,"time":92.80000000000001,"velocity":0.6299212598425197},{"duration":0.75833333333334,"durationTicks":455,"midi":46,"name":"A#2","ticks":56160,"time":93.60000000000001,"velocity":0.6299212598425197},{"duration":0.75833333333334,"durationTicks":455,"midi":50,"name":"D3","ticks":56160,"time":93.60000000000001,"velocity":0.6299212598425197},{"duration":0.75833333333334,"durationTicks":455,"midi":53,"name":"F3","ticks":56160,"time":93.60000000000001,"velocity":0.6299212598425197},{"duration":0.75833333333334,"durationTicks":455,"midi":46,"name":"A#2","ticks":56640,"time":94.4,"velocity":0.6299212598425197},{"duration":0.75833333333334,"durationTicks":455,"midi":50,"name":"D3","ticks":56640,"time":94.4,"velocity":0.6299212598425197},{"duration":0.75833333333334,"durationTicks":455,"midi":53,"name":"F3","ticks":56640,"time":94.4,"velocity":0.6299212598425197},{"duration":0.75833333333334,"durationTicks":455,"midi":46,"name":"A#2","ticks":57120,"time":95.2,"velocity":0.6299212598425197},{"duration":0.75833333333334,"durationTicks":455,"midi":50,"name":"D3","ticks":57120,"time":95.2,"velocity":0.6299212598425197},{"duration":0.75833333333334,"durationTicks":455,"midi":53,"name":"F3","ticks":57120,"time":95.2,"velocity":0.6299212598425197},{"duration":0.75833333333334,"durationTicks":455,"midi":53,"name":"F3","ticks":57600,"time":96,"velocity":0.6299212598425197},{"duration":0.75833333333334,"durationTicks":455,"midi":57,"name":"A3","ticks":57600,"time":96,"velocity":0.6299212598425197},{"duration":0.75833333333334,"durationTicks":455,"midi":60,"name":"C4","ticks":57600,"time":96,"velocity":0.6299212598425197},{"duration":0.7583333333333258,"durationTicks":455,"midi":53,"name":"F3","ticks":58080,"time":96.80000000000001,"velocity":0.6299212598425197},{"duration":0.7583333333333258,"durationTicks":455,"midi":57,"name":"A3","ticks":58080,"time":96.80000000000001,"velocity":0.6299212598425197},{"duration":0.7583333333333258,"durationTicks":455,"midi":60,"name":"C4","ticks":58080,"time":96.80000000000001,"velocity":0.6299212598425197},{"duration":0.75833333333334,"durationTicks":455,"midi":53,"name":"F3","ticks":58560,"time":97.60000000000001,"velocity":0.6299212598425197},{"duration":0.75833333333334,"durationTicks":455,"midi":57,"name":"A3","ticks":58560,"time":97.60000000000001,"velocity":0.6299212598425197},{"duration":0.75833333333334,"durationTicks":455,"midi":60,"name":"C4","ticks":58560,"time":97.60000000000001,"velocity":0.6299212598425197},{"duration":0.75833333333334,"durationTicks":455,"midi":53,"name":"F3","ticks":59040,"time":98.4,"velocity":0.6299212598425197},{"duration":0.75833333333334,"durationTicks":455,"midi":57,"name":"A3","ticks":59040,"time":98.4,"velocity":0.6299212598425197},{"duration":0.75833333333334,"durationTicks":455,"midi":60,"name":"C4","ticks":59040,"time":98.4,"velocity":0.6299212598425197},{"duration":0.75833333333334,"durationTicks":455,"midi":53,"name":"F3","ticks":59520,"time":99.2,"velocity":0.6299212598425197},{"duration":0.75833333333334,"durationTicks":455,"midi":55,"name":"G3","ticks":59520,"time":99.2,"velocity":0.6299212598425197},{"duration":0.75833333333334,"durationTicks":455,"midi":60,"name":"C4","ticks":59520,"time":99.2,"velocity":0.6299212598425197},{"duration":0.75833333333334,"durationTicks":455,"midi":64,"name":"E4","ticks":59520,"time":99.2,"velocity":0.6299212598425197},{"duration":0.75833333333334,"durationTicks":455,"midi":53,"name":"F3","ticks":60000,"time":100,"velocity":0.6299212598425197},{"duration":0.75833333333334,"durationTicks":455,"midi":55,"name":"G3","ticks":60000,"time":100,"velocity":0.6299212598425197},{"duration":0.75833333333334,"durationTicks":455,"midi":60,"name":"C4","ticks":60000,"time":100,"velocity":0.6299212598425197},{"duration":0.75833333333334,"durationTicks":455,"midi":64,"name":"E4","ticks":60000,"time":100,"velocity":0.6299212598425197},{"duration":0.7583333333333258,"durationTicks":455,"midi":53,"name":"F3","ticks":60480,"time":100.80000000000001,"velocity":0.6299212598425197},{"duration":0.7583333333333258,"durationTicks":455,"midi":55,"name":"G3","ticks":60480,"time":100.80000000000001,"velocity":0.6299212598425197},{"duration":0.7583333333333258,"durationTicks":455,"midi":60,"name":"C4","ticks":60480,"time":100.80000000000001,"velocity":0.6299212598425197},{"duration":0.75833333333334,"durationTicks":455,"midi":53,"name":"F3","ticks":60960,"time":101.60000000000001,"velocity":0.6299212598425197},{"duration":0.75833333333334,"durationTicks":455,"midi":55,"name":"G3","ticks":60960,"time":101.60000000000001,"velocity":0.6299212598425197},{"duration":0.75833333333334,"durationTicks":455,"midi":60,"name":"C4","ticks":60960,"time":101.60000000000001,"velocity":0.6299212598425197},{"duration":0.7583333333333258,"durationTicks":455,"midi":48,"name":"C3","ticks":61440,"time":102.4,"velocity":0.6299212598425197},{"duration":0.7583333333333258,"durationTicks":455,"midi":52,"name":"E3","ticks":61440,"time":102.4,"velocity":0.6299212598425197},{"duration":0.7583333333333258,"durationTicks":455,"midi":55,"name":"G3","ticks":61440,"time":102.4,"velocity":0.6299212598425197},{"duration":0.7583333333333258,"durationTicks":455,"midi":48,"name":"C3","ticks":61920,"time":103.2,"velocity":0.6299212598425197},{"duration":0.7583333333333258,"durationTicks":455,"midi":52,"name":"E3","ticks":61920,"time":103.2,"velocity":0.6299212598425197},{"duration":0.7583333333333258,"durationTicks":455,"midi":55,"name":"G3","ticks":61920,"time":103.2,"velocity":0.6299212598425197},{"duration":0.7583333333333258,"durationTicks":455,"midi":48,"name":"C3","ticks":62400,"time":104,"velocity":0.6299212598425197},{"duration":0.7583333333333258,"durationTicks":455,"midi":52,"name":"E3","ticks":62400,"time":104,"velocity":0.6299212598425197},{"duration":0.7583333333333258,"durationTicks":455,"midi":55,"name":"G3","ticks":62400,"time":104,"velocity":0.6299212598425197},{"duration":0.3783333333333303,"durationTicks":227,"midi":48,"name":"C3","ticks":62880,"time":104.80000000000001,"velocity":0.6299212598425197},{"duration":0.3783333333333303,"durationTicks":227,"midi":52,"name":"E3","ticks":62880,"time":104.80000000000001,"velocity":0.6299212598425197},{"duration":0.3783333333333303,"durationTicks":227,"midi":55,"name":"G3","ticks":62880,"time":104.80000000000001,"velocity":0.6299212598425197},{"duration":1.8983333333333405,"durationTicks":1139,"midi":55,"name":"G3","ticks":63120,"time":105.2,"velocity":0.6299212598425197},{"duration":1.8983333333333405,"durationTicks":1139,"midi":60,"name":"C4","ticks":63120,"time":105.2,"velocity":0.6299212598425197},{"duration":1.8983333333333405,"durationTicks":1139,"midi":64,"name":"E4","ticks":63120,"time":105.2,"velocity":0.6299212598425197},{"duration":0.3783333333333303,"durationTicks":227,"midi":55,"name":"G3","ticks":64320,"time":107.2,"velocity":0.6299212598425197},{"duration":0.3783333333333303,"durationTicks":227,"midi":60,"name":"C4","ticks":64320,"time":107.2,"velocity":0.6299212598425197},{"duration":0.3783333333333303,"durationTicks":227,"midi":64,"name":"E4","ticks":64320,"time":107.2,"velocity":0.6299212598425197},{"duration":0.3783333333333303,"durationTicks":227,"midi":55,"name":"G3","ticks":64560,"time":107.60000000000001,"velocity":0.6299212598425197},{"duration":0.3783333333333303,"durationTicks":227,"midi":60,"name":"C4","ticks":64560,"time":107.60000000000001,"velocity":0.6299212598425197},{"duration":0.3783333333333303,"durationTicks":227,"midi":64,"name":"E4","ticks":64560,"time":107.60000000000001,"velocity":0.6299212598425197},{"duration":0.3783333333333303,"durationTicks":227,"midi":55,"name":"G3","ticks":64800,"time":108,"velocity":0.6299212598425197},{"duration":0.3783333333333303,"durationTicks":227,"midi":60,"name":"C4","ticks":64800,"time":108,"velocity":0.6299212598425197},{"duration":0.3783333333333303,"durationTicks":227,"midi":64,"name":"E4","ticks":64800,"time":108,"velocity":0.6299212598425197},{"duration":1.1383333333333496,"durationTicks":683,"midi":53,"name":"F3","ticks":65040,"time":108.4,"velocity":0.6299212598425197},{"duration":1.1383333333333496,"durationTicks":683,"midi":57,"name":"A3","ticks":65040,"time":108.4,"velocity":0.6299212598425197},{"duration":1.1383333333333496,"durationTicks":683,"midi":60,"name":"C4","ticks":65040,"time":108.4,"velocity":0.6299212598425197},{"duration":0.7583333333333258,"durationTicks":455,"midi":53,"name":"F3","ticks":65760,"time":109.60000000000001,"velocity":0.6299212598425197},{"duration":0.7583333333333258,"durationTicks":455,"midi":57,"name":"A3","ticks":65760,"time":109.60000000000001,"velocity":0.6299212598425197},{"duration":0.7583333333333258,"durationTicks":455,"midi":60,"name":"C4","ticks":65760,"time":109.60000000000001,"velocity":0.6299212598425197},{"duration":0.7583333333333258,"durationTicks":455,"midi":53,"name":"F3","ticks":66240,"time":110.4,"velocity":0.6299212598425197},{"duration":0.7583333333333258,"durationTicks":455,"midi":57,"name":"A3","ticks":66240,"time":110.4,"velocity":0.6299212598425197},{"duration":0.7583333333333258,"durationTicks":455,"midi":60,"name":"C4","ticks":66240,"time":110.4,"velocity":0.6299212598425197},{"duration":0.7583333333333258,"durationTicks":455,"midi":53,"name":"F3","ticks":66720,"time":111.2,"velocity":0.6299212598425197},{"duration":0.7583333333333258,"durationTicks":455,"midi":57,"name":"A3","ticks":66720,"time":111.2,"velocity":0.6299212598425197},{"duration":0.7583333333333258,"durationTicks":455,"midi":60,"name":"C4","ticks":66720,"time":111.2,"velocity":0.6299212598425197},{"duration":0.7583333333333258,"durationTicks":455,"midi":46,"name":"A#2","ticks":67200,"time":112,"velocity":0.6299212598425197},{"duration":0.7583333333333258,"durationTicks":455,"midi":50,"name":"D3","ticks":67200,"time":112,"velocity":0.6299212598425197},{"duration":0.7583333333333258,"durationTicks":455,"midi":53,"name":"F3","ticks":67200,"time":112,"velocity":0.6299212598425197},{"duration":0.7583333333333258,"durationTicks":455,"midi":46,"name":"A#2","ticks":67680,"time":112.80000000000001,"velocity":0.6299212598425197},{"duration":0.7583333333333258,"durationTicks":455,"midi":50,"name":"D3","ticks":67680,"time":112.80000000000001,"velocity":0.6299212598425197},{"duration":0.7583333333333258,"durationTicks":455,"midi":53,"name":"F3","ticks":67680,"time":112.80000000000001,"velocity":0.6299212598425197},{"duration":0.7583333333333258,"durationTicks":455,"midi":46,"name":"A#2","ticks":68160,"time":113.60000000000001,"velocity":0.6299212598425197},{"duration":0.7583333333333258,"durationTicks":455,"midi":50,"name":"D3","ticks":68160,"time":113.60000000000001,"velocity":0.6299212598425197},{"duration":0.7583333333333258,"durationTicks":455,"midi":53,"name":"F3","ticks":68160,"time":113.60000000000001,"velocity":0.6299212598425197},{"duration":0.7583333333333258,"durationTicks":455,"midi":46,"name":"A#2","ticks":68640,"time":114.4,"velocity":0.6299212598425197},{"duration":0.7583333333333258,"durationTicks":455,"midi":50,"name":"D3","ticks":68640,"time":114.4,"velocity":0.6299212598425197},{"duration":0.7583333333333258,"durationTicks":455,"midi":53,"name":"F3","ticks":68640,"time":114.4,"velocity":0.6299212598425197},{"duration":0.7583333333333258,"durationTicks":455,"midi":53,"name":"F3","ticks":69120,"time":115.2,"velocity":0.6299212598425197},{"duration":0.7583333333333258,"durationTicks":455,"midi":57,"name":"A3","ticks":69120,"time":115.2,"velocity":0.6299212598425197},{"duration":0.7583333333333258,"durationTicks":455,"midi":60,"name":"C4","ticks":69120,"time":115.2,"velocity":0.6299212598425197},{"duration":0.7583333333333258,"durationTicks":455,"midi":53,"name":"F3","ticks":69600,"time":116,"velocity":0.6299212598425197},{"duration":0.7583333333333258,"durationTicks":455,"midi":57,"name":"A3","ticks":69600,"time":116,"velocity":0.6299212598425197},{"duration":0.7583333333333258,"durationTicks":455,"midi":60,"name":"C4","ticks":69600,"time":116,"velocity":0.6299212598425197},{"duration":0.7583333333333258,"durationTicks":455,"midi":53,"name":"F3","ticks":70080,"time":116.80000000000001,"velocity":0.6299212598425197},{"duration":0.7583333333333258,"durationTicks":455,"midi":57,"name":"A3","ticks":70080,"time":116.80000000000001,"velocity":0.6299212598425197},{"duration":0.7583333333333258,"durationTicks":455,"midi":60,"name":"C4","ticks":70080,"time":116.80000000000001,"velocity":0.6299212598425197},{"duration":0.7583333333333258,"durationTicks":455,"midi":53,"name":"F3","ticks":70560,"time":117.60000000000001,"velocity":0.6299212598425197},{"duration":0.7583333333333258,"durationTicks":455,"midi":57,"name":"A3","ticks":70560,"time":117.60000000000001,"velocity":0.6299212598425197},{"duration":0.7583333333333258,"durationTicks":455,"midi":60,"name":"C4","ticks":70560,"time":117.60000000000001,"velocity":0.6299212598425197},{"duration":0.7583333333333258,"durationTicks":455,"midi":53,"name":"F3","ticks":71040,"time":118.4,"velocity":0.6299212598425197},{"duration":0.7583333333333258,"durationTicks":455,"midi":57,"name":"A3","ticks":71040,"time":118.4,"velocity":0.6299212598425197},{"duration":0.7583333333333258,"durationTicks":455,"midi":60,"name":"C4","ticks":71040,"time":118.4,"velocity":0.6299212598425197},{"duration":0.7583333333333258,"durationTicks":455,"midi":53,"name":"F3","ticks":71520,"time":119.2,"velocity":0.6299212598425197},{"duration":0.7583333333333258,"durationTicks":455,"midi":57,"name":"A3","ticks":71520,"time":119.2,"velocity":0.6299212598425197},{"duration":0.7583333333333258,"durationTicks":455,"midi":60,"name":"C4","ticks":71520,"time":119.2,"velocity":0.6299212598425197},{"duration":0.7583333333333258,"durationTicks":455,"midi":53,"name":"F3","ticks":72000,"time":120,"velocity":0.6299212598425197},{"duration":0.7583333333333258,"durationTicks":455,"midi":57,"name":"A3","ticks":72000,"time":120,"velocity":0.6299212598425197},{"duration":0.7583333333333258,"durationTicks":455,"midi":60,"name":"C4","ticks":72000,"time":120,"velocity":0.6299212598425197},{"duration":0.7583333333333258,"durationTicks":455,"midi":53,"name":"F3","ticks":72480,"time":120.80000000000001,"velocity":0.6299212598425197},{"duration":0.7583333333333258,"durationTicks":455,"midi":57,"name":"A3","ticks":72480,"time":120.80000000000001,"velocity":0.6299212598425197},{"duration":0.7583333333333258,"durationTicks":455,"midi":60,"name":"C4","ticks":72480,"time":120.80000000000001,"velocity":0.6299212598425197},{"duration":0.7583333333333258,"durationTicks":455,"midi":53,"name":"F3","ticks":72960,"time":121.60000000000001,"velocity":0.6299212598425197},{"duration":0.7583333333333258,"durationTicks":455,"midi":57,"name":"A3","ticks":72960,"time":121.60000000000001,"velocity":0.6299212598425197},{"duration":0.7583333333333258,"durationTicks":455,"midi":60,"name":"C4","ticks":72960,"time":121.60000000000001,"velocity":0.6299212598425197},{"duration":0.7583333333333258,"durationTicks":455,"midi":53,"name":"F3","ticks":73440,"time":122.4,"velocity":0.6299212598425197},{"duration":0.7583333333333258,"durationTicks":455,"midi":57,"name":"A3","ticks":73440,"time":122.4,"velocity":0.6299212598425197},{"duration":0.7583333333333258,"durationTicks":455,"midi":60,"name":"C4","ticks":73440,"time":122.4,"velocity":0.6299212598425197},{"duration":0.7583333333333258,"durationTicks":455,"midi":53,"name":"F3","ticks":73920,"time":123.2,"velocity":0.6299212598425197},{"duration":0.7583333333333258,"durationTicks":455,"midi":57,"name":"A3","ticks":73920,"time":123.2,"velocity":0.6299212598425197},{"duration":0.7583333333333258,"durationTicks":455,"midi":60,"name":"C4","ticks":73920,"time":123.2,"velocity":0.6299212598425197},{"duration":0.7583333333333258,"durationTicks":455,"midi":53,"name":"F3","ticks":74400,"time":124,"velocity":0.6299212598425197},{"duration":0.7583333333333258,"durationTicks":455,"midi":57,"name":"A3","ticks":74400,"time":124,"velocity":0.6299212598425197},{"duration":0.7583333333333258,"durationTicks":455,"midi":60,"name":"C4","ticks":74400,"time":124,"velocity":0.6299212598425197},{"duration":0.7583333333333258,"durationTicks":455,"midi":46,"name":"A#2","ticks":74880,"time":124.80000000000001,"velocity":0.6299212598425197},{"duration":0.7583333333333258,"durationTicks":455,"midi":50,"name":"D3","ticks":74880,"time":124.80000000000001,"velocity":0.6299212598425197},{"duration":0.7583333333333258,"durationTicks":455,"midi":53,"name":"F3","ticks":74880,"time":124.80000000000001,"velocity":0.6299212598425197},{"duration":0.7583333333333258,"durationTicks":455,"midi":46,"name":"A#2","ticks":75360,"time":125.60000000000001,"velocity":0.6299212598425197},{"duration":0.7583333333333258,"durationTicks":455,"midi":50,"name":"D3","ticks":75360,"time":125.60000000000001,"velocity":0.6299212598425197},{"duration":0.7583333333333258,"durationTicks":455,"midi":53,"name":"F3","ticks":75360,"time":125.60000000000001,"velocity":0.6299212598425197},{"duration":0.7583333333333258,"durationTicks":455,"midi":46,"name":"A#2","ticks":75840,"time":126.4,"velocity":0.6299212598425197},{"duration":0.7583333333333258,"durationTicks":455,"midi":50,"name":"D3","ticks":75840,"time":126.4,"velocity":0.6299212598425197},{"duration":0.7583333333333258,"durationTicks":455,"midi":53,"name":"F3","ticks":75840,"time":126.4,"velocity":0.6299212598425197},{"duration":0.7583333333333258,"durationTicks":455,"midi":46,"name":"A#2","ticks":76320,"time":127.2,"velocity":0.6299212598425197},{"duration":0.7583333333333258,"durationTicks":455,"midi":50,"name":"D3","ticks":76320,"time":127.2,"velocity":0.6299212598425197},{"duration":0.7583333333333258,"durationTicks":455,"midi":53,"name":"F3","ticks":76320,"time":127.2,"velocity":0.6299212598425197},{"duration":0.7583333333333258,"durationTicks":455,"midi":53,"name":"F3","ticks":76800,"time":128,"velocity":0.6299212598425197},{"duration":0.7583333333333258,"durationTicks":455,"midi":57,"name":"A3","ticks":76800,"time":128,"velocity":0.6299212598425197},{"duration":0.7583333333333258,"durationTicks":455,"midi":60,"name":"C4","ticks":76800,"time":128,"velocity":0.6299212598425197},{"duration":0.7583333333333258,"durationTicks":455,"midi":53,"name":"F3","ticks":77280,"time":128.8,"velocity":0.6299212598425197},{"duration":0.7583333333333258,"durationTicks":455,"midi":57,"name":"A3","ticks":77280,"time":128.8,"velocity":0.6299212598425197},{"duration":0.7583333333333258,"durationTicks":455,"midi":60,"name":"C4","ticks":77280,"time":128.8,"velocity":0.6299212598425197},{"duration":0.7583333333333258,"durationTicks":455,"midi":53,"name":"F3","ticks":77760,"time":129.6,"velocity":0.6299212598425197},{"duration":0.7583333333333258,"durationTicks":455,"midi":57,"name":"A3","ticks":77760,"time":129.6,"velocity":0.6299212598425197},{"duration":0.7583333333333258,"durationTicks":455,"midi":60,"name":"C4","ticks":77760,"time":129.6,"velocity":0.6299212598425197},{"duration":0.7583333333333258,"durationTicks":455,"midi":53,"name":"F3","ticks":78240,"time":130.4,"velocity":0.6299212598425197},{"duration":0.7583333333333258,"durationTicks":455,"midi":57,"name":"A3","ticks":78240,"time":130.4,"velocity":0.6299212598425197},{"duration":0.7583333333333258,"durationTicks":455,"midi":60,"name":"C4","ticks":78240,"time":130.4,"velocity":0.6299212598425197},{"duration":0.7583333333333258,"durationTicks":455,"midi":53,"name":"F3","ticks":78720,"time":131.20000000000002,"velocity":0.6299212598425197},{"duration":0.7583333333333258,"durationTicks":455,"midi":55,"name":"G3","ticks":78720,"time":131.20000000000002,"velocity":0.6299212598425197},{"duration":0.7583333333333258,"durationTicks":455,"midi":60,"name":"C4","ticks":78720,"time":131.20000000000002,"velocity":0.6299212598425197},{"duration":0.7583333333333258,"durationTicks":455,"midi":53,"name":"F3","ticks":79200,"time":132,"velocity":0.6299212598425197},{"duration":0.7583333333333258,"durationTicks":455,"midi":55,"name":"G3","ticks":79200,"time":132,"velocity":0.6299212598425197},{"duration":0.7583333333333258,"durationTicks":455,"midi":60,"name":"C4","ticks":79200,"time":132,"velocity":0.6299212598425197},{"duration":0.7583333333333258,"durationTicks":455,"midi":53,"name":"F3","ticks":79680,"time":132.8,"velocity":0.6299212598425197},{"duration":0.7583333333333258,"durationTicks":455,"midi":55,"name":"G3","ticks":79680,"time":132.8,"velocity":0.6299212598425197},{"duration":0.7583333333333258,"durationTicks":455,"midi":60,"name":"C4","ticks":79680,"time":132.8,"velocity":0.6299212598425197},{"duration":0.7583333333333258,"durationTicks":455,"midi":53,"name":"F3","ticks":80160,"time":133.6,"velocity":0.6299212598425197},{"duration":0.7583333333333258,"durationTicks":455,"midi":55,"name":"G3","ticks":80160,"time":133.6,"velocity":0.6299212598425197},{"duration":0.7583333333333258,"durationTicks":455,"midi":60,"name":"C4","ticks":80160,"time":133.6,"velocity":0.6299212598425197},{"duration":0.7583333333333258,"durationTicks":455,"midi":50,"name":"D3","ticks":80640,"time":134.4,"velocity":0.6299212598425197},{"duration":0.7583333333333258,"durationTicks":455,"midi":53,"name":"F3","ticks":80640,"time":134.4,"velocity":0.6299212598425197},{"duration":0.7583333333333258,"durationTicks":455,"midi":57,"name":"A3","ticks":80640,"time":134.4,"velocity":0.6299212598425197},{"duration":0.7583333333333258,"durationTicks":455,"midi":60,"name":"C4","ticks":80640,"time":134.4,"velocity":0.6299212598425197},{"duration":0.7583333333333258,"durationTicks":455,"midi":50,"name":"D3","ticks":81120,"time":135.20000000000002,"velocity":0.6299212598425197},{"duration":0.7583333333333258,"durationTicks":455,"midi":53,"name":"F3","ticks":81120,"time":135.20000000000002,"velocity":0.6299212598425197},{"duration":0.7583333333333258,"durationTicks":455,"midi":57,"name":"A3","ticks":81120,"time":135.20000000000002,"velocity":0.6299212598425197},{"duration":0.7583333333333258,"durationTicks":455,"midi":60,"name":"C4","ticks":81120,"time":135.20000000000002,"velocity":0.6299212598425197},{"duration":0.7583333333333258,"durationTicks":455,"midi":50,"name":"D3","ticks":81600,"time":136,"velocity":0.6299212598425197},{"duration":0.7583333333333258,"durationTicks":455,"midi":53,"name":"F3","ticks":81600,"time":136,"velocity":0.6299212598425197},{"duration":0.7583333333333258,"durationTicks":455,"midi":57,"name":"A3","ticks":81600,"time":136,"velocity":0.6299212598425197},{"duration":0.7583333333333258,"durationTicks":455,"midi":60,"name":"C4","ticks":81600,"time":136,"velocity":0.6299212598425197},{"duration":0.7583333333333258,"durationTicks":455,"midi":50,"name":"D3","ticks":82080,"time":136.8,"velocity":0.6299212598425197},{"duration":0.7583333333333258,"durationTicks":455,"midi":53,"name":"F3","ticks":82080,"time":136.8,"velocity":0.6299212598425197},{"duration":0.7583333333333258,"durationTicks":455,"midi":57,"name":"A3","ticks":82080,"time":136.8,"velocity":0.6299212598425197},{"duration":0.7583333333333258,"durationTicks":455,"midi":60,"name":"C4","ticks":82080,"time":136.8,"velocity":0.6299212598425197},{"duration":0.7583333333333258,"durationTicks":455,"midi":46,"name":"A#2","ticks":82560,"time":137.6,"velocity":0.6299212598425197},{"duration":0.7583333333333258,"durationTicks":455,"midi":50,"name":"D3","ticks":82560,"time":137.6,"velocity":0.6299212598425197},{"duration":0.7583333333333258,"durationTicks":455,"midi":53,"name":"F3","ticks":82560,"time":137.6,"velocity":0.6299212598425197},{"duration":0.7583333333333258,"durationTicks":455,"midi":46,"name":"A#2","ticks":83040,"time":138.4,"velocity":0.6299212598425197},{"duration":0.7583333333333258,"durationTicks":455,"midi":50,"name":"D3","ticks":83040,"time":138.4,"velocity":0.6299212598425197},{"duration":0.7583333333333258,"durationTicks":455,"midi":53,"name":"F3","ticks":83040,"time":138.4,"velocity":0.6299212598425197},{"duration":0.7583333333333258,"durationTicks":455,"midi":46,"name":"A#2","ticks":83520,"time":139.20000000000002,"velocity":0.6299212598425197},{"duration":0.7583333333333258,"durationTicks":455,"midi":50,"name":"D3","ticks":83520,"time":139.20000000000002,"velocity":0.6299212598425197},{"duration":0.7583333333333258,"durationTicks":455,"midi":53,"name":"F3","ticks":83520,"time":139.20000000000002,"velocity":0.6299212598425197},{"duration":0.7583333333333258,"durationTicks":455,"midi":46,"name":"A#2","ticks":84000,"time":140,"velocity":0.6299212598425197},{"duration":0.7583333333333258,"durationTicks":455,"midi":50,"name":"D3","ticks":84000,"time":140,"velocity":0.6299212598425197},{"duration":0.7583333333333258,"durationTicks":455,"midi":53,"name":"F3","ticks":84000,"time":140,"velocity":0.6299212598425197},{"duration":0.7583333333333258,"durationTicks":455,"midi":53,"name":"F3","ticks":84480,"time":140.8,"velocity":0.6299212598425197},{"duration":0.7583333333333258,"durationTicks":455,"midi":57,"name":"A3","ticks":84480,"time":140.8,"velocity":0.6299212598425197},{"duration":0.7583333333333258,"durationTicks":455,"midi":60,"name":"C4","ticks":84480,"time":140.8,"velocity":0.6299212598425197},{"duration":0.7583333333333258,"durationTicks":455,"midi":53,"name":"F3","ticks":84960,"time":141.6,"velocity":0.6299212598425197},{"duration":0.7583333333333258,"durationTicks":455,"midi":57,"name":"A3","ticks":84960,"time":141.6,"velocity":0.6299212598425197},{"duration":0.7583333333333258,"durationTicks":455,"midi":60,"name":"C4","ticks":84960,"time":141.6,"velocity":0.6299212598425197},{"duration":0.7583333333333258,"durationTicks":455,"midi":53,"name":"F3","ticks":85440,"time":142.4,"velocity":0.6299212598425197},{"duration":0.7583333333333258,"durationTicks":455,"midi":57,"name":"A3","ticks":85440,"time":142.4,"velocity":0.6299212598425197},{"duration":0.7583333333333258,"durationTicks":455,"midi":60,"name":"C4","ticks":85440,"time":142.4,"velocity":0.6299212598425197},{"duration":0.7583333333333258,"durationTicks":455,"midi":53,"name":"F3","ticks":85920,"time":143.20000000000002,"velocity":0.6299212598425197},{"duration":0.7583333333333258,"durationTicks":455,"midi":57,"name":"A3","ticks":85920,"time":143.20000000000002,"velocity":0.6299212598425197},{"duration":0.7583333333333258,"durationTicks":455,"midi":60,"name":"C4","ticks":85920,"time":143.20000000000002,"velocity":0.6299212598425197},{"duration":0.7583333333333258,"durationTicks":455,"midi":53,"name":"F3","ticks":86400,"time":144,"velocity":0.6299212598425197},{"duration":0.7583333333333258,"durationTicks":455,"midi":55,"name":"G3","ticks":86400,"time":144,"velocity":0.6299212598425197},{"duration":0.7583333333333258,"durationTicks":455,"midi":60,"name":"C4","ticks":86400,"time":144,"velocity":0.6299212598425197},{"duration":0.7583333333333258,"durationTicks":455,"midi":53,"name":"F3","ticks":86880,"time":144.8,"velocity":0.6299212598425197},{"duration":0.7583333333333258,"durationTicks":455,"midi":55,"name":"G3","ticks":86880,"time":144.8,"velocity":0.6299212598425197},{"duration":0.7583333333333258,"durationTicks":455,"midi":60,"name":"C4","ticks":86880,"time":144.8,"velocity":0.6299212598425197},{"duration":0.7583333333333258,"durationTicks":455,"midi":53,"name":"F3","ticks":87360,"time":145.6,"velocity":0.6299212598425197},{"duration":0.7583333333333258,"durationTicks":455,"midi":55,"name":"G3","ticks":87360,"time":145.6,"velocity":0.6299212598425197},{"duration":0.7583333333333258,"durationTicks":455,"midi":60,"name":"C4","ticks":87360,"time":145.6,"velocity":0.6299212598425197},{"duration":0.7583333333333258,"durationTicks":455,"midi":53,"name":"F3","ticks":87840,"time":146.4,"velocity":0.6299212598425197},{"duration":0.7583333333333258,"durationTicks":455,"midi":55,"name":"G3","ticks":87840,"time":146.4,"velocity":0.6299212598425197},{"duration":0.7583333333333258,"durationTicks":455,"midi":60,"name":"C4","ticks":87840,"time":146.4,"velocity":0.6299212598425197},{"duration":0.7583333333333258,"durationTicks":455,"midi":50,"name":"D3","ticks":88320,"time":147.20000000000002,"velocity":0.6299212598425197},{"duration":0.7583333333333258,"durationTicks":455,"midi":53,"name":"F3","ticks":88320,"time":147.20000000000002,"velocity":0.6299212598425197},{"duration":0.7583333333333258,"durationTicks":455,"midi":57,"name":"A3","ticks":88320,"time":147.20000000000002,"velocity":0.6299212598425197},{"duration":0.7583333333333258,"durationTicks":455,"midi":60,"name":"C4","ticks":88320,"time":147.20000000000002,"velocity":0.6299212598425197},{"duration":0.7583333333333258,"durationTicks":455,"midi":50,"name":"D3","ticks":88800,"time":148,"velocity":0.6299212598425197},{"duration":0.7583333333333258,"durationTicks":455,"midi":53,"name":"F3","ticks":88800,"time":148,"velocity":0.6299212598425197},{"duration":0.7583333333333258,"durationTicks":455,"midi":57,"name":"A3","ticks":88800,"time":148,"velocity":0.6299212598425197},{"duration":0.7583333333333258,"durationTicks":455,"midi":60,"name":"C4","ticks":88800,"time":148,"velocity":0.6299212598425197},{"duration":0.7583333333333258,"durationTicks":455,"midi":50,"name":"D3","ticks":89280,"time":148.8,"velocity":0.6299212598425197},{"duration":0.7583333333333258,"durationTicks":455,"midi":53,"name":"F3","ticks":89280,"time":148.8,"velocity":0.6299212598425197},{"duration":0.7583333333333258,"durationTicks":455,"midi":57,"name":"A3","ticks":89280,"time":148.8,"velocity":0.6299212598425197},{"duration":0.7583333333333258,"durationTicks":455,"midi":60,"name":"C4","ticks":89280,"time":148.8,"velocity":0.6299212598425197},{"duration":0.7583333333333258,"durationTicks":455,"midi":50,"name":"D3","ticks":89760,"time":149.6,"velocity":0.6299212598425197},{"duration":0.7583333333333258,"durationTicks":455,"midi":53,"name":"F3","ticks":89760,"time":149.6,"velocity":0.6299212598425197},{"duration":0.7583333333333258,"durationTicks":455,"midi":57,"name":"A3","ticks":89760,"time":149.6,"velocity":0.6299212598425197},{"duration":0.7583333333333258,"durationTicks":455,"midi":60,"name":"C4","ticks":89760,"time":149.6,"velocity":0.6299212598425197},{"duration":0.7583333333333258,"durationTicks":455,"midi":46,"name":"A#2","ticks":90240,"time":150.4,"velocity":0.6299212598425197},{"duration":0.7583333333333258,"durationTicks":455,"midi":50,"name":"D3","ticks":90240,"time":150.4,"velocity":0.6299212598425197},{"duration":0.7583333333333258,"durationTicks":455,"midi":53,"name":"F3","ticks":90240,"time":150.4,"velocity":0.6299212598425197},{"duration":0.7583333333333258,"durationTicks":455,"midi":46,"name":"A#2","ticks":90720,"time":151.20000000000002,"velocity":0.6299212598425197},{"duration":0.7583333333333258,"durationTicks":455,"midi":50,"name":"D3","ticks":90720,"time":151.20000000000002,"velocity":0.6299212598425197},{"duration":0.7583333333333258,"durationTicks":455,"midi":53,"name":"F3","ticks":90720,"time":151.20000000000002,"velocity":0.6299212598425197},{"duration":0.7583333333333258,"durationTicks":455,"midi":46,"name":"A#2","ticks":91200,"time":152,"velocity":0.6299212598425197},{"duration":0.7583333333333258,"durationTicks":455,"midi":50,"name":"D3","ticks":91200,"time":152,"velocity":0.6299212598425197},{"duration":0.7583333333333258,"durationTicks":455,"midi":53,"name":"F3","ticks":91200,"time":152,"velocity":0.6299212598425197},{"duration":0.7583333333333258,"durationTicks":455,"midi":46,"name":"A#2","ticks":91680,"time":152.8,"velocity":0.6299212598425197},{"duration":0.7583333333333258,"durationTicks":455,"midi":50,"name":"D3","ticks":91680,"time":152.8,"velocity":0.6299212598425197},{"duration":0.7583333333333258,"durationTicks":455,"midi":53,"name":"F3","ticks":91680,"time":152.8,"velocity":0.6299212598425197},{"duration":0.7583333333333258,"durationTicks":455,"midi":53,"name":"F3","ticks":92160,"time":153.60000000000002,"velocity":0.6299212598425197},{"duration":0.7583333333333258,"durationTicks":455,"midi":57,"name":"A3","ticks":92160,"time":153.60000000000002,"velocity":0.6299212598425197},{"duration":0.7583333333333258,"durationTicks":455,"midi":60,"name":"C4","ticks":92160,"time":153.60000000000002,"velocity":0.6299212598425197},{"duration":0.7583333333333258,"durationTicks":455,"midi":53,"name":"F3","ticks":92640,"time":154.4,"velocity":0.6299212598425197},{"duration":0.7583333333333258,"durationTicks":455,"midi":57,"name":"A3","ticks":92640,"time":154.4,"velocity":0.6299212598425197},{"duration":0.7583333333333258,"durationTicks":455,"midi":60,"name":"C4","ticks":92640,"time":154.4,"velocity":0.6299212598425197},{"duration":0.7583333333333258,"durationTicks":455,"midi":53,"name":"F3","ticks":93120,"time":155.20000000000002,"velocity":0.6299212598425197},{"duration":0.7583333333333258,"durationTicks":455,"midi":57,"name":"A3","ticks":93120,"time":155.20000000000002,"velocity":0.6299212598425197},{"duration":0.7583333333333258,"durationTicks":455,"midi":60,"name":"C4","ticks":93120,"time":155.20000000000002,"velocity":0.6299212598425197},{"duration":0.7583333333333258,"durationTicks":455,"midi":53,"name":"F3","ticks":93600,"time":156,"velocity":0.6299212598425197},{"duration":0.7583333333333258,"durationTicks":455,"midi":57,"name":"A3","ticks":93600,"time":156,"velocity":0.6299212598425197},{"duration":0.7583333333333258,"durationTicks":455,"midi":60,"name":"C4","ticks":93600,"time":156,"velocity":0.6299212598425197},{"duration":0.7583333333333258,"durationTicks":455,"midi":53,"name":"F3","ticks":94080,"time":156.8,"velocity":0.6299212598425197},{"duration":0.7583333333333258,"durationTicks":455,"midi":55,"name":"G3","ticks":94080,"time":156.8,"velocity":0.6299212598425197},{"duration":0.7583333333333258,"durationTicks":455,"midi":60,"name":"C4","ticks":94080,"time":156.8,"velocity":0.6299212598425197},{"duration":0.7583333333333258,"durationTicks":455,"midi":53,"name":"F3","ticks":94560,"time":157.60000000000002,"velocity":0.6299212598425197},{"duration":0.7583333333333258,"durationTicks":455,"midi":55,"name":"G3","ticks":94560,"time":157.60000000000002,"velocity":0.6299212598425197},{"duration":0.7583333333333258,"durationTicks":455,"midi":60,"name":"C4","ticks":94560,"time":157.60000000000002,"velocity":0.6299212598425197},{"duration":0.7583333333333258,"durationTicks":455,"midi":53,"name":"F3","ticks":95040,"time":158.4,"velocity":0.6299212598425197},{"duration":0.7583333333333258,"durationTicks":455,"midi":55,"name":"G3","ticks":95040,"time":158.4,"velocity":0.6299212598425197},{"duration":0.7583333333333258,"durationTicks":455,"midi":60,"name":"C4","ticks":95040,"time":158.4,"velocity":0.6299212598425197},{"duration":0.7583333333333258,"durationTicks":455,"midi":53,"name":"F3","ticks":95520,"time":159.20000000000002,"velocity":0.6299212598425197},{"duration":0.7583333333333258,"durationTicks":455,"midi":55,"name":"G3","ticks":95520,"time":159.20000000000002,"velocity":0.6299212598425197},{"duration":0.7583333333333258,"durationTicks":455,"midi":60,"name":"C4","ticks":95520,"time":159.20000000000002,"velocity":0.6299212598425197},{"duration":0.7583333333333258,"durationTicks":455,"midi":50,"name":"D3","ticks":96000,"time":160,"velocity":0.6299212598425197},{"duration":0.7583333333333258,"durationTicks":455,"midi":53,"name":"F3","ticks":96000,"time":160,"velocity":0.6299212598425197},{"duration":0.7583333333333258,"durationTicks":455,"midi":57,"name":"A3","ticks":96000,"time":160,"velocity":0.6299212598425197},{"duration":0.7583333333333258,"durationTicks":455,"midi":60,"name":"C4","ticks":96000,"time":160,"velocity":0.6299212598425197},{"duration":0.7583333333333258,"durationTicks":455,"midi":50,"name":"D3","ticks":96480,"time":160.8,"velocity":0.6299212598425197},{"duration":0.7583333333333258,"durationTicks":455,"midi":53,"name":"F3","ticks":96480,"time":160.8,"velocity":0.6299212598425197},{"duration":0.7583333333333258,"durationTicks":455,"midi":57,"name":"A3","ticks":96480,"time":160.8,"velocity":0.6299212598425197},{"duration":0.7583333333333258,"durationTicks":455,"midi":60,"name":"C4","ticks":96480,"time":160.8,"velocity":0.6299212598425197},{"duration":0.7583333333333258,"durationTicks":455,"midi":50,"name":"D3","ticks":96960,"time":161.60000000000002,"velocity":0.6299212598425197},{"duration":0.7583333333333258,"durationTicks":455,"midi":53,"name":"F3","ticks":96960,"time":161.60000000000002,"velocity":0.6299212598425197},{"duration":0.7583333333333258,"durationTicks":455,"midi":57,"name":"A3","ticks":96960,"time":161.60000000000002,"velocity":0.6299212598425197},{"duration":0.7583333333333258,"durationTicks":455,"midi":60,"name":"C4","ticks":96960,"time":161.60000000000002,"velocity":0.6299212598425197},{"duration":0.7583333333333258,"durationTicks":455,"midi":50,"name":"D3","ticks":97440,"time":162.4,"velocity":0.6299212598425197},{"duration":0.7583333333333258,"durationTicks":455,"midi":53,"name":"F3","ticks":97440,"time":162.4,"velocity":0.6299212598425197},{"duration":0.7583333333333258,"durationTicks":455,"midi":57,"name":"A3","ticks":97440,"time":162.4,"velocity":0.6299212598425197},{"duration":0.7583333333333258,"durationTicks":455,"midi":60,"name":"C4","ticks":97440,"time":162.4,"velocity":0.6299212598425197},{"duration":0.7583333333333258,"durationTicks":455,"midi":46,"name":"A#2","ticks":97920,"time":163.20000000000002,"velocity":0.6299212598425197},{"duration":0.7583333333333258,"durationTicks":455,"midi":50,"name":"D3","ticks":97920,"time":163.20000000000002,"velocity":0.6299212598425197},{"duration":0.7583333333333258,"durationTicks":455,"midi":53,"name":"F3","ticks":97920,"time":163.20000000000002,"velocity":0.6299212598425197},{"duration":0.7583333333333258,"durationTicks":455,"midi":46,"name":"A#2","ticks":98400,"time":164,"velocity":0.6299212598425197},{"duration":0.7583333333333258,"durationTicks":455,"midi":50,"name":"D3","ticks":98400,"time":164,"velocity":0.6299212598425197},{"duration":0.7583333333333258,"durationTicks":455,"midi":53,"name":"F3","ticks":98400,"time":164,"velocity":0.6299212598425197},{"duration":0.7583333333333258,"durationTicks":455,"midi":46,"name":"A#2","ticks":98880,"time":164.8,"velocity":0.6299212598425197},{"duration":0.7583333333333258,"durationTicks":455,"midi":50,"name":"D3","ticks":98880,"time":164.8,"velocity":0.6299212598425197},{"duration":0.7583333333333258,"durationTicks":455,"midi":53,"name":"F3","ticks":98880,"time":164.8,"velocity":0.6299212598425197},{"duration":0.7583333333333258,"durationTicks":455,"midi":46,"name":"A#2","ticks":99360,"time":165.60000000000002,"velocity":0.6299212598425197},{"duration":0.7583333333333258,"durationTicks":455,"midi":50,"name":"D3","ticks":99360,"time":165.60000000000002,"velocity":0.6299212598425197},{"duration":0.7583333333333258,"durationTicks":455,"midi":53,"name":"F3","ticks":99360,"time":165.60000000000002,"velocity":0.6299212598425197},{"duration":0.7583333333333258,"durationTicks":455,"midi":53,"name":"F3","ticks":99840,"time":166.4,"velocity":0.6299212598425197},{"duration":0.7583333333333258,"durationTicks":455,"midi":57,"name":"A3","ticks":99840,"time":166.4,"velocity":0.6299212598425197},{"duration":0.7583333333333258,"durationTicks":455,"midi":60,"name":"C4","ticks":99840,"time":166.4,"velocity":0.6299212598425197},{"duration":0.7583333333333258,"durationTicks":455,"midi":53,"name":"F3","ticks":100320,"time":167.20000000000002,"velocity":0.6299212598425197},{"duration":0.7583333333333258,"durationTicks":455,"midi":57,"name":"A3","ticks":100320,"time":167.20000000000002,"velocity":0.6299212598425197},{"duration":0.7583333333333258,"durationTicks":455,"midi":60,"name":"C4","ticks":100320,"time":167.20000000000002,"velocity":0.6299212598425197},{"duration":0.7583333333333258,"durationTicks":455,"midi":53,"name":"F3","ticks":100800,"time":168,"velocity":0.6299212598425197},{"duration":0.7583333333333258,"durationTicks":455,"midi":57,"name":"A3","ticks":100800,"time":168,"velocity":0.6299212598425197},{"duration":0.7583333333333258,"durationTicks":455,"midi":60,"name":"C4","ticks":100800,"time":168,"velocity":0.6299212598425197},{"duration":0.7583333333333258,"durationTicks":455,"midi":53,"name":"F3","ticks":101280,"time":168.8,"velocity":0.6299212598425197},{"duration":0.7583333333333258,"durationTicks":455,"midi":57,"name":"A3","ticks":101280,"time":168.8,"velocity":0.6299212598425197},{"duration":0.7583333333333258,"durationTicks":455,"midi":60,"name":"C4","ticks":101280,"time":168.8,"velocity":0.6299212598425197},{"duration":0.7583333333333258,"durationTicks":455,"midi":53,"name":"F3","ticks":101760,"time":169.60000000000002,"velocity":0.6299212598425197},{"duration":0.7583333333333258,"durationTicks":455,"midi":55,"name":"G3","ticks":101760,"time":169.60000000000002,"velocity":0.6299212598425197},{"duration":0.7583333333333258,"durationTicks":455,"midi":60,"name":"C4","ticks":101760,"time":169.60000000000002,"velocity":0.6299212598425197},{"duration":0.7583333333333258,"durationTicks":455,"midi":53,"name":"F3","ticks":102240,"time":170.4,"velocity":0.6299212598425197},{"duration":0.7583333333333258,"durationTicks":455,"midi":55,"name":"G3","ticks":102240,"time":170.4,"velocity":0.6299212598425197},{"duration":0.7583333333333258,"durationTicks":455,"midi":60,"name":"C4","ticks":102240,"time":170.4,"velocity":0.6299212598425197},{"duration":0.7583333333333258,"durationTicks":455,"midi":53,"name":"F3","ticks":102720,"time":171.20000000000002,"velocity":0.6299212598425197},{"duration":0.7583333333333258,"durationTicks":455,"midi":55,"name":"G3","ticks":102720,"time":171.20000000000002,"velocity":0.6299212598425197},{"duration":0.7583333333333258,"durationTicks":455,"midi":60,"name":"C4","ticks":102720,"time":171.20000000000002,"velocity":0.6299212598425197},{"duration":0.7583333333333258,"durationTicks":455,"midi":53,"name":"F3","ticks":103200,"time":172,"velocity":0.6299212598425197},{"duration":0.7583333333333258,"durationTicks":455,"midi":55,"name":"G3","ticks":103200,"time":172,"velocity":0.6299212598425197},{"duration":0.7583333333333258,"durationTicks":455,"midi":60,"name":"C4","ticks":103200,"time":172,"velocity":0.6299212598425197},{"duration":0.7583333333333258,"durationTicks":455,"midi":50,"name":"D3","ticks":103680,"time":172.8,"velocity":0.6299212598425197},{"duration":0.7583333333333258,"durationTicks":455,"midi":53,"name":"F3","ticks":103680,"time":172.8,"velocity":0.6299212598425197},{"duration":0.7583333333333258,"durationTicks":455,"midi":57,"name":"A3","ticks":103680,"time":172.8,"velocity":0.6299212598425197},{"duration":0.7583333333333258,"durationTicks":455,"midi":60,"name":"C4","ticks":103680,"time":172.8,"velocity":0.6299212598425197},{"duration":0.7583333333333258,"durationTicks":455,"midi":50,"name":"D3","ticks":104160,"time":173.60000000000002,"velocity":0.6299212598425197},{"duration":0.7583333333333258,"durationTicks":455,"midi":53,"name":"F3","ticks":104160,"time":173.60000000000002,"velocity":0.6299212598425197},{"duration":0.7583333333333258,"durationTicks":455,"midi":57,"name":"A3","ticks":104160,"time":173.60000000000002,"velocity":0.6299212598425197},{"duration":0.7583333333333258,"durationTicks":455,"midi":60,"name":"C4","ticks":104160,"time":173.60000000000002,"velocity":0.6299212598425197},{"duration":0.7583333333333258,"durationTicks":455,"midi":50,"name":"D3","ticks":104640,"time":174.4,"velocity":0.6299212598425197},{"duration":0.7583333333333258,"durationTicks":455,"midi":53,"name":"F3","ticks":104640,"time":174.4,"velocity":0.6299212598425197},{"duration":0.7583333333333258,"durationTicks":455,"midi":57,"name":"A3","ticks":104640,"time":174.4,"velocity":0.6299212598425197},{"duration":0.7583333333333258,"durationTicks":455,"midi":60,"name":"C4","ticks":104640,"time":174.4,"velocity":0.6299212598425197},{"duration":0.7583333333333258,"durationTicks":455,"midi":50,"name":"D3","ticks":105120,"time":175.20000000000002,"velocity":0.6299212598425197},{"duration":0.7583333333333258,"durationTicks":455,"midi":53,"name":"F3","ticks":105120,"time":175.20000000000002,"velocity":0.6299212598425197},{"duration":0.7583333333333258,"durationTicks":455,"midi":57,"name":"A3","ticks":105120,"time":175.20000000000002,"velocity":0.6299212598425197},{"duration":0.7583333333333258,"durationTicks":455,"midi":60,"name":"C4","ticks":105120,"time":175.20000000000002,"velocity":0.6299212598425197},{"duration":0.7583333333333258,"durationTicks":455,"midi":46,"name":"A#2","ticks":105600,"time":176,"velocity":0.6299212598425197},{"duration":0.7583333333333258,"durationTicks":455,"midi":50,"name":"D3","ticks":105600,"time":176,"velocity":0.6299212598425197},{"duration":0.7583333333333258,"durationTicks":455,"midi":53,"name":"F3","ticks":105600,"time":176,"velocity":0.6299212598425197},{"duration":0.7583333333333258,"durationTicks":455,"midi":46,"name":"A#2","ticks":106080,"time":176.8,"velocity":0.6299212598425197},{"duration":0.7583333333333258,"durationTicks":455,"midi":50,"name":"D3","ticks":106080,"time":176.8,"velocity":0.6299212598425197},{"duration":0.7583333333333258,"durationTicks":455,"midi":53,"name":"F3","ticks":106080,"time":176.8,"velocity":0.6299212598425197},{"duration":0.7583333333333258,"durationTicks":455,"midi":46,"name":"A#2","ticks":106560,"time":177.60000000000002,"velocity":0.6299212598425197},{"duration":0.7583333333333258,"durationTicks":455,"midi":50,"name":"D3","ticks":106560,"time":177.60000000000002,"velocity":0.6299212598425197},{"duration":0.7583333333333258,"durationTicks":455,"midi":53,"name":"F3","ticks":106560,"time":177.60000000000002,"velocity":0.6299212598425197},{"duration":0.7583333333333258,"durationTicks":455,"midi":46,"name":"A#2","ticks":107040,"time":178.4,"velocity":0.6299212598425197},{"duration":0.7583333333333258,"durationTicks":455,"midi":50,"name":"D3","ticks":107040,"time":178.4,"velocity":0.6299212598425197},{"duration":0.7583333333333258,"durationTicks":455,"midi":53,"name":"F3","ticks":107040,"time":178.4,"velocity":0.6299212598425197},{"duration":0.7583333333333258,"durationTicks":455,"midi":53,"name":"F3","ticks":107520,"time":179.20000000000002,"velocity":0.6299212598425197},{"duration":0.7583333333333258,"durationTicks":455,"midi":57,"name":"A3","ticks":107520,"time":179.20000000000002,"velocity":0.6299212598425197},{"duration":0.7583333333333258,"durationTicks":455,"midi":60,"name":"C4","ticks":107520,"time":179.20000000000002,"velocity":0.6299212598425197},{"duration":0.7583333333333258,"durationTicks":455,"midi":53,"name":"F3","ticks":108000,"time":180,"velocity":0.6299212598425197},{"duration":0.7583333333333258,"durationTicks":455,"midi":57,"name":"A3","ticks":108000,"time":180,"velocity":0.6299212598425197},{"duration":0.7583333333333258,"durationTicks":455,"midi":60,"name":"C4","ticks":108000,"time":180,"velocity":0.6299212598425197},{"duration":0.7583333333333258,"durationTicks":455,"midi":53,"name":"F3","ticks":108480,"time":180.8,"velocity":0.6299212598425197},{"duration":0.7583333333333258,"durationTicks":455,"midi":57,"name":"A3","ticks":108480,"time":180.8,"velocity":0.6299212598425197},{"duration":0.7583333333333258,"durationTicks":455,"midi":60,"name":"C4","ticks":108480,"time":180.8,"velocity":0.6299212598425197},{"duration":0.7583333333333258,"durationTicks":455,"midi":53,"name":"F3","ticks":108960,"time":181.60000000000002,"velocity":0.6299212598425197},{"duration":0.7583333333333258,"durationTicks":455,"midi":57,"name":"A3","ticks":108960,"time":181.60000000000002,"velocity":0.6299212598425197},{"duration":0.7583333333333258,"durationTicks":455,"midi":60,"name":"C4","ticks":108960,"time":181.60000000000002,"velocity":0.6299212598425197},{"duration":0.7583333333333258,"durationTicks":455,"midi":53,"name":"F3","ticks":109440,"time":182.4,"velocity":0.6299212598425197},{"duration":0.7583333333333258,"durationTicks":455,"midi":55,"name":"G3","ticks":109440,"time":182.4,"velocity":0.6299212598425197},{"duration":0.7583333333333258,"durationTicks":455,"midi":60,"name":"C4","ticks":109440,"time":182.4,"velocity":0.6299212598425197},{"duration":0.7583333333333258,"durationTicks":455,"midi":53,"name":"F3","ticks":109920,"time":183.20000000000002,"velocity":0.6299212598425197},{"duration":0.7583333333333258,"durationTicks":455,"midi":55,"name":"G3","ticks":109920,"time":183.20000000000002,"velocity":0.6299212598425197},{"duration":0.7583333333333258,"durationTicks":455,"midi":60,"name":"C4","ticks":109920,"time":183.20000000000002,"velocity":0.6299212598425197},{"duration":0.7583333333333258,"durationTicks":455,"midi":53,"name":"F3","ticks":110400,"time":184,"velocity":0.6299212598425197},{"duration":0.7583333333333258,"durationTicks":455,"midi":55,"name":"G3","ticks":110400,"time":184,"velocity":0.6299212598425197},{"duration":0.7583333333333258,"durationTicks":455,"midi":60,"name":"C4","ticks":110400,"time":184,"velocity":0.6299212598425197},{"duration":0.7583333333333258,"durationTicks":455,"midi":53,"name":"F3","ticks":110880,"time":184.8,"velocity":0.6299212598425197},{"duration":0.7583333333333258,"durationTicks":455,"midi":55,"name":"G3","ticks":110880,"time":184.8,"velocity":0.6299212598425197},{"duration":0.7583333333333258,"durationTicks":455,"midi":60,"name":"C4","ticks":110880,"time":184.8,"velocity":0.6299212598425197},{"duration":0.7583333333333258,"durationTicks":455,"midi":46,"name":"A#2","ticks":111360,"time":185.60000000000002,"velocity":0.6299212598425197},{"duration":0.7583333333333258,"durationTicks":455,"midi":50,"name":"D3","ticks":111360,"time":185.60000000000002,"velocity":0.6299212598425197},{"duration":0.7583333333333258,"durationTicks":455,"midi":53,"name":"F3","ticks":111360,"time":185.60000000000002,"velocity":0.6299212598425197},{"duration":0.7583333333333258,"durationTicks":455,"midi":46,"name":"A#2","ticks":111840,"time":186.4,"velocity":0.6299212598425197},{"duration":0.7583333333333258,"durationTicks":455,"midi":50,"name":"D3","ticks":111840,"time":186.4,"velocity":0.6299212598425197},{"duration":0.7583333333333258,"durationTicks":455,"midi":53,"name":"F3","ticks":111840,"time":186.4,"velocity":0.6299212598425197},{"duration":0.7583333333333258,"durationTicks":455,"midi":46,"name":"A#2","ticks":112320,"time":187.20000000000002,"velocity":0.6299212598425197},{"duration":0.7583333333333258,"durationTicks":455,"midi":50,"name":"D3","ticks":112320,"time":187.20000000000002,"velocity":0.6299212598425197},{"duration":0.7583333333333258,"durationTicks":455,"midi":53,"name":"F3","ticks":112320,"time":187.20000000000002,"velocity":0.6299212598425197},{"duration":0.7583333333333258,"durationTicks":455,"midi":46,"name":"A#2","ticks":112800,"time":188,"velocity":0.6299212598425197},{"duration":0.7583333333333258,"durationTicks":455,"midi":50,"name":"D3","ticks":112800,"time":188,"velocity":0.6299212598425197},{"duration":0.7583333333333258,"durationTicks":455,"midi":53,"name":"F3","ticks":112800,"time":188,"velocity":0.6299212598425197},{"duration":0.7583333333333258,"durationTicks":455,"midi":46,"name":"A#2","ticks":113280,"time":188.8,"velocity":0.6299212598425197},{"duration":0.7583333333333258,"durationTicks":455,"midi":50,"name":"D3","ticks":113280,"time":188.8,"velocity":0.6299212598425197},{"duration":0.7583333333333258,"durationTicks":455,"midi":53,"name":"F3","ticks":113280,"time":188.8,"velocity":0.6299212598425197},{"duration":0.7583333333333258,"durationTicks":455,"midi":46,"name":"A#2","ticks":113760,"time":189.60000000000002,"velocity":0.6299212598425197},{"duration":0.7583333333333258,"durationTicks":455,"midi":50,"name":"D3","ticks":113760,"time":189.60000000000002,"velocity":0.6299212598425197},{"duration":0.7583333333333258,"durationTicks":455,"midi":53,"name":"F3","ticks":113760,"time":189.60000000000002,"velocity":0.6299212598425197},{"duration":0.7583333333333258,"durationTicks":455,"midi":46,"name":"A#2","ticks":114240,"time":190.4,"velocity":0.6299212598425197},{"duration":0.7583333333333258,"durationTicks":455,"midi":50,"name":"D3","ticks":114240,"time":190.4,"velocity":0.6299212598425197},{"duration":0.7583333333333258,"durationTicks":455,"midi":53,"name":"F3","ticks":114240,"time":190.4,"velocity":0.6299212598425197},{"duration":0.7583333333333258,"durationTicks":455,"midi":46,"name":"A#2","ticks":114720,"time":191.20000000000002,"velocity":0.6299212598425197},{"duration":0.7583333333333258,"durationTicks":455,"midi":50,"name":"D3","ticks":114720,"time":191.20000000000002,"velocity":0.6299212598425197},{"duration":0.7583333333333258,"durationTicks":455,"midi":53,"name":"F3","ticks":114720,"time":191.20000000000002,"velocity":0.6299212598425197},{"duration":0.7583333333333258,"durationTicks":455,"midi":53,"name":"F3","ticks":115200,"time":192,"velocity":0.6299212598425197},{"duration":0.7583333333333258,"durationTicks":455,"midi":57,"name":"A3","ticks":115200,"time":192,"velocity":0.6299212598425197},{"duration":0.7583333333333258,"durationTicks":455,"midi":60,"name":"C4","ticks":115200,"time":192,"velocity":0.6299212598425197},{"duration":0.7583333333333258,"durationTicks":455,"midi":53,"name":"F3","ticks":115680,"time":192.8,"velocity":0.6299212598425197},{"duration":0.7583333333333258,"durationTicks":455,"midi":57,"name":"A3","ticks":115680,"time":192.8,"velocity":0.6299212598425197},{"duration":0.7583333333333258,"durationTicks":455,"midi":60,"name":"C4","ticks":115680,"time":192.8,"velocity":0.6299212598425197},{"duration":0.7583333333333258,"durationTicks":455,"midi":53,"name":"F3","ticks":116160,"time":193.60000000000002,"velocity":0.6299212598425197},{"duration":0.7583333333333258,"durationTicks":455,"midi":57,"name":"A3","ticks":116160,"time":193.60000000000002,"velocity":0.6299212598425197},{"duration":0.7583333333333258,"durationTicks":455,"midi":60,"name":"C4","ticks":116160,"time":193.60000000000002,"velocity":0.6299212598425197},{"duration":0.7583333333333258,"durationTicks":455,"midi":53,"name":"F3","ticks":116640,"time":194.4,"velocity":0.6299212598425197},{"duration":0.7583333333333258,"durationTicks":455,"midi":57,"name":"A3","ticks":116640,"time":194.4,"velocity":0.6299212598425197},{"duration":0.7583333333333258,"durationTicks":455,"midi":60,"name":"C4","ticks":116640,"time":194.4,"velocity":0.6299212598425197},{"duration":0.7583333333333258,"durationTicks":455,"midi":53,"name":"F3","ticks":117120,"time":195.20000000000002,"velocity":0.6299212598425197},{"duration":0.7583333333333258,"durationTicks":455,"midi":55,"name":"G3","ticks":117120,"time":195.20000000000002,"velocity":0.6299212598425197},{"duration":0.7583333333333258,"durationTicks":455,"midi":60,"name":"C4","ticks":117120,"time":195.20000000000002,"velocity":0.6299212598425197},{"duration":0.7583333333333258,"durationTicks":455,"midi":53,"name":"F3","ticks":117600,"time":196,"velocity":0.6299212598425197},{"duration":0.7583333333333258,"durationTicks":455,"midi":55,"name":"G3","ticks":117600,"time":196,"velocity":0.6299212598425197},{"duration":0.7583333333333258,"durationTicks":455,"midi":60,"name":"C4","ticks":117600,"time":196,"velocity":0.6299212598425197},{"duration":0.7583333333333258,"durationTicks":455,"midi":53,"name":"F3","ticks":118080,"time":196.8,"velocity":0.6299212598425197},{"duration":0.7583333333333258,"durationTicks":455,"midi":55,"name":"G3","ticks":118080,"time":196.8,"velocity":0.6299212598425197},{"duration":0.7583333333333258,"durationTicks":455,"midi":60,"name":"C4","ticks":118080,"time":196.8,"velocity":0.6299212598425197},{"duration":0.7583333333333258,"durationTicks":455,"midi":53,"name":"F3","ticks":118560,"time":197.60000000000002,"velocity":0.6299212598425197},{"duration":0.7583333333333258,"durationTicks":455,"midi":55,"name":"G3","ticks":118560,"time":197.60000000000002,"velocity":0.6299212598425197},{"duration":0.7583333333333258,"durationTicks":455,"midi":60,"name":"C4","ticks":118560,"time":197.60000000000002,"velocity":0.6299212598425197},{"duration":0.7583333333333258,"durationTicks":455,"midi":46,"name":"A#2","ticks":119040,"time":198.4,"velocity":0.6299212598425197},{"duration":0.7583333333333258,"durationTicks":455,"midi":50,"name":"D3","ticks":119040,"time":198.4,"velocity":0.6299212598425197},{"duration":0.7583333333333258,"durationTicks":455,"midi":53,"name":"F3","ticks":119040,"time":198.4,"velocity":0.6299212598425197},{"duration":0.7583333333333258,"durationTicks":455,"midi":46,"name":"A#2","ticks":119520,"time":199.20000000000002,"velocity":0.6299212598425197},{"duration":0.7583333333333258,"durationTicks":455,"midi":50,"name":"D3","ticks":119520,"time":199.20000000000002,"velocity":0.6299212598425197},{"duration":0.7583333333333258,"durationTicks":455,"midi":53,"name":"F3","ticks":119520,"time":199.20000000000002,"velocity":0.6299212598425197},{"duration":0.7583333333333258,"durationTicks":455,"midi":46,"name":"A#2","ticks":120000,"time":200,"velocity":0.6299212598425197},{"duration":0.7583333333333258,"durationTicks":455,"midi":50,"name":"D3","ticks":120000,"time":200,"velocity":0.6299212598425197},{"duration":0.7583333333333258,"durationTicks":455,"midi":53,"name":"F3","ticks":120000,"time":200,"velocity":0.6299212598425197},{"duration":0.7583333333333258,"durationTicks":455,"midi":46,"name":"A#2","ticks":120480,"time":200.8,"velocity":0.6299212598425197},{"duration":0.7583333333333258,"durationTicks":455,"midi":50,"name":"D3","ticks":120480,"time":200.8,"velocity":0.6299212598425197},{"duration":0.7583333333333258,"durationTicks":455,"midi":53,"name":"F3","ticks":120480,"time":200.8,"velocity":0.6299212598425197},{"duration":0.7583333333333258,"durationTicks":455,"midi":46,"name":"A#2","ticks":120960,"time":201.60000000000002,"velocity":0.6299212598425197},{"duration":0.7583333333333258,"durationTicks":455,"midi":50,"name":"D3","ticks":120960,"time":201.60000000000002,"velocity":0.6299212598425197},{"duration":0.7583333333333258,"durationTicks":455,"midi":53,"name":"F3","ticks":120960,"time":201.60000000000002,"velocity":0.6299212598425197},{"duration":0.7583333333333258,"durationTicks":455,"midi":46,"name":"A#2","ticks":121440,"time":202.4,"velocity":0.6299212598425197},{"duration":0.7583333333333258,"durationTicks":455,"midi":50,"name":"D3","ticks":121440,"time":202.4,"velocity":0.6299212598425197},{"duration":0.7583333333333258,"durationTicks":455,"midi":53,"name":"F3","ticks":121440,"time":202.4,"velocity":0.6299212598425197},{"duration":0.7583333333333258,"durationTicks":455,"midi":46,"name":"A#2","ticks":121920,"time":203.20000000000002,"velocity":0.6299212598425197},{"duration":0.7583333333333258,"durationTicks":455,"midi":50,"name":"D3","ticks":121920,"time":203.20000000000002,"velocity":0.6299212598425197},{"duration":0.7583333333333258,"durationTicks":455,"midi":53,"name":"F3","ticks":121920,"time":203.20000000000002,"velocity":0.6299212598425197},{"duration":0.7583333333333258,"durationTicks":455,"midi":46,"name":"A#2","ticks":122400,"time":204,"velocity":0.6299212598425197},{"duration":0.7583333333333258,"durationTicks":455,"midi":50,"name":"D3","ticks":122400,"time":204,"velocity":0.6299212598425197},{"duration":0.7583333333333258,"durationTicks":455,"midi":53,"name":"F3","ticks":122400,"time":204,"velocity":0.6299212598425197},{"duration":0.7583333333333542,"durationTicks":455,"midi":53,"name":"F3","ticks":122880,"time":204.8,"velocity":0.6299212598425197},{"duration":0.7583333333333542,"durationTicks":455,"midi":57,"name":"A3","ticks":122880,"time":204.8,"velocity":0.6299212598425197},{"duration":0.7583333333333542,"durationTicks":455,"midi":60,"name":"C4","ticks":122880,"time":204.8,"velocity":0.6299212598425197},{"duration":0.7583333333333258,"durationTicks":455,"midi":53,"name":"F3","ticks":123360,"time":205.60000000000002,"velocity":0.6299212598425197},{"duration":0.7583333333333258,"durationTicks":455,"midi":57,"name":"A3","ticks":123360,"time":205.60000000000002,"velocity":0.6299212598425197},{"duration":0.7583333333333258,"durationTicks":455,"midi":60,"name":"C4","ticks":123360,"time":205.60000000000002,"velocity":0.6299212598425197},{"duration":0.7583333333333542,"durationTicks":455,"midi":53,"name":"F3","ticks":123840,"time":206.4,"velocity":0.6299212598425197},{"duration":0.7583333333333542,"durationTicks":455,"midi":57,"name":"A3","ticks":123840,"time":206.4,"velocity":0.6299212598425197},{"duration":0.7583333333333542,"durationTicks":455,"midi":60,"name":"C4","ticks":123840,"time":206.4,"velocity":0.6299212598425197},{"duration":0.7583333333333542,"durationTicks":455,"midi":53,"name":"F3","ticks":124320,"time":207.20000000000002,"velocity":0.6299212598425197},{"duration":0.7583333333333542,"durationTicks":455,"midi":57,"name":"A3","ticks":124320,"time":207.20000000000002,"velocity":0.6299212598425197},{"duration":0.7583333333333542,"durationTicks":455,"midi":60,"name":"C4","ticks":124320,"time":207.20000000000002,"velocity":0.6299212598425197},{"duration":0.7583333333333542,"durationTicks":455,"midi":53,"name":"F3","ticks":124800,"time":208,"velocity":0.6299212598425197},{"duration":0.7583333333333542,"durationTicks":455,"midi":55,"name":"G3","ticks":124800,"time":208,"velocity":0.6299212598425197},{"duration":0.7583333333333542,"durationTicks":455,"midi":60,"name":"C4","ticks":124800,"time":208,"velocity":0.6299212598425197},{"duration":0.7583333333333542,"durationTicks":455,"midi":64,"name":"E4","ticks":124800,"time":208,"velocity":0.6299212598425197},{"duration":0.7583333333333542,"durationTicks":455,"midi":53,"name":"F3","ticks":125280,"time":208.8,"velocity":0.6299212598425197},{"duration":0.7583333333333542,"durationTicks":455,"midi":55,"name":"G3","ticks":125280,"time":208.8,"velocity":0.6299212598425197},{"duration":0.7583333333333542,"durationTicks":455,"midi":60,"name":"C4","ticks":125280,"time":208.8,"velocity":0.6299212598425197},{"duration":0.7583333333333542,"durationTicks":455,"midi":64,"name":"E4","ticks":125280,"time":208.8,"velocity":0.6299212598425197},{"duration":0.7583333333333258,"durationTicks":455,"midi":53,"name":"F3","ticks":125760,"time":209.60000000000002,"velocity":0.6299212598425197},{"duration":0.7583333333333258,"durationTicks":455,"midi":55,"name":"G3","ticks":125760,"time":209.60000000000002,"velocity":0.6299212598425197},{"duration":0.7583333333333258,"durationTicks":455,"midi":60,"name":"C4","ticks":125760,"time":209.60000000000002,"velocity":0.6299212598425197},{"duration":0.7583333333333542,"durationTicks":455,"midi":53,"name":"F3","ticks":126240,"time":210.4,"velocity":0.6299212598425197},{"duration":0.7583333333333542,"durationTicks":455,"midi":55,"name":"G3","ticks":126240,"time":210.4,"velocity":0.6299212598425197},{"duration":0.7583333333333542,"durationTicks":455,"midi":60,"name":"C4","ticks":126240,"time":210.4,"velocity":0.6299212598425197},{"duration":0.7583333333333542,"durationTicks":455,"midi":48,"name":"C3","ticks":126720,"time":211.20000000000002,"velocity":0.6299212598425197},{"duration":0.7583333333333542,"durationTicks":455,"midi":52,"name":"E3","ticks":126720,"time":211.20000000000002,"velocity":0.6299212598425197},{"duration":0.7583333333333542,"durationTicks":455,"midi":55,"name":"G3","ticks":126720,"time":211.20000000000002,"velocity":0.6299212598425197},{"duration":0.7583333333333542,"durationTicks":455,"midi":48,"name":"C3","ticks":127200,"time":212,"velocity":0.6299212598425197},{"duration":0.7583333333333542,"durationTicks":455,"midi":52,"name":"E3","ticks":127200,"time":212,"velocity":0.6299212598425197},{"duration":0.7583333333333542,"durationTicks":455,"midi":55,"name":"G3","ticks":127200,"time":212,"velocity":0.6299212598425197},{"duration":0.7583333333333542,"durationTicks":455,"midi":48,"name":"C3","ticks":127680,"time":212.8,"velocity":0.6299212598425197},{"duration":0.7583333333333542,"durationTicks":455,"midi":52,"name":"E3","ticks":127680,"time":212.8,"velocity":0.6299212598425197},{"duration":0.7583333333333542,"durationTicks":455,"midi":55,"name":"G3","ticks":127680,"time":212.8,"velocity":0.6299212598425197},{"duration":0.3783333333333303,"durationTicks":227,"midi":48,"name":"C3","ticks":128160,"time":213.60000000000002,"velocity":0.6299212598425197},{"duration":0.3783333333333303,"durationTicks":227,"midi":52,"name":"E3","ticks":128160,"time":213.60000000000002,"velocity":0.6299212598425197},{"duration":0.3783333333333303,"durationTicks":227,"midi":55,"name":"G3","ticks":128160,"time":213.60000000000002,"velocity":0.6299212598425197},{"duration":0.3783333333333303,"durationTicks":227,"midi":55,"name":"G3","ticks":128400,"time":214,"velocity":0.6299212598425197},{"duration":0.3783333333333303,"durationTicks":227,"midi":60,"name":"C4","ticks":128400,"time":214,"velocity":0.6299212598425197},{"duration":0.3783333333333303,"durationTicks":227,"midi":64,"name":"E4","ticks":128400,"time":214,"velocity":0.6299212598425197},{"duration":1.518333333333345,"durationTicks":911,"midi":55,"name":"G3","ticks":128640,"time":214.4,"velocity":0.6299212598425197},{"duration":1.518333333333345,"durationTicks":911,"midi":60,"name":"C4","ticks":128640,"time":214.4,"velocity":0.6299212598425197},{"duration":1.518333333333345,"durationTicks":911,"midi":64,"name":"E4","ticks":128640,"time":214.4,"velocity":0.6299212598425197},{"duration":0.3783333333333303,"durationTicks":227,"midi":55,"name":"G3","ticks":129600,"time":216,"velocity":0.6299212598425197},{"duration":0.3783333333333303,"durationTicks":227,"midi":60,"name":"C4","ticks":129600,"time":216,"velocity":0.6299212598425197},{"duration":0.3783333333333303,"durationTicks":227,"midi":64,"name":"E4","ticks":129600,"time":216,"velocity":0.6299212598425197},{"duration":0.3783333333333303,"durationTicks":227,"midi":55,"name":"G3","ticks":129840,"time":216.4,"velocity":0.6299212598425197},{"duration":0.3783333333333303,"durationTicks":227,"midi":60,"name":"C4","ticks":129840,"time":216.4,"velocity":0.6299212598425197},{"duration":0.3783333333333303,"durationTicks":227,"midi":64,"name":"E4","ticks":129840,"time":216.4,"velocity":0.6299212598425197},{"duration":0.3783333333333303,"durationTicks":227,"midi":55,"name":"G3","ticks":130080,"time":216.8,"velocity":0.6299212598425197},{"duration":0.3783333333333303,"durationTicks":227,"midi":60,"name":"C4","ticks":130080,"time":216.8,"velocity":0.6299212598425197},{"duration":0.3783333333333303,"durationTicks":227,"midi":64,"name":"E4","ticks":130080,"time":216.8,"velocity":0.6299212598425197},{"duration":0.3783333333333303,"durationTicks":227,"midi":53,"name":"F3","ticks":130320,"time":217.20000000000002,"velocity":0.6299212598425197},{"duration":0.3783333333333303,"durationTicks":227,"midi":57,"name":"A3","ticks":130320,"time":217.20000000000002,"velocity":0.6299212598425197},{"duration":0.3783333333333303,"durationTicks":227,"midi":60,"name":"C4","ticks":130320,"time":217.20000000000002,"velocity":0.6299212598425197},{"duration":0.7583333333333258,"durationTicks":455,"midi":53,"name":"F3","ticks":130560,"time":217.60000000000002,"velocity":0.6299212598425197},{"duration":0.7583333333333258,"durationTicks":455,"midi":57,"name":"A3","ticks":130560,"time":217.60000000000002,"velocity":0.6299212598425197},{"duration":0.7583333333333258,"durationTicks":455,"midi":60,"name":"C4","ticks":130560,"time":217.60000000000002,"velocity":0.6299212598425197},{"duration":0.7583333333333542,"durationTicks":455,"midi":53,"name":"F3","ticks":131040,"time":218.4,"velocity":0.6299212598425197},{"duration":0.7583333333333542,"durationTicks":455,"midi":57,"name":"A3","ticks":131040,"time":218.4,"velocity":0.6299212598425197},{"duration":0.7583333333333542,"durationTicks":455,"midi":60,"name":"C4","ticks":131040,"time":218.4,"velocity":0.6299212598425197},{"duration":0.7583333333333542,"durationTicks":455,"midi":53,"name":"F3","ticks":131520,"time":219.20000000000002,"velocity":0.6299212598425197},{"duration":0.7583333333333542,"durationTicks":455,"midi":57,"name":"A3","ticks":131520,"time":219.20000000000002,"velocity":0.6299212598425197},{"duration":0.7583333333333542,"durationTicks":455,"midi":60,"name":"C4","ticks":131520,"time":219.20000000000002,"velocity":0.6299212598425197},{"duration":0.7583333333333542,"durationTicks":455,"midi":53,"name":"F3","ticks":132000,"time":220,"velocity":0.6299212598425197},{"duration":0.7583333333333542,"durationTicks":455,"midi":57,"name":"A3","ticks":132000,"time":220,"velocity":0.6299212598425197},{"duration":0.7583333333333542,"durationTicks":455,"midi":60,"name":"C4","ticks":132000,"time":220,"velocity":0.6299212598425197},{"duration":0.7583333333333542,"durationTicks":455,"midi":46,"name":"A#2","ticks":132480,"time":220.8,"velocity":0.6299212598425197},{"duration":0.7583333333333542,"durationTicks":455,"midi":50,"name":"D3","ticks":132480,"time":220.8,"velocity":0.6299212598425197},{"duration":0.7583333333333542,"durationTicks":455,"midi":53,"name":"F3","ticks":132480,"time":220.8,"velocity":0.6299212598425197},{"duration":0.7583333333333258,"durationTicks":455,"midi":46,"name":"A#2","ticks":132960,"time":221.60000000000002,"velocity":0.6299212598425197},{"duration":0.7583333333333258,"durationTicks":455,"midi":50,"name":"D3","ticks":132960,"time":221.60000000000002,"velocity":0.6299212598425197},{"duration":0.7583333333333258,"durationTicks":455,"midi":53,"name":"F3","ticks":132960,"time":221.60000000000002,"velocity":0.6299212598425197},{"duration":0.7583333333333542,"durationTicks":455,"midi":46,"name":"A#2","ticks":133440,"time":222.4,"velocity":0.6299212598425197},{"duration":0.7583333333333542,"durationTicks":455,"midi":50,"name":"D3","ticks":133440,"time":222.4,"velocity":0.6299212598425197},{"duration":0.7583333333333542,"durationTicks":455,"midi":53,"name":"F3","ticks":133440,"time":222.4,"velocity":0.6299212598425197},{"duration":0.7583333333333542,"durationTicks":455,"midi":46,"name":"A#2","ticks":133920,"time":223.20000000000002,"velocity":0.6299212598425197},{"duration":0.7583333333333542,"durationTicks":455,"midi":50,"name":"D3","ticks":133920,"time":223.20000000000002,"velocity":0.6299212598425197},{"duration":0.7583333333333542,"durationTicks":455,"midi":53,"name":"F3","ticks":133920,"time":223.20000000000002,"velocity":0.6299212598425197},{"duration":0.7583333333333542,"durationTicks":455,"midi":53,"name":"F3","ticks":134400,"time":224,"velocity":0.6299212598425197},{"duration":0.7583333333333542,"durationTicks":455,"midi":57,"name":"A3","ticks":134400,"time":224,"velocity":0.6299212598425197},{"duration":0.7583333333333542,"durationTicks":455,"midi":60,"name":"C4","ticks":134400,"time":224,"velocity":0.6299212598425197},{"duration":0.7583333333333542,"durationTicks":455,"midi":53,"name":"F3","ticks":134880,"time":224.8,"velocity":0.6299212598425197},{"duration":0.7583333333333542,"durationTicks":455,"midi":57,"name":"A3","ticks":134880,"time":224.8,"velocity":0.6299212598425197},{"duration":0.7583333333333542,"durationTicks":455,"midi":60,"name":"C4","ticks":134880,"time":224.8,"velocity":0.6299212598425197},{"duration":0.7583333333333258,"durationTicks":455,"midi":53,"name":"F3","ticks":135360,"time":225.60000000000002,"velocity":0.6299212598425197},{"duration":0.7583333333333258,"durationTicks":455,"midi":57,"name":"A3","ticks":135360,"time":225.60000000000002,"velocity":0.6299212598425197},{"duration":0.7583333333333258,"durationTicks":455,"midi":60,"name":"C4","ticks":135360,"time":225.60000000000002,"velocity":0.6299212598425197},{"duration":0.7583333333333542,"durationTicks":455,"midi":53,"name":"F3","ticks":135840,"time":226.4,"velocity":0.6299212598425197},{"duration":0.7583333333333542,"durationTicks":455,"midi":57,"name":"A3","ticks":135840,"time":226.4,"velocity":0.6299212598425197},{"duration":0.7583333333333542,"durationTicks":455,"midi":60,"name":"C4","ticks":135840,"time":226.4,"velocity":0.6299212598425197},{"duration":0.7583333333333542,"durationTicks":455,"midi":53,"name":"F3","ticks":136320,"time":227.20000000000002,"velocity":0.6299212598425197},{"duration":0.7583333333333542,"durationTicks":455,"midi":57,"name":"A3","ticks":136320,"time":227.20000000000002,"velocity":0.6299212598425197},{"duration":0.7583333333333542,"durationTicks":455,"midi":60,"name":"C4","ticks":136320,"time":227.20000000000002,"velocity":0.6299212598425197},{"duration":0.7583333333333542,"durationTicks":455,"midi":53,"name":"F3","ticks":136800,"time":228,"velocity":0.6299212598425197},{"duration":0.7583333333333542,"durationTicks":455,"midi":57,"name":"A3","ticks":136800,"time":228,"velocity":0.6299212598425197},{"duration":0.7583333333333542,"durationTicks":455,"midi":60,"name":"C4","ticks":136800,"time":228,"velocity":0.6299212598425197},{"duration":0.7583333333333542,"durationTicks":455,"midi":53,"name":"F3","ticks":137280,"time":228.8,"velocity":0.6299212598425197},{"duration":0.7583333333333542,"durationTicks":455,"midi":57,"name":"A3","ticks":137280,"time":228.8,"velocity":0.6299212598425197},{"duration":0.7583333333333542,"durationTicks":455,"midi":60,"name":"C4","ticks":137280,"time":228.8,"velocity":0.6299212598425197},{"duration":0.7583333333333258,"durationTicks":455,"midi":53,"name":"F3","ticks":137760,"time":229.60000000000002,"velocity":0.6299212598425197},{"duration":0.7583333333333258,"durationTicks":455,"midi":57,"name":"A3","ticks":137760,"time":229.60000000000002,"velocity":0.6299212598425197},{"duration":0.7583333333333258,"durationTicks":455,"midi":60,"name":"C4","ticks":137760,"time":229.60000000000002,"velocity":0.6299212598425197},{"duration":0.7583333333333542,"durationTicks":455,"midi":50,"name":"D3","ticks":138240,"time":230.4,"velocity":0.6299212598425197},{"duration":0.7583333333333542,"durationTicks":455,"midi":53,"name":"F3","ticks":138240,"time":230.4,"velocity":0.6299212598425197},{"duration":0.7583333333333542,"durationTicks":455,"midi":57,"name":"A3","ticks":138240,"time":230.4,"velocity":0.6299212598425197},{"duration":0.7583333333333542,"durationTicks":455,"midi":60,"name":"C4","ticks":138240,"time":230.4,"velocity":0.6299212598425197},{"duration":0.7583333333333542,"durationTicks":455,"midi":50,"name":"D3","ticks":138720,"time":231.20000000000002,"velocity":0.6299212598425197},{"duration":0.7583333333333542,"durationTicks":455,"midi":53,"name":"F3","ticks":138720,"time":231.20000000000002,"velocity":0.6299212598425197},{"duration":0.7583333333333542,"durationTicks":455,"midi":57,"name":"A3","ticks":138720,"time":231.20000000000002,"velocity":0.6299212598425197},{"duration":0.7583333333333542,"durationTicks":455,"midi":60,"name":"C4","ticks":138720,"time":231.20000000000002,"velocity":0.6299212598425197},{"duration":0.7583333333333542,"durationTicks":455,"midi":50,"name":"D3","ticks":139200,"time":232,"velocity":0.6299212598425197},{"duration":0.7583333333333542,"durationTicks":455,"midi":53,"name":"F3","ticks":139200,"time":232,"velocity":0.6299212598425197},{"duration":0.7583333333333542,"durationTicks":455,"midi":57,"name":"A3","ticks":139200,"time":232,"velocity":0.6299212598425197},{"duration":0.7583333333333542,"durationTicks":455,"midi":60,"name":"C4","ticks":139200,"time":232,"velocity":0.6299212598425197},{"duration":0.7583333333333542,"durationTicks":455,"midi":50,"name":"D3","ticks":139680,"time":232.8,"velocity":0.6299212598425197},{"duration":0.7583333333333542,"durationTicks":455,"midi":53,"name":"F3","ticks":139680,"time":232.8,"velocity":0.6299212598425197},{"duration":0.7583333333333542,"durationTicks":455,"midi":57,"name":"A3","ticks":139680,"time":232.8,"velocity":0.6299212598425197},{"duration":0.7583333333333542,"durationTicks":455,"midi":60,"name":"C4","ticks":139680,"time":232.8,"velocity":0.6299212598425197},{"duration":0.7583333333333258,"durationTicks":455,"midi":46,"name":"A#2","ticks":140160,"time":233.60000000000002,"velocity":0.6299212598425197},{"duration":0.7583333333333258,"durationTicks":455,"midi":50,"name":"D3","ticks":140160,"time":233.60000000000002,"velocity":0.6299212598425197},{"duration":0.7583333333333258,"durationTicks":455,"midi":53,"name":"F3","ticks":140160,"time":233.60000000000002,"velocity":0.6299212598425197},{"duration":0.7583333333333542,"durationTicks":455,"midi":46,"name":"A#2","ticks":140640,"time":234.4,"velocity":0.6299212598425197},{"duration":0.7583333333333542,"durationTicks":455,"midi":50,"name":"D3","ticks":140640,"time":234.4,"velocity":0.6299212598425197},{"duration":0.7583333333333542,"durationTicks":455,"midi":53,"name":"F3","ticks":140640,"time":234.4,"velocity":0.6299212598425197},{"duration":0.7583333333333542,"durationTicks":455,"midi":46,"name":"A#2","ticks":141120,"time":235.20000000000002,"velocity":0.6299212598425197},{"duration":0.7583333333333542,"durationTicks":455,"midi":50,"name":"D3","ticks":141120,"time":235.20000000000002,"velocity":0.6299212598425197},{"duration":0.7583333333333542,"durationTicks":455,"midi":53,"name":"F3","ticks":141120,"time":235.20000000000002,"velocity":0.6299212598425197},{"duration":0.7583333333333542,"durationTicks":455,"midi":46,"name":"A#2","ticks":141600,"time":236,"velocity":0.6299212598425197},{"duration":0.7583333333333542,"durationTicks":455,"midi":50,"name":"D3","ticks":141600,"time":236,"velocity":0.6299212598425197},{"duration":0.7583333333333542,"durationTicks":455,"midi":53,"name":"F3","ticks":141600,"time":236,"velocity":0.6299212598425197},{"duration":0.7583333333333542,"durationTicks":455,"midi":53,"name":"F3","ticks":142080,"time":236.8,"velocity":0.6299212598425197},{"duration":0.7583333333333542,"durationTicks":455,"midi":57,"name":"A3","ticks":142080,"time":236.8,"velocity":0.6299212598425197},{"duration":0.7583333333333542,"durationTicks":455,"midi":60,"name":"C4","ticks":142080,"time":236.8,"velocity":0.6299212598425197},{"duration":0.7583333333333258,"durationTicks":455,"midi":53,"name":"F3","ticks":142560,"time":237.60000000000002,"velocity":0.6299212598425197},{"duration":0.7583333333333258,"durationTicks":455,"midi":57,"name":"A3","ticks":142560,"time":237.60000000000002,"velocity":0.6299212598425197},{"duration":0.7583333333333258,"durationTicks":455,"midi":60,"name":"C4","ticks":142560,"time":237.60000000000002,"velocity":0.6299212598425197},{"duration":0.7583333333333542,"durationTicks":455,"midi":53,"name":"F3","ticks":143040,"time":238.4,"velocity":0.6299212598425197},{"duration":0.7583333333333542,"durationTicks":455,"midi":57,"name":"A3","ticks":143040,"time":238.4,"velocity":0.6299212598425197},{"duration":0.7583333333333542,"durationTicks":455,"midi":60,"name":"C4","ticks":143040,"time":238.4,"velocity":0.6299212598425197},{"duration":0.7583333333333542,"durationTicks":455,"midi":53,"name":"F3","ticks":143520,"time":239.20000000000002,"velocity":0.6299212598425197},{"duration":0.7583333333333542,"durationTicks":455,"midi":57,"name":"A3","ticks":143520,"time":239.20000000000002,"velocity":0.6299212598425197},{"duration":0.7583333333333542,"durationTicks":455,"midi":60,"name":"C4","ticks":143520,"time":239.20000000000002,"velocity":0.6299212598425197},{"duration":0.7583333333333542,"durationTicks":455,"midi":53,"name":"F3","ticks":144000,"time":240,"velocity":0.6299212598425197},{"duration":0.7583333333333542,"durationTicks":455,"midi":57,"name":"A3","ticks":144000,"time":240,"velocity":0.6299212598425197},{"duration":0.7583333333333542,"durationTicks":455,"midi":60,"name":"C4","ticks":144000,"time":240,"velocity":0.6299212598425197},{"duration":0.7583333333333542,"durationTicks":455,"midi":53,"name":"F3","ticks":144480,"time":240.8,"velocity":0.6299212598425197},{"duration":0.7583333333333542,"durationTicks":455,"midi":57,"name":"A3","ticks":144480,"time":240.8,"velocity":0.6299212598425197},{"duration":0.7583333333333542,"durationTicks":455,"midi":60,"name":"C4","ticks":144480,"time":240.8,"velocity":0.6299212598425197},{"duration":0.7583333333333258,"durationTicks":455,"midi":53,"name":"F3","ticks":144960,"time":241.60000000000002,"velocity":0.6299212598425197},{"duration":0.7583333333333258,"durationTicks":455,"midi":57,"name":"A3","ticks":144960,"time":241.60000000000002,"velocity":0.6299212598425197},{"duration":0.7583333333333258,"durationTicks":455,"midi":60,"name":"C4","ticks":144960,"time":241.60000000000002,"velocity":0.6299212598425197},{"duration":0.7583333333333542,"durationTicks":455,"midi":53,"name":"F3","ticks":145440,"time":242.4,"velocity":0.6299212598425197},{"duration":0.7583333333333542,"durationTicks":455,"midi":57,"name":"A3","ticks":145440,"time":242.4,"velocity":0.6299212598425197},{"duration":0.7583333333333542,"durationTicks":455,"midi":60,"name":"C4","ticks":145440,"time":242.4,"velocity":0.6299212598425197},{"duration":1.518333333333345,"durationTicks":911,"midi":50,"name":"D3","ticks":145920,"time":243.20000000000002,"velocity":0.6299212598425197},{"duration":1.518333333333345,"durationTicks":911,"midi":53,"name":"F3","ticks":145920,"time":243.20000000000002,"velocity":0.6299212598425197},{"duration":1.518333333333345,"durationTicks":911,"midi":57,"name":"A3","ticks":145920,"time":243.20000000000002,"velocity":0.6299212598425197},{"duration":1.518333333333345,"durationTicks":911,"midi":60,"name":"C4","ticks":145920,"time":243.20000000000002,"velocity":0.6299212598425197},{"duration":1.518333333333345,"durationTicks":911,"midi":50,"name":"D3","ticks":146880,"time":244.8,"velocity":0.6299212598425197},{"duration":1.518333333333345,"durationTicks":911,"midi":53,"name":"F3","ticks":146880,"time":244.8,"velocity":0.6299212598425197},{"duration":1.518333333333345,"durationTicks":911,"midi":57,"name":"A3","ticks":146880,"time":244.8,"velocity":0.6299212598425197},{"duration":1.518333333333345,"durationTicks":911,"midi":60,"name":"C4","ticks":146880,"time":244.8,"velocity":0.6299212598425197},{"duration":1.518333333333345,"durationTicks":911,"midi":46,"name":"A#2","ticks":147840,"time":246.4,"velocity":0.6299212598425197},{"duration":1.518333333333345,"durationTicks":911,"midi":50,"name":"D3","ticks":147840,"time":246.4,"velocity":0.6299212598425197},{"duration":1.518333333333345,"durationTicks":911,"midi":53,"name":"F3","ticks":147840,"time":246.4,"velocity":0.6299212598425197},{"duration":1.518333333333345,"durationTicks":911,"midi":46,"name":"A#2","ticks":148800,"time":248,"velocity":0.6299212598425197},{"duration":1.518333333333345,"durationTicks":911,"midi":50,"name":"D3","ticks":148800,"time":248,"velocity":0.6299212598425197},{"duration":1.518333333333345,"durationTicks":911,"midi":53,"name":"F3","ticks":148800,"time":248,"velocity":0.6299212598425197},{"duration":1.5183333333333167,"durationTicks":911,"midi":53,"name":"F3","ticks":149760,"time":249.60000000000002,"velocity":0.6299212598425197},{"duration":1.5183333333333167,"durationTicks":911,"midi":57,"name":"A3","ticks":149760,"time":249.60000000000002,"velocity":0.6299212598425197},{"duration":1.5183333333333167,"durationTicks":911,"midi":60,"name":"C4","ticks":149760,"time":249.60000000000002,"velocity":0.6299212598425197},{"duration":1.518333333333345,"durationTicks":911,"midi":53,"name":"F3","ticks":150720,"time":251.20000000000002,"velocity":0.6299212598425197},{"duration":1.518333333333345,"durationTicks":911,"midi":57,"name":"A3","ticks":150720,"time":251.20000000000002,"velocity":0.6299212598425197},{"duration":1.518333333333345,"durationTicks":911,"midi":60,"name":"C4","ticks":150720,"time":251.20000000000002,"velocity":0.6299212598425197},{"duration":1.518333333333345,"durationTicks":911,"midi":53,"name":"F3","ticks":151680,"time":252.8,"velocity":0.6299212598425197},{"duration":1.518333333333345,"durationTicks":911,"midi":57,"name":"A3","ticks":151680,"time":252.8,"velocity":0.6299212598425197},{"duration":1.518333333333345,"durationTicks":911,"midi":60,"name":"C4","ticks":151680,"time":252.8,"velocity":0.6299212598425197},{"duration":1.518333333333345,"durationTicks":911,"midi":53,"name":"F3","ticks":152640,"time":254.4,"velocity":0.6299212598425197},{"duration":1.518333333333345,"durationTicks":911,"midi":57,"name":"A3","ticks":152640,"time":254.4,"velocity":0.6299212598425197},{"duration":1.518333333333345,"durationTicks":911,"midi":60,"name":"C4","ticks":152640,"time":254.4,"velocity":0.6299212598425197},{"duration":1.5183333333333735,"durationTicks":911,"midi":50,"name":"D3","ticks":153600,"time":256,"velocity":0.6299212598425197},{"duration":1.5183333333333735,"durationTicks":911,"midi":53,"name":"F3","ticks":153600,"time":256,"velocity":0.6299212598425197},{"duration":1.5183333333333735,"durationTicks":911,"midi":57,"name":"A3","ticks":153600,"time":256,"velocity":0.6299212598425197},{"duration":1.5183333333333735,"durationTicks":911,"midi":60,"name":"C4","ticks":153600,"time":256,"velocity":0.6299212598425197},{"duration":1.5183333333333167,"durationTicks":911,"midi":50,"name":"D3","ticks":154560,"time":257.6,"velocity":0.6299212598425197},{"duration":1.5183333333333167,"durationTicks":911,"midi":53,"name":"F3","ticks":154560,"time":257.6,"velocity":0.6299212598425197},{"duration":1.5183333333333167,"durationTicks":911,"midi":57,"name":"A3","ticks":154560,"time":257.6,"velocity":0.6299212598425197},{"duration":1.5183333333333167,"durationTicks":911,"midi":60,"name":"C4","ticks":154560,"time":257.6,"velocity":0.6299212598425197},{"duration":1.5183333333333735,"durationTicks":911,"midi":46,"name":"A#2","ticks":155520,"time":259.2,"velocity":0.6299212598425197},{"duration":1.5183333333333735,"durationTicks":911,"midi":50,"name":"D3","ticks":155520,"time":259.2,"velocity":0.6299212598425197},{"duration":1.5183333333333735,"durationTicks":911,"midi":53,"name":"F3","ticks":155520,"time":259.2,"velocity":0.6299212598425197},{"duration":1.5183333333333167,"durationTicks":911,"midi":46,"name":"A#2","ticks":156480,"time":260.8,"velocity":0.6299212598425197},{"duration":1.5183333333333167,"durationTicks":911,"midi":50,"name":"D3","ticks":156480,"time":260.8,"velocity":0.6299212598425197},{"duration":1.5183333333333167,"durationTicks":911,"midi":53,"name":"F3","ticks":156480,"time":260.8,"velocity":0.6299212598425197},{"duration":1.5183333333333167,"durationTicks":911,"midi":53,"name":"F3","ticks":157440,"time":262.40000000000003,"velocity":0.6299212598425197},{"duration":1.5183333333333167,"durationTicks":911,"midi":57,"name":"A3","ticks":157440,"time":262.40000000000003,"velocity":0.6299212598425197},{"duration":1.5183333333333167,"durationTicks":911,"midi":60,"name":"C4","ticks":157440,"time":262.40000000000003,"velocity":0.6299212598425197},{"duration":1.5183333333333735,"durationTicks":911,"midi":53,"name":"F3","ticks":158400,"time":264,"velocity":0.6299212598425197},{"duration":1.5183333333333735,"durationTicks":911,"midi":57,"name":"A3","ticks":158400,"time":264,"velocity":0.6299212598425197},{"duration":1.5183333333333735,"durationTicks":911,"midi":60,"name":"C4","ticks":158400,"time":264,"velocity":0.6299212598425197},{"duration":1.5183333333333167,"durationTicks":911,"midi":53,"name":"F3","ticks":159360,"time":265.6,"velocity":0.6299212598425197},{"duration":1.5183333333333167,"durationTicks":911,"midi":57,"name":"A3","ticks":159360,"time":265.6,"velocity":0.6299212598425197},{"duration":1.5183333333333167,"durationTicks":911,"midi":60,"name":"C4","ticks":159360,"time":265.6,"velocity":0.6299212598425197},{"duration":1.5183333333333735,"durationTicks":911,"midi":53,"name":"F3","ticks":160320,"time":267.2,"velocity":0.6299212598425197},{"duration":1.5183333333333735,"durationTicks":911,"midi":57,"name":"A3","ticks":160320,"time":267.2,"velocity":0.6299212598425197},{"duration":1.5183333333333735,"durationTicks":911,"midi":60,"name":"C4","ticks":160320,"time":267.2,"velocity":0.6299212598425197},{"duration":1.5183333333333167,"durationTicks":911,"midi":50,"name":"D3","ticks":161280,"time":268.8,"velocity":0.6299212598425197},{"duration":1.5183333333333167,"durationTicks":911,"midi":53,"name":"F3","ticks":161280,"time":268.8,"velocity":0.6299212598425197},{"duration":1.5183333333333167,"durationTicks":911,"midi":57,"name":"A3","ticks":161280,"time":268.8,"velocity":0.6299212598425197},{"duration":1.5183333333333167,"durationTicks":911,"midi":60,"name":"C4","ticks":161280,"time":268.8,"velocity":0.6299212598425197},{"duration":1.5183333333333167,"durationTicks":911,"midi":50,"name":"D3","ticks":162240,"time":270.40000000000003,"velocity":0.6299212598425197},{"duration":1.5183333333333167,"durationTicks":911,"midi":53,"name":"F3","ticks":162240,"time":270.40000000000003,"velocity":0.6299212598425197},{"duration":1.5183333333333167,"durationTicks":911,"midi":57,"name":"A3","ticks":162240,"time":270.40000000000003,"velocity":0.6299212598425197},{"duration":1.5183333333333167,"durationTicks":911,"midi":60,"name":"C4","ticks":162240,"time":270.40000000000003,"velocity":0.6299212598425197},{"duration":1.5183333333333735,"durationTicks":911,"midi":46,"name":"A#2","ticks":163200,"time":272,"velocity":0.6299212598425197},{"duration":1.5183333333333735,"durationTicks":911,"midi":50,"name":"D3","ticks":163200,"time":272,"velocity":0.6299212598425197},{"duration":1.5183333333333735,"durationTicks":911,"midi":53,"name":"F3","ticks":163200,"time":272,"velocity":0.6299212598425197},{"duration":1.5183333333333167,"durationTicks":911,"midi":46,"name":"A#2","ticks":164160,"time":273.6,"velocity":0.6299212598425197},{"duration":1.5183333333333167,"durationTicks":911,"midi":50,"name":"D3","ticks":164160,"time":273.6,"velocity":0.6299212598425197},{"duration":1.5183333333333167,"durationTicks":911,"midi":53,"name":"F3","ticks":164160,"time":273.6,"velocity":0.6299212598425197},{"duration":1.5183333333333735,"durationTicks":911,"midi":53,"name":"F3","ticks":165120,"time":275.2,"velocity":0.6299212598425197},{"duration":1.5183333333333735,"durationTicks":911,"midi":57,"name":"A3","ticks":165120,"time":275.2,"velocity":0.6299212598425197},{"duration":1.5183333333333735,"durationTicks":911,"midi":60,"name":"C4","ticks":165120,"time":275.2,"velocity":0.6299212598425197},{"duration":1.5183333333333167,"durationTicks":911,"midi":53,"name":"F3","ticks":166080,"time":276.8,"velocity":0.6299212598425197},{"duration":1.5183333333333167,"durationTicks":911,"midi":57,"name":"A3","ticks":166080,"time":276.8,"velocity":0.6299212598425197},{"duration":1.5183333333333167,"durationTicks":911,"midi":60,"name":"C4","ticks":166080,"time":276.8,"velocity":0.6299212598425197},{"duration":1.5183333333333167,"durationTicks":911,"midi":53,"name":"F3","ticks":167040,"time":278.40000000000003,"velocity":0.6299212598425197},{"duration":1.5183333333333167,"durationTicks":911,"midi":57,"name":"A3","ticks":167040,"time":278.40000000000003,"velocity":0.6299212598425197},{"duration":1.5183333333333167,"durationTicks":911,"midi":60,"name":"C4","ticks":167040,"time":278.40000000000003,"velocity":0.6299212598425197},{"duration":1.5183333333333735,"durationTicks":911,"midi":53,"name":"F3","ticks":168000,"time":280,"velocity":0.6299212598425197},{"duration":1.5183333333333735,"durationTicks":911,"midi":57,"name":"A3","ticks":168000,"time":280,"velocity":0.6299212598425197},{"duration":1.5183333333333735,"durationTicks":911,"midi":60,"name":"C4","ticks":168000,"time":280,"velocity":0.6299212598425197},{"duration":1.5183333333333167,"durationTicks":911,"midi":50,"name":"D3","ticks":168960,"time":281.6,"velocity":0.6299212598425197},{"duration":1.5183333333333167,"durationTicks":911,"midi":53,"name":"F3","ticks":168960,"time":281.6,"velocity":0.6299212598425197},{"duration":1.5183333333333167,"durationTicks":911,"midi":57,"name":"A3","ticks":168960,"time":281.6,"velocity":0.6299212598425197},{"duration":1.5183333333333167,"durationTicks":911,"midi":60,"name":"C4","ticks":168960,"time":281.6,"velocity":0.6299212598425197},{"duration":1.5183333333333735,"durationTicks":911,"midi":50,"name":"D3","ticks":169920,"time":283.2,"velocity":0.6299212598425197},{"duration":1.5183333333333735,"durationTicks":911,"midi":53,"name":"F3","ticks":169920,"time":283.2,"velocity":0.6299212598425197},{"duration":1.5183333333333735,"durationTicks":911,"midi":57,"name":"A3","ticks":169920,"time":283.2,"velocity":0.6299212598425197},{"duration":1.5183333333333735,"durationTicks":911,"midi":60,"name":"C4","ticks":169920,"time":283.2,"velocity":0.6299212598425197},{"duration":1.5183333333333167,"durationTicks":911,"midi":46,"name":"A#2","ticks":170880,"time":284.8,"velocity":0.6299212598425197},{"duration":1.5183333333333167,"durationTicks":911,"midi":50,"name":"D3","ticks":170880,"time":284.8,"velocity":0.6299212598425197},{"duration":1.5183333333333167,"durationTicks":911,"midi":53,"name":"F3","ticks":170880,"time":284.8,"velocity":0.6299212598425197},{"duration":1.5183333333333167,"durationTicks":911,"midi":46,"name":"A#2","ticks":171840,"time":286.40000000000003,"velocity":0.6299212598425197},{"duration":1.5183333333333167,"durationTicks":911,"midi":50,"name":"D3","ticks":171840,"time":286.40000000000003,"velocity":0.6299212598425197},{"duration":1.5183333333333167,"durationTicks":911,"midi":53,"name":"F3","ticks":171840,"time":286.40000000000003,"velocity":0.6299212598425197},{"duration":3.0383333333333553,"durationTicks":1823,"midi":53,"name":"F3","ticks":172800,"time":288,"velocity":0.6299212598425197},{"duration":3.0383333333333553,"durationTicks":1823,"midi":57,"name":"A3","ticks":172800,"time":288,"velocity":0.6299212598425197}]}]}