{"header":{"title":"Landslide","artist":"Fleetwood Mac","source":"https://musescore.com/user/22801926/scores/4639356","bpm":120,"duration":197.87395833333332},"tracks":[{"instrument_number":0,"notes":[{"duration":0.47395833333333326,"durationTicks":455,"midi":58,"name":"A#3","ticks":720,"time":0.75,"velocity":0.6299212598425197},{"duration":0.4739583333333335,"durationTicks":455,"midi":60,"name":"C4","ticks":2640,"time":2.75,"velocity":0.6299212598425197},{"duration":0.47395833333333304,"durationTicks":455,"midi":58,"name":"A#3","ticks":4560,"time":4.75,"velocity":0.6299212598425197},{"duration":0.47395833333333304,"durationTicks":455,"midi":60,"name":"C4","ticks":6480,"time":6.75,"velocity":0.6299212598425197},{"duration":1.8989583333333329,"durationTicks":1823,"midi":62,"name":"D4","ticks":7680,"time":8,"velocity":0.6299212598425197},{"duration":0.4739583333333339,"durationTicks":455,"midi":58,"name":"A#3","ticks":8400,"time":8.75,"velocity":0.6299212598425197},{"duration":1.223958333333334,"durationTicks":1175,"midi":60,"name":"C4","ticks":9600,"time":10,"velocity":0.6299212598425197},{"duration":0.6739583333333332,"durationTicks":647,"midi":60,"name":"C4","ticks":10320,"time":10.75,"velocity":0.6299212598425197},{"duration":2.3739583333333325,"durationTicks":2279,"midi":62,"name":"D4","ticks":11040,"time":11.5,"velocity":0.6299212598425197},{"duration":0.4739583333333339,"durationTicks":455,"midi":58,"name":"A#3","ticks":12240,"time":12.75,"velocity":0.6299212598425197},{"duration":0.4739583333333339,"durationTicks":455,"midi":60,"name":"C4","ticks":14160,"time":14.75,"velocity":0.6299212598425197},{"duration":1.8989583333333329,"durationTicks":1823,"midi":62,"name":"D4","ticks":15360,"time":16,"velocity":0.6299212598425197},{"duration":0.236458333333335,"durationTicks":227,"midi":58,"name":"A#3","ticks":16080,"time":16.75,"velocity":0.6299212598425197},{"duration":0.236458333333335,"durationTicks":227,"midi":65,"name":"F4","ticks":16080,"time":16.75,"velocity":0.6299212598425197},{"duration":0.236458333333335,"durationTicks":227,"midi":65,"name":"F4","ticks":16320,"time":17,"velocity":0.6299212598425197},{"duration":0.47395833333333215,"durationTicks":455,"midi":65,"name":"F4","ticks":16560,"time":17.25,"velocity":0.6299212598425197},{"duration":0.236458333333335,"durationTicks":227,"midi":65,"name":"F4","ticks":17040,"time":17.75,"velocity":0.6299212598425197},{"duration":0.236458333333335,"durationTicks":227,"midi":60,"name":"C4","ticks":18000,"time":18.75,"velocity":0.6299212598425197},{"duration":0.236458333333335,"durationTicks":227,"midi":65,"name":"F4","ticks":18000,"time":18.75,"velocity":0.6299212598425197},{"duration":0.236458333333335,"durationTicks":227,"midi":60,"name":"C4","ticks":18240,"time":19,"velocity":0.6299212598425197},{"duration":0.236458333333335,"durationTicks":227,"midi":60,"name":"C4","ticks":18480,"time":19.25,"velocity":0.6299212598425197},{"duration":0.9489583333333336,"durationTicks":911,"midi":58,"name":"A#3","ticks":18720,"time":19.5,"velocity":0.6299212598425197},{"duration":0.47395833333333215,"durationTicks":455,"midi":58,"name":"A#3","ticks":19920,"time":20.75,"velocity":0.6299212598425197},{"duration":0.47395833333333215,"durationTicks":455,"midi":60,"name":"C4","ticks":21840,"time":22.75,"velocity":0.6299212598425197},{"duration":0.9489583333333336,"durationTicks":911,"midi":58,"name":"A#3","ticks":23040,"time":24,"velocity":0.6299212598425197},{"duration":0.9489583333333336,"durationTicks":911,"midi":62,"name":"D4","ticks":23040,"time":24,"velocity":0.6299212598425197},{"duration":0.47395833333333215,"durationTicks":455,"midi":65,"name":"F4","ticks":24000,"time":25,"velocity":0.6299212598425197},{"duration":0.236458333333335,"durationTicks":227,"midi":65,"name":"F4","ticks":24480,"time":25.5,"velocity":0.6299212598425197},{"duration":0.47395833333333215,"durationTicks":455,"midi":65,"name":"F4","ticks":24720,"time":25.75,"velocity":0.6299212598425197},{"duration":0.236458333333335,"durationTicks":227,"midi":60,"name":"C4","ticks":24960,"time":26,"velocity":0.6299212598425197},{"duration":0.236458333333335,"durationTicks":227,"midi":65,"name":"F4","ticks":25200,"time":26.25,"velocity":0.6299212598425197},{"duration":0.236458333333335,"durationTicks":227,"midi":65,"name":"F4","ticks":25440,"time":26.5,"velocity":0.6299212598425197},{"duration":0.236458333333335,"durationTicks":227,"midi":65,"name":"F4","ticks":25680,"time":26.75,"velocity":0.6299212598425197},{"duration":0.47395833333333215,"durationTicks":455,"midi":60,"name":"C4","ticks":25920,"time":27,"velocity":0.6299212598425197},{"duration":0.236458333333335,"durationTicks":227,"midi":60,"name":"C4","ticks":26400,"time":27.5,"velocity":0.6299212598425197},{"duration":0.236458333333335,"durationTicks":227,"midi":60,"name":"C4","ticks":26640,"time":27.75,"velocity":0.6299212598425197},{"duration":0.47395833333333215,"durationTicks":455,"midi":58,"name":"A#3","ticks":26880,"time":28,"velocity":0.6299212598425197},{"duration":0.47395833333333215,"durationTicks":455,"midi":58,"name":"A#3","ticks":27600,"time":28.75,"velocity":0.6299212598425197},{"duration":0.9489583333333336,"durationTicks":911,"midi":60,"name":"C4","ticks":28800,"time":30,"velocity":0.6299212598425197},{"duration":0.9489583333333336,"durationTicks":911,"midi":69,"name":"A4","ticks":28800,"time":30,"velocity":0.6299212598425197},{"duration":0.236458333333335,"durationTicks":227,"midi":60,"name":"C4","ticks":29760,"time":31,"velocity":0.6299212598425197},{"duration":0.236458333333335,"durationTicks":227,"midi":67,"name":"G4","ticks":29760,"time":31,"velocity":0.6299212598425197},{"duration":0.7114583333333329,"durationTicks":683,"midi":65,"name":"F4","ticks":30000,"time":31.25,"velocity":0.6299212598425197},{"duration":0.94895833333333,"durationTicks":911,"midi":65,"name":"F4","ticks":30720,"time":32,"velocity":0.6299212598425197},{"duration":0.94895833333333,"durationTicks":911,"midi":69,"name":"A4","ticks":30720,"time":32,"velocity":0.6299212598425197},{"duration":0.4739583333333357,"durationTicks":455,"midi":58,"name":"A#3","ticks":31680,"time":33,"velocity":0.6299212598425197},{"duration":0.4739583333333357,"durationTicks":455,"midi":70,"name":"A#4","ticks":31680,"time":33,"velocity":0.6299212598425197},{"duration":0.23645833333333144,"durationTicks":227,"midi":69,"name":"A4","ticks":32160,"time":33.5,"velocity":0.6299212598425197},{"duration":0.23645833333333144,"durationTicks":227,"midi":67,"name":"G4","ticks":32400,"time":33.75,"velocity":0.6299212598425197},{"duration":0.23645833333333144,"durationTicks":227,"midi":67,"name":"G4","ticks":32640,"time":34,"velocity":0.6299212598425197},{"duration":0.7114583333333329,"durationTicks":683,"midi":65,"name":"F4","ticks":32880,"time":34.25,"velocity":0.6299212598425197},{"duration":0.23645833333333144,"durationTicks":227,"midi":62,"name":"D4","ticks":33600,"time":35,"velocity":0.6299212598425197},{"duration":0.23645833333333144,"durationTicks":227,"midi":60,"name":"C4","ticks":33840,"time":35.25,"velocity":0.6299212598425197},{"duration":0.94895833333333,"durationTicks":911,"midi":69,"name":"A4","ticks":34080,"time":35.5,"velocity":0.6299212598425197},{"duration":0.23645833333333144,"durationTicks":227,"midi":58,"name":"A#3","ticks":35520,"time":37,"velocity":0.6299212598425197},{"duration":0.23645833333333144,"durationTicks":227,"midi":67,"name":"G4","ticks":35520,"time":37,"velocity":0.6299212598425197},{"duration":0.4739583333333357,"durationTicks":455,"midi":65,"name":"F4","ticks":35760,"time":37.25,"velocity":0.6299212598425197},{"duration":0.7114583333333329,"durationTicks":683,"midi":62,"name":"D4","ticks":36240,"time":37.75,"velocity":0.6299212598425197},{"duration":0.23645833333333144,"durationTicks":227,"midi":60,"name":"C4","ticks":36960,"time":38.5,"velocity":0.6299212598425197},{"duration":0.23645833333333144,"durationTicks":227,"midi":60,"name":"C4","ticks":37440,"time":39,"velocity":0.6299212598425197},{"duration":0.7114583333333329,"durationTicks":683,"midi":60,"name":"C4","ticks":37680,"time":39.25,"velocity":0.6299212598425197},{"duration":0.94895833333333,"durationTicks":911,"midi":58,"name":"A#3","ticks":38400,"time":40,"velocity":0.6299212598425197},{"duration":0.94895833333333,"durationTicks":911,"midi":67,"name":"G4","ticks":38400,"time":40,"velocity":0.6299212598425197},{"duration":0.94895833333333,"durationTicks":911,"midi":65,"name":"F4","ticks":39360,"time":41,"velocity":0.6299212598425197},{"duration":0.94895833333333,"durationTicks":911,"midi":60,"name":"C4","ticks":40320,"time":42,"velocity":0.6299212598425197},{"duration":0.4739583333333357,"durationTicks":455,"midi":57,"name":"A3","ticks":41280,"time":43,"velocity":0.6299212598425197},{"duration":1.4239583333333314,"durationTicks":1367,"midi":62,"name":"D4","ticks":41760,"time":43.5,"velocity":0.6299212598425197},{"duration":0.94895833333333,"durationTicks":911,"midi":65,"name":"F4","ticks":45120,"time":47,"velocity":0.6299212598425197},{"duration":0.23645833333333144,"durationTicks":227,"midi":58,"name":"A#3","ticks":46080,"time":48,"velocity":0.6299212598425197},{"duration":0.23645833333333144,"durationTicks":227,"midi":65,"name":"F4","ticks":46080,"time":48,"velocity":0.6299212598425197},{"duration":0.23645833333333144,"durationTicks":227,"midi":70,"name":"A#4","ticks":46080,"time":48,"velocity":0.6299212598425197},{"duration":0.4739583333333357,"durationTicks":455,"midi":58,"name":"A#3","ticks":46320,"time":48.25,"velocity":0.6299212598425197},{"duration":0.4739583333333357,"durationTicks":455,"midi":65,"name":"F4","ticks":46320,"time":48.25,"velocity":0.6299212598425197},{"duration":0.4739583333333357,"durationTicks":455,"midi":58,"name":"A#3","ticks":46800,"time":48.75,"velocity":0.6299212598425197},{"duration":0.4739583333333357,"durationTicks":455,"midi":65,"name":"F4","ticks":46800,"time":48.75,"velocity":0.6299212598425197},{"duration":0.23645833333333144,"durationTicks":227,"midi":58,"name":"A#3","ticks":47280,"time":49.25,"velocity":0.6299212598425197},{"duration":0.23645833333333144,"durationTicks":227,"midi":65,"name":"F4","ticks":47280,"time":49.25,"velocity":0.6299212598425197},{"duration":0.23645833333333144,"durationTicks":227,"midi":58,"name":"A#3","ticks":47520,"time":49.5,"velocity":0.6299212598425197},{"duration":0.23645833333333144,"durationTicks":227,"midi":67,"name":"G4","ticks":47520,"time":49.5,"velocity":0.6299212598425197},{"duration":0.23645833333333144,"durationTicks":227,"midi":58,"name":"A#3","ticks":47760,"time":49.75,"velocity":0.6299212598425197},{"duration":0.7114583333333329,"durationTicks":683,"midi":65,"name":"F4","ticks":47760,"time":49.75,"velocity":0.6299212598425197},{"duration":0.23645833333333144,"durationTicks":227,"midi":60,"name":"C4","ticks":48960,"time":51,"velocity":0.6299212598425197},{"duration":0.7114583333333329,"durationTicks":683,"midi":57,"name":"A3","ticks":49200,"time":51.25,"velocity":0.6299212598425197},{"duration":0.4739583333333357,"durationTicks":455,"midi":57,"name":"A3","ticks":49920,"time":52,"velocity":0.6299212598425197},{"duration":0.4739583333333357,"durationTicks":455,"midi":58,"name":"A#3","ticks":50640,"time":52.75,"velocity":0.6299212598425197},{"duration":0.23645833333333144,"durationTicks":227,"midi":60,"name":"C4","ticks":52800,"time":55,"velocity":0.6299212598425197},{"duration":0.23645833333333144,"durationTicks":227,"midi":67,"name":"G4","ticks":52800,"time":55,"velocity":0.6299212598425197},{"duration":0.7114583333333329,"durationTicks":683,"midi":69,"name":"A4","ticks":53040,"time":55.25,"velocity":0.6299212598425197},{"duration":0.7114583333333329,"durationTicks":683,"midi":62,"name":"D4","ticks":53760,"time":56,"velocity":0.6299212598425197},{"duration":0.7114583333333329,"durationTicks":683,"midi":65,"name":"F4","ticks":53760,"time":56,"velocity":0.6299212598425197},{"duration":0.23645833333333144,"durationTicks":227,"midi":62,"name":"D4","ticks":54480,"time":56.75,"velocity":0.6299212598425197},{"duration":0.23645833333333144,"durationTicks":227,"midi":65,"name":"F4","ticks":54480,"time":56.75,"velocity":0.6299212598425197},{"duration":0.23645833333333144,"durationTicks":227,"midi":62,"name":"D4","ticks":54720,"time":57,"velocity":0.6299212598425197},{"duration":0.23645833333333144,"durationTicks":227,"midi":65,"name":"F4","ticks":54720,"time":57,"velocity":0.6299212598425197},{"duration":0.23645833333333144,"durationTicks":227,"midi":62,"name":"D4","ticks":54960,"time":57.25,"velocity":0.6299212598425197},{"duration":0.23645833333333144,"durationTicks":227,"midi":65,"name":"F4","ticks":54960,"time":57.25,"velocity":0.6299212598425197},{"duration":0.23645833333333144,"durationTicks":227,"midi":67,"name":"G4","ticks":55200,"time":57.5,"velocity":0.6299212598425197},{"duration":0.23645833333333144,"durationTicks":227,"midi":65,"name":"F4","ticks":55440,"time":57.75,"velocity":0.6299212598425197},{"duration":0.4739583333333357,"durationTicks":455,"midi":65,"name":"F4","ticks":55680,"time":58,"velocity":0.6299212598425197},{"duration":0.4739583333333357,"durationTicks":455,"midi":60,"name":"C4","ticks":56640,"time":59,"velocity":0.6299212598425197},{"duration":0.23645833333333144,"durationTicks":227,"midi":60,"name":"C4","ticks":57120,"time":59.5,"velocity":0.6299212598425197},{"duration":0.7114583333333329,"durationTicks":683,"midi":57,"name":"A3","ticks":57360,"time":59.75,"velocity":0.6299212598425197},{"duration":0.4739583333333357,"durationTicks":455,"midi":58,"name":"A#3","ticks":58320,"time":60.75,"velocity":0.6299212598425197},{"duration":0.23645833333333144,"durationTicks":227,"midi":60,"name":"C4","ticks":60480,"time":63,"velocity":0.6299212598425197},{"duration":0.23645833333333144,"durationTicks":227,"midi":67,"name":"G4","ticks":60480,"time":63,"velocity":0.6299212598425197},{"duration":0.7114583333333329,"durationTicks":683,"midi":65,"name":"F4","ticks":60720,"time":63.25,"velocity":0.6299212598425197},{"duration":0.9489583333333371,"durationTicks":911,"midi":65,"name":"F4","ticks":61440,"time":64,"velocity":0.6299212598425197},{"duration":0.9489583333333371,"durationTicks":911,"midi":69,"name":"A4","ticks":61440,"time":64,"velocity":0.6299212598425197},{"duration":0.71145833333334,"durationTicks":683,"midi":58,"name":"A#3","ticks":62400,"time":65,"velocity":0.6299212598425197},{"duration":0.71145833333334,"durationTicks":683,"midi":65,"name":"F4","ticks":62400,"time":65,"velocity":0.6299212598425197},{"duration":0.71145833333334,"durationTicks":683,"midi":70,"name":"A#4","ticks":62400,"time":65,"velocity":0.6299212598425197},{"duration":0.23645833333333144,"durationTicks":227,"midi":60,"name":"C4","ticks":63120,"time":65.75,"velocity":0.6299212598425197},{"duration":0.23645833333333144,"durationTicks":227,"midi":69,"name":"A4","ticks":63120,"time":65.75,"velocity":0.6299212598425197},{"duration":0.4739583333333286,"durationTicks":455,"midi":60,"name":"C4","ticks":63360,"time":66,"velocity":0.6299212598425197},{"duration":0.4739583333333286,"durationTicks":455,"midi":67,"name":"G4","ticks":63360,"time":66,"velocity":0.6299212598425197},{"duration":0.4739583333333286,"durationTicks":455,"midi":57,"name":"A3","ticks":63840,"time":66.5,"velocity":0.6299212598425197},{"duration":0.4739583333333286,"durationTicks":455,"midi":65,"name":"F4","ticks":63840,"time":66.5,"velocity":0.6299212598425197},{"duration":0.4739583333333286,"durationTicks":455,"midi":60,"name":"C4","ticks":64320,"time":67,"velocity":0.6299212598425197},{"duration":0.9489583333333371,"durationTicks":911,"midi":72,"name":"C5","ticks":64800,"time":67.5,"velocity":0.6299212598425197},{"duration":0.9489583333333371,"durationTicks":911,"midi":69,"name":"A4","ticks":65760,"time":68.5,"velocity":0.6299212598425197},{"duration":0.4739583333333286,"durationTicks":455,"midi":58,"name":"A#3","ticks":66000,"time":68.75,"velocity":0.6299212598425197},{"duration":0.23645833333333144,"durationTicks":227,"midi":70,"name":"A#4","ticks":66720,"time":69.5,"velocity":0.6299212598425197},{"duration":0.23645833333333144,"durationTicks":227,"midi":69,"name":"A4","ticks":66960,"time":69.75,"velocity":0.6299212598425197},{"duration":0.4739583333333286,"durationTicks":455,"midi":65,"name":"F4","ticks":67200,"time":70,"velocity":0.6299212598425197},{"duration":0.23645833333333144,"durationTicks":227,"midi":60,"name":"C4","ticks":68160,"time":71,"velocity":0.6299212598425197},{"duration":0.23645833333333144,"durationTicks":227,"midi":67,"name":"G4","ticks":68160,"time":71,"velocity":0.6299212598425197},{"duration":0.71145833333334,"durationTicks":683,"midi":65,"name":"F4","ticks":68400,"time":71.25,"velocity":0.6299212598425197},{"duration":0.9489583333333371,"durationTicks":911,"midi":62,"name":"D4","ticks":69120,"time":72,"velocity":0.6299212598425197},{"duration":0.9489583333333371,"durationTicks":911,"midi":65,"name":"F4","ticks":69120,"time":72,"velocity":0.6299212598425197},{"duration":0.9489583333333371,"durationTicks":911,"midi":69,"name":"A4","ticks":69120,"time":72,"velocity":0.6299212598425197},{"duration":0.71145833333334,"durationTicks":683,"midi":58,"name":"A#3","ticks":70080,"time":73,"velocity":0.6299212598425197},{"duration":0.71145833333334,"durationTicks":683,"midi":62,"name":"D4","ticks":70080,"time":73,"velocity":0.6299212598425197},{"duration":0.71145833333334,"durationTicks":683,"midi":70,"name":"A#4","ticks":70080,"time":73,"velocity":0.6299212598425197},{"duration":0.23645833333333144,"durationTicks":227,"midi":60,"name":"C4","ticks":70800,"time":73.75,"velocity":0.6299212598425197},{"duration":0.23645833333333144,"durationTicks":227,"midi":69,"name":"A4","ticks":70800,"time":73.75,"velocity":0.6299212598425197},{"duration":0.4739583333333286,"durationTicks":455,"midi":60,"name":"C4","ticks":71040,"time":74,"velocity":0.6299212598425197},{"duration":0.4739583333333286,"durationTicks":455,"midi":67,"name":"G4","ticks":71040,"time":74,"velocity":0.6299212598425197},{"duration":0.4739583333333286,"durationTicks":455,"midi":57,"name":"A3","ticks":71520,"time":74.5,"velocity":0.6299212598425197},{"duration":0.4739583333333286,"durationTicks":455,"midi":60,"name":"C4","ticks":71520,"time":74.5,"velocity":0.6299212598425197},{"duration":0.4739583333333286,"durationTicks":455,"midi":65,"name":"F4","ticks":71520,"time":74.5,"velocity":0.6299212598425197},{"duration":0.4739583333333286,"durationTicks":455,"midi":60,"name":"C4","ticks":72480,"time":75.5,"velocity":0.6299212598425197},{"duration":0.4739583333333286,"durationTicks":455,"midi":65,"name":"F4","ticks":72480,"time":75.5,"velocity":0.6299212598425197},{"duration":0.9489583333333371,"durationTicks":911,"midi":72,"name":"C5","ticks":72480,"time":75.5,"velocity":0.6299212598425197},{"duration":0.9489583333333371,"durationTicks":911,"midi":69,"name":"A4","ticks":73440,"time":76.5,"velocity":0.6299212598425197},{"duration":0.71145833333334,"durationTicks":683,"midi":58,"name":"A#3","ticks":73680,"time":76.75,"velocity":0.6299212598425197},{"duration":0.23645833333333144,"durationTicks":227,"midi":70,"name":"A#4","ticks":74400,"time":77.5,"velocity":0.6299212598425197},{"duration":0.23645833333333144,"durationTicks":227,"midi":69,"name":"A4","ticks":74640,"time":77.75,"velocity":0.6299212598425197},{"duration":0.9489583333333371,"durationTicks":911,"midi":65,"name":"F4","ticks":74880,"time":78,"velocity":0.6299212598425197},{"duration":0.23645833333333144,"durationTicks":227,"midi":62,"name":"D4","ticks":75840,"time":79,"velocity":0.6299212598425197},{"duration":0.71145833333334,"durationTicks":683,"midi":60,"name":"C4","ticks":76080,"time":79.25,"velocity":0.6299212598425197},{"duration":0.23645833333333144,"durationTicks":227,"midi":62,"name":"D4","ticks":76800,"time":80,"velocity":0.6299212598425197},{"duration":1.1864583333333343,"durationTicks":1139,"midi":65,"name":"F4","ticks":77040,"time":80.25,"velocity":0.6299212598425197},{"duration":0.4739583333333286,"durationTicks":455,"midi":67,"name":"G4","ticks":78240,"time":81.5,"velocity":0.6299212598425197},{"duration":0.9489583333333371,"durationTicks":911,"midi":65,"name":"F4","ticks":78720,"time":82,"velocity":0.6299212598425197},{"duration":0.9489583333333371,"durationTicks":911,"midi":60,"name":"C4","ticks":79680,"time":83,"velocity":0.6299212598425197},{"duration":0.9489583333333371,"durationTicks":911,"midi":57,"name":"A3","ticks":80640,"time":84,"velocity":0.6299212598425197},{"duration":0.23645833333333144,"durationTicks":227,"midi":65,"name":"F4","ticks":85680,"time":89.25,"velocity":0.6299212598425197},{"duration":0.4739583333333286,"durationTicks":455,"midi":67,"name":"G4","ticks":85920,"time":89.5,"velocity":0.6299212598425197},{"duration":0.9489583333333371,"durationTicks":911,"midi":69,"name":"A4","ticks":86400,"time":90,"velocity":0.6299212598425197},{"duration":0.9489583333333371,"durationTicks":911,"midi":60,"name":"C4","ticks":87360,"time":91,"velocity":0.6299212598425197},{"duration":0.23645833333333144,"durationTicks":227,"midi":58,"name":"A#3","ticks":88320,"time":92,"velocity":0.6299212598425197},{"duration":0.23645833333333144,"durationTicks":227,"midi":57,"name":"A3","ticks":88560,"time":92.25,"velocity":0.6299212598425197},{"duration":0.4739583333333286,"durationTicks":455,"midi":53,"name":"F3","ticks":88800,"time":92.5,"velocity":0.6299212598425197},{"duration":0.4739583333333286,"durationTicks":455,"midi":62,"name":"D4","ticks":91200,"time":95,"velocity":0.6299212598425197},{"duration":0.9489583333333371,"durationTicks":911,"midi":62,"name":"D4","ticks":91680,"time":95.5,"velocity":0.6299212598425197},{"duration":0.9489583333333371,"durationTicks":911,"midi":60,"name":"C4","ticks":92640,"time":96.5,"velocity":0.6299212598425197},{"duration":0.9489583333333371,"durationTicks":911,"midi":58,"name":"A#3","ticks":93600,"time":97.5,"velocity":0.6299212598425197},{"duration":0.9489583333333371,"durationTicks":911,"midi":67,"name":"G4","ticks":93600,"time":97.5,"velocity":0.6299212598425197},{"duration":0.9489583333333371,"durationTicks":911,"midi":57,"name":"A3","ticks":94560,"time":98.5,"velocity":0.6299212598425197},{"duration":0.9489583333333371,"durationTicks":911,"midi":65,"name":"F4","ticks":94560,"time":98.5,"velocity":0.6299212598425197},{"duration":0.9489583333333371,"durationTicks":911,"midi":62,"name":"D4","ticks":95520,"time":99.5,"velocity":0.6299212598425197},{"duration":0.9489583333333371,"durationTicks":911,"midi":70,"name":"A#4","ticks":95520,"time":99.5,"velocity":0.6299212598425197},{"duration":1.4239583333333314,"durationTicks":1367,"midi":60,"name":"C4","ticks":96480,"time":100.5,"velocity":0.6299212598425197},{"duration":1.4239583333333314,"durationTicks":1367,"midi":65,"name":"F4","ticks":96480,"time":100.5,"velocity":0.6299212598425197},{"duration":1.4239583333333314,"durationTicks":1367,"midi":69,"name":"A4","ticks":96480,"time":100.5,"velocity":0.6299212598425197},{"duration":0.23645833333333144,"durationTicks":227,"midi":58,"name":"A#3","ticks":97920,"time":102,"velocity":0.6299212598425197},{"duration":0.23645833333333144,"durationTicks":227,"midi":62,"name":"D4","ticks":97920,"time":102,"velocity":0.6299212598425197},{"duration":0.23645833333333144,"durationTicks":227,"midi":67,"name":"G4","ticks":97920,"time":102,"velocity":0.6299212598425197},{"duration":0.71145833333334,"durationTicks":683,"midi":57,"name":"A3","ticks":98160,"time":102.25,"velocity":0.6299212598425197},{"duration":0.71145833333334,"durationTicks":683,"midi":60,"name":"C4","ticks":98160,"time":102.25,"velocity":0.6299212598425197},{"duration":0.71145833333334,"durationTicks":683,"midi":65,"name":"F4","ticks":98160,"time":102.25,"velocity":0.6299212598425197},{"duration":0.9489583333333371,"durationTicks":911,"midi":62,"name":"D4","ticks":99360,"time":103.5,"velocity":0.6299212598425197},{"duration":0.9489583333333371,"durationTicks":911,"midi":65,"name":"F4","ticks":99360,"time":103.5,"velocity":0.6299212598425197},{"duration":0.9489583333333371,"durationTicks":911,"midi":70,"name":"A#4","ticks":99360,"time":103.5,"velocity":0.6299212598425197},{"duration":0.9489583333333371,"durationTicks":911,"midi":60,"name":"C4","ticks":100320,"time":104.5,"velocity":0.6299212598425197},{"duration":0.9489583333333371,"durationTicks":911,"midi":65,"name":"F4","ticks":100320,"time":104.5,"velocity":0.6299212598425197},{"duration":0.9489583333333371,"durationTicks":911,"midi":69,"name":"A4","ticks":100320,"time":104.5,"velocity":0.6299212598425197},{"duration":0.9489583333333371,"durationTicks":911,"midi":57,"name":"A3","ticks":101280,"time":105.5,"velocity":0.6299212598425197},{"duration":0.9489583333333371,"durationTicks":911,"midi":62,"name":"D4","ticks":101280,"time":105.5,"velocity":0.6299212598425197},{"duration":0.9489583333333371,"durationTicks":911,"midi":65,"name":"F4","ticks":101280,"time":105.5,"velocity":0.6299212598425197},{"duration":0.23645833333333144,"durationTicks":227,"midi":57,"name":"A3","ticks":102240,"time":106.5,"velocity":0.6299212598425197},{"duration":0.23645833333333144,"durationTicks":227,"midi":60,"name":"C4","ticks":102240,"time":106.5,"velocity":0.6299212598425197},{"duration":0.71145833333334,"durationTicks":683,"midi":57,"name":"A3","ticks":102480,"time":106.75,"velocity":0.6299212598425197},{"duration":0.71145833333334,"durationTicks":683,"midi":60,"name":"C4","ticks":102480,"time":106.75,"velocity":0.6299212598425197},{"duration":1.4239583333333314,"durationTicks":1367,"midi":58,"name":"A#3","ticks":103200,"time":107.5,"velocity":0.6299212598425197},{"duration":1.4239583333333314,"durationTicks":1367,"midi":62,"name":"D4","ticks":103200,"time":107.5,"velocity":0.6299212598425197},{"duration":0.4739583333333286,"durationTicks":455,"midi":62,"name":"D4","ticks":106560,"time":111,"velocity":0.6299212598425197},{"duration":0.9489583333333371,"durationTicks":911,"midi":62,"name":"D4","ticks":107040,"time":111.5,"velocity":0.6299212598425197},{"duration":0.71145833333334,"durationTicks":683,"midi":60,"name":"C4","ticks":108000,"time":112.5,"velocity":0.6299212598425197},{"duration":0.23645833333333144,"durationTicks":227,"midi":60,"name":"C4","ticks":108720,"time":113.25,"velocity":0.6299212598425197},{"duration":0.9489583333333371,"durationTicks":911,"midi":64,"name":"E4","ticks":108960,"time":113.5,"velocity":0.6299212598425197},{"duration":0.9489583333333371,"durationTicks":911,"midi":67,"name":"G4","ticks":108960,"time":113.5,"velocity":0.6299212598425197},{"duration":0.4739583333333286,"durationTicks":455,"midi":62,"name":"D4","ticks":109920,"time":114.5,"velocity":0.6299212598425197},{"duration":0.4739583333333286,"durationTicks":455,"midi":65,"name":"F4","ticks":109920,"time":114.5,"velocity":0.6299212598425197},{"duration":0.23645833333333144,"durationTicks":227,"midi":58,"name":"A#3","ticks":110400,"time":115,"velocity":0.6299212598425197},{"duration":0.23645833333333144,"durationTicks":227,"midi":62,"name":"D4","ticks":110400,"time":115,"velocity":0.6299212598425197},{"duration":0.71145833333334,"durationTicks":683,"midi":58,"name":"A#3","ticks":110640,"time":115.25,"velocity":0.6299212598425197},{"duration":0.71145833333334,"durationTicks":683,"midi":62,"name":"D4","ticks":110640,"time":115.25,"velocity":0.6299212598425197},{"duration":0.71145833333334,"durationTicks":683,"midi":65,"name":"F4","ticks":110640,"time":115.25,"velocity":0.6299212598425197},{"duration":0.71145833333334,"durationTicks":683,"midi":62,"name":"D4","ticks":111360,"time":116,"velocity":0.6299212598425197},{"duration":0.71145833333334,"durationTicks":683,"midi":67,"name":"G4","ticks":111360,"time":116,"velocity":0.6299212598425197},{"duration":0.71145833333334,"durationTicks":683,"midi":70,"name":"A#4","ticks":111360,"time":116,"velocity":0.6299212598425197},{"duration":0.71145833333334,"durationTicks":683,"midi":65,"name":"F4","ticks":112080,"time":116.75,"velocity":0.6299212598425197},{"duration":0.71145833333334,"durationTicks":683,"midi":69,"name":"A4","ticks":112080,"time":116.75,"velocity":0.6299212598425197},{"duration":0.71145833333334,"durationTicks":683,"midi":72,"name":"C5","ticks":112080,"time":116.75,"velocity":0.6299212598425197},{"duration":0.4739583333333286,"durationTicks":455,"midi":60,"name":"C4","ticks":112800,"time":117.5,"velocity":0.6299212598425197},{"duration":0.4739583333333286,"durationTicks":455,"midi":65,"name":"F4","ticks":112800,"time":117.5,"velocity":0.6299212598425197},{"duration":0.4739583333333286,"durationTicks":455,"midi":69,"name":"A4","ticks":112800,"time":117.5,"velocity":0.6299212598425197},{"duration":0.23645833333333144,"durationTicks":227,"midi":60,"name":"C4","ticks":113280,"time":118,"velocity":0.6299212598425197},{"duration":0.23645833333333144,"durationTicks":227,"midi":65,"name":"F4","ticks":113280,"time":118,"velocity":0.6299212598425197},{"duration":0.23645833333333144,"durationTicks":227,"midi":69,"name":"A4","ticks":113280,"time":118,"velocity":0.6299212598425197},{"duration":0.4739583333333286,"durationTicks":455,"midi":58,"name":"A#3","ticks":113520,"time":118.25,"velocity":0.6299212598425197},{"duration":0.4739583333333286,"durationTicks":455,"midi":62,"name":"D4","ticks":113520,"time":118.25,"velocity":0.6299212598425197},{"duration":0.4739583333333286,"durationTicks":455,"midi":67,"name":"G4","ticks":113520,"time":118.25,"velocity":0.6299212598425197},{"duration":0.4739583333333286,"durationTicks":455,"midi":57,"name":"A3","ticks":114000,"time":118.75,"velocity":0.6299212598425197},{"duration":0.4739583333333286,"durationTicks":455,"midi":60,"name":"C4","ticks":114000,"time":118.75,"velocity":0.6299212598425197},{"duration":0.4739583333333286,"durationTicks":455,"midi":65,"name":"F4","ticks":114000,"time":118.75,"velocity":0.6299212598425197},{"duration":0.4739583333333286,"durationTicks":455,"midi":57,"name":"A3","ticks":114720,"time":119.5,"velocity":0.6299212598425197},{"duration":0.4739583333333286,"durationTicks":455,"midi":60,"name":"C4","ticks":114720,"time":119.5,"velocity":0.6299212598425197},{"duration":0.4739583333333286,"durationTicks":455,"midi":65,"name":"F4","ticks":114720,"time":119.5,"velocity":0.6299212598425197},{"duration":0.9489583333333371,"durationTicks":911,"midi":62,"name":"D4","ticks":115200,"time":120,"velocity":0.6299212598425197},{"duration":0.9489583333333371,"durationTicks":911,"midi":65,"name":"F4","ticks":115200,"time":120,"velocity":0.6299212598425197},{"duration":0.9489583333333371,"durationTicks":911,"midi":70,"name":"A#4","ticks":115200,"time":120,"velocity":0.6299212598425197},{"duration":0.23645833333333144,"durationTicks":227,"midi":60,"name":"C4","ticks":116160,"time":121,"velocity":0.6299212598425197},{"duration":0.23645833333333144,"durationTicks":227,"midi":65,"name":"F4","ticks":116160,"time":121,"velocity":0.6299212598425197},{"duration":0.23645833333333144,"durationTicks":227,"midi":69,"name":"A4","ticks":116160,"time":121,"velocity":0.6299212598425197},{"duration":0.23645833333333144,"durationTicks":227,"midi":60,"name":"C4","ticks":116400,"time":121.25,"velocity":0.6299212598425197},{"duration":0.23645833333333144,"durationTicks":227,"midi":65,"name":"F4","ticks":116400,"time":121.25,"velocity":0.6299212598425197},{"duration":0.23645833333333144,"durationTicks":227,"midi":69,"name":"A4","ticks":116400,"time":121.25,"velocity":0.6299212598425197},{"duration":0.9489583333333371,"durationTicks":911,"midi":57,"name":"A3","ticks":116640,"time":121.5,"velocity":0.6299212598425197},{"duration":0.9489583333333371,"durationTicks":911,"midi":60,"name":"C4","ticks":116640,"time":121.5,"velocity":0.6299212598425197},{"duration":0.9489583333333371,"durationTicks":911,"midi":65,"name":"F4","ticks":116640,"time":121.5,"velocity":0.6299212598425197},{"duration":0.9489583333333371,"durationTicks":911,"midi":57,"name":"A3","ticks":117600,"time":122.5,"velocity":0.6299212598425197},{"duration":0.9489583333333371,"durationTicks":911,"midi":60,"name":"C4","ticks":117600,"time":122.5,"velocity":0.6299212598425197},{"duration":1.4239583333333314,"durationTicks":1367,"midi":58,"name":"A#3","ticks":118560,"time":123.5,"velocity":0.6299212598425197},{"duration":1.4239583333333314,"durationTicks":1367,"midi":62,"name":"D4","ticks":118560,"time":123.5,"velocity":0.6299212598425197},{"duration":0.4739583333333286,"durationTicks":455,"midi":64,"name":"E4","ticks":120960,"time":126,"velocity":0.6299212598425197},{"duration":0.4739583333333286,"durationTicks":455,"midi":65,"name":"F4","ticks":121440,"time":126.5,"velocity":0.6299212598425197},{"duration":0.4739583333333286,"durationTicks":455,"midi":62,"name":"D4","ticks":121920,"time":127,"velocity":0.6299212598425197},{"duration":0.4739583333333286,"durationTicks":455,"midi":60,"name":"C4","ticks":122400,"time":127.5,"velocity":0.6299212598425197},{"duration":0.23645833333333144,"durationTicks":227,"midi":58,"name":"A#3","ticks":123600,"time":128.75,"velocity":0.6299212598425197},{"duration":0.4739583333333428,"durationTicks":455,"midi":60,"name":"C4","ticks":124080,"time":129.25,"velocity":0.6299212598425197},{"duration":0.23645833333333144,"durationTicks":227,"midi":62,"name":"D4","ticks":124560,"time":129.75,"velocity":0.6299212598425197},{"duration":0.9489583333333371,"durationTicks":911,"midi":60,"name":"C4","ticks":124800,"time":130,"velocity":0.6299212598425197},{"duration":0.9489583333333371,"durationTicks":911,"midi":60,"name":"C4","ticks":125760,"time":131,"velocity":0.6299212598425197},{"duration":1.8989583333333258,"durationTicks":1823,"midi":62,"name":"D4","ticks":126720,"time":132,"velocity":0.6299212598425197},{"duration":0.4739583333333428,"durationTicks":455,"midi":58,"name":"A#3","ticks":127440,"time":132.75,"velocity":0.6299212598425197},{"duration":0.4739583333333428,"durationTicks":455,"midi":60,"name":"C4","ticks":129360,"time":134.75,"velocity":0.6299212598425197},{"duration":1.8989583333333258,"durationTicks":1823,"midi":62,"name":"D4","ticks":130560,"time":136,"velocity":0.6299212598425197},{"duration":0.4739583333333428,"durationTicks":455,"midi":58,"name":"A#3","ticks":131280,"time":136.75,"velocity":0.6299212598425197},{"duration":0.23645833333333144,"durationTicks":227,"midi":60,"name":"C4","ticks":131760,"time":137.25,"velocity":0.6299212598425197},{"duration":0.4739583333333428,"durationTicks":455,"midi":62,"name":"D4","ticks":132000,"time":137.5,"velocity":0.6299212598425197},{"duration":0.9489583333333371,"durationTicks":911,"midi":60,"name":"C4","ticks":132480,"time":138,"velocity":0.6299212598425197},{"duration":0.9489583333333371,"durationTicks":911,"midi":60,"name":"C4","ticks":133440,"time":139,"velocity":0.6299212598425197},{"duration":0.4739583333333428,"durationTicks":455,"midi":62,"name":"D4","ticks":133920,"time":139.5,"velocity":0.6299212598425197},{"duration":0.4739583333333428,"durationTicks":455,"midi":58,"name":"A#3","ticks":135120,"time":140.75,"velocity":0.6299212598425197},{"duration":0.4739583333333428,"durationTicks":455,"midi":60,"name":"C4","ticks":137040,"time":142.75,"velocity":0.6299212598425197},{"duration":0.7114583333333258,"durationTicks":683,"midi":62,"name":"D4","ticks":138240,"time":144,"velocity":0.6299212598425197},{"duration":0.23645833333333144,"durationTicks":227,"midi":58,"name":"A#3","ticks":138960,"time":144.75,"velocity":0.6299212598425197},{"duration":0.23645833333333144,"durationTicks":227,"midi":65,"name":"F4","ticks":138960,"time":144.75,"velocity":0.6299212598425197},{"duration":0.23645833333333144,"durationTicks":227,"midi":65,"name":"F4","ticks":139200,"time":145,"velocity":0.6299212598425197},{"duration":0.4739583333333428,"durationTicks":455,"midi":65,"name":"F4","ticks":139440,"time":145.25,"velocity":0.6299212598425197},{"duration":0.7114583333333258,"durationTicks":683,"midi":65,"name":"F4","ticks":139920,"time":145.75,"velocity":0.6299212598425197},{"duration":0.23645833333333144,"durationTicks":227,"midi":60,"name":"C4","ticks":140880,"time":146.75,"velocity":0.6299212598425197},{"duration":0.23645833333333144,"durationTicks":227,"midi":65,"name":"F4","ticks":140880,"time":146.75,"velocity":0.6299212598425197},{"duration":0.23645833333333144,"durationTicks":227,"midi":60,"name":"C4","ticks":141120,"time":147,"velocity":0.6299212598425197},{"duration":0.23645833333333144,"durationTicks":227,"midi":60,"name":"C4","ticks":141360,"time":147.25,"velocity":0.6299212598425197},{"duration":0.9489583333333371,"durationTicks":911,"midi":58,"name":"A#3","ticks":141600,"time":147.5,"velocity":0.6299212598425197},{"duration":0.4739583333333428,"durationTicks":455,"midi":60,"name":"C4","ticks":144720,"time":150.75,"velocity":0.6299212598425197},{"duration":0.9489583333333371,"durationTicks":911,"midi":62,"name":"D4","ticks":145920,"time":152,"velocity":0.6299212598425197},{"duration":0.4739583333333428,"durationTicks":455,"midi":58,"name":"A#3","ticks":146880,"time":153,"velocity":0.6299212598425197},{"duration":0.4739583333333428,"durationTicks":455,"midi":65,"name":"F4","ticks":146880,"time":153,"velocity":0.6299212598425197},{"duration":0.23645833333333144,"durationTicks":227,"midi":65,"name":"F4","ticks":147360,"time":153.5,"velocity":0.6299212598425197},{"duration":0.4739583333333428,"durationTicks":455,"midi":65,"name":"F4","ticks":147600,"time":153.75,"velocity":0.6299212598425197},{"duration":0.23645833333333144,"durationTicks":227,"midi":65,"name":"F4","ticks":148080,"time":154.25,"velocity":0.6299212598425197},{"duration":0.23645833333333144,"durationTicks":227,"midi":65,"name":"F4","ticks":148320,"time":154.5,"velocity":0.6299212598425197},{"duration":0.23645833333333144,"durationTicks":227,"midi":60,"name":"C4","ticks":148560,"time":154.75,"velocity":0.6299212598425197},{"duration":0.23645833333333144,"durationTicks":227,"midi":65,"name":"F4","ticks":148560,"time":154.75,"velocity":0.6299212598425197},{"duration":0.4739583333333428,"durationTicks":455,"midi":60,"name":"C4","ticks":148800,"time":155,"velocity":0.6299212598425197},{"duration":0.23645833333333144,"durationTicks":227,"midi":60,"name":"C4","ticks":149280,"time":155.5,"velocity":0.6299212598425197},{"duration":0.23645833333333144,"durationTicks":227,"midi":60,"name":"C4","ticks":149520,"time":155.75,"velocity":0.6299212598425197},{"duration":0.4739583333333428,"durationTicks":455,"midi":58,"name":"A#3","ticks":149760,"time":156,"velocity":0.6299212598425197},{"duration":0.9489583333333371,"durationTicks":911,"midi":69,"name":"A4","ticks":151680,"time":158,"velocity":0.6299212598425197},{"duration":0.23645833333333144,"durationTicks":227,"midi":60,"name":"C4","ticks":152640,"time":159,"velocity":0.6299212598425197},{"duration":0.23645833333333144,"durationTicks":227,"midi":65,"name":"F4","ticks":152640,"time":159,"velocity":0.6299212598425197},{"duration":0.23645833333333144,"durationTicks":227,"midi":67,"name":"G4","ticks":152880,"time":159.25,"velocity":0.6299212598425197},{"duration":0.4739583333333428,"durationTicks":455,"midi":65,"name":"F4","ticks":153120,"time":159.5,"velocity":0.6299212598425197},{"duration":0.9489583333333371,"durationTicks":911,"midi":65,"name":"F4","ticks":153600,"time":160,"velocity":0.6299212598425197},{"duration":0.9489583333333371,"durationTicks":911,"midi":69,"name":"A4","ticks":153600,"time":160,"velocity":0.6299212598425197},{"duration":0.4739583333333428,"durationTicks":455,"midi":58,"name":"A#3","ticks":154560,"time":161,"velocity":0.6299212598425197},{"duration":0.4739583333333428,"durationTicks":455,"midi":70,"name":"A#4","ticks":154560,"time":161,"velocity":0.6299212598425197},{"duration":0.23645833333333144,"durationTicks":227,"midi":69,"name":"A4","ticks":155040,"time":161.5,"velocity":0.6299212598425197},{"duration":0.4739583333333428,"durationTicks":455,"midi":67,"name":"G4","ticks":155280,"time":161.75,"velocity":0.6299212598425197},{"duration":0.7114583333333258,"durationTicks":683,"midi":65,"name":"F4","ticks":155760,"time":162.25,"velocity":0.6299212598425197},{"duration":0.23645833333333144,"durationTicks":227,"midi":62,"name":"D4","ticks":156480,"time":163,"velocity":0.6299212598425197},{"duration":0.23645833333333144,"durationTicks":227,"midi":60,"name":"C4","ticks":156720,"time":163.25,"velocity":0.6299212598425197},{"duration":0.9489583333333371,"durationTicks":911,"midi":65,"name":"F4","ticks":156960,"time":163.5,"velocity":0.6299212598425197},{"duration":0.9489583333333371,"durationTicks":911,"midi":69,"name":"A4","ticks":156960,"time":163.5,"velocity":0.6299212598425197},{"duration":0.23645833333333144,"durationTicks":227,"midi":58,"name":"A#3","ticks":158400,"time":165,"velocity":0.6299212598425197},{"duration":0.23645833333333144,"durationTicks":227,"midi":67,"name":"G4","ticks":158400,"time":165,"velocity":0.6299212598425197},{"duration":0.4739583333333428,"durationTicks":455,"midi":65,"name":"F4","ticks":158640,"time":165.25,"velocity":0.6299212598425197},{"duration":0.7114583333333258,"durationTicks":683,"midi":62,"name":"D4","ticks":159120,"time":165.75,"velocity":0.6299212598425197},{"duration":0.23645833333333144,"durationTicks":227,"midi":60,"name":"C4","ticks":159840,"time":166.5,"velocity":0.6299212598425197},{"duration":0.23645833333333144,"durationTicks":227,"midi":60,"name":"C4","ticks":160320,"time":167,"velocity":0.6299212598425197},{"duration":0.7114583333333258,"durationTicks":683,"midi":60,"name":"C4","ticks":160560,"time":167.25,"velocity":0.6299212598425197},{"duration":0.9489583333333371,"durationTicks":911,"midi":58,"name":"A#3","ticks":161280,"time":168,"velocity":0.6299212598425197},{"duration":0.9489583333333371,"durationTicks":911,"midi":67,"name":"G4","ticks":161280,"time":168,"velocity":0.6299212598425197},{"duration":0.7114583333333258,"durationTicks":683,"midi":65,"name":"F4","ticks":162240,"time":169,"velocity":0.6299212598425197},{"duration":0.23645833333333144,"durationTicks":227,"midi":65,"name":"F4","ticks":162960,"time":169.75,"velocity":0.6299212598425197},{"duration":0.9489583333333371,"durationTicks":911,"midi":58,"name":"A#3","ticks":163200,"time":170,"velocity":0.6299212598425197},{"duration":0.4739583333333428,"durationTicks":455,"midi":57,"name":"A3","ticks":164160,"time":171,"velocity":0.6299212598425197},{"duration":1.4239583333333314,"durationTicks":1367,"midi":62,"name":"D4","ticks":164640,"time":171.5,"velocity":0.6299212598425197},{"duration":0.23645833333333144,"durationTicks":227,"midi":65,"name":"F4","ticks":168000,"time":175,"velocity":0.6299212598425197},{"duration":0.23645833333333144,"durationTicks":227,"midi":67,"name":"G4","ticks":168240,"time":175.25,"velocity":0.6299212598425197},{"duration":0.4739583333333428,"durationTicks":455,"midi":65,"name":"F4","ticks":168480,"time":175.5,"velocity":0.6299212598425197},{"duration":0.9489583333333371,"durationTicks":911,"midi":69,"name":"A4","ticks":168960,"time":176,"velocity":0.6299212598425197},{"duration":0.4739583333333428,"durationTicks":455,"midi":58,"name":"A#3","ticks":169920,"time":177,"velocity":0.6299212598425197},{"duration":0.4739583333333428,"durationTicks":455,"midi":70,"name":"A#4","ticks":169920,"time":177,"velocity":0.6299212598425197},{"duration":0.23645833333333144,"durationTicks":227,"midi":69,"name":"A4","ticks":170400,"time":177.5,"velocity":0.6299212598425197},{"duration":0.4739583333333428,"durationTicks":455,"midi":67,"name":"G4","ticks":170640,"time":177.75,"velocity":0.6299212598425197},{"duration":0.7114583333333258,"durationTicks":683,"midi":65,"name":"F4","ticks":171120,"time":178.25,"velocity":0.6299212598425197},{"duration":0.23645833333333144,"durationTicks":227,"midi":62,"name":"D4","ticks":171840,"time":179,"velocity":0.6299212598425197},{"duration":0.23645833333333144,"durationTicks":227,"midi":60,"name":"C4","ticks":172080,"time":179.25,"velocity":0.6299212598425197},{"duration":0.9489583333333371,"durationTicks":911,"midi":72,"name":"C5","ticks":172320,"time":179.5,"velocity":0.6299212598425197},{"duration":0.23645833333333144,"durationTicks":227,"midi":69,"name":"A4","ticks":173760,"time":181,"velocity":0.6299212598425197},{"duration":0.4739583333333428,"durationTicks":455,"midi":67,"name":"G4","ticks":174000,"time":181.25,"velocity":0.6299212598425197},{"duration":1.18645833333332,"durationTicks":1139,"midi":65,"name":"F4","ticks":174480,"time":181.75,"velocity":0.6299212598425197},{"duration":0.23645833333333144,"durationTicks":227,"midi":60,"name":"C4","ticks":175680,"time":183,"velocity":0.6299212598425197},{"duration":0.7114583333333258,"durationTicks":683,"midi":60,"name":"C4","ticks":175920,"time":183.25,"velocity":0.6299212598425197},{"duration":0.9489583333333371,"durationTicks":911,"midi":58,"name":"A#3","ticks":176640,"time":184,"velocity":0.6299212598425197},{"duration":0.9489583333333371,"durationTicks":911,"midi":70,"name":"A#4","ticks":176640,"time":184,"velocity":0.6299212598425197},{"duration":0.7114583333333258,"durationTicks":683,"midi":65,"name":"F4","ticks":177600,"time":185,"velocity":0.6299212598425197},{"duration":0.23645833333333144,"durationTicks":227,"midi":65,"name":"F4","ticks":178320,"time":185.75,"velocity":0.6299212598425197},{"duration":0.9489583333333371,"durationTicks":911,"midi":60,"name":"C4","ticks":178560,"time":186,"velocity":0.6299212598425197},{"duration":0.4739583333333428,"durationTicks":455,"midi":57,"name":"A3","ticks":179520,"time":187,"velocity":0.6299212598425197},{"duration":1.4239583333333314,"durationTicks":1367,"midi":62,"name":"D4","ticks":180000,"time":187.5,"velocity":0.6299212598425197},{"duration":0.7114583333333258,"durationTicks":683,"midi":67,"name":"G4","ticks":183360,"time":191,"velocity":0.6299212598425197},{"duration":0.23645833333333144,"durationTicks":227,"midi":67,"name":"G4","ticks":184080,"time":191.75,"velocity":0.6299212598425197},{"duration":0.9489583333333371,"durationTicks":911,"midi":67,"name":"G4","ticks":184320,"time":192,"velocity":0.6299212598425197},{"duration":0.7114583333333258,"durationTicks":683,"midi":65,"name":"F4","ticks":185280,"time":193,"velocity":0.6299212598425197},{"duration":0.23645833333333144,"durationTicks":227,"midi":65,"name":"F4","ticks":186000,"time":193.75,"velocity":0.6299212598425197},{"duration":0.9489583333333371,"durationTicks":911,"midi":60,"name":"C4","ticks":186240,"time":194,"velocity":0.6299212598425197},{"duration":0.4739583333333428,"durationTicks":455,"midi":57,"name":"A3","ticks":187200,"time":195,"velocity":0.6299212598425197},{"duration":2.37395833333332,"durationTicks":2279,"midi":62,"name":"D4","ticks":187680,"time":195.5,"velocity":0.6299212598425197}]},{"instrument_number":0,"notes":[{"duration":0.9489583333333333,"durationTicks":911,"midi":46,"name":"A#2","ticks":0,"time":0,"velocity":0.6299212598425197},{"duration":0.23645833333333333,"durationTicks":227,"midi":53,"name":"F3","ticks":240,"time":0.25,"velocity":0.6299212598425197},{"duration":0.47395833333333337,"durationTicks":455,"midi":50,"name":"D3","ticks":480,"time":0.5,"velocity":0.6299212598425197},{"duration":0.23645833333333344,"durationTicks":227,"midi":53,"name":"F3","ticks":1200,"time":1.25,"velocity":0.6299212598425197},{"duration":0.23645833333333344,"durationTicks":227,"midi":50,"name":"D3","ticks":1440,"time":1.5,"velocity":0.6299212598425197},{"duration":0.23645833333333344,"durationTicks":227,"midi":53,"name":"F3","ticks":1680,"time":1.75,"velocity":0.6299212598425197},{"duration":1.4239583333333332,"durationTicks":1367,"midi":45,"name":"A2","ticks":1920,"time":2,"velocity":0.6299212598425197},{"duration":0.23645833333333321,"durationTicks":227,"midi":53,"name":"F3","ticks":2160,"time":2.25,"velocity":0.6299212598425197},{"duration":0.4739583333333335,"durationTicks":455,"midi":48,"name":"C3","ticks":2400,"time":2.5,"velocity":0.6299212598425197},{"duration":0.23645833333333321,"durationTicks":227,"midi":53,"name":"F3","ticks":3120,"time":3.25,"velocity":0.6299212598425197},{"duration":0.23645833333333321,"durationTicks":227,"midi":48,"name":"C3","ticks":3360,"time":3.5,"velocity":0.6299212598425197},{"duration":0.23645833333333321,"durationTicks":227,"midi":53,"name":"F3","ticks":3600,"time":3.75,"velocity":0.6299212598425197},{"duration":1.4239583333333332,"durationTicks":1367,"midi":43,"name":"G2","ticks":3840,"time":4,"velocity":0.6299212598425197},{"duration":0.23645833333333321,"durationTicks":227,"midi":53,"name":"F3","ticks":4080,"time":4.25,"velocity":0.6299212598425197},{"duration":0.47395833333333304,"durationTicks":455,"midi":50,"name":"D3","ticks":4320,"time":4.5,"velocity":0.6299212598425197},{"duration":0.23645833333333321,"durationTicks":227,"midi":53,"name":"F3","ticks":5040,"time":5.25,"velocity":0.6299212598425197},{"duration":0.23645833333333321,"durationTicks":227,"midi":50,"name":"D3","ticks":5280,"time":5.5,"velocity":0.6299212598425197},{"duration":0.23645833333333321,"durationTicks":227,"midi":53,"name":"F3","ticks":5520,"time":5.75,"velocity":0.6299212598425197},{"duration":1.4239583333333332,"durationTicks":1367,"midi":45,"name":"A2","ticks":5760,"time":6,"velocity":0.6299212598425197},{"duration":0.23645833333333321,"durationTicks":227,"midi":53,"name":"F3","ticks":6000,"time":6.25,"velocity":0.6299212598425197},{"duration":0.47395833333333304,"durationTicks":455,"midi":48,"name":"C3","ticks":6240,"time":6.5,"velocity":0.6299212598425197},{"duration":0.23645833333333321,"durationTicks":227,"midi":53,"name":"F3","ticks":6960,"time":7.25,"velocity":0.6299212598425197},{"duration":0.23645833333333321,"durationTicks":227,"midi":48,"name":"C3","ticks":7200,"time":7.5,"velocity":0.6299212598425197},{"duration":0.23645833333333321,"durationTicks":227,"midi":53,"name":"F3","ticks":7440,"time":7.75,"velocity":0.6299212598425197},{"duration":1.4239583333333332,"durationTicks":1367,"midi":46,"name":"A#2","ticks":7680,"time":8,"velocity":0.6299212598425197},{"duration":0.9739583333333339,"durationTicks":935,"midi":50,"name":"D3","ticks":7680,"time":8,"velocity":0.6299212598425197},{"duration":0.23645833333333321,"durationTicks":227,"midi":53,"name":"F3","ticks":7920,"time":8.25,"velocity":0.6299212598425197},{"duration":0.9239583333333332,"durationTicks":887,"midi":50,"name":"D3","ticks":8160,"time":8.5,"velocity":0.6299212598425197},{"duration":0.23645833333333321,"durationTicks":227,"midi":53,"name":"F3","ticks":8880,"time":9.25,"velocity":0.6299212598425197},{"duration":0.23645833333333321,"durationTicks":227,"midi":50,"name":"D3","ticks":9120,"time":9.5,"velocity":0.6299212598425197},{"duration":0.23645833333333321,"durationTicks":227,"midi":53,"name":"F3","ticks":9360,"time":9.75,"velocity":0.6299212598425197},{"duration":1.4239583333333332,"durationTicks":1367,"midi":45,"name":"A2","ticks":9600,"time":10,"velocity":0.6299212598425197},{"duration":0.23645833333333321,"durationTicks":227,"midi":53,"name":"F3","ticks":9840,"time":10.25,"velocity":0.6299212598425197},{"duration":0.4739583333333339,"durationTicks":455,"midi":48,"name":"C3","ticks":10080,"time":10.5,"velocity":0.6299212598425197},{"duration":0.23645833333333321,"durationTicks":227,"midi":53,"name":"F3","ticks":10800,"time":11.25,"velocity":0.6299212598425197},{"duration":0.23645833333333321,"durationTicks":227,"midi":48,"name":"C3","ticks":11040,"time":11.5,"velocity":0.6299212598425197},{"duration":0.23645833333333321,"durationTicks":227,"midi":53,"name":"F3","ticks":11280,"time":11.75,"velocity":0.6299212598425197},{"duration":1.4239583333333332,"durationTicks":1367,"midi":43,"name":"G2","ticks":11520,"time":12,"velocity":0.6299212598425197},{"duration":1.4239583333333332,"durationTicks":1367,"midi":46,"name":"A#2","ticks":11520,"time":12,"velocity":0.6299212598425197},{"duration":0.23645833333333321,"durationTicks":227,"midi":53,"name":"F3","ticks":11760,"time":12.25,"velocity":0.6299212598425197},{"duration":0.4739583333333339,"durationTicks":455,"midi":50,"name":"D3","ticks":12000,"time":12.5,"velocity":0.6299212598425197},{"duration":0.23645833333333321,"durationTicks":227,"midi":53,"name":"F3","ticks":12720,"time":13.25,"velocity":0.6299212598425197},{"duration":0.23645833333333321,"durationTicks":227,"midi":50,"name":"D3","ticks":12960,"time":13.5,"velocity":0.6299212598425197},{"duration":0.23645833333333321,"durationTicks":227,"midi":53,"name":"F3","ticks":13200,"time":13.75,"velocity":0.6299212598425197},{"duration":1.4239583333333332,"durationTicks":1367,"midi":45,"name":"A2","ticks":13440,"time":14,"velocity":0.6299212598425197},{"duration":0.23645833333333321,"durationTicks":227,"midi":53,"name":"F3","ticks":13680,"time":14.25,"velocity":0.6299212598425197},{"duration":0.4739583333333339,"durationTicks":455,"midi":48,"name":"C3","ticks":13920,"time":14.5,"velocity":0.6299212598425197},{"duration":0.23645833333333321,"durationTicks":227,"midi":53,"name":"F3","ticks":14640,"time":15.25,"velocity":0.6299212598425197},{"duration":0.23645833333333321,"durationTicks":227,"midi":48,"name":"C3","ticks":14880,"time":15.5,"velocity":0.6299212598425197},{"duration":0.23645833333333321,"durationTicks":227,"midi":53,"name":"F3","ticks":15120,"time":15.75,"velocity":0.6299212598425197},{"duration":1.423958333333335,"durationTicks":1367,"midi":46,"name":"A#2","ticks":15360,"time":16,"velocity":0.6299212598425197},{"duration":0.9739583333333321,"durationTicks":935,"midi":50,"name":"D3","ticks":15360,"time":16,"velocity":0.6299212598425197},{"duration":0.236458333333335,"durationTicks":227,"midi":53,"name":"F3","ticks":15600,"time":16.25,"velocity":0.6299212598425197},{"duration":0.923958333333335,"durationTicks":887,"midi":50,"name":"D3","ticks":15840,"time":16.5,"velocity":0.6299212598425197},{"duration":0.236458333333335,"durationTicks":227,"midi":53,"name":"F3","ticks":16560,"time":17.25,"velocity":0.6299212598425197},{"duration":0.236458333333335,"durationTicks":227,"midi":50,"name":"D3","ticks":16800,"time":17.5,"velocity":0.6299212598425197},{"duration":0.236458333333335,"durationTicks":227,"midi":53,"name":"F3","ticks":17040,"time":17.75,"velocity":0.6299212598425197},{"duration":1.423958333333335,"durationTicks":1367,"midi":45,"name":"A2","ticks":17280,"time":18,"velocity":0.6299212598425197},{"duration":0.236458333333335,"durationTicks":227,"midi":53,"name":"F3","ticks":17520,"time":18.25,"velocity":0.6299212598425197},{"duration":0.47395833333333215,"durationTicks":455,"midi":48,"name":"C3","ticks":17760,"time":18.5,"velocity":0.6299212598425197},{"duration":0.236458333333335,"durationTicks":227,"midi":53,"name":"F3","ticks":18480,"time":19.25,"velocity":0.6299212598425197},{"duration":0.236458333333335,"durationTicks":227,"midi":48,"name":"C3","ticks":18720,"time":19.5,"velocity":0.6299212598425197},{"duration":0.236458333333335,"durationTicks":227,"midi":53,"name":"F3","ticks":18960,"time":19.75,"velocity":0.6299212598425197},{"duration":1.423958333333335,"durationTicks":1367,"midi":43,"name":"G2","ticks":19200,"time":20,"velocity":0.6299212598425197},{"duration":1.423958333333335,"durationTicks":1367,"midi":46,"name":"A#2","ticks":19200,"time":20,"velocity":0.6299212598425197},{"duration":0.236458333333335,"durationTicks":227,"midi":53,"name":"F3","ticks":19440,"time":20.25,"velocity":0.6299212598425197},{"duration":0.47395833333333215,"durationTicks":455,"midi":50,"name":"D3","ticks":19680,"time":20.5,"velocity":0.6299212598425197},{"duration":0.236458333333335,"durationTicks":227,"midi":53,"name":"F3","ticks":20400,"time":21.25,"velocity":0.6299212598425197},{"duration":0.236458333333335,"durationTicks":227,"midi":50,"name":"D3","ticks":20640,"time":21.5,"velocity":0.6299212598425197},{"duration":0.236458333333335,"durationTicks":227,"midi":53,"name":"F3","ticks":20880,"time":21.75,"velocity":0.6299212598425197},{"duration":0.236458333333335,"durationTicks":227,"midi":45,"name":"A2","ticks":21120,"time":22,"velocity":0.6299212598425197},{"duration":0.236458333333335,"durationTicks":227,"midi":53,"name":"F3","ticks":21360,"time":22.25,"velocity":0.6299212598425197},{"duration":0.47395833333333215,"durationTicks":455,"midi":48,"name":"C3","ticks":21600,"time":22.5,"velocity":0.6299212598425197},{"duration":0.236458333333335,"durationTicks":227,"midi":53,"name":"F3","ticks":22320,"time":23.25,"velocity":0.6299212598425197},{"duration":0.236458333333335,"durationTicks":227,"midi":48,"name":"C3","ticks":22560,"time":23.5,"velocity":0.6299212598425197},{"duration":0.236458333333335,"durationTicks":227,"midi":53,"name":"F3","ticks":22800,"time":23.75,"velocity":0.6299212598425197},{"duration":1.423958333333335,"durationTicks":1367,"midi":46,"name":"A#2","ticks":23040,"time":24,"velocity":0.6299212598425197},{"duration":0.9739583333333321,"durationTicks":935,"midi":50,"name":"D3","ticks":23040,"time":24,"velocity":0.6299212598425197},{"duration":0.236458333333335,"durationTicks":227,"midi":53,"name":"F3","ticks":23280,"time":24.25,"velocity":0.6299212598425197},{"duration":0.923958333333335,"durationTicks":887,"midi":50,"name":"D3","ticks":23520,"time":24.5,"velocity":0.6299212598425197},{"duration":0.236458333333335,"durationTicks":227,"midi":53,"name":"F3","ticks":24240,"time":25.25,"velocity":0.6299212598425197},{"duration":0.236458333333335,"durationTicks":227,"midi":50,"name":"D3","ticks":24480,"time":25.5,"velocity":0.6299212598425197},{"duration":0.236458333333335,"durationTicks":227,"midi":53,"name":"F3","ticks":24720,"time":25.75,"velocity":0.6299212598425197},{"duration":1.423958333333335,"durationTicks":1367,"midi":45,"name":"A2","ticks":24960,"time":26,"velocity":0.6299212598425197},{"duration":0.236458333333335,"durationTicks":227,"midi":53,"name":"F3","ticks":25200,"time":26.25,"velocity":0.6299212598425197},{"duration":0.47395833333333215,"durationTicks":455,"midi":48,"name":"C3","ticks":25440,"time":26.5,"velocity":0.6299212598425197},{"duration":0.236458333333335,"durationTicks":227,"midi":53,"name":"F3","ticks":26160,"time":27.25,"velocity":0.6299212598425197},{"duration":0.236458333333335,"durationTicks":227,"midi":48,"name":"C3","ticks":26400,"time":27.5,"velocity":0.6299212598425197},{"duration":0.236458333333335,"durationTicks":227,"midi":53,"name":"F3","ticks":26640,"time":27.75,"velocity":0.6299212598425197},{"duration":1.423958333333335,"durationTicks":1367,"midi":43,"name":"G2","ticks":26880,"time":28,"velocity":0.6299212598425197},{"duration":1.423958333333335,"durationTicks":1367,"midi":46,"name":"A#2","ticks":26880,"time":28,"velocity":0.6299212598425197},{"duration":0.236458333333335,"durationTicks":227,"midi":53,"name":"F3","ticks":27120,"time":28.25,"velocity":0.6299212598425197},{"duration":0.47395833333333215,"durationTicks":455,"midi":50,"name":"D3","ticks":27360,"time":28.5,"velocity":0.6299212598425197},{"duration":0.236458333333335,"durationTicks":227,"midi":53,"name":"F3","ticks":28080,"time":29.25,"velocity":0.6299212598425197},{"duration":0.236458333333335,"durationTicks":227,"midi":50,"name":"D3","ticks":28320,"time":29.5,"velocity":0.6299212598425197},{"duration":0.236458333333335,"durationTicks":227,"midi":53,"name":"F3","ticks":28560,"time":29.75,"velocity":0.6299212598425197},{"duration":1.423958333333335,"durationTicks":1367,"midi":45,"name":"A2","ticks":28800,"time":30,"velocity":0.6299212598425197},{"duration":0.236458333333335,"durationTicks":227,"midi":53,"name":"F3","ticks":29040,"time":30.25,"velocity":0.6299212598425197},{"duration":0.47395833333333215,"durationTicks":455,"midi":48,"name":"C3","ticks":29280,"time":30.5,"velocity":0.6299212598425197},{"duration":0.236458333333335,"durationTicks":227,"midi":53,"name":"F3","ticks":30000,"time":31.25,"velocity":0.6299212598425197},{"duration":0.236458333333335,"durationTicks":227,"midi":48,"name":"C3","ticks":30240,"time":31.5,"velocity":0.6299212598425197},{"duration":0.236458333333335,"durationTicks":227,"midi":53,"name":"F3","ticks":30480,"time":31.75,"velocity":0.6299212598425197},{"duration":1.4239583333333314,"durationTicks":1367,"midi":46,"name":"A#2","ticks":30720,"time":32,"velocity":0.6299212598425197},{"duration":0.23645833333333144,"durationTicks":227,"midi":53,"name":"F3","ticks":30960,"time":32.25,"velocity":0.6299212598425197},{"duration":0.4739583333333357,"durationTicks":455,"midi":50,"name":"D3","ticks":31200,"time":32.5,"velocity":0.6299212598425197},{"duration":0.23645833333333144,"durationTicks":227,"midi":53,"name":"F3","ticks":31920,"time":33.25,"velocity":0.6299212598425197},{"duration":0.23645833333333144,"durationTicks":227,"midi":50,"name":"D3","ticks":32160,"time":33.5,"velocity":0.6299212598425197},{"duration":0.23645833333333144,"durationTicks":227,"midi":53,"name":"F3","ticks":32400,"time":33.75,"velocity":0.6299212598425197},{"duration":1.4239583333333314,"durationTicks":1367,"midi":45,"name":"A2","ticks":32640,"time":34,"velocity":0.6299212598425197},{"duration":0.23645833333333144,"durationTicks":227,"midi":53,"name":"F3","ticks":32880,"time":34.25,"velocity":0.6299212598425197},{"duration":0.4739583333333357,"durationTicks":455,"midi":48,"name":"C3","ticks":33120,"time":34.5,"velocity":0.6299212598425197},{"duration":0.23645833333333144,"durationTicks":227,"midi":53,"name":"F3","ticks":33840,"time":35.25,"velocity":0.6299212598425197},{"duration":0.23645833333333144,"durationTicks":227,"midi":48,"name":"C3","ticks":34080,"time":35.5,"velocity":0.6299212598425197},{"duration":0.23645833333333144,"durationTicks":227,"midi":53,"name":"F3","ticks":34320,"time":35.75,"velocity":0.6299212598425197},{"duration":1.4239583333333314,"durationTicks":1367,"midi":43,"name":"G2","ticks":34560,"time":36,"velocity":0.6299212598425197},{"duration":0.23645833333333144,"durationTicks":227,"midi":53,"name":"F3","ticks":34800,"time":36.25,"velocity":0.6299212598425197},{"duration":0.4739583333333357,"durationTicks":455,"midi":50,"name":"D3","ticks":35040,"time":36.5,"velocity":0.6299212598425197},{"duration":0.23645833333333144,"durationTicks":227,"midi":53,"name":"F3","ticks":35760,"time":37.25,"velocity":0.6299212598425197},{"duration":0.23645833333333144,"durationTicks":227,"midi":50,"name":"D3","ticks":36000,"time":37.5,"velocity":0.6299212598425197},{"duration":0.23645833333333144,"durationTicks":227,"midi":53,"name":"F3","ticks":36240,"time":37.75,"velocity":0.6299212598425197},{"duration":1.4239583333333314,"durationTicks":1367,"midi":45,"name":"A2","ticks":36480,"time":38,"velocity":0.6299212598425197},{"duration":0.23645833333333144,"durationTicks":227,"midi":53,"name":"F3","ticks":36720,"time":38.25,"velocity":0.6299212598425197},{"duration":0.4739583333333357,"durationTicks":455,"midi":48,"name":"C3","ticks":36960,"time":38.5,"velocity":0.6299212598425197},{"duration":0.23645833333333144,"durationTicks":227,"midi":53,"name":"F3","ticks":37680,"time":39.25,"velocity":0.6299212598425197},{"duration":0.23645833333333144,"durationTicks":227,"midi":48,"name":"C3","ticks":37920,"time":39.5,"velocity":0.6299212598425197},{"duration":0.23645833333333144,"durationTicks":227,"midi":53,"name":"F3","ticks":38160,"time":39.75,"velocity":0.6299212598425197},{"duration":1.4239583333333314,"durationTicks":1367,"midi":46,"name":"A#2","ticks":38400,"time":40,"velocity":0.6299212598425197},{"duration":1.4239583333333314,"durationTicks":1367,"midi":45,"name":"A2","ticks":40320,"time":42,"velocity":0.6299212598425197},{"duration":1.4239583333333314,"durationTicks":1367,"midi":46,"name":"A#2","ticks":46080,"time":48,"velocity":0.6299212598425197},{"duration":0.23645833333333144,"durationTicks":227,"midi":53,"name":"F3","ticks":46320,"time":48.25,"velocity":0.6299212598425197},{"duration":0.4739583333333357,"durationTicks":455,"midi":50,"name":"D3","ticks":46560,"time":48.5,"velocity":0.6299212598425197},{"duration":0.23645833333333144,"durationTicks":227,"midi":53,"name":"F3","ticks":47280,"time":49.25,"velocity":0.6299212598425197},{"duration":0.23645833333333144,"durationTicks":227,"midi":50,"name":"D3","ticks":47520,"time":49.5,"velocity":0.6299212598425197},{"duration":0.23645833333333144,"durationTicks":227,"midi":53,"name":"F3","ticks":47760,"time":49.75,"velocity":0.6299212598425197},{"duration":1.4239583333333314,"durationTicks":1367,"midi":45,"name":"A2","ticks":48000,"time":50,"velocity":0.6299212598425197},{"duration":0.23645833333333144,"durationTicks":227,"midi":53,"name":"F3","ticks":48240,"time":50.25,"velocity":0.6299212598425197},{"duration":0.4739583333333357,"durationTicks":455,"midi":48,"name":"C3","ticks":48480,"time":50.5,"velocity":0.6299212598425197},{"duration":0.23645833333333144,"durationTicks":227,"midi":53,"name":"F3","ticks":49200,"time":51.25,"velocity":0.6299212598425197},{"duration":0.23645833333333144,"durationTicks":227,"midi":48,"name":"C3","ticks":49440,"time":51.5,"velocity":0.6299212598425197},{"duration":0.23645833333333144,"durationTicks":227,"midi":53,"name":"F3","ticks":49680,"time":51.75,"velocity":0.6299212598425197},{"duration":1.4239583333333314,"durationTicks":1367,"midi":43,"name":"G2","ticks":49920,"time":52,"velocity":0.6299212598425197},{"duration":0.23645833333333144,"durationTicks":227,"midi":53,"name":"F3","ticks":50160,"time":52.25,"velocity":0.6299212598425197},{"duration":0.4739583333333357,"durationTicks":455,"midi":50,"name":"D3","ticks":50400,"time":52.5,"velocity":0.6299212598425197},{"duration":0.23645833333333144,"durationTicks":227,"midi":53,"name":"F3","ticks":51120,"time":53.25,"velocity":0.6299212598425197},{"duration":0.23645833333333144,"durationTicks":227,"midi":50,"name":"D3","ticks":51360,"time":53.5,"velocity":0.6299212598425197},{"duration":0.23645833333333144,"durationTicks":227,"midi":53,"name":"F3","ticks":51600,"time":53.75,"velocity":0.6299212598425197},{"duration":1.4239583333333314,"durationTicks":1367,"midi":45,"name":"A2","ticks":51840,"time":54,"velocity":0.6299212598425197},{"duration":0.23645833333333144,"durationTicks":227,"midi":53,"name":"F3","ticks":52080,"time":54.25,"velocity":0.6299212598425197},{"duration":0.4739583333333357,"durationTicks":455,"midi":48,"name":"C3","ticks":52320,"time":54.5,"velocity":0.6299212598425197},{"duration":0.23645833333333144,"durationTicks":227,"midi":53,"name":"F3","ticks":53040,"time":55.25,"velocity":0.6299212598425197},{"duration":0.23645833333333144,"durationTicks":227,"midi":48,"name":"C3","ticks":53280,"time":55.5,"velocity":0.6299212598425197},{"duration":0.23645833333333144,"durationTicks":227,"midi":53,"name":"F3","ticks":53520,"time":55.75,"velocity":0.6299212598425197},{"duration":1.4239583333333314,"durationTicks":1367,"midi":46,"name":"A#2","ticks":53760,"time":56,"velocity":0.6299212598425197},{"duration":0.23645833333333144,"durationTicks":227,"midi":53,"name":"F3","ticks":54000,"time":56.25,"velocity":0.6299212598425197},{"duration":0.4739583333333357,"durationTicks":455,"midi":50,"name":"D3","ticks":54240,"time":56.5,"velocity":0.6299212598425197},{"duration":0.23645833333333144,"durationTicks":227,"midi":53,"name":"F3","ticks":54960,"time":57.25,"velocity":0.6299212598425197},{"duration":0.23645833333333144,"durationTicks":227,"midi":50,"name":"D3","ticks":55200,"time":57.5,"velocity":0.6299212598425197},{"duration":0.23645833333333144,"durationTicks":227,"midi":53,"name":"F3","ticks":55440,"time":57.75,"velocity":0.6299212598425197},{"duration":1.4239583333333314,"durationTicks":1367,"midi":45,"name":"A2","ticks":55680,"time":58,"velocity":0.6299212598425197},{"duration":0.23645833333333144,"durationTicks":227,"midi":53,"name":"F3","ticks":55920,"time":58.25,"velocity":0.6299212598425197},{"duration":0.4739583333333357,"durationTicks":455,"midi":48,"name":"C3","ticks":56160,"time":58.5,"velocity":0.6299212598425197},{"duration":0.23645833333333144,"durationTicks":227,"midi":53,"name":"F3","ticks":56880,"time":59.25,"velocity":0.6299212598425197},{"duration":0.23645833333333144,"durationTicks":227,"midi":48,"name":"C3","ticks":57120,"time":59.5,"velocity":0.6299212598425197},{"duration":0.23645833333333144,"durationTicks":227,"midi":53,"name":"F3","ticks":57360,"time":59.75,"velocity":0.6299212598425197},{"duration":1.4239583333333314,"durationTicks":1367,"midi":43,"name":"G2","ticks":57600,"time":60,"velocity":0.6299212598425197},{"duration":0.23645833333333144,"durationTicks":227,"midi":53,"name":"F3","ticks":57840,"time":60.25,"velocity":0.6299212598425197},{"duration":0.4739583333333357,"durationTicks":455,"midi":50,"name":"D3","ticks":58080,"time":60.5,"velocity":0.6299212598425197},{"duration":0.23645833333333144,"durationTicks":227,"midi":53,"name":"F3","ticks":58800,"time":61.25,"velocity":0.6299212598425197},{"duration":0.23645833333333144,"durationTicks":227,"midi":50,"name":"D3","ticks":59040,"time":61.5,"velocity":0.6299212598425197},{"duration":0.23645833333333144,"durationTicks":227,"midi":53,"name":"F3","ticks":59280,"time":61.75,"velocity":0.6299212598425197},{"duration":1.4239583333333314,"durationTicks":1367,"midi":45,"name":"A2","ticks":59520,"time":62,"velocity":0.6299212598425197},{"duration":0.23645833333333144,"durationTicks":227,"midi":53,"name":"F3","ticks":59760,"time":62.25,"velocity":0.6299212598425197},{"duration":0.4739583333333357,"durationTicks":455,"midi":48,"name":"C3","ticks":60000,"time":62.5,"velocity":0.6299212598425197},{"duration":0.23645833333333144,"durationTicks":227,"midi":53,"name":"F3","ticks":60720,"time":63.25,"velocity":0.6299212598425197},{"duration":0.23645833333333144,"durationTicks":227,"midi":48,"name":"C3","ticks":60960,"time":63.5,"velocity":0.6299212598425197},{"duration":0.23645833333333144,"durationTicks":227,"midi":53,"name":"F3","ticks":61200,"time":63.75,"velocity":0.6299212598425197},{"duration":1.4239583333333314,"durationTicks":1367,"midi":46,"name":"A#2","ticks":61440,"time":64,"velocity":0.6299212598425197},{"duration":0.23645833333333144,"durationTicks":227,"midi":53,"name":"F3","ticks":61680,"time":64.25,"velocity":0.6299212598425197},{"duration":0.4739583333333286,"durationTicks":455,"midi":50,"name":"D3","ticks":61920,"time":64.5,"velocity":0.6299212598425197},{"duration":0.23645833333333144,"durationTicks":227,"midi":53,"name":"F3","ticks":62640,"time":65.25,"velocity":0.6299212598425197},{"duration":0.23645833333333144,"durationTicks":227,"midi":50,"name":"D3","ticks":62880,"time":65.5,"velocity":0.6299212598425197},{"duration":0.23645833333333144,"durationTicks":227,"midi":53,"name":"F3","ticks":63120,"time":65.75,"velocity":0.6299212598425197},{"duration":1.4239583333333314,"durationTicks":1367,"midi":45,"name":"A2","ticks":63360,"time":66,"velocity":0.6299212598425197},{"duration":0.23645833333333144,"durationTicks":227,"midi":53,"name":"F3","ticks":63600,"time":66.25,"velocity":0.6299212598425197},{"duration":0.4739583333333286,"durationTicks":455,"midi":48,"name":"C3","ticks":63840,"time":66.5,"velocity":0.6299212598425197},{"duration":0.23645833333333144,"durationTicks":227,"midi":53,"name":"F3","ticks":64560,"time":67.25,"velocity":0.6299212598425197},{"duration":0.23645833333333144,"durationTicks":227,"midi":48,"name":"C3","ticks":64800,"time":67.5,"velocity":0.6299212598425197},{"duration":0.23645833333333144,"durationTicks":227,"midi":53,"name":"F3","ticks":65040,"time":67.75,"velocity":0.6299212598425197},{"duration":1.4239583333333314,"durationTicks":1367,"midi":43,"name":"G2","ticks":65280,"time":68,"velocity":0.6299212598425197},{"duration":0.23645833333333144,"durationTicks":227,"midi":53,"name":"F3","ticks":65520,"time":68.25,"velocity":0.6299212598425197},{"duration":0.4739583333333286,"durationTicks":455,"midi":50,"name":"D3","ticks":65760,"time":68.5,"velocity":0.6299212598425197},{"duration":0.23645833333333144,"durationTicks":227,"midi":53,"name":"F3","ticks":66480,"time":69.25,"velocity":0.6299212598425197},{"duration":0.23645833333333144,"durationTicks":227,"midi":50,"name":"D3","ticks":66720,"time":69.5,"velocity":0.6299212598425197},{"duration":0.23645833333333144,"durationTicks":227,"midi":53,"name":"F3","ticks":66960,"time":69.75,"velocity":0.6299212598425197},{"duration":1.4239583333333314,"durationTicks":1367,"midi":45,"name":"A2","ticks":67200,"time":70,"velocity":0.6299212598425197},{"duration":0.23645833333333144,"durationTicks":227,"midi":53,"name":"F3","ticks":67440,"time":70.25,"velocity":0.6299212598425197},{"duration":0.4739583333333286,"durationTicks":455,"midi":48,"name":"C3","ticks":67680,"time":70.5,"velocity":0.6299212598425197},{"duration":0.23645833333333144,"durationTicks":227,"midi":53,"name":"F3","ticks":68400,"time":71.25,"velocity":0.6299212598425197},{"duration":0.23645833333333144,"durationTicks":227,"midi":48,"name":"C3","ticks":68640,"time":71.5,"velocity":0.6299212598425197},{"duration":0.23645833333333144,"durationTicks":227,"midi":53,"name":"F3","ticks":68880,"time":71.75,"velocity":0.6299212598425197},{"duration":1.4239583333333314,"durationTicks":1367,"midi":46,"name":"A#2","ticks":69120,"time":72,"velocity":0.6299212598425197},{"duration":0.23645833333333144,"durationTicks":227,"midi":53,"name":"F3","ticks":69360,"time":72.25,"velocity":0.6299212598425197},{"duration":0.4739583333333286,"durationTicks":455,"midi":50,"name":"D3","ticks":69600,"time":72.5,"velocity":0.6299212598425197},{"duration":0.23645833333333144,"durationTicks":227,"midi":53,"name":"F3","ticks":70320,"time":73.25,"velocity":0.6299212598425197},{"duration":0.23645833333333144,"durationTicks":227,"midi":50,"name":"D3","ticks":70560,"time":73.5,"velocity":0.6299212598425197},{"duration":0.23645833333333144,"durationTicks":227,"midi":53,"name":"F3","ticks":70800,"time":73.75,"velocity":0.6299212598425197},{"duration":1.4239583333333314,"durationTicks":1367,"midi":45,"name":"A2","ticks":71040,"time":74,"velocity":0.6299212598425197},{"duration":0.23645833333333144,"durationTicks":227,"midi":53,"name":"F3","ticks":71280,"time":74.25,"velocity":0.6299212598425197},{"duration":0.4739583333333286,"durationTicks":455,"midi":48,"name":"C3","ticks":71520,"time":74.5,"velocity":0.6299212598425197},{"duration":0.23645833333333144,"durationTicks":227,"midi":53,"name":"F3","ticks":72240,"time":75.25,"velocity":0.6299212598425197},{"duration":0.23645833333333144,"durationTicks":227,"midi":48,"name":"C3","ticks":72480,"time":75.5,"velocity":0.6299212598425197},{"duration":0.23645833333333144,"durationTicks":227,"midi":53,"name":"F3","ticks":72720,"time":75.75,"velocity":0.6299212598425197},{"duration":1.4239583333333314,"durationTicks":1367,"midi":43,"name":"G2","ticks":72960,"time":76,"velocity":0.6299212598425197},{"duration":0.23645833333333144,"durationTicks":227,"midi":53,"name":"F3","ticks":73200,"time":76.25,"velocity":0.6299212598425197},{"duration":0.4739583333333286,"durationTicks":455,"midi":50,"name":"D3","ticks":73440,"time":76.5,"velocity":0.6299212598425197},{"duration":0.23645833333333144,"durationTicks":227,"midi":53,"name":"F3","ticks":74160,"time":77.25,"velocity":0.6299212598425197},{"duration":0.23645833333333144,"durationTicks":227,"midi":50,"name":"D3","ticks":74400,"time":77.5,"velocity":0.6299212598425197},{"duration":0.23645833333333144,"durationTicks":227,"midi":53,"name":"F3","ticks":74640,"time":77.75,"velocity":0.6299212598425197},{"duration":1.4239583333333314,"durationTicks":1367,"midi":45,"name":"A2","ticks":74880,"time":78,"velocity":0.6299212598425197},{"duration":0.23645833333333144,"durationTicks":227,"midi":53,"name":"F3","ticks":75120,"time":78.25,"velocity":0.6299212598425197},{"duration":0.4739583333333286,"durationTicks":455,"midi":48,"name":"C3","ticks":75360,"time":78.5,"velocity":0.6299212598425197},{"duration":0.23645833333333144,"durationTicks":227,"midi":53,"name":"F3","ticks":76080,"time":79.25,"velocity":0.6299212598425197},{"duration":0.23645833333333144,"durationTicks":227,"midi":48,"name":"C3","ticks":76320,"time":79.5,"velocity":0.6299212598425197},{"duration":0.23645833333333144,"durationTicks":227,"midi":53,"name":"F3","ticks":76560,"time":79.75,"velocity":0.6299212598425197},{"duration":0.9489583333333371,"durationTicks":911,"midi":46,"name":"A#2","ticks":76800,"time":80,"velocity":0.6299212598425197},{"duration":0.23645833333333144,"durationTicks":227,"midi":53,"name":"F3","ticks":78000,"time":81.25,"velocity":0.6299212598425197},{"duration":0.23645833333333144,"durationTicks":227,"midi":50,"name":"D3","ticks":78240,"time":81.5,"velocity":0.6299212598425197},{"duration":0.23645833333333144,"durationTicks":227,"midi":53,"name":"F3","ticks":78480,"time":81.75,"velocity":0.6299212598425197},{"duration":0.9489583333333371,"durationTicks":911,"midi":45,"name":"A2","ticks":78720,"time":82,"velocity":0.6299212598425197},{"duration":0.23645833333333144,"durationTicks":227,"midi":53,"name":"F3","ticks":79920,"time":83.25,"velocity":0.6299212598425197},{"duration":0.23645833333333144,"durationTicks":227,"midi":48,"name":"C3","ticks":80160,"time":83.5,"velocity":0.6299212598425197},{"duration":0.23645833333333144,"durationTicks":227,"midi":53,"name":"F3","ticks":80400,"time":83.75,"velocity":0.6299212598425197},{"duration":1.4239583333333314,"durationTicks":1367,"midi":43,"name":"G2","ticks":80640,"time":84,"velocity":0.6299212598425197},{"duration":1.4239583333333314,"durationTicks":1367,"midi":45,"name":"A2","ticks":82560,"time":86,"velocity":0.6299212598425197},{"duration":0.9489583333333371,"durationTicks":911,"midi":46,"name":"A#2","ticks":84480,"time":88,"velocity":0.6299212598425197},{"duration":0.23645833333333144,"durationTicks":227,"midi":53,"name":"F3","ticks":85680,"time":89.25,"velocity":0.6299212598425197},{"duration":0.23645833333333144,"durationTicks":227,"midi":50,"name":"D3","ticks":85920,"time":89.5,"velocity":0.6299212598425197},{"duration":0.23645833333333144,"durationTicks":227,"midi":53,"name":"F3","ticks":86160,"time":89.75,"velocity":0.6299212598425197},{"duration":0.9489583333333371,"durationTicks":911,"midi":45,"name":"A2","ticks":86400,"time":90,"velocity":0.6299212598425197},{"duration":0.23645833333333144,"durationTicks":227,"midi":53,"name":"F3","ticks":87600,"time":91.25,"velocity":0.6299212598425197},{"duration":0.23645833333333144,"durationTicks":227,"midi":48,"name":"C3","ticks":87840,"time":91.5,"velocity":0.6299212598425197},{"duration":0.23645833333333144,"durationTicks":227,"midi":53,"name":"F3","ticks":88080,"time":91.75,"velocity":0.6299212598425197},{"duration":1.4239583333333314,"durationTicks":1367,"midi":43,"name":"G2","ticks":88320,"time":92,"velocity":0.6299212598425197},{"duration":0.4739583333333286,"durationTicks":455,"midi":46,"name":"A#2","ticks":92160,"time":96,"velocity":0.6299212598425197},{"duration":0.4739583333333286,"durationTicks":455,"midi":48,"name":"C3","ticks":93120,"time":97,"velocity":0.6299212598425197},{"duration":0.4739583333333286,"durationTicks":455,"midi":53,"name":"F3","ticks":93600,"time":97.5,"velocity":0.6299212598425197},{"duration":0.4739583333333286,"durationTicks":455,"midi":45,"name":"A2","ticks":94080,"time":98,"velocity":0.6299212598425197},{"duration":0.4739583333333286,"durationTicks":455,"midi":48,"name":"C3","ticks":94560,"time":98.5,"velocity":0.6299212598425197},{"duration":0.4739583333333286,"durationTicks":455,"midi":45,"name":"A2","ticks":95040,"time":99,"velocity":0.6299212598425197},{"duration":0.4739583333333286,"durationTicks":455,"midi":46,"name":"A#2","ticks":95520,"time":99.5,"velocity":0.6299212598425197},{"duration":0.4739583333333286,"durationTicks":455,"midi":46,"name":"A#2","ticks":96000,"time":100,"velocity":0.6299212598425197},{"duration":0.4739583333333286,"durationTicks":455,"midi":53,"name":"F3","ticks":96480,"time":100.5,"velocity":0.6299212598425197},{"duration":0.4739583333333286,"durationTicks":455,"midi":48,"name":"C3","ticks":96960,"time":101,"velocity":0.6299212598425197},{"duration":0.4739583333333286,"durationTicks":455,"midi":53,"name":"F3","ticks":97440,"time":101.5,"velocity":0.6299212598425197},{"duration":0.4739583333333286,"durationTicks":455,"midi":46,"name":"A#2","ticks":97920,"time":102,"velocity":0.6299212598425197},{"duration":0.4739583333333286,"durationTicks":455,"midi":53,"name":"F3","ticks":98400,"time":102.5,"velocity":0.6299212598425197},{"duration":0.4739583333333286,"durationTicks":455,"midi":45,"name":"A2","ticks":98880,"time":103,"velocity":0.6299212598425197},{"duration":0.4739583333333286,"durationTicks":455,"midi":50,"name":"D3","ticks":99360,"time":103.5,"velocity":0.6299212598425197},{"duration":0.4739583333333286,"durationTicks":455,"midi":46,"name":"A#2","ticks":99840,"time":104,"velocity":0.6299212598425197},{"duration":0.4739583333333286,"durationTicks":455,"midi":53,"name":"F3","ticks":100320,"time":104.5,"velocity":0.6299212598425197},{"duration":0.4739583333333286,"durationTicks":455,"midi":48,"name":"C3","ticks":100800,"time":105,"velocity":0.6299212598425197},{"duration":0.4739583333333286,"durationTicks":455,"midi":53,"name":"F3","ticks":101280,"time":105.5,"velocity":0.6299212598425197},{"duration":0.4739583333333286,"durationTicks":455,"midi":53,"name":"F3","ticks":102240,"time":106.5,"velocity":0.6299212598425197},{"duration":0.4739583333333286,"durationTicks":455,"midi":50,"name":"D3","ticks":107520,"time":112,"velocity":0.6299212598425197},{"duration":0.4739583333333286,"durationTicks":455,"midi":48,"name":"C3","ticks":108480,"time":113,"velocity":0.6299212598425197},{"duration":0.4739583333333286,"durationTicks":455,"midi":52,"name":"E3","ticks":108960,"time":113.5,"velocity":0.6299212598425197},{"duration":0.4739583333333286,"durationTicks":455,"midi":48,"name":"C3","ticks":109440,"time":114,"velocity":0.6299212598425197},{"duration":0.4739583333333286,"durationTicks":455,"midi":48,"name":"C3","ticks":109920,"time":114.5,"velocity":0.6299212598425197},{"duration":0.4739583333333286,"durationTicks":455,"midi":46,"name":"A#2","ticks":110400,"time":115,"velocity":0.6299212598425197},{"duration":0.4739583333333286,"durationTicks":455,"midi":46,"name":"A#2","ticks":110880,"time":115.5,"velocity":0.6299212598425197},{"duration":0.4739583333333286,"durationTicks":455,"midi":50,"name":"D3","ticks":111360,"time":116,"velocity":0.6299212598425197},{"duration":0.4739583333333286,"durationTicks":455,"midi":53,"name":"F3","ticks":111840,"time":116.5,"velocity":0.6299212598425197},{"duration":0.4739583333333286,"durationTicks":455,"midi":48,"name":"C3","ticks":112320,"time":117,"velocity":0.6299212598425197},{"duration":0.4739583333333286,"durationTicks":455,"midi":53,"name":"F3","ticks":112800,"time":117.5,"velocity":0.6299212598425197},{"duration":0.4739583333333286,"durationTicks":455,"midi":45,"name":"A2","ticks":113280,"time":118,"velocity":0.6299212598425197},{"duration":0.4739583333333286,"durationTicks":455,"midi":53,"name":"F3","ticks":113760,"time":118.5,"velocity":0.6299212598425197},{"duration":0.4739583333333286,"durationTicks":455,"midi":45,"name":"A2","ticks":114240,"time":119,"velocity":0.6299212598425197},{"duration":0.4739583333333286,"durationTicks":455,"midi":53,"name":"F3","ticks":114720,"time":119.5,"velocity":0.6299212598425197},{"duration":0.4739583333333286,"durationTicks":455,"midi":46,"name":"A#2","ticks":115200,"time":120,"velocity":0.6299212598425197},{"duration":0.4739583333333286,"durationTicks":455,"midi":53,"name":"F3","ticks":115680,"time":120.5,"velocity":0.6299212598425197},{"duration":0.4739583333333286,"durationTicks":455,"midi":48,"name":"C3","ticks":116160,"time":121,"velocity":0.6299212598425197},{"duration":0.4739583333333286,"durationTicks":455,"midi":53,"name":"F3","ticks":116640,"time":121.5,"velocity":0.6299212598425197},{"duration":0.4739583333333286,"durationTicks":455,"midi":45,"name":"A2","ticks":117120,"time":122,"velocity":0.6299212598425197},{"duration":0.4739583333333286,"durationTicks":455,"midi":48,"name":"C3","ticks":117600,"time":122.5,"velocity":0.6299212598425197},{"duration":1.4239583333333314,"durationTicks":1367,"midi":46,"name":"A#2","ticks":122880,"time":128,"velocity":0.6299212598425197},{"duration":0.23645833333333144,"durationTicks":227,"midi":53,"name":"F3","ticks":123120,"time":128.25,"velocity":0.6299212598425197},{"duration":0.4739583333333428,"durationTicks":455,"midi":50,"name":"D3","ticks":123360,"time":128.5,"velocity":0.6299212598425197},{"duration":0.23645833333333144,"durationTicks":227,"midi":53,"name":"F3","ticks":124080,"time":129.25,"velocity":0.6299212598425197},{"duration":0.23645833333333144,"durationTicks":227,"midi":50,"name":"D3","ticks":124320,"time":129.5,"velocity":0.6299212598425197},{"duration":0.23645833333333144,"durationTicks":227,"midi":53,"name":"F3","ticks":124560,"time":129.75,"velocity":0.6299212598425197},{"duration":1.4239583333333314,"durationTicks":1367,"midi":45,"name":"A2","ticks":124800,"time":130,"velocity":0.6299212598425197},{"duration":0.23645833333333144,"durationTicks":227,"midi":53,"name":"F3","ticks":125040,"time":130.25,"velocity":0.6299212598425197},{"duration":0.4739583333333428,"durationTicks":455,"midi":48,"name":"C3","ticks":125280,"time":130.5,"velocity":0.6299212598425197},{"duration":0.23645833333333144,"durationTicks":227,"midi":53,"name":"F3","ticks":126000,"time":131.25,"velocity":0.6299212598425197},{"duration":0.23645833333333144,"durationTicks":227,"midi":48,"name":"C3","ticks":126240,"time":131.5,"velocity":0.6299212598425197},{"duration":0.23645833333333144,"durationTicks":227,"midi":53,"name":"F3","ticks":126480,"time":131.75,"velocity":0.6299212598425197},{"duration":1.4239583333333314,"durationTicks":1367,"midi":43,"name":"G2","ticks":126720,"time":132,"velocity":0.6299212598425197},{"duration":0.23645833333333144,"durationTicks":227,"midi":53,"name":"F3","ticks":126960,"time":132.25,"velocity":0.6299212598425197},{"duration":0.4739583333333428,"durationTicks":455,"midi":50,"name":"D3","ticks":127200,"time":132.5,"velocity":0.6299212598425197},{"duration":0.23645833333333144,"durationTicks":227,"midi":53,"name":"F3","ticks":127920,"time":133.25,"velocity":0.6299212598425197},{"duration":0.23645833333333144,"durationTicks":227,"midi":50,"name":"D3","ticks":128160,"time":133.5,"velocity":0.6299212598425197},{"duration":0.23645833333333144,"durationTicks":227,"midi":53,"name":"F3","ticks":128400,"time":133.75,"velocity":0.6299212598425197},{"duration":1.4239583333333314,"durationTicks":1367,"midi":45,"name":"A2","ticks":128640,"time":134,"velocity":0.6299212598425197},{"duration":0.23645833333333144,"durationTicks":227,"midi":53,"name":"F3","ticks":128880,"time":134.25,"velocity":0.6299212598425197},{"duration":0.4739583333333428,"durationTicks":455,"midi":48,"name":"C3","ticks":129120,"time":134.5,"velocity":0.6299212598425197},{"duration":0.23645833333333144,"durationTicks":227,"midi":53,"name":"F3","ticks":129840,"time":135.25,"velocity":0.6299212598425197},{"duration":0.23645833333333144,"durationTicks":227,"midi":48,"name":"C3","ticks":130080,"time":135.5,"velocity":0.6299212598425197},{"duration":0.23645833333333144,"durationTicks":227,"midi":53,"name":"F3","ticks":130320,"time":135.75,"velocity":0.6299212598425197},{"duration":1.4239583333333314,"durationTicks":1367,"midi":46,"name":"A#2","ticks":130560,"time":136,"velocity":0.6299212598425197},{"duration":0.23645833333333144,"durationTicks":227,"midi":53,"name":"F3","ticks":130800,"time":136.25,"velocity":0.6299212598425197},{"duration":0.4739583333333428,"durationTicks":455,"midi":50,"name":"D3","ticks":131040,"time":136.5,"velocity":0.6299212598425197},{"duration":0.23645833333333144,"durationTicks":227,"midi":53,"name":"F3","ticks":131760,"time":137.25,"velocity":0.6299212598425197},{"duration":0.23645833333333144,"durationTicks":227,"midi":50,"name":"D3","ticks":132000,"time":137.5,"velocity":0.6299212598425197},{"duration":0.23645833333333144,"durationTicks":227,"midi":53,"name":"F3","ticks":132240,"time":137.75,"velocity":0.6299212598425197},{"duration":1.4239583333333314,"durationTicks":1367,"midi":45,"name":"A2","ticks":132480,"time":138,"velocity":0.6299212598425197},{"duration":0.23645833333333144,"durationTicks":227,"midi":53,"name":"F3","ticks":132720,"time":138.25,"velocity":0.6299212598425197},{"duration":0.4739583333333428,"durationTicks":455,"midi":48,"name":"C3","ticks":132960,"time":138.5,"velocity":0.6299212598425197},{"duration":0.23645833333333144,"durationTicks":227,"midi":53,"name":"F3","ticks":133680,"time":139.25,"velocity":0.6299212598425197},{"duration":0.23645833333333144,"durationTicks":227,"midi":48,"name":"C3","ticks":133920,"time":139.5,"velocity":0.6299212598425197},{"duration":0.23645833333333144,"durationTicks":227,"midi":53,"name":"F3","ticks":134160,"time":139.75,"velocity":0.6299212598425197},{"duration":1.4239583333333314,"durationTicks":1367,"midi":43,"name":"G2","ticks":134400,"time":140,"velocity":0.6299212598425197},{"duration":1.4239583333333314,"durationTicks":1367,"midi":46,"name":"A#2","ticks":134400,"time":140,"velocity":0.6299212598425197},{"duration":0.23645833333333144,"durationTicks":227,"midi":53,"name":"F3","ticks":134640,"time":140.25,"velocity":0.6299212598425197},{"duration":0.4739583333333428,"durationTicks":455,"midi":50,"name":"D3","ticks":134880,"time":140.5,"velocity":0.6299212598425197},{"duration":0.23645833333333144,"durationTicks":227,"midi":53,"name":"F3","ticks":135600,"time":141.25,"velocity":0.6299212598425197},{"duration":0.23645833333333144,"durationTicks":227,"midi":50,"name":"D3","ticks":135840,"time":141.5,"velocity":0.6299212598425197},{"duration":0.23645833333333144,"durationTicks":227,"midi":53,"name":"F3","ticks":136080,"time":141.75,"velocity":0.6299212598425197},{"duration":1.4239583333333314,"durationTicks":1367,"midi":45,"name":"A2","ticks":136320,"time":142,"velocity":0.6299212598425197},{"duration":0.23645833333333144,"durationTicks":227,"midi":53,"name":"F3","ticks":136560,"time":142.25,"velocity":0.6299212598425197},{"duration":0.4739583333333428,"durationTicks":455,"midi":48,"name":"C3","ticks":136800,"time":142.5,"velocity":0.6299212598425197},{"duration":0.23645833333333144,"durationTicks":227,"midi":53,"name":"F3","ticks":137520,"time":143.25,"velocity":0.6299212598425197},{"duration":0.23645833333333144,"durationTicks":227,"midi":48,"name":"C3","ticks":137760,"time":143.5,"velocity":0.6299212598425197},{"duration":0.23645833333333144,"durationTicks":227,"midi":53,"name":"F3","ticks":138000,"time":143.75,"velocity":0.6299212598425197},{"duration":1.4239583333333314,"durationTicks":1367,"midi":46,"name":"A#2","ticks":138240,"time":144,"velocity":0.6299212598425197},{"duration":0.9739583333333428,"durationTicks":935,"midi":50,"name":"D3","ticks":138240,"time":144,"velocity":0.6299212598425197},{"duration":0.23645833333333144,"durationTicks":227,"midi":53,"name":"F3","ticks":138480,"time":144.25,"velocity":0.6299212598425197},{"duration":0.9239583333333314,"durationTicks":887,"midi":50,"name":"D3","ticks":138720,"time":144.5,"velocity":0.6299212598425197},{"duration":0.23645833333333144,"durationTicks":227,"midi":53,"name":"F3","ticks":139440,"time":145.25,"velocity":0.6299212598425197},{"duration":0.23645833333333144,"durationTicks":227,"midi":50,"name":"D3","ticks":139680,"time":145.5,"velocity":0.6299212598425197},{"duration":0.23645833333333144,"durationTicks":227,"midi":53,"name":"F3","ticks":139920,"time":145.75,"velocity":0.6299212598425197},{"duration":1.4239583333333314,"durationTicks":1367,"midi":45,"name":"A2","ticks":140160,"time":146,"velocity":0.6299212598425197},{"duration":0.23645833333333144,"durationTicks":227,"midi":53,"name":"F3","ticks":140400,"time":146.25,"velocity":0.6299212598425197},{"duration":0.4739583333333428,"durationTicks":455,"midi":48,"name":"C3","ticks":140640,"time":146.5,"velocity":0.6299212598425197},{"duration":0.23645833333333144,"durationTicks":227,"midi":53,"name":"F3","ticks":141360,"time":147.25,"velocity":0.6299212598425197},{"duration":0.23645833333333144,"durationTicks":227,"midi":48,"name":"C3","ticks":141600,"time":147.5,"velocity":0.6299212598425197},{"duration":0.23645833333333144,"durationTicks":227,"midi":53,"name":"F3","ticks":141840,"time":147.75,"velocity":0.6299212598425197},{"duration":1.4239583333333314,"durationTicks":1367,"midi":43,"name":"G2","ticks":142080,"time":148,"velocity":0.6299212598425197},{"duration":1.4239583333333314,"durationTicks":1367,"midi":46,"name":"A#2","ticks":142080,"time":148,"velocity":0.6299212598425197},{"duration":0.23645833333333144,"durationTicks":227,"midi":53,"name":"F3","ticks":142320,"time":148.25,"velocity":0.6299212598425197},{"duration":0.4739583333333428,"durationTicks":455,"midi":50,"name":"D3","ticks":142560,"time":148.5,"velocity":0.6299212598425197},{"duration":0.23645833333333144,"durationTicks":227,"midi":53,"name":"F3","ticks":143280,"time":149.25,"velocity":0.6299212598425197},{"duration":0.23645833333333144,"durationTicks":227,"midi":50,"name":"D3","ticks":143520,"time":149.5,"velocity":0.6299212598425197},{"duration":0.23645833333333144,"durationTicks":227,"midi":53,"name":"F3","ticks":143760,"time":149.75,"velocity":0.6299212598425197},{"duration":1.4239583333333314,"durationTicks":1367,"midi":45,"name":"A2","ticks":144000,"time":150,"velocity":0.6299212598425197},{"duration":0.23645833333333144,"durationTicks":227,"midi":53,"name":"F3","ticks":144240,"time":150.25,"velocity":0.6299212598425197},{"duration":0.4739583333333428,"durationTicks":455,"midi":48,"name":"C3","ticks":144480,"time":150.5,"velocity":0.6299212598425197},{"duration":0.23645833333333144,"durationTicks":227,"midi":53,"name":"F3","ticks":145200,"time":151.25,"velocity":0.6299212598425197},{"duration":0.23645833333333144,"durationTicks":227,"midi":48,"name":"C3","ticks":145440,"time":151.5,"velocity":0.6299212598425197},{"duration":0.23645833333333144,"durationTicks":227,"midi":53,"name":"F3","ticks":145680,"time":151.75,"velocity":0.6299212598425197},{"duration":1.4239583333333314,"durationTicks":1367,"midi":46,"name":"A#2","ticks":145920,"time":152,"velocity":0.6299212598425197},{"duration":0.9739583333333428,"durationTicks":935,"midi":50,"name":"D3","ticks":145920,"time":152,"velocity":0.6299212598425197},{"duration":0.23645833333333144,"durationTicks":227,"midi":53,"name":"F3","ticks":146160,"time":152.25,"velocity":0.6299212598425197},{"duration":0.9239583333333314,"durationTicks":887,"midi":50,"name":"D3","ticks":146400,"time":152.5,"velocity":0.6299212598425197},{"duration":0.23645833333333144,"durationTicks":227,"midi":53,"name":"F3","ticks":147120,"time":153.25,"velocity":0.6299212598425197},{"duration":0.23645833333333144,"durationTicks":227,"midi":50,"name":"D3","ticks":147360,"time":153.5,"velocity":0.6299212598425197},{"duration":0.23645833333333144,"durationTicks":227,"midi":53,"name":"F3","ticks":147600,"time":153.75,"velocity":0.6299212598425197},{"duration":1.4239583333333314,"durationTicks":1367,"midi":45,"name":"A2","ticks":147840,"time":154,"velocity":0.6299212598425197},{"duration":0.23645833333333144,"durationTicks":227,"midi":53,"name":"F3","ticks":148080,"time":154.25,"velocity":0.6299212598425197},{"duration":0.4739583333333428,"durationTicks":455,"midi":48,"name":"C3","ticks":148320,"time":154.5,"velocity":0.6299212598425197},{"duration":0.23645833333333144,"durationTicks":227,"midi":53,"name":"F3","ticks":149040,"time":155.25,"velocity":0.6299212598425197},{"duration":0.23645833333333144,"durationTicks":227,"midi":48,"name":"C3","ticks":149280,"time":155.5,"velocity":0.6299212598425197},{"duration":0.23645833333333144,"durationTicks":227,"midi":53,"name":"F3","ticks":149520,"time":155.75,"velocity":0.6299212598425197},{"duration":1.4239583333333314,"durationTicks":1367,"midi":43,"name":"G2","ticks":149760,"time":156,"velocity":0.6299212598425197},{"duration":0.23645833333333144,"durationTicks":227,"midi":53,"name":"F3","ticks":150000,"time":156.25,"velocity":0.6299212598425197},{"duration":0.4739583333333428,"durationTicks":455,"midi":50,"name":"D3","ticks":150240,"time":156.5,"velocity":0.6299212598425197},{"duration":0.23645833333333144,"durationTicks":227,"midi":53,"name":"F3","ticks":150960,"time":157.25,"velocity":0.6299212598425197},{"duration":0.23645833333333144,"durationTicks":227,"midi":50,"name":"D3","ticks":151200,"time":157.5,"velocity":0.6299212598425197},{"duration":0.23645833333333144,"durationTicks":227,"midi":53,"name":"F3","ticks":151440,"time":157.75,"velocity":0.6299212598425197},{"duration":1.4239583333333314,"durationTicks":1367,"midi":45,"name":"A2","ticks":151680,"time":158,"velocity":0.6299212598425197},{"duration":0.23645833333333144,"durationTicks":227,"midi":53,"name":"F3","ticks":151920,"time":158.25,"velocity":0.6299212598425197},{"duration":0.4739583333333428,"durationTicks":455,"midi":48,"name":"C3","ticks":152160,"time":158.5,"velocity":0.6299212598425197},{"duration":0.23645833333333144,"durationTicks":227,"midi":53,"name":"F3","ticks":152880,"time":159.25,"velocity":0.6299212598425197},{"duration":0.23645833333333144,"durationTicks":227,"midi":48,"name":"C3","ticks":153120,"time":159.5,"velocity":0.6299212598425197},{"duration":0.23645833333333144,"durationTicks":227,"midi":53,"name":"F3","ticks":153360,"time":159.75,"velocity":0.6299212598425197},{"duration":1.4239583333333314,"durationTicks":1367,"midi":46,"name":"A#2","ticks":153600,"time":160,"velocity":0.6299212598425197},{"duration":0.23645833333333144,"durationTicks":227,"midi":53,"name":"F3","ticks":153840,"time":160.25,"velocity":0.6299212598425197},{"duration":0.4739583333333428,"durationTicks":455,"midi":50,"name":"D3","ticks":154080,"time":160.5,"velocity":0.6299212598425197},{"duration":0.23645833333333144,"durationTicks":227,"midi":53,"name":"F3","ticks":154800,"time":161.25,"velocity":0.6299212598425197},{"duration":0.23645833333333144,"durationTicks":227,"midi":50,"name":"D3","ticks":155040,"time":161.5,"velocity":0.6299212598425197},{"duration":0.23645833333333144,"durationTicks":227,"midi":53,"name":"F3","ticks":155280,"time":161.75,"velocity":0.6299212598425197},{"duration":1.4239583333333314,"durationTicks":1367,"midi":45,"name":"A2","ticks":155520,"time":162,"velocity":0.6299212598425197},{"duration":0.23645833333333144,"durationTicks":227,"midi":53,"name":"F3","ticks":155760,"time":162.25,"velocity":0.6299212598425197},{"duration":0.4739583333333428,"durationTicks":455,"midi":48,"name":"C3","ticks":156000,"time":162.5,"velocity":0.6299212598425197},{"duration":0.23645833333333144,"durationTicks":227,"midi":53,"name":"F3","ticks":156720,"time":163.25,"velocity":0.6299212598425197},{"duration":0.23645833333333144,"durationTicks":227,"midi":48,"name":"C3","ticks":156960,"time":163.5,"velocity":0.6299212598425197},{"duration":0.23645833333333144,"durationTicks":227,"midi":53,"name":"F3","ticks":157200,"time":163.75,"velocity":0.6299212598425197},{"duration":1.4239583333333314,"durationTicks":1367,"midi":43,"name":"G2","ticks":157440,"time":164,"velocity":0.6299212598425197},{"duration":0.23645833333333144,"durationTicks":227,"midi":53,"name":"F3","ticks":157680,"time":164.25,"velocity":0.6299212598425197},{"duration":0.4739583333333428,"durationTicks":455,"midi":50,"name":"D3","ticks":157920,"time":164.5,"velocity":0.6299212598425197},{"duration":0.23645833333333144,"durationTicks":227,"midi":53,"name":"F3","ticks":158640,"time":165.25,"velocity":0.6299212598425197},{"duration":0.23645833333333144,"durationTicks":227,"midi":50,"name":"D3","ticks":158880,"time":165.5,"velocity":0.6299212598425197},{"duration":0.23645833333333144,"durationTicks":227,"midi":53,"name":"F3","ticks":159120,"time":165.75,"velocity":0.6299212598425197},{"duration":1.4239583333333314,"durationTicks":1367,"midi":45,"name":"A2","ticks":159360,"time":166,"velocity":0.6299212598425197},{"duration":0.23645833333333144,"durationTicks":227,"midi":53,"name":"F3","ticks":159600,"time":166.25,"velocity":0.6299212598425197},{"duration":0.4739583333333428,"durationTicks":455,"midi":48,"name":"C3","ticks":159840,"time":166.5,"velocity":0.6299212598425197},{"duration":0.23645833333333144,"durationTicks":227,"midi":53,"name":"F3","ticks":160560,"time":167.25,"velocity":0.6299212598425197},{"duration":0.23645833333333144,"durationTicks":227,"midi":48,"name":"C3","ticks":160800,"time":167.5,"velocity":0.6299212598425197},{"duration":0.23645833333333144,"durationTicks":227,"midi":53,"name":"F3","ticks":161040,"time":167.75,"velocity":0.6299212598425197},{"duration":1.4239583333333314,"durationTicks":1367,"midi":46,"name":"A#2","ticks":161280,"time":168,"velocity":0.6299212598425197},{"duration":1.4239583333333314,"durationTicks":1367,"midi":45,"name":"A2","ticks":163200,"time":170,"velocity":0.6299212598425197},{"duration":1.4239583333333314,"durationTicks":1367,"midi":43,"name":"G2","ticks":165120,"time":172,"velocity":0.6299212598425197},{"duration":1.4239583333333314,"durationTicks":1367,"midi":45,"name":"A2","ticks":167040,"time":174,"velocity":0.6299212598425197},{"duration":1.4239583333333314,"durationTicks":1367,"midi":46,"name":"A#2","ticks":168960,"time":176,"velocity":0.6299212598425197},{"duration":0.4739583333333428,"durationTicks":455,"midi":50,"name":"D3","ticks":169440,"time":176.5,"velocity":0.6299212598425197},{"duration":0.9489583333333371,"durationTicks":911,"midi":53,"name":"F3","ticks":169920,"time":177,"velocity":0.6299212598425197},{"duration":1.4239583333333314,"durationTicks":1367,"midi":45,"name":"A2","ticks":170880,"time":178,"velocity":0.6299212598425197},{"duration":0.4739583333333428,"durationTicks":455,"midi":48,"name":"C3","ticks":171360,"time":178.5,"velocity":0.6299212598425197},{"duration":0.9489583333333371,"durationTicks":911,"midi":53,"name":"F3","ticks":171840,"time":179,"velocity":0.6299212598425197},{"duration":1.4239583333333314,"durationTicks":1367,"midi":43,"name":"G2","ticks":172800,"time":180,"velocity":0.6299212598425197},{"duration":0.4739583333333428,"durationTicks":455,"midi":50,"name":"D3","ticks":173280,"time":180.5,"velocity":0.6299212598425197},{"duration":0.9489583333333371,"durationTicks":911,"midi":53,"name":"F3","ticks":173760,"time":181,"velocity":0.6299212598425197},{"duration":1.4239583333333314,"durationTicks":1367,"midi":45,"name":"A2","ticks":174720,"time":182,"velocity":0.6299212598425197},{"duration":0.4739583333333428,"durationTicks":455,"midi":48,"name":"C3","ticks":175200,"time":182.5,"velocity":0.6299212598425197},{"duration":0.9489583333333371,"durationTicks":911,"midi":53,"name":"F3","ticks":175680,"time":183,"velocity":0.6299212598425197},{"duration":1.4239583333333314,"durationTicks":1367,"midi":46,"name":"A#2","ticks":176640,"time":184,"velocity":0.6299212598425197},{"duration":1.4239583333333314,"durationTicks":1367,"midi":45,"name":"A2","ticks":178560,"time":186,"velocity":0.6299212598425197}]}]}