{"header":{"title":"Pirates of The Caribbean Medley","artist":"Hans Zimmer","source":"https://musescore.com/user/1699036/scores/1225766","bpm":167.99993280002687,"duration":638.7316543020887},"tracks":[{"instrument_number":0,"notes":[{"name":"D4","midi":62,"time":0,"velocity":0.6299212598425197,"duration":0.17782745208333336},{"name":"D4","midi":62,"time":0.35714300000000004,"velocity":0.6299212598425197,"duration":0.16889887708333334},{"name":"D#4","midi":63,"time":0.5357145000000001,"velocity":0.6299212598425197,"duration":0.1688988770833333},{"name":"D4","midi":62,"time":0.7142860000000001,"velocity":0.6299212598425197,"duration":0.1688988770833334},{"name":"D#4","midi":63,"time":0.8928575000000002,"velocity":0.6299212598425197,"duration":0.1688988770833334},{"name":"D4","midi":62,"time":1.0714290000000002,"velocity":0.7559055118110236,"duration":0.3563989520833335},{"name":"D4","midi":62,"time":1.4285720000000004,"velocity":0.5511811023622047,"duration":0.1688988770833333},{"name":"D#4","midi":63,"time":1.6071435000000003,"velocity":0.5118110236220472,"duration":0.1688988770833333},{"name":"D4","midi":62,"time":1.7857150000000002,"velocity":0.47244094488188976,"duration":0.1688988770833333},{"name":"D#4","midi":63,"time":1.9642865,"velocity":0.4330708661417323,"duration":0.1688988770833335},{"name":"D4","midi":62,"time":2.1428580000000004,"velocity":0.3858267716535433,"duration":0.17782745208333317},{"name":"D4","midi":62,"time":2.500001,"velocity":0.3858267716535433,"duration":0.1688988770833335},{"name":"D#4","midi":63,"time":2.6785725000000005,"velocity":0.3858267716535433,"duration":0.1688988770833335},{"name":"D4","midi":62,"time":2.857144000000001,"velocity":0.3858267716535433,"duration":0.1688988770833335},{"name":"D#4","midi":63,"time":3.035715500000001,"velocity":0.3858267716535433,"duration":0.1688988770833335},{"name":"D4","midi":62,"time":3.2142870000000014,"velocity":0.3858267716535433,"duration":0.17782745208333317},{"name":"D4","midi":62,"time":3.571430000000001,"velocity":0.4645669291338583,"duration":0.1688988770833335},{"name":"D#4","midi":63,"time":3.7500015000000015,"velocity":0.5039370078740157,"duration":0.1688988770833335},{"name":"F4","midi":65,"time":3.928573000000002,"velocity":0.5433070866141733,"duration":0.1688988770833335},{"name":"D#4","midi":63,"time":4.107144500000002,"velocity":0.5826771653543307,"duration":0.1688988770833335},{"name":"D4","midi":62,"time":4.2857160000000025,"velocity":0.6299212598425197,"duration":0.17782745208333317},{"name":"D4","midi":62,"time":4.642859000000002,"velocity":0.6299212598425197,"duration":0.1688988770833335},{"name":"D#4","midi":63,"time":4.821430500000003,"velocity":0.6299212598425197,"duration":0.1688988770833335},{"name":"D4","midi":62,"time":5.000002000000003,"velocity":0.6299212598425197,"duration":0.1688988770833335},{"name":"D#4","midi":63,"time":5.178573500000003,"velocity":0.6299212598425197,"duration":0.1688988770833335},{"name":"D4","midi":62,"time":5.357145000000004,"velocity":0.6299212598425197,"duration":0.17782745208333317},{"name":"D4","midi":62,"time":5.714288000000003,"velocity":0.6299212598425197,"duration":0.1688988770833335},{"name":"D#4","midi":63,"time":5.892859500000004,"velocity":0.6299212598425197,"duration":0.1688988770833335},{"name":"D4","midi":62,"time":6.071431000000004,"velocity":0.6299212598425197,"duration":0.1688988770833335},{"name":"D#4","midi":63,"time":6.250002500000004,"velocity":0.6299212598425197,"duration":0.1688988770833335},{"name":"D4","midi":62,"time":6.428574000000005,"velocity":0.6299212598425197,"duration":0.17782745208333317},{"name":"D4","midi":62,"time":6.785717000000004,"velocity":0.6299212598425197,"duration":0.1688988770833335},{"name":"D#4","midi":63,"time":6.964288500000005,"velocity":0.6299212598425197,"duration":0.1688988770833335},{"name":"D4","midi":62,"time":7.142860000000005,"velocity":0.6299212598425197,"duration":0.1688988770833335},{"name":"D#4","midi":63,"time":7.321431500000005,"velocity":0.6299212598425197,"duration":0.1688988770833335},{"name":"D4","midi":62,"time":7.500003000000006,"velocity":0.6299212598425197,"duration":0.17782745208333317},{"name":"D4","midi":62,"time":7.8571460000000055,"velocity":0.6299212598425197,"duration":0.16889887708333262},{"name":"D#4","midi":63,"time":8.035717500000004,"velocity":0.6299212598425197,"duration":0.16889887708333262},{"name":"F4","midi":65,"time":8.214289000000003,"velocity":0.6299212598425197,"duration":0.16889887708333262},{"name":"D#4","midi":63,"time":8.392860500000001,"velocity":0.6299212598425197,"duration":0.16889887708333262},{"name":"D4","midi":62,"time":8.571432,"velocity":0.6299212598425197,"duration":0.17782745208333317},{"name":"D4","midi":62,"time":8.928575,"velocity":0.6299212598425197,"duration":0.17782745208333317},{"name":"D4","midi":62,"time":9.285718000000001,"velocity":0.6299212598425197,"duration":0.17782745208333317},{"name":"A4","midi":69,"time":9.642861000000002,"velocity":0.6299212598425197,"duration":0.3385418020833342},{"name":"D5","midi":74,"time":9.642861000000002,"velocity":0.6299212598425197,"duration":0.3385418020833342},{"name":"A4","midi":69,"time":10.000004000000002,"velocity":0.6299212598425197,"duration":0.11235123541666603},{"name":"D5","midi":74,"time":10.000004000000002,"velocity":0.6299212598425197,"duration":0.11235123541666603},{"name":"A4","midi":69,"time":10.11905166666667,"velocity":0.6299212598425197,"duration":0.11235123541666603},{"name":"D5","midi":74,"time":10.11905166666667,"velocity":0.6299212598425197,"duration":0.11235123541666603},{"name":"A4","midi":69,"time":10.238099333333336,"velocity":0.6299212598425197,"duration":0.11235123541666603},{"name":"D5","midi":74,"time":10.238099333333336,"velocity":0.6299212598425197,"duration":0.11235123541666603},{"name":"A4","midi":69,"time":10.357147000000003,"velocity":0.6299212598425197,"duration":0.11235123541666603},{"name":"D5","midi":74,"time":10.357147000000003,"velocity":0.6299212598425197,"duration":0.11235123541666603},{"name":"A4","midi":69,"time":10.47619466666667,"velocity":0.6299212598425197,"duration":0.11235123541666603},{"name":"D5","midi":74,"time":10.47619466666667,"velocity":0.6299212598425197,"duration":0.11235123541666603},{"name":"A4","midi":69,"time":10.595242333333337,"velocity":0.6299212598425197,"duration":0.11235123541666603},{"name":"D5","midi":74,"time":10.595242333333337,"velocity":0.6299212598425197,"duration":0.11235123541666603},{"name":"A4","midi":69,"time":10.714290000000004,"velocity":0.6299212598425197,"duration":0.3385418020833342},{"name":"D5","midi":74,"time":10.714290000000004,"velocity":0.6299212598425197,"duration":0.3385418020833342},{"name":"E5","midi":76,"time":10.714290000000004,"velocity":0.6299212598425197,"duration":0.3385418020833342},{"name":"A4","midi":69,"time":11.071433000000004,"velocity":0.6299212598425197,"duration":0.11235123541666603},{"name":"D5","midi":74,"time":11.071433000000004,"velocity":0.6299212598425197,"duration":0.11235123541666603},{"name":"E5","midi":76,"time":11.071433000000004,"velocity":0.6299212598425197,"duration":0.11235123541666603},{"name":"A4","midi":69,"time":11.190480666666671,"velocity":0.6299212598425197,"duration":0.11235123541666603},{"name":"D5","midi":74,"time":11.190480666666671,"velocity":0.6299212598425197,"duration":0.11235123541666603},{"name":"E5","midi":76,"time":11.190480666666671,"velocity":0.6299212598425197,"duration":0.11235123541666603},{"name":"A4","midi":69,"time":11.309528333333338,"velocity":0.6299212598425197,"duration":0.11235123541666603},{"name":"D5","midi":74,"time":11.309528333333338,"velocity":0.6299212598425197,"duration":0.11235123541666603},{"name":"E5","midi":76,"time":11.309528333333338,"velocity":0.6299212598425197,"duration":0.11235123541666603},{"name":"A4","midi":69,"time":11.428576000000005,"velocity":0.6299212598425197,"duration":0.11235123541666603},{"name":"D5","midi":74,"time":11.428576000000005,"velocity":0.6299212598425197,"duration":0.11235123541666603},{"name":"E5","midi":76,"time":11.428576000000005,"velocity":0.6299212598425197,"duration":0.11235123541666603},{"name":"A4","midi":69,"time":11.547623666666672,"velocity":0.6299212598425197,"duration":0.11235123541666603},{"name":"D5","midi":74,"time":11.547623666666672,"velocity":0.6299212598425197,"duration":0.11235123541666603},{"name":"E5","midi":76,"time":11.547623666666672,"velocity":0.6299212598425197,"duration":0.11235123541666603},{"name":"A4","midi":69,"time":11.666671333333339,"velocity":0.6299212598425197,"duration":0.11235123541666603},{"name":"D5","midi":74,"time":11.666671333333339,"velocity":0.6299212598425197,"duration":0.11235123541666603},{"name":"E5","midi":76,"time":11.666671333333339,"velocity":0.6299212598425197,"duration":0.11235123541666603},{"name":"A4","midi":69,"time":11.785719000000006,"velocity":0.6299212598425197,"duration":0.3385418020833342},{"name":"D5","midi":74,"time":11.785719000000006,"velocity":0.6299212598425197,"duration":0.3385418020833342},{"name":"F5","midi":77,"time":11.785719000000006,"velocity":0.6299212598425197,"duration":0.3385418020833342},{"name":"A4","midi":69,"time":12.142862000000006,"velocity":0.6299212598425197,"duration":0.11235123541666603},{"name":"D5","midi":74,"time":12.142862000000006,"velocity":0.6299212598425197,"duration":0.11235123541666603},{"name":"F5","midi":77,"time":12.142862000000006,"velocity":0.6299212598425197,"duration":0.11235123541666603},{"name":"A4","midi":69,"time":12.261909666666673,"velocity":0.6299212598425197,"duration":0.11235123541666603},{"name":"D5","midi":74,"time":12.261909666666673,"velocity":0.6299212598425197,"duration":0.11235123541666603},{"name":"F5","midi":77,"time":12.261909666666673,"velocity":0.6299212598425197,"duration":0.11235123541666603},{"name":"A4","midi":69,"time":12.38095733333334,"velocity":0.6299212598425197,"duration":0.11235123541666603},{"name":"D5","midi":74,"time":12.38095733333334,"velocity":0.6299212598425197,"duration":0.11235123541666603},{"name":"F5","midi":77,"time":12.38095733333334,"velocity":0.6299212598425197,"duration":0.11235123541666603},{"name":"A4","midi":69,"time":12.500005000000007,"velocity":0.6299212598425197,"duration":0.11235123541666603},{"name":"D5","midi":74,"time":12.500005000000007,"velocity":0.6299212598425197,"duration":0.11235123541666603},{"name":"F5","midi":77,"time":12.500005000000007,"velocity":0.6299212598425197,"duration":0.11235123541666603},{"name":"A4","midi":69,"time":12.619052666666674,"velocity":0.6299212598425197,"duration":0.11235123541666603},{"name":"D5","midi":74,"time":12.619052666666674,"velocity":0.6299212598425197,"duration":0.11235123541666603},{"name":"F5","midi":77,"time":12.619052666666674,"velocity":0.6299212598425197,"duration":0.11235123541666603},{"name":"A4","midi":69,"time":12.73810033333334,"velocity":0.6299212598425197,"duration":0.11235123541666603},{"name":"D5","midi":74,"time":12.73810033333334,"velocity":0.6299212598425197,"duration":0.11235123541666603},{"name":"F5","midi":77,"time":12.73810033333334,"velocity":0.6299212598425197,"duration":0.11235123541666603},{"name":"A4","midi":69,"time":12.857148000000008,"velocity":0.7559055118110236,"duration":0.3563989520833335},{"name":"E5","midi":76,"time":12.857148000000008,"velocity":0.7559055118110236,"duration":0.3563989520833335},{"name":"G5","midi":79,"time":12.857148000000008,"velocity":0.7559055118110236,"duration":0.3563989520833335},{"name":"A4","midi":69,"time":13.214291000000008,"velocity":0.7559055118110236,"duration":0.3563989520833335},{"name":"C#5","midi":73,"time":13.214291000000008,"velocity":0.7559055118110236,"duration":0.3563989520833335},{"name":"E5","midi":76,"time":13.214291000000008,"velocity":0.7559055118110236,"duration":0.3563989520833335},{"name":"A5","midi":81,"time":13.214291000000008,"velocity":0.7559055118110236,"duration":0.3563989520833335},{"name":"A#4","midi":70,"time":13.571434000000009,"velocity":0.7559055118110236,"duration":0.3563989520833335},{"name":"C#5","midi":73,"time":13.571434000000009,"velocity":0.7559055118110236,"duration":0.3563989520833335},{"name":"E5","midi":76,"time":13.571434000000009,"velocity":0.7559055118110236,"duration":0.3563989520833335},{"name":"A#5","midi":82,"time":13.571434000000009,"velocity":0.7559055118110236,"duration":0.3563989520833335},{"name":"A4","midi":69,"time":13.92857700000001,"velocity":0.7559055118110236,"duration":0.3563989520833335},{"name":"C#5","midi":73,"time":13.92857700000001,"velocity":0.7559055118110236,"duration":0.3563989520833335},{"name":"E5","midi":76,"time":13.92857700000001,"velocity":0.7559055118110236,"duration":0.3563989520833335},{"name":"A5","midi":81,"time":13.92857700000001,"velocity":0.7559055118110236,"duration":0.3563989520833335},{"name":"A#4","midi":70,"time":14.28572000000001,"velocity":0.7559055118110236,"duration":0.3563989520833335},{"name":"C#5","midi":73,"time":14.28572000000001,"velocity":0.7559055118110236,"duration":0.3563989520833335},{"name":"E5","midi":76,"time":14.28572000000001,"velocity":0.7559055118110236,"duration":0.3563989520833335},{"name":"A#5","midi":82,"time":14.28572000000001,"velocity":0.7559055118110236,"duration":0.3563989520833335},{"name":"C#5","midi":73,"time":14.64286300000001,"velocity":0.7559055118110236,"duration":0.3563989520833335},{"name":"E5","midi":76,"time":14.64286300000001,"velocity":0.7559055118110236,"duration":0.3563989520833335},{"name":"A5","midi":81,"time":14.64286300000001,"velocity":0.7559055118110236,"duration":0.3563989520833335},{"name":"C#6","midi":85,"time":14.64286300000001,"velocity":0.7559055118110236,"duration":0.3563989520833335},{"name":"D5","midi":74,"time":15.000006000000011,"velocity":0.7559055118110236,"duration":0.3563989520833335},{"name":"F5","midi":77,"time":15.000006000000011,"velocity":0.7559055118110236,"duration":0.3563989520833335},{"name":"A5","midi":81,"time":15.000006000000011,"velocity":0.7559055118110236,"duration":0.3563989520833335},{"name":"D6","midi":86,"time":15.000006000000011,"velocity":0.7559055118110236,"duration":0.3563989520833335},{"name":"D4","midi":62,"time":15.357149000000012,"velocity":0.7559055118110236,"duration":0.17782745208333317},{"name":"E4","midi":64,"time":15.535720500000012,"velocity":0.7559055118110236,"duration":0.17782745208333317},{"name":"F4","midi":65,"time":15.714292000000013,"velocity":0.7559055118110236,"duration":0.17782745208333317},{"name":"D4","midi":62,"time":15.892863500000013,"velocity":0.7559055118110236,"duration":0.1688988770833344},{"name":"E4","midi":64,"time":16.071435000000015,"velocity":0.905511811023622,"duration":0.3563989520833317},{"name":"D4","midi":62,"time":16.428578000000012,"velocity":0.905511811023622,"duration":0.3563989520833317},{"name":"E3","midi":52,"time":16.78572100000001,"velocity":0.905511811023622,"duration":0.3563989520833317},{"name":"C4","midi":60,"time":16.78572100000001,"velocity":0.905511811023622,"duration":0.3563989520833317},{"name":"A3","midi":57,"time":17.142864000000007,"velocity":0.905511811023622,"duration":0.3563989520833317},{"name":"D4","midi":62,"time":17.142864000000007,"velocity":0.905511811023622,"duration":0.3563989520833317},{"name":"D4","midi":62,"time":17.500007000000004,"velocity":0.7559055118110236,"duration":0.17782745208333495},{"name":"E4","midi":64,"time":17.678578500000004,"velocity":0.7559055118110236,"duration":0.17782745208333495},{"name":"F4","midi":65,"time":17.857150000000004,"velocity":0.7559055118110236,"duration":0.17782745208333495},{"name":"D4","midi":62,"time":18.035721500000005,"velocity":0.7559055118110236,"duration":0.16889887708333262},{"name":"C4","midi":60,"time":18.214293000000005,"velocity":0.905511811023622,"duration":0.3563989520833317},{"name":"E4","midi":64,"time":18.214293000000005,"velocity":0.905511811023622,"duration":0.3563989520833317},{"name":"C4","midi":60,"time":18.571436000000002,"velocity":0.905511811023622,"duration":0.3563989520833317},{"name":"F4","midi":65,"time":18.571436000000002,"velocity":0.905511811023622,"duration":0.3563989520833317},{"name":"C4","midi":60,"time":18.928579,"velocity":0.905511811023622,"duration":0.3563989520833317},{"name":"G4","midi":67,"time":18.928579,"velocity":0.905511811023622,"duration":0.3563989520833317},{"name":"A#3","midi":58,"time":19.285721999999996,"velocity":0.905511811023622,"duration":0.3563989520833317},{"name":"D4","midi":62,"time":19.285721999999996,"velocity":0.905511811023622,"duration":0.3563989520833317},{"name":"G4","midi":67,"time":19.285721999999996,"velocity":0.905511811023622,"duration":0.3563989520833317},{"name":"G4","midi":67,"time":19.642864999999993,"velocity":0.7559055118110236,"duration":0.17782745208333495},{"name":"A4","midi":69,"time":19.821436499999994,"velocity":0.7559055118110236,"duration":0.17782745208333495},{"name":"A#4","midi":70,"time":20.000007999999994,"velocity":0.7559055118110236,"duration":0.17782745208333495},{"name":"D4","midi":62,"time":20.178579499999994,"velocity":0.7559055118110236,"duration":0.16889887708333262},{"name":"F4","midi":65,"time":20.357150999999995,"velocity":0.7559055118110236,"duration":0.3385418020833342},{"name":"E4","midi":64,"time":20.714293999999995,"velocity":0.7559055118110236,"duration":0.3385418020833342},{"name":"A3","midi":57,"time":21.071436999999996,"velocity":0.7559055118110236,"duration":0.3385418020833342},{"name":"D4","midi":62,"time":21.071436999999996,"velocity":0.7559055118110236,"duration":0.3385418020833342},{"name":"G3","midi":55,"time":21.428579999999997,"velocity":0.7559055118110236,"duration":0.3385418020833342},{"name":"E4","midi":64,"time":21.428579999999997,"velocity":0.7559055118110236,"duration":0.3385418020833342},{"name":"D4","midi":62,"time":21.785722999999997,"velocity":0.7559055118110236,"duration":0.3385418020833342},{"name":"G3","midi":55,"time":22.142865999999998,"velocity":0.7559055118110236,"duration":0.3385418020833342},{"name":"C4","midi":60,"time":22.142865999999998,"velocity":0.7559055118110236,"duration":0.3385418020833342},{"name":"F3","midi":53,"time":22.500009,"velocity":0.7559055118110236,"duration":0.3385418020833342},{"name":"D4","midi":62,"time":22.500009,"velocity":0.7559055118110236,"duration":0.3385418020833342},{"name":"F4","midi":65,"time":22.857152,"velocity":0.7559055118110236,"duration":0.3385418020833342},{"name":"F4","midi":65,"time":23.214295,"velocity":0.7559055118110236,"duration":0.3385418020833342},{"name":"A4","midi":69,"time":23.214295,"velocity":0.7559055118110236,"duration":0.3385418020833342},{"name":"D4","midi":62,"time":23.571438,"velocity":0.8818897637795275,"duration":0.3385418020833342},{"name":"F4","midi":65,"time":23.571438,"velocity":0.8818897637795275,"duration":0.3385418020833342},{"name":"A4","midi":69,"time":23.571438,"velocity":0.8818897637795275,"duration":0.3385418020833342},{"name":"D5","midi":74,"time":23.571438,"velocity":0.8818897637795275,"duration":0.3385418020833342},{"name":"D4","midi":62,"time":23.928581,"velocity":0.8818897637795275,"duration":0.16889887708333262},{"name":"D5","midi":74,"time":23.928581,"velocity":0.8818897637795275,"duration":0.16889887708333262},{"name":"E4","midi":64,"time":24.1071525,"velocity":0.8818897637795275,"duration":0.16889887708333262},{"name":"E5","midi":76,"time":24.1071525,"velocity":0.8818897637795275,"duration":0.16889887708333262},{"name":"F4","midi":65,"time":24.285724000000002,"velocity":0.8818897637795275,"duration":0.16889887708333262},{"name":"F5","midi":77,"time":24.285724000000002,"velocity":0.8818897637795275,"duration":0.16889887708333262},{"name":"D4","midi":62,"time":24.464295500000002,"velocity":0.8818897637795275,"duration":0.16889887708333262},{"name":"D5","midi":74,"time":24.464295500000002,"velocity":0.8818897637795275,"duration":0.16889887708333262},{"name":"E4","midi":64,"time":24.642867000000003,"velocity":0.8818897637795275,"duration":0.3385418020833342},{"name":"E5","midi":76,"time":24.642867000000003,"velocity":0.8818897637795275,"duration":0.3385418020833342},{"name":"D4","midi":62,"time":25.000010000000003,"velocity":0.8818897637795275,"duration":0.3385418020833342},{"name":"D5","midi":74,"time":25.000010000000003,"velocity":0.8818897637795275,"duration":0.3385418020833342},{"name":"C4","midi":60,"time":25.357153000000004,"velocity":0.8818897637795275,"duration":0.3385418020833342},{"name":"E4","midi":64,"time":25.357153000000004,"velocity":0.8818897637795275,"duration":0.3385418020833342},{"name":"C5","midi":72,"time":25.357153000000004,"velocity":0.8818897637795275,"duration":0.3385418020833342},{"name":"D4","midi":62,"time":25.714296000000004,"velocity":0.8818897637795275,"duration":0.3385418020833342},{"name":"F4","midi":65,"time":25.714296000000004,"velocity":0.8818897637795275,"duration":0.3385418020833342},{"name":"A4","midi":69,"time":25.714296000000004,"velocity":0.8818897637795275,"duration":0.3385418020833342},{"name":"D5","midi":74,"time":25.714296000000004,"velocity":0.8818897637795275,"duration":0.3385418020833342},{"name":"D4","midi":62,"time":26.071439000000005,"velocity":0.8818897637795275,"duration":0.16889887708333262},{"name":"D5","midi":74,"time":26.071439000000005,"velocity":0.8818897637795275,"duration":0.16889887708333262},{"name":"E4","midi":64,"time":26.250010500000005,"velocity":0.8818897637795275,"duration":0.16889887708333262},{"name":"E5","midi":76,"time":26.250010500000005,"velocity":0.8818897637795275,"duration":0.16889887708333262},{"name":"F4","midi":65,"time":26.428582000000006,"velocity":0.8818897637795275,"duration":0.16889887708333262},{"name":"F5","midi":77,"time":26.428582000000006,"velocity":0.8818897637795275,"duration":0.16889887708333262},{"name":"D4","midi":62,"time":26.607153500000006,"velocity":0.8818897637795275,"duration":0.16889887708333262},{"name":"D5","midi":74,"time":26.607153500000006,"velocity":0.8818897637795275,"duration":0.16889887708333262},{"name":"E4","midi":64,"time":26.785725000000006,"velocity":0.8818897637795275,"duration":0.3385418020833342},{"name":"G4","midi":67,"time":26.785725000000006,"velocity":0.8818897637795275,"duration":0.3385418020833342},{"name":"E5","midi":76,"time":26.785725000000006,"velocity":0.8818897637795275,"duration":0.3385418020833342},{"name":"F4","midi":65,"time":27.142868000000007,"velocity":0.8818897637795275,"duration":0.3385418020833342},{"name":"F5","midi":77,"time":27.142868000000007,"velocity":0.8818897637795275,"duration":0.3385418020833342},{"name":"G4","midi":67,"time":27.500011000000008,"velocity":0.8818897637795275,"duration":0.3385418020833342},{"name":"G5","midi":79,"time":27.500011000000008,"velocity":0.8818897637795275,"duration":0.3385418020833342},{"name":"G4","midi":67,"time":27.85715400000001,"velocity":0.8818897637795275,"duration":0.3385418020833342},{"name":"A#4","midi":70,"time":27.85715400000001,"velocity":0.8818897637795275,"duration":0.3385418020833342},{"name":"D5","midi":74,"time":27.85715400000001,"velocity":0.8818897637795275,"duration":0.3385418020833342},{"name":"G5","midi":79,"time":27.85715400000001,"velocity":0.8818897637795275,"duration":0.3385418020833342},{"name":"G4","midi":67,"time":28.21429700000001,"velocity":0.8818897637795275,"duration":0.16889887708333262},{"name":"G5","midi":79,"time":28.21429700000001,"velocity":0.8818897637795275,"duration":0.16889887708333262},{"name":"A4","midi":69,"time":28.39286850000001,"velocity":0.8818897637795275,"duration":0.16889887708333262},{"name":"A5","midi":81,"time":28.39286850000001,"velocity":0.8818897637795275,"duration":0.16889887708333262},{"name":"A#4","midi":70,"time":28.57144000000001,"velocity":0.8818897637795275,"duration":0.16889887708333262},{"name":"A#5","midi":82,"time":28.57144000000001,"velocity":0.8818897637795275,"duration":0.16889887708333262},{"name":"G4","midi":67,"time":28.75001150000001,"velocity":0.8818897637795275,"duration":0.16889887708333262},{"name":"G5","midi":79,"time":28.75001150000001,"velocity":0.8818897637795275,"duration":0.16889887708333262},{"name":"F4","midi":65,"time":28.92858300000001,"velocity":0.8818897637795275,"duration":0.3385418020833342},{"name":"A4","midi":69,"time":28.92858300000001,"velocity":0.8818897637795275,"duration":0.3385418020833342},{"name":"F5","midi":77,"time":28.92858300000001,"velocity":0.8818897637795275,"duration":0.3385418020833342},{"name":"E4","midi":64,"time":29.28572600000001,"velocity":0.8818897637795275,"duration":0.3385418020833342},{"name":"G4","midi":67,"time":29.28572600000001,"velocity":0.8818897637795275,"duration":0.3385418020833342},{"name":"E5","midi":76,"time":29.28572600000001,"velocity":0.8818897637795275,"duration":0.3385418020833342},{"name":"D4","midi":62,"time":29.64286900000001,"velocity":0.8818897637795275,"duration":0.3385418020833342},{"name":"F4","midi":65,"time":29.64286900000001,"velocity":0.8818897637795275,"duration":0.3385418020833342},{"name":"D5","midi":74,"time":29.64286900000001,"velocity":0.8818897637795275,"duration":0.3385418020833342},{"name":"E4","midi":64,"time":30.000012000000012,"velocity":0.8818897637795275,"duration":0.3385418020833342},{"name":"G4","midi":67,"time":30.000012000000012,"velocity":0.8818897637795275,"duration":0.3385418020833342},{"name":"E5","midi":76,"time":30.000012000000012,"velocity":0.8818897637795275,"duration":0.3385418020833342},{"name":"D4","midi":62,"time":30.357155000000013,"velocity":0.8818897637795275,"duration":0.3385418020833342},{"name":"F4","midi":65,"time":30.357155000000013,"velocity":0.8818897637795275,"duration":0.3385418020833342},{"name":"D5","midi":74,"time":30.357155000000013,"velocity":0.8818897637795275,"duration":0.3385418020833342},{"name":"C4","midi":60,"time":30.714298000000014,"velocity":0.8818897637795275,"duration":0.3385418020833342},{"name":"E4","midi":64,"time":30.714298000000014,"velocity":0.8818897637795275,"duration":0.3385418020833342},{"name":"C5","midi":72,"time":30.714298000000014,"velocity":0.8818897637795275,"duration":0.3385418020833342},{"name":"D4","midi":62,"time":31.071441000000014,"velocity":0.8818897637795275,"duration":0.3385418020833342},{"name":"F4","midi":65,"time":31.071441000000014,"velocity":0.8818897637795275,"duration":0.3385418020833342},{"name":"A4","midi":69,"time":31.071441000000014,"velocity":0.8818897637795275,"duration":0.3385418020833342},{"name":"D5","midi":74,"time":31.071441000000014,"velocity":0.8818897637795275,"duration":0.3385418020833342},{"name":"F4","midi":65,"time":31.428584000000015,"velocity":0.8818897637795275,"duration":0.3385418020833342},{"name":"A4","midi":69,"time":31.428584000000015,"velocity":0.8818897637795275,"duration":0.3385418020833342},{"name":"F5","midi":77,"time":31.428584000000015,"velocity":0.8818897637795275,"duration":0.3385418020833342},{"name":"A4","midi":69,"time":31.785727000000016,"velocity":0.8818897637795275,"duration":0.3385418020833342},{"name":"D5","midi":74,"time":31.785727000000016,"velocity":0.8818897637795275,"duration":0.3385418020833342},{"name":"F5","midi":77,"time":31.785727000000016,"velocity":0.8818897637795275,"duration":0.3385418020833342},{"name":"A5","midi":81,"time":31.785727000000016,"velocity":0.8818897637795275,"duration":0.3385418020833342},{"name":"D4","midi":62,"time":32.142870000000016,"velocity":0.8818897637795275,"duration":1.0171135020833333},{"name":"F4","midi":65,"time":32.142870000000016,"velocity":0.8818897637795275,"duration":1.0171135020833333},{"name":"A4","midi":69,"time":32.142870000000016,"velocity":0.8818897637795275,"duration":1.0171135020833333},{"name":"A#3","midi":58,"time":33.21429900000002,"velocity":0.8818897637795275,"duration":1.0171135020833333},{"name":"D4","midi":62,"time":33.21429900000002,"velocity":0.8818897637795275,"duration":1.0171135020833333},{"name":"F4","midi":65,"time":33.21429900000002,"velocity":0.8818897637795275,"duration":1.0171135020833333},{"name":"A#4","midi":70,"time":33.21429900000002,"velocity":0.8818897637795275,"duration":1.0171135020833333},{"name":"A3","midi":57,"time":34.28572800000002,"velocity":0.8818897637795275,"duration":0.17782745208333495},{"name":"C4","midi":60,"time":34.28572800000002,"velocity":0.8818897637795275,"duration":0.17782745208333495},{"name":"F4","midi":65,"time":34.28572800000002,"velocity":0.8818897637795275,"duration":0.17782745208333495},{"name":"A4","midi":69,"time":34.28572800000002,"velocity":0.8818897637795275,"duration":0.17782745208333495},{"name":"A3","midi":57,"time":34.64287100000002,"velocity":0.8818897637795275,"duration":0.17782745208333495},{"name":"C4","midi":60,"time":34.64287100000002,"velocity":0.8818897637795275,"duration":0.17782745208333495},{"name":"F4","midi":65,"time":34.64287100000002,"velocity":0.8818897637795275,"duration":0.17782745208333495},{"name":"A4","midi":69,"time":34.64287100000002,"velocity":0.8818897637795275,"duration":0.17782745208333495},{"name":"A3","midi":57,"time":35.00001400000002,"velocity":0.8818897637795275,"duration":0.17782745208333495},{"name":"C4","midi":60,"time":35.00001400000002,"velocity":0.8818897637795275,"duration":0.17782745208333495},{"name":"F4","midi":65,"time":35.00001400000002,"velocity":0.8818897637795275,"duration":0.17782745208333495},{"name":"A4","midi":69,"time":35.00001400000002,"velocity":0.8818897637795275,"duration":0.17782745208333495},{"name":"A3","midi":57,"time":35.35715700000002,"velocity":0.8818897637795275,"duration":0.16889887708333617},{"name":"C4","midi":60,"time":35.35715700000002,"velocity":0.8818897637795275,"duration":0.16889887708333617},{"name":"F4","midi":65,"time":35.35715700000002,"velocity":0.8818897637795275,"duration":0.16889887708333617},{"name":"A4","midi":69,"time":35.35715700000002,"velocity":0.8818897637795275,"duration":0.16889887708333617},{"name":"G3","midi":55,"time":35.535728500000026,"velocity":0.8818897637795275,"duration":0.8474705770833353},{"name":"C4","midi":60,"time":35.535728500000026,"velocity":0.8818897637795275,"duration":0.8474705770833353},{"name":"E4","midi":64,"time":35.535728500000026,"velocity":0.8818897637795275,"duration":0.8474705770833353},{"name":"G4","midi":67,"time":35.535728500000026,"velocity":0.8818897637795275,"duration":0.8474705770833353},{"name":"G3","midi":55,"time":36.42858600000003,"velocity":0.8818897637795275,"duration":0.3385418020833342},{"name":"A#3","midi":58,"time":36.42858600000003,"velocity":0.8818897637795275,"duration":0.3385418020833342},{"name":"D4","midi":62,"time":36.42858600000003,"velocity":0.8818897637795275,"duration":0.3385418020833342},{"name":"G4","midi":67,"time":36.42858600000003,"velocity":0.8818897637795275,"duration":0.3385418020833342},{"name":"G3","midi":55,"time":36.78572900000003,"velocity":0.8818897637795275,"duration":0.17782745208333495},{"name":"A#3","midi":58,"time":36.964300500000036,"velocity":0.8818897637795275,"duration":0.17782745208333495},{"name":"D4","midi":62,"time":37.14287200000004,"velocity":0.8818897637795275,"duration":0.17782745208333495},{"name":"F4","midi":65,"time":37.32144350000004,"velocity":0.8818897637795275,"duration":0.16889887708333617},{"name":"F3","midi":53,"time":37.50001500000005,"velocity":0.8818897637795275,"duration":0.3385418020833342},{"name":"A3","midi":57,"time":37.50001500000005,"velocity":0.8818897637795275,"duration":0.3385418020833342},{"name":"D4","midi":62,"time":37.50001500000005,"velocity":0.8818897637795275,"duration":0.3385418020833342},{"name":"F4","midi":65,"time":37.50001500000005,"velocity":0.8818897637795275,"duration":0.3385418020833342},{"name":"F3","midi":53,"time":37.85715800000005,"velocity":0.8818897637795275,"duration":0.17782745208333495},{"name":"A3","midi":57,"time":38.03572950000005,"velocity":0.8818897637795275,"duration":0.17782745208333495},{"name":"D4","midi":62,"time":38.214301000000056,"velocity":0.8818897637795275,"duration":0.17782745208333495},{"name":"F4","midi":65,"time":38.39287250000006,"velocity":0.8818897637795275,"duration":0.16889887708333617},{"name":"A3","midi":57,"time":38.571444000000064,"velocity":0.8818897637795275,"duration":0.17782745208333495},{"name":"C#4","midi":61,"time":38.571444000000064,"velocity":0.8818897637795275,"duration":0.17782745208333495},{"name":"E4","midi":64,"time":38.571444000000064,"velocity":0.8818897637795275,"duration":0.17782745208333495},{"name":"A3","midi":57,"time":38.928587000000064,"velocity":0.8818897637795275,"duration":0.17782745208333495},{"name":"D4","midi":62,"time":38.928587000000064,"velocity":0.8818897637795275,"duration":0.17782745208333495},{"name":"F4","midi":65,"time":38.928587000000064,"velocity":0.8818897637795275,"duration":0.17782745208333495},{"name":"A3","midi":57,"time":39.285730000000065,"velocity":0.8818897637795275,"duration":0.17782745208333495},{"name":"C#4","midi":61,"time":39.285730000000065,"velocity":0.8818897637795275,"duration":0.17782745208333495},{"name":"E4","midi":64,"time":39.285730000000065,"velocity":0.8818897637795275,"duration":0.17782745208333495},{"name":"F3","midi":53,"time":39.642873000000066,"velocity":0.8818897637795275,"duration":0.3385418020833342},{"name":"A3","midi":57,"time":39.642873000000066,"velocity":0.8818897637795275,"duration":0.3385418020833342},{"name":"D4","midi":62,"time":39.642873000000066,"velocity":0.8818897637795275,"duration":0.3385418020833342},{"name":"A3","midi":57,"time":40.000016000000066,"velocity":0.8818897637795275,"duration":0.11830361874999795},{"name":"D4","midi":62,"time":40.11906366666673,"velocity":0.8818897637795275,"duration":0.11830361874999795},{"name":"F4","midi":65,"time":40.2381113333334,"velocity":0.8818897637795275,"duration":0.11830361874999795},{"name":"A4","midi":69,"time":40.35715900000007,"velocity":0.8818897637795275,"duration":0.11830361874999795},{"name":"D5","midi":74,"time":40.476206666666734,"velocity":0.8818897637795275,"duration":0.11830361874999795},{"name":"F5","midi":77,"time":40.5952543333334,"velocity":0.8818897637795275,"duration":0.1123512354166678},{"name":"A4","midi":69,"time":40.71430200000007,"velocity":0.8818897637795275,"duration":1.0171135020833333},{"name":"D5","midi":74,"time":40.71430200000007,"velocity":0.8818897637795275,"duration":1.0171135020833333},{"name":"F5","midi":77,"time":40.71430200000007,"velocity":0.8818897637795275,"duration":1.0171135020833333},{"name":"A5","midi":81,"time":40.71430200000007,"velocity":0.8818897637795275,"duration":1.0171135020833333},{"name":"A#4","midi":70,"time":41.78573100000007,"velocity":0.8818897637795275,"duration":1.0171135020833333},{"name":"D5","midi":74,"time":41.78573100000007,"velocity":0.8818897637795275,"duration":1.0171135020833333},{"name":"F5","midi":77,"time":41.78573100000007,"velocity":0.8818897637795275,"duration":1.0171135020833333},{"name":"A#5","midi":82,"time":41.78573100000007,"velocity":0.8818897637795275,"duration":1.0171135020833333},{"name":"A4","midi":69,"time":42.85716000000007,"velocity":0.8818897637795275,"duration":0.17782745208333495},{"name":"C5","midi":72,"time":42.85716000000007,"velocity":0.8818897637795275,"duration":0.17782745208333495},{"name":"F5","midi":77,"time":42.85716000000007,"velocity":0.8818897637795275,"duration":0.17782745208333495},{"name":"A5","midi":81,"time":42.85716000000007,"velocity":0.8818897637795275,"duration":0.17782745208333495},{"name":"A4","midi":69,"time":43.21430300000007,"velocity":0.8818897637795275,"duration":0.17782745208333495},{"name":"C5","midi":72,"time":43.21430300000007,"velocity":0.8818897637795275,"duration":0.17782745208333495},{"name":"F5","midi":77,"time":43.21430300000007,"velocity":0.8818897637795275,"duration":0.17782745208333495},{"name":"A5","midi":81,"time":43.21430300000007,"velocity":0.8818897637795275,"duration":0.17782745208333495},{"name":"C5","midi":72,"time":43.57144600000007,"velocity":0.8818897637795275,"duration":0.17782745208333495},{"name":"F5","midi":77,"time":43.57144600000007,"velocity":0.8818897637795275,"duration":0.17782745208333495},{"name":"A5","midi":81,"time":43.57144600000007,"velocity":0.8818897637795275,"duration":0.17782745208333495},{"name":"A4","midi":69,"time":43.92858900000007,"velocity":0.8818897637795275,"duration":0.16889887708333617},{"name":"C5","midi":72,"time":43.92858900000007,"velocity":0.8818897637795275,"duration":0.16889887708333617},{"name":"F5","midi":77,"time":43.92858900000007,"velocity":0.8818897637795275,"duration":0.16889887708333617},{"name":"A5","midi":81,"time":43.92858900000007,"velocity":0.8818897637795275,"duration":0.16889887708333617},{"name":"G4","midi":67,"time":44.10716050000008,"velocity":0.8818897637795275,"duration":0.8474705770833353},{"name":"C5","midi":72,"time":44.10716050000008,"velocity":0.8818897637795275,"duration":0.8474705770833353},{"name":"E5","midi":76,"time":44.10716050000008,"velocity":0.8818897637795275,"duration":0.8474705770833353},{"name":"G5","midi":79,"time":44.10716050000008,"velocity":0.8818897637795275,"duration":0.8474705770833353},{"name":"A3","midi":57,"time":45.00001800000008,"velocity":0.5039370078740157,"duration":0.16889887708333617},{"name":"A3","midi":57,"time":45.178589500000086,"velocity":0.5039370078740157,"duration":0.16889887708333617},{"name":"A3","midi":57,"time":45.35716100000009,"velocity":0.5118110236220472,"duration":0.16889887708333617},{"name":"B3","midi":59,"time":45.35716100000009,"velocity":0.5118110236220472,"duration":0.16889887708333617},{"name":"A3","midi":57,"time":45.535732500000094,"velocity":0.5196850393700787,"duration":0.16889887708333617},{"name":"B3","midi":59,"time":45.535732500000094,"velocity":0.5196850393700787,"duration":0.16889887708333617},{"name":"A3","midi":57,"time":45.7143040000001,"velocity":0.5354330708661418,"duration":0.16889887708333617},{"name":"C#4","midi":61,"time":45.7143040000001,"velocity":0.5354330708661418,"duration":0.16889887708333617},{"name":"A3","midi":57,"time":45.8928755000001,"velocity":0.5433070866141733,"duration":0.16889887708333617},{"name":"C#4","midi":61,"time":45.8928755000001,"velocity":0.5433070866141733,"duration":0.16889887708333617},{"name":"A3","midi":57,"time":46.071447000000106,"velocity":0.5511811023622047,"duration":0.16889887708333617},{"name":"D4","midi":62,"time":46.071447000000106,"velocity":0.5511811023622047,"duration":0.16889887708333617},{"name":"A3","midi":57,"time":46.25001850000011,"velocity":0.5669291338582677,"duration":0.16889887708333617},{"name":"D4","midi":62,"time":46.25001850000011,"velocity":0.5669291338582677,"duration":0.16889887708333617},{"name":"A3","midi":57,"time":46.42859000000011,"velocity":0.5748031496062992,"duration":0.16889887708333617},{"name":"E4","midi":64,"time":46.42859000000011,"velocity":0.5748031496062992,"duration":0.16889887708333617},{"name":"A3","midi":57,"time":46.60716150000012,"velocity":0.5905511811023622,"duration":0.16889887708333617},{"name":"E4","midi":64,"time":46.60716150000012,"velocity":0.5905511811023622,"duration":0.16889887708333617},{"name":"A3","midi":57,"time":46.78573300000012,"velocity":0.5984251968503937,"duration":0.16889887708333617},{"name":"D4","midi":62,"time":46.78573300000012,"velocity":0.5984251968503937,"duration":0.16889887708333617},{"name":"F4","midi":65,"time":46.78573300000012,"velocity":0.5984251968503937,"duration":0.16889887708333617},{"name":"A3","midi":57,"time":46.964304500000125,"velocity":0.6062992125984252,"duration":0.16889887708333617},{"name":"D4","midi":62,"time":46.964304500000125,"velocity":0.6062992125984252,"duration":0.16889887708333617},{"name":"F4","midi":65,"time":46.964304500000125,"velocity":0.6062992125984252,"duration":0.16889887708333617},{"name":"A3","midi":57,"time":47.14287600000013,"velocity":0.6220472440944882,"duration":0.16889887708333617},{"name":"D4","midi":62,"time":47.14287600000013,"velocity":0.6220472440944882,"duration":0.16889887708333617},{"name":"A3","midi":57,"time":47.32144750000013,"velocity":0.6299212598425197,"duration":0.16889887708333617},{"name":"D4","midi":62,"time":47.32144750000013,"velocity":0.6299212598425197,"duration":0.16889887708333617},{"name":"A3","midi":57,"time":47.50001900000014,"velocity":0.6456692913385826,"duration":0.16889887708333617},{"name":"E4","midi":64,"time":47.50001900000014,"velocity":0.6456692913385826,"duration":0.16889887708333617},{"name":"A3","midi":57,"time":47.67859050000014,"velocity":0.6535433070866141,"duration":0.16889887708333617},{"name":"E4","midi":64,"time":47.67859050000014,"velocity":0.6535433070866141,"duration":0.16889887708333617},{"name":"A3","midi":57,"time":47.857162000000145,"velocity":0.6614173228346457,"duration":0.16889887708333617},{"name":"F4","midi":65,"time":47.857162000000145,"velocity":0.6614173228346457,"duration":0.16889887708333617},{"name":"A3","midi":57,"time":48.03573350000015,"velocity":0.6771653543307087,"duration":0.16889887708333617},{"name":"F4","midi":65,"time":48.03573350000015,"velocity":0.6771653543307087,"duration":0.16889887708333617},{"name":"A3","midi":57,"time":48.21430500000015,"velocity":0.6850393700787402,"duration":0.16889887708333617},{"name":"F#4","midi":66,"time":48.21430500000015,"velocity":0.6850393700787402,"duration":0.16889887708333617},{"name":"A3","midi":57,"time":48.392876500000156,"velocity":0.7007874015748031,"duration":0.16889887708333617},{"name":"F#4","midi":66,"time":48.392876500000156,"velocity":0.7007874015748031,"duration":0.16889887708333617},{"name":"A3","midi":57,"time":48.57144800000016,"velocity":0.7086614173228346,"duration":0.16889887708333617},{"name":"G4","midi":67,"time":48.57144800000016,"velocity":0.7086614173228346,"duration":0.16889887708333617},{"name":"A3","midi":57,"time":48.750019500000164,"velocity":0.7165354330708661,"duration":0.16889887708333617},{"name":"G4","midi":67,"time":48.750019500000164,"velocity":0.7165354330708661,"duration":0.16889887708333617},{"name":"A3","midi":57,"time":48.92859100000017,"velocity":0.7322834645669292,"duration":0.16889887708333617},{"name":"G#4","midi":68,"time":48.92859100000017,"velocity":0.7322834645669292,"duration":0.16889887708333617},{"name":"A3","midi":57,"time":49.10716250000017,"velocity":0.7401574803149606,"duration":0.16889887708333617},{"name":"G#4","midi":68,"time":49.10716250000017,"velocity":0.7401574803149606,"duration":0.16889887708333617},{"name":"A3","midi":57,"time":49.285734000000176,"velocity":0.7559055118110236,"duration":0.5081847270833322},{"name":"D4","midi":62,"time":49.285734000000176,"velocity":0.7559055118110236,"duration":0.5081847270833322},{"name":"F#4","midi":66,"time":49.285734000000176,"velocity":0.7559055118110236,"duration":0.5081847270833322},{"name":"A4","midi":69,"time":49.285734000000176,"velocity":0.7559055118110236,"duration":0.5081847270833322},{"name":"B4","midi":71,"time":49.82144850000017,"velocity":0.7559055118110236,"duration":0.16889887708333617},{"name":"C#5","midi":73,"time":50.00002000000018,"velocity":0.7559055118110236,"duration":0.16889887708333617},{"name":"D5","midi":74,"time":50.17859150000018,"velocity":0.7559055118110236,"duration":0.16889887708333617},{"name":"D#5","midi":75,"time":50.357163000000185,"velocity":0.7559055118110236,"duration":0.16889887708333617},{"name":"E5","midi":76,"time":50.53573450000019,"velocity":0.7559055118110236,"duration":0.16889887708333617},{"name":"F4","midi":65,"time":50.71430600000019,"velocity":0.7559055118110236,"duration":0.5081847270833322},{"name":"A4","midi":69,"time":50.71430600000019,"velocity":0.7559055118110236,"duration":0.5081847270833322},{"name":"D5","midi":74,"time":50.71430600000019,"velocity":0.7559055118110236,"duration":0.5081847270833322},{"name":"F5","midi":77,"time":50.71430600000019,"velocity":0.7559055118110236,"duration":0.5081847270833322},{"name":"G4","midi":67,"time":51.25002050000019,"velocity":0.7559055118110236,"duration":0.16889887708333617},{"name":"G5","midi":79,"time":51.25002050000019,"velocity":0.7559055118110236,"duration":0.16889887708333617},{"name":"G4","midi":67,"time":51.428592000000194,"velocity":0.7559055118110236,"duration":0.3385418020833342},{"name":"A4","midi":69,"time":51.428592000000194,"velocity":0.7559055118110236,"duration":0.3385418020833342},{"name":"E5","midi":76,"time":51.428592000000194,"velocity":0.7559055118110236,"duration":0.3385418020833342},{"name":"G5","midi":79,"time":51.428592000000194,"velocity":0.7559055118110236,"duration":0.3385418020833342},{"name":"G4","midi":67,"time":51.785735000000194,"velocity":0.7559055118110236,"duration":0.5081847270833322},{"name":"C5","midi":72,"time":51.785735000000194,"velocity":0.7559055118110236,"duration":0.5081847270833322},{"name":"E5","midi":76,"time":51.785735000000194,"velocity":0.7559055118110236,"duration":0.5081847270833322},{"name":"G5","midi":79,"time":51.785735000000194,"velocity":0.7559055118110236,"duration":0.5081847270833322},{"name":"F4","midi":65,"time":52.32144950000019,"velocity":0.7559055118110236,"duration":0.16889887708333617},{"name":"C5","midi":72,"time":52.32144950000019,"velocity":0.7559055118110236,"duration":0.16889887708333617},{"name":"F5","midi":77,"time":52.32144950000019,"velocity":0.7559055118110236,"duration":0.16889887708333617},{"name":"E4","midi":64,"time":52.500021000000196,"velocity":0.7559055118110236,"duration":0.3385418020833342},{"name":"E5","midi":76,"time":52.500021000000196,"velocity":0.7559055118110236,"duration":0.3385418020833342},{"name":"F4","midi":65,"time":52.857164000000196,"velocity":0.7559055118110236,"duration":0.3385418020833342},{"name":"A4","midi":69,"time":52.857164000000196,"velocity":0.7559055118110236,"duration":0.3385418020833342},{"name":"F5","midi":77,"time":52.857164000000196,"velocity":0.7559055118110236,"duration":0.3385418020833342},{"name":"G4","midi":67,"time":53.2143070000002,"velocity":0.7559055118110236,"duration":0.3385418020833342},{"name":"G5","midi":79,"time":53.2143070000002,"velocity":0.7559055118110236,"duration":0.3385418020833342},{"name":"A4","midi":69,"time":53.5714500000002,"velocity":0.7559055118110236,"duration":0.3385418020833342},{"name":"C5","midi":72,"time":53.5714500000002,"velocity":0.7559055118110236,"duration":0.3385418020833342},{"name":"F5","midi":77,"time":53.5714500000002,"velocity":0.7559055118110236,"duration":0.3385418020833342},{"name":"A5","midi":81,"time":53.5714500000002,"velocity":0.7559055118110236,"duration":0.3385418020833342},{"name":"G4","midi":67,"time":53.9285930000002,"velocity":0.7559055118110236,"duration":0.6778276520833302},{"name":"C5","midi":72,"time":53.9285930000002,"velocity":0.7559055118110236,"duration":0.6778276520833302},{"name":"E5","midi":76,"time":53.9285930000002,"velocity":0.7559055118110236,"duration":0.6778276520833302},{"name":"G5","midi":79,"time":53.9285930000002,"velocity":0.7559055118110236,"duration":0.6778276520833302},{"name":"F4","midi":65,"time":54.64287900000019,"velocity":0.7559055118110236,"duration":0.16889887708333617},{"name":"C5","midi":72,"time":54.64287900000019,"velocity":0.7559055118110236,"duration":0.16889887708333617},{"name":"F5","midi":77,"time":54.64287900000019,"velocity":0.7559055118110236,"duration":0.16889887708333617},{"name":"G4","midi":67,"time":54.821450500000196,"velocity":0.7559055118110236,"duration":0.16889887708333617},{"name":"G5","midi":79,"time":54.821450500000196,"velocity":0.7559055118110236,"duration":0.16889887708333617},{"name":"A4","midi":69,"time":55.0000220000002,"velocity":0.7559055118110236,"duration":0.5081847270833322},{"name":"F5","midi":77,"time":55.0000220000002,"velocity":0.7559055118110236,"duration":0.5081847270833322},{"name":"A5","midi":81,"time":55.0000220000002,"velocity":0.7559055118110236,"duration":0.5081847270833322},{"name":"G4","midi":67,"time":55.5357365000002,"velocity":0.7559055118110236,"duration":0.16889887708333617},{"name":"G5","midi":79,"time":55.5357365000002,"velocity":0.7559055118110236,"duration":0.16889887708333617},{"name":"F4","midi":65,"time":55.7143080000002,"velocity":0.7559055118110236,"duration":0.3385418020833342},{"name":"F5","midi":77,"time":55.7143080000002,"velocity":0.7559055118110236,"duration":0.3385418020833342},{"name":"E4","midi":64,"time":56.0714510000002,"velocity":0.7559055118110236,"duration":0.17782745208333495},{"name":"A4","midi":69,"time":56.0714510000002,"velocity":0.7559055118110236,"duration":0.17782745208333495},{"name":"C#5","midi":73,"time":56.0714510000002,"velocity":0.7559055118110236,"duration":0.17782745208333495},{"name":"E5","midi":76,"time":56.0714510000002,"velocity":0.7559055118110236,"duration":0.17782745208333495},{"name":"F4","midi":65,"time":56.4285940000002,"velocity":0.7559055118110236,"duration":0.17782745208333495},{"name":"A4","midi":69,"time":56.4285940000002,"velocity":0.7559055118110236,"duration":0.17782745208333495},{"name":"C#5","midi":73,"time":56.4285940000002,"velocity":0.7559055118110236,"duration":0.17782745208333495},{"name":"F5","midi":77,"time":56.4285940000002,"velocity":0.7559055118110236,"duration":0.17782745208333495},{"name":"E4","midi":64,"time":56.7857370000002,"velocity":0.7559055118110236,"duration":0.17782745208333495},{"name":"A4","midi":69,"time":56.7857370000002,"velocity":0.7559055118110236,"duration":0.17782745208333495},{"name":"C#5","midi":73,"time":56.7857370000002,"velocity":0.7559055118110236,"duration":0.17782745208333495},{"name":"E5","midi":76,"time":56.7857370000002,"velocity":0.7559055118110236,"duration":0.17782745208333495},{"name":"D4","midi":62,"time":57.142880000000204,"velocity":0.7559055118110236,"duration":0.2671132020833369},{"name":"F4","midi":65,"time":57.142880000000204,"velocity":0.7559055118110236,"duration":0.2671132020833369},{"name":"D5","midi":74,"time":57.142880000000204,"velocity":0.7559055118110236,"duration":0.2671132020833369},{"name":"E4","midi":64,"time":57.67859450000021,"velocity":0.7559055118110236,"duration":0.16889887708333617},{"name":"E5","midi":76,"time":57.67859450000021,"velocity":0.7559055118110236,"duration":0.16889887708333617},{"name":"E4","midi":64,"time":57.85716600000021,"velocity":0.7559055118110236,"duration":0.17782745208333495},{"name":"C#5","midi":73,"time":57.85716600000021,"velocity":0.7559055118110236,"duration":0.17782745208333495},{"name":"F4","midi":65,"time":58.21430900000021,"velocity":0.7559055118110236,"duration":1.0171135020833333},{"name":"A4","midi":69,"time":58.21430900000021,"velocity":0.7559055118110236,"duration":1.0171135020833333},{"name":"D5","midi":74,"time":58.21430900000021,"velocity":0.7559055118110236,"duration":1.0171135020833333},{"name":"D3","midi":50,"time":59.285738000000215,"velocity":0.3858267716535433,"duration":0.16889887708333617},{"name":"E3","midi":52,"time":59.46430950000022,"velocity":0.3858267716535433,"duration":0.16889887708333617},{"name":"F3","midi":53,"time":59.64288100000022,"velocity":0.3858267716535433,"duration":0.16889887708333617},{"name":"D3","midi":50,"time":59.82145250000023,"velocity":0.3858267716535433,"duration":0.16889887708333617},{"name":"F3","midi":53,"time":60.00002400000023,"velocity":0.3858267716535433,"duration":0.3385418020833342},{"name":"E3","midi":52,"time":60.35716700000023,"velocity":0.3858267716535433,"duration":0.16889887708333617},{"name":"F3","midi":53,"time":60.535738500000235,"velocity":0.3858267716535433,"duration":0.16889887708333617},{"name":"C3","midi":48,"time":60.71431000000024,"velocity":0.3858267716535433,"duration":0.16889887708333617},{"name":"E3","midi":52,"time":60.89288150000024,"velocity":0.3858267716535433,"duration":0.16889887708333617},{"name":"D3","midi":50,"time":61.07145300000025,"velocity":0.3858267716535433,"duration":0.3385418020833342},{"name":"D3","midi":50,"time":61.42859600000025,"velocity":0.3858267716535433,"duration":0.16889887708333617},{"name":"E3","midi":52,"time":61.60716750000025,"velocity":0.3858267716535433,"duration":0.16889887708333617},{"name":"F3","midi":53,"time":61.785739000000255,"velocity":0.3858267716535433,"duration":0.16889887708333617},{"name":"E3","midi":52,"time":61.96431050000026,"velocity":0.3858267716535433,"duration":0.16889887708333617},{"name":"F3","midi":53,"time":62.14288200000026,"velocity":0.3858267716535433,"duration":0.16889887708333617},{"name":"G3","midi":55,"time":62.32145350000027,"velocity":0.3858267716535433,"duration":0.16889887708333617},{"name":"A3","midi":57,"time":62.50002500000027,"velocity":0.3858267716535433,"duration":1.0171135020833333},{"name":"E3","midi":52,"time":62.85716800000027,"velocity":0.3858267716535433,"duration":0.3385418020833342},{"name":"A2","midi":45,"time":63.21431100000027,"velocity":0.3858267716535433,"duration":0.3385418020833342},{"name":"D3","midi":50,"time":63.57145400000027,"velocity":0.3858267716535433,"duration":0.16889887708333617},{"name":"E3","midi":52,"time":63.75002550000028,"velocity":0.3858267716535433,"duration":0.16889887708333617},{"name":"F3","midi":53,"time":63.92859700000028,"velocity":0.3858267716535433,"duration":0.16889887708333617},{"name":"E3","midi":52,"time":64.10716850000028,"velocity":0.3858267716535433,"duration":0.16889887708333617},{"name":"F3","midi":53,"time":64.28574000000029,"velocity":0.3858267716535433,"duration":0.33854180208332707},{"name":"E3","midi":52,"time":64.64288300000028,"velocity":0.3858267716535433,"duration":0.16889887708333617},{"name":"F3","midi":53,"time":64.82145450000029,"velocity":0.3858267716535433,"duration":0.16889887708333617},{"name":"C3","midi":48,"time":65.00002600000029,"velocity":0.3858267716535433,"duration":0.16889887708333617},{"name":"E3","midi":52,"time":65.1785975000003,"velocity":0.3858267716535433,"duration":0.16889887708333617},{"name":"D3","midi":50,"time":65.3571690000003,"velocity":0.3858267716535433,"duration":0.33854180208332707},{"name":"D3","midi":50,"time":65.71431200000029,"velocity":0.3858267716535433,"duration":0.16889887708333617},{"name":"E3","midi":52,"time":65.8928835000003,"velocity":0.3858267716535433,"duration":0.16889887708333617},{"name":"F3","midi":53,"time":66.0714550000003,"velocity":0.3858267716535433,"duration":0.16889887708333617},{"name":"E3","midi":52,"time":66.2500265000003,"velocity":0.3858267716535433,"duration":0.16889887708333617},{"name":"F3","midi":53,"time":66.4285980000003,"velocity":0.3858267716535433,"duration":0.16889887708333617},{"name":"G3","midi":55,"time":66.60716950000031,"velocity":0.3858267716535433,"duration":0.16889887708333617},{"name":"A3","midi":57,"time":66.78574100000031,"velocity":0.3858267716535433,"duration":1.017113502083319},{"name":"E3","midi":52,"time":67.14288400000031,"velocity":0.3858267716535433,"duration":0.33854180208332707},{"name":"C3","midi":48,"time":67.5000270000003,"velocity":0.3858267716535433,"duration":0.33854180208332707},{"name":"E3","midi":52,"time":67.8571700000003,"velocity":0.3858267716535433,"duration":1.017113502083319},{"name":"C3","midi":48,"time":68.21431300000029,"velocity":0.3858267716535433,"duration":0.33854180208332707},{"name":"A2","midi":45,"time":68.57145600000028,"velocity":0.3858267716535433,"duration":0.33854180208332707},{"name":"D3","midi":50,"time":68.92859900000028,"velocity":0.3858267716535433,"duration":4.07068615208334},{"name":"D3","midi":50,"time":73.21431500000028,"velocity":0.3858267716535433,"duration":0.17782745208333495},{"name":"G#3","midi":56,"time":73.21431500000028,"velocity":0.3858267716535433,"duration":1.0706849520833543},{"name":"E3","midi":52,"time":73.39288650000029,"velocity":0.3858267716535433,"duration":0.17782745208333495},{"name":"D3","midi":50,"time":73.57145800000029,"velocity":0.3858267716535433,"duration":0.17782745208333495},{"name":"E3","midi":52,"time":73.7500295000003,"velocity":0.3858267716535433,"duration":0.17782745208333495},{"name":"F3","midi":53,"time":73.9286010000003,"velocity":0.3858267716535433,"duration":0.3563989520833388},{"name":"D3","midi":50,"time":74.2857440000003,"velocity":0.3858267716535433,"duration":0.17782745208333495},{"name":"G#3","midi":56,"time":74.2857440000003,"velocity":0.3858267716535433,"duration":1.0706849520833543},{"name":"E3","midi":52,"time":74.46431550000031,"velocity":0.3858267716535433,"duration":0.17782745208333495},{"name":"D3","midi":50,"time":74.64288700000031,"velocity":0.3858267716535433,"duration":0.17782745208333495},{"name":"E3","midi":52,"time":74.82145850000032,"velocity":0.3858267716535433,"duration":0.17782745208333495},{"name":"F3","midi":53,"time":75.00003000000032,"velocity":0.3858267716535433,"duration":0.3563989520833388},{"name":"A3","midi":57,"time":75.35717300000033,"velocity":0.3858267716535433,"duration":5.088543702083328},{"name":"D3","midi":50,"time":80.71431800000032,"velocity":0.3858267716535433,"duration":0.16889887708333617},{"name":"A#3","midi":58,"time":80.71431800000032,"velocity":0.3858267716535433,"duration":2.034971052083364},{"name":"E3","midi":52,"time":80.89288950000032,"velocity":0.3858267716535433,"duration":0.16889887708333617},{"name":"D3","midi":50,"time":81.07146100000033,"velocity":0.3858267716535433,"duration":0.16889887708333617},{"name":"E3","midi":52,"time":81.25003250000033,"velocity":0.3858267716535433,"duration":0.16889887708333617},{"name":"F3","midi":53,"time":81.42860400000033,"velocity":0.3858267716535433,"duration":0.33854180208332707},{"name":"D3","midi":50,"time":81.78574700000033,"velocity":0.3858267716535433,"duration":0.16889887708333617},{"name":"E3","midi":52,"time":81.96431850000033,"velocity":0.3858267716535433,"duration":0.16889887708333617},{"name":"D3","midi":50,"time":82.14289000000034,"velocity":0.3858267716535433,"duration":0.16889887708333617},{"name":"E3","midi":52,"time":82.32146150000034,"velocity":0.3858267716535433,"duration":0.16889887708333617},{"name":"F3","midi":53,"time":82.50003300000034,"velocity":0.3858267716535433,"duration":2.3742569020833457},{"name":"F3","midi":53,"time":85.00003400000035,"velocity":0.6299212598425197,"duration":0.6778276520833373},{"name":"A3","midi":57,"time":85.00003400000035,"velocity":0.6299212598425197,"duration":0.6778276520833373},{"name":"D4","midi":62,"time":85.00003400000035,"velocity":0.6299212598425197,"duration":0.6778276520833373},{"name":"A3","midi":57,"time":85.71432000000036,"velocity":0.6299212598425197,"duration":0.3563989520833388},{"name":"D4","midi":62,"time":86.07146300000036,"velocity":0.6299212598425197,"duration":0.3563989520833388},{"name":"E3","midi":52,"time":86.42860600000037,"velocity":0.6299212598425197,"duration":0.6778276520833373},{"name":"A3","midi":57,"time":86.42860600000037,"velocity":0.6299212598425197,"duration":0.6778276520833373},{"name":"E4","midi":64,"time":86.42860600000037,"velocity":0.6299212598425197,"duration":0.6778276520833373},{"name":"A3","midi":57,"time":87.14289200000037,"velocity":0.6299212598425197,"duration":0.3563989520833388},{"name":"E4","midi":64,"time":87.50003500000038,"velocity":0.6299212598425197,"duration":0.3563989520833388},{"name":"F3","midi":53,"time":87.85717800000039,"velocity":0.6299212598425197,"duration":0.6778276520833373},{"name":"C4","midi":60,"time":87.85717800000039,"velocity":0.6299212598425197,"duration":0.6778276520833373},{"name":"F4","midi":65,"time":87.85717800000039,"velocity":0.6299212598425197,"duration":0.6778276520833373},{"name":"E4","midi":64,"time":88.57146400000039,"velocity":0.6299212598425197,"duration":0.3563989520833388},{"name":"D4","midi":62,"time":88.9286070000004,"velocity":0.6299212598425197,"duration":0.3563989520833388},{"name":"E3","midi":52,"time":89.2857500000004,"velocity":0.6299212598425197,"duration":1.3563993520833293},{"name":"A3","midi":57,"time":89.2857500000004,"velocity":0.6299212598425197,"duration":1.3563993520833293},{"name":"E4","midi":64,"time":89.2857500000004,"velocity":0.6299212598425197,"duration":1.3563993520833293},{"name":"A3","midi":57,"time":90.71432200000041,"velocity":0.6299212598425197,"duration":0.7135419520833466},{"name":"D4","midi":62,"time":90.76119701875041,"velocity":0.6299212598425197,"duration":0.665922885416677},{"name":"F4","midi":65,"time":90.80881608541708,"velocity":0.6299212598425197,"duration":0.6183038187500074},{"name":"A4","midi":69,"time":90.85717920000042,"velocity":0.6299212598425197,"duration":0.5706847520833378},{"name":"E4","midi":64,"time":91.42860800000042,"velocity":0.6299212598425197,"duration":0.33854180208332707},{"name":"D4","midi":62,"time":91.78575100000042,"velocity":0.6299212598425197,"duration":0.33854180208332707},{"name":"F3","midi":53,"time":92.14289400000041,"velocity":0.6299212598425197,"duration":0.6778276520833373},{"name":"A3","midi":57,"time":92.14289400000041,"velocity":0.6299212598425197,"duration":0.6778276520833373},{"name":"C4","midi":60,"time":92.14289400000041,"velocity":0.6299212598425197,"duration":0.6778276520833373},{"name":"F3","midi":53,"time":92.85718000000041,"velocity":0.6299212598425197,"duration":0.6778276520833373},{"name":"A3","midi":57,"time":92.85718000000041,"velocity":0.6299212598425197,"duration":0.6778276520833373},{"name":"G3","midi":55,"time":93.57146600000041,"velocity":0.6299212598425197,"duration":0.7135419520833324},{"name":"A#3","midi":58,"time":93.57146600000041,"velocity":0.6299212598425197,"duration":0.7135419520833324},{"name":"F3","midi":53,"time":94.28575200000041,"velocity":0.6299212598425197,"duration":0.3563989520833388},{"name":"G3","midi":55,"time":94.64289500000042,"velocity":0.6299212598425197,"duration":0.33854180208332707},{"name":"C#3","midi":49,"time":95.00003800000042,"velocity":0.6299212598425197,"duration":1.3563993520833293},{"name":"E3","midi":52,"time":95.00003800000042,"velocity":0.6299212598425197,"duration":1.3563993520833293},{"name":"A3","midi":57,"time":95.00003800000042,"velocity":0.6299212598425197,"duration":1.3563993520833293},{"name":"A4","midi":69,"time":96.42861000000042,"velocity":0.6299212598425197,"duration":1.3563993520833293},{"name":"A5","midi":81,"time":96.42861000000042,"velocity":0.6299212598425197,"duration":1.3563993520833293},{"name":"E5","midi":76,"time":97.85718200000042,"velocity":0.6299212598425197,"duration":1.3563993520833293},{"name":"E6","midi":88,"time":97.85718200000042,"velocity":0.6299212598425197,"duration":1.3563993520833293},{"name":"F5","midi":77,"time":99.28575400000042,"velocity":0.6299212598425197,"duration":0.6778276520833373},{"name":"D6","midi":86,"time":99.28575400000042,"velocity":0.6299212598425197,"duration":0.6778276520833373},{"name":"F6","midi":89,"time":99.28575400000042,"velocity":0.6299212598425197,"duration":0.6778276520833373},{"name":"G5","midi":79,"time":100.00004000000042,"velocity":0.6299212598425197,"duration":0.33854180208332707},{"name":"G6","midi":91,"time":100.00004000000042,"velocity":0.6299212598425197,"duration":0.33854180208332707},{"name":"A5","midi":81,"time":100.35718300000042,"velocity":0.6299212598425197,"duration":0.33854180208332707},{"name":"A6","midi":93,"time":100.35718300000042,"velocity":0.6299212598425197,"duration":0.33854180208332707},{"name":"A5","midi":81,"time":100.71432600000041,"velocity":0.6299212598425197,"duration":0.7135419520833466},{"name":"D6","midi":86,"time":100.76120101875041,"velocity":0.6299212598425197,"duration":0.665922885416677},{"name":"E6","midi":88,"time":100.80882008541708,"velocity":0.6299212598425197,"duration":0.6183038187500074},{"name":"A6","midi":93,"time":100.85718320000042,"velocity":0.6299212598425197,"duration":0.5706847520833378},{"name":"C#6","midi":85,"time":101.42861200000043,"velocity":0.6299212598425197,"duration":0.33854180208332707},{"name":"A3","midi":57,"time":101.78575500000042,"velocity":0.3858267716535433,"duration":0.17782745208333495},{"name":"B3","midi":59,"time":101.96432650000042,"velocity":0.3858267716535433,"duration":0.17782745208333495},{"name":"C4","midi":60,"time":102.14289800000043,"velocity":0.3858267716535433,"duration":1.0171135020833333},{"name":"D4","midi":62,"time":103.21432700000042,"velocity":0.4330708661417323,"duration":0.17782745208333495},{"name":"E4","midi":64,"time":103.39289850000043,"velocity":0.4409448818897638,"duration":0.17782745208333495},{"name":"D4","midi":62,"time":103.57147000000043,"velocity":0.44881889763779526,"duration":0.5081847270833322},{"name":"B3","midi":59,"time":104.10718450000043,"velocity":0.47244094488188976,"duration":0.08407741458333362},{"name":"B3","midi":59,"time":104.19647025000043,"velocity":0.47244094488188976,"duration":0.08407741458333362},{"name":"B3","midi":59,"time":104.28575600000043,"velocity":0.48031496062992124,"duration":0.33854180208332707},{"name":"C4","midi":60,"time":104.64289900000043,"velocity":0.49606299212598426,"duration":0.17782745208333495},{"name":"B3","midi":59,"time":104.82147050000043,"velocity":0.5039370078740157,"duration":0.17782745208333495},{"name":"G3","midi":55,"time":105.00004200000043,"velocity":0.5039370078740157,"duration":0.5081847270833322},{"name":"C4","midi":60,"time":105.00004200000043,"velocity":0.5039370078740157,"duration":0.5081847270833322},{"name":"G3","midi":55,"time":105.53575650000043,"velocity":0.5275590551181102,"duration":0.08407741458333362},{"name":"G3","midi":55,"time":105.62504225000043,"velocity":0.5354330708661418,"duration":0.08407741458333362},{"name":"G3","midi":55,"time":105.71432800000044,"velocity":0.5354330708661418,"duration":0.33854180208332707},{"name":"D4","midi":62,"time":106.07147100000043,"velocity":0.5511811023622047,"duration":0.17782745208333495},{"name":"E4","midi":64,"time":106.25004250000043,"velocity":0.5590551181102362,"duration":0.17782745208333495},{"name":"B3","midi":59,"time":106.42861400000044,"velocity":0.5669291338582677,"duration":0.5081847270833322},{"name":"D4","midi":62,"time":106.42861400000044,"velocity":0.5669291338582677,"duration":0.5081847270833322},{"name":"B3","midi":59,"time":106.96432850000043,"velocity":0.5905511811023622,"duration":0.08407741458333362},{"name":"B3","midi":59,"time":107.05361425000044,"velocity":0.5905511811023622,"duration":0.08407741458333362},{"name":"B3","midi":59,"time":107.14290000000044,"velocity":0.5984251968503937,"duration":0.33854180208332707},{"name":"C4","midi":60,"time":107.50004300000043,"velocity":0.6141732283464567,"duration":0.17782745208333495},{"name":"D4","midi":62,"time":107.67861450000044,"velocity":0.6220472440944882,"duration":0.17782745208333495},{"name":"C4","midi":60,"time":107.85718600000044,"velocity":0.6299212598425197,"duration":0.5081847270833322},{"name":"E4","midi":64,"time":107.85718600000044,"velocity":0.6299212598425197,"duration":0.5081847270833322},{"name":"C4","midi":60,"time":108.39290050000044,"velocity":0.6299212598425197,"duration":0.08407741458333362},{"name":"C4","midi":60,"time":108.48218625000044,"velocity":0.6299212598425197,"duration":0.08407741458333362},{"name":"C4","midi":60,"time":108.57147200000044,"velocity":0.6299212598425197,"duration":0.33854180208332707},{"name":"D4","midi":62,"time":108.92861500000043,"velocity":0.6299212598425197,"duration":0.17782745208333495},{"name":"C4","midi":60,"time":109.10718650000044,"velocity":0.6299212598425197,"duration":0.17782745208333495},{"name":"B3","midi":59,"time":109.28575800000044,"velocity":0.6299212598425197,"duration":0.5081847270833322},{"name":"G#3","midi":56,"time":109.82147250000044,"velocity":0.6299212598425197,"duration":0.08407741458333362},{"name":"G#3","midi":56,"time":109.91075825000044,"velocity":0.6299212598425197,"duration":0.08407741458333362},{"name":"G#3","midi":56,"time":110.00004400000044,"velocity":0.6299212598425197,"duration":0.33854180208332707},{"name":"A3","midi":57,"time":110.35718700000044,"velocity":0.6299212598425197,"duration":0.17782745208333495},{"name":"G3","midi":55,"time":110.53575850000044,"velocity":0.6299212598425197,"duration":0.17782745208333495},{"name":"F3","midi":53,"time":110.71433000000044,"velocity":0.6299212598425197,"duration":0.6778276520833373},{"name":"A3","midi":57,"time":110.71433000000044,"velocity":0.6299212598425197,"duration":0.6778276520833373},{"name":"B3","midi":59,"time":111.42861600000045,"velocity":0.6299212598425197,"duration":0.16889887708333617},{"name":"G3","midi":55,"time":111.60718750000045,"velocity":0.6299212598425197,"duration":0.5081847270833322},{"name":"A3","midi":57,"time":112.14290200000045,"velocity":0.6299212598425197,"duration":1.0171135020833333},{"name":"A3","midi":57,"time":113.21433100000044,"velocity":0.6299212598425197,"duration":0.16889887708333617},{"name":"A4","midi":69,"time":113.21433100000044,"velocity":0.6299212598425197,"duration":0.16889887708333617},{"name":"B3","midi":59,"time":113.39290250000045,"velocity":0.6299212598425197,"duration":0.16889887708333617},{"name":"B4","midi":71,"time":113.39290250000045,"velocity":0.6299212598425197,"duration":0.16889887708333617},{"name":"C4","midi":60,"time":113.57147400000045,"velocity":0.7559055118110236,"duration":0.5081847270833322},{"name":"E4","midi":64,"time":113.57147400000045,"velocity":0.7559055118110236,"duration":0.5081847270833322},{"name":"C5","midi":72,"time":113.57147400000045,"velocity":0.7559055118110236,"duration":0.5081847270833322},{"name":"C4","midi":60,"time":114.10718850000045,"velocity":0.7559055118110236,"duration":0.08407741458333362},{"name":"E4","midi":64,"time":114.10718850000045,"velocity":0.7559055118110236,"duration":0.08407741458333362},{"name":"C4","midi":60,"time":114.19647425000045,"velocity":0.7559055118110236,"duration":0.08407741458333362},{"name":"E4","midi":64,"time":114.19647425000045,"velocity":0.7559055118110236,"duration":0.08407741458333362},{"name":"C4","midi":60,"time":114.28576000000045,"velocity":0.7559055118110236,"duration":0.33854180208332707},{"name":"E4","midi":64,"time":114.28576000000045,"velocity":0.7559055118110236,"duration":0.33854180208332707},{"name":"B3","midi":59,"time":114.64290300000044,"velocity":0.7559055118110236,"duration":0.16889887708333617},{"name":"B4","midi":71,"time":114.64290300000044,"velocity":0.7559055118110236,"duration":0.16889887708333617},{"name":"C4","midi":60,"time":114.82147450000045,"velocity":0.7559055118110236,"duration":0.16889887708333617},{"name":"C5","midi":72,"time":114.82147450000045,"velocity":0.7559055118110236,"duration":0.16889887708333617},{"name":"D4","midi":62,"time":115.00004600000045,"velocity":0.7559055118110236,"duration":0.5349704520833427},{"name":"G4","midi":67,"time":115.04692101875045,"velocity":0.7559055118110236,"duration":0.4873513854166731},{"name":"B4","midi":71,"time":115.09454008541712,"velocity":0.7559055118110236,"duration":0.4397323187500035},{"name":"D5","midi":74,"time":115.14215915208379,"velocity":0.7559055118110236,"duration":0.3921132520833339},{"name":"D4","midi":62,"time":115.53576050000046,"velocity":0.7559055118110236,"duration":0.08407741458333362},{"name":"G4","midi":67,"time":115.53576050000046,"velocity":0.7559055118110236,"duration":0.08407741458333362},{"name":"B4","midi":71,"time":115.53576050000046,"velocity":0.7559055118110236,"duration":0.08407741458333362},{"name":"D4","midi":62,"time":115.62504625000047,"velocity":0.7559055118110236,"duration":0.08407741458333362},{"name":"G4","midi":67,"time":115.62504625000047,"velocity":0.7559055118110236,"duration":0.08407741458333362},{"name":"B4","midi":71,"time":115.62504625000047,"velocity":0.7559055118110236,"duration":0.08407741458333362},{"name":"D4","midi":62,"time":115.71433200000047,"velocity":0.7559055118110236,"duration":0.33854180208332707},{"name":"G4","midi":67,"time":115.71433200000047,"velocity":0.7559055118110236,"duration":0.33854180208332707},{"name":"B4","midi":71,"time":115.71433200000047,"velocity":0.7559055118110236,"duration":0.33854180208332707},{"name":"C4","midi":60,"time":116.07147500000046,"velocity":0.7559055118110236,"duration":0.16889887708333617},{"name":"C5","midi":72,"time":116.07147500000046,"velocity":0.7559055118110236,"duration":0.16889887708333617},{"name":"D4","midi":62,"time":116.25004650000047,"velocity":0.7559055118110236,"duration":0.16889887708333617},{"name":"D5","midi":74,"time":116.25004650000047,"velocity":0.7559055118110236,"duration":0.16889887708333617},{"name":"E4","midi":64,"time":116.42861800000047,"velocity":0.7559055118110236,"duration":0.7135419520833466},{"name":"G4","midi":67,"time":116.47549301875047,"velocity":0.7559055118110236,"duration":0.665922885416677},{"name":"C5","midi":72,"time":116.52311208541714,"velocity":0.7559055118110236,"duration":0.6183038187500074},{"name":"E5","midi":76,"time":116.57147520000048,"velocity":0.7559055118110236,"duration":0.5706847520833378},{"name":"F4","midi":65,"time":117.14290400000048,"velocity":0.7559055118110236,"duration":0.17782745208333495},{"name":"A4","midi":69,"time":117.14290400000048,"velocity":0.7559055118110236,"duration":0.17782745208333495},{"name":"C5","midi":72,"time":117.14290400000048,"velocity":0.7559055118110236,"duration":0.17782745208333495},{"name":"F5","midi":77,"time":117.14290400000048,"velocity":0.7559055118110236,"duration":0.17782745208333495},{"name":"C4","midi":60,"time":117.50004700000049,"velocity":0.7559055118110236,"duration":0.17782745208333495},{"name":"E4","midi":64,"time":117.50004700000049,"velocity":0.7559055118110236,"duration":0.17782745208333495},{"name":"G4","midi":67,"time":117.50004700000049,"velocity":0.7559055118110236,"duration":0.17782745208333495},{"name":"C5","midi":72,"time":117.50004700000049,"velocity":0.7559055118110236,"duration":0.17782745208333495},{"name":"C4","midi":60,"time":117.8571900000005,"velocity":0.7559055118110236,"duration":0.5081847270833322},{"name":"F4","midi":65,"time":117.8571900000005,"velocity":0.7559055118110236,"duration":0.5081847270833322},{"name":"A4","midi":69,"time":117.8571900000005,"velocity":0.7559055118110236,"duration":0.5081847270833322},{"name":"A3","midi":57,"time":118.3929045000005,"velocity":0.7559055118110236,"duration":0.08407741458333362},{"name":"C4","midi":60,"time":118.3929045000005,"velocity":0.7559055118110236,"duration":0.08407741458333362},{"name":"A3","midi":57,"time":118.4821902500005,"velocity":0.7559055118110236,"duration":0.08407741458333362},{"name":"C4","midi":60,"time":118.4821902500005,"velocity":0.7559055118110236,"duration":0.08407741458333362},{"name":"A3","midi":57,"time":118.5714760000005,"velocity":0.7559055118110236,"duration":0.33854180208332707},{"name":"C4","midi":60,"time":118.5714760000005,"velocity":0.7559055118110236,"duration":0.33854180208332707},{"name":"A3","midi":57,"time":118.9286190000005,"velocity":0.7559055118110236,"duration":0.33854180208332707},{"name":"A4","midi":69,"time":118.9286190000005,"velocity":0.7559055118110236,"duration":0.33854180208332707},{"name":"B3","midi":59,"time":119.28576200000049,"velocity":0.7559055118110236,"duration":0.33854180208332707},{"name":"B4","midi":71,"time":119.28576200000049,"velocity":0.7559055118110236,"duration":0.33854180208332707},{"name":"C4","midi":60,"time":119.64290500000048,"velocity":0.7559055118110236,"duration":0.7135419520833466},{"name":"E4","midi":64,"time":119.68978001875048,"velocity":0.7559055118110236,"duration":0.665922885416677},{"name":"A4","midi":69,"time":119.73739908541715,"velocity":0.7559055118110236,"duration":0.6183038187500074},{"name":"C5","midi":72,"time":119.78576220000049,"velocity":0.7559055118110236,"duration":0.5706847520833378},{"name":"D4","midi":62,"time":120.3571910000005,"velocity":0.5039370078740157,"duration":0.33854180208332707},{"name":"D5","midi":74,"time":120.3571910000005,"velocity":0.5039370078740157,"duration":0.33854180208332707},{"name":"E4","midi":64,"time":120.71433400000049,"velocity":0.5039370078740157,"duration":0.33854180208332707},{"name":"E5","midi":76,"time":120.71433400000049,"velocity":0.5039370078740157,"duration":0.33854180208332707},{"name":"F4","midi":65,"time":121.07147700000048,"velocity":0.5039370078740157,"duration":0.7135419520833466},{"name":"A4","midi":69,"time":121.11835201875049,"velocity":0.5039370078740157,"duration":0.665922885416677},{"name":"C5","midi":72,"time":121.16597108541715,"velocity":0.5039370078740157,"duration":0.6183038187500074},{"name":"F5","midi":77,"time":121.2143342000005,"velocity":0.5039370078740157,"duration":0.5706847520833378},{"name":"A4","midi":69,"time":121.7857630000005,"velocity":0.5039370078740157,"duration":0.33854180208332707},{"name":"D4","midi":62,"time":122.1429060000005,"velocity":0.5039370078740157,"duration":0.33854180208332707},{"name":"F4","midi":65,"time":122.1429060000005,"velocity":0.5039370078740157,"duration":0.33854180208332707},{"name":"A4","midi":69,"time":122.1429060000005,"velocity":0.5039370078740157,"duration":0.33854180208332707},{"name":"D5","midi":74,"time":122.1429060000005,"velocity":0.5039370078740157,"duration":0.33854180208332707},{"name":"C5","midi":72,"time":122.50004900000049,"velocity":0.5039370078740157,"duration":0.5349704520833285},{"name":"D5","midi":74,"time":123.03576350000048,"velocity":0.5039370078740157,"duration":0.17782745208333495},{"name":"B4","midi":71,"time":123.21433500000049,"velocity":0.5039370078740157,"duration":0.6778276520833373},{"name":"A4","midi":69,"time":123.92862100000049,"velocity":0.5039370078740157,"duration":0.33854180208332707},{"name":"G#4","midi":68,"time":124.28576400000048,"velocity":0.5039370078740157,"duration":0.33854180208332707},{"name":"A3","midi":57,"time":124.64290700000048,"velocity":0.5039370078740157,"duration":0.3563989520833388},{"name":"C#4","midi":61,"time":124.68978201875048,"velocity":0.5039370078740157,"duration":0.30877988541666923},{"name":"E4","midi":64,"time":124.73740108541715,"velocity":0.5039370078740157,"duration":0.26116081874999963},{"name":"A4","midi":69,"time":124.78576420000049,"velocity":0.5039370078740157,"duration":0.21354175208333004},{"name":"G4","midi":67,"time":125.00005000000048,"velocity":0.5039370078740157,"duration":0.33854180208332707},{"name":"F4","midi":65,"time":125.35719300000048,"velocity":0.5039370078740157,"duration":0.16889887708333617},{"name":"G4","midi":67,"time":125.53576450000048,"velocity":0.5039370078740157,"duration":0.16889887708333617},{"name":"E4","midi":64,"time":125.71433600000049,"velocity":0.5039370078740157,"duration":0.16889887708333617},{"name":"G4","midi":67,"time":125.89290750000049,"velocity":0.5039370078740157,"duration":0.16889887708333617},{"name":"D4","midi":62,"time":126.0714790000005,"velocity":0.5039370078740157,"duration":0.16889887708333617},{"name":"G4","midi":67,"time":126.2500505000005,"velocity":0.5039370078740157,"duration":0.16889887708333617},{"name":"C#4","midi":61,"time":126.4286220000005,"velocity":0.5039370078740157,"duration":0.16889887708333617},{"name":"G4","midi":67,"time":126.6071935000005,"velocity":0.5039370078740157,"duration":0.16889887708333617},{"name":"A#3","midi":58,"time":126.78576500000051,"velocity":0.5039370078740157,"duration":0.16889887708333617},{"name":"E4","midi":64,"time":126.96433650000051,"velocity":0.5039370078740157,"duration":0.16889887708333617},{"name":"A3","midi":57,"time":127.14290800000052,"velocity":0.5039370078740157,"duration":0.16889887708333617},{"name":"E4","midi":64,"time":127.32147950000052,"velocity":0.5039370078740157,"duration":0.16889887708333617},{"name":"G3","midi":55,"time":127.50005100000052,"velocity":0.5039370078740157,"duration":0.16889887708333617},{"name":"D4","midi":62,"time":127.67862250000053,"velocity":0.5039370078740157,"duration":0.16889887708333617},{"name":"F3","midi":53,"time":127.85719400000053,"velocity":0.5039370078740157,"duration":0.16889887708333617},{"name":"D4","midi":62,"time":128.03576550000054,"velocity":0.5039370078740157,"duration":0.16889887708333617},{"name":"E3","midi":52,"time":128.21433700000054,"velocity":0.5039370078740157,"duration":0.16889887708333617},{"name":"D4","midi":62,"time":128.39290850000054,"velocity":0.5039370078740157,"duration":0.16889887708333617},{"name":"D3","midi":50,"time":128.57148000000055,"velocity":0.6299212598425197,"duration":0.16889887708333617},{"name":"D3","midi":50,"time":128.92862300000056,"velocity":0.6299212598425197,"duration":0.16889887708333617},{"name":"D3","midi":50,"time":129.10719450000056,"velocity":0.6299212598425197,"duration":0.16889887708333617},{"name":"D3","midi":50,"time":129.46433750000057,"velocity":0.6299212598425197,"duration":0.16889887708333617},{"name":"D3","midi":50,"time":129.64290900000057,"velocity":0.6299212598425197,"duration":0.16889887708333617},{"name":"D3","midi":50,"time":130.00005200000058,"velocity":0.6299212598425197,"duration":0.16889887708333617},{"name":"D3","midi":50,"time":130.17862350000058,"velocity":0.6299212598425197,"duration":0.16889887708333617},{"name":"D3","midi":50,"time":130.3571950000006,"velocity":0.6299212598425197,"duration":0.16889887708333617},{"name":"D3","midi":50,"time":130.5357665000006,"velocity":0.6299212598425197,"duration":0.16889887708333617},{"name":"D3","midi":50,"time":130.7143380000006,"velocity":0.6299212598425197,"duration":0.16889887708333617},{"name":"D3","midi":50,"time":131.0714810000006,"velocity":0.6299212598425197,"duration":0.16889887708333617},{"name":"D3","midi":50,"time":131.2500525000006,"velocity":0.6299212598425197,"duration":0.16889887708333617},{"name":"D3","midi":50,"time":131.6071955000006,"velocity":0.6299212598425197,"duration":0.16889887708333617},{"name":"D3","midi":50,"time":131.78576700000062,"velocity":0.6299212598425197,"duration":0.16889887708333617},{"name":"D3","midi":50,"time":132.14291000000063,"velocity":0.6299212598425197,"duration":0.16889887708333617},{"name":"D3","midi":50,"time":132.32148150000063,"velocity":0.6299212598425197,"duration":0.16889887708333617},{"name":"D3","midi":50,"time":132.50005300000063,"velocity":0.6299212598425197,"duration":0.16889887708333617},{"name":"D3","midi":50,"time":132.67862450000064,"velocity":0.6299212598425197,"duration":0.16889887708333617},{"name":"D3","midi":50,"time":132.85719600000064,"velocity":0.6299212598425197,"duration":0.16889887708333617},{"name":"D3","midi":50,"time":133.21433900000065,"velocity":0.6299212598425197,"duration":0.16889887708333617},{"name":"D3","midi":50,"time":133.39291050000065,"velocity":0.6299212598425197,"duration":0.16889887708333617},{"name":"D3","midi":50,"time":133.75005350000066,"velocity":0.6299212598425197,"duration":0.16889887708333617},{"name":"D3","midi":50,"time":133.92862500000066,"velocity":0.6299212598425197,"duration":0.16889887708333617},{"name":"D3","midi":50,"time":134.28576800000067,"velocity":0.6299212598425197,"duration":0.16889887708333617},{"name":"D3","midi":50,"time":134.46433950000068,"velocity":0.6299212598425197,"duration":0.16889887708333617},{"name":"A3","midi":57,"time":134.64291100000068,"velocity":0.6299212598425197,"duration":0.16889887708333617},{"name":"C4","midi":60,"time":134.82148250000068,"velocity":0.6299212598425197,"duration":0.16889887708333617},{"name":"F3","midi":53,"time":135.0000540000007,"velocity":0.7559055118110236,"duration":0.3385418020833413},{"name":"A3","midi":57,"time":135.0000540000007,"velocity":0.7559055118110236,"duration":0.3385418020833413},{"name":"D4","midi":62,"time":135.0000540000007,"velocity":0.7559055118110236,"duration":0.3385418020833413},{"name":"F3","midi":53,"time":135.3571970000007,"velocity":0.7559055118110236,"duration":0.3385418020833413},{"name":"A3","midi":57,"time":135.3571970000007,"velocity":0.7559055118110236,"duration":0.3385418020833413},{"name":"D4","midi":62,"time":135.3571970000007,"velocity":0.7559055118110236,"duration":0.3385418020833413},{"name":"F3","midi":53,"time":135.7143400000007,"velocity":0.7559055118110236,"duration":0.16889887708333617},{"name":"A3","midi":57,"time":135.7143400000007,"velocity":0.7559055118110236,"duration":0.16889887708333617},{"name":"D4","midi":62,"time":135.7143400000007,"velocity":0.7559055118110236,"duration":0.16889887708333617},{"name":"E4","midi":64,"time":135.8929115000007,"velocity":0.7559055118110236,"duration":0.16889887708333617},{"name":"F3","midi":53,"time":136.0714830000007,"velocity":0.7559055118110236,"duration":0.3385418020833413},{"name":"A#3","midi":58,"time":136.0714830000007,"velocity":0.7559055118110236,"duration":0.3385418020833413},{"name":"D4","midi":62,"time":136.0714830000007,"velocity":0.7559055118110236,"duration":0.3385418020833413},{"name":"F4","midi":65,"time":136.0714830000007,"velocity":0.7559055118110236,"duration":0.3385418020833413},{"name":"F3","midi":53,"time":136.42862600000072,"velocity":0.7559055118110236,"duration":0.3385418020833413},{"name":"A#3","midi":58,"time":136.42862600000072,"velocity":0.7559055118110236,"duration":0.3385418020833413},{"name":"D4","midi":62,"time":136.42862600000072,"velocity":0.7559055118110236,"duration":0.3385418020833413},{"name":"F4","midi":65,"time":136.42862600000072,"velocity":0.7559055118110236,"duration":0.3385418020833413},{"name":"F3","midi":53,"time":136.78576900000073,"velocity":0.7559055118110236,"duration":0.16889887708333617},{"name":"A#3","midi":58,"time":136.78576900000073,"velocity":0.7559055118110236,"duration":0.16889887708333617},{"name":"D4","midi":62,"time":136.78576900000073,"velocity":0.7559055118110236,"duration":0.16889887708333617},{"name":"F4","midi":65,"time":136.78576900000073,"velocity":0.7559055118110236,"duration":0.16889887708333617},{"name":"G3","midi":55,"time":136.96434050000073,"velocity":0.7559055118110236,"duration":0.16889887708333617},{"name":"G4","midi":67,"time":136.96434050000073,"velocity":0.7559055118110236,"duration":0.16889887708333617},{"name":"E3","midi":52,"time":137.14291200000073,"velocity":0.7559055118110236,"duration":0.3385418020833413},{"name":"A3","midi":57,"time":137.14291200000073,"velocity":0.7559055118110236,"duration":0.3385418020833413},{"name":"C4","midi":60,"time":137.14291200000073,"velocity":0.7559055118110236,"duration":0.3385418020833413},{"name":"E4","midi":64,"time":137.14291200000073,"velocity":0.7559055118110236,"duration":0.3385418020833413},{"name":"E3","midi":52,"time":137.50005500000074,"velocity":0.7559055118110236,"duration":0.3385418020833413},{"name":"A3","midi":57,"time":137.50005500000074,"velocity":0.7559055118110236,"duration":0.3385418020833413},{"name":"C4","midi":60,"time":137.50005500000074,"velocity":0.7559055118110236,"duration":0.3385418020833413},{"name":"E4","midi":64,"time":137.50005500000074,"velocity":0.7559055118110236,"duration":0.3385418020833413},{"name":"F3","midi":53,"time":137.85719800000075,"velocity":0.7559055118110236,"duration":0.16889887708333617},{"name":"A3","midi":57,"time":137.85719800000075,"velocity":0.7559055118110236,"duration":0.16889887708333617},{"name":"D4","midi":62,"time":137.85719800000075,"velocity":0.7559055118110236,"duration":0.16889887708333617},{"name":"C4","midi":60,"time":138.03576950000075,"velocity":0.7559055118110236,"duration":0.16889887708333617},{"name":"G3","midi":55,"time":138.21434100000076,"velocity":0.7559055118110236,"duration":0.16889887708333617},{"name":"C4","midi":60,"time":138.21434100000076,"velocity":0.7559055118110236,"duration":0.16889887708333617},{"name":"F3","midi":53,"time":138.39291250000076,"velocity":0.7559055118110236,"duration":0.3385418020833413},{"name":"A3","midi":57,"time":138.39291250000076,"velocity":0.7559055118110236,"duration":0.3385418020833413},{"name":"D4","midi":62,"time":138.39291250000076,"velocity":0.7559055118110236,"duration":0.3385418020833413},{"name":"A3","midi":57,"time":138.92862700000077,"velocity":0.7559055118110236,"duration":0.16889887708333617},{"name":"C4","midi":60,"time":139.10719850000078,"velocity":0.7559055118110236,"duration":0.16889887708333617},{"name":"F3","midi":53,"time":139.28577000000078,"velocity":0.7559055118110236,"duration":0.3385418020833413},{"name":"A#3","midi":58,"time":139.28577000000078,"velocity":0.7559055118110236,"duration":0.3385418020833413},{"name":"D4","midi":62,"time":139.28577000000078,"velocity":0.7559055118110236,"duration":0.3385418020833413},{"name":"F3","midi":53,"time":139.6429130000008,"velocity":0.7559055118110236,"duration":0.3385418020833413},{"name":"A#3","midi":58,"time":139.6429130000008,"velocity":0.7559055118110236,"duration":0.3385418020833413},{"name":"D4","midi":62,"time":139.6429130000008,"velocity":0.7559055118110236,"duration":0.3385418020833413},{"name":"F3","midi":53,"time":140.0000560000008,"velocity":0.7559055118110236,"duration":0.16889887708333617},{"name":"A#3","midi":58,"time":140.0000560000008,"velocity":0.7559055118110236,"duration":0.16889887708333617},{"name":"D4","midi":62,"time":140.0000560000008,"velocity":0.7559055118110236,"duration":0.16889887708333617},{"name":"E4","midi":64,"time":140.1786275000008,"velocity":0.7559055118110236,"duration":0.16889887708333617},{"name":"A3","midi":57,"time":140.3571990000008,"velocity":0.7559055118110236,"duration":0.3385418020833413},{"name":"C4","midi":60,"time":140.3571990000008,"velocity":0.7559055118110236,"duration":0.3385418020833413},{"name":"F4","midi":65,"time":140.3571990000008,"velocity":0.7559055118110236,"duration":0.3385418020833413},{"name":"A3","midi":57,"time":140.7143420000008,"velocity":0.7559055118110236,"duration":0.3385418020833413},{"name":"C4","midi":60,"time":140.7143420000008,"velocity":0.7559055118110236,"duration":0.3385418020833413},{"name":"F4","midi":65,"time":140.7143420000008,"velocity":0.7559055118110236,"duration":0.3385418020833413},{"name":"A3","midi":57,"time":141.07148500000082,"velocity":0.7559055118110236,"duration":0.16889887708333617},{"name":"C4","midi":60,"time":141.07148500000082,"velocity":0.7559055118110236,"duration":0.16889887708333617},{"name":"F4","midi":65,"time":141.07148500000082,"velocity":0.7559055118110236,"duration":0.16889887708333617},{"name":"G4","midi":67,"time":141.25005650000082,"velocity":0.7559055118110236,"duration":0.16889887708333617},{"name":"G3","midi":55,"time":141.42862800000083,"velocity":0.7559055118110236,"duration":0.3385418020833413},{"name":"C4","midi":60,"time":141.42862800000083,"velocity":0.7559055118110236,"duration":0.3385418020833413},{"name":"E4","midi":64,"time":141.42862800000083,"velocity":0.7559055118110236,"duration":0.3385418020833413},{"name":"G3","midi":55,"time":141.78577100000084,"velocity":0.7559055118110236,"duration":0.3385418020833413},{"name":"E4","midi":64,"time":141.78577100000084,"velocity":0.7559055118110236,"duration":0.3385418020833413},{"name":"F3","midi":53,"time":142.14291400000084,"velocity":0.7559055118110236,"duration":0.16889887708333617},{"name":"D4","midi":62,"time":142.14291400000084,"velocity":0.7559055118110236,"duration":0.16889887708333617},{"name":"C4","midi":60,"time":142.32148550000085,"velocity":0.7559055118110236,"duration":0.16889887708333617},{"name":"F3","midi":53,"time":142.50005700000085,"velocity":0.7559055118110236,"duration":0.5081847270833464},{"name":"A3","midi":57,"time":142.50005700000085,"velocity":0.7559055118110236,"duration":0.5081847270833464},{"name":"D4","midi":62,"time":142.50005700000085,"velocity":0.7559055118110236,"duration":0.5081847270833464},{"name":"A3","midi":57,"time":143.21434300000087,"velocity":0.7559055118110236,"duration":0.16889887708333617},{"name":"C4","midi":60,"time":143.39291450000087,"velocity":0.7559055118110236,"duration":0.16889887708333617},{"name":"F3","midi":53,"time":143.57148600000087,"velocity":0.7559055118110236,"duration":0.3385418020833413},{"name":"A3","midi":57,"time":143.57148600000087,"velocity":0.7559055118110236,"duration":0.3385418020833413},{"name":"D4","midi":62,"time":143.57148600000087,"velocity":0.7559055118110236,"duration":0.3385418020833413},{"name":"F3","midi":53,"time":143.92862900000088,"velocity":0.7559055118110236,"duration":0.3385418020833413},{"name":"A3","midi":57,"time":143.92862900000088,"velocity":0.7559055118110236,"duration":0.3385418020833413},{"name":"D4","midi":62,"time":143.92862900000088,"velocity":0.7559055118110236,"duration":0.3385418020833413},{"name":"F3","midi":53,"time":144.2857720000009,"velocity":0.7559055118110236,"duration":0.16889887708333617},{"name":"A3","midi":57,"time":144.2857720000009,"velocity":0.7559055118110236,"duration":0.16889887708333617},{"name":"D4","midi":62,"time":144.2857720000009,"velocity":0.7559055118110236,"duration":0.16889887708333617},{"name":"F4","midi":65,"time":144.4643435000009,"velocity":0.7559055118110236,"duration":0.16889887708333617},{"name":"D4","midi":62,"time":144.6429150000009,"velocity":0.7559055118110236,"duration":0.3385418020833413},{"name":"G4","midi":67,"time":144.6429150000009,"velocity":0.7559055118110236,"duration":0.3385418020833413},{"name":"G4","midi":67,"time":145.0000580000009,"velocity":0.7559055118110236,"duration":0.3385418020833413},{"name":"D4","midi":62,"time":145.3572010000009,"velocity":0.7559055118110236,"duration":0.16889887708333617},{"name":"G4","midi":67,"time":145.3572010000009,"velocity":0.7559055118110236,"duration":0.16889887708333617},{"name":"A4","midi":69,"time":145.53577250000092,"velocity":0.7559055118110236,"duration":0.16889887708333617},{"name":"D4","midi":62,"time":145.71434400000092,"velocity":0.7559055118110236,"duration":0.3385418020833413},{"name":"G4","midi":67,"time":145.71434400000092,"velocity":0.7559055118110236,"duration":0.3385418020833413},{"name":"A#4","midi":70,"time":145.71434400000092,"velocity":0.7559055118110236,"duration":0.3385418020833413},{"name":"D4","midi":62,"time":146.07148700000093,"velocity":0.7559055118110236,"duration":0.3385418020833413},{"name":"G4","midi":67,"time":146.07148700000093,"velocity":0.7559055118110236,"duration":0.3385418020833413},{"name":"A#4","midi":70,"time":146.07148700000093,"velocity":0.7559055118110236,"duration":0.3385418020833413},{"name":"D4","midi":62,"time":146.42863000000094,"velocity":0.7559055118110236,"duration":0.16889887708333617},{"name":"A4","midi":69,"time":146.42863000000094,"velocity":0.7559055118110236,"duration":0.16889887708333617},{"name":"G4","midi":67,"time":146.60720150000094,"velocity":0.7559055118110236,"duration":0.16889887708333617},{"name":"D4","midi":62,"time":146.78577300000094,"velocity":0.7559055118110236,"duration":0.16889887708333617},{"name":"A4","midi":69,"time":146.78577300000094,"velocity":0.7559055118110236,"duration":0.16889887708333617},{"name":"D4","midi":62,"time":146.96434450000095,"velocity":0.7559055118110236,"duration":0.3385418020833413},{"name":"D4","midi":62,"time":147.50005900000096,"velocity":0.7559055118110236,"duration":0.16889887708333617},{"name":"E4","midi":64,"time":147.67863050000096,"velocity":0.7559055118110236,"duration":0.16889887708333617},{"name":"A#3","midi":58,"time":147.85720200000097,"velocity":0.7559055118110236,"duration":0.3385418020833413},{"name":"D4","midi":62,"time":147.85720200000097,"velocity":0.7559055118110236,"duration":0.3385418020833413},{"name":"F4","midi":65,"time":147.85720200000097,"velocity":0.7559055118110236,"duration":0.3385418020833413},{"name":"A#3","midi":58,"time":148.21434500000098,"velocity":0.7559055118110236,"duration":0.3385418020833413},{"name":"D4","midi":62,"time":148.21434500000098,"velocity":0.7559055118110236,"duration":0.3385418020833413},{"name":"F4","midi":65,"time":148.21434500000098,"velocity":0.7559055118110236,"duration":0.3385418020833413},{"name":"A#3","midi":58,"time":148.57148800000098,"velocity":0.7559055118110236,"duration":0.3385418020833413},{"name":"D4","midi":62,"time":148.57148800000098,"velocity":0.7559055118110236,"duration":0.3385418020833413},{"name":"G4","midi":67,"time":148.57148800000098,"velocity":0.7559055118110236,"duration":0.3385418020833413},{"name":"A3","midi":57,"time":148.928631000001,"velocity":0.7559055118110236,"duration":0.16889887708333617},{"name":"D4","midi":62,"time":148.928631000001,"velocity":0.7559055118110236,"duration":0.16889887708333617},{"name":"A4","midi":69,"time":148.928631000001,"velocity":0.7559055118110236,"duration":0.16889887708333617},{"name":"A3","midi":57,"time":149.107202500001,"velocity":0.7559055118110236,"duration":0.3385418020833413},{"name":"D4","midi":62,"time":149.107202500001,"velocity":0.7559055118110236,"duration":0.3385418020833413},{"name":"A3","midi":57,"time":149.464345500001,"velocity":0.7559055118110236,"duration":0.16889887708333617},{"name":"D4","midi":62,"time":149.464345500001,"velocity":0.7559055118110236,"duration":0.16889887708333617},{"name":"A3","midi":57,"time":149.642917000001,"velocity":0.7559055118110236,"duration":0.16889887708333617},{"name":"D4","midi":62,"time":149.642917000001,"velocity":0.7559055118110236,"duration":0.16889887708333617},{"name":"F4","midi":65,"time":149.821488500001,"velocity":0.7559055118110236,"duration":0.16889887708333617},{"name":"G3","midi":55,"time":150.000060000001,"velocity":0.7559055118110236,"duration":0.3385418020833413},{"name":"C#4","midi":61,"time":150.000060000001,"velocity":0.7559055118110236,"duration":0.3385418020833413},{"name":"E4","midi":64,"time":150.000060000001,"velocity":0.7559055118110236,"duration":0.3385418020833413},{"name":"G3","midi":55,"time":150.35720300000102,"velocity":0.7559055118110236,"duration":0.3385418020833413},{"name":"C#4","midi":61,"time":150.35720300000102,"velocity":0.7559055118110236,"duration":0.3385418020833413},{"name":"E4","midi":64,"time":150.35720300000102,"velocity":0.7559055118110236,"duration":0.3385418020833413},{"name":"A3","midi":57,"time":150.71434600000103,"velocity":0.7559055118110236,"duration":0.16889887708333617},{"name":"F4","midi":65,"time":150.71434600000103,"velocity":0.7559055118110236,"duration":0.16889887708333617},{"name":"D4","midi":62,"time":150.89291750000103,"velocity":0.7559055118110236,"duration":0.16889887708333617},{"name":"A3","midi":57,"time":151.07148900000104,"velocity":0.7559055118110236,"duration":0.5081847270833464},{"name":"C4","midi":60,"time":151.07148900000104,"velocity":0.7559055118110236,"duration":0.5081847270833464},{"name":"E4","midi":64,"time":151.07148900000104,"velocity":0.7559055118110236,"duration":0.5081847270833464},{"name":"A4","midi":69,"time":151.78577500000105,"velocity":0.7559055118110236,"duration":0.16889887708333617},{"name":"C5","midi":72,"time":151.96434650000106,"velocity":0.7559055118110236,"duration":0.16889887708333617},{"name":"F4","midi":65,"time":152.14291800000106,"velocity":0.8818897637795275,"duration":0.3385418020833413},{"name":"A4","midi":69,"time":152.14291800000106,"velocity":0.8818897637795275,"duration":0.3385418020833413},{"name":"D5","midi":74,"time":152.14291800000106,"velocity":0.8818897637795275,"duration":0.3385418020833413},{"name":"F4","midi":65,"time":152.50006100000107,"velocity":0.8818897637795275,"duration":0.3385418020833413},{"name":"A4","midi":69,"time":152.50006100000107,"velocity":0.8818897637795275,"duration":0.3385418020833413},{"name":"D5","midi":74,"time":152.50006100000107,"velocity":0.8818897637795275,"duration":0.3385418020833413},{"name":"F4","midi":65,"time":152.85720400000108,"velocity":0.8818897637795275,"duration":0.16889887708333617},{"name":"A4","midi":69,"time":152.85720400000108,"velocity":0.8818897637795275,"duration":0.16889887708333617},{"name":"D5","midi":74,"time":152.85720400000108,"velocity":0.8818897637795275,"duration":0.16889887708333617},{"name":"E5","midi":76,"time":153.03577550000108,"velocity":0.8818897637795275,"duration":0.16889887708333617},{"name":"F4","midi":65,"time":153.21434700000108,"velocity":0.8818897637795275,"duration":0.3385418020833413},{"name":"A#4","midi":70,"time":153.21434700000108,"velocity":0.8818897637795275,"duration":0.3385418020833413},{"name":"D5","midi":74,"time":153.21434700000108,"velocity":0.8818897637795275,"duration":0.3385418020833413},{"name":"F5","midi":77,"time":153.21434700000108,"velocity":0.8818897637795275,"duration":0.3385418020833413},{"name":"F4","midi":65,"time":153.5714900000011,"velocity":0.8818897637795275,"duration":0.3385418020833413},{"name":"A#4","midi":70,"time":153.5714900000011,"velocity":0.8818897637795275,"duration":0.3385418020833413},{"name":"D5","midi":74,"time":153.5714900000011,"velocity":0.8818897637795275,"duration":0.3385418020833413},{"name":"F5","midi":77,"time":153.5714900000011,"velocity":0.8818897637795275,"duration":0.3385418020833413},{"name":"F4","midi":65,"time":153.9286330000011,"velocity":0.8818897637795275,"duration":0.16889887708333617},{"name":"A#4","midi":70,"time":153.9286330000011,"velocity":0.8818897637795275,"duration":0.16889887708333617},{"name":"D5","midi":74,"time":153.9286330000011,"velocity":0.8818897637795275,"duration":0.16889887708333617},{"name":"F5","midi":77,"time":153.9286330000011,"velocity":0.8818897637795275,"duration":0.16889887708333617},{"name":"G4","midi":67,"time":154.1072045000011,"velocity":0.8818897637795275,"duration":0.16889887708333617},{"name":"G5","midi":79,"time":154.1072045000011,"velocity":0.8818897637795275,"duration":0.16889887708333617},{"name":"E4","midi":64,"time":154.2857760000011,"velocity":0.8818897637795275,"duration":0.3385418020833413},{"name":"A4","midi":69,"time":154.2857760000011,"velocity":0.8818897637795275,"duration":0.3385418020833413},{"name":"C5","midi":72,"time":154.2857760000011,"velocity":0.8818897637795275,"duration":0.3385418020833413},{"name":"E5","midi":76,"time":154.2857760000011,"velocity":0.8818897637795275,"duration":0.3385418020833413},{"name":"E4","midi":64,"time":154.64291900000111,"velocity":0.8818897637795275,"duration":0.3385418020833413},{"name":"C5","midi":72,"time":154.64291900000111,"velocity":0.8818897637795275,"duration":0.3385418020833413},{"name":"E5","midi":76,"time":154.64291900000111,"velocity":0.8818897637795275,"duration":0.3385418020833413},{"name":"D4","midi":62,"time":155.00006200000112,"velocity":0.8818897637795275,"duration":0.16889887708333617},{"name":"D5","midi":74,"time":155.00006200000112,"velocity":0.8818897637795275,"duration":0.16889887708333617},{"name":"C4","midi":60,"time":155.17863350000113,"velocity":0.8818897637795275,"duration":0.16889887708333617},{"name":"C5","midi":72,"time":155.17863350000113,"velocity":0.8818897637795275,"duration":0.16889887708333617},{"name":"C4","midi":60,"time":155.35720500000113,"velocity":0.8818897637795275,"duration":0.16889887708333617},{"name":"C5","midi":72,"time":155.35720500000113,"velocity":0.8818897637795275,"duration":0.16889887708333617},{"name":"D4","midi":62,"time":155.53577650000113,"velocity":0.8818897637795275,"duration":0.16889887708333617},{"name":"F4","midi":65,"time":155.53577650000113,"velocity":0.8818897637795275,"duration":0.16889887708333617},{"name":"D5","midi":74,"time":155.53577650000113,"velocity":0.8818897637795275,"duration":0.16889887708333617},{"name":"A4","midi":69,"time":156.07149100000115,"velocity":0.8818897637795275,"duration":0.16889887708333617},{"name":"C5","midi":72,"time":156.25006250000115,"velocity":0.8818897637795275,"duration":0.16889887708333617},{"name":"F4","midi":65,"time":156.42863400000115,"velocity":0.8818897637795275,"duration":0.3385418020833413},{"name":"A#4","midi":70,"time":156.42863400000115,"velocity":0.8818897637795275,"duration":0.3385418020833413},{"name":"D5","midi":74,"time":156.42863400000115,"velocity":0.8818897637795275,"duration":0.3385418020833413},{"name":"F4","midi":65,"time":156.78577700000116,"velocity":0.8818897637795275,"duration":0.3385418020833413},{"name":"A#4","midi":70,"time":156.78577700000116,"velocity":0.8818897637795275,"duration":0.3385418020833413},{"name":"D5","midi":74,"time":156.78577700000116,"velocity":0.8818897637795275,"duration":0.3385418020833413},{"name":"F4","midi":65,"time":157.14292000000117,"velocity":0.8818897637795275,"duration":0.16889887708333617},{"name":"A#4","midi":70,"time":157.14292000000117,"velocity":0.8818897637795275,"duration":0.16889887708333617},{"name":"D5","midi":74,"time":157.14292000000117,"velocity":0.8818897637795275,"duration":0.16889887708333617},{"name":"E5","midi":76,"time":157.32149150000117,"velocity":0.8818897637795275,"duration":0.16889887708333617},{"name":"F4","midi":65,"time":157.50006300000118,"velocity":0.8818897637795275,"duration":0.3385418020833413},{"name":"A4","midi":69,"time":157.50006300000118,"velocity":0.8818897637795275,"duration":0.3385418020833413},{"name":"C5","midi":72,"time":157.50006300000118,"velocity":0.8818897637795275,"duration":0.3385418020833413},{"name":"F5","midi":77,"time":157.50006300000118,"velocity":0.8818897637795275,"duration":0.3385418020833413},{"name":"F4","midi":65,"time":157.85720600000118,"velocity":0.8818897637795275,"duration":0.3385418020833413},{"name":"A4","midi":69,"time":157.85720600000118,"velocity":0.8818897637795275,"duration":0.3385418020833413},{"name":"C5","midi":72,"time":157.85720600000118,"velocity":0.8818897637795275,"duration":0.3385418020833413},{"name":"F5","midi":77,"time":157.85720600000118,"velocity":0.8818897637795275,"duration":0.3385418020833413},{"name":"F4","midi":65,"time":158.2143490000012,"velocity":0.8818897637795275,"duration":0.16889887708333617},{"name":"A4","midi":69,"time":158.2143490000012,"velocity":0.8818897637795275,"duration":0.16889887708333617},{"name":"C5","midi":72,"time":158.2143490000012,"velocity":0.8818897637795275,"duration":0.16889887708333617},{"name":"F5","midi":77,"time":158.2143490000012,"velocity":0.8818897637795275,"duration":0.16889887708333617},{"name":"G4","midi":67,"time":158.3929205000012,"velocity":0.8818897637795275,"duration":0.16889887708333617},{"name":"G5","midi":79,"time":158.3929205000012,"velocity":0.8818897637795275,"duration":0.16889887708333617},{"name":"E4","midi":64,"time":158.5714920000012,"velocity":0.8818897637795275,"duration":0.3385418020833413},{"name":"G4","midi":67,"time":158.5714920000012,"velocity":0.8818897637795275,"duration":0.3385418020833413},{"name":"E5","midi":76,"time":158.5714920000012,"velocity":0.8818897637795275,"duration":0.3385418020833413},{"name":"E4","midi":64,"time":158.9286350000012,"velocity":0.8818897637795275,"duration":0.3385418020833413},{"name":"G4","midi":67,"time":158.9286350000012,"velocity":0.8818897637795275,"duration":0.3385418020833413},{"name":"E5","midi":76,"time":158.9286350000012,"velocity":0.8818897637795275,"duration":0.3385418020833413},{"name":"D4","midi":62,"time":159.28577800000122,"velocity":0.8818897637795275,"duration":0.16889887708333617},{"name":"D5","midi":74,"time":159.28577800000122,"velocity":0.8818897637795275,"duration":0.16889887708333617},{"name":"C4","midi":60,"time":159.46434950000122,"velocity":0.8818897637795275,"duration":0.16889887708333617},{"name":"C5","midi":72,"time":159.46434950000122,"velocity":0.8818897637795275,"duration":0.16889887708333617},{"name":"D4","midi":62,"time":159.64292100000122,"velocity":0.8818897637795275,"duration":0.5081847270833464},{"name":"F4","midi":65,"time":159.64292100000122,"velocity":0.8818897637795275,"duration":0.5081847270833464},{"name":"A4","midi":69,"time":159.64292100000122,"velocity":0.8818897637795275,"duration":0.5081847270833464},{"name":"D5","midi":74,"time":159.64292100000122,"velocity":0.8818897637795275,"duration":0.5081847270833464},{"name":"A4","midi":69,"time":160.35720700000124,"velocity":0.8818897637795275,"duration":0.16889887708333617},{"name":"C5","midi":72,"time":160.53577850000124,"velocity":0.8818897637795275,"duration":0.16889887708333617},{"name":"F4","midi":65,"time":160.71435000000125,"velocity":0.8818897637795275,"duration":0.3385418020833413},{"name":"A4","midi":69,"time":160.71435000000125,"velocity":0.8818897637795275,"duration":0.3385418020833413},{"name":"D5","midi":74,"time":160.71435000000125,"velocity":0.8818897637795275,"duration":0.3385418020833413},{"name":"F4","midi":65,"time":161.07149300000125,"velocity":0.8818897637795275,"duration":0.3385418020833413},{"name":"A4","midi":69,"time":161.07149300000125,"velocity":0.8818897637795275,"duration":0.3385418020833413},{"name":"D5","midi":74,"time":161.07149300000125,"velocity":0.8818897637795275,"duration":0.3385418020833413},{"name":"D5","midi":74,"time":161.42863600000126,"velocity":0.8818897637795275,"duration":0.16889887708333617},{"name":"F5","midi":77,"time":161.60720750000127,"velocity":0.8818897637795275,"duration":0.16889887708333617},{"name":"A#4","midi":70,"time":161.78577900000127,"velocity":0.8818897637795275,"duration":0.3385418020833413},{"name":"D5","midi":74,"time":161.78577900000127,"velocity":0.8818897637795275,"duration":0.3385418020833413},{"name":"G5","midi":79,"time":161.78577900000127,"velocity":0.8818897637795275,"duration":0.3385418020833413},{"name":"A#4","midi":70,"time":162.14292200000128,"velocity":0.8818897637795275,"duration":0.3385418020833413},{"name":"D5","midi":74,"time":162.14292200000128,"velocity":0.8818897637795275,"duration":0.3385418020833413},{"name":"G5","midi":79,"time":162.14292200000128,"velocity":0.8818897637795275,"duration":0.3385418020833413},{"name":"A#4","midi":70,"time":162.50006500000129,"velocity":0.8818897637795275,"duration":0.16889887708333617},{"name":"D5","midi":74,"time":162.50006500000129,"velocity":0.8818897637795275,"duration":0.16889887708333617},{"name":"G5","midi":79,"time":162.50006500000129,"velocity":0.8818897637795275,"duration":0.16889887708333617},{"name":"A5","midi":81,"time":162.6786365000013,"velocity":0.8818897637795275,"duration":0.16889887708333617},{"name":"A#4","midi":70,"time":162.8572080000013,"velocity":0.8818897637795275,"duration":0.3385418020833413},{"name":"D5","midi":74,"time":162.8572080000013,"velocity":0.8818897637795275,"duration":0.3385418020833413},{"name":"A#5","midi":82,"time":162.8572080000013,"velocity":0.8818897637795275,"duration":0.3385418020833413},{"name":"A#4","midi":70,"time":163.2143510000013,"velocity":0.8818897637795275,"duration":0.3385418020833413},{"name":"D5","midi":74,"time":163.2143510000013,"velocity":0.8818897637795275,"duration":0.3385418020833413},{"name":"A#5","midi":82,"time":163.2143510000013,"velocity":0.8818897637795275,"duration":0.3385418020833413},{"name":"A4","midi":69,"time":163.5714940000013,"velocity":0.8818897637795275,"duration":0.16889887708333617},{"name":"D5","midi":74,"time":163.5714940000013,"velocity":0.8818897637795275,"duration":0.16889887708333617},{"name":"A5","midi":81,"time":163.5714940000013,"velocity":0.8818897637795275,"duration":0.16889887708333617},{"name":"G5","midi":79,"time":163.7500655000013,"velocity":0.8818897637795275,"duration":0.16889887708333617},{"name":"A4","midi":69,"time":163.92863700000132,"velocity":0.8818897637795275,"duration":0.16889887708333617},{"name":"D5","midi":74,"time":163.92863700000132,"velocity":0.8818897637795275,"duration":0.16889887708333617},{"name":"A5","midi":81,"time":163.92863700000132,"velocity":0.8818897637795275,"duration":0.16889887708333617},{"name":"A4","midi":69,"time":164.10720850000132,"velocity":0.8818897637795275,"duration":0.3385418020833413},{"name":"D5","midi":74,"time":164.10720850000132,"velocity":0.8818897637795275,"duration":0.3385418020833413},{"name":"A4","midi":69,"time":164.64292300000133,"velocity":0.8818897637795275,"duration":0.16889887708333617},{"name":"D5","midi":74,"time":164.64292300000133,"velocity":0.8818897637795275,"duration":0.16889887708333617},{"name":"F5","midi":77,"time":164.82149450000134,"velocity":0.8818897637795275,"duration":0.16889887708333617},{"name":"A#4","midi":70,"time":165.00006600000134,"velocity":0.8818897637795275,"duration":0.3385418020833413},{"name":"D5","midi":74,"time":165.00006600000134,"velocity":0.8818897637795275,"duration":0.3385418020833413},{"name":"G5","midi":79,"time":165.00006600000134,"velocity":0.8818897637795275,"duration":0.3385418020833413},{"name":"A#4","midi":70,"time":165.35720900000135,"velocity":0.8818897637795275,"duration":0.3385418020833413},{"name":"D5","midi":74,"time":165.35720900000135,"velocity":0.8818897637795275,"duration":0.3385418020833413},{"name":"F5","midi":77,"time":165.35720900000135,"velocity":0.8818897637795275,"duration":0.3385418020833413},{"name":"A#4","midi":70,"time":165.71435200000136,"velocity":0.8818897637795275,"duration":0.16889887708333617},{"name":"D5","midi":74,"time":165.71435200000136,"velocity":0.8818897637795275,"duration":0.16889887708333617},{"name":"F5","midi":77,"time":165.71435200000136,"velocity":0.8818897637795275,"duration":0.16889887708333617},{"name":"A#4","midi":70,"time":165.89292350000136,"velocity":0.8818897637795275,"duration":0.16889887708333617},{"name":"G5","midi":79,"time":165.89292350000136,"velocity":0.8818897637795275,"duration":0.16889887708333617},{"name":"A4","midi":69,"time":166.07149500000136,"velocity":0.8818897637795275,"duration":0.16889887708333617},{"name":"D5","midi":74,"time":166.07149500000136,"velocity":0.8818897637795275,"duration":0.16889887708333617},{"name":"A5","midi":81,"time":166.07149500000136,"velocity":0.8818897637795275,"duration":0.16889887708333617},{"name":"A4","midi":69,"time":166.25006650000137,"velocity":0.8818897637795275,"duration":0.3385418020833413},{"name":"D5","midi":74,"time":166.25006650000137,"velocity":0.8818897637795275,"duration":0.3385418020833413},{"name":"A4","midi":69,"time":166.78578100000138,"velocity":0.8818897637795275,"duration":0.16889887708333617},{"name":"D5","midi":74,"time":166.78578100000138,"velocity":0.8818897637795275,"duration":0.16889887708333617},{"name":"F5","midi":77,"time":166.96435250000138,"velocity":0.8818897637795275,"duration":0.16889887708333617},{"name":"G4","midi":67,"time":167.1429240000014,"velocity":0.8818897637795275,"duration":0.3385418020833413},{"name":"C#5","midi":73,"time":167.1429240000014,"velocity":0.8818897637795275,"duration":0.3385418020833413},{"name":"E5","midi":76,"time":167.1429240000014,"velocity":0.8818897637795275,"duration":0.3385418020833413},{"name":"G4","midi":67,"time":167.5000670000014,"velocity":0.8818897637795275,"duration":0.3385418020833413},{"name":"C#5","midi":73,"time":167.5000670000014,"velocity":0.8818897637795275,"duration":0.3385418020833413},{"name":"E5","midi":76,"time":167.5000670000014,"velocity":0.8818897637795275,"duration":0.3385418020833413},{"name":"F4","midi":65,"time":167.8572100000014,"velocity":0.8818897637795275,"duration":0.16889887708333617},{"name":"A4","midi":69,"time":167.8572100000014,"velocity":0.8818897637795275,"duration":0.16889887708333617},{"name":"D5","midi":74,"time":167.8572100000014,"velocity":0.8818897637795275,"duration":0.16889887708333617},{"name":"E4","midi":64,"time":168.0357815000014,"velocity":0.8818897637795275,"duration":0.16889887708333617},{"name":"C5","midi":72,"time":168.0357815000014,"velocity":0.8818897637795275,"duration":0.16889887708333617},{"name":"F4","midi":65,"time":168.2143530000014,"velocity":0.8818897637795275,"duration":0.3385418020833413},{"name":"A4","midi":69,"time":168.2143530000014,"velocity":0.8818897637795275,"duration":0.3385418020833413},{"name":"D5","midi":74,"time":168.2143530000014,"velocity":0.8818897637795275,"duration":0.3385418020833413},{"name":"F4","midi":65,"time":168.57149600000142,"velocity":0.8818897637795275,"duration":0.3385418020833413},{"name":"A4","midi":69,"time":168.57149600000142,"velocity":0.8818897637795275,"duration":0.3385418020833413},{"name":"D5","midi":74,"time":168.57149600000142,"velocity":0.8818897637795275,"duration":0.3385418020833413},{"name":"E4","midi":64,"time":168.92863900000143,"velocity":0.8818897637795275,"duration":0.3385418020833413},{"name":"A4","midi":69,"time":168.92863900000143,"velocity":0.8818897637795275,"duration":0.3385418020833413},{"name":"C#5","midi":73,"time":168.92863900000143,"velocity":0.8818897637795275,"duration":0.3385418020833413},{"name":"E5","midi":76,"time":168.92863900000143,"velocity":0.8818897637795275,"duration":0.3385418020833413},{"name":"F4","midi":65,"time":169.28578200000143,"velocity":0.8818897637795275,"duration":0.3385418020833413},{"name":"A4","midi":69,"time":169.28578200000143,"velocity":0.8818897637795275,"duration":0.3385418020833413},{"name":"D5","midi":74,"time":169.28578200000143,"velocity":0.8818897637795275,"duration":0.3385418020833413},{"name":"F5","midi":77,"time":169.28578200000143,"velocity":0.8818897637795275,"duration":0.3385418020833413},{"name":"F4","midi":65,"time":169.64292500000144,"velocity":0.8818897637795275,"duration":0.16889887708333617},{"name":"A4","midi":69,"time":169.64292500000144,"velocity":0.8818897637795275,"duration":0.16889887708333617},{"name":"D5","midi":74,"time":169.64292500000144,"velocity":0.8818897637795275,"duration":0.16889887708333617},{"name":"F5","midi":77,"time":169.64292500000144,"velocity":0.8818897637795275,"duration":0.16889887708333617},{"name":"F4","midi":65,"time":169.82149650000144,"velocity":0.8818897637795275,"duration":0.16889887708333617},{"name":"A4","midi":69,"time":169.82149650000144,"velocity":0.8818897637795275,"duration":0.16889887708333617},{"name":"D5","midi":74,"time":169.82149650000144,"velocity":0.8818897637795275,"duration":0.16889887708333617},{"name":"F5","midi":77,"time":169.82149650000144,"velocity":0.8818897637795275,"duration":0.16889887708333617},{"name":"G4","midi":67,"time":170.00006800000145,"velocity":0.8818897637795275,"duration":0.3385418020833413},{"name":"A#4","midi":70,"time":170.00006800000145,"velocity":0.8818897637795275,"duration":0.3385418020833413},{"name":"D5","midi":74,"time":170.00006800000145,"velocity":0.8818897637795275,"duration":0.3385418020833413},{"name":"G5","midi":79,"time":170.00006800000145,"velocity":0.8818897637795275,"duration":0.3385418020833413},{"name":"A4","midi":69,"time":170.35721100000146,"velocity":0.8818897637795275,"duration":0.6778276520833231},{"name":"D5","midi":74,"time":170.35721100000146,"velocity":0.8818897637795275,"duration":0.6778276520833231},{"name":"F5","midi":77,"time":170.35721100000146,"velocity":0.8818897637795275,"duration":0.6778276520833231},{"name":"A5","midi":81,"time":170.35721100000146,"velocity":0.8818897637795275,"duration":0.6778276520833231},{"name":"A4","midi":69,"time":171.07149700000144,"velocity":0.8818897637795275,"duration":0.16889887708333617},{"name":"F5","midi":77,"time":171.07149700000144,"velocity":0.8818897637795275,"duration":0.16889887708333617},{"name":"A4","midi":69,"time":171.25006850000145,"velocity":0.8818897637795275,"duration":0.16889887708333617},{"name":"D5","midi":74,"time":171.25006850000145,"velocity":0.8818897637795275,"duration":0.16889887708333617},{"name":"A4","midi":69,"time":171.42864000000145,"velocity":0.8818897637795275,"duration":1.0171135020833333},{"name":"A#4","midi":70,"time":172.50006900000145,"velocity":0.8818897637795275,"duration":0.6778276520833231},{"name":"D5","midi":74,"time":172.50006900000145,"velocity":0.8818897637795275,"duration":0.6778276520833231},{"name":"F5","midi":77,"time":172.50006900000145,"velocity":0.8818897637795275,"duration":0.6778276520833231},{"name":"A#5","midi":82,"time":172.50006900000145,"velocity":0.8818897637795275,"duration":0.6778276520833231},{"name":"A#4","midi":70,"time":173.21435500000143,"velocity":0.8818897637795275,"duration":0.16889887708333617},{"name":"F5","midi":77,"time":173.21435500000143,"velocity":0.8818897637795275,"duration":0.16889887708333617},{"name":"D5","midi":74,"time":173.39292650000144,"velocity":0.8818897637795275,"duration":0.16889887708333617},{"name":"A#4","midi":70,"time":173.57149800000144,"velocity":0.8818897637795275,"duration":0.6778276520833231},{"name":"A#4","midi":70,"time":174.28578400000143,"velocity":0.8818897637795275,"duration":0.3385418020833413},{"name":"A4","midi":69,"time":174.64292700000144,"velocity":0.8818897637795275,"duration":0.16889887708333617},{"name":"D5","midi":74,"time":174.64292700000144,"velocity":0.8818897637795275,"duration":0.16889887708333617},{"name":"A4","midi":69,"time":174.82149850000144,"velocity":0.8818897637795275,"duration":0.16889887708333617},{"name":"F4","midi":65,"time":175.00007000000144,"velocity":0.8818897637795275,"duration":0.16889887708333617},{"name":"A4","midi":69,"time":175.00007000000144,"velocity":0.8818897637795275,"duration":0.16889887708333617},{"name":"D5","midi":74,"time":175.00007000000144,"velocity":0.8818897637795275,"duration":0.16889887708333617},{"name":"E4","midi":64,"time":175.35721300000145,"velocity":0.8818897637795275,"duration":1.0171135020833333},{"name":"A4","midi":69,"time":175.35721300000145,"velocity":0.8818897637795275,"duration":1.0171135020833333},{"name":"C#5","midi":73,"time":175.35721300000145,"velocity":0.8818897637795275,"duration":1.0171135020833333},{"name":"E5","midi":76,"time":175.35721300000145,"velocity":0.8818897637795275,"duration":1.0171135020833333},{"name":"G4","midi":67,"time":176.42864200000145,"velocity":0.8818897637795275,"duration":0.16889887708333617},{"name":"C#5","midi":73,"time":176.42864200000145,"velocity":0.8818897637795275,"duration":0.16889887708333617},{"name":"G5","midi":79,"time":176.42864200000145,"velocity":0.8818897637795275,"duration":0.16889887708333617},{"name":"G4","midi":67,"time":176.60721350000145,"velocity":0.8818897637795275,"duration":0.16889887708333617},{"name":"C#5","midi":73,"time":176.60721350000145,"velocity":0.8818897637795275,"duration":0.16889887708333617},{"name":"G5","midi":79,"time":176.60721350000145,"velocity":0.8818897637795275,"duration":0.16889887708333617},{"name":"A4","midi":69,"time":176.78578500000145,"velocity":0.8818897637795275,"duration":0.3385418020833413},{"name":"D5","midi":74,"time":176.78578500000145,"velocity":0.8818897637795275,"duration":0.3385418020833413},{"name":"F5","midi":77,"time":176.78578500000145,"velocity":0.8818897637795275,"duration":0.3385418020833413},{"name":"A5","midi":81,"time":176.78578500000145,"velocity":0.8818897637795275,"duration":0.3385418020833413},{"name":"A4","midi":69,"time":177.14292800000146,"velocity":0.8818897637795275,"duration":0.3385418020833413},{"name":"D5","midi":74,"time":177.14292800000146,"velocity":0.8818897637795275,"duration":0.3385418020833413},{"name":"F5","midi":77,"time":177.14292800000146,"velocity":0.8818897637795275,"duration":0.3385418020833413},{"name":"A5","midi":81,"time":177.14292800000146,"velocity":0.8818897637795275,"duration":0.3385418020833413},{"name":"A4","midi":69,"time":177.50007100000147,"velocity":0.8818897637795275,"duration":0.3385418020833413},{"name":"D5","midi":74,"time":177.50007100000147,"velocity":0.8818897637795275,"duration":0.3385418020833413},{"name":"F5","midi":77,"time":177.50007100000147,"velocity":0.8818897637795275,"duration":0.3385418020833413},{"name":"A5","midi":81,"time":177.50007100000147,"velocity":0.8818897637795275,"duration":0.3385418020833413},{"name":"A#4","midi":70,"time":177.85721400000148,"velocity":0.8818897637795275,"duration":0.16889887708333617},{"name":"D5","midi":74,"time":177.85721400000148,"velocity":0.8818897637795275,"duration":0.16889887708333617},{"name":"F5","midi":77,"time":177.85721400000148,"velocity":0.8818897637795275,"duration":0.16889887708333617},{"name":"A#5","midi":82,"time":177.85721400000148,"velocity":0.8818897637795275,"duration":0.16889887708333617},{"name":"A4","midi":69,"time":178.03578550000148,"velocity":0.8818897637795275,"duration":0.5081847270833464},{"name":"D5","midi":74,"time":178.03578550000148,"velocity":0.8818897637795275,"duration":0.5081847270833464},{"name":"F5","midi":77,"time":178.03578550000148,"velocity":0.8818897637795275,"duration":0.5081847270833464},{"name":"A5","midi":81,"time":178.03578550000148,"velocity":0.8818897637795275,"duration":0.5081847270833464},{"name":"G4","midi":67,"time":178.9286430000015,"velocity":0.8818897637795275,"duration":0.3385418020833413},{"name":"C5","midi":72,"time":178.9286430000015,"velocity":0.8818897637795275,"duration":0.3385418020833413},{"name":"E5","midi":76,"time":178.9286430000015,"velocity":0.8818897637795275,"duration":0.3385418020833413},{"name":"G5","midi":79,"time":178.9286430000015,"velocity":0.8818897637795275,"duration":0.3385418020833413},{"name":"G4","midi":67,"time":179.2857860000015,"velocity":0.8818897637795275,"duration":0.3385418020833413},{"name":"C5","midi":72,"time":179.2857860000015,"velocity":0.8818897637795275,"duration":0.3385418020833413},{"name":"E5","midi":76,"time":179.2857860000015,"velocity":0.8818897637795275,"duration":0.3385418020833413},{"name":"G5","midi":79,"time":179.2857860000015,"velocity":0.8818897637795275,"duration":0.3385418020833413},{"name":"G4","midi":67,"time":179.64292900000152,"velocity":0.8818897637795275,"duration":0.3385418020833413},{"name":"C5","midi":72,"time":179.64292900000152,"velocity":0.8818897637795275,"duration":0.3385418020833413},{"name":"E5","midi":76,"time":179.64292900000152,"velocity":0.8818897637795275,"duration":0.3385418020833413},{"name":"G5","midi":79,"time":179.64292900000152,"velocity":0.8818897637795275,"duration":0.3385418020833413},{"name":"G4","midi":67,"time":180.00007200000152,"velocity":0.8818897637795275,"duration":0.16889887708333617},{"name":"C5","midi":72,"time":180.00007200000152,"velocity":0.8818897637795275,"duration":0.16889887708333617},{"name":"E5","midi":76,"time":180.00007200000152,"velocity":0.8818897637795275,"duration":0.16889887708333617},{"name":"G5","midi":79,"time":180.00007200000152,"velocity":0.8818897637795275,"duration":0.16889887708333617},{"name":"A4","midi":69,"time":180.17864350000153,"velocity":0.8818897637795275,"duration":0.6778276520833231},{"name":"D5","midi":74,"time":180.17864350000153,"velocity":0.8818897637795275,"duration":0.6778276520833231},{"name":"F5","midi":77,"time":180.17864350000153,"velocity":0.8818897637795275,"duration":0.6778276520833231},{"name":"A5","midi":81,"time":180.17864350000153,"velocity":0.8818897637795275,"duration":0.6778276520833231},{"name":"A4","midi":69,"time":180.89292950000151,"velocity":0.8818897637795275,"duration":0.16889887708333617},{"name":"A4","midi":69,"time":181.07150100000152,"velocity":0.8818897637795275,"duration":0.3385418020833413},{"name":"D5","midi":74,"time":181.07150100000152,"velocity":0.8818897637795275,"duration":0.3385418020833413},{"name":"F5","midi":77,"time":181.07150100000152,"velocity":0.8818897637795275,"duration":0.3385418020833413},{"name":"A5","midi":81,"time":181.07150100000152,"velocity":0.8818897637795275,"duration":0.3385418020833413},{"name":"A4","midi":69,"time":181.42864400000153,"velocity":0.8818897637795275,"duration":0.3385418020833413},{"name":"D5","midi":74,"time":181.42864400000153,"velocity":0.8818897637795275,"duration":0.3385418020833413},{"name":"F5","midi":77,"time":181.42864400000153,"velocity":0.8818897637795275,"duration":0.3385418020833413},{"name":"A5","midi":81,"time":181.42864400000153,"velocity":0.8818897637795275,"duration":0.3385418020833413},{"name":"A4","midi":69,"time":181.78578700000153,"velocity":0.8818897637795275,"duration":0.3385418020833413},{"name":"D5","midi":74,"time":181.78578700000153,"velocity":0.8818897637795275,"duration":0.3385418020833413},{"name":"F5","midi":77,"time":181.78578700000153,"velocity":0.8818897637795275,"duration":0.3385418020833413},{"name":"A5","midi":81,"time":181.78578700000153,"velocity":0.8818897637795275,"duration":0.3385418020833413},{"name":"A#4","midi":70,"time":182.14293000000154,"velocity":0.8818897637795275,"duration":0.16889887708333617},{"name":"D5","midi":74,"time":182.14293000000154,"velocity":0.8818897637795275,"duration":0.5081847270833464},{"name":"F5","midi":77,"time":182.14293000000154,"velocity":0.8818897637795275,"duration":0.5081847270833464},{"name":"A#5","midi":82,"time":182.14293000000154,"velocity":0.8818897637795275,"duration":0.16889887708333617},{"name":"A4","midi":69,"time":182.32150150000155,"velocity":0.8818897637795275,"duration":0.3385418020833413},{"name":"A5","midi":81,"time":182.32150150000155,"velocity":0.8818897637795275,"duration":0.3385418020833413},{"name":"A4","midi":69,"time":182.67864450000155,"velocity":0.8818897637795275,"duration":0.16889887708333617},{"name":"D5","midi":74,"time":182.85721600000156,"velocity":0.8818897637795275,"duration":0.16889887708333617},{"name":"F5","midi":77,"time":183.03578750000156,"velocity":0.8818897637795275,"duration":0.16889887708333617},{"name":"G4","midi":67,"time":183.21435900000156,"velocity":0.8818897637795275,"duration":0.3385418020833413},{"name":"A#4","midi":70,"time":183.21435900000156,"velocity":0.8818897637795275,"duration":0.3385418020833413},{"name":"D5","midi":74,"time":183.21435900000156,"velocity":0.8818897637795275,"duration":0.3385418020833413},{"name":"G5","midi":79,"time":183.21435900000156,"velocity":0.8818897637795275,"duration":0.3385418020833413},{"name":"F4","midi":65,"time":183.57150200000157,"velocity":0.8818897637795275,"duration":0.3385418020833413},{"name":"A#4","midi":70,"time":183.57150200000157,"velocity":0.8818897637795275,"duration":0.3385418020833413},{"name":"D5","midi":74,"time":183.57150200000157,"velocity":0.8818897637795275,"duration":0.3385418020833413},{"name":"F5","midi":77,"time":183.57150200000157,"velocity":0.8818897637795275,"duration":0.3385418020833413},{"name":"E4","midi":64,"time":183.92864500000158,"velocity":0.8818897637795275,"duration":0.3385418020833413},{"name":"A4","midi":69,"time":183.92864500000158,"velocity":0.8818897637795275,"duration":0.3385418020833413},{"name":"E5","midi":76,"time":183.92864500000158,"velocity":0.8818897637795275,"duration":0.3385418020833413},{"name":"D4","midi":62,"time":184.2857880000016,"velocity":0.8818897637795275,"duration":0.5081847270833464},{"name":"F4","midi":65,"time":184.2857880000016,"velocity":0.8818897637795275,"duration":0.5081847270833464},{"name":"A4","midi":69,"time":184.2857880000016,"velocity":0.8818897637795275,"duration":0.5081847270833464},{"name":"D5","midi":74,"time":184.2857880000016,"velocity":0.8818897637795275,"duration":0.5081847270833464},{"name":"D4","midi":62,"time":185.0000740000016,"velocity":0.5511811023622047,"duration":0.16889887708333617},{"name":"E4","midi":64,"time":185.1786455000016,"velocity":0.47244094488188976,"duration":0.16889887708333617},{"name":"D4","midi":62,"time":185.3572170000016,"velocity":0.3858267716535433,"duration":0.6778276520833231},{"name":"F4","midi":65,"time":185.3572170000016,"velocity":0.3858267716535433,"duration":0.6778276520833231},{"name":"G4","midi":67,"time":186.0715030000016,"velocity":0.3858267716535433,"duration":0.16889887708333617},{"name":"A4","midi":69,"time":186.2500745000016,"velocity":0.3858267716535433,"duration":0.16889887708333617},{"name":"A#3","midi":58,"time":186.4286460000016,"velocity":0.3858267716535433,"duration":0.5081847270833464},{"name":"D4","midi":62,"time":186.4286460000016,"velocity":0.3858267716535433,"duration":0.5081847270833464},{"name":"G4","midi":67,"time":186.4286460000016,"velocity":0.3858267716535433,"duration":0.5081847270833464},{"name":"A3","midi":57,"time":186.96436050000162,"velocity":0.3858267716535433,"duration":0.16889887708333617},{"name":"F4","midi":65,"time":186.96436050000162,"velocity":0.3858267716535433,"duration":0.16889887708333617},{"name":"G3","midi":55,"time":187.14293200000162,"velocity":0.3858267716535433,"duration":0.3385418020833413},{"name":"E4","midi":64,"time":187.14293200000162,"velocity":0.3858267716535433,"duration":0.3385418020833413},{"name":"A3","midi":57,"time":187.50007500000163,"velocity":0.3858267716535433,"duration":0.3385418020833413},{"name":"E4","midi":64,"time":187.50007500000163,"velocity":0.3858267716535433,"duration":0.3385418020833413},{"name":"G4","midi":67,"time":187.85721800000164,"velocity":0.3858267716535433,"duration":0.3385418020833413},{"name":"A4","midi":69,"time":188.21436100000165,"velocity":0.3858267716535433,"duration":0.3385418020833413},{"name":"C4","midi":60,"time":188.57150400000165,"velocity":0.3858267716535433,"duration":0.7135419520833466},{"name":"D4","midi":62,"time":188.61837901875165,"velocity":0.3858267716535433,"duration":0.665922885416677},{"name":"E4","midi":64,"time":188.66599808541832,"velocity":0.3858267716535433,"duration":0.6183038187500074},{"name":"G4","midi":67,"time":188.71436120000166,"velocity":0.3858267716535433,"duration":0.5706847520833378},{"name":"F4","midi":65,"time":189.28579000000167,"velocity":0.3858267716535433,"duration":0.16889887708333617},{"name":"G4","midi":67,"time":189.46436150000167,"velocity":0.3858267716535433,"duration":0.16889887708333617},{"name":"C4","midi":60,"time":189.64293300000168,"velocity":0.3858267716535433,"duration":0.6778276520833231},{"name":"A4","midi":69,"time":189.64293300000168,"velocity":0.3858267716535433,"duration":0.6778276520833231},{"name":"G4","midi":67,"time":190.35721900000166,"velocity":0.3858267716535433,"duration":0.16889887708333617},{"name":"F4","midi":65,"time":190.53579050000167,"velocity":0.3858267716535433,"duration":0.16889887708333617},{"name":"G3","midi":55,"time":190.71436200000167,"velocity":0.3858267716535433,"duration":0.3385418020833413},{"name":"E4","midi":64,"time":190.71436200000167,"velocity":0.3858267716535433,"duration":0.3385418020833413},{"name":"A3","midi":57,"time":191.07150500000168,"velocity":0.3858267716535433,"duration":0.5081847270833464},{"name":"F4","midi":65,"time":191.07150500000168,"velocity":0.3858267716535433,"duration":0.5081847270833464},{"name":"G3","midi":55,"time":191.6072195000017,"velocity":0.3858267716535433,"duration":0.16889887708333617},{"name":"E4","midi":64,"time":191.6072195000017,"velocity":0.3858267716535433,"duration":0.16889887708333617},{"name":"F3","midi":53,"time":191.7857910000017,"velocity":0.3858267716535433,"duration":0.5081847270833464},{"name":"D4","midi":62,"time":191.7857910000017,"velocity":0.3858267716535433,"duration":0.5081847270833464},{"name":"E4","midi":64,"time":192.3215055000017,"velocity":0.3858267716535433,"duration":0.16889887708333617},{"name":"C4","midi":60,"time":192.5000770000017,"velocity":0.3858267716535433,"duration":0.3385418020833413},{"name":"A3","midi":57,"time":192.85722000000172,"velocity":0.3858267716535433,"duration":0.7135419520833466},{"name":"D4","midi":62,"time":192.90409501875172,"velocity":0.3858267716535433,"duration":0.665922885416677},{"name":"D5","midi":74,"time":193.57150600000173,"velocity":0.3858267716535433,"duration":0.16889887708333617},{"name":"E5","midi":76,"time":193.75007750000174,"velocity":0.3858267716535433,"duration":0.16889887708333617},{"name":"A4","midi":69,"time":193.92864900000174,"velocity":0.3858267716535433,"duration":0.6778276520833231},{"name":"D5","midi":74,"time":193.92864900000174,"velocity":0.3858267716535433,"duration":0.6778276520833231},{"name":"F5","midi":77,"time":193.92864900000174,"velocity":0.3858267716535433,"duration":0.6778276520833231},{"name":"E5","midi":76,"time":194.64293500000173,"velocity":0.3858267716535433,"duration":0.16889887708333617},{"name":"F5","midi":77,"time":194.82150650000173,"velocity":0.3858267716535433,"duration":0.16889887708333617},{"name":"C5","midi":72,"time":195.00007800000174,"velocity":0.3858267716535433,"duration":0.3385418020833413},{"name":"E5","midi":76,"time":195.00007800000174,"velocity":0.3858267716535433,"duration":0.3385418020833413},{"name":"G5","midi":79,"time":195.00007800000174,"velocity":0.3858267716535433,"duration":0.3385418020833413},{"name":"F5","midi":77,"time":195.35722100000174,"velocity":0.3858267716535433,"duration":0.3385418020833413},{"name":"C5","midi":72,"time":195.71436400000175,"velocity":0.3858267716535433,"duration":0.3385418020833413},{"name":"E5","midi":76,"time":195.71436400000175,"velocity":0.3858267716535433,"duration":0.3385418020833413},{"name":"G5","midi":79,"time":195.71436400000175,"velocity":0.3858267716535433,"duration":0.3385418020833413},{"name":"C5","midi":72,"time":196.07150700000176,"velocity":0.3858267716535433,"duration":0.3563989520833388},{"name":"F5","midi":77,"time":196.11838201875176,"velocity":0.3858267716535433,"duration":0.30877988541666923},{"name":"A5","midi":81,"time":196.16600108541843,"velocity":0.3858267716535433,"duration":0.26116081874999963},{"name":"C5","midi":72,"time":196.42865000000177,"velocity":0.3858267716535433,"duration":0.3385418020833413},{"name":"E5","midi":76,"time":196.42865000000177,"velocity":0.3858267716535433,"duration":0.3385418020833413},{"name":"G5","midi":79,"time":196.42865000000177,"velocity":0.3858267716535433,"duration":0.3385418020833413},{"name":"A4","midi":69,"time":196.78579300000177,"velocity":0.3858267716535433,"duration":0.3385418020833413},{"name":"D5","midi":74,"time":196.78579300000177,"velocity":0.3858267716535433,"duration":0.3385418020833413},{"name":"F5","midi":77,"time":196.78579300000177,"velocity":0.3858267716535433,"duration":0.3385418020833413},{"name":"F4","midi":65,"time":197.14293600000178,"velocity":0.3858267716535433,"duration":0.5081847270833464},{"name":"A#4","midi":70,"time":197.14293600000178,"velocity":0.3858267716535433,"duration":0.5081847270833464},{"name":"D5","midi":74,"time":197.14293600000178,"velocity":0.3858267716535433,"duration":0.5081847270833464},{"name":"D5","midi":74,"time":197.8572220000018,"velocity":0.3858267716535433,"duration":0.16889887708333617},{"name":"E5","midi":76,"time":198.0357935000018,"velocity":0.3858267716535433,"duration":0.16889887708333617},{"name":"A4","midi":69,"time":198.2143650000018,"velocity":0.3858267716535433,"duration":0.3385418020833413},{"name":"D5","midi":74,"time":198.2143650000018,"velocity":0.3858267716535433,"duration":0.3385418020833413},{"name":"F5","midi":77,"time":198.2143650000018,"velocity":0.3858267716535433,"duration":0.3385418020833413},{"name":"G5","midi":79,"time":198.5715080000018,"velocity":0.3858267716535433,"duration":0.3385418020833413},{"name":"A5","midi":81,"time":198.92865100000182,"velocity":0.3858267716535433,"duration":0.3385418020833413},{"name":"A#4","midi":70,"time":199.28579400000183,"velocity":0.3858267716535433,"duration":0.3563989520833388},{"name":"D5","midi":74,"time":199.33266901875183,"velocity":0.3858267716535433,"duration":0.30877988541666923},{"name":"A#5","midi":82,"time":199.3802880854185,"velocity":0.3858267716535433,"duration":0.26116081874999963},{"name":"D5","midi":74,"time":199.64293700000184,"velocity":0.3858267716535433,"duration":0.3385418020833413},{"name":"G5","midi":79,"time":200.00008000000184,"velocity":0.3858267716535433,"duration":0.3385418020833413},{"name":"A4","midi":69,"time":200.35722300000185,"velocity":0.3858267716535433,"duration":0.5349704520833427},{"name":"D5","midi":74,"time":200.40409801875185,"velocity":0.3858267716535433,"duration":0.4873513854166731},{"name":"F5","midi":77,"time":200.45171708541852,"velocity":0.3858267716535433,"duration":0.4397323187500035},{"name":"G5","midi":79,"time":200.89293750000186,"velocity":0.3858267716535433,"duration":0.16889887708333617},{"name":"E5","midi":76,"time":201.07150900000187,"velocity":0.3858267716535433,"duration":0.3385418020833413},{"name":"F4","midi":65,"time":201.42865200000188,"velocity":0.3858267716535433,"duration":0.5349704520833427},{"name":"A4","midi":69,"time":201.47552701875188,"velocity":0.3858267716535433,"duration":0.4873513854166731},{"name":"D5","midi":74,"time":201.52314608541855,"velocity":0.3858267716535433,"duration":0.4397323187500035},{"name":"E5","midi":76,"time":201.9643665000019,"velocity":0.3858267716535433,"duration":0.16889887708333617},{"name":"G4","midi":67,"time":202.1429380000019,"velocity":0.3858267716535433,"duration":0.3385418020833413},{"name":"C#5","midi":73,"time":202.1429380000019,"velocity":0.3858267716535433,"duration":0.3385418020833413},{"name":"A4","midi":69,"time":202.5000810000019,"velocity":0.8818897637795275,"duration":1.0171135020833333},{"name":"D5","midi":74,"time":202.5000810000019,"velocity":0.8818897637795275,"duration":1.0171135020833333},{"name":"F5","midi":77,"time":202.5000810000019,"velocity":0.8818897637795275,"duration":1.0171135020833333},{"name":"A5","midi":81,"time":202.5000810000019,"velocity":0.8818897637795275,"duration":1.0171135020833333},{"name":"A#4","midi":70,"time":203.5715100000019,"velocity":0.8818897637795275,"duration":0.3385418020833413},{"name":"D5","midi":74,"time":203.5715100000019,"velocity":0.8818897637795275,"duration":0.3385418020833413},{"name":"F5","midi":77,"time":203.5715100000019,"velocity":0.8818897637795275,"duration":0.3385418020833413},{"name":"A#5","midi":82,"time":203.5715100000019,"velocity":0.8818897637795275,"duration":0.3385418020833413},{"name":"A#4","midi":70,"time":203.9286530000019,"velocity":0.8818897637795275,"duration":0.16889887708333617},{"name":"D5","midi":74,"time":204.1072245000019,"velocity":0.8818897637795275,"duration":0.16889887708333617},{"name":"F5","midi":77,"time":204.2857960000019,"velocity":0.8818897637795275,"duration":0.16889887708333617},{"name":"A5","midi":81,"time":204.4643675000019,"velocity":0.8818897637795275,"duration":0.16889887708333617},{"name":"A4","midi":69,"time":204.64293900000192,"velocity":0.8818897637795275,"duration":0.3385418020833413},{"name":"C5","midi":72,"time":204.64293900000192,"velocity":0.8818897637795275,"duration":0.3385418020833413},{"name":"F5","midi":77,"time":204.64293900000192,"velocity":0.8818897637795275,"duration":0.3385418020833413},{"name":"A5","midi":81,"time":204.64293900000192,"velocity":0.8818897637795275,"duration":0.3385418020833413},{"name":"A4","midi":69,"time":205.00008200000192,"velocity":0.8818897637795275,"duration":0.3385418020833413},{"name":"C5","midi":72,"time":205.00008200000192,"velocity":0.8818897637795275,"duration":0.3385418020833413},{"name":"F5","midi":77,"time":205.00008200000192,"velocity":0.8818897637795275,"duration":0.3385418020833413},{"name":"A5","midi":81,"time":205.00008200000192,"velocity":0.8818897637795275,"duration":0.3385418020833413},{"name":"A4","midi":69,"time":205.35722500000193,"velocity":0.8818897637795275,"duration":0.3385418020833413},{"name":"C5","midi":72,"time":205.35722500000193,"velocity":0.8818897637795275,"duration":0.3385418020833413},{"name":"F5","midi":77,"time":205.35722500000193,"velocity":0.8818897637795275,"duration":0.3385418020833413},{"name":"A5","midi":81,"time":205.35722500000193,"velocity":0.8818897637795275,"duration":0.3385418020833413},{"name":"A4","midi":69,"time":205.71436800000194,"velocity":0.8818897637795275,"duration":0.16889887708333617},{"name":"C5","midi":72,"time":205.71436800000194,"velocity":0.8818897637795275,"duration":0.16889887708333617},{"name":"F5","midi":77,"time":205.71436800000194,"velocity":0.8818897637795275,"duration":0.16889887708333617},{"name":"A5","midi":81,"time":205.71436800000194,"velocity":0.8818897637795275,"duration":0.16889887708333617},{"name":"G4","midi":67,"time":205.89293950000194,"velocity":0.8818897637795275,"duration":0.5081847270833464},{"name":"C5","midi":72,"time":205.89293950000194,"velocity":0.8818897637795275,"duration":0.5081847270833464},{"name":"E5","midi":76,"time":205.89293950000194,"velocity":0.8818897637795275,"duration":0.5081847270833464},{"name":"G5","midi":79,"time":205.89293950000194,"velocity":0.8818897637795275,"duration":0.5081847270833464},{"name":"G4","midi":67,"time":206.78579700000196,"velocity":0.8818897637795275,"duration":0.3385418020833413},{"name":"A#4","midi":70,"time":206.78579700000196,"velocity":0.8818897637795275,"duration":0.3385418020833413},{"name":"D5","midi":74,"time":206.78579700000196,"velocity":0.8818897637795275,"duration":0.3385418020833413},{"name":"G5","midi":79,"time":206.78579700000196,"velocity":0.8818897637795275,"duration":0.3385418020833413},{"name":"G4","midi":67,"time":207.14294000000197,"velocity":0.8818897637795275,"duration":0.16889887708333617},{"name":"A#4","midi":70,"time":207.32151150000198,"velocity":0.8818897637795275,"duration":0.16889887708333617},{"name":"D5","midi":74,"time":207.50008300000198,"velocity":0.8818897637795275,"duration":0.16889887708333617},{"name":"G5","midi":79,"time":207.67865450000198,"velocity":0.8818897637795275,"duration":0.16889887708333617},{"name":"F4","midi":65,"time":207.857226000002,"velocity":0.8818897637795275,"duration":0.3385418020833413},{"name":"A4","midi":69,"time":207.857226000002,"velocity":0.8818897637795275,"duration":0.3385418020833413},{"name":"D5","midi":74,"time":207.857226000002,"velocity":0.8818897637795275,"duration":0.3385418020833413},{"name":"F5","midi":77,"time":207.857226000002,"velocity":0.8818897637795275,"duration":0.3385418020833413},{"name":"F4","midi":65,"time":208.214369000002,"velocity":0.8818897637795275,"duration":0.16889887708333617},{"name":"A4","midi":69,"time":208.392940500002,"velocity":0.8818897637795275,"duration":0.16889887708333617},{"name":"D5","midi":74,"time":208.571512000002,"velocity":0.8818897637795275,"duration":0.16889887708333617},{"name":"F5","midi":77,"time":208.750083500002,"velocity":0.8818897637795275,"duration":0.16889887708333617},{"name":"G4","midi":67,"time":208.928655000002,"velocity":0.8818897637795275,"duration":0.3385418020833413},{"name":"C5","midi":72,"time":208.928655000002,"velocity":0.8818897637795275,"duration":0.3385418020833413},{"name":"E5","midi":76,"time":208.928655000002,"velocity":0.8818897637795275,"duration":0.3385418020833413},{"name":"G4","midi":67,"time":209.28579800000202,"velocity":0.8818897637795275,"duration":0.3385418020833413},{"name":"D5","midi":74,"time":209.28579800000202,"velocity":0.8818897637795275,"duration":0.3385418020833413},{"name":"F5","midi":77,"time":209.28579800000202,"velocity":0.8818897637795275,"duration":0.3385418020833413},{"name":"G4","midi":67,"time":209.64294100000203,"velocity":0.8818897637795275,"duration":0.3385418020833413},{"name":"C5","midi":72,"time":209.64294100000203,"velocity":0.8818897637795275,"duration":0.3385418020833413},{"name":"E5","midi":76,"time":209.64294100000203,"velocity":0.8818897637795275,"duration":0.3385418020833413},{"name":"F4","midi":65,"time":210.00008400000203,"velocity":0.8818897637795275,"duration":0.5081847270833464},{"name":"A4","midi":69,"time":210.00008400000203,"velocity":0.8818897637795275,"duration":0.5081847270833464},{"name":"D5","midi":74,"time":210.00008400000203,"velocity":0.8818897637795275,"duration":0.5081847270833464},{"name":"D5","midi":74,"time":210.53579850000204,"velocity":0.8818897637795275,"duration":0.16889887708333617},{"name":"E5","midi":76,"time":210.71437000000205,"velocity":0.8818897637795275,"duration":0.16889887708333617},{"name":"F5","midi":77,"time":210.89294150000205,"velocity":0.8818897637795275,"duration":0.16889887708333617},{"name":"A4","midi":69,"time":211.07151300000206,"velocity":0.8818897637795275,"duration":0.5081847270833464},{"name":"D5","midi":74,"time":211.07151300000206,"velocity":0.8818897637795275,"duration":0.5081847270833464},{"name":"F5","midi":77,"time":211.07151300000206,"velocity":0.8818897637795275,"duration":0.5081847270833464},{"name":"A5","midi":81,"time":211.07151300000206,"velocity":0.8818897637795275,"duration":0.5081847270833464},{"name":"D5","midi":74,"time":211.60722750000207,"velocity":0.8818897637795275,"duration":0.16889887708333617},{"name":"E5","midi":76,"time":211.78579900000207,"velocity":0.8818897637795275,"duration":0.16889887708333617},{"name":"F5","midi":77,"time":211.96437050000208,"velocity":0.8818897637795275,"duration":0.16889887708333617},{"name":"A#4","midi":70,"time":212.14294200000208,"velocity":0.8818897637795275,"duration":0.5081847270833464},{"name":"D5","midi":74,"time":212.14294200000208,"velocity":0.8818897637795275,"duration":0.5081847270833464},{"name":"F5","midi":77,"time":212.14294200000208,"velocity":0.8818897637795275,"duration":0.5081847270833464},{"name":"A#5","midi":82,"time":212.14294200000208,"velocity":0.8818897637795275,"duration":0.5081847270833464},{"name":"D5","midi":74,"time":212.6786565000021,"velocity":0.8818897637795275,"duration":0.16889887708333617},{"name":"E5","midi":76,"time":212.8572280000021,"velocity":0.8818897637795275,"duration":0.16889887708333617},{"name":"F5","midi":77,"time":213.0357995000021,"velocity":0.8818897637795275,"duration":0.16889887708333617},{"name":"A4","midi":69,"time":213.2143710000021,"velocity":0.8818897637795275,"duration":0.3385418020833413},{"name":"C5","midi":72,"time":213.2143710000021,"velocity":0.8818897637795275,"duration":0.3385418020833413},{"name":"F5","midi":77,"time":213.2143710000021,"velocity":0.8818897637795275,"duration":0.3385418020833413},{"name":"A5","midi":81,"time":213.2143710000021,"velocity":0.8818897637795275,"duration":0.3385418020833413},{"name":"A4","midi":69,"time":213.5715140000021,"velocity":0.8818897637795275,"duration":0.3385418020833413},{"name":"C5","midi":72,"time":213.5715140000021,"velocity":0.8818897637795275,"duration":0.3385418020833413},{"name":"F5","midi":77,"time":213.5715140000021,"velocity":0.8818897637795275,"duration":0.3385418020833413},{"name":"A5","midi":81,"time":213.5715140000021,"velocity":0.8818897637795275,"duration":0.3385418020833413},{"name":"A4","midi":69,"time":213.92865700000212,"velocity":0.8818897637795275,"duration":0.3385418020833413},{"name":"C5","midi":72,"time":213.92865700000212,"velocity":0.8818897637795275,"duration":0.3385418020833413},{"name":"F5","midi":77,"time":213.92865700000212,"velocity":0.8818897637795275,"duration":0.3385418020833413},{"name":"A5","midi":81,"time":213.92865700000212,"velocity":0.8818897637795275,"duration":0.3385418020833413},{"name":"A4","midi":69,"time":214.28580000000213,"velocity":0.8818897637795275,"duration":0.16889887708333617},{"name":"C5","midi":72,"time":214.28580000000213,"velocity":0.8818897637795275,"duration":0.16889887708333617},{"name":"F5","midi":77,"time":214.28580000000213,"velocity":0.8818897637795275,"duration":0.16889887708333617},{"name":"A5","midi":81,"time":214.28580000000213,"velocity":0.8818897637795275,"duration":0.16889887708333617},{"name":"G4","midi":67,"time":214.46437150000213,"velocity":0.8818897637795275,"duration":0.16889887708333617},{"name":"C5","midi":72,"time":214.46437150000213,"velocity":0.8818897637795275,"duration":0.16889887708333617},{"name":"E5","midi":76,"time":214.46437150000213,"velocity":0.8818897637795275,"duration":0.16889887708333617},{"name":"G5","midi":79,"time":214.46437150000213,"velocity":0.8818897637795275,"duration":0.16889887708333617},{"name":"G4","midi":67,"time":214.64294300000213,"velocity":0.8818897637795275,"duration":0.3385418020833413},{"name":"C5","midi":72,"time":214.64294300000213,"velocity":0.8818897637795275,"duration":0.3385418020833413},{"name":"E5","midi":76,"time":214.64294300000213,"velocity":0.8818897637795275,"duration":0.3385418020833413},{"name":"G5","midi":79,"time":214.64294300000213,"velocity":0.8818897637795275,"duration":0.3385418020833413},{"name":"G4","midi":67,"time":215.35722900000215,"velocity":0.8818897637795275,"duration":0.3385418020833413},{"name":"A#4","midi":70,"time":215.35722900000215,"velocity":0.8818897637795275,"duration":0.3385418020833413},{"name":"D5","midi":74,"time":215.35722900000215,"velocity":0.8818897637795275,"duration":0.3385418020833413},{"name":"G5","midi":79,"time":215.35722900000215,"velocity":0.8818897637795275,"duration":0.3385418020833413},{"name":"G4","midi":67,"time":215.71437200000216,"velocity":0.8031496062992126,"duration":0.16889887708333617},{"name":"A#4","midi":70,"time":215.89294350000216,"velocity":0.7559055118110236,"duration":0.16889887708333617},{"name":"D5","midi":74,"time":216.07151500000217,"velocity":0.7165354330708661,"duration":0.16889887708333617},{"name":"G5","midi":79,"time":216.25008650000217,"velocity":0.6771653543307087,"duration":0.16889887708333617},{"name":"F4","midi":65,"time":216.42865800000217,"velocity":0.6299212598425197,"duration":0.3385418020833413},{"name":"A4","midi":69,"time":216.42865800000217,"velocity":0.6299212598425197,"duration":0.3385418020833413},{"name":"D5","midi":74,"time":216.42865800000217,"velocity":0.6299212598425197,"duration":0.3385418020833413},{"name":"F5","midi":77,"time":216.42865800000217,"velocity":0.6299212598425197,"duration":0.3385418020833413},{"name":"F4","midi":65,"time":216.78580100000218,"velocity":0.6299212598425197,"duration":0.16889887708333617},{"name":"A4","midi":69,"time":216.96437250000218,"velocity":0.6299212598425197,"duration":0.16889887708333617},{"name":"D5","midi":74,"time":217.1429440000022,"velocity":0.6299212598425197,"duration":0.16889887708333617},{"name":"F5","midi":77,"time":217.3215155000022,"velocity":0.6299212598425197,"duration":0.16889887708333617},{"name":"G4","midi":67,"time":217.5000870000022,"velocity":0.6299212598425197,"duration":0.3385418020833413},{"name":"C5","midi":72,"time":217.5000870000022,"velocity":0.6299212598425197,"duration":0.3385418020833413},{"name":"E5","midi":76,"time":217.5000870000022,"velocity":0.6299212598425197,"duration":0.3385418020833413},{"name":"D5","midi":74,"time":217.8572300000022,"velocity":0.6299212598425197,"duration":0.3385418020833413},{"name":"F5","midi":77,"time":217.8572300000022,"velocity":0.6299212598425197,"duration":0.3385418020833413},{"name":"G4","midi":67,"time":218.2143730000022,"velocity":0.6299212598425197,"duration":0.3385418020833413},{"name":"C5","midi":72,"time":218.2143730000022,"velocity":0.6299212598425197,"duration":0.3385418020833413},{"name":"E5","midi":76,"time":218.2143730000022,"velocity":0.6299212598425197,"duration":0.3385418020833413},{"name":"F4","midi":65,"time":218.57151600000222,"velocity":0.6299212598425197,"duration":1.0171135020833333},{"name":"A4","midi":69,"time":218.57151600000222,"velocity":0.6299212598425197,"duration":1.0171135020833333},{"name":"D5","midi":74,"time":218.57151600000222,"velocity":0.6299212598425197,"duration":1.0171135020833333},{"name":"D4","midi":62,"time":221.78580300000223,"velocity":0.5039370078740157,"duration":0.16889887708333617},{"name":"F4","midi":65,"time":221.96437450000224,"velocity":0.5039370078740157,"duration":0.16889887708333617},{"name":"A4","midi":69,"time":222.14294600000224,"velocity":0.5039370078740157,"duration":0.16889887708333617},{"name":"F4","midi":65,"time":222.32151750000224,"velocity":0.5039370078740157,"duration":0.16889887708333617},{"name":"A4","midi":69,"time":222.50008900000225,"velocity":0.5039370078740157,"duration":0.16889887708333617},{"name":"D5","midi":74,"time":222.67866050000225,"velocity":0.5039370078740157,"duration":0.16889887708333617},{"name":"A4","midi":69,"time":222.85723200000226,"velocity":0.5039370078740157,"duration":0.16889887708333617},{"name":"D5","midi":74,"time":223.03580350000226,"velocity":0.5039370078740157,"duration":0.16889887708333617},{"name":"F5","midi":77,"time":223.21437500000226,"velocity":0.5039370078740157,"duration":0.16889887708333617},{"name":"D5","midi":74,"time":223.39294650000227,"velocity":0.5039370078740157,"duration":0.16889887708333617},{"name":"F5","midi":77,"time":223.57151800000227,"velocity":0.5039370078740157,"duration":0.16889887708333617},{"name":"A5","midi":81,"time":223.75008950000228,"velocity":0.5039370078740157,"duration":0.16889887708333617},{"name":"D5","midi":74,"time":223.92866100000228,"velocity":0.5039370078740157,"duration":0.16889887708333617},{"name":"F5","midi":77,"time":224.10723250000228,"velocity":0.5039370078740157,"duration":0.16889887708333617},{"name":"A5","midi":81,"time":224.2858040000023,"velocity":0.5039370078740157,"duration":0.16889887708333617},{"name":"D6","midi":86,"time":224.4643755000023,"velocity":0.5039370078740157,"duration":0.16889887708333617},{"name":"A5","midi":81,"time":224.6429470000023,"velocity":0.5039370078740157,"duration":0.16889887708333617},{"name":"D6","midi":86,"time":224.8215185000023,"velocity":0.5039370078740157,"duration":0.16889887708333617},{"name":"F6","midi":89,"time":225.0000900000023,"velocity":0.5039370078740157,"duration":0.16889887708333617},{"name":"A5","midi":81,"time":225.1786615000023,"velocity":0.5039370078740157,"duration":0.16889887708333617},{"name":"D6","midi":86,"time":225.3572330000023,"velocity":0.5039370078740157,"duration":0.16889887708333617},{"name":"F6","midi":89,"time":225.5358045000023,"velocity":0.5039370078740157,"duration":0.16889887708333617},{"name":"D5","midi":74,"time":225.71437600000232,"velocity":0.5039370078740157,"duration":1.034970652083274},{"name":"F5","midi":77,"time":225.7300010062523,"velocity":0.5039370078740157,"duration":1.0186015979166143},{"name":"A5","midi":81,"time":225.7456260125023,"velocity":0.5039370078740157,"duration":1.0029765916666236},{"name":"D6","midi":86,"time":225.7612510187523,"velocity":0.5039370078740157,"duration":0.9873515854166328},{"name":"F6","midi":89,"time":225.77687602500228,"velocity":0.5039370078740157,"duration":0.9717265791666421},{"name":"A6","midi":93,"time":225.79324507916894,"velocity":0.5039370078740157,"duration":0.9553575249999824},{"name":"D7","midi":98,"time":225.80887008541893,"velocity":0.5039370078740157,"duration":0.9397325187499916},{"name":"E5","midi":76,"time":226.78580500000226,"velocity":0.5039370078740157,"duration":0.3385418020833413},{"name":"E6","midi":88,"time":226.78580500000226,"velocity":0.5039370078740157,"duration":0.3385418020833413},{"name":"F5","midi":77,"time":227.14294800000226,"velocity":0.3858267716535433,"duration":0.7135419520833466},{"name":"A5","midi":81,"time":227.18982301875226,"velocity":0.3858267716535433,"duration":0.665922885416677},{"name":"F6","midi":89,"time":227.23744208541893,"velocity":0.3858267716535433,"duration":0.6183038187500074},{"name":"G6","midi":91,"time":227.85723400000228,"velocity":0.3858267716535433,"duration":0.3563989520833388},{"name":"A5","midi":81,"time":228.2143770000023,"velocity":0.3858267716535433,"duration":0.3563989520833388},{"name":"D6","midi":86,"time":228.2612520187523,"velocity":0.3858267716535433,"duration":0.30877988541666923},{"name":"F6","midi":89,"time":228.30887108541896,"velocity":0.3858267716535433,"duration":0.26116081874999963},{"name":"A6","midi":93,"time":228.3572342000023,"velocity":0.3858267716535433,"duration":0.21354175208333004},{"name":"C7","midi":96,"time":228.9286630000023,"velocity":0.3858267716535433,"duration":0.17782745208333495},{"name":"A#6","midi":94,"time":229.1072345000023,"velocity":0.3858267716535433,"duration":0.17782745208333495},{"name":"D6","midi":86,"time":229.2858060000023,"velocity":0.3858267716535433,"duration":0.7135419520833466},{"name":"F6","midi":89,"time":229.3326810187523,"velocity":0.3858267716535433,"duration":0.665922885416677},{"name":"A6","midi":93,"time":229.38030008541898,"velocity":0.3858267716535433,"duration":0.6183038187500074},{"name":"D6","midi":86,"time":230.00009200000233,"velocity":0.3858267716535433,"duration":0.3563989520833388},{"name":"A6","midi":93,"time":230.35723500000233,"velocity":0.3858267716535433,"duration":0.6778276520833231},{"name":"A#6","midi":94,"time":231.07152100000232,"velocity":0.3858267716535433,"duration":0.3563989520833388},{"name":"C6","midi":84,"time":231.42866400000233,"velocity":0.3858267716535433,"duration":0.7135419520833466},{"name":"E6","midi":88,"time":231.47553901875233,"velocity":0.3858267716535433,"duration":0.665922885416677},{"name":"C7","midi":96,"time":231.523158085419,"velocity":0.3858267716535433,"duration":0.6183038187500074},{"name":"D7","midi":98,"time":232.14295000000234,"velocity":0.3858267716535433,"duration":0.17782745208333495},{"name":"A#6","midi":94,"time":232.32152150000235,"velocity":0.3858267716535433,"duration":0.17782745208333495},{"name":"D6","midi":86,"time":232.50009300000235,"velocity":0.3858267716535433,"duration":0.3563989520833388},{"name":"F6","midi":89,"time":232.54696801875235,"velocity":0.3858267716535433,"duration":0.30877988541666923},{"name":"A6","midi":93,"time":232.59458708541902,"velocity":0.3858267716535433,"duration":0.26116081874999963},{"name":"G6","midi":91,"time":233.21437900000237,"velocity":0.3858267716535433,"duration":0.3563989520833388},{"name":"A6","midi":93,"time":233.57152200000237,"velocity":0.3858267716535433,"duration":0.3563989520833388},{"name":"A5","midi":81,"time":233.92866500000238,"velocity":0.3858267716535433,"duration":0.3563989520833388},{"name":"D6","midi":86,"time":234.2858080000024,"velocity":0.3858267716535433,"duration":0.3563989520833388},{"name":"A#5","midi":82,"time":234.6429510000024,"velocity":0.4566929133858268,"duration":0.3563989520833388},{"name":"A#6","midi":94,"time":234.6429510000024,"velocity":0.4566929133858268,"duration":0.3563989520833388},{"name":"C6","midi":84,"time":235.3572370000024,"velocity":0.3858267716535433,"duration":0.3563989520833388},{"name":"E6","midi":88,"time":235.40411201875241,"velocity":0.3858267716535433,"duration":0.30877988541666923},{"name":"C7","midi":96,"time":235.45173108541908,"velocity":0.3858267716535433,"duration":0.26116081874999963},{"name":"D6","midi":86,"time":235.71438000000242,"velocity":0.3858267716535433,"duration":0.3563989520833388},{"name":"F6","midi":89,"time":235.76125501875242,"velocity":0.3858267716535433,"duration":0.30877988541666923},{"name":"A6","midi":93,"time":235.8088740854191,"velocity":0.3858267716535433,"duration":0.26116081874999963},{"name":"F6","midi":89,"time":236.42866600000244,"velocity":0.3858267716535433,"duration":0.3563989520833388},{"name":"A#5","midi":82,"time":236.78580900000244,"velocity":0.3858267716535433,"duration":0.3563989520833388},{"name":"D6","midi":86,"time":236.83268401875245,"velocity":0.3858267716535433,"duration":0.30877988541666923},{"name":"E6","midi":88,"time":236.88030308541911,"velocity":0.3858267716535433,"duration":0.26116081874999963},{"name":"G6","midi":91,"time":236.92866620000245,"velocity":0.3858267716535433,"duration":0.21354175208333004},{"name":"A#5","midi":82,"time":237.50009500000246,"velocity":0.3858267716535433,"duration":0.17782745208336337},{"name":"E6","midi":88,"time":237.53134501250247,"velocity":0.3858267716535433,"duration":0.14657743958335345},{"name":"G6","midi":91,"time":237.56259502500248,"velocity":0.3858267716535433,"duration":0.11532742708334354},{"name":"A#6","midi":94,"time":237.5938450375025,"velocity":0.3858267716535433,"duration":0.08407741458333362},{"name":"A6","midi":93,"time":237.6786665000025,"velocity":0.3858267716535433,"duration":0.16889887708333617},{"name":"F6","midi":89,"time":237.8572380000025,"velocity":0.3858267716535433,"duration":0.3385418020833413},{"name":"A5","midi":81,"time":238.2143810000025,"velocity":0.3858267716535433,"duration":0.3385418020833413},{"name":"D6","midi":86,"time":238.5715240000025,"velocity":0.3858267716535433,"duration":0.3385418020833413},{"name":"E6","midi":88,"time":238.92866700000252,"velocity":0.3858267716535433,"duration":0.6778276520833231},{"name":"C6","midi":84,"time":239.6429530000025,"velocity":0.3858267716535433,"duration":0.3385418020833413},{"name":"F5","midi":77,"time":240.00009600000251,"velocity":0.3858267716535433,"duration":0.7135419520833466},{"name":"A5","midi":81,"time":240.04697101875252,"velocity":0.3858267716535433,"duration":0.665922885416677},{"name":"D6","midi":86,"time":240.09459008541918,"velocity":0.3858267716535433,"duration":0.6183038187500074},{"name":"E6","midi":88,"time":240.71438200000253,"velocity":0.3858267716535433,"duration":0.3563989520833388},{"name":"F5","midi":77,"time":241.07152500000254,"velocity":0.3858267716535433,"duration":0.7135419520833466},{"name":"A5","midi":81,"time":241.11840001875254,"velocity":0.3858267716535433,"duration":0.665922885416677},{"name":"D6","midi":86,"time":241.1660190854192,"velocity":0.3858267716535433,"duration":0.6183038187500074},{"name":"A5","midi":81,"time":241.78581100000255,"velocity":0.3858267716535433,"duration":0.23735128541667905},{"name":"A5","midi":81,"time":242.0239063333359,"velocity":0.3858267716535433,"duration":0.23735128541667905},{"name":"C6","midi":84,"time":242.26200166666925,"velocity":0.3858267716535433,"duration":0.23735128541667905},{"name":"D5","midi":74,"time":242.5000970000026,"velocity":0.3858267716535433,"duration":0.5349704520833427},{"name":"F5","midi":77,"time":242.5469720187526,"velocity":0.3858267716535433,"duration":0.4873513854166731},{"name":"A5","midi":81,"time":242.59459108541927,"velocity":0.3858267716535433,"duration":0.4397323187500035},{"name":"D6","midi":86,"time":242.64221015208594,"velocity":0.3858267716535433,"duration":0.3921132520833339},{"name":"E4","midi":64,"time":243.39295450000262,"velocity":0.3858267716535433,"duration":0.3385418020833413},{"name":"C5","midi":72,"time":243.39295450000262,"velocity":0.3858267716535433,"duration":0.3385418020833413},{"name":"E5","midi":76,"time":243.39295450000262,"velocity":0.3858267716535433,"duration":0.3385418020833413},{"name":"F4","midi":65,"time":243.75009750000262,"velocity":0.3858267716535433,"duration":0.5349704520833427},{"name":"A4","midi":69,"time":243.79697251875263,"velocity":0.3858267716535433,"duration":0.4873513854166731},{"name":"C5","midi":72,"time":243.8445915854193,"velocity":0.3858267716535433,"duration":0.4397323187500035},{"name":"F5","midi":77,"time":243.89221065208596,"velocity":0.3858267716535433,"duration":0.3921132520833339},{"name":"F4","midi":65,"time":244.28581200000264,"velocity":0.3858267716535433,"duration":0.16889887708333617},{"name":"G4","midi":67,"time":244.46438350000264,"velocity":0.3858267716535433,"duration":0.3385418020833413},{"name":"E5","midi":76,"time":244.46438350000264,"velocity":0.3858267716535433,"duration":0.3385418020833413},{"name":"G5","midi":79,"time":244.46438350000264,"velocity":0.3858267716535433,"duration":0.3385418020833413},{"name":"A4","midi":69,"time":244.82152650000265,"velocity":0.5039370078740157,"duration":0.6778276520833231},{"name":"D5","midi":74,"time":244.82152650000265,"velocity":0.5039370078740157,"duration":0.6778276520833231},{"name":"F5","midi":77,"time":244.82152650000265,"velocity":0.5039370078740157,"duration":0.6778276520833231},{"name":"A5","midi":81,"time":244.82152650000265,"velocity":0.5039370078740157,"duration":0.6778276520833231},{"name":"C6","midi":84,"time":245.53581250000263,"velocity":0.5039370078740157,"duration":0.17782745208333495},{"name":"A#5","midi":82,"time":245.71438400000264,"velocity":0.5039370078740157,"duration":0.17782745208333495},{"name":"D5","midi":74,"time":245.89295550000264,"velocity":0.5039370078740157,"duration":0.7135419520833466},{"name":"F5","midi":77,"time":245.93983051875264,"velocity":0.5039370078740157,"duration":0.665922885416677},{"name":"A5","midi":81,"time":245.9874495854193,"velocity":0.5039370078740157,"duration":0.6183038187500074},{"name":"A4","midi":69,"time":246.96438450000267,"velocity":0.5039370078740157,"duration":0.6778276520833231},{"name":"A5","midi":81,"time":246.96438450000267,"velocity":0.5039370078740157,"duration":0.6778276520833231},{"name":"A#4","midi":70,"time":247.67867050000265,"velocity":0.5826771653543307,"duration":0.3385418020833413},{"name":"A#5","midi":82,"time":247.67867050000265,"velocity":0.5826771653543307,"duration":0.3385418020833413},{"name":"C5","midi":72,"time":248.03581350000266,"velocity":0.6299212598425197,"duration":0.5349704520833427},{"name":"E5","midi":76,"time":248.08268851875266,"velocity":0.6299212598425197,"duration":0.4873513854166731},{"name":"G5","midi":79,"time":248.13030758541933,"velocity":0.6299212598425197,"duration":0.4397323187500035},{"name":"C6","midi":84,"time":248.177926652086,"velocity":0.6299212598425197,"duration":0.3921132520833339},{"name":"D6","midi":86,"time":248.75009950000268,"velocity":0.6299212598425197,"duration":0.16889887708333617},{"name":"A#5","midi":82,"time":248.92867100000268,"velocity":0.6299212598425197,"duration":0.16889887708333617},{"name":"D5","midi":74,"time":249.10724250000268,"velocity":0.6299212598425197,"duration":0.3563989520833388},{"name":"F5","midi":77,"time":249.15411751875268,"velocity":0.6299212598425197,"duration":0.30877988541666923},{"name":"A5","midi":81,"time":249.20173658541935,"velocity":0.6299212598425197,"duration":0.26116081874999963},{"name":"E4","midi":64,"time":249.8215285000027,"velocity":0.6299212598425197,"duration":0.3385418020833413},{"name":"C5","midi":72,"time":249.8215285000027,"velocity":0.6299212598425197,"duration":0.3385418020833413},{"name":"E5","midi":76,"time":249.8215285000027,"velocity":0.6299212598425197,"duration":0.3385418020833413},{"name":"F4","midi":65,"time":250.1786715000027,"velocity":0.6299212598425197,"duration":0.7135419520833466},{"name":"A#4","midi":70,"time":250.2255465187527,"velocity":0.6299212598425197,"duration":0.665922885416677},{"name":"D5","midi":74,"time":250.27316558541938,"velocity":0.6299212598425197,"duration":0.6183038187500074},{"name":"F5","midi":77,"time":250.32152870000272,"velocity":0.6299212598425197,"duration":0.5706847520833378},{"name":"A#4","midi":70,"time":251.25010050000273,"velocity":0.6299212598425197,"duration":0.6778276520833231},{"name":"D5","midi":74,"time":251.25010050000273,"velocity":0.6299212598425197,"duration":0.6778276520833231},{"name":"A#5","midi":82,"time":251.25010050000273,"velocity":0.6299212598425197,"duration":0.6778276520833231},{"name":"C5","midi":72,"time":251.96438650000272,"velocity":0.6299212598425197,"duration":0.3385418020833413},{"name":"E5","midi":76,"time":251.96438650000272,"velocity":0.6299212598425197,"duration":0.3385418020833413},{"name":"C6","midi":84,"time":251.96438650000272,"velocity":0.6299212598425197,"duration":0.3385418020833413},{"name":"A4","midi":69,"time":252.32152950000273,"velocity":0.6299212598425197,"duration":0.3563989520833388},{"name":"E5","midi":76,"time":252.36840451875273,"velocity":0.6299212598425197,"duration":0.30877988541666923},{"name":"F5","midi":77,"time":252.4160235854194,"velocity":0.6299212598425197,"duration":0.26116081874999963},{"name":"A5","midi":81,"time":252.46438670000273,"velocity":0.6299212598425197,"duration":0.21354175208333004},{"name":"D5","midi":74,"time":252.67867250000273,"velocity":0.6299212598425197,"duration":0.3563989520833388},{"name":"D5","midi":74,"time":253.03581550000274,"velocity":0.6299212598425197,"duration":0.17782745208333495},{"name":"F5","midi":77,"time":253.21438700000274,"velocity":0.6299212598425197,"duration":0.17782745208333495},{"name":"G4","midi":67,"time":253.39295850000275,"velocity":0.6299212598425197,"duration":0.3385418020833413},{"name":"A#4","midi":70,"time":253.39295850000275,"velocity":0.6299212598425197,"duration":0.3385418020833413},{"name":"D5","midi":74,"time":253.39295850000275,"velocity":0.6299212598425197,"duration":0.3385418020833413},{"name":"G5","midi":79,"time":253.39295850000275,"velocity":0.6299212598425197,"duration":0.3385418020833413},{"name":"A#4","midi":70,"time":254.10724450000276,"velocity":0.6299212598425197,"duration":0.17782745208336337},{"name":"C#5","midi":73,"time":254.13849451250277,"velocity":0.6299212598425197,"duration":0.14657743958335345},{"name":"E5","midi":76,"time":254.16974452500278,"velocity":0.6299212598425197,"duration":0.11532742708334354},{"name":"A#5","midi":82,"time":254.2009945375028,"velocity":0.6299212598425197,"duration":0.08407741458333362},{"name":"A4","midi":69,"time":254.2858160000028,"velocity":0.6299212598425197,"duration":0.16889887708333617},{"name":"A5","midi":81,"time":254.2858160000028,"velocity":0.6299212598425197,"duration":0.16889887708333617},{"name":"F5","midi":77,"time":254.4643875000028,"velocity":0.6299212598425197,"duration":0.3385418020833413},{"name":"F4","midi":65,"time":255.17867350000282,"velocity":0.6299212598425197,"duration":0.3385418020833413},{"name":"D5","midi":74,"time":255.17867350000282,"velocity":0.6299212598425197,"duration":0.3385418020833413},{"name":"E4","midi":64,"time":255.53581650000282,"velocity":0.6299212598425197,"duration":0.7135419520833182},{"name":"G4","midi":67,"time":255.58269151875282,"velocity":0.6299212598425197,"duration":0.6659228854166486},{"name":"C5","midi":72,"time":255.6303105854195,"velocity":0.6299212598425197,"duration":0.618303818749979},{"name":"E5","midi":76,"time":255.67867370000283,"velocity":0.6299212598425197,"duration":0.5706847520833094},{"name":"C5","midi":72,"time":256.2501025000028,"velocity":0.5039370078740157,"duration":0.16889887708333617},{"name":"A4","midi":69,"time":256.4286740000028,"velocity":0.5039370078740157,"duration":0.17782745208324968},{"name":"C5","midi":72,"time":256.45992401250277,"velocity":0.5039370078740157,"duration":0.1465774395832682},{"name":"E5","midi":76,"time":256.49117402500275,"velocity":0.5039370078740157,"duration":0.1153274270832867},{"name":"A5","midi":81,"time":256.52242403750273,"velocity":0.5039370078740157,"duration":0.0840774145833052},{"name":"A4","midi":69,"time":256.6072455000027,"velocity":0.4881889763779528,"duration":0.16889887708333617},{"name":"C5","midi":72,"time":256.6072455000027,"velocity":0.4881889763779528,"duration":0.16889887708333617},{"name":"E5","midi":76,"time":256.6072455000027,"velocity":0.4881889763779528,"duration":0.16889887708333617},{"name":"A5","midi":81,"time":256.6072455000027,"velocity":0.4881889763779528,"duration":0.16889887708333617},{"name":"E5","midi":76,"time":256.7858170000027,"velocity":0.47244094488188976,"duration":0.16889887708333617},{"name":"D4","midi":62,"time":256.96438850000266,"velocity":0.4566929133858268,"duration":0.3385418020833413},{"name":"F4","midi":65,"time":256.96438850000266,"velocity":0.4566929133858268,"duration":0.3385418020833413},{"name":"D5","midi":74,"time":256.96438850000266,"velocity":0.4566929133858268,"duration":0.3385418020833413},{"name":"D4","midi":62,"time":257.67867450000267,"velocity":0.3858267716535433,"duration":0.08333336666669311},{"name":"D3","midi":50,"time":257.76721620208605,"velocity":0.3858267716535433,"duration":0.08333336666669311},{"name":"A3","midi":57,"time":257.76721620208605,"velocity":0.3858267716535433,"duration":0.08333336666669311},{"name":"D4","midi":62,"time":257.8565019520861,"velocity":0.3858267716535433,"duration":0.08333336666669311},{"name":"D3","midi":50,"time":257.94504365416947,"velocity":0.3858267716535433,"duration":0.08333336666669311},{"name":"A3","midi":57,"time":257.94504365416947,"velocity":0.3858267716535433,"duration":0.08333336666669311},{"name":"D4","midi":62,"time":258.0343294041695,"velocity":0.3858267716535433,"duration":0.08333336666669311},{"name":"D3","midi":50,"time":258.1228711062529,"velocity":0.3858267716535433,"duration":0.08333336666669311},{"name":"A3","midi":57,"time":258.1228711062529,"velocity":0.3858267716535433,"duration":0.08333336666669311},{"name":"D4","midi":62,"time":258.21215685625293,"velocity":0.3858267716535433,"duration":0.08333336666669311},{"name":"D3","midi":50,"time":258.3006985583363,"velocity":0.3858267716535433,"duration":0.08333336666669311},{"name":"A3","midi":57,"time":258.3006985583363,"velocity":0.3858267716535433,"duration":0.08333336666669311},{"name":"D4","midi":62,"time":258.38998430833635,"velocity":0.3858267716535433,"duration":0.08333336666669311},{"name":"D3","midi":50,"time":258.4785260104197,"velocity":0.3858267716535433,"duration":0.08333336666669311},{"name":"A3","midi":57,"time":258.4785260104197,"velocity":0.3858267716535433,"duration":0.08333336666669311},{"name":"D4","midi":62,"time":258.5678117604198,"velocity":0.3858267716535433,"duration":0.08333336666669311},{"name":"D3","midi":50,"time":258.65635346250315,"velocity":0.3858267716535433,"duration":0.08333336666669311},{"name":"A3","midi":57,"time":258.65635346250315,"velocity":0.3858267716535433,"duration":0.08333336666669311},{"name":"D4","midi":62,"time":258.75010350000315,"velocity":0.5669291338582677,"duration":0.08333336666669311},{"name":"D3","midi":50,"time":258.8386452020865,"velocity":0.5669291338582677,"duration":0.08333336666669311},{"name":"A3","midi":57,"time":258.8386452020865,"velocity":0.5669291338582677,"duration":0.08333336666669311},{"name":"D4","midi":62,"time":258.92793095208657,"velocity":0.5669291338582677,"duration":0.08333336666669311},{"name":"D3","midi":50,"time":259.01647265416995,"velocity":0.5669291338582677,"duration":0.08333336666669311},{"name":"A3","midi":57,"time":259.01647265416995,"velocity":0.5669291338582677,"duration":0.08333336666669311},{"name":"D4","midi":62,"time":259.10575840417,"velocity":0.5669291338582677,"duration":0.08333336666669311},{"name":"D3","midi":50,"time":259.19430010625337,"velocity":0.5669291338582677,"duration":0.08333336666669311},{"name":"A3","midi":57,"time":259.19430010625337,"velocity":0.5669291338582677,"duration":0.08333336666669311},{"name":"D4","midi":62,"time":259.2835858562534,"velocity":0.5669291338582677,"duration":0.08333336666669311},{"name":"D3","midi":50,"time":259.3721275583368,"velocity":0.5669291338582677,"duration":0.08333336666669311},{"name":"A3","midi":57,"time":259.3721275583368,"velocity":0.5669291338582677,"duration":0.08333336666669311},{"name":"D4","midi":62,"time":259.46141330833683,"velocity":0.5669291338582677,"duration":0.08333336666669311},{"name":"D3","midi":50,"time":259.5499550104202,"velocity":0.5669291338582677,"duration":0.08333336666669311},{"name":"A3","midi":57,"time":259.5499550104202,"velocity":0.5669291338582677,"duration":0.08333336666669311},{"name":"D4","midi":62,"time":259.63924076042025,"velocity":0.5669291338582677,"duration":0.08333336666669311},{"name":"D3","midi":50,"time":259.7277824625036,"velocity":0.5669291338582677,"duration":0.08333336666669311},{"name":"A3","midi":57,"time":259.7277824625036,"velocity":0.5669291338582677,"duration":0.08333336666669311},{"name":"D3","midi":50,"time":259.8215325000036,"velocity":0.7559055118110236,"duration":0.3385418020833413},{"name":"A3","midi":57,"time":259.8215325000036,"velocity":0.7559055118110236,"duration":0.3385418020833413},{"name":"D4","midi":62,"time":259.8215325000036,"velocity":0.7559055118110236,"duration":0.3385418020833413},{"name":"D4","midi":62,"time":260.17867550000364,"velocity":0.7559055118110236,"duration":0.3385418020833413},{"name":"D4","midi":62,"time":260.53581850000364,"velocity":0.7559055118110236,"duration":0.16889887708333617},{"name":"D4","midi":62,"time":260.7143900000036,"velocity":0.7559055118110236,"duration":0.16889887708333617},{"name":"D4","midi":62,"time":260.8929615000036,"velocity":0.7559055118110236,"duration":0.3385418020833413},{"name":"D4","midi":62,"time":261.2501045000036,"velocity":0.7559055118110236,"duration":0.3385418020833413},{"name":"D4","midi":62,"time":261.6072475000036,"velocity":0.7559055118110236,"duration":0.3385418020833413},{"name":"D4","midi":62,"time":261.9643905000036,"velocity":0.7559055118110236,"duration":0.3385418020833413},{"name":"D4","midi":62,"time":262.3215335000036,"velocity":0.7559055118110236,"duration":0.3385418020833413},{"name":"D4","midi":62,"time":262.67867650000363,"velocity":0.7559055118110236,"duration":0.16889887708333617},{"name":"D4","midi":62,"time":262.8572480000036,"velocity":0.7559055118110236,"duration":0.16889887708333617},{"name":"D4","midi":62,"time":263.0358195000036,"velocity":0.7559055118110236,"duration":0.3385418020833413},{"name":"D4","midi":62,"time":263.3929625000036,"velocity":0.7559055118110236,"duration":0.3385418020833413},{"name":"D4","midi":62,"time":263.7501055000036,"velocity":0.7559055118110236,"duration":0.3385418020833413},{"name":"D4","midi":62,"time":264.1072485000036,"velocity":0.7559055118110236,"duration":0.3385418020833413},{"name":"D4","midi":62,"time":264.4643915000036,"velocity":0.7559055118110236,"duration":0.3385418020833413},{"name":"D4","midi":62,"time":264.8215345000036,"velocity":0.7559055118110236,"duration":0.3385418020833413},{"name":"D4","midi":62,"time":265.17867750000363,"velocity":0.7559055118110236,"duration":0.3385418020833413},{"name":"D4","midi":62,"time":265.53582050000364,"velocity":0.7559055118110236,"duration":0.3385418020833413},{"name":"F4","midi":65,"time":266.25010650000365,"velocity":0.7559055118110236,"duration":0.3385418020833413},{"name":"E4","midi":64,"time":266.60724950000366,"velocity":0.7559055118110236,"duration":0.3385418020833413},{"name":"D4","midi":62,"time":266.96439250000367,"velocity":0.7559055118110236,"duration":0.3385418020833413},{"name":"E4","midi":64,"time":266.96439250000367,"velocity":0.7559055118110236,"duration":0.3385418020833413},{"name":"A4","midi":69,"time":267.3215355000037,"velocity":0.7559055118110236,"duration":0.055803593749999436},{"name":"E4","midi":64,"time":267.3215355000037,"velocity":0.7559055118110236,"duration":1.0171135020835322},{"name":"A#4","midi":70,"time":267.381059333337,"velocity":0.7559055118110236,"duration":0.055803593749999436},{"name":"A4","midi":69,"time":267.44132721458703,"velocity":0.7559055118110236,"duration":0.055803593749999436},{"name":"A#4","midi":70,"time":267.5008510479204,"velocity":0.7559055118110236,"duration":0.055803593749999436},{"name":"A4","midi":69,"time":267.56260702500373,"velocity":0.7559055118110236,"duration":0.055803593749999436},{"name":"A#4","midi":70,"time":267.6221308583371,"velocity":0.7559055118110236,"duration":0.055803593749999436},{"name":"A4","midi":69,"time":267.6823987395871,"velocity":0.7559055118110236,"duration":0.055803593749999436},{"name":"A#4","midi":70,"time":267.74192257292043,"velocity":0.7559055118110236,"duration":0.055803593749999436},{"name":"A4","midi":69,"time":267.8036785500038,"velocity":0.7559055118110236,"duration":0.055803593749999436},{"name":"A#4","midi":70,"time":267.8632023833371,"velocity":0.7559055118110236,"duration":0.055803593749999436},{"name":"A4","midi":69,"time":267.92347026458714,"velocity":0.7559055118110236,"duration":0.055803593749999436},{"name":"A#4","midi":70,"time":267.9829940979205,"velocity":0.7559055118110236,"duration":0.055803593749999436},{"name":"A4","midi":69,"time":268.04475007500383,"velocity":0.7559055118110236,"duration":0.055803593749999436},{"name":"A#4","midi":70,"time":268.1042739083372,"velocity":0.7559055118110236,"duration":0.055803593749999436},{"name":"A4","midi":69,"time":268.1645417895872,"velocity":0.7559055118110236,"duration":0.055803593749999436},{"name":"A#4","midi":70,"time":268.22406562292053,"velocity":0.7559055118110236,"duration":0.15773815833335902},{"name":"D4","midi":62,"time":268.39296450000387,"velocity":0.7559055118110236,"duration":0.3385418020833413},{"name":"D4","midi":62,"time":268.7501075000039,"velocity":0.7559055118110236,"duration":0.3385418020833413},{"name":"D4","midi":62,"time":269.1072505000039,"velocity":0.7559055118110236,"duration":0.16889887708333617},{"name":"D4","midi":62,"time":269.28582200000386,"velocity":0.7559055118110236,"duration":0.16889887708333617},{"name":"D4","midi":62,"time":269.46439350000384,"velocity":0.7559055118110236,"duration":0.3385418020833413},{"name":"D4","midi":62,"time":269.82153650000384,"velocity":0.7559055118110236,"duration":0.3385418020833413},{"name":"D4","midi":62,"time":270.17867950000385,"velocity":0.7559055118110236,"duration":0.3385418020833413},{"name":"D4","midi":62,"time":270.53582250000386,"velocity":0.7559055118110236,"duration":0.3385418020833413},{"name":"D4","midi":62,"time":270.89296550000387,"velocity":0.7559055118110236,"duration":0.3385418020833413},{"name":"D4","midi":62,"time":271.2501085000039,"velocity":0.7559055118110236,"duration":0.3385418020833413},{"name":"D4","midi":62,"time":271.6072515000039,"velocity":0.7559055118110236,"duration":0.3385418020833413},{"name":"D4","midi":62,"time":271.9643945000039,"velocity":0.7559055118110236,"duration":0.3385418020833413},{"name":"D4","midi":62,"time":272.3215375000039,"velocity":0.7559055118110236,"duration":0.3385418020833413},{"name":"D4","midi":62,"time":272.6786805000039,"velocity":0.7559055118110236,"duration":0.3385418020833413},{"name":"D4","midi":62,"time":273.0358235000039,"velocity":0.7559055118110236,"duration":0.3385418020833413},{"name":"D4","midi":62,"time":273.3929665000039,"velocity":0.7559055118110236,"duration":0.3385418020833413},{"name":"D4","midi":62,"time":273.75010950000393,"velocity":0.7559055118110236,"duration":0.3385418020833413},{"name":"D4","midi":62,"time":274.10725250000394,"velocity":0.7559055118110236,"duration":0.3385418020833413},{"name":"D4","midi":62,"time":274.46439550000395,"velocity":0.7559055118110236,"duration":0.3385418020833413},{"name":"A4","midi":69,"time":274.82153850000395,"velocity":0.7559055118110236,"duration":0.055803593749999436},{"name":"E4","midi":64,"time":274.82153850000395,"velocity":0.7559055118110236,"duration":1.0171135020835322},{"name":"A#4","midi":70,"time":274.8810623333373,"velocity":0.7559055118110236,"duration":0.055803593749999436},{"name":"A4","midi":69,"time":274.9413302145873,"velocity":0.7559055118110236,"duration":0.055803593749999436},{"name":"A#4","midi":70,"time":275.00085404792065,"velocity":0.7559055118110236,"duration":0.055803593749999436},{"name":"A4","midi":69,"time":275.062610025004,"velocity":0.7559055118110236,"duration":0.055803593749999436},{"name":"A#4","midi":70,"time":275.12213385833735,"velocity":0.7559055118110236,"duration":0.055803593749999436},{"name":"A4","midi":69,"time":275.18240173958736,"velocity":0.7559055118110236,"duration":0.055803593749999436},{"name":"A#4","midi":70,"time":275.2419255729207,"velocity":0.7559055118110236,"duration":0.055803593749999436},{"name":"A4","midi":69,"time":275.30368155000406,"velocity":0.7559055118110236,"duration":0.055803593749999436},{"name":"A#4","midi":70,"time":275.3632053833374,"velocity":0.7559055118110236,"duration":0.055803593749999436},{"name":"A4","midi":69,"time":275.4234732645874,"velocity":0.7559055118110236,"duration":0.055803593749999436},{"name":"A#4","midi":70,"time":275.48299709792076,"velocity":0.7559055118110236,"duration":0.055803593749999436},{"name":"A4","midi":69,"time":275.5447530750041,"velocity":0.7559055118110236,"duration":0.055803593749999436},{"name":"A#4","midi":70,"time":275.60427690833745,"velocity":0.7559055118110236,"duration":0.055803593749999436},{"name":"A4","midi":69,"time":275.66454478958747,"velocity":0.7559055118110236,"duration":0.055803593749999436},{"name":"A#4","midi":70,"time":275.7240686229208,"velocity":0.7559055118110236,"duration":0.055803593749999436},{"name":"A4","midi":69,"time":275.78582460000416,"velocity":0.7559055118110236,"duration":0.055803593749999436},{"name":"A#4","midi":70,"time":275.8453484333375,"velocity":0.7559055118110236,"duration":0.055803593749999436},{"name":"A4","midi":69,"time":275.89296750000415,"velocity":0.7559055118110236,"duration":0.05580359375005628},{"name":"A4","midi":69,"time":275.89296750000415,"velocity":0.7559055118110236,"duration":0.05580359375005628},{"name":"A4","midi":69,"time":275.9056163145875,"velocity":0.7559055118110236,"duration":0.05580359375005628},{"name":"A#4","midi":70,"time":275.95249133333755,"velocity":0.7559055118110236,"duration":0.05580359375005628},{"name":"A#4","midi":70,"time":275.95249133333755,"velocity":0.7559055118110236,"duration":0.05580359375005628},{"name":"A#4","midi":70,"time":275.9651401479209,"velocity":0.7559055118110236,"duration":0.05580359375005628},{"name":"A4","midi":69,"time":276.0135032625043,"velocity":0.7559055118110236,"duration":0.05580359375005628},{"name":"A4","midi":69,"time":276.0135032625043,"velocity":0.7559055118110236,"duration":0.05580359375005628},{"name":"A4","midi":69,"time":276.0268961250043,"velocity":0.7559055118110236,"duration":0.055803593749999436},{"name":"A#4","midi":70,"time":276.0730270958377,"velocity":0.7559055118110236,"duration":0.055803593749999436},{"name":"A#4","midi":70,"time":276.0730270958377,"velocity":0.7559055118110236,"duration":0.055803593749999436},{"name":"A#4","midi":70,"time":276.0864199583377,"velocity":0.7559055118110236,"duration":0.05580359375005628},{"name":"A4","midi":69,"time":276.13403902500437,"velocity":0.7559055118110236,"duration":0.05580359375005628},{"name":"A4","midi":69,"time":276.13403902500437,"velocity":0.7559055118110236,"duration":0.05580359375005628},{"name":"A4","midi":69,"time":276.14668783958774,"velocity":0.7559055118110236,"duration":0.05580359375005628},{"name":"A#4","midi":70,"time":276.19356285833777,"velocity":0.7559055118110236,"duration":0.05580359375005628},{"name":"A#4","midi":70,"time":276.19356285833777,"velocity":0.7559055118110236,"duration":0.05580359375005628},{"name":"A#4","midi":70,"time":276.20621167292114,"velocity":0.7559055118110236,"duration":0.05580359375005628},{"name":"A4","midi":69,"time":276.2545747875045,"velocity":0.7559055118110236,"duration":0.05580359375005628},{"name":"A4","midi":69,"time":276.2545747875045,"velocity":0.7559055118110236,"duration":0.05580359375005628},{"name":"A4","midi":69,"time":276.26796765000455,"velocity":0.7559055118110236,"duration":0.055803593749999436},{"name":"A#4","midi":70,"time":276.3140986208379,"velocity":0.7559055118110236,"duration":0.10639885208331634},{"name":"A#4","midi":70,"time":276.3140986208379,"velocity":0.7559055118110236,"duration":0.10639885208331634},{"name":"A#4","midi":70,"time":276.3274914833379,"velocity":0.7559055118110236,"duration":0.0930059895833324},{"name":"D4","midi":62,"time":276.60725350000456,"velocity":0.7559055118110236,"duration":0.16889887708333617},{"name":"A4","midi":69,"time":276.78582500000454,"velocity":0.7559055118110236,"duration":0.16889887708333617},{"name":"F5","midi":77,"time":276.9643965000045,"velocity":0.7559055118110236,"duration":0.16889887708333617},{"name":"A4","midi":69,"time":277.3215395000045,"velocity":0.7559055118110236,"duration":0.16889887708333617},{"name":"F5","midi":77,"time":277.5001110000045,"velocity":0.7559055118110236,"duration":0.16889887708333617},{"name":"A4","midi":69,"time":277.8572540000045,"velocity":0.7559055118110236,"duration":0.16889887708333617},{"name":"E5","midi":76,"time":278.0358255000045,"velocity":0.7559055118110236,"duration":0.16889887708333617},{"name":"F5","midi":77,"time":278.21439700000445,"velocity":0.7559055118110236,"duration":0.16889887708333617},{"name":"E5","midi":76,"time":278.39296850000443,"velocity":0.7559055118110236,"duration":0.16889887708333617},{"name":"D5","midi":74,"time":278.5715400000044,"velocity":0.7559055118110236,"duration":0.16889887708333617},{"name":"A4","midi":69,"time":278.9286830000044,"velocity":0.7559055118110236,"duration":0.16889887708333617},{"name":"D5","midi":74,"time":279.1072545000044,"velocity":0.7559055118110236,"duration":0.16889887708333617},{"name":"F5","midi":77,"time":279.1072545000044,"velocity":0.7559055118110236,"duration":0.16889887708333617},{"name":"A4","midi":69,"time":279.4643975000044,"velocity":0.7559055118110236,"duration":0.16889887708333617},{"name":"F5","midi":77,"time":279.64296900000437,"velocity":0.7559055118110236,"duration":0.16889887708333617},{"name":"A4","midi":69,"time":280.0001120000044,"velocity":0.7559055118110236,"duration":0.16889887708333617},{"name":"E5","midi":76,"time":280.17868350000435,"velocity":0.7559055118110236,"duration":0.16889887708333617},{"name":"F5","midi":77,"time":280.35725500000433,"velocity":0.7559055118110236,"duration":0.16889887708333617},{"name":"E5","midi":76,"time":280.5358265000043,"velocity":0.7559055118110236,"duration":0.16889887708333617},{"name":"D5","midi":74,"time":280.7143980000043,"velocity":0.7559055118110236,"duration":0.16889887708333617},{"name":"A4","midi":69,"time":281.0715410000043,"velocity":0.7559055118110236,"duration":0.16889887708333617},{"name":"F5","midi":77,"time":281.25011250000426,"velocity":0.7559055118110236,"duration":0.16889887708333617},{"name":"A4","midi":69,"time":281.60725550000427,"velocity":0.7559055118110236,"duration":0.16889887708333617},{"name":"F5","midi":77,"time":281.78582700000425,"velocity":0.7559055118110236,"duration":0.16889887708333617},{"name":"A4","midi":69,"time":282.14297000000425,"velocity":0.7559055118110236,"duration":0.16889887708333617},{"name":"E5","midi":76,"time":282.32154150000423,"velocity":0.7559055118110236,"duration":0.16889887708333617},{"name":"F5","midi":77,"time":282.5001130000042,"velocity":0.7559055118110236,"duration":0.16889887708333617},{"name":"E5","midi":76,"time":282.6786845000042,"velocity":0.7559055118110236,"duration":0.16889887708333617},{"name":"D5","midi":74,"time":282.85725600000416,"velocity":0.7559055118110236,"duration":0.16889887708333617},{"name":"E5","midi":76,"time":283.03582750000413,"velocity":0.7559055118110236,"duration":0.16889887708333617},{"name":"F5","midi":77,"time":283.2143990000041,"velocity":0.7559055118110236,"duration":0.16889887708333617},{"name":"C5","midi":72,"time":283.3929705000041,"velocity":0.7559055118110236,"duration":0.16889887708333617},{"name":"E5","midi":76,"time":283.3929705000041,"velocity":0.7559055118110236,"duration":0.16889887708333617},{"name":"G5","midi":79,"time":283.3929705000041,"velocity":0.7559055118110236,"duration":0.16889887708333617},{"name":"C6","midi":84,"time":283.92868500000407,"velocity":0.7559055118110236,"duration":0.16889887708333617},{"name":"E5","midi":76,"time":284.46439950000405,"velocity":0.7559055118110236,"duration":0.06324407291668876},{"name":"F5","midi":77,"time":284.53210786042075,"velocity":0.7559055118110236,"duration":0.06324407291668876},{"name":"E5","midi":76,"time":284.6005602687541,"velocity":0.7559055118110236,"duration":0.06324407291668876},{"name":"F5","midi":77,"time":284.6690126770875,"velocity":0.7559055118110236,"duration":0.06324407291668876},{"name":"E5","midi":76,"time":284.73746508542087,"velocity":0.7559055118110236,"duration":0.06324407291668876},{"name":"F5","midi":77,"time":284.80591749375424,"velocity":0.7559055118110236,"duration":0.18229173958332012},{"name":"D5","midi":74,"time":285.0001140000042,"velocity":0.7559055118110236,"duration":0.16889887708333617},{"name":"C5","midi":72,"time":285.1786855000042,"velocity":0.7559055118110236,"duration":0.16889887708333617},{"name":"D5","midi":74,"time":285.35725700000415,"velocity":0.7559055118110236,"duration":0.16889887708333617},{"name":"F5","midi":77,"time":285.53582850000413,"velocity":0.7559055118110236,"duration":0.16889887708333617},{"name":"A4","midi":69,"time":285.89297150000414,"velocity":0.7559055118110236,"duration":0.16889887708333617},{"name":"F5","midi":77,"time":286.0715430000041,"velocity":0.7559055118110236,"duration":0.16889887708333617},{"name":"A4","midi":69,"time":286.4286860000041,"velocity":0.7559055118110236,"duration":0.16889887708333617},{"name":"E5","midi":76,"time":286.6072575000041,"velocity":0.7559055118110236,"duration":0.16889887708333617},{"name":"F5","midi":77,"time":286.78582900000407,"velocity":0.7559055118110236,"duration":0.16889887708333617},{"name":"E5","midi":76,"time":286.96440050000405,"velocity":0.7559055118110236,"duration":0.16889887708333617},{"name":"D5","midi":74,"time":287.142972000004,"velocity":0.7559055118110236,"duration":0.16889887708333617},{"name":"A4","midi":69,"time":287.50011500000403,"velocity":0.7559055118110236,"duration":0.16889887708333617},{"name":"G4","midi":67,"time":287.678686500004,"velocity":0.7559055118110236,"duration":0.16889887708333617},{"name":"D5","midi":74,"time":287.678686500004,"velocity":0.7559055118110236,"duration":0.16889887708333617},{"name":"F5","midi":77,"time":287.678686500004,"velocity":0.7559055118110236,"duration":0.16889887708333617},{"name":"D5","midi":74,"time":288.035829500004,"velocity":0.7559055118110236,"duration":0.16889887708333617},{"name":"A4","midi":69,"time":288.214401000004,"velocity":0.7559055118110236,"duration":0.16889887708333617},{"name":"D5","midi":74,"time":288.214401000004,"velocity":0.7559055118110236,"duration":0.16889887708333617},{"name":"F5","midi":77,"time":288.214401000004,"velocity":0.7559055118110236,"duration":0.16889887708333617},{"name":"A4","midi":69,"time":288.571544000004,"velocity":0.7559055118110236,"duration":0.16889887708333617},{"name":"E5","midi":76,"time":288.750115500004,"velocity":0.7559055118110236,"duration":0.16889887708333617},{"name":"F5","midi":77,"time":288.92868700000395,"velocity":0.7559055118110236,"duration":0.16889887708333617},{"name":"E5","midi":76,"time":289.1072585000039,"velocity":0.7559055118110236,"duration":0.16889887708333617},{"name":"D5","midi":74,"time":289.2858300000039,"velocity":0.7559055118110236,"duration":0.16889887708333617},{"name":"A4","midi":69,"time":289.6429730000039,"velocity":0.7559055118110236,"duration":0.16889887708333617},{"name":"F5","midi":77,"time":289.8215445000039,"velocity":0.7559055118110236,"duration":0.16889887708333617},{"name":"A4","midi":69,"time":290.1786875000039,"velocity":0.7559055118110236,"duration":0.16889887708333617},{"name":"F5","midi":77,"time":290.35725900000386,"velocity":0.7559055118110236,"duration":0.16889887708333617},{"name":"A4","midi":69,"time":290.7144020000039,"velocity":0.7559055118110236,"duration":0.16889887708333617},{"name":"E5","midi":76,"time":290.89297350000385,"velocity":0.7559055118110236,"duration":0.16889887708333617},{"name":"F5","midi":77,"time":291.0715450000038,"velocity":0.7559055118110236,"duration":0.16889887708333617},{"name":"E5","midi":76,"time":291.2501165000038,"velocity":0.7559055118110236,"duration":0.16889887708333617},{"name":"D5","midi":74,"time":291.4286880000038,"velocity":0.7559055118110236,"duration":0.16889887708333617},{"name":"E5","midi":76,"time":291.60725950000375,"velocity":0.7559055118110236,"duration":0.16889887708333617},{"name":"F5","midi":77,"time":291.7858310000037,"velocity":0.7559055118110236,"duration":0.16889887708333617},{"name":"C5","midi":72,"time":291.9644025000037,"velocity":0.7559055118110236,"duration":0.16889887708333617},{"name":"E5","midi":76,"time":291.9644025000037,"velocity":0.7559055118110236,"duration":0.16889887708333617},{"name":"G5","midi":79,"time":291.9644025000037,"velocity":0.7559055118110236,"duration":0.16889887708333617},{"name":"C5","midi":72,"time":292.5001170000037,"velocity":0.7559055118110236,"duration":0.16889887708333617},{"name":"E5","midi":76,"time":292.5001170000037,"velocity":0.7559055118110236,"duration":0.16889887708333617},{"name":"C6","midi":84,"time":292.5001170000037,"velocity":0.7559055118110236,"duration":0.16889887708333617},{"name":"E5","midi":76,"time":293.03583150000367,"velocity":0.7559055118110236,"duration":0.06324407291668876},{"name":"F5","midi":77,"time":293.10353986042037,"velocity":0.7559055118110236,"duration":0.06324407291668876},{"name":"E5","midi":76,"time":293.17199226875374,"velocity":0.7559055118110236,"duration":0.06324407291668876},{"name":"F5","midi":77,"time":293.2404446770871,"velocity":0.7559055118110236,"duration":0.06324407291668876},{"name":"E5","midi":76,"time":293.3088970854205,"velocity":0.7559055118110236,"duration":0.06324407291668876},{"name":"F5","midi":77,"time":293.37734949375385,"velocity":0.7559055118110236,"duration":0.18229173958332012},{"name":"D5","midi":74,"time":293.5715460000038,"velocity":0.7559055118110236,"duration":0.16889887708333617},{"name":"C5","midi":72,"time":293.7501175000038,"velocity":0.7559055118110236,"duration":0.16889887708333617},{"name":"D5","midi":74,"time":293.92868900000377,"velocity":0.7559055118110236,"duration":0.16889887708333617},{"name":"D5","midi":74,"time":294.10726050000375,"velocity":0.6299212598425197,"duration":0.3385418020833413},{"name":"E4","midi":64,"time":295.17868950000377,"velocity":0.6299212598425197,"duration":0.3385418020833413},{"name":"F3","midi":53,"time":295.5358325000038,"velocity":0.6299212598425197,"duration":0.6778276520833515},{"name":"A#3","midi":58,"time":295.5358325000038,"velocity":0.6299212598425197,"duration":0.6778276520833515},{"name":"E4","midi":64,"time":295.5358325000038,"velocity":0.6299212598425197,"duration":0.6778276520833515},{"name":"F3","midi":53,"time":296.2501185000038,"velocity":0.6299212598425197,"duration":0.5081847270833464},{"name":"A#3","midi":58,"time":296.2501185000038,"velocity":0.6299212598425197,"duration":0.5081847270833464},{"name":"D4","midi":62,"time":296.2501185000038,"velocity":0.6299212598425197,"duration":0.5081847270833464},{"name":"F4","midi":65,"time":296.2501185000038,"velocity":0.6299212598425197,"duration":0.5081847270833464},{"name":"G3","midi":55,"time":296.78583300000383,"velocity":0.6299212598425197,"duration":0.16889887708333617},{"name":"A#3","midi":58,"time":296.78583300000383,"velocity":0.6299212598425197,"duration":0.16889887708333617},{"name":"D4","midi":62,"time":296.78583300000383,"velocity":0.6299212598425197,"duration":0.16889887708333617},{"name":"G4","midi":67,"time":296.78583300000383,"velocity":0.6299212598425197,"duration":0.16889887708333617},{"name":"A3","midi":57,"time":296.9644045000038,"velocity":0.6299212598425197,"duration":0.3385418020833413},{"name":"D4","midi":62,"time":296.9644045000038,"velocity":0.6299212598425197,"duration":0.3385418020833413},{"name":"F4","midi":65,"time":296.9644045000038,"velocity":0.6299212598425197,"duration":0.3385418020833413},{"name":"A4","midi":69,"time":296.9644045000038,"velocity":0.6299212598425197,"duration":0.3385418020833413},{"name":"A3","midi":57,"time":297.5001190000038,"velocity":0.6299212598425197,"duration":0.16889887708333617},{"name":"D4","midi":62,"time":297.67869050000377,"velocity":0.6299212598425197,"duration":0.16889887708333617},{"name":"F4","midi":65,"time":297.67869050000377,"velocity":0.6299212598425197,"duration":0.16889887708333617},{"name":"A3","midi":57,"time":297.85726200000374,"velocity":0.6299212598425197,"duration":0.16889887708333617},{"name":"A3","midi":57,"time":298.0358335000037,"velocity":0.6299212598425197,"duration":0.16889887708333617},{"name":"D4","midi":62,"time":298.0358335000037,"velocity":0.6299212598425197,"duration":0.16889887708333617},{"name":"F4","midi":65,"time":298.0358335000037,"velocity":0.6299212598425197,"duration":0.16889887708333617},{"name":"G4","midi":67,"time":298.2144050000037,"velocity":0.6299212598425197,"duration":0.16889887708333617},{"name":"C4","midi":60,"time":298.39297650000367,"velocity":0.6299212598425197,"duration":0.3385418020833413},{"name":"E4","midi":64,"time":298.39297650000367,"velocity":0.6299212598425197,"duration":0.3385418020833413},{"name":"G4","midi":67,"time":298.39297650000367,"velocity":0.6299212598425197,"duration":0.3385418020833413},{"name":"E4","midi":64,"time":298.92869100000365,"velocity":0.6299212598425197,"duration":0.3385418020833413},{"name":"G4","midi":67,"time":298.92869100000365,"velocity":0.6299212598425197,"duration":0.3385418020833413},{"name":"C5","midi":72,"time":298.92869100000365,"velocity":0.6299212598425197,"duration":0.3385418020833413},{"name":"C4","midi":60,"time":299.28583400000366,"velocity":0.6299212598425197,"duration":0.16889887708333617},{"name":"G4","midi":67,"time":299.64297700000367,"velocity":0.6299212598425197,"duration":0.055803593749999436},{"name":"A4","midi":69,"time":299.702500833337,"velocity":0.6299212598425197,"duration":0.055803593749999436},{"name":"C5","midi":72,"time":299.76202466667036,"velocity":0.6299212598425197,"duration":0.055803593749999436},{"name":"D4","midi":62,"time":299.8215485000037,"velocity":0.6299212598425197,"duration":0.3385418020833413},{"name":"F4","midi":65,"time":299.8215485000037,"velocity":0.6299212598425197,"duration":0.3385418020833413},{"name":"A4","midi":69,"time":299.8215485000037,"velocity":0.6299212598425197,"duration":0.3385418020833413},{"name":"D5","midi":74,"time":299.8215485000037,"velocity":0.6299212598425197,"duration":0.3385418020833413},{"name":"C3","midi":48,"time":300.5358345000037,"velocity":0.6299212598425197,"duration":0.16889887708333617},{"name":"C4","midi":60,"time":300.5358345000037,"velocity":0.6299212598425197,"duration":0.16889887708333617},{"name":"D3","midi":50,"time":300.7144060000037,"velocity":0.6299212598425197,"duration":0.16889887708333617},{"name":"D4","midi":62,"time":300.7144060000037,"velocity":0.6299212598425197,"duration":0.16889887708333617},{"name":"F3","midi":53,"time":300.89297750000367,"velocity":0.6299212598425197,"duration":0.3385418020833413},{"name":"F4","midi":65,"time":300.89297750000367,"velocity":0.6299212598425197,"duration":0.3385418020833413},{"name":"E3","midi":52,"time":301.2501205000037,"velocity":0.6299212598425197,"duration":0.16889887708333617},{"name":"E4","midi":64,"time":301.2501205000037,"velocity":0.6299212598425197,"duration":0.16889887708333617},{"name":"D3","midi":50,"time":301.42869200000365,"velocity":0.6299212598425197,"duration":0.16889887708333617},{"name":"D4","midi":62,"time":301.42869200000365,"velocity":0.6299212598425197,"duration":0.16889887708333617},{"name":"C3","midi":48,"time":301.6072635000036,"velocity":0.6299212598425197,"duration":0.16889887708333617},{"name":"C4","midi":60,"time":301.6072635000036,"velocity":0.6299212598425197,"duration":0.16889887708333617},{"name":"A4","midi":69,"time":301.96440650000363,"velocity":0.6299212598425197,"duration":0.0617559770833509},{"name":"D5","midi":74,"time":302.02690652500365,"velocity":0.6299212598425197,"duration":0.10863099583332314},{"name":"F5","midi":77,"time":302.02690652500365,"velocity":0.6299212598425197,"duration":0.10863099583332314},{"name":"A4","midi":69,"time":302.32154950000364,"velocity":0.6299212598425197,"duration":0.16889887708333617},{"name":"A4","midi":69,"time":302.5001210000036,"velocity":0.6299212598425197,"duration":0.16889887708333617},{"name":"D5","midi":74,"time":302.5001210000036,"velocity":0.6299212598425197,"duration":0.16889887708333617},{"name":"F5","midi":77,"time":302.5001210000036,"velocity":0.6299212598425197,"duration":0.16889887708333617},{"name":"A4","midi":69,"time":302.8572640000036,"velocity":0.6299212598425197,"duration":0.16889887708333617},{"name":"A4","midi":69,"time":303.0358355000036,"velocity":0.6299212598425197,"duration":0.16889887708333617},{"name":"E5","midi":76,"time":303.0358355000036,"velocity":0.6299212598425197,"duration":0.16889887708333617},{"name":"A4","midi":69,"time":303.2144070000036,"velocity":0.6299212598425197,"duration":0.16889887708333617},{"name":"F5","midi":77,"time":303.2144070000036,"velocity":0.6299212598425197,"duration":0.16889887708333617},{"name":"A4","midi":69,"time":303.39297850000355,"velocity":0.6299212598425197,"duration":0.16889887708333617},{"name":"E5","midi":76,"time":303.39297850000355,"velocity":0.6299212598425197,"duration":0.16889887708333617},{"name":"A4","midi":69,"time":303.5715500000035,"velocity":0.6299212598425197,"duration":0.16889887708333617},{"name":"D5","midi":74,"time":303.5715500000035,"velocity":0.6299212598425197,"duration":0.16889887708333617},{"name":"A4","midi":69,"time":303.92869300000353,"velocity":0.6299212598425197,"duration":0.16889887708333617},{"name":"A4","midi":69,"time":304.1072645000035,"velocity":0.6299212598425197,"duration":0.16889887708333617},{"name":"D5","midi":74,"time":304.1072645000035,"velocity":0.6299212598425197,"duration":0.16889887708333617},{"name":"F5","midi":77,"time":304.1072645000035,"velocity":0.6299212598425197,"duration":0.16889887708333617},{"name":"A4","midi":69,"time":304.4644075000035,"velocity":0.6299212598425197,"duration":0.16889887708333617},{"name":"A4","midi":69,"time":304.6429790000035,"velocity":0.6299212598425197,"duration":0.16889887708333617},{"name":"D5","midi":74,"time":304.6429790000035,"velocity":0.6299212598425197,"duration":0.16889887708333617},{"name":"F5","midi":77,"time":304.6429790000035,"velocity":0.6299212598425197,"duration":0.16889887708333617},{"name":"A4","midi":69,"time":305.0001220000035,"velocity":0.6299212598425197,"duration":0.16889887708333617},{"name":"A4","midi":69,"time":305.1786935000035,"velocity":0.6299212598425197,"duration":0.16889887708333617},{"name":"E5","midi":76,"time":305.1786935000035,"velocity":0.6299212598425197,"duration":0.16889887708333617},{"name":"A4","midi":69,"time":305.35726500000345,"velocity":0.6299212598425197,"duration":0.16889887708333617},{"name":"F5","midi":77,"time":305.35726500000345,"velocity":0.6299212598425197,"duration":0.16889887708333617},{"name":"A4","midi":69,"time":305.5358365000034,"velocity":0.6299212598425197,"duration":0.16889887708333617},{"name":"E5","midi":76,"time":305.5358365000034,"velocity":0.6299212598425197,"duration":0.16889887708333617},{"name":"A4","midi":69,"time":305.7144080000034,"velocity":0.6299212598425197,"duration":0.16889887708333617},{"name":"D5","midi":74,"time":305.7144080000034,"velocity":0.6299212598425197,"duration":0.16889887708333617},{"name":"A4","midi":69,"time":306.0715510000034,"velocity":0.6299212598425197,"duration":0.16889887708333617},{"name":"A4","midi":69,"time":306.2501225000034,"velocity":0.6299212598425197,"duration":0.16889887708333617},{"name":"D5","midi":74,"time":306.2501225000034,"velocity":0.6299212598425197,"duration":0.16889887708333617},{"name":"F5","midi":77,"time":306.2501225000034,"velocity":0.6299212598425197,"duration":0.16889887708333617},{"name":"A4","midi":69,"time":306.6072655000034,"velocity":0.6299212598425197,"duration":0.16889887708333617},{"name":"A4","midi":69,"time":306.78583700000337,"velocity":0.6299212598425197,"duration":0.16889887708333617},{"name":"D5","midi":74,"time":306.78583700000337,"velocity":0.6299212598425197,"duration":0.16889887708333617},{"name":"F5","midi":77,"time":306.78583700000337,"velocity":0.6299212598425197,"duration":0.16889887708333617},{"name":"A4","midi":69,"time":307.1429800000034,"velocity":0.6299212598425197,"duration":0.16889887708333617},{"name":"A4","midi":69,"time":307.32155150000335,"velocity":0.6299212598425197,"duration":0.16889887708333617},{"name":"E5","midi":76,"time":307.32155150000335,"velocity":0.6299212598425197,"duration":0.16889887708333617},{"name":"A4","midi":69,"time":307.5001230000033,"velocity":0.6299212598425197,"duration":0.16889887708333617},{"name":"F5","midi":77,"time":307.5001230000033,"velocity":0.6299212598425197,"duration":0.16889887708333617},{"name":"A4","midi":69,"time":307.6786945000033,"velocity":0.6299212598425197,"duration":0.16889887708333617},{"name":"E5","midi":76,"time":307.6786945000033,"velocity":0.6299212598425197,"duration":0.16889887708333617},{"name":"A4","midi":69,"time":307.8572660000033,"velocity":0.6299212598425197,"duration":0.16889887708333617},{"name":"D5","midi":74,"time":307.8572660000033,"velocity":0.6299212598425197,"duration":0.16889887708333617},{"name":"A4","midi":69,"time":308.03583750000325,"velocity":0.6299212598425197,"duration":0.16889887708333617},{"name":"E5","midi":76,"time":308.03583750000325,"velocity":0.6299212598425197,"duration":0.16889887708333617},{"name":"A4","midi":69,"time":308.21440900000323,"velocity":0.6299212598425197,"duration":0.16889887708333617},{"name":"F5","midi":77,"time":308.21440900000323,"velocity":0.6299212598425197,"duration":0.16889887708333617},{"name":"C5","midi":72,"time":308.3929805000032,"velocity":0.6299212598425197,"duration":0.3385418020833413},{"name":"E5","midi":76,"time":308.3929805000032,"velocity":0.6299212598425197,"duration":0.3385418020833413},{"name":"G5","midi":79,"time":308.3929805000032,"velocity":0.6299212598425197,"duration":0.3385418020833413},{"name":"C5","midi":72,"time":308.9286950000032,"velocity":0.6299212598425197,"duration":0.3385418020833413},{"name":"E5","midi":76,"time":308.9286950000032,"velocity":0.6299212598425197,"duration":0.3385418020833413},{"name":"G5","midi":79,"time":308.9286950000032,"velocity":0.6299212598425197,"duration":0.3385418020833413},{"name":"C6","midi":84,"time":308.9286950000032,"velocity":0.6299212598425197,"duration":0.3385418020833413},{"name":"E5","midi":76,"time":309.46440950000317,"velocity":0.6299212598425197,"duration":0.055803593749999436},{"name":"F5","midi":77,"time":309.5239333333365,"velocity":0.6299212598425197,"duration":0.055803593749999436},{"name":"E5","midi":76,"time":309.5849452625032,"velocity":0.6299212598425197,"duration":0.055803593749999436},{"name":"F5","midi":77,"time":309.64446909583654,"velocity":0.6299212598425197,"duration":0.055803593749999436},{"name":"E5","midi":76,"time":309.7054810250032,"velocity":0.6299212598425197,"duration":0.055803593749999436},{"name":"F5","midi":77,"time":309.76500485833657,"velocity":0.6299212598425197,"duration":0.055803593749999436},{"name":"E5","midi":76,"time":309.82601678750325,"velocity":0.6299212598425197,"duration":0.055803593749999436},{"name":"F5","midi":77,"time":309.8855406208366,"velocity":0.6299212598425197,"duration":0.10639885208331634},{"name":"D5","midi":74,"time":310.00012400000327,"velocity":0.6299212598425197,"duration":0.0840774145833052},{"name":"C5","midi":72,"time":310.08940975000326,"velocity":0.6299212598425197,"duration":0.0840774145833052},{"name":"D5","midi":74,"time":310.17869550000324,"velocity":0.6299212598425197,"duration":0.16889887708333617},{"name":"E5","midi":76,"time":310.3572670000032,"velocity":0.6299212598425197,"duration":0.16889887708333617},{"name":"A4","midi":69,"time":310.5358385000032,"velocity":0.6299212598425197,"duration":0.16889887708333617},{"name":"D5","midi":74,"time":310.5358385000032,"velocity":0.6299212598425197,"duration":0.16889887708333617},{"name":"F5","midi":77,"time":310.5358385000032,"velocity":0.6299212598425197,"duration":0.16889887708333617},{"name":"A4","midi":69,"time":310.8929815000032,"velocity":0.6299212598425197,"duration":0.16889887708333617},{"name":"A4","midi":69,"time":311.0715530000032,"velocity":0.6299212598425197,"duration":0.16889887708333617},{"name":"D5","midi":74,"time":311.0715530000032,"velocity":0.6299212598425197,"duration":0.16889887708333617},{"name":"F5","midi":77,"time":311.0715530000032,"velocity":0.6299212598425197,"duration":0.16889887708333617},{"name":"A4","midi":69,"time":311.4286960000032,"velocity":0.6299212598425197,"duration":0.16889887708333617},{"name":"A4","midi":69,"time":311.60726750000316,"velocity":0.6299212598425197,"duration":0.16889887708333617},{"name":"E5","midi":76,"time":311.60726750000316,"velocity":0.6299212598425197,"duration":0.16889887708333617},{"name":"A4","midi":69,"time":311.78583900000314,"velocity":0.6299212598425197,"duration":0.16889887708333617},{"name":"F5","midi":77,"time":311.78583900000314,"velocity":0.6299212598425197,"duration":0.16889887708333617},{"name":"A4","midi":69,"time":311.9644105000031,"velocity":0.6299212598425197,"duration":0.16889887708333617},{"name":"E5","midi":76,"time":311.9644105000031,"velocity":0.6299212598425197,"duration":0.16889887708333617},{"name":"A4","midi":69,"time":312.1429820000031,"velocity":0.6299212598425197,"duration":0.16889887708333617},{"name":"D5","midi":74,"time":312.1429820000031,"velocity":0.6299212598425197,"duration":0.16889887708333617},{"name":"A4","midi":69,"time":312.5001250000031,"velocity":0.6299212598425197,"duration":0.16889887708333617},{"name":"A4","midi":69,"time":312.67869650000307,"velocity":0.6299212598425197,"duration":0.16889887708333617},{"name":"D5","midi":74,"time":312.67869650000307,"velocity":0.6299212598425197,"duration":0.16889887708333617},{"name":"F5","midi":77,"time":312.67869650000307,"velocity":0.6299212598425197,"duration":0.16889887708333617},{"name":"A4","midi":69,"time":313.0358395000031,"velocity":0.6299212598425197,"duration":0.16889887708333617},{"name":"A4","midi":69,"time":313.21441100000305,"velocity":0.6299212598425197,"duration":0.16889887708333617},{"name":"D5","midi":74,"time":313.21441100000305,"velocity":0.6299212598425197,"duration":0.16889887708333617},{"name":"F5","midi":77,"time":313.21441100000305,"velocity":0.6299212598425197,"duration":0.16889887708333617},{"name":"A4","midi":69,"time":313.57155400000306,"velocity":0.6299212598425197,"duration":0.16889887708333617},{"name":"A4","midi":69,"time":313.75012550000304,"velocity":0.6299212598425197,"duration":0.16889887708333617},{"name":"E5","midi":76,"time":313.75012550000304,"velocity":0.6299212598425197,"duration":0.16889887708333617},{"name":"A4","midi":69,"time":313.928697000003,"velocity":0.6299212598425197,"duration":0.16889887708333617},{"name":"F5","midi":77,"time":313.928697000003,"velocity":0.6299212598425197,"duration":0.16889887708333617},{"name":"A4","midi":69,"time":314.107268500003,"velocity":0.6299212598425197,"duration":0.16889887708333617},{"name":"E5","midi":76,"time":314.107268500003,"velocity":0.6299212598425197,"duration":0.16889887708333617},{"name":"A4","midi":69,"time":314.28584000000296,"velocity":0.6299212598425197,"duration":0.16889887708333617},{"name":"D5","midi":74,"time":314.28584000000296,"velocity":0.6299212598425197,"duration":0.16889887708333617},{"name":"A4","midi":69,"time":314.46441150000294,"velocity":0.6299212598425197,"duration":0.16889887708333617},{"name":"G4","midi":67,"time":314.82155450000295,"velocity":0.25984251968503935,"duration":0.3385418020833413},{"name":"F4","midi":65,"time":315.17869750000295,"velocity":0.25984251968503935,"duration":0.16889887708333617},{"name":"E4","midi":64,"time":315.35726900000293,"velocity":0.25984251968503935,"duration":0.16889887708333617},{"name":"D4","midi":62,"time":315.5358405000029,"velocity":0.25984251968503935,"duration":0.16889887708333617},{"name":"A3","midi":57,"time":315.8929835000029,"velocity":0.25984251968503935,"duration":0.16889887708333617},{"name":"F3","midi":53,"time":316.0715550000029,"velocity":0.25984251968503935,"duration":0.16889887708333617},{"name":"E3","midi":52,"time":316.25012650000286,"velocity":0.25984251968503935,"duration":0.16889887708333617},{"name":"D3","midi":50,"time":316.42869800000284,"velocity":0.5039370078740157,"duration":1.4278279520833053},{"name":"F3","midi":53,"time":316.4755730187528,"velocity":0.5039370078740157,"duration":1.380208885416664},{"name":"A3","midi":57,"time":316.5224480375028,"velocity":0.5039370078740157,"duration":1.3333338666666918},{"name":"D3","midi":50,"time":317.8572700000028,"velocity":0.6299212598425197,"duration":1.356399352083315},{"name":"F3","midi":53,"time":317.8572700000028,"velocity":0.6299212598425197,"duration":1.356399352083315},{"name":"A#3","midi":58,"time":317.8572700000028,"velocity":0.6299212598425197,"duration":1.356399352083315},{"name":"D3","midi":50,"time":319.2858420000028,"velocity":0.7559055118110236,"duration":1.356399352083315},{"name":"G3","midi":55,"time":319.2858420000028,"velocity":0.7559055118110236,"duration":1.356399352083315},{"name":"B3","midi":59,"time":319.2858420000028,"velocity":0.7559055118110236,"duration":1.356399352083315},{"name":"A4","midi":69,"time":321.07155700000277,"velocity":0.8818897637795275,"duration":0.17782745208330653},{"name":"D4","midi":62,"time":321.25012850000275,"velocity":0.8818897637795275,"duration":0.17782745208330653},{"name":"A4","midi":69,"time":321.4287000000027,"velocity":0.8818897637795275,"duration":0.17782745208330653},{"name":"D5","midi":74,"time":321.6072715000027,"velocity":0.8818897637795275,"duration":0.17782745208330653},{"name":"F4","midi":65,"time":321.78584300000267,"velocity":0.8818897637795275,"duration":0.0885417020833188},{"name":"E4","midi":64,"time":321.87512875000266,"velocity":0.8818897637795275,"duration":0.0885417020833188},{"name":"D4","midi":62,"time":321.96441450000265,"velocity":0.8818897637795275,"duration":0.17782745208330653},{"name":"A4","midi":69,"time":322.1429860000026,"velocity":0.8818897637795275,"duration":0.17782745208330653},{"name":"D5","midi":74,"time":322.3215575000026,"velocity":0.8818897637795275,"duration":0.17782745208330653},{"name":"A4","midi":69,"time":322.5001290000026,"velocity":0.8818897637795275,"duration":0.17782745208330653},{"name":"D4","midi":62,"time":322.67870050000255,"velocity":0.8818897637795275,"duration":0.17782745208330653},{"name":"A4","midi":69,"time":322.8572720000025,"velocity":0.8818897637795275,"duration":0.17782745208330653},{"name":"D5","midi":74,"time":323.0358435000025,"velocity":0.8818897637795275,"duration":0.17782745208330653},{"name":"A4","midi":69,"time":323.2144150000025,"velocity":0.8818897637795275,"duration":0.17782745208330653},{"name":"D4","midi":62,"time":323.39298650000245,"velocity":0.8818897637795275,"duration":0.17782745208330653},{"name":"A#4","midi":70,"time":323.5715580000024,"velocity":0.8818897637795275,"duration":0.17782745208330653},{"name":"D5","midi":74,"time":323.7501295000024,"velocity":0.8818897637795275,"duration":0.17782745208330653},{"name":"A#4","midi":70,"time":323.9287010000024,"velocity":0.8818897637795275,"duration":0.17782745208330653},{"name":"D4","midi":62,"time":324.10727250000235,"velocity":0.8818897637795275,"duration":0.17782745208330653},{"name":"A#4","midi":70,"time":324.2858440000023,"velocity":0.8818897637795275,"duration":0.17782745208330653},{"name":"D5","midi":74,"time":324.4644155000023,"velocity":0.8818897637795275,"duration":0.17782745208330653},{"name":"F4","midi":65,"time":324.6429870000023,"velocity":0.8818897637795275,"duration":0.0885417020833188},{"name":"E4","midi":64,"time":324.73227275000227,"velocity":0.8818897637795275,"duration":0.0885417020833188},{"name":"D4","midi":62,"time":324.82155850000225,"velocity":0.8818897637795275,"duration":0.17782745208330653},{"name":"A4","midi":69,"time":325.00013000000223,"velocity":0.8818897637795275,"duration":0.17782745208330653},{"name":"C5","midi":72,"time":325.1787015000022,"velocity":0.8818897637795275,"duration":0.17782745208330653},{"name":"A4","midi":69,"time":325.3572730000022,"velocity":0.8818897637795275,"duration":0.17782745208330653},{"name":"F4","midi":65,"time":325.53584450000216,"velocity":0.8818897637795275,"duration":0.17782745208330653},{"name":"A4","midi":69,"time":325.71441600000213,"velocity":0.8818897637795275,"duration":0.17782745208330653},{"name":"C5","midi":72,"time":325.8929875000021,"velocity":0.8818897637795275,"duration":0.17782745208330653},{"name":"A4","midi":69,"time":326.0715590000021,"velocity":0.8818897637795275,"duration":0.17782745208330653},{"name":"F4","midi":65,"time":326.25013050000206,"velocity":0.8818897637795275,"duration":0.17782745208330653},{"name":"G4","midi":67,"time":326.42870200000203,"velocity":0.8818897637795275,"duration":0.17782745208330653},{"name":"C5","midi":72,"time":326.607273500002,"velocity":0.8818897637795275,"duration":0.17782745208330653},{"name":"G4","midi":67,"time":326.785845000002,"velocity":0.8818897637795275,"duration":0.17782745208330653},{"name":"C4","midi":60,"time":326.96441650000196,"velocity":0.8818897637795275,"duration":0.17782745208330653},{"name":"G4","midi":67,"time":327.14298800000194,"velocity":0.8818897637795275,"duration":0.17782745208330653},{"name":"C5","midi":72,"time":327.3215595000019,"velocity":0.8818897637795275,"duration":0.17782745208330653},{"name":"F4","midi":65,"time":327.5001310000019,"velocity":0.8818897637795275,"duration":0.0885417020833188},{"name":"E4","midi":64,"time":327.5894167500019,"velocity":0.8818897637795275,"duration":0.0885417020833188},{"name":"D4","midi":62,"time":327.67870250000186,"velocity":0.8818897637795275,"duration":0.17782745208330653},{"name":"A4","midi":69,"time":327.85727400000184,"velocity":0.8818897637795275,"duration":0.17782745208330653},{"name":"D5","midi":74,"time":328.0358455000018,"velocity":0.8818897637795275,"duration":0.17782745208330653},{"name":"A4","midi":69,"time":328.2144170000018,"velocity":0.8818897637795275,"duration":0.17782745208330653},{"name":"D4","midi":62,"time":328.39298850000176,"velocity":0.8818897637795275,"duration":0.17782745208330653},{"name":"A4","midi":69,"time":328.57156000000174,"velocity":0.8818897637795275,"duration":0.17782745208330653},{"name":"D5","midi":74,"time":328.7501315000017,"velocity":0.8818897637795275,"duration":0.17782745208330653},{"name":"A4","midi":69,"time":328.9287030000017,"velocity":0.8818897637795275,"duration":0.17782745208330653},{"name":"D4","midi":62,"time":329.10727450000167,"velocity":0.8818897637795275,"duration":0.17782745208330653},{"name":"A#4","midi":70,"time":329.28584600000164,"velocity":0.8818897637795275,"duration":0.17782745208330653},{"name":"D5","midi":74,"time":329.4644175000016,"velocity":0.8818897637795275,"duration":0.17782745208330653},{"name":"D4","midi":62,"time":329.6429890000016,"velocity":0.8818897637795275,"duration":0.17782745208330653},{"name":"A#4","midi":70,"time":329.82156050000157,"velocity":0.8818897637795275,"duration":0.17782745208330653},{"name":"A#4","midi":70,"time":330.00013200000154,"velocity":0.8818897637795275,"duration":0.17782745208330653},{"name":"D5","midi":74,"time":330.1787035000015,"velocity":0.8818897637795275,"duration":0.17782745208330653},{"name":"F4","midi":65,"time":330.3572750000015,"velocity":0.8818897637795275,"duration":0.0885417020833188},{"name":"E4","midi":64,"time":330.4465607500015,"velocity":0.8818897637795275,"duration":0.0885417020833188},{"name":"D4","midi":62,"time":330.53584650000147,"velocity":0.8818897637795275,"duration":0.17782745208330653},{"name":"A4","midi":69,"time":330.71441800000144,"velocity":0.8818897637795275,"duration":0.17782745208330653},{"name":"C5","midi":72,"time":330.8929895000014,"velocity":0.8818897637795275,"duration":0.17782745208330653},{"name":"A4","midi":69,"time":331.0715610000014,"velocity":0.8818897637795275,"duration":0.17782745208330653},{"name":"F4","midi":65,"time":331.25013250000137,"velocity":0.8818897637795275,"duration":0.17782745208330653},{"name":"A4","midi":69,"time":331.42870400000135,"velocity":0.8818897637795275,"duration":0.17782745208330653},{"name":"C5","midi":72,"time":331.6072755000013,"velocity":0.8818897637795275,"duration":0.17782745208330653},{"name":"A4","midi":69,"time":331.7858470000013,"velocity":0.8818897637795275,"duration":0.17782745208330653},{"name":"F4","midi":65,"time":331.9644185000013,"velocity":0.8818897637795275,"duration":0.17782745208330653},{"name":"G4","midi":67,"time":332.14299000000125,"velocity":0.8818897637795275,"duration":0.17782745208330653},{"name":"C5","midi":72,"time":332.3215615000012,"velocity":0.8818897637795275,"duration":0.17782745208330653},{"name":"G4","midi":67,"time":332.5001330000012,"velocity":0.8818897637795275,"duration":0.17782745208330653},{"name":"C4","midi":60,"time":332.6787045000012,"velocity":0.8818897637795275,"duration":0.17782745208330653},{"name":"G4","midi":67,"time":332.85727600000115,"velocity":0.8818897637795275,"duration":0.17782745208330653},{"name":"C5","midi":72,"time":333.0358475000011,"velocity":0.8818897637795275,"duration":0.17782745208330653},{"name":"G4","midi":67,"time":333.2144190000011,"velocity":0.8818897637795275,"duration":0.17782745208330653},{"name":"C4","midi":60,"time":333.3929905000011,"velocity":0.8818897637795275,"duration":0.17782745208330653},{"name":"A4","midi":69,"time":333.57156200000105,"velocity":0.8818897637795275,"duration":0.17782745208330653},{"name":"C#5","midi":73,"time":333.750133500001,"velocity":0.8818897637795275,"duration":0.16889887708333617},{"name":"A3","midi":57,"time":333.928705000001,"velocity":0.8818897637795275,"duration":0.3385418020833413},{"name":"F3","midi":53,"time":334.285848000001,"velocity":0.8818897637795275,"duration":0.3385418020833413},{"name":"A3","midi":57,"time":334.285848000001,"velocity":0.8818897637795275,"duration":0.3385418020833413},{"name":"D4","midi":62,"time":334.285848000001,"velocity":0.8818897637795275,"duration":0.3385418020833413},{"name":"E3","midi":52,"time":334.642991000001,"velocity":0.8818897637795275,"duration":0.3385418020833413},{"name":"A3","midi":57,"time":334.642991000001,"velocity":0.8818897637795275,"duration":0.3385418020833413},{"name":"C#4","midi":61,"time":334.642991000001,"velocity":0.8818897637795275,"duration":0.3385418020833413},{"name":"E4","midi":64,"time":334.642991000001,"velocity":0.8818897637795275,"duration":0.3385418020833413},{"name":"F3","midi":53,"time":335.000134000001,"velocity":0.8818897637795275,"duration":0.6778276520833515},{"name":"A3","midi":57,"time":335.000134000001,"velocity":0.8818897637795275,"duration":0.6778276520833515},{"name":"D4","midi":62,"time":335.000134000001,"velocity":0.8818897637795275,"duration":0.6778276520833515},{"name":"F4","midi":65,"time":335.000134000001,"velocity":0.8818897637795275,"duration":0.6778276520833515},{"name":"E3","midi":52,"time":335.71442000000104,"velocity":0.8818897637795275,"duration":0.3385418020833413},{"name":"A3","midi":57,"time":335.71442000000104,"velocity":0.8818897637795275,"duration":0.3385418020833413},{"name":"E4","midi":64,"time":335.71442000000104,"velocity":0.8818897637795275,"duration":0.3385418020833413},{"name":"F3","midi":53,"time":336.07156300000105,"velocity":0.8818897637795275,"duration":0.3385418020833413},{"name":"A3","midi":57,"time":336.07156300000105,"velocity":0.8818897637795275,"duration":0.3385418020833413},{"name":"C4","midi":60,"time":336.07156300000105,"velocity":0.8818897637795275,"duration":0.3385418020833413},{"name":"F4","midi":65,"time":336.07156300000105,"velocity":0.8818897637795275,"duration":0.3385418020833413},{"name":"G3","midi":55,"time":336.42870600000106,"velocity":0.8818897637795275,"duration":0.6778276520833515},{"name":"D4","midi":62,"time":336.42870600000106,"velocity":0.8818897637795275,"duration":0.6778276520833515},{"name":"G4","midi":67,"time":336.42870600000106,"velocity":0.8818897637795275,"duration":0.6778276520833515},{"name":"F3","midi":53,"time":337.1429920000011,"velocity":0.8818897637795275,"duration":0.3385418020833413},{"name":"C4","midi":60,"time":337.1429920000011,"velocity":0.8818897637795275,"duration":0.3385418020833413},{"name":"F4","midi":65,"time":337.1429920000011,"velocity":0.8818897637795275,"duration":0.3385418020833413},{"name":"G3","midi":55,"time":337.5001350000011,"velocity":0.8818897637795275,"duration":0.3385418020833413},{"name":"C4","midi":60,"time":337.5001350000011,"velocity":0.8818897637795275,"duration":0.3385418020833413},{"name":"E4","midi":64,"time":337.5001350000011,"velocity":0.8818897637795275,"duration":0.3385418020833413},{"name":"G4","midi":67,"time":337.5001350000011,"velocity":0.8818897637795275,"duration":0.3385418020833413},{"name":"A3","midi":57,"time":337.8572780000011,"velocity":0.8818897637795275,"duration":0.6778276520833515},{"name":"C4","midi":60,"time":337.8572780000011,"velocity":0.8818897637795275,"duration":0.6778276520833515},{"name":"F4","midi":65,"time":337.8572780000011,"velocity":0.8818897637795275,"duration":0.6778276520833515},{"name":"A4","midi":69,"time":337.8572780000011,"velocity":0.8818897637795275,"duration":0.6778276520833515},{"name":"G3","midi":55,"time":338.5715640000011,"velocity":0.8818897637795275,"duration":0.3385418020833413},{"name":"C4","midi":60,"time":338.5715640000011,"velocity":0.8818897637795275,"duration":0.3385418020833413},{"name":"G4","midi":67,"time":338.5715640000011,"velocity":0.8818897637795275,"duration":0.3385418020833413},{"name":"F3","midi":53,"time":338.9287070000011,"velocity":0.8818897637795275,"duration":0.3385418020833413},{"name":"A3","midi":57,"time":338.9287070000011,"velocity":0.8818897637795275,"duration":0.3385418020833413},{"name":"C4","midi":60,"time":338.9287070000011,"velocity":0.8818897637795275,"duration":0.3385418020833413},{"name":"F4","midi":65,"time":338.9287070000011,"velocity":0.8818897637795275,"duration":0.3385418020833413},{"name":"F3","midi":53,"time":339.2858500000011,"velocity":0.8818897637795275,"duration":0.6778276520833515},{"name":"A#3","midi":58,"time":339.2858500000011,"velocity":0.8818897637795275,"duration":0.6778276520833515},{"name":"D4","midi":62,"time":339.2858500000011,"velocity":0.8818897637795275,"duration":0.6778276520833515},{"name":"F3","midi":53,"time":340.00013600000113,"velocity":0.8818897637795275,"duration":0.3385418020833413},{"name":"A#3","midi":58,"time":340.00013600000113,"velocity":0.8818897637795275,"duration":0.3385418020833413},{"name":"D4","midi":62,"time":340.00013600000113,"velocity":0.8818897637795275,"duration":0.3385418020833413},{"name":"G3","midi":55,"time":340.35727900000114,"velocity":0.8818897637795275,"duration":0.3385418020833413},{"name":"A#3","midi":58,"time":340.35727900000114,"velocity":0.8818897637795275,"duration":0.3385418020833413},{"name":"C#4","midi":61,"time":340.35727900000114,"velocity":0.8818897637795275,"duration":0.3385418020833413},{"name":"E4","midi":64,"time":340.35727900000114,"velocity":0.8818897637795275,"duration":0.3385418020833413},{"name":"A3","midi":57,"time":340.71442200000115,"velocity":0.8818897637795275,"duration":0.6778276520833515},{"name":"D4","midi":62,"time":340.71442200000115,"velocity":0.8818897637795275,"duration":0.6778276520833515},{"name":"F4","midi":65,"time":340.71442200000115,"velocity":0.8818897637795275,"duration":0.6778276520833515},{"name":"G3","midi":55,"time":341.42870800000117,"velocity":0.8818897637795275,"duration":0.3385418020833413},{"name":"C4","midi":60,"time":341.42870800000117,"velocity":0.8818897637795275,"duration":0.3385418020833413},{"name":"E4","midi":64,"time":341.42870800000117,"velocity":0.8818897637795275,"duration":0.3385418020833413},{"name":"A3","midi":57,"time":341.7858510000012,"velocity":0.8818897637795275,"duration":0.3385418020833413},{"name":"C4","midi":60,"time":341.7858510000012,"velocity":0.8818897637795275,"duration":0.3385418020833413},{"name":"F4","midi":65,"time":341.7858510000012,"velocity":0.8818897637795275,"duration":0.3385418020833413},{"name":"A4","midi":69,"time":341.7858510000012,"velocity":0.8818897637795275,"duration":0.3385418020833413},{"name":"A#3","midi":58,"time":342.1429940000012,"velocity":0.8818897637795275,"duration":0.6778276520833515},{"name":"D4","midi":62,"time":342.1429940000012,"velocity":0.8818897637795275,"duration":0.6778276520833515},{"name":"G4","midi":67,"time":342.1429940000012,"velocity":0.8818897637795275,"duration":0.6778276520833515},{"name":"A#4","midi":70,"time":342.1429940000012,"velocity":0.8818897637795275,"duration":0.6778276520833515},{"name":"A#3","midi":58,"time":342.8572800000012,"velocity":0.8818897637795275,"duration":0.3385418020833413},{"name":"D4","midi":62,"time":342.8572800000012,"velocity":0.8818897637795275,"duration":0.3385418020833413},{"name":"A#3","midi":58,"time":343.3929945000012,"velocity":0.8818897637795275,"duration":0.16889887708333617},{"name":"D4","midi":62,"time":343.3929945000012,"velocity":0.8818897637795275,"duration":0.16889887708333617},{"name":"G4","midi":67,"time":343.3929945000012,"velocity":0.8818897637795275,"duration":0.16889887708333617},{"name":"A#4","midi":70,"time":343.3929945000012,"velocity":0.8818897637795275,"duration":0.16889887708333617},{"name":"A3","midi":57,"time":343.57156600000116,"velocity":0.8818897637795275,"duration":1.356399352083315},{"name":"D4","midi":62,"time":343.57156600000116,"velocity":0.8818897637795275,"duration":1.356399352083315},{"name":"F4","midi":65,"time":343.57156600000116,"velocity":0.8818897637795275,"duration":1.356399352083315},{"name":"A4","midi":69,"time":343.57156600000116,"velocity":0.8818897637795275,"duration":1.356399352083315},{"name":"A3","midi":57,"time":345.00013800000113,"velocity":0.8818897637795275,"duration":0.3385418020833413},{"name":"C#4","midi":61,"time":345.00013800000113,"velocity":0.8818897637795275,"duration":0.3385418020833413},{"name":"E4","midi":64,"time":345.00013800000113,"velocity":0.8818897637795275,"duration":0.3385418020833413},{"name":"A4","midi":69,"time":345.00013800000113,"velocity":0.8818897637795275,"duration":0.3385418020833413},{"name":"A3","midi":57,"time":345.35728100000114,"velocity":0.8818897637795275,"duration":0.3385418020833413},{"name":"C#4","midi":61,"time":345.35728100000114,"velocity":0.8818897637795275,"duration":0.3385418020833413},{"name":"E4","midi":64,"time":345.35728100000114,"velocity":0.8818897637795275,"duration":0.3385418020833413},{"name":"A4","midi":69,"time":345.35728100000114,"velocity":0.8818897637795275,"duration":0.3385418020833413},{"name":"D4","midi":62,"time":345.71442400000115,"velocity":0.8818897637795275,"duration":0.3385418020833413},{"name":"F4","midi":65,"time":345.71442400000115,"velocity":0.8818897637795275,"duration":0.3385418020833413},{"name":"A4","midi":69,"time":345.71442400000115,"velocity":0.8818897637795275,"duration":0.3385418020833413},{"name":"D5","midi":74,"time":345.71442400000115,"velocity":0.8818897637795275,"duration":0.3385418020833413},{"name":"E4","midi":64,"time":346.07156700000115,"velocity":0.8818897637795275,"duration":0.3385418020833413},{"name":"A4","midi":69,"time":346.07156700000115,"velocity":0.8818897637795275,"duration":0.3385418020833413},{"name":"E5","midi":76,"time":346.07156700000115,"velocity":0.8818897637795275,"duration":0.3385418020833413},{"name":"F4","midi":65,"time":346.42871000000116,"velocity":0.8818897637795275,"duration":0.6778276520833515},{"name":"A4","midi":69,"time":346.42871000000116,"velocity":0.8818897637795275,"duration":0.6778276520833515},{"name":"D5","midi":74,"time":346.42871000000116,"velocity":0.8818897637795275,"duration":0.6778276520833515},{"name":"F5","midi":77,"time":346.42871000000116,"velocity":0.8818897637795275,"duration":0.6778276520833515},{"name":"E4","midi":64,"time":347.1429960000012,"velocity":0.8818897637795275,"duration":0.3385418020833413},{"name":"A4","midi":69,"time":347.1429960000012,"velocity":0.8818897637795275,"duration":0.3385418020833413},{"name":"C5","midi":72,"time":347.1429960000012,"velocity":0.8818897637795275,"duration":0.3385418020833413},{"name":"E5","midi":76,"time":347.1429960000012,"velocity":0.8818897637795275,"duration":0.3385418020833413},{"name":"F4","midi":65,"time":347.5001390000012,"velocity":0.8818897637795275,"duration":0.3385418020833413},{"name":"A4","midi":69,"time":347.5001390000012,"velocity":0.8818897637795275,"duration":0.3385418020833413},{"name":"D5","midi":74,"time":347.5001390000012,"velocity":0.8818897637795275,"duration":0.3385418020833413},{"name":"F5","midi":77,"time":347.5001390000012,"velocity":0.8818897637795275,"duration":0.3385418020833413},{"name":"G4","midi":67,"time":347.8572820000012,"velocity":0.8818897637795275,"duration":0.6778276520833515},{"name":"C5","midi":72,"time":347.8572820000012,"velocity":0.8818897637795275,"duration":0.6778276520833515},{"name":"E5","midi":76,"time":347.8572820000012,"velocity":0.8818897637795275,"duration":0.6778276520833515},{"name":"G5","midi":79,"time":347.8572820000012,"velocity":0.8818897637795275,"duration":0.6778276520833515},{"name":"F4","midi":65,"time":348.5715680000012,"velocity":0.8818897637795275,"duration":0.3385418020833413},{"name":"A4","midi":69,"time":348.5715680000012,"velocity":0.8818897637795275,"duration":0.3385418020833413},{"name":"C5","midi":72,"time":348.5715680000012,"velocity":0.8818897637795275,"duration":0.3385418020833413},{"name":"F5","midi":77,"time":348.5715680000012,"velocity":0.8818897637795275,"duration":0.3385418020833413},{"name":"G4","midi":67,"time":348.9287110000012,"velocity":0.8818897637795275,"duration":0.11830361875001927},{"name":"G5","midi":79,"time":348.9287110000012,"velocity":0.8818897637795275,"duration":0.11830361875001927},{"name":"E5","midi":76,"time":349.0477586666679,"velocity":0.8818897637795275,"duration":0.11830361875001927},{"name":"C5","midi":72,"time":349.1668063333346,"velocity":0.8818897637795275,"duration":0.11830361875001927},{"name":"A4","midi":69,"time":349.2858540000013,"velocity":0.8818897637795275,"duration":0.6778276520833515},{"name":"C5","midi":72,"time":349.2858540000013,"velocity":0.8818897637795275,"duration":0.6778276520833515},{"name":"F5","midi":77,"time":349.2858540000013,"velocity":0.8818897637795275,"duration":0.6778276520833515},{"name":"A5","midi":81,"time":349.2858540000013,"velocity":0.8818897637795275,"duration":0.6778276520833515},{"name":"G4","midi":67,"time":350.0001400000013,"velocity":0.8818897637795275,"duration":0.3385418020833413},{"name":"A#4","midi":70,"time":350.0001400000013,"velocity":0.8818897637795275,"duration":0.3385418020833413},{"name":"D5","midi":74,"time":350.0001400000013,"velocity":0.8818897637795275,"duration":0.3385418020833413},{"name":"G5","midi":79,"time":350.0001400000013,"velocity":0.8818897637795275,"duration":0.3385418020833413},{"name":"F4","midi":65,"time":350.3572830000013,"velocity":0.8818897637795275,"duration":0.3385418020833413},{"name":"A#4","midi":70,"time":350.3572830000013,"velocity":0.8818897637795275,"duration":0.3385418020833413},{"name":"D5","midi":74,"time":350.3572830000013,"velocity":0.8818897637795275,"duration":0.3385418020833413},{"name":"F5","midi":77,"time":350.3572830000013,"velocity":0.8818897637795275,"duration":0.3385418020833413},{"name":"D4","midi":62,"time":350.7144260000013,"velocity":0.8818897637795275,"duration":0.6778276520833515},{"name":"F4","midi":65,"time":350.7144260000013,"velocity":0.8818897637795275,"duration":0.6778276520833515},{"name":"A#4","midi":70,"time":350.7144260000013,"velocity":0.8818897637795275,"duration":0.6778276520833515},{"name":"D5","midi":74,"time":350.7144260000013,"velocity":0.8818897637795275,"duration":0.6778276520833515},{"name":"D4","midi":62,"time":351.4287120000013,"velocity":0.8346456692913385,"duration":0.3385418020833413},{"name":"F4","midi":65,"time":351.4287120000013,"velocity":0.8346456692913385,"duration":0.3385418020833413},{"name":"A#4","midi":70,"time":351.4287120000013,"velocity":0.8346456692913385,"duration":0.3385418020833413},{"name":"D5","midi":74,"time":351.4287120000013,"velocity":0.8346456692913385,"duration":0.3385418020833413},{"name":"E4","midi":64,"time":351.78585500000133,"velocity":0.7795275590551181,"duration":0.3385418020833413},{"name":"A#4","midi":70,"time":351.78585500000133,"velocity":0.7795275590551181,"duration":0.3385418020833413},{"name":"C#5","midi":73,"time":351.78585500000133,"velocity":0.7795275590551181,"duration":0.3385418020833413},{"name":"E5","midi":76,"time":351.78585500000133,"velocity":0.7795275590551181,"duration":0.3385418020833413},{"name":"F4","midi":65,"time":352.14299800000134,"velocity":0.7244094488188977,"duration":0.6778276520833515},{"name":"A4","midi":69,"time":352.14299800000134,"velocity":0.7244094488188977,"duration":0.6778276520833515},{"name":"D5","midi":74,"time":352.14299800000134,"velocity":0.7244094488188977,"duration":0.6778276520833515},{"name":"F5","midi":77,"time":352.14299800000134,"velocity":0.7244094488188977,"duration":0.6778276520833515},{"name":"G4","midi":67,"time":352.85728400000136,"velocity":0.6141732283464567,"duration":0.3385418020833413},{"name":"C5","midi":72,"time":352.85728400000136,"velocity":0.6141732283464567,"duration":0.3385418020833413},{"name":"E5","midi":76,"time":352.85728400000136,"velocity":0.6141732283464567,"duration":0.3385418020833413},{"name":"G5","midi":79,"time":352.85728400000136,"velocity":0.6141732283464567,"duration":0.3385418020833413},{"name":"A4","midi":69,"time":353.21442700000136,"velocity":0.5590551181102362,"duration":0.3385418020833413},{"name":"C5","midi":72,"time":353.21442700000136,"velocity":0.5590551181102362,"duration":0.3385418020833413},{"name":"F5","midi":77,"time":353.21442700000136,"velocity":0.5590551181102362,"duration":0.3385418020833413},{"name":"A5","midi":81,"time":353.21442700000136,"velocity":0.5590551181102362,"duration":0.3385418020833413},{"name":"A#4","midi":70,"time":353.5715700000014,"velocity":0.5039370078740157,"duration":0.7135419520832329},{"name":"D5","midi":74,"time":353.61844501875134,"velocity":0.5039370078740157,"duration":0.6659228854165917},{"name":"G5","midi":79,"time":353.666064085418,"velocity":0.5039370078740157,"duration":0.6183038187499506},{"name":"A#5","midi":82,"time":353.7144272000013,"velocity":0.5039370078740157,"duration":0.5706847520833094},{"name":"A#4","midi":70,"time":354.2858560000013,"velocity":0.5039370078740157,"duration":0.3385418020833413},{"name":"D5","midi":74,"time":354.2858560000013,"velocity":0.5039370078740157,"duration":0.3385418020833413},{"name":"A#4","midi":70,"time":354.6429990000013,"velocity":0.5039370078740157,"duration":0.3385418020833413},{"name":"D5","midi":74,"time":354.6429990000013,"velocity":0.5039370078740157,"duration":0.3385418020833413},{"name":"G5","midi":79,"time":354.6429990000013,"velocity":0.5039370078740157,"duration":0.3385418020833413},{"name":"A4","midi":69,"time":355.0001420000013,"velocity":0.5039370078740157,"duration":1.356399352083315},{"name":"D5","midi":74,"time":355.0001420000013,"velocity":0.5039370078740157,"duration":1.356399352083315},{"name":"F5","midi":77,"time":355.0001420000013,"velocity":0.5039370078740157,"duration":1.356399352083315},{"name":"A4","midi":69,"time":356.42871400000126,"velocity":0.5039370078740157,"duration":0.3385418020833413},{"name":"C#5","midi":73,"time":356.42871400000126,"velocity":0.5039370078740157,"duration":0.3385418020833413},{"name":"E5","midi":76,"time":356.42871400000126,"velocity":0.5039370078740157,"duration":0.3385418020833413},{"name":"E5","midi":76,"time":356.7858570000013,"velocity":0.5039370078740157,"duration":0.3385418020833413},{"name":"A4","midi":69,"time":357.1430000000013,"velocity":0.5039370078740157,"duration":0.6778276520833515},{"name":"C#5","midi":73,"time":357.1430000000013,"velocity":0.5039370078740157,"duration":0.6778276520833515},{"name":"E5","midi":76,"time":357.1430000000013,"velocity":0.5039370078740157,"duration":0.6778276520833515},{"name":"A5","midi":81,"time":357.1430000000013,"velocity":0.5039370078740157,"duration":0.6778276520833515},{"name":"A4","midi":69,"time":357.8572860000013,"velocity":0.8818897637795275,"duration":0.6778276520833515},{"name":"D5","midi":74,"time":357.8572860000013,"velocity":0.8818897637795275,"duration":0.6778276520833515},{"name":"F5","midi":77,"time":357.8572860000013,"velocity":0.8818897637795275,"duration":0.6778276520833515},{"name":"A5","midi":81,"time":357.8572860000013,"velocity":0.8818897637795275,"duration":0.6778276520833515},{"name":"A#4","midi":70,"time":358.5715720000013,"velocity":0.8818897637795275,"duration":0.6778276520833515},{"name":"D5","midi":74,"time":358.5715720000013,"velocity":0.8818897637795275,"duration":0.6778276520833515},{"name":"F5","midi":77,"time":358.5715720000013,"velocity":0.8818897637795275,"duration":0.6778276520833515},{"name":"A#5","midi":82,"time":358.5715720000013,"velocity":0.8818897637795275,"duration":0.6778276520833515},{"name":"B4","midi":71,"time":359.2858580000013,"velocity":0.8818897637795275,"duration":1.356399352083315},{"name":"D5","midi":74,"time":359.2858580000013,"velocity":0.8818897637795275,"duration":1.356399352083315},{"name":"F5","midi":77,"time":359.2858580000013,"velocity":0.8818897637795275,"duration":1.356399352083315},{"name":"B5","midi":83,"time":359.2858580000013,"velocity":0.8818897637795275,"duration":1.356399352083315},{"name":"D3","midi":50,"time":362.14300200000133,"velocity":0.3858267716535433,"duration":0.0840774145833052},{"name":"E3","midi":52,"time":362.2322877500013,"velocity":0.3858267716535433,"duration":0.0840774145833052},{"name":"E3","midi":52,"time":362.3215735000013,"velocity":0.3858267716535433,"duration":0.0840774145833052},{"name":"F3","midi":53,"time":362.4108592500013,"velocity":0.3858267716535433,"duration":0.0840774145833052},{"name":"D3","midi":50,"time":362.5001450000013,"velocity":0.3858267716535433,"duration":0.0840774145833052},{"name":"E3","midi":52,"time":362.58943075000127,"velocity":0.3858267716535433,"duration":0.0840774145833052},{"name":"E3","midi":52,"time":362.67871650000126,"velocity":0.3858267716535433,"duration":0.0840774145833052},{"name":"F3","midi":53,"time":362.76800225000125,"velocity":0.3858267716535433,"duration":0.0840774145833052},{"name":"D3","midi":50,"time":362.85728800000123,"velocity":0.3858267716535433,"duration":0.0840774145833052},{"name":"E3","midi":52,"time":362.9465737500012,"velocity":0.3858267716535433,"duration":0.0840774145833052},{"name":"E3","midi":52,"time":363.0358595000012,"velocity":0.3858267716535433,"duration":0.0840774145833052},{"name":"F3","midi":53,"time":363.1251452500012,"velocity":0.3858267716535433,"duration":0.0840774145833052},{"name":"D3","midi":50,"time":363.2144310000012,"velocity":0.3858267716535433,"duration":0.0840774145833052},{"name":"E3","midi":52,"time":363.3037167500012,"velocity":0.3858267716535433,"duration":0.0840774145833052},{"name":"E3","midi":52,"time":363.39300250000116,"velocity":0.3858267716535433,"duration":0.0840774145833052},{"name":"F3","midi":53,"time":363.48228825000115,"velocity":0.3858267716535433,"duration":0.0840774145833052},{"name":"D4","midi":62,"time":363.57157400000114,"velocity":0.3858267716535433,"duration":0.0840774145833052},{"name":"A3","midi":57,"time":363.6608597500011,"velocity":0.3858267716535433,"duration":1.1019349645833358},{"name":"G3","midi":55,"time":364.82157450000113,"velocity":0.3858267716535433,"duration":0.0840774145833052},{"name":"F3","midi":53,"time":364.9108602500011,"velocity":0.3858267716535433,"duration":0.0840774145833052},{"name":"G3","midi":55,"time":365.0001460000011,"velocity":0.3858267716535433,"duration":0.0840774145833052},{"name":"C4","midi":60,"time":365.0894317500011,"velocity":0.3858267716535433,"duration":1.271577889583341},{"name":"C4","midi":60,"time":366.4287180000011,"velocity":0.3858267716535433,"duration":0.0840774145833052},{"name":"E3","midi":52,"time":366.51800375000107,"velocity":0.3858267716535433,"duration":0.16889887708333617},{"name":"E3","midi":52,"time":366.69657525000105,"velocity":0.3858267716535433,"duration":0.3385418020833413},{"name":"E3","midi":52,"time":367.05371825000105,"velocity":0.3858267716535433,"duration":0.3385418020833413},{"name":"E3","midi":52,"time":367.41086125000106,"velocity":0.3858267716535433,"duration":0.2537203395833103},{"name":"D3","midi":50,"time":367.678718500001,"velocity":0.3858267716535433,"duration":0.0840774145833052},{"name":"E3","midi":52,"time":367.768004250001,"velocity":0.3858267716535433,"duration":0.0840774145833052},{"name":"F3","midi":53,"time":367.857290000001,"velocity":0.3858267716535433,"duration":0.2537203395833103},{"name":"F3","midi":53,"time":368.12514725000096,"velocity":0.3858267716535433,"duration":0.3385418020833413},{"name":"F3","midi":53,"time":368.482290250001,"velocity":0.3858267716535433,"duration":0.3385418020833413},{"name":"F3","midi":53,"time":368.839433250001,"velocity":0.3858267716535433,"duration":0.3385418020833413},{"name":"F3","midi":53,"time":369.196576250001,"velocity":0.3858267716535433,"duration":0.0840774145833052},{"name":"D4","midi":62,"time":369.285862000001,"velocity":0.3858267716535433,"duration":0.0840774145833052},{"name":"A3","midi":57,"time":369.37514775000096,"velocity":0.3858267716535433,"duration":1.1019349645833358},{"name":"G3","midi":55,"time":370.535862500001,"velocity":0.3858267716535433,"duration":0.0840774145833052},{"name":"F3","midi":53,"time":370.62514825000096,"velocity":0.3858267716535433,"duration":0.0840774145833052},{"name":"G3","midi":55,"time":370.71443400000095,"velocity":0.3858267716535433,"duration":0.0840774145833052},{"name":"C4","midi":60,"time":370.80371975000094,"velocity":0.3858267716535433,"duration":1.1019349645833358},{"name":"A#3","midi":58,"time":371.96443450000095,"velocity":0.3858267716535433,"duration":0.0840774145833052},{"name":"A3","midi":57,"time":372.05372025000094,"velocity":0.3858267716535433,"duration":0.0840774145833052},{"name":"A#3","midi":58,"time":372.1430060000009,"velocity":0.3858267716535433,"duration":0.0840774145833052},{"name":"A#3","midi":58,"time":372.2322917500009,"velocity":0.3858267716535433,"duration":0.2537203395833103},{"name":"A#3","midi":58,"time":372.5001490000009,"velocity":0.3858267716535433,"duration":0.3385418020833413},{"name":"A#3","midi":58,"time":372.8572920000009,"velocity":0.3858267716535433,"duration":0.5081847270833464},{"name":"F3","midi":53,"time":373.3930065000009,"velocity":0.3858267716535433,"duration":0.0840774145833052},{"name":"G3","midi":55,"time":373.4822922500009,"velocity":0.3858267716535433,"duration":0.0840774145833052},{"name":"A3","midi":57,"time":373.5715780000009,"velocity":0.5039370078740157,"duration":0.2537203395833103},{"name":"A3","midi":57,"time":373.83943525000086,"velocity":0.5275590551181102,"duration":0.3385418020833413},{"name":"A3","midi":57,"time":374.19657825000087,"velocity":0.5590551181102362,"duration":0.3385418020833413},{"name":"A3","midi":57,"time":374.5537212500009,"velocity":0.5905511811023622,"duration":0.3385418020833413},{"name":"A3","midi":57,"time":374.9108642500009,"velocity":0.6220472440944882,"duration":0.0840774145833052},{"name":"D3","midi":50,"time":375.0001500000009,"velocity":0.5039370078740157,"duration":0.0840774145833052},{"name":"D4","midi":62,"time":375.08943575000086,"velocity":0.5039370078740157,"duration":1.1019349645833358},{"name":"C4","midi":60,"time":376.25015050000087,"velocity":0.5039370078740157,"duration":0.1264881458333207},{"name":"A#3","midi":58,"time":376.3840791250009,"velocity":0.5039370078740157,"duration":0.041666683333346555},{"name":"C4","midi":60,"time":376.4287220000009,"velocity":0.5039370078740157,"duration":0.0840774145833052},{"name":"F3","midi":53,"time":376.5180077500009,"velocity":0.5039370078740157,"duration":0.16889887708333617},{"name":"F3","midi":53,"time":376.69657925000087,"velocity":0.5039370078740157,"duration":0.3385418020833413},{"name":"F3","midi":53,"time":377.0537222500009,"velocity":0.5039370078740157,"duration":0.3385418020833413},{"name":"F3","midi":53,"time":377.4108652500009,"velocity":0.5039370078740157,"duration":0.0840774145833052},{"name":"F3","midi":53,"time":377.67872250000084,"velocity":0.5039370078740157,"duration":0.0840774145833052},{"name":"E3","midi":52,"time":377.76800825000083,"velocity":0.5039370078740157,"duration":0.0840774145833052},{"name":"F3","midi":53,"time":377.8572940000008,"velocity":0.5039370078740157,"duration":0.0840774145833052},{"name":"F4","midi":65,"time":377.9465797500008,"velocity":0.5039370078740157,"duration":0.7626491145833256},{"name":"A#3","midi":58,"time":378.7501515000008,"velocity":0.5039370078740157,"duration":0.16889887708333617},{"name":"E4","midi":64,"time":378.9287230000008,"velocity":0.5039370078740157,"duration":0.2537203395833103},{"name":"F4","midi":65,"time":379.19658025000075,"velocity":0.5039370078740157,"duration":0.0840774145833052},{"name":"E4","midi":64,"time":379.28586600000074,"velocity":0.5039370078740157,"duration":0.8474705770833566},{"name":"A3","midi":57,"time":380.1787235000008,"velocity":0.5039370078740157,"duration":0.0840774145833052},{"name":"C4","midi":60,"time":380.2680092500008,"velocity":0.5039370078740157,"duration":0.0840774145833052},{"name":"E4","midi":64,"time":380.35729500000076,"velocity":0.5039370078740157,"duration":0.2537203395833103},{"name":"D4","midi":62,"time":380.6251522500007,"velocity":0.5039370078740157,"duration":0.0840774145833052},{"name":"A#4","midi":70,"time":380.7144380000007,"velocity":0.6299212598425197,"duration":1.017113502083248},{"name":"D5","midi":74,"time":380.7144380000007,"velocity":0.6299212598425197,"duration":1.017113502083248},{"name":"D4","midi":62,"time":380.7144380000007,"velocity":0.6299212598425197,"duration":0.3385418020833413},{"name":"F4","midi":65,"time":380.7144380000007,"velocity":0.6299212598425197,"duration":0.3385418020833413},{"name":"D4","midi":62,"time":381.0715810000007,"velocity":0.6456692913385826,"duration":0.0840774145833052},{"name":"F4","midi":65,"time":381.0715810000007,"velocity":0.6456692913385826,"duration":0.0840774145833052},{"name":"D4","midi":62,"time":381.1608667500007,"velocity":0.6456692913385826,"duration":0.0840774145833052},{"name":"F4","midi":65,"time":381.1608667500007,"velocity":0.6456692913385826,"duration":0.0840774145833052},{"name":"D4","midi":62,"time":381.2501525000007,"velocity":0.6535433070866141,"duration":0.0840774145833052},{"name":"F4","midi":65,"time":381.2501525000007,"velocity":0.6535433070866141,"duration":0.0840774145833052},{"name":"D4","midi":62,"time":381.3394382500007,"velocity":0.6535433070866141,"duration":0.0840774145833052},{"name":"F4","midi":65,"time":381.3394382500007,"velocity":0.6535433070866141,"duration":0.0840774145833052},{"name":"D4","midi":62,"time":381.42872400000067,"velocity":0.6614173228346457,"duration":0.0840774145833052},{"name":"F4","midi":65,"time":381.42872400000067,"velocity":0.6614173228346457,"duration":0.0840774145833052},{"name":"D4","midi":62,"time":381.51800975000066,"velocity":0.6614173228346457,"duration":0.0840774145833052},{"name":"F4","midi":65,"time":381.51800975000066,"velocity":0.6614173228346457,"duration":0.0840774145833052},{"name":"D4","midi":62,"time":381.60729550000065,"velocity":0.6692913385826772,"duration":0.0840774145833052},{"name":"F4","midi":65,"time":381.60729550000065,"velocity":0.6692913385826772,"duration":0.0840774145833052},{"name":"D4","midi":62,"time":381.69658125000063,"velocity":0.6692913385826772,"duration":0.0840774145833052},{"name":"F4","midi":65,"time":381.69658125000063,"velocity":0.6692913385826772,"duration":0.0840774145833052},{"name":"C4","midi":60,"time":381.7858670000006,"velocity":0.6771653543307087,"duration":0.2537203395833103},{"name":"F4","midi":65,"time":381.7858670000006,"velocity":0.6771653543307087,"duration":0.2537203395833103},{"name":"C5","midi":72,"time":381.7858670000006,"velocity":0.6771653543307087,"duration":0.2537203395833103},{"name":"D5","midi":74,"time":382.0537242500006,"velocity":0.6850393700787402,"duration":0.0840774145833052},{"name":"F4","midi":65,"time":382.1430100000006,"velocity":0.6929133858267716,"duration":0.0840774145833052},{"name":"A4","midi":69,"time":382.1430100000006,"velocity":0.6929133858267716,"duration":0.0840774145833052},{"name":"D4","midi":62,"time":382.23229575000056,"velocity":0.6929133858267716,"duration":0.0840774145833052},{"name":"D4","midi":62,"time":382.32158150000055,"velocity":0.7007874015748031,"duration":0.0840774145833052},{"name":"D4","midi":62,"time":382.41086725000054,"velocity":0.7007874015748031,"duration":0.0840774145833052},{"name":"D4","midi":62,"time":382.5001530000005,"velocity":0.7086614173228346,"duration":0.0840774145833052},{"name":"D4","midi":62,"time":382.5894387500005,"velocity":0.7086614173228346,"duration":0.0840774145833052},{"name":"D4","midi":62,"time":382.6787245000005,"velocity":0.7165354330708661,"duration":0.0840774145833052},{"name":"D4","midi":62,"time":382.7680102500005,"velocity":0.7165354330708661,"duration":0.0840774145833052},{"name":"D4","midi":62,"time":382.8572960000005,"velocity":0.7244094488188977,"duration":0.2537203395833103},{"name":"F4","midi":65,"time":383.12515325000044,"velocity":0.7322834645669292,"duration":0.0840774145833052},{"name":"F5","midi":77,"time":383.12515325000044,"velocity":0.7322834645669292,"duration":0.0840774145833052},{"name":"E4","midi":64,"time":383.2144390000004,"velocity":0.7401574803149606,"duration":0.2537203395833103},{"name":"E5","midi":76,"time":383.2144390000004,"velocity":0.7401574803149606,"duration":0.2537203395833103},{"name":"D4","midi":62,"time":383.4822962500004,"velocity":0.7480314960629921,"duration":0.0840774145833052},{"name":"D5","midi":74,"time":383.4822962500004,"velocity":0.7480314960629921,"duration":0.0840774145833052},{"name":"D4","midi":62,"time":383.5715820000004,"velocity":0.7559055118110236,"duration":0.0840774145833052},{"name":"D5","midi":74,"time":383.5715820000004,"velocity":0.7559055118110236,"duration":0.0840774145833052},{"name":"E4","midi":64,"time":383.66086775000036,"velocity":0.7559055118110236,"duration":0.0840774145833052},{"name":"E5","midi":76,"time":383.66086775000036,"velocity":0.7559055118110236,"duration":0.0840774145833052},{"name":"A3","midi":57,"time":383.75015350000035,"velocity":0.7559055118110236,"duration":0.0840774145833052},{"name":"C4","midi":60,"time":383.75015350000035,"velocity":0.7559055118110236,"duration":0.0840774145833052},{"name":"E4","midi":64,"time":383.75015350000035,"velocity":0.7559055118110236,"duration":0.0840774145833052},{"name":"A3","midi":57,"time":383.83943925000034,"velocity":0.7559055118110236,"duration":0.0840774145833052},{"name":"C4","midi":60,"time":383.83943925000034,"velocity":0.7559055118110236,"duration":0.0840774145833052},{"name":"E4","midi":64,"time":383.83943925000034,"velocity":0.7559055118110236,"duration":0.0840774145833052},{"name":"A3","midi":57,"time":383.9287250000003,"velocity":0.7559055118110236,"duration":0.0840774145833052},{"name":"C4","midi":60,"time":383.9287250000003,"velocity":0.7559055118110236,"duration":0.0840774145833052},{"name":"E4","midi":64,"time":383.9287250000003,"velocity":0.7559055118110236,"duration":0.0840774145833052},{"name":"A3","midi":57,"time":384.0180107500003,"velocity":0.7559055118110236,"duration":0.0840774145833052},{"name":"C4","midi":60,"time":384.0180107500003,"velocity":0.7559055118110236,"duration":0.0840774145833052},{"name":"E4","midi":64,"time":384.0180107500003,"velocity":0.7559055118110236,"duration":0.0840774145833052},{"name":"A3","midi":57,"time":384.1072965000003,"velocity":0.7559055118110236,"duration":0.0840774145833052},{"name":"C4","midi":60,"time":384.1072965000003,"velocity":0.7559055118110236,"duration":0.0840774145833052},{"name":"E4","midi":64,"time":384.1072965000003,"velocity":0.7559055118110236,"duration":0.0840774145833052},{"name":"A3","midi":57,"time":384.1965822500003,"velocity":0.7559055118110236,"duration":0.0840774145833052},{"name":"C4","midi":60,"time":384.1965822500003,"velocity":0.7559055118110236,"duration":0.0840774145833052},{"name":"E4","midi":64,"time":384.1965822500003,"velocity":0.7559055118110236,"duration":0.0840774145833052},{"name":"A3","midi":57,"time":384.2858680000003,"velocity":0.7559055118110236,"duration":0.16889887708333617},{"name":"C4","midi":60,"time":384.2858680000003,"velocity":0.7559055118110236,"duration":0.16889887708333617},{"name":"E4","midi":64,"time":384.2858680000003,"velocity":0.7559055118110236,"duration":0.16889887708333617},{"name":"E4","midi":64,"time":384.46443950000025,"velocity":0.7559055118110236,"duration":0.16889887708333617},{"name":"A4","midi":69,"time":384.46443950000025,"velocity":0.7559055118110236,"duration":0.16889887708333617},{"name":"E4","midi":64,"time":384.64301100000023,"velocity":0.7244094488188977,"duration":0.16889887708333617},{"name":"A4","midi":69,"time":384.64301100000023,"velocity":0.7244094488188977,"duration":0.16889887708333617},{"name":"E4","midi":64,"time":384.8215825000002,"velocity":0.6850393700787402,"duration":0.16889887708333617},{"name":"A4","midi":69,"time":384.8215825000002,"velocity":0.6850393700787402,"duration":0.16889887708333617},{"name":"D5","midi":74,"time":384.8215825000002,"velocity":0.6850393700787402,"duration":0.16889887708333617},{"name":"A4","midi":69,"time":385.0001540000002,"velocity":0.6535433070866141,"duration":0.5081847270833464},{"name":"C#5","midi":73,"time":385.0001540000002,"velocity":0.6535433070866141,"duration":0.5081847270833464},{"name":"E5","midi":76,"time":385.0001540000002,"velocity":0.6535433070866141,"duration":0.5081847270833464},{"name":"A4","midi":69,"time":385.6251542500002,"velocity":0.5275590551181102,"duration":0.0840774145833052},{"name":"D4","midi":62,"time":385.7144400000002,"velocity":0.5039370078740157,"duration":0.356398952083282},{"name":"F4","midi":65,"time":385.76131501875017,"velocity":0.5039370078740157,"duration":0.3087798854166408},{"name":"A4","midi":69,"time":385.8089340854168,"velocity":0.5039370078740157,"duration":0.26116081874999963},{"name":"D5","midi":74,"time":385.8572972000001,"velocity":0.5039370078740157,"duration":0.21354175208335846},{"name":"C5","midi":72,"time":386.2501545000001,"velocity":0.5039370078740157,"duration":0.0885417020833188},{"name":"D5","midi":74,"time":386.3394402500001,"velocity":0.5039370078740157,"duration":0.0885417020833188},{"name":"F5","midi":77,"time":386.4287260000001,"velocity":0.5039370078740157,"duration":0.0885417020833188},{"name":"E4","midi":64,"time":386.4287260000001,"velocity":0.5039370078740157,"duration":0.356398952083282},{"name":"E5","midi":76,"time":386.5180117500001,"velocity":0.5039370078740157,"duration":0.0885417020833188},{"name":"D5","midi":74,"time":386.6072975000001,"velocity":0.5039370078740157,"duration":0.0885417020833188},{"name":"C5","midi":72,"time":386.69658325000006,"velocity":0.5039370078740157,"duration":0.0885417020833188},{"name":"C5","midi":72,"time":386.78586900000005,"velocity":0.5039370078740157,"duration":0.0885417020833188},{"name":"E4","midi":64,"time":386.78586900000005,"velocity":0.5039370078740157,"duration":0.17782745208330653},{"name":"D5","midi":74,"time":386.87515475000004,"velocity":0.5039370078740157,"duration":0.7626491145833256},{"name":"F4","midi":65,"time":386.9644405,"velocity":0.5039370078740157,"duration":0.8474705770833566},{"name":"C5","midi":72,"time":387.67872650000004,"velocity":0.5039370078740157,"duration":0.0885417020833188},{"name":"D5","midi":74,"time":387.76801225,"velocity":0.5039370078740157,"duration":0.08854170208337564},{"name":"F5","midi":77,"time":387.85729800000007,"velocity":0.5039370078740157,"duration":0.0885417020833188},{"name":"G4","midi":67,"time":387.85729800000007,"velocity":0.5039370078740157,"duration":0.356398952083282},{"name":"E5","midi":76,"time":387.94658375000006,"velocity":0.5039370078740157,"duration":0.0885417020833188},{"name":"D5","midi":74,"time":388.03586950000005,"velocity":0.5039370078740157,"duration":0.0885417020833188},{"name":"C5","midi":72,"time":388.12515525000003,"velocity":0.5039370078740157,"duration":0.0885417020833188},{"name":"C5","midi":72,"time":388.214441,"velocity":0.5039370078740157,"duration":0.0885417020833188},{"name":"G4","midi":67,"time":388.214441,"velocity":0.5039370078740157,"duration":0.17782745208330653},{"name":"D5","midi":74,"time":388.30372675,"velocity":0.5039370078740157,"duration":0.7626491145833256},{"name":"A4","midi":69,"time":388.3930125,"velocity":0.5039370078740157,"duration":0.8474705770833566},{"name":"C5","midi":72,"time":389.1072985,"velocity":0.5039370078740157,"duration":0.0885417020833188},{"name":"D5","midi":74,"time":389.19658425,"velocity":0.5039370078740157,"duration":0.08854170208337564},{"name":"F5","midi":77,"time":389.28587000000005,"velocity":0.5039370078740157,"duration":0.0885417020833188},{"name":"F4","midi":65,"time":389.28587000000005,"velocity":0.5039370078740157,"duration":0.356398952083282},{"name":"E5","midi":76,"time":389.37515575000003,"velocity":0.5039370078740157,"duration":0.0885417020833188},{"name":"D5","midi":74,"time":389.4644415,"velocity":0.5039370078740157,"duration":0.0885417020833188},{"name":"C5","midi":72,"time":389.55372725,"velocity":0.5039370078740157,"duration":0.0885417020833188},{"name":"D5","midi":74,"time":389.643013,"velocity":0.5039370078740157,"duration":0.0885417020833188},{"name":"G4","midi":67,"time":389.643013,"velocity":0.5039370078740157,"duration":0.17782745208330653},{"name":"E5","midi":76,"time":389.73229875,"velocity":0.5039370078740157,"duration":0.7760419770833096},{"name":"C5","midi":72,"time":389.8215845,"velocity":0.5039370078740157,"duration":0.8028277020833343},{"name":"C5","midi":72,"time":390.5358705,"velocity":0.5039370078740157,"duration":0.15997030208330898},{"name":"D5","midi":74,"time":390.62515625,"velocity":0.5039370078740157,"duration":0.0885417020833188},{"name":"F5","midi":77,"time":390.71444199999996,"velocity":0.5039370078740157,"duration":0.0885417020833188},{"name":"E4","midi":64,"time":390.71444199999996,"velocity":0.5039370078740157,"duration":0.356398952083282},{"name":"E5","midi":76,"time":390.80372774999995,"velocity":0.5039370078740157,"duration":0.0885417020833188},{"name":"D5","midi":74,"time":390.89301349999994,"velocity":0.5039370078740157,"duration":0.0885417020833188},{"name":"C5","midi":72,"time":390.9822992499999,"velocity":0.5039370078740157,"duration":0.0885417020833188},{"name":"D5","midi":74,"time":391.0715849999999,"velocity":0.5039370078740157,"duration":0.8474705770832998},{"name":"D4","midi":62,"time":391.0715849999999,"velocity":0.5039370078740157,"duration":0.5349704520833143},{"name":"F4","midi":65,"time":391.1184600187499,"velocity":0.5039370078740157,"duration":0.4873513854166731},{"name":"E4","midi":64,"time":391.6072994999999,"velocity":0.7559055118110236,"duration":0.5349704520833143},{"name":"C5","midi":72,"time":391.9644424999999,"velocity":0.6299212598425197,"duration":0.0885417020833188},{"name":"D5","midi":74,"time":392.0537282499999,"velocity":0.6299212598425197,"duration":0.0885417020833188},{"name":"F5","midi":77,"time":392.1430139999999,"velocity":0.6299212598425197,"duration":0.0885417020833188},{"name":"E4","midi":64,"time":392.1430139999999,"velocity":0.6299212598425197,"duration":0.356398952083282},{"name":"E5","midi":76,"time":392.23229974999987,"velocity":0.6299212598425197,"duration":0.0885417020833188},{"name":"D5","midi":74,"time":392.32158549999986,"velocity":0.6299212598425197,"duration":0.0885417020833188},{"name":"C5","midi":72,"time":392.41087124999984,"velocity":0.6299212598425197,"duration":0.0885417020833188},{"name":"C5","midi":72,"time":392.50015699999983,"velocity":0.6299212598425197,"duration":0.0885417020833188},{"name":"E4","midi":64,"time":392.50015699999983,"velocity":0.6299212598425197,"duration":0.17782745208330653},{"name":"D5","midi":74,"time":392.5894427499998,"velocity":0.6299212598425197,"duration":0.7626491145833256},{"name":"F4","midi":65,"time":392.6787284999998,"velocity":0.6299212598425197,"duration":0.8474705770833566},{"name":"C5","midi":72,"time":393.3930144999998,"velocity":0.6299212598425197,"duration":0.0885417020833188},{"name":"D5","midi":74,"time":393.4823002499998,"velocity":0.6299212598425197,"duration":0.08854170208337564},{"name":"F5","midi":77,"time":393.57158599999985,"velocity":0.6299212598425197,"duration":0.0885417020833188},{"name":"G4","midi":67,"time":393.57158599999985,"velocity":0.6299212598425197,"duration":0.356398952083282},{"name":"E5","midi":76,"time":393.66087174999984,"velocity":0.6299212598425197,"duration":0.0885417020833188},{"name":"D5","midi":74,"time":393.75015749999983,"velocity":0.6299212598425197,"duration":0.0885417020833188},{"name":"C5","midi":72,"time":393.8394432499998,"velocity":0.6299212598425197,"duration":0.0885417020833188},{"name":"C5","midi":72,"time":393.9287289999998,"velocity":0.6299212598425197,"duration":0.0885417020833188},{"name":"G4","midi":67,"time":393.9287289999998,"velocity":0.6299212598425197,"duration":0.17782745208330653},{"name":"D5","midi":74,"time":394.0180147499998,"velocity":0.6299212598425197,"duration":0.7626491145833256},{"name":"A4","midi":69,"time":394.1073004999998,"velocity":0.6299212598425197,"duration":0.8474705770833566},{"name":"C5","midi":72,"time":394.8215864999998,"velocity":0.6299212598425197,"duration":0.0885417020833188},{"name":"D5","midi":74,"time":394.9108722499998,"velocity":0.6299212598425197,"duration":0.08854170208337564},{"name":"F5","midi":77,"time":395.00015799999983,"velocity":0.6299212598425197,"duration":0.0885417020833188},{"name":"F4","midi":65,"time":395.00015799999983,"velocity":0.6299212598425197,"duration":0.356398952083282},{"name":"E5","midi":76,"time":395.0894437499998,"velocity":0.6299212598425197,"duration":0.0885417020833188},{"name":"D5","midi":74,"time":395.1787294999998,"velocity":0.6299212598425197,"duration":0.0885417020833188},{"name":"C5","midi":72,"time":395.2680152499998,"velocity":0.6299212598425197,"duration":0.0885417020833188},{"name":"D5","midi":74,"time":395.3573009999998,"velocity":0.6299212598425197,"duration":0.0885417020833188},{"name":"G4","midi":67,"time":395.3573009999998,"velocity":0.6299212598425197,"duration":0.17782745208330653},{"name":"E5","midi":76,"time":395.44658674999977,"velocity":0.6299212598425197,"duration":0.7626491145833256},{"name":"C5","midi":72,"time":395.53587249999975,"velocity":0.6299212598425197,"duration":0.8028277020833343},{"name":"C5","midi":72,"time":396.25015849999977,"velocity":0.6299212598425197,"duration":0.13318457708334108},{"name":"D5","midi":74,"time":396.33944424999976,"velocity":0.6299212598425197,"duration":0.08854170208337564},{"name":"F5","midi":77,"time":396.4287299999998,"velocity":0.6299212598425197,"duration":0.0885417020833188},{"name":"E4","midi":64,"time":396.4287299999998,"velocity":0.6299212598425197,"duration":0.356398952083282},{"name":"E5","midi":76,"time":396.5180157499998,"velocity":0.6299212598425197,"duration":0.0885417020833188},{"name":"D5","midi":74,"time":396.6073014999998,"velocity":0.6299212598425197,"duration":0.0885417020833188},{"name":"C5","midi":72,"time":396.69658724999977,"velocity":0.6299212598425197,"duration":0.0840774145833052},{"name":"D4","midi":62,"time":396.78587299999975,"velocity":0.6299212598425197,"duration":0.5081847270833464},{"name":"F4","midi":65,"time":396.78587299999975,"velocity":0.6299212598425197,"duration":0.5081847270833464},{"name":"D5","midi":74,"time":396.78587299999975,"velocity":0.6299212598425197,"duration":0.5081847270833464},{"name":"A4","midi":69,"time":397.3215874999998,"velocity":0.6771653543307087,"duration":0.16889887708333617},{"name":"F4","midi":65,"time":397.50015899999977,"velocity":0.6929133858267716,"duration":0.5081847270833464},{"name":"A4","midi":69,"time":397.50015899999977,"velocity":0.6929133858267716,"duration":0.5081847270833464},{"name":"F5","midi":77,"time":397.50015899999977,"velocity":0.6929133858267716,"duration":0.5081847270833464},{"name":"E4","midi":64,"time":398.0358734999998,"velocity":0.7401574803149606,"duration":0.16889887708333617},{"name":"A4","midi":69,"time":398.0358734999998,"velocity":0.7401574803149606,"duration":0.16889887708333617},{"name":"E5","midi":76,"time":398.0358734999998,"velocity":0.7401574803149606,"duration":0.16889887708333617},{"name":"E4","midi":64,"time":398.2144449999998,"velocity":0.7559055118110236,"duration":0.3385418020833413},{"name":"F4","midi":65,"time":398.2144449999998,"velocity":0.7559055118110236,"duration":0.3385418020833413},{"name":"A#4","midi":70,"time":398.2144449999998,"velocity":0.7559055118110236,"duration":0.3385418020833413},{"name":"E5","midi":76,"time":398.2144449999998,"velocity":0.7559055118110236,"duration":0.3385418020833413},{"name":"D4","midi":62,"time":398.5715879999998,"velocity":0.7559055118110236,"duration":0.3385418020833413},{"name":"F4","midi":65,"time":398.5715879999998,"velocity":0.7559055118110236,"duration":0.3385418020833413},{"name":"A#4","midi":70,"time":398.5715879999998,"velocity":0.7559055118110236,"duration":0.3385418020833413},{"name":"D5","midi":74,"time":398.5715879999998,"velocity":0.7559055118110236,"duration":0.3385418020833413},{"name":"C4","midi":60,"time":398.9287309999998,"velocity":0.7559055118110236,"duration":0.3385418020833413},{"name":"F4","midi":65,"time":398.9287309999998,"velocity":0.7559055118110236,"duration":0.3385418020833413},{"name":"C5","midi":72,"time":398.9287309999998,"velocity":0.7559055118110236,"duration":0.3385418020833413},{"name":"D4","midi":62,"time":399.2858739999998,"velocity":0.7559055118110236,"duration":0.3385418020833413},{"name":"F4","midi":65,"time":399.2858739999998,"velocity":0.7559055118110236,"duration":0.3385418020833413},{"name":"A#4","midi":70,"time":399.2858739999998,"velocity":0.7559055118110236,"duration":0.3385418020833413},{"name":"D5","midi":74,"time":399.2858739999998,"velocity":0.7559055118110236,"duration":0.3385418020833413},{"name":"C4","midi":60,"time":399.6430169999998,"velocity":0.7559055118110236,"duration":0.3385418020833413},{"name":"F4","midi":65,"time":399.6430169999998,"velocity":0.7559055118110236,"duration":0.3385418020833413},{"name":"A4","midi":69,"time":399.6430169999998,"velocity":0.7559055118110236,"duration":0.3385418020833413},{"name":"C5","midi":72,"time":399.6430169999998,"velocity":0.7559055118110236,"duration":0.3385418020833413},{"name":"A3","midi":57,"time":400.0001599999998,"velocity":0.7559055118110236,"duration":0.3385418020833413},{"name":"C4","midi":60,"time":400.0001599999998,"velocity":0.7559055118110236,"duration":0.3385418020833413},{"name":"F4","midi":65,"time":400.0001599999998,"velocity":0.7559055118110236,"duration":0.3385418020833413},{"name":"A4","midi":69,"time":400.0001599999998,"velocity":0.7559055118110236,"duration":0.3385418020833413},{"name":"A4","midi":69,"time":400.35730299999983,"velocity":0.7559055118110236,"duration":0.5081847270833464},{"name":"C5","midi":72,"time":400.35730299999983,"velocity":0.7559055118110236,"duration":0.5081847270833464},{"name":"F5","midi":77,"time":400.35730299999983,"velocity":0.7559055118110236,"duration":0.5081847270833464},{"name":"A5","midi":81,"time":400.35730299999983,"velocity":0.7559055118110236,"duration":0.5081847270833464},{"name":"A4","midi":69,"time":400.89301749999987,"velocity":0.7559055118110236,"duration":0.16889887708333617},{"name":"C5","midi":72,"time":400.89301749999987,"velocity":0.7559055118110236,"duration":0.16889887708333617},{"name":"F5","midi":77,"time":400.89301749999987,"velocity":0.7559055118110236,"duration":0.16889887708333617},{"name":"A5","midi":81,"time":400.89301749999987,"velocity":0.7559055118110236,"duration":0.16889887708333617},{"name":"G4","midi":67,"time":401.07158899999985,"velocity":0.7559055118110236,"duration":0.3385418020833413},{"name":"C5","midi":72,"time":401.07158899999985,"velocity":0.7559055118110236,"duration":0.3385418020833413},{"name":"F5","midi":77,"time":401.07158899999985,"velocity":0.7559055118110236,"duration":0.3385418020833413},{"name":"G5","midi":79,"time":401.07158899999985,"velocity":0.7559055118110236,"duration":0.3385418020833413},{"name":"C5","midi":72,"time":401.42873199999985,"velocity":0.7559055118110236,"duration":0.3385418020833413},{"name":"E5","midi":76,"time":401.42873199999985,"velocity":0.7559055118110236,"duration":0.3385418020833413},{"name":"G5","midi":79,"time":401.42873199999985,"velocity":0.7559055118110236,"duration":0.3385418020833413},{"name":"C6","midi":84,"time":401.42873199999985,"velocity":0.7559055118110236,"duration":0.3385418020833413},{"name":"E4","midi":64,"time":401.78587499999986,"velocity":0.7559055118110236,"duration":0.5081847270833464},{"name":"A4","midi":69,"time":401.78587499999986,"velocity":0.7559055118110236,"duration":0.5081847270833464},{"name":"C5","midi":72,"time":401.78587499999986,"velocity":0.7559055118110236,"duration":0.5081847270833464},{"name":"E5","midi":76,"time":401.78587499999986,"velocity":0.7559055118110236,"duration":0.5081847270833464},{"name":"C4","midi":60,"time":402.3215894999999,"velocity":0.7559055118110236,"duration":0.16889887708333617},{"name":"E4","midi":64,"time":402.3215894999999,"velocity":0.7559055118110236,"duration":0.16889887708333617},{"name":"A4","midi":69,"time":402.3215894999999,"velocity":0.7559055118110236,"duration":0.16889887708333617},{"name":"C5","midi":72,"time":402.3215894999999,"velocity":0.7559055118110236,"duration":0.16889887708333617},{"name":"D4","midi":62,"time":402.5001609999999,"velocity":0.7559055118110236,"duration":0.3385418020833413},{"name":"F4","midi":65,"time":402.5001609999999,"velocity":0.7559055118110236,"duration":0.3385418020833413},{"name":"A4","midi":69,"time":402.5001609999999,"velocity":0.7559055118110236,"duration":0.3385418020833413},{"name":"D5","midi":74,"time":402.5001609999999,"velocity":0.7559055118110236,"duration":0.3385418020833413},{"name":"A3","midi":57,"time":402.8573039999999,"velocity":0.7559055118110236,"duration":0.3385418020833413},{"name":"D4","midi":62,"time":402.8573039999999,"velocity":0.7559055118110236,"duration":0.3385418020833413},{"name":"F4","midi":65,"time":402.8573039999999,"velocity":0.7559055118110236,"duration":0.3385418020833413},{"name":"A4","midi":69,"time":402.8573039999999,"velocity":0.7559055118110236,"duration":0.3385418020833413},{"name":"A4","midi":69,"time":403.2144469999999,"velocity":0.7559055118110236,"duration":0.5081847270833464},{"name":"D5","midi":74,"time":403.2144469999999,"velocity":0.7559055118110236,"duration":0.5081847270833464},{"name":"F5","midi":77,"time":403.2144469999999,"velocity":0.7559055118110236,"duration":0.5081847270833464},{"name":"A5","midi":81,"time":403.2144469999999,"velocity":0.7559055118110236,"duration":0.5081847270833464},{"name":"E4","midi":64,"time":403.75016149999993,"velocity":0.7559055118110236,"duration":0.16889887708333617},{"name":"G4","midi":67,"time":403.75016149999993,"velocity":0.7559055118110236,"duration":0.16889887708333617},{"name":"C5","midi":72,"time":403.75016149999993,"velocity":0.7559055118110236,"duration":0.16889887708333617},{"name":"E5","midi":76,"time":403.75016149999993,"velocity":0.7559055118110236,"duration":0.16889887708333617},{"name":"E4","midi":64,"time":403.9287329999999,"velocity":0.7559055118110236,"duration":0.3385418020833413},{"name":"F4","midi":65,"time":403.9287329999999,"velocity":0.7559055118110236,"duration":0.3385418020833413},{"name":"A#4","midi":70,"time":403.9287329999999,"velocity":0.7559055118110236,"duration":0.3385418020833413},{"name":"E5","midi":76,"time":403.9287329999999,"velocity":0.7559055118110236,"duration":0.3385418020833413},{"name":"D4","midi":62,"time":404.2858759999999,"velocity":0.7559055118110236,"duration":0.0840774145833052},{"name":"F4","midi":65,"time":404.2858759999999,"velocity":0.7559055118110236,"duration":0.0840774145833052},{"name":"A#4","midi":70,"time":404.2858759999999,"velocity":0.7559055118110236,"duration":0.0840774145833052},{"name":"D5","midi":74,"time":404.2858759999999,"velocity":0.7559055118110236,"duration":0.0840774145833052},{"name":"D4","midi":62,"time":404.3751617499999,"velocity":0.7559055118110236,"duration":0.0840774145833052},{"name":"F4","midi":65,"time":404.4644474999999,"velocity":0.7559055118110236,"duration":0.0840774145833052},{"name":"D5","midi":74,"time":404.5537332499999,"velocity":0.7559055118110236,"duration":0.0840774145833052},{"name":"C4","midi":60,"time":404.64301899999987,"velocity":0.7559055118110236,"duration":0.3385418020833413},{"name":"F4","midi":65,"time":404.64301899999987,"velocity":0.7559055118110236,"duration":0.3385418020833413},{"name":"C5","midi":72,"time":404.64301899999987,"velocity":0.7559055118110236,"duration":0.3385418020833413},{"name":"A#3","midi":58,"time":405.0001619999999,"velocity":0.7559055118110236,"duration":0.3385418020833413},{"name":"D4","midi":62,"time":405.0001619999999,"velocity":0.7559055118110236,"duration":0.3385418020833413},{"name":"F4","midi":65,"time":405.0001619999999,"velocity":0.7559055118110236,"duration":0.3385418020833413},{"name":"A#4","midi":70,"time":405.0001619999999,"velocity":0.7559055118110236,"duration":0.3385418020833413},{"name":"C4","midi":60,"time":405.3573049999999,"velocity":0.7559055118110236,"duration":0.3385418020833413},{"name":"F4","midi":65,"time":405.3573049999999,"velocity":0.7559055118110236,"duration":0.3385418020833413},{"name":"A4","midi":69,"time":405.3573049999999,"velocity":0.7559055118110236,"duration":0.3385418020833413},{"name":"C4","midi":60,"time":405.7144479999999,"velocity":0.7559055118110236,"duration":0.3385418020833413},{"name":"F4","midi":65,"time":405.7144479999999,"velocity":0.7559055118110236,"duration":0.3385418020833413},{"name":"A4","midi":69,"time":405.7144479999999,"velocity":0.7559055118110236,"duration":0.3385418020833413},{"name":"C5","midi":72,"time":405.7144479999999,"velocity":0.7559055118110236,"duration":0.3385418020833413},{"name":"A4","midi":69,"time":406.0715909999999,"velocity":0.7559055118110236,"duration":0.5081847270833464},{"name":"C5","midi":72,"time":406.0715909999999,"velocity":0.7559055118110236,"duration":0.5081847270833464},{"name":"F5","midi":77,"time":406.0715909999999,"velocity":0.7559055118110236,"duration":0.5081847270833464},{"name":"A5","midi":81,"time":406.0715909999999,"velocity":0.7559055118110236,"duration":0.5081847270833464},{"name":"A4","midi":69,"time":406.60730549999994,"velocity":0.7559055118110236,"duration":0.16889887708333617},{"name":"C5","midi":72,"time":406.60730549999994,"velocity":0.7559055118110236,"duration":0.16889887708333617},{"name":"F5","midi":77,"time":406.60730549999994,"velocity":0.7559055118110236,"duration":0.16889887708333617},{"name":"A5","midi":81,"time":406.60730549999994,"velocity":0.7559055118110236,"duration":0.16889887708333617},{"name":"G4","midi":67,"time":406.7858769999999,"velocity":0.7559055118110236,"duration":0.3385418020833413},{"name":"C5","midi":72,"time":406.7858769999999,"velocity":0.7559055118110236,"duration":0.3385418020833413},{"name":"F5","midi":77,"time":406.7858769999999,"velocity":0.7559055118110236,"duration":0.3385418020833413},{"name":"G5","midi":79,"time":406.7858769999999,"velocity":0.7559055118110236,"duration":0.3385418020833413},{"name":"C5","midi":72,"time":407.1430199999999,"velocity":0.7559055118110236,"duration":0.3385418020833413},{"name":"E5","midi":76,"time":407.1430199999999,"velocity":0.7559055118110236,"duration":0.3385418020833413},{"name":"G5","midi":79,"time":407.1430199999999,"velocity":0.7559055118110236,"duration":0.3385418020833413},{"name":"C6","midi":84,"time":407.1430199999999,"velocity":0.7559055118110236,"duration":0.3385418020833413},{"name":"E4","midi":64,"time":407.50016299999993,"velocity":0.7559055118110236,"duration":0.5081847270833464},{"name":"A4","midi":69,"time":407.50016299999993,"velocity":0.7559055118110236,"duration":0.5081847270833464},{"name":"C5","midi":72,"time":407.50016299999993,"velocity":0.7559055118110236,"duration":0.5081847270833464},{"name":"E5","midi":76,"time":407.50016299999993,"velocity":0.7559055118110236,"duration":0.5081847270833464},{"name":"C4","midi":60,"time":408.03587749999997,"velocity":0.7559055118110236,"duration":0.16889887708333617},{"name":"E4","midi":64,"time":408.03587749999997,"velocity":0.7559055118110236,"duration":0.16889887708333617},{"name":"A4","midi":69,"time":408.03587749999997,"velocity":0.7559055118110236,"duration":0.16889887708333617},{"name":"C5","midi":72,"time":408.03587749999997,"velocity":0.7559055118110236,"duration":0.16889887708333617},{"name":"D4","midi":62,"time":408.21444899999995,"velocity":0.7559055118110236,"duration":1.4278279520831347},{"name":"F4","midi":65,"time":408.2613240187499,"velocity":0.7559055118110236,"duration":0.479166858333258},{"name":"A4","midi":69,"time":408.3081990374999,"velocity":0.7559055118110236,"duration":0.6108633395832612},{"name":"D5","midi":74,"time":408.35730619999987,"velocity":0.7559055118110236,"duration":0.7403276770832576},{"name":"E4","midi":64,"time":408.39302049999986,"velocity":0.7559055118110236,"duration":0.16889887708333617},{"name":"F4","midi":65,"time":408.57159199999984,"velocity":0.7559055118110236,"duration":1.0699409041665717},{"name":"A4","midi":69,"time":408.7501634999998,"velocity":0.7559055118110236,"duration":0.8913694041665963},{"name":"D5","midi":74,"time":408.9287349999998,"velocity":0.7559055118110236,"duration":0.7135419520832897},{"name":"E5","midi":76,"time":409.10730649999977,"velocity":0.7559055118110236,"duration":0.16889887708333617},{"name":"F5","midi":77,"time":409.28587799999974,"velocity":0.7559055118110236,"duration":0.16889887708333617},{"name":"G5","midi":79,"time":409.4644494999997,"velocity":0.7559055118110236,"duration":0.16889887708333617},{"name":"F4","midi":65,"time":409.64302099999975,"velocity":0.5039370078740157,"duration":0.17782745208330653},{"name":"F5","midi":77,"time":409.64302099999975,"velocity":0.5039370078740157,"duration":0.17782745208330653},{"name":"G4","midi":67,"time":410.0001639999997,"velocity":0.5039370078740157,"duration":0.0885417020833188},{"name":"G5","midi":79,"time":410.0001639999997,"velocity":0.5039370078740157,"duration":0.0885417020833188},{"name":"A4","midi":69,"time":410.1787354999997,"velocity":0.5039370078740157,"duration":0.0885417020833188},{"name":"A5","midi":81,"time":410.1787354999997,"velocity":0.5039370078740157,"duration":0.0885417020833188},{"name":"G4","midi":67,"time":410.35730699999965,"velocity":0.5039370078740157,"duration":0.3563989520833388},{"name":"G5","midi":79,"time":410.35730699999965,"velocity":0.5039370078740157,"duration":0.3563989520833388},{"name":"F4","midi":65,"time":410.71444999999966,"velocity":0.5039370078740157,"duration":0.0885417020833188},{"name":"F5","midi":77,"time":410.71444999999966,"velocity":0.5039370078740157,"duration":0.0885417020833188},{"name":"E4","midi":64,"time":410.89302149999963,"velocity":0.5039370078740157,"duration":0.0885417020833188},{"name":"E5","midi":76,"time":410.89302149999963,"velocity":0.5039370078740157,"duration":0.0885417020833188},{"name":"F4","midi":65,"time":411.0715929999996,"velocity":0.5039370078740157,"duration":0.13318457708334108},{"name":"F5","midi":77,"time":411.0715929999996,"velocity":0.5039370078740157,"duration":0.13318457708334108},{"name":"A4","midi":69,"time":411.33945024999963,"velocity":0.5039370078740157,"duration":0.04389882708335335},{"name":"A5","midi":81,"time":411.33945024999963,"velocity":0.5039370078740157,"duration":0.04389882708335335},{"name":"A4","midi":69,"time":411.4287359999997,"velocity":0.5039370078740157,"duration":0.17782745208330653},{"name":"A5","midi":81,"time":411.4287359999997,"velocity":0.5039370078740157,"duration":0.17782745208330653},{"name":"G4","midi":67,"time":411.7858789999996,"velocity":0.5039370078740157,"duration":0.3563989520833388},{"name":"G5","midi":79,"time":411.7858789999996,"velocity":0.5039370078740157,"duration":0.3563989520833388},{"name":"F4","midi":65,"time":412.14302199999963,"velocity":0.5039370078740157,"duration":0.0885417020833188},{"name":"F5","midi":77,"time":412.14302199999963,"velocity":0.5039370078740157,"duration":0.0885417020833188},{"name":"G4","midi":67,"time":412.3215934999996,"velocity":0.5039370078740157,"duration":0.0885417020833188},{"name":"G5","midi":79,"time":412.3215934999996,"velocity":0.5039370078740157,"duration":0.0885417020833188},{"name":"A4","midi":69,"time":412.5001649999996,"velocity":0.5039370078740157,"duration":0.0885417020833188},{"name":"A5","midi":81,"time":412.5001649999996,"velocity":0.5039370078740157,"duration":0.0885417020833188},{"name":"G4","midi":67,"time":412.67873649999956,"velocity":0.5039370078740157,"duration":0.0885417020833188},{"name":"G5","midi":79,"time":412.67873649999956,"velocity":0.5039370078740157,"duration":0.0885417020833188},{"name":"F4","midi":65,"time":412.85730799999953,"velocity":0.5039370078740157,"duration":0.17782745208330653},{"name":"F5","midi":77,"time":412.85730799999953,"velocity":0.5039370078740157,"duration":0.17782745208330653},{"name":"E4","midi":64,"time":413.2144509999995,"velocity":0.5039370078740157,"duration":0.356398952083282},{"name":"G4","midi":67,"time":413.26132601874946,"velocity":0.5039370078740157,"duration":0.3087798854166408},{"name":"C#5","midi":73,"time":413.3089450854161,"velocity":0.5039370078740157,"duration":0.26116081874999963},{"name":"E5","midi":76,"time":413.3573081999994,"velocity":0.5039370078740157,"duration":0.21354175208335846},{"name":"F5","midi":77,"time":413.57159399999944,"velocity":0.5039370078740157,"duration":0.0885417020833188},{"name":"E5","midi":76,"time":413.7501654999994,"velocity":0.5039370078740157,"duration":0.0885417020833188},{"name":"F4","midi":65,"time":413.9287369999994,"velocity":0.5039370078740157,"duration":1.0171135020833617},{"name":"A4","midi":69,"time":413.9287369999994,"velocity":0.5039370078740157,"duration":1.0171135020833617},{"name":"D5","midi":74,"time":413.9287369999994,"velocity":0.5039370078740157,"duration":1.0171135020833617},{"name":"D4","midi":62,"time":415.0001659999994,"velocity":0.25984251968503935,"duration":0.16889887708333617},{"name":"E4","midi":64,"time":415.1787374999994,"velocity":0.25984251968503935,"duration":0.16889887708333617},{"name":"F4","midi":65,"time":415.35730899999936,"velocity":0.25984251968503935,"duration":0.6778276520833515},{"name":"G4","midi":67,"time":416.0715949999994,"velocity":0.25984251968503935,"duration":0.16889887708333617},{"name":"A4","midi":69,"time":416.25016649999935,"velocity":0.25984251968503935,"duration":0.16889887708333617},{"name":"G4","midi":67,"time":416.4287379999993,"velocity":0.25984251968503935,"duration":0.6778276520833515},{"name":"F4","midi":65,"time":417.14302399999934,"velocity":0.25984251968503935,"duration":0.16889887708333617},{"name":"E4","midi":64,"time":417.3215954999993,"velocity":0.25984251968503935,"duration":0.16889887708333617},{"name":"F4","midi":65,"time":417.5001669999993,"velocity":0.25984251968503935,"duration":0.3385418020833413},{"name":"G4","midi":67,"time":417.8573099999993,"velocity":0.25984251968503935,"duration":0.3385418020833413},{"name":"A4","midi":69,"time":418.2144529999993,"velocity":0.25984251968503935,"duration":0.3385418020833413},{"name":"G4","midi":67,"time":418.5715959999993,"velocity":0.25984251968503935,"duration":1.356399352083315},{"name":"D4","midi":62,"time":420.0001679999993,"velocity":0.4251968503937008,"duration":0.0885417020833188},{"name":"F4","midi":65,"time":420.0894537499993,"velocity":0.4330708661417323,"duration":0.0885417020833188},{"name":"A4","midi":69,"time":420.17873949999927,"velocity":0.4409448818897638,"duration":0.0885417020833188},{"name":"A#4","midi":70,"time":420.26802524999925,"velocity":0.44881889763779526,"duration":0.0885417020833188},{"name":"D4","midi":62,"time":420.35731099999924,"velocity":0.4645669291338583,"duration":0.0885417020833188},{"name":"F4","midi":65,"time":420.44659674999923,"velocity":0.47244094488188976,"duration":0.0885417020833188},{"name":"A4","midi":69,"time":420.5358824999992,"velocity":0.48031496062992124,"duration":0.0885417020833188},{"name":"A#4","midi":70,"time":420.6251682499992,"velocity":0.49606299212598426,"duration":0.0885417020833188},{"name":"D4","midi":62,"time":420.7144539999992,"velocity":0.5039370078740157,"duration":0.0885417020833188},{"name":"F4","midi":65,"time":420.8037397499992,"velocity":0.5118110236220472,"duration":0.0885417020833188},{"name":"A4","midi":69,"time":420.89302549999917,"velocity":0.5275590551181102,"duration":0.0885417020833188},{"name":"A#4","midi":70,"time":420.98231124999916,"velocity":0.5354330708661418,"duration":0.0885417020833188},{"name":"D4","midi":62,"time":421.07159699999914,"velocity":0.5433070866141733,"duration":0.0885417020833188},{"name":"F4","midi":65,"time":421.16088274999913,"velocity":0.5590551181102362,"duration":0.0885417020833188},{"name":"A4","midi":69,"time":421.2501684999991,"velocity":0.5669291338582677,"duration":0.0885417020833188},{"name":"A#4","midi":70,"time":421.3394542499991,"velocity":0.5748031496062992,"duration":0.0885417020833188},{"name":"D4","midi":62,"time":421.4287399999991,"velocity":0.5905511811023622,"duration":0.0885417020833188},{"name":"F4","midi":65,"time":421.5180257499991,"velocity":0.5984251968503937,"duration":0.0885417020833188},{"name":"A4","midi":69,"time":421.60731149999907,"velocity":0.6062992125984252,"duration":0.0885417020833188},{"name":"A#4","midi":70,"time":421.69659724999906,"velocity":0.6141732283464567,"duration":0.0885417020833188},{"name":"D4","midi":62,"time":421.78588299999905,"velocity":0.6299212598425197,"duration":0.0885417020833188},{"name":"F4","midi":65,"time":421.87516874999903,"velocity":0.6377952755905512,"duration":0.0885417020833188},{"name":"A4","midi":69,"time":421.964454499999,"velocity":0.6456692913385826,"duration":0.0885417020833188},{"name":"A#4","midi":70,"time":422.053740249999,"velocity":0.6614173228346457,"duration":0.0885417020833188},{"name":"D4","midi":62,"time":422.143025999999,"velocity":0.6692913385826772,"duration":0.0885417020833188},{"name":"F4","midi":65,"time":422.232311749999,"velocity":0.6771653543307087,"duration":0.0885417020833188},{"name":"A4","midi":69,"time":422.321597499999,"velocity":0.6929133858267716,"duration":0.0885417020833188},{"name":"A#4","midi":70,"time":422.41088324999896,"velocity":0.7007874015748031,"duration":0.0885417020833188},{"name":"D4","midi":62,"time":422.50016899999895,"velocity":0.7086614173228346,"duration":0.0885417020833188},{"name":"F4","midi":65,"time":422.58945474999894,"velocity":0.7244094488188977,"duration":0.0885417020833188},{"name":"A4","midi":69,"time":422.6787404999989,"velocity":0.7322834645669292,"duration":0.0885417020833188},{"name":"A#4","midi":70,"time":422.7680262499989,"velocity":0.7401574803149606,"duration":0.0885417020833188},{"name":"D4","midi":62,"time":422.8573119999989,"velocity":0.7559055118110236,"duration":0.0885417020833188},{"name":"F4","midi":65,"time":422.9465977499989,"velocity":0.7559055118110236,"duration":0.0885417020833188},{"name":"A4","midi":69,"time":423.0358834999989,"velocity":0.7480314960629921,"duration":0.0885417020833188},{"name":"B4","midi":71,"time":423.12516924999886,"velocity":0.7401574803149606,"duration":0.0885417020833188},{"name":"D4","midi":62,"time":423.21445499999885,"velocity":0.7322834645669292,"duration":0.0885417020833188},{"name":"G4","midi":67,"time":423.30374074999884,"velocity":0.7244094488188977,"duration":0.0885417020833188},{"name":"A4","midi":69,"time":423.3930264999988,"velocity":0.7165354330708661,"duration":0.0885417020833188},{"name":"B4","midi":71,"time":423.4823122499988,"velocity":0.7007874015748031,"duration":0.0885417020833188},{"name":"D4","midi":62,"time":423.5715979999988,"velocity":0.6929133858267716,"duration":0.0885417020833188},{"name":"G4","midi":67,"time":423.6608837499988,"velocity":0.6850393700787402,"duration":0.0885417020833188},{"name":"A4","midi":69,"time":423.7501694999988,"velocity":0.6771653543307087,"duration":0.0885417020833188},{"name":"B4","midi":71,"time":423.83945524999876,"velocity":0.6692913385826772,"duration":0.0885417020833188},{"name":"D4","midi":62,"time":423.92874099999875,"velocity":0.6535433070866141,"duration":0.0885417020833188},{"name":"G4","midi":67,"time":424.01802674999874,"velocity":0.6456692913385826,"duration":0.0885417020833188},{"name":"A4","midi":69,"time":424.1073124999987,"velocity":0.6377952755905512,"duration":0.0885417020833188},{"name":"B4","midi":71,"time":424.1965982499987,"velocity":0.6299212598425197,"duration":0.0885417020833188},{"name":"D4","midi":62,"time":424.2858839999987,"velocity":0.6220472440944882,"duration":0.0885417020833188},{"name":"G4","midi":67,"time":424.3751697499987,"velocity":0.6141732283464567,"duration":0.0885417020833188},{"name":"A4","midi":69,"time":424.4644554999987,"velocity":0.5984251968503937,"duration":0.0885417020833188},{"name":"B4","midi":71,"time":424.55374124999867,"velocity":0.5905511811023622,"duration":0.0885417020833188},{"name":"D4","midi":62,"time":424.64302699999865,"velocity":0.5826771653543307,"duration":0.0885417020833188},{"name":"G4","midi":67,"time":424.73231274999864,"velocity":0.5748031496062992,"duration":0.0885417020833188},{"name":"A4","midi":69,"time":424.82159849999863,"velocity":0.5669291338582677,"duration":0.0885417020833188},{"name":"B4","midi":71,"time":424.9108842499986,"velocity":0.5511811023622047,"duration":0.0885417020833188},{"name":"D4","midi":62,"time":425.0001699999986,"velocity":0.5433070866141733,"duration":0.0885417020833188},{"name":"G4","midi":67,"time":425.0894557499986,"velocity":0.5354330708661418,"duration":0.0885417020833188},{"name":"A4","midi":69,"time":425.1787414999986,"velocity":0.5275590551181102,"duration":0.0885417020833188},{"name":"B4","midi":71,"time":425.26802724999857,"velocity":0.5196850393700787,"duration":0.0885417020833188},{"name":"A4","midi":69,"time":425.35731299999856,"velocity":0.5039370078740157,"duration":0.17782745208330653},{"name":"C5","midi":72,"time":425.53588449999853,"velocity":0.5039370078740157,"duration":0.16889887708333617},{"name":"D4","midi":62,"time":425.7144559999985,"velocity":0.5039370078740157,"duration":1.0706849520832407},{"name":"F4","midi":65,"time":425.7613310187485,"velocity":0.5039370078740157,"duration":1.0230658854165995},{"name":"A#4","midi":70,"time":425.80820603749845,"velocity":0.5039370078740157,"duration":0.9761908666666272},{"name":"D5","midi":74,"time":425.85656915208176,"velocity":0.5039370078740157,"duration":0.9278277520833171},{"name":"E4","midi":64,"time":426.7858849999984,"velocity":0.5039370078740157,"duration":0.3385418020833413},{"name":"E5","midi":76,"time":426.7858849999984,"velocity":0.5039370078740157,"duration":0.3385418020833413},{"name":"F4","midi":65,"time":427.1430279999984,"velocity":0.5039370078740157,"duration":1.0706849520832407},{"name":"A4","midi":69,"time":427.1899030187484,"velocity":0.5039370078740157,"duration":1.0230658854165995},{"name":"C5","midi":72,"time":427.23677803749837,"velocity":0.5039370078740157,"duration":0.9761908666666272},{"name":"F5","midi":77,"time":427.2851411520817,"velocity":0.5039370078740157,"duration":0.9278277520833171},{"name":"E4","midi":64,"time":428.57159999999834,"velocity":0.5039370078740157,"duration":1.0706849520832407},{"name":"A4","midi":69,"time":428.6184750187483,"velocity":0.5039370078740157,"duration":1.0230658854165995},{"name":"C5","midi":72,"time":428.6653500374983,"velocity":0.5039370078740157,"duration":0.9761908666666272},{"name":"E5","midi":76,"time":428.7137131520816,"velocity":0.5039370078740157,"duration":0.9278277520833171},{"name":"C4","midi":60,"time":429.64302899999825,"velocity":0.5039370078740157,"duration":0.3385418020833413},{"name":"C5","midi":72,"time":429.64302899999825,"velocity":0.5039370078740157,"duration":0.3385418020833413},{"name":"D4","midi":62,"time":430.00017199999826,"velocity":0.5039370078740157,"duration":0.6778276520833515},{"name":"F4","midi":65,"time":430.00017199999826,"velocity":0.5039370078740157,"duration":0.6778276520833515},{"name":"D5","midi":74,"time":430.00017199999826,"velocity":0.5039370078740157,"duration":0.6778276520833515},{"name":"E4","midi":64,"time":430.7144579999983,"velocity":0.5039370078740157,"duration":0.6778276520833515},{"name":"F4","midi":65,"time":431.4287439999983,"velocity":0.5039370078740157,"duration":0.6778276520833515},{"name":"G4","midi":67,"time":432.1430299999983,"velocity":0.5039370078740157,"duration":0.6778276520833515},{"name":"D4","midi":62,"time":432.8573159999983,"velocity":0.4566929133858268,"duration":3.6153288270832604},{"name":"F4","midi":65,"time":432.86996481458164,"velocity":0.4566929133858268,"duration":3.6019359645832765},{"name":"A4","midi":69,"time":432.8841017249983,"velocity":0.4566929133858268,"duration":3.5885431020832925},{"name":"D5","midi":74,"time":432.8974945874983,"velocity":0.4566929133858268,"duration":3.5744061916666396},{"name":"D4","midi":62,"time":436.78588899999824,"velocity":0.3858267716535433,"duration":0.17782745208330653},{"name":"E4","midi":64,"time":436.9644604999982,"velocity":0.3858267716535433,"duration":0.17782745208330653},{"name":"A3","midi":57,"time":437.1430319999982,"velocity":0.3858267716535433,"duration":1.0171135020833617},{"name":"D4","midi":62,"time":437.1430319999982,"velocity":0.3858267716535433,"duration":1.0171135020833617},{"name":"F4","midi":65,"time":437.1430319999982,"velocity":0.3858267716535433,"duration":1.0171135020833617},{"name":"G4","midi":67,"time":438.9287469999982,"velocity":0.3858267716535433,"duration":0.17782745208330653},{"name":"A4","midi":69,"time":439.1073184999982,"velocity":0.3858267716535433,"duration":0.17782745208330653},{"name":"C4","midi":60,"time":439.2858899999982,"velocity":0.3858267716535433,"duration":1.0171135020833617},{"name":"E4","midi":64,"time":439.2858899999982,"velocity":0.3858267716535433,"duration":1.0171135020833617},{"name":"G4","midi":67,"time":439.2858899999982,"velocity":0.3858267716535433,"duration":1.0171135020833617},{"name":"F4","midi":65,"time":441.0716049999982,"velocity":0.3858267716535433,"duration":0.17782745208330653},{"name":"E4","midi":64,"time":441.2501764999982,"velocity":0.3858267716535433,"duration":0.17782745208330653},{"name":"A#3","midi":58,"time":441.42874799999817,"velocity":0.3858267716535433,"duration":1.0171135020833617},{"name":"D4","midi":62,"time":441.42874799999817,"velocity":0.3858267716535433,"duration":1.0171135020833617},{"name":"F4","midi":65,"time":441.42874799999817,"velocity":0.3858267716535433,"duration":1.0171135020833617},{"name":"G4","midi":67,"time":443.2144629999982,"velocity":0.3858267716535433,"duration":0.17782745208330653},{"name":"A4","midi":69,"time":443.3930344999982,"velocity":0.3858267716535433,"duration":0.17782745208330653},{"name":"C4","midi":60,"time":443.57160599999816,"velocity":0.3858267716535433,"duration":1.0171135020833617},{"name":"E4","midi":64,"time":443.57160599999816,"velocity":0.3858267716535433,"duration":1.0171135020833617},{"name":"G4","midi":67,"time":443.57160599999816,"velocity":0.3858267716535433,"duration":1.0171135020833617},{"name":"F4","midi":65,"time":445.3573209999982,"velocity":0.3858267716535433,"duration":0.17782745208330653},{"name":"G4","midi":67,"time":445.53589249999817,"velocity":0.3858267716535433,"duration":0.17782745208330653},{"name":"D4","midi":62,"time":445.71446399999815,"velocity":0.3858267716535433,"duration":1.0171135020833617},{"name":"F4","midi":65,"time":445.71446399999815,"velocity":0.3858267716535433,"duration":1.0171135020833617},{"name":"A4","midi":69,"time":445.71446399999815,"velocity":0.3858267716535433,"duration":1.0171135020833617},{"name":"G4","midi":67,"time":447.1430359999982,"velocity":0.3858267716535433,"duration":0.3385418020833413},{"name":"F4","midi":65,"time":447.5001789999982,"velocity":0.3858267716535433,"duration":0.3385418020833413},{"name":"A3","midi":57,"time":447.8573219999982,"velocity":0.3858267716535433,"duration":1.356399352083372},{"name":"C#4","midi":61,"time":447.8573219999982,"velocity":0.3858267716535433,"duration":1.356399352083372},{"name":"E4","midi":64,"time":447.8573219999982,"velocity":0.3858267716535433,"duration":1.356399352083372},{"name":"F3","midi":53,"time":449.2858939999982,"velocity":0.7559055118110236,"duration":0.3385418020833413},{"name":"A3","midi":57,"time":449.2858939999982,"velocity":0.7559055118110236,"duration":0.3385418020833413},{"name":"D4","midi":62,"time":449.2858939999982,"velocity":0.7559055118110236,"duration":0.3385418020833413},{"name":"A3","midi":57,"time":449.64303699999823,"velocity":0.7559055118110236,"duration":0.3385418020833413},{"name":"C#4","midi":61,"time":449.64303699999823,"velocity":0.7559055118110236,"duration":0.3385418020833413},{"name":"E4","midi":64,"time":449.64303699999823,"velocity":0.7559055118110236,"duration":0.3385418020833413},{"name":"F3","midi":53,"time":450.00017999999824,"velocity":0.7559055118110236,"duration":0.5081847270833464},{"name":"A3","midi":57,"time":450.00017999999824,"velocity":0.7559055118110236,"duration":0.5081847270833464},{"name":"D4","midi":62,"time":450.00017999999824,"velocity":0.7559055118110236,"duration":0.5081847270833464},{"name":"F4","midi":65,"time":450.00017999999824,"velocity":0.7559055118110236,"duration":0.5081847270833464},{"name":"G3","midi":55,"time":450.5358944999983,"velocity":0.7559055118110236,"duration":0.16889887708333617},{"name":"E4","midi":64,"time":450.5358944999983,"velocity":0.7559055118110236,"duration":0.16889887708333617},{"name":"G4","midi":67,"time":450.5358944999983,"velocity":0.7559055118110236,"duration":0.16889887708333617},{"name":"A3","midi":57,"time":450.71446599999825,"velocity":0.7559055118110236,"duration":0.3385418020833413},{"name":"D4","midi":62,"time":450.71446599999825,"velocity":0.7559055118110236,"duration":0.3385418020833413},{"name":"F4","midi":65,"time":450.71446599999825,"velocity":0.7559055118110236,"duration":0.3385418020833413},{"name":"A4","midi":69,"time":450.71446599999825,"velocity":0.7559055118110236,"duration":0.3385418020833413},{"name":"C4","midi":60,"time":451.07160899999826,"velocity":0.7559055118110236,"duration":0.6778276520833515},{"name":"E4","midi":64,"time":451.07160899999826,"velocity":0.7559055118110236,"duration":0.6778276520833515},{"name":"G4","midi":67,"time":451.07160899999826,"velocity":0.7559055118110236,"duration":0.6778276520833515},{"name":"A3","midi":57,"time":451.7858949999983,"velocity":0.7559055118110236,"duration":0.16889887708333617},{"name":"C4","midi":60,"time":451.7858949999983,"velocity":0.7559055118110236,"duration":0.16889887708333617},{"name":"F4","midi":65,"time":451.7858949999983,"velocity":0.7559055118110236,"duration":0.16889887708333617},{"name":"G3","midi":55,"time":451.96446649999825,"velocity":0.7559055118110236,"duration":0.16889887708333617},{"name":"C4","midi":60,"time":451.96446649999825,"velocity":0.7559055118110236,"duration":0.16889887708333617},{"name":"E4","midi":64,"time":451.96446649999825,"velocity":0.7559055118110236,"duration":0.16889887708333617},{"name":"A3","midi":57,"time":452.1430379999982,"velocity":0.7559055118110236,"duration":0.3385418020833413},{"name":"C4","midi":60,"time":452.1430379999982,"velocity":0.7559055118110236,"duration":0.3385418020833413},{"name":"F4","midi":65,"time":452.1430379999982,"velocity":0.7559055118110236,"duration":0.3385418020833413},{"name":"G3","midi":55,"time":452.50018099999824,"velocity":0.7559055118110236,"duration":0.5081847270833464},{"name":"C4","midi":60,"time":452.50018099999824,"velocity":0.7559055118110236,"duration":0.5081847270833464},{"name":"G4","midi":67,"time":452.50018099999824,"velocity":0.7559055118110236,"duration":0.5081847270833464},{"name":"A3","midi":57,"time":453.0358954999983,"velocity":0.7559055118110236,"duration":0.16889887708333617},{"name":"C4","midi":60,"time":453.0358954999983,"velocity":0.7559055118110236,"duration":0.16889887708333617},{"name":"F4","midi":65,"time":453.0358954999983,"velocity":0.7559055118110236,"duration":0.16889887708333617},{"name":"A4","midi":69,"time":453.0358954999983,"velocity":0.7559055118110236,"duration":0.16889887708333617},{"name":"G3","midi":55,"time":453.21446699999825,"velocity":0.7559055118110236,"duration":0.6778276520833515},{"name":"C4","midi":60,"time":453.21446699999825,"velocity":0.7559055118110236,"duration":0.6778276520833515},{"name":"E4","midi":64,"time":453.21446699999825,"velocity":0.7559055118110236,"duration":0.6778276520833515},{"name":"G4","midi":67,"time":453.21446699999825,"velocity":0.7559055118110236,"duration":0.6778276520833515},{"name":"A3","midi":57,"time":453.92875299999827,"velocity":0.7559055118110236,"duration":0.16889887708333617},{"name":"C4","midi":60,"time":453.92875299999827,"velocity":0.7559055118110236,"duration":0.16889887708333617},{"name":"F4","midi":65,"time":453.92875299999827,"velocity":0.7559055118110236,"duration":0.16889887708333617},{"name":"C4","midi":60,"time":454.10732449999824,"velocity":0.7559055118110236,"duration":0.16889887708333617},{"name":"G4","midi":67,"time":454.10732449999824,"velocity":0.7559055118110236,"duration":0.16889887708333617},{"name":"A3","midi":57,"time":454.2858959999982,"velocity":0.7559055118110236,"duration":0.5081847270833464},{"name":"C4","midi":60,"time":454.2858959999982,"velocity":0.7559055118110236,"duration":0.5081847270833464},{"name":"F4","midi":65,"time":454.2858959999982,"velocity":0.7559055118110236,"duration":0.5081847270833464},{"name":"A4","midi":69,"time":454.2858959999982,"velocity":0.7559055118110236,"duration":0.5081847270833464},{"name":"C4","midi":60,"time":454.82161049999826,"velocity":0.7559055118110236,"duration":0.16889887708333617},{"name":"G4","midi":67,"time":454.82161049999826,"velocity":0.7559055118110236,"duration":0.16889887708333617},{"name":"A#3","midi":58,"time":455.00018199999823,"velocity":0.7559055118110236,"duration":0.3385418020833413},{"name":"D4","midi":62,"time":455.00018199999823,"velocity":0.7559055118110236,"duration":0.3385418020833413},{"name":"F4","midi":65,"time":455.00018199999823,"velocity":0.7559055118110236,"duration":0.3385418020833413},{"name":"A3","midi":57,"time":455.35732499999824,"velocity":0.7559055118110236,"duration":0.3385418020833413},{"name":"C#4","midi":61,"time":455.35732499999824,"velocity":0.7559055118110236,"duration":0.3385418020833413},{"name":"E4","midi":64,"time":455.35732499999824,"velocity":0.7559055118110236,"duration":0.3385418020833413},{"name":"A3","midi":57,"time":455.71446799999825,"velocity":0.7559055118110236,"duration":0.5081847270833464},{"name":"D4","midi":62,"time":455.71446799999825,"velocity":0.7559055118110236,"duration":0.5081847270833464},{"name":"F4","midi":65,"time":455.71446799999825,"velocity":0.7559055118110236,"duration":0.5081847270833464},{"name":"A3","midi":57,"time":456.2501824999983,"velocity":0.7559055118110236,"duration":0.16889887708333617},{"name":"C#4","midi":61,"time":456.2501824999983,"velocity":0.7559055118110236,"duration":0.16889887708333617},{"name":"E4","midi":64,"time":456.2501824999983,"velocity":0.7559055118110236,"duration":0.16889887708333617},{"name":"A3","midi":57,"time":456.42875399999826,"velocity":0.7559055118110236,"duration":2.0349710520833355},{"name":"D4","midi":62,"time":456.42875399999826,"velocity":0.7559055118110236,"duration":2.0349710520833355},{"name":"F3","midi":53,"time":459.6430409999983,"velocity":0.7559055118110236,"duration":0.3385418020833413},{"name":"A3","midi":57,"time":459.6430409999983,"velocity":0.7559055118110236,"duration":0.3385418020833413},{"name":"D4","midi":62,"time":459.6430409999983,"velocity":0.7559055118110236,"duration":0.3385418020833413},{"name":"F3","midi":53,"time":460.0001839999983,"velocity":0.7559055118110236,"duration":0.3385418020833413},{"name":"A3","midi":57,"time":460.0001839999983,"velocity":0.7559055118110236,"duration":0.3385418020833413},{"name":"D4","midi":62,"time":460.0001839999983,"velocity":0.7559055118110236,"duration":0.3385418020833413},{"name":"F3","midi":53,"time":460.3573269999983,"velocity":0.7559055118110236,"duration":0.16889887708333617},{"name":"A3","midi":57,"time":460.3573269999983,"velocity":0.7559055118110236,"duration":0.16889887708333617},{"name":"D4","midi":62,"time":460.3573269999983,"velocity":0.7559055118110236,"duration":0.16889887708333617},{"name":"E4","midi":64,"time":460.53589849999827,"velocity":0.7559055118110236,"duration":0.16889887708333617},{"name":"F3","midi":53,"time":460.71446999999824,"velocity":0.7559055118110236,"duration":0.3385418020833413},{"name":"A#3","midi":58,"time":460.71446999999824,"velocity":0.7559055118110236,"duration":0.3385418020833413},{"name":"D4","midi":62,"time":460.71446999999824,"velocity":0.7559055118110236,"duration":0.3385418020833413},{"name":"F4","midi":65,"time":460.71446999999824,"velocity":0.7559055118110236,"duration":0.3385418020833413},{"name":"F3","midi":53,"time":461.07161299999825,"velocity":0.7559055118110236,"duration":0.3385418020833413},{"name":"A#3","midi":58,"time":461.07161299999825,"velocity":0.7559055118110236,"duration":0.3385418020833413},{"name":"D4","midi":62,"time":461.07161299999825,"velocity":0.7559055118110236,"duration":0.3385418020833413},{"name":"F4","midi":65,"time":461.07161299999825,"velocity":0.7559055118110236,"duration":0.3385418020833413},{"name":"F3","midi":53,"time":461.42875599999826,"velocity":0.7559055118110236,"duration":0.16889887708333617},{"name":"A#3","midi":58,"time":461.42875599999826,"velocity":0.7559055118110236,"duration":0.16889887708333617},{"name":"D4","midi":62,"time":461.42875599999826,"velocity":0.7559055118110236,"duration":0.16889887708333617},{"name":"F4","midi":65,"time":461.42875599999826,"velocity":0.7559055118110236,"duration":0.16889887708333617},{"name":"G3","midi":55,"time":461.60732749999823,"velocity":0.7559055118110236,"duration":0.16889887708333617},{"name":"G4","midi":67,"time":461.60732749999823,"velocity":0.7559055118110236,"duration":0.16889887708333617},{"name":"E3","midi":52,"time":461.7858989999982,"velocity":0.7559055118110236,"duration":0.3385418020833413},{"name":"A3","midi":57,"time":461.7858989999982,"velocity":0.7559055118110236,"duration":0.3385418020833413},{"name":"C4","midi":60,"time":461.7858989999982,"velocity":0.7559055118110236,"duration":0.3385418020833413},{"name":"E4","midi":64,"time":461.7858989999982,"velocity":0.7559055118110236,"duration":0.3385418020833413},{"name":"E3","midi":52,"time":462.1430419999982,"velocity":0.7559055118110236,"duration":0.3385418020833413},{"name":"A3","midi":57,"time":462.1430419999982,"velocity":0.7559055118110236,"duration":0.3385418020833413},{"name":"C4","midi":60,"time":462.1430419999982,"velocity":0.7559055118110236,"duration":0.3385418020833413},{"name":"E4","midi":64,"time":462.1430419999982,"velocity":0.7559055118110236,"duration":0.3385418020833413},{"name":"D4","midi":62,"time":462.5001849999982,"velocity":0.7559055118110236,"duration":0.16889887708333617},{"name":"C4","midi":60,"time":462.6787564999982,"velocity":0.7559055118110236,"duration":0.16889887708333617},{"name":"G3","midi":55,"time":462.8573279999982,"velocity":0.7559055118110236,"duration":0.16889887708333617},{"name":"C4","midi":60,"time":462.8573279999982,"velocity":0.7559055118110236,"duration":0.16889887708333617},{"name":"F3","midi":53,"time":463.03589949999815,"velocity":0.7559055118110236,"duration":0.3385418020833413},{"name":"A3","midi":57,"time":463.03589949999815,"velocity":0.7559055118110236,"duration":0.3385418020833413},{"name":"D4","midi":62,"time":463.03589949999815,"velocity":0.7559055118110236,"duration":0.3385418020833413},{"name":"F3","midi":53,"time":463.39304249999816,"velocity":0.7559055118110236,"duration":0.16889887708333617},{"name":"A3","midi":57,"time":463.57161399999814,"velocity":0.7559055118110236,"duration":0.16889887708333617},{"name":"C4","midi":60,"time":463.7501854999981,"velocity":0.7559055118110236,"duration":0.16889887708333617},{"name":"F3","midi":53,"time":463.9287569999981,"velocity":0.7559055118110236,"duration":0.3385418020833413},{"name":"A3","midi":57,"time":463.9287569999981,"velocity":0.7559055118110236,"duration":0.3385418020833413},{"name":"D4","midi":62,"time":463.9287569999981,"velocity":0.7559055118110236,"duration":0.3385418020833413},{"name":"F3","midi":53,"time":464.2858999999981,"velocity":0.7559055118110236,"duration":0.3385418020833413},{"name":"A3","midi":57,"time":464.2858999999981,"velocity":0.7559055118110236,"duration":0.3385418020833413},{"name":"D4","midi":62,"time":464.2858999999981,"velocity":0.7559055118110236,"duration":0.3385418020833413},{"name":"F3","midi":53,"time":464.6430429999981,"velocity":0.7559055118110236,"duration":0.16889887708333617},{"name":"A3","midi":57,"time":464.6430429999981,"velocity":0.7559055118110236,"duration":0.16889887708333617},{"name":"D4","midi":62,"time":464.6430429999981,"velocity":0.7559055118110236,"duration":0.16889887708333617},{"name":"E4","midi":64,"time":464.8216144999981,"velocity":0.7559055118110236,"duration":0.16889887708333617},{"name":"F3","midi":53,"time":465.00018599999805,"velocity":0.7559055118110236,"duration":0.3385418020833413},{"name":"A3","midi":57,"time":465.00018599999805,"velocity":0.7559055118110236,"duration":0.3385418020833413},{"name":"C4","midi":60,"time":465.00018599999805,"velocity":0.7559055118110236,"duration":0.3385418020833413},{"name":"F4","midi":65,"time":465.00018599999805,"velocity":0.7559055118110236,"duration":0.3385418020833413},{"name":"F3","midi":53,"time":465.35732899999806,"velocity":0.7559055118110236,"duration":0.3385418020833413},{"name":"A3","midi":57,"time":465.35732899999806,"velocity":0.7559055118110236,"duration":0.3385418020833413},{"name":"C4","midi":60,"time":465.35732899999806,"velocity":0.7559055118110236,"duration":0.3385418020833413},{"name":"F4","midi":65,"time":465.35732899999806,"velocity":0.7559055118110236,"duration":0.3385418020833413},{"name":"A3","midi":57,"time":465.71447199999807,"velocity":0.7559055118110236,"duration":0.16889887708333617},{"name":"C4","midi":60,"time":465.71447199999807,"velocity":0.7559055118110236,"duration":0.16889887708333617},{"name":"F4","midi":65,"time":465.71447199999807,"velocity":0.7559055118110236,"duration":0.16889887708333617},{"name":"G4","midi":67,"time":465.89304349999804,"velocity":0.7559055118110236,"duration":0.16889887708333617},{"name":"G3","midi":55,"time":466.071614999998,"velocity":0.7559055118110236,"duration":0.3385418020833413},{"name":"C4","midi":60,"time":466.071614999998,"velocity":0.7559055118110236,"duration":0.3385418020833413},{"name":"E4","midi":64,"time":466.071614999998,"velocity":0.7559055118110236,"duration":0.3385418020833413},{"name":"G3","midi":55,"time":466.428757999998,"velocity":0.7559055118110236,"duration":0.3385418020833413},{"name":"C4","midi":60,"time":466.428757999998,"velocity":0.7559055118110236,"duration":0.3385418020833413},{"name":"E4","midi":64,"time":466.428757999998,"velocity":0.7559055118110236,"duration":0.3385418020833413},{"name":"A3","midi":57,"time":466.78590099999803,"velocity":0.7559055118110236,"duration":0.16889887708333617},{"name":"D4","midi":62,"time":466.78590099999803,"velocity":0.7559055118110236,"duration":0.16889887708333617},{"name":"C4","midi":60,"time":466.964472499998,"velocity":0.7559055118110236,"duration":0.16889887708333617},{"name":"F3","midi":53,"time":467.143043999998,"velocity":0.7559055118110236,"duration":0.5081847270833464},{"name":"A3","midi":57,"time":467.143043999998,"velocity":0.7559055118110236,"duration":0.5081847270833464},{"name":"D4","midi":62,"time":467.143043999998,"velocity":0.7559055118110236,"duration":0.5081847270833464},{"name":"A3","midi":57,"time":467.857329999998,"velocity":0.7559055118110236,"duration":0.16889887708333617},{"name":"C4","midi":60,"time":468.035901499998,"velocity":0.7559055118110236,"duration":0.16889887708333617},{"name":"F3","midi":53,"time":468.21447299999795,"velocity":0.7559055118110236,"duration":0.3385418020833413},{"name":"A3","midi":57,"time":468.21447299999795,"velocity":0.7559055118110236,"duration":0.3385418020833413},{"name":"D4","midi":62,"time":468.21447299999795,"velocity":0.7559055118110236,"duration":0.3385418020833413},{"name":"F3","midi":53,"time":468.57161599999796,"velocity":0.7559055118110236,"duration":0.3385418020833413},{"name":"A3","midi":57,"time":468.57161599999796,"velocity":0.7559055118110236,"duration":0.3385418020833413},{"name":"D4","midi":62,"time":468.57161599999796,"velocity":0.7559055118110236,"duration":0.3385418020833413},{"name":"F3","midi":53,"time":468.92875899999797,"velocity":0.7559055118110236,"duration":0.16889887708333617},{"name":"A3","midi":57,"time":468.92875899999797,"velocity":0.7559055118110236,"duration":0.16889887708333617},{"name":"D4","midi":62,"time":468.92875899999797,"velocity":0.7559055118110236,"duration":0.16889887708333617},{"name":"E4","midi":64,"time":469.10733049999794,"velocity":0.7559055118110236,"duration":0.16889887708333617},{"name":"F3","midi":53,"time":469.2859019999979,"velocity":0.7559055118110236,"duration":0.3385418020833413},{"name":"A#3","midi":58,"time":469.2859019999979,"velocity":0.7559055118110236,"duration":0.3385418020833413},{"name":"D4","midi":62,"time":469.2859019999979,"velocity":0.7559055118110236,"duration":0.3385418020833413},{"name":"F4","midi":65,"time":469.2859019999979,"velocity":0.7559055118110236,"duration":0.3385418020833413},{"name":"F3","midi":53,"time":469.6430449999979,"velocity":0.7559055118110236,"duration":0.3385418020833413},{"name":"A#3","midi":58,"time":469.6430449999979,"velocity":0.7559055118110236,"duration":0.3385418020833413},{"name":"D4","midi":62,"time":469.6430449999979,"velocity":0.7559055118110236,"duration":0.3385418020833413},{"name":"F4","midi":65,"time":469.6430449999979,"velocity":0.7559055118110236,"duration":0.3385418020833413},{"name":"G3","midi":55,"time":470.00018799999793,"velocity":0.7559055118110236,"duration":0.16889887708333617},{"name":"A#3","midi":58,"time":470.00018799999793,"velocity":0.7559055118110236,"duration":0.16889887708333617},{"name":"D4","midi":62,"time":470.00018799999793,"velocity":0.7559055118110236,"duration":0.16889887708333617},{"name":"G4","midi":67,"time":470.00018799999793,"velocity":0.7559055118110236,"duration":0.16889887708333617},{"name":"A3","midi":57,"time":470.1787594999979,"velocity":0.7559055118110236,"duration":0.16889887708333617},{"name":"D4","midi":62,"time":470.1787594999979,"velocity":0.7559055118110236,"duration":0.16889887708333617},{"name":"F4","midi":65,"time":470.1787594999979,"velocity":0.7559055118110236,"duration":0.16889887708333617},{"name":"A4","midi":69,"time":470.1787594999979,"velocity":0.7559055118110236,"duration":0.16889887708333617},{"name":"A#3","midi":58,"time":470.3573309999979,"velocity":0.7559055118110236,"duration":0.3385418020833413},{"name":"D4","midi":62,"time":470.3573309999979,"velocity":0.7559055118110236,"duration":0.3385418020833413},{"name":"F4","midi":65,"time":470.3573309999979,"velocity":0.7559055118110236,"duration":0.3385418020833413},{"name":"A#4","midi":70,"time":470.3573309999979,"velocity":0.7559055118110236,"duration":0.3385418020833413},{"name":"A#3","midi":58,"time":470.7144739999979,"velocity":0.7559055118110236,"duration":0.3385418020833413},{"name":"D4","midi":62,"time":470.7144739999979,"velocity":0.7559055118110236,"duration":0.3385418020833413},{"name":"F4","midi":65,"time":470.7144739999979,"velocity":0.7559055118110236,"duration":0.3385418020833413},{"name":"A#4","midi":70,"time":470.7144739999979,"velocity":0.7559055118110236,"duration":0.3385418020833413},{"name":"A3","midi":57,"time":471.0716169999979,"velocity":0.7559055118110236,"duration":0.16889887708333617},{"name":"D4","midi":62,"time":471.0716169999979,"velocity":0.7559055118110236,"duration":0.16889887708333617},{"name":"F4","midi":65,"time":471.0716169999979,"velocity":0.7559055118110236,"duration":0.16889887708333617},{"name":"A4","midi":69,"time":471.0716169999979,"velocity":0.7559055118110236,"duration":0.16889887708333617},{"name":"G4","midi":67,"time":471.2501884999979,"velocity":0.7559055118110236,"duration":0.16889887708333617},{"name":"D4","midi":62,"time":471.42875999999785,"velocity":0.7559055118110236,"duration":0.16889887708333617},{"name":"A4","midi":69,"time":471.42875999999785,"velocity":0.7559055118110236,"duration":0.16889887708333617},{"name":"D4","midi":62,"time":471.6073314999978,"velocity":0.7559055118110236,"duration":0.3385418020833413},{"name":"A3","midi":57,"time":471.96447449999783,"velocity":0.7559055118110236,"duration":0.16889887708333617},{"name":"D4","midi":62,"time":472.1430459999978,"velocity":0.7559055118110236,"duration":0.16889887708333617},{"name":"E4","midi":64,"time":472.3216174999978,"velocity":0.7559055118110236,"duration":0.16889887708333617},{"name":"A#3","midi":58,"time":472.50018899999776,"velocity":0.7559055118110236,"duration":0.3385418020833413},{"name":"D4","midi":62,"time":472.50018899999776,"velocity":0.7559055118110236,"duration":0.3385418020833413},{"name":"F4","midi":65,"time":472.50018899999776,"velocity":0.7559055118110236,"duration":0.3385418020833413},{"name":"A#3","midi":58,"time":472.85733199999777,"velocity":0.7559055118110236,"duration":0.3385418020833413},{"name":"D4","midi":62,"time":472.85733199999777,"velocity":0.7559055118110236,"duration":0.3385418020833413},{"name":"F4","midi":65,"time":472.85733199999777,"velocity":0.7559055118110236,"duration":0.3385418020833413},{"name":"A#3","midi":58,"time":473.2144749999978,"velocity":0.7559055118110236,"duration":0.3385418020833413},{"name":"D4","midi":62,"time":473.2144749999978,"velocity":0.7559055118110236,"duration":0.3385418020833413},{"name":"G4","midi":67,"time":473.2144749999978,"velocity":0.7559055118110236,"duration":0.3385418020833413},{"name":"G3","midi":55,"time":473.5716179999978,"velocity":0.7559055118110236,"duration":0.16889887708333617},{"name":"D4","midi":62,"time":473.5716179999978,"velocity":0.7559055118110236,"duration":0.16889887708333617},{"name":"A4","midi":69,"time":473.5716179999978,"velocity":0.7559055118110236,"duration":0.16889887708333617},{"name":"D4","midi":62,"time":473.75018949999776,"velocity":0.7559055118110236,"duration":0.3385418020833413},{"name":"A3","midi":57,"time":474.10733249999777,"velocity":0.7559055118110236,"duration":0.16889887708333617},{"name":"D4","midi":62,"time":474.28590399999774,"velocity":0.7559055118110236,"duration":0.16889887708333617},{"name":"F4","midi":65,"time":474.4644754999977,"velocity":0.7559055118110236,"duration":0.16889887708333617},{"name":"A3","midi":57,"time":474.6430469999977,"velocity":0.7559055118110236,"duration":0.3385418020833413},{"name":"C#4","midi":61,"time":474.6430469999977,"velocity":0.7559055118110236,"duration":0.3385418020833413},{"name":"E4","midi":64,"time":474.6430469999977,"velocity":0.7559055118110236,"duration":0.3385418020833413},{"name":"A3","midi":57,"time":475.0001899999977,"velocity":0.7559055118110236,"duration":0.3385418020833413},{"name":"C#4","midi":61,"time":475.0001899999977,"velocity":0.7559055118110236,"duration":0.3385418020833413},{"name":"E4","midi":64,"time":475.0001899999977,"velocity":0.7559055118110236,"duration":0.3385418020833413},{"name":"F4","midi":65,"time":475.3573329999977,"velocity":0.7559055118110236,"duration":0.16889887708333617},{"name":"D4","midi":62,"time":475.5359044999977,"velocity":0.7559055118110236,"duration":0.16889887708333617},{"name":"A3","midi":57,"time":475.71447599999766,"velocity":0.7559055118110236,"duration":0.5081847270833464},{"name":"C#4","midi":61,"time":475.71447599999766,"velocity":0.7559055118110236,"duration":0.5081847270833464},{"name":"E4","midi":64,"time":475.71447599999766,"velocity":0.7559055118110236,"duration":0.5081847270833464},{"name":"A4","midi":69,"time":476.4287619999977,"velocity":0.7559055118110236,"duration":0.16889887708333617},{"name":"C5","midi":72,"time":476.60733349999765,"velocity":0.7559055118110236,"duration":0.16889887708333617},{"name":"F4","midi":65,"time":476.7859049999976,"velocity":0.8818897637795275,"duration":0.3385418020833413},{"name":"A4","midi":69,"time":476.7859049999976,"velocity":0.8818897637795275,"duration":0.3385418020833413},{"name":"D5","midi":74,"time":476.7859049999976,"velocity":0.8818897637795275,"duration":0.3385418020833413},{"name":"F4","midi":65,"time":477.14304799999763,"velocity":0.8818897637795275,"duration":0.3385418020833413},{"name":"A4","midi":69,"time":477.14304799999763,"velocity":0.8818897637795275,"duration":0.3385418020833413},{"name":"D5","midi":74,"time":477.14304799999763,"velocity":0.8818897637795275,"duration":0.3385418020833413},{"name":"F4","midi":65,"time":477.50019099999764,"velocity":0.8818897637795275,"duration":0.16889887708333617},{"name":"A4","midi":69,"time":477.50019099999764,"velocity":0.8818897637795275,"duration":0.16889887708333617},{"name":"D5","midi":74,"time":477.50019099999764,"velocity":0.8818897637795275,"duration":0.16889887708333617},{"name":"E5","midi":76,"time":477.6787624999976,"velocity":0.8818897637795275,"duration":0.16889887708333617},{"name":"F4","midi":65,"time":477.8573339999976,"velocity":0.8818897637795275,"duration":0.3385418020833413},{"name":"A#4","midi":70,"time":477.8573339999976,"velocity":0.8818897637795275,"duration":0.3385418020833413},{"name":"D5","midi":74,"time":477.8573339999976,"velocity":0.8818897637795275,"duration":0.3385418020833413},{"name":"F5","midi":77,"time":477.8573339999976,"velocity":0.8818897637795275,"duration":0.3385418020833413},{"name":"F4","midi":65,"time":478.2144769999976,"velocity":0.8818897637795275,"duration":0.3385418020833413},{"name":"A#4","midi":70,"time":478.2144769999976,"velocity":0.8818897637795275,"duration":0.3385418020833413},{"name":"D5","midi":74,"time":478.2144769999976,"velocity":0.8818897637795275,"duration":0.3385418020833413},{"name":"F5","midi":77,"time":478.2144769999976,"velocity":0.8818897637795275,"duration":0.3385418020833413},{"name":"F4","midi":65,"time":478.5716199999976,"velocity":0.8818897637795275,"duration":0.16889887708333617},{"name":"A#4","midi":70,"time":478.5716199999976,"velocity":0.8818897637795275,"duration":0.16889887708333617},{"name":"D5","midi":74,"time":478.5716199999976,"velocity":0.8818897637795275,"duration":0.16889887708333617},{"name":"F5","midi":77,"time":478.5716199999976,"velocity":0.8818897637795275,"duration":0.16889887708333617},{"name":"G4","midi":67,"time":478.7501914999976,"velocity":0.8818897637795275,"duration":0.16889887708333617},{"name":"G5","midi":79,"time":478.7501914999976,"velocity":0.8818897637795275,"duration":0.16889887708333617},{"name":"E4","midi":64,"time":478.92876299999756,"velocity":0.8818897637795275,"duration":0.3385418020833413},{"name":"A4","midi":69,"time":478.92876299999756,"velocity":0.8818897637795275,"duration":0.3385418020833413},{"name":"C5","midi":72,"time":478.92876299999756,"velocity":0.8818897637795275,"duration":0.3385418020833413},{"name":"E5","midi":76,"time":478.92876299999756,"velocity":0.8818897637795275,"duration":0.3385418020833413},{"name":"E4","midi":64,"time":479.28590599999757,"velocity":0.8818897637795275,"duration":0.3385418020833413},{"name":"A4","midi":69,"time":479.28590599999757,"velocity":0.8818897637795275,"duration":0.3385418020833413},{"name":"C5","midi":72,"time":479.28590599999757,"velocity":0.8818897637795275,"duration":0.3385418020833413},{"name":"E5","midi":76,"time":479.28590599999757,"velocity":0.8818897637795275,"duration":0.3385418020833413},{"name":"D4","midi":62,"time":479.6430489999976,"velocity":0.8818897637795275,"duration":0.16889887708333617},{"name":"D5","midi":74,"time":479.6430489999976,"velocity":0.8818897637795275,"duration":0.16889887708333617},{"name":"C4","midi":60,"time":479.82162049999755,"velocity":0.8818897637795275,"duration":0.16889887708333617},{"name":"C5","midi":72,"time":479.82162049999755,"velocity":0.8818897637795275,"duration":0.16889887708333617},{"name":"C4","midi":60,"time":480.0001919999975,"velocity":0.8818897637795275,"duration":0.16889887708333617},{"name":"E4","midi":64,"time":480.0001919999975,"velocity":0.8818897637795275,"duration":0.16889887708333617},{"name":"C5","midi":72,"time":480.0001919999975,"velocity":0.8818897637795275,"duration":0.16889887708333617},{"name":"D4","midi":62,"time":480.1787634999975,"velocity":0.8818897637795275,"duration":0.16889887708333617},{"name":"F4","midi":65,"time":480.1787634999975,"velocity":0.8818897637795275,"duration":0.16889887708333617},{"name":"D5","midi":74,"time":480.1787634999975,"velocity":0.8818897637795275,"duration":0.16889887708333617},{"name":"D4","midi":62,"time":480.5359064999975,"velocity":0.8818897637795275,"duration":0.16889887708333617},{"name":"A4","midi":69,"time":480.7144779999975,"velocity":0.8818897637795275,"duration":0.16889887708333617},{"name":"C5","midi":72,"time":480.89304949999746,"velocity":0.8818897637795275,"duration":0.16889887708333617},{"name":"F4","midi":65,"time":481.07162099999744,"velocity":0.8818897637795275,"duration":0.3385418020833413},{"name":"A#4","midi":70,"time":481.07162099999744,"velocity":0.8818897637795275,"duration":0.3385418020833413},{"name":"D5","midi":74,"time":481.07162099999744,"velocity":0.8818897637795275,"duration":0.3385418020833413},{"name":"F4","midi":65,"time":481.42876399999744,"velocity":0.8818897637795275,"duration":0.3385418020833413},{"name":"A#4","midi":70,"time":481.42876399999744,"velocity":0.8818897637795275,"duration":0.3385418020833413},{"name":"D5","midi":74,"time":481.42876399999744,"velocity":0.8818897637795275,"duration":0.3385418020833413},{"name":"F4","midi":65,"time":481.78590699999745,"velocity":0.8818897637795275,"duration":0.16889887708333617},{"name":"A#4","midi":70,"time":481.78590699999745,"velocity":0.8818897637795275,"duration":0.16889887708333617},{"name":"D5","midi":74,"time":481.78590699999745,"velocity":0.8818897637795275,"duration":0.16889887708333617},{"name":"E5","midi":76,"time":481.9644784999974,"velocity":0.8818897637795275,"duration":0.16889887708333617},{"name":"F4","midi":65,"time":482.1430499999974,"velocity":0.8818897637795275,"duration":0.3385418020833413},{"name":"A4","midi":69,"time":482.1430499999974,"velocity":0.8818897637795275,"duration":0.3385418020833413},{"name":"C5","midi":72,"time":482.1430499999974,"velocity":0.8818897637795275,"duration":0.3385418020833413},{"name":"F5","midi":77,"time":482.1430499999974,"velocity":0.8818897637795275,"duration":0.3385418020833413},{"name":"F4","midi":65,"time":482.5001929999974,"velocity":0.8818897637795275,"duration":0.3385418020833413},{"name":"A4","midi":69,"time":482.5001929999974,"velocity":0.8818897637795275,"duration":0.3385418020833413},{"name":"C5","midi":72,"time":482.5001929999974,"velocity":0.8818897637795275,"duration":0.3385418020833413},{"name":"F5","midi":77,"time":482.5001929999974,"velocity":0.8818897637795275,"duration":0.3385418020833413},{"name":"F4","midi":65,"time":482.8573359999974,"velocity":0.8818897637795275,"duration":0.16889887708333617},{"name":"A4","midi":69,"time":482.8573359999974,"velocity":0.8818897637795275,"duration":0.16889887708333617},{"name":"C5","midi":72,"time":482.8573359999974,"velocity":0.8818897637795275,"duration":0.16889887708333617},{"name":"F5","midi":77,"time":482.8573359999974,"velocity":0.8818897637795275,"duration":0.16889887708333617},{"name":"G4","midi":67,"time":483.0359074999974,"velocity":0.8818897637795275,"duration":0.16889887708333617},{"name":"G5","midi":79,"time":483.0359074999974,"velocity":0.8818897637795275,"duration":0.16889887708333617},{"name":"E4","midi":64,"time":483.21447899999737,"velocity":0.8818897637795275,"duration":0.3385418020833413},{"name":"A4","midi":69,"time":483.21447899999737,"velocity":0.8818897637795275,"duration":0.3385418020833413},{"name":"C5","midi":72,"time":483.21447899999737,"velocity":0.8818897637795275,"duration":0.3385418020833413},{"name":"E5","midi":76,"time":483.21447899999737,"velocity":0.8818897637795275,"duration":0.3385418020833413},{"name":"E4","midi":64,"time":483.5716219999974,"velocity":0.8818897637795275,"duration":0.3385418020833413},{"name":"G4","midi":67,"time":483.5716219999974,"velocity":0.8818897637795275,"duration":0.3385418020833413},{"name":"C5","midi":72,"time":483.5716219999974,"velocity":0.8818897637795275,"duration":0.3385418020833413},{"name":"E5","midi":76,"time":483.5716219999974,"velocity":0.8818897637795275,"duration":0.3385418020833413},{"name":"D4","midi":62,"time":483.9287649999974,"velocity":0.8818897637795275,"duration":0.16889887708333617},{"name":"D5","midi":74,"time":483.9287649999974,"velocity":0.8818897637795275,"duration":0.16889887708333617},{"name":"C4","midi":60,"time":484.10733649999736,"velocity":0.8818897637795275,"duration":0.16889887708333617},{"name":"C5","midi":72,"time":484.10733649999736,"velocity":0.8818897637795275,"duration":0.16889887708333617},{"name":"D4","midi":62,"time":484.28590799999733,"velocity":0.8818897637795275,"duration":0.5081847270833464},{"name":"F4","midi":65,"time":484.28590799999733,"velocity":0.8818897637795275,"duration":0.5081847270833464},{"name":"A4","midi":69,"time":484.28590799999733,"velocity":0.8818897637795275,"duration":0.5081847270833464},{"name":"D5","midi":74,"time":484.28590799999733,"velocity":0.8818897637795275,"duration":0.5081847270833464},{"name":"A4","midi":69,"time":485.00019399999735,"velocity":0.8818897637795275,"duration":0.16889887708333617},{"name":"C5","midi":72,"time":485.1787654999973,"velocity":0.8661417322834646,"duration":0.16889887708333617},{"name":"F4","midi":65,"time":485.3573369999973,"velocity":0.8503937007874016,"duration":0.3385418020833413},{"name":"A4","midi":69,"time":485.3573369999973,"velocity":0.8503937007874016,"duration":0.3385418020833413},{"name":"D5","midi":74,"time":485.3573369999973,"velocity":0.8503937007874016,"duration":0.3385418020833413},{"name":"D5","midi":74,"time":485.7144799999973,"velocity":0.8110236220472441,"duration":0.3385418020833413},{"name":"D5","midi":74,"time":486.0716229999973,"velocity":0.7795275590551181,"duration":0.16889887708333617},{"name":"F5","midi":77,"time":486.2501944999973,"velocity":0.7559055118110236,"duration":0.16889887708333617},{"name":"A#4","midi":70,"time":486.42876599999727,"velocity":0.7401574803149606,"duration":0.3385418020833413},{"name":"D5","midi":74,"time":486.42876599999727,"velocity":0.7401574803149606,"duration":0.3385418020833413},{"name":"G5","midi":79,"time":486.42876599999727,"velocity":0.7401574803149606,"duration":0.3385418020833413},{"name":"A#4","midi":70,"time":486.7859089999973,"velocity":0.7086614173228346,"duration":0.3385418020833413},{"name":"D5","midi":74,"time":486.7859089999973,"velocity":0.7086614173228346,"duration":0.3385418020833413},{"name":"G5","midi":79,"time":486.7859089999973,"velocity":0.7086614173228346,"duration":0.3385418020833413},{"name":"A#4","midi":70,"time":487.1430519999973,"velocity":0.6692913385826772,"duration":0.16889887708333617},{"name":"G5","midi":79,"time":487.1430519999973,"velocity":0.6692913385826772,"duration":0.16889887708333617},{"name":"A5","midi":81,"time":487.32162349999726,"velocity":0.6535433070866141,"duration":0.16889887708333617},{"name":"A#4","midi":70,"time":487.50019499999723,"velocity":0.6299212598425197,"duration":0.3385418020833413},{"name":"D5","midi":74,"time":487.50019499999723,"velocity":0.6299212598425197,"duration":0.3385418020833413},{"name":"G5","midi":79,"time":487.50019499999723,"velocity":0.6299212598425197,"duration":0.3385418020833413},{"name":"A#5","midi":82,"time":487.50019499999723,"velocity":0.6299212598425197,"duration":0.3385418020833413},{"name":"A#4","midi":70,"time":487.85733799999724,"velocity":0.5984251968503937,"duration":0.3385418020833413},{"name":"D5","midi":74,"time":487.85733799999724,"velocity":0.5984251968503937,"duration":0.3385418020833413},{"name":"G5","midi":79,"time":487.85733799999724,"velocity":0.5984251968503937,"duration":0.3385418020833413},{"name":"A#5","midi":82,"time":487.85733799999724,"velocity":0.5984251968503937,"duration":0.3385418020833413},{"name":"A5","midi":81,"time":488.21448099999725,"velocity":0.5590551181102362,"duration":0.16889887708333617},{"name":"G5","midi":79,"time":488.3930524999972,"velocity":0.5433070866141733,"duration":0.16889887708333617},{"name":"A4","midi":69,"time":488.5716239999972,"velocity":0.5275590551181102,"duration":0.16889887708333617},{"name":"D5","midi":74,"time":488.5716239999972,"velocity":0.5275590551181102,"duration":0.16889887708333617},{"name":"F5","midi":77,"time":488.5716239999972,"velocity":0.5275590551181102,"duration":0.16889887708333617},{"name":"A5","midi":81,"time":488.5716239999972,"velocity":0.5275590551181102,"duration":0.16889887708333617},{"name":"D5","midi":74,"time":488.7501954999972,"velocity":0.5039370078740157,"duration":0.3385418020833413},{"name":"A4","midi":69,"time":489.1073384999972,"velocity":0.5039370078740157,"duration":0.16889887708333617},{"name":"D5","midi":74,"time":489.28590999999716,"velocity":0.5039370078740157,"duration":0.16889887708333617},{"name":"E5","midi":76,"time":489.46448149999713,"velocity":0.5039370078740157,"duration":0.16889887708333617},{"name":"A#4","midi":70,"time":489.6430529999971,"velocity":0.5039370078740157,"duration":0.3385418020833413},{"name":"D5","midi":74,"time":489.6430529999971,"velocity":0.5039370078740157,"duration":0.3385418020833413},{"name":"F5","midi":77,"time":489.6430529999971,"velocity":0.5039370078740157,"duration":0.3385418020833413},{"name":"A#4","midi":70,"time":490.0001959999971,"velocity":0.5039370078740157,"duration":0.3385418020833413},{"name":"D5","midi":74,"time":490.0001959999971,"velocity":0.5039370078740157,"duration":0.3385418020833413},{"name":"F5","midi":77,"time":490.0001959999971,"velocity":0.5039370078740157,"duration":0.3385418020833413},{"name":"A#4","midi":70,"time":490.3573389999971,"velocity":0.5039370078740157,"duration":0.3385418020833413},{"name":"D5","midi":74,"time":490.3573389999971,"velocity":0.5039370078740157,"duration":0.3385418020833413},{"name":"G5","midi":79,"time":490.3573389999971,"velocity":0.5039370078740157,"duration":0.3385418020833413},{"name":"A4","midi":69,"time":490.71448199999713,"velocity":0.5039370078740157,"duration":0.16889887708333617},{"name":"A5","midi":81,"time":490.71448199999713,"velocity":0.5039370078740157,"duration":0.16889887708333617},{"name":"D5","midi":74,"time":490.8930534999971,"velocity":0.5039370078740157,"duration":0.3385418020833413},{"name":"A4","midi":69,"time":491.2501964999971,"velocity":0.5039370078740157,"duration":0.16889887708333617},{"name":"D5","midi":74,"time":491.4287679999971,"velocity":0.5433070866141733,"duration":0.16889887708333617},{"name":"F5","midi":77,"time":491.60733949999707,"velocity":0.5826771653543307,"duration":0.16889887708333617},{"name":"A4","midi":69,"time":491.78591099999704,"velocity":0.6299212598425197,"duration":0.3385418020833413},{"name":"C#5","midi":73,"time":491.78591099999704,"velocity":0.6299212598425197,"duration":0.3385418020833413},{"name":"E5","midi":76,"time":491.78591099999704,"velocity":0.6299212598425197,"duration":0.3385418020833413},{"name":"A4","midi":69,"time":492.14305399999705,"velocity":0.7086614173228346,"duration":0.3385418020833413},{"name":"C#5","midi":73,"time":492.14305399999705,"velocity":0.7086614173228346,"duration":0.3385418020833413},{"name":"E5","midi":76,"time":492.14305399999705,"velocity":0.7086614173228346,"duration":0.3385418020833413},{"name":"A4","midi":69,"time":492.50019699999706,"velocity":0.7952755905511811,"duration":0.16889887708333617},{"name":"D5","midi":74,"time":492.50019699999706,"velocity":0.7952755905511811,"duration":0.16889887708333617},{"name":"E5","midi":76,"time":492.50019699999706,"velocity":0.7952755905511811,"duration":0.16889887708333617},{"name":"C#5","midi":73,"time":492.67876849999703,"velocity":0.8346456692913385,"duration":0.16889887708333617},{"name":"F4","midi":65,"time":492.857339999997,"velocity":0.8818897637795275,"duration":0.3385418020833413},{"name":"A4","midi":69,"time":492.857339999997,"velocity":0.8818897637795275,"duration":0.3385418020833413},{"name":"D5","midi":74,"time":492.857339999997,"velocity":0.8818897637795275,"duration":0.3385418020833413},{"name":"F4","midi":65,"time":493.214482999997,"velocity":0.8818897637795275,"duration":0.16889887708333617},{"name":"A4","midi":69,"time":493.214482999997,"velocity":0.8818897637795275,"duration":0.16889887708333617},{"name":"D5","midi":74,"time":493.214482999997,"velocity":0.8818897637795275,"duration":0.16889887708333617},{"name":"F4","midi":65,"time":493.393054499997,"velocity":0.8818897637795275,"duration":0.16889887708333617},{"name":"A4","midi":69,"time":493.393054499997,"velocity":0.8818897637795275,"duration":0.16889887708333617},{"name":"D5","midi":74,"time":493.393054499997,"velocity":0.8818897637795275,"duration":0.16889887708333617},{"name":"E4","midi":64,"time":493.57162599999697,"velocity":0.8818897637795275,"duration":0.3385418020833413},{"name":"A4","midi":69,"time":493.57162599999697,"velocity":0.8818897637795275,"duration":0.3385418020833413},{"name":"C#5","midi":73,"time":493.57162599999697,"velocity":0.8818897637795275,"duration":0.3385418020833413},{"name":"E5","midi":76,"time":493.57162599999697,"velocity":0.8818897637795275,"duration":0.3385418020833413},{"name":"E4","midi":64,"time":493.928768999997,"velocity":0.8818897637795275,"duration":0.16889887708333617},{"name":"A4","midi":69,"time":493.928768999997,"velocity":0.8818897637795275,"duration":0.16889887708333617},{"name":"C5","midi":72,"time":493.928768999997,"velocity":0.8818897637795275,"duration":0.16889887708333617},{"name":"E5","midi":76,"time":493.928768999997,"velocity":0.8818897637795275,"duration":0.16889887708333617},{"name":"E4","midi":64,"time":494.10734049999695,"velocity":0.8818897637795275,"duration":0.16889887708333617},{"name":"A4","midi":69,"time":494.10734049999695,"velocity":0.8818897637795275,"duration":0.16889887708333617},{"name":"C5","midi":72,"time":494.10734049999695,"velocity":0.8818897637795275,"duration":0.16889887708333617},{"name":"E5","midi":76,"time":494.10734049999695,"velocity":0.8818897637795275,"duration":0.16889887708333617},{"name":"F4","midi":65,"time":494.2859119999969,"velocity":0.8818897637795275,"duration":0.3385418020833413},{"name":"A4","midi":69,"time":494.2859119999969,"velocity":0.8818897637795275,"duration":0.3385418020833413},{"name":"D5","midi":74,"time":494.2859119999969,"velocity":0.8818897637795275,"duration":0.3385418020833413},{"name":"F5","midi":77,"time":494.2859119999969,"velocity":0.8818897637795275,"duration":0.3385418020833413},{"name":"F4","midi":65,"time":494.64305499999693,"velocity":0.8818897637795275,"duration":0.16889887708333617},{"name":"A4","midi":69,"time":494.64305499999693,"velocity":0.8818897637795275,"duration":0.16889887708333617},{"name":"D5","midi":74,"time":494.64305499999693,"velocity":0.8818897637795275,"duration":0.16889887708333617},{"name":"F5","midi":77,"time":494.64305499999693,"velocity":0.8818897637795275,"duration":0.16889887708333617},{"name":"F4","midi":65,"time":494.8216264999969,"velocity":0.8818897637795275,"duration":0.16889887708333617},{"name":"A4","midi":69,"time":494.8216264999969,"velocity":0.8818897637795275,"duration":0.16889887708333617},{"name":"D5","midi":74,"time":494.8216264999969,"velocity":0.8818897637795275,"duration":0.16889887708333617},{"name":"F5","midi":77,"time":494.8216264999969,"velocity":0.8818897637795275,"duration":0.16889887708333617},{"name":"G4","midi":67,"time":495.0001979999969,"velocity":0.8818897637795275,"duration":0.3385418020833413},{"name":"A#4","midi":70,"time":495.0001979999969,"velocity":0.8818897637795275,"duration":0.3385418020833413},{"name":"D5","midi":74,"time":495.0001979999969,"velocity":0.8818897637795275,"duration":0.3385418020833413},{"name":"G5","midi":79,"time":495.0001979999969,"velocity":0.8818897637795275,"duration":0.3385418020833413},{"name":"A4","midi":69,"time":495.3573409999969,"velocity":0.8818897637795275,"duration":0.6778276520833515},{"name":"D5","midi":74,"time":495.3573409999969,"velocity":0.8818897637795275,"duration":0.6778276520833515},{"name":"F5","midi":77,"time":495.3573409999969,"velocity":0.8818897637795275,"duration":0.6778276520833515},{"name":"A5","midi":81,"time":495.3573409999969,"velocity":0.8818897637795275,"duration":0.6778276520833515},{"name":"A4","midi":69,"time":496.0716269999969,"velocity":0.8818897637795275,"duration":0.16889887708333617},{"name":"F5","midi":77,"time":496.0716269999969,"velocity":0.8818897637795275,"duration":0.16889887708333617},{"name":"D5","midi":74,"time":496.2501984999969,"velocity":0.8818897637795275,"duration":0.16889887708333617},{"name":"A4","midi":69,"time":496.42876999999686,"velocity":0.8818897637795275,"duration":1.0171135020833617},{"name":"A#4","midi":70,"time":497.5001989999969,"velocity":0.8818897637795275,"duration":0.6778276520833515},{"name":"D5","midi":74,"time":497.5001989999969,"velocity":0.8818897637795275,"duration":0.6778276520833515},{"name":"F5","midi":77,"time":497.5001989999969,"velocity":0.8818897637795275,"duration":0.6778276520833515},{"name":"A#5","midi":82,"time":497.5001989999969,"velocity":0.8818897637795275,"duration":0.6778276520833515},{"name":"A#4","midi":70,"time":498.2144849999969,"velocity":0.8818897637795275,"duration":0.16889887708333617},{"name":"F5","midi":77,"time":498.2144849999969,"velocity":0.8818897637795275,"duration":0.16889887708333617},{"name":"D5","midi":74,"time":498.3930564999969,"velocity":0.8818897637795275,"duration":0.16889887708333617},{"name":"A#4","midi":70,"time":498.57162799999685,"velocity":0.8818897637795275,"duration":1.0171135020833617},{"name":"E4","midi":64,"time":499.6430569999969,"velocity":0.8818897637795275,"duration":0.16889887708333617},{"name":"A4","midi":69,"time":499.6430569999969,"velocity":0.8818897637795275,"duration":0.16889887708333617},{"name":"E4","midi":64,"time":499.82162849999685,"velocity":0.8818897637795275,"duration":0.3385418020833413},{"name":"A4","midi":69,"time":499.82162849999685,"velocity":0.8818897637795275,"duration":0.3385418020833413},{"name":"F4","midi":65,"time":500.17877149999686,"velocity":0.8818897637795275,"duration":0.3385418020833413},{"name":"A4","midi":69,"time":500.17877149999686,"velocity":0.8818897637795275,"duration":0.3385418020833413},{"name":"D5","midi":74,"time":500.17877149999686,"velocity":0.8818897637795275,"duration":0.3385418020833413},{"name":"G4","midi":67,"time":500.53591449999686,"velocity":0.8818897637795275,"duration":0.6778276520833515},{"name":"C#5","midi":73,"time":500.53591449999686,"velocity":0.8818897637795275,"duration":0.6778276520833515},{"name":"F5","midi":77,"time":500.53591449999686,"velocity":0.8818897637795275,"duration":0.6778276520833515},{"name":"E5","midi":76,"time":501.42877199999685,"velocity":0.8818897637795275,"duration":0.16889887708333617},{"name":"C#5","midi":73,"time":501.60734349999683,"velocity":0.8818897637795275,"duration":0.16889887708333617},{"name":"F4","midi":65,"time":501.7859149999968,"velocity":0.8818897637795275,"duration":0.5081847270833464},{"name":"A4","midi":69,"time":501.7859149999968,"velocity":0.8818897637795275,"duration":0.5081847270833464},{"name":"D5","midi":74,"time":501.7859149999968,"velocity":0.8818897637795275,"duration":0.5081847270833464},{"name":"C3","midi":48,"time":502.32162949999685,"velocity":0.8818897637795275,"duration":0.16889887708333617},{"name":"C3","midi":48,"time":502.5002009999968,"velocity":0.8818897637795275,"duration":0.16889887708333617},{"name":"C3","midi":48,"time":502.6787724999968,"velocity":0.8818897637795275,"duration":0.16889887708333617},{"name":"D3","midi":50,"time":502.8573439999968,"velocity":0.8818897637795275,"duration":0.16889887708333617},{"name":"C#3","midi":49,"time":503.03591549999675,"velocity":0.8818897637795275,"duration":0.16889887708333617},{"name":"D3","midi":50,"time":503.2144869999967,"velocity":0.8818897637795275,"duration":0.16889887708333617},{"name":"F#3","midi":54,"time":503.3930584999967,"velocity":0.8818897637795275,"duration":0.16889887708333617},{"name":"E3","midi":52,"time":503.5716299999967,"velocity":0.8818897637795275,"duration":0.16889887708333617},{"name":"F#3","midi":54,"time":503.75020149999665,"velocity":0.8818897637795275,"duration":0.16889887708333617},{"name":"G3","midi":55,"time":503.9287729999966,"velocity":0.8818897637795275,"duration":0.16889887708333617},{"name":"F#3","midi":54,"time":504.1073444999966,"velocity":0.8818897637795275,"duration":0.16889887708333617},{"name":"G3","midi":55,"time":504.2859159999966,"velocity":0.8818897637795275,"duration":0.16889887708333617},{"name":"A3","midi":57,"time":504.46448749999655,"velocity":0.8818897637795275,"duration":0.16889887708333617},{"name":"G#3","midi":56,"time":504.6430589999965,"velocity":0.8818897637795275,"duration":0.16889887708333617},{"name":"A3","midi":57,"time":504.8216304999965,"velocity":0.8818897637795275,"duration":0.16889887708333617},{"name":"A#3","midi":58,"time":505.0002019999965,"velocity":0.8818897637795275,"duration":0.16889887708333617},{"name":"A3","midi":57,"time":505.17877349999645,"velocity":0.8818897637795275,"duration":0.16889887708333617},{"name":"A#3","midi":58,"time":505.3573449999964,"velocity":0.8818897637795275,"duration":0.16889887708333617},{"name":"B3","midi":59,"time":505.5359164999964,"velocity":0.8818897637795275,"duration":0.16889887708333617},{"name":"B4","midi":71,"time":505.5359164999964,"velocity":0.8818897637795275,"duration":0.16889887708333617},{"name":"A#3","midi":58,"time":505.7144879999964,"velocity":0.8818897637795275,"duration":0.16889887708333617},{"name":"A#4","midi":70,"time":505.7144879999964,"velocity":0.8818897637795275,"duration":0.16889887708333617},{"name":"B3","midi":59,"time":505.89305949999635,"velocity":0.8818897637795275,"duration":0.16889887708333617},{"name":"B4","midi":71,"time":505.89305949999635,"velocity":0.8818897637795275,"duration":0.16889887708333617},{"name":"C4","midi":60,"time":506.07163099999633,"velocity":0.8818897637795275,"duration":0.16889887708333617},{"name":"C5","midi":72,"time":506.07163099999633,"velocity":0.8818897637795275,"duration":0.16889887708333617},{"name":"B3","midi":59,"time":506.2502024999963,"velocity":0.8818897637795275,"duration":0.16889887708333617},{"name":"B4","midi":71,"time":506.2502024999963,"velocity":0.8818897637795275,"duration":0.16889887708333617},{"name":"C4","midi":60,"time":506.4287739999963,"velocity":0.8818897637795275,"duration":0.16889887708333617},{"name":"C5","midi":72,"time":506.4287739999963,"velocity":0.8818897637795275,"duration":0.16889887708333617},{"name":"C#4","midi":61,"time":506.60734549999626,"velocity":0.8818897637795275,"duration":0.16889887708333617},{"name":"C#5","midi":73,"time":506.60734549999626,"velocity":0.8818897637795275,"duration":0.16889887708333617},{"name":"C4","midi":60,"time":506.78591699999623,"velocity":0.8818897637795275,"duration":0.16889887708333617},{"name":"C5","midi":72,"time":506.78591699999623,"velocity":0.8818897637795275,"duration":0.16889887708333617},{"name":"C#4","midi":61,"time":506.9644884999962,"velocity":0.8818897637795275,"duration":0.16889887708333617},{"name":"C#5","midi":73,"time":506.9644884999962,"velocity":0.8818897637795275,"duration":0.16889887708333617},{"name":"D4","midi":62,"time":507.1430599999962,"velocity":0.8818897637795275,"duration":0.16889887708333617},{"name":"D5","midi":74,"time":507.1430599999962,"velocity":0.8818897637795275,"duration":0.16889887708333617},{"name":"C#4","midi":61,"time":507.32163149999616,"velocity":0.8818897637795275,"duration":0.16889887708333617},{"name":"C#5","midi":73,"time":507.32163149999616,"velocity":0.8818897637795275,"duration":0.16889887708333617},{"name":"D4","midi":62,"time":507.50020299999613,"velocity":0.8818897637795275,"duration":0.16889887708333617},{"name":"D5","midi":74,"time":507.50020299999613,"velocity":0.8818897637795275,"duration":0.16889887708333617},{"name":"D#4","midi":63,"time":507.6787744999961,"velocity":0.8818897637795275,"duration":0.16889887708333617},{"name":"D#5","midi":75,"time":507.6787744999961,"velocity":0.8818897637795275,"duration":0.16889887708333617},{"name":"D4","midi":62,"time":507.8573459999961,"velocity":0.8818897637795275,"duration":0.16889887708333617},{"name":"D5","midi":74,"time":507.8573459999961,"velocity":0.8818897637795275,"duration":0.16889887708333617},{"name":"D#4","midi":63,"time":508.03591749999606,"velocity":0.8818897637795275,"duration":0.16889887708333617},{"name":"D#5","midi":75,"time":508.03591749999606,"velocity":0.8818897637795275,"duration":0.16889887708333617},{"name":"E4","midi":64,"time":508.21448899999604,"velocity":0.8818897637795275,"duration":0.16889887708333617},{"name":"E5","midi":76,"time":508.21448899999604,"velocity":0.8818897637795275,"duration":0.16889887708333617},{"name":"D#4","midi":63,"time":508.393060499996,"velocity":0.8818897637795275,"duration":0.16889887708333617},{"name":"D#5","midi":75,"time":508.393060499996,"velocity":0.8818897637795275,"duration":0.16889887708333617},{"name":"E4","midi":64,"time":508.571631999996,"velocity":0.8818897637795275,"duration":0.16889887708333617},{"name":"E5","midi":76,"time":508.571631999996,"velocity":0.8818897637795275,"duration":0.16889887708333617},{"name":"F4","midi":65,"time":508.75020349999596,"velocity":0.8818897637795275,"duration":0.16889887708333617},{"name":"F5","midi":77,"time":508.75020349999596,"velocity":0.8818897637795275,"duration":0.16889887708333617},{"name":"E4","midi":64,"time":508.92877499999594,"velocity":0.8818897637795275,"duration":0.16889887708333617},{"name":"E5","midi":76,"time":508.92877499999594,"velocity":0.8818897637795275,"duration":0.16889887708333617},{"name":"F4","midi":65,"time":509.1073464999959,"velocity":0.8818897637795275,"duration":0.16889887708333617},{"name":"F5","midi":77,"time":509.1073464999959,"velocity":0.8818897637795275,"duration":0.16889887708333617},{"name":"F#4","midi":66,"time":509.2859179999959,"velocity":0.8818897637795275,"duration":0.16889887708333617},{"name":"F#5","midi":78,"time":509.2859179999959,"velocity":0.8818897637795275,"duration":0.16889887708333617},{"name":"G4","midi":67,"time":509.46448949999586,"velocity":0.8818897637795275,"duration":0.16889887708333617},{"name":"G5","midi":79,"time":509.46448949999586,"velocity":0.8818897637795275,"duration":0.16889887708333617},{"name":"G#4","midi":68,"time":509.64306099999584,"velocity":0.8818897637795275,"duration":0.16889887708333617},{"name":"G#5","midi":80,"time":509.64306099999584,"velocity":0.8818897637795275,"duration":0.16889887708333617},{"name":"A4","midi":69,"time":509.8216324999958,"velocity":0.8818897637795275,"duration":0.16889887708333617},{"name":"A5","midi":81,"time":509.8216324999958,"velocity":0.8818897637795275,"duration":0.16889887708333617},{"name":"A#4","midi":70,"time":510.0002039999958,"velocity":0.8818897637795275,"duration":0.16889887708333617},{"name":"A#5","midi":82,"time":510.0002039999958,"velocity":0.8818897637795275,"duration":0.16889887708333617},{"name":"B4","midi":71,"time":510.17877549999577,"velocity":0.8818897637795275,"duration":0.16889887708333617},{"name":"B5","midi":83,"time":510.17877549999577,"velocity":0.8818897637795275,"duration":0.16889887708333617},{"name":"C5","midi":72,"time":510.35734699999574,"velocity":0.8818897637795275,"duration":0.16889887708333617},{"name":"C6","midi":84,"time":510.35734699999574,"velocity":0.8818897637795275,"duration":0.16889887708333617},{"name":"C#5","midi":73,"time":510.5359184999957,"velocity":0.8818897637795275,"duration":0.16889887708333617},{"name":"C#6","midi":85,"time":510.5359184999957,"velocity":0.8818897637795275,"duration":0.16889887708333617},{"name":"D5","midi":74,"time":510.7144899999957,"velocity":0.8818897637795275,"duration":0.16889887708333617},{"name":"D6","midi":86,"time":510.7144899999957,"velocity":0.8818897637795275,"duration":0.16889887708333617},{"name":"D#5","midi":75,"time":510.89306149999567,"velocity":0.8818897637795275,"duration":0.16889887708333617},{"name":"D#6","midi":87,"time":510.89306149999567,"velocity":0.8818897637795275,"duration":0.16889887708333617},{"name":"E5","midi":76,"time":511.07163299999564,"velocity":0.8818897637795275,"duration":0.16889887708333617},{"name":"E6","midi":88,"time":511.07163299999564,"velocity":0.8818897637795275,"duration":0.16889887708333617},{"name":"F5","midi":77,"time":511.2502044999956,"velocity":0.8818897637795275,"duration":0.16889887708333617},{"name":"F6","midi":89,"time":511.2502044999956,"velocity":0.8818897637795275,"duration":0.16889887708333617},{"name":"F#5","midi":78,"time":511.4287759999956,"velocity":0.8818897637795275,"duration":0.16889887708333617},{"name":"F#6","midi":90,"time":511.4287759999956,"velocity":0.8818897637795275,"duration":0.16889887708333617},{"name":"G5","midi":79,"time":511.60734749999557,"velocity":0.8818897637795275,"duration":0.16889887708333617},{"name":"G6","midi":91,"time":511.60734749999557,"velocity":0.8818897637795275,"duration":0.16889887708333617},{"name":"G#5","midi":80,"time":511.78591899999554,"velocity":0.8818897637795275,"duration":0.16889887708333617},{"name":"G#6","midi":92,"time":511.78591899999554,"velocity":0.8818897637795275,"duration":0.16889887708333617},{"name":"A5","midi":81,"time":511.9644904999955,"velocity":0.9921259842519685,"duration":0.16889887708333617},{"name":"D6","midi":86,"time":511.9644904999955,"velocity":0.9921259842519685,"duration":0.16889887708333617},{"name":"F6","midi":89,"time":511.9644904999955,"velocity":0.9921259842519685,"duration":0.16889887708333617},{"name":"A6","midi":93,"time":511.9644904999955,"velocity":0.9921259842519685,"duration":0.16889887708333617},{"name":"G#5","midi":80,"time":512.1430619999956,"velocity":0.9921259842519685,"duration":0.16889887708327933},{"name":"D6","midi":86,"time":512.1430619999956,"velocity":0.9921259842519685,"duration":0.16889887708327933},{"name":"F#6","midi":90,"time":512.1430619999956,"velocity":0.9921259842519685,"duration":0.16889887708327933},{"name":"G6","midi":91,"time":512.1430619999956,"velocity":0.9921259842519685,"duration":0.16889887708327933},{"name":"A5","midi":81,"time":512.3216334999955,"velocity":0.9921259842519685,"duration":0.16889887708327933},{"name":"D6","midi":86,"time":512.3216334999955,"velocity":0.9921259842519685,"duration":0.16889887708327933},{"name":"F#6","midi":90,"time":512.3216334999955,"velocity":0.9921259842519685,"duration":0.16889887708327933},{"name":"A6","midi":93,"time":512.3216334999955,"velocity":0.9921259842519685,"duration":0.16889887708327933},{"name":"A5","midi":81,"time":512.5002049999955,"velocity":0.9921259842519685,"duration":0.16889887708327933},{"name":"D6","midi":86,"time":512.5002049999955,"velocity":0.9921259842519685,"duration":0.16889887708327933},{"name":"F#6","midi":90,"time":512.5002049999955,"velocity":0.9921259842519685,"duration":0.16889887708327933},{"name":"A6","midi":93,"time":512.5002049999955,"velocity":0.9921259842519685,"duration":0.16889887708327933},{"name":"G#5","midi":80,"time":512.6787764999955,"velocity":0.9921259842519685,"duration":0.16889887708327933},{"name":"D6","midi":86,"time":512.6787764999955,"velocity":0.9921259842519685,"duration":0.16889887708327933},{"name":"F#6","midi":90,"time":512.6787764999955,"velocity":0.9921259842519685,"duration":0.16889887708327933},{"name":"G6","midi":91,"time":512.6787764999955,"velocity":0.9921259842519685,"duration":0.16889887708327933},{"name":"A5","midi":81,"time":512.8573479999955,"velocity":0.9921259842519685,"duration":0.16889887708327933},{"name":"D6","midi":86,"time":512.8573479999955,"velocity":0.9921259842519685,"duration":0.16889887708327933},{"name":"F#6","midi":90,"time":512.8573479999955,"velocity":0.9921259842519685,"duration":0.16889887708327933},{"name":"A6","midi":93,"time":512.8573479999955,"velocity":0.9921259842519685,"duration":0.16889887708327933},{"name":"A5","midi":81,"time":513.0359194999954,"velocity":0.9921259842519685,"duration":0.16889887708327933},{"name":"D6","midi":86,"time":513.0359194999954,"velocity":0.9921259842519685,"duration":0.16889887708327933},{"name":"F6","midi":89,"time":513.0359194999954,"velocity":0.9921259842519685,"duration":0.16889887708327933},{"name":"A6","midi":93,"time":513.0359194999954,"velocity":0.9921259842519685,"duration":0.16889887708327933},{"name":"G#5","midi":80,"time":513.2144909999954,"velocity":0.9921259842519685,"duration":0.16889887708327933},{"name":"D6","midi":86,"time":513.2144909999954,"velocity":0.9921259842519685,"duration":0.16889887708327933},{"name":"F#6","midi":90,"time":513.2144909999954,"velocity":0.9921259842519685,"duration":0.16889887708327933},{"name":"G6","midi":91,"time":513.2144909999954,"velocity":0.9921259842519685,"duration":0.16889887708327933},{"name":"A5","midi":81,"time":513.3930624999954,"velocity":0.9921259842519685,"duration":0.16889887708327933},{"name":"D6","midi":86,"time":513.3930624999954,"velocity":0.9921259842519685,"duration":0.16889887708327933},{"name":"F#6","midi":90,"time":513.3930624999954,"velocity":0.9921259842519685,"duration":0.16889887708327933},{"name":"A6","midi":93,"time":513.3930624999954,"velocity":0.9921259842519685,"duration":0.16889887708327933},{"name":"A5","midi":81,"time":513.5716339999954,"velocity":0.9921259842519685,"duration":0.16889887708327933},{"name":"D6","midi":86,"time":513.5716339999954,"velocity":0.9921259842519685,"duration":0.16889887708327933},{"name":"F#6","midi":90,"time":513.5716339999954,"velocity":0.9921259842519685,"duration":0.16889887708327933},{"name":"A6","midi":93,"time":513.5716339999954,"velocity":0.9921259842519685,"duration":0.16889887708327933},{"name":"G#5","midi":80,"time":513.7502054999953,"velocity":0.9921259842519685,"duration":0.16889887708327933},{"name":"D6","midi":86,"time":513.7502054999953,"velocity":0.9921259842519685,"duration":0.16889887708327933},{"name":"F#6","midi":90,"time":513.7502054999953,"velocity":0.9921259842519685,"duration":0.16889887708327933},{"name":"G6","midi":91,"time":513.7502054999953,"velocity":0.9921259842519685,"duration":0.16889887708327933},{"name":"A5","midi":81,"time":513.9287769999953,"velocity":0.9921259842519685,"duration":0.16889887708327933},{"name":"D6","midi":86,"time":513.9287769999953,"velocity":0.9921259842519685,"duration":0.16889887708327933},{"name":"F#6","midi":90,"time":513.9287769999953,"velocity":0.9921259842519685,"duration":0.16889887708327933},{"name":"A6","midi":93,"time":513.9287769999953,"velocity":0.9921259842519685,"duration":0.16889887708327933},{"name":"A5","midi":81,"time":514.1073484999953,"velocity":0.9921259842519685,"duration":0.16889887708327933},{"name":"D6","midi":86,"time":514.1073484999953,"velocity":0.9921259842519685,"duration":0.16889887708327933},{"name":"F6","midi":89,"time":514.1073484999953,"velocity":0.9921259842519685,"duration":0.16889887708327933},{"name":"A6","midi":93,"time":514.1073484999953,"velocity":0.9921259842519685,"duration":0.16889887708327933},{"name":"G#5","midi":80,"time":514.2859199999953,"velocity":0.9921259842519685,"duration":0.16889887708327933},{"name":"D6","midi":86,"time":514.2859199999953,"velocity":0.9921259842519685,"duration":0.16889887708327933},{"name":"F#6","midi":90,"time":514.2859199999953,"velocity":0.9921259842519685,"duration":0.16889887708327933},{"name":"G6","midi":91,"time":514.2859199999953,"velocity":0.9921259842519685,"duration":0.16889887708327933},{"name":"A5","midi":81,"time":514.4644914999952,"velocity":0.9921259842519685,"duration":0.16889887708327933},{"name":"D6","midi":86,"time":514.4644914999952,"velocity":0.9921259842519685,"duration":0.16889887708327933},{"name":"F#6","midi":90,"time":514.4644914999952,"velocity":0.9921259842519685,"duration":0.16889887708327933},{"name":"A6","midi":93,"time":514.4644914999952,"velocity":0.9921259842519685,"duration":0.16889887708327933},{"name":"A5","midi":81,"time":514.6430629999952,"velocity":0.9921259842519685,"duration":0.16889887708327933},{"name":"D6","midi":86,"time":514.6430629999952,"velocity":0.9921259842519685,"duration":0.16889887708327933},{"name":"F#6","midi":90,"time":514.6430629999952,"velocity":0.9921259842519685,"duration":0.16889887708327933},{"name":"A6","midi":93,"time":514.6430629999952,"velocity":0.9921259842519685,"duration":0.16889887708327933},{"name":"G#5","midi":80,"time":514.8216344999952,"velocity":0.9921259842519685,"duration":0.16889887708327933},{"name":"D6","midi":86,"time":514.8216344999952,"velocity":0.9921259842519685,"duration":0.16889887708327933},{"name":"F#6","midi":90,"time":514.8216344999952,"velocity":0.9921259842519685,"duration":0.16889887708327933},{"name":"G6","midi":91,"time":514.8216344999952,"velocity":0.9921259842519685,"duration":0.16889887708327933},{"name":"A5","midi":81,"time":515.0002059999952,"velocity":0.9921259842519685,"duration":0.16889887708327933},{"name":"D6","midi":86,"time":515.0002059999952,"velocity":0.9921259842519685,"duration":0.16889887708327933},{"name":"F#6","midi":90,"time":515.0002059999952,"velocity":0.9921259842519685,"duration":0.16889887708327933},{"name":"A6","midi":93,"time":515.0002059999952,"velocity":0.9921259842519685,"duration":0.16889887708327933},{"name":"A5","midi":81,"time":515.1787774999951,"velocity":0.9921259842519685,"duration":0.16889887708327933},{"name":"D6","midi":86,"time":515.1787774999951,"velocity":0.9921259842519685,"duration":0.16889887708327933},{"name":"F6","midi":89,"time":515.1787774999951,"velocity":0.9921259842519685,"duration":0.16889887708327933},{"name":"A6","midi":93,"time":515.1787774999951,"velocity":0.9921259842519685,"duration":0.16889887708327933},{"name":"G#5","midi":80,"time":515.3573489999951,"velocity":0.9921259842519685,"duration":0.16889887708327933},{"name":"D6","midi":86,"time":515.3573489999951,"velocity":0.9921259842519685,"duration":0.16889887708327933},{"name":"F#6","midi":90,"time":515.3573489999951,"velocity":0.9921259842519685,"duration":0.16889887708327933},{"name":"G6","midi":91,"time":515.3573489999951,"velocity":0.9921259842519685,"duration":0.16889887708327933},{"name":"A5","midi":81,"time":515.5359204999951,"velocity":0.9921259842519685,"duration":0.16889887708327933},{"name":"D6","midi":86,"time":515.5359204999951,"velocity":0.9921259842519685,"duration":0.16889887708327933},{"name":"F#6","midi":90,"time":515.5359204999951,"velocity":0.9921259842519685,"duration":0.16889887708327933},{"name":"A6","midi":93,"time":515.5359204999951,"velocity":0.9921259842519685,"duration":0.16889887708327933},{"name":"A5","midi":81,"time":515.7144919999951,"velocity":0.9921259842519685,"duration":0.16889887708327933},{"name":"D6","midi":86,"time":515.7144919999951,"velocity":0.9921259842519685,"duration":0.16889887708327933},{"name":"F#6","midi":90,"time":515.7144919999951,"velocity":0.9921259842519685,"duration":0.16889887708327933},{"name":"A6","midi":93,"time":515.7144919999951,"velocity":0.9921259842519685,"duration":0.16889887708327933},{"name":"G#5","midi":80,"time":515.893063499995,"velocity":0.9921259842519685,"duration":0.16889887708327933},{"name":"D6","midi":86,"time":515.893063499995,"velocity":0.9921259842519685,"duration":0.16889887708327933},{"name":"F#6","midi":90,"time":515.893063499995,"velocity":0.9921259842519685,"duration":0.16889887708327933},{"name":"G6","midi":91,"time":515.893063499995,"velocity":0.9921259842519685,"duration":0.16889887708327933},{"name":"A5","midi":81,"time":516.071634999995,"velocity":0.9921259842519685,"duration":0.16889887708327933},{"name":"D6","midi":86,"time":516.071634999995,"velocity":0.9921259842519685,"duration":0.16889887708327933},{"name":"F#6","midi":90,"time":516.071634999995,"velocity":0.9921259842519685,"duration":0.16889887708327933},{"name":"A6","midi":93,"time":516.071634999995,"velocity":0.9921259842519685,"duration":0.16889887708327933},{"name":"D4","midi":62,"time":516.250206499995,"velocity":0.8818897637795275,"duration":0.3385418020833413},{"name":"F4","midi":65,"time":516.250206499995,"velocity":0.8818897637795275,"duration":0.3385418020833413},{"name":"A4","midi":69,"time":516.250206499995,"velocity":0.8818897637795275,"duration":0.3385418020833413},{"name":"D5","midi":74,"time":516.250206499995,"velocity":0.8818897637795275,"duration":0.3385418020833413},{"name":"A4","midi":69,"time":516.607349499995,"velocity":0.8818897637795275,"duration":1.356399352083372},{"name":"D5","midi":74,"time":516.607349499995,"velocity":0.8818897637795275,"duration":1.356399352083372},{"name":"F5","midi":77,"time":516.607349499995,"velocity":0.8818897637795275,"duration":1.356399352083372},{"name":"A5","midi":81,"time":516.607349499995,"velocity":0.8818897637795275,"duration":1.356399352083372},{"name":"G4","midi":67,"time":518.0359214999951,"velocity":0.8818897637795275,"duration":0.16889887708327933},{"name":"D5","midi":74,"time":518.0359214999951,"velocity":0.8818897637795275,"duration":0.16889887708327933},{"name":"G5","midi":79,"time":518.0359214999951,"velocity":0.8818897637795275,"duration":0.16889887708327933},{"name":"F4","midi":65,"time":518.2144929999951,"velocity":0.8818897637795275,"duration":0.16889887708327933},{"name":"A4","midi":69,"time":518.2144929999951,"velocity":0.8818897637795275,"duration":0.16889887708327933},{"name":"D5","midi":74,"time":518.2144929999951,"velocity":0.8818897637795275,"duration":0.16889887708327933},{"name":"F5","midi":77,"time":518.2144929999951,"velocity":0.8818897637795275,"duration":0.16889887708327933},{"name":"G4","midi":67,"time":518.393064499995,"velocity":0.8818897637795275,"duration":0.3385418020833413},{"name":"D5","midi":74,"time":518.393064499995,"velocity":0.8818897637795275,"duration":0.3385418020833413},{"name":"G5","midi":79,"time":518.393064499995,"velocity":0.8818897637795275,"duration":0.3385418020833413},{"name":"C5","midi":72,"time":518.7502074999951,"velocity":0.8818897637795275,"duration":1.6956852020833821},{"name":"E5","midi":76,"time":518.7502074999951,"velocity":0.8818897637795275,"duration":1.6956852020833821},{"name":"G5","midi":79,"time":518.7502074999951,"velocity":0.8818897637795275,"duration":1.6956852020833821},{"name":"C6","midi":84,"time":518.7502074999951,"velocity":0.8818897637795275,"duration":1.6956852020833821},{"name":"C5","midi":72,"time":520.5359224999952,"velocity":0.8818897637795275,"duration":0.3385418020833413},{"name":"E5","midi":76,"time":520.5359224999952,"velocity":0.8818897637795275,"duration":0.3385418020833413},{"name":"G5","midi":79,"time":520.5359224999952,"velocity":0.8818897637795275,"duration":0.3385418020833413},{"name":"C6","midi":84,"time":520.5359224999952,"velocity":0.8818897637795275,"duration":0.3385418020833413},{"name":"E4","midi":64,"time":520.8930654999953,"velocity":0.8818897637795275,"duration":0.3385418020833413},{"name":"A4","midi":69,"time":520.8930654999953,"velocity":0.8818897637795275,"duration":0.3385418020833413},{"name":"C5","midi":72,"time":520.8930654999953,"velocity":0.8818897637795275,"duration":0.3385418020833413},{"name":"E5","midi":76,"time":520.8930654999953,"velocity":0.8818897637795275,"duration":0.3385418020833413},{"name":"E4","midi":64,"time":521.2502084999953,"velocity":0.8818897637795275,"duration":0.16889887708327933},{"name":"A4","midi":69,"time":521.2502084999953,"velocity":0.8818897637795275,"duration":0.16889887708327933},{"name":"C5","midi":72,"time":521.2502084999953,"velocity":0.8818897637795275,"duration":0.16889887708327933},{"name":"E4","midi":64,"time":521.4287799999953,"velocity":0.8818897637795275,"duration":0.16889887708327933},{"name":"A4","midi":69,"time":521.4287799999953,"velocity":0.8818897637795275,"duration":0.16889887708327933},{"name":"C5","midi":72,"time":521.4287799999953,"velocity":0.8818897637795275,"duration":0.16889887708327933},{"name":"E4","midi":64,"time":521.6073514999953,"velocity":0.8818897637795275,"duration":0.3385418020833413},{"name":"A4","midi":69,"time":521.6073514999953,"velocity":0.8818897637795275,"duration":0.3385418020833413},{"name":"C5","midi":72,"time":521.6073514999953,"velocity":0.8818897637795275,"duration":0.3385418020833413},{"name":"D4","midi":62,"time":522.3216374999953,"velocity":0.8818897637795275,"duration":0.16889887708327933},{"name":"F4","midi":65,"time":522.3216374999953,"velocity":0.8818897637795275,"duration":0.16889887708327933},{"name":"A4","midi":69,"time":522.3216374999953,"velocity":0.8818897637795275,"duration":0.16889887708327933},{"name":"D5","midi":74,"time":522.3216374999953,"velocity":0.8818897637795275,"duration":0.16889887708327933},{"name":"E4","midi":64,"time":522.5002089999953,"velocity":0.8818897637795275,"duration":0.16889887708327933},{"name":"A4","midi":69,"time":522.5002089999953,"velocity":0.8818897637795275,"duration":0.16889887708327933},{"name":"E5","midi":76,"time":522.5002089999953,"velocity":0.8818897637795275,"duration":0.16889887708327933},{"name":"F4","midi":65,"time":522.6787804999952,"velocity":0.8818897637795275,"duration":1.0171135020833617},{"name":"A4","midi":69,"time":522.6787804999952,"velocity":0.8818897637795275,"duration":1.0171135020833617},{"name":"F5","midi":77,"time":522.6787804999952,"velocity":0.8818897637795275,"duration":1.0171135020833617},{"name":"D4","midi":62,"time":523.7502094999953,"velocity":0.8818897637795275,"duration":0.16889887708327933},{"name":"F4","midi":65,"time":523.7502094999953,"velocity":0.8818897637795275,"duration":0.16889887708327933},{"name":"A4","midi":69,"time":523.7502094999953,"velocity":0.8818897637795275,"duration":0.16889887708327933},{"name":"D5","midi":74,"time":523.7502094999953,"velocity":0.8818897637795275,"duration":0.16889887708327933},{"name":"C4","midi":60,"time":523.9287809999953,"velocity":0.8818897637795275,"duration":0.16889887708327933},{"name":"C5","midi":72,"time":523.9287809999953,"velocity":0.8818897637795275,"duration":0.16889887708327933},{"name":"D4","midi":62,"time":524.1073524999953,"velocity":0.8818897637795275,"duration":0.16889887708327933},{"name":"D5","midi":74,"time":524.1073524999953,"velocity":0.8818897637795275,"duration":0.16889887708327933},{"name":"F4","midi":65,"time":524.2859239999952,"velocity":0.8818897637795275,"duration":0.16889887708327933},{"name":"F5","midi":77,"time":524.2859239999952,"velocity":0.8818897637795275,"duration":0.16889887708327933},{"name":"E4","midi":64,"time":524.4644954999952,"velocity":0.8818897637795275,"duration":0.16889887708327933},{"name":"E5","midi":76,"time":524.4644954999952,"velocity":0.8818897637795275,"duration":0.16889887708327933},{"name":"C4","midi":60,"time":524.6430669999952,"velocity":0.8818897637795275,"duration":0.16889887708327933},{"name":"C5","midi":72,"time":524.6430669999952,"velocity":0.8818897637795275,"duration":0.16889887708327933},{"name":"D4","midi":62,"time":524.8216384999952,"velocity":0.8818897637795275,"duration":0.3385418020833413},{"name":"F4","midi":65,"time":524.8216384999952,"velocity":0.8818897637795275,"duration":0.3385418020833413},{"name":"A4","midi":69,"time":524.8216384999952,"velocity":0.8818897637795275,"duration":0.3385418020833413},{"name":"D5","midi":74,"time":524.8216384999952,"velocity":0.8818897637795275,"duration":0.3385418020833413},{"name":"A4","midi":69,"time":525.1787814999952,"velocity":0.8818897637795275,"duration":1.356399352083372},{"name":"D5","midi":74,"time":525.1787814999952,"velocity":0.8818897637795275,"duration":1.356399352083372},{"name":"F5","midi":77,"time":525.1787814999952,"velocity":0.8818897637795275,"duration":1.356399352083372},{"name":"A5","midi":81,"time":525.1787814999952,"velocity":0.8818897637795275,"duration":1.356399352083372},{"name":"G4","midi":67,"time":526.6073534999953,"velocity":0.8818897637795275,"duration":0.16889887708327933},{"name":"D5","midi":74,"time":526.6073534999953,"velocity":0.8818897637795275,"duration":0.16889887708327933},{"name":"G5","midi":79,"time":526.6073534999953,"velocity":0.8818897637795275,"duration":0.16889887708327933},{"name":"F4","midi":65,"time":526.7859249999952,"velocity":0.8818897637795275,"duration":0.16889887708327933},{"name":"A4","midi":69,"time":526.7859249999952,"velocity":0.8818897637795275,"duration":0.16889887708327933},{"name":"D5","midi":74,"time":526.7859249999952,"velocity":0.8818897637795275,"duration":0.16889887708327933},{"name":"F5","midi":77,"time":526.7859249999952,"velocity":0.8818897637795275,"duration":0.16889887708327933},{"name":"E4","midi":64,"time":526.9644964999952,"velocity":0.8818897637795275,"duration":0.3385418020833413},{"name":"E5","midi":76,"time":526.9644964999952,"velocity":0.8818897637795275,"duration":0.3385418020833413},{"name":"C5","midi":72,"time":527.3216394999953,"velocity":0.8818897637795275,"duration":1.356399352083372},{"name":"E5","midi":76,"time":527.3216394999953,"velocity":0.8818897637795275,"duration":1.356399352083372},{"name":"G5","midi":79,"time":527.3216394999953,"velocity":0.8818897637795275,"duration":1.356399352083372},{"name":"C6","midi":84,"time":527.3216394999953,"velocity":0.8818897637795275,"duration":1.356399352083372},{"name":"A#4","midi":70,"time":528.7502114999953,"velocity":0.8818897637795275,"duration":0.16889887708327933},{"name":"A#5","midi":82,"time":528.7502114999953,"velocity":0.8818897637795275,"duration":0.16889887708327933},{"name":"A4","midi":69,"time":528.9287829999953,"velocity":0.8818897637795275,"duration":0.16889887708327933},{"name":"A5","midi":81,"time":528.9287829999953,"velocity":0.8818897637795275,"duration":0.16889887708327933},{"name":"A4","midi":69,"time":529.1073544999953,"velocity":0.8818897637795275,"duration":0.3385418020833413},{"name":"D5","midi":74,"time":529.1073544999953,"velocity":0.8818897637795275,"duration":0.3385418020833413},{"name":"F5","midi":77,"time":529.1073544999953,"velocity":0.8818897637795275,"duration":0.3385418020833413},{"name":"A5","midi":81,"time":529.1073544999953,"velocity":0.8818897637795275,"duration":0.3385418020833413},{"name":"A#4","midi":70,"time":529.4644974999953,"velocity":0.8818897637795275,"duration":1.356399352083372},{"name":"D5","midi":74,"time":529.4644974999953,"velocity":0.8818897637795275,"duration":1.356399352083372},{"name":"F5","midi":77,"time":529.4644974999953,"velocity":0.8818897637795275,"duration":1.356399352083372},{"name":"A#5","midi":82,"time":529.4644974999953,"velocity":0.8818897637795275,"duration":1.356399352083372},{"name":"F4","midi":65,"time":530.8930694999954,"velocity":0.8818897637795275,"duration":0.16889887708327933},{"name":"A#4","midi":70,"time":530.8930694999954,"velocity":0.8818897637795275,"duration":0.16889887708327933},{"name":"D5","midi":74,"time":530.8930694999954,"velocity":0.8818897637795275,"duration":0.16889887708327933},{"name":"F5","midi":77,"time":530.8930694999954,"velocity":0.8818897637795275,"duration":0.16889887708327933},{"name":"G4","midi":67,"time":531.0716409999953,"velocity":0.8818897637795275,"duration":0.16889887708327933},{"name":"G5","midi":79,"time":531.0716409999953,"velocity":0.8818897637795275,"duration":0.16889887708327933},{"name":"A4","midi":69,"time":531.2502124999953,"velocity":0.8818897637795275,"duration":0.3385418020833413},{"name":"D5","midi":74,"time":531.2502124999953,"velocity":0.8818897637795275,"duration":0.3385418020833413},{"name":"E5","midi":76,"time":531.2502124999953,"velocity":0.8818897637795275,"duration":0.3385418020833413},{"name":"A5","midi":81,"time":531.2502124999953,"velocity":0.8818897637795275,"duration":0.3385418020833413},{"name":"A4","midi":69,"time":531.6073554999954,"velocity":0.8818897637795275,"duration":0.08407741458336204},{"name":"D5","midi":74,"time":531.6073554999954,"velocity":0.8818897637795275,"duration":0.08407741458336204},{"name":"E5","midi":76,"time":531.6073554999954,"velocity":0.8818897637795275,"duration":0.08407741458336204},{"name":"A5","midi":81,"time":531.6073554999954,"velocity":0.8818897637795275,"duration":0.08407741458336204},{"name":"A4","midi":69,"time":531.6966412499954,"velocity":0.8818897637795275,"duration":0.08407741458336204},{"name":"D5","midi":74,"time":531.6966412499954,"velocity":0.8818897637795275,"duration":0.08407741458336204},{"name":"E5","midi":76,"time":531.6966412499954,"velocity":0.8818897637795275,"duration":0.08407741458336204},{"name":"A5","midi":81,"time":531.6966412499954,"velocity":0.8818897637795275,"duration":0.08407741458336204},{"name":"A4","midi":69,"time":531.7859269999955,"velocity":0.8818897637795275,"duration":0.08407741458336204},{"name":"D5","midi":74,"time":531.7859269999955,"velocity":0.8818897637795275,"duration":0.08407741458336204},{"name":"E5","midi":76,"time":531.7859269999955,"velocity":0.8818897637795275,"duration":0.08407741458336204},{"name":"A5","midi":81,"time":531.7859269999955,"velocity":0.8818897637795275,"duration":0.08407741458336204},{"name":"A4","midi":69,"time":531.8752127499955,"velocity":0.8818897637795275,"duration":0.08407741458336204},{"name":"D5","midi":74,"time":531.8752127499955,"velocity":0.8818897637795275,"duration":0.08407741458336204},{"name":"E5","midi":76,"time":531.8752127499955,"velocity":0.8818897637795275,"duration":0.08407741458336204},{"name":"A5","midi":81,"time":531.8752127499955,"velocity":0.8818897637795275,"duration":0.08407741458336204},{"name":"A4","midi":69,"time":531.9644984999956,"velocity":0.8818897637795275,"duration":0.6778276520833515},{"name":"D5","midi":74,"time":531.9644984999956,"velocity":0.8818897637795275,"duration":0.6778276520833515},{"name":"E5","midi":76,"time":531.9644984999956,"velocity":0.8818897637795275,"duration":0.6778276520833515},{"name":"A5","midi":81,"time":531.9644984999956,"velocity":0.8818897637795275,"duration":0.6778276520833515},{"name":"A4","midi":69,"time":532.6787844999956,"velocity":0.8818897637795275,"duration":0.3385418020833413},{"name":"D5","midi":74,"time":532.6787844999956,"velocity":0.8818897637795275,"duration":0.3385418020833413},{"name":"E5","midi":76,"time":532.6787844999956,"velocity":0.8818897637795275,"duration":0.3385418020833413},{"name":"A5","midi":81,"time":532.6787844999956,"velocity":0.8818897637795275,"duration":0.3385418020833413},{"name":"A4","midi":69,"time":533.0359274999956,"velocity":0.8818897637795275,"duration":1.0171135020833617},{"name":"C#5","midi":73,"time":533.0359274999956,"velocity":0.8818897637795275,"duration":1.0171135020833617},{"name":"E5","midi":76,"time":533.0359274999956,"velocity":0.8818897637795275,"duration":1.0171135020833617},{"name":"A5","midi":81,"time":533.0359274999956,"velocity":0.8818897637795275,"duration":1.0171135020833617},{"name":"A#4","midi":70,"time":534.1073564999957,"velocity":0.7559055118110236,"duration":0.3385418020833413},{"name":"D5","midi":74,"time":534.1073564999957,"velocity":0.7559055118110236,"duration":0.3385418020833413},{"name":"F5","midi":77,"time":534.1073564999957,"velocity":0.7559055118110236,"duration":0.3385418020833413},{"name":"A#5","midi":82,"time":534.1073564999957,"velocity":0.7559055118110236,"duration":0.3385418020833413},{"name":"D5","midi":74,"time":534.4644994999958,"velocity":0.7559055118110236,"duration":1.0171135020833617},{"name":"F5","midi":77,"time":534.4644994999958,"velocity":0.7559055118110236,"duration":1.0171135020833617},{"name":"A#5","midi":82,"time":534.4644994999958,"velocity":0.7559055118110236,"duration":1.0171135020833617},{"name":"D6","midi":86,"time":534.4644994999958,"velocity":0.7559055118110236,"duration":1.0171135020833617},{"name":"C5","midi":72,"time":535.5359284999959,"velocity":0.7559055118110236,"duration":0.3385418020833413},{"name":"F5","midi":77,"time":535.5359284999959,"velocity":0.7559055118110236,"duration":0.3385418020833413},{"name":"A#5","midi":82,"time":535.5359284999959,"velocity":0.7559055118110236,"duration":0.3385418020833413},{"name":"C6","midi":84,"time":535.5359284999959,"velocity":0.7559055118110236,"duration":0.3385418020833413},{"name":"A#4","midi":70,"time":535.8930714999959,"velocity":0.7559055118110236,"duration":0.3385418020833413},{"name":"D5","midi":74,"time":535.8930714999959,"velocity":0.7559055118110236,"duration":0.3385418020833413},{"name":"F5","midi":77,"time":535.8930714999959,"velocity":0.7559055118110236,"duration":0.3385418020833413},{"name":"A#5","midi":82,"time":535.8930714999959,"velocity":0.7559055118110236,"duration":0.3385418020833413},{"name":"C5","midi":72,"time":536.250214499996,"velocity":0.7559055118110236,"duration":0.6778276520833515},{"name":"F5","midi":77,"time":536.250214499996,"velocity":0.7559055118110236,"duration":0.6778276520833515},{"name":"A#5","midi":82,"time":536.250214499996,"velocity":0.7559055118110236,"duration":0.6778276520833515},{"name":"C6","midi":84,"time":536.250214499996,"velocity":0.7559055118110236,"duration":0.6778276520833515},{"name":"C5","midi":72,"time":536.964500499996,"velocity":0.7559055118110236,"duration":0.6778276520833515},{"name":"F5","midi":77,"time":536.964500499996,"velocity":0.7559055118110236,"duration":0.6778276520833515},{"name":"A5","midi":81,"time":536.964500499996,"velocity":0.7559055118110236,"duration":0.6778276520833515},{"name":"F4","midi":65,"time":537.678786499996,"velocity":0.7559055118110236,"duration":0.3385418020833413},{"name":"A4","midi":69,"time":537.678786499996,"velocity":0.7559055118110236,"duration":0.3385418020833413},{"name":"C5","midi":72,"time":537.678786499996,"velocity":0.7559055118110236,"duration":0.3385418020833413},{"name":"F4","midi":65,"time":538.0359294999961,"velocity":0.7559055118110236,"duration":0.17782745208330653},{"name":"G4","midi":67,"time":538.2145009999961,"velocity":0.7559055118110236,"duration":0.17782745208330653},{"name":"A4","midi":69,"time":538.393072499996,"velocity":0.7559055118110236,"duration":0.356398952083282},{"name":"C5","midi":72,"time":538.750215499996,"velocity":0.7559055118110236,"duration":0.3385418020833413},{"name":"A4","midi":69,"time":539.107358499996,"velocity":0.7559055118110236,"duration":0.6778276520833515},{"name":"D5","midi":74,"time":539.107358499996,"velocity":0.7559055118110236,"duration":0.6778276520833515},{"name":"F5","midi":77,"time":539.107358499996,"velocity":0.7559055118110236,"duration":0.6778276520833515},{"name":"A5","midi":81,"time":539.107358499996,"velocity":0.7559055118110236,"duration":0.6778276520833515},{"name":"F5","midi":77,"time":539.8216444999961,"velocity":0.7559055118110236,"duration":1.356399352083372},{"name":"A5","midi":81,"time":539.8216444999961,"velocity":0.7559055118110236,"duration":1.356399352083372},{"name":"D6","midi":86,"time":539.8216444999961,"velocity":0.7559055118110236,"duration":1.356399352083372},{"name":"F6","midi":89,"time":539.8216444999961,"velocity":0.7559055118110236,"duration":1.356399352083372},{"name":"E5","midi":76,"time":541.2502164999961,"velocity":0.7559055118110236,"duration":0.3385418020833413},{"name":"A5","midi":81,"time":541.2502164999961,"velocity":0.7559055118110236,"duration":0.3385418020833413},{"name":"C6","midi":84,"time":541.2502164999961,"velocity":0.7559055118110236,"duration":0.3385418020833413},{"name":"E6","midi":88,"time":541.2502164999961,"velocity":0.7559055118110236,"duration":0.3385418020833413},{"name":"D5","midi":74,"time":541.6073594999962,"velocity":0.7559055118110236,"duration":0.3385418020833413},{"name":"F5","midi":77,"time":541.6073594999962,"velocity":0.7559055118110236,"duration":0.3385418020833413},{"name":"A5","midi":81,"time":541.6073594999962,"velocity":0.7559055118110236,"duration":0.3385418020833413},{"name":"D6","midi":86,"time":541.6073594999962,"velocity":0.7559055118110236,"duration":0.3385418020833413},{"name":"E5","midi":76,"time":541.9645024999962,"velocity":0.7559055118110236,"duration":0.6778276520833515},{"name":"A5","midi":81,"time":541.9645024999962,"velocity":0.7559055118110236,"duration":0.6778276520833515},{"name":"C6","midi":84,"time":541.9645024999962,"velocity":0.7559055118110236,"duration":0.6778276520833515},{"name":"E6","midi":88,"time":541.9645024999962,"velocity":0.7559055118110236,"duration":0.6778276520833515},{"name":"A3","midi":57,"time":542.6787884999962,"velocity":0.7559055118110236,"duration":0.3385418020833413},{"name":"D4","midi":62,"time":542.6787884999962,"velocity":0.7559055118110236,"duration":0.3385418020833413},{"name":"E4","midi":64,"time":542.6787884999962,"velocity":0.7559055118110236,"duration":0.3385418020833413},{"name":"A4","midi":69,"time":542.6787884999962,"velocity":0.7559055118110236,"duration":0.3385418020833413},{"name":"A3","midi":57,"time":543.0359314999963,"velocity":0.7559055118110236,"duration":0.17782745208330653},{"name":"D4","midi":62,"time":543.2145029999963,"velocity":0.7559055118110236,"duration":0.17782745208330653},{"name":"A3","midi":57,"time":543.3930744999963,"velocity":0.7559055118110236,"duration":0.3385418020833413},{"name":"C4","midi":60,"time":543.3930744999963,"velocity":0.7559055118110236,"duration":0.3385418020833413},{"name":"E4","midi":64,"time":543.3930744999963,"velocity":0.7559055118110236,"duration":0.3385418020833413},{"name":"A4","midi":69,"time":543.3930744999963,"velocity":0.7559055118110236,"duration":0.3385418020833413},{"name":"A3","midi":57,"time":543.7502174999963,"velocity":0.7559055118110236,"duration":0.17782745208330653},{"name":"C4","midi":60,"time":543.9287889999963,"velocity":0.7559055118110236,"duration":0.17782745208330653},{"name":"A3","midi":57,"time":544.1073604999963,"velocity":0.7559055118110236,"duration":0.3385418020833413},{"name":"C4","midi":60,"time":544.1073604999963,"velocity":0.7559055118110236,"duration":0.3385418020833413},{"name":"E4","midi":64,"time":544.1073604999963,"velocity":0.7559055118110236,"duration":0.3385418020833413},{"name":"A4","midi":69,"time":544.1073604999963,"velocity":0.7559055118110236,"duration":0.3385418020833413},{"name":"A3","midi":57,"time":544.4645034999963,"velocity":0.7559055118110236,"duration":0.3385418020833413},{"name":"D4","midi":62,"time":544.8216464999964,"velocity":0.7559055118110236,"duration":0.6778276520833515},{"name":"F4","midi":65,"time":544.8216464999964,"velocity":0.7559055118110236,"duration":0.6778276520833515},{"name":"A#4","midi":70,"time":544.8216464999964,"velocity":0.7559055118110236,"duration":0.6778276520833515},{"name":"D5","midi":74,"time":544.8216464999964,"velocity":0.7559055118110236,"duration":0.6778276520833515},{"name":"F4","midi":65,"time":545.5359324999964,"velocity":0.7559055118110236,"duration":1.356399352083372},{"name":"A#4","midi":70,"time":545.5359324999964,"velocity":0.7559055118110236,"duration":1.356399352083372},{"name":"D5","midi":74,"time":545.5359324999964,"velocity":0.7559055118110236,"duration":1.356399352083372},{"name":"F5","midi":77,"time":545.5359324999964,"velocity":0.7559055118110236,"duration":1.356399352083372},{"name":"C5","midi":72,"time":546.9645044999965,"velocity":0.7559055118110236,"duration":0.5081847270832895},{"name":"F5","midi":77,"time":546.9645044999965,"velocity":0.7559055118110236,"duration":0.5081847270832895},{"name":"G5","midi":79,"time":546.9645044999965,"velocity":0.7559055118110236,"duration":0.5081847270832895},{"name":"C6","midi":84,"time":546.9645044999965,"velocity":0.7559055118110236,"duration":0.5081847270832895},{"name":"D5","midi":74,"time":547.5002189999964,"velocity":0.7559055118110236,"duration":0.16889887708327933},{"name":"D6","midi":86,"time":547.5002189999964,"velocity":0.7559055118110236,"duration":0.16889887708327933},{"name":"A4","midi":69,"time":547.6787904999964,"velocity":0.7559055118110236,"duration":0.6778276520833515},{"name":"D5","midi":74,"time":547.6787904999964,"velocity":0.7559055118110236,"duration":0.6778276520833515},{"name":"F5","midi":77,"time":547.6787904999964,"velocity":0.7559055118110236,"duration":0.6778276520833515},{"name":"A5","midi":81,"time":547.6787904999964,"velocity":0.7559055118110236,"duration":0.6778276520833515},{"name":"D4","midi":62,"time":548.3930764999964,"velocity":0.7559055118110236,"duration":0.16889887708327933},{"name":"F4","midi":65,"time":548.3930764999964,"velocity":0.7559055118110236,"duration":0.16889887708327933},{"name":"A4","midi":69,"time":548.3930764999964,"velocity":0.7559055118110236,"duration":0.16889887708327933},{"name":"D5","midi":74,"time":548.3930764999964,"velocity":0.7559055118110236,"duration":0.16889887708327933},{"name":"D4","midi":62,"time":548.5716479999963,"velocity":0.7559055118110236,"duration":0.16889887708327933},{"name":"E4","midi":64,"time":548.7502194999963,"velocity":0.7559055118110236,"duration":0.16889887708327933},{"name":"F4","midi":65,"time":548.9287909999963,"velocity":0.7559055118110236,"duration":0.16889887708327933},{"name":"E4","midi":64,"time":549.1073624999963,"velocity":0.7559055118110236,"duration":0.6778276520833515},{"name":"F4","midi":65,"time":549.1073624999963,"velocity":0.7559055118110236,"duration":0.6778276520833515},{"name":"A4","midi":69,"time":549.1073624999963,"velocity":0.7559055118110236,"duration":0.6778276520833515},{"name":"F4","midi":65,"time":549.8216484999963,"velocity":0.7559055118110236,"duration":0.3385418020833413},{"name":"A4","midi":69,"time":549.8216484999963,"velocity":0.7559055118110236,"duration":0.3385418020833413},{"name":"F5","midi":77,"time":549.8216484999963,"velocity":0.7559055118110236,"duration":0.3385418020833413},{"name":"E4","midi":64,"time":550.1787914999964,"velocity":0.7559055118110236,"duration":0.3385418020833413},{"name":"A4","midi":69,"time":550.1787914999964,"velocity":0.7559055118110236,"duration":0.3385418020833413},{"name":"E5","midi":76,"time":550.1787914999964,"velocity":0.7559055118110236,"duration":0.3385418020833413},{"name":"E4","midi":64,"time":550.5359344999964,"velocity":0.7559055118110236,"duration":0.6778276520833515},{"name":"A4","midi":69,"time":550.5359344999964,"velocity":0.7559055118110236,"duration":0.6778276520833515},{"name":"D5","midi":74,"time":550.5359344999964,"velocity":0.7559055118110236,"duration":0.6778276520833515},{"name":"E5","midi":76,"time":550.5359344999964,"velocity":0.7559055118110236,"duration":0.6778276520833515},{"name":"E4","midi":64,"time":551.2502204999964,"velocity":0.7559055118110236,"duration":0.6778276520833515},{"name":"A4","midi":69,"time":551.2502204999964,"velocity":0.7559055118110236,"duration":0.6778276520833515},{"name":"E5","midi":76,"time":551.2502204999964,"velocity":0.7559055118110236,"duration":0.6778276520833515},{"name":"E4","midi":64,"time":551.9645064999964,"velocity":0.7559055118110236,"duration":0.3385418020833413},{"name":"A4","midi":69,"time":551.9645064999964,"velocity":0.7559055118110236,"duration":0.3385418020833413},{"name":"C5","midi":72,"time":551.9645064999964,"velocity":0.7559055118110236,"duration":0.3385418020833413},{"name":"E5","midi":76,"time":551.9645064999964,"velocity":0.7559055118110236,"duration":0.3385418020833413},{"name":"E4","midi":64,"time":552.3216494999965,"velocity":0.7559055118110236,"duration":0.16889887708327933},{"name":"A4","midi":69,"time":552.5002209999965,"velocity":0.7559055118110236,"duration":0.16889887708327933},{"name":"C5","midi":72,"time":552.6787924999965,"velocity":0.7559055118110236,"duration":0.16889887708327933},{"name":"E5","midi":76,"time":552.6787924999965,"velocity":0.7559055118110236,"duration":0.16889887708327933},{"name":"E4","midi":64,"time":552.8573639999964,"velocity":0.7559055118110236,"duration":0.16889887708327933},{"name":"A4","midi":69,"time":553.0359354999964,"velocity":0.7559055118110236,"duration":0.16889887708327933},{"name":"C5","midi":72,"time":553.2145069999964,"velocity":0.7559055118110236,"duration":0.16889887708327933},{"name":"E5","midi":76,"time":553.2145069999964,"velocity":0.7559055118110236,"duration":0.16889887708327933},{"name":"D4","midi":62,"time":553.3930784999964,"velocity":0.7559055118110236,"duration":0.6778276520833515},{"name":"F4","midi":65,"time":553.3930784999964,"velocity":0.7559055118110236,"duration":0.6778276520833515},{"name":"A4","midi":69,"time":553.3930784999964,"velocity":0.7559055118110236,"duration":0.6778276520833515},{"name":"D5","midi":74,"time":553.3930784999964,"velocity":0.7559055118110236,"duration":0.6778276520833515},{"name":"D4","midi":62,"time":554.1073644999964,"velocity":0.7559055118110236,"duration":0.5260418770832302},{"name":"F4","midi":65,"time":554.1073644999964,"velocity":0.7559055118110236,"duration":0.6778276520832378},{"name":"A4","midi":69,"time":554.1073644999964,"velocity":0.7559055118110236,"duration":0.6778276520832378},{"name":"A3","midi":57,"time":554.2859359999964,"velocity":0.7559055118110236,"duration":0.16889887708327933},{"name":"D4","midi":62,"time":554.4645074999963,"velocity":0.7559055118110236,"duration":0.3206846520832869},{"name":"A3","midi":57,"time":554.6430789999963,"velocity":0.7559055118110236,"duration":0.16889887708327933},{"name":"A3","midi":57,"time":554.8216504999963,"velocity":0.7559055118110236,"duration":1.6956852020833821},{"name":"D4","midi":62,"time":554.8216504999963,"velocity":0.7559055118110236,"duration":1.6956852020833821},{"name":"F4","midi":65,"time":554.8216504999963,"velocity":0.7559055118110236,"duration":1.6956852020833821},{"name":"A4","midi":69,"time":554.8216504999963,"velocity":0.7559055118110236,"duration":1.6956852020833821},{"name":"A3","midi":57,"time":556.6073654999964,"velocity":0.3858267716535433,"duration":1.5260422770833202},{"name":"D4","midi":62,"time":556.6073654999964,"velocity":0.3858267716535433,"duration":1.5260422770833202},{"name":"F4","midi":65,"time":556.6073654999964,"velocity":0.3858267716535433,"duration":1.5260422770833202},{"name":"E4","midi":64,"time":558.2145089999964,"velocity":0.3858267716535433,"duration":0.5081847270832895},{"name":"A3","midi":57,"time":558.7502234999963,"velocity":0.3858267716535433,"duration":1.0171135020833617},{"name":"D4","midi":62,"time":558.7502234999963,"velocity":0.3858267716535433,"duration":1.0171135020833617},{"name":"F4","midi":65,"time":558.7502234999963,"velocity":0.3858267716535433,"duration":1.0171135020833617},{"name":"A3","midi":57,"time":559.8216524999964,"velocity":0.3858267716535433,"duration":1.0171135020833617},{"name":"E4","midi":64,"time":559.8216524999964,"velocity":0.3858267716535433,"duration":1.0171135020833617},{"name":"A#3","midi":58,"time":560.8930814999965,"velocity":0.3858267716535433,"duration":0.5081847270832895},{"name":"D4","midi":62,"time":560.8930814999965,"velocity":0.3858267716535433,"duration":0.5081847270832895},{"name":"E4","midi":64,"time":560.8930814999965,"velocity":0.3858267716535433,"duration":0.5081847270832895},{"name":"A#3","midi":58,"time":561.4287959999964,"velocity":0.3858267716535433,"duration":1.5260422770833202},{"name":"D4","midi":62,"time":561.4287959999964,"velocity":0.3858267716535433,"duration":1.5260422770833202},{"name":"F4","midi":65,"time":561.4287959999964,"velocity":0.3858267716535433,"duration":1.5260422770833202},{"name":"A#3","midi":58,"time":563.0359394999964,"velocity":0.3858267716535433,"duration":1.0171135020833617},{"name":"D4","midi":62,"time":563.0359394999964,"velocity":0.3858267716535433,"duration":1.0171135020833617},{"name":"F4","midi":65,"time":563.0359394999964,"velocity":0.3858267716535433,"duration":1.0171135020833617},{"name":"A#3","midi":58,"time":564.1073684999965,"velocity":0.3858267716535433,"duration":1.0171135020833617},{"name":"D4","midi":62,"time":564.1073684999965,"velocity":0.3858267716535433,"duration":1.0171135020833617},{"name":"G4","midi":67,"time":564.1073684999965,"velocity":0.3858267716535433,"duration":1.0171135020833617},{"name":"A3","midi":57,"time":565.1787974999966,"velocity":0.3858267716535433,"duration":0.5081847270832895},{"name":"D4","midi":62,"time":565.1787974999966,"velocity":0.3858267716535433,"duration":0.5081847270832895},{"name":"G4","midi":67,"time":565.1787974999966,"velocity":0.3858267716535433,"duration":0.5081847270832895},{"name":"A3","midi":57,"time":565.7145119999965,"velocity":0.3858267716535433,"duration":2.543899827083351},{"name":"D4","midi":62,"time":565.7145119999965,"velocity":0.3858267716535433,"duration":2.543899827083351},{"name":"A4","midi":69,"time":565.7145119999965,"velocity":0.3858267716535433,"duration":2.543899827083351},{"name":"A3","midi":57,"time":568.3930844999965,"velocity":0.3858267716535433,"duration":1.0171135020833617},{"name":"D4","midi":62,"time":568.3930844999965,"velocity":0.3858267716535433,"duration":1.0171135020833617},{"name":"F4","midi":65,"time":568.3930844999965,"velocity":0.3858267716535433,"duration":1.0171135020833617},{"name":"C4","midi":60,"time":569.4645134999965,"velocity":0.3858267716535433,"duration":0.5081847270832895},{"name":"F4","midi":65,"time":569.4645134999965,"velocity":0.3858267716535433,"duration":0.5081847270832895},{"name":"G4","midi":67,"time":569.4645134999965,"velocity":0.3858267716535433,"duration":0.5081847270832895},{"name":"C4","midi":60,"time":570.0002279999965,"velocity":0.3858267716535433,"duration":2.543899827083351},{"name":"E4","midi":64,"time":570.0002279999965,"velocity":0.3858267716535433,"duration":2.543899827083351},{"name":"G4","midi":67,"time":570.0002279999965,"velocity":0.3858267716535433,"duration":2.543899827083351},{"name":"C5","midi":72,"time":570.0002279999965,"velocity":0.3858267716535433,"duration":2.543899827083351},{"name":"A3","midi":57,"time":572.6788004999964,"velocity":0.3858267716535433,"duration":0.3385418020833413},{"name":"C4","midi":60,"time":572.6788004999964,"velocity":0.3858267716535433,"duration":0.3385418020833413},{"name":"E4","midi":64,"time":572.6788004999964,"velocity":0.3858267716535433,"duration":0.3385418020833413},{"name":"A3","midi":57,"time":573.0359434999965,"velocity":0.3858267716535433,"duration":0.16889887708327933},{"name":"E4","midi":64,"time":573.2145149999965,"velocity":0.3858267716535433,"duration":0.16889887708327933},{"name":"A3","midi":57,"time":573.3930864999965,"velocity":0.3858267716535433,"duration":1.0171135020833617},{"name":"D4","midi":62,"time":573.3930864999965,"velocity":0.3858267716535433,"duration":1.0171135020833617},{"name":"F4","midi":65,"time":573.3930864999965,"velocity":0.3858267716535433,"duration":1.0171135020833617},{"name":"E4","midi":64,"time":574.4645154999965,"velocity":0.3858267716535433,"duration":0.3385418020833413},{"name":"E4","midi":64,"time":574.8216584999966,"velocity":0.3858267716535433,"duration":0.6778276520832378},{"name":"C5","midi":72,"time":575.1788014999966,"velocity":0.5039370078740157,"duration":0.17782745208330653},{"name":"D5","midi":74,"time":575.3573729999965,"velocity":0.5039370078740157,"duration":0.17782745208330653},{"name":"F5","midi":77,"time":575.5359444999965,"velocity":0.5039370078740157,"duration":0.17782745208330653},{"name":"E4","midi":64,"time":575.5359444999965,"velocity":0.5039370078740157,"duration":0.7135419520832329},{"name":"E5","midi":76,"time":575.7145159999965,"velocity":0.5039370078740157,"duration":0.17782745208330653},{"name":"D5","midi":74,"time":575.8930874999965,"velocity":0.5039370078740157,"duration":0.17782745208330653},{"name":"C5","midi":72,"time":576.0716589999964,"velocity":0.5039370078740157,"duration":0.17782745208330653},{"name":"C5","midi":72,"time":576.2502304999964,"velocity":0.5039370078740157,"duration":0.17782745208330653},{"name":"E4","midi":64,"time":576.2502304999964,"velocity":0.5039370078740157,"duration":0.356398952083282},{"name":"D5","midi":74,"time":576.4288019999964,"velocity":0.5039370078740157,"duration":1.5260422770833202},{"name":"F4","midi":65,"time":576.6073734999964,"velocity":0.5039370078740157,"duration":1.6956852020833821},{"name":"C5","midi":72,"time":578.0359454999964,"velocity":0.5039370078740157,"duration":0.17782745208330653},{"name":"D5","midi":74,"time":578.2145169999964,"velocity":0.5039370078740157,"duration":0.1778274520834202},{"name":"F5","midi":77,"time":578.3930884999965,"velocity":0.5039370078740157,"duration":0.17782745208330653},{"name":"G4","midi":67,"time":578.3930884999965,"velocity":0.5039370078740157,"duration":0.7135419520832329},{"name":"E5","midi":76,"time":578.5716599999964,"velocity":0.5039370078740157,"duration":0.17782745208330653},{"name":"D5","midi":74,"time":578.7502314999964,"velocity":0.5039370078740157,"duration":0.17782745208330653},{"name":"C5","midi":72,"time":578.9288029999964,"velocity":0.5039370078740157,"duration":0.17782745208330653},{"name":"C5","midi":72,"time":579.1073744999964,"velocity":0.5039370078740157,"duration":0.17782745208330653},{"name":"G4","midi":67,"time":579.1073744999964,"velocity":0.5039370078740157,"duration":0.356398952083282},{"name":"D5","midi":74,"time":579.2859459999963,"velocity":0.5039370078740157,"duration":1.5260422770834339},{"name":"A4","midi":69,"time":579.4645174999963,"velocity":0.5039370078740157,"duration":1.0171135020833617},{"name":"A4","midi":69,"time":580.5359464999964,"velocity":0.5039370078740157,"duration":0.6778276520833515},{"name":"C5","midi":72,"time":580.8930894999964,"velocity":0.5039370078740157,"duration":0.17782745208330653},{"name":"D5","midi":74,"time":581.0716609999964,"velocity":0.5039370078740157,"duration":0.17782745208330653},{"name":"F5","midi":77,"time":581.2502324999964,"velocity":0.5039370078740157,"duration":0.17782745208330653},{"name":"F4","midi":65,"time":581.2502324999964,"velocity":0.5039370078740157,"duration":0.7135419520832329},{"name":"E5","midi":76,"time":581.4288039999964,"velocity":0.5039370078740157,"duration":0.17782745208330653},{"name":"D5","midi":74,"time":581.6073754999964,"velocity":0.5039370078740157,"duration":0.17782745208330653},{"name":"C5","midi":72,"time":581.7859469999963,"velocity":0.5039370078740157,"duration":0.17782745208330653},{"name":"D5","midi":74,"time":581.9645184999963,"velocity":0.5039370078740157,"duration":0.17782745208330653},{"name":"G4","midi":67,"time":581.9645184999963,"velocity":0.5039370078740157,"duration":0.356398952083282},{"name":"E5","midi":76,"time":582.1430899999963,"velocity":0.5039370078740157,"duration":1.5260422770833202},{"name":"C5","midi":72,"time":582.3216614999963,"velocity":0.5039370078740157,"duration":1.356399352083372},{"name":"C5","midi":72,"time":583.7502334999963,"velocity":0.5039370078740157,"duration":0.16889887708327933},{"name":"E4","midi":64,"time":583.7502334999963,"velocity":0.5039370078740157,"duration":0.3385418020833413},{"name":"D5","midi":74,"time":583.9288049999963,"velocity":0.5039370078740157,"duration":0.16889887708339302},{"name":"F5","midi":77,"time":584.1073764999963,"velocity":0.5039370078740157,"duration":0.16889887708327933},{"name":"E4","midi":64,"time":584.1073764999963,"velocity":0.5039370078740157,"duration":0.6778276520832378},{"name":"E5","midi":76,"time":584.2859479999963,"velocity":0.5039370078740157,"duration":0.16889887708327933},{"name":"D5","midi":74,"time":584.4645194999963,"velocity":0.5039370078740157,"duration":0.16889887708327933},{"name":"C5","midi":72,"time":584.6430909999963,"velocity":0.5039370078740157,"duration":0.16889887708327933},{"name":"F4","midi":65,"time":584.8216624999963,"velocity":0.5039370078740157,"duration":0.6778276520833515},{"name":"A4","midi":69,"time":584.8216624999963,"velocity":0.5039370078740157,"duration":0.6778276520833515},{"name":"D5","midi":74,"time":584.8216624999963,"velocity":0.5039370078740157,"duration":0.6778276520833515},{"name":"D4","midi":62,"time":585.5359484999963,"velocity":0.5039370078740157,"duration":0.1123512354166678},{"name":"E4","midi":64,"time":585.654996166663,"velocity":0.5039370078740157,"duration":0.1123512354166678},{"name":"A4","midi":69,"time":585.7740438333296,"velocity":0.5039370078740157,"duration":0.1123512354166678},{"name":"C5","midi":72,"time":585.8930914999963,"velocity":0.5039370078740157,"duration":0.1123512354166678},{"name":"A4","midi":69,"time":586.012139166663,"velocity":0.5039370078740157,"duration":0.1123512354166678},{"name":"E4","midi":64,"time":586.1311868333297,"velocity":0.5039370078740157,"duration":0.1123512354166678},{"name":"C4","midi":60,"time":586.6073774999963,"velocity":0.8818897637795275,"duration":0.16889887708327933},{"name":"F4","midi":65,"time":586.6073774999963,"velocity":0.8818897637795275,"duration":0.16889887708327933},{"name":"A4","midi":69,"time":586.6073774999963,"velocity":0.8818897637795275,"duration":0.16889887708327933},{"name":"C5","midi":72,"time":586.6073774999963,"velocity":0.8818897637795275,"duration":0.16889887708327933},{"name":"D4","midi":62,"time":586.7859489999963,"velocity":0.8818897637795275,"duration":0.16889887708327933},{"name":"D5","midi":74,"time":586.7859489999963,"velocity":0.8818897637795275,"duration":0.16889887708327933},{"name":"F4","midi":65,"time":586.9645204999963,"velocity":0.8818897637795275,"duration":0.16889887708327933},{"name":"F5","midi":77,"time":586.9645204999963,"velocity":0.8818897637795275,"duration":0.16889887708327933},{"name":"E4","midi":64,"time":587.1430919999963,"velocity":0.8818897637795275,"duration":0.16889887708327933},{"name":"E5","midi":76,"time":587.1430919999963,"velocity":0.8818897637795275,"duration":0.16889887708327933},{"name":"D4","midi":62,"time":587.3216634999962,"velocity":0.8818897637795275,"duration":0.16889887708327933},{"name":"D5","midi":74,"time":587.3216634999962,"velocity":0.8818897637795275,"duration":0.16889887708327933},{"name":"C4","midi":60,"time":587.5002349999962,"velocity":0.8818897637795275,"duration":0.16889887708327933},{"name":"C5","midi":72,"time":587.5002349999962,"velocity":0.8818897637795275,"duration":0.16889887708327933},{"name":"C4","midi":60,"time":587.6788064999962,"velocity":0.8818897637795275,"duration":0.16889887708327933},{"name":"F4","midi":65,"time":587.6788064999962,"velocity":0.8818897637795275,"duration":0.16889887708327933},{"name":"C5","midi":72,"time":587.6788064999962,"velocity":0.8818897637795275,"duration":0.16889887708327933},{"name":"D4","midi":62,"time":587.8573779999962,"velocity":0.8818897637795275,"duration":0.5081847270832895},{"name":"F4","midi":65,"time":587.8573779999962,"velocity":0.8818897637795275,"duration":0.5081847270832895},{"name":"A#4","midi":70,"time":587.8573779999962,"velocity":0.8818897637795275,"duration":0.5081847270832895},{"name":"D5","midi":74,"time":587.8573779999962,"velocity":0.8818897637795275,"duration":0.5081847270832895},{"name":"E4","midi":64,"time":588.3930924999961,"velocity":0.8818897637795275,"duration":0.11830361875001927},{"name":"F4","midi":65,"time":588.5121401666628,"velocity":0.8818897637795275,"duration":0.11830361875001927},{"name":"E4","midi":64,"time":588.6311878333295,"velocity":0.8818897637795275,"duration":0.11830361875001927},{"name":"D4","midi":62,"time":588.7502354999962,"velocity":0.8818897637795275,"duration":0.11830361875001927},{"name":"A#3","midi":58,"time":588.8692831666629,"velocity":0.8818897637795275,"duration":0.11830361875001927},{"name":"F3","midi":53,"time":588.9883308333295,"velocity":0.8818897637795275,"duration":0.11830361875001927},{"name":"C4","midi":60,"time":589.4645214999962,"velocity":0.8818897637795275,"duration":0.16889887708327933},{"name":"F4","midi":65,"time":589.4645214999962,"velocity":0.8818897637795275,"duration":0.16889887708327933},{"name":"C5","midi":72,"time":589.4645214999962,"velocity":0.8818897637795275,"duration":0.16889887708327933},{"name":"D4","midi":62,"time":589.6430929999962,"velocity":0.8818897637795275,"duration":0.16889887708327933},{"name":"D5","midi":74,"time":589.6430929999962,"velocity":0.8818897637795275,"duration":0.16889887708327933},{"name":"F4","midi":65,"time":589.8216644999961,"velocity":0.8818897637795275,"duration":0.16889887708327933},{"name":"F5","midi":77,"time":589.8216644999961,"velocity":0.8818897637795275,"duration":0.16889887708327933},{"name":"E4","midi":64,"time":590.0002359999961,"velocity":0.8818897637795275,"duration":0.16889887708327933},{"name":"E5","midi":76,"time":590.0002359999961,"velocity":0.8818897637795275,"duration":0.16889887708327933},{"name":"D4","midi":62,"time":590.1788074999961,"velocity":0.8818897637795275,"duration":0.16889887708327933},{"name":"D5","midi":74,"time":590.1788074999961,"velocity":0.8818897637795275,"duration":0.16889887708327933},{"name":"C4","midi":60,"time":590.3573789999961,"velocity":0.8818897637795275,"duration":0.16889887708327933},{"name":"C5","midi":72,"time":590.3573789999961,"velocity":0.8818897637795275,"duration":0.16889887708327933},{"name":"C4","midi":60,"time":590.535950499996,"velocity":0.8818897637795275,"duration":0.16889887708327933},{"name":"E4","midi":64,"time":590.535950499996,"velocity":0.8818897637795275,"duration":0.16889887708327933},{"name":"G4","midi":67,"time":590.535950499996,"velocity":0.8818897637795275,"duration":0.16889887708327933},{"name":"C5","midi":72,"time":590.535950499996,"velocity":0.8818897637795275,"duration":0.16889887708327933},{"name":"D4","midi":62,"time":590.714521999996,"velocity":0.8818897637795275,"duration":0.3385418020833413},{"name":"F4","midi":65,"time":590.714521999996,"velocity":0.8818897637795275,"duration":0.3385418020833413},{"name":"A4","midi":69,"time":590.714521999996,"velocity":0.8818897637795275,"duration":0.3385418020833413},{"name":"D5","midi":74,"time":590.714521999996,"velocity":0.8818897637795275,"duration":0.3385418020833413},{"name":"D4","midi":62,"time":591.0716649999961,"velocity":0.8818897637795275,"duration":0.16889887708327933},{"name":"D4","midi":62,"time":591.250236499996,"velocity":0.8818897637795275,"duration":0.3385418020833413},{"name":"F4","midi":65,"time":591.250236499996,"velocity":0.8818897637795275,"duration":0.3385418020833413},{"name":"A4","midi":69,"time":591.250236499996,"velocity":0.8818897637795275,"duration":0.3385418020833413},{"name":"D4","midi":62,"time":591.6073794999961,"velocity":0.8818897637795275,"duration":0.3385418020833413},{"name":"F4","midi":65,"time":591.6073794999961,"velocity":0.8818897637795275,"duration":0.3385418020833413},{"name":"A4","midi":69,"time":591.6073794999961,"velocity":0.8818897637795275,"duration":0.3385418020833413},{"name":"F4","midi":65,"time":591.9645224999962,"velocity":0.8818897637795275,"duration":0.3385418020833413},{"name":"A4","midi":69,"time":591.9645224999962,"velocity":0.8818897637795275,"duration":0.3385418020833413},{"name":"D5","midi":74,"time":591.9645224999962,"velocity":0.8818897637795275,"duration":0.3385418020833413},{"name":"F5","midi":77,"time":591.9645224999962,"velocity":0.8818897637795275,"duration":0.3385418020833413},{"name":"F4","midi":65,"time":592.3216654999962,"velocity":0.8818897637795275,"duration":0.3385418020833413},{"name":"E4","midi":64,"time":592.6788084999963,"velocity":0.8818897637795275,"duration":0.6778276520833515},{"name":"A4","midi":69,"time":592.6788084999963,"velocity":0.8818897637795275,"duration":0.6778276520833515},{"name":"E5","midi":76,"time":592.6788084999963,"velocity":0.8818897637795275,"duration":0.6778276520833515},{"name":"E4","midi":64,"time":593.3930944999963,"velocity":0.8818897637795275,"duration":0.3385418020833413},{"name":"F4","midi":65,"time":593.3930944999963,"velocity":0.8818897637795275,"duration":0.3385418020833413},{"name":"A#4","midi":70,"time":593.3930944999963,"velocity":0.8818897637795275,"duration":0.3385418020833413},{"name":"E5","midi":76,"time":593.3930944999963,"velocity":0.8818897637795275,"duration":0.3385418020833413},{"name":"E4","midi":64,"time":593.7502374999964,"velocity":0.8818897637795275,"duration":0.11830361875001927},{"name":"F4","midi":65,"time":593.8692851666631,"velocity":0.8818897637795275,"duration":0.11830361875001927},{"name":"A#4","midi":70,"time":593.9883328333298,"velocity":0.8818897637795275,"duration":0.11830361875001927},{"name":"D4","midi":62,"time":594.1073804999965,"velocity":0.8818897637795275,"duration":0.6778276520833515},{"name":"D5","midi":74,"time":594.1073804999965,"velocity":0.8818897637795275,"duration":0.6778276520833515},{"name":"C4","midi":60,"time":594.8216664999965,"velocity":0.8818897637795275,"duration":0.6778276520833515},{"name":"F4","midi":65,"time":594.8216664999965,"velocity":0.8818897637795275,"duration":0.6778276520833515},{"name":"A#4","midi":70,"time":594.8216664999965,"velocity":0.8818897637795275,"duration":0.6778276520833515},{"name":"C5","midi":72,"time":594.8216664999965,"velocity":0.8818897637795275,"duration":0.6778276520833515},{"name":"D4","midi":62,"time":595.5359524999965,"velocity":0.8818897637795275,"duration":0.5647323687500148},{"name":"F4","midi":65,"time":595.5359524999965,"velocity":0.8818897637795275,"duration":0.5647323687500148},{"name":"A#4","midi":70,"time":595.5359524999965,"velocity":0.8818897637795275,"duration":0.5647323687500148},{"name":"D5","midi":74,"time":595.5359524999965,"velocity":0.8818897637795275,"duration":0.5647323687500148},{"name":"F4","midi":65,"time":596.1311908333298,"velocity":0.8818897637795275,"duration":0.1123512354166678},{"name":"C4","midi":60,"time":596.2502384999965,"velocity":0.8818897637795275,"duration":0.3385418020833413},{"name":"F4","midi":65,"time":596.2502384999965,"velocity":0.8818897637795275,"duration":0.3385418020833413},{"name":"A4","midi":69,"time":596.2502384999965,"velocity":0.8818897637795275,"duration":0.3385418020833413},{"name":"C5","midi":72,"time":596.2502384999965,"velocity":0.8818897637795275,"duration":0.3385418020833413},{"name":"C4","midi":60,"time":596.6073814999966,"velocity":0.8818897637795275,"duration":1.0171135020833617},{"name":"F4","midi":65,"time":596.6073814999966,"velocity":0.8818897637795275,"duration":1.0171135020833617},{"name":"A4","midi":69,"time":596.6073814999966,"velocity":0.8818897637795275,"duration":1.0171135020833617},{"name":"A4","midi":69,"time":597.6788104999966,"velocity":0.8818897637795275,"duration":0.6778276520833515},{"name":"C5","midi":72,"time":597.6788104999966,"velocity":0.8818897637795275,"duration":0.6778276520833515},{"name":"F5","midi":77,"time":597.6788104999966,"velocity":0.8818897637795275,"duration":0.6778276520833515},{"name":"A5","midi":81,"time":597.6788104999966,"velocity":0.8818897637795275,"duration":0.6778276520833515},{"name":"A4","midi":69,"time":598.3930964999967,"velocity":0.8818897637795275,"duration":0.6778276520833515},{"name":"C5","midi":72,"time":598.3930964999967,"velocity":0.8818897637795275,"duration":0.6778276520833515},{"name":"F5","midi":77,"time":598.3930964999967,"velocity":0.8818897637795275,"duration":0.6778276520833515},{"name":"A5","midi":81,"time":598.3930964999967,"velocity":0.8818897637795275,"duration":0.6778276520833515},{"name":"G4","midi":67,"time":599.1073824999967,"velocity":0.8818897637795275,"duration":0.6778276520833515},{"name":"C5","midi":72,"time":599.1073824999967,"velocity":0.8818897637795275,"duration":0.6778276520833515},{"name":"F5","midi":77,"time":599.1073824999967,"velocity":0.8818897637795275,"duration":0.6778276520833515},{"name":"G5","midi":79,"time":599.1073824999967,"velocity":0.8818897637795275,"duration":0.6778276520833515},{"name":"C5","midi":72,"time":599.8216684999967,"velocity":0.8818897637795275,"duration":0.6778276520833515},{"name":"E5","midi":76,"time":599.8216684999967,"velocity":0.8818897637795275,"duration":0.6778276520833515},{"name":"G5","midi":79,"time":599.8216684999967,"velocity":0.8818897637795275,"duration":0.6778276520833515},{"name":"C6","midi":84,"time":599.8216684999967,"velocity":0.8818897637795275,"duration":0.6778276520833515},{"name":"E4","midi":64,"time":600.5359544999967,"velocity":0.8818897637795275,"duration":1.0171135020833617},{"name":"A4","midi":69,"time":600.5359544999967,"velocity":0.8818897637795275,"duration":1.0171135020833617},{"name":"C5","midi":72,"time":600.5359544999967,"velocity":0.8818897637795275,"duration":1.0171135020833617},{"name":"E5","midi":76,"time":600.5359544999967,"velocity":0.8818897637795275,"duration":1.0171135020833617},{"name":"C4","midi":60,"time":601.6073834999968,"velocity":0.8818897637795275,"duration":0.3385418020833413},{"name":"E4","midi":64,"time":601.6073834999968,"velocity":0.8818897637795275,"duration":0.3385418020833413},{"name":"A4","midi":69,"time":601.6073834999968,"velocity":0.8818897637795275,"duration":0.3385418020833413},{"name":"C5","midi":72,"time":601.6073834999968,"velocity":0.8818897637795275,"duration":0.3385418020833413},{"name":"D4","midi":62,"time":601.9645264999969,"velocity":0.8818897637795275,"duration":0.6778276520833515},{"name":"F4","midi":65,"time":601.9645264999969,"velocity":0.8818897637795275,"duration":0.6778276520833515},{"name":"A4","midi":69,"time":601.9645264999969,"velocity":0.8818897637795275,"duration":0.6778276520833515},{"name":"D5","midi":74,"time":601.9645264999969,"velocity":0.8818897637795275,"duration":0.6778276520833515},{"name":"A3","midi":57,"time":602.6788124999969,"velocity":0.8818897637795275,"duration":0.6778276520833515},{"name":"D4","midi":62,"time":602.6788124999969,"velocity":0.8818897637795275,"duration":0.6778276520833515},{"name":"F4","midi":65,"time":602.6788124999969,"velocity":0.8818897637795275,"duration":0.6778276520833515},{"name":"A4","midi":69,"time":602.6788124999969,"velocity":0.8818897637795275,"duration":0.6778276520833515},{"name":"F4","midi":65,"time":603.3930984999969,"velocity":0.8818897637795275,"duration":1.0171135020833617},{"name":"A4","midi":69,"time":603.3930984999969,"velocity":0.8818897637795275,"duration":1.0171135020833617},{"name":"C5","midi":72,"time":603.3930984999969,"velocity":0.8818897637795275,"duration":1.0171135020833617},{"name":"F5","midi":77,"time":603.3930984999969,"velocity":0.8818897637795275,"duration":1.0171135020833617},{"name":"E4","midi":64,"time":604.464527499997,"velocity":0.8818897637795275,"duration":0.3385418020833413},{"name":"A4","midi":69,"time":604.464527499997,"velocity":0.8818897637795275,"duration":0.3385418020833413},{"name":"C5","midi":72,"time":604.464527499997,"velocity":0.8818897637795275,"duration":0.3385418020833413},{"name":"E5","midi":76,"time":604.464527499997,"velocity":0.8818897637795275,"duration":0.3385418020833413},{"name":"E4","midi":64,"time":604.821670499997,"velocity":0.8818897637795275,"duration":0.6778276520833515},{"name":"F4","midi":65,"time":604.821670499997,"velocity":0.8818897637795275,"duration":0.6778276520833515},{"name":"A#4","midi":70,"time":604.821670499997,"velocity":0.8818897637795275,"duration":0.6778276520833515},{"name":"E5","midi":76,"time":604.821670499997,"velocity":0.8818897637795275,"duration":0.6778276520833515},{"name":"D4","midi":62,"time":605.535956499997,"velocity":0.8818897637795275,"duration":0.6778276520833515},{"name":"F4","midi":65,"time":605.535956499997,"velocity":0.8818897637795275,"duration":0.6778276520833515},{"name":"A#4","midi":70,"time":605.535956499997,"velocity":0.8818897637795275,"duration":0.6778276520833515},{"name":"D5","midi":74,"time":605.535956499997,"velocity":0.8818897637795275,"duration":0.6778276520833515},{"name":"C4","midi":60,"time":606.2502424999971,"velocity":0.8818897637795275,"duration":0.6778276520833515},{"name":"F4","midi":65,"time":606.2502424999971,"velocity":0.8818897637795275,"duration":0.6778276520833515},{"name":"A#4","midi":70,"time":606.2502424999971,"velocity":0.8818897637795275,"duration":0.6778276520833515},{"name":"C5","midi":72,"time":606.2502424999971,"velocity":0.8818897637795275,"duration":0.6778276520833515},{"name":"D4","midi":62,"time":606.9645284999971,"velocity":0.8818897637795275,"duration":0.6778276520833515},{"name":"F4","midi":65,"time":606.9645284999971,"velocity":0.8818897637795275,"duration":0.6778276520833515},{"name":"A#4","midi":70,"time":606.9645284999971,"velocity":0.8818897637795275,"duration":0.6778276520833515},{"name":"D5","midi":74,"time":606.9645284999971,"velocity":0.8818897637795275,"duration":0.6778276520833515},{"name":"C4","midi":60,"time":607.6788144999971,"velocity":0.8818897637795275,"duration":0.6778276520833515},{"name":"F4","midi":65,"time":607.6788144999971,"velocity":0.8818897637795275,"duration":0.6778276520833515},{"name":"A4","midi":69,"time":607.6788144999971,"velocity":0.8818897637795275,"duration":0.6778276520833515},{"name":"C5","midi":72,"time":607.6788144999971,"velocity":0.8818897637795275,"duration":0.6778276520833515},{"name":"A4","midi":69,"time":608.3931004999971,"velocity":0.8818897637795275,"duration":1.356399352083372},{"name":"C5","midi":72,"time":608.3931004999971,"velocity":0.8818897637795275,"duration":1.356399352083372},{"name":"F5","midi":77,"time":608.3931004999971,"velocity":0.8818897637795275,"duration":1.356399352083372},{"name":"A5","midi":81,"time":608.3931004999971,"velocity":0.8818897637795275,"duration":1.356399352083372},{"name":"A4","midi":69,"time":609.8216724999971,"velocity":0.8818897637795275,"duration":0.6778276520833515},{"name":"C5","midi":72,"time":609.8216724999971,"velocity":0.8818897637795275,"duration":0.6778276520833515},{"name":"F5","midi":77,"time":609.8216724999971,"velocity":0.8818897637795275,"duration":0.6778276520833515},{"name":"A5","midi":81,"time":609.8216724999971,"velocity":0.8818897637795275,"duration":0.6778276520833515},{"name":"G4","midi":67,"time":610.5359584999972,"velocity":0.8818897637795275,"duration":0.6778276520833515},{"name":"C5","midi":72,"time":610.5359584999972,"velocity":0.8818897637795275,"duration":0.6778276520833515},{"name":"F5","midi":77,"time":610.5359584999972,"velocity":0.8818897637795275,"duration":0.6778276520833515},{"name":"G5","midi":79,"time":610.5359584999972,"velocity":0.8818897637795275,"duration":0.6778276520833515},{"name":"C5","midi":72,"time":611.2502444999972,"velocity":0.8818897637795275,"duration":0.6778276520833515},{"name":"E5","midi":76,"time":611.2502444999972,"velocity":0.8818897637795275,"duration":0.6778276520833515},{"name":"G5","midi":79,"time":611.2502444999972,"velocity":0.8818897637795275,"duration":0.6778276520833515},{"name":"C6","midi":84,"time":611.2502444999972,"velocity":0.8818897637795275,"duration":0.6778276520833515},{"name":"A4","midi":69,"time":611.9645304999972,"velocity":0.8818897637795275,"duration":1.0171135020833617},{"name":"C5","midi":72,"time":611.9645304999972,"velocity":0.8818897637795275,"duration":1.0171135020833617},{"name":"E5","midi":76,"time":611.9645304999972,"velocity":0.8818897637795275,"duration":1.0171135020833617},{"name":"C4","midi":60,"time":613.0359594999973,"velocity":0.8818897637795275,"duration":0.3385418020833413},{"name":"E4","midi":64,"time":613.0359594999973,"velocity":0.8818897637795275,"duration":0.3385418020833413},{"name":"A4","midi":69,"time":613.0359594999973,"velocity":0.8818897637795275,"duration":0.3385418020833413},{"name":"C5","midi":72,"time":613.0359594999973,"velocity":0.8818897637795275,"duration":0.3385418020833413},{"name":"D4","midi":62,"time":613.3931024999973,"velocity":0.8818897637795275,"duration":0.7090776645834467},{"name":"F4","midi":65,"time":613.3931024999973,"velocity":0.8818897637795275,"duration":0.7700895937501855},{"name":"A#4","midi":70,"time":613.3931024999973,"velocity":0.8818897637795275,"duration":0.8296134270835864},{"name":"D5","midi":74,"time":613.3931024999973,"velocity":0.8818897637795275,"duration":0.8891372604169874},{"name":"D3","midi":50,"time":613.7502454999973,"velocity":0.8818897637795275,"duration":0.08407741458336204},{"name":"F3","midi":53,"time":613.8395312499973,"velocity":0.8818897637795275,"duration":0.08407741458336204},{"name":"A#3","midi":58,"time":613.9288169999974,"velocity":0.8818897637795275,"duration":0.08407741458336204},{"name":"D4","midi":62,"time":614.0181027499974,"velocity":0.8818897637795275,"duration":0.7313991020840831},{"name":"F4","midi":65,"time":614.1073884999975,"velocity":0.8818897637795275,"duration":0.6421133520840385},{"name":"A#4","midi":70,"time":614.1669123333309,"velocity":0.8818897637795275,"duration":0.5319942604172638},{"name":"D5","midi":74,"time":614.2264361666643,"velocity":0.8818897637795275,"duration":0.41294659375046194},{"name":"F5","midi":77,"time":614.2859599999977,"velocity":0.8818897637795275,"duration":0.05580359375005628},{"name":"A#5","midi":82,"time":614.3454838333311,"velocity":0.8818897637795275,"duration":0.05580359375005628},{"name":"D6","midi":86,"time":614.4050076666645,"velocity":0.8818897637795275,"duration":0.05580359375005628},{"name":"A#5","midi":82,"time":614.4645314999979,"velocity":0.8818897637795275,"duration":0.05580359375005628},{"name":"F5","midi":77,"time":614.5240553333313,"velocity":0.8818897637795275,"duration":0.05580359375005628},{"name":"D5","midi":74,"time":614.5835791666647,"velocity":0.8818897637795275,"duration":0.16592268541683097},{"name":"A#4","midi":70,"time":614.6431029999981,"velocity":0.8818897637795275,"duration":0.10639885208343003},{"name":"F4","midi":65,"time":614.7026268333315,"velocity":0.8818897637795275,"duration":0.05580359375005628},{"name":"D4","midi":62,"time":614.7621506666649,"velocity":0.8818897637795275,"duration":0.05580359375005628},{"name":"C5","midi":72,"time":615.1788174999982,"velocity":0.8818897637795275,"duration":0.16889887708327933},{"name":"D5","midi":74,"time":615.1788174999982,"velocity":0.8818897637795275,"duration":0.16889887708327933},{"name":"F5","midi":77,"time":615.1788174999982,"velocity":0.8818897637795275,"duration":0.16889887708327933},{"name":"C6","midi":84,"time":615.1788174999982,"velocity":0.8818897637795275,"duration":0.16889887708327933},{"name":"D5","midi":74,"time":615.3573889999982,"velocity":0.8818897637795275,"duration":0.16889887708327933},{"name":"D6","midi":86,"time":615.3573889999982,"velocity":0.8818897637795275,"duration":0.16889887708327933},{"name":"F5","midi":77,"time":615.5359604999982,"velocity":0.8818897637795275,"duration":0.16889887708327933},{"name":"F6","midi":89,"time":615.5359604999982,"velocity":0.8818897637795275,"duration":0.16889887708327933},{"name":"E5","midi":76,"time":615.7145319999981,"velocity":0.8818897637795275,"duration":0.16889887708327933},{"name":"E6","midi":88,"time":615.7145319999981,"velocity":0.8818897637795275,"duration":0.16889887708327933},{"name":"D5","midi":74,"time":615.8931034999981,"velocity":0.8818897637795275,"duration":0.16889887708327933},{"name":"D6","midi":86,"time":615.8931034999981,"velocity":0.8818897637795275,"duration":0.16889887708327933},{"name":"C5","midi":72,"time":616.0716749999981,"velocity":0.8818897637795275,"duration":0.16889887708327933},{"name":"C6","midi":84,"time":616.0716749999981,"velocity":0.8818897637795275,"duration":0.16889887708327933},{"name":"C5","midi":72,"time":616.2502464999981,"velocity":0.8818897637795275,"duration":0.16889887708327933},{"name":"F5","midi":77,"time":616.2502464999981,"velocity":0.8818897637795275,"duration":0.16889887708327933},{"name":"A5","midi":81,"time":616.2502464999981,"velocity":0.8818897637795275,"duration":0.16889887708327933},{"name":"C6","midi":84,"time":616.2502464999981,"velocity":0.8818897637795275,"duration":0.16889887708327933},{"name":"D5","midi":74,"time":616.428817999998,"velocity":0.8818897637795275,"duration":0.16889887708327933},{"name":"F5","midi":77,"time":616.428817999998,"velocity":0.8818897637795275,"duration":0.16889887708327933},{"name":"A5","midi":81,"time":616.428817999998,"velocity":0.8818897637795275,"duration":0.16889887708327933},{"name":"D6","midi":86,"time":616.428817999998,"velocity":0.8818897637795275,"duration":0.16889887708327933},{"name":"D3","midi":50,"time":616.658728806248,"velocity":0.8818897637795275,"duration":0.04761906666669802},{"name":"F3","midi":53,"time":616.710068112498,"velocity":0.8818897637795275,"duration":0.04761906666669802},{"name":"A3","midi":57,"time":616.761407418748,"velocity":0.8818897637795275,"duration":0.04761906666669802},{"name":"D4","midi":62,"time":616.8127467249981,"velocity":0.8818897637795275,"duration":0.04761906666669802},{"name":"F4","midi":65,"time":616.8640860312481,"velocity":0.8818897637795275,"duration":0.04761906666669802},{"name":"A4","midi":69,"time":616.9154253374982,"velocity":0.8818897637795275,"duration":0.04761906666669802},{"name":"D5","midi":74,"time":616.9645324999982,"velocity":0.8818897637795275,"duration":0.05580359375005628},{"name":"F5","midi":77,"time":617.0240563333316,"velocity":0.8818897637795275,"duration":0.05580359375005628},{"name":"A5","midi":81,"time":617.083580166665,"velocity":0.8818897637795275,"duration":0.05580359375005628},{"name":"D6","midi":86,"time":617.1431039999984,"velocity":0.8818897637795275,"duration":0.05580359375005628},{"name":"A5","midi":81,"time":617.2026278333318,"velocity":0.8818897637795275,"duration":0.05580359375005628},{"name":"F5","midi":77,"time":617.2621516666652,"velocity":0.8818897637795275,"duration":0.05580359375005628},{"name":"D5","midi":74,"time":617.3216754999986,"velocity":0.8818897637795275,"duration":0.06696431249997659},{"name":"A#4","midi":70,"time":617.3931040999986,"velocity":0.8818897637795275,"duration":0.06696431249997659},{"name":"G4","midi":67,"time":617.4645326999986,"velocity":0.8818897637795275,"duration":0.06696431249997659},{"name":"E4","midi":64,"time":617.5359612999986,"velocity":0.8818897637795275,"duration":0.06696431249997659},{"name":"D4","midi":62,"time":617.6073898999986,"velocity":0.8818897637795275,"duration":0.06696431249997659},{"name":"C4","midi":60,"time":618.0359614999985,"velocity":0.8818897637795275,"duration":0.16889887708327933},{"name":"F4","midi":65,"time":618.0359614999985,"velocity":0.8818897637795275,"duration":0.16889887708327933},{"name":"A4","midi":69,"time":618.0359614999985,"velocity":0.8818897637795275,"duration":0.16889887708327933},{"name":"C5","midi":72,"time":618.0359614999985,"velocity":0.8818897637795275,"duration":0.16889887708327933},{"name":"D4","midi":62,"time":618.2145329999985,"velocity":0.8818897637795275,"duration":0.16889887708327933},{"name":"D5","midi":74,"time":618.2145329999985,"velocity":0.8818897637795275,"duration":0.16889887708327933},{"name":"F4","midi":65,"time":618.3931044999985,"velocity":0.8818897637795275,"duration":0.16889887708327933},{"name":"F5","midi":77,"time":618.3931044999985,"velocity":0.8818897637795275,"duration":0.16889887708327933},{"name":"E4","midi":64,"time":618.5716759999984,"velocity":0.8818897637795275,"duration":0.16889887708327933},{"name":"E5","midi":76,"time":618.5716759999984,"velocity":0.8818897637795275,"duration":0.16889887708327933},{"name":"D4","midi":62,"time":618.7502474999984,"velocity":0.8818897637795275,"duration":0.16889887708327933},{"name":"D5","midi":74,"time":618.7502474999984,"velocity":0.8818897637795275,"duration":0.16889887708327933},{"name":"C4","midi":60,"time":618.9288189999984,"velocity":0.8818897637795275,"duration":0.16889887708327933},{"name":"C5","midi":72,"time":618.9288189999984,"velocity":0.8818897637795275,"duration":0.16889887708327933},{"name":"C4","midi":60,"time":619.1073904999984,"velocity":0.8818897637795275,"duration":0.16889887708327933},{"name":"F4","midi":65,"time":619.1073904999984,"velocity":0.8818897637795275,"duration":0.16889887708327933},{"name":"C5","midi":72,"time":619.1073904999984,"velocity":0.8818897637795275,"duration":0.16889887708327933},{"name":"D4","midi":62,"time":619.2859619999983,"velocity":0.8818897637795275,"duration":0.16889887708327933},{"name":"F4","midi":65,"time":619.2859619999983,"velocity":0.8818897637795275,"duration":0.16889887708327933},{"name":"A#4","midi":70,"time":619.2859619999983,"velocity":0.8818897637795275,"duration":0.16889887708327933},{"name":"D5","midi":74,"time":619.2859619999983,"velocity":0.8818897637795275,"duration":0.16889887708327933},{"name":"D3","midi":50,"time":619.5538192499982,"velocity":0.8818897637795275,"duration":0.08407741458336204},{"name":"F3","midi":53,"time":619.6431049999983,"velocity":0.8818897637795275,"duration":0.08407741458336204},{"name":"A#3","midi":58,"time":619.7323907499983,"velocity":0.8818897637795275,"duration":0.08407741458336204},{"name":"D4","midi":62,"time":619.8216764999984,"velocity":0.8818897637795275,"duration":0.05580359375005628},{"name":"F4","midi":65,"time":619.8812003333318,"velocity":0.8818897637795275,"duration":0.05580359375005628},{"name":"A#4","midi":70,"time":619.9407241666652,"velocity":0.8818897637795275,"duration":0.05580359375005628},{"name":"D5","midi":74,"time":620.0002479999986,"velocity":0.8818897637795275,"duration":0.05580359375005628},{"name":"F5","midi":77,"time":620.059771833332,"velocity":0.8818897637795275,"duration":0.05580359375005628},{"name":"A#5","midi":82,"time":620.1192956666654,"velocity":0.8818897637795275,"duration":0.05580359375005628},{"name":"D6","midi":86,"time":620.1788194999988,"velocity":0.8818897637795275,"duration":0.04761906666669802},{"name":"A#5","midi":82,"time":620.2301588062488,"velocity":0.8818897637795275,"duration":0.04761906666669802},{"name":"F5","midi":77,"time":620.2814981124989,"velocity":0.8818897637795275,"duration":0.04761906666669802},{"name":"D5","midi":74,"time":620.3328374187489,"velocity":0.8818897637795275,"duration":0.04761906666669802},{"name":"A#4","midi":70,"time":620.384176724999,"velocity":0.8818897637795275,"duration":0.04761906666669802},{"name":"F4","midi":65,"time":620.435516031249,"velocity":0.8818897637795275,"duration":0.04761906666669802},{"name":"D4","midi":62,"time":620.486855337499,"velocity":0.8818897637795275,"duration":0.04761906666669802},{"name":"C5","midi":72,"time":620.893105499999,"velocity":0.8818897637795275,"duration":0.16889887708327933},{"name":"F5","midi":77,"time":620.893105499999,"velocity":0.8818897637795275,"duration":0.16889887708327933},{"name":"C6","midi":84,"time":620.893105499999,"velocity":0.8818897637795275,"duration":0.16889887708327933},{"name":"D5","midi":74,"time":621.071676999999,"velocity":0.8818897637795275,"duration":0.16889887708327933},{"name":"D6","midi":86,"time":621.071676999999,"velocity":0.8818897637795275,"duration":0.16889887708327933},{"name":"F5","midi":77,"time":621.250248499999,"velocity":0.8818897637795275,"duration":0.16889887708327933},{"name":"F6","midi":89,"time":621.250248499999,"velocity":0.8818897637795275,"duration":0.16889887708327933},{"name":"E5","midi":76,"time":621.428819999999,"velocity":0.8818897637795275,"duration":0.16889887708327933},{"name":"E6","midi":88,"time":621.428819999999,"velocity":0.8818897637795275,"duration":0.16889887708327933},{"name":"D5","midi":74,"time":621.6073914999989,"velocity":0.8818897637795275,"duration":0.16889887708327933},{"name":"D6","midi":86,"time":621.6073914999989,"velocity":0.8818897637795275,"duration":0.16889887708327933},{"name":"C5","midi":72,"time":621.7859629999989,"velocity":0.8818897637795275,"duration":0.16889887708327933},{"name":"C6","midi":84,"time":621.7859629999989,"velocity":0.8818897637795275,"duration":0.16889887708327933},{"name":"C5","midi":72,"time":621.9645344999989,"velocity":0.8818897637795275,"duration":0.16889887708327933},{"name":"F5","midi":77,"time":621.9645344999989,"velocity":0.8818897637795275,"duration":0.16889887708327933},{"name":"C6","midi":84,"time":621.9645344999989,"velocity":0.8818897637795275,"duration":0.16889887708327933},{"name":"D5","midi":74,"time":622.1431059999989,"velocity":0.8818897637795275,"duration":0.16889887708327933},{"name":"F5","midi":77,"time":622.1431059999989,"velocity":0.8818897637795275,"duration":0.16889887708327933},{"name":"A5","midi":81,"time":622.1431059999989,"velocity":0.8818897637795275,"duration":0.16889887708327933},{"name":"D6","midi":86,"time":622.1431059999989,"velocity":0.8818897637795275,"duration":0.16889887708327933},{"name":"D2","midi":38,"time":622.3216774999988,"velocity":0.8818897637795275,"duration":0.041666683333346555},{"name":"F2","midi":41,"time":622.3663203749988,"velocity":0.8818897637795275,"duration":0.041666683333346555},{"name":"A2","midi":45,"time":622.4109632499989,"velocity":0.8818897637795275,"duration":0.041666683333346555},{"name":"D3","midi":50,"time":622.4556061249989,"velocity":0.8818897637795275,"duration":0.041666683333346555},{"name":"F3","midi":53,"time":622.5002489999989,"velocity":0.8818897637795275,"duration":0.041666683333346555},{"name":"A3","midi":57,"time":622.5448918749989,"velocity":0.8818897637795275,"duration":0.041666683333346555},{"name":"C4","midi":60,"time":622.589534749999,"velocity":0.8818897637795275,"duration":0.041666683333346555},{"name":"D3","midi":50,"time":622.634177624999,"velocity":0.8818897637795275,"duration":0.041666683333346555},{"name":"F3","midi":53,"time":622.678820499999,"velocity":0.8818897637795275,"duration":0.041666683333346555},{"name":"A3","midi":57,"time":622.723463374999,"velocity":0.8818897637795275,"duration":0.041666683333346555},{"name":"D4","midi":62,"time":622.768106249999,"velocity":0.8818897637795275,"duration":0.041666683333346555},{"name":"F4","midi":65,"time":622.8127491249991,"velocity":0.8818897637795275,"duration":0.041666683333346555},{"name":"A4","midi":69,"time":622.8573919999991,"velocity":0.8818897637795275,"duration":0.041666683333346555},{"name":"D5","midi":74,"time":622.9020348749991,"velocity":0.8818897637795275,"duration":0.041666683333346555},{"name":"D4","midi":62,"time":622.9466777499991,"velocity":0.8818897637795275,"duration":0.041666683333346555},{"name":"F4","midi":65,"time":622.9913206249992,"velocity":0.8818897637795275,"duration":0.041666683333346555},{"name":"A4","midi":69,"time":623.0359634999992,"velocity":0.8818897637795275,"duration":0.041666683333346555},{"name":"D5","midi":74,"time":623.0806063749992,"velocity":0.8818897637795275,"duration":0.041666683333346555},{"name":"F5","midi":77,"time":623.1252492499992,"velocity":0.8818897637795275,"duration":0.041666683333346555},{"name":"A5","midi":81,"time":623.1698921249993,"velocity":0.8818897637795275,"duration":0.041666683333346555},{"name":"D6","midi":86,"time":623.2145349999993,"velocity":0.8818897637795275,"duration":0.041666683333346555},{"name":"A5","midi":81,"time":623.2591778749993,"velocity":0.8818897637795275,"duration":0.041666683333346555},{"name":"F5","midi":77,"time":623.3038207499993,"velocity":0.8818897637795275,"duration":0.041666683333346555},{"name":"D5","midi":74,"time":623.3484636249993,"velocity":0.8818897637795275,"duration":0.041666683333346555},{"name":"D5","midi":74,"time":623.3931064999994,"velocity":0.8818897637795275,"duration":0.041666683333346555},{"name":"F5","midi":77,"time":623.4377493749994,"velocity":0.8818897637795275,"duration":0.041666683333346555},{"name":"A5","midi":81,"time":623.4823922499994,"velocity":0.8818897637795275,"duration":0.041666683333346555},{"name":"D6","midi":86,"time":623.5270351249994,"velocity":0.8818897637795275,"duration":0.041666683333346555},{"name":"C4","midi":60,"time":623.7502494999994,"velocity":0.3858267716535433,"duration":0.16889887708327933},{"name":"C5","midi":72,"time":623.7502494999994,"velocity":0.3858267716535433,"duration":0.16889887708327933},{"name":"D4","midi":62,"time":623.9288209999994,"velocity":0.3858267716535433,"duration":0.16889887708327933},{"name":"D5","midi":74,"time":623.9288209999994,"velocity":0.3858267716535433,"duration":0.16889887708327933},{"name":"F4","midi":65,"time":624.1073924999994,"velocity":0.3858267716535433,"duration":0.16889887708327933},{"name":"F5","midi":77,"time":624.1073924999994,"velocity":0.3858267716535433,"duration":0.16889887708327933},{"name":"E4","midi":64,"time":624.2859639999994,"velocity":0.3858267716535433,"duration":0.16889887708327933},{"name":"E5","midi":76,"time":624.2859639999994,"velocity":0.3858267716535433,"duration":0.16889887708327933},{"name":"D4","midi":62,"time":624.4645354999993,"velocity":0.3858267716535433,"duration":0.16889887708327933},{"name":"D5","midi":74,"time":624.4645354999993,"velocity":0.3858267716535433,"duration":0.16889887708327933},{"name":"C4","midi":60,"time":624.6431069999993,"velocity":0.3858267716535433,"duration":0.16889887708327933},{"name":"C5","midi":72,"time":624.6431069999993,"velocity":0.3858267716535433,"duration":0.16889887708327933},{"name":"C4","midi":60,"time":624.8216784999993,"velocity":0.3858267716535433,"duration":0.1778274520834202},{"name":"F4","midi":65,"time":624.8685535187493,"velocity":0.3858267716535433,"duration":0.1302083854167222},{"name":"C5","midi":72,"time":624.916172585416,"velocity":0.3858267716535433,"duration":0.08258931875002418},{"name":"D4","midi":62,"time":625.0002499999994,"velocity":0.3858267716535433,"duration":0.5349704520833711},{"name":"F4","midi":65,"time":625.0471250187494,"velocity":0.3858267716535433,"duration":0.4873513854166731},{"name":"A#4","midi":70,"time":625.0947440854161,"velocity":0.3858267716535433,"duration":0.4397323187499751},{"name":"D5","midi":74,"time":625.1423631520828,"velocity":0.3858267716535433,"duration":0.3921132520832771},{"name":"F3","midi":53,"time":625.5359644999994,"velocity":0.3858267716535433,"duration":0.6778276520833515},{"name":"A#3","midi":58,"time":625.5359644999994,"velocity":0.3858267716535433,"duration":0.6778276520833515},{"name":"D4","midi":62,"time":625.5359644999994,"velocity":0.3858267716535433,"duration":0.6778276520833515},{"name":"C5","midi":72,"time":626.6073934999994,"velocity":0.3858267716535433,"duration":0.16889887708327933},{"name":"C6","midi":84,"time":626.6073934999994,"velocity":0.3858267716535433,"duration":0.16889887708327933},{"name":"D5","midi":74,"time":626.7859649999994,"velocity":0.3858267716535433,"duration":0.16889887708327933},{"name":"D6","midi":86,"time":626.7859649999994,"velocity":0.3858267716535433,"duration":0.16889887708327933},{"name":"F5","midi":77,"time":626.9645364999993,"velocity":0.3858267716535433,"duration":0.16889887708327933},{"name":"F6","midi":89,"time":626.9645364999993,"velocity":0.3858267716535433,"duration":0.16889887708327933},{"name":"E5","midi":76,"time":627.1431079999993,"velocity":0.3858267716535433,"duration":0.16889887708327933},{"name":"E6","midi":88,"time":627.1431079999993,"velocity":0.3858267716535433,"duration":0.16889887708327933},{"name":"D5","midi":74,"time":627.3216794999993,"velocity":0.3858267716535433,"duration":0.16889887708327933},{"name":"D6","midi":86,"time":627.3216794999993,"velocity":0.3858267716535433,"duration":0.16889887708327933},{"name":"C5","midi":72,"time":627.5002509999993,"velocity":0.3858267716535433,"duration":0.16889887708327933},{"name":"C6","midi":84,"time":627.5002509999993,"velocity":0.3858267716535433,"duration":0.16889887708327933},{"name":"C5","midi":72,"time":627.6788224999992,"velocity":0.3858267716535433,"duration":0.16889887708327933},{"name":"C6","midi":84,"time":627.6788224999992,"velocity":0.3858267716535433,"duration":0.16889887708327933},{"name":"D5","midi":74,"time":627.8573939999992,"velocity":0.3858267716535433,"duration":0.16889887708327933},{"name":"D6","midi":86,"time":627.8573939999992,"velocity":0.3858267716535433,"duration":0.16889887708327933},{"name":"E5","midi":76,"time":628.0359654999992,"velocity":0.3858267716535433,"duration":0.3385418020833413},{"name":"E5","midi":76,"time":628.3931084999992,"velocity":0.3858267716535433,"duration":0.3385418020833413},{"name":"D5","midi":74,"time":628.7502514999993,"velocity":0.3858267716535433,"duration":0.3385418020833413},{"name":"A3","midi":57,"time":629.1073944999994,"velocity":0.3858267716535433,"duration":0.5349704520833711},{"name":"C4","midi":60,"time":629.1542695187494,"velocity":0.3858267716535433,"duration":0.4873513854166731},{"name":"F4","midi":65,"time":629.2018885854161,"velocity":0.3858267716535433,"duration":0.4397323187499751},{"name":"A4","midi":69,"time":629.2495076520828,"velocity":0.3858267716535433,"duration":0.3921132520832771},{"name":"G3","midi":55,"time":629.6431089999994,"velocity":0.3858267716535433,"duration":0.16889887708327933},{"name":"E3","midi":52,"time":629.8216804999994,"velocity":0.3858267716535433,"duration":0.3385418020833413},{"name":"G3","midi":55,"time":629.8216804999994,"velocity":0.3858267716535433,"duration":0.3385418020833413},{"name":"D3","midi":50,"time":630.1788234999995,"velocity":0.3858267716535433,"duration":0.3385418020833413},{"name":"F3","midi":53,"time":630.1788234999995,"velocity":0.3858267716535433,"duration":0.3385418020833413},{"name":"D3","midi":50,"time":630.5359664999995,"velocity":0.25984251968503935,"duration":1.356399352083372},{"name":"F3","midi":53,"time":630.5359664999995,"velocity":0.25984251968503935,"duration":1.356399352083372},{"name":"A#3","midi":58,"time":630.5359664999995,"velocity":0.25984251968503935,"duration":1.356399352083372},{"name":"D3","midi":50,"time":631.9645384999995,"velocity":0.25984251968503935,"duration":0.6778276520833515},{"name":"E3","midi":52,"time":631.9645384999995,"velocity":0.25984251968503935,"duration":0.6778276520833515},{"name":"C3","midi":48,"time":632.6788244999996,"velocity":0.25984251968503935,"duration":1.356399352083372},{"name":"E3","midi":52,"time":632.6788244999996,"velocity":0.25984251968503935,"duration":1.356399352083372},{"name":"D3","midi":50,"time":634.1073964999996,"velocity":0.25984251968503935,"duration":0.6778276520833515},{"name":"A2","midi":45,"time":634.8216824999996,"velocity":0.25984251968503935,"duration":0.6778276520833515},{"name":"E3","midi":52,"time":634.8216824999996,"velocity":0.25984251968503935,"duration":0.6778276520833515},{"name":"D3","midi":50,"time":636.2502544999996,"velocity":0.3464566929133858,"duration":0.04017858750000869},{"name":"A3","midi":57,"time":636.294153327083,"velocity":0.3464566929133858,"duration":0.04017858750000869},{"name":"D4","midi":62,"time":636.294153327083,"velocity":0.3464566929133858,"duration":0.04017858750000869},{"name":"D3","midi":50,"time":636.338796202083,"velocity":0.3464566929133858,"duration":0.04017858750000869},{"name":"A3","midi":57,"time":636.3826950291664,"velocity":0.3464566929133858,"duration":0.04017858750000869},{"name":"D4","midi":62,"time":636.3826950291664,"velocity":0.3464566929133858,"duration":0.04017858750000869},{"name":"D3","midi":50,"time":636.4273379041664,"velocity":0.3464566929133858,"duration":0.04017858750000869},{"name":"A3","midi":57,"time":636.4712367312497,"velocity":0.3464566929133858,"duration":0.04017858750000869},{"name":"D4","midi":62,"time":636.4712367312497,"velocity":0.3464566929133858,"duration":0.04017858750000869},{"name":"D3","midi":50,"time":636.5158796062498,"velocity":0.3464566929133858,"duration":0.04017858750000869},{"name":"A3","midi":57,"time":636.5597784333331,"velocity":0.3464566929133858,"duration":0.04017858750000869},{"name":"D4","midi":62,"time":636.5597784333331,"velocity":0.3464566929133858,"duration":0.04017858750000869},{"name":"D3","midi":50,"time":636.6044213083331,"velocity":0.3464566929133858,"duration":0.04017858750000869},{"name":"A3","midi":57,"time":636.6483201354165,"velocity":0.3464566929133858,"duration":0.04017858750000869},{"name":"D4","midi":62,"time":636.6483201354165,"velocity":0.3464566929133858,"duration":0.04017858750000869},{"name":"D3","midi":50,"time":636.6929630104165,"velocity":0.3464566929133858,"duration":0.04017858750000869},{"name":"A3","midi":57,"time":636.7368618374999,"velocity":0.3464566929133858,"duration":0.04017858750000869},{"name":"D4","midi":62,"time":636.7368618374999,"velocity":0.3464566929133858,"duration":0.04017858750000869},{"name":"D3","midi":50,"time":636.7815047124999,"velocity":0.3464566929133858,"duration":0.04017858750000869},{"name":"A3","midi":57,"time":636.8254035395832,"velocity":0.3464566929133858,"duration":0.04017858750000869},{"name":"D4","midi":62,"time":636.8254035395832,"velocity":0.3464566929133858,"duration":0.04017858750000869},{"name":"D3","midi":50,"time":636.8700464145833,"velocity":0.3464566929133858,"duration":0.04017858750000869},{"name":"A3","midi":57,"time":636.9139452416666,"velocity":0.3464566929133858,"duration":0.04017858750000869},{"name":"D4","midi":62,"time":636.9139452416666,"velocity":0.3464566929133858,"duration":0.04017858750000869},{"name":"D3","midi":50,"time":636.9585881166666,"velocity":0.3464566929133858,"duration":0.04017858750000869},{"name":"A3","midi":57,"time":637.00248694375,"velocity":0.3464566929133858,"duration":0.04017858750000869},{"name":"D4","midi":62,"time":637.00248694375,"velocity":0.3464566929133858,"duration":0.04017858750000869},{"name":"D3","midi":50,"time":637.04712981875,"velocity":0.3464566929133858,"duration":0.04017858750000869},{"name":"A3","midi":57,"time":637.0910286458334,"velocity":0.3464566929133858,"duration":0.04017858750000869},{"name":"D4","midi":62,"time":637.0910286458334,"velocity":0.3464566929133858,"duration":0.04017858750000869},{"name":"D3","midi":50,"time":637.1356715208334,"velocity":0.3464566929133858,"duration":0.04017858750000869},{"name":"A3","midi":57,"time":637.1795703479168,"velocity":0.3464566929133858,"duration":0.04017858750000869},{"name":"D4","midi":62,"time":637.1795703479168,"velocity":0.3464566929133858,"duration":0.04017858750000869},{"name":"D3","midi":50,"time":637.2242132229168,"velocity":0.3464566929133858,"duration":0.04017858750000869},{"name":"A3","midi":57,"time":637.2681120500001,"velocity":0.3464566929133858,"duration":0.04017858750000869},{"name":"D4","midi":62,"time":637.2681120500001,"velocity":0.3464566929133858,"duration":0.04017858750000869},{"name":"D3","midi":50,"time":637.3127549250001,"velocity":0.3464566929133858,"duration":0.04017858750000869},{"name":"A3","midi":57,"time":637.3573978000002,"velocity":0.3464566929133858,"duration":0.04017858750000869},{"name":"D4","midi":62,"time":637.3573978000002,"velocity":0.3464566929133858,"duration":0.04017858750000869},{"name":"D3","midi":50,"time":637.4012966270835,"velocity":0.3464566929133858,"duration":0.04017858750000869},{"name":"A3","midi":57,"time":637.4459395020835,"velocity":0.3464566929133858,"duration":0.04017858750000869},{"name":"D4","midi":62,"time":637.4459395020835,"velocity":0.3464566929133858,"duration":0.04017858750000869},{"name":"D3","midi":50,"time":637.4898383291669,"velocity":0.3464566929133858,"duration":0.04017858750000869},{"name":"A3","midi":57,"time":637.5344812041669,"velocity":0.3464566929133858,"duration":0.04017858750000869},{"name":"D4","midi":62,"time":637.5344812041669,"velocity":0.3464566929133858,"duration":0.04017858750000869},{"name":"D3","midi":50,"time":637.5783800312503,"velocity":0.3464566929133858,"duration":0.04017858750000869},{"name":"A3","midi":57,"time":637.6230229062503,"velocity":0.3464566929133858,"duration":0.04017858750000869},{"name":"D4","midi":62,"time":637.6230229062503,"velocity":0.3464566929133858,"duration":0.04017858750000869},{"name":"D3","midi":50,"time":637.6788265000004,"velocity":0.5354330708661418,"duration":0.04092263541667762},{"name":"A3","midi":57,"time":637.7234693750004,"velocity":0.5354330708661418,"duration":0.04092263541667762},{"name":"D4","midi":62,"time":637.7234693750004,"velocity":0.5354330708661418,"duration":0.04092263541667762},{"name":"D3","midi":50,"time":637.7681122500004,"velocity":0.5354330708661418,"duration":0.04092263541667762},{"name":"A3","midi":57,"time":637.8127551250004,"velocity":0.5354330708661418,"duration":0.04092263541667762},{"name":"D4","midi":62,"time":637.8127551250004,"velocity":0.5354330708661418,"duration":0.04092263541667762},{"name":"D3","midi":50,"time":637.8573980000004,"velocity":0.5354330708661418,"duration":0.04092263541667762},{"name":"A3","midi":57,"time":637.9020408750005,"velocity":0.5354330708661418,"duration":0.04092263541667762},{"name":"D4","midi":62,"time":637.9020408750005,"velocity":0.5354330708661418,"duration":0.04092263541667762},{"name":"D3","midi":50,"time":637.9466837500005,"velocity":0.5354330708661418,"duration":0.04092263541667762},{"name":"A3","midi":57,"time":637.9913266250005,"velocity":0.5354330708661418,"duration":0.04092263541667762},{"name":"D4","midi":62,"time":637.9913266250005,"velocity":0.5354330708661418,"duration":0.04092263541667762},{"name":"D3","midi":50,"time":638.0359695000005,"velocity":0.5354330708661418,"duration":0.04092263541667762},{"name":"A3","midi":57,"time":638.0806123750006,"velocity":0.5354330708661418,"duration":0.04092263541667762},{"name":"D4","midi":62,"time":638.0806123750006,"velocity":0.5354330708661418,"duration":0.04092263541667762},{"name":"D3","midi":50,"time":638.1252552500006,"velocity":0.5354330708661418,"duration":0.04092263541667762},{"name":"A3","midi":57,"time":638.1698981250006,"velocity":0.5354330708661418,"duration":0.04092263541667762},{"name":"D4","midi":62,"time":638.1698981250006,"velocity":0.5354330708661418,"duration":0.04092263541667762},{"name":"D3","midi":50,"time":638.2145410000006,"velocity":0.5354330708661418,"duration":0.04092263541667762},{"name":"A3","midi":57,"time":638.2591838750006,"velocity":0.5354330708661418,"duration":0.04092263541667762},{"name":"D4","midi":62,"time":638.2591838750006,"velocity":0.5354330708661418,"duration":0.04092263541667762},{"name":"D3","midi":50,"time":638.3038267500007,"velocity":0.5354330708661418,"duration":0.04092263541667762},{"name":"A3","midi":57,"time":638.3484696250007,"velocity":0.5354330708661418,"duration":0.04092263541667762},{"name":"D4","midi":62,"time":638.3484696250007,"velocity":0.5354330708661418,"duration":0.04092263541667762},{"name":"D3","midi":50,"time":638.3931125000007,"velocity":0.6299212598425197,"duration":0.3385418020833413},{"name":"A3","midi":57,"time":638.3931125000007,"velocity":0.6299212598425197,"duration":0.3385418020833413},{"name":"D4","midi":62,"time":638.3931125000007,"velocity":0.6299212598425197,"duration":0.3385418020833413}]},{"instrument_number":-1,"notes":[{"name":"D1","midi":26,"time":0,"velocity":0.7559055118110236,"duration":0.3563989520833334},{"name":"D2","midi":38,"time":0,"velocity":0.7559055118110236,"duration":0.3563989520833334},{"name":"D1","midi":26,"time":1.0714290000000002,"velocity":0.7559055118110236,"duration":0.3563989520833335},{"name":"D2","midi":38,"time":1.0714290000000002,"velocity":0.7559055118110236,"duration":0.3563989520833335},{"name":"D1","midi":26,"time":2.1428580000000004,"velocity":0.3858267716535433,"duration":0.17782745208333317},{"name":"D2","midi":38,"time":2.1428580000000004,"velocity":0.3858267716535433,"duration":0.17782745208333317},{"name":"D1","midi":26,"time":3.214287,"velocity":0.3858267716535433,"duration":0.17782745208333317},{"name":"D2","midi":38,"time":3.214287,"velocity":0.3858267716535433,"duration":0.17782745208333317},{"name":"F1","midi":29,"time":3.57143,"velocity":0.4645669291338583,"duration":0.3385418020833333},{"name":"F2","midi":41,"time":3.57143,"velocity":0.4645669291338583,"duration":0.3385418020833333},{"name":"C1","midi":24,"time":3.9285729999999996,"velocity":0.5433070866141733,"duration":0.33854180208333373},{"name":"C2","midi":36,"time":3.9285729999999996,"velocity":0.5433070866141733,"duration":0.33854180208333373},{"name":"D1","midi":26,"time":4.285716,"velocity":0.6299212598425197,"duration":0.17782745208333317},{"name":"D2","midi":38,"time":4.285716,"velocity":0.6299212598425197,"duration":0.17782745208333317},{"name":"D1","midi":26,"time":5.357145,"velocity":0.6299212598425197,"duration":0.17782745208333317},{"name":"D2","midi":38,"time":5.357145,"velocity":0.6299212598425197,"duration":0.17782745208333317},{"name":"D1","midi":26,"time":6.428574,"velocity":0.6299212598425197,"duration":0.17782745208333317},{"name":"D2","midi":38,"time":6.428574,"velocity":0.6299212598425197,"duration":0.17782745208333317},{"name":"D1","midi":26,"time":7.500003,"velocity":0.6299212598425197,"duration":0.17782745208333317},{"name":"D2","midi":38,"time":7.500003,"velocity":0.6299212598425197,"duration":0.17782745208333317},{"name":"D1","midi":26,"time":8.571432,"velocity":0.6299212598425197,"duration":0.17782745208333317},{"name":"D2","midi":38,"time":8.571432,"velocity":0.6299212598425197,"duration":0.17782745208333317},{"name":"C2","midi":36,"time":8.928575,"velocity":0.6299212598425197,"duration":0.17782745208333317},{"name":"C3","midi":48,"time":8.928575,"velocity":0.6299212598425197,"duration":0.17782745208333317},{"name":"G1","midi":31,"time":9.285718000000001,"velocity":0.6299212598425197,"duration":0.17782745208333317},{"name":"G2","midi":43,"time":9.285718000000001,"velocity":0.6299212598425197,"duration":0.17782745208333317},{"name":"A1","midi":33,"time":9.642861000000002,"velocity":0.6299212598425197,"duration":0.3385418020833342},{"name":"A2","midi":45,"time":9.642861000000002,"velocity":0.6299212598425197,"duration":0.3385418020833342},{"name":"A1","midi":33,"time":10.000004000000002,"velocity":0.6299212598425197,"duration":0.3385418020833342},{"name":"A2","midi":45,"time":10.000004000000002,"velocity":0.6299212598425197,"duration":0.3385418020833342},{"name":"A1","midi":33,"time":10.357147000000003,"velocity":0.6299212598425197,"duration":0.3385418020833342},{"name":"A2","midi":45,"time":10.357147000000003,"velocity":0.6299212598425197,"duration":0.3385418020833342},{"name":"A1","midi":33,"time":10.714290000000004,"velocity":0.6299212598425197,"duration":0.3385418020833342},{"name":"A2","midi":45,"time":10.714290000000004,"velocity":0.6299212598425197,"duration":0.3385418020833342},{"name":"A1","midi":33,"time":11.071433000000004,"velocity":0.6299212598425197,"duration":0.3385418020833342},{"name":"A2","midi":45,"time":11.071433000000004,"velocity":0.6299212598425197,"duration":0.3385418020833342},{"name":"A1","midi":33,"time":11.428576000000005,"velocity":0.6299212598425197,"duration":0.3385418020833342},{"name":"A2","midi":45,"time":11.428576000000005,"velocity":0.6299212598425197,"duration":0.3385418020833342},{"name":"A1","midi":33,"time":11.785719000000006,"velocity":0.6299212598425197,"duration":0.3385418020833342},{"name":"A2","midi":45,"time":11.785719000000006,"velocity":0.6299212598425197,"duration":0.3385418020833342},{"name":"A1","midi":33,"time":12.142862000000006,"velocity":0.6299212598425197,"duration":0.3385418020833342},{"name":"A2","midi":45,"time":12.142862000000006,"velocity":0.6299212598425197,"duration":0.3385418020833342},{"name":"A1","midi":33,"time":12.500005000000007,"velocity":0.6299212598425197,"duration":0.3385418020833342},{"name":"A2","midi":45,"time":12.500005000000007,"velocity":0.6299212598425197,"duration":0.3385418020833342},{"name":"A1","midi":33,"time":12.857148000000008,"velocity":0.7559055118110236,"duration":0.3563989520833335},{"name":"A2","midi":45,"time":12.857148000000008,"velocity":0.7559055118110236,"duration":0.3563989520833335},{"name":"A1","midi":33,"time":13.214291000000008,"velocity":0.7559055118110236,"duration":0.3563989520833335},{"name":"A2","midi":45,"time":13.214291000000008,"velocity":0.7559055118110236,"duration":0.3563989520833335},{"name":"A1","midi":33,"time":13.571434000000009,"velocity":0.7559055118110236,"duration":0.3563989520833335},{"name":"A2","midi":45,"time":13.571434000000009,"velocity":0.7559055118110236,"duration":0.3563989520833335},{"name":"A1","midi":33,"time":13.92857700000001,"velocity":0.7559055118110236,"duration":0.3563989520833335},{"name":"E2","midi":40,"time":13.92857700000001,"velocity":0.7559055118110236,"duration":0.3563989520833335},{"name":"A2","midi":45,"time":13.92857700000001,"velocity":0.7559055118110236,"duration":0.3563989520833335},{"name":"A1","midi":33,"time":14.28572000000001,"velocity":0.7559055118110236,"duration":0.3563989520833335},{"name":"C#2","midi":37,"time":14.28572000000001,"velocity":0.7559055118110236,"duration":0.3563989520833335},{"name":"E2","midi":40,"time":14.28572000000001,"velocity":0.7559055118110236,"duration":0.3563989520833335},{"name":"A2","midi":45,"time":14.28572000000001,"velocity":0.7559055118110236,"duration":0.3563989520833335},{"name":"A0","midi":21,"time":14.64286300000001,"velocity":0.7559055118110236,"duration":0.3563989520833335},{"name":"E1","midi":28,"time":14.64286300000001,"velocity":0.7559055118110236,"duration":0.3563989520833335},{"name":"A1","midi":33,"time":14.64286300000001,"velocity":0.7559055118110236,"duration":0.3563989520833335},{"name":"D1","midi":26,"time":15.000006000000011,"velocity":0.7559055118110236,"duration":0.3563989520833335},{"name":"A1","midi":33,"time":15.000006000000011,"velocity":0.7559055118110236,"duration":0.3563989520833335},{"name":"D2","midi":38,"time":15.000006000000011,"velocity":0.7559055118110236,"duration":0.3563989520833335},{"name":"C2","midi":36,"time":16.07143500000001,"velocity":0.905511811023622,"duration":0.3563989520833317},{"name":"G2","midi":43,"time":16.07143500000001,"velocity":0.905511811023622,"duration":0.3563989520833317},{"name":"C2","midi":36,"time":16.42857800000001,"velocity":0.905511811023622,"duration":0.3563989520833317},{"name":"G2","midi":43,"time":16.42857800000001,"velocity":0.905511811023622,"duration":0.3563989520833317},{"name":"C2","midi":36,"time":16.785721000000006,"velocity":0.905511811023622,"duration":0.3563989520833317},{"name":"G2","midi":43,"time":16.785721000000006,"velocity":0.905511811023622,"duration":0.3563989520833317},{"name":"F2","midi":41,"time":17.142864000000003,"velocity":0.905511811023622,"duration":0.3563989520833317},{"name":"A2","midi":45,"time":17.142864000000003,"velocity":0.905511811023622,"duration":0.3563989520833317},{"name":"A1","midi":33,"time":18.214293,"velocity":0.905511811023622,"duration":0.3563989520833317},{"name":"G2","midi":43,"time":18.214293,"velocity":0.905511811023622,"duration":0.3563989520833317},{"name":"A1","midi":33,"time":18.571436,"velocity":0.905511811023622,"duration":0.3563989520833317},{"name":"G2","midi":43,"time":18.571436,"velocity":0.905511811023622,"duration":0.3563989520833317},{"name":"A1","midi":33,"time":18.928578999999996,"velocity":0.905511811023622,"duration":0.3563989520833317},{"name":"G2","midi":43,"time":18.928578999999996,"velocity":0.905511811023622,"duration":0.3563989520833317},{"name":"G2","midi":43,"time":19.285721999999993,"velocity":0.905511811023622,"duration":0.3563989520833317},{"name":"D3","midi":50,"time":19.285721999999993,"velocity":0.905511811023622,"duration":0.3563989520833317},{"name":"D2","midi":38,"time":20.35715099999999,"velocity":0.7559055118110236,"duration":0.17782745208333495},{"name":"A2","midi":45,"time":20.35715099999999,"velocity":0.7559055118110236,"duration":0.17782745208333495},{"name":"D2","midi":38,"time":20.71429399999999,"velocity":0.7559055118110236,"duration":0.17782745208333495},{"name":"A2","midi":45,"time":20.71429399999999,"velocity":0.7559055118110236,"duration":0.17782745208333495},{"name":"D2","midi":38,"time":21.071436999999992,"velocity":0.7559055118110236,"duration":0.17782745208333495},{"name":"A2","midi":45,"time":21.071436999999992,"velocity":0.7559055118110236,"duration":0.17782745208333495},{"name":"C2","midi":36,"time":21.428579999999993,"velocity":0.7559055118110236,"duration":0.17782745208333495},{"name":"G2","midi":43,"time":21.428579999999993,"velocity":0.7559055118110236,"duration":0.17782745208333495},{"name":"A1","midi":33,"time":21.964294499999994,"velocity":0.7559055118110236,"duration":0.16889887708333262},{"name":"E2","midi":40,"time":22.142865999999994,"velocity":0.7559055118110236,"duration":0.17782745208333495},{"name":"A2","midi":45,"time":22.142865999999994,"velocity":0.7559055118110236,"duration":0.17782745208333495},{"name":"D2","midi":38,"time":22.500008999999995,"velocity":0.7559055118110236,"duration":0.17782745208333495},{"name":"D2","midi":38,"time":22.857151999999996,"velocity":0.7559055118110236,"duration":0.3385418020833342},{"name":"D3","midi":50,"time":22.857151999999996,"velocity":0.7559055118110236,"duration":0.3385418020833342},{"name":"D2","midi":38,"time":23.214294999999996,"velocity":0.7559055118110236,"duration":0.3385418020833342},{"name":"D3","midi":50,"time":23.214294999999996,"velocity":0.7559055118110236,"duration":0.3385418020833342},{"name":"D2","midi":38,"time":23.571437999999997,"velocity":0.8818897637795275,"duration":1.0171135020833333},{"name":"A2","midi":45,"time":23.571437999999997,"velocity":0.8818897637795275,"duration":1.0171135020833333},{"name":"D3","midi":50,"time":23.571437999999997,"velocity":0.8818897637795275,"duration":1.0171135020833333},{"name":"C2","midi":36,"time":24.642866999999995,"velocity":0.8818897637795275,"duration":0.7135419520833324},{"name":"G2","midi":43,"time":24.689742018749996,"velocity":0.8818897637795275,"duration":0.6659228854166663},{"name":"C3","midi":48,"time":24.737361085416662,"velocity":0.8818897637795275,"duration":0.6183038187500003},{"name":"A1","midi":33,"time":25.357152999999993,"velocity":0.8818897637795275,"duration":0.3385418020833342},{"name":"A2","midi":45,"time":25.357152999999993,"velocity":0.8818897637795275,"duration":0.3385418020833342},{"name":"D2","midi":38,"time":25.714295999999994,"velocity":0.8818897637795275,"duration":1.0171135020833333},{"name":"A2","midi":45,"time":25.714295999999994,"velocity":0.8818897637795275,"duration":1.0171135020833333},{"name":"D3","midi":50,"time":25.714295999999994,"velocity":0.8818897637795275,"duration":1.0171135020833333},{"name":"C2","midi":36,"time":26.785724999999992,"velocity":0.8818897637795275,"duration":0.534970452083332},{"name":"G2","midi":43,"time":26.832600018749993,"velocity":0.8818897637795275,"duration":0.487351385416666},{"name":"C3","midi":48,"time":26.88021908541666,"velocity":0.8818897637795275,"duration":0.43973231874999996},{"name":"C2","midi":36,"time":27.32143949999999,"velocity":0.8818897637795275,"duration":0.16889887708333262},{"name":"C3","midi":48,"time":27.50001099999999,"velocity":0.8818897637795275,"duration":0.16889887708333262},{"name":"G1","midi":31,"time":27.67858249999999,"velocity":0.8818897637795275,"duration":0.16889887708333262},{"name":"G1","midi":31,"time":27.85715399999999,"velocity":0.8818897637795275,"duration":1.0171135020833333},{"name":"G2","midi":43,"time":27.85715399999999,"velocity":0.8818897637795275,"duration":1.0171135020833333},{"name":"D2","midi":38,"time":28.92858299999999,"velocity":0.8818897637795275,"duration":0.534970452083332},{"name":"A2","midi":45,"time":28.97545801874999,"velocity":0.8818897637795275,"duration":0.487351385416666},{"name":"D3","midi":50,"time":29.023077085416656,"velocity":0.8818897637795275,"duration":0.43973231874999996},{"name":"D2","midi":38,"time":29.464297499999986,"velocity":0.8818897637795275,"duration":0.16889887708333262},{"name":"D3","midi":50,"time":29.642868999999987,"velocity":0.8818897637795275,"duration":0.16889887708333262},{"name":"D2","midi":38,"time":29.821440499999987,"velocity":0.8818897637795275,"duration":0.16889887708333262},{"name":"C2","midi":36,"time":30.000011999999987,"velocity":0.8818897637795275,"duration":0.5081847270833322},{"name":"G2","midi":43,"time":30.000011999999987,"velocity":0.8818897637795275,"duration":0.5081847270833322},{"name":"C3","midi":48,"time":30.000011999999987,"velocity":0.8818897637795275,"duration":0.5081847270833322},{"name":"A1","midi":33,"time":30.535726499999985,"velocity":0.8818897637795275,"duration":0.16889887708333262},{"name":"A2","midi":45,"time":30.714297999999985,"velocity":0.8818897637795275,"duration":0.3385418020833342},{"name":"D2","midi":38,"time":31.071440999999986,"velocity":0.8818897637795275,"duration":0.3385418020833342},{"name":"A2","midi":45,"time":31.071440999999986,"velocity":0.8818897637795275,"duration":0.3385418020833342},{"name":"D3","midi":50,"time":31.071440999999986,"velocity":0.8818897637795275,"duration":0.3385418020833342},{"name":"D2","midi":38,"time":31.428583999999987,"velocity":0.8818897637795275,"duration":0.3385418020833342},{"name":"A2","midi":45,"time":31.428583999999987,"velocity":0.8818897637795275,"duration":0.3385418020833342},{"name":"D3","midi":50,"time":31.428583999999987,"velocity":0.8818897637795275,"duration":0.3385418020833342},{"name":"D2","midi":38,"time":31.785726999999987,"velocity":0.8818897637795275,"duration":0.3385418020833342},{"name":"A2","midi":45,"time":31.785726999999987,"velocity":0.8818897637795275,"duration":0.3385418020833342},{"name":"D3","midi":50,"time":31.785726999999987,"velocity":0.8818897637795275,"duration":0.3385418020833342},{"name":"D2","midi":38,"time":32.14286999999999,"velocity":0.8818897637795275,"duration":0.3385418020833342},{"name":"A2","midi":45,"time":32.14286999999999,"velocity":0.8818897637795275,"duration":0.3385418020833342},{"name":"D3","midi":50,"time":32.50001299999999,"velocity":0.8818897637795275,"duration":0.16889887708333617},{"name":"D3","midi":50,"time":32.67858449999999,"velocity":0.8818897637795275,"duration":0.16889887708333617},{"name":"D3","midi":50,"time":32.857155999999996,"velocity":0.8818897637795275,"duration":0.16889887708333617},{"name":"D3","midi":50,"time":33.0357275,"velocity":0.8818897637795275,"duration":0.16889887708333617},{"name":"G1","midi":31,"time":33.214299000000004,"velocity":0.8818897637795275,"duration":0.3385418020833342},{"name":"G2","midi":43,"time":33.214299000000004,"velocity":0.8818897637795275,"duration":0.3385418020833342},{"name":"G1","midi":31,"time":33.571442000000005,"velocity":0.8818897637795275,"duration":0.16889887708333617},{"name":"G2","midi":43,"time":33.571442000000005,"velocity":0.8818897637795275,"duration":0.16889887708333617},{"name":"G1","midi":31,"time":33.75001350000001,"velocity":0.8818897637795275,"duration":0.16889887708333617},{"name":"G2","midi":43,"time":33.75001350000001,"velocity":0.8818897637795275,"duration":0.16889887708333617},{"name":"G1","midi":31,"time":33.92858500000001,"velocity":0.8818897637795275,"duration":0.16889887708333617},{"name":"G2","midi":43,"time":33.92858500000001,"velocity":0.8818897637795275,"duration":0.16889887708333617},{"name":"G1","midi":31,"time":34.107156500000016,"velocity":0.8818897637795275,"duration":0.16889887708333617},{"name":"G2","midi":43,"time":34.107156500000016,"velocity":0.8818897637795275,"duration":0.16889887708333617},{"name":"F1","midi":29,"time":34.28572800000002,"velocity":0.8818897637795275,"duration":0.17782745208333495},{"name":"F2","midi":41,"time":34.28572800000002,"velocity":0.8818897637795275,"duration":0.17782745208333495},{"name":"F1","midi":29,"time":34.64287100000002,"velocity":0.8818897637795275,"duration":0.17782745208333495},{"name":"F2","midi":41,"time":34.64287100000002,"velocity":0.8818897637795275,"duration":0.17782745208333495},{"name":"F1","midi":29,"time":35.00001400000002,"velocity":0.8818897637795275,"duration":0.17782745208333495},{"name":"F2","midi":41,"time":35.00001400000002,"velocity":0.8818897637795275,"duration":0.17782745208333495},{"name":"F1","midi":29,"time":35.35715700000002,"velocity":0.8818897637795275,"duration":0.16889887708333617},{"name":"F2","midi":41,"time":35.35715700000002,"velocity":0.8818897637795275,"duration":0.16889887708333617},{"name":"C1","midi":24,"time":35.535728500000026,"velocity":0.8818897637795275,"duration":0.3385418020833342},{"name":"C2","midi":36,"time":35.535728500000026,"velocity":0.8818897637795275,"duration":0.3385418020833342},{"name":"C1","midi":24,"time":35.89287150000003,"velocity":0.8818897637795275,"duration":0.16889887708333617},{"name":"C2","midi":36,"time":35.89287150000003,"velocity":0.8818897637795275,"duration":0.16889887708333617},{"name":"C1","midi":24,"time":36.07144300000003,"velocity":0.8818897637795275,"duration":0.16889887708333617},{"name":"C2","midi":36,"time":36.07144300000003,"velocity":0.8818897637795275,"duration":0.16889887708333617},{"name":"C1","midi":24,"time":36.250014500000034,"velocity":0.8818897637795275,"duration":0.16889887708333617},{"name":"C2","midi":36,"time":36.250014500000034,"velocity":0.8818897637795275,"duration":0.16889887708333617},{"name":"G1","midi":31,"time":36.42858600000004,"velocity":0.8818897637795275,"duration":0.5081847270833322},{"name":"G2","midi":43,"time":36.42858600000004,"velocity":0.8818897637795275,"duration":0.5081847270833322},{"name":"G1","midi":31,"time":36.964300500000036,"velocity":0.8818897637795275,"duration":0.5081847270833322},{"name":"D1","midi":26,"time":37.50001500000003,"velocity":0.8818897637795275,"duration":0.3385418020833342},{"name":"D2","midi":38,"time":37.50001500000003,"velocity":0.8818897637795275,"duration":0.3385418020833342},{"name":"D1","midi":26,"time":37.857158000000034,"velocity":0.8818897637795275,"duration":0.16889887708333617},{"name":"D2","midi":38,"time":37.857158000000034,"velocity":0.8818897637795275,"duration":0.16889887708333617},{"name":"D1","midi":26,"time":38.03572950000004,"velocity":0.8818897637795275,"duration":0.16889887708333617},{"name":"D2","midi":38,"time":38.03572950000004,"velocity":0.8818897637795275,"duration":0.16889887708333617},{"name":"D1","midi":26,"time":38.21430100000004,"velocity":0.8818897637795275,"duration":0.3385418020833342},{"name":"D2","midi":38,"time":38.21430100000004,"velocity":0.8818897637795275,"duration":0.3385418020833342},{"name":"A1","midi":33,"time":38.57144400000004,"velocity":0.8818897637795275,"duration":0.17782745208333495},{"name":"A2","midi":45,"time":38.57144400000004,"velocity":0.8818897637795275,"duration":0.17782745208333495},{"name":"A1","midi":33,"time":38.92858700000004,"velocity":0.8818897637795275,"duration":0.17782745208333495},{"name":"A2","midi":45,"time":38.92858700000004,"velocity":0.8818897637795275,"duration":0.17782745208333495},{"name":"A1","midi":33,"time":39.285730000000044,"velocity":0.8818897637795275,"duration":0.17782745208333495},{"name":"A2","midi":45,"time":39.285730000000044,"velocity":0.8818897637795275,"duration":0.17782745208333495},{"name":"D2","midi":38,"time":39.642873000000044,"velocity":0.8818897637795275,"duration":0.3385418020833342},{"name":"A2","midi":45,"time":39.642873000000044,"velocity":0.8818897637795275,"duration":0.3385418020833342},{"name":"D2","midi":38,"time":40.000016000000045,"velocity":0.8818897637795275,"duration":0.3385418020833342},{"name":"D3","midi":50,"time":40.000016000000045,"velocity":0.8818897637795275,"duration":0.3385418020833342},{"name":"D2","midi":38,"time":40.357159000000046,"velocity":0.8818897637795275,"duration":0.3385418020833342},{"name":"D3","midi":50,"time":40.357159000000046,"velocity":0.8818897637795275,"duration":0.3385418020833342},{"name":"D1","midi":26,"time":40.714302000000046,"velocity":0.8818897637795275,"duration":0.3385418020833342},{"name":"D2","midi":38,"time":40.714302000000046,"velocity":0.8818897637795275,"duration":0.3385418020833342},{"name":"D1","midi":26,"time":41.07144500000005,"velocity":0.8818897637795275,"duration":0.16889887708333617},{"name":"D2","midi":38,"time":41.07144500000005,"velocity":0.8818897637795275,"duration":0.16889887708333617},{"name":"D1","midi":26,"time":41.25001650000005,"velocity":0.8818897637795275,"duration":0.16889887708333617},{"name":"D2","midi":38,"time":41.25001650000005,"velocity":0.8818897637795275,"duration":0.16889887708333617},{"name":"D1","midi":26,"time":41.428588000000055,"velocity":0.8818897637795275,"duration":0.16889887708333617},{"name":"D2","midi":38,"time":41.428588000000055,"velocity":0.8818897637795275,"duration":0.16889887708333617},{"name":"D1","midi":26,"time":41.60715950000006,"velocity":0.8818897637795275,"duration":0.16889887708333617},{"name":"D2","midi":38,"time":41.60715950000006,"velocity":0.8818897637795275,"duration":0.16889887708333617},{"name":"D1","midi":26,"time":41.78573100000006,"velocity":0.8818897637795275,"duration":0.3385418020833342},{"name":"D2","midi":38,"time":41.78573100000006,"velocity":0.8818897637795275,"duration":0.3385418020833342},{"name":"D1","midi":26,"time":42.14287400000006,"velocity":0.8818897637795275,"duration":0.16889887708333617},{"name":"D2","midi":38,"time":42.14287400000006,"velocity":0.8818897637795275,"duration":0.16889887708333617},{"name":"D1","midi":26,"time":42.32144550000007,"velocity":0.8818897637795275,"duration":0.16889887708333617},{"name":"D2","midi":38,"time":42.32144550000007,"velocity":0.8818897637795275,"duration":0.16889887708333617},{"name":"D1","midi":26,"time":42.50001700000007,"velocity":0.8818897637795275,"duration":0.3385418020833342},{"name":"D2","midi":38,"time":42.50001700000007,"velocity":0.8818897637795275,"duration":0.3385418020833342},{"name":"F1","midi":29,"time":42.85716000000007,"velocity":0.8818897637795275,"duration":0.17782745208333495},{"name":"F2","midi":41,"time":42.85716000000007,"velocity":0.8818897637795275,"duration":0.17782745208333495},{"name":"F1","midi":29,"time":43.21430300000007,"velocity":0.8818897637795275,"duration":0.08854170208333301},{"name":"F2","midi":41,"time":43.21430300000007,"velocity":0.8818897637795275,"duration":0.08854170208333301},{"name":"F1","midi":29,"time":43.39287450000007,"velocity":0.8818897637795275,"duration":0.08854170208333301},{"name":"F2","midi":41,"time":43.39287450000007,"velocity":0.8818897637795275,"duration":0.08854170208333301},{"name":"F1","midi":29,"time":43.571446000000066,"velocity":0.8818897637795275,"duration":0.17782745208333495},{"name":"F2","midi":41,"time":43.571446000000066,"velocity":0.8818897637795275,"duration":0.17782745208333495},{"name":"F1","midi":29,"time":43.928589000000066,"velocity":0.8818897637795275,"duration":0.16889887708333617},{"name":"F2","midi":41,"time":43.928589000000066,"velocity":0.8818897637795275,"duration":0.16889887708333617},{"name":"C1","midi":24,"time":44.10716050000007,"velocity":0.8818897637795275,"duration":0.3385418020833342},{"name":"C2","midi":36,"time":44.10716050000007,"velocity":0.8818897637795275,"duration":0.3385418020833342},{"name":"C1","midi":24,"time":44.46430350000007,"velocity":0.8818897637795275,"duration":0.16889887708333617},{"name":"C2","midi":36,"time":44.46430350000007,"velocity":0.8818897637795275,"duration":0.16889887708333617},{"name":"C1","midi":24,"time":44.642875000000075,"velocity":0.8818897637795275,"duration":0.3385418020833342},{"name":"C2","midi":36,"time":44.642875000000075,"velocity":0.8818897637795275,"duration":0.3385418020833342},{"name":"A2","midi":45,"time":45.000018000000075,"velocity":0.5039370078740157,"duration":0.16889887708333617},{"name":"A2","midi":45,"time":45.17858950000008,"velocity":0.5039370078740157,"duration":0.16889887708333617},{"name":"A2","midi":45,"time":45.35716100000008,"velocity":0.5118110236220472,"duration":0.16889887708333617},{"name":"A2","midi":45,"time":45.53573250000009,"velocity":0.5196850393700787,"duration":0.16889887708333617},{"name":"G2","midi":43,"time":45.71430400000009,"velocity":0.5354330708661418,"duration":0.16889887708333617},{"name":"G2","midi":43,"time":45.892875500000095,"velocity":0.5433070866141733,"duration":0.16889887708333617},{"name":"F2","midi":41,"time":46.0714470000001,"velocity":0.5511811023622047,"duration":0.16889887708333617},{"name":"F2","midi":41,"time":46.2500185000001,"velocity":0.5669291338582677,"duration":0.16889887708333617},{"name":"E2","midi":40,"time":46.428590000000106,"velocity":0.5748031496062992,"duration":0.16889887708333617},{"name":"E2","midi":40,"time":46.60716150000011,"velocity":0.5905511811023622,"duration":0.16889887708333617},{"name":"F2","midi":41,"time":46.785733000000114,"velocity":0.5984251968503937,"duration":0.16889887708333617},{"name":"F2","midi":41,"time":46.96430450000012,"velocity":0.6062992125984252,"duration":0.16889887708333617},{"name":"F2","midi":41,"time":47.14287600000012,"velocity":0.6220472440944882,"duration":0.16889887708333617},{"name":"F2","midi":41,"time":47.321447500000126,"velocity":0.6299212598425197,"duration":0.16889887708333617},{"name":"E2","midi":40,"time":47.50001900000013,"velocity":0.6456692913385826,"duration":0.16889887708333617},{"name":"E2","midi":40,"time":47.67859050000013,"velocity":0.6535433070866141,"duration":0.16889887708333617},{"name":"F2","midi":41,"time":47.85716200000014,"velocity":0.6614173228346457,"duration":0.16889887708333617},{"name":"D2","midi":38,"time":48.03573350000014,"velocity":0.6771653543307087,"duration":0.16889887708333617},{"name":"D1","midi":26,"time":48.214305000000145,"velocity":0.6850393700787402,"duration":0.16889887708333617},{"name":"D2","midi":38,"time":48.214305000000145,"velocity":0.6850393700787402,"duration":0.16889887708333617},{"name":"D1","midi":26,"time":48.39287650000015,"velocity":0.7007874015748031,"duration":0.16889887708333617},{"name":"D2","midi":38,"time":48.39287650000015,"velocity":0.7007874015748031,"duration":0.16889887708333617},{"name":"D1","midi":26,"time":48.57144800000015,"velocity":0.7086614173228346,"duration":0.16889887708333617},{"name":"D2","midi":38,"time":48.57144800000015,"velocity":0.7086614173228346,"duration":0.16889887708333617},{"name":"D1","midi":26,"time":48.75001950000016,"velocity":0.7165354330708661,"duration":0.16889887708333617},{"name":"D2","midi":38,"time":48.75001950000016,"velocity":0.7165354330708661,"duration":0.16889887708333617},{"name":"D1","midi":26,"time":48.92859100000016,"velocity":0.7322834645669292,"duration":0.16889887708333617},{"name":"D2","midi":38,"time":48.92859100000016,"velocity":0.7322834645669292,"duration":0.16889887708333617},{"name":"D1","midi":26,"time":49.107162500000165,"velocity":0.7401574803149606,"duration":0.16889887708333617},{"name":"D2","midi":38,"time":49.107162500000165,"velocity":0.7401574803149606,"duration":0.16889887708333617},{"name":"D1","midi":26,"time":50.53573450000017,"velocity":0.7559055118110236,"duration":0.16889887708333617},{"name":"D2","midi":38,"time":50.71430600000017,"velocity":0.7559055118110236,"duration":0.8474705770833353},{"name":"C1","midi":24,"time":51.607163500000176,"velocity":0.7559055118110236,"duration":0.16889887708333617},{"name":"C2","midi":36,"time":51.78573500000018,"velocity":0.7559055118110236,"duration":1.0171135020833333},{"name":"F1","midi":29,"time":52.85716400000018,"velocity":0.7559055118110236,"duration":0.5081847270833322},{"name":"F2","midi":41,"time":52.85716400000018,"velocity":0.7559055118110236,"duration":0.5081847270833322},{"name":"F1","midi":29,"time":53.39287850000018,"velocity":0.7559055118110236,"duration":0.16889887708333617},{"name":"F2","midi":41,"time":53.39287850000018,"velocity":0.7559055118110236,"duration":0.16889887708333617},{"name":"F1","midi":29,"time":53.57145000000018,"velocity":0.7559055118110236,"duration":0.3385418020833342},{"name":"C2","midi":36,"time":53.928593000000184,"velocity":0.7559055118110236,"duration":0.3385418020833342},{"name":"G2","midi":43,"time":53.928593000000184,"velocity":0.7559055118110236,"duration":0.3385418020833342},{"name":"C3","midi":48,"time":54.285736000000185,"velocity":0.7559055118110236,"duration":0.16889887708333617},{"name":"E3","midi":52,"time":54.46430750000019,"velocity":0.7559055118110236,"duration":0.16889887708333617},{"name":"G3","midi":55,"time":54.64287900000019,"velocity":0.7559055118110236,"duration":0.3385418020833342},{"name":"F1","midi":29,"time":55.00002200000019,"velocity":0.7559055118110236,"duration":0.8831848770833375},{"name":"C2","midi":36,"time":55.037224395833526,"velocity":0.7559055118110236,"duration":0.6755955083333376},{"name":"F2","midi":41,"time":55.07517083958353,"velocity":0.7559055118110236,"duration":0.8072919895833337},{"name":"A1","midi":33,"time":55.8928795000002,"velocity":0.7559055118110236,"duration":0.34747037708333295},{"name":"E2","midi":40,"time":56.071451000000195,"velocity":0.7559055118110236,"duration":0.17782745208333495},{"name":"A2","midi":45,"time":56.071451000000195,"velocity":0.7559055118110236,"duration":0.17782745208333495},{"name":"A1","midi":33,"time":56.428594000000196,"velocity":0.7559055118110236,"duration":0.17782745208333495},{"name":"E2","midi":40,"time":56.428594000000196,"velocity":0.7559055118110236,"duration":0.17782745208333495},{"name":"A2","midi":45,"time":56.428594000000196,"velocity":0.7559055118110236,"duration":0.17782745208333495},{"name":"A1","midi":33,"time":56.785737000000196,"velocity":0.7559055118110236,"duration":0.17782745208333495},{"name":"E2","midi":40,"time":56.785737000000196,"velocity":0.7559055118110236,"duration":0.17782745208333495},{"name":"A2","midi":45,"time":56.785737000000196,"velocity":0.7559055118110236,"duration":0.17782745208333495},{"name":"D2","midi":38,"time":57.1428800000002,"velocity":0.7559055118110236,"duration":0.17782745208333495},{"name":"A2","midi":45,"time":57.1428800000002,"velocity":0.7559055118110236,"duration":0.17782745208333495},{"name":"D3","midi":50,"time":57.1428800000002,"velocity":0.7559055118110236,"duration":0.17782745208333495},{"name":"A2","midi":45,"time":57.8571660000002,"velocity":0.7559055118110236,"duration":0.17782745208333495},{"name":"D2","midi":38,"time":58.2143090000002,"velocity":0.7559055118110236,"duration":0.3385418020833342},{"name":"D3","midi":50,"time":58.2143090000002,"velocity":0.7559055118110236,"duration":0.3385418020833342},{"name":"D2","midi":38,"time":58.5714520000002,"velocity":0.7559055118110236,"duration":0.3385418020833342},{"name":"D3","midi":50,"time":58.5714520000002,"velocity":0.7559055118110236,"duration":0.3385418020833342},{"name":"A1","midi":33,"time":58.9285950000002,"velocity":0.7559055118110236,"duration":0.3385418020833342},{"name":"A2","midi":45,"time":58.9285950000002,"velocity":0.7559055118110236,"duration":0.3385418020833342},{"name":"D1","midi":26,"time":59.2857380000002,"velocity":0.3858267716535433,"duration":1.6956852020833324},{"name":"D2","midi":38,"time":59.2857380000002,"velocity":0.3858267716535433,"duration":1.6956852020833324},{"name":"D1","midi":26,"time":61.0714530000002,"velocity":0.3858267716535433,"duration":1.3563993520833364},{"name":"D2","midi":38,"time":61.0714530000002,"velocity":0.3858267716535433,"duration":1.3563993520833364},{"name":"A1","midi":33,"time":62.5000250000002,"velocity":0.3858267716535433,"duration":0.6778276520833302},{"name":"A1","midi":33,"time":63.214311000000194,"velocity":0.3858267716535433,"duration":0.3385418020833342},{"name":"D1","midi":26,"time":63.571454000000195,"velocity":0.3858267716535433,"duration":1.6956852020833324},{"name":"D2","midi":38,"time":63.571454000000195,"velocity":0.3858267716535433,"duration":1.6956852020833324},{"name":"D1","midi":26,"time":65.3571690000002,"velocity":0.3858267716535433,"duration":1.3563993520833293},{"name":"D2","midi":38,"time":65.3571690000002,"velocity":0.3858267716535433,"duration":1.3563993520833293},{"name":"A1","midi":33,"time":66.7857410000002,"velocity":0.3858267716535433,"duration":0.33854180208332707},{"name":"E2","midi":40,"time":67.1428840000002,"velocity":0.3858267716535433,"duration":0.33854180208332707},{"name":"E2","midi":40,"time":67.50002700000019,"velocity":0.3858267716535433,"duration":0.33854180208332707},{"name":"E2","midi":40,"time":67.85717000000018,"velocity":0.3858267716535433,"duration":0.33854180208332707},{"name":"E2","midi":40,"time":68.21431300000017,"velocity":0.3858267716535433,"duration":0.33854180208332707},{"name":"E2","midi":40,"time":68.57145600000017,"velocity":0.3858267716535433,"duration":0.33854180208332707},{"name":"D1","midi":26,"time":68.92859900000016,"velocity":0.3858267716535433,"duration":1.0171135020833333},{"name":"D2","midi":38,"time":68.92859900000016,"velocity":0.3858267716535433,"duration":1.0171135020833333},{"name":"D1","midi":26,"time":70.00002800000016,"velocity":0.3858267716535433,"duration":1.0171135020833333},{"name":"D2","midi":38,"time":70.00002800000016,"velocity":0.3858267716535433,"duration":1.0171135020833333},{"name":"D1","midi":26,"time":71.07145700000015,"velocity":0.3858267716535433,"duration":0.33854180208332707},{"name":"D2","midi":38,"time":71.07145700000015,"velocity":0.3858267716535433,"duration":0.33854180208332707},{"name":"D1","midi":26,"time":71.42860000000015,"velocity":0.3858267716535433,"duration":1.3563993520833293},{"name":"D2","midi":38,"time":71.42860000000015,"velocity":0.3858267716535433,"duration":1.3563993520833293},{"name":"A1","midi":33,"time":72.85717200000015,"velocity":0.3858267716535433,"duration":0.33854180208332707},{"name":"D1","midi":26,"time":73.21431500000014,"velocity":0.3858267716535433,"duration":1.0171135020833333},{"name":"D2","midi":38,"time":73.21431500000014,"velocity":0.3858267716535433,"duration":1.0171135020833333},{"name":"D1","midi":26,"time":74.28574400000014,"velocity":0.3858267716535433,"duration":1.0171135020833333},{"name":"D2","midi":38,"time":74.28574400000014,"velocity":0.3858267716535433,"duration":1.0171135020833333},{"name":"D1","midi":26,"time":75.35717300000013,"velocity":0.3858267716535433,"duration":0.33854180208332707},{"name":"D2","midi":38,"time":75.35717300000013,"velocity":0.3858267716535433,"duration":0.33854180208332707},{"name":"D1","midi":26,"time":75.71431600000012,"velocity":0.3858267716535433,"duration":1.3563993520833293},{"name":"D2","midi":38,"time":75.71431600000012,"velocity":0.3858267716535433,"duration":1.3563993520833293},{"name":"A1","midi":33,"time":77.14288800000013,"velocity":0.3858267716535433,"duration":0.33854180208332707},{"name":"D1","midi":26,"time":77.50003100000012,"velocity":0.3858267716535433,"duration":1.0171135020833333},{"name":"D2","midi":38,"time":77.50003100000012,"velocity":0.3858267716535433,"duration":1.0171135020833333},{"name":"D1","midi":26,"time":78.57146000000012,"velocity":0.3858267716535433,"duration":0.33854180208332707},{"name":"D2","midi":38,"time":78.57146000000012,"velocity":0.3858267716535433,"duration":0.33854180208332707},{"name":"D1","midi":26,"time":78.92860300000011,"velocity":0.3858267716535433,"duration":0.6778276520833373},{"name":"D2","midi":38,"time":78.92860300000011,"velocity":0.3858267716535433,"duration":0.6778276520833373},{"name":"D1","midi":26,"time":79.64288900000011,"velocity":0.3858267716535433,"duration":0.33854180208332707},{"name":"D2","midi":38,"time":79.64288900000011,"velocity":0.3858267716535433,"duration":0.33854180208332707},{"name":"A1","midi":33,"time":80.0000320000001,"velocity":0.3858267716535433,"duration":0.33854180208332707},{"name":"A1","midi":33,"time":80.3571750000001,"velocity":0.3858267716535433,"duration":0.33854180208332707},{"name":"D1","midi":26,"time":80.71431800000009,"velocity":0.3858267716535433,"duration":1.0171135020833333},{"name":"D2","midi":38,"time":80.71431800000009,"velocity":0.3858267716535433,"duration":1.0171135020833333},{"name":"D1","midi":26,"time":81.78574700000009,"velocity":0.3858267716535433,"duration":0.6778276520833373},{"name":"D2","midi":38,"time":81.78574700000009,"velocity":0.3858267716535433,"duration":0.6778276520833373},{"name":"D1","midi":26,"time":82.50003300000009,"velocity":0.3858267716535433,"duration":1.0171135020833333},{"name":"D2","midi":38,"time":82.50003300000009,"velocity":0.3858267716535433,"duration":1.0171135020833333},{"name":"D1","midi":26,"time":83.57146200000008,"velocity":0.3858267716535433,"duration":0.33854180208332707},{"name":"D2","midi":38,"time":83.57146200000008,"velocity":0.3858267716535433,"duration":0.33854180208332707},{"name":"D1","midi":26,"time":83.92860500000008,"velocity":0.3858267716535433,"duration":1.0171135020833333},{"name":"D2","midi":38,"time":83.92860500000008,"velocity":0.3858267716535433,"duration":1.0171135020833333},{"name":"D2","midi":38,"time":85.00003400000007,"velocity":0.6299212598425197,"duration":1.3563993520833293},{"name":"A2","midi":45,"time":85.00003400000007,"velocity":0.6299212598425197,"duration":1.3563993520833293},{"name":"C#2","midi":37,"time":86.42860600000007,"velocity":0.6299212598425197,"duration":1.3563993520833293},{"name":"C#3","midi":49,"time":86.42860600000007,"velocity":0.6299212598425197,"duration":1.3563993520833293},{"name":"C2","midi":36,"time":87.85717800000008,"velocity":0.6299212598425197,"duration":1.3563993520833293},{"name":"C3","midi":48,"time":87.85717800000008,"velocity":0.6299212598425197,"duration":1.3563993520833293},{"name":"C#2","midi":37,"time":89.28575000000008,"velocity":0.6299212598425197,"duration":1.3563993520833577},{"name":"C#3","midi":49,"time":89.28575000000008,"velocity":0.6299212598425197,"duration":1.3563993520833577},{"name":"E5","midi":76,"time":90.00003600000008,"velocity":0.6299212598425197,"duration":0.04389882708333914},{"name":"A5","midi":81,"time":90.04467887500009,"velocity":0.6299212598425197,"duration":0.04389882708333914},{"name":"A6","midi":93,"time":90.0893217500001,"velocity":0.6299212598425197,"duration":0.04389882708333914},{"name":"A7","midi":105,"time":90.1339646250001,"velocity":0.6299212598425197,"duration":0.041666683333332344},{"name":"A#1","midi":34,"time":90.71432200000011,"velocity":0.6299212598425197,"duration":0.3563989520833388},{"name":"F2","midi":41,"time":90.76119701875011,"velocity":0.6299212598425197,"duration":0.30877988541666923},{"name":"A#2","midi":46,"time":90.80881608541678,"velocity":0.6299212598425197,"duration":0.26116081874999963},{"name":"D3","midi":50,"time":91.07146500000012,"velocity":0.6299212598425197,"duration":0.3563989520833388},{"name":"E3","midi":52,"time":91.42860800000012,"velocity":0.6299212598425197,"duration":0.3563989520833388},{"name":"F3","midi":53,"time":91.78575100000013,"velocity":0.6299212598425197,"duration":0.33854180208332707},{"name":"A1","midi":33,"time":92.14289400000013,"velocity":0.6299212598425197,"duration":0.6778276520833089},{"name":"A2","midi":45,"time":92.14289400000013,"velocity":0.6299212598425197,"duration":0.6778276520833089},{"name":"A5","midi":81,"time":92.50003700000012,"velocity":0.6299212598425197,"duration":0.026041677083327386},{"name":"C6","midi":84,"time":92.52682272500012,"velocity":0.6299212598425197,"duration":0.026041677083327386},{"name":"F6","midi":89,"time":92.55360845000011,"velocity":0.6299212598425197,"duration":0.026041677083327386},{"name":"C7","midi":96,"time":92.58039417500011,"velocity":0.6299212598425197,"duration":0.026041677083327386},{"name":"F7","midi":101,"time":92.6071799000001,"velocity":0.6299212598425197,"duration":0.02455358125000373},{"name":"F2","midi":41,"time":92.8571800000001,"velocity":0.6299212598425197,"duration":0.6778276520833089},{"name":"A2","midi":45,"time":92.8571800000001,"velocity":0.6299212598425197,"duration":0.6778276520833089},{"name":"C3","midi":48,"time":92.8571800000001,"velocity":0.6299212598425197,"duration":0.6778276520833089},{"name":"A4","midi":69,"time":93.21432300000009,"velocity":0.6299212598425197,"duration":0.026041677083327386},{"name":"A4","midi":69,"time":93.24110872500009,"velocity":0.6299212598425197,"duration":0.026041677083327386},{"name":"C6","midi":84,"time":93.26789445000009,"velocity":0.6299212598425197,"duration":0.026041677083327386},{"name":"F6","midi":89,"time":93.29468017500008,"velocity":0.6299212598425197,"duration":0.026041677083327386},{"name":"A6","midi":93,"time":93.32146590000008,"velocity":0.6299212598425197,"duration":0.02455358125000373},{"name":"G3","midi":55,"time":93.57146600000007,"velocity":0.6299212598425197,"duration":1.3563993520833293},{"name":"D4","midi":62,"time":93.57146600000007,"velocity":0.6299212598425197,"duration":1.3563993520833293},{"name":"A2","midi":45,"time":95.00003800000007,"velocity":0.6299212598425197,"duration":1.3563993520833293},{"name":"E3","midi":52,"time":95.00003800000007,"velocity":0.6299212598425197,"duration":1.3563993520833293},{"name":"A3","midi":57,"time":95.00003800000007,"velocity":0.6299212598425197,"duration":1.3563993520833293},{"name":"A4","midi":69,"time":95.71432400000008,"velocity":0.6299212598425197,"duration":0.08407741458333362},{"name":"C#5","midi":73,"time":95.80360975000008,"velocity":0.6299212598425197,"duration":0.08407741458333362},{"name":"E5","midi":76,"time":95.89289550000008,"velocity":0.6299212598425197,"duration":0.08407741458333362},{"name":"A5","midi":81,"time":95.98218125000008,"velocity":0.6299212598425197,"duration":0.08407741458333362},{"name":"C#6","midi":85,"time":96.07146700000008,"velocity":0.6299212598425197,"duration":0.08407741458333362},{"name":"E6","midi":88,"time":96.16075275000009,"velocity":0.6299212598425197,"duration":0.08407741458333362},{"name":"C#7","midi":97,"time":96.25003850000009,"velocity":0.6299212598425197,"duration":0.041666683333332344},{"name":"A6","midi":93,"time":96.29468137500008,"velocity":0.6299212598425197,"duration":0.041666683333332344},{"name":"A7","midi":105,"time":96.33932425000008,"velocity":0.6299212598425197,"duration":0.08407741458333362},{"name":"D2","midi":38,"time":96.42861000000008,"velocity":0.6299212598425197,"duration":0.7135419520833324},{"name":"A2","midi":45,"time":96.47548501875008,"velocity":0.6299212598425197,"duration":0.6659228854166628},{"name":"F3","midi":53,"time":96.52310408541675,"velocity":0.6299212598425197,"duration":0.6183038187499932},{"name":"A2","midi":45,"time":97.14289600000008,"velocity":0.6299212598425197,"duration":0.3563989520833388},{"name":"D3","midi":50,"time":97.50003900000009,"velocity":0.6299212598425197,"duration":0.33854180208332707},{"name":"C2","midi":36,"time":97.85718200000008,"velocity":0.6299212598425197,"duration":0.7135419520833324},{"name":"G2","midi":43,"time":97.90405701875008,"velocity":0.6299212598425197,"duration":0.6659228854166628},{"name":"E3","midi":52,"time":97.95167608541675,"velocity":0.6299212598425197,"duration":0.6183038187499932},{"name":"A2","midi":45,"time":98.57146800000008,"velocity":0.6299212598425197,"duration":0.3563989520833388},{"name":"E3","midi":52,"time":98.92861100000009,"velocity":0.6299212598425197,"duration":0.2671132020833369},{"name":"A#1","midi":34,"time":99.1964682500001,"velocity":0.6299212598425197,"duration":0.08854170208333301},{"name":"F3","midi":53,"time":99.2857540000001,"velocity":0.6299212598425197,"duration":0.5349704520833285},{"name":"A#2","midi":46,"time":99.8214685000001,"velocity":0.6299212598425197,"duration":0.17782745208333495},{"name":"G3","midi":55,"time":100.0000400000001,"velocity":0.6299212598425197,"duration":0.6778276520833373},{"name":"A2","midi":45,"time":100.7143260000001,"velocity":0.6299212598425197,"duration":1.4278279520833337},{"name":"E3","midi":52,"time":100.7612010187501,"velocity":0.6299212598425197,"duration":1.380208885416664},{"name":"A3","midi":57,"time":100.8080760375001,"velocity":0.6299212598425197,"duration":1.3333338666666634},{"name":"E3","midi":52,"time":102.1428980000001,"velocity":0.3858267716535433,"duration":0.5081847270833322},{"name":"A3","midi":57,"time":102.1428980000001,"velocity":0.3858267716535433,"duration":0.5081847270833322},{"name":"E3","midi":52,"time":102.6786125000001,"velocity":0.4094488188976378,"duration":0.08407741458333362},{"name":"A3","midi":57,"time":102.6786125000001,"velocity":0.4094488188976378,"duration":0.08407741458333362},{"name":"E3","midi":52,"time":102.7678982500001,"velocity":0.41732283464566927,"duration":0.08407741458333362},{"name":"A3","midi":57,"time":102.7678982500001,"velocity":0.41732283464566927,"duration":0.08407741458333362},{"name":"E3","midi":52,"time":102.8571840000001,"velocity":0.41732283464566927,"duration":0.6778276520833373},{"name":"A3","midi":57,"time":102.8571840000001,"velocity":0.41732283464566927,"duration":0.6778276520833373},{"name":"D3","midi":50,"time":103.5714700000001,"velocity":0.44881889763779526,"duration":0.5081847270833322},{"name":"G3","midi":55,"time":103.5714700000001,"velocity":0.44881889763779526,"duration":0.5081847270833322},{"name":"D3","midi":50,"time":104.1071845000001,"velocity":0.47244094488188976,"duration":0.08407741458333362},{"name":"G3","midi":55,"time":104.1071845000001,"velocity":0.47244094488188976,"duration":0.08407741458333362},{"name":"D3","midi":50,"time":104.1964702500001,"velocity":0.47244094488188976,"duration":0.08407741458333362},{"name":"G3","midi":55,"time":104.1964702500001,"velocity":0.47244094488188976,"duration":0.08407741458333362},{"name":"D3","midi":50,"time":104.2857560000001,"velocity":0.48031496062992124,"duration":0.6778276520833373},{"name":"G3","midi":55,"time":104.2857560000001,"velocity":0.48031496062992124,"duration":0.6778276520833373},{"name":"C3","midi":48,"time":105.00004200000011,"velocity":0.5039370078740157,"duration":0.5081847270833322},{"name":"E3","midi":52,"time":105.00004200000011,"velocity":0.5039370078740157,"duration":0.5081847270833322},{"name":"E3","midi":52,"time":105.5357565000001,"velocity":0.5275590551181102,"duration":0.08407741458333362},{"name":"E3","midi":52,"time":105.6250422500001,"velocity":0.5354330708661418,"duration":0.08407741458333362},{"name":"E3","midi":52,"time":105.71432800000011,"velocity":0.5354330708661418,"duration":0.6778276520833373},{"name":"D3","midi":50,"time":106.42861400000011,"velocity":0.5669291338582677,"duration":0.5081847270833322},{"name":"G3","midi":55,"time":106.42861400000011,"velocity":0.5669291338582677,"duration":0.5081847270833322},{"name":"G3","midi":55,"time":106.96432850000011,"velocity":0.5905511811023622,"duration":0.08407741458333362},{"name":"G3","midi":55,"time":107.05361425000011,"velocity":0.5905511811023622,"duration":0.08407741458333362},{"name":"D3","midi":50,"time":107.14290000000011,"velocity":0.5984251968503937,"duration":0.6778276520833373},{"name":"E3","midi":52,"time":107.85718600000011,"velocity":0.6299212598425197,"duration":0.5081847270833322},{"name":"G3","midi":55,"time":107.85718600000011,"velocity":0.6299212598425197,"duration":0.5081847270833322},{"name":"E3","midi":52,"time":108.39290050000011,"velocity":0.6299212598425197,"duration":0.08407741458333362},{"name":"G3","midi":55,"time":108.39290050000011,"velocity":0.6299212598425197,"duration":0.08407741458333362},{"name":"E3","midi":52,"time":108.48218625000011,"velocity":0.6299212598425197,"duration":0.08407741458333362},{"name":"G3","midi":55,"time":108.48218625000011,"velocity":0.6299212598425197,"duration":0.08407741458333362},{"name":"E3","midi":52,"time":108.57147200000011,"velocity":0.6299212598425197,"duration":0.6778276520833373},{"name":"G3","midi":55,"time":108.57147200000011,"velocity":0.6299212598425197,"duration":0.6778276520833373},{"name":"E3","midi":52,"time":109.28575800000011,"velocity":0.6299212598425197,"duration":0.5081847270833322},{"name":"G#3","midi":56,"time":109.28575800000011,"velocity":0.6299212598425197,"duration":0.5081847270833322},{"name":"E3","midi":52,"time":109.82147250000011,"velocity":0.6299212598425197,"duration":0.08407741458333362},{"name":"E3","midi":52,"time":109.91075825000011,"velocity":0.6299212598425197,"duration":0.08407741458333362},{"name":"E3","midi":52,"time":110.00004400000012,"velocity":0.6299212598425197,"duration":0.6778276520833373},{"name":"C3","midi":48,"time":110.71433000000012,"velocity":0.6299212598425197,"duration":1.3563993520833293},{"name":"A2","midi":45,"time":112.14290200000012,"velocity":0.6299212598425197,"duration":1.3563993520833293},{"name":"E3","midi":52,"time":112.14290200000012,"velocity":0.6299212598425197,"duration":1.3563993520833293},{"name":"A2","midi":45,"time":113.57147400000012,"velocity":0.7559055118110236,"duration":0.5081847270833322},{"name":"E3","midi":52,"time":113.57147400000012,"velocity":0.7559055118110236,"duration":0.5081847270833322},{"name":"A3","midi":57,"time":113.57147400000012,"velocity":0.7559055118110236,"duration":0.5081847270833322},{"name":"E3","midi":52,"time":114.10718850000012,"velocity":0.7559055118110236,"duration":0.08407741458333362},{"name":"A3","midi":57,"time":114.10718850000012,"velocity":0.7559055118110236,"duration":0.08407741458333362},{"name":"E3","midi":52,"time":114.19647425000012,"velocity":0.7559055118110236,"duration":0.08407741458333362},{"name":"A3","midi":57,"time":114.19647425000012,"velocity":0.7559055118110236,"duration":0.08407741458333362},{"name":"A2","midi":45,"time":114.28576000000012,"velocity":0.7559055118110236,"duration":0.6778276520833373},{"name":"E3","midi":52,"time":114.28576000000012,"velocity":0.7559055118110236,"duration":0.6778276520833373},{"name":"A3","midi":57,"time":114.28576000000012,"velocity":0.7559055118110236,"duration":0.6778276520833373},{"name":"G2","midi":43,"time":115.00004600000013,"velocity":0.7559055118110236,"duration":0.5349704520833427},{"name":"D3","midi":50,"time":115.04692101875013,"velocity":0.7559055118110236,"duration":0.4873513854166731},{"name":"B3","midi":59,"time":115.0945400854168,"velocity":0.7559055118110236,"duration":0.4397323187500035},{"name":"D3","midi":50,"time":115.53576050000014,"velocity":0.7559055118110236,"duration":0.08407741458333362},{"name":"G3","midi":55,"time":115.53576050000014,"velocity":0.7559055118110236,"duration":0.08407741458333362},{"name":"D3","midi":50,"time":115.62504625000014,"velocity":0.7559055118110236,"duration":0.08407741458333362},{"name":"G3","midi":55,"time":115.62504625000014,"velocity":0.7559055118110236,"duration":0.08407741458333362},{"name":"D3","midi":50,"time":115.71433200000014,"velocity":0.7559055118110236,"duration":0.2537203395833387},{"name":"G3","midi":55,"time":115.71433200000014,"velocity":0.7559055118110236,"duration":0.2537203395833387},{"name":"G2","midi":43,"time":115.98218925000015,"velocity":0.7559055118110236,"duration":0.08407741458333362},{"name":"D3","midi":50,"time":116.07147500000015,"velocity":0.7559055118110236,"duration":0.33854180208332707},{"name":"G3","midi":55,"time":116.07147500000015,"velocity":0.7559055118110236,"duration":0.33854180208332707},{"name":"C2","midi":36,"time":116.42861800000014,"velocity":0.7559055118110236,"duration":0.7135419520833324},{"name":"G2","midi":43,"time":116.47549301875014,"velocity":0.7559055118110236,"duration":0.6659228854166628},{"name":"C3","midi":48,"time":116.52311208541681,"velocity":0.7559055118110236,"duration":0.6183038187499932},{"name":"D2","midi":38,"time":117.14290400000014,"velocity":0.7559055118110236,"duration":0.17782745208333495},{"name":"A2","midi":45,"time":117.14290400000014,"velocity":0.7559055118110236,"duration":0.17782745208333495},{"name":"D3","midi":50,"time":117.14290400000014,"velocity":0.7559055118110236,"duration":0.17782745208333495},{"name":"E2","midi":40,"time":117.50004700000015,"velocity":0.7559055118110236,"duration":0.17782745208333495},{"name":"C3","midi":48,"time":117.50004700000015,"velocity":0.7559055118110236,"duration":0.17782745208333495},{"name":"E3","midi":52,"time":117.50004700000015,"velocity":0.7559055118110236,"duration":0.17782745208333495},{"name":"F2","midi":41,"time":117.85719000000016,"velocity":0.7559055118110236,"duration":0.5081847270833322},{"name":"C3","midi":48,"time":117.85719000000016,"velocity":0.7559055118110236,"duration":0.5081847270833322},{"name":"F3","midi":53,"time":117.85719000000016,"velocity":0.7559055118110236,"duration":0.5081847270833322},{"name":"C3","midi":48,"time":118.39290450000016,"velocity":0.7559055118110236,"duration":0.08407741458333362},{"name":"F3","midi":53,"time":118.39290450000016,"velocity":0.7559055118110236,"duration":0.08407741458333362},{"name":"C3","midi":48,"time":118.48219025000016,"velocity":0.7559055118110236,"duration":0.08407741458333362},{"name":"F3","midi":53,"time":118.48219025000016,"velocity":0.7559055118110236,"duration":0.08407741458333362},{"name":"C3","midi":48,"time":118.57147600000016,"velocity":0.7559055118110236,"duration":1.0171135020833333},{"name":"F3","midi":53,"time":118.57147600000016,"velocity":0.7559055118110236,"duration":1.0171135020833333},{"name":"A2","midi":45,"time":119.64290500000016,"velocity":0.7559055118110236,"duration":0.7135419520833324},{"name":"E3","midi":52,"time":119.68978001875016,"velocity":0.7559055118110236,"duration":0.6659228854166628},{"name":"A3","midi":57,"time":119.73739908541683,"velocity":0.7559055118110236,"duration":0.6183038187499932},{"name":"G2","midi":43,"time":120.35719100000016,"velocity":0.5039370078740157,"duration":0.6778276520833373},{"name":"D2","midi":38,"time":121.07147700000016,"velocity":0.5039370078740157,"duration":0.7135419520833324},{"name":"A2","midi":45,"time":121.11835201875016,"velocity":0.5039370078740157,"duration":0.6659228854166628},{"name":"F3","midi":53,"time":121.16597108541683,"velocity":0.5039370078740157,"duration":0.6183038187499932},{"name":"D3","midi":50,"time":121.78576300000016,"velocity":0.5039370078740157,"duration":0.33854180208332707},{"name":"D2","midi":38,"time":122.14290600000015,"velocity":0.5039370078740157,"duration":0.33854180208332707},{"name":"A2","midi":45,"time":122.14290600000015,"velocity":0.5039370078740157,"duration":0.33854180208332707},{"name":"F3","midi":53,"time":122.14290600000015,"velocity":0.5039370078740157,"duration":0.33854180208332707},{"name":"E2","midi":40,"time":122.50004900000015,"velocity":0.5039370078740157,"duration":0.6778276520833373},{"name":"E3","midi":52,"time":122.50004900000015,"velocity":0.5039370078740157,"duration":0.6778276520833373},{"name":"E2","midi":40,"time":123.21433500000015,"velocity":0.5039370078740157,"duration":1.3563993520833293},{"name":"E3","midi":52,"time":123.21433500000015,"velocity":0.5039370078740157,"duration":1.3563993520833293},{"name":"A2","midi":45,"time":124.64290700000015,"velocity":0.5039370078740157,"duration":1.3563993520833293},{"name":"D2","midi":38,"time":128.57148000000015,"velocity":0.7559055118110236,"duration":0.0572916895833373},{"name":"A2","midi":45,"time":128.62951573750016,"velocity":0.7559055118110236,"duration":0.11979171458332871},{"name":"D1","midi":26,"time":132.85719600000016,"velocity":0.6299212598425197,"duration":2.0349710520833355},{"name":"D2","midi":38,"time":132.85719600000016,"velocity":0.6299212598425197,"duration":2.0349710520833355},{"name":"D2","midi":38,"time":135.00005400000015,"velocity":0.7559055118110236,"duration":0.5081847270833464},{"name":"A2","midi":45,"time":135.00005400000015,"velocity":0.7559055118110236,"duration":0.5081847270833464},{"name":"D3","midi":50,"time":135.00005400000015,"velocity":0.7559055118110236,"duration":0.5081847270833464},{"name":"D2","midi":38,"time":135.53576850000016,"velocity":0.7559055118110236,"duration":0.5081847270833464},{"name":"A2","midi":45,"time":135.53576850000016,"velocity":0.7559055118110236,"duration":0.5081847270833464},{"name":"D3","midi":50,"time":135.53576850000016,"velocity":0.7559055118110236,"duration":0.5081847270833464},{"name":"A#1","midi":34,"time":136.07148300000017,"velocity":0.7559055118110236,"duration":0.5349704520833427},{"name":"F2","midi":41,"time":136.11835801875017,"velocity":0.7559055118110236,"duration":0.4873513854166731},{"name":"A#2","midi":46,"time":136.16597708541684,"velocity":0.7559055118110236,"duration":0.4397323187500035},{"name":"A#1","midi":34,"time":136.60719750000018,"velocity":0.7559055118110236,"duration":0.5081847270833464},{"name":"F2","midi":41,"time":136.60719750000018,"velocity":0.7559055118110236,"duration":0.5081847270833464},{"name":"A#2","midi":46,"time":136.60719750000018,"velocity":0.7559055118110236,"duration":0.5081847270833464},{"name":"A1","midi":33,"time":137.1429120000002,"velocity":0.7559055118110236,"duration":0.5349704520833427},{"name":"A2","midi":45,"time":137.1897870187502,"velocity":0.7559055118110236,"duration":0.4873513854166731},{"name":"A1","midi":33,"time":137.6786265000002,"velocity":0.7559055118110236,"duration":0.5081847270833464},{"name":"A2","midi":45,"time":137.6786265000002,"velocity":0.7559055118110236,"duration":0.5081847270833464},{"name":"D2","midi":38,"time":138.21434100000022,"velocity":0.7559055118110236,"duration":0.3563989520833388},{"name":"A2","midi":45,"time":138.26121601875022,"velocity":0.7559055118110236,"duration":0.30877988541666923},{"name":"D3","midi":50,"time":138.3088350854169,"velocity":0.7559055118110236,"duration":0.26116081874999963},{"name":"D2","midi":38,"time":138.57148400000023,"velocity":0.7559055118110236,"duration":0.3385418020833413},{"name":"A2","midi":45,"time":138.57148400000023,"velocity":0.7559055118110236,"duration":0.3385418020833413},{"name":"D3","midi":50,"time":138.57148400000023,"velocity":0.7559055118110236,"duration":0.3385418020833413},{"name":"D1","midi":26,"time":138.92862700000023,"velocity":0.7559055118110236,"duration":0.3385418020833413},{"name":"A1","midi":33,"time":138.92862700000023,"velocity":0.7559055118110236,"duration":0.3385418020833413},{"name":"D2","midi":38,"time":138.92862700000023,"velocity":0.7559055118110236,"duration":0.3385418020833413},{"name":"A#0","midi":22,"time":139.28577000000024,"velocity":0.7559055118110236,"duration":0.5081847270833464},{"name":"F1","midi":29,"time":139.28577000000024,"velocity":0.7559055118110236,"duration":0.5081847270833464},{"name":"A#1","midi":34,"time":139.28577000000024,"velocity":0.7559055118110236,"duration":0.5081847270833464},{"name":"A#1","midi":34,"time":139.82148450000025,"velocity":0.7559055118110236,"duration":0.5081847270833464},{"name":"F2","midi":41,"time":139.82148450000025,"velocity":0.7559055118110236,"duration":0.5081847270833464},{"name":"A#2","midi":46,"time":139.82148450000025,"velocity":0.7559055118110236,"duration":0.5081847270833464},{"name":"F1","midi":29,"time":140.35719900000026,"velocity":0.7559055118110236,"duration":0.5349704520833427},{"name":"C2","midi":36,"time":140.40407401875026,"velocity":0.7559055118110236,"duration":0.4873513854166731},{"name":"F2","midi":41,"time":140.45169308541693,"velocity":0.7559055118110236,"duration":0.4397323187500035},{"name":"F1","midi":29,"time":140.89291350000028,"velocity":0.7559055118110236,"duration":0.5081847270833464},{"name":"C2","midi":36,"time":140.89291350000028,"velocity":0.7559055118110236,"duration":0.5081847270833464},{"name":"F2","midi":41,"time":140.89291350000028,"velocity":0.7559055118110236,"duration":0.5081847270833464},{"name":"C1","midi":24,"time":141.4286280000003,"velocity":0.7559055118110236,"duration":0.5349704520833427},{"name":"G1","midi":31,"time":141.4755030187503,"velocity":0.7559055118110236,"duration":0.4873513854166731},{"name":"C2","midi":36,"time":141.52312208541696,"velocity":0.7559055118110236,"duration":0.4397323187500035},{"name":"C1","midi":24,"time":141.9643425000003,"velocity":0.7559055118110236,"duration":0.5081847270833464},{"name":"G1","midi":31,"time":141.9643425000003,"velocity":0.7559055118110236,"duration":0.5081847270833464},{"name":"C2","midi":36,"time":141.9643425000003,"velocity":0.7559055118110236,"duration":0.5081847270833464},{"name":"D1","midi":26,"time":142.5000570000003,"velocity":0.7559055118110236,"duration":0.3563989520833388},{"name":"D2","midi":38,"time":142.5469320187503,"velocity":0.7559055118110236,"duration":0.30877988541666923},{"name":"D1","midi":26,"time":142.85720000000032,"velocity":0.7559055118110236,"duration":0.16889887708333617},{"name":"D2","midi":38,"time":142.85720000000032,"velocity":0.7559055118110236,"duration":0.16889887708333617},{"name":"D1","midi":26,"time":143.03577150000032,"velocity":0.7559055118110236,"duration":0.16889887708333617},{"name":"D2","midi":38,"time":143.03577150000032,"velocity":0.7559055118110236,"duration":0.16889887708333617},{"name":"D1","midi":26,"time":143.21434300000033,"velocity":0.7559055118110236,"duration":0.16889887708333617},{"name":"D2","midi":38,"time":143.21434300000033,"velocity":0.7559055118110236,"duration":0.16889887708333617},{"name":"D1","midi":26,"time":143.39291450000033,"velocity":0.7559055118110236,"duration":0.16889887708333617},{"name":"D2","midi":38,"time":143.39291450000033,"velocity":0.7559055118110236,"duration":0.16889887708333617},{"name":"D1","midi":26,"time":143.57148600000033,"velocity":0.7559055118110236,"duration":0.5081847270833464},{"name":"D2","midi":38,"time":143.57148600000033,"velocity":0.7559055118110236,"duration":0.5081847270833464},{"name":"D1","midi":26,"time":144.10720050000035,"velocity":0.7559055118110236,"duration":0.5081847270833464},{"name":"D2","midi":38,"time":144.10720050000035,"velocity":0.7559055118110236,"duration":0.5081847270833464},{"name":"A#0","midi":22,"time":144.64291500000036,"velocity":0.7559055118110236,"duration":0.5349704520833427},{"name":"F1","midi":29,"time":144.68979001875036,"velocity":0.7559055118110236,"duration":0.4873513854166731},{"name":"A#1","midi":34,"time":144.73740908541703,"velocity":0.7559055118110236,"duration":0.4397323187500035},{"name":"A#0","midi":22,"time":145.17862950000037,"velocity":0.7559055118110236,"duration":0.5081847270833464},{"name":"F1","midi":29,"time":145.17862950000037,"velocity":0.7559055118110236,"duration":0.5081847270833464},{"name":"A#1","midi":34,"time":145.17862950000037,"velocity":0.7559055118110236,"duration":0.5081847270833464},{"name":"G1","midi":31,"time":145.71434400000038,"velocity":0.7559055118110236,"duration":0.5081847270833464},{"name":"G2","midi":43,"time":145.71434400000038,"velocity":0.7559055118110236,"duration":0.5081847270833464},{"name":"G1","midi":31,"time":146.2500585000004,"velocity":0.7559055118110236,"duration":0.5081847270833464},{"name":"G2","midi":43,"time":146.2500585000004,"velocity":0.7559055118110236,"duration":0.5081847270833464},{"name":"D1","midi":26,"time":146.7857730000004,"velocity":0.7559055118110236,"duration":0.3563989520833388},{"name":"D2","midi":38,"time":146.8326480187504,"velocity":0.7559055118110236,"duration":0.30877988541666923},{"name":"D2","midi":38,"time":147.1429160000004,"velocity":0.7559055118110236,"duration":0.16889887708333617},{"name":"D1","midi":26,"time":147.32148750000042,"velocity":0.7559055118110236,"duration":0.16889887708333617},{"name":"D2","midi":38,"time":147.50005900000042,"velocity":0.7559055118110236,"duration":0.16889887708333617},{"name":"A#0","midi":22,"time":147.85720200000043,"velocity":0.7559055118110236,"duration":0.5081847270833464},{"name":"F1","midi":29,"time":147.85720200000043,"velocity":0.7559055118110236,"duration":0.5081847270833464},{"name":"A#1","midi":34,"time":147.85720200000043,"velocity":0.7559055118110236,"duration":0.5081847270833464},{"name":"A#0","midi":22,"time":148.39291650000044,"velocity":0.7559055118110236,"duration":0.5081847270833464},{"name":"F1","midi":29,"time":148.39291650000044,"velocity":0.7559055118110236,"duration":0.5081847270833464},{"name":"A#1","midi":34,"time":148.39291650000044,"velocity":0.7559055118110236,"duration":0.5081847270833464},{"name":"D1","midi":26,"time":148.92863100000045,"velocity":0.7559055118110236,"duration":0.3385418020833413},{"name":"D2","midi":38,"time":148.92863100000045,"velocity":0.7559055118110236,"duration":0.3385418020833413},{"name":"D1","midi":26,"time":149.28577400000046,"velocity":0.7559055118110236,"duration":0.6778276520833231},{"name":"D2","midi":38,"time":149.28577400000046,"velocity":0.7559055118110236,"duration":0.6778276520833231},{"name":"A1","midi":33,"time":150.00006000000045,"velocity":0.7559055118110236,"duration":0.5349704520833427},{"name":"A2","midi":45,"time":150.04693501875045,"velocity":0.7559055118110236,"duration":0.4873513854166731},{"name":"A1","midi":33,"time":150.53577450000046,"velocity":0.7559055118110236,"duration":0.5081847270833464},{"name":"A2","midi":45,"time":150.53577450000046,"velocity":0.7559055118110236,"duration":0.5081847270833464},{"name":"A1","midi":33,"time":151.07148900000047,"velocity":0.7559055118110236,"duration":0.3563989520833388},{"name":"A2","midi":45,"time":151.11836401875047,"velocity":0.7559055118110236,"duration":0.30877988541666923},{"name":"A1","midi":33,"time":151.42863200000048,"velocity":0.7559055118110236,"duration":0.16889887708333617},{"name":"A2","midi":45,"time":151.42863200000048,"velocity":0.7559055118110236,"duration":0.16889887708333617},{"name":"A1","midi":33,"time":151.60720350000048,"velocity":0.7559055118110236,"duration":0.5081847270833464},{"name":"A2","midi":45,"time":151.60720350000048,"velocity":0.7559055118110236,"duration":0.5081847270833464},{"name":"D1","midi":26,"time":152.1429180000005,"velocity":0.8818897637795275,"duration":0.5349704520833427},{"name":"A1","midi":33,"time":152.1897930187505,"velocity":0.8818897637795275,"duration":0.4873513854166731},{"name":"D2","midi":38,"time":152.23741208541716,"velocity":0.8818897637795275,"duration":0.4397323187500035},{"name":"D1","midi":26,"time":152.6786325000005,"velocity":0.8818897637795275,"duration":0.5081847270833464},{"name":"A1","midi":33,"time":152.6786325000005,"velocity":0.8818897637795275,"duration":0.5081847270833464},{"name":"D2","midi":38,"time":152.6786325000005,"velocity":0.8818897637795275,"duration":0.5081847270833464},{"name":"A#0","midi":22,"time":153.21434700000052,"velocity":0.8818897637795275,"duration":0.5349704520833427},{"name":"F1","midi":29,"time":153.26122201875052,"velocity":0.8818897637795275,"duration":0.4873513854166731},{"name":"A#1","midi":34,"time":153.30884108541719,"velocity":0.8818897637795275,"duration":0.4397323187500035},{"name":"A#0","midi":22,"time":153.75006150000053,"velocity":0.8818897637795275,"duration":0.5081847270833464},{"name":"F1","midi":29,"time":153.75006150000053,"velocity":0.8818897637795275,"duration":0.5081847270833464},{"name":"A#1","midi":34,"time":153.75006150000053,"velocity":0.8818897637795275,"duration":0.5081847270833464},{"name":"A1","midi":33,"time":154.28577600000054,"velocity":0.8818897637795275,"duration":0.5081847270833464},{"name":"A2","midi":45,"time":154.28577600000054,"velocity":0.8818897637795275,"duration":0.5081847270833464},{"name":"A1","midi":33,"time":154.82149050000055,"velocity":0.8818897637795275,"duration":0.5081847270833464},{"name":"A2","midi":45,"time":154.82149050000055,"velocity":0.8818897637795275,"duration":0.5081847270833464},{"name":"D1","midi":26,"time":155.35720500000056,"velocity":0.8818897637795275,"duration":0.3385418020833413},{"name":"D2","midi":38,"time":155.35720500000056,"velocity":0.8818897637795275,"duration":0.3385418020833413},{"name":"D2","midi":38,"time":155.71434800000057,"velocity":0.8818897637795275,"duration":0.16889887708333617},{"name":"D1","midi":26,"time":155.89291950000057,"velocity":0.8818897637795275,"duration":0.16889887708333617},{"name":"D2","midi":38,"time":156.07149100000058,"velocity":0.8818897637795275,"duration":0.16889887708333617},{"name":"A#0","midi":22,"time":156.42863400000059,"velocity":0.8818897637795275,"duration":0.5349704520833427},{"name":"F1","midi":29,"time":156.47550901875059,"velocity":0.8818897637795275,"duration":0.4873513854166731},{"name":"A#1","midi":34,"time":156.52312808541726,"velocity":0.8818897637795275,"duration":0.4397323187500035},{"name":"A#0","midi":22,"time":156.9643485000006,"velocity":0.8818897637795275,"duration":0.5081847270833464},{"name":"F1","midi":29,"time":156.9643485000006,"velocity":0.8818897637795275,"duration":0.5081847270833464},{"name":"A#1","midi":34,"time":156.9643485000006,"velocity":0.8818897637795275,"duration":0.5081847270833464},{"name":"F1","midi":29,"time":157.5000630000006,"velocity":0.8818897637795275,"duration":0.5349704520833427},{"name":"C2","midi":36,"time":157.5469380187506,"velocity":0.8818897637795275,"duration":0.4873513854166731},{"name":"F2","midi":41,"time":157.59455708541728,"velocity":0.8818897637795275,"duration":0.4397323187500035},{"name":"F1","midi":29,"time":158.03577750000062,"velocity":0.8818897637795275,"duration":0.5081847270833464},{"name":"C2","midi":36,"time":158.03577750000062,"velocity":0.8818897637795275,"duration":0.5081847270833464},{"name":"F2","midi":41,"time":158.03577750000062,"velocity":0.8818897637795275,"duration":0.5081847270833464},{"name":"C2","midi":36,"time":158.57149200000063,"velocity":0.8818897637795275,"duration":0.5349704520833427},{"name":"G2","midi":43,"time":158.61836701875063,"velocity":0.8818897637795275,"duration":0.4873513854166731},{"name":"C3","midi":48,"time":158.6659860854173,"velocity":0.8818897637795275,"duration":0.4397323187500035},{"name":"C2","midi":36,"time":159.10720650000064,"velocity":0.8818897637795275,"duration":0.5081847270833464},{"name":"D1","midi":26,"time":159.64292100000065,"velocity":0.8818897637795275,"duration":0.3563989520833388},{"name":"D2","midi":38,"time":159.68979601875066,"velocity":0.8818897637795275,"duration":0.30877988541666923},{"name":"D1","midi":26,"time":160.00006400000066,"velocity":0.8818897637795275,"duration":0.16889887708333617},{"name":"D2","midi":38,"time":160.00006400000066,"velocity":0.8818897637795275,"duration":0.16889887708333617},{"name":"D1","midi":26,"time":160.17863550000067,"velocity":0.8818897637795275,"duration":0.16889887708333617},{"name":"D2","midi":38,"time":160.17863550000067,"velocity":0.8818897637795275,"duration":0.16889887708333617},{"name":"D2","midi":38,"time":160.35720700000067,"velocity":0.8818897637795275,"duration":0.16889887708333617},{"name":"D1","midi":26,"time":160.53577850000067,"velocity":0.8818897637795275,"duration":0.16889887708333617},{"name":"D1","midi":26,"time":160.71435000000068,"velocity":0.8818897637795275,"duration":0.5081847270833464},{"name":"D2","midi":38,"time":160.71435000000068,"velocity":0.8818897637795275,"duration":0.5081847270833464},{"name":"D1","midi":26,"time":161.2500645000007,"velocity":0.8818897637795275,"duration":0.5081847270833464},{"name":"D2","midi":38,"time":161.2500645000007,"velocity":0.8818897637795275,"duration":0.5081847270833464},{"name":"A#0","midi":22,"time":161.7857790000007,"velocity":0.8818897637795275,"duration":0.5349704520833427},{"name":"F1","midi":29,"time":161.8326540187507,"velocity":0.8818897637795275,"duration":0.4873513854166731},{"name":"A#1","midi":34,"time":161.88027308541737,"velocity":0.8818897637795275,"duration":0.4397323187500035},{"name":"A#0","midi":22,"time":162.3214935000007,"velocity":0.8818897637795275,"duration":0.5081847270833464},{"name":"F1","midi":29,"time":162.3214935000007,"velocity":0.8818897637795275,"duration":0.5081847270833464},{"name":"A#1","midi":34,"time":162.3214935000007,"velocity":0.8818897637795275,"duration":0.5081847270833464},{"name":"G1","midi":31,"time":162.85720800000072,"velocity":0.8818897637795275,"duration":0.5081847270833464},{"name":"G2","midi":43,"time":162.85720800000072,"velocity":0.8818897637795275,"duration":0.5081847270833464},{"name":"G1","midi":31,"time":163.39292250000074,"velocity":0.8818897637795275,"duration":0.5081847270833464},{"name":"G2","midi":43,"time":163.39292250000074,"velocity":0.8818897637795275,"duration":0.5081847270833464},{"name":"D1","midi":26,"time":163.92863700000075,"velocity":0.8818897637795275,"duration":0.3385418020833413},{"name":"D2","midi":38,"time":163.92863700000075,"velocity":0.8818897637795275,"duration":0.3385418020833413},{"name":"D1","midi":26,"time":164.28578000000076,"velocity":0.8818897637795275,"duration":0.16889887708333617},{"name":"D2","midi":38,"time":164.28578000000076,"velocity":0.8818897637795275,"duration":0.16889887708333617},{"name":"D1","midi":26,"time":164.46435150000076,"velocity":0.8818897637795275,"duration":0.16889887708333617},{"name":"D2","midi":38,"time":164.46435150000076,"velocity":0.8818897637795275,"duration":0.16889887708333617},{"name":"D1","midi":26,"time":164.64292300000076,"velocity":0.8818897637795275,"duration":0.16889887708333617},{"name":"D2","midi":38,"time":164.64292300000076,"velocity":0.8818897637795275,"duration":0.16889887708333617},{"name":"D1","midi":26,"time":164.82149450000077,"velocity":0.8818897637795275,"duration":0.16889887708333617},{"name":"D2","midi":38,"time":164.82149450000077,"velocity":0.8818897637795275,"duration":0.16889887708333617},{"name":"A#0","midi":22,"time":165.00006600000077,"velocity":0.8818897637795275,"duration":0.5081847270833464},{"name":"F1","midi":29,"time":165.00006600000077,"velocity":0.8818897637795275,"duration":0.5081847270833464},{"name":"A#1","midi":34,"time":165.00006600000077,"velocity":0.8818897637795275,"duration":0.5081847270833464},{"name":"A#0","midi":22,"time":165.53578050000078,"velocity":0.8818897637795275,"duration":0.16889887708333617},{"name":"F1","midi":29,"time":165.53578050000078,"velocity":0.8818897637795275,"duration":0.16889887708333617},{"name":"A#1","midi":34,"time":165.53578050000078,"velocity":0.8818897637795275,"duration":0.16889887708333617},{"name":"A#0","midi":22,"time":165.7143520000008,"velocity":0.8818897637795275,"duration":0.3385418020833413},{"name":"F1","midi":29,"time":165.7143520000008,"velocity":0.8818897637795275,"duration":0.3385418020833413},{"name":"A#1","midi":34,"time":165.7143520000008,"velocity":0.8818897637795275,"duration":0.3385418020833413},{"name":"D1","midi":26,"time":166.0714950000008,"velocity":0.8818897637795275,"duration":0.3385418020833413},{"name":"A1","midi":33,"time":166.0714950000008,"velocity":0.8818897637795275,"duration":0.3385418020833413},{"name":"D2","midi":38,"time":166.0714950000008,"velocity":0.8818897637795275,"duration":0.3385418020833413},{"name":"D1","midi":26,"time":166.4286380000008,"velocity":0.8818897637795275,"duration":0.16889887708333617},{"name":"A1","midi":33,"time":166.4286380000008,"velocity":0.8818897637795275,"duration":0.16889887708333617},{"name":"D2","midi":38,"time":166.4286380000008,"velocity":0.8818897637795275,"duration":0.16889887708333617},{"name":"D1","midi":26,"time":166.6072095000008,"velocity":0.8818897637795275,"duration":0.5081847270833464},{"name":"A1","midi":33,"time":166.6072095000008,"velocity":0.8818897637795275,"duration":0.5081847270833464},{"name":"D2","midi":38,"time":166.6072095000008,"velocity":0.8818897637795275,"duration":0.5081847270833464},{"name":"A1","midi":33,"time":167.14292400000082,"velocity":0.8818897637795275,"duration":0.3385418020833413},{"name":"A2","midi":45,"time":167.14292400000082,"velocity":0.8818897637795275,"duration":0.3385418020833413},{"name":"A1","midi":33,"time":167.50006700000083,"velocity":0.8818897637795275,"duration":0.3385418020833413},{"name":"A2","midi":45,"time":167.50006700000083,"velocity":0.8818897637795275,"duration":0.3385418020833413},{"name":"A1","midi":33,"time":167.85721000000083,"velocity":0.8818897637795275,"duration":0.3385418020833413},{"name":"A2","midi":45,"time":167.85721000000083,"velocity":0.8818897637795275,"duration":0.3385418020833413},{"name":"D2","midi":38,"time":168.21435300000084,"velocity":0.8818897637795275,"duration":0.3385418020833413},{"name":"D3","midi":50,"time":168.21435300000084,"velocity":0.8818897637795275,"duration":0.3385418020833413},{"name":"D2","midi":38,"time":168.57149600000085,"velocity":0.8818897637795275,"duration":0.3385418020833413},{"name":"D3","midi":50,"time":168.57149600000085,"velocity":0.8818897637795275,"duration":0.3385418020833413},{"name":"C#2","midi":37,"time":168.92863900000086,"velocity":0.8818897637795275,"duration":0.3385418020833413},{"name":"C#3","midi":49,"time":168.92863900000086,"velocity":0.8818897637795275,"duration":0.3385418020833413},{"name":"C2","midi":36,"time":169.28578200000086,"velocity":0.8818897637795275,"duration":0.3385418020833413},{"name":"C3","midi":48,"time":169.28578200000086,"velocity":0.8818897637795275,"duration":0.3385418020833413},{"name":"C2","midi":36,"time":169.64292500000087,"velocity":0.8818897637795275,"duration":0.16889887708333617},{"name":"C3","midi":48,"time":169.64292500000087,"velocity":0.8818897637795275,"duration":0.16889887708333617},{"name":"C2","midi":36,"time":169.82149650000088,"velocity":0.8818897637795275,"duration":0.16889887708333617},{"name":"C3","midi":48,"time":169.82149650000088,"velocity":0.8818897637795275,"duration":0.16889887708333617},{"name":"A#1","midi":34,"time":170.00006800000088,"velocity":0.8818897637795275,"duration":0.16889887708333617},{"name":"A#2","midi":46,"time":170.00006800000088,"velocity":0.8818897637795275,"duration":0.16889887708333617},{"name":"A1","midi":33,"time":170.3572110000009,"velocity":0.8818897637795275,"duration":0.3385418020833413},{"name":"A2","midi":45,"time":170.3572110000009,"velocity":0.8818897637795275,"duration":0.3385418020833413},{"name":"A1","midi":33,"time":170.7143540000009,"velocity":0.8818897637795275,"duration":0.16889887708333617},{"name":"A2","midi":45,"time":170.7143540000009,"velocity":0.8818897637795275,"duration":0.16889887708333617},{"name":"A1","midi":33,"time":170.8929255000009,"velocity":0.8818897637795275,"duration":0.16889887708333617},{"name":"A2","midi":45,"time":170.8929255000009,"velocity":0.8818897637795275,"duration":0.16889887708333617},{"name":"A1","midi":33,"time":171.0714970000009,"velocity":0.8818897637795275,"duration":0.16889887708333617},{"name":"A2","midi":45,"time":171.0714970000009,"velocity":0.8818897637795275,"duration":0.16889887708333617},{"name":"A1","midi":33,"time":171.2500685000009,"velocity":0.8818897637795275,"duration":0.16889887708333617},{"name":"A2","midi":45,"time":171.2500685000009,"velocity":0.8818897637795275,"duration":0.16889887708333617},{"name":"A1","midi":33,"time":171.4286400000009,"velocity":0.8818897637795275,"duration":0.3385418020833413},{"name":"A2","midi":45,"time":171.4286400000009,"velocity":0.8818897637795275,"duration":0.3385418020833413},{"name":"A1","midi":33,"time":171.78578300000092,"velocity":0.8818897637795275,"duration":0.3385418020833413},{"name":"A2","midi":45,"time":171.78578300000092,"velocity":0.8818897637795275,"duration":0.3385418020833413},{"name":"A1","midi":33,"time":172.14292600000093,"velocity":0.8818897637795275,"duration":0.3385418020833413},{"name":"A2","midi":45,"time":172.14292600000093,"velocity":0.8818897637795275,"duration":0.3385418020833413},{"name":"G1","midi":31,"time":172.50006900000093,"velocity":0.8818897637795275,"duration":0.3385418020833413},{"name":"G2","midi":43,"time":172.50006900000093,"velocity":0.8818897637795275,"duration":0.3385418020833413},{"name":"D2","midi":38,"time":172.50006900000093,"velocity":0.8818897637795275,"duration":2.034971052083364},{"name":"G1","midi":31,"time":172.85721200000094,"velocity":0.8818897637795275,"duration":0.16889887708333617},{"name":"G2","midi":43,"time":172.85721200000094,"velocity":0.8818897637795275,"duration":0.16889887708333617},{"name":"G1","midi":31,"time":173.03578350000095,"velocity":0.8818897637795275,"duration":0.16889887708333617},{"name":"G2","midi":43,"time":173.03578350000095,"velocity":0.8818897637795275,"duration":0.16889887708333617},{"name":"G1","midi":31,"time":173.21435500000095,"velocity":0.8818897637795275,"duration":0.16889887708333617},{"name":"G2","midi":43,"time":173.21435500000095,"velocity":0.8818897637795275,"duration":0.16889887708333617},{"name":"G1","midi":31,"time":173.39292650000095,"velocity":0.8818897637795275,"duration":0.16889887708333617},{"name":"G2","midi":43,"time":173.39292650000095,"velocity":0.8818897637795275,"duration":0.16889887708333617},{"name":"G1","midi":31,"time":173.57149800000096,"velocity":0.8818897637795275,"duration":0.3385418020833413},{"name":"G2","midi":43,"time":173.57149800000096,"velocity":0.8818897637795275,"duration":0.3385418020833413},{"name":"G1","midi":31,"time":173.92864100000097,"velocity":0.8818897637795275,"duration":0.16889887708333617},{"name":"G2","midi":43,"time":173.92864100000097,"velocity":0.8818897637795275,"duration":0.16889887708333617},{"name":"G1","midi":31,"time":174.10721250000097,"velocity":0.8818897637795275,"duration":0.16889887708333617},{"name":"G2","midi":43,"time":174.10721250000097,"velocity":0.8818897637795275,"duration":0.16889887708333617},{"name":"G1","midi":31,"time":174.28578400000097,"velocity":0.8818897637795275,"duration":0.33854180208331286},{"name":"G2","midi":43,"time":174.28578400000097,"velocity":0.8818897637795275,"duration":0.33854180208331286},{"name":"A1","midi":33,"time":174.64292700000095,"velocity":0.8818897637795275,"duration":0.3385418020833413},{"name":"A2","midi":45,"time":174.64292700000095,"velocity":0.8818897637795275,"duration":0.3385418020833413},{"name":"A1","midi":33,"time":175.00007000000096,"velocity":0.8818897637795275,"duration":0.3385418020833413},{"name":"A2","midi":45,"time":175.00007000000096,"velocity":0.8818897637795275,"duration":0.3385418020833413},{"name":"A1","midi":33,"time":175.35721300000097,"velocity":0.8818897637795275,"duration":0.3385418020833413},{"name":"A2","midi":45,"time":175.35721300000097,"velocity":0.8818897637795275,"duration":0.3385418020833413},{"name":"A1","midi":33,"time":175.71435600000098,"velocity":0.8818897637795275,"duration":0.16889887708333617},{"name":"A2","midi":45,"time":175.71435600000098,"velocity":0.8818897637795275,"duration":0.16889887708333617},{"name":"A1","midi":33,"time":175.89292750000098,"velocity":0.8818897637795275,"duration":0.16889887708333617},{"name":"A2","midi":45,"time":175.89292750000098,"velocity":0.8818897637795275,"duration":0.16889887708333617},{"name":"A1","midi":33,"time":176.07149900000098,"velocity":0.8818897637795275,"duration":0.16889887708333617},{"name":"A2","midi":45,"time":176.07149900000098,"velocity":0.8818897637795275,"duration":0.16889887708333617},{"name":"A1","midi":33,"time":176.250070500001,"velocity":0.8818897637795275,"duration":0.16889887708333617},{"name":"A2","midi":45,"time":176.250070500001,"velocity":0.8818897637795275,"duration":0.16889887708333617},{"name":"A1","midi":33,"time":176.428642000001,"velocity":0.8818897637795275,"duration":0.16889887708333617},{"name":"A2","midi":45,"time":176.428642000001,"velocity":0.8818897637795275,"duration":0.16889887708333617},{"name":"A1","midi":33,"time":176.607213500001,"velocity":0.8818897637795275,"duration":0.16889887708333617},{"name":"A2","midi":45,"time":176.607213500001,"velocity":0.8818897637795275,"duration":0.16889887708333617},{"name":"D1","midi":26,"time":176.785785000001,"velocity":0.8818897637795275,"duration":0.3385418020833413},{"name":"D2","midi":38,"time":176.785785000001,"velocity":0.8818897637795275,"duration":0.3385418020833413},{"name":"D1","midi":26,"time":177.142928000001,"velocity":0.8818897637795275,"duration":0.3385418020833413},{"name":"D2","midi":38,"time":177.142928000001,"velocity":0.8818897637795275,"duration":0.3385418020833413},{"name":"D1","midi":26,"time":177.50007100000101,"velocity":0.8818897637795275,"duration":0.3385418020833413},{"name":"D2","midi":38,"time":177.50007100000101,"velocity":0.8818897637795275,"duration":0.3385418020833413},{"name":"D2","midi":38,"time":177.85721400000102,"velocity":0.8818897637795275,"duration":0.16889887708333617},{"name":"D1","midi":26,"time":178.03578550000103,"velocity":0.8818897637795275,"duration":0.16889887708333617},{"name":"D1","midi":26,"time":178.21435700000103,"velocity":0.8818897637795275,"duration":0.16889887708333617},{"name":"D2","midi":38,"time":178.21435700000103,"velocity":0.8818897637795275,"duration":0.16889887708333617},{"name":"D1","midi":26,"time":178.39292850000103,"velocity":0.8818897637795275,"duration":0.16889887708333617},{"name":"D2","midi":38,"time":178.39292850000103,"velocity":0.8818897637795275,"duration":0.16889887708333617},{"name":"D1","midi":26,"time":178.57150000000104,"velocity":0.8818897637795275,"duration":0.16889887708333617},{"name":"D2","midi":38,"time":178.57150000000104,"velocity":0.8818897637795275,"duration":0.16889887708333617},{"name":"D1","midi":26,"time":178.75007150000104,"velocity":0.8818897637795275,"duration":0.16889887708333617},{"name":"D2","midi":38,"time":178.75007150000104,"velocity":0.8818897637795275,"duration":0.16889887708333617},{"name":"C1","midi":24,"time":178.92864300000105,"velocity":0.8818897637795275,"duration":0.5081847270833464},{"name":"G1","midi":31,"time":178.92864300000105,"velocity":0.8818897637795275,"duration":0.5081847270833464},{"name":"C3","midi":48,"time":179.46435750000106,"velocity":0.8818897637795275,"duration":0.16889887708333617},{"name":"G2","midi":43,"time":179.64292900000106,"velocity":0.8818897637795275,"duration":0.16889887708333617},{"name":"C2","midi":36,"time":179.82150050000106,"velocity":0.8818897637795275,"duration":0.16889887708333617},{"name":"D1","midi":26,"time":180.00007200000107,"velocity":0.8818897637795275,"duration":0.3385418020833413},{"name":"D2","midi":38,"time":180.00007200000107,"velocity":0.8818897637795275,"duration":0.3385418020833413},{"name":"D1","midi":26,"time":180.35721500000108,"velocity":0.8818897637795275,"duration":0.16889887708333617},{"name":"D2","midi":38,"time":180.35721500000108,"velocity":0.8818897637795275,"duration":0.16889887708333617},{"name":"D1","midi":26,"time":180.53578650000108,"velocity":0.8818897637795275,"duration":0.16889887708333617},{"name":"D2","midi":38,"time":180.53578650000108,"velocity":0.8818897637795275,"duration":0.16889887708333617},{"name":"D1","midi":26,"time":180.71435800000108,"velocity":0.8818897637795275,"duration":0.16889887708333617},{"name":"D2","midi":38,"time":180.71435800000108,"velocity":0.8818897637795275,"duration":0.16889887708333617},{"name":"D1","midi":26,"time":180.8929295000011,"velocity":0.8818897637795275,"duration":0.16889887708333617},{"name":"D2","midi":38,"time":180.8929295000011,"velocity":0.8818897637795275,"duration":0.16889887708333617},{"name":"D1","midi":26,"time":181.0715010000011,"velocity":0.8818897637795275,"duration":0.3385418020833413},{"name":"D2","midi":38,"time":181.0715010000011,"velocity":0.8818897637795275,"duration":0.3385418020833413},{"name":"D1","midi":26,"time":181.4286440000011,"velocity":0.8818897637795275,"duration":0.16889887708333617},{"name":"D2","midi":38,"time":181.4286440000011,"velocity":0.8818897637795275,"duration":0.16889887708333617},{"name":"D1","midi":26,"time":181.6072155000011,"velocity":0.8818897637795275,"duration":0.16889887708333617},{"name":"D2","midi":38,"time":181.6072155000011,"velocity":0.8818897637795275,"duration":0.16889887708333617},{"name":"D1","midi":26,"time":181.7857870000011,"velocity":0.8818897637795275,"duration":0.16889887708333617},{"name":"D2","midi":38,"time":181.7857870000011,"velocity":0.8818897637795275,"duration":0.16889887708333617},{"name":"D1","midi":26,"time":181.9643585000011,"velocity":0.8818897637795275,"duration":0.16889887708333617},{"name":"D2","midi":38,"time":181.9643585000011,"velocity":0.8818897637795275,"duration":0.16889887708333617},{"name":"D1","midi":26,"time":182.14293000000112,"velocity":0.8818897637795275,"duration":0.3385418020833413},{"name":"D2","midi":38,"time":182.14293000000112,"velocity":0.8818897637795275,"duration":0.3385418020833413},{"name":"D2","midi":38,"time":182.50007300000112,"velocity":0.8818897637795275,"duration":0.16889887708333617},{"name":"D1","midi":26,"time":182.67864450000113,"velocity":0.8818897637795275,"duration":0.5081847270833464},{"name":"A#1","midi":34,"time":183.21435900000114,"velocity":0.8818897637795275,"duration":0.3385418020833413},{"name":"A#2","midi":46,"time":183.21435900000114,"velocity":0.8818897637795275,"duration":0.3385418020833413},{"name":"A1","midi":33,"time":183.57150200000115,"velocity":0.8818897637795275,"duration":0.3385418020833413},{"name":"A2","midi":45,"time":183.57150200000115,"velocity":0.8818897637795275,"duration":0.3385418020833413},{"name":"A1","midi":33,"time":183.92864500000115,"velocity":0.8818897637795275,"duration":0.3385418020833413},{"name":"A2","midi":45,"time":183.92864500000115,"velocity":0.8818897637795275,"duration":0.3385418020833413},{"name":"D2","midi":38,"time":184.28578800000116,"velocity":0.8818897637795275,"duration":0.3385418020833413},{"name":"A2","midi":45,"time":184.28578800000116,"velocity":0.8818897637795275,"duration":0.3385418020833413},{"name":"D3","midi":50,"time":184.64293100000117,"velocity":0.7165354330708661,"duration":0.16889887708333617},{"name":"D3","midi":50,"time":184.82150250000117,"velocity":0.6377952755905512,"duration":0.16889887708333617},{"name":"D3","midi":50,"time":185.00007400000118,"velocity":0.5511811023622047,"duration":0.16889887708333617},{"name":"D3","midi":50,"time":185.17864550000118,"velocity":0.47244094488188976,"duration":0.16889887708333617},{"name":"D3","midi":50,"time":185.35721700000119,"velocity":0.3858267716535433,"duration":1.0171135020833333},{"name":"F3","midi":53,"time":185.35721700000119,"velocity":0.3858267716535433,"duration":1.0171135020833333},{"name":"G2","midi":43,"time":186.42864600000118,"velocity":0.3858267716535433,"duration":0.5081847270833464},{"name":"G3","midi":55,"time":186.42864600000118,"velocity":0.3858267716535433,"duration":0.5081847270833464},{"name":"C3","midi":48,"time":186.9643605000012,"velocity":0.3858267716535433,"duration":0.16889887708333617},{"name":"E3","midi":52,"time":186.9643605000012,"velocity":0.3858267716535433,"duration":0.16889887708333617},{"name":"C3","midi":48,"time":187.1429320000012,"velocity":0.3858267716535433,"duration":0.3385418020833413},{"name":"E3","midi":52,"time":187.1429320000012,"velocity":0.3858267716535433,"duration":0.3385418020833413},{"name":"F2","midi":41,"time":187.5000750000012,"velocity":0.3858267716535433,"duration":1.0171135020833333},{"name":"F3","midi":53,"time":187.5000750000012,"velocity":0.3858267716535433,"duration":1.0171135020833333},{"name":"C3","midi":48,"time":188.5715040000012,"velocity":0.3858267716535433,"duration":1.070684952083326},{"name":"E3","midi":52,"time":188.6183790187512,"velocity":0.3858267716535433,"duration":1.0230658854166563},{"name":"G3","midi":55,"time":188.6652540375012,"velocity":0.3858267716535433,"duration":0.9761908666666557},{"name":"C3","midi":48,"time":189.6429330000012,"velocity":0.3858267716535433,"duration":1.0171135020833333},{"name":"F3","midi":53,"time":189.6429330000012,"velocity":0.3858267716535433,"duration":1.0171135020833333},{"name":"A2","midi":45,"time":190.7143620000012,"velocity":0.3858267716535433,"duration":0.3385418020833413},{"name":"E3","midi":52,"time":190.7143620000012,"velocity":0.3858267716535433,"duration":0.3385418020833413},{"name":"F3","midi":53,"time":191.0715050000012,"velocity":0.3858267716535433,"duration":0.5081847270833464},{"name":"E3","midi":52,"time":191.6072195000012,"velocity":0.3858267716535433,"duration":0.16889887708333617},{"name":"D3","midi":50,"time":191.7857910000012,"velocity":0.3858267716535433,"duration":1.0171135020833333},{"name":"D2","midi":38,"time":192.8572200000012,"velocity":0.3858267716535433,"duration":0.3563989520833388},{"name":"A2","midi":45,"time":192.9040950187512,"velocity":0.3858267716535433,"duration":0.30877988541666923},{"name":"D3","midi":50,"time":192.95171408541788,"velocity":0.3858267716535433,"duration":0.26116081874999963},{"name":"D3","midi":50,"time":193.2143630000012,"velocity":0.3858267716535433,"duration":0.16889887708333617},{"name":"A3","midi":57,"time":193.2143630000012,"velocity":0.3858267716535433,"duration":0.16889887708333617},{"name":"D3","midi":50,"time":193.39293450000122,"velocity":0.3858267716535433,"duration":0.16889887708333617},{"name":"A3","midi":57,"time":193.39293450000122,"velocity":0.3858267716535433,"duration":0.16889887708333617},{"name":"D3","midi":50,"time":193.57150600000122,"velocity":0.3858267716535433,"duration":0.16889887708333617},{"name":"A3","midi":57,"time":193.57150600000122,"velocity":0.3858267716535433,"duration":0.16889887708333617},{"name":"D3","midi":50,"time":193.75007750000123,"velocity":0.3858267716535433,"duration":0.16889887708333617},{"name":"A3","midi":57,"time":193.75007750000123,"velocity":0.3858267716535433,"duration":0.16889887708333617},{"name":"D3","midi":50,"time":193.92864900000123,"velocity":0.3858267716535433,"duration":0.17782745208333495},{"name":"A3","midi":57,"time":194.10722050000123,"velocity":0.3858267716535433,"duration":0.17782745208333495},{"name":"D4","midi":62,"time":194.28579200000124,"velocity":0.3858267716535433,"duration":0.17782745208333495},{"name":"E4","midi":64,"time":194.46436350000124,"velocity":0.3858267716535433,"duration":0.17782745208333495},{"name":"F4","midi":65,"time":194.64293500000124,"velocity":0.3858267716535433,"duration":0.16889887708333617},{"name":"C4","midi":60,"time":195.00007800000125,"velocity":0.3858267716535433,"duration":1.0171135020833333},{"name":"G4","midi":67,"time":195.00007800000125,"velocity":0.3858267716535433,"duration":1.0171135020833333},{"name":"F4","midi":65,"time":196.07150700000125,"velocity":0.3858267716535433,"duration":0.3385418020833413},{"name":"E4","midi":64,"time":196.42865000000126,"velocity":0.3858267716535433,"duration":0.3385418020833413},{"name":"D4","midi":62,"time":196.78579300000126,"velocity":0.3858267716535433,"duration":0.3385418020833413},{"name":"A#3","midi":58,"time":197.14293600000127,"velocity":0.3858267716535433,"duration":1.0171135020833333},{"name":"D4","midi":62,"time":197.14293600000127,"velocity":0.3858267716535433,"duration":1.0171135020833333},{"name":"D4","midi":62,"time":198.21436500000127,"velocity":0.3858267716535433,"duration":1.0171135020833333},{"name":"G3","midi":55,"time":199.28579400000126,"velocity":0.3858267716535433,"duration":1.070684952083326},{"name":"D4","midi":62,"time":199.33266901875126,"velocity":0.3858267716535433,"duration":1.0230658854166563},{"name":"G4","midi":67,"time":199.37954403750126,"velocity":0.3858267716535433,"duration":0.9761908666666557},{"name":"A3","midi":57,"time":200.35722300000126,"velocity":0.3858267716535433,"duration":1.070684952083326},{"name":"F4","midi":65,"time":200.40409801875126,"velocity":0.3858267716535433,"duration":1.0230658854166563},{"name":"A3","midi":57,"time":201.42865200000125,"velocity":0.3858267716535433,"duration":1.070684952083326},{"name":"F4","midi":65,"time":201.47552701875125,"velocity":0.3858267716535433,"duration":1.0230658854166563},{"name":"D1","midi":26,"time":202.50008100000125,"velocity":0.8818897637795275,"duration":0.3385418020833413},{"name":"A1","midi":33,"time":202.50008100000125,"velocity":0.8818897637795275,"duration":0.3385418020833413},{"name":"D2","midi":38,"time":202.50008100000125,"velocity":0.8818897637795275,"duration":0.3385418020833413},{"name":"D1","midi":26,"time":202.85722400000125,"velocity":0.8818897637795275,"duration":0.16889887708333617},{"name":"D2","midi":38,"time":202.85722400000125,"velocity":0.8818897637795275,"duration":0.16889887708333617},{"name":"D1","midi":26,"time":203.03579550000126,"velocity":0.8818897637795275,"duration":0.16889887708333617},{"name":"D2","midi":38,"time":203.03579550000126,"velocity":0.8818897637795275,"duration":0.16889887708333617},{"name":"D1","midi":26,"time":203.21436700000126,"velocity":0.8818897637795275,"duration":0.16889887708333617},{"name":"D2","midi":38,"time":203.21436700000126,"velocity":0.8818897637795275,"duration":0.16889887708333617},{"name":"D1","midi":26,"time":203.39293850000126,"velocity":0.8818897637795275,"duration":0.16889887708333617},{"name":"D2","midi":38,"time":203.39293850000126,"velocity":0.8818897637795275,"duration":0.16889887708333617},{"name":"G1","midi":31,"time":203.57151000000127,"velocity":0.8818897637795275,"duration":0.5081847270833464},{"name":"G2","midi":43,"time":203.57151000000127,"velocity":0.8818897637795275,"duration":0.5081847270833464},{"name":"G1","midi":31,"time":204.10722450000128,"velocity":0.8818897637795275,"duration":0.5081847270833464},{"name":"G2","midi":43,"time":204.10722450000128,"velocity":0.8818897637795275,"duration":0.5081847270833464},{"name":"F1","midi":29,"time":204.6429390000013,"velocity":0.8818897637795275,"duration":0.5081847270833464},{"name":"F2","midi":41,"time":204.6429390000013,"velocity":0.8818897637795275,"duration":0.5081847270833464},{"name":"F1","midi":29,"time":205.1786535000013,"velocity":0.8818897637795275,"duration":0.16889887708333617},{"name":"F2","midi":41,"time":205.3572250000013,"velocity":0.8818897637795275,"duration":0.16889887708333617},{"name":"F1","midi":29,"time":205.5357965000013,"velocity":0.8818897637795275,"duration":0.16889887708333617},{"name":"C1","midi":24,"time":205.71436800000131,"velocity":0.8818897637795275,"duration":0.3385418020833413},{"name":"C2","midi":36,"time":205.71436800000131,"velocity":0.8818897637795275,"duration":0.3385418020833413},{"name":"C1","midi":24,"time":206.07151100000132,"velocity":0.8818897637795275,"duration":0.16889887708333617},{"name":"C2","midi":36,"time":206.07151100000132,"velocity":0.8818897637795275,"duration":0.16889887708333617},{"name":"C1","midi":24,"time":206.25008250000133,"velocity":0.8818897637795275,"duration":0.16889887708333617},{"name":"C2","midi":36,"time":206.25008250000133,"velocity":0.8818897637795275,"duration":0.16889887708333617},{"name":"C1","midi":24,"time":206.42865400000133,"velocity":0.8818897637795275,"duration":0.3385418020833413},{"name":"C2","midi":36,"time":206.42865400000133,"velocity":0.8818897637795275,"duration":0.3385418020833413},{"name":"G1","midi":31,"time":206.78579700000134,"velocity":0.8818897637795275,"duration":1.0171135020833333},{"name":"G2","midi":43,"time":206.78579700000134,"velocity":0.8818897637795275,"duration":1.0171135020833333},{"name":"A1","midi":33,"time":207.85722600000133,"velocity":0.8818897637795275,"duration":0.3385418020833413},{"name":"A2","midi":45,"time":207.85722600000133,"velocity":0.8818897637795275,"duration":0.3385418020833413},{"name":"A1","midi":33,"time":208.21436900000134,"velocity":0.8818897637795275,"duration":0.16889887708333617},{"name":"A2","midi":45,"time":208.21436900000134,"velocity":0.8818897637795275,"duration":0.16889887708333617},{"name":"A1","midi":33,"time":208.39294050000134,"velocity":0.8818897637795275,"duration":0.16889887708333617},{"name":"A2","midi":45,"time":208.39294050000134,"velocity":0.8818897637795275,"duration":0.16889887708333617},{"name":"A1","midi":33,"time":208.57151200000135,"velocity":0.8818897637795275,"duration":0.16889887708333617},{"name":"A2","midi":45,"time":208.57151200000135,"velocity":0.8818897637795275,"duration":0.16889887708333617},{"name":"A1","midi":33,"time":208.75008350000135,"velocity":0.8818897637795275,"duration":0.16889887708333617},{"name":"A2","midi":45,"time":208.75008350000135,"velocity":0.8818897637795275,"duration":0.16889887708333617},{"name":"A1","midi":33,"time":208.92865500000136,"velocity":0.8818897637795275,"duration":0.3385418020833413},{"name":"A2","midi":45,"time":208.92865500000136,"velocity":0.8818897637795275,"duration":0.3385418020833413},{"name":"A1","midi":33,"time":209.28579800000136,"velocity":0.8818897637795275,"duration":0.3385418020833413},{"name":"A2","midi":45,"time":209.28579800000136,"velocity":0.8818897637795275,"duration":0.3385418020833413},{"name":"A1","midi":33,"time":209.64294100000137,"velocity":0.8818897637795275,"duration":0.3385418020833413},{"name":"A2","midi":45,"time":209.64294100000137,"velocity":0.8818897637795275,"duration":0.3385418020833413},{"name":"A1","midi":33,"time":210.00008400000138,"velocity":0.8818897637795275,"duration":1.0171135020833333},{"name":"A2","midi":45,"time":210.00008400000138,"velocity":0.8818897637795275,"duration":1.0171135020833333},{"name":"D1","midi":26,"time":211.07151300000137,"velocity":0.8818897637795275,"duration":0.5081847270833464},{"name":"D2","midi":38,"time":211.07151300000137,"velocity":0.8818897637795275,"duration":0.5081847270833464},{"name":"D1","midi":26,"time":211.6072275000014,"velocity":0.8818897637795275,"duration":0.16889887708333617},{"name":"D2","midi":38,"time":211.6072275000014,"velocity":0.8818897637795275,"duration":0.16889887708333617},{"name":"D1","midi":26,"time":211.7857990000014,"velocity":0.8818897637795275,"duration":0.16889887708333617},{"name":"D2","midi":38,"time":211.7857990000014,"velocity":0.8818897637795275,"duration":0.16889887708333617},{"name":"D1","midi":26,"time":211.9643705000014,"velocity":0.8818897637795275,"duration":0.16889887708333617},{"name":"D2","midi":38,"time":211.9643705000014,"velocity":0.8818897637795275,"duration":0.16889887708333617},{"name":"A#1","midi":34,"time":212.1429420000014,"velocity":0.8818897637795275,"duration":0.5081847270833464},{"name":"A#2","midi":46,"time":212.1429420000014,"velocity":0.8818897637795275,"duration":0.5081847270833464},{"name":"A#1","midi":34,"time":212.6786565000014,"velocity":0.8818897637795275,"duration":0.16889887708333617},{"name":"A#2","midi":46,"time":212.6786565000014,"velocity":0.8818897637795275,"duration":0.16889887708333617},{"name":"A#1","midi":34,"time":212.8572280000014,"velocity":0.8818897637795275,"duration":0.3385418020833413},{"name":"A#2","midi":46,"time":212.8572280000014,"velocity":0.8818897637795275,"duration":0.3385418020833413},{"name":"F1","midi":29,"time":213.21437100000142,"velocity":0.8818897637795275,"duration":0.5081847270833464},{"name":"F2","midi":41,"time":213.21437100000142,"velocity":0.8818897637795275,"duration":0.5081847270833464},{"name":"F1","midi":29,"time":213.75008550000143,"velocity":0.8818897637795275,"duration":0.5081847270833464},{"name":"F2","midi":41,"time":213.75008550000143,"velocity":0.8818897637795275,"duration":0.5081847270833464},{"name":"D1","midi":26,"time":214.28580000000144,"velocity":0.8818897637795275,"duration":0.3385418020833413},{"name":"D2","midi":38,"time":214.28580000000144,"velocity":0.8818897637795275,"duration":0.3385418020833413},{"name":"D1","midi":26,"time":214.64294300000145,"velocity":0.8818897637795275,"duration":0.16889887708333617},{"name":"C2","midi":36,"time":214.64294300000145,"velocity":0.8818897637795275,"duration":0.16889887708333617},{"name":"C1","midi":24,"time":214.82151450000146,"velocity":0.8818897637795275,"duration":0.16889887708333617},{"name":"C2","midi":36,"time":214.82151450000146,"velocity":0.8818897637795275,"duration":0.16889887708333617},{"name":"C1","midi":24,"time":215.00008600000146,"velocity":0.8818897637795275,"duration":0.16889887708333617},{"name":"C2","midi":36,"time":215.00008600000146,"velocity":0.8818897637795275,"duration":0.16889887708333617},{"name":"C1","midi":24,"time":215.17865750000146,"velocity":0.8818897637795275,"duration":0.16889887708333617},{"name":"C2","midi":36,"time":215.17865750000146,"velocity":0.8818897637795275,"duration":0.16889887708333617},{"name":"G1","midi":31,"time":215.35722900000147,"velocity":0.8818897637795275,"duration":1.0171135020833333},{"name":"G2","midi":43,"time":215.35722900000147,"velocity":0.8818897637795275,"duration":1.0171135020833333},{"name":"A1","midi":33,"time":216.78580100000147,"velocity":0.6299212598425197,"duration":0.16889887708333617},{"name":"A2","midi":45,"time":216.78580100000147,"velocity":0.6299212598425197,"duration":0.16889887708333617},{"name":"A1","midi":33,"time":216.96437250000147,"velocity":0.6299212598425197,"duration":0.16889887708333617},{"name":"A2","midi":45,"time":216.96437250000147,"velocity":0.6299212598425197,"duration":0.16889887708333617},{"name":"A1","midi":33,"time":217.14294400000148,"velocity":0.6299212598425197,"duration":0.16889887708333617},{"name":"A2","midi":45,"time":217.14294400000148,"velocity":0.6299212598425197,"duration":0.16889887708333617},{"name":"A1","midi":33,"time":217.32151550000148,"velocity":0.6299212598425197,"duration":0.16889887708333617},{"name":"A2","midi":45,"time":217.32151550000148,"velocity":0.6299212598425197,"duration":0.16889887708333617},{"name":"A1","midi":33,"time":217.50008700000149,"velocity":0.6299212598425197,"duration":0.3385418020833413},{"name":"A2","midi":45,"time":217.50008700000149,"velocity":0.6299212598425197,"duration":0.3385418020833413},{"name":"A1","midi":33,"time":217.8572300000015,"velocity":0.6299212598425197,"duration":0.3385418020833413},{"name":"A2","midi":45,"time":217.8572300000015,"velocity":0.6299212598425197,"duration":0.3385418020833413},{"name":"A1","midi":33,"time":218.2143730000015,"velocity":0.6299212598425197,"duration":0.3385418020833413},{"name":"A2","midi":45,"time":218.2143730000015,"velocity":0.6299212598425197,"duration":0.3385418020833413},{"name":"D1","midi":26,"time":218.5715160000015,"velocity":0.6299212598425197,"duration":0.3385418020833413},{"name":"D2","midi":38,"time":218.5715160000015,"velocity":0.6299212598425197,"duration":0.3385418020833413},{"name":"D1","midi":26,"time":218.92865900000152,"velocity":0.6299212598425197,"duration":0.16889887708333617},{"name":"D2","midi":38,"time":218.92865900000152,"velocity":0.6299212598425197,"duration":0.16889887708333617},{"name":"D1","midi":26,"time":219.10723050000152,"velocity":0.6299212598425197,"duration":0.16889887708333617},{"name":"D2","midi":38,"time":219.10723050000152,"velocity":0.6299212598425197,"duration":0.16889887708333617},{"name":"D1","midi":26,"time":219.28580200000152,"velocity":0.6299212598425197,"duration":0.16889887708333617},{"name":"D2","midi":38,"time":219.28580200000152,"velocity":0.6299212598425197,"duration":0.16889887708333617},{"name":"D1","midi":26,"time":219.46437350000153,"velocity":0.6299212598425197,"duration":0.16889887708333617},{"name":"D2","midi":38,"time":219.46437350000153,"velocity":0.6299212598425197,"duration":0.16889887708333617},{"name":"D1","midi":26,"time":219.64294500000153,"velocity":0.6299212598425197,"duration":1.0171135020833617},{"name":"D2","midi":38,"time":219.64294500000153,"velocity":0.6299212598425197,"duration":1.0171135020833617},{"name":"A2","midi":45,"time":220.17865950000154,"velocity":0.5039370078740157,"duration":0.16889887708333617},{"name":"D3","midi":50,"time":220.35723100000155,"velocity":0.5039370078740157,"duration":0.16889887708333617},{"name":"A3","midi":57,"time":220.53580250000155,"velocity":0.5039370078740157,"duration":0.16889887708333617},{"name":"F3","midi":53,"time":220.71437400000156,"velocity":0.5039370078740157,"duration":0.16889887708333617},{"name":"A3","midi":57,"time":220.89294550000156,"velocity":0.5039370078740157,"duration":0.16889887708333617},{"name":"D4","midi":62,"time":221.07151700000156,"velocity":0.5039370078740157,"duration":0.16889887708333617},{"name":"A3","midi":57,"time":221.25008850000157,"velocity":0.5039370078740157,"duration":0.16889887708333617},{"name":"D4","midi":62,"time":221.42866000000157,"velocity":0.5039370078740157,"duration":0.16889887708333617},{"name":"F4","midi":65,"time":221.60723150000157,"velocity":0.5039370078740157,"duration":0.16889887708333617},{"name":"D5","midi":74,"time":227.14294800000158,"velocity":0.3858267716535433,"duration":0.6778276520833231},{"name":"D5","midi":74,"time":228.21437700000158,"velocity":0.3858267716535433,"duration":0.3563989520833388},{"name":"A5","midi":81,"time":228.57152000000158,"velocity":0.3858267716535433,"duration":0.6778276520833231},{"name":"D5","midi":74,"time":229.28580600000157,"velocity":0.3858267716535433,"duration":0.3563989520833388},{"name":"A5","midi":81,"time":229.64294900000158,"velocity":0.3858267716535433,"duration":0.3385418020833413},{"name":"D5","midi":74,"time":230.3572350000016,"velocity":0.3858267716535433,"duration":0.3563989520833388},{"name":"A5","midi":81,"time":230.7143780000016,"velocity":0.3858267716535433,"duration":0.3385418020833413},{"name":"C5","midi":72,"time":231.42866400000162,"velocity":0.3858267716535433,"duration":0.3563989520833388},{"name":"G5","midi":79,"time":231.78580700000163,"velocity":0.3858267716535433,"duration":0.6778276520833231},{"name":"D5","midi":74,"time":232.5000930000016,"velocity":0.3858267716535433,"duration":0.3385418020833413},{"name":"A5","midi":81,"time":232.85723600000162,"velocity":0.3858267716535433,"duration":0.3385418020833413},{"name":"D5","midi":74,"time":233.57152200000164,"velocity":0.3858267716535433,"duration":0.6778276520833231},{"name":"D5","midi":74,"time":234.64295100000163,"velocity":0.4566929133858268,"duration":0.3563989520833388},{"name":"G5","midi":79,"time":235.00009400000164,"velocity":0.3858267716535433,"duration":0.3385418020833413},{"name":"D5","midi":74,"time":235.71438000000165,"velocity":0.3858267716535433,"duration":0.3563989520833388},{"name":"A5","midi":81,"time":236.07152300000166,"velocity":0.3858267716535433,"duration":0.3385418020833413},{"name":"E5","midi":76,"time":236.78580900000168,"velocity":0.3858267716535433,"duration":0.3563989520833388},{"name":"G5","midi":79,"time":237.14295200000169,"velocity":0.3858267716535433,"duration":0.3563989520833388},{"name":"C#5","midi":73,"time":237.5000950000017,"velocity":0.3858267716535433,"duration":0.3563989520833388},{"name":"D5","midi":74,"time":237.8572380000017,"velocity":0.3858267716535433,"duration":0.6778276520833231},{"name":"C5","midi":72,"time":238.9286670000017,"velocity":0.3858267716535433,"duration":0.3563989520833388},{"name":"E5","midi":76,"time":239.2858100000017,"velocity":0.3858267716535433,"duration":0.3385418020833413},{"name":"D5","midi":74,"time":240.00009600000172,"velocity":0.3858267716535433,"duration":1.0171135020833333},{"name":"D5","midi":74,"time":241.0715250000017,"velocity":0.3858267716535433,"duration":0.6778276520833231},{"name":"D2","midi":38,"time":242.50009700000172,"velocity":0.3858267716535433,"duration":0.3563989520833388},{"name":"F3","midi":53,"time":242.54697201875172,"velocity":0.3858267716535433,"duration":0.30877988541666923},{"name":"A3","midi":57,"time":242.85724000000172,"velocity":0.3858267716535433,"duration":0.17782745208333495},{"name":"D4","midi":62,"time":243.03581150000173,"velocity":0.3858267716535433,"duration":0.17782745208333495},{"name":"A3","midi":57,"time":243.21438300000173,"velocity":0.3858267716535433,"duration":0.16889887708333617},{"name":"F2","midi":41,"time":243.75009750000174,"velocity":0.3858267716535433,"duration":0.17782745208333495},{"name":"C3","midi":48,"time":243.92866900000175,"velocity":0.3858267716535433,"duration":0.17782745208333495},{"name":"A3","midi":57,"time":244.10724050000175,"velocity":0.3858267716535433,"duration":0.3385418020833413},{"name":"D2","midi":38,"time":244.82152650000177,"velocity":0.5039370078740157,"duration":0.17782745208333495},{"name":"A2","midi":45,"time":245.00009800000177,"velocity":0.5039370078740157,"duration":0.17782745208333495},{"name":"D3","midi":50,"time":245.17866950000177,"velocity":0.5039370078740157,"duration":0.17782745208333495},{"name":"F3","midi":53,"time":245.35724100000178,"velocity":0.5039370078740157,"duration":0.16889887708333617},{"name":"D2","midi":38,"time":245.8929555000018,"velocity":0.5039370078740157,"duration":0.17782745208333495},{"name":"A2","midi":45,"time":246.0715270000018,"velocity":0.5039370078740157,"duration":0.17782745208333495},{"name":"D3","midi":50,"time":246.2500985000018,"velocity":0.5039370078740157,"duration":0.17782745208333495},{"name":"F3","midi":53,"time":246.4286700000018,"velocity":0.5039370078740157,"duration":0.17782745208333495},{"name":"A3","midi":57,"time":246.6072415000018,"velocity":0.5039370078740157,"duration":0.3385418020833413},{"name":"D2","midi":38,"time":246.9643845000018,"velocity":0.5039370078740157,"duration":0.17782745208333495},{"name":"D3","midi":50,"time":247.14295600000182,"velocity":0.5196850393700787,"duration":0.17782745208333495},{"name":"F3","midi":53,"time":247.32152750000182,"velocity":0.5433070866141733,"duration":0.17782745208333495},{"name":"A3","midi":57,"time":247.50009900000182,"velocity":0.5669291338582677,"duration":0.17782745208333495},{"name":"A#3","midi":58,"time":247.67867050000183,"velocity":0.5826771653543307,"duration":0.3385418020833413},{"name":"C3","midi":48,"time":248.03581350000184,"velocity":0.6299212598425197,"duration":0.17782745208336337},{"name":"E3","midi":52,"time":248.06706351250185,"velocity":0.6299212598425197,"duration":0.14657743958335345},{"name":"G3","midi":55,"time":248.09831352500186,"velocity":0.6299212598425197,"duration":0.11532742708334354},{"name":"C4","midi":60,"time":248.12956353750187,"velocity":0.6299212598425197,"duration":0.08407741458333362},{"name":"E4","midi":64,"time":248.21438500000187,"velocity":0.6299212598425197,"duration":0.17782745208333495},{"name":"G4","midi":67,"time":248.39295650000187,"velocity":0.6299212598425197,"duration":0.16889887708333617},{"name":"C5","midi":72,"time":248.57152800000188,"velocity":0.6299212598425197,"duration":0.17782745208333495},{"name":"D2","midi":38,"time":249.1072425000019,"velocity":0.6299212598425197,"duration":0.17782745208333495},{"name":"A2","midi":45,"time":249.2858140000019,"velocity":0.6299212598425197,"duration":0.17782745208333495},{"name":"F3","midi":53,"time":249.4643855000019,"velocity":0.6299212598425197,"duration":0.17782745208333495},{"name":"A3","midi":57,"time":249.6429570000019,"velocity":0.6299212598425197,"duration":0.16889887708333617},{"name":"A#3","midi":58,"time":250.5358145000019,"velocity":0.6299212598425197,"duration":0.3385418020833413},{"name":"A3","midi":57,"time":250.8929575000019,"velocity":0.6299212598425197,"duration":0.3385418020833413},{"name":"G3","midi":55,"time":251.2501005000019,"velocity":0.6299212598425197,"duration":0.6778276520833231},{"name":"A#3","midi":58,"time":251.2501005000019,"velocity":0.6299212598425197,"duration":0.6778276520833231},{"name":"D4","midi":62,"time":251.2501005000019,"velocity":0.6299212598425197,"duration":0.6778276520833231},{"name":"A#3","midi":58,"time":251.9643865000019,"velocity":0.6299212598425197,"duration":0.3385418020833413},{"name":"E4","midi":64,"time":251.9643865000019,"velocity":0.6299212598425197,"duration":0.3385418020833413},{"name":"D3","midi":50,"time":252.3215295000019,"velocity":0.6299212598425197,"duration":0.7135419520833466},{"name":"A3","midi":57,"time":252.3684045187519,"velocity":0.6299212598425197,"duration":0.665922885416677},{"name":"F4","midi":65,"time":252.41602358541857,"velocity":0.6299212598425197,"duration":0.6183038187500074},{"name":"G3","midi":55,"time":253.39295850000192,"velocity":0.6299212598425197,"duration":0.3563989520833388},{"name":"A#3","midi":58,"time":253.75010150000193,"velocity":0.6299212598425197,"duration":0.3385418020833413},{"name":"C#3","midi":49,"time":254.10724450000194,"velocity":0.6299212598425197,"duration":0.3563989520833388},{"name":"E3","midi":52,"time":254.15411951875194,"velocity":0.6299212598425197,"duration":0.30877988541666923},{"name":"A3","midi":57,"time":254.2017385854186,"velocity":0.6299212598425197,"duration":0.26116081874999963},{"name":"D3","midi":50,"time":254.46438750000195,"velocity":0.6299212598425197,"duration":0.17782745208333495},{"name":"A3","midi":57,"time":254.64295900000195,"velocity":0.6299212598425197,"duration":0.17782745208333495},{"name":"E4","midi":64,"time":254.82153050000196,"velocity":0.6299212598425197,"duration":0.17782745208333495},{"name":"A3","midi":57,"time":255.00010200000196,"velocity":0.6299212598425197,"duration":0.16889887708333617},{"name":"A2","midi":45,"time":255.53581650000197,"velocity":0.6299212598425197,"duration":0.7135419520833182},{"name":"E3","midi":52,"time":255.58269151875197,"velocity":0.6299212598425197,"duration":0.6659228854166486},{"name":"G3","midi":55,"time":255.63031058541864,"velocity":0.6299212598425197,"duration":0.618303818749979},{"name":"A2","midi":45,"time":256.42867400000193,"velocity":0.5039370078740157,"duration":0.16889887708333617},{"name":"E3","midi":52,"time":256.42867400000193,"velocity":0.5039370078740157,"duration":0.16889887708333617},{"name":"A2","midi":45,"time":256.6072455000019,"velocity":0.4881889763779528,"duration":0.3385418020833413},{"name":"E3","midi":52,"time":256.6072455000019,"velocity":0.4881889763779528,"duration":0.3385418020833413},{"name":"A3","midi":57,"time":257.1429600000019,"velocity":0.4409448818897638,"duration":0.16889887708333617},{"name":"F3","midi":53,"time":257.32153150000187,"velocity":0.4251968503937008,"duration":0.16889887708333617},{"name":"D3","midi":50,"time":257.50010300000184,"velocity":0.4094488188976378,"duration":0.16889887708333617},{"name":"A2","midi":45,"time":257.6786745000018,"velocity":0.3858267716535433,"duration":0.08333336666669311},{"name":"D2","midi":38,"time":257.7672162020852,"velocity":0.3858267716535433,"duration":0.08333336666669311},{"name":"A2","midi":45,"time":257.85650195208524,"velocity":0.3858267716535433,"duration":0.08333336666669311},{"name":"D2","midi":38,"time":257.9450436541686,"velocity":0.3858267716535433,"duration":0.08333336666669311},{"name":"A2","midi":45,"time":258.03432940416866,"velocity":0.3858267716535433,"duration":0.08333336666669311},{"name":"D2","midi":38,"time":258.12287110625203,"velocity":0.3858267716535433,"duration":0.08333336666669311},{"name":"A2","midi":45,"time":258.2121568562521,"velocity":0.3858267716535433,"duration":0.08333336666669311},{"name":"D2","midi":38,"time":258.30069855833545,"velocity":0.3858267716535433,"duration":0.08333336666669311},{"name":"A2","midi":45,"time":258.3899843083355,"velocity":0.3858267716535433,"duration":0.08333336666669311},{"name":"D2","midi":38,"time":258.4785260104189,"velocity":0.3858267716535433,"duration":0.08333336666669311},{"name":"A2","midi":45,"time":258.5678117604189,"velocity":0.3858267716535433,"duration":0.08333336666669311},{"name":"D2","midi":38,"time":258.6563534625023,"velocity":0.3858267716535433,"duration":0.08333336666669311},{"name":"A2","midi":45,"time":258.7501035000023,"velocity":0.5669291338582677,"duration":0.08333336666669311},{"name":"D2","midi":38,"time":258.8386452020857,"velocity":0.5669291338582677,"duration":0.08333336666669311},{"name":"A2","midi":45,"time":258.9279309520857,"velocity":0.5669291338582677,"duration":0.08333336666669311},{"name":"D2","midi":38,"time":259.0164726541691,"velocity":0.5669291338582677,"duration":0.08333336666669311},{"name":"A2","midi":45,"time":259.10575840416914,"velocity":0.5669291338582677,"duration":0.08333336666669311},{"name":"D2","midi":38,"time":259.1943001062525,"velocity":0.5669291338582677,"duration":0.08333336666669311},{"name":"A2","midi":45,"time":259.28358585625256,"velocity":0.5669291338582677,"duration":0.08333336666669311},{"name":"D2","midi":38,"time":259.37212755833593,"velocity":0.5669291338582677,"duration":0.08333336666669311},{"name":"A2","midi":45,"time":259.461413308336,"velocity":0.5669291338582677,"duration":0.08333336666669311},{"name":"D2","midi":38,"time":259.54995501041935,"velocity":0.5669291338582677,"duration":0.08333336666669311},{"name":"A2","midi":45,"time":259.6392407604194,"velocity":0.5669291338582677,"duration":0.08333336666669311},{"name":"D2","midi":38,"time":259.7277824625028,"velocity":0.5669291338582677,"duration":0.08333336666669311},{"name":"A2","midi":45,"time":259.8215325000028,"velocity":0.7559055118110236,"duration":1.0171135020833617},{"name":"D2","midi":38,"time":261.7411761250028,"velocity":0.7559055118110236,"duration":0.04389882708335335},{"name":"E2","midi":40,"time":261.78581900000285,"velocity":0.7559055118110236,"duration":0.04389882708335335},{"name":"F2","midi":41,"time":261.83046187500287,"velocity":0.7559055118110236,"duration":0.04389882708335335},{"name":"G2","midi":43,"time":261.8751047500029,"velocity":0.7559055118110236,"duration":0.04389882708335335},{"name":"A2","midi":45,"time":261.9197476250029,"velocity":0.7559055118110236,"duration":0.04389882708335335},{"name":"A#2","midi":46,"time":261.96439050000293,"velocity":0.905511811023622,"duration":1.0706849520833543},{"name":"A#2","midi":46,"time":263.97331987500297,"velocity":0.7559055118110236,"duration":0.04389882708335335},{"name":"A2","midi":45,"time":264.017962750003,"velocity":0.7559055118110236,"duration":0.04389882708335335},{"name":"G2","midi":43,"time":264.062605625003,"velocity":0.7559055118110236,"duration":0.04389882708335335},{"name":"F2","midi":41,"time":264.10724850000304,"velocity":0.905511811023622,"duration":1.0706849520833543},{"name":"F2","midi":41,"time":266.07153500000305,"velocity":0.7559055118110236,"duration":0.04389882708335335},{"name":"G2","midi":43,"time":266.1161778750031,"velocity":0.7559055118110236,"duration":0.04389882708335335},{"name":"A2","midi":45,"time":266.1608207500031,"velocity":0.7559055118110236,"duration":0.04389882708335335},{"name":"A#2","midi":46,"time":266.2054636250031,"velocity":0.7559055118110236,"duration":0.04389882708335335},{"name":"C3","midi":48,"time":266.25010650000314,"velocity":0.905511811023622,"duration":1.0706849520833543},{"name":"A2","midi":45,"time":267.32153550000316,"velocity":0.7559055118110236,"duration":1.0171135020833617},{"name":"D2","midi":38,"time":268.3929645000032,"velocity":0.7559055118110236,"duration":1.0171135020833617},{"name":"A2","midi":45,"time":268.3929645000032,"velocity":0.7559055118110236,"duration":1.0171135020833617},{"name":"D3","midi":50,"time":268.3929645000032,"velocity":0.7559055118110236,"duration":1.0171135020833617},{"name":"D2","midi":38,"time":269.4643935000032,"velocity":0.7559055118110236,"duration":1.0171135020833617},{"name":"A2","midi":45,"time":269.4643935000032,"velocity":0.7559055118110236,"duration":1.0171135020833617},{"name":"D3","midi":50,"time":269.4643935000032,"velocity":0.7559055118110236,"duration":1.0171135020833617},{"name":"F2","midi":41,"time":270.3572510000032,"velocity":0.7559055118110236,"duration":0.04389882708335335},{"name":"G2","midi":43,"time":270.4018938750032,"velocity":0.7559055118110236,"duration":0.04389882708335335},{"name":"A2","midi":45,"time":270.44653675000325,"velocity":0.7559055118110236,"duration":0.04389882708335335},{"name":"A#2","midi":46,"time":270.49117962500327,"velocity":0.7559055118110236,"duration":0.04389882708335335},{"name":"C3","midi":48,"time":270.5358225000033,"velocity":0.905511811023622,"duration":1.0706849520833543},{"name":"A#2","midi":46,"time":271.6072515000033,"velocity":0.7559055118110236,"duration":0.9813992020833666},{"name":"A#2","midi":46,"time":272.5447518750033,"velocity":0.7559055118110236,"duration":0.07961312708334845},{"name":"A2","midi":45,"time":272.58939475000335,"velocity":0.7559055118110236,"duration":0.04389882708335335},{"name":"G2","midi":43,"time":272.6340376250034,"velocity":0.7559055118110236,"duration":0.04389882708335335},{"name":"F2","midi":41,"time":272.6786805000034,"velocity":0.905511811023622,"duration":1.0706849520833543},{"name":"F2","midi":41,"time":273.7501095000034,"velocity":0.7559055118110236,"duration":0.9367563270833443},{"name":"F2","midi":41,"time":274.6429670000034,"velocity":0.7559055118110236,"duration":0.12425600208337073},{"name":"G2","midi":43,"time":274.68760987500343,"velocity":0.7559055118110236,"duration":0.04389882708335335},{"name":"A2","midi":45,"time":274.73225275000345,"velocity":0.7559055118110236,"duration":0.04389882708335335},{"name":"A#2","midi":46,"time":274.7768956250035,"velocity":0.7559055118110236,"duration":0.04389882708335335},{"name":"C3","midi":48,"time":274.8215385000035,"velocity":0.905511811023622,"duration":2.088542502083328},{"name":"D2","midi":38,"time":276.9643965000035,"velocity":0.7559055118110236,"duration":0.16889887708333617},{"name":"A2","midi":45,"time":276.9643965000035,"velocity":0.7559055118110236,"duration":0.16889887708333617},{"name":"D2","midi":38,"time":278.0358255000035,"velocity":0.7559055118110236,"duration":0.16889887708333617},{"name":"A2","midi":45,"time":278.0358255000035,"velocity":0.7559055118110236,"duration":0.16889887708333617},{"name":"D3","midi":50,"time":278.0358255000035,"velocity":0.7559055118110236,"duration":0.16889887708333617},{"name":"A#1","midi":34,"time":279.10725450000353,"velocity":0.7559055118110236,"duration":0.17782745208330653},{"name":"F2","midi":41,"time":279.1541295187535,"velocity":0.7559055118110236,"duration":0.13020838541666535},{"name":"A#2","midi":46,"time":279.20174858542015,"velocity":0.7559055118110236,"duration":0.08258931875002418},{"name":"A#2","midi":46,"time":280.1786835000035,"velocity":0.7559055118110236,"duration":0.17782745208324968},{"name":"D3","midi":50,"time":280.2099335125035,"velocity":0.7559055118110236,"duration":0.1465774395832682},{"name":"F3","midi":53,"time":280.24118352500346,"velocity":0.7559055118110236,"duration":0.1153274270832867},{"name":"A3","midi":57,"time":280.27243353750345,"velocity":0.7559055118110236,"duration":0.0840774145833052},{"name":"F2","midi":41,"time":281.2501125000034,"velocity":0.7559055118110236,"duration":0.16889887708333617},{"name":"A3","midi":57,"time":282.32154150000343,"velocity":0.7559055118110236,"duration":0.16889887708333617},{"name":"C2","midi":36,"time":283.39297050000346,"velocity":0.7559055118110236,"duration":0.17782745208330653},{"name":"G2","midi":43,"time":283.43984551875343,"velocity":0.7559055118110236,"duration":0.13020838541666535},{"name":"C3","midi":48,"time":283.48746458542007,"velocity":0.7559055118110236,"duration":0.08258931875002418},{"name":"A2","midi":45,"time":284.4643995000034,"velocity":0.7559055118110236,"duration":0.16889887708333617},{"name":"E3","midi":52,"time":284.4643995000034,"velocity":0.7559055118110236,"duration":0.16889887708333617},{"name":"G3","midi":55,"time":284.4643995000034,"velocity":0.7559055118110236,"duration":0.16889887708333617},{"name":"D2","midi":38,"time":285.53582850000345,"velocity":0.7559055118110236,"duration":0.16889887708333617},{"name":"A2","midi":45,"time":285.53582850000345,"velocity":0.7559055118110236,"duration":0.16889887708333617},{"name":"D3","midi":50,"time":285.53582850000345,"velocity":0.7559055118110236,"duration":0.16889887708333617},{"name":"D2","midi":38,"time":286.60725750000347,"velocity":0.7559055118110236,"duration":0.17782745208330653},{"name":"A2","midi":45,"time":286.65413251875344,"velocity":0.7559055118110236,"duration":0.13020838541666535},{"name":"D3","midi":50,"time":286.7017515854201,"velocity":0.7559055118110236,"duration":0.08258931875002418},{"name":"A#1","midi":34,"time":287.67868650000344,"velocity":0.7559055118110236,"duration":0.17782745208330653},{"name":"F2","midi":41,"time":287.7255615187534,"velocity":0.7559055118110236,"duration":0.13020838541666535},{"name":"A#2","midi":46,"time":287.77318058542005,"velocity":0.7559055118110236,"duration":0.08258931875002418},{"name":"D3","midi":50,"time":288.7501155000034,"velocity":0.7559055118110236,"duration":0.16889887708333617},{"name":"F3","midi":53,"time":288.7501155000034,"velocity":0.7559055118110236,"duration":0.16889887708333617},{"name":"A#3","midi":58,"time":288.7501155000034,"velocity":0.7559055118110236,"duration":0.16889887708333617},{"name":"F2","midi":41,"time":289.8215445000034,"velocity":0.7559055118110236,"duration":0.16889887708333617},{"name":"A2","midi":45,"time":289.8215445000034,"velocity":0.7559055118110236,"duration":0.16889887708333617},{"name":"C3","midi":48,"time":289.8215445000034,"velocity":0.7559055118110236,"duration":0.16889887708333617},{"name":"F3","midi":53,"time":289.8215445000034,"velocity":0.7559055118110236,"duration":0.16889887708333617},{"name":"A2","midi":45,"time":290.89297350000345,"velocity":0.7559055118110236,"duration":0.16889887708333617},{"name":"F3","midi":53,"time":290.89297350000345,"velocity":0.7559055118110236,"duration":0.16889887708333617},{"name":"A3","midi":57,"time":290.89297350000345,"velocity":0.7559055118110236,"duration":0.16889887708333617},{"name":"C2","midi":36,"time":291.9644025000035,"velocity":0.7559055118110236,"duration":0.16889887708333617},{"name":"G2","midi":43,"time":291.9644025000035,"velocity":0.7559055118110236,"duration":0.16889887708333617},{"name":"C3","midi":48,"time":291.9644025000035,"velocity":0.7559055118110236,"duration":0.16889887708333617},{"name":"C2","midi":36,"time":292.50011700000346,"velocity":0.7559055118110236,"duration":0.16889887708333617},{"name":"G2","midi":43,"time":292.50011700000346,"velocity":0.7559055118110236,"duration":0.16889887708333617},{"name":"C3","midi":48,"time":292.50011700000346,"velocity":0.7559055118110236,"duration":0.16889887708333617},{"name":"A1","midi":33,"time":293.03583150000344,"velocity":0.7559055118110236,"duration":0.16889887708333617},{"name":"A2","midi":45,"time":293.03583150000344,"velocity":0.7559055118110236,"duration":0.16889887708333617},{"name":"D2","midi":38,"time":294.10726050000346,"velocity":0.6299212598425197,"duration":0.3385418020833413},{"name":"A2","midi":45,"time":294.10726050000346,"velocity":0.6299212598425197,"duration":0.3385418020833413},{"name":"D2","midi":38,"time":294.64297500000345,"velocity":0.6299212598425197,"duration":0.16889887708333617},{"name":"D3","midi":50,"time":294.64297500000345,"velocity":0.6299212598425197,"duration":0.16889887708333617},{"name":"D2","midi":38,"time":294.8215465000034,"velocity":0.6299212598425197,"duration":0.3385418020833413},{"name":"D3","midi":50,"time":294.8215465000034,"velocity":0.6299212598425197,"duration":0.3385418020833413},{"name":"A#1","midi":34,"time":295.53583250000344,"velocity":0.6299212598425197,"duration":1.0171135020833617},{"name":"F2","midi":41,"time":295.53583250000344,"velocity":0.6299212598425197,"duration":1.0171135020833617},{"name":"A#2","midi":46,"time":295.53583250000344,"velocity":0.6299212598425197,"duration":1.0171135020833617},{"name":"A#1","midi":34,"time":296.60726150000346,"velocity":0.6299212598425197,"duration":0.3385418020833413},{"name":"F2","midi":41,"time":296.60726150000346,"velocity":0.6299212598425197,"duration":0.3385418020833413},{"name":"A#2","midi":46,"time":296.60726150000346,"velocity":0.6299212598425197,"duration":0.3385418020833413},{"name":"F2","midi":41,"time":296.96440450000347,"velocity":0.6299212598425197,"duration":0.6778276520833515},{"name":"F3","midi":53,"time":297.3215475000035,"velocity":0.6299212598425197,"duration":0.3385418020833413},{"name":"C2","midi":36,"time":298.3929765000035,"velocity":0.6299212598425197,"duration":0.356398952083282},{"name":"C3","midi":48,"time":298.43985151875347,"velocity":0.6299212598425197,"duration":0.3087798854166408},{"name":"E3","midi":52,"time":298.75011950000345,"velocity":0.6299212598425197,"duration":0.3563989520833388},{"name":"G3","midi":55,"time":299.10726250000346,"velocity":0.6299212598425197,"duration":0.3385418020833413},{"name":"D1","midi":26,"time":299.8215485000035,"velocity":0.6299212598425197,"duration":0.6778276520833515},{"name":"A1","midi":33,"time":299.8215485000035,"velocity":0.6299212598425197,"duration":0.6778276520833515},{"name":"D2","midi":38,"time":299.8215485000035,"velocity":0.6299212598425197,"duration":0.6778276520833515},{"name":"C1","midi":24,"time":300.5358345000035,"velocity":0.6299212598425197,"duration":0.16889887708333617},{"name":"C2","midi":36,"time":300.5358345000035,"velocity":0.6299212598425197,"duration":0.16889887708333617},{"name":"D1","midi":26,"time":300.71440600000346,"velocity":0.6299212598425197,"duration":0.16889887708333617},{"name":"D2","midi":38,"time":300.71440600000346,"velocity":0.6299212598425197,"duration":0.16889887708333617},{"name":"F1","midi":29,"time":300.89297750000344,"velocity":0.6299212598425197,"duration":0.3385418020833413},{"name":"F2","midi":41,"time":300.89297750000344,"velocity":0.6299212598425197,"duration":0.3385418020833413},{"name":"E1","midi":28,"time":301.25012050000345,"velocity":0.6299212598425197,"duration":0.16889887708333617},{"name":"E2","midi":40,"time":301.25012050000345,"velocity":0.6299212598425197,"duration":0.16889887708333617},{"name":"D1","midi":26,"time":301.4286920000034,"velocity":0.6299212598425197,"duration":0.16889887708333617},{"name":"D2","midi":38,"time":301.4286920000034,"velocity":0.6299212598425197,"duration":0.16889887708333617},{"name":"C1","midi":24,"time":301.6072635000034,"velocity":0.6299212598425197,"duration":0.16889887708333617},{"name":"C2","midi":36,"time":301.6072635000034,"velocity":0.6299212598425197,"duration":0.16889887708333617},{"name":"D1","midi":26,"time":301.9644065000034,"velocity":0.6299212598425197,"duration":0.3385418020833413},{"name":"A1","midi":33,"time":301.9644065000034,"velocity":0.6299212598425197,"duration":0.3385418020833413},{"name":"D2","midi":38,"time":301.9644065000034,"velocity":0.6299212598425197,"duration":0.3385418020833413},{"name":"D2","midi":38,"time":303.03583550000343,"velocity":0.6299212598425197,"duration":0.3385418020833413},{"name":"A2","midi":45,"time":303.03583550000343,"velocity":0.6299212598425197,"duration":0.3385418020833413},{"name":"D3","midi":50,"time":303.03583550000343,"velocity":0.6299212598425197,"duration":0.3385418020833413},{"name":"D1","midi":26,"time":304.10726450000345,"velocity":0.6299212598425197,"duration":0.3385418020833413},{"name":"A1","midi":33,"time":304.10726450000345,"velocity":0.6299212598425197,"duration":0.3385418020833413},{"name":"D2","midi":38,"time":304.10726450000345,"velocity":0.6299212598425197,"duration":0.3385418020833413},{"name":"D2","midi":38,"time":305.1786935000035,"velocity":0.6299212598425197,"duration":0.6778276520833515},{"name":"A2","midi":45,"time":305.1786935000035,"velocity":0.6299212598425197,"duration":0.6778276520833515},{"name":"D3","midi":50,"time":305.1786935000035,"velocity":0.6299212598425197,"duration":0.6778276520833515},{"name":"D2","midi":38,"time":306.2501225000035,"velocity":0.6299212598425197,"duration":0.6778276520833515},{"name":"A2","midi":45,"time":306.2501225000035,"velocity":0.6299212598425197,"duration":0.6778276520833515},{"name":"D3","midi":50,"time":306.2501225000035,"velocity":0.6299212598425197,"duration":0.6778276520833515},{"name":"D2","midi":38,"time":307.3215515000035,"velocity":0.6299212598425197,"duration":0.6778276520833515},{"name":"A2","midi":45,"time":307.3215515000035,"velocity":0.6299212598425197,"duration":0.6778276520833515},{"name":"D3","midi":50,"time":307.3215515000035,"velocity":0.6299212598425197,"duration":0.6778276520833515},{"name":"C2","midi":36,"time":308.39298050000355,"velocity":0.6299212598425197,"duration":0.5349704520832574},{"name":"G2","midi":43,"time":308.4398555187535,"velocity":0.6299212598425197,"duration":0.48735138541661627},{"name":"C3","midi":48,"time":308.48747458542016,"velocity":0.6299212598425197,"duration":0.4397323187499751},{"name":"C2","midi":36,"time":309.46440950000346,"velocity":0.6299212598425197,"duration":0.3385418020833413},{"name":"C3","midi":48,"time":309.46440950000346,"velocity":0.6299212598425197,"duration":0.3385418020833413},{"name":"D2","midi":38,"time":310.5358385000035,"velocity":0.6299212598425197,"duration":0.6778276520833515},{"name":"A2","midi":45,"time":310.5358385000035,"velocity":0.6299212598425197,"duration":0.6778276520833515},{"name":"D3","midi":50,"time":310.5358385000035,"velocity":0.6299212598425197,"duration":0.6778276520833515},{"name":"D2","midi":38,"time":311.6072675000035,"velocity":0.6299212598425197,"duration":0.16889887708333617},{"name":"A2","midi":45,"time":311.6072675000035,"velocity":0.6299212598425197,"duration":0.16889887708333617},{"name":"D3","midi":50,"time":311.6072675000035,"velocity":0.6299212598425197,"duration":0.16889887708333617},{"name":"D2","midi":38,"time":312.1429820000035,"velocity":0.6299212598425197,"duration":0.16889887708333617},{"name":"A2","midi":45,"time":312.1429820000035,"velocity":0.6299212598425197,"duration":0.16889887708333617},{"name":"D3","midi":50,"time":312.1429820000035,"velocity":0.6299212598425197,"duration":0.16889887708333617},{"name":"D2","midi":38,"time":312.67869650000347,"velocity":0.6299212598425197,"duration":0.16889887708333617},{"name":"A2","midi":45,"time":312.67869650000347,"velocity":0.6299212598425197,"duration":0.16889887708333617},{"name":"D3","midi":50,"time":312.67869650000347,"velocity":0.6299212598425197,"duration":0.16889887708333617},{"name":"D2","midi":38,"time":313.21441100000345,"velocity":0.6299212598425197,"duration":0.16889887708333617},{"name":"A2","midi":45,"time":313.21441100000345,"velocity":0.6299212598425197,"duration":0.16889887708333617},{"name":"D3","midi":50,"time":313.21441100000345,"velocity":0.6299212598425197,"duration":0.16889887708333617},{"name":"D2","midi":38,"time":313.75012550000343,"velocity":0.6299212598425197,"duration":0.16889887708333617},{"name":"A2","midi":45,"time":313.75012550000343,"velocity":0.6299212598425197,"duration":0.16889887708333617},{"name":"D3","midi":50,"time":313.75012550000343,"velocity":0.6299212598425197,"duration":0.16889887708333617},{"name":"D2","midi":38,"time":314.2858400000034,"velocity":0.6299212598425197,"duration":1.18675642708331},{"name":"A2","midi":45,"time":314.2858400000034,"velocity":0.6299212598425197,"duration":1.18675642708331},{"name":"D3","midi":50,"time":314.2858400000034,"velocity":0.6299212598425197,"duration":1.18675642708331},{"name":"D2","midi":38,"time":316.4286980000034,"velocity":0.5039370078740157,"duration":1.4278279520833053},{"name":"A2","midi":45,"time":316.4755730187534,"velocity":0.5039370078740157,"duration":1.380208885416664},{"name":"D2","midi":38,"time":317.8572700000034,"velocity":0.6299212598425197,"duration":1.356399352083315},{"name":"A#2","midi":46,"time":317.8572700000034,"velocity":0.6299212598425197,"duration":1.356399352083315},{"name":"D2","midi":38,"time":319.28584200000336,"velocity":0.7559055118110236,"duration":2.713542752083356},{"name":"G2","midi":43,"time":319.28584200000336,"velocity":0.7559055118110236,"duration":2.713542752083356},{"name":"D3","midi":50,"time":322.14298600000336,"velocity":0.8818897637795275,"duration":1.356399352083315},{"name":"F3","midi":53,"time":322.14298600000336,"velocity":0.8818897637795275,"duration":1.356399352083315},{"name":"A3","midi":57,"time":322.14298600000336,"velocity":0.8818897637795275,"duration":1.356399352083315},{"name":"A#2","midi":46,"time":323.57155800000334,"velocity":0.8818897637795275,"duration":1.356399352083315},{"name":"D3","midi":50,"time":323.57155800000334,"velocity":0.8818897637795275,"duration":1.356399352083315},{"name":"F3","midi":53,"time":323.57155800000334,"velocity":0.8818897637795275,"duration":1.356399352083315},{"name":"A#3","midi":58,"time":323.57155800000334,"velocity":0.8818897637795275,"duration":1.356399352083315},{"name":"F2","midi":41,"time":325.0001300000033,"velocity":0.8818897637795275,"duration":1.356399352083315},{"name":"C3","midi":48,"time":325.0001300000033,"velocity":0.8818897637795275,"duration":1.356399352083315},{"name":"A3","midi":57,"time":325.0001300000033,"velocity":0.8818897637795275,"duration":1.356399352083315},{"name":"C3","midi":48,"time":326.4287020000033,"velocity":0.8818897637795275,"duration":1.356399352083372},{"name":"G3","midi":55,"time":326.4287020000033,"velocity":0.8818897637795275,"duration":1.356399352083372},{"name":"F3","midi":53,"time":326.4287020000033,"velocity":0.8818897637795275,"duration":0.6778276520833515},{"name":"E3","midi":52,"time":327.1429880000033,"velocity":0.8818897637795275,"duration":0.6778276520833515},{"name":"D2","midi":38,"time":327.8572740000033,"velocity":0.8818897637795275,"duration":0.3563989520833388},{"name":"D3","midi":50,"time":328.2144170000033,"velocity":0.8818897637795275,"duration":0.3563989520833388},{"name":"F3","midi":53,"time":328.57156000000333,"velocity":0.8818897637795275,"duration":0.6778276520833515},{"name":"A#2","midi":46,"time":329.28584600000335,"velocity":0.8818897637795275,"duration":1.4278279520832484},{"name":"D3","midi":50,"time":329.3327210187533,"velocity":0.8818897637795275,"duration":1.3802088854166072},{"name":"F3","midi":53,"time":329.3795960375033,"velocity":0.8818897637795275,"duration":1.333333866666635},{"name":"A#3","midi":58,"time":329.42870320000327,"velocity":0.8818897637795275,"duration":1.284970752083325},{"name":"C2","midi":36,"time":330.71441800000326,"velocity":0.8818897637795275,"duration":0.3563989520833388},{"name":"C3","midi":48,"time":330.71441800000326,"velocity":0.8818897637795275,"duration":0.3563989520833388},{"name":"F3","midi":53,"time":331.07156100000327,"velocity":0.8818897637795275,"duration":0.3563989520833388},{"name":"F3","midi":53,"time":331.4287040000033,"velocity":0.8818897637795275,"duration":0.7135419520832897},{"name":"A3","midi":57,"time":331.47557901875325,"velocity":0.8818897637795275,"duration":0.6659228854166486},{"name":"C4","midi":60,"time":331.5231980854199,"velocity":0.8818897637795275,"duration":0.6183038187500074},{"name":"C3","midi":48,"time":332.14299000000324,"velocity":0.8818897637795275,"duration":0.6778276520833515},{"name":"F3","midi":53,"time":332.14299000000324,"velocity":0.8818897637795275,"duration":0.6778276520833515},{"name":"G3","midi":55,"time":332.14299000000324,"velocity":0.8818897637795275,"duration":0.6778276520833515},{"name":"G3","midi":55,"time":332.85727600000325,"velocity":0.8818897637795275,"duration":0.7135419520832897},{"name":"C4","midi":60,"time":332.9041510187532,"velocity":0.8818897637795275,"duration":0.6659228854166486},{"name":"E4","midi":64,"time":332.95177008541987,"velocity":0.8818897637795275,"duration":0.6183038187500074},{"name":"A1","midi":33,"time":333.5715620000032,"velocity":0.8818897637795275,"duration":0.04017858750000869},{"name":"A2","midi":45,"time":333.61546082708657,"velocity":0.8818897637795275,"duration":0.04017858750000869},{"name":"A1","midi":33,"time":333.6601037020866,"velocity":0.8818897637795275,"duration":0.04017858750000869},{"name":"A2","midi":45,"time":333.70400252916994,"velocity":0.8818897637795275,"duration":0.04017858750000869},{"name":"A1","midi":33,"time":333.74864540416996,"velocity":0.8818897637795275,"duration":0.04017858750000869},{"name":"A2","midi":45,"time":333.7925442312533,"velocity":0.8818897637795275,"duration":0.04017858750000869},{"name":"A1","midi":33,"time":333.83718710625334,"velocity":0.8818897637795275,"duration":0.04017858750000869},{"name":"A2","midi":45,"time":333.8810859333367,"velocity":0.8818897637795275,"duration":0.04017858750000869},{"name":"A1","midi":33,"time":333.9257288083367,"velocity":0.8818897637795275,"duration":0.04017858750000869},{"name":"A2","midi":45,"time":333.96962763542007,"velocity":0.8818897637795275,"duration":0.04017858750000869},{"name":"A1","midi":33,"time":334.0142705104201,"velocity":0.8818897637795275,"duration":0.04017858750000869},{"name":"A2","midi":45,"time":334.05816933750344,"velocity":0.8818897637795275,"duration":0.04017858750000869},{"name":"A1","midi":33,"time":334.10281221250347,"velocity":0.8818897637795275,"duration":0.04017858750000869},{"name":"A2","midi":45,"time":334.1467110395868,"velocity":0.8818897637795275,"duration":0.04017858750000869},{"name":"A1","midi":33,"time":334.19135391458684,"velocity":0.8818897637795275,"duration":0.04017858750000869},{"name":"A2","midi":45,"time":334.2352527416702,"velocity":0.8818897637795275,"duration":0.04017858750000869},{"name":"A1","midi":33,"time":334.2798956166702,"velocity":0.8818897637795275,"duration":0.04017858750000869},{"name":"A2","midi":45,"time":334.32379444375357,"velocity":0.8818897637795275,"duration":0.04017858750000869},{"name":"A1","midi":33,"time":334.3684373187536,"velocity":0.8818897637795275,"duration":0.04017858750000869},{"name":"A2","midi":45,"time":334.41233614583695,"velocity":0.8818897637795275,"duration":0.04017858750000869},{"name":"A1","midi":33,"time":334.45697902083697,"velocity":0.8818897637795275,"duration":0.04017858750000869},{"name":"A2","midi":45,"time":334.5008778479203,"velocity":0.8818897637795275,"duration":0.04017858750000869},{"name":"A1","midi":33,"time":334.54552072292034,"velocity":0.8818897637795275,"duration":0.04017858750000869},{"name":"A2","midi":45,"time":334.5894195500037,"velocity":0.8818897637795275,"duration":0.04017858750000869},{"name":"A1","midi":33,"time":334.6340624250037,"velocity":0.8818897637795275,"duration":0.04017858750000869},{"name":"A2","midi":45,"time":334.67870530000374,"velocity":0.8818897637795275,"duration":0.04017858750000869},{"name":"A1","midi":33,"time":334.7226041270871,"velocity":0.8818897637795275,"duration":0.04017858750000869},{"name":"A2","midi":45,"time":334.7672470020871,"velocity":0.8818897637795275,"duration":0.04017858750000869},{"name":"A1","midi":33,"time":334.81114582917047,"velocity":0.8818897637795275,"duration":0.04017858750000869},{"name":"A2","midi":45,"time":334.8557887041705,"velocity":0.8818897637795275,"duration":0.04017858750000869},{"name":"A1","midi":33,"time":334.89968753125385,"velocity":0.8818897637795275,"duration":0.04017858750000869},{"name":"A2","midi":45,"time":334.94433040625387,"velocity":0.8818897637795275,"duration":0.04017858750000869},{"name":"D1","midi":26,"time":335.00013400000387,"velocity":0.8818897637795275,"duration":0.3385418020833413},{"name":"D2","midi":38,"time":335.00013400000387,"velocity":0.8818897637795275,"duration":0.3385418020833413},{"name":"E2","midi":40,"time":335.3572770000039,"velocity":0.8818897637795275,"duration":0.3385418020833413},{"name":"D1","midi":26,"time":335.7144200000039,"velocity":0.8818897637795275,"duration":0.16889887708333617},{"name":"D2","midi":38,"time":335.7144200000039,"velocity":0.8818897637795275,"duration":0.16889887708333617},{"name":"D1","midi":26,"time":335.89299150000386,"velocity":0.8818897637795275,"duration":0.16889887708333617},{"name":"D1","midi":26,"time":336.07156300000383,"velocity":0.8818897637795275,"duration":0.3385418020833413},{"name":"D2","midi":38,"time":336.07156300000383,"velocity":0.8818897637795275,"duration":0.3385418020833413},{"name":"E1","midi":28,"time":336.42870600000384,"velocity":0.8818897637795275,"duration":0.3385418020833413},{"name":"E2","midi":40,"time":336.42870600000384,"velocity":0.8818897637795275,"duration":0.3385418020833413},{"name":"E3","midi":52,"time":336.78584900000385,"velocity":0.8818897637795275,"duration":0.11830361875001927},{"name":"C3","midi":48,"time":336.90489666667054,"velocity":0.8818897637795275,"duration":0.11830361875001927},{"name":"G2","midi":43,"time":337.0239443333372,"velocity":0.8818897637795275,"duration":0.11830361875001927},{"name":"E2","midi":40,"time":337.1429920000039,"velocity":0.8818897637795275,"duration":0.11830361875001927},{"name":"E1","midi":28,"time":337.2620396666706,"velocity":0.8818897637795275,"duration":0.11830361875001927},{"name":"E2","midi":40,"time":337.3810873333373,"velocity":0.8818897637795275,"duration":0.11830361875001927},{"name":"E1","midi":28,"time":337.500135000004,"velocity":0.8818897637795275,"duration":0.11830361875001927},{"name":"E2","midi":40,"time":337.61918266667067,"velocity":0.8818897637795275,"duration":0.11830361875001927},{"name":"E1","midi":28,"time":337.73823033333736,"velocity":0.8818897637795275,"duration":0.1123512354166678},{"name":"F1","midi":29,"time":337.85727800000404,"velocity":0.8818897637795275,"duration":0.1123512354166678},{"name":"F2","midi":41,"time":337.85727800000404,"velocity":0.8818897637795275,"duration":0.1123512354166678},{"name":"F1","midi":29,"time":338.09537333333736,"velocity":0.8818897637795275,"duration":0.1123512354166678},{"name":"F2","midi":41,"time":338.09537333333736,"velocity":0.8818897637795275,"duration":0.1123512354166678},{"name":"F1","midi":29,"time":338.21442100000405,"velocity":0.8818897637795275,"duration":0.3385418020833413},{"name":"F2","midi":41,"time":338.21442100000405,"velocity":0.8818897637795275,"duration":0.3385418020833413},{"name":"G1","midi":31,"time":338.57156400000406,"velocity":0.8818897637795275,"duration":0.3385418020833413},{"name":"G2","midi":43,"time":338.57156400000406,"velocity":0.8818897637795275,"duration":0.3385418020833413},{"name":"A1","midi":33,"time":338.92870700000407,"velocity":0.8818897637795275,"duration":0.3385418020833413},{"name":"A2","midi":45,"time":338.92870700000407,"velocity":0.8818897637795275,"duration":0.3385418020833413},{"name":"A#1","midi":34,"time":339.2858500000041,"velocity":0.8818897637795275,"duration":0.3385418020833413},{"name":"A#2","midi":46,"time":339.2858500000041,"velocity":0.8818897637795275,"duration":0.3385418020833413},{"name":"A#1","midi":34,"time":339.6429930000041,"velocity":0.8818897637795275,"duration":0.1123512354166678},{"name":"A#2","midi":46,"time":339.6429930000041,"velocity":0.8818897637795275,"duration":0.1123512354166678},{"name":"A#1","midi":34,"time":339.76204066667077,"velocity":0.8818897637795275,"duration":0.1123512354166678},{"name":"A#2","midi":46,"time":339.76204066667077,"velocity":0.8818897637795275,"duration":0.1123512354166678},{"name":"A#1","midi":34,"time":339.88108833333746,"velocity":0.8818897637795275,"duration":0.1123512354166678},{"name":"A#2","midi":46,"time":339.88108833333746,"velocity":0.8818897637795275,"duration":0.1123512354166678},{"name":"A#1","midi":34,"time":340.00013600000415,"velocity":0.8818897637795275,"duration":0.3385418020833413},{"name":"A#2","midi":46,"time":340.00013600000415,"velocity":0.8818897637795275,"duration":0.3385418020833413},{"name":"C#2","midi":37,"time":340.35727900000416,"velocity":0.8818897637795275,"duration":0.1123512354166678},{"name":"C#3","midi":49,"time":340.35727900000416,"velocity":0.8818897637795275,"duration":0.1123512354166678},{"name":"C#2","midi":37,"time":340.47632666667084,"velocity":0.8818897637795275,"duration":0.1123512354166678},{"name":"C#3","midi":49,"time":340.47632666667084,"velocity":0.8818897637795275,"duration":0.1123512354166678},{"name":"C#2","midi":37,"time":340.59537433333753,"velocity":0.8818897637795275,"duration":0.1123512354166678},{"name":"C#3","midi":49,"time":340.59537433333753,"velocity":0.8818897637795275,"duration":0.1123512354166678},{"name":"D2","midi":38,"time":340.7144220000042,"velocity":0.8818897637795275,"duration":0.3385418020833413},{"name":"D3","midi":50,"time":340.7144220000042,"velocity":0.8818897637795275,"duration":0.3385418020833413},{"name":"D2","midi":38,"time":341.0715650000042,"velocity":0.8818897637795275,"duration":0.3385418020833413},{"name":"E1","midi":28,"time":341.42870800000424,"velocity":0.8818897637795275,"duration":0.3385418020833413},{"name":"E2","midi":40,"time":341.42870800000424,"velocity":0.8818897637795275,"duration":0.3385418020833413},{"name":"F1","midi":29,"time":341.78585100000424,"velocity":0.8818897637795275,"duration":0.3385418020833413},{"name":"F2","midi":41,"time":341.78585100000424,"velocity":0.8818897637795275,"duration":0.3385418020833413},{"name":"G1","midi":31,"time":342.14299400000425,"velocity":0.8818897637795275,"duration":0.5081847270833464},{"name":"G2","midi":43,"time":342.14299400000425,"velocity":0.8818897637795275,"duration":0.5081847270833464},{"name":"G1","midi":31,"time":342.6787085000043,"velocity":0.8818897637795275,"duration":0.16889887708333617},{"name":"G2","midi":43,"time":342.6787085000043,"velocity":0.8818897637795275,"duration":0.16889887708333617},{"name":"G1","midi":31,"time":342.85728000000427,"velocity":0.8818897637795275,"duration":0.3385418020833413},{"name":"G2","midi":43,"time":342.85728000000427,"velocity":0.8818897637795275,"duration":0.3385418020833413},{"name":"G1","midi":31,"time":343.2144230000043,"velocity":0.8818897637795275,"duration":0.3385418020833413},{"name":"G2","midi":43,"time":343.2144230000043,"velocity":0.8818897637795275,"duration":0.3385418020833413},{"name":"A1","midi":33,"time":343.5715660000043,"velocity":0.8818897637795275,"duration":0.3385418020833413},{"name":"A2","midi":45,"time":343.5715660000043,"velocity":0.8818897637795275,"duration":0.3385418020833413},{"name":"A1","midi":33,"time":343.9287090000043,"velocity":0.8818897637795275,"duration":0.1123512354166678},{"name":"A2","midi":45,"time":343.9287090000043,"velocity":0.8818897637795275,"duration":0.1123512354166678},{"name":"A1","midi":33,"time":344.047756666671,"velocity":0.8818897637795275,"duration":0.1123512354166678},{"name":"A2","midi":45,"time":344.047756666671,"velocity":0.8818897637795275,"duration":0.1123512354166678},{"name":"A1","midi":33,"time":344.16680433333767,"velocity":0.8818897637795275,"duration":0.1123512354166678},{"name":"A2","midi":45,"time":344.16680433333767,"velocity":0.8818897637795275,"duration":0.1123512354166678},{"name":"A1","midi":33,"time":344.28585200000435,"velocity":0.8818897637795275,"duration":0.3385418020833413},{"name":"A2","midi":45,"time":344.28585200000435,"velocity":0.8818897637795275,"duration":0.3385418020833413},{"name":"A1","midi":33,"time":344.64299500000436,"velocity":0.8818897637795275,"duration":0.1123512354166678},{"name":"A2","midi":45,"time":344.64299500000436,"velocity":0.8818897637795275,"duration":0.1123512354166678},{"name":"A1","midi":33,"time":344.76204266667105,"velocity":0.8818897637795275,"duration":0.1123512354166678},{"name":"A2","midi":45,"time":344.76204266667105,"velocity":0.8818897637795275,"duration":0.1123512354166678},{"name":"A1","midi":33,"time":344.88109033333774,"velocity":0.8818897637795275,"duration":0.1123512354166678},{"name":"A2","midi":45,"time":344.88109033333774,"velocity":0.8818897637795275,"duration":0.1123512354166678},{"name":"A1","midi":33,"time":345.0001380000044,"velocity":0.8818897637795275,"duration":0.6778276520833515},{"name":"A2","midi":45,"time":345.0001380000044,"velocity":0.8818897637795275,"duration":0.6778276520833515},{"name":"A1","midi":33,"time":345.71442400000444,"velocity":0.8818897637795275,"duration":0.3385418020833413},{"name":"A2","midi":45,"time":345.71442400000444,"velocity":0.8818897637795275,"duration":0.3385418020833413},{"name":"A1","midi":33,"time":346.07156700000445,"velocity":0.8818897637795275,"duration":0.3385418020833413},{"name":"E2","midi":40,"time":346.07156700000445,"velocity":0.8818897637795275,"duration":0.3385418020833413},{"name":"A2","midi":45,"time":346.07156700000445,"velocity":0.8818897637795275,"duration":0.3385418020833413},{"name":"D1","midi":26,"time":346.42871000000446,"velocity":0.8818897637795275,"duration":0.3385418020833413},{"name":"D2","midi":38,"time":346.42871000000446,"velocity":0.8818897637795275,"duration":0.3385418020833413},{"name":"D2","midi":38,"time":346.78585300000447,"velocity":0.8818897637795275,"duration":0.1123512354166678},{"name":"D3","midi":50,"time":346.78585300000447,"velocity":0.8818897637795275,"duration":0.1123512354166678},{"name":"D2","midi":38,"time":346.90490066667115,"velocity":0.8818897637795275,"duration":0.1123512354166678},{"name":"D3","midi":50,"time":346.90490066667115,"velocity":0.8818897637795275,"duration":0.1123512354166678},{"name":"D2","midi":38,"time":347.02394833333784,"velocity":0.8818897637795275,"duration":0.1123512354166678},{"name":"D3","midi":50,"time":347.02394833333784,"velocity":0.8818897637795275,"duration":0.1123512354166678},{"name":"D2","midi":38,"time":347.14299600000453,"velocity":0.8818897637795275,"duration":0.3385418020833413},{"name":"A2","midi":45,"time":347.14299600000453,"velocity":0.8818897637795275,"duration":0.3385418020833413},{"name":"D3","midi":50,"time":347.14299600000453,"velocity":0.8818897637795275,"duration":0.3385418020833413},{"name":"D1","midi":26,"time":347.50013900000454,"velocity":0.8818897637795275,"duration":0.3385418020833413},{"name":"D2","midi":38,"time":347.50013900000454,"velocity":0.8818897637795275,"duration":0.3385418020833413},{"name":"C1","midi":24,"time":347.85728200000455,"velocity":0.8818897637795275,"duration":0.3385418020833413},{"name":"C2","midi":36,"time":347.85728200000455,"velocity":0.8818897637795275,"duration":0.3385418020833413},{"name":"C2","midi":36,"time":348.21442500000455,"velocity":0.8818897637795275,"duration":0.11830361875001927},{"name":"G2","midi":43,"time":348.33347266667124,"velocity":0.8818897637795275,"duration":0.11830361875001927},{"name":"C3","midi":48,"time":348.45252033333793,"velocity":0.8818897637795275,"duration":0.11830361875001927},{"name":"E3","midi":52,"time":348.5715680000046,"velocity":0.8818897637795275,"duration":0.11830361875001927},{"name":"G3","midi":55,"time":348.6906156666713,"velocity":0.8818897637795275,"duration":0.11830361875001927},{"name":"C4","midi":60,"time":348.809663333338,"velocity":0.8818897637795275,"duration":0.1123512354166678},{"name":"F1","midi":29,"time":349.2858540000047,"velocity":0.8818897637795275,"duration":0.11830361875001927},{"name":"F2","midi":41,"time":349.4049016666714,"velocity":0.8818897637795275,"duration":0.11830361875001927},{"name":"A2","midi":45,"time":349.52394933333807,"velocity":0.8818897637795275,"duration":0.11830361875001927},{"name":"C3","midi":48,"time":349.64299700000475,"velocity":0.8818897637795275,"duration":0.11830361875001927},{"name":"F3","midi":53,"time":349.76204466667144,"velocity":0.8818897637795275,"duration":0.1123512354166678},{"name":"G1","midi":31,"time":350.00014000000476,"velocity":0.8818897637795275,"duration":0.11830361875001927},{"name":"D2","midi":38,"time":350.11918766667145,"velocity":0.8818897637795275,"duration":0.11830361875001927},{"name":"G2","midi":43,"time":350.23823533333814,"velocity":0.8818897637795275,"duration":0.11830361875001927},{"name":"G1","midi":31,"time":350.3572830000048,"velocity":0.8818897637795275,"duration":0.11830361875001927},{"name":"G2","midi":43,"time":350.4763306666715,"velocity":0.8818897637795275,"duration":0.11830361875001927},{"name":"G1","midi":31,"time":350.5953783333382,"velocity":0.8818897637795275,"duration":0.1123512354166678},{"name":"A#1","midi":34,"time":350.7144260000049,"velocity":0.8818897637795275,"duration":0.3385418020833413},{"name":"A#2","midi":46,"time":350.7144260000049,"velocity":0.8818897637795275,"duration":0.3385418020833413},{"name":"A#3","midi":58,"time":351.0715690000049,"velocity":0.8818897637795275,"duration":0.11830361875001927},{"name":"F3","midi":53,"time":351.1906166666716,"velocity":0.8661417322834646,"duration":0.11830361875001927},{"name":"D3","midi":50,"time":351.3096643333383,"velocity":0.8503937007874016,"duration":0.11830361875001927},{"name":"C3","midi":48,"time":351.42871200000496,"velocity":0.8346456692913385,"duration":0.11830361875001927},{"name":"A#2","midi":46,"time":351.54775966667165,"velocity":0.8110236220472441,"duration":0.11830361875001927},{"name":"A#1","midi":34,"time":351.66680733333834,"velocity":0.7952755905511811,"duration":0.1123512354166678},{"name":"C#2","midi":37,"time":351.78585500000503,"velocity":0.7795275590551181,"duration":0.1123512354166678},{"name":"C#3","midi":49,"time":351.78585500000503,"velocity":0.7795275590551181,"duration":0.1123512354166678},{"name":"C#2","midi":37,"time":351.9049026666717,"velocity":0.7559055118110236,"duration":0.1123512354166678},{"name":"C#3","midi":49,"time":351.9049026666717,"velocity":0.7559055118110236,"duration":0.1123512354166678},{"name":"C#2","midi":37,"time":352.0239503333384,"velocity":0.7401574803149606,"duration":0.1123512354166678},{"name":"C#3","midi":49,"time":352.0239503333384,"velocity":0.7401574803149606,"duration":0.1123512354166678},{"name":"D2","midi":38,"time":352.1429980000051,"velocity":0.7244094488188977,"duration":0.3385418020833413},{"name":"D3","midi":50,"time":352.5001410000051,"velocity":0.6692913385826772,"duration":0.3385418020833413},{"name":"E2","midi":40,"time":352.8572840000051,"velocity":0.6141732283464567,"duration":0.3385418020833413},{"name":"E3","midi":52,"time":352.8572840000051,"velocity":0.6141732283464567,"duration":0.3385418020833413},{"name":"F2","midi":41,"time":353.2144270000051,"velocity":0.5590551181102362,"duration":0.3385418020833413},{"name":"G2","midi":43,"time":353.5715700000051,"velocity":0.5039370078740157,"duration":0.6778276520833515},{"name":"G3","midi":55,"time":353.5715700000051,"velocity":0.5039370078740157,"duration":0.6778276520833515},{"name":"G2","midi":43,"time":354.28585600000514,"velocity":0.5039370078740157,"duration":0.3385418020833413},{"name":"G2","midi":43,"time":354.64299900000515,"velocity":0.5039370078740157,"duration":0.3385418020833413},{"name":"A2","midi":45,"time":355.00014200000516,"velocity":0.5039370078740157,"duration":0.3385418020833413},{"name":"A2","midi":45,"time":355.35728500000516,"velocity":0.5039370078740157,"duration":0.3385418020833413},{"name":"A2","midi":45,"time":355.71442800000517,"velocity":0.5039370078740157,"duration":0.3385418020833413},{"name":"A2","midi":45,"time":356.0715710000052,"velocity":0.5039370078740157,"duration":0.3385418020833413},{"name":"A1","midi":33,"time":356.4287140000052,"velocity":0.5039370078740157,"duration":0.3385418020833413},{"name":"A2","midi":45,"time":356.4287140000052,"velocity":0.5039370078740157,"duration":0.3385418020833413},{"name":"A2","midi":45,"time":356.7858570000052,"velocity":0.5039370078740157,"duration":0.3385418020833413},{"name":"A1","midi":33,"time":357.1430000000052,"velocity":0.5039370078740157,"duration":0.3385418020833413},{"name":"A2","midi":45,"time":357.1430000000052,"velocity":0.5039370078740157,"duration":0.3385418020833413},{"name":"A1","midi":33,"time":357.5001430000052,"velocity":0.5039370078740157,"duration":0.1123512354166678},{"name":"A2","midi":45,"time":357.5001430000052,"velocity":0.5039370078740157,"duration":0.1123512354166678},{"name":"A1","midi":33,"time":357.6191906666719,"velocity":0.6299212598425197,"duration":0.1123512354166678},{"name":"A2","midi":45,"time":357.6191906666719,"velocity":0.6299212598425197,"duration":0.1123512354166678},{"name":"A1","midi":33,"time":357.7382383333386,"velocity":0.7559055118110236,"duration":0.1123512354166678},{"name":"A2","midi":45,"time":357.7382383333386,"velocity":0.7559055118110236,"duration":0.1123512354166678},{"name":"D1","midi":26,"time":357.8572860000053,"velocity":0.8818897637795275,"duration":0.04092263541667762},{"name":"D2","midi":38,"time":357.9019288750053,"velocity":0.8818897637795275,"duration":0.04092263541667762},{"name":"D1","midi":26,"time":357.9465717500053,"velocity":0.8818897637795275,"duration":0.04092263541667762},{"name":"D2","midi":38,"time":357.99121462500534,"velocity":0.8818897637795275,"duration":0.04092263541667762},{"name":"D1","midi":26,"time":358.03585750000536,"velocity":0.8818897637795275,"duration":0.04092263541667762},{"name":"D2","midi":38,"time":358.0805003750054,"velocity":0.8818897637795275,"duration":0.04092263541667762},{"name":"D1","midi":26,"time":358.1251432500054,"velocity":0.8818897637795275,"duration":0.04092263541667762},{"name":"D2","midi":38,"time":358.16978612500543,"velocity":0.8818897637795275,"duration":0.04092263541667762},{"name":"D1","midi":26,"time":358.21442900000545,"velocity":0.8818897637795275,"duration":0.04092263541667762},{"name":"D2","midi":38,"time":358.2590718750055,"velocity":0.8818897637795275,"duration":0.04092263541667762},{"name":"D1","midi":26,"time":358.3037147500055,"velocity":0.8818897637795275,"duration":0.04092263541667762},{"name":"D2","midi":38,"time":358.3483576250055,"velocity":0.8818897637795275,"duration":0.04092263541667762},{"name":"D1","midi":26,"time":358.39300050000554,"velocity":0.8818897637795275,"duration":0.04092263541667762},{"name":"D2","midi":38,"time":358.43764337500556,"velocity":0.8818897637795275,"duration":0.04092263541667762},{"name":"D1","midi":26,"time":358.4822862500056,"velocity":0.8818897637795275,"duration":0.04092263541667762},{"name":"D2","midi":38,"time":358.5269291250056,"velocity":0.8818897637795275,"duration":0.04092263541667762},{"name":"D1","midi":26,"time":358.57157200000563,"velocity":0.8818897637795275,"duration":0.04092263541667762},{"name":"D2","midi":38,"time":358.61621487500565,"velocity":0.8818897637795275,"duration":0.04092263541667762},{"name":"D1","midi":26,"time":358.6608577500057,"velocity":0.8818897637795275,"duration":0.04092263541667762},{"name":"D2","midi":38,"time":358.7055006250057,"velocity":0.8818897637795275,"duration":0.04092263541667762},{"name":"D1","midi":26,"time":358.7501435000057,"velocity":0.8818897637795275,"duration":0.04092263541667762},{"name":"D2","midi":38,"time":358.79478637500574,"velocity":0.8818897637795275,"duration":0.04092263541667762},{"name":"D1","midi":26,"time":358.83942925000576,"velocity":0.8818897637795275,"duration":0.04092263541667762},{"name":"D2","midi":38,"time":358.8840721250058,"velocity":0.8818897637795275,"duration":0.04092263541667762},{"name":"D1","midi":26,"time":358.9287150000058,"velocity":0.8818897637795275,"duration":0.04092263541667762},{"name":"D2","midi":38,"time":358.97335787500583,"velocity":0.8818897637795275,"duration":0.04092263541667762},{"name":"D1","midi":26,"time":359.01800075000585,"velocity":0.8818897637795275,"duration":0.04092263541667762},{"name":"D2","midi":38,"time":359.0626436250059,"velocity":0.8818897637795275,"duration":0.04092263541667762},{"name":"D1","midi":26,"time":359.1072865000059,"velocity":0.8818897637795275,"duration":0.04092263541667762},{"name":"D2","midi":38,"time":359.1519293750059,"velocity":0.8818897637795275,"duration":0.04092263541667762},{"name":"D1","midi":26,"time":359.19657225000594,"velocity":0.8818897637795275,"duration":0.04092263541667762},{"name":"D2","midi":38,"time":359.24121512500597,"velocity":0.8818897637795275,"duration":0.04092263541667762},{"name":"D1","midi":26,"time":359.285858000006,"velocity":0.8818897637795275,"duration":0.04017858750000869},{"name":"D2","midi":38,"time":359.32975682708934,"velocity":0.8818897637795275,"duration":0.04017858750000869},{"name":"D1","midi":26,"time":359.37439970208936,"velocity":0.8818897637795275,"duration":0.04017858750000869},{"name":"D2","midi":38,"time":359.4182985291727,"velocity":0.8818897637795275,"duration":0.04017858750000869},{"name":"D1","midi":26,"time":359.46294140417274,"velocity":0.8818897637795275,"duration":0.04017858750000869},{"name":"D2","midi":38,"time":359.5068402312561,"velocity":0.8818897637795275,"duration":0.04017858750000869},{"name":"D1","midi":26,"time":359.5514831062561,"velocity":0.8818897637795275,"duration":0.04017858750000869},{"name":"D2","midi":38,"time":359.59538193333947,"velocity":0.8818897637795275,"duration":0.04017858750000869},{"name":"D1","midi":26,"time":359.6400248083395,"velocity":0.8818897637795275,"duration":0.04017858750000869},{"name":"D2","midi":38,"time":359.68392363542284,"velocity":0.8818897637795275,"duration":0.04017858750000869},{"name":"D1","midi":26,"time":359.72856651042287,"velocity":0.8818897637795275,"duration":0.04017858750000869},{"name":"D2","midi":38,"time":359.7724653375062,"velocity":0.8818897637795275,"duration":0.04017858750000869},{"name":"D1","midi":26,"time":359.81710821250624,"velocity":0.8818897637795275,"duration":0.04017858750000869},{"name":"D2","midi":38,"time":359.8610070395896,"velocity":0.8818897637795275,"duration":0.04017858750000869},{"name":"D1","midi":26,"time":359.9056499145896,"velocity":0.8818897637795275,"duration":0.04017858750000869},{"name":"D2","midi":38,"time":359.94954874167297,"velocity":0.8818897637795275,"duration":0.04017858750000869},{"name":"D1","midi":26,"time":359.994191616673,"velocity":0.8818897637795275,"duration":0.04017858750000869},{"name":"D2","midi":38,"time":360.03809044375635,"velocity":0.8818897637795275,"duration":0.04017858750000869},{"name":"D1","midi":26,"time":360.08273331875637,"velocity":0.8818897637795275,"duration":0.04017858750000869},{"name":"D2","midi":38,"time":360.1266321458397,"velocity":0.8818897637795275,"duration":0.04017858750000869},{"name":"D1","midi":26,"time":360.17127502083974,"velocity":0.8818897637795275,"duration":0.04017858750000869},{"name":"D2","midi":38,"time":360.2151738479231,"velocity":0.8818897637795275,"duration":0.04017858750000869},{"name":"D1","midi":26,"time":360.2598167229231,"velocity":0.8818897637795275,"duration":0.04017858750000869},{"name":"D2","midi":38,"time":360.3037155500065,"velocity":0.8818897637795275,"duration":0.04017858750000869},{"name":"D1","midi":26,"time":360.3483584250065,"velocity":0.8818897637795275,"duration":0.04017858750000869},{"name":"D2","midi":38,"time":360.3930013000065,"velocity":0.8818897637795275,"duration":0.04017858750000869},{"name":"D1","midi":26,"time":360.43690012708987,"velocity":0.8818897637795275,"duration":0.04017858750000869},{"name":"D2","midi":38,"time":360.4815430020899,"velocity":0.8818897637795275,"duration":0.04017858750000869},{"name":"D1","midi":26,"time":360.52544182917325,"velocity":0.8818897637795275,"duration":0.04017858750000869},{"name":"D2","midi":38,"time":360.57008470417327,"velocity":0.8818897637795275,"duration":0.04017858750000869},{"name":"D1","midi":26,"time":360.6139835312566,"velocity":0.8818897637795275,"duration":0.04017858750000869},{"name":"D2","midi":38,"time":360.65862640625664,"velocity":0.8818897637795275,"duration":0.04017858750000869},{"name":"D1","midi":26,"time":360.71443000000664,"velocity":1,"duration":2.784971352083346},{"name":"D2","midi":38,"time":360.71443000000664,"velocity":1,"duration":2.784971352083346},{"name":"D3","midi":50,"time":363.57157400000665,"velocity":0.3858267716535433,"duration":0.0840774145833052},{"name":"D2","midi":38,"time":363.57157400000665,"velocity":0.3858267716535433,"duration":1.3563993520831445},{"name":"E3","midi":52,"time":363.66085975000664,"velocity":0.3858267716535433,"duration":0.0840774145833052},{"name":"E3","midi":52,"time":363.7501455000066,"velocity":0.3858267716535433,"duration":0.0840774145833052},{"name":"F3","midi":53,"time":363.8394312500066,"velocity":0.3858267716535433,"duration":0.0840774145833052},{"name":"D3","midi":50,"time":363.9287170000066,"velocity":0.3858267716535433,"duration":0.0840774145833052},{"name":"E3","midi":52,"time":364.0180027500066,"velocity":0.3858267716535433,"duration":0.0840774145833052},{"name":"E3","midi":52,"time":364.1072885000066,"velocity":0.3858267716535433,"duration":0.0840774145833052},{"name":"F3","midi":53,"time":364.19657425000656,"velocity":0.3858267716535433,"duration":0.0840774145833052},{"name":"D3","midi":50,"time":364.28586000000655,"velocity":0.3858267716535433,"duration":0.0840774145833052},{"name":"E3","midi":52,"time":364.37514575000654,"velocity":0.3858267716535433,"duration":0.0840774145833052},{"name":"E3","midi":52,"time":364.4644315000065,"velocity":0.3858267716535433,"duration":0.0840774145833052},{"name":"F3","midi":53,"time":364.5537172500065,"velocity":0.3858267716535433,"duration":0.0840774145833052},{"name":"D3","midi":50,"time":364.6430030000065,"velocity":0.3858267716535433,"duration":0.0840774145833052},{"name":"E3","midi":52,"time":364.7322887500065,"velocity":0.3858267716535433,"duration":0.0840774145833052},{"name":"C3","midi":48,"time":365.00014600000645,"velocity":0.3858267716535433,"duration":0.0840774145833052},{"name":"C2","midi":36,"time":365.00014600000645,"velocity":0.3858267716535433,"duration":1.3563993520831445},{"name":"D3","midi":50,"time":365.08943175000644,"velocity":0.3858267716535433,"duration":0.0840774145833052},{"name":"D3","midi":50,"time":365.1787175000064,"velocity":0.3858267716535433,"duration":0.0840774145833052},{"name":"E3","midi":52,"time":365.2680032500064,"velocity":0.3858267716535433,"duration":0.0840774145833052},{"name":"C3","midi":48,"time":365.3572890000064,"velocity":0.3858267716535433,"duration":0.0840774145833052},{"name":"D3","midi":50,"time":365.4465747500064,"velocity":0.3858267716535433,"duration":0.0840774145833052},{"name":"D3","midi":50,"time":365.5358605000064,"velocity":0.3858267716535433,"duration":0.0840774145833052},{"name":"E3","midi":52,"time":365.62514625000637,"velocity":0.3858267716535433,"duration":0.0840774145833052},{"name":"C3","midi":48,"time":365.71443200000635,"velocity":0.3858267716535433,"duration":0.0840774145833052},{"name":"D3","midi":50,"time":365.80371775000634,"velocity":0.3858267716535433,"duration":0.0840774145833052},{"name":"D3","midi":50,"time":365.89300350000633,"velocity":0.3858267716535433,"duration":0.0840774145833052},{"name":"E3","midi":52,"time":365.9822892500063,"velocity":0.3858267716535433,"duration":0.0840774145833052},{"name":"C3","midi":48,"time":366.0715750000063,"velocity":0.3858267716535433,"duration":0.0840774145833052},{"name":"D3","midi":50,"time":366.1608607500063,"velocity":0.3858267716535433,"duration":0.0840774145833052},{"name":"D3","midi":50,"time":366.2501465000063,"velocity":0.3858267716535433,"duration":0.0840774145833052},{"name":"E3","midi":52,"time":366.33943225000627,"velocity":0.3858267716535433,"duration":0.0840774145833052},{"name":"C3","midi":48,"time":366.42871800000626,"velocity":0.3858267716535433,"duration":0.0840774145833052},{"name":"A2","midi":45,"time":366.42871800000626,"velocity":0.3858267716535433,"duration":1.3563993520831445},{"name":"D3","midi":50,"time":366.51800375000624,"velocity":0.3858267716535433,"duration":0.0840774145833052},{"name":"D3","midi":50,"time":366.60728950000623,"velocity":0.3858267716535433,"duration":0.0840774145833052},{"name":"E3","midi":52,"time":366.6965752500062,"velocity":0.3858267716535433,"duration":0.0840774145833052},{"name":"C3","midi":48,"time":366.7858610000062,"velocity":0.3858267716535433,"duration":0.0840774145833052},{"name":"D3","midi":50,"time":366.8751467500062,"velocity":0.3858267716535433,"duration":0.0840774145833052},{"name":"D3","midi":50,"time":366.9644325000062,"velocity":0.3858267716535433,"duration":0.0840774145833052},{"name":"E3","midi":52,"time":367.05371825000617,"velocity":0.3858267716535433,"duration":0.0840774145833052},{"name":"C3","midi":48,"time":367.14300400000616,"velocity":0.3858267716535433,"duration":0.0840774145833052},{"name":"D3","midi":50,"time":367.23228975000615,"velocity":0.3858267716535433,"duration":0.0840774145833052},{"name":"D3","midi":50,"time":367.32157550000613,"velocity":0.3858267716535433,"duration":0.0840774145833052},{"name":"E3","midi":52,"time":367.4108612500061,"velocity":0.3858267716535433,"duration":0.0840774145833052},{"name":"C3","midi":48,"time":367.5001470000061,"velocity":0.3858267716535433,"duration":0.0840774145833052},{"name":"D3","midi":50,"time":367.5894327500061,"velocity":0.3858267716535433,"duration":0.0840774145833052},{"name":"D3","midi":50,"time":367.85729000000606,"velocity":0.3858267716535433,"duration":0.0840774145833052},{"name":"D2","midi":38,"time":367.85729000000606,"velocity":0.3858267716535433,"duration":1.3563993520831445},{"name":"E3","midi":52,"time":367.94657575000605,"velocity":0.3858267716535433,"duration":0.0840774145833052},{"name":"E3","midi":52,"time":368.03586150000604,"velocity":0.3858267716535433,"duration":0.0840774145833052},{"name":"F3","midi":53,"time":368.125147250006,"velocity":0.3858267716535433,"duration":0.0840774145833052},{"name":"D3","midi":50,"time":368.214433000006,"velocity":0.3858267716535433,"duration":0.0840774145833052},{"name":"E3","midi":52,"time":368.303718750006,"velocity":0.3858267716535433,"duration":0.0840774145833052},{"name":"E3","midi":52,"time":368.393004500006,"velocity":0.3858267716535433,"duration":0.0840774145833052},{"name":"F3","midi":53,"time":368.482290250006,"velocity":0.3858267716535433,"duration":0.0840774145833052},{"name":"D3","midi":50,"time":368.57157600000596,"velocity":0.3858267716535433,"duration":0.0840774145833052},{"name":"E3","midi":52,"time":368.66086175000595,"velocity":0.3858267716535433,"duration":0.0840774145833052},{"name":"E3","midi":52,"time":368.75014750000594,"velocity":0.3858267716535433,"duration":0.0840774145833052},{"name":"F3","midi":53,"time":368.8394332500059,"velocity":0.3858267716535433,"duration":0.0840774145833052},{"name":"D3","midi":50,"time":368.9287190000059,"velocity":0.3858267716535433,"duration":0.0840774145833052},{"name":"E3","midi":52,"time":369.0180047500059,"velocity":0.3858267716535433,"duration":0.0840774145833052},{"name":"E3","midi":52,"time":369.1072905000059,"velocity":0.3858267716535433,"duration":0.0840774145833052},{"name":"F3","midi":53,"time":369.1965762500059,"velocity":0.3858267716535433,"duration":0.0840774145833052},{"name":"D3","midi":50,"time":369.28586200000586,"velocity":0.3858267716535433,"duration":0.0840774145833052},{"name":"D2","midi":38,"time":369.28586200000586,"velocity":0.3858267716535433,"duration":1.3563993520831445},{"name":"E3","midi":52,"time":369.37514775000585,"velocity":0.3858267716535433,"duration":0.0840774145833052},{"name":"E3","midi":52,"time":369.46443350000584,"velocity":0.3858267716535433,"duration":0.0840774145833052},{"name":"F3","midi":53,"time":369.5537192500058,"velocity":0.3858267716535433,"duration":0.0840774145833052},{"name":"D3","midi":50,"time":369.6430050000058,"velocity":0.3858267716535433,"duration":0.0840774145833052},{"name":"E3","midi":52,"time":369.7322907500058,"velocity":0.3858267716535433,"duration":0.0840774145833052},{"name":"E3","midi":52,"time":369.8215765000058,"velocity":0.3858267716535433,"duration":0.0840774145833052},{"name":"F3","midi":53,"time":369.9108622500058,"velocity":0.3858267716535433,"duration":0.0840774145833052},{"name":"D3","midi":50,"time":370.00014800000577,"velocity":0.3858267716535433,"duration":0.0840774145833052},{"name":"E3","midi":52,"time":370.08943375000575,"velocity":0.3858267716535433,"duration":0.0840774145833052},{"name":"E3","midi":52,"time":370.17871950000574,"velocity":0.3858267716535433,"duration":0.0840774145833052},{"name":"F3","midi":53,"time":370.26800525000573,"velocity":0.3858267716535433,"duration":0.0840774145833052},{"name":"D3","midi":50,"time":370.3572910000057,"velocity":0.3858267716535433,"duration":0.0840774145833052},{"name":"E3","midi":52,"time":370.4465767500057,"velocity":0.3858267716535433,"duration":0.0840774145833052},{"name":"C3","midi":48,"time":370.71443400000567,"velocity":0.3858267716535433,"duration":0.0840774145833052},{"name":"C2","midi":36,"time":370.71443400000567,"velocity":0.3858267716535433,"duration":1.3563993520831445},{"name":"D3","midi":50,"time":370.80371975000565,"velocity":0.3858267716535433,"duration":0.0840774145833052},{"name":"D3","midi":50,"time":370.89300550000564,"velocity":0.3858267716535433,"duration":0.0840774145833052},{"name":"E3","midi":52,"time":370.98229125000563,"velocity":0.3858267716535433,"duration":0.0840774145833052},{"name":"C3","midi":48,"time":371.0715770000056,"velocity":0.3858267716535433,"duration":0.0840774145833052},{"name":"D3","midi":50,"time":371.1608627500056,"velocity":0.3858267716535433,"duration":0.0840774145833052},{"name":"D3","midi":50,"time":371.2501485000056,"velocity":0.3858267716535433,"duration":0.0840774145833052},{"name":"E3","midi":52,"time":371.3394342500056,"velocity":0.3858267716535433,"duration":0.0840774145833052},{"name":"C3","midi":48,"time":371.42872000000557,"velocity":0.3858267716535433,"duration":0.0840774145833052},{"name":"D3","midi":50,"time":371.51800575000556,"velocity":0.3858267716535433,"duration":0.0840774145833052},{"name":"D3","midi":50,"time":371.60729150000554,"velocity":0.3858267716535433,"duration":0.0840774145833052},{"name":"E3","midi":52,"time":371.69657725000553,"velocity":0.3858267716535433,"duration":0.0840774145833052},{"name":"C3","midi":48,"time":371.7858630000055,"velocity":0.3858267716535433,"duration":0.0840774145833052},{"name":"D3","midi":50,"time":371.8751487500055,"velocity":0.3858267716535433,"duration":0.0840774145833052},{"name":"D3","midi":50,"time":372.14300600000547,"velocity":0.3858267716535433,"duration":0.0840774145833052},{"name":"G2","midi":43,"time":372.14300600000547,"velocity":0.3858267716535433,"duration":1.3563993520831445},{"name":"E3","midi":52,"time":372.23229175000546,"velocity":0.3858267716535433,"duration":0.0840774145833052},{"name":"E3","midi":52,"time":372.32157750000545,"velocity":0.3858267716535433,"duration":0.0840774145833052},{"name":"F3","midi":53,"time":372.41086325000543,"velocity":0.3858267716535433,"duration":0.0840774145833052},{"name":"C3","midi":48,"time":372.5001490000054,"velocity":0.3858267716535433,"duration":0.0840774145833052},{"name":"D3","midi":50,"time":372.5894347500054,"velocity":0.3858267716535433,"duration":0.0840774145833052},{"name":"D3","midi":50,"time":372.6787205000054,"velocity":0.3858267716535433,"duration":0.0840774145833052},{"name":"E3","midi":52,"time":372.7680062500054,"velocity":0.3858267716535433,"duration":0.0840774145833052},{"name":"C3","midi":48,"time":372.8572920000054,"velocity":0.3858267716535433,"duration":0.0840774145833052},{"name":"D3","midi":50,"time":372.94657775000536,"velocity":0.3858267716535433,"duration":0.0840774145833052},{"name":"D3","midi":50,"time":373.03586350000535,"velocity":0.3858267716535433,"duration":0.0840774145833052},{"name":"E3","midi":52,"time":373.12514925000534,"velocity":0.3858267716535433,"duration":0.0840774145833052},{"name":"C3","midi":48,"time":373.2144350000053,"velocity":0.3858267716535433,"duration":0.0840774145833052},{"name":"D3","midi":50,"time":373.3037207500053,"velocity":0.3858267716535433,"duration":0.0840774145833052},{"name":"D3","midi":50,"time":373.5715780000053,"velocity":0.5039370078740157,"duration":0.0840774145833052},{"name":"A2","midi":45,"time":373.5715780000053,"velocity":0.5039370078740157,"duration":1.3563993520831445},{"name":"E3","midi":52,"time":373.66086375000526,"velocity":0.5118110236220472,"duration":0.0840774145833052},{"name":"E3","midi":52,"time":373.75014950000525,"velocity":0.5196850393700787,"duration":0.0840774145833052},{"name":"A3","midi":57,"time":373.83943525000524,"velocity":0.5275590551181102,"duration":0.0840774145833052},{"name":"D3","midi":50,"time":373.9287210000052,"velocity":0.5354330708661418,"duration":0.0840774145833052},{"name":"E3","midi":52,"time":374.0180067500052,"velocity":0.5433070866141733,"duration":0.0840774145833052},{"name":"E3","midi":52,"time":374.1072925000052,"velocity":0.5511811023622047,"duration":0.0840774145833052},{"name":"A3","midi":57,"time":374.1965782500052,"velocity":0.5590551181102362,"duration":0.0840774145833052},{"name":"C#3","midi":49,"time":374.2858640000052,"velocity":0.5669291338582677,"duration":0.0840774145833052},{"name":"E3","midi":52,"time":374.37514975000516,"velocity":0.5748031496062992,"duration":0.0840774145833052},{"name":"E3","midi":52,"time":374.46443550000515,"velocity":0.5826771653543307,"duration":0.0840774145833052},{"name":"A3","midi":57,"time":374.55372125000514,"velocity":0.5905511811023622,"duration":0.0840774145833052},{"name":"C#3","midi":49,"time":374.6430070000051,"velocity":0.5984251968503937,"duration":0.0840774145833052},{"name":"E3","midi":52,"time":374.7322927500051,"velocity":0.6062992125984252,"duration":0.0840774145833052},{"name":"E3","midi":52,"time":374.8215785000051,"velocity":0.6141732283464567,"duration":0.0840774145833052},{"name":"A3","midi":57,"time":374.9108642500051,"velocity":0.6220472440944882,"duration":0.0840774145833052},{"name":"A#2","midi":46,"time":375.0001500000051,"velocity":0.5039370078740157,"duration":1.3563993520831445},{"name":"E3","midi":52,"time":375.17872150000505,"velocity":0.5039370078740157,"duration":0.0840774145833052},{"name":"F3","midi":53,"time":375.26800725000504,"velocity":0.5039370078740157,"duration":0.0840774145833052},{"name":"D3","midi":50,"time":375.35729300000503,"velocity":0.5039370078740157,"duration":0.0840774145833052},{"name":"E3","midi":52,"time":375.446578750005,"velocity":0.5039370078740157,"duration":0.0840774145833052},{"name":"E3","midi":52,"time":375.535864500005,"velocity":0.5039370078740157,"duration":0.0840774145833052},{"name":"F3","midi":53,"time":375.625150250005,"velocity":0.5039370078740157,"duration":0.0840774145833052},{"name":"D3","midi":50,"time":375.714436000005,"velocity":0.5039370078740157,"duration":0.0840774145833052},{"name":"E3","midi":52,"time":375.80372175000497,"velocity":0.5039370078740157,"duration":0.0840774145833052},{"name":"E3","midi":52,"time":375.89300750000496,"velocity":0.5039370078740157,"duration":0.0840774145833052},{"name":"F3","midi":53,"time":375.98229325000494,"velocity":0.5039370078740157,"duration":0.0840774145833052},{"name":"D3","midi":50,"time":376.07157900000493,"velocity":0.5039370078740157,"duration":0.0840774145833052},{"name":"E3","midi":52,"time":376.1608647500049,"velocity":0.5039370078740157,"duration":0.0840774145833052},{"name":"E3","midi":52,"time":376.2501505000049,"velocity":0.5039370078740157,"duration":0.0840774145833052},{"name":"F3","midi":53,"time":376.3394362500049,"velocity":0.5039370078740157,"duration":0.0840774145833052},{"name":"C3","midi":48,"time":376.4287220000049,"velocity":0.5039370078740157,"duration":0.16889887708333617},{"name":"F2","midi":41,"time":376.4287220000049,"velocity":0.5039370078740157,"duration":0.798363414583207},{"name":"C3","midi":48,"time":376.60729350000486,"velocity":0.5039370078740157,"duration":0.0840774145833052},{"name":"F3","midi":53,"time":376.69657925000485,"velocity":0.5039370078740157,"duration":0.0840774145833052},{"name":"A#2","midi":46,"time":376.78586500000483,"velocity":0.5039370078740157,"duration":0.0840774145833052},{"name":"C3","midi":48,"time":376.8751507500048,"velocity":0.5039370078740157,"duration":0.0840774145833052},{"name":"C3","midi":48,"time":376.9644365000048,"velocity":0.5039370078740157,"duration":0.0840774145833052},{"name":"F3","midi":53,"time":377.0537222500048,"velocity":0.5039370078740157,"duration":0.0840774145833052},{"name":"F2","midi":41,"time":377.1430080000048,"velocity":0.5039370078740157,"duration":0.4412204145832561},{"name":"C3","midi":48,"time":377.23229375000477,"velocity":0.5039370078740157,"duration":0.0840774145833052},{"name":"C3","midi":48,"time":377.32157950000476,"velocity":0.5039370078740157,"duration":0.0840774145833052},{"name":"F3","midi":53,"time":377.41086525000475,"velocity":0.5039370078740157,"duration":0.0840774145833052},{"name":"F2","midi":41,"time":377.50015100000473,"velocity":0.5039370078740157,"duration":0.2849703520832918},{"name":"C3","midi":48,"time":377.5894367500047,"velocity":0.5039370078740157,"duration":0.0840774145833052},{"name":"C3","midi":48,"time":377.6787225000047,"velocity":0.5039370078740157,"duration":0.0840774145833052},{"name":"C3","midi":48,"time":377.7680082500047,"velocity":0.5039370078740157,"duration":0.0840774145833052},{"name":"C2","midi":36,"time":377.8572940000047,"velocity":0.5039370078740157,"duration":1.3563993520831445},{"name":"D3","midi":50,"time":378.03586550000466,"velocity":0.5039370078740157,"duration":0.0840774145833052},{"name":"E3","midi":52,"time":378.12515125000465,"velocity":0.5039370078740157,"duration":0.0840774145833052},{"name":"F3","midi":53,"time":378.21443700000464,"velocity":0.5039370078740157,"duration":0.0840774145833052},{"name":"F3","midi":53,"time":378.3037227500046,"velocity":0.5039370078740157,"duration":0.0840774145833052},{"name":"D3","midi":50,"time":378.3930085000046,"velocity":0.5039370078740157,"duration":0.0840774145833052},{"name":"E3","midi":52,"time":378.4822942500046,"velocity":0.5039370078740157,"duration":0.0840774145833052},{"name":"E3","midi":52,"time":378.5715800000046,"velocity":0.5039370078740157,"duration":0.0840774145833052},{"name":"F3","midi":53,"time":378.5715800000046,"velocity":0.5039370078740157,"duration":0.0840774145833052},{"name":"E3","midi":52,"time":378.6608657500046,"velocity":0.5039370078740157,"duration":0.0840774145833052},{"name":"F3","midi":53,"time":378.6608657500046,"velocity":0.5039370078740157,"duration":0.0840774145833052},{"name":"E3","midi":52,"time":378.75015150000456,"velocity":0.5039370078740157,"duration":0.0840774145833052},{"name":"F3","midi":53,"time":378.75015150000456,"velocity":0.5039370078740157,"duration":0.0840774145833052},{"name":"E3","midi":52,"time":378.83943725000455,"velocity":0.5039370078740157,"duration":0.0840774145833052},{"name":"F3","midi":53,"time":378.83943725000455,"velocity":0.5039370078740157,"duration":0.0840774145833052},{"name":"E3","midi":52,"time":378.92872300000454,"velocity":0.5039370078740157,"duration":0.0840774145833052},{"name":"F3","midi":53,"time":378.92872300000454,"velocity":0.5039370078740157,"duration":0.0840774145833052},{"name":"E3","midi":52,"time":379.0180087500045,"velocity":0.5039370078740157,"duration":0.0840774145833052},{"name":"F3","midi":53,"time":379.0180087500045,"velocity":0.5039370078740157,"duration":0.0840774145833052},{"name":"E3","midi":52,"time":379.1072945000045,"velocity":0.5039370078740157,"duration":0.0840774145833052},{"name":"F3","midi":53,"time":379.1072945000045,"velocity":0.5039370078740157,"duration":0.0840774145833052},{"name":"E3","midi":52,"time":379.1965802500045,"velocity":0.5039370078740157,"duration":0.0840774145833052},{"name":"F3","midi":53,"time":379.1965802500045,"velocity":0.5039370078740157,"duration":0.0840774145833052},{"name":"D3","midi":50,"time":379.2858660000045,"velocity":0.5039370078740157,"duration":0.0840774145833052},{"name":"A2","midi":45,"time":379.2858660000045,"velocity":0.5039370078740157,"duration":1.3563993520831445},{"name":"E3","midi":52,"time":379.3751517500045,"velocity":0.5039370078740157,"duration":0.0840774145833052},{"name":"E3","midi":52,"time":379.46443750000446,"velocity":0.5039370078740157,"duration":0.0840774145833052},{"name":"A3","midi":57,"time":379.55372325000445,"velocity":0.5039370078740157,"duration":0.0840774145833052},{"name":"D3","midi":50,"time":379.64300900000444,"velocity":0.5039370078740157,"duration":0.0840774145833052},{"name":"E3","midi":52,"time":379.7322947500044,"velocity":0.5039370078740157,"duration":0.0840774145833052},{"name":"E3","midi":52,"time":379.8215805000044,"velocity":0.5039370078740157,"duration":0.0840774145833052},{"name":"A3","midi":57,"time":379.9108662500044,"velocity":0.5039370078740157,"duration":0.0840774145833052},{"name":"C3","midi":48,"time":380.0001520000044,"velocity":0.5039370078740157,"duration":0.0840774145833052},{"name":"E3","midi":52,"time":380.0894377500044,"velocity":0.5039370078740157,"duration":0.0840774145833052},{"name":"A3","midi":57,"time":380.17872350000437,"velocity":0.5039370078740157,"duration":0.0840774145833052},{"name":"C4","midi":60,"time":380.26800925000435,"velocity":0.5039370078740157,"duration":0.0840774145833052},{"name":"A3","midi":57,"time":380.44658075000433,"velocity":0.5039370078740157,"duration":0.0840774145833052},{"name":"A3","midi":57,"time":380.5358665000043,"velocity":0.5039370078740157,"duration":0.16889887708333617},{"name":"A#3","midi":58,"time":380.7144380000043,"velocity":0.6299212598425197,"duration":0.0840774145833052},{"name":"A#2","midi":46,"time":380.7144380000043,"velocity":0.6299212598425197,"duration":1.4278279520831916},{"name":"D3","midi":50,"time":380.76131301875427,"velocity":0.6299212598425197,"duration":1.3802088854165504},{"name":"A#3","midi":58,"time":380.8037237500043,"velocity":0.6299212598425197,"duration":0.08407741458336204},{"name":"F3","midi":53,"time":380.8081880375043,"velocity":0.6299212598425197,"duration":1.3333338666665213},{"name":"A#3","midi":58,"time":380.8930095000043,"velocity":0.6377952755905512,"duration":0.0840774145833052},{"name":"A#3","midi":58,"time":380.9822952500043,"velocity":0.6377952755905512,"duration":0.0840774145833052},{"name":"A#3","midi":58,"time":381.0715810000043,"velocity":0.6456692913385826,"duration":0.0840774145833052},{"name":"A#3","midi":58,"time":381.1608667500043,"velocity":0.6456692913385826,"duration":0.0840774145833052},{"name":"A#3","midi":58,"time":381.2501525000043,"velocity":0.6535433070866141,"duration":0.0840774145833052},{"name":"A#3","midi":58,"time":381.33943825000426,"velocity":0.6535433070866141,"duration":0.0840774145833052},{"name":"A#3","midi":58,"time":381.42872400000425,"velocity":0.6614173228346457,"duration":0.0840774145833052},{"name":"A#3","midi":58,"time":381.51800975000424,"velocity":0.6614173228346457,"duration":0.0840774145833052},{"name":"A#3","midi":58,"time":381.6072955000042,"velocity":0.6692913385826772,"duration":0.0840774145833052},{"name":"A#3","midi":58,"time":381.6965812500042,"velocity":0.6692913385826772,"duration":0.0840774145833052},{"name":"A#3","midi":58,"time":381.7858670000042,"velocity":0.6771653543307087,"duration":0.0840774145833052},{"name":"A#3","midi":58,"time":381.8751527500042,"velocity":0.6771653543307087,"duration":0.0840774145833052},{"name":"A#3","midi":58,"time":381.9644385000042,"velocity":0.6850393700787402,"duration":0.0840774145833052},{"name":"D3","midi":50,"time":382.14301000000415,"velocity":0.6929133858267716,"duration":0.0840774145833052},{"name":"D2","midi":38,"time":382.14301000000415,"velocity":0.6929133858267716,"duration":1.3563993520831445},{"name":"E3","midi":52,"time":382.23229575000414,"velocity":0.6929133858267716,"duration":0.0840774145833052},{"name":"F3","midi":53,"time":382.23229575000414,"velocity":0.6929133858267716,"duration":0.0840774145833052},{"name":"A3","midi":57,"time":382.23229575000414,"velocity":0.6929133858267716,"duration":0.0840774145833052},{"name":"E3","midi":52,"time":382.32158150000413,"velocity":0.7007874015748031,"duration":0.0840774145833052},{"name":"F3","midi":53,"time":382.32158150000413,"velocity":0.7007874015748031,"duration":0.0840774145833052},{"name":"A3","midi":57,"time":382.32158150000413,"velocity":0.7007874015748031,"duration":0.0840774145833052},{"name":"E3","midi":52,"time":382.4108672500041,"velocity":0.7007874015748031,"duration":0.0840774145833052},{"name":"F3","midi":53,"time":382.4108672500041,"velocity":0.7007874015748031,"duration":0.0840774145833052},{"name":"A3","midi":57,"time":382.4108672500041,"velocity":0.7007874015748031,"duration":0.0840774145833052},{"name":"E3","midi":52,"time":382.5001530000041,"velocity":0.7086614173228346,"duration":0.0840774145833052},{"name":"F3","midi":53,"time":382.5001530000041,"velocity":0.7086614173228346,"duration":0.0840774145833052},{"name":"A3","midi":57,"time":382.5001530000041,"velocity":0.7086614173228346,"duration":0.0840774145833052},{"name":"E3","midi":52,"time":382.5894387500041,"velocity":0.7086614173228346,"duration":0.0840774145833052},{"name":"F3","midi":53,"time":382.5894387500041,"velocity":0.7086614173228346,"duration":0.0840774145833052},{"name":"A3","midi":57,"time":382.5894387500041,"velocity":0.7086614173228346,"duration":0.0840774145833052},{"name":"E3","midi":52,"time":382.6787245000041,"velocity":0.7165354330708661,"duration":0.0840774145833052},{"name":"F3","midi":53,"time":382.6787245000041,"velocity":0.7165354330708661,"duration":0.0840774145833052},{"name":"A3","midi":57,"time":382.6787245000041,"velocity":0.7165354330708661,"duration":0.0840774145833052},{"name":"E3","midi":52,"time":382.76801025000407,"velocity":0.7165354330708661,"duration":0.0840774145833052},{"name":"F3","midi":53,"time":382.76801025000407,"velocity":0.7165354330708661,"duration":0.0840774145833052},{"name":"A3","midi":57,"time":382.76801025000407,"velocity":0.7165354330708661,"duration":0.0840774145833052},{"name":"D3","midi":50,"time":382.85729600000406,"velocity":0.7244094488188977,"duration":0.0840774145833052},{"name":"F3","midi":53,"time":382.85729600000406,"velocity":0.7244094488188977,"duration":0.0840774145833052},{"name":"A3","midi":57,"time":382.85729600000406,"velocity":0.7244094488188977,"duration":0.0840774145833052},{"name":"D3","midi":50,"time":382.94658175000404,"velocity":0.7244094488188977,"duration":0.0840774145833052},{"name":"F3","midi":53,"time":382.94658175000404,"velocity":0.7244094488188977,"duration":0.0840774145833052},{"name":"A3","midi":57,"time":382.94658175000404,"velocity":0.7244094488188977,"duration":0.0840774145833052},{"name":"D3","midi":50,"time":383.03586750000403,"velocity":0.7322834645669292,"duration":0.0840774145833052},{"name":"F3","midi":53,"time":383.03586750000403,"velocity":0.7322834645669292,"duration":0.0840774145833052},{"name":"A3","midi":57,"time":383.03586750000403,"velocity":0.7322834645669292,"duration":0.0840774145833052},{"name":"D3","midi":50,"time":383.125153250004,"velocity":0.7322834645669292,"duration":0.0840774145833052},{"name":"F3","midi":53,"time":383.125153250004,"velocity":0.7322834645669292,"duration":0.0840774145833052},{"name":"A3","midi":57,"time":383.125153250004,"velocity":0.7322834645669292,"duration":0.0840774145833052},{"name":"D3","midi":50,"time":383.214439000004,"velocity":0.7401574803149606,"duration":0.0840774145833052},{"name":"F3","midi":53,"time":383.214439000004,"velocity":0.7401574803149606,"duration":0.0840774145833052},{"name":"A3","midi":57,"time":383.214439000004,"velocity":0.7401574803149606,"duration":0.0840774145833052},{"name":"D3","midi":50,"time":383.303724750004,"velocity":0.7401574803149606,"duration":0.0840774145833052},{"name":"F3","midi":53,"time":383.303724750004,"velocity":0.7401574803149606,"duration":0.0840774145833052},{"name":"A3","midi":57,"time":383.303724750004,"velocity":0.7401574803149606,"duration":0.0840774145833052},{"name":"D3","midi":50,"time":383.393010500004,"velocity":0.7480314960629921,"duration":0.16889887708333617},{"name":"F3","midi":53,"time":383.393010500004,"velocity":0.7480314960629921,"duration":0.16889887708333617},{"name":"A3","midi":57,"time":383.393010500004,"velocity":0.7480314960629921,"duration":0.16889887708333617},{"name":"C3","midi":48,"time":383.57158200000396,"velocity":0.7559055118110236,"duration":0.0840774145833052},{"name":"C3","midi":48,"time":383.66086775000394,"velocity":0.7559055118110236,"duration":0.0840774145833052},{"name":"E3","midi":52,"time":383.66086775000394,"velocity":0.7559055118110236,"duration":0.0840774145833052},{"name":"C3","midi":48,"time":383.75015350000393,"velocity":0.7559055118110236,"duration":0.0840774145833052},{"name":"E3","midi":52,"time":383.75015350000393,"velocity":0.7559055118110236,"duration":0.0840774145833052},{"name":"C3","midi":48,"time":383.8394392500039,"velocity":0.7559055118110236,"duration":0.0840774145833052},{"name":"E3","midi":52,"time":383.8394392500039,"velocity":0.7559055118110236,"duration":0.0840774145833052},{"name":"C3","midi":48,"time":383.9287250000039,"velocity":0.7559055118110236,"duration":0.0840774145833052},{"name":"E3","midi":52,"time":383.9287250000039,"velocity":0.7559055118110236,"duration":0.0840774145833052},{"name":"C3","midi":48,"time":384.0180107500039,"velocity":0.7559055118110236,"duration":0.0840774145833052},{"name":"E3","midi":52,"time":384.0180107500039,"velocity":0.7559055118110236,"duration":0.0840774145833052},{"name":"C3","midi":48,"time":384.1072965000039,"velocity":0.7559055118110236,"duration":0.0840774145833052},{"name":"E3","midi":52,"time":384.1072965000039,"velocity":0.7559055118110236,"duration":0.0840774145833052},{"name":"C3","midi":48,"time":384.19658225000387,"velocity":0.7559055118110236,"duration":0.0840774145833052},{"name":"E3","midi":52,"time":384.19658225000387,"velocity":0.7559055118110236,"duration":0.0840774145833052},{"name":"C3","midi":48,"time":384.28586800000386,"velocity":0.7559055118110236,"duration":0.0840774145833052},{"name":"E3","midi":52,"time":384.28586800000386,"velocity":0.7559055118110236,"duration":0.0840774145833052},{"name":"C3","midi":48,"time":384.37515375000385,"velocity":0.7559055118110236,"duration":0.0840774145833052},{"name":"A3","midi":57,"time":384.37515375000385,"velocity":0.7559055118110236,"duration":0.0840774145833052},{"name":"C3","midi":48,"time":384.46443950000383,"velocity":0.7559055118110236,"duration":0.0840774145833052},{"name":"A3","midi":57,"time":384.46443950000383,"velocity":0.7559055118110236,"duration":0.0840774145833052},{"name":"C3","midi":48,"time":384.5537252500038,"velocity":0.7401574803149606,"duration":0.0840774145833052},{"name":"A3","midi":57,"time":384.5537252500038,"velocity":0.7401574803149606,"duration":0.0840774145833052},{"name":"C3","midi":48,"time":384.6430110000038,"velocity":0.7244094488188977,"duration":0.0840774145833052},{"name":"A3","midi":57,"time":384.6430110000038,"velocity":0.7244094488188977,"duration":0.0840774145833052},{"name":"C3","midi":48,"time":384.7322967500038,"velocity":0.7086614173228346,"duration":0.0840774145833052},{"name":"A3","midi":57,"time":384.7322967500038,"velocity":0.7086614173228346,"duration":0.0840774145833052},{"name":"C3","midi":48,"time":384.8215825000038,"velocity":0.6850393700787402,"duration":0.0840774145833052},{"name":"A3","midi":57,"time":384.8215825000038,"velocity":0.6850393700787402,"duration":0.0840774145833052},{"name":"C3","midi":48,"time":384.9108682500038,"velocity":0.6692913385826772,"duration":0.0840774145833052},{"name":"A3","midi":57,"time":384.9108682500038,"velocity":0.6692913385826772,"duration":0.0840774145833052},{"name":"A3","midi":57,"time":385.00015400000376,"velocity":0.6535433070866141,"duration":0.0885417020833188},{"name":"E3","midi":52,"time":385.08943975000375,"velocity":0.6299212598425197,"duration":0.0885417020833188},{"name":"C#3","midi":49,"time":385.17872550000374,"velocity":0.6141732283464567,"duration":0.0885417020833188},{"name":"A2","midi":45,"time":385.2680112500037,"velocity":0.5984251968503937,"duration":0.0885417020833188},{"name":"E2","midi":40,"time":385.3572970000037,"velocity":0.5826771653543307,"duration":0.0885417020833188},{"name":"C#2","midi":37,"time":385.4465827500037,"velocity":0.5590551181102362,"duration":0.0885417020833188},{"name":"A1","midi":33,"time":385.5358685000037,"velocity":0.5433070866141733,"duration":0.16889887708333617},{"name":"D2","midi":38,"time":385.71444000000366,"velocity":0.5039370078740157,"duration":0.3385418020833413},{"name":"F3","midi":53,"time":385.71444000000366,"velocity":0.5039370078740157,"duration":0.3385418020833413},{"name":"A#2","midi":46,"time":386.7858690000037,"velocity":0.5039370078740157,"duration":1.356399352083315},{"name":"D3","midi":50,"time":386.7858690000037,"velocity":0.5039370078740157,"duration":1.356399352083315},{"name":"F3","midi":53,"time":386.7858690000037,"velocity":0.5039370078740157,"duration":1.356399352083315},{"name":"A#3","midi":58,"time":386.7858690000037,"velocity":0.5039370078740157,"duration":1.356399352083315},{"name":"D2","midi":38,"time":388.21444100000366,"velocity":0.5039370078740157,"duration":1.356399352083315},{"name":"A2","midi":45,"time":388.21444100000366,"velocity":0.5039370078740157,"duration":1.356399352083315},{"name":"D3","midi":50,"time":388.21444100000366,"velocity":0.5039370078740157,"duration":1.356399352083315},{"name":"C3","midi":48,"time":389.64301300000363,"velocity":0.5039370078740157,"duration":0.6778276520833515},{"name":"E3","midi":52,"time":389.64301300000363,"velocity":0.5039370078740157,"duration":0.6778276520833515},{"name":"G3","midi":55,"time":389.64301300000363,"velocity":0.5039370078740157,"duration":0.6778276520833515},{"name":"A2","midi":45,"time":390.35729900000365,"velocity":0.5039370078740157,"duration":0.6778276520833515},{"name":"C3","midi":48,"time":390.35729900000365,"velocity":0.5039370078740157,"duration":0.6778276520833515},{"name":"E3","midi":52,"time":390.35729900000365,"velocity":0.5039370078740157,"duration":0.6778276520833515},{"name":"A3","midi":57,"time":390.35729900000365,"velocity":0.5039370078740157,"duration":0.6778276520833515},{"name":"D2","midi":38,"time":391.07158500000367,"velocity":0.5039370078740157,"duration":0.7135419520832897},{"name":"A2","midi":45,"time":391.11846001875364,"velocity":0.5039370078740157,"duration":0.6659228854166486},{"name":"D3","midi":50,"time":391.1660790854203,"velocity":0.5039370078740157,"duration":0.6183038187500074},{"name":"A3","midi":57,"time":391.7858710000036,"velocity":0.6299212598425197,"duration":0.0885417020833188},{"name":"E4","midi":64,"time":391.8751567500036,"velocity":0.6299212598425197,"duration":0.0885417020833188},{"name":"D4","midi":62,"time":391.9644425000036,"velocity":0.6299212598425197,"duration":0.0885417020833188},{"name":"A3","midi":57,"time":392.0537282500036,"velocity":0.6299212598425197,"duration":0.0885417020833188},{"name":"F3","midi":53,"time":392.1430140000036,"velocity":0.6299212598425197,"duration":0.0885417020833188},{"name":"E3","midi":52,"time":392.23229975000356,"velocity":0.6299212598425197,"duration":0.2537203395833103},{"name":"A#2","midi":46,"time":392.5001570000035,"velocity":0.6299212598425197,"duration":0.2671132020832374},{"name":"D3","midi":50,"time":392.5470320187535,"velocity":0.6299212598425197,"duration":0.21949413541659624},{"name":"F3","midi":53,"time":392.59465108542014,"velocity":0.6299212598425197,"duration":0.17187506874995506},{"name":"A#3","midi":58,"time":392.6422701520868,"velocity":0.6299212598425197,"duration":0.12425600208331389},{"name":"F3","midi":53,"time":392.76801425000343,"velocity":0.6299212598425197,"duration":0.0885417020833188},{"name":"E4","midi":64,"time":392.8573000000034,"velocity":0.6299212598425197,"duration":0.0885417020833188},{"name":"E4","midi":64,"time":392.8573000000034,"velocity":0.6299212598425197,"duration":0.17782745208330653},{"name":"D4","midi":62,"time":392.9465857500034,"velocity":0.6299212598425197,"duration":0.0885417020833188},{"name":"F4","midi":65,"time":393.0358715000034,"velocity":0.6299212598425197,"duration":0.0885417020833188},{"name":"F4","midi":65,"time":393.0358715000034,"velocity":0.6299212598425197,"duration":0.17782745208330653},{"name":"C4","midi":60,"time":393.1251572500034,"velocity":0.6299212598425197,"duration":0.0885417020833188},{"name":"E4","midi":64,"time":393.21444300000337,"velocity":0.6299212598425197,"duration":0.0885417020833188},{"name":"E4","midi":64,"time":393.21444300000337,"velocity":0.6299212598425197,"duration":0.17782745208330653},{"name":"F3","midi":53,"time":393.30372875000336,"velocity":0.6299212598425197,"duration":0.0885417020833188},{"name":"A#3","midi":58,"time":393.39301450000335,"velocity":0.6299212598425197,"duration":0.0885417020833188},{"name":"F3","midi":53,"time":393.48230025000333,"velocity":0.6299212598425197,"duration":0.0885417020833188},{"name":"A#2","midi":46,"time":393.5715860000033,"velocity":0.6299212598425197,"duration":0.3385418020833413},{"name":"F3","midi":53,"time":393.5715860000033,"velocity":0.6299212598425197,"duration":0.3385418020833413},{"name":"A#3","midi":58,"time":393.5715860000033,"velocity":0.6299212598425197,"duration":0.3385418020833413},{"name":"D2","midi":38,"time":393.92872900000333,"velocity":0.6299212598425197,"duration":0.0885417020833188},{"name":"A2","midi":45,"time":394.0180147500033,"velocity":0.6299212598425197,"duration":0.0885417020833188},{"name":"D3","midi":50,"time":394.1073005000033,"velocity":0.6299212598425197,"duration":0.0885417020833188},{"name":"F3","midi":53,"time":394.1965862500033,"velocity":0.6299212598425197,"duration":0.0885417020833188},{"name":"A3","midi":57,"time":394.2858720000033,"velocity":0.6299212598425197,"duration":0.0885417020833188},{"name":"G4","midi":67,"time":394.2858720000033,"velocity":0.6299212598425197,"duration":0.17782745208330653},{"name":"E4","midi":64,"time":394.37515775000327,"velocity":0.6299212598425197,"duration":0.0885417020833188},{"name":"A4","midi":69,"time":394.46444350000326,"velocity":0.6299212598425197,"duration":0.0885417020833188},{"name":"A4","midi":69,"time":394.46444350000326,"velocity":0.6299212598425197,"duration":0.17782745208330653},{"name":"D4","midi":62,"time":394.55372925000324,"velocity":0.6299212598425197,"duration":0.0885417020833188},{"name":"G4","midi":67,"time":394.64301500000323,"velocity":0.6299212598425197,"duration":0.0885417020833188},{"name":"G4","midi":67,"time":394.64301500000323,"velocity":0.6299212598425197,"duration":0.17782745208330653},{"name":"E4","midi":64,"time":394.7323007500032,"velocity":0.6299212598425197,"duration":0.17782745208330653},{"name":"D4","midi":62,"time":394.9108722500032,"velocity":0.6299212598425197,"duration":0.0885417020833188},{"name":"A3","midi":57,"time":395.0001580000032,"velocity":0.6299212598425197,"duration":0.3385418020833413},{"name":"C3","midi":48,"time":395.3573010000032,"velocity":0.6299212598425197,"duration":0.0885417020833188},{"name":"G3","midi":55,"time":395.4465867500032,"velocity":0.6299212598425197,"duration":0.0885417020833188},{"name":"D4","midi":62,"time":395.53587250000317,"velocity":0.6299212598425197,"duration":0.0885417020833188},{"name":"F4","midi":65,"time":395.62515825000315,"velocity":0.6299212598425197,"duration":0.0885417020833188},{"name":"F4","midi":65,"time":395.62515825000315,"velocity":0.6299212598425197,"duration":0.0885417020833188},{"name":"E4","midi":64,"time":395.71444400000314,"velocity":0.6299212598425197,"duration":0.0885417020833188},{"name":"E4","midi":64,"time":395.71444400000314,"velocity":0.6299212598425197,"duration":0.17782745208330653},{"name":"C4","midi":60,"time":395.80372975000313,"velocity":0.6299212598425197,"duration":0.0885417020833188},{"name":"E4","midi":64,"time":395.8930155000031,"velocity":0.6299212598425197,"duration":0.0885417020833188},{"name":"E4","midi":64,"time":395.8930155000031,"velocity":0.6299212598425197,"duration":0.17782745208330653},{"name":"C4","midi":60,"time":395.9823012500031,"velocity":0.6299212598425197,"duration":0.0885417020833188},{"name":"E4","midi":64,"time":396.0715870000031,"velocity":0.6299212598425197,"duration":0.0885417020833188},{"name":"E4","midi":64,"time":396.0715870000031,"velocity":0.6299212598425197,"duration":0.17782745208330653},{"name":"G3","midi":55,"time":396.1608727500031,"velocity":0.6299212598425197,"duration":0.5081847270833464},{"name":"D2","midi":38,"time":396.7858730000031,"velocity":0.6299212598425197,"duration":0.3563989520833388},{"name":"A2","midi":45,"time":397.1430160000031,"velocity":0.6614173228346457,"duration":0.6778276520833515},{"name":"D3","midi":50,"time":397.85730200000313,"velocity":0.7244094488188977,"duration":0.3385418020833413},{"name":"A3","midi":57,"time":397.85730200000313,"velocity":0.7244094488188977,"duration":0.3385418020833413},{"name":"A#1","midi":34,"time":398.21444500000314,"velocity":0.7559055118110236,"duration":0.0885417020833188},{"name":"F2","midi":41,"time":398.3037307500031,"velocity":0.7559055118110236,"duration":0.0885417020833188},{"name":"A#2","midi":46,"time":398.3930165000031,"velocity":0.7559055118110236,"duration":0.0885417020833188},{"name":"D3","midi":50,"time":398.4823022500031,"velocity":0.7559055118110236,"duration":0.0885417020833188},{"name":"F3","midi":53,"time":398.5715880000031,"velocity":0.7559055118110236,"duration":0.0885417020833188},{"name":"A#3","midi":58,"time":398.6608737500031,"velocity":0.7559055118110236,"duration":0.0885417020833188},{"name":"F3","midi":53,"time":398.75015950000306,"velocity":0.7559055118110236,"duration":0.0885417020833188},{"name":"A#3","midi":58,"time":398.83944525000305,"velocity":0.7559055118110236,"duration":0.0885417020833188},{"name":"F3","midi":53,"time":398.92873100000304,"velocity":0.7559055118110236,"duration":0.0885417020833188},{"name":"A#3","midi":58,"time":399.018016750003,"velocity":0.7559055118110236,"duration":0.0885417020833188},{"name":"F3","midi":53,"time":399.107302500003,"velocity":0.7559055118110236,"duration":0.0885417020833188},{"name":"D3","midi":50,"time":399.196588250003,"velocity":0.7559055118110236,"duration":0.0885417020833188},{"name":"A#2","midi":46,"time":399.285874000003,"velocity":0.7559055118110236,"duration":0.0885417020833188},{"name":"F2","midi":41,"time":399.375159750003,"velocity":0.7559055118110236,"duration":0.0885417020833188},{"name":"D2","midi":38,"time":399.46444550000297,"velocity":0.7559055118110236,"duration":0.0885417020833188},{"name":"A#1","midi":34,"time":399.55373125000295,"velocity":0.7559055118110236,"duration":0.0840774145833052},{"name":"F1","midi":29,"time":399.64301700000294,"velocity":0.7559055118110236,"duration":0.0885417020833188},{"name":"C2","midi":36,"time":399.73230275000293,"velocity":0.7559055118110236,"duration":0.0885417020833188},{"name":"F2","midi":41,"time":399.8215885000029,"velocity":0.7559055118110236,"duration":0.0885417020833188},{"name":"A2","midi":45,"time":399.9108742500029,"velocity":0.7559055118110236,"duration":0.17782745208330653},{"name":"C3","midi":48,"time":400.0894457500029,"velocity":0.7559055118110236,"duration":0.0885417020833188},{"name":"F3","midi":53,"time":400.17873150000287,"velocity":0.7559055118110236,"duration":0.0885417020833188},{"name":"A3","midi":57,"time":400.26801725000286,"velocity":0.7559055118110236,"duration":0.17782745208330653},{"name":"C4","midi":60,"time":400.44658875000283,"velocity":0.7559055118110236,"duration":0.0885417020833188},{"name":"A4","midi":69,"time":400.5358745000028,"velocity":0.7559055118110236,"duration":0.0885417020833188},{"name":"G4","midi":67,"time":400.6251602500028,"velocity":0.7559055118110236,"duration":0.0885417020833188},{"name":"C4","midi":60,"time":400.7144460000028,"velocity":0.7559055118110236,"duration":0.0885417020833188},{"name":"A3","midi":57,"time":400.8037317500028,"velocity":0.7559055118110236,"duration":0.0885417020833188},{"name":"F3","midi":53,"time":400.89301750000277,"velocity":0.7559055118110236,"duration":0.16889887708333617},{"name":"C2","midi":36,"time":401.07158900000275,"velocity":0.7559055118110236,"duration":0.17782745208330653},{"name":"G2","midi":43,"time":401.2501605000027,"velocity":0.7559055118110236,"duration":0.05877978541667517},{"name":"C3","midi":48,"time":401.30968433333607,"velocity":0.7559055118110236,"duration":0.05877978541667517},{"name":"E3","midi":52,"time":401.3692081666694,"velocity":0.7559055118110236,"duration":0.05877978541667517},{"name":"G3","midi":55,"time":401.42873200000275,"velocity":0.7559055118110236,"duration":0.17782745208330653},{"name":"E3","midi":52,"time":401.60730350000273,"velocity":0.7559055118110236,"duration":0.16889887708333617},{"name":"G3","midi":55,"time":401.60730350000273,"velocity":0.7559055118110236,"duration":0.16889887708333617},{"name":"C4","midi":60,"time":401.60730350000273,"velocity":0.7559055118110236,"duration":0.16889887708333617},{"name":"A1","midi":33,"time":401.7858750000027,"velocity":0.7559055118110236,"duration":0.17782745208330653},{"name":"E2","midi":40,"time":401.7858750000027,"velocity":0.7559055118110236,"duration":0.17782745208330653},{"name":"A2","midi":45,"time":401.9644465000027,"velocity":0.7559055118110236,"duration":0.0885417020833188},{"name":"C3","midi":48,"time":402.05373225000267,"velocity":0.7559055118110236,"duration":0.0885417020833188},{"name":"E3","midi":52,"time":402.14301800000266,"velocity":0.7559055118110236,"duration":0.3385418020833413},{"name":"D2","midi":38,"time":402.50016100000266,"velocity":0.7559055118110236,"duration":0.0885417020833188},{"name":"A2","midi":45,"time":402.58944675000265,"velocity":0.7559055118110236,"duration":0.0885417020833188},{"name":"D3","midi":50,"time":402.67873250000264,"velocity":0.7559055118110236,"duration":0.0885417020833188},{"name":"F3","midi":53,"time":402.7680182500026,"velocity":0.7559055118110236,"duration":0.0840774145833052},{"name":"F3","midi":53,"time":403.0358755000026,"velocity":0.7559055118110236,"duration":0.17782745208330653},{"name":"A3","midi":57,"time":403.21444700000256,"velocity":0.7559055118110236,"duration":0.3563989520833388},{"name":"D3","midi":50,"time":403.5715900000026,"velocity":0.7559055118110236,"duration":0.16889887708333617},{"name":"F3","midi":53,"time":403.5715900000026,"velocity":0.7559055118110236,"duration":0.16889887708333617},{"name":"A3","midi":57,"time":403.5715900000026,"velocity":0.7559055118110236,"duration":0.16889887708333617},{"name":"D4","midi":62,"time":403.5715900000026,"velocity":0.7559055118110236,"duration":0.16889887708333617},{"name":"A#0","midi":22,"time":403.9287330000026,"velocity":0.7559055118110236,"duration":0.17782745208330653},{"name":"F2","midi":41,"time":404.10730450000256,"velocity":0.7559055118110236,"duration":0.0885417020833188},{"name":"A#2","midi":46,"time":404.19659025000254,"velocity":0.7559055118110236,"duration":0.0885417020833188},{"name":"D3","midi":50,"time":404.28587600000253,"velocity":0.7559055118110236,"duration":0.0885417020833188},{"name":"F3","midi":53,"time":404.3751617500025,"velocity":0.7559055118110236,"duration":0.0840774145833052},{"name":"A#3","midi":58,"time":404.73230475000247,"velocity":0.7559055118110236,"duration":0.0885417020833188},{"name":"F3","midi":53,"time":404.82159050000246,"velocity":0.7559055118110236,"duration":0.0885417020833188},{"name":"D3","midi":50,"time":404.91087625000245,"velocity":0.7559055118110236,"duration":0.0885417020833188},{"name":"A#2","midi":46,"time":405.00016200000243,"velocity":0.7559055118110236,"duration":0.0885417020833188},{"name":"F2","midi":41,"time":405.0894477500024,"velocity":0.7559055118110236,"duration":0.0885417020833188},{"name":"A#1","midi":34,"time":405.1787335000024,"velocity":0.7559055118110236,"duration":0.16889887708333617},{"name":"F1","midi":29,"time":405.3573050000024,"velocity":0.7559055118110236,"duration":0.17782745208330653},{"name":"C2","midi":36,"time":405.3573050000024,"velocity":0.7559055118110236,"duration":0.17782745208330653},{"name":"F2","midi":41,"time":405.53587650000236,"velocity":0.7559055118110236,"duration":0.17782745208330653},{"name":"A2","midi":45,"time":405.71444800000233,"velocity":0.7559055118110236,"duration":0.17782745208330653},{"name":"C3","midi":48,"time":405.8930195000023,"velocity":0.7559055118110236,"duration":0.16889887708333617},{"name":"C4","midi":60,"time":406.2501625000023,"velocity":0.7559055118110236,"duration":0.17782745208330653},{"name":"F3","midi":53,"time":406.4287340000023,"velocity":0.7559055118110236,"duration":0.3385418020833413},{"name":"F4","midi":65,"time":406.4287340000023,"velocity":0.7559055118110236,"duration":0.3385418020833413},{"name":"C2","midi":36,"time":406.7858770000023,"velocity":0.7559055118110236,"duration":0.17782745208330653},{"name":"G2","midi":43,"time":406.7858770000023,"velocity":0.7559055118110236,"duration":0.17782745208330653},{"name":"C3","midi":48,"time":406.9644485000023,"velocity":0.7559055118110236,"duration":0.05877978541667517},{"name":"E3","midi":52,"time":407.0239723333356,"velocity":0.7559055118110236,"duration":0.05877978541667517},{"name":"G3","midi":55,"time":407.08349616666897,"velocity":0.7559055118110236,"duration":0.05877978541667517},{"name":"C4","midi":60,"time":407.1430200000023,"velocity":0.7559055118110236,"duration":0.17782745208330653},{"name":"C3","midi":48,"time":407.3215915000023,"velocity":0.7559055118110236,"duration":0.16889887708333617},{"name":"A1","midi":33,"time":407.50016300000226,"velocity":0.7559055118110236,"duration":0.17782745208330653},{"name":"E2","midi":40,"time":407.50016300000226,"velocity":0.7559055118110236,"duration":0.17782745208330653},{"name":"A2","midi":45,"time":407.67873450000224,"velocity":0.7559055118110236,"duration":0.17782745208330653},{"name":"C3","midi":48,"time":407.8573060000022,"velocity":0.7559055118110236,"duration":0.3385418020833413},{"name":"D2","midi":38,"time":408.2144490000022,"velocity":0.7559055118110236,"duration":1.4278279520833053},{"name":"A2","midi":45,"time":408.2613240187522,"velocity":0.7559055118110236,"duration":1.380208885416664},{"name":"D3","midi":50,"time":408.30819903750216,"velocity":0.7559055118110236,"duration":1.3333338666666918},{"name":"D2","midi":38,"time":409.6430210000022,"velocity":0.5039370078740157,"duration":0.17782745208330653},{"name":"D3","midi":50,"time":409.6430210000022,"velocity":0.5039370078740157,"duration":0.17782745208330653},{"name":"D3","midi":50,"time":410.00016400000214,"velocity":0.5039370078740157,"duration":0.17782745208330653},{"name":"F3","midi":53,"time":410.00016400000214,"velocity":0.5039370078740157,"duration":0.17782745208330653},{"name":"A3","midi":57,"time":410.00016400000214,"velocity":0.5039370078740157,"duration":0.17782745208330653},{"name":"E2","midi":40,"time":410.3573070000021,"velocity":0.5039370078740157,"duration":0.17782745208330653},{"name":"C#3","midi":49,"time":410.71445000000205,"velocity":0.5039370078740157,"duration":0.17782745208330653},{"name":"E3","midi":52,"time":410.71445000000205,"velocity":0.5039370078740157,"duration":0.17782745208330653},{"name":"G3","midi":55,"time":410.71445000000205,"velocity":0.5039370078740157,"duration":0.17782745208330653},{"name":"F2","midi":41,"time":411.071593000002,"velocity":0.5039370078740157,"duration":0.17782745208330653},{"name":"C3","midi":48,"time":411.42873600000195,"velocity":0.5039370078740157,"duration":0.17782745208330653},{"name":"F3","midi":53,"time":411.42873600000195,"velocity":0.5039370078740157,"duration":0.17782745208330653},{"name":"A3","midi":57,"time":411.42873600000195,"velocity":0.5039370078740157,"duration":0.17782745208330653},{"name":"C#2","midi":37,"time":411.7858790000019,"velocity":0.5039370078740157,"duration":0.3563989520833388},{"name":"C#3","midi":49,"time":412.1430220000019,"velocity":0.5039370078740157,"duration":0.17782745208330653},{"name":"E3","midi":52,"time":412.1430220000019,"velocity":0.5039370078740157,"duration":0.17782745208330653},{"name":"G3","midi":55,"time":412.1430220000019,"velocity":0.5039370078740157,"duration":0.17782745208330653},{"name":"F2","midi":41,"time":412.50016500000186,"velocity":0.5039370078740157,"duration":0.17782745208330653},{"name":"A2","midi":45,"time":412.8573080000018,"velocity":0.5039370078740157,"duration":0.17782745208330653},{"name":"F3","midi":53,"time":412.8573080000018,"velocity":0.5039370078740157,"duration":0.17782745208330653},{"name":"C#2","midi":37,"time":413.21445100000176,"velocity":0.5039370078740157,"duration":0.3563989520833388},{"name":"C#3","midi":49,"time":413.21445100000176,"velocity":0.5039370078740157,"duration":0.3563989520833388},{"name":"D2","midi":38,"time":413.9287370000018,"velocity":0.5039370078740157,"duration":4.40997200208335},{"name":"A2","midi":45,"time":413.9287370000018,"velocity":0.5039370078740157,"duration":4.40997200208335},{"name":"D3","midi":50,"time":413.9287370000018,"velocity":0.5039370078740157,"duration":4.40997200208335},{"name":"D3","midi":50,"time":418.5715960000018,"velocity":0.25984251968503935,"duration":0.0885417020833188},{"name":"F3","midi":53,"time":418.6608817500018,"velocity":0.2677165354330709,"duration":0.0885417020833188},{"name":"A3","midi":57,"time":418.7501675000018,"velocity":0.2755905511811024,"duration":0.0885417020833188},{"name":"A#3","midi":58,"time":418.8394532500018,"velocity":0.28346456692913385,"duration":0.0885417020833188},{"name":"D3","midi":50,"time":418.92873900000177,"velocity":0.2992125984251969,"duration":0.0885417020833188},{"name":"F3","midi":53,"time":419.01802475000176,"velocity":0.30708661417322836,"duration":0.0885417020833188},{"name":"A3","midi":57,"time":419.10731050000174,"velocity":0.31496062992125984,"duration":0.0885417020833188},{"name":"A#3","midi":58,"time":419.19659625000173,"velocity":0.33070866141732286,"duration":0.0885417020833188},{"name":"D3","midi":50,"time":419.2858820000017,"velocity":0.33858267716535434,"duration":0.0885417020833188},{"name":"F3","midi":53,"time":419.3751677500017,"velocity":0.3464566929133858,"duration":0.0885417020833188},{"name":"A3","midi":57,"time":419.4644535000017,"velocity":0.36220472440944884,"duration":0.0885417020833188},{"name":"A#3","midi":58,"time":419.5537392500017,"velocity":0.3700787401574803,"duration":0.0885417020833188},{"name":"D3","midi":50,"time":419.64302500000167,"velocity":0.3779527559055118,"duration":0.0885417020833188},{"name":"F3","midi":53,"time":419.73231075000166,"velocity":0.3937007874015748,"duration":0.0885417020833188},{"name":"A3","midi":57,"time":419.82159650000165,"velocity":0.4015748031496063,"duration":0.0885417020833188},{"name":"A#3","midi":58,"time":419.91088225000163,"velocity":0.4094488188976378,"duration":0.0885417020833188},{"name":"D3","midi":50,"time":420.0001680000016,"velocity":0.4251968503937008,"duration":0.0885417020833188},{"name":"F3","midi":53,"time":420.0894537500016,"velocity":0.4330708661417323,"duration":0.0885417020833188},{"name":"A3","midi":57,"time":420.1787395000016,"velocity":0.4409448818897638,"duration":0.0885417020833188},{"name":"A#3","midi":58,"time":420.2680252500016,"velocity":0.44881889763779526,"duration":0.0885417020833188},{"name":"D3","midi":50,"time":420.3573110000016,"velocity":0.4645669291338583,"duration":0.0885417020833188},{"name":"F3","midi":53,"time":420.44659675000156,"velocity":0.47244094488188976,"duration":0.0885417020833188},{"name":"A3","midi":57,"time":420.53588250000155,"velocity":0.48031496062992124,"duration":0.0885417020833188},{"name":"A#3","midi":58,"time":420.62516825000154,"velocity":0.49606299212598426,"duration":0.0840774145833052},{"name":"D3","midi":50,"time":420.7144540000015,"velocity":0.5039370078740157,"duration":1.0171135020833617},{"name":"F3","midi":53,"time":420.7144540000015,"velocity":0.5039370078740157,"duration":1.0171135020833617},{"name":"A3","midi":57,"time":420.7144540000015,"velocity":0.5039370078740157,"duration":1.0171135020833617},{"name":"D3","midi":50,"time":421.78588300000155,"velocity":0.6299212598425197,"duration":1.0171135020833617},{"name":"F3","midi":53,"time":421.78588300000155,"velocity":0.6299212598425197,"duration":1.0171135020833617},{"name":"A#3","midi":58,"time":421.78588300000155,"velocity":0.6299212598425197,"duration":1.0171135020833617},{"name":"G2","midi":43,"time":422.85731200000157,"velocity":0.7559055118110236,"duration":2.4456855020833927},{"name":"D3","midi":50,"time":422.8840977250016,"velocity":0.7559055118110236,"duration":2.418155729166699},{"name":"B3","midi":59,"time":422.9108834500016,"velocity":0.7559055118110236,"duration":2.3913700041666743},{"name":"A3","midi":57,"time":425.3573130000016,"velocity":0.5039370078740157,"duration":0.16889887708333617},{"name":"C4","midi":60,"time":425.5358845000016,"velocity":0.5039370078740157,"duration":0.16889887708333617},{"name":"D3","midi":50,"time":425.7144560000016,"velocity":0.5039370078740157,"duration":0.7135419520832897},{"name":"A#2","midi":46,"time":425.7144560000016,"velocity":0.5039370078740157,"duration":1.356399352083315},{"name":"F3","midi":53,"time":425.76133101875155,"velocity":0.5039370078740157,"duration":0.6659228854166486},{"name":"A#3","midi":58,"time":425.8089500854182,"velocity":0.5039370078740157,"duration":0.6183038187500074},{"name":"D3","midi":50,"time":426.42874200000153,"velocity":0.5039370078740157,"duration":0.3385418020833413},{"name":"E3","midi":52,"time":426.78588500000154,"velocity":0.5039370078740157,"duration":0.3385418020833413},{"name":"D2","midi":38,"time":427.14302800000155,"velocity":0.5039370078740157,"duration":1.0706849520832975},{"name":"A2","midi":45,"time":427.1899030187515,"velocity":0.5039370078740157,"duration":1.0230658854166563},{"name":"F3","midi":53,"time":427.2367780375015,"velocity":0.5039370078740157,"duration":0.9761908666666841},{"name":"A2","midi":45,"time":428.5716000000015,"velocity":0.5039370078740157,"duration":1.0706849520832407},{"name":"C3","midi":48,"time":428.6184750187515,"velocity":0.5039370078740157,"duration":1.0230658854165995},{"name":"E3","midi":52,"time":428.66535003750147,"velocity":0.5039370078740157,"duration":0.9761908666666272},{"name":"A3","midi":57,"time":428.7137131520848,"velocity":0.5039370078740157,"duration":0.9278277520833171},{"name":"G3","midi":55,"time":429.64302900000143,"velocity":0.5039370078740157,"duration":0.3385418020833413},{"name":"A#2","midi":46,"time":430.00017200000144,"velocity":0.5039370078740157,"duration":0.3385418020833413},{"name":"F3","midi":53,"time":430.35731500000145,"velocity":0.5039370078740157,"duration":0.3385418020833413},{"name":"A#3","midi":58,"time":430.35731500000145,"velocity":0.5039370078740157,"duration":0.3385418020833413},{"name":"A2","midi":45,"time":430.71445800000146,"velocity":0.5039370078740157,"duration":0.3385418020833413},{"name":"E3","midi":52,"time":431.07160100000146,"velocity":0.5039370078740157,"duration":0.3385418020833413},{"name":"A3","midi":57,"time":431.07160100000146,"velocity":0.5039370078740157,"duration":0.3385418020833413},{"name":"G2","midi":43,"time":431.4287440000015,"velocity":0.5039370078740157,"duration":0.3385418020833413},{"name":"D3","midi":50,"time":431.7858870000015,"velocity":0.5039370078740157,"duration":0.3385418020833413},{"name":"A#3","midi":58,"time":431.7858870000015,"velocity":0.5039370078740157,"duration":0.3385418020833413},{"name":"E2","midi":40,"time":432.1430300000015,"velocity":0.5039370078740157,"duration":0.3385418020833413},{"name":"D3","midi":50,"time":432.5001730000015,"velocity":0.5039370078740157,"duration":0.3385418020833413},{"name":"G3","midi":55,"time":432.5001730000015,"velocity":0.5039370078740157,"duration":0.3385418020833413},{"name":"D2","midi":38,"time":432.8573160000015,"velocity":0.4566929133858268,"duration":0.5349704520832574},{"name":"A2","midi":45,"time":432.9041910187515,"velocity":0.4566929133858268,"duration":0.48735138541661627},{"name":"D3","midi":50,"time":432.9518100854181,"velocity":0.4566929133858268,"duration":0.4397323187499751},{"name":"D3","midi":50,"time":433.39303050000143,"velocity":0.3858267716535433,"duration":0.16889887708333617},{"name":"D2","midi":38,"time":433.5716020000014,"velocity":0.3858267716535433,"duration":0.16889887708333617},{"name":"D3","midi":50,"time":433.7501735000014,"velocity":0.3858267716535433,"duration":0.16889887708333617},{"name":"D2","midi":38,"time":433.92874500000136,"velocity":0.3858267716535433,"duration":0.16889887708333617},{"name":"D2","midi":38,"time":434.10731650000133,"velocity":0.3858267716535433,"duration":0.3385418020833413},{"name":"D3","midi":50,"time":434.46445950000134,"velocity":0.3858267716535433,"duration":0.16889887708333617},{"name":"D2","midi":38,"time":434.6430310000013,"velocity":0.3858267716535433,"duration":0.16889887708333617},{"name":"D3","midi":50,"time":434.8216025000013,"velocity":0.3858267716535433,"duration":0.16889887708333617},{"name":"D2","midi":38,"time":435.00017400000127,"velocity":0.3858267716535433,"duration":0.5081847270833464},{"name":"D3","midi":50,"time":435.5358885000013,"velocity":0.3858267716535433,"duration":0.16889887708333617},{"name":"D2","midi":38,"time":435.7144600000013,"velocity":0.3858267716535433,"duration":0.16889887708333617},{"name":"D3","midi":50,"time":435.89303150000126,"velocity":0.3858267716535433,"duration":0.16889887708333617},{"name":"D2","midi":38,"time":436.07160300000123,"velocity":0.3858267716535433,"duration":0.5081847270833464},{"name":"D3","midi":50,"time":436.6073175000013,"velocity":0.3858267716535433,"duration":0.16889887708333617},{"name":"D2","midi":38,"time":436.78588900000125,"velocity":0.3858267716535433,"duration":0.16889887708333617},{"name":"D3","midi":50,"time":436.9644605000012,"velocity":0.3858267716535433,"duration":0.16889887708333617},{"name":"D2","midi":38,"time":437.1430320000012,"velocity":0.3858267716535433,"duration":0.5081847270833464},{"name":"D3","midi":50,"time":437.67874650000124,"velocity":0.3858267716535433,"duration":0.16889887708333617},{"name":"D2","midi":38,"time":437.8573180000012,"velocity":0.3858267716535433,"duration":0.16889887708333617},{"name":"D3","midi":50,"time":438.0358895000012,"velocity":0.3858267716535433,"duration":0.16889887708333617},{"name":"D2","midi":38,"time":438.21446100000117,"velocity":0.3858267716535433,"duration":0.5081847270833464},{"name":"D3","midi":50,"time":438.7501755000012,"velocity":0.3858267716535433,"duration":0.16889887708333617},{"name":"D2","midi":38,"time":438.9287470000012,"velocity":0.3858267716535433,"duration":0.16889887708333617},{"name":"D3","midi":50,"time":439.10731850000116,"velocity":0.3858267716535433,"duration":0.16889887708333617},{"name":"D2","midi":38,"time":439.28589000000113,"velocity":0.3858267716535433,"duration":0.5081847270833464},{"name":"D3","midi":50,"time":439.8216045000012,"velocity":0.3858267716535433,"duration":0.16889887708333617},{"name":"D2","midi":38,"time":440.00017600000115,"velocity":0.3858267716535433,"duration":0.16889887708333617},{"name":"D3","midi":50,"time":440.1787475000011,"velocity":0.3858267716535433,"duration":0.16889887708333617},{"name":"D2","midi":38,"time":440.3573190000011,"velocity":0.3858267716535433,"duration":0.5081847270833464},{"name":"D3","midi":50,"time":440.89303350000114,"velocity":0.3858267716535433,"duration":0.5081847270833464},{"name":"D2","midi":38,"time":441.4287480000012,"velocity":0.3858267716535433,"duration":0.5081847270833464},{"name":"D3","midi":50,"time":441.4287480000012,"velocity":0.3858267716535433,"duration":0.5081847270833464},{"name":"D3","midi":50,"time":441.9644625000012,"velocity":0.3858267716535433,"duration":0.16889887708333617},{"name":"D2","midi":38,"time":442.1430340000012,"velocity":0.3858267716535433,"duration":0.16889887708333617},{"name":"D3","midi":50,"time":442.32160550000117,"velocity":0.3858267716535433,"duration":0.16889887708333617},{"name":"D2","midi":38,"time":442.50017700000114,"velocity":0.3858267716535433,"duration":0.5081847270833464},{"name":"D3","midi":50,"time":443.0358915000012,"velocity":0.3858267716535433,"duration":0.16889887708333617},{"name":"D3","midi":50,"time":443.21446300000116,"velocity":0.3858267716535433,"duration":0.16889887708333617},{"name":"D2","midi":38,"time":443.39303450000114,"velocity":0.3858267716535433,"duration":0.16889887708333617},{"name":"D2","midi":38,"time":443.5716060000011,"velocity":0.3858267716535433,"duration":0.5081847270833464},{"name":"D3","midi":50,"time":443.5716060000011,"velocity":0.3858267716535433,"duration":0.5081847270833464},{"name":"D3","midi":50,"time":444.10732050000115,"velocity":0.3858267716535433,"duration":0.16889887708333617},{"name":"D2","midi":38,"time":444.2858920000011,"velocity":0.3858267716535433,"duration":0.16889887708333617},{"name":"D3","midi":50,"time":444.4644635000011,"velocity":0.3858267716535433,"duration":0.16889887708333617},{"name":"D2","midi":38,"time":444.6430350000011,"velocity":0.3858267716535433,"duration":0.5081847270833464},{"name":"D3","midi":50,"time":445.1787495000011,"velocity":0.3858267716535433,"duration":0.5081847270833464},{"name":"D2","midi":38,"time":445.71446400000116,"velocity":0.3858267716535433,"duration":0.5081847270833464},{"name":"D3","midi":50,"time":445.71446400000116,"velocity":0.3858267716535433,"duration":0.5081847270833464},{"name":"D3","midi":50,"time":446.2501785000012,"velocity":0.3858267716535433,"duration":0.16889887708333617},{"name":"D2","midi":38,"time":446.4287500000012,"velocity":0.3858267716535433,"duration":0.16889887708333617},{"name":"D3","midi":50,"time":446.60732150000115,"velocity":0.3858267716535433,"duration":0.16889887708333617},{"name":"D2","midi":38,"time":446.7858930000011,"velocity":0.3858267716535433,"duration":1.0171135020833617},{"name":"A1","midi":33,"time":447.85732200000115,"velocity":0.3858267716535433,"duration":1.356399352083315},{"name":"A2","midi":45,"time":447.85732200000115,"velocity":0.3858267716535433,"duration":1.356399352083315},{"name":"A2","midi":45,"time":449.2858940000011,"velocity":0.7559055118110236,"duration":0.3385418020833413},{"name":"C#2","midi":37,"time":449.64303700000113,"velocity":0.7559055118110236,"duration":0.3385418020833413},{"name":"C#3","midi":49,"time":449.64303700000113,"velocity":0.7559055118110236,"duration":0.3385418020833413},{"name":"D2","midi":38,"time":450.00018000000114,"velocity":0.7559055118110236,"duration":0.16889887708333617},{"name":"D3","midi":50,"time":450.00018000000114,"velocity":0.7559055118110236,"duration":0.16889887708333617},{"name":"D3","midi":50,"time":450.1787515000011,"velocity":0.7559055118110236,"duration":0.0840774145833052},{"name":"D3","midi":50,"time":450.2680372500011,"velocity":0.7559055118110236,"duration":0.0840774145833052},{"name":"D3","midi":50,"time":450.3573230000011,"velocity":0.7559055118110236,"duration":0.16889887708333617},{"name":"D3","midi":50,"time":450.53589450000106,"velocity":0.7559055118110236,"duration":0.16889887708333617},{"name":"D2","midi":38,"time":450.71446600000104,"velocity":0.7559055118110236,"duration":0.16889887708333617},{"name":"D3","midi":50,"time":450.71446600000104,"velocity":0.7559055118110236,"duration":0.16889887708333617},{"name":"D3","midi":50,"time":450.893037500001,"velocity":0.7559055118110236,"duration":0.16889887708333617},{"name":"C2","midi":36,"time":451.071609000001,"velocity":0.7559055118110236,"duration":0.16889887708333617},{"name":"C3","midi":48,"time":451.071609000001,"velocity":0.7559055118110236,"duration":0.16889887708333617},{"name":"C3","midi":48,"time":451.25018050000097,"velocity":0.7559055118110236,"duration":0.0840774145833052},{"name":"C3","midi":48,"time":451.33946625000095,"velocity":0.7559055118110236,"duration":0.0840774145833052},{"name":"C3","midi":48,"time":451.42875200000094,"velocity":0.7559055118110236,"duration":0.16889887708333617},{"name":"C3","midi":48,"time":451.6073235000009,"velocity":0.7559055118110236,"duration":0.16889887708333617},{"name":"C3","midi":48,"time":451.7858950000009,"velocity":0.7559055118110236,"duration":0.16889887708333617},{"name":"E2","midi":40,"time":451.96446650000087,"velocity":0.7559055118110236,"duration":0.16889887708333617},{"name":"E3","midi":52,"time":451.96446650000087,"velocity":0.7559055118110236,"duration":0.16889887708333617},{"name":"F2","midi":41,"time":452.14303800000084,"velocity":0.7559055118110236,"duration":0.16889887708333617},{"name":"C3","midi":48,"time":452.14303800000084,"velocity":0.7559055118110236,"duration":0.16889887708333617},{"name":"F3","midi":53,"time":452.14303800000084,"velocity":0.7559055118110236,"duration":0.16889887708333617},{"name":"F2","midi":41,"time":452.3216095000008,"velocity":0.7559055118110236,"duration":0.0840774145833052},{"name":"F3","midi":53,"time":452.3216095000008,"velocity":0.7559055118110236,"duration":0.0840774145833052},{"name":"F2","midi":41,"time":452.4108952500008,"velocity":0.7559055118110236,"duration":0.0840774145833052},{"name":"F3","midi":53,"time":452.4108952500008,"velocity":0.7559055118110236,"duration":0.0840774145833052},{"name":"F2","midi":41,"time":452.5001810000008,"velocity":0.7559055118110236,"duration":0.16889887708333617},{"name":"F3","midi":53,"time":452.5001810000008,"velocity":0.7559055118110236,"duration":0.16889887708333617},{"name":"F2","midi":41,"time":452.67875250000077,"velocity":0.7559055118110236,"duration":0.16889887708333617},{"name":"F3","midi":53,"time":452.67875250000077,"velocity":0.7559055118110236,"duration":0.16889887708333617},{"name":"F2","midi":41,"time":452.85732400000074,"velocity":0.7559055118110236,"duration":0.16889887708333617},{"name":"F3","midi":53,"time":452.85732400000074,"velocity":0.7559055118110236,"duration":0.16889887708333617},{"name":"F2","midi":41,"time":453.0358955000007,"velocity":0.7559055118110236,"duration":0.16889887708333617},{"name":"F3","midi":53,"time":453.0358955000007,"velocity":0.7559055118110236,"duration":0.16889887708333617},{"name":"C2","midi":36,"time":453.2144670000007,"velocity":0.7559055118110236,"duration":0.16889887708333617},{"name":"G2","midi":43,"time":453.2144670000007,"velocity":0.7559055118110236,"duration":0.16889887708333617},{"name":"C2","midi":36,"time":453.39303850000067,"velocity":0.7559055118110236,"duration":0.0840774145833052},{"name":"C3","midi":48,"time":453.39303850000067,"velocity":0.7559055118110236,"duration":0.0840774145833052},{"name":"C2","midi":36,"time":453.48232425000066,"velocity":0.7559055118110236,"duration":0.0840774145833052},{"name":"C3","midi":48,"time":453.48232425000066,"velocity":0.7559055118110236,"duration":0.0840774145833052},{"name":"C2","midi":36,"time":453.57161000000065,"velocity":0.7559055118110236,"duration":0.16889887708333617},{"name":"C3","midi":48,"time":453.57161000000065,"velocity":0.7559055118110236,"duration":0.16889887708333617},{"name":"C2","midi":36,"time":453.7501815000006,"velocity":0.7559055118110236,"duration":0.16889887708333617},{"name":"C3","midi":48,"time":453.7501815000006,"velocity":0.7559055118110236,"duration":0.16889887708333617},{"name":"C2","midi":36,"time":453.9287530000006,"velocity":0.7559055118110236,"duration":0.16889887708333617},{"name":"C3","midi":48,"time":453.9287530000006,"velocity":0.7559055118110236,"duration":0.16889887708333617},{"name":"C2","midi":36,"time":454.1073245000006,"velocity":0.7559055118110236,"duration":0.16889887708333617},{"name":"C3","midi":48,"time":454.1073245000006,"velocity":0.7559055118110236,"duration":0.16889887708333617},{"name":"F2","midi":41,"time":454.28589600000055,"velocity":0.7559055118110236,"duration":0.16889887708333617},{"name":"C3","midi":48,"time":454.28589600000055,"velocity":0.7559055118110236,"duration":0.16889887708333617},{"name":"F3","midi":53,"time":454.28589600000055,"velocity":0.7559055118110236,"duration":0.16889887708333617},{"name":"F2","midi":41,"time":454.4644675000005,"velocity":0.7559055118110236,"duration":0.0840774145833052},{"name":"F3","midi":53,"time":454.4644675000005,"velocity":0.7559055118110236,"duration":0.0840774145833052},{"name":"F2","midi":41,"time":454.5537532500005,"velocity":0.7559055118110236,"duration":0.0840774145833052},{"name":"C3","midi":48,"time":454.5537532500005,"velocity":0.7559055118110236,"duration":0.0840774145833052},{"name":"F3","midi":53,"time":454.5537532500005,"velocity":0.7559055118110236,"duration":0.0840774145833052},{"name":"F2","midi":41,"time":454.6430390000005,"velocity":0.7559055118110236,"duration":0.16889887708333617},{"name":"C3","midi":48,"time":454.6430390000005,"velocity":0.7559055118110236,"duration":0.16889887708333617},{"name":"F3","midi":53,"time":454.6430390000005,"velocity":0.7559055118110236,"duration":0.16889887708333617},{"name":"F2","midi":41,"time":454.8216105000005,"velocity":0.7559055118110236,"duration":0.16889887708333617},{"name":"F3","midi":53,"time":454.8216105000005,"velocity":0.7559055118110236,"duration":0.16889887708333617},{"name":"G2","midi":43,"time":455.00018200000045,"velocity":0.7559055118110236,"duration":0.16889887708333617},{"name":"G3","midi":55,"time":455.00018200000045,"velocity":0.7559055118110236,"duration":0.16889887708333617},{"name":"G2","midi":43,"time":455.1787535000004,"velocity":0.7559055118110236,"duration":0.16889887708333617},{"name":"G3","midi":55,"time":455.1787535000004,"velocity":0.7559055118110236,"duration":0.16889887708333617},{"name":"A2","midi":45,"time":455.3573250000004,"velocity":0.7559055118110236,"duration":0.16889887708333617},{"name":"E3","midi":52,"time":455.3573250000004,"velocity":0.7559055118110236,"duration":0.16889887708333617},{"name":"E3","midi":52,"time":455.5358965000004,"velocity":0.7559055118110236,"duration":0.0840774145833052},{"name":"E3","midi":52,"time":455.62518225000036,"velocity":0.7559055118110236,"duration":0.0840774145833052},{"name":"E3","midi":52,"time":455.71446800000035,"velocity":0.7559055118110236,"duration":0.16889887708333617},{"name":"A2","midi":45,"time":455.8930395000003,"velocity":0.7559055118110236,"duration":0.16889887708333617},{"name":"E3","midi":52,"time":455.8930395000003,"velocity":0.7559055118110236,"duration":0.16889887708333617},{"name":"A2","midi":45,"time":456.0716110000003,"velocity":0.7559055118110236,"duration":0.3385418020833413},{"name":"E3","midi":52,"time":456.0716110000003,"velocity":0.7559055118110236,"duration":0.3385418020833413},{"name":"D2","midi":38,"time":456.4287540000003,"velocity":0.7559055118110236,"duration":0.3385418020833413},{"name":"D3","midi":50,"time":456.4287540000003,"velocity":0.7559055118110236,"duration":0.3385418020833413},{"name":"D3","midi":50,"time":456.7858970000003,"velocity":0.7559055118110236,"duration":0.16889887708333617},{"name":"D3","midi":50,"time":456.9644685000003,"velocity":0.7559055118110236,"duration":0.16889887708333617},{"name":"D2","midi":38,"time":457.14304000000027,"velocity":0.7559055118110236,"duration":0.16889887708333617},{"name":"D3","midi":50,"time":457.32161150000024,"velocity":0.7559055118110236,"duration":0.16889887708333617},{"name":"D2","midi":38,"time":457.5001830000002,"velocity":0.7559055118110236,"duration":0.3385418020833413},{"name":"D3","midi":50,"time":457.8573260000002,"velocity":0.7559055118110236,"duration":0.16889887708333617},{"name":"D3","midi":50,"time":458.0358975000002,"velocity":0.7559055118110236,"duration":0.16889887708333617},{"name":"D2","midi":38,"time":458.2144690000002,"velocity":0.7559055118110236,"duration":0.16889887708333617},{"name":"D3","midi":50,"time":458.39304050000015,"velocity":0.7559055118110236,"duration":0.16889887708333617},{"name":"D3","midi":50,"time":458.57161200000013,"velocity":0.7559055118110236,"duration":1.0171135020831912},{"name":"A3","midi":57,"time":458.7501835000001,"velocity":0.7559055118110236,"duration":0.16889887708333617},{"name":"A3","midi":57,"time":458.9287550000001,"velocity":0.7559055118110236,"duration":0.16889887708333617},{"name":"A3","midi":57,"time":459.10732650000006,"velocity":0.7559055118110236,"duration":0.16889887708333617},{"name":"C4","midi":60,"time":459.28589800000003,"velocity":0.7559055118110236,"duration":0.16889887708333617},{"name":"D4","midi":62,"time":459.4644695,"velocity":0.7559055118110236,"duration":0.16889887708333617},{"name":"A#1","midi":34,"time":459.643041,"velocity":0.7559055118110236,"duration":0.5081847270833464},{"name":"D2","midi":38,"time":460.1787555,"velocity":0.7559055118110236,"duration":0.5081847270833464},{"name":"A2","midi":45,"time":460.1787555,"velocity":0.7559055118110236,"duration":0.5081847270833464},{"name":"A#1","midi":34,"time":460.71447000000006,"velocity":0.7559055118110236,"duration":0.5349704520833143},{"name":"A#2","midi":46,"time":460.76134501875003,"velocity":0.7559055118110236,"duration":0.4873513854166731},{"name":"A#1","midi":34,"time":461.25018450000005,"velocity":0.7559055118110236,"duration":0.5081847270833464},{"name":"A#2","midi":46,"time":461.25018450000005,"velocity":0.7559055118110236,"duration":0.5081847270833464},{"name":"A1","midi":33,"time":461.7858990000001,"velocity":0.7559055118110236,"duration":0.5081847270833464},{"name":"A2","midi":45,"time":461.7858990000001,"velocity":0.7559055118110236,"duration":0.5081847270833464},{"name":"A1","midi":33,"time":462.3216135000001,"velocity":0.7559055118110236,"duration":0.5081847270833464},{"name":"A2","midi":45,"time":462.3216135000001,"velocity":0.7559055118110236,"duration":0.5081847270833464},{"name":"D2","midi":38,"time":462.85732800000017,"velocity":0.7559055118110236,"duration":0.3385418020833413},{"name":"D3","midi":50,"time":463.2144710000002,"velocity":0.7559055118110236,"duration":0.6778276520833515},{"name":"D2","midi":38,"time":463.9287570000002,"velocity":0.7559055118110236,"duration":0.5081847270833464},{"name":"D3","midi":50,"time":463.9287570000002,"velocity":0.7559055118110236,"duration":0.5081847270833464},{"name":"A#1","midi":34,"time":464.46447150000023,"velocity":0.7559055118110236,"duration":0.16889887708333617},{"name":"A#2","midi":46,"time":464.46447150000023,"velocity":0.7559055118110236,"duration":0.16889887708333617},{"name":"A#1","midi":34,"time":464.6430430000002,"velocity":0.7559055118110236,"duration":0.16889887708333617},{"name":"A#2","midi":46,"time":464.6430430000002,"velocity":0.7559055118110236,"duration":0.16889887708333617},{"name":"A#1","midi":34,"time":464.8216145000002,"velocity":0.7559055118110236,"duration":0.16889887708333617},{"name":"A#2","midi":46,"time":464.8216145000002,"velocity":0.7559055118110236,"duration":0.16889887708333617},{"name":"A1","midi":33,"time":465.00018600000016,"velocity":0.7559055118110236,"duration":0.5081847270833464},{"name":"A2","midi":45,"time":465.00018600000016,"velocity":0.7559055118110236,"duration":0.5081847270833464},{"name":"A1","midi":33,"time":465.5359005000002,"velocity":0.7559055118110236,"duration":0.5081847270833464},{"name":"A2","midi":45,"time":465.5359005000002,"velocity":0.7559055118110236,"duration":0.5081847270833464},{"name":"C2","midi":36,"time":466.07161500000024,"velocity":0.7559055118110236,"duration":0.5081847270833464},{"name":"C3","midi":48,"time":466.6073295000003,"velocity":0.7559055118110236,"duration":0.5081847270833464},{"name":"D2","midi":38,"time":467.1430440000003,"velocity":0.7559055118110236,"duration":0.3385418020833413},{"name":"D3","midi":50,"time":467.5001870000003,"velocity":0.7559055118110236,"duration":0.6778276520833515},{"name":"D2","midi":38,"time":468.21447300000034,"velocity":0.7559055118110236,"duration":0.5081847270833464},{"name":"D3","midi":50,"time":468.21447300000034,"velocity":0.7559055118110236,"duration":0.5081847270833464},{"name":"D2","midi":38,"time":468.7501875000004,"velocity":0.7559055118110236,"duration":0.5081847270833464},{"name":"D3","midi":50,"time":468.7501875000004,"velocity":0.7559055118110236,"duration":0.5081847270833464},{"name":"A#1","midi":34,"time":469.2859020000004,"velocity":0.7559055118110236,"duration":0.5349704520833143},{"name":"A#2","midi":46,"time":469.3327770187504,"velocity":0.7559055118110236,"duration":0.4873513854166731},{"name":"A#1","midi":34,"time":469.8216165000004,"velocity":0.7559055118110236,"duration":0.5081847270833464},{"name":"A#2","midi":46,"time":469.8216165000004,"velocity":0.7559055118110236,"duration":0.5081847270833464},{"name":"G1","midi":31,"time":470.35733100000044,"velocity":0.7559055118110236,"duration":0.5081847270833464},{"name":"G2","midi":43,"time":470.35733100000044,"velocity":0.7559055118110236,"duration":0.5081847270833464},{"name":"G2","midi":43,"time":470.8930455000005,"velocity":0.7559055118110236,"duration":0.5081847270833464},{"name":"D3","midi":50,"time":470.8930455000005,"velocity":0.7559055118110236,"duration":0.5081847270833464},{"name":"A2","midi":45,"time":471.4287600000005,"velocity":0.7559055118110236,"duration":0.3385418020833413},{"name":"D3","midi":50,"time":471.78590300000053,"velocity":0.7559055118110236,"duration":0.3385418020833413},{"name":"F3","midi":53,"time":471.78590300000053,"velocity":0.7559055118110236,"duration":0.3385418020833413},{"name":"D3","midi":50,"time":472.14304600000054,"velocity":0.7559055118110236,"duration":0.3385418020833413},{"name":"F3","midi":53,"time":472.14304600000054,"velocity":0.7559055118110236,"duration":0.3385418020833413},{"name":"A#2","midi":46,"time":472.50018900000055,"velocity":0.7559055118110236,"duration":0.5081847270833464},{"name":"F3","midi":53,"time":472.50018900000055,"velocity":0.7559055118110236,"duration":0.5081847270833464},{"name":"A#2","midi":46,"time":473.0359035000006,"velocity":0.7559055118110236,"duration":0.5081847270833464},{"name":"F3","midi":53,"time":473.0359035000006,"velocity":0.7559055118110236,"duration":0.5081847270833464},{"name":"D2","midi":38,"time":473.5716180000006,"velocity":0.7559055118110236,"duration":0.16889887708333617},{"name":"A2","midi":45,"time":473.7501895000006,"velocity":0.7559055118110236,"duration":0.16889887708333617},{"name":"D3","midi":50,"time":473.9287610000006,"velocity":0.7559055118110236,"duration":0.16889887708333617},{"name":"A1","midi":33,"time":474.6430470000006,"velocity":0.7559055118110236,"duration":1.0171135020833617},{"name":"A2","midi":45,"time":474.6430470000006,"velocity":0.7559055118110236,"duration":1.0171135020833617},{"name":"A1","midi":33,"time":475.7144760000006,"velocity":0.7559055118110236,"duration":0.3385418020833413},{"name":"A2","midi":45,"time":475.7144760000006,"velocity":0.7559055118110236,"duration":0.3385418020833413},{"name":"A1","midi":33,"time":476.0716190000006,"velocity":0.7559055118110236,"duration":0.3385418020833413},{"name":"A2","midi":45,"time":476.0716190000006,"velocity":0.7559055118110236,"duration":0.3385418020833413},{"name":"A1","midi":33,"time":476.42876200000063,"velocity":0.7559055118110236,"duration":0.3385418020833413},{"name":"A2","midi":45,"time":476.42876200000063,"velocity":0.7559055118110236,"duration":0.3385418020833413},{"name":"D2","midi":38,"time":476.78590500000064,"velocity":0.8818897637795275,"duration":0.5081847270833464},{"name":"A2","midi":45,"time":476.78590500000064,"velocity":0.8818897637795275,"duration":0.5081847270833464},{"name":"G3","midi":55,"time":477.3216195000007,"velocity":0.8818897637795275,"duration":0.5081847270833464},{"name":"C4","midi":60,"time":477.3216195000007,"velocity":0.8818897637795275,"duration":0.5081847270833464},{"name":"A#1","midi":34,"time":477.8573340000007,"velocity":0.8818897637795275,"duration":0.5349704520833143},{"name":"A#2","midi":46,"time":477.9042090187507,"velocity":0.8818897637795275,"duration":0.4873513854166731},{"name":"F3","midi":53,"time":478.3930485000007,"velocity":0.8818897637795275,"duration":0.5081847270833464},{"name":"A#3","midi":58,"time":478.3930485000007,"velocity":0.8818897637795275,"duration":0.5081847270833464},{"name":"A1","midi":33,"time":478.92876300000074,"velocity":0.8818897637795275,"duration":0.5081847270833464},{"name":"E2","midi":40,"time":478.92876300000074,"velocity":0.8818897637795275,"duration":0.5081847270833464},{"name":"A1","midi":33,"time":479.4644775000008,"velocity":0.8818897637795275,"duration":0.5081847270833464},{"name":"A2","midi":45,"time":479.4644775000008,"velocity":0.8818897637795275,"duration":0.5081847270833464},{"name":"D2","midi":38,"time":480.0001920000008,"velocity":0.8818897637795275,"duration":0.3385418020833413},{"name":"A2","midi":45,"time":480.0001920000008,"velocity":0.8818897637795275,"duration":0.3385418020833413},{"name":"D3","midi":50,"time":480.35733500000083,"velocity":0.8818897637795275,"duration":0.3385418020833413},{"name":"D2","midi":38,"time":480.71447800000084,"velocity":0.8818897637795275,"duration":0.3385418020833413},{"name":"A2","midi":45,"time":480.71447800000084,"velocity":0.8818897637795275,"duration":0.3385418020833413},{"name":"A#1","midi":34,"time":481.07162100000085,"velocity":0.8818897637795275,"duration":0.5081847270833464},{"name":"A#2","midi":46,"time":481.07162100000085,"velocity":0.8818897637795275,"duration":0.5081847270833464},{"name":"A#1","midi":34,"time":481.6073355000009,"velocity":0.8818897637795275,"duration":0.5081847270833464},{"name":"A#2","midi":46,"time":481.6073355000009,"velocity":0.8818897637795275,"duration":0.5081847270833464},{"name":"A1","midi":33,"time":482.1430500000009,"velocity":0.8818897637795275,"duration":0.5081847270833464},{"name":"A2","midi":45,"time":482.1430500000009,"velocity":0.8818897637795275,"duration":0.5081847270833464},{"name":"A1","midi":33,"time":482.67876450000097,"velocity":0.8818897637795275,"duration":0.5081847270833464},{"name":"A2","midi":45,"time":482.67876450000097,"velocity":0.8818897637795275,"duration":0.5081847270833464},{"name":"A1","midi":33,"time":483.214479000001,"velocity":0.8818897637795275,"duration":0.5081847270833464},{"name":"A2","midi":45,"time":483.75019350000105,"velocity":0.8818897637795275,"duration":0.5081847270833464},{"name":"D2","midi":38,"time":484.2859080000011,"velocity":0.8818897637795275,"duration":0.16889887708333617},{"name":"A2","midi":45,"time":484.46447950000106,"velocity":0.8818897637795275,"duration":0.16889887708333617},{"name":"D3","midi":50,"time":484.64305100000104,"velocity":0.8818897637795275,"duration":0.16889887708333617},{"name":"A2","midi":45,"time":485.00019400000104,"velocity":0.8818897637795275,"duration":0.8474705770833566},{"name":"D2","midi":38,"time":485.35733700000105,"velocity":0.8503937007874016,"duration":0.5081847270833464},{"name":"D3","midi":50,"time":485.35733700000105,"velocity":0.8503937007874016,"duration":0.5081847270833464},{"name":"D2","midi":38,"time":485.8930515000011,"velocity":0.7952755905511811,"duration":0.5081847270833464},{"name":"A2","midi":45,"time":485.8930515000011,"velocity":0.7952755905511811,"duration":0.5081847270833464},{"name":"D3","midi":50,"time":485.8930515000011,"velocity":0.7952755905511811,"duration":0.5081847270833464},{"name":"A#1","midi":34,"time":486.42876600000113,"velocity":0.7401574803149606,"duration":0.5081847270833464},{"name":"F2","midi":41,"time":486.42876600000113,"velocity":0.7401574803149606,"duration":0.5081847270833464},{"name":"A#2","midi":46,"time":486.42876600000113,"velocity":0.7401574803149606,"duration":0.5081847270833464},{"name":"A#1","midi":34,"time":486.9644805000012,"velocity":0.6850393700787402,"duration":0.5081847270833464},{"name":"A#2","midi":46,"time":486.9644805000012,"velocity":0.6850393700787402,"duration":0.5081847270833464},{"name":"G1","midi":31,"time":487.5001950000012,"velocity":0.6299212598425197,"duration":0.5081847270833464},{"name":"D2","midi":38,"time":487.5001950000012,"velocity":0.6299212598425197,"duration":0.5081847270833464},{"name":"G2","midi":43,"time":487.5001950000012,"velocity":0.6299212598425197,"duration":0.5081847270833464},{"name":"G2","midi":43,"time":488.03590950000125,"velocity":0.5826771653543307,"duration":0.5081847270833464},{"name":"G2","midi":43,"time":488.5716240000013,"velocity":0.5275590551181102,"duration":0.3385418020833413},{"name":"A2","midi":45,"time":488.9287670000013,"velocity":0.5039370078740157,"duration":0.6778276520833515},{"name":"A#1","midi":34,"time":489.6430530000013,"velocity":0.5039370078740157,"duration":0.5081847270833464},{"name":"A#2","midi":46,"time":489.6430530000013,"velocity":0.5039370078740157,"duration":0.5081847270833464},{"name":"A#2","midi":46,"time":490.17876750000136,"velocity":0.5039370078740157,"duration":0.5081847270833464},{"name":"D2","midi":38,"time":490.7144820000014,"velocity":0.5039370078740157,"duration":0.3385418020833413},{"name":"D3","midi":50,"time":490.7144820000014,"velocity":0.5039370078740157,"duration":0.3385418020833413},{"name":"D3","midi":50,"time":491.0716250000014,"velocity":0.5039370078740157,"duration":0.6778276520833515},{"name":"A1","midi":33,"time":491.7859110000014,"velocity":0.6299212598425197,"duration":0.3385418020833413},{"name":"A2","midi":45,"time":491.7859110000014,"velocity":0.6299212598425197,"duration":0.3385418020833413},{"name":"A1","midi":33,"time":492.1430540000014,"velocity":0.7086614173228346,"duration":0.3385418020833413},{"name":"A2","midi":45,"time":492.1430540000014,"velocity":0.7086614173228346,"duration":0.3385418020833413},{"name":"A1","midi":33,"time":492.50019700000144,"velocity":0.7952755905511811,"duration":0.3385418020833413},{"name":"A2","midi":45,"time":492.50019700000144,"velocity":0.7952755905511811,"duration":0.3385418020833413},{"name":"D2","midi":38,"time":492.85734000000144,"velocity":0.8818897637795275,"duration":0.3385418020833413},{"name":"D3","midi":50,"time":492.85734000000144,"velocity":0.8818897637795275,"duration":0.3385418020833413},{"name":"D2","midi":38,"time":493.21448300000145,"velocity":0.8818897637795275,"duration":0.16889887708333617},{"name":"D3","midi":50,"time":493.21448300000145,"velocity":0.8818897637795275,"duration":0.16889887708333617},{"name":"D2","midi":38,"time":493.3930545000014,"velocity":0.8818897637795275,"duration":0.16889887708333617},{"name":"D3","midi":50,"time":493.3930545000014,"velocity":0.8818897637795275,"duration":0.16889887708333617},{"name":"C#2","midi":37,"time":493.5716260000014,"velocity":0.8818897637795275,"duration":0.3385418020833413},{"name":"C#3","midi":49,"time":493.5716260000014,"velocity":0.8818897637795275,"duration":0.3385418020833413},{"name":"C#2","midi":37,"time":493.9287690000014,"velocity":0.8818897637795275,"duration":0.16889887708333617},{"name":"C#3","midi":49,"time":493.9287690000014,"velocity":0.8818897637795275,"duration":0.16889887708333617},{"name":"C#2","midi":37,"time":494.1073405000014,"velocity":0.8818897637795275,"duration":0.16889887708333617},{"name":"C#3","midi":49,"time":494.1073405000014,"velocity":0.8818897637795275,"duration":0.16889887708333617},{"name":"C2","midi":36,"time":494.28591200000136,"velocity":0.8818897637795275,"duration":0.3385418020833413},{"name":"C3","midi":48,"time":494.28591200000136,"velocity":0.8818897637795275,"duration":0.3385418020833413},{"name":"C2","midi":36,"time":494.64305500000137,"velocity":0.8818897637795275,"duration":0.16889887708333617},{"name":"C3","midi":48,"time":494.64305500000137,"velocity":0.8818897637795275,"duration":0.16889887708333617},{"name":"C2","midi":36,"time":494.82162650000134,"velocity":0.8818897637795275,"duration":0.16889887708333617},{"name":"C3","midi":48,"time":494.82162650000134,"velocity":0.8818897637795275,"duration":0.16889887708333617},{"name":"A#1","midi":34,"time":495.0001980000013,"velocity":0.8818897637795275,"duration":0.3385418020833413},{"name":"A#2","midi":46,"time":495.0001980000013,"velocity":0.8818897637795275,"duration":0.3385418020833413},{"name":"A1","midi":33,"time":495.3573410000013,"velocity":0.8818897637795275,"duration":1.0171135020833617},{"name":"D2","midi":38,"time":495.3573410000013,"velocity":0.8818897637795275,"duration":1.0171135020833617},{"name":"F2","midi":41,"time":495.3573410000013,"velocity":0.8818897637795275,"duration":1.0171135020833617},{"name":"A2","midi":45,"time":495.3573410000013,"velocity":0.8818897637795275,"duration":1.0171135020833617},{"name":"A1","midi":33,"time":496.42877000000135,"velocity":0.8818897637795275,"duration":1.0171135020833617},{"name":"D2","midi":38,"time":496.42877000000135,"velocity":0.8818897637795275,"duration":1.0171135020833617},{"name":"F2","midi":41,"time":496.42877000000135,"velocity":0.8818897637795275,"duration":1.0171135020833617},{"name":"A2","midi":45,"time":496.42877000000135,"velocity":0.8818897637795275,"duration":1.0171135020833617},{"name":"G1","midi":31,"time":497.5001990000014,"velocity":0.8818897637795275,"duration":1.0171135020833617},{"name":"D2","midi":38,"time":497.5001990000014,"velocity":0.8818897637795275,"duration":1.0171135020833617},{"name":"G2","midi":43,"time":497.5001990000014,"velocity":0.8818897637795275,"duration":1.0171135020833617},{"name":"G1","midi":31,"time":498.5716280000014,"velocity":0.8818897637795275,"duration":1.0171135020833617},{"name":"D2","midi":38,"time":498.5716280000014,"velocity":0.8818897637795275,"duration":1.0171135020833617},{"name":"G2","midi":43,"time":498.5716280000014,"velocity":0.8818897637795275,"duration":1.0171135020833617},{"name":"A1","midi":33,"time":499.6430570000014,"velocity":0.8818897637795275,"duration":0.16889887708333617},{"name":"A2","midi":45,"time":499.6430570000014,"velocity":0.8818897637795275,"duration":0.16889887708333617},{"name":"A1","midi":33,"time":499.8216285000014,"velocity":0.8818897637795275,"duration":0.3385418020833413},{"name":"A2","midi":45,"time":499.8216285000014,"velocity":0.8818897637795275,"duration":0.3385418020833413},{"name":"A1","midi":33,"time":500.1787715000014,"velocity":0.8818897637795275,"duration":0.3385418020833413},{"name":"A2","midi":45,"time":500.1787715000014,"velocity":0.8818897637795275,"duration":0.3385418020833413},{"name":"A1","midi":33,"time":500.5359145000014,"velocity":0.8818897637795275,"duration":1.18675642708331},{"name":"A2","midi":45,"time":500.5359145000014,"velocity":0.8818897637795275,"duration":1.18675642708331},{"name":"D2","midi":38,"time":501.7859150000014,"velocity":0.8818897637795275,"duration":1.0171135020833617},{"name":"A2","midi":45,"time":501.7859150000014,"velocity":0.8818897637795275,"duration":1.0171135020833617},{"name":"D3","midi":50,"time":501.7859150000014,"velocity":0.8818897637795275,"duration":1.0171135020833617},{"name":"C3","midi":48,"time":503.3930585000014,"velocity":0.8818897637795275,"duration":0.16889887708333617},{"name":"C3","midi":48,"time":503.5716300000014,"velocity":0.8818897637795275,"duration":0.16889887708333617},{"name":"C3","midi":48,"time":503.75020150000137,"velocity":0.8818897637795275,"duration":0.16889887708333617},{"name":"A#2","midi":46,"time":503.92877300000134,"velocity":0.8818897637795275,"duration":0.16889887708333617},{"name":"A#2","midi":46,"time":504.1073445000013,"velocity":0.8818897637795275,"duration":0.16889887708333617},{"name":"A#2","midi":46,"time":504.2859160000013,"velocity":0.8818897637795275,"duration":0.16889887708333617},{"name":"F#2","midi":42,"time":504.46448750000127,"velocity":0.8818897637795275,"duration":0.16889887708333617},{"name":"D3","midi":50,"time":504.46448750000127,"velocity":0.8818897637795275,"duration":0.16889887708333617},{"name":"F#2","midi":42,"time":504.64305900000124,"velocity":0.8818897637795275,"duration":0.16889887708333617},{"name":"D3","midi":50,"time":504.64305900000124,"velocity":0.8818897637795275,"duration":0.16889887708333617},{"name":"F#2","midi":42,"time":504.8216305000012,"velocity":0.8818897637795275,"duration":0.16889887708333617},{"name":"D3","midi":50,"time":504.8216305000012,"velocity":0.8818897637795275,"duration":0.16889887708333617},{"name":"A#2","midi":46,"time":505.0002020000012,"velocity":0.8818897637795275,"duration":0.16889887708333617},{"name":"G3","midi":55,"time":505.0002020000012,"velocity":0.8818897637795275,"duration":0.16889887708333617},{"name":"A#2","midi":46,"time":505.17877350000117,"velocity":0.8818897637795275,"duration":0.16889887708333617},{"name":"G3","midi":55,"time":505.17877350000117,"velocity":0.8818897637795275,"duration":0.16889887708333617},{"name":"A#2","midi":46,"time":505.35734500000115,"velocity":0.8818897637795275,"duration":0.16889887708333617},{"name":"G3","midi":55,"time":505.35734500000115,"velocity":0.8818897637795275,"duration":0.16889887708333617},{"name":"F2","midi":41,"time":505.5359165000011,"velocity":0.8818897637795275,"duration":0.16889887708333617},{"name":"F3","midi":53,"time":505.5359165000011,"velocity":0.8818897637795275,"duration":0.16889887708333617},{"name":"F2","midi":41,"time":505.7144880000011,"velocity":0.8818897637795275,"duration":0.16889887708333617},{"name":"F3","midi":53,"time":505.7144880000011,"velocity":0.8818897637795275,"duration":0.16889887708333617},{"name":"F2","midi":41,"time":505.8930595000011,"velocity":0.8818897637795275,"duration":0.16889887708333617},{"name":"F3","midi":53,"time":505.8930595000011,"velocity":0.8818897637795275,"duration":0.16889887708333617},{"name":"F2","midi":41,"time":506.07163100000105,"velocity":0.8818897637795275,"duration":0.16889887708333617},{"name":"F3","midi":53,"time":506.07163100000105,"velocity":0.8818897637795275,"duration":0.16889887708333617},{"name":"F2","midi":41,"time":506.250202500001,"velocity":0.8818897637795275,"duration":0.16889887708333617},{"name":"F3","midi":53,"time":506.250202500001,"velocity":0.8818897637795275,"duration":0.16889887708333617},{"name":"F2","midi":41,"time":506.428774000001,"velocity":0.8818897637795275,"duration":0.16889887708333617},{"name":"F3","midi":53,"time":506.428774000001,"velocity":0.8818897637795275,"duration":0.16889887708333617},{"name":"D#2","midi":39,"time":506.607345500001,"velocity":0.8818897637795275,"duration":0.16889887708333617},{"name":"D#3","midi":51,"time":506.607345500001,"velocity":0.8818897637795275,"duration":0.16889887708333617},{"name":"D#2","midi":39,"time":506.78591700000095,"velocity":0.8818897637795275,"duration":0.16889887708333617},{"name":"D#3","midi":51,"time":506.78591700000095,"velocity":0.8818897637795275,"duration":0.16889887708333617},{"name":"D#2","midi":39,"time":506.9644885000009,"velocity":0.8818897637795275,"duration":0.16889887708333617},{"name":"D#3","midi":51,"time":506.9644885000009,"velocity":0.8818897637795275,"duration":0.16889887708333617},{"name":"D2","midi":38,"time":507.1430600000009,"velocity":0.8818897637795275,"duration":0.16889887708333617},{"name":"D3","midi":50,"time":507.1430600000009,"velocity":0.8818897637795275,"duration":0.16889887708333617},{"name":"D2","midi":38,"time":507.3216315000009,"velocity":0.8818897637795275,"duration":0.16889887708333617},{"name":"D3","midi":50,"time":507.3216315000009,"velocity":0.8818897637795275,"duration":0.16889887708333617},{"name":"D2","midi":38,"time":507.50020300000085,"velocity":0.8818897637795275,"duration":0.16889887708333617},{"name":"D3","midi":50,"time":507.50020300000085,"velocity":0.8818897637795275,"duration":0.16889887708333617},{"name":"C#2","midi":37,"time":507.6787745000008,"velocity":0.8818897637795275,"duration":0.16889887708333617},{"name":"C#3","midi":49,"time":507.6787745000008,"velocity":0.8818897637795275,"duration":0.16889887708333617},{"name":"C2","midi":36,"time":507.8573460000008,"velocity":0.8818897637795275,"duration":0.16889887708333617},{"name":"C3","midi":48,"time":507.8573460000008,"velocity":0.8818897637795275,"duration":0.16889887708333617},{"name":"C2","midi":36,"time":508.0359175000008,"velocity":0.8818897637795275,"duration":0.16889887708333617},{"name":"C3","midi":48,"time":508.0359175000008,"velocity":0.8818897637795275,"duration":0.16889887708333617},{"name":"B1","midi":35,"time":508.21448900000075,"velocity":0.8818897637795275,"duration":0.16889887708333617},{"name":"B2","midi":47,"time":508.21448900000075,"velocity":0.8818897637795275,"duration":0.16889887708333617},{"name":"A#1","midi":34,"time":508.39306050000073,"velocity":0.8818897637795275,"duration":0.16889887708333617},{"name":"A#2","midi":46,"time":508.39306050000073,"velocity":0.8818897637795275,"duration":0.16889887708333617},{"name":"A1","midi":33,"time":508.5716320000007,"velocity":0.8818897637795275,"duration":0.16889887708333617},{"name":"A2","midi":45,"time":508.5716320000007,"velocity":0.8818897637795275,"duration":0.16889887708333617},{"name":"A1","midi":33,"time":508.7502035000007,"velocity":0.8818897637795275,"duration":0.16889887708333617},{"name":"A2","midi":45,"time":508.7502035000007,"velocity":0.8818897637795275,"duration":0.16889887708333617},{"name":"G#1","midi":32,"time":508.92877500000066,"velocity":0.8818897637795275,"duration":0.16889887708333617},{"name":"G#2","midi":44,"time":508.92877500000066,"velocity":0.8818897637795275,"duration":0.16889887708333617},{"name":"G1","midi":31,"time":509.10734650000063,"velocity":0.8818897637795275,"duration":0.16889887708333617},{"name":"G2","midi":43,"time":509.10734650000063,"velocity":0.8818897637795275,"duration":0.16889887708333617},{"name":"G1","midi":31,"time":509.2859180000006,"velocity":0.8818897637795275,"duration":0.16889887708333617},{"name":"G2","midi":43,"time":509.2859180000006,"velocity":0.8818897637795275,"duration":0.16889887708333617},{"name":"F#1","midi":30,"time":509.4644895000006,"velocity":0.8818897637795275,"duration":0.16889887708333617},{"name":"F#2","midi":42,"time":509.4644895000006,"velocity":0.8818897637795275,"duration":0.16889887708333617},{"name":"F1","midi":29,"time":509.64306100000056,"velocity":0.8818897637795275,"duration":0.16889887708333617},{"name":"F2","midi":41,"time":509.64306100000056,"velocity":0.8818897637795275,"duration":0.16889887708333617},{"name":"E1","midi":28,"time":509.82163250000053,"velocity":0.8818897637795275,"duration":0.16889887708333617},{"name":"E2","midi":40,"time":509.82163250000053,"velocity":0.8818897637795275,"duration":0.16889887708333617},{"name":"E1","midi":28,"time":510.0002040000005,"velocity":0.8818897637795275,"duration":0.16889887708333617},{"name":"E2","midi":40,"time":510.0002040000005,"velocity":0.8818897637795275,"duration":0.16889887708333617},{"name":"D#1","midi":27,"time":510.1787755000005,"velocity":0.8818897637795275,"duration":0.16889887708333617},{"name":"D#2","midi":39,"time":510.1787755000005,"velocity":0.8818897637795275,"duration":0.16889887708333617},{"name":"D1","midi":26,"time":510.35734700000046,"velocity":0.8818897637795275,"duration":0.16889887708333617},{"name":"D2","midi":38,"time":510.35734700000046,"velocity":0.8818897637795275,"duration":0.16889887708333617},{"name":"D1","midi":26,"time":510.53591850000043,"velocity":0.8818897637795275,"duration":0.16889887708333617},{"name":"D2","midi":38,"time":510.53591850000043,"velocity":0.8818897637795275,"duration":0.16889887708333617},{"name":"D1","midi":26,"time":510.7144900000004,"velocity":0.8818897637795275,"duration":0.16889887708333617},{"name":"D2","midi":38,"time":510.7144900000004,"velocity":0.8818897637795275,"duration":0.16889887708333617},{"name":"D1","midi":26,"time":510.8930615000004,"velocity":0.8818897637795275,"duration":0.16889887708333617},{"name":"D2","midi":38,"time":510.8930615000004,"velocity":0.8818897637795275,"duration":0.16889887708333617},{"name":"D1","midi":26,"time":511.07163300000036,"velocity":0.8818897637795275,"duration":0.16889887708333617},{"name":"D2","midi":38,"time":511.07163300000036,"velocity":0.8818897637795275,"duration":0.16889887708333617},{"name":"D1","midi":26,"time":511.25020450000034,"velocity":0.8818897637795275,"duration":0.16889887708333617},{"name":"D2","midi":38,"time":511.25020450000034,"velocity":0.8818897637795275,"duration":0.16889887708333617},{"name":"D1","midi":26,"time":511.4287760000003,"velocity":0.8818897637795275,"duration":0.16889887708333617},{"name":"D2","midi":38,"time":511.4287760000003,"velocity":0.8818897637795275,"duration":0.16889887708333617},{"name":"D1","midi":26,"time":511.6073475000003,"velocity":0.8818897637795275,"duration":0.16889887708333617},{"name":"D2","midi":38,"time":511.6073475000003,"velocity":0.8818897637795275,"duration":0.16889887708333617},{"name":"D1","midi":26,"time":511.78591900000026,"velocity":0.8818897637795275,"duration":0.16889887708333617},{"name":"D2","midi":38,"time":511.78591900000026,"velocity":0.8818897637795275,"duration":0.16889887708333617},{"name":"A1","midi":33,"time":511.96449050000024,"velocity":0.9921259842519685,"duration":0.3385418020833413},{"name":"A2","midi":45,"time":511.96449050000024,"velocity":0.9921259842519685,"duration":0.3385418020833413},{"name":"A1","midi":33,"time":512.3216335000003,"velocity":0.9921259842519685,"duration":0.16889887708327933},{"name":"A2","midi":45,"time":512.3216335000003,"velocity":0.9921259842519685,"duration":0.16889887708327933},{"name":"G1","midi":31,"time":512.5002050000003,"velocity":0.9921259842519685,"duration":0.16889887708327933},{"name":"G2","midi":43,"time":512.5002050000003,"velocity":0.9921259842519685,"duration":0.16889887708327933},{"name":"G1","midi":31,"time":512.6787765000003,"velocity":0.9921259842519685,"duration":0.16889887708327933},{"name":"G2","midi":43,"time":512.6787765000003,"velocity":0.9921259842519685,"duration":0.16889887708327933},{"name":"G1","midi":31,"time":512.8573480000002,"velocity":0.9921259842519685,"duration":0.16889887708327933},{"name":"G2","midi":43,"time":512.8573480000002,"velocity":0.9921259842519685,"duration":0.16889887708327933},{"name":"F1","midi":29,"time":513.0359195000002,"velocity":0.9921259842519685,"duration":0.16889887708327933},{"name":"F2","midi":41,"time":513.0359195000002,"velocity":0.9921259842519685,"duration":0.16889887708327933},{"name":"F1","midi":29,"time":513.2144910000002,"velocity":0.9921259842519685,"duration":0.16889887708327933},{"name":"F2","midi":41,"time":513.2144910000002,"velocity":0.9921259842519685,"duration":0.16889887708327933},{"name":"F1","midi":29,"time":513.3930625000002,"velocity":0.9921259842519685,"duration":0.16889887708327933},{"name":"F2","midi":41,"time":513.3930625000002,"velocity":0.9921259842519685,"duration":0.16889887708327933},{"name":"E1","midi":28,"time":513.5716340000001,"velocity":0.9921259842519685,"duration":0.16889887708327933},{"name":"E2","midi":40,"time":513.5716340000001,"velocity":0.9921259842519685,"duration":0.16889887708327933},{"name":"E1","midi":28,"time":513.7502055000001,"velocity":0.9921259842519685,"duration":0.16889887708327933},{"name":"E2","midi":40,"time":513.7502055000001,"velocity":0.9921259842519685,"duration":0.16889887708327933},{"name":"E1","midi":28,"time":513.9287770000001,"velocity":0.9921259842519685,"duration":0.16889887708327933},{"name":"E2","midi":40,"time":513.9287770000001,"velocity":0.9921259842519685,"duration":0.16889887708327933},{"name":"D1","midi":26,"time":514.1073485000001,"velocity":0.9921259842519685,"duration":0.16889887708327933},{"name":"D2","midi":38,"time":514.1073485000001,"velocity":0.9921259842519685,"duration":0.16889887708327933},{"name":"D1","midi":26,"time":514.28592,"velocity":0.9921259842519685,"duration":0.16889887708327933},{"name":"D2","midi":38,"time":514.28592,"velocity":0.9921259842519685,"duration":0.16889887708327933},{"name":"D1","midi":26,"time":514.4644915,"velocity":0.9921259842519685,"duration":0.16889887708327933},{"name":"D2","midi":38,"time":514.4644915,"velocity":0.9921259842519685,"duration":0.16889887708327933},{"name":"C1","midi":24,"time":514.643063,"velocity":0.9921259842519685,"duration":0.16889887708327933},{"name":"C2","midi":36,"time":514.643063,"velocity":0.9921259842519685,"duration":0.16889887708327933},{"name":"C1","midi":24,"time":514.8216345,"velocity":0.9921259842519685,"duration":0.16889887708327933},{"name":"C2","midi":36,"time":514.8216345,"velocity":0.9921259842519685,"duration":0.16889887708327933},{"name":"C1","midi":24,"time":515.0002059999999,"velocity":0.9921259842519685,"duration":0.16889887708327933},{"name":"C2","midi":36,"time":515.0002059999999,"velocity":0.9921259842519685,"duration":0.16889887708327933},{"name":"A#0","midi":22,"time":515.1787774999999,"velocity":0.9921259842519685,"duration":0.16889887708327933},{"name":"A#1","midi":34,"time":515.1787774999999,"velocity":0.9921259842519685,"duration":0.16889887708327933},{"name":"A#0","midi":22,"time":515.3573489999999,"velocity":0.9921259842519685,"duration":0.16889887708327933},{"name":"A#1","midi":34,"time":515.3573489999999,"velocity":0.9921259842519685,"duration":0.16889887708327933},{"name":"A#0","midi":22,"time":515.5359204999999,"velocity":0.9921259842519685,"duration":0.16889887708327933},{"name":"A#1","midi":34,"time":515.5359204999999,"velocity":0.9921259842519685,"duration":0.16889887708327933},{"name":"A0","midi":21,"time":515.7144919999998,"velocity":0.9921259842519685,"duration":0.16889887708327933},{"name":"A1","midi":33,"time":515.7144919999998,"velocity":0.9921259842519685,"duration":0.16889887708327933},{"name":"A0","midi":21,"time":515.8930634999998,"velocity":0.9921259842519685,"duration":0.16889887708327933},{"name":"A1","midi":33,"time":515.8930634999998,"velocity":0.9921259842519685,"duration":0.16889887708327933},{"name":"A0","midi":21,"time":516.0716349999998,"velocity":0.9921259842519685,"duration":0.16889887708327933},{"name":"A1","midi":33,"time":516.0716349999998,"velocity":0.9921259842519685,"duration":0.16889887708327933},{"name":"D1","midi":26,"time":516.2502064999998,"velocity":0.8818897637795275,"duration":0.6778276520833515},{"name":"A1","midi":33,"time":516.2502064999998,"velocity":0.8818897637795275,"duration":0.6778276520833515},{"name":"D2","midi":38,"time":516.2502064999998,"velocity":0.8818897637795275,"duration":0.6778276520833515},{"name":"D3","midi":50,"time":516.9644924999998,"velocity":0.8818897637795275,"duration":0.16889887708327933},{"name":"F3","midi":53,"time":516.9644924999998,"velocity":0.8818897637795275,"duration":0.16889887708327933},{"name":"A3","midi":57,"time":516.9644924999998,"velocity":0.8818897637795275,"duration":0.16889887708327933},{"name":"D3","midi":50,"time":517.1430639999998,"velocity":0.8818897637795275,"duration":0.16889887708327933},{"name":"F3","midi":53,"time":517.1430639999998,"velocity":0.8818897637795275,"duration":0.16889887708327933},{"name":"A3","midi":57,"time":517.1430639999998,"velocity":0.8818897637795275,"duration":0.16889887708327933},{"name":"D3","midi":50,"time":517.3216354999997,"velocity":0.8818897637795275,"duration":0.3385418020833413},{"name":"F3","midi":53,"time":517.3216354999997,"velocity":0.8818897637795275,"duration":0.3385418020833413},{"name":"A3","midi":57,"time":517.3216354999997,"velocity":0.8818897637795275,"duration":0.3385418020833413},{"name":"D3","midi":50,"time":517.6787784999998,"velocity":0.8818897637795275,"duration":0.3385418020833413},{"name":"F3","midi":53,"time":517.6787784999998,"velocity":0.8818897637795275,"duration":0.3385418020833413},{"name":"A3","midi":57,"time":517.6787784999998,"velocity":0.8818897637795275,"duration":0.3385418020833413},{"name":"D3","midi":50,"time":518.0359214999999,"velocity":0.8818897637795275,"duration":0.3385418020833413},{"name":"F3","midi":53,"time":518.0359214999999,"velocity":0.8818897637795275,"duration":0.3385418020833413},{"name":"A3","midi":57,"time":518.0359214999999,"velocity":0.8818897637795275,"duration":0.3385418020833413},{"name":"D1","midi":26,"time":518.3930644999999,"velocity":0.8818897637795275,"duration":0.3385418020833413},{"name":"A1","midi":33,"time":518.3930644999999,"velocity":0.8818897637795275,"duration":0.3385418020833413},{"name":"D2","midi":38,"time":518.3930644999999,"velocity":0.8818897637795275,"duration":0.3385418020833413},{"name":"D1","midi":26,"time":518.7502075,"velocity":0.8818897637795275,"duration":0.3385418020833413},{"name":"A1","midi":33,"time":518.7502075,"velocity":0.8818897637795275,"duration":0.3385418020833413},{"name":"D2","midi":38,"time":518.7502075,"velocity":0.8818897637795275,"duration":0.3385418020833413},{"name":"D1","midi":26,"time":519.1073505,"velocity":0.8818897637795275,"duration":0.16889887708327933},{"name":"A1","midi":33,"time":519.1073505,"velocity":0.8818897637795275,"duration":0.16889887708327933},{"name":"D2","midi":38,"time":519.1073505,"velocity":0.8818897637795275,"duration":0.16889887708327933},{"name":"D1","midi":26,"time":519.285922,"velocity":0.8818897637795275,"duration":0.16889887708327933},{"name":"A1","midi":33,"time":519.285922,"velocity":0.8818897637795275,"duration":0.16889887708327933},{"name":"D2","midi":38,"time":519.285922,"velocity":0.8818897637795275,"duration":0.16889887708327933},{"name":"D1","midi":26,"time":519.4644935,"velocity":0.8818897637795275,"duration":0.3385418020833413},{"name":"A1","midi":33,"time":519.4644935,"velocity":0.8818897637795275,"duration":0.3385418020833413},{"name":"D2","midi":38,"time":519.4644935,"velocity":0.8818897637795275,"duration":0.3385418020833413},{"name":"D1","midi":26,"time":519.8216365000001,"velocity":0.8818897637795275,"duration":0.3385418020833413},{"name":"A1","midi":33,"time":519.8216365000001,"velocity":0.8818897637795275,"duration":0.3385418020833413},{"name":"D2","midi":38,"time":519.8216365000001,"velocity":0.8818897637795275,"duration":0.3385418020833413},{"name":"D1","midi":26,"time":520.1787795000001,"velocity":0.8818897637795275,"duration":0.3385418020833413},{"name":"A1","midi":33,"time":520.1787795000001,"velocity":0.8818897637795275,"duration":0.3385418020833413},{"name":"D2","midi":38,"time":520.1787795000001,"velocity":0.8818897637795275,"duration":0.3385418020833413},{"name":"D1","midi":26,"time":520.5359225000002,"velocity":0.8818897637795275,"duration":0.6778276520833515},{"name":"A1","midi":33,"time":520.5359225000002,"velocity":0.8818897637795275,"duration":0.6778276520833515},{"name":"D2","midi":38,"time":520.5359225000002,"velocity":0.8818897637795275,"duration":0.6778276520833515},{"name":"D3","midi":50,"time":521.2502085000002,"velocity":0.8818897637795275,"duration":0.16889887708327933},{"name":"A3","midi":57,"time":521.2502085000002,"velocity":0.8818897637795275,"duration":0.16889887708327933},{"name":"C4","midi":60,"time":521.2502085000002,"velocity":0.8818897637795275,"duration":0.16889887708327933},{"name":"D3","midi":50,"time":521.4287800000002,"velocity":0.8818897637795275,"duration":0.16889887708327933},{"name":"A3","midi":57,"time":521.4287800000002,"velocity":0.8818897637795275,"duration":0.16889887708327933},{"name":"C4","midi":60,"time":521.4287800000002,"velocity":0.8818897637795275,"duration":0.16889887708327933},{"name":"D3","midi":50,"time":521.6073515000002,"velocity":0.8818897637795275,"duration":0.3385418020833413},{"name":"A3","midi":57,"time":521.6073515000002,"velocity":0.8818897637795275,"duration":0.3385418020833413},{"name":"C4","midi":60,"time":521.6073515000002,"velocity":0.8818897637795275,"duration":0.3385418020833413},{"name":"D3","midi":50,"time":521.9644945000002,"velocity":0.8818897637795275,"duration":0.3385418020833413},{"name":"A3","midi":57,"time":521.9644945000002,"velocity":0.8818897637795275,"duration":0.3385418020833413},{"name":"C4","midi":60,"time":521.9644945000002,"velocity":0.8818897637795275,"duration":0.3385418020833413},{"name":"D3","midi":50,"time":522.3216375000003,"velocity":0.8818897637795275,"duration":0.3385418020833413},{"name":"A3","midi":57,"time":522.3216375000003,"velocity":0.8818897637795275,"duration":0.3385418020833413},{"name":"D1","midi":26,"time":522.6787805000004,"velocity":0.8818897637795275,"duration":1.0171135020833617},{"name":"A1","midi":33,"time":522.6787805000004,"velocity":0.8818897637795275,"duration":1.0171135020833617},{"name":"D2","midi":38,"time":522.6787805000004,"velocity":0.8818897637795275,"duration":1.0171135020833617},{"name":"D1","midi":26,"time":523.7502095000004,"velocity":0.8818897637795275,"duration":0.16889887708327933},{"name":"D2","midi":38,"time":523.7502095000004,"velocity":0.8818897637795275,"duration":0.16889887708327933},{"name":"C1","midi":24,"time":523.9287810000004,"velocity":0.8818897637795275,"duration":0.16889887708327933},{"name":"C2","midi":36,"time":523.9287810000004,"velocity":0.8818897637795275,"duration":0.16889887708327933},{"name":"D1","midi":26,"time":524.1073525000004,"velocity":0.8818897637795275,"duration":0.16889887708327933},{"name":"D2","midi":38,"time":524.1073525000004,"velocity":0.8818897637795275,"duration":0.16889887708327933},{"name":"F1","midi":29,"time":524.2859240000004,"velocity":0.8818897637795275,"duration":0.16889887708327933},{"name":"F2","midi":41,"time":524.2859240000004,"velocity":0.8818897637795275,"duration":0.16889887708327933},{"name":"E1","midi":28,"time":524.4644955000003,"velocity":0.8818897637795275,"duration":0.16889887708327933},{"name":"E2","midi":40,"time":524.4644955000003,"velocity":0.8818897637795275,"duration":0.16889887708327933},{"name":"C1","midi":24,"time":524.6430670000003,"velocity":0.8818897637795275,"duration":0.16889887708327933},{"name":"C2","midi":36,"time":524.6430670000003,"velocity":0.8818897637795275,"duration":0.16889887708327933},{"name":"D1","midi":26,"time":524.8216385000003,"velocity":0.8818897637795275,"duration":0.6778276520833515},{"name":"A1","midi":33,"time":524.8216385000003,"velocity":0.8818897637795275,"duration":0.6778276520833515},{"name":"D2","midi":38,"time":524.8216385000003,"velocity":0.8818897637795275,"duration":0.6778276520833515},{"name":"D3","midi":50,"time":525.5359245000003,"velocity":0.8818897637795275,"duration":0.16889887708327933},{"name":"F3","midi":53,"time":525.5359245000003,"velocity":0.8818897637795275,"duration":0.16889887708327933},{"name":"A3","midi":57,"time":525.5359245000003,"velocity":0.8818897637795275,"duration":0.16889887708327933},{"name":"D4","midi":62,"time":525.5359245000003,"velocity":0.8818897637795275,"duration":0.16889887708327933},{"name":"D3","midi":50,"time":525.7144960000003,"velocity":0.8818897637795275,"duration":0.16889887708327933},{"name":"F3","midi":53,"time":525.7144960000003,"velocity":0.8818897637795275,"duration":0.16889887708327933},{"name":"A3","midi":57,"time":525.7144960000003,"velocity":0.8818897637795275,"duration":0.16889887708327933},{"name":"D4","midi":62,"time":525.7144960000003,"velocity":0.8818897637795275,"duration":0.16889887708327933},{"name":"D3","midi":50,"time":525.8930675000003,"velocity":0.8818897637795275,"duration":0.3385418020833413},{"name":"F3","midi":53,"time":525.8930675000003,"velocity":0.8818897637795275,"duration":0.3385418020833413},{"name":"A3","midi":57,"time":525.8930675000003,"velocity":0.8818897637795275,"duration":0.3385418020833413},{"name":"D4","midi":62,"time":525.8930675000003,"velocity":0.8818897637795275,"duration":0.3385418020833413},{"name":"D3","midi":50,"time":526.2502105000003,"velocity":0.8818897637795275,"duration":0.3385418020833413},{"name":"F3","midi":53,"time":526.2502105000003,"velocity":0.8818897637795275,"duration":0.3385418020833413},{"name":"A3","midi":57,"time":526.2502105000003,"velocity":0.8818897637795275,"duration":0.3385418020833413},{"name":"D4","midi":62,"time":526.2502105000003,"velocity":0.8818897637795275,"duration":0.3385418020833413},{"name":"D3","midi":50,"time":526.6073535000004,"velocity":0.8818897637795275,"duration":0.3385418020833413},{"name":"F3","midi":53,"time":526.6073535000004,"velocity":0.8818897637795275,"duration":0.3385418020833413},{"name":"A3","midi":57,"time":526.6073535000004,"velocity":0.8818897637795275,"duration":0.3385418020833413},{"name":"D4","midi":62,"time":526.6073535000004,"velocity":0.8818897637795275,"duration":0.3385418020833413},{"name":"D1","midi":26,"time":526.9644965000005,"velocity":0.8818897637795275,"duration":0.3385418020833413},{"name":"A1","midi":33,"time":526.9644965000005,"velocity":0.8818897637795275,"duration":0.3385418020833413},{"name":"D2","midi":38,"time":526.9644965000005,"velocity":0.8818897637795275,"duration":0.3385418020833413},{"name":"D1","midi":26,"time":527.3216395000005,"velocity":0.8818897637795275,"duration":0.3385418020833413},{"name":"A1","midi":33,"time":527.3216395000005,"velocity":0.8818897637795275,"duration":0.3385418020833413},{"name":"D2","midi":38,"time":527.3216395000005,"velocity":0.8818897637795275,"duration":0.3385418020833413},{"name":"D1","midi":26,"time":527.6787825000006,"velocity":0.8818897637795275,"duration":0.16889887708327933},{"name":"A1","midi":33,"time":527.6787825000006,"velocity":0.8818897637795275,"duration":0.16889887708327933},{"name":"D2","midi":38,"time":527.6787825000006,"velocity":0.8818897637795275,"duration":0.16889887708327933},{"name":"D1","midi":26,"time":527.8573540000006,"velocity":0.8818897637795275,"duration":0.16889887708327933},{"name":"A1","midi":33,"time":527.8573540000006,"velocity":0.8818897637795275,"duration":0.16889887708327933},{"name":"D2","midi":38,"time":527.8573540000006,"velocity":0.8818897637795275,"duration":0.16889887708327933},{"name":"D1","midi":26,"time":528.0359255000005,"velocity":0.8818897637795275,"duration":0.3385418020833413},{"name":"A1","midi":33,"time":528.0359255000005,"velocity":0.8818897637795275,"duration":0.3385418020833413},{"name":"D2","midi":38,"time":528.0359255000005,"velocity":0.8818897637795275,"duration":0.3385418020833413},{"name":"D1","midi":26,"time":528.3930685000006,"velocity":0.8818897637795275,"duration":0.3385418020833413},{"name":"A1","midi":33,"time":528.3930685000006,"velocity":0.8818897637795275,"duration":0.3385418020833413},{"name":"D2","midi":38,"time":528.3930685000006,"velocity":0.8818897637795275,"duration":0.3385418020833413},{"name":"D1","midi":26,"time":528.7502115000007,"velocity":0.8818897637795275,"duration":0.3385418020833413},{"name":"A1","midi":33,"time":528.7502115000007,"velocity":0.8818897637795275,"duration":0.3385418020833413},{"name":"D2","midi":38,"time":528.7502115000007,"velocity":0.8818897637795275,"duration":0.3385418020833413},{"name":"G1","midi":31,"time":529.4644975000007,"velocity":0.8818897637795275,"duration":0.3385418020833413},{"name":"D2","midi":38,"time":529.4644975000007,"velocity":0.8818897637795275,"duration":0.3385418020833413},{"name":"G2","midi":43,"time":529.4644975000007,"velocity":0.8818897637795275,"duration":0.3385418020833413},{"name":"G1","midi":31,"time":529.8216405000007,"velocity":0.8818897637795275,"duration":0.3385418020833413},{"name":"D2","midi":38,"time":529.8216405000007,"velocity":0.8818897637795275,"duration":0.3385418020833413},{"name":"G2","midi":43,"time":529.8216405000007,"velocity":0.8818897637795275,"duration":0.3385418020833413},{"name":"G1","midi":31,"time":530.1787835000008,"velocity":0.8818897637795275,"duration":0.3385418020833413},{"name":"D2","midi":38,"time":530.1787835000008,"velocity":0.8818897637795275,"duration":0.3385418020833413},{"name":"G2","midi":43,"time":530.1787835000008,"velocity":0.8818897637795275,"duration":0.3385418020833413},{"name":"G1","midi":31,"time":530.5359265000009,"velocity":0.8818897637795275,"duration":0.3385418020833413},{"name":"D2","midi":38,"time":530.5359265000009,"velocity":0.8818897637795275,"duration":0.3385418020833413},{"name":"G2","midi":43,"time":530.5359265000009,"velocity":0.8818897637795275,"duration":0.3385418020833413},{"name":"G1","midi":31,"time":530.8930695000009,"velocity":0.8818897637795275,"duration":0.3385418020833413},{"name":"D2","midi":38,"time":530.8930695000009,"velocity":0.8818897637795275,"duration":0.3385418020833413},{"name":"G2","midi":43,"time":530.8930695000009,"velocity":0.8818897637795275,"duration":0.3385418020833413},{"name":"A1","midi":33,"time":531.250212500001,"velocity":0.8818897637795275,"duration":0.3385418020833413},{"name":"E2","midi":40,"time":531.250212500001,"velocity":0.8818897637795275,"duration":0.3385418020833413},{"name":"A2","midi":45,"time":531.250212500001,"velocity":0.8818897637795275,"duration":0.3385418020833413},{"name":"A1","midi":33,"time":531.6073555000011,"velocity":0.8818897637795275,"duration":0.08407741458336204},{"name":"E2","midi":40,"time":531.6073555000011,"velocity":0.8818897637795275,"duration":0.08407741458336204},{"name":"A2","midi":45,"time":531.6073555000011,"velocity":0.8818897637795275,"duration":0.08407741458336204},{"name":"A1","midi":33,"time":531.6966412500011,"velocity":0.8818897637795275,"duration":0.08407741458336204},{"name":"E2","midi":40,"time":531.6966412500011,"velocity":0.8818897637795275,"duration":0.08407741458336204},{"name":"A2","midi":45,"time":531.6966412500011,"velocity":0.8818897637795275,"duration":0.08407741458336204},{"name":"A1","midi":33,"time":531.7859270000012,"velocity":0.8818897637795275,"duration":0.08407741458336204},{"name":"E2","midi":40,"time":531.7859270000012,"velocity":0.8818897637795275,"duration":0.08407741458336204},{"name":"A2","midi":45,"time":531.7859270000012,"velocity":0.8818897637795275,"duration":0.08407741458336204},{"name":"A1","midi":33,"time":531.8752127500012,"velocity":0.8818897637795275,"duration":0.08407741458336204},{"name":"E2","midi":40,"time":531.8752127500012,"velocity":0.8818897637795275,"duration":0.08407741458336204},{"name":"A2","midi":45,"time":531.8752127500012,"velocity":0.8818897637795275,"duration":0.08407741458336204},{"name":"A1","midi":33,"time":531.9644985000012,"velocity":0.8818897637795275,"duration":1.0171135020833617},{"name":"E2","midi":40,"time":531.9644985000012,"velocity":0.8818897637795275,"duration":1.0171135020833617},{"name":"A2","midi":45,"time":531.9644985000012,"velocity":0.8818897637795275,"duration":1.0171135020833617},{"name":"A1","midi":33,"time":533.0359275000013,"velocity":0.8818897637795275,"duration":1.0171135020833617},{"name":"E2","midi":40,"time":533.0359275000013,"velocity":0.8818897637795275,"duration":1.0171135020833617},{"name":"A2","midi":45,"time":533.0359275000013,"velocity":0.8818897637795275,"duration":1.0171135020833617},{"name":"A#1","midi":34,"time":534.1073565000014,"velocity":0.7559055118110236,"duration":0.06398812083330085},{"name":"F2","midi":41,"time":534.1720886687514,"velocity":0.7559055118110236,"duration":0.2760417770833783},{"name":"A#2","midi":46,"time":534.1720886687514,"velocity":0.7559055118110236,"duration":0.2760417770833783},{"name":"D3","midi":50,"time":534.8216425000014,"velocity":0.7559055118110236,"duration":0.16889887708327933},{"name":"F3","midi":53,"time":534.8216425000014,"velocity":0.7559055118110236,"duration":0.16889887708327933},{"name":"A#3","midi":58,"time":534.8216425000014,"velocity":0.7559055118110236,"duration":0.16889887708327933},{"name":"D3","midi":50,"time":535.0002140000014,"velocity":0.7559055118110236,"duration":0.16889887708327933},{"name":"F3","midi":53,"time":535.0002140000014,"velocity":0.7559055118110236,"duration":0.16889887708327933},{"name":"A#3","midi":58,"time":535.0002140000014,"velocity":0.7559055118110236,"duration":0.16889887708327933},{"name":"D3","midi":50,"time":535.1787855000014,"velocity":0.7559055118110236,"duration":0.3385418020833413},{"name":"F3","midi":53,"time":535.1787855000014,"velocity":0.7559055118110236,"duration":0.3385418020833413},{"name":"A#3","midi":58,"time":535.1787855000014,"velocity":0.7559055118110236,"duration":0.3385418020833413},{"name":"D3","midi":50,"time":535.5359285000014,"velocity":0.7559055118110236,"duration":0.3385418020833413},{"name":"F3","midi":53,"time":535.5359285000014,"velocity":0.7559055118110236,"duration":0.3385418020833413},{"name":"A#3","midi":58,"time":535.5359285000014,"velocity":0.7559055118110236,"duration":0.3385418020833413},{"name":"A#1","midi":34,"time":535.8930715000015,"velocity":0.7559055118110236,"duration":0.3385418020833413},{"name":"A#2","midi":46,"time":535.8930715000015,"velocity":0.7559055118110236,"duration":0.3385418020833413},{"name":"F1","midi":29,"time":536.2502145000016,"velocity":0.7559055118110236,"duration":0.356398952083282},{"name":"C2","midi":36,"time":536.2502145000016,"velocity":0.7559055118110236,"duration":0.356398952083282},{"name":"F2","midi":41,"time":536.6073575000015,"velocity":0.7559055118110236,"duration":0.17782745208330653},{"name":"A2","midi":45,"time":536.7859290000015,"velocity":0.7559055118110236,"duration":0.17782745208330653},{"name":"C3","midi":48,"time":536.9645005000015,"velocity":0.7559055118110236,"duration":0.17782745208330653},{"name":"F3","midi":53,"time":537.1430720000014,"velocity":0.7559055118110236,"duration":0.17782745208330653},{"name":"A3","midi":57,"time":537.3216435000014,"velocity":0.7559055118110236,"duration":0.17782745208330653},{"name":"C4","midi":60,"time":537.5002150000014,"velocity":0.7559055118110236,"duration":0.16889887708327933},{"name":"F3","midi":53,"time":538.0359295000013,"velocity":0.7559055118110236,"duration":0.17782745208330653},{"name":"C3","midi":48,"time":538.2145010000013,"velocity":0.7559055118110236,"duration":0.17782745208330653},{"name":"A2","midi":45,"time":538.3930725000013,"velocity":0.7559055118110236,"duration":0.356398952083282},{"name":"F2","midi":41,"time":538.7502155000012,"velocity":0.7559055118110236,"duration":0.3385418020833413},{"name":"D2","midi":38,"time":539.1073585000013,"velocity":0.7559055118110236,"duration":0.06398812083330085},{"name":"A2","midi":45,"time":539.1720906687513,"velocity":0.7559055118110236,"duration":0.29092273541664326},{"name":"D3","midi":50,"time":539.4645015000012,"velocity":0.7559055118110236,"duration":0.17782745208330653},{"name":"F3","midi":53,"time":539.6430730000012,"velocity":0.7559055118110236,"duration":0.17782745208330653},{"name":"A3","midi":57,"time":539.8216445000012,"velocity":0.7559055118110236,"duration":0.17782745208330653},{"name":"D4","midi":62,"time":540.0002160000012,"velocity":0.7559055118110236,"duration":0.17782745208330653},{"name":"E4","midi":64,"time":540.1787875000011,"velocity":0.7559055118110236,"duration":0.17782745208330653},{"name":"F4","midi":65,"time":540.3573590000011,"velocity":0.7559055118110236,"duration":0.17782745208330653},{"name":"A4","midi":69,"time":540.5359305000011,"velocity":0.7559055118110236,"duration":0.17782745208330653},{"name":"F4","midi":65,"time":540.7145020000011,"velocity":0.7559055118110236,"duration":0.17782745208330653},{"name":"E4","midi":64,"time":540.893073500001,"velocity":0.7559055118110236,"duration":0.17782745208330653},{"name":"D4","midi":62,"time":541.071645000001,"velocity":0.7559055118110236,"duration":0.17782745208330653},{"name":"A3","midi":57,"time":541.250216500001,"velocity":0.7559055118110236,"duration":0.17782745208330653},{"name":"F3","midi":53,"time":541.428788000001,"velocity":0.7559055118110236,"duration":0.17782745208330653},{"name":"E3","midi":52,"time":541.6073595000009,"velocity":0.7559055118110236,"duration":0.17782745208330653},{"name":"A2","midi":45,"time":541.7859310000009,"velocity":0.7559055118110236,"duration":0.17782745208330653},{"name":"A1","midi":33,"time":541.9645025000009,"velocity":0.7559055118110236,"duration":0.17782745208330653},{"name":"E2","midi":40,"time":542.1430740000009,"velocity":0.7559055118110236,"duration":0.17782745208330653},{"name":"A2","midi":45,"time":542.3216455000008,"velocity":0.7559055118110236,"duration":0.17782745208330653},{"name":"D3","midi":50,"time":542.5002170000008,"velocity":0.7559055118110236,"duration":0.17782745208330653},{"name":"E3","midi":52,"time":542.6787885000008,"velocity":0.7559055118110236,"duration":0.17782745208330653},{"name":"A3","midi":57,"time":542.8573600000008,"velocity":0.7559055118110236,"duration":0.17782745208330653},{"name":"E3","midi":52,"time":543.0359315000007,"velocity":0.7559055118110236,"duration":0.17782745208330653},{"name":"D3","midi":50,"time":543.2145030000007,"velocity":0.7559055118110236,"duration":0.16889887708327933},{"name":"A1","midi":33,"time":543.3930745000007,"velocity":0.7559055118110236,"duration":0.356398952083282},{"name":"E2","midi":40,"time":543.7502175000006,"velocity":0.7559055118110236,"duration":0.17782745208330653},{"name":"A2","midi":45,"time":543.9287890000006,"velocity":0.7559055118110236,"duration":0.17782745208330653},{"name":"A2","midi":45,"time":544.1073605000006,"velocity":0.7559055118110236,"duration":0.17782745208330653},{"name":"E2","midi":40,"time":544.2859320000006,"velocity":0.7559055118110236,"duration":0.17782745208330653},{"name":"A2","midi":45,"time":544.4645035000005,"velocity":0.7559055118110236,"duration":0.3385418020833413},{"name":"A#1","midi":34,"time":544.8216465000006,"velocity":0.7559055118110236,"duration":1.0171135020833617},{"name":"F2","midi":41,"time":544.8216465000006,"velocity":0.7559055118110236,"duration":1.0171135020833617},{"name":"A#2","midi":46,"time":544.8216465000006,"velocity":0.7559055118110236,"duration":1.0171135020833617},{"name":"D3","midi":50,"time":545.8930755000007,"velocity":0.7559055118110236,"duration":1.017113502083248},{"name":"F3","midi":53,"time":546.2502185000006,"velocity":0.7559055118110236,"duration":0.6778276520833515},{"name":"A#3","midi":58,"time":546.2502185000006,"velocity":0.7559055118110236,"duration":0.6778276520833515},{"name":"A#1","midi":34,"time":546.9645045000007,"velocity":0.7559055118110236,"duration":0.6778276520833515},{"name":"F2","midi":41,"time":546.9645045000007,"velocity":0.7559055118110236,"duration":0.6778276520833515},{"name":"A#2","midi":46,"time":546.9645045000007,"velocity":0.7559055118110236,"duration":0.6778276520833515},{"name":"D2","midi":38,"time":547.6787905000007,"velocity":0.7559055118110236,"duration":0.356398952083282},{"name":"A2","midi":45,"time":547.6787905000007,"velocity":0.7559055118110236,"duration":0.356398952083282},{"name":"D3","midi":50,"time":548.0359335000006,"velocity":0.7559055118110236,"duration":0.17782745208330653},{"name":"F3","midi":53,"time":548.2145050000006,"velocity":0.7559055118110236,"duration":0.17782745208330653},{"name":"A3","midi":57,"time":548.3930765000006,"velocity":0.7559055118110236,"duration":1.0706849520832975},{"name":"A3","midi":57,"time":549.4645055000005,"velocity":0.7559055118110236,"duration":0.17782745208330653},{"name":"F3","midi":53,"time":549.6430770000005,"velocity":0.7559055118110236,"duration":0.17782745208330653},{"name":"E3","midi":52,"time":549.8216485000005,"velocity":0.7559055118110236,"duration":0.3385418020833413},{"name":"E2","midi":40,"time":550.3573630000005,"velocity":0.7559055118110236,"duration":0.17782745208330653},{"name":"A1","midi":33,"time":550.5359345000005,"velocity":0.7559055118110236,"duration":0.356398952083282},{"name":"E2","midi":40,"time":550.8930775000005,"velocity":0.7559055118110236,"duration":0.7135419520833466},{"name":"A2","midi":45,"time":551.6073635000005,"velocity":0.7559055118110236,"duration":1.0171135020833617},{"name":"D1","midi":26,"time":553.3930785000005,"velocity":0.7559055118110236,"duration":0.7135419520833466},{"name":"A1","midi":33,"time":553.4399535187505,"velocity":0.7559055118110236,"duration":0.6659228854166486},{"name":"D2","midi":38,"time":553.4875725854172,"velocity":0.7559055118110236,"duration":0.6183038187499506},{"name":"A1","midi":33,"time":554.1073645000005,"velocity":0.7559055118110236,"duration":0.6778276520833515},{"name":"A2","midi":45,"time":554.1073645000005,"velocity":0.7559055118110236,"duration":0.6778276520833515},{"name":"D2","midi":38,"time":554.8216505000005,"velocity":0.7559055118110236,"duration":1.6956852020833821},{"name":"A2","midi":45,"time":554.8216505000005,"velocity":0.7559055118110236,"duration":1.6956852020833821},{"name":"D3","midi":50,"time":554.8216505000005,"velocity":0.7559055118110236,"duration":1.6956852020833821},{"name":"D2","midi":38,"time":556.6073655000006,"velocity":0.3858267716535433,"duration":0.5081847270832895},{"name":"D3","midi":50,"time":556.6073655000006,"velocity":0.3858267716535433,"duration":0.5081847270832895},{"name":"F3","midi":53,"time":557.1430800000005,"velocity":0.3858267716535433,"duration":0.5081847270832895},{"name":"E3","midi":52,"time":557.6787945000004,"velocity":0.3858267716535433,"duration":0.16889887708327933},{"name":"F3","midi":53,"time":557.8573660000004,"velocity":0.3858267716535433,"duration":0.16889887708327933},{"name":"E3","midi":52,"time":558.0359375000004,"velocity":0.3858267716535433,"duration":0.6778276520833515},{"name":"D3","midi":50,"time":558.7502235000004,"velocity":0.3858267716535433,"duration":1.0171135020833617},{"name":"F3","midi":53,"time":559.2859380000004,"velocity":0.3858267716535433,"duration":0.5081847270832895},{"name":"E3","midi":52,"time":559.8216525000004,"velocity":0.3858267716535433,"duration":0.16889887708327933},{"name":"F3","midi":53,"time":560.0002240000003,"velocity":0.3858267716535433,"duration":0.16889887708327933},{"name":"E3","midi":52,"time":560.1787955000003,"velocity":0.3858267716535433,"duration":0.16889887708327933},{"name":"D3","midi":50,"time":560.3573670000003,"velocity":0.3858267716535433,"duration":0.5081847270832895},{"name":"D3","midi":50,"time":560.8930815000002,"velocity":0.3858267716535433,"duration":0.5081847270832895},{"name":"A#2","midi":46,"time":560.8930815000002,"velocity":0.3858267716535433,"duration":2.034971052083165},{"name":"F3","midi":53,"time":561.4287960000001,"velocity":0.3858267716535433,"duration":0.5081847270832895},{"name":"E3","midi":52,"time":561.9645105000001,"velocity":0.3858267716535433,"duration":0.16889887708327933},{"name":"F3","midi":53,"time":562.143082,"velocity":0.3858267716535433,"duration":0.16889887708327933},{"name":"E3","midi":52,"time":562.3216535,"velocity":0.3858267716535433,"duration":0.16889887708327933},{"name":"D3","midi":50,"time":562.500225,"velocity":0.3858267716535433,"duration":0.5081847270834032},{"name":"D3","midi":50,"time":563.0359395,"velocity":0.3858267716535433,"duration":0.5081847270832895},{"name":"A#2","midi":46,"time":563.0359395,"velocity":0.3858267716535433,"duration":2.034971052083165},{"name":"F3","midi":53,"time":563.571654,"velocity":0.3858267716535433,"duration":0.5081847270832895},{"name":"E3","midi":52,"time":564.1073684999999,"velocity":0.3858267716535433,"duration":0.16889887708327933},{"name":"F3","midi":53,"time":564.2859399999999,"velocity":0.3858267716535433,"duration":0.16889887708327933},{"name":"E3","midi":52,"time":564.4645114999998,"velocity":0.3858267716535433,"duration":0.16889887708327933},{"name":"D3","midi":50,"time":564.6430829999998,"velocity":0.3858267716535433,"duration":0.5081847270834032},{"name":"F3","midi":53,"time":565.1787974999999,"velocity":0.3858267716535433,"duration":0.5081847270832895},{"name":"C3","midi":48,"time":565.1787974999999,"velocity":0.3858267716535433,"duration":2.034971052083165},{"name":"F3","midi":53,"time":565.7145119999998,"velocity":0.3858267716535433,"duration":0.5081847270832895},{"name":"E3","midi":52,"time":566.2502264999997,"velocity":0.3858267716535433,"duration":0.16889887708327933},{"name":"F3","midi":53,"time":566.4287979999997,"velocity":0.3858267716535433,"duration":0.16889887708327933},{"name":"E3","midi":52,"time":566.6073694999997,"velocity":0.3858267716535433,"duration":0.16889887708327933},{"name":"D3","midi":50,"time":566.7859409999996,"velocity":0.3858267716535433,"duration":0.5081847270834032},{"name":"F3","midi":53,"time":567.3216554999997,"velocity":0.3858267716535433,"duration":0.5081847270832895},{"name":"D3","midi":50,"time":567.3216554999997,"velocity":0.3858267716535433,"duration":1.017113502083248},{"name":"F3","midi":53,"time":567.8573699999996,"velocity":0.3858267716535433,"duration":0.5081847270832895},{"name":"E3","midi":52,"time":568.3930844999995,"velocity":0.3858267716535433,"duration":0.16889887708327933},{"name":"F3","midi":53,"time":568.5716559999995,"velocity":0.3858267716535433,"duration":0.16889887708327933},{"name":"E3","midi":52,"time":568.7502274999995,"velocity":0.3858267716535433,"duration":0.16889887708327933},{"name":"D3","midi":50,"time":568.9287989999995,"velocity":0.3858267716535433,"duration":0.5081847270832895},{"name":"E3","midi":52,"time":569.4645134999994,"velocity":0.3858267716535433,"duration":1.0171135020833617},{"name":"C3","midi":48,"time":569.4645134999994,"velocity":0.3858267716535433,"duration":2.0349710520833924},{"name":"E3","midi":52,"time":570.5359424999995,"velocity":0.3858267716535433,"duration":0.5081847270832895},{"name":"E3","midi":52,"time":571.0716569999994,"velocity":0.3858267716535433,"duration":0.2537203395833103},{"name":"D3","midi":50,"time":571.3395142499994,"velocity":0.3858267716535433,"duration":0.2537203395833103},{"name":"A2","midi":45,"time":571.6073714999994,"velocity":0.3858267716535433,"duration":0.5081847270832895},{"name":"E3","midi":52,"time":571.6073714999994,"velocity":0.3858267716535433,"duration":0.5081847270832895},{"name":"A2","midi":45,"time":572.1430859999994,"velocity":0.3858267716535433,"duration":0.5081847270832895},{"name":"E3","midi":52,"time":572.1430859999994,"velocity":0.3858267716535433,"duration":0.5081847270832895},{"name":"A2","midi":45,"time":572.6788004999993,"velocity":0.3858267716535433,"duration":0.17782745208330653},{"name":"E3","midi":52,"time":572.6788004999993,"velocity":0.3858267716535433,"duration":0.17782745208330653},{"name":"E3","midi":52,"time":572.8573719999993,"velocity":0.3858267716535433,"duration":0.17782745208330653},{"name":"A3","midi":57,"time":573.0359434999992,"velocity":0.3858267716535433,"duration":0.17782745208330653},{"name":"E4","midi":64,"time":573.2145149999992,"velocity":0.3858267716535433,"duration":0.16889887708327933},{"name":"D2","midi":38,"time":573.3930864999992,"velocity":0.3858267716535433,"duration":0.3385418020833413},{"name":"F3","midi":53,"time":573.7502294999993,"velocity":0.3858267716535433,"duration":0.3385418020833413},{"name":"E3","midi":52,"time":574.1073724999993,"velocity":0.3858267716535433,"duration":0.1123512354166678},{"name":"F3","midi":53,"time":574.226420166666,"velocity":0.3858267716535433,"duration":0.1123512354166678},{"name":"E3","midi":52,"time":574.3454678333327,"velocity":0.3858267716535433,"duration":0.1123512354166678},{"name":"D3","midi":50,"time":574.4645154999994,"velocity":0.3858267716535433,"duration":0.3385418020833413},{"name":"F3","midi":53,"time":574.8216584999994,"velocity":0.3858267716535433,"duration":0.3385418020833413},{"name":"F3","midi":53,"time":575.1788014999995,"velocity":0.5039370078740157,"duration":0.3385418020833413},{"name":"E3","midi":52,"time":575.5359444999996,"velocity":0.5039370078740157,"duration":0.3385418020833413},{"name":"F3","midi":53,"time":575.5359444999996,"velocity":0.5039370078740157,"duration":0.3385418020833413},{"name":"D3","midi":50,"time":575.8930874999996,"velocity":0.5039370078740157,"duration":0.3385418020833413},{"name":"A#2","midi":46,"time":576.2502304999997,"velocity":0.5039370078740157,"duration":0.35639895208339567},{"name":"F3","midi":53,"time":576.2971055187497,"velocity":0.5039370078740157,"duration":0.30877988541669765},{"name":"F3","midi":53,"time":576.6073734999998,"velocity":0.5039370078740157,"duration":0.3385418020833413},{"name":"E3","midi":52,"time":576.9645164999998,"velocity":0.5039370078740157,"duration":0.1123512354166678},{"name":"F3","midi":53,"time":577.0835641666665,"velocity":0.5039370078740157,"duration":0.1123512354166678},{"name":"E3","midi":52,"time":577.2026118333332,"velocity":0.5039370078740157,"duration":0.1123512354166678},{"name":"D3","midi":50,"time":577.3216594999999,"velocity":0.5039370078740157,"duration":1.0171135020833617},{"name":"F3","midi":53,"time":577.6788024999998,"velocity":0.5039370078740157,"duration":0.3385418020833413},{"name":"F3","midi":53,"time":578.0359454999999,"velocity":0.5039370078740157,"duration":0.3385418020833413},{"name":"E3","midi":52,"time":578.3930885,"velocity":0.5039370078740157,"duration":0.3385418020833413},{"name":"D3","midi":50,"time":578.7502315,"velocity":0.5039370078740157,"duration":1.3563993520834856},{"name":"F3","midi":53,"time":579.1073745,"velocity":0.5039370078740157,"duration":0.3385418020833413},{"name":"F3","midi":53,"time":579.4645175,"velocity":0.5039370078740157,"duration":0.3385418020833413},{"name":"E3","midi":52,"time":579.8216605000001,"velocity":0.5039370078740157,"duration":0.1123512354166678},{"name":"F3","midi":53,"time":579.9407081666668,"velocity":0.5039370078740157,"duration":0.1123512354166678},{"name":"E3","midi":52,"time":580.0597558333335,"velocity":0.5039370078740157,"duration":0.1123512354166678},{"name":"D3","midi":50,"time":580.1788035000002,"velocity":0.5039370078740157,"duration":1.0171135020833617},{"name":"F3","midi":53,"time":580.5359465000001,"velocity":0.5039370078740157,"duration":0.3385418020833413},{"name":"F3","midi":53,"time":580.8930895000002,"velocity":0.5039370078740157,"duration":0.3385418020833413},{"name":"E3","midi":52,"time":581.2502325000003,"velocity":0.5039370078740157,"duration":0.3385418020833413},{"name":"D3","midi":50,"time":581.6073755000003,"velocity":0.5039370078740157,"duration":0.3385418020833413},{"name":"C3","midi":48,"time":581.9645185000004,"velocity":0.5039370078740157,"duration":0.7135419520833466},{"name":"E3","midi":52,"time":582.0113935187504,"velocity":0.5039370078740157,"duration":0.6659228854166486},{"name":"G3","midi":55,"time":582.0590125854171,"velocity":0.5039370078740157,"duration":0.6183038187499506},{"name":"E3","midi":52,"time":582.6788045000004,"velocity":0.5039370078740157,"duration":0.1123512354166678},{"name":"F3","midi":53,"time":582.7978521666671,"velocity":0.5039370078740157,"duration":0.1123512354166678},{"name":"E3","midi":52,"time":582.9168998333338,"velocity":0.5039370078740157,"duration":0.1123512354166678},{"name":"C3","midi":48,"time":583.0359475000005,"velocity":0.5039370078740157,"duration":0.3385418020833413},{"name":"E3","midi":52,"time":583.3930905000005,"velocity":0.5039370078740157,"duration":0.6778276520833515},{"name":"A2","midi":45,"time":583.3930905000005,"velocity":0.5039370078740157,"duration":1.356399352083372},{"name":"E3","midi":52,"time":584.1073765000006,"velocity":0.5039370078740157,"duration":0.6778276520833515},{"name":"D2","midi":38,"time":584.8216625000006,"velocity":0.5039370078740157,"duration":0.356398952083282},{"name":"A2","midi":45,"time":584.8216625000006,"velocity":0.5039370078740157,"duration":0.356398952083282},{"name":"D3","midi":50,"time":585.1788055000005,"velocity":0.5039370078740157,"duration":0.11830361875001927},{"name":"F3","midi":53,"time":585.2978531666672,"velocity":0.5039370078740157,"duration":0.11830361875001927},{"name":"A3","midi":57,"time":585.4169008333339,"velocity":0.5039370078740157,"duration":0.11830361875001927},{"name":"D4","midi":62,"time":585.5359485000006,"velocity":0.5039370078740157,"duration":0.11830361875001927},{"name":"E4","midi":64,"time":585.6549961666673,"velocity":0.5039370078740157,"duration":0.11830361875001927},{"name":"A4","midi":69,"time":585.774043833334,"velocity":0.5039370078740157,"duration":0.11830361875001927},{"name":"C5","midi":72,"time":585.8930915000007,"velocity":0.5039370078740157,"duration":0.17782745208330653},{"name":"D4","midi":62,"time":586.2502345000006,"velocity":0.5039370078740157,"duration":0.17782745208330653},{"name":"C4","midi":60,"time":586.4288060000006,"velocity":0.5039370078740157,"duration":0.17782745208330653},{"name":"A3","midi":57,"time":586.6073775000006,"velocity":0.8818897637795275,"duration":0.17782745208330653},{"name":"F3","midi":53,"time":586.7859490000005,"velocity":0.8818897637795275,"duration":0.17782745208330653},{"name":"E3","midi":52,"time":586.9645205000005,"velocity":0.8818897637795275,"duration":0.17782745208330653},{"name":"D3","midi":50,"time":587.1430920000005,"velocity":0.8818897637795275,"duration":0.17782745208330653},{"name":"A2","midi":45,"time":587.3216635000005,"velocity":0.8818897637795275,"duration":0.17782745208330653},{"name":"D2","midi":38,"time":587.5002350000004,"velocity":0.8818897637795275,"duration":0.16889887708327933},{"name":"A#1","midi":34,"time":587.6788065000004,"velocity":0.8818897637795275,"duration":0.35639895208339567},{"name":"F2","midi":41,"time":587.7256815187504,"velocity":0.8818897637795275,"duration":0.30877988541669765},{"name":"A#2","midi":46,"time":587.7733005854171,"velocity":0.8818897637795275,"duration":0.26116081874999963},{"name":"D3","midi":50,"time":588.0359495000005,"velocity":0.8818897637795275,"duration":0.6778276520833515},{"name":"F3","midi":53,"time":588.0359495000005,"velocity":0.8818897637795275,"duration":0.6778276520833515},{"name":"A#3","midi":58,"time":588.0359495000005,"velocity":0.8818897637795275,"duration":0.6778276520833515},{"name":"D4","midi":62,"time":588.7502355000005,"velocity":0.8818897637795275,"duration":0.1123512354166678},{"name":"A#3","midi":58,"time":588.8692831666672,"velocity":0.8818897637795275,"duration":0.1123512354166678},{"name":"F3","midi":53,"time":588.9883308333339,"velocity":0.8818897637795275,"duration":0.1123512354166678},{"name":"D3","midi":50,"time":589.1073785000006,"velocity":0.8818897637795275,"duration":0.1123512354166678},{"name":"A#2","midi":46,"time":589.2264261666672,"velocity":0.8818897637795275,"duration":0.1123512354166678},{"name":"F2","midi":41,"time":589.3454738333339,"velocity":0.8818897637795275,"duration":0.1123512354166678},{"name":"A#1","midi":34,"time":589.4645215000006,"velocity":0.8818897637795275,"duration":0.3385418020833413},{"name":"A#1","midi":34,"time":589.8216645000007,"velocity":0.8818897637795275,"duration":0.3385418020833413},{"name":"F2","midi":41,"time":589.8216645000007,"velocity":0.8818897637795275,"duration":0.3385418020833413},{"name":"A#2","midi":46,"time":589.8216645000007,"velocity":0.8818897637795275,"duration":0.3385418020833413},{"name":"A#1","midi":34,"time":590.1788075000007,"velocity":0.8818897637795275,"duration":0.3385418020833413},{"name":"F2","midi":41,"time":590.1788075000007,"velocity":0.8818897637795275,"duration":0.3385418020833413},{"name":"A#2","midi":46,"time":590.1788075000007,"velocity":0.8818897637795275,"duration":0.3385418020833413},{"name":"D2","midi":38,"time":590.5359505000008,"velocity":0.8818897637795275,"duration":0.17782745208330653},{"name":"A2","midi":45,"time":590.5359505000008,"velocity":0.8818897637795275,"duration":0.17782745208330653},{"name":"D3","midi":50,"time":590.7145220000008,"velocity":0.8818897637795275,"duration":0.17782745208330653},{"name":"E3","midi":52,"time":590.8930935000008,"velocity":0.8818897637795275,"duration":0.17782745208330653},{"name":"F3","midi":53,"time":591.0716650000007,"velocity":0.8818897637795275,"duration":0.16889887708327933},{"name":"D3","midi":50,"time":591.2502365000007,"velocity":0.8818897637795275,"duration":0.16889887708327933},{"name":"E3","midi":52,"time":591.2502365000007,"velocity":0.8818897637795275,"duration":0.16889887708327933},{"name":"F3","midi":53,"time":591.2502365000007,"velocity":0.8818897637795275,"duration":0.16889887708327933},{"name":"A3","midi":57,"time":591.2502365000007,"velocity":0.8818897637795275,"duration":0.16889887708327933},{"name":"D3","midi":50,"time":591.4288080000007,"velocity":0.8818897637795275,"duration":0.16889887708327933},{"name":"E3","midi":52,"time":591.4288080000007,"velocity":0.8818897637795275,"duration":0.16889887708327933},{"name":"F3","midi":53,"time":591.4288080000007,"velocity":0.8818897637795275,"duration":0.16889887708327933},{"name":"A3","midi":57,"time":591.4288080000007,"velocity":0.8818897637795275,"duration":0.16889887708327933},{"name":"D3","midi":50,"time":591.6073795000007,"velocity":0.8818897637795275,"duration":0.3385418020833413},{"name":"E3","midi":52,"time":591.6073795000007,"velocity":0.8818897637795275,"duration":0.3385418020833413},{"name":"F3","midi":53,"time":591.6073795000007,"velocity":0.8818897637795275,"duration":0.3385418020833413},{"name":"A3","midi":57,"time":591.6073795000007,"velocity":0.8818897637795275,"duration":0.3385418020833413},{"name":"D2","midi":38,"time":591.9645225000007,"velocity":0.8818897637795275,"duration":0.3385418020833413},{"name":"A2","midi":45,"time":591.9645225000007,"velocity":0.8818897637795275,"duration":0.3385418020833413},{"name":"D3","midi":50,"time":591.9645225000007,"velocity":0.8818897637795275,"duration":0.3385418020833413},{"name":"D2","midi":38,"time":592.3216655000008,"velocity":0.8818897637795275,"duration":0.16889887708327933},{"name":"A2","midi":45,"time":592.3216655000008,"velocity":0.8818897637795275,"duration":0.16889887708327933},{"name":"D3","midi":50,"time":592.3216655000008,"velocity":0.8818897637795275,"duration":0.16889887708327933},{"name":"D2","midi":38,"time":592.5002370000008,"velocity":0.8818897637795275,"duration":0.16889887708327933},{"name":"A2","midi":45,"time":592.5002370000008,"velocity":0.8818897637795275,"duration":0.16889887708327933},{"name":"D3","midi":50,"time":592.5002370000008,"velocity":0.8818897637795275,"duration":0.16889887708327933},{"name":"D2","midi":38,"time":592.6788085000007,"velocity":0.8818897637795275,"duration":0.3385418020833413},{"name":"A2","midi":45,"time":592.6788085000007,"velocity":0.8818897637795275,"duration":0.3385418020833413},{"name":"D3","midi":50,"time":592.6788085000007,"velocity":0.8818897637795275,"duration":0.3385418020833413},{"name":"A1","midi":33,"time":593.0359515000008,"velocity":0.8818897637795275,"duration":0.3385418020833413},{"name":"F2","midi":41,"time":593.0359515000008,"velocity":0.8818897637795275,"duration":0.3385418020833413},{"name":"A2","midi":45,"time":593.0359515000008,"velocity":0.8818897637795275,"duration":0.3385418020833413},{"name":"A#0","midi":22,"time":593.3930945000009,"velocity":0.8818897637795275,"duration":0.6778276520833515},{"name":"F1","midi":29,"time":593.3930945000009,"velocity":0.8818897637795275,"duration":0.6778276520833515},{"name":"A#1","midi":34,"time":593.3930945000009,"velocity":0.8818897637795275,"duration":0.6778276520833515},{"name":"A#3","midi":58,"time":594.2264281666676,"velocity":0.8818897637795275,"duration":0.11830361875001927},{"name":"F3","midi":53,"time":594.3454758333343,"velocity":0.8818897637795275,"duration":0.11830361875001927},{"name":"D3","midi":50,"time":594.464523500001,"velocity":0.8818897637795275,"duration":0.11830361875001927},{"name":"C3","midi":48,"time":594.5835711666676,"velocity":0.8818897637795275,"duration":0.11830361875001927},{"name":"A#2","midi":46,"time":594.7026188333343,"velocity":0.8818897637795275,"duration":0.11830361875001927},{"name":"A#1","midi":34,"time":594.821666500001,"velocity":0.8818897637795275,"duration":0.11830361875001927},{"name":"A#2","midi":46,"time":594.9407141666677,"velocity":0.8818897637795275,"duration":0.11830361875001927},{"name":"A#1","midi":34,"time":595.0597618333344,"velocity":0.8818897637795275,"duration":0.11830361875001927},{"name":"A#2","midi":46,"time":595.1788095000011,"velocity":0.8818897637795275,"duration":0.11830361875001927},{"name":"F2","midi":41,"time":595.2978571666678,"velocity":0.8818897637795275,"duration":0.11830361875001927},{"name":"D2","midi":38,"time":595.4169048333345,"velocity":0.8818897637795275,"duration":0.11830361875001927},{"name":"A#1","midi":34,"time":595.5359525000011,"velocity":0.8818897637795275,"duration":0.11830361875001927},{"name":"A#0","midi":22,"time":595.6550001666678,"velocity":0.8818897637795275,"duration":0.11830361875001927},{"name":"A#1","midi":34,"time":595.7740478333345,"velocity":0.8818897637795275,"duration":0.11830361875001927},{"name":"A#0","midi":22,"time":595.8930955000012,"velocity":0.8818897637795275,"duration":0.11830361875001927},{"name":"A#1","midi":34,"time":596.0121431666679,"velocity":0.8818897637795275,"duration":0.11830361875001927},{"name":"A#0","midi":22,"time":596.1311908333346,"velocity":0.8818897637795275,"duration":0.1123512354166678},{"name":"F1","midi":29,"time":596.2502385000013,"velocity":0.8818897637795275,"duration":0.356398952083282},{"name":"F2","midi":41,"time":596.6073815000012,"velocity":0.8818897637795275,"duration":0.11830361875001927},{"name":"A2","midi":45,"time":596.7264291666679,"velocity":0.8818897637795275,"duration":0.11830361875001927},{"name":"C3","midi":48,"time":596.8454768333346,"velocity":0.8818897637795275,"duration":0.11830361875001927},{"name":"F3","midi":53,"time":596.9645245000013,"velocity":0.8818897637795275,"duration":0.11830361875001927},{"name":"A3","midi":57,"time":597.083572166668,"velocity":0.8818897637795275,"duration":0.11830361875001927},{"name":"C4","midi":60,"time":597.2026198333347,"velocity":0.8818897637795275,"duration":0.11830361875001927},{"name":"E4","midi":64,"time":597.3216675000014,"velocity":0.8818897637795275,"duration":0.11830361875001927},{"name":"C4","midi":60,"time":597.440715166668,"velocity":0.8818897637795275,"duration":0.11830361875001927},{"name":"E4","midi":64,"time":597.5597628333347,"velocity":0.8818897637795275,"duration":0.11830361875001927},{"name":"C4","midi":60,"time":597.6788105000014,"velocity":0.8818897637795275,"duration":0.11830361875001927},{"name":"G4","midi":67,"time":597.7978581666681,"velocity":0.8818897637795275,"duration":0.11830361875001927},{"name":"F4","midi":65,"time":597.9169058333348,"velocity":0.8818897637795275,"duration":0.11830361875001927},{"name":"C4","midi":60,"time":598.0359535000015,"velocity":0.8818897637795275,"duration":0.11830361875001927},{"name":"A3","midi":57,"time":598.1550011666682,"velocity":0.8818897637795275,"duration":0.11830361875001927},{"name":"G3","midi":55,"time":598.2740488333349,"velocity":0.8818897637795275,"duration":0.11830361875001927},{"name":"F3","midi":53,"time":598.3930965000015,"velocity":0.8818897637795275,"duration":0.11830361875001927},{"name":"C3","midi":48,"time":598.5121441666682,"velocity":0.8818897637795275,"duration":0.11830361875001927},{"name":"F2","midi":41,"time":598.6311918333349,"velocity":0.8818897637795275,"duration":0.11830361875001927},{"name":"C3","midi":48,"time":598.7502395000016,"velocity":0.8818897637795275,"duration":0.11830361875001927},{"name":"F3","midi":53,"time":598.8692871666683,"velocity":0.8818897637795275,"duration":0.11830361875001927},{"name":"F2","midi":41,"time":598.988334833335,"velocity":0.8818897637795275,"duration":0.1123512354166678},{"name":"C2","midi":36,"time":599.1073825000017,"velocity":0.8818897637795275,"duration":0.11830361875001927},{"name":"G2","midi":43,"time":599.2264301666684,"velocity":0.8818897637795275,"duration":0.11830361875001927},{"name":"C3","midi":48,"time":599.345477833335,"velocity":0.8818897637795275,"duration":0.11830361875001927},{"name":"E3","midi":52,"time":599.4645255000017,"velocity":0.8818897637795275,"duration":0.11830361875001927},{"name":"G3","midi":55,"time":599.5835731666684,"velocity":0.8818897637795275,"duration":0.11830361875001927},{"name":"C4","midi":60,"time":599.7026208333351,"velocity":0.8818897637795275,"duration":0.11830361875001927},{"name":"D4","midi":62,"time":599.8216685000018,"velocity":0.8818897637795275,"duration":0.11830361875001927},{"name":"E4","midi":64,"time":599.9407161666685,"velocity":0.8818897637795275,"duration":0.11830361875001927},{"name":"D4","midi":62,"time":600.0597638333352,"velocity":0.8818897637795275,"duration":0.11830361875001927},{"name":"C4","midi":60,"time":600.1788115000019,"velocity":0.8818897637795275,"duration":0.11830361875001927},{"name":"G3","midi":55,"time":600.2978591666686,"velocity":0.8818897637795275,"duration":0.11830361875001927},{"name":"C3","midi":48,"time":600.4169068333352,"velocity":0.8818897637795275,"duration":0.1123512354166678},{"name":"A1","midi":33,"time":600.5359545000019,"velocity":0.8818897637795275,"duration":0.3385418020833413},{"name":"E2","midi":40,"time":600.5359545000019,"velocity":0.8818897637795275,"duration":0.3385418020833413},{"name":"A2","midi":45,"time":600.5359545000019,"velocity":0.8818897637795275,"duration":0.3385418020833413},{"name":"A1","midi":33,"time":600.893097500002,"velocity":0.8818897637795275,"duration":0.1123512354166678},{"name":"E2","midi":40,"time":600.893097500002,"velocity":0.8818897637795275,"duration":0.1123512354166678},{"name":"A2","midi":45,"time":600.893097500002,"velocity":0.8818897637795275,"duration":0.1123512354166678},{"name":"A1","midi":33,"time":601.0121451666687,"velocity":0.8818897637795275,"duration":0.1123512354166678},{"name":"E2","midi":40,"time":601.0121451666687,"velocity":0.8818897637795275,"duration":0.1123512354166678},{"name":"A2","midi":45,"time":601.0121451666687,"velocity":0.8818897637795275,"duration":0.1123512354166678},{"name":"A1","midi":33,"time":601.1311928333354,"velocity":0.8818897637795275,"duration":0.1123512354166678},{"name":"E2","midi":40,"time":601.1311928333354,"velocity":0.8818897637795275,"duration":0.1123512354166678},{"name":"A2","midi":45,"time":601.1311928333354,"velocity":0.8818897637795275,"duration":0.1123512354166678},{"name":"A1","midi":33,"time":601.2502405000021,"velocity":0.8818897637795275,"duration":0.3385418020833413},{"name":"E2","midi":40,"time":601.2502405000021,"velocity":0.8818897637795275,"duration":0.3385418020833413},{"name":"A2","midi":45,"time":601.2502405000021,"velocity":0.8818897637795275,"duration":0.3385418020833413},{"name":"A1","midi":33,"time":601.6073835000021,"velocity":0.8818897637795275,"duration":0.3385418020833413},{"name":"E2","midi":40,"time":601.6073835000021,"velocity":0.8818897637795275,"duration":0.3385418020833413},{"name":"A2","midi":45,"time":601.6073835000021,"velocity":0.8818897637795275,"duration":0.3385418020833413},{"name":"D1","midi":26,"time":601.9645265000022,"velocity":0.8818897637795275,"duration":0.3385418020833413},{"name":"A1","midi":33,"time":601.9645265000022,"velocity":0.8818897637795275,"duration":0.3385418020833413},{"name":"D2","midi":38,"time":602.3216695000023,"velocity":0.8818897637795275,"duration":0.11830361875001927},{"name":"A2","midi":45,"time":602.440717166669,"velocity":0.8818897637795275,"duration":0.11830361875001927},{"name":"D3","midi":50,"time":602.5597648333356,"velocity":0.8818897637795275,"duration":0.11830361875001927},{"name":"E3","midi":52,"time":602.6788125000023,"velocity":0.8818897637795275,"duration":0.11830361875001927},{"name":"F3","midi":53,"time":602.797860166669,"velocity":0.8818897637795275,"duration":0.11830361875001927},{"name":"A3","midi":57,"time":602.9169078333357,"velocity":0.8818897637795275,"duration":0.11830361875001927},{"name":"F3","midi":53,"time":603.0359555000024,"velocity":0.8818897637795275,"duration":0.11830361875001927},{"name":"E3","midi":52,"time":603.1550031666691,"velocity":0.8818897637795275,"duration":0.11830361875001927},{"name":"D3","midi":50,"time":603.2740508333358,"velocity":0.8818897637795275,"duration":0.1123512354166678},{"name":"D2","midi":38,"time":603.3930985000025,"velocity":0.8818897637795275,"duration":0.11830361875001927},{"name":"A2","midi":45,"time":603.5121461666691,"velocity":0.8818897637795275,"duration":0.11830361875001927},{"name":"D3","midi":50,"time":603.6311938333358,"velocity":0.8818897637795275,"duration":0.11830361875001927},{"name":"E3","midi":52,"time":603.7502415000025,"velocity":0.8818897637795275,"duration":0.11830361875001927},{"name":"F3","midi":53,"time":603.8692891666692,"velocity":0.8818897637795275,"duration":0.11830361875001927},{"name":"A3","midi":57,"time":603.9883368333359,"velocity":0.8818897637795275,"duration":0.11830361875001927},{"name":"F3","midi":53,"time":604.1073845000026,"velocity":0.8818897637795275,"duration":0.11830361875001927},{"name":"E3","midi":52,"time":604.2264321666693,"velocity":0.8818897637795275,"duration":0.11830361875001927},{"name":"D3","midi":50,"time":604.345479833336,"velocity":0.8818897637795275,"duration":0.11830361875001927},{"name":"D2","midi":38,"time":604.4645275000026,"velocity":0.8818897637795275,"duration":0.17782745208330653},{"name":"C2","midi":36,"time":604.6430990000026,"velocity":0.8818897637795275,"duration":0.16889887708327933},{"name":"C3","midi":48,"time":604.6430990000026,"velocity":0.8818897637795275,"duration":0.16889887708327933},{"name":"A#1","midi":34,"time":604.8216705000026,"velocity":0.8818897637795275,"duration":0.11830361875001927},{"name":"F2","midi":41,"time":604.9407181666693,"velocity":0.8818897637795275,"duration":0.11830361875001927},{"name":"A#2","midi":46,"time":605.059765833336,"velocity":0.8818897637795275,"duration":0.11830361875001927},{"name":"A#2","midi":46,"time":605.1788135000027,"velocity":0.8818897637795275,"duration":0.11830361875001927},{"name":"D3","midi":50,"time":605.2978611666693,"velocity":0.8818897637795275,"duration":0.11830361875001927},{"name":"F3","midi":53,"time":605.416908833336,"velocity":0.8818897637795275,"duration":0.11830361875001927},{"name":"A#3","midi":58,"time":605.5359565000027,"velocity":0.8818897637795275,"duration":0.11830361875001927},{"name":"F3","midi":53,"time":605.6550041666694,"velocity":0.8818897637795275,"duration":0.11830361875001927},{"name":"D3","midi":50,"time":605.7740518333361,"velocity":0.8818897637795275,"duration":0.11830361875001927},{"name":"C3","midi":48,"time":605.8930995000028,"velocity":0.8818897637795275,"duration":0.1123512354166678},{"name":"A#2","midi":46,"time":606.0121471666695,"velocity":0.8818897637795275,"duration":0.11830361875001927},{"name":"F2","midi":41,"time":606.1311948333362,"velocity":0.8818897637795275,"duration":0.11830361875001927},{"name":"A#1","midi":34,"time":606.2502425000029,"velocity":0.8818897637795275,"duration":0.11830361875001927},{"name":"A#2","midi":46,"time":606.3692901666695,"velocity":0.8818897637795275,"duration":0.11830361875001927},{"name":"A#1","midi":34,"time":606.4883378333362,"velocity":0.8818897637795275,"duration":0.11830361875001927},{"name":"A#2","midi":46,"time":606.6073855000029,"velocity":0.8818897637795275,"duration":0.11830361875001927},{"name":"F2","midi":41,"time":606.7264331666696,"velocity":0.8818897637795275,"duration":0.11830361875001927},{"name":"D2","midi":38,"time":606.8454808333363,"velocity":0.8818897637795275,"duration":0.11830361875001927},{"name":"A#1","midi":34,"time":606.964528500003,"velocity":0.8818897637795275,"duration":0.11830361875001927},{"name":"A#0","midi":22,"time":607.0835761666697,"velocity":0.8818897637795275,"duration":0.11830361875001927},{"name":"A#1","midi":34,"time":607.2026238333364,"velocity":0.8818897637795275,"duration":0.11830361875001927},{"name":"A#0","midi":22,"time":607.321671500003,"velocity":0.8818897637795275,"duration":0.11830361875001927},{"name":"A#1","midi":34,"time":607.4407191666697,"velocity":0.8818897637795275,"duration":0.11830361875001927},{"name":"A#0","midi":22,"time":607.5597668333364,"velocity":0.8818897637795275,"duration":0.1123512354166678},{"name":"F1","midi":29,"time":607.6788145000031,"velocity":0.8818897637795275,"duration":0.14211315208331143},{"name":"C2","midi":36,"time":607.8216717000031,"velocity":0.8818897637795275,"duration":0.14211315208331143},{"name":"F2","midi":41,"time":607.9645289000031,"velocity":0.8818897637795275,"duration":0.14211315208331143},{"name":"A2","midi":45,"time":608.107386100003,"velocity":0.8818897637795275,"duration":0.14211315208331143},{"name":"C3","midi":48,"time":608.250243300003,"velocity":0.8818897637795275,"duration":0.14211315208331143},{"name":"F3","midi":53,"time":608.393100500003,"velocity":0.8818897637795275,"duration":0.11830361875001927},{"name":"A3","midi":57,"time":608.5121481666697,"velocity":0.8818897637795275,"duration":0.11830361875001927},{"name":"C4","midi":60,"time":608.6311958333364,"velocity":0.8818897637795275,"duration":0.11830361875001927},{"name":"F4","midi":65,"time":608.7502435000031,"velocity":0.8818897637795275,"duration":0.11830361875001927},{"name":"A3","midi":57,"time":608.8692911666698,"velocity":0.8818897637795275,"duration":0.11830361875001927},{"name":"G4","midi":67,"time":608.9883388333365,"velocity":0.8818897637795275,"duration":0.1123512354166678},{"name":"F4","midi":65,"time":609.1073865000031,"velocity":0.8818897637795275,"duration":0.11830361875001927},{"name":"C4","midi":60,"time":609.2264341666698,"velocity":0.8818897637795275,"duration":0.11830361875001927},{"name":"A3","midi":57,"time":609.3454818333365,"velocity":0.8818897637795275,"duration":0.11830361875001927},{"name":"G3","midi":55,"time":609.4645295000032,"velocity":0.8818897637795275,"duration":0.11830361875001927},{"name":"F3","midi":53,"time":609.5835771666699,"velocity":0.8818897637795275,"duration":0.11830361875001927},{"name":"C3","midi":48,"time":609.7026248333366,"velocity":0.8818897637795275,"duration":0.11830361875001927},{"name":"F3","midi":53,"time":609.8216725000033,"velocity":0.8818897637795275,"duration":0.11830361875001927},{"name":"C3","midi":48,"time":609.94072016667,"velocity":0.8818897637795275,"duration":0.11830361875001927},{"name":"A2","midi":45,"time":610.0597678333367,"velocity":0.8818897637795275,"duration":0.11830361875001927},{"name":"F2","midi":41,"time":610.1788155000033,"velocity":0.8818897637795275,"duration":0.11830361875001927},{"name":"F1","midi":29,"time":610.29786316667,"velocity":0.8818897637795275,"duration":0.11830361875001927},{"name":"F2","midi":41,"time":610.4169108333367,"velocity":0.8818897637795275,"duration":0.1123512354166678},{"name":"C1","midi":24,"time":610.5359585000034,"velocity":0.8818897637795275,"duration":0.14211315208331143},{"name":"E1","midi":28,"time":610.6788157000034,"velocity":0.8818897637795275,"duration":0.14211315208331143},{"name":"G1","midi":31,"time":610.8216729000034,"velocity":0.8818897637795275,"duration":0.14211315208331143},{"name":"C2","midi":36,"time":610.9645301000033,"velocity":0.8818897637795275,"duration":0.14211315208331143},{"name":"E2","midi":40,"time":611.1073873000033,"velocity":0.8818897637795275,"duration":0.14211315208331143},{"name":"G2","midi":43,"time":611.2502445000033,"velocity":0.8818897637795275,"duration":0.11830361875001927},{"name":"C3","midi":48,"time":611.36929216667,"velocity":0.8818897637795275,"duration":0.11830361875001927},{"name":"E3","midi":52,"time":611.4883398333367,"velocity":0.8818897637795275,"duration":0.11830361875001927},{"name":"G3","midi":55,"time":611.6073875000034,"velocity":0.8818897637795275,"duration":0.11830361875001927},{"name":"C4","midi":60,"time":611.7264351666701,"velocity":0.8818897637795275,"duration":0.11830361875001927},{"name":"E4","midi":64,"time":611.8454828333367,"velocity":0.8818897637795275,"duration":1.1302087854168121},{"name":"A1","midi":33,"time":611.9645305000034,"velocity":0.8818897637795275,"duration":0.3385418020833413},{"name":"E2","midi":40,"time":611.9645305000034,"velocity":0.8818897637795275,"duration":0.3385418020833413},{"name":"A1","midi":33,"time":612.3216735000035,"velocity":0.8818897637795275,"duration":0.1123512354166678},{"name":"E2","midi":40,"time":612.3216735000035,"velocity":0.8818897637795275,"duration":0.1123512354166678},{"name":"A2","midi":45,"time":612.3216735000035,"velocity":0.8818897637795275,"duration":0.1123512354166678},{"name":"A1","midi":33,"time":612.4407211666702,"velocity":0.8818897637795275,"duration":0.1123512354166678},{"name":"E2","midi":40,"time":612.4407211666702,"velocity":0.8818897637795275,"duration":0.1123512354166678},{"name":"A2","midi":45,"time":612.4407211666702,"velocity":0.8818897637795275,"duration":0.1123512354166678},{"name":"A1","midi":33,"time":612.5597688333369,"velocity":0.8818897637795275,"duration":0.1123512354166678},{"name":"E2","midi":40,"time":612.5597688333369,"velocity":0.8818897637795275,"duration":0.1123512354166678},{"name":"A2","midi":45,"time":612.5597688333369,"velocity":0.8818897637795275,"duration":0.1123512354166678},{"name":"A1","midi":33,"time":612.6788165000036,"velocity":0.8818897637795275,"duration":0.3385418020833413},{"name":"E2","midi":40,"time":612.6788165000036,"velocity":0.8818897637795275,"duration":0.3385418020833413},{"name":"A2","midi":45,"time":612.6788165000036,"velocity":0.8818897637795275,"duration":0.3385418020833413},{"name":"A1","midi":33,"time":613.0359595000036,"velocity":0.8818897637795275,"duration":0.3385418020833413},{"name":"E2","midi":40,"time":613.0359595000036,"velocity":0.8818897637795275,"duration":0.3385418020833413},{"name":"A2","midi":45,"time":613.0359595000036,"velocity":0.8818897637795275,"duration":0.3385418020833413},{"name":"A#1","midi":34,"time":613.3931025000037,"velocity":0.8818897637795275,"duration":1.3563993520834856},{"name":"F2","midi":41,"time":613.3931025000037,"velocity":0.8818897637795275,"duration":0.44122041458331296},{"name":"A#2","midi":46,"time":613.3931025000037,"velocity":0.8818897637795275,"duration":0.5305061645833575},{"name":"F2","midi":41,"time":613.7502455000036,"velocity":0.8818897637795275,"duration":0.9992563520835347},{"name":"A#2","midi":46,"time":613.8395312500037,"velocity":0.8818897637795275,"duration":0.9099706020834901},{"name":"D3","midi":50,"time":613.9288170000037,"velocity":0.8818897637795275,"duration":0.08407741458336204},{"name":"F3","midi":53,"time":614.0181027500038,"velocity":0.8818897637795275,"duration":0.2537203395833103},{"name":"A#3","midi":58,"time":614.2859600000038,"velocity":0.8818897637795275,"duration":0.5081847270834032},{"name":"A#3","midi":58,"time":614.8216745000038,"velocity":0.8818897637795275,"duration":0.16889887708327933},{"name":"F3","midi":53,"time":615.0002460000038,"velocity":0.8818897637795275,"duration":0.16889887708327933},{"name":"D3","midi":50,"time":615.1788175000038,"velocity":0.8818897637795275,"duration":0.16889887708327933},{"name":"C3","midi":48,"time":615.3573890000038,"velocity":0.8818897637795275,"duration":0.16889887708327933},{"name":"A#1","midi":34,"time":615.5359605000037,"velocity":0.8818897637795275,"duration":0.3385418020833413},{"name":"A#2","midi":46,"time":615.5359605000037,"velocity":0.8818897637795275,"duration":0.3385418020833413},{"name":"A#1","midi":34,"time":615.8931035000038,"velocity":0.8818897637795275,"duration":0.3385418020833413},{"name":"A#2","midi":46,"time":615.8931035000038,"velocity":0.8818897637795275,"duration":0.3385418020833413},{"name":"D1","midi":26,"time":616.2502465000039,"velocity":0.8818897637795275,"duration":0.16889887708327933},{"name":"A1","midi":33,"time":616.2502465000039,"velocity":0.8818897637795275,"duration":0.16889887708327933},{"name":"D2","midi":38,"time":616.4288180000038,"velocity":0.8818897637795275,"duration":0.16889887708327933},{"name":"A2","midi":45,"time":616.6073895000038,"velocity":0.8818897637795275,"duration":0.16889887708327933},{"name":"D3","midi":50,"time":616.7859610000038,"velocity":0.8818897637795275,"duration":0.16889887708327933},{"name":"D3","midi":50,"time":616.9645325000038,"velocity":0.8818897637795275,"duration":0.3385418020833413},{"name":"A3","midi":57,"time":616.9645325000038,"velocity":0.8818897637795275,"duration":0.3385418020833413},{"name":"D4","midi":62,"time":616.9645325000038,"velocity":0.8818897637795275,"duration":0.3385418020833413},{"name":"D2","midi":38,"time":617.3216755000038,"velocity":0.8818897637795275,"duration":0.3385418020833413},{"name":"D3","midi":50,"time":617.3216755000038,"velocity":0.8818897637795275,"duration":0.3385418020833413},{"name":"D2","midi":38,"time":617.6788185000039,"velocity":0.8818897637795275,"duration":0.3385418020833413},{"name":"A2","midi":45,"time":617.6788185000039,"velocity":0.8818897637795275,"duration":0.3385418020833413},{"name":"D3","midi":50,"time":617.6788185000039,"velocity":0.8818897637795275,"duration":0.3385418020833413},{"name":"D2","midi":38,"time":618.035961500004,"velocity":0.8818897637795275,"duration":0.16889887708327933},{"name":"A2","midi":45,"time":618.035961500004,"velocity":0.8818897637795275,"duration":0.16889887708327933},{"name":"D3","midi":50,"time":618.035961500004,"velocity":0.8818897637795275,"duration":0.16889887708327933},{"name":"D2","midi":38,"time":618.2145330000039,"velocity":0.8818897637795275,"duration":0.16889887708327933},{"name":"A2","midi":45,"time":618.2145330000039,"velocity":0.8818897637795275,"duration":0.16889887708327933},{"name":"D3","midi":50,"time":618.2145330000039,"velocity":0.8818897637795275,"duration":0.16889887708327933},{"name":"D2","midi":38,"time":618.3931045000039,"velocity":0.8818897637795275,"duration":0.16889887708327933},{"name":"A2","midi":45,"time":618.3931045000039,"velocity":0.8818897637795275,"duration":0.16889887708327933},{"name":"D3","midi":50,"time":618.3931045000039,"velocity":0.8818897637795275,"duration":0.16889887708327933},{"name":"D2","midi":38,"time":618.5716760000039,"velocity":0.8818897637795275,"duration":0.16889887708327933},{"name":"A2","midi":45,"time":618.5716760000039,"velocity":0.8818897637795275,"duration":0.16889887708327933},{"name":"D3","midi":50,"time":618.5716760000039,"velocity":0.8818897637795275,"duration":0.16889887708327933},{"name":"D2","midi":38,"time":618.7502475000039,"velocity":0.8818897637795275,"duration":0.3385418020833413},{"name":"A2","midi":45,"time":618.7502475000039,"velocity":0.8818897637795275,"duration":0.3385418020833413},{"name":"D3","midi":50,"time":618.7502475000039,"velocity":0.8818897637795275,"duration":0.3385418020833413},{"name":"A#0","midi":22,"time":619.1073905000039,"velocity":0.8818897637795275,"duration":0.3385418020833413},{"name":"F1","midi":29,"time":619.1073905000039,"velocity":0.8818897637795275,"duration":0.3385418020833413},{"name":"A#1","midi":34,"time":619.1073905000039,"velocity":0.8818897637795275,"duration":0.3385418020833413},{"name":"A#1","midi":34,"time":619.464533500004,"velocity":0.8818897637795275,"duration":0.35639895208339567},{"name":"F2","midi":41,"time":619.511408518754,"velocity":0.8818897637795275,"duration":0.30877988541669765},{"name":"A#2","midi":46,"time":619.5590275854207,"velocity":0.8818897637795275,"duration":0.26116081874999963},{"name":"A#2","midi":46,"time":619.8216765000041,"velocity":0.8818897637795275,"duration":0.16889887708327933},{"name":"D3","midi":50,"time":619.8216765000041,"velocity":0.8818897637795275,"duration":0.16889887708327933},{"name":"F3","midi":53,"time":619.8216765000041,"velocity":0.8818897637795275,"duration":0.16889887708327933},{"name":"A#3","midi":58,"time":619.8216765000041,"velocity":0.8818897637795275,"duration":0.16889887708327933},{"name":"A#2","midi":46,"time":620.000248000004,"velocity":0.8818897637795275,"duration":0.16889887708327933},{"name":"D3","midi":50,"time":620.000248000004,"velocity":0.8818897637795275,"duration":0.16889887708327933},{"name":"F3","midi":53,"time":620.000248000004,"velocity":0.8818897637795275,"duration":0.16889887708327933},{"name":"A#3","midi":58,"time":620.000248000004,"velocity":0.8818897637795275,"duration":0.16889887708327933},{"name":"A#2","midi":46,"time":620.178819500004,"velocity":0.8818897637795275,"duration":0.3385418020833413},{"name":"D3","midi":50,"time":620.178819500004,"velocity":0.8818897637795275,"duration":0.3385418020833413},{"name":"F3","midi":53,"time":620.178819500004,"velocity":0.8818897637795275,"duration":0.3385418020833413},{"name":"A#3","midi":58,"time":620.178819500004,"velocity":0.8818897637795275,"duration":0.3385418020833413},{"name":"A#3","midi":58,"time":620.5359625000041,"velocity":0.8818897637795275,"duration":0.16889887708327933},{"name":"F3","midi":53,"time":620.714534000004,"velocity":0.8818897637795275,"duration":0.16889887708327933},{"name":"D3","midi":50,"time":620.893105500004,"velocity":0.8818897637795275,"duration":0.16889887708327933},{"name":"C3","midi":48,"time":621.071677000004,"velocity":0.8818897637795275,"duration":0.16889887708327933},{"name":"A#1","midi":34,"time":621.250248500004,"velocity":0.8818897637795275,"duration":0.16889887708327933},{"name":"F2","midi":41,"time":621.250248500004,"velocity":0.8818897637795275,"duration":0.16889887708327933},{"name":"A#2","midi":46,"time":621.250248500004,"velocity":0.8818897637795275,"duration":0.16889887708327933},{"name":"A#1","midi":34,"time":621.428820000004,"velocity":0.8818897637795275,"duration":0.16889887708327933},{"name":"F2","midi":41,"time":621.428820000004,"velocity":0.8818897637795275,"duration":0.16889887708327933},{"name":"A#2","midi":46,"time":621.428820000004,"velocity":0.8818897637795275,"duration":0.16889887708327933},{"name":"A#1","midi":34,"time":621.6073915000039,"velocity":0.8818897637795275,"duration":0.3385418020833413},{"name":"F2","midi":41,"time":621.6073915000039,"velocity":0.8818897637795275,"duration":0.3385418020833413},{"name":"A#2","midi":46,"time":621.6073915000039,"velocity":0.8818897637795275,"duration":0.3385418020833413},{"name":"D1","midi":26,"time":621.964534500004,"velocity":0.8818897637795275,"duration":0.16889887708327933},{"name":"A1","midi":33,"time":621.964534500004,"velocity":0.8818897637795275,"duration":0.16889887708327933},{"name":"D2","midi":38,"time":622.143106000004,"velocity":0.8818897637795275,"duration":0.16889887708327933},{"name":"D2","midi":38,"time":622.321677500004,"velocity":0.8818897637795275,"duration":0.041666683333346555},{"name":"F2","midi":41,"time":622.366320375004,"velocity":0.8818897637795275,"duration":0.041666683333346555},{"name":"A2","midi":45,"time":622.410963250004,"velocity":0.8818897637795275,"duration":0.041666683333346555},{"name":"D3","midi":50,"time":622.455606125004,"velocity":0.8818897637795275,"duration":0.041666683333346555},{"name":"F3","midi":53,"time":622.500249000004,"velocity":0.8818897637795275,"duration":0.041666683333346555},{"name":"A3","midi":57,"time":622.544891875004,"velocity":0.8818897637795275,"duration":0.041666683333346555},{"name":"C4","midi":60,"time":622.5895347500041,"velocity":0.8818897637795275,"duration":0.041666683333346555},{"name":"D3","midi":50,"time":622.6341776250041,"velocity":0.8818897637795275,"duration":0.041666683333346555},{"name":"F3","midi":53,"time":622.6788205000041,"velocity":0.8818897637795275,"duration":0.041666683333346555},{"name":"A3","midi":57,"time":622.7234633750041,"velocity":0.8818897637795275,"duration":0.041666683333346555},{"name":"D4","midi":62,"time":622.7681062500042,"velocity":0.8818897637795275,"duration":0.041666683333346555},{"name":"F4","midi":65,"time":622.8127491250042,"velocity":0.8818897637795275,"duration":0.041666683333346555},{"name":"A4","midi":69,"time":622.8573920000042,"velocity":0.8818897637795275,"duration":0.041666683333346555},{"name":"D5","midi":74,"time":622.9020348750042,"velocity":0.8818897637795275,"duration":0.041666683333346555},{"name":"D4","midi":62,"time":622.9466777500043,"velocity":0.8818897637795275,"duration":0.041666683333346555},{"name":"F4","midi":65,"time":622.9913206250043,"velocity":0.8818897637795275,"duration":0.041666683333346555},{"name":"A4","midi":69,"time":623.0359635000043,"velocity":0.8818897637795275,"duration":0.041666683333346555},{"name":"D5","midi":74,"time":623.0806063750043,"velocity":0.8818897637795275,"duration":0.041666683333346555},{"name":"F5","midi":77,"time":623.1252492500043,"velocity":0.8818897637795275,"duration":0.041666683333346555},{"name":"A5","midi":81,"time":623.1698921250044,"velocity":0.8818897637795275,"duration":0.041666683333346555},{"name":"D6","midi":86,"time":623.2145350000044,"velocity":0.8818897637795275,"duration":0.041666683333346555},{"name":"A5","midi":81,"time":623.2591778750044,"velocity":0.8818897637795275,"duration":0.041666683333346555},{"name":"F5","midi":77,"time":623.3038207500044,"velocity":0.8818897637795275,"duration":0.041666683333346555},{"name":"D5","midi":74,"time":623.3484636250045,"velocity":0.8818897637795275,"duration":0.041666683333346555},{"name":"A4","midi":69,"time":623.3931065000045,"velocity":0.8818897637795275,"duration":0.08407741458336204},{"name":"F4","midi":65,"time":623.4823922500045,"velocity":0.8818897637795275,"duration":0.08407741458336204},{"name":"D4","midi":62,"time":623.5716780000046,"velocity":0.8818897637795275,"duration":0.16889887708327933},{"name":"A3","midi":57,"time":623.7502495000045,"velocity":0.3858267716535433,"duration":0.16889887708327933},{"name":"F3","midi":53,"time":623.9288210000045,"velocity":0.3858267716535433,"duration":0.16889887708327933},{"name":"D3","midi":50,"time":624.1073925000045,"velocity":0.3858267716535433,"duration":0.16889887708327933},{"name":"A2","midi":45,"time":624.2859640000045,"velocity":0.3858267716535433,"duration":0.16889887708327933},{"name":"D3","midi":50,"time":624.4645355000044,"velocity":0.3858267716535433,"duration":0.16889887708327933},{"name":"A2","midi":45,"time":624.6431070000044,"velocity":0.3858267716535433,"duration":0.16889887708327933},{"name":"A#1","midi":34,"time":624.8216785000044,"velocity":0.3858267716535433,"duration":0.16889887708327933},{"name":"F2","midi":41,"time":625.0002500000044,"velocity":0.3858267716535433,"duration":0.16889887708327933},{"name":"A#2","midi":46,"time":625.1788215000043,"velocity":0.3858267716535433,"duration":0.16889887708327933},{"name":"D3","midi":50,"time":625.3573930000043,"velocity":0.3858267716535433,"duration":0.16889887708327933},{"name":"D3","midi":50,"time":625.7145360000043,"velocity":0.3858267716535433,"duration":0.17782745208330653},{"name":"A#2","midi":46,"time":625.8931075000042,"velocity":0.3858267716535433,"duration":0.17782745208330653},{"name":"F2","midi":41,"time":626.0716790000042,"velocity":0.3858267716535433,"duration":0.17782745208330653},{"name":"A#1","midi":34,"time":626.2502505000042,"velocity":0.3858267716535433,"duration":0.17782745208330653},{"name":"F2","midi":41,"time":626.4288220000042,"velocity":0.3858267716535433,"duration":0.17782745208330653},{"name":"A#2","midi":46,"time":626.6073935000042,"velocity":0.3858267716535433,"duration":0.17782745208330653},{"name":"D3","midi":50,"time":626.7859650000041,"velocity":0.3858267716535433,"duration":0.17782745208330653},{"name":"A#2","midi":46,"time":626.9645365000041,"velocity":0.3858267716535433,"duration":0.17782745208330653},{"name":"F2","midi":41,"time":627.1431080000041,"velocity":0.3858267716535433,"duration":0.17782745208330653},{"name":"A#1","midi":34,"time":627.321679500004,"velocity":0.3858267716535433,"duration":0.17782745208330653},{"name":"F2","midi":41,"time":627.500251000004,"velocity":0.3858267716535433,"duration":0.16889887708327933},{"name":"D2","midi":38,"time":627.678822500004,"velocity":0.3858267716535433,"duration":0.17782745208330653},{"name":"A2","midi":45,"time":627.857394000004,"velocity":0.3858267716535433,"duration":0.17782745208330653},{"name":"D3","midi":50,"time":628.035965500004,"velocity":0.3858267716535433,"duration":0.17782745208330653},{"name":"F3","midi":53,"time":628.2145370000039,"velocity":0.3858267716535433,"duration":0.17782745208330653},{"name":"A3","midi":57,"time":628.3931085000039,"velocity":0.3858267716535433,"duration":0.16889887708327933},{"name":"A3","midi":57,"time":628.5716800000039,"velocity":0.3858267716535433,"duration":0.3385418020833413},{"name":"A3","midi":57,"time":628.928823000004,"velocity":0.3858267716535433,"duration":0.16889887708327933},{"name":"D2","midi":38,"time":629.1073945000039,"velocity":0.3858267716535433,"duration":0.17782745208330653},{"name":"A2","midi":45,"time":629.2859660000039,"velocity":0.3858267716535433,"duration":0.17782745208330653},{"name":"D3","midi":50,"time":629.4645375000039,"velocity":0.3858267716535433,"duration":0.3385418020833413},{"name":"D2","midi":38,"time":629.8216805000039,"velocity":0.3858267716535433,"duration":0.17782745208330653},{"name":"A2","midi":45,"time":630.0002520000039,"velocity":0.3858267716535433,"duration":0.17782745208330653},{"name":"D3","midi":50,"time":630.1788235000039,"velocity":0.3858267716535433,"duration":0.17782745208330653},{"name":"A2","midi":45,"time":630.3573950000039,"velocity":0.3858267716535433,"duration":0.16889887708327933},{"name":"A#1","midi":34,"time":630.5359665000038,"velocity":0.25984251968503935,"duration":1.356399352083372},{"name":"D2","midi":38,"time":630.5359665000038,"velocity":0.25984251968503935,"duration":1.356399352083372},{"name":"F2","midi":41,"time":630.5359665000038,"velocity":0.25984251968503935,"duration":1.356399352083372},{"name":"A#2","midi":46,"time":630.5359665000038,"velocity":0.25984251968503935,"duration":1.356399352083372},{"name":"A#1","midi":34,"time":631.9645385000039,"velocity":0.25984251968503935,"duration":0.6778276520833515},{"name":"A#2","midi":46,"time":631.9645385000039,"velocity":0.25984251968503935,"duration":0.6778276520833515},{"name":"C2","midi":36,"time":632.6788245000039,"velocity":0.25984251968503935,"duration":1.356399352083372},{"name":"G2","midi":43,"time":632.6788245000039,"velocity":0.25984251968503935,"duration":1.356399352083372},{"name":"C1","midi":24,"time":634.1073965000039,"velocity":0.25984251968503935,"duration":0.6778276520833515},{"name":"G1","midi":31,"time":634.1073965000039,"velocity":0.25984251968503935,"duration":0.6778276520833515},{"name":"C2","midi":36,"time":634.1073965000039,"velocity":0.25984251968503935,"duration":0.6778276520833515},{"name":"D1","midi":26,"time":634.8216825000039,"velocity":0.25984251968503935,"duration":0.6778276520833515},{"name":"A1","midi":33,"time":634.8216825000039,"velocity":0.25984251968503935,"duration":0.6778276520833515},{"name":"D2","midi":38,"time":634.8216825000039,"velocity":0.25984251968503935,"duration":0.6778276520833515},{"name":"A2","midi":45,"time":635.535968500004,"velocity":0.25984251968503935,"duration":0.04092263541667762},{"name":"D2","midi":38,"time":635.580611375004,"velocity":0.25984251968503935,"duration":0.04092263541667762},{"name":"A2","midi":45,"time":635.625254250004,"velocity":0.25984251968503935,"duration":0.04092263541667762},{"name":"D2","midi":38,"time":635.669897125004,"velocity":0.25984251968503935,"duration":0.04092263541667762},{"name":"A2","midi":45,"time":635.714540000004,"velocity":0.25984251968503935,"duration":0.04092263541667762},{"name":"D2","midi":38,"time":635.7591828750041,"velocity":0.25984251968503935,"duration":0.04092263541667762},{"name":"A2","midi":45,"time":635.8038257500041,"velocity":0.25984251968503935,"duration":0.04092263541667762},{"name":"D2","midi":38,"time":635.8484686250041,"velocity":0.25984251968503935,"duration":0.04092263541667762},{"name":"A2","midi":45,"time":635.8931115000041,"velocity":0.25984251968503935,"duration":0.04092263541667762},{"name":"D2","midi":38,"time":635.9377543750041,"velocity":0.25984251968503935,"duration":0.04092263541667762},{"name":"A2","midi":45,"time":635.9823972500042,"velocity":0.25984251968503935,"duration":0.04092263541667762},{"name":"D2","midi":38,"time":636.0270401250042,"velocity":0.25984251968503935,"duration":0.04092263541667762},{"name":"A2","midi":45,"time":636.0716830000042,"velocity":0.25984251968503935,"duration":0.04092263541667762},{"name":"D2","midi":38,"time":636.1163258750042,"velocity":0.25984251968503935,"duration":0.04092263541667762},{"name":"A2","midi":45,"time":636.1609687500043,"velocity":0.25984251968503935,"duration":0.04092263541667762},{"name":"D2","midi":38,"time":636.2056116250043,"velocity":0.25984251968503935,"duration":0.04092263541667762},{"name":"A2","midi":45,"time":636.2502545000043,"velocity":0.3464566929133858,"duration":0.04092263541667762},{"name":"D2","midi":38,"time":636.2948973750043,"velocity":0.3464566929133858,"duration":0.04092263541667762},{"name":"A2","midi":45,"time":636.3395402500043,"velocity":0.3464566929133858,"duration":0.04092263541667762},{"name":"D2","midi":38,"time":636.3841831250044,"velocity":0.3464566929133858,"duration":0.04092263541667762},{"name":"A2","midi":45,"time":636.4288260000044,"velocity":0.3464566929133858,"duration":0.04092263541667762},{"name":"D2","midi":38,"time":636.4734688750044,"velocity":0.3464566929133858,"duration":0.04092263541667762},{"name":"A2","midi":45,"time":636.5181117500044,"velocity":0.3464566929133858,"duration":0.04092263541667762},{"name":"D2","midi":38,"time":636.5627546250045,"velocity":0.3464566929133858,"duration":0.04092263541667762},{"name":"A2","midi":45,"time":636.6073975000045,"velocity":0.3464566929133858,"duration":0.04092263541667762},{"name":"D2","midi":38,"time":636.6520403750045,"velocity":0.3464566929133858,"duration":0.04092263541667762},{"name":"A2","midi":45,"time":636.6966832500045,"velocity":0.3464566929133858,"duration":0.04092263541667762},{"name":"D2","midi":38,"time":636.7413261250045,"velocity":0.3464566929133858,"duration":0.04092263541667762},{"name":"A2","midi":45,"time":636.7859690000046,"velocity":0.3464566929133858,"duration":0.04092263541667762},{"name":"D2","midi":38,"time":636.8306118750046,"velocity":0.3464566929133858,"duration":0.04092263541667762},{"name":"A2","midi":45,"time":636.8752547500046,"velocity":0.3464566929133858,"duration":0.04092263541667762},{"name":"D2","midi":38,"time":636.9198976250046,"velocity":0.3464566929133858,"duration":0.04092263541667762},{"name":"D2","midi":38,"time":636.9645405000047,"velocity":0.4409448818897638,"duration":0.04092263541667762},{"name":"D1","midi":26,"time":637.0091833750047,"velocity":0.4409448818897638,"duration":0.04092263541667762},{"name":"D2","midi":38,"time":637.0538262500047,"velocity":0.4409448818897638,"duration":0.04092263541667762},{"name":"D1","midi":26,"time":637.0984691250047,"velocity":0.4409448818897638,"duration":0.04092263541667762},{"name":"D2","midi":38,"time":637.1431120000047,"velocity":0.4409448818897638,"duration":0.04092263541667762},{"name":"D1","midi":26,"time":637.1877548750048,"velocity":0.4409448818897638,"duration":0.04092263541667762},{"name":"D2","midi":38,"time":637.2323977500048,"velocity":0.4409448818897638,"duration":0.04092263541667762},{"name":"D1","midi":26,"time":637.2770406250048,"velocity":0.4409448818897638,"duration":0.04092263541667762},{"name":"D2","midi":38,"time":637.3216835000048,"velocity":0.4409448818897638,"duration":0.04092263541667762},{"name":"D1","midi":26,"time":637.3663263750049,"velocity":0.4409448818897638,"duration":0.04092263541667762},{"name":"D2","midi":38,"time":637.4109692500049,"velocity":0.4409448818897638,"duration":0.04092263541667762},{"name":"D1","midi":26,"time":637.4556121250049,"velocity":0.4409448818897638,"duration":0.04092263541667762},{"name":"D2","midi":38,"time":637.5002550000049,"velocity":0.4409448818897638,"duration":0.04092263541667762},{"name":"D1","midi":26,"time":637.544897875005,"velocity":0.4409448818897638,"duration":0.04092263541667762},{"name":"D2","midi":38,"time":637.589540750005,"velocity":0.4409448818897638,"duration":0.04092263541667762},{"name":"D1","midi":26,"time":637.634183625005,"velocity":0.4409448818897638,"duration":0.04092263541667762},{"name":"D2","midi":38,"time":637.678826500005,"velocity":0.5354330708661418,"duration":0.04092263541667762},{"name":"D1","midi":26,"time":637.723469375005,"velocity":0.5354330708661418,"duration":0.04092263541667762},{"name":"D2","midi":38,"time":637.7681122500051,"velocity":0.5354330708661418,"duration":0.04092263541667762},{"name":"D1","midi":26,"time":637.8127551250051,"velocity":0.5354330708661418,"duration":0.04092263541667762},{"name":"D2","midi":38,"time":637.8573980000051,"velocity":0.5354330708661418,"duration":0.04092263541667762},{"name":"D1","midi":26,"time":637.9020408750051,"velocity":0.5354330708661418,"duration":0.04092263541667762},{"name":"D2","midi":38,"time":637.9466837500051,"velocity":0.5354330708661418,"duration":0.04092263541667762},{"name":"D1","midi":26,"time":637.9913266250052,"velocity":0.5354330708661418,"duration":0.04092263541667762},{"name":"D2","midi":38,"time":638.0359695000052,"velocity":0.5354330708661418,"duration":0.04092263541667762},{"name":"D1","midi":26,"time":638.0806123750052,"velocity":0.5354330708661418,"duration":0.04092263541667762},{"name":"D2","midi":38,"time":638.1252552500052,"velocity":0.5354330708661418,"duration":0.04092263541667762},{"name":"D1","midi":26,"time":638.1698981250053,"velocity":0.5354330708661418,"duration":0.04092263541667762},{"name":"D2","midi":38,"time":638.2145410000053,"velocity":0.5354330708661418,"duration":0.04092263541667762},{"name":"D1","midi":26,"time":638.2591838750053,"velocity":0.5354330708661418,"duration":0.04092263541667762},{"name":"D2","midi":38,"time":638.3038267500053,"velocity":0.5354330708661418,"duration":0.04092263541667762},{"name":"D1","midi":26,"time":638.3484696250054,"velocity":0.5354330708661418,"duration":0.04092263541667762},{"name":"D1","midi":26,"time":638.3931125000054,"velocity":0.6299212598425197,"duration":0.3385418020833413},{"name":"D2","midi":38,"time":638.3931125000054,"velocity":0.6299212598425197,"duration":0.3385418020833413}]}]}