{
  "header": {
    "title": "Merry-Go-Round of Life",
    "artist": "Joe Hisaishi",
    "source": "https://musescore.com/user/16006641/scores/4197961",
    "bpm": 100.00016666694445,
    "duration": 426.92678845416185
  },
  "tracks": [
    {
      "instrument_number": 0,
      "notes": [
        {
          "name": "D5",
          "midi": 74,
          "time": 0,
          "velocity": 0.5748031496062992,
          "duration": 0.2837495270833333
        },
        {
          "name": "D#5",
          "midi": 75,
          "time": 0.2999995,
          "velocity": 0.3858267716535433,
          "duration": 0.28374952708333323
        },
        {
          "name": "D5",
          "midi": 74,
          "time": 0.5999989999999998,
          "velocity": 0.41732283464566927,
          "duration": 0.28374952708333334
        },
        {
          "name": "D#5",
          "midi": 75,
          "time": 0.8999984999999998,
          "velocity": 0.49606299212598426,
          "duration": 0.28374952708333334
        },
        {
          "name": "D5",
          "midi": 74,
          "time": 1.199998,
          "velocity": 0.5433070866141733,
          "duration": 0.28374952708333323
        },
        {
          "name": "D#5",
          "midi": 75,
          "time": 1.4999974999999999,
          "velocity": 0.5433070866141733,
          "duration": 0.28374952708333323
        },
        {
          "name": "C5",
          "midi": 72,
          "time": 1.7999969999999998,
          "velocity": 0.6535433070866141,
          "duration": 0.28374952708333323
        },
        {
          "name": "D5",
          "midi": 74,
          "time": 2.0999964999999996,
          "velocity": 0.6614173228346457,
          "duration": 0.28374952708333323
        },
        {
          "name": "C5",
          "midi": 72,
          "time": 2.3999959999999994,
          "velocity": 0.5590551181102362,
          "duration": 0.28374952708333323
        },
        {
          "name": "D5",
          "midi": 74,
          "time": 2.699995499999999,
          "velocity": 0.5039370078740157,
          "duration": 0.28374952708333323
        },
        {
          "name": "C5",
          "midi": 72,
          "time": 2.999994999999999,
          "velocity": 0.5118110236220472,
          "duration": 0.28374952708333323
        },
        {
          "name": "D5",
          "midi": 74,
          "time": 3.2999944999999986,
          "velocity": 0.5748031496062992,
          "duration": 0.28374952708333323
        },
        {
          "name": "A#4",
          "midi": 70,
          "time": 3.5999939999999984,
          "velocity": 0.6771653543307087,
          "duration": 0.28374952708333323
        },
        {
          "name": "C5",
          "midi": 72,
          "time": 3.899993499999998,
          "velocity": 0.5669291338582677,
          "duration": 0.2837495270833337
        },
        {
          "name": "A#4",
          "midi": 70,
          "time": 4.199992999999998,
          "velocity": 0.3858267716535433,
          "duration": 0.2837495270833337
        },
        {
          "name": "C5",
          "midi": 72,
          "time": 4.4999924999999985,
          "velocity": 0.5433070866141733,
          "duration": 0.2837495270833337
        },
        {
          "name": "A#4",
          "midi": 70,
          "time": 4.799991999999999,
          "velocity": 0.5905511811023622,
          "duration": 0.2837495270833337
        },
        {
          "name": "C5",
          "midi": 72,
          "time": 5.099991499999999,
          "velocity": 0.7244094488188977,
          "duration": 0.2837495270833337
        },
        {
          "name": "A4",
          "midi": 69,
          "time": 5.399990999999999,
          "velocity": 0.8031496062992126,
          "duration": 0.14124976458333371
        },
        {
          "name": "G4",
          "midi": 67,
          "time": 5.549990749999999,
          "velocity": 0.6771653543307087,
          "duration": 0.14124976458333371
        },
        {
          "name": "F#4",
          "midi": 66,
          "time": 5.699990499999999,
          "velocity": 0.8110236220472441,
          "duration": 1.2812478645833334
        },
        {
          "name": "A3",
          "midi": 57,
          "time": 8.399985999999998,
          "velocity": 0.4015748031496063,
          "duration": 2.278746202083333
        },
        {
          "name": "D4",
          "midi": 62,
          "time": 8.399985999999998,
          "velocity": 0.5354330708661418,
          "duration": 2.278746202083333
        },
        {
          "name": "F#4",
          "midi": 66,
          "time": 8.399985999999998,
          "velocity": 0.3543307086614173,
          "duration": 2.278746202083333
        },
        {
          "name": "D4",
          "midi": 62,
          "time": 10.799981999999998,
          "velocity": 0.6141732283464567,
          "duration": 0.5687490520833336
        },
        {
          "name": "G4",
          "midi": 67,
          "time": 11.399980999999999,
          "velocity": 0.6141732283464567,
          "duration": 0.5687490520833336
        },
        {
          "name": "A#4",
          "midi": 70,
          "time": 11.999979999999999,
          "velocity": 0.6220472440944882,
          "duration": 0.5687490520833336
        },
        {
          "name": "D#4",
          "midi": 63,
          "time": 12.599979,
          "velocity": 0.6062992125984252,
          "duration": 0.5987490020833324
        },
        {
          "name": "G4",
          "midi": 67,
          "time": 12.67872886875,
          "velocity": 0.7322834645669292,
          "duration": 0.518749135416666
        },
        {
          "name": "A#4",
          "midi": 70,
          "time": 12.758728735416666,
          "velocity": 0.5196850393700787,
          "duration": 0.43874926874999964
        },
        {
          "name": "D5",
          "midi": 74,
          "time": 12.839978599999998,
          "velocity": 0.7874015748031497,
          "duration": 0.3587494020833333
        },
        {
          "name": "D#4",
          "midi": 63,
          "time": 13.799976999999998,
          "velocity": 0.6299212598425197,
          "duration": 0.5687490520833336
        },
        {
          "name": "G4",
          "midi": 67,
          "time": 13.799976999999998,
          "velocity": 0.7322834645669292,
          "duration": 0.5687490520833336
        },
        {
          "name": "A#4",
          "midi": 70,
          "time": 13.799976999999998,
          "velocity": 0.6614173228346457,
          "duration": 0.5687490520833336
        },
        {
          "name": "D5",
          "midi": 74,
          "time": 13.799976999999998,
          "velocity": 0.7952755905511811,
          "duration": 0.5687490520833336
        },
        {
          "name": "D4",
          "midi": 62,
          "time": 14.399975999999999,
          "velocity": 0.5511811023622047,
          "duration": 1.7087471520833333
        },
        {
          "name": "F#4",
          "midi": 66,
          "time": 14.399975999999999,
          "velocity": 0.5275590551181102,
          "duration": 0.5687490520833336
        },
        {
          "name": "C5",
          "midi": 72,
          "time": 14.399975999999999,
          "velocity": 0.5590551181102362,
          "duration": 0.5687490520833336
        },
        {
          "name": "F#4",
          "midi": 66,
          "time": 14.999975,
          "velocity": 0.6535433070866141,
          "duration": 1.1387481020833334
        },
        {
          "name": "A#4",
          "midi": 70,
          "time": 14.999975,
          "velocity": 0.7480314960629921,
          "duration": 0.5687490520833336
        },
        {
          "name": "A4",
          "midi": 69,
          "time": 15.599974,
          "velocity": 0.7480314960629921,
          "duration": 0.5687490520833336
        },
        {
          "name": "A#4",
          "midi": 70,
          "time": 16.199973,
          "velocity": 0.7007874015748031,
          "duration": 1.7087471520833333
        },
        {
          "name": "G4",
          "midi": 67,
          "time": 18.8999685,
          "velocity": 0.6141732283464567,
          "duration": 0.2837495270833337
        },
        {
          "name": "A#4",
          "midi": 70,
          "time": 19.199968000000002,
          "velocity": 0.4881889763779528,
          "duration": 0.2837495270833337
        },
        {
          "name": "D5",
          "midi": 74,
          "time": 19.499967500000004,
          "velocity": 0.6141732283464567,
          "duration": 0.2837495270833337
        },
        {
          "name": "A#4",
          "midi": 70,
          "time": 19.799967000000006,
          "velocity": 0.7007874015748031,
          "duration": 1.1387481020833334
        },
        {
          "name": "G5",
          "midi": 79,
          "time": 19.799967000000006,
          "velocity": 0.7874015748031497,
          "duration": 1.1387481020833334
        },
        {
          "name": "A#4",
          "midi": 70,
          "time": 20.999965000000007,
          "velocity": 0.7952755905511811,
          "duration": 0.5687490520833336
        },
        {
          "name": "G5",
          "midi": 79,
          "time": 20.999965000000007,
          "velocity": 0.7795275590551181,
          "duration": 0.5687490520833336
        },
        {
          "name": "A#4",
          "midi": 70,
          "time": 21.599964000000007,
          "velocity": 0.7716535433070866,
          "duration": 1.7087471520833333
        },
        {
          "name": "G5",
          "midi": 79,
          "time": 21.599964000000007,
          "velocity": 0.6929133858267716,
          "duration": 0.5687490520833336
        },
        {
          "name": "F5",
          "midi": 77,
          "time": 22.199963000000007,
          "velocity": 0.7401574803149606,
          "duration": 0.5687490520833336
        },
        {
          "name": "D#5",
          "midi": 75,
          "time": 22.799962000000008,
          "velocity": 0.6062992125984252,
          "duration": 0.5687490520833336
        },
        {
          "name": "F4",
          "midi": 65,
          "time": 23.39996100000001,
          "velocity": 0.6220472440944882,
          "duration": 1.7987470020833314
        },
        {
          "name": "A4",
          "midi": 69,
          "time": 23.478710868750007,
          "velocity": 0.5354330708661418,
          "duration": 1.7187471354166668
        },
        {
          "name": "D5",
          "midi": 74,
          "time": 23.557460737500005,
          "velocity": 0.6377952755905512,
          "duration": 1.6399972666666685
        },
        {
          "name": "F5",
          "midi": 77,
          "time": 23.63871060208334,
          "velocity": 0.889763779527559,
          "duration": 1.558747402083334
        },
        {
          "name": "A4",
          "midi": 69,
          "time": 26.099956500000005,
          "velocity": 0.8346456692913385,
          "duration": 0.2837495270833337
        },
        {
          "name": "D5",
          "midi": 74,
          "time": 26.399956000000007,
          "velocity": 0.5984251968503937,
          "duration": 0.2837495270833337
        },
        {
          "name": "F5",
          "midi": 77,
          "time": 26.69995550000001,
          "velocity": 0.7795275590551181,
          "duration": 0.2837495270833337
        },
        {
          "name": "A#4",
          "midi": 70,
          "time": 26.99995500000001,
          "velocity": 0.6692913385826772,
          "duration": 1.198748002083331
        },
        {
          "name": "D5",
          "midi": 74,
          "time": 27.07870486875001,
          "velocity": 0.5590551181102362,
          "duration": 1.1187481354166664
        },
        {
          "name": "A5",
          "midi": 81,
          "time": 27.158704735416677,
          "velocity": 0.6456692913385826,
          "duration": 1.0387482687499983
        },
        {
          "name": "A#4",
          "midi": 70,
          "time": 28.199953000000008,
          "velocity": 0.5590551181102362,
          "duration": 0.5687490520833336
        },
        {
          "name": "D5",
          "midi": 74,
          "time": 28.199953000000008,
          "velocity": 0.6929133858267716,
          "duration": 0.5687490520833336
        },
        {
          "name": "G5",
          "midi": 79,
          "time": 28.199953000000008,
          "velocity": 0.5511811023622047,
          "duration": 0.5687490520833336
        },
        {
          "name": "A#4",
          "midi": 70,
          "time": 28.799952000000008,
          "velocity": 0.6850393700787402,
          "duration": 1.7087471520833333
        },
        {
          "name": "C#5",
          "midi": 73,
          "time": 28.799952000000008,
          "velocity": 0.5984251968503937,
          "duration": 0.5687490520833336
        },
        {
          "name": "F5",
          "midi": 77,
          "time": 28.799952000000008,
          "velocity": 0.6062992125984252,
          "duration": 0.5687490520833336
        },
        {
          "name": "C#5",
          "midi": 73,
          "time": 29.39995100000001,
          "velocity": 0.6692913385826772,
          "duration": 1.1387481020833334
        },
        {
          "name": "E5",
          "midi": 76,
          "time": 29.39995100000001,
          "velocity": 0.6850393700787402,
          "duration": 0.5687490520833336
        },
        {
          "name": "F5",
          "midi": 77,
          "time": 29.99995000000001,
          "velocity": 0.5826771653543307,
          "duration": 0.5687490520833336
        },
        {
          "name": "A4",
          "midi": 69,
          "time": 30.59994900000001,
          "velocity": 0.49606299212598426,
          "duration": 1.7687470520833273
        },
        {
          "name": "D5",
          "midi": 74,
          "time": 30.678698868750008,
          "velocity": 0.5433070866141733,
          "duration": 1.6887471854166627
        },
        {
          "name": "G5",
          "midi": 79,
          "time": 30.758698735416676,
          "velocity": 0.7716535433070866,
          "duration": 1.0387482687499983
        },
        {
          "name": "F5",
          "midi": 77,
          "time": 31.799947000000007,
          "velocity": 0.6535433070866141,
          "duration": 0.56874905208333
        },
        {
          "name": "A4",
          "midi": 69,
          "time": 32.399946,
          "velocity": 0.6535433070866141,
          "duration": 1.7087471520833333
        },
        {
          "name": "E5",
          "midi": 76,
          "time": 32.399946,
          "velocity": 0.6220472440944882,
          "duration": 1.1387481020833334
        },
        {
          "name": "D5",
          "midi": 74,
          "time": 33.599944,
          "velocity": 0.6614173228346457,
          "duration": 0.5687490520833336
        },
        {
          "name": "D4",
          "midi": 62,
          "time": 34.199943,
          "velocity": 0.5433070866141733,
          "duration": 1.7087471520833262
        },
        {
          "name": "F4",
          "midi": 65,
          "time": 34.199943,
          "velocity": 0.5118110236220472,
          "duration": 1.7087471520833262
        },
        {
          "name": "C5",
          "midi": 72,
          "time": 34.199943,
          "velocity": 0.5511811023622047,
          "duration": 0.5687490520833336
        },
        {
          "name": "A#4",
          "midi": 70,
          "time": 34.799941999999994,
          "velocity": 0.6692913385826772,
          "duration": 0.5687490520833336
        },
        {
          "name": "C5",
          "midi": 72,
          "time": 35.39994099999999,
          "velocity": 0.6141732283464567,
          "duration": 0.5687490520833336
        },
        {
          "name": "D5",
          "midi": 74,
          "time": 35.99993999999999,
          "velocity": 0.7559055118110236,
          "duration": 0.5687490520833336
        },
        {
          "name": "C5",
          "midi": 72,
          "time": 36.599938999999985,
          "velocity": 0.5590551181102362,
          "duration": 0.5687490520833336
        },
        {
          "name": "G4",
          "midi": 67,
          "time": 37.19993799999998,
          "velocity": 0.3464566929133858,
          "duration": 0.5687490520833336
        },
        {
          "name": "A4",
          "midi": 69,
          "time": 37.79993699999998,
          "velocity": 0.5196850393700787,
          "duration": 0.5687490520833336
        },
        {
          "name": "D4",
          "midi": 62,
          "time": 38.69993549999998,
          "velocity": 0.6535433070866141,
          "duration": 0.2837495270833301
        },
        {
          "name": "G4",
          "midi": 67,
          "time": 38.99993499999998,
          "velocity": 0.5196850393700787,
          "duration": 0.2837495270833301
        },
        {
          "name": "A4",
          "midi": 69,
          "time": 39.29993449999998,
          "velocity": 0.7401574803149606,
          "duration": 0.2837495270833301
        },
        {
          "name": "D4",
          "midi": 62,
          "time": 39.599933999999976,
          "velocity": 0.7244094488188977,
          "duration": 0.3399994333333325
        },
        {
          "name": "D#4",
          "midi": 63,
          "time": 39.599933999999976,
          "velocity": 0.6062992125984252,
          "duration": 0.3399994333333325
        },
        {
          "name": "F#4",
          "midi": 66,
          "time": 39.959933399999976,
          "velocity": 0.6614173228346457,
          "duration": 0.3399994333333325
        },
        {
          "name": "A4",
          "midi": 69,
          "time": 39.959933399999976,
          "velocity": 0.7795275590551181,
          "duration": 0.3399994333333325
        },
        {
          "name": "A4",
          "midi": 69,
          "time": 40.319932799999975,
          "velocity": 0.5118110236220472,
          "duration": 0.3399994333333325
        },
        {
          "name": "C5",
          "midi": 72,
          "time": 40.319932799999975,
          "velocity": 0.6929133858267716,
          "duration": 0.3399994333333325
        },
        {
          "name": "G4",
          "midi": 67,
          "time": 40.679932199999975,
          "velocity": 0.6456692913385826,
          "duration": 0.8724985458333308
        },
        {
          "name": "A#4",
          "midi": 70,
          "time": 40.679932199999975,
          "velocity": 0.5748031496062992,
          "duration": 0.8724985458333308
        },
        {
          "name": "F#4",
          "midi": 66,
          "time": 41.59993066666664,
          "velocity": 0.6771653543307087,
          "duration": 1.51874746875
        },
        {
          "name": "A4",
          "midi": 69,
          "time": 41.59993066666664,
          "velocity": 0.7007874015748031,
          "duration": 1.51874746875
        },
        {
          "name": "A4",
          "midi": 69,
          "time": 43.79992699999997,
          "velocity": 0.6062992125984252,
          "duration": 0.2837495270833301
        },
        {
          "name": "C5",
          "midi": 72,
          "time": 43.79992699999997,
          "velocity": 0.5748031496062992,
          "duration": 0.2837495270833301
        },
        {
          "name": "G4",
          "midi": 67,
          "time": 44.09992649999997,
          "velocity": 0.5669291338582677,
          "duration": 0.85374857708333
        },
        {
          "name": "A#4",
          "midi": 70,
          "time": 44.09992649999997,
          "velocity": 0.5433070866141733,
          "duration": 0.85374857708333
        },
        {
          "name": "F#4",
          "midi": 66,
          "time": 44.99992499999996,
          "velocity": 0.6929133858267716,
          "duration": 0.2837495270833301
        },
        {
          "name": "A4",
          "midi": 69,
          "time": 44.99992499999996,
          "velocity": 0.5118110236220472,
          "duration": 0.2837495270833301
        },
        {
          "name": "D#4",
          "midi": 63,
          "time": 45.29992449999996,
          "velocity": 0.6692913385826772,
          "duration": 0.42624928958333186
        },
        {
          "name": "G4",
          "midi": 67,
          "time": 45.29992449999996,
          "velocity": 0.6692913385826772,
          "duration": 0.42624928958333186
        },
        {
          "name": "D4",
          "midi": 62,
          "time": 45.74992374999996,
          "velocity": 0.6299212598425197,
          "duration": 0.42624928958333186
        },
        {
          "name": "F#4",
          "midi": 66,
          "time": 45.74992374999996,
          "velocity": 0.6456692913385826,
          "duration": 0.42624928958333186
        },
        {
          "name": "C4",
          "midi": 60,
          "time": 46.199922999999956,
          "velocity": 0.7874015748031497,
          "duration": 0.5687490520833336
        },
        {
          "name": "D#4",
          "midi": 63,
          "time": 46.199922999999956,
          "velocity": 0.49606299212598426,
          "duration": 0.5687490520833336
        },
        {
          "name": "A3",
          "midi": 57,
          "time": 46.79992199999995,
          "velocity": 0.6299212598425197,
          "duration": 3.418744302083333
        },
        {
          "name": "D4",
          "midi": 62,
          "time": 46.79992199999995,
          "velocity": 0.6929133858267716,
          "duration": 3.418744302083333
        },
        {
          "name": "D4",
          "midi": 62,
          "time": 55.799906999999955,
          "velocity": 0.7086614173228346,
          "duration": 0.5687490520833336
        },
        {
          "name": "G4",
          "midi": 67,
          "time": 56.39990599999995,
          "velocity": 0.6692913385826772,
          "duration": 0.5687490520833336
        },
        {
          "name": "F#4",
          "midi": 66,
          "time": 56.99990499999995,
          "velocity": 0.4645669291338583,
          "duration": 0.5687490520833336
        },
        {
          "name": "A#4",
          "midi": 70,
          "time": 56.99990499999995,
          "velocity": 0.6456692913385826,
          "duration": 0.5687490520833336
        },
        {
          "name": "G4",
          "midi": 67,
          "time": 57.599903999999945,
          "velocity": 0.6535433070866141,
          "duration": 1.1387481020833334
        },
        {
          "name": "A#4",
          "midi": 70,
          "time": 57.599903999999945,
          "velocity": 0.5590551181102362,
          "duration": 1.1387481020833334
        },
        {
          "name": "D5",
          "midi": 74,
          "time": 57.599903999999945,
          "velocity": 0.6535433070866141,
          "duration": 1.1387481020833334
        },
        {
          "name": "D5",
          "midi": 74,
          "time": 58.799901999999946,
          "velocity": 0.7322834645669292,
          "duration": 0.5687490520833336
        },
        {
          "name": "C5",
          "midi": 72,
          "time": 59.39990099999994,
          "velocity": 0.7007874015748031,
          "duration": 0.5687490520833336
        },
        {
          "name": "A#4",
          "midi": 70,
          "time": 59.99989999999994,
          "velocity": 0.6377952755905512,
          "duration": 0.5687490520833336
        },
        {
          "name": "A4",
          "midi": 69,
          "time": 60.59989899999994,
          "velocity": 0.6377952755905512,
          "duration": 0.5687490520833336
        },
        {
          "name": "A#4",
          "midi": 70,
          "time": 61.19989799999993,
          "velocity": 0.6456692913385826,
          "duration": 1.7087471520833333
        },
        {
          "name": "G4",
          "midi": 67,
          "time": 62.99989499999993,
          "velocity": 0.7322834645669292,
          "duration": 0.5687490520833336
        },
        {
          "name": "A#4",
          "midi": 70,
          "time": 63.59989399999993,
          "velocity": 0.7874015748031497,
          "duration": 0.5687490520833265
        },
        {
          "name": "D5",
          "midi": 74,
          "time": 64.19989299999992,
          "velocity": 0.7952755905511811,
          "duration": 0.5687490520833336
        },
        {
          "name": "A#4",
          "midi": 70,
          "time": 64.79989199999991,
          "velocity": 0.7007874015748031,
          "duration": 1.1387481020833263
        },
        {
          "name": "G5",
          "midi": 79,
          "time": 64.79989199999991,
          "velocity": 0.7007874015748031,
          "duration": 1.1387481020833263
        },
        {
          "name": "A#4",
          "midi": 70,
          "time": 65.99988999999991,
          "velocity": 0.8031496062992126,
          "duration": 0.5687490520833336
        },
        {
          "name": "G5",
          "midi": 79,
          "time": 65.99988999999991,
          "velocity": 0.6692913385826772,
          "duration": 0.5687490520833336
        },
        {
          "name": "A#4",
          "midi": 70,
          "time": 66.5998889999999,
          "velocity": 0.7322834645669292,
          "duration": 0.5687490520833336
        },
        {
          "name": "G5",
          "midi": 79,
          "time": 66.5998889999999,
          "velocity": 0.7165354330708661,
          "duration": 0.5687490520833336
        },
        {
          "name": "F5",
          "midi": 77,
          "time": 67.1998879999999,
          "velocity": 0.5275590551181102,
          "duration": 0.5687490520833336
        },
        {
          "name": "D#5",
          "midi": 75,
          "time": 67.7998869999999,
          "velocity": 0.6141732283464567,
          "duration": 0.5687490520833336
        },
        {
          "name": "A4",
          "midi": 69,
          "time": 68.3998859999999,
          "velocity": 0.6141732283464567,
          "duration": 1.7087471520833333
        },
        {
          "name": "D5",
          "midi": 74,
          "time": 68.3998859999999,
          "velocity": 0.6299212598425197,
          "duration": 1.7087471520833333
        },
        {
          "name": "F5",
          "midi": 77,
          "time": 68.3998859999999,
          "velocity": 0.5905511811023622,
          "duration": 1.7087471520833333
        },
        {
          "name": "A4",
          "midi": 69,
          "time": 70.1998829999999,
          "velocity": 0.6850393700787402,
          "duration": 0.5687490520833336
        },
        {
          "name": "D5",
          "midi": 74,
          "time": 70.7998819999999,
          "velocity": 0.7559055118110236,
          "duration": 0.5687490520833336
        },
        {
          "name": "F5",
          "midi": 77,
          "time": 71.3998809999999,
          "velocity": 0.6771653543307087,
          "duration": 0.5687490520833336
        },
        {
          "name": "A#4",
          "midi": 70,
          "time": 71.99987999999989,
          "velocity": 0.6614173228346457,
          "duration": 1.1387481020833263
        },
        {
          "name": "D5",
          "midi": 74,
          "time": 71.99987999999989,
          "velocity": 0.6220472440944882,
          "duration": 1.1387481020833263
        },
        {
          "name": "A5",
          "midi": 81,
          "time": 71.99987999999989,
          "velocity": 0.6850393700787402,
          "duration": 1.1387481020833263
        },
        {
          "name": "A#4",
          "midi": 70,
          "time": 73.19987799999988,
          "velocity": 0.6062992125984252,
          "duration": 0.5687490520833336
        },
        {
          "name": "D5",
          "midi": 74,
          "time": 73.19987799999988,
          "velocity": 0.6220472440944882,
          "duration": 0.5687490520833336
        },
        {
          "name": "G5",
          "midi": 79,
          "time": 73.19987799999988,
          "velocity": 0.7244094488188977,
          "duration": 0.5687490520833336
        },
        {
          "name": "A#4",
          "midi": 70,
          "time": 73.79987699999988,
          "velocity": 0.6614173228346457,
          "duration": 0.5687490520833336
        },
        {
          "name": "C#5",
          "midi": 73,
          "time": 73.79987699999988,
          "velocity": 0.5118110236220472,
          "duration": 0.5687490520833336
        },
        {
          "name": "F5",
          "midi": 77,
          "time": 73.79987699999988,
          "velocity": 0.7952755905511811,
          "duration": 0.5687490520833336
        },
        {
          "name": "C#5",
          "midi": 73,
          "time": 74.39987599999988,
          "velocity": 0.6614173228346457,
          "duration": 0.5687490520833336
        },
        {
          "name": "E5",
          "midi": 76,
          "time": 74.39987599999988,
          "velocity": 0.6535433070866141,
          "duration": 0.5687490520833336
        },
        {
          "name": "F5",
          "midi": 77,
          "time": 74.99987499999988,
          "velocity": 0.7086614173228346,
          "duration": 0.5687490520833336
        },
        {
          "name": "A4",
          "midi": 69,
          "time": 75.59987399999987,
          "velocity": 0.6299212598425197,
          "duration": 1.1387481020833263
        },
        {
          "name": "D5",
          "midi": 74,
          "time": 75.59987399999987,
          "velocity": 0.7244094488188977,
          "duration": 1.1387481020833263
        },
        {
          "name": "G5",
          "midi": 79,
          "time": 75.59987399999987,
          "velocity": 0.7559055118110236,
          "duration": 1.1387481020833263
        },
        {
          "name": "F5",
          "midi": 77,
          "time": 76.79987199999987,
          "velocity": 0.7322834645669292,
          "duration": 0.5687490520833336
        },
        {
          "name": "A4",
          "midi": 69,
          "time": 77.39987099999986,
          "velocity": 0.7401574803149606,
          "duration": 1.1387481020833263
        },
        {
          "name": "E5",
          "midi": 76,
          "time": 77.39987099999986,
          "velocity": 0.6299212598425197,
          "duration": 1.1387481020833263
        },
        {
          "name": "D5",
          "midi": 74,
          "time": 78.59986899999986,
          "velocity": 0.7165354330708661,
          "duration": 0.5687490520833336
        },
        {
          "name": "D4",
          "midi": 62,
          "time": 79.19986799999985,
          "velocity": 0.6456692913385826,
          "duration": 0.5687490520833336
        },
        {
          "name": "F4",
          "midi": 65,
          "time": 79.19986799999985,
          "velocity": 0.5354330708661418,
          "duration": 0.5687490520833336
        },
        {
          "name": "C5",
          "midi": 72,
          "time": 79.19986799999985,
          "velocity": 0.6377952755905512,
          "duration": 0.5687490520833336
        },
        {
          "name": "A#4",
          "midi": 70,
          "time": 79.79986699999985,
          "velocity": 0.6220472440944882,
          "duration": 0.5687490520833336
        },
        {
          "name": "C5",
          "midi": 72,
          "time": 80.39986599999985,
          "velocity": 0.6929133858267716,
          "duration": 0.5687490520833336
        },
        {
          "name": "D5",
          "midi": 74,
          "time": 80.99986499999984,
          "velocity": 0.7401574803149606,
          "duration": 0.5687490520833336
        },
        {
          "name": "C5",
          "midi": 72,
          "time": 81.59986399999984,
          "velocity": 0.6692913385826772,
          "duration": 0.5687490520833336
        },
        {
          "name": "G4",
          "midi": 67,
          "time": 82.19986299999984,
          "velocity": 0.7480314960629921,
          "duration": 0.5687490520833336
        },
        {
          "name": "A4",
          "midi": 69,
          "time": 82.79986199999983,
          "velocity": 0.6692913385826772,
          "duration": 1.7087471520833333
        },
        {
          "name": "D4",
          "midi": 62,
          "time": 84.59985899999984,
          "velocity": 0.7716535433070866,
          "duration": 0.5987490020833377
        },
        {
          "name": "G4",
          "midi": 67,
          "time": 85.19985799999985,
          "velocity": 0.889763779527559,
          "duration": 0.5987490020833377
        },
        {
          "name": "A#4",
          "midi": 70,
          "time": 85.79985699999986,
          "velocity": 0.7244094488188977,
          "duration": 0.5987490020833377
        },
        {
          "name": "G4",
          "midi": 67,
          "time": 86.39985599999987,
          "velocity": 0.5511811023622047,
          "duration": 1.1387481020833263
        },
        {
          "name": "A#4",
          "midi": 70,
          "time": 86.39985599999987,
          "velocity": 0.7086614173228346,
          "duration": 1.1387481020833263
        },
        {
          "name": "D5",
          "midi": 74,
          "time": 86.39985599999987,
          "velocity": 0.6614173228346457,
          "duration": 1.1387481020833263
        },
        {
          "name": "G4",
          "midi": 67,
          "time": 87.59985399999987,
          "velocity": 0.6299212598425197,
          "duration": 0.5687490520833336
        },
        {
          "name": "A#4",
          "midi": 70,
          "time": 87.59985399999987,
          "velocity": 0.5275590551181102,
          "duration": 0.5687490520833336
        },
        {
          "name": "D5",
          "midi": 74,
          "time": 87.59985399999987,
          "velocity": 0.7244094488188977,
          "duration": 0.5687490520833336
        },
        {
          "name": "C5",
          "midi": 72,
          "time": 88.19985299999986,
          "velocity": 0.7007874015748031,
          "duration": 0.5687490520833336
        },
        {
          "name": "A#4",
          "midi": 70,
          "time": 88.79985199999986,
          "velocity": 0.7322834645669292,
          "duration": 0.5687490520833336
        },
        {
          "name": "A4",
          "midi": 69,
          "time": 89.39985099999986,
          "velocity": 0.7007874015748031,
          "duration": 0.5687490520833336
        },
        {
          "name": "A#4",
          "midi": 70,
          "time": 89.99984999999985,
          "velocity": 0.7401574803149606,
          "duration": 1.7087471520833333
        },
        {
          "name": "G4",
          "midi": 67,
          "time": 91.79984699999986,
          "velocity": 0.6850393700787402,
          "duration": 0.5687490520833336
        },
        {
          "name": "A#4",
          "midi": 70,
          "time": 92.39984599999985,
          "velocity": 0.7401574803149606,
          "duration": 0.5687490520833336
        },
        {
          "name": "D5",
          "midi": 74,
          "time": 92.99984499999985,
          "velocity": 0.6929133858267716,
          "duration": 0.5687490520833336
        },
        {
          "name": "A#4",
          "midi": 70,
          "time": 93.59984399999985,
          "velocity": 0.8503937007874016,
          "duration": 1.1387481020833263
        },
        {
          "name": "G5",
          "midi": 79,
          "time": 93.59984399999985,
          "velocity": 0.7007874015748031,
          "duration": 1.1387481020833263
        },
        {
          "name": "A#4",
          "midi": 70,
          "time": 94.79984199999984,
          "velocity": 0.9212598425196851,
          "duration": 0.5687490520833336
        },
        {
          "name": "G5",
          "midi": 79,
          "time": 94.79984199999984,
          "velocity": 0.7795275590551181,
          "duration": 0.5687490520833336
        },
        {
          "name": "A#4",
          "midi": 70,
          "time": 95.39984099999984,
          "velocity": 0.8267716535433071,
          "duration": 1.1387481020833263
        },
        {
          "name": "G5",
          "midi": 79,
          "time": 95.39984099999984,
          "velocity": 0.7007874015748031,
          "duration": 0.5687490520833336
        },
        {
          "name": "A5",
          "midi": 81,
          "time": 95.99983999999984,
          "velocity": 0.6614173228346457,
          "duration": 0.5687490520833336
        },
        {
          "name": "F5",
          "midi": 77,
          "time": 96.59983899999983,
          "velocity": 0.7086614173228346,
          "duration": 0.2837495270833301
        },
        {
          "name": "D#5",
          "midi": 75,
          "time": 96.89983849999983,
          "velocity": 0.7480314960629921,
          "duration": 0.2837495270833301
        },
        {
          "name": "F5",
          "midi": 77,
          "time": 97.19983799999983,
          "velocity": 0.7322834645669292,
          "duration": 1.7087471520833333
        },
        {
          "name": "A4",
          "midi": 69,
          "time": 98.99983499999983,
          "velocity": 0.7952755905511811,
          "duration": 0.5687490520833336
        },
        {
          "name": "D5",
          "midi": 74,
          "time": 99.59983399999983,
          "velocity": 0.7401574803149606,
          "duration": 0.5687490520833336
        },
        {
          "name": "F5",
          "midi": 77,
          "time": 100.19983299999983,
          "velocity": 0.8110236220472441,
          "duration": 0.5687490520833336
        },
        {
          "name": "A#4",
          "midi": 70,
          "time": 100.79983199999982,
          "velocity": 0.6220472440944882,
          "duration": 1.1387481020833263
        },
        {
          "name": "D5",
          "midi": 74,
          "time": 100.79983199999982,
          "velocity": 0.6220472440944882,
          "duration": 1.1387481020833263
        },
        {
          "name": "A5",
          "midi": 81,
          "time": 100.79983199999982,
          "velocity": 0.6929133858267716,
          "duration": 1.1387481020833263
        },
        {
          "name": "A#4",
          "midi": 70,
          "time": 101.99982999999982,
          "velocity": 0.6535433070866141,
          "duration": 1.1387481020833263
        },
        {
          "name": "D5",
          "midi": 74,
          "time": 101.99982999999982,
          "velocity": 0.5826771653543307,
          "duration": 1.1387481020833263
        },
        {
          "name": "G5",
          "midi": 79,
          "time": 101.99982999999982,
          "velocity": 0.6535433070866141,
          "duration": 1.1387481020833263
        },
        {
          "name": "C#5",
          "midi": 73,
          "time": 103.19982799999981,
          "velocity": 0.6141732283464567,
          "duration": 0.2837495270833301
        },
        {
          "name": "F5",
          "midi": 77,
          "time": 103.19982799999981,
          "velocity": 0.5826771653543307,
          "duration": 0.2837495270833301
        },
        {
          "name": "E5",
          "midi": 76,
          "time": 103.49982749999981,
          "velocity": 0.5984251968503937,
          "duration": 0.2837495270833301
        },
        {
          "name": "D#5",
          "midi": 75,
          "time": 103.79982699999981,
          "velocity": 0.6377952755905512,
          "duration": 0.2837495270833301
        },
        {
          "name": "E5",
          "midi": 76,
          "time": 104.0998264999998,
          "velocity": 0.7716535433070866,
          "duration": 0.2837495270833301
        },
        {
          "name": "A4",
          "midi": 69,
          "time": 104.3998259999998,
          "velocity": 0.7795275590551181,
          "duration": 1.1387481020833263
        },
        {
          "name": "D5",
          "midi": 74,
          "time": 104.3998259999998,
          "velocity": 0.6299212598425197,
          "duration": 1.1387481020833263
        },
        {
          "name": "G5",
          "midi": 79,
          "time": 104.3998259999998,
          "velocity": 0.6456692913385826,
          "duration": 1.1387481020833263
        },
        {
          "name": "F5",
          "midi": 77,
          "time": 105.5998239999998,
          "velocity": 0.7165354330708661,
          "duration": 1.1387481020833263
        },
        {
          "name": "E5",
          "midi": 76,
          "time": 106.79982199999979,
          "velocity": 0.6771653543307087,
          "duration": 0.2837495270833301
        },
        {
          "name": "D5",
          "midi": 74,
          "time": 107.09982149999979,
          "velocity": 0.6456692913385826,
          "duration": 0.2837495270833301
        },
        {
          "name": "C#5",
          "midi": 73,
          "time": 107.39982099999979,
          "velocity": 0.5590551181102362,
          "duration": 0.2837495270833301
        },
        {
          "name": "D5",
          "midi": 74,
          "time": 107.69982049999979,
          "velocity": 0.5433070866141733,
          "duration": 0.2837495270833301
        },
        {
          "name": "F4",
          "midi": 65,
          "time": 107.99981999999979,
          "velocity": 0.6692913385826772,
          "duration": 0.5687490520833336
        },
        {
          "name": "A#4",
          "midi": 70,
          "time": 107.99981999999979,
          "velocity": 0.6062992125984252,
          "duration": 0.5687490520833336
        },
        {
          "name": "D5",
          "midi": 74,
          "time": 107.99981999999979,
          "velocity": 0.5984251968503937,
          "duration": 0.5687490520833336
        },
        {
          "name": "C5",
          "midi": 72,
          "time": 108.59981899999978,
          "velocity": 0.7165354330708661,
          "duration": 0.2837495270833301
        },
        {
          "name": "D5",
          "midi": 74,
          "time": 108.89981849999978,
          "velocity": 0.6141732283464567,
          "duration": 0.2837495270833301
        },
        {
          "name": "C5",
          "midi": 72,
          "time": 109.19981799999978,
          "velocity": 0.5433070866141733,
          "duration": 0.2837495270833301
        },
        {
          "name": "A#4",
          "midi": 70,
          "time": 109.49981749999978,
          "velocity": 0.6456692913385826,
          "duration": 0.2837495270833301
        },
        {
          "name": "A4",
          "midi": 69,
          "time": 109.79981699999978,
          "velocity": 0.6299212598425197,
          "duration": 0.8537485770833371
        },
        {
          "name": "B4",
          "midi": 71,
          "time": 110.69981549999979,
          "velocity": 0.6850393700787402,
          "duration": 0.2837495270833301
        },
        {
          "name": "C#5",
          "midi": 73,
          "time": 110.99981499999978,
          "velocity": 0.84251968503937,
          "duration": 0.5687490520833336
        },
        {
          "name": "D5",
          "midi": 74,
          "time": 111.59981399999978,
          "velocity": 0.6299212598425197,
          "duration": 3.41874430208334
        },
        {
          "name": "D5",
          "midi": 74,
          "time": 118.19980299999979,
          "velocity": 0.6220472440944882,
          "duration": 0.5687490520833336
        },
        {
          "name": "C5",
          "midi": 72,
          "time": 118.79980199999979,
          "velocity": 0.6692913385826772,
          "duration": 1.1387481020833263
        },
        {
          "name": "D#5",
          "midi": 75,
          "time": 118.79980199999979,
          "velocity": 0.6850393700787402,
          "duration": 1.1387481020833263
        },
        {
          "name": "A#4",
          "midi": 70,
          "time": 119.99979999999978,
          "velocity": 0.5748031496062992,
          "duration": 0.5687490520833336
        },
        {
          "name": "D5",
          "midi": 74,
          "time": 119.99979999999978,
          "velocity": 0.8346456692913385,
          "duration": 0.5687490520833336
        },
        {
          "name": "A4",
          "midi": 69,
          "time": 120.59979899999978,
          "velocity": 0.6299212598425197,
          "duration": 0.5687490520833336
        },
        {
          "name": "C5",
          "midi": 72,
          "time": 120.59979899999978,
          "velocity": 0.6535433070866141,
          "duration": 0.5687490520833336
        },
        {
          "name": "G4",
          "midi": 67,
          "time": 121.19979799999977,
          "velocity": 0.5511811023622047,
          "duration": 0.5687490520833336
        },
        {
          "name": "A#4",
          "midi": 70,
          "time": 121.19979799999977,
          "velocity": 0.7322834645669292,
          "duration": 0.5687490520833336
        },
        {
          "name": "F4",
          "midi": 65,
          "time": 121.79979699999977,
          "velocity": 0.5905511811023622,
          "duration": 0.5687490520833336
        },
        {
          "name": "A4",
          "midi": 69,
          "time": 121.79979699999977,
          "velocity": 0.5984251968503937,
          "duration": 0.5687490520833336
        },
        {
          "name": "G4",
          "midi": 67,
          "time": 122.39979599999977,
          "velocity": 0.6456692913385826,
          "duration": 0.5687490520833336
        },
        {
          "name": "A#4",
          "midi": 70,
          "time": 122.39979599999977,
          "velocity": 0.6299212598425197,
          "duration": 0.5687490520833336
        },
        {
          "name": "A4",
          "midi": 69,
          "time": 122.99979499999976,
          "velocity": 0.5826771653543307,
          "duration": 0.5687490520833336
        },
        {
          "name": "C5",
          "midi": 72,
          "time": 122.99979499999976,
          "velocity": 0.7007874015748031,
          "duration": 0.5687490520833336
        },
        {
          "name": "A#4",
          "midi": 70,
          "time": 123.59979399999976,
          "velocity": 0.7716535433070866,
          "duration": 0.5687490520833336
        },
        {
          "name": "D5",
          "midi": 74,
          "time": 123.59979399999976,
          "velocity": 0.6929133858267716,
          "duration": 0.5687490520833336
        },
        {
          "name": "D4",
          "midi": 62,
          "time": 124.19979299999976,
          "velocity": 0.7007874015748031,
          "duration": 0.5687490520833336
        },
        {
          "name": "F4",
          "midi": 65,
          "time": 124.19979299999976,
          "velocity": 0.7322834645669292,
          "duration": 0.5687490520833336
        },
        {
          "name": "C5",
          "midi": 72,
          "time": 125.99978999999976,
          "velocity": 0.6299212598425197,
          "duration": 1.1387481020833263
        },
        {
          "name": "D#5",
          "midi": 75,
          "time": 125.99978999999976,
          "velocity": 0.8188976377952756,
          "duration": 1.1387481020833263
        },
        {
          "name": "A#4",
          "midi": 70,
          "time": 127.19978799999976,
          "velocity": 0.7795275590551181,
          "duration": 0.5687490520833336
        },
        {
          "name": "D5",
          "midi": 74,
          "time": 127.19978799999976,
          "velocity": 0.7086614173228346,
          "duration": 0.5687490520833336
        },
        {
          "name": "A4",
          "midi": 69,
          "time": 127.79978699999975,
          "velocity": 0.5984251968503937,
          "duration": 0.5687490520833194
        },
        {
          "name": "C5",
          "midi": 72,
          "time": 127.79978699999975,
          "velocity": 0.5826771653543307,
          "duration": 0.5687490520833194
        },
        {
          "name": "G4",
          "midi": 67,
          "time": 128.39978599999975,
          "velocity": 0.4251968503937008,
          "duration": 0.5687490520833194
        },
        {
          "name": "A#4",
          "midi": 70,
          "time": 128.39978599999975,
          "velocity": 0.7952755905511811,
          "duration": 0.5687490520833194
        },
        {
          "name": "A4",
          "midi": 69,
          "time": 128.99978499999975,
          "velocity": 0.6062992125984252,
          "duration": 0.5687490520833194
        },
        {
          "name": "C5",
          "midi": 72,
          "time": 128.99978499999975,
          "velocity": 0.6535433070866141,
          "duration": 0.5687490520833194
        },
        {
          "name": "A#4",
          "midi": 70,
          "time": 129.59978399999974,
          "velocity": 0.7244094488188977,
          "duration": 1.7087471520833333
        },
        {
          "name": "D5",
          "midi": 74,
          "time": 129.59978399999974,
          "velocity": 0.6535433070866141,
          "duration": 1.7087471520833333
        },
        {
          "name": "D5",
          "midi": 74,
          "time": 132.59977899999976,
          "velocity": 0.6692913385826772,
          "duration": 0.5687490520833194
        },
        {
          "name": "D5",
          "midi": 74,
          "time": 133.19977799999975,
          "velocity": 0.6062992125984252,
          "duration": 0.1412497645833355
        },
        {
          "name": "E5",
          "midi": 76,
          "time": 133.34977774999976,
          "velocity": 0.8818897637795275,
          "duration": 0.1412497645833355
        },
        {
          "name": "D5",
          "midi": 74,
          "time": 133.49977749999977,
          "velocity": 0.7007874015748031,
          "duration": 0.2837495270833301
        },
        {
          "name": "C#5",
          "midi": 73,
          "time": 133.79977699999975,
          "velocity": 0.8740157480314961,
          "duration": 0.5687490520833194
        },
        {
          "name": "D5",
          "midi": 74,
          "time": 134.39977599999975,
          "velocity": 0.7559055118110236,
          "duration": 0.5687490520833194
        },
        {
          "name": "F5",
          "midi": 77,
          "time": 134.99977499999974,
          "velocity": 0.6771653543307087,
          "duration": 0.5687490520833194
        },
        {
          "name": "E5",
          "midi": 76,
          "time": 135.59977399999974,
          "velocity": 0.889763779527559,
          "duration": 0.5687490520833194
        },
        {
          "name": "D5",
          "midi": 74,
          "time": 136.19977299999974,
          "velocity": 0.5826771653543307,
          "duration": 0.5687490520833194
        },
        {
          "name": "C#5",
          "midi": 73,
          "time": 136.79977199999973,
          "velocity": 0.7480314960629921,
          "duration": 1.1387481020833263
        },
        {
          "name": "E5",
          "midi": 76,
          "time": 137.99976999999973,
          "velocity": 0.7795275590551181,
          "duration": 0.5687490520833194
        },
        {
          "name": "A4",
          "midi": 69,
          "time": 138.59976899999972,
          "velocity": 0.7086614173228346,
          "duration": 1.1387481020833263
        },
        {
          "name": "A4",
          "midi": 69,
          "time": 139.79976699999972,
          "velocity": 0.5669291338582677,
          "duration": 0.5687490520833194
        },
        {
          "name": "F5",
          "midi": 77,
          "time": 140.39976599999972,
          "velocity": 0.6692913385826772,
          "duration": 1.1387481020833263
        },
        {
          "name": "A5",
          "midi": 81,
          "time": 140.39976599999972,
          "velocity": 0.5826771653543307,
          "duration": 1.1387481020833263
        },
        {
          "name": "F5",
          "midi": 77,
          "time": 141.5997639999997,
          "velocity": 0.6850393700787402,
          "duration": 0.5687490520833194
        },
        {
          "name": "A5",
          "midi": 81,
          "time": 141.5997639999997,
          "velocity": 0.6456692913385826,
          "duration": 0.5687490520833194
        },
        {
          "name": "F5",
          "midi": 77,
          "time": 142.1997629999997,
          "velocity": 0.6377952755905512,
          "duration": 0.5687490520833194
        },
        {
          "name": "A5",
          "midi": 81,
          "time": 142.1997629999997,
          "velocity": 0.6535433070866141,
          "duration": 0.5687490520833194
        },
        {
          "name": "E5",
          "midi": 76,
          "time": 142.7997619999997,
          "velocity": 0.7874015748031497,
          "duration": 0.5687490520833194
        },
        {
          "name": "G5",
          "midi": 79,
          "time": 142.7997619999997,
          "velocity": 0.7795275590551181,
          "duration": 0.5687490520833194
        },
        {
          "name": "D5",
          "midi": 74,
          "time": 143.3997609999997,
          "velocity": 0.6456692913385826,
          "duration": 0.5687490520833194
        },
        {
          "name": "F5",
          "midi": 77,
          "time": 143.3997609999997,
          "velocity": 0.7165354330708661,
          "duration": 0.5687490520833194
        },
        {
          "name": "E5",
          "midi": 76,
          "time": 143.9997599999997,
          "velocity": 0.7795275590551181,
          "duration": 1.7087471520833333
        },
        {
          "name": "G5",
          "midi": 79,
          "time": 143.9997599999997,
          "velocity": 0.7086614173228346,
          "duration": 1.7087471520833333
        },
        {
          "name": "D5",
          "midi": 74,
          "time": 147.5997539999997,
          "velocity": 0.7480314960629921,
          "duration": 1.1387481020833263
        },
        {
          "name": "F#5",
          "midi": 78,
          "time": 147.5997539999997,
          "velocity": 0.5905511811023622,
          "duration": 0.5687490520833194
        },
        {
          "name": "D5",
          "midi": 74,
          "time": 148.7997519999997,
          "velocity": 0.8503937007874016,
          "duration": 0.5687490520833194
        },
        {
          "name": "F#5",
          "midi": 78,
          "time": 148.7997519999997,
          "velocity": 0.6377952755905512,
          "duration": 0.5687490520833194
        },
        {
          "name": "D5",
          "midi": 74,
          "time": 149.3997509999997,
          "velocity": 0.7637795275590551,
          "duration": 0.5687490520833194
        },
        {
          "name": "F#5",
          "midi": 78,
          "time": 149.3997509999997,
          "velocity": 0.7874015748031497,
          "duration": 0.5687490520833194
        },
        {
          "name": "E5",
          "midi": 76,
          "time": 149.9997499999997,
          "velocity": 0.5826771653543307,
          "duration": 0.5687490520833194
        },
        {
          "name": "G5",
          "midi": 79,
          "time": 149.9997499999997,
          "velocity": 0.7244094488188977,
          "duration": 0.5687490520833194
        },
        {
          "name": "F#5",
          "midi": 78,
          "time": 150.5997489999997,
          "velocity": 0.6929133858267716,
          "duration": 0.5687490520833194
        },
        {
          "name": "A5",
          "midi": 81,
          "time": 150.5997489999997,
          "velocity": 0.5354330708661418,
          "duration": 0.5687490520833194
        },
        {
          "name": "G5",
          "midi": 79,
          "time": 151.1997479999997,
          "velocity": 0.7244094488188977,
          "duration": 0.5687490520833194
        },
        {
          "name": "A#5",
          "midi": 82,
          "time": 151.1997479999997,
          "velocity": 0.8031496062992126,
          "duration": 0.5687490520833194
        },
        {
          "name": "F6",
          "midi": 89,
          "time": 151.79974699999968,
          "velocity": 0.7086614173228346,
          "duration": 0.18874968541666703
        },
        {
          "name": "E6",
          "midi": 88,
          "time": 151.99974666666634,
          "velocity": 0.6614173228346457,
          "duration": 0.18874968541666703
        },
        {
          "name": "D#6",
          "midi": 87,
          "time": 152.199746333333,
          "velocity": 0.7244094488188977,
          "duration": 0.18874968541666703
        },
        {
          "name": "D6",
          "midi": 86,
          "time": 152.39974599999965,
          "velocity": 0.6377952755905512,
          "duration": 0.18874968541666703
        },
        {
          "name": "C#6",
          "midi": 85,
          "time": 152.5997456666663,
          "velocity": 0.6141732283464567,
          "duration": 0.18874968541666703
        },
        {
          "name": "C6",
          "midi": 84,
          "time": 152.79974533333296,
          "velocity": 0.7322834645669292,
          "duration": 0.18874968541666703
        },
        {
          "name": "A#5",
          "midi": 82,
          "time": 152.99974499999962,
          "velocity": 0.6614173228346457,
          "duration": 0.5687490520833194
        },
        {
          "name": "A#5",
          "midi": 82,
          "time": 153.59974399999962,
          "velocity": 0.6929133858267716,
          "duration": 0.18874968541666703
        },
        {
          "name": "A5",
          "midi": 81,
          "time": 153.79974366666627,
          "velocity": 0.6614173228346457,
          "duration": 0.18874968541666703
        },
        {
          "name": "G#5",
          "midi": 80,
          "time": 153.99974333333293,
          "velocity": 0.7874015748031497,
          "duration": 0.18874968541666703
        },
        {
          "name": "G5",
          "midi": 79,
          "time": 154.1997429999996,
          "velocity": 0.7086614173228346,
          "duration": 0.18874968541666703
        },
        {
          "name": "F#5",
          "midi": 78,
          "time": 154.39974266666624,
          "velocity": 0.6929133858267716,
          "duration": 0.18874968541666703
        },
        {
          "name": "F5",
          "midi": 77,
          "time": 154.5997423333329,
          "velocity": 0.5511811023622047,
          "duration": 0.18874968541666703
        },
        {
          "name": "C5",
          "midi": 72,
          "time": 154.79974199999955,
          "velocity": 0.6692913385826772,
          "duration": 1.1387481020833263
        },
        {
          "name": "E5",
          "midi": 76,
          "time": 154.79974199999955,
          "velocity": 0.6850393700787402,
          "duration": 1.1387481020833263
        },
        {
          "name": "C5",
          "midi": 72,
          "time": 155.99973999999955,
          "velocity": 0.8503937007874016,
          "duration": 0.5687490520833194
        },
        {
          "name": "E5",
          "midi": 76,
          "time": 155.99973999999955,
          "velocity": 0.7559055118110236,
          "duration": 0.5687490520833194
        },
        {
          "name": "C5",
          "midi": 72,
          "time": 156.59973899999954,
          "velocity": 0.7165354330708661,
          "duration": 0.5687490520833194
        },
        {
          "name": "E5",
          "midi": 76,
          "time": 156.59973899999954,
          "velocity": 0.6141732283464567,
          "duration": 0.5687490520833194
        },
        {
          "name": "D5",
          "midi": 74,
          "time": 157.19973799999954,
          "velocity": 0.7086614173228346,
          "duration": 0.5687490520833194
        },
        {
          "name": "F5",
          "midi": 77,
          "time": 157.19973799999954,
          "velocity": 0.6692913385826772,
          "duration": 0.5687490520833194
        },
        {
          "name": "E5",
          "midi": 76,
          "time": 157.79973699999954,
          "velocity": 0.6771653543307087,
          "duration": 0.5687490520833194
        },
        {
          "name": "G5",
          "midi": 79,
          "time": 157.79973699999954,
          "velocity": 0.7244094488188977,
          "duration": 0.5687490520833194
        },
        {
          "name": "F5",
          "midi": 77,
          "time": 158.39973599999954,
          "velocity": 0.6141732283464567,
          "duration": 0.5687490520833194
        },
        {
          "name": "A5",
          "midi": 81,
          "time": 158.39973599999954,
          "velocity": 0.6850393700787402,
          "duration": 0.5687490520833194
        },
        {
          "name": "G5",
          "midi": 79,
          "time": 158.99973499999953,
          "velocity": 0.7952755905511811,
          "duration": 0.18874968541666703
        },
        {
          "name": "F#5",
          "midi": 78,
          "time": 159.1997346666662,
          "velocity": 0.6535433070866141,
          "duration": 0.18874968541666703
        },
        {
          "name": "F5",
          "midi": 77,
          "time": 159.39973433333284,
          "velocity": 0.6771653543307087,
          "duration": 0.18874968541666703
        },
        {
          "name": "E5",
          "midi": 76,
          "time": 159.5997339999995,
          "velocity": 0.5511811023622047,
          "duration": 0.18874968541666703
        },
        {
          "name": "D#5",
          "midi": 75,
          "time": 159.79973366666616,
          "velocity": 0.6220472440944882,
          "duration": 0.18874968541666703
        },
        {
          "name": "D5",
          "midi": 74,
          "time": 159.9997333333328,
          "velocity": 0.7795275590551181,
          "duration": 0.18874968541666703
        },
        {
          "name": "C5",
          "midi": 72,
          "time": 160.19973299999947,
          "velocity": 0.7401574803149606,
          "duration": 0.5687490520833194
        },
        {
          "name": "G5",
          "midi": 79,
          "time": 160.79973199999947,
          "velocity": 0.7165354330708661,
          "duration": 0.5687490520833194
        },
        {
          "name": "F5",
          "midi": 77,
          "time": 161.39973099999946,
          "velocity": 0.5984251968503937,
          "duration": 0.5687490520833194
        },
        {
          "name": "B4",
          "midi": 71,
          "time": 161.99972999999946,
          "velocity": 0.6614173228346457,
          "duration": 0.5687490520833194
        },
        {
          "name": "E5",
          "midi": 76,
          "time": 161.99972999999946,
          "velocity": 0.84251968503937,
          "duration": 0.5687490520833194
        },
        {
          "name": "D#5",
          "midi": 75,
          "time": 162.59972899999946,
          "velocity": 0.8346456692913385,
          "duration": 0.5687490520833194
        },
        {
          "name": "E5",
          "midi": 76,
          "time": 163.19972799999945,
          "velocity": 0.889763779527559,
          "duration": 0.5687490520833194
        },
        {
          "name": "G5",
          "midi": 79,
          "time": 163.79972699999945,
          "velocity": 0.8503937007874016,
          "duration": 0.5687490520833194
        },
        {
          "name": "F5",
          "midi": 77,
          "time": 164.39972599999945,
          "velocity": 0.6692913385826772,
          "duration": 0.5687490520833194
        },
        {
          "name": "E5",
          "midi": 76,
          "time": 164.99972499999944,
          "velocity": 0.8110236220472441,
          "duration": 0.5687490520833194
        },
        {
          "name": "A4",
          "midi": 69,
          "time": 165.59972399999944,
          "velocity": 0.7480314960629921,
          "duration": 0.5687490520833194
        },
        {
          "name": "D5",
          "midi": 74,
          "time": 165.59972399999944,
          "velocity": 0.6929133858267716,
          "duration": 0.5687490520833194
        },
        {
          "name": "C#5",
          "midi": 73,
          "time": 166.19972299999944,
          "velocity": 0.8110236220472441,
          "duration": 0.5687490520833194
        },
        {
          "name": "D5",
          "midi": 74,
          "time": 166.79972199999943,
          "velocity": 0.7559055118110236,
          "duration": 0.5687490520833194
        },
        {
          "name": "E5",
          "midi": 76,
          "time": 167.39972099999943,
          "velocity": 0.968503937007874,
          "duration": 1.1387481020833263
        },
        {
          "name": "A5",
          "midi": 81,
          "time": 168.59971899999942,
          "velocity": 0.6692913385826772,
          "duration": 0.5687490520833194
        },
        {
          "name": "C5",
          "midi": 72,
          "time": 169.19971799999942,
          "velocity": 0.84251968503937,
          "duration": 1.1387481020833263
        },
        {
          "name": "D#5",
          "midi": 75,
          "time": 169.19971799999942,
          "velocity": 0.7165354330708661,
          "duration": 1.1387481020833263
        },
        {
          "name": "G5",
          "midi": 79,
          "time": 169.19971799999942,
          "velocity": 0.7401574803149606,
          "duration": 1.1387481020833263
        },
        {
          "name": "C6",
          "midi": 84,
          "time": 169.19971799999942,
          "velocity": 0.7559055118110236,
          "duration": 1.1387481020833263
        },
        {
          "name": "A#5",
          "midi": 82,
          "time": 170.39971599999942,
          "velocity": 0.7795275590551181,
          "duration": 0.5687490520833194
        },
        {
          "name": "A5",
          "midi": 81,
          "time": 170.9997149999994,
          "velocity": 0.8582677165354331,
          "duration": 1.1387481020833263
        },
        {
          "name": "G5",
          "midi": 79,
          "time": 172.1997129999994,
          "velocity": 0.6614173228346457,
          "duration": 0.5687490520833194
        },
        {
          "name": "F#5",
          "midi": 78,
          "time": 172.7997119999994,
          "velocity": 0.7244094488188977,
          "duration": 0.2837495270833301
        },
        {
          "name": "A5",
          "midi": 81,
          "time": 173.0997114999994,
          "velocity": 0.6771653543307087,
          "duration": 0.2837495270833301
        },
        {
          "name": "C5",
          "midi": 72,
          "time": 173.39971099999937,
          "velocity": 0.6614173228346457,
          "duration": 0.18874968541666703
        },
        {
          "name": "D5",
          "midi": 74,
          "time": 173.59971066666603,
          "velocity": 0.5984251968503937,
          "duration": 0.18874968541666703
        },
        {
          "name": "C5",
          "midi": 72,
          "time": 173.79971033333268,
          "velocity": 0.5511811023622047,
          "duration": 0.18874968541666703
        },
        {
          "name": "A#4",
          "midi": 70,
          "time": 173.99970999999934,
          "velocity": 0.5748031496062992,
          "duration": 0.29874950208332507
        },
        {
          "name": "A#4",
          "midi": 70,
          "time": 175.19970799999933,
          "velocity": 0.5039370078740157,
          "duration": 0.18874968541666703
        },
        {
          "name": "C5",
          "midi": 72,
          "time": 175.399707666666,
          "velocity": 0.48031496062992124,
          "duration": 0.18874968541666703
        },
        {
          "name": "A#4",
          "midi": 70,
          "time": 175.59970733333265,
          "velocity": 0.5196850393700787,
          "duration": 0.18874968541666703
        },
        {
          "name": "A4",
          "midi": 69,
          "time": 175.7997069999993,
          "velocity": 0.5275590551181102,
          "duration": 0.29874950208332507
        },
        {
          "name": "G4",
          "midi": 67,
          "time": 176.9997049999993,
          "velocity": 0.44881889763779526,
          "duration": 0.18874968541666703
        },
        {
          "name": "A4",
          "midi": 69,
          "time": 177.19970466666595,
          "velocity": 0.5039370078740157,
          "duration": 0.18874968541666703
        },
        {
          "name": "G4",
          "midi": 67,
          "time": 177.3997043333326,
          "velocity": 0.4015748031496063,
          "duration": 0.18874968541666703
        },
        {
          "name": "F#4",
          "midi": 66,
          "time": 177.59970399999926,
          "velocity": 0.3858267716535433,
          "duration": 0.29874950208332507
        },
        {
          "name": "D4",
          "midi": 62,
          "time": 178.19970299999926,
          "velocity": 0.6535433070866141,
          "duration": 0.5687490520833194
        },
        {
          "name": "G4",
          "midi": 67,
          "time": 178.79970199999926,
          "velocity": 0.7322834645669292,
          "duration": 0.5687490520833194
        },
        {
          "name": "A#4",
          "midi": 70,
          "time": 179.39970099999925,
          "velocity": 0.7874015748031497,
          "duration": 0.5687490520833194
        },
        {
          "name": "D#4",
          "midi": 63,
          "time": 179.99969999999925,
          "velocity": 0.6220472440944882,
          "duration": 1.1987480020833345
        },
        {
          "name": "G4",
          "midi": 67,
          "time": 180.07844986874926,
          "velocity": 0.7480314960629921,
          "duration": 1.1187481354166664
        },
        {
          "name": "A#4",
          "midi": 70,
          "time": 180.15844973541593,
          "velocity": 0.6614173228346457,
          "duration": 1.0387482687499983
        },
        {
          "name": "D5",
          "midi": 74,
          "time": 180.23969959999926,
          "velocity": 0.7952755905511811,
          "duration": 0.9587484020833301
        },
        {
          "name": "G4",
          "midi": 67,
          "time": 181.19969799999924,
          "velocity": 0.7165354330708661,
          "duration": 0.5987490020833377
        },
        {
          "name": "A#4",
          "midi": 70,
          "time": 181.27844786874925,
          "velocity": 0.6614173228346457,
          "duration": 0.5187491354166696
        },
        {
          "name": "D5",
          "midi": 74,
          "time": 181.35844773541592,
          "velocity": 0.8267716535433071,
          "duration": 0.4387492687500014
        },
        {
          "name": "D4",
          "midi": 62,
          "time": 181.79969699999924,
          "velocity": 0.7007874015748031,
          "duration": 0.5687490520833194
        },
        {
          "name": "F#4",
          "midi": 66,
          "time": 181.79969699999924,
          "velocity": 0.5905511811023622,
          "duration": 0.5687490520833194
        },
        {
          "name": "C5",
          "midi": 72,
          "time": 181.79969699999924,
          "velocity": 0.7401574803149606,
          "duration": 0.5687490520833194
        },
        {
          "name": "A#4",
          "midi": 70,
          "time": 182.39969599999924,
          "velocity": 0.7244094488188977,
          "duration": 0.5687490520833194
        },
        {
          "name": "A4",
          "midi": 69,
          "time": 182.99969499999924,
          "velocity": 0.7952755905511811,
          "duration": 0.5687490520833194
        },
        {
          "name": "A#4",
          "midi": 70,
          "time": 183.59969399999923,
          "velocity": 0.5984251968503937,
          "duration": 1.7087471520833333
        },
        {
          "name": "G4",
          "midi": 67,
          "time": 185.39969099999922,
          "velocity": 0.937007874015748,
          "duration": 0.5687490520833194
        },
        {
          "name": "A#4",
          "midi": 70,
          "time": 185.99968999999922,
          "velocity": 0.8582677165354331,
          "duration": 0.5687490520833194
        },
        {
          "name": "D5",
          "midi": 74,
          "time": 186.59968899999922,
          "velocity": 0.7165354330708661,
          "duration": 0.5687490520833194
        },
        {
          "name": "A#4",
          "midi": 70,
          "time": 187.1996879999992,
          "velocity": 0.7637795275590551,
          "duration": 1.1387481020833263
        },
        {
          "name": "D5",
          "midi": 74,
          "time": 187.1996879999992,
          "velocity": 0.8031496062992126,
          "duration": 1.1387481020833263
        },
        {
          "name": "G5",
          "midi": 79,
          "time": 187.1996879999992,
          "velocity": 0.7165354330708661,
          "duration": 1.1387481020833263
        },
        {
          "name": "A#4",
          "midi": 70,
          "time": 188.3996859999992,
          "velocity": 0.7401574803149606,
          "duration": 0.5687490520833194
        },
        {
          "name": "D5",
          "midi": 74,
          "time": 188.3996859999992,
          "velocity": 0.5826771653543307,
          "duration": 0.5687490520833194
        },
        {
          "name": "G5",
          "midi": 79,
          "time": 188.3996859999992,
          "velocity": 0.8188976377952756,
          "duration": 0.5687490520833194
        },
        {
          "name": "A#4",
          "midi": 70,
          "time": 188.9996849999992,
          "velocity": 0.7480314960629921,
          "duration": 0.5687490520833194
        },
        {
          "name": "D5",
          "midi": 74,
          "time": 188.9996849999992,
          "velocity": 0.6614173228346457,
          "duration": 0.5687490520833194
        },
        {
          "name": "G5",
          "midi": 79,
          "time": 188.9996849999992,
          "velocity": 0.6692913385826772,
          "duration": 0.5687490520833194
        },
        {
          "name": "A5",
          "midi": 81,
          "time": 189.5996839999992,
          "velocity": 0.6456692913385826,
          "duration": 0.5687490520833194
        },
        {
          "name": "F5",
          "midi": 77,
          "time": 190.1996829999992,
          "velocity": 0.7165354330708661,
          "duration": 0.2837495270833301
        },
        {
          "name": "D#5",
          "midi": 75,
          "time": 190.49968249999918,
          "velocity": 0.6771653543307087,
          "duration": 0.2837495270833301
        },
        {
          "name": "F5",
          "midi": 77,
          "time": 190.79968199999917,
          "velocity": 0.7165354330708661,
          "duration": 0.5687490520833194
        },
        {
          "name": "F5",
          "midi": 77,
          "time": 191.39968099999916,
          "velocity": 0.6377952755905512,
          "duration": 0.2837495270833301
        },
        {
          "name": "E5",
          "midi": 76,
          "time": 191.69968049999915,
          "velocity": 0.6692913385826772,
          "duration": 0.2837495270833301
        },
        {
          "name": "F5",
          "midi": 77,
          "time": 191.99967999999913,
          "velocity": 0.7480314960629921,
          "duration": 0.2837495270833301
        },
        {
          "name": "G5",
          "midi": 79,
          "time": 192.29967949999912,
          "velocity": 0.6535433070866141,
          "duration": 0.2837495270833301
        },
        {
          "name": "A5",
          "midi": 81,
          "time": 192.5996789999991,
          "velocity": 0.7480314960629921,
          "duration": 0.2837495270833301
        },
        {
          "name": "F5",
          "midi": 77,
          "time": 192.89967849999908,
          "velocity": 0.6614173228346457,
          "duration": 0.2837495270833301
        },
        {
          "name": "D5",
          "midi": 74,
          "time": 193.19967799999907,
          "velocity": 0.7165354330708661,
          "duration": 0.2837495270833301
        },
        {
          "name": "A4",
          "midi": 69,
          "time": 193.49967749999905,
          "velocity": 0.6771653543307087,
          "duration": 0.2837495270833301
        },
        {
          "name": "D5",
          "midi": 74,
          "time": 193.79967699999904,
          "velocity": 0.8661417322834646,
          "duration": 0.2837495270833301
        },
        {
          "name": "F5",
          "midi": 77,
          "time": 194.09967649999902,
          "velocity": 0.8031496062992126,
          "duration": 0.2837495270833301
        },
        {
          "name": "F5",
          "midi": 77,
          "time": 194.399675999999,
          "velocity": 0.7401574803149606,
          "duration": 1.1387481020833263
        },
        {
          "name": "A5",
          "midi": 81,
          "time": 194.399675999999,
          "velocity": 0.7244094488188977,
          "duration": 1.1387481020833263
        },
        {
          "name": "G5",
          "midi": 79,
          "time": 195.599673999999,
          "velocity": 0.7480314960629921,
          "duration": 0.5687490520833194
        },
        {
          "name": "F5",
          "midi": 77,
          "time": 196.799671999999,
          "velocity": 0.6456692913385826,
          "duration": 0.2837495270833301
        },
        {
          "name": "E5",
          "midi": 76,
          "time": 197.09967149999898,
          "velocity": 0.6771653543307087,
          "duration": 0.2837495270833301
        },
        {
          "name": "D#5",
          "midi": 75,
          "time": 197.39967099999896,
          "velocity": 0.7559055118110236,
          "duration": 0.2837495270833301
        },
        {
          "name": "E5",
          "midi": 76,
          "time": 197.69967049999894,
          "velocity": 0.7244094488188977,
          "duration": 0.2837495270833301
        },
        {
          "name": "E5",
          "midi": 76,
          "time": 197.99966999999893,
          "velocity": 0.7322834645669292,
          "duration": 1.1387481020833263
        },
        {
          "name": "G5",
          "midi": 79,
          "time": 197.99966999999893,
          "velocity": 0.7165354330708661,
          "duration": 1.1387481020833263
        },
        {
          "name": "F5",
          "midi": 77,
          "time": 199.19966799999892,
          "velocity": 0.7795275590551181,
          "duration": 0.5687490520833194
        },
        {
          "name": "E5",
          "midi": 76,
          "time": 200.39966599999892,
          "velocity": 0.6456692913385826,
          "duration": 0.2837495270833301
        },
        {
          "name": "D5",
          "midi": 74,
          "time": 200.6996654999989,
          "velocity": 0.7874015748031497,
          "duration": 0.2837495270833301
        },
        {
          "name": "C#5",
          "midi": 73,
          "time": 200.99966499999888,
          "velocity": 0.7874015748031497,
          "duration": 0.2837495270833301
        },
        {
          "name": "D5",
          "midi": 74,
          "time": 201.29966449999887,
          "velocity": 0.6062992125984252,
          "duration": 0.2837495270833301
        },
        {
          "name": "A#4",
          "midi": 70,
          "time": 201.59966399999885,
          "velocity": 0.7244094488188977,
          "duration": 0.5687490520833194
        },
        {
          "name": "D5",
          "midi": 74,
          "time": 201.59966399999885,
          "velocity": 0.6141732283464567,
          "duration": 0.5687490520833194
        },
        {
          "name": "E5",
          "midi": 76,
          "time": 202.19966299999885,
          "velocity": 0.8346456692913385,
          "duration": 0.2837495270833301
        },
        {
          "name": "F5",
          "midi": 77,
          "time": 202.49966249999883,
          "velocity": 0.9212598425196851,
          "duration": 0.2837495270833301
        },
        {
          "name": "G5",
          "midi": 79,
          "time": 202.79966199999882,
          "velocity": 0.7322834645669292,
          "duration": 0.2837495270833301
        },
        {
          "name": "A5",
          "midi": 81,
          "time": 203.0996614999988,
          "velocity": 0.7086614173228346,
          "duration": 0.2837495270833301
        },
        {
          "name": "G5",
          "midi": 79,
          "time": 203.3996609999988,
          "velocity": 0.7637795275590551,
          "duration": 0.5687490520833194
        },
        {
          "name": "G5",
          "midi": 79,
          "time": 203.99965999999878,
          "velocity": 0.7716535433070866,
          "duration": 0.2837495270833301
        },
        {
          "name": "F5",
          "midi": 77,
          "time": 204.29965949999877,
          "velocity": 0.6141732283464567,
          "duration": 0.2837495270833301
        },
        {
          "name": "G5",
          "midi": 79,
          "time": 204.59965899999875,
          "velocity": 0.7795275590551181,
          "duration": 0.5687490520833194
        },
        {
          "name": "A5",
          "midi": 81,
          "time": 205.79965699999875,
          "velocity": 0.7559055118110236,
          "duration": 0.18874968541666703
        },
        {
          "name": "G5",
          "midi": 79,
          "time": 205.9996566666654,
          "velocity": 0.7165354330708661,
          "duration": 0.18874968541666703
        },
        {
          "name": "F#5",
          "midi": 78,
          "time": 206.19965633333206,
          "velocity": 0.7007874015748031,
          "duration": 0.18874968541666703
        },
        {
          "name": "E5",
          "midi": 76,
          "time": 206.3996559999987,
          "velocity": 0.6062992125984252,
          "duration": 0.18874968541666703
        },
        {
          "name": "D5",
          "midi": 74,
          "time": 206.59965566666537,
          "velocity": 0.7716535433070866,
          "duration": 0.18874968541666703
        },
        {
          "name": "C#5",
          "midi": 73,
          "time": 206.79965533333203,
          "velocity": 0.7874015748031497,
          "duration": 0.18874968541666703
        },
        {
          "name": "D6",
          "midi": 86,
          "time": 206.99965499999868,
          "velocity": 0.7559055118110236,
          "duration": 0.18874968541666703
        },
        {
          "name": "C#6",
          "midi": 85,
          "time": 207.19965466666534,
          "velocity": 0.7559055118110236,
          "duration": 0.18874968541666703
        },
        {
          "name": "B5",
          "midi": 83,
          "time": 207.399654333332,
          "velocity": 0.7559055118110236,
          "duration": 0.18874968541666703
        },
        {
          "name": "A5",
          "midi": 81,
          "time": 207.59965399999865,
          "velocity": 0.7559055118110236,
          "duration": 0.18874968541666703
        },
        {
          "name": "G5",
          "midi": 79,
          "time": 207.7996536666653,
          "velocity": 0.7559055118110236,
          "duration": 0.18874968541666703
        },
        {
          "name": "F#5",
          "midi": 78,
          "time": 207.99965333333196,
          "velocity": 0.7559055118110236,
          "duration": 0.18874968541666703
        },
        {
          "name": "E5",
          "midi": 76,
          "time": 208.19965299999862,
          "velocity": 0.7559055118110236,
          "duration": 0.18874968541666703
        },
        {
          "name": "D5",
          "midi": 74,
          "time": 208.39965266666528,
          "velocity": 0.7559055118110236,
          "duration": 0.18874968541666703
        },
        {
          "name": "C#5",
          "midi": 73,
          "time": 208.59965233333193,
          "velocity": 0.7559055118110236,
          "duration": 0.18874968541666703
        },
        {
          "name": "D6",
          "midi": 86,
          "time": 208.7996519999986,
          "velocity": 0.7559055118110236,
          "duration": 0.18874968541666703
        },
        {
          "name": "C#6",
          "midi": 85,
          "time": 208.99965166666524,
          "velocity": 0.7559055118110236,
          "duration": 0.18874968541666703
        },
        {
          "name": "B5",
          "midi": 83,
          "time": 209.1996513333319,
          "velocity": 0.7559055118110236,
          "duration": 0.18874968541666703
        },
        {
          "name": "A5",
          "midi": 81,
          "time": 209.39965099999856,
          "velocity": 0.7559055118110236,
          "duration": 0.18874968541666703
        },
        {
          "name": "G5",
          "midi": 79,
          "time": 209.5996506666652,
          "velocity": 0.7559055118110236,
          "duration": 0.18874968541666703
        },
        {
          "name": "F#5",
          "midi": 78,
          "time": 209.79965033333187,
          "velocity": 0.7559055118110236,
          "duration": 0.18874968541666703
        },
        {
          "name": "E5",
          "midi": 76,
          "time": 209.99964999999852,
          "velocity": 0.7559055118110236,
          "duration": 0.18874968541666703
        },
        {
          "name": "D5",
          "midi": 74,
          "time": 210.19964966666518,
          "velocity": 0.7559055118110236,
          "duration": 0.18874968541666703
        },
        {
          "name": "C#5",
          "midi": 73,
          "time": 210.39964933333184,
          "velocity": 0.7559055118110236,
          "duration": 0.18874968541666703
        },
        {
          "name": "D5",
          "midi": 74,
          "time": 210.5996489999985,
          "velocity": 0.5354330708661418,
          "duration": 1.7087471520833333
        },
        {
          "name": "D5",
          "midi": 74,
          "time": 214.1996429999985,
          "velocity": 0.6377952755905512,
          "duration": 0.2837495270833301
        },
        {
          "name": "D#5",
          "midi": 75,
          "time": 214.4996424999985,
          "velocity": 0.4409448818897638,
          "duration": 0.2837495270833301
        },
        {
          "name": "D5",
          "midi": 74,
          "time": 214.79964199999847,
          "velocity": 0.3228346456692913,
          "duration": 0.2837495270833301
        },
        {
          "name": "D#5",
          "midi": 75,
          "time": 215.09964149999846,
          "velocity": 0.4251968503937008,
          "duration": 0.2837495270833301
        },
        {
          "name": "D5",
          "midi": 74,
          "time": 215.39964099999844,
          "velocity": 0.4881889763779528,
          "duration": 0.2837495270833301
        },
        {
          "name": "D#5",
          "midi": 75,
          "time": 215.69964049999842,
          "velocity": 0.5511811023622047,
          "duration": 0.2837495270833301
        },
        {
          "name": "C5",
          "midi": 72,
          "time": 215.9996399999984,
          "velocity": 0.5748031496062992,
          "duration": 0.2837495270833301
        },
        {
          "name": "D5",
          "midi": 74,
          "time": 216.2996394999984,
          "velocity": 0.6141732283464567,
          "duration": 0.2837495270833301
        },
        {
          "name": "C5",
          "midi": 72,
          "time": 216.59963899999838,
          "velocity": 0.5433070866141733,
          "duration": 0.2837495270833301
        },
        {
          "name": "D5",
          "midi": 74,
          "time": 216.89963849999836,
          "velocity": 0.47244094488188976,
          "duration": 0.2837495270833301
        },
        {
          "name": "C5",
          "midi": 72,
          "time": 217.19963799999834,
          "velocity": 0.5275590551181102,
          "duration": 0.2837495270833301
        },
        {
          "name": "D5",
          "midi": 74,
          "time": 217.49963749999833,
          "velocity": 0.5826771653543307,
          "duration": 0.2837495270833301
        },
        {
          "name": "A#4",
          "midi": 70,
          "time": 217.7996369999983,
          "velocity": 0.5196850393700787,
          "duration": 0.2837495270833301
        },
        {
          "name": "C5",
          "midi": 72,
          "time": 218.0996364999983,
          "velocity": 0.6692913385826772,
          "duration": 0.2837495270833301
        },
        {
          "name": "A#4",
          "midi": 70,
          "time": 218.39963599999828,
          "velocity": 0.3937007874015748,
          "duration": 0.2837495270833301
        },
        {
          "name": "C5",
          "midi": 72,
          "time": 218.69963549999827,
          "velocity": 0.6535433070866141,
          "duration": 0.2837495270833301
        },
        {
          "name": "A#4",
          "midi": 70,
          "time": 218.99963499999825,
          "velocity": 0.48031496062992124,
          "duration": 0.2837495270833301
        },
        {
          "name": "C5",
          "midi": 72,
          "time": 219.29963449999823,
          "velocity": 0.7244094488188977,
          "duration": 0.2837495270833301
        },
        {
          "name": "A4",
          "midi": 69,
          "time": 219.59963399999822,
          "velocity": 0.7952755905511811,
          "duration": 0.1412497645833355
        },
        {
          "name": "G4",
          "midi": 67,
          "time": 219.74963374999822,
          "velocity": 0.6535433070866141,
          "duration": 0.1412497645833355
        },
        {
          "name": "F#4",
          "midi": 66,
          "time": 219.89963349999823,
          "velocity": 0.8188976377952756,
          "duration": 1.423747627083344
        },
        {
          "name": "C5",
          "midi": 72,
          "time": 221.39963099999824,
          "velocity": 0.4409448818897638,
          "duration": 1.7087471520833333
        },
        {
          "name": "D#4",
          "midi": 63,
          "time": 223.79962699999822,
          "velocity": 0.5039370078740157,
          "duration": 0.18874968541666703
        },
        {
          "name": "F#4",
          "midi": 66,
          "time": 223.99962666666488,
          "velocity": 0.6850393700787402,
          "duration": 0.18874968541666703
        },
        {
          "name": "C5",
          "midi": 72,
          "time": 224.19962633333154,
          "velocity": 0.6771653543307087,
          "duration": 1.8987468354166595
        },
        {
          "name": "D#5",
          "midi": 75,
          "time": 226.7996219999982,
          "velocity": 0.5826771653543307,
          "duration": 0.2837495270833301
        },
        {
          "name": "F5",
          "midi": 77,
          "time": 227.0996214999982,
          "velocity": 0.4645669291338583,
          "duration": 0.2837495270833301
        },
        {
          "name": "D#5",
          "midi": 75,
          "time": 227.39962099999818,
          "velocity": 0.4251968503937008,
          "duration": 0.2837495270833301
        },
        {
          "name": "F5",
          "midi": 77,
          "time": 227.69962049999816,
          "velocity": 0.5118110236220472,
          "duration": 0.2837495270833301
        },
        {
          "name": "D#5",
          "midi": 75,
          "time": 227.99961999999815,
          "velocity": 0.5354330708661418,
          "duration": 0.2837495270833301
        },
        {
          "name": "F5",
          "midi": 77,
          "time": 228.29961949999813,
          "velocity": 0.5275590551181102,
          "duration": 0.2837495270833301
        },
        {
          "name": "D5",
          "midi": 74,
          "time": 228.5996189999981,
          "velocity": 0.6614173228346457,
          "duration": 0.2837495270833301
        },
        {
          "name": "D#5",
          "midi": 75,
          "time": 228.8996184999981,
          "velocity": 0.5511811023622047,
          "duration": 0.2837495270833301
        },
        {
          "name": "D5",
          "midi": 74,
          "time": 229.19961799999808,
          "velocity": 0.5590551181102362,
          "duration": 0.2837495270833301
        },
        {
          "name": "D#5",
          "midi": 75,
          "time": 229.49961749999807,
          "velocity": 0.5196850393700787,
          "duration": 0.2837495270833301
        },
        {
          "name": "D5",
          "midi": 74,
          "time": 229.79961699999805,
          "velocity": 0.49606299212598426,
          "duration": 0.2837495270833301
        },
        {
          "name": "D#5",
          "midi": 75,
          "time": 230.09961649999804,
          "velocity": 0.6299212598425197,
          "duration": 0.2837495270833301
        },
        {
          "name": "B4",
          "midi": 71,
          "time": 230.39961599999802,
          "velocity": 0.6456692913385826,
          "duration": 0.2837495270833301
        },
        {
          "name": "C5",
          "midi": 72,
          "time": 230.699615499998,
          "velocity": 0.6141732283464567,
          "duration": 0.2837495270833301
        },
        {
          "name": "B4",
          "midi": 71,
          "time": 230.999614999998,
          "velocity": 0.4251968503937008,
          "duration": 0.2837495270833301
        },
        {
          "name": "C5",
          "midi": 72,
          "time": 231.29961449999797,
          "velocity": 0.6062992125984252,
          "duration": 0.2837495270833301
        },
        {
          "name": "B4",
          "midi": 71,
          "time": 231.59961399999796,
          "velocity": 0.5905511811023622,
          "duration": 0.2837495270833301
        },
        {
          "name": "C5",
          "midi": 72,
          "time": 231.89961349999794,
          "velocity": 0.7322834645669292,
          "duration": 0.2837495270833301
        },
        {
          "name": "D5",
          "midi": 74,
          "time": 232.19961299999792,
          "velocity": 0.5118110236220472,
          "duration": 0.2837495270833301
        },
        {
          "name": "G#5",
          "midi": 80,
          "time": 232.19961299999792,
          "velocity": 0.6220472440944882,
          "duration": 0.2837495270833301
        },
        {
          "name": "G#4",
          "midi": 68,
          "time": 232.4996124999979,
          "velocity": 0.5275590551181102,
          "duration": 0.2837495270833301
        },
        {
          "name": "G4",
          "midi": 67,
          "time": 232.7996119999979,
          "velocity": 0.6535433070866141,
          "duration": 0.2837495270833301
        },
        {
          "name": "F4",
          "midi": 65,
          "time": 233.09961149999788,
          "velocity": 0.5196850393700787,
          "duration": 0.2837495270833301
        },
        {
          "name": "G4",
          "midi": 67,
          "time": 233.39961099999786,
          "velocity": 0.6299212598425197,
          "duration": 0.2837495270833301
        },
        {
          "name": "G#4",
          "midi": 68,
          "time": 233.69961049999785,
          "velocity": 0.5590551181102362,
          "duration": 0.2837495270833301
        },
        {
          "name": "B4",
          "midi": 71,
          "time": 233.99960999999783,
          "velocity": 0.44881889763779526,
          "duration": 0.2837495270833301
        },
        {
          "name": "G#4",
          "midi": 68,
          "time": 234.2996094999978,
          "velocity": 0.5354330708661418,
          "duration": 0.2837495270833301
        },
        {
          "name": "G4",
          "midi": 67,
          "time": 234.5996089999978,
          "velocity": 0.7244094488188977,
          "duration": 0.2837495270833301
        },
        {
          "name": "F4",
          "midi": 65,
          "time": 234.89960849999778,
          "velocity": 0.5669291338582677,
          "duration": 0.2837495270833301
        },
        {
          "name": "G4",
          "midi": 67,
          "time": 235.19960799999777,
          "velocity": 0.6141732283464567,
          "duration": 0.2837495270833301
        },
        {
          "name": "G#4",
          "midi": 68,
          "time": 235.49960749999775,
          "velocity": 0.6929133858267716,
          "duration": 0.2837495270833301
        },
        {
          "name": "B4",
          "midi": 71,
          "time": 235.79960699999774,
          "velocity": 0.7480314960629921,
          "duration": 0.5687490520833194
        },
        {
          "name": "F5",
          "midi": 77,
          "time": 235.79960699999774,
          "velocity": 0.7480314960629921,
          "duration": 0.5687490520833194
        },
        {
          "name": "A4",
          "midi": 69,
          "time": 236.39960599999773,
          "velocity": 0.7244094488188977,
          "duration": 0.5687490520833194
        },
        {
          "name": "D#5",
          "midi": 75,
          "time": 236.39960599999773,
          "velocity": 0.6692913385826772,
          "duration": 0.5687490520833194
        },
        {
          "name": "G#4",
          "midi": 68,
          "time": 236.99960499999773,
          "velocity": 0.5905511811023622,
          "duration": 0.5687490520833194
        },
        {
          "name": "D5",
          "midi": 74,
          "time": 236.99960499999773,
          "velocity": 0.7559055118110236,
          "duration": 0.5687490520833194
        },
        {
          "name": "F4",
          "midi": 65,
          "time": 237.59960399999773,
          "velocity": 0.7244094488188977,
          "duration": 1.7087471520833333
        },
        {
          "name": "B4",
          "midi": 71,
          "time": 237.59960399999773,
          "velocity": 0.7322834645669292,
          "duration": 1.7087471520833333
        },
        {
          "name": "G4",
          "midi": 67,
          "time": 243.89959349999774,
          "velocity": 0.9212598425196851,
          "duration": 0.2837495270833301
        },
        {
          "name": "C5",
          "midi": 72,
          "time": 244.19959299999772,
          "velocity": 0.6377952755905512,
          "duration": 0.2837495270833301
        },
        {
          "name": "D#5",
          "midi": 75,
          "time": 244.4995924999977,
          "velocity": 0.8346456692913385,
          "duration": 0.2837495270833301
        },
        {
          "name": "G5",
          "midi": 79,
          "time": 244.7995919999977,
          "velocity": 0.8110236220472441,
          "duration": 0.29874950208332507
        },
        {
          "name": "G5",
          "midi": 79,
          "time": 245.39959099999768,
          "velocity": 0.9606299212598425,
          "duration": 0.2837495270833301
        },
        {
          "name": "F5",
          "midi": 77,
          "time": 245.69959049999767,
          "velocity": 0.937007874015748,
          "duration": 0.2837495270833301
        },
        {
          "name": "D#5",
          "midi": 75,
          "time": 245.99958999999765,
          "velocity": 0.8188976377952756,
          "duration": 0.2837495270833301
        },
        {
          "name": "D5",
          "midi": 74,
          "time": 246.29958949999764,
          "velocity": 0.8582677165354331,
          "duration": 0.2837495270833301
        },
        {
          "name": "D#5",
          "midi": 75,
          "time": 246.59958899999762,
          "velocity": 0.9291338582677166,
          "duration": 0.8537485770833371
        },
        {
          "name": "C5",
          "midi": 72,
          "time": 247.49958749999763,
          "velocity": 0.9212598425196851,
          "duration": 0.2837495270833301
        },
        {
          "name": "D#5",
          "midi": 75,
          "time": 247.79958699999762,
          "velocity": 0.8188976377952756,
          "duration": 0.2837495270833301
        },
        {
          "name": "G5",
          "midi": 79,
          "time": 248.0995864999976,
          "velocity": 0.9212598425196851,
          "duration": 0.2837495270833301
        },
        {
          "name": "G5",
          "midi": 79,
          "time": 248.39958599999758,
          "velocity": 0.7165354330708661,
          "duration": 0.5687490520833194
        },
        {
          "name": "C6",
          "midi": 84,
          "time": 248.39958599999758,
          "velocity": 0.889763779527559,
          "duration": 0.5687490520833194
        },
        {
          "name": "D#5",
          "midi": 75,
          "time": 248.99958499999758,
          "velocity": 0.9133858267716536,
          "duration": 0.2837495270833301
        },
        {
          "name": "C6",
          "midi": 84,
          "time": 248.99958499999758,
          "velocity": 0.8740157480314961,
          "duration": 0.2837495270833301
        },
        {
          "name": "C5",
          "midi": 72,
          "time": 249.29958449999756,
          "velocity": 0.7952755905511811,
          "duration": 0.2837495270833301
        },
        {
          "name": "D#5",
          "midi": 75,
          "time": 249.29958449999756,
          "velocity": 0.9291338582677166,
          "duration": 0.2837495270833301
        },
        {
          "name": "C6",
          "midi": 84,
          "time": 249.29958449999756,
          "velocity": 0.9133858267716536,
          "duration": 0.2837495270833301
        },
        {
          "name": "D5",
          "midi": 74,
          "time": 249.59958399999755,
          "velocity": 0.7480314960629921,
          "duration": 0.2837495270833301
        },
        {
          "name": "A#5",
          "midi": 82,
          "time": 249.59958399999755,
          "velocity": 0.8582677165354331,
          "duration": 0.2837495270833301
        },
        {
          "name": "C5",
          "midi": 72,
          "time": 249.89958349999753,
          "velocity": 0.84251968503937,
          "duration": 0.2837495270833301
        },
        {
          "name": "G#5",
          "midi": 80,
          "time": 249.89958349999753,
          "velocity": 0.9212598425196851,
          "duration": 0.2837495270833301
        },
        {
          "name": "D5",
          "midi": 74,
          "time": 250.19958299999752,
          "velocity": 0.9212598425196851,
          "duration": 0.8537485770833371
        },
        {
          "name": "G5",
          "midi": 79,
          "time": 250.19958299999752,
          "velocity": 0.7480314960629921,
          "duration": 0.8537485770833371
        },
        {
          "name": "A#5",
          "midi": 82,
          "time": 250.19958299999752,
          "velocity": 0.9763779527559056,
          "duration": 0.8537485770833371
        },
        {
          "name": "D4",
          "midi": 62,
          "time": 251.09958149999753,
          "velocity": 0.8661417322834646,
          "duration": 0.14874975208334718
        },
        {
          "name": "G4",
          "midi": 67,
          "time": 251.39958099999754,
          "velocity": 0.8346456692913385,
          "duration": 0.14874975208334718
        },
        {
          "name": "A#4",
          "midi": 70,
          "time": 251.69958049999755,
          "velocity": 0.8188976377952756,
          "duration": 0.14874975208334718
        },
        {
          "name": "D5",
          "midi": 74,
          "time": 251.99957999999756,
          "velocity": 0.952755905511811,
          "duration": 0.29874950208332507
        },
        {
          "name": "C5",
          "midi": 72,
          "time": 252.59957899999756,
          "velocity": 0.7322834645669292,
          "duration": 0.14874975208334718
        },
        {
          "name": "A#4",
          "midi": 70,
          "time": 252.89957849999757,
          "velocity": 0.7952755905511811,
          "duration": 0.14874975208334718
        },
        {
          "name": "A4",
          "midi": 69,
          "time": 253.1995779999976,
          "velocity": 0.8110236220472441,
          "duration": 0.14874975208334718
        },
        {
          "name": "A#4",
          "midi": 70,
          "time": 253.4995774999976,
          "velocity": 0.9291338582677166,
          "duration": 0.14874975208334718
        },
        {
          "name": "C5",
          "midi": 72,
          "time": 253.7995769999976,
          "velocity": 0.8976377952755905,
          "duration": 0.29874950208332507
        },
        {
          "name": "A#4",
          "midi": 70,
          "time": 254.3995759999976,
          "velocity": 0.7401574803149606,
          "duration": 0.14874975208334718
        },
        {
          "name": "A4",
          "midi": 69,
          "time": 254.69957549999762,
          "velocity": 0.7952755905511811,
          "duration": 0.14874975208334718
        },
        {
          "name": "G4",
          "midi": 67,
          "time": 254.99957499999763,
          "velocity": 0.8110236220472441,
          "duration": 0.14874975208334718
        },
        {
          "name": "F#4",
          "midi": 66,
          "time": 255.29957449999765,
          "velocity": 0.7637795275590551,
          "duration": 0.14874975208334718
        },
        {
          "name": "G4",
          "midi": 67,
          "time": 255.59957399999766,
          "velocity": 0.7165354330708661,
          "duration": 0.29874950208332507
        },
        {
          "name": "G4",
          "midi": 67,
          "time": 256.19957299999766,
          "velocity": 0.8503937007874016,
          "duration": 0.14874975208334718
        },
        {
          "name": "G4",
          "midi": 67,
          "time": 256.49957249999767,
          "velocity": 0.7874015748031497,
          "duration": 0.14874975208334718
        },
        {
          "name": "F4",
          "midi": 65,
          "time": 256.7995719999977,
          "velocity": 0.8818897637795275,
          "duration": 0.14874975208334718
        },
        {
          "name": "C4",
          "midi": 60,
          "time": 257.0995714999977,
          "velocity": 0.952755905511811,
          "duration": 0.14874975208334718
        },
        {
          "name": "D4",
          "midi": 62,
          "time": 257.3995709999977,
          "velocity": 0.8267716535433071,
          "duration": 0.4487492520833598
        },
        {
          "name": "D4",
          "midi": 62,
          "time": 258.29956949999774,
          "velocity": 0.6929133858267716,
          "duration": 0.14874975208334718
        },
        {
          "name": "G4",
          "midi": 67,
          "time": 258.29956949999774,
          "velocity": 0.8582677165354331,
          "duration": 0.14874975208334718
        },
        {
          "name": "D4",
          "midi": 62,
          "time": 258.59956899999776,
          "velocity": 0.6929133858267716,
          "duration": 0.14874975208334718
        },
        {
          "name": "G4",
          "midi": 67,
          "time": 258.59956899999776,
          "velocity": 0.7795275590551181,
          "duration": 0.14874975208334718
        },
        {
          "name": "D4",
          "midi": 62,
          "time": 258.89956849999777,
          "velocity": 0.7874015748031497,
          "duration": 0.14874975208334718
        },
        {
          "name": "G4",
          "midi": 67,
          "time": 258.89956849999777,
          "velocity": 0.8346456692913385,
          "duration": 0.14874975208334718
        },
        {
          "name": "C4",
          "midi": 60,
          "time": 259.1995679999978,
          "velocity": 0.8503937007874016,
          "duration": 0.2987495020833535
        },
        {
          "name": "D#4",
          "midi": 63,
          "time": 259.1995679999978,
          "velocity": 0.7165354330708661,
          "duration": 0.2987495020833535
        },
        {
          "name": "G4",
          "midi": 67,
          "time": 259.1995679999978,
          "velocity": 0.9291338582677166,
          "duration": 0.2987495020833535
        },
        {
          "name": "G4",
          "midi": 67,
          "time": 259.7995669999978,
          "velocity": 0.9291338582677166,
          "duration": 0.14874975208334718
        },
        {
          "name": "B3",
          "midi": 59,
          "time": 260.0995664999978,
          "velocity": 0.7401574803149606,
          "duration": 0.14874975208334718
        },
        {
          "name": "D4",
          "midi": 62,
          "time": 260.0995664999978,
          "velocity": 0.8740157480314961,
          "duration": 0.14874975208334718
        },
        {
          "name": "F4",
          "midi": 65,
          "time": 260.0995664999978,
          "velocity": 0.7716535433070866,
          "duration": 0.14874975208334718
        },
        {
          "name": "D#4",
          "midi": 63,
          "time": 260.39956599999783,
          "velocity": 0.905511811023622,
          "duration": 0.14874975208334718
        },
        {
          "name": "D4",
          "midi": 62,
          "time": 260.69956549999785,
          "velocity": 0.7795275590551181,
          "duration": 0.14874975208334718
        },
        {
          "name": "D#4",
          "midi": 63,
          "time": 260.99956499999786,
          "velocity": 0.84251968503937,
          "duration": 0.8537485770833086
        },
        {
          "name": "C4",
          "midi": 60,
          "time": 261.89956349999784,
          "velocity": 0.8818897637795275,
          "duration": 0.14874975208334718
        },
        {
          "name": "D#4",
          "midi": 63,
          "time": 262.19956299999785,
          "velocity": 0.8976377952755905,
          "duration": 0.14874975208334718
        },
        {
          "name": "G4",
          "midi": 67,
          "time": 262.49956249999786,
          "velocity": 0.968503937007874,
          "duration": 0.14874975208334718
        },
        {
          "name": "C4",
          "midi": 60,
          "time": 262.7995619999979,
          "velocity": 0.905511811023622,
          "duration": 0.2987495020833535
        },
        {
          "name": "D#4",
          "midi": 63,
          "time": 262.7995619999979,
          "velocity": 0.8582677165354331,
          "duration": 0.2987495020833535
        },
        {
          "name": "C5",
          "midi": 72,
          "time": 262.7995619999979,
          "velocity": 0.9212598425196851,
          "duration": 0.2987495020833535
        },
        {
          "name": "D#4",
          "midi": 63,
          "time": 263.3995609999979,
          "velocity": 0.84251968503937,
          "duration": 0.14874975208334718
        },
        {
          "name": "C5",
          "midi": 72,
          "time": 263.3995609999979,
          "velocity": 0.889763779527559,
          "duration": 0.14874975208334718
        },
        {
          "name": "D#4",
          "midi": 63,
          "time": 263.6995604999979,
          "velocity": 0.8818897637795275,
          "duration": 0.2837495270833301
        },
        {
          "name": "C5",
          "midi": 72,
          "time": 263.6995604999979,
          "velocity": 0.9606299212598425,
          "duration": 0.2837495270833301
        },
        {
          "name": "D4",
          "midi": 62,
          "time": 263.9995599999979,
          "velocity": 0.7637795275590551,
          "duration": 0.14874975208334718
        },
        {
          "name": "A#4",
          "midi": 70,
          "time": 263.9995599999979,
          "velocity": 0.889763779527559,
          "duration": 0.14874975208334718
        },
        {
          "name": "C4",
          "midi": 60,
          "time": 264.29955949999794,
          "velocity": 1,
          "duration": 0.14874975208334718
        },
        {
          "name": "G#4",
          "midi": 68,
          "time": 264.29955949999794,
          "velocity": 0.8740157480314961,
          "duration": 0.14874975208334718
        },
        {
          "name": "D4",
          "midi": 62,
          "time": 264.59955899999795,
          "velocity": 0.7559055118110236,
          "duration": 0.8537485770833086
        },
        {
          "name": "G4",
          "midi": 67,
          "time": 264.59955899999795,
          "velocity": 0.8503937007874016,
          "duration": 0.8537485770833086
        },
        {
          "name": "A#4",
          "midi": 70,
          "time": 264.59955899999795,
          "velocity": 0.905511811023622,
          "duration": 0.8537485770833086
        },
        {
          "name": "D5",
          "midi": 74,
          "time": 265.49955749999793,
          "velocity": 0.5039370078740157,
          "duration": 0.14874975208334718
        },
        {
          "name": "G5",
          "midi": 79,
          "time": 265.79955699999795,
          "velocity": 0.5118110236220472,
          "duration": 0.14874975208334718
        },
        {
          "name": "A#5",
          "midi": 82,
          "time": 266.09955649999796,
          "velocity": 0.5433070866141733,
          "duration": 0.14874975208334718
        },
        {
          "name": "D6",
          "midi": 86,
          "time": 266.399555999998,
          "velocity": 0.5433070866141733,
          "duration": 0.5687490520833194
        },
        {
          "name": "C6",
          "midi": 84,
          "time": 266.99955499999794,
          "velocity": 0.6692913385826772,
          "duration": 0.2837495270833301
        },
        {
          "name": "A#5",
          "midi": 82,
          "time": 267.29955449999795,
          "velocity": 0.6377952755905512,
          "duration": 0.2837495270833301
        },
        {
          "name": "A5",
          "midi": 81,
          "time": 267.59955399999797,
          "velocity": 0.5039370078740157,
          "duration": 0.14874975208334718
        },
        {
          "name": "A#5",
          "midi": 82,
          "time": 267.899553499998,
          "velocity": 0.5590551181102362,
          "duration": 0.2837495270833301
        },
        {
          "name": "C6",
          "midi": 84,
          "time": 268.199552999998,
          "velocity": 0.5118110236220472,
          "duration": 0.5687490520833194
        },
        {
          "name": "A#5",
          "midi": 82,
          "time": 268.79955199999796,
          "velocity": 0.6141732283464567,
          "duration": 0.2837495270833301
        },
        {
          "name": "A5",
          "midi": 81,
          "time": 269.099551499998,
          "velocity": 0.6692913385826772,
          "duration": 0.14874975208334718
        },
        {
          "name": "G5",
          "midi": 79,
          "time": 269.399550999998,
          "velocity": 0.6535433070866141,
          "duration": 0.14874975208334718
        },
        {
          "name": "F#5",
          "midi": 78,
          "time": 269.699550499998,
          "velocity": 0.5748031496062992,
          "duration": 0.14874975208334718
        },
        {
          "name": "G5",
          "midi": 79,
          "time": 269.999549999998,
          "velocity": 0.5905511811023622,
          "duration": 0.14874975208334718
        },
        {
          "name": "F5",
          "midi": 77,
          "time": 270.299549499998,
          "velocity": 0.5196850393700787,
          "duration": 0.14874975208334718
        },
        {
          "name": "D#5",
          "midi": 75,
          "time": 270.59954899999804,
          "velocity": 0.6220472440944882,
          "duration": 0.14874975208334718
        },
        {
          "name": "D5",
          "midi": 74,
          "time": 270.89954849999805,
          "velocity": 0.5905511811023622,
          "duration": 0.14874975208334718
        },
        {
          "name": "E5",
          "midi": 76,
          "time": 271.19954799999806,
          "velocity": 0.6614173228346457,
          "duration": 0.14874975208334718
        },
        {
          "name": "F#5",
          "midi": 78,
          "time": 271.4995474999981,
          "velocity": 0.6771653543307087,
          "duration": 0.14874975208334718
        },
        {
          "name": "A4",
          "midi": 69,
          "time": 271.7995469999981,
          "velocity": 0.5196850393700787,
          "duration": 2.938745102083317
        },
        {
          "name": "B4",
          "midi": 71,
          "time": 271.84579692291476,
          "velocity": 0.3858267716535433,
          "duration": 2.8912451812499853
        },
        {
          "name": "D5",
          "midi": 74,
          "time": 271.89454684166475,
          "velocity": 0.4566929133858268,
          "duration": 2.8424952624999946
        },
        {
          "name": "G5",
          "midi": 79,
          "time": 271.94329676041474,
          "velocity": 0.5511811023622047,
          "duration": 2.793745343750004
        },
        {
          "name": "D5",
          "midi": 74,
          "time": 274.79954199999804,
          "velocity": 0.8110236220472441,
          "duration": 0.5687490520833194
        },
        {
          "name": "D#4",
          "midi": 63,
          "time": 275.399540999998,
          "velocity": 0.6141732283464567,
          "duration": 1.1987480020832777
        },
        {
          "name": "G4",
          "midi": 67,
          "time": 275.478290868748,
          "velocity": 0.44881889763779526,
          "duration": 1.118748135416638
        },
        {
          "name": "A#4",
          "midi": 70,
          "time": 275.55829073541463,
          "velocity": 0.5590551181102362,
          "duration": 1.0387482687499983
        },
        {
          "name": "D#5",
          "midi": 75,
          "time": 275.639540599998,
          "velocity": 0.7874015748031497,
          "duration": 0.9587484020833017
        },
        {
          "name": "D#4",
          "midi": 63,
          "time": 276.59953899999795,
          "velocity": 0.7637795275590551,
          "duration": 0.5687490520833194
        },
        {
          "name": "D5",
          "midi": 74,
          "time": 276.59953899999795,
          "velocity": 0.7952755905511811,
          "duration": 0.5687490520833194
        },
        {
          "name": "D#4",
          "midi": 63,
          "time": 277.1995379999979,
          "velocity": 0.7086614173228346,
          "duration": 0.5687490520833194
        },
        {
          "name": "C5",
          "midi": 72,
          "time": 277.1995379999979,
          "velocity": 0.7322834645669292,
          "duration": 0.5687490520833194
        },
        {
          "name": "D4",
          "midi": 62,
          "time": 277.7995369999979,
          "velocity": 0.6141732283464567,
          "duration": 0.5687490520833194
        },
        {
          "name": "A#4",
          "midi": 70,
          "time": 277.7995369999979,
          "velocity": 0.7086614173228346,
          "duration": 0.5687490520833194
        },
        {
          "name": "C4",
          "midi": 60,
          "time": 278.39953599999785,
          "velocity": 0.5748031496062992,
          "duration": 0.5687490520833194
        },
        {
          "name": "A4",
          "midi": 69,
          "time": 278.39953599999785,
          "velocity": 0.8818897637795275,
          "duration": 0.5687490520833194
        },
        {
          "name": "D4",
          "midi": 62,
          "time": 278.9995349999978,
          "velocity": 0.5590551181102362,
          "duration": 0.5687490520833194
        },
        {
          "name": "A#4",
          "midi": 70,
          "time": 278.9995349999978,
          "velocity": 0.8503937007874016,
          "duration": 0.5687490520833194
        },
        {
          "name": "D#4",
          "midi": 63,
          "time": 279.5995339999978,
          "velocity": 0.6456692913385826,
          "duration": 0.5687490520833194
        },
        {
          "name": "C5",
          "midi": 72,
          "time": 279.5995339999978,
          "velocity": 0.7637795275590551,
          "duration": 0.5687490520833194
        },
        {
          "name": "F4",
          "midi": 65,
          "time": 280.19953299999776,
          "velocity": 0.5984251968503937,
          "duration": 0.5687490520833194
        },
        {
          "name": "D5",
          "midi": 74,
          "time": 280.19953299999776,
          "velocity": 0.7086614173228346,
          "duration": 0.5687490520833194
        },
        {
          "name": "D4",
          "midi": 62,
          "time": 280.7995319999977,
          "velocity": 0.7007874015748031,
          "duration": 1.1387481020833548
        },
        {
          "name": "F4",
          "midi": 65,
          "time": 280.7995319999977,
          "velocity": 0.7795275590551181,
          "duration": 1.1387481020833548
        },
        {
          "name": "C4",
          "midi": 60,
          "time": 281.9995299999977,
          "velocity": 0.6929133858267716,
          "duration": 0.5687490520833194
        },
        {
          "name": "F4",
          "midi": 65,
          "time": 281.9995299999977,
          "velocity": 0.6299212598425197,
          "duration": 0.5687490520833194
        },
        {
          "name": "A#4",
          "midi": 70,
          "time": 282.5995289999977,
          "velocity": 0.5669291338582677,
          "duration": 1.1387481020833548
        },
        {
          "name": "D#5",
          "midi": 75,
          "time": 282.5995289999977,
          "velocity": 0.7637795275590551,
          "duration": 1.1387481020833548
        },
        {
          "name": "G4",
          "midi": 67,
          "time": 283.7995269999977,
          "velocity": 0.7559055118110236,
          "duration": 0.5687490520833194
        },
        {
          "name": "D5",
          "midi": 74,
          "time": 283.7995269999977,
          "velocity": 0.7244094488188977,
          "duration": 0.5687490520833194
        },
        {
          "name": "D#4",
          "midi": 63,
          "time": 284.39952599999765,
          "velocity": 0.8110236220472441,
          "duration": 0.5687490520833194
        },
        {
          "name": "C5",
          "midi": 72,
          "time": 284.39952599999765,
          "velocity": 0.8503937007874016,
          "duration": 0.5687490520833194
        },
        {
          "name": "D4",
          "midi": 62,
          "time": 284.9995249999976,
          "velocity": 0.6535433070866141,
          "duration": 0.5687490520833194
        },
        {
          "name": "A#4",
          "midi": 70,
          "time": 284.9995249999976,
          "velocity": 0.7007874015748031,
          "duration": 0.5687490520833194
        },
        {
          "name": "D#4",
          "midi": 63,
          "time": 285.5995239999976,
          "velocity": 0.8267716535433071,
          "duration": 0.5687490520833194
        },
        {
          "name": "C5",
          "midi": 72,
          "time": 285.5995239999976,
          "velocity": 0.6692913385826772,
          "duration": 0.5687490520833194
        },
        {
          "name": "F4",
          "midi": 65,
          "time": 286.19952299999755,
          "velocity": 0.7716535433070866,
          "duration": 3.4187443020833257
        },
        {
          "name": "D5",
          "midi": 74,
          "time": 286.19952299999755,
          "velocity": 0.8976377952755905,
          "duration": 3.4187443020833257
        },
        {
          "name": "D5",
          "midi": 74,
          "time": 289.79951699999754,
          "velocity": 0.6771653543307087,
          "duration": 0.5687490520833194
        },
        {
          "name": "C#5",
          "midi": 73,
          "time": 290.3995159999975,
          "velocity": 0.7637795275590551,
          "duration": 0.5687490520833194
        },
        {
          "name": "D5",
          "midi": 74,
          "time": 290.9995149999975,
          "velocity": 0.6929133858267716,
          "duration": 0.5687490520833194
        },
        {
          "name": "F5",
          "midi": 77,
          "time": 291.59951399999744,
          "velocity": 0.7480314960629921,
          "duration": 0.5687490520833194
        },
        {
          "name": "E5",
          "midi": 76,
          "time": 292.1995129999974,
          "velocity": 0.7559055118110236,
          "duration": 0.5687490520833194
        },
        {
          "name": "D5",
          "midi": 74,
          "time": 292.7995119999974,
          "velocity": 0.7637795275590551,
          "duration": 0.5687490520833194
        },
        {
          "name": "C#5",
          "midi": 73,
          "time": 293.39951099999735,
          "velocity": 0.7637795275590551,
          "duration": 1.1387481020833548
        },
        {
          "name": "E5",
          "midi": 76,
          "time": 294.59950899999734,
          "velocity": 0.6062992125984252,
          "duration": 0.5687490520833194
        },
        {
          "name": "A4",
          "midi": 69,
          "time": 295.1995079999973,
          "velocity": 0.7480314960629921,
          "duration": 1.1387481020833548
        },
        {
          "name": "A4",
          "midi": 69,
          "time": 296.3995059999973,
          "velocity": 0.8740157480314961,
          "duration": 0.5687490520833194
        },
        {
          "name": "F5",
          "midi": 77,
          "time": 296.99950499999727,
          "velocity": 0.8346456692913385,
          "duration": 1.1387481020833548
        },
        {
          "name": "F5",
          "midi": 77,
          "time": 298.19950299999726,
          "velocity": 0.7401574803149606,
          "duration": 0.5687490520833194
        },
        {
          "name": "F5",
          "midi": 77,
          "time": 298.79950199999723,
          "velocity": 0.6771653543307087,
          "duration": 0.5687490520833194
        },
        {
          "name": "E5",
          "midi": 76,
          "time": 299.3995009999972,
          "velocity": 0.8110236220472441,
          "duration": 0.5687490520833194
        },
        {
          "name": "D5",
          "midi": 74,
          "time": 299.99949999999717,
          "velocity": 0.6929133858267716,
          "duration": 0.5687490520833194
        },
        {
          "name": "E5",
          "midi": 76,
          "time": 300.59949899999714,
          "velocity": 0.8503937007874016,
          "duration": 1.7087471520833333
        },
        {
          "name": "F5",
          "midi": 77,
          "time": 302.39949599999716,
          "velocity": 0.6850393700787402,
          "duration": 0.1412497645833355
        },
        {
          "name": "E5",
          "midi": 76,
          "time": 302.54949574999716,
          "velocity": 0.8110236220472441,
          "duration": 0.1412497645833355
        },
        {
          "name": "D#5",
          "midi": 75,
          "time": 302.69949549999717,
          "velocity": 0.6299212598425197,
          "duration": 0.1412497645833355
        },
        {
          "name": "D5",
          "midi": 74,
          "time": 302.8494952499972,
          "velocity": 0.5984251968503937,
          "duration": 0.1412497645833355
        },
        {
          "name": "C#5",
          "midi": 73,
          "time": 302.9994949999972,
          "velocity": 0.6456692913385826,
          "duration": 0.1412497645833355
        },
        {
          "name": "C5",
          "midi": 72,
          "time": 303.1494947499972,
          "velocity": 0.7322834645669292,
          "duration": 0.1412497645833355
        },
        {
          "name": "B4",
          "midi": 71,
          "time": 303.2994944999972,
          "velocity": 0.7401574803149606,
          "duration": 0.1412497645833355
        },
        {
          "name": "A#4",
          "midi": 70,
          "time": 303.4494942499972,
          "velocity": 0.8661417322834646,
          "duration": 0.1412497645833355
        },
        {
          "name": "A4",
          "midi": 69,
          "time": 303.5994939999972,
          "velocity": 0.7165354330708661,
          "duration": 0.5687490520833194
        },
        {
          "name": "D5",
          "midi": 74,
          "time": 304.1994929999972,
          "velocity": 0.6929133858267716,
          "duration": 1.1387481020833548
        },
        {
          "name": "F#5",
          "midi": 78,
          "time": 304.1994929999972,
          "velocity": 0.7244094488188977,
          "duration": 1.1387481020833548
        },
        {
          "name": "D5",
          "midi": 74,
          "time": 305.39949099999717,
          "velocity": 0.6929133858267716,
          "duration": 0.5687490520833194
        },
        {
          "name": "F#5",
          "midi": 78,
          "time": 305.39949099999717,
          "velocity": 0.5433070866141733,
          "duration": 0.5687490520833194
        },
        {
          "name": "D5",
          "midi": 74,
          "time": 305.99948999999714,
          "velocity": 0.6377952755905512,
          "duration": 0.5687490520833194
        },
        {
          "name": "F#5",
          "midi": 78,
          "time": 305.99948999999714,
          "velocity": 0.7322834645669292,
          "duration": 0.5687490520833194
        },
        {
          "name": "E5",
          "midi": 76,
          "time": 306.5994889999971,
          "velocity": 0.6850393700787402,
          "duration": 0.5687490520833194
        },
        {
          "name": "G5",
          "midi": 79,
          "time": 306.5994889999971,
          "velocity": 0.6535433070866141,
          "duration": 0.5687490520833194
        },
        {
          "name": "F#5",
          "midi": 78,
          "time": 307.1994879999971,
          "velocity": 0.7401574803149606,
          "duration": 0.5687490520833194
        },
        {
          "name": "A5",
          "midi": 81,
          "time": 307.1994879999971,
          "velocity": 0.8188976377952756,
          "duration": 0.5687490520833194
        },
        {
          "name": "G5",
          "midi": 79,
          "time": 307.79948699999704,
          "velocity": 0.8346456692913385,
          "duration": 0.5687490520833194
        },
        {
          "name": "A#5",
          "midi": 82,
          "time": 307.79948699999704,
          "velocity": 0.6299212598425197,
          "duration": 0.5687490520833194
        },
        {
          "name": "F6",
          "midi": 89,
          "time": 308.399485999997,
          "velocity": 0.5826771653543307,
          "duration": 0.18874968541666703
        },
        {
          "name": "E6",
          "midi": 88,
          "time": 308.59948566666367,
          "velocity": 0.6929133858267716,
          "duration": 0.18874968541666703
        },
        {
          "name": "D#6",
          "midi": 87,
          "time": 308.7994853333303,
          "velocity": 0.6299212598425197,
          "duration": 0.18874968541666703
        },
        {
          "name": "D6",
          "midi": 86,
          "time": 308.999484999997,
          "velocity": 0.6614173228346457,
          "duration": 0.18874968541666703
        },
        {
          "name": "C#6",
          "midi": 85,
          "time": 309.19948466666364,
          "velocity": 0.6535433070866141,
          "duration": 0.18874968541666703
        },
        {
          "name": "C6",
          "midi": 84,
          "time": 309.3994843333303,
          "velocity": 0.6220472440944882,
          "duration": 0.18874968541666703
        },
        {
          "name": "A#5",
          "midi": 82,
          "time": 309.59948399999695,
          "velocity": 0.6220472440944882,
          "duration": 0.5687490520833194
        },
        {
          "name": "A#5",
          "midi": 82,
          "time": 310.1994829999969,
          "velocity": 0.7401574803149606,
          "duration": 0.18874968541666703
        },
        {
          "name": "A5",
          "midi": 81,
          "time": 310.3994826666636,
          "velocity": 0.5433070866141733,
          "duration": 0.18874968541666703
        },
        {
          "name": "G#5",
          "midi": 80,
          "time": 310.59948233333023,
          "velocity": 0.5669291338582677,
          "duration": 0.18874968541666703
        },
        {
          "name": "G5",
          "midi": 79,
          "time": 310.7994819999969,
          "velocity": 0.7401574803149606,
          "duration": 0.18874968541666703
        },
        {
          "name": "F#5",
          "midi": 78,
          "time": 310.99948166666354,
          "velocity": 0.6062992125984252,
          "duration": 0.18874968541666703
        },
        {
          "name": "F5",
          "midi": 77,
          "time": 311.1994813333302,
          "velocity": 0.7086614173228346,
          "duration": 0.18874968541666703
        },
        {
          "name": "C5",
          "midi": 72,
          "time": 311.39948099999685,
          "velocity": 0.5905511811023622,
          "duration": 1.1387481020833548
        },
        {
          "name": "E5",
          "midi": 76,
          "time": 311.39948099999685,
          "velocity": 0.8031496062992126,
          "duration": 1.1387481020833548
        },
        {
          "name": "C5",
          "midi": 72,
          "time": 312.59947899999685,
          "velocity": 0.7716535433070866,
          "duration": 0.5687490520833194
        },
        {
          "name": "E5",
          "midi": 76,
          "time": 312.59947899999685,
          "velocity": 0.5275590551181102,
          "duration": 0.5687490520833194
        },
        {
          "name": "C5",
          "midi": 72,
          "time": 313.1994779999968,
          "velocity": 0.8188976377952756,
          "duration": 0.5687490520833194
        },
        {
          "name": "E5",
          "midi": 76,
          "time": 313.1994779999968,
          "velocity": 0.5669291338582677,
          "duration": 0.5687490520833194
        },
        {
          "name": "D5",
          "midi": 74,
          "time": 313.7994769999968,
          "velocity": 0.5748031496062992,
          "duration": 0.5687490520833194
        },
        {
          "name": "F5",
          "midi": 77,
          "time": 313.7994769999968,
          "velocity": 0.84251968503937,
          "duration": 0.5687490520833194
        },
        {
          "name": "E5",
          "midi": 76,
          "time": 314.39947599999675,
          "velocity": 0.6062992125984252,
          "duration": 0.5687490520833194
        },
        {
          "name": "G5",
          "midi": 79,
          "time": 314.39947599999675,
          "velocity": 0.6220472440944882,
          "duration": 0.5687490520833194
        },
        {
          "name": "F5",
          "midi": 77,
          "time": 314.9994749999967,
          "velocity": 0.8188976377952756,
          "duration": 0.5687490520833194
        },
        {
          "name": "A5",
          "midi": 81,
          "time": 314.9994749999967,
          "velocity": 0.8582677165354331,
          "duration": 0.5687490520833194
        },
        {
          "name": "G5",
          "midi": 79,
          "time": 315.5994739999967,
          "velocity": 0.6141732283464567,
          "duration": 0.18874968541666703
        },
        {
          "name": "F#5",
          "midi": 78,
          "time": 315.79947366666335,
          "velocity": 0.5826771653543307,
          "duration": 0.18874968541666703
        },
        {
          "name": "F5",
          "midi": 77,
          "time": 315.99947333333,
          "velocity": 0.5905511811023622,
          "duration": 0.18874968541666703
        },
        {
          "name": "E5",
          "midi": 76,
          "time": 316.19947299999666,
          "velocity": 0.5196850393700787,
          "duration": 0.18874968541666703
        },
        {
          "name": "D#5",
          "midi": 75,
          "time": 316.3994726666633,
          "velocity": 0.6220472440944882,
          "duration": 0.18874968541666703
        },
        {
          "name": "D5",
          "midi": 74,
          "time": 316.59947233332997,
          "velocity": 0.6299212598425197,
          "duration": 0.18874968541666703
        },
        {
          "name": "C5",
          "midi": 72,
          "time": 316.7994719999966,
          "velocity": 0.7007874015748031,
          "duration": 0.5687490520833194
        },
        {
          "name": "G5",
          "midi": 79,
          "time": 317.3994709999966,
          "velocity": 0.7401574803149606,
          "duration": 0.5687490520833194
        },
        {
          "name": "F5",
          "midi": 77,
          "time": 317.99946999999656,
          "velocity": 0.6614173228346457,
          "duration": 0.5687490520833194
        },
        {
          "name": "E5",
          "midi": 76,
          "time": 318.59946899999653,
          "velocity": 0.7716535433070866,
          "duration": 0.5687490520833194
        },
        {
          "name": "D#5",
          "midi": 75,
          "time": 319.1994679999965,
          "velocity": 0.8267716535433071,
          "duration": 0.5687490520833194
        },
        {
          "name": "E5",
          "midi": 76,
          "time": 319.79946699999647,
          "velocity": 0.7952755905511811,
          "duration": 0.5687490520833194
        },
        {
          "name": "G5",
          "midi": 79,
          "time": 320.39946599999644,
          "velocity": 0.9133858267716536,
          "duration": 0.5687490520833194
        },
        {
          "name": "F5",
          "midi": 77,
          "time": 320.9994649999964,
          "velocity": 0.8267716535433071,
          "duration": 0.5687490520833194
        },
        {
          "name": "E5",
          "midi": 76,
          "time": 321.5994639999964,
          "velocity": 0.8267716535433071,
          "duration": 0.5687490520833194
        },
        {
          "name": "D5",
          "midi": 74,
          "time": 322.19946299999634,
          "velocity": 0.8110236220472441,
          "duration": 0.5687490520833194
        },
        {
          "name": "C#5",
          "midi": 73,
          "time": 322.7994619999963,
          "velocity": 0.7244094488188977,
          "duration": 0.5687490520833194
        },
        {
          "name": "D5",
          "midi": 74,
          "time": 323.3994609999963,
          "velocity": 0.8267716535433071,
          "duration": 0.5687490520833194
        },
        {
          "name": "G4",
          "midi": 67,
          "time": 323.99945999999625,
          "velocity": 0.8110236220472441,
          "duration": 1.1387481020833548
        },
        {
          "name": "A4",
          "midi": 69,
          "time": 323.99945999999625,
          "velocity": 0.7480314960629921,
          "duration": 1.1387481020833548
        },
        {
          "name": "C#5",
          "midi": 73,
          "time": 323.99945999999625,
          "velocity": 0.7244094488188977,
          "duration": 1.1387481020833548
        },
        {
          "name": "E5",
          "midi": 76,
          "time": 323.99945999999625,
          "velocity": 0.9606299212598425,
          "duration": 1.1387481020833548
        },
        {
          "name": "A5",
          "midi": 81,
          "time": 325.19945799999624,
          "velocity": 0.8110236220472441,
          "duration": 0.5687490520833194
        },
        {
          "name": "C5",
          "midi": 72,
          "time": 325.7994569999962,
          "velocity": 0.6771653543307087,
          "duration": 1.1387481020833548
        },
        {
          "name": "D#5",
          "midi": 75,
          "time": 325.7994569999962,
          "velocity": 0.8188976377952756,
          "duration": 1.1387481020833548
        },
        {
          "name": "G5",
          "midi": 79,
          "time": 325.7994569999962,
          "velocity": 0.8267716535433071,
          "duration": 1.1387481020833548
        },
        {
          "name": "C6",
          "midi": 84,
          "time": 325.7994569999962,
          "velocity": 0.8031496062992126,
          "duration": 1.1387481020833548
        },
        {
          "name": "A#5",
          "midi": 82,
          "time": 326.9994549999962,
          "velocity": 0.7874015748031497,
          "duration": 0.5687490520833194
        },
        {
          "name": "A5",
          "midi": 81,
          "time": 327.5994539999962,
          "velocity": 0.9212598425196851,
          "duration": 1.1387481020833548
        },
        {
          "name": "G5",
          "midi": 79,
          "time": 328.79945199999617,
          "velocity": 0.8976377952755905,
          "duration": 0.5687490520833194
        },
        {
          "name": "F#5",
          "midi": 78,
          "time": 329.39945099999613,
          "velocity": 0.7086614173228346,
          "duration": 0.2837495270833301
        },
        {
          "name": "A5",
          "midi": 81,
          "time": 329.69945049999615,
          "velocity": 0.905511811023622,
          "duration": 0.2837495270833301
        },
        {
          "name": "C5",
          "midi": 72,
          "time": 329.99944999999616,
          "velocity": 0.6692913385826772,
          "duration": 0.18874968541666703
        },
        {
          "name": "D5",
          "midi": 74,
          "time": 330.1994496666628,
          "velocity": 0.6299212598425197,
          "duration": 0.18874968541666703
        },
        {
          "name": "C5",
          "midi": 72,
          "time": 330.39944933332947,
          "velocity": 0.5511811023622047,
          "duration": 0.18874968541666703
        },
        {
          "name": "A#4",
          "midi": 70,
          "time": 330.5994489999961,
          "velocity": 0.7401574803149606,
          "duration": 0.2987495020833535
        },
        {
          "name": "A#4",
          "midi": 70,
          "time": 331.7994469999961,
          "velocity": 0.6692913385826772,
          "duration": 0.18874968541666703
        },
        {
          "name": "C5",
          "midi": 72,
          "time": 331.9994466666628,
          "velocity": 0.6141732283464567,
          "duration": 0.18874968541666703
        },
        {
          "name": "A#4",
          "midi": 70,
          "time": 332.19944633332943,
          "velocity": 0.6456692913385826,
          "duration": 0.18874968541666703
        },
        {
          "name": "A4",
          "midi": 69,
          "time": 332.3994459999961,
          "velocity": 0.7086614173228346,
          "duration": 0.2987495020833535
        },
        {
          "name": "G4",
          "midi": 67,
          "time": 333.5994439999961,
          "velocity": 0.5433070866141733,
          "duration": 0.18874968541666703
        },
        {
          "name": "A4",
          "midi": 69,
          "time": 333.79944366666274,
          "velocity": 0.5433070866141733,
          "duration": 0.18874968541666703
        },
        {
          "name": "G4",
          "midi": 67,
          "time": 333.9994433333294,
          "velocity": 0.48031496062992124,
          "duration": 0.18874968541666703
        },
        {
          "name": "F#4",
          "midi": 66,
          "time": 334.19944299999605,
          "velocity": 0.6614173228346457,
          "duration": 0.2987495020833535
        },
        {
          "name": "D#4",
          "midi": 63,
          "time": 335.3994409999961,
          "velocity": 0.6692913385826772,
          "duration": 0.18874968541666703
        },
        {
          "name": "F#4",
          "midi": 66,
          "time": 335.59944066666276,
          "velocity": 0.6062992125984252,
          "duration": 0.18874968541666703
        },
        {
          "name": "D#4",
          "midi": 63,
          "time": 335.7994403333294,
          "velocity": 0.6299212598425197,
          "duration": 0.18874968541666703
        },
        {
          "name": "D4",
          "midi": 62,
          "time": 335.99943999999607,
          "velocity": 0.7401574803149606,
          "duration": 1.1387481020833548
        },
        {
          "name": "D#4",
          "midi": 63,
          "time": 337.19943799999606,
          "velocity": 0.8346456692913385,
          "duration": 0.5687490520833194
        },
        {
          "name": "G#4",
          "midi": 68,
          "time": 337.79943699999603,
          "velocity": 0.7322834645669292,
          "duration": 0.5687490520833194
        },
        {
          "name": "B4",
          "midi": 71,
          "time": 338.399435999996,
          "velocity": 0.6929133858267716,
          "duration": 0.5687490520833194
        },
        {
          "name": "E4",
          "midi": 64,
          "time": 340.19943299999596,
          "velocity": 0.7165354330708661,
          "duration": 0.5687490520833194
        },
        {
          "name": "A4",
          "midi": 69,
          "time": 340.79943199999593,
          "velocity": 0.8031496062992126,
          "duration": 0.5687490520833194
        },
        {
          "name": "C5",
          "midi": 72,
          "time": 341.3994309999959,
          "velocity": 0.7559055118110236,
          "duration": 0.5687490520833194
        },
        {
          "name": "E5",
          "midi": 76,
          "time": 341.99942999999587,
          "velocity": 0.84251968503937,
          "duration": 1.1387481020833548
        },
        {
          "name": "E5",
          "midi": 76,
          "time": 343.19942799999586,
          "velocity": 0.889763779527559,
          "duration": 0.5687490520833194
        },
        {
          "name": "D5",
          "midi": 74,
          "time": 343.79942699999583,
          "velocity": 0.7559055118110236,
          "duration": 0.5687490520833194
        },
        {
          "name": "C5",
          "midi": 72,
          "time": 344.3994259999958,
          "velocity": 0.7401574803149606,
          "duration": 0.5687490520833194
        },
        {
          "name": "B4",
          "midi": 71,
          "time": 344.99942499999577,
          "velocity": 0.8818897637795275,
          "duration": 0.5687490520833194
        },
        {
          "name": "C5",
          "midi": 72,
          "time": 345.59942399999574,
          "velocity": 0.7952755905511811,
          "duration": 1.7087471520833333
        },
        {
          "name": "A4",
          "midi": 69,
          "time": 347.39942099999575,
          "velocity": 0.9448818897637795,
          "duration": 0.5687490520833194
        },
        {
          "name": "C5",
          "midi": 72,
          "time": 347.9994199999957,
          "velocity": 0.7165354330708661,
          "duration": 0.5687490520833194
        },
        {
          "name": "E5",
          "midi": 76,
          "time": 348.5994189999957,
          "velocity": 0.889763779527559,
          "duration": 0.5687490520833194
        },
        {
          "name": "A5",
          "midi": 81,
          "time": 349.19941799999566,
          "velocity": 0.8503937007874016,
          "duration": 1.1387481020833548
        },
        {
          "name": "A5",
          "midi": 81,
          "time": 350.39941599999565,
          "velocity": 0.7165354330708661,
          "duration": 0.5687490520833194
        },
        {
          "name": "A5",
          "midi": 81,
          "time": 350.9994149999956,
          "velocity": 0.7244094488188977,
          "duration": 0.5687490520833194
        },
        {
          "name": "G5",
          "midi": 79,
          "time": 351.5994139999956,
          "velocity": 0.8110236220472441,
          "duration": 0.5687490520833194
        },
        {
          "name": "F5",
          "midi": 77,
          "time": 352.19941299999556,
          "velocity": 0.7480314960629921,
          "duration": 0.5687490520833194
        },
        {
          "name": "G5",
          "midi": 79,
          "time": 352.7994119999955,
          "velocity": 0.8503937007874016,
          "duration": 1.7087471520833333
        },
        {
          "name": "B4",
          "midi": 71,
          "time": 354.59940899999555,
          "velocity": 0.7244094488188977,
          "duration": 0.5687490520833194
        },
        {
          "name": "E5",
          "midi": 76,
          "time": 355.1994079999955,
          "velocity": 0.8818897637795275,
          "duration": 0.5687490520833194
        },
        {
          "name": "G5",
          "midi": 79,
          "time": 355.7994069999955,
          "velocity": 0.7401574803149606,
          "duration": 0.5687490520833194
        },
        {
          "name": "B5",
          "midi": 83,
          "time": 356.39940599999545,
          "velocity": 0.8346456692913385,
          "duration": 1.1387481020833548
        },
        {
          "name": "A5",
          "midi": 81,
          "time": 357.59940399999545,
          "velocity": 0.8346456692913385,
          "duration": 0.5687490520833194
        },
        {
          "name": "G5",
          "midi": 79,
          "time": 358.1994029999954,
          "velocity": 0.7401574803149606,
          "duration": 0.5687490520833194
        },
        {
          "name": "F#5",
          "midi": 78,
          "time": 358.7994019999954,
          "velocity": 0.7480314960629921,
          "duration": 0.5687490520833194
        },
        {
          "name": "G5",
          "midi": 79,
          "time": 359.39940099999535,
          "velocity": 0.7952755905511811,
          "duration": 0.5687490520833194
        },
        {
          "name": "A5",
          "midi": 81,
          "time": 359.9993999999953,
          "velocity": 0.7244094488188977,
          "duration": 1.1387481020833548
        },
        {
          "name": "G5",
          "midi": 79,
          "time": 361.1993979999953,
          "velocity": 0.8503937007874016,
          "duration": 0.5687490520833194
        },
        {
          "name": "F#5",
          "midi": 78,
          "time": 361.7993969999953,
          "velocity": 0.8110236220472441,
          "duration": 1.1387481020833548
        },
        {
          "name": "E5",
          "midi": 76,
          "time": 362.9993949999953,
          "velocity": 0.8110236220472441,
          "duration": 0.5687490520833194
        },
        {
          "name": "D5",
          "midi": 74,
          "time": 363.59939399999524,
          "velocity": 0.7716535433070866,
          "duration": 0.5687490520833194
        },
        {
          "name": "C5",
          "midi": 72,
          "time": 364.1993929999952,
          "velocity": 0.8740157480314961,
          "duration": 0.5687490520833194
        },
        {
          "name": "D5",
          "midi": 74,
          "time": 364.7993919999952,
          "velocity": 0.8661417322834646,
          "duration": 0.5687490520833194
        },
        {
          "name": "E5",
          "midi": 76,
          "time": 365.39939099999515,
          "velocity": 0.8031496062992126,
          "duration": 0.5687490520833194
        },
        {
          "name": "D5",
          "midi": 74,
          "time": 365.9993899999951,
          "velocity": 0.8661417322834646,
          "duration": 0.5687490520833194
        },
        {
          "name": "A4",
          "midi": 69,
          "time": 366.5993889999951,
          "velocity": 0.889763779527559,
          "duration": 0.5687490520833194
        },
        {
          "name": "B4",
          "midi": 71,
          "time": 367.19938799999505,
          "velocity": 0.8110236220472441,
          "duration": 1.7087471520833333
        },
        {
          "name": "E4",
          "midi": 64,
          "time": 368.9993849999951,
          "velocity": 0.7086614173228346,
          "duration": 0.5987490020833093
        },
        {
          "name": "E5",
          "midi": 76,
          "time": 368.9993849999951,
          "velocity": 0.8818897637795275,
          "duration": 0.5987490020833093
        },
        {
          "name": "A5",
          "midi": 81,
          "time": 369.59938399999504,
          "velocity": 0.7244094488188977,
          "duration": 0.5987490020833093
        },
        {
          "name": "C5",
          "midi": 72,
          "time": 370.199382999995,
          "velocity": 0.7795275590551181,
          "duration": 0.5987490020833093
        },
        {
          "name": "C6",
          "midi": 84,
          "time": 370.199382999995,
          "velocity": 0.7322834645669292,
          "duration": 0.5987490020833093
        },
        {
          "name": "E5",
          "midi": 76,
          "time": 370.799381999995,
          "velocity": 0.889763779527559,
          "duration": 0.5687490520833194
        },
        {
          "name": "E6",
          "midi": 88,
          "time": 370.799381999995,
          "velocity": 0.8503937007874016,
          "duration": 0.5687490520833194
        },
        {
          "name": "E5",
          "midi": 76,
          "time": 371.39938099999495,
          "velocity": 0.8031496062992126,
          "duration": 0.5687490520833194
        },
        {
          "name": "E6",
          "midi": 88,
          "time": 371.39938099999495,
          "velocity": 0.8267716535433071,
          "duration": 0.5687490520833194
        },
        {
          "name": "E5",
          "midi": 76,
          "time": 371.9993799999949,
          "velocity": 0.7637795275590551,
          "duration": 0.5687490520833194
        },
        {
          "name": "E6",
          "midi": 88,
          "time": 371.9993799999949,
          "velocity": 0.8582677165354331,
          "duration": 0.5687490520833194
        },
        {
          "name": "D5",
          "midi": 74,
          "time": 372.5993789999949,
          "velocity": 0.6850393700787402,
          "duration": 0.5687490520833194
        },
        {
          "name": "D6",
          "midi": 86,
          "time": 372.5993789999949,
          "velocity": 0.889763779527559,
          "duration": 0.5687490520833194
        },
        {
          "name": "D5",
          "midi": 74,
          "time": 373.19937799999485,
          "velocity": 0.7244094488188977,
          "duration": 0.2837495270833301
        },
        {
          "name": "D6",
          "midi": 86,
          "time": 373.19937799999485,
          "velocity": 0.889763779527559,
          "duration": 0.2837495270833301
        },
        {
          "name": "B4",
          "midi": 71,
          "time": 373.49937749999486,
          "velocity": 0.8346456692913385,
          "duration": 0.2837495270833301
        },
        {
          "name": "B5",
          "midi": 83,
          "time": 373.49937749999486,
          "velocity": 0.7322834645669292,
          "duration": 0.2837495270833301
        },
        {
          "name": "D5",
          "midi": 74,
          "time": 373.7993769999949,
          "velocity": 0.6614173228346457,
          "duration": 0.2837495270833301
        },
        {
          "name": "D6",
          "midi": 86,
          "time": 373.7993769999949,
          "velocity": 0.7165354330708661,
          "duration": 0.2837495270833301
        },
        {
          "name": "B4",
          "midi": 71,
          "time": 374.0993764999949,
          "velocity": 0.7874015748031497,
          "duration": 0.2837495270833301
        },
        {
          "name": "B5",
          "midi": 83,
          "time": 374.0993764999949,
          "velocity": 0.7322834645669292,
          "duration": 0.2837495270833301
        },
        {
          "name": "C6",
          "midi": 84,
          "time": 374.3993759999949,
          "velocity": 0.7716535433070866,
          "duration": 0.2837495270833301
        },
        {
          "name": "B5",
          "midi": 83,
          "time": 374.6993754999949,
          "velocity": 0.7637795275590551,
          "duration": 0.2837495270833301
        },
        {
          "name": "A5",
          "midi": 81,
          "time": 374.9993749999949,
          "velocity": 0.7952755905511811,
          "duration": 0.2837495270833301
        },
        {
          "name": "E5",
          "midi": 76,
          "time": 375.29937449999494,
          "velocity": 0.6929133858267716,
          "duration": 0.2837495270833301
        },
        {
          "name": "C5",
          "midi": 72,
          "time": 375.59937399999495,
          "velocity": 0.7874015748031497,
          "duration": 0.2837495270833301
        },
        {
          "name": "B4",
          "midi": 71,
          "time": 375.89937349999497,
          "velocity": 0.8661417322834646,
          "duration": 0.2837495270833301
        },
        {
          "name": "A4",
          "midi": 69,
          "time": 376.199372999995,
          "velocity": 0.7244094488188977,
          "duration": 0.5687490520833194
        },
        {
          "name": "C5",
          "midi": 72,
          "time": 376.79937199999495,
          "velocity": 0.8661417322834646,
          "duration": 0.5687490520833194
        },
        {
          "name": "E5",
          "midi": 76,
          "time": 377.3993709999949,
          "velocity": 0.7716535433070866,
          "duration": 0.5687490520833194
        },
        {
          "name": "C5",
          "midi": 72,
          "time": 377.9993699999949,
          "velocity": 0.7874015748031497,
          "duration": 0.8537485770833086
        },
        {
          "name": "E5",
          "midi": 76,
          "time": 377.9993699999949,
          "velocity": 0.8188976377952756,
          "duration": 0.8537485770833086
        },
        {
          "name": "A5",
          "midi": 81,
          "time": 377.9993699999949,
          "velocity": 0.889763779527559,
          "duration": 0.8537485770833086
        },
        {
          "name": "C5",
          "midi": 72,
          "time": 378.89936849999486,
          "velocity": 0.7874015748031497,
          "duration": 0.5687490520833194
        },
        {
          "name": "E5",
          "midi": 76,
          "time": 378.89936849999486,
          "velocity": 0.6614173228346457,
          "duration": 0.5687490520833194
        },
        {
          "name": "A5",
          "midi": 81,
          "time": 378.89936849999486,
          "velocity": 0.8661417322834646,
          "duration": 0.5687490520833194
        },
        {
          "name": "C5",
          "midi": 72,
          "time": 379.49936749999483,
          "velocity": 0.6929133858267716,
          "duration": 0.2837495270833301
        },
        {
          "name": "E5",
          "midi": 76,
          "time": 379.49936749999483,
          "velocity": 0.6771653543307087,
          "duration": 0.2837495270833301
        },
        {
          "name": "A5",
          "midi": 81,
          "time": 379.49936749999483,
          "velocity": 0.7007874015748031,
          "duration": 0.2837495270833301
        },
        {
          "name": "A5",
          "midi": 81,
          "time": 379.79936699999485,
          "velocity": 0.84251968503937,
          "duration": 0.5687490520833194
        },
        {
          "name": "B5",
          "midi": 83,
          "time": 380.3993659999948,
          "velocity": 0.7952755905511811,
          "duration": 0.5687490520833194
        },
        {
          "name": "G5",
          "midi": 79,
          "time": 380.9993649999948,
          "velocity": 0.8346456692913385,
          "duration": 0.2837495270833301
        },
        {
          "name": "F5",
          "midi": 77,
          "time": 381.2993644999948,
          "velocity": 0.7165354330708661,
          "duration": 0.2837495270833301
        },
        {
          "name": "G5",
          "midi": 79,
          "time": 381.5993639999948,
          "velocity": 0.889763779527559,
          "duration": 0.5687490520833194
        },
        {
          "name": "E5",
          "midi": 76,
          "time": 382.1993629999948,
          "velocity": 0.7480314960629921,
          "duration": 0.2837495270833301
        },
        {
          "name": "D5",
          "midi": 74,
          "time": 382.4993624999948,
          "velocity": 0.6771653543307087,
          "duration": 0.2837495270833301
        },
        {
          "name": "E5",
          "midi": 76,
          "time": 382.7993619999948,
          "velocity": 0.7401574803149606,
          "duration": 0.2837495270833301
        },
        {
          "name": "G5",
          "midi": 79,
          "time": 383.0993614999948,
          "velocity": 0.7007874015748031,
          "duration": 0.2837495270833301
        },
        {
          "name": "B4",
          "midi": 71,
          "time": 383.3993609999948,
          "velocity": 0.8503937007874016,
          "duration": 0.5687490520833194
        },
        {
          "name": "E5",
          "midi": 76,
          "time": 383.3993609999948,
          "velocity": 0.7795275590551181,
          "duration": 0.2837495270833301
        },
        {
          "name": "D5",
          "midi": 74,
          "time": 383.69936049999484,
          "velocity": 0.7007874015748031,
          "duration": 0.2837495270833301
        },
        {
          "name": "C5",
          "midi": 72,
          "time": 383.99935999999485,
          "velocity": 0.6614173228346457,
          "duration": 0.2837495270833301
        },
        {
          "name": "B4",
          "midi": 71,
          "time": 384.29935949999486,
          "velocity": 0.6220472440944882,
          "duration": 0.2837495270833301
        },
        {
          "name": "E5",
          "midi": 76,
          "time": 384.5993589999949,
          "velocity": 0.7165354330708661,
          "duration": 0.2837495270833301
        },
        {
          "name": "G5",
          "midi": 79,
          "time": 384.8993584999949,
          "velocity": 0.7244094488188977,
          "duration": 0.2837495270833301
        },
        {
          "name": "B5",
          "midi": 83,
          "time": 385.1993579999949,
          "velocity": 0.84251968503937,
          "duration": 1.1387481020833548
        },
        {
          "name": "A5",
          "midi": 81,
          "time": 386.3993559999949,
          "velocity": 0.7952755905511811,
          "duration": 1.1387481020833548
        },
        {
          "name": "G5",
          "midi": 79,
          "time": 387.5993539999949,
          "velocity": 0.7795275590551181,
          "duration": 0.2837495270833301
        },
        {
          "name": "F#5",
          "midi": 78,
          "time": 387.8993534999949,
          "velocity": 0.7874015748031497,
          "duration": 0.2837495270833301
        },
        {
          "name": "F5",
          "midi": 77,
          "time": 388.1993529999949,
          "velocity": 0.7952755905511811,
          "duration": 0.2837495270833301
        },
        {
          "name": "F#5",
          "midi": 78,
          "time": 388.4993524999949,
          "velocity": 0.8188976377952756,
          "duration": 0.2837495270833301
        },
        {
          "name": "A5",
          "midi": 81,
          "time": 388.79935199999494,
          "velocity": 0.84251968503937,
          "duration": 1.1387481020833548
        },
        {
          "name": "G5",
          "midi": 79,
          "time": 389.99934999999493,
          "velocity": 0.7244094488188977,
          "duration": 0.5687490520833194
        },
        {
          "name": "F#5",
          "midi": 78,
          "time": 391.1993479999949,
          "velocity": 0.7952755905511811,
          "duration": 0.2837495270833301
        },
        {
          "name": "E5",
          "midi": 76,
          "time": 391.49934749999494,
          "velocity": 0.8740157480314961,
          "duration": 0.2837495270833301
        },
        {
          "name": "D#5",
          "midi": 75,
          "time": 391.79934699999495,
          "velocity": 0.7480314960629921,
          "duration": 0.2837495270833301
        },
        {
          "name": "E5",
          "midi": 76,
          "time": 392.09934649999497,
          "velocity": 0.8503937007874016,
          "duration": 0.2837495270833301
        },
        {
          "name": "E6",
          "midi": 88,
          "time": 392.399345999995,
          "velocity": 0.8031496062992126,
          "duration": 0.5687490520833194
        },
        {
          "name": "D6",
          "midi": 86,
          "time": 392.99934499999495,
          "velocity": 0.8031496062992126,
          "duration": 0.2837495270833301
        },
        {
          "name": "E6",
          "midi": 88,
          "time": 393.29934449999496,
          "velocity": 0.8031496062992126,
          "duration": 0.2837495270833301
        },
        {
          "name": "D6",
          "midi": 86,
          "time": 393.59934399999497,
          "velocity": 0.7874015748031497,
          "duration": 0.2837495270833301
        },
        {
          "name": "C6",
          "midi": 84,
          "time": 393.899343499995,
          "velocity": 0.8582677165354331,
          "duration": 0.2837495270833301
        },
        {
          "name": "B5",
          "midi": 83,
          "time": 394.199342999995,
          "velocity": 0.7874015748031497,
          "duration": 0.8537485770833086
        },
        {
          "name": "C#6",
          "midi": 85,
          "time": 395.099341499995,
          "velocity": 0.7637795275590551,
          "duration": 0.2837495270833301
        },
        {
          "name": "D#6",
          "midi": 87,
          "time": 395.399340999995,
          "velocity": 0.7480314960629921,
          "duration": 0.5687490520833194
        },
        {
          "name": "G#5",
          "midi": 80,
          "time": 395.99933999999496,
          "velocity": 0.7244094488188977,
          "duration": 5.218741302083345
        },
        {
          "name": "B5",
          "midi": 83,
          "time": 396.0243399583283,
          "velocity": 0.7244094488188977,
          "duration": 5.192491345833332
        },
        {
          "name": "E6",
          "midi": 88,
          "time": 396.0505899145783,
          "velocity": 0.7874015748031497,
          "duration": 5.16624138958332
        },
        {
          "name": "F#5",
          "midi": 78,
          "time": 401.999329999995,
          "velocity": 0.7874015748031497,
          "duration": 0.2837495270833301
        },
        {
          "name": "F#6",
          "midi": 90,
          "time": 401.999329999995,
          "velocity": 0.7401574803149606,
          "duration": 0.2837495270833301
        },
        {
          "name": "E5",
          "midi": 76,
          "time": 402.299329499995,
          "velocity": 0.8661417322834646,
          "duration": 0.2837495270833301
        },
        {
          "name": "E6",
          "midi": 88,
          "time": 402.299329499995,
          "velocity": 0.8346456692913385,
          "duration": 0.2837495270833301
        },
        {
          "name": "D#5",
          "midi": 75,
          "time": 402.599328999995,
          "velocity": 0.7244094488188977,
          "duration": 0.2837495270833301
        },
        {
          "name": "D#6",
          "midi": 87,
          "time": 402.599328999995,
          "velocity": 0.7322834645669292,
          "duration": 0.2837495270833301
        },
        {
          "name": "E5",
          "midi": 76,
          "time": 402.899328499995,
          "velocity": 0.8503937007874016,
          "duration": 0.2837495270833301
        },
        {
          "name": "E6",
          "midi": 88,
          "time": 402.899328499995,
          "velocity": 0.7716535433070866,
          "duration": 0.2837495270833301
        },
        {
          "name": "A4",
          "midi": 69,
          "time": 403.19932799999503,
          "velocity": 0.6929133858267716,
          "duration": 0.5687490520833194
        },
        {
          "name": "C5",
          "midi": 72,
          "time": 403.19932799999503,
          "velocity": 0.5511811023622047,
          "duration": 0.5687490520833194
        },
        {
          "name": "G4",
          "midi": 67,
          "time": 403.799326999995,
          "velocity": 0.6771653543307087,
          "duration": 0.5687490520833194
        },
        {
          "name": "B4",
          "midi": 71,
          "time": 403.799326999995,
          "velocity": 0.5511811023622047,
          "duration": 0.5687490520833194
        },
        {
          "name": "F#4",
          "midi": 66,
          "time": 404.39932599999497,
          "velocity": 0.5826771653543307,
          "duration": 0.5687490520833194
        },
        {
          "name": "A4",
          "midi": 69,
          "time": 404.39932599999497,
          "velocity": 0.5433070866141733,
          "duration": 0.5687490520833194
        },
        {
          "name": "D#4",
          "midi": 63,
          "time": 404.99932499999494,
          "velocity": 0.6535433070866141,
          "duration": 1.1387481020833548
        },
        {
          "name": "B4",
          "midi": 71,
          "time": 404.99932499999494,
          "velocity": 0.6220472440944882,
          "duration": 1.1387481020833548
        },
        {
          "name": "C#4",
          "midi": 61,
          "time": 406.19932299999493,
          "velocity": 0.5669291338582677,
          "duration": 0.5687490520833194
        },
        {
          "name": "A4",
          "midi": 69,
          "time": 406.19932299999493,
          "velocity": 0.6141732283464567,
          "duration": 0.5687490520833194
        },
        {
          "name": "D#4",
          "midi": 63,
          "time": 406.7993219999949,
          "velocity": 0.6535433070866141,
          "duration": 1.7087471520833333
        },
        {
          "name": "F#4",
          "midi": 66,
          "time": 406.7993219999949,
          "velocity": 0.5354330708661418,
          "duration": 1.7087471520833333
        },
        {
          "name": "E5",
          "midi": 76,
          "time": 409.19931799999495,
          "velocity": 0.7559055118110236,
          "duration": 3.5087441520832954
        },
        {
          "name": "G#5",
          "midi": 80,
          "time": 409.2380679354116,
          "velocity": 0.6535433070866141,
          "duration": 3.4687442187499755
        },
        {
          "name": "B5",
          "midi": 83,
          "time": 409.2780678687449,
          "velocity": 0.7795275590551181,
          "duration": 3.4287442854166557
        },
        {
          "name": "E4",
          "midi": 64,
          "time": 412.7993119999949,
          "velocity": 0.7637795275590551,
          "duration": 0.2837495270833301
        },
        {
          "name": "D#4",
          "midi": 63,
          "time": 413.09931149999494,
          "velocity": 0.889763779527559,
          "duration": 0.2837495270833301
        },
        {
          "name": "E4",
          "midi": 64,
          "time": 413.39931099999495,
          "velocity": 0.8582677165354331,
          "duration": 0.2837495270833301
        },
        {
          "name": "G#4",
          "midi": 68,
          "time": 413.69931049999497,
          "velocity": 0.8661417322834646,
          "duration": 0.2837495270833301
        },
        {
          "name": "A4",
          "midi": 69,
          "time": 413.999309999995,
          "velocity": 0.7165354330708661,
          "duration": 0.2837495270833301
        },
        {
          "name": "C5",
          "midi": 72,
          "time": 414.299309499995,
          "velocity": 0.8740157480314961,
          "duration": 0.2837495270833301
        },
        {
          "name": "B4",
          "midi": 71,
          "time": 414.599308999995,
          "velocity": 0.7244094488188977,
          "duration": 0.2837495270833301
        },
        {
          "name": "A#4",
          "midi": 70,
          "time": 414.899308499995,
          "velocity": 0.8740157480314961,
          "duration": 0.2837495270833301
        },
        {
          "name": "B4",
          "midi": 71,
          "time": 415.199307999995,
          "velocity": 0.7480314960629921,
          "duration": 0.2837495270833301
        },
        {
          "name": "D#5",
          "midi": 75,
          "time": 415.49930749999504,
          "velocity": 0.8267716535433071,
          "duration": 0.2837495270833301
        },
        {
          "name": "E5",
          "midi": 76,
          "time": 415.79930699999505,
          "velocity": 0.7795275590551181,
          "duration": 0.2837495270833301
        },
        {
          "name": "F#5",
          "midi": 78,
          "time": 416.09930649999507,
          "velocity": 0.8818897637795275,
          "duration": 0.2837495270833301
        },
        {
          "name": "G#5",
          "midi": 80,
          "time": 416.3993059999951,
          "velocity": 0.7559055118110236,
          "duration": 0.2837495270833301
        },
        {
          "name": "F#5",
          "midi": 78,
          "time": 416.6993054999951,
          "velocity": 0.7952755905511811,
          "duration": 0.2837495270833301
        },
        {
          "name": "G#5",
          "midi": 80,
          "time": 416.9993049999951,
          "velocity": 0.8582677165354331,
          "duration": 0.2837495270833301
        },
        {
          "name": "B5",
          "midi": 83,
          "time": 417.2993044999951,
          "velocity": 0.8503937007874016,
          "duration": 0.2837495270833301
        },
        {
          "name": "C6",
          "midi": 84,
          "time": 417.59930399999513,
          "velocity": 0.8661417322834646,
          "duration": 0.2837495270833301
        },
        {
          "name": "D#6",
          "midi": 87,
          "time": 417.89930349999514,
          "velocity": 0.8346456692913385,
          "duration": 0.2837495270833301
        },
        {
          "name": "E6",
          "midi": 88,
          "time": 418.19930299999515,
          "velocity": 0.8346456692913385,
          "duration": 0.2987495020833535
        },
        {
          "name": "B3",
          "midi": 59,
          "time": 419.9992999999952,
          "velocity": 0.6535433070866141,
          "duration": 6.928738452083337
        },
        {
          "name": "E4",
          "midi": 64,
          "time": 420.0180499687452,
          "velocity": 0.6929133858267716,
          "duration": 6.908738485416677
        },
        {
          "name": "G#4",
          "midi": 68,
          "time": 420.03804993541183,
          "velocity": 0.4566929133858268,
          "duration": 6.888738518750017
        },
        {
          "name": "B4",
          "midi": 71,
          "time": 420.0580499020785,
          "velocity": 0.5433070866141733,
          "duration": 6.868738552083357
        }
      ]
    },
    {
      "instrument_number": -1,
      "notes": [
        {
          "name": "A#4",
          "midi": 70,
          "time": 0,
          "velocity": 0.5905511811023622,
          "duration": 0.2837495270833333
        },
        {
          "name": "C5",
          "midi": 72,
          "time": 0.2999995,
          "velocity": 0.44881889763779526,
          "duration": 0.28374952708333323
        },
        {
          "name": "A#4",
          "midi": 70,
          "time": 0.5999989999999998,
          "velocity": 0.44881889763779526,
          "duration": 0.28374952708333334
        },
        {
          "name": "C5",
          "midi": 72,
          "time": 0.8999984999999998,
          "velocity": 0.3464566929133858,
          "duration": 0.28374952708333334
        },
        {
          "name": "A#4",
          "midi": 70,
          "time": 1.199998,
          "velocity": 0.29133858267716534,
          "duration": 0.28374952708333323
        },
        {
          "name": "C5",
          "midi": 72,
          "time": 1.4999974999999999,
          "velocity": 0.3700787401574803,
          "duration": 0.28374952708333323
        },
        {
          "name": "A4",
          "midi": 69,
          "time": 1.7999969999999998,
          "velocity": 0.7401574803149606,
          "duration": 0.28374952708333323
        },
        {
          "name": "A#4",
          "midi": 70,
          "time": 2.0999964999999996,
          "velocity": 0.5748031496062992,
          "duration": 0.28374952708333323
        },
        {
          "name": "A4",
          "midi": 69,
          "time": 2.3999959999999994,
          "velocity": 0.5118110236220472,
          "duration": 0.28374952708333323
        },
        {
          "name": "A#4",
          "midi": 70,
          "time": 2.699995499999999,
          "velocity": 0.4881889763779528,
          "duration": 0.28374952708333323
        },
        {
          "name": "A4",
          "midi": 69,
          "time": 2.999994999999999,
          "velocity": 0.5433070866141733,
          "duration": 0.28374952708333323
        },
        {
          "name": "A#4",
          "midi": 70,
          "time": 3.2999944999999986,
          "velocity": 0.4645669291338583,
          "duration": 0.28374952708333323
        },
        {
          "name": "G4",
          "midi": 67,
          "time": 3.5999939999999984,
          "velocity": 0.6141732283464567,
          "duration": 0.28374952708333323
        },
        {
          "name": "A4",
          "midi": 69,
          "time": 3.899993499999998,
          "velocity": 0.6614173228346457,
          "duration": 0.2837495270833337
        },
        {
          "name": "G4",
          "midi": 67,
          "time": 4.199992999999998,
          "velocity": 0.3779527559055118,
          "duration": 0.2837495270833337
        },
        {
          "name": "A4",
          "midi": 69,
          "time": 4.4999924999999985,
          "velocity": 0.5354330708661418,
          "duration": 0.2837495270833337
        },
        {
          "name": "G4",
          "midi": 67,
          "time": 4.799991999999999,
          "velocity": 0.4094488188976378,
          "duration": 0.2837495270833337
        },
        {
          "name": "A4",
          "midi": 69,
          "time": 5.099991499999999,
          "velocity": 0.5984251968503937,
          "duration": 0.2837495270833337
        },
        {
          "name": "F#4",
          "midi": 66,
          "time": 5.399990999999999,
          "velocity": 0.7952755905511811,
          "duration": 0.14124976458333283
        },
        {
          "name": "E4",
          "midi": 64,
          "time": 5.549990749999998,
          "velocity": 0.7244094488188977,
          "duration": 0.14124976458333371
        },
        {
          "name": "D4",
          "midi": 62,
          "time": 5.699990499999998,
          "velocity": 0.7007874015748031,
          "duration": 1.2812478645833334
        },
        {
          "name": "D2",
          "midi": 38,
          "time": 7.049988249999998,
          "velocity": 0.5039370078740157,
          "duration": 0.42624928958333363
        },
        {
          "name": "A2",
          "midi": 45,
          "time": 7.499987499999999,
          "velocity": 0.5511811023622047,
          "duration": 0.2837495270833337
        },
        {
          "name": "D3",
          "midi": 50,
          "time": 7.799986999999999,
          "velocity": 0.6299212598425197,
          "duration": 0.2837495270833328
        },
        {
          "name": "F#3",
          "midi": 54,
          "time": 8.099986499999998,
          "velocity": 0.4566929133858268,
          "duration": 0.2837495270833337
        },
        {
          "name": "C2",
          "midi": 36,
          "time": 12.599978999999998,
          "velocity": 0.7322834645669292,
          "duration": 0.5687490520833318
        },
        {
          "name": "G3",
          "midi": 55,
          "time": 13.199977999999996,
          "velocity": 0.5984251968503937,
          "duration": 0.5687490520833336
        },
        {
          "name": "A#3",
          "midi": 58,
          "time": 13.199977999999996,
          "velocity": 0.4330708661417323,
          "duration": 0.5687490520833336
        },
        {
          "name": "D4",
          "midi": 62,
          "time": 13.199977999999996,
          "velocity": 0.4015748031496063,
          "duration": 0.5687490520833336
        },
        {
          "name": "D#4",
          "midi": 63,
          "time": 13.199977999999996,
          "velocity": 0.44881889763779526,
          "duration": 0.5687490520833336
        },
        {
          "name": "D2",
          "midi": 38,
          "time": 14.399975999999997,
          "velocity": 0.5039370078740157,
          "duration": 1.7087471520833315
        },
        {
          "name": "D3",
          "midi": 50,
          "time": 14.399975999999997,
          "velocity": 0.6377952755905512,
          "duration": 1.7087471520833315
        },
        {
          "name": "G2",
          "midi": 43,
          "time": 16.199972999999996,
          "velocity": 0.5039370078740157,
          "duration": 0.5687490520833336
        },
        {
          "name": "G3",
          "midi": 55,
          "time": 16.799971999999997,
          "velocity": 0.25984251968503935,
          "duration": 1.1387481020833334
        },
        {
          "name": "A#3",
          "midi": 58,
          "time": 16.799971999999997,
          "velocity": 0.6062992125984252,
          "duration": 1.1387481020833334
        },
        {
          "name": "D4",
          "midi": 62,
          "time": 16.799971999999997,
          "velocity": 0.5669291338582677,
          "duration": 1.1387481020833334
        },
        {
          "name": "D#4",
          "midi": 63,
          "time": 16.799971999999997,
          "velocity": 0.3464566929133858,
          "duration": 1.1387481020833334
        },
        {
          "name": "G3",
          "midi": 55,
          "time": 17.999969999999998,
          "velocity": 0.5905511811023622,
          "duration": 0.5687490520833336
        },
        {
          "name": "G3",
          "midi": 55,
          "time": 18.599968999999998,
          "velocity": 0.23622047244094488,
          "duration": 1.1387481020833334
        },
        {
          "name": "A#3",
          "midi": 58,
          "time": 18.599968999999998,
          "velocity": 0.5669291338582677,
          "duration": 1.1387481020833334
        },
        {
          "name": "D4",
          "midi": 62,
          "time": 18.599968999999998,
          "velocity": 0.4881889763779528,
          "duration": 1.1387481020833334
        },
        {
          "name": "D#4",
          "midi": 63,
          "time": 18.599968999999998,
          "velocity": 0.4015748031496063,
          "duration": 1.1387481020833334
        },
        {
          "name": "C3",
          "midi": 48,
          "time": 19.799967,
          "velocity": 0.6220472440944882,
          "duration": 0.5687490520833336
        },
        {
          "name": "G3",
          "midi": 55,
          "time": 20.399966,
          "velocity": 0.5118110236220472,
          "duration": 1.1387481020833334
        },
        {
          "name": "C4",
          "midi": 60,
          "time": 20.399966,
          "velocity": 0.5905511811023622,
          "duration": 1.1387481020833334
        },
        {
          "name": "D#4",
          "midi": 63,
          "time": 20.399966,
          "velocity": 0.5984251968503937,
          "duration": 1.1387481020833334
        },
        {
          "name": "G4",
          "midi": 67,
          "time": 20.399966,
          "velocity": 0.3858267716535433,
          "duration": 1.1387481020833334
        },
        {
          "name": "F2",
          "midi": 41,
          "time": 21.599964,
          "velocity": 0.8110236220472441,
          "duration": 0.5687490520833336
        },
        {
          "name": "A3",
          "midi": 57,
          "time": 22.199963,
          "velocity": 0.5748031496062992,
          "duration": 1.1387481020833334
        },
        {
          "name": "C4",
          "midi": 60,
          "time": 22.199963,
          "velocity": 0.44881889763779526,
          "duration": 1.1387481020833334
        },
        {
          "name": "F4",
          "midi": 65,
          "time": 22.199963,
          "velocity": 0.6377952755905512,
          "duration": 1.1387481020833334
        },
        {
          "name": "A#2",
          "midi": 46,
          "time": 23.399961,
          "velocity": 0.4881889763779528,
          "duration": 0.5687490520833336
        },
        {
          "name": "F3",
          "midi": 53,
          "time": 23.99996,
          "velocity": 0.5039370078740157,
          "duration": 1.1387481020833334
        },
        {
          "name": "A3",
          "midi": 57,
          "time": 23.99996,
          "velocity": 0.2755905511811024,
          "duration": 1.1387481020833334
        },
        {
          "name": "A#3",
          "midi": 58,
          "time": 23.99996,
          "velocity": 0.3464566929133858,
          "duration": 1.1387481020833334
        },
        {
          "name": "D4",
          "midi": 62,
          "time": 23.99996,
          "velocity": 0.44881889763779526,
          "duration": 1.1387481020833334
        },
        {
          "name": "F3",
          "midi": 53,
          "time": 25.199958000000002,
          "velocity": 0.49606299212598426,
          "duration": 0.5687490520833336
        },
        {
          "name": "F3",
          "midi": 53,
          "time": 25.799957000000003,
          "velocity": 0.5354330708661418,
          "duration": 1.1387481020833334
        },
        {
          "name": "A3",
          "midi": 57,
          "time": 25.799957000000003,
          "velocity": 0.33070866141732286,
          "duration": 1.1387481020833334
        },
        {
          "name": "A#3",
          "midi": 58,
          "time": 25.799957000000003,
          "velocity": 0.4251968503937008,
          "duration": 1.1387481020833334
        },
        {
          "name": "D4",
          "midi": 62,
          "time": 25.799957000000003,
          "velocity": 0.4409448818897638,
          "duration": 1.1387481020833334
        },
        {
          "name": "E3",
          "midi": 52,
          "time": 26.999955000000003,
          "velocity": 0.3937007874015748,
          "duration": 0.5687490520833336
        },
        {
          "name": "A#3",
          "midi": 58,
          "time": 27.599954000000004,
          "velocity": 0.5118110236220472,
          "duration": 1.1387481020833334
        },
        {
          "name": "D4",
          "midi": 62,
          "time": 27.599954000000004,
          "velocity": 0.5354330708661418,
          "duration": 1.1387481020833334
        },
        {
          "name": "G4",
          "midi": 67,
          "time": 27.599954000000004,
          "velocity": 0.5039370078740157,
          "duration": 1.1387481020833334
        },
        {
          "name": "A2",
          "midi": 45,
          "time": 28.799952000000005,
          "velocity": 0.4645669291338583,
          "duration": 0.5687490520833336
        },
        {
          "name": "G3",
          "midi": 55,
          "time": 29.399951000000005,
          "velocity": 0.5669291338582677,
          "duration": 1.1387481020833334
        },
        {
          "name": "A#3",
          "midi": 58,
          "time": 29.399951000000005,
          "velocity": 0.5433070866141733,
          "duration": 1.1387481020833334
        },
        {
          "name": "C#4",
          "midi": 61,
          "time": 29.399951000000005,
          "velocity": 0.5196850393700787,
          "duration": 1.1387481020833334
        },
        {
          "name": "D3",
          "midi": 50,
          "time": 30.599949000000006,
          "velocity": 0.7716535433070866,
          "duration": 0.5687490520833336
        },
        {
          "name": "F3",
          "midi": 53,
          "time": 31.199948000000006,
          "velocity": 0.4094488188976378,
          "duration": 1.1387481020833334
        },
        {
          "name": "A3",
          "midi": 57,
          "time": 31.199948000000006,
          "velocity": 0.4409448818897638,
          "duration": 1.1387481020833334
        },
        {
          "name": "D4",
          "midi": 62,
          "time": 31.199948000000006,
          "velocity": 0.4409448818897638,
          "duration": 1.1387481020833334
        },
        {
          "name": "C3",
          "midi": 48,
          "time": 32.39994600000001,
          "velocity": 0.7007874015748031,
          "duration": 0.5687490520833336
        },
        {
          "name": "F3",
          "midi": 53,
          "time": 32.999945000000004,
          "velocity": 0.5748031496062992,
          "duration": 1.1387481020833334
        },
        {
          "name": "A3",
          "midi": 57,
          "time": 32.999945000000004,
          "velocity": 0.5039370078740157,
          "duration": 1.1387481020833334
        },
        {
          "name": "D4",
          "midi": 62,
          "time": 32.999945000000004,
          "velocity": 0.49606299212598426,
          "duration": 1.1387481020833334
        },
        {
          "name": "A#2",
          "midi": 46,
          "time": 34.199943000000005,
          "velocity": 0.5354330708661418,
          "duration": 0.5687490520833336
        },
        {
          "name": "F3",
          "midi": 53,
          "time": 34.799942,
          "velocity": 0.5196850393700787,
          "duration": 1.1387481020833334
        },
        {
          "name": "A3",
          "midi": 57,
          "time": 34.799942,
          "velocity": 0.4251968503937008,
          "duration": 1.1387481020833334
        },
        {
          "name": "A#3",
          "midi": 58,
          "time": 34.799942,
          "velocity": 0.3543307086614173,
          "duration": 1.1387481020833334
        },
        {
          "name": "A2",
          "midi": 45,
          "time": 35.99994,
          "velocity": 0.5984251968503937,
          "duration": 0.5687490520833336
        },
        {
          "name": "E3",
          "midi": 52,
          "time": 36.599939,
          "velocity": 0.3858267716535433,
          "duration": 1.1387481020833334
        },
        {
          "name": "G3",
          "midi": 55,
          "time": 36.599939,
          "velocity": 0.47244094488188976,
          "duration": 1.1387481020833334
        },
        {
          "name": "D3",
          "midi": 50,
          "time": 37.799937,
          "velocity": 0.6299212598425197,
          "duration": 0.5687490520833336
        },
        {
          "name": "G3",
          "midi": 55,
          "time": 38.399936,
          "velocity": 0.5275590551181102,
          "duration": 1.1387481020833334
        },
        {
          "name": "A3",
          "midi": 57,
          "time": 38.399936,
          "velocity": 0.4094488188976378,
          "duration": 1.1387481020833334
        },
        {
          "name": "C4",
          "midi": 60,
          "time": 38.399936,
          "velocity": 0.4094488188976378,
          "duration": 1.1387481020833334
        },
        {
          "name": "D3",
          "midi": 50,
          "time": 39.599934,
          "velocity": 0.7874015748031497,
          "duration": 3.418744302083333
        },
        {
          "name": "A3",
          "midi": 57,
          "time": 39.599934,
          "velocity": 0.7165354330708661,
          "duration": 3.418744302083333
        },
        {
          "name": "C4",
          "midi": 60,
          "time": 39.599934,
          "velocity": 0.6771653543307087,
          "duration": 3.418744302083333
        },
        {
          "name": "D3",
          "midi": 50,
          "time": 43.199928,
          "velocity": 0.5905511811023622,
          "duration": 1.7087471520833333
        },
        {
          "name": "F#3",
          "midi": 54,
          "time": 43.199928,
          "velocity": 0.5984251968503937,
          "duration": 1.7087471520833333
        },
        {
          "name": "A3",
          "midi": 57,
          "time": 43.199928,
          "velocity": 0.5984251968503937,
          "duration": 1.7087471520833333
        },
        {
          "name": "D4",
          "midi": 62,
          "time": 43.199928,
          "velocity": 0.5826771653543307,
          "duration": 1.7087471520833333
        },
        {
          "name": "G2",
          "midi": 43,
          "time": 50.399916,
          "velocity": 0.5984251968503937,
          "duration": 0.5687490520833336
        },
        {
          "name": "G3",
          "midi": 55,
          "time": 50.999914999999994,
          "velocity": 0.3779527559055118,
          "duration": 0.5687490520833336
        },
        {
          "name": "A#3",
          "midi": 58,
          "time": 50.999914999999994,
          "velocity": 0.4409448818897638,
          "duration": 0.5687490520833336
        },
        {
          "name": "D4",
          "midi": 62,
          "time": 50.999914999999994,
          "velocity": 0.6141732283464567,
          "duration": 0.5687490520833336
        },
        {
          "name": "G3",
          "midi": 55,
          "time": 51.59991399999999,
          "velocity": 0.4251968503937008,
          "duration": 0.5687490520833336
        },
        {
          "name": "A#3",
          "midi": 58,
          "time": 51.59991399999999,
          "velocity": 0.33858267716535434,
          "duration": 0.5687490520833336
        },
        {
          "name": "D4",
          "midi": 62,
          "time": 51.59991399999999,
          "velocity": 0.49606299212598426,
          "duration": 0.5687490520833336
        },
        {
          "name": "D2",
          "midi": 38,
          "time": 52.19991299999999,
          "velocity": 0.6299212598425197,
          "duration": 0.5687490520833336
        },
        {
          "name": "G3",
          "midi": 55,
          "time": 52.799911999999985,
          "velocity": 0.47244094488188976,
          "duration": 0.5687490520833336
        },
        {
          "name": "A#3",
          "midi": 58,
          "time": 52.799911999999985,
          "velocity": 0.49606299212598426,
          "duration": 0.5687490520833336
        },
        {
          "name": "D4",
          "midi": 62,
          "time": 52.799911999999985,
          "velocity": 0.4094488188976378,
          "duration": 0.5687490520833336
        },
        {
          "name": "G3",
          "midi": 55,
          "time": 53.39991099999998,
          "velocity": 0.47244094488188976,
          "duration": 0.5687490520833336
        },
        {
          "name": "A#3",
          "midi": 58,
          "time": 53.39991099999998,
          "velocity": 0.5433070866141733,
          "duration": 0.5687490520833336
        },
        {
          "name": "D4",
          "midi": 62,
          "time": 53.39991099999998,
          "velocity": 0.5039370078740157,
          "duration": 0.5687490520833336
        },
        {
          "name": "G2",
          "midi": 43,
          "time": 53.99990999999998,
          "velocity": 0.5039370078740157,
          "duration": 0.5687490520833336
        },
        {
          "name": "G3",
          "midi": 55,
          "time": 54.599908999999975,
          "velocity": 0.5590551181102362,
          "duration": 0.5687490520833336
        },
        {
          "name": "A#3",
          "midi": 58,
          "time": 54.599908999999975,
          "velocity": 0.4015748031496063,
          "duration": 0.5687490520833336
        },
        {
          "name": "D4",
          "midi": 62,
          "time": 54.599908999999975,
          "velocity": 0.4645669291338583,
          "duration": 0.5687490520833336
        },
        {
          "name": "G3",
          "midi": 55,
          "time": 55.19990799999997,
          "velocity": 0.4251968503937008,
          "duration": 0.5687490520833336
        },
        {
          "name": "A#3",
          "midi": 58,
          "time": 55.19990799999997,
          "velocity": 0.48031496062992124,
          "duration": 0.5687490520833336
        },
        {
          "name": "D4",
          "midi": 62,
          "time": 55.19990799999997,
          "velocity": 0.48031496062992124,
          "duration": 0.5687490520833336
        },
        {
          "name": "D2",
          "midi": 38,
          "time": 55.79990699999997,
          "velocity": 0.5669291338582677,
          "duration": 0.5687490520833336
        },
        {
          "name": "F#3",
          "midi": 54,
          "time": 56.399905999999966,
          "velocity": 0.6062992125984252,
          "duration": 0.5687490520833336
        },
        {
          "name": "A3",
          "midi": 57,
          "time": 56.399905999999966,
          "velocity": 0.6299212598425197,
          "duration": 0.5687490520833336
        },
        {
          "name": "D4",
          "midi": 62,
          "time": 56.399905999999966,
          "velocity": 0.44881889763779526,
          "duration": 0.5687490520833336
        },
        {
          "name": "F#3",
          "midi": 54,
          "time": 56.99990499999996,
          "velocity": 0.4015748031496063,
          "duration": 0.5687490520833336
        },
        {
          "name": "A3",
          "midi": 57,
          "time": 56.99990499999996,
          "velocity": 0.4330708661417323,
          "duration": 0.5687490520833336
        },
        {
          "name": "D#4",
          "midi": 63,
          "time": 56.99990499999996,
          "velocity": 0.5590551181102362,
          "duration": 0.5687490520833336
        },
        {
          "name": "C2",
          "midi": 36,
          "time": 57.59990399999996,
          "velocity": 0.4645669291338583,
          "duration": 0.5687490520833336
        },
        {
          "name": "G3",
          "midi": 55,
          "time": 58.199902999999956,
          "velocity": 0.4251968503937008,
          "duration": 0.5687490520833336
        },
        {
          "name": "A#3",
          "midi": 58,
          "time": 58.199902999999956,
          "velocity": 0.48031496062992124,
          "duration": 0.5687490520833336
        },
        {
          "name": "D4",
          "midi": 62,
          "time": 58.199902999999956,
          "velocity": 0.4251968503937008,
          "duration": 0.5687490520833336
        },
        {
          "name": "D#4",
          "midi": 63,
          "time": 58.199902999999956,
          "velocity": 0.3937007874015748,
          "duration": 0.5687490520833336
        },
        {
          "name": "G3",
          "midi": 55,
          "time": 58.79990199999995,
          "velocity": 0.5039370078740157,
          "duration": 0.5687490520833336
        },
        {
          "name": "A#3",
          "midi": 58,
          "time": 58.79990199999995,
          "velocity": 0.5984251968503937,
          "duration": 0.5687490520833336
        },
        {
          "name": "D4",
          "midi": 62,
          "time": 58.79990199999995,
          "velocity": 0.5748031496062992,
          "duration": 0.5687490520833336
        },
        {
          "name": "D#4",
          "midi": 63,
          "time": 58.79990199999995,
          "velocity": 0.3543307086614173,
          "duration": 0.5687490520833336
        },
        {
          "name": "D2",
          "midi": 38,
          "time": 59.39990099999995,
          "velocity": 0.6220472440944882,
          "duration": 0.5687490520833336
        },
        {
          "name": "F#3",
          "midi": 54,
          "time": 59.99989999999995,
          "velocity": 0.5118110236220472,
          "duration": 0.5687490520833336
        },
        {
          "name": "C4",
          "midi": 60,
          "time": 59.99989999999995,
          "velocity": 0.3858267716535433,
          "duration": 0.5687490520833336
        },
        {
          "name": "D#4",
          "midi": 63,
          "time": 59.99989999999995,
          "velocity": 0.33070866141732286,
          "duration": 0.5687490520833336
        },
        {
          "name": "F#4",
          "midi": 66,
          "time": 59.99989999999995,
          "velocity": 0.4251968503937008,
          "duration": 0.5687490520833336
        },
        {
          "name": "F#3",
          "midi": 54,
          "time": 60.599898999999944,
          "velocity": 0.41732283464566927,
          "duration": 0.5687490520833336
        },
        {
          "name": "C4",
          "midi": 60,
          "time": 60.599898999999944,
          "velocity": 0.48031496062992124,
          "duration": 0.5687490520833336
        },
        {
          "name": "D#4",
          "midi": 63,
          "time": 60.599898999999944,
          "velocity": 0.49606299212598426,
          "duration": 0.5687490520833336
        },
        {
          "name": "F#4",
          "midi": 66,
          "time": 60.599898999999944,
          "velocity": 0.5905511811023622,
          "duration": 0.5687490520833336
        },
        {
          "name": "G2",
          "midi": 43,
          "time": 61.19989799999994,
          "velocity": 0.6614173228346457,
          "duration": 0.5687490520833336
        },
        {
          "name": "G3",
          "midi": 55,
          "time": 61.79989699999994,
          "velocity": 0.4566929133858268,
          "duration": 0.5687490520833336
        },
        {
          "name": "A#3",
          "midi": 58,
          "time": 61.79989699999994,
          "velocity": 0.4330708661417323,
          "duration": 0.5687490520833336
        },
        {
          "name": "D4",
          "midi": 62,
          "time": 61.79989699999994,
          "velocity": 0.5275590551181102,
          "duration": 0.5687490520833336
        },
        {
          "name": "F4",
          "midi": 65,
          "time": 61.79989699999994,
          "velocity": 0.3858267716535433,
          "duration": 0.5687490520833336
        },
        {
          "name": "G3",
          "midi": 55,
          "time": 62.399895999999934,
          "velocity": 0.6535433070866141,
          "duration": 0.5687490520833336
        },
        {
          "name": "A#3",
          "midi": 58,
          "time": 62.399895999999934,
          "velocity": 0.4566929133858268,
          "duration": 0.5687490520833336
        },
        {
          "name": "D4",
          "midi": 62,
          "time": 62.399895999999934,
          "velocity": 0.48031496062992124,
          "duration": 0.5687490520833336
        },
        {
          "name": "F4",
          "midi": 65,
          "time": 62.399895999999934,
          "velocity": 0.5354330708661418,
          "duration": 0.5687490520833336
        },
        {
          "name": "G2",
          "midi": 43,
          "time": 62.99989499999993,
          "velocity": 0.7401574803149606,
          "duration": 0.5687490520833336
        },
        {
          "name": "G3",
          "midi": 55,
          "time": 63.59989399999993,
          "velocity": 0.4881889763779528,
          "duration": 0.5687490520833265
        },
        {
          "name": "A#3",
          "midi": 58,
          "time": 63.59989399999993,
          "velocity": 0.33858267716535434,
          "duration": 0.5687490520833265
        },
        {
          "name": "D4",
          "midi": 62,
          "time": 63.59989399999993,
          "velocity": 0.4645669291338583,
          "duration": 0.5687490520833265
        },
        {
          "name": "F4",
          "midi": 65,
          "time": 63.59989399999993,
          "velocity": 0.33070866141732286,
          "duration": 0.5687490520833265
        },
        {
          "name": "G3",
          "midi": 55,
          "time": 64.19989299999992,
          "velocity": 0.5826771653543307,
          "duration": 0.5687490520833336
        },
        {
          "name": "A#3",
          "midi": 58,
          "time": 64.19989299999992,
          "velocity": 0.5511811023622047,
          "duration": 0.5687490520833336
        },
        {
          "name": "D4",
          "midi": 62,
          "time": 64.19989299999992,
          "velocity": 0.3464566929133858,
          "duration": 0.5687490520833336
        },
        {
          "name": "F4",
          "midi": 65,
          "time": 64.19989299999992,
          "velocity": 0.3779527559055118,
          "duration": 0.5687490520833336
        },
        {
          "name": "C2",
          "midi": 36,
          "time": 64.79989199999991,
          "velocity": 0.7244094488188977,
          "duration": 0.5687490520833478
        },
        {
          "name": "A#3",
          "midi": 58,
          "time": 65.39989099999993,
          "velocity": 0.5196850393700787,
          "duration": 0.5687490520833336
        },
        {
          "name": "C4",
          "midi": 60,
          "time": 65.39989099999993,
          "velocity": 0.36220472440944884,
          "duration": 0.5687490520833336
        },
        {
          "name": "D#4",
          "midi": 63,
          "time": 65.39989099999993,
          "velocity": 0.48031496062992124,
          "duration": 0.5687490520833336
        },
        {
          "name": "G4",
          "midi": 67,
          "time": 65.39989099999993,
          "velocity": 0.44881889763779526,
          "duration": 0.5687490520833336
        },
        {
          "name": "A#3",
          "midi": 58,
          "time": 65.99988999999992,
          "velocity": 0.4566929133858268,
          "duration": 0.5687490520833336
        },
        {
          "name": "C4",
          "midi": 60,
          "time": 65.99988999999992,
          "velocity": 0.49606299212598426,
          "duration": 0.5687490520833336
        },
        {
          "name": "D#4",
          "midi": 63,
          "time": 65.99988999999992,
          "velocity": 0.5275590551181102,
          "duration": 0.5687490520833336
        },
        {
          "name": "G4",
          "midi": 67,
          "time": 65.99988999999992,
          "velocity": 0.3937007874015748,
          "duration": 0.5687490520833336
        },
        {
          "name": "F2",
          "midi": 41,
          "time": 66.59988899999992,
          "velocity": 0.5196850393700787,
          "duration": 0.5687490520833478
        },
        {
          "name": "A3",
          "midi": 57,
          "time": 67.19988799999993,
          "velocity": 0.30708661417322836,
          "duration": 0.5687490520833336
        },
        {
          "name": "C4",
          "midi": 60,
          "time": 67.19988799999993,
          "velocity": 0.5826771653543307,
          "duration": 0.5687490520833336
        },
        {
          "name": "D#4",
          "midi": 63,
          "time": 67.19988799999993,
          "velocity": 0.5118110236220472,
          "duration": 0.5687490520833336
        },
        {
          "name": "F4",
          "midi": 65,
          "time": 67.19988799999993,
          "velocity": 0.47244094488188976,
          "duration": 0.5687490520833336
        },
        {
          "name": "A3",
          "midi": 57,
          "time": 67.79988699999993,
          "velocity": 0.4015748031496063,
          "duration": 0.5687490520833336
        },
        {
          "name": "C4",
          "midi": 60,
          "time": 67.79988699999993,
          "velocity": 0.4566929133858268,
          "duration": 0.5687490520833336
        },
        {
          "name": "D#4",
          "midi": 63,
          "time": 67.79988699999993,
          "velocity": 0.6220472440944882,
          "duration": 0.5687490520833336
        },
        {
          "name": "F4",
          "midi": 65,
          "time": 67.79988699999993,
          "velocity": 0.5433070866141733,
          "duration": 0.5687490520833336
        },
        {
          "name": "A#2",
          "midi": 46,
          "time": 68.39988599999992,
          "velocity": 0.7165354330708661,
          "duration": 0.5687490520833478
        },
        {
          "name": "A3",
          "midi": 57,
          "time": 68.99988499999994,
          "velocity": 0.36220472440944884,
          "duration": 0.5687490520833336
        },
        {
          "name": "D4",
          "midi": 62,
          "time": 68.99988499999994,
          "velocity": 0.4881889763779528,
          "duration": 0.5687490520833336
        },
        {
          "name": "F4",
          "midi": 65,
          "time": 68.99988499999994,
          "velocity": 0.4330708661417323,
          "duration": 0.5687490520833336
        },
        {
          "name": "A3",
          "midi": 57,
          "time": 69.59988399999993,
          "velocity": 0.4409448818897638,
          "duration": 0.5687490520833336
        },
        {
          "name": "D4",
          "midi": 62,
          "time": 69.59988399999993,
          "velocity": 0.47244094488188976,
          "duration": 0.5687490520833336
        },
        {
          "name": "F4",
          "midi": 65,
          "time": 69.59988399999993,
          "velocity": 0.4251968503937008,
          "duration": 0.5687490520833336
        },
        {
          "name": "F2",
          "midi": 41,
          "time": 70.19988299999993,
          "velocity": 0.5905511811023622,
          "duration": 0.5687490520833478
        },
        {
          "name": "A3",
          "midi": 57,
          "time": 70.79988199999994,
          "velocity": 0.5433070866141733,
          "duration": 0.5687490520833336
        },
        {
          "name": "D4",
          "midi": 62,
          "time": 70.79988199999994,
          "velocity": 0.5118110236220472,
          "duration": 0.5687490520833336
        },
        {
          "name": "F4",
          "midi": 65,
          "time": 70.79988199999994,
          "velocity": 0.44881889763779526,
          "duration": 0.5687490520833336
        },
        {
          "name": "A3",
          "midi": 57,
          "time": 71.39988099999994,
          "velocity": 0.4645669291338583,
          "duration": 0.5687490520833336
        },
        {
          "name": "D4",
          "midi": 62,
          "time": 71.39988099999994,
          "velocity": 0.5354330708661418,
          "duration": 0.5687490520833336
        },
        {
          "name": "F4",
          "midi": 65,
          "time": 71.39988099999994,
          "velocity": 0.48031496062992124,
          "duration": 0.5687490520833336
        },
        {
          "name": "E2",
          "midi": 40,
          "time": 71.99987999999993,
          "velocity": 0.6692913385826772,
          "duration": 0.5687490520833478
        },
        {
          "name": "A#3",
          "midi": 58,
          "time": 72.59987899999994,
          "velocity": 0.4566929133858268,
          "duration": 0.5687490520833336
        },
        {
          "name": "D4",
          "midi": 62,
          "time": 72.59987899999994,
          "velocity": 0.5905511811023622,
          "duration": 0.5687490520833336
        },
        {
          "name": "A4",
          "midi": 69,
          "time": 72.59987899999994,
          "velocity": 0.5275590551181102,
          "duration": 0.5687490520833336
        },
        {
          "name": "A#3",
          "midi": 58,
          "time": 73.19987799999994,
          "velocity": 0.5748031496062992,
          "duration": 0.5687490520833336
        },
        {
          "name": "D4",
          "midi": 62,
          "time": 73.19987799999994,
          "velocity": 0.47244094488188976,
          "duration": 0.5687490520833336
        },
        {
          "name": "G4",
          "midi": 67,
          "time": 73.19987799999994,
          "velocity": 0.5039370078740157,
          "duration": 0.5687490520833336
        },
        {
          "name": "A2",
          "midi": 45,
          "time": 73.79987699999994,
          "velocity": 0.48031496062992124,
          "duration": 0.5687490520833478
        },
        {
          "name": "A#3",
          "midi": 58,
          "time": 74.39987599999995,
          "velocity": 0.5669291338582677,
          "duration": 0.5687490520833336
        },
        {
          "name": "C#4",
          "midi": 61,
          "time": 74.39987599999995,
          "velocity": 0.44881889763779526,
          "duration": 0.5687490520833336
        },
        {
          "name": "G4",
          "midi": 67,
          "time": 74.39987599999995,
          "velocity": 0.47244094488188976,
          "duration": 0.5687490520833336
        },
        {
          "name": "A#3",
          "midi": 58,
          "time": 74.99987499999995,
          "velocity": 0.4015748031496063,
          "duration": 0.5687490520833336
        },
        {
          "name": "C#4",
          "midi": 61,
          "time": 74.99987499999995,
          "velocity": 0.5118110236220472,
          "duration": 0.5687490520833336
        },
        {
          "name": "F4",
          "midi": 65,
          "time": 74.99987499999995,
          "velocity": 0.5433070866141733,
          "duration": 0.5687490520833336
        },
        {
          "name": "D2",
          "midi": 38,
          "time": 75.59987399999994,
          "velocity": 0.6771653543307087,
          "duration": 0.5687490520833478
        },
        {
          "name": "D3",
          "midi": 50,
          "time": 75.59987399999994,
          "velocity": 0.5748031496062992,
          "duration": 0.5687490520833478
        },
        {
          "name": "A3",
          "midi": 57,
          "time": 76.19987299999995,
          "velocity": 0.4330708661417323,
          "duration": 0.5687490520833336
        },
        {
          "name": "D4",
          "midi": 62,
          "time": 76.19987299999995,
          "velocity": 0.5275590551181102,
          "duration": 0.5687490520833336
        },
        {
          "name": "G4",
          "midi": 67,
          "time": 76.19987299999995,
          "velocity": 0.4251968503937008,
          "duration": 0.5687490520833336
        },
        {
          "name": "A3",
          "midi": 57,
          "time": 76.79987199999995,
          "velocity": 0.6062992125984252,
          "duration": 0.5687490520833336
        },
        {
          "name": "D4",
          "midi": 62,
          "time": 76.79987199999995,
          "velocity": 0.3779527559055118,
          "duration": 0.5687490520833336
        },
        {
          "name": "F4",
          "midi": 65,
          "time": 76.79987199999995,
          "velocity": 0.3858267716535433,
          "duration": 0.5687490520833336
        },
        {
          "name": "C2",
          "midi": 36,
          "time": 77.39987099999995,
          "velocity": 0.6535433070866141,
          "duration": 0.5687490520833478
        },
        {
          "name": "C3",
          "midi": 48,
          "time": 77.39987099999995,
          "velocity": 0.6299212598425197,
          "duration": 0.5687490520833478
        },
        {
          "name": "A3",
          "midi": 57,
          "time": 77.99986999999996,
          "velocity": 0.36220472440944884,
          "duration": 0.5687490520833336
        },
        {
          "name": "C4",
          "midi": 60,
          "time": 77.99986999999996,
          "velocity": 0.6299212598425197,
          "duration": 0.5687490520833336
        },
        {
          "name": "E4",
          "midi": 64,
          "time": 77.99986999999996,
          "velocity": 0.4251968503937008,
          "duration": 0.5687490520833336
        },
        {
          "name": "A3",
          "midi": 57,
          "time": 78.59986899999996,
          "velocity": 0.5826771653543307,
          "duration": 0.5687490520833336
        },
        {
          "name": "C4",
          "midi": 60,
          "time": 78.59986899999996,
          "velocity": 0.5118110236220472,
          "duration": 0.5687490520833336
        },
        {
          "name": "D4",
          "midi": 62,
          "time": 78.59986899999996,
          "velocity": 0.3543307086614173,
          "duration": 0.5687490520833336
        },
        {
          "name": "A#1",
          "midi": 34,
          "time": 79.19986799999995,
          "velocity": 0.4251968503937008,
          "duration": 0.5687490520833478
        },
        {
          "name": "A#2",
          "midi": 46,
          "time": 79.19986799999995,
          "velocity": 0.5590551181102362,
          "duration": 0.5687490520833478
        },
        {
          "name": "F3",
          "midi": 53,
          "time": 79.79986699999996,
          "velocity": 0.5748031496062992,
          "duration": 0.5687490520833336
        },
        {
          "name": "A#3",
          "midi": 58,
          "time": 79.79986699999996,
          "velocity": 0.4330708661417323,
          "duration": 0.5687490520833336
        },
        {
          "name": "D4",
          "midi": 62,
          "time": 79.79986699999996,
          "velocity": 0.5669291338582677,
          "duration": 0.5687490520833336
        },
        {
          "name": "F3",
          "midi": 53,
          "time": 80.39986599999996,
          "velocity": 0.3937007874015748,
          "duration": 0.5687490520833336
        },
        {
          "name": "A3",
          "midi": 57,
          "time": 80.39986599999996,
          "velocity": 0.4094488188976378,
          "duration": 0.5687490520833336
        },
        {
          "name": "D4",
          "midi": 62,
          "time": 80.39986599999996,
          "velocity": 0.4566929133858268,
          "duration": 0.5687490520833336
        },
        {
          "name": "A1",
          "midi": 33,
          "time": 80.99986499999996,
          "velocity": 0.5748031496062992,
          "duration": 0.5687490520833478
        },
        {
          "name": "A2",
          "midi": 45,
          "time": 80.99986499999996,
          "velocity": 0.4645669291338583,
          "duration": 0.5687490520833478
        },
        {
          "name": "G3",
          "midi": 55,
          "time": 81.59986399999997,
          "velocity": 0.4409448818897638,
          "duration": 0.5687490520833336
        },
        {
          "name": "C4",
          "midi": 60,
          "time": 81.59986399999997,
          "velocity": 0.5118110236220472,
          "duration": 0.5687490520833336
        },
        {
          "name": "E4",
          "midi": 64,
          "time": 81.59986399999997,
          "velocity": 0.5118110236220472,
          "duration": 0.5687490520833336
        },
        {
          "name": "G3",
          "midi": 55,
          "time": 82.19986299999997,
          "velocity": 0.41732283464566927,
          "duration": 0.5687490520833336
        },
        {
          "name": "C4",
          "midi": 60,
          "time": 82.19986299999997,
          "velocity": 0.3228346456692913,
          "duration": 0.5687490520833336
        },
        {
          "name": "E4",
          "midi": 64,
          "time": 82.19986299999997,
          "velocity": 0.6220472440944882,
          "duration": 0.5687490520833336
        },
        {
          "name": "D2",
          "midi": 38,
          "time": 82.79986199999996,
          "velocity": 0.6062992125984252,
          "duration": 0.5687490520833478
        },
        {
          "name": "D3",
          "midi": 50,
          "time": 82.79986199999996,
          "velocity": 0.6929133858267716,
          "duration": 0.5687490520833478
        },
        {
          "name": "A3",
          "midi": 57,
          "time": 83.39986099999997,
          "velocity": 0.6062992125984252,
          "duration": 0.5687490520833336
        },
        {
          "name": "C4",
          "midi": 60,
          "time": 83.39986099999997,
          "velocity": 0.6062992125984252,
          "duration": 0.5687490520833336
        },
        {
          "name": "D4",
          "midi": 62,
          "time": 83.39986099999997,
          "velocity": 0.4251968503937008,
          "duration": 0.5687490520833336
        },
        {
          "name": "G4",
          "midi": 67,
          "time": 83.39986099999997,
          "velocity": 0.41732283464566927,
          "duration": 0.5687490520833336
        },
        {
          "name": "A3",
          "midi": 57,
          "time": 83.99985999999997,
          "velocity": 0.5905511811023622,
          "duration": 0.5687490520833336
        },
        {
          "name": "C4",
          "midi": 60,
          "time": 83.99985999999997,
          "velocity": 0.5511811023622047,
          "duration": 0.5687490520833336
        },
        {
          "name": "D4",
          "midi": 62,
          "time": 83.99985999999997,
          "velocity": 0.41732283464566927,
          "duration": 0.5687490520833336
        },
        {
          "name": "G4",
          "midi": 67,
          "time": 83.99985999999997,
          "velocity": 0.5039370078740157,
          "duration": 0.5687490520833336
        },
        {
          "name": "D2",
          "midi": 38,
          "time": 84.59985899999997,
          "velocity": 0.7007874015748031,
          "duration": 0.5687490520833478
        },
        {
          "name": "D3",
          "midi": 50,
          "time": 84.59985899999997,
          "velocity": 0.5984251968503937,
          "duration": 0.5687490520833478
        },
        {
          "name": "A3",
          "midi": 57,
          "time": 85.19985799999998,
          "velocity": 0.3228346456692913,
          "duration": 0.5687490520833336
        },
        {
          "name": "C4",
          "midi": 60,
          "time": 85.19985799999998,
          "velocity": 0.5905511811023622,
          "duration": 0.5687490520833336
        },
        {
          "name": "A3",
          "midi": 57,
          "time": 85.79985699999997,
          "velocity": 0.4409448818897638,
          "duration": 0.5687490520833336
        },
        {
          "name": "C4",
          "midi": 60,
          "time": 85.79985699999997,
          "velocity": 0.4566929133858268,
          "duration": 0.5687490520833336
        },
        {
          "name": "F#4",
          "midi": 66,
          "time": 85.79985699999997,
          "velocity": 0.4330708661417323,
          "duration": 0.5687490520833336
        },
        {
          "name": "C2",
          "midi": 36,
          "time": 86.39985599999997,
          "velocity": 0.7086614173228346,
          "duration": 0.5687490520833478
        },
        {
          "name": "G3",
          "midi": 55,
          "time": 86.99985499999998,
          "velocity": 0.48031496062992124,
          "duration": 0.5687490520833336
        },
        {
          "name": "A#3",
          "midi": 58,
          "time": 86.99985499999998,
          "velocity": 0.5433070866141733,
          "duration": 0.5687490520833336
        },
        {
          "name": "D#4",
          "midi": 63,
          "time": 86.99985499999998,
          "velocity": 0.6692913385826772,
          "duration": 0.5687490520833336
        },
        {
          "name": "G3",
          "midi": 55,
          "time": 87.59985399999998,
          "velocity": 0.5039370078740157,
          "duration": 0.5687490520833336
        },
        {
          "name": "A#3",
          "midi": 58,
          "time": 87.59985399999998,
          "velocity": 0.5196850393700787,
          "duration": 0.5687490520833336
        },
        {
          "name": "D#4",
          "midi": 63,
          "time": 87.59985399999998,
          "velocity": 0.5905511811023622,
          "duration": 0.5687490520833336
        },
        {
          "name": "D2",
          "midi": 38,
          "time": 88.19985299999998,
          "velocity": 0.7322834645669292,
          "duration": 0.5687490520833478
        },
        {
          "name": "A#3",
          "midi": 58,
          "time": 88.79985199999999,
          "velocity": 0.4409448818897638,
          "duration": 0.5687490520833336
        },
        {
          "name": "D4",
          "midi": 62,
          "time": 88.79985199999999,
          "velocity": 0.5590551181102362,
          "duration": 0.5687490520833336
        },
        {
          "name": "F#4",
          "midi": 66,
          "time": 88.79985199999999,
          "velocity": 0.44881889763779526,
          "duration": 0.5687490520833336
        },
        {
          "name": "A3",
          "midi": 57,
          "time": 89.39985099999998,
          "velocity": 0.5196850393700787,
          "duration": 0.5687490520833336
        },
        {
          "name": "D4",
          "midi": 62,
          "time": 89.39985099999998,
          "velocity": 0.3543307086614173,
          "duration": 0.5687490520833336
        },
        {
          "name": "F#4",
          "midi": 66,
          "time": 89.39985099999998,
          "velocity": 0.4330708661417323,
          "duration": 0.5687490520833336
        },
        {
          "name": "G2",
          "midi": 43,
          "time": 89.99984999999998,
          "velocity": 0.5354330708661418,
          "duration": 0.5687490520833478
        },
        {
          "name": "A#3",
          "midi": 58,
          "time": 90.59984899999999,
          "velocity": 0.47244094488188976,
          "duration": 0.5687490520833336
        },
        {
          "name": "D4",
          "midi": 62,
          "time": 90.59984899999999,
          "velocity": 0.6692913385826772,
          "duration": 0.5687490520833336
        },
        {
          "name": "F4",
          "midi": 65,
          "time": 90.59984899999999,
          "velocity": 0.4645669291338583,
          "duration": 0.5687490520833336
        },
        {
          "name": "A#3",
          "midi": 58,
          "time": 91.19984799999999,
          "velocity": 0.7165354330708661,
          "duration": 0.5687490520833336
        },
        {
          "name": "D4",
          "midi": 62,
          "time": 91.19984799999999,
          "velocity": 0.5039370078740157,
          "duration": 0.5687490520833336
        },
        {
          "name": "F4",
          "midi": 65,
          "time": 91.19984799999999,
          "velocity": 0.4881889763779528,
          "duration": 0.5687490520833336
        },
        {
          "name": "F3",
          "midi": 53,
          "time": 91.79984699999999,
          "velocity": 0.6456692913385826,
          "duration": 0.8537485770833513
        },
        {
          "name": "G#3",
          "midi": 56,
          "time": 91.79984699999999,
          "velocity": 0.6456692913385826,
          "duration": 0.8537485770833513
        },
        {
          "name": "C4",
          "midi": 60,
          "time": 91.79984699999999,
          "velocity": 0.8188976377952756,
          "duration": 0.8537485770833513
        },
        {
          "name": "A#2",
          "midi": 46,
          "time": 92.69984550000001,
          "velocity": 0.6614173228346457,
          "duration": 0.8537485770833513
        },
        {
          "name": "F3",
          "midi": 53,
          "time": 92.69984550000001,
          "velocity": 0.7401574803149606,
          "duration": 0.8537485770833513
        },
        {
          "name": "G#3",
          "midi": 56,
          "time": 92.69984550000001,
          "velocity": 0.7480314960629921,
          "duration": 0.8537485770833513
        },
        {
          "name": "D#2",
          "midi": 39,
          "time": 93.59984400000003,
          "velocity": 0.6220472440944882,
          "duration": 0.5687490520833478
        },
        {
          "name": "A#3",
          "midi": 58,
          "time": 94.19984300000004,
          "velocity": 0.4409448818897638,
          "duration": 0.5687490520833336
        },
        {
          "name": "D4",
          "midi": 62,
          "time": 94.19984300000004,
          "velocity": 0.5433070866141733,
          "duration": 0.5687490520833336
        },
        {
          "name": "G4",
          "midi": 67,
          "time": 94.19984300000004,
          "velocity": 0.3543307086614173,
          "duration": 0.5687490520833336
        },
        {
          "name": "A#3",
          "midi": 58,
          "time": 94.79984200000004,
          "velocity": 0.47244094488188976,
          "duration": 0.5687490520833336
        },
        {
          "name": "D4",
          "midi": 62,
          "time": 94.79984200000004,
          "velocity": 0.49606299212598426,
          "duration": 0.5687490520833336
        },
        {
          "name": "G4",
          "midi": 67,
          "time": 94.79984200000004,
          "velocity": 0.3700787401574803,
          "duration": 0.5687490520833336
        },
        {
          "name": "D#2",
          "midi": 39,
          "time": 95.39984100000004,
          "velocity": 0.6456692913385826,
          "duration": 0.5687490520833478
        },
        {
          "name": "A3",
          "midi": 57,
          "time": 95.99984000000005,
          "velocity": 0.4881889763779528,
          "duration": 0.5687490520833336
        },
        {
          "name": "C4",
          "midi": 60,
          "time": 95.99984000000005,
          "velocity": 0.49606299212598426,
          "duration": 0.5687490520833336
        },
        {
          "name": "F4",
          "midi": 65,
          "time": 95.99984000000005,
          "velocity": 0.6692913385826772,
          "duration": 0.5687490520833336
        },
        {
          "name": "A3",
          "midi": 57,
          "time": 96.59983900000005,
          "velocity": 0.5511811023622047,
          "duration": 0.5687490520833336
        },
        {
          "name": "C4",
          "midi": 60,
          "time": 96.59983900000005,
          "velocity": 0.5196850393700787,
          "duration": 0.5687490520833336
        },
        {
          "name": "F4",
          "midi": 65,
          "time": 96.59983900000005,
          "velocity": 0.5354330708661418,
          "duration": 0.5687490520833336
        },
        {
          "name": "D2",
          "midi": 38,
          "time": 97.19983800000004,
          "velocity": 0.7007874015748031,
          "duration": 0.5687490520833478
        },
        {
          "name": "A3",
          "midi": 57,
          "time": 97.79983700000005,
          "velocity": 0.6062992125984252,
          "duration": 0.5687490520833336
        },
        {
          "name": "C4",
          "midi": 60,
          "time": 97.79983700000005,
          "velocity": 0.41732283464566927,
          "duration": 0.5687490520833336
        },
        {
          "name": "F4",
          "midi": 65,
          "time": 97.79983700000005,
          "velocity": 0.4881889763779528,
          "duration": 0.5687490520833336
        },
        {
          "name": "A3",
          "midi": 57,
          "time": 98.39983600000005,
          "velocity": 0.41732283464566927,
          "duration": 0.5687490520833336
        },
        {
          "name": "C4",
          "midi": 60,
          "time": 98.39983600000005,
          "velocity": 0.6141732283464567,
          "duration": 0.5687490520833336
        },
        {
          "name": "F4",
          "midi": 65,
          "time": 98.39983600000005,
          "velocity": 0.5748031496062992,
          "duration": 0.5687490520833336
        },
        {
          "name": "G1",
          "midi": 31,
          "time": 98.99983500000005,
          "velocity": 0.6614173228346457,
          "duration": 0.5687490520833478
        },
        {
          "name": "A#3",
          "midi": 58,
          "time": 99.59983400000006,
          "velocity": 0.4645669291338583,
          "duration": 0.5687490520833336
        },
        {
          "name": "D4",
          "midi": 62,
          "time": 99.59983400000006,
          "velocity": 0.5433070866141733,
          "duration": 0.5687490520833336
        },
        {
          "name": "F4",
          "midi": 65,
          "time": 99.59983400000006,
          "velocity": 0.5118110236220472,
          "duration": 0.5687490520833336
        },
        {
          "name": "G4",
          "midi": 67,
          "time": 99.59983400000006,
          "velocity": 0.5905511811023622,
          "duration": 0.5687490520833336
        },
        {
          "name": "A#3",
          "midi": 58,
          "time": 100.19983300000005,
          "velocity": 0.48031496062992124,
          "duration": 0.5687490520833336
        },
        {
          "name": "D4",
          "midi": 62,
          "time": 100.19983300000005,
          "velocity": 0.4251968503937008,
          "duration": 0.5687490520833336
        },
        {
          "name": "F4",
          "midi": 65,
          "time": 100.19983300000005,
          "velocity": 0.5275590551181102,
          "duration": 0.5687490520833336
        },
        {
          "name": "G4",
          "midi": 67,
          "time": 100.19983300000005,
          "velocity": 0.48031496062992124,
          "duration": 0.5687490520833336
        },
        {
          "name": "E2",
          "midi": 40,
          "time": 100.79983200000005,
          "velocity": 0.7795275590551181,
          "duration": 0.5687490520833478
        },
        {
          "name": "A#3",
          "midi": 58,
          "time": 101.39983100000006,
          "velocity": 0.36220472440944884,
          "duration": 0.5687490520833336
        },
        {
          "name": "D4",
          "midi": 62,
          "time": 101.39983100000006,
          "velocity": 0.6220472440944882,
          "duration": 0.5687490520833336
        },
        {
          "name": "F4",
          "midi": 65,
          "time": 101.39983100000006,
          "velocity": 0.5590551181102362,
          "duration": 0.5687490520833336
        },
        {
          "name": "A4",
          "midi": 69,
          "time": 101.39983100000006,
          "velocity": 0.49606299212598426,
          "duration": 0.5687490520833336
        },
        {
          "name": "A#3",
          "midi": 58,
          "time": 101.99983000000006,
          "velocity": 0.5196850393700787,
          "duration": 0.5687490520833336
        },
        {
          "name": "D4",
          "midi": 62,
          "time": 101.99983000000006,
          "velocity": 0.6614173228346457,
          "duration": 0.5687490520833336
        },
        {
          "name": "F4",
          "midi": 65,
          "time": 101.99983000000006,
          "velocity": 0.5590551181102362,
          "duration": 0.5687490520833336
        },
        {
          "name": "G4",
          "midi": 67,
          "time": 101.99983000000006,
          "velocity": 0.49606299212598426,
          "duration": 0.5687490520833336
        },
        {
          "name": "A1",
          "midi": 33,
          "time": 102.59982900000006,
          "velocity": 0.5433070866141733,
          "duration": 0.5687490520833478
        },
        {
          "name": "A#3",
          "midi": 58,
          "time": 103.19982800000007,
          "velocity": 0.5118110236220472,
          "duration": 0.5687490520833336
        },
        {
          "name": "C#4",
          "midi": 61,
          "time": 103.19982800000007,
          "velocity": 0.5826771653543307,
          "duration": 0.5687490520833336
        },
        {
          "name": "F4",
          "midi": 65,
          "time": 103.19982800000007,
          "velocity": 0.5511811023622047,
          "duration": 0.5687490520833336
        },
        {
          "name": "A#3",
          "midi": 58,
          "time": 103.79982700000006,
          "velocity": 0.5984251968503937,
          "duration": 0.5687490520833336
        },
        {
          "name": "C#4",
          "midi": 61,
          "time": 103.79982700000006,
          "velocity": 0.6141732283464567,
          "duration": 0.5687490520833336
        },
        {
          "name": "G4",
          "midi": 67,
          "time": 103.79982700000006,
          "velocity": 0.5118110236220472,
          "duration": 0.5687490520833336
        },
        {
          "name": "D2",
          "midi": 38,
          "time": 104.39982600000006,
          "velocity": 0.6220472440944882,
          "duration": 0.5687490520833478
        },
        {
          "name": "A3",
          "midi": 57,
          "time": 104.99982500000007,
          "velocity": 0.5511811023622047,
          "duration": 0.5687490520833336
        },
        {
          "name": "C4",
          "midi": 60,
          "time": 104.99982500000007,
          "velocity": 0.6377952755905512,
          "duration": 0.5687490520833336
        },
        {
          "name": "D4",
          "midi": 62,
          "time": 104.99982500000007,
          "velocity": 0.6141732283464567,
          "duration": 0.5687490520833336
        },
        {
          "name": "G4",
          "midi": 67,
          "time": 104.99982500000007,
          "velocity": 0.5275590551181102,
          "duration": 0.5687490520833336
        },
        {
          "name": "A3",
          "midi": 57,
          "time": 105.59982400000007,
          "velocity": 0.5511811023622047,
          "duration": 0.5687490520833336
        },
        {
          "name": "C4",
          "midi": 60,
          "time": 105.59982400000007,
          "velocity": 0.4251968503937008,
          "duration": 0.5687490520833336
        },
        {
          "name": "D4",
          "midi": 62,
          "time": 105.59982400000007,
          "velocity": 0.5039370078740157,
          "duration": 0.5687490520833336
        },
        {
          "name": "F4",
          "midi": 65,
          "time": 105.59982400000007,
          "velocity": 0.4566929133858268,
          "duration": 0.5687490520833336
        },
        {
          "name": "C2",
          "midi": 36,
          "time": 106.19982300000007,
          "velocity": 0.6299212598425197,
          "duration": 0.5687490520833478
        },
        {
          "name": "A3",
          "midi": 57,
          "time": 106.79982200000008,
          "velocity": 0.48031496062992124,
          "duration": 0.5687490520833336
        },
        {
          "name": "D4",
          "midi": 62,
          "time": 106.79982200000008,
          "velocity": 0.4094488188976378,
          "duration": 0.5687490520833336
        },
        {
          "name": "F4",
          "midi": 65,
          "time": 106.79982200000008,
          "velocity": 0.5433070866141733,
          "duration": 0.5687490520833336
        },
        {
          "name": "A3",
          "midi": 57,
          "time": 107.39982100000007,
          "velocity": 0.6456692913385826,
          "duration": 0.5687490520833336
        },
        {
          "name": "D4",
          "midi": 62,
          "time": 107.39982100000007,
          "velocity": 0.6062992125984252,
          "duration": 0.5687490520833336
        },
        {
          "name": "F4",
          "midi": 65,
          "time": 107.39982100000007,
          "velocity": 0.48031496062992124,
          "duration": 0.5687490520833336
        },
        {
          "name": "A#1",
          "midi": 34,
          "time": 107.99982000000007,
          "velocity": 0.7086614173228346,
          "duration": 0.5687490520833478
        },
        {
          "name": "A#3",
          "midi": 58,
          "time": 108.59981900000008,
          "velocity": 0.4094488188976378,
          "duration": 0.5687490520833336
        },
        {
          "name": "D4",
          "midi": 62,
          "time": 108.59981900000008,
          "velocity": 0.5275590551181102,
          "duration": 0.5687490520833336
        },
        {
          "name": "F4",
          "midi": 65,
          "time": 108.59981900000008,
          "velocity": 0.5354330708661418,
          "duration": 0.5687490520833336
        },
        {
          "name": "A#3",
          "midi": 58,
          "time": 109.19981800000008,
          "velocity": 0.6062992125984252,
          "duration": 0.5687490520833336
        },
        {
          "name": "D4",
          "midi": 62,
          "time": 109.19981800000008,
          "velocity": 0.6377952755905512,
          "duration": 0.5687490520833336
        },
        {
          "name": "F4",
          "midi": 65,
          "time": 109.19981800000008,
          "velocity": 0.5118110236220472,
          "duration": 0.5687490520833336
        },
        {
          "name": "A1",
          "midi": 33,
          "time": 109.79981700000008,
          "velocity": 0.6220472440944882,
          "duration": 0.5687490520833478
        },
        {
          "name": "A3",
          "midi": 57,
          "time": 110.39981600000009,
          "velocity": 0.4566929133858268,
          "duration": 0.5687490520833336
        },
        {
          "name": "C#4",
          "midi": 61,
          "time": 110.39981600000009,
          "velocity": 0.5354330708661418,
          "duration": 0.5687490520833336
        },
        {
          "name": "E4",
          "midi": 64,
          "time": 110.39981600000009,
          "velocity": 0.5275590551181102,
          "duration": 0.5687490520833336
        },
        {
          "name": "A3",
          "midi": 57,
          "time": 110.99981500000008,
          "velocity": 0.4645669291338583,
          "duration": 0.5687490520833336
        },
        {
          "name": "C#4",
          "midi": 61,
          "time": 110.99981500000008,
          "velocity": 0.6377952755905512,
          "duration": 0.5687490520833336
        },
        {
          "name": "E4",
          "midi": 64,
          "time": 110.99981500000008,
          "velocity": 0.6299212598425197,
          "duration": 0.5687490520833336
        },
        {
          "name": "D2",
          "midi": 38,
          "time": 111.59981400000008,
          "velocity": 0.6692913385826772,
          "duration": 0.5687490520833478
        },
        {
          "name": "A3",
          "midi": 57,
          "time": 112.19981300000009,
          "velocity": 0.6456692913385826,
          "duration": 0.5687490520833336
        },
        {
          "name": "D4",
          "midi": 62,
          "time": 112.19981300000009,
          "velocity": 0.3858267716535433,
          "duration": 0.5687490520833336
        },
        {
          "name": "F#4",
          "midi": 66,
          "time": 112.19981300000009,
          "velocity": 0.6220472440944882,
          "duration": 0.5687490520833336
        },
        {
          "name": "A3",
          "midi": 57,
          "time": 112.79981200000009,
          "velocity": 0.44881889763779526,
          "duration": 0.5687490520833336
        },
        {
          "name": "D4",
          "midi": 62,
          "time": 112.79981200000009,
          "velocity": 0.5826771653543307,
          "duration": 0.5687490520833336
        },
        {
          "name": "F#4",
          "midi": 66,
          "time": 112.79981200000009,
          "velocity": 0.5590551181102362,
          "duration": 0.5687490520833336
        },
        {
          "name": "A1",
          "midi": 33,
          "time": 113.39981100000008,
          "velocity": 0.5039370078740157,
          "duration": 0.5687490520833478
        },
        {
          "name": "A3",
          "midi": 57,
          "time": 113.9998100000001,
          "velocity": 0.3779527559055118,
          "duration": 0.5687490520833336
        },
        {
          "name": "D4",
          "midi": 62,
          "time": 113.9998100000001,
          "velocity": 0.5511811023622047,
          "duration": 0.5687490520833336
        },
        {
          "name": "F#4",
          "midi": 66,
          "time": 113.9998100000001,
          "velocity": 0.4251968503937008,
          "duration": 0.5687490520833336
        },
        {
          "name": "A3",
          "midi": 57,
          "time": 114.59980900000009,
          "velocity": 0.4330708661417323,
          "duration": 0.5687490520833336
        },
        {
          "name": "D4",
          "midi": 62,
          "time": 114.59980900000009,
          "velocity": 0.5590551181102362,
          "duration": 0.5687490520833336
        },
        {
          "name": "F#4",
          "midi": 66,
          "time": 114.59980900000009,
          "velocity": 0.5748031496062992,
          "duration": 0.5687490520833336
        },
        {
          "name": "D2",
          "midi": 38,
          "time": 115.19980800000009,
          "velocity": 0.5511811023622047,
          "duration": 0.5687490520833478
        },
        {
          "name": "A3",
          "midi": 57,
          "time": 115.7998070000001,
          "velocity": 0.4251968503937008,
          "duration": 0.5687490520833336
        },
        {
          "name": "D4",
          "midi": 62,
          "time": 115.7998070000001,
          "velocity": 0.5590551181102362,
          "duration": 0.5687490520833336
        },
        {
          "name": "F#4",
          "midi": 66,
          "time": 115.7998070000001,
          "velocity": 0.4645669291338583,
          "duration": 0.5687490520833336
        },
        {
          "name": "A3",
          "midi": 57,
          "time": 116.3998060000001,
          "velocity": 0.5196850393700787,
          "duration": 0.5687490520833336
        },
        {
          "name": "D4",
          "midi": 62,
          "time": 116.3998060000001,
          "velocity": 0.5984251968503937,
          "duration": 0.5687490520833336
        },
        {
          "name": "F#4",
          "midi": 66,
          "time": 116.3998060000001,
          "velocity": 0.5590551181102362,
          "duration": 0.5687490520833336
        },
        {
          "name": "A1",
          "midi": 33,
          "time": 116.9998050000001,
          "velocity": 0.6377952755905512,
          "duration": 0.5687490520833478
        },
        {
          "name": "A3",
          "midi": 57,
          "time": 117.5998040000001,
          "velocity": 0.6850393700787402,
          "duration": 0.5687490520833336
        },
        {
          "name": "D4",
          "midi": 62,
          "time": 117.5998040000001,
          "velocity": 0.5354330708661418,
          "duration": 0.5687490520833336
        },
        {
          "name": "F#4",
          "midi": 66,
          "time": 117.5998040000001,
          "velocity": 0.6062992125984252,
          "duration": 0.5687490520833336
        },
        {
          "name": "A3",
          "midi": 57,
          "time": 118.1998030000001,
          "velocity": 0.5826771653543307,
          "duration": 0.5687490520833336
        },
        {
          "name": "D4",
          "midi": 62,
          "time": 118.1998030000001,
          "velocity": 0.4645669291338583,
          "duration": 0.5687490520833336
        },
        {
          "name": "F#4",
          "midi": 66,
          "time": 118.1998030000001,
          "velocity": 0.5590551181102362,
          "duration": 0.5687490520833336
        },
        {
          "name": "F2",
          "midi": 41,
          "time": 118.7998020000001,
          "velocity": 0.5748031496062992,
          "duration": 0.5687490520833478
        },
        {
          "name": "A#3",
          "midi": 58,
          "time": 119.39980100000011,
          "velocity": 0.4409448818897638,
          "duration": 0.5687490520833336
        },
        {
          "name": "D#4",
          "midi": 63,
          "time": 119.39980100000011,
          "velocity": 0.4094488188976378,
          "duration": 0.5687490520833336
        },
        {
          "name": "G4",
          "midi": 67,
          "time": 119.39980100000011,
          "velocity": 0.41732283464566927,
          "duration": 0.5687490520833336
        },
        {
          "name": "A#3",
          "midi": 58,
          "time": 119.9998000000001,
          "velocity": 0.4645669291338583,
          "duration": 0.5687490520833336
        },
        {
          "name": "D#4",
          "midi": 63,
          "time": 119.9998000000001,
          "velocity": 0.5196850393700787,
          "duration": 0.5687490520833336
        },
        {
          "name": "G4",
          "midi": 67,
          "time": 119.9998000000001,
          "velocity": 0.3779527559055118,
          "duration": 0.5687490520833336
        },
        {
          "name": "F2",
          "midi": 41,
          "time": 120.5997990000001,
          "velocity": 0.6456692913385826,
          "duration": 0.5687490520833478
        },
        {
          "name": "A#3",
          "midi": 58,
          "time": 121.19979800000011,
          "velocity": 0.5669291338582677,
          "duration": 0.5687490520833336
        },
        {
          "name": "C4",
          "midi": 60,
          "time": 121.19979800000011,
          "velocity": 0.49606299212598426,
          "duration": 0.5687490520833336
        },
        {
          "name": "A3",
          "midi": 57,
          "time": 121.79979700000011,
          "velocity": 0.48031496062992124,
          "duration": 0.5687490520833336
        },
        {
          "name": "C4",
          "midi": 60,
          "time": 121.79979700000011,
          "velocity": 0.4330708661417323,
          "duration": 0.5687490520833336
        },
        {
          "name": "A#2",
          "midi": 46,
          "time": 122.39979600000011,
          "velocity": 0.7244094488188977,
          "duration": 0.5687490520833478
        },
        {
          "name": "A#3",
          "midi": 58,
          "time": 122.99979500000012,
          "velocity": 0.5275590551181102,
          "duration": 0.5687490520833336
        },
        {
          "name": "C4",
          "midi": 60,
          "time": 122.99979500000012,
          "velocity": 0.4409448818897638,
          "duration": 0.5687490520833336
        },
        {
          "name": "D#4",
          "midi": 63,
          "time": 122.99979500000012,
          "velocity": 0.6220472440944882,
          "duration": 0.5687490520833336
        },
        {
          "name": "A#3",
          "midi": 58,
          "time": 123.59979400000012,
          "velocity": 0.5354330708661418,
          "duration": 0.5687490520833336
        },
        {
          "name": "D4",
          "midi": 62,
          "time": 123.59979400000012,
          "velocity": 0.5511811023622047,
          "duration": 0.5687490520833336
        },
        {
          "name": "F4",
          "midi": 65,
          "time": 123.59979400000012,
          "velocity": 0.6299212598425197,
          "duration": 0.5687490520833336
        },
        {
          "name": "A#2",
          "midi": 46,
          "time": 124.19979300000011,
          "velocity": 0.6929133858267716,
          "duration": 0.5687490520833478
        },
        {
          "name": "A#3",
          "midi": 58,
          "time": 124.79979200000012,
          "velocity": 0.5984251968503937,
          "duration": 0.5687490520833336
        },
        {
          "name": "D4",
          "midi": 62,
          "time": 124.79979200000012,
          "velocity": 0.3858267716535433,
          "duration": 0.5687490520833336
        },
        {
          "name": "F4",
          "midi": 65,
          "time": 124.79979200000012,
          "velocity": 0.48031496062992124,
          "duration": 0.5687490520833336
        },
        {
          "name": "A#3",
          "midi": 58,
          "time": 125.39979100000012,
          "velocity": 0.4251968503937008,
          "duration": 0.5687490520833336
        },
        {
          "name": "D4",
          "midi": 62,
          "time": 125.39979100000012,
          "velocity": 0.5433070866141733,
          "duration": 0.5687490520833336
        },
        {
          "name": "F4",
          "midi": 65,
          "time": 125.39979100000012,
          "velocity": 0.3937007874015748,
          "duration": 0.5687490520833336
        },
        {
          "name": "F2",
          "midi": 41,
          "time": 125.99979000000012,
          "velocity": 0.7401574803149606,
          "duration": 0.5687490520833478
        },
        {
          "name": "A#3",
          "midi": 58,
          "time": 126.59978900000013,
          "velocity": 0.6141732283464567,
          "duration": 0.5687490520833336
        },
        {
          "name": "D#4",
          "midi": 63,
          "time": 126.59978900000013,
          "velocity": 0.6141732283464567,
          "duration": 0.5687490520833336
        },
        {
          "name": "G4",
          "midi": 67,
          "time": 126.59978900000013,
          "velocity": 0.4094488188976378,
          "duration": 0.5687490520833336
        },
        {
          "name": "A#3",
          "midi": 58,
          "time": 127.19978800000013,
          "velocity": 0.5196850393700787,
          "duration": 0.5687490520833336
        },
        {
          "name": "D#4",
          "midi": 63,
          "time": 127.19978800000013,
          "velocity": 0.5511811023622047,
          "duration": 0.5687490520833336
        },
        {
          "name": "G4",
          "midi": 67,
          "time": 127.19978800000013,
          "velocity": 0.5905511811023622,
          "duration": 0.5687490520833336
        },
        {
          "name": "F2",
          "midi": 41,
          "time": 127.79978700000012,
          "velocity": 0.7637795275590551,
          "duration": 0.5687490520833478
        },
        {
          "name": "A3",
          "midi": 57,
          "time": 128.39978600000015,
          "velocity": 0.4566929133858268,
          "duration": 0.5687490520833194
        },
        {
          "name": "C4",
          "midi": 60,
          "time": 128.39978600000015,
          "velocity": 0.48031496062992124,
          "duration": 0.5687490520833194
        },
        {
          "name": "A3",
          "midi": 57,
          "time": 128.99978500000014,
          "velocity": 0.5748031496062992,
          "duration": 0.5687490520833194
        },
        {
          "name": "C4",
          "midi": 60,
          "time": 128.99978500000014,
          "velocity": 0.5590551181102362,
          "duration": 0.5687490520833194
        },
        {
          "name": "D#4",
          "midi": 63,
          "time": 128.99978500000014,
          "velocity": 0.5590551181102362,
          "duration": 0.5687490520833194
        },
        {
          "name": "A#2",
          "midi": 46,
          "time": 129.59978400000014,
          "velocity": 0.7480314960629921,
          "duration": 0.5687490520833194
        },
        {
          "name": "A#3",
          "midi": 58,
          "time": 130.19978300000014,
          "velocity": 0.4645669291338583,
          "duration": 0.5687490520833194
        },
        {
          "name": "D4",
          "midi": 62,
          "time": 130.19978300000014,
          "velocity": 0.5826771653543307,
          "duration": 0.5687490520833194
        },
        {
          "name": "F4",
          "midi": 65,
          "time": 130.19978300000014,
          "velocity": 0.4881889763779528,
          "duration": 0.5687490520833194
        },
        {
          "name": "A#3",
          "midi": 58,
          "time": 130.79978200000014,
          "velocity": 0.47244094488188976,
          "duration": 0.5687490520833194
        },
        {
          "name": "D4",
          "midi": 62,
          "time": 130.79978200000014,
          "velocity": 0.4094488188976378,
          "duration": 0.5687490520833194
        },
        {
          "name": "F4",
          "midi": 65,
          "time": 130.79978200000014,
          "velocity": 0.6771653543307087,
          "duration": 0.5687490520833194
        },
        {
          "name": "A#2",
          "midi": 46,
          "time": 131.39978100000013,
          "velocity": 0.6771653543307087,
          "duration": 0.5687490520833194
        },
        {
          "name": "A#3",
          "midi": 58,
          "time": 131.99978000000013,
          "velocity": 0.4409448818897638,
          "duration": 0.5687490520833194
        },
        {
          "name": "D4",
          "midi": 62,
          "time": 131.99978000000013,
          "velocity": 0.5118110236220472,
          "duration": 0.5687490520833194
        },
        {
          "name": "F4",
          "midi": 65,
          "time": 131.99978000000013,
          "velocity": 0.5826771653543307,
          "duration": 0.5687490520833194
        },
        {
          "name": "A#3",
          "midi": 58,
          "time": 132.59977900000013,
          "velocity": 0.5669291338582677,
          "duration": 0.5687490520833194
        },
        {
          "name": "D4",
          "midi": 62,
          "time": 132.59977900000013,
          "velocity": 0.5275590551181102,
          "duration": 0.5687490520833194
        },
        {
          "name": "F4",
          "midi": 65,
          "time": 132.59977900000013,
          "velocity": 0.41732283464566927,
          "duration": 0.5687490520833194
        },
        {
          "name": "D3",
          "midi": 50,
          "time": 133.19977800000012,
          "velocity": 0.6220472440944882,
          "duration": 0.5687490520833194
        },
        {
          "name": "A3",
          "midi": 57,
          "time": 133.79977700000012,
          "velocity": 0.3700787401574803,
          "duration": 0.5687490520833194
        },
        {
          "name": "D4",
          "midi": 62,
          "time": 133.79977700000012,
          "velocity": 0.5039370078740157,
          "duration": 0.5687490520833194
        },
        {
          "name": "F4",
          "midi": 65,
          "time": 133.79977700000012,
          "velocity": 0.5275590551181102,
          "duration": 0.5687490520833194
        },
        {
          "name": "A3",
          "midi": 57,
          "time": 134.39977600000012,
          "velocity": 0.5039370078740157,
          "duration": 0.5687490520833194
        },
        {
          "name": "D4",
          "midi": 62,
          "time": 134.39977600000012,
          "velocity": 0.6614173228346457,
          "duration": 0.5687490520833194
        },
        {
          "name": "F4",
          "midi": 65,
          "time": 134.39977600000012,
          "velocity": 0.4251968503937008,
          "duration": 0.5687490520833194
        },
        {
          "name": "A2",
          "midi": 45,
          "time": 134.9997750000001,
          "velocity": 0.6220472440944882,
          "duration": 0.5687490520833194
        },
        {
          "name": "A3",
          "midi": 57,
          "time": 135.5997740000001,
          "velocity": 0.5511811023622047,
          "duration": 0.5687490520833194
        },
        {
          "name": "D4",
          "midi": 62,
          "time": 135.5997740000001,
          "velocity": 0.4645669291338583,
          "duration": 0.5687490520833194
        },
        {
          "name": "F4",
          "midi": 65,
          "time": 135.5997740000001,
          "velocity": 0.5669291338582677,
          "duration": 0.5687490520833194
        },
        {
          "name": "A3",
          "midi": 57,
          "time": 136.1997730000001,
          "velocity": 0.5433070866141733,
          "duration": 0.5687490520833194
        },
        {
          "name": "D4",
          "midi": 62,
          "time": 136.1997730000001,
          "velocity": 0.4330708661417323,
          "duration": 0.5687490520833194
        },
        {
          "name": "F4",
          "midi": 65,
          "time": 136.1997730000001,
          "velocity": 0.5196850393700787,
          "duration": 0.5687490520833194
        },
        {
          "name": "E3",
          "midi": 52,
          "time": 136.7997720000001,
          "velocity": 0.5511811023622047,
          "duration": 0.5687490520833194
        },
        {
          "name": "A3",
          "midi": 57,
          "time": 137.3997710000001,
          "velocity": 0.5905511811023622,
          "duration": 0.5687490520833194
        },
        {
          "name": "C#4",
          "midi": 61,
          "time": 137.3997710000001,
          "velocity": 0.4094488188976378,
          "duration": 0.5687490520833194
        },
        {
          "name": "E4",
          "midi": 64,
          "time": 137.3997710000001,
          "velocity": 0.5039370078740157,
          "duration": 0.5687490520833194
        },
        {
          "name": "A3",
          "midi": 57,
          "time": 137.9997700000001,
          "velocity": 0.5354330708661418,
          "duration": 0.5687490520833194
        },
        {
          "name": "C#4",
          "midi": 61,
          "time": 137.9997700000001,
          "velocity": 0.5511811023622047,
          "duration": 0.5687490520833194
        },
        {
          "name": "E4",
          "midi": 64,
          "time": 137.9997700000001,
          "velocity": 0.44881889763779526,
          "duration": 0.5687490520833194
        },
        {
          "name": "A2",
          "midi": 45,
          "time": 138.5997690000001,
          "velocity": 0.5984251968503937,
          "duration": 0.5687490520833194
        },
        {
          "name": "A3",
          "midi": 57,
          "time": 139.1997680000001,
          "velocity": 0.5590551181102362,
          "duration": 0.5687490520833194
        },
        {
          "name": "C#4",
          "midi": 61,
          "time": 139.1997680000001,
          "velocity": 0.6614173228346457,
          "duration": 0.5687490520833194
        },
        {
          "name": "E4",
          "midi": 64,
          "time": 139.1997680000001,
          "velocity": 0.5433070866141733,
          "duration": 0.5687490520833194
        },
        {
          "name": "A3",
          "midi": 57,
          "time": 139.7997670000001,
          "velocity": 0.6062992125984252,
          "duration": 0.5687490520833194
        },
        {
          "name": "C#4",
          "midi": 61,
          "time": 139.7997670000001,
          "velocity": 0.6220472440944882,
          "duration": 0.5687490520833194
        },
        {
          "name": "E4",
          "midi": 64,
          "time": 139.7997670000001,
          "velocity": 0.49606299212598426,
          "duration": 0.5687490520833194
        },
        {
          "name": "D3",
          "midi": 50,
          "time": 140.39976600000008,
          "velocity": 0.6929133858267716,
          "duration": 0.5687490520833194
        },
        {
          "name": "A3",
          "midi": 57,
          "time": 140.99976500000008,
          "velocity": 0.6141732283464567,
          "duration": 0.5687490520833194
        },
        {
          "name": "D4",
          "midi": 62,
          "time": 140.99976500000008,
          "velocity": 0.5511811023622047,
          "duration": 0.5687490520833194
        },
        {
          "name": "F4",
          "midi": 65,
          "time": 140.99976500000008,
          "velocity": 0.5118110236220472,
          "duration": 0.5687490520833194
        },
        {
          "name": "A3",
          "midi": 57,
          "time": 141.59976400000008,
          "velocity": 0.44881889763779526,
          "duration": 0.5687490520833194
        },
        {
          "name": "D4",
          "midi": 62,
          "time": 141.59976400000008,
          "velocity": 0.48031496062992124,
          "duration": 0.5687490520833194
        },
        {
          "name": "F4",
          "midi": 65,
          "time": 141.59976400000008,
          "velocity": 0.5748031496062992,
          "duration": 0.5687490520833194
        },
        {
          "name": "A2",
          "midi": 45,
          "time": 142.19976300000008,
          "velocity": 0.7637795275590551,
          "duration": 0.5687490520833194
        },
        {
          "name": "A3",
          "midi": 57,
          "time": 142.79976200000007,
          "velocity": 0.49606299212598426,
          "duration": 0.5687490520833194
        },
        {
          "name": "D4",
          "midi": 62,
          "time": 142.79976200000007,
          "velocity": 0.4015748031496063,
          "duration": 0.5687490520833194
        },
        {
          "name": "F4",
          "midi": 65,
          "time": 142.79976200000007,
          "velocity": 0.5275590551181102,
          "duration": 0.5687490520833194
        },
        {
          "name": "A3",
          "midi": 57,
          "time": 143.39976100000007,
          "velocity": 0.6299212598425197,
          "duration": 0.5687490520833194
        },
        {
          "name": "D4",
          "midi": 62,
          "time": 143.39976100000007,
          "velocity": 0.6614173228346457,
          "duration": 0.5687490520833194
        },
        {
          "name": "F4",
          "midi": 65,
          "time": 143.39976100000007,
          "velocity": 0.5511811023622047,
          "duration": 0.5687490520833194
        },
        {
          "name": "E3",
          "midi": 52,
          "time": 143.99976000000007,
          "velocity": 0.6535433070866141,
          "duration": 0.5687490520833194
        },
        {
          "name": "A3",
          "midi": 57,
          "time": 144.59975900000006,
          "velocity": 0.5118110236220472,
          "duration": 0.5687490520833194
        },
        {
          "name": "C#4",
          "midi": 61,
          "time": 144.59975900000006,
          "velocity": 0.5511811023622047,
          "duration": 0.5687490520833194
        },
        {
          "name": "E4",
          "midi": 64,
          "time": 144.59975900000006,
          "velocity": 0.49606299212598426,
          "duration": 0.5687490520833194
        },
        {
          "name": "A3",
          "midi": 57,
          "time": 145.19975800000006,
          "velocity": 0.5826771653543307,
          "duration": 0.5687490520833194
        },
        {
          "name": "C#4",
          "midi": 61,
          "time": 145.19975800000006,
          "velocity": 0.5354330708661418,
          "duration": 0.5687490520833194
        },
        {
          "name": "E4",
          "midi": 64,
          "time": 145.19975800000006,
          "velocity": 0.5354330708661418,
          "duration": 0.5687490520833194
        },
        {
          "name": "A2",
          "midi": 45,
          "time": 145.79975700000006,
          "velocity": 0.5826771653543307,
          "duration": 0.5687490520833194
        },
        {
          "name": "A3",
          "midi": 57,
          "time": 146.39975600000005,
          "velocity": 0.3779527559055118,
          "duration": 0.5687490520833194
        },
        {
          "name": "C#4",
          "midi": 61,
          "time": 146.39975600000005,
          "velocity": 0.47244094488188976,
          "duration": 0.5687490520833194
        },
        {
          "name": "E4",
          "midi": 64,
          "time": 146.39975600000005,
          "velocity": 0.48031496062992124,
          "duration": 0.5687490520833194
        },
        {
          "name": "A3",
          "midi": 57,
          "time": 146.99975500000005,
          "velocity": 0.6299212598425197,
          "duration": 0.5687490520833194
        },
        {
          "name": "C#4",
          "midi": 61,
          "time": 146.99975500000005,
          "velocity": 0.6062992125984252,
          "duration": 0.5687490520833194
        },
        {
          "name": "E4",
          "midi": 64,
          "time": 146.99975500000005,
          "velocity": 0.5433070866141733,
          "duration": 0.5687490520833194
        },
        {
          "name": "D2",
          "midi": 38,
          "time": 147.59975400000005,
          "velocity": 0.6535433070866141,
          "duration": 0.5687490520833194
        },
        {
          "name": "A3",
          "midi": 57,
          "time": 148.19975300000004,
          "velocity": 0.6062992125984252,
          "duration": 0.5687490520833194
        },
        {
          "name": "C4",
          "midi": 60,
          "time": 148.19975300000004,
          "velocity": 0.5748031496062992,
          "duration": 0.5687490520833194
        },
        {
          "name": "D#4",
          "midi": 63,
          "time": 148.19975300000004,
          "velocity": 0.5826771653543307,
          "duration": 0.5687490520833194
        },
        {
          "name": "A3",
          "midi": 57,
          "time": 148.79975200000004,
          "velocity": 0.5354330708661418,
          "duration": 0.5687490520833194
        },
        {
          "name": "C4",
          "midi": 60,
          "time": 148.79975200000004,
          "velocity": 0.6456692913385826,
          "duration": 0.5687490520833194
        },
        {
          "name": "D4",
          "midi": 62,
          "time": 148.79975200000004,
          "velocity": 0.5590551181102362,
          "duration": 0.5687490520833194
        },
        {
          "name": "D2",
          "midi": 38,
          "time": 149.39975100000004,
          "velocity": 0.5354330708661418,
          "duration": 0.5687490520833194
        },
        {
          "name": "A3",
          "midi": 57,
          "time": 149.99975000000003,
          "velocity": 0.47244094488188976,
          "duration": 0.5687490520833194
        },
        {
          "name": "C4",
          "midi": 60,
          "time": 149.99975000000003,
          "velocity": 0.5275590551181102,
          "duration": 0.5687490520833194
        },
        {
          "name": "E4",
          "midi": 64,
          "time": 149.99975000000003,
          "velocity": 0.6692913385826772,
          "duration": 0.5687490520833194
        },
        {
          "name": "A3",
          "midi": 57,
          "time": 150.59974900000003,
          "velocity": 0.5354330708661418,
          "duration": 0.5687490520833194
        },
        {
          "name": "C4",
          "midi": 60,
          "time": 150.59974900000003,
          "velocity": 0.5511811023622047,
          "duration": 0.5687490520833194
        },
        {
          "name": "D4",
          "midi": 62,
          "time": 150.59974900000003,
          "velocity": 0.7086614173228346,
          "duration": 0.5687490520833194
        },
        {
          "name": "G2",
          "midi": 43,
          "time": 151.19974800000003,
          "velocity": 0.7322834645669292,
          "duration": 0.5687490520833194
        },
        {
          "name": "A#3",
          "midi": 58,
          "time": 151.79974700000002,
          "velocity": 0.4566929133858268,
          "duration": 0.5687490520833194
        },
        {
          "name": "D4",
          "midi": 62,
          "time": 151.79974700000002,
          "velocity": 0.6062992125984252,
          "duration": 0.5687490520833194
        },
        {
          "name": "F4",
          "midi": 65,
          "time": 151.79974700000002,
          "velocity": 0.5118110236220472,
          "duration": 0.5687490520833194
        },
        {
          "name": "A#3",
          "midi": 58,
          "time": 152.39974600000002,
          "velocity": 0.3858267716535433,
          "duration": 0.5687490520833194
        },
        {
          "name": "D4",
          "midi": 62,
          "time": 152.39974600000002,
          "velocity": 0.47244094488188976,
          "duration": 0.5687490520833194
        },
        {
          "name": "F4",
          "midi": 65,
          "time": 152.39974600000002,
          "velocity": 0.5905511811023622,
          "duration": 0.5687490520833194
        },
        {
          "name": "G2",
          "midi": 43,
          "time": 152.99974500000002,
          "velocity": 0.5118110236220472,
          "duration": 0.5687490520833194
        },
        {
          "name": "A#3",
          "midi": 58,
          "time": 153.59974400000002,
          "velocity": 0.5826771653543307,
          "duration": 0.5687490520833194
        },
        {
          "name": "D4",
          "midi": 62,
          "time": 153.59974400000002,
          "velocity": 0.5433070866141733,
          "duration": 0.5687490520833194
        },
        {
          "name": "F4",
          "midi": 65,
          "time": 153.59974400000002,
          "velocity": 0.5905511811023622,
          "duration": 0.5687490520833194
        },
        {
          "name": "A#3",
          "midi": 58,
          "time": 154.199743,
          "velocity": 0.4881889763779528,
          "duration": 0.5687490520833194
        },
        {
          "name": "D4",
          "midi": 62,
          "time": 154.199743,
          "velocity": 0.41732283464566927,
          "duration": 0.5687490520833194
        },
        {
          "name": "F4",
          "midi": 65,
          "time": 154.199743,
          "velocity": 0.5275590551181102,
          "duration": 0.5687490520833194
        },
        {
          "name": "C2",
          "midi": 36,
          "time": 154.799742,
          "velocity": 0.5905511811023622,
          "duration": 0.5687490520833194
        },
        {
          "name": "A#3",
          "midi": 58,
          "time": 155.399741,
          "velocity": 0.6062992125984252,
          "duration": 0.5687490520833194
        },
        {
          "name": "C4",
          "midi": 60,
          "time": 155.399741,
          "velocity": 0.6141732283464567,
          "duration": 0.5687490520833194
        },
        {
          "name": "E4",
          "midi": 64,
          "time": 155.399741,
          "velocity": 0.5748031496062992,
          "duration": 0.5687490520833194
        },
        {
          "name": "A#3",
          "midi": 58,
          "time": 155.99974,
          "velocity": 0.6141732283464567,
          "duration": 0.5687490520833194
        },
        {
          "name": "C4",
          "midi": 60,
          "time": 155.99974,
          "velocity": 0.5826771653543307,
          "duration": 0.5687490520833194
        },
        {
          "name": "G4",
          "midi": 67,
          "time": 155.99974,
          "velocity": 0.4881889763779528,
          "duration": 0.5687490520833194
        },
        {
          "name": "C2",
          "midi": 36,
          "time": 156.599739,
          "velocity": 0.6141732283464567,
          "duration": 0.5687490520833194
        },
        {
          "name": "A#3",
          "midi": 58,
          "time": 157.199738,
          "velocity": 0.5196850393700787,
          "duration": 0.5687490520833194
        },
        {
          "name": "C4",
          "midi": 60,
          "time": 157.199738,
          "velocity": 0.6299212598425197,
          "duration": 0.5687490520833194
        },
        {
          "name": "F4",
          "midi": 65,
          "time": 157.199738,
          "velocity": 0.44881889763779526,
          "duration": 0.5687490520833194
        },
        {
          "name": "A#3",
          "midi": 58,
          "time": 157.799737,
          "velocity": 0.44881889763779526,
          "duration": 0.5687490520833194
        },
        {
          "name": "C4",
          "midi": 60,
          "time": 157.799737,
          "velocity": 0.4645669291338583,
          "duration": 0.5687490520833194
        },
        {
          "name": "E4",
          "midi": 64,
          "time": 157.799737,
          "velocity": 0.47244094488188976,
          "duration": 0.5687490520833194
        },
        {
          "name": "F2",
          "midi": 41,
          "time": 158.399736,
          "velocity": 0.6299212598425197,
          "duration": 0.5687490520833194
        },
        {
          "name": "A3",
          "midi": 57,
          "time": 158.999735,
          "velocity": 0.5433070866141733,
          "duration": 0.5687490520833194
        },
        {
          "name": "C4",
          "midi": 60,
          "time": 158.999735,
          "velocity": 0.6299212598425197,
          "duration": 0.5687490520833194
        },
        {
          "name": "E4",
          "midi": 64,
          "time": 158.999735,
          "velocity": 0.4645669291338583,
          "duration": 0.5687490520833194
        },
        {
          "name": "A3",
          "midi": 57,
          "time": 159.59973399999998,
          "velocity": 0.5196850393700787,
          "duration": 0.5687490520833194
        },
        {
          "name": "C4",
          "midi": 60,
          "time": 159.59973399999998,
          "velocity": 0.5275590551181102,
          "duration": 0.5687490520833194
        },
        {
          "name": "E4",
          "midi": 64,
          "time": 159.59973399999998,
          "velocity": 0.44881889763779526,
          "duration": 0.5687490520833194
        },
        {
          "name": "F2",
          "midi": 41,
          "time": 160.19973299999998,
          "velocity": 0.7165354330708661,
          "duration": 0.5687490520833194
        },
        {
          "name": "A3",
          "midi": 57,
          "time": 160.79973199999998,
          "velocity": 0.4645669291338583,
          "duration": 0.5687490520833194
        },
        {
          "name": "C4",
          "midi": 60,
          "time": 160.79973199999998,
          "velocity": 0.6692913385826772,
          "duration": 0.5687490520833194
        },
        {
          "name": "G4",
          "midi": 67,
          "time": 160.79973199999998,
          "velocity": 0.5275590551181102,
          "duration": 0.5687490520833194
        },
        {
          "name": "A3",
          "midi": 57,
          "time": 161.39973099999997,
          "velocity": 0.5905511811023622,
          "duration": 0.5687490520833194
        },
        {
          "name": "C4",
          "midi": 60,
          "time": 161.39973099999997,
          "velocity": 0.4566929133858268,
          "duration": 0.5687490520833194
        },
        {
          "name": "F4",
          "midi": 65,
          "time": 161.39973099999997,
          "velocity": 0.44881889763779526,
          "duration": 0.5687490520833194
        },
        {
          "name": "B1",
          "midi": 35,
          "time": 161.99972999999997,
          "velocity": 0.7952755905511811,
          "duration": 0.5687490520833194
        },
        {
          "name": "F#3",
          "midi": 54,
          "time": 162.59972899999997,
          "velocity": 0.5118110236220472,
          "duration": 0.5687490520833194
        },
        {
          "name": "B3",
          "midi": 59,
          "time": 162.59972899999997,
          "velocity": 0.48031496062992124,
          "duration": 0.5687490520833194
        },
        {
          "name": "E4",
          "midi": 64,
          "time": 162.59972899999997,
          "velocity": 0.5354330708661418,
          "duration": 0.5687490520833194
        },
        {
          "name": "F#3",
          "midi": 54,
          "time": 163.19972799999996,
          "velocity": 0.4881889763779528,
          "duration": 0.5687490520833194
        },
        {
          "name": "B3",
          "midi": 59,
          "time": 163.19972799999996,
          "velocity": 0.4566929133858268,
          "duration": 0.5687490520833194
        },
        {
          "name": "D#4",
          "midi": 63,
          "time": 163.19972799999996,
          "velocity": 0.41732283464566927,
          "duration": 0.5687490520833194
        },
        {
          "name": "E2",
          "midi": 40,
          "time": 163.79972699999996,
          "velocity": 0.6692913385826772,
          "duration": 0.5687490520833194
        },
        {
          "name": "G#3",
          "midi": 56,
          "time": 164.39972599999996,
          "velocity": 0.5433070866141733,
          "duration": 0.5687490520833194
        },
        {
          "name": "B3",
          "midi": 59,
          "time": 164.39972599999996,
          "velocity": 0.6377952755905512,
          "duration": 0.5687490520833194
        },
        {
          "name": "F4",
          "midi": 65,
          "time": 164.39972599999996,
          "velocity": 0.5984251968503937,
          "duration": 0.5687490520833194
        },
        {
          "name": "G#3",
          "midi": 56,
          "time": 164.99972499999996,
          "velocity": 0.5433070866141733,
          "duration": 0.5687490520833194
        },
        {
          "name": "B3",
          "midi": 59,
          "time": 164.99972499999996,
          "velocity": 0.4645669291338583,
          "duration": 0.5687490520833194
        },
        {
          "name": "E4",
          "midi": 64,
          "time": 164.99972499999996,
          "velocity": 0.5511811023622047,
          "duration": 0.5687490520833194
        },
        {
          "name": "A1",
          "midi": 33,
          "time": 165.59972399999995,
          "velocity": 0.49606299212598426,
          "duration": 0.5687490520833194
        },
        {
          "name": "G3",
          "midi": 55,
          "time": 166.19972299999995,
          "velocity": 0.5826771653543307,
          "duration": 0.5687490520833194
        },
        {
          "name": "A3",
          "midi": 57,
          "time": 166.19972299999995,
          "velocity": 0.5511811023622047,
          "duration": 0.5687490520833194
        },
        {
          "name": "C#4",
          "midi": 61,
          "time": 166.19972299999995,
          "velocity": 0.5275590551181102,
          "duration": 0.5687490520833194
        },
        {
          "name": "E4",
          "midi": 64,
          "time": 166.19972299999995,
          "velocity": 0.6220472440944882,
          "duration": 0.5687490520833194
        },
        {
          "name": "G3",
          "midi": 55,
          "time": 166.79972199999995,
          "velocity": 0.5275590551181102,
          "duration": 0.5687490520833194
        },
        {
          "name": "A3",
          "midi": 57,
          "time": 166.79972199999995,
          "velocity": 0.44881889763779526,
          "duration": 0.5687490520833194
        },
        {
          "name": "C#4",
          "midi": 61,
          "time": 166.79972199999995,
          "velocity": 0.6299212598425197,
          "duration": 0.5687490520833194
        },
        {
          "name": "E4",
          "midi": 64,
          "time": 166.79972199999995,
          "velocity": 0.47244094488188976,
          "duration": 0.5687490520833194
        },
        {
          "name": "A1",
          "midi": 33,
          "time": 167.39972099999994,
          "velocity": 0.7007874015748031,
          "duration": 0.5687490520833194
        },
        {
          "name": "G3",
          "midi": 55,
          "time": 167.99971999999994,
          "velocity": 0.5039370078740157,
          "duration": 0.5687490520833194
        },
        {
          "name": "C#4",
          "midi": 61,
          "time": 167.99971999999994,
          "velocity": 0.7007874015748031,
          "duration": 0.5687490520833194
        },
        {
          "name": "E4",
          "midi": 64,
          "time": 167.99971999999994,
          "velocity": 0.5354330708661418,
          "duration": 0.5687490520833194
        },
        {
          "name": "G3",
          "midi": 55,
          "time": 168.59971899999994,
          "velocity": 0.5118110236220472,
          "duration": 0.5687490520833194
        },
        {
          "name": "C#4",
          "midi": 61,
          "time": 168.59971899999994,
          "velocity": 0.5039370078740157,
          "duration": 0.5687490520833194
        },
        {
          "name": "E4",
          "midi": 64,
          "time": 168.59971899999994,
          "velocity": 0.48031496062992124,
          "duration": 0.5687490520833194
        },
        {
          "name": "C2",
          "midi": 36,
          "time": 169.19971799999993,
          "velocity": 0.6535433070866141,
          "duration": 0.5687490520833194
        },
        {
          "name": "G3",
          "midi": 55,
          "time": 169.79971699999993,
          "velocity": 0.5039370078740157,
          "duration": 0.5687490520833194
        },
        {
          "name": "C4",
          "midi": 60,
          "time": 169.79971699999993,
          "velocity": 0.6220472440944882,
          "duration": 0.5687490520833194
        },
        {
          "name": "D#4",
          "midi": 63,
          "time": 169.79971699999993,
          "velocity": 0.47244094488188976,
          "duration": 0.5687490520833194
        },
        {
          "name": "G3",
          "midi": 55,
          "time": 170.39971599999993,
          "velocity": 0.49606299212598426,
          "duration": 0.5687490520833194
        },
        {
          "name": "C4",
          "midi": 60,
          "time": 170.39971599999993,
          "velocity": 0.5748031496062992,
          "duration": 0.5687490520833194
        },
        {
          "name": "D4",
          "midi": 62,
          "time": 170.39971599999993,
          "velocity": 0.5905511811023622,
          "duration": 0.5687490520833194
        },
        {
          "name": "C2",
          "midi": 36,
          "time": 170.99971499999992,
          "velocity": 0.6377952755905512,
          "duration": 0.5687490520833194
        },
        {
          "name": "G3",
          "midi": 55,
          "time": 171.59971399999992,
          "velocity": 0.4645669291338583,
          "duration": 0.5687490520833194
        },
        {
          "name": "C4",
          "midi": 60,
          "time": 171.59971399999992,
          "velocity": 0.6850393700787402,
          "duration": 0.5687490520833194
        },
        {
          "name": "D#4",
          "midi": 63,
          "time": 171.59971399999992,
          "velocity": 0.5984251968503937,
          "duration": 0.5687490520833194
        },
        {
          "name": "G3",
          "midi": 55,
          "time": 172.19971299999992,
          "velocity": 0.3937007874015748,
          "duration": 0.5687490520833194
        },
        {
          "name": "A#3",
          "midi": 58,
          "time": 172.19971299999992,
          "velocity": 0.4645669291338583,
          "duration": 0.5687490520833194
        },
        {
          "name": "D#4",
          "midi": 63,
          "time": 172.19971299999992,
          "velocity": 0.5511811023622047,
          "duration": 0.5687490520833194
        },
        {
          "name": "D2",
          "midi": 38,
          "time": 172.79971199999991,
          "velocity": 0.47244094488188976,
          "duration": 0.5687490520833194
        },
        {
          "name": "A3",
          "midi": 57,
          "time": 173.3997109999999,
          "velocity": 0.48031496062992124,
          "duration": 0.5687490520833194
        },
        {
          "name": "D4",
          "midi": 62,
          "time": 173.3997109999999,
          "velocity": 0.5196850393700787,
          "duration": 0.5687490520833194
        },
        {
          "name": "F#4",
          "midi": 66,
          "time": 173.3997109999999,
          "velocity": 0.3858267716535433,
          "duration": 0.5687490520833194
        },
        {
          "name": "A3",
          "midi": 57,
          "time": 173.9997099999999,
          "velocity": 0.44881889763779526,
          "duration": 0.5687490520833194
        },
        {
          "name": "D4",
          "midi": 62,
          "time": 173.9997099999999,
          "velocity": 0.4094488188976378,
          "duration": 0.5687490520833194
        },
        {
          "name": "F#4",
          "midi": 66,
          "time": 173.9997099999999,
          "velocity": 0.41732283464566927,
          "duration": 0.5687490520833194
        },
        {
          "name": "D2",
          "midi": 38,
          "time": 174.5997089999999,
          "velocity": 0.3228346456692913,
          "duration": 0.5687490520833194
        },
        {
          "name": "A#3",
          "midi": 58,
          "time": 175.1997079999999,
          "velocity": 0.5354330708661418,
          "duration": 0.5687490520833194
        },
        {
          "name": "C4",
          "midi": 60,
          "time": 175.7997069999999,
          "velocity": 0.41732283464566927,
          "duration": 0.5687490520833194
        },
        {
          "name": "D2",
          "midi": 38,
          "time": 176.3997059999999,
          "velocity": 0.30708661417322836,
          "duration": 0.5687490520833194
        },
        {
          "name": "A3",
          "midi": 57,
          "time": 176.9997049999999,
          "velocity": 0.4094488188976378,
          "duration": 0.5687490520833194
        },
        {
          "name": "A#3",
          "midi": 58,
          "time": 177.5997039999999,
          "velocity": 0.2125984251968504,
          "duration": 0.5687490520833194
        },
        {
          "name": "A3",
          "midi": 57,
          "time": 178.79970199999988,
          "velocity": 0.44881889763779526,
          "duration": 1.1387481020833263
        },
        {
          "name": "C2",
          "midi": 36,
          "time": 179.99969999999988,
          "velocity": 0.6614173228346457,
          "duration": 0.5687490520833194
        },
        {
          "name": "G3",
          "midi": 55,
          "time": 180.59969899999987,
          "velocity": 0.4409448818897638,
          "duration": 0.5687490520833194
        },
        {
          "name": "A#3",
          "midi": 58,
          "time": 180.59969899999987,
          "velocity": 0.44881889763779526,
          "duration": 0.5687490520833194
        },
        {
          "name": "D#4",
          "midi": 63,
          "time": 180.59969899999987,
          "velocity": 0.6220472440944882,
          "duration": 0.5687490520833194
        },
        {
          "name": "G3",
          "midi": 55,
          "time": 181.19969799999987,
          "velocity": 0.5275590551181102,
          "duration": 0.5687490520833194
        },
        {
          "name": "A#3",
          "midi": 58,
          "time": 181.19969799999987,
          "velocity": 0.5354330708661418,
          "duration": 0.5687490520833194
        },
        {
          "name": "D#4",
          "midi": 63,
          "time": 181.19969799999987,
          "velocity": 0.5669291338582677,
          "duration": 0.5687490520833194
        },
        {
          "name": "D2",
          "midi": 38,
          "time": 181.79969699999987,
          "velocity": 0.7401574803149606,
          "duration": 0.5687490520833194
        },
        {
          "name": "A#3",
          "midi": 58,
          "time": 182.39969599999986,
          "velocity": 0.41732283464566927,
          "duration": 0.5687490520833194
        },
        {
          "name": "D4",
          "midi": 62,
          "time": 182.39969599999986,
          "velocity": 0.5984251968503937,
          "duration": 0.5687490520833194
        },
        {
          "name": "F#4",
          "midi": 66,
          "time": 182.39969599999986,
          "velocity": 0.6771653543307087,
          "duration": 0.5687490520833194
        },
        {
          "name": "A3",
          "midi": 57,
          "time": 182.99969499999986,
          "velocity": 0.6141732283464567,
          "duration": 0.5687490520833194
        },
        {
          "name": "D4",
          "midi": 62,
          "time": 182.99969499999986,
          "velocity": 0.5433070866141733,
          "duration": 0.5687490520833194
        },
        {
          "name": "F#4",
          "midi": 66,
          "time": 182.99969499999986,
          "velocity": 0.5984251968503937,
          "duration": 0.5687490520833194
        },
        {
          "name": "G2",
          "midi": 43,
          "time": 183.59969399999986,
          "velocity": 0.5118110236220472,
          "duration": 0.5687490520833194
        },
        {
          "name": "A#3",
          "midi": 58,
          "time": 184.19969299999985,
          "velocity": 0.5511811023622047,
          "duration": 0.5687490520833194
        },
        {
          "name": "D4",
          "midi": 62,
          "time": 184.19969299999985,
          "velocity": 0.5826771653543307,
          "duration": 0.5687490520833194
        },
        {
          "name": "F4",
          "midi": 65,
          "time": 184.19969299999985,
          "velocity": 0.5039370078740157,
          "duration": 0.5687490520833194
        },
        {
          "name": "A#3",
          "midi": 58,
          "time": 184.79969199999985,
          "velocity": 0.6614173228346457,
          "duration": 0.5687490520833194
        },
        {
          "name": "D4",
          "midi": 62,
          "time": 184.79969199999985,
          "velocity": 0.3700787401574803,
          "duration": 0.5687490520833194
        },
        {
          "name": "F4",
          "midi": 65,
          "time": 184.79969199999985,
          "velocity": 0.5590551181102362,
          "duration": 0.5687490520833194
        },
        {
          "name": "F3",
          "midi": 53,
          "time": 185.39969099999985,
          "velocity": 0.8031496062992126,
          "duration": 0.8537485770833086
        },
        {
          "name": "G#3",
          "midi": 56,
          "time": 185.39969099999985,
          "velocity": 0.6614173228346457,
          "duration": 0.8537485770833086
        },
        {
          "name": "C4",
          "midi": 60,
          "time": 185.39969099999985,
          "velocity": 0.7086614173228346,
          "duration": 0.8537485770833086
        },
        {
          "name": "A#2",
          "midi": 46,
          "time": 186.29968949999983,
          "velocity": 0.6377952755905512,
          "duration": 0.8537485770833371
        },
        {
          "name": "F3",
          "midi": 53,
          "time": 186.29968949999983,
          "velocity": 0.7322834645669292,
          "duration": 0.8537485770833371
        },
        {
          "name": "G#3",
          "midi": 56,
          "time": 186.29968949999983,
          "velocity": 0.6929133858267716,
          "duration": 0.8537485770833371
        },
        {
          "name": "D#2",
          "midi": 39,
          "time": 187.19968799999984,
          "velocity": 0.7480314960629921,
          "duration": 0.5687490520833194
        },
        {
          "name": "A#3",
          "midi": 58,
          "time": 187.79968699999984,
          "velocity": 0.4881889763779528,
          "duration": 0.5687490520833194
        },
        {
          "name": "D4",
          "midi": 62,
          "time": 187.79968699999984,
          "velocity": 0.5433070866141733,
          "duration": 0.5687490520833194
        },
        {
          "name": "G4",
          "midi": 67,
          "time": 187.79968699999984,
          "velocity": 0.5669291338582677,
          "duration": 0.5687490520833194
        },
        {
          "name": "A#3",
          "midi": 58,
          "time": 188.39968599999983,
          "velocity": 0.4566929133858268,
          "duration": 0.5687490520833194
        },
        {
          "name": "D4",
          "midi": 62,
          "time": 188.39968599999983,
          "velocity": 0.6062992125984252,
          "duration": 0.5687490520833194
        },
        {
          "name": "G4",
          "midi": 67,
          "time": 188.39968599999983,
          "velocity": 0.41732283464566927,
          "duration": 0.5687490520833194
        },
        {
          "name": "D#2",
          "midi": 39,
          "time": 188.99968499999983,
          "velocity": 0.6535433070866141,
          "duration": 0.5687490520833194
        },
        {
          "name": "A3",
          "midi": 57,
          "time": 189.59968399999983,
          "velocity": 0.6929133858267716,
          "duration": 0.5687490520833194
        },
        {
          "name": "C4",
          "midi": 60,
          "time": 189.59968399999983,
          "velocity": 0.48031496062992124,
          "duration": 0.5687490520833194
        },
        {
          "name": "F4",
          "midi": 65,
          "time": 189.59968399999983,
          "velocity": 0.6614173228346457,
          "duration": 0.5687490520833194
        },
        {
          "name": "A3",
          "midi": 57,
          "time": 190.19968299999982,
          "velocity": 0.3937007874015748,
          "duration": 0.5687490520833194
        },
        {
          "name": "C4",
          "midi": 60,
          "time": 190.19968299999982,
          "velocity": 0.7007874015748031,
          "duration": 0.5687490520833194
        },
        {
          "name": "F4",
          "midi": 65,
          "time": 190.19968299999982,
          "velocity": 0.47244094488188976,
          "duration": 0.5687490520833194
        },
        {
          "name": "D2",
          "midi": 38,
          "time": 190.79968199999982,
          "velocity": 0.7401574803149606,
          "duration": 0.5687490520833194
        },
        {
          "name": "A3",
          "midi": 57,
          "time": 191.39968099999982,
          "velocity": 0.6141732283464567,
          "duration": 0.5687490520833194
        },
        {
          "name": "C4",
          "midi": 60,
          "time": 191.39968099999982,
          "velocity": 0.5433070866141733,
          "duration": 0.5687490520833194
        },
        {
          "name": "F4",
          "midi": 65,
          "time": 191.39968099999982,
          "velocity": 0.5669291338582677,
          "duration": 0.5687490520833194
        },
        {
          "name": "A3",
          "midi": 57,
          "time": 191.9996799999998,
          "velocity": 0.5433070866141733,
          "duration": 0.5687490520833194
        },
        {
          "name": "C4",
          "midi": 60,
          "time": 191.9996799999998,
          "velocity": 0.5118110236220472,
          "duration": 0.5687490520833194
        },
        {
          "name": "F4",
          "midi": 65,
          "time": 191.9996799999998,
          "velocity": 0.47244094488188976,
          "duration": 0.5687490520833194
        },
        {
          "name": "G2",
          "midi": 43,
          "time": 192.5996789999998,
          "velocity": 0.6220472440944882,
          "duration": 0.5687490520833194
        },
        {
          "name": "A#3",
          "midi": 58,
          "time": 193.1996779999998,
          "velocity": 0.4409448818897638,
          "duration": 0.5687490520833194
        },
        {
          "name": "D4",
          "midi": 62,
          "time": 193.1996779999998,
          "velocity": 0.6220472440944882,
          "duration": 0.5687490520833194
        },
        {
          "name": "F4",
          "midi": 65,
          "time": 193.1996779999998,
          "velocity": 0.5118110236220472,
          "duration": 0.5687490520833194
        },
        {
          "name": "A#3",
          "midi": 58,
          "time": 193.7996769999998,
          "velocity": 0.5275590551181102,
          "duration": 0.5687490520833194
        },
        {
          "name": "D4",
          "midi": 62,
          "time": 193.7996769999998,
          "velocity": 0.5826771653543307,
          "duration": 0.5687490520833194
        },
        {
          "name": "F4",
          "midi": 65,
          "time": 193.7996769999998,
          "velocity": 0.6141732283464567,
          "duration": 0.5687490520833194
        },
        {
          "name": "E2",
          "midi": 40,
          "time": 194.3996759999998,
          "velocity": 0.8031496062992126,
          "duration": 0.5687490520833194
        },
        {
          "name": "A#3",
          "midi": 58,
          "time": 194.9996749999998,
          "velocity": 0.5748031496062992,
          "duration": 0.5687490520833194
        },
        {
          "name": "D4",
          "midi": 62,
          "time": 194.9996749999998,
          "velocity": 0.5118110236220472,
          "duration": 0.5687490520833194
        },
        {
          "name": "F4",
          "midi": 65,
          "time": 194.9996749999998,
          "velocity": 0.7007874015748031,
          "duration": 0.5687490520833194
        },
        {
          "name": "G4",
          "midi": 67,
          "time": 194.9996749999998,
          "velocity": 0.6377952755905512,
          "duration": 0.5687490520833194
        },
        {
          "name": "A#3",
          "midi": 58,
          "time": 195.5996739999998,
          "velocity": 0.4881889763779528,
          "duration": 0.5687490520833194
        },
        {
          "name": "D4",
          "midi": 62,
          "time": 195.5996739999998,
          "velocity": 0.48031496062992124,
          "duration": 0.5687490520833194
        },
        {
          "name": "F4",
          "midi": 65,
          "time": 195.5996739999998,
          "velocity": 0.6299212598425197,
          "duration": 0.5687490520833194
        },
        {
          "name": "G4",
          "midi": 67,
          "time": 195.5996739999998,
          "velocity": 0.4645669291338583,
          "duration": 0.5687490520833194
        },
        {
          "name": "A2",
          "midi": 45,
          "time": 196.1996729999998,
          "velocity": 0.5039370078740157,
          "duration": 0.5687490520833194
        },
        {
          "name": "A#3",
          "midi": 58,
          "time": 196.7996719999998,
          "velocity": 0.5354330708661418,
          "duration": 0.5687490520833194
        },
        {
          "name": "C#4",
          "midi": 61,
          "time": 196.7996719999998,
          "velocity": 0.5905511811023622,
          "duration": 0.5687490520833194
        },
        {
          "name": "F4",
          "midi": 65,
          "time": 196.7996719999998,
          "velocity": 0.49606299212598426,
          "duration": 0.5687490520833194
        },
        {
          "name": "A#3",
          "midi": 58,
          "time": 197.39967099999978,
          "velocity": 0.5433070866141733,
          "duration": 0.5687490520833194
        },
        {
          "name": "C#4",
          "midi": 61,
          "time": 197.39967099999978,
          "velocity": 0.5669291338582677,
          "duration": 0.5687490520833194
        },
        {
          "name": "G4",
          "midi": 67,
          "time": 197.39967099999978,
          "velocity": 0.7244094488188977,
          "duration": 0.5687490520833194
        },
        {
          "name": "D2",
          "midi": 38,
          "time": 197.99966999999978,
          "velocity": 0.7559055118110236,
          "duration": 0.5687490520833194
        },
        {
          "name": "A3",
          "midi": 57,
          "time": 198.59966899999978,
          "velocity": 0.5275590551181102,
          "duration": 0.5687490520833194
        },
        {
          "name": "C4",
          "midi": 60,
          "time": 198.59966899999978,
          "velocity": 0.5590551181102362,
          "duration": 0.5687490520833194
        },
        {
          "name": "D4",
          "midi": 62,
          "time": 198.59966899999978,
          "velocity": 0.5511811023622047,
          "duration": 0.5687490520833194
        },
        {
          "name": "G4",
          "midi": 67,
          "time": 198.59966899999978,
          "velocity": 0.6141732283464567,
          "duration": 0.5687490520833194
        },
        {
          "name": "A3",
          "midi": 57,
          "time": 199.19966799999978,
          "velocity": 0.5118110236220472,
          "duration": 0.5687490520833194
        },
        {
          "name": "C4",
          "midi": 60,
          "time": 199.19966799999978,
          "velocity": 0.6220472440944882,
          "duration": 0.5687490520833194
        },
        {
          "name": "D4",
          "midi": 62,
          "time": 199.19966799999978,
          "velocity": 0.5669291338582677,
          "duration": 0.5687490520833194
        },
        {
          "name": "F4",
          "midi": 65,
          "time": 199.19966799999978,
          "velocity": 0.4645669291338583,
          "duration": 0.5687490520833194
        },
        {
          "name": "C2",
          "midi": 36,
          "time": 199.79966699999977,
          "velocity": 0.8110236220472441,
          "duration": 0.5687490520833194
        },
        {
          "name": "A3",
          "midi": 57,
          "time": 200.39966599999977,
          "velocity": 0.47244094488188976,
          "duration": 0.5687490520833194
        },
        {
          "name": "D4",
          "midi": 62,
          "time": 200.39966599999977,
          "velocity": 0.6929133858267716,
          "duration": 0.5687490520833194
        },
        {
          "name": "F4",
          "midi": 65,
          "time": 200.39966599999977,
          "velocity": 0.5196850393700787,
          "duration": 0.5687490520833194
        },
        {
          "name": "A3",
          "midi": 57,
          "time": 200.99966499999977,
          "velocity": 0.5511811023622047,
          "duration": 0.5687490520833194
        },
        {
          "name": "D4",
          "midi": 62,
          "time": 200.99966499999977,
          "velocity": 0.4566929133858268,
          "duration": 0.5687490520833194
        },
        {
          "name": "F4",
          "midi": 65,
          "time": 200.99966499999977,
          "velocity": 0.5669291338582677,
          "duration": 0.5687490520833194
        },
        {
          "name": "A#1",
          "midi": 34,
          "time": 201.59966399999976,
          "velocity": 0.6220472440944882,
          "duration": 0.5687490520833194
        },
        {
          "name": "A#3",
          "midi": 58,
          "time": 202.19966299999976,
          "velocity": 0.4881889763779528,
          "duration": 0.5687490520833194
        },
        {
          "name": "D4",
          "midi": 62,
          "time": 202.19966299999976,
          "velocity": 0.5826771653543307,
          "duration": 0.5687490520833194
        },
        {
          "name": "F4",
          "midi": 65,
          "time": 202.19966299999976,
          "velocity": 0.5511811023622047,
          "duration": 0.5687490520833194
        },
        {
          "name": "A#3",
          "midi": 58,
          "time": 202.79966199999976,
          "velocity": 0.6141732283464567,
          "duration": 0.5687490520833194
        },
        {
          "name": "D4",
          "midi": 62,
          "time": 202.79966199999976,
          "velocity": 0.6614173228346457,
          "duration": 0.5687490520833194
        },
        {
          "name": "F4",
          "midi": 65,
          "time": 202.79966199999976,
          "velocity": 0.5669291338582677,
          "duration": 0.5687490520833194
        },
        {
          "name": "A1",
          "midi": 33,
          "time": 203.39966099999975,
          "velocity": 0.6535433070866141,
          "duration": 0.5687490520833194
        },
        {
          "name": "A3",
          "midi": 57,
          "time": 203.99965999999975,
          "velocity": 0.6614173228346457,
          "duration": 0.5687490520833194
        },
        {
          "name": "C#4",
          "midi": 61,
          "time": 203.99965999999975,
          "velocity": 0.4645669291338583,
          "duration": 0.5687490520833194
        },
        {
          "name": "E4",
          "midi": 64,
          "time": 203.99965999999975,
          "velocity": 0.4881889763779528,
          "duration": 0.5687490520833194
        },
        {
          "name": "A3",
          "midi": 57,
          "time": 204.59965899999975,
          "velocity": 0.48031496062992124,
          "duration": 0.5687490520833194
        },
        {
          "name": "C#4",
          "midi": 61,
          "time": 204.59965899999975,
          "velocity": 0.6771653543307087,
          "duration": 0.5687490520833194
        },
        {
          "name": "E4",
          "midi": 64,
          "time": 204.59965899999975,
          "velocity": 0.48031496062992124,
          "duration": 0.5687490520833194
        },
        {
          "name": "D2",
          "midi": 38,
          "time": 205.19965799999974,
          "velocity": 0.7007874015748031,
          "duration": 0.5687490520833194
        },
        {
          "name": "A3",
          "midi": 57,
          "time": 205.79965699999974,
          "velocity": 0.6299212598425197,
          "duration": 0.5687490520833194
        },
        {
          "name": "D4",
          "midi": 62,
          "time": 205.79965699999974,
          "velocity": 0.5354330708661418,
          "duration": 0.5687490520833194
        },
        {
          "name": "F#4",
          "midi": 66,
          "time": 205.79965699999974,
          "velocity": 0.6771653543307087,
          "duration": 0.5687490520833194
        },
        {
          "name": "A3",
          "midi": 57,
          "time": 206.39965599999974,
          "velocity": 0.7480314960629921,
          "duration": 0.5687490520833194
        },
        {
          "name": "D4",
          "midi": 62,
          "time": 206.39965599999974,
          "velocity": 0.5511811023622047,
          "duration": 0.5687490520833194
        },
        {
          "name": "F#4",
          "midi": 66,
          "time": 206.39965599999974,
          "velocity": 0.6220472440944882,
          "duration": 0.5687490520833194
        },
        {
          "name": "A1",
          "midi": 33,
          "time": 206.99965499999973,
          "velocity": 0.8110236220472441,
          "duration": 0.5687490520833194
        },
        {
          "name": "A3",
          "midi": 57,
          "time": 207.59965399999973,
          "velocity": 0.6614173228346457,
          "duration": 0.5687490520833194
        },
        {
          "name": "D4",
          "midi": 62,
          "time": 207.59965399999973,
          "velocity": 0.6850393700787402,
          "duration": 0.5687490520833194
        },
        {
          "name": "F#4",
          "midi": 66,
          "time": 207.59965399999973,
          "velocity": 0.7007874015748031,
          "duration": 0.5687490520833194
        },
        {
          "name": "A3",
          "midi": 57,
          "time": 208.19965299999973,
          "velocity": 0.5905511811023622,
          "duration": 0.5687490520833194
        },
        {
          "name": "D4",
          "midi": 62,
          "time": 208.19965299999973,
          "velocity": 0.5196850393700787,
          "duration": 0.5687490520833194
        },
        {
          "name": "F#4",
          "midi": 66,
          "time": 208.19965299999973,
          "velocity": 0.6456692913385826,
          "duration": 0.5687490520833194
        },
        {
          "name": "D2",
          "midi": 38,
          "time": 208.79965199999972,
          "velocity": 0.8661417322834646,
          "duration": 0.5687490520833194
        },
        {
          "name": "A3",
          "midi": 57,
          "time": 209.39965099999972,
          "velocity": 0.6929133858267716,
          "duration": 0.5687490520833194
        },
        {
          "name": "D4",
          "midi": 62,
          "time": 209.39965099999972,
          "velocity": 0.6141732283464567,
          "duration": 0.5687490520833194
        },
        {
          "name": "F#4",
          "midi": 66,
          "time": 209.39965099999972,
          "velocity": 0.7637795275590551,
          "duration": 0.5687490520833194
        },
        {
          "name": "A3",
          "midi": 57,
          "time": 209.99964999999972,
          "velocity": 0.47244094488188976,
          "duration": 0.5687490520833194
        },
        {
          "name": "D4",
          "midi": 62,
          "time": 209.99964999999972,
          "velocity": 0.6692913385826772,
          "duration": 0.5687490520833194
        },
        {
          "name": "F#4",
          "midi": 66,
          "time": 209.99964999999972,
          "velocity": 0.6929133858267716,
          "duration": 0.5687490520833194
        },
        {
          "name": "A1",
          "midi": 33,
          "time": 210.59964899999972,
          "velocity": 0.6929133858267716,
          "duration": 0.5687490520833194
        },
        {
          "name": "A3",
          "midi": 57,
          "time": 211.1996479999997,
          "velocity": 0.5039370078740157,
          "duration": 0.5687490520833194
        },
        {
          "name": "D4",
          "midi": 62,
          "time": 211.1996479999997,
          "velocity": 0.4566929133858268,
          "duration": 0.5687490520833194
        },
        {
          "name": "F#4",
          "midi": 66,
          "time": 211.1996479999997,
          "velocity": 0.6692913385826772,
          "duration": 0.5687490520833194
        },
        {
          "name": "A3",
          "midi": 57,
          "time": 211.7996469999997,
          "velocity": 0.5275590551181102,
          "duration": 1.1387481020833263
        },
        {
          "name": "D4",
          "midi": 62,
          "time": 211.7996469999997,
          "velocity": 0.5039370078740157,
          "duration": 1.1387481020833263
        },
        {
          "name": "F#4",
          "midi": 66,
          "time": 211.7996469999997,
          "velocity": 0.5590551181102362,
          "duration": 1.1387481020833263
        },
        {
          "name": "A#4",
          "midi": 70,
          "time": 214.1996429999997,
          "velocity": 0.49606299212598426,
          "duration": 0.28374952708335854
        },
        {
          "name": "C5",
          "midi": 72,
          "time": 214.4996424999997,
          "velocity": 0.4566929133858268,
          "duration": 0.2837495270833301
        },
        {
          "name": "A#4",
          "midi": 70,
          "time": 214.7996419999997,
          "velocity": 0.3543307086614173,
          "duration": 0.2837495270833301
        },
        {
          "name": "C5",
          "midi": 72,
          "time": 215.09964149999968,
          "velocity": 0.4015748031496063,
          "duration": 0.2837495270833301
        },
        {
          "name": "A#4",
          "midi": 70,
          "time": 215.39964099999966,
          "velocity": 0.30708661417322836,
          "duration": 0.2837495270833301
        },
        {
          "name": "C5",
          "midi": 72,
          "time": 215.69964049999965,
          "velocity": 0.4015748031496063,
          "duration": 0.2837495270833301
        },
        {
          "name": "A4",
          "midi": 69,
          "time": 215.99963999999963,
          "velocity": 0.6220472440944882,
          "duration": 0.2837495270833301
        },
        {
          "name": "A#4",
          "midi": 70,
          "time": 216.2996394999996,
          "velocity": 0.4881889763779528,
          "duration": 0.2837495270833301
        },
        {
          "name": "A4",
          "midi": 69,
          "time": 216.5996389999996,
          "velocity": 0.3937007874015748,
          "duration": 0.2837495270833301
        },
        {
          "name": "A#4",
          "midi": 70,
          "time": 216.89963849999958,
          "velocity": 0.49606299212598426,
          "duration": 0.2837495270833301
        },
        {
          "name": "A4",
          "midi": 69,
          "time": 217.19963799999957,
          "velocity": 0.5433070866141733,
          "duration": 0.2837495270833301
        },
        {
          "name": "A#4",
          "midi": 70,
          "time": 217.49963749999955,
          "velocity": 0.5511811023622047,
          "duration": 0.2837495270833301
        },
        {
          "name": "G4",
          "midi": 67,
          "time": 217.79963699999954,
          "velocity": 0.6220472440944882,
          "duration": 0.2837495270833301
        },
        {
          "name": "A4",
          "midi": 69,
          "time": 218.09963649999952,
          "velocity": 0.6692913385826772,
          "duration": 0.2837495270833301
        },
        {
          "name": "G4",
          "midi": 67,
          "time": 218.3996359999995,
          "velocity": 0.30708661417322836,
          "duration": 0.2837495270833301
        },
        {
          "name": "A4",
          "midi": 69,
          "time": 218.6996354999995,
          "velocity": 0.5590551181102362,
          "duration": 0.2837495270833301
        },
        {
          "name": "G4",
          "midi": 67,
          "time": 218.99963499999947,
          "velocity": 0.4094488188976378,
          "duration": 0.2837495270833301
        },
        {
          "name": "A4",
          "midi": 69,
          "time": 219.29963449999946,
          "velocity": 0.5433070866141733,
          "duration": 0.2837495270833301
        },
        {
          "name": "F#4",
          "midi": 66,
          "time": 219.59963399999944,
          "velocity": 0.7874015748031497,
          "duration": 0.14124976458330707
        },
        {
          "name": "E4",
          "midi": 64,
          "time": 219.74963374999942,
          "velocity": 0.7086614173228346,
          "duration": 0.1412497645833355
        },
        {
          "name": "D4",
          "midi": 62,
          "time": 219.89963349999942,
          "velocity": 0.7559055118110236,
          "duration": 1.423747627083344
        },
        {
          "name": "D2",
          "midi": 38,
          "time": 221.39963099999943,
          "velocity": 0.4881889763779528,
          "duration": 0.2837495270833301
        },
        {
          "name": "A2",
          "midi": 45,
          "time": 221.69963049999942,
          "velocity": 0.6377952755905512,
          "duration": 0.2837495270833301
        },
        {
          "name": "C3",
          "midi": 48,
          "time": 221.9996299999994,
          "velocity": 0.49606299212598426,
          "duration": 0.2837495270833301
        },
        {
          "name": "D3",
          "midi": 50,
          "time": 222.29962949999938,
          "velocity": 0.7165354330708661,
          "duration": 0.2837495270833301
        },
        {
          "name": "D#3",
          "midi": 51,
          "time": 222.59962899999937,
          "velocity": 0.5196850393700787,
          "duration": 0.2837495270833301
        },
        {
          "name": "F#3",
          "midi": 54,
          "time": 222.89962849999935,
          "velocity": 0.6220472440944882,
          "duration": 0.2837495270833301
        },
        {
          "name": "A3",
          "midi": 57,
          "time": 223.19962799999934,
          "velocity": 0.5433070866141733,
          "duration": 0.18874968541666703
        },
        {
          "name": "C4",
          "midi": 60,
          "time": 223.399627666666,
          "velocity": 0.49606299212598426,
          "duration": 0.18874968541666703
        },
        {
          "name": "D4",
          "midi": 62,
          "time": 223.59962733333265,
          "velocity": 0.47244094488188976,
          "duration": 0.18874968541666703
        },
        {
          "name": "C5",
          "midi": 72,
          "time": 226.79962199999932,
          "velocity": 0.5905511811023622,
          "duration": 0.28374952708335854
        },
        {
          "name": "D5",
          "midi": 74,
          "time": 227.09962149999933,
          "velocity": 0.5590551181102362,
          "duration": 0.2837495270833301
        },
        {
          "name": "C5",
          "midi": 72,
          "time": 227.3996209999993,
          "velocity": 0.4645669291338583,
          "duration": 0.2837495270833301
        },
        {
          "name": "D5",
          "midi": 74,
          "time": 227.6996204999993,
          "velocity": 0.5196850393700787,
          "duration": 0.2837495270833301
        },
        {
          "name": "C5",
          "midi": 72,
          "time": 227.99961999999928,
          "velocity": 0.33070866141732286,
          "duration": 0.2837495270833301
        },
        {
          "name": "D5",
          "midi": 74,
          "time": 228.29961949999927,
          "velocity": 0.3937007874015748,
          "duration": 0.2837495270833301
        },
        {
          "name": "B4",
          "midi": 71,
          "time": 228.59961899999925,
          "velocity": 0.7480314960629921,
          "duration": 0.2837495270833301
        },
        {
          "name": "C5",
          "midi": 72,
          "time": 228.89961849999924,
          "velocity": 0.48031496062992124,
          "duration": 0.2837495270833301
        },
        {
          "name": "B4",
          "midi": 71,
          "time": 229.19961799999922,
          "velocity": 0.4645669291338583,
          "duration": 0.2837495270833301
        },
        {
          "name": "C5",
          "midi": 72,
          "time": 229.4996174999992,
          "velocity": 0.4094488188976378,
          "duration": 0.2837495270833301
        },
        {
          "name": "B4",
          "midi": 71,
          "time": 229.7996169999992,
          "velocity": 0.5039370078740157,
          "duration": 0.2837495270833301
        },
        {
          "name": "C5",
          "midi": 72,
          "time": 230.09961649999917,
          "velocity": 0.6220472440944882,
          "duration": 0.2837495270833301
        },
        {
          "name": "G#4",
          "midi": 68,
          "time": 230.39961599999916,
          "velocity": 0.5984251968503937,
          "duration": 0.2837495270833301
        },
        {
          "name": "A4",
          "midi": 69,
          "time": 230.69961549999914,
          "velocity": 0.6299212598425197,
          "duration": 0.2837495270833301
        },
        {
          "name": "G#4",
          "midi": 68,
          "time": 230.99961499999912,
          "velocity": 0.36220472440944884,
          "duration": 0.2837495270833301
        },
        {
          "name": "A4",
          "midi": 69,
          "time": 231.2996144999991,
          "velocity": 0.48031496062992124,
          "duration": 0.2837495270833301
        },
        {
          "name": "G#4",
          "midi": 68,
          "time": 231.5996139999991,
          "velocity": 0.4566929133858268,
          "duration": 0.2837495270833301
        },
        {
          "name": "A4",
          "midi": 69,
          "time": 231.89961349999908,
          "velocity": 0.5275590551181102,
          "duration": 0.2837495270833301
        },
        {
          "name": "G#4",
          "midi": 68,
          "time": 232.19961299999906,
          "velocity": 0.44881889763779526,
          "duration": 0.2837495270833301
        },
        {
          "name": "B4",
          "midi": 71,
          "time": 232.19961299999906,
          "velocity": 0.6692913385826772,
          "duration": 0.2837495270833301
        },
        {
          "name": "F4",
          "midi": 65,
          "time": 232.49961249999905,
          "velocity": 0.4251968503937008,
          "duration": 0.2837495270833301
        },
        {
          "name": "D#4",
          "midi": 63,
          "time": 232.79961199999903,
          "velocity": 0.47244094488188976,
          "duration": 0.2837495270833301
        },
        {
          "name": "D4",
          "midi": 62,
          "time": 233.099611499999,
          "velocity": 0.5196850393700787,
          "duration": 0.2837495270833301
        },
        {
          "name": "D#4",
          "midi": 63,
          "time": 233.399610999999,
          "velocity": 0.5511811023622047,
          "duration": 0.2837495270833301
        },
        {
          "name": "F4",
          "midi": 65,
          "time": 233.69961049999898,
          "velocity": 0.5905511811023622,
          "duration": 0.2837495270833301
        },
        {
          "name": "G#4",
          "midi": 68,
          "time": 233.99960999999897,
          "velocity": 0.7244094488188977,
          "duration": 0.2837495270833301
        },
        {
          "name": "F4",
          "midi": 65,
          "time": 234.29960949999895,
          "velocity": 0.5826771653543307,
          "duration": 0.2837495270833301
        },
        {
          "name": "D#4",
          "midi": 63,
          "time": 234.59960899999894,
          "velocity": 0.5826771653543307,
          "duration": 0.2837495270833301
        },
        {
          "name": "D4",
          "midi": 62,
          "time": 234.89960849999892,
          "velocity": 0.5905511811023622,
          "duration": 0.2837495270833301
        },
        {
          "name": "D#4",
          "midi": 63,
          "time": 235.1996079999989,
          "velocity": 0.5511811023622047,
          "duration": 0.2837495270833301
        },
        {
          "name": "F4",
          "midi": 65,
          "time": 235.4996074999989,
          "velocity": 0.6299212598425197,
          "duration": 0.2837495270833301
        },
        {
          "name": "G#4",
          "midi": 68,
          "time": 235.79960699999887,
          "velocity": 0.5039370078740157,
          "duration": 0.5687490520833194
        },
        {
          "name": "G2",
          "midi": 43,
          "time": 237.59960399999886,
          "velocity": 0.6929133858267716,
          "duration": 0.2837495270833301
        },
        {
          "name": "D3",
          "midi": 50,
          "time": 237.89960349999885,
          "velocity": 0.5275590551181102,
          "duration": 0.2837495270833301
        },
        {
          "name": "F3",
          "midi": 53,
          "time": 238.19960299999883,
          "velocity": 0.7244094488188977,
          "duration": 0.2837495270833301
        },
        {
          "name": "G3",
          "midi": 55,
          "time": 238.49960249999882,
          "velocity": 0.5669291338582677,
          "duration": 0.2837495270833301
        },
        {
          "name": "G#3",
          "midi": 56,
          "time": 238.7996019999988,
          "velocity": 0.5511811023622047,
          "duration": 0.2837495270833301
        },
        {
          "name": "D4",
          "midi": 62,
          "time": 239.09960149999878,
          "velocity": 0.4645669291338583,
          "duration": 0.2837495270833301
        },
        {
          "name": "B3",
          "midi": 59,
          "time": 239.39960099999877,
          "velocity": 0.5039370078740157,
          "duration": 0.2837495270833301
        },
        {
          "name": "C4",
          "midi": 60,
          "time": 239.69960049999875,
          "velocity": 0.4881889763779528,
          "duration": 0.2837495270833301
        },
        {
          "name": "D4",
          "midi": 62,
          "time": 239.99959999999874,
          "velocity": 0.6299212598425197,
          "duration": 0.2837495270833301
        },
        {
          "name": "F4",
          "midi": 65,
          "time": 240.29959949999872,
          "velocity": 0.44881889763779526,
          "duration": 0.2837495270833301
        },
        {
          "name": "G4",
          "midi": 67,
          "time": 240.5995989999987,
          "velocity": 0.3700787401574803,
          "duration": 0.2837495270833301
        },
        {
          "name": "G#4",
          "midi": 68,
          "time": 240.8995984999987,
          "velocity": 0.44881889763779526,
          "duration": 0.2837495270833301
        },
        {
          "name": "F5",
          "midi": 77,
          "time": 241.19959799999867,
          "velocity": 0.3779527559055118,
          "duration": 1.7087471520833333
        },
        {
          "name": "G3",
          "midi": 55,
          "time": 244.79959199999868,
          "velocity": 0.6299212598425197,
          "duration": 0.4487492520833314
        },
        {
          "name": "G#3",
          "midi": 56,
          "time": 244.79959199999868,
          "velocity": 0.7952755905511811,
          "duration": 0.4487492520833314
        },
        {
          "name": "C4",
          "midi": 60,
          "time": 244.79959199999868,
          "velocity": 0.7874015748031497,
          "duration": 0.4487492520833314
        },
        {
          "name": "D#4",
          "midi": 63,
          "time": 244.79959199999868,
          "velocity": 0.8110236220472441,
          "duration": 0.4487492520833314
        },
        {
          "name": "G3",
          "midi": 55,
          "time": 245.6995904999987,
          "velocity": 0.6535433070866141,
          "duration": 0.4487492520833314
        },
        {
          "name": "B3",
          "midi": 59,
          "time": 245.6995904999987,
          "velocity": 0.6456692913385826,
          "duration": 0.4487492520833314
        },
        {
          "name": "D4",
          "midi": 62,
          "time": 245.6995904999987,
          "velocity": 0.7007874015748031,
          "duration": 0.4487492520833314
        },
        {
          "name": "F4",
          "midi": 65,
          "time": 245.6995904999987,
          "velocity": 0.7874015748031497,
          "duration": 0.4487492520833314
        },
        {
          "name": "C4",
          "midi": 60,
          "time": 246.5995889999987,
          "velocity": 0.6771653543307087,
          "duration": 0.8537485770833371
        },
        {
          "name": "D#4",
          "midi": 63,
          "time": 246.5995889999987,
          "velocity": 0.7716535433070866,
          "duration": 0.8537485770833371
        },
        {
          "name": "G4",
          "midi": 67,
          "time": 246.5995889999987,
          "velocity": 0.6141732283464567,
          "duration": 0.8537485770833371
        },
        {
          "name": "F4",
          "midi": 65,
          "time": 248.3995859999987,
          "velocity": 0.7322834645669292,
          "duration": 0.4487492520833314
        },
        {
          "name": "G#4",
          "midi": 68,
          "time": 248.3995859999987,
          "velocity": 0.7401574803149606,
          "duration": 0.4487492520833314
        },
        {
          "name": "C5",
          "midi": 72,
          "time": 248.3995859999987,
          "velocity": 0.8110236220472441,
          "duration": 0.4487492520833314
        },
        {
          "name": "D#5",
          "midi": 75,
          "time": 248.3995859999987,
          "velocity": 0.7874015748031497,
          "duration": 0.4487492520833314
        },
        {
          "name": "A#3",
          "midi": 58,
          "time": 249.2995844999987,
          "velocity": 0.6929133858267716,
          "duration": 0.4487492520833314
        },
        {
          "name": "D4",
          "midi": 62,
          "time": 249.2995844999987,
          "velocity": 0.6850393700787402,
          "duration": 0.4487492520833314
        },
        {
          "name": "F4",
          "midi": 65,
          "time": 249.2995844999987,
          "velocity": 0.5826771653543307,
          "duration": 0.4487492520833314
        },
        {
          "name": "G#4",
          "midi": 68,
          "time": 249.2995844999987,
          "velocity": 0.6220472440944882,
          "duration": 0.4487492520833314
        },
        {
          "name": "A#3",
          "midi": 58,
          "time": 250.1995829999987,
          "velocity": 0.5433070866141733,
          "duration": 0.8537485770833371
        },
        {
          "name": "D4",
          "midi": 62,
          "time": 250.1995829999987,
          "velocity": 0.6062992125984252,
          "duration": 0.8537485770833371
        },
        {
          "name": "G4",
          "midi": 67,
          "time": 250.1995829999987,
          "velocity": 0.7244094488188977,
          "duration": 0.8537485770833371
        },
        {
          "name": "A#4",
          "midi": 70,
          "time": 250.1995829999987,
          "velocity": 0.8976377952755905,
          "duration": 0.8537485770833371
        },
        {
          "name": "A2",
          "midi": 45,
          "time": 251.9995799999987,
          "velocity": 0.7165354330708661,
          "duration": 0.4487492520833314
        },
        {
          "name": "D3",
          "midi": 50,
          "time": 252.8995784999987,
          "velocity": 0.5748031496062992,
          "duration": 0.4487492520833314
        },
        {
          "name": "G2",
          "midi": 43,
          "time": 253.79957699999872,
          "velocity": 0.7559055118110236,
          "duration": 0.4487492520833314
        },
        {
          "name": "F2",
          "midi": 41,
          "time": 254.69957549999873,
          "velocity": 0.7480314960629921,
          "duration": 0.4487492520833314
        },
        {
          "name": "D#2",
          "midi": 39,
          "time": 255.59957399999874,
          "velocity": 0.7165354330708661,
          "duration": 0.4487492520833314
        },
        {
          "name": "D2",
          "midi": 38,
          "time": 256.49957249999875,
          "velocity": 0.6614173228346457,
          "duration": 0.4487492520833598
        },
        {
          "name": "G2",
          "midi": 43,
          "time": 257.3995709999988,
          "velocity": 0.7559055118110236,
          "duration": 0.4487492520833598
        },
        {
          "name": "C4",
          "midi": 60,
          "time": 258.2995694999988,
          "velocity": 0.6771653543307087,
          "duration": 0.14874975208334718
        },
        {
          "name": "C4",
          "midi": 60,
          "time": 258.59956899999884,
          "velocity": 0.7007874015748031,
          "duration": 0.14874975208334718
        },
        {
          "name": "G2",
          "midi": 43,
          "time": 258.89956849999885,
          "velocity": 0.6614173228346457,
          "duration": 0.2837495270833301
        },
        {
          "name": "B3",
          "midi": 59,
          "time": 258.89956849999885,
          "velocity": 0.6220472440944882,
          "duration": 0.2837495270833301
        },
        {
          "name": "F2",
          "midi": 41,
          "time": 259.19956799999886,
          "velocity": 0.8346456692913385,
          "duration": 0.4487492520833598
        },
        {
          "name": "G#3",
          "midi": 56,
          "time": 259.19956799999886,
          "velocity": 0.8031496062992126,
          "duration": 0.4487492520833598
        },
        {
          "name": "G2",
          "midi": 43,
          "time": 260.0995664999989,
          "velocity": 0.7244094488188977,
          "duration": 0.4487492520833598
        },
        {
          "name": "G3",
          "midi": 55,
          "time": 260.0995664999989,
          "velocity": 0.6535433070866141,
          "duration": 0.4487492520833598
        },
        {
          "name": "C3",
          "midi": 48,
          "time": 260.99956499999894,
          "velocity": 0.5039370078740157,
          "duration": 0.8537485770833086
        },
        {
          "name": "G3",
          "midi": 55,
          "time": 260.99956499999894,
          "velocity": 0.7952755905511811,
          "duration": 0.8537485770833086
        },
        {
          "name": "A#3",
          "midi": 58,
          "time": 260.99956499999894,
          "velocity": 0.8031496062992126,
          "duration": 0.8537485770833086
        },
        {
          "name": "F2",
          "midi": 41,
          "time": 262.7995619999989,
          "velocity": 0.5984251968503937,
          "duration": 0.4487492520833598
        },
        {
          "name": "F3",
          "midi": 53,
          "time": 262.7995619999989,
          "velocity": 0.7086614173228346,
          "duration": 0.4487492520833598
        },
        {
          "name": "A#2",
          "midi": 46,
          "time": 263.69956049999894,
          "velocity": 0.6614173228346457,
          "duration": 0.4487492520833598
        },
        {
          "name": "F3",
          "midi": 53,
          "time": 263.69956049999894,
          "velocity": 0.7874015748031497,
          "duration": 0.4487492520833598
        },
        {
          "name": "A#3",
          "midi": 58,
          "time": 263.69956049999894,
          "velocity": 0.7322834645669292,
          "duration": 0.4487492520833598
        },
        {
          "name": "D#2",
          "midi": 39,
          "time": 264.599558999999,
          "velocity": 0.7637795275590551,
          "duration": 0.8537485770833086
        },
        {
          "name": "G4",
          "midi": 67,
          "time": 266.39955599999894,
          "velocity": 0.29133858267716534,
          "duration": 0.4487492520833598
        },
        {
          "name": "A4",
          "midi": 69,
          "time": 266.39955599999894,
          "velocity": 0.3858267716535433,
          "duration": 0.4487492520833598
        },
        {
          "name": "C5",
          "midi": 72,
          "time": 266.39955599999894,
          "velocity": 0.2125984251968504,
          "duration": 0.4487492520833598
        },
        {
          "name": "D#5",
          "midi": 75,
          "time": 266.39955599999894,
          "velocity": 0.3700787401574803,
          "duration": 0.4487492520833598
        },
        {
          "name": "F#4",
          "midi": 66,
          "time": 267.299554499999,
          "velocity": 0.4645669291338583,
          "duration": 0.4487492520833598
        },
        {
          "name": "A4",
          "midi": 69,
          "time": 267.299554499999,
          "velocity": 0.2992125984251969,
          "duration": 0.4487492520833598
        },
        {
          "name": "C5",
          "midi": 72,
          "time": 267.299554499999,
          "velocity": 0.4015748031496063,
          "duration": 0.4487492520833598
        },
        {
          "name": "D5",
          "midi": 74,
          "time": 267.299554499999,
          "velocity": 0.2677165354330709,
          "duration": 0.4487492520833598
        },
        {
          "name": "F#5",
          "midi": 78,
          "time": 267.299554499999,
          "velocity": 0.33070866141732286,
          "duration": 0.4487492520833598
        },
        {
          "name": "G4",
          "midi": 67,
          "time": 268.199552999999,
          "velocity": 0.4330708661417323,
          "duration": 0.4487492520833598
        },
        {
          "name": "A#4",
          "midi": 70,
          "time": 268.199552999999,
          "velocity": 0.3858267716535433,
          "duration": 0.4487492520833598
        },
        {
          "name": "D5",
          "midi": 74,
          "time": 268.199552999999,
          "velocity": 0.4409448818897638,
          "duration": 0.4487492520833598
        },
        {
          "name": "F5",
          "midi": 77,
          "time": 268.199552999999,
          "velocity": 0.3464566929133858,
          "duration": 0.4487492520833598
        },
        {
          "name": "F4",
          "midi": 65,
          "time": 269.09955149999905,
          "velocity": 0.1889763779527559,
          "duration": 0.4487492520833598
        },
        {
          "name": "A#4",
          "midi": 70,
          "time": 269.09955149999905,
          "velocity": 0.4330708661417323,
          "duration": 0.4487492520833598
        },
        {
          "name": "D5",
          "midi": 74,
          "time": 269.09955149999905,
          "velocity": 0.33070866141732286,
          "duration": 0.4487492520833598
        },
        {
          "name": "F5",
          "midi": 77,
          "time": 269.09955149999905,
          "velocity": 0.36220472440944884,
          "duration": 0.4487492520833598
        },
        {
          "name": "D#4",
          "midi": 63,
          "time": 269.9995499999991,
          "velocity": 0.33070866141732286,
          "duration": 0.4487492520833598
        },
        {
          "name": "G4",
          "midi": 67,
          "time": 269.9995499999991,
          "velocity": 0.25196850393700787,
          "duration": 0.4487492520833598
        },
        {
          "name": "A#4",
          "midi": 70,
          "time": 269.9995499999991,
          "velocity": 0.44881889763779526,
          "duration": 0.4487492520833598
        },
        {
          "name": "D5",
          "midi": 74,
          "time": 269.9995499999991,
          "velocity": 0.3543307086614173,
          "duration": 0.4487492520833598
        },
        {
          "name": "D4",
          "midi": 62,
          "time": 270.8995484999991,
          "velocity": 0.2440944881889764,
          "duration": 0.4487492520833598
        },
        {
          "name": "F#4",
          "midi": 66,
          "time": 270.8995484999991,
          "velocity": 0.3779527559055118,
          "duration": 0.4487492520833598
        },
        {
          "name": "A4",
          "midi": 69,
          "time": 270.8995484999991,
          "velocity": 0.33858267716535434,
          "duration": 0.4487492520833598
        },
        {
          "name": "C5",
          "midi": 72,
          "time": 270.8995484999991,
          "velocity": 0.30708661417322836,
          "duration": 0.4487492520833598
        },
        {
          "name": "G2",
          "midi": 43,
          "time": 271.79954699999917,
          "velocity": 0.5669291338582677,
          "duration": 2.8487452520832903
        },
        {
          "name": "G3",
          "midi": 55,
          "time": 271.79954699999917,
          "velocity": 0.47244094488188976,
          "duration": 2.8487452520832903
        },
        {
          "name": "F2",
          "midi": 41,
          "time": 275.39954099999915,
          "velocity": 0.6771653543307087,
          "duration": 0.2837495270833301
        },
        {
          "name": "C3",
          "midi": 48,
          "time": 275.69954049999916,
          "velocity": 0.6377952755905512,
          "duration": 0.2837495270833301
        },
        {
          "name": "F3",
          "midi": 53,
          "time": 275.9995399999992,
          "velocity": 0.6377952755905512,
          "duration": 0.2837495270833301
        },
        {
          "name": "G3",
          "midi": 55,
          "time": 276.2995394999992,
          "velocity": 0.6535433070866141,
          "duration": 0.2837495270833301
        },
        {
          "name": "A#3",
          "midi": 58,
          "time": 276.5995389999992,
          "velocity": 0.6220472440944882,
          "duration": 0.5687490520833194
        },
        {
          "name": "F2",
          "midi": 41,
          "time": 277.19953799999917,
          "velocity": 0.6456692913385826,
          "duration": 1.7087471520833333
        },
        {
          "name": "A#2",
          "midi": 46,
          "time": 278.9995349999992,
          "velocity": 0.5590551181102362,
          "duration": 0.2837495270833301
        },
        {
          "name": "F3",
          "midi": 53,
          "time": 279.2995344999992,
          "velocity": 0.5590551181102362,
          "duration": 0.2837495270833301
        },
        {
          "name": "A#3",
          "midi": 58,
          "time": 279.5995339999992,
          "velocity": 0.4881889763779528,
          "duration": 0.2837495270833301
        },
        {
          "name": "C4",
          "midi": 60,
          "time": 279.8995334999992,
          "velocity": 0.47244094488188976,
          "duration": 0.2837495270833301
        },
        {
          "name": "D4",
          "midi": 62,
          "time": 280.19953299999924,
          "velocity": 0.4094488188976378,
          "duration": 0.5687490520833194
        },
        {
          "name": "A#2",
          "midi": 46,
          "time": 280.7995319999992,
          "velocity": 0.7086614173228346,
          "duration": 0.2837495270833301
        },
        {
          "name": "F3",
          "midi": 53,
          "time": 281.0995314999992,
          "velocity": 0.5748031496062992,
          "duration": 0.2837495270833301
        },
        {
          "name": "A#3",
          "midi": 58,
          "time": 281.39953099999923,
          "velocity": 0.5433070866141733,
          "duration": 0.2837495270833301
        },
        {
          "name": "C4",
          "midi": 60,
          "time": 281.69953049999924,
          "velocity": 0.6062992125984252,
          "duration": 0.2837495270833301
        },
        {
          "name": "A#3",
          "midi": 58,
          "time": 281.99952999999925,
          "velocity": 0.6062992125984252,
          "duration": 0.2837495270833301
        },
        {
          "name": "F3",
          "midi": 53,
          "time": 282.29952949999927,
          "velocity": 0.6850393700787402,
          "duration": 0.2837495270833301
        },
        {
          "name": "F2",
          "midi": 41,
          "time": 282.5995289999993,
          "velocity": 0.5748031496062992,
          "duration": 0.2837495270833301
        },
        {
          "name": "C3",
          "midi": 48,
          "time": 282.8995284999993,
          "velocity": 0.6850393700787402,
          "duration": 0.2837495270833301
        },
        {
          "name": "F3",
          "midi": 53,
          "time": 283.1995279999993,
          "velocity": 0.5669291338582677,
          "duration": 0.2837495270833301
        },
        {
          "name": "A#3",
          "midi": 58,
          "time": 283.4995274999993,
          "velocity": 0.5748031496062992,
          "duration": 0.8537485770833086
        },
        {
          "name": "C4",
          "midi": 60,
          "time": 283.4995274999993,
          "velocity": 0.6456692913385826,
          "duration": 0.8537485770833086
        },
        {
          "name": "D#4",
          "midi": 63,
          "time": 283.4995274999993,
          "velocity": 0.5984251968503937,
          "duration": 0.8537485770833086
        },
        {
          "name": "F2",
          "midi": 41,
          "time": 284.3995259999993,
          "velocity": 0.7716535433070866,
          "duration": 1.7087471520833333
        },
        {
          "name": "A#2",
          "midi": 46,
          "time": 286.1995229999993,
          "velocity": 0.7007874015748031,
          "duration": 0.2837495270833301
        },
        {
          "name": "F3",
          "midi": 53,
          "time": 286.49952249999933,
          "velocity": 0.5669291338582677,
          "duration": 0.2837495270833301
        },
        {
          "name": "A#3",
          "midi": 58,
          "time": 286.79952199999934,
          "velocity": 0.7007874015748031,
          "duration": 0.2837495270833301
        },
        {
          "name": "C4",
          "midi": 60,
          "time": 287.09952149999936,
          "velocity": 0.7165354330708661,
          "duration": 0.2837495270833301
        },
        {
          "name": "A#3",
          "midi": 58,
          "time": 287.39952099999937,
          "velocity": 0.6377952755905512,
          "duration": 0.2837495270833301
        },
        {
          "name": "F3",
          "midi": 53,
          "time": 287.6995204999994,
          "velocity": 0.6692913385826772,
          "duration": 0.2837495270833301
        },
        {
          "name": "A#2",
          "midi": 46,
          "time": 287.9995199999994,
          "velocity": 0.5669291338582677,
          "duration": 0.2837495270833301
        },
        {
          "name": "F3",
          "midi": 53,
          "time": 288.2995194999994,
          "velocity": 0.6299212598425197,
          "duration": 0.2837495270833301
        },
        {
          "name": "A#3",
          "midi": 58,
          "time": 288.5995189999994,
          "velocity": 0.5669291338582677,
          "duration": 0.2837495270833301
        },
        {
          "name": "C4",
          "midi": 60,
          "time": 288.89951849999943,
          "velocity": 0.7007874015748031,
          "duration": 0.2837495270833301
        },
        {
          "name": "A#3",
          "midi": 58,
          "time": 289.19951799999944,
          "velocity": 0.7401574803149606,
          "duration": 0.2837495270833301
        },
        {
          "name": "F3",
          "midi": 53,
          "time": 289.49951749999946,
          "velocity": 0.5118110236220472,
          "duration": 0.2837495270833301
        },
        {
          "name": "D2",
          "midi": 38,
          "time": 289.79951699999947,
          "velocity": 0.7244094488188977,
          "duration": 0.2837495270833301
        },
        {
          "name": "D4",
          "midi": 62,
          "time": 290.0995164999995,
          "velocity": 0.7007874015748031,
          "duration": 0.5687490520833194
        },
        {
          "name": "F4",
          "midi": 65,
          "time": 290.0995164999995,
          "velocity": 0.7401574803149606,
          "duration": 0.5687490520833194
        },
        {
          "name": "C#4",
          "midi": 61,
          "time": 290.69951549999945,
          "velocity": 0.5826771653543307,
          "duration": 0.5687490520833194
        },
        {
          "name": "E4",
          "midi": 64,
          "time": 290.69951549999945,
          "velocity": 0.5118110236220472,
          "duration": 0.5687490520833194
        },
        {
          "name": "D4",
          "midi": 62,
          "time": 291.2995144999994,
          "velocity": 0.5748031496062992,
          "duration": 0.2837495270833301
        },
        {
          "name": "F4",
          "midi": 65,
          "time": 291.2995144999994,
          "velocity": 0.6299212598425197,
          "duration": 0.2837495270833301
        },
        {
          "name": "D2",
          "midi": 38,
          "time": 291.59951399999943,
          "velocity": 0.7716535433070866,
          "duration": 0.2837495270833301
        },
        {
          "name": "F4",
          "midi": 65,
          "time": 291.89951349999944,
          "velocity": 0.6299212598425197,
          "duration": 0.5687490520833194
        },
        {
          "name": "A4",
          "midi": 69,
          "time": 291.89951349999944,
          "velocity": 0.5590551181102362,
          "duration": 0.5687490520833194
        },
        {
          "name": "E4",
          "midi": 64,
          "time": 292.4995124999994,
          "velocity": 0.4645669291338583,
          "duration": 0.5687490520833194
        },
        {
          "name": "G4",
          "midi": 67,
          "time": 292.4995124999994,
          "velocity": 0.7401574803149606,
          "duration": 0.5687490520833194
        },
        {
          "name": "D4",
          "midi": 62,
          "time": 293.0995114999994,
          "velocity": 0.6299212598425197,
          "duration": 0.2837495270833301
        },
        {
          "name": "F4",
          "midi": 65,
          "time": 293.0995114999994,
          "velocity": 0.6299212598425197,
          "duration": 0.2837495270833301
        },
        {
          "name": "A2",
          "midi": 45,
          "time": 293.3995109999994,
          "velocity": 0.6692913385826772,
          "duration": 0.2837495270833301
        },
        {
          "name": "A3",
          "midi": 57,
          "time": 293.6995104999994,
          "velocity": 0.84251968503937,
          "duration": 0.2837495270833301
        },
        {
          "name": "G#3",
          "midi": 56,
          "time": 293.9995099999994,
          "velocity": 0.6535433070866141,
          "duration": 0.2837495270833301
        },
        {
          "name": "A3",
          "midi": 57,
          "time": 294.29950949999943,
          "velocity": 0.6220472440944882,
          "duration": 0.2837495270833301
        },
        {
          "name": "A#3",
          "midi": 58,
          "time": 294.59950899999944,
          "velocity": 0.7874015748031497,
          "duration": 0.2837495270833301
        },
        {
          "name": "A3",
          "midi": 57,
          "time": 294.89950849999946,
          "velocity": 0.7952755905511811,
          "duration": 0.2837495270833301
        },
        {
          "name": "A2",
          "midi": 45,
          "time": 295.19950799999947,
          "velocity": 0.7795275590551181,
          "duration": 0.2837495270833301
        },
        {
          "name": "A3",
          "midi": 57,
          "time": 295.4995074999995,
          "velocity": 0.6614173228346457,
          "duration": 0.2837495270833301
        },
        {
          "name": "A#3",
          "midi": 58,
          "time": 295.7995069999995,
          "velocity": 0.6456692913385826,
          "duration": 0.2837495270833301
        },
        {
          "name": "A3",
          "midi": 57,
          "time": 296.0995064999995,
          "velocity": 0.6377952755905512,
          "duration": 0.2837495270833301
        },
        {
          "name": "G3",
          "midi": 55,
          "time": 296.3995059999995,
          "velocity": 0.7165354330708661,
          "duration": 0.2837495270833301
        },
        {
          "name": "E3",
          "midi": 52,
          "time": 296.69950549999953,
          "velocity": 0.7086614173228346,
          "duration": 0.2837495270833301
        },
        {
          "name": "D2",
          "midi": 38,
          "time": 296.99950499999954,
          "velocity": 0.6850393700787402,
          "duration": 0.2837495270833301
        },
        {
          "name": "D4",
          "midi": 62,
          "time": 297.29950449999956,
          "velocity": 0.5275590551181102,
          "duration": 0.5687490520833194
        },
        {
          "name": "F4",
          "midi": 65,
          "time": 297.29950449999956,
          "velocity": 0.5354330708661418,
          "duration": 0.5687490520833194
        },
        {
          "name": "A3",
          "midi": 57,
          "time": 297.8995034999995,
          "velocity": 0.6456692913385826,
          "duration": 0.5687490520833194
        },
        {
          "name": "D4",
          "midi": 62,
          "time": 297.8995034999995,
          "velocity": 0.6299212598425197,
          "duration": 0.5687490520833194
        },
        {
          "name": "D4",
          "midi": 62,
          "time": 298.4995024999995,
          "velocity": 0.6220472440944882,
          "duration": 0.2837495270833301
        },
        {
          "name": "F4",
          "midi": 65,
          "time": 298.4995024999995,
          "velocity": 0.6692913385826772,
          "duration": 0.2837495270833301
        },
        {
          "name": "D2",
          "midi": 38,
          "time": 298.7995019999995,
          "velocity": 0.7322834645669292,
          "duration": 0.2837495270833301
        },
        {
          "name": "A3",
          "midi": 57,
          "time": 299.0995014999995,
          "velocity": 0.5905511811023622,
          "duration": 0.5687490520833194
        },
        {
          "name": "D4",
          "midi": 62,
          "time": 299.0995014999995,
          "velocity": 0.6299212598425197,
          "duration": 0.5687490520833194
        },
        {
          "name": "E4",
          "midi": 64,
          "time": 299.6995004999995,
          "velocity": 0.4881889763779528,
          "duration": 0.5687490520833194
        },
        {
          "name": "G4",
          "midi": 67,
          "time": 299.6995004999995,
          "velocity": 0.6692913385826772,
          "duration": 0.5687490520833194
        },
        {
          "name": "A3",
          "midi": 57,
          "time": 300.29949949999946,
          "velocity": 0.7165354330708661,
          "duration": 0.2837495270833301
        },
        {
          "name": "D4",
          "midi": 62,
          "time": 300.29949949999946,
          "velocity": 0.5984251968503937,
          "duration": 0.2837495270833301
        },
        {
          "name": "A2",
          "midi": 45,
          "time": 300.59949899999947,
          "velocity": 0.8267716535433071,
          "duration": 0.2837495270833301
        },
        {
          "name": "A3",
          "midi": 57,
          "time": 300.8994984999995,
          "velocity": 0.8031496062992126,
          "duration": 0.2837495270833301
        },
        {
          "name": "A#3",
          "midi": 58,
          "time": 301.1994979999995,
          "velocity": 0.7637795275590551,
          "duration": 0.2837495270833301
        },
        {
          "name": "C4",
          "midi": 60,
          "time": 301.4994974999995,
          "velocity": 0.5669291338582677,
          "duration": 0.2837495270833301
        },
        {
          "name": "A#3",
          "midi": 58,
          "time": 301.7994969999995,
          "velocity": 0.7244094488188977,
          "duration": 0.2837495270833301
        },
        {
          "name": "A3",
          "midi": 57,
          "time": 302.09949649999953,
          "velocity": 0.8267716535433071,
          "duration": 0.2837495270833301
        },
        {
          "name": "A2",
          "midi": 45,
          "time": 302.39949599999954,
          "velocity": 0.6535433070866141,
          "duration": 1.7087471520833333
        },
        {
          "name": "D2",
          "midi": 38,
          "time": 304.19949299999956,
          "velocity": 0.5669291338582677,
          "duration": 0.5687490520833194
        },
        {
          "name": "A3",
          "midi": 57,
          "time": 304.79949199999953,
          "velocity": 0.5196850393700787,
          "duration": 0.5687490520833194
        },
        {
          "name": "C4",
          "midi": 60,
          "time": 304.79949199999953,
          "velocity": 0.6062992125984252,
          "duration": 0.5687490520833194
        },
        {
          "name": "D#4",
          "midi": 63,
          "time": 304.79949199999953,
          "velocity": 0.49606299212598426,
          "duration": 0.5687490520833194
        },
        {
          "name": "A3",
          "midi": 57,
          "time": 305.3994909999995,
          "velocity": 0.5984251968503937,
          "duration": 0.5687490520833194
        },
        {
          "name": "C4",
          "midi": 60,
          "time": 305.3994909999995,
          "velocity": 0.6771653543307087,
          "duration": 0.5687490520833194
        },
        {
          "name": "D4",
          "midi": 62,
          "time": 305.3994909999995,
          "velocity": 0.5196850393700787,
          "duration": 0.5687490520833194
        },
        {
          "name": "D2",
          "midi": 38,
          "time": 305.99948999999947,
          "velocity": 0.8346456692913385,
          "duration": 0.5687490520833194
        },
        {
          "name": "A3",
          "midi": 57,
          "time": 306.59948899999944,
          "velocity": 0.6692913385826772,
          "duration": 0.5687490520833194
        },
        {
          "name": "C4",
          "midi": 60,
          "time": 306.59948899999944,
          "velocity": 0.5433070866141733,
          "duration": 0.5687490520833194
        },
        {
          "name": "E4",
          "midi": 64,
          "time": 306.59948899999944,
          "velocity": 0.4645669291338583,
          "duration": 0.5687490520833194
        },
        {
          "name": "A3",
          "midi": 57,
          "time": 307.1994879999994,
          "velocity": 0.3937007874015748,
          "duration": 0.5687490520833194
        },
        {
          "name": "C4",
          "midi": 60,
          "time": 307.1994879999994,
          "velocity": 0.3937007874015748,
          "duration": 0.5687490520833194
        },
        {
          "name": "D4",
          "midi": 62,
          "time": 307.1994879999994,
          "velocity": 0.6535433070866141,
          "duration": 0.5687490520833194
        },
        {
          "name": "G2",
          "midi": 43,
          "time": 307.7994869999994,
          "velocity": 0.6692913385826772,
          "duration": 0.5687490520833194
        },
        {
          "name": "A#3",
          "midi": 58,
          "time": 308.39948599999934,
          "velocity": 0.5196850393700787,
          "duration": 0.5687490520833194
        },
        {
          "name": "D4",
          "midi": 62,
          "time": 308.39948599999934,
          "velocity": 0.48031496062992124,
          "duration": 0.5687490520833194
        },
        {
          "name": "F4",
          "midi": 65,
          "time": 308.39948599999934,
          "velocity": 0.5039370078740157,
          "duration": 0.5687490520833194
        },
        {
          "name": "A#3",
          "midi": 58,
          "time": 308.9994849999993,
          "velocity": 0.48031496062992124,
          "duration": 0.5687490520833194
        },
        {
          "name": "D4",
          "midi": 62,
          "time": 308.9994849999993,
          "velocity": 0.6535433070866141,
          "duration": 0.5687490520833194
        },
        {
          "name": "F4",
          "midi": 65,
          "time": 308.9994849999993,
          "velocity": 0.4881889763779528,
          "duration": 0.5687490520833194
        },
        {
          "name": "G2",
          "midi": 43,
          "time": 309.5994839999993,
          "velocity": 0.7401574803149606,
          "duration": 0.5687490520833194
        },
        {
          "name": "A#3",
          "midi": 58,
          "time": 310.19948299999925,
          "velocity": 0.5826771653543307,
          "duration": 0.5687490520833194
        },
        {
          "name": "D4",
          "midi": 62,
          "time": 310.19948299999925,
          "velocity": 0.5590551181102362,
          "duration": 0.5687490520833194
        },
        {
          "name": "F4",
          "midi": 65,
          "time": 310.19948299999925,
          "velocity": 0.44881889763779526,
          "duration": 0.5687490520833194
        },
        {
          "name": "A#3",
          "midi": 58,
          "time": 310.7994819999992,
          "velocity": 0.44881889763779526,
          "duration": 0.5687490520833194
        },
        {
          "name": "D4",
          "midi": 62,
          "time": 310.7994819999992,
          "velocity": 0.49606299212598426,
          "duration": 0.5687490520833194
        },
        {
          "name": "F4",
          "midi": 65,
          "time": 310.7994819999992,
          "velocity": 0.4409448818897638,
          "duration": 0.5687490520833194
        },
        {
          "name": "C2",
          "midi": 36,
          "time": 311.3994809999992,
          "velocity": 0.49606299212598426,
          "duration": 0.5687490520833194
        },
        {
          "name": "A#3",
          "midi": 58,
          "time": 311.99947999999915,
          "velocity": 0.6299212598425197,
          "duration": 0.5687490520833194
        },
        {
          "name": "C4",
          "midi": 60,
          "time": 311.99947999999915,
          "velocity": 0.7007874015748031,
          "duration": 0.5687490520833194
        },
        {
          "name": "E4",
          "midi": 64,
          "time": 311.99947999999915,
          "velocity": 0.5275590551181102,
          "duration": 0.5687490520833194
        },
        {
          "name": "A#3",
          "midi": 58,
          "time": 312.5994789999991,
          "velocity": 0.5984251968503937,
          "duration": 0.5687490520833194
        },
        {
          "name": "C4",
          "midi": 60,
          "time": 312.5994789999991,
          "velocity": 0.5984251968503937,
          "duration": 0.5687490520833194
        },
        {
          "name": "G4",
          "midi": 67,
          "time": 312.5994789999991,
          "velocity": 0.5669291338582677,
          "duration": 0.5687490520833194
        },
        {
          "name": "C2",
          "midi": 36,
          "time": 313.1994779999991,
          "velocity": 0.6299212598425197,
          "duration": 0.5687490520833194
        },
        {
          "name": "A#3",
          "midi": 58,
          "time": 313.79947699999906,
          "velocity": 0.5275590551181102,
          "duration": 0.5687490520833194
        },
        {
          "name": "C4",
          "midi": 60,
          "time": 313.79947699999906,
          "velocity": 0.5984251968503937,
          "duration": 0.5687490520833194
        },
        {
          "name": "F4",
          "midi": 65,
          "time": 313.79947699999906,
          "velocity": 0.5118110236220472,
          "duration": 0.5687490520833194
        },
        {
          "name": "A#3",
          "midi": 58,
          "time": 314.399475999999,
          "velocity": 0.5669291338582677,
          "duration": 0.5687490520833194
        },
        {
          "name": "C4",
          "midi": 60,
          "time": 314.399475999999,
          "velocity": 0.6692913385826772,
          "duration": 0.5687490520833194
        },
        {
          "name": "E4",
          "midi": 64,
          "time": 314.399475999999,
          "velocity": 0.5905511811023622,
          "duration": 0.5687490520833194
        },
        {
          "name": "F2",
          "midi": 41,
          "time": 314.999474999999,
          "velocity": 0.7086614173228346,
          "duration": 0.5687490520833194
        },
        {
          "name": "A3",
          "midi": 57,
          "time": 315.59947399999896,
          "velocity": 0.6692913385826772,
          "duration": 0.5687490520833194
        },
        {
          "name": "C4",
          "midi": 60,
          "time": 315.59947399999896,
          "velocity": 0.4645669291338583,
          "duration": 0.5687490520833194
        },
        {
          "name": "E4",
          "midi": 64,
          "time": 315.59947399999896,
          "velocity": 0.3779527559055118,
          "duration": 0.5687490520833194
        },
        {
          "name": "A3",
          "midi": 57,
          "time": 316.19947299999893,
          "velocity": 0.6456692913385826,
          "duration": 0.5687490520833194
        },
        {
          "name": "C4",
          "midi": 60,
          "time": 316.19947299999893,
          "velocity": 0.5984251968503937,
          "duration": 0.5687490520833194
        },
        {
          "name": "E4",
          "midi": 64,
          "time": 316.19947299999893,
          "velocity": 0.47244094488188976,
          "duration": 0.5687490520833194
        },
        {
          "name": "F2",
          "midi": 41,
          "time": 316.7994719999989,
          "velocity": 0.6614173228346457,
          "duration": 0.5687490520833194
        },
        {
          "name": "A3",
          "midi": 57,
          "time": 317.39947099999887,
          "velocity": 0.5354330708661418,
          "duration": 0.5687490520833194
        },
        {
          "name": "C4",
          "midi": 60,
          "time": 317.39947099999887,
          "velocity": 0.6299212598425197,
          "duration": 0.5687490520833194
        },
        {
          "name": "G4",
          "midi": 67,
          "time": 317.39947099999887,
          "velocity": 0.7244094488188977,
          "duration": 0.5687490520833194
        },
        {
          "name": "A3",
          "midi": 57,
          "time": 317.99946999999884,
          "velocity": 0.8031496062992126,
          "duration": 0.5687490520833194
        },
        {
          "name": "C4",
          "midi": 60,
          "time": 317.99946999999884,
          "velocity": 0.7086614173228346,
          "duration": 0.5687490520833194
        },
        {
          "name": "F4",
          "midi": 65,
          "time": 317.99946999999884,
          "velocity": 0.7795275590551181,
          "duration": 0.5687490520833194
        },
        {
          "name": "B1",
          "midi": 35,
          "time": 318.5994689999988,
          "velocity": 0.7559055118110236,
          "duration": 0.5687490520833194
        },
        {
          "name": "F#3",
          "midi": 54,
          "time": 319.1994679999988,
          "velocity": 0.6141732283464567,
          "duration": 0.5687490520833194
        },
        {
          "name": "B3",
          "midi": 59,
          "time": 319.1994679999988,
          "velocity": 0.8267716535433071,
          "duration": 0.5687490520833194
        },
        {
          "name": "E4",
          "midi": 64,
          "time": 319.1994679999988,
          "velocity": 0.7086614173228346,
          "duration": 0.5687490520833194
        },
        {
          "name": "F#3",
          "midi": 54,
          "time": 319.79946699999874,
          "velocity": 0.8188976377952756,
          "duration": 0.5687490520833194
        },
        {
          "name": "B3",
          "midi": 59,
          "time": 319.79946699999874,
          "velocity": 0.5826771653543307,
          "duration": 0.5687490520833194
        },
        {
          "name": "D#4",
          "midi": 63,
          "time": 319.79946699999874,
          "velocity": 0.5590551181102362,
          "duration": 0.5687490520833194
        },
        {
          "name": "E2",
          "midi": 40,
          "time": 320.3994659999987,
          "velocity": 0.7716535433070866,
          "duration": 0.5687490520833194
        },
        {
          "name": "G#3",
          "midi": 56,
          "time": 320.9994649999987,
          "velocity": 0.7322834645669292,
          "duration": 0.5687490520833194
        },
        {
          "name": "B3",
          "midi": 59,
          "time": 320.9994649999987,
          "velocity": 0.48031496062992124,
          "duration": 0.5687490520833194
        },
        {
          "name": "F4",
          "midi": 65,
          "time": 320.9994649999987,
          "velocity": 0.6614173228346457,
          "duration": 0.5687490520833194
        },
        {
          "name": "G#3",
          "midi": 56,
          "time": 321.59946399999865,
          "velocity": 0.8110236220472441,
          "duration": 0.5687490520833194
        },
        {
          "name": "B3",
          "midi": 59,
          "time": 321.59946399999865,
          "velocity": 0.5669291338582677,
          "duration": 0.5687490520833194
        },
        {
          "name": "E4",
          "midi": 64,
          "time": 321.59946399999865,
          "velocity": 0.6299212598425197,
          "duration": 0.5687490520833194
        },
        {
          "name": "A1",
          "midi": 33,
          "time": 322.1994629999986,
          "velocity": 0.8346456692913385,
          "duration": 0.5687490520833194
        },
        {
          "name": "G3",
          "midi": 55,
          "time": 322.7994619999986,
          "velocity": 0.6377952755905512,
          "duration": 0.5687490520833194
        },
        {
          "name": "A3",
          "midi": 57,
          "time": 322.7994619999986,
          "velocity": 0.7244094488188977,
          "duration": 0.5687490520833194
        },
        {
          "name": "C#4",
          "midi": 61,
          "time": 322.7994619999986,
          "velocity": 0.5590551181102362,
          "duration": 0.5687490520833194
        },
        {
          "name": "E4",
          "midi": 64,
          "time": 322.7994619999986,
          "velocity": 0.5984251968503937,
          "duration": 0.5687490520833194
        },
        {
          "name": "G3",
          "midi": 55,
          "time": 323.39946099999855,
          "velocity": 0.7244094488188977,
          "duration": 0.5687490520833194
        },
        {
          "name": "A3",
          "midi": 57,
          "time": 323.39946099999855,
          "velocity": 0.5354330708661418,
          "duration": 0.5687490520833194
        },
        {
          "name": "C#4",
          "midi": 61,
          "time": 323.39946099999855,
          "velocity": 0.8110236220472441,
          "duration": 0.5687490520833194
        },
        {
          "name": "E4",
          "midi": 64,
          "time": 323.39946099999855,
          "velocity": 0.7637795275590551,
          "duration": 0.5687490520833194
        },
        {
          "name": "A1",
          "midi": 33,
          "time": 323.9994599999985,
          "velocity": 0.7086614173228346,
          "duration": 0.5687490520833194
        },
        {
          "name": "G3",
          "midi": 55,
          "time": 324.5994589999985,
          "velocity": 0.6771653543307087,
          "duration": 0.5687490520833194
        },
        {
          "name": "C#4",
          "midi": 61,
          "time": 324.5994589999985,
          "velocity": 0.7480314960629921,
          "duration": 0.5687490520833194
        },
        {
          "name": "E4",
          "midi": 64,
          "time": 324.5994589999985,
          "velocity": 0.7795275590551181,
          "duration": 0.5687490520833194
        },
        {
          "name": "G3",
          "midi": 55,
          "time": 325.19945799999846,
          "velocity": 0.8188976377952756,
          "duration": 0.5687490520833194
        },
        {
          "name": "C#4",
          "midi": 61,
          "time": 325.19945799999846,
          "velocity": 0.5984251968503937,
          "duration": 0.5687490520833194
        },
        {
          "name": "E4",
          "midi": 64,
          "time": 325.19945799999846,
          "velocity": 0.6377952755905512,
          "duration": 0.5687490520833194
        },
        {
          "name": "C2",
          "midi": 36,
          "time": 325.7994569999984,
          "velocity": 0.8031496062992126,
          "duration": 0.5687490520833194
        },
        {
          "name": "G3",
          "midi": 55,
          "time": 326.3994559999984,
          "velocity": 0.5669291338582677,
          "duration": 0.5687490520833194
        },
        {
          "name": "C4",
          "midi": 60,
          "time": 326.3994559999984,
          "velocity": 0.6771653543307087,
          "duration": 0.5687490520833194
        },
        {
          "name": "D#4",
          "midi": 63,
          "time": 326.3994559999984,
          "velocity": 0.6456692913385826,
          "duration": 0.5687490520833194
        },
        {
          "name": "G3",
          "midi": 55,
          "time": 326.99945499999836,
          "velocity": 0.5984251968503937,
          "duration": 0.5687490520833194
        },
        {
          "name": "C4",
          "midi": 60,
          "time": 326.99945499999836,
          "velocity": 0.6535433070866141,
          "duration": 0.5687490520833194
        },
        {
          "name": "D4",
          "midi": 62,
          "time": 326.99945499999836,
          "velocity": 0.5433070866141733,
          "duration": 0.5687490520833194
        },
        {
          "name": "C2",
          "midi": 36,
          "time": 327.59945399999833,
          "velocity": 0.8110236220472441,
          "duration": 0.5687490520833194
        },
        {
          "name": "G3",
          "midi": 55,
          "time": 328.1994529999983,
          "velocity": 0.6220472440944882,
          "duration": 0.5687490520833194
        },
        {
          "name": "C4",
          "midi": 60,
          "time": 328.1994529999983,
          "velocity": 0.6456692913385826,
          "duration": 0.5687490520833194
        },
        {
          "name": "D#4",
          "midi": 63,
          "time": 328.1994529999983,
          "velocity": 0.6692913385826772,
          "duration": 0.5687490520833194
        },
        {
          "name": "G3",
          "midi": 55,
          "time": 328.79945199999827,
          "velocity": 0.6299212598425197,
          "duration": 0.5687490520833194
        },
        {
          "name": "A#3",
          "midi": 58,
          "time": 328.79945199999827,
          "velocity": 0.6299212598425197,
          "duration": 0.5687490520833194
        },
        {
          "name": "D#4",
          "midi": 63,
          "time": 328.79945199999827,
          "velocity": 0.7244094488188977,
          "duration": 0.5687490520833194
        },
        {
          "name": "D2",
          "midi": 38,
          "time": 329.39945099999824,
          "velocity": 0.47244094488188976,
          "duration": 0.5687490520833194
        },
        {
          "name": "A3",
          "midi": 57,
          "time": 329.9994499999982,
          "velocity": 0.5118110236220472,
          "duration": 0.5687490520833194
        },
        {
          "name": "D4",
          "midi": 62,
          "time": 329.9994499999982,
          "velocity": 0.4330708661417323,
          "duration": 0.5687490520833194
        },
        {
          "name": "F#4",
          "midi": 66,
          "time": 329.9994499999982,
          "velocity": 0.4566929133858268,
          "duration": 0.5687490520833194
        },
        {
          "name": "A3",
          "midi": 57,
          "time": 330.5994489999982,
          "velocity": 0.5826771653543307,
          "duration": 0.5687490520833194
        },
        {
          "name": "D4",
          "midi": 62,
          "time": 330.5994489999982,
          "velocity": 0.3779527559055118,
          "duration": 0.5687490520833194
        },
        {
          "name": "F#4",
          "midi": 66,
          "time": 330.5994489999982,
          "velocity": 0.5905511811023622,
          "duration": 0.5687490520833194
        },
        {
          "name": "D2",
          "midi": 38,
          "time": 331.19944799999814,
          "velocity": 0.4881889763779528,
          "duration": 0.5687490520833194
        },
        {
          "name": "A#3",
          "midi": 58,
          "time": 331.7994469999981,
          "velocity": 0.5196850393700787,
          "duration": 0.5687490520833194
        },
        {
          "name": "C4",
          "midi": 60,
          "time": 332.3994459999981,
          "velocity": 0.5590551181102362,
          "duration": 0.5687490520833194
        },
        {
          "name": "D2",
          "midi": 38,
          "time": 332.99944499999805,
          "velocity": 0.30708661417322836,
          "duration": 0.5687490520833194
        },
        {
          "name": "A3",
          "midi": 57,
          "time": 333.599443999998,
          "velocity": 0.5039370078740157,
          "duration": 0.5687490520833194
        },
        {
          "name": "A#3",
          "midi": 58,
          "time": 334.199442999998,
          "velocity": 0.44881889763779526,
          "duration": 0.5687490520833194
        },
        {
          "name": "D2",
          "midi": 38,
          "time": 334.79944199999795,
          "velocity": 0.41732283464566927,
          "duration": 2.278746202083312
        },
        {
          "name": "D#3",
          "midi": 51,
          "time": 337.19943799999794,
          "velocity": 0.7559055118110236,
          "duration": 0.5687490520833194
        },
        {
          "name": "G#3",
          "midi": 56,
          "time": 337.7994369999979,
          "velocity": 0.7480314960629921,
          "duration": 0.5687490520833194
        },
        {
          "name": "B3",
          "midi": 59,
          "time": 338.3994359999979,
          "velocity": 0.7401574803149606,
          "duration": 0.5687490520833194
        },
        {
          "name": "E1",
          "midi": 28,
          "time": 338.99943499999785,
          "velocity": 0.84251968503937,
          "duration": 1.138748102083298
        },
        {
          "name": "E2",
          "midi": 40,
          "time": 338.99943499999785,
          "velocity": 0.9212598425196851,
          "duration": 1.138748102083298
        },
        {
          "name": "E1",
          "midi": 28,
          "time": 340.1994329999978,
          "velocity": 0.7559055118110236,
          "duration": 0.1387497687500172
        },
        {
          "name": "E2",
          "midi": 40,
          "time": 340.1994329999978,
          "velocity": 0.7559055118110236,
          "duration": 0.1387497687500172
        },
        {
          "name": "E1",
          "midi": 28,
          "time": 340.34818275208113,
          "velocity": 0.7559055118110236,
          "duration": 0.1387497687500172
        },
        {
          "name": "E2",
          "midi": 40,
          "time": 340.34818275208113,
          "velocity": 0.7559055118110236,
          "duration": 0.1387497687500172
        },
        {
          "name": "E1",
          "midi": 28,
          "time": 340.49818250208114,
          "velocity": 0.7559055118110236,
          "duration": 0.1387497687500172
        },
        {
          "name": "E2",
          "midi": 40,
          "time": 340.49818250208114,
          "velocity": 0.7559055118110236,
          "duration": 0.1387497687500172
        },
        {
          "name": "E1",
          "midi": 28,
          "time": 340.6469322541645,
          "velocity": 0.7559055118110236,
          "duration": 0.1387497687500172
        },
        {
          "name": "E2",
          "midi": 40,
          "time": 340.6469322541645,
          "velocity": 0.7559055118110236,
          "duration": 0.1387497687500172
        },
        {
          "name": "E1",
          "midi": 28,
          "time": 340.7969320041645,
          "velocity": 0.7559055118110236,
          "duration": 0.1387497687500172
        },
        {
          "name": "E2",
          "midi": 40,
          "time": 340.7969320041645,
          "velocity": 0.7559055118110236,
          "duration": 0.1387497687500172
        },
        {
          "name": "E1",
          "midi": 28,
          "time": 340.94568175624784,
          "velocity": 0.7559055118110236,
          "duration": 0.1387497687500172
        },
        {
          "name": "E2",
          "midi": 40,
          "time": 340.94568175624784,
          "velocity": 0.7559055118110236,
          "duration": 0.1387497687500172
        },
        {
          "name": "E1",
          "midi": 28,
          "time": 341.09568150624784,
          "velocity": 0.7559055118110236,
          "duration": 0.1387497687500172
        },
        {
          "name": "E2",
          "midi": 40,
          "time": 341.09568150624784,
          "velocity": 0.7559055118110236,
          "duration": 0.1387497687500172
        },
        {
          "name": "E1",
          "midi": 28,
          "time": 341.2444312583312,
          "velocity": 0.7559055118110236,
          "duration": 0.1387497687500172
        },
        {
          "name": "E2",
          "midi": 40,
          "time": 341.2444312583312,
          "velocity": 0.7559055118110236,
          "duration": 0.1387497687500172
        },
        {
          "name": "E1",
          "midi": 28,
          "time": 341.3944310083312,
          "velocity": 0.7559055118110236,
          "duration": 0.1387497687500172
        },
        {
          "name": "E2",
          "midi": 40,
          "time": 341.3944310083312,
          "velocity": 0.7559055118110236,
          "duration": 0.1387497687500172
        },
        {
          "name": "E1",
          "midi": 28,
          "time": 341.54318076041454,
          "velocity": 0.7559055118110236,
          "duration": 0.1387497687500172
        },
        {
          "name": "E2",
          "midi": 40,
          "time": 341.54318076041454,
          "velocity": 0.7559055118110236,
          "duration": 0.1387497687500172
        },
        {
          "name": "E1",
          "midi": 28,
          "time": 341.69318051041455,
          "velocity": 0.7559055118110236,
          "duration": 0.1387497687500172
        },
        {
          "name": "E2",
          "midi": 40,
          "time": 341.69318051041455,
          "velocity": 0.7559055118110236,
          "duration": 0.1387497687500172
        },
        {
          "name": "E1",
          "midi": 28,
          "time": 341.8419302624979,
          "velocity": 0.7559055118110236,
          "duration": 0.1387497687500172
        },
        {
          "name": "E2",
          "midi": 40,
          "time": 341.8419302624979,
          "velocity": 0.7559055118110236,
          "duration": 0.1387497687500172
        },
        {
          "name": "D2",
          "midi": 38,
          "time": 341.9994299999979,
          "velocity": 0.8818897637795275,
          "duration": 0.5687490520833194
        },
        {
          "name": "A3",
          "midi": 57,
          "time": 342.5994289999979,
          "velocity": 0.6614173228346457,
          "duration": 0.5687490520833194
        },
        {
          "name": "C4",
          "midi": 60,
          "time": 342.5994289999979,
          "velocity": 0.5669291338582677,
          "duration": 0.5687490520833194
        },
        {
          "name": "E4",
          "midi": 64,
          "time": 342.5994289999979,
          "velocity": 0.7007874015748031,
          "duration": 0.5687490520833194
        },
        {
          "name": "F4",
          "midi": 65,
          "time": 342.5994289999979,
          "velocity": 0.7244094488188977,
          "duration": 0.5687490520833194
        },
        {
          "name": "A4",
          "midi": 69,
          "time": 342.5994289999979,
          "velocity": 0.6692913385826772,
          "duration": 0.5687490520833194
        },
        {
          "name": "A3",
          "midi": 57,
          "time": 343.19942799999785,
          "velocity": 0.6929133858267716,
          "duration": 0.5687490520833194
        },
        {
          "name": "C4",
          "midi": 60,
          "time": 343.19942799999785,
          "velocity": 0.6456692913385826,
          "duration": 0.5687490520833194
        },
        {
          "name": "E4",
          "midi": 64,
          "time": 343.19942799999785,
          "velocity": 0.6850393700787402,
          "duration": 0.5687490520833194
        },
        {
          "name": "F4",
          "midi": 65,
          "time": 343.19942799999785,
          "velocity": 0.6062992125984252,
          "duration": 0.5687490520833194
        },
        {
          "name": "A4",
          "midi": 69,
          "time": 343.19942799999785,
          "velocity": 0.6220472440944882,
          "duration": 0.5687490520833194
        },
        {
          "name": "E2",
          "midi": 40,
          "time": 343.7994269999978,
          "velocity": 0.8110236220472441,
          "duration": 0.5687490520833194
        },
        {
          "name": "G#3",
          "midi": 56,
          "time": 344.3994259999978,
          "velocity": 0.5826771653543307,
          "duration": 0.5687490520833194
        },
        {
          "name": "D4",
          "midi": 62,
          "time": 344.3994259999978,
          "velocity": 0.5669291338582677,
          "duration": 0.5687490520833194
        },
        {
          "name": "F4",
          "midi": 65,
          "time": 344.3994259999978,
          "velocity": 0.6692913385826772,
          "duration": 0.5687490520833194
        },
        {
          "name": "G#4",
          "midi": 68,
          "time": 344.3994259999978,
          "velocity": 0.5905511811023622,
          "duration": 0.5687490520833194
        },
        {
          "name": "G#3",
          "midi": 56,
          "time": 344.99942499999776,
          "velocity": 0.7244094488188977,
          "duration": 0.5687490520833194
        },
        {
          "name": "D4",
          "midi": 62,
          "time": 344.99942499999776,
          "velocity": 0.6299212598425197,
          "duration": 0.5687490520833194
        },
        {
          "name": "F4",
          "midi": 65,
          "time": 344.99942499999776,
          "velocity": 0.6141732283464567,
          "duration": 0.5687490520833194
        },
        {
          "name": "G#4",
          "midi": 68,
          "time": 344.99942499999776,
          "velocity": 0.5590551181102362,
          "duration": 0.5687490520833194
        },
        {
          "name": "A2",
          "midi": 45,
          "time": 345.5994239999977,
          "velocity": 0.6771653543307087,
          "duration": 0.5687490520833194
        },
        {
          "name": "A3",
          "midi": 57,
          "time": 346.1994229999977,
          "velocity": 0.6692913385826772,
          "duration": 0.5687490520833194
        },
        {
          "name": "C4",
          "midi": 60,
          "time": 346.1994229999977,
          "velocity": 0.6850393700787402,
          "duration": 0.5687490520833194
        },
        {
          "name": "E4",
          "midi": 64,
          "time": 346.1994229999977,
          "velocity": 0.5905511811023622,
          "duration": 0.5687490520833194
        },
        {
          "name": "G4",
          "midi": 67,
          "time": 346.1994229999977,
          "velocity": 0.6850393700787402,
          "duration": 0.5687490520833194
        },
        {
          "name": "A3",
          "midi": 57,
          "time": 346.79942199999766,
          "velocity": 0.5984251968503937,
          "duration": 0.5687490520833194
        },
        {
          "name": "C4",
          "midi": 60,
          "time": 346.79942199999766,
          "velocity": 0.6377952755905512,
          "duration": 0.5687490520833194
        },
        {
          "name": "E4",
          "midi": 64,
          "time": 346.79942199999766,
          "velocity": 0.6850393700787402,
          "duration": 0.5687490520833194
        },
        {
          "name": "G4",
          "midi": 67,
          "time": 346.79942199999766,
          "velocity": 0.6929133858267716,
          "duration": 0.5687490520833194
        },
        {
          "name": "A2",
          "midi": 45,
          "time": 347.39942099999763,
          "velocity": 0.6299212598425197,
          "duration": 0.5687490520833194
        },
        {
          "name": "A3",
          "midi": 57,
          "time": 347.9994199999976,
          "velocity": 0.6220472440944882,
          "duration": 0.5687490520833194
        },
        {
          "name": "C4",
          "midi": 60,
          "time": 347.9994199999976,
          "velocity": 0.6141732283464567,
          "duration": 0.5687490520833194
        },
        {
          "name": "E4",
          "midi": 64,
          "time": 347.9994199999976,
          "velocity": 0.6141732283464567,
          "duration": 0.5687490520833194
        },
        {
          "name": "G4",
          "midi": 67,
          "time": 347.9994199999976,
          "velocity": 0.5354330708661418,
          "duration": 0.5687490520833194
        },
        {
          "name": "A3",
          "midi": 57,
          "time": 348.59941899999757,
          "velocity": 0.6614173228346457,
          "duration": 0.5687490520833194
        },
        {
          "name": "C4",
          "midi": 60,
          "time": 348.59941899999757,
          "velocity": 0.5826771653543307,
          "duration": 0.5687490520833194
        },
        {
          "name": "E4",
          "midi": 64,
          "time": 348.59941899999757,
          "velocity": 0.6141732283464567,
          "duration": 0.5687490520833194
        },
        {
          "name": "G4",
          "midi": 67,
          "time": 348.59941899999757,
          "velocity": 0.6220472440944882,
          "duration": 0.5687490520833194
        },
        {
          "name": "D2",
          "midi": 38,
          "time": 349.19941799999754,
          "velocity": 0.7480314960629921,
          "duration": 0.5687490520833194
        },
        {
          "name": "C4",
          "midi": 60,
          "time": 349.7994169999975,
          "velocity": 0.6456692913385826,
          "duration": 0.5687490520833194
        },
        {
          "name": "D4",
          "midi": 62,
          "time": 349.7994169999975,
          "velocity": 0.6377952755905512,
          "duration": 0.5687490520833194
        },
        {
          "name": "F4",
          "midi": 65,
          "time": 349.7994169999975,
          "velocity": 0.6692913385826772,
          "duration": 0.5687490520833194
        },
        {
          "name": "A4",
          "midi": 69,
          "time": 349.7994169999975,
          "velocity": 0.7322834645669292,
          "duration": 0.5687490520833194
        },
        {
          "name": "C4",
          "midi": 60,
          "time": 350.3994159999975,
          "velocity": 0.5196850393700787,
          "duration": 0.5687490520833194
        },
        {
          "name": "D4",
          "midi": 62,
          "time": 350.3994159999975,
          "velocity": 0.6535433070866141,
          "duration": 0.5687490520833194
        },
        {
          "name": "F4",
          "midi": 65,
          "time": 350.3994159999975,
          "velocity": 0.5511811023622047,
          "duration": 0.5687490520833194
        },
        {
          "name": "A4",
          "midi": 69,
          "time": 350.3994159999975,
          "velocity": 0.7007874015748031,
          "duration": 0.5687490520833194
        },
        {
          "name": "G2",
          "midi": 43,
          "time": 350.99941499999744,
          "velocity": 0.6535433070866141,
          "duration": 0.5687490520833194
        },
        {
          "name": "B3",
          "midi": 59,
          "time": 351.5994139999974,
          "velocity": 0.6850393700787402,
          "duration": 0.5687490520833194
        },
        {
          "name": "D4",
          "midi": 62,
          "time": 351.5994139999974,
          "velocity": 0.6771653543307087,
          "duration": 0.5687490520833194
        },
        {
          "name": "F4",
          "midi": 65,
          "time": 351.5994139999974,
          "velocity": 0.6850393700787402,
          "duration": 0.5687490520833194
        },
        {
          "name": "G4",
          "midi": 67,
          "time": 351.5994139999974,
          "velocity": 0.6535433070866141,
          "duration": 0.5687490520833194
        },
        {
          "name": "B3",
          "midi": 59,
          "time": 352.1994129999974,
          "velocity": 0.6929133858267716,
          "duration": 0.5687490520833194
        },
        {
          "name": "D4",
          "midi": 62,
          "time": 352.1994129999974,
          "velocity": 0.5196850393700787,
          "duration": 0.5687490520833194
        },
        {
          "name": "F4",
          "midi": 65,
          "time": 352.1994129999974,
          "velocity": 0.7322834645669292,
          "duration": 0.5687490520833194
        },
        {
          "name": "G4",
          "midi": 67,
          "time": 352.1994129999974,
          "velocity": 0.6220472440944882,
          "duration": 0.5687490520833194
        },
        {
          "name": "C2",
          "midi": 36,
          "time": 352.79941199999735,
          "velocity": 0.889763779527559,
          "duration": 0.5687490520833194
        },
        {
          "name": "B3",
          "midi": 59,
          "time": 353.3994109999973,
          "velocity": 0.5433070866141733,
          "duration": 0.5687490520833194
        },
        {
          "name": "E4",
          "midi": 64,
          "time": 353.3994109999973,
          "velocity": 0.6062992125984252,
          "duration": 0.5687490520833194
        },
        {
          "name": "G4",
          "midi": 67,
          "time": 353.3994109999973,
          "velocity": 0.6062992125984252,
          "duration": 0.5687490520833194
        },
        {
          "name": "B3",
          "midi": 59,
          "time": 353.9994099999973,
          "velocity": 0.7401574803149606,
          "duration": 0.5687490520833194
        },
        {
          "name": "E4",
          "midi": 64,
          "time": 353.9994099999973,
          "velocity": 0.5590551181102362,
          "duration": 0.5687490520833194
        },
        {
          "name": "G4",
          "midi": 67,
          "time": 353.9994099999973,
          "velocity": 0.6929133858267716,
          "duration": 0.5687490520833194
        },
        {
          "name": "G2",
          "midi": 43,
          "time": 354.59940899999725,
          "velocity": 0.7401574803149606,
          "duration": 0.5687490520833194
        },
        {
          "name": "B3",
          "midi": 59,
          "time": 355.1994079999972,
          "velocity": 0.6377952755905512,
          "duration": 0.5687490520833194
        },
        {
          "name": "E4",
          "midi": 64,
          "time": 355.1994079999972,
          "velocity": 0.5590551181102362,
          "duration": 0.5687490520833194
        },
        {
          "name": "G4",
          "midi": 67,
          "time": 355.1994079999972,
          "velocity": 0.6771653543307087,
          "duration": 0.5687490520833194
        },
        {
          "name": "B3",
          "midi": 59,
          "time": 355.7994069999972,
          "velocity": 0.48031496062992124,
          "duration": 0.5687490520833194
        },
        {
          "name": "E4",
          "midi": 64,
          "time": 355.7994069999972,
          "velocity": 0.5984251968503937,
          "duration": 0.5687490520833194
        },
        {
          "name": "G4",
          "midi": 67,
          "time": 355.7994069999972,
          "velocity": 0.7637795275590551,
          "duration": 0.5687490520833194
        },
        {
          "name": "F#2",
          "midi": 42,
          "time": 356.39940599999716,
          "velocity": 0.6456692913385826,
          "duration": 0.5687490520833194
        },
        {
          "name": "C4",
          "midi": 60,
          "time": 356.9994049999971,
          "velocity": 0.7007874015748031,
          "duration": 0.5687490520833194
        },
        {
          "name": "E4",
          "midi": 64,
          "time": 356.9994049999971,
          "velocity": 0.6377952755905512,
          "duration": 0.5687490520833194
        },
        {
          "name": "B4",
          "midi": 71,
          "time": 356.9994049999971,
          "velocity": 0.6456692913385826,
          "duration": 0.5687490520833194
        },
        {
          "name": "C4",
          "midi": 60,
          "time": 357.5994039999971,
          "velocity": 0.6929133858267716,
          "duration": 0.5687490520833194
        },
        {
          "name": "E4",
          "midi": 64,
          "time": 357.5994039999971,
          "velocity": 0.4881889763779528,
          "duration": 0.5687490520833194
        },
        {
          "name": "A4",
          "midi": 69,
          "time": 357.5994039999971,
          "velocity": 0.6377952755905512,
          "duration": 0.5687490520833194
        },
        {
          "name": "B2",
          "midi": 47,
          "time": 358.19940299999706,
          "velocity": 0.6220472440944882,
          "duration": 0.5687490520833194
        },
        {
          "name": "C4",
          "midi": 60,
          "time": 358.79940199999703,
          "velocity": 0.5590551181102362,
          "duration": 0.5687490520833194
        },
        {
          "name": "D#4",
          "midi": 63,
          "time": 358.79940199999703,
          "velocity": 0.6535433070866141,
          "duration": 0.5687490520833194
        },
        {
          "name": "A4",
          "midi": 69,
          "time": 358.79940199999703,
          "velocity": 0.7244094488188977,
          "duration": 0.5687490520833194
        },
        {
          "name": "C4",
          "midi": 60,
          "time": 359.399400999997,
          "velocity": 0.5748031496062992,
          "duration": 0.5687490520833194
        },
        {
          "name": "D#4",
          "midi": 63,
          "time": 359.399400999997,
          "velocity": 0.7086614173228346,
          "duration": 0.5687490520833194
        },
        {
          "name": "G4",
          "midi": 67,
          "time": 359.399400999997,
          "velocity": 0.6062992125984252,
          "duration": 0.5687490520833194
        },
        {
          "name": "E2",
          "midi": 40,
          "time": 359.99939999999697,
          "velocity": 0.6929133858267716,
          "duration": 0.5687490520833194
        },
        {
          "name": "B3",
          "midi": 59,
          "time": 360.59939899999694,
          "velocity": 0.6220472440944882,
          "duration": 0.5687490520833194
        },
        {
          "name": "E4",
          "midi": 64,
          "time": 360.59939899999694,
          "velocity": 0.6850393700787402,
          "duration": 0.5687490520833194
        },
        {
          "name": "A4",
          "midi": 69,
          "time": 360.59939899999694,
          "velocity": 0.7637795275590551,
          "duration": 0.5687490520833194
        },
        {
          "name": "B3",
          "midi": 59,
          "time": 361.1993979999969,
          "velocity": 0.5039370078740157,
          "duration": 0.5687490520833194
        },
        {
          "name": "E4",
          "midi": 64,
          "time": 361.1993979999969,
          "velocity": 0.7244094488188977,
          "duration": 0.5687490520833194
        },
        {
          "name": "G4",
          "midi": 67,
          "time": 361.1993979999969,
          "velocity": 0.7244094488188977,
          "duration": 0.5687490520833194
        },
        {
          "name": "D2",
          "midi": 38,
          "time": 361.7993969999969,
          "velocity": 0.8582677165354331,
          "duration": 0.5687490520833194
        },
        {
          "name": "B3",
          "midi": 59,
          "time": 362.39939599999684,
          "velocity": 0.6535433070866141,
          "duration": 0.5687490520833194
        },
        {
          "name": "D4",
          "midi": 62,
          "time": 362.39939599999684,
          "velocity": 0.6062992125984252,
          "duration": 0.5687490520833194
        },
        {
          "name": "F#4",
          "midi": 66,
          "time": 362.39939599999684,
          "velocity": 0.49606299212598426,
          "duration": 0.5687490520833194
        },
        {
          "name": "B3",
          "midi": 59,
          "time": 362.9993949999968,
          "velocity": 0.6929133858267716,
          "duration": 0.5687490520833194
        },
        {
          "name": "D4",
          "midi": 62,
          "time": 362.9993949999968,
          "velocity": 0.7637795275590551,
          "duration": 0.5687490520833194
        },
        {
          "name": "E4",
          "midi": 64,
          "time": 362.9993949999968,
          "velocity": 0.6850393700787402,
          "duration": 0.5687490520833194
        },
        {
          "name": "C2",
          "midi": 36,
          "time": 363.5993939999968,
          "velocity": 0.7244094488188977,
          "duration": 0.5687490520833194
        },
        {
          "name": "G3",
          "midi": 55,
          "time": 364.19939299999675,
          "velocity": 0.6692913385826772,
          "duration": 0.5687490520833194
        },
        {
          "name": "C4",
          "midi": 60,
          "time": 364.19939299999675,
          "velocity": 0.6377952755905512,
          "duration": 0.5687490520833194
        },
        {
          "name": "E4",
          "midi": 64,
          "time": 364.19939299999675,
          "velocity": 0.7322834645669292,
          "duration": 0.5687490520833194
        },
        {
          "name": "G3",
          "midi": 55,
          "time": 364.7993919999967,
          "velocity": 0.6062992125984252,
          "duration": 0.5687490520833194
        },
        {
          "name": "B3",
          "midi": 59,
          "time": 364.7993919999967,
          "velocity": 0.5748031496062992,
          "duration": 0.5687490520833194
        },
        {
          "name": "E4",
          "midi": 64,
          "time": 364.7993919999967,
          "velocity": 0.5984251968503937,
          "duration": 0.5687490520833194
        },
        {
          "name": "B1",
          "midi": 35,
          "time": 365.3993909999967,
          "velocity": 0.8188976377952756,
          "duration": 0.5687490520833194
        },
        {
          "name": "A3",
          "midi": 57,
          "time": 365.99938999999665,
          "velocity": 0.5826771653543307,
          "duration": 0.5687490520833194
        },
        {
          "name": "D4",
          "midi": 62,
          "time": 365.99938999999665,
          "velocity": 0.49606299212598426,
          "duration": 0.5687490520833194
        },
        {
          "name": "F#4",
          "midi": 66,
          "time": 365.99938999999665,
          "velocity": 0.7165354330708661,
          "duration": 0.5687490520833194
        },
        {
          "name": "A3",
          "midi": 57,
          "time": 366.5993889999966,
          "velocity": 0.5354330708661418,
          "duration": 0.5687490520833194
        },
        {
          "name": "D4",
          "midi": 62,
          "time": 366.5993889999966,
          "velocity": 0.5826771653543307,
          "duration": 0.5687490520833194
        },
        {
          "name": "F#4",
          "midi": 66,
          "time": 366.5993889999966,
          "velocity": 0.5669291338582677,
          "duration": 0.5687490520833194
        },
        {
          "name": "E2",
          "midi": 40,
          "time": 367.1993879999966,
          "velocity": 0.7559055118110236,
          "duration": 0.5687490520833194
        },
        {
          "name": "B3",
          "midi": 59,
          "time": 367.79938699999656,
          "velocity": 0.6062992125984252,
          "duration": 0.5687490520833194
        },
        {
          "name": "D4",
          "midi": 62,
          "time": 367.79938699999656,
          "velocity": 0.6299212598425197,
          "duration": 0.5687490520833194
        },
        {
          "name": "E4",
          "midi": 64,
          "time": 367.79938699999656,
          "velocity": 0.7086614173228346,
          "duration": 0.5687490520833194
        },
        {
          "name": "A4",
          "midi": 69,
          "time": 367.79938699999656,
          "velocity": 0.6062992125984252,
          "duration": 0.5687490520833194
        },
        {
          "name": "B3",
          "midi": 59,
          "time": 368.3993859999965,
          "velocity": 0.5511811023622047,
          "duration": 0.5687490520833194
        },
        {
          "name": "D4",
          "midi": 62,
          "time": 368.3993859999965,
          "velocity": 0.5669291338582677,
          "duration": 0.5687490520833194
        },
        {
          "name": "E4",
          "midi": 64,
          "time": 368.3993859999965,
          "velocity": 0.7165354330708661,
          "duration": 0.5687490520833194
        },
        {
          "name": "A4",
          "midi": 69,
          "time": 368.3993859999965,
          "velocity": 0.6220472440944882,
          "duration": 0.5687490520833194
        },
        {
          "name": "E2",
          "midi": 40,
          "time": 368.9993849999965,
          "velocity": 0.7007874015748031,
          "duration": 0.5687490520833194
        },
        {
          "name": "E3",
          "midi": 52,
          "time": 368.9993849999965,
          "velocity": 0.5669291338582677,
          "duration": 0.5687490520833194
        },
        {
          "name": "B3",
          "midi": 59,
          "time": 369.59938399999646,
          "velocity": 0.5748031496062992,
          "duration": 0.5687490520833194
        },
        {
          "name": "D4",
          "midi": 62,
          "time": 369.59938399999646,
          "velocity": 0.6850393700787402,
          "duration": 0.5687490520833194
        },
        {
          "name": "A4",
          "midi": 69,
          "time": 369.59938399999646,
          "velocity": 0.6456692913385826,
          "duration": 0.5687490520833194
        },
        {
          "name": "B3",
          "midi": 59,
          "time": 370.19938299999643,
          "velocity": 0.6456692913385826,
          "duration": 0.5687490520833194
        },
        {
          "name": "D4",
          "midi": 62,
          "time": 370.19938299999643,
          "velocity": 0.7086614173228346,
          "duration": 0.5687490520833194
        },
        {
          "name": "G#4",
          "midi": 68,
          "time": 370.19938299999643,
          "velocity": 0.6062992125984252,
          "duration": 0.5687490520833194
        },
        {
          "name": "D2",
          "midi": 38,
          "time": 370.7993819999964,
          "velocity": 0.6535433070866141,
          "duration": 0.5687490520833194
        },
        {
          "name": "A3",
          "midi": 57,
          "time": 371.39938099999637,
          "velocity": 0.7401574803149606,
          "duration": 0.5687490520833194
        },
        {
          "name": "C4",
          "midi": 60,
          "time": 371.39938099999637,
          "velocity": 0.5826771653543307,
          "duration": 0.5687490520833194
        },
        {
          "name": "F4",
          "midi": 65,
          "time": 371.39938099999637,
          "velocity": 0.5275590551181102,
          "duration": 0.5687490520833194
        },
        {
          "name": "A3",
          "midi": 57,
          "time": 371.99937999999634,
          "velocity": 0.5511811023622047,
          "duration": 0.5687490520833194
        },
        {
          "name": "C4",
          "midi": 60,
          "time": 371.99937999999634,
          "velocity": 0.7007874015748031,
          "duration": 0.5687490520833194
        },
        {
          "name": "F4",
          "midi": 65,
          "time": 371.99937999999634,
          "velocity": 0.5826771653543307,
          "duration": 0.5687490520833194
        },
        {
          "name": "E2",
          "midi": 40,
          "time": 372.5993789999963,
          "velocity": 0.8661417322834646,
          "duration": 0.5687490520833194
        },
        {
          "name": "C4",
          "midi": 60,
          "time": 373.1993779999963,
          "velocity": 0.6141732283464567,
          "duration": 0.5687490520833194
        },
        {
          "name": "E4",
          "midi": 64,
          "time": 373.1993779999963,
          "velocity": 0.4881889763779528,
          "duration": 0.5687490520833194
        },
        {
          "name": "G#4",
          "midi": 68,
          "time": 373.1993779999963,
          "velocity": 0.6929133858267716,
          "duration": 0.5687490520833194
        },
        {
          "name": "B3",
          "midi": 59,
          "time": 373.79937699999624,
          "velocity": 0.8031496062992126,
          "duration": 0.5687490520833194
        },
        {
          "name": "E4",
          "midi": 64,
          "time": 373.79937699999624,
          "velocity": 0.6692913385826772,
          "duration": 0.5687490520833194
        },
        {
          "name": "G#4",
          "midi": 68,
          "time": 373.79937699999624,
          "velocity": 0.6377952755905512,
          "duration": 0.5687490520833194
        },
        {
          "name": "A2",
          "midi": 45,
          "time": 374.3993759999962,
          "velocity": 0.7716535433070866,
          "duration": 0.5687490520833194
        },
        {
          "name": "C4",
          "midi": 60,
          "time": 374.9993749999962,
          "velocity": 0.7244094488188977,
          "duration": 0.5687490520833194
        },
        {
          "name": "E4",
          "midi": 64,
          "time": 374.9993749999962,
          "velocity": 0.7165354330708661,
          "duration": 0.5687490520833194
        },
        {
          "name": "G4",
          "midi": 67,
          "time": 374.9993749999962,
          "velocity": 0.6614173228346457,
          "duration": 0.5687490520833194
        },
        {
          "name": "C4",
          "midi": 60,
          "time": 375.59937399999615,
          "velocity": 0.7086614173228346,
          "duration": 0.5687490520833194
        },
        {
          "name": "E4",
          "midi": 64,
          "time": 375.59937399999615,
          "velocity": 0.8110236220472441,
          "duration": 0.5687490520833194
        },
        {
          "name": "G4",
          "midi": 67,
          "time": 375.59937399999615,
          "velocity": 0.6456692913385826,
          "duration": 0.5687490520833194
        },
        {
          "name": "G3",
          "midi": 55,
          "time": 376.1993729999961,
          "velocity": 0.7322834645669292,
          "duration": 0.8537485770833086
        },
        {
          "name": "C4",
          "midi": 60,
          "time": 376.1993729999961,
          "velocity": 0.7007874015748031,
          "duration": 0.8537485770833086
        },
        {
          "name": "E4",
          "midi": 64,
          "time": 376.1993729999961,
          "velocity": 0.7401574803149606,
          "duration": 0.8537485770833086
        },
        {
          "name": "C3",
          "midi": 48,
          "time": 377.0993714999961,
          "velocity": 0.905511811023622,
          "duration": 0.8537485770833086
        },
        {
          "name": "G3",
          "midi": 55,
          "time": 377.0993714999961,
          "velocity": 0.7637795275590551,
          "duration": 0.8537485770833086
        },
        {
          "name": "A#3",
          "midi": 58,
          "time": 377.0993714999961,
          "velocity": 0.7322834645669292,
          "duration": 0.8537485770833086
        },
        {
          "name": "F2",
          "midi": 41,
          "time": 377.9993699999961,
          "velocity": 0.8188976377952756,
          "duration": 0.5687490520833194
        },
        {
          "name": "C4",
          "midi": 60,
          "time": 378.59936899999605,
          "velocity": 0.7401574803149606,
          "duration": 0.5687490520833194
        },
        {
          "name": "E4",
          "midi": 64,
          "time": 378.59936899999605,
          "velocity": 0.7480314960629921,
          "duration": 0.5687490520833194
        },
        {
          "name": "A4",
          "midi": 69,
          "time": 378.59936899999605,
          "velocity": 0.7559055118110236,
          "duration": 0.5687490520833194
        },
        {
          "name": "C4",
          "midi": 60,
          "time": 379.199367999996,
          "velocity": 0.7480314960629921,
          "duration": 0.5687490520833194
        },
        {
          "name": "E4",
          "midi": 64,
          "time": 379.199367999996,
          "velocity": 0.7795275590551181,
          "duration": 0.5687490520833194
        },
        {
          "name": "A4",
          "midi": 69,
          "time": 379.199367999996,
          "velocity": 0.5905511811023622,
          "duration": 0.5687490520833194
        },
        {
          "name": "F2",
          "midi": 41,
          "time": 379.799366999996,
          "velocity": 0.8346456692913385,
          "duration": 0.5687490520833194
        },
        {
          "name": "B3",
          "midi": 59,
          "time": 380.39936599999595,
          "velocity": 0.5905511811023622,
          "duration": 0.5687490520833194
        },
        {
          "name": "D4",
          "midi": 62,
          "time": 380.39936599999595,
          "velocity": 0.7165354330708661,
          "duration": 0.5687490520833194
        },
        {
          "name": "G4",
          "midi": 67,
          "time": 380.39936599999595,
          "velocity": 0.6299212598425197,
          "duration": 0.5687490520833194
        },
        {
          "name": "B3",
          "midi": 59,
          "time": 380.9993649999959,
          "velocity": 0.5433070866141733,
          "duration": 0.5687490520833194
        },
        {
          "name": "D4",
          "midi": 62,
          "time": 380.9993649999959,
          "velocity": 0.7795275590551181,
          "duration": 0.5687490520833194
        },
        {
          "name": "G4",
          "midi": 67,
          "time": 380.9993649999959,
          "velocity": 0.7559055118110236,
          "duration": 0.5687490520833194
        },
        {
          "name": "E2",
          "midi": 40,
          "time": 381.5993639999959,
          "velocity": 0.7559055118110236,
          "duration": 0.5687490520833194
        },
        {
          "name": "B3",
          "midi": 59,
          "time": 382.19936299999586,
          "velocity": 0.7716535433070866,
          "duration": 0.5687490520833194
        },
        {
          "name": "D4",
          "midi": 62,
          "time": 382.19936299999586,
          "velocity": 0.7559055118110236,
          "duration": 0.5687490520833194
        },
        {
          "name": "G4",
          "midi": 67,
          "time": 382.19936299999586,
          "velocity": 0.5984251968503937,
          "duration": 0.5687490520833194
        },
        {
          "name": "B3",
          "midi": 59,
          "time": 382.7993619999958,
          "velocity": 0.6299212598425197,
          "duration": 0.5687490520833194
        },
        {
          "name": "D4",
          "midi": 62,
          "time": 382.7993619999958,
          "velocity": 0.5826771653543307,
          "duration": 0.5687490520833194
        },
        {
          "name": "G4",
          "midi": 67,
          "time": 382.7993619999958,
          "velocity": 0.6929133858267716,
          "duration": 0.5687490520833194
        },
        {
          "name": "A2",
          "midi": 45,
          "time": 383.3993609999958,
          "velocity": 0.8267716535433071,
          "duration": 0.5687490520833194
        },
        {
          "name": "C4",
          "midi": 60,
          "time": 383.99935999999576,
          "velocity": 0.6062992125984252,
          "duration": 0.5687490520833194
        },
        {
          "name": "E4",
          "midi": 64,
          "time": 383.99935999999576,
          "velocity": 0.5433070866141733,
          "duration": 0.5687490520833194
        },
        {
          "name": "G4",
          "midi": 67,
          "time": 383.99935999999576,
          "velocity": 0.7007874015748031,
          "duration": 0.5687490520833194
        },
        {
          "name": "A4",
          "midi": 69,
          "time": 383.99935999999576,
          "velocity": 0.8267716535433071,
          "duration": 0.5687490520833194
        },
        {
          "name": "C4",
          "midi": 60,
          "time": 384.59935899999573,
          "velocity": 0.5748031496062992,
          "duration": 0.5687490520833194
        },
        {
          "name": "E4",
          "midi": 64,
          "time": 384.59935899999573,
          "velocity": 0.7637795275590551,
          "duration": 0.5687490520833194
        },
        {
          "name": "G4",
          "midi": 67,
          "time": 384.59935899999573,
          "velocity": 0.7244094488188977,
          "duration": 0.5687490520833194
        },
        {
          "name": "A4",
          "midi": 69,
          "time": 384.59935899999573,
          "velocity": 0.5905511811023622,
          "duration": 0.5687490520833194
        },
        {
          "name": "F#2",
          "midi": 42,
          "time": 385.1993579999957,
          "velocity": 0.7244094488188977,
          "duration": 0.5687490520833194
        },
        {
          "name": "C4",
          "midi": 60,
          "time": 385.79935699999567,
          "velocity": 0.7244094488188977,
          "duration": 0.5687490520833194
        },
        {
          "name": "E4",
          "midi": 64,
          "time": 385.79935699999567,
          "velocity": 0.6456692913385826,
          "duration": 0.5687490520833194
        },
        {
          "name": "G4",
          "midi": 67,
          "time": 385.79935699999567,
          "velocity": 0.7480314960629921,
          "duration": 0.5687490520833194
        },
        {
          "name": "B4",
          "midi": 71,
          "time": 385.79935699999567,
          "velocity": 0.6929133858267716,
          "duration": 0.5687490520833194
        },
        {
          "name": "C4",
          "midi": 60,
          "time": 386.39935599999563,
          "velocity": 0.7637795275590551,
          "duration": 0.5687490520833194
        },
        {
          "name": "E4",
          "midi": 64,
          "time": 386.39935599999563,
          "velocity": 0.7401574803149606,
          "duration": 0.5687490520833194
        },
        {
          "name": "G4",
          "midi": 67,
          "time": 386.39935599999563,
          "velocity": 0.6456692913385826,
          "duration": 0.5687490520833194
        },
        {
          "name": "A4",
          "midi": 69,
          "time": 386.39935599999563,
          "velocity": 0.7007874015748031,
          "duration": 0.5687490520833194
        },
        {
          "name": "B2",
          "midi": 47,
          "time": 386.9993549999956,
          "velocity": 0.7874015748031497,
          "duration": 0.5687490520833194
        },
        {
          "name": "C4",
          "midi": 60,
          "time": 387.59935399999557,
          "velocity": 0.6456692913385826,
          "duration": 0.5687490520833194
        },
        {
          "name": "D#4",
          "midi": 63,
          "time": 387.59935399999557,
          "velocity": 0.6299212598425197,
          "duration": 0.5687490520833194
        },
        {
          "name": "G4",
          "midi": 67,
          "time": 387.59935399999557,
          "velocity": 0.6614173228346457,
          "duration": 0.5687490520833194
        },
        {
          "name": "C4",
          "midi": 60,
          "time": 388.19935299999554,
          "velocity": 0.5748031496062992,
          "duration": 0.5687490520833194
        },
        {
          "name": "D#4",
          "midi": 63,
          "time": 388.19935299999554,
          "velocity": 0.5826771653543307,
          "duration": 0.5687490520833194
        },
        {
          "name": "A4",
          "midi": 69,
          "time": 388.19935299999554,
          "velocity": 0.7637795275590551,
          "duration": 0.5687490520833194
        },
        {
          "name": "E2",
          "midi": 40,
          "time": 388.7993519999955,
          "velocity": 0.8110236220472441,
          "duration": 0.5687490520833194
        },
        {
          "name": "B3",
          "midi": 59,
          "time": 389.3993509999955,
          "velocity": 0.6692913385826772,
          "duration": 0.5687490520833194
        },
        {
          "name": "D4",
          "midi": 62,
          "time": 389.3993509999955,
          "velocity": 0.7716535433070866,
          "duration": 0.5687490520833194
        },
        {
          "name": "E4",
          "midi": 64,
          "time": 389.3993509999955,
          "velocity": 0.7086614173228346,
          "duration": 0.5687490520833194
        },
        {
          "name": "A4",
          "midi": 69,
          "time": 389.3993509999955,
          "velocity": 0.6929133858267716,
          "duration": 0.5687490520833194
        },
        {
          "name": "B3",
          "midi": 59,
          "time": 389.99934999999545,
          "velocity": 0.6377952755905512,
          "duration": 0.5687490520833194
        },
        {
          "name": "D4",
          "midi": 62,
          "time": 389.99934999999545,
          "velocity": 0.6377952755905512,
          "duration": 0.5687490520833194
        },
        {
          "name": "E4",
          "midi": 64,
          "time": 389.99934999999545,
          "velocity": 0.5984251968503937,
          "duration": 0.5687490520833194
        },
        {
          "name": "G4",
          "midi": 67,
          "time": 389.99934999999545,
          "velocity": 0.7007874015748031,
          "duration": 0.5687490520833194
        },
        {
          "name": "D2",
          "midi": 38,
          "time": 390.5993489999954,
          "velocity": 0.7480314960629921,
          "duration": 0.5687490520833194
        },
        {
          "name": "B3",
          "midi": 59,
          "time": 391.1993479999954,
          "velocity": 0.8110236220472441,
          "duration": 0.5687490520833194
        },
        {
          "name": "E4",
          "midi": 64,
          "time": 391.1993479999954,
          "velocity": 0.7559055118110236,
          "duration": 0.5687490520833194
        },
        {
          "name": "G4",
          "midi": 67,
          "time": 391.1993479999954,
          "velocity": 0.5196850393700787,
          "duration": 0.5687490520833194
        },
        {
          "name": "B3",
          "midi": 59,
          "time": 391.79934699999535,
          "velocity": 0.6220472440944882,
          "duration": 0.5687490520833194
        },
        {
          "name": "E4",
          "midi": 64,
          "time": 391.79934699999535,
          "velocity": 0.7322834645669292,
          "duration": 0.5687490520833194
        },
        {
          "name": "G4",
          "midi": 67,
          "time": 391.79934699999535,
          "velocity": 0.7244094488188977,
          "duration": 0.5687490520833194
        },
        {
          "name": "C2",
          "midi": 36,
          "time": 392.3993459999953,
          "velocity": 0.6771653543307087,
          "duration": 0.5687490520833194
        },
        {
          "name": "C4",
          "midi": 60,
          "time": 392.9993449999953,
          "velocity": 0.6771653543307087,
          "duration": 0.5687490520833194
        },
        {
          "name": "E4",
          "midi": 64,
          "time": 392.9993449999953,
          "velocity": 0.6771653543307087,
          "duration": 0.5687490520833194
        },
        {
          "name": "G4",
          "midi": 67,
          "time": 392.9993449999953,
          "velocity": 0.5275590551181102,
          "duration": 0.5687490520833194
        },
        {
          "name": "C4",
          "midi": 60,
          "time": 393.59934399999526,
          "velocity": 0.5984251968503937,
          "duration": 0.5687490520833194
        },
        {
          "name": "E4",
          "midi": 64,
          "time": 393.59934399999526,
          "velocity": 0.7007874015748031,
          "duration": 0.5687490520833194
        },
        {
          "name": "G4",
          "midi": 67,
          "time": 393.59934399999526,
          "velocity": 0.7165354330708661,
          "duration": 0.5687490520833194
        },
        {
          "name": "B1",
          "midi": 35,
          "time": 394.1993429999952,
          "velocity": 0.7874015748031497,
          "duration": 0.5687490520833194
        },
        {
          "name": "B3",
          "midi": 59,
          "time": 394.7993419999952,
          "velocity": 0.5590551181102362,
          "duration": 0.5687490520833194
        },
        {
          "name": "D#4",
          "midi": 63,
          "time": 394.7993419999952,
          "velocity": 0.4881889763779528,
          "duration": 0.5687490520833194
        },
        {
          "name": "F#4",
          "midi": 66,
          "time": 394.7993419999952,
          "velocity": 0.7480314960629921,
          "duration": 0.5687490520833194
        },
        {
          "name": "B3",
          "midi": 59,
          "time": 395.39934099999516,
          "velocity": 0.7559055118110236,
          "duration": 0.5687490520833194
        },
        {
          "name": "D#4",
          "midi": 63,
          "time": 395.39934099999516,
          "velocity": 0.7165354330708661,
          "duration": 0.5687490520833194
        },
        {
          "name": "F#4",
          "midi": 66,
          "time": 395.39934099999516,
          "velocity": 0.6062992125984252,
          "duration": 0.5687490520833194
        },
        {
          "name": "E2",
          "midi": 40,
          "time": 395.99933999999513,
          "velocity": 0.7480314960629921,
          "duration": 0.5687490520833194
        },
        {
          "name": "E3",
          "midi": 52,
          "time": 396.5993389999951,
          "velocity": 0.7007874015748031,
          "duration": 0.5687490520833194
        },
        {
          "name": "G#3",
          "midi": 56,
          "time": 396.5993389999951,
          "velocity": 0.6299212598425197,
          "duration": 0.5687490520833194
        },
        {
          "name": "B3",
          "midi": 59,
          "time": 396.5993389999951,
          "velocity": 0.49606299212598426,
          "duration": 0.5687490520833194
        },
        {
          "name": "E3",
          "midi": 52,
          "time": 397.19933799999507,
          "velocity": 0.7007874015748031,
          "duration": 0.5687490520833194
        },
        {
          "name": "G#3",
          "midi": 56,
          "time": 397.19933799999507,
          "velocity": 0.6771653543307087,
          "duration": 0.5687490520833194
        },
        {
          "name": "B3",
          "midi": 59,
          "time": 397.19933799999507,
          "velocity": 0.6535433070866141,
          "duration": 0.5687490520833194
        },
        {
          "name": "B1",
          "midi": 35,
          "time": 397.79933699999503,
          "velocity": 0.6929133858267716,
          "duration": 0.5687490520833194
        },
        {
          "name": "E3",
          "midi": 52,
          "time": 398.399335999995,
          "velocity": 0.5590551181102362,
          "duration": 0.5687490520833194
        },
        {
          "name": "G#3",
          "midi": 56,
          "time": 398.399335999995,
          "velocity": 0.6220472440944882,
          "duration": 0.5687490520833194
        },
        {
          "name": "B3",
          "midi": 59,
          "time": 398.399335999995,
          "velocity": 0.5826771653543307,
          "duration": 0.5687490520833194
        },
        {
          "name": "E3",
          "midi": 52,
          "time": 398.99933499999497,
          "velocity": 0.6850393700787402,
          "duration": 0.5687490520833194
        },
        {
          "name": "G#3",
          "midi": 56,
          "time": 398.99933499999497,
          "velocity": 0.6141732283464567,
          "duration": 0.5687490520833194
        },
        {
          "name": "B3",
          "midi": 59,
          "time": 398.99933499999497,
          "velocity": 0.49606299212598426,
          "duration": 0.5687490520833194
        },
        {
          "name": "E2",
          "midi": 40,
          "time": 399.59933399999494,
          "velocity": 0.6456692913385826,
          "duration": 0.5687490520833194
        },
        {
          "name": "E3",
          "midi": 52,
          "time": 400.1993329999949,
          "velocity": 0.5511811023622047,
          "duration": 0.5687490520833194
        },
        {
          "name": "G#3",
          "midi": 56,
          "time": 400.1993329999949,
          "velocity": 0.4645669291338583,
          "duration": 0.5687490520833194
        },
        {
          "name": "B3",
          "midi": 59,
          "time": 400.1993329999949,
          "velocity": 0.6220472440944882,
          "duration": 0.5687490520833194
        },
        {
          "name": "E3",
          "midi": 52,
          "time": 400.7993319999949,
          "velocity": 0.4251968503937008,
          "duration": 0.5687490520833194
        },
        {
          "name": "G#3",
          "midi": 56,
          "time": 400.7993319999949,
          "velocity": 0.5826771653543307,
          "duration": 0.5687490520833194
        },
        {
          "name": "B3",
          "midi": 59,
          "time": 400.7993319999949,
          "velocity": 0.5433070866141733,
          "duration": 0.5687490520833194
        },
        {
          "name": "B1",
          "midi": 35,
          "time": 401.39933099999485,
          "velocity": 0.6062992125984252,
          "duration": 0.5687490520833194
        },
        {
          "name": "F#4",
          "midi": 66,
          "time": 401.9993299999948,
          "velocity": 0.7086614173228346,
          "duration": 0.2837495270833301
        },
        {
          "name": "E4",
          "midi": 64,
          "time": 402.2993294999948,
          "velocity": 0.6299212598425197,
          "duration": 0.2837495270833301
        },
        {
          "name": "D#4",
          "midi": 63,
          "time": 402.59932899999484,
          "velocity": 0.5905511811023622,
          "duration": 0.2837495270833301
        },
        {
          "name": "E4",
          "midi": 64,
          "time": 402.89932849999485,
          "velocity": 0.6062992125984252,
          "duration": 0.2837495270833301
        },
        {
          "name": "A1",
          "midi": 33,
          "time": 403.19932799999486,
          "velocity": 0.5826771653543307,
          "duration": 0.5687490520833194
        },
        {
          "name": "E2",
          "midi": 40,
          "time": 403.79932699999483,
          "velocity": 0.7322834645669292,
          "duration": 0.5687490520833194
        },
        {
          "name": "B2",
          "midi": 47,
          "time": 404.3993259999948,
          "velocity": 0.6614173228346457,
          "duration": 0.2837495270833301
        },
        {
          "name": "C3",
          "midi": 48,
          "time": 404.6993254999948,
          "velocity": 0.7322834645669292,
          "duration": 0.2837495270833301
        },
        {
          "name": "B2",
          "midi": 47,
          "time": 404.9993249999948,
          "velocity": 0.6692913385826772,
          "duration": 3.4187443020833257
        },
        {
          "name": "B2",
          "midi": 47,
          "time": 408.5993189999948,
          "velocity": 0.7322834645669292,
          "duration": 0.5687490520833194
        },
        {
          "name": "E1",
          "midi": 28,
          "time": 409.1993179999948,
          "velocity": 0.84251968503937,
          "duration": 0.5687490520833194
        },
        {
          "name": "E3",
          "midi": 52,
          "time": 409.79931699999474,
          "velocity": 0.5433070866141733,
          "duration": 0.5687490520833194
        },
        {
          "name": "G#3",
          "midi": 56,
          "time": 409.79931699999474,
          "velocity": 0.7322834645669292,
          "duration": 0.5687490520833194
        },
        {
          "name": "B3",
          "midi": 59,
          "time": 409.79931699999474,
          "velocity": 0.6141732283464567,
          "duration": 0.5687490520833194
        },
        {
          "name": "E3",
          "midi": 52,
          "time": 410.3993159999947,
          "velocity": 0.7480314960629921,
          "duration": 0.5687490520833194
        },
        {
          "name": "G#3",
          "midi": 56,
          "time": 410.3993159999947,
          "velocity": 0.5590551181102362,
          "duration": 0.5687490520833194
        },
        {
          "name": "B3",
          "midi": 59,
          "time": 410.3993159999947,
          "velocity": 0.6220472440944882,
          "duration": 0.5687490520833194
        },
        {
          "name": "E1",
          "midi": 28,
          "time": 410.9993149999947,
          "velocity": 0.6929133858267716,
          "duration": 0.5687490520833194
        },
        {
          "name": "E3",
          "midi": 52,
          "time": 411.59931399999465,
          "velocity": 0.6535433070866141,
          "duration": 0.5687490520833194
        },
        {
          "name": "G#3",
          "midi": 56,
          "time": 411.59931399999465,
          "velocity": 0.7244094488188977,
          "duration": 0.5687490520833194
        },
        {
          "name": "B3",
          "midi": 59,
          "time": 411.59931399999465,
          "velocity": 0.6771653543307087,
          "duration": 0.5687490520833194
        },
        {
          "name": "E3",
          "midi": 52,
          "time": 412.1993129999946,
          "velocity": 0.6456692913385826,
          "duration": 0.5687490520833194
        },
        {
          "name": "G#3",
          "midi": 56,
          "time": 412.1993129999946,
          "velocity": 0.4645669291338583,
          "duration": 0.5687490520833194
        },
        {
          "name": "B3",
          "midi": 59,
          "time": 412.1993129999946,
          "velocity": 0.6299212598425197,
          "duration": 0.5687490520833194
        },
        {
          "name": "E3",
          "midi": 52,
          "time": 412.7993119999946,
          "velocity": 0.7401574803149606,
          "duration": 0.2987495020833535
        },
        {
          "name": "G#3",
          "midi": 56,
          "time": 412.7993119999946,
          "velocity": 0.7086614173228346,
          "duration": 0.2987495020833535
        },
        {
          "name": "B3",
          "midi": 59,
          "time": 412.7993119999946,
          "velocity": 0.6771653543307087,
          "duration": 0.2987495020833535
        },
        {
          "name": "E3",
          "midi": 52,
          "time": 413.9993099999946,
          "velocity": 0.7165354330708661,
          "duration": 0.2987495020833535
        },
        {
          "name": "A3",
          "midi": 57,
          "time": 413.9993099999946,
          "velocity": 0.7874015748031497,
          "duration": 0.2987495020833535
        },
        {
          "name": "C4",
          "midi": 60,
          "time": 413.9993099999946,
          "velocity": 0.6299212598425197,
          "duration": 0.2987495020833535
        },
        {
          "name": "E3",
          "midi": 52,
          "time": 414.5993089999946,
          "velocity": 0.6614173228346457,
          "duration": 0.2987495020833535
        },
        {
          "name": "G#3",
          "midi": 56,
          "time": 414.5993089999946,
          "velocity": 0.7480314960629921,
          "duration": 0.2987495020833535
        },
        {
          "name": "B3",
          "midi": 59,
          "time": 414.5993089999946,
          "velocity": 0.6456692913385826,
          "duration": 0.2987495020833535
        },
        {
          "name": "E3",
          "midi": 52,
          "time": 415.7993069999946,
          "velocity": 0.7007874015748031,
          "duration": 0.2987495020833535
        },
        {
          "name": "A3",
          "midi": 57,
          "time": 415.7993069999946,
          "velocity": 0.7244094488188977,
          "duration": 0.2987495020833535
        },
        {
          "name": "C4",
          "midi": 60,
          "time": 415.7993069999946,
          "velocity": 0.7874015748031497,
          "duration": 0.2987495020833535
        },
        {
          "name": "G#3",
          "midi": 56,
          "time": 416.3993059999946,
          "velocity": 0.7952755905511811,
          "duration": 0.2987495020833535
        },
        {
          "name": "B3",
          "midi": 59,
          "time": 416.3993059999946,
          "velocity": 0.7401574803149606,
          "duration": 0.2987495020833535
        },
        {
          "name": "E4",
          "midi": 64,
          "time": 416.3993059999946,
          "velocity": 0.6456692913385826,
          "duration": 0.2987495020833535
        },
        {
          "name": "F#3",
          "midi": 54,
          "time": 417.5993039999946,
          "velocity": 0.84251968503937,
          "duration": 0.2987495020833535
        },
        {
          "name": "B3",
          "midi": 59,
          "time": 417.5993039999946,
          "velocity": 0.7559055118110236,
          "duration": 0.2987495020833535
        },
        {
          "name": "D#4",
          "midi": 63,
          "time": 417.5993039999946,
          "velocity": 0.7322834645669292,
          "duration": 0.2987495020833535
        },
        {
          "name": "G#3",
          "midi": 56,
          "time": 418.19930299999464,
          "velocity": 0.7874015748031497,
          "duration": 0.2987495020833535
        },
        {
          "name": "B3",
          "midi": 59,
          "time": 418.19930299999464,
          "velocity": 0.8188976377952756,
          "duration": 0.2987495020833535
        },
        {
          "name": "E4",
          "midi": 64,
          "time": 418.19930299999464,
          "velocity": 0.6141732283464567,
          "duration": 0.2987495020833535
        },
        {
          "name": "E2",
          "midi": 40,
          "time": 419.99929999999466,
          "velocity": 0.6692913385826772,
          "duration": 6.8387386020833105
        },
        {
          "name": "B2",
          "midi": 47,
          "time": 419.99929999999466,
          "velocity": 0.47244094488188976,
          "duration": 6.8387386020833105
        },
        {
          "name": "E3",
          "midi": 52,
          "time": 419.99929999999466,
          "velocity": 0.5590551181102362,
          "duration": 6.8387386020833105
        }
      ]
    }
  ]
}
