{"header":{"title":"One Summer's Day","artist":"Joe Hisaishi","source":"https://musescore.com/torbybrand/scores/1463381","bpm":77.99997660000702,"duration":210.6122426708327},"tracks":[{"instrument_number":0,"notes":[{"name":"G5","midi":79,"time":0,"velocity":0.3228346456692913,"duration":3.075321435416667},{"name":"A5","midi":81,"time":0.10096156875000001,"velocity":0.3228346456692913,"duration":2.9727573020833336},{"name":"E6","midi":88,"time":0.20192313750000002,"velocity":0.3228346456692913,"duration":2.8717957333333333},{"name":"D5","midi":74,"time":3.0769240000000004,"velocity":0.3228346456692913,"duration":3.0753214354166665},{"name":"G5","midi":79,"time":3.1778855687500003,"velocity":0.3228346456692913,"duration":2.9727573020833336},{"name":"C6","midi":84,"time":3.2788471375,"velocity":0.3228346456692913,"duration":2.8717957333333337},{"name":"C5","midi":72,"time":6.153848,"velocity":0.3228346456692913,"duration":1.536859435416666},{"name":"F5","midi":77,"time":6.25480956875,"velocity":0.3228346456692913,"duration":1.4342953020833331},{"name":"A#5","midi":82,"time":6.357373702083333,"velocity":0.3228346456692913,"duration":1.3317311687500002},{"name":"E5","midi":76,"time":7.692309999999999,"velocity":0.3228346456692913,"duration":4.459937235416666},{"name":"A5","midi":81,"time":7.725963856249999,"velocity":0.3228346456692913,"duration":4.424680814583333},{"name":"D6","midi":86,"time":7.759617712499999,"velocity":0.3228346456692913,"duration":4.391026958333333},{"name":"E5","midi":76,"time":15.769235499999999,"velocity":0.3228346456692913,"duration":0.3637821604166671},{"name":"E5","midi":76,"time":16.153851,"velocity":0.3228346456692913,"duration":0.36378216041666533},{"name":"E5","midi":76,"time":16.5384665,"velocity":0.3228346456692913,"duration":0.36378216041666533},{"name":"E5","midi":76,"time":16.923081999999997,"velocity":0.3228346456692913,"duration":0.36378216041666533},{"name":"D5","midi":74,"time":17.307697499999996,"velocity":0.3228346456692913,"duration":0.36378216041666533},{"name":"E5","midi":76,"time":17.692312999999995,"velocity":0.3228346456692913,"duration":0.36378216041666533},{"name":"A5","midi":81,"time":18.076928499999994,"velocity":0.3228346456692913,"duration":0.36378216041666533},{"name":"E5","midi":76,"time":18.461543999999993,"velocity":0.3228346456692913,"duration":0.36378216041666533},{"name":"D5","midi":74,"time":18.84615949999999,"velocity":0.3228346456692913,"duration":0.18108979791666613},{"name":"D5","midi":74,"time":19.038467249999993,"velocity":0.3228346456692913,"duration":2.3733981479166673},{"name":"D5","midi":74,"time":21.923083499999994,"velocity":0.3228346456692913,"duration":0.36378216041666533},{"name":"D5","midi":74,"time":22.307698999999992,"velocity":0.3228346456692913,"duration":0.36378216041666533},{"name":"D5","midi":74,"time":22.69231449999999,"velocity":0.3228346456692913,"duration":0.36378216041666533},{"name":"D5","midi":74,"time":23.07692999999999,"velocity":0.3228346456692913,"duration":0.36378216041666533},{"name":"C5","midi":72,"time":23.46154549999999,"velocity":0.3228346456692913,"duration":0.36378216041666533},{"name":"D5","midi":74,"time":23.846160999999988,"velocity":0.3228346456692913,"duration":0.36378216041666533},{"name":"G5","midi":79,"time":24.230776499999987,"velocity":0.3228346456692913,"duration":0.36378216041666533},{"name":"D5","midi":74,"time":24.615391999999986,"velocity":0.3228346456692913,"duration":0.36378216041666533},{"name":"C5","midi":72,"time":25.000007499999985,"velocity":0.3228346456692913,"duration":0.36378216041666533},{"name":"B4","midi":71,"time":25.384622999999984,"velocity":0.3228346456692913,"duration":0.36378216041666533},{"name":"C5","midi":72,"time":25.769238499999982,"velocity":0.3228346456692913,"duration":1.4599363354166677},{"name":"A4","midi":69,"time":27.307700499999985,"velocity":0.3228346456692913,"duration":0.18108979791666613},{"name":"B4","midi":71,"time":27.500008249999986,"velocity":0.3228346456692913,"duration":0.18108979791666613},{"name":"C5","midi":72,"time":27.692315999999987,"velocity":0.3228346456692913,"duration":0.36378216041666533},{"name":"C5","midi":72,"time":28.076931499999986,"velocity":0.3228346456692913,"duration":0.36378216041666533},{"name":"C5","midi":72,"time":28.461546999999985,"velocity":0.3228346456692913,"duration":0.36378216041666533},{"name":"C5","midi":72,"time":28.846162499999984,"velocity":0.3228346456692913,"duration":0.36378216041666533},{"name":"C5","midi":72,"time":29.230777999999983,"velocity":0.3228346456692913,"duration":1.0945516104166657},{"name":"A4","midi":69,"time":30.384624499999983,"velocity":0.3228346456692913,"duration":0.18108979791666613},{"name":"B4","midi":71,"time":30.576932249999984,"velocity":0.3228346456692913,"duration":0.18108979791666613},{"name":"C5","midi":72,"time":30.769239999999986,"velocity":0.3228346456692913,"duration":0.36378216041666533},{"name":"C5","midi":72,"time":31.153855499999985,"velocity":0.3228346456692913,"duration":0.36378216041666533},{"name":"C5","midi":72,"time":31.538470999999983,"velocity":0.3228346456692913,"duration":0.36378216041666533},{"name":"C5","midi":72,"time":31.923086499999982,"velocity":0.3228346456692913,"duration":0.3637821604166689},{"name":"B4","midi":71,"time":32.307701999999985,"velocity":0.3228346456692913,"duration":0.3637821604166689},{"name":"C5","midi":72,"time":32.69231749999999,"velocity":0.3228346456692913,"duration":0.7291668854166673},{"name":"A4","midi":69,"time":33.461548499999985,"velocity":0.3228346456692913,"duration":0.18108979791666968},{"name":"B4","midi":71,"time":33.65385624999999,"velocity":0.3228346456692913,"duration":0.18108979791666968},{"name":"C5","midi":72,"time":33.846163999999995,"velocity":0.3228346456692913,"duration":0.3637821604166689},{"name":"C5","midi":72,"time":34.2307795,"velocity":0.3228346456692913,"duration":0.3637821604166689},{"name":"C5","midi":72,"time":34.615395,"velocity":0.3228346456692913,"duration":0.3637821604166689},{"name":"C5","midi":72,"time":35.0000105,"velocity":0.3228346456692913,"duration":0.3637821604166689},{"name":"C5","midi":72,"time":35.384626000000004,"velocity":0.3228346456692913,"duration":0.3637821604166689},{"name":"G5","midi":79,"time":35.76924150000001,"velocity":0.3228346456692913,"duration":0.7291668854166673},{"name":"C5","midi":72,"time":36.538472500000005,"velocity":0.3228346456692913,"duration":0.3637821604166689},{"name":"D5","midi":74,"time":36.92308800000001,"velocity":0.3228346456692913,"duration":2.921475235416665},{"name":"E5","midi":76,"time":40.38462750000001,"velocity":0.3937007874015748,"duration":0.3637821604166689},{"name":"E5","midi":76,"time":40.76924300000001,"velocity":0.3937007874015748,"duration":0.3637821604166689},{"name":"E5","midi":76,"time":41.15385850000001,"velocity":0.3937007874015748,"duration":0.3637821604166689},{"name":"E5","midi":76,"time":41.538474000000015,"velocity":0.3937007874015748,"duration":0.3637821604166689},{"name":"D5","midi":74,"time":41.92308950000002,"velocity":0.3937007874015748,"duration":0.3637821604166689},{"name":"E5","midi":76,"time":42.30770500000002,"velocity":0.3937007874015748,"duration":0.3637821604166689},{"name":"A5","midi":81,"time":42.69232050000002,"velocity":0.3937007874015748,"duration":0.3637821604166689},{"name":"E5","midi":76,"time":43.076936000000025,"velocity":0.3937007874015748,"duration":0.3637821604166689},{"name":"D5","midi":74,"time":43.46155150000003,"velocity":0.3937007874015748,"duration":0.18108979791666968},{"name":"D5","midi":74,"time":43.65385925000003,"velocity":0.3937007874015748,"duration":2.3733981479166673},{"name":"D5","midi":74,"time":46.53847550000003,"velocity":0.3937007874015748,"duration":0.3637821604166689},{"name":"D5","midi":74,"time":46.923091000000035,"velocity":0.3937007874015748,"duration":0.3637821604166689},{"name":"D5","midi":74,"time":47.30770650000004,"velocity":0.3937007874015748,"duration":0.3637821604166689},{"name":"D5","midi":74,"time":47.69232200000004,"velocity":0.3937007874015748,"duration":0.3637821604166689},{"name":"C5","midi":72,"time":48.07693750000004,"velocity":0.3937007874015748,"duration":0.3637821604166689},{"name":"D5","midi":74,"time":48.461553000000045,"velocity":0.3937007874015748,"duration":0.3637821604166689},{"name":"G5","midi":79,"time":48.84616850000005,"velocity":0.3937007874015748,"duration":0.3637821604166689},{"name":"D5","midi":74,"time":49.23078400000005,"velocity":0.3937007874015748,"duration":0.3637821604166689},{"name":"C5","midi":72,"time":49.61539950000005,"velocity":0.3937007874015748,"duration":0.3637821604166689},{"name":"B4","midi":71,"time":50.000015000000054,"velocity":0.3937007874015748,"duration":0.3637821604166689},{"name":"C5","midi":72,"time":50.38463050000006,"velocity":0.3937007874015748,"duration":1.4599363354166641},{"name":"A4","midi":69,"time":51.92309250000005,"velocity":0.3937007874015748,"duration":0.18108979791666968},{"name":"B4","midi":71,"time":52.11540025000006,"velocity":0.3937007874015748,"duration":0.18108979791666968},{"name":"C5","midi":72,"time":52.30770800000006,"velocity":0.3937007874015748,"duration":0.3637821604166689},{"name":"C5","midi":72,"time":52.692323500000064,"velocity":0.47244094488188976,"duration":0.3637821604166689},{"name":"C5","midi":72,"time":53.07693900000007,"velocity":0.47244094488188976,"duration":0.3637821604166689},{"name":"C5","midi":72,"time":53.46155450000007,"velocity":0.47244094488188976,"duration":0.3637821604166689},{"name":"C5","midi":72,"time":53.84617000000007,"velocity":0.47244094488188976,"duration":1.0945516104166657},{"name":"A4","midi":69,"time":55.00001650000007,"velocity":0.47244094488188976,"duration":0.18108979791666968},{"name":"B4","midi":71,"time":55.19232425000008,"velocity":0.47244094488188976,"duration":0.18108979791666968},{"name":"C5","midi":72,"time":55.38463200000008,"velocity":0.47244094488188976,"duration":0.3637821604166689},{"name":"C5","midi":72,"time":55.769247500000084,"velocity":0.47244094488188976,"duration":0.3637821604166689},{"name":"C5","midi":72,"time":56.15386300000009,"velocity":0.47244094488188976,"duration":0.3637821604166689},{"name":"C5","midi":72,"time":56.53847850000009,"velocity":0.47244094488188976,"duration":0.3637821604166689},{"name":"B4","midi":71,"time":56.92309400000009,"velocity":0.47244094488188976,"duration":0.3637821604166689},{"name":"C5","midi":72,"time":57.307709500000094,"velocity":0.47244094488188976,"duration":0.7291668854166673},{"name":"A4","midi":69,"time":58.07694050000009,"velocity":0.47244094488188976,"duration":0.18108979791666968},{"name":"B4","midi":71,"time":58.269248250000096,"velocity":0.47244094488188976,"duration":0.18108979791666968},{"name":"G#4","midi":68,"time":58.4615560000001,"velocity":0.47244094488188976,"duration":1.4599363354166641},{"name":"C5","midi":72,"time":58.4615560000001,"velocity":0.47244094488188976,"duration":1.9022441604166644},{"name":"C5","midi":72,"time":60.0000180000001,"velocity":0.5511811023622047,"duration":4.99839893541666},{"name":"G5","midi":79,"time":60.3846335000001,"velocity":0.5511811023622047,"duration":0.7291668854166673},{"name":"F5","midi":77,"time":61.1538645000001,"velocity":0.5511811023622047,"duration":0.18108979791666968},{"name":"D#5","midi":75,"time":61.3461722500001,"velocity":0.5511811023622047,"duration":0.18108979791666968},{"name":"G#4","midi":68,"time":61.538480000000106,"velocity":0.5511811023622047,"duration":1.4599363354166641},{"name":"D5","midi":74,"time":61.538480000000106,"velocity":0.5511811023622047,"duration":1.4599363354166641},{"name":"G#4","midi":68,"time":63.0769420000001,"velocity":0.5511811023622047,"duration":0.7291668854166673},{"name":"F4","midi":65,"time":63.8461730000001,"velocity":0.5511811023622047,"duration":0.7291668854166673},{"name":"G#4","midi":68,"time":63.8461730000001,"velocity":0.5511811023622047,"duration":0.7291668854166673},{"name":"A4","midi":69,"time":64.6154040000001,"velocity":0.5669291338582677,"duration":0.3830129354166587},{"name":"C5","midi":72,"time":64.6827117125001,"velocity":0.5669291338582677,"duration":1.0464746729166592},{"name":"D5","midi":74,"time":64.75001942500009,"velocity":0.5669291338582677,"duration":0.24839751041666602},{"name":"G5","midi":79,"time":64.81732713750009,"velocity":0.5669291338582677,"duration":0.18108979791666968},{"name":"A4","midi":69,"time":65.00001950000009,"velocity":0.5669291338582677,"duration":0.7291668854166602},{"name":"C5","midi":72,"time":65.00001950000009,"velocity":0.5669291338582677,"duration":1.1330131604166525},{"name":"D5","midi":74,"time":65.00001950000009,"velocity":0.5669291338582677,"duration":0.7291668854166602},{"name":"G5","midi":79,"time":65.00001950000009,"velocity":0.5669291338582677,"duration":0.7291668854166602},{"name":"A4","midi":69,"time":65.76925050000008,"velocity":0.5669291338582677,"duration":0.3637821604166618},{"name":"C5","midi":72,"time":65.76925050000008,"velocity":0.5669291338582677,"duration":1.5176286604166478},{"name":"D5","midi":74,"time":65.76925050000008,"velocity":0.5669291338582677,"duration":0.3637821604166618},{"name":"G5","midi":79,"time":65.76925050000008,"velocity":0.5669291338582677,"duration":0.3637821604166618},{"name":"G#4","midi":68,"time":66.15386600000008,"velocity":0.5669291338582677,"duration":0.3637821604166618},{"name":"B4","midi":71,"time":66.15386600000008,"velocity":0.5669291338582677,"duration":0.3637821604166618},{"name":"G5","midi":79,"time":66.15386600000008,"velocity":0.5669291338582677,"duration":0.3637821604166618},{"name":"D5","midi":74,"time":66.53848150000007,"velocity":0.5669291338582677,"duration":0.3637821604166618},{"name":"F5","midi":77,"time":66.53848150000007,"velocity":0.5669291338582677,"duration":0.3637821604166618},{"name":"C5","midi":72,"time":66.92309700000007,"velocity":0.5669291338582677,"duration":1.3349362979166557},{"name":"E5","midi":76,"time":66.92309700000007,"velocity":0.5669291338582677,"duration":0.3637821604166618},{"name":"B4","midi":71,"time":67.30771250000006,"velocity":0.5669291338582677,"duration":0.3637821604166618},{"name":"D5","midi":74,"time":67.30771250000006,"velocity":0.5669291338582677,"duration":0.3637821604166618},{"name":"B4","midi":71,"time":67.69232800000006,"velocity":0.5669291338582677,"duration":0.3637821604166618},{"name":"D5","midi":74,"time":67.69232800000006,"velocity":0.5669291338582677,"duration":0.3637821604166618},{"name":"C5","midi":72,"time":68.07694350000006,"velocity":0.5669291338582677,"duration":1.1041669979166642},{"name":"E5","midi":76,"time":68.07694350000006,"velocity":0.5669291338582677,"duration":0.18108979791666968},{"name":"A4","midi":69,"time":68.26925125000005,"velocity":0.5669291338582677,"duration":0.9118592479166665},{"name":"C5","midi":72,"time":68.26925125000005,"velocity":0.5669291338582677,"duration":2.8637829104166457},{"name":"A#3","midi":58,"time":69.23079000000006,"velocity":0.5669291338582677,"duration":0.3637821604166618},{"name":"D4","midi":62,"time":69.23079000000006,"velocity":0.5669291338582677,"duration":0.3637821604166618},{"name":"F4","midi":65,"time":69.23079000000006,"velocity":0.5669291338582677,"duration":0.3637821604166618},{"name":"A3","midi":57,"time":69.61540550000005,"velocity":0.5669291338582677,"duration":0.3637821604166618},{"name":"A#3","midi":58,"time":70.00002100000005,"velocity":0.5669291338582677,"duration":0.3637821604166618},{"name":"C4","midi":60,"time":70.00002100000005,"velocity":0.5669291338582677,"duration":0.3637821604166618},{"name":"E4","midi":64,"time":70.00002100000005,"velocity":0.5669291338582677,"duration":0.3637821604166618},{"name":"E4","midi":64,"time":70.38463650000004,"velocity":0.5669291338582677,"duration":0.18108979791666968},{"name":"E5","midi":76,"time":70.38463650000004,"velocity":0.5669291338582677,"duration":0.18108979791666968},{"name":"F4","midi":65,"time":70.57694425000004,"velocity":0.5669291338582677,"duration":0.18108979791666968},{"name":"F5","midi":77,"time":70.57694425000004,"velocity":0.5669291338582677,"duration":0.18108979791666968},{"name":"A4","midi":69,"time":70.76925200000004,"velocity":0.5669291338582677,"duration":0.3637821604166618},{"name":"C5","midi":72,"time":70.76925200000004,"velocity":0.5669291338582677,"duration":0.7483976604166571},{"name":"D5","midi":74,"time":70.76925200000004,"velocity":0.5669291338582677,"duration":0.3637821604166618},{"name":"G5","midi":79,"time":70.76925200000004,"velocity":0.5669291338582677,"duration":0.3637821604166618},{"name":"A4","midi":69,"time":71.15386750000003,"velocity":0.5669291338582677,"duration":0.3637821604166618},{"name":"C5","midi":72,"time":71.15386750000003,"velocity":0.5669291338582677,"duration":0.7483976604166571},{"name":"D5","midi":74,"time":71.15386750000003,"velocity":0.5669291338582677,"duration":0.3637821604166618},{"name":"G5","midi":79,"time":71.15386750000003,"velocity":0.5669291338582677,"duration":0.3637821604166618},{"name":"A4","midi":69,"time":71.53848300000003,"velocity":0.5669291338582677,"duration":0.3637821604166618},{"name":"C5","midi":72,"time":71.53848300000003,"velocity":0.5669291338582677,"duration":0.7483976604166571},{"name":"D5","midi":74,"time":71.53848300000003,"velocity":0.5669291338582677,"duration":0.3637821604166618},{"name":"G5","midi":79,"time":71.53848300000003,"velocity":0.5669291338582677,"duration":0.3637821604166618},{"name":"A4","midi":69,"time":71.92309850000002,"velocity":0.5669291338582677,"duration":0.3637821604166618},{"name":"C5","midi":72,"time":71.92309850000002,"velocity":0.5669291338582677,"duration":1.5176286604166478},{"name":"D5","midi":74,"time":71.92309850000002,"velocity":0.5669291338582677,"duration":0.3637821604166618},{"name":"G5","midi":79,"time":71.92309850000002,"velocity":0.5669291338582677,"duration":0.3637821604166618},{"name":"G#4","midi":68,"time":72.30771400000002,"velocity":0.5669291338582677,"duration":0.3637821604166618},{"name":"B4","midi":71,"time":72.30771400000002,"velocity":0.5669291338582677,"duration":0.3637821604166618},{"name":"G5","midi":79,"time":72.30771400000002,"velocity":0.5669291338582677,"duration":0.3637821604166618},{"name":"D5","midi":74,"time":72.69232950000001,"velocity":0.5669291338582677,"duration":0.3637821604166618},{"name":"F5","midi":77,"time":72.69232950000001,"velocity":0.5669291338582677,"duration":0.3637821604166618},{"name":"C5","midi":72,"time":73.07694500000001,"velocity":0.5669291338582677,"duration":2.9791675604166556},{"name":"E5","midi":76,"time":73.07694500000001,"velocity":0.5669291338582677,"duration":0.3637821604166618},{"name":"B4","midi":71,"time":73.4615605,"velocity":0.5669291338582677,"duration":0.3637821604166618},{"name":"D5","midi":74,"time":73.4615605,"velocity":0.5669291338582677,"duration":0.3637821604166618},{"name":"B4","midi":71,"time":73.846176,"velocity":0.5669291338582677,"duration":0.3637821604166618},{"name":"D5","midi":74,"time":73.846176,"velocity":0.5669291338582677,"duration":0.3637821604166618},{"name":"C5","midi":72,"time":74.2307915,"velocity":0.5669291338582677,"duration":2.286859660416667},{"name":"E5","midi":76,"time":74.2307915,"velocity":0.5669291338582677,"duration":1.8253210604166696},{"name":"C5","midi":72,"time":76.153869,"velocity":0.5669291338582677,"duration":1.9198723708333176},{"name":"D5","midi":74,"time":76.5384845,"velocity":0.5511811023622047,"duration":0.3637821604166618},{"name":"F#4","midi":66,"time":76.92309999999999,"velocity":0.4409448818897638,"duration":1.1522439354166636},{"name":"C5","midi":72,"time":77.02406156874999,"velocity":0.4409448818897638,"duration":2.8974367666666723},{"name":"E5","midi":76,"time":77.12662570208332,"velocity":0.4409448818897638,"duration":0.9471156687500013},{"name":"A4","midi":69,"time":78.07694649999999,"velocity":0.4409448818897638,"duration":0.3637821604166618},{"name":"C5","midi":72,"time":78.46156199999999,"velocity":0.4409448818897638,"duration":4.209937160416644},{"name":"A3","midi":57,"time":80.000024,"velocity":0.4409448818897638,"duration":0.7291668854166602},{"name":"C4","midi":60,"time":80.000024,"velocity":0.4409448818897638,"duration":0.7291668854166602},{"name":"E4","midi":64,"time":80.000024,"velocity":0.4409448818897638,"duration":0.7291668854166602},{"name":"A3","midi":57,"time":80.76925499999999,"velocity":0.4409448818897638,"duration":0.7291668854166602},{"name":"F4","midi":65,"time":80.76925499999999,"velocity":0.4409448818897638,"duration":0.7291668854166602},{"name":"F3","midi":53,"time":81.53848599999998,"velocity":0.4409448818897638,"duration":1.383013235416655},{"name":"A3","midi":57,"time":81.53848599999998,"velocity":0.4409448818897638,"duration":0.7291668854166602},{"name":"D4","midi":62,"time":81.53848599999998,"velocity":0.4409448818897638,"duration":0.7291668854166602},{"name":"C5","midi":72,"time":82.30771699999997,"velocity":0.4409448818897638,"duration":3.7676293354166717},{"name":"D5","midi":74,"time":82.69233249999996,"velocity":0.4409448818897638,"duration":0.363782160416676},{"name":"F#4","midi":66,"time":83.07694799999997,"velocity":0.4409448818897638,"duration":1.1522439354166636},{"name":"B4","midi":71,"time":83.17790956874997,"velocity":0.4409448818897638,"duration":1.0496798020833324},{"name":"E5","midi":76,"time":83.2804737020833,"velocity":0.4409448818897638,"duration":0.9471156687500013},{"name":"A4","midi":69,"time":84.23079449999997,"velocity":0.4409448818897638,"duration":0.3637821604166618},{"name":"C5","midi":72,"time":84.61540999999997,"velocity":0.4409448818897638,"duration":17.306094935416553},{"name":"C4","midi":60,"time":86.15387199999998,"velocity":0.4409448818897638,"duration":1.4599363354166712},{"name":"D4","midi":62,"time":86.15387199999998,"velocity":0.4409448818897638,"duration":1.4599363354166712},{"name":"F4","midi":65,"time":86.15387199999998,"velocity":0.4409448818897638,"duration":1.4599363354166712},{"name":"A4","midi":69,"time":86.15387199999998,"velocity":0.4409448818897638,"duration":1.4599363354166712},{"name":"A5","midi":81,"time":88.07694949999998,"velocity":0.5039370078740157,"duration":0.3637821604166618},{"name":"B5","midi":83,"time":88.46156499999998,"velocity":0.5039370078740157,"duration":0.3637821604166618},{"name":"E5","midi":76,"time":88.84618049999997,"velocity":0.5039370078740157,"duration":0.3637821604166618},{"name":"C6","midi":84,"time":89.23079599999997,"velocity":0.5039370078740157,"duration":0.3637821604166618},{"name":"C6","midi":84,"time":89.61541149999996,"velocity":0.5039370078740157,"duration":0.3637821604166618},{"name":"D6","midi":86,"time":90.00002699999996,"velocity":0.5039370078740157,"duration":0.3637821604166618},{"name":"C6","midi":84,"time":90.38464249999996,"velocity":0.5039370078740157,"duration":0.3637821604166618},{"name":"B5","midi":83,"time":90.76925799999995,"velocity":0.5039370078740157,"duration":0.7291668854166602},{"name":"E5","midi":76,"time":91.53848899999994,"velocity":0.5039370078740157,"duration":0.3637821604166618},{"name":"G5","midi":79,"time":91.92310449999994,"velocity":0.5039370078740157,"duration":0.3637821604166618},{"name":"A5","midi":81,"time":92.30771999999993,"velocity":0.5039370078740157,"duration":0.3637821604166618},{"name":"A5","midi":81,"time":92.69233549999993,"velocity":0.5039370078740157,"duration":0.3637821604166618},{"name":"G5","midi":79,"time":93.07695099999992,"velocity":0.5039370078740157,"duration":0.3637821604166618},{"name":"F5","midi":77,"time":93.46156649999992,"velocity":0.5039370078740157,"duration":0.3637821604166618},{"name":"G5","midi":79,"time":93.84618199999991,"velocity":0.5039370078740157,"duration":1.0945516104166728},{"name":"G4","midi":67,"time":95.00002849999991,"velocity":0.6299212598425197,"duration":0.3637821604166618},{"name":"G4","midi":67,"time":95.38464399999991,"velocity":0.6299212598425197,"duration":0.3637821604166618},{"name":"F4","midi":65,"time":95.7692594999999,"velocity":0.6299212598425197,"duration":0.3637821604166618},{"name":"F4","midi":65,"time":96.1538749999999,"velocity":0.6299212598425197,"duration":0.3637821604166618},{"name":"D#4","midi":63,"time":96.5384904999999,"velocity":0.6299212598425197,"duration":0.3637821604166618},{"name":"F4","midi":65,"time":96.92310599999989,"velocity":0.6299212598425197,"duration":0.7291668854166602},{"name":"C4","midi":60,"time":97.69233699999988,"velocity":0.6299212598425197,"duration":0.6907053354166663},{"name":"F4","midi":65,"time":98.07695249999988,"velocity":0.6299212598425197,"duration":0.363782160416676},{"name":"B3","midi":59,"time":98.46156799999989,"velocity":0.6299212598425197,"duration":1.0945516104166728},{"name":"D#4","midi":63,"time":98.46156799999989,"velocity":0.6299212598425197,"duration":1.0945516104166728},{"name":"G4","midi":67,"time":98.46156799999989,"velocity":0.6299212598425197,"duration":1.0945516104166728},{"name":"B3","midi":59,"time":99.61541449999989,"velocity":0.6299212598425197,"duration":0.3637821604166618},{"name":"F4","midi":65,"time":99.61541449999989,"velocity":0.6299212598425197,"duration":0.3637821604166618},{"name":"G#4","midi":68,"time":99.61541449999989,"velocity":0.6299212598425197,"duration":0.3637821604166618},{"name":"A3","midi":57,"time":100.00002999999988,"velocity":0.6299212598425197,"duration":0.7291668854166602},{"name":"D4","midi":62,"time":100.00002999999988,"velocity":0.6299212598425197,"duration":0.7291668854166602},{"name":"G4","midi":67,"time":100.00002999999988,"velocity":0.6299212598425197,"duration":0.7291668854166602},{"name":"A4","midi":69,"time":100.76926099999987,"velocity":0.4409448818897638,"duration":0.3637821604166618},{"name":"A5","midi":81,"time":100.76926099999987,"velocity":0.4409448818897638,"duration":0.3637821604166618},{"name":"B4","midi":71,"time":101.15387649999987,"velocity":0.5511811023622047,"duration":0.3637821604166618},{"name":"B5","midi":83,"time":101.15387649999987,"velocity":0.5511811023622047,"duration":0.3637821604166618},{"name":"C5","midi":72,"time":101.53849199999986,"velocity":0.5511811023622047,"duration":0.7483976604166571},{"name":"E5","midi":76,"time":101.60579971249986,"velocity":0.5511811023622047,"duration":0.31570522291666236},{"name":"A5","midi":81,"time":101.67310742499986,"velocity":0.5511811023622047,"duration":0.24839751041666602},{"name":"C6","midi":84,"time":101.74041513749985,"velocity":0.5511811023622047,"duration":0.18108979791666968},{"name":"C5","midi":72,"time":101.92310749999986,"velocity":0.5511811023622047,"duration":1.1330131604166525},{"name":"E5","midi":76,"time":101.92310749999986,"velocity":0.5511811023622047,"duration":0.3637821604166618},{"name":"A5","midi":81,"time":101.92310749999986,"velocity":0.5511811023622047,"duration":0.3637821604166618},{"name":"C6","midi":84,"time":101.92310749999986,"velocity":0.5511811023622047,"duration":0.3637821604166618},{"name":"D5","midi":74,"time":102.30772299999985,"velocity":0.5511811023622047,"duration":0.3637821604166618},{"name":"D6","midi":86,"time":102.30772299999985,"velocity":0.5511811023622047,"duration":0.3637821604166618},{"name":"C5","midi":72,"time":102.69233849999985,"velocity":0.5511811023622047,"duration":2.3044878708332988},{"name":"C6","midi":84,"time":102.69233849999985,"velocity":0.5511811023622047,"duration":0.3637821604166618},{"name":"B4","midi":71,"time":103.07695399999984,"velocity":0.5511811023622047,"duration":0.7291668854166602},{"name":"E5","midi":76,"time":103.07695399999984,"velocity":0.5511811023622047,"duration":0.7291668854166602},{"name":"G5","midi":79,"time":103.07695399999984,"velocity":0.5511811023622047,"duration":0.7291668854166602},{"name":"B5","midi":83,"time":103.07695399999984,"velocity":0.5511811023622047,"duration":0.7291668854166602},{"name":"E4","midi":64,"time":103.84618499999983,"velocity":0.5511811023622047,"duration":0.3637821604166618},{"name":"E5","midi":76,"time":103.84618499999983,"velocity":0.5511811023622047,"duration":0.3637821604166618},{"name":"G4","midi":67,"time":104.23080049999983,"velocity":0.5511811023622047,"duration":0.3637821604166618},{"name":"G5","midi":79,"time":104.23080049999983,"velocity":0.5511811023622047,"duration":0.3637821604166618},{"name":"A4","midi":69,"time":104.61541599999983,"velocity":0.5511811023622047,"duration":0.3830129354166587},{"name":"C5","midi":72,"time":104.71637756874982,"velocity":0.5511811023622047,"duration":0.6474360916666626},{"name":"A5","midi":81,"time":104.81894170208315,"velocity":0.5511811023622047,"duration":0.17788466874999642},{"name":"A4","midi":69,"time":105.00003149999982,"velocity":0.5511811023622047,"duration":0.3637821604166618},{"name":"C5","midi":72,"time":105.00003149999982,"velocity":0.5511811023622047,"duration":2.248398110416659},{"name":"A5","midi":81,"time":105.00003149999982,"velocity":0.5511811023622047,"duration":0.3637821604166618},{"name":"G4","midi":67,"time":105.38464699999982,"velocity":0.5511811023622047,"duration":0.3637821604166618},{"name":"G5","midi":79,"time":105.38464699999982,"velocity":0.5511811023622047,"duration":0.3637821604166618},{"name":"F4","midi":65,"time":105.76926249999981,"velocity":0.5511811023622047,"duration":0.3637821604166618},{"name":"F5","midi":77,"time":105.76926249999981,"velocity":0.5511811023622047,"duration":0.3637821604166618},{"name":"G4","midi":67,"time":106.1538779999998,"velocity":0.5511811023622047,"duration":1.0945516104166728},{"name":"C5","midi":72,"time":106.1538779999998,"velocity":0.5511811023622047,"duration":9.229169435416594},{"name":"D5","midi":74,"time":106.1538779999998,"velocity":0.5511811023622047,"duration":1.0945516104166728},{"name":"G5","midi":79,"time":106.1538779999998,"velocity":0.5511811023622047,"duration":1.0945516104166728},{"name":"G4","midi":67,"time":107.30772449999981,"velocity":0.5511811023622047,"duration":0.3637821604166618},{"name":"G5","midi":79,"time":107.30772449999981,"velocity":0.5511811023622047,"duration":0.3637821604166618},{"name":"G4","midi":67,"time":107.6923399999998,"velocity":0.5511811023622047,"duration":0.3637821604166618},{"name":"G5","midi":79,"time":107.6923399999998,"velocity":0.5511811023622047,"duration":0.3637821604166618},{"name":"F4","midi":65,"time":108.0769554999998,"velocity":0.5511811023622047,"duration":0.3637821604166618},{"name":"F5","midi":77,"time":108.0769554999998,"velocity":0.5511811023622047,"duration":0.3637821604166618},{"name":"F4","midi":65,"time":108.4615709999998,"velocity":0.5511811023622047,"duration":0.3637821604166618},{"name":"F5","midi":77,"time":108.4615709999998,"velocity":0.5511811023622047,"duration":0.3637821604166618},{"name":"D#4","midi":63,"time":108.84618649999979,"velocity":0.5511811023622047,"duration":0.3637821604166618},{"name":"D#5","midi":75,"time":108.84618649999979,"velocity":0.5511811023622047,"duration":0.3637821604166618},{"name":"F4","midi":65,"time":109.23080199999978,"velocity":0.5511811023622047,"duration":0.7291668854166602},{"name":"F5","midi":77,"time":109.23080199999978,"velocity":0.5511811023622047,"duration":0.7291668854166602},{"name":"G4","midi":67,"time":110.00003299999977,"velocity":0.5511811023622047,"duration":0.3637821604166618},{"name":"G5","midi":79,"time":110.00003299999977,"velocity":0.5511811023622047,"duration":0.3637821604166618},{"name":"G#4","midi":68,"time":110.38464849999977,"velocity":0.5511811023622047,"duration":0.3637821604166618},{"name":"G#5","midi":80,"time":110.38464849999977,"velocity":0.5511811023622047,"duration":0.3637821604166618},{"name":"A#4","midi":70,"time":110.76926399999977,"velocity":0.5511811023622047,"duration":0.3637821604166618},{"name":"A#5","midi":82,"time":110.76926399999977,"velocity":0.5511811023622047,"duration":0.3637821604166618},{"name":"G#4","midi":68,"time":111.15387949999976,"velocity":0.5511811023622047,"duration":0.3637821604166618},{"name":"G#5","midi":80,"time":111.15387949999976,"velocity":0.5511811023622047,"duration":0.3637821604166618},{"name":"G#4","midi":68,"time":111.53849499999976,"velocity":0.5511811023622047,"duration":0.3637821604166618},{"name":"G#5","midi":80,"time":111.53849499999976,"velocity":0.5511811023622047,"duration":0.3637821604166618},{"name":"G4","midi":67,"time":111.92311049999975,"velocity":0.5511811023622047,"duration":0.3637821604166618},{"name":"G5","midi":79,"time":111.92311049999975,"velocity":0.5511811023622047,"duration":0.3637821604166618},{"name":"G#4","midi":68,"time":112.30772599999975,"velocity":0.5511811023622047,"duration":0.7291668854166602},{"name":"G#5","midi":80,"time":112.30772599999975,"velocity":0.5511811023622047,"duration":0.7291668854166602},{"name":"G4","midi":67,"time":113.07695699999974,"velocity":0.5511811023622047,"duration":0.24198725208333371},{"name":"G5","midi":79,"time":113.07695699999974,"velocity":0.5511811023622047,"duration":0.24198725208333371},{"name":"G#4","midi":68,"time":113.33336733333307,"velocity":0.5511811023622047,"duration":0.24198725208333371},{"name":"G#5","midi":80,"time":113.33336733333307,"velocity":0.5511811023622047,"duration":0.24198725208333371},{"name":"A#4","midi":70,"time":113.58977766666641,"velocity":0.5511811023622047,"duration":0.24198725208333371},{"name":"A#5","midi":82,"time":113.58977766666641,"velocity":0.5511811023622047,"duration":0.24198725208333371},{"name":"C5","midi":72,"time":113.84618799999974,"velocity":0.5511811023622047,"duration":4.613783435416636},{"name":"F5","midi":77,"time":113.94714956874974,"velocity":0.5511811023622047,"duration":1.4342953020833278},{"name":"G#5","midi":80,"time":114.04971370208307,"velocity":0.5511811023622047,"duration":1.3317311687499966},{"name":"C6","midi":84,"time":114.15388039999974,"velocity":0.5511811023622047,"duration":1.2291670354166655},{"name":"G#4","midi":68,"time":116.15388099999973,"velocity":0.5511811023622047,"duration":0.3637821604166618},{"name":"G#5","midi":80,"time":116.15388099999973,"velocity":0.5511811023622047,"duration":0.3637821604166618},{"name":"A#4","midi":70,"time":116.53849649999972,"velocity":0.5511811023622047,"duration":0.3637821604166618},{"name":"A#5","midi":82,"time":116.53849649999972,"velocity":0.5511811023622047,"duration":0.3637821604166618},{"name":"C5","midi":72,"time":116.92311199999972,"velocity":0.5511811023622047,"duration":23.65385324999997},{"name":"F5","midi":77,"time":117.02407356874971,"velocity":0.5511811023622047,"duration":1.4342953020833278},{"name":"G#5","midi":80,"time":117.12663770208304,"velocity":0.5511811023622047,"duration":1.3317311687499966},{"name":"C6","midi":84,"time":117.23080439999971,"velocity":0.5511811023622047,"duration":1.2291670354166655},{"name":"C4","midi":60,"time":118.46157399999971,"velocity":0.5511811023622047,"duration":0.3637821604166618},{"name":"G#3","midi":56,"time":118.84618949999971,"velocity":0.5511811023622047,"duration":0.3637821604166618},{"name":"F3","midi":53,"time":119.2308049999997,"velocity":0.5511811023622047,"duration":0.3637821604166618},{"name":"G#3","midi":56,"time":119.6154204999997,"velocity":0.5511811023622047,"duration":0.3637821604166618},{"name":"D5","midi":74,"time":120.0000359999997,"velocity":0.5511811023622047,"duration":1.536859435416659},{"name":"D6","midi":86,"time":120.10099756874969,"velocity":0.5511811023622047,"duration":1.4342953020833278},{"name":"G5","midi":79,"time":121.92311349999969,"velocity":0.5511811023622047,"duration":0.3637821604166618},{"name":"C6","midi":84,"time":122.30772899999968,"velocity":0.5511811023622047,"duration":0.3637821604166618},{"name":"B5","midi":83,"time":122.69234449999968,"velocity":0.5511811023622047,"duration":0.3637821604166618},{"name":"C6","midi":84,"time":123.07695999999967,"velocity":0.5511811023622047,"duration":1.0945516104166728},{"name":"E5","midi":76,"time":124.23080649999967,"velocity":0.3937007874015748,"duration":0.3637821604166618},{"name":"E5","midi":76,"time":124.61542199999967,"velocity":0.3937007874015748,"duration":0.3637821604166618},{"name":"D5","midi":74,"time":125.00003749999966,"velocity":0.3937007874015748,"duration":0.3637821604166618},{"name":"E5","midi":76,"time":125.38465299999966,"velocity":0.3937007874015748,"duration":0.3637821604166618},{"name":"A5","midi":81,"time":125.76926849999965,"velocity":0.3937007874015748,"duration":0.3637821604166618},{"name":"E5","midi":76,"time":126.15388399999965,"velocity":0.3937007874015748,"duration":0.3637821604166618},{"name":"A5","midi":81,"time":126.53849949999965,"velocity":0.3937007874015748,"duration":0.3637821604166618},{"name":"A5","midi":81,"time":126.92311499999964,"velocity":0.3937007874015748,"duration":0.3637821604166618},{"name":"A5","midi":81,"time":127.30773049999964,"velocity":0.3937007874015748,"duration":0.3637821604166618},{"name":"A5","midi":81,"time":127.69234599999963,"velocity":0.3937007874015748,"duration":0.363782160416676},{"name":"G5","midi":79,"time":128.07696149999964,"velocity":0.3937007874015748,"duration":0.3637821604166618},{"name":"A5","midi":81,"time":128.46157699999964,"velocity":0.3937007874015748,"duration":0.3637821604166618},{"name":"D6","midi":86,"time":128.84619249999963,"velocity":0.3937007874015748,"duration":0.3637821604166618},{"name":"B5","midi":83,"time":129.23080799999963,"velocity":0.3937007874015748,"duration":0.7291668854166744},{"name":"A5","midi":81,"time":130.00003899999965,"velocity":0.3937007874015748,"duration":0.3637821604166618},{"name":"D5","midi":74,"time":130.38465449999964,"velocity":0.3937007874015748,"duration":0.9615387499999883},{"name":"G5","midi":79,"time":130.38465449999964,"velocity":0.3937007874015748,"duration":2.5560905104166523},{"name":"C6","midi":84,"time":130.38465449999964,"velocity":0.3937007874015748,"duration":2.5560905104166523},{"name":"B5","midi":83,"time":133.07696299999964,"velocity":0.3937007874015748,"duration":0.7291668854166744},{"name":"G5","midi":79,"time":133.84619399999966,"velocity":0.3937007874015748,"duration":0.7291668854166744},{"name":"A5","midi":81,"time":134.61542499999968,"velocity":0.3937007874015748,"duration":2.190705785416668},{"name":"G5","midi":79,"time":137.69234899999967,"velocity":0.3937007874015748,"duration":1.4599363354166712},{"name":"G6","midi":91,"time":137.69234899999967,"velocity":0.3937007874015748,"duration":1.4599363354166712},{"name":"F5","midi":77,"time":139.23081099999968,"velocity":0.3937007874015748,"duration":0.7291668854166744},{"name":"F6","midi":89,"time":139.23081099999968,"velocity":0.3937007874015748,"duration":0.7291668854166744},{"name":"C5","midi":72,"time":140.0000419999997,"velocity":0.3937007874015748,"duration":15.229171235416658},{"name":"C6","midi":84,"time":140.0000419999997,"velocity":0.3937007874015748,"duration":0.729166885416646},{"name":"D5","midi":74,"time":140.76927299999969,"velocity":0.3937007874015748,"duration":0.576923249999993},{"name":"D6","midi":86,"time":140.76927299999969,"velocity":0.3937007874015748,"duration":1.4599363354166712},{"name":"E5","midi":76,"time":142.3077349999997,"velocity":0.3937007874015748,"duration":0.729166885416646},{"name":"E6","midi":88,"time":142.3077349999997,"velocity":0.3937007874015748,"duration":0.729166885416646},{"name":"A3","midi":57,"time":143.0769659999997,"velocity":0.6299212598425197,"duration":2.921475235416665},{"name":"B3","midi":59,"time":143.0769659999997,"velocity":0.6299212598425197,"duration":2.921475235416665},{"name":"E4","midi":64,"time":143.0769659999997,"velocity":0.6299212598425197,"duration":2.921475235416665},{"name":"G3","midi":55,"time":146.15388999999968,"velocity":0.6299212598425197,"duration":2.921475235416665},{"name":"C4","midi":60,"time":146.15388999999968,"velocity":0.6299212598425197,"duration":2.921475235416665},{"name":"D4","midi":62,"time":146.15388999999968,"velocity":0.6299212598425197,"duration":2.921475235416665},{"name":"G4","midi":67,"time":146.15388999999968,"velocity":0.6299212598425197,"duration":2.921475235416665},{"name":"C4","midi":60,"time":149.23081399999967,"velocity":0.6299212598425197,"duration":2.190705785416668},{"name":"F4","midi":65,"time":149.23081399999967,"velocity":0.6299212598425197,"duration":2.190705785416668},{"name":"A#4","midi":70,"time":149.23081399999967,"velocity":0.6299212598425197,"duration":2.190705785416668},{"name":"C4","midi":60,"time":151.53850699999967,"velocity":0.6299212598425197,"duration":0.7291668854166744},{"name":"F4","midi":65,"time":151.53850699999967,"velocity":0.6299212598425197,"duration":0.7291668854166744},{"name":"A#4","midi":70,"time":151.53850699999967,"velocity":0.6299212598425197,"duration":0.7291668854166744},{"name":"D4","midi":62,"time":152.3077379999997,"velocity":0.3858267716535433,"duration":2.921475235416665},{"name":"E4","midi":64,"time":152.3077379999997,"velocity":0.3858267716535433,"duration":2.921475235416665},{"name":"G4","midi":67,"time":152.3077379999997,"velocity":0.3858267716535433,"duration":2.921475235416665},{"name":"C5","midi":72,"time":152.3077379999997,"velocity":0.3858267716535433,"duration":6.902245660416639},{"name":"E5","midi":76,"time":155.38466199999968,"velocity":0.3858267716535433,"duration":0.3637821604166618},{"name":"D5","midi":74,"time":155.76927749999967,"velocity":0.3858267716535433,"duration":0.3637821604166618},{"name":"E5","midi":76,"time":156.15389299999967,"velocity":0.3858267716535433,"duration":0.3637821604166618},{"name":"A5","midi":81,"time":156.53850849999966,"velocity":0.3858267716535433,"duration":0.3637821604166618},{"name":"E5","midi":76,"time":156.92312399999966,"velocity":0.3858267716535433,"duration":1.4599363354166712},{"name":"D5","midi":74,"time":158.46158599999967,"velocity":0.3858267716535433,"duration":0.3637821604166618},{"name":"C5","midi":72,"time":158.84620149999967,"velocity":0.3858267716535433,"duration":4.152244835416639},{"name":"D5","midi":74,"time":159.23081699999966,"velocity":0.3858267716535433,"duration":0.3637821604166618},{"name":"G5","midi":79,"time":159.61543249999966,"velocity":0.3858267716535433,"duration":0.3637821604166618},{"name":"D5","midi":74,"time":160.00004799999965,"velocity":0.3858267716535433,"duration":1.0945516104166586},{"name":"A4","midi":69,"time":161.15389449999964,"velocity":0.3858267716535433,"duration":0.18108979791665547},{"name":"B4","midi":71,"time":161.34620224999964,"velocity":0.3858267716535433,"duration":0.18108979791665547},{"name":"C5","midi":72,"time":161.53850999999963,"velocity":0.3858267716535433,"duration":2.671475160416662},{"name":"A4","midi":69,"time":163.07697199999964,"velocity":0.3858267716535433,"duration":0.3637821604166618},{"name":"B4","midi":71,"time":163.46158749999964,"velocity":0.3858267716535433,"duration":0.3637821604166618},{"name":"C5","midi":72,"time":163.84620299999963,"velocity":0.3858267716535433,"duration":4.219552547916663},{"name":"D5","midi":74,"time":164.23081849999963,"velocity":0.3858267716535433,"duration":0.3637821604166618},{"name":"F#4","midi":66,"time":164.61543399999962,"velocity":0.3858267716535433,"duration":1.4599363354166712},{"name":"A4","midi":69,"time":164.61543399999962,"velocity":0.3858267716535433,"duration":1.4599363354166712},{"name":"E5","midi":76,"time":164.61543399999962,"velocity":0.3858267716535433,"duration":1.4599363354166712},{"name":"D4","midi":62,"time":166.15389599999963,"velocity":0.3858267716535433,"duration":0.7291668854166744},{"name":"G#4","midi":68,"time":166.15389599999963,"velocity":0.3858267716535433,"duration":0.7291668854166744},{"name":"A5","midi":81,"time":166.92312699999965,"velocity":0.4645669291338583,"duration":0.3637821604166618},{"name":"B5","midi":83,"time":167.30774249999965,"velocity":0.4645669291338583,"duration":0.3637821604166618},{"name":"A5","midi":81,"time":167.69235799999964,"velocity":0.4645669291338583,"duration":0.18108979791665547},{"name":"C6","midi":84,"time":167.69235799999964,"velocity":0.4645669291338583,"duration":0.18108979791665547},{"name":"C5","midi":72,"time":167.88466574999964,"velocity":0.4645669291338583,"duration":0.5657052979166508},{"name":"A5","midi":81,"time":168.07697349999964,"velocity":0.4645669291338583,"duration":0.18108979791665547},{"name":"C6","midi":84,"time":168.07697349999964,"velocity":0.4645669291338583,"duration":0.18108979791665547},{"name":"C5","midi":72,"time":168.26928124999964,"velocity":0.4645669291338583,"duration":5.1714759104166035},{"name":"B5","midi":83,"time":168.46158899999963,"velocity":0.4645669291338583,"duration":0.18108979791665547},{"name":"D6","midi":86,"time":168.46158899999963,"velocity":0.4645669291338583,"duration":0.18108979791665547},{"name":"D5","midi":74,"time":168.65389674999963,"velocity":0.4645669291338583,"duration":0.18108979791665547},{"name":"A5","midi":81,"time":168.84620449999963,"velocity":0.4645669291338583,"duration":0.18108979791665547},{"name":"C6","midi":84,"time":168.84620449999963,"velocity":0.4645669291338583,"duration":0.18108979791665547},{"name":"D5","midi":74,"time":169.03851224999963,"velocity":0.4645669291338583,"duration":0.18108979791665547},{"name":"G5","midi":79,"time":169.23081999999962,"velocity":0.4645669291338583,"duration":0.18108979791665547},{"name":"B5","midi":83,"time":169.23081999999962,"velocity":0.4645669291338583,"duration":0.18108979791665547},{"name":"B4","midi":71,"time":169.42312774999962,"velocity":0.4645669291338583,"duration":0.18108979791665547},{"name":"G5","midi":79,"time":169.61543549999962,"velocity":0.4645669291338583,"duration":0.18108979791665547},{"name":"B5","midi":83,"time":169.61543549999962,"velocity":0.4645669291338583,"duration":0.18108979791665547},{"name":"B4","midi":71,"time":169.80774324999962,"velocity":0.4645669291338583,"duration":0.18108979791665547},{"name":"E5","midi":76,"time":170.00005099999962,"velocity":0.4645669291338583,"duration":0.18108979791665547},{"name":"B4","midi":71,"time":170.1923587499996,"velocity":0.4645669291338583,"duration":0.18108979791665547},{"name":"G5","midi":79,"time":170.3846664999996,"velocity":0.4645669291338583,"duration":0.18108979791665547},{"name":"B4","midi":71,"time":170.5769742499996,"velocity":0.4645669291338583,"duration":0.18108979791665547},{"name":"F5","midi":77,"time":170.7692819999996,"velocity":0.4645669291338583,"duration":0.18108979791665547},{"name":"A5","midi":81,"time":170.7692819999996,"velocity":0.4645669291338583,"duration":0.18108979791665547},{"name":"A4","midi":69,"time":170.9615897499996,"velocity":0.4645669291338583,"duration":0.18108979791665547},{"name":"F5","midi":77,"time":171.1538974999996,"velocity":0.4645669291338583,"duration":0.18108979791665547},{"name":"A5","midi":81,"time":171.1538974999996,"velocity":0.4645669291338583,"duration":0.18108979791665547},{"name":"A4","midi":69,"time":171.3462052499996,"velocity":0.4645669291338583,"duration":0.18108979791665547},{"name":"E5","midi":76,"time":171.5385129999996,"velocity":0.4645669291338583,"duration":0.18108979791665547},{"name":"G5","midi":79,"time":171.5385129999996,"velocity":0.4645669291338583,"duration":0.18108979791665547},{"name":"A4","midi":69,"time":171.7308207499996,"velocity":0.4645669291338583,"duration":0.18108979791665547},{"name":"D5","midi":74,"time":171.9231284999996,"velocity":0.4645669291338583,"duration":0.18108979791665547},{"name":"F5","midi":77,"time":171.9231284999996,"velocity":0.4645669291338583,"duration":0.18108979791665547},{"name":"F4","midi":65,"time":172.1154362499996,"velocity":0.4645669291338583,"duration":0.18108979791665547},{"name":"G5","midi":79,"time":172.3077439999996,"velocity":0.4645669291338583,"duration":0.18108979791665547},{"name":"G4","midi":67,"time":172.50005174999959,"velocity":0.4645669291338583,"duration":0.18108979791665547},{"name":"D5","midi":74,"time":172.69235949999958,"velocity":0.4645669291338583,"duration":0.3637821604166618},{"name":"C5","midi":72,"time":173.07697499999958,"velocity":0.4645669291338583,"duration":7.306091935416617},{"name":"G4","midi":67,"time":173.46159049999957,"velocity":0.4645669291338583,"duration":0.3637821604166618},{"name":"G4","midi":67,"time":173.84620599999957,"velocity":0.4645669291338583,"duration":0.3637821604166618},{"name":"F4","midi":65,"time":174.23082149999956,"velocity":0.4645669291338583,"duration":0.3637821604166618},{"name":"F4","midi":65,"time":174.61543699999956,"velocity":0.4645669291338583,"duration":0.3637821604166618},{"name":"D#4","midi":63,"time":175.00005249999955,"velocity":0.4645669291338583,"duration":0.3637821604166618},{"name":"F4","midi":65,"time":175.38466799999955,"velocity":0.4645669291338583,"duration":0.7291668854166744},{"name":"C4","midi":60,"time":176.15389899999957,"velocity":0.4645669291338583,"duration":0.6907053354166521},{"name":"F4","midi":65,"time":176.53851449999956,"velocity":0.4645669291338583,"duration":0.3637821604166618},{"name":"B3","midi":59,"time":176.92312999999956,"velocity":0.4645669291338583,"duration":1.0945516104166586},{"name":"D#4","midi":63,"time":176.92312999999956,"velocity":0.4645669291338583,"duration":1.0945516104166586},{"name":"G4","midi":67,"time":176.92312999999956,"velocity":0.4645669291338583,"duration":1.0945516104166586},{"name":"B3","midi":59,"time":178.07697649999955,"velocity":0.4645669291338583,"duration":0.3637821604166618},{"name":"F4","midi":65,"time":178.07697649999955,"velocity":0.4645669291338583,"duration":0.3637821604166618},{"name":"G#4","midi":68,"time":178.07697649999955,"velocity":0.4645669291338583,"duration":0.3637821604166618},{"name":"A3","midi":57,"time":178.46159199999954,"velocity":0.4645669291338583,"duration":0.7291668854166744},{"name":"D4","midi":62,"time":178.46159199999954,"velocity":0.4645669291338583,"duration":0.7291668854166744},{"name":"G4","midi":67,"time":178.46159199999954,"velocity":0.4645669291338583,"duration":0.7291668854166744},{"name":"A4","midi":69,"time":179.23082299999956,"velocity":0.4645669291338583,"duration":0.3637821604166618},{"name":"A5","midi":81,"time":179.23082299999956,"velocity":0.4645669291338583,"duration":0.3637821604166618},{"name":"B4","midi":71,"time":179.61543849999956,"velocity":0.4645669291338583,"duration":0.3637821604166618},{"name":"B5","midi":83,"time":179.61543849999956,"velocity":0.4645669291338583,"duration":0.3637821604166618},{"name":"C5","midi":72,"time":180.00005399999955,"velocity":0.4645669291338583,"duration":0.7483976604166287},{"name":"E5","midi":76,"time":180.06736171249955,"velocity":0.4645669291338583,"duration":0.31570522291664815},{"name":"A5","midi":81,"time":180.13466942499954,"velocity":0.4645669291338583,"duration":0.2483975104166518},{"name":"C6","midi":84,"time":180.20197713749954,"velocity":0.4645669291338583,"duration":0.18108979791665547},{"name":"C5","midi":72,"time":180.38466949999952,"velocity":0.4645669291338583,"duration":1.1330131604166525},{"name":"E5","midi":76,"time":180.38466949999952,"velocity":0.4645669291338583,"duration":0.3637821604166618},{"name":"A5","midi":81,"time":180.38466949999952,"velocity":0.4645669291338583,"duration":0.3637821604166618},{"name":"C6","midi":84,"time":180.38466949999952,"velocity":0.4645669291338583,"duration":0.3637821604166618},{"name":"D5","midi":74,"time":180.7692849999995,"velocity":0.4645669291338583,"duration":0.3637821604166618},{"name":"D6","midi":86,"time":180.7692849999995,"velocity":0.4645669291338583,"duration":0.3637821604166618},{"name":"C5","midi":72,"time":181.1539004999995,"velocity":0.4645669291338583,"duration":2.3044878708333556},{"name":"C6","midi":84,"time":181.1539004999995,"velocity":0.4645669291338583,"duration":0.3637821604166618},{"name":"B4","midi":71,"time":181.5385159999995,"velocity":0.4645669291338583,"duration":0.7291668854166744},{"name":"E5","midi":76,"time":181.5385159999995,"velocity":0.4645669291338583,"duration":0.7291668854166744},{"name":"G5","midi":79,"time":181.5385159999995,"velocity":0.4645669291338583,"duration":0.7291668854166744},{"name":"B5","midi":83,"time":181.5385159999995,"velocity":0.4645669291338583,"duration":0.7291668854166744},{"name":"E4","midi":64,"time":182.30774699999952,"velocity":0.4645669291338583,"duration":0.3637821604166618},{"name":"E5","midi":76,"time":182.30774699999952,"velocity":0.4645669291338583,"duration":0.3637821604166618},{"name":"G4","midi":67,"time":182.69236249999952,"velocity":0.4645669291338583,"duration":0.3637821604166618},{"name":"G5","midi":79,"time":182.69236249999952,"velocity":0.4645669291338583,"duration":0.3637821604166618},{"name":"A4","midi":69,"time":183.0769779999995,"velocity":0.4645669291338583,"duration":0.3830129354166729},{"name":"C5","midi":72,"time":183.1779395687495,"velocity":0.4645669291338583,"duration":2.5320520416666454},{"name":"A5","midi":81,"time":183.28050370208285,"velocity":0.4645669291338583,"duration":0.17788466875001063},{"name":"A4","midi":69,"time":183.4615934999995,"velocity":0.4645669291338583,"duration":0.3637821604166618},{"name":"A5","midi":81,"time":183.4615934999995,"velocity":0.4645669291338583,"duration":0.3637821604166618},{"name":"G4","midi":67,"time":183.8462089999995,"velocity":0.4645669291338583,"duration":0.3637821604166618},{"name":"G5","midi":79,"time":183.8462089999995,"velocity":0.4645669291338583,"duration":0.3637821604166618},{"name":"F4","midi":65,"time":184.2308244999995,"velocity":0.4645669291338583,"duration":0.3637821604166618},{"name":"F5","midi":77,"time":184.2308244999995,"velocity":0.4645669291338583,"duration":0.3637821604166618},{"name":"G4","midi":67,"time":184.6154399999995,"velocity":0.4645669291338583,"duration":1.0945516104166586},{"name":"C5","midi":72,"time":184.6154399999995,"velocity":0.4645669291338583,"duration":9.229169435416594},{"name":"D5","midi":74,"time":184.6154399999995,"velocity":0.4645669291338583,"duration":1.0945516104166586},{"name":"G5","midi":79,"time":184.6154399999995,"velocity":0.4645669291338583,"duration":1.0945516104166586},{"name":"G4","midi":67,"time":185.76928649999948,"velocity":0.4645669291338583,"duration":0.3637821604166618},{"name":"G5","midi":79,"time":185.76928649999948,"velocity":0.4645669291338583,"duration":0.3637821604166618},{"name":"G4","midi":67,"time":186.15390199999948,"velocity":0.4645669291338583,"duration":0.3637821604166618},{"name":"G5","midi":79,"time":186.15390199999948,"velocity":0.4645669291338583,"duration":0.3637821604166618},{"name":"F4","midi":65,"time":186.53851749999947,"velocity":0.4645669291338583,"duration":0.3637821604166618},{"name":"F5","midi":77,"time":186.53851749999947,"velocity":0.4645669291338583,"duration":0.3637821604166618},{"name":"F4","midi":65,"time":186.92313299999947,"velocity":0.4645669291338583,"duration":0.3637821604166618},{"name":"F5","midi":77,"time":186.92313299999947,"velocity":0.4645669291338583,"duration":0.3637821604166618},{"name":"D#4","midi":63,"time":187.30774849999946,"velocity":0.4645669291338583,"duration":0.3637821604166618},{"name":"D#5","midi":75,"time":187.30774849999946,"velocity":0.4645669291338583,"duration":0.3637821604166618},{"name":"F4","midi":65,"time":187.69236399999946,"velocity":0.4645669291338583,"duration":0.7291668854166744},{"name":"F5","midi":77,"time":187.69236399999946,"velocity":0.4645669291338583,"duration":0.7291668854166744},{"name":"G4","midi":67,"time":188.46159499999948,"velocity":0.4645669291338583,"duration":0.3637821604166618},{"name":"G5","midi":79,"time":188.46159499999948,"velocity":0.4645669291338583,"duration":0.3637821604166618},{"name":"G#4","midi":68,"time":188.84621049999947,"velocity":0.4645669291338583,"duration":0.3637821604166618},{"name":"G#5","midi":80,"time":188.84621049999947,"velocity":0.4645669291338583,"duration":0.3637821604166618},{"name":"A#4","midi":70,"time":189.23082599999947,"velocity":0.4645669291338583,"duration":0.3637821604166618},{"name":"A#5","midi":82,"time":189.23082599999947,"velocity":0.4645669291338583,"duration":0.3637821604166618},{"name":"G#4","midi":68,"time":189.61544149999946,"velocity":0.4645669291338583,"duration":0.3637821604166618},{"name":"G#5","midi":80,"time":189.61544149999946,"velocity":0.4645669291338583,"duration":0.3637821604166618},{"name":"G#4","midi":68,"time":190.00005699999946,"velocity":0.4645669291338583,"duration":0.3637821604166618},{"name":"G#5","midi":80,"time":190.00005699999946,"velocity":0.4645669291338583,"duration":0.3637821604166618},{"name":"G4","midi":67,"time":190.38467249999945,"velocity":0.4645669291338583,"duration":0.3637821604166618},{"name":"G5","midi":79,"time":190.38467249999945,"velocity":0.4645669291338583,"duration":0.3637821604166618},{"name":"G#4","midi":68,"time":190.76928799999945,"velocity":0.4645669291338583,"duration":0.7291668854166744},{"name":"G#5","midi":80,"time":190.76928799999945,"velocity":0.4645669291338583,"duration":0.7291668854166744},{"name":"G4","midi":67,"time":191.53851899999947,"velocity":0.4645669291338583,"duration":0.24198725208333371},{"name":"G5","midi":79,"time":191.53851899999947,"velocity":0.4645669291338583,"duration":0.24198725208333371},{"name":"G#4","midi":68,"time":191.7949293333328,"velocity":0.4645669291338583,"duration":0.24198725208333371},{"name":"G#5","midi":80,"time":191.7949293333328,"velocity":0.4645669291338583,"duration":0.24198725208333371},{"name":"A#4","midi":70,"time":192.0513396666661,"velocity":0.4645669291338583,"duration":0.24198725208333371},{"name":"A#5","midi":82,"time":192.0513396666661,"velocity":0.4645669291338583,"duration":0.24198725208333371},{"name":"C5","midi":72,"time":192.30774999999943,"velocity":0.4645669291338583,"duration":4.61378343541665},{"name":"F5","midi":77,"time":192.40871156874942,"velocity":0.4645669291338583,"duration":1.434295302083342},{"name":"G#5","midi":80,"time":192.51127570208277,"velocity":0.4645669291338583,"duration":1.3317311687499966},{"name":"C6","midi":84,"time":192.61544239999944,"velocity":0.4645669291338583,"duration":1.2291670354166513},{"name":"G#4","midi":68,"time":194.61544299999943,"velocity":0.4645669291338583,"duration":0.3637821604166618},{"name":"G#5","midi":80,"time":194.61544299999943,"velocity":0.4645669291338583,"duration":0.3637821604166618},{"name":"A#4","midi":70,"time":195.00005849999943,"velocity":0.4645669291338583,"duration":0.3637821604166618},{"name":"A#5","midi":82,"time":195.00005849999943,"velocity":0.4645669291338583,"duration":0.3637821604166618},{"name":"C5","midi":72,"time":195.38467399999942,"velocity":0.4645669291338583,"duration":2.286859660416667},{"name":"F5","midi":77,"time":195.48563556874942,"velocity":0.4645669291338583,"duration":1.434295302083342},{"name":"G#5","midi":80,"time":195.58819970208276,"velocity":0.4645669291338583,"duration":1.3317311687499966},{"name":"C6","midi":84,"time":195.69236639999943,"velocity":0.4645669291338583,"duration":1.2291670354166513},{"name":"C5","midi":72,"time":197.30775149999943,"velocity":0.4645669291338583,"duration":1.1330131604166525},{"name":"F5","midi":77,"time":197.30775149999943,"velocity":0.4645669291338583,"duration":0.3637821604166618},{"name":"G#5","midi":80,"time":197.30775149999943,"velocity":0.4645669291338583,"duration":0.3637821604166618},{"name":"C6","midi":84,"time":197.30775149999943,"velocity":0.4645669291338583,"duration":0.3637821604166618},{"name":"B4","midi":71,"time":197.69236699999942,"velocity":0.4645669291338583,"duration":0.3637821604166618},{"name":"B5","midi":83,"time":197.69236699999942,"velocity":0.4645669291338583,"duration":0.3637821604166618},{"name":"C5","midi":72,"time":198.07698249999942,"velocity":0.4645669291338583,"duration":0},{"name":"C6","midi":84,"time":198.07698249999942,"velocity":0.4645669291338583,"duration":0.3637821604166618},{"name":"D5","midi":74,"time":198.4615979999994,"velocity":0.4645669291338583,"duration":1.536859435416659},{"name":"D6","midi":86,"time":198.5625595687494,"velocity":0.4645669291338583,"duration":1.434295302083342},{"name":"G5","midi":79,"time":200.38467549999942,"velocity":0.4645669291338583,"duration":0.3637821604166618},{"name":"C6","midi":84,"time":200.7692909999994,"velocity":0.4645669291338583,"duration":0.3637821604166618},{"name":"B5","midi":83,"time":201.1539064999994,"velocity":0.4645669291338583,"duration":0.3637821604166618},{"name":"C6","midi":84,"time":201.5385219999994,"velocity":0.4645669291338583,"duration":2.190705785416668},{"name":"A4","midi":69,"time":203.8462149999994,"velocity":0.4645669291338583,"duration":0.3637821604166618},{"name":"B4","midi":71,"time":204.2308304999994,"velocity":0.4645669291338583,"duration":0.3637821604166618},{"name":"A5","midi":81,"time":204.6154459999994,"velocity":0.4645669291338583,"duration":0.3637821604166618},{"name":"B5","midi":83,"time":205.0000614999994,"velocity":0.4645669291338583,"duration":0.3637821604166618},{"name":"F5","midi":77,"time":205.38467699999939,"velocity":0.4645669291338583,"duration":5.229168235416637},{"name":"A5","midi":81,"time":205.42794624374937,"velocity":0.4645669291338583,"duration":5.184296427083325},{"name":"B5","midi":83,"time":205.47121548749936,"velocity":0.4645669291338583,"duration":5.141027183333335},{"name":"E6","midi":88,"time":205.5160872958327,"velocity":0.4645669291338583,"duration":5.096155374999995}]},{"instrument_number":-1,"notes":[{"name":"F4","midi":65,"time":0,"velocity":0.3228346456692913,"duration":3.075321435416667},{"name":"C5","midi":72,"time":0.10096156875000001,"velocity":0.3228346456692913,"duration":2.9727573020833336},{"name":"E4","midi":64,"time":3.0769240000000004,"velocity":0.3228346456692913,"duration":3.0753214354166665},{"name":"B4","midi":71,"time":3.1778855687500003,"velocity":0.3228346456692913,"duration":2.9727573020833336},{"name":"D4","midi":62,"time":6.153848,"velocity":0.3228346456692913,"duration":1.536859435416666},{"name":"A4","midi":69,"time":6.25480956875,"velocity":0.3228346456692913,"duration":1.4342953020833331},{"name":"C#4","midi":61,"time":7.692309999999999,"velocity":0.3228346456692913,"duration":4.459937235416666},{"name":"F#4","midi":66,"time":7.725963856249999,"velocity":0.3228346456692913,"duration":4.424680814583333},{"name":"B4","midi":71,"time":7.759617712499999,"velocity":0.3228346456692913,"duration":4.391026958333333},{"name":"F3","midi":53,"time":12.307695999999998,"velocity":0.3228346456692913,"duration":8.76763083541667},{"name":"B3","midi":59,"time":12.307695999999998,"velocity":0.3228346456692913,"duration":8.76763083541667},{"name":"E4","midi":64,"time":12.307695999999998,"velocity":0.3228346456692913,"duration":8.76763083541667},{"name":"A3","midi":57,"time":21.538468,"velocity":0.3228346456692913,"duration":5.844553035416666},{"name":"D4","midi":62,"time":21.538468,"velocity":0.3228346456692913,"duration":5.844553035416666},{"name":"G4","midi":67,"time":21.538468,"velocity":0.3228346456692913,"duration":5.844553035416666},{"name":"G3","midi":55,"time":27.692316,"velocity":0.3228346456692913,"duration":2.9214752354166684},{"name":"C4","midi":60,"time":27.692316,"velocity":0.3228346456692913,"duration":2.9214752354166684},{"name":"F4","midi":65,"time":27.692316,"velocity":0.3228346456692913,"duration":2.9214752354166684},{"name":"F3","midi":53,"time":30.769240000000003,"velocity":0.3228346456692913,"duration":2.921475235416665},{"name":"B3","midi":59,"time":30.769240000000003,"velocity":0.3228346456692913,"duration":2.921475235416665},{"name":"E4","midi":64,"time":30.769240000000003,"velocity":0.3228346456692913,"duration":2.921475235416665},{"name":"E3","midi":52,"time":33.846164,"velocity":0.3228346456692913,"duration":2.921475235416665},{"name":"A3","midi":57,"time":33.846164,"velocity":0.3228346456692913,"duration":2.921475235416665},{"name":"D4","midi":62,"time":33.846164,"velocity":0.3228346456692913,"duration":2.921475235416665},{"name":"D3","midi":50,"time":36.923088,"velocity":0.3228346456692913,"duration":1.4599363354166641},{"name":"G3","midi":55,"time":36.923088,"velocity":0.3228346456692913,"duration":1.4599363354166641},{"name":"C4","midi":60,"time":36.923088,"velocity":0.3228346456692913,"duration":1.4599363354166641},{"name":"E3","midi":52,"time":38.461549999999995,"velocity":0.3543307086614173,"duration":1.4599363354166641},{"name":"A3","midi":57,"time":38.461549999999995,"velocity":0.3543307086614173,"duration":1.4599363354166641},{"name":"D4","midi":62,"time":38.461549999999995,"velocity":0.3543307086614173,"duration":1.4599363354166641},{"name":"F2","midi":41,"time":40.00001199999999,"velocity":0.3937007874015748,"duration":2.921475235416665},{"name":"A3","midi":57,"time":40.00001199999999,"velocity":0.3937007874015748,"duration":2.921475235416665},{"name":"B3","midi":59,"time":40.00001199999999,"velocity":0.3937007874015748,"duration":2.921475235416665},{"name":"E4","midi":64,"time":40.00001199999999,"velocity":0.3937007874015748,"duration":2.921475235416665},{"name":"G2","midi":43,"time":43.07693599999999,"velocity":0.3937007874015748,"duration":0.3637821604166689},{"name":"F3","midi":53,"time":43.46155149999999,"velocity":0.3937007874015748,"duration":0.3637821604166689},{"name":"G3","midi":55,"time":43.846166999999994,"velocity":0.3937007874015748,"duration":0.3637821604166689},{"name":"D4","midi":62,"time":44.2307825,"velocity":0.3937007874015748,"duration":1.8253210604166696},{"name":"C2","midi":36,"time":46.15386,"velocity":0.3937007874015748,"duration":2.921475235416665},{"name":"E3","midi":52,"time":46.15386,"velocity":0.3937007874015748,"duration":2.921475235416665},{"name":"A3","midi":57,"time":46.15386,"velocity":0.3937007874015748,"duration":2.921475235416665},{"name":"D4","midi":62,"time":46.15386,"velocity":0.3937007874015748,"duration":2.921475235416665},{"name":"C2","midi":36,"time":49.230784,"velocity":0.3937007874015748,"duration":0.3637821604166689},{"name":"A2","midi":45,"time":49.6153995,"velocity":0.3937007874015748,"duration":0.3637821604166689},{"name":"D3","midi":50,"time":50.000015000000005,"velocity":0.3937007874015748,"duration":0.3637821604166689},{"name":"G3","midi":55,"time":50.38463050000001,"velocity":0.3937007874015748,"duration":1.8253210604166696},{"name":"F4","midi":65,"time":52.30770800000001,"velocity":0.3937007874015748,"duration":1.4599363354166641},{"name":"D3","midi":50,"time":52.30770800000001,"velocity":0.3937007874015748,"duration":2.921475235416665},{"name":"A3","midi":57,"time":52.30770800000001,"velocity":0.3937007874015748,"duration":2.921475235416665},{"name":"D4","midi":62,"time":53.84617000000001,"velocity":0.47244094488188976,"duration":1.4599363354166712},{"name":"F4","midi":65,"time":53.84617000000001,"velocity":0.47244094488188976,"duration":1.4599363354166712},{"name":"E4","midi":64,"time":55.38463200000001,"velocity":0.47244094488188976,"duration":1.4599363354166641},{"name":"G4","midi":67,"time":55.38463200000001,"velocity":0.47244094488188976,"duration":1.4599363354166641},{"name":"D4","midi":62,"time":55.38463200000001,"velocity":0.47244094488188976,"duration":1.4599363354166641},{"name":"E3","midi":52,"time":55.38463200000001,"velocity":0.47244094488188976,"duration":2.921475235416665},{"name":"C4","midi":60,"time":56.923094000000006,"velocity":0.47244094488188976,"duration":1.4599363354166712},{"name":"C5","midi":72,"time":58.46155600000001,"velocity":0.47244094488188976,"duration":0.38461550000000244},{"name":"F3","midi":53,"time":58.46155600000001,"velocity":0.47244094488188976,"duration":2.921475235416679},{"name":"C4","midi":60,"time":58.46155600000001,"velocity":0.47244094488188976,"duration":2.921475235416679},{"name":"D#4","midi":63,"time":58.46155600000001,"velocity":0.47244094488188976,"duration":2.921475235416679},{"name":"C5","midi":72,"time":58.84617150000001,"velocity":0.4881889763779528,"duration":0.38461550000000244},{"name":"C5","midi":72,"time":59.230787000000014,"velocity":0.5118110236220472,"duration":0.38461550000000244},{"name":"C5","midi":72,"time":59.615402500000016,"velocity":0.5275590551181102,"duration":0.3637821604166689},{"name":"F4","midi":65,"time":60.00001800000002,"velocity":0.5511811023622047,"duration":1.4599363354166712},{"name":"G3","midi":55,"time":61.53848000000002,"velocity":0.5511811023622047,"duration":1.4599363354166641},{"name":"C4","midi":60,"time":61.53848000000002,"velocity":0.5511811023622047,"duration":1.4599363354166641},{"name":"D4","midi":62,"time":61.53848000000002,"velocity":0.5511811023622047,"duration":1.4599363354166641},{"name":"F4","midi":65,"time":61.53848000000002,"velocity":0.5511811023622047,"duration":1.4599363354166641},{"name":"B3","midi":59,"time":63.07694200000002,"velocity":0.5511811023622047,"duration":1.4599363354166712},{"name":"F4","midi":65,"time":63.07694200000002,"velocity":0.5511811023622047,"duration":0.7692309999999978},{"name":"E4","midi":64,"time":63.07694200000002,"velocity":0.5511811023622047,"duration":0.7291668854166673},{"name":"E5","midi":76,"time":63.07694200000002,"velocity":0.5511811023622047,"duration":0.7291668854166673},{"name":"F5","midi":77,"time":63.846173000000014,"velocity":0.5511811023622047,"duration":0.7291668854166673},{"name":"F2","midi":41,"time":64.61540400000001,"velocity":0.5669291338582677,"duration":0.3637821604166618},{"name":"C3","midi":48,"time":65.00001950000001,"velocity":0.5669291338582677,"duration":0.3637821604166618},{"name":"F3","midi":53,"time":65.384635,"velocity":0.5669291338582677,"duration":0.3637821604166618},{"name":"A3","midi":57,"time":65.7692505,"velocity":0.5669291338582677,"duration":0.3637821604166618},{"name":"E2","midi":40,"time":66.153866,"velocity":0.5669291338582677,"duration":0.3637821604166618},{"name":"B2","midi":47,"time":66.53848149999999,"velocity":0.5669291338582677,"duration":0.3637821604166618},{"name":"E3","midi":52,"time":66.92309699999998,"velocity":0.5669291338582677,"duration":0.3637821604166618},{"name":"G#3","midi":56,"time":67.30771249999998,"velocity":0.5669291338582677,"duration":0.3637821604166618},{"name":"A2","midi":45,"time":67.69232799999997,"velocity":0.5669291338582677,"duration":0.3637821604166618},{"name":"E3","midi":52,"time":68.07694349999997,"velocity":0.5669291338582677,"duration":0.3637821604166618},{"name":"A3","midi":57,"time":68.46155899999997,"velocity":0.5669291338582677,"duration":0.3637821604166618},{"name":"C4","midi":60,"time":68.84617449999996,"velocity":0.5669291338582677,"duration":0.3637821604166618},{"name":"G2","midi":43,"time":69.23078999999996,"velocity":0.5669291338582677,"duration":0.7291668854166602},{"name":"C3","midi":48,"time":70.00002099999995,"velocity":0.5669291338582677,"duration":0.7291668854166602},{"name":"G3","midi":55,"time":70.00002099999995,"velocity":0.5669291338582677,"duration":0.7291668854166602},{"name":"F2","midi":41,"time":70.76925199999994,"velocity":0.5669291338582677,"duration":0.3637821604166618},{"name":"C3","midi":48,"time":71.15386749999993,"velocity":0.5669291338582677,"duration":0.3637821604166618},{"name":"F3","midi":53,"time":71.53848299999993,"velocity":0.5669291338582677,"duration":0.3637821604166618},{"name":"A3","midi":57,"time":71.92309849999992,"velocity":0.5669291338582677,"duration":0.3637821604166618},{"name":"E2","midi":40,"time":72.30771399999992,"velocity":0.5669291338582677,"duration":0.3637821604166618},{"name":"B2","midi":47,"time":72.69232949999991,"velocity":0.5669291338582677,"duration":0.3637821604166618},{"name":"E3","midi":52,"time":73.07694499999991,"velocity":0.5669291338582677,"duration":0.3637821604166618},{"name":"G#3","midi":56,"time":73.4615604999999,"velocity":0.5669291338582677,"duration":0.3637821604166618},{"name":"A2","midi":45,"time":73.8461759999999,"velocity":0.5669291338582677,"duration":0.3637821604166618},{"name":"E3","midi":52,"time":74.2307914999999,"velocity":0.5669291338582677,"duration":0.3637821604166618},{"name":"A3","midi":57,"time":74.61540699999989,"velocity":0.5669291338582677,"duration":0.3637821604166618},{"name":"C4","midi":60,"time":75.00002249999989,"velocity":0.5669291338582677,"duration":0.3637821604166618},{"name":"E4","midi":64,"time":75.38463799999988,"velocity":0.5669291338582677,"duration":0.3637821604166618},{"name":"C4","midi":60,"time":75.76925349999988,"velocity":0.5669291338582677,"duration":0.3637821604166618},{"name":"A4","midi":69,"time":76.15386899999987,"velocity":0.5669291338582677,"duration":0.3637821604166618},{"name":"E4","midi":64,"time":76.53848449999987,"velocity":0.5511811023622047,"duration":0.3637821604166618},{"name":"D2","midi":38,"time":76.92309999999986,"velocity":0.4409448818897638,"duration":0.3637821604166618},{"name":"A2","midi":45,"time":77.30771549999986,"velocity":0.4409448818897638,"duration":0.3637821604166618},{"name":"D3","midi":50,"time":77.69233099999985,"velocity":0.4409448818897638,"duration":0.3637821604166618},{"name":"F#3","midi":54,"time":78.07694649999985,"velocity":0.4409448818897638,"duration":0.3637821604166618},{"name":"A3","midi":57,"time":78.46156199999984,"velocity":0.4409448818897638,"duration":0.3637821604166618},{"name":"F#3","midi":54,"time":78.84617749999984,"velocity":0.4409448818897638,"duration":0.3637821604166618},{"name":"C4","midi":60,"time":79.23079299999984,"velocity":0.4409448818897638,"duration":0.3637821604166618},{"name":"A3","midi":57,"time":79.61540849999983,"velocity":0.4409448818897638,"duration":0.3637821604166618},{"name":"G2","midi":43,"time":80.00002399999983,"velocity":0.4409448818897638,"duration":2.921475235416665},{"name":"F3","midi":53,"time":80.00002399999983,"velocity":0.4409448818897638,"duration":1.5384619999999956},{"name":"D3","midi":50,"time":83.07694799999982,"velocity":0.4409448818897638,"duration":2.921475235416665},{"name":"A3","midi":57,"time":83.07694799999982,"velocity":0.4409448818897638,"duration":2.921475235416665},{"name":"C4","midi":60,"time":83.07694799999982,"velocity":0.4409448818897638,"duration":2.921475235416665},{"name":"G2","midi":43,"time":86.15387199999981,"velocity":0.4409448818897638,"duration":0.3637821604166618},{"name":"D3","midi":50,"time":86.5384874999998,"velocity":0.4409448818897638,"duration":0.3637821604166618},{"name":"F3","midi":53,"time":86.9231029999998,"velocity":0.4409448818897638,"duration":0.3637821604166618},{"name":"A3","midi":57,"time":87.3077184999998,"velocity":0.4409448818897638,"duration":0.3637821604166618},{"name":"D4","midi":62,"time":87.69233399999979,"velocity":0.5039370078740157,"duration":1.4599363354166712},{"name":"A3","midi":57,"time":89.2307959999998,"velocity":0.5039370078740157,"duration":0.3637821604166618},{"name":"E4","midi":64,"time":89.6154114999998,"velocity":0.5039370078740157,"duration":0.3637821604166618},{"name":"C5","midi":72,"time":90.00002699999979,"velocity":0.5039370078740157,"duration":0.3637821604166618},{"name":"E4","midi":64,"time":90.38464249999979,"velocity":0.5039370078740157,"duration":0.3637821604166618},{"name":"G3","midi":55,"time":90.76925799999978,"velocity":0.5039370078740157,"duration":0.3637821604166618},{"name":"E4","midi":64,"time":91.15387349999978,"velocity":0.5039370078740157,"duration":0.3637821604166618},{"name":"B4","midi":71,"time":91.53848899999977,"velocity":0.5039370078740157,"duration":0.3637821604166618},{"name":"E4","midi":64,"time":91.92310449999977,"velocity":0.5039370078740157,"duration":0.3637821604166618},{"name":"F3","midi":53,"time":92.30771999999976,"velocity":0.5039370078740157,"duration":0.3637821604166618},{"name":"C4","midi":60,"time":92.69233549999976,"velocity":0.5039370078740157,"duration":0.3637821604166618},{"name":"A4","midi":69,"time":93.07695099999975,"velocity":0.5039370078740157,"duration":0.3637821604166618},{"name":"C4","midi":60,"time":93.46156649999975,"velocity":0.5039370078740157,"duration":0.3637821604166618},{"name":"E3","midi":52,"time":93.84618199999974,"velocity":0.5039370078740157,"duration":0.3637821604166618},{"name":"C4","midi":60,"time":94.23079749999974,"velocity":0.5039370078740157,"duration":0.3637821604166618},{"name":"G4","midi":67,"time":94.61541299999973,"velocity":0.6299212598425197,"duration":0.38461549999999534},{"name":"D#3","midi":51,"time":95.38464399999972,"velocity":0.6299212598425197,"duration":1.4599363354166712},{"name":"G3","midi":55,"time":95.38464399999972,"velocity":0.6299212598425197,"duration":1.4599363354166712},{"name":"C4","midi":60,"time":95.38464399999972,"velocity":0.6299212598425197,"duration":1.4599363354166712},{"name":"D3","midi":50,"time":96.92310599999973,"velocity":0.6299212598425197,"duration":1.4599363354166712},{"name":"F3","midi":53,"time":96.92310599999973,"velocity":0.6299212598425197,"duration":1.4599363354166712},{"name":"C4","midi":60,"time":96.92310599999973,"velocity":0.6299212598425197,"duration":0.7692310000000049},{"name":"D#3","midi":51,"time":98.46156799999974,"velocity":0.6299212598425197,"duration":1.4599363354166712},{"name":"G2","midi":43,"time":100.00002999999975,"velocity":0.6299212598425197,"duration":1.4599363354166712},{"name":"D3","midi":50,"time":100.00002999999975,"velocity":0.6299212598425197,"duration":1.4599363354166712},{"name":"A2","midi":45,"time":101.53849199999976,"velocity":0.5511811023622047,"duration":0.3637821604166618},{"name":"E3","midi":52,"time":101.92310749999976,"velocity":0.5511811023622047,"duration":0.3637821604166618},{"name":"C4","midi":60,"time":102.30772299999975,"velocity":0.5511811023622047,"duration":0.3637821604166618},{"name":"E3","midi":52,"time":102.69233849999975,"velocity":0.5511811023622047,"duration":0.3637821604166618},{"name":"G2","midi":43,"time":103.07695399999974,"velocity":0.5511811023622047,"duration":0.3637821604166618},{"name":"E3","midi":52,"time":103.46156949999974,"velocity":0.5511811023622047,"duration":0.3637821604166618},{"name":"B3","midi":59,"time":103.84618499999974,"velocity":0.5511811023622047,"duration":0.3637821604166618},{"name":"E3","midi":52,"time":104.23080049999973,"velocity":0.5511811023622047,"duration":0.3637821604166618},{"name":"F2","midi":41,"time":104.61541599999973,"velocity":0.5511811023622047,"duration":0.3637821604166618},{"name":"C3","midi":48,"time":105.00003149999972,"velocity":0.5511811023622047,"duration":0.3637821604166618},{"name":"A3","midi":57,"time":105.38464699999972,"velocity":0.5511811023622047,"duration":0.3637821604166618},{"name":"C3","midi":48,"time":105.76926249999971,"velocity":0.5511811023622047,"duration":0.3637821604166618},{"name":"E2","midi":40,"time":106.15387799999971,"velocity":0.5511811023622047,"duration":0.3637821604166618},{"name":"C3","midi":48,"time":106.5384934999997,"velocity":0.5511811023622047,"duration":0.3637821604166618},{"name":"G3","midi":55,"time":106.9231089999997,"velocity":0.5511811023622047,"duration":0.3637821604166618},{"name":"C3","midi":48,"time":107.3077244999997,"velocity":0.5511811023622047,"duration":0.3637821604166618},{"name":"D#3","midi":51,"time":107.69233999999969,"velocity":0.5511811023622047,"duration":0.3637821604166618},{"name":"G3","midi":55,"time":108.07695549999968,"velocity":0.5511811023622047,"duration":0.3637821604166618},{"name":"C4","midi":60,"time":108.46157099999968,"velocity":0.5511811023622047,"duration":0.3637821604166618},{"name":"G3","midi":55,"time":108.84618649999967,"velocity":0.5511811023622047,"duration":0.3637821604166618},{"name":"D3","midi":50,"time":109.23080199999967,"velocity":0.5511811023622047,"duration":0.3637821604166618},{"name":"F3","midi":53,"time":109.61541749999967,"velocity":0.5511811023622047,"duration":0.3637821604166618},{"name":"C4","midi":60,"time":110.00003299999966,"velocity":0.5511811023622047,"duration":0.3637821604166618},{"name":"F3","midi":53,"time":110.38464849999966,"velocity":0.5511811023622047,"duration":0.3637821604166618},{"name":"C#3","midi":49,"time":110.76926399999965,"velocity":0.5511811023622047,"duration":0.3637821604166618},{"name":"F3","midi":53,"time":111.15387949999965,"velocity":0.5511811023622047,"duration":0.3637821604166618},{"name":"A#3","midi":58,"time":111.53849499999964,"velocity":0.5511811023622047,"duration":0.3637821604166618},{"name":"F3","midi":53,"time":111.92311049999964,"velocity":0.5511811023622047,"duration":0.3637821604166618},{"name":"C3","midi":48,"time":112.30772599999963,"velocity":0.5511811023622047,"duration":0.3637821604166618},{"name":"E3","midi":52,"time":112.69234149999963,"velocity":0.5511811023622047,"duration":0.3637821604166618},{"name":"A#3","midi":58,"time":113.07695699999962,"velocity":0.5511811023622047,"duration":0.3637821604166618},{"name":"E3","midi":52,"time":113.46157249999962,"velocity":0.5511811023622047,"duration":0.3637821604166618},{"name":"F2","midi":41,"time":113.84618799999961,"velocity":0.5511811023622047,"duration":0.3637821604166618},{"name":"C3","midi":48,"time":114.23080349999961,"velocity":0.5511811023622047,"duration":0.3637821604166618},{"name":"G#3","midi":56,"time":114.6154189999996,"velocity":0.5511811023622047,"duration":0.3637821604166618},{"name":"C3","midi":48,"time":115.0000344999996,"velocity":0.5511811023622047,"duration":0.3637821604166618},{"name":"D#2","midi":39,"time":115.3846499999996,"velocity":0.5511811023622047,"duration":0.3637821604166618},{"name":"C3","midi":48,"time":115.76926549999959,"velocity":0.5511811023622047,"duration":0.3637821604166618},{"name":"G3","midi":55,"time":116.15388099999959,"velocity":0.5511811023622047,"duration":0.3637821604166618},{"name":"C3","midi":48,"time":116.53849649999958,"velocity":0.5511811023622047,"duration":0.3637821604166618},{"name":"D2","midi":38,"time":116.92311199999958,"velocity":0.5511811023622047,"duration":0.3637821604166618},{"name":"D3","midi":50,"time":117.30772749999957,"velocity":0.5511811023622047,"duration":0.3637821604166618},{"name":"F3","midi":53,"time":117.69234299999957,"velocity":0.5511811023622047,"duration":0.3637821604166618},{"name":"G#3","midi":56,"time":118.07695849999956,"velocity":0.5511811023622047,"duration":0.3637821604166618},{"name":"C5","midi":72,"time":118.84618949999955,"velocity":0.5511811023622047,"duration":0.3637821604166618},{"name":"C6","midi":84,"time":118.84618949999955,"velocity":0.5511811023622047,"duration":0.3637821604166618},{"name":"B4","midi":71,"time":119.23080499999955,"velocity":0.5511811023622047,"duration":0.3637821604166618},{"name":"B5","midi":83,"time":119.23080499999955,"velocity":0.5511811023622047,"duration":0.3637821604166618},{"name":"C5","midi":72,"time":119.61542049999954,"velocity":0.5511811023622047,"duration":0.3637821604166618},{"name":"C6","midi":84,"time":119.61542049999954,"velocity":0.5511811023622047,"duration":0.3637821604166618},{"name":"G2","midi":43,"time":120.00003599999954,"velocity":0.5511811023622047,"duration":0.3637821604166618},{"name":"D3","midi":50,"time":120.38465149999953,"velocity":0.5511811023622047,"duration":0.3637821604166618},{"name":"G3","midi":55,"time":120.76926699999953,"velocity":0.5511811023622047,"duration":0.3637821604166618},{"name":"B3","midi":59,"time":121.15388249999953,"velocity":0.5511811023622047,"duration":0.3637821604166618},{"name":"D4","midi":62,"time":121.53849799999952,"velocity":0.5511811023622047,"duration":1.4599363354166712},{"name":"F3","midi":53,"time":123.07695999999953,"velocity":0.5511811023622047,"duration":2.921475235416665},{"name":"A3","midi":57,"time":123.07695999999953,"velocity":0.5511811023622047,"duration":2.921475235416665},{"name":"B3","midi":59,"time":123.07695999999953,"velocity":0.5511811023622047,"duration":2.921475235416665},{"name":"E4","midi":64,"time":123.07695999999953,"velocity":0.5511811023622047,"duration":2.921475235416665},{"name":"F4","midi":65,"time":126.15388399999952,"velocity":0.3937007874015748,"duration":3.0753214354166403},{"name":"A4","midi":69,"time":126.25484556874952,"velocity":0.3937007874015748,"duration":2.9727573020833233},{"name":"B4","midi":71,"time":126.35580713749951,"velocity":0.3937007874015748,"duration":2.871795733333329},{"name":"E4","midi":64,"time":130.7692699999995,"velocity":0.3937007874015748,"duration":0.18108979791665547},{"name":"G4","midi":67,"time":130.9615777499995,"velocity":0.3937007874015748,"duration":0.18108979791665547},{"name":"A4","midi":69,"time":131.1538854999995,"velocity":0.3937007874015748,"duration":0.18108979791665547},{"name":"D5","midi":74,"time":131.3461932499995,"velocity":0.3937007874015748,"duration":0.7692309999999907},{"name":"E4","midi":64,"time":131.53850099999948,"velocity":0.3937007874015748,"duration":0.18108979791665547},{"name":"G4","midi":67,"time":131.73080874999948,"velocity":0.3937007874015748,"duration":0.18108979791665547},{"name":"A4","midi":69,"time":131.92311649999948,"velocity":0.3937007874015748,"duration":0.18108979791665547},{"name":"D5","midi":74,"time":132.11542424999948,"velocity":0.3937007874015748,"duration":0.7692309999999907},{"name":"E4","midi":64,"time":132.30773199999948,"velocity":0.3937007874015748,"duration":0.18108979791665547},{"name":"G4","midi":67,"time":132.50003974999947,"velocity":0.3937007874015748,"duration":0.18108979791665547},{"name":"A4","midi":69,"time":132.69234749999947,"velocity":0.3937007874015748,"duration":0.18108979791665547},{"name":"D5","midi":74,"time":132.88465524999947,"velocity":0.3937007874015748,"duration":0.18108979791665547},{"name":"E4","midi":64,"time":133.07696299999947,"velocity":0.3937007874015748,"duration":0.18108979791665547},{"name":"G4","midi":67,"time":133.26927074999946,"velocity":0.3937007874015748,"duration":0.18108979791665547},{"name":"A4","midi":69,"time":133.46157849999946,"velocity":0.3937007874015748,"duration":0.18108979791665547},{"name":"D5","midi":74,"time":133.65388624999946,"velocity":0.3937007874015748,"duration":0.18108979791665547},{"name":"F#4","midi":66,"time":133.84619399999946,"velocity":0.3937007874015748,"duration":0.18108979791665547},{"name":"A4","midi":69,"time":134.03850174999945,"velocity":0.3937007874015748,"duration":0.18108979791665547},{"name":"B4","midi":71,"time":134.23080949999945,"velocity":0.3937007874015748,"duration":0.18108979791665547},{"name":"E5","midi":76,"time":134.42311724999945,"velocity":0.3937007874015748,"duration":0.18108979791665547},{"name":"F#4","midi":66,"time":134.61542499999945,"velocity":0.3937007874015748,"duration":0.18108979791665547},{"name":"A4","midi":69,"time":134.80773274999945,"velocity":0.3937007874015748,"duration":0.18108979791665547},{"name":"B4","midi":71,"time":135.00004049999944,"velocity":0.3937007874015748,"duration":0.18108979791665547},{"name":"E5","midi":76,"time":135.19234824999944,"velocity":0.3937007874015748,"duration":0.18108979791665547},{"name":"F#4","midi":66,"time":135.38465599999944,"velocity":0.3937007874015748,"duration":0.18108979791665547},{"name":"A4","midi":69,"time":135.57696374999944,"velocity":0.3937007874015748,"duration":0.18108979791665547},{"name":"B4","midi":71,"time":135.76927149999943,"velocity":0.3937007874015748,"duration":0.18108979791665547},{"name":"E5","midi":76,"time":135.96157924999943,"velocity":0.3937007874015748,"duration":0.18108979791665547},{"name":"F#4","midi":66,"time":136.15388699999943,"velocity":0.3937007874015748,"duration":0.18108979791665547},{"name":"A4","midi":69,"time":136.34619474999943,"velocity":0.3937007874015748,"duration":0.18108979791665547},{"name":"B4","midi":71,"time":136.53850249999942,"velocity":0.3937007874015748,"duration":0.18108979791665547},{"name":"E5","midi":76,"time":136.73081024999942,"velocity":0.3937007874015748,"duration":0.18108979791665547},{"name":"F#4","midi":66,"time":136.92311799999942,"velocity":0.3937007874015748,"duration":0.18108979791665547},{"name":"A4","midi":69,"time":137.11542574999942,"velocity":0.3937007874015748,"duration":0.18108979791665547},{"name":"B4","midi":71,"time":137.30773349999942,"velocity":0.3937007874015748,"duration":0.18108979791665547},{"name":"E5","midi":76,"time":137.5000412499994,"velocity":0.3937007874015748,"duration":0.18108979791665547},{"name":"D4","midi":62,"time":137.6923489999994,"velocity":0.3937007874015748,"duration":0.18108979791665547},{"name":"F4","midi":65,"time":137.8846567499994,"velocity":0.3937007874015748,"duration":0.18108979791665547},{"name":"G4","midi":67,"time":138.0769644999994,"velocity":0.3937007874015748,"duration":0.18108979791665547},{"name":"C5","midi":72,"time":138.2692722499994,"velocity":0.3937007874015748,"duration":0.18108979791665547},{"name":"D4","midi":62,"time":138.4615799999994,"velocity":0.3937007874015748,"duration":0.18108979791665547},{"name":"F4","midi":65,"time":138.6538877499994,"velocity":0.3937007874015748,"duration":0.18108979791665547},{"name":"G4","midi":67,"time":138.8461954999994,"velocity":0.3937007874015748,"duration":0.18108979791665547},{"name":"C5","midi":72,"time":139.0385032499994,"velocity":0.3937007874015748,"duration":0.18108979791665547},{"name":"D4","midi":62,"time":139.2308109999994,"velocity":0.3937007874015748,"duration":0.18108979791665547},{"name":"F4","midi":65,"time":139.4231187499994,"velocity":0.3937007874015748,"duration":0.18108979791665547},{"name":"G4","midi":67,"time":139.6154264999994,"velocity":0.3937007874015748,"duration":0.18108979791665547},{"name":"C5","midi":72,"time":139.80773424999938,"velocity":0.3937007874015748,"duration":0.18108979791665547},{"name":"D4","midi":62,"time":140.00004199999938,"velocity":0.3937007874015748,"duration":0.18108979791665547},{"name":"F4","midi":65,"time":140.19234974999938,"velocity":0.3937007874015748,"duration":0.18108979791665547},{"name":"G4","midi":67,"time":140.38465749999938,"velocity":0.3937007874015748,"duration":0.18108979791665547},{"name":"C5","midi":72,"time":140.57696524999938,"velocity":0.3937007874015748,"duration":0.18108979791665547},{"name":"E4","midi":64,"time":140.76927299999937,"velocity":0.3937007874015748,"duration":0.18108979791665547},{"name":"G4","midi":67,"time":140.96158074999937,"velocity":0.3937007874015748,"duration":0.18108979791665547},{"name":"A4","midi":69,"time":141.15388849999937,"velocity":0.3937007874015748,"duration":0.18108979791665547},{"name":"D5","midi":74,"time":141.34619624999937,"velocity":0.3937007874015748,"duration":0.7692309999999907},{"name":"E4","midi":64,"time":141.53850399999936,"velocity":0.3937007874015748,"duration":0.18108979791665547},{"name":"G4","midi":67,"time":141.73081174999936,"velocity":0.3937007874015748,"duration":0.18108979791665547},{"name":"A4","midi":69,"time":141.92311949999936,"velocity":0.3937007874015748,"duration":0.18108979791665547},{"name":"D5","midi":74,"time":142.11542724999936,"velocity":0.3937007874015748,"duration":0.18108979791665547},{"name":"E4","midi":64,"time":142.30773499999935,"velocity":0.3937007874015748,"duration":0.18108979791665547},{"name":"G4","midi":67,"time":142.50004274999935,"velocity":0.3937007874015748,"duration":0.18108979791665547},{"name":"A4","midi":69,"time":142.69235049999935,"velocity":0.3937007874015748,"duration":0.18108979791665547},{"name":"D5","midi":74,"time":142.88465824999935,"velocity":0.6299212598425197,"duration":0.18108979791665547},{"name":"F3","midi":53,"time":143.07696599999935,"velocity":0.6299212598425197,"duration":2.921475235416665},{"name":"F2","midi":41,"time":143.07696599999935,"velocity":0.6299212598425197,"duration":2.921475235416665},{"name":"E2","midi":40,"time":146.15388999999934,"velocity":0.6299212598425197,"duration":2.921475235416665},{"name":"E3","midi":52,"time":146.15388999999934,"velocity":0.6299212598425197,"duration":2.921475235416665},{"name":"D#2","midi":39,"time":149.23081399999933,"velocity":0.6299212598425197,"duration":2.190705785416668},{"name":"D#3","midi":51,"time":149.23081399999933,"velocity":0.6299212598425197,"duration":2.190705785416668},{"name":"G#3","midi":56,"time":149.23081399999933,"velocity":0.6299212598425197,"duration":2.190705785416668},{"name":"D#2","midi":39,"time":151.53850699999933,"velocity":0.6299212598425197,"duration":0.7291668854166744},{"name":"D#3","midi":51,"time":151.53850699999933,"velocity":0.6299212598425197,"duration":0.7291668854166744},{"name":"A1","midi":33,"time":152.30773799999935,"velocity":0.3858267716535433,"duration":2.921475235416665},{"name":"A2","midi":45,"time":152.30773799999935,"velocity":0.3858267716535433,"duration":2.921475235416665},{"name":"F3","midi":53,"time":155.38466199999934,"velocity":0.3858267716535433,"duration":3.0753214354166403},{"name":"B3","midi":59,"time":155.48562356874933,"velocity":0.3858267716535433,"duration":2.9727573020833233},{"name":"E4","midi":64,"time":155.58658513749933,"velocity":0.3858267716535433,"duration":2.871795733333329},{"name":"E3","midi":52,"time":158.4615859999993,"velocity":0.3858267716535433,"duration":3.0753214354166403},{"name":"A3","midi":57,"time":158.5625475687493,"velocity":0.3858267716535433,"duration":2.9727573020833233},{"name":"D4","midi":62,"time":158.6635091374993,"velocity":0.3858267716535433,"duration":2.871795733333329},{"name":"D3","midi":50,"time":161.53850999999926,"velocity":0.3858267716535433,"duration":0.3637821604166618},{"name":"A3","midi":57,"time":161.92312549999926,"velocity":0.3858267716535433,"duration":0.3637821604166618},{"name":"E4","midi":64,"time":162.30774099999925,"velocity":0.3858267716535433,"duration":0.3637821604166618},{"name":"F4","midi":65,"time":162.69235649999925,"velocity":0.3858267716535433,"duration":1.8253210604166554},{"name":"B2","midi":47,"time":164.61543399999923,"velocity":0.3858267716535433,"duration":0.3637821604166618},{"name":"F#3","midi":54,"time":165.00004949999922,"velocity":0.3858267716535433,"duration":0.3637821604166618},{"name":"A3","midi":57,"time":165.38466499999922,"velocity":0.3858267716535433,"duration":0.3637821604166618},{"name":"B3","midi":59,"time":165.7692804999992,"velocity":0.3858267716535433,"duration":0.3637821604166618},{"name":"E3","midi":52,"time":166.1538959999992,"velocity":0.3858267716535433,"duration":1.4599363354166712},{"name":"A3","midi":57,"time":167.69235799999922,"velocity":0.4645669291338583,"duration":0.3637821604166618},{"name":"E4","midi":64,"time":168.0769734999992,"velocity":0.4645669291338583,"duration":0.3637821604166618},{"name":"C5","midi":72,"time":168.4615889999992,"velocity":0.4645669291338583,"duration":0.3637821604166618},{"name":"E4","midi":64,"time":168.8462044999992,"velocity":0.4645669291338583,"duration":0.3637821604166618},{"name":"G3","midi":55,"time":169.2308199999992,"velocity":0.4645669291338583,"duration":0.3637821604166618},{"name":"E4","midi":64,"time":169.6154354999992,"velocity":0.4645669291338583,"duration":0.3637821604166618},{"name":"B4","midi":71,"time":170.0000509999992,"velocity":0.4645669291338583,"duration":0.19230774999999767},{"name":"E4","midi":64,"time":170.38466649999918,"velocity":0.4645669291338583,"duration":0.3637821604166618},{"name":"F3","midi":53,"time":170.76928199999918,"velocity":0.4645669291338583,"duration":0.3637821604166618},{"name":"C4","midi":60,"time":171.15389749999918,"velocity":0.4645669291338583,"duration":0.3637821604166618},{"name":"A4","midi":69,"time":171.53851299999917,"velocity":0.4645669291338583,"duration":0.19230774999999767},{"name":"C4","midi":60,"time":171.92312849999917,"velocity":0.4645669291338583,"duration":0.3637821604166618},{"name":"E3","midi":52,"time":172.30774399999916,"velocity":0.4645669291338583,"duration":0.3637821604166618},{"name":"C4","midi":60,"time":172.69235949999916,"velocity":0.4645669291338583,"duration":0.3637821604166618},{"name":"G4","midi":67,"time":173.07697499999915,"velocity":0.4645669291338583,"duration":0.38461549999999534},{"name":"D#3","midi":51,"time":173.84620599999914,"velocity":0.4645669291338583,"duration":1.4599363354166712},{"name":"G3","midi":55,"time":173.84620599999914,"velocity":0.4645669291338583,"duration":1.4599363354166712},{"name":"C4","midi":60,"time":173.84620599999914,"velocity":0.4645669291338583,"duration":1.4599363354166712},{"name":"D3","midi":50,"time":175.38466799999915,"velocity":0.4645669291338583,"duration":1.4599363354166712},{"name":"F3","midi":53,"time":175.38466799999915,"velocity":0.4645669291338583,"duration":1.4599363354166712},{"name":"C4","midi":60,"time":175.38466799999915,"velocity":0.4645669291338583,"duration":0.7692309999999907},{"name":"D#3","midi":51,"time":176.92312999999916,"velocity":0.4645669291338583,"duration":1.4599363354166712},{"name":"G2","midi":43,"time":178.46159199999917,"velocity":0.4645669291338583,"duration":1.4599363354166712},{"name":"D3","midi":50,"time":178.46159199999917,"velocity":0.4645669291338583,"duration":1.4599363354166712},{"name":"A2","midi":45,"time":180.00005399999918,"velocity":0.4645669291338583,"duration":0.3637821604166618},{"name":"E3","midi":52,"time":180.38466949999918,"velocity":0.4645669291338583,"duration":0.3637821604166618},{"name":"C4","midi":60,"time":180.76928499999917,"velocity":0.4645669291338583,"duration":0.3637821604166618},{"name":"E3","midi":52,"time":181.15390049999917,"velocity":0.4645669291338583,"duration":0.3637821604166618},{"name":"G2","midi":43,"time":181.53851599999916,"velocity":0.4645669291338583,"duration":0.3637821604166618},{"name":"E3","midi":52,"time":181.92313149999916,"velocity":0.4645669291338583,"duration":0.3637821604166618},{"name":"B3","midi":59,"time":182.30774699999915,"velocity":0.4645669291338583,"duration":0.3637821604166618},{"name":"E3","midi":52,"time":182.69236249999915,"velocity":0.4645669291338583,"duration":0.3637821604166618},{"name":"F2","midi":41,"time":183.07697799999914,"velocity":0.4645669291338583,"duration":0.3637821604166618},{"name":"C3","midi":48,"time":183.46159349999914,"velocity":0.4645669291338583,"duration":0.3637821604166618},{"name":"A3","midi":57,"time":183.84620899999913,"velocity":0.4645669291338583,"duration":0.3637821604166618},{"name":"C3","midi":48,"time":184.23082449999913,"velocity":0.4645669291338583,"duration":0.3637821604166618},{"name":"E2","midi":40,"time":184.61543999999913,"velocity":0.4645669291338583,"duration":0.3637821604166618},{"name":"C3","midi":48,"time":185.00005549999912,"velocity":0.4645669291338583,"duration":0.3637821604166618},{"name":"G3","midi":55,"time":185.38467099999912,"velocity":0.4645669291338583,"duration":0.3637821604166618},{"name":"C3","midi":48,"time":185.7692864999991,"velocity":0.4645669291338583,"duration":0.3637821604166618},{"name":"D#3","midi":51,"time":186.1539019999991,"velocity":0.4645669291338583,"duration":0.3637821604166618},{"name":"G3","midi":55,"time":186.5385174999991,"velocity":0.4645669291338583,"duration":0.3637821604166618},{"name":"C4","midi":60,"time":186.9231329999991,"velocity":0.4645669291338583,"duration":0.3637821604166618},{"name":"G3","midi":55,"time":187.3077484999991,"velocity":0.4645669291338583,"duration":0.3637821604166618},{"name":"D3","midi":50,"time":187.6923639999991,"velocity":0.4645669291338583,"duration":0.3637821604166618},{"name":"F3","midi":53,"time":188.07697949999908,"velocity":0.4645669291338583,"duration":0.3637821604166618},{"name":"C4","midi":60,"time":188.46159499999908,"velocity":0.4645669291338583,"duration":0.3637821604166618},{"name":"F3","midi":53,"time":188.84621049999907,"velocity":0.4645669291338583,"duration":0.3637821604166618},{"name":"C#3","midi":49,"time":189.23082599999907,"velocity":0.4645669291338583,"duration":0.3637821604166618},{"name":"F3","midi":53,"time":189.61544149999906,"velocity":0.4645669291338583,"duration":0.3637821604166618},{"name":"A#3","midi":58,"time":190.00005699999906,"velocity":0.4645669291338583,"duration":0.3637821604166618},{"name":"F3","midi":53,"time":190.38467249999906,"velocity":0.4645669291338583,"duration":0.3637821604166618},{"name":"C3","midi":48,"time":190.76928799999905,"velocity":0.4645669291338583,"duration":0.3637821604166618},{"name":"E3","midi":52,"time":191.15390349999905,"velocity":0.4645669291338583,"duration":0.3637821604166618},{"name":"A#3","midi":58,"time":191.53851899999904,"velocity":0.4645669291338583,"duration":0.3637821604166618},{"name":"E3","midi":52,"time":191.92313449999904,"velocity":0.4645669291338583,"duration":0.3637821604166618},{"name":"F2","midi":41,"time":192.30774999999903,"velocity":0.4645669291338583,"duration":0.3637821604166618},{"name":"C3","midi":48,"time":192.69236549999903,"velocity":0.4645669291338583,"duration":0.3637821604166618},{"name":"G#3","midi":56,"time":193.07698099999902,"velocity":0.4645669291338583,"duration":0.3637821604166618},{"name":"C3","midi":48,"time":193.46159649999902,"velocity":0.4645669291338583,"duration":0.3637821604166618},{"name":"D#2","midi":39,"time":193.846211999999,"velocity":0.4645669291338583,"duration":0.3637821604166618},{"name":"C3","midi":48,"time":194.230827499999,"velocity":0.4645669291338583,"duration":0.3637821604166618},{"name":"G3","midi":55,"time":194.615442999999,"velocity":0.4645669291338583,"duration":0.3637821604166618},{"name":"C3","midi":48,"time":195.000058499999,"velocity":0.4645669291338583,"duration":0.3637821604166618},{"name":"D2","midi":38,"time":195.384673999999,"velocity":0.4645669291338583,"duration":0.3637821604166618},{"name":"D3","midi":50,"time":195.769289499999,"velocity":0.4645669291338583,"duration":0.3637821604166618},{"name":"F3","midi":53,"time":196.15390499999899,"velocity":0.4645669291338583,"duration":0.3637821604166618},{"name":"G#3","midi":56,"time":196.53852049999898,"velocity":0.4645669291338583,"duration":0.3637821604166618},{"name":"C4","midi":60,"time":196.92313599999898,"velocity":0.4645669291338583,"duration":0.3637821604166618},{"name":"G#3","midi":56,"time":197.30775149999897,"velocity":0.4645669291338583,"duration":0.3637821604166618},{"name":"F3","midi":53,"time":197.69236699999897,"velocity":0.4645669291338583,"duration":0.3637821604166618},{"name":"G#3","midi":56,"time":198.07698249999896,"velocity":0.4645669291338583,"duration":0.3637821604166618},{"name":"G2","midi":43,"time":198.46159799999896,"velocity":0.4645669291338583,"duration":0.3637821604166618},{"name":"D3","midi":50,"time":198.84621349999895,"velocity":0.4645669291338583,"duration":0.3637821604166618},{"name":"G3","midi":55,"time":199.23082899999895,"velocity":0.4645669291338583,"duration":0.3637821604166618},{"name":"B3","midi":59,"time":199.61544449999894,"velocity":0.4645669291338583,"duration":0.3637821604166618},{"name":"D4","midi":62,"time":200.00005999999894,"velocity":0.4645669291338583,"duration":1.4599363354166712},{"name":"F3","midi":53,"time":201.53852199999895,"velocity":0.4645669291338583,"duration":0.7291668854166744},{"name":"A3","midi":57,"time":201.53852199999895,"velocity":0.4645669291338583,"duration":0.7291668854166744},{"name":"B3","midi":59,"time":201.53852199999895,"velocity":0.4645669291338583,"duration":0.7291668854166744},{"name":"E4","midi":64,"time":201.53852199999895,"velocity":0.4645669291338583,"duration":0.7291668854166744},{"name":"F3","midi":53,"time":202.30775299999897,"velocity":0.4645669291338583,"duration":0.3637821604166618},{"name":"A3","midi":57,"time":202.69236849999896,"velocity":0.4645669291338583,"duration":0.3637821604166618},{"name":"B3","midi":59,"time":203.07698399999896,"velocity":0.4645669291338583,"duration":0.3637821604166618},{"name":"E4","midi":64,"time":203.46159949999895,"velocity":0.4645669291338583,"duration":0.3637821604166618}]}]}