{"header":{"title":"Nuvole Bianche","artist":"Ludovico Einaudi","source":"https://musescore.com/miguel_ingelbeen/nuvole-bianche---ludovico-einoudi","bpm":40.00002666668444,"duration":893.883779077101},"tracks":[{"instrument_number":0,"notes":[{"name":"C4","midi":60,"time":0,"velocity":0.5039370078740157,"duration":2.8468731020833333},{"name":"C#4","midi":61,"time":2.999998,"velocity":0.5039370078740157,"duration":2.8468731020833338},{"name":"C4","midi":60,"time":5.999996,"velocity":0.5039370078740157,"duration":2.8468731020833333},{"name":"A#3","midi":58,"time":8.999994000000001,"velocity":0.5039370078740157,"duration":2.8468731020833324},{"name":"C4","midi":60,"time":11.999992,"velocity":0.5039370078740157,"duration":2.846873102083334},{"name":"C#4","midi":61,"time":14.999990000000002,"velocity":0.5039370078740157,"duration":2.846873102083334},{"name":"C4","midi":60,"time":17.999988000000002,"velocity":0.5039370078740157,"duration":2.8468731020833324},{"name":"D#4","midi":63,"time":17.999988000000002,"velocity":0.5039370078740157,"duration":2.8468731020833324},{"name":"A#3","midi":58,"time":20.999986,"velocity":0.5039370078740157,"duration":2.8468731020833324},{"name":"D#4","midi":63,"time":20.999986,"velocity":0.5039370078740157,"duration":2.8468731020833324},{"name":"A#4","midi":70,"time":23.999983999999998,"velocity":0.3858267716535433,"duration":0.7093745270833338},{"name":"F4","midi":65,"time":23.999983999999998,"velocity":0.3858267716535433,"duration":4.271872152083333},{"name":"G#4","midi":68,"time":24.7499835,"velocity":0.3858267716535433,"duration":1.4218740520833322},{"name":"G#4","midi":68,"time":26.249982499999998,"velocity":0.3858267716535433,"duration":1.4218740520833322},{"name":"G#4","midi":68,"time":27.749981499999997,"velocity":0.3858267716535433,"duration":0.7093745270833338},{"name":"A#4","midi":70,"time":28.499981,"velocity":0.3858267716535433,"duration":0.7093745270833338},{"name":"F4","midi":65,"time":28.499981,"velocity":0.3858267716535433,"duration":4.271872152083333},{"name":"G#4","midi":68,"time":29.2499805,"velocity":0.3858267716535433,"duration":1.4218740520833322},{"name":"G#4","midi":68,"time":30.7499795,"velocity":0.3858267716535433,"duration":1.4218740520833357},{"name":"G#4","midi":68,"time":32.2499785,"velocity":0.3858267716535433,"duration":0.7093745270833338},{"name":"A#4","midi":70,"time":32.999978,"velocity":0.3858267716535433,"duration":0.7093745270833338},{"name":"F4","midi":65,"time":32.999978,"velocity":0.3858267716535433,"duration":4.271872152083326},{"name":"G#4","midi":68,"time":33.7499775,"velocity":0.3858267716535433,"duration":1.4218740520833322},{"name":"G#4","midi":68,"time":35.249976499999995,"velocity":0.3858267716535433,"duration":1.4218740520833322},{"name":"G#4","midi":68,"time":36.74997549999999,"velocity":0.3858267716535433,"duration":0.7093745270833338},{"name":"A#4","midi":70,"time":37.49997499999999,"velocity":0.3858267716535433,"duration":0.7093745270833338},{"name":"F4","midi":65,"time":37.49997499999999,"velocity":0.3858267716535433,"duration":4.271872152083326},{"name":"G#4","midi":68,"time":38.24997449999999,"velocity":0.3858267716535433,"duration":1.4218740520833322},{"name":"G#4","midi":68,"time":39.74997349999999,"velocity":0.3858267716535433,"duration":1.4218740520833322},{"name":"G#4","midi":68,"time":41.249972499999984,"velocity":0.3858267716535433,"duration":0.7093745270833338},{"name":"C#5","midi":73,"time":41.999971999999985,"velocity":0.3858267716535433,"duration":0.7093745270833338},{"name":"D#4","midi":63,"time":41.999971999999985,"velocity":0.3858267716535433,"duration":4.271872152083326},{"name":"C5","midi":72,"time":42.74997149999999,"velocity":0.3858267716535433,"duration":1.4218740520833322},{"name":"C5","midi":72,"time":44.24997049999998,"velocity":0.3858267716535433,"duration":1.4218740520833322},{"name":"C5","midi":72,"time":45.74996949999998,"velocity":0.3858267716535433,"duration":0.7093745270833338},{"name":"C#5","midi":73,"time":46.49996899999998,"velocity":0.3858267716535433,"duration":0.7093745270833338},{"name":"D#4","midi":63,"time":46.49996899999998,"velocity":0.3858267716535433,"duration":3.5593726270833272},{"name":"C5","midi":72,"time":47.24996849999998,"velocity":0.3858267716535433,"duration":1.4218740520833322},{"name":"C5","midi":72,"time":48.749967499999975,"velocity":0.3858267716535433,"duration":1.4218740520833322},{"name":"D#4","midi":63,"time":50.24996649999997,"velocity":0.3858267716535433,"duration":0.7093745270833338},{"name":"D#4","midi":63,"time":50.24996649999997,"velocity":0.3858267716535433,"duration":4.271872152083333},{"name":"C5","midi":72,"time":50.99996599999997,"velocity":0.3858267716535433,"duration":0.7093745270833338},{"name":"A#4","midi":70,"time":51.74996549999997,"velocity":0.3858267716535433,"duration":1.4218740520833322},{"name":"A#4","midi":70,"time":53.24996449999997,"velocity":0.3858267716535433,"duration":1.4218740520833322},{"name":"D#4","midi":63,"time":54.749963499999964,"velocity":0.3858267716535433,"duration":0.7093745270833338},{"name":"D#4","midi":63,"time":54.749963499999964,"velocity":0.3858267716535433,"duration":4.271872152083333},{"name":"C#5","midi":73,"time":55.499962999999966,"velocity":0.3858267716535433,"duration":0.7093745270833338},{"name":"C5","midi":72,"time":56.24996249999997,"velocity":0.3858267716535433,"duration":1.4218740520833322},{"name":"A#4","midi":70,"time":57.74996149999996,"velocity":0.3858267716535433,"duration":1.4218740520833322},{"name":"D#4","midi":63,"time":59.24996049999996,"velocity":0.3858267716535433,"duration":0.7093745270833338},{"name":"D#4","midi":63,"time":59.24996049999996,"velocity":0.3858267716535433,"duration":9.259368827083307},{"name":"A#4","midi":70,"time":59.99995999999996,"velocity":0.3858267716535433,"duration":0.7093745270833338},{"name":"G#4","midi":68,"time":60.74995949999996,"velocity":0.3858267716535433,"duration":1.4218740520833322},{"name":"G#4","midi":68,"time":62.249958499999956,"velocity":0.3858267716535433,"duration":1.4218740520833322},{"name":"G#4","midi":68,"time":63.74995749999995,"velocity":0.3858267716535433,"duration":0.7093745270833267},{"name":"A#4","midi":70,"time":64.49995699999994,"velocity":0.3858267716535433,"duration":0.7093745270833267},{"name":"G#4","midi":68,"time":65.24995649999993,"velocity":0.3858267716535433,"duration":1.4218740520833393},{"name":"G#4","midi":68,"time":66.74995549999993,"velocity":0.3858267716535433,"duration":1.4218740520833393},{"name":"G#4","midi":68,"time":68.24995449999993,"velocity":0.3858267716535433,"duration":0.7093745270833409},{"name":"G4","midi":67,"time":68.99995399999993,"velocity":0.3858267716535433,"duration":0.7093745270833267},{"name":"F4","midi":65,"time":69.74995349999992,"velocity":0.3858267716535433,"duration":1.4218740520833393},{"name":"F4","midi":65,"time":71.24995249999992,"velocity":0.3858267716535433,"duration":1.4218740520833393},{"name":"F4","midi":65,"time":72.74995149999992,"velocity":0.3858267716535433,"duration":0.7093745270833267},{"name":"G4","midi":67,"time":73.49995099999991,"velocity":0.3858267716535433,"duration":0.7093745270833267},{"name":"F4","midi":65,"time":74.2499504999999,"velocity":0.3858267716535433,"duration":1.4218740520833393},{"name":"F4","midi":65,"time":75.7499494999999,"velocity":0.3858267716535433,"duration":1.4218740520833393},{"name":"F4","midi":65,"time":77.2499484999999,"velocity":0.3858267716535433,"duration":0.7093745270833267},{"name":"D#4","midi":63,"time":77.99994799999989,"velocity":0.3858267716535433,"duration":0.7093745270833267},{"name":"D#4","midi":63,"time":77.99994799999989,"velocity":0.3858267716535433,"duration":7.834369777083296},{"name":"C5","midi":72,"time":78.74994749999988,"velocity":0.3858267716535433,"duration":1.4218740520833393},{"name":"C5","midi":72,"time":80.24994649999988,"velocity":0.3858267716535433,"duration":1.4218740520833393},{"name":"C5","midi":72,"time":81.74994549999988,"velocity":0.3858267716535433,"duration":0.7093745270833267},{"name":"C#5","midi":73,"time":82.49994499999987,"velocity":0.3858267716535433,"duration":0.7093745270833267},{"name":"C5","midi":72,"time":83.24994449999986,"velocity":0.3858267716535433,"duration":1.4218740520833393},{"name":"C5","midi":72,"time":84.74994349999986,"velocity":0.3858267716535433,"duration":1.421874052083325},{"name":"D#4","midi":63,"time":86.24994249999985,"velocity":0.3858267716535433,"duration":0.7093745270833267},{"name":"D#4","midi":63,"time":86.24994249999985,"velocity":0.3858267716535433,"duration":4.271872152083304},{"name":"C5","midi":72,"time":86.99994199999983,"velocity":0.3858267716535433,"duration":0.7093745270833267},{"name":"A#4","midi":70,"time":87.74994149999982,"velocity":0.3858267716535433,"duration":1.4218740520833393},{"name":"A#4","midi":70,"time":89.24994049999982,"velocity":0.3858267716535433,"duration":1.421874052083325},{"name":"D#4","midi":63,"time":90.74993949999981,"velocity":0.3858267716535433,"duration":0.7093745270833267},{"name":"D#4","midi":63,"time":90.74993949999981,"velocity":0.3858267716535433,"duration":4.271872152083304},{"name":"C#5","midi":73,"time":91.4999389999998,"velocity":0.3858267716535433,"duration":0.7093745270833267},{"name":"C5","midi":72,"time":92.24993849999979,"velocity":0.3858267716535433,"duration":1.4218740520833393},{"name":"A#4","midi":70,"time":93.74993749999979,"velocity":0.3858267716535433,"duration":1.421874052083325},{"name":"D#4","midi":63,"time":95.24993649999978,"velocity":0.3858267716535433,"duration":0.7093745270833267},{"name":"D#4","midi":63,"time":95.24993649999978,"velocity":0.3858267716535433,"duration":9.259368827083293},{"name":"A#4","midi":70,"time":95.99993599999976,"velocity":0.3858267716535433,"duration":0.7093745270833267},{"name":"G#4","midi":68,"time":96.74993549999975,"velocity":0.3858267716535433,"duration":1.4218740520833393},{"name":"G#4","midi":68,"time":98.24993449999975,"velocity":0.3858267716535433,"duration":1.4218740520833393},{"name":"G#4","midi":68,"time":99.74993349999976,"velocity":0.3858267716535433,"duration":0.7093745270833267},{"name":"A#4","midi":70,"time":100.49993299999974,"velocity":0.3858267716535433,"duration":0.7093745270833267},{"name":"G#4","midi":68,"time":101.24993249999973,"velocity":0.3858267716535433,"duration":1.4218740520833393},{"name":"G#4","midi":68,"time":102.74993149999973,"velocity":0.3858267716535433,"duration":1.4218740520833393},{"name":"G#4","midi":68,"time":104.24993049999973,"velocity":0.3858267716535433,"duration":0.7093745270833409},{"name":"A#4","midi":70,"time":104.99992999999974,"velocity":0.3858267716535433,"duration":0.7093745270833267},{"name":"G#4","midi":68,"time":105.74992949999972,"velocity":0.3858267716535433,"duration":1.4218740520833393},{"name":"G#4","midi":68,"time":107.24992849999973,"velocity":0.3858267716535433,"duration":1.4218740520833393},{"name":"G#4","midi":68,"time":108.74992749999973,"velocity":0.3858267716535433,"duration":0.7093745270833267},{"name":"A#4","midi":70,"time":109.49992699999972,"velocity":0.3858267716535433,"duration":0.7093745270833267},{"name":"G#4","midi":68,"time":110.2499264999997,"velocity":0.3858267716535433,"duration":1.4218740520833393},{"name":"G#4","midi":68,"time":111.7499254999997,"velocity":0.3858267716535433,"duration":1.4218740520833393},{"name":"G#4","midi":68,"time":113.24992449999971,"velocity":0.3858267716535433,"duration":0.7093745270833267},{"name":"C#5","midi":73,"time":113.9999239999997,"velocity":0.3858267716535433,"duration":0.7093745270833267},{"name":"C5","midi":72,"time":114.74992349999968,"velocity":0.3858267716535433,"duration":1.4218740520833393},{"name":"D#4","midi":63,"time":114.74992349999968,"velocity":0.3858267716535433,"duration":3.5593726270833344},{"name":"C5","midi":72,"time":116.24992249999968,"velocity":0.3858267716535433,"duration":1.4218740520833393},{"name":"C5","midi":72,"time":117.74992149999969,"velocity":0.3858267716535433,"duration":0.7093745270833267},{"name":"C#5","midi":73,"time":118.49992099999967,"velocity":0.3858267716535433,"duration":0.7093745270833267},{"name":"C5","midi":72,"time":119.24992049999966,"velocity":0.3858267716535433,"duration":1.4218740520833393},{"name":"D#4","midi":63,"time":119.24992049999966,"velocity":0.3858267716535433,"duration":2.846873102083336},{"name":"C5","midi":72,"time":120.74991949999966,"velocity":0.3858267716535433,"duration":1.4218740520833393},{"name":"D#4","midi":63,"time":122.24991849999967,"velocity":0.3858267716535433,"duration":0.7093745270833267},{"name":"D#4","midi":63,"time":122.24991849999967,"velocity":0.3858267716535433,"duration":4.271872152083304},{"name":"C5","midi":72,"time":122.99991799999965,"velocity":0.3858267716535433,"duration":0.7093745270833267},{"name":"A#4","midi":70,"time":123.74991749999964,"velocity":0.3858267716535433,"duration":1.4218740520833393},{"name":"A#4","midi":70,"time":125.24991649999964,"velocity":0.3858267716535433,"duration":1.421874052083325},{"name":"D#4","midi":63,"time":126.74991549999963,"velocity":0.3858267716535433,"duration":0.7093745270833267},{"name":"D#4","midi":63,"time":126.74991549999963,"velocity":0.3858267716535433,"duration":4.271872152083333},{"name":"C#5","midi":73,"time":127.49991499999962,"velocity":0.3858267716535433,"duration":0.7093745270833267},{"name":"C5","midi":72,"time":128.24991449999962,"velocity":0.3858267716535433,"duration":1.421874052083325},{"name":"A#4","midi":70,"time":129.74991349999962,"velocity":0.3858267716535433,"duration":1.4218740520833535},{"name":"D#4","midi":63,"time":131.24991249999965,"velocity":0.3858267716535433,"duration":0.7093745270833267},{"name":"D#4","midi":63,"time":131.24991249999965,"velocity":0.3858267716535433,"duration":9.259368827083335},{"name":"A#4","midi":70,"time":131.99991199999965,"velocity":0.3858267716535433,"duration":0.7093745270833267},{"name":"G#4","midi":68,"time":132.74991149999966,"velocity":0.3858267716535433,"duration":1.421874052083325},{"name":"G#4","midi":68,"time":134.24991049999966,"velocity":0.3858267716535433,"duration":1.421874052083325},{"name":"G#4","midi":68,"time":135.74990949999966,"velocity":0.3858267716535433,"duration":0.7093745270833267},{"name":"A#4","midi":70,"time":136.49990899999966,"velocity":0.3858267716535433,"duration":0.7093745270833267},{"name":"G#4","midi":68,"time":137.24990849999966,"velocity":0.3858267716535433,"duration":1.421874052083325},{"name":"G#4","midi":68,"time":138.74990749999967,"velocity":0.3858267716535433,"duration":1.421874052083325},{"name":"G#4","midi":68,"time":140.24990649999967,"velocity":0.3858267716535433,"duration":0.7093745270833267},{"name":"G4","midi":67,"time":140.99990599999967,"velocity":0.3858267716535433,"duration":0.7093745270833267},{"name":"F4","midi":65,"time":141.74990549999967,"velocity":0.3858267716535433,"duration":1.421874052083325},{"name":"F4","midi":65,"time":143.24990449999967,"velocity":0.3858267716535433,"duration":1.421874052083325},{"name":"F4","midi":65,"time":144.74990349999968,"velocity":0.3858267716535433,"duration":0.7093745270833267},{"name":"G4","midi":67,"time":145.49990299999968,"velocity":0.3858267716535433,"duration":0.7093745270833267},{"name":"F4","midi":65,"time":146.24990249999968,"velocity":0.3858267716535433,"duration":1.421874052083325},{"name":"F4","midi":65,"time":147.74990149999968,"velocity":0.3858267716535433,"duration":1.421874052083325},{"name":"F4","midi":65,"time":149.24990049999968,"velocity":0.3858267716535433,"duration":0.7093745270833267},{"name":"D#4","midi":63,"time":149.99989999999968,"velocity":0.3858267716535433,"duration":0.7093745270833267},{"name":"D#4","midi":63,"time":149.99989999999968,"velocity":0.3858267716535433,"duration":4.271872152083347},{"name":"C5","midi":72,"time":150.74989949999969,"velocity":0.3858267716535433,"duration":1.421874052083325},{"name":"C5","midi":72,"time":152.2498984999997,"velocity":0.3858267716535433,"duration":1.421874052083325},{"name":"C5","midi":72,"time":153.7498974999997,"velocity":0.3858267716535433,"duration":0.7093745270833267},{"name":"C#5","midi":73,"time":154.4998969999997,"velocity":0.3858267716535433,"duration":0.7093745270833267},{"name":"D#4","midi":63,"time":154.4998969999997,"velocity":0.3858267716535433,"duration":3.5593726270833486},{"name":"C5","midi":72,"time":155.2498964999997,"velocity":0.3858267716535433,"duration":1.421874052083325},{"name":"C5","midi":72,"time":156.7498954999997,"velocity":0.3858267716535433,"duration":1.4218740520833535},{"name":"D#4","midi":63,"time":158.24989449999973,"velocity":0.3858267716535433,"duration":0.7093745270833267},{"name":"D#4","midi":63,"time":158.24989449999973,"velocity":0.3858267716535433,"duration":4.271872152083347},{"name":"C5","midi":72,"time":158.99989399999973,"velocity":0.3858267716535433,"duration":0.7093745270833267},{"name":"A#4","midi":70,"time":159.74989349999973,"velocity":0.3858267716535433,"duration":1.421874052083325},{"name":"A#4","midi":70,"time":161.24989249999973,"velocity":0.3858267716535433,"duration":1.4218740520833535},{"name":"D#4","midi":63,"time":162.74989149999976,"velocity":0.3858267716535433,"duration":0.7093745270833267},{"name":"D#4","midi":63,"time":162.74989149999976,"velocity":0.3858267716535433,"duration":4.271872152083347},{"name":"C#5","midi":73,"time":163.49989099999976,"velocity":0.3858267716535433,"duration":0.7093745270833267},{"name":"C5","midi":72,"time":164.24989049999976,"velocity":0.3858267716535433,"duration":1.421874052083325},{"name":"A#4","midi":70,"time":165.74988949999977,"velocity":0.3858267716535433,"duration":1.4218740520833535},{"name":"D#4","midi":63,"time":167.2498884999998,"velocity":0.3858267716535433,"duration":0.7093745270833267},{"name":"D#4","midi":63,"time":167.2498884999998,"velocity":0.3858267716535433,"duration":4.984371677083345},{"name":"G#4","midi":68,"time":167.9998879999998,"velocity":0.5039370078740157,"duration":4.984371677083345},{"name":"D#4","midi":63,"time":173.2498844999998,"velocity":0.5039370078740157,"duration":0.7093745270833267},{"name":"A#4","midi":70,"time":173.9998839999998,"velocity":0.5039370078740157,"duration":0.7093745270833267},{"name":"C5","midi":72,"time":174.7498834999998,"velocity":0.5039370078740157,"duration":0.7093745270833267},{"name":"A#4","midi":70,"time":175.4998829999998,"velocity":0.5039370078740157,"duration":0.7093745270833267},{"name":"G#4","midi":68,"time":176.2498824999998,"velocity":0.5039370078740157,"duration":5.696871202083344},{"name":"D#4","midi":63,"time":182.24987849999982,"velocity":0.5039370078740157,"duration":0.7093745270833267},{"name":"A#4","midi":70,"time":182.99987799999982,"velocity":0.5039370078740157,"duration":0.7093745270833267},{"name":"C5","midi":72,"time":183.74987749999983,"velocity":0.5039370078740157,"duration":0.7093745270833267},{"name":"A#4","midi":70,"time":184.49987699999983,"velocity":0.5039370078740157,"duration":0.7093745270833267},{"name":"G#4","midi":68,"time":185.24987649999983,"velocity":0.5039370078740157,"duration":2.846873102083322},{"name":"C5","midi":72,"time":185.99987599999983,"velocity":0.5039370078740157,"duration":4.984371677083317},{"name":"D#4","midi":63,"time":188.2498744999998,"velocity":0.5039370078740157,"duration":2.84687310208335},{"name":"D#4","midi":63,"time":191.2498724999998,"velocity":0.5039370078740157,"duration":0.7093745270833267},{"name":"A#4","midi":70,"time":191.9998719999998,"velocity":0.5039370078740157,"duration":0.7093745270833267},{"name":"C5","midi":72,"time":192.7498714999998,"velocity":0.5039370078740157,"duration":0.7093745270833267},{"name":"A#4","midi":70,"time":193.4998709999998,"velocity":0.5039370078740157,"duration":0.7093745270833267},{"name":"G#4","midi":68,"time":194.24987049999982,"velocity":0.5039370078740157,"duration":2.846873102083322},{"name":"A#4","midi":70,"time":194.99986999999982,"velocity":0.5039370078740157,"duration":4.984371677083317},{"name":"D#4","midi":63,"time":197.2498684999998,"velocity":0.5039370078740157,"duration":2.84687310208335},{"name":"D#4","midi":63,"time":200.2498664999998,"velocity":0.5039370078740157,"duration":0.7093745270833267},{"name":"A#4","midi":70,"time":200.9998659999998,"velocity":0.5039370078740157,"duration":0.7093745270833267},{"name":"C5","midi":72,"time":201.7498654999998,"velocity":0.5039370078740157,"duration":0.7093745270833267},{"name":"A#4","midi":70,"time":202.4998649999998,"velocity":0.5039370078740157,"duration":0.7093745270833267},{"name":"G#4","midi":68,"time":203.2498644999998,"velocity":0.5039370078740157,"duration":0.7093745270833267},{"name":"A#4","midi":70,"time":203.9998639999998,"velocity":0.5039370078740157,"duration":0.7093745270833267},{"name":"G#4","midi":68,"time":204.7498634999998,"velocity":0.5039370078740157,"duration":0.7093745270833267},{"name":"D#4","midi":63,"time":205.4998629999998,"velocity":0.5039370078740157,"duration":3.55937262708332},{"name":"D#4","midi":63,"time":209.24986049999978,"velocity":0.5039370078740157,"duration":26.35935742708338},{"name":"A#4","midi":70,"time":209.99985999999979,"velocity":0.5039370078740157,"duration":0.7093745270833267},{"name":"C5","midi":72,"time":210.7498594999998,"velocity":0.5039370078740157,"duration":0.7093745270833267},{"name":"A#4","midi":70,"time":211.4998589999998,"velocity":0.5039370078740157,"duration":0.7093745270833267},{"name":"G#4","midi":68,"time":212.2498584999998,"velocity":0.5039370078740157,"duration":6.409370727083342},{"name":"A#4","midi":70,"time":218.9998539999998,"velocity":0.5039370078740157,"duration":0.7093745270833267},{"name":"C5","midi":72,"time":219.7498534999998,"velocity":0.5039370078740157,"duration":0.7093745270833267},{"name":"A#4","midi":70,"time":220.4998529999998,"velocity":0.5039370078740157,"duration":0.7093745270833267},{"name":"G#4","midi":68,"time":221.2498524999998,"velocity":0.5039370078740157,"duration":0.7093745270833267},{"name":"A#4","midi":70,"time":221.9998519999998,"velocity":0.5039370078740157,"duration":0.19687486875000104},{"name":"C5","midi":72,"time":222.19985186666648,"velocity":0.5039370078740157,"duration":5.503121331250014},{"name":"A#4","midi":70,"time":227.99984799999982,"velocity":0.5039370078740157,"duration":0.7093745270833267},{"name":"C5","midi":72,"time":228.74984749999982,"velocity":0.5039370078740157,"duration":0.7093745270833267},{"name":"A#4","midi":70,"time":229.49984699999982,"velocity":0.5039370078740157,"duration":0.7093745270833267},{"name":"G#4","midi":68,"time":230.24984649999982,"velocity":0.5039370078740157,"duration":0.7093745270833267},{"name":"G#4","midi":68,"time":230.99984599999982,"velocity":0.5039370078740157,"duration":7.12187025208334},{"name":"A#4","midi":70,"time":230.99984599999982,"velocity":0.5039370078740157,"duration":7.12187025208334},{"name":"D#4","midi":63,"time":238.49984099999983,"velocity":0.5039370078740157,"duration":1.421874052083325},{"name":"F5","midi":77,"time":239.99983999999984,"velocity":0.5039370078740157,"duration":6.409370727083342},{"name":"D#5","midi":75,"time":246.74983549999985,"velocity":0.5039370078740157,"duration":0.35312476458332753},{"name":"C#5","midi":73,"time":247.12483524999985,"velocity":0.5039370078740157,"duration":0.35312476458332753},{"name":"C5","midi":72,"time":247.49983499999985,"velocity":0.5039370078740157,"duration":0.7093745270833267},{"name":"C#5","midi":73,"time":248.24983449999985,"velocity":0.5039370078740157,"duration":0.7093745270833267},{"name":"D#5","midi":75,"time":248.99983399999985,"velocity":0.5039370078740157,"duration":2.1343735770833234},{"name":"C5","midi":72,"time":251.24983249999985,"velocity":0.5039370078740157,"duration":1.421874052083325},{"name":"A#4","midi":70,"time":252.74983149999986,"velocity":0.5039370078740157,"duration":2.846873102083322},{"name":"G#4","midi":68,"time":255.74982949999983,"velocity":0.5039370078740157,"duration":1.421874052083325},{"name":"G#4","midi":68,"time":257.2498284999998,"velocity":0.5039370078740157,"duration":7.12187025208334},{"name":"D#5","midi":75,"time":264.7498234999998,"velocity":0.5039370078740157,"duration":0.35312476458335595},{"name":"C#5","midi":73,"time":265.12482324999985,"velocity":0.5039370078740157,"duration":0.35312476458335595},{"name":"C5","midi":72,"time":265.4998229999999,"velocity":0.5039370078740157,"duration":0.7093745270833551},{"name":"C#5","midi":73,"time":266.2498224999999,"velocity":0.5039370078740157,"duration":0.7093745270833551},{"name":"D#5","midi":75,"time":266.9998219999999,"velocity":0.5039370078740157,"duration":2.134373577083352},{"name":"C5","midi":72,"time":269.2498204999999,"velocity":0.5039370078740157,"duration":1.4218740520833535},{"name":"C5","midi":72,"time":270.7498194999999,"velocity":0.5039370078740157,"duration":0.7093745270833551},{"name":"C#5","midi":73,"time":271.4998189999999,"velocity":0.5039370078740157,"duration":0.7093745270833551},{"name":"C5","midi":72,"time":272.2498184999999,"velocity":0.5039370078740157,"duration":0.7093745270833551},{"name":"A#4","midi":70,"time":272.9998179999999,"velocity":0.5039370078740157,"duration":1.4218740520833535},{"name":"G#4","midi":68,"time":274.4998169999999,"velocity":0.5039370078740157,"duration":1.4218740520833535},{"name":"G#4","midi":68,"time":275.9998159999999,"velocity":0.5039370078740157,"duration":6.409370727083342},{"name":"A#4","midi":70,"time":282.7498114999999,"velocity":0.5039370078740157,"duration":0.35312476458335595},{"name":"G#4","midi":68,"time":283.12481124999994,"velocity":0.5039370078740157,"duration":0.35312476458335595},{"name":"G4","midi":67,"time":283.49981099999997,"velocity":0.5039370078740157,"duration":0.7093745270833551},{"name":"G#4","midi":68,"time":284.24981049999997,"velocity":0.5039370078740157,"duration":0.7093745270833551},{"name":"A#4","midi":70,"time":284.99980999999997,"velocity":0.5039370078740157,"duration":5.696871202083344},{"name":"A#4","midi":70,"time":290.999806,"velocity":0.5039370078740157,"duration":0.7093745270833551},{"name":"C5","midi":72,"time":291.7498055,"velocity":0.5039370078740157,"duration":0.7093745270833551},{"name":"A#4","midi":70,"time":292.499805,"velocity":0.5039370078740157,"duration":0.7093745270833551},{"name":"G#4","midi":68,"time":293.2498045,"velocity":0.5039370078740157,"duration":0.7093745270833551},{"name":"F4","midi":65,"time":293.999804,"velocity":0.5039370078740157,"duration":1.4218740520833535},{"name":"A#4","midi":70,"time":295.499803,"velocity":0.5039370078740157,"duration":0.7093745270833551},{"name":"C5","midi":72,"time":296.2498025,"velocity":0.5039370078740157,"duration":0.7093745270833551},{"name":"A#4","midi":70,"time":296.999802,"velocity":0.5039370078740157,"duration":0.7093745270833551},{"name":"G#4","midi":68,"time":297.7498015,"velocity":0.5039370078740157,"duration":0.7093745270833551},{"name":"F4","midi":65,"time":298.499801,"velocity":0.5039370078740157,"duration":0.7093745270833551},{"name":"G#4","midi":68,"time":299.2498005,"velocity":0.5039370078740157,"duration":0.7093745270833551},{"name":"A#4","midi":70,"time":299.9998,"velocity":0.5039370078740157,"duration":0.7093745270833551},{"name":"C5","midi":72,"time":300.7497995,"velocity":0.5039370078740157,"duration":0.7093745270833551},{"name":"A#4","midi":70,"time":301.499799,"velocity":0.5039370078740157,"duration":0.7093745270833551},{"name":"G#4","midi":68,"time":302.2497985,"velocity":0.5039370078740157,"duration":0.7093745270833551},{"name":"F4","midi":65,"time":302.999798,"velocity":0.5039370078740157,"duration":5.696871202083344},{"name":"A#4","midi":70,"time":308.999794,"velocity":0.5039370078740157,"duration":0.7093745270833551},{"name":"C5","midi":72,"time":309.7497935,"velocity":0.5039370078740157,"duration":0.7093745270833551},{"name":"A#4","midi":70,"time":310.499793,"velocity":0.5039370078740157,"duration":0.7093745270833551},{"name":"G#4","midi":68,"time":311.2497925,"velocity":0.5039370078740157,"duration":0.7093745270833551},{"name":"C5","midi":72,"time":311.999792,"velocity":0.5039370078740157,"duration":0.7093745270833551},{"name":"G#4","midi":68,"time":312.7497915,"velocity":0.5039370078740157,"duration":0.7093745270833551},{"name":"A#4","midi":70,"time":313.499791,"velocity":0.5039370078740157,"duration":0.7093745270833551},{"name":"C5","midi":72,"time":314.2497905,"velocity":0.5039370078740157,"duration":0.7093745270833551},{"name":"A#4","midi":70,"time":314.99979,"velocity":0.5039370078740157,"duration":0.7093745270833551},{"name":"G#4","midi":68,"time":315.7497895,"velocity":0.5039370078740157,"duration":0.7093745270833551},{"name":"A#4","midi":70,"time":316.499789,"velocity":0.5039370078740157,"duration":0.7093745270833551},{"name":"G#4","midi":68,"time":317.2497885,"velocity":0.5039370078740157,"duration":0.7093745270833551},{"name":"A#4","midi":70,"time":317.999788,"velocity":0.5039370078740157,"duration":0.7093745270833551},{"name":"C5","midi":72,"time":318.7497875,"velocity":0.5039370078740157,"duration":0.7093745270833551},{"name":"A#4","midi":70,"time":319.499787,"velocity":0.5039370078740157,"duration":0.7093745270833551},{"name":"G#4","midi":68,"time":320.2497865,"velocity":0.5039370078740157,"duration":7.12187025208334},{"name":"A#4","midi":70,"time":320.99978600000003,"velocity":0.5039370078740157,"duration":6.409370727083342},{"name":"G#4","midi":68,"time":327.74978150000004,"velocity":0.5039370078740157,"duration":0.7093745270833551},{"name":"A#4","midi":70,"time":328.49978100000004,"velocity":0.5039370078740157,"duration":0.7093745270833551},{"name":"G#4","midi":68,"time":329.24978050000004,"velocity":0.5039370078740157,"duration":0.7093745270833551},{"name":"D#5","midi":75,"time":329.99978000000004,"velocity":0.5039370078740157,"duration":0.7093745270833551},{"name":"G#4","midi":68,"time":330.74977950000005,"velocity":0.5039370078740157,"duration":0.7093745270833551},{"name":"A#4","midi":70,"time":331.49977900000005,"velocity":0.5039370078740157,"duration":0.7093745270833551},{"name":"C5","midi":72,"time":332.24977850000005,"velocity":0.5039370078740157,"duration":0.7093745270833551},{"name":"A#4","midi":70,"time":332.99977800000005,"velocity":0.5039370078740157,"duration":0.7093745270833551},{"name":"G#4","midi":68,"time":333.74977750000005,"velocity":0.5039370078740157,"duration":0.7093745270833551},{"name":"D#5","midi":75,"time":334.49977700000005,"velocity":0.5039370078740157,"duration":0.7093745270833551},{"name":"G#4","midi":68,"time":335.24977650000005,"velocity":0.5039370078740157,"duration":0.7093745270833551},{"name":"A#4","midi":70,"time":335.99977600000005,"velocity":0.5039370078740157,"duration":0.7093745270833551},{"name":"C5","midi":72,"time":336.74977550000006,"velocity":0.5039370078740157,"duration":0.7093745270833551},{"name":"A#4","midi":70,"time":337.49977500000006,"velocity":0.5039370078740157,"duration":0.7093745270833551},{"name":"G#4","midi":68,"time":338.24977450000006,"velocity":0.5039370078740157,"duration":0.7093745270833551},{"name":"D#5","midi":75,"time":338.99977400000006,"velocity":0.5039370078740157,"duration":0.7093745270833551},{"name":"G#4","midi":68,"time":339.74977350000006,"velocity":0.5039370078740157,"duration":0.7093745270833551},{"name":"A#4","midi":70,"time":340.49977300000006,"velocity":0.5039370078740157,"duration":0.7093745270833551},{"name":"C5","midi":72,"time":341.24977250000006,"velocity":0.5039370078740157,"duration":0.7093745270833551},{"name":"A#4","midi":70,"time":341.99977200000006,"velocity":0.5039370078740157,"duration":0.7093745270833551},{"name":"G#4","midi":68,"time":342.74977150000007,"velocity":0.5039370078740157,"duration":0.7093745270833551},{"name":"D#5","midi":75,"time":343.49977100000007,"velocity":0.5039370078740157,"duration":0.7093745270833551},{"name":"G#4","midi":68,"time":344.24977050000007,"velocity":0.5039370078740157,"duration":0.7093745270833551},{"name":"A#4","midi":70,"time":344.99977000000007,"velocity":0.5039370078740157,"duration":0.7093745270833551},{"name":"C5","midi":72,"time":345.74976950000007,"velocity":0.5039370078740157,"duration":0.7093745270833551},{"name":"A#4","midi":70,"time":346.4997690000001,"velocity":0.5039370078740157,"duration":0.7093745270833551},{"name":"G#4","midi":68,"time":347.2497685000001,"velocity":0.5039370078740157,"duration":0.7093745270833551},{"name":"D#5","midi":75,"time":347.9997680000001,"velocity":0.5039370078740157,"duration":0.7093745270833551},{"name":"G#4","midi":68,"time":348.7497675000001,"velocity":0.5039370078740157,"duration":0.7093745270833551},{"name":"A#4","midi":70,"time":349.4997670000001,"velocity":0.5039370078740157,"duration":0.7093745270833551},{"name":"C5","midi":72,"time":350.2497665000001,"velocity":0.5039370078740157,"duration":0.7093745270833551},{"name":"A#4","midi":70,"time":350.9997660000001,"velocity":0.5039370078740157,"duration":0.7093745270833551},{"name":"G#4","midi":68,"time":351.7497655000001,"velocity":0.5039370078740157,"duration":0.7093745270833551},{"name":"D#5","midi":75,"time":352.4997650000001,"velocity":0.5039370078740157,"duration":0.7093745270833551},{"name":"G#4","midi":68,"time":353.2497645000001,"velocity":0.5039370078740157,"duration":0.7093745270833551},{"name":"A#4","midi":70,"time":353.9997640000001,"velocity":0.5039370078740157,"duration":0.7093745270833551},{"name":"C5","midi":72,"time":354.7497635000001,"velocity":0.5039370078740157,"duration":0.7093745270833551},{"name":"A#4","midi":70,"time":355.4997630000001,"velocity":0.5039370078740157,"duration":0.7093745270833551},{"name":"G#4","midi":68,"time":356.2497625000001,"velocity":0.5039370078740157,"duration":0.7093745270833551},{"name":"D#5","midi":75,"time":356.9997620000001,"velocity":0.5039370078740157,"duration":0.7093745270833551},{"name":"G#4","midi":68,"time":357.7497615000001,"velocity":0.5039370078740157,"duration":0.7093745270833551},{"name":"A#4","midi":70,"time":358.4997610000001,"velocity":0.5039370078740157,"duration":0.7093745270833551},{"name":"C5","midi":72,"time":359.2497605000001,"velocity":0.5039370078740157,"duration":0.7093745270833551},{"name":"A#4","midi":70,"time":359.9997600000001,"velocity":0.5039370078740157,"duration":0.7093745270833551},{"name":"G#4","midi":68,"time":360.7497595000001,"velocity":0.5039370078740157,"duration":0.7093745270833551},{"name":"D#5","midi":75,"time":361.4997590000001,"velocity":0.5039370078740157,"duration":0.7093745270833551},{"name":"G#4","midi":68,"time":362.2497585000001,"velocity":0.5039370078740157,"duration":0.7093745270833551},{"name":"A#4","midi":70,"time":362.9997580000001,"velocity":0.5039370078740157,"duration":0.7093745270833551},{"name":"D#5","midi":75,"time":363.7497575000001,"velocity":0.5039370078740157,"duration":0.7093745270833551},{"name":"G#4","midi":68,"time":364.4997570000001,"velocity":0.5039370078740157,"duration":0.7093745270833551},{"name":"A#4","midi":70,"time":365.2497565000001,"velocity":0.5039370078740157,"duration":0.7093745270833551},{"name":"G#4","midi":68,"time":365.9997560000001,"velocity":0.6299212598425197,"duration":0.7093745270833551},{"name":"G4","midi":67,"time":366.7497555000001,"velocity":0.6299212598425197,"duration":0.7093745270833551},{"name":"F4","midi":65,"time":367.4997550000001,"velocity":0.6299212598425197,"duration":0.7093745270833551},{"name":"G#4","midi":68,"time":368.2497545000001,"velocity":0.6299212598425197,"duration":0.7093745270833551},{"name":"G4","midi":67,"time":368.9997540000001,"velocity":0.6299212598425197,"duration":0.7093745270833551},{"name":"F4","midi":65,"time":369.7497535000001,"velocity":0.6299212598425197,"duration":0.7093745270833551},{"name":"C5","midi":72,"time":370.4997530000001,"velocity":0.6299212598425197,"duration":0.7093745270833551},{"name":"G4","midi":67,"time":371.2497525000001,"velocity":0.6299212598425197,"duration":0.7093745270833551},{"name":"G#4","midi":68,"time":371.9997520000001,"velocity":0.6299212598425197,"duration":0.7093745270833551},{"name":"G#4","midi":68,"time":372.7497515000001,"velocity":0.6299212598425197,"duration":0.7093745270833551},{"name":"G4","midi":67,"time":373.4997510000001,"velocity":0.6299212598425197,"duration":0.7093745270833551},{"name":"F4","midi":65,"time":374.2497505000001,"velocity":0.6299212598425197,"duration":0.7093745270833551},{"name":"G#4","midi":68,"time":374.9997500000001,"velocity":0.6299212598425197,"duration":0.7093745270833551},{"name":"G4","midi":67,"time":375.7497495000001,"velocity":0.6299212598425197,"duration":0.7093745270833551},{"name":"F4","midi":65,"time":376.4997490000001,"velocity":0.6299212598425197,"duration":0.7093745270833551},{"name":"G#4","midi":68,"time":377.2497485000001,"velocity":0.6299212598425197,"duration":0.7093745270833551},{"name":"G4","midi":67,"time":377.9997480000001,"velocity":0.6299212598425197,"duration":0.7093745270833551},{"name":"F4","midi":65,"time":378.7497475000001,"velocity":0.6299212598425197,"duration":0.7093745270833551},{"name":"C#5","midi":73,"time":379.4997470000001,"velocity":0.6299212598425197,"duration":0.7093745270833551},{"name":"G4","midi":67,"time":380.24974650000013,"velocity":0.6299212598425197,"duration":0.7093745270833551},{"name":"G#4","midi":68,"time":380.99974600000013,"velocity":0.6299212598425197,"duration":0.7093745270833551},{"name":"G#4","midi":68,"time":381.74974550000013,"velocity":0.6299212598425197,"duration":0.7093745270833551},{"name":"G4","midi":67,"time":382.49974500000013,"velocity":0.6299212598425197,"duration":0.7093745270833551},{"name":"F4","midi":65,"time":383.24974450000013,"velocity":0.6299212598425197,"duration":0.7093745270833551},{"name":"C5","midi":72,"time":383.99974400000013,"velocity":0.6299212598425197,"duration":0.7093745270833551},{"name":"A#4","midi":70,"time":384.74974350000014,"velocity":0.6299212598425197,"duration":0.7093745270833551},{"name":"G#4","midi":68,"time":385.49974300000014,"velocity":0.6299212598425197,"duration":0.7093745270833551},{"name":"C5","midi":72,"time":386.24974250000014,"velocity":0.6299212598425197,"duration":0.7093745270833551},{"name":"A#4","midi":70,"time":386.99974200000014,"velocity":0.6299212598425197,"duration":0.7093745270833551},{"name":"G#4","midi":68,"time":387.74974150000014,"velocity":0.6299212598425197,"duration":0.7093745270833551},{"name":"D#5","midi":75,"time":388.49974100000014,"velocity":0.6299212598425197,"duration":0.7093745270833551},{"name":"G#4","midi":68,"time":389.24974050000014,"velocity":0.6299212598425197,"duration":0.7093745270833551},{"name":"A#4","midi":70,"time":389.99974000000014,"velocity":0.6299212598425197,"duration":0.7093745270833551},{"name":"C5","midi":72,"time":390.74973950000015,"velocity":0.6299212598425197,"duration":0.7093745270833551},{"name":"A#4","midi":70,"time":391.49973900000015,"velocity":0.6299212598425197,"duration":0.7093745270833551},{"name":"G#4","midi":68,"time":392.24973850000015,"velocity":0.6299212598425197,"duration":0.7093745270833551},{"name":"A#4","midi":70,"time":392.99973800000015,"velocity":0.6299212598425197,"duration":0.7093745270833551},{"name":"G#4","midi":68,"time":393.74973750000015,"velocity":0.6299212598425197,"duration":0.7093745270833551},{"name":"G4","midi":67,"time":394.49973700000015,"velocity":0.6299212598425197,"duration":0.7093745270833551},{"name":"A#4","midi":70,"time":395.24973650000015,"velocity":0.6299212598425197,"duration":0.7093745270833551},{"name":"G#4","midi":68,"time":395.99973600000015,"velocity":0.6299212598425197,"duration":0.7093745270833551},{"name":"G4","midi":67,"time":396.74973550000016,"velocity":0.6299212598425197,"duration":0.7093745270833551},{"name":"D#5","midi":75,"time":397.49973500000016,"velocity":0.6299212598425197,"duration":0.7093745270833551},{"name":"G4","midi":67,"time":398.24973450000016,"velocity":0.6299212598425197,"duration":0.7093745270833551},{"name":"G#4","midi":68,"time":398.99973400000016,"velocity":0.6299212598425197,"duration":0.7093745270833551},{"name":"A#4","midi":70,"time":399.74973350000016,"velocity":0.6299212598425197,"duration":0.7093745270833551},{"name":"G#4","midi":68,"time":400.49973300000016,"velocity":0.6299212598425197,"duration":0.7093745270833551},{"name":"G4","midi":67,"time":401.24973250000016,"velocity":0.6299212598425197,"duration":0.7093745270833551},{"name":"G#4","midi":68,"time":401.99973200000017,"velocity":0.6299212598425197,"duration":0.7093745270833551},{"name":"G4","midi":67,"time":402.74973150000017,"velocity":0.6299212598425197,"duration":0.7093745270833551},{"name":"F4","midi":65,"time":403.49973100000017,"velocity":0.6299212598425197,"duration":0.7093745270833551},{"name":"G#4","midi":68,"time":404.24973050000017,"velocity":0.6299212598425197,"duration":0.7093745270833551},{"name":"G4","midi":67,"time":404.99973000000017,"velocity":0.6299212598425197,"duration":0.7093745270833551},{"name":"F4","midi":65,"time":405.74972950000017,"velocity":0.6299212598425197,"duration":0.7093745270833551},{"name":"C5","midi":72,"time":406.4997290000002,"velocity":0.6299212598425197,"duration":0.7093745270833551},{"name":"F4","midi":65,"time":407.2497285000002,"velocity":0.6299212598425197,"duration":0.7093745270833551},{"name":"G4","midi":67,"time":407.9997280000002,"velocity":0.6299212598425197,"duration":0.7093745270833551},{"name":"G#4","midi":68,"time":408.7497275000002,"velocity":0.6299212598425197,"duration":0.7093745270833551},{"name":"G4","midi":67,"time":409.4997270000002,"velocity":0.6299212598425197,"duration":0.7093745270833551},{"name":"F4","midi":65,"time":410.2497265000002,"velocity":0.6299212598425197,"duration":0.7093745270833551},{"name":"G#4","midi":68,"time":410.9997260000002,"velocity":0.6299212598425197,"duration":0.7093745270833551},{"name":"G4","midi":67,"time":411.7497255000002,"velocity":0.6299212598425197,"duration":0.7093745270833551},{"name":"F4","midi":65,"time":412.4997250000002,"velocity":0.6299212598425197,"duration":0.7093745270833551},{"name":"G#4","midi":68,"time":413.2497245000002,"velocity":0.6299212598425197,"duration":0.7093745270833551},{"name":"G4","midi":67,"time":413.9997240000002,"velocity":0.6299212598425197,"duration":0.7093745270833551},{"name":"F4","midi":65,"time":414.7497235000002,"velocity":0.6299212598425197,"duration":0.7093745270833551},{"name":"C#5","midi":73,"time":415.4997230000002,"velocity":0.6299212598425197,"duration":0.7093745270833551},{"name":"F4","midi":65,"time":416.2497225000002,"velocity":0.6299212598425197,"duration":0.7093745270833551},{"name":"G4","midi":67,"time":416.9997220000002,"velocity":0.6299212598425197,"duration":0.7093745270833551},{"name":"G#4","midi":68,"time":417.7497215000002,"velocity":0.6299212598425197,"duration":0.7093745270833551},{"name":"G4","midi":67,"time":418.4997210000002,"velocity":0.6299212598425197,"duration":0.7093745270833551},{"name":"F4","midi":65,"time":419.2497205000002,"velocity":0.6299212598425197,"duration":0.7093745270833551},{"name":"C5","midi":72,"time":419.9997200000002,"velocity":0.6299212598425197,"duration":0.7093745270833551},{"name":"A#4","midi":70,"time":420.7497195000002,"velocity":0.6299212598425197,"duration":0.7093745270833551},{"name":"G#4","midi":68,"time":421.4997190000002,"velocity":0.6299212598425197,"duration":0.7093745270833551},{"name":"C5","midi":72,"time":422.2497185000002,"velocity":0.6299212598425197,"duration":0.7093745270833551},{"name":"A#4","midi":70,"time":422.9997180000002,"velocity":0.6299212598425197,"duration":0.7093745270833551},{"name":"G#4","midi":68,"time":423.7497175000002,"velocity":0.6299212598425197,"duration":0.7093745270833551},{"name":"D#5","midi":75,"time":424.4997170000002,"velocity":0.6299212598425197,"duration":0.7093745270833551},{"name":"G#4","midi":68,"time":425.2497165000002,"velocity":0.6299212598425197,"duration":0.7093745270833551},{"name":"A#4","midi":70,"time":425.9997160000002,"velocity":0.6299212598425197,"duration":0.7093745270833551},{"name":"C5","midi":72,"time":426.7497155000002,"velocity":0.6299212598425197,"duration":0.7093745270833551},{"name":"A#4","midi":70,"time":427.4997150000002,"velocity":0.6299212598425197,"duration":0.7093745270833551},{"name":"G#4","midi":68,"time":428.2497145000002,"velocity":0.6299212598425197,"duration":0.7093745270833551},{"name":"A#4","midi":70,"time":428.9997140000002,"velocity":0.6299212598425197,"duration":0.7093745270833551},{"name":"G#4","midi":68,"time":429.7497135000002,"velocity":0.6299212598425197,"duration":0.7093745270833551},{"name":"G4","midi":67,"time":430.4997130000002,"velocity":0.6299212598425197,"duration":0.7093745270833551},{"name":"A#4","midi":70,"time":431.2497125000002,"velocity":0.6299212598425197,"duration":0.7093745270833551},{"name":"G#4","midi":68,"time":431.9997120000002,"velocity":0.6299212598425197,"duration":0.7093745270833551},{"name":"G4","midi":67,"time":432.7497115000002,"velocity":0.6299212598425197,"duration":0.7093745270833551},{"name":"D#5","midi":75,"time":433.4997110000002,"velocity":0.6299212598425197,"duration":0.7093745270833551},{"name":"G4","midi":67,"time":434.2497105000002,"velocity":0.6299212598425197,"duration":0.7093745270833551},{"name":"G#4","midi":68,"time":434.9997100000002,"velocity":0.6299212598425197,"duration":0.7093745270833551},{"name":"A#4","midi":70,"time":435.7497095000002,"velocity":0.6299212598425197,"duration":0.7093745270833551},{"name":"G#4","midi":68,"time":436.4997090000002,"velocity":0.6299212598425197,"duration":0.7093745270833551},{"name":"G4","midi":67,"time":437.2497085000002,"velocity":0.6299212598425197,"duration":0.7093745270833551},{"name":"G#5","midi":80,"time":437.9997080000002,"velocity":0.7559055118110236,"duration":0.7093745270833551},{"name":"G#5","midi":80,"time":437.9997080000002,"velocity":0.7559055118110236,"duration":2.134373577083352},{"name":"G#4","midi":68,"time":438.7497075000002,"velocity":0.7559055118110236,"duration":0.7093745270833551},{"name":"C5","midi":72,"time":439.4997070000002,"velocity":0.7559055118110236,"duration":0.7093745270833551},{"name":"G5","midi":79,"time":440.24970650000023,"velocity":0.7559055118110236,"duration":0.7093745270833551},{"name":"G5","midi":79,"time":440.24970650000023,"velocity":0.7559055118110236,"duration":2.134373577083352},{"name":"G#4","midi":68,"time":440.99970600000023,"velocity":0.7559055118110236,"duration":0.7093745270833551},{"name":"C5","midi":72,"time":441.74970550000023,"velocity":0.7559055118110236,"duration":0.7093745270833551},{"name":"F5","midi":77,"time":442.49970500000023,"velocity":0.7559055118110236,"duration":0.7093745270833551},{"name":"F5","midi":77,"time":442.49970500000023,"velocity":0.7559055118110236,"duration":2.134373577083352},{"name":"G#4","midi":68,"time":443.24970450000023,"velocity":0.7559055118110236,"duration":0.7093745270833551},{"name":"C#5","midi":73,"time":443.99970400000024,"velocity":0.7559055118110236,"duration":0.7093745270833551},{"name":"D#5","midi":75,"time":444.74970350000024,"velocity":0.7559055118110236,"duration":0.7093745270833551},{"name":"D#5","midi":75,"time":444.74970350000024,"velocity":0.7559055118110236,"duration":1.4218740520833535},{"name":"G#4","midi":68,"time":445.49970300000024,"velocity":0.7559055118110236,"duration":0.7093745270833551},{"name":"C#5","midi":73,"time":446.24970250000024,"velocity":0.7559055118110236,"duration":0.7093745270833551},{"name":"C#5","midi":73,"time":446.24970250000024,"velocity":0.7559055118110236,"duration":0.7093745270833551},{"name":"D#5","midi":75,"time":446.99970200000024,"velocity":0.7559055118110236,"duration":0.7093745270833551},{"name":"D#5","midi":75,"time":446.99970200000024,"velocity":0.7559055118110236,"duration":2.134373577083352},{"name":"G#4","midi":68,"time":447.74970150000024,"velocity":0.7559055118110236,"duration":0.7093745270833551},{"name":"C5","midi":72,"time":448.49970100000024,"velocity":0.7559055118110236,"duration":0.7093745270833551},{"name":"D#5","midi":75,"time":449.24970050000024,"velocity":0.7559055118110236,"duration":0.7093745270833551},{"name":"D#5","midi":75,"time":449.24970050000024,"velocity":0.7559055118110236,"duration":2.134373577083352},{"name":"G#4","midi":68,"time":449.99970000000025,"velocity":0.7559055118110236,"duration":0.7093745270833551},{"name":"C5","midi":72,"time":450.74969950000025,"velocity":0.7559055118110236,"duration":0.7093745270833551},{"name":"D#5","midi":75,"time":451.49969900000025,"velocity":0.7559055118110236,"duration":0.7093745270833551},{"name":"D#5","midi":75,"time":451.49969900000025,"velocity":0.7559055118110236,"duration":2.134373577083352},{"name":"G4","midi":67,"time":452.24969850000025,"velocity":0.7559055118110236,"duration":0.7093745270833551},{"name":"A#4","midi":70,"time":452.99969800000025,"velocity":0.7559055118110236,"duration":0.7093745270833551},{"name":"D#5","midi":75,"time":453.74969750000025,"velocity":0.7559055118110236,"duration":0.7093745270833551},{"name":"D#5","midi":75,"time":453.74969750000025,"velocity":0.7559055118110236,"duration":2.134373577083352},{"name":"G4","midi":67,"time":454.49969700000025,"velocity":0.7559055118110236,"duration":0.7093745270833551},{"name":"A#4","midi":70,"time":455.24969650000025,"velocity":0.7559055118110236,"duration":0.7093745270833551},{"name":"G#5","midi":80,"time":455.99969600000026,"velocity":0.7559055118110236,"duration":0.7093745270833551},{"name":"G#5","midi":80,"time":455.99969600000026,"velocity":0.7559055118110236,"duration":1.4218740520833535},{"name":"G#4","midi":68,"time":456.74969550000026,"velocity":0.7559055118110236,"duration":0.7093745270833551},{"name":"G5","midi":79,"time":457.49969500000026,"velocity":0.7559055118110236,"duration":0.7093745270833551},{"name":"G5","midi":79,"time":457.49969500000026,"velocity":0.7559055118110236,"duration":1.4218740520833535},{"name":"G#4","midi":68,"time":458.24969450000026,"velocity":0.7559055118110236,"duration":0.7093745270833551},{"name":"F5","midi":77,"time":458.99969400000026,"velocity":0.7559055118110236,"duration":0.7093745270833551},{"name":"F5","midi":77,"time":458.99969400000026,"velocity":0.7559055118110236,"duration":1.4218740520833535},{"name":"G#4","midi":68,"time":459.74969350000026,"velocity":0.7559055118110236,"duration":0.7093745270833551},{"name":"F5","midi":77,"time":460.49969300000026,"velocity":0.7559055118110236,"duration":0.7093745270833551},{"name":"F5","midi":77,"time":460.49969300000026,"velocity":0.7559055118110236,"duration":2.134373577083352},{"name":"G#4","midi":68,"time":461.24969250000026,"velocity":0.7559055118110236,"duration":0.7093745270833551},{"name":"C#5","midi":73,"time":461.99969200000027,"velocity":0.7559055118110236,"duration":0.7093745270833551},{"name":"D#5","midi":75,"time":462.74969150000027,"velocity":0.7559055118110236,"duration":0.7093745270833551},{"name":"D#5","midi":75,"time":462.74969150000027,"velocity":0.7559055118110236,"duration":1.4218740520833535},{"name":"G#4","midi":68,"time":463.49969100000027,"velocity":0.7559055118110236,"duration":0.7093745270833551},{"name":"C#5","midi":73,"time":464.24969050000027,"velocity":0.7559055118110236,"duration":0.7093745270833551},{"name":"C#5","midi":73,"time":464.24969050000027,"velocity":0.7559055118110236,"duration":0.7093745270833551},{"name":"D#5","midi":75,"time":464.99969000000027,"velocity":0.7559055118110236,"duration":0.7093745270833551},{"name":"D#5","midi":75,"time":464.99969000000027,"velocity":0.7559055118110236,"duration":2.134373577083352},{"name":"G#4","midi":68,"time":465.7496895000003,"velocity":0.7559055118110236,"duration":0.7093745270833551},{"name":"C5","midi":72,"time":466.4996890000003,"velocity":0.7559055118110236,"duration":0.7093745270833551},{"name":"D#5","midi":75,"time":467.2496885000003,"velocity":0.7559055118110236,"duration":0.7093745270833551},{"name":"D#5","midi":75,"time":467.2496885000003,"velocity":0.7559055118110236,"duration":2.134373577083352},{"name":"G#4","midi":68,"time":467.9996880000003,"velocity":0.7559055118110236,"duration":0.7093745270833551},{"name":"C5","midi":72,"time":468.7496875000003,"velocity":0.7559055118110236,"duration":0.7093745270833551},{"name":"D#5","midi":75,"time":469.4996870000003,"velocity":0.7559055118110236,"duration":0.7093745270833551},{"name":"D#5","midi":75,"time":469.4996870000003,"velocity":0.7559055118110236,"duration":2.134373577083352},{"name":"G4","midi":67,"time":470.2496865000003,"velocity":0.7559055118110236,"duration":0.7093745270833551},{"name":"A#4","midi":70,"time":470.9996860000003,"velocity":0.7559055118110236,"duration":0.7093745270833551},{"name":"D#5","midi":75,"time":471.7496855000003,"velocity":0.7559055118110236,"duration":0.7093745270833551},{"name":"D#5","midi":75,"time":471.7496855000003,"velocity":0.7559055118110236,"duration":2.134373577083352},{"name":"G4","midi":67,"time":472.4996850000003,"velocity":0.7559055118110236,"duration":0.7093745270833551},{"name":"A#4","midi":70,"time":473.2496845000003,"velocity":0.7559055118110236,"duration":0.7093745270833551},{"name":"G#5","midi":80,"time":473.9996840000003,"velocity":0.7559055118110236,"duration":0.7093745270833551},{"name":"G#5","midi":80,"time":473.9996840000003,"velocity":0.7559055118110236,"duration":2.134373577083352},{"name":"G#4","midi":68,"time":474.7496835000003,"velocity":0.7559055118110236,"duration":0.7093745270833551},{"name":"C5","midi":72,"time":475.4996830000003,"velocity":0.7559055118110236,"duration":0.7093745270833551},{"name":"G5","midi":79,"time":476.2496825000003,"velocity":0.7559055118110236,"duration":0.7093745270833551},{"name":"G5","midi":79,"time":476.2496825000003,"velocity":0.7559055118110236,"duration":2.134373577083352},{"name":"G#4","midi":68,"time":476.9996820000003,"velocity":0.7559055118110236,"duration":0.7093745270833551},{"name":"C5","midi":72,"time":477.7496815000003,"velocity":0.7559055118110236,"duration":0.7093745270833551},{"name":"F5","midi":77,"time":478.4996810000003,"velocity":0.7559055118110236,"duration":0.7093745270833551},{"name":"F5","midi":77,"time":478.4996810000003,"velocity":0.7559055118110236,"duration":2.134373577083352},{"name":"G#4","midi":68,"time":479.2496805000003,"velocity":0.7559055118110236,"duration":0.7093745270833551},{"name":"C#5","midi":73,"time":479.9996800000003,"velocity":0.7559055118110236,"duration":0.7093745270833551},{"name":"D#5","midi":75,"time":480.7496795000003,"velocity":0.7559055118110236,"duration":0.7093745270833551},{"name":"D#5","midi":75,"time":480.7496795000003,"velocity":0.7559055118110236,"duration":1.4218740520833535},{"name":"G#4","midi":68,"time":481.4996790000003,"velocity":0.7559055118110236,"duration":0.7093745270833551},{"name":"C#5","midi":73,"time":482.2496785000003,"velocity":0.7559055118110236,"duration":0.7093745270833551},{"name":"C#5","midi":73,"time":482.2496785000003,"velocity":0.7559055118110236,"duration":0.7093745270833551},{"name":"D#5","midi":75,"time":482.9996780000003,"velocity":0.7559055118110236,"duration":0.7093745270833551},{"name":"D#5","midi":75,"time":482.9996780000003,"velocity":0.7559055118110236,"duration":2.134373577083352},{"name":"G#4","midi":68,"time":483.7496775000003,"velocity":0.7559055118110236,"duration":0.7093745270833551},{"name":"C5","midi":72,"time":484.4996770000003,"velocity":0.7559055118110236,"duration":0.7093745270833551},{"name":"D#5","midi":75,"time":485.2496765000003,"velocity":0.7559055118110236,"duration":0.7093745270833551},{"name":"D#5","midi":75,"time":485.2496765000003,"velocity":0.7559055118110236,"duration":2.134373577083352},{"name":"G#4","midi":68,"time":485.9996760000003,"velocity":0.7559055118110236,"duration":0.7093745270833551},{"name":"C5","midi":72,"time":486.7496755000003,"velocity":0.7559055118110236,"duration":0.7093745270833551},{"name":"D#5","midi":75,"time":487.4996750000003,"velocity":0.7559055118110236,"duration":0.7093745270833551},{"name":"D#5","midi":75,"time":487.4996750000003,"velocity":0.7559055118110236,"duration":2.134373577083352},{"name":"G4","midi":67,"time":488.2496745000003,"velocity":0.7559055118110236,"duration":0.7093745270833551},{"name":"A#4","midi":70,"time":488.9996740000003,"velocity":0.7559055118110236,"duration":0.7093745270833551},{"name":"D#5","midi":75,"time":489.7496735000003,"velocity":0.7559055118110236,"duration":0.7093745270833551},{"name":"D#5","midi":75,"time":489.7496735000003,"velocity":0.7559055118110236,"duration":2.134373577083352},{"name":"G4","midi":67,"time":490.4996730000003,"velocity":0.7559055118110236,"duration":0.7093745270833551},{"name":"A#4","midi":70,"time":491.2496725000003,"velocity":0.7559055118110236,"duration":0.7093745270833551},{"name":"G#5","midi":80,"time":491.9996720000003,"velocity":0.7559055118110236,"duration":0.7093745270833551},{"name":"G#5","midi":80,"time":491.9996720000003,"velocity":0.7559055118110236,"duration":1.4218740520833535},{"name":"G#4","midi":68,"time":492.7496715000003,"velocity":0.7559055118110236,"duration":0.7093745270833551},{"name":"G5","midi":79,"time":493.4996710000003,"velocity":0.7559055118110236,"duration":0.7093745270833551},{"name":"G5","midi":79,"time":493.4996710000003,"velocity":0.7559055118110236,"duration":1.4218740520833535},{"name":"G#4","midi":68,"time":494.2496705000003,"velocity":0.7559055118110236,"duration":0.7093745270833551},{"name":"F5","midi":77,"time":494.9996700000003,"velocity":0.7559055118110236,"duration":0.7093745270833551},{"name":"F5","midi":77,"time":494.9996700000003,"velocity":0.7559055118110236,"duration":1.4218740520833535},{"name":"G#4","midi":68,"time":495.7496695000003,"velocity":0.7559055118110236,"duration":0.7093745270833551},{"name":"F5","midi":77,"time":496.4996690000003,"velocity":0.7559055118110236,"duration":0.7093745270833551},{"name":"F5","midi":77,"time":496.4996690000003,"velocity":0.7559055118110236,"duration":2.134373577083352},{"name":"G#4","midi":68,"time":497.2496685000003,"velocity":0.7559055118110236,"duration":0.7093745270833551},{"name":"C#5","midi":73,"time":497.9996680000003,"velocity":0.7559055118110236,"duration":0.7093745270833551},{"name":"D#5","midi":75,"time":498.7496675000003,"velocity":0.7559055118110236,"duration":0.7093745270833551},{"name":"D#5","midi":75,"time":498.7496675000003,"velocity":0.7559055118110236,"duration":1.4218740520833535},{"name":"G#4","midi":68,"time":499.49966700000033,"velocity":0.7559055118110236,"duration":0.7093745270833551},{"name":"C#5","midi":73,"time":500.24966650000033,"velocity":0.7559055118110236,"duration":0.7093745270833551},{"name":"C#5","midi":73,"time":500.24966650000033,"velocity":0.7559055118110236,"duration":0.7093745270833551},{"name":"D#5","midi":75,"time":500.99966600000033,"velocity":0.7559055118110236,"duration":0.7093745270833551},{"name":"D#5","midi":75,"time":500.99966600000033,"velocity":0.7559055118110236,"duration":2.134373577083352},{"name":"G#4","midi":68,"time":501.74966550000033,"velocity":0.7559055118110236,"duration":0.7093745270833551},{"name":"C5","midi":72,"time":502.49966500000033,"velocity":0.7559055118110236,"duration":0.7093745270833551},{"name":"D#5","midi":75,"time":503.24966450000034,"velocity":0.7559055118110236,"duration":0.7093745270833551},{"name":"D#5","midi":75,"time":503.24966450000034,"velocity":0.7559055118110236,"duration":2.134373577083352},{"name":"G#4","midi":68,"time":503.99966400000034,"velocity":0.7559055118110236,"duration":0.7093745270833551},{"name":"C5","midi":72,"time":504.74966350000034,"velocity":0.7559055118110236,"duration":0.7093745270833551},{"name":"D#5","midi":75,"time":505.49966300000034,"velocity":0.7559055118110236,"duration":0.7093745270833551},{"name":"D#5","midi":75,"time":505.49966300000034,"velocity":0.7559055118110236,"duration":2.134373577083352},{"name":"G4","midi":67,"time":506.24966250000034,"velocity":0.7007874015748031,"duration":0.7093745270833551},{"name":"A#4","midi":70,"time":506.99966200000034,"velocity":0.6377952755905512,"duration":0.7093745270833551},{"name":"D#5","midi":75,"time":507.74966150000034,"velocity":0.5748031496062992,"duration":0.7093745270833551},{"name":"D#5","midi":75,"time":507.74966150000034,"velocity":0.5748031496062992,"duration":2.134373577083352},{"name":"G4","midi":67,"time":508.49966100000034,"velocity":0.5118110236220472,"duration":0.7093745270833551},{"name":"A#4","midi":70,"time":509.24966050000035,"velocity":0.44881889763779526,"duration":9.259368827083335},{"name":"C4","midi":60,"time":518.9996540000003,"velocity":0.5039370078740157,"duration":2.84687310208335},{"name":"C#4","midi":61,"time":521.9996520000003,"velocity":0.5039370078740157,"duration":2.84687310208335},{"name":"C4","midi":60,"time":524.9996500000003,"velocity":0.5039370078740157,"duration":2.84687310208335},{"name":"A#3","midi":58,"time":527.9996480000003,"velocity":0.5039370078740157,"duration":2.84687310208335},{"name":"C4","midi":60,"time":530.9996460000003,"velocity":0.5039370078740157,"duration":2.84687310208335},{"name":"C#4","midi":61,"time":533.9996440000003,"velocity":0.5039370078740157,"duration":2.84687310208335},{"name":"C4","midi":60,"time":536.9996420000003,"velocity":0.5039370078740157,"duration":2.84687310208335},{"name":"D#4","midi":63,"time":536.9996420000003,"velocity":0.5039370078740157,"duration":2.84687310208335},{"name":"A#3","midi":58,"time":539.9996400000003,"velocity":0.5039370078740157,"duration":2.84687310208335},{"name":"D#4","midi":63,"time":539.9996400000003,"velocity":0.5039370078740157,"duration":2.84687310208335},{"name":"A#4","midi":70,"time":542.9996380000003,"velocity":0.3858267716535433,"duration":0.7093745270833551},{"name":"F4","midi":65,"time":542.9996380000003,"velocity":0.3858267716535433,"duration":8.546869302083564},{"name":"G#4","midi":68,"time":543.7496375000004,"velocity":0.3858267716535433,"duration":1.4218740520833535},{"name":"G#4","midi":68,"time":545.2496365000004,"velocity":0.3858267716535433,"duration":1.4218740520833535},{"name":"G#4","midi":68,"time":546.7496355000004,"velocity":0.3858267716535433,"duration":0.7093745270833551},{"name":"A#4","midi":70,"time":547.4996350000005,"velocity":0.3858267716535433,"duration":0.7093745270833551},{"name":"G#4","midi":68,"time":548.2496345000005,"velocity":0.3858267716535433,"duration":1.4218740520833535},{"name":"G#4","midi":68,"time":549.7496335000005,"velocity":0.3858267716535433,"duration":1.4218740520833535},{"name":"G#4","midi":68,"time":551.2496325000005,"velocity":0.3858267716535433,"duration":0.7093745270833551},{"name":"A#4","midi":70,"time":551.9996320000006,"velocity":0.3858267716535433,"duration":0.7093745270833551},{"name":"F4","midi":65,"time":551.9996320000006,"velocity":0.3858267716535433,"duration":8.546869302083564},{"name":"G#4","midi":68,"time":552.7496315000006,"velocity":0.3858267716535433,"duration":1.4218740520833535},{"name":"G#4","midi":68,"time":554.2496305000006,"velocity":0.3858267716535433,"duration":1.4218740520833535},{"name":"G#4","midi":68,"time":555.7496295000007,"velocity":0.3858267716535433,"duration":0.7093745270833551},{"name":"A#4","midi":70,"time":556.4996290000007,"velocity":0.3858267716535433,"duration":0.7093745270833551},{"name":"G#4","midi":68,"time":557.2496285000008,"velocity":0.3858267716535433,"duration":1.4218740520833535},{"name":"G#4","midi":68,"time":558.7496275000008,"velocity":0.3858267716535433,"duration":1.4218740520833535},{"name":"G#4","midi":68,"time":560.2496265000008,"velocity":0.3858267716535433,"duration":0.7093745270833551},{"name":"C#5","midi":73,"time":560.9996260000008,"velocity":0.3858267716535433,"duration":0.7093745270833551},{"name":"D#4","midi":63,"time":560.9996260000008,"velocity":0.3858267716535433,"duration":7.834369777083566},{"name":"C5","midi":72,"time":561.7496255000009,"velocity":0.3858267716535433,"duration":1.4218740520833535},{"name":"C5","midi":72,"time":563.2496245000009,"velocity":0.3858267716535433,"duration":1.4218740520833535},{"name":"C5","midi":72,"time":564.7496235000009,"velocity":0.3858267716535433,"duration":0.7093745270833551},{"name":"C#5","midi":73,"time":565.499623000001,"velocity":0.3858267716535433,"duration":0.7093745270833551},{"name":"C5","midi":72,"time":566.249622500001,"velocity":0.3858267716535433,"duration":1.4218740520833535},{"name":"C5","midi":72,"time":567.749621500001,"velocity":0.3858267716535433,"duration":1.4218740520833535},{"name":"D#4","midi":63,"time":569.249620500001,"velocity":0.3858267716535433,"duration":0.7093745270833551},{"name":"D#4","midi":63,"time":569.249620500001,"velocity":0.3858267716535433,"duration":4.271872152083461},{"name":"C5","midi":72,"time":569.9996200000011,"velocity":0.3858267716535433,"duration":0.7093745270833551},{"name":"A#4","midi":70,"time":570.7496195000011,"velocity":0.3858267716535433,"duration":1.4218740520833535},{"name":"A#4","midi":70,"time":572.2496185000011,"velocity":0.3858267716535433,"duration":1.4218740520833535},{"name":"D#4","midi":63,"time":573.7496175000011,"velocity":0.3858267716535433,"duration":0.7093745270833551},{"name":"D#4","midi":63,"time":573.7496175000011,"velocity":0.3858267716535433,"duration":4.271872152083461},{"name":"C#5","midi":73,"time":574.4996170000012,"velocity":0.3858267716535433,"duration":0.7093745270833551},{"name":"C5","midi":72,"time":575.2496165000013,"velocity":0.3858267716535433,"duration":1.4218740520833535},{"name":"A#4","midi":70,"time":576.7496155000013,"velocity":0.3858267716535433,"duration":1.4218740520833535},{"name":"D#4","midi":63,"time":578.2496145000013,"velocity":0.3858267716535433,"duration":0.7093745270833551},{"name":"D#4","midi":63,"time":578.2496145000013,"velocity":0.3858267716535433,"duration":9.259368827083563},{"name":"A#4","midi":70,"time":578.9996140000013,"velocity":0.3858267716535433,"duration":0.7093745270833551},{"name":"G#4","midi":68,"time":579.7496135000014,"velocity":0.3858267716535433,"duration":1.4218740520833535},{"name":"G#4","midi":68,"time":581.2496125000014,"velocity":0.3858267716535433,"duration":1.4218740520833535},{"name":"G#4","midi":68,"time":582.7496115000014,"velocity":0.3858267716535433,"duration":0.7093745270833551},{"name":"A#4","midi":70,"time":583.4996110000014,"velocity":0.3858267716535433,"duration":0.7093745270833551},{"name":"G#4","midi":68,"time":584.2496105000015,"velocity":0.3858267716535433,"duration":1.4218740520833535},{"name":"G#4","midi":68,"time":585.7496095000015,"velocity":0.3858267716535433,"duration":1.4218740520833535},{"name":"G#4","midi":68,"time":587.2496085000015,"velocity":0.3858267716535433,"duration":0.7093745270833551},{"name":"G4","midi":67,"time":587.9996080000016,"velocity":0.3858267716535433,"duration":0.7093745270833551},{"name":"F4","midi":65,"time":588.7496075000016,"velocity":0.3858267716535433,"duration":1.4218740520833535},{"name":"F4","midi":65,"time":590.2496065000016,"velocity":0.3858267716535433,"duration":1.4218740520833535},{"name":"F4","midi":65,"time":591.7496055000016,"velocity":0.3858267716535433,"duration":0.7093745270833551},{"name":"G4","midi":67,"time":592.4996050000017,"velocity":0.3858267716535433,"duration":0.7093745270833551},{"name":"F4","midi":65,"time":593.2496045000017,"velocity":0.3858267716535433,"duration":1.4218740520833535},{"name":"F4","midi":65,"time":594.7496035000017,"velocity":0.3858267716535433,"duration":1.4218740520833535},{"name":"F4","midi":65,"time":596.2496025000017,"velocity":0.3858267716535433,"duration":0.7093745270833551},{"name":"D#4","midi":63,"time":596.9996020000018,"velocity":0.3858267716535433,"duration":0.7093745270833551},{"name":"D#4","midi":63,"time":596.9996020000018,"velocity":0.3858267716535433,"duration":7.834369777083566},{"name":"C5","midi":72,"time":597.7496015000019,"velocity":0.3858267716535433,"duration":1.4218740520833535},{"name":"C5","midi":72,"time":599.2496005000019,"velocity":0.3858267716535433,"duration":1.4218740520833535},{"name":"C5","midi":72,"time":600.7495995000019,"velocity":0.3858267716535433,"duration":0.7093745270833551},{"name":"C#5","midi":73,"time":601.4995990000019,"velocity":0.3858267716535433,"duration":0.7093745270833551},{"name":"C5","midi":72,"time":602.249598500002,"velocity":0.3858267716535433,"duration":1.4218740520833535},{"name":"C5","midi":72,"time":603.749597500002,"velocity":0.3858267716535433,"duration":1.4218740520833535},{"name":"D#4","midi":63,"time":605.249596500002,"velocity":0.3858267716535433,"duration":0.7093745270833551},{"name":"D#4","midi":63,"time":605.249596500002,"velocity":0.3858267716535433,"duration":4.271872152083461},{"name":"C5","midi":72,"time":605.999596000002,"velocity":0.3858267716535433,"duration":0.7093745270833551},{"name":"A#4","midi":70,"time":606.7495955000021,"velocity":0.3858267716535433,"duration":1.4218740520833535},{"name":"A#4","midi":70,"time":608.2495945000021,"velocity":0.3858267716535433,"duration":1.4218740520833535},{"name":"D#4","midi":63,"time":609.7495935000021,"velocity":0.3858267716535433,"duration":0.7093745270833551},{"name":"D#4","midi":63,"time":609.7495935000021,"velocity":0.3858267716535433,"duration":4.271872152083461},{"name":"C#5","midi":73,"time":610.4995930000022,"velocity":0.3858267716535433,"duration":0.7093745270833551},{"name":"C5","midi":72,"time":611.2495925000022,"velocity":0.3858267716535433,"duration":1.4218740520833535},{"name":"A#4","midi":70,"time":612.7495915000022,"velocity":0.3858267716535433,"duration":1.4218740520833535},{"name":"D#4","midi":63,"time":614.2495905000022,"velocity":0.3858267716535433,"duration":0.7093745270833551},{"name":"D#4","midi":63,"time":614.2495905000022,"velocity":0.3858267716535433,"duration":9.259368827083563},{"name":"A#4","midi":70,"time":614.9995900000023,"velocity":0.3858267716535433,"duration":0.7093745270833551},{"name":"G#4","midi":68,"time":615.7495895000023,"velocity":0.3858267716535433,"duration":1.4218740520833535},{"name":"G#4","midi":68,"time":617.2495885000023,"velocity":0.3858267716535433,"duration":1.4218740520833535},{"name":"G#4","midi":68,"time":618.7495875000023,"velocity":0.3858267716535433,"duration":0.7093745270833551},{"name":"A#4","midi":70,"time":619.4995870000024,"velocity":0.3858267716535433,"duration":0.7093745270833551},{"name":"G#4","midi":68,"time":620.2495865000025,"velocity":0.3858267716535433,"duration":1.4218740520833535},{"name":"G#4","midi":68,"time":621.7495855000025,"velocity":0.3858267716535433,"duration":1.4218740520833535},{"name":"G#4","midi":68,"time":623.2495845000025,"velocity":0.3858267716535433,"duration":0.7093745270833551},{"name":"A#4","midi":70,"time":623.9995840000025,"velocity":0.3858267716535433,"duration":0.7093745270833551},{"name":"G#4","midi":68,"time":624.7495835000026,"velocity":0.3858267716535433,"duration":1.4218740520833535},{"name":"G#4","midi":68,"time":626.2495825000026,"velocity":0.3858267716535433,"duration":1.4218740520833535},{"name":"G#4","midi":68,"time":627.7495815000026,"velocity":0.3858267716535433,"duration":0.7093745270833551},{"name":"A#4","midi":70,"time":628.4995810000026,"velocity":0.3858267716535433,"duration":0.7093745270833551},{"name":"G#4","midi":68,"time":629.2495805000027,"velocity":0.3858267716535433,"duration":1.4218740520833535},{"name":"G#4","midi":68,"time":630.7495795000027,"velocity":0.3858267716535433,"duration":1.4218740520833535},{"name":"G#4","midi":68,"time":632.2495785000027,"velocity":0.3858267716535433,"duration":0.7093745270833551},{"name":"C#5","midi":73,"time":632.9995780000028,"velocity":0.3858267716535433,"duration":0.7093745270833551},{"name":"D#4","midi":63,"time":632.9995780000028,"velocity":0.3858267716535433,"duration":3.5593726270833486},{"name":"C5","midi":72,"time":633.7495775000028,"velocity":0.3858267716535433,"duration":1.4218740520833535},{"name":"C5","midi":72,"time":635.2495765000028,"velocity":0.3858267716535433,"duration":1.4218740520832398},{"name":"D#4","midi":63,"time":636.7495755000027,"velocity":0.3858267716535433,"duration":0.7093745270833551},{"name":"D#4","midi":63,"time":636.7495755000027,"velocity":0.3858267716535433,"duration":4.271872152083461},{"name":"C#5","midi":73,"time":637.4995750000028,"velocity":0.3858267716535433,"duration":0.7093745270833551},{"name":"C5","midi":72,"time":638.2495745000028,"velocity":0.3858267716535433,"duration":1.4218740520833535},{"name":"C5","midi":72,"time":639.7495735000028,"velocity":0.3858267716535433,"duration":1.4218740520833535},{"name":"D#4","midi":63,"time":641.2495725000028,"velocity":0.3858267716535433,"duration":0.7093745270833551},{"name":"D#4","midi":63,"time":641.2495725000028,"velocity":0.3858267716535433,"duration":4.271872152083461},{"name":"C5","midi":72,"time":641.9995720000029,"velocity":0.3858267716535433,"duration":0.7093745270833551},{"name":"A#4","midi":70,"time":642.749571500003,"velocity":0.3858267716535433,"duration":1.4218740520833535},{"name":"A#4","midi":70,"time":644.249570500003,"velocity":0.3858267716535433,"duration":1.4218740520833535},{"name":"D#4","midi":63,"time":645.749569500003,"velocity":0.3858267716535433,"duration":0.7093745270833551},{"name":"D#4","midi":63,"time":645.749569500003,"velocity":0.3858267716535433,"duration":4.271872152083461},{"name":"C#5","midi":73,"time":646.499569000003,"velocity":0.3858267716535433,"duration":0.7093745270833551},{"name":"C5","midi":72,"time":647.2495685000031,"velocity":0.3858267716535433,"duration":1.4218740520833535},{"name":"A#4","midi":70,"time":648.7495675000031,"velocity":0.3858267716535433,"duration":1.4218740520833535},{"name":"D#4","midi":63,"time":650.2495665000031,"velocity":0.3858267716535433,"duration":0.7093745270833551},{"name":"D#4","midi":63,"time":650.2495665000031,"velocity":0.3858267716535433,"duration":9.259368827083563},{"name":"A#4","midi":70,"time":650.9995660000031,"velocity":0.3858267716535433,"duration":0.7093745270833551},{"name":"G#4","midi":68,"time":651.7495655000032,"velocity":0.3858267716535433,"duration":1.4218740520833535},{"name":"G#4","midi":68,"time":653.2495645000032,"velocity":0.3858267716535433,"duration":1.4218740520833535},{"name":"G#4","midi":68,"time":654.7495635000032,"velocity":0.3858267716535433,"duration":0.7093745270833551},{"name":"A#4","midi":70,"time":655.4995630000033,"velocity":0.3858267716535433,"duration":0.7093745270833551},{"name":"G#4","midi":68,"time":656.2495625000033,"velocity":0.3858267716535433,"duration":1.4218740520833535},{"name":"G#4","midi":68,"time":657.7495615000033,"velocity":0.3858267716535433,"duration":1.4218740520833535},{"name":"G#4","midi":68,"time":659.2495605000033,"velocity":0.3858267716535433,"duration":0.7093745270833551},{"name":"G4","midi":67,"time":659.9995600000034,"velocity":0.3858267716535433,"duration":0.7093745270833551},{"name":"F4","midi":65,"time":660.7495595000034,"velocity":0.3858267716535433,"duration":1.4218740520833535},{"name":"F4","midi":65,"time":662.2495585000034,"velocity":0.3858267716535433,"duration":1.4218740520833535},{"name":"F4","midi":65,"time":663.7495575000034,"velocity":0.3858267716535433,"duration":0.7093745270833551},{"name":"G4","midi":67,"time":664.4995570000035,"velocity":0.3858267716535433,"duration":0.7093745270833551},{"name":"F4","midi":65,"time":665.2495565000036,"velocity":0.3858267716535433,"duration":1.4218740520833535},{"name":"F4","midi":65,"time":666.7495555000036,"velocity":0.3858267716535433,"duration":1.4218740520833535},{"name":"F4","midi":65,"time":668.2495545000036,"velocity":0.3858267716535433,"duration":0.7093745270833551},{"name":"D#4","midi":63,"time":668.9995540000036,"velocity":0.3858267716535433,"duration":0.7093745270833551},{"name":"D#4","midi":63,"time":668.9995540000036,"velocity":0.3858267716535433,"duration":2.134373577083352},{"name":"C5","midi":72,"time":669.7495535000037,"velocity":0.3858267716535433,"duration":1.4218740520832398},{"name":"C5","midi":72,"time":671.2495525000036,"velocity":0.3858267716535433,"duration":1.4218740520833535},{"name":"D#4","midi":63,"time":671.2495525000036,"velocity":0.3858267716535433,"duration":2.134373577083352},{"name":"C5","midi":72,"time":672.7495515000036,"velocity":0.3858267716535433,"duration":0.7093745270833551},{"name":"C#5","midi":73,"time":673.4995510000036,"velocity":0.3858267716535433,"duration":0.7093745270833551},{"name":"D#4","midi":63,"time":673.4995510000036,"velocity":0.3858267716535433,"duration":3.5593726270833486},{"name":"C5","midi":72,"time":674.2495505000037,"velocity":0.3858267716535433,"duration":1.4218740520833535},{"name":"C5","midi":72,"time":675.7495495000037,"velocity":0.3858267716535433,"duration":1.4218740520832398},{"name":"D#4","midi":63,"time":677.2495485000036,"velocity":0.3858267716535433,"duration":0.7093745270833551},{"name":"D#4","midi":63,"time":677.2495485000036,"velocity":0.3858267716535433,"duration":4.271872152083461},{"name":"C5","midi":72,"time":677.9995480000036,"velocity":0.3858267716535433,"duration":0.7093745270833551},{"name":"A#4","midi":70,"time":678.7495475000037,"velocity":0.3858267716535433,"duration":1.4218740520833535},{"name":"A#4","midi":70,"time":680.2495465000037,"velocity":0.3858267716535433,"duration":1.4218740520833535},{"name":"D#4","midi":63,"time":681.7495455000037,"velocity":0.3858267716535433,"duration":0.7093745270833551},{"name":"D#4","midi":63,"time":681.7495455000037,"velocity":0.3858267716535433,"duration":4.271872152083461},{"name":"C#5","midi":73,"time":682.4995450000038,"velocity":0.3858267716535433,"duration":0.7093745270833551},{"name":"C5","midi":72,"time":683.2495445000038,"velocity":0.3858267716535433,"duration":1.4218740520833535},{"name":"A#4","midi":70,"time":684.7495435000038,"velocity":0.3858267716535433,"duration":1.4218740520833535},{"name":"D#4","midi":63,"time":686.2495425000038,"velocity":0.3858267716535433,"duration":0.7093745270833551},{"name":"D#4","midi":63,"time":686.2495425000038,"velocity":0.3858267716535433,"duration":0.7093745270833551},{"name":"G#4","midi":68,"time":686.9995420000039,"velocity":0.6299212598425197,"duration":0.7093745270833551},{"name":"G4","midi":67,"time":687.7495415000039,"velocity":0.6299212598425197,"duration":0.7093745270833551},{"name":"F4","midi":65,"time":688.499541000004,"velocity":0.6299212598425197,"duration":0.7093745270833551},{"name":"G#4","midi":68,"time":689.2495405000041,"velocity":0.6299212598425197,"duration":0.7093745270833551},{"name":"G4","midi":67,"time":689.9995400000041,"velocity":0.6299212598425197,"duration":0.7093745270833551},{"name":"F4","midi":65,"time":690.7495395000042,"velocity":0.6299212598425197,"duration":0.7093745270833551},{"name":"D#5","midi":75,"time":691.4995390000042,"velocity":0.6299212598425197,"duration":0.7093745270833551},{"name":"G4","midi":67,"time":692.2495385000043,"velocity":0.6299212598425197,"duration":0.7093745270833551},{"name":"G#4","midi":68,"time":692.9995380000043,"velocity":0.6299212598425197,"duration":0.7093745270833551},{"name":"G#4","midi":68,"time":693.7495375000044,"velocity":0.6299212598425197,"duration":0.7093745270833551},{"name":"G4","midi":67,"time":694.4995370000045,"velocity":0.6299212598425197,"duration":0.7093745270833551},{"name":"F4","midi":65,"time":695.2495365000045,"velocity":0.6299212598425197,"duration":0.7093745270833551},{"name":"G#4","midi":68,"time":695.9995360000046,"velocity":0.6299212598425197,"duration":0.7093745270833551},{"name":"G4","midi":67,"time":696.7495355000046,"velocity":0.6299212598425197,"duration":0.7093745270833551},{"name":"F4","midi":65,"time":697.4995350000047,"velocity":0.6299212598425197,"duration":0.7093745270833551},{"name":"G#4","midi":68,"time":698.2495345000048,"velocity":0.6299212598425197,"duration":0.7093745270833551},{"name":"G4","midi":67,"time":698.9995340000048,"velocity":0.6299212598425197,"duration":0.7093745270833551},{"name":"F4","midi":65,"time":699.7495335000049,"velocity":0.6299212598425197,"duration":0.7093745270833551},{"name":"C#5","midi":73,"time":700.4995330000049,"velocity":0.6299212598425197,"duration":0.7093745270833551},{"name":"G4","midi":67,"time":701.249532500005,"velocity":0.6299212598425197,"duration":0.7093745270833551},{"name":"G#4","midi":68,"time":701.999532000005,"velocity":0.6299212598425197,"duration":0.7093745270833551},{"name":"G#4","midi":68,"time":702.7495315000051,"velocity":0.6299212598425197,"duration":0.7093745270833551},{"name":"G4","midi":67,"time":703.4995310000052,"velocity":0.6299212598425197,"duration":0.7093745270833551},{"name":"F4","midi":65,"time":704.2495305000052,"velocity":0.6299212598425197,"duration":0.7093745270833551},{"name":"C5","midi":72,"time":704.9995300000053,"velocity":0.6299212598425197,"duration":0.7093745270833551},{"name":"A#4","midi":70,"time":705.7495295000053,"velocity":0.6299212598425197,"duration":0.7093745270833551},{"name":"G#4","midi":68,"time":706.4995290000054,"velocity":0.6299212598425197,"duration":0.7093745270833551},{"name":"C5","midi":72,"time":707.2495285000055,"velocity":0.6299212598425197,"duration":0.7093745270833551},{"name":"A#4","midi":70,"time":707.9995280000055,"velocity":0.6299212598425197,"duration":0.7093745270833551},{"name":"G#4","midi":68,"time":708.7495275000056,"velocity":0.6299212598425197,"duration":0.7093745270833551},{"name":"D#5","midi":75,"time":709.4995270000056,"velocity":0.6299212598425197,"duration":0.7093745270833551},{"name":"G#4","midi":68,"time":710.2495265000057,"velocity":0.6299212598425197,"duration":0.7093745270833551},{"name":"A#4","midi":70,"time":710.9995260000057,"velocity":0.6299212598425197,"duration":0.7093745270833551},{"name":"C5","midi":72,"time":711.7495255000058,"velocity":0.6299212598425197,"duration":0.7093745270833551},{"name":"A#4","midi":70,"time":712.4995250000059,"velocity":0.6299212598425197,"duration":0.7093745270833551},{"name":"G#4","midi":68,"time":713.2495245000059,"velocity":0.6299212598425197,"duration":0.7093745270833551},{"name":"A#4","midi":70,"time":713.999524000006,"velocity":0.6299212598425197,"duration":0.7093745270833551},{"name":"G#4","midi":68,"time":714.749523500006,"velocity":0.6299212598425197,"duration":0.7093745270833551},{"name":"G4","midi":67,"time":715.4995230000061,"velocity":0.6299212598425197,"duration":0.7093745270833551},{"name":"A#4","midi":70,"time":716.2495225000062,"velocity":0.6299212598425197,"duration":0.7093745270833551},{"name":"G#4","midi":68,"time":716.9995220000062,"velocity":0.6299212598425197,"duration":0.7093745270833551},{"name":"G4","midi":67,"time":717.7495215000063,"velocity":0.6299212598425197,"duration":0.7093745270833551},{"name":"D#5","midi":75,"time":718.4995210000063,"velocity":0.6299212598425197,"duration":0.7093745270833551},{"name":"G4","midi":67,"time":719.2495205000064,"velocity":0.6299212598425197,"duration":0.7093745270833551},{"name":"G#4","midi":68,"time":719.9995200000064,"velocity":0.6299212598425197,"duration":0.7093745270833551},{"name":"A#4","midi":70,"time":720.7495195000065,"velocity":0.6299212598425197,"duration":0.7093745270833551},{"name":"G#4","midi":68,"time":721.4995190000066,"velocity":0.6299212598425197,"duration":0.7093745270833551},{"name":"G4","midi":67,"time":722.2495185000066,"velocity":0.6299212598425197,"duration":0.7093745270833551},{"name":"G#4","midi":68,"time":722.9995180000067,"velocity":0.6299212598425197,"duration":0.7093745270833551},{"name":"G4","midi":67,"time":723.7495175000067,"velocity":0.6299212598425197,"duration":0.7093745270833551},{"name":"F4","midi":65,"time":724.4995170000068,"velocity":0.6299212598425197,"duration":0.7093745270833551},{"name":"G#4","midi":68,"time":725.2495165000068,"velocity":0.6299212598425197,"duration":0.7093745270833551},{"name":"G4","midi":67,"time":725.9995160000069,"velocity":0.6299212598425197,"duration":0.7093745270833551},{"name":"F4","midi":65,"time":726.749515500007,"velocity":0.6299212598425197,"duration":0.7093745270833551},{"name":"C5","midi":72,"time":727.499515000007,"velocity":0.6299212598425197,"duration":0.7093745270833551},{"name":"F4","midi":65,"time":728.2495145000071,"velocity":0.6299212598425197,"duration":0.7093745270833551},{"name":"G4","midi":67,"time":728.9995140000071,"velocity":0.6299212598425197,"duration":0.7093745270833551},{"name":"G#4","midi":68,"time":729.7495135000072,"velocity":0.6299212598425197,"duration":0.7093745270833551},{"name":"G4","midi":67,"time":730.4995130000073,"velocity":0.6299212598425197,"duration":0.7093745270833551},{"name":"F4","midi":65,"time":731.2495125000073,"velocity":0.6299212598425197,"duration":0.7093745270833551},{"name":"G#4","midi":68,"time":731.9995120000074,"velocity":0.6299212598425197,"duration":0.7093745270833551},{"name":"G4","midi":67,"time":732.7495115000074,"velocity":0.6299212598425197,"duration":0.7093745270833551},{"name":"F4","midi":65,"time":733.4995110000075,"velocity":0.6299212598425197,"duration":0.7093745270833551},{"name":"G#4","midi":68,"time":734.2495105000075,"velocity":0.6299212598425197,"duration":0.7093745270833551},{"name":"G4","midi":67,"time":734.9995100000076,"velocity":0.6299212598425197,"duration":0.7093745270833551},{"name":"F4","midi":65,"time":735.7495095000077,"velocity":0.6299212598425197,"duration":0.7093745270833551},{"name":"C#5","midi":73,"time":736.4995090000077,"velocity":0.6299212598425197,"duration":0.7093745270833551},{"name":"F4","midi":65,"time":737.2495085000078,"velocity":0.6299212598425197,"duration":0.7093745270833551},{"name":"G4","midi":67,"time":737.9995080000078,"velocity":0.6299212598425197,"duration":0.7093745270833551},{"name":"G#4","midi":68,"time":738.7495075000079,"velocity":0.6299212598425197,"duration":0.7093745270833551},{"name":"G4","midi":67,"time":739.499507000008,"velocity":0.6299212598425197,"duration":0.7093745270833551},{"name":"F4","midi":65,"time":740.249506500008,"velocity":0.6299212598425197,"duration":0.7093745270833551},{"name":"C5","midi":72,"time":740.9995060000081,"velocity":0.6299212598425197,"duration":0.7093745270833551},{"name":"A#4","midi":70,"time":741.7495055000081,"velocity":0.6299212598425197,"duration":0.7093745270833551},{"name":"G#4","midi":68,"time":742.4995050000082,"velocity":0.6299212598425197,"duration":0.7093745270833551},{"name":"C5","midi":72,"time":743.2495045000082,"velocity":0.6299212598425197,"duration":0.7093745270833551},{"name":"A#4","midi":70,"time":743.9995040000083,"velocity":0.6299212598425197,"duration":0.7093745270833551},{"name":"G#4","midi":68,"time":744.7495035000084,"velocity":0.6299212598425197,"duration":0.7093745270833551},{"name":"D#5","midi":75,"time":745.4995030000084,"velocity":0.6299212598425197,"duration":0.7093745270833551},{"name":"G#4","midi":68,"time":746.2495025000085,"velocity":0.6299212598425197,"duration":0.7093745270833551},{"name":"A#4","midi":70,"time":746.9995020000085,"velocity":0.6299212598425197,"duration":0.7093745270833551},{"name":"C5","midi":72,"time":747.7495015000086,"velocity":0.6299212598425197,"duration":0.7093745270833551},{"name":"A#4","midi":70,"time":748.4995010000086,"velocity":0.6299212598425197,"duration":0.7093745270833551},{"name":"G#4","midi":68,"time":749.2495005000087,"velocity":0.6299212598425197,"duration":0.7093745270833551},{"name":"A#4","midi":70,"time":749.9995000000088,"velocity":0.6299212598425197,"duration":0.7093745270833551},{"name":"G#4","midi":68,"time":750.7494995000088,"velocity":0.6299212598425197,"duration":0.7093745270833551},{"name":"G4","midi":67,"time":751.4994990000089,"velocity":0.6299212598425197,"duration":0.7093745270833551},{"name":"A#4","midi":70,"time":752.2494985000089,"velocity":0.6299212598425197,"duration":0.7093745270833551},{"name":"G#4","midi":68,"time":752.999498000009,"velocity":0.6299212598425197,"duration":0.7093745270833551},{"name":"G4","midi":67,"time":753.749497500009,"velocity":0.6299212598425197,"duration":0.7093745270833551},{"name":"D#5","midi":75,"time":754.4994970000091,"velocity":0.6299212598425197,"duration":0.7093745270833551},{"name":"G4","midi":67,"time":755.2494965000092,"velocity":0.6299212598425197,"duration":0.7093745270833551},{"name":"G#4","midi":68,"time":755.9994960000092,"velocity":0.6299212598425197,"duration":0.7093745270833551},{"name":"A#4","midi":70,"time":756.7494955000093,"velocity":0.6299212598425197,"duration":0.7093745270833551},{"name":"G#4","midi":68,"time":757.4994950000093,"velocity":0.6299212598425197,"duration":0.7093745270833551},{"name":"G4","midi":67,"time":758.2494945000094,"velocity":0.6299212598425197,"duration":0.7093745270833551},{"name":"G#5","midi":80,"time":758.9994940000095,"velocity":0.7559055118110236,"duration":0.7093745270833551},{"name":"G#5","midi":80,"time":758.9994940000095,"velocity":0.7559055118110236,"duration":2.1343735770834655},{"name":"G#4","midi":68,"time":759.7494935000095,"velocity":0.7559055118110236,"duration":0.7093745270833551},{"name":"C5","midi":72,"time":760.4994930000096,"velocity":0.7559055118110236,"duration":0.7093745270833551},{"name":"G5","midi":79,"time":761.2494925000096,"velocity":0.7559055118110236,"duration":0.7093745270833551},{"name":"G5","midi":79,"time":761.2494925000096,"velocity":0.7559055118110236,"duration":2.1343735770834655},{"name":"G#4","midi":68,"time":761.9994920000097,"velocity":0.7559055118110236,"duration":0.7093745270833551},{"name":"C5","midi":72,"time":762.7494915000098,"velocity":0.7559055118110236,"duration":0.7093745270833551},{"name":"F5","midi":77,"time":763.4994910000098,"velocity":0.7559055118110236,"duration":0.7093745270833551},{"name":"F5","midi":77,"time":763.4994910000098,"velocity":0.7559055118110236,"duration":2.1343735770834655},{"name":"G#4","midi":68,"time":764.2494905000099,"velocity":0.7559055118110236,"duration":0.7093745270833551},{"name":"C#5","midi":73,"time":764.9994900000099,"velocity":0.7559055118110236,"duration":0.7093745270833551},{"name":"D#5","midi":75,"time":765.74948950001,"velocity":0.7559055118110236,"duration":0.7093745270833551},{"name":"D#5","midi":75,"time":765.74948950001,"velocity":0.7559055118110236,"duration":1.4218740520833535},{"name":"G#4","midi":68,"time":766.49948900001,"velocity":0.7559055118110236,"duration":0.7093745270832414},{"name":"C#5","midi":73,"time":767.24948850001,"velocity":0.7559055118110236,"duration":0.7093745270833551},{"name":"C#5","midi":73,"time":767.24948850001,"velocity":0.7559055118110236,"duration":0.7093745270833551},{"name":"D#5","midi":75,"time":767.99948800001,"velocity":0.7559055118110236,"duration":0.7093745270833551},{"name":"D#5","midi":75,"time":767.99948800001,"velocity":0.7559055118110236,"duration":2.1343735770834655},{"name":"G#4","midi":68,"time":768.7494875000101,"velocity":0.7559055118110236,"duration":0.7093745270833551},{"name":"C5","midi":72,"time":769.4994870000102,"velocity":0.7559055118110236,"duration":0.7093745270833551},{"name":"D#5","midi":75,"time":770.2494865000102,"velocity":0.7559055118110236,"duration":0.7093745270833551},{"name":"D#5","midi":75,"time":770.2494865000102,"velocity":0.7559055118110236,"duration":2.1343735770834655},{"name":"G#4","midi":68,"time":770.9994860000103,"velocity":0.7559055118110236,"duration":0.7093745270833551},{"name":"C5","midi":72,"time":771.7494855000103,"velocity":0.7559055118110236,"duration":0.7093745270833551},{"name":"D#5","midi":75,"time":772.4994850000104,"velocity":0.7559055118110236,"duration":0.7093745270833551},{"name":"D#5","midi":75,"time":772.4994850000104,"velocity":0.7559055118110236,"duration":2.1343735770834655},{"name":"G4","midi":67,"time":773.2494845000105,"velocity":0.7559055118110236,"duration":0.7093745270833551},{"name":"A#4","midi":70,"time":773.9994840000105,"velocity":0.7559055118110236,"duration":0.7093745270833551},{"name":"D#5","midi":75,"time":774.7494835000106,"velocity":0.7559055118110236,"duration":0.7093745270833551},{"name":"D#5","midi":75,"time":774.7494835000106,"velocity":0.7559055118110236,"duration":2.1343735770834655},{"name":"G4","midi":67,"time":775.4994830000106,"velocity":0.7559055118110236,"duration":0.7093745270833551},{"name":"A#4","midi":70,"time":776.2494825000107,"velocity":0.7559055118110236,"duration":0.7093745270833551},{"name":"G#5","midi":80,"time":776.9994820000107,"velocity":0.7559055118110236,"duration":0.7093745270833551},{"name":"G#5","midi":80,"time":776.9994820000107,"velocity":0.7559055118110236,"duration":1.4218740520833535},{"name":"G#4","midi":68,"time":777.7494815000108,"velocity":0.7559055118110236,"duration":0.7093745270832414},{"name":"G5","midi":79,"time":778.4994810000107,"velocity":0.7559055118110236,"duration":0.7093745270833551},{"name":"G5","midi":79,"time":778.4994810000107,"velocity":0.7559055118110236,"duration":1.4218740520833535},{"name":"G#4","midi":68,"time":779.2494805000108,"velocity":0.7559055118110236,"duration":0.7093745270832414},{"name":"F5","midi":77,"time":779.9994800000107,"velocity":0.7559055118110236,"duration":0.7093745270833551},{"name":"F5","midi":77,"time":779.9994800000107,"velocity":0.7559055118110236,"duration":1.4218740520833535},{"name":"G#4","midi":68,"time":780.7494795000108,"velocity":0.7559055118110236,"duration":0.7093745270832414},{"name":"F5","midi":77,"time":781.4994790000108,"velocity":0.7559055118110236,"duration":0.7093745270833551},{"name":"F5","midi":77,"time":781.4994790000108,"velocity":0.7559055118110236,"duration":2.1343735770834655},{"name":"G#4","midi":68,"time":782.2494785000108,"velocity":0.7559055118110236,"duration":0.7093745270833551},{"name":"C#5","midi":73,"time":782.9994780000109,"velocity":0.7559055118110236,"duration":0.7093745270833551},{"name":"D#5","midi":75,"time":783.7494775000109,"velocity":0.7559055118110236,"duration":0.7093745270833551},{"name":"D#5","midi":75,"time":783.7494775000109,"velocity":0.7559055118110236,"duration":1.4218740520833535},{"name":"G#4","midi":68,"time":784.499477000011,"velocity":0.7559055118110236,"duration":0.7093745270832414},{"name":"C#5","midi":73,"time":785.2494765000109,"velocity":0.7559055118110236,"duration":0.7093745270833551},{"name":"C#5","midi":73,"time":785.2494765000109,"velocity":0.7559055118110236,"duration":0.7093745270833551},{"name":"D#5","midi":75,"time":785.999476000011,"velocity":0.7559055118110236,"duration":0.7093745270833551},{"name":"D#5","midi":75,"time":785.999476000011,"velocity":0.7559055118110236,"duration":2.1343735770834655},{"name":"G#4","midi":68,"time":786.749475500011,"velocity":0.7559055118110236,"duration":0.7093745270833551},{"name":"C5","midi":72,"time":787.4994750000111,"velocity":0.7559055118110236,"duration":0.7093745270833551},{"name":"D#5","midi":75,"time":788.2494745000112,"velocity":0.7559055118110236,"duration":0.7093745270833551},{"name":"D#5","midi":75,"time":788.2494745000112,"velocity":0.7559055118110236,"duration":2.1343735770834655},{"name":"G#4","midi":68,"time":788.9994740000112,"velocity":0.7559055118110236,"duration":0.7093745270833551},{"name":"C5","midi":72,"time":789.7494735000113,"velocity":0.7559055118110236,"duration":0.7093745270833551},{"name":"D#5","midi":75,"time":790.4994730000113,"velocity":0.7559055118110236,"duration":0.7093745270833551},{"name":"D#5","midi":75,"time":790.4994730000113,"velocity":0.7559055118110236,"duration":2.1343735770834655},{"name":"G4","midi":67,"time":791.2494725000114,"velocity":0.7559055118110236,"duration":0.7093745270833551},{"name":"A#4","midi":70,"time":791.9994720000115,"velocity":0.7559055118110236,"duration":0.7093745270833551},{"name":"D#5","midi":75,"time":792.7494715000115,"velocity":0.7559055118110236,"duration":0.7093745270833551},{"name":"D#5","midi":75,"time":792.7494715000115,"velocity":0.7559055118110236,"duration":2.1343735770834655},{"name":"G4","midi":67,"time":793.4994710000116,"velocity":0.7559055118110236,"duration":0.7093745270833551},{"name":"A#4","midi":70,"time":794.2494705000116,"velocity":0.7559055118110236,"duration":0.7093745270833551},{"name":"G#5","midi":80,"time":794.9994700000117,"velocity":0.7559055118110236,"duration":0.7093745270833551},{"name":"G#5","midi":80,"time":794.9994700000117,"velocity":0.7559055118110236,"duration":2.1343735770834655},{"name":"G#4","midi":68,"time":795.7494695000117,"velocity":0.7559055118110236,"duration":0.7093745270833551},{"name":"C5","midi":72,"time":796.4994690000118,"velocity":0.7559055118110236,"duration":0.7093745270833551},{"name":"G5","midi":79,"time":797.2494685000119,"velocity":0.7559055118110236,"duration":0.7093745270833551},{"name":"G5","midi":79,"time":797.2494685000119,"velocity":0.7559055118110236,"duration":2.1343735770834655},{"name":"G#4","midi":68,"time":797.9994680000119,"velocity":0.7559055118110236,"duration":0.7093745270833551},{"name":"C5","midi":72,"time":798.749467500012,"velocity":0.7559055118110236,"duration":0.7093745270833551},{"name":"F5","midi":77,"time":799.499467000012,"velocity":0.7559055118110236,"duration":0.7093745270833551},{"name":"F5","midi":77,"time":799.499467000012,"velocity":0.7559055118110236,"duration":2.1343735770834655},{"name":"G#4","midi":68,"time":800.2494665000121,"velocity":0.7559055118110236,"duration":0.7093745270833551},{"name":"C#5","midi":73,"time":800.9994660000121,"velocity":0.7559055118110236,"duration":0.7093745270833551},{"name":"D#5","midi":75,"time":801.7494655000122,"velocity":0.7559055118110236,"duration":0.7093745270833551},{"name":"D#5","midi":75,"time":801.7494655000122,"velocity":0.7559055118110236,"duration":1.4218740520833535},{"name":"G#4","midi":68,"time":802.4994650000123,"velocity":0.7559055118110236,"duration":0.7093745270832414},{"name":"C#5","midi":73,"time":803.2494645000122,"velocity":0.7559055118110236,"duration":0.7093745270833551},{"name":"C#5","midi":73,"time":803.2494645000122,"velocity":0.7559055118110236,"duration":0.7093745270833551},{"name":"D#5","midi":75,"time":803.9994640000123,"velocity":0.7559055118110236,"duration":0.7093745270833551},{"name":"D#5","midi":75,"time":803.9994640000123,"velocity":0.7559055118110236,"duration":2.1343735770834655},{"name":"G#4","midi":68,"time":804.7494635000123,"velocity":0.7559055118110236,"duration":0.7093745270833551},{"name":"C5","midi":72,"time":805.4994630000124,"velocity":0.7559055118110236,"duration":0.7093745270833551},{"name":"D#5","midi":75,"time":806.2494625000124,"velocity":0.7559055118110236,"duration":0.7093745270833551},{"name":"D#5","midi":75,"time":806.2494625000124,"velocity":0.7559055118110236,"duration":2.1343735770834655},{"name":"G#4","midi":68,"time":806.9994620000125,"velocity":0.7559055118110236,"duration":0.7093745270833551},{"name":"C5","midi":72,"time":807.7494615000126,"velocity":0.7559055118110236,"duration":0.7093745270833551},{"name":"D#5","midi":75,"time":808.4994610000126,"velocity":0.7559055118110236,"duration":0.7093745270833551},{"name":"D#5","midi":75,"time":808.4994610000126,"velocity":0.7559055118110236,"duration":2.1343735770834655},{"name":"G4","midi":67,"time":809.2494605000127,"velocity":0.7559055118110236,"duration":0.7093745270833551},{"name":"A#4","midi":70,"time":809.9994600000127,"velocity":0.7559055118110236,"duration":0.7093745270833551},{"name":"D#5","midi":75,"time":810.7494595000128,"velocity":0.7559055118110236,"duration":0.7093745270833551},{"name":"D#5","midi":75,"time":810.7494595000128,"velocity":0.7559055118110236,"duration":2.1343735770834655},{"name":"G4","midi":67,"time":811.4994590000128,"velocity":0.7559055118110236,"duration":0.7093745270833551},{"name":"A#4","midi":70,"time":812.2494585000129,"velocity":0.7559055118110236,"duration":0.7093745270833551},{"name":"G#5","midi":80,"time":812.999458000013,"velocity":0.7559055118110236,"duration":0.7093745270833551},{"name":"G#5","midi":80,"time":812.999458000013,"velocity":0.7559055118110236,"duration":1.4218740520833535},{"name":"G#4","midi":68,"time":813.749457500013,"velocity":0.7559055118110236,"duration":0.7093745270832414},{"name":"G5","midi":79,"time":814.499457000013,"velocity":0.7559055118110236,"duration":0.7093745270833551},{"name":"G5","midi":79,"time":814.499457000013,"velocity":0.7559055118110236,"duration":1.4218740520833535},{"name":"G#4","midi":68,"time":815.249456500013,"velocity":0.7559055118110236,"duration":0.7093745270832414},{"name":"F5","midi":77,"time":815.999456000013,"velocity":0.7559055118110236,"duration":0.7093745270833551},{"name":"F5","midi":77,"time":815.999456000013,"velocity":0.7559055118110236,"duration":1.4218740520833535},{"name":"G#4","midi":68,"time":816.749455500013,"velocity":0.7559055118110236,"duration":0.7093745270832414},{"name":"F5","midi":77,"time":817.499455000013,"velocity":0.7559055118110236,"duration":0.7093745270833551},{"name":"F5","midi":77,"time":817.499455000013,"velocity":0.7559055118110236,"duration":2.1343735770834655},{"name":"G#4","midi":68,"time":818.249454500013,"velocity":0.7559055118110236,"duration":0.7093745270833551},{"name":"C#5","midi":73,"time":818.9994540000131,"velocity":0.7559055118110236,"duration":0.7093745270833551},{"name":"D#5","midi":75,"time":819.7494535000131,"velocity":0.7559055118110236,"duration":0.7093745270833551},{"name":"D#5","midi":75,"time":819.7494535000131,"velocity":0.7559055118110236,"duration":1.4218740520833535},{"name":"G#4","midi":68,"time":820.4994530000132,"velocity":0.7559055118110236,"duration":0.7093745270832414},{"name":"C#5","midi":73,"time":821.2494525000131,"velocity":0.7559055118110236,"duration":0.7093745270833551},{"name":"C#5","midi":73,"time":821.2494525000131,"velocity":0.7559055118110236,"duration":0.7093745270833551},{"name":"D#5","midi":75,"time":821.9994520000132,"velocity":0.7559055118110236,"duration":0.7093745270833551},{"name":"D#5","midi":75,"time":821.9994520000132,"velocity":0.7559055118110236,"duration":2.1343735770834655},{"name":"G#4","midi":68,"time":822.7494515000133,"velocity":0.7559055118110236,"duration":0.7093745270833551},{"name":"C5","midi":72,"time":823.4994510000133,"velocity":0.7559055118110236,"duration":0.7093745270833551},{"name":"D#5","midi":75,"time":824.2494505000134,"velocity":0.7559055118110236,"duration":0.7093745270833551},{"name":"D#5","midi":75,"time":824.2494505000134,"velocity":0.7559055118110236,"duration":2.1343735770834655},{"name":"G#4","midi":68,"time":824.9994500000134,"velocity":0.7559055118110236,"duration":0.7093745270833551},{"name":"C5","midi":72,"time":825.7494495000135,"velocity":0.7559055118110236,"duration":0.7093745270833551},{"name":"D#5","midi":75,"time":826.4994490000136,"velocity":0.7559055118110236,"duration":0.7093745270833551},{"name":"D#5","midi":75,"time":826.4994490000136,"velocity":0.7559055118110236,"duration":2.1343735770834655},{"name":"G4","midi":67,"time":827.2494485000136,"velocity":0.7559055118110236,"duration":0.7093745270833551},{"name":"A#4","midi":70,"time":827.9994480000137,"velocity":0.7559055118110236,"duration":0.7093745270833551},{"name":"D#5","midi":75,"time":828.7494475000137,"velocity":0.7559055118110236,"duration":0.7093745270833551},{"name":"D#5","midi":75,"time":828.7494475000137,"velocity":0.7559055118110236,"duration":2.134373577083352},{"name":"G4","midi":67,"time":829.4994470000138,"velocity":0.7559055118110236,"duration":9.971868352083334},{"name":"A#4","midi":70,"time":839.9994400000138,"velocity":0.3858267716535433,"duration":0.7093745270833551},{"name":"D#4","midi":63,"time":840.7494395000139,"velocity":0.3858267716535433,"duration":0.7093745270833551},{"name":"F4","midi":65,"time":841.4994390000139,"velocity":0.3858267716535433,"duration":0.7093745270833551},{"name":"G#4","midi":68,"time":842.249438500014,"velocity":0.3858267716535433,"duration":0.7093745270833551},{"name":"D#4","midi":63,"time":842.999438000014,"velocity":0.3858267716535433,"duration":0.7093745270833551},{"name":"F4","midi":65,"time":843.7494375000141,"velocity":0.3858267716535433,"duration":0.7093745270833551},{"name":"A#4","midi":70,"time":844.4994370000142,"velocity":0.3858267716535433,"duration":0.7093745270833551},{"name":"D#4","midi":63,"time":845.2494365000142,"velocity":0.3858267716535433,"duration":0.7093745270833551},{"name":"F4","midi":65,"time":845.9994360000143,"velocity":0.3858267716535433,"duration":0.7093745270833551},{"name":"G#4","midi":68,"time":846.7494355000143,"velocity":0.3858267716535433,"duration":0.7093745270833551},{"name":"D#4","midi":63,"time":847.4994350000144,"velocity":0.3858267716535433,"duration":0.7093745270833551},{"name":"F4","midi":65,"time":848.2494345000144,"velocity":0.3858267716535433,"duration":0.7093745270833551},{"name":"A#4","midi":70,"time":848.9994340000145,"velocity":0.3858267716535433,"duration":0.7093745270833551},{"name":"D#4","midi":63,"time":849.7494335000146,"velocity":0.3858267716535433,"duration":0.7093745270833551},{"name":"F4","midi":65,"time":850.4994330000146,"velocity":0.3858267716535433,"duration":0.7093745270833551},{"name":"G#4","midi":68,"time":851.2494325000147,"velocity":0.3858267716535433,"duration":0.7093745270833551},{"name":"D#4","midi":63,"time":851.9994320000147,"velocity":0.3858267716535433,"duration":0.7093745270833551},{"name":"F4","midi":65,"time":852.7494315000148,"velocity":0.3858267716535433,"duration":0.7093745270833551},{"name":"A#4","midi":70,"time":853.4994310000149,"velocity":0.3858267716535433,"duration":0.7093745270833551},{"name":"D#4","midi":63,"time":854.2494305000149,"velocity":0.3858267716535433,"duration":0.7093745270833551},{"name":"F4","midi":65,"time":854.999430000015,"velocity":0.3858267716535433,"duration":0.7093745270833551},{"name":"C5","midi":72,"time":855.749429500015,"velocity":0.3858267716535433,"duration":0.7093745270833551},{"name":"D#4","midi":63,"time":856.4994290000151,"velocity":0.3858267716535433,"duration":0.7093745270833551},{"name":"F4","midi":65,"time":857.2494285000151,"velocity":0.3858267716535433,"duration":0.7093745270833551},{"name":"A#4","midi":70,"time":857.9994280000152,"velocity":0.3858267716535433,"duration":0.7093745270833551},{"name":"D#4","midi":63,"time":858.7494275000153,"velocity":0.3858267716535433,"duration":0.7093745270833551},{"name":"F4","midi":65,"time":859.4994270000153,"velocity":0.3858267716535433,"duration":0.7093745270833551},{"name":"G#4","midi":68,"time":860.2494265000154,"velocity":0.3858267716535433,"duration":0.7093745270833551},{"name":"D#4","midi":63,"time":860.9994260000154,"velocity":0.3858267716535433,"duration":0.7093745270833551},{"name":"F4","midi":65,"time":861.7494255000155,"velocity":0.3858267716535433,"duration":0.7093745270833551},{"name":"A#4","midi":70,"time":862.4994250000155,"velocity":0.3858267716535433,"duration":0.7093745270833551},{"name":"D#4","midi":63,"time":863.2494245000156,"velocity":0.3858267716535433,"duration":0.7093745270833551},{"name":"F4","midi":65,"time":863.9994240000157,"velocity":0.3858267716535433,"duration":0.7093745270833551},{"name":"C5","midi":72,"time":864.7494235000157,"velocity":0.3858267716535433,"duration":0.7093745270833551},{"name":"D#4","midi":63,"time":865.4994230000158,"velocity":0.3858267716535433,"duration":0.7093745270833551},{"name":"F4","midi":65,"time":866.2494225000158,"velocity":0.3858267716535433,"duration":0.7093745270833551},{"name":"A#4","midi":70,"time":866.9994220000159,"velocity":0.3858267716535433,"duration":0.7093745270833551},{"name":"D#4","midi":63,"time":867.749421500016,"velocity":0.3858267716535433,"duration":0.7093745270833551},{"name":"F4","midi":65,"time":868.499421000016,"velocity":0.3858267716535433,"duration":0.7093745270833551},{"name":"G#4","midi":68,"time":869.2494205000161,"velocity":0.3858267716535433,"duration":0.7093745270833551},{"name":"D#4","midi":63,"time":869.9994200000161,"velocity":0.3858267716535433,"duration":0.7093745270833551},{"name":"F4","midi":65,"time":870.7494195000162,"velocity":0.3858267716535433,"duration":0.7093745270833551},{"name":"A#4","midi":70,"time":871.4994190000162,"velocity":0.3858267716535433,"duration":0.7093745270833551},{"name":"D#4","midi":63,"time":872.2494185000163,"velocity":0.3858267716535433,"duration":0.7093745270833551},{"name":"F4","midi":65,"time":872.9994180000164,"velocity":0.3858267716535433,"duration":0.7093745270833551},{"name":"G#4","midi":68,"time":873.7494175000164,"velocity":0.3858267716535433,"duration":2.134373577083352},{"name":"A#4","midi":70,"time":875.9994160000165,"velocity":0.3858267716535433,"duration":0.7093745270833551},{"name":"D#4","midi":63,"time":876.7494155000165,"velocity":0.3858267716535433,"duration":0.7093745270833551},{"name":"F4","midi":65,"time":877.4994150000166,"velocity":0.3858267716535433,"duration":0.7093745270833551},{"name":"G#4","midi":68,"time":878.2494145000167,"velocity":0.3858267716535433,"duration":0.7093745270833551},{"name":"D#4","midi":63,"time":878.9994140000167,"velocity":0.3858267716535433,"duration":0.7093745270833551},{"name":"F4","midi":65,"time":879.7494135000168,"velocity":0.3858267716535433,"duration":0.7093745270833551},{"name":"A#4","midi":70,"time":880.4994130000168,"velocity":0.3858267716535433,"duration":0.7093745270833551},{"name":"D#4","midi":63,"time":881.2494125000169,"velocity":0.3858267716535433,"duration":0.7093745270833551},{"name":"F4","midi":65,"time":881.999412000017,"velocity":0.3858267716535433,"duration":0.7093745270833551},{"name":"C5","midi":72,"time":882.749411500017,"velocity":0.3858267716535433,"duration":0.7093745270833551},{"name":"D#4","midi":63,"time":883.4994110000171,"velocity":0.3858267716535433,"duration":0.7093745270833551},{"name":"F4","midi":65,"time":884.2494105000171,"velocity":0.3858267716535433,"duration":0.7093745270833551},{"name":"A#4","midi":70,"time":884.9994100000172,"velocity":0.3858267716535433,"duration":0.7093745270833551},{"name":"D#4","midi":63,"time":885.7494095000172,"velocity":0.3858267716535433,"duration":0.7093745270833551},{"name":"F4","midi":65,"time":886.4994090000173,"velocity":0.3858267716535433,"duration":0.7093745270833551},{"name":"G#4","midi":68,"time":887.2494085000174,"velocity":0.3858267716535433,"duration":0.7093745270833551},{"name":"D#4","midi":63,"time":887.9994080000174,"velocity":0.3858267716535433,"duration":0.7093745270833551},{"name":"F4","midi":65,"time":888.7494075000175,"velocity":0.3858267716535433,"duration":0.7093745270833551},{"name":"A#4","midi":70,"time":889.4994070000175,"velocity":0.3858267716535433,"duration":0.7093745270833551},{"name":"D#4","midi":63,"time":890.2494065000176,"velocity":0.3858267716535433,"duration":0.7093745270833551},{"name":"F4","midi":65,"time":890.9994060000176,"velocity":0.3858267716535433,"duration":0.7093745270833551},{"name":"G#4","midi":68,"time":891.7494055000177,"velocity":0.3858267716535433,"duration":2.134373577083352}]},{"instrument_number":-1,"notes":[{"name":"F3","midi":53,"time":0,"velocity":0.5039370078740157,"duration":2.8468731020833333},{"name":"G#3","midi":56,"time":0,"velocity":0.5039370078740157,"duration":2.8468731020833333},{"name":"C#3","midi":49,"time":2.999998,"velocity":0.5039370078740157,"duration":2.8468731020833338},{"name":"F3","midi":53,"time":2.999998,"velocity":0.5039370078740157,"duration":2.8468731020833338},{"name":"G#3","midi":56,"time":2.999998,"velocity":0.5039370078740157,"duration":2.8468731020833338},{"name":"D#3","midi":51,"time":5.999996,"velocity":0.5039370078740157,"duration":2.8468731020833333},{"name":"G#3","midi":56,"time":5.999996,"velocity":0.5039370078740157,"duration":2.8468731020833333},{"name":"D#3","midi":51,"time":5.999996,"velocity":0.5039370078740157,"duration":2.8468731020833333},{"name":"G#3","midi":56,"time":5.999996,"velocity":0.5039370078740157,"duration":2.8468731020833333},{"name":"G#3","midi":56,"time":8.999994000000001,"velocity":0.5039370078740157,"duration":1.4968740020833327},{"name":"D#3","midi":51,"time":8.999994000000001,"velocity":0.5039370078740157,"duration":2.9968730020833334},{"name":"G3","midi":55,"time":10.499993,"velocity":0.5039370078740157,"duration":1.421874052083334},{"name":"F3","midi":53,"time":11.999992,"velocity":0.5039370078740157,"duration":2.846873102083334},{"name":"G#3","midi":56,"time":11.999992,"velocity":0.5039370078740157,"duration":2.846873102083334},{"name":"C#3","midi":49,"time":14.999990000000002,"velocity":0.5039370078740157,"duration":2.846873102083334},{"name":"F3","midi":53,"time":14.999990000000002,"velocity":0.5039370078740157,"duration":2.846873102083334},{"name":"G#3","midi":56,"time":14.999990000000002,"velocity":0.5039370078740157,"duration":2.846873102083334},{"name":"D#3","midi":51,"time":17.999988000000002,"velocity":0.5039370078740157,"duration":2.8468731020833324},{"name":"G#3","midi":56,"time":17.999988000000002,"velocity":0.5039370078740157,"duration":2.8468731020833324},{"name":"D#3","midi":51,"time":20.999986,"velocity":0.5039370078740157,"duration":2.8468731020833324},{"name":"G3","midi":55,"time":20.999986,"velocity":0.5039370078740157,"duration":2.8468731020833324},{"name":"F2","midi":41,"time":23.999983999999998,"velocity":0.3858267716535433,"duration":8.546869302083337},{"name":"C3","midi":48,"time":23.999983999999998,"velocity":0.3858267716535433,"duration":8.546869302083337},{"name":"F3","midi":53,"time":23.999983999999998,"velocity":0.3858267716535433,"duration":8.546869302083337},{"name":"C#2","midi":37,"time":32.999978,"velocity":0.3858267716535433,"duration":8.546869302083337},{"name":"G#2","midi":44,"time":32.999978,"velocity":0.3858267716535433,"duration":8.546869302083337},{"name":"C#3","midi":49,"time":32.999978,"velocity":0.3858267716535433,"duration":8.546869302083337},{"name":"G#2","midi":44,"time":41.999972,"velocity":0.3858267716535433,"duration":8.546869302083337},{"name":"D#3","midi":51,"time":41.999972,"velocity":0.3858267716535433,"duration":8.546869302083337},{"name":"G#3","midi":56,"time":41.999972,"velocity":0.3858267716535433,"duration":8.546869302083337},{"name":"D#2","midi":39,"time":50.999966,"velocity":0.3858267716535433,"duration":8.546869302083337},{"name":"A#2","midi":46,"time":50.999966,"velocity":0.3858267716535433,"duration":8.546869302083337},{"name":"D#3","midi":51,"time":50.999966,"velocity":0.3858267716535433,"duration":8.546869302083337},{"name":"F2","midi":41,"time":59.99996,"velocity":0.3858267716535433,"duration":8.546869302083337},{"name":"C3","midi":48,"time":59.99996,"velocity":0.3858267716535433,"duration":8.546869302083337},{"name":"F3","midi":53,"time":59.99996,"velocity":0.3858267716535433,"duration":8.546869302083337},{"name":"C#2","midi":37,"time":68.999954,"velocity":0.3858267716535433,"duration":8.546869302083337},{"name":"G#2","midi":44,"time":68.999954,"velocity":0.3858267716535433,"duration":8.546869302083337},{"name":"C#3","midi":49,"time":68.999954,"velocity":0.3858267716535433,"duration":8.546869302083337},{"name":"G#2","midi":44,"time":77.999948,"velocity":0.3858267716535433,"duration":8.546869302083337},{"name":"D#3","midi":51,"time":77.999948,"velocity":0.3858267716535433,"duration":8.546869302083337},{"name":"G#3","midi":56,"time":77.999948,"velocity":0.3858267716535433,"duration":8.546869302083337},{"name":"D#2","midi":39,"time":86.999942,"velocity":0.3858267716535433,"duration":8.546869302083337},{"name":"A#2","midi":46,"time":86.999942,"velocity":0.3858267716535433,"duration":8.546869302083337},{"name":"D#3","midi":51,"time":86.999942,"velocity":0.3858267716535433,"duration":8.546869302083337},{"name":"F2","midi":41,"time":95.999936,"velocity":0.3858267716535433,"duration":0.7093745270833267},{"name":"C3","midi":48,"time":96.74993549999999,"velocity":0.3858267716535433,"duration":0.7093745270833267},{"name":"F3","midi":53,"time":97.49993499999998,"velocity":0.3858267716535433,"duration":0.7093745270833267},{"name":"C3","midi":48,"time":98.24993449999997,"velocity":0.3858267716535433,"duration":0.7093745270833267},{"name":"F3","midi":53,"time":98.99993399999995,"velocity":0.3858267716535433,"duration":0.7093745270833267},{"name":"C3","midi":48,"time":99.74993349999994,"velocity":0.3858267716535433,"duration":0.7093745270833267},{"name":"F2","midi":41,"time":100.49993299999993,"velocity":0.3858267716535433,"duration":0.7093745270833267},{"name":"C3","midi":48,"time":101.24993249999991,"velocity":0.3858267716535433,"duration":0.7093745270833267},{"name":"F3","midi":53,"time":101.9999319999999,"velocity":0.3858267716535433,"duration":0.7093745270833267},{"name":"C3","midi":48,"time":102.74993149999989,"velocity":0.3858267716535433,"duration":0.7093745270833267},{"name":"F3","midi":53,"time":103.49993099999988,"velocity":0.3858267716535433,"duration":0.7093745270833267},{"name":"C3","midi":48,"time":104.24993049999986,"velocity":0.3858267716535433,"duration":0.7093745270833267},{"name":"C#2","midi":37,"time":104.99992999999985,"velocity":0.3858267716535433,"duration":0.7093745270833267},{"name":"G#2","midi":44,"time":105.74992949999984,"velocity":0.3858267716535433,"duration":0.7093745270833267},{"name":"C#3","midi":49,"time":106.49992899999982,"velocity":0.3858267716535433,"duration":0.7093745270833267},{"name":"G#2","midi":44,"time":107.24992849999981,"velocity":0.3858267716535433,"duration":0.7093745270833267},{"name":"C#3","midi":49,"time":107.9999279999998,"velocity":0.3858267716535433,"duration":0.7093745270833267},{"name":"G#2","midi":44,"time":108.74992749999979,"velocity":0.3858267716535433,"duration":0.7093745270833267},{"name":"C#2","midi":37,"time":109.49992699999977,"velocity":0.3858267716535433,"duration":0.7093745270833267},{"name":"G#2","midi":44,"time":110.24992649999976,"velocity":0.3858267716535433,"duration":0.7093745270833267},{"name":"C#3","midi":49,"time":110.99992599999975,"velocity":0.3858267716535433,"duration":0.7093745270833267},{"name":"G#2","midi":44,"time":111.74992549999973,"velocity":0.3858267716535433,"duration":0.7093745270833267},{"name":"C#3","midi":49,"time":112.49992499999972,"velocity":0.3858267716535433,"duration":1.4218740520833393},{"name":"G#2","midi":44,"time":113.99992399999972,"velocity":0.3858267716535433,"duration":0.7093745270833267},{"name":"D#3","midi":51,"time":114.74992349999971,"velocity":0.3858267716535433,"duration":0.7093745270833267},{"name":"G#3","midi":56,"time":115.4999229999997,"velocity":0.3858267716535433,"duration":0.7093745270833267},{"name":"D#3","midi":51,"time":116.24992249999968,"velocity":0.3858267716535433,"duration":0.7093745270833267},{"name":"G#3","midi":56,"time":116.99992199999967,"velocity":0.3858267716535433,"duration":0.7093745270833267},{"name":"D#3","midi":51,"time":117.74992149999966,"velocity":0.3858267716535433,"duration":0.7093745270833267},{"name":"G#2","midi":44,"time":118.49992099999965,"velocity":0.3858267716535433,"duration":0.7093745270833267},{"name":"D#3","midi":51,"time":119.24992049999963,"velocity":0.3858267716535433,"duration":0.7093745270833267},{"name":"G#3","midi":56,"time":119.99991999999962,"velocity":0.3858267716535433,"duration":0.7093745270833267},{"name":"D#3","midi":51,"time":120.7499194999996,"velocity":0.3858267716535433,"duration":0.7093745270833267},{"name":"G#3","midi":56,"time":121.4999189999996,"velocity":0.3858267716535433,"duration":0.7093745270833267},{"name":"D#3","midi":51,"time":122.24991849999958,"velocity":0.3858267716535433,"duration":0.7093745270833267},{"name":"D#2","midi":39,"time":122.99991799999957,"velocity":0.3858267716535433,"duration":0.7093745270833267},{"name":"A#2","midi":46,"time":123.74991749999955,"velocity":0.3858267716535433,"duration":0.7093745270833267},{"name":"D#3","midi":51,"time":124.49991699999954,"velocity":0.3858267716535433,"duration":0.7093745270833267},{"name":"A#2","midi":46,"time":125.24991649999953,"velocity":0.3858267716535433,"duration":0.7093745270833267},{"name":"D#3","midi":51,"time":125.99991599999952,"velocity":0.3858267716535433,"duration":0.7093745270833267},{"name":"A#2","midi":46,"time":126.7499154999995,"velocity":0.3858267716535433,"duration":0.7093745270833267},{"name":"D#2","midi":39,"time":127.49991499999949,"velocity":0.3858267716535433,"duration":0.7093745270833409},{"name":"A#2","midi":46,"time":128.2499144999995,"velocity":0.3858267716535433,"duration":0.7093745270833267},{"name":"D#3","midi":51,"time":128.9999139999995,"velocity":0.3858267716535433,"duration":0.7093745270833267},{"name":"A#2","midi":46,"time":129.7499134999995,"velocity":0.3858267716535433,"duration":0.7093745270833267},{"name":"D#3","midi":51,"time":130.4999129999995,"velocity":0.3858267716535433,"duration":0.7093745270833267},{"name":"A#2","midi":46,"time":131.2499124999995,"velocity":0.3858267716535433,"duration":0.7093745270833267},{"name":"F2","midi":41,"time":131.9999119999995,"velocity":0.3858267716535433,"duration":0.7093745270833267},{"name":"C3","midi":48,"time":132.7499114999995,"velocity":0.3858267716535433,"duration":0.7093745270833267},{"name":"F3","midi":53,"time":133.4999109999995,"velocity":0.3858267716535433,"duration":0.7093745270833267},{"name":"C3","midi":48,"time":134.24991049999952,"velocity":0.3858267716535433,"duration":0.7093745270833267},{"name":"F3","midi":53,"time":134.99990999999952,"velocity":0.3858267716535433,"duration":0.7093745270833267},{"name":"C3","midi":48,"time":135.74990949999952,"velocity":0.3858267716535433,"duration":0.7093745270833267},{"name":"F2","midi":41,"time":136.49990899999952,"velocity":0.3858267716535433,"duration":0.7093745270833267},{"name":"C3","midi":48,"time":137.24990849999952,"velocity":0.3858267716535433,"duration":0.7093745270833267},{"name":"F3","midi":53,"time":137.99990799999952,"velocity":0.3858267716535433,"duration":0.7093745270833267},{"name":"C3","midi":48,"time":138.74990749999952,"velocity":0.3858267716535433,"duration":0.7093745270833267},{"name":"F3","midi":53,"time":139.49990699999952,"velocity":0.3858267716535433,"duration":0.7093745270833267},{"name":"C3","midi":48,"time":140.24990649999953,"velocity":0.3858267716535433,"duration":0.7093745270833267},{"name":"C#2","midi":37,"time":140.99990599999953,"velocity":0.3858267716535433,"duration":0.7093745270833267},{"name":"G#2","midi":44,"time":141.74990549999953,"velocity":0.3858267716535433,"duration":0.7093745270833267},{"name":"C#3","midi":49,"time":142.49990499999953,"velocity":0.3858267716535433,"duration":0.7093745270833267},{"name":"G#2","midi":44,"time":143.24990449999953,"velocity":0.3858267716535433,"duration":0.7093745270833267},{"name":"C#3","midi":49,"time":143.99990399999953,"velocity":0.3858267716535433,"duration":0.7093745270833267},{"name":"G#2","midi":44,"time":144.74990349999953,"velocity":0.3858267716535433,"duration":0.7093745270833267},{"name":"C#2","midi":37,"time":145.49990299999953,"velocity":0.3858267716535433,"duration":0.7093745270833267},{"name":"G#2","midi":44,"time":146.24990249999954,"velocity":0.3858267716535433,"duration":0.7093745270833267},{"name":"C#3","midi":49,"time":146.99990199999954,"velocity":0.3858267716535433,"duration":0.7093745270833267},{"name":"G#2","midi":44,"time":147.74990149999954,"velocity":0.3858267716535433,"duration":0.7093745270833267},{"name":"C#3","midi":49,"time":148.49990099999954,"velocity":0.3858267716535433,"duration":1.421874052083325},{"name":"G#2","midi":44,"time":149.99989999999954,"velocity":0.3858267716535433,"duration":0.7093745270833267},{"name":"D#3","midi":51,"time":150.74989949999954,"velocity":0.3858267716535433,"duration":0.7093745270833267},{"name":"G#3","midi":56,"time":151.49989899999954,"velocity":0.3858267716535433,"duration":0.7093745270833267},{"name":"D#3","midi":51,"time":152.24989849999955,"velocity":0.3858267716535433,"duration":0.7093745270833267},{"name":"G#3","midi":56,"time":152.99989799999955,"velocity":0.3858267716535433,"duration":0.7093745270833267},{"name":"D#3","midi":51,"time":153.74989749999955,"velocity":0.3858267716535433,"duration":0.7093745270833267},{"name":"G#2","midi":44,"time":154.49989699999955,"velocity":0.3858267716535433,"duration":0.7093745270833267},{"name":"D#3","midi":51,"time":155.24989649999955,"velocity":0.3858267716535433,"duration":0.7093745270833267},{"name":"G#3","midi":56,"time":155.99989599999955,"velocity":0.3858267716535433,"duration":0.7093745270833267},{"name":"D#3","midi":51,"time":156.74989549999955,"velocity":0.3858267716535433,"duration":0.7093745270833267},{"name":"G#3","midi":56,"time":157.49989499999955,"velocity":0.3858267716535433,"duration":0.7093745270833267},{"name":"D#3","midi":51,"time":158.24989449999956,"velocity":0.3858267716535433,"duration":0.7093745270833267},{"name":"D#2","midi":39,"time":158.99989399999956,"velocity":0.3858267716535433,"duration":0.7093745270833267},{"name":"A#2","midi":46,"time":159.74989349999956,"velocity":0.3858267716535433,"duration":0.7093745270833267},{"name":"D#3","midi":51,"time":160.49989299999956,"velocity":0.3858267716535433,"duration":0.7093745270833267},{"name":"A#2","midi":46,"time":161.24989249999956,"velocity":0.3858267716535433,"duration":0.7093745270833267},{"name":"D#3","midi":51,"time":161.99989199999956,"velocity":0.3858267716535433,"duration":0.7093745270833267},{"name":"A#2","midi":46,"time":162.74989149999956,"velocity":0.3858267716535433,"duration":0.7093745270833267},{"name":"D#2","midi":39,"time":163.49989099999956,"velocity":0.3858267716535433,"duration":0.7093745270833267},{"name":"A#2","midi":46,"time":164.24989049999957,"velocity":0.3858267716535433,"duration":0.7093745270833267},{"name":"D#3","midi":51,"time":164.99988999999957,"velocity":0.3858267716535433,"duration":0.7093745270833267},{"name":"A#2","midi":46,"time":165.74988949999957,"velocity":0.3858267716535433,"duration":0.7093745270833267},{"name":"D#3","midi":51,"time":166.49988899999957,"velocity":0.3858267716535433,"duration":0.7093745270833267},{"name":"A#2","midi":46,"time":167.24988849999957,"velocity":0.3858267716535433,"duration":0.7093745270833267},{"name":"F2","midi":41,"time":167.99988799999957,"velocity":0.5039370078740157,"duration":0.7093745270833267},{"name":"C3","midi":48,"time":168.74988749999957,"velocity":0.5039370078740157,"duration":0.7093745270833267},{"name":"F3","midi":53,"time":169.49988699999957,"velocity":0.5039370078740157,"duration":0.7093745270833267},{"name":"G#3","midi":56,"time":170.24988649999958,"velocity":0.5039370078740157,"duration":0.7093745270833267},{"name":"F3","midi":53,"time":170.99988599999958,"velocity":0.5039370078740157,"duration":0.7093745270833267},{"name":"C3","midi":48,"time":171.74988549999958,"velocity":0.5039370078740157,"duration":4.984371677083345},{"name":"C#2","midi":37,"time":176.9998819999996,"velocity":0.5039370078740157,"duration":0.7093745270833267},{"name":"G#2","midi":44,"time":177.7498814999996,"velocity":0.5039370078740157,"duration":0.7093745270833267},{"name":"C#3","midi":49,"time":178.4998809999996,"velocity":0.5039370078740157,"duration":0.7093745270833267},{"name":"F3","midi":53,"time":179.2498804999996,"velocity":0.5039370078740157,"duration":0.7093745270833267},{"name":"C#3","midi":49,"time":179.9998799999996,"velocity":0.5039370078740157,"duration":0.7093745270833267},{"name":"G#2","midi":44,"time":180.7498794999996,"velocity":0.5039370078740157,"duration":4.984371677083345},{"name":"G#2","midi":44,"time":185.9998759999996,"velocity":0.5039370078740157,"duration":0.7093745270833267},{"name":"D#3","midi":51,"time":186.7498754999996,"velocity":0.5039370078740157,"duration":0.7093745270833267},{"name":"G#3","midi":56,"time":187.4998749999996,"velocity":0.5039370078740157,"duration":0.7093745270833267},{"name":"C4","midi":60,"time":188.2498744999996,"velocity":0.5039370078740157,"duration":0.7093745270833267},{"name":"G#3","midi":56,"time":188.9998739999996,"velocity":0.5039370078740157,"duration":0.7093745270833267},{"name":"D#3","midi":51,"time":189.7498734999996,"velocity":0.5039370078740157,"duration":4.984371677083345},{"name":"D#2","midi":39,"time":194.99986999999962,"velocity":0.5039370078740157,"duration":0.7093745270833267},{"name":"A#2","midi":46,"time":195.74986949999962,"velocity":0.5039370078740157,"duration":0.7093745270833267},{"name":"D#3","midi":51,"time":196.49986899999962,"velocity":0.5039370078740157,"duration":0.7093745270833267},{"name":"G3","midi":55,"time":197.24986849999962,"velocity":0.5039370078740157,"duration":0.7093745270833267},{"name":"D#3","midi":51,"time":197.99986799999962,"velocity":0.5039370078740157,"duration":0.7093745270833267},{"name":"A#2","midi":46,"time":198.74986749999962,"velocity":0.5039370078740157,"duration":4.984371677083345},{"name":"C3","midi":48,"time":203.99986399999963,"velocity":0.5039370078740157,"duration":2.1343735770833234},{"name":"F3","midi":53,"time":203.99986399999963,"velocity":0.5039370078740157,"duration":2.1343735770833234},{"name":"F2","midi":41,"time":203.99986399999963,"velocity":0.5039370078740157,"duration":8.546869302083337},{"name":"C3","midi":48,"time":206.24986249999964,"velocity":0.5039370078740157,"duration":2.1343735770833234},{"name":"F3","midi":53,"time":206.24986249999964,"velocity":0.5039370078740157,"duration":2.1343735770833234},{"name":"C3","midi":48,"time":208.49986099999964,"velocity":0.5039370078740157,"duration":4.2718721520833185},{"name":"F3","midi":53,"time":208.49986099999964,"velocity":0.5039370078740157,"duration":4.2718721520833185},{"name":"G#2","midi":44,"time":212.99985799999962,"velocity":0.5039370078740157,"duration":2.1343735770833234},{"name":"C#3","midi":49,"time":212.99985799999962,"velocity":0.5039370078740157,"duration":2.1343735770833234},{"name":"C#2","midi":37,"time":212.99985799999962,"velocity":0.5039370078740157,"duration":8.546869302083337},{"name":"G#2","midi":44,"time":215.24985649999962,"velocity":0.5039370078740157,"duration":2.1343735770833234},{"name":"C#3","midi":49,"time":215.24985649999962,"velocity":0.5039370078740157,"duration":2.1343735770833234},{"name":"G#2","midi":44,"time":217.49985499999963,"velocity":0.5039370078740157,"duration":4.2718721520833185},{"name":"C#3","midi":49,"time":217.49985499999963,"velocity":0.5039370078740157,"duration":4.2718721520833185},{"name":"D#3","midi":51,"time":221.9998519999996,"velocity":0.5039370078740157,"duration":2.1343735770833234},{"name":"G#3","midi":56,"time":221.9998519999996,"velocity":0.5039370078740157,"duration":2.1343735770833234},{"name":"G#2","midi":44,"time":221.9998519999996,"velocity":0.5039370078740157,"duration":8.546869302083337},{"name":"D#3","midi":51,"time":224.2498504999996,"velocity":0.5039370078740157,"duration":2.1343735770833234},{"name":"G#3","midi":56,"time":224.2498504999996,"velocity":0.5039370078740157,"duration":2.1343735770833234},{"name":"D#3","midi":51,"time":226.4998489999996,"velocity":0.5039370078740157,"duration":4.2718721520833185},{"name":"G#3","midi":56,"time":226.4998489999996,"velocity":0.5039370078740157,"duration":4.2718721520833185},{"name":"A#2","midi":46,"time":230.9998459999996,"velocity":0.5039370078740157,"duration":2.1343735770833234},{"name":"D#3","midi":51,"time":230.9998459999996,"velocity":0.5039370078740157,"duration":2.1343735770833234},{"name":"D#2","midi":39,"time":230.9998459999996,"velocity":0.5039370078740157,"duration":8.546869302083337},{"name":"A#2","midi":46,"time":233.2498444999996,"velocity":0.5039370078740157,"duration":2.1343735770833234},{"name":"D#3","midi":51,"time":233.2498444999996,"velocity":0.5039370078740157,"duration":2.1343735770833234},{"name":"A#2","midi":46,"time":235.4998429999996,"velocity":0.5039370078740157,"duration":4.2718721520833185},{"name":"D#3","midi":51,"time":235.4998429999996,"velocity":0.5039370078740157,"duration":4.2718721520833185},{"name":"C#2","midi":37,"time":239.99983999999958,"velocity":0.5039370078740157,"duration":0.7093745270833267},{"name":"G#2","midi":44,"time":240.74983949999958,"velocity":0.5039370078740157,"duration":0.7093745270833267},{"name":"C#3","midi":49,"time":241.49983899999958,"velocity":0.5039370078740157,"duration":0.7093745270833267},{"name":"F3","midi":53,"time":242.24983849999958,"velocity":0.5039370078740157,"duration":0.7093745270833267},{"name":"G#3","midi":56,"time":242.99983799999958,"velocity":0.5039370078740157,"duration":0.7093745270833267},{"name":"C#4","midi":61,"time":243.7498374999996,"velocity":0.5039370078740157,"duration":0.7093745270833267},{"name":"F4","midi":65,"time":244.4998369999996,"velocity":0.5039370078740157,"duration":4.271872152083347},{"name":"G#3","midi":56,"time":248.9998339999996,"velocity":0.5039370078740157,"duration":0.7093745270833267},{"name":"G#2","midi":44,"time":248.9998339999996,"velocity":0.5039370078740157,"duration":4.271872152083347},{"name":"D#3","midi":51,"time":249.7498334999996,"velocity":0.5039370078740157,"duration":0.7093745270833267},{"name":"G#3","midi":56,"time":250.4998329999996,"velocity":0.5039370078740157,"duration":1.421874052083325},{"name":"G#3","midi":56,"time":251.9998319999996,"velocity":0.5039370078740157,"duration":1.4218740520833535},{"name":"G3","midi":55,"time":253.49983099999963,"velocity":0.5039370078740157,"duration":0.7093745270833267},{"name":"G2","midi":43,"time":253.49983099999963,"velocity":0.5039370078740157,"duration":4.271872152083347},{"name":"D#3","midi":51,"time":254.24983049999963,"velocity":0.5039370078740157,"duration":0.7093745270833267},{"name":"G3","midi":55,"time":254.99982999999963,"velocity":0.5039370078740157,"duration":1.4218740520833535},{"name":"G3","midi":55,"time":256.49982899999964,"velocity":0.5039370078740157,"duration":1.4218740520833535},{"name":"C#2","midi":37,"time":257.99982799999964,"velocity":0.5039370078740157,"duration":0.7093745270833551},{"name":"G#2","midi":44,"time":258.74982749999964,"velocity":0.5039370078740157,"duration":0.7093745270833551},{"name":"C#3","midi":49,"time":259.49982699999964,"velocity":0.5039370078740157,"duration":0.7093745270833551},{"name":"F3","midi":53,"time":260.24982649999964,"velocity":0.5039370078740157,"duration":0.7093745270833551},{"name":"G#3","midi":56,"time":260.99982599999964,"velocity":0.5039370078740157,"duration":0.7093745270833551},{"name":"C#4","midi":61,"time":261.74982549999964,"velocity":0.5039370078740157,"duration":4.984371677083345},{"name":"G#3","midi":56,"time":266.99982199999965,"velocity":0.5039370078740157,"duration":0.7093745270833551},{"name":"G#2","midi":44,"time":266.99982199999965,"velocity":0.5039370078740157,"duration":4.271872152083347},{"name":"D#3","midi":51,"time":267.74982149999965,"velocity":0.5039370078740157,"duration":0.7093745270833551},{"name":"G#3","midi":56,"time":268.49982099999966,"velocity":0.5039370078740157,"duration":1.4218740520833535},{"name":"G#3","midi":56,"time":269.99981999999966,"velocity":0.5039370078740157,"duration":1.4218740520833535},{"name":"G3","midi":55,"time":271.49981899999966,"velocity":0.5039370078740157,"duration":0.7093745270833551},{"name":"G2","midi":43,"time":271.49981899999966,"velocity":0.5039370078740157,"duration":4.271872152083347},{"name":"D#3","midi":51,"time":272.24981849999966,"velocity":0.5039370078740157,"duration":0.7093745270833551},{"name":"G3","midi":55,"time":272.99981799999966,"velocity":0.5039370078740157,"duration":2.84687310208335},{"name":"C#2","midi":37,"time":275.99981599999967,"velocity":0.5039370078740157,"duration":0.7093745270833551},{"name":"G#2","midi":44,"time":276.74981549999967,"velocity":0.5039370078740157,"duration":0.7093745270833551},{"name":"C#3","midi":49,"time":277.49981499999967,"velocity":0.5039370078740157,"duration":0.7093745270833551},{"name":"F3","midi":53,"time":278.2498144999997,"velocity":0.5039370078740157,"duration":6.409370727083342},{"name":"D#2","midi":39,"time":284.9998099999997,"velocity":0.5039370078740157,"duration":0.7093745270833551},{"name":"A#2","midi":46,"time":285.7498094999997,"velocity":0.5039370078740157,"duration":0.7093745270833551},{"name":"D#3","midi":51,"time":286.4998089999997,"velocity":0.5039370078740157,"duration":0.7093745270833551},{"name":"G3","midi":55,"time":287.2498084999997,"velocity":0.5039370078740157,"duration":0.7093745270833551},{"name":"A#3","midi":58,"time":287.9998079999997,"velocity":0.5039370078740157,"duration":0.7093745270833551},{"name":"D#4","midi":63,"time":288.7498074999997,"velocity":0.5039370078740157,"duration":4.984371677083345},{"name":"F2","midi":41,"time":293.9998039999997,"velocity":0.5039370078740157,"duration":0.7093745270833551},{"name":"C3","midi":48,"time":294.7498034999997,"velocity":0.5039370078740157,"duration":0.7093745270833551},{"name":"F3","midi":53,"time":295.4998029999997,"velocity":0.5039370078740157,"duration":0.7093745270833551},{"name":"G#3","midi":56,"time":296.2498024999997,"velocity":0.5039370078740157,"duration":0.7093745270833551},{"name":"F3","midi":53,"time":296.9998019999997,"velocity":0.5039370078740157,"duration":0.7093745270833551},{"name":"C3","midi":48,"time":297.7498014999997,"velocity":0.5039370078740157,"duration":0.7093745270833551},{"name":"F2","midi":41,"time":298.4998009999997,"velocity":0.5039370078740157,"duration":0.7093745270833551},{"name":"C3","midi":48,"time":299.2498004999997,"velocity":0.5039370078740157,"duration":0.7093745270833551},{"name":"F3","midi":53,"time":299.9997999999997,"velocity":0.5039370078740157,"duration":0.7093745270833551},{"name":"G#3","midi":56,"time":300.7497994999997,"velocity":0.5039370078740157,"duration":0.7093745270833551},{"name":"F3","midi":53,"time":301.4997989999997,"velocity":0.5039370078740157,"duration":0.7093745270833551},{"name":"C3","midi":48,"time":302.2497984999997,"velocity":0.5039370078740157,"duration":0.7093745270833551},{"name":"C#2","midi":37,"time":302.9997979999997,"velocity":0.5039370078740157,"duration":0.7093745270833551},{"name":"G#2","midi":44,"time":303.7497974999997,"velocity":0.5039370078740157,"duration":0.7093745270833551},{"name":"C#3","midi":49,"time":304.4997969999997,"velocity":0.5039370078740157,"duration":0.7093745270833551},{"name":"F3","midi":53,"time":305.2497964999997,"velocity":0.5039370078740157,"duration":0.7093745270833551},{"name":"C#3","midi":49,"time":305.9997959999997,"velocity":0.5039370078740157,"duration":0.7093745270833551},{"name":"G#2","midi":44,"time":306.7497954999997,"velocity":0.5039370078740157,"duration":0.7093745270833551},{"name":"C#2","midi":37,"time":307.4997949999997,"velocity":0.5039370078740157,"duration":0.7093745270833551},{"name":"G#2","midi":44,"time":308.2497944999997,"velocity":0.5039370078740157,"duration":0.7093745270833551},{"name":"C#3","midi":49,"time":308.9997939999997,"velocity":0.5039370078740157,"duration":0.7093745270833551},{"name":"F3","midi":53,"time":309.7497934999997,"velocity":0.5039370078740157,"duration":0.7093745270833551},{"name":"C#3","midi":49,"time":310.4997929999997,"velocity":0.5039370078740157,"duration":1.4218740520833535},{"name":"G#2","midi":44,"time":311.99979199999973,"velocity":0.5039370078740157,"duration":0.7093745270833551},{"name":"D#3","midi":51,"time":312.74979149999973,"velocity":0.5039370078740157,"duration":0.7093745270833551},{"name":"G#3","midi":56,"time":313.49979099999973,"velocity":0.5039370078740157,"duration":0.7093745270833551},{"name":"C4","midi":60,"time":314.24979049999973,"velocity":0.5039370078740157,"duration":0.7093745270833551},{"name":"G#3","midi":56,"time":314.99978999999973,"velocity":0.5039370078740157,"duration":0.7093745270833551},{"name":"D#3","midi":51,"time":315.74978949999974,"velocity":0.5039370078740157,"duration":0.7093745270833551},{"name":"G#2","midi":44,"time":316.49978899999974,"velocity":0.5039370078740157,"duration":0.7093745270833551},{"name":"D#3","midi":51,"time":317.24978849999974,"velocity":0.5039370078740157,"duration":0.7093745270833551},{"name":"G#3","midi":56,"time":317.99978799999974,"velocity":0.5039370078740157,"duration":0.7093745270833551},{"name":"C4","midi":60,"time":318.74978749999974,"velocity":0.5039370078740157,"duration":0.7093745270833551},{"name":"G#3","midi":56,"time":319.49978699999974,"velocity":0.5039370078740157,"duration":0.7093745270833551},{"name":"D#3","midi":51,"time":320.24978649999974,"velocity":0.5039370078740157,"duration":0.7093745270833551},{"name":"D#2","midi":39,"time":320.99978599999974,"velocity":0.5039370078740157,"duration":0.7093745270833551},{"name":"A#2","midi":46,"time":321.74978549999975,"velocity":0.5039370078740157,"duration":0.7093745270833551},{"name":"D#3","midi":51,"time":322.49978499999975,"velocity":0.5039370078740157,"duration":0.7093745270833551},{"name":"G3","midi":55,"time":323.24978449999975,"velocity":0.5039370078740157,"duration":0.7093745270833551},{"name":"D#3","midi":51,"time":323.99978399999975,"velocity":0.5039370078740157,"duration":0.7093745270833551},{"name":"A#2","midi":46,"time":324.74978349999975,"velocity":0.5039370078740157,"duration":0.7093745270833551},{"name":"D#2","midi":39,"time":325.49978299999975,"velocity":0.5039370078740157,"duration":0.7093745270833551},{"name":"A#2","midi":46,"time":326.24978249999975,"velocity":0.5039370078740157,"duration":0.7093745270833551},{"name":"D#3","midi":51,"time":326.99978199999975,"velocity":0.5039370078740157,"duration":0.7093745270833551},{"name":"G#3","midi":56,"time":327.74978149999976,"velocity":0.5039370078740157,"duration":0.7093745270833551},{"name":"D#3","midi":51,"time":328.49978099999976,"velocity":0.5039370078740157,"duration":0.7093745270833551},{"name":"A#2","midi":46,"time":329.24978049999976,"velocity":0.5039370078740157,"duration":0.7093745270833551},{"name":"F2","midi":41,"time":329.99977999999976,"velocity":0.5039370078740157,"duration":0.7093745270833551},{"name":"C3","midi":48,"time":330.74977949999976,"velocity":0.5039370078740157,"duration":0.7093745270833551},{"name":"F3","midi":53,"time":331.49977899999976,"velocity":0.5039370078740157,"duration":0.7093745270833551},{"name":"G#3","midi":56,"time":332.24977849999976,"velocity":0.5039370078740157,"duration":0.7093745270833551},{"name":"F3","midi":53,"time":332.99977799999976,"velocity":0.5039370078740157,"duration":0.7093745270833551},{"name":"C3","midi":48,"time":333.74977749999977,"velocity":0.5039370078740157,"duration":0.7093745270833551},{"name":"F2","midi":41,"time":334.49977699999977,"velocity":0.5039370078740157,"duration":0.7093745270833551},{"name":"C3","midi":48,"time":335.24977649999977,"velocity":0.5039370078740157,"duration":0.7093745270833551},{"name":"F3","midi":53,"time":335.99977599999977,"velocity":0.5039370078740157,"duration":0.7093745270833551},{"name":"G#3","midi":56,"time":336.74977549999977,"velocity":0.5039370078740157,"duration":0.7093745270833551},{"name":"F3","midi":53,"time":337.4997749999998,"velocity":0.5039370078740157,"duration":0.7093745270833551},{"name":"C3","midi":48,"time":338.2497744999998,"velocity":0.5039370078740157,"duration":0.7093745270833551},{"name":"C#2","midi":37,"time":338.9997739999998,"velocity":0.5039370078740157,"duration":0.7093745270833551},{"name":"G#2","midi":44,"time":339.7497734999998,"velocity":0.5039370078740157,"duration":0.7093745270833551},{"name":"C#3","midi":49,"time":340.4997729999998,"velocity":0.5039370078740157,"duration":0.7093745270833551},{"name":"F3","midi":53,"time":341.2497724999998,"velocity":0.5039370078740157,"duration":0.7093745270833551},{"name":"C#3","midi":49,"time":341.9997719999998,"velocity":0.5039370078740157,"duration":0.7093745270833551},{"name":"G#2","midi":44,"time":342.7497714999998,"velocity":0.5039370078740157,"duration":0.7093745270833551},{"name":"C#2","midi":37,"time":343.4997709999998,"velocity":0.5039370078740157,"duration":0.7093745270833551},{"name":"G#2","midi":44,"time":344.2497704999998,"velocity":0.5039370078740157,"duration":0.7093745270833551},{"name":"C#3","midi":49,"time":344.9997699999998,"velocity":0.5039370078740157,"duration":0.7093745270833551},{"name":"F3","midi":53,"time":345.7497694999998,"velocity":0.5039370078740157,"duration":0.7093745270833551},{"name":"C#3","midi":49,"time":346.4997689999998,"velocity":0.5039370078740157,"duration":1.4218740520833535},{"name":"G#2","midi":44,"time":347.9997679999998,"velocity":0.5039370078740157,"duration":0.7093745270833551},{"name":"D#3","midi":51,"time":348.7497674999998,"velocity":0.5039370078740157,"duration":0.7093745270833551},{"name":"G#3","midi":56,"time":349.4997669999998,"velocity":0.5039370078740157,"duration":0.7093745270833551},{"name":"C4","midi":60,"time":350.2497664999998,"velocity":0.5039370078740157,"duration":0.7093745270833551},{"name":"G#3","midi":56,"time":350.9997659999998,"velocity":0.5039370078740157,"duration":0.7093745270833551},{"name":"D#3","midi":51,"time":351.7497654999998,"velocity":0.5039370078740157,"duration":0.7093745270833551},{"name":"G#2","midi":44,"time":352.4997649999998,"velocity":0.5039370078740157,"duration":0.7093745270833551},{"name":"D#3","midi":51,"time":353.2497644999998,"velocity":0.5039370078740157,"duration":0.7093745270833551},{"name":"G#3","midi":56,"time":353.9997639999998,"velocity":0.5039370078740157,"duration":0.7093745270833551},{"name":"C4","midi":60,"time":354.7497634999998,"velocity":0.5039370078740157,"duration":0.7093745270833551},{"name":"G#3","midi":56,"time":355.4997629999998,"velocity":0.5039370078740157,"duration":0.7093745270833551},{"name":"D#3","midi":51,"time":356.2497624999998,"velocity":0.5039370078740157,"duration":0.7093745270833551},{"name":"D#2","midi":39,"time":356.9997619999998,"velocity":0.5039370078740157,"duration":0.7093745270833551},{"name":"A#2","midi":46,"time":357.7497614999998,"velocity":0.5039370078740157,"duration":0.7093745270833551},{"name":"D#3","midi":51,"time":358.4997609999998,"velocity":0.5039370078740157,"duration":0.7093745270833551},{"name":"G3","midi":55,"time":359.2497604999998,"velocity":0.5039370078740157,"duration":0.7093745270833551},{"name":"D#3","midi":51,"time":359.9997599999998,"velocity":0.5039370078740157,"duration":0.7093745270833551},{"name":"A#2","midi":46,"time":360.7497594999998,"velocity":0.5039370078740157,"duration":0.7093745270833551},{"name":"D#2","midi":39,"time":361.4997589999998,"velocity":0.5039370078740157,"duration":0.7093745270833551},{"name":"A#2","midi":46,"time":362.2497584999998,"velocity":0.5039370078740157,"duration":0.7093745270833551},{"name":"D#3","midi":51,"time":362.9997579999998,"velocity":0.5039370078740157,"duration":0.7093745270833551},{"name":"G#3","midi":56,"time":363.7497574999998,"velocity":0.5039370078740157,"duration":0.7093745270833551},{"name":"D#3","midi":51,"time":364.4997569999998,"velocity":0.5039370078740157,"duration":0.7093745270833551},{"name":"A#2","midi":46,"time":365.2497564999998,"velocity":0.5039370078740157,"duration":0.7093745270833551},{"name":"F2","midi":41,"time":365.9997559999998,"velocity":0.6299212598425197,"duration":0.7093745270833551},{"name":"C3","midi":48,"time":366.7497554999998,"velocity":0.6299212598425197,"duration":0.7093745270833551},{"name":"F3","midi":53,"time":367.4997549999998,"velocity":0.6299212598425197,"duration":0.7093745270833551},{"name":"G#3","midi":56,"time":368.2497544999998,"velocity":0.6299212598425197,"duration":0.7093745270833551},{"name":"F3","midi":53,"time":368.9997539999998,"velocity":0.6299212598425197,"duration":0.7093745270833551},{"name":"C3","midi":48,"time":369.7497534999998,"velocity":0.6299212598425197,"duration":0.7093745270833551},{"name":"F2","midi":41,"time":370.4997529999998,"velocity":0.6299212598425197,"duration":0.7093745270833551},{"name":"C3","midi":48,"time":371.24975249999983,"velocity":0.6299212598425197,"duration":0.7093745270833551},{"name":"F3","midi":53,"time":371.99975199999983,"velocity":0.6299212598425197,"duration":0.7093745270833551},{"name":"G#3","midi":56,"time":372.74975149999983,"velocity":0.6299212598425197,"duration":0.7093745270833551},{"name":"F3","midi":53,"time":373.49975099999983,"velocity":0.6299212598425197,"duration":0.7093745270833551},{"name":"C3","midi":48,"time":374.24975049999983,"velocity":0.6299212598425197,"duration":0.7093745270833551},{"name":"C#2","midi":37,"time":374.99974999999984,"velocity":0.6299212598425197,"duration":0.7093745270833551},{"name":"G#2","midi":44,"time":375.74974949999984,"velocity":0.6299212598425197,"duration":0.7093745270833551},{"name":"C#3","midi":49,"time":376.49974899999984,"velocity":0.6299212598425197,"duration":0.7093745270833551},{"name":"F3","midi":53,"time":377.24974849999984,"velocity":0.6299212598425197,"duration":0.7093745270833551},{"name":"C#3","midi":49,"time":377.99974799999984,"velocity":0.6299212598425197,"duration":0.7093745270833551},{"name":"G#2","midi":44,"time":378.74974749999984,"velocity":0.6299212598425197,"duration":0.7093745270833551},{"name":"C#2","midi":37,"time":379.49974699999984,"velocity":0.6299212598425197,"duration":0.7093745270833551},{"name":"G#2","midi":44,"time":380.24974649999984,"velocity":0.6299212598425197,"duration":0.7093745270833551},{"name":"C#3","midi":49,"time":380.99974599999985,"velocity":0.6299212598425197,"duration":0.7093745270833551},{"name":"F3","midi":53,"time":381.74974549999985,"velocity":0.6299212598425197,"duration":0.7093745270833551},{"name":"C#3","midi":49,"time":382.49974499999985,"velocity":0.6299212598425197,"duration":1.4218740520833535},{"name":"G#2","midi":44,"time":383.99974399999985,"velocity":0.6299212598425197,"duration":0.7093745270833551},{"name":"D#3","midi":51,"time":384.74974349999985,"velocity":0.6299212598425197,"duration":0.7093745270833551},{"name":"G#3","midi":56,"time":385.49974299999985,"velocity":0.6299212598425197,"duration":0.7093745270833551},{"name":"C4","midi":60,"time":386.24974249999985,"velocity":0.6299212598425197,"duration":0.7093745270833551},{"name":"G#3","midi":56,"time":386.99974199999986,"velocity":0.6299212598425197,"duration":0.7093745270833551},{"name":"D#3","midi":51,"time":387.74974149999986,"velocity":0.6299212598425197,"duration":0.7093745270833551},{"name":"G#2","midi":44,"time":388.49974099999986,"velocity":0.6299212598425197,"duration":0.7093745270833551},{"name":"D#3","midi":51,"time":389.24974049999986,"velocity":0.6299212598425197,"duration":0.7093745270833551},{"name":"G#3","midi":56,"time":389.99973999999986,"velocity":0.6299212598425197,"duration":0.7093745270833551},{"name":"C4","midi":60,"time":390.74973949999986,"velocity":0.6299212598425197,"duration":0.7093745270833551},{"name":"G#3","midi":56,"time":391.49973899999986,"velocity":0.6299212598425197,"duration":0.7093745270833551},{"name":"D#3","midi":51,"time":392.24973849999986,"velocity":0.6299212598425197,"duration":0.7093745270833551},{"name":"D#2","midi":39,"time":392.99973799999987,"velocity":0.6299212598425197,"duration":0.7093745270833551},{"name":"A#2","midi":46,"time":393.74973749999987,"velocity":0.6299212598425197,"duration":0.7093745270833551},{"name":"D#3","midi":51,"time":394.49973699999987,"velocity":0.6299212598425197,"duration":0.7093745270833551},{"name":"G3","midi":55,"time":395.24973649999987,"velocity":0.6299212598425197,"duration":0.7093745270833551},{"name":"D#3","midi":51,"time":395.99973599999987,"velocity":0.6299212598425197,"duration":0.7093745270833551},{"name":"A#2","midi":46,"time":396.7497354999999,"velocity":0.6299212598425197,"duration":0.7093745270833551},{"name":"D#2","midi":39,"time":397.4997349999999,"velocity":0.6299212598425197,"duration":0.7093745270833551},{"name":"A#2","midi":46,"time":398.2497344999999,"velocity":0.6299212598425197,"duration":0.7093745270833551},{"name":"D#3","midi":51,"time":398.9997339999999,"velocity":0.6299212598425197,"duration":0.7093745270833551},{"name":"G#3","midi":56,"time":399.7497334999999,"velocity":0.6299212598425197,"duration":0.7093745270833551},{"name":"D#3","midi":51,"time":400.4997329999999,"velocity":0.6299212598425197,"duration":0.7093745270833551},{"name":"A#2","midi":46,"time":401.2497324999999,"velocity":0.6299212598425197,"duration":0.7093745270833551},{"name":"F2","midi":41,"time":401.9997319999999,"velocity":0.6299212598425197,"duration":0.7093745270833551},{"name":"C3","midi":48,"time":402.7497314999999,"velocity":0.6299212598425197,"duration":0.7093745270833551},{"name":"F3","midi":53,"time":403.4997309999999,"velocity":0.6299212598425197,"duration":0.7093745270833551},{"name":"G#3","midi":56,"time":404.2497304999999,"velocity":0.6299212598425197,"duration":0.7093745270833551},{"name":"F3","midi":53,"time":404.9997299999999,"velocity":0.6299212598425197,"duration":0.7093745270833551},{"name":"C3","midi":48,"time":405.7497294999999,"velocity":0.6299212598425197,"duration":0.7093745270833551},{"name":"F2","midi":41,"time":406.4997289999999,"velocity":0.6299212598425197,"duration":0.7093745270833551},{"name":"C3","midi":48,"time":407.2497284999999,"velocity":0.6299212598425197,"duration":0.7093745270833551},{"name":"F3","midi":53,"time":407.9997279999999,"velocity":0.6299212598425197,"duration":0.7093745270833551},{"name":"G#3","midi":56,"time":408.7497274999999,"velocity":0.6299212598425197,"duration":0.7093745270833551},{"name":"F3","midi":53,"time":409.4997269999999,"velocity":0.6299212598425197,"duration":0.7093745270833551},{"name":"C3","midi":48,"time":410.2497264999999,"velocity":0.6299212598425197,"duration":0.7093745270833551},{"name":"C#2","midi":37,"time":410.9997259999999,"velocity":0.6299212598425197,"duration":0.7093745270833551},{"name":"G#2","midi":44,"time":411.7497254999999,"velocity":0.6299212598425197,"duration":0.7093745270833551},{"name":"C#3","midi":49,"time":412.4997249999999,"velocity":0.6299212598425197,"duration":0.7093745270833551},{"name":"F3","midi":53,"time":413.2497244999999,"velocity":0.6299212598425197,"duration":0.7093745270833551},{"name":"C#3","midi":49,"time":413.9997239999999,"velocity":0.6299212598425197,"duration":0.7093745270833551},{"name":"G#2","midi":44,"time":414.7497234999999,"velocity":0.6299212598425197,"duration":0.7093745270833551},{"name":"C#2","midi":37,"time":415.4997229999999,"velocity":0.6299212598425197,"duration":0.7093745270833551},{"name":"G#2","midi":44,"time":416.2497224999999,"velocity":0.6299212598425197,"duration":0.7093745270833551},{"name":"C#3","midi":49,"time":416.9997219999999,"velocity":0.6299212598425197,"duration":0.7093745270833551},{"name":"F3","midi":53,"time":417.7497214999999,"velocity":0.6299212598425197,"duration":0.7093745270833551},{"name":"C#3","midi":49,"time":418.4997209999999,"velocity":0.6299212598425197,"duration":1.4218740520833535},{"name":"G#2","midi":44,"time":419.9997199999999,"velocity":0.6299212598425197,"duration":0.7093745270833551},{"name":"D#3","midi":51,"time":420.7497194999999,"velocity":0.6299212598425197,"duration":0.7093745270833551},{"name":"G#3","midi":56,"time":421.4997189999999,"velocity":0.6299212598425197,"duration":0.7093745270833551},{"name":"C4","midi":60,"time":422.2497184999999,"velocity":0.6299212598425197,"duration":0.7093745270833551},{"name":"G#3","midi":56,"time":422.9997179999999,"velocity":0.6299212598425197,"duration":0.7093745270833551},{"name":"D#3","midi":51,"time":423.7497174999999,"velocity":0.6299212598425197,"duration":0.7093745270833551},{"name":"G#2","midi":44,"time":424.4997169999999,"velocity":0.6299212598425197,"duration":0.7093745270833551},{"name":"D#3","midi":51,"time":425.2497164999999,"velocity":0.6299212598425197,"duration":0.7093745270833551},{"name":"G#3","midi":56,"time":425.9997159999999,"velocity":0.6299212598425197,"duration":0.7093745270833551},{"name":"C4","midi":60,"time":426.7497154999999,"velocity":0.6299212598425197,"duration":0.7093745270833551},{"name":"G#3","midi":56,"time":427.4997149999999,"velocity":0.6299212598425197,"duration":0.7093745270833551},{"name":"D#3","midi":51,"time":428.2497144999999,"velocity":0.6299212598425197,"duration":0.7093745270833551},{"name":"D#2","midi":39,"time":428.9997139999999,"velocity":0.6299212598425197,"duration":0.7093745270833551},{"name":"A#2","midi":46,"time":429.7497134999999,"velocity":0.6299212598425197,"duration":0.7093745270833551},{"name":"D#3","midi":51,"time":430.49971299999993,"velocity":0.6299212598425197,"duration":0.7093745270833551},{"name":"G3","midi":55,"time":431.24971249999993,"velocity":0.6299212598425197,"duration":0.7093745270833551},{"name":"D#3","midi":51,"time":431.99971199999993,"velocity":0.6299212598425197,"duration":0.7093745270833551},{"name":"A#2","midi":46,"time":432.74971149999993,"velocity":0.6299212598425197,"duration":0.7093745270833551},{"name":"D#2","midi":39,"time":433.49971099999993,"velocity":0.6299212598425197,"duration":0.7093745270833551},{"name":"A#2","midi":46,"time":434.24971049999994,"velocity":0.6299212598425197,"duration":0.7093745270833551},{"name":"D#3","midi":51,"time":434.99970999999994,"velocity":0.6299212598425197,"duration":0.7093745270833551},{"name":"G#3","midi":56,"time":435.74970949999994,"velocity":0.6299212598425197,"duration":0.7093745270833551},{"name":"D#3","midi":51,"time":436.49970899999994,"velocity":0.6299212598425197,"duration":0.7093745270833551},{"name":"A#2","midi":46,"time":437.24970849999994,"velocity":0.6299212598425197,"duration":0.7093745270833551},{"name":"F2","midi":41,"time":437.99970799999994,"velocity":0.7559055118110236,"duration":0.7093745270833551},{"name":"C3","midi":48,"time":438.74970749999994,"velocity":0.7559055118110236,"duration":0.7093745270833551},{"name":"F3","midi":53,"time":439.49970699999994,"velocity":0.7559055118110236,"duration":0.7093745270833551},{"name":"G#3","midi":56,"time":440.24970649999995,"velocity":0.7559055118110236,"duration":0.7093745270833551},{"name":"G3","midi":55,"time":440.99970599999995,"velocity":0.7559055118110236,"duration":0.7093745270833551},{"name":"C3","midi":48,"time":441.74970549999995,"velocity":0.7559055118110236,"duration":0.7093745270833551},{"name":"C#2","midi":37,"time":442.49970499999995,"velocity":0.7559055118110236,"duration":0.7093745270833551},{"name":"G#2","midi":44,"time":443.24970449999995,"velocity":0.7559055118110236,"duration":0.7093745270833551},{"name":"C#3","midi":49,"time":443.99970399999995,"velocity":0.7559055118110236,"duration":0.7093745270833551},{"name":"F3","midi":53,"time":444.74970349999995,"velocity":0.7559055118110236,"duration":2.134373577083352},{"name":"G#2","midi":44,"time":446.99970199999996,"velocity":0.7559055118110236,"duration":0.7093745270833551},{"name":"D#3","midi":51,"time":447.74970149999996,"velocity":0.7559055118110236,"duration":0.7093745270833551},{"name":"G#3","midi":56,"time":448.49970099999996,"velocity":0.7559055118110236,"duration":0.7093745270833551},{"name":"C4","midi":60,"time":449.24970049999996,"velocity":0.7559055118110236,"duration":0.7093745270833551},{"name":"G#3","midi":56,"time":449.99969999999996,"velocity":0.7559055118110236,"duration":0.7093745270833551},{"name":"D#3","midi":51,"time":450.74969949999996,"velocity":0.7559055118110236,"duration":0.7093745270833551},{"name":"D#2","midi":39,"time":451.49969899999996,"velocity":0.7559055118110236,"duration":0.7093745270833551},{"name":"A#2","midi":46,"time":452.24969849999997,"velocity":0.7559055118110236,"duration":0.7093745270833551},{"name":"D#3","midi":51,"time":452.99969799999997,"velocity":0.7559055118110236,"duration":0.7093745270833551},{"name":"G3","midi":55,"time":453.74969749999997,"velocity":0.7559055118110236,"duration":0.7093745270833551},{"name":"D#3","midi":51,"time":454.49969699999997,"velocity":0.7559055118110236,"duration":0.7093745270833551},{"name":"A#2","midi":46,"time":455.24969649999997,"velocity":0.7559055118110236,"duration":0.7093745270833551},{"name":"F2","midi":41,"time":455.999696,"velocity":0.7559055118110236,"duration":0.7093745270833551},{"name":"C3","midi":48,"time":456.7496955,"velocity":0.7559055118110236,"duration":0.7093745270833551},{"name":"F3","midi":53,"time":457.499695,"velocity":0.7559055118110236,"duration":0.7093745270833551},{"name":"G#3","midi":56,"time":458.2496945,"velocity":0.7559055118110236,"duration":0.7093745270833551},{"name":"G3","midi":55,"time":458.999694,"velocity":0.7559055118110236,"duration":0.7093745270833551},{"name":"C3","midi":48,"time":459.7496935,"velocity":0.7559055118110236,"duration":0.7093745270833551},{"name":"C#2","midi":37,"time":460.499693,"velocity":0.7559055118110236,"duration":0.7093745270833551},{"name":"G#2","midi":44,"time":461.2496925,"velocity":0.7559055118110236,"duration":0.7093745270833551},{"name":"C#3","midi":49,"time":461.999692,"velocity":0.7559055118110236,"duration":0.7093745270833551},{"name":"F3","midi":53,"time":462.7496915,"velocity":0.7559055118110236,"duration":2.134373577083352},{"name":"G#2","midi":44,"time":464.99969,"velocity":0.7559055118110236,"duration":0.7093745270833551},{"name":"D#3","midi":51,"time":465.7496895,"velocity":0.7559055118110236,"duration":0.7093745270833551},{"name":"G#3","midi":56,"time":466.499689,"velocity":0.7559055118110236,"duration":0.7093745270833551},{"name":"C4","midi":60,"time":467.2496885,"velocity":0.7559055118110236,"duration":0.7093745270833551},{"name":"G#3","midi":56,"time":467.999688,"velocity":0.7559055118110236,"duration":0.7093745270833551},{"name":"D#3","midi":51,"time":468.7496875,"velocity":0.7559055118110236,"duration":0.7093745270833551},{"name":"D#2","midi":39,"time":469.499687,"velocity":0.7559055118110236,"duration":0.7093745270833551},{"name":"A#2","midi":46,"time":470.2496865,"velocity":0.7559055118110236,"duration":0.7093745270833551},{"name":"D#3","midi":51,"time":470.999686,"velocity":0.7559055118110236,"duration":0.7093745270833551},{"name":"G3","midi":55,"time":471.7496855,"velocity":0.7559055118110236,"duration":0.7093745270833551},{"name":"D#3","midi":51,"time":472.499685,"velocity":0.7559055118110236,"duration":0.7093745270833551},{"name":"A#2","midi":46,"time":473.2496845,"velocity":0.7559055118110236,"duration":0.7093745270833551},{"name":"F2","midi":41,"time":473.999684,"velocity":0.7559055118110236,"duration":0.7093745270833551},{"name":"C3","midi":48,"time":474.7496835,"velocity":0.7559055118110236,"duration":0.7093745270833551},{"name":"F3","midi":53,"time":475.499683,"velocity":0.7559055118110236,"duration":0.7093745270833551},{"name":"G#3","midi":56,"time":476.2496825,"velocity":0.7559055118110236,"duration":0.7093745270833551},{"name":"G3","midi":55,"time":476.999682,"velocity":0.7559055118110236,"duration":0.7093745270833551},{"name":"C3","midi":48,"time":477.7496815,"velocity":0.7559055118110236,"duration":0.7093745270833551},{"name":"C#2","midi":37,"time":478.499681,"velocity":0.7559055118110236,"duration":0.7093745270833551},{"name":"G#2","midi":44,"time":479.2496805,"velocity":0.7559055118110236,"duration":0.7093745270833551},{"name":"C#3","midi":49,"time":479.99968,"velocity":0.7559055118110236,"duration":0.7093745270833551},{"name":"F3","midi":53,"time":480.7496795,"velocity":0.7559055118110236,"duration":2.134373577083352},{"name":"G#2","midi":44,"time":482.999678,"velocity":0.7559055118110236,"duration":0.7093745270833551},{"name":"D#3","midi":51,"time":483.7496775,"velocity":0.7559055118110236,"duration":0.7093745270833551},{"name":"G#3","midi":56,"time":484.499677,"velocity":0.7559055118110236,"duration":0.7093745270833551},{"name":"C4","midi":60,"time":485.2496765,"velocity":0.7559055118110236,"duration":0.7093745270833551},{"name":"G#3","midi":56,"time":485.999676,"velocity":0.7559055118110236,"duration":0.7093745270833551},{"name":"D#3","midi":51,"time":486.7496755,"velocity":0.7559055118110236,"duration":0.7093745270833551},{"name":"D#2","midi":39,"time":487.499675,"velocity":0.7559055118110236,"duration":0.7093745270833551},{"name":"A#2","midi":46,"time":488.2496745,"velocity":0.7559055118110236,"duration":0.7093745270833551},{"name":"D#3","midi":51,"time":488.999674,"velocity":0.7559055118110236,"duration":0.7093745270833551},{"name":"G3","midi":55,"time":489.74967350000003,"velocity":0.7559055118110236,"duration":0.7093745270833551},{"name":"D#3","midi":51,"time":490.49967300000003,"velocity":0.7559055118110236,"duration":0.7093745270833551},{"name":"A#2","midi":46,"time":491.24967250000003,"velocity":0.7559055118110236,"duration":0.7093745270833551},{"name":"F2","midi":41,"time":491.99967200000003,"velocity":0.7559055118110236,"duration":0.7093745270833551},{"name":"C3","midi":48,"time":492.74967150000003,"velocity":0.7559055118110236,"duration":0.7093745270833551},{"name":"F3","midi":53,"time":493.49967100000003,"velocity":0.7559055118110236,"duration":0.7093745270833551},{"name":"G#3","midi":56,"time":494.24967050000004,"velocity":0.7559055118110236,"duration":0.7093745270833551},{"name":"G3","midi":55,"time":494.99967000000004,"velocity":0.7559055118110236,"duration":0.7093745270833551},{"name":"C3","midi":48,"time":495.74966950000004,"velocity":0.7559055118110236,"duration":0.7093745270833551},{"name":"C#2","midi":37,"time":496.49966900000004,"velocity":0.7559055118110236,"duration":0.7093745270833551},{"name":"G#2","midi":44,"time":497.24966850000004,"velocity":0.7559055118110236,"duration":0.7093745270833551},{"name":"C#3","midi":49,"time":497.99966800000004,"velocity":0.7559055118110236,"duration":0.7093745270833551},{"name":"F3","midi":53,"time":498.74966750000004,"velocity":0.7559055118110236,"duration":2.134373577083352},{"name":"G#2","midi":44,"time":500.99966600000005,"velocity":0.7559055118110236,"duration":0.7093745270833551},{"name":"D#3","midi":51,"time":501.74966550000005,"velocity":0.7559055118110236,"duration":0.7093745270833551},{"name":"G#3","midi":56,"time":502.49966500000005,"velocity":0.7559055118110236,"duration":0.7093745270833551},{"name":"C4","midi":60,"time":503.24966450000005,"velocity":0.7559055118110236,"duration":0.7093745270833551},{"name":"G#3","midi":56,"time":503.99966400000005,"velocity":0.7559055118110236,"duration":0.7093745270833551},{"name":"D#3","midi":51,"time":504.74966350000005,"velocity":0.7559055118110236,"duration":0.7093745270833551},{"name":"D#2","midi":39,"time":505.49966300000006,"velocity":0.7559055118110236,"duration":0.7093745270833551},{"name":"A#2","midi":46,"time":506.24966250000006,"velocity":0.7007874015748031,"duration":0.7093745270833551},{"name":"D#3","midi":51,"time":506.99966200000006,"velocity":0.6377952755905512,"duration":0.7093745270833551},{"name":"G3","midi":55,"time":507.74966150000006,"velocity":0.5748031496062992,"duration":0.7093745270833551},{"name":"A#3","midi":58,"time":508.49966100000006,"velocity":0.5118110236220472,"duration":0.7093745270833551},{"name":"D#4","midi":63,"time":509.24966050000006,"velocity":0.44881889763779526,"duration":9.259368827083279},{"name":"F3","midi":53,"time":518.999654,"velocity":0.5039370078740157,"duration":2.84687310208335},{"name":"G#3","midi":56,"time":518.999654,"velocity":0.5039370078740157,"duration":2.84687310208335},{"name":"C#3","midi":49,"time":521.999652,"velocity":0.5039370078740157,"duration":2.84687310208335},{"name":"F3","midi":53,"time":521.999652,"velocity":0.5039370078740157,"duration":2.84687310208335},{"name":"G#3","midi":56,"time":521.999652,"velocity":0.5039370078740157,"duration":2.84687310208335},{"name":"D#3","midi":51,"time":524.99965,"velocity":0.5039370078740157,"duration":2.84687310208335},{"name":"G#3","midi":56,"time":524.99965,"velocity":0.5039370078740157,"duration":2.84687310208335},{"name":"D#3","midi":51,"time":524.99965,"velocity":0.5039370078740157,"duration":2.84687310208335},{"name":"G#3","midi":56,"time":524.99965,"velocity":0.5039370078740157,"duration":2.84687310208335},{"name":"G#3","midi":56,"time":527.999648,"velocity":0.5039370078740157,"duration":1.4968740020833593},{"name":"D#3","midi":51,"time":527.999648,"velocity":0.5039370078740157,"duration":2.996873002083362},{"name":"G3","midi":55,"time":529.499647,"velocity":0.5039370078740157,"duration":1.4218740520833535},{"name":"F3","midi":53,"time":530.999646,"velocity":0.5039370078740157,"duration":2.84687310208335},{"name":"G#3","midi":56,"time":530.999646,"velocity":0.5039370078740157,"duration":2.84687310208335},{"name":"C#3","midi":49,"time":533.999644,"velocity":0.5039370078740157,"duration":2.84687310208335},{"name":"F3","midi":53,"time":533.999644,"velocity":0.5039370078740157,"duration":2.84687310208335},{"name":"G#3","midi":56,"time":533.999644,"velocity":0.5039370078740157,"duration":2.84687310208335},{"name":"D#3","midi":51,"time":536.999642,"velocity":0.5039370078740157,"duration":2.84687310208335},{"name":"G#3","midi":56,"time":536.999642,"velocity":0.5039370078740157,"duration":2.84687310208335},{"name":"D#3","midi":51,"time":539.99964,"velocity":0.5039370078740157,"duration":2.84687310208335},{"name":"G3","midi":55,"time":539.99964,"velocity":0.5039370078740157,"duration":2.84687310208335},{"name":"F2","midi":41,"time":542.999638,"velocity":0.3858267716535433,"duration":8.546869302083337},{"name":"C3","midi":48,"time":542.999638,"velocity":0.3858267716535433,"duration":8.546869302083337},{"name":"F3","midi":53,"time":542.999638,"velocity":0.3858267716535433,"duration":8.546869302083337},{"name":"C#2","midi":37,"time":551.999632,"velocity":0.3858267716535433,"duration":8.546869302083337},{"name":"G#2","midi":44,"time":551.999632,"velocity":0.3858267716535433,"duration":8.546869302083337},{"name":"C#3","midi":49,"time":551.999632,"velocity":0.3858267716535433,"duration":8.546869302083337},{"name":"G#2","midi":44,"time":560.999626,"velocity":0.3858267716535433,"duration":8.546869302083337},{"name":"D#3","midi":51,"time":560.999626,"velocity":0.3858267716535433,"duration":8.546869302083337},{"name":"G#3","midi":56,"time":560.999626,"velocity":0.3858267716535433,"duration":8.546869302083337},{"name":"D#2","midi":39,"time":569.99962,"velocity":0.3858267716535433,"duration":8.546869302083337},{"name":"A#2","midi":46,"time":569.99962,"velocity":0.3858267716535433,"duration":8.546869302083337},{"name":"D#3","midi":51,"time":569.99962,"velocity":0.3858267716535433,"duration":8.546869302083337},{"name":"F2","midi":41,"time":578.9996140000001,"velocity":0.3858267716535433,"duration":8.546869302083337},{"name":"C3","midi":48,"time":578.9996140000001,"velocity":0.3858267716535433,"duration":8.546869302083337},{"name":"F3","midi":53,"time":578.9996140000001,"velocity":0.3858267716535433,"duration":8.546869302083337},{"name":"C#2","midi":37,"time":587.9996080000001,"velocity":0.3858267716535433,"duration":8.546869302083337},{"name":"G#2","midi":44,"time":587.9996080000001,"velocity":0.3858267716535433,"duration":8.546869302083337},{"name":"C#3","midi":49,"time":587.9996080000001,"velocity":0.3858267716535433,"duration":8.546869302083337},{"name":"G#2","midi":44,"time":596.9996020000001,"velocity":0.3858267716535433,"duration":8.546869302083337},{"name":"D#3","midi":51,"time":596.9996020000001,"velocity":0.3858267716535433,"duration":8.546869302083337},{"name":"G#3","midi":56,"time":596.9996020000001,"velocity":0.3858267716535433,"duration":8.546869302083337},{"name":"D#2","midi":39,"time":605.9995960000001,"velocity":0.3858267716535433,"duration":8.546869302083337},{"name":"A#2","midi":46,"time":605.9995960000001,"velocity":0.3858267716535433,"duration":8.546869302083337},{"name":"D#3","midi":51,"time":605.9995960000001,"velocity":0.3858267716535433,"duration":8.546869302083337},{"name":"F2","midi":41,"time":614.9995900000001,"velocity":0.3858267716535433,"duration":0.7093745270833551},{"name":"C3","midi":48,"time":615.7495895000002,"velocity":0.3858267716535433,"duration":0.7093745270833551},{"name":"F3","midi":53,"time":616.4995890000002,"velocity":0.3858267716535433,"duration":0.7093745270833551},{"name":"C3","midi":48,"time":617.2495885000003,"velocity":0.3858267716535433,"duration":0.7093745270833551},{"name":"F3","midi":53,"time":617.9995880000004,"velocity":0.3858267716535433,"duration":0.7093745270833551},{"name":"C3","midi":48,"time":618.7495875000004,"velocity":0.3858267716535433,"duration":0.7093745270833551},{"name":"F2","midi":41,"time":619.4995870000005,"velocity":0.3858267716535433,"duration":0.7093745270833551},{"name":"C3","midi":48,"time":620.2495865000005,"velocity":0.3858267716535433,"duration":0.7093745270833551},{"name":"F3","midi":53,"time":620.9995860000006,"velocity":0.3858267716535433,"duration":0.7093745270833551},{"name":"C3","midi":48,"time":621.7495855000006,"velocity":0.3858267716535433,"duration":0.7093745270833551},{"name":"F3","midi":53,"time":622.4995850000007,"velocity":0.3858267716535433,"duration":0.7093745270833551},{"name":"C3","midi":48,"time":623.2495845000008,"velocity":0.3858267716535433,"duration":0.7093745270833551},{"name":"C#2","midi":37,"time":623.9995840000008,"velocity":0.3858267716535433,"duration":0.7093745270833551},{"name":"G#2","midi":44,"time":624.7495835000009,"velocity":0.3858267716535433,"duration":0.7093745270833551},{"name":"C#3","midi":49,"time":625.4995830000009,"velocity":0.3858267716535433,"duration":0.7093745270833551},{"name":"G#2","midi":44,"time":626.249582500001,"velocity":0.3858267716535433,"duration":0.7093745270833551},{"name":"C#3","midi":49,"time":626.999582000001,"velocity":0.3858267716535433,"duration":0.7093745270833551},{"name":"G#2","midi":44,"time":627.7495815000011,"velocity":0.3858267716535433,"duration":0.7093745270833551},{"name":"C#2","midi":37,"time":628.4995810000012,"velocity":0.3858267716535433,"duration":0.7093745270833551},{"name":"G#2","midi":44,"time":629.2495805000012,"velocity":0.3858267716535433,"duration":0.7093745270833551},{"name":"C#3","midi":49,"time":629.9995800000013,"velocity":0.3858267716535433,"duration":0.7093745270833551},{"name":"G#2","midi":44,"time":630.7495795000013,"velocity":0.3858267716535433,"duration":0.7093745270833551},{"name":"C#3","midi":49,"time":631.4995790000014,"velocity":0.3858267716535433,"duration":1.4218740520833535},{"name":"G#2","midi":44,"time":632.9995780000014,"velocity":0.3858267716535433,"duration":0.7093745270833551},{"name":"D#3","midi":51,"time":633.7495775000015,"velocity":0.3858267716535433,"duration":0.7093745270833551},{"name":"G#3","midi":56,"time":634.4995770000015,"velocity":0.3858267716535433,"duration":0.7093745270833551},{"name":"D#3","midi":51,"time":635.2495765000016,"velocity":0.3858267716535433,"duration":0.7093745270833551},{"name":"G#3","midi":56,"time":635.9995760000016,"velocity":0.3858267716535433,"duration":0.7093745270833551},{"name":"D#3","midi":51,"time":636.7495755000017,"velocity":0.3858267716535433,"duration":0.7093745270833551},{"name":"G#2","midi":44,"time":637.4995750000018,"velocity":0.3858267716535433,"duration":0.7093745270833551},{"name":"D#3","midi":51,"time":638.2495745000018,"velocity":0.3858267716535433,"duration":0.7093745270833551},{"name":"G#3","midi":56,"time":638.9995740000019,"velocity":0.3858267716535433,"duration":0.7093745270833551},{"name":"D#3","midi":51,"time":639.7495735000019,"velocity":0.3858267716535433,"duration":0.7093745270833551},{"name":"G#3","midi":56,"time":640.499573000002,"velocity":0.3858267716535433,"duration":0.7093745270833551},{"name":"D#3","midi":51,"time":641.249572500002,"velocity":0.3858267716535433,"duration":0.7093745270833551},{"name":"D#2","midi":39,"time":641.9995720000021,"velocity":0.3858267716535433,"duration":0.7093745270833551},{"name":"A#2","midi":46,"time":642.7495715000022,"velocity":0.3858267716535433,"duration":0.7093745270833551},{"name":"D#3","midi":51,"time":643.4995710000022,"velocity":0.3858267716535433,"duration":0.7093745270833551},{"name":"A#2","midi":46,"time":644.2495705000023,"velocity":0.3858267716535433,"duration":0.7093745270833551},{"name":"D#3","midi":51,"time":644.9995700000023,"velocity":0.3858267716535433,"duration":0.7093745270833551},{"name":"A#2","midi":46,"time":645.7495695000024,"velocity":0.3858267716535433,"duration":0.7093745270833551},{"name":"D#2","midi":39,"time":646.4995690000025,"velocity":0.3858267716535433,"duration":0.7093745270833551},{"name":"A#2","midi":46,"time":647.2495685000025,"velocity":0.3858267716535433,"duration":0.7093745270833551},{"name":"D#3","midi":51,"time":647.9995680000026,"velocity":0.3858267716535433,"duration":0.7093745270833551},{"name":"A#2","midi":46,"time":648.7495675000026,"velocity":0.3858267716535433,"duration":0.7093745270833551},{"name":"D#3","midi":51,"time":649.4995670000027,"velocity":0.3858267716535433,"duration":0.7093745270833551},{"name":"A#2","midi":46,"time":650.2495665000027,"velocity":0.3858267716535433,"duration":0.7093745270833551},{"name":"F2","midi":41,"time":650.9995660000028,"velocity":0.3858267716535433,"duration":0.7093745270833551},{"name":"C3","midi":48,"time":651.7495655000029,"velocity":0.3858267716535433,"duration":0.7093745270833551},{"name":"F3","midi":53,"time":652.4995650000029,"velocity":0.3858267716535433,"duration":0.7093745270833551},{"name":"C3","midi":48,"time":653.249564500003,"velocity":0.3858267716535433,"duration":0.7093745270833551},{"name":"F3","midi":53,"time":653.999564000003,"velocity":0.3858267716535433,"duration":0.7093745270833551},{"name":"C3","midi":48,"time":654.7495635000031,"velocity":0.3858267716535433,"duration":0.7093745270833551},{"name":"F2","midi":41,"time":655.4995630000031,"velocity":0.3858267716535433,"duration":0.7093745270833551},{"name":"C3","midi":48,"time":656.2495625000032,"velocity":0.3858267716535433,"duration":0.7093745270833551},{"name":"F3","midi":53,"time":656.9995620000033,"velocity":0.3858267716535433,"duration":0.7093745270833551},{"name":"C3","midi":48,"time":657.7495615000033,"velocity":0.3858267716535433,"duration":0.7093745270833551},{"name":"F3","midi":53,"time":658.4995610000034,"velocity":0.3858267716535433,"duration":0.7093745270833551},{"name":"C3","midi":48,"time":659.2495605000034,"velocity":0.3858267716535433,"duration":0.7093745270833551},{"name":"C#2","midi":37,"time":659.9995600000035,"velocity":0.3858267716535433,"duration":0.7093745270833551},{"name":"G#2","midi":44,"time":660.7495595000036,"velocity":0.3858267716535433,"duration":0.7093745270833551},{"name":"C#3","midi":49,"time":661.4995590000036,"velocity":0.3858267716535433,"duration":0.7093745270833551},{"name":"G#2","midi":44,"time":662.2495585000037,"velocity":0.3858267716535433,"duration":0.7093745270833551},{"name":"C#3","midi":49,"time":662.9995580000037,"velocity":0.3858267716535433,"duration":0.7093745270833551},{"name":"G#2","midi":44,"time":663.7495575000038,"velocity":0.3858267716535433,"duration":0.7093745270833551},{"name":"C#2","midi":37,"time":664.4995570000038,"velocity":0.3858267716535433,"duration":0.7093745270833551},{"name":"G#2","midi":44,"time":665.2495565000039,"velocity":0.3858267716535433,"duration":0.7093745270833551},{"name":"C#3","midi":49,"time":665.999556000004,"velocity":0.3858267716535433,"duration":0.7093745270833551},{"name":"G#2","midi":44,"time":666.749555500004,"velocity":0.3858267716535433,"duration":0.7093745270833551},{"name":"C#3","midi":49,"time":667.4995550000041,"velocity":0.3858267716535433,"duration":1.4218740520833535},{"name":"G#2","midi":44,"time":668.9995540000041,"velocity":0.3858267716535433,"duration":0.7093745270833551},{"name":"D#3","midi":51,"time":669.7495535000041,"velocity":0.3858267716535433,"duration":0.7093745270833551},{"name":"G#3","midi":56,"time":670.4995530000042,"velocity":0.3858267716535433,"duration":0.7093745270833551},{"name":"D#3","midi":51,"time":671.2495525000043,"velocity":0.3858267716535433,"duration":0.7093745270833551},{"name":"G#3","midi":56,"time":671.9995520000043,"velocity":0.3858267716535433,"duration":0.7093745270833551},{"name":"D#3","midi":51,"time":672.7495515000044,"velocity":0.3858267716535433,"duration":0.7093745270833551},{"name":"G#2","midi":44,"time":673.4995510000044,"velocity":0.3858267716535433,"duration":0.7093745270833551},{"name":"D#3","midi":51,"time":674.2495505000045,"velocity":0.3858267716535433,"duration":0.7093745270833551},{"name":"G#3","midi":56,"time":674.9995500000045,"velocity":0.3858267716535433,"duration":0.7093745270833551},{"name":"D#3","midi":51,"time":675.7495495000046,"velocity":0.3858267716535433,"duration":0.7093745270833551},{"name":"G#3","midi":56,"time":676.4995490000047,"velocity":0.3858267716535433,"duration":0.7093745270833551},{"name":"D#3","midi":51,"time":677.2495485000047,"velocity":0.3858267716535433,"duration":0.7093745270833551},{"name":"D#2","midi":39,"time":677.9995480000048,"velocity":0.3858267716535433,"duration":0.7093745270833551},{"name":"A#2","midi":46,"time":678.7495475000048,"velocity":0.3858267716535433,"duration":0.7093745270833551},{"name":"D#3","midi":51,"time":679.4995470000049,"velocity":0.3858267716535433,"duration":0.7093745270833551},{"name":"A#2","midi":46,"time":680.249546500005,"velocity":0.3858267716535433,"duration":0.7093745270833551},{"name":"D#3","midi":51,"time":680.999546000005,"velocity":0.3858267716535433,"duration":0.7093745270833551},{"name":"A#2","midi":46,"time":681.7495455000051,"velocity":0.3858267716535433,"duration":0.7093745270833551},{"name":"D#2","midi":39,"time":682.4995450000051,"velocity":0.3858267716535433,"duration":0.7093745270833551},{"name":"A#2","midi":46,"time":683.2495445000052,"velocity":0.3858267716535433,"duration":0.7093745270833551},{"name":"D#3","midi":51,"time":683.9995440000052,"velocity":0.3858267716535433,"duration":0.7093745270833551},{"name":"A#2","midi":46,"time":684.7495435000053,"velocity":0.3858267716535433,"duration":0.7093745270833551},{"name":"D#3","midi":51,"time":685.4995430000054,"velocity":0.3858267716535433,"duration":0.7093745270833551},{"name":"A#2","midi":46,"time":686.2495425000054,"velocity":0.3858267716535433,"duration":0.7093745270833551},{"name":"F2","midi":41,"time":686.9995420000055,"velocity":0.6299212598425197,"duration":0.7093745270833551},{"name":"C3","midi":48,"time":687.7495415000055,"velocity":0.6299212598425197,"duration":0.7093745270833551},{"name":"F3","midi":53,"time":688.4995410000056,"velocity":0.6299212598425197,"duration":0.7093745270833551},{"name":"C3","midi":48,"time":689.2495405000057,"velocity":0.6299212598425197,"duration":0.7093745270833551},{"name":"F3","midi":53,"time":689.9995400000057,"velocity":0.6299212598425197,"duration":0.7093745270833551},{"name":"C3","midi":48,"time":690.7495395000058,"velocity":0.6299212598425197,"duration":0.7093745270833551},{"name":"F2","midi":41,"time":691.4995390000058,"velocity":0.6299212598425197,"duration":0.7093745270833551},{"name":"C3","midi":48,"time":692.2495385000059,"velocity":0.6299212598425197,"duration":0.7093745270833551},{"name":"F3","midi":53,"time":692.9995380000059,"velocity":0.6299212598425197,"duration":0.7093745270833551},{"name":"C3","midi":48,"time":693.749537500006,"velocity":0.6299212598425197,"duration":0.7093745270833551},{"name":"F3","midi":53,"time":694.4995370000061,"velocity":0.6299212598425197,"duration":0.7093745270833551},{"name":"C3","midi":48,"time":695.2495365000061,"velocity":0.6299212598425197,"duration":0.7093745270833551},{"name":"C#2","midi":37,"time":695.9995360000062,"velocity":0.6299212598425197,"duration":0.7093745270833551},{"name":"G#2","midi":44,"time":696.7495355000062,"velocity":0.6299212598425197,"duration":0.7093745270833551},{"name":"C#3","midi":49,"time":697.4995350000063,"velocity":0.6299212598425197,"duration":0.7093745270833551},{"name":"G#2","midi":44,"time":698.2495345000063,"velocity":0.6299212598425197,"duration":0.7093745270833551},{"name":"C#3","midi":49,"time":698.9995340000064,"velocity":0.6299212598425197,"duration":0.7093745270833551},{"name":"G#2","midi":44,"time":699.7495335000065,"velocity":0.6299212598425197,"duration":0.7093745270833551},{"name":"C#2","midi":37,"time":700.4995330000065,"velocity":0.6299212598425197,"duration":0.7093745270833551},{"name":"G#2","midi":44,"time":701.2495325000066,"velocity":0.6299212598425197,"duration":0.7093745270833551},{"name":"C#3","midi":49,"time":701.9995320000066,"velocity":0.6299212598425197,"duration":0.7093745270833551},{"name":"G#2","midi":44,"time":702.7495315000067,"velocity":0.6299212598425197,"duration":0.7093745270833551},{"name":"C#3","midi":49,"time":703.4995310000068,"velocity":0.6299212598425197,"duration":1.4218740520833535},{"name":"G#2","midi":44,"time":704.9995300000068,"velocity":0.6299212598425197,"duration":0.7093745270833551},{"name":"D#3","midi":51,"time":705.7495295000068,"velocity":0.6299212598425197,"duration":0.7093745270833551},{"name":"G#3","midi":56,"time":706.4995290000069,"velocity":0.6299212598425197,"duration":0.7093745270833551},{"name":"D#3","midi":51,"time":707.2495285000069,"velocity":0.6299212598425197,"duration":0.7093745270833551},{"name":"G#3","midi":56,"time":707.999528000007,"velocity":0.6299212598425197,"duration":0.7093745270833551},{"name":"D#3","midi":51,"time":708.749527500007,"velocity":0.6299212598425197,"duration":0.7093745270833551},{"name":"G#2","midi":44,"time":709.4995270000071,"velocity":0.6299212598425197,"duration":0.7093745270833551},{"name":"D#3","midi":51,"time":710.2495265000072,"velocity":0.6299212598425197,"duration":0.7093745270833551},{"name":"G#3","midi":56,"time":710.9995260000072,"velocity":0.6299212598425197,"duration":0.7093745270833551},{"name":"D#3","midi":51,"time":711.7495255000073,"velocity":0.6299212598425197,"duration":0.7093745270833551},{"name":"G#3","midi":56,"time":712.4995250000073,"velocity":0.6299212598425197,"duration":0.7093745270833551},{"name":"D#3","midi":51,"time":713.2495245000074,"velocity":0.6299212598425197,"duration":0.7093745270833551},{"name":"D#2","midi":39,"time":713.9995240000075,"velocity":0.6299212598425197,"duration":0.7093745270833551},{"name":"A#2","midi":46,"time":714.7495235000075,"velocity":0.6299212598425197,"duration":0.7093745270833551},{"name":"D#3","midi":51,"time":715.4995230000076,"velocity":0.6299212598425197,"duration":0.7093745270833551},{"name":"A#2","midi":46,"time":716.2495225000076,"velocity":0.6299212598425197,"duration":0.7093745270833551},{"name":"D#3","midi":51,"time":716.9995220000077,"velocity":0.6299212598425197,"duration":0.7093745270833551},{"name":"A#2","midi":46,"time":717.7495215000077,"velocity":0.6299212598425197,"duration":0.7093745270833551},{"name":"D#2","midi":39,"time":718.4995210000078,"velocity":0.6299212598425197,"duration":0.7093745270833551},{"name":"A#2","midi":46,"time":719.2495205000079,"velocity":0.6299212598425197,"duration":0.7093745270833551},{"name":"D#3","midi":51,"time":719.9995200000079,"velocity":0.6299212598425197,"duration":0.7093745270833551},{"name":"A#2","midi":46,"time":720.749519500008,"velocity":0.6299212598425197,"duration":0.7093745270833551},{"name":"D#3","midi":51,"time":721.499519000008,"velocity":0.6299212598425197,"duration":0.7093745270833551},{"name":"A#2","midi":46,"time":722.2495185000081,"velocity":0.6299212598425197,"duration":0.7093745270833551},{"name":"F2","midi":41,"time":722.9995180000082,"velocity":0.6299212598425197,"duration":0.7093745270833551},{"name":"C3","midi":48,"time":723.7495175000082,"velocity":0.6299212598425197,"duration":0.7093745270833551},{"name":"F3","midi":53,"time":724.4995170000083,"velocity":0.6299212598425197,"duration":0.7093745270833551},{"name":"C3","midi":48,"time":725.2495165000083,"velocity":0.6299212598425197,"duration":0.7093745270833551},{"name":"F3","midi":53,"time":725.9995160000084,"velocity":0.6299212598425197,"duration":0.7093745270833551},{"name":"C3","midi":48,"time":726.7495155000084,"velocity":0.6299212598425197,"duration":0.7093745270833551},{"name":"F2","midi":41,"time":727.4995150000085,"velocity":0.6299212598425197,"duration":0.7093745270833551},{"name":"C3","midi":48,"time":728.2495145000086,"velocity":0.6299212598425197,"duration":0.7093745270833551},{"name":"F3","midi":53,"time":728.9995140000086,"velocity":0.6299212598425197,"duration":0.7093745270833551},{"name":"C3","midi":48,"time":729.7495135000087,"velocity":0.6299212598425197,"duration":0.7093745270833551},{"name":"F3","midi":53,"time":730.4995130000087,"velocity":0.6299212598425197,"duration":0.7093745270833551},{"name":"C3","midi":48,"time":731.2495125000088,"velocity":0.6299212598425197,"duration":0.7093745270833551},{"name":"C#2","midi":37,"time":731.9995120000088,"velocity":0.6299212598425197,"duration":0.7093745270833551},{"name":"G#2","midi":44,"time":732.7495115000089,"velocity":0.6299212598425197,"duration":0.7093745270833551},{"name":"C#3","midi":49,"time":733.499511000009,"velocity":0.6299212598425197,"duration":0.7093745270833551},{"name":"G#2","midi":44,"time":734.249510500009,"velocity":0.6299212598425197,"duration":0.7093745270833551},{"name":"C#3","midi":49,"time":734.9995100000091,"velocity":0.6299212598425197,"duration":0.7093745270833551},{"name":"G#2","midi":44,"time":735.7495095000091,"velocity":0.6299212598425197,"duration":0.7093745270833551},{"name":"C#2","midi":37,"time":736.4995090000092,"velocity":0.6299212598425197,"duration":0.7093745270833551},{"name":"G#2","midi":44,"time":737.2495085000093,"velocity":0.6299212598425197,"duration":0.7093745270833551},{"name":"C#3","midi":49,"time":737.9995080000093,"velocity":0.6299212598425197,"duration":0.7093745270833551},{"name":"G#2","midi":44,"time":738.7495075000094,"velocity":0.6299212598425197,"duration":0.7093745270833551},{"name":"C#3","midi":49,"time":739.4995070000094,"velocity":0.6299212598425197,"duration":1.4218740520833535},{"name":"G#2","midi":44,"time":740.9995060000094,"velocity":0.6299212598425197,"duration":0.7093745270833551},{"name":"D#3","midi":51,"time":741.7495055000095,"velocity":0.6299212598425197,"duration":0.7093745270833551},{"name":"G#3","midi":56,"time":742.4995050000095,"velocity":0.6299212598425197,"duration":0.7093745270833551},{"name":"D#3","midi":51,"time":743.2495045000096,"velocity":0.6299212598425197,"duration":0.7093745270833551},{"name":"G#3","midi":56,"time":743.9995040000097,"velocity":0.6299212598425197,"duration":0.7093745270833551},{"name":"D#3","midi":51,"time":744.7495035000097,"velocity":0.6299212598425197,"duration":0.7093745270833551},{"name":"G#2","midi":44,"time":745.4995030000098,"velocity":0.6299212598425197,"duration":0.7093745270833551},{"name":"D#3","midi":51,"time":746.2495025000098,"velocity":0.6299212598425197,"duration":0.7093745270833551},{"name":"G#3","midi":56,"time":746.9995020000099,"velocity":0.6299212598425197,"duration":0.7093745270833551},{"name":"D#3","midi":51,"time":747.74950150001,"velocity":0.6299212598425197,"duration":0.7093745270833551},{"name":"G#3","midi":56,"time":748.49950100001,"velocity":0.6299212598425197,"duration":0.7093745270833551},{"name":"D#3","midi":51,"time":749.2495005000101,"velocity":0.6299212598425197,"duration":0.7093745270833551},{"name":"D#2","midi":39,"time":749.9995000000101,"velocity":0.6299212598425197,"duration":0.7093745270833551},{"name":"A#2","midi":46,"time":750.7494995000102,"velocity":0.6299212598425197,"duration":0.7093745270833551},{"name":"D#3","midi":51,"time":751.4994990000102,"velocity":0.6299212598425197,"duration":0.7093745270833551},{"name":"A#2","midi":46,"time":752.2494985000103,"velocity":0.6299212598425197,"duration":0.7093745270833551},{"name":"D#3","midi":51,"time":752.9994980000104,"velocity":0.6299212598425197,"duration":0.7093745270833551},{"name":"A#2","midi":46,"time":753.7494975000104,"velocity":0.6299212598425197,"duration":0.7093745270833551},{"name":"D#2","midi":39,"time":754.4994970000105,"velocity":0.6299212598425197,"duration":0.7093745270833551},{"name":"A#2","midi":46,"time":755.2494965000105,"velocity":0.6299212598425197,"duration":0.7093745270833551},{"name":"D#3","midi":51,"time":755.9994960000106,"velocity":0.6299212598425197,"duration":0.7093745270833551},{"name":"A#2","midi":46,"time":756.7494955000107,"velocity":0.6299212598425197,"duration":0.7093745270833551},{"name":"D#3","midi":51,"time":757.4994950000107,"velocity":0.6299212598425197,"duration":0.7093745270833551},{"name":"A#2","midi":46,"time":758.2494945000108,"velocity":0.6299212598425197,"duration":0.7093745270833551},{"name":"F2","midi":41,"time":758.9994940000108,"velocity":0.7559055118110236,"duration":0.7093745270833551},{"name":"C3","midi":48,"time":759.7494935000109,"velocity":0.7559055118110236,"duration":0.7093745270833551},{"name":"F3","midi":53,"time":760.499493000011,"velocity":0.7559055118110236,"duration":0.7093745270833551},{"name":"C3","midi":48,"time":761.249492500011,"velocity":0.7559055118110236,"duration":0.7093745270833551},{"name":"F3","midi":53,"time":761.9994920000111,"velocity":0.7559055118110236,"duration":0.7093745270833551},{"name":"C3","midi":48,"time":762.7494915000111,"velocity":0.7559055118110236,"duration":0.7093745270833551},{"name":"C#2","midi":37,"time":763.4994910000112,"velocity":0.7559055118110236,"duration":0.7093745270833551},{"name":"G#2","midi":44,"time":764.2494905000112,"velocity":0.7559055118110236,"duration":0.7093745270833551},{"name":"C#3","midi":49,"time":764.9994900000113,"velocity":0.7559055118110236,"duration":0.7093745270833551},{"name":"G#2","midi":44,"time":765.7494895000114,"velocity":0.7559055118110236,"duration":0.7093745270833551},{"name":"C#3","midi":49,"time":766.4994890000114,"velocity":0.7559055118110236,"duration":1.4218740520833535},{"name":"G#2","midi":44,"time":767.9994880000114,"velocity":0.7559055118110236,"duration":0.7093745270833551},{"name":"D#3","midi":51,"time":768.7494875000115,"velocity":0.7559055118110236,"duration":0.7093745270833551},{"name":"G#3","midi":56,"time":769.4994870000115,"velocity":0.7559055118110236,"duration":0.7093745270833551},{"name":"D#3","midi":51,"time":770.2494865000116,"velocity":0.7559055118110236,"duration":0.7093745270833551},{"name":"G#3","midi":56,"time":770.9994860000116,"velocity":0.7559055118110236,"duration":0.7093745270833551},{"name":"D#3","midi":51,"time":771.7494855000117,"velocity":0.7559055118110236,"duration":0.7093745270833551},{"name":"D#2","midi":39,"time":772.4994850000118,"velocity":0.7559055118110236,"duration":0.7093745270833551},{"name":"A#2","midi":46,"time":773.2494845000118,"velocity":0.7559055118110236,"duration":0.7093745270833551},{"name":"D#3","midi":51,"time":773.9994840000119,"velocity":0.7559055118110236,"duration":0.7093745270833551},{"name":"G3","midi":55,"time":774.7494835000119,"velocity":0.7559055118110236,"duration":0.7093745270833551},{"name":"D#3","midi":51,"time":775.499483000012,"velocity":0.7559055118110236,"duration":0.7093745270833551},{"name":"A#2","midi":46,"time":776.249482500012,"velocity":0.7559055118110236,"duration":0.7093745270833551},{"name":"F2","midi":41,"time":776.9994820000121,"velocity":0.7559055118110236,"duration":0.7093745270833551},{"name":"C3","midi":48,"time":777.7494815000122,"velocity":0.7559055118110236,"duration":0.7093745270833551},{"name":"F3","midi":53,"time":778.4994810000122,"velocity":0.7559055118110236,"duration":0.7093745270833551},{"name":"C3","midi":48,"time":779.2494805000123,"velocity":0.7559055118110236,"duration":0.7093745270833551},{"name":"F3","midi":53,"time":779.9994800000123,"velocity":0.7559055118110236,"duration":0.7093745270833551},{"name":"C3","midi":48,"time":780.7494795000124,"velocity":0.7559055118110236,"duration":0.7093745270833551},{"name":"C#2","midi":37,"time":781.4994790000125,"velocity":0.7559055118110236,"duration":0.7093745270833551},{"name":"G#2","midi":44,"time":782.2494785000125,"velocity":0.7559055118110236,"duration":0.7093745270833551},{"name":"C#3","midi":49,"time":782.9994780000126,"velocity":0.7559055118110236,"duration":0.7093745270833551},{"name":"G#2","midi":44,"time":783.7494775000126,"velocity":0.7559055118110236,"duration":0.7093745270833551},{"name":"C#3","midi":49,"time":784.4994770000127,"velocity":0.7559055118110236,"duration":1.4218740520833535},{"name":"G#2","midi":44,"time":785.9994760000127,"velocity":0.7559055118110236,"duration":0.7093745270833551},{"name":"D#3","midi":51,"time":786.7494755000127,"velocity":0.7559055118110236,"duration":0.7093745270833551},{"name":"G#3","midi":56,"time":787.4994750000128,"velocity":0.7559055118110236,"duration":0.7093745270833551},{"name":"D#3","midi":51,"time":788.2494745000129,"velocity":0.7559055118110236,"duration":0.7093745270833551},{"name":"G#3","midi":56,"time":788.9994740000129,"velocity":0.7559055118110236,"duration":0.7093745270833551},{"name":"D#3","midi":51,"time":789.749473500013,"velocity":0.7559055118110236,"duration":0.7093745270833551},{"name":"D#2","midi":39,"time":790.499473000013,"velocity":0.7559055118110236,"duration":0.7093745270833551},{"name":"A#2","midi":46,"time":791.2494725000131,"velocity":0.7559055118110236,"duration":0.7093745270833551},{"name":"D#3","midi":51,"time":791.9994720000132,"velocity":0.7559055118110236,"duration":0.7093745270833551},{"name":"G3","midi":55,"time":792.7494715000132,"velocity":0.7559055118110236,"duration":0.7093745270833551},{"name":"D#3","midi":51,"time":793.4994710000133,"velocity":0.7559055118110236,"duration":0.7093745270833551},{"name":"A#2","midi":46,"time":794.2494705000133,"velocity":0.7559055118110236,"duration":0.7093745270833551},{"name":"F2","midi":41,"time":794.9994700000134,"velocity":0.7559055118110236,"duration":0.7093745270833551},{"name":"C3","midi":48,"time":795.7494695000134,"velocity":0.7559055118110236,"duration":0.7093745270833551},{"name":"F3","midi":53,"time":796.4994690000135,"velocity":0.7559055118110236,"duration":0.7093745270833551},{"name":"C3","midi":48,"time":797.2494685000136,"velocity":0.7559055118110236,"duration":0.7093745270833551},{"name":"F3","midi":53,"time":797.9994680000136,"velocity":0.7559055118110236,"duration":0.7093745270833551},{"name":"C3","midi":48,"time":798.7494675000137,"velocity":0.7559055118110236,"duration":0.7093745270833551},{"name":"C#2","midi":37,"time":799.4994670000137,"velocity":0.7559055118110236,"duration":0.7093745270833551},{"name":"G#2","midi":44,"time":800.2494665000138,"velocity":0.7559055118110236,"duration":0.7093745270833551},{"name":"C#3","midi":49,"time":800.9994660000139,"velocity":0.7559055118110236,"duration":0.7093745270833551},{"name":"G#2","midi":44,"time":801.7494655000139,"velocity":0.7559055118110236,"duration":0.7093745270833551},{"name":"C#3","midi":49,"time":802.499465000014,"velocity":0.7559055118110236,"duration":1.4218740520833535},{"name":"G#2","midi":44,"time":803.999464000014,"velocity":0.7559055118110236,"duration":0.7093745270833551},{"name":"D#3","midi":51,"time":804.749463500014,"velocity":0.7559055118110236,"duration":0.7093745270833551},{"name":"G#3","midi":56,"time":805.4994630000141,"velocity":0.7559055118110236,"duration":0.7093745270833551},{"name":"D#3","midi":51,"time":806.2494625000141,"velocity":0.7559055118110236,"duration":0.7093745270833551},{"name":"G#3","midi":56,"time":806.9994620000142,"velocity":0.7559055118110236,"duration":0.7093745270833551},{"name":"D#3","midi":51,"time":807.7494615000143,"velocity":0.7559055118110236,"duration":0.7093745270833551},{"name":"D#2","midi":39,"time":808.4994610000143,"velocity":0.7559055118110236,"duration":0.7093745270833551},{"name":"A#2","midi":46,"time":809.2494605000144,"velocity":0.7559055118110236,"duration":0.7093745270833551},{"name":"D#3","midi":51,"time":809.9994600000144,"velocity":0.7559055118110236,"duration":0.7093745270833551},{"name":"G3","midi":55,"time":810.7494595000145,"velocity":0.7559055118110236,"duration":0.7093745270833551},{"name":"D#3","midi":51,"time":811.4994590000146,"velocity":0.7559055118110236,"duration":0.7093745270833551},{"name":"A#2","midi":46,"time":812.2494585000146,"velocity":0.7559055118110236,"duration":0.7093745270833551},{"name":"F2","midi":41,"time":812.9994580000147,"velocity":0.7559055118110236,"duration":0.7093745270833551},{"name":"C3","midi":48,"time":813.7494575000147,"velocity":0.7559055118110236,"duration":0.7093745270833551},{"name":"F3","midi":53,"time":814.4994570000148,"velocity":0.7559055118110236,"duration":0.7093745270833551},{"name":"C3","midi":48,"time":815.2494565000148,"velocity":0.7559055118110236,"duration":0.7093745270833551},{"name":"F3","midi":53,"time":815.9994560000149,"velocity":0.7559055118110236,"duration":0.7093745270833551},{"name":"C3","midi":48,"time":816.749455500015,"velocity":0.7559055118110236,"duration":0.7093745270833551},{"name":"C#2","midi":37,"time":817.499455000015,"velocity":0.7559055118110236,"duration":0.7093745270833551},{"name":"G#2","midi":44,"time":818.2494545000151,"velocity":0.7559055118110236,"duration":0.7093745270833551},{"name":"C#3","midi":49,"time":818.9994540000151,"velocity":0.7559055118110236,"duration":0.7093745270833551},{"name":"G#2","midi":44,"time":819.7494535000152,"velocity":0.7559055118110236,"duration":0.7093745270833551},{"name":"C#3","midi":49,"time":820.4994530000153,"velocity":0.7559055118110236,"duration":1.4218740520833535},{"name":"G#2","midi":44,"time":821.9994520000153,"velocity":0.7559055118110236,"duration":0.7093745270833551},{"name":"D#3","midi":51,"time":822.7494515000153,"velocity":0.7559055118110236,"duration":0.7093745270833551},{"name":"G#3","midi":56,"time":823.4994510000154,"velocity":0.7559055118110236,"duration":0.7093745270833551},{"name":"D#3","midi":51,"time":824.2494505000154,"velocity":0.7559055118110236,"duration":0.7093745270833551},{"name":"G#3","midi":56,"time":824.9994500000155,"velocity":0.7559055118110236,"duration":0.7093745270833551},{"name":"D#3","midi":51,"time":825.7494495000155,"velocity":0.7559055118110236,"duration":0.7093745270833551},{"name":"D#2","midi":39,"time":826.4994490000156,"velocity":0.7559055118110236,"duration":0.7093745270833551},{"name":"A#2","midi":46,"time":827.2494485000157,"velocity":0.7559055118110236,"duration":0.7093745270833551},{"name":"D#3","midi":51,"time":827.9994480000157,"velocity":0.7559055118110236,"duration":0.7093745270833551},{"name":"A#2","midi":46,"time":828.7494475000158,"velocity":0.7559055118110236,"duration":0.7093745270833551},{"name":"D#3","midi":51,"time":829.4994470000158,"velocity":0.7559055118110236,"duration":0.7093745270833551},{"name":"A#2","midi":46,"time":830.2494465000159,"velocity":0.7559055118110236,"duration":9.259368827083335},{"name":"F2","midi":41,"time":839.9994400000159,"velocity":0.3858267716535433,"duration":8.546869302083337},{"name":"C3","midi":48,"time":839.9994400000159,"velocity":0.3858267716535433,"duration":8.546869302083337},{"name":"F3","midi":53,"time":839.9994400000159,"velocity":0.3858267716535433,"duration":8.546869302083337},{"name":"C#2","midi":37,"time":848.9994340000159,"velocity":0.3858267716535433,"duration":8.546869302083337},{"name":"G#2","midi":44,"time":848.9994340000159,"velocity":0.3858267716535433,"duration":8.546869302083337},{"name":"C#3","midi":49,"time":848.9994340000159,"velocity":0.3858267716535433,"duration":8.546869302083337},{"name":"F2","midi":41,"time":857.9994280000159,"velocity":0.3858267716535433,"duration":8.546869302083337},{"name":"C3","midi":48,"time":857.9994280000159,"velocity":0.3858267716535433,"duration":8.546869302083337},{"name":"F3","midi":53,"time":857.9994280000159,"velocity":0.3858267716535433,"duration":8.546869302083337},{"name":"C#2","midi":37,"time":866.9994220000159,"velocity":0.3858267716535433,"duration":8.546869302083337},{"name":"G#2","midi":44,"time":866.9994220000159,"velocity":0.3858267716535433,"duration":8.546869302083337},{"name":"C#3","midi":49,"time":866.9994220000159,"velocity":0.3858267716535433,"duration":8.546869302083337},{"name":"F2","midi":41,"time":875.9994160000159,"velocity":0.3858267716535433,"duration":8.546869302083337},{"name":"C3","midi":48,"time":875.9994160000159,"velocity":0.3858267716535433,"duration":8.546869302083337},{"name":"F3","midi":53,"time":875.9994160000159,"velocity":0.3858267716535433,"duration":8.546869302083337},{"name":"C#2","midi":37,"time":884.9994100000159,"velocity":0.3858267716535433,"duration":8.546869302083337},{"name":"G#2","midi":44,"time":884.9994100000159,"velocity":0.3858267716535433,"duration":8.546869302083337},{"name":"C#3","midi":49,"time":884.9994100000159,"velocity":0.3858267716535433,"duration":8.546869302083337}]}]}