{"header":{"title":"WITHOUT YOU","artist":"NCT U","source":"https://www.youtube.com/watch?v=yk2-DT80gN0","bpm":128,"duration":134.990234375},"tracks":[{"instrument_number":0,"notes":[{"name":"B4","midi":71,"time":1.171875,"velocity":0.7874015748031497,"duration":0.234375},{"name":"D5","midi":74,"time":1.40625,"velocity":0.7874015748031497,"duration":0.234375},{"name":"B4","midi":71,"time":1.640625,"velocity":0.7874015748031497,"duration":0.234375},{"name":"D5","midi":74,"time":1.875,"velocity":0.7874015748031497,"duration":0.46875},{"name":"B4","midi":71,"time":1.875,"velocity":0.7874015748031497,"duration":0.46875},{"name":"B4","midi":71,"time":2.34375,"velocity":0.7874015748031497,"duration":0.234375},{"name":"B4","midi":71,"time":2.578125,"velocity":0.7874015748031497,"duration":1.171875},{"name":"D5","midi":74,"time":2.578125,"velocity":0.7874015748031497,"duration":1.171875},{"name":"F#5","midi":78,"time":2.578125,"velocity":0.7874015748031497,"duration":1.171875},{"name":"B4","midi":71,"time":4.921875,"velocity":0.7874015748031497,"duration":0.234375},{"name":"D5","midi":74,"time":5.15625,"velocity":0.7874015748031497,"duration":0.234375},{"name":"B4","midi":71,"time":5.390625,"velocity":0.7874015748031497,"duration":0.234375},{"name":"D5","midi":74,"time":5.625,"velocity":0.7874015748031497,"duration":0.234375},{"name":"D5","midi":74,"time":5.859375,"velocity":0.7874015748031497,"duration":0.234375},{"name":"B4","midi":71,"time":6.09375,"velocity":0.7874015748031497,"duration":0.234375},{"name":"B4","midi":71,"time":6.328125,"velocity":0.7874015748031497,"duration":0.8203125},{"name":"D5","midi":74,"time":6.328125,"velocity":0.7874015748031497,"duration":0.8203125},{"name":"F#5","midi":78,"time":6.328125,"velocity":0.7874015748031497,"duration":0.8203125},{"name":"E5","midi":76,"time":7.265625,"velocity":0.7874015748031497,"duration":0.46875},{"name":"F#5","midi":78,"time":7.734375,"velocity":0.7874015748031497,"duration":0.234375},{"name":"D5","midi":74,"time":7.734375,"velocity":0.7874015748031497,"duration":0.234375},{"name":"F#5","midi":78,"time":7.96875,"velocity":0.7874015748031497,"duration":0.234375},{"name":"D5","midi":74,"time":7.96875,"velocity":0.7874015748031497,"duration":0.234375},{"name":"D5","midi":74,"time":8.203125,"velocity":0.7874015748031497,"duration":0.234375},{"name":"F#5","midi":78,"time":8.203125,"velocity":0.7874015748031497,"duration":0.234375},{"name":"F#5","midi":78,"time":8.4375,"velocity":0.7874015748031497,"duration":0.234375},{"name":"D5","midi":74,"time":8.4375,"velocity":0.7874015748031497,"duration":0.234375},{"name":"E5","midi":76,"time":9.140625,"velocity":0.7874015748031497,"duration":0.46875},{"name":"D5","midi":74,"time":9.609375,"velocity":0.7874015748031497,"duration":0.234375},{"name":"F#5","midi":78,"time":9.609375,"velocity":0.7874015748031497,"duration":0.234375},{"name":"D5","midi":74,"time":9.84375,"velocity":0.7874015748031497,"duration":0.234375},{"name":"F#5","midi":78,"time":9.84375,"velocity":0.7874015748031497,"duration":0.234375},{"name":"D5","midi":74,"time":10.078125,"velocity":0.7874015748031497,"duration":0.234375},{"name":"F#5","midi":78,"time":10.078125,"velocity":0.7874015748031497,"duration":0.234375},{"name":"F#5","midi":78,"time":10.3125,"velocity":0.7874015748031497,"duration":0.234375},{"name":"D5","midi":74,"time":10.3125,"velocity":0.7874015748031497,"duration":0.234375},{"name":"E5","midi":76,"time":10.546875,"velocity":0.7874015748031497,"duration":0.234375},{"name":"D5","midi":74,"time":10.78125,"velocity":0.7874015748031497,"duration":0.234375},{"name":"A4","midi":69,"time":11.015625,"velocity":0.44881889763779526,"duration":1.171875},{"name":"F#4","midi":66,"time":11.015625,"velocity":0.44881889763779526,"duration":1.171875},{"name":"C#5","midi":73,"time":11.015625,"velocity":0.7874015748031497,"duration":1.171875},{"name":"B4","midi":71,"time":12.1875,"velocity":0.5354330708661418,"duration":0.703125},{"name":"D5","midi":74,"time":12.1875,"velocity":0.7874015748031497,"duration":0.703125},{"name":"E5","midi":76,"time":12.890625,"velocity":0.7874015748031497,"duration":0.703125},{"name":"C#5","midi":73,"time":12.890625,"velocity":0.5039370078740157,"duration":0.703125},{"name":"A4","midi":69,"time":12.890625,"velocity":0.5039370078740157,"duration":0.703125},{"name":"B4","midi":71,"time":16.171875,"velocity":0.7874015748031497,"duration":0.234375},{"name":"D5","midi":74,"time":16.40625,"velocity":0.7874015748031497,"duration":0.234375},{"name":"B4","midi":71,"time":16.640625,"velocity":0.7874015748031497,"duration":0.234375},{"name":"D5","midi":74,"time":16.875,"velocity":0.7874015748031497,"duration":0.46875},{"name":"B4","midi":71,"time":17.34375,"velocity":0.7874015748031497,"duration":0.234375},{"name":"F#5","midi":78,"time":17.578125,"velocity":0.7874015748031497,"duration":1.171875},{"name":"D5","midi":74,"time":17.578125,"velocity":0.5354330708661418,"duration":1.0546875},{"name":"B4","midi":71,"time":17.578125,"velocity":0.5354330708661418,"duration":1.0546875},{"name":"B4","midi":71,"time":19.921875,"velocity":0.7874015748031497,"duration":0.234375},{"name":"D5","midi":74,"time":20.15625,"velocity":0.7874015748031497,"duration":0.234375},{"name":"B4","midi":71,"time":20.390625,"velocity":0.7874015748031497,"duration":0.234375},{"name":"D5","midi":74,"time":20.625,"velocity":0.7874015748031497,"duration":0.234375},{"name":"D5","midi":74,"time":20.859375,"velocity":0.7874015748031497,"duration":0.234375},{"name":"B4","midi":71,"time":21.09375,"velocity":0.7874015748031497,"duration":0.234375},{"name":"G5","midi":79,"time":21.328125,"velocity":0.7874015748031497,"duration":0.46875},{"name":"D5","midi":74,"time":21.328125,"velocity":0.4645669291338583,"duration":0.46875},{"name":"B4","midi":71,"time":21.328125,"velocity":0.4645669291338583,"duration":0.46875},{"name":"F#5","midi":78,"time":21.796875,"velocity":0.7874015748031497,"duration":0.46875},{"name":"D5","midi":74,"time":21.796875,"velocity":0.5590551181102362,"duration":0.46875},{"name":"B4","midi":71,"time":21.796875,"velocity":0.5590551181102362,"duration":0.46875},{"name":"E5","midi":76,"time":22.265625,"velocity":0.7874015748031497,"duration":0.46875},{"name":"A4","midi":69,"time":22.265625,"velocity":0.5354330708661418,"duration":0.46875},{"name":"C#5","midi":73,"time":22.265625,"velocity":0.5354330708661418,"duration":0.46875},{"name":"F#5","midi":78,"time":22.734375,"velocity":0.7874015748031497,"duration":0.234375},{"name":"F#5","midi":78,"time":22.96875,"velocity":0.7874015748031497,"duration":0.234375},{"name":"F#5","midi":78,"time":23.203125,"velocity":0.7874015748031497,"duration":0.234375},{"name":"F#5","midi":78,"time":23.4375,"velocity":0.7874015748031497,"duration":0.234375},{"name":"E5","midi":76,"time":23.671875,"velocity":0.7874015748031497,"duration":0.46875},{"name":"E5","midi":76,"time":24.140625,"velocity":0.7874015748031497,"duration":0.46875},{"name":"D5","midi":74,"time":24.609375,"velocity":0.5748031496062992,"duration":0.234375},{"name":"F#5","midi":78,"time":24.609375,"velocity":0.7874015748031497,"duration":0.234375},{"name":"D5","midi":74,"time":24.84375,"velocity":0.5748031496062992,"duration":0.234375},{"name":"F#5","midi":78,"time":24.84375,"velocity":0.7874015748031497,"duration":0.234375},{"name":"D5","midi":74,"time":25.078125,"velocity":0.5433070866141733,"duration":0.234375},{"name":"F#5","midi":78,"time":25.078125,"velocity":0.7874015748031497,"duration":0.234375},{"name":"D5","midi":74,"time":25.3125,"velocity":0.5590551181102362,"duration":0.234375},{"name":"F#5","midi":78,"time":25.3125,"velocity":0.7874015748031497,"duration":0.234375},{"name":"E5","midi":76,"time":25.546875,"velocity":0.7874015748031497,"duration":0.234375},{"name":"D5","midi":74,"time":25.78125,"velocity":0.7874015748031497,"duration":0.234375},{"name":"A4","midi":69,"time":26.015625,"velocity":0.6141732283464567,"duration":1.7578125},{"name":"C#5","midi":73,"time":26.015625,"velocity":0.6141732283464567,"duration":1.7578125},{"name":"E5","midi":76,"time":26.015625,"velocity":0.7874015748031497,"duration":1.875},{"name":"F#5","midi":78,"time":29.0625,"velocity":0.7874015748031497,"duration":0.234375},{"name":"G5","midi":79,"time":29.296875,"velocity":0.7874015748031497,"duration":0.234375},{"name":"F#5","midi":78,"time":29.53125,"velocity":0.7874015748031497,"duration":0.234375},{"name":"E5","midi":76,"time":29.765625,"velocity":0.7874015748031497,"duration":0.234375},{"name":"B4","midi":71,"time":30,"velocity":0.7874015748031497,"duration":0.234375},{"name":"E5","midi":76,"time":30,"velocity":0.7874015748031497,"duration":0.234375},{"name":"D5","midi":74,"time":30.234375,"velocity":0.7874015748031497,"duration":0.234375},{"name":"D5","midi":74,"time":30.703125,"velocity":0.7874015748031497,"duration":0.234375},{"name":"D5","midi":74,"time":30.9375,"velocity":0.7874015748031497,"duration":0.234375},{"name":"D5","midi":74,"time":31.171875,"velocity":0.7874015748031497,"duration":0.234375},{"name":"D5","midi":74,"time":31.40625,"velocity":0.7874015748031497,"duration":0.46875},{"name":"F#5","midi":78,"time":32.8125,"velocity":0.7874015748031497,"duration":0.234375},{"name":"G5","midi":79,"time":33.046875,"velocity":0.7874015748031497,"duration":0.234375},{"name":"F#5","midi":78,"time":33.28125,"velocity":0.7874015748031497,"duration":0.234375},{"name":"E5","midi":76,"time":33.515625,"velocity":0.7874015748031497,"duration":0.234375},{"name":"B4","midi":71,"time":33.75,"velocity":0.7874015748031497,"duration":0.234375},{"name":"E5","midi":76,"time":33.75,"velocity":0.7874015748031497,"duration":0.234375},{"name":"D5","midi":74,"time":34.21875,"velocity":0.7874015748031497,"duration":0.234375},{"name":"D5","midi":74,"time":34.453125,"velocity":0.7874015748031497,"duration":0.234375},{"name":"D5","midi":74,"time":34.921875,"velocity":0.7874015748031497,"duration":0.234375},{"name":"D5","midi":74,"time":35.15625,"velocity":0.7874015748031497,"duration":0.46875},{"name":"D5","midi":74,"time":36.328125,"velocity":0.7874015748031497,"duration":0.234375},{"name":"E5","midi":76,"time":36.5625,"velocity":0.7874015748031497,"duration":0.46875},{"name":"D5","midi":74,"time":37.03125,"velocity":0.7874015748031497,"duration":1.7578125},{"name":"D5","midi":74,"time":40.078125,"velocity":0.7874015748031497,"duration":0.234375},{"name":"E5","midi":76,"time":40.3125,"velocity":0.7874015748031497,"duration":0.46875},{"name":"C#5","midi":73,"time":40.78125,"velocity":0.7874015748031497,"duration":1.40625},{"name":"D5","midi":74,"time":42.1875,"velocity":0.7874015748031497,"duration":0.703125},{"name":"E5","midi":76,"time":42.890625,"velocity":0.7874015748031497,"duration":0.9375},{"name":"D5","midi":74,"time":43.828125,"velocity":0.7874015748031497,"duration":0.234375},{"name":"E5","midi":76,"time":44.0625,"velocity":0.5905511811023622,"duration":0.234375},{"name":"B4","midi":71,"time":44.0625,"velocity":0.5905511811023622,"duration":0.234375},{"name":"G5","midi":79,"time":44.0625,"velocity":0.7874015748031497,"duration":0.234375},{"name":"B4","midi":71,"time":44.296875,"velocity":0.6456692913385826,"duration":0.234375},{"name":"E5","midi":76,"time":44.296875,"velocity":0.6456692913385826,"duration":0.234375},{"name":"G5","midi":79,"time":44.296875,"velocity":0.7874015748031497,"duration":0.234375},{"name":"B4","midi":71,"time":44.53125,"velocity":0.6456692913385826,"duration":0.234375},{"name":"E5","midi":76,"time":44.53125,"velocity":0.6456692913385826,"duration":0.234375},{"name":"G5","midi":79,"time":44.53125,"velocity":0.7874015748031497,"duration":0.234375},{"name":"B4","midi":71,"time":44.765625,"velocity":0.6299212598425197,"duration":0.234375},{"name":"D5","midi":74,"time":44.765625,"velocity":0.6299212598425197,"duration":0.234375},{"name":"F#5","midi":78,"time":44.765625,"velocity":0.7874015748031497,"duration":0.703125},{"name":"G5","midi":79,"time":45.9375,"velocity":0.7874015748031497,"duration":0.234375},{"name":"G5","midi":79,"time":46.171875,"velocity":0.7874015748031497,"duration":0.234375},{"name":"G5","midi":79,"time":46.40625,"velocity":0.7874015748031497,"duration":0.234375},{"name":"F#5","midi":78,"time":46.640625,"velocity":0.7874015748031497,"duration":0.9375},{"name":"G5","midi":79,"time":47.8125,"velocity":0.7874015748031497,"duration":0.234375},{"name":"G5","midi":79,"time":48.046875,"velocity":0.7874015748031497,"duration":0.234375},{"name":"G5","midi":79,"time":48.28125,"velocity":0.7874015748031497,"duration":0.234375},{"name":"F#5","midi":78,"time":48.515625,"velocity":0.7874015748031497,"duration":0.46875},{"name":"F#5","midi":78,"time":48.984375,"velocity":0.7874015748031497,"duration":0.234375},{"name":"G5","midi":79,"time":49.21875,"velocity":0.7874015748031497,"duration":0.234375},{"name":"F#5","midi":78,"time":49.453125,"velocity":0.7874015748031497,"duration":0.46875},{"name":"E5","midi":76,"time":49.921875,"velocity":0.7874015748031497,"duration":0.234375},{"name":"D5","midi":74,"time":50.15625,"velocity":0.7874015748031497,"duration":0.234375},{"name":"D5","midi":74,"time":50.390625,"velocity":0.7874015748031497,"duration":0.46875},{"name":"D5","midi":74,"time":51.09375,"velocity":0.7874015748031497,"duration":0.234375},{"name":"D5","midi":74,"time":51.5625,"velocity":0.7874015748031497,"duration":0.234375},{"name":"E5","midi":76,"time":51.796875,"velocity":0.7874015748031497,"duration":0.234375},{"name":"D5","midi":74,"time":52.03125,"velocity":0.7874015748031497,"duration":0.234375},{"name":"A5","midi":81,"time":52.265625,"velocity":0.7874015748031497,"duration":0.9375},{"name":"F#5","midi":78,"time":53.203125,"velocity":0.7874015748031497,"duration":1.5234375},{"name":"D5","midi":74,"time":55.078125,"velocity":0.7874015748031497,"duration":0.234375},{"name":"D5","midi":74,"time":55.3125,"velocity":0.7874015748031497,"duration":0.234375},{"name":"E5","midi":76,"time":55.546875,"velocity":0.7874015748031497,"duration":0.234375},{"name":"D5","midi":74,"time":55.78125,"velocity":0.7874015748031497,"duration":0.234375},{"name":"A5","midi":81,"time":56.015625,"velocity":0.7874015748031497,"duration":1.171875},{"name":"F#5","midi":78,"time":57.1875,"velocity":0.7874015748031497,"duration":0.703125},{"name":"E5","midi":76,"time":57.890625,"velocity":0.7874015748031497,"duration":0.8203125},{"name":"G5","midi":79,"time":59.0625,"velocity":0.7874015748031497,"duration":0.234375},{"name":"G5","midi":79,"time":59.296875,"velocity":0.7874015748031497,"duration":0.234375},{"name":"G5","midi":79,"time":59.53125,"velocity":0.7874015748031497,"duration":0.234375},{"name":"F#5","midi":78,"time":59.765625,"velocity":0.7874015748031497,"duration":0.234375},{"name":"G5","midi":79,"time":60.9375,"velocity":0.7874015748031497,"duration":0.234375},{"name":"G5","midi":79,"time":61.171875,"velocity":0.7874015748031497,"duration":0.234375},{"name":"G5","midi":79,"time":61.40625,"velocity":0.7874015748031497,"duration":0.234375},{"name":"F#5","midi":78,"time":61.640625,"velocity":0.7874015748031497,"duration":0.234375},{"name":"G5","midi":79,"time":62.8125,"velocity":0.7874015748031497,"duration":0.234375},{"name":"G5","midi":79,"time":63.046875,"velocity":0.7874015748031497,"duration":0.234375},{"name":"G5","midi":79,"time":63.28125,"velocity":0.7874015748031497,"duration":0.234375},{"name":"F#5","midi":78,"time":63.515625,"velocity":0.7874015748031497,"duration":0.46875},{"name":"F#5","midi":78,"time":63.984375,"velocity":0.7874015748031497,"duration":0.234375},{"name":"F#5","midi":78,"time":64.21875,"velocity":0.7874015748031497,"duration":0.234375},{"name":"F#5","midi":78,"time":64.453125,"velocity":0.7874015748031497,"duration":0.234375},{"name":"F#5","midi":78,"time":64.6875,"velocity":0.7874015748031497,"duration":0.234375},{"name":"E5","midi":76,"time":64.921875,"velocity":0.7874015748031497,"duration":0.234375},{"name":"D5","midi":74,"time":65.15625,"velocity":0.7874015748031497,"duration":0.234375},{"name":"D5","midi":74,"time":65.390625,"velocity":0.7874015748031497,"duration":0.46875},{"name":"D5","midi":74,"time":65.859375,"velocity":0.7874015748031497,"duration":0.234375},{"name":"D5","midi":74,"time":66.09375,"velocity":0.7874015748031497,"duration":0.234375},{"name":"E5","midi":76,"time":66.328125,"velocity":0.7874015748031497,"duration":0.234375},{"name":"D5","midi":74,"time":66.5625,"velocity":0.7874015748031497,"duration":0.234375},{"name":"E5","midi":76,"time":66.796875,"velocity":0.7874015748031497,"duration":0.234375},{"name":"D5","midi":74,"time":67.03125,"velocity":0.7874015748031497,"duration":0.234375},{"name":"A5","midi":81,"time":67.265625,"velocity":0.7874015748031497,"duration":0.9375},{"name":"F#5","midi":78,"time":68.203125,"velocity":0.7874015748031497,"duration":1.5234375},{"name":"D5","midi":74,"time":70.078125,"velocity":0.7874015748031497,"duration":0.234375},{"name":"D5","midi":74,"time":70.3125,"velocity":0.7874015748031497,"duration":0.234375},{"name":"E5","midi":76,"time":70.546875,"velocity":0.7874015748031497,"duration":0.234375},{"name":"D5","midi":74,"time":70.78125,"velocity":0.7874015748031497,"duration":0.234375},{"name":"A5","midi":81,"time":71.015625,"velocity":0.7874015748031497,"duration":1.171875},{"name":"F#5","midi":78,"time":72.1875,"velocity":0.7874015748031497,"duration":0.703125},{"name":"E5","midi":76,"time":72.890625,"velocity":0.7874015748031497,"duration":0.8203125},{"name":"B4","midi":71,"time":76.171875,"velocity":0.7874015748031497,"duration":0.234375},{"name":"D5","midi":74,"time":76.40625,"velocity":0.7874015748031497,"duration":0.234375},{"name":"B4","midi":71,"time":76.640625,"velocity":0.7874015748031497,"duration":0.234375},{"name":"B4","midi":71,"time":76.875,"velocity":0.7874015748031497,"duration":0.46875},{"name":"D5","midi":74,"time":76.875,"velocity":0.7874015748031497,"duration":0.46875},{"name":"B4","midi":71,"time":77.34375,"velocity":0.7874015748031497,"duration":0.234375},{"name":"F#5","midi":78,"time":77.578125,"velocity":0.7874015748031497,"duration":1.171875},{"name":"D5","midi":74,"time":77.578125,"velocity":0.7874015748031497,"duration":1.171875},{"name":"B4","midi":71,"time":77.578125,"velocity":0.7874015748031497,"duration":1.171875},{"name":"B4","midi":71,"time":79.921875,"velocity":0.7874015748031497,"duration":0.234375},{"name":"D5","midi":74,"time":80.15625,"velocity":0.7874015748031497,"duration":0.234375},{"name":"B4","midi":71,"time":80.390625,"velocity":0.7874015748031497,"duration":0.234375},{"name":"D5","midi":74,"time":80.625,"velocity":0.7874015748031497,"duration":0.234375},{"name":"D5","midi":74,"time":80.859375,"velocity":0.7874015748031497,"duration":0.234375},{"name":"B4","midi":71,"time":81.09375,"velocity":0.7874015748031497,"duration":0.234375},{"name":"F#5","midi":78,"time":81.328125,"velocity":0.7874015748031497,"duration":0.8203125},{"name":"D5","midi":74,"time":81.328125,"velocity":0.7874015748031497,"duration":0.8203125},{"name":"B4","midi":71,"time":81.328125,"velocity":0.7874015748031497,"duration":0.8203125},{"name":"E5","midi":76,"time":82.265625,"velocity":0.7874015748031497,"duration":0.46875},{"name":"F#5","midi":78,"time":82.734375,"velocity":0.7874015748031497,"duration":0.234375},{"name":"D5","midi":74,"time":82.734375,"velocity":0.7874015748031497,"duration":0.234375},{"name":"F#5","midi":78,"time":82.96875,"velocity":0.7874015748031497,"duration":0.234375},{"name":"D5","midi":74,"time":82.96875,"velocity":0.7874015748031497,"duration":0.234375},{"name":"F#5","midi":78,"time":83.203125,"velocity":0.7874015748031497,"duration":0.234375},{"name":"D5","midi":74,"time":83.203125,"velocity":0.7874015748031497,"duration":0.234375},{"name":"D5","midi":74,"time":83.4375,"velocity":0.7874015748031497,"duration":0.234375},{"name":"F#5","midi":78,"time":83.4375,"velocity":0.7874015748031497,"duration":0.234375},{"name":"E5","midi":76,"time":84.140625,"velocity":0.7874015748031497,"duration":0.46875},{"name":"F#5","midi":78,"time":84.609375,"velocity":0.7874015748031497,"duration":0.234375},{"name":"D5","midi":74,"time":84.609375,"velocity":0.7874015748031497,"duration":0.234375},{"name":"F#5","midi":78,"time":84.84375,"velocity":0.7874015748031497,"duration":0.234375},{"name":"D5","midi":74,"time":84.84375,"velocity":0.7874015748031497,"duration":0.234375},{"name":"F#5","midi":78,"time":85.078125,"velocity":0.7874015748031497,"duration":0.234375},{"name":"D5","midi":74,"time":85.078125,"velocity":0.7874015748031497,"duration":0.234375},{"name":"F#5","midi":78,"time":85.3125,"velocity":0.7874015748031497,"duration":0.234375},{"name":"D5","midi":74,"time":85.3125,"velocity":0.7874015748031497,"duration":0.234375},{"name":"E5","midi":76,"time":85.546875,"velocity":0.7874015748031497,"duration":0.234375},{"name":"D5","midi":74,"time":85.78125,"velocity":0.7874015748031497,"duration":0.234375},{"name":"E5","midi":76,"time":86.015625,"velocity":0.7874015748031497,"duration":1.875},{"name":"F#5","midi":78,"time":89.0625,"velocity":0.7874015748031497,"duration":0.234375},{"name":"G5","midi":79,"time":89.296875,"velocity":0.7874015748031497,"duration":0.234375},{"name":"F#5","midi":78,"time":89.53125,"velocity":0.7874015748031497,"duration":0.234375},{"name":"E5","midi":76,"time":89.765625,"velocity":0.7874015748031497,"duration":0.234375},{"name":"B4","midi":71,"time":90,"velocity":0.7874015748031497,"duration":0.234375},{"name":"E5","midi":76,"time":90,"velocity":0.7874015748031497,"duration":0.234375},{"name":"D5","midi":74,"time":90.234375,"velocity":0.7874015748031497,"duration":0.234375},{"name":"D5","midi":74,"time":90.703125,"velocity":0.7874015748031497,"duration":0.234375},{"name":"D5","midi":74,"time":90.9375,"velocity":0.7874015748031497,"duration":0.234375},{"name":"D5","midi":74,"time":91.171875,"velocity":0.7874015748031497,"duration":0.234375},{"name":"D5","midi":74,"time":91.40625,"velocity":0.7874015748031497,"duration":0.46875},{"name":"F#5","midi":78,"time":92.8125,"velocity":0.7874015748031497,"duration":0.234375},{"name":"G5","midi":79,"time":93.046875,"velocity":0.7874015748031497,"duration":0.234375},{"name":"F#5","midi":78,"time":93.28125,"velocity":0.7874015748031497,"duration":0.234375},{"name":"E5","midi":76,"time":93.515625,"velocity":0.7874015748031497,"duration":0.234375},{"name":"B4","midi":71,"time":93.75,"velocity":0.7874015748031497,"duration":0.234375},{"name":"E5","midi":76,"time":93.75,"velocity":0.7874015748031497,"duration":0.234375},{"name":"D5","midi":74,"time":94.21875,"velocity":0.7874015748031497,"duration":0.234375},{"name":"D5","midi":74,"time":94.453125,"velocity":0.7874015748031497,"duration":0.234375},{"name":"D5","midi":74,"time":94.921875,"velocity":0.7874015748031497,"duration":0.234375},{"name":"D5","midi":74,"time":95.15625,"velocity":0.7874015748031497,"duration":0.46875},{"name":"D5","midi":74,"time":96.328125,"velocity":0.7874015748031497,"duration":0.234375},{"name":"E5","midi":76,"time":96.5625,"velocity":0.7874015748031497,"duration":0.46875},{"name":"D5","midi":74,"time":97.03125,"velocity":0.7874015748031497,"duration":1.7578125},{"name":"D5","midi":74,"time":100.078125,"velocity":0.7874015748031497,"duration":0.234375},{"name":"E5","midi":76,"time":100.3125,"velocity":0.7874015748031497,"duration":0.46875},{"name":"C#5","midi":73,"time":100.78125,"velocity":0.7874015748031497,"duration":1.40625},{"name":"D5","midi":74,"time":102.1875,"velocity":0.7874015748031497,"duration":0.703125},{"name":"E5","midi":76,"time":102.890625,"velocity":0.7874015748031497,"duration":0.9375},{"name":"D5","midi":74,"time":103.828125,"velocity":0.7874015748031497,"duration":0.234375},{"name":"D5","midi":74,"time":103.828125,"velocity":0.7874015748031497,"duration":0.234375},{"name":"G5","midi":79,"time":104.0625,"velocity":0.7874015748031497,"duration":0.234375},{"name":"B4","midi":71,"time":104.0625,"velocity":0.5905511811023622,"duration":0.234375},{"name":"E5","midi":76,"time":104.0625,"velocity":0.5905511811023622,"duration":0.234375},{"name":"G5","midi":79,"time":104.296875,"velocity":0.7874015748031497,"duration":0.234375},{"name":"E5","midi":76,"time":104.296875,"velocity":0.6456692913385826,"duration":0.234375},{"name":"B4","midi":71,"time":104.296875,"velocity":0.6456692913385826,"duration":0.234375},{"name":"G5","midi":79,"time":104.53125,"velocity":0.7874015748031497,"duration":0.234375},{"name":"E5","midi":76,"time":104.53125,"velocity":0.6456692913385826,"duration":0.234375},{"name":"B4","midi":71,"time":104.53125,"velocity":0.6456692913385826,"duration":0.234375},{"name":"F#5","midi":78,"time":104.765625,"velocity":0.7874015748031497,"duration":0.703125},{"name":"D5","midi":74,"time":104.765625,"velocity":0.6299212598425197,"duration":0.234375},{"name":"B4","midi":71,"time":104.765625,"velocity":0.6299212598425197,"duration":0.234375},{"name":"G5","midi":79,"time":105.9375,"velocity":0.7874015748031497,"duration":0.234375},{"name":"G5","midi":79,"time":106.171875,"velocity":0.7874015748031497,"duration":0.234375},{"name":"G5","midi":79,"time":106.40625,"velocity":0.7874015748031497,"duration":0.234375},{"name":"F#5","midi":78,"time":106.640625,"velocity":0.7874015748031497,"duration":0.9375},{"name":"G5","midi":79,"time":107.8125,"velocity":0.7874015748031497,"duration":0.234375},{"name":"G5","midi":79,"time":108.046875,"velocity":0.7874015748031497,"duration":0.234375},{"name":"G5","midi":79,"time":108.28125,"velocity":0.7874015748031497,"duration":0.234375},{"name":"F#5","midi":78,"time":108.515625,"velocity":0.7874015748031497,"duration":0.46875},{"name":"F#5","midi":78,"time":108.984375,"velocity":0.7874015748031497,"duration":0.234375},{"name":"G5","midi":79,"time":109.21875,"velocity":0.7874015748031497,"duration":0.234375},{"name":"F#5","midi":78,"time":109.453125,"velocity":0.7874015748031497,"duration":0.46875},{"name":"E5","midi":76,"time":109.921875,"velocity":0.7874015748031497,"duration":0.234375},{"name":"D5","midi":74,"time":110.15625,"velocity":0.7874015748031497,"duration":0.234375},{"name":"D5","midi":74,"time":110.390625,"velocity":0.7874015748031497,"duration":0.46875},{"name":"D5","midi":74,"time":111.09375,"velocity":0.7874015748031497,"duration":0.234375},{"name":"D5","midi":74,"time":111.5625,"velocity":0.7874015748031497,"duration":0.234375},{"name":"E5","midi":76,"time":111.796875,"velocity":0.7874015748031497,"duration":0.234375},{"name":"D5","midi":74,"time":112.03125,"velocity":0.7874015748031497,"duration":0.234375},{"name":"A5","midi":81,"time":112.265625,"velocity":0.7874015748031497,"duration":0.9375},{"name":"F#5","midi":78,"time":113.203125,"velocity":0.7874015748031497,"duration":1.5234375},{"name":"D5","midi":74,"time":115.078125,"velocity":0.7874015748031497,"duration":0.234375},{"name":"D5","midi":74,"time":115.3125,"velocity":0.7874015748031497,"duration":0.234375},{"name":"E5","midi":76,"time":115.546875,"velocity":0.7874015748031497,"duration":0.234375},{"name":"D5","midi":74,"time":115.78125,"velocity":0.7874015748031497,"duration":0.234375},{"name":"A5","midi":81,"time":116.015625,"velocity":0.7874015748031497,"duration":1.171875},{"name":"F#5","midi":78,"time":117.1875,"velocity":0.7874015748031497,"duration":0.703125},{"name":"E5","midi":76,"time":117.890625,"velocity":0.7874015748031497,"duration":0.8203125},{"name":"G5","midi":79,"time":119.0625,"velocity":0.7874015748031497,"duration":0.234375},{"name":"G5","midi":79,"time":119.296875,"velocity":0.7874015748031497,"duration":0.234375},{"name":"G5","midi":79,"time":119.53125,"velocity":0.7874015748031497,"duration":0.234375},{"name":"F#5","midi":78,"time":119.765625,"velocity":0.7874015748031497,"duration":0.234375},{"name":"G5","midi":79,"time":120.9375,"velocity":0.7874015748031497,"duration":0.234375},{"name":"G5","midi":79,"time":121.171875,"velocity":0.7874015748031497,"duration":0.234375},{"name":"G5","midi":79,"time":121.40625,"velocity":0.7874015748031497,"duration":0.234375},{"name":"F#5","midi":78,"time":121.640625,"velocity":0.7874015748031497,"duration":0.234375},{"name":"G5","midi":79,"time":122.8125,"velocity":0.7874015748031497,"duration":0.234375},{"name":"G5","midi":79,"time":123.046875,"velocity":0.7874015748031497,"duration":0.234375},{"name":"G5","midi":79,"time":123.28125,"velocity":0.7874015748031497,"duration":0.234375},{"name":"F#5","midi":78,"time":123.515625,"velocity":0.7874015748031497,"duration":0.46875},{"name":"F#5","midi":78,"time":123.984375,"velocity":0.7874015748031497,"duration":0.234375},{"name":"F#5","midi":78,"time":124.21875,"velocity":0.7874015748031497,"duration":0.234375},{"name":"F#5","midi":78,"time":124.453125,"velocity":0.7874015748031497,"duration":0.234375},{"name":"F#5","midi":78,"time":124.6875,"velocity":0.7874015748031497,"duration":0.234375},{"name":"E5","midi":76,"time":124.921875,"velocity":0.7874015748031497,"duration":0.234375},{"name":"D5","midi":74,"time":125.15625,"velocity":0.7874015748031497,"duration":0.234375},{"name":"D5","midi":74,"time":125.390625,"velocity":0.7874015748031497,"duration":0.46875},{"name":"D5","midi":74,"time":125.859375,"velocity":0.7874015748031497,"duration":0.234375},{"name":"D5","midi":74,"time":126.09375,"velocity":0.7874015748031497,"duration":0.234375},{"name":"E5","midi":76,"time":126.328125,"velocity":0.7874015748031497,"duration":0.234375},{"name":"D5","midi":74,"time":126.5625,"velocity":0.7874015748031497,"duration":0.234375},{"name":"E5","midi":76,"time":126.796875,"velocity":0.7874015748031497,"duration":0.234375},{"name":"D5","midi":74,"time":127.03125,"velocity":0.7874015748031497,"duration":0.234375},{"name":"A5","midi":81,"time":127.265625,"velocity":0.7874015748031497,"duration":0.9375},{"name":"F#5","midi":78,"time":128.203125,"velocity":0.7874015748031497,"duration":1.5234375},{"name":"D5","midi":74,"time":130.078125,"velocity":0.7874015748031497,"duration":0.234375},{"name":"D5","midi":74,"time":130.3125,"velocity":0.7874015748031497,"duration":0.234375},{"name":"E5","midi":76,"time":130.546875,"velocity":0.7874015748031497,"duration":0.234375},{"name":"D5","midi":74,"time":130.78125,"velocity":0.7874015748031497,"duration":0.234375},{"name":"A5","midi":81,"time":131.015625,"velocity":0.7874015748031497,"duration":1.171875},{"name":"F#5","midi":78,"time":132.1875,"velocity":0.7874015748031497,"duration":0.703125},{"name":"E5","midi":76,"time":132.890625,"velocity":0.7874015748031497,"duration":0.8203125}]},{"instrument_number":0,"notes":[{"name":"B3","midi":59,"time":0,"velocity":0.7007874015748031,"duration":0.693359375},{"name":"B2","midi":47,"time":0,"velocity":0.7007874015748031,"duration":1.865234375},{"name":"B3","midi":59,"time":0.703125,"velocity":0.7007874015748031,"duration":0.693359375},{"name":"B3","midi":59,"time":1.40625,"velocity":0.7007874015748031,"duration":0.458984375},{"name":"B2","midi":47,"time":1.875,"velocity":0.7007874015748031,"duration":1.865234375},{"name":"B3","midi":59,"time":1.875,"velocity":0.7007874015748031,"duration":0.693359375},{"name":"B3","midi":59,"time":2.578125,"velocity":0.7007874015748031,"duration":0.693359375},{"name":"B3","midi":59,"time":3.28125,"velocity":0.7007874015748031,"duration":0.458984375},{"name":"G3","midi":55,"time":3.75,"velocity":0.7007874015748031,"duration":0.693359375},{"name":"G2","midi":43,"time":3.75,"velocity":0.7007874015748031,"duration":1.865234375},{"name":"G3","midi":55,"time":4.453125,"velocity":0.7007874015748031,"duration":0.693359375},{"name":"G3","midi":55,"time":5.15625,"velocity":0.7007874015748031,"duration":0.458984375},{"name":"G2","midi":43,"time":5.625,"velocity":0.7007874015748031,"duration":1.865234375},{"name":"G3","midi":55,"time":5.625,"velocity":0.7007874015748031,"duration":0.693359375},{"name":"G3","midi":55,"time":6.328125,"velocity":0.7007874015748031,"duration":0.693359375},{"name":"G3","midi":55,"time":7.03125,"velocity":0.7007874015748031,"duration":0.458984375},{"name":"D3","midi":50,"time":7.5,"velocity":0.7007874015748031,"duration":1.865234375},{"name":"D4","midi":62,"time":7.5,"velocity":0.7007874015748031,"duration":0.693359375},{"name":"D4","midi":62,"time":8.203125,"velocity":0.7007874015748031,"duration":0.693359375},{"name":"D4","midi":62,"time":8.90625,"velocity":0.7007874015748031,"duration":0.458984375},{"name":"D3","midi":50,"time":9.375,"velocity":0.7007874015748031,"duration":1.865234375},{"name":"D4","midi":62,"time":9.375,"velocity":0.7007874015748031,"duration":0.693359375},{"name":"D4","midi":62,"time":10.078125,"velocity":0.7007874015748031,"duration":0.693359375},{"name":"D4","midi":62,"time":10.78125,"velocity":0.7007874015748031,"duration":0.458984375},{"name":"A2","midi":45,"time":11.25,"velocity":0.7007874015748031,"duration":1.865234375},{"name":"A3","midi":57,"time":11.25,"velocity":0.7007874015748031,"duration":0.693359375},{"name":"A3","midi":57,"time":11.953125,"velocity":0.7007874015748031,"duration":0.693359375},{"name":"A3","midi":57,"time":12.65625,"velocity":0.7007874015748031,"duration":0.458984375},{"name":"A2","midi":45,"time":13.125,"velocity":0.7007874015748031,"duration":1.865234375},{"name":"A3","midi":57,"time":13.125,"velocity":0.7007874015748031,"duration":0.693359375},{"name":"A3","midi":57,"time":13.828125,"velocity":0.7007874015748031,"duration":0.693359375},{"name":"A3","midi":57,"time":14.53125,"velocity":0.7007874015748031,"duration":0.458984375},{"name":"B3","midi":59,"time":15,"velocity":0.7007874015748031,"duration":0.693359375},{"name":"B2","midi":47,"time":15,"velocity":0.7007874015748031,"duration":1.865234375},{"name":"B3","midi":59,"time":15.703125,"velocity":0.7007874015748031,"duration":0.693359375},{"name":"B3","midi":59,"time":16.40625,"velocity":0.7007874015748031,"duration":0.458984375},{"name":"B3","midi":59,"time":16.875,"velocity":0.7007874015748031,"duration":0.693359375},{"name":"B2","midi":47,"time":16.875,"velocity":0.7007874015748031,"duration":1.865234375},{"name":"B3","midi":59,"time":17.578125,"velocity":0.7007874015748031,"duration":0.693359375},{"name":"B3","midi":59,"time":18.28125,"velocity":0.7007874015748031,"duration":0.458984375},{"name":"G2","midi":43,"time":18.75,"velocity":0.7007874015748031,"duration":1.865234375},{"name":"G3","midi":55,"time":18.75,"velocity":0.7007874015748031,"duration":0.693359375},{"name":"G3","midi":55,"time":19.453125,"velocity":0.7007874015748031,"duration":0.693359375},{"name":"G3","midi":55,"time":20.15625,"velocity":0.7007874015748031,"duration":0.458984375},{"name":"G2","midi":43,"time":20.625,"velocity":0.7007874015748031,"duration":1.865234375},{"name":"G3","midi":55,"time":20.625,"velocity":0.7007874015748031,"duration":0.693359375},{"name":"G3","midi":55,"time":21.328125,"velocity":0.7007874015748031,"duration":0.693359375},{"name":"G3","midi":55,"time":22.03125,"velocity":0.7007874015748031,"duration":0.458984375},{"name":"D4","midi":62,"time":22.5,"velocity":0.7007874015748031,"duration":0.693359375},{"name":"D3","midi":50,"time":22.5,"velocity":0.7007874015748031,"duration":1.865234375},{"name":"D4","midi":62,"time":23.203125,"velocity":0.7007874015748031,"duration":0.693359375},{"name":"D4","midi":62,"time":23.90625,"velocity":0.7007874015748031,"duration":0.458984375},{"name":"D4","midi":62,"time":24.375,"velocity":0.7007874015748031,"duration":0.693359375},{"name":"D3","midi":50,"time":24.375,"velocity":0.7007874015748031,"duration":1.865234375},{"name":"D4","midi":62,"time":25.078125,"velocity":0.7007874015748031,"duration":0.693359375},{"name":"D4","midi":62,"time":25.78125,"velocity":0.7007874015748031,"duration":0.458984375},{"name":"A2","midi":45,"time":26.25,"velocity":0.7007874015748031,"duration":1.865234375},{"name":"A3","midi":57,"time":26.25,"velocity":0.7007874015748031,"duration":0.693359375},{"name":"A3","midi":57,"time":26.953125,"velocity":0.7007874015748031,"duration":0.693359375},{"name":"A3","midi":57,"time":27.65625,"velocity":0.7007874015748031,"duration":0.458984375},{"name":"A3","midi":57,"time":28.125,"velocity":0.7007874015748031,"duration":0.693359375},{"name":"A2","midi":45,"time":28.125,"velocity":0.7007874015748031,"duration":1.865234375},{"name":"A3","midi":57,"time":28.828125,"velocity":0.7007874015748031,"duration":0.693359375},{"name":"A3","midi":57,"time":29.53125,"velocity":0.7007874015748031,"duration":0.458984375},{"name":"B2","midi":47,"time":30,"velocity":0.7007874015748031,"duration":1.865234375},{"name":"F#3","midi":54,"time":30.234375,"velocity":0.7007874015748031,"duration":1.162109375},{"name":"B3","midi":59,"time":30.46875,"velocity":0.7007874015748031,"duration":1.162109375},{"name":"D4","midi":62,"time":30.703125,"velocity":0.7007874015748031,"duration":1.162109375},{"name":"B2","midi":47,"time":31.875,"velocity":0.7007874015748031,"duration":1.865234375},{"name":"F#3","midi":54,"time":32.109375,"velocity":0.7007874015748031,"duration":1.162109375},{"name":"B3","midi":59,"time":32.34375,"velocity":0.7007874015748031,"duration":1.162109375},{"name":"D4","midi":62,"time":32.578125,"velocity":0.7007874015748031,"duration":1.162109375},{"name":"G2","midi":43,"time":33.75,"velocity":0.7007874015748031,"duration":1.865234375},{"name":"D3","midi":50,"time":33.984375,"velocity":0.7007874015748031,"duration":1.162109375},{"name":"G3","midi":55,"time":34.21875,"velocity":0.7007874015748031,"duration":1.162109375},{"name":"B3","midi":59,"time":34.453125,"velocity":0.7007874015748031,"duration":1.162109375},{"name":"G2","midi":43,"time":35.625,"velocity":0.7007874015748031,"duration":1.865234375},{"name":"D3","midi":50,"time":35.859375,"velocity":0.7007874015748031,"duration":1.162109375},{"name":"G3","midi":55,"time":36.09375,"velocity":0.7007874015748031,"duration":1.162109375},{"name":"B3","midi":59,"time":36.09375,"velocity":0.7007874015748031,"duration":1.279296875},{"name":"D3","midi":50,"time":37.5,"velocity":0.7007874015748031,"duration":1.865234375},{"name":"A3","midi":57,"time":37.734375,"velocity":0.7007874015748031,"duration":1.162109375},{"name":"D4","midi":62,"time":37.96875,"velocity":0.7007874015748031,"duration":1.162109375},{"name":"F#4","midi":66,"time":38.203125,"velocity":0.7007874015748031,"duration":1.162109375},{"name":"D3","midi":50,"time":39.375,"velocity":0.7007874015748031,"duration":1.865234375},{"name":"A3","midi":57,"time":39.609375,"velocity":0.7007874015748031,"duration":1.162109375},{"name":"F#4","midi":66,"time":39.84375,"velocity":0.7007874015748031,"duration":1.279296875},{"name":"D4","midi":62,"time":39.84375,"velocity":0.7007874015748031,"duration":1.162109375},{"name":"A2","midi":45,"time":41.25,"velocity":0.7007874015748031,"duration":2.802734375},{"name":"E3","midi":52,"time":41.484375,"velocity":0.7007874015748031,"duration":2.568359375},{"name":"A3","midi":57,"time":41.71875,"velocity":0.7007874015748031,"duration":2.099609375},{"name":"C#4","midi":61,"time":41.953125,"velocity":0.7007874015748031,"duration":2.568359375},{"name":"B2","midi":47,"time":45,"velocity":0.7007874015748031,"duration":0.458984375},{"name":"F#3","midi":54,"time":45.234375,"velocity":0.7007874015748031,"duration":0.224609375},{"name":"B3","midi":59,"time":45.46875,"velocity":0.7007874015748031,"duration":0.224609375},{"name":"F#3","midi":54,"time":45.703125,"velocity":0.7007874015748031,"duration":0.224609375},{"name":"D4","midi":62,"time":45.9375,"velocity":0.7007874015748031,"duration":0.224609375},{"name":"F#3","midi":54,"time":46.171875,"velocity":0.7007874015748031,"duration":0.224609375},{"name":"B3","midi":59,"time":46.40625,"velocity":0.7007874015748031,"duration":0.224609375},{"name":"F#3","midi":54,"time":46.640625,"velocity":0.7007874015748031,"duration":0.224609375},{"name":"B2","midi":47,"time":46.875,"velocity":0.7007874015748031,"duration":0.458984375},{"name":"F#3","midi":54,"time":47.109375,"velocity":0.7007874015748031,"duration":0.224609375},{"name":"B3","midi":59,"time":47.34375,"velocity":0.7007874015748031,"duration":0.224609375},{"name":"F#3","midi":54,"time":47.578125,"velocity":0.7007874015748031,"duration":0.224609375},{"name":"D4","midi":62,"time":47.8125,"velocity":0.7007874015748031,"duration":0.224609375},{"name":"F#3","midi":54,"time":48.046875,"velocity":0.7007874015748031,"duration":0.224609375},{"name":"B3","midi":59,"time":48.28125,"velocity":0.7007874015748031,"duration":0.224609375},{"name":"F#3","midi":54,"time":48.515625,"velocity":0.7007874015748031,"duration":0.224609375},{"name":"G2","midi":43,"time":48.75,"velocity":0.7007874015748031,"duration":0.458984375},{"name":"D3","midi":50,"time":48.984375,"velocity":0.7007874015748031,"duration":0.224609375},{"name":"G3","midi":55,"time":49.21875,"velocity":0.7007874015748031,"duration":0.224609375},{"name":"D3","midi":50,"time":49.453125,"velocity":0.7007874015748031,"duration":0.224609375},{"name":"B3","midi":59,"time":49.6875,"velocity":0.7007874015748031,"duration":0.224609375},{"name":"D3","midi":50,"time":49.921875,"velocity":0.7007874015748031,"duration":0.224609375},{"name":"G3","midi":55,"time":50.15625,"velocity":0.7007874015748031,"duration":0.224609375},{"name":"D3","midi":50,"time":50.390625,"velocity":0.7007874015748031,"duration":0.224609375},{"name":"G2","midi":43,"time":50.625,"velocity":0.7007874015748031,"duration":0.458984375},{"name":"D3","midi":50,"time":50.859375,"velocity":0.7007874015748031,"duration":0.224609375},{"name":"G3","midi":55,"time":51.09375,"velocity":0.7007874015748031,"duration":0.224609375},{"name":"D3","midi":50,"time":51.328125,"velocity":0.7007874015748031,"duration":0.224609375},{"name":"B3","midi":59,"time":51.5625,"velocity":0.7007874015748031,"duration":0.224609375},{"name":"D3","midi":50,"time":51.796875,"velocity":0.7007874015748031,"duration":0.224609375},{"name":"G3","midi":55,"time":52.03125,"velocity":0.7007874015748031,"duration":0.224609375},{"name":"D3","midi":50,"time":52.265625,"velocity":0.7007874015748031,"duration":0.224609375},{"name":"D3","midi":50,"time":52.5,"velocity":0.7007874015748031,"duration":0.458984375},{"name":"A3","midi":57,"time":52.734375,"velocity":0.7007874015748031,"duration":0.224609375},{"name":"D4","midi":62,"time":52.96875,"velocity":0.7007874015748031,"duration":0.224609375},{"name":"A3","midi":57,"time":53.203125,"velocity":0.7007874015748031,"duration":0.224609375},{"name":"F#4","midi":66,"time":53.4375,"velocity":0.7007874015748031,"duration":0.224609375},{"name":"A3","midi":57,"time":53.671875,"velocity":0.7007874015748031,"duration":0.224609375},{"name":"D4","midi":62,"time":53.90625,"velocity":0.7007874015748031,"duration":0.224609375},{"name":"A3","midi":57,"time":54.140625,"velocity":0.7007874015748031,"duration":0.224609375},{"name":"D3","midi":50,"time":54.375,"velocity":0.7007874015748031,"duration":0.458984375},{"name":"A3","midi":57,"time":54.609375,"velocity":0.7007874015748031,"duration":0.224609375},{"name":"D4","midi":62,"time":54.84375,"velocity":0.7007874015748031,"duration":0.224609375},{"name":"A3","midi":57,"time":55.078125,"velocity":0.7007874015748031,"duration":0.224609375},{"name":"F#4","midi":66,"time":55.3125,"velocity":0.7007874015748031,"duration":0.224609375},{"name":"A3","midi":57,"time":55.546875,"velocity":0.7007874015748031,"duration":0.224609375},{"name":"D4","midi":62,"time":55.78125,"velocity":0.7007874015748031,"duration":0.224609375},{"name":"A3","midi":57,"time":56.015625,"velocity":0.7007874015748031,"duration":0.224609375},{"name":"A2","midi":45,"time":56.25,"velocity":0.7007874015748031,"duration":0.458984375},{"name":"E3","midi":52,"time":56.484375,"velocity":0.7007874015748031,"duration":0.224609375},{"name":"A3","midi":57,"time":56.71875,"velocity":0.7007874015748031,"duration":0.224609375},{"name":"E3","midi":52,"time":56.953125,"velocity":0.7007874015748031,"duration":0.224609375},{"name":"C#4","midi":61,"time":57.1875,"velocity":0.7007874015748031,"duration":0.224609375},{"name":"E3","midi":52,"time":57.421875,"velocity":0.7007874015748031,"duration":0.224609375},{"name":"A3","midi":57,"time":57.65625,"velocity":0.7007874015748031,"duration":0.224609375},{"name":"E3","midi":52,"time":57.890625,"velocity":0.7007874015748031,"duration":0.224609375},{"name":"A2","midi":45,"time":58.125,"velocity":0.7007874015748031,"duration":0.458984375},{"name":"E3","midi":52,"time":58.359375,"velocity":0.7007874015748031,"duration":0.224609375},{"name":"A3","midi":57,"time":58.59375,"velocity":0.7007874015748031,"duration":0.224609375},{"name":"E3","midi":52,"time":58.828125,"velocity":0.7007874015748031,"duration":0.224609375},{"name":"C#4","midi":61,"time":59.0625,"velocity":0.7007874015748031,"duration":0.224609375},{"name":"E3","midi":52,"time":59.296875,"velocity":0.7007874015748031,"duration":0.224609375},{"name":"A3","midi":57,"time":59.53125,"velocity":0.7007874015748031,"duration":0.224609375},{"name":"E3","midi":52,"time":59.765625,"velocity":0.7007874015748031,"duration":0.224609375},{"name":"B2","midi":47,"time":60,"velocity":0.7007874015748031,"duration":0.458984375},{"name":"F#3","midi":54,"time":60.234375,"velocity":0.7007874015748031,"duration":0.224609375},{"name":"B3","midi":59,"time":60.46875,"velocity":0.7007874015748031,"duration":0.224609375},{"name":"F#3","midi":54,"time":60.703125,"velocity":0.7007874015748031,"duration":0.224609375},{"name":"D4","midi":62,"time":60.9375,"velocity":0.7007874015748031,"duration":0.224609375},{"name":"F#3","midi":54,"time":61.171875,"velocity":0.7007874015748031,"duration":0.224609375},{"name":"B3","midi":59,"time":61.40625,"velocity":0.7007874015748031,"duration":0.224609375},{"name":"F#3","midi":54,"time":61.640625,"velocity":0.7007874015748031,"duration":0.224609375},{"name":"B2","midi":47,"time":61.875,"velocity":0.7007874015748031,"duration":0.458984375},{"name":"F#3","midi":54,"time":62.109375,"velocity":0.7007874015748031,"duration":0.224609375},{"name":"B3","midi":59,"time":62.34375,"velocity":0.7007874015748031,"duration":0.224609375},{"name":"F#3","midi":54,"time":62.578125,"velocity":0.7007874015748031,"duration":0.224609375},{"name":"D4","midi":62,"time":62.8125,"velocity":0.7007874015748031,"duration":0.224609375},{"name":"F#3","midi":54,"time":63.046875,"velocity":0.7007874015748031,"duration":0.224609375},{"name":"B3","midi":59,"time":63.28125,"velocity":0.7007874015748031,"duration":0.224609375},{"name":"F#3","midi":54,"time":63.515625,"velocity":0.7007874015748031,"duration":0.224609375},{"name":"G2","midi":43,"time":63.75,"velocity":0.7007874015748031,"duration":0.458984375},{"name":"D3","midi":50,"time":63.984375,"velocity":0.7007874015748031,"duration":0.224609375},{"name":"G3","midi":55,"time":64.21875,"velocity":0.7007874015748031,"duration":0.224609375},{"name":"D3","midi":50,"time":64.453125,"velocity":0.7007874015748031,"duration":0.224609375},{"name":"B3","midi":59,"time":64.6875,"velocity":0.7007874015748031,"duration":0.224609375},{"name":"D3","midi":50,"time":64.921875,"velocity":0.7007874015748031,"duration":0.224609375},{"name":"G3","midi":55,"time":65.15625,"velocity":0.7007874015748031,"duration":0.224609375},{"name":"D3","midi":50,"time":65.390625,"velocity":0.7007874015748031,"duration":0.224609375},{"name":"G2","midi":43,"time":65.625,"velocity":0.7007874015748031,"duration":0.458984375},{"name":"D3","midi":50,"time":65.859375,"velocity":0.7007874015748031,"duration":0.224609375},{"name":"G3","midi":55,"time":66.09375,"velocity":0.7007874015748031,"duration":0.224609375},{"name":"D3","midi":50,"time":66.328125,"velocity":0.7007874015748031,"duration":0.224609375},{"name":"B3","midi":59,"time":66.5625,"velocity":0.7007874015748031,"duration":0.224609375},{"name":"D3","midi":50,"time":66.796875,"velocity":0.7007874015748031,"duration":0.224609375},{"name":"G3","midi":55,"time":67.03125,"velocity":0.7007874015748031,"duration":0.224609375},{"name":"D3","midi":50,"time":67.265625,"velocity":0.7007874015748031,"duration":0.224609375},{"name":"D3","midi":50,"time":67.5,"velocity":0.7007874015748031,"duration":0.458984375},{"name":"A3","midi":57,"time":67.734375,"velocity":0.7007874015748031,"duration":0.224609375},{"name":"D4","midi":62,"time":67.96875,"velocity":0.7007874015748031,"duration":0.224609375},{"name":"A3","midi":57,"time":68.203125,"velocity":0.7007874015748031,"duration":0.224609375},{"name":"F#4","midi":66,"time":68.4375,"velocity":0.7007874015748031,"duration":0.224609375},{"name":"A3","midi":57,"time":68.671875,"velocity":0.7007874015748031,"duration":0.224609375},{"name":"D4","midi":62,"time":68.90625,"velocity":0.7007874015748031,"duration":0.224609375},{"name":"A3","midi":57,"time":69.140625,"velocity":0.7007874015748031,"duration":0.224609375},{"name":"D3","midi":50,"time":69.375,"velocity":0.7007874015748031,"duration":0.458984375},{"name":"A3","midi":57,"time":69.609375,"velocity":0.7007874015748031,"duration":0.224609375},{"name":"D4","midi":62,"time":69.84375,"velocity":0.7007874015748031,"duration":0.224609375},{"name":"A3","midi":57,"time":70.078125,"velocity":0.7007874015748031,"duration":0.224609375},{"name":"F#4","midi":66,"time":70.3125,"velocity":0.7007874015748031,"duration":0.224609375},{"name":"A3","midi":57,"time":70.546875,"velocity":0.7007874015748031,"duration":0.224609375},{"name":"D4","midi":62,"time":70.78125,"velocity":0.7007874015748031,"duration":0.224609375},{"name":"A3","midi":57,"time":71.015625,"velocity":0.7007874015748031,"duration":0.224609375},{"name":"A2","midi":45,"time":71.25,"velocity":0.7007874015748031,"duration":0.458984375},{"name":"E3","midi":52,"time":71.484375,"velocity":0.7007874015748031,"duration":0.224609375},{"name":"A3","midi":57,"time":71.71875,"velocity":0.7007874015748031,"duration":0.224609375},{"name":"E3","midi":52,"time":71.953125,"velocity":0.7007874015748031,"duration":0.224609375},{"name":"C#4","midi":61,"time":72.1875,"velocity":0.7007874015748031,"duration":0.224609375},{"name":"E3","midi":52,"time":72.421875,"velocity":0.7007874015748031,"duration":0.224609375},{"name":"A3","midi":57,"time":72.65625,"velocity":0.7007874015748031,"duration":0.224609375},{"name":"E3","midi":52,"time":72.890625,"velocity":0.7007874015748031,"duration":0.224609375},{"name":"A2","midi":45,"time":73.125,"velocity":0.7007874015748031,"duration":0.458984375},{"name":"E3","midi":52,"time":73.359375,"velocity":0.7007874015748031,"duration":0.224609375},{"name":"A3","midi":57,"time":73.59375,"velocity":0.7007874015748031,"duration":0.224609375},{"name":"E3","midi":52,"time":73.828125,"velocity":0.7007874015748031,"duration":0.224609375},{"name":"C#4","midi":61,"time":74.0625,"velocity":0.7007874015748031,"duration":0.224609375},{"name":"E3","midi":52,"time":74.296875,"velocity":0.7007874015748031,"duration":0.224609375},{"name":"A3","midi":57,"time":74.53125,"velocity":0.7007874015748031,"duration":0.224609375},{"name":"E3","midi":52,"time":74.765625,"velocity":0.7007874015748031,"duration":0.224609375},{"name":"B2","midi":47,"time":75,"velocity":0.7007874015748031,"duration":1.865234375},{"name":"B3","midi":59,"time":75,"velocity":0.7007874015748031,"duration":0.693359375},{"name":"B3","midi":59,"time":75.703125,"velocity":0.7007874015748031,"duration":0.693359375},{"name":"B3","midi":59,"time":76.40625,"velocity":0.7007874015748031,"duration":0.458984375},{"name":"B3","midi":59,"time":76.875,"velocity":0.7007874015748031,"duration":0.693359375},{"name":"B2","midi":47,"time":76.875,"velocity":0.7007874015748031,"duration":1.865234375},{"name":"B3","midi":59,"time":77.578125,"velocity":0.7007874015748031,"duration":0.693359375},{"name":"B3","midi":59,"time":78.28125,"velocity":0.7007874015748031,"duration":0.458984375},{"name":"G3","midi":55,"time":78.75,"velocity":0.7007874015748031,"duration":0.693359375},{"name":"G2","midi":43,"time":78.75,"velocity":0.7007874015748031,"duration":1.865234375},{"name":"G3","midi":55,"time":79.453125,"velocity":0.7007874015748031,"duration":0.693359375},{"name":"G3","midi":55,"time":80.15625,"velocity":0.7007874015748031,"duration":0.458984375},{"name":"G2","midi":43,"time":80.625,"velocity":0.7007874015748031,"duration":1.865234375},{"name":"G3","midi":55,"time":80.625,"velocity":0.7007874015748031,"duration":0.693359375},{"name":"G3","midi":55,"time":81.328125,"velocity":0.7007874015748031,"duration":0.693359375},{"name":"G3","midi":55,"time":82.03125,"velocity":0.7007874015748031,"duration":0.458984375},{"name":"D3","midi":50,"time":82.5,"velocity":0.7007874015748031,"duration":1.865234375},{"name":"D4","midi":62,"time":82.5,"velocity":0.7007874015748031,"duration":0.693359375},{"name":"D4","midi":62,"time":83.203125,"velocity":0.7007874015748031,"duration":0.693359375},{"name":"D4","midi":62,"time":83.90625,"velocity":0.7007874015748031,"duration":0.458984375},{"name":"D4","midi":62,"time":84.375,"velocity":0.7007874015748031,"duration":0.693359375},{"name":"D3","midi":50,"time":84.375,"velocity":0.7007874015748031,"duration":1.865234375},{"name":"D4","midi":62,"time":85.078125,"velocity":0.7007874015748031,"duration":0.693359375},{"name":"D4","midi":62,"time":85.78125,"velocity":0.7007874015748031,"duration":0.458984375},{"name":"A2","midi":45,"time":86.25,"velocity":0.7007874015748031,"duration":1.865234375},{"name":"A3","midi":57,"time":86.25,"velocity":0.7007874015748031,"duration":0.693359375},{"name":"A3","midi":57,"time":86.953125,"velocity":0.7007874015748031,"duration":0.693359375},{"name":"A3","midi":57,"time":87.65625,"velocity":0.7007874015748031,"duration":0.458984375},{"name":"A2","midi":45,"time":88.125,"velocity":0.7007874015748031,"duration":1.865234375},{"name":"A3","midi":57,"time":88.125,"velocity":0.7007874015748031,"duration":0.693359375},{"name":"A3","midi":57,"time":88.828125,"velocity":0.7007874015748031,"duration":0.693359375},{"name":"A3","midi":57,"time":89.53125,"velocity":0.7007874015748031,"duration":0.458984375},{"name":"B2","midi":47,"time":90,"velocity":0.7007874015748031,"duration":1.865234375},{"name":"F#3","midi":54,"time":90.234375,"velocity":0.7007874015748031,"duration":1.162109375},{"name":"B3","midi":59,"time":90.46875,"velocity":0.7007874015748031,"duration":1.162109375},{"name":"D4","midi":62,"time":90.703125,"velocity":0.7007874015748031,"duration":1.162109375},{"name":"B2","midi":47,"time":91.875,"velocity":0.7007874015748031,"duration":1.865234375},{"name":"F#3","midi":54,"time":92.109375,"velocity":0.7007874015748031,"duration":1.162109375},{"name":"B3","midi":59,"time":92.34375,"velocity":0.7007874015748031,"duration":1.162109375},{"name":"D4","midi":62,"time":92.578125,"velocity":0.7007874015748031,"duration":1.162109375},{"name":"G2","midi":43,"time":93.75,"velocity":0.7007874015748031,"duration":1.865234375},{"name":"D3","midi":50,"time":93.984375,"velocity":0.7007874015748031,"duration":1.162109375},{"name":"G3","midi":55,"time":94.21875,"velocity":0.7007874015748031,"duration":1.162109375},{"name":"B3","midi":59,"time":94.453125,"velocity":0.7007874015748031,"duration":1.162109375},{"name":"G2","midi":43,"time":95.625,"velocity":0.7007874015748031,"duration":1.865234375},{"name":"D3","midi":50,"time":95.859375,"velocity":0.7007874015748031,"duration":1.162109375},{"name":"B3","midi":59,"time":96.09375,"velocity":0.7007874015748031,"duration":1.279296875},{"name":"G3","midi":55,"time":96.09375,"velocity":0.7007874015748031,"duration":1.162109375},{"name":"D3","midi":50,"time":97.5,"velocity":0.7007874015748031,"duration":1.865234375},{"name":"A3","midi":57,"time":97.734375,"velocity":0.7007874015748031,"duration":1.162109375},{"name":"D4","midi":62,"time":97.96875,"velocity":0.7007874015748031,"duration":1.162109375},{"name":"F#4","midi":66,"time":98.203125,"velocity":0.7007874015748031,"duration":1.162109375},{"name":"D3","midi":50,"time":99.375,"velocity":0.7007874015748031,"duration":1.865234375},{"name":"A3","midi":57,"time":99.609375,"velocity":0.7007874015748031,"duration":1.162109375},{"name":"D4","midi":62,"time":99.84375,"velocity":0.7007874015748031,"duration":1.162109375},{"name":"F#4","midi":66,"time":99.84375,"velocity":0.7007874015748031,"duration":1.279296875},{"name":"A2","midi":45,"time":101.25,"velocity":0.7007874015748031,"duration":2.802734375},{"name":"E3","midi":52,"time":101.484375,"velocity":0.7007874015748031,"duration":2.568359375},{"name":"A3","midi":57,"time":101.71875,"velocity":0.7007874015748031,"duration":2.099609375},{"name":"C#4","midi":61,"time":101.953125,"velocity":0.7007874015748031,"duration":2.568359375},{"name":"B2","midi":47,"time":105,"velocity":0.7007874015748031,"duration":0.458984375},{"name":"F#3","midi":54,"time":105.234375,"velocity":0.7007874015748031,"duration":0.224609375},{"name":"B3","midi":59,"time":105.46875,"velocity":0.7007874015748031,"duration":0.224609375},{"name":"F#3","midi":54,"time":105.703125,"velocity":0.7007874015748031,"duration":0.224609375},{"name":"D4","midi":62,"time":105.9375,"velocity":0.7007874015748031,"duration":0.224609375},{"name":"F#3","midi":54,"time":106.171875,"velocity":0.7007874015748031,"duration":0.224609375},{"name":"B3","midi":59,"time":106.40625,"velocity":0.7007874015748031,"duration":0.224609375},{"name":"F#3","midi":54,"time":106.640625,"velocity":0.7007874015748031,"duration":0.224609375},{"name":"B2","midi":47,"time":106.875,"velocity":0.7007874015748031,"duration":0.458984375},{"name":"F#3","midi":54,"time":107.109375,"velocity":0.7007874015748031,"duration":0.224609375},{"name":"B3","midi":59,"time":107.34375,"velocity":0.7007874015748031,"duration":0.224609375},{"name":"F#3","midi":54,"time":107.578125,"velocity":0.7007874015748031,"duration":0.224609375},{"name":"D4","midi":62,"time":107.8125,"velocity":0.7007874015748031,"duration":0.224609375},{"name":"F#3","midi":54,"time":108.046875,"velocity":0.7007874015748031,"duration":0.224609375},{"name":"B3","midi":59,"time":108.28125,"velocity":0.7007874015748031,"duration":0.224609375},{"name":"F#3","midi":54,"time":108.515625,"velocity":0.7007874015748031,"duration":0.224609375},{"name":"G2","midi":43,"time":108.75,"velocity":0.7007874015748031,"duration":0.458984375},{"name":"D3","midi":50,"time":108.984375,"velocity":0.7007874015748031,"duration":0.224609375},{"name":"G3","midi":55,"time":109.21875,"velocity":0.7007874015748031,"duration":0.224609375},{"name":"D3","midi":50,"time":109.453125,"velocity":0.7007874015748031,"duration":0.224609375},{"name":"B3","midi":59,"time":109.6875,"velocity":0.7007874015748031,"duration":0.224609375},{"name":"D3","midi":50,"time":109.921875,"velocity":0.7007874015748031,"duration":0.224609375},{"name":"G3","midi":55,"time":110.15625,"velocity":0.7007874015748031,"duration":0.224609375},{"name":"D3","midi":50,"time":110.390625,"velocity":0.7007874015748031,"duration":0.224609375},{"name":"G2","midi":43,"time":110.625,"velocity":0.7007874015748031,"duration":0.458984375},{"name":"D3","midi":50,"time":110.859375,"velocity":0.7007874015748031,"duration":0.224609375},{"name":"G3","midi":55,"time":111.09375,"velocity":0.7007874015748031,"duration":0.224609375},{"name":"D3","midi":50,"time":111.328125,"velocity":0.7007874015748031,"duration":0.224609375},{"name":"B3","midi":59,"time":111.5625,"velocity":0.7007874015748031,"duration":0.224609375},{"name":"D3","midi":50,"time":111.796875,"velocity":0.7007874015748031,"duration":0.224609375},{"name":"G3","midi":55,"time":112.03125,"velocity":0.7007874015748031,"duration":0.224609375},{"name":"D3","midi":50,"time":112.265625,"velocity":0.7007874015748031,"duration":0.224609375},{"name":"D3","midi":50,"time":112.5,"velocity":0.7007874015748031,"duration":0.458984375},{"name":"A3","midi":57,"time":112.734375,"velocity":0.7007874015748031,"duration":0.224609375},{"name":"D4","midi":62,"time":112.96875,"velocity":0.7007874015748031,"duration":0.224609375},{"name":"A3","midi":57,"time":113.203125,"velocity":0.7007874015748031,"duration":0.224609375},{"name":"F#4","midi":66,"time":113.4375,"velocity":0.7007874015748031,"duration":0.224609375},{"name":"A3","midi":57,"time":113.671875,"velocity":0.7007874015748031,"duration":0.224609375},{"name":"D4","midi":62,"time":113.90625,"velocity":0.7007874015748031,"duration":0.224609375},{"name":"A3","midi":57,"time":114.140625,"velocity":0.7007874015748031,"duration":0.224609375},{"name":"D3","midi":50,"time":114.375,"velocity":0.7007874015748031,"duration":0.458984375},{"name":"A3","midi":57,"time":114.609375,"velocity":0.7007874015748031,"duration":0.224609375},{"name":"D4","midi":62,"time":114.84375,"velocity":0.7007874015748031,"duration":0.224609375},{"name":"A3","midi":57,"time":115.078125,"velocity":0.7007874015748031,"duration":0.224609375},{"name":"F#4","midi":66,"time":115.3125,"velocity":0.7007874015748031,"duration":0.224609375},{"name":"A3","midi":57,"time":115.546875,"velocity":0.7007874015748031,"duration":0.224609375},{"name":"D4","midi":62,"time":115.78125,"velocity":0.7007874015748031,"duration":0.224609375},{"name":"A3","midi":57,"time":116.015625,"velocity":0.7007874015748031,"duration":0.224609375},{"name":"A2","midi":45,"time":116.25,"velocity":0.7007874015748031,"duration":0.458984375},{"name":"E3","midi":52,"time":116.484375,"velocity":0.7007874015748031,"duration":0.224609375},{"name":"A3","midi":57,"time":116.71875,"velocity":0.7007874015748031,"duration":0.224609375},{"name":"E3","midi":52,"time":116.953125,"velocity":0.7007874015748031,"duration":0.224609375},{"name":"C#4","midi":61,"time":117.1875,"velocity":0.7007874015748031,"duration":0.224609375},{"name":"E3","midi":52,"time":117.421875,"velocity":0.7007874015748031,"duration":0.224609375},{"name":"A3","midi":57,"time":117.65625,"velocity":0.7007874015748031,"duration":0.224609375},{"name":"E3","midi":52,"time":117.890625,"velocity":0.7007874015748031,"duration":0.224609375},{"name":"A2","midi":45,"time":118.125,"velocity":0.7007874015748031,"duration":0.458984375},{"name":"E3","midi":52,"time":118.359375,"velocity":0.7007874015748031,"duration":0.224609375},{"name":"A3","midi":57,"time":118.59375,"velocity":0.7007874015748031,"duration":0.224609375},{"name":"E3","midi":52,"time":118.828125,"velocity":0.7007874015748031,"duration":0.224609375},{"name":"C#4","midi":61,"time":119.0625,"velocity":0.7007874015748031,"duration":0.224609375},{"name":"E3","midi":52,"time":119.296875,"velocity":0.7007874015748031,"duration":0.224609375},{"name":"A3","midi":57,"time":119.53125,"velocity":0.7007874015748031,"duration":0.224609375},{"name":"E3","midi":52,"time":119.765625,"velocity":0.7007874015748031,"duration":0.224609375},{"name":"B2","midi":47,"time":120,"velocity":0.7007874015748031,"duration":0.458984375},{"name":"F#3","midi":54,"time":120.234375,"velocity":0.7007874015748031,"duration":0.224609375},{"name":"B3","midi":59,"time":120.46875,"velocity":0.7007874015748031,"duration":0.224609375},{"name":"F#3","midi":54,"time":120.703125,"velocity":0.7007874015748031,"duration":0.224609375},{"name":"D4","midi":62,"time":120.9375,"velocity":0.7007874015748031,"duration":0.224609375},{"name":"F#3","midi":54,"time":121.171875,"velocity":0.7007874015748031,"duration":0.224609375},{"name":"B3","midi":59,"time":121.40625,"velocity":0.7007874015748031,"duration":0.224609375},{"name":"F#3","midi":54,"time":121.640625,"velocity":0.7007874015748031,"duration":0.224609375},{"name":"B2","midi":47,"time":121.875,"velocity":0.7007874015748031,"duration":0.458984375},{"name":"F#3","midi":54,"time":122.109375,"velocity":0.7007874015748031,"duration":0.224609375},{"name":"B3","midi":59,"time":122.34375,"velocity":0.7007874015748031,"duration":0.224609375},{"name":"F#3","midi":54,"time":122.578125,"velocity":0.7007874015748031,"duration":0.224609375},{"name":"D4","midi":62,"time":122.8125,"velocity":0.7007874015748031,"duration":0.224609375},{"name":"F#3","midi":54,"time":123.046875,"velocity":0.7007874015748031,"duration":0.224609375},{"name":"B3","midi":59,"time":123.28125,"velocity":0.7007874015748031,"duration":0.224609375},{"name":"F#3","midi":54,"time":123.515625,"velocity":0.7007874015748031,"duration":0.224609375},{"name":"G2","midi":43,"time":123.75,"velocity":0.7007874015748031,"duration":0.458984375},{"name":"D3","midi":50,"time":123.984375,"velocity":0.7007874015748031,"duration":0.224609375},{"name":"G3","midi":55,"time":124.21875,"velocity":0.7007874015748031,"duration":0.224609375},{"name":"D3","midi":50,"time":124.453125,"velocity":0.7007874015748031,"duration":0.224609375},{"name":"B3","midi":59,"time":124.6875,"velocity":0.7007874015748031,"duration":0.224609375},{"name":"D3","midi":50,"time":124.921875,"velocity":0.7007874015748031,"duration":0.224609375},{"name":"G3","midi":55,"time":125.15625,"velocity":0.7007874015748031,"duration":0.224609375},{"name":"D3","midi":50,"time":125.390625,"velocity":0.7007874015748031,"duration":0.224609375},{"name":"G2","midi":43,"time":125.625,"velocity":0.7007874015748031,"duration":0.458984375},{"name":"D3","midi":50,"time":125.859375,"velocity":0.7007874015748031,"duration":0.224609375},{"name":"G3","midi":55,"time":126.09375,"velocity":0.7007874015748031,"duration":0.224609375},{"name":"D3","midi":50,"time":126.328125,"velocity":0.7007874015748031,"duration":0.224609375},{"name":"B3","midi":59,"time":126.5625,"velocity":0.7007874015748031,"duration":0.224609375},{"name":"D3","midi":50,"time":126.796875,"velocity":0.7007874015748031,"duration":0.224609375},{"name":"G3","midi":55,"time":127.03125,"velocity":0.7007874015748031,"duration":0.224609375},{"name":"D3","midi":50,"time":127.265625,"velocity":0.7007874015748031,"duration":0.224609375},{"name":"D3","midi":50,"time":127.5,"velocity":0.7007874015748031,"duration":0.458984375},{"name":"A3","midi":57,"time":127.734375,"velocity":0.7007874015748031,"duration":0.224609375},{"name":"D4","midi":62,"time":127.96875,"velocity":0.7007874015748031,"duration":0.224609375},{"name":"A3","midi":57,"time":128.203125,"velocity":0.7007874015748031,"duration":0.224609375},{"name":"F#4","midi":66,"time":128.4375,"velocity":0.7007874015748031,"duration":0.224609375},{"name":"A3","midi":57,"time":128.671875,"velocity":0.7007874015748031,"duration":0.224609375},{"name":"D4","midi":62,"time":128.90625,"velocity":0.7007874015748031,"duration":0.224609375},{"name":"A3","midi":57,"time":129.140625,"velocity":0.7007874015748031,"duration":0.224609375},{"name":"D3","midi":50,"time":129.375,"velocity":0.7007874015748031,"duration":0.458984375},{"name":"A3","midi":57,"time":129.609375,"velocity":0.7007874015748031,"duration":0.224609375},{"name":"D4","midi":62,"time":129.84375,"velocity":0.7007874015748031,"duration":0.224609375},{"name":"A3","midi":57,"time":130.078125,"velocity":0.7007874015748031,"duration":0.224609375},{"name":"F#4","midi":66,"time":130.3125,"velocity":0.7007874015748031,"duration":0.224609375},{"name":"A3","midi":57,"time":130.546875,"velocity":0.7007874015748031,"duration":0.224609375},{"name":"D4","midi":62,"time":130.78125,"velocity":0.7007874015748031,"duration":0.224609375},{"name":"A3","midi":57,"time":131.015625,"velocity":0.7007874015748031,"duration":0.224609375},{"name":"A2","midi":45,"time":131.25,"velocity":0.7007874015748031,"duration":0.458984375},{"name":"E3","midi":52,"time":131.484375,"velocity":0.7007874015748031,"duration":0.224609375},{"name":"A3","midi":57,"time":131.71875,"velocity":0.7007874015748031,"duration":0.224609375},{"name":"E3","midi":52,"time":131.953125,"velocity":0.7007874015748031,"duration":0.224609375},{"name":"C#4","midi":61,"time":132.1875,"velocity":0.7007874015748031,"duration":0.224609375},{"name":"E3","midi":52,"time":132.421875,"velocity":0.7007874015748031,"duration":0.224609375},{"name":"A3","midi":57,"time":132.65625,"velocity":0.7007874015748031,"duration":0.224609375},{"name":"E3","midi":52,"time":132.890625,"velocity":0.7007874015748031,"duration":0.224609375},{"name":"A2","midi":45,"time":133.125,"velocity":0.7007874015748031,"duration":0.458984375},{"name":"E3","midi":52,"time":133.359375,"velocity":0.7007874015748031,"duration":0.224609375},{"name":"A3","midi":57,"time":133.59375,"velocity":0.7007874015748031,"duration":0.224609375},{"name":"E3","midi":52,"time":133.828125,"velocity":0.7007874015748031,"duration":0.224609375},{"name":"C#4","midi":61,"time":134.0625,"velocity":0.7007874015748031,"duration":0.224609375},{"name":"E3","midi":52,"time":134.296875,"velocity":0.7007874015748031,"duration":0.224609375},{"name":"A3","midi":57,"time":134.53125,"velocity":0.7007874015748031,"duration":0.224609375},{"name":"E3","midi":52,"time":134.765625,"velocity":0.7007874015748031,"duration":0.224609375}]}]}