{"header":{"title":"In My Blood","artist":"Shawn Mendes","source":"https://musescore.com/jaewoopepper1/in-my-blood","bpm":70.00023333411112,"duration":205.54038629166644},"tracks":[{"instrument_number":0,"notes":[{"name":"C5","midi":72,"time":0,"velocity":0.6299212598425197,"duration":0.4053557916666667},{"name":"F4","midi":65,"time":0,"velocity":0.5039370078740157,"duration":0.8124972916666666},{"name":"A4","midi":69,"time":0.42857,"velocity":0.6299212598425197,"duration":2.0339217916666668},{"name":"F4","midi":65,"time":0.85714,"velocity":0.5039370078740157,"duration":0.8124972916666666},{"name":"F4","midi":65,"time":1.71428,"velocity":0.5039370078740157,"duration":0.8124972916666668},{"name":"A4","midi":69,"time":2.5714200000000003,"velocity":0.6299212598425197,"duration":0.20178504166666666},{"name":"F4","midi":65,"time":2.5714200000000003,"velocity":0.5039370078740157,"duration":0.812497291666666},{"name":"C5","midi":72,"time":2.785705,"velocity":0.6299212598425197,"duration":0.20178504166666666},{"name":"A4","midi":69,"time":2.99999,"velocity":0.6299212598425197,"duration":0.20178504166666666},{"name":"D5","midi":74,"time":3.2142749999999998,"velocity":0.6299212598425197,"duration":0.6089265416666665},{"name":"D4","midi":62,"time":3.4285599999999996,"velocity":0.5039370078740157,"duration":0.8124972916666668},{"name":"C5","midi":72,"time":3.8571299999999997,"velocity":0.6299212598425197,"duration":0.20178504166666666},{"name":"C5","midi":72,"time":4.071415,"velocity":0.6299212598425197,"duration":0.4053557916666657},{"name":"D4","midi":62,"time":4.285699999999999,"velocity":0.5039370078740157,"duration":0.8124972916666655},{"name":"A4","midi":69,"time":4.499984999999999,"velocity":0.6299212598425197,"duration":0.4053557916666666},{"name":"A4","midi":69,"time":4.9285549999999985,"velocity":0.6299212598425197,"duration":1.0160680416666663},{"name":"D4","midi":62,"time":5.142839999999998,"velocity":0.5039370078740157,"duration":0.8124972916666673},{"name":"D4","midi":62,"time":5.999979999999998,"velocity":0.5039370078740157,"duration":0.8124972916666664},{"name":"F4","midi":65,"time":6.428549999999998,"velocity":0.6299212598425197,"duration":0.4053557916666666},{"name":"A4","midi":69,"time":6.857119999999997,"velocity":0.6299212598425197,"duration":0.4053557916666666},{"name":"D4","midi":62,"time":6.857119999999997,"velocity":0.5039370078740157,"duration":0.8124972916666664},{"name":"C5","midi":72,"time":7.285689999999997,"velocity":0.6299212598425197,"duration":0.4053557916666666},{"name":"D5","midi":74,"time":7.714259999999997,"velocity":0.6299212598425197,"duration":0.40535579166666746},{"name":"D4","midi":62,"time":7.714259999999997,"velocity":0.5039370078740157,"duration":0.8124972916666673},{"name":"E5","midi":76,"time":8.142829999999998,"velocity":0.6299212598425197,"duration":0.4053557916666666},{"name":"D5","midi":74,"time":8.571399999999999,"velocity":0.6299212598425197,"duration":0.4053557916666666},{"name":"D4","midi":62,"time":8.571399999999999,"velocity":0.5039370078740157,"duration":0.8124972916666664},{"name":"C5","midi":72,"time":8.99997,"velocity":0.6299212598425197,"duration":0.4053557916666666},{"name":"A4","midi":69,"time":9.42854,"velocity":0.6299212598425197,"duration":0.4053557916666666},{"name":"D4","midi":62,"time":9.42854,"velocity":0.5039370078740157,"duration":0.8124972916666664},{"name":"F4","midi":65,"time":9.85711,"velocity":0.6299212598425197,"duration":0.4053557916666666},{"name":"A4","midi":69,"time":10.285680000000001,"velocity":0.6299212598425197,"duration":0.4053557916666666},{"name":"D4","midi":62,"time":10.285680000000001,"velocity":0.5039370078740157,"duration":0.8124972916666664},{"name":"C5","midi":72,"time":10.714250000000002,"velocity":0.6299212598425197,"duration":0.4053557916666666},{"name":"D5","midi":74,"time":11.142820000000002,"velocity":0.6299212598425197,"duration":0.8124972916666664},{"name":"D4","midi":62,"time":11.142820000000002,"velocity":0.5039370078740157,"duration":0.8124972916666664},{"name":"D4","midi":62,"time":11.999960000000002,"velocity":0.5039370078740157,"duration":0.8124972916666682},{"name":"F4","midi":65,"time":12.214245000000002,"velocity":0.6299212598425197,"duration":0.20178504166666755},{"name":"F4","midi":65,"time":12.428530000000002,"velocity":0.6299212598425197,"duration":0.20178504166666755},{"name":"F4","midi":65,"time":12.642815000000002,"velocity":0.6299212598425197,"duration":0.20178504166666755},{"name":"F4","midi":65,"time":12.857100000000003,"velocity":0.6299212598425197,"duration":0.3035704166666662},{"name":"D4","midi":62,"time":12.857100000000003,"velocity":0.5039370078740157,"duration":0.8124972916666646},{"name":"A4","midi":69,"time":13.178527500000001,"velocity":0.6299212598425197,"duration":0.3035704166666662},{"name":"A4","midi":69,"time":13.499955,"velocity":0.6299212598425197,"duration":1.0160680416666672},{"name":"D4","midi":62,"time":14.571380000000001,"velocity":0.6299212598425197,"duration":0.20178504166666755},{"name":"C4","midi":60,"time":14.785665000000002,"velocity":0.6299212598425197,"duration":0.09999966666666715},{"name":"D4","midi":62,"time":14.892807500000002,"velocity":0.6299212598425197,"duration":0.20178504166666578},{"name":"C4","midi":60,"time":15.1070925,"velocity":0.6299212598425197,"duration":0.09999966666666715},{"name":"D4","midi":62,"time":15.214235,"velocity":0.6299212598425197,"duration":0.20178504166666578},{"name":"C4","midi":60,"time":15.428519999999999,"velocity":0.6299212598425197,"duration":0.20178504166666755},{"name":"C4","midi":60,"time":15.642805,"velocity":0.6299212598425197,"duration":0.6089265416666656},{"name":"D4","midi":62,"time":16.285659999999996,"velocity":0.6299212598425197,"duration":0.20178504166666755},{"name":"C4","midi":60,"time":16.499944999999997,"velocity":0.6299212598425197,"duration":0.09999966666666538},{"name":"D4","midi":62,"time":16.607087499999995,"velocity":0.6299212598425197,"duration":0.20178504166666755},{"name":"C4","midi":60,"time":16.821372499999995,"velocity":0.6299212598425197,"duration":0.914282666666665},{"name":"C4","midi":60,"time":17.785654999999995,"velocity":0.6299212598425197,"duration":0.20178504166666755},{"name":"D4","midi":62,"time":17.999939999999995,"velocity":0.6299212598425197,"duration":0.16071374999999932},{"name":"C4","midi":60,"time":18.171367999999994,"velocity":0.6299212598425197,"duration":0.16071374999999932},{"name":"D4","midi":62,"time":18.342795999999993,"velocity":0.6299212598425197,"duration":0.16071374999999932},{"name":"C4","midi":60,"time":18.51422399999999,"velocity":0.6299212598425197,"duration":0.16071374999999932},{"name":"D4","midi":62,"time":18.68565199999999,"velocity":0.6299212598425197,"duration":0.16071374999999932},{"name":"C4","midi":60,"time":18.85707999999999,"velocity":0.6299212598425197,"duration":0.20178504166666755},{"name":"C4","midi":60,"time":19.07136499999999,"velocity":0.6299212598425197,"duration":0.6089265416666656},{"name":"D4","midi":62,"time":19.714219999999987,"velocity":0.6299212598425197,"duration":0.20178504166666755},{"name":"C4","midi":60,"time":19.928504999999987,"velocity":0.6299212598425197,"duration":0.09999966666666538},{"name":"D4","midi":62,"time":20.035647499999985,"velocity":0.6299212598425197,"duration":0.20178504166666755},{"name":"F4","midi":65,"time":20.249932499999986,"velocity":0.6299212598425197,"duration":1.1178534166666658},{"name":"D4","midi":62,"time":21.428499999999985,"velocity":0.6299212598425197,"duration":0.20178504166666755},{"name":"C4","midi":60,"time":21.642784999999986,"velocity":0.6299212598425197,"duration":0.09999966666666538},{"name":"D4","midi":62,"time":21.749927499999984,"velocity":0.6299212598425197,"duration":0.20178504166666755},{"name":"C4","midi":60,"time":21.964212499999984,"velocity":0.6299212598425197,"duration":0.09999966666666538},{"name":"D4","midi":62,"time":22.071354999999983,"velocity":0.6299212598425197,"duration":0.20178504166666755},{"name":"C4","midi":60,"time":22.285639999999983,"velocity":0.6299212598425197,"duration":0.20178504166666755},{"name":"C4","midi":60,"time":22.499924999999983,"velocity":0.6299212598425197,"duration":0.6089265416666656},{"name":"C4","midi":60,"time":23.14277999999998,"velocity":0.6299212598425197,"duration":0.40535579166666835},{"name":"A3","midi":57,"time":23.57134999999998,"velocity":0.6299212598425197,"duration":0.40535579166666835},{"name":"F4","midi":65,"time":25.928484999999984,"velocity":0.6299212598425197,"duration":0.20178504166666755},{"name":"F4","midi":65,"time":26.142769999999985,"velocity":0.6299212598425197,"duration":0.20178504166666755},{"name":"G4","midi":67,"time":26.357054999999985,"velocity":0.6299212598425197,"duration":0.20178504166666755},{"name":"A#4","midi":70,"time":26.571339999999985,"velocity":0.6299212598425197,"duration":0.3035704166666662},{"name":"A4","midi":69,"time":26.892767499999984,"velocity":0.6299212598425197,"duration":0.09999966666666538},{"name":"G4","midi":67,"time":26.999909999999982,"velocity":0.6299212598425197,"duration":0.20178504166666755},{"name":"F4","midi":65,"time":27.214194999999982,"velocity":0.6299212598425197,"duration":0.20178504166666755},{"name":"G4","midi":67,"time":27.428479999999983,"velocity":0.6299212598425197,"duration":0.20178504166666755},{"name":"A3","midi":57,"time":27.428479999999983,"velocity":0.5039370078740157,"duration":0.8124972916666664},{"name":"F4","midi":65,"time":27.642764999999983,"velocity":0.6299212598425197,"duration":1.4232095416666688},{"name":"A3","midi":57,"time":28.285619999999984,"velocity":0.5039370078740157,"duration":0.8124972916666664},{"name":"A3","midi":57,"time":29.142759999999985,"velocity":0.5039370078740157,"duration":0.8124972916666664},{"name":"F4","midi":65,"time":29.357044999999985,"velocity":0.6299212598425197,"duration":0.20178504166666755},{"name":"F4","midi":65,"time":29.571329999999985,"velocity":0.6299212598425197,"duration":0.20178504166666755},{"name":"G4","midi":67,"time":29.785614999999986,"velocity":0.6299212598425197,"duration":0.201785041666664},{"name":"A#4","midi":70,"time":29.999899999999982,"velocity":0.6299212598425197,"duration":0.3035704166666662},{"name":"C4","midi":60,"time":29.999899999999982,"velocity":0.5039370078740157,"duration":0.8124972916666628},{"name":"A4","midi":69,"time":30.32132749999998,"velocity":0.6299212598425197,"duration":0.09999966666666538},{"name":"G4","midi":67,"time":30.42846999999998,"velocity":0.6299212598425197,"duration":0.20178504166666755},{"name":"F4","midi":65,"time":30.64275499999998,"velocity":0.6299212598425197,"duration":0.201785041666664},{"name":"G4","midi":67,"time":30.857039999999976,"velocity":0.6299212598425197,"duration":0.20178504166666755},{"name":"D4","midi":62,"time":30.857039999999976,"velocity":0.5039370078740157,"duration":0.8124972916666664},{"name":"F4","midi":65,"time":31.071324999999977,"velocity":0.6299212598425197,"duration":1.4232095416666688},{"name":"D4","midi":62,"time":31.714179999999978,"velocity":0.5039370078740157,"duration":0.8124972916666664},{"name":"D4","midi":62,"time":32.57131999999998,"velocity":0.5039370078740157,"duration":0.8124972916666735},{"name":"F4","midi":65,"time":32.785604999999975,"velocity":0.6299212598425197,"duration":0.20178504166666755},{"name":"F4","midi":65,"time":32.99988999999998,"velocity":0.6299212598425197,"duration":0.20178504166666755},{"name":"G4","midi":67,"time":33.21417499999998,"velocity":0.6299212598425197,"duration":0.20178504166666755},{"name":"A#4","midi":70,"time":33.42845999999999,"velocity":0.6299212598425197,"duration":0.3035704166666662},{"name":"D4","midi":62,"time":33.42845999999999,"velocity":0.5039370078740157,"duration":0.8124972916666735},{"name":"A4","midi":69,"time":33.749887499999986,"velocity":0.6299212598425197,"duration":0.09999966666666893},{"name":"G4","midi":67,"time":33.85702999999999,"velocity":0.6299212598425197,"duration":0.20178504166666755},{"name":"F4","midi":65,"time":34.07131499999999,"velocity":0.6299212598425197,"duration":0.20178504166666755},{"name":"G4","midi":67,"time":34.285599999999995,"velocity":0.6299212598425197,"duration":0.20178504166666755},{"name":"D4","midi":62,"time":34.285599999999995,"velocity":0.5039370078740157,"duration":0.8124972916666735},{"name":"F4","midi":65,"time":34.499885,"velocity":0.6299212598425197,"duration":2.2374925416666755},{"name":"D4","midi":62,"time":35.14274,"velocity":0.5039370078740157,"duration":0.8124972916666664},{"name":"D4","midi":62,"time":35.999880000000005,"velocity":0.5039370078740157,"duration":0.8124972916666735},{"name":"D4","midi":62,"time":36.85702000000001,"velocity":0.5039370078740157,"duration":0.8124972916666735},{"name":"G4","midi":67,"time":37.28559000000001,"velocity":0.6299212598425197,"duration":0.20178504166666755},{"name":"F4","midi":65,"time":37.49987500000002,"velocity":0.6299212598425197,"duration":0.20178504166666755},{"name":"G4","midi":67,"time":37.71416000000002,"velocity":0.6299212598425197,"duration":0.20178504166666755},{"name":"D4","midi":62,"time":37.71416000000002,"velocity":0.5039370078740157,"duration":0.8124972916666735},{"name":"F4","midi":65,"time":37.928445000000025,"velocity":0.6299212598425197,"duration":3.0517755416666716},{"name":"D4","midi":62,"time":38.57130000000003,"velocity":0.5039370078740157,"duration":0.8124972916666664},{"name":"D4","midi":62,"time":39.42844000000003,"velocity":0.5039370078740157,"duration":0.8124972916666664},{"name":"D4","midi":62,"time":40.28558000000003,"velocity":0.6299212598425197,"duration":0.8124972916666664},{"name":"C5","midi":72,"time":41.14272000000003,"velocity":0.7559055118110236,"duration":0.4053557916666648},{"name":"F4","midi":65,"time":41.14272000000003,"velocity":0.6299212598425197,"duration":0.4053557916666648},{"name":"A4","midi":69,"time":41.57129000000003,"velocity":0.7559055118110236,"duration":2.033921791666671},{"name":"F4","midi":65,"time":41.57129000000003,"velocity":0.6299212598425197,"duration":0.4053557916666648},{"name":"F4","midi":65,"time":41.999860000000034,"velocity":0.6299212598425197,"duration":0.4053557916666648},{"name":"F4","midi":65,"time":42.428430000000034,"velocity":0.6299212598425197,"duration":0.4053557916666648},{"name":"F4","midi":65,"time":42.857000000000035,"velocity":0.6299212598425197,"duration":0.4053557916666648},{"name":"F4","midi":65,"time":43.285570000000035,"velocity":0.6299212598425197,"duration":0.4053557916666719},{"name":"A4","midi":69,"time":43.71414000000004,"velocity":0.7559055118110236,"duration":0.20178504166666755},{"name":"F4","midi":65,"time":43.71414000000004,"velocity":0.6299212598425197,"duration":0.4053557916666719},{"name":"C5","midi":72,"time":43.92842500000005,"velocity":0.7559055118110236,"duration":0.20178504166666755},{"name":"A4","midi":69,"time":44.14271000000005,"velocity":0.7559055118110236,"duration":0.20178504166666755},{"name":"F4","midi":65,"time":44.14271000000005,"velocity":0.6299212598425197,"duration":0.4053557916666719},{"name":"D5","midi":74,"time":44.356995000000055,"velocity":0.7559055118110236,"duration":0.6089265416666692},{"name":"F4","midi":65,"time":44.57128000000006,"velocity":0.6299212598425197,"duration":0.4053557916666648},{"name":"C5","midi":72,"time":44.99985000000006,"velocity":0.7559055118110236,"duration":0.20178504166666755},{"name":"F4","midi":65,"time":44.99985000000006,"velocity":0.6299212598425197,"duration":0.4053557916666719},{"name":"C5","midi":72,"time":45.21413500000006,"velocity":0.7559055118110236,"duration":0.4053557916666719},{"name":"F4","midi":65,"time":45.42842000000007,"velocity":0.6299212598425197,"duration":0.4053557916666719},{"name":"A4","midi":69,"time":45.64270500000007,"velocity":0.7559055118110236,"duration":0.4053557916666719},{"name":"F4","midi":65,"time":45.856990000000074,"velocity":0.6299212598425197,"duration":0.4053557916666719},{"name":"A4","midi":69,"time":46.07127500000008,"velocity":0.7559055118110236,"duration":1.0160680416666708},{"name":"F4","midi":65,"time":46.28556000000008,"velocity":0.6299212598425197,"duration":0.4053557916666648},{"name":"F4","midi":65,"time":46.71413000000008,"velocity":0.6299212598425197,"duration":0.4053557916666648},{"name":"F4","midi":65,"time":47.14270000000008,"velocity":0.6299212598425197,"duration":0.4053557916666648},{"name":"F4","midi":65,"time":47.571270000000084,"velocity":0.7559055118110236,"duration":0.4053557916666648},{"name":"F4","midi":65,"time":47.571270000000084,"velocity":0.6299212598425197,"duration":0.8339257916666654},{"name":"A4","midi":69,"time":47.999840000000084,"velocity":0.7559055118110236,"duration":0.4053557916666648},{"name":"F4","midi":65,"time":47.999840000000084,"velocity":0.6299212598425197,"duration":0.8339257916666654},{"name":"C5","midi":72,"time":48.428410000000085,"velocity":0.7559055118110236,"duration":0.4053557916666648},{"name":"F4","midi":65,"time":48.428410000000085,"velocity":0.6299212598425197,"duration":0.8339257916666654},{"name":"D5","midi":74,"time":48.856980000000085,"velocity":0.7559055118110236,"duration":0.4053557916666648},{"name":"F4","midi":65,"time":48.856980000000085,"velocity":0.6299212598425197,"duration":0.8339257916666654},{"name":"E5","midi":76,"time":49.285550000000086,"velocity":0.7559055118110236,"duration":0.4053557916666648},{"name":"F4","midi":65,"time":49.285550000000086,"velocity":0.6299212598425197,"duration":0.8339257916666654},{"name":"D5","midi":74,"time":49.71412000000009,"velocity":0.7559055118110236,"duration":0.4053557916666648},{"name":"F4","midi":65,"time":49.71412000000009,"velocity":0.6299212598425197,"duration":0.8339257916666654},{"name":"C5","midi":72,"time":50.14269000000009,"velocity":0.7559055118110236,"duration":0.4053557916666648},{"name":"F4","midi":65,"time":50.14269000000009,"velocity":0.6299212598425197,"duration":0.8339257916666654},{"name":"A4","midi":69,"time":50.57126000000009,"velocity":0.7559055118110236,"duration":0.4053557916666648},{"name":"F4","midi":65,"time":50.57126000000009,"velocity":0.6299212598425197,"duration":0.42857000000000056},{"name":"F4","midi":65,"time":50.99983000000009,"velocity":0.7559055118110236,"duration":0.4053557916666648},{"name":"F4","midi":65,"time":50.99983000000009,"velocity":0.6299212598425197,"duration":0.8339257916666654},{"name":"A4","midi":69,"time":51.42840000000009,"velocity":0.7559055118110236,"duration":0.4053557916666648},{"name":"F4","midi":65,"time":51.42840000000009,"velocity":0.6299212598425197,"duration":0.8339257916666654},{"name":"C5","midi":72,"time":51.85697000000009,"velocity":0.7559055118110236,"duration":0.4053557916666648},{"name":"F4","midi":65,"time":51.85697000000009,"velocity":0.6299212598425197,"duration":0.8339257916666654},{"name":"D5","midi":74,"time":52.28554000000009,"velocity":0.7559055118110236,"duration":0.4053557916666648},{"name":"F4","midi":65,"time":52.28554000000009,"velocity":0.6299212598425197,"duration":0.8339257916666654},{"name":"E5","midi":76,"time":52.71411000000009,"velocity":0.7559055118110236,"duration":0.4053557916666648},{"name":"F4","midi":65,"time":52.71411000000009,"velocity":0.6299212598425197,"duration":0.8339257916666654},{"name":"D5","midi":74,"time":53.14268000000009,"velocity":0.7559055118110236,"duration":0.4053557916666648},{"name":"F4","midi":65,"time":53.14268000000009,"velocity":0.6299212598425197,"duration":0.8339257916666654},{"name":"C5","midi":72,"time":53.57125000000009,"velocity":0.7559055118110236,"duration":0.4053557916666648},{"name":"F4","midi":65,"time":53.57125000000009,"velocity":0.6299212598425197,"duration":0.8339257916666725},{"name":"A4","midi":69,"time":53.99982000000009,"velocity":0.7559055118110236,"duration":0.20178504166666755},{"name":"F4","midi":65,"time":53.99982000000009,"velocity":0.6299212598425197,"duration":0.42857000000000767},{"name":"G4","midi":67,"time":54.214105000000096,"velocity":0.7559055118110236,"duration":0.20178504166666755},{"name":"F4","midi":65,"time":54.4283900000001,"velocity":0.7559055118110236,"duration":0.4053557916666648},{"name":"F4","midi":65,"time":54.4283900000001,"velocity":0.6299212598425197,"duration":0.8339257916666654},{"name":"C5","midi":72,"time":54.6426750000001,"velocity":0.7559055118110236,"duration":0.6089265416666692},{"name":"C4","midi":60,"time":54.8569600000001,"velocity":0.6299212598425197,"duration":0.4053557916666648},{"name":"F4","midi":65,"time":54.8569600000001,"velocity":0.6299212598425197,"duration":0.8339257916666654},{"name":"A4","midi":69,"time":55.2855300000001,"velocity":0.7559055118110236,"duration":2.033921791666671},{"name":"C4","midi":60,"time":55.2855300000001,"velocity":0.6299212598425197,"duration":0.4053557916666648},{"name":"F4","midi":65,"time":55.2855300000001,"velocity":0.6299212598425197,"duration":0.8339257916666654},{"name":"C4","midi":60,"time":55.7141000000001,"velocity":0.6299212598425197,"duration":0.4053557916666648},{"name":"F4","midi":65,"time":55.7141000000001,"velocity":0.6299212598425197,"duration":0.8339257916666654},{"name":"C4","midi":60,"time":56.1426700000001,"velocity":0.6299212598425197,"duration":0.4053557916666648},{"name":"F4","midi":65,"time":56.1426700000001,"velocity":0.6299212598425197,"duration":0.8339257916666654},{"name":"C4","midi":60,"time":56.5712400000001,"velocity":0.6299212598425197,"duration":0.4053557916666648},{"name":"F4","midi":65,"time":56.5712400000001,"velocity":0.6299212598425197,"duration":0.8339257916666725},{"name":"C4","midi":60,"time":56.9998100000001,"velocity":0.6299212598425197,"duration":0.4053557916666719},{"name":"F4","midi":65,"time":56.9998100000001,"velocity":0.6299212598425197,"duration":0.8339257916666725},{"name":"C4","midi":60,"time":57.42838000000011,"velocity":0.6299212598425197,"duration":0.4053557916666648},{"name":"F4","midi":65,"time":57.42838000000011,"velocity":0.6299212598425197,"duration":0.6303550416666681},{"name":"F4","midi":65,"time":57.85695000000011,"velocity":0.7874015748031497,"duration":0.8339257916666725},{"name":"C4","midi":60,"time":57.85695000000011,"velocity":0.6299212598425197,"duration":0.4053557916666719},{"name":"D5","midi":74,"time":58.071235000000115,"velocity":0.7559055118110236,"duration":0.6089265416666692},{"name":"D4","midi":62,"time":58.28552000000012,"velocity":0.6299212598425197,"duration":0.4053557916666648},{"name":"F4","midi":65,"time":58.28552000000012,"velocity":0.6299212598425197,"duration":0.8339257916666725},{"name":"C5","midi":72,"time":58.71409000000012,"velocity":0.7559055118110236,"duration":0.20178504166666755},{"name":"D4","midi":62,"time":58.71409000000012,"velocity":0.6299212598425197,"duration":0.4053557916666719},{"name":"F4","midi":65,"time":58.71409000000012,"velocity":0.6299212598425197,"duration":0.8339257916666796},{"name":"C5","midi":72,"time":58.92837500000012,"velocity":0.7559055118110236,"duration":0.4053557916666719},{"name":"D4","midi":62,"time":59.14266000000013,"velocity":0.6299212598425197,"duration":0.4053557916666719},{"name":"F4","midi":65,"time":59.14266000000013,"velocity":0.6299212598425197,"duration":0.8339257916666796},{"name":"A4","midi":69,"time":59.35694500000013,"velocity":0.7559055118110236,"duration":0.4053557916666719},{"name":"D4","midi":62,"time":59.571230000000135,"velocity":0.6299212598425197,"duration":0.4053557916666719},{"name":"F4","midi":65,"time":59.571230000000135,"velocity":0.6299212598425197,"duration":0.8339257916666725},{"name":"A4","midi":69,"time":59.78551500000014,"velocity":0.7559055118110236,"duration":1.0160680416666708},{"name":"D4","midi":62,"time":59.99980000000014,"velocity":0.6299212598425197,"duration":0.4053557916666648},{"name":"F4","midi":65,"time":59.99980000000014,"velocity":0.6299212598425197,"duration":0.8339257916666654},{"name":"D4","midi":62,"time":60.42837000000014,"velocity":0.6299212598425197,"duration":0.4053557916666648},{"name":"F4","midi":65,"time":60.42837000000014,"velocity":0.6299212598425197,"duration":0.8339257916666654},{"name":"D4","midi":62,"time":60.856940000000144,"velocity":0.6299212598425197,"duration":0.4053557916666648},{"name":"F4","midi":65,"time":60.856940000000144,"velocity":0.6299212598425197,"duration":0.8339257916666654},{"name":"F4","midi":65,"time":61.285510000000144,"velocity":0.7874015748031497,"duration":0.8339257916666654},{"name":"D4","midi":62,"time":61.285510000000144,"velocity":0.6299212598425197,"duration":0.4053557916666648},{"name":"A4","midi":69,"time":61.714080000000145,"velocity":0.7559055118110236,"duration":0.4053557916666648},{"name":"D4","midi":62,"time":61.714080000000145,"velocity":0.6299212598425197,"duration":0.4053557916666648},{"name":"F4","midi":65,"time":61.714080000000145,"velocity":0.6299212598425197,"duration":0.8339257916666654},{"name":"C5","midi":72,"time":62.142650000000145,"velocity":0.7559055118110236,"duration":0.4053557916666648},{"name":"D4","midi":62,"time":62.142650000000145,"velocity":0.6299212598425197,"duration":0.4053557916666648},{"name":"F4","midi":65,"time":62.142650000000145,"velocity":0.6299212598425197,"duration":0.8339257916666654},{"name":"D5","midi":74,"time":62.571220000000146,"velocity":0.7559055118110236,"duration":0.4053557916666648},{"name":"D4","midi":62,"time":62.571220000000146,"velocity":0.6299212598425197,"duration":0.4053557916666648},{"name":"F4","midi":65,"time":62.571220000000146,"velocity":0.6299212598425197,"duration":0.8339257916666654},{"name":"E5","midi":76,"time":62.99979000000015,"velocity":0.7559055118110236,"duration":0.4053557916666648},{"name":"F4","midi":65,"time":62.99979000000015,"velocity":0.6299212598425197,"duration":0.8339257916666654},{"name":"A4","midi":69,"time":62.99979000000015,"velocity":0.6299212598425197,"duration":0.4053557916666648},{"name":"D5","midi":74,"time":63.42836000000015,"velocity":0.7559055118110236,"duration":0.4053557916666648},{"name":"F4","midi":65,"time":63.42836000000015,"velocity":0.6299212598425197,"duration":0.8339257916666654},{"name":"A4","midi":69,"time":63.42836000000015,"velocity":0.6299212598425197,"duration":0.4053557916666648},{"name":"C5","midi":72,"time":63.85693000000015,"velocity":0.7559055118110236,"duration":0.4053557916666648},{"name":"D4","midi":62,"time":63.85693000000015,"velocity":0.6299212598425197,"duration":0.4053557916666648},{"name":"F4","midi":65,"time":63.85693000000015,"velocity":0.6299212598425197,"duration":0.8339257916666583},{"name":"A4","midi":69,"time":64.28550000000014,"velocity":0.7559055118110236,"duration":0.4053557916666648},{"name":"D4","midi":62,"time":64.28550000000014,"velocity":0.6299212598425197,"duration":0.4053557916666648},{"name":"F4","midi":65,"time":64.28550000000014,"velocity":0.6299212598425197,"duration":0.42856999999999346},{"name":"F4","midi":65,"time":64.71407000000013,"velocity":0.7559055118110236,"duration":0.4053557916666648},{"name":"D4","midi":62,"time":64.71407000000013,"velocity":0.6299212598425197,"duration":0.4053557916666648},{"name":"F4","midi":65,"time":64.71407000000013,"velocity":0.6299212598425197,"duration":1.6803515416666528},{"name":"A4","midi":69,"time":65.14264000000013,"velocity":0.7559055118110236,"duration":0.4053557916666648},{"name":"A#3","midi":58,"time":65.14264000000013,"velocity":0.6299212598425197,"duration":0.608926541666662},{"name":"D4","midi":62,"time":65.14264000000013,"velocity":0.6299212598425197,"duration":0.608926541666662},{"name":"C5","midi":72,"time":65.57121000000012,"velocity":0.7559055118110236,"duration":0.4053557916666648},{"name":"D4","midi":62,"time":65.78549500000013,"velocity":0.6299212598425197,"duration":0.608926541666662},{"name":"F4","midi":65,"time":65.78549500000013,"velocity":0.6299212598425197,"duration":1.2517815416666593},{"name":"D5","midi":74,"time":65.99978000000011,"velocity":0.7559055118110236,"duration":0.8124972916666735},{"name":"D4","midi":62,"time":66.42835000000012,"velocity":0.6299212598425197,"duration":0.608926541666662},{"name":"F4","midi":65,"time":66.42835000000012,"velocity":0.6299212598425197,"duration":1.2517815416666735},{"name":"A#4","midi":70,"time":66.42835000000012,"velocity":0.6299212598425197,"duration":0.608926541666662},{"name":"F5","midi":77,"time":67.07120500000012,"velocity":0.7559055118110236,"duration":0.20178504166666755},{"name":"F4","midi":65,"time":67.07120500000012,"velocity":0.6299212598425197,"duration":1.0482107916666905},{"name":"A#4","midi":70,"time":67.07120500000012,"velocity":0.6299212598425197,"duration":0.6089265416666763},{"name":"D5","midi":74,"time":67.07120500000012,"velocity":0.6299212598425197,"duration":0.6089265416666763},{"name":"F5","midi":77,"time":67.28549000000012,"velocity":0.7559055118110236,"duration":0.20178504166666755},{"name":"F5","midi":77,"time":67.49977500000013,"velocity":0.7559055118110236,"duration":0.20178504166666755},{"name":"F5","midi":77,"time":67.71406000000013,"velocity":0.7559055118110236,"duration":0.3035704166666733},{"name":"F4","midi":65,"time":67.71406000000013,"velocity":0.6299212598425197,"duration":1.2732100416666725},{"name":"A#4","midi":70,"time":67.71406000000013,"velocity":0.6299212598425197,"duration":0.405355791666679},{"name":"D5","midi":74,"time":67.71406000000013,"velocity":0.6299212598425197,"duration":0.405355791666679},{"name":"A5","midi":81,"time":68.03548750000014,"velocity":0.7559055118110236,"duration":0.30357041666665907},{"name":"A#4","midi":70,"time":68.14263000000014,"velocity":0.6299212598425197,"duration":0.4053557916666648},{"name":"D5","midi":74,"time":68.14263000000014,"velocity":0.6299212598425197,"duration":0.4053557916666648},{"name":"F5","midi":77,"time":68.14263000000014,"velocity":0.6299212598425197,"duration":0.4053557916666648},{"name":"A5","midi":81,"time":68.35691500000014,"velocity":0.7559055118110236,"duration":1.0160680416666708},{"name":"A4","midi":69,"time":68.57120000000013,"velocity":0.7559055118110236,"duration":0.21428500000000383},{"name":"C5","midi":72,"time":68.57120000000013,"velocity":0.7559055118110236,"duration":0.8124972916666877},{"name":"F5","midi":77,"time":68.57120000000013,"velocity":0.7559055118110236,"duration":0.8124972916666877},{"name":"A4","midi":69,"time":68.57120000000013,"velocity":0.7559055118110236,"duration":0.42857000000000767},{"name":"F4","midi":65,"time":68.78548500000014,"velocity":0.7559055118110236,"duration":0.4160700416666714},{"name":"A4","midi":69,"time":68.78548500000014,"velocity":0.7559055118110236,"duration":0.42857000000000767},{"name":"F4","midi":65,"time":68.99977000000014,"velocity":0.7559055118110236,"duration":0.4160700416666856},{"name":"A4","midi":69,"time":68.99977000000014,"velocity":0.7559055118110236,"duration":0.4160700416666856},{"name":"F4","midi":65,"time":69.21405500000014,"velocity":0.7559055118110236,"duration":1.0267822916666915},{"name":"A4","midi":69,"time":69.21405500000014,"velocity":0.7559055118110236,"duration":1.0267822916666915},{"name":"G4","midi":67,"time":69.42834000000016,"velocity":0.7559055118110236,"duration":0.20178504166666755},{"name":"A#4","midi":70,"time":69.42834000000016,"velocity":0.7559055118110236,"duration":0.20178504166666755},{"name":"C4","midi":60,"time":69.42834000000016,"velocity":0.7559055118110236,"duration":0.42857000000000767},{"name":"F4","midi":65,"time":69.42834000000016,"velocity":0.7559055118110236,"duration":1.6696372916666888},{"name":"A4","midi":69,"time":69.42834000000016,"velocity":0.7559055118110236,"duration":0.8571400000000153},{"name":"G4","midi":67,"time":69.64262500000017,"velocity":0.7559055118110236,"duration":0.20178504166666755},{"name":"A#4","midi":70,"time":69.64262500000017,"velocity":0.7559055118110236,"duration":0.20178504166666755},{"name":"G4","midi":67,"time":69.85691000000017,"velocity":0.7559055118110236,"duration":0.20178504166666755},{"name":"A#4","midi":70,"time":69.85691000000017,"velocity":0.7559055118110236,"duration":0.20178504166666755},{"name":"G4","midi":67,"time":70.07119500000017,"velocity":0.7559055118110236,"duration":0.20178504166666755},{"name":"A#4","midi":70,"time":70.07119500000017,"velocity":0.7559055118110236,"duration":0.20178504166666755},{"name":"A4","midi":69,"time":70.28548000000018,"velocity":0.7559055118110236,"duration":0.21428500000000383},{"name":"C5","midi":72,"time":70.28548000000018,"velocity":0.7559055118110236,"duration":0.21428500000000383},{"name":"C4","midi":60,"time":70.28548000000018,"velocity":0.7559055118110236,"duration":0.42857000000000767},{"name":"F4","midi":65,"time":70.28548000000018,"velocity":0.7559055118110236,"duration":0.8571400000000153},{"name":"A4","midi":69,"time":70.28548000000018,"velocity":0.7559055118110236,"duration":0.42857000000000767},{"name":"C5","midi":72,"time":70.28548000000018,"velocity":0.7559055118110236,"duration":0.42857000000000767},{"name":"A4","midi":69,"time":70.49976500000018,"velocity":0.7559055118110236,"duration":0.42857000000000767},{"name":"C5","midi":72,"time":70.49976500000018,"velocity":0.7559055118110236,"duration":0.42857000000000767},{"name":"A4","midi":69,"time":70.71405000000019,"velocity":0.7559055118110236,"duration":0.4160700416666714},{"name":"C5","midi":72,"time":70.71405000000019,"velocity":0.7559055118110236,"duration":0.4160700416666714},{"name":"A4","midi":69,"time":70.92833500000019,"velocity":0.7559055118110236,"duration":0.21428500000000383},{"name":"C5","midi":72,"time":70.92833500000019,"velocity":0.7559055118110236,"duration":2.9874900416667174},{"name":"F4","midi":65,"time":71.14262000000019,"velocity":0.7559055118110236,"duration":0.21428500000000383},{"name":"A4","midi":69,"time":71.14262000000019,"velocity":0.7559055118110236,"duration":0.21428500000000383},{"name":"A3","midi":57,"time":71.14262000000019,"velocity":0.7559055118110236,"duration":0.42857000000000767},{"name":"C4","midi":60,"time":71.14262000000019,"velocity":0.7559055118110236,"duration":0.42857000000000767},{"name":"F4","midi":65,"time":71.14262000000019,"velocity":0.7559055118110236,"duration":0.42857000000000767},{"name":"A4","midi":69,"time":71.14262000000019,"velocity":0.7559055118110236,"duration":0.42857000000000767},{"name":"F4","midi":65,"time":71.3569050000002,"velocity":0.7559055118110236,"duration":0.42857000000000767},{"name":"A4","midi":69,"time":71.3569050000002,"velocity":0.7559055118110236,"duration":0.42857000000000767},{"name":"F4","midi":65,"time":71.5711900000002,"velocity":0.7559055118110236,"duration":0.4160700416666714},{"name":"A4","midi":69,"time":71.5711900000002,"velocity":0.7559055118110236,"duration":0.4160700416666714},{"name":"F4","midi":65,"time":71.7854750000002,"velocity":0.7559055118110236,"duration":0.21428500000000383},{"name":"A4","midi":69,"time":71.7854750000002,"velocity":0.7559055118110236,"duration":0.21428500000000383},{"name":"F4","midi":65,"time":71.99976000000021,"velocity":0.7559055118110236,"duration":0.21428500000000383},{"name":"A4","midi":69,"time":71.99976000000021,"velocity":0.7559055118110236,"duration":0.21428500000000383},{"name":"A#3","midi":58,"time":71.99976000000021,"velocity":0.7559055118110236,"duration":0.8124972916666735},{"name":"D4","midi":62,"time":71.99976000000021,"velocity":0.7559055118110236,"duration":0.8124972916666735},{"name":"F4","midi":65,"time":71.99976000000021,"velocity":0.7559055118110236,"duration":0.42857000000000767},{"name":"A4","midi":69,"time":71.99976000000021,"velocity":0.7559055118110236,"duration":0.42857000000000767},{"name":"F4","midi":65,"time":72.21404500000021,"velocity":0.7559055118110236,"duration":0.42857000000000767},{"name":"A4","midi":69,"time":72.21404500000021,"velocity":0.7559055118110236,"duration":0.42857000000000767},{"name":"F4","midi":65,"time":72.42833000000022,"velocity":0.7559055118110236,"duration":0.4160700416666714},{"name":"A4","midi":69,"time":72.42833000000022,"velocity":0.7559055118110236,"duration":0.4160700416666714},{"name":"F4","midi":65,"time":72.64261500000022,"velocity":0.7559055118110236,"duration":1.0267822916666773},{"name":"A4","midi":69,"time":72.64261500000022,"velocity":0.7559055118110236,"duration":1.2732100416666867},{"name":"G4","midi":67,"time":72.85690000000022,"velocity":0.7559055118110236,"duration":0.20178504166666755},{"name":"A#4","midi":70,"time":72.85690000000022,"velocity":0.7559055118110236,"duration":0.21428500000000383},{"name":"A#3","midi":58,"time":72.85690000000022,"velocity":0.7559055118110236,"duration":0.8124972916666735},{"name":"D4","midi":62,"time":72.85690000000022,"velocity":0.7559055118110236,"duration":0.8124972916666735},{"name":"F4","midi":65,"time":72.85690000000022,"velocity":0.7559055118110236,"duration":1.0589250416666829},{"name":"A#4","midi":70,"time":72.85690000000022,"velocity":0.7559055118110236,"duration":0.42857000000000767},{"name":"G4","midi":67,"time":73.07118500000023,"velocity":0.7559055118110236,"duration":0.20178504166666755},{"name":"A#4","midi":70,"time":73.07118500000023,"velocity":0.7559055118110236,"duration":0.42857000000000767},{"name":"G4","midi":67,"time":73.28547000000023,"velocity":0.7559055118110236,"duration":0.20178504166666755},{"name":"A#4","midi":70,"time":73.28547000000023,"velocity":0.7559055118110236,"duration":0.4160700416666714},{"name":"G4","midi":67,"time":73.49975500000023,"velocity":0.7559055118110236,"duration":0.20178504166666755},{"name":"A#4","midi":70,"time":73.49975500000023,"velocity":0.7559055118110236,"duration":2.9874900416667316},{"name":"D4","midi":62,"time":73.71404000000024,"velocity":0.7559055118110236,"duration":0.20178504166666755},{"name":"F4","midi":65,"time":73.71404000000024,"velocity":0.7559055118110236,"duration":1.7142800000000449},{"name":"A4","midi":69,"time":73.71404000000024,"velocity":0.7559055118110236,"duration":0.4160700416666714},{"name":"C5","midi":72,"time":73.71404000000024,"velocity":0.7559055118110236,"duration":0.4160700416666714},{"name":"F5","midi":77,"time":73.92832500000024,"velocity":0.8976377952755905,"duration":0.20178504166666755},{"name":"A4","midi":69,"time":73.92832500000024,"velocity":0.7559055118110236,"duration":0.4160700416666714},{"name":"C5","midi":72,"time":73.92832500000024,"velocity":0.7559055118110236,"duration":0.4160700416666714},{"name":"F5","midi":77,"time":74.14261000000025,"velocity":0.8976377952755905,"duration":0.20178504166666755},{"name":"A4","midi":69,"time":74.14261000000025,"velocity":0.7559055118110236,"duration":0.4160700416666714},{"name":"C5","midi":72,"time":74.14261000000025,"velocity":0.7559055118110236,"duration":0.4160700416666714},{"name":"F5","midi":77,"time":74.35689500000025,"velocity":0.8976377952755905,"duration":0.20178504166666755},{"name":"A4","midi":69,"time":74.35689500000025,"velocity":0.7559055118110236,"duration":0.4160700416666714},{"name":"C5","midi":72,"time":74.35689500000025,"velocity":0.7559055118110236,"duration":2.785705000000064},{"name":"F5","midi":77,"time":74.57118000000025,"velocity":0.8976377952755905,"duration":0.3035704166666733},{"name":"A4","midi":69,"time":74.57118000000025,"velocity":0.7559055118110236,"duration":0.4160700416666856},{"name":"A4","midi":69,"time":74.78546500000026,"velocity":0.7559055118110236,"duration":0.4160700416666856},{"name":"A5","midi":81,"time":74.89260750000027,"velocity":0.8976377952755905,"duration":0.3035704166666733},{"name":"A4","midi":69,"time":74.99975000000028,"velocity":0.7559055118110236,"duration":0.4160700416666714},{"name":"A5","midi":81,"time":75.21403500000028,"velocity":0.8976377952755905,"duration":0.20178504166666755},{"name":"A4","midi":69,"time":75.21403500000028,"velocity":0.7559055118110236,"duration":0.21428500000000383},{"name":"F4","midi":65,"time":75.42832000000028,"velocity":0.7559055118110236,"duration":0.21428500000000383},{"name":"A4","midi":69,"time":75.42832000000028,"velocity":0.7559055118110236,"duration":0.21428500000000383},{"name":"A3","midi":57,"time":75.42832000000028,"velocity":0.7559055118110236,"duration":0.42857000000000767},{"name":"D4","midi":62,"time":75.42832000000028,"velocity":0.7559055118110236,"duration":0.8124972916666735},{"name":"F4","midi":65,"time":75.42832000000028,"velocity":0.7559055118110236,"duration":0.42857000000000767},{"name":"A4","midi":69,"time":75.42832000000028,"velocity":0.7559055118110236,"duration":0.42857000000000767},{"name":"F4","midi":65,"time":75.64260500000029,"velocity":0.7559055118110236,"duration":0.42857000000000767},{"name":"A4","midi":69,"time":75.64260500000029,"velocity":0.7559055118110236,"duration":0.42857000000000767},{"name":"F4","midi":65,"time":75.85689000000029,"velocity":0.7559055118110236,"duration":0.4160700416666714},{"name":"A4","midi":69,"time":75.85689000000029,"velocity":0.7559055118110236,"duration":0.4160700416666714},{"name":"F4","midi":65,"time":76.0711750000003,"velocity":0.7559055118110236,"duration":1.0267822916666773},{"name":"A4","midi":69,"time":76.0711750000003,"velocity":0.7559055118110236,"duration":1.0267822916666773},{"name":"G4","midi":67,"time":76.2854600000003,"velocity":0.7559055118110236,"duration":0.20178504166666755},{"name":"A#4","midi":70,"time":76.2854600000003,"velocity":0.7559055118110236,"duration":0.4160700416666714},{"name":"D4","midi":62,"time":76.2854600000003,"velocity":0.7559055118110236,"duration":0.8124972916666735},{"name":"F4","midi":65,"time":76.2854600000003,"velocity":0.7559055118110236,"duration":1.6696372916666888},{"name":"A4","midi":69,"time":76.2854600000003,"velocity":0.7559055118110236,"duration":0.8571400000000153},{"name":"G4","midi":67,"time":76.4997450000003,"velocity":0.7559055118110236,"duration":0.20178504166666755},{"name":"A#4","midi":70,"time":76.4997450000003,"velocity":0.7559055118110236,"duration":0.4160700416666714},{"name":"G4","midi":67,"time":76.7140300000003,"velocity":0.7559055118110236,"duration":0.20178504166666755},{"name":"A#4","midi":70,"time":76.7140300000003,"velocity":0.7559055118110236,"duration":0.4160700416666714},{"name":"G4","midi":67,"time":76.92831500000031,"velocity":0.7559055118110236,"duration":0.20178504166666755},{"name":"A#4","midi":70,"time":76.92831500000031,"velocity":0.7559055118110236,"duration":2.78570500000005},{"name":"A4","midi":69,"time":77.14260000000031,"velocity":0.7559055118110236,"duration":0.21428500000000383},{"name":"C5","midi":72,"time":77.14260000000031,"velocity":0.7559055118110236,"duration":0.21428500000000383},{"name":"D4","midi":62,"time":77.14260000000031,"velocity":0.7559055118110236,"duration":0.8124972916666735},{"name":"F4","midi":65,"time":77.14260000000031,"velocity":0.7559055118110236,"duration":0.8571400000000153},{"name":"A4","midi":69,"time":77.14260000000031,"velocity":0.7559055118110236,"duration":0.42857000000000767},{"name":"C5","midi":72,"time":77.14260000000031,"velocity":0.7559055118110236,"duration":0.42857000000000767},{"name":"A4","midi":69,"time":77.35688500000032,"velocity":0.7559055118110236,"duration":0.42857000000000767},{"name":"C5","midi":72,"time":77.35688500000032,"velocity":0.7559055118110236,"duration":0.42857000000000767},{"name":"A4","midi":69,"time":77.57117000000032,"velocity":0.7559055118110236,"duration":0.4160700416666714},{"name":"C5","midi":72,"time":77.57117000000032,"velocity":0.7559055118110236,"duration":0.4160700416666714},{"name":"A4","midi":69,"time":77.78545500000033,"velocity":0.7559055118110236,"duration":0.21428500000000383},{"name":"C5","midi":72,"time":77.78545500000033,"velocity":0.7559055118110236,"duration":2.78570500000005},{"name":"F4","midi":65,"time":77.99974000000033,"velocity":0.7559055118110236,"duration":0.21428500000000383},{"name":"A4","midi":69,"time":77.99974000000033,"velocity":0.7559055118110236,"duration":0.21428500000000383},{"name":"A3","midi":57,"time":77.99974000000033,"velocity":0.7559055118110236,"duration":0.42857000000000767},{"name":"D4","midi":62,"time":77.99974000000033,"velocity":0.7559055118110236,"duration":0.8124972916666735},{"name":"F4","midi":65,"time":77.99974000000033,"velocity":0.7559055118110236,"duration":0.42857000000000767},{"name":"A4","midi":69,"time":77.99974000000033,"velocity":0.7559055118110236,"duration":0.42857000000000767},{"name":"F4","midi":65,"time":78.21402500000033,"velocity":0.7559055118110236,"duration":0.42857000000000767},{"name":"A4","midi":69,"time":78.21402500000033,"velocity":0.7559055118110236,"duration":0.42857000000000767},{"name":"F4","midi":65,"time":78.42831000000034,"velocity":0.7559055118110236,"duration":0.4160700416666714},{"name":"A4","midi":69,"time":78.42831000000034,"velocity":0.7559055118110236,"duration":0.4160700416666714},{"name":"F4","midi":65,"time":78.64259500000034,"velocity":0.7559055118110236,"duration":0.21428500000000383},{"name":"A4","midi":69,"time":78.64259500000034,"velocity":0.7559055118110236,"duration":0.21428500000000383},{"name":"F4","midi":65,"time":78.85688000000034,"velocity":0.7559055118110236,"duration":0.21428500000000383},{"name":"A4","midi":69,"time":78.85688000000034,"velocity":0.7559055118110236,"duration":0.21428500000000383},{"name":"A#3","midi":58,"time":78.85688000000034,"velocity":0.7559055118110236,"duration":0.8124972916666735},{"name":"D4","midi":62,"time":78.85688000000034,"velocity":0.7559055118110236,"duration":0.8124972916666735},{"name":"F4","midi":65,"time":78.85688000000034,"velocity":0.7559055118110236,"duration":0.42857000000000767},{"name":"A4","midi":69,"time":78.85688000000034,"velocity":0.7559055118110236,"duration":0.42857000000000767},{"name":"F4","midi":65,"time":79.07116500000035,"velocity":0.7559055118110236,"duration":0.42857000000000767},{"name":"A4","midi":69,"time":79.07116500000035,"velocity":0.7559055118110236,"duration":0.42857000000000767},{"name":"F4","midi":65,"time":79.28545000000035,"velocity":0.7559055118110236,"duration":0.4160700416666714},{"name":"A4","midi":69,"time":79.28545000000035,"velocity":0.7559055118110236,"duration":0.4160700416666714},{"name":"F4","midi":65,"time":79.49973500000036,"velocity":0.7559055118110236,"duration":1.0267822916666773},{"name":"A4","midi":69,"time":79.49973500000036,"velocity":0.7559055118110236,"duration":1.0714250000000192},{"name":"G4","midi":67,"time":79.71402000000036,"velocity":0.7559055118110236,"duration":0.20178504166666755},{"name":"A#4","midi":70,"time":79.71402000000036,"velocity":0.7559055118110236,"duration":0.21428500000000383},{"name":"A#3","midi":58,"time":79.71402000000036,"velocity":0.7559055118110236,"duration":0.8124972916666735},{"name":"D4","midi":62,"time":79.71402000000036,"velocity":0.7559055118110236,"duration":0.8124972916666735},{"name":"F4","midi":65,"time":79.71402000000036,"velocity":0.7559055118110236,"duration":1.6696372916666888},{"name":"A#4","midi":70,"time":79.71402000000036,"velocity":0.7559055118110236,"duration":0.42857000000000767},{"name":"G4","midi":67,"time":79.92830500000036,"velocity":0.7559055118110236,"duration":0.20178504166666755},{"name":"A#4","midi":70,"time":79.92830500000036,"velocity":0.7559055118110236,"duration":0.42857000000000767},{"name":"G4","midi":67,"time":80.14259000000037,"velocity":0.7559055118110236,"duration":0.20178504166666755},{"name":"A#4","midi":70,"time":80.14259000000037,"velocity":0.7559055118110236,"duration":0.4160700416666714},{"name":"G4","midi":67,"time":80.35687500000037,"velocity":0.7559055118110236,"duration":0.20178504166666755},{"name":"A#4","midi":70,"time":80.35687500000037,"velocity":0.7559055118110236,"duration":14.98745004166669},{"name":"A4","midi":69,"time":80.57116000000038,"velocity":0.7559055118110236,"duration":0.21428500000000383},{"name":"C5","midi":72,"time":80.57116000000038,"velocity":0.7559055118110236,"duration":0.21428500000000383},{"name":"D4","midi":62,"time":80.57116000000038,"velocity":0.7559055118110236,"duration":0.8124972916666735},{"name":"F4","midi":65,"time":80.57116000000038,"velocity":0.7559055118110236,"duration":1.6696372916666888},{"name":"A4","midi":69,"time":80.57116000000038,"velocity":0.7559055118110236,"duration":0.42857000000000767},{"name":"C5","midi":72,"time":80.57116000000038,"velocity":0.7559055118110236,"duration":0.42857000000000767},{"name":"A4","midi":69,"time":80.78544500000038,"velocity":0.7559055118110236,"duration":0.42857000000000767},{"name":"C5","midi":72,"time":80.78544500000038,"velocity":0.7559055118110236,"duration":0.42857000000000767},{"name":"A4","midi":69,"time":80.99973000000038,"velocity":0.7559055118110236,"duration":0.4160700416666714},{"name":"C5","midi":72,"time":80.99973000000038,"velocity":0.7559055118110236,"duration":0.4160700416666714},{"name":"A4","midi":69,"time":81.21401500000039,"velocity":0.7559055118110236,"duration":12.598172291666671},{"name":"C5","midi":72,"time":81.21401500000039,"velocity":0.7559055118110236,"duration":1.0267822916666773},{"name":"F4","midi":65,"time":81.42830000000039,"velocity":0.6299212598425197,"duration":8.50532879166667},{"name":"C5","midi":72,"time":81.42830000000039,"velocity":0.6299212598425197,"duration":14.976735791666684},{"name":"F3","midi":53,"time":82.28544000000039,"velocity":0.5669291338582677,"duration":2.4410632916666657},{"name":"A3","midi":57,"time":82.28544000000039,"velocity":0.5669291338582677,"duration":2.4410632916666657},{"name":"D4","midi":62,"time":83.1425800000004,"velocity":0.6299212598425197,"duration":0.20178504166666755},{"name":"C4","midi":60,"time":83.3568650000004,"velocity":0.6299212598425197,"duration":0.09999966666666182},{"name":"D4","midi":62,"time":83.46400750000039,"velocity":0.6299212598425197,"duration":0.20178504166666755},{"name":"C4","midi":60,"time":83.6782925000004,"velocity":0.6299212598425197,"duration":0.09999966666666182},{"name":"D4","midi":62,"time":83.78543500000039,"velocity":0.6299212598425197,"duration":0.20178504166666755},{"name":"C4","midi":60,"time":83.9997200000004,"velocity":0.6299212598425197,"duration":0.20178504166666755},{"name":"C4","midi":60,"time":84.2140050000004,"velocity":0.6299212598425197,"duration":0.608926541666662},{"name":"D4","midi":62,"time":84.8568600000004,"velocity":0.6299212598425197,"duration":0.20178504166666755},{"name":"F3","midi":53,"time":84.8568600000004,"velocity":0.5669291338582677,"duration":0.8124972916666735},{"name":"A3","midi":57,"time":84.8568600000004,"velocity":0.5669291338582677,"duration":0.8124972916666735},{"name":"C4","midi":60,"time":85.0711450000004,"velocity":0.6299212598425197,"duration":0.09999966666666182},{"name":"D4","midi":62,"time":85.1782875000004,"velocity":0.6299212598425197,"duration":0.20178504166666755},{"name":"C4","midi":60,"time":85.3925725000004,"velocity":0.6299212598425197,"duration":0.914282666666665},{"name":"A#3","midi":58,"time":85.7140000000004,"velocity":0.5669291338582677,"duration":3.255346291666669},{"name":"D4","midi":62,"time":85.7140000000004,"velocity":0.5669291338582677,"duration":0.8571400000000011},{"name":"C4","midi":60,"time":86.3568550000004,"velocity":0.6299212598425197,"duration":0.20178504166666755},{"name":"D4","midi":62,"time":86.5711400000004,"velocity":0.6299212598425197,"duration":0.32142749999999864},{"name":"C4","midi":60,"time":86.7854250000004,"velocity":0.6299212598425197,"duration":0.09999966666666182},{"name":"D4","midi":62,"time":86.8925675000004,"velocity":0.6299212598425197,"duration":0.32142749999999864},{"name":"C4","midi":60,"time":87.1068525000004,"velocity":0.6299212598425197,"duration":0.09999966666666182},{"name":"D4","midi":62,"time":87.2139950000004,"velocity":0.6299212598425197,"duration":1.071425000000005},{"name":"C4","midi":60,"time":87.4282800000004,"velocity":0.6299212598425197,"duration":0.20178504166666755},{"name":"C4","midi":60,"time":87.6425650000004,"velocity":0.6299212598425197,"duration":0.4053557916666648},{"name":"C4","midi":60,"time":88.0711350000004,"velocity":0.6299212598425197,"duration":0.20178504166666755},{"name":"D4","midi":62,"time":88.2854200000004,"velocity":0.6299212598425197,"duration":0.6839262916666655},{"name":"F4","midi":65,"time":88.7139900000004,"velocity":0.6299212598425197,"duration":3.405345791666676},{"name":"A3","midi":57,"time":89.1425600000004,"velocity":0.6141732283464567,"duration":2.4410632916666657},{"name":"D4","midi":62,"time":89.1425600000004,"velocity":0.5669291338582677,"duration":0.8571399999999869},{"name":"D4","midi":62,"time":89.99970000000039,"velocity":0.6299212598425197,"duration":0.32142749999999864},{"name":"C4","midi":60,"time":90.21398500000039,"velocity":0.6299212598425197,"duration":0.09999966666666182},{"name":"D4","midi":62,"time":90.32112750000039,"velocity":0.6299212598425197,"duration":0.32142749999999864},{"name":"C4","midi":60,"time":90.53541250000039,"velocity":0.6299212598425197,"duration":0.09999966666666182},{"name":"D4","midi":62,"time":90.64255500000039,"velocity":0.6299212598425197,"duration":0.9410682916666815},{"name":"C4","midi":60,"time":90.85684000000039,"velocity":0.6299212598425197,"duration":0.20178504166666755},{"name":"C4","midi":60,"time":91.0711250000004,"velocity":0.6299212598425197,"duration":0.6089265416666763},{"name":"F4","midi":65,"time":91.7139800000004,"velocity":0.6614173228346457,"duration":2.9874900416666463},{"name":"A3","midi":57,"time":91.7139800000004,"velocity":0.5669291338582677,"duration":0.8124972916666593},{"name":"D4","midi":62,"time":91.7139800000004,"velocity":0.5669291338582677,"duration":0.8124972916666593},{"name":"G4","midi":67,"time":92.1425500000004,"velocity":0.6299212598425197,"duration":0.8124972916666593},{"name":"A#3","midi":58,"time":92.57112000000039,"velocity":0.5669291338582677,"duration":1.6267802916666625},{"name":"D4","midi":62,"time":92.57112000000039,"velocity":0.5669291338582677,"duration":1.6267802916666625},{"name":"A4","midi":69,"time":92.99969000000038,"velocity":0.6299212598425197,"duration":2.5589200416666813},{"name":"G4","midi":67,"time":93.85683000000039,"velocity":0.6299212598425197,"duration":0.4053557916666648},{"name":"A#3","midi":58,"time":94.28540000000038,"velocity":0.5669291338582677,"duration":0.8124972916666735},{"name":"D4","midi":62,"time":94.28540000000038,"velocity":0.5669291338582677,"duration":0.8124972916666735},{"name":"F4","midi":65,"time":94.49968500000038,"velocity":0.6299212598425197,"duration":0.4160700416666714},{"name":"F4","midi":65,"time":94.71397000000039,"velocity":0.6299212598425197,"duration":1.2732100416666867},{"name":"G4","midi":67,"time":94.92825500000039,"velocity":0.6299212598425197,"duration":0.20178504166666755},{"name":"A#4","midi":70,"time":95.1425400000004,"velocity":0.6299212598425197,"duration":26.751696541666504},{"name":"A#3","midi":58,"time":95.1425400000004,"velocity":0.5669291338582677,"duration":0.8124972916666735},{"name":"E4","midi":64,"time":95.1425400000004,"velocity":0.5669291338582677,"duration":0.8124972916666735},{"name":"A4","midi":69,"time":95.3568250000004,"velocity":0.6299212598425197,"duration":3.105346791666662},{"name":"G4","midi":67,"time":95.5711100000004,"velocity":0.6299212598425197,"duration":0.20178504166666755},{"name":"F4","midi":65,"time":95.7853950000004,"velocity":0.6299212598425197,"duration":1.0267822916666631},{"name":"C5","midi":72,"time":95.99968000000041,"velocity":0.7559055118110236,"duration":2.9874900416666463},{"name":"C4","midi":60,"time":95.99968000000041,"velocity":0.6299212598425197,"duration":0.8124972916666593},{"name":"F4","midi":65,"time":95.99968000000041,"velocity":0.6299212598425197,"duration":1.6696372916666604},{"name":"A4","midi":69,"time":96.4282500000004,"velocity":0.7559055118110236,"duration":2.344635041666649},{"name":"C4","midi":60,"time":96.8568200000004,"velocity":0.6299212598425197,"duration":0.8124972916666735},{"name":"F4","midi":65,"time":96.8568200000004,"velocity":0.6299212598425197,"duration":1.6696372916666604},{"name":"C4","midi":60,"time":97.7139600000004,"velocity":0.6299212598425197,"duration":0.8124972916666593},{"name":"F4","midi":65,"time":97.7139600000004,"velocity":0.6299212598425197,"duration":1.6696372916666604},{"name":"A4","midi":69,"time":98.57110000000038,"velocity":0.7559055118110236,"duration":0.6303550416666752},{"name":"C4","midi":60,"time":98.57110000000038,"velocity":0.6299212598425197,"duration":0.8124972916666735},{"name":"F4","midi":65,"time":98.57110000000038,"velocity":0.6299212598425197,"duration":1.6696372916666746},{"name":"C5","midi":72,"time":98.78538500000039,"velocity":0.7559055118110236,"duration":1.2732100416666725},{"name":"A4","midi":69,"time":98.99967000000039,"velocity":0.7559055118110236,"duration":1.905350791666649},{"name":"D5","midi":74,"time":99.2139550000004,"velocity":0.7559055118110236,"duration":0.608926541666662},{"name":"D4","midi":62,"time":99.42824000000039,"velocity":0.6299212598425197,"duration":0.8124972916666735},{"name":"F4","midi":65,"time":99.42824000000039,"velocity":0.6299212598425197,"duration":1.6696372916666462},{"name":"C5","midi":72,"time":99.8568100000004,"velocity":0.7559055118110236,"duration":0.6196407916666544},{"name":"C5","midi":72,"time":100.0710950000004,"velocity":0.7559055118110236,"duration":3.6196307916666086},{"name":"D4","midi":62,"time":100.28538000000039,"velocity":0.6299212598425197,"duration":0.8124972916666451},{"name":"F4","midi":65,"time":100.28538000000039,"velocity":0.6299212598425197,"duration":1.6696372916666462},{"name":"A4","midi":69,"time":100.49966500000038,"velocity":0.7559055118110236,"duration":1.44463804166665},{"name":"A4","midi":69,"time":100.92823500000037,"velocity":0.7559055118110236,"duration":1.9285649999999777},{"name":"D4","midi":62,"time":101.14252000000036,"velocity":0.6299212598425197,"duration":0.8124972916666735},{"name":"F4","midi":65,"time":101.14252000000036,"velocity":0.6299212598425197,"duration":1.2857099999999946},{"name":"D4","midi":62,"time":101.99966000000036,"velocity":0.6299212598425197,"duration":0.8124972916666593},{"name":"F4","midi":65,"time":101.99966000000036,"velocity":0.5511811023622047,"duration":0.8339257916666583},{"name":"F4","midi":65,"time":102.42823000000035,"velocity":0.7874015748031497,"duration":1.2410672916666527},{"name":"A4","midi":69,"time":102.85680000000035,"velocity":0.7559055118110236,"duration":0.8124972916666593},{"name":"F4","midi":65,"time":102.85680000000035,"velocity":0.6299212598425197,"duration":1.6696372916666462},{"name":"A4","midi":69,"time":102.85680000000035,"velocity":0.6299212598425197,"duration":1.6696372916666462},{"name":"C5","midi":72,"time":103.28537000000034,"velocity":0.7559055118110236,"duration":2.1196357916666386},{"name":"D5","midi":74,"time":103.71394000000033,"velocity":0.7559055118110236,"duration":0.4053557916666648},{"name":"F4","midi":65,"time":103.71394000000033,"velocity":0.6299212598425197,"duration":1.6696372916666462},{"name":"A4","midi":69,"time":103.71394000000033,"velocity":0.6299212598425197,"duration":1.6696372916666462},{"name":"E5","midi":76,"time":104.14251000000033,"velocity":0.7559055118110236,"duration":0.4053557916666648},{"name":"D5","midi":74,"time":104.57108000000032,"velocity":0.7559055118110236,"duration":0.4053557916666648},{"name":"F4","midi":65,"time":104.57108000000032,"velocity":0.6299212598425197,"duration":1.2857099999999804},{"name":"A4","midi":69,"time":104.57108000000032,"velocity":0.6299212598425197,"duration":0.8571399999999869},{"name":"C5","midi":72,"time":104.99965000000032,"velocity":0.7559055118110236,"duration":2.1196357916666386},{"name":"A4","midi":69,"time":105.42822000000031,"velocity":0.7559055118110236,"duration":0.8124972916666593},{"name":"F4","midi":65,"time":105.42822000000031,"velocity":0.6299212598425197,"duration":0.8339257916666583},{"name":"A4","midi":69,"time":105.42822000000031,"velocity":0.6299212598425197,"duration":1.2624957916666517},{"name":"F4","midi":65,"time":105.8567900000003,"velocity":0.7559055118110236,"duration":1.2410672916666527},{"name":"A4","midi":69,"time":106.2853600000003,"velocity":0.7559055118110236,"duration":2.7732050416666283},{"name":"D4","midi":62,"time":106.2853600000003,"velocity":0.6299212598425197,"duration":0.8124972916666593},{"name":"F4","midi":65,"time":106.2853600000003,"velocity":0.6299212598425197,"duration":1.6696372916666462},{"name":"C5","midi":72,"time":106.71393000000029,"velocity":0.7559055118110236,"duration":2.1196357916666386},{"name":"D5","midi":74,"time":107.14250000000028,"velocity":0.7559055118110236,"duration":0.4053557916666648},{"name":"D4","midi":62,"time":107.14250000000028,"velocity":0.6299212598425197,"duration":0.8124972916666593},{"name":"F4","midi":65,"time":107.14250000000028,"velocity":0.6299212598425197,"duration":1.6696372916666462},{"name":"E5","midi":76,"time":107.57107000000028,"velocity":0.7559055118110236,"duration":0.4053557916666648},{"name":"D5","midi":74,"time":107.99964000000027,"velocity":0.7559055118110236,"duration":0.4053557916666648},{"name":"D4","midi":62,"time":107.99964000000027,"velocity":0.6299212598425197,"duration":0.8124972916666593},{"name":"F4","midi":65,"time":107.99964000000027,"velocity":0.6299212598425197,"duration":1.2857099999999946},{"name":"C5","midi":72,"time":108.42821000000026,"velocity":0.7559055118110236,"duration":1.680351541666667},{"name":"A4","midi":69,"time":108.85678000000026,"velocity":0.7559055118110236,"duration":3.3196317916666658},{"name":"D4","midi":62,"time":108.85678000000026,"velocity":0.6299212598425197,"duration":0.8124972916666735},{"name":"F4","midi":65,"time":108.85678000000026,"velocity":0.6299212598425197,"duration":0.8124972916666735},{"name":"G4","midi":67,"time":109.07106500000026,"velocity":0.7559055118110236,"duration":0.20178504166666755},{"name":"F4","midi":65,"time":109.28535000000026,"velocity":0.7559055118110236,"duration":0.630355041666661},{"name":"C5","midi":72,"time":109.49963500000027,"velocity":0.7874015748031497,"duration":4.2732000416666835},{"name":"F4","midi":65,"time":109.71392000000026,"velocity":0.7401574803149606,"duration":2.773205041666671},{"name":"A3","midi":57,"time":109.92820500000026,"velocity":0.6299212598425197,"duration":0.4053557916666648},{"name":"C4","midi":60,"time":109.92820500000026,"velocity":0.6299212598425197,"duration":0.4053557916666648},{"name":"A4","midi":69,"time":110.14249000000027,"velocity":0.7874015748031497,"duration":4.476770791666695},{"name":"A3","midi":57,"time":110.35677500000025,"velocity":0.6299212598425197,"duration":0.20178504166666755},{"name":"C4","midi":60,"time":110.35677500000025,"velocity":0.6299212598425197,"duration":0.20178504166666755},{"name":"G4","midi":67,"time":110.57106000000026,"velocity":0.7401574803149606,"duration":0.20178504166666755},{"name":"A3","midi":57,"time":110.78534500000026,"velocity":0.6299212598425197,"duration":0.4053557916666648},{"name":"C4","midi":60,"time":110.78534500000026,"velocity":0.6299212598425197,"duration":0.4053557916666648},{"name":"A3","midi":57,"time":111.21391500000026,"velocity":0.6299212598425197,"duration":0.20178504166666755},{"name":"C4","midi":60,"time":111.21391500000026,"velocity":0.6299212598425197,"duration":0.20178504166666755},{"name":"E4","midi":64,"time":111.42820000000026,"velocity":0.7401574803149606,"duration":0.20178504166666755},{"name":"A3","midi":57,"time":111.64248500000026,"velocity":0.6299212598425197,"duration":0.4053557916666648},{"name":"C4","midi":60,"time":111.64248500000026,"velocity":0.6299212598425197,"duration":0.4053557916666648},{"name":"A3","midi":57,"time":112.07105500000026,"velocity":0.6299212598425197,"duration":0.20178504166666755},{"name":"C4","midi":60,"time":112.07105500000026,"velocity":0.6299212598425197,"duration":0.20178504166666755},{"name":"F4","midi":65,"time":112.28534000000026,"velocity":0.7401574803149606,"duration":0.6303550416666752},{"name":"A3","midi":57,"time":112.49962500000026,"velocity":0.6299212598425197,"duration":0.6089265416666763},{"name":"C4","midi":60,"time":112.49962500000026,"velocity":0.6299212598425197,"duration":0.6089265416666763},{"name":"F4","midi":65,"time":112.71391000000027,"velocity":0.7874015748031497,"duration":0.6303550416666752},{"name":"D5","midi":74,"time":112.92819500000027,"velocity":0.7874015748031497,"duration":0.6089265416666763},{"name":"F4","midi":65,"time":113.14248000000028,"velocity":0.7401574803149606,"duration":2.773205041666685},{"name":"D4","midi":62,"time":113.35676500000028,"velocity":0.6299212598425197,"duration":0.4053557916666648},{"name":"C5","midi":72,"time":113.57105000000028,"velocity":0.7874015748031497,"duration":0.6196407916666686},{"name":"C5","midi":72,"time":113.78533500000029,"velocity":0.7874015748031497,"duration":3.6196307916666512},{"name":"D4","midi":62,"time":113.78533500000029,"velocity":0.6299212598425197,"duration":0.20178504166666755},{"name":"G4","midi":67,"time":113.99962000000029,"velocity":0.7401574803149606,"duration":0.20178504166666755},{"name":"A4","midi":69,"time":114.2139050000003,"velocity":0.7874015748031497,"duration":1.851779541666673},{"name":"A#3","midi":58,"time":114.2139050000003,"velocity":0.6299212598425197,"duration":0.4053557916666648},{"name":"D4","midi":62,"time":114.2139050000003,"velocity":0.6299212598425197,"duration":0.4053557916666648},{"name":"A4","midi":69,"time":114.64247500000029,"velocity":0.7874015748031497,"duration":2.333920791666671},{"name":"A#3","midi":58,"time":114.64247500000029,"velocity":0.6299212598425197,"duration":0.20178504166666755},{"name":"D4","midi":62,"time":114.64247500000029,"velocity":0.6299212598425197,"duration":0.20178504166666755},{"name":"E4","midi":64,"time":114.85676000000029,"velocity":0.7401574803149606,"duration":0.20178504166666755},{"name":"A#3","midi":58,"time":115.0710450000003,"velocity":0.6299212598425197,"duration":0.4053557916666648},{"name":"D4","midi":62,"time":115.0710450000003,"velocity":0.6299212598425197,"duration":0.4053557916666648},{"name":"A#3","midi":58,"time":115.49961500000029,"velocity":0.6299212598425197,"duration":0.20178504166666755},{"name":"D4","midi":62,"time":115.49961500000029,"velocity":0.6299212598425197,"duration":0.20178504166666755},{"name":"F4","midi":65,"time":115.7139000000003,"velocity":0.7401574803149606,"duration":0.8339257916666583},{"name":"A#3","midi":58,"time":115.9281850000003,"velocity":0.6299212598425197,"duration":0.4053557916666648},{"name":"D4","midi":62,"time":115.9281850000003,"velocity":0.6299212598425197,"duration":0.4053557916666648},{"name":"F4","midi":65,"time":116.1424700000003,"velocity":0.7874015748031497,"duration":0.630355041666661},{"name":"A#3","midi":58,"time":116.35675500000029,"velocity":0.6299212598425197,"duration":0.20178504166666755},{"name":"D4","midi":62,"time":116.35675500000029,"velocity":0.6299212598425197,"duration":0.20178504166666755},{"name":"A4","midi":69,"time":116.5710400000003,"velocity":0.7874015748031497,"duration":2.9767757916666255},{"name":"F4","midi":65,"time":116.5710400000003,"velocity":0.7401574803149606,"duration":1.4767807916666413},{"name":"A3","midi":57,"time":116.7853250000003,"velocity":0.6299212598425197,"duration":0.4053557916666506},{"name":"D4","midi":62,"time":116.7853250000003,"velocity":0.6299212598425197,"duration":0.4053557916666506},{"name":"C5","midi":72,"time":116.99961000000029,"velocity":0.7874015748031497,"duration":2.1196357916666244},{"name":"D4","midi":62,"time":117.21389500000028,"velocity":0.6299212598425197,"duration":0.20178504166666755},{"name":"D5","midi":74,"time":117.42818000000028,"velocity":0.7874015748031497,"duration":0.4053557916666648},{"name":"G4","midi":67,"time":117.42818000000028,"velocity":0.7401574803149606,"duration":0.20178504166666755},{"name":"D4","midi":62,"time":117.64246500000029,"velocity":0.6299212598425197,"duration":0.4053557916666506},{"name":"F4","midi":65,"time":117.64246500000029,"velocity":0.6299212598425197,"duration":0.6303550416666468},{"name":"E5","midi":76,"time":117.85675000000028,"velocity":0.7874015748031497,"duration":0.4053557916666506},{"name":"D4","midi":62,"time":118.07103500000026,"velocity":0.6299212598425197,"duration":0.20178504166666755},{"name":"F4","midi":65,"time":118.07103500000026,"velocity":0.6299212598425197,"duration":1.2732100416666583},{"name":"D5","midi":74,"time":118.28532000000027,"velocity":0.7874015748031497,"duration":0.4053557916666648},{"name":"E4","midi":64,"time":118.28532000000027,"velocity":0.7401574803149606,"duration":0.20178504166666755},{"name":"D4","midi":62,"time":118.49960500000027,"velocity":0.6299212598425197,"duration":0.4053557916666506},{"name":"C5","midi":72,"time":118.71389000000026,"velocity":0.7874015748031497,"duration":2.1196357916666386},{"name":"D4","midi":62,"time":118.92817500000025,"velocity":0.6299212598425197,"duration":0.20178504166666755},{"name":"A4","midi":69,"time":119.14246000000026,"velocity":0.7874015748031497,"duration":1.2624957916666517},{"name":"F4","midi":65,"time":119.14246000000026,"velocity":0.7401574803149606,"duration":0.833925791666644},{"name":"A3","midi":57,"time":119.35674500000026,"velocity":0.6299212598425197,"duration":0.4053557916666506},{"name":"D4","midi":62,"time":119.35674500000026,"velocity":0.6299212598425197,"duration":0.4053557916666506},{"name":"F4","midi":65,"time":119.57103000000025,"velocity":0.7874015748031497,"duration":1.6803515416666528},{"name":"A3","midi":57,"time":119.78531500000024,"velocity":0.6299212598425197,"duration":0.20178504166666755},{"name":"D4","midi":62,"time":119.78531500000024,"velocity":0.6299212598425197,"duration":0.20178504166666755},{"name":"A4","midi":69,"time":119.99960000000024,"velocity":0.7874015748031497,"duration":3.4285600000000187},{"name":"A#3","midi":58,"time":119.99960000000024,"velocity":0.6299212598425197,"duration":0.608926541666662},{"name":"D4","midi":62,"time":119.99960000000024,"velocity":0.6299212598425197,"duration":0.608926541666662},{"name":"C5","midi":72,"time":120.42817000000024,"velocity":0.7874015748031497,"duration":3.812487291666713},{"name":"D4","midi":62,"time":120.64245500000024,"velocity":0.6299212598425197,"duration":0.608926541666662},{"name":"F4","midi":65,"time":120.64245500000024,"velocity":0.6299212598425197,"duration":1.2517815416666593},{"name":"D5","midi":74,"time":120.85674000000023,"velocity":0.7874015748031497,"duration":0.8124972916666735},{"name":"D4","midi":62,"time":121.28531000000024,"velocity":0.6299212598425197,"duration":0.608926541666662},{"name":"F4","midi":65,"time":121.28531000000024,"velocity":0.6299212598425197,"duration":1.2517815416666735},{"name":"A#4","midi":70,"time":121.28531000000024,"velocity":0.5511811023622047,"duration":1.2517815416666735},{"name":"F5","midi":77,"time":121.92816500000023,"velocity":0.7874015748031497,"duration":0.20178504166666755},{"name":"F4","midi":65,"time":121.92816500000023,"velocity":0.6299212598425197,"duration":1.4553522916666992},{"name":"A#4","midi":70,"time":121.92816500000023,"velocity":0.6299212598425197,"duration":1.4553522916666992},{"name":"D5","midi":74,"time":121.92816500000023,"velocity":0.6299212598425197,"duration":0.6089265416666763},{"name":"F5","midi":77,"time":122.14245000000024,"velocity":0.7874015748031497,"duration":0.20178504166666755},{"name":"F5","midi":77,"time":122.35673500000024,"velocity":0.7874015748031497,"duration":0.20178504166666755},{"name":"F5","midi":77,"time":122.57102000000025,"velocity":0.7874015748031497,"duration":0.3035704166666733},{"name":"F4","midi":65,"time":122.57102000000025,"velocity":0.6299212598425197,"duration":1.2732100416666867},{"name":"A#4","midi":70,"time":122.57102000000025,"velocity":0.6299212598425197,"duration":1.9160650416667124},{"name":"D5","midi":74,"time":122.57102000000025,"velocity":0.6299212598425197,"duration":0.8124972916666877},{"name":"A5","midi":81,"time":122.89244750000026,"velocity":0.7874015748031497,"duration":0.3035704166666733},{"name":"A5","midi":81,"time":123.21387500000027,"velocity":0.7874015748031497,"duration":1.0160680416666708},{"name":"A4","midi":69,"time":123.42816000000026,"velocity":0.7559055118110236,"duration":0.21428500000000383},{"name":"C5","midi":72,"time":123.42816000000026,"velocity":0.7559055118110236,"duration":1.7142800000000449},{"name":"F5","midi":77,"time":123.42816000000026,"velocity":0.7559055118110236,"duration":0.8124972916666877},{"name":"A4","midi":69,"time":123.42816000000026,"velocity":0.7559055118110236,"duration":0.42857000000000767},{"name":"F4","midi":65,"time":123.64244500000027,"velocity":0.7559055118110236,"duration":0.4160700416666714},{"name":"A4","midi":69,"time":123.64244500000027,"velocity":0.7559055118110236,"duration":0.42857000000000767},{"name":"F4","midi":65,"time":123.85673000000027,"velocity":0.7559055118110236,"duration":0.4160700416666856},{"name":"A4","midi":69,"time":123.85673000000027,"velocity":0.7559055118110236,"duration":0.4160700416666856},{"name":"F4","midi":65,"time":124.07101500000027,"velocity":0.7559055118110236,"duration":1.0267822916666915},{"name":"A4","midi":69,"time":124.07101500000027,"velocity":0.7559055118110236,"duration":1.0267822916666915},{"name":"G4","midi":67,"time":124.28530000000029,"velocity":0.7559055118110236,"duration":0.20178504166666755},{"name":"A#4","midi":70,"time":124.28530000000029,"velocity":0.7559055118110236,"duration":0.4160700416666714},{"name":"C4","midi":60,"time":124.28530000000029,"velocity":0.7559055118110236,"duration":0.42857000000000767},{"name":"F4","midi":65,"time":124.28530000000029,"velocity":0.7559055118110236,"duration":1.6696372916666888},{"name":"A4","midi":69,"time":124.28530000000029,"velocity":0.7559055118110236,"duration":0.8571400000000153},{"name":"G4","midi":67,"time":124.4995850000003,"velocity":0.7559055118110236,"duration":0.20178504166666755},{"name":"A#4","midi":70,"time":124.4995850000003,"velocity":0.7559055118110236,"duration":0.4160700416666714},{"name":"G4","midi":67,"time":124.7138700000003,"velocity":0.7559055118110236,"duration":0.20178504166666755},{"name":"A#4","midi":70,"time":124.7138700000003,"velocity":0.7559055118110236,"duration":0.4160700416666714},{"name":"G4","midi":67,"time":124.9281550000003,"velocity":0.7559055118110236,"duration":0.20178504166666755},{"name":"A#4","midi":70,"time":124.9281550000003,"velocity":0.7559055118110236,"duration":2.78570500000005},{"name":"A4","midi":69,"time":125.1424400000003,"velocity":0.7559055118110236,"duration":0.21428500000000383},{"name":"C5","midi":72,"time":125.1424400000003,"velocity":0.7559055118110236,"duration":0.21428500000000383},{"name":"C4","midi":60,"time":125.1424400000003,"velocity":0.7559055118110236,"duration":0.42857000000000767},{"name":"F4","midi":65,"time":125.1424400000003,"velocity":0.7559055118110236,"duration":0.8571400000000153},{"name":"A4","midi":69,"time":125.1424400000003,"velocity":0.7559055118110236,"duration":0.42857000000000767},{"name":"C5","midi":72,"time":125.1424400000003,"velocity":0.7559055118110236,"duration":0.42857000000000767},{"name":"A4","midi":69,"time":125.35672500000031,"velocity":0.7559055118110236,"duration":0.42857000000000767},{"name":"C5","midi":72,"time":125.35672500000031,"velocity":0.7559055118110236,"duration":0.42857000000000767},{"name":"A4","midi":69,"time":125.57101000000031,"velocity":0.7559055118110236,"duration":0.4160700416666714},{"name":"C5","midi":72,"time":125.57101000000031,"velocity":0.7559055118110236,"duration":0.4160700416666714},{"name":"A4","midi":69,"time":125.78529500000032,"velocity":0.7559055118110236,"duration":0.21428500000000383},{"name":"C5","midi":72,"time":125.78529500000032,"velocity":0.7559055118110236,"duration":2.9874900416666748},{"name":"F4","midi":65,"time":125.99958000000032,"velocity":0.7559055118110236,"duration":0.21428500000000383},{"name":"A4","midi":69,"time":125.99958000000032,"velocity":0.7559055118110236,"duration":0.21428500000000383},{"name":"A3","midi":57,"time":125.99958000000032,"velocity":0.7559055118110236,"duration":0.42857000000000767},{"name":"C4","midi":60,"time":125.99958000000032,"velocity":0.7559055118110236,"duration":0.42857000000000767},{"name":"F4","midi":65,"time":125.99958000000032,"velocity":0.7559055118110236,"duration":0.42857000000000767},{"name":"A4","midi":69,"time":125.99958000000032,"velocity":0.7559055118110236,"duration":0.42857000000000767},{"name":"F4","midi":65,"time":126.21386500000033,"velocity":0.7559055118110236,"duration":0.42857000000000767},{"name":"A4","midi":69,"time":126.21386500000033,"velocity":0.7559055118110236,"duration":0.42857000000000767},{"name":"F4","midi":65,"time":126.42815000000033,"velocity":0.7559055118110236,"duration":0.4160700416666714},{"name":"A4","midi":69,"time":126.42815000000033,"velocity":0.7559055118110236,"duration":0.4160700416666714},{"name":"F4","midi":65,"time":126.64243500000033,"velocity":0.7559055118110236,"duration":0.21428500000000383},{"name":"A4","midi":69,"time":126.64243500000033,"velocity":0.7559055118110236,"duration":0.21428500000000383},{"name":"F4","midi":65,"time":126.85672000000034,"velocity":0.7559055118110236,"duration":0.21428500000000383},{"name":"A4","midi":69,"time":126.85672000000034,"velocity":0.7559055118110236,"duration":0.21428500000000383},{"name":"A#3","midi":58,"time":126.85672000000034,"velocity":0.7559055118110236,"duration":0.8124972916666735},{"name":"D4","midi":62,"time":126.85672000000034,"velocity":0.7559055118110236,"duration":0.8124972916666735},{"name":"F4","midi":65,"time":126.85672000000034,"velocity":0.7559055118110236,"duration":0.42857000000000767},{"name":"A4","midi":69,"time":126.85672000000034,"velocity":0.7559055118110236,"duration":0.42857000000000767},{"name":"F4","midi":65,"time":127.07100500000034,"velocity":0.7559055118110236,"duration":0.42857000000000767},{"name":"A4","midi":69,"time":127.07100500000034,"velocity":0.7559055118110236,"duration":0.42857000000000767},{"name":"F4","midi":65,"time":127.28529000000034,"velocity":0.7559055118110236,"duration":0.4160700416666714},{"name":"A4","midi":69,"time":127.28529000000034,"velocity":0.7559055118110236,"duration":0.4160700416666714},{"name":"F4","midi":65,"time":127.49957500000035,"velocity":0.7559055118110236,"duration":1.0267822916666631},{"name":"A4","midi":69,"time":127.49957500000035,"velocity":0.7559055118110236,"duration":1.273210041666644},{"name":"G4","midi":67,"time":127.71386000000035,"velocity":0.7559055118110236,"duration":0.20178504166666755},{"name":"A#4","midi":70,"time":127.71386000000035,"velocity":0.7559055118110236,"duration":0.21428500000000383},{"name":"A#3","midi":58,"time":127.71386000000035,"velocity":0.7559055118110236,"duration":0.8124972916666593},{"name":"D4","midi":62,"time":127.71386000000035,"velocity":0.7559055118110236,"duration":0.8124972916666593},{"name":"F4","midi":65,"time":127.71386000000035,"velocity":0.7559055118110236,"duration":1.0589250416666403},{"name":"A#4","midi":70,"time":127.71386000000035,"velocity":0.7559055118110236,"duration":0.42857000000000767},{"name":"G4","midi":67,"time":127.92814500000036,"velocity":0.7559055118110236,"duration":0.20178504166666755},{"name":"A#4","midi":70,"time":127.92814500000036,"velocity":0.7559055118110236,"duration":0.42856999999999346},{"name":"G4","midi":67,"time":128.14243000000036,"velocity":0.7559055118110236,"duration":0.20178504166665334},{"name":"A#4","midi":70,"time":128.14243000000036,"velocity":0.7559055118110236,"duration":0.41607004166664296},{"name":"G4","midi":67,"time":128.35671500000035,"velocity":0.7559055118110236,"duration":0.20178504166665334},{"name":"A#4","midi":70,"time":128.35671500000035,"velocity":0.7559055118110236,"duration":2.9874900416665184},{"name":"D4","midi":62,"time":128.57100000000034,"velocity":0.7559055118110236,"duration":0.20178504166665334},{"name":"F4","midi":65,"time":128.57100000000034,"velocity":0.7559055118110236,"duration":1.714279999999917},{"name":"A4","midi":69,"time":128.57100000000034,"velocity":0.7559055118110236,"duration":0.41607004166664296},{"name":"C5","midi":72,"time":128.57100000000034,"velocity":0.7559055118110236,"duration":0.41607004166664296},{"name":"F5","midi":77,"time":128.78528500000033,"velocity":0.8976377952755905,"duration":0.20178504166665334},{"name":"A4","midi":69,"time":128.78528500000033,"velocity":0.7559055118110236,"duration":0.41607004166664296},{"name":"C5","midi":72,"time":128.78528500000033,"velocity":0.7559055118110236,"duration":0.41607004166664296},{"name":"F5","midi":77,"time":128.99957000000032,"velocity":0.8976377952755905,"duration":0.20178504166665334},{"name":"A4","midi":69,"time":128.99957000000032,"velocity":0.7559055118110236,"duration":0.41607004166664296},{"name":"C5","midi":72,"time":128.99957000000032,"velocity":0.7559055118110236,"duration":0.41607004166664296},{"name":"F5","midi":77,"time":129.2138550000003,"velocity":0.8976377952755905,"duration":0.20178504166665334},{"name":"A4","midi":69,"time":129.2138550000003,"velocity":0.7559055118110236,"duration":0.41607004166664296},{"name":"C5","midi":72,"time":129.2138550000003,"velocity":0.7559055118110236,"duration":2.785704999999865},{"name":"F5","midi":77,"time":129.4281400000003,"velocity":0.8976377952755905,"duration":0.30357041666664486},{"name":"A4","midi":69,"time":129.4281400000003,"velocity":0.7559055118110236,"duration":0.41607004166664296},{"name":"A4","midi":69,"time":129.6424250000003,"velocity":0.7559055118110236,"duration":0.41607004166664296},{"name":"A5","midi":81,"time":129.74956750000027,"velocity":0.8976377952755905,"duration":0.3035704166666733},{"name":"A4","midi":69,"time":129.85671000000028,"velocity":0.7559055118110236,"duration":0.41607004166664296},{"name":"A5","midi":81,"time":130.07099500000027,"velocity":0.8976377952755905,"duration":0.20178504166665334},{"name":"A4","midi":69,"time":130.07099500000027,"velocity":0.7559055118110236,"duration":0.21428499999998962},{"name":"F4","midi":65,"time":130.28528000000026,"velocity":0.7559055118110236,"duration":0.21428499999998962},{"name":"A4","midi":69,"time":130.28528000000026,"velocity":0.7559055118110236,"duration":0.21428499999998962},{"name":"A3","midi":57,"time":130.28528000000026,"velocity":0.7559055118110236,"duration":0.42856999999997925},{"name":"D4","midi":62,"time":130.28528000000026,"velocity":0.7559055118110236,"duration":0.8124972916666309},{"name":"F4","midi":65,"time":130.28528000000026,"velocity":0.7559055118110236,"duration":0.42856999999997925},{"name":"A4","midi":69,"time":130.28528000000026,"velocity":0.7559055118110236,"duration":0.42856999999997925},{"name":"F4","midi":65,"time":130.49956500000025,"velocity":0.7559055118110236,"duration":0.42856999999997925},{"name":"A4","midi":69,"time":130.49956500000025,"velocity":0.7559055118110236,"duration":0.42856999999997925},{"name":"F4","midi":65,"time":130.71385000000024,"velocity":0.7559055118110236,"duration":0.41607004166664296},{"name":"A4","midi":69,"time":130.71385000000024,"velocity":0.7559055118110236,"duration":0.41607004166664296},{"name":"F4","midi":65,"time":130.92813500000022,"velocity":0.7559055118110236,"duration":1.0267822916666205},{"name":"A4","midi":69,"time":130.92813500000022,"velocity":0.7559055118110236,"duration":1.0267822916666205},{"name":"G4","midi":67,"time":131.14242000000021,"velocity":0.7559055118110236,"duration":0.20178504166665334},{"name":"A#4","midi":70,"time":131.14242000000021,"velocity":0.7559055118110236,"duration":0.41607004166664296},{"name":"D4","midi":62,"time":131.14242000000021,"velocity":0.7559055118110236,"duration":0.8124972916666309},{"name":"F4","midi":65,"time":131.14242000000021,"velocity":0.7559055118110236,"duration":1.6696372916665894},{"name":"A4","midi":69,"time":131.14242000000021,"velocity":0.7559055118110236,"duration":0.8571399999999585},{"name":"G4","midi":67,"time":131.3567050000002,"velocity":0.7559055118110236,"duration":0.20178504166665334},{"name":"A#4","midi":70,"time":131.3567050000002,"velocity":0.7559055118110236,"duration":0.41607004166664296},{"name":"G4","midi":67,"time":131.5709900000002,"velocity":0.7559055118110236,"duration":0.20178504166665334},{"name":"A#4","midi":70,"time":131.5709900000002,"velocity":0.7559055118110236,"duration":0.41607004166664296},{"name":"G4","midi":67,"time":131.78527500000018,"velocity":0.7559055118110236,"duration":0.20178504166665334},{"name":"A#4","midi":70,"time":131.78527500000018,"velocity":0.7559055118110236,"duration":2.785704999999865},{"name":"A4","midi":69,"time":131.99956000000017,"velocity":0.7559055118110236,"duration":0.21428499999998962},{"name":"C5","midi":72,"time":131.99956000000017,"velocity":0.7559055118110236,"duration":0.21428499999998962},{"name":"D4","midi":62,"time":131.99956000000017,"velocity":0.7559055118110236,"duration":0.8124972916666309},{"name":"F4","midi":65,"time":131.99956000000017,"velocity":0.7559055118110236,"duration":0.8571399999999585},{"name":"A4","midi":69,"time":131.99956000000017,"velocity":0.7559055118110236,"duration":0.42856999999997925},{"name":"C5","midi":72,"time":131.99956000000017,"velocity":0.7559055118110236,"duration":0.42856999999997925},{"name":"A4","midi":69,"time":132.21384500000016,"velocity":0.7559055118110236,"duration":0.42856999999997925},{"name":"C5","midi":72,"time":132.21384500000016,"velocity":0.7559055118110236,"duration":0.42856999999997925},{"name":"A4","midi":69,"time":132.42813000000015,"velocity":0.7559055118110236,"duration":0.41607004166664296},{"name":"C5","midi":72,"time":132.42813000000015,"velocity":0.7559055118110236,"duration":0.41607004166664296},{"name":"A4","midi":69,"time":132.64241500000014,"velocity":0.7559055118110236,"duration":0.21428499999998962},{"name":"C5","midi":72,"time":132.64241500000014,"velocity":0.7559055118110236,"duration":2.9874900416665184},{"name":"F4","midi":65,"time":132.85670000000013,"velocity":0.7559055118110236,"duration":0.21428499999998962},{"name":"A4","midi":69,"time":132.85670000000013,"velocity":0.7559055118110236,"duration":0.21428499999998962},{"name":"A3","midi":57,"time":132.85670000000013,"velocity":0.7559055118110236,"duration":0.42856999999997925},{"name":"D4","midi":62,"time":132.85670000000013,"velocity":0.7559055118110236,"duration":0.8124972916666309},{"name":"F4","midi":65,"time":132.85670000000013,"velocity":0.7559055118110236,"duration":0.42856999999997925},{"name":"A4","midi":69,"time":132.85670000000013,"velocity":0.7559055118110236,"duration":0.42856999999997925},{"name":"F4","midi":65,"time":133.07098500000012,"velocity":0.7559055118110236,"duration":0.42856999999997925},{"name":"A4","midi":69,"time":133.07098500000012,"velocity":0.7559055118110236,"duration":0.42856999999997925},{"name":"F4","midi":65,"time":133.2852700000001,"velocity":0.7559055118110236,"duration":0.41607004166664296},{"name":"A4","midi":69,"time":133.2852700000001,"velocity":0.7559055118110236,"duration":0.41607004166664296},{"name":"F4","midi":65,"time":133.4995550000001,"velocity":0.7559055118110236,"duration":0.21428499999998962},{"name":"A4","midi":69,"time":133.4995550000001,"velocity":0.7559055118110236,"duration":0.21428499999998962},{"name":"F4","midi":65,"time":133.7138400000001,"velocity":0.7559055118110236,"duration":0.21428499999998962},{"name":"A4","midi":69,"time":133.7138400000001,"velocity":0.7559055118110236,"duration":0.21428499999998962},{"name":"A#3","midi":58,"time":133.7138400000001,"velocity":0.7559055118110236,"duration":0.8124972916666309},{"name":"D4","midi":62,"time":133.7138400000001,"velocity":0.7559055118110236,"duration":0.8124972916666309},{"name":"F4","midi":65,"time":133.7138400000001,"velocity":0.7559055118110236,"duration":0.42856999999997925},{"name":"A4","midi":69,"time":133.7138400000001,"velocity":0.7559055118110236,"duration":0.42856999999997925},{"name":"F4","midi":65,"time":133.92812500000008,"velocity":0.7559055118110236,"duration":0.42856999999997925},{"name":"A4","midi":69,"time":133.92812500000008,"velocity":0.7559055118110236,"duration":0.42856999999997925},{"name":"F4","midi":65,"time":134.14241000000007,"velocity":0.7559055118110236,"duration":0.41607004166664296},{"name":"A4","midi":69,"time":134.14241000000007,"velocity":0.7559055118110236,"duration":0.41607004166664296},{"name":"F4","midi":65,"time":134.35669500000006,"velocity":0.7559055118110236,"duration":1.0267822916666205},{"name":"A4","midi":69,"time":134.35669500000006,"velocity":0.7559055118110236,"duration":1.2732100416666015},{"name":"G4","midi":67,"time":134.57098000000005,"velocity":0.7559055118110236,"duration":0.20178504166665334},{"name":"A#4","midi":70,"time":134.57098000000005,"velocity":0.7559055118110236,"duration":0.21428499999998962},{"name":"A#3","midi":58,"time":134.57098000000005,"velocity":0.7559055118110236,"duration":0.8124972916666309},{"name":"D4","midi":62,"time":134.57098000000005,"velocity":0.7559055118110236,"duration":0.8124972916666309},{"name":"F4","midi":65,"time":134.57098000000005,"velocity":0.7559055118110236,"duration":1.0589250416666118},{"name":"A#4","midi":70,"time":134.57098000000005,"velocity":0.7559055118110236,"duration":0.42856999999997925},{"name":"G4","midi":67,"time":134.78526500000004,"velocity":0.7559055118110236,"duration":0.20178504166665334},{"name":"A#4","midi":70,"time":134.78526500000004,"velocity":0.7559055118110236,"duration":0.42856999999997925},{"name":"G4","midi":67,"time":134.99955000000003,"velocity":0.7559055118110236,"duration":0.20178504166665334},{"name":"A#4","midi":70,"time":134.99955000000003,"velocity":0.7559055118110236,"duration":0.41607004166664296},{"name":"G4","midi":67,"time":135.21383500000002,"velocity":0.7559055118110236,"duration":0.20178504166665334},{"name":"A#4","midi":70,"time":135.21383500000002,"velocity":0.7559055118110236,"duration":2.9874900416665753},{"name":"D4","midi":62,"time":135.42812,"velocity":0.7559055118110236,"duration":0.20178504166665334},{"name":"F4","midi":65,"time":135.42812,"velocity":0.7559055118110236,"duration":1.9160650416665987},{"name":"A4","midi":69,"time":135.42812,"velocity":0.7559055118110236,"duration":0.41607004166664296},{"name":"C5","midi":72,"time":135.42812,"velocity":0.7559055118110236,"duration":0.41607004166664296},{"name":"F5","midi":77,"time":135.642405,"velocity":0.8976377952755905,"duration":0.20178504166665334},{"name":"A4","midi":69,"time":135.642405,"velocity":0.7559055118110236,"duration":0.41607004166664296},{"name":"C5","midi":72,"time":135.642405,"velocity":0.7559055118110236,"duration":0.41607004166664296},{"name":"F5","midi":77,"time":135.85669,"velocity":0.8976377952755905,"duration":0.20178504166665334},{"name":"A4","midi":69,"time":135.85669,"velocity":0.7559055118110236,"duration":0.41607004166664296},{"name":"C5","midi":72,"time":135.85669,"velocity":0.7559055118110236,"duration":0.41607004166664296},{"name":"F5","midi":77,"time":136.07097499999998,"velocity":0.8976377952755905,"duration":0.20178504166665334},{"name":"A4","midi":69,"time":136.07097499999998,"velocity":0.7559055118110236,"duration":0.630355041666661},{"name":"C5","midi":72,"time":136.07097499999998,"velocity":0.7559055118110236,"duration":0.41607004166664296},{"name":"A#5","midi":82,"time":136.28525999999997,"velocity":0.8976377952755905,"duration":0.4053557916666648},{"name":"C5","midi":72,"time":136.28525999999997,"velocity":0.7559055118110236,"duration":2.773205041666614},{"name":"A4","midi":69,"time":136.49954499999996,"velocity":0.7559055118110236,"duration":0.4160700416666714},{"name":"A5","midi":81,"time":136.71382999999997,"velocity":0.8976377952755905,"duration":0.20178504166665334},{"name":"A4","midi":69,"time":136.71382999999997,"velocity":0.7559055118110236,"duration":0.41607004166664296},{"name":"A5","midi":81,"time":136.92811499999996,"velocity":0.8976377952755905,"duration":0.6089265416666478},{"name":"A4","midi":69,"time":136.92811499999996,"velocity":0.7559055118110236,"duration":0.41607004166664296},{"name":"C4","midi":60,"time":137.14239999999995,"velocity":0.7559055118110236,"duration":0.20178504166665334},{"name":"F4","midi":65,"time":137.14239999999995,"velocity":0.7559055118110236,"duration":3.6303450416665726},{"name":"A4","midi":69,"time":137.14239999999995,"velocity":0.7559055118110236,"duration":0.4160700416666714},{"name":"A4","midi":69,"time":137.35668499999994,"velocity":0.7559055118110236,"duration":0.4160700416666714},{"name":"G5","midi":79,"time":137.57096999999996,"velocity":0.8976377952755905,"duration":1.2196387916666254},{"name":"A4","midi":69,"time":137.57096999999996,"velocity":0.7559055118110236,"duration":0.41607004166664296},{"name":"A4","midi":69,"time":137.78525499999995,"velocity":0.7559055118110236,"duration":1.2732100416666299},{"name":"G4","midi":67,"time":137.99953999999994,"velocity":0.7559055118110236,"duration":0.20178504166665334},{"name":"A#4","midi":70,"time":137.99953999999994,"velocity":0.7559055118110236,"duration":0.41607004166664296},{"name":"G4","midi":67,"time":138.21382499999993,"velocity":0.7559055118110236,"duration":0.20178504166665334},{"name":"A#4","midi":70,"time":138.21382499999993,"velocity":0.7559055118110236,"duration":0.41607004166664296},{"name":"G4","midi":67,"time":138.42810999999992,"velocity":0.7559055118110236,"duration":0.20178504166665334},{"name":"A#4","midi":70,"time":138.42810999999992,"velocity":0.7559055118110236,"duration":0.4160700416666714},{"name":"G4","midi":67,"time":138.6423949999999,"velocity":0.7559055118110236,"duration":0.20178504166668176},{"name":"A#4","midi":70,"time":138.6423949999999,"velocity":0.7559055118110236,"duration":2.9874900416666037},{"name":"A4","midi":69,"time":138.85667999999993,"velocity":0.7559055118110236,"duration":0.41607004166664296},{"name":"C5","midi":72,"time":138.85667999999993,"velocity":0.7559055118110236,"duration":0.41607004166664296},{"name":"F5","midi":77,"time":139.07096499999992,"velocity":0.8976377952755905,"duration":0.20178504166665334},{"name":"A4","midi":69,"time":139.07096499999992,"velocity":0.7559055118110236,"duration":0.41607004166664296},{"name":"C5","midi":72,"time":139.07096499999992,"velocity":0.7559055118110236,"duration":0.41607004166664296},{"name":"F5","midi":77,"time":139.2852499999999,"velocity":0.8976377952755905,"duration":0.20178504166665334},{"name":"A4","midi":69,"time":139.2852499999999,"velocity":0.7559055118110236,"duration":0.41607004166664296},{"name":"C5","midi":72,"time":139.2852499999999,"velocity":0.7559055118110236,"duration":0.41607004166664296},{"name":"F5","midi":77,"time":139.4995349999999,"velocity":0.8976377952755905,"duration":0.20178504166665334},{"name":"A4","midi":69,"time":139.4995349999999,"velocity":0.7559055118110236,"duration":0.630355041666661},{"name":"C5","midi":72,"time":139.4995349999999,"velocity":0.7559055118110236,"duration":0.41607004166664296},{"name":"A#5","midi":82,"time":139.71381999999988,"velocity":0.8976377952755905,"duration":0.4053557916666648},{"name":"C5","midi":72,"time":139.71381999999988,"velocity":0.7559055118110236,"duration":2.773205041666614},{"name":"A4","midi":69,"time":139.92810499999987,"velocity":0.7559055118110236,"duration":0.4160700416666714},{"name":"A5","midi":81,"time":140.1423899999999,"velocity":0.8976377952755905,"duration":0.20178504166665334},{"name":"A4","midi":69,"time":140.1423899999999,"velocity":0.7559055118110236,"duration":0.41607004166664296},{"name":"A5","midi":81,"time":140.35667499999988,"velocity":0.8976377952755905,"duration":0.6089265416666478},{"name":"A4","midi":69,"time":140.35667499999988,"velocity":0.7559055118110236,"duration":0.41607004166664296},{"name":"D4","midi":62,"time":140.57095999999987,"velocity":0.7559055118110236,"duration":0.20178504166665334},{"name":"F4","midi":65,"time":140.57095999999987,"velocity":0.7559055118110236,"duration":3.6303450416665726},{"name":"A4","midi":69,"time":140.57095999999987,"velocity":0.7559055118110236,"duration":0.4160700416666714},{"name":"A4","midi":69,"time":140.78524499999986,"velocity":0.7559055118110236,"duration":0.4160700416666714},{"name":"G5","midi":79,"time":140.99952999999988,"velocity":0.8976377952755905,"duration":1.2196387916666254},{"name":"A4","midi":69,"time":140.99952999999988,"velocity":0.7559055118110236,"duration":0.41607004166664296},{"name":"A4","midi":69,"time":141.21381499999987,"velocity":0.7559055118110236,"duration":1.2732100416666299},{"name":"G4","midi":67,"time":141.42809999999986,"velocity":0.7559055118110236,"duration":0.20178504166665334},{"name":"A#4","midi":70,"time":141.42809999999986,"velocity":0.7559055118110236,"duration":0.41607004166664296},{"name":"G4","midi":67,"time":141.64238499999985,"velocity":0.7559055118110236,"duration":0.20178504166665334},{"name":"A#4","midi":70,"time":141.64238499999985,"velocity":0.7559055118110236,"duration":0.41607004166664296},{"name":"G4","midi":67,"time":141.85666999999984,"velocity":0.7559055118110236,"duration":0.20178504166665334},{"name":"A#4","midi":70,"time":141.85666999999984,"velocity":0.7559055118110236,"duration":0.4160700416666714},{"name":"G4","midi":67,"time":142.07095499999983,"velocity":0.7559055118110236,"duration":0.20178504166668176},{"name":"A#4","midi":70,"time":142.07095499999983,"velocity":0.7559055118110236,"duration":2.9874900416666037},{"name":"A4","midi":69,"time":142.28523999999985,"velocity":0.7559055118110236,"duration":0.41607004166664296},{"name":"C5","midi":72,"time":142.28523999999985,"velocity":0.7559055118110236,"duration":0.41607004166664296},{"name":"F5","midi":77,"time":142.49952499999984,"velocity":0.8976377952755905,"duration":0.20178504166665334},{"name":"A4","midi":69,"time":142.49952499999984,"velocity":0.7559055118110236,"duration":0.41607004166664296},{"name":"C5","midi":72,"time":142.49952499999984,"velocity":0.7559055118110236,"duration":0.41607004166664296},{"name":"F5","midi":77,"time":142.71380999999982,"velocity":0.8976377952755905,"duration":0.20178504166665334},{"name":"A4","midi":69,"time":142.71380999999982,"velocity":0.7559055118110236,"duration":0.41607004166664296},{"name":"C5","midi":72,"time":142.71380999999982,"velocity":0.7559055118110236,"duration":0.41607004166664296},{"name":"F5","midi":77,"time":142.92809499999981,"velocity":0.8976377952755905,"duration":0.20178504166665334},{"name":"A4","midi":69,"time":142.92809499999981,"velocity":0.7559055118110236,"duration":0.630355041666661},{"name":"C5","midi":72,"time":142.92809499999981,"velocity":0.7559055118110236,"duration":0.41607004166664296},{"name":"A#5","midi":82,"time":143.1423799999998,"velocity":0.8976377952755905,"duration":0.4053557916666648},{"name":"C5","midi":72,"time":143.1423799999998,"velocity":0.7559055118110236,"duration":2.773205041666614},{"name":"A4","midi":69,"time":143.3566649999998,"velocity":0.7559055118110236,"duration":0.4160700416666714},{"name":"A5","midi":81,"time":143.5709499999998,"velocity":0.8976377952755905,"duration":0.20178504166665334},{"name":"A4","midi":69,"time":143.5709499999998,"velocity":0.7559055118110236,"duration":0.41607004166664296},{"name":"A5","midi":81,"time":143.7852349999998,"velocity":0.8976377952755905,"duration":0.6089265416666478},{"name":"A4","midi":69,"time":143.7852349999998,"velocity":0.7559055118110236,"duration":0.41607004166664296},{"name":"D4","midi":62,"time":143.9995199999998,"velocity":0.7559055118110236,"duration":0.20178504166665334},{"name":"F4","midi":65,"time":143.9995199999998,"velocity":0.7559055118110236,"duration":2.7732050416665857},{"name":"A4","midi":69,"time":143.9995199999998,"velocity":0.7559055118110236,"duration":0.4160700416666714},{"name":"A4","midi":69,"time":144.21380499999978,"velocity":0.7559055118110236,"duration":0.4160700416666714},{"name":"G5","midi":79,"time":144.4280899999998,"velocity":0.8976377952755905,"duration":1.2196387916666254},{"name":"A4","midi":69,"time":144.4280899999998,"velocity":0.7559055118110236,"duration":0.41607004166664296},{"name":"A4","midi":69,"time":144.6423749999998,"velocity":0.7559055118110236,"duration":1.2732100416666299},{"name":"G4","midi":67,"time":144.85665999999978,"velocity":0.7559055118110236,"duration":0.20178504166665334},{"name":"A#4","midi":70,"time":144.85665999999978,"velocity":0.7559055118110236,"duration":0.41607004166664296},{"name":"G4","midi":67,"time":145.07094499999977,"velocity":0.7559055118110236,"duration":0.20178504166665334},{"name":"A#4","midi":70,"time":145.07094499999977,"velocity":0.7559055118110236,"duration":0.41607004166664296},{"name":"G4","midi":67,"time":145.28522999999976,"velocity":0.7559055118110236,"duration":0.20178504166665334},{"name":"A#4","midi":70,"time":145.28522999999976,"velocity":0.7559055118110236,"duration":0.4160700416666714},{"name":"G4","midi":67,"time":145.49951499999975,"velocity":0.7559055118110236,"duration":0.20178504166668176},{"name":"A#4","midi":70,"time":145.49951499999975,"velocity":0.7559055118110236,"duration":2.9874900416665753},{"name":"F5","midi":77,"time":145.71379999999976,"velocity":0.8976377952755905,"duration":0.30357041666664486},{"name":"A4","midi":69,"time":145.71379999999976,"velocity":0.7559055118110236,"duration":0.41607004166664296},{"name":"C5","midi":72,"time":145.71379999999976,"velocity":0.7559055118110236,"duration":0.41607004166664296},{"name":"A4","midi":69,"time":145.92808499999975,"velocity":0.7559055118110236,"duration":0.41607004166664296},{"name":"C5","midi":72,"time":145.92808499999975,"velocity":0.7559055118110236,"duration":0.41607004166664296},{"name":"E5","midi":76,"time":146.03522749999973,"velocity":0.8976377952755905,"duration":0.3035704166666733},{"name":"A4","midi":69,"time":146.14236999999974,"velocity":0.7559055118110236,"duration":0.41607004166664296},{"name":"C5","midi":72,"time":146.14236999999974,"velocity":0.7559055118110236,"duration":0.41607004166664296},{"name":"D5","midi":74,"time":146.35665499999973,"velocity":0.8976377952755905,"duration":0.20178504166665334},{"name":"A4","midi":69,"time":146.35665499999973,"velocity":0.7559055118110236,"duration":0.41607004166664296},{"name":"C5","midi":72,"time":146.35665499999973,"velocity":0.7559055118110236,"duration":0.6196407916666544},{"name":"C5","midi":72,"time":146.57093999999972,"velocity":0.8976377952755905,"duration":2.5160630416665697},{"name":"F4","midi":65,"time":146.57093999999972,"velocity":0.7559055118110236,"duration":0.4160700416666714},{"name":"A4","midi":69,"time":146.57093999999972,"velocity":0.7559055118110236,"duration":0.4160700416666714},{"name":"F4","midi":65,"time":146.7852249999997,"velocity":0.7559055118110236,"duration":0.4160700416666714},{"name":"A4","midi":69,"time":146.7852249999997,"velocity":0.7559055118110236,"duration":0.4160700416666714},{"name":"A4","midi":69,"time":146.99950999999973,"velocity":0.9448818897637795,"duration":0.41607004166664296},{"name":"F4","midi":65,"time":146.99950999999973,"velocity":0.7559055118110236,"duration":0.41607004166664296},{"name":"D5","midi":74,"time":147.21379499999972,"velocity":0.8976377952755905,"duration":0.8124972916666309},{"name":"F4","midi":65,"time":147.21379499999972,"velocity":0.7559055118110236,"duration":0.41607004166664296},{"name":"A4","midi":69,"time":147.21379499999972,"velocity":0.7559055118110236,"duration":0.41607004166664296},{"name":"F4","midi":65,"time":147.4280799999997,"velocity":0.7559055118110236,"duration":0.41607004166664296},{"name":"A4","midi":69,"time":147.4280799999997,"velocity":0.7559055118110236,"duration":0.41607004166664296},{"name":"F4","midi":65,"time":147.6423649999997,"velocity":0.7559055118110236,"duration":0.41607004166664296},{"name":"A4","midi":69,"time":147.6423649999997,"velocity":0.7559055118110236,"duration":0.41607004166664296},{"name":"F4","midi":65,"time":147.8566499999997,"velocity":0.7559055118110236,"duration":0.41607004166664296},{"name":"A4","midi":69,"time":147.8566499999997,"velocity":0.7559055118110236,"duration":0.41607004166664296},{"name":"C5","midi":72,"time":148.07093499999968,"velocity":0.8976377952755905,"duration":1.2732100416666015},{"name":"F4","midi":65,"time":148.07093499999968,"velocity":0.7559055118110236,"duration":2.13035004166656},{"name":"A4","midi":69,"time":148.07093499999968,"velocity":0.7559055118110236,"duration":1.2732100416666015},{"name":"G4","midi":67,"time":148.28521999999967,"velocity":0.7559055118110236,"duration":0.20178504166665334},{"name":"A#4","midi":70,"time":148.28521999999967,"velocity":0.7559055118110236,"duration":0.41607004166664296},{"name":"G4","midi":67,"time":148.49950499999966,"velocity":0.7559055118110236,"duration":0.20178504166665334},{"name":"A#4","midi":70,"time":148.49950499999966,"velocity":0.7559055118110236,"duration":0.41607004166664296},{"name":"G4","midi":67,"time":148.71378999999965,"velocity":0.7559055118110236,"duration":0.20178504166665334},{"name":"A#4","midi":70,"time":148.71378999999965,"velocity":0.7559055118110236,"duration":0.41607004166664296},{"name":"G4","midi":67,"time":148.92807499999964,"velocity":0.7559055118110236,"duration":0.20178504166665334},{"name":"A#4","midi":70,"time":148.92807499999964,"velocity":0.7559055118110236,"duration":13.46602654166665},{"name":"A4","midi":69,"time":149.14235999999963,"velocity":0.7559055118110236,"duration":0.41607004166664296},{"name":"C5","midi":72,"time":149.14235999999963,"velocity":0.7559055118110236,"duration":0.41607004166664296},{"name":"A4","midi":69,"time":149.35664499999962,"velocity":0.7559055118110236,"duration":0.41607004166664296},{"name":"C5","midi":72,"time":149.35664499999962,"velocity":0.7559055118110236,"duration":0.41607004166664296},{"name":"A4","midi":69,"time":149.5709299999996,"velocity":0.7559055118110236,"duration":0.41607004166664296},{"name":"C5","midi":72,"time":149.5709299999996,"velocity":0.7559055118110236,"duration":0.41607004166664296},{"name":"A4","midi":69,"time":149.7852149999996,"velocity":0.7559055118110236,"duration":0.41607004166664296},{"name":"C5","midi":72,"time":149.7852149999996,"velocity":0.7559055118110236,"duration":1.476780791666613},{"name":"F4","midi":65,"time":149.99949999999959,"velocity":0.7559055118110236,"duration":0.41607004166664296},{"name":"A4","midi":69,"time":149.99949999999959,"velocity":0.7559055118110236,"duration":0.41607004166664296},{"name":"F4","midi":65,"time":150.21378499999958,"velocity":0.7559055118110236,"duration":0.41607004166664296},{"name":"A4","midi":69,"time":150.21378499999958,"velocity":0.7559055118110236,"duration":0.41607004166664296},{"name":"F4","midi":65,"time":150.42806999999956,"velocity":0.6299212598425197,"duration":0.41607004166664296},{"name":"A4","midi":69,"time":150.42806999999956,"velocity":0.6299212598425197,"duration":0.41607004166664296},{"name":"F4","midi":65,"time":150.64235499999955,"velocity":0.5669291338582677,"duration":6.642834999999991},{"name":"A4","midi":69,"time":150.64235499999955,"velocity":0.5669291338582677,"duration":2.6767767916666685},{"name":"C5","midi":72,"time":150.85663999999954,"velocity":0.7244094488188977,"duration":2.9874900416666605},{"name":"A4","midi":69,"time":151.28520999999955,"velocity":0.7244094488188977,"duration":2.3446350416666633},{"name":"A4","midi":69,"time":153.42805999999956,"velocity":0.7244094488188977,"duration":0.6303550416666326},{"name":"C5","midi":72,"time":153.64234499999955,"velocity":0.7244094488188977,"duration":1.2732100416666299},{"name":"A4","midi":69,"time":153.85662999999954,"velocity":0.7244094488188977,"duration":1.905350791666649},{"name":"D5","midi":74,"time":154.07091499999953,"velocity":0.7244094488188977,"duration":0.6089265416666763},{"name":"C5","midi":72,"time":154.71376999999953,"velocity":0.7244094488188977,"duration":0.6196407916666544},{"name":"C5","midi":72,"time":154.92805499999952,"velocity":0.7244094488188977,"duration":3.619630791666708},{"name":"A4","midi":69,"time":155.35662499999953,"velocity":0.7244094488188977,"duration":1.851779541666673},{"name":"A4","midi":69,"time":155.78519499999953,"velocity":0.7244094488188977,"duration":2.333920791666685},{"name":"F4","midi":65,"time":157.28518999999955,"velocity":0.7244094488188977,"duration":3.833915791666726},{"name":"A4","midi":69,"time":157.71375999999955,"velocity":0.7244094488188977,"duration":2.976775791666711},{"name":"C5","midi":72,"time":158.14232999999956,"velocity":0.7244094488188977,"duration":2.1196357916666955},{"name":"D5","midi":74,"time":158.57089999999957,"velocity":0.7244094488188977,"duration":0.4053557916666648},{"name":"E5","midi":76,"time":158.99946999999958,"velocity":0.7244094488188977,"duration":0.4053557916666648},{"name":"D5","midi":74,"time":159.42803999999958,"velocity":0.7244094488188977,"duration":0.4053557916666648},{"name":"C5","midi":72,"time":159.8566099999996,"velocity":0.7244094488188977,"duration":2.1196357916666955},{"name":"A4","midi":69,"time":160.2851799999996,"velocity":0.7244094488188977,"duration":1.2624957916666801},{"name":"F4","midi":65,"time":160.7137499999996,"velocity":0.7244094488188977,"duration":1.037496541666684},{"name":"A4","midi":69,"time":161.14231999999961,"velocity":0.9291338582677166,"duration":3.428559999999976},{"name":"D4","midi":62,"time":161.14231999999961,"velocity":0.6299212598425197,"duration":0.6089265416666763},{"name":"F4","midi":65,"time":161.14231999999961,"velocity":0.6299212598425197,"duration":1.2517815416666735},{"name":"C5","midi":72,"time":161.57088999999962,"velocity":0.8818897637795275,"duration":3.8124872916665993},{"name":"D4","midi":62,"time":161.7851749999996,"velocity":0.6692913385826772,"duration":0.6089265416666763},{"name":"F4","midi":65,"time":161.7851749999996,"velocity":0.6692913385826772,"duration":1.2517815416666735},{"name":"A#4","midi":70,"time":161.7851749999996,"velocity":0.6692913385826772,"duration":1.2517815416666735},{"name":"D5","midi":74,"time":161.99945999999963,"velocity":0.8818897637795275,"duration":0.8124972916666593},{"name":"D4","midi":62,"time":162.4280299999996,"velocity":0.7086614173228346,"duration":0.6089265416666763},{"name":"F4","midi":65,"time":162.4280299999996,"velocity":0.7086614173228346,"duration":1.2517815416666451},{"name":"A#4","midi":70,"time":162.4280299999996,"velocity":0.7086614173228346,"duration":1.2517815416666451},{"name":"F5","midi":77,"time":163.0708849999996,"velocity":0.9133858267716536,"duration":0.20178504166665334},{"name":"F4","midi":65,"time":163.0708849999996,"velocity":0.7401574803149606,"duration":1.4553522916666566},{"name":"A#4","midi":70,"time":163.0708849999996,"velocity":0.7401574803149606,"duration":1.4553522916666566},{"name":"D5","midi":74,"time":163.0708849999996,"velocity":0.7401574803149606,"duration":0.6089265416666478},{"name":"F5","midi":77,"time":163.2851699999996,"velocity":0.9133858267716536,"duration":0.20178504166665334},{"name":"F5","midi":77,"time":163.49945499999959,"velocity":0.9133858267716536,"duration":0.20178504166668176},{"name":"F5","midi":77,"time":163.7137399999996,"velocity":0.9133858267716536,"duration":0.3035704166666733},{"name":"F4","midi":65,"time":163.7137399999996,"velocity":0.7401574803149606,"duration":1.2732100416666299},{"name":"A#4","midi":70,"time":163.7137399999996,"velocity":0.7401574803149606,"duration":1.9160650416665987},{"name":"D5","midi":74,"time":163.7137399999996,"velocity":0.7401574803149606,"duration":0.8124972916666593},{"name":"A5","midi":81,"time":164.0351674999996,"velocity":0.9133858267716536,"duration":0.3035704166666733},{"name":"A5","midi":81,"time":164.3565949999996,"velocity":0.9133858267716536,"duration":1.016068041666614},{"name":"A4","midi":69,"time":164.5708799999996,"velocity":0.8346456692913385,"duration":0.21428499999998962},{"name":"C5","midi":72,"time":164.5708799999996,"velocity":0.8346456692913385,"duration":1.714279999999917},{"name":"F5","midi":77,"time":164.5708799999996,"velocity":0.8346456692913385,"duration":0.8124972916666309},{"name":"A4","midi":69,"time":164.5708799999996,"velocity":0.8346456692913385,"duration":0.42856999999997925},{"name":"F4","midi":65,"time":164.78516499999958,"velocity":0.8346456692913385,"duration":0.41607004166664296},{"name":"A4","midi":69,"time":164.78516499999958,"velocity":0.8346456692913385,"duration":0.42856999999997925},{"name":"F4","midi":65,"time":164.99944999999957,"velocity":0.8346456692913385,"duration":0.41607004166664296},{"name":"A4","midi":69,"time":164.99944999999957,"velocity":0.8346456692913385,"duration":0.41607004166664296},{"name":"F4","midi":65,"time":165.21373499999956,"velocity":0.8346456692913385,"duration":1.0267822916666205},{"name":"A4","midi":69,"time":165.21373499999956,"velocity":0.8346456692913385,"duration":1.0267822916666205},{"name":"G4","midi":67,"time":165.42801999999955,"velocity":0.8346456692913385,"duration":0.20178504166665334},{"name":"A#4","midi":70,"time":165.42801999999955,"velocity":0.8346456692913385,"duration":0.41607004166664296},{"name":"C4","midi":60,"time":165.42801999999955,"velocity":0.8346456692913385,"duration":0.42856999999997925},{"name":"F4","midi":65,"time":165.42801999999955,"velocity":0.8346456692913385,"duration":1.6696372916665894},{"name":"A4","midi":69,"time":165.42801999999955,"velocity":0.8346456692913385,"duration":0.8571399999999585},{"name":"G4","midi":67,"time":165.64230499999954,"velocity":0.8346456692913385,"duration":0.20178504166665334},{"name":"A#4","midi":70,"time":165.64230499999954,"velocity":0.8346456692913385,"duration":0.41607004166664296},{"name":"G4","midi":67,"time":165.85658999999953,"velocity":0.8346456692913385,"duration":0.20178504166665334},{"name":"A#4","midi":70,"time":165.85658999999953,"velocity":0.8346456692913385,"duration":0.41607004166664296},{"name":"G4","midi":67,"time":166.07087499999952,"velocity":0.8346456692913385,"duration":0.20178504166665334},{"name":"A#4","midi":70,"time":166.07087499999952,"velocity":0.8346456692913385,"duration":2.785704999999865},{"name":"A4","midi":69,"time":166.2851599999995,"velocity":0.8346456692913385,"duration":0.21428499999998962},{"name":"C5","midi":72,"time":166.2851599999995,"velocity":0.8346456692913385,"duration":0.21428499999998962},{"name":"C4","midi":60,"time":166.2851599999995,"velocity":0.8346456692913385,"duration":0.42856999999997925},{"name":"F4","midi":65,"time":166.2851599999995,"velocity":0.8346456692913385,"duration":0.8571399999999585},{"name":"A4","midi":69,"time":166.2851599999995,"velocity":0.8346456692913385,"duration":0.42856999999997925},{"name":"C5","midi":72,"time":166.2851599999995,"velocity":0.8346456692913385,"duration":0.42856999999997925},{"name":"A4","midi":69,"time":166.4994449999995,"velocity":0.8346456692913385,"duration":0.42856999999997925},{"name":"C5","midi":72,"time":166.4994449999995,"velocity":0.8346456692913385,"duration":0.42856999999997925},{"name":"A4","midi":69,"time":166.7137299999995,"velocity":0.8346456692913385,"duration":0.41607004166664296},{"name":"C5","midi":72,"time":166.7137299999995,"velocity":0.8346456692913385,"duration":0.41607004166664296},{"name":"A4","midi":69,"time":166.92801499999948,"velocity":0.8346456692913385,"duration":0.21428499999998962},{"name":"C5","midi":72,"time":166.92801499999948,"velocity":0.8346456692913385,"duration":2.9874900416665184},{"name":"F4","midi":65,"time":167.14229999999947,"velocity":0.8346456692913385,"duration":0.21428499999998962},{"name":"A4","midi":69,"time":167.14229999999947,"velocity":0.8346456692913385,"duration":0.21428499999998962},{"name":"A3","midi":57,"time":167.14229999999947,"velocity":0.8346456692913385,"duration":0.42856999999997925},{"name":"C4","midi":60,"time":167.14229999999947,"velocity":0.8346456692913385,"duration":0.42856999999997925},{"name":"F4","midi":65,"time":167.14229999999947,"velocity":0.8346456692913385,"duration":0.42856999999997925},{"name":"A4","midi":69,"time":167.14229999999947,"velocity":0.8346456692913385,"duration":0.42856999999997925},{"name":"F4","midi":65,"time":167.35658499999946,"velocity":0.8346456692913385,"duration":0.42856999999997925},{"name":"A4","midi":69,"time":167.35658499999946,"velocity":0.8346456692913385,"duration":0.42856999999997925},{"name":"F4","midi":65,"time":167.57086999999945,"velocity":0.8346456692913385,"duration":0.41607004166664296},{"name":"A4","midi":69,"time":167.57086999999945,"velocity":0.8346456692913385,"duration":0.41607004166664296},{"name":"F4","midi":65,"time":167.78515499999943,"velocity":0.8346456692913385,"duration":0.21428499999998962},{"name":"A4","midi":69,"time":167.78515499999943,"velocity":0.8346456692913385,"duration":0.21428499999998962},{"name":"F4","midi":65,"time":167.99943999999942,"velocity":0.8346456692913385,"duration":0.21428499999998962},{"name":"A4","midi":69,"time":167.99943999999942,"velocity":0.8346456692913385,"duration":0.21428499999998962},{"name":"A#3","midi":58,"time":167.99943999999942,"velocity":0.8346456692913385,"duration":0.8124972916666309},{"name":"D4","midi":62,"time":167.99943999999942,"velocity":0.8346456692913385,"duration":0.8124972916666309},{"name":"F4","midi":65,"time":167.99943999999942,"velocity":0.8346456692913385,"duration":0.42856999999997925},{"name":"A4","midi":69,"time":167.99943999999942,"velocity":0.8346456692913385,"duration":0.42856999999997925},{"name":"F4","midi":65,"time":168.2137249999994,"velocity":0.8346456692913385,"duration":0.42856999999997925},{"name":"A4","midi":69,"time":168.2137249999994,"velocity":0.8346456692913385,"duration":0.42856999999997925},{"name":"F4","midi":65,"time":168.4280099999994,"velocity":0.8346456692913385,"duration":0.41607004166664296},{"name":"A4","midi":69,"time":168.4280099999994,"velocity":0.8346456692913385,"duration":0.41607004166664296},{"name":"F4","midi":65,"time":168.6422949999994,"velocity":0.8346456692913385,"duration":1.0267822916666205},{"name":"A4","midi":69,"time":168.6422949999994,"velocity":0.8346456692913385,"duration":1.2732100416666015},{"name":"G4","midi":67,"time":168.85657999999938,"velocity":0.8346456692913385,"duration":0.20178504166665334},{"name":"A#4","midi":70,"time":168.85657999999938,"velocity":0.8346456692913385,"duration":0.21428499999998962},{"name":"A#3","midi":58,"time":168.85657999999938,"velocity":0.8346456692913385,"duration":0.8124972916666309},{"name":"D4","midi":62,"time":168.85657999999938,"velocity":0.8346456692913385,"duration":0.8124972916666309},{"name":"F4","midi":65,"time":168.85657999999938,"velocity":0.8346456692913385,"duration":1.0589250416666118},{"name":"A#4","midi":70,"time":168.85657999999938,"velocity":0.8346456692913385,"duration":0.42856999999997925},{"name":"G4","midi":67,"time":169.07086499999937,"velocity":0.8346456692913385,"duration":0.20178504166665334},{"name":"A#4","midi":70,"time":169.07086499999937,"velocity":0.8346456692913385,"duration":0.42856999999997925},{"name":"G4","midi":67,"time":169.28514999999936,"velocity":0.8346456692913385,"duration":0.20178504166665334},{"name":"A#4","midi":70,"time":169.28514999999936,"velocity":0.8346456692913385,"duration":0.41607004166664296},{"name":"G4","midi":67,"time":169.49943499999935,"velocity":0.8346456692913385,"duration":0.20178504166665334},{"name":"A#4","midi":70,"time":169.49943499999935,"velocity":0.8346456692913385,"duration":2.9874900416665184},{"name":"D4","midi":62,"time":169.71371999999934,"velocity":0.8346456692913385,"duration":0.20178504166665334},{"name":"F4","midi":65,"time":169.71371999999934,"velocity":0.8346456692913385,"duration":1.0589250416666118},{"name":"A4","midi":69,"time":169.71371999999934,"velocity":0.8346456692913385,"duration":0.41607004166664296},{"name":"C5","midi":72,"time":169.71371999999934,"velocity":0.8346456692913385,"duration":3.428559999999834},{"name":"F5","midi":77,"time":169.92800499999933,"velocity":0.9921259842519685,"duration":0.20178504166665334},{"name":"A4","midi":69,"time":169.92800499999933,"velocity":0.8346456692913385,"duration":0.41607004166664296},{"name":"D5","midi":74,"time":169.92800499999933,"velocity":0.8346456692913385,"duration":0.20178504166665334},{"name":"F5","midi":77,"time":170.14228999999932,"velocity":0.9921259842519685,"duration":0.20178504166665334},{"name":"A4","midi":69,"time":170.14228999999932,"velocity":0.8346456692913385,"duration":0.41607004166664296},{"name":"D5","midi":74,"time":170.14228999999932,"velocity":0.8346456692913385,"duration":0.20178504166665334},{"name":"F5","midi":77,"time":170.3565749999993,"velocity":0.9921259842519685,"duration":0.20178504166665334},{"name":"A4","midi":69,"time":170.3565749999993,"velocity":0.8346456692913385,"duration":0.41607004166664296},{"name":"D5","midi":74,"time":170.3565749999993,"velocity":0.8346456692913385,"duration":0.20178504166665334},{"name":"F5","midi":77,"time":170.5708599999993,"velocity":0.9921259842519685,"duration":0.30357041666664486},{"name":"F4","midi":65,"time":170.5708599999993,"velocity":0.8346456692913385,"duration":0.8571399999999585},{"name":"A4","midi":69,"time":170.5708599999993,"velocity":0.8346456692913385,"duration":0.41607004166664296},{"name":"A4","midi":69,"time":170.7851449999993,"velocity":0.8346456692913385,"duration":0.41607004166664296},{"name":"A5","midi":81,"time":170.89228749999927,"velocity":0.9921259842519685,"duration":0.3035704166666733},{"name":"A4","midi":69,"time":170.99942999999928,"velocity":0.8346456692913385,"duration":0.41607004166664296},{"name":"A5","midi":81,"time":171.21371499999927,"velocity":0.9921259842519685,"duration":0.20178504166665334},{"name":"A4","midi":69,"time":171.21371499999927,"velocity":0.8346456692913385,"duration":0.21428499999998962},{"name":"F4","midi":65,"time":171.42799999999926,"velocity":0.8346456692913385,"duration":0.21428499999998962},{"name":"A4","midi":69,"time":171.42799999999926,"velocity":0.8346456692913385,"duration":0.21428499999998962},{"name":"A3","midi":57,"time":171.42799999999926,"velocity":0.8346456692913385,"duration":0.42856999999997925},{"name":"D4","midi":62,"time":171.42799999999926,"velocity":0.8346456692913385,"duration":0.8124972916666309},{"name":"F4","midi":65,"time":171.42799999999926,"velocity":0.8346456692913385,"duration":0.42856999999997925},{"name":"A4","midi":69,"time":171.42799999999926,"velocity":0.8346456692913385,"duration":0.42856999999997925},{"name":"F4","midi":65,"time":171.64228499999925,"velocity":0.8346456692913385,"duration":0.42856999999997925},{"name":"A4","midi":69,"time":171.64228499999925,"velocity":0.8346456692913385,"duration":0.42856999999997925},{"name":"F4","midi":65,"time":171.85656999999924,"velocity":0.8346456692913385,"duration":0.41607004166664296},{"name":"A4","midi":69,"time":171.85656999999924,"velocity":0.8346456692913385,"duration":0.41607004166664296},{"name":"F4","midi":65,"time":172.07085499999923,"velocity":0.8346456692913385,"duration":1.0267822916666205},{"name":"A4","midi":69,"time":172.07085499999923,"velocity":0.8346456692913385,"duration":1.0267822916666205},{"name":"G4","midi":67,"time":172.28513999999922,"velocity":0.8346456692913385,"duration":0.20178504166665334},{"name":"A#4","midi":70,"time":172.28513999999922,"velocity":0.8346456692913385,"duration":0.41607004166664296},{"name":"D4","midi":62,"time":172.28513999999922,"velocity":0.8346456692913385,"duration":0.8124972916666309},{"name":"F4","midi":65,"time":172.28513999999922,"velocity":0.8346456692913385,"duration":1.6696372916665894},{"name":"A4","midi":69,"time":172.28513999999922,"velocity":0.8346456692913385,"duration":0.8571399999999585},{"name":"G4","midi":67,"time":172.4994249999992,"velocity":0.8346456692913385,"duration":0.20178504166665334},{"name":"A#4","midi":70,"time":172.4994249999992,"velocity":0.8346456692913385,"duration":0.41607004166664296},{"name":"G4","midi":67,"time":172.7137099999992,"velocity":0.8346456692913385,"duration":0.20178504166665334},{"name":"A#4","midi":70,"time":172.7137099999992,"velocity":0.8346456692913385,"duration":0.41607004166664296},{"name":"G4","midi":67,"time":172.92799499999919,"velocity":0.8346456692913385,"duration":0.20178504166665334},{"name":"A#4","midi":70,"time":172.92799499999919,"velocity":0.8346456692913385,"duration":2.9874900416665184},{"name":"A4","midi":69,"time":173.14227999999918,"velocity":0.8346456692913385,"duration":0.21428499999998962},{"name":"C5","midi":72,"time":173.14227999999918,"velocity":0.8346456692913385,"duration":0.21428499999998962},{"name":"D4","midi":62,"time":173.14227999999918,"velocity":0.8346456692913385,"duration":0.8124972916666309},{"name":"F4","midi":65,"time":173.14227999999918,"velocity":0.8346456692913385,"duration":0.8571399999999585},{"name":"A4","midi":69,"time":173.14227999999918,"velocity":0.8346456692913385,"duration":0.42856999999997925},{"name":"C5","midi":72,"time":173.14227999999918,"velocity":0.8346456692913385,"duration":0.42856999999997925},{"name":"A4","midi":69,"time":173.35656499999916,"velocity":0.8346456692913385,"duration":0.42856999999997925},{"name":"C5","midi":72,"time":173.35656499999916,"velocity":0.8346456692913385,"duration":0.42856999999997925},{"name":"A4","midi":69,"time":173.57084999999915,"velocity":0.8346456692913385,"duration":0.41607004166664296},{"name":"C5","midi":72,"time":173.57084999999915,"velocity":0.8346456692913385,"duration":0.41607004166664296},{"name":"A4","midi":69,"time":173.78513499999914,"velocity":0.8346456692913385,"duration":0.21428499999998962},{"name":"C5","midi":72,"time":173.78513499999914,"velocity":0.8346456692913385,"duration":2.9874900416665184},{"name":"F4","midi":65,"time":173.99941999999913,"velocity":0.8346456692913385,"duration":0.21428499999998962},{"name":"A4","midi":69,"time":173.99941999999913,"velocity":0.8346456692913385,"duration":0.21428499999998962},{"name":"A3","midi":57,"time":173.99941999999913,"velocity":0.8346456692913385,"duration":0.42856999999997925},{"name":"D4","midi":62,"time":173.99941999999913,"velocity":0.8346456692913385,"duration":0.8124972916666309},{"name":"F4","midi":65,"time":173.99941999999913,"velocity":0.8346456692913385,"duration":0.42856999999997925},{"name":"A4","midi":69,"time":173.99941999999913,"velocity":0.8346456692913385,"duration":0.42856999999997925},{"name":"F4","midi":65,"time":174.21370499999912,"velocity":0.8346456692913385,"duration":0.42856999999997925},{"name":"A4","midi":69,"time":174.21370499999912,"velocity":0.8346456692913385,"duration":0.42856999999997925},{"name":"F4","midi":65,"time":174.4279899999991,"velocity":0.8346456692913385,"duration":0.41607004166664296},{"name":"A4","midi":69,"time":174.4279899999991,"velocity":0.8346456692913385,"duration":0.41607004166664296},{"name":"F4","midi":65,"time":174.6422749999991,"velocity":0.8346456692913385,"duration":0.41607004166664296},{"name":"A4","midi":69,"time":174.6422749999991,"velocity":0.8346456692913385,"duration":0.41607004166664296},{"name":"E5","midi":76,"time":174.8565599999991,"velocity":0.9921259842519685,"duration":0.8124972916666309},{"name":"F4","midi":65,"time":174.8565599999991,"velocity":0.8346456692913385,"duration":0.41607004166664296},{"name":"A4","midi":69,"time":174.8565599999991,"velocity":0.8346456692913385,"duration":0.41607004166664296},{"name":"F4","midi":65,"time":175.07084499999908,"velocity":0.8346456692913385,"duration":0.41607004166664296},{"name":"A4","midi":69,"time":175.07084499999908,"velocity":0.8346456692913385,"duration":0.41607004166664296},{"name":"F4","midi":65,"time":175.28512999999907,"velocity":0.8346456692913385,"duration":0.41607004166664296},{"name":"A4","midi":69,"time":175.28512999999907,"velocity":0.8346456692913385,"duration":0.41607004166664296},{"name":"F4","midi":65,"time":175.49941499999906,"velocity":0.8346456692913385,"duration":3.201775041666508},{"name":"A4","midi":69,"time":175.49941499999906,"velocity":0.8346456692913385,"duration":1.2732100416666015},{"name":"F5","midi":77,"time":175.71369999999905,"velocity":0.9921259842519685,"duration":0.8124972916666309},{"name":"G4","midi":67,"time":175.71369999999905,"velocity":0.8346456692913385,"duration":0.20178504166665334},{"name":"A#4","midi":70,"time":175.71369999999905,"velocity":0.8346456692913385,"duration":0.41607004166664296},{"name":"G4","midi":67,"time":175.92798499999904,"velocity":0.8346456692913385,"duration":0.20178504166665334},{"name":"A#4","midi":70,"time":175.92798499999904,"velocity":0.8346456692913385,"duration":0.41607004166664296},{"name":"G4","midi":67,"time":176.14226999999903,"velocity":0.8346456692913385,"duration":0.20178504166665334},{"name":"A#4","midi":70,"time":176.14226999999903,"velocity":0.8346456692913385,"duration":0.41607004166664296},{"name":"G4","midi":67,"time":176.35655499999902,"velocity":0.8346456692913385,"duration":0.20178504166665334},{"name":"A#4","midi":70,"time":176.35655499999902,"velocity":0.8346456692913385,"duration":2.9874900416665184},{"name":"G5","midi":79,"time":176.570839999999,"velocity":0.9921259842519685,"duration":0.20178504166665334},{"name":"A4","midi":69,"time":176.570839999999,"velocity":0.8346456692913385,"duration":0.41607004166664296},{"name":"C5","midi":72,"time":176.570839999999,"velocity":0.8346456692913385,"duration":0.41607004166664296},{"name":"F5","midi":77,"time":176.785124999999,"velocity":0.9921259842519685,"duration":0.20178504166665334},{"name":"A5","midi":81,"time":176.785124999999,"velocity":0.8661417322834646,"duration":0.20178504166665334},{"name":"A4","midi":69,"time":176.785124999999,"velocity":0.8346456692913385,"duration":0.41607004166664296},{"name":"C5","midi":72,"time":176.785124999999,"velocity":0.8346456692913385,"duration":0.41607004166664296},{"name":"F5","midi":77,"time":176.999409999999,"velocity":0.9921259842519685,"duration":0.20178504166665334},{"name":"A4","midi":69,"time":176.999409999999,"velocity":0.8346456692913385,"duration":0.41607004166664296},{"name":"C5","midi":72,"time":176.999409999999,"velocity":0.8346456692913385,"duration":0.41607004166664296},{"name":"F5","midi":77,"time":177.21369499999898,"velocity":0.9921259842519685,"duration":0.20178504166665334},{"name":"A4","midi":69,"time":177.21369499999898,"velocity":0.8346456692913385,"duration":0.6303550416666326},{"name":"C5","midi":72,"time":177.21369499999898,"velocity":0.8346456692913385,"duration":0.41607004166664296},{"name":"F5","midi":77,"time":177.42797999999897,"velocity":0.9921259842519685,"duration":0.30357041666664486},{"name":"C5","midi":72,"time":177.42797999999897,"velocity":0.8346456692913385,"duration":1.0589250416666118},{"name":"A4","midi":69,"time":177.64226499999896,"velocity":0.8346456692913385,"duration":0.41607004166664296},{"name":"A5","midi":81,"time":177.74940749999894,"velocity":0.9921259842519685,"duration":0.3035704166666733},{"name":"A4","midi":69,"time":177.85654999999895,"velocity":0.8346456692913385,"duration":0.41607004166664296},{"name":"A5","midi":81,"time":178.07083499999894,"velocity":0.9921259842519685,"duration":1.8303510416665745},{"name":"A4","midi":69,"time":178.07083499999894,"velocity":0.8346456692913385,"duration":0.41607004166664296},{"name":"A4","midi":69,"time":178.28511999999893,"velocity":0.8346456692913385,"duration":0.41607004166664296},{"name":"C5","midi":72,"time":178.28511999999893,"velocity":0.8346456692913385,"duration":1.9160650416665703},{"name":"F5","midi":77,"time":178.28511999999893,"velocity":0.8346456692913385,"duration":0.20178504166665334},{"name":"F4","midi":65,"time":178.49940499999892,"velocity":0.8346456692913385,"duration":0.41607004166664296},{"name":"A4","midi":69,"time":178.49940499999892,"velocity":0.8346456692913385,"duration":0.41607004166664296},{"name":"F4","midi":65,"time":178.7136899999989,"velocity":0.8346456692913385,"duration":0.41607004166664296},{"name":"A4","midi":69,"time":178.7136899999989,"velocity":0.8346456692913385,"duration":0.41607004166664296},{"name":"F4","midi":65,"time":178.9279749999989,"velocity":0.8346456692913385,"duration":2.987490041666547},{"name":"A4","midi":69,"time":178.9279749999989,"velocity":0.8346456692913385,"duration":1.2732100416666015},{"name":"G4","midi":67,"time":179.14225999999888,"velocity":0.8346456692913385,"duration":0.20178504166665334},{"name":"A#4","midi":70,"time":179.14225999999888,"velocity":0.8346456692913385,"duration":0.41607004166664296},{"name":"G4","midi":67,"time":179.35654499999887,"velocity":0.8346456692913385,"duration":0.20178504166665334},{"name":"A#4","midi":70,"time":179.35654499999887,"velocity":0.8346456692913385,"duration":0.41607004166664296},{"name":"G4","midi":67,"time":179.57082999999886,"velocity":0.8346456692913385,"duration":0.20178504166665334},{"name":"A#4","midi":70,"time":179.57082999999886,"velocity":0.8346456692913385,"duration":0.41607004166664296},{"name":"G4","midi":67,"time":179.78511499999885,"velocity":0.8346456692913385,"duration":0.20178504166665334},{"name":"A#4","midi":70,"time":179.78511499999885,"velocity":0.8346456692913385,"duration":2.9874900416665753},{"name":"A4","midi":69,"time":179.99939999999884,"velocity":0.8346456692913385,"duration":0.41607004166664296},{"name":"C5","midi":72,"time":179.99939999999884,"velocity":0.8346456692913385,"duration":0.41607004166664296},{"name":"F5","midi":77,"time":180.21368499999883,"velocity":0.9921259842519685,"duration":0.20178504166665334},{"name":"A4","midi":69,"time":180.21368499999883,"velocity":0.8346456692913385,"duration":0.41607004166664296},{"name":"C5","midi":72,"time":180.21368499999883,"velocity":0.8346456692913385,"duration":0.41607004166664296},{"name":"F5","midi":77,"time":180.42796999999882,"velocity":0.9921259842519685,"duration":0.20178504166665334},{"name":"A4","midi":69,"time":180.42796999999882,"velocity":0.8346456692913385,"duration":0.41607004166664296},{"name":"C5","midi":72,"time":180.42796999999882,"velocity":0.8346456692913385,"duration":0.41607004166664296},{"name":"F5","midi":77,"time":180.6422549999988,"velocity":0.9921259842519685,"duration":0.20178504166665334},{"name":"A4","midi":69,"time":180.6422549999988,"velocity":0.8346456692913385,"duration":0.630355041666661},{"name":"C5","midi":72,"time":180.6422549999988,"velocity":0.8346456692913385,"duration":0.41607004166664296},{"name":"A#5","midi":82,"time":180.8565399999988,"velocity":0.9921259842519685,"duration":0.4053557916666648},{"name":"C5","midi":72,"time":180.8565399999988,"velocity":0.8346456692913385,"duration":2.773205041666614},{"name":"A4","midi":69,"time":181.0708249999988,"velocity":0.8346456692913385,"duration":0.4160700416666714},{"name":"A5","midi":81,"time":181.2851099999988,"velocity":0.9921259842519685,"duration":0.20178504166665334},{"name":"A4","midi":69,"time":181.2851099999988,"velocity":0.8346456692913385,"duration":0.41607004166664296},{"name":"A5","midi":81,"time":181.4993949999988,"velocity":0.9921259842519685,"duration":0.6089265416666478},{"name":"A4","midi":69,"time":181.4993949999988,"velocity":0.8346456692913385,"duration":0.41607004166664296},{"name":"D4","midi":62,"time":181.7136799999988,"velocity":0.8346456692913385,"duration":0.20178504166665334},{"name":"F4","midi":65,"time":181.7136799999988,"velocity":0.8346456692913385,"duration":2.7732050416665857},{"name":"A4","midi":69,"time":181.7136799999988,"velocity":0.8346456692913385,"duration":0.4160700416666714},{"name":"A4","midi":69,"time":181.92796499999878,"velocity":0.8346456692913385,"duration":0.4160700416666714},{"name":"G5","midi":79,"time":182.1422499999988,"velocity":0.9921259842519685,"duration":1.2196387916666254},{"name":"A4","midi":69,"time":182.1422499999988,"velocity":0.8346456692913385,"duration":0.41607004166664296},{"name":"A4","midi":69,"time":182.3565349999988,"velocity":0.8346456692913385,"duration":1.2732100416666299},{"name":"G4","midi":67,"time":182.57081999999878,"velocity":0.8346456692913385,"duration":0.20178504166665334},{"name":"A#4","midi":70,"time":182.57081999999878,"velocity":0.8346456692913385,"duration":0.41607004166664296},{"name":"G4","midi":67,"time":182.78510499999877,"velocity":0.8346456692913385,"duration":0.20178504166665334},{"name":"A#4","midi":70,"time":182.78510499999877,"velocity":0.8346456692913385,"duration":0.41607004166664296},{"name":"G4","midi":67,"time":182.99938999999875,"velocity":0.8346456692913385,"duration":0.20178504166665334},{"name":"A#4","midi":70,"time":182.99938999999875,"velocity":0.8346456692913385,"duration":0.4160700416666714},{"name":"G4","midi":67,"time":183.21367499999874,"velocity":0.8346456692913385,"duration":0.20178504166668176},{"name":"A#4","midi":70,"time":183.21367499999874,"velocity":0.8346456692913385,"duration":2.987490041666547},{"name":"A4","midi":69,"time":183.42795999999876,"velocity":0.8346456692913385,"duration":0.41607004166664296},{"name":"C5","midi":72,"time":183.42795999999876,"velocity":0.8346456692913385,"duration":3.6303450416664873},{"name":"F5","midi":77,"time":183.64224499999875,"velocity":0.9921259842519685,"duration":0.20178504166665334},{"name":"A4","midi":69,"time":183.64224499999875,"velocity":0.8346456692913385,"duration":0.41607004166664296},{"name":"D5","midi":74,"time":183.64224499999875,"velocity":0.8346456692913385,"duration":0.20178504166665334},{"name":"F5","midi":77,"time":183.85652999999874,"velocity":0.9921259842519685,"duration":0.20178504166665334},{"name":"A4","midi":69,"time":183.85652999999874,"velocity":0.8346456692913385,"duration":0.41607004166664296},{"name":"D5","midi":74,"time":183.85652999999874,"velocity":0.8346456692913385,"duration":0.20178504166665334},{"name":"F5","midi":77,"time":184.07081499999873,"velocity":0.9921259842519685,"duration":0.20178504166665334},{"name":"A4","midi":69,"time":184.07081499999873,"velocity":0.8346456692913385,"duration":0.41607004166664296},{"name":"D5","midi":74,"time":184.07081499999873,"velocity":0.8346456692913385,"duration":0.20178504166665334},{"name":"F5","midi":77,"time":184.28509999999872,"velocity":0.9921259842519685,"duration":0.30357041666664486},{"name":"F4","midi":65,"time":184.28509999999872,"velocity":0.8346456692913385,"duration":1.0589250416666118},{"name":"A4","midi":69,"time":184.28509999999872,"velocity":0.8346456692913385,"duration":0.41607004166664296},{"name":"A4","midi":69,"time":184.4993849999987,"velocity":0.8346456692913385,"duration":0.41607004166664296},{"name":"A5","midi":81,"time":184.6065274999987,"velocity":0.9921259842519685,"duration":0.3035704166666733},{"name":"A4","midi":69,"time":184.7136699999987,"velocity":0.8346456692913385,"duration":0.41607004166664296},{"name":"A5","midi":81,"time":184.9279549999987,"velocity":0.9921259842519685,"duration":1.8303510416665745},{"name":"A4","midi":69,"time":184.9279549999987,"velocity":0.8346456692913385,"duration":0.41607004166664296},{"name":"D4","midi":62,"time":185.14223999999868,"velocity":0.8346456692913385,"duration":0.20178504166665334},{"name":"F4","midi":65,"time":185.14223999999868,"velocity":0.8346456692913385,"duration":0.41607004166664296},{"name":"A4","midi":69,"time":185.14223999999868,"velocity":0.8346456692913385,"duration":0.41607004166664296},{"name":"F4","midi":65,"time":185.35652499999867,"velocity":0.8346456692913385,"duration":0.41607004166664296},{"name":"A4","midi":69,"time":185.35652499999867,"velocity":0.8346456692913385,"duration":0.41607004166664296},{"name":"F4","midi":65,"time":185.57080999999866,"velocity":0.8346456692913385,"duration":0.41607004166664296},{"name":"A4","midi":69,"time":185.57080999999866,"velocity":0.8346456692913385,"duration":0.41607004166664296},{"name":"F4","midi":65,"time":185.78509499999865,"velocity":0.8346456692913385,"duration":2.13035004166656},{"name":"A4","midi":69,"time":185.78509499999865,"velocity":0.8346456692913385,"duration":1.2732100416666015},{"name":"G4","midi":67,"time":185.99937999999864,"velocity":0.8346456692913385,"duration":0.20178504166665334},{"name":"A#4","midi":70,"time":185.99937999999864,"velocity":0.8346456692913385,"duration":0.41607004166664296},{"name":"G4","midi":67,"time":186.21366499999863,"velocity":0.8346456692913385,"duration":0.20178504166665334},{"name":"A#4","midi":70,"time":186.21366499999863,"velocity":0.8346456692913385,"duration":0.41607004166664296},{"name":"G4","midi":67,"time":186.42794999999862,"velocity":0.8346456692913385,"duration":0.20178504166665334},{"name":"A#4","midi":70,"time":186.42794999999862,"velocity":0.8346456692913385,"duration":0.41607004166664296},{"name":"G4","midi":67,"time":186.6422349999986,"velocity":0.8346456692913385,"duration":0.20178504166665334},{"name":"A#4","midi":70,"time":186.6422349999986,"velocity":0.8346456692913385,"duration":2.987490041666547},{"name":"F5","midi":77,"time":186.8565199999986,"velocity":0.9921259842519685,"duration":0.30357041666664486},{"name":"A4","midi":69,"time":186.8565199999986,"velocity":0.8346456692913385,"duration":0.41607004166664296},{"name":"C5","midi":72,"time":186.8565199999986,"velocity":0.8346456692913385,"duration":0.41607004166664296},{"name":"A4","midi":69,"time":187.0708049999986,"velocity":0.8346456692913385,"duration":0.41607004166664296},{"name":"C5","midi":72,"time":187.0708049999986,"velocity":0.8346456692913385,"duration":0.41607004166664296},{"name":"E5","midi":76,"time":187.17794749999857,"velocity":0.9921259842519685,"duration":0.3035704166666733},{"name":"A4","midi":69,"time":187.28508999999858,"velocity":0.8346456692913385,"duration":0.41607004166664296},{"name":"C5","midi":72,"time":187.28508999999858,"velocity":0.8346456692913385,"duration":0.41607004166664296},{"name":"D5","midi":74,"time":187.49937499999857,"velocity":0.9921259842519685,"duration":0.20178504166665334},{"name":"A4","midi":69,"time":187.49937499999857,"velocity":0.8346456692913385,"duration":0.41607004166664296},{"name":"C5","midi":72,"time":187.49937499999857,"velocity":0.8346456692913385,"duration":0.6196407916666544},{"name":"C5","midi":72,"time":187.71365999999855,"velocity":0.9921259842519685,"duration":2.5160630416665697},{"name":"F4","midi":65,"time":187.71365999999855,"velocity":0.8346456692913385,"duration":0.4160700416666714},{"name":"A4","midi":69,"time":187.71365999999855,"velocity":0.8346456692913385,"duration":0.4160700416666714},{"name":"F4","midi":65,"time":187.92794499999854,"velocity":0.8346456692913385,"duration":0.4160700416666714},{"name":"A4","midi":69,"time":187.92794499999854,"velocity":0.8346456692913385,"duration":0.426784291666678},{"name":"A4","midi":69,"time":188.14222999999856,"velocity":0.9921259842519685,"duration":0.41607004166664296},{"name":"F4","midi":65,"time":188.14222999999856,"velocity":0.8346456692913385,"duration":0.41607004166664296},{"name":"D5","midi":74,"time":188.35651499999855,"velocity":0.9921259842519685,"duration":0.8124972916666309},{"name":"F4","midi":65,"time":188.35651499999855,"velocity":0.8346456692913385,"duration":0.41607004166664296},{"name":"A4","midi":69,"time":188.35651499999855,"velocity":0.8346456692913385,"duration":0.41607004166664296},{"name":"F4","midi":65,"time":188.57079999999854,"velocity":0.8346456692913385,"duration":0.41607004166664296},{"name":"A4","midi":69,"time":188.57079999999854,"velocity":0.8346456692913385,"duration":0.41607004166664296},{"name":"F4","midi":65,"time":188.78508499999853,"velocity":0.8346456692913385,"duration":0.41607004166664296},{"name":"A4","midi":69,"time":188.78508499999853,"velocity":0.8346456692913385,"duration":0.41607004166664296},{"name":"F4","midi":65,"time":188.99936999999852,"velocity":0.8346456692913385,"duration":0.41607004166664296},{"name":"A4","midi":69,"time":188.99936999999852,"velocity":0.8346456692913385,"duration":0.41607004166664296},{"name":"C5","midi":72,"time":189.2136549999985,"velocity":0.9921259842519685,"duration":1.2732100416666015},{"name":"F4","midi":65,"time":189.2136549999985,"velocity":0.8346456692913385,"duration":0},{"name":"A4","midi":69,"time":189.2136549999985,"velocity":0.8346456692913385,"duration":1.2732100416666015},{"name":"G4","midi":67,"time":189.4279399999985,"velocity":0.8346456692913385,"duration":0.20178504166665334},{"name":"A#4","midi":70,"time":189.4279399999985,"velocity":0.8346456692913385,"duration":0.41607004166664296},{"name":"G4","midi":67,"time":189.6422249999985,"velocity":0.8346456692913385,"duration":0.20178504166665334},{"name":"A#4","midi":70,"time":189.6422249999985,"velocity":0.8346456692913385,"duration":0.41607004166664296},{"name":"G4","midi":67,"time":189.85650999999848,"velocity":0.8346456692913385,"duration":0.20178504166665334},{"name":"A#4","midi":70,"time":189.85650999999848,"velocity":0.8346456692913385,"duration":0.41607004166664296},{"name":"G4","midi":67,"time":190.07079499999847,"velocity":0.8346456692913385,"duration":0.20178504166665334},{"name":"A#4","midi":70,"time":190.07079499999847,"velocity":0.8346456692913385,"duration":0},{"name":"A4","midi":69,"time":190.28507999999846,"velocity":0.8346456692913385,"duration":0.41607004166664296},{"name":"C5","midi":72,"time":190.28507999999846,"velocity":0.8346456692913385,"duration":0.41607004166664296},{"name":"F5","midi":77,"time":190.49936499999845,"velocity":0.9921259842519685,"duration":0.20178504166665334},{"name":"A4","midi":69,"time":190.49936499999845,"velocity":0.8346456692913385,"duration":0.41607004166664296},{"name":"C5","midi":72,"time":190.49936499999845,"velocity":0.8346456692913385,"duration":0.41607004166664296},{"name":"F5","midi":77,"time":190.71364999999844,"velocity":0.9921259842519685,"duration":0.20178504166665334},{"name":"A4","midi":69,"time":190.71364999999844,"velocity":0.8346456692913385,"duration":0.41607004166664296},{"name":"C5","midi":72,"time":190.71364999999844,"velocity":0.8346456692913385,"duration":0.41607004166664296},{"name":"F5","midi":77,"time":190.92793499999843,"velocity":0.9921259842519685,"duration":0.20178504166665334},{"name":"A4","midi":69,"time":190.92793499999843,"velocity":0.8346456692913385,"duration":0.6303550416666326},{"name":"C5","midi":72,"time":190.92793499999843,"velocity":0.8346456692913385,"duration":0.41607004166664296},{"name":"F5","midi":77,"time":191.14221999999842,"velocity":0.9921259842519685,"duration":0.30357041666664486},{"name":"C5","midi":72,"time":191.14221999999842,"velocity":0.8346456692913385,"duration":0},{"name":"A4","midi":69,"time":191.3565049999984,"velocity":0.8346456692913385,"duration":0.41607004166664296},{"name":"A5","midi":81,"time":191.4636474999984,"velocity":0.8661417322834646,"duration":0.3035704166666733},{"name":"A4","midi":69,"time":191.5707899999984,"velocity":0.8346456692913385,"duration":0.41607004166664296},{"name":"A5","midi":81,"time":191.7850749999984,"velocity":0.8661417322834646,"duration":3.4589170416666093},{"name":"A4","midi":69,"time":191.7850749999984,"velocity":0.6299212598425197,"duration":1.026782291666649},{"name":"A4","midi":69,"time":191.99935999999838,"velocity":0.5511811023622047,"duration":1.6696372916666462},{"name":"A4","midi":69,"time":192.85649999999836,"velocity":0.5511811023622047,"duration":1.6696372916666462},{"name":"A4","midi":69,"time":193.71363999999835,"velocity":0.5511811023622047,"duration":1.6696372916666462},{"name":"A4","midi":69,"time":194.57077999999834,"velocity":0.5511811023622047,"duration":0},{"name":"D4","midi":62,"time":195.42791999999832,"velocity":0.5511811023622047,"duration":0.8124972916666593},{"name":"D4","midi":62,"time":196.2850599999983,"velocity":0.5511811023622047,"duration":0.8124972916666593},{"name":"D4","midi":62,"time":197.1421999999983,"velocity":0.5511811023622047,"duration":0.8124972916666593},{"name":"D4","midi":62,"time":197.99933999999828,"velocity":0.5511811023622047,"duration":0.8124972916666593},{"name":"D4","midi":62,"time":198.85647999999827,"velocity":0.5511811023622047,"duration":0.8124972916666593},{"name":"D4","midi":62,"time":199.71361999999826,"velocity":0.5511811023622047,"duration":0.8124972916666593},{"name":"D4","midi":62,"time":200.57075999999824,"velocity":0.5511811023622047,"duration":0.8124972916666593},{"name":"D4","midi":62,"time":201.42789999999823,"velocity":0.5511811023622047,"duration":0.20178504166665334},{"name":"E4","midi":64,"time":201.64218499999822,"velocity":0.5511811023622047,"duration":0.6089265416666763},{"name":"A#3","midi":58,"time":202.28503999999822,"velocity":0.5511811023622047,"duration":3.2553462916666547},{"name":"D4","midi":62,"time":202.28503999999822,"velocity":0.5511811023622047,"duration":3.2553462916666547}]},{"instrument_number":-1,"notes":[{"name":"F3","midi":53,"time":0.6428550000000001,"velocity":0.5039370078740157,"duration":0.8124972916666667},{"name":"F3","midi":53,"time":1.4999950000000002,"velocity":0.5039370078740157,"duration":0.8124972916666664},{"name":"F3","midi":53,"time":2.357135,"velocity":0.5039370078740157,"duration":0.8124972916666668},{"name":"A#2","midi":46,"time":3.214275,"velocity":0.5039370078740157,"duration":0.8124972916666668},{"name":"A#2","midi":46,"time":4.071415,"velocity":0.5039370078740157,"duration":0.8124972916666664},{"name":"A#2","midi":46,"time":4.928554999999999,"velocity":0.5039370078740157,"duration":0.8124972916666664},{"name":"A#2","midi":46,"time":5.785694999999999,"velocity":0.5039370078740157,"duration":0.8124972916666664},{"name":"D3","midi":50,"time":6.642834999999998,"velocity":0.5039370078740157,"duration":0.8124972916666664},{"name":"D3","midi":50,"time":7.499974999999997,"velocity":0.5039370078740157,"duration":0.8124972916666664},{"name":"D3","midi":50,"time":8.357114999999997,"velocity":0.5039370078740157,"duration":0.8124972916666664},{"name":"D3","midi":50,"time":9.214254999999996,"velocity":0.5039370078740157,"duration":0.8124972916666664},{"name":"A#2","midi":46,"time":10.071394999999995,"velocity":0.5039370078740157,"duration":0.8124972916666664},{"name":"A#2","midi":46,"time":10.928534999999995,"velocity":0.5039370078740157,"duration":0.8124972916666664},{"name":"A#2","midi":46,"time":11.785674999999994,"velocity":0.5039370078740157,"duration":0.8124972916666664},{"name":"A#2","midi":46,"time":12.642814999999993,"velocity":0.5039370078740157,"duration":0.8124972916666664},{"name":"F2","midi":41,"time":13.499954999999993,"velocity":0.5039370078740157,"duration":0.20178504166666578},{"name":"F3","midi":53,"time":13.714239999999991,"velocity":0.5039370078740157,"duration":0.6089265416666674},{"name":"F2","midi":41,"time":14.357094999999992,"velocity":0.5039370078740157,"duration":0.20178504166666578},{"name":"F3","midi":53,"time":14.57137999999999,"velocity":0.5039370078740157,"duration":0.6089265416666674},{"name":"F2","midi":41,"time":15.214234999999992,"velocity":0.5039370078740157,"duration":0.20178504166666755},{"name":"F3","midi":53,"time":15.428519999999992,"velocity":0.5039370078740157,"duration":0.6089265416666656},{"name":"F2","midi":41,"time":16.07137499999999,"velocity":0.5039370078740157,"duration":0.20178504166666755},{"name":"F3","midi":53,"time":16.28565999999999,"velocity":0.5039370078740157,"duration":0.6089265416666656},{"name":"A#2","midi":46,"time":16.928514999999987,"velocity":0.5039370078740157,"duration":0.20178504166666755},{"name":"A#3","midi":58,"time":17.142799999999987,"velocity":0.5039370078740157,"duration":0.6089265416666656},{"name":"A#2","midi":46,"time":17.785654999999984,"velocity":0.5039370078740157,"duration":0.20178504166666755},{"name":"A#3","midi":58,"time":17.999939999999985,"velocity":0.5039370078740157,"duration":0.6089265416666656},{"name":"A#2","midi":46,"time":18.642794999999982,"velocity":0.5039370078740157,"duration":0.20178504166666755},{"name":"A#3","midi":58,"time":18.857079999999982,"velocity":0.5039370078740157,"duration":0.6089265416666656},{"name":"A#2","midi":46,"time":19.49993499999998,"velocity":0.5039370078740157,"duration":0.20178504166666755},{"name":"A#3","midi":58,"time":19.71421999999998,"velocity":0.5039370078740157,"duration":0.6089265416666656},{"name":"D2","midi":38,"time":20.357074999999977,"velocity":0.5039370078740157,"duration":0.20178504166666755},{"name":"D3","midi":50,"time":20.571359999999977,"velocity":0.5039370078740157,"duration":0.6089265416666656},{"name":"D2","midi":38,"time":21.214214999999975,"velocity":0.5039370078740157,"duration":0.20178504166666755},{"name":"D3","midi":50,"time":21.428499999999975,"velocity":0.5039370078740157,"duration":0.6089265416666656},{"name":"D2","midi":38,"time":22.071354999999972,"velocity":0.5039370078740157,"duration":0.20178504166666755},{"name":"D3","midi":50,"time":22.285639999999972,"velocity":0.5039370078740157,"duration":0.6089265416666656},{"name":"D2","midi":38,"time":22.92849499999997,"velocity":0.5039370078740157,"duration":0.20178504166666755},{"name":"D3","midi":50,"time":23.14277999999997,"velocity":0.5039370078740157,"duration":0.6089265416666656},{"name":"A#2","midi":46,"time":23.785634999999967,"velocity":0.5039370078740157,"duration":0.20178504166666755},{"name":"A#3","midi":58,"time":23.999919999999968,"velocity":0.5039370078740157,"duration":0.6089265416666656},{"name":"A#2","midi":46,"time":24.642774999999965,"velocity":0.5039370078740157,"duration":0.20178504166666755},{"name":"A#3","midi":58,"time":24.857059999999965,"velocity":0.5039370078740157,"duration":0.6089265416666656},{"name":"A#2","midi":46,"time":25.499914999999962,"velocity":0.5039370078740157,"duration":0.20178504166666755},{"name":"A#3","midi":58,"time":25.714199999999963,"velocity":0.5039370078740157,"duration":0.6089265416666656},{"name":"A#2","midi":46,"time":26.35705499999996,"velocity":0.5039370078740157,"duration":0.20178504166666755},{"name":"A#3","midi":58,"time":26.57133999999996,"velocity":0.5039370078740157,"duration":0.6089265416666656},{"name":"F2","midi":41,"time":27.214194999999958,"velocity":0.5039370078740157,"duration":0.20178504166666755},{"name":"F3","midi":53,"time":27.428479999999958,"velocity":0.5039370078740157,"duration":0.6089265416666656},{"name":"F2","midi":41,"time":28.071334999999955,"velocity":0.5039370078740157,"duration":0.20178504166666755},{"name":"F3","midi":53,"time":28.285619999999955,"velocity":0.5039370078740157,"duration":0.6089265416666656},{"name":"F2","midi":41,"time":28.928474999999953,"velocity":0.5039370078740157,"duration":0.20178504166666755},{"name":"F3","midi":53,"time":29.142759999999953,"velocity":0.5039370078740157,"duration":0.6089265416666656},{"name":"F2","midi":41,"time":29.78561499999995,"velocity":0.5039370078740157,"duration":0.20178504166666755},{"name":"F3","midi":53,"time":29.99989999999995,"velocity":0.5039370078740157,"duration":0.6089265416666656},{"name":"A#2","midi":46,"time":30.642754999999948,"velocity":0.5039370078740157,"duration":0.20178504166666755},{"name":"A#3","midi":58,"time":30.857039999999948,"velocity":0.5039370078740157,"duration":0.6089265416666656},{"name":"A#2","midi":46,"time":31.499894999999945,"velocity":0.5039370078740157,"duration":0.20178504166666755},{"name":"A#3","midi":58,"time":31.714179999999946,"velocity":0.5039370078740157,"duration":0.6089265416666656},{"name":"A#2","midi":46,"time":32.35703499999995,"velocity":0.5039370078740157,"duration":0.20178504166666755},{"name":"A#3","midi":58,"time":32.57131999999995,"velocity":0.5039370078740157,"duration":0.6089265416666692},{"name":"A#2","midi":46,"time":33.214174999999955,"velocity":0.5039370078740157,"duration":0.20178504166666755},{"name":"A#3","midi":58,"time":33.42845999999996,"velocity":0.5039370078740157,"duration":0.6089265416666692},{"name":"D2","midi":38,"time":34.07131499999996,"velocity":0.5039370078740157,"duration":0.20178504166667466},{"name":"F3","midi":53,"time":34.285599999999974,"velocity":0.5039370078740157,"duration":0.6089265416666692},{"name":"D2","midi":38,"time":34.92845499999998,"velocity":0.5039370078740157,"duration":0.20178504166666755},{"name":"F3","midi":53,"time":35.14273999999998,"velocity":0.5039370078740157,"duration":0.6089265416666692},{"name":"D2","midi":38,"time":35.78559499999999,"velocity":0.5039370078740157,"duration":0.20178504166666755},{"name":"F3","midi":53,"time":35.99987999999999,"velocity":0.5039370078740157,"duration":0.6089265416666692},{"name":"D2","midi":38,"time":36.642734999999995,"velocity":0.5039370078740157,"duration":0.20178504166666755},{"name":"F3","midi":53,"time":36.85702,"velocity":0.5039370078740157,"duration":0.6089265416666692},{"name":"A#2","midi":46,"time":37.499875,"velocity":0.5039370078740157,"duration":0.20178504166667466},{"name":"A#3","midi":58,"time":37.714160000000014,"velocity":0.5039370078740157,"duration":0.6089265416666692},{"name":"A#2","midi":46,"time":38.35701500000002,"velocity":0.5039370078740157,"duration":0.20178504166666755},{"name":"A#3","midi":58,"time":38.57130000000002,"velocity":0.5039370078740157,"duration":0.6089265416666692},{"name":"A#2","midi":46,"time":39.21415500000003,"velocity":0.5039370078740157,"duration":0.20178504166666755},{"name":"A#3","midi":58,"time":39.42844000000003,"velocity":0.5039370078740157,"duration":0.6089265416666692},{"name":"A#2","midi":46,"time":40.071295000000035,"velocity":0.5039370078740157,"duration":0.20178504166666755},{"name":"A#3","midi":58,"time":40.28558000000004,"velocity":0.6299212598425197,"duration":0.4053557916666648},{"name":"A#2","midi":46,"time":40.71415000000004,"velocity":0.6299212598425197,"duration":0.4053557916666648},{"name":"F3","midi":53,"time":41.14272000000004,"velocity":0.6299212598425197,"duration":0.20178504166667466},{"name":"F2","midi":41,"time":41.14272000000004,"velocity":0.6299212598425197,"duration":0.8124972916666806},{"name":"A3","midi":57,"time":41.35700500000005,"velocity":0.6299212598425197,"duration":0.4053557916666648},{"name":"A3","midi":57,"time":41.78557500000005,"velocity":0.6299212598425197,"duration":0.20178504166666755},{"name":"F3","midi":53,"time":41.999860000000055,"velocity":0.6299212598425197,"duration":0.20178504166666755},{"name":"F2","midi":41,"time":41.999860000000055,"velocity":0.6299212598425197,"duration":0.8124972916666735},{"name":"A3","midi":57,"time":42.21414500000006,"velocity":0.6299212598425197,"duration":0.4053557916666648},{"name":"A3","midi":57,"time":42.64271500000006,"velocity":0.6299212598425197,"duration":0.20178504166666755},{"name":"F3","midi":53,"time":42.85700000000006,"velocity":0.6299212598425197,"duration":0.20178504166666755},{"name":"F2","midi":41,"time":42.85700000000006,"velocity":0.6299212598425197,"duration":0.8124972916666735},{"name":"A3","midi":57,"time":43.07128500000007,"velocity":0.6299212598425197,"duration":0.4053557916666648},{"name":"A3","midi":57,"time":43.49985500000007,"velocity":0.6299212598425197,"duration":0.20178504166666755},{"name":"F3","midi":53,"time":43.71414000000007,"velocity":0.6299212598425197,"duration":0.20178504166666755},{"name":"F2","midi":41,"time":43.71414000000007,"velocity":0.6299212598425197,"duration":0.8124972916666735},{"name":"A3","midi":57,"time":43.928425000000075,"velocity":0.6299212598425197,"duration":0.4053557916666648},{"name":"A3","midi":57,"time":44.356995000000076,"velocity":0.6299212598425197,"duration":0.20178504166666755},{"name":"A#2","midi":46,"time":44.57128000000008,"velocity":0.6299212598425197,"duration":0.20178504166667466},{"name":"A#1","midi":34,"time":44.57128000000008,"velocity":0.6299212598425197,"duration":0.8124972916666806},{"name":"D3","midi":50,"time":44.78556500000009,"velocity":0.6299212598425197,"duration":0.4053557916666648},{"name":"D3","midi":50,"time":45.21413500000009,"velocity":0.6299212598425197,"duration":0.20178504166666755},{"name":"A#2","midi":46,"time":45.428420000000095,"velocity":0.6299212598425197,"duration":0.20178504166666755},{"name":"A#1","midi":34,"time":45.428420000000095,"velocity":0.6299212598425197,"duration":0.8124972916666735},{"name":"D3","midi":50,"time":45.6427050000001,"velocity":0.6299212598425197,"duration":0.4053557916666648},{"name":"D3","midi":50,"time":46.0712750000001,"velocity":0.6299212598425197,"duration":0.20178504166666755},{"name":"A#2","midi":46,"time":46.2855600000001,"velocity":0.6299212598425197,"duration":0.20178504166666755},{"name":"A#1","midi":34,"time":46.2855600000001,"velocity":0.6299212598425197,"duration":0.8124972916666735},{"name":"D3","midi":50,"time":46.49984500000011,"velocity":0.6299212598425197,"duration":0.4053557916666648},{"name":"D3","midi":50,"time":46.92841500000011,"velocity":0.6299212598425197,"duration":0.20178504166666755},{"name":"A#2","midi":46,"time":47.14270000000011,"velocity":0.6299212598425197,"duration":0.20178504166666755},{"name":"A#1","midi":34,"time":47.14270000000011,"velocity":0.6299212598425197,"duration":0.8124972916666735},{"name":"D3","midi":50,"time":47.356985000000115,"velocity":0.6299212598425197,"duration":0.4053557916666648},{"name":"D3","midi":50,"time":47.785555000000116,"velocity":0.6299212598425197,"duration":0.20178504166666755},{"name":"D3","midi":50,"time":47.99984000000012,"velocity":0.6299212598425197,"duration":0.20178504166667466},{"name":"D2","midi":38,"time":47.99984000000012,"velocity":0.6299212598425197,"duration":0.8124972916666806},{"name":"F3","midi":53,"time":48.21412500000013,"velocity":0.6299212598425197,"duration":0.4053557916666648},{"name":"F3","midi":53,"time":48.64269500000013,"velocity":0.6299212598425197,"duration":0.20178504166666755},{"name":"D3","midi":50,"time":48.856980000000135,"velocity":0.6299212598425197,"duration":0.20178504166666755},{"name":"D2","midi":38,"time":48.856980000000135,"velocity":0.6299212598425197,"duration":0.8124972916666735},{"name":"F3","midi":53,"time":49.07126500000014,"velocity":0.6299212598425197,"duration":0.4053557916666648},{"name":"F3","midi":53,"time":49.49983500000014,"velocity":0.6299212598425197,"duration":0.20178504166666755},{"name":"D3","midi":50,"time":49.71412000000014,"velocity":0.6299212598425197,"duration":0.20178504166666755},{"name":"D2","midi":38,"time":49.71412000000014,"velocity":0.6299212598425197,"duration":0.8124972916666735},{"name":"F3","midi":53,"time":49.92840500000015,"velocity":0.6299212598425197,"duration":0.4053557916666648},{"name":"F3","midi":53,"time":50.35697500000015,"velocity":0.6299212598425197,"duration":0.20178504166666755},{"name":"D3","midi":50,"time":50.57126000000015,"velocity":0.6299212598425197,"duration":0.20178504166666755},{"name":"D2","midi":38,"time":50.57126000000015,"velocity":0.6299212598425197,"duration":0.8124972916666735},{"name":"F3","midi":53,"time":50.785545000000155,"velocity":0.6299212598425197,"duration":0.4053557916666648},{"name":"F3","midi":53,"time":51.214115000000156,"velocity":0.6299212598425197,"duration":0.20178504166666755},{"name":"A#2","midi":46,"time":51.42840000000016,"velocity":0.6299212598425197,"duration":0.20178504166667466},{"name":"A#1","midi":34,"time":51.42840000000016,"velocity":0.6299212598425197,"duration":0.8124972916666806},{"name":"D3","midi":50,"time":51.64268500000017,"velocity":0.6299212598425197,"duration":0.4053557916666648},{"name":"D3","midi":50,"time":52.07125500000017,"velocity":0.6299212598425197,"duration":0.20178504166666755},{"name":"A#2","midi":46,"time":52.285540000000175,"velocity":0.6299212598425197,"duration":0.20178504166666755},{"name":"A#1","midi":34,"time":52.285540000000175,"velocity":0.6299212598425197,"duration":0.8124972916666735},{"name":"D3","midi":50,"time":52.49982500000018,"velocity":0.6299212598425197,"duration":0.4053557916666648},{"name":"D3","midi":50,"time":52.92839500000018,"velocity":0.6299212598425197,"duration":0.20178504166666755},{"name":"A#2","midi":46,"time":53.14268000000018,"velocity":0.6299212598425197,"duration":0.20178504166666755},{"name":"A#1","midi":34,"time":53.14268000000018,"velocity":0.6299212598425197,"duration":0.8124972916666735},{"name":"D3","midi":50,"time":53.35696500000019,"velocity":0.6299212598425197,"duration":0.4053557916666648},{"name":"D3","midi":50,"time":53.78553500000019,"velocity":0.6299212598425197,"duration":0.20178504166666755},{"name":"A#2","midi":46,"time":53.99982000000019,"velocity":0.6299212598425197,"duration":0.20178504166666755},{"name":"A#1","midi":34,"time":53.99982000000019,"velocity":0.6299212598425197,"duration":0.8124972916666735},{"name":"D3","midi":50,"time":54.214105000000195,"velocity":0.6299212598425197,"duration":0.4053557916666648},{"name":"D3","midi":50,"time":54.642675000000196,"velocity":0.6299212598425197,"duration":0.20178504166666755},{"name":"F3","midi":53,"time":54.8569600000002,"velocity":0.6299212598425197,"duration":0.20178504166667466},{"name":"F2","midi":41,"time":54.8569600000002,"velocity":0.6299212598425197,"duration":0.8124972916666806},{"name":"A3","midi":57,"time":55.07124500000021,"velocity":0.6299212598425197,"duration":0.4053557916666648},{"name":"A3","midi":57,"time":55.49981500000021,"velocity":0.6299212598425197,"duration":0.20178504166666755},{"name":"F3","midi":53,"time":55.714100000000215,"velocity":0.6299212598425197,"duration":0.20178504166666755},{"name":"F2","midi":41,"time":55.714100000000215,"velocity":0.6299212598425197,"duration":0.8124972916666735},{"name":"A3","midi":57,"time":55.92838500000022,"velocity":0.6299212598425197,"duration":0.4053557916666648},{"name":"A3","midi":57,"time":56.35695500000022,"velocity":0.6299212598425197,"duration":0.20178504166666755},{"name":"F3","midi":53,"time":56.57124000000022,"velocity":0.6299212598425197,"duration":0.20178504166666755},{"name":"F2","midi":41,"time":56.57124000000022,"velocity":0.6299212598425197,"duration":0.8124972916666735},{"name":"A3","midi":57,"time":56.78552500000023,"velocity":0.6299212598425197,"duration":0.4053557916666648},{"name":"A3","midi":57,"time":57.21409500000023,"velocity":0.6299212598425197,"duration":0.20178504166666755},{"name":"F3","midi":53,"time":57.42838000000023,"velocity":0.6299212598425197,"duration":0.20178504166666755},{"name":"F2","midi":41,"time":57.42838000000023,"velocity":0.6299212598425197,"duration":0.8124972916666735},{"name":"A3","midi":57,"time":57.642665000000235,"velocity":0.6299212598425197,"duration":0.4053557916666648},{"name":"A3","midi":57,"time":58.071235000000236,"velocity":0.6299212598425197,"duration":0.20178504166666755},{"name":"A#2","midi":46,"time":58.28552000000024,"velocity":0.6299212598425197,"duration":0.20178504166667466},{"name":"A#1","midi":34,"time":58.28552000000024,"velocity":0.6299212598425197,"duration":0.8124972916666806},{"name":"F3","midi":53,"time":58.49980500000025,"velocity":0.6299212598425197,"duration":0.4053557916666648},{"name":"F3","midi":53,"time":58.92837500000025,"velocity":0.6299212598425197,"duration":0.20178504166666755},{"name":"A#2","midi":46,"time":59.142660000000255,"velocity":0.6299212598425197,"duration":0.20178504166666755},{"name":"A#1","midi":34,"time":59.142660000000255,"velocity":0.6299212598425197,"duration":0.8124972916666735},{"name":"F3","midi":53,"time":59.35694500000026,"velocity":0.6299212598425197,"duration":0.4053557916666648},{"name":"F3","midi":53,"time":59.78551500000026,"velocity":0.6299212598425197,"duration":0.20178504166666755},{"name":"A#2","midi":46,"time":59.99980000000026,"velocity":0.6299212598425197,"duration":0.20178504166666755},{"name":"A#1","midi":34,"time":59.99980000000026,"velocity":0.6299212598425197,"duration":0.8124972916666735},{"name":"F3","midi":53,"time":60.21408500000027,"velocity":0.6299212598425197,"duration":0.4053557916666648},{"name":"F3","midi":53,"time":60.64265500000027,"velocity":0.6299212598425197,"duration":0.20178504166666755},{"name":"A#2","midi":46,"time":60.85694000000027,"velocity":0.6299212598425197,"duration":0.20178504166666755},{"name":"A#1","midi":34,"time":60.85694000000027,"velocity":0.6299212598425197,"duration":0.8124972916666735},{"name":"F3","midi":53,"time":61.071225000000275,"velocity":0.6299212598425197,"duration":0.4053557916666648},{"name":"F3","midi":53,"time":61.499795000000276,"velocity":0.6299212598425197,"duration":0.20178504166666755},{"name":"D3","midi":50,"time":61.71408000000028,"velocity":0.6299212598425197,"duration":0.20178504166667466},{"name":"D2","midi":38,"time":61.71408000000028,"velocity":0.6299212598425197,"duration":0.8124972916666806},{"name":"F3","midi":53,"time":61.92836500000029,"velocity":0.6299212598425197,"duration":0.4053557916666648},{"name":"F3","midi":53,"time":62.35693500000029,"velocity":0.6299212598425197,"duration":0.20178504166666755},{"name":"D3","midi":50,"time":62.571220000000295,"velocity":0.6299212598425197,"duration":0.20178504166666755},{"name":"D2","midi":38,"time":62.571220000000295,"velocity":0.6299212598425197,"duration":0.8124972916666735},{"name":"F3","midi":53,"time":62.7855050000003,"velocity":0.6299212598425197,"duration":0.4053557916666648},{"name":"F3","midi":53,"time":63.2140750000003,"velocity":0.6299212598425197,"duration":0.20178504166666755},{"name":"D3","midi":50,"time":63.4283600000003,"velocity":0.6299212598425197,"duration":0.20178504166666755},{"name":"D2","midi":38,"time":63.4283600000003,"velocity":0.6299212598425197,"duration":0.8124972916666664},{"name":"F3","midi":53,"time":63.64264500000031,"velocity":0.6299212598425197,"duration":0.4053557916666719},{"name":"F3","midi":53,"time":64.07121500000031,"velocity":0.6299212598425197,"duration":0.20178504166666755},{"name":"D3","midi":50,"time":64.28550000000031,"velocity":0.6299212598425197,"duration":0.20178504166666755},{"name":"D2","midi":38,"time":64.28550000000031,"velocity":0.6299212598425197,"duration":0.8124972916666593},{"name":"F3","midi":53,"time":64.49978500000032,"velocity":0.6299212598425197,"duration":0.4053557916666648},{"name":"F3","midi":53,"time":64.92835500000031,"velocity":0.6299212598425197,"duration":0.20178504166666755},{"name":"A#2","midi":46,"time":65.14264000000031,"velocity":0.6299212598425197,"duration":0.20178504166665334},{"name":"A#1","midi":34,"time":65.14264000000031,"velocity":0.6299212598425197,"duration":0.8124972916666451},{"name":"F3","midi":53,"time":65.3569250000003,"velocity":0.6299212598425197,"duration":0.4053557916666648},{"name":"F3","midi":53,"time":65.7854950000003,"velocity":0.6299212598425197,"duration":0.20178504166666755},{"name":"A#2","midi":46,"time":65.9997800000003,"velocity":0.6299212598425197,"duration":0.20178504166666755},{"name":"A#1","midi":34,"time":65.9997800000003,"velocity":0.6299212598425197,"duration":0.8124972916666593},{"name":"F3","midi":53,"time":66.2140650000003,"velocity":0.6299212598425197,"duration":0.4053557916666648},{"name":"F3","midi":53,"time":66.6426350000003,"velocity":0.6299212598425197,"duration":0.20178504166666755},{"name":"A#2","midi":46,"time":66.8569200000003,"velocity":0.6299212598425197,"duration":0.20178504166666755},{"name":"A#1","midi":34,"time":66.8569200000003,"velocity":0.6299212598425197,"duration":0.8124972916666593},{"name":"F3","midi":53,"time":67.0712050000003,"velocity":0.6299212598425197,"duration":0.4053557916666648},{"name":"F3","midi":53,"time":67.4997750000003,"velocity":0.6299212598425197,"duration":0.20178504166666755},{"name":"A#2","midi":46,"time":67.7140600000003,"velocity":0.6299212598425197,"duration":0.4053557916666648},{"name":"A#1","midi":34,"time":67.7140600000003,"velocity":0.6299212598425197,"duration":0.8124972916666593},{"name":"A#2","midi":46,"time":68.1426300000003,"velocity":0.6299212598425197,"duration":0.4053557916666648},{"name":"F3","midi":53,"time":68.1426300000003,"velocity":0.6299212598425197,"duration":0.4053557916666648},{"name":"F2","midi":41,"time":68.57120000000029,"velocity":0.7559055118110236,"duration":0.4053557916666648},{"name":"C3","midi":48,"time":68.57120000000029,"velocity":0.7559055118110236,"duration":0.4053557916666648},{"name":"F3","midi":53,"time":68.57120000000029,"velocity":0.7559055118110236,"duration":0.4053557916666648},{"name":"A3","midi":57,"time":68.99977000000028,"velocity":0.7559055118110236,"duration":0.20178504166666755},{"name":"C4","midi":60,"time":68.99977000000028,"velocity":0.7559055118110236,"duration":0.20178504166666755},{"name":"F2","midi":41,"time":69.21405500000029,"velocity":0.7559055118110236,"duration":0.20178504166666755},{"name":"C3","midi":48,"time":69.21405500000029,"velocity":0.7559055118110236,"duration":0.20178504166666755},{"name":"F3","midi":53,"time":69.21405500000029,"velocity":0.7559055118110236,"duration":0.20178504166666755},{"name":"F2","midi":41,"time":69.42834000000029,"velocity":0.7559055118110236,"duration":0.4053557916666648},{"name":"C3","midi":48,"time":69.42834000000029,"velocity":0.7559055118110236,"duration":0.4053557916666648},{"name":"F3","midi":53,"time":69.42834000000029,"velocity":0.7559055118110236,"duration":0.4053557916666648},{"name":"A3","midi":57,"time":69.85691000000028,"velocity":0.7559055118110236,"duration":0.4053557916666648},{"name":"C4","midi":60,"time":69.85691000000028,"velocity":0.7559055118110236,"duration":0.4053557916666648},{"name":"F2","midi":41,"time":70.28548000000028,"velocity":0.7559055118110236,"duration":0.4053557916666648},{"name":"C3","midi":48,"time":70.28548000000028,"velocity":0.7559055118110236,"duration":0.4053557916666648},{"name":"F3","midi":53,"time":70.28548000000028,"velocity":0.7559055118110236,"duration":0.4053557916666648},{"name":"A3","midi":57,"time":70.71405000000027,"velocity":0.7559055118110236,"duration":0.20178504166666755},{"name":"C4","midi":60,"time":70.71405000000027,"velocity":0.7559055118110236,"duration":0.38392729166666584},{"name":"F2","midi":41,"time":70.92833500000027,"velocity":0.7559055118110236,"duration":0.20178504166666755},{"name":"C3","midi":48,"time":70.92833500000027,"velocity":0.7559055118110236,"duration":0.20178504166666755},{"name":"F3","midi":53,"time":70.92833500000027,"velocity":0.7559055118110236,"duration":0.20178504166666755},{"name":"F2","midi":41,"time":71.14262000000028,"velocity":0.7559055118110236,"duration":0.4053557916666648},{"name":"C3","midi":48,"time":71.14262000000028,"velocity":0.7559055118110236,"duration":0.4053557916666648},{"name":"F3","midi":53,"time":71.14262000000028,"velocity":0.7559055118110236,"duration":0.4053557916666648},{"name":"A3","midi":57,"time":71.57119000000027,"velocity":0.7559055118110236,"duration":0.38392729166666584},{"name":"C4","midi":60,"time":71.57119000000027,"velocity":0.7559055118110236,"duration":0.38392729166666584},{"name":"F2","midi":41,"time":71.78547500000028,"velocity":0.7559055118110236,"duration":0.20178504166666755},{"name":"C3","midi":48,"time":71.78547500000028,"velocity":0.7559055118110236,"duration":0.20178504166666755},{"name":"F3","midi":53,"time":71.78547500000028,"velocity":0.7559055118110236,"duration":0.20178504166666755},{"name":"A#1","midi":34,"time":71.99976000000028,"velocity":0.7559055118110236,"duration":0.4053557916666648},{"name":"F2","midi":41,"time":71.99976000000028,"velocity":0.7559055118110236,"duration":0.4053557916666648},{"name":"A#2","midi":46,"time":71.99976000000028,"velocity":0.7559055118110236,"duration":0.4053557916666648},{"name":"D3","midi":50,"time":72.42833000000027,"velocity":0.7559055118110236,"duration":0.20178504166666755},{"name":"F3","midi":53,"time":72.42833000000027,"velocity":0.7559055118110236,"duration":0.20178504166666755},{"name":"A#1","midi":34,"time":72.64261500000028,"velocity":0.7559055118110236,"duration":0.20178504166666755},{"name":"F2","midi":41,"time":72.64261500000028,"velocity":0.7559055118110236,"duration":0.20178504166666755},{"name":"A#2","midi":46,"time":72.64261500000028,"velocity":0.7559055118110236,"duration":0.20178504166666755},{"name":"A#1","midi":34,"time":72.85690000000028,"velocity":0.7559055118110236,"duration":0.4053557916666648},{"name":"F2","midi":41,"time":72.85690000000028,"velocity":0.7559055118110236,"duration":0.4053557916666648},{"name":"A#2","midi":46,"time":72.85690000000028,"velocity":0.7559055118110236,"duration":0.4053557916666648},{"name":"D3","midi":50,"time":73.28547000000027,"velocity":0.7559055118110236,"duration":0.4053557916666648},{"name":"F3","midi":53,"time":73.28547000000027,"velocity":0.7559055118110236,"duration":0.4053557916666648},{"name":"A#1","midi":34,"time":73.71404000000027,"velocity":0.7559055118110236,"duration":0.4053557916666648},{"name":"F2","midi":41,"time":73.71404000000027,"velocity":0.7559055118110236,"duration":0.4053557916666648},{"name":"A#2","midi":46,"time":73.71404000000027,"velocity":0.7559055118110236,"duration":0.4053557916666648},{"name":"D3","midi":50,"time":74.14261000000026,"velocity":0.7559055118110236,"duration":0.4053557916666648},{"name":"F3","midi":53,"time":74.14261000000026,"velocity":0.7559055118110236,"duration":0.4053557916666648},{"name":"A#2","midi":46,"time":74.57118000000025,"velocity":0.7559055118110236,"duration":0.4053557916666648},{"name":"D3","midi":50,"time":74.57118000000025,"velocity":0.7559055118110236,"duration":0.4053557916666648},{"name":"F3","midi":53,"time":74.57118000000025,"velocity":0.7559055118110236,"duration":0.4053557916666648},{"name":"A#3","midi":58,"time":74.57118000000025,"velocity":0.7559055118110236,"duration":0.4053557916666648},{"name":"D3","midi":50,"time":74.99975000000025,"velocity":0.7559055118110236,"duration":0.20178504166666755},{"name":"F3","midi":53,"time":74.99975000000025,"velocity":0.7559055118110236,"duration":0.20178504166666755},{"name":"A#1","midi":34,"time":75.21403500000025,"velocity":0.7559055118110236,"duration":0.20178504166666755},{"name":"F2","midi":41,"time":75.21403500000025,"velocity":0.7559055118110236,"duration":0.20178504166666755},{"name":"A#2","midi":46,"time":75.21403500000025,"velocity":0.7559055118110236,"duration":0.20178504166666755},{"name":"D2","midi":38,"time":75.42832000000026,"velocity":0.7559055118110236,"duration":0.4053557916666648},{"name":"A2","midi":45,"time":75.42832000000026,"velocity":0.7559055118110236,"duration":0.4053557916666648},{"name":"D3","midi":50,"time":75.42832000000026,"velocity":0.7559055118110236,"duration":0.4053557916666648},{"name":"F3","midi":53,"time":75.85689000000025,"velocity":0.7559055118110236,"duration":0.20178504166666755},{"name":"A3","midi":57,"time":75.85689000000025,"velocity":0.7559055118110236,"duration":0.38392729166666584},{"name":"D2","midi":38,"time":76.07117500000025,"velocity":0.7559055118110236,"duration":0.20178504166666755},{"name":"A2","midi":45,"time":76.07117500000025,"velocity":0.7559055118110236,"duration":0.20178504166666755},{"name":"D3","midi":50,"time":76.07117500000025,"velocity":0.7559055118110236,"duration":0.20178504166666755},{"name":"D2","midi":38,"time":76.28546000000026,"velocity":0.7559055118110236,"duration":0.4053557916666648},{"name":"A2","midi":45,"time":76.28546000000026,"velocity":0.7559055118110236,"duration":0.4053557916666648},{"name":"D3","midi":50,"time":76.28546000000026,"velocity":0.7559055118110236,"duration":0.4053557916666648},{"name":"F3","midi":53,"time":76.71403000000025,"velocity":0.7559055118110236,"duration":0.4053557916666648},{"name":"A3","midi":57,"time":76.71403000000025,"velocity":0.7559055118110236,"duration":0.4053557916666648},{"name":"D2","midi":38,"time":77.14260000000024,"velocity":0.7559055118110236,"duration":0.4053557916666648},{"name":"A2","midi":45,"time":77.14260000000024,"velocity":0.7559055118110236,"duration":0.4053557916666648},{"name":"D3","midi":50,"time":77.14260000000024,"velocity":0.7559055118110236,"duration":0.4053557916666648},{"name":"F3","midi":53,"time":77.57117000000024,"velocity":0.7559055118110236,"duration":0.20178504166666755},{"name":"A3","midi":57,"time":77.57117000000024,"velocity":0.7559055118110236,"duration":0.20178504166666755},{"name":"D2","midi":38,"time":77.78545500000024,"velocity":0.7559055118110236,"duration":0.20178504166666755},{"name":"A2","midi":45,"time":77.78545500000024,"velocity":0.7559055118110236,"duration":0.20178504166666755},{"name":"D3","midi":50,"time":77.78545500000024,"velocity":0.7559055118110236,"duration":0.20178504166666755},{"name":"D2","midi":38,"time":77.99974000000024,"velocity":0.7559055118110236,"duration":0.4053557916666648},{"name":"A2","midi":45,"time":77.99974000000024,"velocity":0.7559055118110236,"duration":0.4053557916666648},{"name":"D3","midi":50,"time":77.99974000000024,"velocity":0.7559055118110236,"duration":0.4053557916666648},{"name":"F3","midi":53,"time":78.42831000000024,"velocity":0.7559055118110236,"duration":0.20178504166666755},{"name":"A3","midi":57,"time":78.42831000000024,"velocity":0.7559055118110236,"duration":0.38392729166666584},{"name":"D2","midi":38,"time":78.64259500000024,"velocity":0.7559055118110236,"duration":0.20178504166666755},{"name":"A2","midi":45,"time":78.64259500000024,"velocity":0.7559055118110236,"duration":0.20178504166666755},{"name":"D3","midi":50,"time":78.64259500000024,"velocity":0.7559055118110236,"duration":0.20178504166666755},{"name":"A#1","midi":34,"time":78.85688000000025,"velocity":0.7559055118110236,"duration":0.4053557916666648},{"name":"F2","midi":41,"time":78.85688000000025,"velocity":0.7559055118110236,"duration":0.4053557916666648},{"name":"A#2","midi":46,"time":78.85688000000025,"velocity":0.7559055118110236,"duration":0.4053557916666648},{"name":"D3","midi":50,"time":79.28545000000024,"velocity":0.7559055118110236,"duration":0.20178504166666755},{"name":"F3","midi":53,"time":79.28545000000024,"velocity":0.7559055118110236,"duration":0.20178504166666755},{"name":"A#1","midi":34,"time":79.49973500000024,"velocity":0.7559055118110236,"duration":0.20178504166666755},{"name":"F2","midi":41,"time":79.49973500000024,"velocity":0.7559055118110236,"duration":0.20178504166666755},{"name":"A#2","midi":46,"time":79.49973500000024,"velocity":0.7559055118110236,"duration":0.20178504166666755},{"name":"A#1","midi":34,"time":79.71402000000025,"velocity":0.7559055118110236,"duration":0.4053557916666648},{"name":"F2","midi":41,"time":79.71402000000025,"velocity":0.7559055118110236,"duration":0.4053557916666648},{"name":"A#2","midi":46,"time":79.71402000000025,"velocity":0.7559055118110236,"duration":0.4053557916666648},{"name":"D3","midi":50,"time":80.14259000000024,"velocity":0.7559055118110236,"duration":0.4053557916666648},{"name":"F3","midi":53,"time":80.14259000000024,"velocity":0.7559055118110236,"duration":0.4053557916666648},{"name":"A#1","midi":34,"time":80.57116000000023,"velocity":0.7559055118110236,"duration":0.4053557916666648},{"name":"F2","midi":41,"time":80.57116000000023,"velocity":0.7559055118110236,"duration":0.4053557916666648},{"name":"A#2","midi":46,"time":80.57116000000023,"velocity":0.7559055118110236,"duration":0.4053557916666648},{"name":"D3","midi":50,"time":80.99973000000023,"velocity":0.7559055118110236,"duration":0.4053557916666648},{"name":"F3","midi":53,"time":80.99973000000023,"velocity":0.7559055118110236,"duration":0.4053557916666648},{"name":"A#2","midi":46,"time":81.42830000000022,"velocity":0.6299212598425197,"duration":0.8124972916666735},{"name":"F3","midi":53,"time":81.42830000000022,"velocity":0.6299212598425197,"duration":0.8124972916666735},{"name":"D4","midi":62,"time":81.42830000000022,"velocity":0.6299212598425197,"duration":0.8124972916666735},{"name":"C3","midi":48,"time":82.28544000000022,"velocity":0.5669291338582677,"duration":2.4410632916666373},{"name":"F2","midi":41,"time":82.28544000000022,"velocity":0.5669291338582677,"duration":0.4053557916666648},{"name":"F2","midi":41,"time":82.71401000000021,"velocity":0.5669291338582677,"duration":0.4053557916666648},{"name":"F2","midi":41,"time":83.14258000000021,"velocity":0.5669291338582677,"duration":0.4053557916666648},{"name":"F2","midi":41,"time":83.5711500000002,"velocity":0.5669291338582677,"duration":0.4053557916666648},{"name":"F2","midi":41,"time":83.9997200000002,"velocity":0.5669291338582677,"duration":0.4053557916666648},{"name":"F2","midi":41,"time":84.42829000000019,"velocity":0.5669291338582677,"duration":0.4053557916666648},{"name":"C3","midi":48,"time":84.85686000000018,"velocity":0.5669291338582677,"duration":0.8124972916666593},{"name":"F2","midi":41,"time":84.85686000000018,"velocity":0.5669291338582677,"duration":0.4053557916666648},{"name":"F2","midi":41,"time":85.28543000000018,"velocity":0.5669291338582677,"duration":0.4053557916666648},{"name":"F3","midi":53,"time":85.71400000000017,"velocity":0.5669291338582677,"duration":1.6267802916666483},{"name":"A#2","midi":46,"time":85.71400000000017,"velocity":0.5669291338582677,"duration":0.4053557916666648},{"name":"A#2","midi":46,"time":86.14257000000016,"velocity":0.5669291338582677,"duration":0.4053557916666648},{"name":"A#2","midi":46,"time":86.57114000000016,"velocity":0.5669291338582677,"duration":0.4053557916666648},{"name":"A#2","midi":46,"time":86.99971000000015,"velocity":0.5669291338582677,"duration":0.4053557916666648},{"name":"A#2","midi":46,"time":87.42828000000014,"velocity":0.5669291338582677,"duration":0.42856999999999346},{"name":"F3","midi":53,"time":87.42828000000014,"velocity":0.6141732283464567,"duration":0.8124972916666593},{"name":"A#2","midi":46,"time":87.42828000000014,"velocity":0.5669291338582677,"duration":0.8339257916666583},{"name":"A#2","midi":46,"time":87.85685000000014,"velocity":0.5669291338582677,"duration":0.42856999999999346},{"name":"A#2","midi":46,"time":88.28542000000013,"velocity":0.5669291338582677,"duration":0.42856999999999346},{"name":"G3","midi":55,"time":88.28542000000013,"velocity":0.6141732283464567,"duration":0.8124972916666593},{"name":"A#2","midi":46,"time":88.28542000000013,"velocity":0.5669291338582677,"duration":0.8339257916666583},{"name":"A#2","midi":46,"time":88.71399000000012,"velocity":0.5669291338582677,"duration":4.262485791666606},{"name":"F3","midi":53,"time":89.14256000000012,"velocity":0.5669291338582677,"duration":2.4410632916666373},{"name":"D3","midi":50,"time":89.14256000000012,"velocity":0.5669291338582677,"duration":0.4053557916666648},{"name":"D3","midi":50,"time":89.57113000000011,"velocity":0.5669291338582677,"duration":0.4053557916666648},{"name":"D3","midi":50,"time":89.9997000000001,"velocity":0.5669291338582677,"duration":0.4053557916666648},{"name":"D3","midi":50,"time":90.4282700000001,"velocity":0.5669291338582677,"duration":0.4053557916666648},{"name":"D3","midi":50,"time":90.85684000000009,"velocity":0.5669291338582677,"duration":0.4053557916666648},{"name":"D3","midi":50,"time":91.28541000000008,"velocity":0.5669291338582677,"duration":0.4053557916666648},{"name":"F3","midi":53,"time":91.71398000000008,"velocity":0.5669291338582677,"duration":0.8124972916666593},{"name":"D3","midi":50,"time":91.71398000000008,"velocity":0.5669291338582677,"duration":0.4053557916666648},{"name":"D3","midi":50,"time":92.14255000000007,"velocity":0.5669291338582677,"duration":0.4053557916666648},{"name":"F3","midi":53,"time":92.57112000000006,"velocity":0.5669291338582677,"duration":1.6267802916666483},{"name":"A#2","midi":46,"time":92.57112000000006,"velocity":0.5669291338582677,"duration":0.8339257916666583},{"name":"A#2","midi":46,"time":92.99969000000006,"velocity":0.5669291338582677,"duration":0.8339257916666583},{"name":"A#2","midi":46,"time":93.42826000000005,"velocity":0.5669291338582677,"duration":0.8339257916666583},{"name":"A#2","midi":46,"time":93.85683000000004,"velocity":0.5669291338582677,"duration":0.8339257916666583},{"name":"F3","midi":53,"time":94.28540000000004,"velocity":0.5669291338582677,"duration":0.8124972916666593},{"name":"A#2","midi":46,"time":94.28540000000004,"velocity":0.5669291338582677,"duration":0.8339257916666583},{"name":"A#2","midi":46,"time":94.71397000000003,"velocity":0.5669291338582677,"duration":0.8339257916666583},{"name":"F3","midi":53,"time":95.14254000000003,"velocity":0.5669291338582677,"duration":0.8124972916666593},{"name":"A#2","midi":46,"time":95.14254000000003,"velocity":0.5669291338582677,"duration":0.8339257916666583},{"name":"A#2","midi":46,"time":95.57111000000002,"velocity":0.5669291338582677,"duration":4.466056541666632},{"name":"F3","midi":53,"time":95.99968000000001,"velocity":0.6299212598425197,"duration":0.4053557916666648},{"name":"F2","midi":41,"time":95.99968000000001,"velocity":0.6299212598425197,"duration":0.608926541666662},{"name":"F3","midi":53,"time":96.42825,"velocity":0.6299212598425197,"duration":0.4053557916666648},{"name":"F2","midi":41,"time":96.64253500000001,"velocity":0.6299212598425197,"duration":0.20178504166666755},{"name":"F3","midi":53,"time":96.85682000000001,"velocity":0.6299212598425197,"duration":0.4053557916666648},{"name":"F2","midi":41,"time":96.85682000000001,"velocity":0.6299212598425197,"duration":0.8124972916666593},{"name":"F3","midi":53,"time":97.28539,"velocity":0.6299212598425197,"duration":0.4053557916666648},{"name":"F3","midi":53,"time":97.71396,"velocity":0.6299212598425197,"duration":0.4053557916666648},{"name":"F2","midi":41,"time":97.71396,"velocity":0.6299212598425197,"duration":0.608926541666662},{"name":"F3","midi":53,"time":98.14253,"velocity":0.6299212598425197,"duration":0.4053557916666648},{"name":"F2","midi":41,"time":98.356815,"velocity":0.6299212598425197,"duration":0.20178504166666755},{"name":"F3","midi":53,"time":98.5711,"velocity":0.6299212598425197,"duration":0.4053557916666648},{"name":"F2","midi":41,"time":98.5711,"velocity":0.6299212598425197,"duration":0.8124972916666593},{"name":"F3","midi":53,"time":98.99967,"velocity":0.6299212598425197,"duration":0.4053557916666648},{"name":"A#3","midi":58,"time":99.42823999999999,"velocity":0.6299212598425197,"duration":0.4053557916666648},{"name":"A#2","midi":46,"time":99.42823999999999,"velocity":0.6299212598425197,"duration":0.8446400416666648},{"name":"A#3","midi":58,"time":99.85680999999998,"velocity":0.6299212598425197,"duration":0.4053557916666648},{"name":"A#2","midi":46,"time":100.07109499999999,"velocity":0.6299212598425197,"duration":1.0267822916666631},{"name":"A#3","midi":58,"time":100.28537999999999,"velocity":0.6299212598425197,"duration":0.4053557916666648},{"name":"A#2","midi":46,"time":100.28537999999999,"velocity":0.6299212598425197,"duration":1.466066541666649},{"name":"A#3","midi":58,"time":100.71394999999998,"velocity":0.6299212598425197,"duration":0.4053557916666648},{"name":"A#3","midi":58,"time":101.14251999999998,"velocity":0.6299212598425197,"duration":0.4053557916666648},{"name":"A#2","midi":46,"time":101.14251999999998,"velocity":0.6299212598425197,"duration":0.8446400416666648},{"name":"A#3","midi":58,"time":101.57108999999997,"velocity":0.6299212598425197,"duration":0.4053557916666648},{"name":"A#2","midi":46,"time":101.78537499999997,"velocity":0.6299212598425197,"duration":1.0267822916666631},{"name":"A#3","midi":58,"time":101.99965999999998,"velocity":0.6299212598425197,"duration":0.4053557916666648},{"name":"A#2","midi":46,"time":101.99965999999998,"velocity":0.6299212598425197,"duration":4.894626541666625},{"name":"A#3","midi":58,"time":102.42822999999997,"velocity":0.6299212598425197,"duration":0.4053557916666648},{"name":"D4","midi":62,"time":102.85679999999996,"velocity":0.6299212598425197,"duration":0.4053557916666648},{"name":"D3","midi":50,"time":102.85679999999996,"velocity":0.6299212598425197,"duration":0.608926541666662},{"name":"D4","midi":62,"time":103.28536999999996,"velocity":0.6299212598425197,"duration":0.4053557916666648},{"name":"D3","midi":50,"time":103.49965499999996,"velocity":0.6299212598425197,"duration":0.20178504166666755},{"name":"D4","midi":62,"time":103.71393999999997,"velocity":0.6299212598425197,"duration":0.4053557916666648},{"name":"D3","midi":50,"time":103.71393999999997,"velocity":0.6299212598425197,"duration":0.8124972916666593},{"name":"D4","midi":62,"time":104.14250999999996,"velocity":0.6299212598425197,"duration":0.4053557916666648},{"name":"D4","midi":62,"time":104.57107999999995,"velocity":0.6299212598425197,"duration":0.4053557916666648},{"name":"D3","midi":50,"time":104.57107999999995,"velocity":0.6299212598425197,"duration":0.608926541666662},{"name":"D4","midi":62,"time":104.99964999999995,"velocity":0.6299212598425197,"duration":0.4053557916666648},{"name":"D3","midi":50,"time":105.21393499999995,"velocity":0.6299212598425197,"duration":0.20178504166666755},{"name":"D4","midi":62,"time":105.42821999999995,"velocity":0.6299212598425197,"duration":0.4053557916666648},{"name":"D3","midi":50,"time":105.42821999999995,"velocity":0.6299212598425197,"duration":0.8124972916666593},{"name":"D4","midi":62,"time":105.85678999999995,"velocity":0.6299212598425197,"duration":0.4053557916666648},{"name":"A#3","midi":58,"time":106.28535999999994,"velocity":0.6299212598425197,"duration":0.4053557916666648},{"name":"A#2","midi":46,"time":106.28535999999994,"velocity":0.6299212598425197,"duration":0.8446400416666648},{"name":"A#3","midi":58,"time":106.71392999999993,"velocity":0.6299212598425197,"duration":0.4053557916666648},{"name":"A#2","midi":46,"time":106.92821499999994,"velocity":0.6299212598425197,"duration":1.0267822916666631},{"name":"A#3","midi":58,"time":107.14249999999994,"velocity":0.6299212598425197,"duration":0.4053557916666648},{"name":"A#2","midi":46,"time":107.14249999999994,"velocity":0.6299212598425197,"duration":1.466066541666649},{"name":"A#3","midi":58,"time":107.57106999999993,"velocity":0.6299212598425197,"duration":0.4053557916666648},{"name":"A#3","midi":58,"time":107.99963999999993,"velocity":0.6299212598425197,"duration":0.4053557916666648},{"name":"A#2","midi":46,"time":107.99963999999993,"velocity":0.6299212598425197,"duration":0.8446400416666648},{"name":"A#3","midi":58,"time":108.42820999999992,"velocity":0.6299212598425197,"duration":0.4053557916666648},{"name":"A#2","midi":46,"time":108.64249499999993,"velocity":0.6299212598425197,"duration":1.0267822916666631},{"name":"A#3","midi":58,"time":108.85677999999993,"velocity":0.6299212598425197,"duration":0.4053557916666648},{"name":"A#2","midi":46,"time":108.85677999999993,"velocity":0.6299212598425197,"duration":4.691055791666628},{"name":"A#3","midi":58,"time":109.28534999999992,"velocity":0.6299212598425197,"duration":0.4053557916666648},{"name":"F3","midi":53,"time":109.71391999999992,"velocity":0.6299212598425197,"duration":0.4053557916666648},{"name":"F2","midi":41,"time":109.71391999999992,"velocity":0.6299212598425197,"duration":0.608926541666662},{"name":"C3","midi":48,"time":109.71391999999992,"velocity":0.6299212598425197,"duration":0.608926541666662},{"name":"F3","midi":53,"time":110.14248999999991,"velocity":0.6299212598425197,"duration":0.4053557916666648},{"name":"F2","midi":41,"time":110.35677499999991,"velocity":0.6299212598425197,"duration":0.20178504166666755},{"name":"F3","midi":53,"time":110.57105999999992,"velocity":0.6299212598425197,"duration":0.4053557916666648},{"name":"F2","midi":41,"time":110.57105999999992,"velocity":0.6299212598425197,"duration":0.8124972916666593},{"name":"C3","midi":48,"time":110.57105999999992,"velocity":0.6299212598425197,"duration":0.8124972916666593},{"name":"F3","midi":53,"time":110.99962999999991,"velocity":0.6299212598425197,"duration":0.4053557916666648},{"name":"F3","midi":53,"time":111.4281999999999,"velocity":0.6299212598425197,"duration":0.4053557916666648},{"name":"F2","midi":41,"time":111.4281999999999,"velocity":0.6299212598425197,"duration":0.608926541666662},{"name":"C3","midi":48,"time":111.4281999999999,"velocity":0.6299212598425197,"duration":0.608926541666662},{"name":"F3","midi":53,"time":111.8567699999999,"velocity":0.6299212598425197,"duration":0.4053557916666648},{"name":"F2","midi":41,"time":112.0710549999999,"velocity":0.6299212598425197,"duration":0.20178504166666755},{"name":"F3","midi":53,"time":112.2853399999999,"velocity":0.6299212598425197,"duration":0.4053557916666648},{"name":"F2","midi":41,"time":112.2853399999999,"velocity":0.6299212598425197,"duration":0.8124972916666593},{"name":"C3","midi":48,"time":112.2853399999999,"velocity":0.6299212598425197,"duration":0.8124972916666593},{"name":"F3","midi":53,"time":112.7139099999999,"velocity":0.6299212598425197,"duration":0.4053557916666648},{"name":"A#2","midi":46,"time":113.14247999999989,"velocity":0.6299212598425197,"duration":0.8339257916666583},{"name":"A#1","midi":34,"time":113.14247999999989,"velocity":0.6299212598425197,"duration":0.608926541666662},{"name":"F2","midi":41,"time":113.14247999999989,"velocity":0.6299212598425197,"duration":0.608926541666662},{"name":"A#2","midi":46,"time":113.57104999999989,"velocity":0.6299212598425197,"duration":0.8339257916666725},{"name":"A#1","midi":34,"time":113.78533499999989,"velocity":0.6299212598425197,"duration":0.20178504166666755},{"name":"A#2","midi":46,"time":113.9996199999999,"velocity":0.6299212598425197,"duration":0.8339257916666583},{"name":"A#1","midi":34,"time":113.9996199999999,"velocity":0.6299212598425197,"duration":0.8124972916666593},{"name":"F2","midi":41,"time":113.9996199999999,"velocity":0.6299212598425197,"duration":0.8124972916666593},{"name":"A#2","midi":46,"time":114.42818999999989,"velocity":0.6299212598425197,"duration":0.8339257916666583},{"name":"A#2","midi":46,"time":114.85675999999988,"velocity":0.6299212598425197,"duration":0.8339257916666583},{"name":"A#1","midi":34,"time":114.85675999999988,"velocity":0.6299212598425197,"duration":0.608926541666662},{"name":"F2","midi":41,"time":114.85675999999988,"velocity":0.6299212598425197,"duration":0.608926541666662},{"name":"A#2","midi":46,"time":115.28532999999987,"velocity":0.6299212598425197,"duration":0.8339257916666725},{"name":"A#1","midi":34,"time":115.49961499999988,"velocity":0.6299212598425197,"duration":0.20178504166666755},{"name":"A#2","midi":46,"time":115.71389999999988,"velocity":0.6299212598425197,"duration":0.8339257916666583},{"name":"A#1","midi":34,"time":115.71389999999988,"velocity":0.6299212598425197,"duration":0.8124972916666593},{"name":"F2","midi":41,"time":115.71389999999988,"velocity":0.6299212598425197,"duration":0.8124972916666593},{"name":"A#2","midi":46,"time":116.14246999999988,"velocity":0.6299212598425197,"duration":4.058915041666623},{"name":"D3","midi":50,"time":116.57103999999987,"velocity":0.6299212598425197,"duration":0.4053557916666648},{"name":"D2","midi":38,"time":116.57103999999987,"velocity":0.6299212598425197,"duration":0.608926541666662},{"name":"A2","midi":45,"time":116.57103999999987,"velocity":0.6299212598425197,"duration":0.608926541666662},{"name":"D3","midi":50,"time":116.99960999999986,"velocity":0.6299212598425197,"duration":0.4053557916666648},{"name":"D2","midi":38,"time":117.21389499999987,"velocity":0.6299212598425197,"duration":0.20178504166666755},{"name":"D3","midi":50,"time":117.42817999999987,"velocity":0.6299212598425197,"duration":0.4053557916666648},{"name":"D2","midi":38,"time":117.42817999999987,"velocity":0.6299212598425197,"duration":0.8124972916666593},{"name":"A2","midi":45,"time":117.42817999999987,"velocity":0.6299212598425197,"duration":0.8124972916666593},{"name":"D3","midi":50,"time":117.85674999999986,"velocity":0.6299212598425197,"duration":0.4053557916666648},{"name":"D3","midi":50,"time":118.28531999999986,"velocity":0.6299212598425197,"duration":0.4053557916666648},{"name":"D2","midi":38,"time":118.28531999999986,"velocity":0.6299212598425197,"duration":0.608926541666662},{"name":"A2","midi":45,"time":118.28531999999986,"velocity":0.6299212598425197,"duration":0.608926541666662},{"name":"D3","midi":50,"time":118.71388999999985,"velocity":0.6299212598425197,"duration":0.4053557916666648},{"name":"D2","midi":38,"time":118.92817499999985,"velocity":0.6299212598425197,"duration":0.20178504166666755},{"name":"D3","midi":50,"time":119.14245999999986,"velocity":0.6299212598425197,"duration":0.4053557916666648},{"name":"D2","midi":38,"time":119.14245999999986,"velocity":0.6299212598425197,"duration":0.8124972916666593},{"name":"A2","midi":45,"time":119.14245999999986,"velocity":0.6299212598425197,"duration":0.8124972916666593},{"name":"D3","midi":50,"time":119.57102999999985,"velocity":0.6299212598425197,"duration":0.4053557916666648},{"name":"A#2","midi":46,"time":119.99959999999984,"velocity":0.6299212598425197,"duration":1.0589250416666545},{"name":"A#1","midi":34,"time":119.99959999999984,"velocity":0.6299212598425197,"duration":0.8124972916666451},{"name":"F2","midi":41,"time":119.99959999999984,"velocity":0.6299212598425197,"duration":0.8124972916666451},{"name":"F3","midi":53,"time":120.21388499999983,"velocity":0.6299212598425197,"duration":0.4053557916666648},{"name":"F3","midi":53,"time":120.64245499999983,"velocity":0.6299212598425197,"duration":0.20178504166666755},{"name":"A#2","midi":46,"time":120.85673999999983,"velocity":0.6299212598425197,"duration":1.0589250416666687},{"name":"A#1","midi":34,"time":120.85673999999983,"velocity":0.6299212598425197,"duration":0.8124972916666593},{"name":"F2","midi":41,"time":120.85673999999983,"velocity":0.6299212598425197,"duration":0.8124972916666593},{"name":"F3","midi":53,"time":121.07102499999984,"velocity":0.6299212598425197,"duration":0.4053557916666648},{"name":"F3","midi":53,"time":121.49959499999983,"velocity":0.6299212598425197,"duration":0.20178504166666755},{"name":"A#2","midi":46,"time":121.71387999999983,"velocity":0.6299212598425197,"duration":1.6696372916666746},{"name":"A#1","midi":34,"time":121.71387999999983,"velocity":0.6299212598425197,"duration":0.8124972916666593},{"name":"F2","midi":41,"time":121.71387999999983,"velocity":0.6299212598425197,"duration":0.8124972916666593},{"name":"F3","midi":53,"time":121.92816499999984,"velocity":0.6299212598425197,"duration":0.4053557916666648},{"name":"F3","midi":53,"time":122.35673499999983,"velocity":0.6299212598425197,"duration":0.20178504166666755},{"name":"A#2","midi":46,"time":122.57101999999983,"velocity":0.6299212598425197,"duration":4.691055791666656},{"name":"A#1","midi":34,"time":122.57101999999983,"velocity":0.6299212598425197,"duration":0.8124972916666735},{"name":"F2","midi":41,"time":122.57101999999983,"velocity":0.6299212598425197,"duration":0.8124972916666735},{"name":"F2","midi":41,"time":123.42815999999983,"velocity":0.7559055118110236,"duration":0.4053557916666648},{"name":"C3","midi":48,"time":123.42815999999983,"velocity":0.7559055118110236,"duration":0.4053557916666648},{"name":"F3","midi":53,"time":123.42815999999983,"velocity":0.7559055118110236,"duration":0.4053557916666648},{"name":"A3","midi":57,"time":123.85672999999983,"velocity":0.7559055118110236,"duration":0.20178504166666755},{"name":"C4","midi":60,"time":123.85672999999983,"velocity":0.7559055118110236,"duration":0.20178504166666755},{"name":"F2","midi":41,"time":124.07101499999983,"velocity":0.7559055118110236,"duration":0.20178504166666755},{"name":"C3","midi":48,"time":124.07101499999983,"velocity":0.7559055118110236,"duration":0.20178504166666755},{"name":"F3","midi":53,"time":124.07101499999983,"velocity":0.7559055118110236,"duration":0.20178504166666755},{"name":"F2","midi":41,"time":124.28529999999984,"velocity":0.7559055118110236,"duration":0.4053557916666648},{"name":"C3","midi":48,"time":124.28529999999984,"velocity":0.7559055118110236,"duration":0.4053557916666648},{"name":"F3","midi":53,"time":124.28529999999984,"velocity":0.7559055118110236,"duration":0.4053557916666648},{"name":"A3","midi":57,"time":124.71386999999983,"velocity":0.7559055118110236,"duration":0.4053557916666648},{"name":"C4","midi":60,"time":124.71386999999983,"velocity":0.7559055118110236,"duration":0.4053557916666648},{"name":"F2","midi":41,"time":125.14243999999982,"velocity":0.7559055118110236,"duration":0.4053557916666648},{"name":"C3","midi":48,"time":125.14243999999982,"velocity":0.7559055118110236,"duration":0.4053557916666648},{"name":"F3","midi":53,"time":125.14243999999982,"velocity":0.7559055118110236,"duration":0.4053557916666648},{"name":"A3","midi":57,"time":125.57100999999982,"velocity":0.7559055118110236,"duration":0.20178504166666755},{"name":"C4","midi":60,"time":125.57100999999982,"velocity":0.7559055118110236,"duration":0.38392729166666584},{"name":"F2","midi":41,"time":125.78529499999982,"velocity":0.7559055118110236,"duration":0.20178504166666755},{"name":"C3","midi":48,"time":125.78529499999982,"velocity":0.7559055118110236,"duration":0.20178504166666755},{"name":"F3","midi":53,"time":125.78529499999982,"velocity":0.7559055118110236,"duration":0.20178504166666755},{"name":"F2","midi":41,"time":125.99957999999982,"velocity":0.7559055118110236,"duration":0.4053557916666648},{"name":"C3","midi":48,"time":125.99957999999982,"velocity":0.7559055118110236,"duration":0.4053557916666648},{"name":"F3","midi":53,"time":125.99957999999982,"velocity":0.7559055118110236,"duration":0.4053557916666648},{"name":"A3","midi":57,"time":126.42814999999982,"velocity":0.7559055118110236,"duration":0.38392729166666584},{"name":"C4","midi":60,"time":126.42814999999982,"velocity":0.7559055118110236,"duration":0.38392729166666584},{"name":"F2","midi":41,"time":126.64243499999982,"velocity":0.7559055118110236,"duration":0.20178504166666755},{"name":"C3","midi":48,"time":126.64243499999982,"velocity":0.7559055118110236,"duration":0.20178504166666755},{"name":"F3","midi":53,"time":126.64243499999982,"velocity":0.7559055118110236,"duration":0.20178504166666755},{"name":"A#1","midi":34,"time":126.85671999999983,"velocity":0.7559055118110236,"duration":0.4053557916666648},{"name":"F2","midi":41,"time":126.85671999999983,"velocity":0.7559055118110236,"duration":0.4053557916666648},{"name":"A#2","midi":46,"time":126.85671999999983,"velocity":0.7559055118110236,"duration":0.8446400416666648},{"name":"D3","midi":50,"time":127.28528999999982,"velocity":0.7559055118110236,"duration":0.20178504166666755},{"name":"F3","midi":53,"time":127.28528999999982,"velocity":0.7559055118110236,"duration":0.20178504166666755},{"name":"A#1","midi":34,"time":127.49957499999982,"velocity":0.7559055118110236,"duration":0.20178504166666755},{"name":"F2","midi":41,"time":127.49957499999982,"velocity":0.7559055118110236,"duration":0.20178504166666755},{"name":"A#2","midi":46,"time":127.49957499999982,"velocity":0.7559055118110236,"duration":0.6196407916666828},{"name":"A#1","midi":34,"time":127.71385999999983,"velocity":0.7559055118110236,"duration":0.405355791666679},{"name":"F2","midi":41,"time":127.71385999999983,"velocity":0.7559055118110236,"duration":0.405355791666679},{"name":"A#2","midi":46,"time":127.71385999999983,"velocity":0.7559055118110236,"duration":1.2624957916666943},{"name":"D3","midi":50,"time":128.14242999999985,"velocity":0.7559055118110236,"duration":0.4053557916666648},{"name":"F3","midi":53,"time":128.14242999999985,"velocity":0.7559055118110236,"duration":0.4053557916666648},{"name":"A#1","midi":34,"time":128.57099999999986,"velocity":0.7559055118110236,"duration":0.4053557916666648},{"name":"F2","midi":41,"time":128.57099999999986,"velocity":0.7559055118110236,"duration":0.4053557916666648},{"name":"A#2","midi":46,"time":128.57099999999986,"velocity":0.7559055118110236,"duration":1.2624957916666801},{"name":"D3","midi":50,"time":128.99956999999986,"velocity":0.7559055118110236,"duration":0.4053557916666648},{"name":"F3","midi":53,"time":128.99956999999986,"velocity":0.7559055118110236,"duration":0.4053557916666648},{"name":"A#2","midi":46,"time":129.42813999999987,"velocity":0.7559055118110236,"duration":0.8446400416666506},{"name":"D3","midi":50,"time":129.42813999999987,"velocity":0.7559055118110236,"duration":0.4053557916666648},{"name":"F3","midi":53,"time":129.42813999999987,"velocity":0.7559055118110236,"duration":0.4053557916666648},{"name":"A#3","midi":58,"time":129.42813999999987,"velocity":0.7559055118110236,"duration":0.4053557916666648},{"name":"D3","midi":50,"time":129.85670999999988,"velocity":0.7559055118110236,"duration":0.20178504166665334},{"name":"F3","midi":53,"time":129.85670999999988,"velocity":0.7559055118110236,"duration":0.20178504166665334},{"name":"A#1","midi":34,"time":130.07099499999987,"velocity":0.7559055118110236,"duration":0.20178504166665334},{"name":"F2","midi":41,"time":130.07099499999987,"velocity":0.7559055118110236,"duration":0.20178504166665334},{"name":"A#2","midi":46,"time":130.07099499999987,"velocity":0.7559055118110236,"duration":4.0482007916666305},{"name":"D2","midi":38,"time":130.28527999999986,"velocity":0.7559055118110236,"duration":0.4053557916666648},{"name":"A2","midi":45,"time":130.28527999999986,"velocity":0.7559055118110236,"duration":0.4053557916666648},{"name":"D3","midi":50,"time":130.28527999999986,"velocity":0.7559055118110236,"duration":0.4053557916666648},{"name":"F3","midi":53,"time":130.71384999999987,"velocity":0.7559055118110236,"duration":0.20178504166665334},{"name":"A3","midi":57,"time":130.71384999999987,"velocity":0.7559055118110236,"duration":0.3839272916666516},{"name":"D2","midi":38,"time":130.92813499999986,"velocity":0.7559055118110236,"duration":0.20178504166665334},{"name":"A2","midi":45,"time":130.92813499999986,"velocity":0.7559055118110236,"duration":0.20178504166665334},{"name":"D3","midi":50,"time":130.92813499999986,"velocity":0.7559055118110236,"duration":0.20178504166665334},{"name":"D2","midi":38,"time":131.14241999999985,"velocity":0.7559055118110236,"duration":0.4053557916666648},{"name":"A2","midi":45,"time":131.14241999999985,"velocity":0.7559055118110236,"duration":0.4053557916666648},{"name":"D3","midi":50,"time":131.14241999999985,"velocity":0.7559055118110236,"duration":0.4053557916666648},{"name":"F3","midi":53,"time":131.57098999999985,"velocity":0.7559055118110236,"duration":0.4053557916666648},{"name":"A3","midi":57,"time":131.57098999999985,"velocity":0.7559055118110236,"duration":0.4053557916666648},{"name":"D2","midi":38,"time":131.99955999999986,"velocity":0.7559055118110236,"duration":0.4053557916666648},{"name":"A2","midi":45,"time":131.99955999999986,"velocity":0.7559055118110236,"duration":0.4053557916666648},{"name":"D3","midi":50,"time":131.99955999999986,"velocity":0.7559055118110236,"duration":0.4053557916666648},{"name":"F3","midi":53,"time":132.42812999999987,"velocity":0.7559055118110236,"duration":0.20178504166665334},{"name":"A3","midi":57,"time":132.42812999999987,"velocity":0.7559055118110236,"duration":0.20178504166665334},{"name":"D2","midi":38,"time":132.64241499999986,"velocity":0.7559055118110236,"duration":0.20178504166665334},{"name":"A2","midi":45,"time":132.64241499999986,"velocity":0.7559055118110236,"duration":0.20178504166665334},{"name":"D3","midi":50,"time":132.64241499999986,"velocity":0.7559055118110236,"duration":0.20178504166665334},{"name":"D2","midi":38,"time":132.85669999999985,"velocity":0.7559055118110236,"duration":0.4053557916666648},{"name":"A2","midi":45,"time":132.85669999999985,"velocity":0.7559055118110236,"duration":0.4053557916666648},{"name":"D3","midi":50,"time":132.85669999999985,"velocity":0.7559055118110236,"duration":0.4053557916666648},{"name":"F3","midi":53,"time":133.28526999999985,"velocity":0.7559055118110236,"duration":0.20178504166665334},{"name":"A3","midi":57,"time":133.28526999999985,"velocity":0.7559055118110236,"duration":0.3839272916666516},{"name":"D2","midi":38,"time":133.49955499999984,"velocity":0.7559055118110236,"duration":0.20178504166665334},{"name":"A2","midi":45,"time":133.49955499999984,"velocity":0.7559055118110236,"duration":0.20178504166665334},{"name":"D3","midi":50,"time":133.49955499999984,"velocity":0.7559055118110236,"duration":0.20178504166665334},{"name":"A#1","midi":34,"time":133.71383999999983,"velocity":0.7559055118110236,"duration":0.4053557916666648},{"name":"F2","midi":41,"time":133.71383999999983,"velocity":0.7559055118110236,"duration":0.4053557916666648},{"name":"A#2","midi":46,"time":133.71383999999983,"velocity":0.7559055118110236,"duration":0.8446400416666506},{"name":"D3","midi":50,"time":134.14240999999984,"velocity":0.7559055118110236,"duration":0.20178504166665334},{"name":"F3","midi":53,"time":134.14240999999984,"velocity":0.7559055118110236,"duration":0.20178504166665334},{"name":"A#1","midi":34,"time":134.35669499999983,"velocity":0.7559055118110236,"duration":0.20178504166665334},{"name":"F2","midi":41,"time":134.35669499999983,"velocity":0.7559055118110236,"duration":0.20178504166665334},{"name":"A#2","midi":46,"time":134.35669499999983,"velocity":0.7559055118110236,"duration":0.6196407916666544},{"name":"A#1","midi":34,"time":134.57097999999982,"velocity":0.7559055118110236,"duration":0.4053557916666648},{"name":"F2","midi":41,"time":134.57097999999982,"velocity":0.7559055118110236,"duration":0.4053557916666648},{"name":"A#2","midi":46,"time":134.57097999999982,"velocity":0.7559055118110236,"duration":1.2624957916666801},{"name":"D3","midi":50,"time":134.99954999999983,"velocity":0.7559055118110236,"duration":0.4053557916666648},{"name":"F3","midi":53,"time":134.99954999999983,"velocity":0.7559055118110236,"duration":0.4053557916666648},{"name":"A#1","midi":34,"time":135.42811999999984,"velocity":0.7559055118110236,"duration":0.4053557916666648},{"name":"F2","midi":41,"time":135.42811999999984,"velocity":0.7559055118110236,"duration":0.4053557916666648},{"name":"A#2","midi":46,"time":135.42811999999984,"velocity":0.7559055118110236,"duration":1.2624957916666801},{"name":"D3","midi":50,"time":135.85668999999984,"velocity":0.7559055118110236,"duration":0.4053557916666648},{"name":"F3","midi":53,"time":135.85668999999984,"velocity":0.7559055118110236,"duration":0.4053557916666648},{"name":"A#2","midi":46,"time":136.28525999999985,"velocity":0.7559055118110236,"duration":0.8446400416666506},{"name":"D3","midi":50,"time":136.28525999999985,"velocity":0.7559055118110236,"duration":0.4053557916666648},{"name":"F3","midi":53,"time":136.28525999999985,"velocity":0.7559055118110236,"duration":0.4053557916666648},{"name":"A#3","midi":58,"time":136.28525999999985,"velocity":0.7559055118110236,"duration":0.4053557916666648},{"name":"D3","midi":50,"time":136.71382999999986,"velocity":0.7559055118110236,"duration":0.20178504166665334},{"name":"F3","midi":53,"time":136.71382999999986,"velocity":0.7559055118110236,"duration":0.20178504166665334},{"name":"A#1","midi":34,"time":136.92811499999985,"velocity":0.7559055118110236,"duration":0.20178504166665334},{"name":"F2","midi":41,"time":136.92811499999985,"velocity":0.7559055118110236,"duration":0.20178504166665334},{"name":"A#2","midi":46,"time":136.92811499999985,"velocity":0.7559055118110236,"duration":4.0482007916666305},{"name":"F2","midi":41,"time":137.14239999999984,"velocity":0.7559055118110236,"duration":0.4053557916666648},{"name":"C3","midi":48,"time":137.14239999999984,"velocity":0.7559055118110236,"duration":0.4053557916666648},{"name":"F3","midi":53,"time":137.14239999999984,"velocity":0.7559055118110236,"duration":0.4053557916666648},{"name":"A3","midi":57,"time":137.57096999999985,"velocity":0.7559055118110236,"duration":0.20178504166665334},{"name":"C4","midi":60,"time":137.57096999999985,"velocity":0.7559055118110236,"duration":0.20178504166665334},{"name":"F2","midi":41,"time":137.78525499999984,"velocity":0.7559055118110236,"duration":0.20178504166665334},{"name":"C3","midi":48,"time":137.78525499999984,"velocity":0.7559055118110236,"duration":0.20178504166665334},{"name":"F3","midi":53,"time":137.78525499999984,"velocity":0.7559055118110236,"duration":0.20178504166665334},{"name":"F2","midi":41,"time":137.99953999999983,"velocity":0.7559055118110236,"duration":0.4053557916666648},{"name":"C3","midi":48,"time":137.99953999999983,"velocity":0.7559055118110236,"duration":0.4053557916666648},{"name":"F3","midi":53,"time":137.99953999999983,"velocity":0.7559055118110236,"duration":0.4053557916666648},{"name":"A3","midi":57,"time":138.42810999999983,"velocity":0.7559055118110236,"duration":0.4053557916666648},{"name":"C4","midi":60,"time":138.42810999999983,"velocity":0.7559055118110236,"duration":0.4053557916666648},{"name":"F2","midi":41,"time":138.85667999999984,"velocity":0.7559055118110236,"duration":0.4053557916666648},{"name":"C3","midi":48,"time":138.85667999999984,"velocity":0.7559055118110236,"duration":0.4053557916666648},{"name":"F3","midi":53,"time":138.85667999999984,"velocity":0.7559055118110236,"duration":0.4053557916666648},{"name":"A3","midi":57,"time":139.28524999999985,"velocity":0.7559055118110236,"duration":0.20178504166665334},{"name":"C4","midi":60,"time":139.28524999999985,"velocity":0.7559055118110236,"duration":0.20178504166665334},{"name":"F2","midi":41,"time":139.49953499999984,"velocity":0.7559055118110236,"duration":0.20178504166665334},{"name":"C3","midi":48,"time":139.49953499999984,"velocity":0.7559055118110236,"duration":0.20178504166665334},{"name":"F3","midi":53,"time":139.49953499999984,"velocity":0.7559055118110236,"duration":0.20178504166665334},{"name":"F2","midi":41,"time":139.71381999999983,"velocity":0.7559055118110236,"duration":0.4053557916666648},{"name":"C3","midi":48,"time":139.71381999999983,"velocity":0.7559055118110236,"duration":0.4053557916666648},{"name":"F3","midi":53,"time":139.71381999999983,"velocity":0.7559055118110236,"duration":0.4053557916666648},{"name":"A3","midi":57,"time":140.14238999999984,"velocity":0.7559055118110236,"duration":0.20178504166665334},{"name":"C4","midi":60,"time":140.14238999999984,"velocity":0.7559055118110236,"duration":0.20178504166665334},{"name":"F2","midi":41,"time":140.35667499999983,"velocity":0.7559055118110236,"duration":0.20178504166665334},{"name":"C3","midi":48,"time":140.35667499999983,"velocity":0.7559055118110236,"duration":0.20178504166665334},{"name":"F3","midi":53,"time":140.35667499999983,"velocity":0.7559055118110236,"duration":0.20178504166665334},{"name":"A#1","midi":34,"time":140.57095999999981,"velocity":0.7559055118110236,"duration":0.4053557916666648},{"name":"F2","midi":41,"time":140.57095999999981,"velocity":0.7559055118110236,"duration":0.4053557916666648},{"name":"A#2","midi":46,"time":140.57095999999981,"velocity":0.7559055118110236,"duration":0.8446400416666506},{"name":"D3","midi":50,"time":140.99952999999982,"velocity":0.7559055118110236,"duration":0.20178504166665334},{"name":"F3","midi":53,"time":140.99952999999982,"velocity":0.7559055118110236,"duration":0.20178504166665334},{"name":"A#1","midi":34,"time":141.2138149999998,"velocity":0.7559055118110236,"duration":0.20178504166665334},{"name":"F2","midi":41,"time":141.2138149999998,"velocity":0.7559055118110236,"duration":0.20178504166665334},{"name":"A#2","midi":46,"time":141.2138149999998,"velocity":0.7559055118110236,"duration":0.6196407916666544},{"name":"A#1","midi":34,"time":141.4280999999998,"velocity":0.7559055118110236,"duration":0.4053557916666648},{"name":"F2","midi":41,"time":141.4280999999998,"velocity":0.7559055118110236,"duration":0.4053557916666648},{"name":"A#2","midi":46,"time":141.4280999999998,"velocity":0.7559055118110236,"duration":1.2624957916666801},{"name":"D3","midi":50,"time":141.8566699999998,"velocity":0.7559055118110236,"duration":0.4053557916666648},{"name":"F3","midi":53,"time":141.8566699999998,"velocity":0.7559055118110236,"duration":0.4053557916666648},{"name":"A#1","midi":34,"time":142.28523999999982,"velocity":0.7559055118110236,"duration":0.4053557916666648},{"name":"F2","midi":41,"time":142.28523999999982,"velocity":0.7559055118110236,"duration":0.4053557916666648},{"name":"A#2","midi":46,"time":142.28523999999982,"velocity":0.7559055118110236,"duration":1.2624957916666801},{"name":"D3","midi":50,"time":142.71380999999982,"velocity":0.7559055118110236,"duration":0.4053557916666648},{"name":"F3","midi":53,"time":142.71380999999982,"velocity":0.7559055118110236,"duration":0.4053557916666648},{"name":"A#2","midi":46,"time":143.14237999999983,"velocity":0.7559055118110236,"duration":0.8446400416666506},{"name":"D3","midi":50,"time":143.14237999999983,"velocity":0.7559055118110236,"duration":0.4053557916666648},{"name":"F3","midi":53,"time":143.14237999999983,"velocity":0.7559055118110236,"duration":0.4053557916666648},{"name":"A#3","midi":58,"time":143.14237999999983,"velocity":0.7559055118110236,"duration":0.4053557916666648},{"name":"D3","midi":50,"time":143.57094999999984,"velocity":0.7559055118110236,"duration":0.20178504166665334},{"name":"F3","midi":53,"time":143.57094999999984,"velocity":0.7559055118110236,"duration":0.20178504166665334},{"name":"A#1","midi":34,"time":143.78523499999983,"velocity":0.7559055118110236,"duration":0.20178504166665334},{"name":"F2","midi":41,"time":143.78523499999983,"velocity":0.7559055118110236,"duration":0.20178504166665334},{"name":"A#2","midi":46,"time":143.78523499999983,"velocity":0.7559055118110236,"duration":4.0482007916666305},{"name":"D2","midi":38,"time":143.99951999999982,"velocity":0.7559055118110236,"duration":0.4053557916666648},{"name":"A2","midi":45,"time":143.99951999999982,"velocity":0.7559055118110236,"duration":0.4053557916666648},{"name":"D3","midi":50,"time":143.99951999999982,"velocity":0.7559055118110236,"duration":0.4053557916666648},{"name":"F3","midi":53,"time":144.42808999999983,"velocity":0.7559055118110236,"duration":0.20178504166665334},{"name":"A3","midi":57,"time":144.42808999999983,"velocity":0.7559055118110236,"duration":0.20178504166665334},{"name":"D2","midi":38,"time":144.64237499999982,"velocity":0.7559055118110236,"duration":0.20178504166665334},{"name":"A2","midi":45,"time":144.64237499999982,"velocity":0.7559055118110236,"duration":0.20178504166665334},{"name":"D3","midi":50,"time":144.64237499999982,"velocity":0.7559055118110236,"duration":0.20178504166665334},{"name":"D2","midi":38,"time":144.8566599999998,"velocity":0.7559055118110236,"duration":0.4053557916666648},{"name":"A2","midi":45,"time":144.8566599999998,"velocity":0.7559055118110236,"duration":0.4053557916666648},{"name":"D3","midi":50,"time":144.8566599999998,"velocity":0.7559055118110236,"duration":0.4053557916666648},{"name":"F3","midi":53,"time":145.2852299999998,"velocity":0.7559055118110236,"duration":0.4053557916666648},{"name":"A3","midi":57,"time":145.2852299999998,"velocity":0.7559055118110236,"duration":0.4053557916666648},{"name":"D2","midi":38,"time":145.71379999999982,"velocity":0.7559055118110236,"duration":0.4053557916666648},{"name":"A2","midi":45,"time":145.71379999999982,"velocity":0.7559055118110236,"duration":0.4053557916666648},{"name":"D3","midi":50,"time":145.71379999999982,"velocity":0.7559055118110236,"duration":0.4053557916666648},{"name":"F3","midi":53,"time":146.14236999999983,"velocity":0.7559055118110236,"duration":0.20178504166665334},{"name":"A3","midi":57,"time":146.14236999999983,"velocity":0.7559055118110236,"duration":0.20178504166665334},{"name":"D2","midi":38,"time":146.35665499999982,"velocity":0.7559055118110236,"duration":0.20178504166665334},{"name":"A2","midi":45,"time":146.35665499999982,"velocity":0.7559055118110236,"duration":0.20178504166665334},{"name":"D3","midi":50,"time":146.35665499999982,"velocity":0.7559055118110236,"duration":0.20178504166665334},{"name":"D2","midi":38,"time":146.5709399999998,"velocity":0.7559055118110236,"duration":0.4053557916666648},{"name":"A2","midi":45,"time":146.5709399999998,"velocity":0.7559055118110236,"duration":0.4053557916666648},{"name":"D3","midi":50,"time":146.5709399999998,"velocity":0.7559055118110236,"duration":0.4053557916666648},{"name":"F3","midi":53,"time":146.99950999999982,"velocity":0.7559055118110236,"duration":0.20178504166665334},{"name":"A3","midi":57,"time":146.99950999999982,"velocity":0.7559055118110236,"duration":0.20178504166665334},{"name":"D2","midi":38,"time":147.2137949999998,"velocity":0.7559055118110236,"duration":0.20178504166665334},{"name":"A2","midi":45,"time":147.2137949999998,"velocity":0.7559055118110236,"duration":0.20178504166665334},{"name":"D3","midi":50,"time":147.2137949999998,"velocity":0.7559055118110236,"duration":0.20178504166665334},{"name":"A#1","midi":34,"time":147.4280799999998,"velocity":0.7559055118110236,"duration":0.4053557916666648},{"name":"F2","midi":41,"time":147.4280799999998,"velocity":0.7559055118110236,"duration":0.4053557916666648},{"name":"A#2","midi":46,"time":147.4280799999998,"velocity":0.7559055118110236,"duration":0.8446400416666506},{"name":"D3","midi":50,"time":147.8566499999998,"velocity":0.7559055118110236,"duration":0.20178504166665334},{"name":"F3","midi":53,"time":147.8566499999998,"velocity":0.7559055118110236,"duration":0.20178504166665334},{"name":"A#1","midi":34,"time":148.0709349999998,"velocity":0.7559055118110236,"duration":0.20178504166665334},{"name":"F2","midi":41,"time":148.0709349999998,"velocity":0.7559055118110236,"duration":0.20178504166665334},{"name":"A#2","midi":46,"time":148.0709349999998,"velocity":0.7559055118110236,"duration":0.6196407916666544},{"name":"A#1","midi":34,"time":148.28521999999978,"velocity":0.7559055118110236,"duration":0.4053557916666648},{"name":"F2","midi":41,"time":148.28521999999978,"velocity":0.7559055118110236,"duration":0.4053557916666648},{"name":"A#2","midi":46,"time":148.28521999999978,"velocity":0.7559055118110236,"duration":1.0589250416666687},{"name":"D3","midi":50,"time":148.7137899999998,"velocity":0.7559055118110236,"duration":0.4053557916666648},{"name":"F3","midi":53,"time":148.7137899999998,"velocity":0.7559055118110236,"duration":0.4053557916666648},{"name":"A#1","midi":34,"time":149.1423599999998,"velocity":0.7559055118110236,"duration":0.20178504166665334},{"name":"F2","midi":41,"time":149.1423599999998,"velocity":0.7559055118110236,"duration":0.20178504166665334},{"name":"A#2","midi":46,"time":149.1423599999998,"velocity":0.7559055118110236,"duration":0.8446400416666506},{"name":"D3","midi":50,"time":149.3566449999998,"velocity":0.7559055118110236,"duration":0.4053557916666648},{"name":"F3","midi":53,"time":149.3566449999998,"velocity":0.7559055118110236,"duration":0.4053557916666648},{"name":"F2","midi":41,"time":149.7852149999998,"velocity":0.7559055118110236,"duration":0.20178504166665334},{"name":"A#2","midi":46,"time":149.7852149999998,"velocity":0.7559055118110236,"duration":1.048210791666662},{"name":"D3","midi":50,"time":149.99949999999978,"velocity":0.7559055118110236,"duration":0.4053557916666648},{"name":"F3","midi":53,"time":149.99949999999978,"velocity":0.7559055118110236,"duration":0.4053557916666648},{"name":"A#3","midi":58,"time":149.99949999999978,"velocity":0.7559055118110236,"duration":0.4053557916666648},{"name":"F2","midi":41,"time":150.4280699999998,"velocity":0.6299212598425197,"duration":0.4053557916666648},{"name":"A#2","midi":46,"time":150.4280699999998,"velocity":0.6299212598425197,"duration":13.251741541666917},{"name":"F3","midi":53,"time":150.4280699999998,"velocity":0.6299212598425197,"duration":0.4053557916666648},{"name":"F4","midi":65,"time":150.8566399999998,"velocity":0.5039370078740157,"duration":0.4053557916666648},{"name":"A3","midi":57,"time":150.8566399999998,"velocity":0.5984251968503937,"duration":2.441063291666694},{"name":"C4","midi":60,"time":150.8566399999998,"velocity":0.5039370078740157,"duration":2.441063291666694},{"name":"F4","midi":65,"time":151.2852099999998,"velocity":0.5039370078740157,"duration":0.4053557916666648},{"name":"F4","midi":65,"time":151.71377999999982,"velocity":0.5039370078740157,"duration":0.4053557916666648},{"name":"F4","midi":65,"time":152.14234999999982,"velocity":0.5039370078740157,"duration":0.4053557916666648},{"name":"F4","midi":65,"time":152.57091999999983,"velocity":0.5039370078740157,"duration":0.4053557916666648},{"name":"F4","midi":65,"time":152.99948999999984,"velocity":0.5039370078740157,"duration":0.4053557916666648},{"name":"F4","midi":65,"time":153.42805999999985,"velocity":0.5039370078740157,"duration":0.4053557916666648},{"name":"A#3","midi":58,"time":153.42805999999985,"velocity":0.5984251968503937,"duration":0.8124972916666877},{"name":"F4","midi":65,"time":153.85662999999985,"velocity":0.5039370078740157,"duration":0.4053557916666932},{"name":"F4","midi":65,"time":154.2851999999999,"velocity":0.5039370078740157,"duration":0.4053557916666648},{"name":"D4","midi":62,"time":154.2851999999999,"velocity":0.5039370078740157,"duration":3.2553462916667115},{"name":"A3","midi":57,"time":154.2851999999999,"velocity":0.5984251968503937,"duration":2.441063291666694},{"name":"F4","midi":65,"time":154.7137699999999,"velocity":0.5039370078740157,"duration":0.4053557916666648},{"name":"F4","midi":65,"time":155.1423399999999,"velocity":0.5039370078740157,"duration":0.4053557916666648},{"name":"F4","midi":65,"time":155.5709099999999,"velocity":0.5039370078740157,"duration":0.4053557916666648},{"name":"F4","midi":65,"time":155.99947999999992,"velocity":0.5039370078740157,"duration":0.4053557916666648},{"name":"F4","midi":65,"time":156.42804999999993,"velocity":0.5039370078740157,"duration":0.4053557916666648},{"name":"F4","midi":65,"time":156.85661999999994,"velocity":0.5039370078740157,"duration":0.4053557916666648},{"name":"G3","midi":55,"time":156.85661999999994,"velocity":0.5984251968503937,"duration":0.8124972916666593},{"name":"F4","midi":65,"time":157.28518999999994,"velocity":0.5039370078740157,"duration":0.4053557916666648},{"name":"F4","midi":65,"time":157.71375999999995,"velocity":0.5039370078740157,"duration":0.4053557916666648},{"name":"A3","midi":57,"time":157.71375999999995,"velocity":0.5039370078740157,"duration":3.25534629166674},{"name":"D4","midi":62,"time":157.71375999999995,"velocity":0.5039370078740157,"duration":2.999990000000082},{"name":"F3","midi":53,"time":157.71375999999995,"velocity":0.5984251968503937,"duration":1.6267802916666767},{"name":"F4","midi":65,"time":158.14232999999996,"velocity":0.5039370078740157,"duration":0.4053557916666648},{"name":"F4","midi":65,"time":158.57089999999997,"velocity":0.5039370078740157,"duration":0.4053557916666648},{"name":"F4","midi":65,"time":158.99946999999997,"velocity":0.5039370078740157,"duration":0.4053557916666648},{"name":"F4","midi":65,"time":159.42803999999998,"velocity":0.5039370078740157,"duration":0.4053557916666648},{"name":"E3","midi":52,"time":159.42803999999998,"velocity":0.5984251968503937,"duration":0.8124972916666877},{"name":"F4","midi":65,"time":159.85661,"velocity":0.5039370078740157,"duration":0.4053557916666932},{"name":"F4","midi":65,"time":160.28518000000003,"velocity":0.5039370078740157,"duration":0.4053557916666648},{"name":"F3","midi":53,"time":160.28518000000003,"velocity":0.5984251968503937,"duration":0.8124972916666593},{"name":"D4","midi":62,"time":160.71375000000003,"velocity":0.5039370078740157,"duration":0.4053557916666648},{"name":"A#3","midi":58,"time":161.14232000000004,"velocity":0.6299212598425197,"duration":0.4053557916666648},{"name":"A#3","midi":58,"time":161.57089000000005,"velocity":0.6535433070866141,"duration":0.20178504166665334},{"name":"F3","midi":53,"time":161.78517500000004,"velocity":0.6692913385826772,"duration":0.4053557916666648},{"name":"A#3","midi":58,"time":161.78517500000004,"velocity":0.6692913385826772,"duration":0.4053557916666648},{"name":"A#3","midi":58,"time":162.21374500000005,"velocity":0.6929133858267716,"duration":0.20178504166665334},{"name":"D3","midi":50,"time":162.42803000000004,"velocity":0.7086614173228346,"duration":0.4053557916666648},{"name":"F3","midi":53,"time":162.42803000000004,"velocity":0.7086614173228346,"duration":0.4053557916666648},{"name":"A#3","midi":58,"time":162.42803000000004,"velocity":0.7086614173228346,"duration":0.4053557916666648},{"name":"A#3","midi":58,"time":162.85660000000004,"velocity":0.7401574803149606,"duration":0.20178504166665334},{"name":"A#2","midi":46,"time":163.07088500000003,"velocity":0.7401574803149606,"duration":1.4553522916666566},{"name":"F3","midi":53,"time":163.07088500000003,"velocity":0.7401574803149606,"duration":0.6089265416666763},{"name":"A#3","midi":58,"time":163.07088500000003,"velocity":0.7401574803149606,"duration":0.6089265416666763},{"name":"F2","midi":41,"time":163.71374000000003,"velocity":0.7401574803149606,"duration":0.8124972916666593},{"name":"A#2","midi":46,"time":163.71374000000003,"velocity":0.7401574803149606,"duration":4.691055791666628},{"name":"F3","midi":53,"time":163.71374000000003,"velocity":0.7401574803149606,"duration":0.8124972916666593},{"name":"F2","midi":41,"time":164.57088000000002,"velocity":0.8346456692913385,"duration":0.4053557916666648},{"name":"C3","midi":48,"time":164.57088000000002,"velocity":0.8346456692913385,"duration":0.4053557916666648},{"name":"F3","midi":53,"time":164.57088000000002,"velocity":0.8346456692913385,"duration":0.4053557916666648},{"name":"A3","midi":57,"time":164.99945000000002,"velocity":0.8346456692913385,"duration":0.20178504166665334},{"name":"C4","midi":60,"time":164.99945000000002,"velocity":0.8346456692913385,"duration":0.20178504166665334},{"name":"F2","midi":41,"time":165.213735,"velocity":0.8346456692913385,"duration":0.20178504166665334},{"name":"C3","midi":48,"time":165.213735,"velocity":0.8346456692913385,"duration":0.20178504166665334},{"name":"F3","midi":53,"time":165.213735,"velocity":0.8346456692913385,"duration":0.20178504166665334},{"name":"F2","midi":41,"time":165.42802,"velocity":0.8346456692913385,"duration":0.4053557916666648},{"name":"C3","midi":48,"time":165.42802,"velocity":0.8346456692913385,"duration":0.4053557916666648},{"name":"F3","midi":53,"time":165.42802,"velocity":0.8346456692913385,"duration":0.4053557916666648},{"name":"A3","midi":57,"time":165.85659,"velocity":0.8346456692913385,"duration":0.4053557916666648},{"name":"C4","midi":60,"time":165.85659,"velocity":0.8346456692913385,"duration":0.4053557916666648},{"name":"F2","midi":41,"time":166.28516000000002,"velocity":0.8346456692913385,"duration":0.4053557916666648},{"name":"C3","midi":48,"time":166.28516000000002,"velocity":0.8346456692913385,"duration":0.4053557916666648},{"name":"F3","midi":53,"time":166.28516000000002,"velocity":0.8346456692913385,"duration":0.4053557916666648},{"name":"A3","midi":57,"time":166.71373000000003,"velocity":0.8346456692913385,"duration":0.20178504166665334},{"name":"C4","midi":60,"time":166.71373000000003,"velocity":0.8346456692913385,"duration":0.3839272916666516},{"name":"F2","midi":41,"time":166.92801500000002,"velocity":0.8346456692913385,"duration":0.20178504166665334},{"name":"C3","midi":48,"time":166.92801500000002,"velocity":0.8346456692913385,"duration":0.20178504166665334},{"name":"F3","midi":53,"time":166.92801500000002,"velocity":0.8346456692913385,"duration":0.20178504166665334},{"name":"F2","midi":41,"time":167.1423,"velocity":0.8346456692913385,"duration":0.4053557916666648},{"name":"C3","midi":48,"time":167.1423,"velocity":0.8346456692913385,"duration":0.4053557916666648},{"name":"F3","midi":53,"time":167.1423,"velocity":0.8346456692913385,"duration":0.4053557916666648},{"name":"A3","midi":57,"time":167.57087,"velocity":0.8346456692913385,"duration":0.3839272916666516},{"name":"C4","midi":60,"time":167.57087,"velocity":0.8346456692913385,"duration":0.3839272916666516},{"name":"F2","midi":41,"time":167.785155,"velocity":0.8346456692913385,"duration":0.20178504166665334},{"name":"C3","midi":48,"time":167.785155,"velocity":0.8346456692913385,"duration":0.20178504166665334},{"name":"F3","midi":53,"time":167.785155,"velocity":0.8346456692913385,"duration":0.20178504166665334},{"name":"A#1","midi":34,"time":167.99944,"velocity":0.8346456692913385,"duration":0.4053557916666648},{"name":"F2","midi":41,"time":167.99944,"velocity":0.8346456692913385,"duration":0.4053557916666648},{"name":"A#2","midi":46,"time":167.99944,"velocity":0.8346456692913385,"duration":0.8446400416666506},{"name":"D3","midi":50,"time":168.42801,"velocity":0.8346456692913385,"duration":0.20178504166665334},{"name":"F3","midi":53,"time":168.42801,"velocity":0.8346456692913385,"duration":0.20178504166665334},{"name":"A#1","midi":34,"time":168.642295,"velocity":0.8346456692913385,"duration":0.20178504166665334},{"name":"F2","midi":41,"time":168.642295,"velocity":0.8346456692913385,"duration":0.20178504166665334},{"name":"A#2","midi":46,"time":168.642295,"velocity":0.8346456692913385,"duration":0.6196407916666544},{"name":"A#1","midi":34,"time":168.85657999999998,"velocity":0.8346456692913385,"duration":0.4053557916666648},{"name":"F2","midi":41,"time":168.85657999999998,"velocity":0.8346456692913385,"duration":0.4053557916666648},{"name":"A#2","midi":46,"time":168.85657999999998,"velocity":0.8346456692913385,"duration":1.2624957916666801},{"name":"D3","midi":50,"time":169.28515,"velocity":0.8346456692913385,"duration":0.4053557916666648},{"name":"F3","midi":53,"time":169.28515,"velocity":0.8346456692913385,"duration":0.4053557916666648},{"name":"A#1","midi":34,"time":169.71372,"velocity":0.8346456692913385,"duration":0.4053557916666648},{"name":"F2","midi":41,"time":169.71372,"velocity":0.8346456692913385,"duration":0.4053557916666648},{"name":"A#2","midi":46,"time":169.71372,"velocity":0.8346456692913385,"duration":1.2624957916666801},{"name":"D3","midi":50,"time":170.14229,"velocity":0.8346456692913385,"duration":0.4053557916666648},{"name":"F3","midi":53,"time":170.14229,"velocity":0.8346456692913385,"duration":0.4053557916666648},{"name":"A#2","midi":46,"time":170.57086,"velocity":0.8346456692913385,"duration":0.8446400416666506},{"name":"D3","midi":50,"time":170.57086,"velocity":0.8346456692913385,"duration":0.4053557916666648},{"name":"F3","midi":53,"time":170.57086,"velocity":0.8346456692913385,"duration":0.4053557916666648},{"name":"A#3","midi":58,"time":170.57086,"velocity":0.8346456692913385,"duration":0.4053557916666648},{"name":"D3","midi":50,"time":170.99943000000002,"velocity":0.8346456692913385,"duration":0.20178504166665334},{"name":"F3","midi":53,"time":170.99943000000002,"velocity":0.8346456692913385,"duration":0.20178504166665334},{"name":"A#1","midi":34,"time":171.213715,"velocity":0.8346456692913385,"duration":0.20178504166665334},{"name":"F2","midi":41,"time":171.213715,"velocity":0.8346456692913385,"duration":0.20178504166665334},{"name":"A#2","midi":46,"time":171.213715,"velocity":0.8346456692913385,"duration":4.0482007916666305},{"name":"D2","midi":38,"time":171.428,"velocity":0.8346456692913385,"duration":0.4053557916666648},{"name":"A2","midi":45,"time":171.428,"velocity":0.8346456692913385,"duration":0.4053557916666648},{"name":"D3","midi":50,"time":171.428,"velocity":0.8346456692913385,"duration":0.4053557916666648},{"name":"F3","midi":53,"time":171.85657,"velocity":0.8346456692913385,"duration":0.20178504166665334},{"name":"A3","midi":57,"time":171.85657,"velocity":0.8346456692913385,"duration":0.3839272916666516},{"name":"D2","midi":38,"time":172.070855,"velocity":0.8346456692913385,"duration":0.20178504166665334},{"name":"A2","midi":45,"time":172.070855,"velocity":0.8346456692913385,"duration":0.20178504166665334},{"name":"D3","midi":50,"time":172.070855,"velocity":0.8346456692913385,"duration":0.20178504166665334},{"name":"D2","midi":38,"time":172.28513999999998,"velocity":0.8346456692913385,"duration":0.4053557916666648},{"name":"A2","midi":45,"time":172.28513999999998,"velocity":0.8346456692913385,"duration":0.4053557916666648},{"name":"D3","midi":50,"time":172.28513999999998,"velocity":0.8346456692913385,"duration":0.4053557916666648},{"name":"F3","midi":53,"time":172.71371,"velocity":0.8346456692913385,"duration":0.4053557916666648},{"name":"A3","midi":57,"time":172.71371,"velocity":0.8346456692913385,"duration":0.4053557916666648},{"name":"D2","midi":38,"time":173.14228,"velocity":0.8346456692913385,"duration":0.4053557916666648},{"name":"A2","midi":45,"time":173.14228,"velocity":0.8346456692913385,"duration":0.4053557916666648},{"name":"D3","midi":50,"time":173.14228,"velocity":0.8346456692913385,"duration":0.4053557916666648},{"name":"F3","midi":53,"time":173.57085,"velocity":0.8346456692913385,"duration":0.20178504166665334},{"name":"A3","midi":57,"time":173.57085,"velocity":0.8346456692913385,"duration":0.20178504166665334},{"name":"D2","midi":38,"time":173.785135,"velocity":0.8346456692913385,"duration":0.20178504166665334},{"name":"A2","midi":45,"time":173.785135,"velocity":0.8346456692913385,"duration":0.20178504166665334},{"name":"D3","midi":50,"time":173.785135,"velocity":0.8346456692913385,"duration":0.20178504166665334},{"name":"D2","midi":38,"time":173.99942,"velocity":0.8346456692913385,"duration":0.4053557916666648},{"name":"A2","midi":45,"time":173.99942,"velocity":0.8346456692913385,"duration":0.4053557916666648},{"name":"D3","midi":50,"time":173.99942,"velocity":0.8346456692913385,"duration":0.4053557916666648},{"name":"F3","midi":53,"time":174.42799,"velocity":0.8346456692913385,"duration":0.20178504166665334},{"name":"A3","midi":57,"time":174.42799,"velocity":0.8346456692913385,"duration":0.3839272916666516},{"name":"D2","midi":38,"time":174.64227499999998,"velocity":0.8346456692913385,"duration":0.20178504166665334},{"name":"A2","midi":45,"time":174.64227499999998,"velocity":0.8346456692913385,"duration":0.20178504166665334},{"name":"D3","midi":50,"time":174.64227499999998,"velocity":0.8346456692913385,"duration":0.20178504166665334},{"name":"A#1","midi":34,"time":174.85655999999997,"velocity":0.8346456692913385,"duration":0.4053557916666648},{"name":"F2","midi":41,"time":174.85655999999997,"velocity":0.8346456692913385,"duration":0.4053557916666648},{"name":"A#2","midi":46,"time":174.85655999999997,"velocity":0.8346456692913385,"duration":0.8446400416666506},{"name":"D3","midi":50,"time":175.28512999999998,"velocity":0.8346456692913385,"duration":0.20178504166665334},{"name":"F3","midi":53,"time":175.28512999999998,"velocity":0.8346456692913385,"duration":0.20178504166665334},{"name":"A#1","midi":34,"time":175.49941499999997,"velocity":0.8346456692913385,"duration":0.20178504166665334},{"name":"F2","midi":41,"time":175.49941499999997,"velocity":0.8346456692913385,"duration":0.20178504166665334},{"name":"A#2","midi":46,"time":175.49941499999997,"velocity":0.8346456692913385,"duration":0.6196407916666544},{"name":"A#1","midi":34,"time":175.71369999999996,"velocity":0.8346456692913385,"duration":0.4053557916666648},{"name":"F2","midi":41,"time":175.71369999999996,"velocity":0.8346456692913385,"duration":0.4053557916666648},{"name":"A#2","midi":46,"time":175.71369999999996,"velocity":0.8346456692913385,"duration":1.2624957916666801},{"name":"D3","midi":50,"time":176.14226999999997,"velocity":0.8346456692913385,"duration":0.4053557916666648},{"name":"F3","midi":53,"time":176.14226999999997,"velocity":0.8346456692913385,"duration":0.4053557916666648},{"name":"A#1","midi":34,"time":176.57083999999998,"velocity":0.8346456692913385,"duration":0.4053557916666648},{"name":"F2","midi":41,"time":176.57083999999998,"velocity":0.8346456692913385,"duration":0.4053557916666648},{"name":"A#2","midi":46,"time":176.57083999999998,"velocity":0.8346456692913385,"duration":1.2624957916666801},{"name":"D3","midi":50,"time":176.99940999999998,"velocity":0.8346456692913385,"duration":0.4053557916666648},{"name":"F3","midi":53,"time":176.99940999999998,"velocity":0.8346456692913385,"duration":0.4053557916666648},{"name":"A#2","midi":46,"time":177.42798,"velocity":0.8346456692913385,"duration":0.8446400416666506},{"name":"D3","midi":50,"time":177.42798,"velocity":0.8346456692913385,"duration":0.4053557916666648},{"name":"F3","midi":53,"time":177.42798,"velocity":0.8346456692913385,"duration":0.4053557916666648},{"name":"A#3","midi":58,"time":177.42798,"velocity":0.8346456692913385,"duration":0.4053557916666648},{"name":"D3","midi":50,"time":177.85655,"velocity":0.8346456692913385,"duration":0.20178504166665334},{"name":"F3","midi":53,"time":177.85655,"velocity":0.8346456692913385,"duration":0.20178504166665334},{"name":"A#1","midi":34,"time":178.070835,"velocity":0.8346456692913385,"duration":0.20178504166665334},{"name":"F2","midi":41,"time":178.070835,"velocity":0.8346456692913385,"duration":0.20178504166665334},{"name":"A#2","midi":46,"time":178.070835,"velocity":0.8346456692913385,"duration":4.0482007916666305},{"name":"F2","midi":41,"time":178.28511999999998,"velocity":0.8346456692913385,"duration":0.4053557916666648},{"name":"C3","midi":48,"time":178.28511999999998,"velocity":0.8346456692913385,"duration":0.4053557916666648},{"name":"F3","midi":53,"time":178.28511999999998,"velocity":0.8346456692913385,"duration":0.4053557916666648},{"name":"A3","midi":57,"time":178.71368999999999,"velocity":0.8346456692913385,"duration":0.20178504166665334},{"name":"C4","midi":60,"time":178.71368999999999,"velocity":0.8346456692913385,"duration":0.20178504166665334},{"name":"F2","midi":41,"time":178.92797499999998,"velocity":0.8346456692913385,"duration":0.20178504166665334},{"name":"C3","midi":48,"time":178.92797499999998,"velocity":0.8346456692913385,"duration":0.20178504166665334},{"name":"F3","midi":53,"time":178.92797499999998,"velocity":0.8346456692913385,"duration":0.20178504166665334},{"name":"F2","midi":41,"time":179.14225999999996,"velocity":0.8346456692913385,"duration":0.4053557916666648},{"name":"C3","midi":48,"time":179.14225999999996,"velocity":0.8346456692913385,"duration":0.4053557916666648},{"name":"F3","midi":53,"time":179.14225999999996,"velocity":0.8346456692913385,"duration":0.4053557916666648},{"name":"A3","midi":57,"time":179.57082999999997,"velocity":0.8346456692913385,"duration":0.4053557916666648},{"name":"C4","midi":60,"time":179.57082999999997,"velocity":0.8346456692913385,"duration":0.4053557916666648},{"name":"F2","midi":41,"time":179.99939999999998,"velocity":0.8346456692913385,"duration":0.4053557916666648},{"name":"C3","midi":48,"time":179.99939999999998,"velocity":0.8346456692913385,"duration":0.4053557916666648},{"name":"F3","midi":53,"time":179.99939999999998,"velocity":0.8346456692913385,"duration":0.4053557916666648},{"name":"A3","midi":57,"time":180.42797,"velocity":0.8346456692913385,"duration":0.20178504166665334},{"name":"C4","midi":60,"time":180.42797,"velocity":0.8346456692913385,"duration":0.20178504166665334},{"name":"F2","midi":41,"time":180.64225499999998,"velocity":0.8346456692913385,"duration":0.20178504166665334},{"name":"C3","midi":48,"time":180.64225499999998,"velocity":0.8346456692913385,"duration":0.20178504166665334},{"name":"F3","midi":53,"time":180.64225499999998,"velocity":0.8346456692913385,"duration":0.20178504166665334},{"name":"F2","midi":41,"time":180.85653999999997,"velocity":0.8346456692913385,"duration":0.4053557916666648},{"name":"C3","midi":48,"time":180.85653999999997,"velocity":0.8346456692913385,"duration":0.4053557916666648},{"name":"F3","midi":53,"time":180.85653999999997,"velocity":0.8346456692913385,"duration":0.4053557916666648},{"name":"A3","midi":57,"time":181.28510999999997,"velocity":0.8346456692913385,"duration":0.20178504166665334},{"name":"C4","midi":60,"time":181.28510999999997,"velocity":0.8346456692913385,"duration":0.20178504166665334},{"name":"F2","midi":41,"time":181.49939499999996,"velocity":0.8346456692913385,"duration":0.20178504166665334},{"name":"C3","midi":48,"time":181.49939499999996,"velocity":0.8346456692913385,"duration":0.20178504166665334},{"name":"F3","midi":53,"time":181.49939499999996,"velocity":0.8346456692913385,"duration":0.20178504166665334},{"name":"A#1","midi":34,"time":181.71367999999995,"velocity":0.8346456692913385,"duration":0.4053557916666648},{"name":"F2","midi":41,"time":181.71367999999995,"velocity":0.8346456692913385,"duration":0.4053557916666648},{"name":"A#2","midi":46,"time":181.71367999999995,"velocity":0.8346456692913385,"duration":0.8446400416666506},{"name":"D3","midi":50,"time":182.14224999999996,"velocity":0.8346456692913385,"duration":0.20178504166665334},{"name":"F3","midi":53,"time":182.14224999999996,"velocity":0.8346456692913385,"duration":0.20178504166665334},{"name":"A#1","midi":34,"time":182.35653499999995,"velocity":0.8346456692913385,"duration":0.20178504166665334},{"name":"F2","midi":41,"time":182.35653499999995,"velocity":0.8346456692913385,"duration":0.20178504166665334},{"name":"A#2","midi":46,"time":182.35653499999995,"velocity":0.8346456692913385,"duration":0.6196407916666544},{"name":"A#1","midi":34,"time":182.57081999999994,"velocity":0.8346456692913385,"duration":0.4053557916666648},{"name":"F2","midi":41,"time":182.57081999999994,"velocity":0.8346456692913385,"duration":0.4053557916666648},{"name":"A#2","midi":46,"time":182.57081999999994,"velocity":0.8346456692913385,"duration":1.2624957916666801},{"name":"D3","midi":50,"time":182.99938999999995,"velocity":0.8346456692913385,"duration":0.4053557916666648},{"name":"F3","midi":53,"time":182.99938999999995,"velocity":0.8346456692913385,"duration":0.4053557916666648},{"name":"A#1","midi":34,"time":183.42795999999996,"velocity":0.8346456692913385,"duration":0.4053557916666648},{"name":"F2","midi":41,"time":183.42795999999996,"velocity":0.8346456692913385,"duration":0.4053557916666648},{"name":"A#2","midi":46,"time":183.42795999999996,"velocity":0.8346456692913385,"duration":1.2624957916666801},{"name":"D3","midi":50,"time":183.85652999999996,"velocity":0.8346456692913385,"duration":0.4053557916666648},{"name":"F3","midi":53,"time":183.85652999999996,"velocity":0.8346456692913385,"duration":0.4053557916666648},{"name":"A#2","midi":46,"time":184.28509999999997,"velocity":0.8346456692913385,"duration":0.8446400416666506},{"name":"D3","midi":50,"time":184.28509999999997,"velocity":0.8346456692913385,"duration":0.4053557916666648},{"name":"F3","midi":53,"time":184.28509999999997,"velocity":0.8346456692913385,"duration":0.4053557916666648},{"name":"A#3","midi":58,"time":184.28509999999997,"velocity":0.8346456692913385,"duration":0.4053557916666648},{"name":"D3","midi":50,"time":184.71366999999998,"velocity":0.8346456692913385,"duration":0.20178504166665334},{"name":"F3","midi":53,"time":184.71366999999998,"velocity":0.8346456692913385,"duration":0.20178504166665334},{"name":"A#1","midi":34,"time":184.92795499999997,"velocity":0.8346456692913385,"duration":0.20178504166665334},{"name":"F2","midi":41,"time":184.92795499999997,"velocity":0.8346456692913385,"duration":0.20178504166665334},{"name":"A#2","midi":46,"time":184.92795499999997,"velocity":0.8346456692913385,"duration":4.0482007916666305},{"name":"D2","midi":38,"time":185.14223999999996,"velocity":0.8346456692913385,"duration":0.4053557916666648},{"name":"A2","midi":45,"time":185.14223999999996,"velocity":0.8346456692913385,"duration":0.4053557916666648},{"name":"D3","midi":50,"time":185.14223999999996,"velocity":0.8346456692913385,"duration":0.4053557916666648},{"name":"F3","midi":53,"time":185.57080999999997,"velocity":0.8346456692913385,"duration":0.20178504166665334},{"name":"A3","midi":57,"time":185.57080999999997,"velocity":0.8346456692913385,"duration":0.20178504166665334},{"name":"D2","midi":38,"time":185.78509499999996,"velocity":0.8346456692913385,"duration":0.20178504166665334},{"name":"A2","midi":45,"time":185.78509499999996,"velocity":0.8346456692913385,"duration":0.20178504166665334},{"name":"D3","midi":50,"time":185.78509499999996,"velocity":0.8346456692913385,"duration":0.20178504166665334},{"name":"D2","midi":38,"time":185.99937999999995,"velocity":0.8346456692913385,"duration":0.4053557916666648},{"name":"A2","midi":45,"time":185.99937999999995,"velocity":0.8346456692913385,"duration":0.4053557916666648},{"name":"D3","midi":50,"time":185.99937999999995,"velocity":0.8346456692913385,"duration":0.4053557916666648},{"name":"F3","midi":53,"time":186.42794999999995,"velocity":0.8346456692913385,"duration":0.4053557916666648},{"name":"A3","midi":57,"time":186.42794999999995,"velocity":0.8346456692913385,"duration":0.4053557916666648},{"name":"D2","midi":38,"time":186.85651999999996,"velocity":0.8346456692913385,"duration":0.4053557916666648},{"name":"A2","midi":45,"time":186.85651999999996,"velocity":0.8346456692913385,"duration":0.4053557916666648},{"name":"D3","midi":50,"time":186.85651999999996,"velocity":0.8346456692913385,"duration":0.4053557916666648},{"name":"F3","midi":53,"time":187.28508999999997,"velocity":0.8346456692913385,"duration":0.20178504166665334},{"name":"A3","midi":57,"time":187.28508999999997,"velocity":0.8346456692913385,"duration":0.20178504166665334},{"name":"D2","midi":38,"time":187.49937499999996,"velocity":0.8346456692913385,"duration":0.20178504166665334},{"name":"A2","midi":45,"time":187.49937499999996,"velocity":0.8346456692913385,"duration":0.20178504166665334},{"name":"D3","midi":50,"time":187.49937499999996,"velocity":0.8346456692913385,"duration":0.20178504166665334},{"name":"D2","midi":38,"time":187.71365999999995,"velocity":0.8346456692913385,"duration":0.4053557916666648},{"name":"A2","midi":45,"time":187.71365999999995,"velocity":0.8346456692913385,"duration":0.4053557916666648},{"name":"D3","midi":50,"time":187.71365999999995,"velocity":0.8346456692913385,"duration":0.4053557916666648},{"name":"F3","midi":53,"time":188.14222999999996,"velocity":0.8346456692913385,"duration":0.20178504166665334},{"name":"A3","midi":57,"time":188.14222999999996,"velocity":0.8346456692913385,"duration":0.20178504166665334},{"name":"D2","midi":38,"time":188.35651499999994,"velocity":0.8346456692913385,"duration":0.20178504166665334},{"name":"A2","midi":45,"time":188.35651499999994,"velocity":0.8346456692913385,"duration":0.20178504166665334},{"name":"D3","midi":50,"time":188.35651499999994,"velocity":0.8346456692913385,"duration":0.20178504166665334},{"name":"A#1","midi":34,"time":188.57079999999993,"velocity":0.8346456692913385,"duration":0.4053557916666648},{"name":"F2","midi":41,"time":188.57079999999993,"velocity":0.8346456692913385,"duration":0.4053557916666648},{"name":"A#2","midi":46,"time":188.57079999999993,"velocity":0.8346456692913385,"duration":0.8446400416666506},{"name":"D3","midi":50,"time":188.99936999999994,"velocity":0.8346456692913385,"duration":0.20178504166665334},{"name":"F3","midi":53,"time":188.99936999999994,"velocity":0.8346456692913385,"duration":0.20178504166665334},{"name":"A#1","midi":34,"time":189.21365499999993,"velocity":0.8346456692913385,"duration":0.20178504166665334},{"name":"F2","midi":41,"time":189.21365499999993,"velocity":0.8346456692913385,"duration":0.20178504166665334},{"name":"A#2","midi":46,"time":189.21365499999993,"velocity":0.8346456692913385,"duration":0.6196407916666544},{"name":"A#1","midi":34,"time":189.42793999999992,"velocity":0.8346456692913385,"duration":0.4053557916666648},{"name":"F2","midi":41,"time":189.42793999999992,"velocity":0.8346456692913385,"duration":0.4053557916666648},{"name":"A#2","midi":46,"time":189.42793999999992,"velocity":0.8346456692913385,"duration":1.0589250416666687},{"name":"D3","midi":50,"time":189.85650999999993,"velocity":0.8346456692913385,"duration":0.4053557916666648},{"name":"F3","midi":53,"time":189.85650999999993,"velocity":0.8346456692913385,"duration":0.4053557916666648},{"name":"A#1","midi":34,"time":190.28507999999994,"velocity":0.8346456692913385,"duration":0.20178504166665334},{"name":"F2","midi":41,"time":190.28507999999994,"velocity":0.8346456692913385,"duration":0.20178504166665334},{"name":"A#2","midi":46,"time":190.28507999999994,"velocity":0.8346456692913385,"duration":0.8446400416666506},{"name":"D3","midi":50,"time":190.49936499999993,"velocity":0.8346456692913385,"duration":0.4053557916666648},{"name":"F3","midi":53,"time":190.49936499999993,"velocity":0.8346456692913385,"duration":0.4053557916666648},{"name":"F2","midi":41,"time":190.92793499999993,"velocity":0.8346456692913385,"duration":0.20178504166665334},{"name":"A#2","midi":46,"time":190.92793499999993,"velocity":0.8346456692913385,"duration":1.048210791666662},{"name":"D3","midi":50,"time":191.14221999999992,"velocity":0.8346456692913385,"duration":0.4053557916666648},{"name":"F3","midi":53,"time":191.14221999999992,"velocity":0.8346456692913385,"duration":0.4053557916666648},{"name":"A#3","midi":58,"time":191.14221999999992,"velocity":0.8346456692913385,"duration":0.4053557916666648},{"name":"F2","midi":41,"time":191.57078999999993,"velocity":0.8346456692913385,"duration":0.4053557916666648},{"name":"A#2","midi":46,"time":191.57078999999993,"velocity":0.8346456692913385,"duration":4.455342291666597},{"name":"F3","midi":53,"time":191.57078999999993,"velocity":0.8346456692913385,"duration":0.4053557916666648},{"name":"C3","midi":48,"time":191.99935999999994,"velocity":0.5511811023622047,"duration":0.6089265416666478},{"name":"F3","midi":53,"time":191.99935999999994,"velocity":0.5511811023622047,"duration":0.6089265416666478},{"name":"A3","midi":57,"time":191.99935999999994,"velocity":0.5511811023622047,"duration":0.6089265416666478},{"name":"F3","midi":53,"time":192.6422149999999,"velocity":0.5511811023622047,"duration":0.8124972916666593},{"name":"F3","midi":53,"time":193.4993549999999,"velocity":0.5511811023622047,"duration":0.8124972916666593},{"name":"F3","midi":53,"time":194.35649499999988,"velocity":0.5511811023622047,"duration":0.8124972916666593},{"name":"A#2","midi":46,"time":195.21363499999987,"velocity":0.5511811023622047,"duration":1.6696372916666462},{"name":"F3","midi":53,"time":195.42791999999986,"velocity":0.5511811023622047,"duration":0.6089265416666763},{"name":"A#3","midi":58,"time":195.42791999999986,"velocity":0.5511811023622047,"duration":0.6089265416666763},{"name":"A#2","midi":46,"time":196.07077499999986,"velocity":0.5511811023622047,"duration":1.6696372916666462},{"name":"A#2","midi":46,"time":196.92791499999984,"velocity":0.5511811023622047,"duration":1.6696372916666462},{"name":"A#2","midi":46,"time":197.78505499999983,"velocity":0.5511811023622047,"duration":7.755331291666607},{"name":"D3","midi":50,"time":198.64219499999982,"velocity":0.5511811023622047,"duration":0.8124972916666593},{"name":"F3","midi":53,"time":198.8564799999998,"velocity":0.5511811023622047,"duration":0.6089265416666763},{"name":"A3","midi":57,"time":198.8564799999998,"velocity":0.5511811023622047,"duration":0.6089265416666763},{"name":"D3","midi":50,"time":199.4993349999998,"velocity":0.5511811023622047,"duration":0.8124972916666593},{"name":"D3","midi":50,"time":200.3564749999998,"velocity":0.5511811023622047,"duration":0.8124972916666593},{"name":"D3","midi":50,"time":201.21361499999978,"velocity":0.5511811023622047,"duration":1.0160680416666708},{"name":"A#2","midi":46,"time":202.28503999999978,"velocity":0.5511811023622047,"duration":0},{"name":"F3","midi":53,"time":202.28503999999978,"velocity":0.5511811023622047,"duration":3.2553462916666547}]}]}