{"header":{"title":"Hello","artist":"SHINee","source":"https://musescore.com/user/82093/scores/99199","bpm":120,"duration":174.99895833333332},"tracks":[{"instrument_number":0,"notes":[{"name":"B5","midi":83,"time":0.25,"velocity":0.6299212598425197,"duration":0.24895833333333334},{"name":"D6","midi":86,"time":0.5,"velocity":0.6299212598425197,"duration":0.2489583333333334},{"name":"B5","midi":83,"time":0.7500000000000001,"velocity":0.6299212598425197,"duration":0.24895833333333328},{"name":"G5","midi":79,"time":1,"velocity":0.6299212598425197,"duration":0.2489583333333334},{"name":"D5","midi":74,"time":1.25,"velocity":0.6299212598425197,"duration":0.2489583333333334},{"name":"C5","midi":72,"time":1.5,"velocity":0.6299212598425197,"duration":0.4989583333333334},{"name":"C5","midi":72,"time":2,"velocity":0.6299212598425197,"duration":0.9989583333333334},{"name":"E5","midi":76,"time":2.0625,"velocity":0.6299212598425197,"duration":0.9989583333333334},{"name":"A5","midi":81,"time":2.125,"velocity":0.6299212598425197,"duration":0.9989583333333334},{"name":"B5","midi":83,"time":3.25,"velocity":0.6299212598425197,"duration":0.2489583333333334},{"name":"D6","midi":86,"time":3.5,"velocity":0.6299212598425197,"duration":0.2489583333333334},{"name":"B5","midi":83,"time":3.75,"velocity":0.6299212598425197,"duration":0.2489583333333334},{"name":"G5","midi":79,"time":4,"velocity":0.6299212598425197,"duration":0.2489583333333334},{"name":"D5","midi":74,"time":4.25,"velocity":0.6299212598425197,"duration":0.2489583333333334},{"name":"C5","midi":72,"time":4.5,"velocity":0.6299212598425197,"duration":0.4989583333333334},{"name":"C5","midi":72,"time":5,"velocity":0.6299212598425197,"duration":0.9989583333333334},{"name":"E5","midi":76,"time":5.0625,"velocity":0.6299212598425197,"duration":0.9989583333333334},{"name":"A5","midi":81,"time":5.125,"velocity":0.6299212598425197,"duration":0.9989583333333334},{"name":"A5","midi":81,"time":6.25,"velocity":0.6299212598425197,"duration":0.2489583333333334},{"name":"C6","midi":84,"time":6.5,"velocity":0.6299212598425197,"duration":0.2489583333333334},{"name":"B5","midi":83,"time":6.75,"velocity":0.6299212598425197,"duration":0.2489583333333334},{"name":"A5","midi":81,"time":7,"velocity":0.6299212598425197,"duration":0.2489583333333334},{"name":"G5","midi":79,"time":7.25,"velocity":0.6299212598425197,"duration":0.2489583333333334},{"name":"F#5","midi":78,"time":7.5,"velocity":0.6299212598425197,"duration":0.2489583333333334},{"name":"G5","midi":79,"time":7.75,"velocity":0.6299212598425197,"duration":0.2489583333333334},{"name":"A5","midi":81,"time":8,"velocity":0.6299212598425197,"duration":0.2489583333333325},{"name":"B5","midi":83,"time":8.25,"velocity":0.6299212598425197,"duration":0.2489583333333325},{"name":"D5","midi":74,"time":8.5,"velocity":0.6299212598425197,"duration":0.4989583333333325},{"name":"C#5","midi":73,"time":9,"velocity":0.6299212598425197,"duration":0.2489583333333325},{"name":"D5","midi":74,"time":9.25,"velocity":0.6299212598425197,"duration":0.2489583333333325},{"name":"E5","midi":76,"time":9.5,"velocity":0.6299212598425197,"duration":0.2489583333333325},{"name":"F#5","midi":78,"time":9.75,"velocity":0.6299212598425197,"duration":0.2489583333333325},{"name":"G5","midi":79,"time":10,"velocity":0.6299212598425197,"duration":0.2489583333333325},{"name":"A5","midi":81,"time":10.25,"velocity":0.6299212598425197,"duration":0.2489583333333325},{"name":"B5","midi":83,"time":10.5,"velocity":0.6299212598425197,"duration":0.4989583333333325},{"name":"G5","midi":79,"time":10.5,"velocity":0.6299212598425197,"duration":0.4989583333333325},{"name":"E5","midi":76,"time":10.5,"velocity":0.6299212598425197,"duration":0.4989583333333325},{"name":"D6","midi":86,"time":11,"velocity":0.6299212598425197,"duration":0.4989583333333325},{"name":"D5","midi":74,"time":11.5,"velocity":0.6299212598425197,"duration":0.4989583333333325},{"name":"F#5","midi":78,"time":11.5625,"velocity":0.6299212598425197,"duration":0.4989583333333325},{"name":"A#5","midi":82,"time":11.625,"velocity":0.6299212598425197,"duration":0.4989583333333325},{"name":"B5","midi":83,"time":12.25,"velocity":0.6299212598425197,"duration":0.2489583333333325},{"name":"D6","midi":86,"time":12.5,"velocity":0.6299212598425197,"duration":0.2489583333333325},{"name":"B5","midi":83,"time":12.75,"velocity":0.6299212598425197,"duration":0.2489583333333325},{"name":"G5","midi":79,"time":13,"velocity":0.6299212598425197,"duration":0.2489583333333325},{"name":"D5","midi":74,"time":13.25,"velocity":0.6299212598425197,"duration":0.2489583333333325},{"name":"C5","midi":72,"time":13.5,"velocity":0.6299212598425197,"duration":0.4989583333333325},{"name":"C5","midi":72,"time":14,"velocity":0.6299212598425197,"duration":0.7489583333333325},{"name":"E5","midi":76,"time":14.0625,"velocity":0.6299212598425197,"duration":0.7489583333333325},{"name":"A5","midi":81,"time":14.125,"velocity":0.6299212598425197,"duration":0.7489583333333325},{"name":"E5","midi":76,"time":14.75,"velocity":0.6299212598425197,"duration":0.2489583333333325},{"name":"B5","midi":83,"time":15,"velocity":0.6299212598425197,"duration":1.4989583333333343},{"name":"F#5","midi":78,"time":15,"velocity":0.6299212598425197,"duration":1.4989583333333343},{"name":"B5","midi":83,"time":16.5,"velocity":0.6299212598425197,"duration":1.4989583333333343},{"name":"G5","midi":79,"time":16.5,"velocity":0.6299212598425197,"duration":1.4989583333333343},{"name":"B4","midi":71,"time":16.5,"velocity":0.6299212598425197,"duration":1.4989583333333343},{"name":"C5","midi":72,"time":28.25,"velocity":0.6299212598425197,"duration":0.12395833333333428},{"name":"C5","midi":72,"time":28.375,"velocity":0.6299212598425197,"duration":0.12395833333333428},{"name":"C5","midi":72,"time":28.5,"velocity":0.6299212598425197,"duration":0.24895833333333428},{"name":"C5","midi":72,"time":28.75,"velocity":0.6299212598425197,"duration":0.24895833333333428},{"name":"A4","midi":69,"time":29,"velocity":0.6299212598425197,"duration":0.24895833333333428},{"name":"C5","midi":72,"time":29.25,"velocity":0.6299212598425197,"duration":0.24895833333333428},{"name":"C5","midi":72,"time":29.5,"velocity":0.6299212598425197,"duration":0.4989583333333343},{"name":"C5","midi":72,"time":30.25,"velocity":0.6299212598425197,"duration":0.12395833333333428},{"name":"C5","midi":72,"time":30.375,"velocity":0.6299212598425197,"duration":0.12395833333333428},{"name":"C5","midi":72,"time":30.5,"velocity":0.6299212598425197,"duration":0.24895833333333428},{"name":"C5","midi":72,"time":30.75,"velocity":0.6299212598425197,"duration":0.24895833333333428},{"name":"C5","midi":72,"time":31,"velocity":0.6299212598425197,"duration":0.24895833333333428},{"name":"A4","midi":69,"time":31.25,"velocity":0.6299212598425197,"duration":0.24895833333333428},{"name":"D5","midi":74,"time":31.5,"velocity":0.6299212598425197,"duration":0.24895833333333428},{"name":"C5","midi":72,"time":31.75,"velocity":0.6299212598425197,"duration":0.24895833333333428},{"name":"C5","midi":72,"time":32.25,"velocity":0.6299212598425197,"duration":0.12395833333333428},{"name":"C5","midi":72,"time":32.375,"velocity":0.6299212598425197,"duration":0.12395833333333428},{"name":"C5","midi":72,"time":32.5,"velocity":0.6299212598425197,"duration":0.24895833333333428},{"name":"C5","midi":72,"time":32.75,"velocity":0.6299212598425197,"duration":0.24895833333333428},{"name":"A4","midi":69,"time":33,"velocity":0.6299212598425197,"duration":0.24895833333333428},{"name":"C5","midi":72,"time":33.25,"velocity":0.6299212598425197,"duration":0.24895833333333428},{"name":"C5","midi":72,"time":33.5,"velocity":0.6299212598425197,"duration":0.4989583333333343},{"name":"F5","midi":77,"time":34,"velocity":0.6299212598425197,"duration":0.24895833333333428},{"name":"E5","midi":76,"time":34.25,"velocity":0.6299212598425197,"duration":0.24895833333333428},{"name":"D5","midi":74,"time":34.5,"velocity":0.6299212598425197,"duration":0.24895833333333428},{"name":"D5","midi":74,"time":34.75,"velocity":0.6299212598425197,"duration":0.4989583333333343},{"name":"C5","midi":72,"time":35.25,"velocity":0.6299212598425197,"duration":0.7489583333333343},{"name":"C5","midi":72,"time":36.25,"velocity":0.6299212598425197,"duration":0.12395833333333428},{"name":"C5","midi":72,"time":36.375,"velocity":0.6299212598425197,"duration":0.12395833333333428},{"name":"C5","midi":72,"time":36.5,"velocity":0.6299212598425197,"duration":0.24895833333333428},{"name":"C5","midi":72,"time":36.75,"velocity":0.6299212598425197,"duration":0.24895833333333428},{"name":"A4","midi":69,"time":37,"velocity":0.6299212598425197,"duration":0.24895833333333428},{"name":"C5","midi":72,"time":37.25,"velocity":0.6299212598425197,"duration":0.24895833333333428},{"name":"C5","midi":72,"time":37.5,"velocity":0.6299212598425197,"duration":0.4989583333333343},{"name":"C5","midi":72,"time":38.25,"velocity":0.6299212598425197,"duration":0.12395833333333428},{"name":"C5","midi":72,"time":38.375,"velocity":0.6299212598425197,"duration":0.12395833333333428},{"name":"C5","midi":72,"time":38.5,"velocity":0.6299212598425197,"duration":0.24895833333333428},{"name":"C5","midi":72,"time":38.75,"velocity":0.6299212598425197,"duration":0.24895833333333428},{"name":"C5","midi":72,"time":39,"velocity":0.6299212598425197,"duration":0.24895833333333428},{"name":"A4","midi":69,"time":39.25,"velocity":0.6299212598425197,"duration":0.24895833333333428},{"name":"D5","midi":74,"time":39.5,"velocity":0.6299212598425197,"duration":0.4989583333333343},{"name":"C5","midi":72,"time":40.25,"velocity":0.6299212598425197,"duration":0.12395833333333428},{"name":"C5","midi":72,"time":40.375,"velocity":0.6299212598425197,"duration":0.12395833333333428},{"name":"C5","midi":72,"time":40.5,"velocity":0.6299212598425197,"duration":0.24895833333333428},{"name":"C5","midi":72,"time":40.75,"velocity":0.6299212598425197,"duration":0.24895833333333428},{"name":"A4","midi":69,"time":41,"velocity":0.6299212598425197,"duration":0.24895833333333428},{"name":"C5","midi":72,"time":41.25,"velocity":0.6299212598425197,"duration":0.24895833333333428},{"name":"C5","midi":72,"time":41.5,"velocity":0.6299212598425197,"duration":0.4989583333333343},{"name":"F5","midi":77,"time":42,"velocity":0.6299212598425197,"duration":0.24895833333333428},{"name":"E5","midi":76,"time":42.25,"velocity":0.6299212598425197,"duration":0.24895833333333428},{"name":"D5","midi":74,"time":42.5,"velocity":0.6299212598425197,"duration":0.24895833333333428},{"name":"D5","midi":74,"time":42.75,"velocity":0.6299212598425197,"duration":0.24895833333333428},{"name":"C5","midi":72,"time":43,"velocity":0.6299212598425197,"duration":0.9989583333333343},{"name":"G5","midi":79,"time":44.25,"velocity":0.6299212598425197,"duration":0.24895833333333428},{"name":"G5","midi":79,"time":44.5,"velocity":0.6299212598425197,"duration":0.24895833333333428},{"name":"G5","midi":79,"time":44.75,"velocity":0.6299212598425197,"duration":0.24895833333333428},{"name":"G5","midi":79,"time":45,"velocity":0.6299212598425197,"duration":0.24895833333333428},{"name":"G5","midi":79,"time":45.25,"velocity":0.6299212598425197,"duration":0.24895833333333428},{"name":"G5","midi":79,"time":45.5,"velocity":0.6299212598425197,"duration":0.24895833333333428},{"name":"G5","midi":79,"time":45.75,"velocity":0.6299212598425197,"duration":0.24895833333333428},{"name":"G5","midi":79,"time":46,"velocity":0.6299212598425197,"duration":0.24895833333333428},{"name":"G5","midi":79,"time":46.25,"velocity":0.6299212598425197,"duration":0.24895833333333428},{"name":"G5","midi":79,"time":46.5,"velocity":0.6299212598425197,"duration":0.24895833333333428},{"name":"G5","midi":79,"time":46.75,"velocity":0.6299212598425197,"duration":0.24895833333333428},{"name":"G5","midi":79,"time":47,"velocity":0.6299212598425197,"duration":0.24895833333333428},{"name":"F5","midi":77,"time":47.25,"velocity":0.6299212598425197,"duration":0.24895833333333428},{"name":"A5","midi":81,"time":47.5,"velocity":0.6299212598425197,"duration":0.24895833333333428},{"name":"G5","midi":79,"time":47.75,"velocity":0.6299212598425197,"duration":0.24895833333333428},{"name":"G5","midi":79,"time":48.25,"velocity":0.6299212598425197,"duration":0.24895833333333428},{"name":"G5","midi":79,"time":48.5,"velocity":0.6299212598425197,"duration":0.24895833333333428},{"name":"G5","midi":79,"time":48.75,"velocity":0.6299212598425197,"duration":0.24895833333333428},{"name":"G5","midi":79,"time":49,"velocity":0.6299212598425197,"duration":0.24895833333333428},{"name":"G5","midi":79,"time":49.25,"velocity":0.6299212598425197,"duration":0.24895833333333428},{"name":"G5","midi":79,"time":49.5,"velocity":0.6299212598425197,"duration":0.24895833333333428},{"name":"G5","midi":79,"time":49.75,"velocity":0.6299212598425197,"duration":0.24895833333333428},{"name":"G5","midi":79,"time":50,"velocity":0.6299212598425197,"duration":0.24895833333333428},{"name":"G5","midi":79,"time":50.25,"velocity":0.6299212598425197,"duration":0.24895833333333428},{"name":"G5","midi":79,"time":50.5,"velocity":0.6299212598425197,"duration":0.24895833333333428},{"name":"A5","midi":81,"time":50.75,"velocity":0.6299212598425197,"duration":0.24895833333333428},{"name":"A#5","midi":82,"time":51,"velocity":0.6299212598425197,"duration":0.24895833333333428},{"name":"A5","midi":81,"time":51.25,"velocity":0.6299212598425197,"duration":0.24895833333333428},{"name":"G5","midi":79,"time":51.5,"velocity":0.6299212598425197,"duration":0.24895833333333428},{"name":"F5","midi":77,"time":51.75,"velocity":0.6299212598425197,"duration":0.24895833333333428},{"name":"F5","midi":77,"time":52,"velocity":0.6299212598425197,"duration":0.24895833333333428},{"name":"D5","midi":74,"time":52.25,"velocity":0.6299212598425197,"duration":0.4989583333333343},{"name":"G5","midi":79,"time":52.75,"velocity":0.6299212598425197,"duration":0.24895833333333428},{"name":"E5","midi":76,"time":53,"velocity":0.6299212598425197,"duration":0.9989583333333343},{"name":"C5","midi":72,"time":54,"velocity":0.6299212598425197,"duration":0.12395833333333428},{"name":"C5","midi":72,"time":54.125,"velocity":0.6299212598425197,"duration":0.12395833333333428},{"name":"C5","midi":72,"time":54.25,"velocity":0.6299212598425197,"duration":0.12395833333333428},{"name":"C5","midi":72,"time":54.375,"velocity":0.6299212598425197,"duration":0.24895833333333428},{"name":"C5","midi":72,"time":54.625,"velocity":0.6299212598425197,"duration":0.24895833333333428},{"name":"D5","midi":74,"time":54.875,"velocity":0.6299212598425197,"duration":0.12395833333333428},{"name":"D5","midi":74,"time":55,"velocity":0.6299212598425197,"duration":0.24895833333333428},{"name":"C5","midi":72,"time":55.25,"velocity":0.6299212598425197,"duration":0.24895833333333428},{"name":"C5","midi":72,"time":55.5,"velocity":0.6299212598425197,"duration":0.4989583333333343},{"name":"F5","midi":77,"time":56,"velocity":0.6299212598425197,"duration":0.24895833333333428},{"name":"D5","midi":74,"time":56.25,"velocity":0.6299212598425197,"duration":0.4989583333333343},{"name":"G5","midi":79,"time":56.75,"velocity":0.6299212598425197,"duration":0.24895833333333428},{"name":"E5","midi":76,"time":57,"velocity":0.6299212598425197,"duration":0.7489583333333343},{"name":"C5","midi":72,"time":57.75,"velocity":0.6299212598425197,"duration":0.24895833333333428},{"name":"C5","midi":72,"time":58,"velocity":0.6299212598425197,"duration":0.24895833333333428},{"name":"D5","midi":74,"time":58.25,"velocity":0.6299212598425197,"duration":0.24895833333333428},{"name":"F5","midi":77,"time":58.5,"velocity":0.6299212598425197,"duration":0.24895833333333428},{"name":"G5","midi":79,"time":58.75,"velocity":0.6299212598425197,"duration":0.24895833333333428},{"name":"F5","midi":77,"time":59,"velocity":0.6299212598425197,"duration":0.4989583333333343},{"name":"E5","midi":76,"time":59.5,"velocity":0.6299212598425197,"duration":0.24895833333333428},{"name":"D5","midi":74,"time":59.75,"velocity":0.6299212598425197,"duration":0.24895833333333428},{"name":"F5","midi":77,"time":60,"velocity":0.6299212598425197,"duration":0.24895833333333428},{"name":"D5","midi":74,"time":60.25,"velocity":0.6299212598425197,"duration":0.4989583333333343},{"name":"G5","midi":79,"time":60.75,"velocity":0.6299212598425197,"duration":0.24895833333333428},{"name":"E5","midi":76,"time":61,"velocity":0.6299212598425197,"duration":0.9989583333333343},{"name":"G5","midi":79,"time":62,"velocity":0.6299212598425197,"duration":0.12395833333333428},{"name":"G5","midi":79,"time":62.125,"velocity":0.6299212598425197,"duration":0.12395833333333428},{"name":"G5","midi":79,"time":62.25,"velocity":0.6299212598425197,"duration":0.12395833333333428},{"name":"G5","midi":79,"time":62.375,"velocity":0.6299212598425197,"duration":0.24895833333333428},{"name":"G5","midi":79,"time":62.625,"velocity":0.6299212598425197,"duration":0.24895833333333428},{"name":"A5","midi":81,"time":62.875,"velocity":0.6299212598425197,"duration":0.12395833333333428},{"name":"G5","midi":79,"time":63,"velocity":0.6299212598425197,"duration":0.24895833333333428},{"name":"F5","midi":77,"time":63.25,"velocity":0.6299212598425197,"duration":0.12395833333333428},{"name":"D5","midi":74,"time":63.375,"velocity":0.6299212598425197,"duration":0.12395833333333428},{"name":"F5","midi":77,"time":63.5,"velocity":0.6299212598425197,"duration":0.24895833333333428},{"name":"A5","midi":81,"time":63.75,"velocity":0.6299212598425197,"duration":0.24895833333333428},{"name":"A5","midi":81,"time":64.25,"velocity":0.6299212598425197,"duration":0.24895833333333428},{"name":"F5","midi":77,"time":64.5,"velocity":0.6299212598425197,"duration":0.4989583333333343},{"name":"G5","midi":79,"time":65,"velocity":0.6299212598425197,"duration":0.24895833333333428},{"name":"E5","midi":76,"time":65.25,"velocity":0.6299212598425197,"duration":0.4989583333333343},{"name":"F5","midi":77,"time":65.75,"velocity":0.6299212598425197,"duration":0.24895833333333428},{"name":"D5","midi":74,"time":66,"velocity":0.6299212598425197,"duration":0.7489583333333343},{"name":"A4","midi":69,"time":66.75,"velocity":0.6299212598425197,"duration":0.24895833333333428},{"name":"F5","midi":77,"time":67,"velocity":0.6299212598425197,"duration":0.24895833333333428},{"name":"E5","midi":76,"time":67.25,"velocity":0.6299212598425197,"duration":0.12395833333333428},{"name":"D5","midi":74,"time":67.375,"velocity":0.6299212598425197,"duration":0.24895833333333428},{"name":"C5","midi":72,"time":67.625,"velocity":0.6299212598425197,"duration":0.12395833333333428},{"name":"A4","midi":69,"time":67.75,"velocity":0.6299212598425197,"duration":0.24895833333333428},{"name":"C5","midi":72,"time":72.25,"velocity":0.6299212598425197,"duration":0.12395833333333428},{"name":"C5","midi":72,"time":72.375,"velocity":0.6299212598425197,"duration":0.12395833333333428},{"name":"C5","midi":72,"time":72.5,"velocity":0.6299212598425197,"duration":0.24895833333333428},{"name":"C5","midi":72,"time":72.75,"velocity":0.6299212598425197,"duration":0.24895833333333428},{"name":"A4","midi":69,"time":73,"velocity":0.6299212598425197,"duration":0.24895833333333428},{"name":"C5","midi":72,"time":73.25,"velocity":0.6299212598425197,"duration":0.24895833333333428},{"name":"C5","midi":72,"time":73.5,"velocity":0.6299212598425197,"duration":0.4989583333333343},{"name":"C5","midi":72,"time":74.25,"velocity":0.6299212598425197,"duration":0.12395833333333428},{"name":"C5","midi":72,"time":74.375,"velocity":0.6299212598425197,"duration":0.12395833333333428},{"name":"C5","midi":72,"time":74.5,"velocity":0.6299212598425197,"duration":0.24895833333333428},{"name":"C5","midi":72,"time":74.75,"velocity":0.6299212598425197,"duration":0.24895833333333428},{"name":"C5","midi":72,"time":75,"velocity":0.6299212598425197,"duration":0.24895833333333428},{"name":"A4","midi":69,"time":75.25,"velocity":0.6299212598425197,"duration":0.24895833333333428},{"name":"D5","midi":74,"time":75.5,"velocity":0.6299212598425197,"duration":0.24895833333333428},{"name":"C5","midi":72,"time":75.75,"velocity":0.6299212598425197,"duration":0.24895833333333428},{"name":"C5","midi":72,"time":76.25,"velocity":0.6299212598425197,"duration":0.12395833333333428},{"name":"C5","midi":72,"time":76.375,"velocity":0.6299212598425197,"duration":0.12395833333333428},{"name":"C5","midi":72,"time":76.5,"velocity":0.6299212598425197,"duration":0.24895833333333428},{"name":"C5","midi":72,"time":76.75,"velocity":0.6299212598425197,"duration":0.24895833333333428},{"name":"A4","midi":69,"time":77,"velocity":0.6299212598425197,"duration":0.24895833333333428},{"name":"C5","midi":72,"time":77.25,"velocity":0.6299212598425197,"duration":0.24895833333333428},{"name":"C5","midi":72,"time":77.5,"velocity":0.6299212598425197,"duration":0.4989583333333343},{"name":"F5","midi":77,"time":78,"velocity":0.6299212598425197,"duration":0.24895833333333428},{"name":"E5","midi":76,"time":78.25,"velocity":0.6299212598425197,"duration":0.24895833333333428},{"name":"D5","midi":74,"time":78.5,"velocity":0.6299212598425197,"duration":0.24895833333333428},{"name":"C5","midi":72,"time":78.75,"velocity":0.6299212598425197,"duration":0.24895833333333428},{"name":"A4","midi":69,"time":79,"velocity":0.6299212598425197,"duration":0.24895833333333428},{"name":"C5","midi":72,"time":79.25,"velocity":0.6299212598425197,"duration":0.24895833333333428},{"name":"C5","midi":72,"time":79.5,"velocity":0.6299212598425197,"duration":0.24895833333333428},{"name":"D5","midi":74,"time":79.75,"velocity":0.6299212598425197,"duration":0.4989583333333343},{"name":"A4","midi":69,"time":80.25,"velocity":0.6299212598425197,"duration":0.24895833333333428},{"name":"C5","midi":72,"time":80.5,"velocity":0.6299212598425197,"duration":0.4989583333333343},{"name":"G5","midi":79,"time":81,"velocity":0.6299212598425197,"duration":0.24895833333333428},{"name":"G5","midi":79,"time":81.25,"velocity":0.6299212598425197,"duration":0.24895833333333428},{"name":"G5","midi":79,"time":81.5,"velocity":0.6299212598425197,"duration":0.4989583333333343},{"name":"E5","midi":76,"time":82.25,"velocity":0.6299212598425197,"duration":0.12395833333333428},{"name":"E5","midi":76,"time":82.375,"velocity":0.6299212598425197,"duration":0.12395833333333428},{"name":"E5","midi":76,"time":82.5,"velocity":0.6299212598425197,"duration":0.24895833333333428},{"name":"E5","midi":76,"time":82.75,"velocity":0.6299212598425197,"duration":0.24895833333333428},{"name":"E5","midi":76,"time":83,"velocity":0.6299212598425197,"duration":0.24895833333333428},{"name":"F5","midi":77,"time":83.25,"velocity":0.6299212598425197,"duration":0.24895833333333428},{"name":"F5","midi":77,"time":83.5,"velocity":0.6299212598425197,"duration":0.24895833333333428},{"name":"G5","midi":79,"time":83.75,"velocity":0.6299212598425197,"duration":0.24895833333333428},{"name":"A5","midi":81,"time":84,"velocity":0.6299212598425197,"duration":0.7489583333333343},{"name":"G5","midi":79,"time":84.75,"velocity":0.6299212598425197,"duration":0.7489583333333343},{"name":"F5","midi":77,"time":85.5,"velocity":0.6299212598425197,"duration":0.4989583333333343},{"name":"E5","midi":76,"time":86,"velocity":0.6299212598425197,"duration":0.24895833333333428},{"name":"D5","midi":74,"time":86.25,"velocity":0.6299212598425197,"duration":0.24895833333333428},{"name":"C5","midi":72,"time":86.5,"velocity":0.6299212598425197,"duration":0.24895833333333428},{"name":"F5","midi":77,"time":86.75,"velocity":0.6299212598425197,"duration":0.4989583333333343},{"name":"D5","midi":74,"time":87.25,"velocity":0.6299212598425197,"duration":0.24895833333333428},{"name":"C5","midi":72,"time":87.5,"velocity":0.6299212598425197,"duration":0.4989583333333343},{"name":"G5","midi":79,"time":88.25,"velocity":0.6299212598425197,"duration":0.24895833333333428},{"name":"G5","midi":79,"time":88.5,"velocity":0.6299212598425197,"duration":0.24895833333333428},{"name":"G5","midi":79,"time":88.75,"velocity":0.6299212598425197,"duration":0.24895833333333428},{"name":"G5","midi":79,"time":89,"velocity":0.6299212598425197,"duration":0.24895833333333428},{"name":"G5","midi":79,"time":89.25,"velocity":0.6299212598425197,"duration":0.24895833333333428},{"name":"G5","midi":79,"time":89.5,"velocity":0.6299212598425197,"duration":0.24895833333333428},{"name":"G5","midi":79,"time":89.75,"velocity":0.6299212598425197,"duration":0.24895833333333428},{"name":"G5","midi":79,"time":90,"velocity":0.6299212598425197,"duration":0.24895833333333428},{"name":"G5","midi":79,"time":90.25,"velocity":0.6299212598425197,"duration":0.24895833333333428},{"name":"G5","midi":79,"time":90.5,"velocity":0.6299212598425197,"duration":0.24895833333333428},{"name":"G5","midi":79,"time":90.75,"velocity":0.6299212598425197,"duration":0.24895833333333428},{"name":"G5","midi":79,"time":91,"velocity":0.6299212598425197,"duration":0.24895833333333428},{"name":"F5","midi":77,"time":91.25,"velocity":0.6299212598425197,"duration":0.24895833333333428},{"name":"A5","midi":81,"time":91.5,"velocity":0.6299212598425197,"duration":0.24895833333333428},{"name":"G5","midi":79,"time":91.75,"velocity":0.6299212598425197,"duration":0.24895833333333428},{"name":"G5","midi":79,"time":92.25,"velocity":0.6299212598425197,"duration":0.24895833333333428},{"name":"G5","midi":79,"time":92.5,"velocity":0.6299212598425197,"duration":0.24895833333333428},{"name":"G5","midi":79,"time":92.75,"velocity":0.6299212598425197,"duration":0.24895833333333428},{"name":"G5","midi":79,"time":93,"velocity":0.6299212598425197,"duration":0.24895833333333428},{"name":"G5","midi":79,"time":93.25,"velocity":0.6299212598425197,"duration":0.24895833333333428},{"name":"G5","midi":79,"time":93.5,"velocity":0.6299212598425197,"duration":0.24895833333333428},{"name":"G5","midi":79,"time":93.75,"velocity":0.6299212598425197,"duration":0.24895833333333428},{"name":"G5","midi":79,"time":94,"velocity":0.6299212598425197,"duration":0.24895833333333428},{"name":"G5","midi":79,"time":94.25,"velocity":0.6299212598425197,"duration":0.24895833333333428},{"name":"G5","midi":79,"time":94.5,"velocity":0.6299212598425197,"duration":0.24895833333333428},{"name":"G5","midi":79,"time":94.75,"velocity":0.6299212598425197,"duration":0.24895833333333428},{"name":"A5","midi":81,"time":95,"velocity":0.6299212598425197,"duration":0.24895833333333428},{"name":"A5","midi":81,"time":95.25,"velocity":0.6299212598425197,"duration":0.24895833333333428},{"name":"G5","midi":79,"time":95.5,"velocity":0.6299212598425197,"duration":0.24895833333333428},{"name":"F5","midi":77,"time":95.75,"velocity":0.6299212598425197,"duration":0.24895833333333428},{"name":"F5","midi":77,"time":96,"velocity":0.6299212598425197,"duration":0.24895833333333428},{"name":"D5","midi":74,"time":96.25,"velocity":0.6299212598425197,"duration":0.4989583333333343},{"name":"G5","midi":79,"time":96.75,"velocity":0.6299212598425197,"duration":0.24895833333333428},{"name":"E5","midi":76,"time":97,"velocity":0.6299212598425197,"duration":0.9989583333333343},{"name":"C5","midi":72,"time":98,"velocity":0.6299212598425197,"duration":0.12395833333333428},{"name":"C5","midi":72,"time":98.125,"velocity":0.6299212598425197,"duration":0.12395833333333428},{"name":"C5","midi":72,"time":98.25,"velocity":0.6299212598425197,"duration":0.12395833333333428},{"name":"C5","midi":72,"time":98.375,"velocity":0.6299212598425197,"duration":0.24895833333333428},{"name":"C5","midi":72,"time":98.625,"velocity":0.6299212598425197,"duration":0.24895833333333428},{"name":"D5","midi":74,"time":98.875,"velocity":0.6299212598425197,"duration":0.12395833333333428},{"name":"D5","midi":74,"time":99,"velocity":0.6299212598425197,"duration":0.24895833333333428},{"name":"C5","midi":72,"time":99.25,"velocity":0.6299212598425197,"duration":0.24895833333333428},{"name":"C5","midi":72,"time":99.5,"velocity":0.6299212598425197,"duration":0.4989583333333343},{"name":"F5","midi":77,"time":100,"velocity":0.6299212598425197,"duration":0.24895833333333428},{"name":"D5","midi":74,"time":100.25,"velocity":0.6299212598425197,"duration":0.4989583333333343},{"name":"G5","midi":79,"time":100.75,"velocity":0.6299212598425197,"duration":0.24895833333333428},{"name":"E5","midi":76,"time":101,"velocity":0.6299212598425197,"duration":0.7489583333333343},{"name":"C5","midi":72,"time":101.75,"velocity":0.6299212598425197,"duration":0.24895833333333428},{"name":"C5","midi":72,"time":102,"velocity":0.6299212598425197,"duration":0.24895833333333428},{"name":"D5","midi":74,"time":102.25,"velocity":0.6299212598425197,"duration":0.24895833333333428},{"name":"F5","midi":77,"time":102.5,"velocity":0.6299212598425197,"duration":0.24895833333333428},{"name":"G5","midi":79,"time":102.75,"velocity":0.6299212598425197,"duration":0.24895833333333428},{"name":"F5","midi":77,"time":103,"velocity":0.6299212598425197,"duration":0.4989583333333343},{"name":"E5","midi":76,"time":103.5,"velocity":0.6299212598425197,"duration":0.24895833333333428},{"name":"D5","midi":74,"time":103.75,"velocity":0.6299212598425197,"duration":0.24895833333333428},{"name":"F5","midi":77,"time":104,"velocity":0.6299212598425197,"duration":0.24895833333333428},{"name":"D5","midi":74,"time":104.25,"velocity":0.6299212598425197,"duration":0.4989583333333343},{"name":"G5","midi":79,"time":104.75,"velocity":0.6299212598425197,"duration":0.24895833333333428},{"name":"E5","midi":76,"time":105,"velocity":0.6299212598425197,"duration":0.9989583333333343},{"name":"G5","midi":79,"time":106,"velocity":0.6299212598425197,"duration":0.12395833333333428},{"name":"G5","midi":79,"time":106.125,"velocity":0.6299212598425197,"duration":0.12395833333333428},{"name":"G5","midi":79,"time":106.25,"velocity":0.6299212598425197,"duration":0.12395833333333428},{"name":"G5","midi":79,"time":106.375,"velocity":0.6299212598425197,"duration":0.24895833333333428},{"name":"G5","midi":79,"time":106.625,"velocity":0.6299212598425197,"duration":0.24895833333333428},{"name":"A5","midi":81,"time":106.875,"velocity":0.6299212598425197,"duration":0.12395833333333428},{"name":"G5","midi":79,"time":107,"velocity":0.6299212598425197,"duration":0.24895833333333428},{"name":"F5","midi":77,"time":107.25,"velocity":0.6299212598425197,"duration":0.12395833333333428},{"name":"D5","midi":74,"time":107.375,"velocity":0.6299212598425197,"duration":0.12395833333333428},{"name":"F5","midi":77,"time":107.5,"velocity":0.6299212598425197,"duration":0.24895833333333428},{"name":"A5","midi":81,"time":107.75,"velocity":0.6299212598425197,"duration":0.24895833333333428},{"name":"A5","midi":81,"time":108.25,"velocity":0.6299212598425197,"duration":0.24895833333333428},{"name":"F5","midi":77,"time":108.5,"velocity":0.6299212598425197,"duration":0.4989583333333343},{"name":"G5","midi":79,"time":109,"velocity":0.6299212598425197,"duration":0.24895833333333428},{"name":"E5","midi":76,"time":109.25,"velocity":0.6299212598425197,"duration":0.4989583333333343},{"name":"F5","midi":77,"time":109.75,"velocity":0.6299212598425197,"duration":0.24895833333333428},{"name":"D5","midi":74,"time":110,"velocity":0.6299212598425197,"duration":0.7489583333333343},{"name":"A5","midi":81,"time":110.75,"velocity":0.6299212598425197,"duration":0.24895833333333428},{"name":"F5","midi":77,"time":111,"velocity":0.6299212598425197,"duration":0.4989583333333343},{"name":"C4","midi":60,"time":111.625,"velocity":0.6299212598425197,"duration":0.12395833333333428},{"name":"F4","midi":65,"time":111.75,"velocity":0.6299212598425197,"duration":0.12395833333333428},{"name":"G4","midi":67,"time":111.875,"velocity":0.6299212598425197,"duration":0.12395833333333428},{"name":"A4","midi":69,"time":112,"velocity":0.6299212598425197,"duration":0.24895833333333428},{"name":"F4","midi":65,"time":112.25,"velocity":0.6299212598425197,"duration":0.24895833333333428},{"name":"C4","midi":60,"time":112.5,"velocity":0.6299212598425197,"duration":0.24895833333333428},{"name":"G4","midi":67,"time":112.75,"velocity":0.6299212598425197,"duration":0.7489583333333343},{"name":"C4","midi":60,"time":113.625,"velocity":0.6299212598425197,"duration":0.12395833333333428},{"name":"F4","midi":65,"time":113.75,"velocity":0.6299212598425197,"duration":0.24895833333333428},{"name":"E4","midi":64,"time":114,"velocity":0.6299212598425197,"duration":0.24895833333333428},{"name":"C4","midi":60,"time":114.25,"velocity":0.6299212598425197,"duration":0.24895833333333428},{"name":"A3","midi":57,"time":114.5,"velocity":0.6299212598425197,"duration":0.24895833333333428},{"name":"D4","midi":62,"time":114.75,"velocity":0.6299212598425197,"duration":0.7489583333333343},{"name":"C4","midi":60,"time":115.625,"velocity":0.6299212598425197,"duration":0.12395833333333428},{"name":"F4","midi":65,"time":115.75,"velocity":0.6299212598425197,"duration":0.12395833333333428},{"name":"G4","midi":67,"time":115.875,"velocity":0.6299212598425197,"duration":0.12395833333333428},{"name":"A4","midi":69,"time":116,"velocity":0.6299212598425197,"duration":0.24895833333333428},{"name":"F4","midi":65,"time":116.25,"velocity":0.6299212598425197,"duration":0.24895833333333428},{"name":"C4","midi":60,"time":116.5,"velocity":0.6299212598425197,"duration":0.24895833333333428},{"name":"G4","midi":67,"time":116.75,"velocity":0.6299212598425197,"duration":0.7489583333333343},{"name":"F4","midi":65,"time":117.5,"velocity":0.6299212598425197,"duration":0.24895833333333428},{"name":"E4","midi":64,"time":117.75,"velocity":0.6299212598425197,"duration":0.9989583333333343},{"name":"G4","midi":67,"time":118.75,"velocity":0.6299212598425197,"duration":0.7489583333333343},{"name":"C4","midi":60,"time":119.625,"velocity":0.6299212598425197,"duration":0.12395833333333428},{"name":"F4","midi":65,"time":119.75,"velocity":0.6299212598425197,"duration":0.12395833333333428},{"name":"G4","midi":67,"time":119.875,"velocity":0.6299212598425197,"duration":0.12395833333333428},{"name":"A4","midi":69,"time":120,"velocity":0.6299212598425197,"duration":0.24895833333333428},{"name":"F4","midi":65,"time":120.25,"velocity":0.6299212598425197,"duration":0.24895833333333428},{"name":"C4","midi":60,"time":120.5,"velocity":0.6299212598425197,"duration":0.24895833333333428},{"name":"G4","midi":67,"time":120.75,"velocity":0.6299212598425197,"duration":0.7489583333333343},{"name":"C4","midi":60,"time":121.625,"velocity":0.6299212598425197,"duration":0.12395833333333428},{"name":"F4","midi":65,"time":121.75,"velocity":0.6299212598425197,"duration":0.24895833333333428},{"name":"E4","midi":64,"time":122,"velocity":0.6299212598425197,"duration":0.24895833333333428},{"name":"C4","midi":60,"time":122.25,"velocity":0.6299212598425197,"duration":0.24895833333333428},{"name":"A3","midi":57,"time":122.5,"velocity":0.6299212598425197,"duration":0.24895833333333428},{"name":"D4","midi":62,"time":122.75,"velocity":0.6299212598425197,"duration":0.24895833333333428},{"name":"D4","midi":62,"time":123,"velocity":0.6299212598425197,"duration":0.12395833333333428},{"name":"C4","midi":60,"time":123.125,"velocity":0.6299212598425197,"duration":0.12395833333333428},{"name":"A3","midi":57,"time":123.25,"velocity":0.6299212598425197,"duration":0.7489583333333343},{"name":"F4","midi":65,"time":124,"velocity":0.6299212598425197,"duration":0.24895833333333428},{"name":"C4","midi":60,"time":124,"velocity":0.6299212598425197,"duration":0.24895833333333428},{"name":"A#3","midi":58,"time":124,"velocity":0.6299212598425197,"duration":0.24895833333333428},{"name":"F4","midi":65,"time":124.25,"velocity":0.6299212598425197,"duration":0.24895833333333428},{"name":"F4","midi":65,"time":124.5,"velocity":0.6299212598425197,"duration":0.24895833333333428},{"name":"G4","midi":67,"time":124.75,"velocity":0.6299212598425197,"duration":0.7489583333333343},{"name":"D4","midi":62,"time":124.75,"velocity":0.6299212598425197,"duration":0.7489583333333343},{"name":"A#3","midi":58,"time":124.75,"velocity":0.6299212598425197,"duration":0.7489583333333343},{"name":"F4","midi":65,"time":125.5,"velocity":0.6299212598425197,"duration":0.24895833333333428},{"name":"A#3","midi":58,"time":125.5,"velocity":0.6299212598425197,"duration":0.24895833333333428},{"name":"A4","midi":69,"time":125.75,"velocity":0.6299212598425197,"duration":0.24895833333333428},{"name":"D4","midi":62,"time":125.75,"velocity":0.6299212598425197,"duration":0.24895833333333428},{"name":"A#3","midi":58,"time":125.75,"velocity":0.6299212598425197,"duration":0.24895833333333428},{"name":"A4","midi":69,"time":126.75,"velocity":0.6299212598425197,"duration":0.4989583333333343},{"name":"C#4","midi":61,"time":126.75,"velocity":0.6299212598425197,"duration":0.4989583333333343},{"name":"A3","midi":57,"time":126.75,"velocity":0.6299212598425197,"duration":0.4989583333333343},{"name":"F5","midi":77,"time":128,"velocity":0.6299212598425197,"duration":0.24895833333332007},{"name":"D5","midi":74,"time":128.25,"velocity":0.6299212598425197,"duration":0.49895833333332007},{"name":"G5","midi":79,"time":128.75,"velocity":0.6299212598425197,"duration":0.24895833333332007},{"name":"E5","midi":76,"time":129,"velocity":0.6299212598425197,"duration":0.9989583333333201},{"name":"C5","midi":72,"time":130,"velocity":0.6299212598425197,"duration":0.12395833333332007},{"name":"C5","midi":72,"time":130.125,"velocity":0.6299212598425197,"duration":0.12395833333332007},{"name":"C5","midi":72,"time":130.25,"velocity":0.6299212598425197,"duration":0.12395833333332007},{"name":"C5","midi":72,"time":130.375,"velocity":0.6299212598425197,"duration":0.24895833333332007},{"name":"C5","midi":72,"time":130.625,"velocity":0.6299212598425197,"duration":0.24895833333332007},{"name":"D5","midi":74,"time":130.875,"velocity":0.6299212598425197,"duration":0.12395833333332007},{"name":"D5","midi":74,"time":131,"velocity":0.6299212598425197,"duration":0.24895833333332007},{"name":"C5","midi":72,"time":131.25,"velocity":0.6299212598425197,"duration":0.24895833333332007},{"name":"C5","midi":72,"time":131.5,"velocity":0.6299212598425197,"duration":0.49895833333332007},{"name":"F5","midi":77,"time":132,"velocity":0.6299212598425197,"duration":0.24895833333332007},{"name":"D5","midi":74,"time":132.25,"velocity":0.6299212598425197,"duration":0.49895833333332007},{"name":"G5","midi":79,"time":132.75,"velocity":0.6299212598425197,"duration":0.24895833333332007},{"name":"E5","midi":76,"time":133,"velocity":0.6299212598425197,"duration":0.7489583333333201},{"name":"C5","midi":72,"time":133.75,"velocity":0.6299212598425197,"duration":0.24895833333332007},{"name":"C5","midi":72,"time":134,"velocity":0.6299212598425197,"duration":0.24895833333332007},{"name":"D5","midi":74,"time":134.25,"velocity":0.6299212598425197,"duration":0.24895833333332007},{"name":"F5","midi":77,"time":134.5,"velocity":0.6299212598425197,"duration":0.24895833333332007},{"name":"G5","midi":79,"time":134.75,"velocity":0.6299212598425197,"duration":0.24895833333332007},{"name":"F5","midi":77,"time":135,"velocity":0.6299212598425197,"duration":0.49895833333332007},{"name":"E5","midi":76,"time":135.5,"velocity":0.6299212598425197,"duration":0.24895833333332007},{"name":"D5","midi":74,"time":135.75,"velocity":0.6299212598425197,"duration":0.24895833333332007},{"name":"F5","midi":77,"time":136,"velocity":0.6299212598425197,"duration":0.24895833333332007},{"name":"D5","midi":74,"time":136.25,"velocity":0.6299212598425197,"duration":0.49895833333332007},{"name":"G5","midi":79,"time":136.75,"velocity":0.6299212598425197,"duration":0.24895833333332007},{"name":"E5","midi":76,"time":137,"velocity":0.6299212598425197,"duration":0.9989583333333201},{"name":"G5","midi":79,"time":138,"velocity":0.6299212598425197,"duration":0.12395833333332007},{"name":"G5","midi":79,"time":138.125,"velocity":0.6299212598425197,"duration":0.12395833333332007},{"name":"G5","midi":79,"time":138.25,"velocity":0.6299212598425197,"duration":0.12395833333332007},{"name":"G5","midi":79,"time":138.375,"velocity":0.6299212598425197,"duration":0.24895833333332007},{"name":"G5","midi":79,"time":138.625,"velocity":0.6299212598425197,"duration":0.24895833333332007},{"name":"A5","midi":81,"time":138.875,"velocity":0.6299212598425197,"duration":0.12395833333332007},{"name":"G5","midi":79,"time":139,"velocity":0.6299212598425197,"duration":0.24895833333332007},{"name":"F5","midi":77,"time":139.25,"velocity":0.6299212598425197,"duration":0.12395833333332007},{"name":"D5","midi":74,"time":139.375,"velocity":0.6299212598425197,"duration":0.12395833333332007},{"name":"F5","midi":77,"time":139.5,"velocity":0.6299212598425197,"duration":0.24895833333332007},{"name":"A5","midi":81,"time":139.75,"velocity":0.6299212598425197,"duration":0.24895833333332007},{"name":"A5","midi":81,"time":140.25,"velocity":0.6299212598425197,"duration":0.24895833333332007},{"name":"F5","midi":77,"time":140.5,"velocity":0.6299212598425197,"duration":0.49895833333332007},{"name":"G5","midi":79,"time":141,"velocity":0.6299212598425197,"duration":0.24895833333332007},{"name":"E5","midi":76,"time":141.25,"velocity":0.6299212598425197,"duration":0.49895833333332007},{"name":"F5","midi":77,"time":141.75,"velocity":0.6299212598425197,"duration":0.24895833333332007},{"name":"D5","midi":74,"time":142,"velocity":0.6299212598425197,"duration":0.7489583333333201},{"name":"A4","midi":69,"time":142.75,"velocity":0.6299212598425197,"duration":0.24895833333332007},{"name":"F5","midi":77,"time":143,"velocity":0.6299212598425197,"duration":0.24895833333332007},{"name":"E5","midi":76,"time":143.25,"velocity":0.6299212598425197,"duration":0.12395833333332007},{"name":"D5","midi":74,"time":143.375,"velocity":0.6299212598425197,"duration":0.24895833333332007},{"name":"C5","midi":72,"time":143.625,"velocity":0.6299212598425197,"duration":0.12395833333332007},{"name":"A4","midi":69,"time":143.75,"velocity":0.6299212598425197,"duration":0.24895833333332007},{"name":"F5","midi":77,"time":144,"velocity":0.6299212598425197,"duration":0.24895833333332007},{"name":"D5","midi":74,"time":144.25,"velocity":0.6299212598425197,"duration":0.49895833333332007},{"name":"G5","midi":79,"time":144.75,"velocity":0.6299212598425197,"duration":0.24895833333332007},{"name":"E5","midi":76,"time":145,"velocity":0.6299212598425197,"duration":0.9989583333333201},{"name":"F#4","midi":66,"time":148.5,"velocity":0.6299212598425197,"duration":0.49895833333332007},{"name":"D4","midi":62,"time":148.5,"velocity":0.6299212598425197,"duration":0.49895833333332007},{"name":"B3","midi":59,"time":148.5,"velocity":0.6299212598425197,"duration":0.49895833333332007},{"name":"A4","midi":69,"time":149,"velocity":0.6299212598425197,"duration":0.49895833333332007},{"name":"F#4","midi":66,"time":149,"velocity":0.6299212598425197,"duration":0.49895833333332007},{"name":"D4","midi":62,"time":149,"velocity":0.6299212598425197,"duration":0.49895833333332007},{"name":"E4","midi":64,"time":150,"velocity":0.6299212598425197,"duration":0.49895833333332007},{"name":"C4","midi":60,"time":150,"velocity":0.6299212598425197,"duration":0.49895833333332007},{"name":"D6","midi":86,"time":150.5,"velocity":0.6299212598425197,"duration":0.49895833333332007},{"name":"D5","midi":74,"time":150.5,"velocity":0.6299212598425197,"duration":0.49895833333332007},{"name":"F#4","midi":66,"time":151.5,"velocity":0.6299212598425197,"duration":0.49895833333332007},{"name":"D4","midi":62,"time":151.5,"velocity":0.6299212598425197,"duration":0.49895833333332007},{"name":"B3","midi":59,"time":151.5,"velocity":0.6299212598425197,"duration":0.49895833333332007},{"name":"A4","midi":69,"time":152,"velocity":0.6299212598425197,"duration":0.49895833333332007},{"name":"F#4","midi":66,"time":152,"velocity":0.6299212598425197,"duration":0.49895833333332007},{"name":"D4","midi":62,"time":152,"velocity":0.6299212598425197,"duration":0.49895833333332007},{"name":"E4","midi":64,"time":153,"velocity":0.6299212598425197,"duration":0.49895833333332007},{"name":"C4","midi":60,"time":153,"velocity":0.6299212598425197,"duration":0.49895833333332007},{"name":"D6","midi":86,"time":153.5,"velocity":0.6299212598425197,"duration":0.49895833333332007},{"name":"D5","midi":74,"time":153.5,"velocity":0.6299212598425197,"duration":0.49895833333332007},{"name":"A4","midi":69,"time":154.25,"velocity":0.6299212598425197,"duration":0.24895833333332007},{"name":"C5","midi":72,"time":154.5,"velocity":0.6299212598425197,"duration":0.24895833333332007},{"name":"B4","midi":71,"time":154.75,"velocity":0.6299212598425197,"duration":0.24895833333332007},{"name":"A4","midi":69,"time":155,"velocity":0.6299212598425197,"duration":0.24895833333332007},{"name":"G4","midi":67,"time":155.25,"velocity":0.6299212598425197,"duration":0.24895833333332007},{"name":"F#4","midi":66,"time":155.5,"velocity":0.6299212598425197,"duration":0.24895833333332007},{"name":"G4","midi":67,"time":155.75,"velocity":0.6299212598425197,"duration":0.24895833333332007},{"name":"A4","midi":69,"time":156,"velocity":0.6299212598425197,"duration":0.24895833333332007},{"name":"B4","midi":71,"time":156.25,"velocity":0.6299212598425197,"duration":0.24895833333332007},{"name":"D4","midi":62,"time":156.5,"velocity":0.6299212598425197,"duration":0.49895833333332007},{"name":"C#4","midi":61,"time":157,"velocity":0.6299212598425197,"duration":0.24895833333332007},{"name":"D4","midi":62,"time":157.25,"velocity":0.6299212598425197,"duration":0.24895833333332007},{"name":"E4","midi":64,"time":157.5,"velocity":0.6299212598425197,"duration":0.24895833333332007},{"name":"F#4","midi":66,"time":157.75,"velocity":0.6299212598425197,"duration":0.24895833333332007},{"name":"G4","midi":67,"time":158,"velocity":0.6299212598425197,"duration":0.24895833333332007},{"name":"A4","midi":69,"time":158.25,"velocity":0.6299212598425197,"duration":0.24895833333332007},{"name":"B4","midi":71,"time":158.5,"velocity":0.6299212598425197,"duration":0.49895833333332007},{"name":"G4","midi":67,"time":158.5,"velocity":0.6299212598425197,"duration":0.49895833333332007},{"name":"E4","midi":64,"time":158.5,"velocity":0.6299212598425197,"duration":0.49895833333332007},{"name":"D5","midi":74,"time":159,"velocity":0.6299212598425197,"duration":0.49895833333332007},{"name":"A#4","midi":70,"time":159.5,"velocity":0.6299212598425197,"duration":0.49895833333332007},{"name":"F#4","midi":66,"time":159.5,"velocity":0.6299212598425197,"duration":0.49895833333332007},{"name":"D4","midi":62,"time":159.5,"velocity":0.6299212598425197,"duration":0.49895833333332007},{"name":"F#4","midi":66,"time":160.5,"velocity":0.6299212598425197,"duration":0.49895833333332007},{"name":"D4","midi":62,"time":160.5,"velocity":0.6299212598425197,"duration":0.49895833333332007},{"name":"B3","midi":59,"time":160.5,"velocity":0.6299212598425197,"duration":0.49895833333332007},{"name":"A4","midi":69,"time":161,"velocity":0.6299212598425197,"duration":0.49895833333332007},{"name":"F#4","midi":66,"time":161,"velocity":0.6299212598425197,"duration":0.49895833333332007},{"name":"D4","midi":62,"time":161,"velocity":0.6299212598425197,"duration":0.49895833333332007},{"name":"E4","midi":64,"time":162,"velocity":0.6299212598425197,"duration":0.49895833333332007},{"name":"C4","midi":60,"time":162,"velocity":0.6299212598425197,"duration":0.49895833333332007},{"name":"D6","midi":86,"time":162.5,"velocity":0.6299212598425197,"duration":0.49895833333332007},{"name":"D5","midi":74,"time":162.5,"velocity":0.6299212598425197,"duration":0.49895833333332007},{"name":"F#4","midi":66,"time":163.5,"velocity":0.6299212598425197,"duration":0.49895833333332007},{"name":"D4","midi":62,"time":163.5,"velocity":0.6299212598425197,"duration":0.49895833333332007},{"name":"B3","midi":59,"time":163.5,"velocity":0.6299212598425197,"duration":0.49895833333332007},{"name":"A4","midi":69,"time":164,"velocity":0.6299212598425197,"duration":0.49895833333332007},{"name":"F#4","midi":66,"time":164,"velocity":0.6299212598425197,"duration":0.49895833333332007},{"name":"D4","midi":62,"time":164,"velocity":0.6299212598425197,"duration":0.49895833333332007},{"name":"E4","midi":64,"time":165,"velocity":0.6299212598425197,"duration":0.49895833333332007},{"name":"C4","midi":60,"time":165,"velocity":0.6299212598425197,"duration":0.49895833333332007},{"name":"D6","midi":86,"time":165.5,"velocity":0.6299212598425197,"duration":0.49895833333332007},{"name":"D5","midi":74,"time":165.5,"velocity":0.6299212598425197,"duration":0.49895833333332007},{"name":"A4","midi":69,"time":166.25,"velocity":0.6299212598425197,"duration":0.24895833333332007},{"name":"C5","midi":72,"time":166.5,"velocity":0.6299212598425197,"duration":0.24895833333332007},{"name":"B4","midi":71,"time":166.75,"velocity":0.6299212598425197,"duration":0.24895833333332007},{"name":"A4","midi":69,"time":167,"velocity":0.6299212598425197,"duration":0.24895833333332007},{"name":"G4","midi":67,"time":167.25,"velocity":0.6299212598425197,"duration":0.24895833333332007},{"name":"F#4","midi":66,"time":167.5,"velocity":0.6299212598425197,"duration":0.24895833333332007},{"name":"G4","midi":67,"time":167.75,"velocity":0.6299212598425197,"duration":0.24895833333332007},{"name":"A4","midi":69,"time":168,"velocity":0.6299212598425197,"duration":0.24895833333332007},{"name":"B4","midi":71,"time":168.25,"velocity":0.6299212598425197,"duration":0.24895833333332007},{"name":"D4","midi":62,"time":168.5,"velocity":0.6299212598425197,"duration":0.49895833333332007},{"name":"C4","midi":60,"time":169,"velocity":0.6299212598425197,"duration":0.24895833333332007},{"name":"B4","midi":71,"time":169.25,"velocity":0.6299212598425197,"duration":0.24895833333332007},{"name":"A4","midi":69,"time":169.5,"velocity":0.6299212598425197,"duration":0.49895833333332007},{"name":"F#4","midi":66,"time":170,"velocity":0.6299212598425197,"duration":0.49895833333332007},{"name":"A3","midi":57,"time":170,"velocity":0.6299212598425197,"duration":0.49895833333332007},{"name":"G4","midi":67,"time":170.5,"velocity":0.6299212598425197,"duration":1.49895833333332},{"name":"B3","midi":59,"time":170.5,"velocity":0.6299212598425197,"duration":1.49895833333332},{"name":"G3","midi":55,"time":170.5,"velocity":0.6299212598425197,"duration":1.49895833333332},{"name":"C4","midi":60,"time":172,"velocity":0.6299212598425197,"duration":0.24895833333332007},{"name":"B4","midi":71,"time":172.25,"velocity":0.6299212598425197,"duration":0.24895833333332007},{"name":"A4","midi":69,"time":172.5,"velocity":0.6299212598425197,"duration":0.49895833333332007},{"name":"F#4","midi":66,"time":173,"velocity":0.6299212598425197,"duration":0.49895833333332007},{"name":"A3","midi":57,"time":173,"velocity":0.6299212598425197,"duration":0.49895833333332007},{"name":"G4","midi":67,"time":173.5,"velocity":0.6299212598425197,"duration":1.49895833333332},{"name":"B3","midi":59,"time":173.5,"velocity":0.6299212598425197,"duration":1.49895833333332},{"name":"G3","midi":55,"time":173.5,"velocity":0.6299212598425197,"duration":1.49895833333332}]},{"instrument_number":-1,"notes":[{"name":"G3","midi":55,"time":0,"velocity":0.6299212598425197,"duration":0.49895833333333334},{"name":"F#4","midi":66,"time":0.5,"velocity":0.6299212598425197,"duration":0.4989583333333334},{"name":"D4","midi":62,"time":0.5,"velocity":0.6299212598425197,"duration":0.4989583333333334},{"name":"F#4","midi":66,"time":1,"velocity":0.6299212598425197,"duration":0.4989583333333334},{"name":"D4","midi":62,"time":1,"velocity":0.6299212598425197,"duration":0.4989583333333334},{"name":"G3","midi":55,"time":1.5,"velocity":0.6299212598425197,"duration":0.4989583333333334},{"name":"E4","midi":64,"time":2,"velocity":0.6299212598425197,"duration":0.4989583333333334},{"name":"C4","midi":60,"time":2,"velocity":0.6299212598425197,"duration":0.4989583333333334},{"name":"E4","midi":64,"time":2.5,"velocity":0.6299212598425197,"duration":0.4989583333333334},{"name":"C4","midi":60,"time":2.5,"velocity":0.6299212598425197,"duration":0.4989583333333334},{"name":"G3","midi":55,"time":3,"velocity":0.6299212598425197,"duration":0.4989583333333334},{"name":"F#4","midi":66,"time":3.5,"velocity":0.6299212598425197,"duration":0.4989583333333334},{"name":"D4","midi":62,"time":3.5,"velocity":0.6299212598425197,"duration":0.4989583333333334},{"name":"F#4","midi":66,"time":4,"velocity":0.6299212598425197,"duration":0.4989583333333334},{"name":"D4","midi":62,"time":4,"velocity":0.6299212598425197,"duration":0.4989583333333334},{"name":"G3","midi":55,"time":4.5,"velocity":0.6299212598425197,"duration":0.4989583333333334},{"name":"E4","midi":64,"time":5,"velocity":0.6299212598425197,"duration":0.4989583333333334},{"name":"C4","midi":60,"time":5,"velocity":0.6299212598425197,"duration":0.4989583333333334},{"name":"E4","midi":64,"time":5.5,"velocity":0.6299212598425197,"duration":0.4989583333333334},{"name":"C4","midi":60,"time":5.5,"velocity":0.6299212598425197,"duration":0.4989583333333334},{"name":"F2","midi":41,"time":6,"velocity":0.6299212598425197,"duration":0.4989583333333334},{"name":"C4","midi":60,"time":6.5,"velocity":0.6299212598425197,"duration":0.4989583333333334},{"name":"A3","midi":57,"time":7,"velocity":0.6299212598425197,"duration":0.4989583333333334},{"name":"C3","midi":48,"time":7.5,"velocity":0.6299212598425197,"duration":0.4989583333333334},{"name":"G3","midi":55,"time":8,"velocity":0.6299212598425197,"duration":0.4989583333333325},{"name":"B2","midi":47,"time":8.5,"velocity":0.6299212598425197,"duration":0.4989583333333325},{"name":"A#2","midi":46,"time":9,"velocity":0.6299212598425197,"duration":0.4989583333333325},{"name":"G3","midi":55,"time":9.5,"velocity":0.6299212598425197,"duration":0.4989583333333325},{"name":"E4","midi":64,"time":10,"velocity":0.6299212598425197,"duration":0.4989583333333325},{"name":"C4","midi":60,"time":10,"velocity":0.6299212598425197,"duration":0.4989583333333325},{"name":"A2","midi":45,"time":10.5,"velocity":0.6299212598425197,"duration":0.2489583333333325},{"name":"E3","midi":52,"time":10.75,"velocity":0.6299212598425197,"duration":0.2489583333333325},{"name":"B3","midi":59,"time":11,"velocity":0.6299212598425197,"duration":0.2489583333333325},{"name":"D4","midi":62,"time":11.25,"velocity":0.6299212598425197,"duration":0.2489583333333325},{"name":"A#3","midi":58,"time":11.5,"velocity":0.6299212598425197,"duration":0.4989583333333325},{"name":"G3","midi":55,"time":12,"velocity":0.6299212598425197,"duration":0.4989583333333325},{"name":"F#4","midi":66,"time":12.5,"velocity":0.6299212598425197,"duration":0.4989583333333325},{"name":"D4","midi":62,"time":12.5,"velocity":0.6299212598425197,"duration":0.4989583333333325},{"name":"F#4","midi":66,"time":13,"velocity":0.6299212598425197,"duration":0.4989583333333325},{"name":"D4","midi":62,"time":13,"velocity":0.6299212598425197,"duration":0.4989583333333325},{"name":"G3","midi":55,"time":13.5,"velocity":0.6299212598425197,"duration":0.4989583333333325},{"name":"C4","midi":60,"time":14,"velocity":0.6299212598425197,"duration":0.7489583333333325},{"name":"E4","midi":64,"time":14.0625,"velocity":0.6299212598425197,"duration":0.7489583333333325},{"name":"E4","midi":64,"time":14.75,"velocity":0.6299212598425197,"duration":0.2489583333333325},{"name":"C4","midi":60,"time":14.75,"velocity":0.6299212598425197,"duration":0.2489583333333325},{"name":"G2","midi":43,"time":15,"velocity":0.6299212598425197,"duration":0.2489583333333325},{"name":"D3","midi":50,"time":15.25,"velocity":0.6299212598425197,"duration":0.2489583333333325},{"name":"G3","midi":55,"time":15.5,"velocity":0.6299212598425197,"duration":0.2489583333333325},{"name":"A3","midi":57,"time":15.75,"velocity":0.6299212598425197,"duration":0.2489583333333325},{"name":"B3","midi":59,"time":16,"velocity":0.6299212598425197,"duration":0.24895833333333428},{"name":"D4","midi":62,"time":16.25,"velocity":0.6299212598425197,"duration":0.24895833333333428},{"name":"B3","midi":59,"time":16.5,"velocity":0.6299212598425197,"duration":1.4989583333333343},{"name":"G3","midi":55,"time":16.5,"velocity":0.6299212598425197,"duration":1.4989583333333343},{"name":"F4","midi":65,"time":18,"velocity":0.6299212598425197,"duration":0.24895833333333428},{"name":"F4","midi":65,"time":18.25,"velocity":0.6299212598425197,"duration":0.24895833333333428},{"name":"F4","midi":65,"time":18.5,"velocity":0.6299212598425197,"duration":0.24895833333333428},{"name":"F4","midi":65,"time":18.75,"velocity":0.6299212598425197,"duration":0.24895833333333428},{"name":"F4","midi":65,"time":19,"velocity":0.6299212598425197,"duration":0.24895833333333428},{"name":"F4","midi":65,"time":19.25,"velocity":0.6299212598425197,"duration":0.24895833333333428},{"name":"F4","midi":65,"time":19.5,"velocity":0.6299212598425197,"duration":0.24895833333333428},{"name":"F4","midi":65,"time":19.75,"velocity":0.6299212598425197,"duration":0.24895833333333428},{"name":"F4","midi":65,"time":20,"velocity":0.6299212598425197,"duration":0.24895833333333428},{"name":"F4","midi":65,"time":20.25,"velocity":0.6299212598425197,"duration":0.24895833333333428},{"name":"F4","midi":65,"time":20.5,"velocity":0.6299212598425197,"duration":0.24895833333333428},{"name":"G4","midi":67,"time":20.75,"velocity":0.6299212598425197,"duration":0.24895833333333428},{"name":"G4","midi":67,"time":21,"velocity":0.6299212598425197,"duration":0.24895833333333428},{"name":"G4","midi":67,"time":21.25,"velocity":0.6299212598425197,"duration":0.24895833333333428},{"name":"G4","midi":67,"time":21.5,"velocity":0.6299212598425197,"duration":0.24895833333333428},{"name":"G4","midi":67,"time":21.75,"velocity":0.6299212598425197,"duration":0.24895833333333428},{"name":"E4","midi":64,"time":22,"velocity":0.6299212598425197,"duration":0.24895833333333428},{"name":"E4","midi":64,"time":22.25,"velocity":0.6299212598425197,"duration":0.24895833333333428},{"name":"E4","midi":64,"time":22.5,"velocity":0.6299212598425197,"duration":0.24895833333333428},{"name":"F4","midi":65,"time":22.75,"velocity":0.6299212598425197,"duration":0.24895833333333428},{"name":"F4","midi":65,"time":23,"velocity":0.6299212598425197,"duration":0.24895833333333428},{"name":"F4","midi":65,"time":23.25,"velocity":0.6299212598425197,"duration":0.24895833333333428},{"name":"F4","midi":65,"time":23.5,"velocity":0.6299212598425197,"duration":0.24895833333333428},{"name":"F4","midi":65,"time":23.75,"velocity":0.6299212598425197,"duration":0.24895833333333428},{"name":"F4","midi":65,"time":24,"velocity":0.6299212598425197,"duration":0.24895833333333428},{"name":"F4","midi":65,"time":24.25,"velocity":0.6299212598425197,"duration":0.24895833333333428},{"name":"F4","midi":65,"time":24.5,"velocity":0.6299212598425197,"duration":0.24895833333333428},{"name":"G4","midi":67,"time":24.75,"velocity":0.6299212598425197,"duration":0.24895833333333428},{"name":"G4","midi":67,"time":25,"velocity":0.6299212598425197,"duration":0.24895833333333428},{"name":"G4","midi":67,"time":25.25,"velocity":0.6299212598425197,"duration":0.24895833333333428},{"name":"G4","midi":67,"time":25.5,"velocity":0.6299212598425197,"duration":0.24895833333333428},{"name":"G4","midi":67,"time":25.75,"velocity":0.6299212598425197,"duration":0.24895833333333428},{"name":"E4","midi":64,"time":26,"velocity":0.6299212598425197,"duration":0.24895833333333428},{"name":"E4","midi":64,"time":26.25,"velocity":0.6299212598425197,"duration":0.24895833333333428},{"name":"E4","midi":64,"time":26.5,"velocity":0.6299212598425197,"duration":0.24895833333333428},{"name":"F4","midi":65,"time":26.75,"velocity":0.6299212598425197,"duration":0.24895833333333428},{"name":"F4","midi":65,"time":27,"velocity":0.6299212598425197,"duration":0.24895833333333428},{"name":"F4","midi":65,"time":27.25,"velocity":0.6299212598425197,"duration":0.24895833333333428},{"name":"F4","midi":65,"time":27.5,"velocity":0.6299212598425197,"duration":0.24895833333333428},{"name":"F4","midi":65,"time":27.75,"velocity":0.6299212598425197,"duration":0.24895833333333428},{"name":"F4","midi":65,"time":28,"velocity":0.6299212598425197,"duration":0.24895833333333428},{"name":"F4","midi":65,"time":28.25,"velocity":0.6299212598425197,"duration":0.24895833333333428},{"name":"F4","midi":65,"time":28.5,"velocity":0.6299212598425197,"duration":0.24895833333333428},{"name":"G4","midi":67,"time":28.75,"velocity":0.6299212598425197,"duration":0.24895833333333428},{"name":"G4","midi":67,"time":29,"velocity":0.6299212598425197,"duration":0.24895833333333428},{"name":"G4","midi":67,"time":29.25,"velocity":0.6299212598425197,"duration":0.24895833333333428},{"name":"G4","midi":67,"time":29.5,"velocity":0.6299212598425197,"duration":0.24895833333333428},{"name":"G4","midi":67,"time":29.75,"velocity":0.6299212598425197,"duration":0.24895833333333428},{"name":"E4","midi":64,"time":30,"velocity":0.6299212598425197,"duration":0.24895833333333428},{"name":"E4","midi":64,"time":30.25,"velocity":0.6299212598425197,"duration":0.24895833333333428},{"name":"E4","midi":64,"time":30.5,"velocity":0.6299212598425197,"duration":0.24895833333333428},{"name":"F4","midi":65,"time":30.75,"velocity":0.6299212598425197,"duration":0.24895833333333428},{"name":"F4","midi":65,"time":31,"velocity":0.6299212598425197,"duration":0.24895833333333428},{"name":"F4","midi":65,"time":31.25,"velocity":0.6299212598425197,"duration":0.24895833333333428},{"name":"F4","midi":65,"time":31.5,"velocity":0.6299212598425197,"duration":0.24895833333333428},{"name":"F4","midi":65,"time":31.75,"velocity":0.6299212598425197,"duration":0.24895833333333428},{"name":"F4","midi":65,"time":32,"velocity":0.6299212598425197,"duration":0.24895833333333428},{"name":"F4","midi":65,"time":32.25,"velocity":0.6299212598425197,"duration":0.24895833333333428},{"name":"F4","midi":65,"time":32.5,"velocity":0.6299212598425197,"duration":0.24895833333333428},{"name":"G4","midi":67,"time":32.75,"velocity":0.6299212598425197,"duration":0.24895833333333428},{"name":"G4","midi":67,"time":33,"velocity":0.6299212598425197,"duration":0.24895833333333428},{"name":"G4","midi":67,"time":33.25,"velocity":0.6299212598425197,"duration":0.24895833333333428},{"name":"G4","midi":67,"time":33.5,"velocity":0.6299212598425197,"duration":0.24895833333333428},{"name":"G4","midi":67,"time":33.75,"velocity":0.6299212598425197,"duration":0.24895833333333428},{"name":"E4","midi":64,"time":34,"velocity":0.6299212598425197,"duration":0.24895833333333428},{"name":"E4","midi":64,"time":34.25,"velocity":0.6299212598425197,"duration":0.24895833333333428},{"name":"E4","midi":64,"time":34.5,"velocity":0.6299212598425197,"duration":0.24895833333333428},{"name":"F4","midi":65,"time":34.75,"velocity":0.6299212598425197,"duration":0.24895833333333428},{"name":"F4","midi":65,"time":35,"velocity":0.6299212598425197,"duration":0.24895833333333428},{"name":"F4","midi":65,"time":35.25,"velocity":0.6299212598425197,"duration":0.24895833333333428},{"name":"F4","midi":65,"time":35.5,"velocity":0.6299212598425197,"duration":0.24895833333333428},{"name":"F4","midi":65,"time":35.75,"velocity":0.6299212598425197,"duration":0.24895833333333428},{"name":"F4","midi":65,"time":36,"velocity":0.6299212598425197,"duration":0.24895833333333428},{"name":"F4","midi":65,"time":36.25,"velocity":0.6299212598425197,"duration":0.24895833333333428},{"name":"F4","midi":65,"time":36.5,"velocity":0.6299212598425197,"duration":0.24895833333333428},{"name":"G4","midi":67,"time":36.75,"velocity":0.6299212598425197,"duration":0.24895833333333428},{"name":"G4","midi":67,"time":37,"velocity":0.6299212598425197,"duration":0.24895833333333428},{"name":"G4","midi":67,"time":37.25,"velocity":0.6299212598425197,"duration":0.24895833333333428},{"name":"G4","midi":67,"time":37.5,"velocity":0.6299212598425197,"duration":0.24895833333333428},{"name":"G4","midi":67,"time":37.75,"velocity":0.6299212598425197,"duration":0.24895833333333428},{"name":"E4","midi":64,"time":38,"velocity":0.6299212598425197,"duration":0.24895833333333428},{"name":"E4","midi":64,"time":38.25,"velocity":0.6299212598425197,"duration":0.24895833333333428},{"name":"E4","midi":64,"time":38.5,"velocity":0.6299212598425197,"duration":0.24895833333333428},{"name":"F4","midi":65,"time":38.75,"velocity":0.6299212598425197,"duration":0.24895833333333428},{"name":"F4","midi":65,"time":39,"velocity":0.6299212598425197,"duration":0.24895833333333428},{"name":"F4","midi":65,"time":39.25,"velocity":0.6299212598425197,"duration":0.24895833333333428},{"name":"F4","midi":65,"time":39.5,"velocity":0.6299212598425197,"duration":0.24895833333333428},{"name":"F4","midi":65,"time":39.75,"velocity":0.6299212598425197,"duration":0.24895833333333428},{"name":"F4","midi":65,"time":40,"velocity":0.6299212598425197,"duration":0.24895833333333428},{"name":"F4","midi":65,"time":40.25,"velocity":0.6299212598425197,"duration":0.24895833333333428},{"name":"F4","midi":65,"time":40.5,"velocity":0.6299212598425197,"duration":0.24895833333333428},{"name":"G4","midi":67,"time":40.75,"velocity":0.6299212598425197,"duration":0.24895833333333428},{"name":"G4","midi":67,"time":41,"velocity":0.6299212598425197,"duration":0.24895833333333428},{"name":"G4","midi":67,"time":41.25,"velocity":0.6299212598425197,"duration":0.24895833333333428},{"name":"G4","midi":67,"time":41.5,"velocity":0.6299212598425197,"duration":0.24895833333333428},{"name":"G4","midi":67,"time":41.75,"velocity":0.6299212598425197,"duration":0.24895833333333428},{"name":"E4","midi":64,"time":42,"velocity":0.6299212598425197,"duration":0.24895833333333428},{"name":"E4","midi":64,"time":42.25,"velocity":0.6299212598425197,"duration":0.24895833333333428},{"name":"E4","midi":64,"time":42.5,"velocity":0.6299212598425197,"duration":0.24895833333333428},{"name":"F4","midi":65,"time":42.75,"velocity":0.6299212598425197,"duration":0.24895833333333428},{"name":"F4","midi":65,"time":43,"velocity":0.6299212598425197,"duration":0.24895833333333428},{"name":"F4","midi":65,"time":43.25,"velocity":0.6299212598425197,"duration":0.24895833333333428},{"name":"F4","midi":65,"time":43.5,"velocity":0.6299212598425197,"duration":0.24895833333333428},{"name":"F4","midi":65,"time":43.75,"velocity":0.6299212598425197,"duration":0.24895833333333428},{"name":"F4","midi":65,"time":44,"velocity":0.6299212598425197,"duration":0.24895833333333428},{"name":"D4","midi":62,"time":44,"velocity":0.6299212598425197,"duration":0.24895833333333428},{"name":"A#3","midi":58,"time":44,"velocity":0.6299212598425197,"duration":0.24895833333333428},{"name":"F4","midi":65,"time":44.25,"velocity":0.6299212598425197,"duration":0.24895833333333428},{"name":"F4","midi":65,"time":44.5,"velocity":0.6299212598425197,"duration":0.24895833333333428},{"name":"G4","midi":67,"time":44.75,"velocity":0.6299212598425197,"duration":0.24895833333333428},{"name":"E4","midi":64,"time":44.75,"velocity":0.6299212598425197,"duration":0.24895833333333428},{"name":"C4","midi":60,"time":44.75,"velocity":0.6299212598425197,"duration":0.24895833333333428},{"name":"G4","midi":67,"time":45,"velocity":0.6299212598425197,"duration":0.24895833333333428},{"name":"G4","midi":67,"time":45.25,"velocity":0.6299212598425197,"duration":0.24895833333333428},{"name":"G4","midi":67,"time":45.5,"velocity":0.6299212598425197,"duration":0.24895833333333428},{"name":"G4","midi":67,"time":45.75,"velocity":0.6299212598425197,"duration":0.24895833333333428},{"name":"E4","midi":64,"time":46,"velocity":0.6299212598425197,"duration":0.24895833333333428},{"name":"C4","midi":60,"time":46,"velocity":0.6299212598425197,"duration":0.24895833333333428},{"name":"A3","midi":57,"time":46,"velocity":0.6299212598425197,"duration":0.24895833333333428},{"name":"E4","midi":64,"time":46.25,"velocity":0.6299212598425197,"duration":0.24895833333333428},{"name":"E4","midi":64,"time":46.5,"velocity":0.6299212598425197,"duration":0.24895833333333428},{"name":"F4","midi":65,"time":46.75,"velocity":0.6299212598425197,"duration":0.24895833333333428},{"name":"D4","midi":62,"time":46.75,"velocity":0.6299212598425197,"duration":0.24895833333333428},{"name":"A#3","midi":58,"time":46.75,"velocity":0.6299212598425197,"duration":0.24895833333333428},{"name":"F4","midi":65,"time":47,"velocity":0.6299212598425197,"duration":0.24895833333333428},{"name":"F4","midi":65,"time":47.25,"velocity":0.6299212598425197,"duration":0.24895833333333428},{"name":"F4","midi":65,"time":47.5,"velocity":0.6299212598425197,"duration":0.24895833333333428},{"name":"F4","midi":65,"time":47.75,"velocity":0.6299212598425197,"duration":0.24895833333333428},{"name":"F4","midi":65,"time":48,"velocity":0.6299212598425197,"duration":0.24895833333333428},{"name":"D4","midi":62,"time":48,"velocity":0.6299212598425197,"duration":0.24895833333333428},{"name":"A#3","midi":58,"time":48,"velocity":0.6299212598425197,"duration":0.24895833333333428},{"name":"F4","midi":65,"time":48.25,"velocity":0.6299212598425197,"duration":0.24895833333333428},{"name":"F4","midi":65,"time":48.5,"velocity":0.6299212598425197,"duration":0.24895833333333428},{"name":"G4","midi":67,"time":48.75,"velocity":0.6299212598425197,"duration":0.24895833333333428},{"name":"E4","midi":64,"time":48.75,"velocity":0.6299212598425197,"duration":0.24895833333333428},{"name":"C4","midi":60,"time":48.75,"velocity":0.6299212598425197,"duration":0.24895833333333428},{"name":"G4","midi":67,"time":49,"velocity":0.6299212598425197,"duration":0.24895833333333428},{"name":"G4","midi":67,"time":49.25,"velocity":0.6299212598425197,"duration":0.24895833333333428},{"name":"G4","midi":67,"time":49.5,"velocity":0.6299212598425197,"duration":0.24895833333333428},{"name":"G4","midi":67,"time":49.75,"velocity":0.6299212598425197,"duration":0.24895833333333428},{"name":"E4","midi":64,"time":50,"velocity":0.6299212598425197,"duration":0.24895833333333428},{"name":"C4","midi":60,"time":50,"velocity":0.6299212598425197,"duration":0.24895833333333428},{"name":"A3","midi":57,"time":50,"velocity":0.6299212598425197,"duration":0.24895833333333428},{"name":"E4","midi":64,"time":50.25,"velocity":0.6299212598425197,"duration":0.24895833333333428},{"name":"E4","midi":64,"time":50.5,"velocity":0.6299212598425197,"duration":0.24895833333333428},{"name":"F4","midi":65,"time":50.75,"velocity":0.6299212598425197,"duration":0.24895833333333428},{"name":"D4","midi":62,"time":50.75,"velocity":0.6299212598425197,"duration":0.24895833333333428},{"name":"A#3","midi":58,"time":50.75,"velocity":0.6299212598425197,"duration":0.24895833333333428},{"name":"F4","midi":65,"time":51,"velocity":0.6299212598425197,"duration":0.24895833333333428},{"name":"F4","midi":65,"time":51.25,"velocity":0.6299212598425197,"duration":0.24895833333333428},{"name":"F4","midi":65,"time":51.5,"velocity":0.6299212598425197,"duration":0.24895833333333428},{"name":"F4","midi":65,"time":51.75,"velocity":0.6299212598425197,"duration":0.24895833333333428},{"name":"F3","midi":53,"time":52,"velocity":0.6299212598425197,"duration":0.24895833333333428},{"name":"D3","midi":50,"time":52,"velocity":0.6299212598425197,"duration":0.24895833333333428},{"name":"A#2","midi":46,"time":52,"velocity":0.6299212598425197,"duration":0.24895833333333428},{"name":"F3","midi":53,"time":52.25,"velocity":0.6299212598425197,"duration":0.24895833333333428},{"name":"F3","midi":53,"time":52.5,"velocity":0.6299212598425197,"duration":0.24895833333333428},{"name":"G3","midi":55,"time":52.75,"velocity":0.6299212598425197,"duration":0.24895833333333428},{"name":"E3","midi":52,"time":52.75,"velocity":0.6299212598425197,"duration":0.24895833333333428},{"name":"C3","midi":48,"time":52.75,"velocity":0.6299212598425197,"duration":0.24895833333333428},{"name":"G3","midi":55,"time":53,"velocity":0.6299212598425197,"duration":0.24895833333333428},{"name":"G3","midi":55,"time":53.25,"velocity":0.6299212598425197,"duration":0.24895833333333428},{"name":"G3","midi":55,"time":53.5,"velocity":0.6299212598425197,"duration":0.24895833333333428},{"name":"G3","midi":55,"time":53.75,"velocity":0.6299212598425197,"duration":0.24895833333333428},{"name":"E3","midi":52,"time":54,"velocity":0.6299212598425197,"duration":0.24895833333333428},{"name":"C3","midi":48,"time":54,"velocity":0.6299212598425197,"duration":0.24895833333333428},{"name":"A2","midi":45,"time":54,"velocity":0.6299212598425197,"duration":0.24895833333333428},{"name":"E3","midi":52,"time":54.25,"velocity":0.6299212598425197,"duration":0.24895833333333428},{"name":"E3","midi":52,"time":54.5,"velocity":0.6299212598425197,"duration":0.24895833333333428},{"name":"F3","midi":53,"time":54.75,"velocity":0.6299212598425197,"duration":0.24895833333333428},{"name":"D3","midi":50,"time":54.75,"velocity":0.6299212598425197,"duration":0.24895833333333428},{"name":"A#2","midi":46,"time":54.75,"velocity":0.6299212598425197,"duration":0.24895833333333428},{"name":"F3","midi":53,"time":55,"velocity":0.6299212598425197,"duration":0.24895833333333428},{"name":"F3","midi":53,"time":55.25,"velocity":0.6299212598425197,"duration":0.24895833333333428},{"name":"F3","midi":53,"time":55.5,"velocity":0.6299212598425197,"duration":0.24895833333333428},{"name":"F3","midi":53,"time":55.75,"velocity":0.6299212598425197,"duration":0.24895833333333428},{"name":"F3","midi":53,"time":56,"velocity":0.6299212598425197,"duration":0.24895833333333428},{"name":"D3","midi":50,"time":56,"velocity":0.6299212598425197,"duration":0.24895833333333428},{"name":"A#2","midi":46,"time":56,"velocity":0.6299212598425197,"duration":0.24895833333333428},{"name":"F3","midi":53,"time":56.25,"velocity":0.6299212598425197,"duration":0.24895833333333428},{"name":"F3","midi":53,"time":56.5,"velocity":0.6299212598425197,"duration":0.24895833333333428},{"name":"G3","midi":55,"time":56.75,"velocity":0.6299212598425197,"duration":0.24895833333333428},{"name":"E3","midi":52,"time":56.75,"velocity":0.6299212598425197,"duration":0.24895833333333428},{"name":"C3","midi":48,"time":56.75,"velocity":0.6299212598425197,"duration":0.24895833333333428},{"name":"G3","midi":55,"time":57,"velocity":0.6299212598425197,"duration":0.24895833333333428},{"name":"G3","midi":55,"time":57.25,"velocity":0.6299212598425197,"duration":0.24895833333333428},{"name":"G3","midi":55,"time":57.5,"velocity":0.6299212598425197,"duration":0.24895833333333428},{"name":"G3","midi":55,"time":57.75,"velocity":0.6299212598425197,"duration":0.24895833333333428},{"name":"E3","midi":52,"time":58,"velocity":0.6299212598425197,"duration":0.24895833333333428},{"name":"C3","midi":48,"time":58,"velocity":0.6299212598425197,"duration":0.24895833333333428},{"name":"A2","midi":45,"time":58,"velocity":0.6299212598425197,"duration":0.24895833333333428},{"name":"E3","midi":52,"time":58.25,"velocity":0.6299212598425197,"duration":0.24895833333333428},{"name":"E3","midi":52,"time":58.5,"velocity":0.6299212598425197,"duration":0.24895833333333428},{"name":"F3","midi":53,"time":58.75,"velocity":0.6299212598425197,"duration":0.24895833333333428},{"name":"D3","midi":50,"time":58.75,"velocity":0.6299212598425197,"duration":0.24895833333333428},{"name":"A#2","midi":46,"time":58.75,"velocity":0.6299212598425197,"duration":0.24895833333333428},{"name":"F3","midi":53,"time":59,"velocity":0.6299212598425197,"duration":0.24895833333333428},{"name":"F3","midi":53,"time":59.25,"velocity":0.6299212598425197,"duration":0.24895833333333428},{"name":"F3","midi":53,"time":59.5,"velocity":0.6299212598425197,"duration":0.24895833333333428},{"name":"F3","midi":53,"time":59.75,"velocity":0.6299212598425197,"duration":0.24895833333333428},{"name":"F3","midi":53,"time":60,"velocity":0.6299212598425197,"duration":0.24895833333333428},{"name":"D3","midi":50,"time":60,"velocity":0.6299212598425197,"duration":0.24895833333333428},{"name":"A#2","midi":46,"time":60,"velocity":0.6299212598425197,"duration":0.24895833333333428},{"name":"F3","midi":53,"time":60.25,"velocity":0.6299212598425197,"duration":0.24895833333333428},{"name":"F3","midi":53,"time":60.5,"velocity":0.6299212598425197,"duration":0.24895833333333428},{"name":"G3","midi":55,"time":60.75,"velocity":0.6299212598425197,"duration":0.24895833333333428},{"name":"E3","midi":52,"time":60.75,"velocity":0.6299212598425197,"duration":0.24895833333333428},{"name":"C3","midi":48,"time":60.75,"velocity":0.6299212598425197,"duration":0.24895833333333428},{"name":"G3","midi":55,"time":61,"velocity":0.6299212598425197,"duration":0.24895833333333428},{"name":"G3","midi":55,"time":61.25,"velocity":0.6299212598425197,"duration":0.24895833333333428},{"name":"G3","midi":55,"time":61.5,"velocity":0.6299212598425197,"duration":0.24895833333333428},{"name":"G3","midi":55,"time":61.75,"velocity":0.6299212598425197,"duration":0.24895833333333428},{"name":"E3","midi":52,"time":62,"velocity":0.6299212598425197,"duration":0.24895833333333428},{"name":"C3","midi":48,"time":62,"velocity":0.6299212598425197,"duration":0.24895833333333428},{"name":"A2","midi":45,"time":62,"velocity":0.6299212598425197,"duration":0.24895833333333428},{"name":"E3","midi":52,"time":62.25,"velocity":0.6299212598425197,"duration":0.24895833333333428},{"name":"E3","midi":52,"time":62.5,"velocity":0.6299212598425197,"duration":0.24895833333333428},{"name":"F3","midi":53,"time":62.75,"velocity":0.6299212598425197,"duration":0.24895833333333428},{"name":"D3","midi":50,"time":62.75,"velocity":0.6299212598425197,"duration":0.24895833333333428},{"name":"A#2","midi":46,"time":62.75,"velocity":0.6299212598425197,"duration":0.24895833333333428},{"name":"F3","midi":53,"time":63,"velocity":0.6299212598425197,"duration":0.24895833333333428},{"name":"F3","midi":53,"time":63.25,"velocity":0.6299212598425197,"duration":0.24895833333333428},{"name":"F3","midi":53,"time":63.5,"velocity":0.6299212598425197,"duration":0.24895833333333428},{"name":"F3","midi":53,"time":63.75,"velocity":0.6299212598425197,"duration":0.24895833333333428},{"name":"F3","midi":53,"time":64,"velocity":0.6299212598425197,"duration":0.24895833333333428},{"name":"D3","midi":50,"time":64,"velocity":0.6299212598425197,"duration":0.24895833333333428},{"name":"A#2","midi":46,"time":64,"velocity":0.6299212598425197,"duration":0.24895833333333428},{"name":"F3","midi":53,"time":64.25,"velocity":0.6299212598425197,"duration":0.24895833333333428},{"name":"F3","midi":53,"time":64.5,"velocity":0.6299212598425197,"duration":0.24895833333333428},{"name":"G3","midi":55,"time":64.75,"velocity":0.6299212598425197,"duration":0.24895833333333428},{"name":"E3","midi":52,"time":64.75,"velocity":0.6299212598425197,"duration":0.24895833333333428},{"name":"C3","midi":48,"time":64.75,"velocity":0.6299212598425197,"duration":0.24895833333333428},{"name":"G3","midi":55,"time":65,"velocity":0.6299212598425197,"duration":0.24895833333333428},{"name":"G3","midi":55,"time":65.25,"velocity":0.6299212598425197,"duration":0.24895833333333428},{"name":"E3","midi":52,"time":65.5,"velocity":0.6299212598425197,"duration":0.24895833333333428},{"name":"C3","midi":48,"time":65.5,"velocity":0.6299212598425197,"duration":0.24895833333333428},{"name":"A2","midi":45,"time":65.5,"velocity":0.6299212598425197,"duration":0.24895833333333428},{"name":"E3","midi":52,"time":65.75,"velocity":0.6299212598425197,"duration":0.24895833333333428},{"name":"E3","midi":52,"time":66,"velocity":0.6299212598425197,"duration":0.24895833333333428},{"name":"E3","midi":52,"time":66.25,"velocity":0.6299212598425197,"duration":0.24895833333333428},{"name":"E3","midi":52,"time":66.5,"velocity":0.6299212598425197,"duration":0.24895833333333428},{"name":"E3","midi":52,"time":66.75,"velocity":0.6299212598425197,"duration":0.24895833333333428},{"name":"F3","midi":53,"time":67,"velocity":0.6299212598425197,"duration":0.24895833333333428},{"name":"D3","midi":50,"time":67,"velocity":0.6299212598425197,"duration":0.24895833333333428},{"name":"A#2","midi":46,"time":67,"velocity":0.6299212598425197,"duration":0.24895833333333428},{"name":"F3","midi":53,"time":67.25,"velocity":0.6299212598425197,"duration":0.24895833333333428},{"name":"F3","midi":53,"time":67.5,"velocity":0.6299212598425197,"duration":0.24895833333333428},{"name":"F3","midi":53,"time":67.75,"velocity":0.6299212598425197,"duration":0.24895833333333428},{"name":"F4","midi":65,"time":68,"velocity":0.6299212598425197,"duration":0.24895833333333428},{"name":"F4","midi":65,"time":68.25,"velocity":0.6299212598425197,"duration":0.24895833333333428},{"name":"F4","midi":65,"time":68.5,"velocity":0.6299212598425197,"duration":0.24895833333333428},{"name":"G4","midi":67,"time":68.75,"velocity":0.6299212598425197,"duration":0.24895833333333428},{"name":"G4","midi":67,"time":69,"velocity":0.6299212598425197,"duration":0.24895833333333428},{"name":"G4","midi":67,"time":69.25,"velocity":0.6299212598425197,"duration":0.24895833333333428},{"name":"G4","midi":67,"time":69.5,"velocity":0.6299212598425197,"duration":0.4989583333333343},{"name":"E4","midi":64,"time":70,"velocity":0.6299212598425197,"duration":0.24895833333333428},{"name":"E4","midi":64,"time":70.25,"velocity":0.6299212598425197,"duration":0.24895833333333428},{"name":"E4","midi":64,"time":70.5,"velocity":0.6299212598425197,"duration":0.24895833333333428},{"name":"F4","midi":65,"time":70.75,"velocity":0.6299212598425197,"duration":0.24895833333333428},{"name":"F4","midi":65,"time":71,"velocity":0.6299212598425197,"duration":0.24895833333333428},{"name":"F4","midi":65,"time":71.25,"velocity":0.6299212598425197,"duration":0.24895833333333428},{"name":"F4","midi":65,"time":71.5,"velocity":0.6299212598425197,"duration":0.4989583333333343},{"name":"F4","midi":65,"time":72,"velocity":0.6299212598425197,"duration":0.24895833333333428},{"name":"F4","midi":65,"time":72.25,"velocity":0.6299212598425197,"duration":0.24895833333333428},{"name":"F4","midi":65,"time":72.5,"velocity":0.6299212598425197,"duration":0.24895833333333428},{"name":"G4","midi":67,"time":72.75,"velocity":0.6299212598425197,"duration":0.24895833333333428},{"name":"G4","midi":67,"time":73,"velocity":0.6299212598425197,"duration":0.24895833333333428},{"name":"G4","midi":67,"time":73.25,"velocity":0.6299212598425197,"duration":0.24895833333333428},{"name":"G4","midi":67,"time":73.5,"velocity":0.6299212598425197,"duration":0.24895833333333428},{"name":"G4","midi":67,"time":73.75,"velocity":0.6299212598425197,"duration":0.24895833333333428},{"name":"E4","midi":64,"time":74,"velocity":0.6299212598425197,"duration":0.24895833333333428},{"name":"E4","midi":64,"time":74.25,"velocity":0.6299212598425197,"duration":0.24895833333333428},{"name":"E4","midi":64,"time":74.5,"velocity":0.6299212598425197,"duration":0.24895833333333428},{"name":"F4","midi":65,"time":74.75,"velocity":0.6299212598425197,"duration":0.24895833333333428},{"name":"F4","midi":65,"time":75,"velocity":0.6299212598425197,"duration":0.24895833333333428},{"name":"F4","midi":65,"time":75.25,"velocity":0.6299212598425197,"duration":0.24895833333333428},{"name":"F4","midi":65,"time":75.5,"velocity":0.6299212598425197,"duration":0.24895833333333428},{"name":"F4","midi":65,"time":75.75,"velocity":0.6299212598425197,"duration":0.24895833333333428},{"name":"F4","midi":65,"time":76,"velocity":0.6299212598425197,"duration":0.24895833333333428},{"name":"F4","midi":65,"time":76.25,"velocity":0.6299212598425197,"duration":0.24895833333333428},{"name":"F4","midi":65,"time":76.5,"velocity":0.6299212598425197,"duration":0.24895833333333428},{"name":"G4","midi":67,"time":76.75,"velocity":0.6299212598425197,"duration":0.24895833333333428},{"name":"G4","midi":67,"time":77,"velocity":0.6299212598425197,"duration":0.24895833333333428},{"name":"G4","midi":67,"time":77.25,"velocity":0.6299212598425197,"duration":0.24895833333333428},{"name":"G4","midi":67,"time":77.5,"velocity":0.6299212598425197,"duration":0.24895833333333428},{"name":"G4","midi":67,"time":77.75,"velocity":0.6299212598425197,"duration":0.24895833333333428},{"name":"E4","midi":64,"time":78,"velocity":0.6299212598425197,"duration":0.24895833333333428},{"name":"E4","midi":64,"time":78.25,"velocity":0.6299212598425197,"duration":0.24895833333333428},{"name":"E4","midi":64,"time":78.5,"velocity":0.6299212598425197,"duration":0.24895833333333428},{"name":"F4","midi":65,"time":78.75,"velocity":0.6299212598425197,"duration":0.24895833333333428},{"name":"F4","midi":65,"time":79,"velocity":0.6299212598425197,"duration":0.24895833333333428},{"name":"F4","midi":65,"time":79.25,"velocity":0.6299212598425197,"duration":0.24895833333333428},{"name":"F4","midi":65,"time":79.5,"velocity":0.6299212598425197,"duration":0.24895833333333428},{"name":"F4","midi":65,"time":79.75,"velocity":0.6299212598425197,"duration":0.24895833333333428},{"name":"F4","midi":65,"time":80,"velocity":0.6299212598425197,"duration":0.24895833333333428},{"name":"F4","midi":65,"time":80.25,"velocity":0.6299212598425197,"duration":0.24895833333333428},{"name":"F4","midi":65,"time":80.5,"velocity":0.6299212598425197,"duration":0.24895833333333428},{"name":"G4","midi":67,"time":80.75,"velocity":0.6299212598425197,"duration":0.24895833333333428},{"name":"G4","midi":67,"time":81,"velocity":0.6299212598425197,"duration":0.24895833333333428},{"name":"G4","midi":67,"time":81.25,"velocity":0.6299212598425197,"duration":0.24895833333333428},{"name":"G4","midi":67,"time":81.5,"velocity":0.6299212598425197,"duration":0.24895833333333428},{"name":"G4","midi":67,"time":81.75,"velocity":0.6299212598425197,"duration":0.24895833333333428},{"name":"E4","midi":64,"time":82,"velocity":0.6299212598425197,"duration":0.24895833333333428},{"name":"E4","midi":64,"time":82.25,"velocity":0.6299212598425197,"duration":0.24895833333333428},{"name":"E4","midi":64,"time":82.5,"velocity":0.6299212598425197,"duration":0.24895833333333428},{"name":"F4","midi":65,"time":82.75,"velocity":0.6299212598425197,"duration":0.24895833333333428},{"name":"F4","midi":65,"time":83,"velocity":0.6299212598425197,"duration":0.24895833333333428},{"name":"F4","midi":65,"time":83.25,"velocity":0.6299212598425197,"duration":0.24895833333333428},{"name":"F4","midi":65,"time":83.5,"velocity":0.6299212598425197,"duration":0.24895833333333428},{"name":"F4","midi":65,"time":83.75,"velocity":0.6299212598425197,"duration":0.24895833333333428},{"name":"F4","midi":65,"time":84,"velocity":0.6299212598425197,"duration":0.24895833333333428},{"name":"F4","midi":65,"time":84.25,"velocity":0.6299212598425197,"duration":0.24895833333333428},{"name":"F4","midi":65,"time":84.5,"velocity":0.6299212598425197,"duration":0.24895833333333428},{"name":"G4","midi":67,"time":84.75,"velocity":0.6299212598425197,"duration":0.24895833333333428},{"name":"G4","midi":67,"time":85,"velocity":0.6299212598425197,"duration":0.24895833333333428},{"name":"G4","midi":67,"time":85.25,"velocity":0.6299212598425197,"duration":0.24895833333333428},{"name":"G4","midi":67,"time":85.5,"velocity":0.6299212598425197,"duration":0.24895833333333428},{"name":"G4","midi":67,"time":85.75,"velocity":0.6299212598425197,"duration":0.24895833333333428},{"name":"E4","midi":64,"time":86,"velocity":0.6299212598425197,"duration":0.24895833333333428},{"name":"E4","midi":64,"time":86.25,"velocity":0.6299212598425197,"duration":0.24895833333333428},{"name":"E4","midi":64,"time":86.5,"velocity":0.6299212598425197,"duration":0.24895833333333428},{"name":"F4","midi":65,"time":86.75,"velocity":0.6299212598425197,"duration":0.24895833333333428},{"name":"F4","midi":65,"time":87,"velocity":0.6299212598425197,"duration":0.24895833333333428},{"name":"F4","midi":65,"time":87.25,"velocity":0.6299212598425197,"duration":0.24895833333333428},{"name":"F4","midi":65,"time":87.5,"velocity":0.6299212598425197,"duration":0.24895833333333428},{"name":"F4","midi":65,"time":87.75,"velocity":0.6299212598425197,"duration":0.24895833333333428},{"name":"F4","midi":65,"time":88,"velocity":0.6299212598425197,"duration":0.24895833333333428},{"name":"D4","midi":62,"time":88,"velocity":0.6299212598425197,"duration":0.24895833333333428},{"name":"A#3","midi":58,"time":88,"velocity":0.6299212598425197,"duration":0.24895833333333428},{"name":"F4","midi":65,"time":88.25,"velocity":0.6299212598425197,"duration":0.24895833333333428},{"name":"F4","midi":65,"time":88.5,"velocity":0.6299212598425197,"duration":0.24895833333333428},{"name":"G4","midi":67,"time":88.75,"velocity":0.6299212598425197,"duration":0.24895833333333428},{"name":"E4","midi":64,"time":88.75,"velocity":0.6299212598425197,"duration":0.24895833333333428},{"name":"C4","midi":60,"time":88.75,"velocity":0.6299212598425197,"duration":0.24895833333333428},{"name":"G4","midi":67,"time":89,"velocity":0.6299212598425197,"duration":0.24895833333333428},{"name":"G4","midi":67,"time":89.25,"velocity":0.6299212598425197,"duration":0.24895833333333428},{"name":"G4","midi":67,"time":89.5,"velocity":0.6299212598425197,"duration":0.24895833333333428},{"name":"G4","midi":67,"time":89.75,"velocity":0.6299212598425197,"duration":0.24895833333333428},{"name":"E4","midi":64,"time":90,"velocity":0.6299212598425197,"duration":0.24895833333333428},{"name":"C4","midi":60,"time":90,"velocity":0.6299212598425197,"duration":0.24895833333333428},{"name":"A3","midi":57,"time":90,"velocity":0.6299212598425197,"duration":0.24895833333333428},{"name":"E4","midi":64,"time":90.25,"velocity":0.6299212598425197,"duration":0.24895833333333428},{"name":"E4","midi":64,"time":90.5,"velocity":0.6299212598425197,"duration":0.24895833333333428},{"name":"F4","midi":65,"time":90.75,"velocity":0.6299212598425197,"duration":0.24895833333333428},{"name":"D4","midi":62,"time":90.75,"velocity":0.6299212598425197,"duration":0.24895833333333428},{"name":"A#3","midi":58,"time":90.75,"velocity":0.6299212598425197,"duration":0.24895833333333428},{"name":"F4","midi":65,"time":91,"velocity":0.6299212598425197,"duration":0.24895833333333428},{"name":"F4","midi":65,"time":91.25,"velocity":0.6299212598425197,"duration":0.24895833333333428},{"name":"F4","midi":65,"time":91.5,"velocity":0.6299212598425197,"duration":0.24895833333333428},{"name":"F4","midi":65,"time":91.75,"velocity":0.6299212598425197,"duration":0.24895833333333428},{"name":"F4","midi":65,"time":92,"velocity":0.6299212598425197,"duration":0.24895833333333428},{"name":"D4","midi":62,"time":92,"velocity":0.6299212598425197,"duration":0.24895833333333428},{"name":"A#3","midi":58,"time":92,"velocity":0.6299212598425197,"duration":0.24895833333333428},{"name":"F4","midi":65,"time":92.25,"velocity":0.6299212598425197,"duration":0.24895833333333428},{"name":"F4","midi":65,"time":92.5,"velocity":0.6299212598425197,"duration":0.24895833333333428},{"name":"G4","midi":67,"time":92.75,"velocity":0.6299212598425197,"duration":0.24895833333333428},{"name":"E4","midi":64,"time":92.75,"velocity":0.6299212598425197,"duration":0.24895833333333428},{"name":"C4","midi":60,"time":92.75,"velocity":0.6299212598425197,"duration":0.24895833333333428},{"name":"G4","midi":67,"time":93,"velocity":0.6299212598425197,"duration":0.24895833333333428},{"name":"G4","midi":67,"time":93.25,"velocity":0.6299212598425197,"duration":0.24895833333333428},{"name":"G4","midi":67,"time":93.5,"velocity":0.6299212598425197,"duration":0.24895833333333428},{"name":"G4","midi":67,"time":93.75,"velocity":0.6299212598425197,"duration":0.24895833333333428},{"name":"E4","midi":64,"time":94,"velocity":0.6299212598425197,"duration":0.24895833333333428},{"name":"C4","midi":60,"time":94,"velocity":0.6299212598425197,"duration":0.24895833333333428},{"name":"A3","midi":57,"time":94,"velocity":0.6299212598425197,"duration":0.24895833333333428},{"name":"E4","midi":64,"time":94.25,"velocity":0.6299212598425197,"duration":0.24895833333333428},{"name":"E4","midi":64,"time":94.5,"velocity":0.6299212598425197,"duration":0.24895833333333428},{"name":"F4","midi":65,"time":94.75,"velocity":0.6299212598425197,"duration":0.24895833333333428},{"name":"D4","midi":62,"time":94.75,"velocity":0.6299212598425197,"duration":0.24895833333333428},{"name":"A#3","midi":58,"time":94.75,"velocity":0.6299212598425197,"duration":0.24895833333333428},{"name":"F4","midi":65,"time":95,"velocity":0.6299212598425197,"duration":0.24895833333333428},{"name":"F4","midi":65,"time":95.25,"velocity":0.6299212598425197,"duration":0.24895833333333428},{"name":"F4","midi":65,"time":95.5,"velocity":0.6299212598425197,"duration":0.24895833333333428},{"name":"F4","midi":65,"time":95.75,"velocity":0.6299212598425197,"duration":0.24895833333333428},{"name":"F3","midi":53,"time":96,"velocity":0.6299212598425197,"duration":0.24895833333333428},{"name":"D3","midi":50,"time":96,"velocity":0.6299212598425197,"duration":0.24895833333333428},{"name":"A#2","midi":46,"time":96,"velocity":0.6299212598425197,"duration":0.24895833333333428},{"name":"F3","midi":53,"time":96.25,"velocity":0.6299212598425197,"duration":0.24895833333333428},{"name":"F3","midi":53,"time":96.5,"velocity":0.6299212598425197,"duration":0.24895833333333428},{"name":"G3","midi":55,"time":96.75,"velocity":0.6299212598425197,"duration":0.24895833333333428},{"name":"E3","midi":52,"time":96.75,"velocity":0.6299212598425197,"duration":0.24895833333333428},{"name":"C3","midi":48,"time":96.75,"velocity":0.6299212598425197,"duration":0.24895833333333428},{"name":"G3","midi":55,"time":97,"velocity":0.6299212598425197,"duration":0.24895833333333428},{"name":"G3","midi":55,"time":97.25,"velocity":0.6299212598425197,"duration":0.24895833333333428},{"name":"G3","midi":55,"time":97.5,"velocity":0.6299212598425197,"duration":0.24895833333333428},{"name":"G3","midi":55,"time":97.75,"velocity":0.6299212598425197,"duration":0.24895833333333428},{"name":"E3","midi":52,"time":98,"velocity":0.6299212598425197,"duration":0.24895833333333428},{"name":"C3","midi":48,"time":98,"velocity":0.6299212598425197,"duration":0.24895833333333428},{"name":"A2","midi":45,"time":98,"velocity":0.6299212598425197,"duration":0.24895833333333428},{"name":"E3","midi":52,"time":98.25,"velocity":0.6299212598425197,"duration":0.24895833333333428},{"name":"E3","midi":52,"time":98.5,"velocity":0.6299212598425197,"duration":0.24895833333333428},{"name":"F3","midi":53,"time":98.75,"velocity":0.6299212598425197,"duration":0.24895833333333428},{"name":"D3","midi":50,"time":98.75,"velocity":0.6299212598425197,"duration":0.24895833333333428},{"name":"A#2","midi":46,"time":98.75,"velocity":0.6299212598425197,"duration":0.24895833333333428},{"name":"F3","midi":53,"time":99,"velocity":0.6299212598425197,"duration":0.24895833333333428},{"name":"F3","midi":53,"time":99.25,"velocity":0.6299212598425197,"duration":0.24895833333333428},{"name":"F3","midi":53,"time":99.5,"velocity":0.6299212598425197,"duration":0.24895833333333428},{"name":"F3","midi":53,"time":99.75,"velocity":0.6299212598425197,"duration":0.24895833333333428},{"name":"F3","midi":53,"time":100,"velocity":0.6299212598425197,"duration":0.24895833333333428},{"name":"D3","midi":50,"time":100,"velocity":0.6299212598425197,"duration":0.24895833333333428},{"name":"A#2","midi":46,"time":100,"velocity":0.6299212598425197,"duration":0.24895833333333428},{"name":"F3","midi":53,"time":100.25,"velocity":0.6299212598425197,"duration":0.24895833333333428},{"name":"F3","midi":53,"time":100.5,"velocity":0.6299212598425197,"duration":0.24895833333333428},{"name":"G3","midi":55,"time":100.75,"velocity":0.6299212598425197,"duration":0.24895833333333428},{"name":"E3","midi":52,"time":100.75,"velocity":0.6299212598425197,"duration":0.24895833333333428},{"name":"C3","midi":48,"time":100.75,"velocity":0.6299212598425197,"duration":0.24895833333333428},{"name":"G3","midi":55,"time":101,"velocity":0.6299212598425197,"duration":0.24895833333333428},{"name":"G3","midi":55,"time":101.25,"velocity":0.6299212598425197,"duration":0.24895833333333428},{"name":"G3","midi":55,"time":101.5,"velocity":0.6299212598425197,"duration":0.24895833333333428},{"name":"G3","midi":55,"time":101.75,"velocity":0.6299212598425197,"duration":0.24895833333333428},{"name":"E3","midi":52,"time":102,"velocity":0.6299212598425197,"duration":0.24895833333333428},{"name":"C3","midi":48,"time":102,"velocity":0.6299212598425197,"duration":0.24895833333333428},{"name":"A2","midi":45,"time":102,"velocity":0.6299212598425197,"duration":0.24895833333333428},{"name":"E3","midi":52,"time":102.25,"velocity":0.6299212598425197,"duration":0.24895833333333428},{"name":"E3","midi":52,"time":102.5,"velocity":0.6299212598425197,"duration":0.24895833333333428},{"name":"F3","midi":53,"time":102.75,"velocity":0.6299212598425197,"duration":0.24895833333333428},{"name":"D3","midi":50,"time":102.75,"velocity":0.6299212598425197,"duration":0.24895833333333428},{"name":"A#2","midi":46,"time":102.75,"velocity":0.6299212598425197,"duration":0.24895833333333428},{"name":"F3","midi":53,"time":103,"velocity":0.6299212598425197,"duration":0.24895833333333428},{"name":"F3","midi":53,"time":103.25,"velocity":0.6299212598425197,"duration":0.24895833333333428},{"name":"F3","midi":53,"time":103.5,"velocity":0.6299212598425197,"duration":0.24895833333333428},{"name":"F3","midi":53,"time":103.75,"velocity":0.6299212598425197,"duration":0.24895833333333428},{"name":"F3","midi":53,"time":104,"velocity":0.6299212598425197,"duration":0.24895833333333428},{"name":"D3","midi":50,"time":104,"velocity":0.6299212598425197,"duration":0.24895833333333428},{"name":"A#2","midi":46,"time":104,"velocity":0.6299212598425197,"duration":0.24895833333333428},{"name":"F3","midi":53,"time":104.25,"velocity":0.6299212598425197,"duration":0.24895833333333428},{"name":"F3","midi":53,"time":104.5,"velocity":0.6299212598425197,"duration":0.24895833333333428},{"name":"G3","midi":55,"time":104.75,"velocity":0.6299212598425197,"duration":0.24895833333333428},{"name":"E3","midi":52,"time":104.75,"velocity":0.6299212598425197,"duration":0.24895833333333428},{"name":"C3","midi":48,"time":104.75,"velocity":0.6299212598425197,"duration":0.24895833333333428},{"name":"G3","midi":55,"time":105,"velocity":0.6299212598425197,"duration":0.24895833333333428},{"name":"G3","midi":55,"time":105.25,"velocity":0.6299212598425197,"duration":0.24895833333333428},{"name":"G3","midi":55,"time":105.5,"velocity":0.6299212598425197,"duration":0.24895833333333428},{"name":"G3","midi":55,"time":105.75,"velocity":0.6299212598425197,"duration":0.24895833333333428},{"name":"E3","midi":52,"time":106,"velocity":0.6299212598425197,"duration":0.24895833333333428},{"name":"C3","midi":48,"time":106,"velocity":0.6299212598425197,"duration":0.24895833333333428},{"name":"A2","midi":45,"time":106,"velocity":0.6299212598425197,"duration":0.24895833333333428},{"name":"E3","midi":52,"time":106.25,"velocity":0.6299212598425197,"duration":0.24895833333333428},{"name":"E3","midi":52,"time":106.5,"velocity":0.6299212598425197,"duration":0.24895833333333428},{"name":"F3","midi":53,"time":106.75,"velocity":0.6299212598425197,"duration":0.24895833333333428},{"name":"D3","midi":50,"time":106.75,"velocity":0.6299212598425197,"duration":0.24895833333333428},{"name":"A#2","midi":46,"time":106.75,"velocity":0.6299212598425197,"duration":0.24895833333333428},{"name":"F3","midi":53,"time":107,"velocity":0.6299212598425197,"duration":0.24895833333333428},{"name":"F3","midi":53,"time":107.25,"velocity":0.6299212598425197,"duration":0.24895833333333428},{"name":"F3","midi":53,"time":107.5,"velocity":0.6299212598425197,"duration":0.24895833333333428},{"name":"F3","midi":53,"time":107.75,"velocity":0.6299212598425197,"duration":0.24895833333333428},{"name":"F3","midi":53,"time":108,"velocity":0.6299212598425197,"duration":0.24895833333333428},{"name":"D3","midi":50,"time":108,"velocity":0.6299212598425197,"duration":0.24895833333333428},{"name":"A#2","midi":46,"time":108,"velocity":0.6299212598425197,"duration":0.24895833333333428},{"name":"F3","midi":53,"time":108.25,"velocity":0.6299212598425197,"duration":0.24895833333333428},{"name":"F3","midi":53,"time":108.5,"velocity":0.6299212598425197,"duration":0.24895833333333428},{"name":"G3","midi":55,"time":108.75,"velocity":0.6299212598425197,"duration":0.24895833333333428},{"name":"E3","midi":52,"time":108.75,"velocity":0.6299212598425197,"duration":0.24895833333333428},{"name":"C3","midi":48,"time":108.75,"velocity":0.6299212598425197,"duration":0.24895833333333428},{"name":"G3","midi":55,"time":109,"velocity":0.6299212598425197,"duration":0.24895833333333428},{"name":"G3","midi":55,"time":109.25,"velocity":0.6299212598425197,"duration":0.24895833333333428},{"name":"G3","midi":55,"time":109.5,"velocity":0.6299212598425197,"duration":0.24895833333333428},{"name":"G3","midi":55,"time":109.75,"velocity":0.6299212598425197,"duration":0.24895833333333428},{"name":"E3","midi":52,"time":110,"velocity":0.6299212598425197,"duration":0.24895833333333428},{"name":"C3","midi":48,"time":110,"velocity":0.6299212598425197,"duration":0.24895833333333428},{"name":"A2","midi":45,"time":110,"velocity":0.6299212598425197,"duration":0.24895833333333428},{"name":"E3","midi":52,"time":110.25,"velocity":0.6299212598425197,"duration":0.24895833333333428},{"name":"E3","midi":52,"time":110.5,"velocity":0.6299212598425197,"duration":0.24895833333333428},{"name":"F3","midi":53,"time":110.75,"velocity":0.6299212598425197,"duration":0.24895833333333428},{"name":"D3","midi":50,"time":110.75,"velocity":0.6299212598425197,"duration":0.24895833333333428},{"name":"A#2","midi":46,"time":110.75,"velocity":0.6299212598425197,"duration":0.24895833333333428},{"name":"F3","midi":53,"time":111,"velocity":0.6299212598425197,"duration":0.24895833333333428},{"name":"F3","midi":53,"time":111.25,"velocity":0.6299212598425197,"duration":0.24895833333333428},{"name":"F3","midi":53,"time":111.5,"velocity":0.6299212598425197,"duration":0.24895833333333428},{"name":"F3","midi":53,"time":111.75,"velocity":0.6299212598425197,"duration":0.24895833333333428},{"name":"A3","midi":57,"time":112,"velocity":0.6299212598425197,"duration":0.24895833333333428},{"name":"F3","midi":53,"time":112,"velocity":0.6299212598425197,"duration":0.24895833333333428},{"name":"D3","midi":50,"time":112,"velocity":0.6299212598425197,"duration":0.24895833333333428},{"name":"A3","midi":57,"time":112.25,"velocity":0.6299212598425197,"duration":0.24895833333333428},{"name":"A3","midi":57,"time":112.5,"velocity":0.6299212598425197,"duration":0.24895833333333428},{"name":"A3","midi":57,"time":112.75,"velocity":0.6299212598425197,"duration":0.24895833333333428},{"name":"A3","midi":57,"time":113,"velocity":0.6299212598425197,"duration":0.24895833333333428},{"name":"A3","midi":57,"time":113.25,"velocity":0.6299212598425197,"duration":0.24895833333333428},{"name":"A3","midi":57,"time":113.5,"velocity":0.6299212598425197,"duration":0.24895833333333428},{"name":"A3","midi":57,"time":113.75,"velocity":0.6299212598425197,"duration":0.24895833333333428},{"name":"G3","midi":55,"time":114,"velocity":0.6299212598425197,"duration":0.24895833333333428},{"name":"E3","midi":52,"time":114,"velocity":0.6299212598425197,"duration":0.24895833333333428},{"name":"C3","midi":48,"time":114,"velocity":0.6299212598425197,"duration":0.24895833333333428},{"name":"G3","midi":55,"time":114.25,"velocity":0.6299212598425197,"duration":0.24895833333333428},{"name":"G3","midi":55,"time":114.5,"velocity":0.6299212598425197,"duration":0.24895833333333428},{"name":"G3","midi":55,"time":114.75,"velocity":0.6299212598425197,"duration":0.24895833333333428},{"name":"G3","midi":55,"time":115,"velocity":0.6299212598425197,"duration":0.24895833333333428},{"name":"G3","midi":55,"time":115.25,"velocity":0.6299212598425197,"duration":0.24895833333333428},{"name":"G3","midi":55,"time":115.5,"velocity":0.6299212598425197,"duration":0.24895833333333428},{"name":"G3","midi":55,"time":115.75,"velocity":0.6299212598425197,"duration":0.24895833333333428},{"name":"F3","midi":53,"time":116,"velocity":0.6299212598425197,"duration":0.24895833333333428},{"name":"D3","midi":50,"time":116,"velocity":0.6299212598425197,"duration":0.24895833333333428},{"name":"A#2","midi":46,"time":116,"velocity":0.6299212598425197,"duration":0.24895833333333428},{"name":"F3","midi":53,"time":116.25,"velocity":0.6299212598425197,"duration":0.24895833333333428},{"name":"F3","midi":53,"time":116.5,"velocity":0.6299212598425197,"duration":0.24895833333333428},{"name":"C4","midi":60,"time":116.75,"velocity":0.6299212598425197,"duration":0.24895833333333428},{"name":"A3","midi":57,"time":116.75,"velocity":0.6299212598425197,"duration":0.24895833333333428},{"name":"F3","midi":53,"time":116.75,"velocity":0.6299212598425197,"duration":0.24895833333333428},{"name":"C4","midi":60,"time":117,"velocity":0.6299212598425197,"duration":0.24895833333333428},{"name":"C4","midi":60,"time":117.25,"velocity":0.6299212598425197,"duration":0.24895833333333428},{"name":"C4","midi":60,"time":117.5,"velocity":0.6299212598425197,"duration":0.24895833333333428},{"name":"C4","midi":60,"time":117.75,"velocity":0.6299212598425197,"duration":0.24895833333333428},{"name":"E3","midi":52,"time":118,"velocity":0.6299212598425197,"duration":0.24895833333333428},{"name":"C3","midi":48,"time":118,"velocity":0.6299212598425197,"duration":0.24895833333333428},{"name":"A2","midi":45,"time":118,"velocity":0.6299212598425197,"duration":0.24895833333333428},{"name":"E3","midi":52,"time":118.25,"velocity":0.6299212598425197,"duration":0.24895833333333428},{"name":"E3","midi":52,"time":118.5,"velocity":0.6299212598425197,"duration":0.24895833333333428},{"name":"E3","midi":52,"time":118.75,"velocity":0.6299212598425197,"duration":0.24895833333333428},{"name":"E3","midi":52,"time":119,"velocity":0.6299212598425197,"duration":0.24895833333333428},{"name":"E3","midi":52,"time":119.25,"velocity":0.6299212598425197,"duration":0.24895833333333428},{"name":"E3","midi":52,"time":119.5,"velocity":0.6299212598425197,"duration":0.24895833333333428},{"name":"E3","midi":52,"time":119.75,"velocity":0.6299212598425197,"duration":0.24895833333333428},{"name":"F3","midi":53,"time":120,"velocity":0.6299212598425197,"duration":0.24895833333333428},{"name":"D3","midi":50,"time":120,"velocity":0.6299212598425197,"duration":0.24895833333333428},{"name":"A#2","midi":46,"time":120,"velocity":0.6299212598425197,"duration":0.24895833333333428},{"name":"F3","midi":53,"time":120.25,"velocity":0.6299212598425197,"duration":0.24895833333333428},{"name":"F3","midi":53,"time":120.5,"velocity":0.6299212598425197,"duration":0.24895833333333428},{"name":"F3","midi":53,"time":120.75,"velocity":0.6299212598425197,"duration":0.24895833333333428},{"name":"F3","midi":53,"time":121,"velocity":0.6299212598425197,"duration":0.24895833333333428},{"name":"F3","midi":53,"time":121.25,"velocity":0.6299212598425197,"duration":0.24895833333333428},{"name":"F3","midi":53,"time":121.5,"velocity":0.6299212598425197,"duration":0.24895833333333428},{"name":"F3","midi":53,"time":121.75,"velocity":0.6299212598425197,"duration":0.24895833333333428},{"name":"E3","midi":52,"time":122,"velocity":0.6299212598425197,"duration":0.24895833333333428},{"name":"C3","midi":48,"time":122,"velocity":0.6299212598425197,"duration":0.24895833333333428},{"name":"A2","midi":45,"time":122,"velocity":0.6299212598425197,"duration":0.24895833333333428},{"name":"E3","midi":52,"time":122.25,"velocity":0.6299212598425197,"duration":0.24895833333333428},{"name":"E3","midi":52,"time":122.5,"velocity":0.6299212598425197,"duration":0.24895833333333428},{"name":"A3","midi":57,"time":122.75,"velocity":0.6299212598425197,"duration":0.24895833333333428},{"name":"F#3","midi":54,"time":122.75,"velocity":0.6299212598425197,"duration":0.24895833333333428},{"name":"D3","midi":50,"time":122.75,"velocity":0.6299212598425197,"duration":0.24895833333333428},{"name":"A3","midi":57,"time":123,"velocity":0.6299212598425197,"duration":0.24895833333333428},{"name":"A3","midi":57,"time":123.25,"velocity":0.6299212598425197,"duration":0.24895833333333428},{"name":"A3","midi":57,"time":123.5,"velocity":0.6299212598425197,"duration":0.24895833333333428},{"name":"A3","midi":57,"time":123.75,"velocity":0.6299212598425197,"duration":0.24895833333333428},{"name":"A#2","midi":46,"time":124,"velocity":0.6299212598425197,"duration":0.24895833333333428},{"name":"D#2","midi":39,"time":124,"velocity":0.6299212598425197,"duration":0.24895833333333428},{"name":"A#2","midi":46,"time":124.25,"velocity":0.6299212598425197,"duration":0.24895833333333428},{"name":"A#2","midi":46,"time":124.5,"velocity":0.6299212598425197,"duration":0.24895833333333428},{"name":"A#2","midi":46,"time":124.75,"velocity":0.6299212598425197,"duration":0.24895833333333428},{"name":"A#2","midi":46,"time":125,"velocity":0.6299212598425197,"duration":0.24895833333333428},{"name":"A#2","midi":46,"time":125.25,"velocity":0.6299212598425197,"duration":0.24895833333333428},{"name":"A#2","midi":46,"time":125.5,"velocity":0.6299212598425197,"duration":0.24895833333333428},{"name":"A#2","midi":46,"time":125.75,"velocity":0.6299212598425197,"duration":0.24895833333333428},{"name":"D3","midi":50,"time":126,"velocity":0.6299212598425197,"duration":0.24895833333333428},{"name":"D2","midi":38,"time":126,"velocity":0.6299212598425197,"duration":0.24895833333333428},{"name":"D3","midi":50,"time":126.25,"velocity":0.6299212598425197,"duration":0.24895833333333428},{"name":"D2","midi":38,"time":126.25,"velocity":0.6299212598425197,"duration":0.24895833333333428},{"name":"D3","midi":50,"time":126.5,"velocity":0.6299212598425197,"duration":0.24895833333333428},{"name":"D2","midi":38,"time":126.5,"velocity":0.6299212598425197,"duration":0.24895833333333428},{"name":"G3","midi":55,"time":126.75,"velocity":0.6299212598425197,"duration":0.4989583333333343},{"name":"E3","midi":52,"time":126.75,"velocity":0.6299212598425197,"duration":0.4989583333333343},{"name":"E3","midi":52,"time":127.25,"velocity":0.6299212598425197,"duration":0.24895833333333428},{"name":"E2","midi":40,"time":127.25,"velocity":0.6299212598425197,"duration":0.24895833333333428},{"name":"A3","midi":57,"time":127.5,"velocity":0.6299212598425197,"duration":0.24895833333333428},{"name":"A2","midi":45,"time":127.5,"velocity":0.6299212598425197,"duration":0.24895833333333428},{"name":"E3","midi":52,"time":127.75,"velocity":0.6299212598425197,"duration":0.24895833333333428},{"name":"E2","midi":40,"time":127.75,"velocity":0.6299212598425197,"duration":0.24895833333333428},{"name":"F3","midi":53,"time":128,"velocity":0.6299212598425197,"duration":0.24895833333332007},{"name":"D3","midi":50,"time":128,"velocity":0.6299212598425197,"duration":0.24895833333332007},{"name":"A#2","midi":46,"time":128,"velocity":0.6299212598425197,"duration":0.24895833333332007},{"name":"F3","midi":53,"time":128.25,"velocity":0.6299212598425197,"duration":0.24895833333332007},{"name":"F3","midi":53,"time":128.5,"velocity":0.6299212598425197,"duration":0.24895833333332007},{"name":"G3","midi":55,"time":128.75,"velocity":0.6299212598425197,"duration":0.24895833333332007},{"name":"E3","midi":52,"time":128.75,"velocity":0.6299212598425197,"duration":0.24895833333332007},{"name":"C3","midi":48,"time":128.75,"velocity":0.6299212598425197,"duration":0.24895833333332007},{"name":"G3","midi":55,"time":129,"velocity":0.6299212598425197,"duration":0.24895833333332007},{"name":"G3","midi":55,"time":129.25,"velocity":0.6299212598425197,"duration":0.24895833333332007},{"name":"G3","midi":55,"time":129.5,"velocity":0.6299212598425197,"duration":0.24895833333332007},{"name":"G3","midi":55,"time":129.75,"velocity":0.6299212598425197,"duration":0.24895833333332007},{"name":"E3","midi":52,"time":130,"velocity":0.6299212598425197,"duration":0.24895833333332007},{"name":"C3","midi":48,"time":130,"velocity":0.6299212598425197,"duration":0.24895833333332007},{"name":"A2","midi":45,"time":130,"velocity":0.6299212598425197,"duration":0.24895833333332007},{"name":"E3","midi":52,"time":130.25,"velocity":0.6299212598425197,"duration":0.24895833333332007},{"name":"E3","midi":52,"time":130.5,"velocity":0.6299212598425197,"duration":0.24895833333332007},{"name":"F3","midi":53,"time":130.75,"velocity":0.6299212598425197,"duration":0.24895833333332007},{"name":"D3","midi":50,"time":130.75,"velocity":0.6299212598425197,"duration":0.24895833333332007},{"name":"A#2","midi":46,"time":130.75,"velocity":0.6299212598425197,"duration":0.24895833333332007},{"name":"F3","midi":53,"time":131,"velocity":0.6299212598425197,"duration":0.24895833333332007},{"name":"F3","midi":53,"time":131.25,"velocity":0.6299212598425197,"duration":0.24895833333332007},{"name":"F3","midi":53,"time":131.5,"velocity":0.6299212598425197,"duration":0.24895833333332007},{"name":"F3","midi":53,"time":131.75,"velocity":0.6299212598425197,"duration":0.24895833333332007},{"name":"F3","midi":53,"time":132,"velocity":0.6299212598425197,"duration":0.24895833333332007},{"name":"D3","midi":50,"time":132,"velocity":0.6299212598425197,"duration":0.24895833333332007},{"name":"A#2","midi":46,"time":132,"velocity":0.6299212598425197,"duration":0.24895833333332007},{"name":"F3","midi":53,"time":132.25,"velocity":0.6299212598425197,"duration":0.24895833333332007},{"name":"F3","midi":53,"time":132.5,"velocity":0.6299212598425197,"duration":0.24895833333332007},{"name":"G3","midi":55,"time":132.75,"velocity":0.6299212598425197,"duration":0.24895833333332007},{"name":"E3","midi":52,"time":132.75,"velocity":0.6299212598425197,"duration":0.24895833333332007},{"name":"C3","midi":48,"time":132.75,"velocity":0.6299212598425197,"duration":0.24895833333332007},{"name":"G3","midi":55,"time":133,"velocity":0.6299212598425197,"duration":0.24895833333332007},{"name":"G3","midi":55,"time":133.25,"velocity":0.6299212598425197,"duration":0.24895833333332007},{"name":"G3","midi":55,"time":133.5,"velocity":0.6299212598425197,"duration":0.24895833333332007},{"name":"G3","midi":55,"time":133.75,"velocity":0.6299212598425197,"duration":0.24895833333332007},{"name":"E3","midi":52,"time":134,"velocity":0.6299212598425197,"duration":0.24895833333332007},{"name":"C3","midi":48,"time":134,"velocity":0.6299212598425197,"duration":0.24895833333332007},{"name":"A2","midi":45,"time":134,"velocity":0.6299212598425197,"duration":0.24895833333332007},{"name":"E3","midi":52,"time":134.25,"velocity":0.6299212598425197,"duration":0.24895833333332007},{"name":"E3","midi":52,"time":134.5,"velocity":0.6299212598425197,"duration":0.24895833333332007},{"name":"F3","midi":53,"time":134.75,"velocity":0.6299212598425197,"duration":0.24895833333332007},{"name":"D3","midi":50,"time":134.75,"velocity":0.6299212598425197,"duration":0.24895833333332007},{"name":"A#2","midi":46,"time":134.75,"velocity":0.6299212598425197,"duration":0.24895833333332007},{"name":"F3","midi":53,"time":135,"velocity":0.6299212598425197,"duration":0.24895833333332007},{"name":"F3","midi":53,"time":135.25,"velocity":0.6299212598425197,"duration":0.24895833333332007},{"name":"F3","midi":53,"time":135.5,"velocity":0.6299212598425197,"duration":0.24895833333332007},{"name":"F3","midi":53,"time":135.75,"velocity":0.6299212598425197,"duration":0.24895833333332007},{"name":"F3","midi":53,"time":136,"velocity":0.6299212598425197,"duration":0.24895833333332007},{"name":"D3","midi":50,"time":136,"velocity":0.6299212598425197,"duration":0.24895833333332007},{"name":"A#2","midi":46,"time":136,"velocity":0.6299212598425197,"duration":0.24895833333332007},{"name":"F3","midi":53,"time":136.25,"velocity":0.6299212598425197,"duration":0.24895833333332007},{"name":"F3","midi":53,"time":136.5,"velocity":0.6299212598425197,"duration":0.24895833333332007},{"name":"G3","midi":55,"time":136.75,"velocity":0.6299212598425197,"duration":0.24895833333332007},{"name":"E3","midi":52,"time":136.75,"velocity":0.6299212598425197,"duration":0.24895833333332007},{"name":"C3","midi":48,"time":136.75,"velocity":0.6299212598425197,"duration":0.24895833333332007},{"name":"G3","midi":55,"time":137,"velocity":0.6299212598425197,"duration":0.24895833333332007},{"name":"G3","midi":55,"time":137.25,"velocity":0.6299212598425197,"duration":0.24895833333332007},{"name":"G3","midi":55,"time":137.5,"velocity":0.6299212598425197,"duration":0.24895833333332007},{"name":"G3","midi":55,"time":137.75,"velocity":0.6299212598425197,"duration":0.24895833333332007},{"name":"E3","midi":52,"time":138,"velocity":0.6299212598425197,"duration":0.24895833333332007},{"name":"C3","midi":48,"time":138,"velocity":0.6299212598425197,"duration":0.24895833333332007},{"name":"A2","midi":45,"time":138,"velocity":0.6299212598425197,"duration":0.24895833333332007},{"name":"E3","midi":52,"time":138.25,"velocity":0.6299212598425197,"duration":0.24895833333332007},{"name":"E3","midi":52,"time":138.5,"velocity":0.6299212598425197,"duration":0.24895833333332007},{"name":"F3","midi":53,"time":138.75,"velocity":0.6299212598425197,"duration":0.24895833333332007},{"name":"D3","midi":50,"time":138.75,"velocity":0.6299212598425197,"duration":0.24895833333332007},{"name":"A#2","midi":46,"time":138.75,"velocity":0.6299212598425197,"duration":0.24895833333332007},{"name":"F3","midi":53,"time":139,"velocity":0.6299212598425197,"duration":0.24895833333332007},{"name":"F3","midi":53,"time":139.25,"velocity":0.6299212598425197,"duration":0.24895833333332007},{"name":"F3","midi":53,"time":139.5,"velocity":0.6299212598425197,"duration":0.24895833333332007},{"name":"F3","midi":53,"time":139.75,"velocity":0.6299212598425197,"duration":0.24895833333332007},{"name":"F3","midi":53,"time":140,"velocity":0.6299212598425197,"duration":0.24895833333332007},{"name":"D3","midi":50,"time":140,"velocity":0.6299212598425197,"duration":0.24895833333332007},{"name":"A#2","midi":46,"time":140,"velocity":0.6299212598425197,"duration":0.24895833333332007},{"name":"F3","midi":53,"time":140.25,"velocity":0.6299212598425197,"duration":0.24895833333332007},{"name":"F3","midi":53,"time":140.5,"velocity":0.6299212598425197,"duration":0.24895833333332007},{"name":"G3","midi":55,"time":140.75,"velocity":0.6299212598425197,"duration":0.24895833333332007},{"name":"E3","midi":52,"time":140.75,"velocity":0.6299212598425197,"duration":0.24895833333332007},{"name":"C3","midi":48,"time":140.75,"velocity":0.6299212598425197,"duration":0.24895833333332007},{"name":"G3","midi":55,"time":141,"velocity":0.6299212598425197,"duration":0.24895833333332007},{"name":"G3","midi":55,"time":141.25,"velocity":0.6299212598425197,"duration":0.24895833333332007},{"name":"E3","midi":52,"time":141.5,"velocity":0.6299212598425197,"duration":0.24895833333332007},{"name":"C3","midi":48,"time":141.5,"velocity":0.6299212598425197,"duration":0.24895833333332007},{"name":"A2","midi":45,"time":141.5,"velocity":0.6299212598425197,"duration":0.24895833333332007},{"name":"E3","midi":52,"time":141.75,"velocity":0.6299212598425197,"duration":0.24895833333332007},{"name":"E3","midi":52,"time":142,"velocity":0.6299212598425197,"duration":0.24895833333332007},{"name":"E3","midi":52,"time":142.25,"velocity":0.6299212598425197,"duration":0.24895833333332007},{"name":"E3","midi":52,"time":142.5,"velocity":0.6299212598425197,"duration":0.24895833333332007},{"name":"E3","midi":52,"time":142.75,"velocity":0.6299212598425197,"duration":0.24895833333332007},{"name":"F3","midi":53,"time":143,"velocity":0.6299212598425197,"duration":0.24895833333332007},{"name":"D3","midi":50,"time":143,"velocity":0.6299212598425197,"duration":0.24895833333332007},{"name":"A#2","midi":46,"time":143,"velocity":0.6299212598425197,"duration":0.24895833333332007},{"name":"F3","midi":53,"time":143.25,"velocity":0.6299212598425197,"duration":0.24895833333332007},{"name":"F3","midi":53,"time":143.5,"velocity":0.6299212598425197,"duration":0.24895833333332007},{"name":"F3","midi":53,"time":143.75,"velocity":0.6299212598425197,"duration":0.24895833333332007},{"name":"F4","midi":65,"time":144,"velocity":0.6299212598425197,"duration":0.24895833333332007},{"name":"F4","midi":65,"time":144.25,"velocity":0.6299212598425197,"duration":0.24895833333332007},{"name":"F4","midi":65,"time":144.5,"velocity":0.6299212598425197,"duration":0.24895833333332007},{"name":"G4","midi":67,"time":144.75,"velocity":0.6299212598425197,"duration":0.24895833333332007},{"name":"G4","midi":67,"time":145,"velocity":0.6299212598425197,"duration":0.24895833333332007},{"name":"G4","midi":67,"time":145.25,"velocity":0.6299212598425197,"duration":0.24895833333332007},{"name":"G4","midi":67,"time":145.5,"velocity":0.6299212598425197,"duration":0.24895833333332007},{"name":"G4","midi":67,"time":145.75,"velocity":0.6299212598425197,"duration":0.24895833333332007},{"name":"E4","midi":64,"time":146,"velocity":0.6299212598425197,"duration":0.24895833333332007},{"name":"E4","midi":64,"time":146.25,"velocity":0.6299212598425197,"duration":0.24895833333332007},{"name":"E4","midi":64,"time":146.5,"velocity":0.6299212598425197,"duration":0.24895833333332007},{"name":"F4","midi":65,"time":146.75,"velocity":0.6299212598425197,"duration":0.24895833333332007},{"name":"F4","midi":65,"time":147,"velocity":0.6299212598425197,"duration":0.24895833333332007},{"name":"F4","midi":65,"time":147.25,"velocity":0.6299212598425197,"duration":0.24895833333332007},{"name":"F4","midi":65,"time":147.5,"velocity":0.6299212598425197,"duration":0.24895833333332007},{"name":"F4","midi":65,"time":147.75,"velocity":0.6299212598425197,"duration":0.24895833333332007},{"name":"G2","midi":43,"time":148,"velocity":0.6299212598425197,"duration":0.49895833333332007},{"name":"D3","midi":50,"time":148.5,"velocity":0.6299212598425197,"duration":0.9989583333333201},{"name":"G2","midi":43,"time":149.5,"velocity":0.6299212598425197,"duration":0.49895833333332007},{"name":"E3","midi":52,"time":150,"velocity":0.6299212598425197,"duration":0.9989583333333201},{"name":"G2","midi":43,"time":151,"velocity":0.6299212598425197,"duration":0.49895833333332007},{"name":"D3","midi":50,"time":151.5,"velocity":0.6299212598425197,"duration":0.9989583333333201},{"name":"G2","midi":43,"time":152.5,"velocity":0.6299212598425197,"duration":0.49895833333332007},{"name":"E3","midi":52,"time":153,"velocity":0.6299212598425197,"duration":0.9989583333333201},{"name":"F2","midi":41,"time":154,"velocity":0.6299212598425197,"duration":0.49895833333332007},{"name":"C4","midi":60,"time":154.5,"velocity":0.6299212598425197,"duration":0.49895833333332007},{"name":"A3","midi":57,"time":155,"velocity":0.6299212598425197,"duration":0.49895833333332007},{"name":"C3","midi":48,"time":155.5,"velocity":0.6299212598425197,"duration":0.49895833333332007},{"name":"G3","midi":55,"time":156,"velocity":0.6299212598425197,"duration":0.49895833333332007},{"name":"B2","midi":47,"time":156.5,"velocity":0.6299212598425197,"duration":0.49895833333332007},{"name":"A#2","midi":46,"time":157,"velocity":0.6299212598425197,"duration":0.49895833333332007},{"name":"G3","midi":55,"time":157.5,"velocity":0.6299212598425197,"duration":0.49895833333332007},{"name":"E4","midi":64,"time":158,"velocity":0.6299212598425197,"duration":0.49895833333332007},{"name":"C4","midi":60,"time":158,"velocity":0.6299212598425197,"duration":0.49895833333332007},{"name":"A2","midi":45,"time":158.5,"velocity":0.6299212598425197,"duration":0.24895833333332007},{"name":"E3","midi":52,"time":158.75,"velocity":0.6299212598425197,"duration":0.24895833333332007},{"name":"B3","midi":59,"time":159,"velocity":0.6299212598425197,"duration":0.24895833333332007},{"name":"D4","midi":62,"time":159.25,"velocity":0.6299212598425197,"duration":0.24895833333332007},{"name":"A#3","midi":58,"time":159.5,"velocity":0.6299212598425197,"duration":0.49895833333332007},{"name":"G2","midi":43,"time":160,"velocity":0.6299212598425197,"duration":0.49895833333332007},{"name":"D3","midi":50,"time":160.5,"velocity":0.6299212598425197,"duration":0.9989583333333201},{"name":"G2","midi":43,"time":161.5,"velocity":0.6299212598425197,"duration":0.49895833333332007},{"name":"E3","midi":52,"time":162,"velocity":0.6299212598425197,"duration":0.9989583333333201},{"name":"G2","midi":43,"time":163,"velocity":0.6299212598425197,"duration":0.49895833333332007},{"name":"D3","midi":50,"time":163.5,"velocity":0.6299212598425197,"duration":0.9989583333333201},{"name":"G2","midi":43,"time":164.5,"velocity":0.6299212598425197,"duration":0.49895833333332007},{"name":"E3","midi":52,"time":165,"velocity":0.6299212598425197,"duration":0.9989583333333201},{"name":"F2","midi":41,"time":166,"velocity":0.6299212598425197,"duration":0.49895833333332007},{"name":"C4","midi":60,"time":166.5,"velocity":0.6299212598425197,"duration":0.49895833333332007},{"name":"A3","midi":57,"time":167,"velocity":0.6299212598425197,"duration":0.49895833333332007},{"name":"C3","midi":48,"time":167.5,"velocity":0.6299212598425197,"duration":0.49895833333332007},{"name":"G3","midi":55,"time":168,"velocity":0.6299212598425197,"duration":0.49895833333332007},{"name":"B2","midi":47,"time":168.5,"velocity":0.6299212598425197,"duration":0.49895833333332007},{"name":"A2","midi":45,"time":169,"velocity":0.6299212598425197,"duration":0.49895833333332007},{"name":"E3","midi":52,"time":169.5,"velocity":0.6299212598425197,"duration":0.49895833333332007},{"name":"A2","midi":45,"time":170,"velocity":0.6299212598425197,"duration":0.49895833333332007},{"name":"D2","midi":38,"time":170,"velocity":0.6299212598425197,"duration":0.49895833333332007},{"name":"D3","midi":50,"time":170.5,"velocity":0.6299212598425197,"duration":0.24895833333332007},{"name":"G2","midi":43,"time":170.5,"velocity":0.6299212598425197,"duration":0.24895833333332007},{"name":"D3","midi":50,"time":170.75,"velocity":0.6299212598425197,"duration":0.24895833333332007},{"name":"G3","midi":55,"time":171,"velocity":0.6299212598425197,"duration":0.24895833333332007},{"name":"A3","midi":57,"time":171.25,"velocity":0.6299212598425197,"duration":0.24895833333332007},{"name":"B3","midi":59,"time":171.5,"velocity":0.6299212598425197,"duration":0.24895833333332007},{"name":"D4","midi":62,"time":171.75,"velocity":0.6299212598425197,"duration":0.24895833333332007},{"name":"D3","midi":50,"time":172,"velocity":0.6299212598425197,"duration":0.24895833333332007},{"name":"B3","midi":59,"time":172.25,"velocity":0.6299212598425197,"duration":0.24895833333332007},{"name":"A3","midi":57,"time":172.5,"velocity":0.6299212598425197,"duration":0.24895833333332007},{"name":"D3","midi":50,"time":172.75,"velocity":0.6299212598425197,"duration":0.24895833333332007},{"name":"A2","midi":45,"time":173,"velocity":0.6299212598425197,"duration":0.49895833333332007},{"name":"D2","midi":38,"time":173,"velocity":0.6299212598425197,"duration":0.49895833333332007},{"name":"D3","midi":50,"time":173.5,"velocity":0.6299212598425197,"duration":0.24895833333332007},{"name":"G2","midi":43,"time":173.5,"velocity":0.6299212598425197,"duration":0.24895833333332007},{"name":"D3","midi":50,"time":173.75,"velocity":0.6299212598425197,"duration":0.24895833333332007},{"name":"G3","midi":55,"time":174,"velocity":0.6299212598425197,"duration":0.24895833333332007},{"name":"A3","midi":57,"time":174.25,"velocity":0.6299212598425197,"duration":0.24895833333332007},{"name":"B3","midi":59,"time":174.5,"velocity":0.6299212598425197,"duration":0.49895833333332007}]}]}