{"header":{"title":"Replay","artist":"SHINee","source":"https://musescore.com/user/2137271/scores/781761","bpm":100.00016666694445},"tracks":[{"instrument_number":0,"notes":[{"duration":0.26999955,"durationTicks":216,"midi":65,"name":"F4","ticks":0,"time":0,"velocity":0.7480314960629921},{"duration":0.26999955,"durationTicks":216,"midi":60,"name":"C4","ticks":0,"time":0,"velocity":0.7480314960629921},{"duration":0.5399991,"durationTicks":432,"midi":68,"name":"G#4","ticks":240,"time":0.2999995,"velocity":0.7480314960629921},{"duration":1.348747752083333,"durationTicks":1079,"midi":68,"name":"G#4","ticks":720,"time":0.8999984999999999,"velocity":0.7480314960629921},{"duration":0.2699995500000001,"durationTicks":216,"midi":63,"name":"D#4","ticks":1920,"time":2.399996,"velocity":0.7480314960629921},{"duration":0.5399990999999997,"durationTicks":432,"midi":67,"name":"G4","ticks":2160,"time":2.6999955,"velocity":0.7480314960629921},{"duration":1.3487477520833338,"durationTicks":1079,"midi":67,"name":"G4","ticks":2640,"time":3.2999944999999995,"velocity":0.7480314960629921},{"duration":0.26999954999999964,"durationTicks":216,"midi":65,"name":"F4","ticks":3840,"time":4.799992,"velocity":0.7480314960629921},{"duration":0.5399991000000002,"durationTicks":432,"midi":68,"name":"G#4","ticks":4080,"time":5.0999915,"velocity":0.7480314960629921},{"duration":1.3487477520833338,"durationTicks":1079,"midi":68,"name":"G#4","ticks":4560,"time":5.699990499999999,"velocity":0.7480314960629921},{"duration":0.26999954999999964,"durationTicks":216,"midi":65,"name":"F4","ticks":5760,"time":7.199987999999999,"velocity":0.7480314960629921},{"duration":0.26999954999999964,"durationTicks":216,"midi":63,"name":"D#4","ticks":5760,"time":7.199987999999999,"velocity":0.7480314960629921},{"duration":0.26999954999999964,"durationTicks":216,"midi":61,"name":"C#4","ticks":5760,"time":7.199987999999999,"velocity":0.7480314960629921},{"duration":0.5399990999999993,"durationTicks":432,"midi":68,"name":"G#4","ticks":6000,"time":7.4999875,"velocity":0.7480314960629921},{"duration":1.348747752083332,"durationTicks":1079,"midi":68,"name":"G#4","ticks":6480,"time":8.0999865,"velocity":0.7480314960629921},{"duration":0.26999954999999964,"durationTicks":216,"midi":65,"name":"F4","ticks":7680,"time":9.599984,"velocity":0.7480314960629921},{"duration":0.26999954999999964,"durationTicks":216,"midi":60,"name":"C4","ticks":7680,"time":9.599984,"velocity":0.7480314960629921},{"duration":0.5399990999999993,"durationTicks":432,"midi":68,"name":"G#4","ticks":7920,"time":9.8999835,"velocity":0.7480314960629921},{"duration":1.348747752083332,"durationTicks":1079,"midi":68,"name":"G#4","ticks":8400,"time":10.4999825,"velocity":0.7480314960629921},{"duration":0.26999954999999964,"durationTicks":216,"midi":63,"name":"D#4","ticks":9600,"time":11.999979999999999,"velocity":0.7480314960629921},{"duration":0.5399990999999993,"durationTicks":432,"midi":67,"name":"G4","ticks":9840,"time":12.2999795,"velocity":0.7480314960629921},{"duration":1.348747752083332,"durationTicks":1079,"midi":67,"name":"G4","ticks":10320,"time":12.8999785,"velocity":0.7480314960629921},{"duration":0.26999954999999964,"durationTicks":216,"midi":65,"name":"F4","ticks":11520,"time":14.399975999999999,"velocity":0.7480314960629921},{"duration":0.5399990999999993,"durationTicks":432,"midi":68,"name":"G#4","ticks":11760,"time":14.699975499999999,"velocity":0.7480314960629921},{"duration":1.348747752083332,"durationTicks":1079,"midi":68,"name":"G#4","ticks":12240,"time":15.2999745,"velocity":0.7480314960629921},{"duration":0.2699995500000014,"durationTicks":216,"midi":65,"name":"F4","ticks":13440,"time":16.799971999999997,"velocity":0.7480314960629921},{"duration":0.2699995500000014,"durationTicks":216,"midi":63,"name":"D#4","ticks":13440,"time":16.799971999999997,"velocity":0.7480314960629921},{"duration":0.2699995500000014,"durationTicks":216,"midi":61,"name":"C#4","ticks":13440,"time":16.799971999999997,"velocity":0.7480314960629921},{"duration":0.5399990999999993,"durationTicks":432,"midi":68,"name":"G#4","ticks":13680,"time":17.0999715,"velocity":0.7480314960629921},{"duration":1.3487477520833302,"durationTicks":1079,"midi":68,"name":"G#4","ticks":14160,"time":17.6999705,"velocity":0.7480314960629921},{"duration":0.2699995500000014,"durationTicks":216,"midi":68,"name":"G#4","ticks":15360,"time":19.199968,"velocity":0.7480314960629921},{"duration":0.2699995500000014,"durationTicks":216,"midi":65,"name":"F4","ticks":15360,"time":19.199968,"velocity":0.7480314960629921},{"duration":0.2699995500000014,"durationTicks":216,"midi":60,"name":"C4","ticks":15360,"time":19.199968,"velocity":0.7480314960629921},{"duration":0.269999550000005,"durationTicks":216,"midi":75,"name":"D#5","ticks":15600,"time":19.499967499999997,"velocity":0.7480314960629921},{"duration":0.2699995500000014,"durationTicks":216,"midi":72,"name":"C5","ticks":15840,"time":19.799967,"velocity":0.7480314960629921},{"duration":0.1349997750000007,"durationTicks":108,"midi":68,"name":"G#4","ticks":16080,"time":20.099966499999997,"velocity":0.7480314960629921},{"duration":0.1349997750000007,"durationTicks":108,"midi":68,"name":"G#4","ticks":16200,"time":20.24996625,"velocity":0.7480314960629921},{"duration":0.2699995500000014,"durationTicks":216,"midi":68,"name":"G#4","ticks":16320,"time":20.399966,"velocity":0.7480314960629921},{"duration":0.44874925208333494,"durationTicks":359,"midi":70,"name":"A#4","ticks":16560,"time":20.699965499999998,"velocity":0.7480314960629921},{"duration":0.1349997750000007,"durationTicks":108,"midi":68,"name":"G#4","ticks":16800,"time":20.999965,"velocity":0.7480314960629921},{"duration":0.1349997750000007,"durationTicks":108,"midi":65,"name":"F4","ticks":16800,"time":20.999965,"velocity":0.7480314960629921},{"duration":0.44874925208333494,"durationTicks":359,"midi":65,"name":"F4","ticks":16920,"time":21.14996475,"velocity":0.7480314960629921},{"duration":0.2699995500000014,"durationTicks":216,"midi":70,"name":"A#4","ticks":17280,"time":21.599964,"velocity":0.7480314960629921},{"duration":0.2699995500000014,"durationTicks":216,"midi":67,"name":"G4","ticks":17280,"time":21.599964,"velocity":0.7480314960629921},{"duration":0.2699995500000014,"durationTicks":216,"midi":63,"name":"D#4","ticks":17280,"time":21.599964,"velocity":0.7480314960629921},{"duration":0.2699995500000014,"durationTicks":216,"midi":75,"name":"D#5","ticks":17520,"time":21.8999635,"velocity":0.7480314960629921},{"duration":0.2699995500000014,"durationTicks":216,"midi":72,"name":"C5","ticks":17760,"time":22.199962999999997,"velocity":0.7480314960629921},{"duration":0.1349997750000007,"durationTicks":108,"midi":68,"name":"G#4","ticks":18000,"time":22.4999625,"velocity":0.7480314960629921},{"duration":0.1349997750000007,"durationTicks":108,"midi":65,"name":"F4","ticks":18120,"time":22.649962249999998,"velocity":0.7480314960629921},{"duration":0.1349997750000007,"durationTicks":108,"midi":68,"name":"G#4","ticks":18240,"time":22.799961999999997,"velocity":0.7480314960629921},{"duration":0.13499977500000426,"durationTicks":108,"midi":68,"name":"G#4","ticks":18360,"time":22.949961749999996,"velocity":0.7480314960629921},{"duration":0.44874925208333494,"durationTicks":359,"midi":70,"name":"A#4","ticks":18480,"time":23.0999615,"velocity":0.7480314960629921},{"duration":0.1349997750000007,"durationTicks":108,"midi":67,"name":"G4","ticks":18720,"time":23.399960999999998,"velocity":0.7480314960629921},{"duration":0.44874925208333494,"durationTicks":359,"midi":65,"name":"F4","ticks":18840,"time":23.549960749999997,"velocity":0.7480314960629921},{"duration":0.2699995500000014,"durationTicks":216,"midi":68,"name":"G#4","ticks":19200,"time":23.999959999999998,"velocity":0.7480314960629921},{"duration":0.2699995500000014,"durationTicks":216,"midi":65,"name":"F4","ticks":19200,"time":23.999959999999998,"velocity":0.7480314960629921},{"duration":0.2699995500000014,"durationTicks":216,"midi":60,"name":"C4","ticks":19200,"time":23.999959999999998,"velocity":0.7480314960629921},{"duration":0.269999550000005,"durationTicks":216,"midi":68,"name":"G#4","ticks":19440,"time":24.299959499999996,"velocity":0.7480314960629921},{"duration":0.2699995500000014,"durationTicks":216,"midi":68,"name":"G#4","ticks":19680,"time":24.599959,"velocity":0.7480314960629921},{"duration":0.2699995500000014,"durationTicks":216,"midi":70,"name":"A#4","ticks":19920,"time":24.899958499999997,"velocity":0.7480314960629921},{"duration":0.2699995500000014,"durationTicks":216,"midi":73,"name":"C#5","ticks":20160,"time":25.199958,"velocity":0.7480314960629921},{"duration":0.2699995500000014,"durationTicks":216,"midi":72,"name":"C5","ticks":20400,"time":25.499957499999997,"velocity":0.7480314960629921},{"duration":0.2699995500000014,"durationTicks":216,"midi":70,"name":"A#4","ticks":20640,"time":25.799957,"velocity":0.7480314960629921},{"duration":0.5987490020833341,"durationTicks":479,"midi":75,"name":"D#5","ticks":20880,"time":26.099956499999998,"velocity":0.7480314960629921},{"duration":0.269999550000005,"durationTicks":216,"midi":68,"name":"G#4","ticks":21120,"time":26.399955999999996,"velocity":0.7480314960629921},{"duration":0.269999550000005,"durationTicks":216,"midi":61,"name":"C#4","ticks":21120,"time":26.399955999999996,"velocity":0.7480314960629921},{"duration":0.5399990999999993,"durationTicks":432,"midi":72,"name":"C5","ticks":21360,"time":26.699955499999998,"velocity":0.7480314960629921},{"duration":0.5399990999999993,"durationTicks":432,"midi":61,"name":"C#4","ticks":21360,"time":26.699955499999998,"velocity":0.7480314960629921},{"duration":0.1349997750000007,"durationTicks":108,"midi":68,"name":"G#4","ticks":21840,"time":27.2999545,"velocity":0.7480314960629921},{"duration":0.1349997750000007,"durationTicks":108,"midi":68,"name":"G#4","ticks":21960,"time":27.449954249999998,"velocity":0.7480314960629921},{"duration":0.44874925208333494,"durationTicks":359,"midi":75,"name":"D#5","ticks":22080,"time":27.599953999999997,"velocity":0.7480314960629921},{"duration":0.1349997750000007,"durationTicks":108,"midi":73,"name":"C#5","ticks":22440,"time":28.049953249999998,"velocity":0.7480314960629921},{"duration":0.1349997750000007,"durationTicks":108,"midi":73,"name":"C#5","ticks":22560,"time":28.199952999999997,"velocity":0.7480314960629921},{"duration":0.1349997750000007,"durationTicks":108,"midi":72,"name":"C5","ticks":22680,"time":28.349952749999996,"velocity":0.7480314960629921},{"duration":0.2699995500000014,"durationTicks":216,"midi":70,"name":"A#4","ticks":22800,"time":28.4999525,"velocity":0.7480314960629921},{"duration":0.2699995500000014,"durationTicks":216,"midi":61,"name":"C#4","ticks":22800,"time":28.4999525,"velocity":0.7480314960629921},{"duration":0.2699995500000014,"durationTicks":216,"midi":68,"name":"G#4","ticks":23040,"time":28.799951999999998,"velocity":0.7480314960629921},{"duration":0.2699995500000014,"durationTicks":216,"midi":65,"name":"F4","ticks":23040,"time":28.799951999999998,"velocity":0.7480314960629921},{"duration":0.2699995500000014,"durationTicks":216,"midi":60,"name":"C4","ticks":23040,"time":28.799951999999998,"velocity":0.7480314960629921},{"duration":0.269999550000005,"durationTicks":216,"midi":75,"name":"D#5","ticks":23280,"time":29.099951499999996,"velocity":0.7480314960629921},{"duration":0.2699995500000014,"durationTicks":216,"midi":72,"name":"C5","ticks":23520,"time":29.399950999999998,"velocity":0.7480314960629921},{"duration":0.1349997750000007,"durationTicks":108,"midi":68,"name":"G#4","ticks":23760,"time":29.699950499999996,"velocity":0.7480314960629921},{"duration":0.1349997750000007,"durationTicks":108,"midi":68,"name":"G#4","ticks":23880,"time":29.84995025,"velocity":0.7480314960629921},{"duration":0.2699995500000014,"durationTicks":216,"midi":68,"name":"G#4","ticks":24000,"time":29.99995,"velocity":0.7480314960629921},{"duration":0.44874925208333494,"durationTicks":359,"midi":70,"name":"A#4","ticks":24240,"time":30.299949499999997,"velocity":0.7480314960629921},{"duration":0.1349997750000007,"durationTicks":108,"midi":68,"name":"G#4","ticks":24480,"time":30.599949,"velocity":0.7480314960629921},{"duration":0.1349997750000007,"durationTicks":108,"midi":65,"name":"F4","ticks":24480,"time":30.599949,"velocity":0.7480314960629921},{"duration":0.44874925208333494,"durationTicks":359,"midi":65,"name":"F4","ticks":24600,"time":30.749948749999998,"velocity":0.7480314960629921},{"duration":0.2699995500000014,"durationTicks":216,"midi":70,"name":"A#4","ticks":24960,"time":31.199948,"velocity":0.7480314960629921},{"duration":0.2699995500000014,"durationTicks":216,"midi":67,"name":"G4","ticks":24960,"time":31.199948,"velocity":0.7480314960629921},{"duration":0.2699995500000014,"durationTicks":216,"midi":63,"name":"D#4","ticks":24960,"time":31.199948,"velocity":0.7480314960629921},{"duration":0.2699995500000014,"durationTicks":216,"midi":75,"name":"D#5","ticks":25200,"time":31.499947499999998,"velocity":0.7480314960629921},{"duration":0.2699995500000014,"durationTicks":216,"midi":72,"name":"C5","ticks":25440,"time":31.799946999999996,"velocity":0.7480314960629921},{"duration":0.13499977500000426,"durationTicks":108,"midi":68,"name":"G#4","ticks":25680,"time":32.099946499999994,"velocity":0.7480314960629921},{"duration":0.13499977499999716,"durationTicks":108,"midi":68,"name":"G#4","ticks":25800,"time":32.24994625,"velocity":0.7480314960629921},{"duration":0.13499977499999716,"durationTicks":108,"midi":68,"name":"G#4","ticks":25920,"time":32.399946,"velocity":0.7480314960629921},{"duration":0.13499977499999716,"durationTicks":108,"midi":68,"name":"G#4","ticks":26040,"time":32.54994575,"velocity":0.7480314960629921},{"duration":0.2699995500000014,"durationTicks":216,"midi":70,"name":"A#4","ticks":26160,"time":32.6999455,"velocity":0.7480314960629921},{"duration":0.13499977500000426,"durationTicks":108,"midi":72,"name":"C5","ticks":26400,"time":32.999945,"velocity":0.7480314960629921},{"duration":0.13499977500000426,"durationTicks":108,"midi":63,"name":"D#4","ticks":26400,"time":32.999945,"velocity":0.7480314960629921},{"duration":0.13499977500000426,"durationTicks":108,"midi":70,"name":"A#4","ticks":26520,"time":33.149944749999996,"velocity":0.7480314960629921},{"duration":0.2699995500000014,"durationTicks":216,"midi":68,"name":"G#4","ticks":26640,"time":33.299944499999995,"velocity":0.7480314960629921},{"duration":0.2699995500000085,"durationTicks":216,"midi":68,"name":"G#4","ticks":26880,"time":33.599943999999994,"velocity":0.7480314960629921},{"duration":0.2699995500000085,"durationTicks":216,"midi":65,"name":"F4","ticks":26880,"time":33.599943999999994,"velocity":0.7480314960629921},{"duration":0.2699995500000085,"durationTicks":216,"midi":60,"name":"C4","ticks":26880,"time":33.599943999999994,"velocity":0.7480314960629921},{"duration":0.2699995500000014,"durationTicks":216,"midi":72,"name":"C5","ticks":27120,"time":33.8999435,"velocity":0.7480314960629921},{"duration":0.2699995500000014,"durationTicks":216,"midi":60,"name":"C4","ticks":27120,"time":33.8999435,"velocity":0.7480314960629921},{"duration":0.2699995500000014,"durationTicks":216,"midi":72,"name":"C5","ticks":27360,"time":34.199943,"velocity":0.7480314960629921},{"duration":0.13499977500000426,"durationTicks":108,"midi":70,"name":"A#4","ticks":27600,"time":34.499942499999996,"velocity":0.7480314960629921},{"duration":0.13499977500000426,"durationTicks":108,"midi":72,"name":"C5","ticks":27720,"time":34.649942249999995,"velocity":0.7480314960629921},{"duration":0.13499977500000426,"durationTicks":108,"midi":68,"name":"G#4","ticks":27960,"time":34.949941749999994,"velocity":0.7480314960629921},{"duration":0.13499977499999716,"durationTicks":108,"midi":68,"name":"G#4","ticks":28080,"time":35.0999415,"velocity":0.7480314960629921},{"duration":0.13499977499999716,"durationTicks":108,"midi":68,"name":"G#4","ticks":28200,"time":35.24994125,"velocity":0.7480314960629921},{"duration":0.2699995500000014,"durationTicks":216,"midi":68,"name":"G#4","ticks":28320,"time":35.399941,"velocity":0.7480314960629921},{"duration":0.2699995500000014,"durationTicks":216,"midi":60,"name":"C4","ticks":28320,"time":35.399941,"velocity":0.7480314960629921},{"duration":0.2699995500000014,"durationTicks":216,"midi":68,"name":"G#4","ticks":28560,"time":35.6999405,"velocity":0.7480314960629921},{"duration":0.4487492520833385,"durationTicks":359,"midi":75,"name":"D#5","ticks":28800,"time":35.999939999999995,"velocity":0.7480314960629921},{"duration":0.4487492520833385,"durationTicks":359,"midi":63,"name":"D#4","ticks":28800,"time":35.999939999999995,"velocity":0.7480314960629921},{"duration":0.2699995500000014,"durationTicks":216,"midi":73,"name":"C#5","ticks":29160,"time":36.44993925,"velocity":0.7480314960629921},{"duration":0.13499977499999716,"durationTicks":108,"midi":72,"name":"C5","ticks":29400,"time":36.74993875,"velocity":0.7480314960629921},{"duration":0.2699995500000014,"durationTicks":216,"midi":70,"name":"A#4","ticks":29520,"time":36.8999385,"velocity":0.7480314960629921},{"duration":0.13499977500000426,"durationTicks":108,"midi":68,"name":"G#4","ticks":29760,"time":37.199937999999996,"velocity":0.7480314960629921},{"duration":0.13499977500000426,"durationTicks":108,"midi":72,"name":"C5","ticks":29880,"time":37.349937749999995,"velocity":0.7480314960629921},{"duration":0.0012499979166662456,"durationTicks":1,"midi":72,"name":"C5","ticks":30000,"time":37.499937499999994,"velocity":0.7480314960629921},{"duration":0.2987495020833393,"durationTicks":239,"midi":70,"name":"A#4","ticks":30000,"time":37.499937499999994,"velocity":0.7480314960629921},{"duration":0.2699995500000014,"durationTicks":216,"midi":68,"name":"G#4","ticks":30240,"time":37.799937,"velocity":0.7480314960629921},{"duration":0.2699995500000014,"durationTicks":216,"midi":61,"name":"C#4","ticks":30240,"time":37.799937,"velocity":0.7480314960629921},{"duration":0.2699995500000014,"durationTicks":216,"midi":70,"name":"A#4","ticks":30480,"time":38.0999365,"velocity":0.7480314960629921},{"duration":0.2699995500000014,"durationTicks":216,"midi":72,"name":"C5","ticks":30720,"time":38.399936,"velocity":0.7480314960629921},{"duration":0.2699995500000014,"durationTicks":216,"midi":60,"name":"C4","ticks":30720,"time":38.399936,"velocity":0.7480314960629921},{"duration":0.2699995500000014,"durationTicks":216,"midi":75,"name":"D#5","ticks":30960,"time":38.699935499999995,"velocity":0.7480314960629921},{"duration":0.53999910000001,"durationTicks":432,"midi":72,"name":"C5","ticks":31200,"time":38.999934999999994,"velocity":0.7480314960629921},{"duration":0.2699995500000014,"durationTicks":216,"midi":72,"name":"C5","ticks":31680,"time":39.599934,"velocity":0.7480314960629921},{"duration":0.2699995500000014,"durationTicks":216,"midi":70,"name":"A#4","ticks":31920,"time":39.899933499999996,"velocity":0.7480314960629921},{"duration":0.2699995500000014,"durationTicks":216,"midi":68,"name":"G#4","ticks":32160,"time":40.199932999999994,"velocity":0.7480314960629921},{"duration":0.2699995500000014,"durationTicks":216,"midi":70,"name":"A#4","ticks":32400,"time":40.4999325,"velocity":0.7480314960629921},{"duration":0.2699995500000014,"durationTicks":216,"midi":72,"name":"C5","ticks":32640,"time":40.799932,"velocity":0.7480314960629921},{"duration":0.2699995500000014,"durationTicks":216,"midi":63,"name":"D#4","ticks":32640,"time":40.799932,"velocity":0.7480314960629921},{"duration":0.2699995500000014,"durationTicks":216,"midi":75,"name":"D#5","ticks":32880,"time":41.0999315,"velocity":0.7480314960629921},{"duration":0.2699995500000014,"durationTicks":216,"midi":72,"name":"C5","ticks":33120,"time":41.399930999999995,"velocity":0.7480314960629921},{"duration":0.2699995500000014,"durationTicks":216,"midi":68,"name":"G#4","ticks":33360,"time":41.699930499999994,"velocity":0.7480314960629921},{"duration":0.4487492520833314,"durationTicks":359,"midi":80,"name":"G#5","ticks":33600,"time":41.99993,"velocity":0.7480314960629921},{"duration":0.13499977499999716,"durationTicks":108,"midi":79,"name":"G5","ticks":33960,"time":42.44992925,"velocity":0.7480314960629921},{"duration":0.13499977499999716,"durationTicks":108,"midi":77,"name":"F5","ticks":34080,"time":42.599928999999996,"velocity":0.7480314960629921},{"duration":0.13499977499999716,"durationTicks":108,"midi":75,"name":"D#5","ticks":34200,"time":42.749928749999995,"velocity":0.7480314960629921},{"duration":0.2699995500000014,"durationTicks":216,"midi":75,"name":"D#5","ticks":34320,"time":42.899928499999994,"velocity":0.7480314960629921},{"duration":0.2699995500000014,"durationTicks":216,"midi":72,"name":"C5","ticks":34560,"time":43.199928,"velocity":0.7480314960629921},{"duration":0.2699995500000014,"durationTicks":216,"midi":60,"name":"C4","ticks":34560,"time":43.199928,"velocity":0.7480314960629921},{"duration":0.2699995500000014,"durationTicks":216,"midi":68,"name":"G#4","ticks":34800,"time":43.4999275,"velocity":0.7480314960629921},{"duration":0.5399991000000028,"durationTicks":432,"midi":70,"name":"A#4","ticks":35040,"time":43.799927,"velocity":0.7480314960629921},{"duration":0.4487492520833385,"durationTicks":359,"midi":72,"name":"C5","ticks":35520,"time":44.399925999999994,"velocity":0.7480314960629921},{"duration":0.13499977499999716,"durationTicks":108,"midi":70,"name":"A#4","ticks":35880,"time":44.84992525,"velocity":0.7480314960629921},{"duration":0.2699995500000014,"durationTicks":216,"midi":70,"name":"A#4","ticks":36000,"time":44.999925,"velocity":0.7480314960629921},{"duration":0.2699995500000014,"durationTicks":216,"midi":68,"name":"G#4","ticks":36240,"time":45.299924499999996,"velocity":0.7480314960629921},{"duration":0.5399991000000028,"durationTicks":432,"midi":65,"name":"F4","ticks":36480,"time":45.599923999999994,"velocity":0.7480314960629921},{"duration":0.5399991000000028,"durationTicks":432,"midi":61,"name":"C#4","ticks":36480,"time":45.599923999999994,"velocity":0.7480314960629921},{"duration":0.13499977499999716,"durationTicks":108,"midi":68,"name":"G#4","ticks":37200,"time":46.4999225,"velocity":0.7480314960629921},{"duration":0.13499977499999716,"durationTicks":108,"midi":70,"name":"A#4","ticks":37320,"time":46.649922249999996,"velocity":0.7480314960629921},{"duration":0.2699995500000014,"durationTicks":216,"midi":72,"name":"C5","ticks":37440,"time":46.799921999999995,"velocity":0.7480314960629921},{"duration":0.2699995500000014,"durationTicks":216,"midi":70,"name":"A#4","ticks":37680,"time":47.099921499999994,"velocity":0.7480314960629921},{"duration":0.2699995500000014,"durationTicks":216,"midi":68,"name":"G#4","ticks":37920,"time":47.399921,"velocity":0.7480314960629921},{"duration":0.2699995500000014,"durationTicks":216,"midi":70,"name":"A#4","ticks":38160,"time":47.6999205,"velocity":0.7480314960629921},{"duration":0.2699995500000014,"durationTicks":216,"midi":72,"name":"C5","ticks":38400,"time":47.999919999999996,"velocity":0.7480314960629921},{"duration":0.2699995500000014,"durationTicks":216,"midi":65,"name":"F4","ticks":38400,"time":47.999919999999996,"velocity":0.7480314960629921},{"duration":0.2699995500000014,"durationTicks":216,"midi":75,"name":"D#5","ticks":38640,"time":48.299919499999994,"velocity":0.7480314960629921},{"duration":0.53999910000001,"durationTicks":432,"midi":72,"name":"C5","ticks":38880,"time":48.59991899999999,"velocity":0.7480314960629921},{"duration":0.2699995500000014,"durationTicks":216,"midi":72,"name":"C5","ticks":39360,"time":49.199918,"velocity":0.7480314960629921},{"duration":0.2699995500000014,"durationTicks":216,"midi":70,"name":"A#4","ticks":39600,"time":49.499917499999995,"velocity":0.7480314960629921},{"duration":0.2699995500000014,"durationTicks":216,"midi":68,"name":"G#4","ticks":39840,"time":49.79991699999999,"velocity":0.7480314960629921},{"duration":0.2699995500000014,"durationTicks":216,"midi":70,"name":"A#4","ticks":40080,"time":50.0999165,"velocity":0.7480314960629921},{"duration":0.2699995500000014,"durationTicks":216,"midi":72,"name":"C5","ticks":40320,"time":50.399916,"velocity":0.7480314960629921},{"duration":0.2699995500000014,"durationTicks":216,"midi":63,"name":"D#4","ticks":40320,"time":50.399916,"velocity":0.7480314960629921},{"duration":0.2699995500000014,"durationTicks":216,"midi":75,"name":"D#5","ticks":40560,"time":50.699915499999996,"velocity":0.7480314960629921},{"duration":0.5399991000000028,"durationTicks":432,"midi":77,"name":"F5","ticks":40800,"time":50.999914999999994,"velocity":0.7480314960629921},{"duration":0.4487492520833314,"durationTicks":359,"midi":80,"name":"G#5","ticks":41280,"time":51.599914,"velocity":0.7480314960629921},{"duration":0.13499977499999716,"durationTicks":108,"midi":79,"name":"G5","ticks":41640,"time":52.049913249999996,"velocity":0.7480314960629921},{"duration":0.2699995500000014,"durationTicks":216,"midi":77,"name":"F5","ticks":41760,"time":52.199912999999995,"velocity":0.7480314960629921},{"duration":0.2699995500000014,"durationTicks":216,"midi":75,"name":"D#5","ticks":42000,"time":52.49991249999999,"velocity":0.7480314960629921},{"duration":0.2699995500000085,"durationTicks":216,"midi":72,"name":"C5","ticks":42240,"time":52.79991199999999,"velocity":0.7480314960629921},{"duration":0.2699995500000085,"durationTicks":216,"midi":65,"name":"F4","ticks":42240,"time":52.79991199999999,"velocity":0.7480314960629921},{"duration":0.2699995500000014,"durationTicks":216,"midi":68,"name":"G#4","ticks":42480,"time":53.0999115,"velocity":0.7480314960629921},{"duration":0.06749988749999858,"durationTicks":54,"midi":68,"name":"G#4","ticks":42720,"time":53.399910999999996,"velocity":0.7480314960629921},{"duration":-0.007499987499997474,"durationTicks":-6,"midi":70,"name":"A#4","ticks":42780,"time":53.47491087499999,"velocity":0.7480314960629921},{"duration":0.06749988749999858,"durationTicks":54,"midi":72,"name":"C5","ticks":42840,"time":53.549910749999995,"velocity":0.7480314960629921},{"duration":-0.007499987500004579,"durationTicks":-6,"midi":70,"name":"A#4","ticks":42900,"time":53.624910625,"velocity":0.7480314960629921},{"duration":0.8987485020833361,"durationTicks":719,"midi":68,"name":"G#4","ticks":42960,"time":53.699910499999994,"velocity":0.7480314960629921},{"duration":0.13499977499999716,"durationTicks":108,"midi":68,"name":"G#4","ticks":43920,"time":54.899908499999995,"velocity":0.7480314960629921},{"duration":0.13499977499999716,"durationTicks":108,"midi":70,"name":"A#4","ticks":44040,"time":55.049908249999994,"velocity":0.7480314960629921},{"duration":0.2699995500000014,"durationTicks":216,"midi":72,"name":"C5","ticks":44160,"time":55.19990799999999,"velocity":0.7480314960629921},{"duration":0.2699995500000014,"durationTicks":216,"midi":65,"name":"F4","ticks":44160,"time":55.19990799999999,"velocity":0.7480314960629921},{"duration":0.2699995500000085,"durationTicks":216,"midi":75,"name":"D#5","ticks":44400,"time":55.49990749999999,"velocity":0.7480314960629921},{"duration":0.5399991000000028,"durationTicks":432,"midi":72,"name":"C5","ticks":44640,"time":55.799907,"velocity":0.7480314960629921},{"duration":0.2699995500000014,"durationTicks":216,"midi":72,"name":"C5","ticks":45120,"time":56.399905999999994,"velocity":0.7480314960629921},{"duration":0.2699995500000014,"durationTicks":216,"midi":75,"name":"D#5","ticks":45360,"time":56.69990549999999,"velocity":0.7480314960629921},{"duration":0.2699995500000014,"durationTicks":216,"midi":77,"name":"F5","ticks":45600,"time":56.999905,"velocity":0.7480314960629921},{"duration":0.2699995500000014,"durationTicks":216,"midi":75,"name":"D#5","ticks":45840,"time":57.2999045,"velocity":0.7480314960629921},{"duration":0.5399991000000028,"durationTicks":432,"midi":72,"name":"C5","ticks":46080,"time":57.599903999999995,"velocity":0.7480314960629921},{"duration":0.2699995500000014,"durationTicks":216,"midi":75,"name":"D#5","ticks":46560,"time":58.19990299999999,"velocity":0.7480314960629921},{"duration":0.2699995500000014,"durationTicks":216,"midi":72,"name":"C5","ticks":46800,"time":58.4999025,"velocity":0.7480314960629921},{"duration":0.13499977499999716,"durationTicks":108,"midi":72,"name":"C5","ticks":47160,"time":58.949901749999995,"velocity":0.7480314960629921},{"duration":0.13499977499999716,"durationTicks":108,"midi":70,"name":"A#4","ticks":47280,"time":59.099901499999994,"velocity":0.7480314960629921},{"duration":0.13499977499999716,"durationTicks":108,"midi":72,"name":"C5","ticks":47400,"time":59.24990124999999,"velocity":0.7480314960629921},{"duration":0.13499977499999716,"durationTicks":108,"midi":70,"name":"A#4","ticks":47520,"time":59.39990099999999,"velocity":0.7480314960629921},{"duration":0.13499977499999716,"durationTicks":108,"midi":68,"name":"G#4","ticks":47640,"time":59.54990074999999,"velocity":0.7480314960629921},{"duration":0.13499977499999005,"durationTicks":108,"midi":65,"name":"F4","ticks":47760,"time":59.6999005,"velocity":0.7480314960629921},{"duration":0.13499977499999716,"durationTicks":108,"midi":63,"name":"D#4","ticks":47880,"time":59.84990025,"velocity":0.7480314960629921},{"duration":0.5399991000000028,"durationTicks":432,"midi":72,"name":"C5","ticks":48000,"time":59.9999,"velocity":0.7480314960629921},{"duration":0.2699995500000014,"durationTicks":216,"midi":75,"name":"D#5","ticks":48480,"time":60.59989899999999,"velocity":0.7480314960629921},{"duration":0.2699995500000014,"durationTicks":216,"midi":72,"name":"C5","ticks":48720,"time":60.89989849999999,"velocity":0.7480314960629921},{"duration":0.13499977499999716,"durationTicks":108,"midi":72,"name":"C5","ticks":49080,"time":61.34989775,"velocity":0.7480314960629921},{"duration":0.13499977499999716,"durationTicks":108,"midi":70,"name":"A#4","ticks":49200,"time":61.499897499999996,"velocity":0.7480314960629921},{"duration":0.13499977499999716,"durationTicks":108,"midi":72,"name":"C5","ticks":49320,"time":61.649897249999995,"velocity":0.7480314960629921},{"duration":0.13499977499999716,"durationTicks":108,"midi":70,"name":"A#4","ticks":49440,"time":61.799896999999994,"velocity":0.7480314960629921},{"duration":0.13499977499999716,"durationTicks":108,"midi":68,"name":"G#4","ticks":49560,"time":61.94989674999999,"velocity":0.7480314960629921},{"duration":0.13499977499999716,"durationTicks":108,"midi":65,"name":"F4","ticks":49680,"time":62.09989649999999,"velocity":0.7480314960629921},{"duration":0.13499977499999716,"durationTicks":108,"midi":63,"name":"D#4","ticks":49800,"time":62.24989624999999,"velocity":0.7480314960629921},{"duration":0.5399991000000028,"durationTicks":432,"midi":79,"name":"G5","ticks":49920,"time":62.399896,"velocity":0.7480314960629921},{"duration":0.5399991000000028,"durationTicks":432,"midi":75,"name":"D#5","ticks":50400,"time":62.999894999999995,"velocity":0.7480314960629921},{"duration":0.5399991000000028,"durationTicks":432,"midi":72,"name":"C5","ticks":50880,"time":63.59989399999999,"velocity":0.7480314960629921},{"duration":0.5399991000000028,"durationTicks":432,"midi":70,"name":"A#4","ticks":51360,"time":64.19989299999999,"velocity":0.7480314960629921},{"duration":0.5399991000000028,"durationTicks":432,"midi":70,"name":"A#4","ticks":51840,"time":64.799892,"velocity":0.7480314960629921},{"duration":0.2699995499999943,"durationTicks":216,"midi":72,"name":"C5","ticks":52320,"time":65.399891,"velocity":0.7480314960629921},{"duration":0.2699995499999943,"durationTicks":216,"midi":63,"name":"D#4","ticks":52560,"time":65.6998905,"velocity":0.7480314960629921},{"duration":0.2699995500000085,"durationTicks":216,"midi":63,"name":"D#4","ticks":52800,"time":65.99989,"velocity":0.7480314960629921},{"duration":0.2699995500000085,"durationTicks":216,"midi":65,"name":"F4","ticks":53040,"time":66.29988949999999,"velocity":0.7480314960629921},{"duration":0.2699995500000085,"durationTicks":216,"midi":68,"name":"G#4","ticks":53280,"time":66.59988899999999,"velocity":0.7480314960629921},{"duration":0.2699995500000085,"durationTicks":216,"midi":70,"name":"A#4","ticks":53520,"time":66.89988849999999,"velocity":0.7480314960629921},{"duration":0.539999100000017,"durationTicks":432,"midi":72,"name":"C5","ticks":53760,"time":67.19988799999999,"velocity":0.7480314960629921},{"duration":0.2699995499999943,"durationTicks":216,"midi":75,"name":"D#5","ticks":54240,"time":67.799887,"velocity":0.7480314960629921},{"duration":0.2699995499999943,"durationTicks":216,"midi":72,"name":"C5","ticks":54480,"time":68.0998865,"velocity":0.7480314960629921},{"duration":0.13499977499999716,"durationTicks":108,"midi":72,"name":"C5","ticks":54840,"time":68.54988574999999,"velocity":0.7480314960629921},{"duration":0.13499977499999716,"durationTicks":108,"midi":70,"name":"A#4","ticks":54960,"time":68.6998855,"velocity":0.7480314960629921},{"duration":0.13499977499999716,"durationTicks":108,"midi":72,"name":"C5","ticks":55080,"time":68.84988525,"velocity":0.7480314960629921},{"duration":0.13499977499999716,"durationTicks":108,"midi":70,"name":"A#4","ticks":55200,"time":68.99988499999999,"velocity":0.7480314960629921},{"duration":0.13499977499999716,"durationTicks":108,"midi":68,"name":"G#4","ticks":55320,"time":69.14988475,"velocity":0.7480314960629921},{"duration":0.13499977499999716,"durationTicks":108,"midi":65,"name":"F4","ticks":55440,"time":69.29988449999999,"velocity":0.7480314960629921},{"duration":0.13499977499999716,"durationTicks":108,"midi":63,"name":"D#4","ticks":55560,"time":69.44988425,"velocity":0.7480314960629921},{"duration":0.5399991000000028,"durationTicks":432,"midi":72,"name":"C5","ticks":55680,"time":69.59988399999999,"velocity":0.7480314960629921},{"duration":0.2699995499999943,"durationTicks":216,"midi":75,"name":"D#5","ticks":56160,"time":70.199883,"velocity":0.7480314960629921},{"duration":0.2699995499999943,"durationTicks":216,"midi":72,"name":"C5","ticks":56400,"time":70.4998825,"velocity":0.7480314960629921},{"duration":0.13499977499999716,"durationTicks":108,"midi":72,"name":"C5","ticks":56760,"time":70.94988174999999,"velocity":0.7480314960629921},{"duration":0.13499977499999716,"durationTicks":108,"midi":70,"name":"A#4","ticks":56880,"time":71.0998815,"velocity":0.7480314960629921},{"duration":0.13499977499999716,"durationTicks":108,"midi":72,"name":"C5","ticks":57000,"time":71.24988124999999,"velocity":0.7480314960629921},{"duration":0.13499977499999716,"durationTicks":108,"midi":70,"name":"A#4","ticks":57120,"time":71.399881,"velocity":0.7480314960629921},{"duration":0.13499977499999716,"durationTicks":108,"midi":68,"name":"G#4","ticks":57240,"time":71.54988075,"velocity":0.7480314960629921},{"duration":0.13499977499999716,"durationTicks":108,"midi":65,"name":"F4","ticks":57360,"time":71.69988049999999,"velocity":0.7480314960629921},{"duration":0.13499977499999716,"durationTicks":108,"midi":63,"name":"D#4","ticks":57480,"time":71.84988025,"velocity":0.7480314960629921},{"duration":0.5399991000000028,"durationTicks":432,"midi":79,"name":"G5","ticks":57600,"time":71.99987999999999,"velocity":0.7480314960629921},{"duration":0.539999100000017,"durationTicks":432,"midi":75,"name":"D#5","ticks":58080,"time":72.59987899999999,"velocity":0.7480314960629921},{"duration":0.5399991000000028,"durationTicks":432,"midi":72,"name":"C5","ticks":58560,"time":73.199878,"velocity":0.7480314960629921},{"duration":0.5399991000000028,"durationTicks":432,"midi":70,"name":"A#4","ticks":59040,"time":73.799877,"velocity":0.7480314960629921},{"duration":0.5399991000000028,"durationTicks":432,"midi":70,"name":"A#4","ticks":59520,"time":74.39987599999999,"velocity":0.7480314960629921},{"duration":0.5399991000000028,"durationTicks":432,"midi":68,"name":"G#4","ticks":60000,"time":74.99987499999999,"velocity":0.7480314960629921},{"duration":0.13499977499999716,"durationTicks":108,"midi":75,"name":"D#5","ticks":60720,"time":75.8998735,"velocity":0.7480314960629921},{"duration":0.13499977499999716,"durationTicks":108,"midi":72,"name":"C5","ticks":60840,"time":76.04987324999999,"velocity":0.7480314960629921},{"duration":0.13499977499999716,"durationTicks":108,"midi":70,"name":"A#4","ticks":60960,"time":76.199873,"velocity":0.7480314960629921},{"duration":0.13499977499999716,"durationTicks":108,"midi":72,"name":"C5","ticks":61080,"time":76.34987274999999,"velocity":0.7480314960629921},{"duration":0.13499977499999716,"durationTicks":108,"midi":70,"name":"A#4","ticks":61200,"time":76.4998725,"velocity":0.7480314960629921},{"duration":0.13499977499999716,"durationTicks":108,"midi":68,"name":"G#4","ticks":61320,"time":76.64987224999999,"velocity":0.7480314960629921},{"duration":0.2699995499999943,"durationTicks":216,"midi":75,"name":"D#5","ticks":61680,"time":77.09987149999999,"velocity":0.7480314960629921},{"duration":0.2699995499999943,"durationTicks":216,"midi":72,"name":"C5","ticks":61920,"time":77.39987099999999,"velocity":0.7480314960629921},{"duration":0.13499977499999716,"durationTicks":108,"midi":68,"name":"G#4","ticks":62160,"time":77.69987049999999,"velocity":0.7480314960629921},{"duration":0.13499977499999716,"durationTicks":108,"midi":68,"name":"G#4","ticks":62280,"time":77.84987025,"velocity":0.7480314960629921},{"duration":0.2699995499999943,"durationTicks":216,"midi":68,"name":"G#4","ticks":62400,"time":77.99986999999999,"velocity":0.7480314960629921},{"duration":0.4487492520833314,"durationTicks":359,"midi":70,"name":"A#4","ticks":62640,"time":78.2998695,"velocity":0.7480314960629921},{"duration":0.4487492520833314,"durationTicks":359,"midi":65,"name":"F4","ticks":63000,"time":78.74986874999999,"velocity":0.7480314960629921},{"duration":0.2699995499999943,"durationTicks":216,"midi":75,"name":"D#5","ticks":63600,"time":79.4998675,"velocity":0.7480314960629921},{"duration":0.2699995499999943,"durationTicks":216,"midi":72,"name":"C5","ticks":63840,"time":79.79986699999999,"velocity":0.7480314960629921},{"duration":0.13499977499999716,"durationTicks":108,"midi":68,"name":"G#4","ticks":64080,"time":80.09986649999999,"velocity":0.7480314960629921},{"duration":0.13499977499999716,"durationTicks":108,"midi":68,"name":"G#4","ticks":64200,"time":80.24986625,"velocity":0.7480314960629921},{"duration":0.13499977499999716,"durationTicks":108,"midi":68,"name":"G#4","ticks":64320,"time":80.39986599999999,"velocity":0.7480314960629921},{"duration":0.13499977499999716,"durationTicks":108,"midi":68,"name":"G#4","ticks":64440,"time":80.54986575,"velocity":0.7480314960629921},{"duration":0.2699995499999943,"durationTicks":216,"midi":70,"name":"A#4","ticks":64560,"time":80.69986549999999,"velocity":0.7480314960629921},{"duration":0.13499977499998295,"durationTicks":108,"midi":70,"name":"A#4","ticks":64800,"time":80.999865,"velocity":0.7480314960629921},{"duration":0.13499977499999716,"durationTicks":108,"midi":72,"name":"C5","ticks":64920,"time":81.14986474999999,"velocity":0.7480314960629921},{"duration":0.13499977499999716,"durationTicks":108,"midi":70,"name":"A#4","ticks":65040,"time":81.2998645,"velocity":0.7480314960629921},{"duration":0.13499977499999716,"durationTicks":108,"midi":68,"name":"G#4","ticks":65160,"time":81.44986424999999,"velocity":0.7480314960629921},{"duration":0.2699995499999943,"durationTicks":216,"midi":72,"name":"C5","ticks":65520,"time":81.8998635,"velocity":0.7480314960629921},{"duration":0.2699995499999943,"durationTicks":216,"midi":72,"name":"C5","ticks":65760,"time":82.199863,"velocity":0.7480314960629921},{"duration":0.13499977499999716,"durationTicks":108,"midi":70,"name":"A#4","ticks":66000,"time":82.49986249999999,"velocity":0.7480314960629921},{"duration":0.2699995499999943,"durationTicks":216,"midi":72,"name":"C5","ticks":66120,"time":82.64986225,"velocity":0.7480314960629921},{"duration":0.4487492520833314,"durationTicks":359,"midi":75,"name":"D#5","ticks":66360,"time":82.94986175,"velocity":0.7480314960629921},{"duration":0.2699995499999943,"durationTicks":216,"midi":72,"name":"C5","ticks":66720,"time":83.39986099999999,"velocity":0.7480314960629921},{"duration":0.13499977499998295,"durationTicks":108,"midi":72,"name":"C5","ticks":66960,"time":83.6998605,"velocity":0.7480314960629921},{"duration":0.13499977499999716,"durationTicks":108,"midi":70,"name":"A#4","ticks":67080,"time":83.84986024999999,"velocity":0.7480314960629921},{"duration":0.13499977499999716,"durationTicks":108,"midi":72,"name":"C5","ticks":67200,"time":83.99986,"velocity":0.7480314960629921},{"duration":0.13499977499999716,"durationTicks":108,"midi":72,"name":"C5","ticks":67320,"time":84.14985974999999,"velocity":0.7480314960629921},{"duration":0.13499977499999716,"durationTicks":108,"midi":70,"name":"A#4","ticks":67440,"time":84.2998595,"velocity":0.7480314960629921},{"duration":0.2699995499999943,"durationTicks":216,"midi":72,"name":"C5","ticks":67560,"time":84.44985924999999,"velocity":0.7480314960629921},{"duration":0.2699995499999943,"durationTicks":216,"midi":70,"name":"A#4","ticks":67800,"time":84.74985874999999,"velocity":0.7480314960629921},{"duration":0.2699995499999801,"durationTicks":216,"midi":72,"name":"C5","ticks":68040,"time":85.04985825,"velocity":0.7480314960629921},{"duration":0.4487492520833314,"durationTicks":359,"midi":75,"name":"D#5","ticks":68280,"time":85.34985775,"velocity":0.7480314960629921},{"duration":0.13499977499999716,"durationTicks":108,"midi":68,"name":"G#4","ticks":68880,"time":86.09985649999999,"velocity":0.7480314960629921},{"duration":0.13499977499999716,"durationTicks":108,"midi":70,"name":"A#4","ticks":69000,"time":86.24985625,"velocity":0.7480314960629921},{"duration":0.2699995499999943,"durationTicks":216,"midi":75,"name":"D#5","ticks":69360,"time":86.6998555,"velocity":0.7480314960629921},{"duration":0.13499977499999716,"durationTicks":108,"midi":72,"name":"C5","ticks":69600,"time":86.999855,"velocity":0.7480314960629921},{"duration":0.13499977499999716,"durationTicks":108,"midi":72,"name":"C5","ticks":69720,"time":87.14985474999999,"velocity":0.7480314960629921},{"duration":0.13499977499999716,"durationTicks":108,"midi":68,"name":"G#4","ticks":69840,"time":87.2998545,"velocity":0.7480314960629921},{"duration":0.13499977499999716,"durationTicks":108,"midi":68,"name":"G#4","ticks":69960,"time":87.44985424999999,"velocity":0.7480314960629921},{"duration":0.2699995499999943,"durationTicks":216,"midi":68,"name":"G#4","ticks":70080,"time":87.599854,"velocity":0.7480314960629921},{"duration":0.4487492520833314,"durationTicks":359,"midi":70,"name":"A#4","ticks":70320,"time":87.89985349999999,"velocity":0.7480314960629921},{"duration":0.4487492520833314,"durationTicks":359,"midi":65,"name":"F4","ticks":70680,"time":88.34985275,"velocity":0.7480314960629921},{"duration":0.2699995499999943,"durationTicks":216,"midi":75,"name":"D#5","ticks":71280,"time":89.09985149999999,"velocity":0.7480314960629921},{"duration":0.4487492520833314,"durationTicks":359,"midi":72,"name":"C5","ticks":71520,"time":89.399851,"velocity":0.7480314960629921},{"duration":0.4487492520833314,"durationTicks":359,"midi":77,"name":"F5","ticks":71880,"time":89.84985024999999,"velocity":0.7480314960629921},{"duration":0.2699995499999943,"durationTicks":216,"midi":72,"name":"C5","ticks":72240,"time":90.2998495,"velocity":0.7480314960629921},{"duration":0.13499977499999716,"durationTicks":108,"midi":70,"name":"A#4","ticks":72480,"time":90.59984899999999,"velocity":0.7480314960629921},{"duration":0.13499977499999716,"durationTicks":108,"midi":72,"name":"C5","ticks":72600,"time":90.74984875,"velocity":0.7480314960629921},{"duration":0.13499977499999716,"durationTicks":108,"midi":70,"name":"A#4","ticks":72720,"time":90.89984849999999,"velocity":0.7480314960629921},{"duration":0.13499977499999716,"durationTicks":108,"midi":68,"name":"G#4","ticks":72840,"time":91.04984825,"velocity":0.7480314960629921},{"duration":0.13499977499999716,"durationTicks":108,"midi":72,"name":"C5","ticks":73200,"time":91.49984749999999,"velocity":0.7480314960629921},{"duration":0.13499977499999716,"durationTicks":108,"midi":70,"name":"A#4","ticks":73320,"time":91.64984725,"velocity":0.7480314960629921},{"duration":0.2699995499999943,"durationTicks":216,"midi":72,"name":"C5","ticks":73440,"time":91.79984699999999,"velocity":0.7480314960629921},{"duration":0.13499977499999716,"durationTicks":108,"midi":75,"name":"D#5","ticks":73680,"time":92.0998465,"velocity":0.7480314960629921},{"duration":0.2699995499999943,"durationTicks":216,"midi":79,"name":"G5","ticks":73800,"time":92.24984624999999,"velocity":0.7480314960629921},{"duration":0.4487492520833314,"durationTicks":359,"midi":75,"name":"D#5","ticks":74040,"time":92.54984574999999,"velocity":0.7480314960629921},{"duration":0.2699995499999943,"durationTicks":216,"midi":75,"name":"D#5","ticks":74400,"time":92.999845,"velocity":0.7480314960629921},{"duration":0.13499977499999716,"durationTicks":108,"midi":72,"name":"C5","ticks":74640,"time":93.29984449999999,"velocity":0.7480314960629921},{"duration":0.13499977499999716,"durationTicks":108,"midi":70,"name":"A#4","ticks":74760,"time":93.44984425,"velocity":0.7480314960629921},{"duration":0.2699995499999943,"durationTicks":216,"midi":72,"name":"C5","ticks":74880,"time":93.59984399999999,"velocity":0.7480314960629921},{"duration":0.2699995499999943,"durationTicks":216,"midi":75,"name":"D#5","ticks":75120,"time":93.89984349999999,"velocity":0.7480314960629921},{"duration":0.4487492520833456,"durationTicks":359,"midi":80,"name":"G#5","ticks":75360,"time":94.19984299999999,"velocity":0.7480314960629921},{"duration":0.13499977499999716,"durationTicks":108,"midi":82,"name":"A#5","ticks":75720,"time":94.64984224999999,"velocity":0.7480314960629921},{"duration":0.5399991000000028,"durationTicks":432,"midi":82,"name":"A#5","ticks":75840,"time":94.799842,"velocity":0.7480314960629921},{"duration":0.13499977499999716,"durationTicks":108,"midi":75,"name":"D#5","ticks":76320,"time":95.399841,"velocity":0.7480314960629921},{"duration":0.13499977499999716,"durationTicks":108,"midi":77,"name":"F5","ticks":76440,"time":95.54984074999999,"velocity":0.7480314960629921},{"duration":0.13499977499999716,"durationTicks":108,"midi":80,"name":"G#5","ticks":76560,"time":95.6998405,"velocity":0.7480314960629921},{"duration":0.13499977499999716,"durationTicks":108,"midi":82,"name":"A#5","ticks":76680,"time":95.84984024999999,"velocity":0.7480314960629921},{"duration":0.2699995499999943,"durationTicks":216,"midi":84,"name":"C6","ticks":76800,"time":95.99983999999999,"velocity":0.7480314960629921},{"duration":0.2699995499999943,"durationTicks":216,"midi":80,"name":"G#5","ticks":77040,"time":96.29983949999999,"velocity":0.7480314960629921},{"duration":0.2699995499999943,"durationTicks":216,"midi":77,"name":"F5","ticks":77280,"time":96.59983899999999,"velocity":0.7480314960629921},{"duration":0.2699995499999943,"durationTicks":216,"midi":75,"name":"D#5","ticks":77520,"time":96.89983849999999,"velocity":0.7480314960629921},{"duration":0.2699995499999943,"durationTicks":216,"midi":72,"name":"C5","ticks":77760,"time":97.19983799999999,"velocity":0.7480314960629921},{"duration":0.2699995499999801,"durationTicks":216,"midi":70,"name":"A#4","ticks":78000,"time":97.4998375,"velocity":0.7480314960629921},{"duration":0.2699995499999943,"durationTicks":216,"midi":68,"name":"G#4","ticks":78240,"time":97.799837,"velocity":0.7480314960629921},{"duration":0.2699995499999943,"durationTicks":216,"midi":70,"name":"A#4","ticks":78480,"time":98.0998365,"velocity":0.7480314960629921},{"duration":0.2699995499999943,"durationTicks":216,"midi":72,"name":"C5","ticks":78720,"time":98.399836,"velocity":0.7480314960629921},{"duration":0.2699995499999943,"durationTicks":216,"midi":63,"name":"D#4","ticks":78720,"time":98.399836,"velocity":0.7480314960629921},{"duration":0.2699995499999943,"durationTicks":216,"midi":75,"name":"D#5","ticks":78960,"time":98.69983549999999,"velocity":0.7480314960629921},{"duration":0.2699995499999943,"durationTicks":216,"midi":72,"name":"C5","ticks":79200,"time":98.99983499999999,"velocity":0.7480314960629921},{"duration":0.2699995499999943,"durationTicks":216,"midi":68,"name":"G#4","ticks":79440,"time":99.29983449999999,"velocity":0.7480314960629921},{"duration":0.4487492520833456,"durationTicks":359,"midi":80,"name":"G#5","ticks":79680,"time":99.59983399999999,"velocity":0.7480314960629921},{"duration":0.13499977499999716,"durationTicks":108,"midi":79,"name":"G5","ticks":80040,"time":100.04983324999999,"velocity":0.7480314960629921},{"duration":0.13499977499998295,"durationTicks":108,"midi":77,"name":"F5","ticks":80160,"time":100.199833,"velocity":0.7480314960629921},{"duration":0.13499977499999716,"durationTicks":108,"midi":75,"name":"D#5","ticks":80280,"time":100.34983274999999,"velocity":0.7480314960629921},{"duration":0.2699995499999943,"durationTicks":216,"midi":75,"name":"D#5","ticks":80400,"time":100.4998325,"velocity":0.7480314960629921},{"duration":0.2699995499999943,"durationTicks":216,"midi":72,"name":"C5","ticks":80640,"time":100.799832,"velocity":0.7480314960629921},{"duration":0.2699995499999943,"durationTicks":216,"midi":60,"name":"C4","ticks":80640,"time":100.799832,"velocity":0.7480314960629921},{"duration":0.2699995499999943,"durationTicks":216,"midi":68,"name":"G#4","ticks":80880,"time":101.0998315,"velocity":0.7480314960629921},{"duration":0.4487492520833314,"durationTicks":359,"midi":70,"name":"A#4","ticks":81120,"time":101.39983099999999,"velocity":0.7480314960629921},{"duration":0.13499977499999716,"durationTicks":108,"midi":68,"name":"G#4","ticks":81480,"time":101.84983025,"velocity":0.7480314960629921},{"duration":0.2699995499999943,"durationTicks":216,"midi":72,"name":"C5","ticks":81600,"time":101.99982999999999,"velocity":0.7480314960629921},{"duration":0.2699995499999943,"durationTicks":216,"midi":70,"name":"A#4","ticks":81840,"time":102.29982949999999,"velocity":0.7480314960629921},{"duration":0.2699995499999943,"durationTicks":216,"midi":68,"name":"G#4","ticks":82080,"time":102.59982899999999,"velocity":0.7480314960629921},{"duration":0.4487492520833314,"durationTicks":359,"midi":75,"name":"D#5","ticks":82320,"time":102.8998285,"velocity":0.7480314960629921},{"duration":0.5399991000000028,"durationTicks":432,"midi":75,"name":"D#5","ticks":82680,"time":103.34982774999999,"velocity":0.7480314960629921},{"duration":0.13499977499999716,"durationTicks":108,"midi":73,"name":"C#5","ticks":83160,"time":103.94982674999999,"velocity":0.7480314960629921},{"duration":0.2699995499999943,"durationTicks":216,"midi":72,"name":"C5","ticks":83280,"time":104.09982649999999,"velocity":0.7480314960629921},{"duration":1.0799982000000057,"durationTicks":864,"midi":70,"name":"A#4","ticks":83520,"time":104.39982599999999,"velocity":0.7480314960629921},{"duration":0.2699995499999943,"durationTicks":216,"midi":72,"name":"C5","ticks":84480,"time":105.59982399999998,"velocity":0.7480314960629921},{"duration":0.2699995499999943,"durationTicks":216,"midi":65,"name":"F4","ticks":84480,"time":105.59982399999998,"velocity":0.7480314960629921},{"duration":0.2699995499999943,"durationTicks":216,"midi":75,"name":"D#5","ticks":84720,"time":105.8998235,"velocity":0.7480314960629921},{"duration":0.5399991000000028,"durationTicks":432,"midi":72,"name":"C5","ticks":84960,"time":106.199823,"velocity":0.7480314960629921},{"duration":0.2699995499999943,"durationTicks":216,"midi":72,"name":"C5","ticks":85440,"time":106.79982199999999,"velocity":0.7480314960629921},{"duration":0.2699995499999943,"durationTicks":216,"midi":70,"name":"A#4","ticks":85680,"time":107.09982149999999,"velocity":0.7480314960629921},{"duration":0.2699995499999943,"durationTicks":216,"midi":68,"name":"G#4","ticks":85920,"time":107.39982099999999,"velocity":0.7480314960629921},{"duration":0.2699995499999943,"durationTicks":216,"midi":70,"name":"A#4","ticks":86160,"time":107.69982049999999,"velocity":0.7480314960629921},{"duration":0.2699995499999943,"durationTicks":216,"midi":72,"name":"C5","ticks":86400,"time":107.99981999999999,"velocity":0.7480314960629921},{"duration":0.2699995499999943,"durationTicks":216,"midi":63,"name":"D#4","ticks":86400,"time":107.99981999999999,"velocity":0.7480314960629921},{"duration":0.2699995499999943,"durationTicks":216,"midi":75,"name":"D#5","ticks":86640,"time":108.29981949999998,"velocity":0.7480314960629921},{"duration":0.5399991000000028,"durationTicks":432,"midi":77,"name":"F5","ticks":86880,"time":108.599819,"velocity":0.7480314960629921},{"duration":0.4487492520833314,"durationTicks":359,"midi":80,"name":"G#5","ticks":87360,"time":109.199818,"velocity":0.7480314960629921},{"duration":0.13499977499999716,"durationTicks":108,"midi":79,"name":"G5","ticks":87720,"time":109.64981724999998,"velocity":0.7480314960629921},{"duration":0.2699995499999943,"durationTicks":216,"midi":77,"name":"F5","ticks":87840,"time":109.79981699999999,"velocity":0.7480314960629921},{"duration":0.2699995499999943,"durationTicks":216,"midi":75,"name":"D#5","ticks":88080,"time":110.09981649999999,"velocity":0.7480314960629921},{"duration":0.2699995499999943,"durationTicks":216,"midi":72,"name":"C5","ticks":88320,"time":110.39981599999999,"velocity":0.7480314960629921},{"duration":0.2699995499999943,"durationTicks":216,"midi":65,"name":"F4","ticks":88320,"time":110.39981599999999,"velocity":0.7480314960629921},{"duration":0.2699995499999943,"durationTicks":216,"midi":79,"name":"G5","ticks":88560,"time":110.69981549999999,"velocity":0.7480314960629921},{"duration":0.13499977499999716,"durationTicks":108,"midi":79,"name":"G5","ticks":88800,"time":110.99981499999998,"velocity":0.7480314960629921},{"duration":0.2699995499999943,"durationTicks":216,"midi":77,"name":"F5","ticks":88920,"time":111.14981474999999,"velocity":0.7480314960629921},{"duration":0.13499977499999716,"durationTicks":108,"midi":75,"name":"D#5","ticks":89160,"time":111.44981424999999,"velocity":0.7480314960629921},{"duration":0.5399991000000028,"durationTicks":432,"midi":75,"name":"D#5","ticks":89280,"time":111.599814,"velocity":0.7480314960629921},{"duration":0.13499977499999716,"durationTicks":108,"midi":75,"name":"D#5","ticks":90000,"time":112.49981249999999,"velocity":0.7480314960629921},{"duration":0.13499977499999716,"durationTicks":108,"midi":77,"name":"F5","ticks":90120,"time":112.64981225,"velocity":0.7480314960629921},{"duration":0.4487492520833314,"durationTicks":359,"midi":82,"name":"A#5","ticks":90240,"time":112.79981199999999,"velocity":0.7480314960629921},{"duration":0.13499977499999716,"durationTicks":108,"midi":80,"name":"G#5","ticks":90600,"time":113.24981125,"velocity":0.7480314960629921},{"duration":0.2699995499999943,"durationTicks":216,"midi":80,"name":"G#5","ticks":90720,"time":113.39981099999999,"velocity":0.7480314960629921},{"duration":0.5399991000000028,"durationTicks":432,"midi":84,"name":"C6","ticks":90960,"time":113.69981049999998,"velocity":0.7480314960629921},{"duration":0.2699995499999943,"durationTicks":216,"midi":82,"name":"A#5","ticks":91440,"time":114.2998095,"velocity":0.7480314960629921},{"duration":0.13499977499999716,"durationTicks":108,"midi":80,"name":"G#5","ticks":91680,"time":114.599809,"velocity":0.7480314960629921},{"duration":0.13499977499999716,"durationTicks":108,"midi":82,"name":"A#5","ticks":91800,"time":114.74980874999999,"velocity":0.7480314960629921},{"duration":0.13499977499999716,"durationTicks":108,"midi":84,"name":"C6","ticks":91920,"time":114.89980849999999,"velocity":0.7480314960629921},{"duration":0.13499977499999716,"durationTicks":108,"midi":82,"name":"A#5","ticks":92040,"time":115.04980824999998,"velocity":0.7480314960629921},{"duration":0.5399991000000028,"durationTicks":432,"midi":72,"name":"C5","ticks":92160,"time":115.19980799999999,"velocity":0.7480314960629921},{"duration":0.2699995499999943,"durationTicks":216,"midi":75,"name":"D#5","ticks":92640,"time":115.79980699999999,"velocity":0.7480314960629921},{"duration":0.2699995499999943,"durationTicks":216,"midi":72,"name":"C5","ticks":92880,"time":116.09980649999999,"velocity":0.7480314960629921},{"duration":0.13499977499999716,"durationTicks":108,"midi":72,"name":"C5","ticks":93240,"time":116.54980574999999,"velocity":0.7480314960629921},{"duration":0.13499977499999716,"durationTicks":108,"midi":70,"name":"A#4","ticks":93360,"time":116.6998055,"velocity":0.7480314960629921},{"duration":0.13499977499999716,"durationTicks":108,"midi":72,"name":"C5","ticks":93480,"time":116.84980524999999,"velocity":0.7480314960629921},{"duration":0.13499977499999716,"durationTicks":108,"midi":70,"name":"A#4","ticks":93600,"time":116.999805,"velocity":0.7480314960629921},{"duration":0.13499977499999716,"durationTicks":108,"midi":68,"name":"G#4","ticks":93720,"time":117.14980474999999,"velocity":0.7480314960629921},{"duration":0.13499977499999716,"durationTicks":108,"midi":65,"name":"F4","ticks":93840,"time":117.2998045,"velocity":0.7480314960629921},{"duration":0.13499977499999716,"durationTicks":108,"midi":63,"name":"D#4","ticks":93960,"time":117.44980424999999,"velocity":0.7480314960629921},{"duration":0.5399991000000028,"durationTicks":432,"midi":72,"name":"C5","ticks":94080,"time":117.59980399999999,"velocity":0.7480314960629921},{"duration":0.2699995499999943,"durationTicks":216,"midi":75,"name":"D#5","ticks":94560,"time":118.19980299999999,"velocity":0.7480314960629921},{"duration":0.2699995499999943,"durationTicks":216,"midi":72,"name":"C5","ticks":94800,"time":118.49980249999999,"velocity":0.7480314960629921},{"duration":0.13499977499999716,"durationTicks":108,"midi":72,"name":"C5","ticks":95160,"time":118.94980174999999,"velocity":0.7480314960629921},{"duration":0.13499977499999716,"durationTicks":108,"midi":70,"name":"A#4","ticks":95280,"time":119.09980149999998,"velocity":0.7480314960629921},{"duration":0.13499977499999716,"durationTicks":108,"midi":72,"name":"C5","ticks":95400,"time":119.24980124999999,"velocity":0.7480314960629921},{"duration":0.13499977499998295,"durationTicks":108,"midi":70,"name":"A#4","ticks":95520,"time":119.399801,"velocity":0.7480314960629921},{"duration":0.13499977499999716,"durationTicks":108,"midi":68,"name":"G#4","ticks":95640,"time":119.54980074999999,"velocity":0.7480314960629921},{"duration":0.13499977499999716,"durationTicks":108,"midi":65,"name":"F4","ticks":95760,"time":119.6998005,"velocity":0.7480314960629921},{"duration":0.13499977499999716,"durationTicks":108,"midi":63,"name":"D#4","ticks":95880,"time":119.84980024999999,"velocity":0.7480314960629921},{"duration":0.5399991000000028,"durationTicks":432,"midi":79,"name":"G5","ticks":96000,"time":119.9998,"velocity":0.7480314960629921},{"duration":0.5399991000000028,"durationTicks":432,"midi":75,"name":"D#5","ticks":96480,"time":120.59979899999999,"velocity":0.7480314960629921},{"duration":0.5399991000000028,"durationTicks":432,"midi":72,"name":"C5","ticks":96960,"time":121.19979799999999,"velocity":0.7480314960629921},{"duration":0.5399991000000028,"durationTicks":432,"midi":70,"name":"A#4","ticks":97440,"time":121.79979699999998,"velocity":0.7480314960629921},{"duration":0.5399991000000028,"durationTicks":432,"midi":70,"name":"A#4","ticks":97920,"time":122.399796,"velocity":0.7480314960629921},{"duration":0.2699995499999943,"durationTicks":216,"midi":72,"name":"C5","ticks":98400,"time":122.99979499999999,"velocity":0.7480314960629921},{"duration":0.2699995499999943,"durationTicks":216,"midi":63,"name":"D#4","ticks":98640,"time":123.29979449999999,"velocity":0.7480314960629921},{"duration":0.2699995499999943,"durationTicks":216,"midi":63,"name":"D#4","ticks":98880,"time":123.59979399999999,"velocity":0.7480314960629921},{"duration":0.2699995499999943,"durationTicks":216,"midi":65,"name":"F4","ticks":99120,"time":123.89979349999999,"velocity":0.7480314960629921},{"duration":0.2699995499999943,"durationTicks":216,"midi":68,"name":"G#4","ticks":99360,"time":124.19979299999999,"velocity":0.7480314960629921},{"duration":0.2699995499999943,"durationTicks":216,"midi":70,"name":"A#4","ticks":99600,"time":124.49979249999998,"velocity":0.7480314960629921},{"duration":0.5399991000000028,"durationTicks":432,"midi":72,"name":"C5","ticks":99840,"time":124.799792,"velocity":0.7480314960629921},{"duration":0.2699995499999943,"durationTicks":216,"midi":75,"name":"D#5","ticks":100320,"time":125.399791,"velocity":0.7480314960629921},{"duration":0.2699995499999943,"durationTicks":216,"midi":72,"name":"C5","ticks":100560,"time":125.69979049999999,"velocity":0.7480314960629921},{"duration":0.13499977499999716,"durationTicks":108,"midi":72,"name":"C5","ticks":100920,"time":126.14978974999998,"velocity":0.7480314960629921},{"duration":0.13499977499999716,"durationTicks":108,"midi":70,"name":"A#4","ticks":101040,"time":126.29978949999999,"velocity":0.7480314960629921},{"duration":0.13499977499999716,"durationTicks":108,"midi":72,"name":"C5","ticks":101160,"time":126.44978925,"velocity":0.7480314960629921},{"duration":0.13499977499999716,"durationTicks":108,"midi":70,"name":"A#4","ticks":101280,"time":126.59978899999999,"velocity":0.7480314960629921},{"duration":0.13499977499999716,"durationTicks":108,"midi":68,"name":"G#4","ticks":101400,"time":126.74978875,"velocity":0.7480314960629921},{"duration":0.13499977499999716,"durationTicks":108,"midi":65,"name":"F4","ticks":101520,"time":126.89978849999999,"velocity":0.7480314960629921},{"duration":0.13499977499999716,"durationTicks":108,"midi":63,"name":"D#4","ticks":101640,"time":127.04978824999999,"velocity":0.7480314960629921},{"duration":0.5399991000000028,"durationTicks":432,"midi":72,"name":"C5","ticks":101760,"time":127.19978799999998,"velocity":0.7480314960629921},{"duration":0.2699995499999801,"durationTicks":216,"midi":75,"name":"D#5","ticks":102240,"time":127.799787,"velocity":0.7480314960629921},{"duration":0.2699995499999943,"durationTicks":216,"midi":72,"name":"C5","ticks":102480,"time":128.0997865,"velocity":0.7480314960629921},{"duration":0.13499977500001137,"durationTicks":108,"midi":72,"name":"C5","ticks":102840,"time":128.54978574999998,"velocity":0.7480314960629921},{"duration":0.13499977499998295,"durationTicks":108,"midi":70,"name":"A#4","ticks":102960,"time":128.6997855,"velocity":0.7480314960629921},{"duration":0.13499977499998295,"durationTicks":108,"midi":72,"name":"C5","ticks":103080,"time":128.84978525,"velocity":0.7480314960629921},{"duration":0.13499977499998295,"durationTicks":108,"midi":70,"name":"A#4","ticks":103200,"time":128.999785,"velocity":0.7480314960629921},{"duration":0.13499977500001137,"durationTicks":108,"midi":68,"name":"G#4","ticks":103320,"time":129.14978474999998,"velocity":0.7480314960629921},{"duration":0.13499977500001137,"durationTicks":108,"midi":65,"name":"F4","ticks":103440,"time":129.2997845,"velocity":0.7480314960629921},{"duration":0.13499977499998295,"durationTicks":108,"midi":63,"name":"D#4","ticks":103560,"time":129.44978425,"velocity":0.7480314960629921},{"duration":0.5399990999999886,"durationTicks":432,"midi":79,"name":"G5","ticks":103680,"time":129.599784,"velocity":0.7480314960629921},{"duration":0.5399990999999886,"durationTicks":432,"midi":75,"name":"D#5","ticks":104160,"time":130.199783,"velocity":0.7480314960629921},{"duration":0.5399990999999886,"durationTicks":432,"midi":72,"name":"C5","ticks":104640,"time":130.799782,"velocity":0.7480314960629921},{"duration":0.5399990999999886,"durationTicks":432,"midi":70,"name":"A#4","ticks":105120,"time":131.399781,"velocity":0.7480314960629921},{"duration":0.539999100000017,"durationTicks":432,"midi":70,"name":"A#4","ticks":105600,"time":131.99978,"velocity":0.7480314960629921},{"duration":0.539999100000017,"durationTicks":432,"midi":68,"name":"G#4","ticks":106080,"time":132.59977899999998,"velocity":0.7480314960629921},{"duration":0.13499977500001137,"durationTicks":108,"midi":75,"name":"D#5","ticks":107040,"time":133.79977699999998,"velocity":0.7480314960629921},{"duration":0.2699995499999943,"durationTicks":216,"midi":75,"name":"D#5","ticks":107160,"time":133.94977674999998,"velocity":0.7480314960629921},{"duration":0.13499977499998295,"durationTicks":108,"midi":75,"name":"D#5","ticks":107400,"time":134.24977625,"velocity":0.7480314960629921},{"duration":0.13499977500001137,"durationTicks":108,"midi":75,"name":"D#5","ticks":107640,"time":134.54977574999998,"velocity":0.7480314960629921},{"duration":0.13499977500001137,"durationTicks":108,"midi":72,"name":"C5","ticks":107760,"time":134.6997755,"velocity":0.7480314960629921},{"duration":0.13499977499998295,"durationTicks":108,"midi":75,"name":"D#5","ticks":107880,"time":134.84977525,"velocity":0.7480314960629921},{"duration":0.2699995499999943,"durationTicks":216,"midi":72,"name":"C5","ticks":108000,"time":134.999775,"velocity":0.7480314960629921},{"duration":0.2699995499999943,"durationTicks":216,"midi":75,"name":"D#5","ticks":108240,"time":135.29977449999998,"velocity":0.7480314960629921},{"duration":0.5399990999999886,"durationTicks":432,"midi":72,"name":"C5","ticks":108480,"time":135.599774,"velocity":0.7480314960629921},{"duration":0.13499977499998295,"durationTicks":108,"midi":75,"name":"D#5","ticks":108960,"time":136.199773,"velocity":0.7480314960629921},{"duration":0.2699995499999943,"durationTicks":216,"midi":75,"name":"D#5","ticks":109080,"time":136.34977275,"velocity":0.7480314960629921},{"duration":0.13499977500001137,"durationTicks":108,"midi":75,"name":"D#5","ticks":109320,"time":136.64977224999998,"velocity":0.7480314960629921},{"duration":0.13499977499998295,"durationTicks":108,"midi":75,"name":"D#5","ticks":109560,"time":136.94977175,"velocity":0.7480314960629921},{"duration":0.13499977500001137,"durationTicks":108,"midi":72,"name":"C5","ticks":109680,"time":137.09977149999997,"velocity":0.7480314960629921},{"duration":0.13499977500001137,"durationTicks":108,"midi":75,"name":"D#5","ticks":109800,"time":137.24977124999998,"velocity":0.7480314960629921},{"duration":0.2699995499999943,"durationTicks":216,"midi":72,"name":"C5","ticks":109920,"time":137.399771,"velocity":0.7480314960629921},{"duration":0.2699995499999943,"durationTicks":216,"midi":75,"name":"D#5","ticks":110160,"time":137.6997705,"velocity":0.7480314960629921},{"duration":0.539999100000017,"durationTicks":432,"midi":72,"name":"C5","ticks":110400,"time":137.99976999999998,"velocity":0.7480314960629921},{"duration":0.13499977500001137,"durationTicks":108,"midi":75,"name":"D#5","ticks":110880,"time":138.59976899999998,"velocity":0.7480314960629921},{"duration":0.2699995499999943,"durationTicks":216,"midi":75,"name":"D#5","ticks":111000,"time":138.74976875,"velocity":0.7480314960629921},{"duration":0.13499977499998295,"durationTicks":108,"midi":75,"name":"D#5","ticks":111240,"time":139.04976825,"velocity":0.7480314960629921},{"duration":0.13499977500001137,"durationTicks":108,"midi":75,"name":"D#5","ticks":111480,"time":139.34976774999998,"velocity":0.7480314960629921},{"duration":0.13499977499998295,"durationTicks":108,"midi":72,"name":"C5","ticks":111600,"time":139.4997675,"velocity":0.7480314960629921},{"duration":0.13499977499998295,"durationTicks":108,"midi":75,"name":"D#5","ticks":111720,"time":139.64976725,"velocity":0.7480314960629921},{"duration":0.2699995499999943,"durationTicks":216,"midi":72,"name":"C5","ticks":111840,"time":139.79976699999997,"velocity":0.7480314960629921},{"duration":0.2699995499999943,"durationTicks":216,"midi":75,"name":"D#5","ticks":112080,"time":140.0997665,"velocity":0.7480314960629921},{"duration":0.2699995499999943,"durationTicks":216,"midi":72,"name":"C5","ticks":112320,"time":140.399766,"velocity":0.7480314960629921},{"duration":0.2699995499999943,"durationTicks":216,"midi":70,"name":"A#4","ticks":112560,"time":140.69976549999998,"velocity":0.7480314960629921},{"duration":0.2699995499999943,"durationTicks":216,"midi":68,"name":"G#4","ticks":112800,"time":140.999765,"velocity":0.7480314960629921},{"duration":0.2699995499999943,"durationTicks":216,"midi":70,"name":"A#4","ticks":113040,"time":141.29976449999998,"velocity":0.7480314960629921},{"duration":0.2699995499999943,"durationTicks":216,"midi":72,"name":"C5","ticks":113280,"time":141.599764,"velocity":0.7480314960629921},{"duration":0.2699995499999943,"durationTicks":216,"midi":75,"name":"D#5","ticks":113520,"time":141.89976349999998,"velocity":0.7480314960629921},{"duration":0.4487492520833314,"durationTicks":359,"midi":79,"name":"G5","ticks":113760,"time":142.199763,"velocity":0.7480314960629921},{"duration":0.13499977500001137,"durationTicks":108,"midi":75,"name":"D#5","ticks":114120,"time":142.64976224999998,"velocity":0.7480314960629921},{"duration":0.13499977500001137,"durationTicks":108,"midi":75,"name":"D#5","ticks":114240,"time":142.799762,"velocity":0.7480314960629921},{"duration":0.4487492520833314,"durationTicks":359,"midi":72,"name":"C5","ticks":114360,"time":142.94976175,"velocity":0.7480314960629921},{"duration":0.13499977500001137,"durationTicks":108,"midi":75,"name":"D#5","ticks":114720,"time":143.39976099999998,"velocity":0.7480314960629921},{"duration":0.2699995499999943,"durationTicks":216,"midi":75,"name":"D#5","ticks":114840,"time":143.54976075,"velocity":0.7480314960629921},{"duration":0.13499977500001137,"durationTicks":108,"midi":75,"name":"D#5","ticks":115080,"time":143.84976024999997,"velocity":0.7480314960629921},{"duration":0.13499977500001137,"durationTicks":108,"midi":75,"name":"D#5","ticks":115320,"time":144.14975975,"velocity":0.7480314960629921},{"duration":0.13499977499998295,"durationTicks":108,"midi":72,"name":"C5","ticks":115440,"time":144.2997595,"velocity":0.7480314960629921},{"duration":0.13499977499998295,"durationTicks":108,"midi":75,"name":"D#5","ticks":115560,"time":144.44975925,"velocity":0.7480314960629921},{"duration":0.2699995499999943,"durationTicks":216,"midi":72,"name":"C5","ticks":115680,"time":144.59975899999998,"velocity":0.7480314960629921},{"duration":0.2699995499999943,"durationTicks":216,"midi":75,"name":"D#5","ticks":115920,"time":144.8997585,"velocity":0.7480314960629921},{"duration":0.539999100000017,"durationTicks":432,"midi":72,"name":"C5","ticks":116160,"time":145.19975799999997,"velocity":0.7480314960629921},{"duration":0.13499977499998295,"durationTicks":108,"midi":75,"name":"D#5","ticks":116640,"time":145.799757,"velocity":0.7480314960629921},{"duration":0.2699995499999943,"durationTicks":216,"midi":75,"name":"D#5","ticks":116760,"time":145.94975674999998,"velocity":0.7480314960629921},{"duration":0.13499977499998295,"durationTicks":108,"midi":75,"name":"D#5","ticks":117000,"time":146.24975625,"velocity":0.7480314960629921},{"duration":0.13499977500001137,"durationTicks":108,"midi":75,"name":"D#5","ticks":117240,"time":146.54975574999997,"velocity":0.7480314960629921},{"duration":0.13499977500001137,"durationTicks":108,"midi":72,"name":"C5","ticks":117360,"time":146.69975549999998,"velocity":0.7480314960629921},{"duration":0.13499977499998295,"durationTicks":108,"midi":75,"name":"D#5","ticks":117480,"time":146.84975525,"velocity":0.7480314960629921},{"duration":0.2699995499999943,"durationTicks":216,"midi":72,"name":"C5","ticks":117600,"time":146.999755,"velocity":0.7480314960629921},{"duration":0.2699995499999943,"durationTicks":216,"midi":75,"name":"D#5","ticks":117840,"time":147.29975449999998,"velocity":0.7480314960629921},{"duration":0.5399990999999886,"durationTicks":432,"midi":72,"name":"C5","ticks":118080,"time":147.599754,"velocity":0.7480314960629921},{"duration":0.13499977499998295,"durationTicks":108,"midi":75,"name":"D#5","ticks":118560,"time":148.199753,"velocity":0.7480314960629921},{"duration":0.2699995499999943,"durationTicks":216,"midi":75,"name":"D#5","ticks":118680,"time":148.34975275,"velocity":0.7480314960629921},{"duration":0.13499977500001137,"durationTicks":108,"midi":75,"name":"D#5","ticks":118920,"time":148.64975224999998,"velocity":0.7480314960629921},{"duration":0.13499977499998295,"durationTicks":108,"midi":75,"name":"D#5","ticks":119160,"time":148.94975175,"velocity":0.7480314960629921},{"duration":0.13499977499998295,"durationTicks":108,"midi":72,"name":"C5","ticks":119280,"time":149.0997515,"velocity":0.7480314960629921},{"duration":0.13499977500001137,"durationTicks":108,"midi":75,"name":"D#5","ticks":119400,"time":149.24975124999997,"velocity":0.7480314960629921},{"duration":0.2699995499999943,"durationTicks":216,"midi":72,"name":"C5","ticks":119520,"time":149.39975099999998,"velocity":0.7480314960629921},{"duration":0.2699995499999943,"durationTicks":216,"midi":75,"name":"D#5","ticks":119760,"time":149.6997505,"velocity":0.7480314960629921},{"duration":0.2699995499999943,"durationTicks":216,"midi":72,"name":"C5","ticks":120000,"time":149.99974999999998,"velocity":0.7480314960629921},{"duration":0.2699995499999943,"durationTicks":216,"midi":70,"name":"A#4","ticks":120240,"time":150.2997495,"velocity":0.7480314960629921},{"duration":0.2699995499999943,"durationTicks":216,"midi":68,"name":"G#4","ticks":120480,"time":150.59974899999997,"velocity":0.7480314960629921},{"duration":0.2699995499999943,"durationTicks":216,"midi":70,"name":"A#4","ticks":120720,"time":150.8997485,"velocity":0.7480314960629921},{"duration":0.4487492520833314,"durationTicks":359,"midi":72,"name":"C5","ticks":120960,"time":151.199748,"velocity":0.7480314960629921},{"duration":0.13499977499998295,"durationTicks":108,"midi":75,"name":"D#5","ticks":121320,"time":151.64974725,"velocity":0.7480314960629921},{"duration":0.5399990999999886,"durationTicks":432,"midi":75,"name":"D#5","ticks":121440,"time":151.799747,"velocity":0.7480314960629921},{"duration":0.2699995499999943,"durationTicks":216,"midi":72,"name":"C5","ticks":121920,"time":152.399746,"velocity":0.7480314960629921},{"duration":0.2699995499999943,"durationTicks":216,"midi":75,"name":"D#5","ticks":122160,"time":152.69974549999998,"velocity":0.7480314960629921},{"duration":0.2699995499999943,"durationTicks":216,"midi":77,"name":"F5","ticks":122400,"time":152.999745,"velocity":0.7480314960629921},{"duration":0.2699995499999943,"durationTicks":216,"midi":75,"name":"D#5","ticks":122640,"time":153.29974449999997,"velocity":0.7480314960629921},{"duration":0.5399990999999886,"durationTicks":432,"midi":72,"name":"C5","ticks":122880,"time":153.599744,"velocity":0.7480314960629921},{"duration":0.2699995499999943,"durationTicks":216,"midi":75,"name":"D#5","ticks":123360,"time":154.19974299999998,"velocity":0.7480314960629921},{"duration":0.2699995499999943,"durationTicks":216,"midi":72,"name":"C5","ticks":123600,"time":154.4997425,"velocity":0.7480314960629921},{"duration":0.13499977500001137,"durationTicks":108,"midi":72,"name":"C5","ticks":123960,"time":154.94974175,"velocity":0.7480314960629921},{"duration":0.13499977500001137,"durationTicks":108,"midi":70,"name":"A#4","ticks":124080,"time":155.0997415,"velocity":0.7480314960629921},{"duration":0.13499977500001137,"durationTicks":108,"midi":72,"name":"C5","ticks":124200,"time":155.24974125,"velocity":0.7480314960629921},{"duration":0.13499977500001137,"durationTicks":108,"midi":70,"name":"A#4","ticks":124320,"time":155.39974099999998,"velocity":0.7480314960629921},{"duration":0.13499977500001137,"durationTicks":108,"midi":68,"name":"G#4","ticks":124440,"time":155.54974074999998,"velocity":0.7480314960629921},{"duration":0.13499977500001137,"durationTicks":108,"midi":65,"name":"F4","ticks":124560,"time":155.6997405,"velocity":0.7480314960629921},{"duration":0.13499977500001137,"durationTicks":108,"midi":63,"name":"D#4","ticks":124680,"time":155.84974025,"velocity":0.7480314960629921},{"duration":0.5399990999999886,"durationTicks":432,"midi":72,"name":"C5","ticks":124800,"time":155.99973999999997,"velocity":0.7480314960629921},{"duration":0.2699995499999943,"durationTicks":216,"midi":75,"name":"D#5","ticks":125280,"time":156.599739,"velocity":0.7480314960629921},{"duration":0.2699995499999943,"durationTicks":216,"midi":72,"name":"C5","ticks":125520,"time":156.89973849999998,"velocity":0.7480314960629921},{"duration":0.1349997750000398,"durationTicks":108,"midi":72,"name":"C5","ticks":125880,"time":157.34973774999997,"velocity":0.7480314960629921},{"duration":0.13499977500001137,"durationTicks":108,"midi":70,"name":"A#4","ticks":126000,"time":157.49973749999998,"velocity":0.7480314960629921},{"duration":0.13499977500001137,"durationTicks":108,"midi":72,"name":"C5","ticks":126120,"time":157.64973725,"velocity":0.7480314960629921},{"duration":0.13499977500001137,"durationTicks":108,"midi":70,"name":"A#4","ticks":126240,"time":157.799737,"velocity":0.7480314960629921},{"duration":0.13499977500001137,"durationTicks":108,"midi":68,"name":"G#4","ticks":126360,"time":157.94973675,"velocity":0.7480314960629921},{"duration":0.13499977500001137,"durationTicks":108,"midi":65,"name":"F4","ticks":126480,"time":158.09973649999998,"velocity":0.7480314960629921},{"duration":0.13499977500001137,"durationTicks":108,"midi":63,"name":"D#4","ticks":126600,"time":158.24973624999998,"velocity":0.7480314960629921},{"duration":0.5399990999999886,"durationTicks":432,"midi":79,"name":"G5","ticks":126720,"time":158.399736,"velocity":0.7480314960629921},{"duration":0.5399990999999886,"durationTicks":432,"midi":75,"name":"D#5","ticks":127200,"time":158.999735,"velocity":0.7480314960629921},{"duration":0.5399990999999886,"durationTicks":432,"midi":72,"name":"C5","ticks":127680,"time":159.59973399999998,"velocity":0.7480314960629921},{"duration":0.5399990999999886,"durationTicks":432,"midi":70,"name":"A#4","ticks":128160,"time":160.19973299999998,"velocity":0.7480314960629921},{"duration":0.5399990999999886,"durationTicks":432,"midi":70,"name":"A#4","ticks":128640,"time":160.79973199999998,"velocity":0.7480314960629921},{"duration":0.2699995499999943,"durationTicks":216,"midi":72,"name":"C5","ticks":129120,"time":161.39973099999997,"velocity":0.7480314960629921},{"duration":0.2699995499999943,"durationTicks":216,"midi":63,"name":"D#4","ticks":129360,"time":161.6997305,"velocity":0.7480314960629921},{"duration":0.2699995499999659,"durationTicks":216,"midi":63,"name":"D#4","ticks":129600,"time":161.99973,"velocity":0.7480314960629921},{"duration":0.2699995499999943,"durationTicks":216,"midi":65,"name":"F4","ticks":129840,"time":162.29972949999998,"velocity":0.7480314960629921},{"duration":0.2699995499999943,"durationTicks":216,"midi":68,"name":"G#4","ticks":130080,"time":162.599729,"velocity":0.7480314960629921},{"duration":0.2699995499999943,"durationTicks":216,"midi":70,"name":"A#4","ticks":130320,"time":162.89972849999998,"velocity":0.7480314960629921},{"duration":0.5399990999999886,"durationTicks":432,"midi":72,"name":"C5","ticks":130560,"time":163.199728,"velocity":0.7480314960629921},{"duration":0.2699995499999943,"durationTicks":216,"midi":75,"name":"D#5","ticks":131040,"time":163.799727,"velocity":0.7480314960629921},{"duration":0.2699995499999943,"durationTicks":216,"midi":72,"name":"C5","ticks":131280,"time":164.09972649999997,"velocity":0.7480314960629921},{"duration":0.13499977500001137,"durationTicks":108,"midi":72,"name":"C5","ticks":131640,"time":164.54972575,"velocity":0.7480314960629921},{"duration":0.13499977500001137,"durationTicks":108,"midi":70,"name":"A#4","ticks":131760,"time":164.6997255,"velocity":0.7480314960629921},{"duration":0.13499977500001137,"durationTicks":108,"midi":72,"name":"C5","ticks":131880,"time":164.84972524999998,"velocity":0.7480314960629921},{"duration":0.13499977500001137,"durationTicks":108,"midi":70,"name":"A#4","ticks":132000,"time":164.99972499999998,"velocity":0.7480314960629921},{"duration":0.13499977500001137,"durationTicks":108,"midi":68,"name":"G#4","ticks":132120,"time":165.14972475,"velocity":0.7480314960629921},{"duration":0.13499977500001137,"durationTicks":108,"midi":65,"name":"F4","ticks":132240,"time":165.2997245,"velocity":0.7480314960629921},{"duration":0.13499977500001137,"durationTicks":108,"midi":63,"name":"D#4","ticks":132360,"time":165.44972424999997,"velocity":0.7480314960629921},{"duration":0.5399990999999886,"durationTicks":432,"midi":72,"name":"C5","ticks":132480,"time":165.59972399999998,"velocity":0.7480314960629921},{"duration":0.2699995499999943,"durationTicks":216,"midi":75,"name":"D#5","ticks":132960,"time":166.19972299999998,"velocity":0.7480314960629921},{"duration":0.2699995499999943,"durationTicks":216,"midi":72,"name":"C5","ticks":133200,"time":166.4997225,"velocity":0.7480314960629921},{"duration":0.13499977500001137,"durationTicks":108,"midi":72,"name":"C5","ticks":133560,"time":166.94972174999998,"velocity":0.7480314960629921},{"duration":0.13499977500001137,"durationTicks":108,"midi":70,"name":"A#4","ticks":133680,"time":167.0997215,"velocity":0.7480314960629921},{"duration":0.13499977500001137,"durationTicks":108,"midi":72,"name":"C5","ticks":133800,"time":167.24972125,"velocity":0.7480314960629921},{"duration":0.13499977500001137,"durationTicks":108,"midi":70,"name":"A#4","ticks":133920,"time":167.399721,"velocity":0.7480314960629921},{"duration":0.13499977500001137,"durationTicks":108,"midi":68,"name":"G#4","ticks":134040,"time":167.54972074999998,"velocity":0.7480314960629921},{"duration":0.13499977500001137,"durationTicks":108,"midi":65,"name":"F4","ticks":134160,"time":167.69972049999998,"velocity":0.7480314960629921},{"duration":0.13499977500001137,"durationTicks":108,"midi":63,"name":"D#4","ticks":134280,"time":167.84972025,"velocity":0.7480314960629921},{"duration":0.5399990999999886,"durationTicks":432,"midi":79,"name":"G5","ticks":134400,"time":167.99972,"velocity":0.7480314960629921},{"duration":0.5399990999999886,"durationTicks":432,"midi":75,"name":"D#5","ticks":134880,"time":168.599719,"velocity":0.7480314960629921},{"duration":0.5399990999999886,"durationTicks":432,"midi":72,"name":"C5","ticks":135360,"time":169.199718,"velocity":0.7480314960629921},{"duration":0.5399990999999886,"durationTicks":432,"midi":70,"name":"A#4","ticks":135840,"time":169.799717,"velocity":0.7480314960629921},{"duration":0.5399990999999886,"durationTicks":432,"midi":70,"name":"A#4","ticks":136320,"time":170.39971599999998,"velocity":0.7480314960629921},{"duration":0.5399990999999886,"durationTicks":432,"midi":68,"name":"G#4","ticks":136800,"time":170.99971499999998,"velocity":0.7480314960629921},{"duration":0.2699995499999943,"durationTicks":216,"midi":72,"name":"C5","ticks":137280,"time":171.59971399999998,"velocity":0.7480314960629921},{"duration":0.2699995499999943,"durationTicks":216,"midi":75,"name":"D#5","ticks":137520,"time":171.8997135,"velocity":0.7480314960629921},{"duration":0.2699995499999943,"durationTicks":216,"midi":77,"name":"F5","ticks":137760,"time":172.19971299999997,"velocity":0.7480314960629921},{"duration":0.2699995499999943,"durationTicks":216,"midi":75,"name":"D#5","ticks":138000,"time":172.4997125,"velocity":0.7480314960629921},{"duration":0.5399990999999602,"durationTicks":432,"midi":72,"name":"C5","ticks":138240,"time":172.799712,"velocity":0.7480314960629921},{"duration":0.2699995499999943,"durationTicks":216,"midi":75,"name":"D#5","ticks":138720,"time":173.399711,"velocity":0.7480314960629921},{"duration":0.2699995499999943,"durationTicks":216,"midi":72,"name":"C5","ticks":138960,"time":173.69971049999998,"velocity":0.7480314960629921},{"duration":0.1349997750000398,"durationTicks":108,"midi":72,"name":"C5","ticks":139320,"time":174.14970974999997,"velocity":0.7480314960629921},{"duration":0.13499977500001137,"durationTicks":108,"midi":70,"name":"A#4","ticks":139440,"time":174.29970949999998,"velocity":0.7480314960629921},{"duration":0.13499977500001137,"durationTicks":108,"midi":72,"name":"C5","ticks":139560,"time":174.44970924999998,"velocity":0.7480314960629921},{"duration":0.13499977500001137,"durationTicks":108,"midi":70,"name":"A#4","ticks":139680,"time":174.599709,"velocity":0.7480314960629921},{"duration":0.13499977500001137,"durationTicks":108,"midi":68,"name":"G#4","ticks":139800,"time":174.74970875,"velocity":0.7480314960629921},{"duration":0.13499977500001137,"durationTicks":108,"midi":65,"name":"F4","ticks":139920,"time":174.89970849999997,"velocity":0.7480314960629921},{"duration":0.13499977500001137,"durationTicks":108,"midi":63,"name":"D#4","ticks":140040,"time":175.04970824999998,"velocity":0.7480314960629921},{"duration":0.5399990999999886,"durationTicks":432,"midi":72,"name":"C5","ticks":140160,"time":175.199708,"velocity":0.7480314960629921},{"duration":0.2699995499999943,"durationTicks":216,"midi":75,"name":"D#5","ticks":140640,"time":175.79970699999998,"velocity":0.7480314960629921},{"duration":0.2699995499999943,"durationTicks":216,"midi":72,"name":"C5","ticks":140880,"time":176.0997065,"velocity":0.7480314960629921},{"duration":0.13499977500001137,"durationTicks":108,"midi":72,"name":"C5","ticks":141240,"time":176.54970575,"velocity":0.7480314960629921},{"duration":0.13499977500001137,"durationTicks":108,"midi":70,"name":"A#4","ticks":141360,"time":176.6997055,"velocity":0.7480314960629921},{"duration":0.1349997750000398,"durationTicks":108,"midi":72,"name":"C5","ticks":141480,"time":176.84970524999997,"velocity":0.7480314960629921},{"duration":0.13499977500001137,"durationTicks":108,"midi":70,"name":"A#4","ticks":141600,"time":176.99970499999998,"velocity":0.7480314960629921},{"duration":0.13499977500001137,"durationTicks":108,"midi":68,"name":"G#4","ticks":141720,"time":177.14970474999998,"velocity":0.7480314960629921},{"duration":0.13499977500001137,"durationTicks":108,"midi":65,"name":"F4","ticks":141840,"time":177.2997045,"velocity":0.7480314960629921},{"duration":0.13499977500001137,"durationTicks":108,"midi":63,"name":"D#4","ticks":141960,"time":177.44970425,"velocity":0.7480314960629921},{"duration":0.5399990999999886,"durationTicks":432,"midi":79,"name":"G5","ticks":142080,"time":177.59970399999997,"velocity":0.7480314960629921},{"duration":0.5399990999999886,"durationTicks":432,"midi":75,"name":"D#5","ticks":142560,"time":178.19970299999997,"velocity":0.7480314960629921},{"duration":0.5399990999999886,"durationTicks":432,"midi":72,"name":"C5","ticks":143040,"time":178.799702,"velocity":0.7480314960629921},{"duration":0.5399990999999886,"durationTicks":432,"midi":70,"name":"A#4","ticks":143520,"time":179.399701,"velocity":0.7480314960629921},{"duration":0.5399990999999886,"durationTicks":432,"midi":70,"name":"A#4","ticks":144000,"time":179.9997,"velocity":0.7480314960629921},{"duration":0.2699995499999943,"durationTicks":216,"midi":72,"name":"C5","ticks":144480,"time":180.599699,"velocity":0.7480314960629921},{"duration":0.2699995499999943,"durationTicks":216,"midi":63,"name":"D#4","ticks":144720,"time":180.89969849999997,"velocity":0.7480314960629921},{"duration":0.2699995499999943,"durationTicks":216,"midi":63,"name":"D#4","ticks":144960,"time":181.19969799999998,"velocity":0.7480314960629921},{"duration":0.2699995499999943,"durationTicks":216,"midi":65,"name":"F4","ticks":145200,"time":181.4996975,"velocity":0.7480314960629921},{"duration":0.2699995499999943,"durationTicks":216,"midi":68,"name":"G#4","ticks":145440,"time":181.79969699999998,"velocity":0.7480314960629921},{"duration":0.2699995499999943,"durationTicks":216,"midi":70,"name":"A#4","ticks":145680,"time":182.0996965,"velocity":0.7480314960629921},{"duration":0.5399990999999886,"durationTicks":432,"midi":72,"name":"C5","ticks":145920,"time":182.39969599999998,"velocity":0.7480314960629921},{"duration":0.2699995499999943,"durationTicks":216,"midi":75,"name":"D#5","ticks":146400,"time":182.99969499999997,"velocity":0.7480314960629921},{"duration":0.2699995499999943,"durationTicks":216,"midi":72,"name":"C5","ticks":146640,"time":183.2996945,"velocity":0.7480314960629921},{"duration":0.13499977500001137,"durationTicks":108,"midi":72,"name":"C5","ticks":147000,"time":183.74969374999998,"velocity":0.7480314960629921},{"duration":0.13499977500001137,"durationTicks":108,"midi":70,"name":"A#4","ticks":147120,"time":183.89969349999998,"velocity":0.7480314960629921},{"duration":0.13499977500001137,"durationTicks":108,"midi":72,"name":"C5","ticks":147240,"time":184.04969325,"velocity":0.7480314960629921},{"duration":0.13499977500001137,"durationTicks":108,"midi":70,"name":"A#4","ticks":147360,"time":184.199693,"velocity":0.7480314960629921},{"duration":0.13499977500001137,"durationTicks":108,"midi":68,"name":"G#4","ticks":147480,"time":184.34969274999997,"velocity":0.7480314960629921},{"duration":0.13499977500001137,"durationTicks":108,"midi":65,"name":"F4","ticks":147600,"time":184.49969249999998,"velocity":0.7480314960629921},{"duration":0.13499977500001137,"durationTicks":108,"midi":63,"name":"D#4","ticks":147720,"time":184.64969225,"velocity":0.7480314960629921},{"duration":0.5399990999999886,"durationTicks":432,"midi":72,"name":"C5","ticks":147840,"time":184.799692,"velocity":0.7480314960629921},{"duration":0.2699995499999943,"durationTicks":216,"midi":75,"name":"D#5","ticks":148320,"time":185.399691,"velocity":0.7480314960629921},{"duration":0.2699995499999943,"durationTicks":216,"midi":72,"name":"C5","ticks":148560,"time":185.69969049999997,"velocity":0.7480314960629921},{"duration":0.13499977500001137,"durationTicks":108,"midi":72,"name":"C5","ticks":148920,"time":186.14968975,"velocity":0.7480314960629921},{"duration":0.1349997750000398,"durationTicks":108,"midi":70,"name":"A#4","ticks":149040,"time":186.29968949999997,"velocity":0.7480314960629921},{"duration":0.13499977500001137,"durationTicks":108,"midi":72,"name":"C5","ticks":149160,"time":186.44968924999998,"velocity":0.7480314960629921},{"duration":0.13499977500001137,"durationTicks":108,"midi":70,"name":"A#4","ticks":149280,"time":186.59968899999998,"velocity":0.7480314960629921},{"duration":0.13499977500001137,"durationTicks":108,"midi":68,"name":"G#4","ticks":149400,"time":186.74968875,"velocity":0.7480314960629921},{"duration":0.13499977500001137,"durationTicks":108,"midi":65,"name":"F4","ticks":149520,"time":186.8996885,"velocity":0.7480314960629921},{"duration":0.13499977500001137,"durationTicks":108,"midi":63,"name":"D#4","ticks":149640,"time":187.04968824999997,"velocity":0.7480314960629921},{"duration":0.5399990999999886,"durationTicks":432,"midi":79,"name":"G5","ticks":149760,"time":187.19968799999998,"velocity":0.7480314960629921},{"duration":0.5399990999999886,"durationTicks":432,"midi":75,"name":"D#5","ticks":150240,"time":187.79968699999998,"velocity":0.7480314960629921},{"duration":0.5399990999999886,"durationTicks":432,"midi":72,"name":"C5","ticks":150720,"time":188.39968599999997,"velocity":0.7480314960629921},{"duration":0.5399990999999886,"durationTicks":432,"midi":70,"name":"A#4","ticks":151200,"time":188.99968499999997,"velocity":0.7480314960629921},{"duration":0.5399990999999602,"durationTicks":432,"midi":70,"name":"A#4","ticks":151680,"time":189.599684,"velocity":0.7480314960629921},{"duration":0.5399990999999886,"durationTicks":432,"midi":68,"name":"G#4","ticks":152160,"time":190.199683,"velocity":0.7480314960629921},{"duration":0.2699995499999943,"durationTicks":216,"midi":72,"name":"C5","ticks":152640,"time":190.799682,"velocity":0.7480314960629921},{"duration":0.2699995499999943,"durationTicks":216,"midi":75,"name":"D#5","ticks":152880,"time":191.09968149999997,"velocity":0.7480314960629921},{"duration":0.2699995499999943,"durationTicks":216,"midi":77,"name":"F5","ticks":153120,"time":191.399681,"velocity":0.7480314960629921},{"duration":0.2699995499999943,"durationTicks":216,"midi":75,"name":"D#5","ticks":153360,"time":191.69968049999997,"velocity":0.7480314960629921},{"duration":0.5399990999999886,"durationTicks":432,"midi":72,"name":"C5","ticks":153600,"time":191.99967999999998,"velocity":0.7480314960629921},{"duration":1.648747252083325,"durationTicks":1319,"midi":75,"name":"D#5","ticks":154080,"time":192.59967899999998,"velocity":0.7480314960629921},{"duration":0.2699995499999943,"durationTicks":216,"midi":75,"name":"D#5","ticks":155520,"time":194.39967599999997,"velocity":0.7480314960629921},{"duration":0.2699995499999943,"durationTicks":216,"midi":72,"name":"C5","ticks":155760,"time":194.69967549999998,"velocity":0.7480314960629921},{"duration":0.13499977500001137,"durationTicks":108,"midi":68,"name":"G#4","ticks":156000,"time":194.999675,"velocity":0.7480314960629921},{"duration":0.13499977500001137,"durationTicks":108,"midi":68,"name":"G#4","ticks":156120,"time":195.14967474999997,"velocity":0.7480314960629921},{"duration":0.5399990999999886,"durationTicks":432,"midi":68,"name":"G#4","ticks":156240,"time":195.29967449999998,"velocity":0.7480314960629921},{"duration":0.2699995499999943,"durationTicks":216,"midi":68,"name":"G#4","ticks":156720,"time":195.89967349999998,"velocity":0.7480314960629921},{"duration":0.13499977500001137,"durationTicks":108,"midi":68,"name":"G#4","ticks":156960,"time":196.199673,"velocity":0.7480314960629921},{"duration":0.13499977500001137,"durationTicks":108,"midi":70,"name":"A#4","ticks":157080,"time":196.34967275,"velocity":0.7480314960629921},{"duration":0.4487492520833314,"durationTicks":359,"midi":72,"name":"C5","ticks":157200,"time":196.49967249999997,"velocity":0.7480314960629921},{"duration":0.44874925208330296,"durationTicks":359,"midi":75,"name":"D#5","ticks":157560,"time":196.94967175,"velocity":0.7480314960629921},{"duration":0.13499977500001137,"durationTicks":108,"midi":72,"name":"C5","ticks":158160,"time":197.6996705,"velocity":0.7480314960629921},{"duration":0.13499977500001137,"durationTicks":108,"midi":70,"name":"A#4","ticks":158280,"time":197.84967024999997,"velocity":0.7480314960629921},{"duration":0.5399990999999886,"durationTicks":432,"midi":68,"name":"G#4","ticks":158400,"time":197.99966999999998,"velocity":0.7480314960629921},{"duration":0.2699995499999943,"durationTicks":216,"midi":68,"name":"G#4","ticks":159360,"time":199.19966799999997,"velocity":0.7480314960629921},{"duration":0.2699995499999943,"durationTicks":216,"midi":65,"name":"F4","ticks":159360,"time":199.19966799999997,"velocity":0.7480314960629921},{"duration":0.5399990999999886,"durationTicks":432,"midi":68,"name":"G#4","ticks":159600,"time":199.4996675,"velocity":0.7480314960629921},{"duration":0.5399990999999886,"durationTicks":432,"midi":65,"name":"F4","ticks":159600,"time":199.4996675,"velocity":0.7480314960629921},{"duration":0.2699995499999659,"durationTicks":216,"midi":72,"name":"C5","ticks":160320,"time":200.399666,"velocity":0.7480314960629921},{"duration":0.2699995499999943,"durationTicks":216,"midi":75,"name":"D#5","ticks":160560,"time":200.69966549999998,"velocity":0.7480314960629921},{"duration":0.2699995499999943,"durationTicks":216,"midi":77,"name":"F5","ticks":160800,"time":200.999665,"velocity":0.7480314960629921},{"duration":0.2699995499999943,"durationTicks":216,"midi":75,"name":"D#5","ticks":161040,"time":201.29966449999998,"velocity":0.7480314960629921},{"duration":0.5399990999999886,"durationTicks":432,"midi":72,"name":"C5","ticks":161280,"time":201.599664,"velocity":0.7480314960629921},{"duration":1.648747252083325,"durationTicks":1319,"midi":75,"name":"D#5","ticks":161760,"time":202.199663,"velocity":0.7480314960629921},{"duration":0.2699995499999943,"durationTicks":216,"midi":75,"name":"D#5","ticks":163200,"time":203.99965999999998,"velocity":0.7480314960629921},{"duration":0.2699995499999943,"durationTicks":216,"midi":72,"name":"C5","ticks":163440,"time":204.2996595,"velocity":0.7480314960629921},{"duration":0.13499977500001137,"durationTicks":108,"midi":68,"name":"G#4","ticks":163680,"time":204.59965899999997,"velocity":0.7480314960629921},{"duration":0.13499977500001137,"durationTicks":108,"midi":68,"name":"G#4","ticks":163800,"time":204.74965874999998,"velocity":0.7480314960629921},{"duration":0.5399990999999886,"durationTicks":432,"midi":68,"name":"G#4","ticks":163920,"time":204.8996585,"velocity":0.7480314960629921},{"duration":0.2699995499999943,"durationTicks":216,"midi":68,"name":"G#4","ticks":164400,"time":205.49965749999998,"velocity":0.7480314960629921},{"duration":0.13499977500001137,"durationTicks":108,"midi":68,"name":"G#4","ticks":164640,"time":205.799657,"velocity":0.7480314960629921},{"duration":0.13499977500001137,"durationTicks":108,"midi":70,"name":"A#4","ticks":164760,"time":205.94965674999997,"velocity":0.7480314960629921},{"duration":0.4487492520833314,"durationTicks":359,"midi":72,"name":"C5","ticks":164880,"time":206.09965649999998,"velocity":0.7480314960629921},{"duration":0.4487492520833314,"durationTicks":359,"midi":75,"name":"D#5","ticks":165240,"time":206.54965574999997,"velocity":0.7480314960629921},{"duration":0.13499977500001137,"durationTicks":108,"midi":72,"name":"C5","ticks":165840,"time":207.29965449999997,"velocity":0.7480314960629921},{"duration":0.13499977500001137,"durationTicks":108,"midi":70,"name":"A#4","ticks":165960,"time":207.44965424999998,"velocity":0.7480314960629921},{"duration":0.5399990999999886,"durationTicks":432,"midi":68,"name":"G#4","ticks":166080,"time":207.599654,"velocity":0.7480314960629921},{"duration":0.2699995499999943,"durationTicks":216,"midi":68,"name":"G#4","ticks":167040,"time":208.79965199999998,"velocity":0.7480314960629921},{"duration":0.2699995499999943,"durationTicks":216,"midi":65,"name":"F4","ticks":167040,"time":208.79965199999998,"velocity":0.7480314960629921},{"duration":0.5399990999999886,"durationTicks":432,"midi":68,"name":"G#4","ticks":167280,"time":209.0996515,"velocity":0.7480314960629921},{"duration":0.5399990999999886,"durationTicks":432,"midi":65,"name":"F4","ticks":167280,"time":209.0996515,"velocity":0.7480314960629921},{"duration":0.2699995499999943,"durationTicks":216,"midi":72,"name":"C5","ticks":168000,"time":209.99964999999997,"velocity":0.7480314960629921},{"duration":0.2699995499999943,"durationTicks":216,"midi":75,"name":"D#5","ticks":168240,"time":210.2996495,"velocity":0.7480314960629921},{"duration":0.2699995499999943,"durationTicks":216,"midi":77,"name":"F5","ticks":168480,"time":210.59964899999997,"velocity":0.7480314960629921},{"duration":0.2699995499999943,"durationTicks":216,"midi":75,"name":"D#5","ticks":168720,"time":210.89964849999998,"velocity":0.7480314960629921},{"duration":0.5399990999999886,"durationTicks":432,"midi":72,"name":"C5","ticks":168960,"time":211.19964799999997,"velocity":0.7480314960629921},{"duration":1.6487472520832966,"durationTicks":1319,"midi":75,"name":"D#5","ticks":169440,"time":211.799647,"velocity":0.7480314960629921}]},{"instrument_number":0,"notes":[{"duration":0.44874925208333327,"durationTicks":359,"midi":56,"name":"G#3","ticks":0,"time":0,"velocity":0.7480314960629921},{"duration":0.44874925208333327,"durationTicks":359,"midi":49,"name":"C#3","ticks":0,"time":0,"velocity":0.7480314960629921},{"duration":0.7487487520833332,"durationTicks":599,"midi":56,"name":"G#3","ticks":360,"time":0.44999924999999996,"velocity":0.7480314960629921},{"duration":0.7487487520833332,"durationTicks":599,"midi":49,"name":"C#3","ticks":360,"time":0.44999924999999996,"velocity":0.7480314960629921},{"duration":0.2699995500000001,"durationTicks":216,"midi":49,"name":"C#3","ticks":960,"time":1.199998,"velocity":0.7480314960629921},{"duration":0.2699995500000001,"durationTicks":216,"midi":49,"name":"C#3","ticks":1200,"time":1.4999974999999999,"velocity":0.7480314960629921},{"duration":0.5399990999999997,"durationTicks":432,"midi":56,"name":"G#3","ticks":1440,"time":1.7999969999999998,"velocity":0.7480314960629921},{"duration":0.5399990999999997,"durationTicks":432,"midi":53,"name":"F3","ticks":1440,"time":1.7999969999999998,"velocity":0.7480314960629921},{"duration":0.44874925208333316,"durationTicks":359,"midi":58,"name":"A#3","ticks":1920,"time":2.399996,"velocity":0.7480314960629921},{"duration":0.44874925208333316,"durationTicks":359,"midi":51,"name":"D#3","ticks":1920,"time":2.399996,"velocity":0.7480314960629921},{"duration":0.7487487520833334,"durationTicks":599,"midi":58,"name":"A#3","ticks":2280,"time":2.8499952499999996,"velocity":0.7480314960629921},{"duration":0.7487487520833334,"durationTicks":599,"midi":51,"name":"D#3","ticks":2280,"time":2.8499952499999996,"velocity":0.7480314960629921},{"duration":0.2699995500000001,"durationTicks":216,"midi":51,"name":"D#3","ticks":2880,"time":3.5999939999999997,"velocity":0.7480314960629921},{"duration":0.26999954999999964,"durationTicks":216,"midi":51,"name":"D#3","ticks":3120,"time":3.8999935,"velocity":0.7480314960629921},{"duration":0.5399991000000002,"durationTicks":432,"midi":58,"name":"A#3","ticks":3360,"time":4.199992999999999,"velocity":0.7480314960629921},{"duration":0.5399991000000002,"durationTicks":432,"midi":55,"name":"G3","ticks":3360,"time":4.199992999999999,"velocity":0.7480314960629921},{"duration":0.44874925208333316,"durationTicks":359,"midi":60,"name":"C4","ticks":3840,"time":4.799992,"velocity":0.7480314960629921},{"duration":0.44874925208333316,"durationTicks":359,"midi":53,"name":"F3","ticks":3840,"time":4.799992,"velocity":0.7480314960629921},{"duration":0.7487487520833334,"durationTicks":599,"midi":60,"name":"C4","ticks":4200,"time":5.24999125,"velocity":0.7480314960629921},{"duration":0.7487487520833334,"durationTicks":599,"midi":53,"name":"F3","ticks":4200,"time":5.24999125,"velocity":0.7480314960629921},{"duration":0.26999954999999964,"durationTicks":216,"midi":53,"name":"F3","ticks":4800,"time":5.9999899999999995,"velocity":0.7480314960629921},{"duration":0.26999954999999964,"durationTicks":216,"midi":53,"name":"F3","ticks":5040,"time":6.2999895,"velocity":0.7480314960629921},{"duration":0.5399991000000002,"durationTicks":432,"midi":60,"name":"C4","ticks":5280,"time":6.599988999999999,"velocity":0.7480314960629921},{"duration":0.5399991000000002,"durationTicks":432,"midi":56,"name":"G#3","ticks":5280,"time":6.599988999999999,"velocity":0.7480314960629921},{"duration":0.44874925208333316,"durationTicks":359,"midi":56,"name":"G#3","ticks":5760,"time":7.199987999999999,"velocity":0.7480314960629921},{"duration":0.44874925208333316,"durationTicks":359,"midi":49,"name":"C#3","ticks":5760,"time":7.199987999999999,"velocity":0.7480314960629921},{"duration":0.7487487520833325,"durationTicks":599,"midi":56,"name":"G#3","ticks":6120,"time":7.64998725,"velocity":0.7480314960629921},{"duration":0.7487487520833325,"durationTicks":599,"midi":49,"name":"C#3","ticks":6120,"time":7.64998725,"velocity":0.7480314960629921},{"duration":0.26999954999999964,"durationTicks":216,"midi":49,"name":"C#3","ticks":6720,"time":8.399985999999998,"velocity":0.7480314960629921},{"duration":0.26999954999999964,"durationTicks":216,"midi":49,"name":"C#3","ticks":6960,"time":8.699985499999999,"velocity":0.7480314960629921},{"duration":0.5399991000000011,"durationTicks":432,"midi":56,"name":"G#3","ticks":7200,"time":8.999984999999999,"velocity":0.7480314960629921},{"duration":0.5399991000000011,"durationTicks":432,"midi":53,"name":"F3","ticks":7200,"time":8.999984999999999,"velocity":0.7480314960629921},{"duration":0.44874925208333316,"durationTicks":359,"midi":56,"name":"G#3","ticks":7680,"time":9.599984,"velocity":0.7480314960629921},{"duration":0.44874925208333316,"durationTicks":359,"midi":49,"name":"C#3","ticks":7680,"time":9.599984,"velocity":0.7480314960629921},{"duration":0.7487487520833334,"durationTicks":599,"midi":56,"name":"G#3","ticks":8040,"time":10.049983249999999,"velocity":0.7480314960629921},{"duration":0.7487487520833334,"durationTicks":599,"midi":49,"name":"C#3","ticks":8040,"time":10.049983249999999,"velocity":0.7480314960629921},{"duration":0.26999954999999787,"durationTicks":216,"midi":49,"name":"C#3","ticks":8640,"time":10.799982,"velocity":0.7480314960629921},{"duration":0.26999954999999964,"durationTicks":216,"midi":49,"name":"C#3","ticks":8880,"time":11.099981499999998,"velocity":0.7480314960629921},{"duration":0.5399990999999993,"durationTicks":432,"midi":56,"name":"G#3","ticks":9120,"time":11.399980999999999,"velocity":0.7480314960629921},{"duration":0.5399990999999993,"durationTicks":432,"midi":53,"name":"F3","ticks":9120,"time":11.399980999999999,"velocity":0.7480314960629921},{"duration":0.44874925208333316,"durationTicks":359,"midi":58,"name":"A#3","ticks":9600,"time":11.999979999999999,"velocity":0.7480314960629921},{"duration":0.44874925208333316,"durationTicks":359,"midi":51,"name":"D#3","ticks":9600,"time":11.999979999999999,"velocity":0.7480314960629921},{"duration":0.7487487520833334,"durationTicks":599,"midi":58,"name":"A#3","ticks":9960,"time":12.449979249999998,"velocity":0.7480314960629921},{"duration":0.7487487520833334,"durationTicks":599,"midi":51,"name":"D#3","ticks":9960,"time":12.449979249999998,"velocity":0.7480314960629921},{"duration":0.26999954999999964,"durationTicks":216,"midi":51,"name":"D#3","ticks":10560,"time":13.199977999999998,"velocity":0.7480314960629921},{"duration":0.26999954999999964,"durationTicks":216,"midi":51,"name":"D#3","ticks":10800,"time":13.499977499999998,"velocity":0.7480314960629921},{"duration":0.5399990999999993,"durationTicks":432,"midi":58,"name":"A#3","ticks":11040,"time":13.799976999999998,"velocity":0.7480314960629921},{"duration":0.5399990999999993,"durationTicks":432,"midi":55,"name":"G3","ticks":11040,"time":13.799976999999998,"velocity":0.7480314960629921},{"duration":0.44874925208333316,"durationTicks":359,"midi":60,"name":"C4","ticks":11520,"time":14.399975999999999,"velocity":0.7480314960629921},{"duration":0.44874925208333316,"durationTicks":359,"midi":53,"name":"F3","ticks":11520,"time":14.399975999999999,"velocity":0.7480314960629921},{"duration":0.7487487520833334,"durationTicks":599,"midi":60,"name":"C4","ticks":11880,"time":14.849975249999998,"velocity":0.7480314960629921},{"duration":0.7487487520833334,"durationTicks":599,"midi":53,"name":"F3","ticks":11880,"time":14.849975249999998,"velocity":0.7480314960629921},{"duration":0.26999954999999787,"durationTicks":216,"midi":53,"name":"F3","ticks":12480,"time":15.599974,"velocity":0.7480314960629921},{"duration":0.2699995500000014,"durationTicks":216,"midi":53,"name":"F3","ticks":12720,"time":15.899973499999998,"velocity":0.7480314960629921},{"duration":0.5399990999999993,"durationTicks":432,"midi":60,"name":"C4","ticks":12960,"time":16.199973,"velocity":0.7480314960629921},{"duration":0.5399990999999993,"durationTicks":432,"midi":56,"name":"G#3","ticks":12960,"time":16.199973,"velocity":0.7480314960629921},{"duration":0.44874925208333494,"durationTicks":359,"midi":56,"name":"G#3","ticks":13440,"time":16.799971999999997,"velocity":0.7480314960629921},{"duration":0.44874925208333494,"durationTicks":359,"midi":49,"name":"C#3","ticks":13440,"time":16.799971999999997,"velocity":0.7480314960629921},{"duration":0.7487487520833334,"durationTicks":599,"midi":56,"name":"G#3","ticks":13800,"time":17.249971249999998,"velocity":0.7480314960629921},{"duration":0.7487487520833334,"durationTicks":599,"midi":49,"name":"C#3","ticks":13800,"time":17.249971249999998,"velocity":0.7480314960629921},{"duration":0.2699995500000014,"durationTicks":216,"midi":49,"name":"C#3","ticks":14400,"time":17.999969999999998,"velocity":0.7480314960629921},{"duration":0.26999954999999787,"durationTicks":216,"midi":49,"name":"C#3","ticks":14640,"time":18.2999695,"velocity":0.7480314960629921},{"duration":0.5399990999999993,"durationTicks":432,"midi":56,"name":"G#3","ticks":14880,"time":18.599968999999998,"velocity":0.7480314960629921},{"duration":0.5399990999999993,"durationTicks":432,"midi":53,"name":"F3","ticks":14880,"time":18.599968999999998,"velocity":0.7480314960629921},{"duration":0.44874925208333494,"durationTicks":359,"midi":56,"name":"G#3","ticks":15360,"time":19.199968,"velocity":0.7480314960629921},{"duration":0.44874925208333494,"durationTicks":359,"midi":49,"name":"C#3","ticks":15360,"time":19.199968,"velocity":0.7480314960629921},{"duration":0.7487487520833334,"durationTicks":599,"midi":56,"name":"G#3","ticks":15720,"time":19.64996725,"velocity":0.7480314960629921},{"duration":0.7487487520833334,"durationTicks":599,"midi":49,"name":"C#3","ticks":15720,"time":19.64996725,"velocity":0.7480314960629921},{"duration":0.2699995500000014,"durationTicks":216,"midi":49,"name":"C#3","ticks":16320,"time":20.399966,"velocity":0.7480314960629921},{"duration":0.2699995500000014,"durationTicks":216,"midi":49,"name":"C#3","ticks":16560,"time":20.699965499999998,"velocity":0.7480314960629921},{"duration":0.5399990999999993,"durationTicks":432,"midi":56,"name":"G#3","ticks":16800,"time":20.999965,"velocity":0.7480314960629921},{"duration":0.5399990999999993,"durationTicks":432,"midi":53,"name":"F3","ticks":16800,"time":20.999965,"velocity":0.7480314960629921},{"duration":0.4487492520833314,"durationTicks":359,"midi":58,"name":"A#3","ticks":17280,"time":21.599964,"velocity":0.7480314960629921},{"duration":0.4487492520833314,"durationTicks":359,"midi":51,"name":"D#3","ticks":17280,"time":21.599964,"velocity":0.7480314960629921},{"duration":0.7487487520833334,"durationTicks":599,"midi":58,"name":"A#3","ticks":17640,"time":22.049963249999998,"velocity":0.7480314960629921},{"duration":0.7487487520833334,"durationTicks":599,"midi":51,"name":"D#3","ticks":17640,"time":22.049963249999998,"velocity":0.7480314960629921},{"duration":0.2699995500000014,"durationTicks":216,"midi":51,"name":"D#3","ticks":18240,"time":22.799961999999997,"velocity":0.7480314960629921},{"duration":0.2699995500000014,"durationTicks":216,"midi":51,"name":"D#3","ticks":18480,"time":23.0999615,"velocity":0.7480314960629921},{"duration":0.5399990999999993,"durationTicks":432,"midi":58,"name":"A#3","ticks":18720,"time":23.399960999999998,"velocity":0.7480314960629921},{"duration":0.5399990999999993,"durationTicks":432,"midi":55,"name":"G3","ticks":18720,"time":23.399960999999998,"velocity":0.7480314960629921},{"duration":0.44874925208333494,"durationTicks":359,"midi":53,"name":"F3","ticks":19200,"time":23.999959999999998,"velocity":0.7480314960629921},{"duration":0.44874925208333494,"durationTicks":359,"midi":41,"name":"F2","ticks":19200,"time":23.999959999999998,"velocity":0.7480314960629921},{"duration":0.7487487520833334,"durationTicks":599,"midi":53,"name":"F3","ticks":19560,"time":24.44995925,"velocity":0.7480314960629921},{"duration":0.7487487520833334,"durationTicks":599,"midi":41,"name":"F2","ticks":19560,"time":24.44995925,"velocity":0.7480314960629921},{"duration":0.2699995500000014,"durationTicks":216,"midi":53,"name":"F3","ticks":20160,"time":25.199958,"velocity":0.7480314960629921},{"duration":0.2699995500000014,"durationTicks":216,"midi":41,"name":"F2","ticks":20160,"time":25.199958,"velocity":0.7480314960629921},{"duration":0.8987485020833361,"durationTicks":719,"midi":53,"name":"F3","ticks":20400,"time":25.499957499999997,"velocity":0.7480314960629921},{"duration":0.8987485020833361,"durationTicks":719,"midi":41,"name":"F2","ticks":20400,"time":25.499957499999997,"velocity":0.7480314960629921},{"duration":0.44874925208333494,"durationTicks":359,"midi":56,"name":"G#3","ticks":21120,"time":26.399955999999996,"velocity":0.7480314960629921},{"duration":0.44874925208333494,"durationTicks":359,"midi":49,"name":"C#3","ticks":21120,"time":26.399955999999996,"velocity":0.7480314960629921},{"duration":0.7487487520833334,"durationTicks":599,"midi":56,"name":"G#3","ticks":21480,"time":26.849955249999997,"velocity":0.7480314960629921},{"duration":0.7487487520833334,"durationTicks":599,"midi":49,"name":"C#3","ticks":21480,"time":26.849955249999997,"velocity":0.7480314960629921},{"duration":0.2699995500000014,"durationTicks":216,"midi":56,"name":"G#3","ticks":22080,"time":27.599953999999997,"velocity":0.7480314960629921},{"duration":0.2699995500000014,"durationTicks":216,"midi":49,"name":"C#3","ticks":22080,"time":27.599953999999997,"velocity":0.7480314960629921},{"duration":0.8987485020833326,"durationTicks":719,"midi":56,"name":"G#3","ticks":22320,"time":27.8999535,"velocity":0.7480314960629921},{"duration":0.8987485020833326,"durationTicks":719,"midi":49,"name":"C#3","ticks":22320,"time":27.8999535,"velocity":0.7480314960629921},{"duration":0.44874925208333494,"durationTicks":359,"midi":56,"name":"G#3","ticks":23040,"time":28.799951999999998,"velocity":0.7480314960629921},{"duration":0.44874925208333494,"durationTicks":359,"midi":49,"name":"C#3","ticks":23040,"time":28.799951999999998,"velocity":0.7480314960629921},{"duration":0.7487487520833334,"durationTicks":599,"midi":56,"name":"G#3","ticks":23400,"time":29.24995125,"velocity":0.7480314960629921},{"duration":0.7487487520833334,"durationTicks":599,"midi":49,"name":"C#3","ticks":23400,"time":29.24995125,"velocity":0.7480314960629921},{"duration":0.2699995500000014,"durationTicks":216,"midi":49,"name":"C#3","ticks":24000,"time":29.99995,"velocity":0.7480314960629921},{"duration":0.2699995500000014,"durationTicks":216,"midi":49,"name":"C#3","ticks":24240,"time":30.299949499999997,"velocity":0.7480314960629921},{"duration":0.5399990999999993,"durationTicks":432,"midi":56,"name":"G#3","ticks":24480,"time":30.599949,"velocity":0.7480314960629921},{"duration":0.5399990999999993,"durationTicks":432,"midi":53,"name":"F3","ticks":24480,"time":30.599949,"velocity":0.7480314960629921},{"duration":0.4487492520833314,"durationTicks":359,"midi":58,"name":"A#3","ticks":24960,"time":31.199948,"velocity":0.7480314960629921},{"duration":0.4487492520833314,"durationTicks":359,"midi":51,"name":"D#3","ticks":24960,"time":31.199948,"velocity":0.7480314960629921},{"duration":0.7487487520833369,"durationTicks":599,"midi":58,"name":"A#3","ticks":25320,"time":31.649947249999997,"velocity":0.7480314960629921},{"duration":0.7487487520833369,"durationTicks":599,"midi":51,"name":"D#3","ticks":25320,"time":31.649947249999997,"velocity":0.7480314960629921},{"duration":0.2699995500000014,"durationTicks":216,"midi":58,"name":"A#3","ticks":25920,"time":32.399946,"velocity":0.7480314960629921},{"duration":0.2699995500000014,"durationTicks":216,"midi":51,"name":"D#3","ticks":25920,"time":32.399946,"velocity":0.7480314960629921},{"duration":0.8987485020833361,"durationTicks":719,"midi":58,"name":"A#3","ticks":26160,"time":32.6999455,"velocity":0.7480314960629921},{"duration":0.8987485020833361,"durationTicks":719,"midi":51,"name":"D#3","ticks":26160,"time":32.6999455,"velocity":0.7480314960629921},{"duration":0.4487492520833385,"durationTicks":359,"midi":53,"name":"F3","ticks":26880,"time":33.599943999999994,"velocity":0.7480314960629921},{"duration":0.4487492520833385,"durationTicks":359,"midi":41,"name":"F2","ticks":26880,"time":33.599943999999994,"velocity":0.7480314960629921},{"duration":0.7487487520833298,"durationTicks":599,"midi":53,"name":"F3","ticks":27240,"time":34.04994325,"velocity":0.7480314960629921},{"duration":0.7487487520833298,"durationTicks":599,"midi":41,"name":"F2","ticks":27240,"time":34.04994325,"velocity":0.7480314960629921},{"duration":0.2699995500000014,"durationTicks":216,"midi":53,"name":"F3","ticks":27840,"time":34.799941999999994,"velocity":0.7480314960629921},{"duration":0.2699995500000014,"durationTicks":216,"midi":41,"name":"F2","ticks":27840,"time":34.799941999999994,"velocity":0.7480314960629921},{"duration":0.898748502083329,"durationTicks":719,"midi":53,"name":"F3","ticks":28080,"time":35.0999415,"velocity":0.7480314960629921},{"duration":0.898748502083329,"durationTicks":719,"midi":41,"name":"F2","ticks":28080,"time":35.0999415,"velocity":0.7480314960629921},{"duration":0.4487492520833385,"durationTicks":359,"midi":56,"name":"G#3","ticks":28800,"time":35.999939999999995,"velocity":0.7480314960629921},{"duration":0.4487492520833385,"durationTicks":359,"midi":49,"name":"C#3","ticks":28800,"time":35.999939999999995,"velocity":0.7480314960629921},{"duration":0.7487487520833298,"durationTicks":599,"midi":56,"name":"G#3","ticks":29160,"time":36.44993925,"velocity":0.7480314960629921},{"duration":0.7487487520833298,"durationTicks":599,"midi":49,"name":"C#3","ticks":29160,"time":36.44993925,"velocity":0.7480314960629921},{"duration":0.2699995500000014,"durationTicks":216,"midi":56,"name":"G#3","ticks":29760,"time":37.199937999999996,"velocity":0.7480314960629921},{"duration":0.2699995500000014,"durationTicks":216,"midi":49,"name":"C#3","ticks":29760,"time":37.199937999999996,"velocity":0.7480314960629921},{"duration":0.8987485020833361,"durationTicks":719,"midi":56,"name":"G#3","ticks":30000,"time":37.499937499999994,"velocity":0.7480314960629921},{"duration":0.8987485020833361,"durationTicks":719,"midi":49,"name":"C#3","ticks":30000,"time":37.499937499999994,"velocity":0.7480314960629921},{"duration":0.4487492520833314,"durationTicks":359,"midi":56,"name":"G#3","ticks":30720,"time":38.399936,"velocity":0.7480314960629921},{"duration":0.4487492520833314,"durationTicks":359,"midi":49,"name":"C#3","ticks":30720,"time":38.399936,"velocity":0.7480314960629921},{"duration":0.7487487520833369,"durationTicks":599,"midi":56,"name":"G#3","ticks":31080,"time":38.849935249999994,"velocity":0.7480314960629921},{"duration":0.7487487520833369,"durationTicks":599,"midi":49,"name":"C#3","ticks":31080,"time":38.849935249999994,"velocity":0.7480314960629921},{"duration":0.2699995500000014,"durationTicks":216,"midi":56,"name":"G#3","ticks":31680,"time":39.599934,"velocity":0.7480314960629921},{"duration":0.2699995500000014,"durationTicks":216,"midi":49,"name":"C#3","ticks":31680,"time":39.599934,"velocity":0.7480314960629921},{"duration":0.8987485020833361,"durationTicks":719,"midi":56,"name":"G#3","ticks":31920,"time":39.899933499999996,"velocity":0.7480314960629921},{"duration":0.8987485020833361,"durationTicks":719,"midi":49,"name":"C#3","ticks":31920,"time":39.899933499999996,"velocity":0.7480314960629921},{"duration":0.4487492520833314,"durationTicks":359,"midi":58,"name":"A#3","ticks":32640,"time":40.799932,"velocity":0.7480314960629921},{"duration":0.4487492520833314,"durationTicks":359,"midi":51,"name":"D#3","ticks":32640,"time":40.799932,"velocity":0.7480314960629921},{"duration":0.7487487520833369,"durationTicks":599,"midi":58,"name":"A#3","ticks":33000,"time":41.249931249999996,"velocity":0.7480314960629921},{"duration":0.7487487520833369,"durationTicks":599,"midi":51,"name":"D#3","ticks":33000,"time":41.249931249999996,"velocity":0.7480314960629921},{"duration":0.2699995500000014,"durationTicks":216,"midi":58,"name":"A#3","ticks":33600,"time":41.99993,"velocity":0.7480314960629921},{"duration":0.2699995500000014,"durationTicks":216,"midi":51,"name":"D#3","ticks":33600,"time":41.99993,"velocity":0.7480314960629921},{"duration":0.8987485020833361,"durationTicks":719,"midi":58,"name":"A#3","ticks":33840,"time":42.2999295,"velocity":0.7480314960629921},{"duration":0.8987485020833361,"durationTicks":719,"midi":51,"name":"D#3","ticks":33840,"time":42.2999295,"velocity":0.7480314960629921},{"duration":0.4487492520833314,"durationTicks":359,"midi":53,"name":"F3","ticks":34560,"time":43.199928,"velocity":0.7480314960629921},{"duration":0.4487492520833314,"durationTicks":359,"midi":41,"name":"F2","ticks":34560,"time":43.199928,"velocity":0.7480314960629921},{"duration":0.7487487520833298,"durationTicks":599,"midi":53,"name":"F3","ticks":34920,"time":43.64992725,"velocity":0.7480314960629921},{"duration":0.7487487520833298,"durationTicks":599,"midi":41,"name":"F2","ticks":34920,"time":43.64992725,"velocity":0.7480314960629921},{"duration":0.2699995500000014,"durationTicks":216,"midi":53,"name":"F3","ticks":35520,"time":44.399925999999994,"velocity":0.7480314960629921},{"duration":0.2699995500000014,"durationTicks":216,"midi":41,"name":"F2","ticks":35520,"time":44.399925999999994,"velocity":0.7480314960629921},{"duration":0.898748502083329,"durationTicks":719,"midi":53,"name":"F3","ticks":35760,"time":44.6999255,"velocity":0.7480314960629921},{"duration":0.898748502083329,"durationTicks":719,"midi":41,"name":"F2","ticks":35760,"time":44.6999255,"velocity":0.7480314960629921},{"duration":0.4487492520833385,"durationTicks":359,"midi":56,"name":"G#3","ticks":36480,"time":45.599923999999994,"velocity":0.7480314960629921},{"duration":0.4487492520833385,"durationTicks":359,"midi":49,"name":"C#3","ticks":36480,"time":45.599923999999994,"velocity":0.7480314960629921},{"duration":0.7487487520833298,"durationTicks":599,"midi":56,"name":"G#3","ticks":36840,"time":46.04992325,"velocity":0.7480314960629921},{"duration":0.7487487520833298,"durationTicks":599,"midi":49,"name":"C#3","ticks":36840,"time":46.04992325,"velocity":0.7480314960629921},{"duration":0.2699995500000014,"durationTicks":216,"midi":56,"name":"G#3","ticks":37440,"time":46.799921999999995,"velocity":0.7480314960629921},{"duration":0.2699995500000014,"durationTicks":216,"midi":49,"name":"C#3","ticks":37440,"time":46.799921999999995,"velocity":0.7480314960629921},{"duration":0.8987485020833361,"durationTicks":719,"midi":56,"name":"G#3","ticks":37680,"time":47.099921499999994,"velocity":0.7480314960629921},{"duration":0.8987485020833361,"durationTicks":719,"midi":49,"name":"C#3","ticks":37680,"time":47.099921499999994,"velocity":0.7480314960629921},{"duration":0.4487492520833314,"durationTicks":359,"midi":56,"name":"G#3","ticks":38400,"time":47.999919999999996,"velocity":0.7480314960629921},{"duration":0.4487492520833314,"durationTicks":359,"midi":49,"name":"C#3","ticks":38400,"time":47.999919999999996,"velocity":0.7480314960629921},{"duration":0.7487487520833369,"durationTicks":599,"midi":56,"name":"G#3","ticks":38760,"time":48.449919249999994,"velocity":0.7480314960629921},{"duration":0.7487487520833369,"durationTicks":599,"midi":49,"name":"C#3","ticks":38760,"time":48.449919249999994,"velocity":0.7480314960629921},{"duration":0.2699995500000014,"durationTicks":216,"midi":56,"name":"G#3","ticks":39360,"time":49.199918,"velocity":0.7480314960629921},{"duration":0.2699995500000014,"durationTicks":216,"midi":49,"name":"C#3","ticks":39360,"time":49.199918,"velocity":0.7480314960629921},{"duration":0.8987485020833361,"durationTicks":719,"midi":56,"name":"G#3","ticks":39600,"time":49.499917499999995,"velocity":0.7480314960629921},{"duration":0.8987485020833361,"durationTicks":719,"midi":49,"name":"C#3","ticks":39600,"time":49.499917499999995,"velocity":0.7480314960629921},{"duration":0.4487492520833314,"durationTicks":359,"midi":58,"name":"A#3","ticks":40320,"time":50.399916,"velocity":0.7480314960629921},{"duration":0.4487492520833314,"durationTicks":359,"midi":51,"name":"D#3","ticks":40320,"time":50.399916,"velocity":0.7480314960629921},{"duration":0.7487487520833369,"durationTicks":599,"midi":58,"name":"A#3","ticks":40680,"time":50.849915249999995,"velocity":0.7480314960629921},{"duration":0.7487487520833369,"durationTicks":599,"midi":51,"name":"D#3","ticks":40680,"time":50.849915249999995,"velocity":0.7480314960629921},{"duration":0.2699995500000014,"durationTicks":216,"midi":58,"name":"A#3","ticks":41280,"time":51.599914,"velocity":0.7480314960629921},{"duration":0.2699995500000014,"durationTicks":216,"midi":51,"name":"D#3","ticks":41280,"time":51.599914,"velocity":0.7480314960629921},{"duration":0.8987485020833361,"durationTicks":719,"midi":58,"name":"A#3","ticks":41520,"time":51.8999135,"velocity":0.7480314960629921},{"duration":0.8987485020833361,"durationTicks":719,"midi":51,"name":"D#3","ticks":41520,"time":51.8999135,"velocity":0.7480314960629921},{"duration":0.4487492520833385,"durationTicks":359,"midi":53,"name":"F3","ticks":42240,"time":52.79991199999999,"velocity":0.7480314960629921},{"duration":0.4487492520833385,"durationTicks":359,"midi":41,"name":"F2","ticks":42240,"time":52.79991199999999,"velocity":0.7480314960629921},{"duration":0.7487487520833298,"durationTicks":599,"midi":53,"name":"F3","ticks":42600,"time":53.24991125,"velocity":0.7480314960629921},{"duration":0.7487487520833298,"durationTicks":599,"midi":41,"name":"F2","ticks":42600,"time":53.24991125,"velocity":0.7480314960629921},{"duration":0.2699995500000014,"durationTicks":216,"midi":53,"name":"F3","ticks":43200,"time":53.99990999999999,"velocity":0.7480314960629921},{"duration":0.2699995500000014,"durationTicks":216,"midi":41,"name":"F2","ticks":43200,"time":53.99990999999999,"velocity":0.7480314960629921},{"duration":0.898748502083329,"durationTicks":719,"midi":53,"name":"F3","ticks":43440,"time":54.2999095,"velocity":0.7480314960629921},{"duration":0.898748502083329,"durationTicks":719,"midi":41,"name":"F2","ticks":43440,"time":54.2999095,"velocity":0.7480314960629921},{"duration":0.4487492520833385,"durationTicks":359,"midi":56,"name":"G#3","ticks":44160,"time":55.19990799999999,"velocity":0.7480314960629921},{"duration":0.4487492520833385,"durationTicks":359,"midi":49,"name":"C#3","ticks":44160,"time":55.19990799999999,"velocity":0.7480314960629921},{"duration":0.7487487520833298,"durationTicks":599,"midi":56,"name":"G#3","ticks":44520,"time":55.64990725,"velocity":0.7480314960629921},{"duration":0.7487487520833298,"durationTicks":599,"midi":49,"name":"C#3","ticks":44520,"time":55.64990725,"velocity":0.7480314960629921},{"duration":0.2699995500000014,"durationTicks":216,"midi":56,"name":"G#3","ticks":45120,"time":56.399905999999994,"velocity":0.7480314960629921},{"duration":0.2699995500000014,"durationTicks":216,"midi":49,"name":"C#3","ticks":45120,"time":56.399905999999994,"velocity":0.7480314960629921},{"duration":0.8987485020833361,"durationTicks":719,"midi":56,"name":"G#3","ticks":45360,"time":56.69990549999999,"velocity":0.7480314960629921},{"duration":0.8987485020833361,"durationTicks":719,"midi":49,"name":"C#3","ticks":45360,"time":56.69990549999999,"velocity":0.7480314960629921},{"duration":0.4487492520833314,"durationTicks":359,"midi":56,"name":"G#3","ticks":46080,"time":57.599903999999995,"velocity":0.7480314960629921},{"duration":0.4487492520833314,"durationTicks":359,"midi":49,"name":"C#3","ticks":46080,"time":57.599903999999995,"velocity":0.7480314960629921},{"duration":0.4487492520833385,"durationTicks":359,"midi":56,"name":"G#3","ticks":46440,"time":58.04990324999999,"velocity":0.7480314960629921},{"duration":0.4487492520833385,"durationTicks":359,"midi":49,"name":"C#3","ticks":46440,"time":58.04990324999999,"velocity":0.7480314960629921},{"duration":0.5399991000000028,"durationTicks":432,"midi":56,"name":"G#3","ticks":46800,"time":58.4999025,"velocity":0.7480314960629921},{"duration":0.5399991000000028,"durationTicks":432,"midi":49,"name":"C#3","ticks":46800,"time":58.4999025,"velocity":0.7480314960629921},{"duration":0.2699995500000014,"durationTicks":216,"midi":53,"name":"F3","ticks":47280,"time":59.099901499999994,"velocity":0.7480314960629921},{"duration":0.2699995500000014,"durationTicks":216,"midi":56,"name":"G#3","ticks":47520,"time":59.39990099999999,"velocity":0.7480314960629921},{"duration":0.2699995500000014,"durationTicks":216,"midi":56,"name":"G#3","ticks":47760,"time":59.6999005,"velocity":0.7480314960629921},{"duration":0.4487492520833314,"durationTicks":359,"midi":58,"name":"A#3","ticks":48000,"time":59.9999,"velocity":0.7480314960629921},{"duration":0.4487492520833314,"durationTicks":359,"midi":51,"name":"D#3","ticks":48000,"time":59.9999,"velocity":0.7480314960629921},{"duration":0.4487492520833385,"durationTicks":359,"midi":58,"name":"A#3","ticks":48360,"time":60.449899249999994,"velocity":0.7480314960629921},{"duration":0.4487492520833385,"durationTicks":359,"midi":51,"name":"D#3","ticks":48360,"time":60.449899249999994,"velocity":0.7480314960629921},{"duration":0.5399991000000028,"durationTicks":432,"midi":58,"name":"A#3","ticks":48720,"time":60.89989849999999,"velocity":0.7480314960629921},{"duration":0.5399991000000028,"durationTicks":432,"midi":51,"name":"D#3","ticks":48720,"time":60.89989849999999,"velocity":0.7480314960629921},{"duration":0.2699995500000014,"durationTicks":216,"midi":55,"name":"G3","ticks":49200,"time":61.499897499999996,"velocity":0.7480314960629921},{"duration":0.2699995500000014,"durationTicks":216,"midi":58,"name":"A#3","ticks":49440,"time":61.799896999999994,"velocity":0.7480314960629921},{"duration":0.2699995500000014,"durationTicks":216,"midi":55,"name":"G3","ticks":49680,"time":62.09989649999999,"velocity":0.7480314960629921},{"duration":0.4487492520833314,"durationTicks":359,"midi":53,"name":"F3","ticks":49920,"time":62.399896,"velocity":0.7480314960629921},{"duration":0.4487492520833314,"durationTicks":359,"midi":41,"name":"F2","ticks":49920,"time":62.399896,"velocity":0.7480314960629921},{"duration":0.4487492520833314,"durationTicks":359,"midi":53,"name":"F3","ticks":50280,"time":62.849895249999996,"velocity":0.7480314960629921},{"duration":0.4487492520833314,"durationTicks":359,"midi":41,"name":"F2","ticks":50280,"time":62.849895249999996,"velocity":0.7480314960629921},{"duration":0.5399991000000028,"durationTicks":432,"midi":53,"name":"F3","ticks":50640,"time":63.29989449999999,"velocity":0.7480314960629921},{"duration":0.5399991000000028,"durationTicks":432,"midi":41,"name":"F2","ticks":50640,"time":63.29989449999999,"velocity":0.7480314960629921},{"duration":0.2699995500000014,"durationTicks":216,"midi":48,"name":"C3","ticks":51120,"time":63.8998935,"velocity":0.7480314960629921},{"duration":0.2699995500000085,"durationTicks":216,"midi":51,"name":"D#3","ticks":51360,"time":64.19989299999999,"velocity":0.7480314960629921},{"duration":0.2699995499999943,"durationTicks":216,"midi":48,"name":"C3","ticks":51600,"time":64.4998925,"velocity":0.7480314960629921},{"duration":0.4487492520833314,"durationTicks":359,"midi":53,"name":"F3","ticks":51840,"time":64.799892,"velocity":0.7480314960629921},{"duration":0.4487492520833314,"durationTicks":359,"midi":41,"name":"F2","ticks":51840,"time":64.799892,"velocity":0.7480314960629921},{"duration":0.4487492520833456,"durationTicks":359,"midi":53,"name":"F3","ticks":52200,"time":65.24989124999999,"velocity":0.7480314960629921},{"duration":0.4487492520833456,"durationTicks":359,"midi":41,"name":"F2","ticks":52200,"time":65.24989124999999,"velocity":0.7480314960629921},{"duration":0.5399991000000028,"durationTicks":432,"midi":53,"name":"F3","ticks":52560,"time":65.6998905,"velocity":0.7480314960629921},{"duration":0.5399991000000028,"durationTicks":432,"midi":41,"name":"F2","ticks":52560,"time":65.6998905,"velocity":0.7480314960629921},{"duration":0.2699995500000085,"durationTicks":216,"midi":48,"name":"C3","ticks":53040,"time":66.29988949999999,"velocity":0.7480314960629921},{"duration":0.2699995500000085,"durationTicks":216,"midi":53,"name":"F3","ticks":53280,"time":66.59988899999999,"velocity":0.7480314960629921},{"duration":0.2699995500000085,"durationTicks":216,"midi":48,"name":"C3","ticks":53520,"time":66.89988849999999,"velocity":0.7480314960629921},{"duration":0.4487492520833456,"durationTicks":359,"midi":56,"name":"G#3","ticks":53760,"time":67.19988799999999,"velocity":0.7480314960629921},{"duration":0.4487492520833456,"durationTicks":359,"midi":49,"name":"C#3","ticks":53760,"time":67.19988799999999,"velocity":0.7480314960629921},{"duration":0.4487492520833314,"durationTicks":359,"midi":56,"name":"G#3","ticks":54120,"time":67.64988724999999,"velocity":0.7480314960629921},{"duration":0.4487492520833314,"durationTicks":359,"midi":49,"name":"C#3","ticks":54120,"time":67.64988724999999,"velocity":0.7480314960629921},{"duration":0.5399991000000028,"durationTicks":432,"midi":56,"name":"G#3","ticks":54480,"time":68.0998865,"velocity":0.7480314960629921},{"duration":0.5399991000000028,"durationTicks":432,"midi":49,"name":"C#3","ticks":54480,"time":68.0998865,"velocity":0.7480314960629921},{"duration":0.2699995500000085,"durationTicks":216,"midi":53,"name":"F3","ticks":54960,"time":68.6998855,"velocity":0.7480314960629921},{"duration":0.2699995500000085,"durationTicks":216,"midi":56,"name":"G#3","ticks":55200,"time":68.99988499999999,"velocity":0.7480314960629921},{"duration":0.2699995500000085,"durationTicks":216,"midi":56,"name":"G#3","ticks":55440,"time":69.29988449999999,"velocity":0.7480314960629921},{"duration":0.4487492520833456,"durationTicks":359,"midi":58,"name":"A#3","ticks":55680,"time":69.59988399999999,"velocity":0.7480314960629921},{"duration":0.4487492520833456,"durationTicks":359,"midi":51,"name":"D#3","ticks":55680,"time":69.59988399999999,"velocity":0.7480314960629921},{"duration":0.4487492520833314,"durationTicks":359,"midi":58,"name":"A#3","ticks":56040,"time":70.04988325,"velocity":0.7480314960629921},{"duration":0.4487492520833314,"durationTicks":359,"midi":51,"name":"D#3","ticks":56040,"time":70.04988325,"velocity":0.7480314960629921},{"duration":0.5399991000000028,"durationTicks":432,"midi":58,"name":"A#3","ticks":56400,"time":70.4998825,"velocity":0.7480314960629921},{"duration":0.5399991000000028,"durationTicks":432,"midi":51,"name":"D#3","ticks":56400,"time":70.4998825,"velocity":0.7480314960629921},{"duration":0.2699995499999943,"durationTicks":216,"midi":55,"name":"G3","ticks":56880,"time":71.0998815,"velocity":0.7480314960629921},{"duration":0.2699995500000085,"durationTicks":216,"midi":58,"name":"A#3","ticks":57120,"time":71.399881,"velocity":0.7480314960629921},{"duration":0.2699995500000085,"durationTicks":216,"midi":55,"name":"G3","ticks":57360,"time":71.69988049999999,"velocity":0.7480314960629921},{"duration":0.4487492520833314,"durationTicks":359,"midi":53,"name":"F3","ticks":57600,"time":71.99987999999999,"velocity":0.7480314960629921},{"duration":0.4487492520833314,"durationTicks":359,"midi":41,"name":"F2","ticks":57600,"time":71.99987999999999,"velocity":0.7480314960629921},{"duration":0.4487492520833314,"durationTicks":359,"midi":53,"name":"F3","ticks":57960,"time":72.44987925,"velocity":0.7480314960629921},{"duration":0.4487492520833314,"durationTicks":359,"midi":41,"name":"F2","ticks":57960,"time":72.44987925,"velocity":0.7480314960629921},{"duration":0.5399991000000028,"durationTicks":432,"midi":53,"name":"F3","ticks":58320,"time":72.8998785,"velocity":0.7480314960629921},{"duration":0.5399991000000028,"durationTicks":432,"midi":41,"name":"F2","ticks":58320,"time":72.8998785,"velocity":0.7480314960629921},{"duration":0.2699995499999943,"durationTicks":216,"midi":48,"name":"C3","ticks":58800,"time":73.4998775,"velocity":0.7480314960629921},{"duration":0.2699995499999943,"durationTicks":216,"midi":53,"name":"F3","ticks":59040,"time":73.799877,"velocity":0.7480314960629921},{"duration":0.2699995500000085,"durationTicks":216,"midi":48,"name":"C3","ticks":59280,"time":74.0998765,"velocity":0.7480314960629921},{"duration":0.4487492520833314,"durationTicks":359,"midi":53,"name":"F3","ticks":59520,"time":74.39987599999999,"velocity":0.7480314960629921},{"duration":0.4487492520833314,"durationTicks":359,"midi":41,"name":"F2","ticks":59520,"time":74.39987599999999,"velocity":0.7480314960629921},{"duration":0.4487492520833314,"durationTicks":359,"midi":53,"name":"F3","ticks":59880,"time":74.84987525,"velocity":0.7480314960629921},{"duration":0.4487492520833314,"durationTicks":359,"midi":41,"name":"F2","ticks":59880,"time":74.84987525,"velocity":0.7480314960629921},{"duration":0.5399991000000028,"durationTicks":432,"midi":53,"name":"F3","ticks":60240,"time":75.29987449999999,"velocity":0.7480314960629921},{"duration":0.5399991000000028,"durationTicks":432,"midi":41,"name":"F2","ticks":60240,"time":75.29987449999999,"velocity":0.7480314960629921},{"duration":0.2699995499999943,"durationTicks":216,"midi":48,"name":"C3","ticks":60720,"time":75.8998735,"velocity":0.7480314960629921},{"duration":0.2699995499999943,"durationTicks":216,"midi":53,"name":"F3","ticks":60960,"time":76.199873,"velocity":0.7480314960629921},{"duration":0.2699995499999943,"durationTicks":216,"midi":48,"name":"C3","ticks":61200,"time":76.4998725,"velocity":0.7480314960629921},{"duration":0.4487492520833314,"durationTicks":359,"midi":56,"name":"G#3","ticks":61440,"time":76.799872,"velocity":0.7480314960629921},{"duration":0.4487492520833314,"durationTicks":359,"midi":49,"name":"C#3","ticks":61440,"time":76.799872,"velocity":0.7480314960629921},{"duration":0.7487487520833298,"durationTicks":599,"midi":56,"name":"G#3","ticks":61800,"time":77.24987125,"velocity":0.7480314960629921},{"duration":0.7487487520833298,"durationTicks":599,"midi":49,"name":"C#3","ticks":61800,"time":77.24987125,"velocity":0.7480314960629921},{"duration":0.2699995499999943,"durationTicks":216,"midi":56,"name":"G#3","ticks":62400,"time":77.99986999999999,"velocity":0.7480314960629921},{"duration":0.2699995499999943,"durationTicks":216,"midi":49,"name":"C#3","ticks":62400,"time":77.99986999999999,"velocity":0.7480314960629921},{"duration":0.8987485020833219,"durationTicks":719,"midi":56,"name":"G#3","ticks":62640,"time":78.2998695,"velocity":0.7480314960629921},{"duration":0.8987485020833219,"durationTicks":719,"midi":49,"name":"C#3","ticks":62640,"time":78.2998695,"velocity":0.7480314960629921},{"duration":0.4487492520833314,"durationTicks":359,"midi":58,"name":"A#3","ticks":63360,"time":79.199868,"velocity":0.7480314960629921},{"duration":0.4487492520833314,"durationTicks":359,"midi":51,"name":"D#3","ticks":63360,"time":79.199868,"velocity":0.7480314960629921},{"duration":0.7487487520833298,"durationTicks":599,"midi":58,"name":"A#3","ticks":63720,"time":79.64986725,"velocity":0.7480314960629921},{"duration":0.7487487520833298,"durationTicks":599,"midi":51,"name":"D#3","ticks":63720,"time":79.64986725,"velocity":0.7480314960629921},{"duration":0.2699995499999943,"durationTicks":216,"midi":58,"name":"A#3","ticks":64320,"time":80.39986599999999,"velocity":0.7480314960629921},{"duration":0.2699995499999943,"durationTicks":216,"midi":51,"name":"D#3","ticks":64320,"time":80.39986599999999,"velocity":0.7480314960629921},{"duration":0.8987485020833361,"durationTicks":719,"midi":58,"name":"A#3","ticks":64560,"time":80.69986549999999,"velocity":0.7480314960629921},{"duration":0.8987485020833361,"durationTicks":719,"midi":51,"name":"D#3","ticks":64560,"time":80.69986549999999,"velocity":0.7480314960629921},{"duration":0.4487492520833314,"durationTicks":359,"midi":53,"name":"F3","ticks":65280,"time":81.599864,"velocity":0.7480314960629921},{"duration":0.4487492520833314,"durationTicks":359,"midi":41,"name":"F2","ticks":65280,"time":81.599864,"velocity":0.7480314960629921},{"duration":0.748748752083344,"durationTicks":599,"midi":53,"name":"F3","ticks":65640,"time":82.04986324999999,"velocity":0.7480314960629921},{"duration":0.748748752083344,"durationTicks":599,"midi":41,"name":"F2","ticks":65640,"time":82.04986324999999,"velocity":0.7480314960629921},{"duration":0.2699995499999943,"durationTicks":216,"midi":53,"name":"F3","ticks":66240,"time":82.79986199999999,"velocity":0.7480314960629921},{"duration":0.2699995499999943,"durationTicks":216,"midi":41,"name":"F2","ticks":66240,"time":82.79986199999999,"velocity":0.7480314960629921},{"duration":0.8987485020833361,"durationTicks":719,"midi":53,"name":"F3","ticks":66480,"time":83.09986149999999,"velocity":0.7480314960629921},{"duration":0.8987485020833361,"durationTicks":719,"midi":41,"name":"F2","ticks":66480,"time":83.09986149999999,"velocity":0.7480314960629921},{"duration":0.4487492520833314,"durationTicks":359,"midi":56,"name":"G#3","ticks":67200,"time":83.99986,"velocity":0.7480314960629921},{"duration":0.4487492520833314,"durationTicks":359,"midi":49,"name":"C#3","ticks":67200,"time":83.99986,"velocity":0.7480314960629921},{"duration":0.748748752083344,"durationTicks":599,"midi":56,"name":"G#3","ticks":67560,"time":84.44985924999999,"velocity":0.7480314960629921},{"duration":0.748748752083344,"durationTicks":599,"midi":49,"name":"C#3","ticks":67560,"time":84.44985924999999,"velocity":0.7480314960629921},{"duration":0.2699995499999943,"durationTicks":216,"midi":56,"name":"G#3","ticks":68160,"time":85.19985799999999,"velocity":0.7480314960629921},{"duration":0.2699995499999943,"durationTicks":216,"midi":49,"name":"C#3","ticks":68160,"time":85.19985799999999,"velocity":0.7480314960629921},{"duration":0.8987485020833361,"durationTicks":719,"midi":56,"name":"G#3","ticks":68400,"time":85.49985749999999,"velocity":0.7480314960629921},{"duration":0.8987485020833361,"durationTicks":719,"midi":49,"name":"C#3","ticks":68400,"time":85.49985749999999,"velocity":0.7480314960629921},{"duration":0.4487492520833314,"durationTicks":359,"midi":56,"name":"G#3","ticks":69120,"time":86.399856,"velocity":0.7480314960629921},{"duration":0.4487492520833314,"durationTicks":359,"midi":49,"name":"C#3","ticks":69120,"time":86.399856,"velocity":0.7480314960629921},{"duration":0.7487487520833298,"durationTicks":599,"midi":56,"name":"G#3","ticks":69480,"time":86.84985524999999,"velocity":0.7480314960629921},{"duration":0.7487487520833298,"durationTicks":599,"midi":49,"name":"C#3","ticks":69480,"time":86.84985524999999,"velocity":0.7480314960629921},{"duration":0.2699995499999943,"durationTicks":216,"midi":56,"name":"G#3","ticks":70080,"time":87.599854,"velocity":0.7480314960629921},{"duration":0.2699995499999943,"durationTicks":216,"midi":49,"name":"C#3","ticks":70080,"time":87.599854,"velocity":0.7480314960629921},{"duration":0.8987485020833361,"durationTicks":719,"midi":56,"name":"G#3","ticks":70320,"time":87.89985349999999,"velocity":0.7480314960629921},{"duration":0.8987485020833361,"durationTicks":719,"midi":49,"name":"C#3","ticks":70320,"time":87.89985349999999,"velocity":0.7480314960629921},{"duration":0.4487492520833456,"durationTicks":359,"midi":58,"name":"A#3","ticks":71040,"time":88.79985199999999,"velocity":0.7480314960629921},{"duration":0.4487492520833456,"durationTicks":359,"midi":51,"name":"D#3","ticks":71040,"time":88.79985199999999,"velocity":0.7480314960629921},{"duration":0.7487487520833298,"durationTicks":599,"midi":58,"name":"A#3","ticks":71400,"time":89.24985124999999,"velocity":0.7480314960629921},{"duration":0.7487487520833298,"durationTicks":599,"midi":51,"name":"D#3","ticks":71400,"time":89.24985124999999,"velocity":0.7480314960629921},{"duration":0.2699995499999943,"durationTicks":216,"midi":58,"name":"A#3","ticks":72000,"time":89.99985,"velocity":0.7480314960629921},{"duration":0.2699995499999943,"durationTicks":216,"midi":51,"name":"D#3","ticks":72000,"time":89.99985,"velocity":0.7480314960629921},{"duration":0.8987485020833361,"durationTicks":719,"midi":58,"name":"A#3","ticks":72240,"time":90.2998495,"velocity":0.7480314960629921},{"duration":0.8987485020833361,"durationTicks":719,"midi":51,"name":"D#3","ticks":72240,"time":90.2998495,"velocity":0.7480314960629921},{"duration":0.4487492520833314,"durationTicks":359,"midi":53,"name":"F3","ticks":72960,"time":91.19984799999999,"velocity":0.7480314960629921},{"duration":0.4487492520833314,"durationTicks":359,"midi":41,"name":"F2","ticks":72960,"time":91.19984799999999,"velocity":0.7480314960629921},{"duration":0.7487487520833298,"durationTicks":599,"midi":53,"name":"F3","ticks":73320,"time":91.64984725,"velocity":0.7480314960629921},{"duration":0.7487487520833298,"durationTicks":599,"midi":41,"name":"F2","ticks":73320,"time":91.64984725,"velocity":0.7480314960629921},{"duration":0.2699995499999943,"durationTicks":216,"midi":53,"name":"F3","ticks":73920,"time":92.399846,"velocity":0.7480314960629921},{"duration":0.2699995499999943,"durationTicks":216,"midi":41,"name":"F2","ticks":73920,"time":92.399846,"velocity":0.7480314960629921},{"duration":0.8987485020833361,"durationTicks":719,"midi":53,"name":"F3","ticks":74160,"time":92.6998455,"velocity":0.7480314960629921},{"duration":0.8987485020833361,"durationTicks":719,"midi":41,"name":"F2","ticks":74160,"time":92.6998455,"velocity":0.7480314960629921},{"duration":0.4487492520833314,"durationTicks":359,"midi":56,"name":"G#3","ticks":74880,"time":93.59984399999999,"velocity":0.7480314960629921},{"duration":0.4487492520833314,"durationTicks":359,"midi":49,"name":"C#3","ticks":74880,"time":93.59984399999999,"velocity":0.7480314960629921},{"duration":0.7487487520833298,"durationTicks":599,"midi":56,"name":"G#3","ticks":75240,"time":94.04984325,"velocity":0.7480314960629921},{"duration":0.7487487520833298,"durationTicks":599,"midi":49,"name":"C#3","ticks":75240,"time":94.04984325,"velocity":0.7480314960629921},{"duration":0.2699995499999801,"durationTicks":216,"midi":56,"name":"G#3","ticks":75840,"time":94.799842,"velocity":0.7480314960629921},{"duration":0.2699995499999801,"durationTicks":216,"midi":49,"name":"C#3","ticks":75840,"time":94.799842,"velocity":0.7480314960629921},{"duration":0.8987485020833361,"durationTicks":719,"midi":56,"name":"G#3","ticks":76080,"time":95.0998415,"velocity":0.7480314960629921},{"duration":0.8987485020833361,"durationTicks":719,"midi":49,"name":"C#3","ticks":76080,"time":95.0998415,"velocity":0.7480314960629921},{"duration":0.4487492520833314,"durationTicks":359,"midi":56,"name":"G#3","ticks":76800,"time":95.99983999999999,"velocity":0.7480314960629921},{"duration":0.4487492520833314,"durationTicks":359,"midi":49,"name":"C#3","ticks":76800,"time":95.99983999999999,"velocity":0.7480314960629921},{"duration":0.7487487520833298,"durationTicks":599,"midi":56,"name":"G#3","ticks":77160,"time":96.44983925,"velocity":0.7480314960629921},{"duration":0.7487487520833298,"durationTicks":599,"midi":49,"name":"C#3","ticks":77160,"time":96.44983925,"velocity":0.7480314960629921},{"duration":0.2699995499999943,"durationTicks":216,"midi":56,"name":"G#3","ticks":77760,"time":97.19983799999999,"velocity":0.7480314960629921},{"duration":0.2699995499999943,"durationTicks":216,"midi":49,"name":"C#3","ticks":77760,"time":97.19983799999999,"velocity":0.7480314960629921},{"duration":0.8987485020833219,"durationTicks":719,"midi":56,"name":"G#3","ticks":78000,"time":97.4998375,"velocity":0.7480314960629921},{"duration":0.8987485020833219,"durationTicks":719,"midi":49,"name":"C#3","ticks":78000,"time":97.4998375,"velocity":0.7480314960629921},{"duration":0.4487492520833314,"durationTicks":359,"midi":58,"name":"A#3","ticks":78720,"time":98.399836,"velocity":0.7480314960629921},{"duration":0.4487492520833314,"durationTicks":359,"midi":51,"name":"D#3","ticks":78720,"time":98.399836,"velocity":0.7480314960629921},{"duration":0.7487487520833298,"durationTicks":599,"midi":58,"name":"A#3","ticks":79080,"time":98.84983525,"velocity":0.7480314960629921},{"duration":0.7487487520833298,"durationTicks":599,"midi":51,"name":"D#3","ticks":79080,"time":98.84983525,"velocity":0.7480314960629921},{"duration":0.2699995499999943,"durationTicks":216,"midi":58,"name":"A#3","ticks":79680,"time":99.59983399999999,"velocity":0.7480314960629921},{"duration":0.2699995499999943,"durationTicks":216,"midi":51,"name":"D#3","ticks":79680,"time":99.59983399999999,"velocity":0.7480314960629921},{"duration":0.8987485020833361,"durationTicks":719,"midi":58,"name":"A#3","ticks":79920,"time":99.89983349999999,"velocity":0.7480314960629921},{"duration":0.8987485020833361,"durationTicks":719,"midi":51,"name":"D#3","ticks":79920,"time":99.89983349999999,"velocity":0.7480314960629921},{"duration":0.4487492520833314,"durationTicks":359,"midi":53,"name":"F3","ticks":80640,"time":100.799832,"velocity":0.7480314960629921},{"duration":0.4487492520833314,"durationTicks":359,"midi":41,"name":"F2","ticks":80640,"time":100.799832,"velocity":0.7480314960629921},{"duration":0.748748752083344,"durationTicks":599,"midi":53,"name":"F3","ticks":81000,"time":101.24983124999999,"velocity":0.7480314960629921},{"duration":0.748748752083344,"durationTicks":599,"midi":41,"name":"F2","ticks":81000,"time":101.24983124999999,"velocity":0.7480314960629921},{"duration":0.2699995499999943,"durationTicks":216,"midi":53,"name":"F3","ticks":81600,"time":101.99982999999999,"velocity":0.7480314960629921},{"duration":0.2699995499999943,"durationTicks":216,"midi":41,"name":"F2","ticks":81600,"time":101.99982999999999,"velocity":0.7480314960629921},{"duration":0.8987485020833361,"durationTicks":719,"midi":53,"name":"F3","ticks":81840,"time":102.29982949999999,"velocity":0.7480314960629921},{"duration":0.8987485020833361,"durationTicks":719,"midi":41,"name":"F2","ticks":81840,"time":102.29982949999999,"velocity":0.7480314960629921},{"duration":0.4487492520833314,"durationTicks":359,"midi":56,"name":"G#3","ticks":82560,"time":103.199828,"velocity":0.7480314960629921},{"duration":0.4487492520833314,"durationTicks":359,"midi":49,"name":"C#3","ticks":82560,"time":103.199828,"velocity":0.7480314960629921},{"duration":0.748748752083344,"durationTicks":599,"midi":56,"name":"G#3","ticks":82920,"time":103.64982724999999,"velocity":0.7480314960629921},{"duration":0.748748752083344,"durationTicks":599,"midi":49,"name":"C#3","ticks":82920,"time":103.64982724999999,"velocity":0.7480314960629921},{"duration":0.2699995499999943,"durationTicks":216,"midi":56,"name":"G#3","ticks":83520,"time":104.39982599999999,"velocity":0.7480314960629921},{"duration":0.2699995499999943,"durationTicks":216,"midi":49,"name":"C#3","ticks":83520,"time":104.39982599999999,"velocity":0.7480314960629921},{"duration":0.8987485020833361,"durationTicks":719,"midi":56,"name":"G#3","ticks":83760,"time":104.69982549999999,"velocity":0.7480314960629921},{"duration":0.8987485020833361,"durationTicks":719,"midi":49,"name":"C#3","ticks":83760,"time":104.69982549999999,"velocity":0.7480314960629921},{"duration":0.4487492520833456,"durationTicks":359,"midi":56,"name":"G#3","ticks":84480,"time":105.59982399999998,"velocity":0.7480314960629921},{"duration":0.4487492520833456,"durationTicks":359,"midi":49,"name":"C#3","ticks":84480,"time":105.59982399999998,"velocity":0.7480314960629921},{"duration":0.7487487520833298,"durationTicks":599,"midi":56,"name":"G#3","ticks":84840,"time":106.04982324999999,"velocity":0.7480314960629921},{"duration":0.7487487520833298,"durationTicks":599,"midi":49,"name":"C#3","ticks":84840,"time":106.04982324999999,"velocity":0.7480314960629921},{"duration":0.2699995499999943,"durationTicks":216,"midi":56,"name":"G#3","ticks":85440,"time":106.79982199999999,"velocity":0.7480314960629921},{"duration":0.2699995499999943,"durationTicks":216,"midi":49,"name":"C#3","ticks":85440,"time":106.79982199999999,"velocity":0.7480314960629921},{"duration":0.8987485020833361,"durationTicks":719,"midi":56,"name":"G#3","ticks":85680,"time":107.09982149999999,"velocity":0.7480314960629921},{"duration":0.8987485020833361,"durationTicks":719,"midi":49,"name":"C#3","ticks":85680,"time":107.09982149999999,"velocity":0.7480314960629921},{"duration":0.4487492520833456,"durationTicks":359,"midi":58,"name":"A#3","ticks":86400,"time":107.99981999999999,"velocity":0.7480314960629921},{"duration":0.4487492520833456,"durationTicks":359,"midi":51,"name":"D#3","ticks":86400,"time":107.99981999999999,"velocity":0.7480314960629921},{"duration":0.7487487520833298,"durationTicks":599,"midi":58,"name":"A#3","ticks":86760,"time":108.44981924999999,"velocity":0.7480314960629921},{"duration":0.7487487520833298,"durationTicks":599,"midi":51,"name":"D#3","ticks":86760,"time":108.44981924999999,"velocity":0.7480314960629921},{"duration":0.2699995499999943,"durationTicks":216,"midi":58,"name":"A#3","ticks":87360,"time":109.199818,"velocity":0.7480314960629921},{"duration":0.2699995499999943,"durationTicks":216,"midi":51,"name":"D#3","ticks":87360,"time":109.199818,"velocity":0.7480314960629921},{"duration":0.8987485020833361,"durationTicks":719,"midi":58,"name":"A#3","ticks":87600,"time":109.49981749999999,"velocity":0.7480314960629921},{"duration":0.8987485020833361,"durationTicks":719,"midi":51,"name":"D#3","ticks":87600,"time":109.49981749999999,"velocity":0.7480314960629921},{"duration":0.4487492520833314,"durationTicks":359,"midi":53,"name":"F3","ticks":88320,"time":110.39981599999999,"velocity":0.7480314960629921},{"duration":0.4487492520833314,"durationTicks":359,"midi":41,"name":"F2","ticks":88320,"time":110.39981599999999,"velocity":0.7480314960629921},{"duration":0.7487487520833298,"durationTicks":599,"midi":53,"name":"F3","ticks":88680,"time":110.84981524999999,"velocity":0.7480314960629921},{"duration":0.7487487520833298,"durationTicks":599,"midi":41,"name":"F2","ticks":88680,"time":110.84981524999999,"velocity":0.7480314960629921},{"duration":0.2699995499999943,"durationTicks":216,"midi":53,"name":"F3","ticks":89280,"time":111.599814,"velocity":0.7480314960629921},{"duration":0.2699995499999943,"durationTicks":216,"midi":41,"name":"F2","ticks":89280,"time":111.599814,"velocity":0.7480314960629921},{"duration":0.8987485020833361,"durationTicks":719,"midi":53,"name":"F3","ticks":89520,"time":111.8998135,"velocity":0.7480314960629921},{"duration":0.8987485020833361,"durationTicks":719,"midi":41,"name":"F2","ticks":89520,"time":111.8998135,"velocity":0.7480314960629921},{"duration":0.4487492520833314,"durationTicks":359,"midi":56,"name":"G#3","ticks":90240,"time":112.79981199999999,"velocity":0.7480314960629921},{"duration":0.4487492520833314,"durationTicks":359,"midi":49,"name":"C#3","ticks":90240,"time":112.79981199999999,"velocity":0.7480314960629921},{"duration":0.7487487520833298,"durationTicks":599,"midi":56,"name":"G#3","ticks":90600,"time":113.24981125,"velocity":0.7480314960629921},{"duration":0.7487487520833298,"durationTicks":599,"midi":49,"name":"C#3","ticks":90600,"time":113.24981125,"velocity":0.7480314960629921},{"duration":0.2699995499999801,"durationTicks":216,"midi":56,"name":"G#3","ticks":91200,"time":113.99981,"velocity":0.7480314960629921},{"duration":0.2699995499999801,"durationTicks":216,"midi":49,"name":"C#3","ticks":91200,"time":113.99981,"velocity":0.7480314960629921},{"duration":0.8987485020833361,"durationTicks":719,"midi":56,"name":"G#3","ticks":91440,"time":114.2998095,"velocity":0.7480314960629921},{"duration":0.8987485020833361,"durationTicks":719,"midi":49,"name":"C#3","ticks":91440,"time":114.2998095,"velocity":0.7480314960629921},{"duration":0.4487492520833314,"durationTicks":359,"midi":56,"name":"G#3","ticks":92160,"time":115.19980799999999,"velocity":0.7480314960629921},{"duration":0.4487492520833314,"durationTicks":359,"midi":49,"name":"C#3","ticks":92160,"time":115.19980799999999,"velocity":0.7480314960629921},{"duration":0.4487492520833314,"durationTicks":359,"midi":56,"name":"G#3","ticks":92520,"time":115.64980725,"velocity":0.7480314960629921},{"duration":0.4487492520833314,"durationTicks":359,"midi":49,"name":"C#3","ticks":92520,"time":115.64980725,"velocity":0.7480314960629921},{"duration":0.5399991000000028,"durationTicks":432,"midi":56,"name":"G#3","ticks":92880,"time":116.09980649999999,"velocity":0.7480314960629921},{"duration":0.5399991000000028,"durationTicks":432,"midi":49,"name":"C#3","ticks":92880,"time":116.09980649999999,"velocity":0.7480314960629921},{"duration":0.2699995499999801,"durationTicks":216,"midi":53,"name":"F3","ticks":93360,"time":116.6998055,"velocity":0.7480314960629921},{"duration":0.2699995499999943,"durationTicks":216,"midi":56,"name":"G#3","ticks":93600,"time":116.999805,"velocity":0.7480314960629921},{"duration":0.2699995499999943,"durationTicks":216,"midi":56,"name":"G#3","ticks":93840,"time":117.2998045,"velocity":0.7480314960629921},{"duration":0.4487492520833314,"durationTicks":359,"midi":58,"name":"A#3","ticks":94080,"time":117.59980399999999,"velocity":0.7480314960629921},{"duration":0.4487492520833314,"durationTicks":359,"midi":51,"name":"D#3","ticks":94080,"time":117.59980399999999,"velocity":0.7480314960629921},{"duration":0.4487492520833314,"durationTicks":359,"midi":58,"name":"A#3","ticks":94440,"time":118.04980325,"velocity":0.7480314960629921},{"duration":0.4487492520833314,"durationTicks":359,"midi":51,"name":"D#3","ticks":94440,"time":118.04980325,"velocity":0.7480314960629921},{"duration":0.5399991000000028,"durationTicks":432,"midi":58,"name":"A#3","ticks":94800,"time":118.49980249999999,"velocity":0.7480314960629921},{"duration":0.5399991000000028,"durationTicks":432,"midi":51,"name":"D#3","ticks":94800,"time":118.49980249999999,"velocity":0.7480314960629921},{"duration":0.2699995499999943,"durationTicks":216,"midi":55,"name":"G3","ticks":95280,"time":119.09980149999998,"velocity":0.7480314960629921},{"duration":0.2699995499999801,"durationTicks":216,"midi":58,"name":"A#3","ticks":95520,"time":119.399801,"velocity":0.7480314960629921},{"duration":0.2699995499999943,"durationTicks":216,"midi":55,"name":"G3","ticks":95760,"time":119.6998005,"velocity":0.7480314960629921},{"duration":0.4487492520833314,"durationTicks":359,"midi":53,"name":"F3","ticks":96000,"time":119.9998,"velocity":0.7480314960629921},{"duration":0.4487492520833314,"durationTicks":359,"midi":41,"name":"F2","ticks":96000,"time":119.9998,"velocity":0.7480314960629921},{"duration":0.4487492520833456,"durationTicks":359,"midi":53,"name":"F3","ticks":96360,"time":120.44979924999998,"velocity":0.7480314960629921},{"duration":0.4487492520833456,"durationTicks":359,"midi":41,"name":"F2","ticks":96360,"time":120.44979924999998,"velocity":0.7480314960629921},{"duration":0.5399991000000028,"durationTicks":432,"midi":53,"name":"F3","ticks":96720,"time":120.89979849999999,"velocity":0.7480314960629921},{"duration":0.5399991000000028,"durationTicks":432,"midi":41,"name":"F2","ticks":96720,"time":120.89979849999999,"velocity":0.7480314960629921},{"duration":0.2699995499999943,"durationTicks":216,"midi":48,"name":"C3","ticks":97200,"time":121.49979749999999,"velocity":0.7480314960629921},{"duration":0.2699995499999943,"durationTicks":216,"midi":51,"name":"D#3","ticks":97440,"time":121.79979699999998,"velocity":0.7480314960629921},{"duration":0.2699995499999801,"durationTicks":216,"midi":48,"name":"C3","ticks":97680,"time":122.0997965,"velocity":0.7480314960629921},{"duration":0.4487492520833314,"durationTicks":359,"midi":53,"name":"F3","ticks":97920,"time":122.399796,"velocity":0.7480314960629921},{"duration":0.4487492520833314,"durationTicks":359,"midi":41,"name":"F2","ticks":97920,"time":122.399796,"velocity":0.7480314960629921},{"duration":0.4487492520833456,"durationTicks":359,"midi":53,"name":"F3","ticks":98280,"time":122.84979524999999,"velocity":0.7480314960629921},{"duration":0.4487492520833456,"durationTicks":359,"midi":41,"name":"F2","ticks":98280,"time":122.84979524999999,"velocity":0.7480314960629921},{"duration":0.5399991000000028,"durationTicks":432,"midi":53,"name":"F3","ticks":98640,"time":123.29979449999999,"velocity":0.7480314960629921},{"duration":0.5399991000000028,"durationTicks":432,"midi":41,"name":"F2","ticks":98640,"time":123.29979449999999,"velocity":0.7480314960629921},{"duration":0.2699995499999943,"durationTicks":216,"midi":48,"name":"C3","ticks":99120,"time":123.89979349999999,"velocity":0.7480314960629921},{"duration":0.2699995499999943,"durationTicks":216,"midi":53,"name":"F3","ticks":99360,"time":124.19979299999999,"velocity":0.7480314960629921},{"duration":0.2699995499999943,"durationTicks":216,"midi":48,"name":"C3","ticks":99600,"time":124.49979249999998,"velocity":0.7480314960629921},{"duration":0.4487492520833314,"durationTicks":359,"midi":56,"name":"G#3","ticks":99840,"time":124.799792,"velocity":0.7480314960629921},{"duration":0.4487492520833314,"durationTicks":359,"midi":49,"name":"C#3","ticks":99840,"time":124.799792,"velocity":0.7480314960629921},{"duration":0.4487492520833314,"durationTicks":359,"midi":56,"name":"G#3","ticks":100200,"time":125.24979124999999,"velocity":0.7480314960629921},{"duration":0.4487492520833314,"durationTicks":359,"midi":49,"name":"C#3","ticks":100200,"time":125.24979124999999,"velocity":0.7480314960629921},{"duration":0.5399991000000028,"durationTicks":432,"midi":56,"name":"G#3","ticks":100560,"time":125.69979049999999,"velocity":0.7480314960629921},{"duration":0.5399991000000028,"durationTicks":432,"midi":49,"name":"C#3","ticks":100560,"time":125.69979049999999,"velocity":0.7480314960629921},{"duration":0.2699995499999943,"durationTicks":216,"midi":53,"name":"F3","ticks":101040,"time":126.29978949999999,"velocity":0.7480314960629921},{"duration":0.2699995499999943,"durationTicks":216,"midi":56,"name":"G#3","ticks":101280,"time":126.59978899999999,"velocity":0.7480314960629921},{"duration":0.2699995499999943,"durationTicks":216,"midi":56,"name":"G#3","ticks":101520,"time":126.89978849999999,"velocity":0.7480314960629921},{"duration":0.4487492520833456,"durationTicks":359,"midi":58,"name":"A#3","ticks":101760,"time":127.19978799999998,"velocity":0.7480314960629921},{"duration":0.4487492520833456,"durationTicks":359,"midi":51,"name":"D#3","ticks":101760,"time":127.19978799999998,"velocity":0.7480314960629921},{"duration":0.4487492520833456,"durationTicks":359,"midi":58,"name":"A#3","ticks":102120,"time":127.64978724999999,"velocity":0.7480314960629921},{"duration":0.4487492520833456,"durationTicks":359,"midi":51,"name":"D#3","ticks":102120,"time":127.64978724999999,"velocity":0.7480314960629921},{"duration":0.5399990999999886,"durationTicks":432,"midi":58,"name":"A#3","ticks":102480,"time":128.0997865,"velocity":0.7480314960629921},{"duration":0.5399990999999886,"durationTicks":432,"midi":51,"name":"D#3","ticks":102480,"time":128.0997865,"velocity":0.7480314960629921},{"duration":0.2699995499999943,"durationTicks":216,"midi":55,"name":"G3","ticks":102960,"time":128.6997855,"velocity":0.7480314960629921},{"duration":0.2699995499999659,"durationTicks":216,"midi":58,"name":"A#3","ticks":103200,"time":128.999785,"velocity":0.7480314960629921},{"duration":0.2699995499999943,"durationTicks":216,"midi":55,"name":"G3","ticks":103440,"time":129.2997845,"velocity":0.7480314960629921},{"duration":0.4487492520833314,"durationTicks":359,"midi":53,"name":"F3","ticks":103680,"time":129.599784,"velocity":0.7480314960629921},{"duration":0.4487492520833314,"durationTicks":359,"midi":41,"name":"F2","ticks":103680,"time":129.599784,"velocity":0.7480314960629921},{"duration":0.4487492520833314,"durationTicks":359,"midi":53,"name":"F3","ticks":104040,"time":130.04978325,"velocity":0.7480314960629921},{"duration":0.4487492520833314,"durationTicks":359,"midi":41,"name":"F2","ticks":104040,"time":130.04978325,"velocity":0.7480314960629921},{"duration":0.539999100000017,"durationTicks":432,"midi":53,"name":"F3","ticks":104400,"time":130.49978249999998,"velocity":0.7480314960629921},{"duration":0.539999100000017,"durationTicks":432,"midi":41,"name":"F2","ticks":104400,"time":130.49978249999998,"velocity":0.7480314960629921},{"duration":0.2699995499999943,"durationTicks":216,"midi":48,"name":"C3","ticks":104880,"time":131.09978149999998,"velocity":0.7480314960629921},{"duration":0.2699995499999943,"durationTicks":216,"midi":53,"name":"F3","ticks":105120,"time":131.399781,"velocity":0.7480314960629921},{"duration":0.2699995499999659,"durationTicks":216,"midi":48,"name":"C3","ticks":105360,"time":131.6997805,"velocity":0.7480314960629921},{"duration":0.4487492520833314,"durationTicks":359,"midi":53,"name":"F3","ticks":105600,"time":131.99978,"velocity":0.7480314960629921},{"duration":0.4487492520833314,"durationTicks":359,"midi":41,"name":"F2","ticks":105600,"time":131.99978,"velocity":0.7480314960629921},{"duration":0.4487492520833598,"durationTicks":359,"midi":53,"name":"F3","ticks":105960,"time":132.44977924999998,"velocity":0.7480314960629921},{"duration":0.4487492520833598,"durationTicks":359,"midi":41,"name":"F2","ticks":105960,"time":132.44977924999998,"velocity":0.7480314960629921},{"duration":0.5399990999999886,"durationTicks":432,"midi":53,"name":"F3","ticks":106320,"time":132.8997785,"velocity":0.7480314960629921},{"duration":0.5399990999999886,"durationTicks":432,"midi":41,"name":"F2","ticks":106320,"time":132.8997785,"velocity":0.7480314960629921},{"duration":0.2699995499999943,"durationTicks":216,"midi":48,"name":"C3","ticks":106800,"time":133.4997775,"velocity":0.7480314960629921},{"duration":0.2699995499999943,"durationTicks":216,"midi":53,"name":"F3","ticks":107040,"time":133.79977699999998,"velocity":0.7480314960629921},{"duration":0.2699995499999943,"durationTicks":216,"midi":48,"name":"C3","ticks":107280,"time":134.0997765,"velocity":0.7480314960629921},{"duration":0.2699995499999943,"durationTicks":216,"midi":49,"name":"C#3","ticks":107520,"time":134.39977599999997,"velocity":0.7480314960629921},{"duration":0.2699995499999943,"durationTicks":216,"midi":56,"name":"G#3","ticks":107760,"time":134.6997755,"velocity":0.7480314960629921},{"duration":0.5399990999999886,"durationTicks":432,"midi":61,"name":"C#4","ticks":108000,"time":134.999775,"velocity":0.7480314960629921},{"duration":0.2699995499999943,"durationTicks":216,"midi":61,"name":"C#4","ticks":108480,"time":135.599774,"velocity":0.7480314960629921},{"duration":0.2699995499999943,"durationTicks":216,"midi":49,"name":"C#3","ticks":108480,"time":135.599774,"velocity":0.7480314960629921},{"duration":0.8987485020833503,"durationTicks":719,"midi":61,"name":"C#4","ticks":108720,"time":135.89977349999998,"velocity":0.7480314960629921},{"duration":0.8987485020833503,"durationTicks":719,"midi":49,"name":"C#3","ticks":108720,"time":135.89977349999998,"velocity":0.7480314960629921},{"duration":0.2699995499999943,"durationTicks":216,"midi":51,"name":"D#3","ticks":109440,"time":136.799772,"velocity":0.7480314960629921},{"duration":0.2699995499999943,"durationTicks":216,"midi":55,"name":"G3","ticks":109680,"time":137.09977149999997,"velocity":0.7480314960629921},{"duration":0.539999100000017,"durationTicks":432,"midi":58,"name":"A#3","ticks":109920,"time":137.399771,"velocity":0.7480314960629921},{"duration":0.2699995499999943,"durationTicks":216,"midi":58,"name":"A#3","ticks":110400,"time":137.99976999999998,"velocity":0.7480314960629921},{"duration":0.2699995499999943,"durationTicks":216,"midi":51,"name":"D#3","ticks":110400,"time":137.99976999999998,"velocity":0.7480314960629921},{"duration":0.8987485020833219,"durationTicks":719,"midi":58,"name":"A#3","ticks":110640,"time":138.2997695,"velocity":0.7480314960629921},{"duration":0.8987485020833219,"durationTicks":719,"midi":51,"name":"D#3","ticks":110640,"time":138.2997695,"velocity":0.7480314960629921},{"duration":0.2699995499999943,"durationTicks":216,"midi":53,"name":"F3","ticks":111360,"time":139.19976799999998,"velocity":0.7480314960629921},{"duration":0.2699995499999943,"durationTicks":216,"midi":56,"name":"G#3","ticks":111600,"time":139.4997675,"velocity":0.7480314960629921},{"duration":0.539999100000017,"durationTicks":432,"midi":60,"name":"C4","ticks":111840,"time":139.79976699999997,"velocity":0.7480314960629921},{"duration":0.2699995499999943,"durationTicks":216,"midi":60,"name":"C4","ticks":112320,"time":140.399766,"velocity":0.7480314960629921},{"duration":0.2699995499999943,"durationTicks":216,"midi":53,"name":"F3","ticks":112320,"time":140.399766,"velocity":0.7480314960629921},{"duration":0.8987485020833503,"durationTicks":719,"midi":60,"name":"C4","ticks":112560,"time":140.69976549999998,"velocity":0.7480314960629921},{"duration":0.8987485020833503,"durationTicks":719,"midi":53,"name":"F3","ticks":112560,"time":140.69976549999998,"velocity":0.7480314960629921},{"duration":0.2699995499999943,"durationTicks":216,"midi":53,"name":"F3","ticks":113280,"time":141.599764,"velocity":0.7480314960629921},{"duration":0.2699995499999943,"durationTicks":216,"midi":41,"name":"F2","ticks":113280,"time":141.599764,"velocity":0.7480314960629921},{"duration":0.2699995499999943,"durationTicks":216,"midi":48,"name":"C3","ticks":113520,"time":141.89976349999998,"velocity":0.7480314960629921},{"duration":0.5399990999999886,"durationTicks":432,"midi":53,"name":"F3","ticks":113760,"time":142.199763,"velocity":0.7480314960629921},{"duration":0.2699995499999943,"durationTicks":216,"midi":53,"name":"F3","ticks":114240,"time":142.799762,"velocity":0.7480314960629921},{"duration":0.2699995499999943,"durationTicks":216,"midi":41,"name":"F2","ticks":114240,"time":142.799762,"velocity":0.7480314960629921},{"duration":0.8987485020833219,"durationTicks":719,"midi":53,"name":"F3","ticks":114480,"time":143.0997615,"velocity":0.7480314960629921},{"duration":0.8987485020833219,"durationTicks":719,"midi":41,"name":"F2","ticks":114480,"time":143.0997615,"velocity":0.7480314960629921},{"duration":0.2699995499999943,"durationTicks":216,"midi":49,"name":"C#3","ticks":115200,"time":143.99975999999998,"velocity":0.7480314960629921},{"duration":0.2699995499999943,"durationTicks":216,"midi":56,"name":"G#3","ticks":115440,"time":144.2997595,"velocity":0.7480314960629921},{"duration":0.539999100000017,"durationTicks":432,"midi":61,"name":"C#4","ticks":115680,"time":144.59975899999998,"velocity":0.7480314960629921},{"duration":0.2699995499999943,"durationTicks":216,"midi":61,"name":"C#4","ticks":116160,"time":145.19975799999997,"velocity":0.7480314960629921},{"duration":0.2699995499999943,"durationTicks":216,"midi":49,"name":"C#3","ticks":116160,"time":145.19975799999997,"velocity":0.7480314960629921},{"duration":0.8987485020833219,"durationTicks":719,"midi":61,"name":"C#4","ticks":116400,"time":145.4997575,"velocity":0.7480314960629921},{"duration":0.8987485020833219,"durationTicks":719,"midi":49,"name":"C#3","ticks":116400,"time":145.4997575,"velocity":0.7480314960629921},{"duration":0.2699995499999943,"durationTicks":216,"midi":51,"name":"D#3","ticks":117120,"time":146.399756,"velocity":0.7480314960629921},{"duration":0.2699995499999943,"durationTicks":216,"midi":55,"name":"G3","ticks":117360,"time":146.69975549999998,"velocity":0.7480314960629921},{"duration":0.5399990999999886,"durationTicks":432,"midi":58,"name":"A#3","ticks":117600,"time":146.999755,"velocity":0.7480314960629921},{"duration":0.2699995499999943,"durationTicks":216,"midi":58,"name":"A#3","ticks":118080,"time":147.599754,"velocity":0.7480314960629921},{"duration":0.2699995499999943,"durationTicks":216,"midi":51,"name":"D#3","ticks":118080,"time":147.599754,"velocity":0.7480314960629921},{"duration":0.8987485020833503,"durationTicks":719,"midi":58,"name":"A#3","ticks":118320,"time":147.89975349999997,"velocity":0.7480314960629921},{"duration":0.8987485020833503,"durationTicks":719,"midi":51,"name":"D#3","ticks":118320,"time":147.89975349999997,"velocity":0.7480314960629921},{"duration":0.2699995499999943,"durationTicks":216,"midi":53,"name":"F3","ticks":119040,"time":148.79975199999998,"velocity":0.7480314960629921},{"duration":0.2699995499999943,"durationTicks":216,"midi":56,"name":"G#3","ticks":119280,"time":149.0997515,"velocity":0.7480314960629921},{"duration":0.539999100000017,"durationTicks":432,"midi":60,"name":"C4","ticks":119520,"time":149.39975099999998,"velocity":0.7480314960629921},{"duration":0.2699995499999943,"durationTicks":216,"midi":60,"name":"C4","ticks":120000,"time":149.99974999999998,"velocity":0.7480314960629921},{"duration":0.2699995499999943,"durationTicks":216,"midi":53,"name":"F3","ticks":120000,"time":149.99974999999998,"velocity":0.7480314960629921},{"duration":0.8987485020833219,"durationTicks":719,"midi":60,"name":"C4","ticks":120240,"time":150.2997495,"velocity":0.7480314960629921},{"duration":0.8987485020833219,"durationTicks":719,"midi":53,"name":"F3","ticks":120240,"time":150.2997495,"velocity":0.7480314960629921},{"duration":0.2699995499999943,"durationTicks":216,"midi":53,"name":"F3","ticks":120960,"time":151.199748,"velocity":0.7480314960629921},{"duration":0.2699995499999943,"durationTicks":216,"midi":41,"name":"F2","ticks":120960,"time":151.199748,"velocity":0.7480314960629921},{"duration":0.2699995499999943,"durationTicks":216,"midi":48,"name":"C3","ticks":121200,"time":151.49974749999998,"velocity":0.7480314960629921},{"duration":0.5399990999999886,"durationTicks":432,"midi":53,"name":"F3","ticks":121440,"time":151.799747,"velocity":0.7480314960629921},{"duration":0.2699995499999943,"durationTicks":216,"midi":53,"name":"F3","ticks":121920,"time":152.399746,"velocity":0.7480314960629921},{"duration":0.2699995499999943,"durationTicks":216,"midi":41,"name":"F2","ticks":121920,"time":152.399746,"velocity":0.7480314960629921},{"duration":0.8987485020833503,"durationTicks":719,"midi":53,"name":"F3","ticks":122160,"time":152.69974549999998,"velocity":0.7480314960629921},{"duration":0.8987485020833503,"durationTicks":719,"midi":41,"name":"F2","ticks":122160,"time":152.69974549999998,"velocity":0.7480314960629921},{"duration":0.4487492520833314,"durationTicks":359,"midi":56,"name":"G#3","ticks":122880,"time":153.599744,"velocity":0.7480314960629921},{"duration":0.4487492520833314,"durationTicks":359,"midi":49,"name":"C#3","ticks":122880,"time":153.599744,"velocity":0.7480314960629921},{"duration":0.4487492520833314,"durationTicks":359,"midi":56,"name":"G#3","ticks":123240,"time":154.04974324999998,"velocity":0.7480314960629921},{"duration":0.4487492520833314,"durationTicks":359,"midi":49,"name":"C#3","ticks":123240,"time":154.04974324999998,"velocity":0.7480314960629921},{"duration":0.5399990999999886,"durationTicks":432,"midi":56,"name":"G#3","ticks":123600,"time":154.4997425,"velocity":0.7480314960629921},{"duration":0.5399990999999886,"durationTicks":432,"midi":49,"name":"C#3","ticks":123600,"time":154.4997425,"velocity":0.7480314960629921},{"duration":0.2699995499999943,"durationTicks":216,"midi":53,"name":"F3","ticks":124080,"time":155.0997415,"velocity":0.7480314960629921},{"duration":0.2699995499999943,"durationTicks":216,"midi":56,"name":"G#3","ticks":124320,"time":155.39974099999998,"velocity":0.7480314960629921},{"duration":0.2699995499999943,"durationTicks":216,"midi":56,"name":"G#3","ticks":124560,"time":155.6997405,"velocity":0.7480314960629921},{"duration":0.4487492520833314,"durationTicks":359,"midi":58,"name":"A#3","ticks":124800,"time":155.99973999999997,"velocity":0.7480314960629921},{"duration":0.4487492520833314,"durationTicks":359,"midi":51,"name":"D#3","ticks":124800,"time":155.99973999999997,"velocity":0.7480314960629921},{"duration":0.44874925208330296,"durationTicks":359,"midi":58,"name":"A#3","ticks":125160,"time":156.44973925,"velocity":0.7480314960629921},{"duration":0.44874925208330296,"durationTicks":359,"midi":51,"name":"D#3","ticks":125160,"time":156.44973925,"velocity":0.7480314960629921},{"duration":0.5399990999999886,"durationTicks":432,"midi":58,"name":"A#3","ticks":125520,"time":156.89973849999998,"velocity":0.7480314960629921},{"duration":0.5399990999999886,"durationTicks":432,"midi":51,"name":"D#3","ticks":125520,"time":156.89973849999998,"velocity":0.7480314960629921},{"duration":0.2699995499999943,"durationTicks":216,"midi":55,"name":"G3","ticks":126000,"time":157.49973749999998,"velocity":0.7480314960629921},{"duration":0.2699995499999943,"durationTicks":216,"midi":58,"name":"A#3","ticks":126240,"time":157.799737,"velocity":0.7480314960629921},{"duration":0.2699995499999943,"durationTicks":216,"midi":55,"name":"G3","ticks":126480,"time":158.09973649999998,"velocity":0.7480314960629921},{"duration":0.44874925208330296,"durationTicks":359,"midi":53,"name":"F3","ticks":126720,"time":158.399736,"velocity":0.7480314960629921},{"duration":0.44874925208330296,"durationTicks":359,"midi":41,"name":"F2","ticks":126720,"time":158.399736,"velocity":0.7480314960629921},{"duration":0.4487492520833314,"durationTicks":359,"midi":53,"name":"F3","ticks":127080,"time":158.84973524999998,"velocity":0.7480314960629921},{"duration":0.4487492520833314,"durationTicks":359,"midi":41,"name":"F2","ticks":127080,"time":158.84973524999998,"velocity":0.7480314960629921},{"duration":0.5399990999999602,"durationTicks":432,"midi":53,"name":"F3","ticks":127440,"time":159.2997345,"velocity":0.7480314960629921},{"duration":0.5399990999999602,"durationTicks":432,"midi":41,"name":"F2","ticks":127440,"time":159.2997345,"velocity":0.7480314960629921},{"duration":0.2699995499999943,"durationTicks":216,"midi":48,"name":"C3","ticks":127920,"time":159.8997335,"velocity":0.7480314960629921},{"duration":0.2699995499999943,"durationTicks":216,"midi":53,"name":"F3","ticks":128160,"time":160.19973299999998,"velocity":0.7480314960629921},{"duration":0.2699995499999943,"durationTicks":216,"midi":48,"name":"C3","ticks":128400,"time":160.4997325,"velocity":0.7480314960629921},{"duration":0.4487492520833314,"durationTicks":359,"midi":53,"name":"F3","ticks":128640,"time":160.79973199999998,"velocity":0.7480314960629921},{"duration":0.4487492520833314,"durationTicks":359,"midi":41,"name":"F2","ticks":128640,"time":160.79973199999998,"velocity":0.7480314960629921},{"duration":0.44874925208330296,"durationTicks":359,"midi":53,"name":"F3","ticks":129000,"time":161.24973125,"velocity":0.7480314960629921},{"duration":0.44874925208330296,"durationTicks":359,"midi":41,"name":"F2","ticks":129000,"time":161.24973125,"velocity":0.7480314960629921},{"duration":0.5399990999999886,"durationTicks":432,"midi":53,"name":"F3","ticks":129360,"time":161.6997305,"velocity":0.7480314960629921},{"duration":0.5399990999999886,"durationTicks":432,"midi":41,"name":"F2","ticks":129360,"time":161.6997305,"velocity":0.7480314960629921},{"duration":0.2699995499999943,"durationTicks":216,"midi":48,"name":"C3","ticks":129840,"time":162.29972949999998,"velocity":0.7480314960629921},{"duration":0.2699995499999943,"durationTicks":216,"midi":53,"name":"F3","ticks":130080,"time":162.599729,"velocity":0.7480314960629921},{"duration":0.2699995499999943,"durationTicks":216,"midi":48,"name":"C3","ticks":130320,"time":162.89972849999998,"velocity":0.7480314960629921},{"duration":0.44874925208330296,"durationTicks":359,"midi":56,"name":"G#3","ticks":130560,"time":163.199728,"velocity":0.7480314960629921},{"duration":0.44874925208330296,"durationTicks":359,"midi":49,"name":"C#3","ticks":130560,"time":163.199728,"velocity":0.7480314960629921},{"duration":0.4487492520833314,"durationTicks":359,"midi":56,"name":"G#3","ticks":130920,"time":163.64972724999998,"velocity":0.7480314960629921},{"duration":0.4487492520833314,"durationTicks":359,"midi":49,"name":"C#3","ticks":130920,"time":163.64972724999998,"velocity":0.7480314960629921},{"duration":0.5399990999999886,"durationTicks":432,"midi":56,"name":"G#3","ticks":131280,"time":164.09972649999997,"velocity":0.7480314960629921},{"duration":0.5399990999999886,"durationTicks":432,"midi":49,"name":"C#3","ticks":131280,"time":164.09972649999997,"velocity":0.7480314960629921},{"duration":0.2699995499999659,"durationTicks":216,"midi":53,"name":"F3","ticks":131760,"time":164.6997255,"velocity":0.7480314960629921},{"duration":0.2699995499999943,"durationTicks":216,"midi":56,"name":"G#3","ticks":132000,"time":164.99972499999998,"velocity":0.7480314960629921},{"duration":0.2699995499999943,"durationTicks":216,"midi":56,"name":"G#3","ticks":132240,"time":165.2997245,"velocity":0.7480314960629921},{"duration":0.4487492520833314,"durationTicks":359,"midi":58,"name":"A#3","ticks":132480,"time":165.59972399999998,"velocity":0.7480314960629921},{"duration":0.4487492520833314,"durationTicks":359,"midi":51,"name":"D#3","ticks":132480,"time":165.59972399999998,"velocity":0.7480314960629921},{"duration":0.44874925208330296,"durationTicks":359,"midi":58,"name":"A#3","ticks":132840,"time":166.04972325,"velocity":0.7480314960629921},{"duration":0.44874925208330296,"durationTicks":359,"midi":51,"name":"D#3","ticks":132840,"time":166.04972325,"velocity":0.7480314960629921},{"duration":0.5399990999999886,"durationTicks":432,"midi":58,"name":"A#3","ticks":133200,"time":166.4997225,"velocity":0.7480314960629921},{"duration":0.5399990999999886,"durationTicks":432,"midi":51,"name":"D#3","ticks":133200,"time":166.4997225,"velocity":0.7480314960629921},{"duration":0.2699995499999943,"durationTicks":216,"midi":55,"name":"G3","ticks":133680,"time":167.0997215,"velocity":0.7480314960629921},{"duration":0.2699995499999659,"durationTicks":216,"midi":58,"name":"A#3","ticks":133920,"time":167.399721,"velocity":0.7480314960629921},{"duration":0.2699995499999943,"durationTicks":216,"midi":55,"name":"G3","ticks":134160,"time":167.69972049999998,"velocity":0.7480314960629921},{"duration":0.44874925208330296,"durationTicks":359,"midi":53,"name":"F3","ticks":134400,"time":167.99972,"velocity":0.7480314960629921},{"duration":0.44874925208330296,"durationTicks":359,"midi":41,"name":"F2","ticks":134400,"time":167.99972,"velocity":0.7480314960629921},{"duration":0.44874925208330296,"durationTicks":359,"midi":53,"name":"F3","ticks":134760,"time":168.44971925,"velocity":0.7480314960629921},{"duration":0.44874925208330296,"durationTicks":359,"midi":41,"name":"F2","ticks":134760,"time":168.44971925,"velocity":0.7480314960629921},{"duration":0.5399990999999886,"durationTicks":432,"midi":53,"name":"F3","ticks":135120,"time":168.89971849999998,"velocity":0.7480314960629921},{"duration":0.5399990999999886,"durationTicks":432,"midi":41,"name":"F2","ticks":135120,"time":168.89971849999998,"velocity":0.7480314960629921},{"duration":0.2699995499999943,"durationTicks":216,"midi":48,"name":"C3","ticks":135600,"time":169.49971749999997,"velocity":0.7480314960629921},{"duration":0.2699995499999943,"durationTicks":216,"midi":53,"name":"F3","ticks":135840,"time":169.799717,"velocity":0.7480314960629921},{"duration":0.2699995499999659,"durationTicks":216,"midi":48,"name":"C3","ticks":136080,"time":170.0997165,"velocity":0.7480314960629921},{"duration":0.4487492520833314,"durationTicks":359,"midi":53,"name":"F3","ticks":136320,"time":170.39971599999998,"velocity":0.7480314960629921},{"duration":0.4487492520833314,"durationTicks":359,"midi":41,"name":"F2","ticks":136320,"time":170.39971599999998,"velocity":0.7480314960629921},{"duration":0.4487492520833314,"durationTicks":359,"midi":53,"name":"F3","ticks":136680,"time":170.84971524999997,"velocity":0.7480314960629921},{"duration":0.4487492520833314,"durationTicks":359,"midi":41,"name":"F2","ticks":136680,"time":170.84971524999997,"velocity":0.7480314960629921},{"duration":0.5399990999999886,"durationTicks":432,"midi":53,"name":"F3","ticks":137040,"time":171.2997145,"velocity":0.7480314960629921},{"duration":0.5399990999999886,"durationTicks":432,"midi":41,"name":"F2","ticks":137040,"time":171.2997145,"velocity":0.7480314960629921},{"duration":0.2699995499999943,"durationTicks":216,"midi":48,"name":"C3","ticks":137520,"time":171.8997135,"velocity":0.7480314960629921},{"duration":0.2699995499999943,"durationTicks":216,"midi":53,"name":"F3","ticks":137760,"time":172.19971299999997,"velocity":0.7480314960629921},{"duration":0.2699995499999943,"durationTicks":216,"midi":48,"name":"C3","ticks":138000,"time":172.4997125,"velocity":0.7480314960629921},{"duration":0.44874925208330296,"durationTicks":359,"midi":56,"name":"G#3","ticks":138240,"time":172.799712,"velocity":0.7480314960629921},{"duration":0.44874925208330296,"durationTicks":359,"midi":49,"name":"C#3","ticks":138240,"time":172.799712,"velocity":0.7480314960629921},{"duration":0.44874925208330296,"durationTicks":359,"midi":56,"name":"G#3","ticks":138600,"time":173.24971125,"velocity":0.7480314960629921},{"duration":0.44874925208330296,"durationTicks":359,"midi":49,"name":"C#3","ticks":138600,"time":173.24971125,"velocity":0.7480314960629921},{"duration":0.5399990999999886,"durationTicks":432,"midi":56,"name":"G#3","ticks":138960,"time":173.69971049999998,"velocity":0.7480314960629921},{"duration":0.5399990999999886,"durationTicks":432,"midi":49,"name":"C#3","ticks":138960,"time":173.69971049999998,"velocity":0.7480314960629921},{"duration":0.2699995499999943,"durationTicks":216,"midi":53,"name":"F3","ticks":139440,"time":174.29970949999998,"velocity":0.7480314960629921},{"duration":0.2699995499999943,"durationTicks":216,"midi":56,"name":"G#3","ticks":139680,"time":174.599709,"velocity":0.7480314960629921},{"duration":0.2699995499999943,"durationTicks":216,"midi":56,"name":"G#3","ticks":139920,"time":174.89970849999997,"velocity":0.7480314960629921},{"duration":0.44874925208330296,"durationTicks":359,"midi":58,"name":"A#3","ticks":140160,"time":175.199708,"velocity":0.7480314960629921},{"duration":0.44874925208330296,"durationTicks":359,"midi":51,"name":"D#3","ticks":140160,"time":175.199708,"velocity":0.7480314960629921},{"duration":0.4487492520833314,"durationTicks":359,"midi":58,"name":"A#3","ticks":140520,"time":175.64970724999998,"velocity":0.7480314960629921},{"duration":0.4487492520833314,"durationTicks":359,"midi":51,"name":"D#3","ticks":140520,"time":175.64970724999998,"velocity":0.7480314960629921},{"duration":0.5399990999999886,"durationTicks":432,"midi":58,"name":"A#3","ticks":140880,"time":176.0997065,"velocity":0.7480314960629921},{"duration":0.5399990999999886,"durationTicks":432,"midi":51,"name":"D#3","ticks":140880,"time":176.0997065,"velocity":0.7480314960629921},{"duration":0.2699995499999943,"durationTicks":216,"midi":55,"name":"G3","ticks":141360,"time":176.6997055,"velocity":0.7480314960629921},{"duration":0.2699995499999943,"durationTicks":216,"midi":58,"name":"A#3","ticks":141600,"time":176.99970499999998,"velocity":0.7480314960629921},{"duration":0.2699995499999943,"durationTicks":216,"midi":55,"name":"G3","ticks":141840,"time":177.2997045,"velocity":0.7480314960629921},{"duration":0.4487492520833314,"durationTicks":359,"midi":53,"name":"F3","ticks":142080,"time":177.59970399999997,"velocity":0.7480314960629921},{"duration":0.4487492520833314,"durationTicks":359,"midi":41,"name":"F2","ticks":142080,"time":177.59970399999997,"velocity":0.7480314960629921},{"duration":0.44874925208330296,"durationTicks":359,"midi":53,"name":"F3","ticks":142440,"time":178.04970325,"velocity":0.7480314960629921},{"duration":0.44874925208330296,"durationTicks":359,"midi":41,"name":"F2","ticks":142440,"time":178.04970325,"velocity":0.7480314960629921},{"duration":0.5399990999999886,"durationTicks":432,"midi":53,"name":"F3","ticks":142800,"time":178.49970249999998,"velocity":0.7480314960629921},{"duration":0.5399990999999886,"durationTicks":432,"midi":41,"name":"F2","ticks":142800,"time":178.49970249999998,"velocity":0.7480314960629921},{"duration":0.2699995499999943,"durationTicks":216,"midi":48,"name":"C3","ticks":143280,"time":179.09970149999998,"velocity":0.7480314960629921},{"duration":0.2699995499999943,"durationTicks":216,"midi":53,"name":"F3","ticks":143520,"time":179.399701,"velocity":0.7480314960629921},{"duration":0.2699995499999943,"durationTicks":216,"midi":48,"name":"C3","ticks":143760,"time":179.69970049999998,"velocity":0.7480314960629921},{"duration":0.44874925208330296,"durationTicks":359,"midi":53,"name":"F3","ticks":144000,"time":179.9997,"velocity":0.7480314960629921},{"duration":0.44874925208330296,"durationTicks":359,"midi":41,"name":"F2","ticks":144000,"time":179.9997,"velocity":0.7480314960629921},{"duration":0.4487492520833314,"durationTicks":359,"midi":53,"name":"F3","ticks":144360,"time":180.44969924999998,"velocity":0.7480314960629921},{"duration":0.4487492520833314,"durationTicks":359,"midi":41,"name":"F2","ticks":144360,"time":180.44969924999998,"velocity":0.7480314960629921},{"duration":0.5399990999999886,"durationTicks":432,"midi":53,"name":"F3","ticks":144720,"time":180.89969849999997,"velocity":0.7480314960629921},{"duration":0.5399990999999886,"durationTicks":432,"midi":41,"name":"F2","ticks":144720,"time":180.89969849999997,"velocity":0.7480314960629921},{"duration":0.2699995499999943,"durationTicks":216,"midi":48,"name":"C3","ticks":145200,"time":181.4996975,"velocity":0.7480314960629921},{"duration":0.2699995499999943,"durationTicks":216,"midi":53,"name":"F3","ticks":145440,"time":181.79969699999998,"velocity":0.7480314960629921},{"duration":0.2699995499999943,"durationTicks":216,"midi":48,"name":"C3","ticks":145680,"time":182.0996965,"velocity":0.7480314960629921},{"duration":0.4487492520833314,"durationTicks":359,"midi":56,"name":"G#3","ticks":145920,"time":182.39969599999998,"velocity":0.7480314960629921},{"duration":0.4487492520833314,"durationTicks":359,"midi":49,"name":"C#3","ticks":145920,"time":182.39969599999998,"velocity":0.7480314960629921},{"duration":0.44874925208330296,"durationTicks":359,"midi":56,"name":"G#3","ticks":146280,"time":182.84969525,"velocity":0.7480314960629921},{"duration":0.44874925208330296,"durationTicks":359,"midi":49,"name":"C#3","ticks":146280,"time":182.84969525,"velocity":0.7480314960629921},{"duration":0.5399990999999886,"durationTicks":432,"midi":56,"name":"G#3","ticks":146640,"time":183.2996945,"velocity":0.7480314960629921},{"duration":0.5399990999999886,"durationTicks":432,"midi":49,"name":"C#3","ticks":146640,"time":183.2996945,"velocity":0.7480314960629921},{"duration":0.2699995499999943,"durationTicks":216,"midi":53,"name":"F3","ticks":147120,"time":183.89969349999998,"velocity":0.7480314960629921},{"duration":0.2699995499999943,"durationTicks":216,"midi":56,"name":"G#3","ticks":147360,"time":184.199693,"velocity":0.7480314960629921},{"duration":0.2699995499999943,"durationTicks":216,"midi":56,"name":"G#3","ticks":147600,"time":184.49969249999998,"velocity":0.7480314960629921},{"duration":0.44874925208330296,"durationTicks":359,"midi":58,"name":"A#3","ticks":147840,"time":184.799692,"velocity":0.7480314960629921},{"duration":0.44874925208330296,"durationTicks":359,"midi":51,"name":"D#3","ticks":147840,"time":184.799692,"velocity":0.7480314960629921},{"duration":0.4487492520833314,"durationTicks":359,"midi":58,"name":"A#3","ticks":148200,"time":185.24969124999998,"velocity":0.7480314960629921},{"duration":0.4487492520833314,"durationTicks":359,"midi":51,"name":"D#3","ticks":148200,"time":185.24969124999998,"velocity":0.7480314960629921},{"duration":0.5399990999999886,"durationTicks":432,"midi":58,"name":"A#3","ticks":148560,"time":185.69969049999997,"velocity":0.7480314960629921},{"duration":0.5399990999999886,"durationTicks":432,"midi":51,"name":"D#3","ticks":148560,"time":185.69969049999997,"velocity":0.7480314960629921},{"duration":0.2699995499999943,"durationTicks":216,"midi":55,"name":"G3","ticks":149040,"time":186.29968949999997,"velocity":0.7480314960629921},{"duration":0.2699995499999943,"durationTicks":216,"midi":58,"name":"A#3","ticks":149280,"time":186.59968899999998,"velocity":0.7480314960629921},{"duration":0.2699995499999943,"durationTicks":216,"midi":55,"name":"G3","ticks":149520,"time":186.8996885,"velocity":0.7480314960629921},{"duration":0.4487492520833314,"durationTicks":359,"midi":53,"name":"F3","ticks":149760,"time":187.19968799999998,"velocity":0.7480314960629921},{"duration":0.4487492520833314,"durationTicks":359,"midi":41,"name":"F2","ticks":149760,"time":187.19968799999998,"velocity":0.7480314960629921},{"duration":0.4487492520833314,"durationTicks":359,"midi":53,"name":"F3","ticks":150120,"time":187.64968724999997,"velocity":0.7480314960629921},{"duration":0.4487492520833314,"durationTicks":359,"midi":41,"name":"F2","ticks":150120,"time":187.64968724999997,"velocity":0.7480314960629921},{"duration":0.5399990999999886,"durationTicks":432,"midi":53,"name":"F3","ticks":150480,"time":188.0996865,"velocity":0.7480314960629921},{"duration":0.5399990999999886,"durationTicks":432,"midi":41,"name":"F2","ticks":150480,"time":188.0996865,"velocity":0.7480314960629921},{"duration":0.2699995499999943,"durationTicks":216,"midi":48,"name":"C3","ticks":150960,"time":188.6996855,"velocity":0.7480314960629921},{"duration":0.2699995499999943,"durationTicks":216,"midi":53,"name":"F3","ticks":151200,"time":188.99968499999997,"velocity":0.7480314960629921},{"duration":0.2699995499999943,"durationTicks":216,"midi":48,"name":"C3","ticks":151440,"time":189.29968449999998,"velocity":0.7480314960629921},{"duration":0.44874925208330296,"durationTicks":359,"midi":53,"name":"F3","ticks":151680,"time":189.599684,"velocity":0.7480314960629921},{"duration":0.44874925208330296,"durationTicks":359,"midi":41,"name":"F2","ticks":151680,"time":189.599684,"velocity":0.7480314960629921},{"duration":0.44874925208330296,"durationTicks":359,"midi":53,"name":"F3","ticks":152040,"time":190.04968325,"velocity":0.7480314960629921},{"duration":0.44874925208330296,"durationTicks":359,"midi":41,"name":"F2","ticks":152040,"time":190.04968325,"velocity":0.7480314960629921},{"duration":0.5399990999999886,"durationTicks":432,"midi":53,"name":"F3","ticks":152400,"time":190.49968249999998,"velocity":0.7480314960629921},{"duration":0.5399990999999886,"durationTicks":432,"midi":41,"name":"F2","ticks":152400,"time":190.49968249999998,"velocity":0.7480314960629921},{"duration":0.2699995499999943,"durationTicks":216,"midi":48,"name":"C3","ticks":152880,"time":191.09968149999997,"velocity":0.7480314960629921},{"duration":0.2699995499999943,"durationTicks":216,"midi":53,"name":"F3","ticks":153120,"time":191.399681,"velocity":0.7480314960629921},{"duration":0.2699995499999943,"durationTicks":216,"midi":48,"name":"C3","ticks":153360,"time":191.69968049999997,"velocity":0.7480314960629921},{"duration":0.4487492520833314,"durationTicks":359,"midi":56,"name":"G#3","ticks":153600,"time":191.99967999999998,"velocity":0.7480314960629921},{"duration":0.4487492520833314,"durationTicks":359,"midi":49,"name":"C#3","ticks":153600,"time":191.99967999999998,"velocity":0.7480314960629921},{"duration":0.7487487520833156,"durationTicks":599,"midi":56,"name":"G#3","ticks":153960,"time":192.44967924999997,"velocity":0.7480314960629921},{"duration":0.7487487520833156,"durationTicks":599,"midi":49,"name":"C#3","ticks":153960,"time":192.44967924999997,"velocity":0.7480314960629921},{"duration":0.2699995499999943,"durationTicks":216,"midi":56,"name":"G#3","ticks":154560,"time":193.19967799999998,"velocity":0.7480314960629921},{"duration":0.2699995499999943,"durationTicks":216,"midi":49,"name":"C#3","ticks":154560,"time":193.19967799999998,"velocity":0.7480314960629921},{"duration":0.8987485020833219,"durationTicks":719,"midi":56,"name":"G#3","ticks":154800,"time":193.4996775,"velocity":0.7480314960629921},{"duration":0.8987485020833219,"durationTicks":719,"midi":49,"name":"C#3","ticks":154800,"time":193.4996775,"velocity":0.7480314960629921},{"duration":0.4487492520833314,"durationTicks":359,"midi":58,"name":"A#3","ticks":155520,"time":194.39967599999997,"velocity":0.7480314960629921},{"duration":0.4487492520833314,"durationTicks":359,"midi":51,"name":"D#3","ticks":155520,"time":194.39967599999997,"velocity":0.7480314960629921},{"duration":0.7487487520833156,"durationTicks":599,"midi":58,"name":"A#3","ticks":155880,"time":194.84967525,"velocity":0.7480314960629921},{"duration":0.7487487520833156,"durationTicks":599,"midi":51,"name":"D#3","ticks":155880,"time":194.84967525,"velocity":0.7480314960629921},{"duration":0.2699995499999943,"durationTicks":216,"midi":58,"name":"A#3","ticks":156480,"time":195.599674,"velocity":0.7480314960629921},{"duration":0.2699995499999943,"durationTicks":216,"midi":51,"name":"D#3","ticks":156480,"time":195.599674,"velocity":0.7480314960629921},{"duration":0.8987485020833219,"durationTicks":719,"midi":58,"name":"A#3","ticks":156720,"time":195.89967349999998,"velocity":0.7480314960629921},{"duration":0.8987485020833219,"durationTicks":719,"midi":51,"name":"D#3","ticks":156720,"time":195.89967349999998,"velocity":0.7480314960629921},{"duration":0.44874925208330296,"durationTicks":359,"midi":60,"name":"C4","ticks":157440,"time":196.799672,"velocity":0.7480314960629921},{"duration":0.44874925208330296,"durationTicks":359,"midi":53,"name":"F3","ticks":157440,"time":196.799672,"velocity":0.7480314960629921},{"duration":0.7487487520833156,"durationTicks":599,"midi":60,"name":"C4","ticks":157800,"time":197.24967124999998,"velocity":0.7480314960629921},{"duration":0.7487487520833156,"durationTicks":599,"midi":53,"name":"F3","ticks":157800,"time":197.24967124999998,"velocity":0.7480314960629921},{"duration":0.2699995499999943,"durationTicks":216,"midi":60,"name":"C4","ticks":158400,"time":197.99966999999998,"velocity":0.7480314960629921},{"duration":0.2699995499999943,"durationTicks":216,"midi":53,"name":"F3","ticks":158400,"time":197.99966999999998,"velocity":0.7480314960629921},{"duration":0.8987485020832935,"durationTicks":719,"midi":60,"name":"C4","ticks":158640,"time":198.2996695,"velocity":0.7480314960629921},{"duration":0.8987485020832935,"durationTicks":719,"midi":53,"name":"F3","ticks":158640,"time":198.2996695,"velocity":0.7480314960629921},{"duration":0.4487492520833314,"durationTicks":359,"midi":60,"name":"C4","ticks":159360,"time":199.19966799999997,"velocity":0.7480314960629921},{"duration":0.4487492520833314,"durationTicks":359,"midi":53,"name":"F3","ticks":159360,"time":199.19966799999997,"velocity":0.7480314960629921},{"duration":0.7487487520833156,"durationTicks":599,"midi":60,"name":"C4","ticks":159720,"time":199.64966725,"velocity":0.7480314960629921},{"duration":0.7487487520833156,"durationTicks":599,"midi":53,"name":"F3","ticks":159720,"time":199.64966725,"velocity":0.7480314960629921},{"duration":0.2699995499999659,"durationTicks":216,"midi":60,"name":"C4","ticks":160320,"time":200.399666,"velocity":0.7480314960629921},{"duration":0.2699995499999659,"durationTicks":216,"midi":53,"name":"F3","ticks":160320,"time":200.399666,"velocity":0.7480314960629921},{"duration":0.8987485020833219,"durationTicks":719,"midi":60,"name":"C4","ticks":160560,"time":200.69966549999998,"velocity":0.7480314960629921},{"duration":0.8987485020833219,"durationTicks":719,"midi":53,"name":"F3","ticks":160560,"time":200.69966549999998,"velocity":0.7480314960629921},{"duration":0.44874925208330296,"durationTicks":359,"midi":56,"name":"G#3","ticks":161280,"time":201.599664,"velocity":0.7480314960629921},{"duration":0.44874925208330296,"durationTicks":359,"midi":49,"name":"C#3","ticks":161280,"time":201.599664,"velocity":0.7480314960629921},{"duration":0.7487487520833156,"durationTicks":599,"midi":56,"name":"G#3","ticks":161640,"time":202.04966324999998,"velocity":0.7480314960629921},{"duration":0.7487487520833156,"durationTicks":599,"midi":49,"name":"C#3","ticks":161640,"time":202.04966324999998,"velocity":0.7480314960629921},{"duration":0.2699995499999943,"durationTicks":216,"midi":56,"name":"G#3","ticks":162240,"time":202.79966199999998,"velocity":0.7480314960629921},{"duration":0.2699995499999943,"durationTicks":216,"midi":49,"name":"C#3","ticks":162240,"time":202.79966199999998,"velocity":0.7480314960629921},{"duration":0.8987485020832935,"durationTicks":719,"midi":56,"name":"G#3","ticks":162480,"time":203.0996615,"velocity":0.7480314960629921},{"duration":0.8987485020832935,"durationTicks":719,"midi":49,"name":"C#3","ticks":162480,"time":203.0996615,"velocity":0.7480314960629921},{"duration":0.4487492520833314,"durationTicks":359,"midi":58,"name":"A#3","ticks":163200,"time":203.99965999999998,"velocity":0.7480314960629921},{"duration":0.4487492520833314,"durationTicks":359,"midi":51,"name":"D#3","ticks":163200,"time":203.99965999999998,"velocity":0.7480314960629921},{"duration":0.7487487520833156,"durationTicks":599,"midi":58,"name":"A#3","ticks":163560,"time":204.44965925,"velocity":0.7480314960629921},{"duration":0.7487487520833156,"durationTicks":599,"midi":51,"name":"D#3","ticks":163560,"time":204.44965925,"velocity":0.7480314960629921},{"duration":0.2699995499999943,"durationTicks":216,"midi":58,"name":"A#3","ticks":164160,"time":205.19965799999997,"velocity":0.7480314960629921},{"duration":0.2699995499999943,"durationTicks":216,"midi":51,"name":"D#3","ticks":164160,"time":205.19965799999997,"velocity":0.7480314960629921},{"duration":0.8987485020833219,"durationTicks":719,"midi":58,"name":"A#3","ticks":164400,"time":205.49965749999998,"velocity":0.7480314960629921},{"duration":0.8987485020833219,"durationTicks":719,"midi":51,"name":"D#3","ticks":164400,"time":205.49965749999998,"velocity":0.7480314960629921},{"duration":0.44874925208330296,"durationTicks":359,"midi":60,"name":"C4","ticks":165120,"time":206.399656,"velocity":0.7480314960629921},{"duration":0.44874925208330296,"durationTicks":359,"midi":53,"name":"F3","ticks":165120,"time":206.399656,"velocity":0.7480314960629921},{"duration":0.7487487520833156,"durationTicks":599,"midi":60,"name":"C4","ticks":165480,"time":206.84965524999998,"velocity":0.7480314960629921},{"duration":0.7487487520833156,"durationTicks":599,"midi":53,"name":"F3","ticks":165480,"time":206.84965524999998,"velocity":0.7480314960629921},{"duration":0.2699995499999943,"durationTicks":216,"midi":60,"name":"C4","ticks":166080,"time":207.599654,"velocity":0.7480314960629921},{"duration":0.2699995499999943,"durationTicks":216,"midi":53,"name":"F3","ticks":166080,"time":207.599654,"velocity":0.7480314960629921},{"duration":0.8987485020833219,"durationTicks":719,"midi":60,"name":"C4","ticks":166320,"time":207.89965349999997,"velocity":0.7480314960629921},{"duration":0.8987485020833219,"durationTicks":719,"midi":53,"name":"F3","ticks":166320,"time":207.89965349999997,"velocity":0.7480314960629921},{"duration":0.4487492520833314,"durationTicks":359,"midi":60,"name":"C4","ticks":167040,"time":208.79965199999998,"velocity":0.7480314960629921},{"duration":0.4487492520833314,"durationTicks":359,"midi":53,"name":"F3","ticks":167040,"time":208.79965199999998,"velocity":0.7480314960629921},{"duration":0.7487487520833156,"durationTicks":599,"midi":60,"name":"C4","ticks":167400,"time":209.24965124999997,"velocity":0.7480314960629921},{"duration":0.7487487520833156,"durationTicks":599,"midi":53,"name":"F3","ticks":167400,"time":209.24965124999997,"velocity":0.7480314960629921},{"duration":0.2699995499999943,"durationTicks":216,"midi":60,"name":"C4","ticks":168000,"time":209.99964999999997,"velocity":0.7480314960629921},{"duration":0.2699995499999943,"durationTicks":216,"midi":53,"name":"F3","ticks":168000,"time":209.99964999999997,"velocity":0.7480314960629921},{"duration":0.8987485020833219,"durationTicks":719,"midi":60,"name":"C4","ticks":168240,"time":210.2996495,"velocity":0.7480314960629921},{"duration":0.8987485020833219,"durationTicks":719,"midi":53,"name":"F3","ticks":168240,"time":210.2996495,"velocity":0.7480314960629921},{"duration":2.248746252083322,"durationTicks":1799,"midi":56,"name":"G#3","ticks":168960,"time":211.19964799999997,"velocity":0.7480314960629921},{"duration":2.248746252083322,"durationTicks":1799,"midi":49,"name":"C#3","ticks":168960,"time":211.19964799999997,"velocity":0.7480314960629921}]}]}