{"header":{"title":"Gee","artist":"SNSD","source":"https://musescore.com/user/2137271/scores/781766","bpm":100.00016666694445,"duration":196.49842250208064},"tracks":[{"instrument_number":0,"notes":[{"name":"G#5","midi":80,"time":1.199998,"velocity":0.6299212598425197,"duration":0.5399991},{"name":"F#5","midi":78,"time":1.7999969999999998,"velocity":0.6299212598425197,"duration":0.13499977500000004},{"name":"E5","midi":76,"time":1.94999675,"velocity":0.6299212598425197,"duration":0.13499977499999982},{"name":"C#5","midi":73,"time":2.0999964999999996,"velocity":0.6299212598425197,"duration":0.2699995500000001},{"name":"E5","midi":76,"time":2.399996,"velocity":0.6299212598425197,"duration":0.2699995500000001},{"name":"C#5","midi":73,"time":2.6999955,"velocity":0.6299212598425197,"duration":0.8987485020833335},{"name":"E5","midi":76,"time":3.599994,"velocity":0.6299212598425197,"duration":1.0799982},{"name":"E6","midi":88,"time":4.799992,"velocity":0.6299212598425197,"duration":0.13499977499999982},{"name":"F#6","midi":90,"time":4.94999175,"velocity":0.6299212598425197,"duration":0.13499977499999982},{"name":"E6","midi":88,"time":5.0999915,"velocity":0.6299212598425197,"duration":0.8987485020833335},{"name":"D#6","midi":87,"time":5.9999899999999995,"velocity":0.6299212598425197,"duration":0.44874925208333316},{"name":"E6","midi":88,"time":6.449989249999999,"velocity":0.6299212598425197,"duration":0.44874925208333316},{"name":"D#6","midi":87,"time":6.899988499999998,"velocity":0.6299212598425197,"duration":0.26999954999999964},{"name":"B5","midi":83,"time":7.199987999999998,"velocity":0.6299212598425197,"duration":1.648747252083334},{"name":"B5","midi":83,"time":9.299984499999999,"velocity":0.6299212598425197,"duration":0.26999954999999964},{"name":"B4","midi":71,"time":9.299984499999999,"velocity":0.6299212598425197,"duration":0.26999954999999964},{"name":"F#5","midi":78,"time":9.599984,"velocity":0.6299212598425197,"duration":0.2249996250000006},{"name":"B4","midi":71,"time":9.599984,"velocity":0.6299212598425197,"duration":0.2249996250000006},{"name":"E5","midi":76,"time":10.04998325,"velocity":0.6299212598425197,"duration":0.0749998749999996},{"name":"B4","midi":71,"time":10.04998325,"velocity":0.6299212598425197,"duration":0.0749998749999996},{"name":"B5","midi":83,"time":10.4999825,"velocity":0.6299212598425197,"duration":0.14874975208333296},{"name":"B4","midi":71,"time":10.4999825,"velocity":0.6299212598425197,"duration":0.14874975208333296},{"name":"F#5","midi":78,"time":10.799982,"velocity":0.6299212598425197,"duration":0.2249996250000006},{"name":"B4","midi":71,"time":10.799982,"velocity":0.6299212598425197,"duration":0.2249996250000006},{"name":"E5","midi":76,"time":11.249981250000001,"velocity":0.6299212598425197,"duration":0.0749998749999996},{"name":"B4","midi":71,"time":11.249981250000001,"velocity":0.6299212598425197,"duration":0.0749998749999996},{"name":"F#5","midi":78,"time":11.6999805,"velocity":0.6299212598425197,"duration":0.14874975208333296},{"name":"B4","midi":71,"time":11.6999805,"velocity":0.6299212598425197,"duration":0.14874975208333296},{"name":"E5","midi":76,"time":11.99998,"velocity":0.6299212598425197,"duration":1.0799982000000004},{"name":"A4","midi":69,"time":11.99998,"velocity":0.6299212598425197,"duration":1.0799982000000004},{"name":"E5","midi":76,"time":13.199978000000002,"velocity":0.6299212598425197,"duration":1.0799982000000004},{"name":"E6","midi":88,"time":14.399976000000002,"velocity":0.6299212598425197,"duration":0.1349997750000007},{"name":"F#6","midi":90,"time":14.549975750000003,"velocity":0.6299212598425197,"duration":0.1349997750000007},{"name":"E6","midi":88,"time":14.699975500000004,"velocity":0.6299212598425197,"duration":0.8987485020833326},{"name":"D#6","midi":87,"time":15.599974000000003,"velocity":0.6299212598425197,"duration":0.44874925208333494},{"name":"E6","midi":88,"time":16.049973250000004,"velocity":0.6299212598425197,"duration":0.44874925208333494},{"name":"D#6","midi":87,"time":16.499972500000005,"velocity":0.6299212598425197,"duration":0.2699995500000014},{"name":"B5","midi":83,"time":16.799972000000007,"velocity":0.6299212598425197,"duration":2.2487462520833326},{"name":"E5","midi":76,"time":19.499967500000007,"velocity":0.6299212598425197,"duration":0.14874975208333296},{"name":"C#5","midi":73,"time":19.499967500000007,"velocity":0.6299212598425197,"duration":0.14874975208333296},{"name":"E5","midi":76,"time":20.099966500000008,"velocity":0.6299212598425197,"duration":0.14874975208333296},{"name":"C#5","midi":73,"time":20.099966500000008,"velocity":0.6299212598425197,"duration":0.14874975208333296},{"name":"E5","midi":76,"time":20.69996550000001,"velocity":0.6299212598425197,"duration":0.14874975208333296},{"name":"C#5","midi":73,"time":20.69996550000001,"velocity":0.6299212598425197,"duration":0.14874975208333296},{"name":"E5","midi":76,"time":21.29996450000001,"velocity":0.6299212598425197,"duration":0.14874975208333296},{"name":"C#5","midi":73,"time":21.29996450000001,"velocity":0.6299212598425197,"duration":0.14874975208333296},{"name":"G#5","midi":80,"time":21.599964000000007,"velocity":0.6299212598425197,"duration":0.1349997750000007},{"name":"B5","midi":83,"time":21.749963750000006,"velocity":0.6299212598425197,"duration":0.1349997750000007},{"name":"G#5","midi":80,"time":21.899963500000005,"velocity":0.6299212598425197,"duration":0.1349997750000007},{"name":"F#5","midi":78,"time":22.049963250000005,"velocity":0.6299212598425197,"duration":0.1349997750000007},{"name":"G#5","midi":80,"time":22.199963000000004,"velocity":0.6299212598425197,"duration":0.2699995500000014},{"name":"F#5","midi":78,"time":22.499962500000006,"velocity":0.6299212598425197,"duration":0.1349997750000007},{"name":"G#5","midi":80,"time":22.649962250000005,"velocity":0.6299212598425197,"duration":0.2849995249999999},{"name":"B5","midi":83,"time":22.949961750000003,"velocity":0.6299212598425197,"duration":0.1349997750000007},{"name":"G#5","midi":80,"time":23.099961500000003,"velocity":0.6299212598425197,"duration":0.1349997750000007},{"name":"F#5","midi":78,"time":23.249961250000002,"velocity":0.6299212598425197,"duration":0.1349997750000007},{"name":"G#5","midi":80,"time":23.399961,"velocity":0.6299212598425197,"duration":0.2699995500000014},{"name":"F#5","midi":78,"time":23.699960500000003,"velocity":0.6299212598425197,"duration":0.2699995500000014},{"name":"G#5","midi":80,"time":23.999960000000005,"velocity":0.6299212598425197,"duration":0.1349997750000007},{"name":"B5","midi":83,"time":24.149959750000004,"velocity":0.6299212598425197,"duration":0.1349997750000007},{"name":"G#5","midi":80,"time":24.299959500000003,"velocity":0.6299212598425197,"duration":0.1349997750000007},{"name":"F#5","midi":78,"time":24.449959250000003,"velocity":0.6299212598425197,"duration":0.1349997750000007},{"name":"G#5","midi":80,"time":24.599959000000002,"velocity":0.6299212598425197,"duration":0.2699995500000014},{"name":"F#5","midi":78,"time":24.899958500000004,"velocity":0.6299212598425197,"duration":0.1349997750000007},{"name":"G#5","midi":80,"time":25.049958250000003,"velocity":0.6299212598425197,"duration":0.44874925208333494},{"name":"G#5","midi":80,"time":25.499957500000004,"velocity":0.6299212598425197,"duration":0.2699995500000014},{"name":"C#5","midi":73,"time":25.799957000000006,"velocity":0.6299212598425197,"duration":0.2699995500000014},{"name":"E5","midi":76,"time":26.099956500000008,"velocity":0.6299212598425197,"duration":0.2699995500000014},{"name":"G#5","midi":80,"time":26.39995600000001,"velocity":0.6299212598425197,"duration":0.2699995500000014},{"name":"C#5","midi":73,"time":26.39995600000001,"velocity":0.6299212598425197,"duration":0.2699995500000014},{"name":"G#5","midi":80,"time":26.699955500000012,"velocity":0.6299212598425197,"duration":0.2699995500000014},{"name":"C#5","midi":73,"time":26.699955500000012,"velocity":0.6299212598425197,"duration":0.2699995500000014},{"name":"G#5","midi":80,"time":26.999955000000014,"velocity":0.6299212598425197,"duration":0.2699995500000014},{"name":"C#5","midi":73,"time":26.999955000000014,"velocity":0.6299212598425197,"duration":0.2699995500000014},{"name":"G#5","midi":80,"time":27.299954500000016,"velocity":0.6299212598425197,"duration":0.2699995500000014},{"name":"C#5","midi":73,"time":27.299954500000016,"velocity":0.6299212598425197,"duration":0.2699995500000014},{"name":"C#5","midi":73,"time":27.599954000000018,"velocity":0.6299212598425197,"duration":0.2699995500000014},{"name":"C#5","midi":73,"time":27.89995350000002,"velocity":0.6299212598425197,"duration":0.1349997750000007},{"name":"C#5","midi":73,"time":28.04995325000002,"velocity":0.6299212598425197,"duration":0.2849995249999999},{"name":"C#5","midi":73,"time":28.349952750000018,"velocity":0.6299212598425197,"duration":0.1349997750000007},{"name":"C#5","midi":73,"time":28.499952500000017,"velocity":0.6299212598425197,"duration":0.1349997750000007},{"name":"C#5","midi":73,"time":28.649952250000016,"velocity":0.6299212598425197,"duration":0.1349997750000007},{"name":"G#5","midi":80,"time":28.799952000000015,"velocity":0.6299212598425197,"duration":0.2699995500000014},{"name":"C#5","midi":73,"time":28.799952000000015,"velocity":0.6299212598425197,"duration":0.2699995500000014},{"name":"G#5","midi":80,"time":29.099951500000017,"velocity":0.6299212598425197,"duration":0.2699995500000014},{"name":"C#5","midi":73,"time":29.099951500000017,"velocity":0.6299212598425197,"duration":0.2699995500000014},{"name":"G#5","midi":80,"time":29.39995100000002,"velocity":0.6299212598425197,"duration":0.2699995500000014},{"name":"C#5","midi":73,"time":29.39995100000002,"velocity":0.6299212598425197,"duration":0.2699995500000014},{"name":"G#5","midi":80,"time":29.69995050000002,"velocity":0.6299212598425197,"duration":0.2699995500000014},{"name":"C#5","midi":73,"time":29.69995050000002,"velocity":0.6299212598425197,"duration":0.2699995500000014},{"name":"C#5","midi":73,"time":29.999950000000023,"velocity":0.6299212598425197,"duration":0.2699995500000014},{"name":"C#5","midi":73,"time":30.299949500000025,"velocity":0.6299212598425197,"duration":0.1349997750000007},{"name":"C#5","midi":73,"time":30.449949250000024,"velocity":0.6299212598425197,"duration":0.2849995249999999},{"name":"C#5","midi":73,"time":30.749948750000023,"velocity":0.6299212598425197,"duration":0.1349997750000007},{"name":"C#5","midi":73,"time":30.899948500000022,"velocity":0.6299212598425197,"duration":0.1349997750000007},{"name":"C#5","midi":73,"time":31.04994825000002,"velocity":0.6299212598425197,"duration":0.1349997750000007},{"name":"G#5","midi":80,"time":31.19994800000002,"velocity":0.6299212598425197,"duration":0.1349997750000007},{"name":"B5","midi":83,"time":31.34994775000002,"velocity":0.6299212598425197,"duration":0.1349997750000007},{"name":"G#5","midi":80,"time":31.49994750000002,"velocity":0.6299212598425197,"duration":0.1349997750000007},{"name":"F#5","midi":78,"time":31.649947250000018,"velocity":0.6299212598425197,"duration":0.1349997750000007},{"name":"G#5","midi":80,"time":31.799947000000017,"velocity":0.6299212598425197,"duration":0.2699995500000014},{"name":"F#5","midi":78,"time":32.099946500000016,"velocity":0.6299212598425197,"duration":0.13499977499999716},{"name":"G#5","midi":80,"time":32.249946250000015,"velocity":0.6299212598425197,"duration":0.2849995250000035},{"name":"B5","midi":83,"time":32.54994575000002,"velocity":0.6299212598425197,"duration":0.13499977499999716},{"name":"G#5","midi":80,"time":32.69994550000002,"velocity":0.6299212598425197,"duration":0.13499977499999716},{"name":"F#5","midi":78,"time":32.84994525000002,"velocity":0.6299212598425197,"duration":0.13499977499999716},{"name":"G#5","midi":80,"time":32.99994500000002,"velocity":0.6299212598425197,"duration":0.2699995500000014},{"name":"F#5","midi":78,"time":33.29994450000002,"velocity":0.6299212598425197,"duration":0.2699995500000014},{"name":"G#5","midi":80,"time":33.599944000000015,"velocity":0.6299212598425197,"duration":0.13499977499999716},{"name":"B5","midi":83,"time":33.749943750000014,"velocity":0.6299212598425197,"duration":0.13499977499999716},{"name":"G#5","midi":80,"time":33.89994350000001,"velocity":0.6299212598425197,"duration":0.13499977499999716},{"name":"F#5","midi":78,"time":34.04994325000001,"velocity":0.6299212598425197,"duration":0.13499977499999716},{"name":"G#5","midi":80,"time":34.19994300000001,"velocity":0.6299212598425197,"duration":0.2699995500000014},{"name":"F#5","midi":78,"time":34.49994250000001,"velocity":0.6299212598425197,"duration":0.13499977499999716},{"name":"G#5","midi":80,"time":34.64994225000001,"velocity":0.6299212598425197,"duration":0.4487492520833314},{"name":"G#5","midi":80,"time":35.09994150000001,"velocity":0.6299212598425197,"duration":0.2699995500000014},{"name":"B5","midi":83,"time":35.399941000000005,"velocity":0.6299212598425197,"duration":0.2699995500000014},{"name":"G#5","midi":80,"time":35.699940500000004,"velocity":0.6299212598425197,"duration":0.2699995500000014},{"name":"G#5","midi":80,"time":35.99994,"velocity":0.6299212598425197,"duration":0.2699995500000014},{"name":"C#5","midi":73,"time":35.99994,"velocity":0.6299212598425197,"duration":0.2699995500000014},{"name":"G#5","midi":80,"time":36.2999395,"velocity":0.6299212598425197,"duration":0.2699995500000014},{"name":"C#5","midi":73,"time":36.2999395,"velocity":0.6299212598425197,"duration":0.2699995500000014},{"name":"G#5","midi":80,"time":36.599939,"velocity":0.6299212598425197,"duration":0.2699995500000014},{"name":"C#5","midi":73,"time":36.599939,"velocity":0.6299212598425197,"duration":0.2699995500000014},{"name":"G#5","midi":80,"time":36.8999385,"velocity":0.6299212598425197,"duration":0.2699995500000014},{"name":"C#5","midi":73,"time":36.8999385,"velocity":0.6299212598425197,"duration":0.2699995500000014},{"name":"C#5","midi":73,"time":37.199937999999996,"velocity":0.6299212598425197,"duration":0.2699995500000014},{"name":"C#5","midi":73,"time":37.499937499999994,"velocity":0.6299212598425197,"duration":0.13499977499999716},{"name":"C#5","midi":73,"time":37.649937249999994,"velocity":0.6299212598425197,"duration":0.2849995250000035},{"name":"C#5","midi":73,"time":37.94993675,"velocity":0.6299212598425197,"duration":0.13499977499999716},{"name":"C#5","midi":73,"time":38.0999365,"velocity":0.6299212598425197,"duration":0.13499977499999716},{"name":"C#5","midi":73,"time":38.24993625,"velocity":0.6299212598425197,"duration":0.13499977499999716},{"name":"G#5","midi":80,"time":38.399936,"velocity":0.6299212598425197,"duration":0.2699995500000014},{"name":"C#5","midi":73,"time":38.399936,"velocity":0.6299212598425197,"duration":0.2699995500000014},{"name":"G#5","midi":80,"time":38.699935499999995,"velocity":0.6299212598425197,"duration":0.2699995500000014},{"name":"C#5","midi":73,"time":38.699935499999995,"velocity":0.6299212598425197,"duration":0.2699995500000014},{"name":"G#5","midi":80,"time":38.999934999999994,"velocity":0.6299212598425197,"duration":0.2699995500000014},{"name":"C#5","midi":73,"time":38.999934999999994,"velocity":0.6299212598425197,"duration":0.2699995500000014},{"name":"G#5","midi":80,"time":39.29993449999999,"velocity":0.6299212598425197,"duration":0.2699995500000014},{"name":"C#5","midi":73,"time":39.29993449999999,"velocity":0.6299212598425197,"duration":0.2699995500000014},{"name":"C#5","midi":73,"time":39.59993399999999,"velocity":0.6299212598425197,"duration":0.2699995500000014},{"name":"C#5","midi":73,"time":39.89993349999999,"velocity":0.6299212598425197,"duration":0.13499977499999716},{"name":"C#5","midi":73,"time":40.04993324999999,"velocity":0.6299212598425197,"duration":0.2849995250000035},{"name":"C#5","midi":73,"time":40.349932749999994,"velocity":0.6299212598425197,"duration":0.13499977499999716},{"name":"C#5","midi":73,"time":40.49993249999999,"velocity":0.6299212598425197,"duration":0.2699995500000014},{"name":"C#6","midi":85,"time":40.79993199999999,"velocity":0.6299212598425197,"duration":0.2699995500000014},{"name":"B5","midi":83,"time":41.09993149999999,"velocity":0.6299212598425197,"duration":0.13499977499999716},{"name":"G#5","midi":80,"time":41.24993124999999,"velocity":0.6299212598425197,"duration":0.2849995250000035},{"name":"F#5","midi":78,"time":41.549930749999994,"velocity":0.6299212598425197,"duration":0.13499977499999716},{"name":"E5","midi":76,"time":41.699930499999994,"velocity":0.6299212598425197,"duration":0.13499977499999716},{"name":"E5","midi":76,"time":41.84993024999999,"velocity":0.6299212598425197,"duration":0.13499977499999716},{"name":"E5","midi":76,"time":41.99992999999999,"velocity":0.6299212598425197,"duration":0.2699995500000014},{"name":"E5","midi":76,"time":42.29992949999999,"velocity":0.6299212598425197,"duration":0.2699995500000014},{"name":"F#5","midi":78,"time":42.59992899999999,"velocity":0.6299212598425197,"duration":0.2699995500000014},{"name":"E5","midi":76,"time":42.89992849999999,"velocity":0.6299212598425197,"duration":0.2699995500000014},{"name":"C#6","midi":85,"time":43.199927999999986,"velocity":0.6299212598425197,"duration":0.2699995500000014},{"name":"B5","midi":83,"time":43.499927499999984,"velocity":0.6299212598425197,"duration":0.13499977499999716},{"name":"G#5","midi":80,"time":43.64992724999998,"velocity":0.6299212598425197,"duration":0.2849995250000035},{"name":"F#5","midi":78,"time":43.94992674999999,"velocity":0.6299212598425197,"duration":0.13499977499999716},{"name":"E5","midi":76,"time":44.09992649999999,"velocity":0.6299212598425197,"duration":0.13499977499999716},{"name":"E5","midi":76,"time":44.24992624999999,"velocity":0.6299212598425197,"duration":0.13499977499999716},{"name":"G#5","midi":80,"time":44.39992599999999,"velocity":0.6299212598425197,"duration":0.2699995500000014},{"name":"F#5","midi":78,"time":44.699925499999985,"velocity":0.6299212598425197,"duration":0.2699995500000014},{"name":"F#5","midi":78,"time":44.99992499999998,"velocity":0.6299212598425197,"duration":0.2699995500000014},{"name":"D#5","midi":75,"time":45.29992449999998,"velocity":0.6299212598425197,"duration":0.2699995500000014},{"name":"B5","midi":83,"time":45.59992399999998,"velocity":0.6299212598425197,"duration":0.13499977499999716},{"name":"B5","midi":83,"time":45.74992374999998,"velocity":0.6299212598425197,"duration":0.13499977499999716},{"name":"B5","midi":83,"time":45.89992349999998,"velocity":0.6299212598425197,"duration":0.13499977499999716},{"name":"B5","midi":83,"time":46.04992324999998,"velocity":0.6299212598425197,"duration":0.13499977499999716},{"name":"B5","midi":83,"time":46.19992299999998,"velocity":0.6299212598425197,"duration":0.13499977499999716},{"name":"B5","midi":83,"time":46.349922749999976,"velocity":0.6299212598425197,"duration":0.13499977499999716},{"name":"D#5","midi":75,"time":46.499922499999975,"velocity":0.6299212598425197,"duration":0.13499977499999716},{"name":"D#5","midi":75,"time":46.649922249999975,"velocity":0.6299212598425197,"duration":0.13499977499999716},{"name":"D#5","midi":75,"time":46.799921999999974,"velocity":0.6299212598425197,"duration":0.2699995500000014},{"name":"C#5","midi":73,"time":47.09992149999997,"velocity":0.6299212598425197,"duration":0.2699995500000014},{"name":"B4","midi":71,"time":47.39992099999997,"velocity":0.6299212598425197,"duration":0.2699995500000014},{"name":"C#5","midi":73,"time":47.69992049999997,"velocity":0.6299212598425197,"duration":0.2699995500000014},{"name":"A5","midi":81,"time":47.99991999999997,"velocity":0.6299212598425197,"duration":0.2699995500000014},{"name":"C#5","midi":73,"time":47.99991999999997,"velocity":0.6299212598425197,"duration":0.2699995500000014},{"name":"A5","midi":81,"time":48.299919499999966,"velocity":0.6299212598425197,"duration":0.2699995500000014},{"name":"C#5","midi":73,"time":48.299919499999966,"velocity":0.6299212598425197,"duration":0.2699995500000014},{"name":"G#5","midi":80,"time":48.599918999999964,"velocity":0.6299212598425197,"duration":0.2699995500000014},{"name":"C#5","midi":73,"time":48.599918999999964,"velocity":0.6299212598425197,"duration":0.2699995500000014},{"name":"G#5","midi":80,"time":48.89991849999996,"velocity":0.6299212598425197,"duration":0.2699995500000014},{"name":"C#5","midi":73,"time":48.89991849999996,"velocity":0.6299212598425197,"duration":0.2699995500000014},{"name":"F#5","midi":78,"time":49.19991799999996,"velocity":0.6299212598425197,"duration":0.2699995500000014},{"name":"C#5","midi":73,"time":49.19991799999996,"velocity":0.6299212598425197,"duration":0.2699995500000014},{"name":"E5","midi":76,"time":49.49991749999996,"velocity":0.6299212598425197,"duration":0.2699995500000014},{"name":"D#5","midi":75,"time":49.79991699999996,"velocity":0.6299212598425197,"duration":0.2699995500000014},{"name":"E5","midi":76,"time":50.099916499999956,"velocity":0.6299212598425197,"duration":0.2699995500000014},{"name":"E5","midi":76,"time":51.29991449999996,"velocity":0.6299212598425197,"duration":0.13499977499999716},{"name":"E5","midi":76,"time":51.449914249999956,"velocity":0.6299212598425197,"duration":0.13499977499999716},{"name":"E5","midi":76,"time":51.599913999999956,"velocity":0.6299212598425197,"duration":0.13499977499999716},{"name":"E5","midi":76,"time":51.749913749999955,"velocity":0.6299212598425197,"duration":0.13499977499999716},{"name":"C#5","midi":73,"time":51.899913499999954,"velocity":0.6299212598425197,"duration":0.13499977499999716},{"name":"C#5","midi":73,"time":52.04991324999995,"velocity":0.6299212598425197,"duration":0.13499977499999716},{"name":"E5","midi":76,"time":52.19991299999995,"velocity":0.6299212598425197,"duration":0.2699995500000014},{"name":"F#5","midi":78,"time":52.49991249999995,"velocity":0.6299212598425197,"duration":0.2699995500000014},{"name":"E5","midi":76,"time":52.79991199999995,"velocity":0.6299212598425197,"duration":0.8987485020833361},{"name":"E5","midi":76,"time":53.69991049999995,"velocity":0.6299212598425197,"duration":0.13499977499999716},{"name":"E5","midi":76,"time":53.84991024999995,"velocity":0.6299212598425197,"duration":0.13499977499999716},{"name":"E5","midi":76,"time":53.99990999999995,"velocity":0.6299212598425197,"duration":0.13499977499999716},{"name":"E5","midi":76,"time":54.14990974999995,"velocity":0.6299212598425197,"duration":0.13499977499999716},{"name":"E5","midi":76,"time":54.29990949999995,"velocity":0.6299212598425197,"duration":0.13499977499999716},{"name":"E5","midi":76,"time":54.44990924999995,"velocity":0.6299212598425197,"duration":0.13499977499999716},{"name":"B5","midi":83,"time":54.59990899999995,"velocity":0.6299212598425197,"duration":0.2699995500000014},{"name":"E5","midi":76,"time":54.899908499999945,"velocity":0.6299212598425197,"duration":0.2699995500000014},{"name":"F#5","midi":78,"time":55.199907999999944,"velocity":0.6299212598425197,"duration":0.8987485020833361},{"name":"B4","midi":71,"time":56.099906499999946,"velocity":0.6299212598425197,"duration":0.2699995500000014},{"name":"B4","midi":71,"time":56.399905999999945,"velocity":0.6299212598425197,"duration":0.7487487520833298},{"name":"B4","midi":71,"time":57.14990474999994,"velocity":0.6299212598425197,"duration":0.13499977499999716},{"name":"B4","midi":71,"time":57.29990449999994,"velocity":0.6299212598425197,"duration":0.13499977499999716},{"name":"B4","midi":71,"time":57.44990424999994,"velocity":0.6299212598425197,"duration":0.13499977499999716},{"name":"B4","midi":71,"time":57.59990399999994,"velocity":0.6299212598425197,"duration":0.14874975208333296},{"name":"C#5","midi":73,"time":57.89990349999994,"velocity":0.6299212598425197,"duration":0.14874975208333296},{"name":"E5","midi":76,"time":58.199902999999935,"velocity":0.6299212598425197,"duration":0.14874975208333296},{"name":"C#5","midi":73,"time":58.199902999999935,"velocity":0.6299212598425197,"duration":0.14874975208333296},{"name":"F#5","midi":78,"time":58.49990249999993,"velocity":0.6299212598425197,"duration":0.14874975208333296},{"name":"C#5","midi":73,"time":58.49990249999993,"velocity":0.6299212598425197,"duration":0.14874975208333296},{"name":"G#5","midi":80,"time":58.79990199999993,"velocity":0.6299212598425197,"duration":0.5399991000000028},{"name":"C#5","midi":73,"time":58.79990199999993,"velocity":0.6299212598425197,"duration":0.5399991000000028},{"name":"E5","midi":76,"time":59.399900999999936,"velocity":0.6299212598425197,"duration":0.2699995500000014},{"name":"F#5","midi":78,"time":59.699900499999934,"velocity":0.6299212598425197,"duration":0.2699995500000014},{"name":"G#5","midi":80,"time":59.99989999999993,"velocity":0.6299212598425197,"duration":0.14874975208333296},{"name":"C#5","midi":73,"time":59.99989999999993,"velocity":0.6299212598425197,"duration":0.14874975208333296},{"name":"G#5","midi":80,"time":60.29989949999993,"velocity":0.6299212598425197,"duration":0.14874975208333296},{"name":"C#5","midi":73,"time":60.29989949999993,"velocity":0.6299212598425197,"duration":0.14874975208333296},{"name":"G#5","midi":80,"time":60.59989899999993,"velocity":0.6299212598425197,"duration":0.2699995500000014},{"name":"C#5","midi":73,"time":60.59989899999993,"velocity":0.6299212598425197,"duration":0.2699995500000014},{"name":"G#5","midi":80,"time":60.89989849999993,"velocity":0.6299212598425197,"duration":0.13499977499999716},{"name":"C#5","midi":73,"time":60.89989849999993,"velocity":0.6299212598425197,"duration":0.13499977499999716},{"name":"G#5","midi":80,"time":61.04989824999993,"velocity":0.6299212598425197,"duration":0.4487492520833314},{"name":"C#5","midi":73,"time":61.04989824999993,"velocity":0.6299212598425197,"duration":0.4487492520833314},{"name":"G#5","midi":80,"time":61.499897499999925,"velocity":0.6299212598425197,"duration":0.2699995500000014},{"name":"C#5","midi":73,"time":61.499897499999925,"velocity":0.6299212598425197,"duration":0.2699995500000014},{"name":"G#5","midi":80,"time":61.79989699999992,"velocity":0.6299212598425197,"duration":0.2699995500000014},{"name":"C#5","midi":73,"time":61.79989699999992,"velocity":0.6299212598425197,"duration":0.2699995500000014},{"name":"G#5","midi":80,"time":62.09989649999992,"velocity":0.6299212598425197,"duration":0.2699995500000014},{"name":"C#5","midi":73,"time":62.09989649999992,"velocity":0.6299212598425197,"duration":0.2699995500000014},{"name":"G#5","midi":80,"time":62.39989599999992,"velocity":0.6299212598425197,"duration":0.2699995500000014},{"name":"C#5","midi":73,"time":62.39989599999992,"velocity":0.6299212598425197,"duration":0.2699995500000014},{"name":"G#5","midi":80,"time":62.69989549999992,"velocity":0.6299212598425197,"duration":0.2699995500000014},{"name":"C#5","midi":73,"time":62.69989549999992,"velocity":0.6299212598425197,"duration":0.2699995500000014},{"name":"G#5","midi":80,"time":62.99989499999992,"velocity":0.6299212598425197,"duration":0.2699995500000014},{"name":"C#5","midi":73,"time":62.99989499999992,"velocity":0.6299212598425197,"duration":0.2699995500000014},{"name":"G#5","midi":80,"time":63.299894499999915,"velocity":0.6299212598425197,"duration":0.2699995500000014},{"name":"C#5","midi":73,"time":63.299894499999915,"velocity":0.6299212598425197,"duration":0.2699995500000014},{"name":"G#5","midi":80,"time":63.599893999999914,"velocity":0.6299212598425197,"duration":0.5399990999999957},{"name":"C#5","midi":73,"time":63.599893999999914,"velocity":0.6299212598425197,"duration":0.5399990999999957},{"name":"B5","midi":83,"time":64.1998929999999,"velocity":0.6299212598425197,"duration":0.2699995499999943},{"name":"B5","midi":83,"time":64.4998924999999,"velocity":0.6299212598425197,"duration":0.2699995499999943},{"name":"F#5","midi":78,"time":64.7998919999999,"velocity":0.6299212598425197,"duration":0.2699995499999943},{"name":"B4","midi":71,"time":64.7998919999999,"velocity":0.6299212598425197,"duration":0.2699995499999943},{"name":"F#5","midi":78,"time":65.0998914999999,"velocity":0.6299212598425197,"duration":0.2699995499999943},{"name":"B4","midi":71,"time":65.0998914999999,"velocity":0.6299212598425197,"duration":0.2699995499999943},{"name":"F#5","midi":78,"time":65.3998909999999,"velocity":0.6299212598425197,"duration":0.2699995499999943},{"name":"B4","midi":71,"time":65.3998909999999,"velocity":0.6299212598425197,"duration":0.2699995499999943},{"name":"F#5","midi":78,"time":65.6998904999999,"velocity":0.6299212598425197,"duration":0.13499977499999716},{"name":"B4","midi":71,"time":65.6998904999999,"velocity":0.6299212598425197,"duration":0.13499977499999716},{"name":"F#5","midi":78,"time":65.84989024999989,"velocity":0.6299212598425197,"duration":0.4487492520833314},{"name":"B4","midi":71,"time":65.84989024999989,"velocity":0.6299212598425197,"duration":0.4487492520833314},{"name":"F#5","midi":78,"time":66.29988949999989,"velocity":0.6299212598425197,"duration":0.2699995499999943},{"name":"B4","midi":71,"time":66.29988949999989,"velocity":0.6299212598425197,"duration":0.2699995499999943},{"name":"F#5","midi":78,"time":66.59988899999989,"velocity":0.6299212598425197,"duration":0.2699995499999943},{"name":"B4","midi":71,"time":66.59988899999989,"velocity":0.6299212598425197,"duration":0.2699995499999943},{"name":"F#5","midi":78,"time":66.89988849999989,"velocity":0.6299212598425197,"duration":0.2699995499999943},{"name":"B4","midi":71,"time":66.89988849999989,"velocity":0.6299212598425197,"duration":0.2699995499999943},{"name":"B4","midi":71,"time":67.19988799999989,"velocity":0.6299212598425197,"duration":0.2699995499999943},{"name":"C#5","midi":73,"time":67.49988749999989,"velocity":0.6299212598425197,"duration":0.2699995499999943},{"name":"E5","midi":76,"time":67.79988699999988,"velocity":0.6299212598425197,"duration":0.2699995499999943},{"name":"B4","midi":71,"time":67.79988699999988,"velocity":0.6299212598425197,"duration":0.2699995499999943},{"name":"F#5","midi":78,"time":68.09988649999988,"velocity":0.6299212598425197,"duration":0.2699995499999943},{"name":"B4","midi":71,"time":68.09988649999988,"velocity":0.6299212598425197,"duration":0.2699995499999943},{"name":"E5","midi":76,"time":68.39988599999988,"velocity":0.6299212598425197,"duration":0.5399991000000028},{"name":"B4","midi":71,"time":68.39988599999988,"velocity":0.6299212598425197,"duration":0.5399991000000028},{"name":"E5","midi":76,"time":68.99988499999988,"velocity":0.6299212598425197,"duration":0.2699995499999943},{"name":"F#5","midi":78,"time":69.29988449999988,"velocity":0.6299212598425197,"duration":0.2699995499999943},{"name":"G#5","midi":80,"time":69.59988399999988,"velocity":0.6299212598425197,"duration":0.14874975208333296},{"name":"C#5","midi":73,"time":69.59988399999988,"velocity":0.6299212598425197,"duration":0.14874975208333296},{"name":"G#5","midi":80,"time":69.89988349999987,"velocity":0.6299212598425197,"duration":0.14874975208333296},{"name":"C#5","midi":73,"time":69.89988349999987,"velocity":0.6299212598425197,"duration":0.14874975208333296},{"name":"G#5","midi":80,"time":70.19988299999987,"velocity":0.6299212598425197,"duration":0.2699995499999943},{"name":"C#5","midi":73,"time":70.19988299999987,"velocity":0.6299212598425197,"duration":0.2699995499999943},{"name":"G#5","midi":80,"time":70.49988249999987,"velocity":0.6299212598425197,"duration":0.13499977499999716},{"name":"C#5","midi":73,"time":70.49988249999987,"velocity":0.6299212598425197,"duration":0.13499977499999716},{"name":"G#5","midi":80,"time":70.64988224999986,"velocity":0.6299212598425197,"duration":0.4487492520833314},{"name":"C#5","midi":73,"time":70.64988224999986,"velocity":0.6299212598425197,"duration":0.4487492520833314},{"name":"G#5","midi":80,"time":71.09988149999987,"velocity":0.6299212598425197,"duration":0.2699995499999943},{"name":"C#5","midi":73,"time":71.09988149999987,"velocity":0.6299212598425197,"duration":0.2699995499999943},{"name":"G#5","midi":80,"time":71.39988099999987,"velocity":0.6299212598425197,"duration":0.2699995499999943},{"name":"C#5","midi":73,"time":71.39988099999987,"velocity":0.6299212598425197,"duration":0.2699995499999943},{"name":"G#5","midi":80,"time":71.69988049999986,"velocity":0.6299212598425197,"duration":0.2699995499999943},{"name":"C#5","midi":73,"time":71.69988049999986,"velocity":0.6299212598425197,"duration":0.2699995499999943},{"name":"G#5","midi":80,"time":71.99987999999986,"velocity":0.6299212598425197,"duration":0.2699995499999943},{"name":"C#5","midi":73,"time":71.99987999999986,"velocity":0.6299212598425197,"duration":0.2699995499999943},{"name":"G#5","midi":80,"time":72.29987949999986,"velocity":0.6299212598425197,"duration":0.2699995499999943},{"name":"C#5","midi":73,"time":72.29987949999986,"velocity":0.6299212598425197,"duration":0.2699995499999943},{"name":"G#5","midi":80,"time":72.59987899999986,"velocity":0.6299212598425197,"duration":0.2699995499999943},{"name":"C#5","midi":73,"time":72.59987899999986,"velocity":0.6299212598425197,"duration":0.2699995499999943},{"name":"G#5","midi":80,"time":72.89987849999986,"velocity":0.6299212598425197,"duration":0.2699995499999943},{"name":"C#5","midi":73,"time":72.89987849999986,"velocity":0.6299212598425197,"duration":0.2699995499999943},{"name":"G#5","midi":80,"time":73.19987799999986,"velocity":0.6299212598425197,"duration":0.4487492520833314},{"name":"C#5","midi":73,"time":73.19987799999986,"velocity":0.6299212598425197,"duration":0.2699995499999943},{"name":"E5","midi":76,"time":73.64987724999986,"velocity":0.6299212598425197,"duration":0.13499977499999716},{"name":"E5","midi":76,"time":73.79987699999985,"velocity":0.6299212598425197,"duration":0.2699995499999943},{"name":"C#6","midi":85,"time":74.09987649999985,"velocity":0.6299212598425197,"duration":0.2699995499999943},{"name":"B5","midi":83,"time":74.39987599999985,"velocity":0.6299212598425197,"duration":0.4487492520833314},{"name":"G#5","midi":80,"time":74.84987524999985,"velocity":0.6299212598425197,"duration":0.4487492520833314},{"name":"F#5","midi":78,"time":75.29987449999986,"velocity":0.6299212598425197,"duration":0.2699995499999943},{"name":"G#5","midi":80,"time":75.59987399999986,"velocity":0.6299212598425197,"duration":0.4487492520833314},{"name":"E5","midi":76,"time":76.04987324999986,"velocity":0.6299212598425197,"duration":0.13499977499999716},{"name":"E5","midi":76,"time":76.19987299999985,"velocity":0.6299212598425197,"duration":0.2699995499999943},{"name":"C#6","midi":85,"time":76.49987249999985,"velocity":0.6299212598425197,"duration":0.2699995499999943},{"name":"B5","midi":83,"time":76.79987199999985,"velocity":0.6299212598425197,"duration":0.4487492520833314},{"name":"G#5","midi":80,"time":77.24987124999986,"velocity":0.6299212598425197,"duration":0.4487492520833314},{"name":"F#5","midi":78,"time":77.69987049999986,"velocity":0.6299212598425197,"duration":0.2699995499999943},{"name":"G#5","midi":80,"time":77.99986999999986,"velocity":0.6299212598425197,"duration":0.14874975208333296},{"name":"C#5","midi":73,"time":77.99986999999986,"velocity":0.6299212598425197,"duration":0.14874975208333296},{"name":"A5","midi":81,"time":78.29986949999986,"velocity":0.6299212598425197,"duration":0.14874975208333296},{"name":"C#5","midi":73,"time":78.29986949999986,"velocity":0.6299212598425197,"duration":0.14874975208333296},{"name":"G#5","midi":80,"time":78.59986899999986,"velocity":0.6299212598425197,"duration":0.2987495020833393},{"name":"C#5","midi":73,"time":78.59986899999986,"velocity":0.6299212598425197,"duration":0.2987495020833393},{"name":"E5","midi":76,"time":79.49986749999987,"velocity":0.6299212598425197,"duration":0.14874975208333296},{"name":"C#5","midi":73,"time":79.49986749999987,"velocity":0.6299212598425197,"duration":0.14874975208333296},{"name":"E5","midi":76,"time":80.09986649999986,"velocity":0.6299212598425197,"duration":0.14874975208333296},{"name":"C#5","midi":73,"time":80.09986649999986,"velocity":0.6299212598425197,"duration":0.14874975208333296},{"name":"E5","midi":76,"time":80.69986549999986,"velocity":0.6299212598425197,"duration":0.14874975208333296},{"name":"C#5","midi":73,"time":80.69986549999986,"velocity":0.6299212598425197,"duration":0.14874975208333296},{"name":"E5","midi":76,"time":81.29986449999986,"velocity":0.6299212598425197,"duration":0.14874975208333296},{"name":"C#5","midi":73,"time":81.29986449999986,"velocity":0.6299212598425197,"duration":0.14874975208333296},{"name":"G#5","midi":80,"time":81.59986399999985,"velocity":0.6299212598425197,"duration":0.13499977499999716},{"name":"B5","midi":83,"time":81.74986374999985,"velocity":0.6299212598425197,"duration":0.13499977499999716},{"name":"G#5","midi":80,"time":81.89986349999984,"velocity":0.6299212598425197,"duration":0.13499977499999716},{"name":"F#5","midi":78,"time":82.04986324999983,"velocity":0.6299212598425197,"duration":0.13499977499999716},{"name":"G#5","midi":80,"time":82.19986299999982,"velocity":0.6299212598425197,"duration":0.2699995499999943},{"name":"F#5","midi":78,"time":82.49986249999982,"velocity":0.6299212598425197,"duration":0.13499977499999716},{"name":"G#5","midi":80,"time":82.64986224999981,"velocity":0.6299212598425197,"duration":0.2849995250000035},{"name":"B5","midi":83,"time":82.94986174999981,"velocity":0.6299212598425197,"duration":0.13499977499999716},{"name":"G#5","midi":80,"time":83.0998614999998,"velocity":0.6299212598425197,"duration":0.13499977499999716},{"name":"F#5","midi":78,"time":83.2498612499998,"velocity":0.6299212598425197,"duration":0.13499977499999716},{"name":"G#5","midi":80,"time":83.39986099999979,"velocity":0.6299212598425197,"duration":0.2699995499999943},{"name":"F#5","midi":78,"time":83.69986049999979,"velocity":0.6299212598425197,"duration":0.2699995499999943},{"name":"G#5","midi":80,"time":83.99985999999979,"velocity":0.6299212598425197,"duration":0.13499977499999716},{"name":"B5","midi":83,"time":84.14985974999978,"velocity":0.6299212598425197,"duration":0.13499977499999716},{"name":"G#5","midi":80,"time":84.29985949999977,"velocity":0.6299212598425197,"duration":0.13499977499999716},{"name":"F#5","midi":78,"time":84.44985924999976,"velocity":0.6299212598425197,"duration":0.13499977499999716},{"name":"G#5","midi":80,"time":84.59985899999975,"velocity":0.6299212598425197,"duration":0.2699995499999943},{"name":"F#5","midi":78,"time":84.89985849999975,"velocity":0.6299212598425197,"duration":0.13499977499999716},{"name":"G#5","midi":80,"time":85.04985824999974,"velocity":0.6299212598425197,"duration":0.4487492520833314},{"name":"G#5","midi":80,"time":85.49985749999975,"velocity":0.6299212598425197,"duration":0.2699995499999943},{"name":"C#5","midi":73,"time":85.79985699999975,"velocity":0.6299212598425197,"duration":0.2699995499999943},{"name":"E5","midi":76,"time":86.09985649999975,"velocity":0.6299212598425197,"duration":0.2699995499999943},{"name":"G#5","midi":80,"time":86.39985599999974,"velocity":0.6299212598425197,"duration":0.2699995499999943},{"name":"C#5","midi":73,"time":86.39985599999974,"velocity":0.6299212598425197,"duration":0.2699995499999943},{"name":"G#5","midi":80,"time":86.69985549999974,"velocity":0.6299212598425197,"duration":0.2699995499999943},{"name":"C#5","midi":73,"time":86.69985549999974,"velocity":0.6299212598425197,"duration":0.2699995499999943},{"name":"G#5","midi":80,"time":86.99985499999974,"velocity":0.6299212598425197,"duration":0.2699995499999943},{"name":"C#5","midi":73,"time":86.99985499999974,"velocity":0.6299212598425197,"duration":0.2699995499999943},{"name":"G#5","midi":80,"time":87.29985449999974,"velocity":0.6299212598425197,"duration":0.2699995499999943},{"name":"C#5","midi":73,"time":87.29985449999974,"velocity":0.6299212598425197,"duration":0.2699995499999943},{"name":"C#5","midi":73,"time":87.59985399999974,"velocity":0.6299212598425197,"duration":0.2699995499999943},{"name":"C#5","midi":73,"time":87.89985349999974,"velocity":0.6299212598425197,"duration":0.13499977499999716},{"name":"C#5","midi":73,"time":88.04985324999973,"velocity":0.6299212598425197,"duration":0.2849995250000035},{"name":"C#5","midi":73,"time":88.34985274999973,"velocity":0.6299212598425197,"duration":0.13499977499999716},{"name":"C#5","midi":73,"time":88.49985249999972,"velocity":0.6299212598425197,"duration":0.13499977499999716},{"name":"C#5","midi":73,"time":88.64985224999971,"velocity":0.6299212598425197,"duration":0.13499977499999716},{"name":"G#5","midi":80,"time":88.7998519999997,"velocity":0.6299212598425197,"duration":0.2699995499999943},{"name":"C#5","midi":73,"time":88.7998519999997,"velocity":0.6299212598425197,"duration":0.2699995499999943},{"name":"G#5","midi":80,"time":89.0998514999997,"velocity":0.6299212598425197,"duration":0.2699995499999943},{"name":"C#5","midi":73,"time":89.0998514999997,"velocity":0.6299212598425197,"duration":0.2699995499999943},{"name":"G#5","midi":80,"time":89.3998509999997,"velocity":0.6299212598425197,"duration":0.2699995499999943},{"name":"C#5","midi":73,"time":89.3998509999997,"velocity":0.6299212598425197,"duration":0.2699995499999943},{"name":"G#5","midi":80,"time":89.6998504999997,"velocity":0.6299212598425197,"duration":0.2699995499999943},{"name":"C#5","midi":73,"time":89.6998504999997,"velocity":0.6299212598425197,"duration":0.2699995499999943},{"name":"C#5","midi":73,"time":89.9998499999997,"velocity":0.6299212598425197,"duration":0.2699995499999943},{"name":"C#5","midi":73,"time":90.2998494999997,"velocity":0.6299212598425197,"duration":0.13499977499999716},{"name":"C#5","midi":73,"time":90.44984924999969,"velocity":0.6299212598425197,"duration":0.2849995250000035},{"name":"C#5","midi":73,"time":90.74984874999969,"velocity":0.6299212598425197,"duration":0.13499977499999716},{"name":"C#5","midi":73,"time":90.89984849999968,"velocity":0.6299212598425197,"duration":0.13499977499999716},{"name":"C#5","midi":73,"time":91.04984824999967,"velocity":0.6299212598425197,"duration":0.13499977499999716},{"name":"G#5","midi":80,"time":91.19984799999966,"velocity":0.6299212598425197,"duration":0.13499977499999716},{"name":"B5","midi":83,"time":91.34984774999965,"velocity":0.6299212598425197,"duration":0.13499977499999716},{"name":"G#5","midi":80,"time":91.49984749999965,"velocity":0.6299212598425197,"duration":0.13499977499999716},{"name":"F#5","midi":78,"time":91.64984724999964,"velocity":0.6299212598425197,"duration":0.13499977499999716},{"name":"G#5","midi":80,"time":91.79984699999963,"velocity":0.6299212598425197,"duration":0.2699995499999943},{"name":"F#5","midi":78,"time":92.09984649999963,"velocity":0.6299212598425197,"duration":0.13499977499999716},{"name":"G#5","midi":80,"time":92.24984624999962,"velocity":0.6299212598425197,"duration":0.2849995250000035},{"name":"B5","midi":83,"time":92.54984574999962,"velocity":0.6299212598425197,"duration":0.13499977499999716},{"name":"G#5","midi":80,"time":92.69984549999961,"velocity":0.6299212598425197,"duration":0.13499977499999716},{"name":"F#5","midi":78,"time":92.8498452499996,"velocity":0.6299212598425197,"duration":0.13499977499999716},{"name":"G#5","midi":80,"time":92.9998449999996,"velocity":0.6299212598425197,"duration":0.2699995499999943},{"name":"F#5","midi":78,"time":93.2998444999996,"velocity":0.6299212598425197,"duration":0.2699995499999943},{"name":"G#5","midi":80,"time":93.59984399999959,"velocity":0.6299212598425197,"duration":0.13499977499999716},{"name":"B5","midi":83,"time":93.74984374999958,"velocity":0.6299212598425197,"duration":0.13499977499999716},{"name":"G#5","midi":80,"time":93.89984349999958,"velocity":0.6299212598425197,"duration":0.13499977499999716},{"name":"F#5","midi":78,"time":94.04984324999957,"velocity":0.6299212598425197,"duration":0.13499977499999716},{"name":"G#5","midi":80,"time":94.19984299999956,"velocity":0.6299212598425197,"duration":0.2699995499999943},{"name":"F#5","midi":78,"time":94.49984249999956,"velocity":0.6299212598425197,"duration":0.13499977499999716},{"name":"G#5","midi":80,"time":94.64984224999955,"velocity":0.6299212598425197,"duration":0.4487492520833314},{"name":"G#5","midi":80,"time":95.09984149999956,"velocity":0.6299212598425197,"duration":0.2699995499999943},{"name":"B5","midi":83,"time":95.39984099999955,"velocity":0.6299212598425197,"duration":0.2699995499999943},{"name":"G#5","midi":80,"time":95.69984049999955,"velocity":0.6299212598425197,"duration":0.2699995499999943},{"name":"G#5","midi":80,"time":95.99983999999955,"velocity":0.6299212598425197,"duration":0.2699995499999943},{"name":"C#5","midi":73,"time":95.99983999999955,"velocity":0.6299212598425197,"duration":0.2699995499999943},{"name":"G#5","midi":80,"time":96.29983949999955,"velocity":0.6299212598425197,"duration":0.2699995499999943},{"name":"C#5","midi":73,"time":96.29983949999955,"velocity":0.6299212598425197,"duration":0.2699995499999943},{"name":"G#5","midi":80,"time":96.59983899999955,"velocity":0.6299212598425197,"duration":0.2699995499999943},{"name":"C#5","midi":73,"time":96.59983899999955,"velocity":0.6299212598425197,"duration":0.2699995499999943},{"name":"G#5","midi":80,"time":96.89983849999955,"velocity":0.6299212598425197,"duration":0.2699995499999943},{"name":"C#5","midi":73,"time":96.89983849999955,"velocity":0.6299212598425197,"duration":0.2699995499999943},{"name":"C#5","midi":73,"time":97.19983799999954,"velocity":0.6299212598425197,"duration":0.2699995499999943},{"name":"C#5","midi":73,"time":97.49983749999954,"velocity":0.6299212598425197,"duration":0.13499977499999716},{"name":"C#5","midi":73,"time":97.64983724999954,"velocity":0.6299212598425197,"duration":0.2849995250000035},{"name":"C#5","midi":73,"time":97.94983674999953,"velocity":0.6299212598425197,"duration":0.13499977499999716},{"name":"C#5","midi":73,"time":98.09983649999953,"velocity":0.6299212598425197,"duration":0.13499977499999716},{"name":"C#5","midi":73,"time":98.24983624999952,"velocity":0.6299212598425197,"duration":0.13499977499999716},{"name":"G#5","midi":80,"time":98.39983599999951,"velocity":0.6299212598425197,"duration":0.2699995499999943},{"name":"C#5","midi":73,"time":98.39983599999951,"velocity":0.6299212598425197,"duration":0.2699995499999943},{"name":"G#5","midi":80,"time":98.69983549999951,"velocity":0.6299212598425197,"duration":0.2699995499999943},{"name":"C#5","midi":73,"time":98.69983549999951,"velocity":0.6299212598425197,"duration":0.2699995499999943},{"name":"G#5","midi":80,"time":98.9998349999995,"velocity":0.6299212598425197,"duration":0.2699995499999943},{"name":"C#5","midi":73,"time":98.9998349999995,"velocity":0.6299212598425197,"duration":0.2699995499999943},{"name":"G#5","midi":80,"time":99.2998344999995,"velocity":0.6299212598425197,"duration":0.2699995499999943},{"name":"C#5","midi":73,"time":99.2998344999995,"velocity":0.6299212598425197,"duration":0.2699995499999943},{"name":"C#5","midi":73,"time":99.5998339999995,"velocity":0.6299212598425197,"duration":0.2699995499999943},{"name":"C#5","midi":73,"time":99.8998334999995,"velocity":0.6299212598425197,"duration":0.13499977499999716},{"name":"C#5","midi":73,"time":100.0498332499995,"velocity":0.6299212598425197,"duration":0.2849995250000035},{"name":"C#5","midi":73,"time":100.34983274999949,"velocity":0.6299212598425197,"duration":0.13499977499999716},{"name":"C#5","midi":73,"time":100.49983249999948,"velocity":0.6299212598425197,"duration":0.2699995499999943},{"name":"C#6","midi":85,"time":100.79983199999948,"velocity":0.6299212598425197,"duration":0.2699995499999943},{"name":"B5","midi":83,"time":101.09983149999948,"velocity":0.6299212598425197,"duration":0.13499977499999716},{"name":"G#5","midi":80,"time":101.24983124999947,"velocity":0.6299212598425197,"duration":0.2849995250000035},{"name":"F#5","midi":78,"time":101.54983074999947,"velocity":0.6299212598425197,"duration":0.13499977499999716},{"name":"E5","midi":76,"time":101.69983049999946,"velocity":0.6299212598425197,"duration":0.13499977499999716},{"name":"E5","midi":76,"time":101.84983024999946,"velocity":0.6299212598425197,"duration":0.13499977499999716},{"name":"E5","midi":76,"time":101.99982999999945,"velocity":0.6299212598425197,"duration":0.2699995499999943},{"name":"E5","midi":76,"time":102.29982949999945,"velocity":0.6299212598425197,"duration":0.2699995499999943},{"name":"F#5","midi":78,"time":102.59982899999945,"velocity":0.6299212598425197,"duration":0.2699995499999943},{"name":"E5","midi":76,"time":102.89982849999944,"velocity":0.6299212598425197,"duration":0.2699995499999943},{"name":"C#6","midi":85,"time":103.19982799999944,"velocity":0.6299212598425197,"duration":0.2699995499999943},{"name":"B5","midi":83,"time":103.49982749999944,"velocity":0.6299212598425197,"duration":0.13499977499999716},{"name":"G#5","midi":80,"time":103.64982724999943,"velocity":0.6299212598425197,"duration":0.2849995250000035},{"name":"F#5","midi":78,"time":103.94982674999943,"velocity":0.6299212598425197,"duration":0.13499977499999716},{"name":"E5","midi":76,"time":104.09982649999942,"velocity":0.6299212598425197,"duration":0.13499977499999716},{"name":"E5","midi":76,"time":104.24982624999942,"velocity":0.6299212598425197,"duration":0.13499977499999716},{"name":"G#5","midi":80,"time":104.39982599999941,"velocity":0.6299212598425197,"duration":0.2699995499999943},{"name":"F#5","midi":78,"time":104.6998254999994,"velocity":0.6299212598425197,"duration":0.2699995499999943},{"name":"F#5","midi":78,"time":104.9998249999994,"velocity":0.6299212598425197,"duration":0.2699995499999943},{"name":"D#5","midi":75,"time":105.2998244999994,"velocity":0.6299212598425197,"duration":0.2699995499999943},{"name":"B5","midi":83,"time":105.5998239999994,"velocity":0.6299212598425197,"duration":0.13499977499999716},{"name":"B5","midi":83,"time":105.7498237499994,"velocity":0.6299212598425197,"duration":0.13499977499999716},{"name":"B5","midi":83,"time":105.89982349999939,"velocity":0.6299212598425197,"duration":0.13499977499999716},{"name":"B5","midi":83,"time":106.04982324999938,"velocity":0.6299212598425197,"duration":0.13499977499999716},{"name":"B5","midi":83,"time":106.19982299999937,"velocity":0.6299212598425197,"duration":0.13499977499999716},{"name":"B5","midi":83,"time":106.34982274999936,"velocity":0.6299212598425197,"duration":0.13499977499999716},{"name":"D#5","midi":75,"time":106.49982249999935,"velocity":0.6299212598425197,"duration":0.13499977499999716},{"name":"D#5","midi":75,"time":106.64982224999935,"velocity":0.6299212598425197,"duration":0.13499977499999716},{"name":"D#5","midi":75,"time":106.79982199999934,"velocity":0.6299212598425197,"duration":0.2699995499999943},{"name":"C#5","midi":73,"time":107.09982149999934,"velocity":0.6299212598425197,"duration":0.2699995499999943},{"name":"B4","midi":71,"time":107.39982099999933,"velocity":0.6299212598425197,"duration":0.2699995499999943},{"name":"C#5","midi":73,"time":107.69982049999933,"velocity":0.6299212598425197,"duration":0.2699995499999943},{"name":"A5","midi":81,"time":107.99981999999933,"velocity":0.6299212598425197,"duration":0.2699995499999943},{"name":"C#5","midi":73,"time":107.99981999999933,"velocity":0.6299212598425197,"duration":0.2699995499999943},{"name":"A5","midi":81,"time":108.29981949999933,"velocity":0.6299212598425197,"duration":0.2699995499999943},{"name":"C#5","midi":73,"time":108.29981949999933,"velocity":0.6299212598425197,"duration":0.2699995499999943},{"name":"G#5","midi":80,"time":108.59981899999933,"velocity":0.6299212598425197,"duration":0.2699995499999943},{"name":"C#5","midi":73,"time":108.59981899999933,"velocity":0.6299212598425197,"duration":0.2699995499999943},{"name":"G#5","midi":80,"time":108.89981849999933,"velocity":0.6299212598425197,"duration":0.2699995499999943},{"name":"C#5","midi":73,"time":108.89981849999933,"velocity":0.6299212598425197,"duration":0.2699995499999943},{"name":"F#5","midi":78,"time":109.19981799999933,"velocity":0.6299212598425197,"duration":0.2699995499999943},{"name":"C#5","midi":73,"time":109.19981799999933,"velocity":0.6299212598425197,"duration":0.2699995499999943},{"name":"E5","midi":76,"time":109.49981749999932,"velocity":0.6299212598425197,"duration":0.2699995499999943},{"name":"D#5","midi":75,"time":109.79981699999932,"velocity":0.6299212598425197,"duration":0.2699995499999943},{"name":"E5","midi":76,"time":110.09981649999932,"velocity":0.6299212598425197,"duration":0.2699995499999943},{"name":"E5","midi":76,"time":111.29981449999931,"velocity":0.6299212598425197,"duration":0.13499977499999716},{"name":"E5","midi":76,"time":111.4498142499993,"velocity":0.6299212598425197,"duration":0.13499977499999716},{"name":"E5","midi":76,"time":111.5998139999993,"velocity":0.6299212598425197,"duration":0.13499977499999716},{"name":"E5","midi":76,"time":111.74981374999929,"velocity":0.6299212598425197,"duration":0.13499977499999716},{"name":"C#5","midi":73,"time":111.89981349999928,"velocity":0.6299212598425197,"duration":0.13499977499999716},{"name":"C#5","midi":73,"time":112.04981324999927,"velocity":0.6299212598425197,"duration":0.13499977499999716},{"name":"E5","midi":76,"time":112.19981299999927,"velocity":0.6299212598425197,"duration":0.2699995499999943},{"name":"F#5","midi":78,"time":112.49981249999927,"velocity":0.6299212598425197,"duration":0.2699995499999943},{"name":"E5","midi":76,"time":112.79981199999926,"velocity":0.6299212598425197,"duration":0.8987485020833361},{"name":"E5","midi":76,"time":113.69981049999927,"velocity":0.6299212598425197,"duration":0.13499977499999716},{"name":"E5","midi":76,"time":113.84981024999927,"velocity":0.6299212598425197,"duration":0.13499977499999716},{"name":"E5","midi":76,"time":113.99980999999926,"velocity":0.6299212598425197,"duration":0.13499977499999716},{"name":"E5","midi":76,"time":114.14980974999925,"velocity":0.6299212598425197,"duration":0.13499977499999716},{"name":"E5","midi":76,"time":114.29980949999924,"velocity":0.6299212598425197,"duration":0.13499977499999716},{"name":"E5","midi":76,"time":114.44980924999923,"velocity":0.6299212598425197,"duration":0.13499977499999716},{"name":"B5","midi":83,"time":114.59980899999923,"velocity":0.6299212598425197,"duration":0.2699995499999943},{"name":"E5","midi":76,"time":114.89980849999922,"velocity":0.6299212598425197,"duration":0.2699995499999943},{"name":"F#5","midi":78,"time":115.19980799999922,"velocity":0.6299212598425197,"duration":0.8987485020833361},{"name":"B4","midi":71,"time":116.09980649999923,"velocity":0.6299212598425197,"duration":0.2699995499999943},{"name":"B4","midi":71,"time":116.39980599999923,"velocity":0.6299212598425197,"duration":0.7487487520833298},{"name":"B4","midi":71,"time":117.14980474999923,"velocity":0.6299212598425197,"duration":0.13499977499999716},{"name":"B4","midi":71,"time":117.29980449999923,"velocity":0.6299212598425197,"duration":0.13499977499999716},{"name":"B4","midi":71,"time":117.44980424999922,"velocity":0.6299212598425197,"duration":0.13499977499999716},{"name":"B4","midi":71,"time":117.59980399999921,"velocity":0.6299212598425197,"duration":0.14874975208333296},{"name":"C#5","midi":73,"time":117.89980349999921,"velocity":0.6299212598425197,"duration":0.14874975208333296},{"name":"E5","midi":76,"time":118.1998029999992,"velocity":0.6299212598425197,"duration":0.14874975208333296},{"name":"C#5","midi":73,"time":118.1998029999992,"velocity":0.6299212598425197,"duration":0.14874975208333296},{"name":"F#5","midi":78,"time":118.4998024999992,"velocity":0.6299212598425197,"duration":0.14874975208333296},{"name":"C#5","midi":73,"time":118.4998024999992,"velocity":0.6299212598425197,"duration":0.14874975208333296},{"name":"G#5","midi":80,"time":118.7998019999992,"velocity":0.6299212598425197,"duration":0.5399991000000028},{"name":"C#5","midi":73,"time":118.7998019999992,"velocity":0.6299212598425197,"duration":0.5399991000000028},{"name":"E5","midi":76,"time":119.3998009999992,"velocity":0.6299212598425197,"duration":0.2699995499999943},{"name":"F#5","midi":78,"time":119.6998004999992,"velocity":0.6299212598425197,"duration":0.2699995499999943},{"name":"G#5","midi":80,"time":119.9997999999992,"velocity":0.6299212598425197,"duration":0.14874975208333296},{"name":"C#5","midi":73,"time":119.9997999999992,"velocity":0.6299212598425197,"duration":0.14874975208333296},{"name":"G#5","midi":80,"time":120.2997994999992,"velocity":0.6299212598425197,"duration":0.14874975208333296},{"name":"C#5","midi":73,"time":120.2997994999992,"velocity":0.6299212598425197,"duration":0.14874975208333296},{"name":"G#5","midi":80,"time":120.5997989999992,"velocity":0.6299212598425197,"duration":0.2699995499999943},{"name":"C#5","midi":73,"time":120.5997989999992,"velocity":0.6299212598425197,"duration":0.2699995499999943},{"name":"G#5","midi":80,"time":120.89979849999919,"velocity":0.6299212598425197,"duration":0.13499977499999716},{"name":"C#5","midi":73,"time":120.89979849999919,"velocity":0.6299212598425197,"duration":0.13499977499999716},{"name":"G#5","midi":80,"time":121.04979824999918,"velocity":0.6299212598425197,"duration":0.4487492520833314},{"name":"C#5","midi":73,"time":121.04979824999918,"velocity":0.6299212598425197,"duration":0.4487492520833314},{"name":"G#5","midi":80,"time":121.49979749999919,"velocity":0.6299212598425197,"duration":0.2699995499999943},{"name":"C#5","midi":73,"time":121.49979749999919,"velocity":0.6299212598425197,"duration":0.2699995499999943},{"name":"G#5","midi":80,"time":121.79979699999919,"velocity":0.6299212598425197,"duration":0.2699995499999943},{"name":"C#5","midi":73,"time":121.79979699999919,"velocity":0.6299212598425197,"duration":0.2699995499999943},{"name":"G#5","midi":80,"time":122.09979649999919,"velocity":0.6299212598425197,"duration":0.2699995499999943},{"name":"C#5","midi":73,"time":122.09979649999919,"velocity":0.6299212598425197,"duration":0.2699995499999943},{"name":"G#5","midi":80,"time":122.39979599999918,"velocity":0.6299212598425197,"duration":0.2699995499999943},{"name":"C#5","midi":73,"time":122.39979599999918,"velocity":0.6299212598425197,"duration":0.2699995499999943},{"name":"G#5","midi":80,"time":122.69979549999918,"velocity":0.6299212598425197,"duration":0.2699995499999943},{"name":"C#5","midi":73,"time":122.69979549999918,"velocity":0.6299212598425197,"duration":0.2699995499999943},{"name":"G#5","midi":80,"time":122.99979499999918,"velocity":0.6299212598425197,"duration":0.2699995499999943},{"name":"C#5","midi":73,"time":122.99979499999918,"velocity":0.6299212598425197,"duration":0.2699995499999943},{"name":"G#5","midi":80,"time":123.29979449999918,"velocity":0.6299212598425197,"duration":0.2699995499999943},{"name":"C#5","midi":73,"time":123.29979449999918,"velocity":0.6299212598425197,"duration":0.2699995499999943},{"name":"G#5","midi":80,"time":123.59979399999918,"velocity":0.6299212598425197,"duration":0.5399991000000028},{"name":"C#5","midi":73,"time":123.59979399999918,"velocity":0.6299212598425197,"duration":0.5399991000000028},{"name":"B5","midi":83,"time":124.19979299999918,"velocity":0.6299212598425197,"duration":0.2699995499999943},{"name":"B5","midi":83,"time":124.49979249999917,"velocity":0.6299212598425197,"duration":0.2699995499999943},{"name":"F#5","midi":78,"time":124.79979199999917,"velocity":0.6299212598425197,"duration":0.2699995499999943},{"name":"B4","midi":71,"time":124.79979199999917,"velocity":0.6299212598425197,"duration":0.2699995499999943},{"name":"F#5","midi":78,"time":125.09979149999917,"velocity":0.6299212598425197,"duration":0.2699995499999943},{"name":"B4","midi":71,"time":125.09979149999917,"velocity":0.6299212598425197,"duration":0.2699995499999943},{"name":"F#5","midi":78,"time":125.39979099999917,"velocity":0.6299212598425197,"duration":0.2699995499999943},{"name":"B4","midi":71,"time":125.39979099999917,"velocity":0.6299212598425197,"duration":0.2699995499999943},{"name":"F#5","midi":78,"time":125.69979049999917,"velocity":0.6299212598425197,"duration":0.13499977499999716},{"name":"B4","midi":71,"time":125.69979049999917,"velocity":0.6299212598425197,"duration":0.13499977499999716},{"name":"F#5","midi":78,"time":125.84979024999916,"velocity":0.6299212598425197,"duration":0.4487492520833314},{"name":"B4","midi":71,"time":125.84979024999916,"velocity":0.6299212598425197,"duration":0.4487492520833314},{"name":"F#5","midi":78,"time":126.29978949999916,"velocity":0.6299212598425197,"duration":0.2699995499999943},{"name":"B4","midi":71,"time":126.29978949999916,"velocity":0.6299212598425197,"duration":0.2699995499999943},{"name":"F#5","midi":78,"time":126.59978899999916,"velocity":0.6299212598425197,"duration":0.2699995499999943},{"name":"B4","midi":71,"time":126.59978899999916,"velocity":0.6299212598425197,"duration":0.2699995499999943},{"name":"F#5","midi":78,"time":126.89978849999916,"velocity":0.6299212598425197,"duration":0.2699995499999943},{"name":"B4","midi":71,"time":126.89978849999916,"velocity":0.6299212598425197,"duration":0.2699995499999943},{"name":"B4","midi":71,"time":127.19978799999916,"velocity":0.6299212598425197,"duration":0.2699995499999943},{"name":"C#5","midi":73,"time":127.49978749999916,"velocity":0.6299212598425197,"duration":0.2699995499999943},{"name":"E5","midi":76,"time":127.79978699999916,"velocity":0.6299212598425197,"duration":0.2699995499999943},{"name":"B4","midi":71,"time":127.79978699999916,"velocity":0.6299212598425197,"duration":0.2699995499999943},{"name":"F#5","midi":78,"time":128.09978649999914,"velocity":0.6299212598425197,"duration":0.2699995499999943},{"name":"B4","midi":71,"time":128.09978649999914,"velocity":0.6299212598425197,"duration":0.2699995499999943},{"name":"E5","midi":76,"time":128.39978599999912,"velocity":0.6299212598425197,"duration":0.5399990999999886},{"name":"B4","midi":71,"time":128.39978599999912,"velocity":0.6299212598425197,"duration":0.5399990999999886},{"name":"E5","midi":76,"time":128.99978499999912,"velocity":0.6299212598425197,"duration":0.2699995499999943},{"name":"F#5","midi":78,"time":129.2997844999991,"velocity":0.6299212598425197,"duration":0.2699995499999943},{"name":"G#5","midi":80,"time":129.5997839999991,"velocity":0.6299212598425197,"duration":0.14874975208334718},{"name":"C#5","midi":73,"time":129.5997839999991,"velocity":0.6299212598425197,"duration":0.14874975208334718},{"name":"G#5","midi":80,"time":129.8997834999991,"velocity":0.6299212598425197,"duration":0.14874975208334718},{"name":"C#5","midi":73,"time":129.8997834999991,"velocity":0.6299212598425197,"duration":0.14874975208334718},{"name":"G#5","midi":80,"time":130.19978299999912,"velocity":0.6299212598425197,"duration":0.2699995499999943},{"name":"C#5","midi":73,"time":130.19978299999912,"velocity":0.6299212598425197,"duration":0.2699995499999943},{"name":"G#5","midi":80,"time":130.4997824999991,"velocity":0.6299212598425197,"duration":0.13499977500001137},{"name":"C#5","midi":73,"time":130.4997824999991,"velocity":0.6299212598425197,"duration":0.13499977500001137},{"name":"G#5","midi":80,"time":130.6497822499991,"velocity":0.6299212598425197,"duration":0.4487492520833314},{"name":"C#5","midi":73,"time":130.6497822499991,"velocity":0.6299212598425197,"duration":0.4487492520833314},{"name":"G#5","midi":80,"time":131.0997814999991,"velocity":0.6299212598425197,"duration":0.2699995499999943},{"name":"C#5","midi":73,"time":131.0997814999991,"velocity":0.6299212598425197,"duration":0.2699995499999943},{"name":"G#5","midi":80,"time":131.39978099999908,"velocity":0.6299212598425197,"duration":0.2699995499999943},{"name":"C#5","midi":73,"time":131.39978099999908,"velocity":0.6299212598425197,"duration":0.2699995499999943},{"name":"G#5","midi":80,"time":131.69978049999906,"velocity":0.6299212598425197,"duration":0.2699995499999943},{"name":"C#5","midi":73,"time":131.69978049999906,"velocity":0.6299212598425197,"duration":0.2699995499999943},{"name":"G#5","midi":80,"time":131.99977999999905,"velocity":0.6299212598425197,"duration":0.2699995499999943},{"name":"C#5","midi":73,"time":131.99977999999905,"velocity":0.6299212598425197,"duration":0.2699995499999943},{"name":"G#5","midi":80,"time":132.29977949999903,"velocity":0.6299212598425197,"duration":0.2699995499999943},{"name":"C#5","midi":73,"time":132.29977949999903,"velocity":0.6299212598425197,"duration":0.2699995499999943},{"name":"G#5","midi":80,"time":132.59977899999902,"velocity":0.6299212598425197,"duration":0.2699995499999943},{"name":"C#5","midi":73,"time":132.59977899999902,"velocity":0.6299212598425197,"duration":0.2699995499999943},{"name":"G#5","midi":80,"time":132.899778499999,"velocity":0.6299212598425197,"duration":0.2699995499999943},{"name":"C#5","midi":73,"time":132.899778499999,"velocity":0.6299212598425197,"duration":0.2699995499999943},{"name":"G#5","midi":80,"time":133.199777999999,"velocity":0.6299212598425197,"duration":0.4487492520833314},{"name":"C#5","midi":73,"time":133.199777999999,"velocity":0.6299212598425197,"duration":0.2699995499999943},{"name":"E5","midi":76,"time":133.64977724999898,"velocity":0.6299212598425197,"duration":0.13499977500001137},{"name":"E5","midi":76,"time":133.79977699999898,"velocity":0.6299212598425197,"duration":0.2699995499999943},{"name":"C#6","midi":85,"time":134.09977649999897,"velocity":0.6299212598425197,"duration":0.2699995499999943},{"name":"B5","midi":83,"time":134.39977599999895,"velocity":0.6299212598425197,"duration":0.4487492520833314},{"name":"G#5","midi":80,"time":134.84977524999894,"velocity":0.6299212598425197,"duration":0.4487492520833314},{"name":"F#5","midi":78,"time":135.29977449999893,"velocity":0.6299212598425197,"duration":0.2699995499999943},{"name":"G#5","midi":80,"time":135.59977399999892,"velocity":0.6299212598425197,"duration":0.4487492520833314},{"name":"E5","midi":76,"time":136.0497732499989,"velocity":0.6299212598425197,"duration":0.13499977500001137},{"name":"E5","midi":76,"time":136.1997729999989,"velocity":0.6299212598425197,"duration":0.2699995499999943},{"name":"C#6","midi":85,"time":136.4997724999989,"velocity":0.6299212598425197,"duration":0.2699995499999943},{"name":"B5","midi":83,"time":136.79977199999888,"velocity":0.6299212598425197,"duration":0.4487492520833314},{"name":"G#5","midi":80,"time":137.24977124999887,"velocity":0.6299212598425197,"duration":0.4487492520833314},{"name":"F#5","midi":78,"time":137.69977049999886,"velocity":0.6299212598425197,"duration":0.2699995499999943},{"name":"G#5","midi":80,"time":137.99976999999885,"velocity":0.6299212598425197,"duration":0.14874975208334718},{"name":"C#5","midi":73,"time":137.99976999999885,"velocity":0.6299212598425197,"duration":0.14874975208334718},{"name":"A5","midi":81,"time":138.29976949999886,"velocity":0.6299212598425197,"duration":0.14874975208334718},{"name":"C#5","midi":73,"time":138.29976949999886,"velocity":0.6299212598425197,"duration":0.14874975208334718},{"name":"G#5","midi":80,"time":138.59976899999887,"velocity":0.6299212598425197,"duration":0.29874950208332507},{"name":"C#5","midi":73,"time":138.59976899999887,"velocity":0.6299212598425197,"duration":0.29874950208332507},{"name":"E5","midi":76,"time":140.09976649999885,"velocity":0.6299212598425197,"duration":0.13499977500001137},{"name":"E5","midi":76,"time":140.24976624999886,"velocity":0.6299212598425197,"duration":0.13499977500001137},{"name":"E5","midi":76,"time":140.39976599999886,"velocity":0.6299212598425197,"duration":0.2699995499999943},{"name":"E5","midi":76,"time":140.69976549999885,"velocity":0.6299212598425197,"duration":0.2699995499999943},{"name":"B4","midi":71,"time":140.99976499999883,"velocity":0.6299212598425197,"duration":0.2699995499999943},{"name":"E5","midi":76,"time":141.29976449999882,"velocity":0.6299212598425197,"duration":0.5987490020833377},{"name":"C#5","midi":73,"time":141.8997634999988,"velocity":0.6299212598425197,"duration":0.5399990999999886},{"name":"E5","midi":76,"time":142.4997624999988,"velocity":0.6299212598425197,"duration":0.13499977500001137},{"name":"E5","midi":76,"time":142.64976224999882,"velocity":0.6299212598425197,"duration":0.13499977500001137},{"name":"E5","midi":76,"time":142.79976199999882,"velocity":0.6299212598425197,"duration":0.2699995499999943},{"name":"E5","midi":76,"time":143.0997614999988,"velocity":0.6299212598425197,"duration":0.2699995499999943},{"name":"E5","midi":76,"time":143.3997609999988,"velocity":0.6299212598425197,"duration":0.2699995499999943},{"name":"F#5","midi":78,"time":143.69976049999877,"velocity":0.6299212598425197,"duration":0.5987490020833377},{"name":"E5","midi":76,"time":144.29975949999877,"velocity":0.6299212598425197,"duration":0.2699995499999943},{"name":"D#5","midi":75,"time":144.59975899999876,"velocity":0.6299212598425197,"duration":0.2699995499999943},{"name":"B4","midi":71,"time":144.89975849999874,"velocity":0.6299212598425197,"duration":1.1099981499999956},{"name":"B5","midi":83,"time":146.09975649999873,"velocity":0.6299212598425197,"duration":0.2699995499999943},{"name":"F#5","midi":78,"time":146.39975599999872,"velocity":0.6299212598425197,"duration":0.22499962500000947},{"name":"B4","midi":71,"time":146.39975599999872,"velocity":0.6299212598425197,"duration":0.22499962500000947},{"name":"E5","midi":76,"time":146.84975524999874,"velocity":0.6299212598425197,"duration":0.07499987500000316},{"name":"B4","midi":71,"time":146.84975524999874,"velocity":0.6299212598425197,"duration":0.07499987500000316},{"name":"B5","midi":83,"time":147.29975449999873,"velocity":0.6299212598425197,"duration":0.14874975208334718},{"name":"B4","midi":71,"time":147.29975449999873,"velocity":0.6299212598425197,"duration":0.14874975208334718},{"name":"F#5","midi":78,"time":147.59975399999874,"velocity":0.6299212598425197,"duration":0.22499962500000947},{"name":"B4","midi":71,"time":147.59975399999874,"velocity":0.6299212598425197,"duration":0.22499962500000947},{"name":"E5","midi":76,"time":148.04975324999876,"velocity":0.6299212598425197,"duration":0.07499987500000316},{"name":"B4","midi":71,"time":148.04975324999876,"velocity":0.6299212598425197,"duration":0.07499987500000316},{"name":"F#5","midi":78,"time":148.49975249999875,"velocity":0.6299212598425197,"duration":0.14874975208334718},{"name":"B4","midi":71,"time":148.49975249999875,"velocity":0.6299212598425197,"duration":0.14874975208334718},{"name":"E5","midi":76,"time":148.79975199999876,"velocity":0.6299212598425197,"duration":0.2699995499999943},{"name":"G#5","midi":80,"time":149.09975149999875,"velocity":0.6299212598425197,"duration":0.2699995499999943},{"name":"E5","midi":76,"time":149.39975099999873,"velocity":0.6299212598425197,"duration":0.2699995499999943},{"name":"F#5","midi":78,"time":149.69975049999871,"velocity":0.6299212598425197,"duration":0.2699995499999943},{"name":"C#5","midi":73,"time":149.9997499999987,"velocity":0.6299212598425197,"duration":0.2699995499999943},{"name":"E5","midi":76,"time":150.29974949999868,"velocity":0.6299212598425197,"duration":0.2699995499999943},{"name":"C#5","midi":73,"time":150.59974899999867,"velocity":0.6299212598425197,"duration":0.2699995499999943},{"name":"E5","midi":76,"time":150.89974849999865,"velocity":0.6299212598425197,"duration":0.2699995499999943},{"name":"G#5","midi":80,"time":151.49974749999865,"velocity":0.6299212598425197,"duration":0.13499977500001137},{"name":"G#5","midi":80,"time":151.64974724999865,"velocity":0.6299212598425197,"duration":0.13499977500001137},{"name":"E5","midi":76,"time":151.79974699999866,"velocity":0.6299212598425197,"duration":0.2699995499999943},{"name":"F#5","midi":78,"time":152.09974649999864,"velocity":0.6299212598425197,"duration":0.2699995499999943},{"name":"C#5","midi":73,"time":152.39974599999863,"velocity":0.6299212598425197,"duration":0.2699995499999943},{"name":"E5","midi":76,"time":152.6997454999986,"velocity":0.6299212598425197,"duration":0.2699995499999943},{"name":"C#5","midi":73,"time":152.9997449999986,"velocity":0.6299212598425197,"duration":0.2699995499999943},{"name":"E5","midi":76,"time":153.29974449999858,"velocity":0.6299212598425197,"duration":0.2699995499999943},{"name":"G#5","midi":80,"time":153.89974349999858,"velocity":0.6299212598425197,"duration":0.13499977500001137},{"name":"B4","midi":71,"time":153.89974349999858,"velocity":0.6299212598425197,"duration":0.13499977500001137},{"name":"G#5","midi":80,"time":154.04974324999858,"velocity":0.6299212598425197,"duration":0.13499977500001137},{"name":"B4","midi":71,"time":154.04974324999858,"velocity":0.6299212598425197,"duration":0.13499977500001137},{"name":"G#5","midi":80,"time":154.1997429999986,"velocity":0.6299212598425197,"duration":0.2699995499999943},{"name":"B4","midi":71,"time":154.1997429999986,"velocity":0.6299212598425197,"duration":0.2699995499999943},{"name":"F#5","midi":78,"time":154.49974249999858,"velocity":0.6299212598425197,"duration":0.13499977500001137},{"name":"B4","midi":71,"time":154.49974249999858,"velocity":0.6299212598425197,"duration":0.13499977500001137},{"name":"F#5","midi":78,"time":154.64974224999858,"velocity":0.6299212598425197,"duration":0.4487492520833314},{"name":"B4","midi":71,"time":154.64974224999858,"velocity":0.6299212598425197,"duration":0.4487492520833314},{"name":"E5","midi":76,"time":155.09974149999857,"velocity":0.6299212598425197,"duration":0.2699995499999943},{"name":"B4","midi":71,"time":155.09974149999857,"velocity":0.6299212598425197,"duration":0.2699995499999943},{"name":"E5","midi":76,"time":155.39974099999856,"velocity":0.6299212598425197,"duration":0.2699995499999943},{"name":"B4","midi":71,"time":155.39974099999856,"velocity":0.6299212598425197,"duration":0.2699995499999943},{"name":"C#5","midi":73,"time":155.69974049999854,"velocity":0.6299212598425197,"duration":0.13499977500001137},{"name":"B4","midi":71,"time":155.84974024999855,"velocity":0.6299212598425197,"duration":0.13499977500001137},{"name":"B4","midi":71,"time":155.99973999999855,"velocity":0.6299212598425197,"duration":0.2699995499999943},{"name":"C#5","midi":73,"time":156.29973949999854,"velocity":0.6299212598425197,"duration":0.2699995499999943},{"name":"E5","midi":76,"time":156.59973899999852,"velocity":0.6299212598425197,"duration":0.2699995499999943},{"name":"C#5","midi":73,"time":156.59973899999852,"velocity":0.6299212598425197,"duration":0.2699995499999943},{"name":"F#5","midi":78,"time":156.8997384999985,"velocity":0.6299212598425197,"duration":0.2699995499999943},{"name":"C#5","midi":73,"time":156.8997384999985,"velocity":0.6299212598425197,"duration":0.2699995499999943},{"name":"G#5","midi":80,"time":157.1997379999985,"velocity":0.6299212598425197,"duration":0.5399990999999886},{"name":"C#5","midi":73,"time":157.1997379999985,"velocity":0.6299212598425197,"duration":0.5399990999999886},{"name":"E5","midi":76,"time":157.7997369999985,"velocity":0.6299212598425197,"duration":0.2699995499999943},{"name":"C#5","midi":73,"time":157.7997369999985,"velocity":0.6299212598425197,"duration":0.2699995499999943},{"name":"F#5","midi":78,"time":158.09973649999847,"velocity":0.6299212598425197,"duration":0.2699995499999943},{"name":"C#5","midi":73,"time":158.09973649999847,"velocity":0.6299212598425197,"duration":0.2699995499999943},{"name":"G#5","midi":80,"time":158.39973599999846,"velocity":0.6299212598425197,"duration":0.2699995499999943},{"name":"C#5","midi":73,"time":158.39973599999846,"velocity":0.6299212598425197,"duration":0.2699995499999943},{"name":"G#5","midi":80,"time":158.69973549999844,"velocity":0.6299212598425197,"duration":0.2699995499999943},{"name":"C#5","midi":73,"time":158.69973549999844,"velocity":0.6299212598425197,"duration":0.2699995499999943},{"name":"G#5","midi":80,"time":158.99973499999842,"velocity":0.6299212598425197,"duration":0.2699995499999943},{"name":"C#5","midi":73,"time":158.99973499999842,"velocity":0.6299212598425197,"duration":0.2699995499999943},{"name":"G#5","midi":80,"time":159.2997344999984,"velocity":0.6299212598425197,"duration":0.13499977500001137},{"name":"C#5","midi":73,"time":159.2997344999984,"velocity":0.6299212598425197,"duration":0.13499977500001137},{"name":"G#5","midi":80,"time":159.44973424999841,"velocity":0.6299212598425197,"duration":0.4487492520833314},{"name":"C#5","midi":73,"time":159.44973424999841,"velocity":0.6299212598425197,"duration":0.4487492520833314},{"name":"G#5","midi":80,"time":159.8997334999984,"velocity":0.6299212598425197,"duration":0.2699995499999943},{"name":"C#5","midi":73,"time":159.8997334999984,"velocity":0.6299212598425197,"duration":0.2699995499999943},{"name":"G#5","midi":80,"time":160.1997329999984,"velocity":0.6299212598425197,"duration":0.2699995499999943},{"name":"C#5","midi":73,"time":160.1997329999984,"velocity":0.6299212598425197,"duration":0.2699995499999943},{"name":"G#5","midi":80,"time":160.49973249999837,"velocity":0.6299212598425197,"duration":0.2699995499999943},{"name":"C#5","midi":73,"time":160.49973249999837,"velocity":0.6299212598425197,"duration":0.2699995499999943},{"name":"G#5","midi":80,"time":160.79973199999836,"velocity":0.6299212598425197,"duration":0.2699995499999943},{"name":"C#5","midi":73,"time":160.79973199999836,"velocity":0.6299212598425197,"duration":0.2699995499999943},{"name":"G#5","midi":80,"time":161.09973149999834,"velocity":0.6299212598425197,"duration":0.2699995499999943},{"name":"C#5","midi":73,"time":161.09973149999834,"velocity":0.6299212598425197,"duration":0.2699995499999943},{"name":"G#5","midi":80,"time":161.39973099999833,"velocity":0.6299212598425197,"duration":0.2699995499999943},{"name":"C#5","midi":73,"time":161.39973099999833,"velocity":0.6299212598425197,"duration":0.2699995499999943},{"name":"G#5","midi":80,"time":161.6997304999983,"velocity":0.6299212598425197,"duration":0.2699995499999943},{"name":"C#5","midi":73,"time":161.6997304999983,"velocity":0.6299212598425197,"duration":0.2699995499999943},{"name":"G#5","midi":80,"time":161.9997299999983,"velocity":0.6299212598425197,"duration":0.5399990999999886},{"name":"C#5","midi":73,"time":161.9997299999983,"velocity":0.6299212598425197,"duration":0.5399990999999886},{"name":"B5","midi":83,"time":162.5997289999983,"velocity":0.6299212598425197,"duration":0.2699995499999943},{"name":"B5","midi":83,"time":162.89972849999828,"velocity":0.6299212598425197,"duration":0.2699995499999943},{"name":"F#5","midi":78,"time":163.19972799999826,"velocity":0.6299212598425197,"duration":0.2699995499999943},{"name":"B4","midi":71,"time":163.19972799999826,"velocity":0.6299212598425197,"duration":0.2699995499999943},{"name":"F#5","midi":78,"time":163.49972749999824,"velocity":0.6299212598425197,"duration":0.2699995499999943},{"name":"B4","midi":71,"time":163.49972749999824,"velocity":0.6299212598425197,"duration":0.2699995499999943},{"name":"F#5","midi":78,"time":163.79972699999823,"velocity":0.6299212598425197,"duration":0.2699995499999943},{"name":"B4","midi":71,"time":163.79972699999823,"velocity":0.6299212598425197,"duration":0.2699995499999943},{"name":"F#5","midi":78,"time":164.0997264999982,"velocity":0.6299212598425197,"duration":0.13499977500001137},{"name":"B4","midi":71,"time":164.0997264999982,"velocity":0.6299212598425197,"duration":0.13499977500001137},{"name":"F#5","midi":78,"time":164.24972624999822,"velocity":0.6299212598425197,"duration":0.4487492520833314},{"name":"B4","midi":71,"time":164.24972624999822,"velocity":0.6299212598425197,"duration":0.4487492520833314},{"name":"F#5","midi":78,"time":164.6997254999982,"velocity":0.6299212598425197,"duration":0.2699995499999943},{"name":"B4","midi":71,"time":164.6997254999982,"velocity":0.6299212598425197,"duration":0.2699995499999943},{"name":"F#5","midi":78,"time":164.9997249999982,"velocity":0.6299212598425197,"duration":0.2699995499999943},{"name":"B4","midi":71,"time":164.9997249999982,"velocity":0.6299212598425197,"duration":0.2699995499999943},{"name":"F#5","midi":78,"time":165.29972449999818,"velocity":0.6299212598425197,"duration":0.2699995499999943},{"name":"B4","midi":71,"time":165.29972449999818,"velocity":0.6299212598425197,"duration":0.2699995499999943},{"name":"B4","midi":71,"time":165.59972399999816,"velocity":0.6299212598425197,"duration":0.2699995499999943},{"name":"C#5","midi":73,"time":165.89972349999815,"velocity":0.6299212598425197,"duration":0.2699995499999943},{"name":"E5","midi":76,"time":166.19972299999813,"velocity":0.6299212598425197,"duration":0.2699995499999943},{"name":"C#5","midi":73,"time":166.19972299999813,"velocity":0.6299212598425197,"duration":0.2699995499999943},{"name":"F#5","midi":78,"time":166.49972249999811,"velocity":0.6299212598425197,"duration":0.2699995499999943},{"name":"C#5","midi":73,"time":166.49972249999811,"velocity":0.6299212598425197,"duration":0.2699995499999943},{"name":"E5","midi":76,"time":166.7997219999981,"velocity":0.6299212598425197,"duration":0.5399990999999886},{"name":"C#5","midi":73,"time":166.7997219999981,"velocity":0.6299212598425197,"duration":0.5399990999999886},{"name":"E5","midi":76,"time":167.3997209999981,"velocity":0.6299212598425197,"duration":0.2699995499999943},{"name":"F#5","midi":78,"time":167.69972049999808,"velocity":0.6299212598425197,"duration":0.2699995499999943},{"name":"G#5","midi":80,"time":167.99971999999806,"velocity":0.6299212598425197,"duration":0.2699995499999943},{"name":"C#5","midi":73,"time":167.99971999999806,"velocity":0.6299212598425197,"duration":0.2699995499999943},{"name":"G#5","midi":80,"time":168.29971949999805,"velocity":0.6299212598425197,"duration":0.2699995499999943},{"name":"C#5","midi":73,"time":168.29971949999805,"velocity":0.6299212598425197,"duration":0.2699995499999943},{"name":"G#5","midi":80,"time":168.59971899999803,"velocity":0.6299212598425197,"duration":0.2699995499999943},{"name":"C#5","midi":73,"time":168.59971899999803,"velocity":0.6299212598425197,"duration":0.2699995499999943},{"name":"G#5","midi":80,"time":168.89971849999802,"velocity":0.6299212598425197,"duration":0.13499977500001137},{"name":"C#5","midi":73,"time":168.89971849999802,"velocity":0.6299212598425197,"duration":0.13499977500001137},{"name":"G#5","midi":80,"time":169.04971824999802,"velocity":0.6299212598425197,"duration":0.4487492520833314},{"name":"C#5","midi":73,"time":169.04971824999802,"velocity":0.6299212598425197,"duration":0.4487492520833314},{"name":"G#5","midi":80,"time":169.499717499998,"velocity":0.6299212598425197,"duration":0.2699995499999943},{"name":"C#5","midi":73,"time":169.499717499998,"velocity":0.6299212598425197,"duration":0.2699995499999943},{"name":"G#5","midi":80,"time":169.799716999998,"velocity":0.6299212598425197,"duration":0.2699995499999943},{"name":"C#5","midi":73,"time":169.799716999998,"velocity":0.6299212598425197,"duration":0.2699995499999943},{"name":"G#5","midi":80,"time":170.09971649999798,"velocity":0.6299212598425197,"duration":0.2699995499999943},{"name":"C#5","midi":73,"time":170.09971649999798,"velocity":0.6299212598425197,"duration":0.2699995499999943},{"name":"G#5","midi":80,"time":170.39971599999797,"velocity":0.6299212598425197,"duration":0.2699995499999943},{"name":"C#5","midi":73,"time":170.39971599999797,"velocity":0.6299212598425197,"duration":0.2699995499999943},{"name":"G#5","midi":80,"time":170.69971549999795,"velocity":0.6299212598425197,"duration":0.2699995499999943},{"name":"C#5","midi":73,"time":170.69971549999795,"velocity":0.6299212598425197,"duration":0.2699995499999943},{"name":"G#5","midi":80,"time":170.99971499999793,"velocity":0.6299212598425197,"duration":0.2699995499999943},{"name":"C#5","midi":73,"time":170.99971499999793,"velocity":0.6299212598425197,"duration":0.2699995499999943},{"name":"G#5","midi":80,"time":171.29971449999792,"velocity":0.6299212598425197,"duration":0.2699995499999943},{"name":"C#5","midi":73,"time":171.29971449999792,"velocity":0.6299212598425197,"duration":0.2699995499999943},{"name":"G#5","midi":80,"time":171.5997139999979,"velocity":0.6299212598425197,"duration":0.4487492520833314},{"name":"C#5","midi":73,"time":171.5997139999979,"velocity":0.6299212598425197,"duration":0.2699995499999943},{"name":"E5","midi":76,"time":172.0497132499979,"velocity":0.6299212598425197,"duration":0.13499977500001137},{"name":"E5","midi":76,"time":172.1997129999979,"velocity":0.6299212598425197,"duration":0.2699995499999943},{"name":"C#6","midi":85,"time":172.49971249999788,"velocity":0.6299212598425197,"duration":0.2699995499999943},{"name":"B5","midi":83,"time":172.79971199999787,"velocity":0.6299212598425197,"duration":0.4487492520833314},{"name":"G#5","midi":80,"time":173.24971124999786,"velocity":0.6299212598425197,"duration":0.4487492520833314},{"name":"F#5","midi":78,"time":173.69971049999785,"velocity":0.6299212598425197,"duration":0.2699995499999943},{"name":"G#5","midi":80,"time":173.99970999999783,"velocity":0.6299212598425197,"duration":0.4487492520833314},{"name":"E5","midi":76,"time":174.44970924999782,"velocity":0.6299212598425197,"duration":0.13499977500001137},{"name":"E5","midi":76,"time":174.59970899999783,"velocity":0.6299212598425197,"duration":0.2699995499999943},{"name":"C#6","midi":85,"time":174.89970849999781,"velocity":0.6299212598425197,"duration":0.2699995499999943},{"name":"B5","midi":83,"time":175.1997079999978,"velocity":0.6299212598425197,"duration":0.4487492520833314},{"name":"G#5","midi":80,"time":175.6497072499978,"velocity":0.6299212598425197,"duration":0.4487492520833314},{"name":"F#5","midi":78,"time":176.09970649999778,"velocity":0.6299212598425197,"duration":0.2699995499999943},{"name":"G#5","midi":80,"time":176.39970599999776,"velocity":0.6299212598425197,"duration":0.5399990999999886},{"name":"E5","midi":76,"time":176.99970499999776,"velocity":0.6299212598425197,"duration":0.2699995499999943},{"name":"F#5","midi":78,"time":177.29970449999774,"velocity":0.6299212598425197,"duration":0.2699995499999943},{"name":"G#5","midi":80,"time":177.59970399999773,"velocity":0.6299212598425197,"duration":0.14874975208334718},{"name":"C#5","midi":73,"time":177.59970399999773,"velocity":0.6299212598425197,"duration":0.14874975208334718},{"name":"G#5","midi":80,"time":177.89970349999774,"velocity":0.6299212598425197,"duration":0.14874975208334718},{"name":"C#5","midi":73,"time":177.89970349999774,"velocity":0.6299212598425197,"duration":0.14874975208334718},{"name":"G#5","midi":80,"time":178.19970299999775,"velocity":0.6299212598425197,"duration":0.2699995499999943},{"name":"C#5","midi":73,"time":178.19970299999775,"velocity":0.6299212598425197,"duration":0.2699995499999943},{"name":"G#5","midi":80,"time":178.49970249999774,"velocity":0.6299212598425197,"duration":0.13499977500001137},{"name":"C#5","midi":73,"time":178.49970249999774,"velocity":0.6299212598425197,"duration":0.13499977500001137},{"name":"G#5","midi":80,"time":178.64970224999774,"velocity":0.6299212598425197,"duration":0.4487492520833314},{"name":"C#5","midi":73,"time":178.64970224999774,"velocity":0.6299212598425197,"duration":0.4487492520833314},{"name":"G#5","midi":80,"time":179.09970149999774,"velocity":0.6299212598425197,"duration":0.2699995499999943},{"name":"C#5","midi":73,"time":179.09970149999774,"velocity":0.6299212598425197,"duration":0.2699995499999943},{"name":"G#5","midi":80,"time":179.39970099999772,"velocity":0.6299212598425197,"duration":0.2699995499999943},{"name":"C#5","midi":73,"time":179.39970099999772,"velocity":0.6299212598425197,"duration":0.2699995499999943},{"name":"G#5","midi":80,"time":179.6997004999977,"velocity":0.6299212598425197,"duration":0.2699995499999943},{"name":"C#5","midi":73,"time":179.6997004999977,"velocity":0.6299212598425197,"duration":0.2699995499999943},{"name":"G#5","midi":80,"time":179.9996999999977,"velocity":0.6299212598425197,"duration":0.2699995499999943},{"name":"C#5","midi":73,"time":179.9996999999977,"velocity":0.6299212598425197,"duration":0.2699995499999943},{"name":"G#5","midi":80,"time":180.29969949999767,"velocity":0.6299212598425197,"duration":0.2699995499999943},{"name":"C#5","midi":73,"time":180.29969949999767,"velocity":0.6299212598425197,"duration":0.2699995499999943},{"name":"G#5","midi":80,"time":180.59969899999766,"velocity":0.6299212598425197,"duration":0.2699995499999943},{"name":"C#5","midi":73,"time":180.59969899999766,"velocity":0.6299212598425197,"duration":0.2699995499999943},{"name":"G#5","midi":80,"time":180.89969849999764,"velocity":0.6299212598425197,"duration":0.2699995499999943},{"name":"C#5","midi":73,"time":180.89969849999764,"velocity":0.6299212598425197,"duration":0.2699995499999943},{"name":"G#5","midi":80,"time":181.19969799999762,"velocity":0.6299212598425197,"duration":0.5399990999999886},{"name":"C#5","midi":73,"time":181.19969799999762,"velocity":0.6299212598425197,"duration":0.5399990999999886},{"name":"B5","midi":83,"time":181.79969699999762,"velocity":0.6299212598425197,"duration":0.2699995499999943},{"name":"B5","midi":83,"time":182.0996964999976,"velocity":0.6299212598425197,"duration":0.2699995499999943},{"name":"F#5","midi":78,"time":182.3996959999976,"velocity":0.6299212598425197,"duration":0.2699995499999943},{"name":"B4","midi":71,"time":182.3996959999976,"velocity":0.6299212598425197,"duration":0.2699995499999943},{"name":"F#5","midi":78,"time":182.69969549999757,"velocity":0.6299212598425197,"duration":0.2699995499999943},{"name":"B4","midi":71,"time":182.69969549999757,"velocity":0.6299212598425197,"duration":0.2699995499999943},{"name":"F#5","midi":78,"time":182.99969499999756,"velocity":0.6299212598425197,"duration":0.2699995499999943},{"name":"B4","midi":71,"time":182.99969499999756,"velocity":0.6299212598425197,"duration":0.2699995499999943},{"name":"F#5","midi":78,"time":183.29969449999754,"velocity":0.6299212598425197,"duration":0.13499977500001137},{"name":"B4","midi":71,"time":183.29969449999754,"velocity":0.6299212598425197,"duration":0.13499977500001137},{"name":"F#5","midi":78,"time":183.44969424999755,"velocity":0.6299212598425197,"duration":0.4487492520833314},{"name":"B4","midi":71,"time":183.44969424999755,"velocity":0.6299212598425197,"duration":0.4487492520833314},{"name":"F#5","midi":78,"time":183.89969349999754,"velocity":0.6299212598425197,"duration":0.2699995499999943},{"name":"B4","midi":71,"time":183.89969349999754,"velocity":0.6299212598425197,"duration":0.2699995499999943},{"name":"F#5","midi":78,"time":184.19969299999752,"velocity":0.6299212598425197,"duration":0.2699995499999943},{"name":"B4","midi":71,"time":184.19969299999752,"velocity":0.6299212598425197,"duration":0.2699995499999943},{"name":"F#5","midi":78,"time":184.4996924999975,"velocity":0.6299212598425197,"duration":0.2699995499999943},{"name":"B4","midi":71,"time":184.4996924999975,"velocity":0.6299212598425197,"duration":0.2699995499999943},{"name":"B4","midi":71,"time":184.7996919999975,"velocity":0.6299212598425197,"duration":0.2699995499999943},{"name":"C#5","midi":73,"time":185.09969149999748,"velocity":0.6299212598425197,"duration":0.2699995499999943},{"name":"E5","midi":76,"time":185.39969099999746,"velocity":0.6299212598425197,"duration":0.2699995499999943},{"name":"B4","midi":71,"time":185.39969099999746,"velocity":0.6299212598425197,"duration":0.2699995499999943},{"name":"F#5","midi":78,"time":185.69969049999744,"velocity":0.6299212598425197,"duration":0.2699995499999943},{"name":"B4","midi":71,"time":185.69969049999744,"velocity":0.6299212598425197,"duration":0.2699995499999943},{"name":"E5","midi":76,"time":185.99968999999743,"velocity":0.6299212598425197,"duration":0.5399990999999886},{"name":"B4","midi":71,"time":185.99968999999743,"velocity":0.6299212598425197,"duration":0.5399990999999886},{"name":"E5","midi":76,"time":186.59968899999743,"velocity":0.6299212598425197,"duration":0.2699995499999943},{"name":"F#5","midi":78,"time":186.8996884999974,"velocity":0.6299212598425197,"duration":0.2699995499999943},{"name":"G#5","midi":80,"time":187.1996879999974,"velocity":0.6299212598425197,"duration":0.14874975208334718},{"name":"C#5","midi":73,"time":187.1996879999974,"velocity":0.6299212598425197,"duration":0.14874975208334718},{"name":"G#5","midi":80,"time":187.4996874999974,"velocity":0.6299212598425197,"duration":0.14874975208334718},{"name":"C#5","midi":73,"time":187.4996874999974,"velocity":0.6299212598425197,"duration":0.14874975208334718},{"name":"G#5","midi":80,"time":187.79968699999742,"velocity":0.6299212598425197,"duration":0.2699995499999943},{"name":"C#5","midi":73,"time":187.79968699999742,"velocity":0.6299212598425197,"duration":0.2699995499999943},{"name":"G#5","midi":80,"time":188.0996864999974,"velocity":0.6299212598425197,"duration":0.13499977500001137},{"name":"C#5","midi":73,"time":188.0996864999974,"velocity":0.6299212598425197,"duration":0.13499977500001137},{"name":"G#5","midi":80,"time":188.2496862499974,"velocity":0.6299212598425197,"duration":0.4487492520833314},{"name":"C#5","midi":73,"time":188.2496862499974,"velocity":0.6299212598425197,"duration":0.4487492520833314},{"name":"G#5","midi":80,"time":188.6996854999974,"velocity":0.6299212598425197,"duration":0.2699995499999943},{"name":"C#5","midi":73,"time":188.6996854999974,"velocity":0.6299212598425197,"duration":0.2699995499999943},{"name":"G#5","midi":80,"time":188.99968499999738,"velocity":0.6299212598425197,"duration":0.2699995499999943},{"name":"C#5","midi":73,"time":188.99968499999738,"velocity":0.6299212598425197,"duration":0.2699995499999943},{"name":"G#5","midi":80,"time":189.29968449999737,"velocity":0.6299212598425197,"duration":0.2699995499999943},{"name":"C#5","midi":73,"time":189.29968449999737,"velocity":0.6299212598425197,"duration":0.2699995499999943},{"name":"G#5","midi":80,"time":189.59968399999735,"velocity":0.6299212598425197,"duration":0.2699995499999943},{"name":"C#5","midi":73,"time":189.59968399999735,"velocity":0.6299212598425197,"duration":0.2699995499999943},{"name":"G#5","midi":80,"time":189.89968349999734,"velocity":0.6299212598425197,"duration":0.2699995499999943},{"name":"C#5","midi":73,"time":189.89968349999734,"velocity":0.6299212598425197,"duration":0.2699995499999943},{"name":"G#5","midi":80,"time":190.19968299999732,"velocity":0.6299212598425197,"duration":0.2699995499999943},{"name":"C#5","midi":73,"time":190.19968299999732,"velocity":0.6299212598425197,"duration":0.2699995499999943},{"name":"G#5","midi":80,"time":190.4996824999973,"velocity":0.6299212598425197,"duration":0.2699995499999943},{"name":"C#5","midi":73,"time":190.4996824999973,"velocity":0.6299212598425197,"duration":0.2699995499999943},{"name":"G#5","midi":80,"time":190.7996819999973,"velocity":0.6299212598425197,"duration":0.4487492520833314},{"name":"C#5","midi":73,"time":190.7996819999973,"velocity":0.6299212598425197,"duration":0.2699995499999943},{"name":"E5","midi":76,"time":191.24968124999728,"velocity":0.6299212598425197,"duration":0.13499977500001137},{"name":"E5","midi":76,"time":191.3996809999973,"velocity":0.6299212598425197,"duration":0.2699995499999943},{"name":"C#6","midi":85,"time":191.69968049999727,"velocity":0.6299212598425197,"duration":0.2699995499999943},{"name":"B5","midi":83,"time":191.99967999999726,"velocity":0.6299212598425197,"duration":0.4487492520833314},{"name":"G#5","midi":80,"time":192.44967924999725,"velocity":0.6299212598425197,"duration":0.4487492520833314},{"name":"F#5","midi":78,"time":192.89967849999724,"velocity":0.6299212598425197,"duration":0.2699995499999943},{"name":"G#5","midi":80,"time":193.19967799999722,"velocity":0.6299212598425197,"duration":0.4487492520833314},{"name":"E5","midi":76,"time":193.6496772499972,"velocity":0.6299212598425197,"duration":0.13499977500001137},{"name":"E5","midi":76,"time":193.79967699999722,"velocity":0.6299212598425197,"duration":0.2699995499999943},{"name":"C#6","midi":85,"time":194.0996764999972,"velocity":0.6299212598425197,"duration":0.2699995499999943},{"name":"B5","midi":83,"time":194.39967599999719,"velocity":0.6299212598425197,"duration":0.4487492520833314},{"name":"G#5","midi":80,"time":194.84967524999718,"velocity":0.6299212598425197,"duration":0.4487492520833314},{"name":"F#5","midi":78,"time":195.29967449999717,"velocity":0.6299212598425197,"duration":0.2699995499999943},{"name":"G#5","midi":80,"time":195.59967399999715,"velocity":0.6299212598425197,"duration":0.14874975208334718},{"name":"C#5","midi":73,"time":195.59967399999715,"velocity":0.6299212598425197,"duration":0.14874975208334718},{"name":"A5","midi":81,"time":195.89967349999716,"velocity":0.6299212598425197,"duration":0.14874975208334718},{"name":"C#5","midi":73,"time":195.89967349999716,"velocity":0.6299212598425197,"duration":0.14874975208334718},{"name":"G#5","midi":80,"time":196.19967299999718,"velocity":0.6299212598425197,"duration":0.29874950208332507},{"name":"C#5","midi":73,"time":196.19967299999718,"velocity":0.6299212598425197,"duration":0.29874950208332507}]},{"instrument_number":-1,"notes":[{"name":"A3","midi":57,"time":2.399996,"velocity":0.6299212598425197,"duration":2.2487462520833326},{"name":"E3","midi":52,"time":2.399996,"velocity":0.6299212598425197,"duration":2.2487462520833326},{"name":"A2","midi":45,"time":2.399996,"velocity":0.6299212598425197,"duration":2.2487462520833326},{"name":"F#3","midi":54,"time":4.799991999999999,"velocity":0.6299212598425197,"duration":2.2487462520833335},{"name":"C#3","midi":49,"time":4.799991999999999,"velocity":0.6299212598425197,"duration":2.2487462520833335},{"name":"F#2","midi":42,"time":4.799991999999999,"velocity":0.6299212598425197,"duration":2.2487462520833335},{"name":"G#3","midi":56,"time":7.1999879999999985,"velocity":0.6299212598425197,"duration":2.2487462520833335},{"name":"D#3","midi":51,"time":7.1999879999999985,"velocity":0.6299212598425197,"duration":2.2487462520833335},{"name":"G#2","midi":44,"time":7.1999879999999985,"velocity":0.6299212598425197,"duration":2.2487462520833335},{"name":"C#4","midi":61,"time":9.599984,"velocity":0.6299212598425197,"duration":0.14874975208333296},{"name":"C#3","midi":49,"time":9.599984,"velocity":0.6299212598425197,"duration":0.14874975208333296},{"name":"C#4","midi":61,"time":10.799981999999998,"velocity":0.6299212598425197,"duration":0.14874975208333296},{"name":"C#3","midi":49,"time":10.799981999999998,"velocity":0.6299212598425197,"duration":0.14874975208333296},{"name":"A3","midi":57,"time":11.999979999999997,"velocity":0.6299212598425197,"duration":2.2487462520833326},{"name":"E3","midi":52,"time":11.999979999999997,"velocity":0.6299212598425197,"duration":2.2487462520833326},{"name":"A2","midi":45,"time":11.999979999999997,"velocity":0.6299212598425197,"duration":2.2487462520833326},{"name":"F#3","midi":54,"time":14.399975999999997,"velocity":0.6299212598425197,"duration":2.2487462520833343},{"name":"C#3","midi":49,"time":14.399975999999997,"velocity":0.6299212598425197,"duration":2.2487462520833343},{"name":"F#2","midi":42,"time":14.399975999999997,"velocity":0.6299212598425197,"duration":2.2487462520833343},{"name":"G#3","midi":56,"time":16.799971999999997,"velocity":0.6299212598425197,"duration":2.2487462520833326},{"name":"D#3","midi":51,"time":16.799971999999997,"velocity":0.6299212598425197,"duration":2.2487462520833326},{"name":"G#2","midi":44,"time":16.799971999999997,"velocity":0.6299212598425197,"duration":2.2487462520833326},{"name":"C#4","midi":61,"time":19.199967999999995,"velocity":0.6299212598425197,"duration":0.14874975208333296},{"name":"C#3","midi":49,"time":19.199967999999995,"velocity":0.6299212598425197,"duration":0.14874975208333296},{"name":"C#4","midi":61,"time":19.799966999999995,"velocity":0.6299212598425197,"duration":0.14874975208333296},{"name":"C#3","midi":49,"time":19.799966999999995,"velocity":0.6299212598425197,"duration":0.14874975208333296},{"name":"C#4","midi":61,"time":20.399965999999996,"velocity":0.6299212598425197,"duration":0.14874975208333296},{"name":"C#3","midi":49,"time":20.399965999999996,"velocity":0.6299212598425197,"duration":0.14874975208333296},{"name":"C#4","midi":61,"time":20.999964999999996,"velocity":0.6299212598425197,"duration":0.14874975208333296},{"name":"C#3","midi":49,"time":20.999964999999996,"velocity":0.6299212598425197,"duration":0.14874975208333296},{"name":"A2","midi":45,"time":21.599963999999996,"velocity":0.6299212598425197,"duration":0.2699995500000014},{"name":"A3","midi":57,"time":21.8999635,"velocity":0.6299212598425197,"duration":0.2699995500000014},{"name":"A2","midi":45,"time":22.199963,"velocity":0.6299212598425197,"duration":0.2699995500000014},{"name":"A3","midi":57,"time":22.499962500000002,"velocity":0.6299212598425197,"duration":0.2699995500000014},{"name":"A2","midi":45,"time":22.799962000000004,"velocity":0.6299212598425197,"duration":0.2699995500000014},{"name":"A3","midi":57,"time":23.099961500000006,"velocity":0.6299212598425197,"duration":0.2699995500000014},{"name":"A2","midi":45,"time":23.39996100000001,"velocity":0.6299212598425197,"duration":0.2699995500000014},{"name":"A3","midi":57,"time":23.69996050000001,"velocity":0.6299212598425197,"duration":0.2699995500000014},{"name":"F#2","midi":42,"time":23.999960000000012,"velocity":0.6299212598425197,"duration":0.2699995500000014},{"name":"F#3","midi":54,"time":24.299959500000014,"velocity":0.6299212598425197,"duration":0.2699995500000014},{"name":"F#2","midi":42,"time":24.599959000000016,"velocity":0.6299212598425197,"duration":0.2699995500000014},{"name":"F#3","midi":54,"time":24.899958500000018,"velocity":0.6299212598425197,"duration":0.2699995500000014},{"name":"F#2","midi":42,"time":25.19995800000002,"velocity":0.6299212598425197,"duration":0.2699995500000014},{"name":"F#3","midi":54,"time":25.499957500000022,"velocity":0.6299212598425197,"duration":0.2699995500000014},{"name":"F#2","midi":42,"time":25.799957000000024,"velocity":0.6299212598425197,"duration":0.2699995500000014},{"name":"F#3","midi":54,"time":26.099956500000026,"velocity":0.6299212598425197,"duration":0.2699995500000014},{"name":"C#3","midi":49,"time":26.399956000000028,"velocity":0.6299212598425197,"duration":0.2699995500000014},{"name":"C#4","midi":61,"time":26.69995550000003,"velocity":0.6299212598425197,"duration":0.2699995500000014},{"name":"C#3","midi":49,"time":26.999955000000032,"velocity":0.6299212598425197,"duration":0.2699995500000014},{"name":"C#4","midi":61,"time":27.299954500000034,"velocity":0.6299212598425197,"duration":0.2699995500000014},{"name":"C#3","midi":49,"time":27.599954000000036,"velocity":0.6299212598425197,"duration":0.2699995500000014},{"name":"C#4","midi":61,"time":27.899953500000038,"velocity":0.6299212598425197,"duration":0.2699995500000014},{"name":"C#3","midi":49,"time":28.19995300000004,"velocity":0.6299212598425197,"duration":0.2699995500000014},{"name":"C#4","midi":61,"time":28.49995250000004,"velocity":0.6299212598425197,"duration":0.2699995500000014},{"name":"C#3","midi":49,"time":28.799952000000044,"velocity":0.6299212598425197,"duration":0.2699995500000014},{"name":"C#4","midi":61,"time":29.099951500000046,"velocity":0.6299212598425197,"duration":0.2699995500000014},{"name":"C#3","midi":49,"time":29.399951000000048,"velocity":0.6299212598425197,"duration":0.2699995500000014},{"name":"C#4","midi":61,"time":29.69995050000005,"velocity":0.6299212598425197,"duration":0.2699995500000014},{"name":"C#3","midi":49,"time":29.99995000000005,"velocity":0.6299212598425197,"duration":0.2699995500000014},{"name":"C#4","midi":61,"time":30.299949500000054,"velocity":0.6299212598425197,"duration":0.2699995500000014},{"name":"C#3","midi":49,"time":30.599949000000056,"velocity":0.6299212598425197,"duration":0.2699995500000014},{"name":"C#4","midi":61,"time":30.899948500000058,"velocity":0.6299212598425197,"duration":0.2699995500000014},{"name":"A2","midi":45,"time":31.19994800000006,"velocity":0.6299212598425197,"duration":0.2699995500000014},{"name":"A3","midi":57,"time":31.49994750000006,"velocity":0.6299212598425197,"duration":0.2699995500000014},{"name":"A2","midi":45,"time":31.799947000000063,"velocity":0.6299212598425197,"duration":0.26999954999999787},{"name":"A3","midi":57,"time":32.09994650000006,"velocity":0.6299212598425197,"duration":0.2699995500000014},{"name":"A2","midi":45,"time":32.39994600000006,"velocity":0.6299212598425197,"duration":0.2699995500000014},{"name":"A3","midi":57,"time":32.699945500000055,"velocity":0.6299212598425197,"duration":0.2699995500000014},{"name":"A2","midi":45,"time":32.999945000000054,"velocity":0.6299212598425197,"duration":0.2699995500000014},{"name":"A3","midi":57,"time":33.29994450000005,"velocity":0.6299212598425197,"duration":0.2699995500000014},{"name":"F#2","midi":42,"time":33.59994400000005,"velocity":0.6299212598425197,"duration":0.2699995500000014},{"name":"F#3","midi":54,"time":33.89994350000005,"velocity":0.6299212598425197,"duration":0.2699995500000014},{"name":"F#2","midi":42,"time":34.19994300000005,"velocity":0.6299212598425197,"duration":0.2699995500000014},{"name":"F#3","midi":54,"time":34.499942500000046,"velocity":0.6299212598425197,"duration":0.2699995500000014},{"name":"F#2","midi":42,"time":34.799942000000044,"velocity":0.6299212598425197,"duration":0.2699995500000014},{"name":"F#3","midi":54,"time":35.09994150000004,"velocity":0.6299212598425197,"duration":0.2699995500000014},{"name":"F#2","midi":42,"time":35.39994100000004,"velocity":0.6299212598425197,"duration":0.2699995500000014},{"name":"F#3","midi":54,"time":35.69994050000004,"velocity":0.6299212598425197,"duration":0.2699995500000014},{"name":"C#3","midi":49,"time":35.99994000000004,"velocity":0.6299212598425197,"duration":0.2699995500000014},{"name":"C#4","midi":61,"time":36.299939500000036,"velocity":0.6299212598425197,"duration":0.2699995500000014},{"name":"C#3","midi":49,"time":36.599939000000035,"velocity":0.6299212598425197,"duration":0.2699995500000014},{"name":"C#4","midi":61,"time":36.89993850000003,"velocity":0.6299212598425197,"duration":0.2699995500000014},{"name":"C#3","midi":49,"time":37.19993800000003,"velocity":0.6299212598425197,"duration":0.2699995500000014},{"name":"C#4","midi":61,"time":37.49993750000003,"velocity":0.6299212598425197,"duration":0.2699995500000014},{"name":"C#3","midi":49,"time":37.79993700000003,"velocity":0.6299212598425197,"duration":0.2699995500000014},{"name":"C#4","midi":61,"time":38.09993650000003,"velocity":0.6299212598425197,"duration":0.2699995500000014},{"name":"C#3","midi":49,"time":38.399936000000025,"velocity":0.6299212598425197,"duration":0.2699995500000014},{"name":"C#4","midi":61,"time":38.699935500000024,"velocity":0.6299212598425197,"duration":0.2699995500000014},{"name":"C#3","midi":49,"time":38.99993500000002,"velocity":0.6299212598425197,"duration":0.2699995500000014},{"name":"C#4","midi":61,"time":39.29993450000002,"velocity":0.6299212598425197,"duration":0.2699995500000014},{"name":"C#3","midi":49,"time":39.59993400000002,"velocity":0.6299212598425197,"duration":0.2699995500000014},{"name":"C#4","midi":61,"time":39.89993350000002,"velocity":0.6299212598425197,"duration":0.2699995500000014},{"name":"C#3","midi":49,"time":40.199933000000016,"velocity":0.6299212598425197,"duration":0.2699995500000014},{"name":"C#4","midi":61,"time":40.499932500000014,"velocity":0.6299212598425197,"duration":0.2699995500000014},{"name":"A2","midi":45,"time":40.79993200000001,"velocity":0.6299212598425197,"duration":0.2699995500000014},{"name":"A3","midi":57,"time":41.09993150000001,"velocity":0.6299212598425197,"duration":0.2699995500000014},{"name":"A2","midi":45,"time":41.39993100000001,"velocity":0.6299212598425197,"duration":0.2699995500000014},{"name":"A3","midi":57,"time":41.69993050000001,"velocity":0.6299212598425197,"duration":0.2699995500000014},{"name":"A2","midi":45,"time":41.999930000000006,"velocity":0.6299212598425197,"duration":0.2699995500000014},{"name":"A3","midi":57,"time":42.299929500000005,"velocity":0.6299212598425197,"duration":0.2699995500000014},{"name":"A2","midi":45,"time":42.599929,"velocity":0.6299212598425197,"duration":0.2699995500000014},{"name":"A3","midi":57,"time":42.8999285,"velocity":0.6299212598425197,"duration":0.2699995500000014},{"name":"F#2","midi":42,"time":43.199928,"velocity":0.6299212598425197,"duration":0.2699995500000014},{"name":"F#3","midi":54,"time":43.4999275,"velocity":0.6299212598425197,"duration":0.2699995500000014},{"name":"F#2","midi":42,"time":43.799927,"velocity":0.6299212598425197,"duration":0.2699995500000014},{"name":"F#3","midi":54,"time":44.099926499999995,"velocity":0.6299212598425197,"duration":0.2699995500000014},{"name":"F#2","midi":42,"time":44.399925999999994,"velocity":0.6299212598425197,"duration":0.2699995500000014},{"name":"F#3","midi":54,"time":44.69992549999999,"velocity":0.6299212598425197,"duration":0.2699995500000014},{"name":"F#2","midi":42,"time":44.99992499999999,"velocity":0.6299212598425197,"duration":0.2699995500000014},{"name":"F#3","midi":54,"time":45.29992449999999,"velocity":0.6299212598425197,"duration":0.2699995500000014},{"name":"G#2","midi":44,"time":45.59992399999999,"velocity":0.6299212598425197,"duration":0.2699995500000014},{"name":"G#3","midi":56,"time":45.899923499999986,"velocity":0.6299212598425197,"duration":0.2699995500000014},{"name":"G#2","midi":44,"time":46.199922999999984,"velocity":0.6299212598425197,"duration":0.2699995500000014},{"name":"G#3","midi":56,"time":46.49992249999998,"velocity":0.6299212598425197,"duration":0.2699995500000014},{"name":"G#2","midi":44,"time":46.79992199999998,"velocity":0.6299212598425197,"duration":0.2699995500000014},{"name":"G#3","midi":56,"time":47.09992149999998,"velocity":0.6299212598425197,"duration":0.2699995500000014},{"name":"G#2","midi":44,"time":47.39992099999998,"velocity":0.6299212598425197,"duration":0.2699995500000014},{"name":"G#3","midi":56,"time":47.699920499999976,"velocity":0.6299212598425197,"duration":0.2699995500000014},{"name":"C#3","midi":49,"time":47.999919999999975,"velocity":0.6299212598425197,"duration":0.2699995500000014},{"name":"C#4","midi":61,"time":48.29991949999997,"velocity":0.6299212598425197,"duration":0.2699995500000014},{"name":"C#3","midi":49,"time":48.59991899999997,"velocity":0.6299212598425197,"duration":0.2699995500000014},{"name":"C#4","midi":61,"time":48.89991849999997,"velocity":0.6299212598425197,"duration":0.2699995500000014},{"name":"C#3","midi":49,"time":49.19991799999997,"velocity":0.6299212598425197,"duration":0.2699995500000014},{"name":"C#4","midi":61,"time":49.49991749999997,"velocity":0.6299212598425197,"duration":0.2699995500000014},{"name":"C#3","midi":49,"time":49.799916999999965,"velocity":0.6299212598425197,"duration":0.2699995500000014},{"name":"C#4","midi":61,"time":50.09991649999996,"velocity":0.6299212598425197,"duration":0.2699995500000014},{"name":"A2","midi":45,"time":50.39991599999996,"velocity":0.6299212598425197,"duration":0.2699995500000014},{"name":"A3","midi":57,"time":50.69991549999996,"velocity":0.6299212598425197,"duration":0.2699995500000014},{"name":"A2","midi":45,"time":50.99991499999996,"velocity":0.6299212598425197,"duration":0.2699995500000014},{"name":"A3","midi":57,"time":51.29991449999996,"velocity":0.6299212598425197,"duration":0.2699995500000014},{"name":"A2","midi":45,"time":51.599913999999956,"velocity":0.6299212598425197,"duration":0.2699995500000014},{"name":"A3","midi":57,"time":51.899913499999954,"velocity":0.6299212598425197,"duration":0.2699995500000014},{"name":"A2","midi":45,"time":52.19991299999995,"velocity":0.6299212598425197,"duration":0.2699995500000014},{"name":"A3","midi":57,"time":52.49991249999995,"velocity":0.6299212598425197,"duration":0.2699995500000014},{"name":"F#2","midi":42,"time":52.79991199999995,"velocity":0.6299212598425197,"duration":0.2699995500000014},{"name":"F#3","midi":54,"time":53.09991149999995,"velocity":0.6299212598425197,"duration":0.2699995500000014},{"name":"F#2","midi":42,"time":53.399910999999946,"velocity":0.6299212598425197,"duration":0.2699995500000014},{"name":"F#3","midi":54,"time":53.699910499999945,"velocity":0.6299212598425197,"duration":0.2699995500000014},{"name":"F#2","midi":42,"time":53.99990999999994,"velocity":0.6299212598425197,"duration":0.2699995500000014},{"name":"F#3","midi":54,"time":54.29990949999994,"velocity":0.6299212598425197,"duration":0.2699995500000014},{"name":"F#2","midi":42,"time":54.59990899999994,"velocity":0.6299212598425197,"duration":0.2699995500000014},{"name":"F#3","midi":54,"time":54.89990849999994,"velocity":0.6299212598425197,"duration":0.2699995500000014},{"name":"G#2","midi":44,"time":55.19990799999994,"velocity":0.6299212598425197,"duration":0.2699995500000014},{"name":"G#3","midi":56,"time":55.499907499999935,"velocity":0.6299212598425197,"duration":0.2699995500000014},{"name":"G#2","midi":44,"time":55.79990699999993,"velocity":0.6299212598425197,"duration":0.2699995500000014},{"name":"G#3","midi":56,"time":56.09990649999993,"velocity":0.6299212598425197,"duration":0.2699995500000014},{"name":"G#2","midi":44,"time":56.39990599999993,"velocity":0.6299212598425197,"duration":0.2699995500000014},{"name":"G#3","midi":56,"time":56.69990549999993,"velocity":0.6299212598425197,"duration":0.2699995500000014},{"name":"G#2","midi":44,"time":56.99990499999993,"velocity":0.6299212598425197,"duration":0.2699995500000014},{"name":"G#3","midi":56,"time":57.299904499999926,"velocity":0.6299212598425197,"duration":0.2699995500000014},{"name":"C#4","midi":61,"time":57.599903999999924,"velocity":0.6299212598425197,"duration":0.14874975208333296},{"name":"C#3","midi":49,"time":57.599903999999924,"velocity":0.6299212598425197,"duration":0.14874975208333296},{"name":"C#4","midi":61,"time":57.89990349999992,"velocity":0.6299212598425197,"duration":0.14874975208333296},{"name":"C#3","midi":49,"time":57.89990349999992,"velocity":0.6299212598425197,"duration":0.14874975208333296},{"name":"C#4","midi":61,"time":58.19990299999992,"velocity":0.6299212598425197,"duration":0.14874975208333296},{"name":"C#3","midi":49,"time":58.19990299999992,"velocity":0.6299212598425197,"duration":0.14874975208333296},{"name":"C#4","midi":61,"time":58.49990249999992,"velocity":0.6299212598425197,"duration":0.14874975208333296},{"name":"C#3","midi":49,"time":58.49990249999992,"velocity":0.6299212598425197,"duration":0.14874975208333296},{"name":"C#4","midi":61,"time":58.79990199999992,"velocity":0.6299212598425197,"duration":1.0799981999999986},{"name":"C#3","midi":49,"time":58.79990199999992,"velocity":0.6299212598425197,"duration":1.0799981999999986},{"name":"A3","midi":57,"time":59.99989999999992,"velocity":0.6299212598425197,"duration":0.2987495020833322},{"name":"A2","midi":45,"time":59.99989999999992,"velocity":0.6299212598425197,"duration":0.2987495020833322},{"name":"A3","midi":57,"time":60.599898999999915,"velocity":0.6299212598425197,"duration":1.0799981999999986},{"name":"A2","midi":45,"time":60.599898999999915,"velocity":0.6299212598425197,"duration":1.0799981999999986},{"name":"A2","midi":45,"time":61.799896999999916,"velocity":0.6299212598425197,"duration":0.2699995500000014},{"name":"A3","midi":57,"time":62.099896499999915,"velocity":0.6299212598425197,"duration":0.2699995500000014},{"name":"F#2","midi":42,"time":62.39989599999991,"velocity":0.6299212598425197,"duration":0.2699995500000014},{"name":"F#3","midi":54,"time":62.69989549999991,"velocity":0.6299212598425197,"duration":0.2699995500000014},{"name":"F#2","midi":42,"time":62.99989499999991,"velocity":0.6299212598425197,"duration":0.2699995500000014},{"name":"F#3","midi":54,"time":63.29989449999991,"velocity":0.6299212598425197,"duration":0.2699995500000014},{"name":"F#2","midi":42,"time":63.59989399999991,"velocity":0.6299212598425197,"duration":0.2699995500000014},{"name":"F#3","midi":54,"time":63.899893499999905,"velocity":0.6299212598425197,"duration":0.2699995499999943},{"name":"F#2","midi":42,"time":64.1998929999999,"velocity":0.6299212598425197,"duration":0.2699995499999943},{"name":"F#3","midi":54,"time":64.4998924999999,"velocity":0.6299212598425197,"duration":0.2699995499999943},{"name":"G#2","midi":44,"time":64.7998919999999,"velocity":0.6299212598425197,"duration":0.2699995499999943},{"name":"G#3","midi":56,"time":65.0998914999999,"velocity":0.6299212598425197,"duration":0.2699995499999943},{"name":"G#2","midi":44,"time":65.3998909999999,"velocity":0.6299212598425197,"duration":0.2699995499999943},{"name":"G#3","midi":56,"time":65.6998904999999,"velocity":0.6299212598425197,"duration":0.2699995499999943},{"name":"G#2","midi":44,"time":65.9998899999999,"velocity":0.6299212598425197,"duration":0.2699995499999943},{"name":"G#3","midi":56,"time":66.29988949999989,"velocity":0.6299212598425197,"duration":0.2699995499999943},{"name":"G#2","midi":44,"time":66.59988899999989,"velocity":0.6299212598425197,"duration":0.2699995499999943},{"name":"G#3","midi":56,"time":66.89988849999989,"velocity":0.6299212598425197,"duration":0.2699995499999943},{"name":"C#4","midi":61,"time":67.19988799999989,"velocity":0.6299212598425197,"duration":0.14874975208333296},{"name":"C#3","midi":49,"time":67.19988799999989,"velocity":0.6299212598425197,"duration":0.14874975208333296},{"name":"C#4","midi":61,"time":67.49988749999989,"velocity":0.6299212598425197,"duration":0.14874975208333296},{"name":"C#3","midi":49,"time":67.49988749999989,"velocity":0.6299212598425197,"duration":0.14874975208333296},{"name":"C#4","midi":61,"time":67.79988699999988,"velocity":0.6299212598425197,"duration":0.14874975208333296},{"name":"C#3","midi":49,"time":67.79988699999988,"velocity":0.6299212598425197,"duration":0.14874975208333296},{"name":"C#4","midi":61,"time":68.09988649999988,"velocity":0.6299212598425197,"duration":0.14874975208333296},{"name":"C#3","midi":49,"time":68.09988649999988,"velocity":0.6299212598425197,"duration":0.14874975208333296},{"name":"C#4","midi":61,"time":68.39988599999988,"velocity":0.6299212598425197,"duration":1.0799982000000057},{"name":"C#3","midi":49,"time":68.39988599999988,"velocity":0.6299212598425197,"duration":1.0799982000000057},{"name":"A3","midi":57,"time":69.59988399999989,"velocity":0.6299212598425197,"duration":0.2987495020833393},{"name":"A2","midi":45,"time":69.59988399999989,"velocity":0.6299212598425197,"duration":0.2987495020833393},{"name":"A3","midi":57,"time":70.1998829999999,"velocity":0.6299212598425197,"duration":1.0799982000000057},{"name":"A2","midi":45,"time":70.1998829999999,"velocity":0.6299212598425197,"duration":1.0799982000000057},{"name":"A2","midi":45,"time":71.39988099999991,"velocity":0.6299212598425197,"duration":0.2699995499999943},{"name":"A3","midi":57,"time":71.6998804999999,"velocity":0.6299212598425197,"duration":0.2699995499999943},{"name":"F#2","midi":42,"time":71.9998799999999,"velocity":0.6299212598425197,"duration":0.2699995499999943},{"name":"F#3","midi":54,"time":72.2998794999999,"velocity":0.6299212598425197,"duration":0.2699995499999943},{"name":"F#2","midi":42,"time":72.5998789999999,"velocity":0.6299212598425197,"duration":0.2699995499999943},{"name":"F#3","midi":54,"time":72.8998784999999,"velocity":0.6299212598425197,"duration":0.2699995499999943},{"name":"F#2","midi":42,"time":73.1998779999999,"velocity":0.6299212598425197,"duration":0.2699995499999943},{"name":"F#3","midi":54,"time":73.4998774999999,"velocity":0.6299212598425197,"duration":0.2699995499999943},{"name":"F#2","midi":42,"time":73.7998769999999,"velocity":0.6299212598425197,"duration":0.2699995499999943},{"name":"F#3","midi":54,"time":74.0998764999999,"velocity":0.6299212598425197,"duration":0.2699995499999943},{"name":"G#2","midi":44,"time":74.39987599999989,"velocity":0.6299212598425197,"duration":0.2699995499999943},{"name":"G#3","midi":56,"time":74.69987549999989,"velocity":0.6299212598425197,"duration":0.2699995499999943},{"name":"G#2","midi":44,"time":74.99987499999989,"velocity":0.6299212598425197,"duration":0.2699995499999943},{"name":"G#3","midi":56,"time":75.29987449999989,"velocity":0.6299212598425197,"duration":0.2699995499999943},{"name":"G#2","midi":44,"time":75.59987399999989,"velocity":0.6299212598425197,"duration":0.2699995499999943},{"name":"G#3","midi":56,"time":75.89987349999988,"velocity":0.6299212598425197,"duration":0.2699995499999943},{"name":"G#2","midi":44,"time":76.19987299999988,"velocity":0.6299212598425197,"duration":0.2699995499999943},{"name":"G#3","midi":56,"time":76.49987249999988,"velocity":0.6299212598425197,"duration":0.2699995499999943},{"name":"C#3","midi":49,"time":76.79987199999988,"velocity":0.6299212598425197,"duration":0.2699995499999943},{"name":"C#4","midi":61,"time":77.09987149999988,"velocity":0.6299212598425197,"duration":0.2699995499999943},{"name":"C#3","midi":49,"time":77.39987099999988,"velocity":0.6299212598425197,"duration":0.2699995499999943},{"name":"C#4","midi":61,"time":77.69987049999988,"velocity":0.6299212598425197,"duration":0.2699995499999943},{"name":"C#4","midi":61,"time":77.99986999999987,"velocity":0.6299212598425197,"duration":0.14874975208333296},{"name":"C#3","midi":49,"time":77.99986999999987,"velocity":0.6299212598425197,"duration":0.14874975208333296},{"name":"C#4","midi":61,"time":78.29986949999987,"velocity":0.6299212598425197,"duration":0.14874975208333296},{"name":"C#3","midi":49,"time":78.29986949999987,"velocity":0.6299212598425197,"duration":0.14874975208333296},{"name":"C#4","midi":61,"time":78.59986899999987,"velocity":0.6299212598425197,"duration":0.2987495020833393},{"name":"C#3","midi":49,"time":78.59986899999987,"velocity":0.6299212598425197,"duration":0.2987495020833393},{"name":"C#4","midi":61,"time":79.19986799999988,"velocity":0.6299212598425197,"duration":0.2987495020833393},{"name":"C#3","midi":49,"time":79.19986799999988,"velocity":0.6299212598425197,"duration":0.2987495020833393},{"name":"C#4","midi":61,"time":79.79986699999989,"velocity":0.6299212598425197,"duration":0.2987495020833393},{"name":"C#3","midi":49,"time":79.79986699999989,"velocity":0.6299212598425197,"duration":0.2987495020833393},{"name":"C#4","midi":61,"time":80.3998659999999,"velocity":0.6299212598425197,"duration":0.2987495020833393},{"name":"C#3","midi":49,"time":80.3998659999999,"velocity":0.6299212598425197,"duration":0.2987495020833393},{"name":"C#4","midi":61,"time":80.99986499999991,"velocity":0.6299212598425197,"duration":0.2987495020833393},{"name":"C#3","midi":49,"time":80.99986499999991,"velocity":0.6299212598425197,"duration":0.2987495020833393},{"name":"A2","midi":45,"time":81.59986399999993,"velocity":0.6299212598425197,"duration":0.2699995499999943},{"name":"A3","midi":57,"time":81.89986349999992,"velocity":0.6299212598425197,"duration":0.2699995499999943},{"name":"A2","midi":45,"time":82.19986299999992,"velocity":0.6299212598425197,"duration":0.2699995499999943},{"name":"A3","midi":57,"time":82.49986249999992,"velocity":0.6299212598425197,"duration":0.2699995499999943},{"name":"A2","midi":45,"time":82.79986199999992,"velocity":0.6299212598425197,"duration":0.2699995499999943},{"name":"A3","midi":57,"time":83.09986149999992,"velocity":0.6299212598425197,"duration":0.2699995499999943},{"name":"A2","midi":45,"time":83.39986099999992,"velocity":0.6299212598425197,"duration":0.2699995499999943},{"name":"A3","midi":57,"time":83.69986049999991,"velocity":0.6299212598425197,"duration":0.2699995499999943},{"name":"F#2","midi":42,"time":83.99985999999991,"velocity":0.6299212598425197,"duration":0.2699995499999943},{"name":"F#3","midi":54,"time":84.29985949999991,"velocity":0.6299212598425197,"duration":0.2699995499999943},{"name":"F#2","midi":42,"time":84.59985899999991,"velocity":0.6299212598425197,"duration":0.2699995499999943},{"name":"F#3","midi":54,"time":84.89985849999991,"velocity":0.6299212598425197,"duration":0.2699995499999943},{"name":"F#2","midi":42,"time":85.1998579999999,"velocity":0.6299212598425197,"duration":0.2699995499999943},{"name":"F#3","midi":54,"time":85.4998574999999,"velocity":0.6299212598425197,"duration":0.2699995499999943},{"name":"F#2","midi":42,"time":85.7998569999999,"velocity":0.6299212598425197,"duration":0.2699995499999943},{"name":"F#3","midi":54,"time":86.0998564999999,"velocity":0.6299212598425197,"duration":0.2699995499999943},{"name":"C#3","midi":49,"time":86.3998559999999,"velocity":0.6299212598425197,"duration":0.2699995499999943},{"name":"C#4","midi":61,"time":86.6998554999999,"velocity":0.6299212598425197,"duration":0.2699995499999943},{"name":"C#3","midi":49,"time":86.9998549999999,"velocity":0.6299212598425197,"duration":0.2699995499999943},{"name":"C#4","midi":61,"time":87.2998544999999,"velocity":0.6299212598425197,"duration":0.2699995499999943},{"name":"C#3","midi":49,"time":87.5998539999999,"velocity":0.6299212598425197,"duration":0.2699995499999943},{"name":"C#4","midi":61,"time":87.89985349999989,"velocity":0.6299212598425197,"duration":0.2699995499999943},{"name":"C#3","midi":49,"time":88.19985299999989,"velocity":0.6299212598425197,"duration":0.2699995499999943},{"name":"C#4","midi":61,"time":88.49985249999989,"velocity":0.6299212598425197,"duration":0.2699995499999943},{"name":"C#3","midi":49,"time":88.79985199999989,"velocity":0.6299212598425197,"duration":0.2699995499999943},{"name":"C#4","midi":61,"time":89.09985149999989,"velocity":0.6299212598425197,"duration":0.2699995499999943},{"name":"C#3","midi":49,"time":89.39985099999988,"velocity":0.6299212598425197,"duration":0.2699995499999943},{"name":"C#4","midi":61,"time":89.69985049999988,"velocity":0.6299212598425197,"duration":0.2699995499999943},{"name":"C#3","midi":49,"time":89.99984999999988,"velocity":0.6299212598425197,"duration":0.2699995499999943},{"name":"C#4","midi":61,"time":90.29984949999988,"velocity":0.6299212598425197,"duration":0.2699995499999943},{"name":"C#3","midi":49,"time":90.59984899999988,"velocity":0.6299212598425197,"duration":0.2699995499999943},{"name":"C#4","midi":61,"time":90.89984849999988,"velocity":0.6299212598425197,"duration":0.2699995499999943},{"name":"A2","midi":45,"time":91.19984799999988,"velocity":0.6299212598425197,"duration":0.2699995499999943},{"name":"A3","midi":57,"time":91.49984749999987,"velocity":0.6299212598425197,"duration":0.2699995499999943},{"name":"A2","midi":45,"time":91.79984699999987,"velocity":0.6299212598425197,"duration":0.2699995499999943},{"name":"A3","midi":57,"time":92.09984649999987,"velocity":0.6299212598425197,"duration":0.2699995499999943},{"name":"A2","midi":45,"time":92.39984599999987,"velocity":0.6299212598425197,"duration":0.2699995499999943},{"name":"A3","midi":57,"time":92.69984549999987,"velocity":0.6299212598425197,"duration":0.2699995499999943},{"name":"A2","midi":45,"time":92.99984499999987,"velocity":0.6299212598425197,"duration":0.2699995499999943},{"name":"A3","midi":57,"time":93.29984449999986,"velocity":0.6299212598425197,"duration":0.2699995499999943},{"name":"F#2","midi":42,"time":93.59984399999986,"velocity":0.6299212598425197,"duration":0.2699995499999943},{"name":"F#3","midi":54,"time":93.89984349999986,"velocity":0.6299212598425197,"duration":0.2699995499999943},{"name":"F#2","midi":42,"time":94.19984299999986,"velocity":0.6299212598425197,"duration":0.2699995499999943},{"name":"F#3","midi":54,"time":94.49984249999986,"velocity":0.6299212598425197,"duration":0.2699995499999943},{"name":"F#2","midi":42,"time":94.79984199999986,"velocity":0.6299212598425197,"duration":0.2699995499999943},{"name":"F#3","midi":54,"time":95.09984149999985,"velocity":0.6299212598425197,"duration":0.2699995499999943},{"name":"F#2","midi":42,"time":95.39984099999985,"velocity":0.6299212598425197,"duration":0.2699995499999943},{"name":"F#3","midi":54,"time":95.69984049999985,"velocity":0.6299212598425197,"duration":0.2699995499999943},{"name":"C#3","midi":49,"time":95.99983999999985,"velocity":0.6299212598425197,"duration":0.2699995499999943},{"name":"C#4","midi":61,"time":96.29983949999985,"velocity":0.6299212598425197,"duration":0.2699995499999943},{"name":"C#3","midi":49,"time":96.59983899999985,"velocity":0.6299212598425197,"duration":0.2699995499999943},{"name":"C#4","midi":61,"time":96.89983849999984,"velocity":0.6299212598425197,"duration":0.2699995499999943},{"name":"C#3","midi":49,"time":97.19983799999984,"velocity":0.6299212598425197,"duration":0.2699995499999943},{"name":"C#4","midi":61,"time":97.49983749999984,"velocity":0.6299212598425197,"duration":0.2699995499999943},{"name":"C#3","midi":49,"time":97.79983699999984,"velocity":0.6299212598425197,"duration":0.2699995499999943},{"name":"C#4","midi":61,"time":98.09983649999984,"velocity":0.6299212598425197,"duration":0.2699995499999943},{"name":"C#3","midi":49,"time":98.39983599999984,"velocity":0.6299212598425197,"duration":0.2699995499999943},{"name":"C#4","midi":61,"time":98.69983549999984,"velocity":0.6299212598425197,"duration":0.2699995499999943},{"name":"C#3","midi":49,"time":98.99983499999983,"velocity":0.6299212598425197,"duration":0.2699995499999943},{"name":"C#4","midi":61,"time":99.29983449999983,"velocity":0.6299212598425197,"duration":0.2699995499999943},{"name":"C#3","midi":49,"time":99.59983399999983,"velocity":0.6299212598425197,"duration":0.2699995499999943},{"name":"C#4","midi":61,"time":99.89983349999983,"velocity":0.6299212598425197,"duration":0.2699995499999943},{"name":"C#3","midi":49,"time":100.19983299999983,"velocity":0.6299212598425197,"duration":0.2699995499999943},{"name":"C#4","midi":61,"time":100.49983249999983,"velocity":0.6299212598425197,"duration":0.2699995499999943},{"name":"A2","midi":45,"time":100.79983199999982,"velocity":0.6299212598425197,"duration":0.2699995499999943},{"name":"A3","midi":57,"time":101.09983149999982,"velocity":0.6299212598425197,"duration":0.2699995499999943},{"name":"A2","midi":45,"time":101.39983099999982,"velocity":0.6299212598425197,"duration":0.2699995499999943},{"name":"A3","midi":57,"time":101.69983049999982,"velocity":0.6299212598425197,"duration":0.2699995499999943},{"name":"A2","midi":45,"time":101.99982999999982,"velocity":0.6299212598425197,"duration":0.2699995499999943},{"name":"A3","midi":57,"time":102.29982949999982,"velocity":0.6299212598425197,"duration":0.2699995499999943},{"name":"A2","midi":45,"time":102.59982899999981,"velocity":0.6299212598425197,"duration":0.2699995499999943},{"name":"A3","midi":57,"time":102.89982849999981,"velocity":0.6299212598425197,"duration":0.2699995499999943},{"name":"F#2","midi":42,"time":103.19982799999981,"velocity":0.6299212598425197,"duration":0.2699995499999943},{"name":"F#3","midi":54,"time":103.49982749999981,"velocity":0.6299212598425197,"duration":0.2699995499999943},{"name":"F#2","midi":42,"time":103.79982699999981,"velocity":0.6299212598425197,"duration":0.2699995499999943},{"name":"F#3","midi":54,"time":104.0998264999998,"velocity":0.6299212598425197,"duration":0.2699995499999943},{"name":"F#2","midi":42,"time":104.3998259999998,"velocity":0.6299212598425197,"duration":0.2699995499999943},{"name":"F#3","midi":54,"time":104.6998254999998,"velocity":0.6299212598425197,"duration":0.2699995499999943},{"name":"F#2","midi":42,"time":104.9998249999998,"velocity":0.6299212598425197,"duration":0.2699995499999943},{"name":"F#3","midi":54,"time":105.2998244999998,"velocity":0.6299212598425197,"duration":0.2699995499999943},{"name":"G#2","midi":44,"time":105.5998239999998,"velocity":0.6299212598425197,"duration":0.2699995499999943},{"name":"G#3","midi":56,"time":105.8998234999998,"velocity":0.6299212598425197,"duration":0.2699995499999943},{"name":"G#2","midi":44,"time":106.1998229999998,"velocity":0.6299212598425197,"duration":0.2699995499999943},{"name":"G#3","midi":56,"time":106.4998224999998,"velocity":0.6299212598425197,"duration":0.2699995499999943},{"name":"G#2","midi":44,"time":106.79982199999979,"velocity":0.6299212598425197,"duration":0.2699995499999943},{"name":"G#3","midi":56,"time":107.09982149999979,"velocity":0.6299212598425197,"duration":0.2699995499999943},{"name":"G#2","midi":44,"time":107.39982099999979,"velocity":0.6299212598425197,"duration":0.2699995499999943},{"name":"G#3","midi":56,"time":107.69982049999979,"velocity":0.6299212598425197,"duration":0.2699995499999943},{"name":"C#3","midi":49,"time":107.99981999999979,"velocity":0.6299212598425197,"duration":0.2699995499999943},{"name":"C#4","midi":61,"time":108.29981949999978,"velocity":0.6299212598425197,"duration":0.2699995499999943},{"name":"C#3","midi":49,"time":108.59981899999978,"velocity":0.6299212598425197,"duration":0.2699995499999943},{"name":"C#4","midi":61,"time":108.89981849999978,"velocity":0.6299212598425197,"duration":0.2699995499999943},{"name":"C#3","midi":49,"time":109.19981799999978,"velocity":0.6299212598425197,"duration":0.2699995499999943},{"name":"C#4","midi":61,"time":109.49981749999978,"velocity":0.6299212598425197,"duration":0.2699995499999943},{"name":"C#3","midi":49,"time":109.79981699999978,"velocity":0.6299212598425197,"duration":0.2699995499999943},{"name":"C#4","midi":61,"time":110.09981649999978,"velocity":0.6299212598425197,"duration":0.2699995499999943},{"name":"A2","midi":45,"time":110.39981599999977,"velocity":0.6299212598425197,"duration":0.2699995499999943},{"name":"A3","midi":57,"time":110.69981549999977,"velocity":0.6299212598425197,"duration":0.2699995499999943},{"name":"A2","midi":45,"time":110.99981499999977,"velocity":0.6299212598425197,"duration":0.2699995499999943},{"name":"A3","midi":57,"time":111.29981449999977,"velocity":0.6299212598425197,"duration":0.2699995499999943},{"name":"A2","midi":45,"time":111.59981399999977,"velocity":0.6299212598425197,"duration":0.2699995499999943},{"name":"A3","midi":57,"time":111.89981349999977,"velocity":0.6299212598425197,"duration":0.2699995499999943},{"name":"A2","midi":45,"time":112.19981299999976,"velocity":0.6299212598425197,"duration":0.2699995499999943},{"name":"A3","midi":57,"time":112.49981249999976,"velocity":0.6299212598425197,"duration":0.2699995499999943},{"name":"F#2","midi":42,"time":112.79981199999976,"velocity":0.6299212598425197,"duration":0.2699995499999943},{"name":"F#3","midi":54,"time":113.09981149999976,"velocity":0.6299212598425197,"duration":0.2699995499999943},{"name":"F#2","midi":42,"time":113.39981099999976,"velocity":0.6299212598425197,"duration":0.2699995499999943},{"name":"F#3","midi":54,"time":113.69981049999976,"velocity":0.6299212598425197,"duration":0.2699995499999943},{"name":"F#2","midi":42,"time":113.99980999999975,"velocity":0.6299212598425197,"duration":0.2699995499999943},{"name":"F#3","midi":54,"time":114.29980949999975,"velocity":0.6299212598425197,"duration":0.2699995499999943},{"name":"F#2","midi":42,"time":114.59980899999975,"velocity":0.6299212598425197,"duration":0.2699995499999943},{"name":"F#3","midi":54,"time":114.89980849999975,"velocity":0.6299212598425197,"duration":0.2699995499999943},{"name":"G#2","midi":44,"time":115.19980799999975,"velocity":0.6299212598425197,"duration":0.2699995499999943},{"name":"G#3","midi":56,"time":115.49980749999975,"velocity":0.6299212598425197,"duration":0.2699995499999943},{"name":"G#2","midi":44,"time":115.79980699999975,"velocity":0.6299212598425197,"duration":0.2699995499999943},{"name":"G#3","midi":56,"time":116.09980649999974,"velocity":0.6299212598425197,"duration":0.2699995499999943},{"name":"G#2","midi":44,"time":116.39980599999974,"velocity":0.6299212598425197,"duration":0.2699995499999943},{"name":"G#3","midi":56,"time":116.69980549999974,"velocity":0.6299212598425197,"duration":0.2699995499999943},{"name":"G#2","midi":44,"time":116.99980499999974,"velocity":0.6299212598425197,"duration":0.2699995499999943},{"name":"G#3","midi":56,"time":117.29980449999974,"velocity":0.6299212598425197,"duration":0.2699995499999943},{"name":"C#4","midi":61,"time":117.59980399999974,"velocity":0.6299212598425197,"duration":0.14874975208333296},{"name":"C#3","midi":49,"time":117.59980399999974,"velocity":0.6299212598425197,"duration":0.14874975208333296},{"name":"C#4","midi":61,"time":117.89980349999973,"velocity":0.6299212598425197,"duration":0.14874975208333296},{"name":"C#3","midi":49,"time":117.89980349999973,"velocity":0.6299212598425197,"duration":0.14874975208333296},{"name":"C#4","midi":61,"time":118.19980299999973,"velocity":0.6299212598425197,"duration":0.14874975208333296},{"name":"C#3","midi":49,"time":118.19980299999973,"velocity":0.6299212598425197,"duration":0.14874975208333296},{"name":"C#4","midi":61,"time":118.49980249999973,"velocity":0.6299212598425197,"duration":0.14874975208333296},{"name":"C#3","midi":49,"time":118.49980249999973,"velocity":0.6299212598425197,"duration":0.14874975208333296},{"name":"C#4","midi":61,"time":118.79980199999973,"velocity":0.6299212598425197,"duration":1.0799982000000057},{"name":"C#3","midi":49,"time":118.79980199999973,"velocity":0.6299212598425197,"duration":1.0799982000000057},{"name":"A3","midi":57,"time":119.99979999999974,"velocity":0.6299212598425197,"duration":0.2987495020833393},{"name":"A2","midi":45,"time":119.99979999999974,"velocity":0.6299212598425197,"duration":0.2987495020833393},{"name":"A3","midi":57,"time":120.59979899999975,"velocity":0.6299212598425197,"duration":1.0799982000000057},{"name":"A2","midi":45,"time":120.59979899999975,"velocity":0.6299212598425197,"duration":1.0799982000000057},{"name":"A2","midi":45,"time":121.79979699999976,"velocity":0.6299212598425197,"duration":0.2699995499999943},{"name":"A3","midi":57,"time":122.09979649999975,"velocity":0.6299212598425197,"duration":0.2699995499999943},{"name":"F#2","midi":42,"time":122.39979599999975,"velocity":0.6299212598425197,"duration":0.2699995499999943},{"name":"F#3","midi":54,"time":122.69979549999975,"velocity":0.6299212598425197,"duration":0.2699995499999943},{"name":"F#2","midi":42,"time":122.99979499999975,"velocity":0.6299212598425197,"duration":0.2699995499999943},{"name":"F#3","midi":54,"time":123.29979449999975,"velocity":0.6299212598425197,"duration":0.2699995499999943},{"name":"F#2","midi":42,"time":123.59979399999975,"velocity":0.6299212598425197,"duration":0.2699995499999943},{"name":"F#3","midi":54,"time":123.89979349999975,"velocity":0.6299212598425197,"duration":0.2699995499999943},{"name":"F#2","midi":42,"time":124.19979299999974,"velocity":0.6299212598425197,"duration":0.2699995499999943},{"name":"F#3","midi":54,"time":124.49979249999974,"velocity":0.6299212598425197,"duration":0.2699995499999943},{"name":"G#2","midi":44,"time":124.79979199999974,"velocity":0.6299212598425197,"duration":0.2699995499999943},{"name":"G#3","midi":56,"time":125.09979149999974,"velocity":0.6299212598425197,"duration":0.2699995499999943},{"name":"G#2","midi":44,"time":125.39979099999974,"velocity":0.6299212598425197,"duration":0.2699995499999943},{"name":"G#3","midi":56,"time":125.69979049999974,"velocity":0.6299212598425197,"duration":0.2699995499999943},{"name":"G#2","midi":44,"time":125.99978999999973,"velocity":0.6299212598425197,"duration":0.2699995499999943},{"name":"G#3","midi":56,"time":126.29978949999973,"velocity":0.6299212598425197,"duration":0.2699995499999943},{"name":"G#2","midi":44,"time":126.59978899999973,"velocity":0.6299212598425197,"duration":0.2699995499999943},{"name":"G#3","midi":56,"time":126.89978849999973,"velocity":0.6299212598425197,"duration":0.2699995499999943},{"name":"C#4","midi":61,"time":127.19978799999973,"velocity":0.6299212598425197,"duration":0.14874975208333296},{"name":"C#3","midi":49,"time":127.19978799999973,"velocity":0.6299212598425197,"duration":0.14874975208333296},{"name":"C#4","midi":61,"time":127.49978749999973,"velocity":0.6299212598425197,"duration":0.14874975208333296},{"name":"C#3","midi":49,"time":127.49978749999973,"velocity":0.6299212598425197,"duration":0.14874975208333296},{"name":"C#4","midi":61,"time":127.79978699999972,"velocity":0.6299212598425197,"duration":0.14874975208333296},{"name":"C#3","midi":49,"time":127.79978699999972,"velocity":0.6299212598425197,"duration":0.14874975208333296},{"name":"C#4","midi":61,"time":128.09978649999974,"velocity":0.6299212598425197,"duration":0.14874975208334718},{"name":"C#3","midi":49,"time":128.09978649999974,"velocity":0.6299212598425197,"duration":0.14874975208334718},{"name":"C#4","midi":61,"time":128.39978599999975,"velocity":0.6299212598425197,"duration":1.0799982000000057},{"name":"C#3","midi":49,"time":128.39978599999975,"velocity":0.6299212598425197,"duration":1.0799982000000057},{"name":"A3","midi":57,"time":129.59978399999974,"velocity":0.6299212598425197,"duration":0.29874950208332507},{"name":"A2","midi":45,"time":129.59978399999974,"velocity":0.6299212598425197,"duration":0.29874950208332507},{"name":"A3","midi":57,"time":130.19978299999974,"velocity":0.6299212598425197,"duration":1.0799982000000057},{"name":"A2","midi":45,"time":130.19978299999974,"velocity":0.6299212598425197,"duration":1.0799982000000057},{"name":"A2","midi":45,"time":131.39978099999973,"velocity":0.6299212598425197,"duration":0.2699995499999943},{"name":"A3","midi":57,"time":131.69978049999972,"velocity":0.6299212598425197,"duration":0.2699995499999943},{"name":"F#2","midi":42,"time":131.9997799999997,"velocity":0.6299212598425197,"duration":0.2699995499999943},{"name":"F#3","midi":54,"time":132.2997794999997,"velocity":0.6299212598425197,"duration":0.2699995499999943},{"name":"F#2","midi":42,"time":132.59977899999967,"velocity":0.6299212598425197,"duration":0.2699995499999943},{"name":"F#3","midi":54,"time":132.89977849999966,"velocity":0.6299212598425197,"duration":0.2699995499999943},{"name":"F#2","midi":42,"time":133.19977799999964,"velocity":0.6299212598425197,"duration":0.2699995499999943},{"name":"F#3","midi":54,"time":133.49977749999962,"velocity":0.6299212598425197,"duration":0.2699995499999943},{"name":"F#2","midi":42,"time":133.7997769999996,"velocity":0.6299212598425197,"duration":0.2699995499999943},{"name":"F#3","midi":54,"time":134.0997764999996,"velocity":0.6299212598425197,"duration":0.2699995499999943},{"name":"G#2","midi":44,"time":134.39977599999958,"velocity":0.6299212598425197,"duration":0.2699995499999943},{"name":"G#3","midi":56,"time":134.69977549999956,"velocity":0.6299212598425197,"duration":0.2699995499999943},{"name":"G#2","midi":44,"time":134.99977499999954,"velocity":0.6299212598425197,"duration":0.2699995499999943},{"name":"G#3","midi":56,"time":135.29977449999953,"velocity":0.6299212598425197,"duration":0.2699995499999943},{"name":"G#2","midi":44,"time":135.5997739999995,"velocity":0.6299212598425197,"duration":0.2699995499999943},{"name":"G#3","midi":56,"time":135.8997734999995,"velocity":0.6299212598425197,"duration":0.2699995499999943},{"name":"G#2","midi":44,"time":136.19977299999948,"velocity":0.6299212598425197,"duration":0.2699995499999943},{"name":"G#3","midi":56,"time":136.49977249999947,"velocity":0.6299212598425197,"duration":0.2699995499999943},{"name":"C#3","midi":49,"time":136.79977199999945,"velocity":0.6299212598425197,"duration":0.2699995499999943},{"name":"C#4","midi":61,"time":137.09977149999943,"velocity":0.6299212598425197,"duration":0.2699995499999943},{"name":"C#3","midi":49,"time":137.39977099999942,"velocity":0.6299212598425197,"duration":0.2699995499999943},{"name":"C#4","midi":61,"time":137.6997704999994,"velocity":0.6299212598425197,"duration":0.2699995499999943},{"name":"C#4","midi":61,"time":137.9997699999994,"velocity":0.6299212598425197,"duration":0.14874975208334718},{"name":"C#3","midi":49,"time":137.9997699999994,"velocity":0.6299212598425197,"duration":0.14874975208334718},{"name":"C#4","midi":61,"time":138.2997694999994,"velocity":0.6299212598425197,"duration":0.14874975208334718},{"name":"C#3","midi":49,"time":138.2997694999994,"velocity":0.6299212598425197,"duration":0.14874975208334718},{"name":"C#4","midi":61,"time":138.5997689999994,"velocity":0.6299212598425197,"duration":0.29874950208332507},{"name":"C#3","midi":49,"time":138.5997689999994,"velocity":0.6299212598425197,"duration":0.29874950208332507},{"name":"A3","midi":57,"time":139.1997679999994,"velocity":0.6299212598425197,"duration":2.248746252083322},{"name":"E3","midi":52,"time":139.1997679999994,"velocity":0.6299212598425197,"duration":2.248746252083322},{"name":"A2","midi":45,"time":139.1997679999994,"velocity":0.6299212598425197,"duration":2.248746252083322},{"name":"F#3","midi":54,"time":141.5997639999994,"velocity":0.6299212598425197,"duration":2.248746252083322},{"name":"C#3","midi":49,"time":141.5997639999994,"velocity":0.6299212598425197,"duration":2.248746252083322},{"name":"F#2","midi":42,"time":141.5997639999994,"velocity":0.6299212598425197,"duration":2.248746252083322},{"name":"G#3","midi":56,"time":143.99975999999938,"velocity":0.6299212598425197,"duration":2.248746252083322},{"name":"D#3","midi":51,"time":143.99975999999938,"velocity":0.6299212598425197,"duration":2.248746252083322},{"name":"G#2","midi":44,"time":143.99975999999938,"velocity":0.6299212598425197,"duration":2.248746252083322},{"name":"C#4","midi":61,"time":146.39975599999937,"velocity":0.6299212598425197,"duration":0.14874975208334718},{"name":"C#3","midi":49,"time":146.39975599999937,"velocity":0.6299212598425197,"duration":0.14874975208334718},{"name":"C#4","midi":61,"time":147.5997539999994,"velocity":0.6299212598425197,"duration":0.14874975208334718},{"name":"C#3","midi":49,"time":147.5997539999994,"velocity":0.6299212598425197,"duration":0.14874975208334718},{"name":"A2","midi":45,"time":148.79975199999942,"velocity":0.6299212598425197,"duration":0.2699995499999943},{"name":"A3","midi":57,"time":149.0997514999994,"velocity":0.6299212598425197,"duration":0.2699995499999943},{"name":"A2","midi":45,"time":149.39975099999938,"velocity":0.6299212598425197,"duration":0.2699995499999943},{"name":"A3","midi":57,"time":149.69975049999937,"velocity":0.6299212598425197,"duration":0.2699995499999943},{"name":"A2","midi":45,"time":149.99974999999935,"velocity":0.6299212598425197,"duration":0.2699995499999943},{"name":"A3","midi":57,"time":150.29974949999934,"velocity":0.6299212598425197,"duration":0.2699995499999943},{"name":"A2","midi":45,"time":150.59974899999932,"velocity":0.6299212598425197,"duration":0.2699995499999943},{"name":"A3","midi":57,"time":150.8997484999993,"velocity":0.6299212598425197,"duration":0.2699995499999943},{"name":"F#2","midi":42,"time":151.1997479999993,"velocity":0.6299212598425197,"duration":0.2699995499999943},{"name":"F#3","midi":54,"time":151.49974749999927,"velocity":0.6299212598425197,"duration":0.2699995499999943},{"name":"F#2","midi":42,"time":151.79974699999926,"velocity":0.6299212598425197,"duration":0.2699995499999943},{"name":"F#3","midi":54,"time":152.09974649999924,"velocity":0.6299212598425197,"duration":0.2699995499999943},{"name":"F#2","midi":42,"time":152.39974599999923,"velocity":0.6299212598425197,"duration":0.2699995499999943},{"name":"F#3","midi":54,"time":152.6997454999992,"velocity":0.6299212598425197,"duration":0.2699995499999943},{"name":"F#2","midi":42,"time":152.9997449999992,"velocity":0.6299212598425197,"duration":0.2699995499999943},{"name":"F#3","midi":54,"time":153.29974449999918,"velocity":0.6299212598425197,"duration":0.2699995499999943},{"name":"G#2","midi":44,"time":153.59974399999916,"velocity":0.6299212598425197,"duration":0.2699995499999943},{"name":"G#3","midi":56,"time":153.89974349999915,"velocity":0.6299212598425197,"duration":0.2699995499999943},{"name":"G#2","midi":44,"time":154.19974299999913,"velocity":0.6299212598425197,"duration":0.2699995499999943},{"name":"G#3","midi":56,"time":154.49974249999912,"velocity":0.6299212598425197,"duration":0.2699995499999943},{"name":"G#2","midi":44,"time":154.7997419999991,"velocity":0.6299212598425197,"duration":0.2699995499999943},{"name":"G#3","midi":56,"time":155.09974149999908,"velocity":0.6299212598425197,"duration":0.2699995499999943},{"name":"G#2","midi":44,"time":155.39974099999907,"velocity":0.6299212598425197,"duration":0.2699995499999943},{"name":"G#3","midi":56,"time":155.69974049999905,"velocity":0.6299212598425197,"duration":0.2699995499999943},{"name":"C#3","midi":49,"time":155.99973999999904,"velocity":0.6299212598425197,"duration":0.2699995499999943},{"name":"C#4","midi":61,"time":156.29973949999902,"velocity":0.6299212598425197,"duration":0.2699995499999943},{"name":"C#3","midi":49,"time":156.599738999999,"velocity":0.6299212598425197,"duration":0.2699995499999943},{"name":"C#4","midi":61,"time":156.899738499999,"velocity":0.6299212598425197,"duration":0.2699995499999943},{"name":"C#3","midi":49,"time":157.19973799999897,"velocity":0.6299212598425197,"duration":0.2699995499999943},{"name":"C#4","midi":61,"time":157.49973749999896,"velocity":0.6299212598425197,"duration":0.2699995499999943},{"name":"C#3","midi":49,"time":157.79973699999894,"velocity":0.6299212598425197,"duration":0.2699995499999943},{"name":"C#4","midi":61,"time":158.09973649999893,"velocity":0.6299212598425197,"duration":0.2699995499999943},{"name":"A1","midi":33,"time":158.3997359999989,"velocity":0.6299212598425197,"duration":0.2699995499999943},{"name":"A2","midi":45,"time":158.6997354999989,"velocity":0.6299212598425197,"duration":0.2699995499999943},{"name":"A1","midi":33,"time":158.99973499999888,"velocity":0.6299212598425197,"duration":0.2699995499999943},{"name":"A2","midi":45,"time":159.29973449999886,"velocity":0.6299212598425197,"duration":0.2699995499999943},{"name":"A1","midi":33,"time":159.59973399999885,"velocity":0.6299212598425197,"duration":0.2699995499999943},{"name":"A2","midi":45,"time":159.89973349999883,"velocity":0.6299212598425197,"duration":0.2699995499999943},{"name":"A1","midi":33,"time":160.19973299999882,"velocity":0.6299212598425197,"duration":0.2699995499999943},{"name":"A2","midi":45,"time":160.4997324999988,"velocity":0.6299212598425197,"duration":0.2699995499999943},{"name":"F#2","midi":42,"time":160.79973199999878,"velocity":0.6299212598425197,"duration":0.2699995499999943},{"name":"F#3","midi":54,"time":161.09973149999877,"velocity":0.6299212598425197,"duration":0.2699995499999943},{"name":"F#2","midi":42,"time":161.39973099999875,"velocity":0.6299212598425197,"duration":0.2699995499999943},{"name":"F#3","midi":54,"time":161.69973049999874,"velocity":0.6299212598425197,"duration":0.2699995499999943},{"name":"F#2","midi":42,"time":161.99972999999872,"velocity":0.6299212598425197,"duration":0.2699995499999943},{"name":"F#3","midi":54,"time":162.2997294999987,"velocity":0.6299212598425197,"duration":0.2699995499999943},{"name":"F#2","midi":42,"time":162.5997289999987,"velocity":0.6299212598425197,"duration":0.2699995499999943},{"name":"F#3","midi":54,"time":162.89972849999867,"velocity":0.6299212598425197,"duration":0.2699995499999943},{"name":"G#2","midi":44,"time":163.19972799999866,"velocity":0.6299212598425197,"duration":0.2699995499999943},{"name":"G#3","midi":56,"time":163.49972749999864,"velocity":0.6299212598425197,"duration":0.2699995499999943},{"name":"G#2","midi":44,"time":163.79972699999863,"velocity":0.6299212598425197,"duration":0.2699995499999943},{"name":"G#3","midi":56,"time":164.0997264999986,"velocity":0.6299212598425197,"duration":0.2699995499999943},{"name":"G#2","midi":44,"time":164.3997259999986,"velocity":0.6299212598425197,"duration":0.2699995499999943},{"name":"G#3","midi":56,"time":164.69972549999858,"velocity":0.6299212598425197,"duration":0.2699995499999943},{"name":"G#2","midi":44,"time":164.99972499999856,"velocity":0.6299212598425197,"duration":0.2699995499999943},{"name":"G#3","midi":56,"time":165.29972449999855,"velocity":0.6299212598425197,"duration":0.2699995499999943},{"name":"C#2","midi":37,"time":165.59972399999853,"velocity":0.6299212598425197,"duration":0.2699995499999943},{"name":"C#3","midi":49,"time":165.89972349999852,"velocity":0.6299212598425197,"duration":0.2699995499999943},{"name":"C#2","midi":37,"time":166.1997229999985,"velocity":0.6299212598425197,"duration":0.2699995499999943},{"name":"C#3","midi":49,"time":166.49972249999848,"velocity":0.6299212598425197,"duration":0.2699995499999943},{"name":"C#2","midi":37,"time":166.79972199999847,"velocity":0.6299212598425197,"duration":0.2699995499999943},{"name":"C#3","midi":49,"time":167.09972149999845,"velocity":0.6299212598425197,"duration":0.2699995499999943},{"name":"C#2","midi":37,"time":167.39972099999844,"velocity":0.6299212598425197,"duration":0.2699995499999943},{"name":"C#3","midi":49,"time":167.69972049999842,"velocity":0.6299212598425197,"duration":0.2699995499999943},{"name":"A1","midi":33,"time":167.9997199999984,"velocity":0.6299212598425197,"duration":0.2699995499999943},{"name":"A2","midi":45,"time":168.2997194999984,"velocity":0.6299212598425197,"duration":0.2699995499999943},{"name":"A1","midi":33,"time":168.59971899999837,"velocity":0.6299212598425197,"duration":0.2699995499999943},{"name":"A2","midi":45,"time":168.89971849999836,"velocity":0.6299212598425197,"duration":0.2699995499999943},{"name":"A1","midi":33,"time":169.19971799999834,"velocity":0.6299212598425197,"duration":0.2699995499999943},{"name":"A2","midi":45,"time":169.49971749999833,"velocity":0.6299212598425197,"duration":0.2699995499999943},{"name":"A1","midi":33,"time":169.7997169999983,"velocity":0.6299212598425197,"duration":0.2699995499999943},{"name":"A2","midi":45,"time":170.0997164999983,"velocity":0.6299212598425197,"duration":0.2699995499999943},{"name":"F#2","midi":42,"time":170.39971599999828,"velocity":0.6299212598425197,"duration":0.2699995499999943},{"name":"F#3","midi":54,"time":170.69971549999826,"velocity":0.6299212598425197,"duration":0.2699995499999943},{"name":"F#2","midi":42,"time":170.99971499999825,"velocity":0.6299212598425197,"duration":0.2699995499999943},{"name":"F#3","midi":54,"time":171.29971449999823,"velocity":0.6299212598425197,"duration":0.2699995499999943},{"name":"F#2","midi":42,"time":171.59971399999822,"velocity":0.6299212598425197,"duration":0.2699995499999943},{"name":"F#3","midi":54,"time":171.8997134999982,"velocity":0.6299212598425197,"duration":0.2699995499999943},{"name":"F#2","midi":42,"time":172.19971299999818,"velocity":0.6299212598425197,"duration":0.2699995499999943},{"name":"F#3","midi":54,"time":172.49971249999817,"velocity":0.6299212598425197,"duration":0.2699995499999943},{"name":"G#2","midi":44,"time":172.79971199999815,"velocity":0.6299212598425197,"duration":0.2699995499999943},{"name":"G#3","midi":56,"time":173.09971149999814,"velocity":0.6299212598425197,"duration":0.2699995499999943},{"name":"G#2","midi":44,"time":173.39971099999812,"velocity":0.6299212598425197,"duration":0.2699995499999943},{"name":"G#3","midi":56,"time":173.6997104999981,"velocity":0.6299212598425197,"duration":0.2699995499999943},{"name":"G#2","midi":44,"time":173.9997099999981,"velocity":0.6299212598425197,"duration":0.2699995499999943},{"name":"G#3","midi":56,"time":174.29970949999807,"velocity":0.6299212598425197,"duration":0.2699995499999943},{"name":"G#2","midi":44,"time":174.59970899999806,"velocity":0.6299212598425197,"duration":0.2699995499999943},{"name":"G#3","midi":56,"time":174.89970849999804,"velocity":0.6299212598425197,"duration":0.2699995499999943},{"name":"C#2","midi":37,"time":175.19970799999803,"velocity":0.6299212598425197,"duration":0.2699995499999943},{"name":"C#3","midi":49,"time":175.499707499998,"velocity":0.6299212598425197,"duration":0.2699995499999943},{"name":"C#2","midi":37,"time":175.799706999998,"velocity":0.6299212598425197,"duration":0.2699995499999943},{"name":"C#3","midi":49,"time":176.09970649999798,"velocity":0.6299212598425197,"duration":0.2699995499999943},{"name":"C#2","midi":37,"time":176.39970599999796,"velocity":0.6299212598425197,"duration":0.2699995499999943},{"name":"C#3","midi":49,"time":176.69970549999795,"velocity":0.6299212598425197,"duration":0.2699995499999943},{"name":"C#2","midi":37,"time":176.99970499999793,"velocity":0.6299212598425197,"duration":0.2699995499999943},{"name":"C#3","midi":49,"time":177.29970449999792,"velocity":0.6299212598425197,"duration":0.2699995499999943},{"name":"A2","midi":45,"time":177.5997039999979,"velocity":0.6299212598425197,"duration":0.29874950208332507},{"name":"A1","midi":33,"time":177.5997039999979,"velocity":0.6299212598425197,"duration":0.29874950208332507},{"name":"A2","midi":45,"time":178.1997029999979,"velocity":0.6299212598425197,"duration":1.0799982000000057},{"name":"A1","midi":33,"time":178.1997029999979,"velocity":0.6299212598425197,"duration":1.0799982000000057},{"name":"A1","midi":33,"time":179.3997009999979,"velocity":0.6299212598425197,"duration":0.2699995499999943},{"name":"A2","midi":45,"time":179.69970049999787,"velocity":0.6299212598425197,"duration":0.2699995499999943},{"name":"F#2","midi":42,"time":179.99969999999786,"velocity":0.6299212598425197,"duration":0.2699995499999943},{"name":"F#3","midi":54,"time":180.29969949999784,"velocity":0.6299212598425197,"duration":0.2699995499999943},{"name":"F#2","midi":42,"time":180.59969899999783,"velocity":0.6299212598425197,"duration":0.2699995499999943},{"name":"F#3","midi":54,"time":180.8996984999978,"velocity":0.6299212598425197,"duration":0.2699995499999943},{"name":"F#2","midi":42,"time":181.1996979999978,"velocity":0.6299212598425197,"duration":0.2699995499999943},{"name":"F#3","midi":54,"time":181.49969749999778,"velocity":0.6299212598425197,"duration":0.2699995499999943},{"name":"F#2","midi":42,"time":181.79969699999776,"velocity":0.6299212598425197,"duration":0.2699995499999943},{"name":"F#3","midi":54,"time":182.09969649999775,"velocity":0.6299212598425197,"duration":0.2699995499999943},{"name":"G#2","midi":44,"time":182.39969599999773,"velocity":0.6299212598425197,"duration":0.2699995499999943},{"name":"G#3","midi":56,"time":182.69969549999772,"velocity":0.6299212598425197,"duration":0.2699995499999943},{"name":"G#2","midi":44,"time":182.9996949999977,"velocity":0.6299212598425197,"duration":0.2699995499999943},{"name":"G#3","midi":56,"time":183.29969449999768,"velocity":0.6299212598425197,"duration":0.2699995499999943},{"name":"G#2","midi":44,"time":183.59969399999767,"velocity":0.6299212598425197,"duration":0.2699995499999943},{"name":"G#3","midi":56,"time":183.89969349999765,"velocity":0.6299212598425197,"duration":0.2699995499999943},{"name":"G#2","midi":44,"time":184.19969299999764,"velocity":0.6299212598425197,"duration":0.2699995499999943},{"name":"G#3","midi":56,"time":184.49969249999762,"velocity":0.6299212598425197,"duration":0.2699995499999943},{"name":"C#3","midi":49,"time":184.7996919999976,"velocity":0.6299212598425197,"duration":0.14874975208334718},{"name":"C#2","midi":37,"time":184.7996919999976,"velocity":0.6299212598425197,"duration":0.14874975208334718},{"name":"C#3","midi":49,"time":185.09969149999762,"velocity":0.6299212598425197,"duration":0.14874975208334718},{"name":"C#2","midi":37,"time":185.09969149999762,"velocity":0.6299212598425197,"duration":0.14874975208334718},{"name":"C#3","midi":49,"time":185.39969099999763,"velocity":0.6299212598425197,"duration":0.14874975208334718},{"name":"C#2","midi":37,"time":185.39969099999763,"velocity":0.6299212598425197,"duration":0.14874975208334718},{"name":"C#3","midi":49,"time":185.69969049999764,"velocity":0.6299212598425197,"duration":0.14874975208334718},{"name":"C#2","midi":37,"time":185.69969049999764,"velocity":0.6299212598425197,"duration":0.14874975208334718},{"name":"C#3","midi":49,"time":185.99968999999766,"velocity":0.6299212598425197,"duration":1.0799982000000057},{"name":"C#2","midi":37,"time":185.99968999999766,"velocity":0.6299212598425197,"duration":1.0799982000000057},{"name":"A2","midi":45,"time":187.19968799999765,"velocity":0.6299212598425197,"duration":0.29874950208332507},{"name":"A1","midi":33,"time":187.19968799999765,"velocity":0.6299212598425197,"duration":0.29874950208332507},{"name":"A2","midi":45,"time":187.79968699999765,"velocity":0.6299212598425197,"duration":1.0799982000000057},{"name":"A1","midi":33,"time":187.79968699999765,"velocity":0.6299212598425197,"duration":1.0799982000000057},{"name":"A1","midi":33,"time":188.99968499999764,"velocity":0.6299212598425197,"duration":0.2699995499999943},{"name":"A2","midi":45,"time":189.29968449999762,"velocity":0.6299212598425197,"duration":0.2699995499999943},{"name":"F#2","midi":42,"time":189.5996839999976,"velocity":0.6299212598425197,"duration":0.2699995499999943},{"name":"F#3","midi":54,"time":189.8996834999976,"velocity":0.6299212598425197,"duration":0.2699995499999943},{"name":"F#2","midi":42,"time":190.19968299999758,"velocity":0.6299212598425197,"duration":0.2699995499999943},{"name":"F#3","midi":54,"time":190.49968249999756,"velocity":0.6299212598425197,"duration":0.2699995499999943},{"name":"F#2","midi":42,"time":190.79968199999755,"velocity":0.6299212598425197,"duration":0.2699995499999943},{"name":"F#3","midi":54,"time":191.09968149999753,"velocity":0.6299212598425197,"duration":0.2699995499999943},{"name":"F#2","midi":42,"time":191.3996809999975,"velocity":0.6299212598425197,"duration":0.2699995499999943},{"name":"F#3","midi":54,"time":191.6996804999975,"velocity":0.6299212598425197,"duration":0.2699995499999943},{"name":"G#2","midi":44,"time":191.99967999999748,"velocity":0.6299212598425197,"duration":0.2699995499999943},{"name":"G#3","midi":56,"time":192.29967949999747,"velocity":0.6299212598425197,"duration":0.2699995499999943},{"name":"G#2","midi":44,"time":192.59967899999745,"velocity":0.6299212598425197,"duration":0.2699995499999943},{"name":"G#3","midi":56,"time":192.89967849999744,"velocity":0.6299212598425197,"duration":0.2699995499999943},{"name":"G#2","midi":44,"time":193.19967799999742,"velocity":0.6299212598425197,"duration":0.2699995499999943},{"name":"G#3","midi":56,"time":193.4996774999974,"velocity":0.6299212598425197,"duration":0.2699995499999943},{"name":"G#2","midi":44,"time":193.7996769999974,"velocity":0.6299212598425197,"duration":0.2699995499999943},{"name":"G#3","midi":56,"time":194.09967649999737,"velocity":0.6299212598425197,"duration":0.2699995499999943},{"name":"C#2","midi":37,"time":194.39967599999736,"velocity":0.6299212598425197,"duration":0.2699995499999943},{"name":"C#3","midi":49,"time":194.69967549999734,"velocity":0.6299212598425197,"duration":0.2699995499999943},{"name":"C#2","midi":37,"time":194.99967499999732,"velocity":0.6299212598425197,"duration":0.2699995499999943},{"name":"C#3","midi":49,"time":195.2996744999973,"velocity":0.6299212598425197,"duration":0.2699995499999943},{"name":"C#3","midi":49,"time":195.5996739999973,"velocity":0.6299212598425197,"duration":0.14874975208334718},{"name":"C#2","midi":37,"time":195.5996739999973,"velocity":0.6299212598425197,"duration":0.14874975208334718},{"name":"C#3","midi":49,"time":195.8996734999973,"velocity":0.6299212598425197,"duration":0.14874975208334718},{"name":"C#2","midi":37,"time":195.8996734999973,"velocity":0.6299212598425197,"duration":0.14874975208334718},{"name":"C#3","midi":49,"time":196.19967299999732,"velocity":0.6299212598425197,"duration":0.29874950208332507},{"name":"C#2","midi":37,"time":196.19967299999732,"velocity":0.6299212598425197,"duration":0.29874950208332507}]}]}