{"header":{"title":"In My Life","artist":"The Beatles","source":"https://musescore.com/user/7919046/scores/5251155","bpm":120,"duration":125.39791666666667},"tracks":[{"instrument_number":0,"notes":[{"duration":0.4739583333333333,"durationTicks":455,"midi":61,"name":"C#4","ticks":0,"time":0,"velocity":0.5039370078740157},{"duration":0.47395833333333337,"durationTicks":455,"midi":69,"name":"A4","ticks":480,"time":0.5,"velocity":0.5039370078740157},{"duration":0.23645833333333344,"durationTicks":227,"midi":61,"name":"C#4","ticks":960,"time":1,"velocity":0.5039370078740157},{"duration":0.23645833333333344,"durationTicks":227,"midi":62,"name":"D4","ticks":1200,"time":1.25,"velocity":0.5039370078740157},{"duration":0.23645833333333344,"durationTicks":227,"midi":64,"name":"E4","ticks":1440,"time":1.5,"velocity":0.5039370078740157},{"duration":2.136458333333333,"durationTicks":2051,"midi":68,"name":"G#4","ticks":1680,"time":1.75,"velocity":0.5039370078740157},{"duration":0.47395833333333304,"durationTicks":455,"midi":61,"name":"C#4","ticks":3840,"time":4,"velocity":0.5039370078740157},{"duration":0.47395833333333304,"durationTicks":455,"midi":69,"name":"A4","ticks":4320,"time":4.5,"velocity":0.5039370078740157},{"duration":0.23645833333333321,"durationTicks":227,"midi":61,"name":"C#4","ticks":4800,"time":5,"velocity":0.5039370078740157},{"duration":0.23645833333333321,"durationTicks":227,"midi":62,"name":"D4","ticks":5040,"time":5.25,"velocity":0.5039370078740157},{"duration":0.23645833333333321,"durationTicks":227,"midi":64,"name":"E4","ticks":5280,"time":5.5,"velocity":0.5039370078740157},{"duration":1.661458333333333,"durationTicks":1595,"midi":68,"name":"G#4","ticks":5520,"time":5.75,"velocity":0.5039370078740157},{"duration":0.23645833333333321,"durationTicks":227,"midi":64,"name":"E4","ticks":7200,"time":7.5,"velocity":0.5039370078740157},{"duration":0.23645833333333321,"durationTicks":227,"midi":66,"name":"F#4","ticks":7440,"time":7.75,"velocity":0.5039370078740157},{"duration":0.4739583333333339,"durationTicks":455,"midi":71,"name":"B4","ticks":7680,"time":8,"velocity":0.5039370078740157},{"duration":0.4739583333333339,"durationTicks":455,"midi":69,"name":"A4","ticks":8160,"time":8.5,"velocity":0.5039370078740157},{"duration":0.4739583333333339,"durationTicks":455,"midi":71,"name":"B4","ticks":8640,"time":9,"velocity":0.5039370078740157},{"duration":0.4739583333333339,"durationTicks":455,"midi":73,"name":"C#5","ticks":9120,"time":9.5,"velocity":0.5039370078740157},{"duration":0.23645833333333321,"durationTicks":227,"midi":76,"name":"E5","ticks":9600,"time":10,"velocity":0.5039370078740157},{"duration":0.7114583333333329,"durationTicks":683,"midi":73,"name":"C#5","ticks":9840,"time":10.25,"velocity":0.5039370078740157},{"duration":0.23645833333333321,"durationTicks":227,"midi":71,"name":"B4","ticks":11040,"time":11.5,"velocity":0.5039370078740157},{"duration":0.23645833333333321,"durationTicks":227,"midi":73,"name":"C#5","ticks":11280,"time":11.75,"velocity":0.5039370078740157},{"duration":0.7114583333333329,"durationTicks":683,"midi":71,"name":"B4","ticks":11520,"time":12,"velocity":0.5039370078740157},{"duration":0.11770833333333286,"durationTicks":113,"midi":73,"name":"C#5","ticks":12240,"time":12.75,"velocity":0.5039370078740157},{"duration":0.11770833333333286,"durationTicks":113,"midi":71,"name":"B4","ticks":12360,"time":12.875,"velocity":0.5039370078740157},{"duration":0.7114583333333329,"durationTicks":683,"midi":69,"name":"A4","ticks":12480,"time":13,"velocity":0.5039370078740157},{"duration":0.23645833333333321,"durationTicks":227,"midi":65,"name":"F4","ticks":13200,"time":13.75,"velocity":0.5039370078740157},{"duration":0.23645833333333321,"durationTicks":227,"midi":64,"name":"E4","ticks":13440,"time":14,"velocity":0.5039370078740157},{"duration":0.4739583333333339,"durationTicks":455,"midi":73,"name":"C#5","ticks":13680,"time":14.25,"velocity":0.5039370078740157},{"duration":0.7114583333333329,"durationTicks":683,"midi":73,"name":"C#5","ticks":14160,"time":14.75,"velocity":0.5039370078740157},{"duration":0.23645833333333321,"durationTicks":227,"midi":64,"name":"E4","ticks":14880,"time":15.5,"velocity":0.5039370078740157},{"duration":0.23645833333333321,"durationTicks":227,"midi":66,"name":"F#4","ticks":15120,"time":15.75,"velocity":0.5039370078740157},{"duration":0.47395833333333215,"durationTicks":455,"midi":71,"name":"B4","ticks":15360,"time":16,"velocity":0.5039370078740157},{"duration":0.47395833333333215,"durationTicks":455,"midi":69,"name":"A4","ticks":15840,"time":16.5,"velocity":0.5039370078740157},{"duration":0.47395833333333215,"durationTicks":455,"midi":71,"name":"B4","ticks":16320,"time":17,"velocity":0.5039370078740157},{"duration":0.47395833333333215,"durationTicks":455,"midi":73,"name":"C#5","ticks":16800,"time":17.5,"velocity":0.5039370078740157},{"duration":0.236458333333335,"durationTicks":227,"midi":76,"name":"E5","ticks":17280,"time":18,"velocity":0.5039370078740157},{"duration":0.7114583333333329,"durationTicks":683,"midi":73,"name":"C#5","ticks":17520,"time":18.25,"velocity":0.5039370078740157},{"duration":0.236458333333335,"durationTicks":227,"midi":71,"name":"B4","ticks":18720,"time":19.5,"velocity":0.5039370078740157},{"duration":0.236458333333335,"durationTicks":227,"midi":73,"name":"C#5","ticks":18960,"time":19.75,"velocity":0.5039370078740157},{"duration":0.7114583333333329,"durationTicks":683,"midi":71,"name":"B4","ticks":19200,"time":20,"velocity":0.5039370078740157},{"duration":0.11770833333333286,"durationTicks":113,"midi":73,"name":"C#5","ticks":19920,"time":20.75,"velocity":0.5039370078740157},{"duration":0.11770833333333286,"durationTicks":113,"midi":71,"name":"B4","ticks":20040,"time":20.875,"velocity":0.5039370078740157},{"duration":0.7114583333333329,"durationTicks":683,"midi":69,"name":"A4","ticks":20160,"time":21,"velocity":0.5039370078740157},{"duration":0.236458333333335,"durationTicks":227,"midi":65,"name":"F4","ticks":20880,"time":21.75,"velocity":0.5039370078740157},{"duration":0.47395833333333215,"durationTicks":455,"midi":64,"name":"E4","ticks":21120,"time":22,"velocity":0.5039370078740157},{"duration":0.236458333333335,"durationTicks":227,"midi":73,"name":"C#5","ticks":21600,"time":22.5,"velocity":0.5039370078740157},{"duration":0.7114583333333329,"durationTicks":683,"midi":73,"name":"C#5","ticks":21840,"time":22.75,"velocity":0.5039370078740157},{"duration":0.236458333333335,"durationTicks":227,"midi":69,"name":"A4","ticks":22560,"time":23.5,"velocity":0.5039370078740157},{"duration":0.236458333333335,"durationTicks":227,"midi":71,"name":"B4","ticks":22800,"time":23.75,"velocity":0.5039370078740157},{"duration":0.47395833333333215,"durationTicks":455,"midi":73,"name":"C#5","ticks":23040,"time":24,"velocity":0.5039370078740157},{"duration":0.47395833333333215,"durationTicks":455,"midi":71,"name":"B4","ticks":23520,"time":24.5,"velocity":0.5039370078740157},{"duration":0.236458333333335,"durationTicks":227,"midi":69,"name":"A4","ticks":24000,"time":25,"velocity":0.5039370078740157},{"duration":0.236458333333335,"durationTicks":227,"midi":66,"name":"F#4","ticks":24240,"time":25.25,"velocity":0.5039370078740157},{"duration":0.236458333333335,"durationTicks":227,"midi":66,"name":"F#4","ticks":24480,"time":25.5,"velocity":0.5039370078740157},{"duration":0.236458333333335,"durationTicks":227,"midi":69,"name":"A4","ticks":24720,"time":25.75,"velocity":0.5039370078740157},{"duration":0.236458333333335,"durationTicks":227,"midi":73,"name":"C#5","ticks":24960,"time":26,"velocity":0.5039370078740157},{"duration":0.7114583333333329,"durationTicks":683,"midi":71,"name":"B4","ticks":25200,"time":26.25,"velocity":0.5039370078740157},{"duration":0.236458333333335,"durationTicks":227,"midi":73,"name":"C#5","ticks":26640,"time":27.75,"velocity":0.5039370078740157},{"duration":0.236458333333335,"durationTicks":227,"midi":74,"name":"D5","ticks":26880,"time":28,"velocity":0.5039370078740157},{"duration":0.236458333333335,"durationTicks":227,"midi":73,"name":"C#5","ticks":27120,"time":28.25,"velocity":0.5039370078740157},{"duration":0.236458333333335,"durationTicks":227,"midi":71,"name":"B4","ticks":27360,"time":28.5,"velocity":0.5039370078740157},{"duration":0.9489583333333336,"durationTicks":911,"midi":69,"name":"A4","ticks":27600,"time":28.75,"velocity":0.5039370078740157},{"duration":0.236458333333335,"durationTicks":227,"midi":66,"name":"F#4","ticks":28560,"time":29.75,"velocity":0.5039370078740157},{"duration":0.236458333333335,"durationTicks":227,"midi":65,"name":"F4","ticks":28800,"time":30,"velocity":0.5039370078740157},{"duration":0.236458333333335,"durationTicks":227,"midi":73,"name":"C#5","ticks":29040,"time":30.25,"velocity":0.5039370078740157},{"duration":0.236458333333335,"durationTicks":227,"midi":73,"name":"C#5","ticks":29280,"time":30.5,"velocity":0.5039370078740157},{"duration":0.7114583333333329,"durationTicks":683,"midi":73,"name":"C#5","ticks":29520,"time":30.75,"velocity":0.5039370078740157},{"duration":0.236458333333335,"durationTicks":227,"midi":69,"name":"A4","ticks":30240,"time":31.5,"velocity":0.5039370078740157},{"duration":0.236458333333335,"durationTicks":227,"midi":71,"name":"B4","ticks":30480,"time":31.75,"velocity":0.5039370078740157},{"duration":0.23645833333333144,"durationTicks":227,"midi":73,"name":"C#5","ticks":30720,"time":32,"velocity":0.5039370078740157},{"duration":0.23645833333333144,"durationTicks":227,"midi":71,"name":"B4","ticks":30960,"time":32.25,"velocity":0.5039370078740157},{"duration":0.23645833333333144,"durationTicks":227,"midi":71,"name":"B4","ticks":31200,"time":32.5,"velocity":0.5039370078740157},{"duration":0.23645833333333144,"durationTicks":227,"midi":69,"name":"A4","ticks":31440,"time":32.75,"velocity":0.5039370078740157},{"duration":0.23645833333333144,"durationTicks":227,"midi":69,"name":"A4","ticks":31680,"time":33,"velocity":0.5039370078740157},{"duration":0.23645833333333144,"durationTicks":227,"midi":66,"name":"F#4","ticks":31920,"time":33.25,"velocity":0.5039370078740157},{"duration":0.23645833333333144,"durationTicks":227,"midi":66,"name":"F#4","ticks":32160,"time":33.5,"velocity":0.5039370078740157},{"duration":0.23645833333333144,"durationTicks":227,"midi":69,"name":"A4","ticks":32400,"time":33.75,"velocity":0.5039370078740157},{"duration":0.4739583333333357,"durationTicks":455,"midi":73,"name":"C#5","ticks":32640,"time":34,"velocity":0.5039370078740157},{"duration":0.94895833333333,"durationTicks":911,"midi":71,"name":"B4","ticks":33120,"time":34.5,"velocity":0.5039370078740157},{"duration":0.4739583333333357,"durationTicks":455,"midi":66,"name":"F#4","ticks":34080,"time":35.5,"velocity":0.5039370078740157},{"duration":0.23645833333333144,"durationTicks":227,"midi":72,"name":"C5","ticks":34560,"time":36,"velocity":0.5039370078740157},{"duration":0.4739583333333357,"durationTicks":455,"midi":71,"name":"B4","ticks":34800,"time":36.25,"velocity":0.5039370078740157},{"duration":0.11770833333333286,"durationTicks":113,"midi":69,"name":"A4","ticks":35280,"time":36.75,"velocity":0.5039370078740157},{"duration":0.11770833333333286,"durationTicks":113,"midi":71,"name":"B4","ticks":35400,"time":36.875,"velocity":0.5039370078740157},{"duration":0.7114583333333329,"durationTicks":683,"midi":69,"name":"A4","ticks":35520,"time":37,"velocity":0.5039370078740157},{"duration":0.23645833333333144,"durationTicks":227,"midi":65,"name":"F4","ticks":36240,"time":37.75,"velocity":0.5039370078740157},{"duration":0.4739583333333357,"durationTicks":455,"midi":64,"name":"E4","ticks":36480,"time":38,"velocity":0.5039370078740157},{"duration":0.23645833333333144,"durationTicks":227,"midi":73,"name":"C#5","ticks":36960,"time":38.5,"velocity":0.5039370078740157},{"duration":1.1864583333333343,"durationTicks":1139,"midi":73,"name":"C#5","ticks":37200,"time":38.75,"velocity":0.5039370078740157},{"duration":0.4739583333333357,"durationTicks":455,"midi":61,"name":"C#4","ticks":38400,"time":40,"velocity":0.5039370078740157},{"duration":0.4739583333333357,"durationTicks":455,"midi":69,"name":"A4","ticks":38880,"time":40.5,"velocity":0.5039370078740157},{"duration":0.23645833333333144,"durationTicks":227,"midi":61,"name":"C#4","ticks":39360,"time":41,"velocity":0.5039370078740157},{"duration":0.23645833333333144,"durationTicks":227,"midi":62,"name":"D4","ticks":39600,"time":41.25,"velocity":0.5039370078740157},{"duration":0.23645833333333144,"durationTicks":227,"midi":64,"name":"E4","ticks":39840,"time":41.5,"velocity":0.5039370078740157},{"duration":1.6614583333333357,"durationTicks":1595,"midi":68,"name":"G#4","ticks":40080,"time":41.75,"velocity":0.5039370078740157},{"duration":0.23645833333333144,"durationTicks":227,"midi":64,"name":"E4","ticks":41760,"time":43.5,"velocity":0.5039370078740157},{"duration":0.23645833333333144,"durationTicks":227,"midi":66,"name":"F#4","ticks":42000,"time":43.75,"velocity":0.5039370078740157},{"duration":0.4739583333333357,"durationTicks":455,"midi":71,"name":"B4","ticks":42240,"time":44,"velocity":0.5039370078740157},{"duration":0.4739583333333357,"durationTicks":455,"midi":69,"name":"A4","ticks":42720,"time":44.5,"velocity":0.5039370078740157},{"duration":0.4739583333333357,"durationTicks":455,"midi":71,"name":"B4","ticks":43200,"time":45,"velocity":0.5039370078740157},{"duration":0.4739583333333357,"durationTicks":455,"midi":73,"name":"C#5","ticks":43680,"time":45.5,"velocity":0.5039370078740157},{"duration":0.23645833333333144,"durationTicks":227,"midi":76,"name":"E5","ticks":44160,"time":46,"velocity":0.5039370078740157},{"duration":0.7114583333333329,"durationTicks":683,"midi":73,"name":"C#5","ticks":44400,"time":46.25,"velocity":0.5039370078740157},{"duration":0.23645833333333144,"durationTicks":227,"midi":71,"name":"B4","ticks":45600,"time":47.5,"velocity":0.5039370078740157},{"duration":0.23645833333333144,"durationTicks":227,"midi":73,"name":"C#5","ticks":45840,"time":47.75,"velocity":0.5039370078740157},{"duration":0.7114583333333329,"durationTicks":683,"midi":71,"name":"B4","ticks":46080,"time":48,"velocity":0.5039370078740157},{"duration":0.11770833333333286,"durationTicks":113,"midi":73,"name":"C#5","ticks":46800,"time":48.75,"velocity":0.5039370078740157},{"duration":0.11770833333333286,"durationTicks":113,"midi":71,"name":"B4","ticks":46920,"time":48.875,"velocity":0.5039370078740157},{"duration":0.7114583333333329,"durationTicks":683,"midi":69,"name":"A4","ticks":47040,"time":49,"velocity":0.5039370078740157},{"duration":0.23645833333333144,"durationTicks":227,"midi":65,"name":"F4","ticks":47760,"time":49.75,"velocity":0.5039370078740157},{"duration":0.23645833333333144,"durationTicks":227,"midi":64,"name":"E4","ticks":48000,"time":50,"velocity":0.5039370078740157},{"duration":0.4739583333333357,"durationTicks":455,"midi":73,"name":"C#5","ticks":48240,"time":50.25,"velocity":0.5039370078740157},{"duration":0.7114583333333329,"durationTicks":683,"midi":73,"name":"C#5","ticks":48720,"time":50.75,"velocity":0.5039370078740157},{"duration":0.23645833333333144,"durationTicks":227,"midi":64,"name":"E4","ticks":49440,"time":51.5,"velocity":0.5039370078740157},{"duration":0.23645833333333144,"durationTicks":227,"midi":66,"name":"F#4","ticks":49680,"time":51.75,"velocity":0.5039370078740157},{"duration":0.4739583333333357,"durationTicks":455,"midi":71,"name":"B4","ticks":49920,"time":52,"velocity":0.5039370078740157},{"duration":0.4739583333333357,"durationTicks":455,"midi":69,"name":"A4","ticks":50400,"time":52.5,"velocity":0.5039370078740157},{"duration":0.4739583333333357,"durationTicks":455,"midi":71,"name":"B4","ticks":50880,"time":53,"velocity":0.5039370078740157},{"duration":0.4739583333333357,"durationTicks":455,"midi":73,"name":"C#5","ticks":51360,"time":53.5,"velocity":0.5039370078740157},{"duration":0.23645833333333144,"durationTicks":227,"midi":76,"name":"E5","ticks":51840,"time":54,"velocity":0.5039370078740157},{"duration":0.7114583333333329,"durationTicks":683,"midi":73,"name":"C#5","ticks":52080,"time":54.25,"velocity":0.5039370078740157},{"duration":0.23645833333333144,"durationTicks":227,"midi":71,"name":"B4","ticks":53280,"time":55.5,"velocity":0.5039370078740157},{"duration":0.23645833333333144,"durationTicks":227,"midi":73,"name":"C#5","ticks":53520,"time":55.75,"velocity":0.5039370078740157},{"duration":0.7114583333333329,"durationTicks":683,"midi":71,"name":"B4","ticks":53760,"time":56,"velocity":0.5039370078740157},{"duration":0.11770833333333286,"durationTicks":113,"midi":73,"name":"C#5","ticks":54480,"time":56.75,"velocity":0.5039370078740157},{"duration":0.11770833333333286,"durationTicks":113,"midi":71,"name":"B4","ticks":54600,"time":56.875,"velocity":0.5039370078740157},{"duration":0.7114583333333329,"durationTicks":683,"midi":69,"name":"A4","ticks":54720,"time":57,"velocity":0.5039370078740157},{"duration":0.23645833333333144,"durationTicks":227,"midi":65,"name":"F4","ticks":55440,"time":57.75,"velocity":0.5039370078740157},{"duration":0.4739583333333357,"durationTicks":455,"midi":64,"name":"E4","ticks":55680,"time":58,"velocity":0.5039370078740157},{"duration":0.23645833333333144,"durationTicks":227,"midi":73,"name":"C#5","ticks":56160,"time":58.5,"velocity":0.5039370078740157},{"duration":0.7114583333333329,"durationTicks":683,"midi":73,"name":"C#5","ticks":56400,"time":58.75,"velocity":0.5039370078740157},{"duration":0.23645833333333144,"durationTicks":227,"midi":69,"name":"A4","ticks":57120,"time":59.5,"velocity":0.5039370078740157},{"duration":0.23645833333333144,"durationTicks":227,"midi":71,"name":"B4","ticks":57360,"time":59.75,"velocity":0.5039370078740157},{"duration":0.4739583333333357,"durationTicks":455,"midi":73,"name":"C#5","ticks":57600,"time":60,"velocity":0.5039370078740157},{"duration":0.4739583333333357,"durationTicks":455,"midi":71,"name":"B4","ticks":58080,"time":60.5,"velocity":0.5039370078740157},{"duration":0.23645833333333144,"durationTicks":227,"midi":69,"name":"A4","ticks":58560,"time":61,"velocity":0.5039370078740157},{"duration":0.23645833333333144,"durationTicks":227,"midi":66,"name":"F#4","ticks":58800,"time":61.25,"velocity":0.5039370078740157},{"duration":0.23645833333333144,"durationTicks":227,"midi":66,"name":"F#4","ticks":59040,"time":61.5,"velocity":0.5039370078740157},{"duration":0.23645833333333144,"durationTicks":227,"midi":69,"name":"A4","ticks":59280,"time":61.75,"velocity":0.5039370078740157},{"duration":0.23645833333333144,"durationTicks":227,"midi":73,"name":"C#5","ticks":59520,"time":62,"velocity":0.5039370078740157},{"duration":0.7114583333333329,"durationTicks":683,"midi":71,"name":"B4","ticks":59760,"time":62.25,"velocity":0.5039370078740157},{"duration":0.23645833333333144,"durationTicks":227,"midi":73,"name":"C#5","ticks":61200,"time":63.75,"velocity":0.5039370078740157},{"duration":0.23645833333333144,"durationTicks":227,"midi":74,"name":"D5","ticks":61440,"time":64,"velocity":0.5039370078740157},{"duration":0.23645833333333144,"durationTicks":227,"midi":73,"name":"C#5","ticks":61680,"time":64.25,"velocity":0.5039370078740157},{"duration":0.23645833333333144,"durationTicks":227,"midi":71,"name":"B4","ticks":61920,"time":64.5,"velocity":0.5039370078740157},{"duration":0.9489583333333371,"durationTicks":911,"midi":69,"name":"A4","ticks":62160,"time":64.75,"velocity":0.5039370078740157},{"duration":0.23645833333333144,"durationTicks":227,"midi":66,"name":"F#4","ticks":63120,"time":65.75,"velocity":0.5039370078740157},{"duration":0.23645833333333144,"durationTicks":227,"midi":65,"name":"F4","ticks":63360,"time":66,"velocity":0.5039370078740157},{"duration":0.23645833333333144,"durationTicks":227,"midi":73,"name":"C#5","ticks":63600,"time":66.25,"velocity":0.5039370078740157},{"duration":0.23645833333333144,"durationTicks":227,"midi":73,"name":"C#5","ticks":63840,"time":66.5,"velocity":0.5039370078740157},{"duration":0.71145833333334,"durationTicks":683,"midi":73,"name":"C#5","ticks":64080,"time":66.75,"velocity":0.5039370078740157},{"duration":0.23645833333333144,"durationTicks":227,"midi":69,"name":"A4","ticks":64800,"time":67.5,"velocity":0.5039370078740157},{"duration":0.23645833333333144,"durationTicks":227,"midi":71,"name":"B4","ticks":65040,"time":67.75,"velocity":0.5039370078740157},{"duration":0.23645833333333144,"durationTicks":227,"midi":73,"name":"C#5","ticks":65280,"time":68,"velocity":0.5039370078740157},{"duration":0.23645833333333144,"durationTicks":227,"midi":71,"name":"B4","ticks":65520,"time":68.25,"velocity":0.5039370078740157},{"duration":0.23645833333333144,"durationTicks":227,"midi":71,"name":"B4","ticks":65760,"time":68.5,"velocity":0.5039370078740157},{"duration":0.23645833333333144,"durationTicks":227,"midi":69,"name":"A4","ticks":66000,"time":68.75,"velocity":0.5039370078740157},{"duration":0.23645833333333144,"durationTicks":227,"midi":69,"name":"A4","ticks":66240,"time":69,"velocity":0.5039370078740157},{"duration":0.23645833333333144,"durationTicks":227,"midi":66,"name":"F#4","ticks":66480,"time":69.25,"velocity":0.5039370078740157},{"duration":0.23645833333333144,"durationTicks":227,"midi":66,"name":"F#4","ticks":66720,"time":69.5,"velocity":0.5039370078740157},{"duration":0.23645833333333144,"durationTicks":227,"midi":69,"name":"A4","ticks":66960,"time":69.75,"velocity":0.5039370078740157},{"duration":0.4739583333333286,"durationTicks":455,"midi":73,"name":"C#5","ticks":67200,"time":70,"velocity":0.5039370078740157},{"duration":0.9489583333333371,"durationTicks":911,"midi":71,"name":"B4","ticks":67680,"time":70.5,"velocity":0.5039370078740157},{"duration":0.4739583333333286,"durationTicks":455,"midi":66,"name":"F#4","ticks":68640,"time":71.5,"velocity":0.5039370078740157},{"duration":0.23645833333333144,"durationTicks":227,"midi":72,"name":"C5","ticks":69120,"time":72,"velocity":0.5039370078740157},{"duration":0.4739583333333286,"durationTicks":455,"midi":71,"name":"B4","ticks":69360,"time":72.25,"velocity":0.5039370078740157},{"duration":0.11770833333333997,"durationTicks":113,"midi":69,"name":"A4","ticks":69840,"time":72.75,"velocity":0.5039370078740157},{"duration":0.11770833333333997,"durationTicks":113,"midi":71,"name":"B4","ticks":69960,"time":72.875,"velocity":0.5039370078740157},{"duration":0.71145833333334,"durationTicks":683,"midi":69,"name":"A4","ticks":70080,"time":73,"velocity":0.5039370078740157},{"duration":0.23645833333333144,"durationTicks":227,"midi":65,"name":"F4","ticks":70800,"time":73.75,"velocity":0.5039370078740157},{"duration":0.4739583333333286,"durationTicks":455,"midi":64,"name":"E4","ticks":71040,"time":74,"velocity":0.5039370078740157},{"duration":0.23645833333333144,"durationTicks":227,"midi":73,"name":"C#5","ticks":71520,"time":74.5,"velocity":0.5039370078740157},{"duration":1.1864583333333343,"durationTicks":1139,"midi":73,"name":"C#5","ticks":71760,"time":74.75,"velocity":0.5039370078740157},{"duration":0.11770833333333997,"durationTicks":113,"midi":69,"name":"A4","ticks":73200,"time":76.25,"velocity":0.5039370078740157},{"duration":0.11770833333333997,"durationTicks":113,"midi":71,"name":"B4","ticks":73320,"time":76.375,"velocity":0.5039370078740157},{"duration":0.23645833333333144,"durationTicks":227,"midi":73,"name":"C#5","ticks":73440,"time":76.5,"velocity":0.5039370078740157},{"duration":0.23645833333333144,"durationTicks":227,"midi":69,"name":"A4","ticks":73680,"time":76.75,"velocity":0.5039370078740157},{"duration":0.23645833333333144,"durationTicks":227,"midi":76,"name":"E5","ticks":73920,"time":77,"velocity":0.5039370078740157},{"duration":0.23645833333333144,"durationTicks":227,"midi":71,"name":"B4","ticks":74160,"time":77.25,"velocity":0.5039370078740157},{"duration":0.23645833333333144,"durationTicks":227,"midi":64,"name":"E4","ticks":74400,"time":77.5,"velocity":0.5039370078740157},{"duration":0.23645833333333144,"durationTicks":227,"midi":71,"name":"B4","ticks":74640,"time":77.75,"velocity":0.5039370078740157},{"duration":0.11770833333333997,"durationTicks":113,"midi":66,"name":"F#4","ticks":75120,"time":78.25,"velocity":0.5039370078740157},{"duration":0.11770833333333997,"durationTicks":113,"midi":68,"name":"G#4","ticks":75240,"time":78.375,"velocity":0.5039370078740157},{"duration":0.23645833333333144,"durationTicks":227,"midi":69,"name":"A4","ticks":75360,"time":78.5,"velocity":0.5039370078740157},{"duration":0.4739583333333286,"durationTicks":455,"midi":73,"name":"C#5","ticks":75600,"time":78.75,"velocity":0.5039370078740157},{"duration":0.23645833333333144,"durationTicks":227,"midi":74,"name":"D5","ticks":76080,"time":79.25,"velocity":0.5039370078740157},{"duration":0.23645833333333144,"durationTicks":227,"midi":76,"name":"E5","ticks":76320,"time":79.5,"velocity":0.5039370078740157},{"duration":0.23645833333333144,"durationTicks":227,"midi":79,"name":"G5","ticks":76560,"time":79.75,"velocity":0.5039370078740157},{"duration":0.11770833333333997,"durationTicks":113,"midi":78,"name":"F#5","ticks":76920,"time":80.125,"velocity":0.5039370078740157},{"duration":0.11770833333333997,"durationTicks":113,"midi":76,"name":"E5","ticks":77040,"time":80.25,"velocity":0.5039370078740157},{"duration":0.11770833333333997,"durationTicks":113,"midi":78,"name":"F#5","ticks":77160,"time":80.375,"velocity":0.5039370078740157},{"duration":0.11770833333333997,"durationTicks":113,"midi":74,"name":"D5","ticks":77280,"time":80.5,"velocity":0.5039370078740157},{"duration":0.11770833333333997,"durationTicks":113,"midi":78,"name":"F#5","ticks":77400,"time":80.625,"velocity":0.5039370078740157},{"duration":0.11770833333333997,"durationTicks":113,"midi":73,"name":"C#5","ticks":77520,"time":80.75,"velocity":0.5039370078740157},{"duration":0.11770833333333997,"durationTicks":113,"midi":78,"name":"F#5","ticks":77640,"time":80.875,"velocity":0.5039370078740157},{"duration":0.23645833333333144,"durationTicks":227,"midi":71,"name":"B4","ticks":77760,"time":81,"velocity":0.5039370078740157},{"duration":0.23645833333333144,"durationTicks":227,"midi":78,"name":"F#5","ticks":78000,"time":81.25,"velocity":0.5039370078740157},{"duration":0.23645833333333144,"durationTicks":227,"midi":74,"name":"D5","ticks":78240,"time":81.5,"velocity":0.5039370078740157},{"duration":0.23645833333333144,"durationTicks":227,"midi":71,"name":"B4","ticks":78480,"time":81.75,"velocity":0.5039370078740157},{"duration":0.11770833333333997,"durationTicks":113,"midi":76,"name":"E5","ticks":78840,"time":82.125,"velocity":0.5039370078740157},{"duration":0.11770833333333997,"durationTicks":113,"midi":74,"name":"D5","ticks":78960,"time":82.25,"velocity":0.5039370078740157},{"duration":0.11770833333333997,"durationTicks":113,"midi":76,"name":"E5","ticks":79080,"time":82.375,"velocity":0.5039370078740157},{"duration":0.11770833333333997,"durationTicks":113,"midi":73,"name":"C#5","ticks":79200,"time":82.5,"velocity":0.5039370078740157},{"duration":0.11770833333333997,"durationTicks":113,"midi":76,"name":"E5","ticks":79320,"time":82.625,"velocity":0.5039370078740157},{"duration":0.11770833333333997,"durationTicks":113,"midi":71,"name":"B4","ticks":79440,"time":82.75,"velocity":0.5039370078740157},{"duration":0.11770833333333997,"durationTicks":113,"midi":76,"name":"E5","ticks":79560,"time":82.875,"velocity":0.5039370078740157},{"duration":0.23645833333333144,"durationTicks":227,"midi":69,"name":"A4","ticks":79680,"time":83,"velocity":0.5039370078740157},{"duration":0.23645833333333144,"durationTicks":227,"midi":76,"name":"E5","ticks":79920,"time":83.25,"velocity":0.5039370078740157},{"duration":0.23645833333333144,"durationTicks":227,"midi":73,"name":"C#5","ticks":80160,"time":83.5,"velocity":0.5039370078740157},{"duration":0.23645833333333144,"durationTicks":227,"midi":71,"name":"B4","ticks":80400,"time":83.75,"velocity":0.5039370078740157},{"duration":0.11770833333333997,"durationTicks":113,"midi":69,"name":"A4","ticks":80880,"time":84.25,"velocity":0.5039370078740157},{"duration":0.11770833333333997,"durationTicks":113,"midi":71,"name":"B4","ticks":81000,"time":84.375,"velocity":0.5039370078740157},{"duration":0.23645833333333144,"durationTicks":227,"midi":73,"name":"C#5","ticks":81120,"time":84.5,"velocity":0.5039370078740157},{"duration":0.23645833333333144,"durationTicks":227,"midi":69,"name":"A4","ticks":81360,"time":84.75,"velocity":0.5039370078740157},{"duration":0.23645833333333144,"durationTicks":227,"midi":76,"name":"E5","ticks":81600,"time":85,"velocity":0.5039370078740157},{"duration":0.23645833333333144,"durationTicks":227,"midi":71,"name":"B4","ticks":81840,"time":85.25,"velocity":0.5039370078740157},{"duration":0.23645833333333144,"durationTicks":227,"midi":64,"name":"E4","ticks":82080,"time":85.5,"velocity":0.5039370078740157},{"duration":0.23645833333333144,"durationTicks":227,"midi":71,"name":"B4","ticks":82320,"time":85.75,"velocity":0.5039370078740157},{"duration":0.11770833333333997,"durationTicks":113,"midi":66,"name":"F#4","ticks":82800,"time":86.25,"velocity":0.5039370078740157},{"duration":0.11770833333333997,"durationTicks":113,"midi":68,"name":"G#4","ticks":82920,"time":86.375,"velocity":0.5039370078740157},{"duration":0.23645833333333144,"durationTicks":227,"midi":69,"name":"A4","ticks":83040,"time":86.5,"velocity":0.5039370078740157},{"duration":0.4739583333333286,"durationTicks":455,"midi":73,"name":"C#5","ticks":83280,"time":86.75,"velocity":0.5039370078740157},{"duration":0.23645833333333144,"durationTicks":227,"midi":74,"name":"D5","ticks":83760,"time":87.25,"velocity":0.5039370078740157},{"duration":0.23645833333333144,"durationTicks":227,"midi":76,"name":"E5","ticks":84000,"time":87.5,"velocity":0.5039370078740157},{"duration":0.23645833333333144,"durationTicks":227,"midi":79,"name":"G5","ticks":84240,"time":87.75,"velocity":0.5039370078740157},{"duration":0.11770833333333997,"durationTicks":113,"midi":78,"name":"F#5","ticks":84600,"time":88.125,"velocity":0.5039370078740157},{"duration":0.11770833333333997,"durationTicks":113,"midi":76,"name":"E5","ticks":84720,"time":88.25,"velocity":0.5039370078740157},{"duration":0.11770833333333997,"durationTicks":113,"midi":78,"name":"F#5","ticks":84840,"time":88.375,"velocity":0.5039370078740157},{"duration":0.11770833333333997,"durationTicks":113,"midi":74,"name":"D5","ticks":84960,"time":88.5,"velocity":0.5039370078740157},{"duration":0.11770833333333997,"durationTicks":113,"midi":78,"name":"F#5","ticks":85080,"time":88.625,"velocity":0.5039370078740157},{"duration":0.11770833333333997,"durationTicks":113,"midi":73,"name":"C#5","ticks":85200,"time":88.75,"velocity":0.5039370078740157},{"duration":0.11770833333333997,"durationTicks":113,"midi":78,"name":"F#5","ticks":85320,"time":88.875,"velocity":0.5039370078740157},{"duration":0.23645833333333144,"durationTicks":227,"midi":71,"name":"B4","ticks":85440,"time":89,"velocity":0.5039370078740157},{"duration":0.23645833333333144,"durationTicks":227,"midi":78,"name":"F#5","ticks":85680,"time":89.25,"velocity":0.5039370078740157},{"duration":0.23645833333333144,"durationTicks":227,"midi":74,"name":"D5","ticks":85920,"time":89.5,"velocity":0.5039370078740157},{"duration":0.23645833333333144,"durationTicks":227,"midi":71,"name":"B4","ticks":86160,"time":89.75,"velocity":0.5039370078740157},{"duration":0.23645833333333144,"durationTicks":227,"midi":76,"name":"E5","ticks":86400,"time":90,"velocity":0.5039370078740157},{"duration":0.23645833333333144,"durationTicks":227,"midi":76,"name":"E5","ticks":86640,"time":90.25,"velocity":0.5039370078740157},{"duration":0.11770833333333997,"durationTicks":113,"midi":73,"name":"C#5","ticks":86880,"time":90.5,"velocity":0.5039370078740157},{"duration":0.11770833333333997,"durationTicks":113,"midi":69,"name":"A4","ticks":87000,"time":90.625,"velocity":0.5039370078740157},{"duration":0.11770833333333997,"durationTicks":113,"midi":64,"name":"E4","ticks":87120,"time":90.75,"velocity":0.5039370078740157},{"duration":0.11770833333333997,"durationTicks":113,"midi":68,"name":"G#4","ticks":87240,"time":90.875,"velocity":0.5039370078740157},{"duration":0.11770833333333997,"durationTicks":113,"midi":69,"name":"A4","ticks":87360,"time":91,"velocity":0.5039370078740157},{"duration":0.11770833333333997,"durationTicks":113,"midi":64,"name":"E4","ticks":87480,"time":91.125,"velocity":0.5039370078740157},{"duration":0.11770833333333997,"durationTicks":113,"midi":57,"name":"A3","ticks":87600,"time":91.25,"velocity":0.5039370078740157},{"duration":0.11770833333333997,"durationTicks":113,"midi":49,"name":"C#3","ticks":87720,"time":91.375,"velocity":0.5039370078740157},{"duration":0.4739583333333286,"durationTicks":455,"midi":45,"name":"A2","ticks":87840,"time":91.5,"velocity":0.5039370078740157},{"duration":0.23645833333333144,"durationTicks":227,"midi":69,"name":"A4","ticks":90240,"time":95,"velocity":0.5039370078740157},{"duration":0.23645833333333144,"durationTicks":227,"midi":71,"name":"B4","ticks":90480,"time":95.25,"velocity":0.5039370078740157},{"duration":0.4739583333333286,"durationTicks":455,"midi":73,"name":"C#5","ticks":90720,"time":95.5,"velocity":0.5039370078740157},{"duration":0.4739583333333286,"durationTicks":455,"midi":71,"name":"B4","ticks":91200,"time":96,"velocity":0.5039370078740157},{"duration":0.23645833333333144,"durationTicks":227,"midi":69,"name":"A4","ticks":91680,"time":96.5,"velocity":0.5039370078740157},{"duration":0.23645833333333144,"durationTicks":227,"midi":66,"name":"F#4","ticks":91920,"time":96.75,"velocity":0.5039370078740157},{"duration":0.23645833333333144,"durationTicks":227,"midi":66,"name":"F#4","ticks":92160,"time":97,"velocity":0.5039370078740157},{"duration":0.23645833333333144,"durationTicks":227,"midi":69,"name":"A4","ticks":92400,"time":97.25,"velocity":0.5039370078740157},{"duration":0.23645833333333144,"durationTicks":227,"midi":73,"name":"C#5","ticks":92640,"time":97.5,"velocity":0.5039370078740157},{"duration":0.71145833333334,"durationTicks":683,"midi":71,"name":"B4","ticks":92880,"time":97.75,"velocity":0.5039370078740157},{"duration":0.23645833333333144,"durationTicks":227,"midi":73,"name":"C#5","ticks":94320,"time":99.25,"velocity":0.5039370078740157},{"duration":0.23645833333333144,"durationTicks":227,"midi":74,"name":"D5","ticks":94560,"time":99.5,"velocity":0.5039370078740157},{"duration":0.23645833333333144,"durationTicks":227,"midi":73,"name":"C#5","ticks":94800,"time":99.75,"velocity":0.5039370078740157},{"duration":0.23645833333333144,"durationTicks":227,"midi":71,"name":"B4","ticks":95040,"time":100,"velocity":0.5039370078740157},{"duration":0.9489583333333371,"durationTicks":911,"midi":69,"name":"A4","ticks":95280,"time":100.25,"velocity":0.5039370078740157},{"duration":0.23645833333333144,"durationTicks":227,"midi":66,"name":"F#4","ticks":96240,"time":101.25,"velocity":0.5039370078740157},{"duration":0.23645833333333144,"durationTicks":227,"midi":65,"name":"F4","ticks":96480,"time":101.5,"velocity":0.5039370078740157},{"duration":0.23645833333333144,"durationTicks":227,"midi":73,"name":"C#5","ticks":96720,"time":101.75,"velocity":0.5039370078740157},{"duration":0.23645833333333144,"durationTicks":227,"midi":73,"name":"C#5","ticks":96960,"time":102,"velocity":0.5039370078740157},{"duration":0.71145833333334,"durationTicks":683,"midi":73,"name":"C#5","ticks":97200,"time":102.25,"velocity":0.5039370078740157},{"duration":0.23645833333333144,"durationTicks":227,"midi":69,"name":"A4","ticks":97920,"time":103,"velocity":0.5039370078740157},{"duration":0.23645833333333144,"durationTicks":227,"midi":71,"name":"B4","ticks":98160,"time":103.25,"velocity":0.5039370078740157},{"duration":0.23645833333333144,"durationTicks":227,"midi":73,"name":"C#5","ticks":98400,"time":103.5,"velocity":0.5039370078740157},{"duration":0.23645833333333144,"durationTicks":227,"midi":71,"name":"B4","ticks":98640,"time":103.75,"velocity":0.5039370078740157},{"duration":0.23645833333333144,"durationTicks":227,"midi":71,"name":"B4","ticks":98880,"time":104,"velocity":0.5039370078740157},{"duration":0.23645833333333144,"durationTicks":227,"midi":69,"name":"A4","ticks":99120,"time":104.25,"velocity":0.5039370078740157},{"duration":0.23645833333333144,"durationTicks":227,"midi":69,"name":"A4","ticks":99360,"time":104.5,"velocity":0.5039370078740157},{"duration":0.23645833333333144,"durationTicks":227,"midi":66,"name":"F#4","ticks":99600,"time":104.75,"velocity":0.5039370078740157},{"duration":0.23645833333333144,"durationTicks":227,"midi":66,"name":"F#4","ticks":99840,"time":105,"velocity":0.5039370078740157},{"duration":0.23645833333333144,"durationTicks":227,"midi":69,"name":"A4","ticks":100080,"time":105.25,"velocity":0.5039370078740157},{"duration":0.4739583333333286,"durationTicks":455,"midi":73,"name":"C#5","ticks":100320,"time":105.5,"velocity":0.5039370078740157},{"duration":0.9489583333333371,"durationTicks":911,"midi":71,"name":"B4","ticks":100800,"time":106,"velocity":0.5039370078740157},{"duration":0.4739583333333286,"durationTicks":455,"midi":66,"name":"F#4","ticks":101760,"time":107,"velocity":0.5039370078740157},{"duration":0.23645833333333144,"durationTicks":227,"midi":72,"name":"C5","ticks":102240,"time":107.5,"velocity":0.5039370078740157},{"duration":0.4739583333333286,"durationTicks":455,"midi":71,"name":"B4","ticks":102480,"time":107.75,"velocity":0.5039370078740157},{"duration":0.11770833333332575,"durationTicks":113,"midi":69,"name":"A4","ticks":102960,"time":108.25,"velocity":0.5039370078740157},{"duration":0.11770833333332575,"durationTicks":113,"midi":71,"name":"B4","ticks":103080,"time":108.375,"velocity":0.5039370078740157},{"duration":0.7114583333333258,"durationTicks":683,"midi":69,"name":"A4","ticks":103200,"time":108.5,"velocity":0.5039370078740157},{"duration":0.23645833333333144,"durationTicks":227,"midi":65,"name":"F4","ticks":103920,"time":109.25,"velocity":0.5039370078740157},{"duration":0.4739583333333286,"durationTicks":455,"midi":64,"name":"E4","ticks":104160,"time":109.5,"velocity":0.5039370078740157},{"duration":0.23645833333333144,"durationTicks":227,"midi":73,"name":"C#5","ticks":104640,"time":110,"velocity":0.5039370078740157},{"duration":1.1864583333333343,"durationTicks":1139,"midi":73,"name":"C#5","ticks":104880,"time":110.25,"velocity":0.5039370078740157},{"duration":0.4739583333333286,"durationTicks":455,"midi":61,"name":"C#4","ticks":106080,"time":111.5,"velocity":0.5039370078740157},{"duration":0.4739583333333286,"durationTicks":455,"midi":69,"name":"A4","ticks":106560,"time":112,"velocity":0.5039370078740157},{"duration":0.23645833333333144,"durationTicks":227,"midi":61,"name":"C#4","ticks":107040,"time":112.5,"velocity":0.5039370078740157},{"duration":0.23645833333333144,"durationTicks":227,"midi":62,"name":"D4","ticks":107280,"time":112.75,"velocity":0.5039370078740157},{"duration":0.23645833333333144,"durationTicks":227,"midi":64,"name":"E4","ticks":107520,"time":113,"velocity":0.5039370078740157},{"duration":2.136458333333337,"durationTicks":2051,"midi":68,"name":"G#4","ticks":107760,"time":113.25,"velocity":0.5039370078740157},{"duration":0.4739583333333286,"durationTicks":455,"midi":78,"name":"F#5","ticks":109920,"time":115.5,"velocity":0.5039370078740157},{"duration":0.23645833333333144,"durationTicks":227,"midi":84,"name":"C6","ticks":110400,"time":116,"velocity":0.5039370078740157},{"duration":0.4739583333333286,"durationTicks":455,"midi":83,"name":"B5","ticks":110640,"time":116.25,"velocity":0.5039370078740157},{"duration":0.11770833333332575,"durationTicks":113,"midi":81,"name":"A5","ticks":111120,"time":116.75,"velocity":0.5039370078740157},{"duration":0.11770833333332575,"durationTicks":113,"midi":83,"name":"B5","ticks":111240,"time":116.875,"velocity":0.5039370078740157},{"duration":0.7114583333333258,"durationTicks":683,"midi":81,"name":"A5","ticks":111360,"time":117,"velocity":0.5039370078740157},{"duration":0.23645833333333144,"durationTicks":227,"midi":77,"name":"F5","ticks":112080,"time":117.75,"velocity":0.5039370078740157},{"duration":0.4739583333333286,"durationTicks":455,"midi":76,"name":"E5","ticks":112320,"time":118,"velocity":0.5039370078740157},{"duration":0.23645833333333144,"durationTicks":227,"midi":85,"name":"C#6","ticks":112800,"time":118.5,"velocity":0.5039370078740157},{"duration":0.23645833333333144,"durationTicks":227,"midi":85,"name":"C#6","ticks":113040,"time":118.75,"velocity":0.5039370078740157},{"duration":0.4739583333333286,"durationTicks":455,"midi":61,"name":"C#4","ticks":113760,"time":119.5,"velocity":0.5039370078740157},{"duration":0.4739583333333286,"durationTicks":455,"midi":69,"name":"A4","ticks":114240,"time":120,"velocity":0.5039370078740157},{"duration":0.23645833333333144,"durationTicks":227,"midi":61,"name":"C#4","ticks":114720,"time":120.5,"velocity":0.5039370078740157},{"duration":0.23645833333333144,"durationTicks":227,"midi":62,"name":"D4","ticks":114960,"time":120.75,"velocity":0.5039370078740157},{"duration":0.23645833333333144,"durationTicks":227,"midi":64,"name":"E4","ticks":115200,"time":121,"velocity":0.5039370078740157},{"duration":1.1864583333333343,"durationTicks":1139,"midi":68,"name":"G#4","ticks":115440,"time":121.25,"velocity":0.5039370078740157},{"duration":0.23645833333333144,"durationTicks":227,"midi":68,"name":"G#4","ticks":116640,"time":122.5,"velocity":0.5039370078740157},{"duration":0.23645833333333144,"durationTicks":227,"midi":66,"name":"F#4","ticks":116880,"time":122.75,"velocity":0.5039370078740157},{"duration":0.23645833333333144,"durationTicks":227,"midi":68,"name":"G#4","ticks":117120,"time":123,"velocity":0.5039370078740157},{"duration":2.1489583333333258,"durationTicks":2063,"midi":69,"name":"A4","ticks":117360,"time":123.25,"velocity":0.5039370078740157},{"duration":2.14166666666668,"durationTicks":2056,"midi":73,"name":"C#5","ticks":117366,"time":123.25625,"velocity":0.5039370078740157},{"duration":2.13333333333334,"durationTicks":2048,"midi":76,"name":"E5","ticks":117374,"time":123.26458333333333,"velocity":0.5039370078740157}]},{"instrument_number":0,"notes":[{"duration":0.9489583333333333,"durationTicks":911,"midi":45,"name":"A2","ticks":0,"time":0,"velocity":0.5039370078740157},{"duration":0.9489583333333333,"durationTicks":911,"midi":52,"name":"E3","ticks":0,"time":0,"velocity":0.5039370078740157},{"duration":0.9489583333333333,"durationTicks":911,"midi":57,"name":"A3","ticks":0,"time":0,"velocity":0.5039370078740157},{"duration":0.23645833333333344,"durationTicks":227,"midi":45,"name":"A2","ticks":960,"time":1,"velocity":0.5039370078740157},{"duration":0.23645833333333344,"durationTicks":227,"midi":50,"name":"D3","ticks":1200,"time":1.25,"velocity":0.5039370078740157},{"duration":0.23645833333333344,"durationTicks":227,"midi":50,"name":"D3","ticks":1440,"time":1.5,"velocity":0.5039370078740157},{"duration":0.9489583333333331,"durationTicks":911,"midi":52,"name":"E3","ticks":1680,"time":1.75,"velocity":0.5039370078740157},{"duration":0.23645833333333321,"durationTicks":227,"midi":52,"name":"E3","ticks":2640,"time":2.75,"velocity":0.5039370078740157},{"duration":0.4739583333333335,"durationTicks":455,"midi":52,"name":"E3","ticks":2880,"time":3,"velocity":0.5039370078740157},{"duration":0.4739583333333335,"durationTicks":455,"midi":52,"name":"E3","ticks":3360,"time":3.5,"velocity":0.5039370078740157},{"duration":0.7114583333333337,"durationTicks":683,"midi":45,"name":"A2","ticks":3840,"time":4,"velocity":0.5039370078740157},{"duration":0.23645833333333321,"durationTicks":227,"midi":45,"name":"A2","ticks":4560,"time":4.75,"velocity":0.5039370078740157},{"duration":0.23645833333333321,"durationTicks":227,"midi":45,"name":"A2","ticks":4800,"time":5,"velocity":0.5039370078740157},{"duration":0.23645833333333321,"durationTicks":227,"midi":50,"name":"D3","ticks":5040,"time":5.25,"velocity":0.5039370078740157},{"duration":0.23645833333333321,"durationTicks":227,"midi":50,"name":"D3","ticks":5280,"time":5.5,"velocity":0.5039370078740157},{"duration":0.9489583333333336,"durationTicks":911,"midi":52,"name":"E3","ticks":5520,"time":5.75,"velocity":0.5039370078740157},{"duration":0.23645833333333321,"durationTicks":227,"midi":52,"name":"E3","ticks":6480,"time":6.75,"velocity":0.5039370078740157},{"duration":0.9489583333333336,"durationTicks":911,"midi":52,"name":"E3","ticks":6720,"time":7,"velocity":0.5039370078740157},{"duration":1.8989583333333329,"durationTicks":1823,"midi":57,"name":"A3","ticks":7680,"time":8,"velocity":0.5039370078740157},{"duration":0.7114583333333329,"durationTicks":683,"midi":54,"name":"F#3","ticks":9600,"time":10,"velocity":0.5039370078740157},{"duration":0.7114583333333329,"durationTicks":683,"midi":57,"name":"A3","ticks":9600,"time":10,"velocity":0.5039370078740157},{"duration":1.1864583333333325,"durationTicks":1139,"midi":55,"name":"G3","ticks":10320,"time":10.75,"velocity":0.5039370078740157},{"duration":1.1864583333333325,"durationTicks":1139,"midi":57,"name":"A3","ticks":10320,"time":10.75,"velocity":0.5039370078740157},{"duration":0.9489583333333336,"durationTicks":911,"midi":50,"name":"D3","ticks":11520,"time":12,"velocity":0.5039370078740157},{"duration":0.9489583333333336,"durationTicks":911,"midi":54,"name":"F#3","ticks":11520,"time":12,"velocity":0.5039370078740157},{"duration":0.9489583333333336,"durationTicks":911,"midi":57,"name":"A3","ticks":11520,"time":12,"velocity":0.5039370078740157},{"duration":0.9489583333333336,"durationTicks":911,"midi":50,"name":"D3","ticks":12480,"time":13,"velocity":0.5039370078740157},{"duration":0.9489583333333336,"durationTicks":911,"midi":53,"name":"F3","ticks":12480,"time":13,"velocity":0.5039370078740157},{"duration":0.9489583333333336,"durationTicks":911,"midi":57,"name":"A3","ticks":12480,"time":13,"velocity":0.5039370078740157},{"duration":1.8989583333333329,"durationTicks":1823,"midi":45,"name":"A2","ticks":13440,"time":14,"velocity":0.5039370078740157},{"duration":1.8989583333333329,"durationTicks":1823,"midi":52,"name":"E3","ticks":13440,"time":14,"velocity":0.5039370078740157},{"duration":1.8989583333333329,"durationTicks":1823,"midi":57,"name":"A3","ticks":13440,"time":14,"velocity":0.5039370078740157},{"duration":0.9489583333333336,"durationTicks":911,"midi":45,"name":"A2","ticks":15360,"time":16,"velocity":0.5039370078740157},{"duration":0.9489583333333336,"durationTicks":911,"midi":52,"name":"E3","ticks":15360,"time":16,"velocity":0.5039370078740157},{"duration":0.9489583333333336,"durationTicks":911,"midi":57,"name":"A3","ticks":15360,"time":16,"velocity":0.5039370078740157},{"duration":0.9489583333333336,"durationTicks":911,"midi":52,"name":"E3","ticks":16320,"time":17,"velocity":0.5039370078740157},{"duration":0.9489583333333336,"durationTicks":911,"midi":56,"name":"G#3","ticks":16320,"time":17,"velocity":0.5039370078740157},{"duration":0.7114583333333329,"durationTicks":683,"midi":54,"name":"F#3","ticks":17280,"time":18,"velocity":0.5039370078740157},{"duration":0.7114583333333329,"durationTicks":683,"midi":57,"name":"A3","ticks":17280,"time":18,"velocity":0.5039370078740157},{"duration":1.1864583333333343,"durationTicks":1139,"midi":55,"name":"G3","ticks":18000,"time":18.75,"velocity":0.5039370078740157},{"duration":1.1864583333333343,"durationTicks":1139,"midi":57,"name":"A3","ticks":18000,"time":18.75,"velocity":0.5039370078740157},{"duration":0.9489583333333336,"durationTicks":911,"midi":50,"name":"D3","ticks":19200,"time":20,"velocity":0.5039370078740157},{"duration":0.9489583333333336,"durationTicks":911,"midi":54,"name":"F#3","ticks":19200,"time":20,"velocity":0.5039370078740157},{"duration":0.9489583333333336,"durationTicks":911,"midi":57,"name":"A3","ticks":19200,"time":20,"velocity":0.5039370078740157},{"duration":0.9489583333333336,"durationTicks":911,"midi":50,"name":"D3","ticks":20160,"time":21,"velocity":0.5039370078740157},{"duration":0.9489583333333336,"durationTicks":911,"midi":53,"name":"F3","ticks":20160,"time":21,"velocity":0.5039370078740157},{"duration":0.9489583333333336,"durationTicks":911,"midi":57,"name":"A3","ticks":20160,"time":21,"velocity":0.5039370078740157},{"duration":1.8989583333333329,"durationTicks":1823,"midi":45,"name":"A2","ticks":21120,"time":22,"velocity":0.5039370078740157},{"duration":1.8989583333333329,"durationTicks":1823,"midi":52,"name":"E3","ticks":21120,"time":22,"velocity":0.5039370078740157},{"duration":1.8989583333333329,"durationTicks":1823,"midi":57,"name":"A3","ticks":21120,"time":22,"velocity":0.5039370078740157},{"duration":1.8989583333333329,"durationTicks":1823,"midi":54,"name":"F#3","ticks":23040,"time":24,"velocity":0.5039370078740157},{"duration":1.8989583333333329,"durationTicks":1823,"midi":57,"name":"A3","ticks":23040,"time":24,"velocity":0.5039370078740157},{"duration":1.8989583333333329,"durationTicks":1823,"midi":61,"name":"C#4","ticks":23040,"time":24,"velocity":0.5039370078740157},{"duration":0.7114583333333329,"durationTicks":683,"midi":50,"name":"D3","ticks":24960,"time":26,"velocity":0.5039370078740157},{"duration":0.7114583333333329,"durationTicks":683,"midi":54,"name":"F#3","ticks":24960,"time":26,"velocity":0.5039370078740157},{"duration":0.7114583333333329,"durationTicks":683,"midi":57,"name":"A3","ticks":24960,"time":26,"velocity":0.5039370078740157},{"duration":0.236458333333335,"durationTicks":227,"midi":50,"name":"D3","ticks":25680,"time":26.75,"velocity":0.5039370078740157},{"duration":0.47395833333333215,"durationTicks":455,"midi":50,"name":"D3","ticks":25920,"time":27,"velocity":0.5039370078740157},{"duration":0.47395833333333215,"durationTicks":455,"midi":54,"name":"F#3","ticks":26400,"time":27.5,"velocity":0.5039370078740157},{"duration":0.47395833333333215,"durationTicks":455,"midi":57,"name":"A3","ticks":26400,"time":27.5,"velocity":0.5039370078740157},{"duration":0.7114583333333329,"durationTicks":683,"midi":43,"name":"G2","ticks":26880,"time":28,"velocity":0.5039370078740157},{"duration":0.7114583333333329,"durationTicks":683,"midi":50,"name":"D3","ticks":26880,"time":28,"velocity":0.5039370078740157},{"duration":0.7114583333333329,"durationTicks":683,"midi":55,"name":"G3","ticks":26880,"time":28,"velocity":0.5039370078740157},{"duration":0.236458333333335,"durationTicks":227,"midi":43,"name":"G2","ticks":27600,"time":28.75,"velocity":0.5039370078740157},{"duration":0.47395833333333215,"durationTicks":455,"midi":43,"name":"G2","ticks":27840,"time":29,"velocity":0.5039370078740157},{"duration":0.47395833333333215,"durationTicks":455,"midi":50,"name":"D3","ticks":28320,"time":29.5,"velocity":0.5039370078740157},{"duration":0.47395833333333215,"durationTicks":455,"midi":55,"name":"G3","ticks":28320,"time":29.5,"velocity":0.5039370078740157},{"duration":0.7114583333333329,"durationTicks":683,"midi":50,"name":"D3","ticks":28800,"time":30,"velocity":0.5039370078740157},{"duration":0.7114583333333329,"durationTicks":683,"midi":53,"name":"F3","ticks":28800,"time":30,"velocity":0.5039370078740157},{"duration":0.236458333333335,"durationTicks":227,"midi":45,"name":"A2","ticks":29520,"time":30.75,"velocity":0.5039370078740157},{"duration":0.47395833333333215,"durationTicks":455,"midi":45,"name":"A2","ticks":29760,"time":31,"velocity":0.5039370078740157},{"duration":0.47395833333333215,"durationTicks":455,"midi":50,"name":"D3","ticks":30240,"time":31.5,"velocity":0.5039370078740157},{"duration":0.47395833333333215,"durationTicks":455,"midi":57,"name":"A3","ticks":30240,"time":31.5,"velocity":0.5039370078740157},{"duration":1.8989583333333329,"durationTicks":1823,"midi":54,"name":"F#3","ticks":30720,"time":32,"velocity":0.5039370078740157},{"duration":1.8989583333333329,"durationTicks":1823,"midi":57,"name":"A3","ticks":30720,"time":32,"velocity":0.5039370078740157},{"duration":1.8989583333333329,"durationTicks":1823,"midi":61,"name":"C#4","ticks":30720,"time":32,"velocity":0.5039370078740157},{"duration":0.94895833333333,"durationTicks":911,"midi":49,"name":"C#3","ticks":32640,"time":34,"velocity":0.5039370078740157},{"duration":0.94895833333333,"durationTicks":911,"midi":52,"name":"E3","ticks":32640,"time":34,"velocity":0.5039370078740157},{"duration":0.94895833333333,"durationTicks":911,"midi":56,"name":"G#3","ticks":32640,"time":34,"velocity":0.5039370078740157},{"duration":0.4739583333333357,"durationTicks":455,"midi":54,"name":"F#3","ticks":34080,"time":35.5,"velocity":0.5039370078740157},{"duration":0.7114583333333329,"durationTicks":683,"midi":43,"name":"G2","ticks":34560,"time":36,"velocity":0.5039370078740157},{"duration":0.7114583333333329,"durationTicks":683,"midi":50,"name":"D3","ticks":34560,"time":36,"velocity":0.5039370078740157},{"duration":0.7114583333333329,"durationTicks":683,"midi":55,"name":"G3","ticks":34560,"time":36,"velocity":0.5039370078740157},{"duration":0.4739583333333357,"durationTicks":455,"midi":43,"name":"G2","ticks":35520,"time":37,"velocity":0.5039370078740157},{"duration":0.4739583333333357,"durationTicks":455,"midi":50,"name":"D3","ticks":36000,"time":37.5,"velocity":0.5039370078740157},{"duration":0.4739583333333357,"durationTicks":455,"midi":55,"name":"G3","ticks":36000,"time":37.5,"velocity":0.5039370078740157},{"duration":0.7114583333333329,"durationTicks":683,"midi":45,"name":"A2","ticks":36480,"time":38,"velocity":0.5039370078740157},{"duration":0.7114583333333329,"durationTicks":683,"midi":52,"name":"E3","ticks":36480,"time":38,"velocity":0.5039370078740157},{"duration":0.7114583333333329,"durationTicks":683,"midi":57,"name":"A3","ticks":36480,"time":38,"velocity":0.5039370078740157},{"duration":0.23645833333333144,"durationTicks":227,"midi":45,"name":"A2","ticks":37200,"time":38.75,"velocity":0.5039370078740157},{"duration":0.4739583333333357,"durationTicks":455,"midi":45,"name":"A2","ticks":37440,"time":39,"velocity":0.5039370078740157},{"duration":0.4739583333333357,"durationTicks":455,"midi":52,"name":"E3","ticks":37920,"time":39.5,"velocity":0.5039370078740157},{"duration":0.4739583333333357,"durationTicks":455,"midi":57,"name":"A3","ticks":37920,"time":39.5,"velocity":0.5039370078740157},{"duration":0.7114583333333329,"durationTicks":683,"midi":45,"name":"A2","ticks":38400,"time":40,"velocity":0.5039370078740157},{"duration":0.23645833333333144,"durationTicks":227,"midi":45,"name":"A2","ticks":39120,"time":40.75,"velocity":0.5039370078740157},{"duration":0.23645833333333144,"durationTicks":227,"midi":45,"name":"A2","ticks":39360,"time":41,"velocity":0.5039370078740157},{"duration":0.23645833333333144,"durationTicks":227,"midi":50,"name":"D3","ticks":39600,"time":41.25,"velocity":0.5039370078740157},{"duration":0.23645833333333144,"durationTicks":227,"midi":50,"name":"D3","ticks":39840,"time":41.5,"velocity":0.5039370078740157},{"duration":0.94895833333333,"durationTicks":911,"midi":52,"name":"E3","ticks":40080,"time":41.75,"velocity":0.5039370078740157},{"duration":0.23645833333333144,"durationTicks":227,"midi":52,"name":"E3","ticks":41040,"time":42.75,"velocity":0.5039370078740157},{"duration":0.94895833333333,"durationTicks":911,"midi":52,"name":"E3","ticks":41280,"time":43,"velocity":0.5039370078740157},{"duration":1.8989583333333329,"durationTicks":1823,"midi":57,"name":"A3","ticks":42240,"time":44,"velocity":0.5039370078740157},{"duration":0.7114583333333329,"durationTicks":683,"midi":54,"name":"F#3","ticks":44160,"time":46,"velocity":0.5039370078740157},{"duration":0.7114583333333329,"durationTicks":683,"midi":57,"name":"A3","ticks":44160,"time":46,"velocity":0.5039370078740157},{"duration":1.1864583333333343,"durationTicks":1139,"midi":55,"name":"G3","ticks":44880,"time":46.75,"velocity":0.5039370078740157},{"duration":1.1864583333333343,"durationTicks":1139,"midi":57,"name":"A3","ticks":44880,"time":46.75,"velocity":0.5039370078740157},{"duration":0.94895833333333,"durationTicks":911,"midi":50,"name":"D3","ticks":46080,"time":48,"velocity":0.5039370078740157},{"duration":0.94895833333333,"durationTicks":911,"midi":54,"name":"F#3","ticks":46080,"time":48,"velocity":0.5039370078740157},{"duration":0.94895833333333,"durationTicks":911,"midi":57,"name":"A3","ticks":46080,"time":48,"velocity":0.5039370078740157},{"duration":0.94895833333333,"durationTicks":911,"midi":50,"name":"D3","ticks":47040,"time":49,"velocity":0.5039370078740157},{"duration":0.94895833333333,"durationTicks":911,"midi":53,"name":"F3","ticks":47040,"time":49,"velocity":0.5039370078740157},{"duration":0.94895833333333,"durationTicks":911,"midi":57,"name":"A3","ticks":47040,"time":49,"velocity":0.5039370078740157},{"duration":1.8989583333333329,"durationTicks":1823,"midi":45,"name":"A2","ticks":48000,"time":50,"velocity":0.5039370078740157},{"duration":1.8989583333333329,"durationTicks":1823,"midi":52,"name":"E3","ticks":48000,"time":50,"velocity":0.5039370078740157},{"duration":1.8989583333333329,"durationTicks":1823,"midi":57,"name":"A3","ticks":48000,"time":50,"velocity":0.5039370078740157},{"duration":0.94895833333333,"durationTicks":911,"midi":45,"name":"A2","ticks":49920,"time":52,"velocity":0.5039370078740157},{"duration":0.94895833333333,"durationTicks":911,"midi":52,"name":"E3","ticks":49920,"time":52,"velocity":0.5039370078740157},{"duration":0.94895833333333,"durationTicks":911,"midi":57,"name":"A3","ticks":49920,"time":52,"velocity":0.5039370078740157},{"duration":0.94895833333333,"durationTicks":911,"midi":52,"name":"E3","ticks":50880,"time":53,"velocity":0.5039370078740157},{"duration":0.94895833333333,"durationTicks":911,"midi":56,"name":"G#3","ticks":50880,"time":53,"velocity":0.5039370078740157},{"duration":0.7114583333333329,"durationTicks":683,"midi":54,"name":"F#3","ticks":51840,"time":54,"velocity":0.5039370078740157},{"duration":0.7114583333333329,"durationTicks":683,"midi":57,"name":"A3","ticks":51840,"time":54,"velocity":0.5039370078740157},{"duration":1.1864583333333343,"durationTicks":1139,"midi":55,"name":"G3","ticks":52560,"time":54.75,"velocity":0.5039370078740157},{"duration":1.1864583333333343,"durationTicks":1139,"midi":57,"name":"A3","ticks":52560,"time":54.75,"velocity":0.5039370078740157},{"duration":0.94895833333333,"durationTicks":911,"midi":50,"name":"D3","ticks":53760,"time":56,"velocity":0.5039370078740157},{"duration":0.94895833333333,"durationTicks":911,"midi":54,"name":"F#3","ticks":53760,"time":56,"velocity":0.5039370078740157},{"duration":0.94895833333333,"durationTicks":911,"midi":57,"name":"A3","ticks":53760,"time":56,"velocity":0.5039370078740157},{"duration":0.94895833333333,"durationTicks":911,"midi":50,"name":"D3","ticks":54720,"time":57,"velocity":0.5039370078740157},{"duration":0.94895833333333,"durationTicks":911,"midi":53,"name":"F3","ticks":54720,"time":57,"velocity":0.5039370078740157},{"duration":0.94895833333333,"durationTicks":911,"midi":57,"name":"A3","ticks":54720,"time":57,"velocity":0.5039370078740157},{"duration":1.8989583333333329,"durationTicks":1823,"midi":45,"name":"A2","ticks":55680,"time":58,"velocity":0.5039370078740157},{"duration":1.8989583333333329,"durationTicks":1823,"midi":52,"name":"E3","ticks":55680,"time":58,"velocity":0.5039370078740157},{"duration":1.8989583333333329,"durationTicks":1823,"midi":57,"name":"A3","ticks":55680,"time":58,"velocity":0.5039370078740157},{"duration":1.8989583333333329,"durationTicks":1823,"midi":54,"name":"F#3","ticks":57600,"time":60,"velocity":0.5039370078740157},{"duration":1.8989583333333329,"durationTicks":1823,"midi":57,"name":"A3","ticks":57600,"time":60,"velocity":0.5039370078740157},{"duration":1.8989583333333329,"durationTicks":1823,"midi":61,"name":"C#4","ticks":57600,"time":60,"velocity":0.5039370078740157},{"duration":0.7114583333333329,"durationTicks":683,"midi":50,"name":"D3","ticks":59520,"time":62,"velocity":0.5039370078740157},{"duration":0.7114583333333329,"durationTicks":683,"midi":54,"name":"F#3","ticks":59520,"time":62,"velocity":0.5039370078740157},{"duration":0.7114583333333329,"durationTicks":683,"midi":57,"name":"A3","ticks":59520,"time":62,"velocity":0.5039370078740157},{"duration":0.23645833333333144,"durationTicks":227,"midi":50,"name":"D3","ticks":60240,"time":62.75,"velocity":0.5039370078740157},{"duration":0.4739583333333357,"durationTicks":455,"midi":50,"name":"D3","ticks":60480,"time":63,"velocity":0.5039370078740157},{"duration":0.4739583333333357,"durationTicks":455,"midi":54,"name":"F#3","ticks":60960,"time":63.5,"velocity":0.5039370078740157},{"duration":0.4739583333333357,"durationTicks":455,"midi":57,"name":"A3","ticks":60960,"time":63.5,"velocity":0.5039370078740157},{"duration":0.71145833333334,"durationTicks":683,"midi":43,"name":"G2","ticks":61440,"time":64,"velocity":0.5039370078740157},{"duration":0.71145833333334,"durationTicks":683,"midi":50,"name":"D3","ticks":61440,"time":64,"velocity":0.5039370078740157},{"duration":0.71145833333334,"durationTicks":683,"midi":55,"name":"G3","ticks":61440,"time":64,"velocity":0.5039370078740157},{"duration":0.23645833333333144,"durationTicks":227,"midi":43,"name":"G2","ticks":62160,"time":64.75,"velocity":0.5039370078740157},{"duration":0.4739583333333286,"durationTicks":455,"midi":43,"name":"G2","ticks":62400,"time":65,"velocity":0.5039370078740157},{"duration":0.4739583333333286,"durationTicks":455,"midi":50,"name":"D3","ticks":62880,"time":65.5,"velocity":0.5039370078740157},{"duration":0.4739583333333286,"durationTicks":455,"midi":55,"name":"G3","ticks":62880,"time":65.5,"velocity":0.5039370078740157},{"duration":0.71145833333334,"durationTicks":683,"midi":50,"name":"D3","ticks":63360,"time":66,"velocity":0.5039370078740157},{"duration":0.71145833333334,"durationTicks":683,"midi":53,"name":"F3","ticks":63360,"time":66,"velocity":0.5039370078740157},{"duration":0.23645833333333144,"durationTicks":227,"midi":45,"name":"A2","ticks":64080,"time":66.75,"velocity":0.5039370078740157},{"duration":0.4739583333333286,"durationTicks":455,"midi":45,"name":"A2","ticks":64320,"time":67,"velocity":0.5039370078740157},{"duration":0.4739583333333286,"durationTicks":455,"midi":50,"name":"D3","ticks":64800,"time":67.5,"velocity":0.5039370078740157},{"duration":0.4739583333333286,"durationTicks":455,"midi":57,"name":"A3","ticks":64800,"time":67.5,"velocity":0.5039370078740157},{"duration":1.89895833333334,"durationTicks":1823,"midi":54,"name":"F#3","ticks":65280,"time":68,"velocity":0.5039370078740157},{"duration":1.89895833333334,"durationTicks":1823,"midi":57,"name":"A3","ticks":65280,"time":68,"velocity":0.5039370078740157},{"duration":1.89895833333334,"durationTicks":1823,"midi":61,"name":"C#4","ticks":65280,"time":68,"velocity":0.5039370078740157},{"duration":0.9489583333333371,"durationTicks":911,"midi":49,"name":"C#3","ticks":67200,"time":70,"velocity":0.5039370078740157},{"duration":0.9489583333333371,"durationTicks":911,"midi":52,"name":"E3","ticks":67200,"time":70,"velocity":0.5039370078740157},{"duration":0.9489583333333371,"durationTicks":911,"midi":56,"name":"G#3","ticks":67200,"time":70,"velocity":0.5039370078740157},{"duration":0.4739583333333286,"durationTicks":455,"midi":54,"name":"F#3","ticks":68640,"time":71.5,"velocity":0.5039370078740157},{"duration":0.71145833333334,"durationTicks":683,"midi":43,"name":"G2","ticks":69120,"time":72,"velocity":0.5039370078740157},{"duration":0.71145833333334,"durationTicks":683,"midi":50,"name":"D3","ticks":69120,"time":72,"velocity":0.5039370078740157},{"duration":0.71145833333334,"durationTicks":683,"midi":55,"name":"G3","ticks":69120,"time":72,"velocity":0.5039370078740157},{"duration":0.4739583333333286,"durationTicks":455,"midi":43,"name":"G2","ticks":70080,"time":73,"velocity":0.5039370078740157},{"duration":0.4739583333333286,"durationTicks":455,"midi":50,"name":"D3","ticks":70560,"time":73.5,"velocity":0.5039370078740157},{"duration":0.4739583333333286,"durationTicks":455,"midi":55,"name":"G3","ticks":70560,"time":73.5,"velocity":0.5039370078740157},{"duration":0.71145833333334,"durationTicks":683,"midi":45,"name":"A2","ticks":71040,"time":74,"velocity":0.5039370078740157},{"duration":0.71145833333334,"durationTicks":683,"midi":52,"name":"E3","ticks":71040,"time":74,"velocity":0.5039370078740157},{"duration":0.71145833333334,"durationTicks":683,"midi":57,"name":"A3","ticks":71040,"time":74,"velocity":0.5039370078740157},{"duration":0.23645833333333144,"durationTicks":227,"midi":45,"name":"A2","ticks":71760,"time":74.75,"velocity":0.5039370078740157},{"duration":0.4739583333333286,"durationTicks":455,"midi":45,"name":"A2","ticks":72000,"time":75,"velocity":0.5039370078740157},{"duration":0.4739583333333286,"durationTicks":455,"midi":52,"name":"E3","ticks":72480,"time":75.5,"velocity":0.5039370078740157},{"duration":0.4739583333333286,"durationTicks":455,"midi":57,"name":"A3","ticks":72480,"time":75.5,"velocity":0.5039370078740157},{"duration":0.4739583333333286,"durationTicks":455,"midi":57,"name":"A3","ticks":72960,"time":76,"velocity":0.5039370078740157},{"duration":0.4739583333333286,"durationTicks":455,"midi":56,"name":"G#3","ticks":73920,"time":77,"velocity":0.5039370078740157},{"duration":0.4739583333333286,"durationTicks":455,"midi":54,"name":"F#3","ticks":74880,"time":78,"velocity":0.5039370078740157},{"duration":0.4739583333333286,"durationTicks":455,"midi":52,"name":"E3","ticks":75840,"time":79,"velocity":0.5039370078740157},{"duration":0.4739583333333286,"durationTicks":455,"midi":50,"name":"D3","ticks":76800,"time":80,"velocity":0.5039370078740157},{"duration":0.4739583333333286,"durationTicks":455,"midi":50,"name":"D3","ticks":77760,"time":81,"velocity":0.5039370078740157},{"duration":0.4739583333333286,"durationTicks":455,"midi":49,"name":"C#3","ticks":78720,"time":82,"velocity":0.5039370078740157},{"duration":0.4739583333333286,"durationTicks":455,"midi":49,"name":"C#3","ticks":79680,"time":83,"velocity":0.5039370078740157},{"duration":0.4739583333333286,"durationTicks":455,"midi":57,"name":"A3","ticks":80640,"time":84,"velocity":0.5039370078740157},{"duration":0.4739583333333286,"durationTicks":455,"midi":56,"name":"G#3","ticks":81600,"time":85,"velocity":0.5039370078740157},{"duration":0.4739583333333286,"durationTicks":455,"midi":54,"name":"F#3","ticks":82560,"time":86,"velocity":0.5039370078740157},{"duration":0.4739583333333286,"durationTicks":455,"midi":52,"name":"E3","ticks":83520,"time":87,"velocity":0.5039370078740157},{"duration":0.4739583333333286,"durationTicks":455,"midi":50,"name":"D3","ticks":84480,"time":88,"velocity":0.5039370078740157},{"duration":0.4739583333333286,"durationTicks":455,"midi":50,"name":"D3","ticks":85440,"time":89,"velocity":0.5039370078740157},{"duration":0.4739583333333286,"durationTicks":455,"midi":49,"name":"C#3","ticks":86400,"time":90,"velocity":0.5039370078740157},{"duration":0.375,"durationTicks":360,"midi":49,"name":"C#3","ticks":87360,"time":91,"velocity":0.5039370078740157},{"duration":1.89895833333334,"durationTicks":1823,"midi":54,"name":"F#3","ticks":90720,"time":95.5,"velocity":0.5039370078740157},{"duration":1.89895833333334,"durationTicks":1823,"midi":57,"name":"A3","ticks":90720,"time":95.5,"velocity":0.5039370078740157},{"duration":1.89895833333334,"durationTicks":1823,"midi":61,"name":"C#4","ticks":90720,"time":95.5,"velocity":0.5039370078740157},{"duration":0.71145833333334,"durationTicks":683,"midi":50,"name":"D3","ticks":92640,"time":97.5,"velocity":0.5039370078740157},{"duration":0.71145833333334,"durationTicks":683,"midi":54,"name":"F#3","ticks":92640,"time":97.5,"velocity":0.5039370078740157},{"duration":0.71145833333334,"durationTicks":683,"midi":57,"name":"A3","ticks":92640,"time":97.5,"velocity":0.5039370078740157},{"duration":0.23645833333333144,"durationTicks":227,"midi":50,"name":"D3","ticks":93360,"time":98.25,"velocity":0.5039370078740157},{"duration":0.4739583333333286,"durationTicks":455,"midi":50,"name":"D3","ticks":93600,"time":98.5,"velocity":0.5039370078740157},{"duration":0.4739583333333286,"durationTicks":455,"midi":54,"name":"F#3","ticks":94080,"time":99,"velocity":0.5039370078740157},{"duration":0.4739583333333286,"durationTicks":455,"midi":57,"name":"A3","ticks":94080,"time":99,"velocity":0.5039370078740157},{"duration":0.71145833333334,"durationTicks":683,"midi":43,"name":"G2","ticks":94560,"time":99.5,"velocity":0.5039370078740157},{"duration":0.71145833333334,"durationTicks":683,"midi":50,"name":"D3","ticks":94560,"time":99.5,"velocity":0.5039370078740157},{"duration":0.71145833333334,"durationTicks":683,"midi":55,"name":"G3","ticks":94560,"time":99.5,"velocity":0.5039370078740157},{"duration":0.23645833333333144,"durationTicks":227,"midi":43,"name":"G2","ticks":95280,"time":100.25,"velocity":0.5039370078740157},{"duration":0.4739583333333286,"durationTicks":455,"midi":43,"name":"G2","ticks":95520,"time":100.5,"velocity":0.5039370078740157},{"duration":0.4739583333333286,"durationTicks":455,"midi":50,"name":"D3","ticks":96000,"time":101,"velocity":0.5039370078740157},{"duration":0.4739583333333286,"durationTicks":455,"midi":55,"name":"G3","ticks":96000,"time":101,"velocity":0.5039370078740157},{"duration":0.71145833333334,"durationTicks":683,"midi":50,"name":"D3","ticks":96480,"time":101.5,"velocity":0.5039370078740157},{"duration":0.71145833333334,"durationTicks":683,"midi":53,"name":"F3","ticks":96480,"time":101.5,"velocity":0.5039370078740157},{"duration":0.23645833333333144,"durationTicks":227,"midi":45,"name":"A2","ticks":97200,"time":102.25,"velocity":0.5039370078740157},{"duration":0.4739583333333286,"durationTicks":455,"midi":45,"name":"A2","ticks":97440,"time":102.5,"velocity":0.5039370078740157},{"duration":0.4739583333333286,"durationTicks":455,"midi":50,"name":"D3","ticks":97920,"time":103,"velocity":0.5039370078740157},{"duration":0.4739583333333286,"durationTicks":455,"midi":57,"name":"A3","ticks":97920,"time":103,"velocity":0.5039370078740157},{"duration":1.8989583333333258,"durationTicks":1823,"midi":54,"name":"F#3","ticks":98400,"time":103.5,"velocity":0.5039370078740157},{"duration":1.8989583333333258,"durationTicks":1823,"midi":57,"name":"A3","ticks":98400,"time":103.5,"velocity":0.5039370078740157},{"duration":1.8989583333333258,"durationTicks":1823,"midi":61,"name":"C#4","ticks":98400,"time":103.5,"velocity":0.5039370078740157},{"duration":0.9489583333333371,"durationTicks":911,"midi":49,"name":"C#3","ticks":100320,"time":105.5,"velocity":0.5039370078740157},{"duration":0.9489583333333371,"durationTicks":911,"midi":52,"name":"E3","ticks":100320,"time":105.5,"velocity":0.5039370078740157},{"duration":0.9489583333333371,"durationTicks":911,"midi":56,"name":"G#3","ticks":100320,"time":105.5,"velocity":0.5039370078740157},{"duration":0.4739583333333286,"durationTicks":455,"midi":54,"name":"F#3","ticks":101760,"time":107,"velocity":0.5039370078740157},{"duration":0.7114583333333258,"durationTicks":683,"midi":43,"name":"G2","ticks":102240,"time":107.5,"velocity":0.5039370078740157},{"duration":0.7114583333333258,"durationTicks":683,"midi":50,"name":"D3","ticks":102240,"time":107.5,"velocity":0.5039370078740157},{"duration":0.7114583333333258,"durationTicks":683,"midi":55,"name":"G3","ticks":102240,"time":107.5,"velocity":0.5039370078740157},{"duration":0.4739583333333286,"durationTicks":455,"midi":43,"name":"G2","ticks":103200,"time":108.5,"velocity":0.5039370078740157},{"duration":0.4739583333333286,"durationTicks":455,"midi":50,"name":"D3","ticks":103680,"time":109,"velocity":0.5039370078740157},{"duration":0.4739583333333286,"durationTicks":455,"midi":55,"name":"G3","ticks":103680,"time":109,"velocity":0.5039370078740157},{"duration":0.7114583333333258,"durationTicks":683,"midi":45,"name":"A2","ticks":104160,"time":109.5,"velocity":0.5039370078740157},{"duration":0.7114583333333258,"durationTicks":683,"midi":52,"name":"E3","ticks":104160,"time":109.5,"velocity":0.5039370078740157},{"duration":0.7114583333333258,"durationTicks":683,"midi":57,"name":"A3","ticks":104160,"time":109.5,"velocity":0.5039370078740157},{"duration":0.23645833333333144,"durationTicks":227,"midi":45,"name":"A2","ticks":104880,"time":110.25,"velocity":0.5039370078740157},{"duration":0.4739583333333286,"durationTicks":455,"midi":45,"name":"A2","ticks":105120,"time":110.5,"velocity":0.5039370078740157},{"duration":0.4739583333333286,"durationTicks":455,"midi":52,"name":"E3","ticks":105600,"time":111,"velocity":0.5039370078740157},{"duration":0.4739583333333286,"durationTicks":455,"midi":57,"name":"A3","ticks":105600,"time":111,"velocity":0.5039370078740157},{"duration":0.9489583333333371,"durationTicks":911,"midi":45,"name":"A2","ticks":106080,"time":111.5,"velocity":0.5039370078740157},{"duration":0.9489583333333371,"durationTicks":911,"midi":52,"name":"E3","ticks":106080,"time":111.5,"velocity":0.5039370078740157},{"duration":0.9489583333333371,"durationTicks":911,"midi":57,"name":"A3","ticks":106080,"time":111.5,"velocity":0.5039370078740157},{"duration":0.23645833333333144,"durationTicks":227,"midi":45,"name":"A2","ticks":107040,"time":112.5,"velocity":0.5039370078740157},{"duration":0.23645833333333144,"durationTicks":227,"midi":50,"name":"D3","ticks":107280,"time":112.75,"velocity":0.5039370078740157},{"duration":0.23645833333333144,"durationTicks":227,"midi":50,"name":"D3","ticks":107520,"time":113,"velocity":0.5039370078740157},{"duration":0.9489583333333371,"durationTicks":911,"midi":52,"name":"E3","ticks":107760,"time":113.25,"velocity":0.5039370078740157},{"duration":0.9489583333333371,"durationTicks":911,"midi":45,"name":"A2","ticks":113760,"time":119.5,"velocity":0.5039370078740157},{"duration":0.9489583333333371,"durationTicks":911,"midi":52,"name":"E3","ticks":113760,"time":119.5,"velocity":0.5039370078740157},{"duration":0.9489583333333371,"durationTicks":911,"midi":57,"name":"A3","ticks":113760,"time":119.5,"velocity":0.5039370078740157},{"duration":2.136458333333337,"durationTicks":2051,"midi":49,"name":"C#3","ticks":117360,"time":123.25,"velocity":0.5039370078740157},{"duration":2.136458333333337,"durationTicks":2051,"midi":52,"name":"E3","ticks":117360,"time":123.25,"velocity":0.5039370078740157},{"duration":2.136458333333337,"durationTicks":2051,"midi":57,"name":"A3","ticks":117360,"time":123.25,"velocity":0.5039370078740157}]}]}