{"header":{"title":"Likey","artist":"Twice","source":"https://musescore.com/ericlee/twice---likey","bpm":126.000126000126,"duration":106.3084254375},"tracks":[{"instrument_number":0,"notes":[{"duration":0.4751979375,"durationTicks":479,"midi":79,"name":"G5","ticks":0,"time":0,"velocity":0.6299212598425197},{"duration":0.3561504375,"durationTicks":359,"midi":79,"name":"G5","ticks":480,"time":0.47619,"velocity":0.6299212598425197},{"duration":0.2371029375,"durationTicks":239,"midi":79,"name":"G5","ticks":840,"time":0.8333325,"velocity":0.6299212598425197},{"duration":0.11805543750000003,"durationTicks":119,"midi":79,"name":"G5","ticks":1080,"time":1.0714275,"velocity":0.6299212598425197},{"duration":0.23710293750000022,"durationTicks":239,"midi":76,"name":"E5","ticks":1200,"time":1.190475,"velocity":0.6299212598425197},{"duration":0.2371029375,"durationTicks":239,"midi":79,"name":"G5","ticks":1440,"time":1.4285700000000001,"velocity":0.6299212598425197},{"duration":0.2371029375,"durationTicks":239,"midi":81,"name":"A5","ticks":1680,"time":1.666665,"velocity":0.6299212598425197},{"duration":0.47519793749999995,"durationTicks":479,"midi":83,"name":"B5","ticks":1920,"time":1.90476,"velocity":0.6299212598425197},{"duration":0.3561504375000002,"durationTicks":359,"midi":83,"name":"B5","ticks":2400,"time":2.38095,"velocity":0.6299212598425197},{"duration":0.2371029375,"durationTicks":239,"midi":83,"name":"B5","ticks":2760,"time":2.7380925,"velocity":0.6299212598425197},{"duration":0.11805543750000025,"durationTicks":119,"midi":83,"name":"B5","ticks":3000,"time":2.9761875,"velocity":0.6299212598425197},{"duration":0.2371029375,"durationTicks":239,"midi":81,"name":"A5","ticks":3120,"time":3.095235,"velocity":0.6299212598425197},{"duration":0.2371029375,"durationTicks":239,"midi":79,"name":"G5","ticks":3360,"time":3.33333,"velocity":0.6299212598425197},{"duration":0.2371029375,"durationTicks":239,"midi":81,"name":"A5","ticks":3600,"time":3.571425,"velocity":0.6299212598425197},{"duration":0.47519793749999995,"durationTicks":479,"midi":83,"name":"B5","ticks":3840,"time":3.80952,"velocity":0.6299212598425197},{"duration":0.3561504375000002,"durationTicks":359,"midi":83,"name":"B5","ticks":4320,"time":4.28571,"velocity":0.6299212598425197},{"duration":0.23710293750000044,"durationTicks":239,"midi":83,"name":"B5","ticks":4680,"time":4.6428525,"velocity":0.6299212598425197},{"duration":0.1180554374999998,"durationTicks":119,"midi":83,"name":"B5","ticks":4920,"time":4.8809475,"velocity":0.6299212598425197},{"duration":0.23710293749999956,"durationTicks":239,"midi":88,"name":"E6","ticks":5040,"time":4.999995,"velocity":0.6299212598425197},{"duration":0.23710293750000044,"durationTicks":239,"midi":86,"name":"D6","ticks":5280,"time":5.23809,"velocity":0.6299212598425197},{"duration":0.23710293750000044,"durationTicks":239,"midi":83,"name":"B5","ticks":5520,"time":5.476185,"velocity":0.6299212598425197},{"duration":0.47519793749999995,"durationTicks":479,"midi":81,"name":"A5","ticks":5760,"time":5.7142800000000005,"velocity":0.6299212598425197},{"duration":0.3561504374999993,"durationTicks":359,"midi":81,"name":"A5","ticks":6240,"time":6.19047,"velocity":0.6299212598425197},{"duration":0.23710293750000044,"durationTicks":239,"midi":81,"name":"A5","ticks":6600,"time":6.5476125,"velocity":0.6299212598425197},{"duration":0.1180554374999998,"durationTicks":119,"midi":81,"name":"A5","ticks":6840,"time":6.7857075,"velocity":0.6299212598425197},{"duration":0.23710293750000044,"durationTicks":239,"midi":83,"name":"B5","ticks":6960,"time":6.904755,"velocity":0.6299212598425197},{"duration":0.23710293749999956,"durationTicks":239,"midi":81,"name":"A5","ticks":7200,"time":7.14285,"velocity":0.6299212598425197},{"duration":0.2251981875000002,"durationTicks":227,"midi":79,"name":"G5","ticks":7440,"time":7.380945,"velocity":0.6299212598425197},{"duration":0.23710293749999956,"durationTicks":239,"midi":64,"name":"E4","ticks":7680,"time":7.61904,"velocity":0.6299212598425197},{"duration":0.47519793749999906,"durationTicks":479,"midi":67,"name":"G4","ticks":7680,"time":7.61904,"velocity":0.6299212598425197},{"duration":0.23710293749999867,"durationTicks":239,"midi":60,"name":"C4","ticks":7920,"time":7.857135,"velocity":0.6299212598425197},{"duration":0.23710293749999778,"durationTicks":239,"midi":64,"name":"E4","ticks":8160,"time":8.09523,"velocity":0.6299212598425197},{"duration":0.3561504374999984,"durationTicks":359,"midi":67,"name":"G4","ticks":8160,"time":8.09523,"velocity":0.6299212598425197},{"duration":0.23710293749999956,"durationTicks":239,"midi":60,"name":"C4","ticks":8400,"time":8.333325,"velocity":0.6299212598425197},{"duration":0.23710293749999956,"durationTicks":239,"midi":67,"name":"G4","ticks":8520,"time":8.4523725,"velocity":0.6299212598425197},{"duration":0.23710293749999956,"durationTicks":239,"midi":64,"name":"E4","ticks":8640,"time":8.57142,"velocity":0.6299212598425197},{"duration":0.11805543749999892,"durationTicks":119,"midi":67,"name":"G4","ticks":8760,"time":8.6904675,"velocity":0.6299212598425197},{"duration":0.23710293749999956,"durationTicks":239,"midi":60,"name":"C4","ticks":8880,"time":8.809515,"velocity":0.6299212598425197},{"duration":0.23710293749999956,"durationTicks":239,"midi":64,"name":"E4","ticks":8880,"time":8.809515,"velocity":0.6299212598425197},{"duration":0.23710293749999778,"durationTicks":239,"midi":64,"name":"E4","ticks":9120,"time":9.04761,"velocity":0.6299212598425197},{"duration":0.23710293749999778,"durationTicks":239,"midi":67,"name":"G4","ticks":9120,"time":9.04761,"velocity":0.6299212598425197},{"duration":0.23710293749999956,"durationTicks":239,"midi":60,"name":"C4","ticks":9360,"time":9.285705,"velocity":0.6299212598425197},{"duration":0.23710293749999956,"durationTicks":239,"midi":69,"name":"A4","ticks":9360,"time":9.285705,"velocity":0.6299212598425197},{"duration":0.23710293749999956,"durationTicks":239,"midi":64,"name":"E4","ticks":9600,"time":9.5238,"velocity":0.6299212598425197},{"duration":0.47519793749999906,"durationTicks":479,"midi":71,"name":"B4","ticks":9600,"time":9.5238,"velocity":0.6299212598425197},{"duration":0.23710293749999778,"durationTicks":239,"midi":60,"name":"C4","ticks":9840,"time":9.761895,"velocity":0.6299212598425197},{"duration":0.23710293749999956,"durationTicks":239,"midi":64,"name":"E4","ticks":10080,"time":9.99999,"velocity":0.6299212598425197},{"duration":0.3561504374999984,"durationTicks":359,"midi":71,"name":"B4","ticks":10080,"time":9.99999,"velocity":0.6299212598425197},{"duration":0.23710293749999956,"durationTicks":239,"midi":60,"name":"C4","ticks":10320,"time":10.238085,"velocity":0.6299212598425197},{"duration":0.23710293749999956,"durationTicks":239,"midi":71,"name":"B4","ticks":10440,"time":10.3571325,"velocity":0.6299212598425197},{"duration":0.23710293749999956,"durationTicks":239,"midi":64,"name":"E4","ticks":10560,"time":10.47618,"velocity":0.6299212598425197},{"duration":0.11805543749999892,"durationTicks":119,"midi":71,"name":"B4","ticks":10680,"time":10.5952275,"velocity":0.6299212598425197},{"duration":0.23710293749999778,"durationTicks":239,"midi":60,"name":"C4","ticks":10800,"time":10.714275,"velocity":0.6299212598425197},{"duration":0.23710293749999778,"durationTicks":239,"midi":69,"name":"A4","ticks":10800,"time":10.714275,"velocity":0.6299212598425197},{"duration":0.23710293749999956,"durationTicks":239,"midi":64,"name":"E4","ticks":11040,"time":10.95237,"velocity":0.6299212598425197},{"duration":0.47519793749999906,"durationTicks":479,"midi":71,"name":"B4","ticks":11040,"time":10.95237,"velocity":0.6299212598425197},{"duration":0.23710293749999956,"durationTicks":239,"midi":60,"name":"C4","ticks":11280,"time":11.190465,"velocity":0.6299212598425197},{"duration":0,"durationTicks":0,"midi":67,"name":"G4","ticks":11520,"time":11.428560000000001,"velocity":0.6299212598425197},{"duration":0.47519793749999906,"durationTicks":479,"midi":67,"name":"G4","ticks":11520,"time":11.428560000000001,"velocity":0.6299212598425197},{"duration":0.23710293749999956,"durationTicks":239,"midi":64,"name":"E4","ticks":11760,"time":11.666655,"velocity":0.6299212598425197},{"duration":0.3561504375000002,"durationTicks":359,"midi":67,"name":"G4","ticks":12000,"time":11.90475,"velocity":0.6299212598425197},{"duration":0.11805543750000069,"durationTicks":119,"midi":64,"name":"E4","ticks":12240,"time":12.142845,"velocity":0.6299212598425197},{"duration":0.11805543749999892,"durationTicks":119,"midi":67,"name":"G4","ticks":12360,"time":12.2618925,"velocity":0.6299212598425197},{"duration":0.3561504375000002,"durationTicks":359,"midi":64,"name":"E4","ticks":12600,"time":12.4999875,"velocity":0.6299212598425197},{"duration":0.23710293749999956,"durationTicks":239,"midi":76,"name":"E5","ticks":12720,"time":12.619035,"velocity":0.6299212598425197},{"duration":0.23710293749999956,"durationTicks":239,"midi":67,"name":"G4","ticks":12960,"time":12.85713,"velocity":0.6299212598425197},{"duration":0.23710293749999956,"durationTicks":239,"midi":74,"name":"D5","ticks":12960,"time":12.85713,"velocity":0.6299212598425197},{"duration":0.23710293749999956,"durationTicks":239,"midi":64,"name":"E4","ticks":13200,"time":13.095225,"velocity":0.6299212598425197},{"duration":0.23710293749999956,"durationTicks":239,"midi":71,"name":"B4","ticks":13200,"time":13.095225,"velocity":0.6299212598425197},{"duration":0.47519793749999906,"durationTicks":479,"midi":69,"name":"A4","ticks":13440,"time":13.33332,"velocity":0.6299212598425197},{"duration":0.3561504375000002,"durationTicks":359,"midi":69,"name":"A4","ticks":13920,"time":13.80951,"velocity":0.6299212598425197},{"duration":0.11210306249999924,"durationTicks":113,"midi":69,"name":"A4","ticks":14280,"time":14.1666525,"velocity":0.6299212598425197},{"duration":0.11210306249999924,"durationTicks":113,"midi":88,"name":"E6","ticks":15360,"time":15.23808,"velocity":0.6299212598425197},{"duration":0.11210306249999924,"durationTicks":113,"midi":91,"name":"G6","ticks":15480,"time":15.3571275,"velocity":0.6299212598425197},{"duration":0.11210306249999924,"durationTicks":113,"midi":95,"name":"B6","ticks":15600,"time":15.476175,"velocity":0.6299212598425197},{"duration":0.11210306249999924,"durationTicks":113,"midi":98,"name":"D7","ticks":15720,"time":15.5952225,"velocity":0.6299212598425197},{"duration":0.33829331250000116,"durationTicks":341,"midi":67,"name":"G4","ticks":15840,"time":15.71427,"velocity":0.6299212598425197},{"duration":0.23710293750000133,"durationTicks":239,"midi":81,"name":"A5","ticks":16080,"time":15.952365,"velocity":0.6299212598425197},{"duration":0.3561504374999984,"durationTicks":359,"midi":67,"name":"G4","ticks":16200,"time":16.0714125,"velocity":0.6299212598425197},{"duration":0.23710293749999778,"durationTicks":239,"midi":81,"name":"A5","ticks":16320,"time":16.19046,"velocity":0.6299212598425197},{"duration":0.23710293750000133,"durationTicks":239,"midi":81,"name":"A5","ticks":16560,"time":16.428555,"velocity":0.6299212598425197},{"duration":0.23710293750000133,"durationTicks":239,"midi":67,"name":"G4","ticks":16800,"time":16.66665,"velocity":0.6299212598425197},{"duration":0.23710293750000133,"durationTicks":239,"midi":81,"name":"A5","ticks":16800,"time":16.66665,"velocity":0.6299212598425197},{"duration":0.23710293750000133,"durationTicks":239,"midi":69,"name":"A4","ticks":17040,"time":16.904745,"velocity":0.6299212598425197},{"duration":0.23710293750000133,"durationTicks":239,"midi":81,"name":"A5","ticks":17040,"time":16.904745,"velocity":0.6299212598425197},{"duration":0.4751979375000026,"durationTicks":479,"midi":71,"name":"B4","ticks":17280,"time":17.14284,"velocity":0.6299212598425197},{"duration":0.23710293750000133,"durationTicks":239,"midi":81,"name":"A5","ticks":17280,"time":17.14284,"velocity":0.6299212598425197},{"duration":0.22519818750000198,"durationTicks":227,"midi":83,"name":"B5","ticks":17520,"time":17.380935,"velocity":0.6299212598425197},{"duration":0.33829331250000294,"durationTicks":341,"midi":71,"name":"B4","ticks":17760,"time":17.61903,"velocity":0.6299212598425197},{"duration":0.23710293750000133,"durationTicks":239,"midi":74,"name":"D5","ticks":18000,"time":17.857125,"velocity":0.6299212598425197},{"duration":0.35615043750000197,"durationTicks":359,"midi":71,"name":"B4","ticks":18120,"time":17.9761725,"velocity":0.6299212598425197},{"duration":0.23710293750000133,"durationTicks":239,"midi":83,"name":"B5","ticks":18240,"time":18.09522,"velocity":0.6299212598425197},{"duration":0.23710293750000133,"durationTicks":239,"midi":69,"name":"A4","ticks":18480,"time":18.333315,"velocity":0.6299212598425197},{"duration":0.23710293750000133,"durationTicks":239,"midi":81,"name":"A5","ticks":18480,"time":18.333315,"velocity":0.6299212598425197},{"duration":0.23710293750000133,"durationTicks":239,"midi":71,"name":"B4","ticks":18720,"time":18.57141,"velocity":0.6299212598425197},{"duration":0.23710293750000133,"durationTicks":239,"midi":83,"name":"B5","ticks":18720,"time":18.57141,"velocity":0.6299212598425197},{"duration":0.23710293749999778,"durationTicks":239,"midi":69,"name":"A4","ticks":18960,"time":18.809505,"velocity":0.6299212598425197},{"duration":0.23710293749999778,"durationTicks":239,"midi":81,"name":"A5","ticks":18960,"time":18.809505,"velocity":0.6299212598425197},{"duration":0.4751979375000026,"durationTicks":479,"midi":71,"name":"B4","ticks":19200,"time":19.0476,"velocity":0.6299212598425197},{"duration":0.23710293750000133,"durationTicks":239,"midi":83,"name":"B5","ticks":19200,"time":19.0476,"velocity":0.6299212598425197},{"duration":0.22519818750000198,"durationTicks":227,"midi":81,"name":"A5","ticks":19440,"time":19.285695,"velocity":0.6299212598425197},{"duration":0.3382933124999994,"durationTicks":341,"midi":67,"name":"G4","ticks":19680,"time":19.52379,"velocity":0.6299212598425197},{"duration":0.11805543750000069,"durationTicks":119,"midi":81,"name":"A5","ticks":20160,"time":19.99998,"velocity":0.6299212598425197},{"duration":0.11805543750000069,"durationTicks":119,"midi":79,"name":"G5","ticks":20280,"time":20.1190275,"velocity":0.6299212598425197},{"duration":0.23710293750000133,"durationTicks":239,"midi":76,"name":"E5","ticks":20400,"time":20.238075,"velocity":0.6299212598425197},{"duration":0.11805543750000425,"durationTicks":119,"midi":81,"name":"A5","ticks":20400,"time":20.238075,"velocity":0.6299212598425197},{"duration":0.11805543750000069,"durationTicks":119,"midi":79,"name":"G5","ticks":20520,"time":20.3571225,"velocity":0.6299212598425197},{"duration":0.23710293750000133,"durationTicks":239,"midi":74,"name":"D5","ticks":20640,"time":20.47617,"velocity":0.6299212598425197},{"duration":0.11805543750000069,"durationTicks":119,"midi":81,"name":"A5","ticks":20640,"time":20.47617,"velocity":0.6299212598425197},{"duration":0.11805543750000069,"durationTicks":119,"midi":79,"name":"G5","ticks":20760,"time":20.5952175,"velocity":0.6299212598425197},{"duration":0.23710293750000133,"durationTicks":239,"midi":71,"name":"B4","ticks":20880,"time":20.714265,"velocity":0.6299212598425197},{"duration":0.11805543750000069,"durationTicks":119,"midi":81,"name":"A5","ticks":20880,"time":20.714265,"velocity":0.6299212598425197},{"duration":0.11805543750000069,"durationTicks":119,"midi":79,"name":"G5","ticks":21000,"time":20.8333125,"velocity":0.6299212598425197},{"duration":0.4751979375000026,"durationTicks":479,"midi":69,"name":"A4","ticks":21120,"time":20.95236,"velocity":0.6299212598425197},{"duration":0.11805543750000069,"durationTicks":119,"midi":81,"name":"A5","ticks":21120,"time":20.95236,"velocity":0.6299212598425197},{"duration":0.11210306250000102,"durationTicks":113,"midi":78,"name":"F#5","ticks":21240,"time":21.0714075,"velocity":0.6299212598425197},{"duration":0.3382933124999994,"durationTicks":341,"midi":69,"name":"A4","ticks":21600,"time":21.42855,"velocity":0.6299212598425197},{"duration":0.3382933124999994,"durationTicks":341,"midi":69,"name":"A4","ticks":21960,"time":21.7856925,"velocity":0.6299212598425197},{"duration":0.11805543750000069,"durationTicks":119,"midi":78,"name":"F#5","ticks":22080,"time":21.90474,"velocity":0.6299212598425197},{"duration":0.11805543750000069,"durationTicks":119,"midi":81,"name":"A5","ticks":22080,"time":21.90474,"velocity":0.6299212598425197},{"duration":0.22519818749999843,"durationTicks":227,"midi":71,"name":"B4","ticks":22320,"time":22.142835,"velocity":0.6299212598425197},{"duration":0.22519818750000198,"durationTicks":227,"midi":69,"name":"A4","ticks":22560,"time":22.38093,"velocity":0.6299212598425197},{"duration":0.11805543750000069,"durationTicks":119,"midi":78,"name":"F#5","ticks":22560,"time":22.38093,"velocity":0.6299212598425197},{"duration":0.11805543750000069,"durationTicks":119,"midi":81,"name":"A5","ticks":22560,"time":22.38093,"velocity":0.6299212598425197},{"duration":0.23710293750000133,"durationTicks":239,"midi":67,"name":"G4","ticks":22800,"time":22.619025,"velocity":0.6299212598425197},{"duration":0.23710293750000133,"durationTicks":239,"midi":79,"name":"G5","ticks":22800,"time":22.619025,"velocity":0.6299212598425197},{"duration":0.11805543750000069,"durationTicks":119,"midi":88,"name":"E6","ticks":23040,"time":22.857120000000002,"velocity":0.6299212598425197},{"duration":0.11805543750000069,"durationTicks":119,"midi":91,"name":"G6","ticks":23160,"time":22.9761675,"velocity":0.6299212598425197},{"duration":0.11210306250000102,"durationTicks":113,"midi":95,"name":"B6","ticks":23280,"time":23.095215,"velocity":0.6299212598425197},{"duration":0.11210306250000102,"durationTicks":113,"midi":98,"name":"D7","ticks":23400,"time":23.2142625,"velocity":0.6299212598425197},{"duration":0.3382933124999994,"durationTicks":341,"midi":67,"name":"G4","ticks":23520,"time":23.33331,"velocity":0.6299212598425197},{"duration":0.23710293750000133,"durationTicks":239,"midi":81,"name":"A5","ticks":23760,"time":23.571405,"velocity":0.6299212598425197},{"duration":0.35615043750000197,"durationTicks":359,"midi":67,"name":"G4","ticks":23880,"time":23.6904525,"velocity":0.6299212598425197},{"duration":0.23710293750000133,"durationTicks":239,"midi":81,"name":"A5","ticks":24000,"time":23.8095,"velocity":0.6299212598425197},{"duration":0.23710293750000133,"durationTicks":239,"midi":81,"name":"A5","ticks":24240,"time":24.047595,"velocity":0.6299212598425197},{"duration":0.23710293750000133,"durationTicks":239,"midi":67,"name":"G4","ticks":24480,"time":24.28569,"velocity":0.6299212598425197},{"duration":0.23710293750000133,"durationTicks":239,"midi":81,"name":"A5","ticks":24480,"time":24.28569,"velocity":0.6299212598425197},{"duration":0.23710293750000133,"durationTicks":239,"midi":69,"name":"A4","ticks":24720,"time":24.523785,"velocity":0.6299212598425197},{"duration":0.23710293750000133,"durationTicks":239,"midi":81,"name":"A5","ticks":24720,"time":24.523785,"velocity":0.6299212598425197},{"duration":0.47519793749999906,"durationTicks":479,"midi":71,"name":"B4","ticks":24960,"time":24.76188,"velocity":0.6299212598425197},{"duration":0.23710293750000133,"durationTicks":239,"midi":81,"name":"A5","ticks":24960,"time":24.76188,"velocity":0.6299212598425197},{"duration":0.22519818750000198,"durationTicks":227,"midi":83,"name":"B5","ticks":25200,"time":24.999975,"velocity":0.6299212598425197},{"duration":0.3382933124999994,"durationTicks":341,"midi":71,"name":"B4","ticks":25440,"time":25.23807,"velocity":0.6299212598425197},{"duration":0.23710293749999778,"durationTicks":239,"midi":74,"name":"D5","ticks":25680,"time":25.476165,"velocity":0.6299212598425197},{"duration":0.35615043750000197,"durationTicks":359,"midi":71,"name":"B4","ticks":25800,"time":25.5952125,"velocity":0.6299212598425197},{"duration":0.23710293750000133,"durationTicks":239,"midi":83,"name":"B5","ticks":25920,"time":25.71426,"velocity":0.6299212598425197},{"duration":0.23710293750000133,"durationTicks":239,"midi":69,"name":"A4","ticks":26160,"time":25.952355,"velocity":0.6299212598425197},{"duration":0.23710293750000133,"durationTicks":239,"midi":81,"name":"A5","ticks":26160,"time":25.952355,"velocity":0.6299212598425197},{"duration":0.23710293750000133,"durationTicks":239,"midi":71,"name":"B4","ticks":26400,"time":26.19045,"velocity":0.6299212598425197},{"duration":0.23710293750000133,"durationTicks":239,"midi":83,"name":"B5","ticks":26400,"time":26.19045,"velocity":0.6299212598425197},{"duration":0.23710293750000133,"durationTicks":239,"midi":69,"name":"A4","ticks":26640,"time":26.428545,"velocity":0.6299212598425197},{"duration":0.23710293750000133,"durationTicks":239,"midi":81,"name":"A5","ticks":26640,"time":26.428545,"velocity":0.6299212598425197},{"duration":0.47519793749999906,"durationTicks":479,"midi":71,"name":"B4","ticks":26880,"time":26.66664,"velocity":0.6299212598425197},{"duration":0.23710293750000133,"durationTicks":239,"midi":83,"name":"B5","ticks":26880,"time":26.66664,"velocity":0.6299212598425197},{"duration":0.22519818750000198,"durationTicks":227,"midi":81,"name":"A5","ticks":27120,"time":26.904735,"velocity":0.6299212598425197},{"duration":0.3382933124999994,"durationTicks":341,"midi":67,"name":"G4","ticks":27360,"time":27.14283,"velocity":0.6299212598425197},{"duration":0,"durationTicks":0,"midi":67,"name":"G4","ticks":27720,"time":27.4999725,"velocity":0.6299212598425197},{"duration":0.11805543750000069,"durationTicks":119,"midi":81,"name":"A5","ticks":27840,"time":27.61902,"velocity":0.6299212598425197},{"duration":0.11805543750000069,"durationTicks":119,"midi":79,"name":"G5","ticks":27960,"time":27.7380675,"velocity":0.6299212598425197},{"duration":0.23710293750000133,"durationTicks":239,"midi":76,"name":"E5","ticks":28080,"time":27.857115,"velocity":0.6299212598425197},{"duration":0.11805543750000069,"durationTicks":119,"midi":81,"name":"A5","ticks":28080,"time":27.857115,"velocity":0.6299212598425197},{"duration":0.11805543750000069,"durationTicks":119,"midi":79,"name":"G5","ticks":28200,"time":27.9761625,"velocity":0.6299212598425197},{"duration":0.23710293749999778,"durationTicks":239,"midi":74,"name":"D5","ticks":28320,"time":28.09521,"velocity":0.6299212598425197},{"duration":0.11805543750000069,"durationTicks":119,"midi":81,"name":"A5","ticks":28320,"time":28.09521,"velocity":0.6299212598425197},{"duration":0.11805543750000069,"durationTicks":119,"midi":79,"name":"G5","ticks":28440,"time":28.2142575,"velocity":0.6299212598425197},{"duration":0.23710293750000133,"durationTicks":239,"midi":71,"name":"B4","ticks":28560,"time":28.333305,"velocity":0.6299212598425197},{"duration":0.11805543750000069,"durationTicks":119,"midi":81,"name":"A5","ticks":28560,"time":28.333305,"velocity":0.6299212598425197},{"duration":0.11805543750000069,"durationTicks":119,"midi":79,"name":"G5","ticks":28680,"time":28.4523525,"velocity":0.6299212598425197},{"duration":0.47519793749999906,"durationTicks":479,"midi":69,"name":"A4","ticks":28800,"time":28.5714,"velocity":0.6299212598425197},{"duration":0.11805543750000069,"durationTicks":119,"midi":81,"name":"A5","ticks":28800,"time":28.5714,"velocity":0.6299212598425197},{"duration":0.11210306249999746,"durationTicks":113,"midi":78,"name":"F#5","ticks":28920,"time":28.6904475,"velocity":0.6299212598425197},{"duration":0.3382933124999994,"durationTicks":341,"midi":69,"name":"A4","ticks":29280,"time":29.04759,"velocity":0.6299212598425197},{"duration":0.11210306249999746,"durationTicks":113,"midi":69,"name":"A4","ticks":29640,"time":29.4047325,"velocity":0.6299212598425197},{"duration":0.23710293750000133,"durationTicks":239,"midi":81,"name":"A5","ticks":29760,"time":29.52378,"velocity":0.6299212598425197},{"duration":0.11805543750000069,"durationTicks":119,"midi":81,"name":"A5","ticks":30000,"time":29.761875,"velocity":0.6299212598425197},{"duration":0.23710293750000133,"durationTicks":239,"midi":81,"name":"A5","ticks":30120,"time":29.8809225,"velocity":0.6299212598425197},{"duration":0.11805543750000069,"durationTicks":119,"midi":81,"name":"A5","ticks":30360,"time":30.1190175,"velocity":0.6299212598425197},{"duration":0.23710293750000133,"durationTicks":239,"midi":81,"name":"A5","ticks":30480,"time":30.238065,"velocity":0.6299212598425197},{"duration":0.23710293750000133,"durationTicks":239,"midi":72,"name":"C5","ticks":30720,"time":30.47616,"velocity":0.6299212598425197},{"duration":0.23710293750000133,"durationTicks":239,"midi":81,"name":"A5","ticks":30720,"time":30.47616,"velocity":0.6299212598425197},{"duration":0.22519818749999843,"durationTicks":227,"midi":83,"name":"B5","ticks":30960,"time":30.714255,"velocity":0.6299212598425197},{"duration":0.23710293749999778,"durationTicks":239,"midi":72,"name":"C5","ticks":32160,"time":31.90473,"velocity":0.6299212598425197},{"duration":0.23710293749999778,"durationTicks":239,"midi":81,"name":"A5","ticks":32160,"time":31.90473,"velocity":0.6299212598425197},{"duration":0.23710293749999778,"durationTicks":239,"midi":81,"name":"A5","ticks":32400,"time":32.142825,"velocity":0.6299212598425197},{"duration":0.45138843750000035,"durationTicks":455,"midi":69,"name":"A4","ticks":32640,"time":32.38092,"velocity":0.6299212598425197},{"duration":0.45138843750000035,"durationTicks":455,"midi":76,"name":"E5","ticks":32640,"time":32.38092,"velocity":0.6299212598425197},{"duration":0.23710293749999778,"durationTicks":239,"midi":81,"name":"A5","ticks":33600,"time":33.3333,"velocity":0.6299212598425197},{"duration":0.11805543749999714,"durationTicks":119,"midi":81,"name":"A5","ticks":33840,"time":33.571395,"velocity":0.6299212598425197},{"duration":0.23710293749999778,"durationTicks":239,"midi":81,"name":"A5","ticks":33960,"time":33.6904425,"velocity":0.6299212598425197},{"duration":0.11805543750000425,"durationTicks":119,"midi":81,"name":"A5","ticks":34200,"time":33.9285375,"velocity":0.6299212598425197},{"duration":0.23710293750000488,"durationTicks":239,"midi":81,"name":"A5","ticks":34320,"time":34.047585,"velocity":0.6299212598425197},{"duration":0.23710293750000488,"durationTicks":239,"midi":76,"name":"E5","ticks":34560,"time":34.28568,"velocity":0.6299212598425197},{"duration":0.23710293750000488,"durationTicks":239,"midi":81,"name":"A5","ticks":34560,"time":34.28568,"velocity":0.6299212598425197},{"duration":0.22519818749999843,"durationTicks":227,"midi":76,"name":"E5","ticks":34800,"time":34.523775,"velocity":0.6299212598425197},{"duration":0.22519818749999843,"durationTicks":227,"midi":83,"name":"B5","ticks":34800,"time":34.523775,"velocity":0.6299212598425197},{"duration":0.23710293749999778,"durationTicks":239,"midi":76,"name":"E5","ticks":36000,"time":35.71425,"velocity":0.6299212598425197},{"duration":0.23710293749999778,"durationTicks":239,"midi":81,"name":"A5","ticks":36000,"time":35.71425,"velocity":0.6299212598425197},{"duration":0.23710293749999778,"durationTicks":239,"midi":76,"name":"E5","ticks":36240,"time":35.952345,"velocity":0.6299212598425197},{"duration":0.23710293749999778,"durationTicks":239,"midi":81,"name":"A5","ticks":36240,"time":35.952345,"velocity":0.6299212598425197},{"duration":0.45138843750000035,"durationTicks":455,"midi":74,"name":"D5","ticks":36480,"time":36.19044,"velocity":0.6299212598425197},{"duration":0.45138843750000035,"durationTicks":455,"midi":78,"name":"F#5","ticks":36480,"time":36.19044,"velocity":0.6299212598425197},{"duration":0.23710293749999778,"durationTicks":239,"midi":74,"name":"D5","ticks":37440,"time":37.14282,"velocity":0.6299212598425197},{"duration":0.23710293749999778,"durationTicks":239,"midi":83,"name":"B5","ticks":37440,"time":37.14282,"velocity":0.6299212598425197},{"duration":0.11805543749999714,"durationTicks":119,"midi":81,"name":"A5","ticks":37680,"time":37.380915,"velocity":0.6299212598425197},{"duration":0.23710293749999778,"durationTicks":239,"midi":74,"name":"D5","ticks":37800,"time":37.4999625,"velocity":0.6299212598425197},{"duration":0.23710293749999778,"durationTicks":239,"midi":83,"name":"B5","ticks":37800,"time":37.4999625,"velocity":0.6299212598425197},{"duration":0.11805543749999714,"durationTicks":119,"midi":81,"name":"A5","ticks":38040,"time":37.738057500000004,"velocity":0.6299212598425197},{"duration":0.11805543750000425,"durationTicks":119,"midi":83,"name":"B5","ticks":38160,"time":37.857105,"velocity":0.6299212598425197},{"duration":0.11805543750000425,"durationTicks":119,"midi":81,"name":"A5","ticks":38280,"time":37.9761525,"velocity":0.6299212598425197},{"duration":0.23710293750000488,"durationTicks":239,"midi":72,"name":"C5","ticks":38400,"time":38.0952,"velocity":0.6299212598425197},{"duration":0.23710293750000488,"durationTicks":239,"midi":83,"name":"B5","ticks":38400,"time":38.0952,"velocity":0.6299212598425197},{"duration":0.22519818749999843,"durationTicks":227,"midi":81,"name":"A5","ticks":38640,"time":38.333295,"velocity":0.6299212598425197},{"duration":0.23710293749999778,"durationTicks":239,"midi":79,"name":"G5","ticks":39120,"time":38.809485,"velocity":0.6299212598425197},{"duration":0.11805543749999714,"durationTicks":119,"midi":72,"name":"C5","ticks":39360,"time":39.04758,"velocity":0.6299212598425197},{"duration":0.11805543749999714,"durationTicks":119,"midi":79,"name":"G5","ticks":39360,"time":39.04758,"velocity":0.6299212598425197},{"duration":0.11805543750000425,"durationTicks":119,"midi":81,"name":"A5","ticks":39480,"time":39.1666275,"velocity":0.6299212598425197},{"duration":0.11805543750000425,"durationTicks":119,"midi":72,"name":"C5","ticks":39840,"time":39.52377,"velocity":0.6299212598425197},{"duration":0.11805543750000425,"durationTicks":119,"midi":79,"name":"G5","ticks":39840,"time":39.52377,"velocity":0.6299212598425197},{"duration":0.11805543750000425,"durationTicks":119,"midi":81,"name":"A5","ticks":39960,"time":39.6428175,"velocity":0.6299212598425197},{"duration":0.47519793749999906,"durationTicks":479,"midi":72,"name":"C5","ticks":40320,"time":39.99996,"velocity":0.6299212598425197},{"duration":0.47519793749999906,"durationTicks":479,"midi":83,"name":"B5","ticks":40320,"time":39.99996,"velocity":0.6299212598425197},{"duration":0.45138843750000746,"durationTicks":455,"midi":81,"name":"A5","ticks":40800,"time":40.47615,"velocity":0.6299212598425197},{"duration":0.23710293749999778,"durationTicks":239,"midi":76,"name":"E5","ticks":41520,"time":41.190435,"velocity":0.6299212598425197},{"duration":0.23710293749999778,"durationTicks":239,"midi":84,"name":"C6","ticks":41520,"time":41.190435,"velocity":0.6299212598425197},{"duration":0.11805543749999714,"durationTicks":119,"midi":83,"name":"B5","ticks":41760,"time":41.42853,"velocity":0.6299212598425197},{"duration":0.23710293749999778,"durationTicks":239,"midi":84,"name":"C6","ticks":41880,"time":41.5475775,"velocity":0.6299212598425197},{"duration":0.3561504375000055,"durationTicks":359,"midi":86,"name":"D6","ticks":42120,"time":41.7856725,"velocity":0.6299212598425197},{"duration":0.23710293750000488,"durationTicks":239,"midi":76,"name":"E5","ticks":42240,"time":41.90472,"velocity":0.6299212598425197},{"duration":0.23710293750000488,"durationTicks":239,"midi":79,"name":"G5","ticks":42480,"time":42.142815,"velocity":0.6299212598425197},{"duration":0.23710293749999778,"durationTicks":239,"midi":79,"name":"G5","ticks":42720,"time":42.38091,"velocity":0.6299212598425197},{"duration":0.23710293749999778,"durationTicks":239,"midi":79,"name":"G5","ticks":42960,"time":42.619005,"velocity":0.6299212598425197},{"duration":0.23710293749999778,"durationTicks":239,"midi":79,"name":"G5","ticks":43200,"time":42.8571,"velocity":0.6299212598425197},{"duration":0.23710293750000488,"durationTicks":239,"midi":79,"name":"G5","ticks":43440,"time":43.095195,"velocity":0.6299212598425197},{"duration":0.47519793750000616,"durationTicks":479,"midi":76,"name":"E5","ticks":43680,"time":43.33329,"velocity":0.6299212598425197},{"duration":0.47519793750000616,"durationTicks":479,"midi":83,"name":"B5","ticks":43680,"time":43.33329,"velocity":0.6299212598425197},{"duration":0.45138843750000035,"durationTicks":455,"midi":74,"name":"D5","ticks":44160,"time":43.80948,"velocity":0.6299212598425197},{"duration":0.45138843750000035,"durationTicks":455,"midi":81,"name":"A5","ticks":44160,"time":43.80948,"velocity":0.6299212598425197},{"duration":0.23710293750000488,"durationTicks":239,"midi":79,"name":"G5","ticks":44880,"time":44.523765,"velocity":0.6299212598425197},{"duration":0.23710293750000488,"durationTicks":239,"midi":74,"name":"D5","ticks":45120,"time":44.76186,"velocity":0.6299212598425197},{"duration":0.23710293750000488,"durationTicks":239,"midi":83,"name":"B5","ticks":45120,"time":44.76186,"velocity":0.6299212598425197},{"duration":0.11805543750000425,"durationTicks":119,"midi":81,"name":"A5","ticks":45360,"time":44.999955,"velocity":0.6299212598425197},{"duration":0.23710293749999778,"durationTicks":239,"midi":79,"name":"G5","ticks":45480,"time":45.1190025,"velocity":0.6299212598425197},{"duration":0.11805543749999714,"durationTicks":119,"midi":74,"name":"D5","ticks":45720,"time":45.3570975,"velocity":0.6299212598425197},{"duration":0.23710293749999778,"durationTicks":239,"midi":81,"name":"A5","ticks":45840,"time":45.476145,"velocity":0.6299212598425197},{"duration":0.3561504374999984,"durationTicks":359,"midi":72,"name":"C5","ticks":46080,"time":45.714240000000004,"velocity":0.6299212598425197},{"duration":0.3561504374999984,"durationTicks":359,"midi":81,"name":"A5","ticks":46080,"time":45.714240000000004,"velocity":0.6299212598425197},{"duration":0.3561504375000055,"durationTicks":359,"midi":83,"name":"B5","ticks":46440,"time":46.0713825,"velocity":0.6299212598425197},{"duration":0.23710293749999778,"durationTicks":239,"midi":76,"name":"E5","ticks":46800,"time":46.428525,"velocity":0.6299212598425197},{"duration":0.23710293749999778,"durationTicks":239,"midi":72,"name":"C5","ticks":47040,"time":46.66662,"velocity":0.6299212598425197},{"duration":0.23710293749999778,"durationTicks":239,"midi":83,"name":"B5","ticks":47040,"time":46.66662,"velocity":0.6299212598425197},{"duration":0.11805543749999714,"durationTicks":119,"midi":81,"name":"A5","ticks":47280,"time":46.904715,"velocity":0.6299212598425197},{"duration":0.23710293749999778,"durationTicks":239,"midi":79,"name":"G5","ticks":47400,"time":47.023762500000004,"velocity":0.6299212598425197},{"duration":0.11805543750000425,"durationTicks":119,"midi":72,"name":"C5","ticks":47640,"time":47.2618575,"velocity":0.6299212598425197},{"duration":0.23710293750000488,"durationTicks":239,"midi":81,"name":"A5","ticks":47760,"time":47.380905,"velocity":0.6299212598425197},{"duration":0.45138843750000035,"durationTicks":455,"midi":76,"name":"E5","ticks":48000,"time":47.619,"velocity":0.6299212598425197},{"duration":0.11805543749999714,"durationTicks":119,"midi":79,"name":"G5","ticks":48720,"time":48.333285000000004,"velocity":0.6299212598425197},{"duration":0.11805543750000425,"durationTicks":119,"midi":81,"name":"A5","ticks":48840,"time":48.4523325,"velocity":0.6299212598425197},{"duration":0.23710293750000488,"durationTicks":239,"midi":76,"name":"E5","ticks":48960,"time":48.57138,"velocity":0.6299212598425197},{"duration":0.23710293750000488,"durationTicks":239,"midi":83,"name":"B5","ticks":48960,"time":48.57138,"velocity":0.6299212598425197},{"duration":0.11805543750000425,"durationTicks":119,"midi":81,"name":"A5","ticks":49200,"time":48.809475,"velocity":0.6299212598425197},{"duration":0.23710293750000488,"durationTicks":239,"midi":79,"name":"G5","ticks":49320,"time":48.9285225,"velocity":0.6299212598425197},{"duration":0.23710293749999778,"durationTicks":239,"midi":81,"name":"A5","ticks":49560,"time":49.1666175,"velocity":0.6299212598425197},{"duration":0.3561504374999984,"durationTicks":359,"midi":86,"name":"D6","ticks":49800,"time":49.4047125,"velocity":0.6299212598425197},{"duration":0.23710293749999778,"durationTicks":239,"midi":76,"name":"E5","ticks":49920,"time":49.52376,"velocity":0.6299212598425197},{"duration":0.23710293750000488,"durationTicks":239,"midi":84,"name":"C6","ticks":50160,"time":49.761855,"velocity":0.6299212598425197},{"duration":0.23710293750000488,"durationTicks":239,"midi":83,"name":"B5","ticks":50400,"time":49.99995,"velocity":0.6299212598425197},{"duration":0.23710293750000488,"durationTicks":239,"midi":84,"name":"C6","ticks":50640,"time":50.238045,"velocity":0.6299212598425197},{"duration":0.47519793749999906,"durationTicks":479,"midi":83,"name":"B5","ticks":50880,"time":50.47614,"velocity":0.6299212598425197},{"duration":0.3561504374999984,"durationTicks":359,"midi":76,"name":"E5","ticks":51360,"time":50.95233,"velocity":0.6299212598425197},{"duration":0.3561504374999984,"durationTicks":359,"midi":79,"name":"G5","ticks":51360,"time":50.95233,"velocity":0.6299212598425197},{"duration":0.3561504375000055,"durationTicks":359,"midi":74,"name":"D5","ticks":51720,"time":51.3094725,"velocity":0.6299212598425197},{"duration":0.23710293749999778,"durationTicks":239,"midi":81,"name":"A5","ticks":52080,"time":51.666615,"velocity":0.6299212598425197},{"duration":0.22519818749999843,"durationTicks":227,"midi":74,"name":"D5","ticks":52560,"time":52.142805,"velocity":0.6299212598425197},{"duration":0.22519818749999843,"durationTicks":227,"midi":83,"name":"B5","ticks":52560,"time":52.142805,"velocity":0.6299212598425197},{"duration":0.23710293750000488,"durationTicks":239,"midi":74,"name":"D5","ticks":53040,"time":52.618995,"velocity":0.6299212598425197},{"duration":0.23710293750000488,"durationTicks":239,"midi":83,"name":"B5","ticks":53040,"time":52.618995,"velocity":0.6299212598425197},{"duration":0.23710293750000488,"durationTicks":239,"midi":81,"name":"A5","ticks":53280,"time":52.85709,"velocity":0.6299212598425197},{"duration":0.23710293749999778,"durationTicks":239,"midi":74,"name":"D5","ticks":53520,"time":53.095185,"velocity":0.6299212598425197},{"duration":0.23710293749999778,"durationTicks":239,"midi":79,"name":"G5","ticks":53520,"time":53.095185,"velocity":0.6299212598425197},{"duration":0.23710293749999778,"durationTicks":239,"midi":74,"name":"D5","ticks":53760,"time":53.33328,"velocity":0.6299212598425197},{"duration":0.23710293749999778,"durationTicks":239,"midi":76,"name":"E5","ticks":54000,"time":53.571375,"velocity":0.6299212598425197},{"duration":0.11805543750000425,"durationTicks":119,"midi":79,"name":"G5","ticks":54240,"time":53.80947,"velocity":0.6299212598425197},{"duration":0.23710293750000488,"durationTicks":239,"midi":81,"name":"A5","ticks":54360,"time":53.9285175,"velocity":0.6299212598425197},{"duration":0.3561504374999984,"durationTicks":359,"midi":74,"name":"D5","ticks":54600,"time":54.1666125,"velocity":0.6299212598425197},{"duration":0.3561504374999984,"durationTicks":359,"midi":83,"name":"B5","ticks":54600,"time":54.1666125,"velocity":0.6299212598425197},{"duration":0.11805543749999714,"durationTicks":119,"midi":74,"name":"D5","ticks":54960,"time":54.523755,"velocity":0.6299212598425197},{"duration":0.11805543749999714,"durationTicks":119,"midi":74,"name":"D5","ticks":55080,"time":54.6428025,"velocity":0.6299212598425197},{"duration":0.23710293749999778,"durationTicks":239,"midi":74,"name":"D5","ticks":55200,"time":54.76185,"velocity":0.6299212598425197},{"duration":0.23710293750000488,"durationTicks":239,"midi":74,"name":"D5","ticks":55440,"time":54.999945,"velocity":0.6299212598425197},{"duration":0.23710293750000488,"durationTicks":239,"midi":74,"name":"D5","ticks":55680,"time":55.23804,"velocity":0.6299212598425197},{"duration":0.23710293750000488,"durationTicks":239,"midi":76,"name":"E5","ticks":55920,"time":55.476135,"velocity":0.6299212598425197},{"duration":0.11805543749999714,"durationTicks":119,"midi":79,"name":"G5","ticks":56160,"time":55.71423,"velocity":0.6299212598425197},{"duration":0.23710293749999778,"durationTicks":239,"midi":81,"name":"A5","ticks":56280,"time":55.8332775,"velocity":0.6299212598425197},{"duration":0.3561504374999984,"durationTicks":359,"midi":74,"name":"D5","ticks":56520,"time":56.0713725,"velocity":0.6299212598425197},{"duration":0.3561504374999984,"durationTicks":359,"midi":83,"name":"B5","ticks":56520,"time":56.0713725,"velocity":0.6299212598425197},{"duration":0.22519818749999843,"durationTicks":227,"midi":81,"name":"A5","ticks":56880,"time":56.428515,"velocity":0.6299212598425197},{"duration":0.23710293749999778,"durationTicks":239,"midi":76,"name":"E5","ticks":57600,"time":57.1428,"velocity":0.6299212598425197},{"duration":0.23710293749999778,"durationTicks":239,"midi":86,"name":"D6","ticks":57600,"time":57.1428,"velocity":0.6299212598425197},{"duration":0.23710293749999778,"durationTicks":239,"midi":86,"name":"D6","ticks":57840,"time":57.380895,"velocity":0.6299212598425197},{"duration":0.23710293749999778,"durationTicks":239,"midi":76,"name":"E5","ticks":58080,"time":57.618990000000004,"velocity":0.6299212598425197},{"duration":0.23710293749999778,"durationTicks":239,"midi":86,"name":"D6","ticks":58080,"time":57.618990000000004,"velocity":0.6299212598425197},{"duration":0.11805543750000425,"durationTicks":119,"midi":86,"name":"D6","ticks":58320,"time":57.857085,"velocity":0.6299212598425197},{"duration":0.3561504375000055,"durationTicks":359,"midi":76,"name":"E5","ticks":58440,"time":57.9761325,"velocity":0.6299212598425197},{"duration":0.3561504375000055,"durationTicks":359,"midi":86,"name":"D6","ticks":58440,"time":57.9761325,"velocity":0.6299212598425197},{"duration":0.23710293749999778,"durationTicks":239,"midi":84,"name":"C6","ticks":58800,"time":58.333275,"velocity":0.6299212598425197},{"duration":0.23710293749999778,"durationTicks":239,"midi":76,"name":"E5","ticks":59040,"time":58.57137,"velocity":0.6299212598425197},{"duration":0.23710293749999778,"durationTicks":239,"midi":83,"name":"B5","ticks":59040,"time":58.57137,"velocity":0.6299212598425197},{"duration":0.47519793749999906,"durationTicks":479,"midi":83,"name":"B5","ticks":59280,"time":58.809465,"velocity":0.6299212598425197},{"duration":0.23710293750000488,"durationTicks":239,"midi":74,"name":"D5","ticks":59520,"time":59.04756,"velocity":0.6299212598425197},{"duration":0.22519818749999843,"durationTicks":227,"midi":81,"name":"A5","ticks":59760,"time":59.285655,"velocity":0.6299212598425197},{"duration":0.23710293749999778,"durationTicks":239,"midi":95,"name":"B6","ticks":60720,"time":60.238035,"velocity":0.6299212598425197},{"duration":0.23710293750000488,"durationTicks":239,"midi":95,"name":"B6","ticks":60960,"time":60.47613,"velocity":0.6299212598425197},{"duration":0.23710293750000488,"durationTicks":239,"midi":95,"name":"B6","ticks":61200,"time":60.714225,"velocity":0.6299212598425197},{"duration":0.23710293749999778,"durationTicks":239,"midi":93,"name":"A6","ticks":61440,"time":60.95232,"velocity":0.6299212598425197},{"duration":0.47519793749999906,"durationTicks":479,"midi":84,"name":"C6","ticks":61440,"time":60.95232,"velocity":0.6299212598425197},{"duration":0.23710293749999778,"durationTicks":239,"midi":91,"name":"G6","ticks":61680,"time":61.190415,"velocity":0.6299212598425197},{"duration":0.45138843749999324,"durationTicks":455,"midi":88,"name":"E6","ticks":61920,"time":61.42851,"velocity":0.6299212598425197},{"duration":0.45138843749999324,"durationTicks":455,"midi":84,"name":"C6","ticks":61920,"time":61.42851,"velocity":0.6299212598425197},{"duration":0.45138843750000035,"durationTicks":455,"midi":84,"name":"C6","ticks":62400,"time":61.9047,"velocity":0.6299212598425197},{"duration":0.23710293750000488,"durationTicks":239,"midi":95,"name":"B6","ticks":62640,"time":62.142795,"velocity":0.6299212598425197},{"duration":0.23710293749999778,"durationTicks":239,"midi":95,"name":"B6","ticks":62880,"time":62.38089,"velocity":0.6299212598425197},{"duration":0.47519793749999906,"durationTicks":479,"midi":84,"name":"C6","ticks":62880,"time":62.38089,"velocity":0.6299212598425197},{"duration":0.23710293749999778,"durationTicks":239,"midi":95,"name":"B6","ticks":63120,"time":62.618985,"velocity":0.6299212598425197},{"duration":0.23710293749999778,"durationTicks":239,"midi":93,"name":"A6","ticks":63360,"time":62.85708,"velocity":0.6299212598425197},{"duration":0.47519793749999906,"durationTicks":479,"midi":81,"name":"A5","ticks":63360,"time":62.85708,"velocity":0.6299212598425197},{"duration":0.23710293750000488,"durationTicks":239,"midi":91,"name":"G6","ticks":63600,"time":63.095175,"velocity":0.6299212598425197},{"duration":0.45138843750000035,"durationTicks":455,"midi":88,"name":"E6","ticks":63840,"time":63.33327,"velocity":0.6299212598425197},{"duration":0.45138843750000035,"durationTicks":455,"midi":81,"name":"A5","ticks":63840,"time":63.33327,"velocity":0.6299212598425197},{"duration":0.45138843750000035,"durationTicks":455,"midi":81,"name":"A5","ticks":64320,"time":63.80946,"velocity":0.6299212598425197},{"duration":0.23710293749999778,"durationTicks":239,"midi":88,"name":"E6","ticks":64560,"time":64.047555,"velocity":0.6299212598425197},{"duration":0.23710293749999778,"durationTicks":239,"midi":88,"name":"E6","ticks":64800,"time":64.28565,"velocity":0.6299212598425197},{"duration":0.47519793749999906,"durationTicks":479,"midi":81,"name":"A5","ticks":64800,"time":64.28565,"velocity":0.6299212598425197},{"duration":0.23710293749999778,"durationTicks":239,"midi":88,"name":"E6","ticks":65040,"time":64.523745,"velocity":0.6299212598425197},{"duration":0.23710293749999778,"durationTicks":239,"midi":88,"name":"E6","ticks":65280,"time":64.76184,"velocity":0.6299212598425197},{"duration":0.47519793749999906,"durationTicks":479,"midi":83,"name":"B5","ticks":65280,"time":64.76184,"velocity":0.6299212598425197},{"duration":0.237102937500012,"durationTicks":239,"midi":88,"name":"E6","ticks":65520,"time":64.999935,"velocity":0.6299212598425197},{"duration":0.237102937500012,"durationTicks":239,"midi":90,"name":"F#6","ticks":65760,"time":65.23803,"velocity":0.6299212598425197},{"duration":0.47519793750001327,"durationTicks":479,"midi":83,"name":"B5","ticks":65760,"time":65.23803,"velocity":0.6299212598425197},{"duration":0.237102937500012,"durationTicks":239,"midi":90,"name":"F#6","ticks":66000,"time":65.476125,"velocity":0.6299212598425197},{"duration":0.47519793749999906,"durationTicks":479,"midi":91,"name":"G6","ticks":66240,"time":65.71422,"velocity":0.6299212598425197},{"duration":0.47519793749999906,"durationTicks":479,"midi":83,"name":"B5","ticks":66240,"time":65.71422,"velocity":0.6299212598425197},{"duration":0.23710293749999778,"durationTicks":239,"midi":95,"name":"B6","ticks":66720,"time":66.19041,"velocity":0.6299212598425197},{"duration":0.47519793749999906,"durationTicks":479,"midi":83,"name":"B5","ticks":66720,"time":66.19041,"velocity":0.6299212598425197},{"duration":0.22519818749999843,"durationTicks":227,"midi":93,"name":"A6","ticks":66960,"time":66.428505,"velocity":0.6299212598425197},{"duration":0.45138843750000035,"durationTicks":455,"midi":86,"name":"D6","ticks":67200,"time":66.6666,"velocity":0.6299212598425197},{"duration":0.22519818749999843,"durationTicks":227,"midi":83,"name":"B5","ticks":67680,"time":67.14279,"velocity":0.6299212598425197},{"duration":0.45138843749998614,"durationTicks":455,"midi":86,"name":"D6","ticks":67680,"time":67.14279,"velocity":0.6299212598425197},{"duration":0.22519818749999843,"durationTicks":227,"midi":81,"name":"A5","ticks":67920,"time":67.380885,"velocity":0.6299212598425197},{"duration":0.45138843750000035,"durationTicks":455,"midi":86,"name":"D6","ticks":68160,"time":67.61898,"velocity":0.6299212598425197},{"duration":0.11805543750000425,"durationTicks":119,"midi":83,"name":"B5","ticks":68400,"time":67.857075,"velocity":0.6299212598425197},{"duration":0.11805543750000425,"durationTicks":119,"midi":83,"name":"B5","ticks":68520,"time":67.9761225,"velocity":0.6299212598425197},{"duration":0.237102937500012,"durationTicks":239,"midi":83,"name":"B5","ticks":68640,"time":68.09517,"velocity":0.6299212598425197},{"duration":0.47519793749999906,"durationTicks":479,"midi":86,"name":"D6","ticks":68640,"time":68.09517,"velocity":0.6299212598425197},{"duration":0.23710293749999778,"durationTicks":239,"midi":83,"name":"B5","ticks":68880,"time":68.333265,"velocity":0.6299212598425197},{"duration":0.23710293749999778,"durationTicks":239,"midi":81,"name":"A5","ticks":69120,"time":68.57136,"velocity":0.6299212598425197},{"duration":0.47519793749999906,"durationTicks":479,"midi":67,"name":"G4","ticks":69120,"time":68.57136,"velocity":0.6299212598425197},{"duration":0.23710293749999778,"durationTicks":239,"midi":79,"name":"G5","ticks":69360,"time":68.809455,"velocity":0.6299212598425197},{"duration":0.45138843750000035,"durationTicks":455,"midi":76,"name":"E5","ticks":69600,"time":69.04755,"velocity":0.6299212598425197},{"duration":0.3382933124999994,"durationTicks":341,"midi":67,"name":"G4","ticks":69600,"time":69.04755,"velocity":0.6299212598425197},{"duration":0.3382933125000136,"durationTicks":341,"midi":67,"name":"G4","ticks":69960,"time":69.4046925,"velocity":0.6299212598425197},{"duration":0.11805543749999003,"durationTicks":119,"midi":83,"name":"B5","ticks":70320,"time":69.761835,"velocity":0.6299212598425197},{"duration":0.11805543750000425,"durationTicks":119,"midi":83,"name":"B5","ticks":70440,"time":69.8808825,"velocity":0.6299212598425197},{"duration":0.23710293749999778,"durationTicks":239,"midi":83,"name":"B5","ticks":70560,"time":69.99993,"velocity":0.6299212598425197},{"duration":0.23710293749999778,"durationTicks":239,"midi":67,"name":"G4","ticks":70560,"time":69.99993,"velocity":0.6299212598425197},{"duration":0.237102937500012,"durationTicks":239,"midi":83,"name":"B5","ticks":70800,"time":70.238025,"velocity":0.6299212598425197},{"duration":0.237102937500012,"durationTicks":239,"midi":69,"name":"A4","ticks":70800,"time":70.238025,"velocity":0.6299212598425197},{"duration":0.237102937500012,"durationTicks":239,"midi":81,"name":"A5","ticks":71040,"time":70.47612,"velocity":0.6299212598425197},{"duration":0.47519793750001327,"durationTicks":479,"midi":71,"name":"B4","ticks":71040,"time":70.47612,"velocity":0.6299212598425197},{"duration":0.237102937500012,"durationTicks":239,"midi":79,"name":"G5","ticks":71280,"time":70.714215,"velocity":0.6299212598425197},{"duration":0.45138843750000035,"durationTicks":455,"midi":76,"name":"E5","ticks":71520,"time":70.95231,"velocity":0.6299212598425197},{"duration":0.3382933125000136,"durationTicks":341,"midi":71,"name":"B4","ticks":71520,"time":70.95231,"velocity":0.6299212598425197},{"duration":0.3382933124999994,"durationTicks":341,"midi":71,"name":"B4","ticks":71880,"time":71.3094525,"velocity":0.6299212598425197},{"duration":0.23710293749999778,"durationTicks":239,"midi":76,"name":"E5","ticks":72240,"time":71.666595,"velocity":0.6299212598425197},{"duration":0.23710293749999778,"durationTicks":239,"midi":69,"name":"A4","ticks":72240,"time":71.666595,"velocity":0.6299212598425197},{"duration":0.23710293749999778,"durationTicks":239,"midi":76,"name":"E5","ticks":72480,"time":71.90469,"velocity":0.6299212598425197},{"duration":0.23710293749999778,"durationTicks":239,"midi":71,"name":"B4","ticks":72480,"time":71.90469,"velocity":0.6299212598425197},{"duration":0.23710293749999778,"durationTicks":239,"midi":76,"name":"E5","ticks":72720,"time":72.142785,"velocity":0.6299212598425197},{"duration":0.23710293749999778,"durationTicks":239,"midi":74,"name":"D5","ticks":72960,"time":72.38088,"velocity":0.6299212598425197},{"duration":0.23710293749999778,"durationTicks":239,"midi":86,"name":"D6","ticks":72960,"time":72.38088,"velocity":0.6299212598425197},{"duration":0.23710293749999778,"durationTicks":239,"midi":67,"name":"G4","ticks":73200,"time":72.618975,"velocity":0.6299212598425197},{"duration":0.23710293749999778,"durationTicks":239,"midi":79,"name":"G5","ticks":73200,"time":72.618975,"velocity":0.6299212598425197},{"duration":0.23710293749999778,"durationTicks":239,"midi":67,"name":"G4","ticks":73440,"time":72.85707000000001,"velocity":0.6299212598425197},{"duration":0.23710293749999778,"durationTicks":239,"midi":79,"name":"G5","ticks":73440,"time":72.85707000000001,"velocity":0.6299212598425197},{"duration":0.237102937500012,"durationTicks":239,"midi":67,"name":"G4","ticks":73680,"time":73.095165,"velocity":0.6299212598425197},{"duration":0.237102937500012,"durationTicks":239,"midi":79,"name":"G5","ticks":73680,"time":73.095165,"velocity":0.6299212598425197},{"duration":0.47519793749999906,"durationTicks":479,"midi":67,"name":"G4","ticks":73920,"time":73.33326,"velocity":0.6299212598425197},{"duration":0.47519793749999906,"durationTicks":479,"midi":79,"name":"G5","ticks":73920,"time":73.33326,"velocity":0.6299212598425197},{"duration":0.23710293749999778,"durationTicks":239,"midi":69,"name":"A4","ticks":74400,"time":73.80945,"velocity":0.6299212598425197},{"duration":0.23710293749999778,"durationTicks":239,"midi":81,"name":"A5","ticks":74400,"time":73.80945,"velocity":0.6299212598425197},{"duration":0.22519818749999843,"durationTicks":227,"midi":69,"name":"A4","ticks":74640,"time":74.047545,"velocity":0.6299212598425197},{"duration":0.22519818749999843,"durationTicks":227,"midi":81,"name":"A5","ticks":74640,"time":74.047545,"velocity":0.6299212598425197},{"duration":0.05555549999999698,"durationTicks":56,"midi":74,"name":"D5","ticks":75120,"time":74.523735,"velocity":0.6299212598425197},{"duration":0.05555550000001119,"durationTicks":56,"midi":71,"name":"B4","ticks":75180,"time":74.58325875,"velocity":0.6299212598425197},{"duration":0.05555550000001119,"durationTicks":56,"midi":76,"name":"E5","ticks":75240,"time":74.6427825,"velocity":0.6299212598425197},{"duration":0.05555549999999698,"durationTicks":56,"midi":73,"name":"C#5","ticks":75300,"time":74.70230625,"velocity":0.6299212598425197},{"duration":0.05555549999999698,"durationTicks":56,"midi":78,"name":"F#5","ticks":75360,"time":74.76183,"velocity":0.6299212598425197},{"duration":0.05555549999999698,"durationTicks":56,"midi":75,"name":"D#5","ticks":75420,"time":74.82135375,"velocity":0.6299212598425197},{"duration":0.05555550000001119,"durationTicks":56,"midi":80,"name":"G#5","ticks":75480,"time":74.8808775,"velocity":0.6299212598425197},{"duration":0.05555550000001119,"durationTicks":56,"midi":77,"name":"F5","ticks":75540,"time":74.94040125,"velocity":0.6299212598425197},{"duration":0.05555549999999698,"durationTicks":56,"midi":82,"name":"A#5","ticks":75600,"time":74.999925,"velocity":0.6299212598425197},{"duration":0.05555549999999698,"durationTicks":56,"midi":79,"name":"G5","ticks":75660,"time":75.05944875,"velocity":0.6299212598425197},{"duration":0.05555550000001119,"durationTicks":56,"midi":84,"name":"C6","ticks":75720,"time":75.1189725,"velocity":0.6299212598425197},{"duration":0.05555550000001119,"durationTicks":56,"midi":81,"name":"A5","ticks":75780,"time":75.17849625,"velocity":0.6299212598425197},{"duration":0.05555549999999698,"durationTicks":56,"midi":86,"name":"D6","ticks":75840,"time":75.23802,"velocity":0.6299212598425197},{"duration":0.05555549999999698,"durationTicks":56,"midi":83,"name":"B5","ticks":75900,"time":75.29754375,"velocity":0.6299212598425197},{"duration":0.05555550000001119,"durationTicks":56,"midi":88,"name":"E6","ticks":75960,"time":75.3570675,"velocity":0.6299212598425197},{"duration":0.05555550000001119,"durationTicks":56,"midi":85,"name":"C#6","ticks":76020,"time":75.41659125,"velocity":0.6299212598425197},{"duration":0.05555549999999698,"durationTicks":56,"midi":90,"name":"F#6","ticks":76080,"time":75.47611500000001,"velocity":0.6299212598425197},{"duration":0.05555549999999698,"durationTicks":56,"midi":87,"name":"D#6","ticks":76140,"time":75.53563875,"velocity":0.6299212598425197},{"duration":0.05555549999999698,"durationTicks":56,"midi":92,"name":"G#6","ticks":76200,"time":75.5951625,"velocity":0.6299212598425197},{"duration":0.05555550000001119,"durationTicks":56,"midi":89,"name":"F6","ticks":76260,"time":75.65468625,"velocity":0.6299212598425197},{"duration":0.237102937500012,"durationTicks":239,"midi":69,"name":"A4","ticks":76320,"time":75.71421,"velocity":0.6299212598425197},{"duration":0.237102937500012,"durationTicks":239,"midi":81,"name":"A5","ticks":76320,"time":75.71421,"velocity":0.6299212598425197},{"duration":0.237102937500012,"durationTicks":239,"midi":71,"name":"B4","ticks":76560,"time":75.952305,"velocity":0.6299212598425197},{"duration":0.237102937500012,"durationTicks":239,"midi":83,"name":"B5","ticks":76560,"time":75.952305,"velocity":0.6299212598425197},{"duration":0.47519793749999906,"durationTicks":479,"midi":72,"name":"C5","ticks":76800,"time":76.1904,"velocity":0.6299212598425197},{"duration":0.47519793749999906,"durationTicks":479,"midi":76,"name":"E5","ticks":76800,"time":76.1904,"velocity":0.6299212598425197},{"duration":0.47519793749999906,"durationTicks":479,"midi":79,"name":"G5","ticks":76800,"time":76.1904,"velocity":0.6299212598425197},{"duration":0.47519793749999906,"durationTicks":479,"midi":84,"name":"C6","ticks":76800,"time":76.1904,"velocity":0.6299212598425197},{"duration":0.47519793749999906,"durationTicks":479,"midi":72,"name":"C5","ticks":77280,"time":76.66659,"velocity":0.6299212598425197},{"duration":0.47519793749999906,"durationTicks":479,"midi":84,"name":"C6","ticks":77280,"time":76.66659,"velocity":0.6299212598425197},{"duration":0.23710293749999778,"durationTicks":239,"midi":72,"name":"C5","ticks":77760,"time":77.14278,"velocity":0.6299212598425197},{"duration":0.23710293749999778,"durationTicks":239,"midi":84,"name":"C6","ticks":77760,"time":77.14278,"velocity":0.6299212598425197},{"duration":0.23710293749999778,"durationTicks":239,"midi":71,"name":"B4","ticks":78000,"time":77.380875,"velocity":0.6299212598425197},{"duration":0.23710293749999778,"durationTicks":239,"midi":83,"name":"B5","ticks":78000,"time":77.380875,"velocity":0.6299212598425197},{"duration":0.23710293749999778,"durationTicks":239,"midi":69,"name":"A4","ticks":78240,"time":77.61897,"velocity":0.6299212598425197},{"duration":0.23710293749999778,"durationTicks":239,"midi":81,"name":"A5","ticks":78240,"time":77.61897,"velocity":0.6299212598425197},{"duration":0.11805543749999003,"durationTicks":119,"midi":79,"name":"G5","ticks":78480,"time":77.857065,"velocity":0.6299212598425197},{"duration":0.3561504375000055,"durationTicks":359,"midi":69,"name":"A4","ticks":78600,"time":77.9761125,"velocity":0.6299212598425197},{"duration":0.3561504375000055,"durationTicks":359,"midi":81,"name":"A5","ticks":78600,"time":77.9761125,"velocity":0.6299212598425197},{"duration":0.7132929375000003,"durationTicks":719,"midi":69,"name":"A4","ticks":78960,"time":78.333255,"velocity":0.6299212598425197},{"duration":0.7132929375000003,"durationTicks":719,"midi":81,"name":"A5","ticks":78960,"time":78.333255,"velocity":0.6299212598425197},{"duration":0.23710293749999778,"durationTicks":239,"midi":71,"name":"B4","ticks":79680,"time":79.04754,"velocity":0.6299212598425197},{"duration":0.23710293749999778,"durationTicks":239,"midi":83,"name":"B5","ticks":79680,"time":79.04754,"velocity":0.6299212598425197},{"duration":0.23710293749999778,"durationTicks":239,"midi":69,"name":"A4","ticks":79920,"time":79.285635,"velocity":0.6299212598425197},{"duration":0.23710293749999778,"durationTicks":239,"midi":81,"name":"A5","ticks":79920,"time":79.285635,"velocity":0.6299212598425197},{"duration":0.23710293749999778,"durationTicks":239,"midi":67,"name":"G4","ticks":80160,"time":79.52373,"velocity":0.6299212598425197},{"duration":0.23710293749999778,"durationTicks":239,"midi":79,"name":"G5","ticks":80160,"time":79.52373,"velocity":0.6299212598425197},{"duration":0.23710293749999778,"durationTicks":239,"midi":66,"name":"F#4","ticks":80400,"time":79.761825,"velocity":0.6299212598425197},{"duration":0.23710293749999778,"durationTicks":239,"midi":78,"name":"F#5","ticks":80400,"time":79.761825,"velocity":0.6299212598425197},{"duration":0.47519793749999906,"durationTicks":479,"midi":67,"name":"G4","ticks":80640,"time":79.99992,"velocity":0.6299212598425197},{"duration":0.47519793749999906,"durationTicks":479,"midi":71,"name":"B4","ticks":80640,"time":79.99992,"velocity":0.6299212598425197},{"duration":0.47519793749999906,"durationTicks":479,"midi":79,"name":"G5","ticks":80640,"time":79.99992,"velocity":0.6299212598425197},{"duration":0.47519793749999906,"durationTicks":479,"midi":69,"name":"A4","ticks":81120,"time":80.47611,"velocity":0.6299212598425197},{"duration":0.47519793749999906,"durationTicks":479,"midi":81,"name":"A5","ticks":81120,"time":80.47611,"velocity":0.6299212598425197},{"duration":0.47519793750001327,"durationTicks":479,"midi":71,"name":"B4","ticks":81600,"time":80.9523,"velocity":0.6299212598425197},{"duration":0.47519793750001327,"durationTicks":479,"midi":83,"name":"B5","ticks":81600,"time":80.9523,"velocity":0.6299212598425197},{"duration":0.23710293749999778,"durationTicks":239,"midi":74,"name":"D5","ticks":82080,"time":81.42849,"velocity":0.6299212598425197},{"duration":0.23710293749999778,"durationTicks":239,"midi":86,"name":"D6","ticks":82080,"time":81.42849,"velocity":0.6299212598425197},{"duration":0.47519793749999906,"durationTicks":479,"midi":74,"name":"D5","ticks":82320,"time":81.666585,"velocity":0.6299212598425197},{"duration":0.47519793749999906,"durationTicks":479,"midi":78,"name":"F#5","ticks":82320,"time":81.666585,"velocity":0.6299212598425197},{"duration":0.47519793749999906,"durationTicks":479,"midi":81,"name":"A5","ticks":82320,"time":81.666585,"velocity":0.6299212598425197},{"duration":0.47519793749999906,"durationTicks":479,"midi":86,"name":"D6","ticks":82320,"time":81.666585,"velocity":0.6299212598425197},{"duration":0.23710293749999778,"durationTicks":239,"midi":71,"name":"B4","ticks":82800,"time":82.142775,"velocity":0.6299212598425197},{"duration":0.23710293749999778,"durationTicks":239,"midi":83,"name":"B5","ticks":82800,"time":82.142775,"velocity":0.6299212598425197},{"duration":0.45138843750000035,"durationTicks":455,"midi":69,"name":"A4","ticks":83040,"time":82.38087,"velocity":0.6299212598425197},{"duration":0.45138843750000035,"durationTicks":455,"midi":74,"name":"D5","ticks":83040,"time":82.38087,"velocity":0.6299212598425197},{"duration":0.45138843750000035,"durationTicks":455,"midi":78,"name":"F#5","ticks":83040,"time":82.38087,"velocity":0.6299212598425197},{"duration":0.45138843750000035,"durationTicks":455,"midi":81,"name":"A5","ticks":83040,"time":82.38087,"velocity":0.6299212598425197},{"duration":0.23710293749999778,"durationTicks":239,"midi":81,"name":"A5","ticks":84000,"time":83.33325,"velocity":0.6299212598425197},{"duration":0.23710293749999778,"durationTicks":239,"midi":93,"name":"A6","ticks":84000,"time":83.33325,"velocity":0.6299212598425197},{"duration":0.237102937500012,"durationTicks":239,"midi":83,"name":"B5","ticks":84240,"time":83.571345,"velocity":0.6299212598425197},{"duration":0.237102937500012,"durationTicks":239,"midi":95,"name":"B6","ticks":84240,"time":83.571345,"velocity":0.6299212598425197},{"duration":0.47519793750001327,"durationTicks":479,"midi":84,"name":"C6","ticks":84480,"time":83.80944,"velocity":0.6299212598425197},{"duration":0.47519793750001327,"durationTicks":479,"midi":88,"name":"E6","ticks":84480,"time":83.80944,"velocity":0.6299212598425197},{"duration":0.47519793750001327,"durationTicks":479,"midi":96,"name":"C7","ticks":84480,"time":83.80944,"velocity":0.6299212598425197},{"duration":0.47519793749999906,"durationTicks":479,"midi":84,"name":"C6","ticks":84960,"time":84.28563,"velocity":0.6299212598425197},{"duration":0.47519793749999906,"durationTicks":479,"midi":96,"name":"C7","ticks":84960,"time":84.28563,"velocity":0.6299212598425197},{"duration":0.23710293749999778,"durationTicks":239,"midi":84,"name":"C6","ticks":85440,"time":84.76182,"velocity":0.6299212598425197},{"duration":0.23710293749999778,"durationTicks":239,"midi":96,"name":"C7","ticks":85440,"time":84.76182,"velocity":0.6299212598425197},{"duration":0.23710293749999778,"durationTicks":239,"midi":83,"name":"B5","ticks":85680,"time":84.999915,"velocity":0.6299212598425197},{"duration":0.23710293749999778,"durationTicks":239,"midi":95,"name":"B6","ticks":85680,"time":84.999915,"velocity":0.6299212598425197},{"duration":0.23710293749999778,"durationTicks":239,"midi":81,"name":"A5","ticks":85920,"time":85.23801,"velocity":0.6299212598425197},{"duration":0.23710293749999778,"durationTicks":239,"midi":93,"name":"A6","ticks":85920,"time":85.23801,"velocity":0.6299212598425197},{"duration":0.11805543750000425,"durationTicks":119,"midi":91,"name":"G6","ticks":86160,"time":85.476105,"velocity":0.6299212598425197},{"duration":0.3561504375000055,"durationTicks":359,"midi":81,"name":"A5","ticks":86280,"time":85.5951525,"velocity":0.6299212598425197},{"duration":0.3561504375000055,"durationTicks":359,"midi":93,"name":"A6","ticks":86280,"time":85.5951525,"velocity":0.6299212598425197},{"duration":0.7132929375000003,"durationTicks":719,"midi":81,"name":"A5","ticks":86640,"time":85.952295,"velocity":0.6299212598425197},{"duration":0.7132929375000003,"durationTicks":719,"midi":93,"name":"A6","ticks":86640,"time":85.952295,"velocity":0.6299212598425197},{"duration":0.237102937500012,"durationTicks":239,"midi":83,"name":"B5","ticks":87360,"time":86.66658,"velocity":0.6299212598425197},{"duration":0.237102937500012,"durationTicks":239,"midi":95,"name":"B6","ticks":87360,"time":86.66658,"velocity":0.6299212598425197},{"duration":0.23710293749999778,"durationTicks":239,"midi":81,"name":"A5","ticks":87600,"time":86.904675,"velocity":0.6299212598425197},{"duration":0.23710293749999778,"durationTicks":239,"midi":93,"name":"A6","ticks":87600,"time":86.904675,"velocity":0.6299212598425197},{"duration":0.23710293749999778,"durationTicks":239,"midi":79,"name":"G5","ticks":87840,"time":87.14277,"velocity":0.6299212598425197},{"duration":0.23710293749999778,"durationTicks":239,"midi":91,"name":"G6","ticks":87840,"time":87.14277,"velocity":0.6299212598425197},{"duration":0.23710293749999778,"durationTicks":239,"midi":81,"name":"A5","ticks":88080,"time":87.380865,"velocity":0.6299212598425197},{"duration":0.23710293749999778,"durationTicks":239,"midi":93,"name":"A6","ticks":88080,"time":87.380865,"velocity":0.6299212598425197},{"duration":0.47519793749999906,"durationTicks":479,"midi":83,"name":"B5","ticks":88320,"time":87.61896,"velocity":0.6299212598425197},{"duration":0.47519793749999906,"durationTicks":479,"midi":88,"name":"E6","ticks":88320,"time":87.61896,"velocity":0.6299212598425197},{"duration":0.47519793749999906,"durationTicks":479,"midi":91,"name":"G6","ticks":88320,"time":87.61896,"velocity":0.6299212598425197},{"duration":0.47519793749999906,"durationTicks":479,"midi":95,"name":"B6","ticks":88320,"time":87.61896,"velocity":0.6299212598425197},{"duration":0.3561504374999913,"durationTicks":359,"midi":88,"name":"E6","ticks":88800,"time":88.09515,"velocity":0.6299212598425197},{"duration":0.3561504374999913,"durationTicks":359,"midi":91,"name":"G6","ticks":88800,"time":88.09515,"velocity":0.6299212598425197},{"duration":0.3561504374999913,"durationTicks":359,"midi":95,"name":"B6","ticks":88800,"time":88.09515,"velocity":0.6299212598425197},{"duration":0.3561504374999913,"durationTicks":359,"midi":100,"name":"E7","ticks":88800,"time":88.09515,"velocity":0.6299212598425197},{"duration":0.5942454375000068,"durationTicks":599,"midi":86,"name":"D6","ticks":89160,"time":88.4522925,"velocity":0.6299212598425197},{"duration":0.5942454375000068,"durationTicks":599,"midi":91,"name":"G6","ticks":89160,"time":88.4522925,"velocity":0.6299212598425197},{"duration":0.5942454375000068,"durationTicks":599,"midi":95,"name":"B6","ticks":89160,"time":88.4522925,"velocity":0.6299212598425197},{"duration":0.5942454375000068,"durationTicks":599,"midi":98,"name":"D7","ticks":89160,"time":88.4522925,"velocity":0.6299212598425197},{"duration":0.237102937500012,"durationTicks":239,"midi":83,"name":"B5","ticks":89760,"time":89.04753,"velocity":0.6299212598425197},{"duration":0.237102937500012,"durationTicks":239,"midi":95,"name":"B6","ticks":89760,"time":89.04753,"velocity":0.6299212598425197},{"duration":0.47519793749999906,"durationTicks":479,"midi":81,"name":"A5","ticks":90000,"time":89.285625,"velocity":0.6299212598425197},{"duration":0.47519793749999906,"durationTicks":479,"midi":86,"name":"D6","ticks":90000,"time":89.285625,"velocity":0.6299212598425197},{"duration":0.47519793749999906,"durationTicks":479,"midi":90,"name":"F#6","ticks":90000,"time":89.285625,"velocity":0.6299212598425197},{"duration":0.47519793749999906,"durationTicks":479,"midi":93,"name":"A6","ticks":90000,"time":89.285625,"velocity":0.6299212598425197},{"duration":0.6894834375000016,"durationTicks":695,"midi":83,"name":"B5","ticks":90480,"time":89.761815,"velocity":0.6299212598425197},{"duration":0.6894834375000016,"durationTicks":695,"midi":86,"name":"D6","ticks":90480,"time":89.761815,"velocity":0.6299212598425197},{"duration":0.6894834375000016,"durationTicks":695,"midi":90,"name":"F#6","ticks":90480,"time":89.761815,"velocity":0.6299212598425197},{"duration":0.6894834375000016,"durationTicks":695,"midi":95,"name":"B6","ticks":90480,"time":89.761815,"velocity":0.6299212598425197},{"duration":0.23710293749999778,"durationTicks":239,"midi":84,"name":"C6","ticks":91200,"time":90.4761,"velocity":0.6299212598425197},{"duration":0.23710293749999778,"durationTicks":239,"midi":96,"name":"C7","ticks":91200,"time":90.4761,"velocity":0.6299212598425197},{"duration":0.23710293749999778,"durationTicks":239,"midi":83,"name":"B5","ticks":91440,"time":90.714195,"velocity":0.6299212598425197},{"duration":0.23710293749999778,"durationTicks":239,"midi":95,"name":"B6","ticks":91440,"time":90.714195,"velocity":0.6299212598425197},{"duration":0.23710293749999778,"durationTicks":239,"midi":81,"name":"A5","ticks":91680,"time":90.95229,"velocity":0.6299212598425197},{"duration":0.23710293749999778,"durationTicks":239,"midi":93,"name":"A6","ticks":91680,"time":90.95229,"velocity":0.6299212598425197},{"duration":0.22519818749999843,"durationTicks":227,"midi":79,"name":"G5","ticks":91920,"time":91.190385,"velocity":0.6299212598425197},{"duration":0.22519818749999843,"durationTicks":227,"midi":91,"name":"G6","ticks":91920,"time":91.190385,"velocity":0.6299212598425197},{"duration":0.11210306249999746,"durationTicks":113,"midi":88,"name":"E6","ticks":92160,"time":91.42848000000001,"velocity":0.6299212598425197},{"duration":0.11210306250001167,"durationTicks":113,"midi":91,"name":"G6","ticks":92280,"time":91.5475275,"velocity":0.6299212598425197},{"duration":0.11210306250001167,"durationTicks":113,"midi":95,"name":"B6","ticks":92400,"time":91.666575,"velocity":0.6299212598425197},{"duration":0.11210306249999746,"durationTicks":113,"midi":98,"name":"D7","ticks":92520,"time":91.7856225,"velocity":0.6299212598425197},{"duration":0.3382933125000136,"durationTicks":341,"midi":67,"name":"G4","ticks":92640,"time":91.90467,"velocity":0.6299212598425197},{"duration":0.23710293749999778,"durationTicks":239,"midi":81,"name":"A5","ticks":92880,"time":92.142765,"velocity":0.6299212598425197},{"duration":0.3561504374999913,"durationTicks":359,"midi":67,"name":"G4","ticks":93000,"time":92.2618125,"velocity":0.6299212598425197},{"duration":0.23710293749999778,"durationTicks":239,"midi":81,"name":"A5","ticks":93120,"time":92.38086,"velocity":0.6299212598425197},{"duration":0.23710293749999778,"durationTicks":239,"midi":81,"name":"A5","ticks":93360,"time":92.618955,"velocity":0.6299212598425197},{"duration":0.23710293749999778,"durationTicks":239,"midi":67,"name":"G4","ticks":93600,"time":92.85705,"velocity":0.6299212598425197},{"duration":0.23710293749999778,"durationTicks":239,"midi":81,"name":"A5","ticks":93600,"time":92.85705,"velocity":0.6299212598425197},{"duration":0.23710293749999778,"durationTicks":239,"midi":69,"name":"A4","ticks":93840,"time":93.095145,"velocity":0.6299212598425197},{"duration":0.23710293749999778,"durationTicks":239,"midi":81,"name":"A5","ticks":93840,"time":93.095145,"velocity":0.6299212598425197},{"duration":0.47519793749999906,"durationTicks":479,"midi":71,"name":"B4","ticks":94080,"time":93.33324,"velocity":0.6299212598425197},{"duration":0.23710293749999778,"durationTicks":239,"midi":81,"name":"A5","ticks":94080,"time":93.33324,"velocity":0.6299212598425197},{"duration":0.22519818749999843,"durationTicks":227,"midi":83,"name":"B5","ticks":94320,"time":93.571335,"velocity":0.6299212598425197},{"duration":0.3382933124999994,"durationTicks":341,"midi":71,"name":"B4","ticks":94560,"time":93.80943,"velocity":0.6299212598425197},{"duration":0.23710293749999778,"durationTicks":239,"midi":74,"name":"D5","ticks":94800,"time":94.04752500000001,"velocity":0.6299212598425197},{"duration":0.3561504375000055,"durationTicks":359,"midi":71,"name":"B4","ticks":94920,"time":94.1665725,"velocity":0.6299212598425197},{"duration":0.237102937500012,"durationTicks":239,"midi":83,"name":"B5","ticks":95040,"time":94.28562,"velocity":0.6299212598425197},{"duration":0.237102937500012,"durationTicks":239,"midi":69,"name":"A4","ticks":95280,"time":94.523715,"velocity":0.6299212598425197},{"duration":0.237102937500012,"durationTicks":239,"midi":81,"name":"A5","ticks":95280,"time":94.523715,"velocity":0.6299212598425197},{"duration":0.23710293749999778,"durationTicks":239,"midi":71,"name":"B4","ticks":95520,"time":94.76181,"velocity":0.6299212598425197},{"duration":0.23710293749999778,"durationTicks":239,"midi":83,"name":"B5","ticks":95520,"time":94.76181,"velocity":0.6299212598425197},{"duration":0.23710293749999778,"durationTicks":239,"midi":69,"name":"A4","ticks":95760,"time":94.999905,"velocity":0.6299212598425197},{"duration":0.23710293749999778,"durationTicks":239,"midi":81,"name":"A5","ticks":95760,"time":94.999905,"velocity":0.6299212598425197},{"duration":0.47519793749999906,"durationTicks":479,"midi":71,"name":"B4","ticks":96000,"time":95.238,"velocity":0.6299212598425197},{"duration":0.23710293749999778,"durationTicks":239,"midi":83,"name":"B5","ticks":96000,"time":95.238,"velocity":0.6299212598425197},{"duration":0.22519818749999843,"durationTicks":227,"midi":81,"name":"A5","ticks":96240,"time":95.476095,"velocity":0.6299212598425197},{"duration":0.3382933124999994,"durationTicks":341,"midi":67,"name":"G4","ticks":96480,"time":95.71419,"velocity":0.6299212598425197},{"duration":0,"durationTicks":0,"midi":67,"name":"G4","ticks":96840,"time":96.0713325,"velocity":0.6299212598425197},{"duration":0.11805543749999003,"durationTicks":119,"midi":81,"name":"A5","ticks":96960,"time":96.19038,"velocity":0.6299212598425197},{"duration":0.11805543750000425,"durationTicks":119,"midi":79,"name":"G5","ticks":97080,"time":96.3094275,"velocity":0.6299212598425197},{"duration":0.23710293749999778,"durationTicks":239,"midi":76,"name":"E5","ticks":97200,"time":96.428475,"velocity":0.6299212598425197},{"duration":0.11805543749999003,"durationTicks":119,"midi":81,"name":"A5","ticks":97200,"time":96.428475,"velocity":0.6299212598425197},{"duration":0.11805543750000425,"durationTicks":119,"midi":79,"name":"G5","ticks":97320,"time":96.5475225,"velocity":0.6299212598425197},{"duration":0.23710293749999778,"durationTicks":239,"midi":74,"name":"D5","ticks":97440,"time":96.66657000000001,"velocity":0.6299212598425197},{"duration":0.11805543749999003,"durationTicks":119,"midi":81,"name":"A5","ticks":97440,"time":96.66657000000001,"velocity":0.6299212598425197},{"duration":0.11805543750000425,"durationTicks":119,"midi":79,"name":"G5","ticks":97560,"time":96.7856175,"velocity":0.6299212598425197},{"duration":0.237102937500012,"durationTicks":239,"midi":71,"name":"B4","ticks":97680,"time":96.904665,"velocity":0.6299212598425197},{"duration":0.11805543750000425,"durationTicks":119,"midi":81,"name":"A5","ticks":97680,"time":96.904665,"velocity":0.6299212598425197},{"duration":0.11805543750000425,"durationTicks":119,"midi":79,"name":"G5","ticks":97800,"time":97.0237125,"velocity":0.6299212598425197},{"duration":0.47519793749999906,"durationTicks":479,"midi":69,"name":"A4","ticks":97920,"time":97.14276,"velocity":0.6299212598425197},{"duration":0.11805543750000425,"durationTicks":119,"midi":81,"name":"A5","ticks":97920,"time":97.14276,"velocity":0.6299212598425197},{"duration":0.11210306249999746,"durationTicks":113,"midi":78,"name":"F#5","ticks":98040,"time":97.2618075,"velocity":0.6299212598425197},{"duration":0.3382933124999994,"durationTicks":341,"midi":69,"name":"A4","ticks":98400,"time":97.61895,"velocity":0.6299212598425197},{"duration":0.3382933124999994,"durationTicks":341,"midi":69,"name":"A4","ticks":98760,"time":97.97609250000001,"velocity":0.6299212598425197},{"duration":0.11805543750000425,"durationTicks":119,"midi":78,"name":"F#5","ticks":98880,"time":98.09514,"velocity":0.6299212598425197},{"duration":0.11805543750000425,"durationTicks":119,"midi":81,"name":"A5","ticks":98880,"time":98.09514,"velocity":0.6299212598425197},{"duration":0.22519818749999843,"durationTicks":227,"midi":71,"name":"B4","ticks":99120,"time":98.333235,"velocity":0.6299212598425197},{"duration":0.23710293749999778,"durationTicks":239,"midi":69,"name":"A4","ticks":99360,"time":98.57133,"velocity":0.6299212598425197},{"duration":0.11805543750000425,"durationTicks":119,"midi":78,"name":"F#5","ticks":99360,"time":98.57133,"velocity":0.6299212598425197},{"duration":0.11805543750000425,"durationTicks":119,"midi":81,"name":"A5","ticks":99360,"time":98.57133,"velocity":0.6299212598425197},{"duration":0.22519818749999843,"durationTicks":227,"midi":67,"name":"G4","ticks":99600,"time":98.809425,"velocity":0.6299212598425197},{"duration":0.22519818749999843,"durationTicks":227,"midi":79,"name":"G5","ticks":99600,"time":98.809425,"velocity":0.6299212598425197},{"duration":0.11210306249999746,"durationTicks":113,"midi":88,"name":"E6","ticks":99840,"time":99.04752,"velocity":0.6299212598425197},{"duration":0.11210306250001167,"durationTicks":113,"midi":91,"name":"G6","ticks":99960,"time":99.1665675,"velocity":0.6299212598425197},{"duration":0.11210306249999746,"durationTicks":113,"midi":95,"name":"B6","ticks":100080,"time":99.285615,"velocity":0.6299212598425197},{"duration":0.11210306250001167,"durationTicks":113,"midi":98,"name":"D7","ticks":100200,"time":99.4046625,"velocity":0.6299212598425197},{"duration":0.3382933125000136,"durationTicks":341,"midi":67,"name":"G4","ticks":100320,"time":99.52371,"velocity":0.6299212598425197},{"duration":0.237102937500012,"durationTicks":239,"midi":81,"name":"A5","ticks":100560,"time":99.761805,"velocity":0.6299212598425197},{"duration":0.3561504374999913,"durationTicks":359,"midi":67,"name":"G4","ticks":100680,"time":99.8808525,"velocity":0.6299212598425197},{"duration":0.23710293749999778,"durationTicks":239,"midi":81,"name":"A5","ticks":100800,"time":99.9999,"velocity":0.6299212598425197},{"duration":0.23710293749999778,"durationTicks":239,"midi":64,"name":"E4","ticks":101040,"time":100.237995,"velocity":0.6299212598425197},{"duration":0.23710293749999778,"durationTicks":239,"midi":81,"name":"A5","ticks":101040,"time":100.237995,"velocity":0.6299212598425197},{"duration":0.23710293749999778,"durationTicks":239,"midi":67,"name":"G4","ticks":101280,"time":100.47609,"velocity":0.6299212598425197},{"duration":0.23710293749999778,"durationTicks":239,"midi":81,"name":"A5","ticks":101280,"time":100.47609,"velocity":0.6299212598425197},{"duration":0.23710293749999778,"durationTicks":239,"midi":69,"name":"A4","ticks":101520,"time":100.714185,"velocity":0.6299212598425197},{"duration":0.23710293749999778,"durationTicks":239,"midi":81,"name":"A5","ticks":101520,"time":100.714185,"velocity":0.6299212598425197},{"duration":0.47519793749999906,"durationTicks":479,"midi":71,"name":"B4","ticks":101760,"time":100.95228,"velocity":0.6299212598425197},{"duration":0.23710293749999778,"durationTicks":239,"midi":81,"name":"A5","ticks":101760,"time":100.95228,"velocity":0.6299212598425197},{"duration":0.22519818749999843,"durationTicks":227,"midi":83,"name":"B5","ticks":102000,"time":101.190375,"velocity":0.6299212598425197},{"duration":0.3382933124999994,"durationTicks":341,"midi":71,"name":"B4","ticks":102240,"time":101.42847,"velocity":0.6299212598425197},{"duration":0.23710293749999778,"durationTicks":239,"midi":74,"name":"D5","ticks":102480,"time":101.666565,"velocity":0.6299212598425197},{"duration":0.3561504375000055,"durationTicks":359,"midi":71,"name":"B4","ticks":102600,"time":101.7856125,"velocity":0.6299212598425197},{"duration":0.23710293749999778,"durationTicks":239,"midi":83,"name":"B5","ticks":102720,"time":101.90466,"velocity":0.6299212598425197},{"duration":0.237102937500012,"durationTicks":239,"midi":69,"name":"A4","ticks":102960,"time":102.142755,"velocity":0.6299212598425197},{"duration":0.237102937500012,"durationTicks":239,"midi":81,"name":"A5","ticks":102960,"time":102.142755,"velocity":0.6299212598425197},{"duration":0.237102937500012,"durationTicks":239,"midi":71,"name":"B4","ticks":103200,"time":102.38085,"velocity":0.6299212598425197},{"duration":0.237102937500012,"durationTicks":239,"midi":83,"name":"B5","ticks":103200,"time":102.38085,"velocity":0.6299212598425197},{"duration":0.23710293749999778,"durationTicks":239,"midi":69,"name":"A4","ticks":103440,"time":102.618945,"velocity":0.6299212598425197},{"duration":0.23710293749999778,"durationTicks":239,"midi":81,"name":"A5","ticks":103440,"time":102.618945,"velocity":0.6299212598425197},{"duration":0.47519793749999906,"durationTicks":479,"midi":71,"name":"B4","ticks":103680,"time":102.85704,"velocity":0.6299212598425197},{"duration":0.23710293749999778,"durationTicks":239,"midi":83,"name":"B5","ticks":103680,"time":102.85704,"velocity":0.6299212598425197},{"duration":0.22519818749999843,"durationTicks":227,"midi":81,"name":"A5","ticks":103920,"time":103.095135,"velocity":0.6299212598425197},{"duration":0.3382933124999994,"durationTicks":341,"midi":67,"name":"G4","ticks":104160,"time":103.33323,"velocity":0.6299212598425197},{"duration":0,"durationTicks":0,"midi":67,"name":"G4","ticks":104520,"time":103.6903725,"velocity":0.6299212598425197},{"duration":0.11805543750000425,"durationTicks":119,"midi":81,"name":"A5","ticks":104640,"time":103.80942,"velocity":0.6299212598425197},{"duration":0.11805543750000425,"durationTicks":119,"midi":79,"name":"G5","ticks":104760,"time":103.9284675,"velocity":0.6299212598425197},{"duration":0.23710293749999778,"durationTicks":239,"midi":76,"name":"E5","ticks":104880,"time":104.047515,"velocity":0.6299212598425197},{"duration":0.11805543750000425,"durationTicks":119,"midi":81,"name":"A5","ticks":104880,"time":104.047515,"velocity":0.6299212598425197},{"duration":0.11805543750000425,"durationTicks":119,"midi":79,"name":"G5","ticks":105000,"time":104.1665625,"velocity":0.6299212598425197},{"duration":0.23710293749999778,"durationTicks":239,"midi":74,"name":"D5","ticks":105120,"time":104.28561,"velocity":0.6299212598425197},{"duration":0.11805543749999003,"durationTicks":119,"midi":81,"name":"A5","ticks":105120,"time":104.28561,"velocity":0.6299212598425197},{"duration":0.11805543750000425,"durationTicks":119,"midi":79,"name":"G5","ticks":105240,"time":104.4046575,"velocity":0.6299212598425197},{"duration":0.23710293749999778,"durationTicks":239,"midi":71,"name":"B4","ticks":105360,"time":104.523705,"velocity":0.6299212598425197},{"duration":0.11805543749999003,"durationTicks":119,"midi":81,"name":"A5","ticks":105360,"time":104.523705,"velocity":0.6299212598425197},{"duration":0.11805543750000425,"durationTicks":119,"midi":79,"name":"G5","ticks":105480,"time":104.6427525,"velocity":0.6299212598425197},{"duration":0.47519793750001327,"durationTicks":479,"midi":69,"name":"A4","ticks":105600,"time":104.7618,"velocity":0.6299212598425197},{"duration":0.11805543750000425,"durationTicks":119,"midi":81,"name":"A5","ticks":105600,"time":104.7618,"velocity":0.6299212598425197},{"duration":0.11210306250001167,"durationTicks":113,"midi":78,"name":"F#5","ticks":105720,"time":104.8808475,"velocity":0.6299212598425197},{"duration":0.3382933125000136,"durationTicks":341,"midi":69,"name":"A4","ticks":106080,"time":105.23799,"velocity":0.6299212598425197},{"duration":0.11210306249999746,"durationTicks":113,"midi":69,"name":"A4","ticks":106440,"time":105.5951325,"velocity":0.6299212598425197},{"duration":0.11805543750000425,"durationTicks":119,"midi":78,"name":"F#5","ticks":106560,"time":105.71418,"velocity":0.6299212598425197},{"duration":0.11805543750000425,"durationTicks":119,"midi":81,"name":"A5","ticks":106560,"time":105.71418,"velocity":0.6299212598425197},{"duration":0.11805543750000425,"durationTicks":119,"midi":78,"name":"F#5","ticks":107040,"time":106.19037,"velocity":0.6299212598425197},{"duration":0.11805543750000425,"durationTicks":119,"midi":81,"name":"A5","ticks":107040,"time":106.19037,"velocity":0.6299212598425197}]},{"instrument_number":0,"notes":[{"duration":0.2251981875,"durationTicks":227,"midi":76,"name":"E5","ticks":0,"time":0,"velocity":0.6299212598425197},{"duration":0.22519818749999998,"durationTicks":227,"midi":72,"name":"C5","ticks":240,"time":0.238095,"velocity":0.6299212598425197},{"duration":0.22519818749999998,"durationTicks":227,"midi":76,"name":"E5","ticks":480,"time":0.47619,"velocity":0.6299212598425197},{"duration":0.22519818749999998,"durationTicks":227,"midi":72,"name":"C5","ticks":720,"time":0.7142850000000001,"velocity":0.6299212598425197},{"duration":0.2251981875000002,"durationTicks":227,"midi":76,"name":"E5","ticks":960,"time":0.95238,"velocity":0.6299212598425197},{"duration":0.2251981875000002,"durationTicks":227,"midi":72,"name":"C5","ticks":1200,"time":1.190475,"velocity":0.6299212598425197},{"duration":0.22519818749999998,"durationTicks":227,"midi":76,"name":"E5","ticks":1440,"time":1.4285700000000001,"velocity":0.6299212598425197},{"duration":0.22519818749999998,"durationTicks":227,"midi":72,"name":"C5","ticks":1680,"time":1.666665,"velocity":0.6299212598425197},{"duration":0.22519818749999976,"durationTicks":227,"midi":76,"name":"E5","ticks":1920,"time":1.90476,"velocity":0.6299212598425197},{"duration":0.22519818749999976,"durationTicks":227,"midi":72,"name":"C5","ticks":2160,"time":2.142855,"velocity":0.6299212598425197},{"duration":0.2251981875000002,"durationTicks":227,"midi":76,"name":"E5","ticks":2400,"time":2.38095,"velocity":0.6299212598425197},{"duration":0.2251981875000002,"durationTicks":227,"midi":72,"name":"C5","ticks":2640,"time":2.619045,"velocity":0.6299212598425197},{"duration":0.22519818749999976,"durationTicks":227,"midi":76,"name":"E5","ticks":2880,"time":2.8571400000000002,"velocity":0.6299212598425197},{"duration":0.22519818749999976,"durationTicks":227,"midi":72,"name":"C5","ticks":3120,"time":3.095235,"velocity":0.6299212598425197},{"duration":0.22519818749999976,"durationTicks":227,"midi":76,"name":"E5","ticks":3360,"time":3.33333,"velocity":0.6299212598425197},{"duration":0.22519818749999976,"durationTicks":227,"midi":72,"name":"C5","ticks":3600,"time":3.571425,"velocity":0.6299212598425197},{"duration":0.2251981875000002,"durationTicks":227,"midi":79,"name":"G5","ticks":3840,"time":3.80952,"velocity":0.6299212598425197},{"duration":0.2251981874999993,"durationTicks":227,"midi":76,"name":"E5","ticks":4080,"time":4.047615,"velocity":0.6299212598425197},{"duration":0.2251981875000002,"durationTicks":227,"midi":79,"name":"G5","ticks":4320,"time":4.28571,"velocity":0.6299212598425197},{"duration":0.2251981874999993,"durationTicks":227,"midi":76,"name":"E5","ticks":4560,"time":4.523805,"velocity":0.6299212598425197},{"duration":0.2251981875000002,"durationTicks":227,"midi":79,"name":"G5","ticks":4800,"time":4.7619,"velocity":0.6299212598425197},{"duration":0.2251981874999993,"durationTicks":227,"midi":76,"name":"E5","ticks":5040,"time":4.999995,"velocity":0.6299212598425197},{"duration":0.2251981875000002,"durationTicks":227,"midi":79,"name":"G5","ticks":5280,"time":5.23809,"velocity":0.6299212598425197},{"duration":0.2251981875000002,"durationTicks":227,"midi":76,"name":"E5","ticks":5520,"time":5.476185,"velocity":0.6299212598425197},{"duration":0.2251981874999993,"durationTicks":227,"midi":78,"name":"F#5","ticks":5760,"time":5.7142800000000005,"velocity":0.6299212598425197},{"duration":0.2251981875000002,"durationTicks":227,"midi":74,"name":"D5","ticks":6000,"time":5.952375,"velocity":0.6299212598425197},{"duration":0.2251981874999993,"durationTicks":227,"midi":78,"name":"F#5","ticks":6240,"time":6.19047,"velocity":0.6299212598425197},{"duration":0.2251981875000002,"durationTicks":227,"midi":74,"name":"D5","ticks":6480,"time":6.428565,"velocity":0.6299212598425197},{"duration":0.2251981874999993,"durationTicks":227,"midi":78,"name":"F#5","ticks":6720,"time":6.66666,"velocity":0.6299212598425197},{"duration":0.2251981875000002,"durationTicks":227,"midi":74,"name":"D5","ticks":6960,"time":6.904755,"velocity":0.6299212598425197},{"duration":0.2251981875000002,"durationTicks":227,"midi":78,"name":"F#5","ticks":7200,"time":7.14285,"velocity":0.6299212598425197},{"duration":0.2251981875000002,"durationTicks":227,"midi":74,"name":"D5","ticks":7440,"time":7.380945,"velocity":0.6299212598425197},{"duration":1.582339687500001,"durationTicks":1595,"midi":48,"name":"C3","ticks":7680,"time":7.61904,"velocity":0.6299212598425197},{"duration":2.0347201874999996,"durationTicks":2051,"midi":45,"name":"A2","ticks":9360,"time":9.285705,"velocity":0.6299212598425197},{"duration":1.5823396874999993,"durationTicks":1595,"midi":52,"name":"E3","ticks":11520,"time":11.428560000000001,"velocity":0.6299212598425197},{"duration":0.45138843750000035,"durationTicks":455,"midi":55,"name":"G3","ticks":11520,"time":11.428560000000001,"velocity":0.6299212598425197},{"duration":0.45138843750000035,"durationTicks":455,"midi":55,"name":"G3","ticks":12000,"time":11.90475,"velocity":0.6299212598425197},{"duration":0.45138843750000035,"durationTicks":455,"midi":55,"name":"G3","ticks":12480,"time":12.38094,"velocity":0.6299212598425197},{"duration":0.2251981875000002,"durationTicks":227,"midi":59,"name":"B3","ticks":12960,"time":12.85713,"velocity":0.6299212598425197},{"duration":1.1299591875000008,"durationTicks":1139,"midi":50,"name":"D3","ticks":13200,"time":13.095225,"velocity":0.6299212598425197},{"duration":1.1299591875000008,"durationTicks":1139,"midi":57,"name":"A3","ticks":13200,"time":13.095225,"velocity":0.6299212598425197},{"duration":0.23710293749999956,"durationTicks":239,"midi":84,"name":"C6","ticks":14400,"time":14.2857,"velocity":0.6299212598425197},{"duration":0.23710293749999956,"durationTicks":239,"midi":83,"name":"B5","ticks":14640,"time":14.523795,"velocity":0.6299212598425197},{"duration":0.23710293749999956,"durationTicks":239,"midi":81,"name":"A5","ticks":14880,"time":14.76189,"velocity":0.6299212598425197},{"duration":0.23710293749999956,"durationTicks":239,"midi":79,"name":"G5","ticks":15120,"time":14.999985,"velocity":0.6299212598425197},{"duration":0.23710293750000133,"durationTicks":239,"midi":81,"name":"A5","ticks":15360,"time":15.23808,"velocity":0.6299212598425197},{"duration":0.22519818750000198,"durationTicks":227,"midi":81,"name":"A5","ticks":15600,"time":15.476175,"velocity":0.6299212598425197},{"duration":0.33829331250000116,"durationTicks":341,"midi":52,"name":"E3","ticks":15840,"time":15.71427,"velocity":0.6299212598425197},{"duration":0.33829331250000116,"durationTicks":341,"midi":57,"name":"A3","ticks":15840,"time":15.71427,"velocity":0.6299212598425197},{"duration":0.33829331250000116,"durationTicks":341,"midi":60,"name":"C4","ticks":15840,"time":15.71427,"velocity":0.6299212598425197},{"duration":0.33829331250000116,"durationTicks":341,"midi":64,"name":"E4","ticks":15840,"time":15.71427,"velocity":0.6299212598425197},{"duration":0.3382933124999994,"durationTicks":341,"midi":52,"name":"E3","ticks":16200,"time":16.0714125,"velocity":0.6299212598425197},{"duration":0.3382933124999994,"durationTicks":341,"midi":57,"name":"A3","ticks":16200,"time":16.0714125,"velocity":0.6299212598425197},{"duration":0.3382933124999994,"durationTicks":341,"midi":60,"name":"C4","ticks":16200,"time":16.0714125,"velocity":0.6299212598425197},{"duration":0.3382933124999994,"durationTicks":341,"midi":64,"name":"E4","ticks":16200,"time":16.0714125,"velocity":0.6299212598425197},{"duration":0.22519818750000198,"durationTicks":227,"midi":52,"name":"E3","ticks":16560,"time":16.428555,"velocity":0.6299212598425197},{"duration":0.22519818750000198,"durationTicks":227,"midi":57,"name":"A3","ticks":16560,"time":16.428555,"velocity":0.6299212598425197},{"duration":0.22519818750000198,"durationTicks":227,"midi":60,"name":"C4","ticks":16560,"time":16.428555,"velocity":0.6299212598425197},{"duration":0.22519818750000198,"durationTicks":227,"midi":64,"name":"E4","ticks":16560,"time":16.428555,"velocity":0.6299212598425197},{"duration":0.22519818750000198,"durationTicks":227,"midi":33,"name":"A1","ticks":16800,"time":16.66665,"velocity":0.6299212598425197},{"duration":0.22519818750000198,"durationTicks":227,"midi":45,"name":"A2","ticks":16800,"time":16.66665,"velocity":0.6299212598425197},{"duration":0.22519818750000198,"durationTicks":227,"midi":35,"name":"B1","ticks":17040,"time":16.904745,"velocity":0.6299212598425197},{"duration":0.22519818750000198,"durationTicks":227,"midi":47,"name":"B2","ticks":17040,"time":16.904745,"velocity":0.6299212598425197},{"duration":0.45138843750000035,"durationTicks":455,"midi":36,"name":"C2","ticks":17280,"time":17.14284,"velocity":0.6299212598425197},{"duration":0.45138843750000035,"durationTicks":455,"midi":48,"name":"C3","ticks":17280,"time":17.14284,"velocity":0.6299212598425197},{"duration":0.33829331250000294,"durationTicks":341,"midi":52,"name":"E3","ticks":17760,"time":17.61903,"velocity":0.6299212598425197},{"duration":0.33829331250000294,"durationTicks":341,"midi":55,"name":"G3","ticks":17760,"time":17.61903,"velocity":0.6299212598425197},{"duration":0.33829331250000294,"durationTicks":341,"midi":60,"name":"C4","ticks":17760,"time":17.61903,"velocity":0.6299212598425197},{"duration":0.33829331250000294,"durationTicks":341,"midi":64,"name":"E4","ticks":17760,"time":17.61903,"velocity":0.6299212598425197},{"duration":0.3382933124999994,"durationTicks":341,"midi":52,"name":"E3","ticks":18120,"time":17.9761725,"velocity":0.6299212598425197},{"duration":0.3382933124999994,"durationTicks":341,"midi":55,"name":"G3","ticks":18120,"time":17.9761725,"velocity":0.6299212598425197},{"duration":0.3382933124999994,"durationTicks":341,"midi":60,"name":"C4","ticks":18120,"time":17.9761725,"velocity":0.6299212598425197},{"duration":0.3382933124999994,"durationTicks":341,"midi":64,"name":"E4","ticks":18120,"time":17.9761725,"velocity":0.6299212598425197},{"duration":0.22519818750000198,"durationTicks":227,"midi":52,"name":"E3","ticks":18480,"time":18.333315,"velocity":0.6299212598425197},{"duration":0.22519818750000198,"durationTicks":227,"midi":55,"name":"G3","ticks":18480,"time":18.333315,"velocity":0.6299212598425197},{"duration":0.22519818750000198,"durationTicks":227,"midi":60,"name":"C4","ticks":18480,"time":18.333315,"velocity":0.6299212598425197},{"duration":0.22519818750000198,"durationTicks":227,"midi":64,"name":"E4","ticks":18480,"time":18.333315,"velocity":0.6299212598425197},{"duration":0.22519818750000198,"durationTicks":227,"midi":52,"name":"E3","ticks":18720,"time":18.57141,"velocity":0.6299212598425197},{"duration":0.22519818750000198,"durationTicks":227,"midi":60,"name":"C4","ticks":18720,"time":18.57141,"velocity":0.6299212598425197},{"duration":0.22519818750000198,"durationTicks":227,"midi":64,"name":"E4","ticks":18720,"time":18.57141,"velocity":0.6299212598425197},{"duration":0.22519818749999843,"durationTicks":227,"midi":54,"name":"F#3","ticks":18960,"time":18.809505,"velocity":0.6299212598425197},{"duration":0.22519818749999843,"durationTicks":227,"midi":62,"name":"D4","ticks":18960,"time":18.809505,"velocity":0.6299212598425197},{"duration":0.22519818749999843,"durationTicks":227,"midi":66,"name":"F#4","ticks":18960,"time":18.809505,"velocity":0.6299212598425197},{"duration":0.45138843750000035,"durationTicks":455,"midi":55,"name":"G3","ticks":19200,"time":19.0476,"velocity":0.6299212598425197},{"duration":0.45138843750000035,"durationTicks":455,"midi":64,"name":"E4","ticks":19200,"time":19.0476,"velocity":0.6299212598425197},{"duration":0.45138843750000035,"durationTicks":455,"midi":67,"name":"G4","ticks":19200,"time":19.0476,"velocity":0.6299212598425197},{"duration":0.3382933124999994,"durationTicks":341,"midi":40,"name":"E2","ticks":19680,"time":19.52379,"velocity":0.6299212598425197},{"duration":0.3382933124999994,"durationTicks":341,"midi":52,"name":"E3","ticks":19680,"time":19.52379,"velocity":0.6299212598425197},{"duration":0.3382933124999994,"durationTicks":341,"midi":55,"name":"G3","ticks":20040,"time":19.8809325,"velocity":0.6299212598425197},{"duration":0.3382933124999994,"durationTicks":341,"midi":59,"name":"B3","ticks":20040,"time":19.8809325,"velocity":0.6299212598425197},{"duration":0.3382933124999994,"durationTicks":341,"midi":64,"name":"E4","ticks":20040,"time":19.8809325,"velocity":0.6299212598425197},{"duration":0.3382933124999994,"durationTicks":341,"midi":67,"name":"G4","ticks":20040,"time":19.8809325,"velocity":0.6299212598425197},{"duration":0.22519818750000198,"durationTicks":227,"midi":55,"name":"G3","ticks":20400,"time":20.238075,"velocity":0.6299212598425197},{"duration":0.22519818750000198,"durationTicks":227,"midi":59,"name":"B3","ticks":20400,"time":20.238075,"velocity":0.6299212598425197},{"duration":0.22519818750000198,"durationTicks":227,"midi":64,"name":"E4","ticks":20400,"time":20.238075,"velocity":0.6299212598425197},{"duration":0.22519818750000198,"durationTicks":227,"midi":67,"name":"G4","ticks":20400,"time":20.238075,"velocity":0.6299212598425197},{"duration":0.22519818750000198,"durationTicks":227,"midi":55,"name":"G3","ticks":20640,"time":20.47617,"velocity":0.6299212598425197},{"duration":0.22519818750000198,"durationTicks":227,"midi":64,"name":"E4","ticks":20640,"time":20.47617,"velocity":0.6299212598425197},{"duration":0.22519818750000198,"durationTicks":227,"midi":67,"name":"G4","ticks":20640,"time":20.47617,"velocity":0.6299212598425197},{"duration":0.22519818750000198,"durationTicks":227,"midi":57,"name":"A3","ticks":20880,"time":20.714265,"velocity":0.6299212598425197},{"duration":0.22519818750000198,"durationTicks":227,"midi":66,"name":"F#4","ticks":20880,"time":20.714265,"velocity":0.6299212598425197},{"duration":0.22519818750000198,"durationTicks":227,"midi":69,"name":"A4","ticks":20880,"time":20.714265,"velocity":0.6299212598425197},{"duration":0.45138843750000035,"durationTicks":455,"midi":54,"name":"F#3","ticks":21120,"time":20.95236,"velocity":0.6299212598425197},{"duration":0.45138843750000035,"durationTicks":455,"midi":62,"name":"D4","ticks":21120,"time":20.95236,"velocity":0.6299212598425197},{"duration":0.45138843750000035,"durationTicks":455,"midi":66,"name":"F#4","ticks":21120,"time":20.95236,"velocity":0.6299212598425197},{"duration":0.3382933124999994,"durationTicks":341,"midi":38,"name":"D2","ticks":21600,"time":21.42855,"velocity":0.6299212598425197},{"duration":0.3382933124999994,"durationTicks":341,"midi":50,"name":"D3","ticks":21600,"time":21.42855,"velocity":0.6299212598425197},{"duration":0.11210306250000102,"durationTicks":113,"midi":54,"name":"F#3","ticks":21960,"time":21.7856925,"velocity":0.6299212598425197},{"duration":0.11210306250000102,"durationTicks":113,"midi":57,"name":"A3","ticks":21960,"time":21.7856925,"velocity":0.6299212598425197},{"duration":0.11210306250000102,"durationTicks":113,"midi":62,"name":"D4","ticks":21960,"time":21.7856925,"velocity":0.6299212598425197},{"duration":0.11210306250000102,"durationTicks":113,"midi":66,"name":"F#4","ticks":21960,"time":21.7856925,"velocity":0.6299212598425197},{"duration":0.22519818749999843,"durationTicks":227,"midi":54,"name":"F#3","ticks":22320,"time":22.142835,"velocity":0.6299212598425197},{"duration":0.22519818749999843,"durationTicks":227,"midi":57,"name":"A3","ticks":22320,"time":22.142835,"velocity":0.6299212598425197},{"duration":0.22519818749999843,"durationTicks":227,"midi":62,"name":"D4","ticks":22320,"time":22.142835,"velocity":0.6299212598425197},{"duration":0.22519818749999843,"durationTicks":227,"midi":66,"name":"F#4","ticks":22320,"time":22.142835,"velocity":0.6299212598425197},{"duration":0.22519818750000198,"durationTicks":227,"midi":54,"name":"F#3","ticks":22800,"time":22.619025,"velocity":0.6299212598425197},{"duration":0.22519818750000198,"durationTicks":227,"midi":57,"name":"A3","ticks":22800,"time":22.619025,"velocity":0.6299212598425197},{"duration":0.22519818750000198,"durationTicks":227,"midi":62,"name":"D4","ticks":22800,"time":22.619025,"velocity":0.6299212598425197},{"duration":0.22519818750000198,"durationTicks":227,"midi":66,"name":"F#4","ticks":22800,"time":22.619025,"velocity":0.6299212598425197},{"duration":0.22519818749999843,"durationTicks":227,"midi":81,"name":"A5","ticks":23040,"time":22.857120000000002,"velocity":0.6299212598425197},{"duration":0.22519818750000198,"durationTicks":227,"midi":81,"name":"A5","ticks":23280,"time":23.095215,"velocity":0.6299212598425197},{"duration":0.3382933124999994,"durationTicks":341,"midi":52,"name":"E3","ticks":23520,"time":23.33331,"velocity":0.6299212598425197},{"duration":0.3382933124999994,"durationTicks":341,"midi":57,"name":"A3","ticks":23520,"time":23.33331,"velocity":0.6299212598425197},{"duration":0.3382933124999994,"durationTicks":341,"midi":60,"name":"C4","ticks":23520,"time":23.33331,"velocity":0.6299212598425197},{"duration":0.3382933124999994,"durationTicks":341,"midi":64,"name":"E4","ticks":23520,"time":23.33331,"velocity":0.6299212598425197},{"duration":0.3382933124999994,"durationTicks":341,"midi":52,"name":"E3","ticks":23880,"time":23.6904525,"velocity":0.6299212598425197},{"duration":0.3382933124999994,"durationTicks":341,"midi":57,"name":"A3","ticks":23880,"time":23.6904525,"velocity":0.6299212598425197},{"duration":0.3382933124999994,"durationTicks":341,"midi":60,"name":"C4","ticks":23880,"time":23.6904525,"velocity":0.6299212598425197},{"duration":0.3382933124999994,"durationTicks":341,"midi":64,"name":"E4","ticks":23880,"time":23.6904525,"velocity":0.6299212598425197},{"duration":0.22519818750000198,"durationTicks":227,"midi":52,"name":"E3","ticks":24240,"time":24.047595,"velocity":0.6299212598425197},{"duration":0.22519818750000198,"durationTicks":227,"midi":57,"name":"A3","ticks":24240,"time":24.047595,"velocity":0.6299212598425197},{"duration":0.22519818750000198,"durationTicks":227,"midi":60,"name":"C4","ticks":24240,"time":24.047595,"velocity":0.6299212598425197},{"duration":0.22519818750000198,"durationTicks":227,"midi":64,"name":"E4","ticks":24240,"time":24.047595,"velocity":0.6299212598425197},{"duration":0.22519818750000198,"durationTicks":227,"midi":33,"name":"A1","ticks":24480,"time":24.28569,"velocity":0.6299212598425197},{"duration":0.22519818750000198,"durationTicks":227,"midi":45,"name":"A2","ticks":24480,"time":24.28569,"velocity":0.6299212598425197},{"duration":0.22519818750000198,"durationTicks":227,"midi":35,"name":"B1","ticks":24720,"time":24.523785,"velocity":0.6299212598425197},{"duration":0.22519818750000198,"durationTicks":227,"midi":47,"name":"B2","ticks":24720,"time":24.523785,"velocity":0.6299212598425197},{"duration":0.4513884374999968,"durationTicks":455,"midi":36,"name":"C2","ticks":24960,"time":24.76188,"velocity":0.6299212598425197},{"duration":0.4513884374999968,"durationTicks":455,"midi":48,"name":"C3","ticks":24960,"time":24.76188,"velocity":0.6299212598425197},{"duration":0.3382933124999994,"durationTicks":341,"midi":52,"name":"E3","ticks":25440,"time":25.23807,"velocity":0.6299212598425197},{"duration":0.3382933124999994,"durationTicks":341,"midi":55,"name":"G3","ticks":25440,"time":25.23807,"velocity":0.6299212598425197},{"duration":0.3382933124999994,"durationTicks":341,"midi":60,"name":"C4","ticks":25440,"time":25.23807,"velocity":0.6299212598425197},{"duration":0.3382933124999994,"durationTicks":341,"midi":64,"name":"E4","ticks":25440,"time":25.23807,"velocity":0.6299212598425197},{"duration":0.33829331250000294,"durationTicks":341,"midi":52,"name":"E3","ticks":25800,"time":25.5952125,"velocity":0.6299212598425197},{"duration":0.33829331250000294,"durationTicks":341,"midi":55,"name":"G3","ticks":25800,"time":25.5952125,"velocity":0.6299212598425197},{"duration":0.33829331250000294,"durationTicks":341,"midi":60,"name":"C4","ticks":25800,"time":25.5952125,"velocity":0.6299212598425197},{"duration":0.33829331250000294,"durationTicks":341,"midi":64,"name":"E4","ticks":25800,"time":25.5952125,"velocity":0.6299212598425197},{"duration":0.22519818750000198,"durationTicks":227,"midi":52,"name":"E3","ticks":26160,"time":25.952355,"velocity":0.6299212598425197},{"duration":0.22519818750000198,"durationTicks":227,"midi":55,"name":"G3","ticks":26160,"time":25.952355,"velocity":0.6299212598425197},{"duration":0.22519818750000198,"durationTicks":227,"midi":60,"name":"C4","ticks":26160,"time":25.952355,"velocity":0.6299212598425197},{"duration":0.22519818750000198,"durationTicks":227,"midi":64,"name":"E4","ticks":26160,"time":25.952355,"velocity":0.6299212598425197},{"duration":0.22519818750000198,"durationTicks":227,"midi":52,"name":"E3","ticks":26400,"time":26.19045,"velocity":0.6299212598425197},{"duration":0.22519818750000198,"durationTicks":227,"midi":60,"name":"C4","ticks":26400,"time":26.19045,"velocity":0.6299212598425197},{"duration":0.22519818750000198,"durationTicks":227,"midi":64,"name":"E4","ticks":26400,"time":26.19045,"velocity":0.6299212598425197},{"duration":0.22519818750000198,"durationTicks":227,"midi":54,"name":"F#3","ticks":26640,"time":26.428545,"velocity":0.6299212598425197},{"duration":0.22519818750000198,"durationTicks":227,"midi":62,"name":"D4","ticks":26640,"time":26.428545,"velocity":0.6299212598425197},{"duration":0.22519818750000198,"durationTicks":227,"midi":66,"name":"F#4","ticks":26640,"time":26.428545,"velocity":0.6299212598425197},{"duration":0.4513884374999968,"durationTicks":455,"midi":55,"name":"G3","ticks":26880,"time":26.66664,"velocity":0.6299212598425197},{"duration":0.4513884374999968,"durationTicks":455,"midi":64,"name":"E4","ticks":26880,"time":26.66664,"velocity":0.6299212598425197},{"duration":0.4513884374999968,"durationTicks":455,"midi":67,"name":"G4","ticks":26880,"time":26.66664,"velocity":0.6299212598425197},{"duration":0.3382933124999994,"durationTicks":341,"midi":40,"name":"E2","ticks":27360,"time":27.14283,"velocity":0.6299212598425197},{"duration":0.3382933124999994,"durationTicks":341,"midi":52,"name":"E3","ticks":27360,"time":27.14283,"velocity":0.6299212598425197},{"duration":0.33829331250000294,"durationTicks":341,"midi":55,"name":"G3","ticks":27720,"time":27.4999725,"velocity":0.6299212598425197},{"duration":0.33829331250000294,"durationTicks":341,"midi":59,"name":"B3","ticks":27720,"time":27.4999725,"velocity":0.6299212598425197},{"duration":0.33829331250000294,"durationTicks":341,"midi":64,"name":"E4","ticks":27720,"time":27.4999725,"velocity":0.6299212598425197},{"duration":0.3501980625000023,"durationTicks":353,"midi":67,"name":"G4","ticks":27720,"time":27.4999725,"velocity":0.6299212598425197},{"duration":0.22519818750000198,"durationTicks":227,"midi":55,"name":"G3","ticks":28080,"time":27.857115,"velocity":0.6299212598425197},{"duration":0.22519818750000198,"durationTicks":227,"midi":59,"name":"B3","ticks":28080,"time":27.857115,"velocity":0.6299212598425197},{"duration":0.22519818750000198,"durationTicks":227,"midi":64,"name":"E4","ticks":28080,"time":27.857115,"velocity":0.6299212598425197},{"duration":0.22519818750000198,"durationTicks":227,"midi":67,"name":"G4","ticks":28080,"time":27.857115,"velocity":0.6299212598425197},{"duration":0.22519818749999843,"durationTicks":227,"midi":55,"name":"G3","ticks":28320,"time":28.09521,"velocity":0.6299212598425197},{"duration":0.22519818749999843,"durationTicks":227,"midi":64,"name":"E4","ticks":28320,"time":28.09521,"velocity":0.6299212598425197},{"duration":0.22519818749999843,"durationTicks":227,"midi":67,"name":"G4","ticks":28320,"time":28.09521,"velocity":0.6299212598425197},{"duration":0.22519818750000198,"durationTicks":227,"midi":57,"name":"A3","ticks":28560,"time":28.333305,"velocity":0.6299212598425197},{"duration":0.22519818750000198,"durationTicks":227,"midi":66,"name":"F#4","ticks":28560,"time":28.333305,"velocity":0.6299212598425197},{"duration":0.22519818750000198,"durationTicks":227,"midi":69,"name":"A4","ticks":28560,"time":28.333305,"velocity":0.6299212598425197},{"duration":0.4513884374999968,"durationTicks":455,"midi":54,"name":"F#3","ticks":28800,"time":28.5714,"velocity":0.6299212598425197},{"duration":0.4513884374999968,"durationTicks":455,"midi":62,"name":"D4","ticks":28800,"time":28.5714,"velocity":0.6299212598425197},{"duration":0.4513884374999968,"durationTicks":455,"midi":66,"name":"F#4","ticks":28800,"time":28.5714,"velocity":0.6299212598425197},{"duration":0.3382933124999994,"durationTicks":341,"midi":38,"name":"D2","ticks":29280,"time":29.04759,"velocity":0.6299212598425197},{"duration":0.3382933124999994,"durationTicks":341,"midi":50,"name":"D3","ticks":29280,"time":29.04759,"velocity":0.6299212598425197},{"duration":0.11210306249999746,"durationTicks":113,"midi":54,"name":"F#3","ticks":29640,"time":29.4047325,"velocity":0.6299212598425197},{"duration":0.11210306249999746,"durationTicks":113,"midi":57,"name":"A3","ticks":29640,"time":29.4047325,"velocity":0.6299212598425197},{"duration":0.11210306249999746,"durationTicks":113,"midi":62,"name":"D4","ticks":29640,"time":29.4047325,"velocity":0.6299212598425197},{"duration":0.11210306249999746,"durationTicks":113,"midi":66,"name":"F#4","ticks":29640,"time":29.4047325,"velocity":0.6299212598425197},{"duration":0.11805543750000069,"durationTicks":119,"midi":36,"name":"C2","ticks":30720,"time":30.47616,"velocity":0.6299212598425197},{"duration":0.11805543750000069,"durationTicks":119,"midi":43,"name":"G2","ticks":30960,"time":30.714255,"velocity":0.6299212598425197},{"duration":0.11805543750000069,"durationTicks":119,"midi":48,"name":"C3","ticks":31200,"time":30.95235,"velocity":0.6299212598425197},{"duration":0.11805543750000069,"durationTicks":119,"midi":52,"name":"E3","ticks":31440,"time":31.190445,"velocity":0.6299212598425197},{"duration":0.11805543750000069,"durationTicks":119,"midi":55,"name":"G3","ticks":31680,"time":31.42854,"velocity":0.6299212598425197},{"duration":0.11805543750000069,"durationTicks":119,"midi":59,"name":"B3","ticks":31920,"time":31.666635,"velocity":0.6299212598425197},{"duration":0.11805543749999714,"durationTicks":119,"midi":64,"name":"E4","ticks":32160,"time":31.90473,"velocity":0.6299212598425197},{"duration":0.11805543749999714,"durationTicks":119,"midi":67,"name":"G4","ticks":32400,"time":32.142825,"velocity":0.6299212598425197},{"duration":0.11805543749999714,"durationTicks":119,"midi":33,"name":"A1","ticks":32640,"time":32.38092,"velocity":0.6299212598425197},{"duration":0.11805543750000425,"durationTicks":119,"midi":40,"name":"E2","ticks":32880,"time":32.619015,"velocity":0.6299212598425197},{"duration":0.11805543750000425,"durationTicks":119,"midi":45,"name":"A2","ticks":33120,"time":32.85711,"velocity":0.6299212598425197},{"duration":0.11805543750000425,"durationTicks":119,"midi":48,"name":"C3","ticks":33360,"time":33.095205,"velocity":0.6299212598425197},{"duration":0.11805543749999714,"durationTicks":119,"midi":52,"name":"E3","ticks":33600,"time":33.3333,"velocity":0.6299212598425197},{"duration":0.11805543749999714,"durationTicks":119,"midi":64,"name":"E4","ticks":33840,"time":33.571395,"velocity":0.6299212598425197},{"duration":0.11805543750000425,"durationTicks":119,"midi":67,"name":"G4","ticks":34080,"time":33.80949,"velocity":0.6299212598425197},{"duration":0.11805543750000425,"durationTicks":119,"midi":59,"name":"B3","ticks":34320,"time":34.047585,"velocity":0.6299212598425197},{"duration":0.11805543750000425,"durationTicks":119,"midi":40,"name":"E2","ticks":34560,"time":34.28568,"velocity":0.6299212598425197},{"duration":0.11805543749999714,"durationTicks":119,"midi":43,"name":"G2","ticks":34800,"time":34.523775,"velocity":0.6299212598425197},{"duration":0.11805543749999714,"durationTicks":119,"midi":47,"name":"B2","ticks":35040,"time":34.76187,"velocity":0.6299212598425197},{"duration":0.11805543749999714,"durationTicks":119,"midi":52,"name":"E3","ticks":35280,"time":34.999965,"velocity":0.6299212598425197},{"duration":0.11805543750000425,"durationTicks":119,"midi":55,"name":"G3","ticks":35520,"time":35.23806,"velocity":0.6299212598425197},{"duration":0.11805543750000425,"durationTicks":119,"midi":59,"name":"B3","ticks":35760,"time":35.476155,"velocity":0.6299212598425197},{"duration":0.11805543750000425,"durationTicks":119,"midi":67,"name":"G4","ticks":36000,"time":35.71425,"velocity":0.6299212598425197},{"duration":0.11805543749999714,"durationTicks":119,"midi":59,"name":"B3","ticks":36240,"time":35.952345,"velocity":0.6299212598425197},{"duration":0.11805543749999714,"durationTicks":119,"midi":38,"name":"D2","ticks":36480,"time":36.19044,"velocity":0.6299212598425197},{"duration":0.11805543749999714,"durationTicks":119,"midi":42,"name":"F#2","ticks":36720,"time":36.428535000000004,"velocity":0.6299212598425197},{"duration":0.11805543750000425,"durationTicks":119,"midi":45,"name":"A2","ticks":36960,"time":36.66663,"velocity":0.6299212598425197},{"duration":0.11805543750000425,"durationTicks":119,"midi":50,"name":"D3","ticks":37200,"time":36.904725,"velocity":0.6299212598425197},{"duration":0.11805543749999714,"durationTicks":119,"midi":54,"name":"F#3","ticks":37440,"time":37.14282,"velocity":0.6299212598425197},{"duration":0.11805543749999714,"durationTicks":119,"midi":57,"name":"A3","ticks":37680,"time":37.380915,"velocity":0.6299212598425197},{"duration":0.11805543749999714,"durationTicks":119,"midi":66,"name":"F#4","ticks":37920,"time":37.61901,"velocity":0.6299212598425197},{"duration":0.11805543750000425,"durationTicks":119,"midi":57,"name":"A3","ticks":38160,"time":37.857105,"velocity":0.6299212598425197},{"duration":0.11805543750000425,"durationTicks":119,"midi":36,"name":"C2","ticks":38400,"time":38.0952,"velocity":0.6299212598425197},{"duration":0.11805543750000425,"durationTicks":119,"midi":43,"name":"G2","ticks":38640,"time":38.333295,"velocity":0.6299212598425197},{"duration":0.11805543749999714,"durationTicks":119,"midi":48,"name":"C3","ticks":38880,"time":38.57139,"velocity":0.6299212598425197},{"duration":0.11805543749999714,"durationTicks":119,"midi":52,"name":"E3","ticks":39120,"time":38.809485,"velocity":0.6299212598425197},{"duration":0.11805543749999714,"durationTicks":119,"midi":55,"name":"G3","ticks":39360,"time":39.04758,"velocity":0.6299212598425197},{"duration":0.11805543750000425,"durationTicks":119,"midi":59,"name":"B3","ticks":39600,"time":39.285675,"velocity":0.6299212598425197},{"duration":0.11805543750000425,"durationTicks":119,"midi":64,"name":"E4","ticks":39840,"time":39.52377,"velocity":0.6299212598425197},{"duration":0.11805543750000425,"durationTicks":119,"midi":67,"name":"G4","ticks":40080,"time":39.761865,"velocity":0.6299212598425197},{"duration":0.11805543749999714,"durationTicks":119,"midi":33,"name":"A1","ticks":40320,"time":39.99996,"velocity":0.6299212598425197},{"duration":0.11805543749999714,"durationTicks":119,"midi":40,"name":"E2","ticks":40560,"time":40.238055,"velocity":0.6299212598425197},{"duration":0.11805543750000425,"durationTicks":119,"midi":45,"name":"A2","ticks":40800,"time":40.47615,"velocity":0.6299212598425197},{"duration":0.11805543750000425,"durationTicks":119,"midi":48,"name":"C3","ticks":41040,"time":40.714245,"velocity":0.6299212598425197},{"duration":0.11805543750000425,"durationTicks":119,"midi":52,"name":"E3","ticks":41280,"time":40.95234,"velocity":0.6299212598425197},{"duration":0.11805543749999714,"durationTicks":119,"midi":64,"name":"E4","ticks":41520,"time":41.190435,"velocity":0.6299212598425197},{"duration":0.11805543749999714,"durationTicks":119,"midi":67,"name":"G4","ticks":41760,"time":41.42853,"velocity":0.6299212598425197},{"duration":0.11805543749999714,"durationTicks":119,"midi":59,"name":"B3","ticks":42000,"time":41.666625,"velocity":0.6299212598425197},{"duration":0.11805543750000425,"durationTicks":119,"midi":40,"name":"E2","ticks":42240,"time":41.90472,"velocity":0.6299212598425197},{"duration":0.11805543750000425,"durationTicks":119,"midi":43,"name":"G2","ticks":42480,"time":42.142815,"velocity":0.6299212598425197},{"duration":0.11805543750000425,"durationTicks":119,"midi":47,"name":"B2","ticks":42720,"time":42.38091,"velocity":0.6299212598425197},{"duration":0.11805543749999714,"durationTicks":119,"midi":52,"name":"E3","ticks":42960,"time":42.619005,"velocity":0.6299212598425197},{"duration":0.11805543749999714,"durationTicks":119,"midi":55,"name":"G3","ticks":43200,"time":42.8571,"velocity":0.6299212598425197},{"duration":0.11805543750000425,"durationTicks":119,"midi":59,"name":"B3","ticks":43440,"time":43.095195,"velocity":0.6299212598425197},{"duration":0.11805543750000425,"durationTicks":119,"midi":67,"name":"G4","ticks":43680,"time":43.33329,"velocity":0.6299212598425197},{"duration":0.11805543750000425,"durationTicks":119,"midi":59,"name":"B3","ticks":43920,"time":43.571385,"velocity":0.6299212598425197},{"duration":0.11805543749999714,"durationTicks":119,"midi":38,"name":"D2","ticks":44160,"time":43.80948,"velocity":0.6299212598425197},{"duration":0.11805543749999714,"durationTicks":119,"midi":42,"name":"F#2","ticks":44400,"time":44.047575,"velocity":0.6299212598425197},{"duration":0.11805543749999714,"durationTicks":119,"midi":45,"name":"A2","ticks":44640,"time":44.28567,"velocity":0.6299212598425197},{"duration":0.11805543750000425,"durationTicks":119,"midi":50,"name":"D3","ticks":44880,"time":44.523765,"velocity":0.6299212598425197},{"duration":0.11805543750000425,"durationTicks":119,"midi":54,"name":"F#3","ticks":45120,"time":44.76186,"velocity":0.6299212598425197},{"duration":0.11805543750000425,"durationTicks":119,"midi":57,"name":"A3","ticks":45360,"time":44.999955,"velocity":0.6299212598425197},{"duration":0.11805543749999714,"durationTicks":119,"midi":66,"name":"F#4","ticks":45600,"time":45.23805,"velocity":0.6299212598425197},{"duration":0.11805543749999714,"durationTicks":119,"midi":57,"name":"A3","ticks":45840,"time":45.476145,"velocity":0.6299212598425197},{"duration":0.11805543749999714,"durationTicks":119,"midi":36,"name":"C2","ticks":46080,"time":45.714240000000004,"velocity":0.6299212598425197},{"duration":0.11805543750000425,"durationTicks":119,"midi":43,"name":"G2","ticks":46320,"time":45.952335,"velocity":0.6299212598425197},{"duration":0.11805543750000425,"durationTicks":119,"midi":48,"name":"C3","ticks":46560,"time":46.19043,"velocity":0.6299212598425197},{"duration":0.11805543749999714,"durationTicks":119,"midi":52,"name":"E3","ticks":46800,"time":46.428525,"velocity":0.6299212598425197},{"duration":0.11805543749999714,"durationTicks":119,"midi":55,"name":"G3","ticks":47040,"time":46.66662,"velocity":0.6299212598425197},{"duration":0.11805543749999714,"durationTicks":119,"midi":59,"name":"B3","ticks":47280,"time":46.904715,"velocity":0.6299212598425197},{"duration":0.11805543750000425,"durationTicks":119,"midi":64,"name":"E4","ticks":47520,"time":47.14281,"velocity":0.6299212598425197},{"duration":0.11805543750000425,"durationTicks":119,"midi":67,"name":"G4","ticks":47760,"time":47.380905,"velocity":0.6299212598425197},{"duration":0.11805543750000425,"durationTicks":119,"midi":33,"name":"A1","ticks":48000,"time":47.619,"velocity":0.6299212598425197},{"duration":0.11805543749999714,"durationTicks":119,"midi":40,"name":"E2","ticks":48240,"time":47.857095,"velocity":0.6299212598425197},{"duration":0.11805543749999714,"durationTicks":119,"midi":45,"name":"A2","ticks":48480,"time":48.09519,"velocity":0.6299212598425197},{"duration":0.11805543749999714,"durationTicks":119,"midi":48,"name":"C3","ticks":48720,"time":48.333285000000004,"velocity":0.6299212598425197},{"duration":0.11805543750000425,"durationTicks":119,"midi":52,"name":"E3","ticks":48960,"time":48.57138,"velocity":0.6299212598425197},{"duration":0.11805543750000425,"durationTicks":119,"midi":64,"name":"E4","ticks":49200,"time":48.809475,"velocity":0.6299212598425197},{"duration":0.11805543750000425,"durationTicks":119,"midi":67,"name":"G4","ticks":49440,"time":49.04757,"velocity":0.6299212598425197},{"duration":0.11805543749999714,"durationTicks":119,"midi":59,"name":"B3","ticks":49680,"time":49.285665,"velocity":0.6299212598425197},{"duration":0.11805543749999714,"durationTicks":119,"midi":40,"name":"E2","ticks":49920,"time":49.52376,"velocity":0.6299212598425197},{"duration":0.11805543750000425,"durationTicks":119,"midi":43,"name":"G2","ticks":50160,"time":49.761855,"velocity":0.6299212598425197},{"duration":0.11805543750000425,"durationTicks":119,"midi":47,"name":"B2","ticks":50400,"time":49.99995,"velocity":0.6299212598425197},{"duration":0.11805543750000425,"durationTicks":119,"midi":52,"name":"E3","ticks":50640,"time":50.238045,"velocity":0.6299212598425197},{"duration":0.11805543749999714,"durationTicks":119,"midi":55,"name":"G3","ticks":50880,"time":50.47614,"velocity":0.6299212598425197},{"duration":0.11805543749999714,"durationTicks":119,"midi":59,"name":"B3","ticks":51120,"time":50.714235,"velocity":0.6299212598425197},{"duration":0.11805543749999714,"durationTicks":119,"midi":67,"name":"G4","ticks":51360,"time":50.95233,"velocity":0.6299212598425197},{"duration":0.11805543750000425,"durationTicks":119,"midi":59,"name":"B3","ticks":51600,"time":51.190425,"velocity":0.6299212598425197},{"duration":0.11805543750000425,"durationTicks":119,"midi":38,"name":"D2","ticks":51840,"time":51.42852,"velocity":0.6299212598425197},{"duration":0.11805543750000425,"durationTicks":119,"midi":42,"name":"F#2","ticks":52080,"time":51.666615,"velocity":0.6299212598425197},{"duration":0.11805543749999714,"durationTicks":119,"midi":45,"name":"A2","ticks":52320,"time":51.90471,"velocity":0.6299212598425197},{"duration":0.11805543749999714,"durationTicks":119,"midi":50,"name":"D3","ticks":52560,"time":52.142805,"velocity":0.6299212598425197},{"duration":0.11805543750000425,"durationTicks":119,"midi":54,"name":"F#3","ticks":52800,"time":52.3809,"velocity":0.6299212598425197},{"duration":0.11805543750000425,"durationTicks":119,"midi":57,"name":"A3","ticks":53040,"time":52.618995,"velocity":0.6299212598425197},{"duration":0.11805543750000425,"durationTicks":119,"midi":66,"name":"F#4","ticks":53280,"time":52.85709,"velocity":0.6299212598425197},{"duration":0.11805543749999714,"durationTicks":119,"midi":57,"name":"A3","ticks":53520,"time":53.095185,"velocity":0.6299212598425197},{"duration":0.11805543749999714,"durationTicks":119,"midi":36,"name":"C2","ticks":53760,"time":53.33328,"velocity":0.6299212598425197},{"duration":0.11805543749999714,"durationTicks":119,"midi":43,"name":"G2","ticks":54000,"time":53.571375,"velocity":0.6299212598425197},{"duration":0.11805543750000425,"durationTicks":119,"midi":48,"name":"C3","ticks":54240,"time":53.80947,"velocity":0.6299212598425197},{"duration":0.11805543750000425,"durationTicks":119,"midi":52,"name":"E3","ticks":54480,"time":54.047565,"velocity":0.6299212598425197},{"duration":0.11805543750000425,"durationTicks":119,"midi":55,"name":"G3","ticks":54720,"time":54.28566,"velocity":0.6299212598425197},{"duration":0.11805543749999714,"durationTicks":119,"midi":59,"name":"B3","ticks":54960,"time":54.523755,"velocity":0.6299212598425197},{"duration":0.11805543749999714,"durationTicks":119,"midi":64,"name":"E4","ticks":55200,"time":54.76185,"velocity":0.6299212598425197},{"duration":0.11805543750000425,"durationTicks":119,"midi":67,"name":"G4","ticks":55440,"time":54.999945,"velocity":0.6299212598425197},{"duration":0.11805543750000425,"durationTicks":119,"midi":33,"name":"A1","ticks":55680,"time":55.23804,"velocity":0.6299212598425197},{"duration":0.11805543750000425,"durationTicks":119,"midi":40,"name":"E2","ticks":55920,"time":55.476135,"velocity":0.6299212598425197},{"duration":0.11805543749999714,"durationTicks":119,"midi":45,"name":"A2","ticks":56160,"time":55.71423,"velocity":0.6299212598425197},{"duration":0.11805543749999714,"durationTicks":119,"midi":48,"name":"C3","ticks":56400,"time":55.952325,"velocity":0.6299212598425197},{"duration":0.11805543749999714,"durationTicks":119,"midi":52,"name":"E3","ticks":56640,"time":56.19042,"velocity":0.6299212598425197},{"duration":0.11805543750000425,"durationTicks":119,"midi":64,"name":"E4","ticks":56880,"time":56.428515,"velocity":0.6299212598425197},{"duration":0.11805543750000425,"durationTicks":119,"midi":67,"name":"G4","ticks":57120,"time":56.66661,"velocity":0.6299212598425197},{"duration":0.11805543750000425,"durationTicks":119,"midi":59,"name":"B3","ticks":57360,"time":56.904705,"velocity":0.6299212598425197},{"duration":0.11805543749999714,"durationTicks":119,"midi":40,"name":"E2","ticks":57600,"time":57.1428,"velocity":0.6299212598425197},{"duration":0.11805543749999714,"durationTicks":119,"midi":43,"name":"G2","ticks":57840,"time":57.380895,"velocity":0.6299212598425197},{"duration":0.11805543749999714,"durationTicks":119,"midi":47,"name":"B2","ticks":58080,"time":57.618990000000004,"velocity":0.6299212598425197},{"duration":0.11805543750000425,"durationTicks":119,"midi":52,"name":"E3","ticks":58320,"time":57.857085,"velocity":0.6299212598425197},{"duration":0.11805543750000425,"durationTicks":119,"midi":55,"name":"G3","ticks":58560,"time":58.09518,"velocity":0.6299212598425197},{"duration":0.11805543750000425,"durationTicks":119,"midi":59,"name":"B3","ticks":58800,"time":58.333275,"velocity":0.6299212598425197},{"duration":0.11805543749999714,"durationTicks":119,"midi":67,"name":"G4","ticks":59040,"time":58.57137,"velocity":0.6299212598425197},{"duration":0.11805543749999714,"durationTicks":119,"midi":59,"name":"B3","ticks":59280,"time":58.809465,"velocity":0.6299212598425197},{"duration":0.11805543750000425,"durationTicks":119,"midi":38,"name":"D2","ticks":59520,"time":59.04756,"velocity":0.6299212598425197},{"duration":0.11805543750000425,"durationTicks":119,"midi":42,"name":"F#2","ticks":59760,"time":59.285655,"velocity":0.6299212598425197},{"duration":0.11805543750000425,"durationTicks":119,"midi":45,"name":"A2","ticks":60000,"time":59.52375,"velocity":0.6299212598425197},{"duration":0.11805543749999714,"durationTicks":119,"midi":50,"name":"D3","ticks":60240,"time":59.761845,"velocity":0.6299212598425197},{"duration":0.11805543749999714,"durationTicks":119,"midi":54,"name":"F#3","ticks":60480,"time":59.99994,"velocity":0.6299212598425197},{"duration":0.11805543749999714,"durationTicks":119,"midi":57,"name":"A3","ticks":60720,"time":60.238035,"velocity":0.6299212598425197},{"duration":0.23710293750000488,"durationTicks":239,"midi":66,"name":"F#4","ticks":60960,"time":60.47613,"velocity":0.6299212598425197},{"duration":0.45138843749999324,"durationTicks":455,"midi":67,"name":"G4","ticks":61440,"time":60.95232,"velocity":0.6299212598425197},{"duration":0.22519818749999843,"durationTicks":227,"midi":76,"name":"E5","ticks":61440,"time":60.95232,"velocity":0.6299212598425197},{"duration":0.22519818749999843,"durationTicks":227,"midi":72,"name":"C5","ticks":61680,"time":61.190415,"velocity":0.6299212598425197},{"duration":0.3382933124999994,"durationTicks":341,"midi":67,"name":"G4","ticks":61920,"time":61.42851,"velocity":0.6299212598425197},{"duration":0.22519818749999843,"durationTicks":227,"midi":76,"name":"E5","ticks":61920,"time":61.42851,"velocity":0.6299212598425197},{"duration":0.22519818749999843,"durationTicks":227,"midi":72,"name":"C5","ticks":62160,"time":61.666605,"velocity":0.6299212598425197},{"duration":0.22519818749999843,"durationTicks":227,"midi":67,"name":"G4","ticks":62280,"time":61.7856525,"velocity":0.6299212598425197},{"duration":0.22519818749999843,"durationTicks":227,"midi":76,"name":"E5","ticks":62400,"time":61.9047,"velocity":0.6299212598425197},{"duration":0.11210306250000457,"durationTicks":113,"midi":67,"name":"G4","ticks":62520,"time":62.0237475,"velocity":0.6299212598425197},{"duration":0.22519818749999843,"durationTicks":227,"midi":64,"name":"E4","ticks":62640,"time":62.142795,"velocity":0.6299212598425197},{"duration":0.22519818749999843,"durationTicks":227,"midi":72,"name":"C5","ticks":62640,"time":62.142795,"velocity":0.6299212598425197},{"duration":0.22519818749999843,"durationTicks":227,"midi":67,"name":"G4","ticks":62880,"time":62.38089,"velocity":0.6299212598425197},{"duration":0.22519818749999843,"durationTicks":227,"midi":76,"name":"E5","ticks":62880,"time":62.38089,"velocity":0.6299212598425197},{"duration":0.22519818749999843,"durationTicks":227,"midi":69,"name":"A4","ticks":63120,"time":62.618985,"velocity":0.6299212598425197},{"duration":0.22519818749999843,"durationTicks":227,"midi":72,"name":"C5","ticks":63120,"time":62.618985,"velocity":0.6299212598425197},{"duration":0.45138843749999324,"durationTicks":455,"midi":71,"name":"B4","ticks":63360,"time":62.85708,"velocity":0.6299212598425197},{"duration":0.22519818749999843,"durationTicks":227,"midi":76,"name":"E5","ticks":63360,"time":62.85708,"velocity":0.6299212598425197},{"duration":0.22519818749999843,"durationTicks":227,"midi":72,"name":"C5","ticks":63600,"time":63.095175,"velocity":0.6299212598425197},{"duration":0.3382933125000065,"durationTicks":341,"midi":71,"name":"B4","ticks":63840,"time":63.33327,"velocity":0.6299212598425197},{"duration":0.22519818749999843,"durationTicks":227,"midi":76,"name":"E5","ticks":63840,"time":63.33327,"velocity":0.6299212598425197},{"duration":0.22519818749999843,"durationTicks":227,"midi":72,"name":"C5","ticks":64080,"time":63.571365,"velocity":0.6299212598425197},{"duration":0.22519818749999843,"durationTicks":227,"midi":71,"name":"B4","ticks":64200,"time":63.6904125,"velocity":0.6299212598425197},{"duration":0.22519818749999843,"durationTicks":227,"midi":76,"name":"E5","ticks":64320,"time":63.80946,"velocity":0.6299212598425197},{"duration":0.11210306250000457,"durationTicks":113,"midi":71,"name":"B4","ticks":64440,"time":63.9285075,"velocity":0.6299212598425197},{"duration":0.22519818749999843,"durationTicks":227,"midi":69,"name":"A4","ticks":64560,"time":64.047555,"velocity":0.6299212598425197},{"duration":0.22519818749999843,"durationTicks":227,"midi":72,"name":"C5","ticks":64560,"time":64.047555,"velocity":0.6299212598425197},{"duration":0.22519818749999843,"durationTicks":227,"midi":67,"name":"G4","ticks":64800,"time":64.28565,"velocity":0.6299212598425197},{"duration":0.22519818749999843,"durationTicks":227,"midi":76,"name":"E5","ticks":64800,"time":64.28565,"velocity":0.6299212598425197},{"duration":0.22519818749999843,"durationTicks":227,"midi":69,"name":"A4","ticks":65040,"time":64.523745,"velocity":0.6299212598425197},{"duration":0.22519818749999843,"durationTicks":227,"midi":72,"name":"C5","ticks":65040,"time":64.523745,"velocity":0.6299212598425197},{"duration":0.45138843749998614,"durationTicks":455,"midi":71,"name":"B4","ticks":65280,"time":64.76184,"velocity":0.6299212598425197},{"duration":0.22519818749999843,"durationTicks":227,"midi":79,"name":"G5","ticks":65280,"time":64.76184,"velocity":0.6299212598425197},{"duration":0.22519818749999843,"durationTicks":227,"midi":76,"name":"E5","ticks":65520,"time":64.999935,"velocity":0.6299212598425197},{"duration":0.3382933125000136,"durationTicks":341,"midi":71,"name":"B4","ticks":65760,"time":65.23803,"velocity":0.6299212598425197},{"duration":0.22519818749999843,"durationTicks":227,"midi":79,"name":"G5","ticks":65760,"time":65.23803,"velocity":0.6299212598425197},{"duration":0.22519818749999843,"durationTicks":227,"midi":76,"name":"E5","ticks":66000,"time":65.476125,"velocity":0.6299212598425197},{"duration":0.22519818749999843,"durationTicks":227,"midi":71,"name":"B4","ticks":66120,"time":65.5951725,"velocity":0.6299212598425197},{"duration":0.22519818749999843,"durationTicks":227,"midi":79,"name":"G5","ticks":66240,"time":65.71422,"velocity":0.6299212598425197},{"duration":0.11210306249999746,"durationTicks":113,"midi":71,"name":"B4","ticks":66360,"time":65.8332675,"velocity":0.6299212598425197},{"duration":0.22519818749999843,"durationTicks":227,"midi":76,"name":"E5","ticks":66480,"time":65.952315,"velocity":0.6299212598425197},{"duration":0.22519818749999843,"durationTicks":227,"midi":74,"name":"D5","ticks":66720,"time":66.19041,"velocity":0.6299212598425197},{"duration":0.22519818749999843,"durationTicks":227,"midi":79,"name":"G5","ticks":66720,"time":66.19041,"velocity":0.6299212598425197},{"duration":0.22519818749999843,"durationTicks":227,"midi":71,"name":"B4","ticks":66960,"time":66.428505,"velocity":0.6299212598425197},{"duration":0.22519818749999843,"durationTicks":227,"midi":76,"name":"E5","ticks":66960,"time":66.428505,"velocity":0.6299212598425197},{"duration":0.45138843750000035,"durationTicks":455,"midi":69,"name":"A4","ticks":67200,"time":66.6666,"velocity":0.6299212598425197},{"duration":0.22519818749999843,"durationTicks":227,"midi":78,"name":"F#5","ticks":67200,"time":66.6666,"velocity":0.6299212598425197},{"duration":0.22519818749999843,"durationTicks":227,"midi":74,"name":"D5","ticks":67440,"time":66.904695,"velocity":0.6299212598425197},{"duration":0.3382933124999994,"durationTicks":341,"midi":69,"name":"A4","ticks":67680,"time":67.14279,"velocity":0.6299212598425197},{"duration":0.22519818749999843,"durationTicks":227,"midi":78,"name":"F#5","ticks":67680,"time":67.14279,"velocity":0.6299212598425197},{"duration":0.22519818749999843,"durationTicks":227,"midi":74,"name":"D5","ticks":67920,"time":67.380885,"velocity":0.6299212598425197},{"duration":0.22519818749999843,"durationTicks":227,"midi":69,"name":"A4","ticks":68040,"time":67.4999325,"velocity":0.6299212598425197},{"duration":0.22519818749999843,"durationTicks":227,"midi":78,"name":"F#5","ticks":68160,"time":67.61898,"velocity":0.6299212598425197},{"duration":0.11210306250001167,"durationTicks":113,"midi":69,"name":"A4","ticks":68280,"time":67.7380275,"velocity":0.6299212598425197},{"duration":0.22519818749999843,"durationTicks":227,"midi":71,"name":"B4","ticks":68400,"time":67.857075,"velocity":0.6299212598425197},{"duration":0.22519818749999843,"durationTicks":227,"midi":74,"name":"D5","ticks":68400,"time":67.857075,"velocity":0.6299212598425197},{"duration":0.22519818749999843,"durationTicks":227,"midi":69,"name":"A4","ticks":68640,"time":68.09517,"velocity":0.6299212598425197},{"duration":0.22519818749999843,"durationTicks":227,"midi":78,"name":"F#5","ticks":68640,"time":68.09517,"velocity":0.6299212598425197},{"duration":0.22519818749999843,"durationTicks":227,"midi":67,"name":"G4","ticks":68880,"time":68.333265,"velocity":0.6299212598425197},{"duration":0.22519818749999843,"durationTicks":227,"midi":74,"name":"D5","ticks":68880,"time":68.333265,"velocity":0.6299212598425197},{"duration":0.22519818749999843,"durationTicks":227,"midi":52,"name":"E3","ticks":69120,"time":68.57136,"velocity":0.6299212598425197},{"duration":0.22519818749999843,"durationTicks":227,"midi":55,"name":"G3","ticks":69120,"time":68.57136,"velocity":0.6299212598425197},{"duration":0.22519818749999843,"durationTicks":227,"midi":60,"name":"C4","ticks":69120,"time":68.57136,"velocity":0.6299212598425197},{"duration":0.22519818749999843,"durationTicks":227,"midi":64,"name":"E4","ticks":69120,"time":68.57136,"velocity":0.6299212598425197},{"duration":0.22519818749999843,"durationTicks":227,"midi":52,"name":"E3","ticks":69360,"time":68.809455,"velocity":0.6299212598425197},{"duration":0.22519818749999843,"durationTicks":227,"midi":55,"name":"G3","ticks":69360,"time":68.809455,"velocity":0.6299212598425197},{"duration":0.22519818749999843,"durationTicks":227,"midi":60,"name":"C4","ticks":69360,"time":68.809455,"velocity":0.6299212598425197},{"duration":0.22519818749999843,"durationTicks":227,"midi":64,"name":"E4","ticks":69360,"time":68.809455,"velocity":0.6299212598425197},{"duration":0.22519818749999843,"durationTicks":227,"midi":52,"name":"E3","ticks":69600,"time":69.04755,"velocity":0.6299212598425197},{"duration":0.22519818749999843,"durationTicks":227,"midi":55,"name":"G3","ticks":69600,"time":69.04755,"velocity":0.6299212598425197},{"duration":0.22519818749999843,"durationTicks":227,"midi":60,"name":"C4","ticks":69600,"time":69.04755,"velocity":0.6299212598425197},{"duration":0.22519818749999843,"durationTicks":227,"midi":64,"name":"E4","ticks":69600,"time":69.04755,"velocity":0.6299212598425197},{"duration":0.22519818749999843,"durationTicks":227,"midi":52,"name":"E3","ticks":69840,"time":69.285645,"velocity":0.6299212598425197},{"duration":0.22519818749999843,"durationTicks":227,"midi":55,"name":"G3","ticks":69840,"time":69.285645,"velocity":0.6299212598425197},{"duration":0.22519818749999843,"durationTicks":227,"midi":60,"name":"C4","ticks":69840,"time":69.285645,"velocity":0.6299212598425197},{"duration":0.22519818749999843,"durationTicks":227,"midi":64,"name":"E4","ticks":69840,"time":69.285645,"velocity":0.6299212598425197},{"duration":0.22519818749999843,"durationTicks":227,"midi":52,"name":"E3","ticks":70080,"time":69.52374,"velocity":0.6299212598425197},{"duration":0.22519818749999843,"durationTicks":227,"midi":55,"name":"G3","ticks":70080,"time":69.52374,"velocity":0.6299212598425197},{"duration":0.22519818749999843,"durationTicks":227,"midi":60,"name":"C4","ticks":70080,"time":69.52374,"velocity":0.6299212598425197},{"duration":0.22519818749999843,"durationTicks":227,"midi":64,"name":"E4","ticks":70080,"time":69.52374,"velocity":0.6299212598425197},{"duration":0.22519818749999843,"durationTicks":227,"midi":52,"name":"E3","ticks":70320,"time":69.761835,"velocity":0.6299212598425197},{"duration":0.22519818749999843,"durationTicks":227,"midi":55,"name":"G3","ticks":70320,"time":69.761835,"velocity":0.6299212598425197},{"duration":0.22519818749999843,"durationTicks":227,"midi":60,"name":"C4","ticks":70320,"time":69.761835,"velocity":0.6299212598425197},{"duration":0.22519818749999843,"durationTicks":227,"midi":64,"name":"E4","ticks":70320,"time":69.761835,"velocity":0.6299212598425197},{"duration":0.22519818749999843,"durationTicks":227,"midi":55,"name":"G3","ticks":70560,"time":69.99993,"velocity":0.6299212598425197},{"duration":0.22519818749999843,"durationTicks":227,"midi":60,"name":"C4","ticks":70560,"time":69.99993,"velocity":0.6299212598425197},{"duration":0.22519818749999843,"durationTicks":227,"midi":64,"name":"E4","ticks":70560,"time":69.99993,"velocity":0.6299212598425197},{"duration":0.22519818749999843,"durationTicks":227,"midi":55,"name":"G3","ticks":70800,"time":70.238025,"velocity":0.6299212598425197},{"duration":0.22519818749999843,"durationTicks":227,"midi":60,"name":"C4","ticks":70800,"time":70.238025,"velocity":0.6299212598425197},{"duration":0.22519818749999843,"durationTicks":227,"midi":64,"name":"E4","ticks":70800,"time":70.238025,"velocity":0.6299212598425197},{"duration":0.22519818749999843,"durationTicks":227,"midi":57,"name":"A3","ticks":71040,"time":70.47612,"velocity":0.6299212598425197},{"duration":0.22519818749999843,"durationTicks":227,"midi":60,"name":"C4","ticks":71040,"time":70.47612,"velocity":0.6299212598425197},{"duration":0.22519818749999843,"durationTicks":227,"midi":64,"name":"E4","ticks":71040,"time":70.47612,"velocity":0.6299212598425197},{"duration":0.22519818749999843,"durationTicks":227,"midi":69,"name":"A4","ticks":71040,"time":70.47612,"velocity":0.6299212598425197},{"duration":0.22519818749999843,"durationTicks":227,"midi":52,"name":"E3","ticks":71280,"time":70.714215,"velocity":0.6299212598425197},{"duration":0.22519818749999843,"durationTicks":227,"midi":57,"name":"A3","ticks":71280,"time":70.714215,"velocity":0.6299212598425197},{"duration":0.22519818749999843,"durationTicks":227,"midi":60,"name":"C4","ticks":71280,"time":70.714215,"velocity":0.6299212598425197},{"duration":0.22519818749999843,"durationTicks":227,"midi":64,"name":"E4","ticks":71280,"time":70.714215,"velocity":0.6299212598425197},{"duration":0.22519818749999843,"durationTicks":227,"midi":52,"name":"E3","ticks":71520,"time":70.95231,"velocity":0.6299212598425197},{"duration":0.22519818749999843,"durationTicks":227,"midi":57,"name":"A3","ticks":71520,"time":70.95231,"velocity":0.6299212598425197},{"duration":0.22519818749999843,"durationTicks":227,"midi":60,"name":"C4","ticks":71520,"time":70.95231,"velocity":0.6299212598425197},{"duration":0.22519818749999843,"durationTicks":227,"midi":64,"name":"E4","ticks":71520,"time":70.95231,"velocity":0.6299212598425197},{"duration":0.22519818749999843,"durationTicks":227,"midi":52,"name":"E3","ticks":71760,"time":71.190405,"velocity":0.6299212598425197},{"duration":0.22519818749999843,"durationTicks":227,"midi":57,"name":"A3","ticks":71760,"time":71.190405,"velocity":0.6299212598425197},{"duration":0.22519818749999843,"durationTicks":227,"midi":60,"name":"C4","ticks":71760,"time":71.190405,"velocity":0.6299212598425197},{"duration":0.22519818749999843,"durationTicks":227,"midi":64,"name":"E4","ticks":71760,"time":71.190405,"velocity":0.6299212598425197},{"duration":0.22519818749999843,"durationTicks":227,"midi":52,"name":"E3","ticks":72000,"time":71.4285,"velocity":0.6299212598425197},{"duration":0.22519818749999843,"durationTicks":227,"midi":57,"name":"A3","ticks":72000,"time":71.4285,"velocity":0.6299212598425197},{"duration":0.22519818749999843,"durationTicks":227,"midi":60,"name":"C4","ticks":72000,"time":71.4285,"velocity":0.6299212598425197},{"duration":0.22519818749999843,"durationTicks":227,"midi":64,"name":"E4","ticks":72000,"time":71.4285,"velocity":0.6299212598425197},{"duration":0.22519818749999843,"durationTicks":227,"midi":52,"name":"E3","ticks":72240,"time":71.666595,"velocity":0.6299212598425197},{"duration":0.22519818749999843,"durationTicks":227,"midi":57,"name":"A3","ticks":72240,"time":71.666595,"velocity":0.6299212598425197},{"duration":0.22519818749999843,"durationTicks":227,"midi":60,"name":"C4","ticks":72240,"time":71.666595,"velocity":0.6299212598425197},{"duration":0.22519818749999843,"durationTicks":227,"midi":64,"name":"E4","ticks":72240,"time":71.666595,"velocity":0.6299212598425197},{"duration":0.22519818749999843,"durationTicks":227,"midi":52,"name":"E3","ticks":72480,"time":71.90469,"velocity":0.6299212598425197},{"duration":0.22519818749999843,"durationTicks":227,"midi":57,"name":"A3","ticks":72480,"time":71.90469,"velocity":0.6299212598425197},{"duration":0.22519818749999843,"durationTicks":227,"midi":60,"name":"C4","ticks":72480,"time":71.90469,"velocity":0.6299212598425197},{"duration":0.22519818749999843,"durationTicks":227,"midi":64,"name":"E4","ticks":72480,"time":71.90469,"velocity":0.6299212598425197},{"duration":0.22519818749999843,"durationTicks":227,"midi":52,"name":"E3","ticks":72720,"time":72.142785,"velocity":0.6299212598425197},{"duration":0.22519818749999843,"durationTicks":227,"midi":57,"name":"A3","ticks":72720,"time":72.142785,"velocity":0.6299212598425197},{"duration":0.22519818749999843,"durationTicks":227,"midi":60,"name":"C4","ticks":72720,"time":72.142785,"velocity":0.6299212598425197},{"duration":0.22519818749999843,"durationTicks":227,"midi":64,"name":"E4","ticks":72720,"time":72.142785,"velocity":0.6299212598425197},{"duration":0.11210306249999746,"durationTicks":113,"midi":52,"name":"E3","ticks":72960,"time":72.38088,"velocity":0.6299212598425197},{"duration":0.11210306249999746,"durationTicks":113,"midi":55,"name":"G3","ticks":72960,"time":72.38088,"velocity":0.6299212598425197},{"duration":0.11210306249999746,"durationTicks":113,"midi":59,"name":"B3","ticks":72960,"time":72.38088,"velocity":0.6299212598425197},{"duration":0.11210306249999746,"durationTicks":113,"midi":64,"name":"E4","ticks":72960,"time":72.38088,"velocity":0.6299212598425197},{"duration":0.11210306250001167,"durationTicks":113,"midi":52,"name":"E3","ticks":73080,"time":72.4999275,"velocity":0.6299212598425197},{"duration":0.11210306250001167,"durationTicks":113,"midi":55,"name":"G3","ticks":73080,"time":72.4999275,"velocity":0.6299212598425197},{"duration":0.11210306250001167,"durationTicks":113,"midi":59,"name":"B3","ticks":73080,"time":72.4999275,"velocity":0.6299212598425197},{"duration":0.11210306250001167,"durationTicks":113,"midi":64,"name":"E4","ticks":73080,"time":72.4999275,"velocity":0.6299212598425197},{"duration":0.11210306249999746,"durationTicks":113,"midi":52,"name":"E3","ticks":73200,"time":72.618975,"velocity":0.6299212598425197},{"duration":0.11210306249999746,"durationTicks":113,"midi":55,"name":"G3","ticks":73200,"time":72.618975,"velocity":0.6299212598425197},{"duration":0.11210306249999746,"durationTicks":113,"midi":59,"name":"B3","ticks":73200,"time":72.618975,"velocity":0.6299212598425197},{"duration":0.11210306249999746,"durationTicks":113,"midi":64,"name":"E4","ticks":73200,"time":72.618975,"velocity":0.6299212598425197},{"duration":0.11210306250001167,"durationTicks":113,"midi":52,"name":"E3","ticks":73320,"time":72.7380225,"velocity":0.6299212598425197},{"duration":0.11210306250001167,"durationTicks":113,"midi":55,"name":"G3","ticks":73320,"time":72.7380225,"velocity":0.6299212598425197},{"duration":0.11210306250001167,"durationTicks":113,"midi":59,"name":"B3","ticks":73320,"time":72.7380225,"velocity":0.6299212598425197},{"duration":0.11210306250001167,"durationTicks":113,"midi":64,"name":"E4","ticks":73320,"time":72.7380225,"velocity":0.6299212598425197},{"duration":0.11210306249999746,"durationTicks":113,"midi":52,"name":"E3","ticks":73440,"time":72.85707000000001,"velocity":0.6299212598425197},{"duration":0.11210306249999746,"durationTicks":113,"midi":55,"name":"G3","ticks":73440,"time":72.85707000000001,"velocity":0.6299212598425197},{"duration":0.11210306249999746,"durationTicks":113,"midi":59,"name":"B3","ticks":73440,"time":72.85707000000001,"velocity":0.6299212598425197},{"duration":0.11210306249999746,"durationTicks":113,"midi":64,"name":"E4","ticks":73440,"time":72.85707000000001,"velocity":0.6299212598425197},{"duration":0.11210306250001167,"durationTicks":113,"midi":52,"name":"E3","ticks":73560,"time":72.9761175,"velocity":0.6299212598425197},{"duration":0.11210306250001167,"durationTicks":113,"midi":55,"name":"G3","ticks":73560,"time":72.9761175,"velocity":0.6299212598425197},{"duration":0.11210306250001167,"durationTicks":113,"midi":59,"name":"B3","ticks":73560,"time":72.9761175,"velocity":0.6299212598425197},{"duration":0.11210306250001167,"durationTicks":113,"midi":64,"name":"E4","ticks":73560,"time":72.9761175,"velocity":0.6299212598425197},{"duration":0.11210306250001167,"durationTicks":113,"midi":52,"name":"E3","ticks":73680,"time":73.095165,"velocity":0.6299212598425197},{"duration":0.11210306250001167,"durationTicks":113,"midi":55,"name":"G3","ticks":73680,"time":73.095165,"velocity":0.6299212598425197},{"duration":0.11210306250001167,"durationTicks":113,"midi":59,"name":"B3","ticks":73680,"time":73.095165,"velocity":0.6299212598425197},{"duration":0.11210306250001167,"durationTicks":113,"midi":64,"name":"E4","ticks":73680,"time":73.095165,"velocity":0.6299212598425197},{"duration":0.11210306249999746,"durationTicks":113,"midi":52,"name":"E3","ticks":73800,"time":73.2142125,"velocity":0.6299212598425197},{"duration":0.11210306249999746,"durationTicks":113,"midi":55,"name":"G3","ticks":73800,"time":73.2142125,"velocity":0.6299212598425197},{"duration":0.11210306249999746,"durationTicks":113,"midi":59,"name":"B3","ticks":73800,"time":73.2142125,"velocity":0.6299212598425197},{"duration":0.11210306249999746,"durationTicks":113,"midi":64,"name":"E4","ticks":73800,"time":73.2142125,"velocity":0.6299212598425197},{"duration":0.11210306250001167,"durationTicks":113,"midi":52,"name":"E3","ticks":73920,"time":73.33326,"velocity":0.6299212598425197},{"duration":0.11210306250001167,"durationTicks":113,"midi":55,"name":"G3","ticks":73920,"time":73.33326,"velocity":0.6299212598425197},{"duration":0.11210306250001167,"durationTicks":113,"midi":59,"name":"B3","ticks":73920,"time":73.33326,"velocity":0.6299212598425197},{"duration":0.11210306250001167,"durationTicks":113,"midi":64,"name":"E4","ticks":73920,"time":73.33326,"velocity":0.6299212598425197},{"duration":0.11210306249999746,"durationTicks":113,"midi":52,"name":"E3","ticks":74040,"time":73.4523075,"velocity":0.6299212598425197},{"duration":0.11210306249999746,"durationTicks":113,"midi":55,"name":"G3","ticks":74040,"time":73.4523075,"velocity":0.6299212598425197},{"duration":0.11210306249999746,"durationTicks":113,"midi":59,"name":"B3","ticks":74040,"time":73.4523075,"velocity":0.6299212598425197},{"duration":0.11210306249999746,"durationTicks":113,"midi":64,"name":"E4","ticks":74040,"time":73.4523075,"velocity":0.6299212598425197},{"duration":0.11210306250001167,"durationTicks":113,"midi":52,"name":"E3","ticks":74160,"time":73.571355,"velocity":0.6299212598425197},{"duration":0.11210306250001167,"durationTicks":113,"midi":55,"name":"G3","ticks":74160,"time":73.571355,"velocity":0.6299212598425197},{"duration":0.11210306250001167,"durationTicks":113,"midi":59,"name":"B3","ticks":74160,"time":73.571355,"velocity":0.6299212598425197},{"duration":0.11210306250001167,"durationTicks":113,"midi":64,"name":"E4","ticks":74160,"time":73.571355,"velocity":0.6299212598425197},{"duration":0.11210306249999746,"durationTicks":113,"midi":52,"name":"E3","ticks":74280,"time":73.6904025,"velocity":0.6299212598425197},{"duration":0.11210306249999746,"durationTicks":113,"midi":55,"name":"G3","ticks":74280,"time":73.6904025,"velocity":0.6299212598425197},{"duration":0.11210306249999746,"durationTicks":113,"midi":59,"name":"B3","ticks":74280,"time":73.6904025,"velocity":0.6299212598425197},{"duration":0.11210306249999746,"durationTicks":113,"midi":64,"name":"E4","ticks":74280,"time":73.6904025,"velocity":0.6299212598425197},{"duration":0.11210306250001167,"durationTicks":113,"midi":52,"name":"E3","ticks":74400,"time":73.80945,"velocity":0.6299212598425197},{"duration":0.11210306250001167,"durationTicks":113,"midi":55,"name":"G3","ticks":74400,"time":73.80945,"velocity":0.6299212598425197},{"duration":0.11210306250001167,"durationTicks":113,"midi":59,"name":"B3","ticks":74400,"time":73.80945,"velocity":0.6299212598425197},{"duration":0.11210306250001167,"durationTicks":113,"midi":64,"name":"E4","ticks":74400,"time":73.80945,"velocity":0.6299212598425197},{"duration":0.11210306249999746,"durationTicks":113,"midi":52,"name":"E3","ticks":74520,"time":73.9284975,"velocity":0.6299212598425197},{"duration":0.11210306249999746,"durationTicks":113,"midi":55,"name":"G3","ticks":74520,"time":73.9284975,"velocity":0.6299212598425197},{"duration":0.11210306249999746,"durationTicks":113,"midi":59,"name":"B3","ticks":74520,"time":73.9284975,"velocity":0.6299212598425197},{"duration":0.11210306249999746,"durationTicks":113,"midi":64,"name":"E4","ticks":74520,"time":73.9284975,"velocity":0.6299212598425197},{"duration":0.45138843750000035,"durationTicks":455,"midi":33,"name":"A1","ticks":76800,"time":76.1904,"velocity":0.6299212598425197},{"duration":0.45138843750000035,"durationTicks":455,"midi":45,"name":"A2","ticks":76800,"time":76.1904,"velocity":0.6299212598425197},{"duration":0.3382933124999994,"durationTicks":341,"midi":52,"name":"E3","ticks":77280,"time":76.66659,"velocity":0.6299212598425197},{"duration":0.3382933124999994,"durationTicks":341,"midi":57,"name":"A3","ticks":77280,"time":76.66659,"velocity":0.6299212598425197},{"duration":0.3382933124999994,"durationTicks":341,"midi":60,"name":"C4","ticks":77280,"time":76.66659,"velocity":0.6299212598425197},{"duration":0.3382933124999994,"durationTicks":341,"midi":64,"name":"E4","ticks":77280,"time":76.66659,"velocity":0.6299212598425197},{"duration":0.3382933125000136,"durationTicks":341,"midi":52,"name":"E3","ticks":77640,"time":77.0237325,"velocity":0.6299212598425197},{"duration":0.3382933125000136,"durationTicks":341,"midi":57,"name":"A3","ticks":77640,"time":77.0237325,"velocity":0.6299212598425197},{"duration":0.3382933125000136,"durationTicks":341,"midi":60,"name":"C4","ticks":77640,"time":77.0237325,"velocity":0.6299212598425197},{"duration":0.3382933125000136,"durationTicks":341,"midi":64,"name":"E4","ticks":77640,"time":77.0237325,"velocity":0.6299212598425197},{"duration":0.22519818749999843,"durationTicks":227,"midi":52,"name":"E3","ticks":78000,"time":77.380875,"velocity":0.6299212598425197},{"duration":0.22519818749999843,"durationTicks":227,"midi":57,"name":"A3","ticks":78000,"time":77.380875,"velocity":0.6299212598425197},{"duration":0.22519818749999843,"durationTicks":227,"midi":60,"name":"C4","ticks":78000,"time":77.380875,"velocity":0.6299212598425197},{"duration":0.22519818749999843,"durationTicks":227,"midi":64,"name":"E4","ticks":78000,"time":77.380875,"velocity":0.6299212598425197},{"duration":0.22519818749999843,"durationTicks":227,"midi":33,"name":"A1","ticks":78240,"time":77.61897,"velocity":0.6299212598425197},{"duration":0.22519818749999843,"durationTicks":227,"midi":45,"name":"A2","ticks":78240,"time":77.61897,"velocity":0.6299212598425197},{"duration":0.22519818749999843,"durationTicks":227,"midi":35,"name":"B1","ticks":78480,"time":77.857065,"velocity":0.6299212598425197},{"duration":0.22519818749999843,"durationTicks":227,"midi":47,"name":"B2","ticks":78480,"time":77.857065,"velocity":0.6299212598425197},{"duration":0.45138843749998614,"durationTicks":455,"midi":36,"name":"C2","ticks":78720,"time":78.09516,"velocity":0.6299212598425197},{"duration":0.45138843749998614,"durationTicks":455,"midi":48,"name":"C3","ticks":78720,"time":78.09516,"velocity":0.6299212598425197},{"duration":0.3382933125000136,"durationTicks":341,"midi":52,"name":"E3","ticks":79200,"time":78.57135,"velocity":0.6299212598425197},{"duration":0.3382933125000136,"durationTicks":341,"midi":55,"name":"G3","ticks":79200,"time":78.57135,"velocity":0.6299212598425197},{"duration":0.3382933125000136,"durationTicks":341,"midi":60,"name":"C4","ticks":79200,"time":78.57135,"velocity":0.6299212598425197},{"duration":0.3382933125000136,"durationTicks":341,"midi":64,"name":"E4","ticks":79200,"time":78.57135,"velocity":0.6299212598425197},{"duration":0.3382933124999994,"durationTicks":341,"midi":52,"name":"E3","ticks":79560,"time":78.9284925,"velocity":0.6299212598425197},{"duration":0.3382933124999994,"durationTicks":341,"midi":55,"name":"G3","ticks":79560,"time":78.9284925,"velocity":0.6299212598425197},{"duration":0.3382933124999994,"durationTicks":341,"midi":60,"name":"C4","ticks":79560,"time":78.9284925,"velocity":0.6299212598425197},{"duration":0.3382933124999994,"durationTicks":341,"midi":64,"name":"E4","ticks":79560,"time":78.9284925,"velocity":0.6299212598425197},{"duration":0.22519818749999843,"durationTicks":227,"midi":52,"name":"E3","ticks":79920,"time":79.285635,"velocity":0.6299212598425197},{"duration":0.22519818749999843,"durationTicks":227,"midi":55,"name":"G3","ticks":79920,"time":79.285635,"velocity":0.6299212598425197},{"duration":0.22519818749999843,"durationTicks":227,"midi":60,"name":"C4","ticks":79920,"time":79.285635,"velocity":0.6299212598425197},{"duration":0.22519818749999843,"durationTicks":227,"midi":64,"name":"E4","ticks":79920,"time":79.285635,"velocity":0.6299212598425197},{"duration":0.22519818749999843,"durationTicks":227,"midi":36,"name":"C2","ticks":80160,"time":79.52373,"velocity":0.6299212598425197},{"duration":0.22519818749999843,"durationTicks":227,"midi":48,"name":"C3","ticks":80160,"time":79.52373,"velocity":0.6299212598425197},{"duration":0.22519818749999843,"durationTicks":227,"midi":38,"name":"D2","ticks":80400,"time":79.761825,"velocity":0.6299212598425197},{"duration":0.22519818749999843,"durationTicks":227,"midi":50,"name":"D3","ticks":80400,"time":79.761825,"velocity":0.6299212598425197},{"duration":0.45138843749998614,"durationTicks":455,"midi":40,"name":"E2","ticks":80640,"time":79.99992,"velocity":0.6299212598425197},{"duration":0.45138843749998614,"durationTicks":455,"midi":52,"name":"E3","ticks":80640,"time":79.99992,"velocity":0.6299212598425197},{"duration":0.3382933124999994,"durationTicks":341,"midi":55,"name":"G3","ticks":81120,"time":80.47611,"velocity":0.6299212598425197},{"duration":0.3382933124999994,"durationTicks":341,"midi":59,"name":"B3","ticks":81120,"time":80.47611,"velocity":0.6299212598425197},{"duration":0.3382933124999994,"durationTicks":341,"midi":64,"name":"E4","ticks":81120,"time":80.47611,"velocity":0.6299212598425197},{"duration":0.3382933124999994,"durationTicks":341,"midi":67,"name":"G4","ticks":81120,"time":80.47611,"velocity":0.6299212598425197},{"duration":0.11210306250001167,"durationTicks":113,"midi":55,"name":"G3","ticks":81480,"time":80.8332525,"velocity":0.6299212598425197},{"duration":0.11210306250001167,"durationTicks":113,"midi":59,"name":"B3","ticks":81480,"time":80.8332525,"velocity":0.6299212598425197},{"duration":0.11210306250001167,"durationTicks":113,"midi":64,"name":"E4","ticks":81480,"time":80.8332525,"velocity":0.6299212598425197},{"duration":0.11210306250001167,"durationTicks":113,"midi":67,"name":"G4","ticks":81480,"time":80.8332525,"velocity":0.6299212598425197},{"duration":0.3382933125000136,"durationTicks":341,"midi":55,"name":"G3","ticks":81840,"time":81.190395,"velocity":0.6299212598425197},{"duration":0.3382933125000136,"durationTicks":341,"midi":59,"name":"B3","ticks":81840,"time":81.190395,"velocity":0.6299212598425197},{"duration":0.3382933125000136,"durationTicks":341,"midi":64,"name":"E4","ticks":81840,"time":81.190395,"velocity":0.6299212598425197},{"duration":0.3382933125000136,"durationTicks":341,"midi":67,"name":"G4","ticks":81840,"time":81.190395,"velocity":0.6299212598425197},{"duration":0.11210306249999746,"durationTicks":113,"midi":55,"name":"G3","ticks":82200,"time":81.5475375,"velocity":0.6299212598425197},{"duration":0.11210306249999746,"durationTicks":113,"midi":59,"name":"B3","ticks":82200,"time":81.5475375,"velocity":0.6299212598425197},{"duration":0.11210306249999746,"durationTicks":113,"midi":64,"name":"E4","ticks":82200,"time":81.5475375,"velocity":0.6299212598425197},{"duration":0.11210306249999746,"durationTicks":113,"midi":67,"name":"G4","ticks":82200,"time":81.5475375,"velocity":0.6299212598425197},{"duration":0.45138843750000035,"durationTicks":455,"midi":38,"name":"D2","ticks":82560,"time":81.90468,"velocity":0.6299212598425197},{"duration":0.45138843750000035,"durationTicks":455,"midi":50,"name":"D3","ticks":82560,"time":81.90468,"velocity":0.6299212598425197},{"duration":0.3382933124999994,"durationTicks":341,"midi":54,"name":"F#3","ticks":83040,"time":82.38087,"velocity":0.6299212598425197},{"duration":0.3382933124999994,"durationTicks":341,"midi":57,"name":"A3","ticks":83040,"time":82.38087,"velocity":0.6299212598425197},{"duration":0.3382933124999994,"durationTicks":341,"midi":62,"name":"D4","ticks":83040,"time":82.38087,"velocity":0.6299212598425197},{"duration":0.3382933124999994,"durationTicks":341,"midi":66,"name":"F#4","ticks":83040,"time":82.38087,"velocity":0.6299212598425197},{"duration":0.11210306250001167,"durationTicks":113,"midi":54,"name":"F#3","ticks":83400,"time":82.7380125,"velocity":0.6299212598425197},{"duration":0.11210306250001167,"durationTicks":113,"midi":57,"name":"A3","ticks":83400,"time":82.7380125,"velocity":0.6299212598425197},{"duration":0.11210306250001167,"durationTicks":113,"midi":62,"name":"D4","ticks":83400,"time":82.7380125,"velocity":0.6299212598425197},{"duration":0.11210306250001167,"durationTicks":113,"midi":66,"name":"F#4","ticks":83400,"time":82.7380125,"velocity":0.6299212598425197},{"duration":0.3382933124999994,"durationTicks":341,"midi":54,"name":"F#3","ticks":83760,"time":83.095155,"velocity":0.6299212598425197},{"duration":0.3382933124999994,"durationTicks":341,"midi":57,"name":"A3","ticks":83760,"time":83.095155,"velocity":0.6299212598425197},{"duration":0.3382933124999994,"durationTicks":341,"midi":62,"name":"D4","ticks":83760,"time":83.095155,"velocity":0.6299212598425197},{"duration":0.3382933124999994,"durationTicks":341,"midi":66,"name":"F#4","ticks":83760,"time":83.095155,"velocity":0.6299212598425197},{"duration":0.11210306250001167,"durationTicks":113,"midi":54,"name":"F#3","ticks":84120,"time":83.4522975,"velocity":0.6299212598425197},{"duration":0.11210306250001167,"durationTicks":113,"midi":57,"name":"A3","ticks":84120,"time":83.4522975,"velocity":0.6299212598425197},{"duration":0.11210306250001167,"durationTicks":113,"midi":62,"name":"D4","ticks":84120,"time":83.4522975,"velocity":0.6299212598425197},{"duration":0.11210306250001167,"durationTicks":113,"midi":66,"name":"F#4","ticks":84120,"time":83.4522975,"velocity":0.6299212598425197},{"duration":0.45138843750000035,"durationTicks":455,"midi":33,"name":"A1","ticks":84480,"time":83.80944,"velocity":0.6299212598425197},{"duration":0.45138843750000035,"durationTicks":455,"midi":45,"name":"A2","ticks":84480,"time":83.80944,"velocity":0.6299212598425197},{"duration":0.3382933124999994,"durationTicks":341,"midi":52,"name":"E3","ticks":84960,"time":84.28563,"velocity":0.6299212598425197},{"duration":0.3382933124999994,"durationTicks":341,"midi":57,"name":"A3","ticks":84960,"time":84.28563,"velocity":0.6299212598425197},{"duration":0.3382933124999994,"durationTicks":341,"midi":60,"name":"C4","ticks":84960,"time":84.28563,"velocity":0.6299212598425197},{"duration":0.3382933124999994,"durationTicks":341,"midi":64,"name":"E4","ticks":84960,"time":84.28563,"velocity":0.6299212598425197},{"duration":0.11210306249999746,"durationTicks":113,"midi":52,"name":"E3","ticks":85320,"time":84.6427725,"velocity":0.6299212598425197},{"duration":0.11210306249999746,"durationTicks":113,"midi":57,"name":"A3","ticks":85320,"time":84.6427725,"velocity":0.6299212598425197},{"duration":0.11210306249999746,"durationTicks":113,"midi":60,"name":"C4","ticks":85320,"time":84.6427725,"velocity":0.6299212598425197},{"duration":0.11210306249999746,"durationTicks":113,"midi":64,"name":"E4","ticks":85320,"time":84.6427725,"velocity":0.6299212598425197},{"duration":0.22519818749999843,"durationTicks":227,"midi":52,"name":"E3","ticks":85680,"time":84.999915,"velocity":0.6299212598425197},{"duration":0.22519818749999843,"durationTicks":227,"midi":57,"name":"A3","ticks":85680,"time":84.999915,"velocity":0.6299212598425197},{"duration":0.22519818749999843,"durationTicks":227,"midi":60,"name":"C4","ticks":85680,"time":84.999915,"velocity":0.6299212598425197},{"duration":0.22519818749999843,"durationTicks":227,"midi":64,"name":"E4","ticks":85680,"time":84.999915,"velocity":0.6299212598425197},{"duration":0.22519818749999843,"durationTicks":227,"midi":33,"name":"A1","ticks":85920,"time":85.23801,"velocity":0.6299212598425197},{"duration":0.22519818749999843,"durationTicks":227,"midi":45,"name":"A2","ticks":85920,"time":85.23801,"velocity":0.6299212598425197},{"duration":0.22519818749999843,"durationTicks":227,"midi":35,"name":"B1","ticks":86160,"time":85.476105,"velocity":0.6299212598425197},{"duration":0.22519818749999843,"durationTicks":227,"midi":47,"name":"B2","ticks":86160,"time":85.476105,"velocity":0.6299212598425197},{"duration":0.45138843749998614,"durationTicks":455,"midi":36,"name":"C2","ticks":86400,"time":85.7142,"velocity":0.6299212598425197},{"duration":0.45138843749998614,"durationTicks":455,"midi":48,"name":"C3","ticks":86400,"time":85.7142,"velocity":0.6299212598425197},{"duration":0.3382933125000136,"durationTicks":341,"midi":52,"name":"E3","ticks":86880,"time":86.19039,"velocity":0.6299212598425197},{"duration":0.3382933125000136,"durationTicks":341,"midi":55,"name":"G3","ticks":86880,"time":86.19039,"velocity":0.6299212598425197},{"duration":0.3382933125000136,"durationTicks":341,"midi":60,"name":"C4","ticks":86880,"time":86.19039,"velocity":0.6299212598425197},{"duration":0.3382933125000136,"durationTicks":341,"midi":64,"name":"E4","ticks":86880,"time":86.19039,"velocity":0.6299212598425197},{"duration":0.11210306249999746,"durationTicks":113,"midi":52,"name":"E3","ticks":87240,"time":86.5475325,"velocity":0.6299212598425197},{"duration":0.11210306249999746,"durationTicks":113,"midi":55,"name":"G3","ticks":87240,"time":86.5475325,"velocity":0.6299212598425197},{"duration":0.11210306249999746,"durationTicks":113,"midi":60,"name":"C4","ticks":87240,"time":86.5475325,"velocity":0.6299212598425197},{"duration":0.11210306249999746,"durationTicks":113,"midi":64,"name":"E4","ticks":87240,"time":86.5475325,"velocity":0.6299212598425197},{"duration":0.22519818749999843,"durationTicks":227,"midi":52,"name":"E3","ticks":87600,"time":86.904675,"velocity":0.6299212598425197},{"duration":0.22519818749999843,"durationTicks":227,"midi":55,"name":"G3","ticks":87600,"time":86.904675,"velocity":0.6299212598425197},{"duration":0.22519818749999843,"durationTicks":227,"midi":60,"name":"C4","ticks":87600,"time":86.904675,"velocity":0.6299212598425197},{"duration":0.22519818749999843,"durationTicks":227,"midi":64,"name":"E4","ticks":87600,"time":86.904675,"velocity":0.6299212598425197},{"duration":0.22519818749999843,"durationTicks":227,"midi":36,"name":"C2","ticks":87840,"time":87.14277,"velocity":0.6299212598425197},{"duration":0.22519818749999843,"durationTicks":227,"midi":48,"name":"C3","ticks":87840,"time":87.14277,"velocity":0.6299212598425197},{"duration":0.22519818749999843,"durationTicks":227,"midi":38,"name":"D2","ticks":88080,"time":87.380865,"velocity":0.6299212598425197},{"duration":0.22519818749999843,"durationTicks":227,"midi":50,"name":"D3","ticks":88080,"time":87.380865,"velocity":0.6299212598425197},{"duration":0.45138843750000035,"durationTicks":455,"midi":40,"name":"E2","ticks":88320,"time":87.61896,"velocity":0.6299212598425197},{"duration":0.45138843750000035,"durationTicks":455,"midi":52,"name":"E3","ticks":88320,"time":87.61896,"velocity":0.6299212598425197},{"duration":0.3382933124999994,"durationTicks":341,"midi":55,"name":"G3","ticks":88800,"time":88.09515,"velocity":0.6299212598425197},{"duration":0.3382933124999994,"durationTicks":341,"midi":59,"name":"B3","ticks":88800,"time":88.09515,"velocity":0.6299212598425197},{"duration":0.3382933124999994,"durationTicks":341,"midi":64,"name":"E4","ticks":88800,"time":88.09515,"velocity":0.6299212598425197},{"duration":0.3382933124999994,"durationTicks":341,"midi":67,"name":"G4","ticks":88800,"time":88.09515,"velocity":0.6299212598425197},{"duration":0.11210306250001167,"durationTicks":113,"midi":55,"name":"G3","ticks":89160,"time":88.4522925,"velocity":0.6299212598425197},{"duration":0.11210306250001167,"durationTicks":113,"midi":59,"name":"B3","ticks":89160,"time":88.4522925,"velocity":0.6299212598425197},{"duration":0.11210306250001167,"durationTicks":113,"midi":64,"name":"E4","ticks":89160,"time":88.4522925,"velocity":0.6299212598425197},{"duration":0.11210306250001167,"durationTicks":113,"midi":67,"name":"G4","ticks":89160,"time":88.4522925,"velocity":0.6299212598425197},{"duration":0.3382933125000136,"durationTicks":341,"midi":55,"name":"G3","ticks":89520,"time":88.809435,"velocity":0.6299212598425197},{"duration":0.3382933125000136,"durationTicks":341,"midi":59,"name":"B3","ticks":89520,"time":88.809435,"velocity":0.6299212598425197},{"duration":0.3382933125000136,"durationTicks":341,"midi":64,"name":"E4","ticks":89520,"time":88.809435,"velocity":0.6299212598425197},{"duration":0.3382933125000136,"durationTicks":341,"midi":67,"name":"G4","ticks":89520,"time":88.809435,"velocity":0.6299212598425197},{"duration":0.11210306249999746,"durationTicks":113,"midi":55,"name":"G3","ticks":89880,"time":89.1665775,"velocity":0.6299212598425197},{"duration":0.11210306249999746,"durationTicks":113,"midi":59,"name":"B3","ticks":89880,"time":89.1665775,"velocity":0.6299212598425197},{"duration":0.11210306249999746,"durationTicks":113,"midi":64,"name":"E4","ticks":89880,"time":89.1665775,"velocity":0.6299212598425197},{"duration":0.11210306249999746,"durationTicks":113,"midi":67,"name":"G4","ticks":89880,"time":89.1665775,"velocity":0.6299212598425197},{"duration":0.45138843750000035,"durationTicks":455,"midi":38,"name":"D2","ticks":90240,"time":89.52372,"velocity":0.6299212598425197},{"duration":0.45138843750000035,"durationTicks":455,"midi":50,"name":"D3","ticks":90240,"time":89.52372,"velocity":0.6299212598425197},{"duration":0.3382933124999994,"durationTicks":341,"midi":54,"name":"F#3","ticks":90720,"time":89.99991,"velocity":0.6299212598425197},{"duration":0.3382933124999994,"durationTicks":341,"midi":57,"name":"A3","ticks":90720,"time":89.99991,"velocity":0.6299212598425197},{"duration":0.3382933124999994,"durationTicks":341,"midi":62,"name":"D4","ticks":90720,"time":89.99991,"velocity":0.6299212598425197},{"duration":0.3382933124999994,"durationTicks":341,"midi":66,"name":"F#4","ticks":90720,"time":89.99991,"velocity":0.6299212598425197},{"duration":0.11210306250001167,"durationTicks":113,"midi":54,"name":"F#3","ticks":91080,"time":90.3570525,"velocity":0.6299212598425197},{"duration":0.11210306250001167,"durationTicks":113,"midi":57,"name":"A3","ticks":91080,"time":90.3570525,"velocity":0.6299212598425197},{"duration":0.11210306250001167,"durationTicks":113,"midi":62,"name":"D4","ticks":91080,"time":90.3570525,"velocity":0.6299212598425197},{"duration":0.11210306250001167,"durationTicks":113,"midi":66,"name":"F#4","ticks":91080,"time":90.3570525,"velocity":0.6299212598425197},{"duration":0.3382933124999994,"durationTicks":341,"midi":54,"name":"F#3","ticks":91440,"time":90.714195,"velocity":0.6299212598425197},{"duration":0.3382933124999994,"durationTicks":341,"midi":57,"name":"A3","ticks":91440,"time":90.714195,"velocity":0.6299212598425197},{"duration":0.3382933124999994,"durationTicks":341,"midi":62,"name":"D4","ticks":91440,"time":90.714195,"velocity":0.6299212598425197},{"duration":0.3382933124999994,"durationTicks":341,"midi":66,"name":"F#4","ticks":91440,"time":90.714195,"velocity":0.6299212598425197},{"duration":0.11210306250001167,"durationTicks":113,"midi":54,"name":"F#3","ticks":91800,"time":91.0713375,"velocity":0.6299212598425197},{"duration":0.11210306250001167,"durationTicks":113,"midi":57,"name":"A3","ticks":91800,"time":91.0713375,"velocity":0.6299212598425197},{"duration":0.11210306250001167,"durationTicks":113,"midi":62,"name":"D4","ticks":91800,"time":91.0713375,"velocity":0.6299212598425197},{"duration":0.11210306250001167,"durationTicks":113,"midi":66,"name":"F#4","ticks":91800,"time":91.0713375,"velocity":0.6299212598425197},{"duration":0.23710293749999778,"durationTicks":239,"midi":81,"name":"A5","ticks":92160,"time":91.42848000000001,"velocity":0.6299212598425197},{"duration":0.22519818749999843,"durationTicks":227,"midi":81,"name":"A5","ticks":92400,"time":91.666575,"velocity":0.6299212598425197},{"duration":0.3382933125000136,"durationTicks":341,"midi":52,"name":"E3","ticks":92640,"time":91.90467,"velocity":0.6299212598425197},{"duration":0.3382933125000136,"durationTicks":341,"midi":57,"name":"A3","ticks":92640,"time":91.90467,"velocity":0.6299212598425197},{"duration":0.3382933125000136,"durationTicks":341,"midi":60,"name":"C4","ticks":92640,"time":91.90467,"velocity":0.6299212598425197},{"duration":0.3382933125000136,"durationTicks":341,"midi":64,"name":"E4","ticks":92640,"time":91.90467,"velocity":0.6299212598425197},{"duration":0.3382933124999994,"durationTicks":341,"midi":52,"name":"E3","ticks":93000,"time":92.2618125,"velocity":0.6299212598425197},{"duration":0.3382933124999994,"durationTicks":341,"midi":57,"name":"A3","ticks":93000,"time":92.2618125,"velocity":0.6299212598425197},{"duration":0.3382933124999994,"durationTicks":341,"midi":60,"name":"C4","ticks":93000,"time":92.2618125,"velocity":0.6299212598425197},{"duration":0.3382933124999994,"durationTicks":341,"midi":64,"name":"E4","ticks":93000,"time":92.2618125,"velocity":0.6299212598425197},{"duration":0.22519818749999843,"durationTicks":227,"midi":52,"name":"E3","ticks":93360,"time":92.618955,"velocity":0.6299212598425197},{"duration":0.22519818749999843,"durationTicks":227,"midi":57,"name":"A3","ticks":93360,"time":92.618955,"velocity":0.6299212598425197},{"duration":0.22519818749999843,"durationTicks":227,"midi":60,"name":"C4","ticks":93360,"time":92.618955,"velocity":0.6299212598425197},{"duration":0.22519818749999843,"durationTicks":227,"midi":64,"name":"E4","ticks":93360,"time":92.618955,"velocity":0.6299212598425197},{"duration":0.22519818749999843,"durationTicks":227,"midi":33,"name":"A1","ticks":93600,"time":92.85705,"velocity":0.6299212598425197},{"duration":0.22519818749999843,"durationTicks":227,"midi":45,"name":"A2","ticks":93600,"time":92.85705,"velocity":0.6299212598425197},{"duration":0.22519818749999843,"durationTicks":227,"midi":35,"name":"B1","ticks":93840,"time":93.095145,"velocity":0.6299212598425197},{"duration":0.22519818749999843,"durationTicks":227,"midi":47,"name":"B2","ticks":93840,"time":93.095145,"velocity":0.6299212598425197},{"duration":0.45138843749998614,"durationTicks":455,"midi":36,"name":"C2","ticks":94080,"time":93.33324,"velocity":0.6299212598425197},{"duration":0.45138843749998614,"durationTicks":455,"midi":48,"name":"C3","ticks":94080,"time":93.33324,"velocity":0.6299212598425197},{"duration":0.3382933124999994,"durationTicks":341,"midi":52,"name":"E3","ticks":94560,"time":93.80943,"velocity":0.6299212598425197},{"duration":0.3382933124999994,"durationTicks":341,"midi":55,"name":"G3","ticks":94560,"time":93.80943,"velocity":0.6299212598425197},{"duration":0.3382933124999994,"durationTicks":341,"midi":60,"name":"C4","ticks":94560,"time":93.80943,"velocity":0.6299212598425197},{"duration":0.3382933124999994,"durationTicks":341,"midi":64,"name":"E4","ticks":94560,"time":93.80943,"velocity":0.6299212598425197},{"duration":0.3382933124999994,"durationTicks":341,"midi":52,"name":"E3","ticks":94920,"time":94.1665725,"velocity":0.6299212598425197},{"duration":0.3382933124999994,"durationTicks":341,"midi":55,"name":"G3","ticks":94920,"time":94.1665725,"velocity":0.6299212598425197},{"duration":0.3382933124999994,"durationTicks":341,"midi":60,"name":"C4","ticks":94920,"time":94.1665725,"velocity":0.6299212598425197},{"duration":0.3382933124999994,"durationTicks":341,"midi":64,"name":"E4","ticks":94920,"time":94.1665725,"velocity":0.6299212598425197},{"duration":0.22519818749999843,"durationTicks":227,"midi":52,"name":"E3","ticks":95280,"time":94.523715,"velocity":0.6299212598425197},{"duration":0.22519818749999843,"durationTicks":227,"midi":55,"name":"G3","ticks":95280,"time":94.523715,"velocity":0.6299212598425197},{"duration":0.22519818749999843,"durationTicks":227,"midi":60,"name":"C4","ticks":95280,"time":94.523715,"velocity":0.6299212598425197},{"duration":0.22519818749999843,"durationTicks":227,"midi":64,"name":"E4","ticks":95280,"time":94.523715,"velocity":0.6299212598425197},{"duration":0.22519818749999843,"durationTicks":227,"midi":52,"name":"E3","ticks":95520,"time":94.76181,"velocity":0.6299212598425197},{"duration":0.22519818749999843,"durationTicks":227,"midi":60,"name":"C4","ticks":95520,"time":94.76181,"velocity":0.6299212598425197},{"duration":0.22519818749999843,"durationTicks":227,"midi":64,"name":"E4","ticks":95520,"time":94.76181,"velocity":0.6299212598425197},{"duration":0.22519818749999843,"durationTicks":227,"midi":54,"name":"F#3","ticks":95760,"time":94.999905,"velocity":0.6299212598425197},{"duration":0.22519818749999843,"durationTicks":227,"midi":62,"name":"D4","ticks":95760,"time":94.999905,"velocity":0.6299212598425197},{"duration":0.22519818749999843,"durationTicks":227,"midi":66,"name":"F#4","ticks":95760,"time":94.999905,"velocity":0.6299212598425197},{"duration":0.45138843750000035,"durationTicks":455,"midi":55,"name":"G3","ticks":96000,"time":95.238,"velocity":0.6299212598425197},{"duration":0.45138843750000035,"durationTicks":455,"midi":64,"name":"E4","ticks":96000,"time":95.238,"velocity":0.6299212598425197},{"duration":0.45138843750000035,"durationTicks":455,"midi":67,"name":"G4","ticks":96000,"time":95.238,"velocity":0.6299212598425197},{"duration":0.3382933124999994,"durationTicks":341,"midi":40,"name":"E2","ticks":96480,"time":95.71419,"velocity":0.6299212598425197},{"duration":0.3382933124999994,"durationTicks":341,"midi":52,"name":"E3","ticks":96480,"time":95.71419,"velocity":0.6299212598425197},{"duration":0.3382933125000136,"durationTicks":341,"midi":55,"name":"G3","ticks":96840,"time":96.0713325,"velocity":0.6299212598425197},{"duration":0.3382933125000136,"durationTicks":341,"midi":59,"name":"B3","ticks":96840,"time":96.0713325,"velocity":0.6299212598425197},{"duration":0.3382933125000136,"durationTicks":341,"midi":64,"name":"E4","ticks":96840,"time":96.0713325,"velocity":0.6299212598425197},{"duration":0.35019806250001295,"durationTicks":353,"midi":67,"name":"G4","ticks":96840,"time":96.0713325,"velocity":0.6299212598425197},{"duration":0.22519818749999843,"durationTicks":227,"midi":55,"name":"G3","ticks":97200,"time":96.428475,"velocity":0.6299212598425197},{"duration":0.22519818749999843,"durationTicks":227,"midi":59,"name":"B3","ticks":97200,"time":96.428475,"velocity":0.6299212598425197},{"duration":0.22519818749999843,"durationTicks":227,"midi":64,"name":"E4","ticks":97200,"time":96.428475,"velocity":0.6299212598425197},{"duration":0.22519818749999843,"durationTicks":227,"midi":67,"name":"G4","ticks":97200,"time":96.428475,"velocity":0.6299212598425197},{"duration":0.22519818749999843,"durationTicks":227,"midi":55,"name":"G3","ticks":97440,"time":96.66657000000001,"velocity":0.6299212598425197},{"duration":0.22519818749999843,"durationTicks":227,"midi":64,"name":"E4","ticks":97440,"time":96.66657000000001,"velocity":0.6299212598425197},{"duration":0.22519818749999843,"durationTicks":227,"midi":67,"name":"G4","ticks":97440,"time":96.66657000000001,"velocity":0.6299212598425197},{"duration":0.22519818749999843,"durationTicks":227,"midi":57,"name":"A3","ticks":97680,"time":96.904665,"velocity":0.6299212598425197},{"duration":0.22519818749999843,"durationTicks":227,"midi":66,"name":"F#4","ticks":97680,"time":96.904665,"velocity":0.6299212598425197},{"duration":0.22519818749999843,"durationTicks":227,"midi":69,"name":"A4","ticks":97680,"time":96.904665,"velocity":0.6299212598425197},{"duration":0.45138843750000035,"durationTicks":455,"midi":54,"name":"F#3","ticks":97920,"time":97.14276,"velocity":0.6299212598425197},{"duration":0.45138843750000035,"durationTicks":455,"midi":62,"name":"D4","ticks":97920,"time":97.14276,"velocity":0.6299212598425197},{"duration":0.45138843750000035,"durationTicks":455,"midi":66,"name":"F#4","ticks":97920,"time":97.14276,"velocity":0.6299212598425197},{"duration":0.3382933124999994,"durationTicks":341,"midi":38,"name":"D2","ticks":98400,"time":97.61895,"velocity":0.6299212598425197},{"duration":0.3382933124999994,"durationTicks":341,"midi":50,"name":"D3","ticks":98400,"time":97.61895,"velocity":0.6299212598425197},{"duration":0.11210306249999746,"durationTicks":113,"midi":54,"name":"F#3","ticks":98760,"time":97.97609250000001,"velocity":0.6299212598425197},{"duration":0.11210306249999746,"durationTicks":113,"midi":57,"name":"A3","ticks":98760,"time":97.97609250000001,"velocity":0.6299212598425197},{"duration":0.11210306249999746,"durationTicks":113,"midi":62,"name":"D4","ticks":98760,"time":97.97609250000001,"velocity":0.6299212598425197},{"duration":0.11210306249999746,"durationTicks":113,"midi":66,"name":"F#4","ticks":98760,"time":97.97609250000001,"velocity":0.6299212598425197},{"duration":0.22519818749999843,"durationTicks":227,"midi":54,"name":"F#3","ticks":99120,"time":98.333235,"velocity":0.6299212598425197},{"duration":0.22519818749999843,"durationTicks":227,"midi":57,"name":"A3","ticks":99120,"time":98.333235,"velocity":0.6299212598425197},{"duration":0.22519818749999843,"durationTicks":227,"midi":62,"name":"D4","ticks":99120,"time":98.333235,"velocity":0.6299212598425197},{"duration":0.22519818749999843,"durationTicks":227,"midi":66,"name":"F#4","ticks":99120,"time":98.333235,"velocity":0.6299212598425197},{"duration":0.22519818749999843,"durationTicks":227,"midi":54,"name":"F#3","ticks":99600,"time":98.809425,"velocity":0.6299212598425197},{"duration":0.22519818749999843,"durationTicks":227,"midi":57,"name":"A3","ticks":99600,"time":98.809425,"velocity":0.6299212598425197},{"duration":0.22519818749999843,"durationTicks":227,"midi":62,"name":"D4","ticks":99600,"time":98.809425,"velocity":0.6299212598425197},{"duration":0.22519818749999843,"durationTicks":227,"midi":66,"name":"F#4","ticks":99600,"time":98.809425,"velocity":0.6299212598425197},{"duration":0.23710293749999778,"durationTicks":239,"midi":81,"name":"A5","ticks":99840,"time":99.04752,"velocity":0.6299212598425197},{"duration":0.22519818749999843,"durationTicks":227,"midi":81,"name":"A5","ticks":100080,"time":99.285615,"velocity":0.6299212598425197},{"duration":0.3382933125000136,"durationTicks":341,"midi":52,"name":"E3","ticks":100320,"time":99.52371,"velocity":0.6299212598425197},{"duration":0.3382933125000136,"durationTicks":341,"midi":57,"name":"A3","ticks":100320,"time":99.52371,"velocity":0.6299212598425197},{"duration":0.3382933125000136,"durationTicks":341,"midi":60,"name":"C4","ticks":100320,"time":99.52371,"velocity":0.6299212598425197},{"duration":0.3382933125000136,"durationTicks":341,"midi":64,"name":"E4","ticks":100320,"time":99.52371,"velocity":0.6299212598425197},{"duration":0.3382933124999994,"durationTicks":341,"midi":52,"name":"E3","ticks":100680,"time":99.8808525,"velocity":0.6299212598425197},{"duration":0.3382933124999994,"durationTicks":341,"midi":57,"name":"A3","ticks":100680,"time":99.8808525,"velocity":0.6299212598425197},{"duration":0.3382933124999994,"durationTicks":341,"midi":60,"name":"C4","ticks":100680,"time":99.8808525,"velocity":0.6299212598425197},{"duration":0.3382933124999994,"durationTicks":341,"midi":64,"name":"E4","ticks":100680,"time":99.8808525,"velocity":0.6299212598425197},{"duration":0.22519818749999843,"durationTicks":227,"midi":52,"name":"E3","ticks":101040,"time":100.237995,"velocity":0.6299212598425197},{"duration":0.22519818749999843,"durationTicks":227,"midi":57,"name":"A3","ticks":101040,"time":100.237995,"velocity":0.6299212598425197},{"duration":0.22519818749999843,"durationTicks":227,"midi":60,"name":"C4","ticks":101040,"time":100.237995,"velocity":0.6299212598425197},{"duration":0.22519818749999843,"durationTicks":227,"midi":33,"name":"A1","ticks":101280,"time":100.47609,"velocity":0.6299212598425197},{"duration":0.22519818749999843,"durationTicks":227,"midi":45,"name":"A2","ticks":101280,"time":100.47609,"velocity":0.6299212598425197},{"duration":0.22519818749999843,"durationTicks":227,"midi":35,"name":"B1","ticks":101520,"time":100.714185,"velocity":0.6299212598425197},{"duration":0.22519818749999843,"durationTicks":227,"midi":47,"name":"B2","ticks":101520,"time":100.714185,"velocity":0.6299212598425197},{"duration":0.45138843750000035,"durationTicks":455,"midi":36,"name":"C2","ticks":101760,"time":100.95228,"velocity":0.6299212598425197},{"duration":0.45138843750000035,"durationTicks":455,"midi":48,"name":"C3","ticks":101760,"time":100.95228,"velocity":0.6299212598425197},{"duration":0.3382933124999994,"durationTicks":341,"midi":52,"name":"E3","ticks":102240,"time":101.42847,"velocity":0.6299212598425197},{"duration":0.3382933124999994,"durationTicks":341,"midi":55,"name":"G3","ticks":102240,"time":101.42847,"velocity":0.6299212598425197},{"duration":0.3382933124999994,"durationTicks":341,"midi":60,"name":"C4","ticks":102240,"time":101.42847,"velocity":0.6299212598425197},{"duration":0.3382933124999994,"durationTicks":341,"midi":64,"name":"E4","ticks":102240,"time":101.42847,"velocity":0.6299212598425197},{"duration":0.3382933124999994,"durationTicks":341,"midi":52,"name":"E3","ticks":102600,"time":101.7856125,"velocity":0.6299212598425197},{"duration":0.3382933124999994,"durationTicks":341,"midi":55,"name":"G3","ticks":102600,"time":101.7856125,"velocity":0.6299212598425197},{"duration":0.3382933124999994,"durationTicks":341,"midi":60,"name":"C4","ticks":102600,"time":101.7856125,"velocity":0.6299212598425197},{"duration":0.3382933124999994,"durationTicks":341,"midi":64,"name":"E4","ticks":102600,"time":101.7856125,"velocity":0.6299212598425197},{"duration":0.22519818749999843,"durationTicks":227,"midi":52,"name":"E3","ticks":102960,"time":102.142755,"velocity":0.6299212598425197},{"duration":0.22519818749999843,"durationTicks":227,"midi":55,"name":"G3","ticks":102960,"time":102.142755,"velocity":0.6299212598425197},{"duration":0.22519818749999843,"durationTicks":227,"midi":60,"name":"C4","ticks":102960,"time":102.142755,"velocity":0.6299212598425197},{"duration":0.22519818749999843,"durationTicks":227,"midi":64,"name":"E4","ticks":102960,"time":102.142755,"velocity":0.6299212598425197},{"duration":0.22519818749999843,"durationTicks":227,"midi":52,"name":"E3","ticks":103200,"time":102.38085,"velocity":0.6299212598425197},{"duration":0.22519818749999843,"durationTicks":227,"midi":60,"name":"C4","ticks":103200,"time":102.38085,"velocity":0.6299212598425197},{"duration":0.22519818749999843,"durationTicks":227,"midi":64,"name":"E4","ticks":103200,"time":102.38085,"velocity":0.6299212598425197},{"duration":0.22519818749999843,"durationTicks":227,"midi":54,"name":"F#3","ticks":103440,"time":102.618945,"velocity":0.6299212598425197},{"duration":0.22519818749999843,"durationTicks":227,"midi":62,"name":"D4","ticks":103440,"time":102.618945,"velocity":0.6299212598425197},{"duration":0.22519818749999843,"durationTicks":227,"midi":66,"name":"F#4","ticks":103440,"time":102.618945,"velocity":0.6299212598425197},{"duration":0.45138843750000035,"durationTicks":455,"midi":55,"name":"G3","ticks":103680,"time":102.85704,"velocity":0.6299212598425197},{"duration":0.45138843750000035,"durationTicks":455,"midi":64,"name":"E4","ticks":103680,"time":102.85704,"velocity":0.6299212598425197},{"duration":0.45138843750000035,"durationTicks":455,"midi":67,"name":"G4","ticks":103680,"time":102.85704,"velocity":0.6299212598425197},{"duration":0.3382933124999994,"durationTicks":341,"midi":40,"name":"E2","ticks":104160,"time":103.33323,"velocity":0.6299212598425197},{"duration":0.3382933124999994,"durationTicks":341,"midi":52,"name":"E3","ticks":104160,"time":103.33323,"velocity":0.6299212598425197},{"duration":0.3382933125000136,"durationTicks":341,"midi":55,"name":"G3","ticks":104520,"time":103.6903725,"velocity":0.6299212598425197},{"duration":0.3382933125000136,"durationTicks":341,"midi":59,"name":"B3","ticks":104520,"time":103.6903725,"velocity":0.6299212598425197},{"duration":0.3382933125000136,"durationTicks":341,"midi":64,"name":"E4","ticks":104520,"time":103.6903725,"velocity":0.6299212598425197},{"duration":0.35019806250001295,"durationTicks":353,"midi":67,"name":"G4","ticks":104520,"time":103.6903725,"velocity":0.6299212598425197},{"duration":0.22519818749999843,"durationTicks":227,"midi":55,"name":"G3","ticks":104880,"time":104.047515,"velocity":0.6299212598425197},{"duration":0.22519818749999843,"durationTicks":227,"midi":59,"name":"B3","ticks":104880,"time":104.047515,"velocity":0.6299212598425197},{"duration":0.22519818749999843,"durationTicks":227,"midi":64,"name":"E4","ticks":104880,"time":104.047515,"velocity":0.6299212598425197},{"duration":0.22519818749999843,"durationTicks":227,"midi":67,"name":"G4","ticks":104880,"time":104.047515,"velocity":0.6299212598425197},{"duration":0.22519818749999843,"durationTicks":227,"midi":55,"name":"G3","ticks":105120,"time":104.28561,"velocity":0.6299212598425197},{"duration":0.22519818749999843,"durationTicks":227,"midi":64,"name":"E4","ticks":105120,"time":104.28561,"velocity":0.6299212598425197},{"duration":0.22519818749999843,"durationTicks":227,"midi":67,"name":"G4","ticks":105120,"time":104.28561,"velocity":0.6299212598425197},{"duration":0.22519818749999843,"durationTicks":227,"midi":57,"name":"A3","ticks":105360,"time":104.523705,"velocity":0.6299212598425197},{"duration":0.22519818749999843,"durationTicks":227,"midi":66,"name":"F#4","ticks":105360,"time":104.523705,"velocity":0.6299212598425197},{"duration":0.22519818749999843,"durationTicks":227,"midi":69,"name":"A4","ticks":105360,"time":104.523705,"velocity":0.6299212598425197},{"duration":0.45138843750000035,"durationTicks":455,"midi":54,"name":"F#3","ticks":105600,"time":104.7618,"velocity":0.6299212598425197},{"duration":0.45138843750000035,"durationTicks":455,"midi":62,"name":"D4","ticks":105600,"time":104.7618,"velocity":0.6299212598425197},{"duration":0.45138843750000035,"durationTicks":455,"midi":66,"name":"F#4","ticks":105600,"time":104.7618,"velocity":0.6299212598425197},{"duration":0.3382933125000136,"durationTicks":341,"midi":38,"name":"D2","ticks":106080,"time":105.23799,"velocity":0.6299212598425197},{"duration":0.3382933125000136,"durationTicks":341,"midi":50,"name":"D3","ticks":106080,"time":105.23799,"velocity":0.6299212598425197},{"duration":0.11210306249999746,"durationTicks":113,"midi":38,"name":"D2","ticks":106440,"time":105.5951325,"velocity":0.6299212598425197},{"duration":0.11210306249999746,"durationTicks":113,"midi":50,"name":"D3","ticks":106440,"time":105.5951325,"velocity":0.6299212598425197}]}]}