{
  "header": {
    "title": "Feel Special",
    "artist": "Twice",
    "source": "https://musescore.com/user/33017358/scores/5733304",
    "bpm": 129.00007740004645,
    "duration": 202.60356060833448
  },
  "tracks": [
    {
      "instrument_number": 0,
      "notes": [
        {
          "name": "F4",
          "midi": 65,
          "time": 0.6976739999999999,
          "velocity": 0.6299212598425197,
          "duration": 0.21996110833333327
        },
        {
          "name": "F5",
          "midi": 77,
          "time": 0.6976739999999999,
          "velocity": 0.6299212598425197,
          "duration": 0.21996110833333327
        },
        {
          "name": "G#4",
          "midi": 68,
          "time": 0.9302319999999998,
          "velocity": 0.6299212598425197,
          "duration": 0.21996110833333338
        },
        {
          "name": "G#5",
          "midi": 80,
          "time": 0.9302319999999998,
          "velocity": 0.6299212598425197,
          "duration": 0.21996110833333338
        },
        {
          "name": "A#4",
          "midi": 70,
          "time": 1.16279,
          "velocity": 0.6299212598425197,
          "duration": 0.21996110833333327
        },
        {
          "name": "A#5",
          "midi": 82,
          "time": 1.16279,
          "velocity": 0.6299212598425197,
          "duration": 0.21996110833333327
        },
        {
          "name": "C5",
          "midi": 72,
          "time": 1.395348,
          "velocity": 0.6299212598425197,
          "duration": 0.4408912083333332
        },
        {
          "name": "C6",
          "midi": 84,
          "time": 1.395348,
          "velocity": 0.6299212598425197,
          "duration": 0.4408912083333332
        },
        {
          "name": "F4",
          "midi": 65,
          "time": 4.418602,
          "velocity": 0.6299212598425197,
          "duration": 0.21996110833333304
        },
        {
          "name": "F5",
          "midi": 77,
          "time": 4.418602,
          "velocity": 0.6299212598425197,
          "duration": 0.21996110833333304
        },
        {
          "name": "G#4",
          "midi": 68,
          "time": 4.65116,
          "velocity": 0.6299212598425197,
          "duration": 0.21996110833333304
        },
        {
          "name": "G#5",
          "midi": 80,
          "time": 4.65116,
          "velocity": 0.6299212598425197,
          "duration": 0.21996110833333304
        },
        {
          "name": "D#5",
          "midi": 75,
          "time": 4.883718,
          "velocity": 0.6299212598425197,
          "duration": 0.21996110833333304
        },
        {
          "name": "D#6",
          "midi": 87,
          "time": 4.883718,
          "velocity": 0.6299212598425197,
          "duration": 0.21996110833333304
        },
        {
          "name": "F5",
          "midi": 77,
          "time": 5.116276,
          "velocity": 0.6299212598425197,
          "duration": 0.4408912083333334
        },
        {
          "name": "C6",
          "midi": 84,
          "time": 5.116276,
          "velocity": 0.6299212598425197,
          "duration": 0.4408912083333334
        },
        {
          "name": "G#4",
          "midi": 68,
          "time": 6.279066,
          "velocity": 0.6299212598425197,
          "duration": 0.4525191083333331
        },
        {
          "name": "D#5",
          "midi": 75,
          "time": 6.279066,
          "velocity": 0.6299212598425197,
          "duration": 0.21996110833333304
        },
        {
          "name": "G#4",
          "midi": 68,
          "time": 6.511624,
          "velocity": 0.6299212598425197,
          "duration": 2.0804251083333325
        },
        {
          "name": "D#5",
          "midi": 75,
          "time": 6.511624,
          "velocity": 0.6299212598425197,
          "duration": 0.21996110833333304
        },
        {
          "name": "A#4",
          "midi": 70,
          "time": 6.744182,
          "velocity": 0.6299212598425197,
          "duration": 0.21996110833333304
        },
        {
          "name": "F5",
          "midi": 77,
          "time": 6.744182,
          "velocity": 0.6299212598425197,
          "duration": 0.21996110833333304
        },
        {
          "name": "C5",
          "midi": 72,
          "time": 6.97674,
          "velocity": 0.6299212598425197,
          "duration": 0.4408912083333334
        },
        {
          "name": "G#5",
          "midi": 80,
          "time": 6.97674,
          "velocity": 0.6299212598425197,
          "duration": 0.4408912083333334
        },
        {
          "name": "C5",
          "midi": 72,
          "time": 7.4418560000000005,
          "velocity": 0.6299212598425197,
          "duration": 0.3304261583333332
        },
        {
          "name": "C6",
          "midi": 84,
          "time": 7.4418560000000005,
          "velocity": 0.6299212598425197,
          "duration": 0.3304261583333332
        },
        {
          "name": "C5",
          "midi": 72,
          "time": 7.790693,
          "velocity": 0.6299212598425197,
          "duration": 0.21996110833333393
        },
        {
          "name": "C6",
          "midi": 84,
          "time": 7.790693,
          "velocity": 0.6299212598425197,
          "duration": 0.21996110833333393
        },
        {
          "name": "F4",
          "midi": 65,
          "time": 8.13953,
          "velocity": 0.6299212598425197,
          "duration": 0.21996110833333304
        },
        {
          "name": "F5",
          "midi": 77,
          "time": 8.13953,
          "velocity": 0.6299212598425197,
          "duration": 0.21996110833333304
        },
        {
          "name": "G#4",
          "midi": 68,
          "time": 8.372088,
          "velocity": 0.6299212598425197,
          "duration": 3.94088910833333
        },
        {
          "name": "G#5",
          "midi": 80,
          "time": 8.372088,
          "velocity": 0.6299212598425197,
          "duration": 0.21996110833333304
        },
        {
          "name": "A#4",
          "midi": 70,
          "time": 8.604645999999999,
          "velocity": 0.6299212598425197,
          "duration": 0.21996110833333304
        },
        {
          "name": "A#5",
          "midi": 82,
          "time": 8.604645999999999,
          "velocity": 0.6299212598425197,
          "duration": 0.21996110833333304
        },
        {
          "name": "C5",
          "midi": 72,
          "time": 8.837203999999998,
          "velocity": 0.6299212598425197,
          "duration": 0.4408912083333334
        },
        {
          "name": "C6",
          "midi": 84,
          "time": 8.837203999999998,
          "velocity": 0.6299212598425197,
          "duration": 0.4408912083333334
        },
        {
          "name": "F4",
          "midi": 65,
          "time": 11.860457999999998,
          "velocity": 0.6299212598425197,
          "duration": 0.21996110833333304
        },
        {
          "name": "F5",
          "midi": 77,
          "time": 11.860457999999998,
          "velocity": 0.6299212598425197,
          "duration": 0.21996110833333304
        },
        {
          "name": "G#4",
          "midi": 68,
          "time": 12.093015999999997,
          "velocity": 0.6299212598425197,
          "duration": 10.562978158333346
        },
        {
          "name": "G#5",
          "midi": 80,
          "time": 12.093015999999997,
          "velocity": 0.6299212598425197,
          "duration": 0.21996110833333304
        },
        {
          "name": "D#5",
          "midi": 75,
          "time": 12.325573999999996,
          "velocity": 0.6299212598425197,
          "duration": 0.21996110833333304
        },
        {
          "name": "D#6",
          "midi": 87,
          "time": 12.325573999999996,
          "velocity": 0.6299212598425197,
          "duration": 0.21996110833333304
        },
        {
          "name": "F5",
          "midi": 77,
          "time": 12.558131999999995,
          "velocity": 0.6299212598425197,
          "duration": 0.4408912083333334
        },
        {
          "name": "C6",
          "midi": 84,
          "time": 12.558131999999995,
          "velocity": 0.6299212598425197,
          "duration": 0.4408912083333334
        },
        {
          "name": "D#5",
          "midi": 75,
          "time": 13.953479999999995,
          "velocity": 0.6299212598425197,
          "duration": 0.21996110833333304
        },
        {
          "name": "G#5",
          "midi": 80,
          "time": 13.953479999999995,
          "velocity": 0.6299212598425197,
          "duration": 0.21996110833333304
        },
        {
          "name": "C5",
          "midi": 72,
          "time": 14.186037999999995,
          "velocity": 0.6299212598425197,
          "duration": 0.10949605833333287
        },
        {
          "name": "F5",
          "midi": 77,
          "time": 14.186037999999995,
          "velocity": 0.6299212598425197,
          "duration": 0.10949605833333287
        },
        {
          "name": "C5",
          "midi": 72,
          "time": 14.302316999999993,
          "velocity": 0.6299212598425197,
          "duration": 0.10949605833333287
        },
        {
          "name": "F5",
          "midi": 77,
          "time": 14.302316999999993,
          "velocity": 0.6299212598425197,
          "duration": 0.10949605833333287
        },
        {
          "name": "A#4",
          "midi": 70,
          "time": 14.418595999999992,
          "velocity": 0.6299212598425197,
          "duration": 0.21996110833333304
        },
        {
          "name": "D#5",
          "midi": 75,
          "time": 14.418595999999992,
          "velocity": 0.6299212598425197,
          "duration": 0.21996110833333304
        },
        {
          "name": "C5",
          "midi": 72,
          "time": 14.651153999999991,
          "velocity": 0.6299212598425197,
          "duration": 0.4408912083333334
        },
        {
          "name": "F5",
          "midi": 77,
          "time": 14.651153999999991,
          "velocity": 0.6299212598425197,
          "duration": 0.4408912083333334
        },
        {
          "name": "F5",
          "midi": 77,
          "time": 16.27905999999999,
          "velocity": 0.6299212598425197,
          "duration": 0.21996110833333304
        },
        {
          "name": "C#5",
          "midi": 73,
          "time": 16.27905999999999,
          "velocity": 0.6299212598425197,
          "duration": 0.44089120833333695
        },
        {
          "name": "F5",
          "midi": 77,
          "time": 16.51161799999999,
          "velocity": 0.6299212598425197,
          "duration": 0.10949605833333464
        },
        {
          "name": "F5",
          "midi": 77,
          "time": 16.627896999999994,
          "velocity": 0.6299212598425197,
          "duration": 0.330426158333335
        },
        {
          "name": "C5",
          "midi": 72,
          "time": 16.976733999999997,
          "velocity": 0.6299212598425197,
          "duration": 0.330426158333335
        },
        {
          "name": "E5",
          "midi": 76,
          "time": 16.976733999999997,
          "velocity": 0.6299212598425197,
          "duration": 0.330426158333335
        },
        {
          "name": "A#4",
          "midi": 70,
          "time": 17.325571,
          "velocity": 0.6299212598425197,
          "duration": 0.10949605833333464
        },
        {
          "name": "E5",
          "midi": 76,
          "time": 17.325571,
          "velocity": 0.6299212598425197,
          "duration": 0.10949605833333464
        },
        {
          "name": "C5",
          "midi": 72,
          "time": 17.441850000000002,
          "velocity": 0.6299212598425197,
          "duration": 0.21996110833333304
        },
        {
          "name": "E5",
          "midi": 76,
          "time": 17.441850000000002,
          "velocity": 0.6299212598425197,
          "duration": 0.21996110833333304
        },
        {
          "name": "A#4",
          "midi": 70,
          "time": 17.906966,
          "velocity": 0.6299212598425197,
          "duration": 0.21996110833333304
        },
        {
          "name": "F5",
          "midi": 77,
          "time": 17.906966,
          "velocity": 0.6299212598425197,
          "duration": 0.21996110833333304
        },
        {
          "name": "A#4",
          "midi": 70,
          "time": 18.139524,
          "velocity": 0.6299212598425197,
          "duration": 0.21996110833333304
        },
        {
          "name": "G5",
          "midi": 79,
          "time": 18.139524,
          "velocity": 0.6299212598425197,
          "duration": 0.21996110833333304
        },
        {
          "name": "C5",
          "midi": 72,
          "time": 18.372082000000002,
          "velocity": 0.6299212598425197,
          "duration": 0.4408912083333334
        },
        {
          "name": "G#5",
          "midi": 80,
          "time": 18.372082000000002,
          "velocity": 0.6299212598425197,
          "duration": 0.4408912083333334
        },
        {
          "name": "D#5",
          "midi": 75,
          "time": 19.76743,
          "velocity": 0.6299212598425197,
          "duration": 0.4408912083333334
        },
        {
          "name": "G#5",
          "midi": 80,
          "time": 19.76743,
          "velocity": 0.6299212598425197,
          "duration": 0.21996110833333304
        },
        {
          "name": "G#5",
          "midi": 80,
          "time": 19.999988000000002,
          "velocity": 0.6299212598425197,
          "duration": 0.21996110833333304
        },
        {
          "name": "D#5",
          "midi": 75,
          "time": 20.232546000000003,
          "velocity": 0.6299212598425197,
          "duration": 0.4408912083333334
        },
        {
          "name": "G#5",
          "midi": 80,
          "time": 20.232546000000003,
          "velocity": 0.6299212598425197,
          "duration": 0.4408912083333334
        },
        {
          "name": "C#5",
          "midi": 73,
          "time": 20.697662,
          "velocity": 0.6299212598425197,
          "duration": 0.10949605833333464
        },
        {
          "name": "F#5",
          "midi": 78,
          "time": 20.697662,
          "velocity": 0.6299212598425197,
          "duration": 0.10949605833333464
        },
        {
          "name": "C#5",
          "midi": 73,
          "time": 20.813941000000003,
          "velocity": 0.6299212598425197,
          "duration": 0.21996110833333304
        },
        {
          "name": "F#5",
          "midi": 78,
          "time": 20.813941000000003,
          "velocity": 0.6299212598425197,
          "duration": 0.21996110833333304
        },
        {
          "name": "C#5",
          "midi": 73,
          "time": 21.046499000000004,
          "velocity": 0.6299212598425197,
          "duration": 0.10949605833333464
        },
        {
          "name": "F#5",
          "midi": 78,
          "time": 21.046499000000004,
          "velocity": 0.6299212598425197,
          "duration": 0.10949605833333464
        },
        {
          "name": "F5",
          "midi": 77,
          "time": 21.162778000000007,
          "velocity": 0.6299212598425197,
          "duration": 0.6618213083333302
        },
        {
          "name": "A#5",
          "midi": 82,
          "time": 21.162778000000007,
          "velocity": 0.6299212598425197,
          "duration": 0.4408912083333334
        },
        {
          "name": "G#5",
          "midi": 80,
          "time": 21.627894000000005,
          "velocity": 0.6299212598425197,
          "duration": 0.21996110833333304
        },
        {
          "name": "C#5",
          "midi": 73,
          "time": 21.860452000000006,
          "velocity": 0.6299212598425197,
          "duration": 0.4408912083333334
        },
        {
          "name": "F#5",
          "midi": 78,
          "time": 21.860452000000006,
          "velocity": 0.6299212598425197,
          "duration": 0.21996110833333304
        },
        {
          "name": "F#5",
          "midi": 78,
          "time": 22.093010000000007,
          "velocity": 0.6299212598425197,
          "duration": 0.21996110833333304
        },
        {
          "name": "G#4",
          "midi": 68,
          "time": 22.325568000000008,
          "velocity": 0.6299212598425197,
          "duration": 1.8536810583333398
        },
        {
          "name": "F5",
          "midi": 77,
          "time": 22.325568000000008,
          "velocity": 0.6299212598425197,
          "duration": 0.330426158333335
        },
        {
          "name": "C5",
          "midi": 72,
          "time": 22.67440500000001,
          "velocity": 0.6299212598425197,
          "duration": 0.330426158333335
        },
        {
          "name": "G#5",
          "midi": 80,
          "time": 22.67440500000001,
          "velocity": 0.6299212598425197,
          "duration": 0.330426158333335
        },
        {
          "name": "C5",
          "midi": 72,
          "time": 23.023242000000014,
          "velocity": 0.6299212598425197,
          "duration": 0.6618213083333337
        },
        {
          "name": "G#5",
          "midi": 80,
          "time": 23.023242000000014,
          "velocity": 0.6299212598425197,
          "duration": 0.6618213083333337
        },
        {
          "name": "G#4",
          "midi": 68,
          "time": 24.069753000000013,
          "velocity": 0.6299212598425197,
          "duration": 0.44670515833333724
        },
        {
          "name": "C#5",
          "midi": 73,
          "time": 24.069753000000013,
          "velocity": 0.6299212598425197,
          "duration": 0.10949605833333464
        },
        {
          "name": "G#4",
          "midi": 68,
          "time": 24.186032000000015,
          "velocity": 0.6299212598425197,
          "duration": 2.656006158333348
        },
        {
          "name": "D#5",
          "midi": 75,
          "time": 24.186032000000015,
          "velocity": 0.6299212598425197,
          "duration": 0.330426158333335
        },
        {
          "name": "C#5",
          "midi": 73,
          "time": 24.53486900000002,
          "velocity": 0.6299212598425197,
          "duration": 0.330426158333335
        },
        {
          "name": "A#5",
          "midi": 82,
          "time": 24.53486900000002,
          "velocity": 0.6299212598425197,
          "duration": 0.330426158333335
        },
        {
          "name": "C5",
          "midi": 72,
          "time": 24.88370600000002,
          "velocity": 0.6299212598425197,
          "duration": 0.6618213083333337
        },
        {
          "name": "G#5",
          "midi": 80,
          "time": 24.88370600000002,
          "velocity": 0.6299212598425197,
          "duration": 0.6618213083333337
        },
        {
          "name": "C5",
          "midi": 72,
          "time": 25.58138000000002,
          "velocity": 0.6299212598425197,
          "duration": 0.21996110833333304
        },
        {
          "name": "D#5",
          "midi": 75,
          "time": 25.58138000000002,
          "velocity": 0.6299212598425197,
          "duration": 0.21996110833333304
        },
        {
          "name": "C#5",
          "midi": 73,
          "time": 25.81393800000002,
          "velocity": 0.6299212598425197,
          "duration": 0.21996110833333304
        },
        {
          "name": "F5",
          "midi": 77,
          "time": 25.81393800000002,
          "velocity": 0.6299212598425197,
          "duration": 0.21996110833333304
        },
        {
          "name": "C5",
          "midi": 72,
          "time": 26.046496000000023,
          "velocity": 0.6299212598425197,
          "duration": 0.330426158333335
        },
        {
          "name": "D#5",
          "midi": 75,
          "time": 26.046496000000023,
          "velocity": 0.6299212598425197,
          "duration": 0.330426158333335
        },
        {
          "name": "A#4",
          "midi": 70,
          "time": 26.395333000000026,
          "velocity": 0.6299212598425197,
          "duration": 0.10949605833333464
        },
        {
          "name": "C#5",
          "midi": 73,
          "time": 26.395333000000026,
          "velocity": 0.6299212598425197,
          "duration": 0.10949605833333464
        },
        {
          "name": "G#4",
          "midi": 68,
          "time": 26.511612000000028,
          "velocity": 0.6299212598425197,
          "duration": 0.7955421583333404
        },
        {
          "name": "C5",
          "midi": 72,
          "time": 26.511612000000028,
          "velocity": 0.6299212598425197,
          "duration": 0.330426158333335
        },
        {
          "name": "F4",
          "midi": 65,
          "time": 26.86044900000003,
          "velocity": 0.6299212598425197,
          "duration": 0.10949605833333464
        },
        {
          "name": "A#4",
          "midi": 70,
          "time": 26.86044900000003,
          "velocity": 0.6299212598425197,
          "duration": 0.10949605833333464
        },
        {
          "name": "D#4",
          "midi": 63,
          "time": 26.976728000000033,
          "velocity": 0.6299212598425197,
          "duration": 0.330426158333335
        },
        {
          "name": "G#4",
          "midi": 68,
          "time": 26.976728000000033,
          "velocity": 0.6299212598425197,
          "duration": 0.6850771083333385
        },
        {
          "name": "F4",
          "midi": 65,
          "time": 27.325565000000037,
          "velocity": 0.6299212598425197,
          "duration": 0.10949605833333464
        },
        {
          "name": "A#4",
          "midi": 70,
          "time": 27.325565000000037,
          "velocity": 0.6299212598425197,
          "duration": 0.10949605833333464
        },
        {
          "name": "G#4",
          "midi": 68,
          "time": 27.44184400000004,
          "velocity": 0.6299212598425197,
          "duration": 9.499025308333323
        },
        {
          "name": "C5",
          "midi": 72,
          "time": 27.44184400000004,
          "velocity": 0.6299212598425197,
          "duration": 0.21996110833333304
        },
        {
          "name": "D#5",
          "midi": 75,
          "time": 28.139518000000038,
          "velocity": 0.6299212598425197,
          "duration": 0.21996110833333304
        },
        {
          "name": "C5",
          "midi": 72,
          "time": 28.139518000000038,
          "velocity": 0.6299212598425197,
          "duration": 0.6618213083333337
        },
        {
          "name": "D#5",
          "midi": 75,
          "time": 28.37207600000004,
          "velocity": 0.6299212598425197,
          "duration": 0.21996110833333304
        },
        {
          "name": "D#5",
          "midi": 75,
          "time": 28.60463400000004,
          "velocity": 0.6299212598425197,
          "duration": 0.21996110833333304
        },
        {
          "name": "D#5",
          "midi": 75,
          "time": 28.83719200000004,
          "velocity": 0.6299212598425197,
          "duration": 0.21996110833333304
        },
        {
          "name": "C5",
          "midi": 72,
          "time": 28.83719200000004,
          "velocity": 0.6299212598425197,
          "duration": 0.4408912083333334
        },
        {
          "name": "F5",
          "midi": 77,
          "time": 29.06975000000004,
          "velocity": 0.6299212598425197,
          "duration": 0.21996110833333304
        },
        {
          "name": "G#5",
          "midi": 80,
          "time": 29.302308000000043,
          "velocity": 0.6299212598425197,
          "duration": 0.21996110833333304
        },
        {
          "name": "C5",
          "midi": 72,
          "time": 29.302308000000043,
          "velocity": 0.6299212598425197,
          "duration": 0.21996110833333304
        },
        {
          "name": "G#5",
          "midi": 80,
          "time": 29.534866000000044,
          "velocity": 0.6299212598425197,
          "duration": 0.21996110833333304
        },
        {
          "name": "C5",
          "midi": 72,
          "time": 29.534866000000044,
          "velocity": 0.6299212598425197,
          "duration": 0.21996110833333304
        },
        {
          "name": "C5",
          "midi": 72,
          "time": 30.465098000000044,
          "velocity": 0.5039370078740157,
          "duration": 0.21996110833333304
        },
        {
          "name": "D#5",
          "midi": 75,
          "time": 30.465098000000044,
          "velocity": 0.5039370078740157,
          "duration": 0.21996110833333304
        },
        {
          "name": "C#5",
          "midi": 73,
          "time": 30.697656000000045,
          "velocity": 0.5039370078740157,
          "duration": 0.330426158333335
        },
        {
          "name": "A#5",
          "midi": 82,
          "time": 30.697656000000045,
          "velocity": 0.5039370078740157,
          "duration": 0.330426158333335
        },
        {
          "name": "C5",
          "midi": 72,
          "time": 31.046493000000048,
          "velocity": 0.5039370078740157,
          "duration": 0.10949605833333464
        },
        {
          "name": "G#5",
          "midi": 80,
          "time": 31.046493000000048,
          "velocity": 0.5039370078740157,
          "duration": 0.10949605833333464
        },
        {
          "name": "C#5",
          "midi": 73,
          "time": 31.16277200000005,
          "velocity": 0.5039370078740157,
          "duration": 0.330426158333335
        },
        {
          "name": "A#5",
          "midi": 82,
          "time": 31.16277200000005,
          "velocity": 0.5039370078740157,
          "duration": 0.330426158333335
        },
        {
          "name": "C5",
          "midi": 72,
          "time": 31.511609000000053,
          "velocity": 0.5039370078740157,
          "duration": 0.330426158333335
        },
        {
          "name": "G#5",
          "midi": 80,
          "time": 31.511609000000053,
          "velocity": 0.5039370078740157,
          "duration": 0.330426158333335
        },
        {
          "name": "C5",
          "midi": 72,
          "time": 32.325562000000055,
          "velocity": 0.5039370078740157,
          "duration": 0.2199611083333366
        },
        {
          "name": "D#5",
          "midi": 75,
          "time": 32.325562000000055,
          "velocity": 0.5039370078740157,
          "duration": 0.2199611083333366
        },
        {
          "name": "C#5",
          "midi": 73,
          "time": 32.55812000000006,
          "velocity": 0.5039370078740157,
          "duration": 0.33042615833333144
        },
        {
          "name": "A#5",
          "midi": 82,
          "time": 32.55812000000006,
          "velocity": 0.5039370078740157,
          "duration": 0.33042615833333144
        },
        {
          "name": "C5",
          "midi": 72,
          "time": 32.906957000000055,
          "velocity": 0.5039370078740157,
          "duration": 0.10949605833333464
        },
        {
          "name": "G#5",
          "midi": 80,
          "time": 32.906957000000055,
          "velocity": 0.5039370078740157,
          "duration": 0.10949605833333464
        },
        {
          "name": "C#5",
          "midi": 73,
          "time": 33.023236000000054,
          "velocity": 0.5039370078740157,
          "duration": 0.33042615833333144
        },
        {
          "name": "A#5",
          "midi": 82,
          "time": 33.023236000000054,
          "velocity": 0.5039370078740157,
          "duration": 0.33042615833333144
        },
        {
          "name": "C5",
          "midi": 72,
          "time": 33.37207300000005,
          "velocity": 0.5039370078740157,
          "duration": 0.33042615833333144
        },
        {
          "name": "G#5",
          "midi": 80,
          "time": 33.37207300000005,
          "velocity": 0.5039370078740157,
          "duration": 0.33042615833333144
        },
        {
          "name": "C5",
          "midi": 72,
          "time": 34.18602600000005,
          "velocity": 0.5039370078740157,
          "duration": 0.2199611083333366
        },
        {
          "name": "D#5",
          "midi": 75,
          "time": 34.18602600000005,
          "velocity": 0.5039370078740157,
          "duration": 0.2199611083333366
        },
        {
          "name": "C#5",
          "midi": 73,
          "time": 34.41858400000005,
          "velocity": 0.5039370078740157,
          "duration": 0.33042615833333144
        },
        {
          "name": "A#5",
          "midi": 82,
          "time": 34.41858400000005,
          "velocity": 0.5039370078740157,
          "duration": 0.33042615833333144
        },
        {
          "name": "C5",
          "midi": 72,
          "time": 34.76742100000005,
          "velocity": 0.5039370078740157,
          "duration": 0.10949605833333464
        },
        {
          "name": "G#5",
          "midi": 80,
          "time": 34.76742100000005,
          "velocity": 0.5039370078740157,
          "duration": 0.10949605833333464
        },
        {
          "name": "C#5",
          "midi": 73,
          "time": 34.88370000000005,
          "velocity": 0.5039370078740157,
          "duration": 0.33042615833333144
        },
        {
          "name": "A#5",
          "midi": 82,
          "time": 34.88370000000005,
          "velocity": 0.5039370078740157,
          "duration": 0.33042615833333144
        },
        {
          "name": "C5",
          "midi": 72,
          "time": 35.23253700000004,
          "velocity": 0.5039370078740157,
          "duration": 0.10949605833333464
        },
        {
          "name": "G#5",
          "midi": 80,
          "time": 35.23253700000004,
          "velocity": 0.5039370078740157,
          "duration": 0.10949605833333464
        },
        {
          "name": "C#5",
          "midi": 73,
          "time": 35.34881600000004,
          "velocity": 0.5039370078740157,
          "duration": 0.33042615833333144
        },
        {
          "name": "A#5",
          "midi": 82,
          "time": 35.34881600000004,
          "velocity": 0.5039370078740157,
          "duration": 0.33042615833333144
        },
        {
          "name": "C5",
          "midi": 72,
          "time": 35.69765300000004,
          "velocity": 0.5039370078740157,
          "duration": 0.10949605833333464
        },
        {
          "name": "G#5",
          "midi": 80,
          "time": 35.69765300000004,
          "velocity": 0.5039370078740157,
          "duration": 0.10949605833333464
        },
        {
          "name": "C#5",
          "midi": 73,
          "time": 35.81393200000004,
          "velocity": 0.5039370078740157,
          "duration": 0.33042615833333144
        },
        {
          "name": "A#5",
          "midi": 82,
          "time": 35.81393200000004,
          "velocity": 0.5039370078740157,
          "duration": 0.33042615833333144
        },
        {
          "name": "C5",
          "midi": 72,
          "time": 36.16276900000003,
          "velocity": 0.5039370078740157,
          "duration": 0.10949605833333464
        },
        {
          "name": "G#5",
          "midi": 80,
          "time": 36.16276900000003,
          "velocity": 0.5039370078740157,
          "duration": 0.10949605833333464
        },
        {
          "name": "G#4",
          "midi": 68,
          "time": 36.27904800000003,
          "velocity": 0.5039370078740157,
          "duration": 1.7374020583333305
        },
        {
          "name": "D#5",
          "midi": 75,
          "time": 36.27904800000003,
          "velocity": 0.5039370078740157,
          "duration": 0.6618213083333302
        },
        {
          "name": "C5",
          "midi": 72,
          "time": 36.97672200000003,
          "velocity": 0.5039370078740157,
          "duration": 0.4408912083333334
        },
        {
          "name": "G#5",
          "midi": 80,
          "time": 36.97672200000003,
          "velocity": 0.5039370078740157,
          "duration": 0.4408912083333334
        },
        {
          "name": "G#4",
          "midi": 68,
          "time": 37.90695400000003,
          "velocity": 0.5039370078740157,
          "duration": 0.22577505833333333
        },
        {
          "name": "D#5",
          "midi": 75,
          "time": 37.90695400000003,
          "velocity": 0.5039370078740157,
          "duration": 0.10949605833333464
        },
        {
          "name": "G#4",
          "midi": 68,
          "time": 38.023233000000026,
          "velocity": 0.5039370078740157,
          "duration": 0.3362401083333353
        },
        {
          "name": "D#5",
          "midi": 75,
          "time": 38.023233000000026,
          "velocity": 0.5039370078740157,
          "duration": 0.10949605833333464
        },
        {
          "name": "G#4",
          "midi": 68,
          "time": 38.139512000000025,
          "velocity": 0.5039370078740157,
          "duration": 0.4525191083333411
        },
        {
          "name": "D#5",
          "midi": 75,
          "time": 38.139512000000025,
          "velocity": 0.5039370078740157,
          "duration": 0.2199611083333366
        },
        {
          "name": "G#4",
          "midi": 68,
          "time": 38.37207000000003,
          "velocity": 0.5039370078740157,
          "duration": 1.5048440583333402
        },
        {
          "name": "D#5",
          "midi": 75,
          "time": 38.37207000000003,
          "velocity": 0.5039370078740157,
          "duration": 0.2199611083333366
        },
        {
          "name": "A#4",
          "midi": 70,
          "time": 38.604628000000034,
          "velocity": 0.5039370078740157,
          "duration": 0.4408912083333334
        },
        {
          "name": "F5",
          "midi": 77,
          "time": 38.604628000000034,
          "velocity": 0.5039370078740157,
          "duration": 0.4408912083333334
        },
        {
          "name": "G#4",
          "midi": 68,
          "time": 39.767418000000035,
          "velocity": 0.5039370078740157,
          "duration": 0.22577505833333333
        },
        {
          "name": "D#5",
          "midi": 75,
          "time": 39.767418000000035,
          "velocity": 0.5039370078740157,
          "duration": 0.10949605833333464
        },
        {
          "name": "G#4",
          "midi": 68,
          "time": 39.88369700000003,
          "velocity": 0.5039370078740157,
          "duration": 0.3362401083333353
        },
        {
          "name": "D#5",
          "midi": 75,
          "time": 39.88369700000003,
          "velocity": 0.5039370078740157,
          "duration": 0.10949605833333464
        },
        {
          "name": "G#4",
          "midi": 68,
          "time": 39.99997600000003,
          "velocity": 0.5039370078740157,
          "duration": 1.1443791583333365
        },
        {
          "name": "D#5",
          "midi": 75,
          "time": 39.99997600000003,
          "velocity": 0.5039370078740157,
          "duration": 0.2199611083333366
        },
        {
          "name": "A#4",
          "midi": 70,
          "time": 40.23253400000004,
          "velocity": 0.5039370078740157,
          "duration": 0.2199611083333366
        },
        {
          "name": "F5",
          "midi": 77,
          "time": 40.23253400000004,
          "velocity": 0.5039370078740157,
          "duration": 0.2199611083333366
        },
        {
          "name": "A#4",
          "midi": 70,
          "time": 40.46509200000004,
          "velocity": 0.5039370078740157,
          "duration": 0.33042615833333144
        },
        {
          "name": "F5",
          "midi": 77,
          "time": 40.46509200000004,
          "velocity": 0.5039370078740157,
          "duration": 0.33042615833333144
        },
        {
          "name": "G#4",
          "midi": 68,
          "time": 40.81392900000004,
          "velocity": 0.5039370078740157,
          "duration": 0.9234490583333326
        },
        {
          "name": "D#5",
          "midi": 75,
          "time": 40.81392900000004,
          "velocity": 0.5039370078740157,
          "duration": 0.33042615833333144
        },
        {
          "name": "G#4",
          "midi": 68,
          "time": 41.627882000000035,
          "velocity": 0.5039370078740157,
          "duration": 0.22577505833333333
        },
        {
          "name": "D#5",
          "midi": 75,
          "time": 41.627882000000035,
          "velocity": 0.5039370078740157,
          "duration": 0.10949605833333464
        },
        {
          "name": "G#4",
          "midi": 68,
          "time": 41.744161000000034,
          "velocity": 0.5039370078740157,
          "duration": 0.3362401083333353
        },
        {
          "name": "D#5",
          "midi": 75,
          "time": 41.744161000000034,
          "velocity": 0.5039370078740157,
          "duration": 0.10949605833333464
        },
        {
          "name": "G#4",
          "midi": 68,
          "time": 41.86044000000003,
          "velocity": 0.5039370078740157,
          "duration": 1.1443791583333365
        },
        {
          "name": "D#5",
          "midi": 75,
          "time": 41.86044000000003,
          "velocity": 0.5039370078740157,
          "duration": 0.2199611083333366
        },
        {
          "name": "A#4",
          "midi": 70,
          "time": 42.09299800000004,
          "velocity": 0.5039370078740157,
          "duration": 0.2199611083333366
        },
        {
          "name": "F5",
          "midi": 77,
          "time": 42.09299800000004,
          "velocity": 0.5039370078740157,
          "duration": 0.2199611083333366
        },
        {
          "name": "A#4",
          "midi": 70,
          "time": 42.32555600000004,
          "velocity": 0.5039370078740157,
          "duration": 0.33042615833333144
        },
        {
          "name": "F5",
          "midi": 77,
          "time": 42.32555600000004,
          "velocity": 0.5039370078740157,
          "duration": 0.33042615833333144
        },
        {
          "name": "G#4",
          "midi": 68,
          "time": 42.67439300000004,
          "velocity": 0.5039370078740157,
          "duration": 1.0339141083333345
        },
        {
          "name": "D#5",
          "midi": 75,
          "time": 42.67439300000004,
          "velocity": 0.5039370078740157,
          "duration": 0.33042615833333144
        },
        {
          "name": "G#4",
          "midi": 68,
          "time": 43.488346000000035,
          "velocity": 0.5039370078740157,
          "duration": 0.4525191083333411
        },
        {
          "name": "D#5",
          "midi": 75,
          "time": 43.488346000000035,
          "velocity": 0.5039370078740157,
          "duration": 0.2199611083333366
        },
        {
          "name": "G#4",
          "midi": 68,
          "time": 43.72090400000004,
          "velocity": 0.5039370078740157,
          "duration": 1.8478671083333538
        },
        {
          "name": "D#5",
          "midi": 75,
          "time": 43.72090400000004,
          "velocity": 0.5039370078740157,
          "duration": 0.2199611083333366
        },
        {
          "name": "A#4",
          "midi": 70,
          "time": 43.953462000000044,
          "velocity": 0.5039370078740157,
          "duration": 0.2199611083333366
        },
        {
          "name": "F5",
          "midi": 77,
          "time": 43.953462000000044,
          "velocity": 0.5039370078740157,
          "duration": 0.2199611083333366
        },
        {
          "name": "C5",
          "midi": 72,
          "time": 44.18602000000005,
          "velocity": 0.5039370078740157,
          "duration": 0.2199611083333366
        },
        {
          "name": "G#5",
          "midi": 80,
          "time": 44.18602000000005,
          "velocity": 0.5039370078740157,
          "duration": 0.2199611083333366
        },
        {
          "name": "C5",
          "midi": 72,
          "time": 44.41857800000005,
          "velocity": 0.5039370078740157,
          "duration": 0.2199611083333366
        },
        {
          "name": "G#5",
          "midi": 80,
          "time": 44.41857800000005,
          "velocity": 0.5039370078740157,
          "duration": 0.2199611083333366
        },
        {
          "name": "G#4",
          "midi": 68,
          "time": 45.34881000000006,
          "velocity": 0.5039370078740157,
          "duration": 0.4525191083333411
        },
        {
          "name": "D#5",
          "midi": 75,
          "time": 45.34881000000006,
          "velocity": 0.5039370078740157,
          "duration": 0.2199611083333366
        },
        {
          "name": "G#4",
          "midi": 68,
          "time": 45.58136800000006,
          "velocity": 0.5039370078740157,
          "duration": 4.638563108333365
        },
        {
          "name": "D#5",
          "midi": 75,
          "time": 45.58136800000006,
          "velocity": 0.5039370078740157,
          "duration": 0.2199611083333366
        },
        {
          "name": "A#4",
          "midi": 70,
          "time": 45.813926000000066,
          "velocity": 0.5039370078740157,
          "duration": 0.2199611083333366
        },
        {
          "name": "F5",
          "midi": 77,
          "time": 45.813926000000066,
          "velocity": 0.5039370078740157,
          "duration": 0.2199611083333366
        },
        {
          "name": "C5",
          "midi": 72,
          "time": 46.04648400000007,
          "velocity": 0.5039370078740157,
          "duration": 0.4408912083333334
        },
        {
          "name": "G#5",
          "midi": 80,
          "time": 46.04648400000007,
          "velocity": 0.5039370078740157,
          "duration": 0.4408912083333334
        },
        {
          "name": "F5",
          "midi": 77,
          "time": 46.51160000000007,
          "velocity": 0.5039370078740157,
          "duration": 0.33042615833333144
        },
        {
          "name": "C6",
          "midi": 84,
          "time": 46.51160000000007,
          "velocity": 0.5039370078740157,
          "duration": 0.33042615833333144
        },
        {
          "name": "F5",
          "midi": 77,
          "time": 46.86043700000007,
          "velocity": 0.5039370078740157,
          "duration": 0.33042615833333144
        },
        {
          "name": "C6",
          "midi": 84,
          "time": 46.86043700000007,
          "velocity": 0.5039370078740157,
          "duration": 0.33042615833333144
        },
        {
          "name": "D#5",
          "midi": 75,
          "time": 48.372064000000066,
          "velocity": 0.5039370078740157,
          "duration": 0.2199611083333366
        },
        {
          "name": "C6",
          "midi": 84,
          "time": 48.372064000000066,
          "velocity": 0.5039370078740157,
          "duration": 0.2199611083333366
        },
        {
          "name": "D#5",
          "midi": 75,
          "time": 48.60462200000007,
          "velocity": 0.5039370078740157,
          "duration": 0.10949605833333464
        },
        {
          "name": "C6",
          "midi": 84,
          "time": 48.60462200000007,
          "velocity": 0.5039370078740157,
          "duration": 0.10949605833333464
        },
        {
          "name": "D#5",
          "midi": 75,
          "time": 48.72090100000007,
          "velocity": 0.5039370078740157,
          "duration": 0.2199611083333366
        },
        {
          "name": "C6",
          "midi": 84,
          "time": 48.72090100000007,
          "velocity": 0.5039370078740157,
          "duration": 0.2199611083333366
        },
        {
          "name": "C#5",
          "midi": 73,
          "time": 48.95345900000007,
          "velocity": 0.5039370078740157,
          "duration": 0.10949605833333464
        },
        {
          "name": "A#5",
          "midi": 82,
          "time": 48.95345900000007,
          "velocity": 0.5039370078740157,
          "duration": 0.10949605833333464
        },
        {
          "name": "C#5",
          "midi": 73,
          "time": 49.06973800000007,
          "velocity": 0.5039370078740157,
          "duration": 0.2199611083333366
        },
        {
          "name": "A#5",
          "midi": 82,
          "time": 49.06973800000007,
          "velocity": 0.5039370078740157,
          "duration": 0.2199611083333366
        },
        {
          "name": "C#5",
          "midi": 73,
          "time": 49.30229600000008,
          "velocity": 0.5039370078740157,
          "duration": 0.2199611083333366
        },
        {
          "name": "A#5",
          "midi": 82,
          "time": 49.30229600000008,
          "velocity": 0.5039370078740157,
          "duration": 0.2199611083333366
        },
        {
          "name": "C5",
          "midi": 72,
          "time": 49.53485400000008,
          "velocity": 0.5039370078740157,
          "duration": 0.2199611083333366
        },
        {
          "name": "G#5",
          "midi": 80,
          "time": 49.53485400000008,
          "velocity": 0.5039370078740157,
          "duration": 0.2199611083333366
        },
        {
          "name": "C5",
          "midi": 72,
          "time": 49.767412000000085,
          "velocity": 0.5039370078740157,
          "duration": 0.2199611083333366
        },
        {
          "name": "G#5",
          "midi": 80,
          "time": 49.767412000000085,
          "velocity": 0.5039370078740157,
          "duration": 0.2199611083333366
        },
        {
          "name": "G#4",
          "midi": 68,
          "time": 49.99997000000009,
          "velocity": 0.5039370078740157,
          "duration": 3.9408891083333586
        },
        {
          "name": "D#5",
          "midi": 75,
          "time": 49.99997000000009,
          "velocity": 0.5039370078740157,
          "duration": 0.2199611083333366
        },
        {
          "name": "C#5",
          "midi": 73,
          "time": 50.232528000000094,
          "velocity": 0.5039370078740157,
          "duration": 0.33042615833333144
        },
        {
          "name": "A#5",
          "midi": 82,
          "time": 50.232528000000094,
          "velocity": 0.5039370078740157,
          "duration": 0.33042615833333144
        },
        {
          "name": "C#5",
          "midi": 73,
          "time": 50.58136500000009,
          "velocity": 0.5039370078740157,
          "duration": 0.33042615833333144
        },
        {
          "name": "A#5",
          "midi": 82,
          "time": 50.58136500000009,
          "velocity": 0.5039370078740157,
          "duration": 0.33042615833333144
        },
        {
          "name": "D#5",
          "midi": 75,
          "time": 52.09299200000009,
          "velocity": 0.5039370078740157,
          "duration": 0.2199611083333366
        },
        {
          "name": "C6",
          "midi": 84,
          "time": 52.09299200000009,
          "velocity": 0.5039370078740157,
          "duration": 0.2199611083333366
        },
        {
          "name": "D#5",
          "midi": 75,
          "time": 52.32555000000009,
          "velocity": 0.5039370078740157,
          "duration": 0.10949605833333464
        },
        {
          "name": "C6",
          "midi": 84,
          "time": 52.32555000000009,
          "velocity": 0.5039370078740157,
          "duration": 0.10949605833333464
        },
        {
          "name": "D#5",
          "midi": 75,
          "time": 52.44182900000009,
          "velocity": 0.5039370078740157,
          "duration": 0.2199611083333366
        },
        {
          "name": "C6",
          "midi": 84,
          "time": 52.44182900000009,
          "velocity": 0.5039370078740157,
          "duration": 0.2199611083333366
        },
        {
          "name": "C#5",
          "midi": 73,
          "time": 52.674387000000095,
          "velocity": 0.5039370078740157,
          "duration": 0.10949605833333464
        },
        {
          "name": "A#5",
          "midi": 82,
          "time": 52.674387000000095,
          "velocity": 0.5039370078740157,
          "duration": 0.10949605833333464
        },
        {
          "name": "C#5",
          "midi": 73,
          "time": 52.790666000000094,
          "velocity": 0.5039370078740157,
          "duration": 0.2199611083333366
        },
        {
          "name": "A#5",
          "midi": 82,
          "time": 52.790666000000094,
          "velocity": 0.5039370078740157,
          "duration": 0.2199611083333366
        },
        {
          "name": "C#5",
          "midi": 73,
          "time": 53.0232240000001,
          "velocity": 0.5039370078740157,
          "duration": 0.2199611083333366
        },
        {
          "name": "A#5",
          "midi": 82,
          "time": 53.0232240000001,
          "velocity": 0.5039370078740157,
          "duration": 0.2199611083333366
        },
        {
          "name": "C5",
          "midi": 72,
          "time": 53.2557820000001,
          "velocity": 0.5039370078740157,
          "duration": 0.2199611083333366
        },
        {
          "name": "G#5",
          "midi": 80,
          "time": 53.2557820000001,
          "velocity": 0.5039370078740157,
          "duration": 0.2199611083333366
        },
        {
          "name": "C5",
          "midi": 72,
          "time": 53.48834000000011,
          "velocity": 0.5039370078740157,
          "duration": 0.2199611083333366
        },
        {
          "name": "G#5",
          "midi": 80,
          "time": 53.48834000000011,
          "velocity": 0.5039370078740157,
          "duration": 0.2199611083333366
        },
        {
          "name": "G#4",
          "midi": 68,
          "time": 53.72089800000011,
          "velocity": 0.5039370078740157,
          "duration": 6.73158510833337
        },
        {
          "name": "D#5",
          "midi": 75,
          "time": 53.72089800000011,
          "velocity": 0.5039370078740157,
          "duration": 0.2199611083333366
        },
        {
          "name": "C#5",
          "midi": 73,
          "time": 53.953456000000116,
          "velocity": 0.5039370078740157,
          "duration": 0.33042615833333144
        },
        {
          "name": "A#5",
          "midi": 82,
          "time": 53.953456000000116,
          "velocity": 0.5039370078740157,
          "duration": 0.33042615833333144
        },
        {
          "name": "C5",
          "midi": 72,
          "time": 54.30229300000011,
          "velocity": 0.5039370078740157,
          "duration": 0.33042615833333144
        },
        {
          "name": "G#5",
          "midi": 80,
          "time": 54.30229300000011,
          "velocity": 0.5039370078740157,
          "duration": 0.33042615833333144
        },
        {
          "name": "C5",
          "midi": 72,
          "time": 55.34880400000011,
          "velocity": 0.5039370078740157,
          "duration": 0.10949605833333464
        },
        {
          "name": "G#5",
          "midi": 80,
          "time": 55.34880400000011,
          "velocity": 0.5039370078740157,
          "duration": 0.10949605833333464
        },
        {
          "name": "C#5",
          "midi": 73,
          "time": 55.46508300000011,
          "velocity": 0.5039370078740157,
          "duration": 0.10949605833333464
        },
        {
          "name": "A#5",
          "midi": 82,
          "time": 55.46508300000011,
          "velocity": 0.5039370078740157,
          "duration": 0.10949605833333464
        },
        {
          "name": "D#5",
          "midi": 75,
          "time": 55.581362000000105,
          "velocity": 0.5039370078740157,
          "duration": 0.2199611083333366
        },
        {
          "name": "C6",
          "midi": 84,
          "time": 55.581362000000105,
          "velocity": 0.5039370078740157,
          "duration": 0.2199611083333366
        },
        {
          "name": "E5",
          "midi": 76,
          "time": 55.81392000000011,
          "velocity": 0.5039370078740157,
          "duration": 0.4408912083333334
        },
        {
          "name": "C#6",
          "midi": 85,
          "time": 55.81392000000011,
          "velocity": 0.5039370078740157,
          "duration": 0.4408912083333334
        },
        {
          "name": "D#5",
          "midi": 75,
          "time": 56.27903600000011,
          "velocity": 0.5039370078740157,
          "duration": 0.2199611083333366
        },
        {
          "name": "C6",
          "midi": 84,
          "time": 56.27903600000011,
          "velocity": 0.5039370078740157,
          "duration": 0.2199611083333366
        },
        {
          "name": "C#5",
          "midi": 73,
          "time": 56.511594000000116,
          "velocity": 0.5039370078740157,
          "duration": 0.2199611083333366
        },
        {
          "name": "A#5",
          "midi": 82,
          "time": 56.511594000000116,
          "velocity": 0.5039370078740157,
          "duration": 0.2199611083333366
        },
        {
          "name": "C5",
          "midi": 72,
          "time": 56.74415200000012,
          "velocity": 0.5039370078740157,
          "duration": 0.4408912083333334
        },
        {
          "name": "G#5",
          "midi": 80,
          "time": 56.74415200000012,
          "velocity": 0.5039370078740157,
          "duration": 0.4408912083333334
        },
        {
          "name": "C#5",
          "midi": 73,
          "time": 57.20926800000012,
          "velocity": 0.5039370078740157,
          "duration": 0.4408912083333334
        },
        {
          "name": "A#5",
          "midi": 82,
          "time": 57.20926800000012,
          "velocity": 0.5039370078740157,
          "duration": 0.4408912083333334
        },
        {
          "name": "C5",
          "midi": 72,
          "time": 58.37205800000012,
          "velocity": 0.5039370078740157,
          "duration": 0.2199611083333366
        },
        {
          "name": "F5",
          "midi": 77,
          "time": 58.37205800000012,
          "velocity": 0.5039370078740157,
          "duration": 0.2199611083333366
        },
        {
          "name": "C#5",
          "midi": 73,
          "time": 58.60461600000013,
          "velocity": 0.5039370078740157,
          "duration": 0.2199611083333366
        },
        {
          "name": "G#5",
          "midi": 80,
          "time": 58.60461600000013,
          "velocity": 0.5039370078740157,
          "duration": 0.2199611083333366
        },
        {
          "name": "D#5",
          "midi": 75,
          "time": 58.83717400000013,
          "velocity": 0.5039370078740157,
          "duration": 0.2199611083333366
        },
        {
          "name": "A#5",
          "midi": 82,
          "time": 58.83717400000013,
          "velocity": 0.5039370078740157,
          "duration": 0.2199611083333366
        },
        {
          "name": "D#5",
          "midi": 75,
          "time": 59.06973200000014,
          "velocity": 0.5039370078740157,
          "duration": 0.2199611083333366
        },
        {
          "name": "A#5",
          "midi": 82,
          "time": 59.06973200000014,
          "velocity": 0.5039370078740157,
          "duration": 0.2199611083333366
        },
        {
          "name": "G#5",
          "midi": 80,
          "time": 59.30229000000014,
          "velocity": 0.5039370078740157,
          "duration": 0.10949605833333464
        },
        {
          "name": "G5",
          "midi": 79,
          "time": 59.41856900000014,
          "velocity": 0.5039370078740157,
          "duration": 0.10949605833333464
        },
        {
          "name": "F5",
          "midi": 77,
          "time": 59.53484800000014,
          "velocity": 0.5039370078740157,
          "duration": 0.2199611083333366
        },
        {
          "name": "G#4",
          "midi": 68,
          "time": 60.232522000000145,
          "velocity": 0.5039370078740157,
          "duration": 0.4525191083333411
        },
        {
          "name": "D#5",
          "midi": 75,
          "time": 60.232522000000145,
          "velocity": 0.5039370078740157,
          "duration": 0.2199611083333366
        },
        {
          "name": "G#4",
          "midi": 68,
          "time": 60.46508000000015,
          "velocity": 0.5039370078740157,
          "duration": 4.6385631083333365
        },
        {
          "name": "D#5",
          "midi": 75,
          "time": 60.46508000000015,
          "velocity": 0.5039370078740157,
          "duration": 0.2199611083333366
        },
        {
          "name": "A#4",
          "midi": 70,
          "time": 60.697638000000154,
          "velocity": 0.5039370078740157,
          "duration": 0.2199611083333366
        },
        {
          "name": "F5",
          "midi": 77,
          "time": 60.697638000000154,
          "velocity": 0.5039370078740157,
          "duration": 0.2199611083333366
        },
        {
          "name": "C5",
          "midi": 72,
          "time": 60.93019600000016,
          "velocity": 0.5039370078740157,
          "duration": 0.4408912083333334
        },
        {
          "name": "G#5",
          "midi": 80,
          "time": 60.93019600000016,
          "velocity": 0.5039370078740157,
          "duration": 0.4408912083333334
        },
        {
          "name": "F5",
          "midi": 77,
          "time": 61.39531200000016,
          "velocity": 0.5039370078740157,
          "duration": 0.33042615833333144
        },
        {
          "name": "C6",
          "midi": 84,
          "time": 61.39531200000016,
          "velocity": 0.5039370078740157,
          "duration": 0.33042615833333144
        },
        {
          "name": "F5",
          "midi": 77,
          "time": 61.74414900000016,
          "velocity": 0.5039370078740157,
          "duration": 0.33042615833333144
        },
        {
          "name": "C6",
          "midi": 84,
          "time": 61.74414900000016,
          "velocity": 0.5039370078740157,
          "duration": 0.33042615833333144
        },
        {
          "name": "D#5",
          "midi": 75,
          "time": 63.255776000000154,
          "velocity": 0.5039370078740157,
          "duration": 0.2199611083333366
        },
        {
          "name": "C6",
          "midi": 84,
          "time": 63.255776000000154,
          "velocity": 0.5039370078740157,
          "duration": 0.2199611083333366
        },
        {
          "name": "D#5",
          "midi": 75,
          "time": 63.48833400000016,
          "velocity": 0.5039370078740157,
          "duration": 0.10949605833333464
        },
        {
          "name": "C6",
          "midi": 84,
          "time": 63.48833400000016,
          "velocity": 0.5039370078740157,
          "duration": 0.10949605833333464
        },
        {
          "name": "D#5",
          "midi": 75,
          "time": 63.60461300000016,
          "velocity": 0.5039370078740157,
          "duration": 0.2199611083333366
        },
        {
          "name": "C6",
          "midi": 84,
          "time": 63.60461300000016,
          "velocity": 0.5039370078740157,
          "duration": 0.2199611083333366
        },
        {
          "name": "C#5",
          "midi": 73,
          "time": 63.83717100000016,
          "velocity": 0.5039370078740157,
          "duration": 0.10949605833333464
        },
        {
          "name": "A#5",
          "midi": 82,
          "time": 63.83717100000016,
          "velocity": 0.5039370078740157,
          "duration": 0.10949605833333464
        },
        {
          "name": "C#5",
          "midi": 73,
          "time": 63.95345000000016,
          "velocity": 0.5039370078740157,
          "duration": 0.2199611083333366
        },
        {
          "name": "A#5",
          "midi": 82,
          "time": 63.95345000000016,
          "velocity": 0.5039370078740157,
          "duration": 0.2199611083333366
        },
        {
          "name": "C#5",
          "midi": 73,
          "time": 64.18600800000016,
          "velocity": 0.5039370078740157,
          "duration": 0.2199611083333366
        },
        {
          "name": "A#5",
          "midi": 82,
          "time": 64.18600800000016,
          "velocity": 0.5039370078740157,
          "duration": 0.2199611083333366
        },
        {
          "name": "C5",
          "midi": 72,
          "time": 64.41856600000015,
          "velocity": 0.5039370078740157,
          "duration": 0.2199611083333366
        },
        {
          "name": "G#5",
          "midi": 80,
          "time": 64.41856600000015,
          "velocity": 0.5039370078740157,
          "duration": 0.2199611083333366
        },
        {
          "name": "C5",
          "midi": 72,
          "time": 64.65112400000015,
          "velocity": 0.5039370078740157,
          "duration": 0.2199611083333366
        },
        {
          "name": "G#5",
          "midi": 80,
          "time": 64.65112400000015,
          "velocity": 0.5039370078740157,
          "duration": 0.2199611083333366
        },
        {
          "name": "G#4",
          "midi": 68,
          "time": 64.88368200000015,
          "velocity": 0.5039370078740157,
          "duration": 3.9408891083333373
        },
        {
          "name": "D#5",
          "midi": 75,
          "time": 64.88368200000015,
          "velocity": 0.5039370078740157,
          "duration": 0.2199611083333366
        },
        {
          "name": "C#5",
          "midi": 73,
          "time": 65.11624000000015,
          "velocity": 0.5039370078740157,
          "duration": 0.33042615833333855
        },
        {
          "name": "A#5",
          "midi": 82,
          "time": 65.11624000000015,
          "velocity": 0.5039370078740157,
          "duration": 0.33042615833333855
        },
        {
          "name": "C#5",
          "midi": 73,
          "time": 65.46507700000015,
          "velocity": 0.5039370078740157,
          "duration": 0.33042615833333855
        },
        {
          "name": "A#5",
          "midi": 82,
          "time": 65.46507700000015,
          "velocity": 0.5039370078740157,
          "duration": 0.33042615833333855
        },
        {
          "name": "D#5",
          "midi": 75,
          "time": 66.97670400000015,
          "velocity": 0.5039370078740157,
          "duration": 0.2199611083333366
        },
        {
          "name": "C6",
          "midi": 84,
          "time": 66.97670400000015,
          "velocity": 0.5039370078740157,
          "duration": 0.2199611083333366
        },
        {
          "name": "D#5",
          "midi": 75,
          "time": 67.20926200000015,
          "velocity": 0.5039370078740157,
          "duration": 0.10949605833333464
        },
        {
          "name": "C6",
          "midi": 84,
          "time": 67.20926200000015,
          "velocity": 0.5039370078740157,
          "duration": 0.10949605833333464
        },
        {
          "name": "D#5",
          "midi": 75,
          "time": 67.32554100000016,
          "velocity": 0.5039370078740157,
          "duration": 0.2199611083333366
        },
        {
          "name": "C6",
          "midi": 84,
          "time": 67.32554100000016,
          "velocity": 0.5039370078740157,
          "duration": 0.2199611083333366
        },
        {
          "name": "C#5",
          "midi": 73,
          "time": 67.55809900000015,
          "velocity": 0.5039370078740157,
          "duration": 0.10949605833333464
        },
        {
          "name": "A#5",
          "midi": 82,
          "time": 67.55809900000015,
          "velocity": 0.5039370078740157,
          "duration": 0.10949605833333464
        },
        {
          "name": "C#5",
          "midi": 73,
          "time": 67.67437800000016,
          "velocity": 0.5039370078740157,
          "duration": 0.2199611083333366
        },
        {
          "name": "A#5",
          "midi": 82,
          "time": 67.67437800000016,
          "velocity": 0.5039370078740157,
          "duration": 0.2199611083333366
        },
        {
          "name": "C#5",
          "midi": 73,
          "time": 67.90693600000016,
          "velocity": 0.5039370078740157,
          "duration": 0.2199611083333366
        },
        {
          "name": "A#5",
          "midi": 82,
          "time": 67.90693600000016,
          "velocity": 0.5039370078740157,
          "duration": 0.2199611083333366
        },
        {
          "name": "C5",
          "midi": 72,
          "time": 68.13949400000016,
          "velocity": 0.5039370078740157,
          "duration": 0.2199611083333366
        },
        {
          "name": "G#5",
          "midi": 80,
          "time": 68.13949400000016,
          "velocity": 0.5039370078740157,
          "duration": 0.2199611083333366
        },
        {
          "name": "C5",
          "midi": 72,
          "time": 68.37205200000015,
          "velocity": 0.5039370078740157,
          "duration": 0.2199611083333366
        },
        {
          "name": "G#5",
          "midi": 80,
          "time": 68.37205200000015,
          "velocity": 0.5039370078740157,
          "duration": 0.2199611083333366
        },
        {
          "name": "G#4",
          "midi": 68,
          "time": 68.60461000000015,
          "velocity": 0.5039370078740157,
          "duration": 9.295537058333295
        },
        {
          "name": "D#5",
          "midi": 75,
          "time": 68.60461000000015,
          "velocity": 0.5039370078740157,
          "duration": 0.2199611083333366
        },
        {
          "name": "C#5",
          "midi": 73,
          "time": 68.83716800000015,
          "velocity": 0.5039370078740157,
          "duration": 0.33042615833333855
        },
        {
          "name": "A#5",
          "midi": 82,
          "time": 68.83716800000015,
          "velocity": 0.5039370078740157,
          "duration": 0.33042615833333855
        },
        {
          "name": "C5",
          "midi": 72,
          "time": 69.18600500000015,
          "velocity": 0.5039370078740157,
          "duration": 0.33042615833333855
        },
        {
          "name": "G#5",
          "midi": 80,
          "time": 69.18600500000015,
          "velocity": 0.5039370078740157,
          "duration": 0.33042615833333855
        },
        {
          "name": "C5",
          "midi": 72,
          "time": 70.23251600000016,
          "velocity": 0.5039370078740157,
          "duration": 0.10949605833333464
        },
        {
          "name": "G#5",
          "midi": 80,
          "time": 70.23251600000016,
          "velocity": 0.5039370078740157,
          "duration": 0.10949605833333464
        },
        {
          "name": "C#5",
          "midi": 73,
          "time": 70.34879500000017,
          "velocity": 0.5039370078740157,
          "duration": 0.10949605833333464
        },
        {
          "name": "A#5",
          "midi": 82,
          "time": 70.34879500000017,
          "velocity": 0.5039370078740157,
          "duration": 0.10949605833333464
        },
        {
          "name": "D#5",
          "midi": 75,
          "time": 70.46507400000017,
          "velocity": 0.5039370078740157,
          "duration": 0.2199611083333366
        },
        {
          "name": "C6",
          "midi": 84,
          "time": 70.46507400000017,
          "velocity": 0.5039370078740157,
          "duration": 0.2199611083333366
        },
        {
          "name": "E5",
          "midi": 76,
          "time": 70.69763200000017,
          "velocity": 0.5039370078740157,
          "duration": 0.4408912083333263
        },
        {
          "name": "C#6",
          "midi": 85,
          "time": 70.69763200000017,
          "velocity": 0.5039370078740157,
          "duration": 0.4408912083333263
        },
        {
          "name": "D#5",
          "midi": 75,
          "time": 71.16274800000016,
          "velocity": 0.5039370078740157,
          "duration": 0.2199611083333366
        },
        {
          "name": "C6",
          "midi": 84,
          "time": 71.16274800000016,
          "velocity": 0.5039370078740157,
          "duration": 0.2199611083333366
        },
        {
          "name": "C#5",
          "midi": 73,
          "time": 71.39530600000016,
          "velocity": 0.5039370078740157,
          "duration": 0.2199611083333366
        },
        {
          "name": "A#5",
          "midi": 82,
          "time": 71.39530600000016,
          "velocity": 0.5039370078740157,
          "duration": 0.2199611083333366
        },
        {
          "name": "C5",
          "midi": 72,
          "time": 71.62786400000016,
          "velocity": 0.5039370078740157,
          "duration": 0.4408912083333263
        },
        {
          "name": "G#5",
          "midi": 80,
          "time": 71.62786400000016,
          "velocity": 0.5039370078740157,
          "duration": 0.4408912083333263
        },
        {
          "name": "C#5",
          "midi": 73,
          "time": 72.09298000000015,
          "velocity": 0.5039370078740157,
          "duration": 0.4408912083333263
        },
        {
          "name": "A#5",
          "midi": 82,
          "time": 72.09298000000015,
          "velocity": 0.5039370078740157,
          "duration": 0.4408912083333263
        },
        {
          "name": "C5",
          "midi": 72,
          "time": 73.25577000000014,
          "velocity": 0.5039370078740157,
          "duration": 0.2199611083333366
        },
        {
          "name": "G#5",
          "midi": 80,
          "time": 73.25577000000014,
          "velocity": 0.5039370078740157,
          "duration": 0.2199611083333366
        },
        {
          "name": "C5",
          "midi": 72,
          "time": 73.48832800000014,
          "velocity": 0.5039370078740157,
          "duration": 0.4408912083333263
        },
        {
          "name": "G#5",
          "midi": 80,
          "time": 73.48832800000014,
          "velocity": 0.5039370078740157,
          "duration": 0.4408912083333263
        },
        {
          "name": "C#5",
          "midi": 73,
          "time": 73.95344400000013,
          "velocity": 0.5039370078740157,
          "duration": 0.4408912083333263
        },
        {
          "name": "A#5",
          "midi": 82,
          "time": 73.95344400000013,
          "velocity": 0.5039370078740157,
          "duration": 0.4408912083333263
        },
        {
          "name": "C5",
          "midi": 72,
          "time": 75.11623400000012,
          "velocity": 0.5039370078740157,
          "duration": 0.2199611083333366
        },
        {
          "name": "G#5",
          "midi": 80,
          "time": 75.11623400000012,
          "velocity": 0.5039370078740157,
          "duration": 0.2199611083333366
        },
        {
          "name": "C5",
          "midi": 72,
          "time": 75.34879200000012,
          "velocity": 0.5039370078740157,
          "duration": 0.4408912083333263
        },
        {
          "name": "G#5",
          "midi": 80,
          "time": 75.34879200000012,
          "velocity": 0.5039370078740157,
          "duration": 0.4408912083333263
        },
        {
          "name": "C#5",
          "midi": 73,
          "time": 75.81390800000011,
          "velocity": 0.5039370078740157,
          "duration": 0.4408912083333263
        },
        {
          "name": "A#5",
          "midi": 82,
          "time": 75.81390800000011,
          "velocity": 0.5039370078740157,
          "duration": 0.4408912083333263
        },
        {
          "name": "C#5",
          "midi": 73,
          "time": 76.2790240000001,
          "velocity": 0.5039370078740157,
          "duration": 0.33042615833333855
        },
        {
          "name": "A#5",
          "midi": 82,
          "time": 76.2790240000001,
          "velocity": 0.5039370078740157,
          "duration": 0.33042615833333855
        },
        {
          "name": "C5",
          "midi": 72,
          "time": 76.62786100000011,
          "velocity": 0.5039370078740157,
          "duration": 0.6618213083333302
        },
        {
          "name": "G#5",
          "midi": 80,
          "time": 76.62786100000011,
          "velocity": 0.5039370078740157,
          "duration": 0.6618213083333302
        },
        {
          "name": "A#4",
          "midi": 70,
          "time": 77.6743720000001,
          "velocity": 0.5039370078740157,
          "duration": 0.10949605833333464
        },
        {
          "name": "G#4",
          "midi": 68,
          "time": 77.79065100000011,
          "velocity": 0.5039370078740157,
          "duration": 8.55716540833339
        },
        {
          "name": "G4",
          "midi": 67,
          "time": 77.90693000000012,
          "velocity": 0.5039370078740157,
          "duration": 0.10949605833333464
        },
        {
          "name": "F4",
          "midi": 65,
          "time": 78.02320900000012,
          "velocity": 0.5039370078740157,
          "duration": 0.10949605833333464
        },
        {
          "name": "C#4",
          "midi": 61,
          "time": 78.13948800000013,
          "velocity": 0.5039370078740157,
          "duration": 0.2199611083333366
        },
        {
          "name": "G#5",
          "midi": 80,
          "time": 78.48832500000013,
          "velocity": 0.5039370078740157,
          "duration": 0.10949605833333464
        },
        {
          "name": "D#5",
          "midi": 75,
          "time": 78.60460400000014,
          "velocity": 0.5039370078740157,
          "duration": 0.33042615833333855
        },
        {
          "name": "C6",
          "midi": 84,
          "time": 78.60460400000014,
          "velocity": 0.5039370078740157,
          "duration": 0.33042615833333855
        },
        {
          "name": "C#5",
          "midi": 73,
          "time": 78.95344100000014,
          "velocity": 0.5039370078740157,
          "duration": 0.2199611083333366
        },
        {
          "name": "F5",
          "midi": 77,
          "time": 78.95344100000014,
          "velocity": 0.5039370078740157,
          "duration": 0.2199611083333366
        },
        {
          "name": "C#5",
          "midi": 73,
          "time": 79.88367300000014,
          "velocity": 0.5039370078740157,
          "duration": 0.10949605833333464
        },
        {
          "name": "F5",
          "midi": 77,
          "time": 79.88367300000014,
          "velocity": 0.5039370078740157,
          "duration": 0.10949605833333464
        },
        {
          "name": "C5",
          "midi": 72,
          "time": 79.99995200000015,
          "velocity": 0.5039370078740157,
          "duration": 0.2199611083333366
        },
        {
          "name": "D#5",
          "midi": 75,
          "time": 79.99995200000015,
          "velocity": 0.5039370078740157,
          "duration": 0.2199611083333366
        },
        {
          "name": "C5",
          "midi": 72,
          "time": 80.23251000000015,
          "velocity": 0.5039370078740157,
          "duration": 0.10949605833333464
        },
        {
          "name": "D#5",
          "midi": 75,
          "time": 80.23251000000015,
          "velocity": 0.5039370078740157,
          "duration": 0.10949605833333464
        },
        {
          "name": "C5",
          "midi": 72,
          "time": 80.34878900000015,
          "velocity": 0.5039370078740157,
          "duration": 0.2199611083333366
        },
        {
          "name": "D#5",
          "midi": 75,
          "time": 80.34878900000015,
          "velocity": 0.5039370078740157,
          "duration": 0.2199611083333366
        },
        {
          "name": "C5",
          "midi": 72,
          "time": 80.58134700000015,
          "velocity": 0.5039370078740157,
          "duration": 0.10949605833333464
        },
        {
          "name": "D#5",
          "midi": 75,
          "time": 80.58134700000015,
          "velocity": 0.5039370078740157,
          "duration": 0.10949605833333464
        },
        {
          "name": "C#5",
          "midi": 73,
          "time": 80.69762600000016,
          "velocity": 0.5039370078740157,
          "duration": 0.4408912083333263
        },
        {
          "name": "A#5",
          "midi": 82,
          "time": 80.69762600000016,
          "velocity": 0.5039370078740157,
          "duration": 0.4408912083333263
        },
        {
          "name": "D#5",
          "midi": 75,
          "time": 82.32553200000015,
          "velocity": 0.5039370078740157,
          "duration": 0.33042615833333855
        },
        {
          "name": "C6",
          "midi": 84,
          "time": 82.32553200000015,
          "velocity": 0.5039370078740157,
          "duration": 0.33042615833333855
        },
        {
          "name": "C5",
          "midi": 72,
          "time": 82.67436900000015,
          "velocity": 0.5039370078740157,
          "duration": 0.2199611083333366
        },
        {
          "name": "F5",
          "midi": 77,
          "time": 82.67436900000015,
          "velocity": 0.5039370078740157,
          "duration": 0.2199611083333366
        },
        {
          "name": "F5",
          "midi": 77,
          "time": 83.60460100000016,
          "velocity": 0.5039370078740157,
          "duration": 0.10949605833333464
        },
        {
          "name": "F5",
          "midi": 77,
          "time": 83.72088000000016,
          "velocity": 0.5039370078740157,
          "duration": 0.2199611083333366
        },
        {
          "name": "C6",
          "midi": 84,
          "time": 83.72088000000016,
          "velocity": 0.5039370078740157,
          "duration": 0.2199611083333366
        },
        {
          "name": "F5",
          "midi": 77,
          "time": 83.95343800000016,
          "velocity": 0.5039370078740157,
          "duration": 0.10949605833333464
        },
        {
          "name": "C#6",
          "midi": 85,
          "time": 83.95343800000016,
          "velocity": 0.5039370078740157,
          "duration": 0.10949605833333464
        },
        {
          "name": "F5",
          "midi": 77,
          "time": 84.06971700000017,
          "velocity": 0.5039370078740157,
          "duration": 0.2199611083333366
        },
        {
          "name": "C6",
          "midi": 84,
          "time": 84.06971700000017,
          "velocity": 0.5039370078740157,
          "duration": 0.2199611083333366
        },
        {
          "name": "D#5",
          "midi": 75,
          "time": 84.30227500000017,
          "velocity": 0.5039370078740157,
          "duration": 0.10949605833333464
        },
        {
          "name": "A#5",
          "midi": 82,
          "time": 84.30227500000017,
          "velocity": 0.5039370078740157,
          "duration": 0.10949605833333464
        },
        {
          "name": "D#5",
          "midi": 75,
          "time": 84.41855400000017,
          "velocity": 0.5039370078740157,
          "duration": 0.4408912083333263
        },
        {
          "name": "A#5",
          "midi": 82,
          "time": 84.41855400000017,
          "velocity": 0.5039370078740157,
          "duration": 0.4408912083333263
        },
        {
          "name": "D#5",
          "midi": 75,
          "time": 84.88367000000017,
          "velocity": 0.5039370078740157,
          "duration": 0.2199611083333366
        },
        {
          "name": "C6",
          "midi": 84,
          "time": 84.88367000000017,
          "velocity": 0.5039370078740157,
          "duration": 0.2199611083333366
        },
        {
          "name": "C#5",
          "midi": 73,
          "time": 85.11622800000016,
          "velocity": 0.5039370078740157,
          "duration": 0.2199611083333366
        },
        {
          "name": "A#5",
          "midi": 82,
          "time": 85.11622800000016,
          "velocity": 0.5039370078740157,
          "duration": 0.2199611083333366
        },
        {
          "name": "C5",
          "midi": 72,
          "time": 85.34878600000016,
          "velocity": 0.5039370078740157,
          "duration": 0.2199611083333366
        },
        {
          "name": "G#5",
          "midi": 80,
          "time": 85.34878600000016,
          "velocity": 0.5039370078740157,
          "duration": 0.2199611083333366
        },
        {
          "name": "C5",
          "midi": 72,
          "time": 85.58134400000016,
          "velocity": 0.5039370078740157,
          "duration": 0.1463177416666639
        },
        {
          "name": "G#5",
          "midi": 80,
          "time": 85.58134400000016,
          "velocity": 0.5039370078740157,
          "duration": 0.1463177416666639
        },
        {
          "name": "A#4",
          "midi": 70,
          "time": 85.73638266666683,
          "velocity": 0.5039370078740157,
          "duration": 0.1463177416666639
        },
        {
          "name": "G5",
          "midi": 79,
          "time": 85.73638266666683,
          "velocity": 0.5039370078740157,
          "duration": 0.1463177416666639
        },
        {
          "name": "A#4",
          "midi": 70,
          "time": 85.8914213333335,
          "velocity": 0.5039370078740157,
          "duration": 0.1463177416666639
        },
        {
          "name": "G5",
          "midi": 79,
          "time": 85.8914213333335,
          "velocity": 0.5039370078740157,
          "duration": 0.1463177416666639
        },
        {
          "name": "A#4",
          "midi": 70,
          "time": 86.04646000000017,
          "velocity": 0.5039370078740157,
          "duration": 0.1463177416666639
        },
        {
          "name": "G5",
          "midi": 79,
          "time": 86.04646000000017,
          "velocity": 0.5039370078740157,
          "duration": 0.1463177416666639
        },
        {
          "name": "G#4",
          "midi": 68,
          "time": 86.20149866666684,
          "velocity": 0.5039370078740157,
          "duration": 0.30135640833333355
        },
        {
          "name": "F5",
          "midi": 77,
          "time": 86.20149866666684,
          "velocity": 0.5039370078740157,
          "duration": 0.1463177416666639
        },
        {
          "name": "G#4",
          "midi": 68,
          "time": 86.3565373333335,
          "velocity": 0.5039370078740157,
          "duration": 0.595929874999996
        },
        {
          "name": "F5",
          "midi": 77,
          "time": 86.3565373333335,
          "velocity": 0.5039370078740157,
          "duration": 0.1463177416666639
        },
        {
          "name": "G#4",
          "midi": 68,
          "time": 86.51157600000018,
          "velocity": 0.5039370078740157,
          "duration": 1.6967044083333462
        },
        {
          "name": "F5",
          "midi": 77,
          "time": 86.51157600000018,
          "velocity": 0.5039370078740157,
          "duration": 0.4408912083333263
        },
        {
          "name": "C5",
          "midi": 72,
          "time": 87.13173066666684,
          "velocity": 0.5039370078740157,
          "duration": 0.1463177416666639
        },
        {
          "name": "G#5",
          "midi": 80,
          "time": 87.13173066666684,
          "velocity": 0.5039370078740157,
          "duration": 0.1463177416666639
        },
        {
          "name": "C5",
          "midi": 72,
          "time": 87.28676933333351,
          "velocity": 0.5039370078740157,
          "duration": 0.1463177416666639
        },
        {
          "name": "G#5",
          "midi": 80,
          "time": 87.28676933333351,
          "velocity": 0.5039370078740157,
          "duration": 0.1463177416666639
        },
        {
          "name": "C5",
          "midi": 72,
          "time": 87.44180800000018,
          "velocity": 0.5039370078740157,
          "duration": 0.1463177416666639
        },
        {
          "name": "G#5",
          "midi": 80,
          "time": 87.44180800000018,
          "velocity": 0.5039370078740157,
          "duration": 0.1463177416666639
        },
        {
          "name": "A#4",
          "midi": 70,
          "time": 87.59684666666685,
          "velocity": 0.5039370078740157,
          "duration": 0.1463177416666639
        },
        {
          "name": "G5",
          "midi": 79,
          "time": 87.59684666666685,
          "velocity": 0.5039370078740157,
          "duration": 0.1463177416666639
        },
        {
          "name": "A#4",
          "midi": 70,
          "time": 87.75188533333352,
          "velocity": 0.5039370078740157,
          "duration": 0.1463177416666639
        },
        {
          "name": "G5",
          "midi": 79,
          "time": 87.75188533333352,
          "velocity": 0.5039370078740157,
          "duration": 0.1463177416666639
        },
        {
          "name": "A#4",
          "midi": 70,
          "time": 87.90692400000019,
          "velocity": 0.5039370078740157,
          "duration": 0.1463177416666639
        },
        {
          "name": "G5",
          "midi": 79,
          "time": 87.90692400000019,
          "velocity": 0.5039370078740157,
          "duration": 0.1463177416666639
        },
        {
          "name": "G#4",
          "midi": 68,
          "time": 88.06196266666686,
          "velocity": 0.5039370078740157,
          "duration": 0.30135640833333355
        },
        {
          "name": "F5",
          "midi": 77,
          "time": 88.06196266666686,
          "velocity": 0.5039370078740157,
          "duration": 0.1463177416666639
        },
        {
          "name": "G#4",
          "midi": 68,
          "time": 88.21700133333353,
          "velocity": 0.5039370078740157,
          "duration": 0.37499977500000625
        },
        {
          "name": "F5",
          "midi": 77,
          "time": 88.21700133333353,
          "velocity": 0.5039370078740157,
          "duration": 0.1463177416666639
        },
        {
          "name": "G#4",
          "midi": 68,
          "time": 88.3720400000002,
          "velocity": 0.5039370078740157,
          "duration": 0.452519108333334
        },
        {
          "name": "F5",
          "midi": 77,
          "time": 88.3720400000002,
          "velocity": 0.5039370078740157,
          "duration": 0.2199611083333366
        },
        {
          "name": "G#4",
          "midi": 68,
          "time": 88.6045980000002,
          "velocity": 0.5039370078740157,
          "duration": 11.592047308333392
        },
        {
          "name": "C#5",
          "midi": 73,
          "time": 88.6045980000002,
          "velocity": 0.5039370078740157,
          "duration": 0.2199611083333366
        },
        {
          "name": "C5",
          "midi": 72,
          "time": 88.83715600000019,
          "velocity": 0.5039370078740157,
          "duration": 0.4408912083333263
        },
        {
          "name": "D#5",
          "midi": 75,
          "time": 88.83715600000019,
          "velocity": 0.5039370078740157,
          "duration": 0.4408912083333263
        },
        {
          "name": "D#5",
          "midi": 75,
          "time": 90.11622500000018,
          "velocity": 0.5039370078740157,
          "duration": 0.10949605833333464
        },
        {
          "name": "C5",
          "midi": 72,
          "time": 90.23250400000019,
          "velocity": 0.5039370078740157,
          "duration": 0.2199611083333366
        },
        {
          "name": "D#5",
          "midi": 75,
          "time": 90.23250400000019,
          "velocity": 0.5039370078740157,
          "duration": 0.2199611083333366
        },
        {
          "name": "F5",
          "midi": 77,
          "time": 90.46506200000019,
          "velocity": 0.5039370078740157,
          "duration": 0.10949605833333464
        },
        {
          "name": "C5",
          "midi": 72,
          "time": 90.5813410000002,
          "velocity": 0.5039370078740157,
          "duration": 0.2199611083333366
        },
        {
          "name": "G#5",
          "midi": 80,
          "time": 90.5813410000002,
          "velocity": 0.5039370078740157,
          "duration": 0.2199611083333366
        },
        {
          "name": "C5",
          "midi": 72,
          "time": 90.81389900000019,
          "velocity": 0.5039370078740157,
          "duration": 0.33042615833333855
        },
        {
          "name": "F5",
          "midi": 77,
          "time": 90.81389900000019,
          "velocity": 0.5039370078740157,
          "duration": 0.33042615833333855
        },
        {
          "name": "A#4",
          "midi": 70,
          "time": 91.1627360000002,
          "velocity": 0.5039370078740157,
          "duration": 0.6618213083333302
        },
        {
          "name": "A#5",
          "midi": 82,
          "time": 91.1627360000002,
          "velocity": 0.5039370078740157,
          "duration": 0.6618213083333302
        },
        {
          "name": "C5",
          "midi": 72,
          "time": 91.86041000000019,
          "velocity": 0.5039370078740157,
          "duration": 0.2199611083333366
        },
        {
          "name": "C6",
          "midi": 84,
          "time": 91.86041000000019,
          "velocity": 0.5039370078740157,
          "duration": 0.2199611083333366
        },
        {
          "name": "C5",
          "midi": 72,
          "time": 92.09296800000018,
          "velocity": 0.5039370078740157,
          "duration": 0.4408912083333263
        },
        {
          "name": "C6",
          "midi": 84,
          "time": 92.09296800000018,
          "velocity": 0.5039370078740157,
          "duration": 0.4408912083333263
        },
        {
          "name": "C5",
          "midi": 72,
          "time": 93.72087400000018,
          "velocity": 0.5039370078740157,
          "duration": 0.2199611083333366
        },
        {
          "name": "D#5",
          "midi": 75,
          "time": 93.72087400000018,
          "velocity": 0.5039370078740157,
          "duration": 0.2199611083333366
        },
        {
          "name": "C#5",
          "midi": 73,
          "time": 93.95343200000018,
          "velocity": 0.5039370078740157,
          "duration": 0.33042615833333855
        },
        {
          "name": "A#5",
          "midi": 82,
          "time": 93.95343200000018,
          "velocity": 0.5039370078740157,
          "duration": 0.33042615833333855
        },
        {
          "name": "C5",
          "midi": 72,
          "time": 94.30226900000018,
          "velocity": 0.5039370078740157,
          "duration": 0.10949605833333464
        },
        {
          "name": "G#5",
          "midi": 80,
          "time": 94.30226900000018,
          "velocity": 0.5039370078740157,
          "duration": 0.10949605833333464
        },
        {
          "name": "C#5",
          "midi": 73,
          "time": 94.41854800000019,
          "velocity": 0.5039370078740157,
          "duration": 0.33042615833333855
        },
        {
          "name": "A#5",
          "midi": 82,
          "time": 94.41854800000019,
          "velocity": 0.5039370078740157,
          "duration": 0.33042615833333855
        },
        {
          "name": "C5",
          "midi": 72,
          "time": 94.76738500000019,
          "velocity": 0.5039370078740157,
          "duration": 0.33042615833333855
        },
        {
          "name": "G#5",
          "midi": 80,
          "time": 94.76738500000019,
          "velocity": 0.5039370078740157,
          "duration": 0.33042615833333855
        },
        {
          "name": "C5",
          "midi": 72,
          "time": 95.5813380000002,
          "velocity": 0.5039370078740157,
          "duration": 0.2199611083333366
        },
        {
          "name": "D#5",
          "midi": 75,
          "time": 95.5813380000002,
          "velocity": 0.5039370078740157,
          "duration": 0.2199611083333366
        },
        {
          "name": "C#5",
          "midi": 73,
          "time": 95.8138960000002,
          "velocity": 0.5039370078740157,
          "duration": 0.33042615833333855
        },
        {
          "name": "A#5",
          "midi": 82,
          "time": 95.8138960000002,
          "velocity": 0.5039370078740157,
          "duration": 0.33042615833333855
        },
        {
          "name": "C5",
          "midi": 72,
          "time": 96.1627330000002,
          "velocity": 0.5039370078740157,
          "duration": 0.10949605833333464
        },
        {
          "name": "G#5",
          "midi": 80,
          "time": 96.1627330000002,
          "velocity": 0.5039370078740157,
          "duration": 0.10949605833333464
        },
        {
          "name": "C#5",
          "midi": 73,
          "time": 96.27901200000021,
          "velocity": 0.5039370078740157,
          "duration": 0.33042615833333855
        },
        {
          "name": "A#5",
          "midi": 82,
          "time": 96.27901200000021,
          "velocity": 0.5039370078740157,
          "duration": 0.33042615833333855
        },
        {
          "name": "C5",
          "midi": 72,
          "time": 96.62784900000021,
          "velocity": 0.5039370078740157,
          "duration": 0.33042615833333855
        },
        {
          "name": "G#5",
          "midi": 80,
          "time": 96.62784900000021,
          "velocity": 0.5039370078740157,
          "duration": 0.33042615833333855
        },
        {
          "name": "C5",
          "midi": 72,
          "time": 97.44180200000022,
          "velocity": 0.5039370078740157,
          "duration": 0.2199611083333366
        },
        {
          "name": "D#5",
          "midi": 75,
          "time": 97.44180200000022,
          "velocity": 0.5039370078740157,
          "duration": 0.2199611083333366
        },
        {
          "name": "C#5",
          "midi": 73,
          "time": 97.67436000000022,
          "velocity": 0.5039370078740157,
          "duration": 0.33042615833333855
        },
        {
          "name": "A#5",
          "midi": 82,
          "time": 97.67436000000022,
          "velocity": 0.5039370078740157,
          "duration": 0.33042615833333855
        },
        {
          "name": "C5",
          "midi": 72,
          "time": 98.02319700000022,
          "velocity": 0.5039370078740157,
          "duration": 0.10949605833333464
        },
        {
          "name": "G#5",
          "midi": 80,
          "time": 98.02319700000022,
          "velocity": 0.5039370078740157,
          "duration": 0.10949605833333464
        },
        {
          "name": "C#5",
          "midi": 73,
          "time": 98.13947600000023,
          "velocity": 0.5039370078740157,
          "duration": 0.33042615833333855
        },
        {
          "name": "A#5",
          "midi": 82,
          "time": 98.13947600000023,
          "velocity": 0.5039370078740157,
          "duration": 0.33042615833333855
        },
        {
          "name": "C5",
          "midi": 72,
          "time": 98.48831300000023,
          "velocity": 0.5039370078740157,
          "duration": 0.10949605833333464
        },
        {
          "name": "G#5",
          "midi": 80,
          "time": 98.48831300000023,
          "velocity": 0.5039370078740157,
          "duration": 0.10949605833333464
        },
        {
          "name": "C#5",
          "midi": 73,
          "time": 98.60459200000024,
          "velocity": 0.5039370078740157,
          "duration": 0.33042615833333855
        },
        {
          "name": "A#5",
          "midi": 82,
          "time": 98.60459200000024,
          "velocity": 0.5039370078740157,
          "duration": 0.33042615833333855
        },
        {
          "name": "C5",
          "midi": 72,
          "time": 98.95342900000024,
          "velocity": 0.5039370078740157,
          "duration": 0.10949605833333464
        },
        {
          "name": "G#5",
          "midi": 80,
          "time": 98.95342900000024,
          "velocity": 0.5039370078740157,
          "duration": 0.10949605833333464
        },
        {
          "name": "C#5",
          "midi": 73,
          "time": 99.06970800000025,
          "velocity": 0.5039370078740157,
          "duration": 0.33042615833333855
        },
        {
          "name": "A#5",
          "midi": 82,
          "time": 99.06970800000025,
          "velocity": 0.5039370078740157,
          "duration": 0.33042615833333855
        },
        {
          "name": "C5",
          "midi": 72,
          "time": 99.41854500000025,
          "velocity": 0.5039370078740157,
          "duration": 0.10949605833333464
        },
        {
          "name": "G#5",
          "midi": 80,
          "time": 99.41854500000025,
          "velocity": 0.5039370078740157,
          "duration": 0.10949605833333464
        },
        {
          "name": "G#4",
          "midi": 68,
          "time": 99.53482400000026,
          "velocity": 0.5039370078740157,
          "duration": 1.7374020583333163
        },
        {
          "name": "D#5",
          "midi": 75,
          "time": 99.53482400000026,
          "velocity": 0.5039370078740157,
          "duration": 0.6618213083333302
        },
        {
          "name": "C5",
          "midi": 72,
          "time": 100.23249800000025,
          "velocity": 0.5039370078740157,
          "duration": 0.4408912083333263
        },
        {
          "name": "G#5",
          "midi": 80,
          "time": 100.23249800000025,
          "velocity": 0.5039370078740157,
          "duration": 0.4408912083333263
        },
        {
          "name": "G#4",
          "midi": 68,
          "time": 101.16273000000024,
          "velocity": 0.5039370078740157,
          "duration": 0.22577505833334044
        },
        {
          "name": "D#5",
          "midi": 75,
          "time": 101.16273000000024,
          "velocity": 0.5039370078740157,
          "duration": 0.10949605833333464
        },
        {
          "name": "G#4",
          "midi": 68,
          "time": 101.27900900000024,
          "velocity": 0.5039370078740157,
          "duration": 0.3362401083333424
        },
        {
          "name": "D#5",
          "midi": 75,
          "time": 101.27900900000024,
          "velocity": 0.5039370078740157,
          "duration": 0.10949605833333464
        },
        {
          "name": "G#4",
          "midi": 68,
          "time": 101.39528800000025,
          "velocity": 0.5039370078740157,
          "duration": 0.452519108333334
        },
        {
          "name": "D#5",
          "midi": 75,
          "time": 101.39528800000025,
          "velocity": 0.5039370078740157,
          "duration": 0.2199611083333366
        },
        {
          "name": "G#4",
          "midi": 68,
          "time": 101.62784600000025,
          "velocity": 0.5039370078740157,
          "duration": 1.504844058333319
        },
        {
          "name": "D#5",
          "midi": 75,
          "time": 101.62784600000025,
          "velocity": 0.5039370078740157,
          "duration": 0.2199611083333366
        },
        {
          "name": "A#4",
          "midi": 70,
          "time": 101.86040400000024,
          "velocity": 0.5039370078740157,
          "duration": 0.4408912083333263
        },
        {
          "name": "F5",
          "midi": 77,
          "time": 101.86040400000024,
          "velocity": 0.5039370078740157,
          "duration": 0.4408912083333263
        },
        {
          "name": "G#4",
          "midi": 68,
          "time": 103.02319400000023,
          "velocity": 0.5039370078740157,
          "duration": 0.22577505833334044
        },
        {
          "name": "D#5",
          "midi": 75,
          "time": 103.02319400000023,
          "velocity": 0.5039370078740157,
          "duration": 0.10949605833333464
        },
        {
          "name": "G#4",
          "midi": 68,
          "time": 103.13947300000024,
          "velocity": 0.5039370078740157,
          "duration": 0.3362401083333424
        },
        {
          "name": "D#5",
          "midi": 75,
          "time": 103.13947300000024,
          "velocity": 0.5039370078740157,
          "duration": 0.10949605833333464
        },
        {
          "name": "G#4",
          "midi": 68,
          "time": 103.25575200000024,
          "velocity": 0.5039370078740157,
          "duration": 1.1443791583333365
        },
        {
          "name": "D#5",
          "midi": 75,
          "time": 103.25575200000024,
          "velocity": 0.5039370078740157,
          "duration": 0.2199611083333366
        },
        {
          "name": "A#4",
          "midi": 70,
          "time": 103.48831000000024,
          "velocity": 0.5039370078740157,
          "duration": 0.2199611083333366
        },
        {
          "name": "F5",
          "midi": 77,
          "time": 103.48831000000024,
          "velocity": 0.5039370078740157,
          "duration": 0.2199611083333366
        },
        {
          "name": "A#4",
          "midi": 70,
          "time": 103.72086800000024,
          "velocity": 0.5039370078740157,
          "duration": 0.33042615833333855
        },
        {
          "name": "F5",
          "midi": 77,
          "time": 103.72086800000024,
          "velocity": 0.5039370078740157,
          "duration": 0.33042615833333855
        },
        {
          "name": "G#4",
          "midi": 68,
          "time": 104.06970500000024,
          "velocity": 0.5039370078740157,
          "duration": 0.9234490583333468
        },
        {
          "name": "D#5",
          "midi": 75,
          "time": 104.06970500000024,
          "velocity": 0.5039370078740157,
          "duration": 0.33042615833333855
        },
        {
          "name": "G#4",
          "midi": 68,
          "time": 104.88365800000025,
          "velocity": 0.5039370078740157,
          "duration": 0.22577505833334044
        },
        {
          "name": "D#5",
          "midi": 75,
          "time": 104.88365800000025,
          "velocity": 0.5039370078740157,
          "duration": 0.10949605833333464
        },
        {
          "name": "G#4",
          "midi": 68,
          "time": 104.99993700000026,
          "velocity": 0.5039370078740157,
          "duration": 0.3362401083333424
        },
        {
          "name": "D#5",
          "midi": 75,
          "time": 104.99993700000026,
          "velocity": 0.5039370078740157,
          "duration": 0.10949605833333464
        },
        {
          "name": "G#4",
          "midi": 68,
          "time": 105.11621600000026,
          "velocity": 0.5039370078740157,
          "duration": 1.1443791583333365
        },
        {
          "name": "D#5",
          "midi": 75,
          "time": 105.11621600000026,
          "velocity": 0.5039370078740157,
          "duration": 0.2199611083333366
        },
        {
          "name": "A#4",
          "midi": 70,
          "time": 105.34877400000026,
          "velocity": 0.5039370078740157,
          "duration": 0.2199611083333366
        },
        {
          "name": "F5",
          "midi": 77,
          "time": 105.34877400000026,
          "velocity": 0.5039370078740157,
          "duration": 0.2199611083333366
        },
        {
          "name": "A#4",
          "midi": 70,
          "time": 105.58133200000026,
          "velocity": 0.5039370078740157,
          "duration": 0.33042615833333855
        },
        {
          "name": "F5",
          "midi": 77,
          "time": 105.58133200000026,
          "velocity": 0.5039370078740157,
          "duration": 0.33042615833333855
        },
        {
          "name": "G#4",
          "midi": 68,
          "time": 105.93016900000026,
          "velocity": 0.5039370078740157,
          "duration": 1.0339141083333487
        },
        {
          "name": "D#5",
          "midi": 75,
          "time": 105.93016900000026,
          "velocity": 0.5039370078740157,
          "duration": 0.33042615833333855
        },
        {
          "name": "G#4",
          "midi": 68,
          "time": 106.74412200000027,
          "velocity": 0.5039370078740157,
          "duration": 0.452519108333334
        },
        {
          "name": "D#5",
          "midi": 75,
          "time": 106.74412200000027,
          "velocity": 0.5039370078740157,
          "duration": 0.2199611083333366
        },
        {
          "name": "G#4",
          "midi": 68,
          "time": 106.97668000000027,
          "velocity": 0.5039370078740157,
          "duration": 1.8478671083333325
        },
        {
          "name": "D#5",
          "midi": 75,
          "time": 106.97668000000027,
          "velocity": 0.5039370078740157,
          "duration": 0.2199611083333366
        },
        {
          "name": "A#4",
          "midi": 70,
          "time": 107.20923800000027,
          "velocity": 0.5039370078740157,
          "duration": 0.2199611083333366
        },
        {
          "name": "F5",
          "midi": 77,
          "time": 107.20923800000027,
          "velocity": 0.5039370078740157,
          "duration": 0.2199611083333366
        },
        {
          "name": "C5",
          "midi": 72,
          "time": 107.44179600000027,
          "velocity": 0.5039370078740157,
          "duration": 0.2199611083333366
        },
        {
          "name": "G#5",
          "midi": 80,
          "time": 107.44179600000027,
          "velocity": 0.5039370078740157,
          "duration": 0.2199611083333366
        },
        {
          "name": "C5",
          "midi": 72,
          "time": 107.67435400000026,
          "velocity": 0.5039370078740157,
          "duration": 0.2199611083333366
        },
        {
          "name": "G#5",
          "midi": 80,
          "time": 107.67435400000026,
          "velocity": 0.5039370078740157,
          "duration": 0.2199611083333366
        },
        {
          "name": "G#4",
          "midi": 68,
          "time": 108.60458600000027,
          "velocity": 0.5039370078740157,
          "duration": 0.452519108333334
        },
        {
          "name": "D#5",
          "midi": 75,
          "time": 108.60458600000027,
          "velocity": 0.5039370078740157,
          "duration": 0.2199611083333366
        },
        {
          "name": "G#4",
          "midi": 68,
          "time": 108.83714400000027,
          "velocity": 0.5039370078740157,
          "duration": 4.638563108333329
        },
        {
          "name": "D#5",
          "midi": 75,
          "time": 108.83714400000027,
          "velocity": 0.5039370078740157,
          "duration": 0.2199611083333366
        },
        {
          "name": "A#4",
          "midi": 70,
          "time": 109.06970200000026,
          "velocity": 0.5039370078740157,
          "duration": 0.2199611083333366
        },
        {
          "name": "F5",
          "midi": 77,
          "time": 109.06970200000026,
          "velocity": 0.5039370078740157,
          "duration": 0.2199611083333366
        },
        {
          "name": "C5",
          "midi": 72,
          "time": 109.30226000000026,
          "velocity": 0.5039370078740157,
          "duration": 0.4408912083333263
        },
        {
          "name": "G#5",
          "midi": 80,
          "time": 109.30226000000026,
          "velocity": 0.5039370078740157,
          "duration": 0.4408912083333263
        },
        {
          "name": "F5",
          "midi": 77,
          "time": 109.76737600000025,
          "velocity": 0.5039370078740157,
          "duration": 0.33042615833333855
        },
        {
          "name": "C6",
          "midi": 84,
          "time": 109.76737600000025,
          "velocity": 0.5039370078740157,
          "duration": 0.33042615833333855
        },
        {
          "name": "F5",
          "midi": 77,
          "time": 110.11621300000026,
          "velocity": 0.5039370078740157,
          "duration": 0.33042615833333855
        },
        {
          "name": "C6",
          "midi": 84,
          "time": 110.11621300000026,
          "velocity": 0.5039370078740157,
          "duration": 0.33042615833333855
        },
        {
          "name": "D#5",
          "midi": 75,
          "time": 111.62784000000026,
          "velocity": 0.5039370078740157,
          "duration": 0.2199611083333366
        },
        {
          "name": "C6",
          "midi": 84,
          "time": 111.62784000000026,
          "velocity": 0.5039370078740157,
          "duration": 0.2199611083333366
        },
        {
          "name": "D#5",
          "midi": 75,
          "time": 111.86039800000026,
          "velocity": 0.5039370078740157,
          "duration": 0.10949605833333464
        },
        {
          "name": "C6",
          "midi": 84,
          "time": 111.86039800000026,
          "velocity": 0.5039370078740157,
          "duration": 0.10949605833333464
        },
        {
          "name": "D#5",
          "midi": 75,
          "time": 111.97667700000027,
          "velocity": 0.5039370078740157,
          "duration": 0.2199611083333366
        },
        {
          "name": "C6",
          "midi": 84,
          "time": 111.97667700000027,
          "velocity": 0.5039370078740157,
          "duration": 0.2199611083333366
        },
        {
          "name": "C#5",
          "midi": 73,
          "time": 112.20923500000026,
          "velocity": 0.5039370078740157,
          "duration": 0.10949605833333464
        },
        {
          "name": "A#5",
          "midi": 82,
          "time": 112.20923500000026,
          "velocity": 0.5039370078740157,
          "duration": 0.10949605833333464
        },
        {
          "name": "C#5",
          "midi": 73,
          "time": 112.32551400000027,
          "velocity": 0.5039370078740157,
          "duration": 0.2199611083333366
        },
        {
          "name": "A#5",
          "midi": 82,
          "time": 112.32551400000027,
          "velocity": 0.5039370078740157,
          "duration": 0.2199611083333366
        },
        {
          "name": "C#5",
          "midi": 73,
          "time": 112.55807200000027,
          "velocity": 0.5039370078740157,
          "duration": 0.2199611083333366
        },
        {
          "name": "A#5",
          "midi": 82,
          "time": 112.55807200000027,
          "velocity": 0.5039370078740157,
          "duration": 0.2199611083333366
        },
        {
          "name": "C5",
          "midi": 72,
          "time": 112.79063000000026,
          "velocity": 0.5039370078740157,
          "duration": 0.2199611083333366
        },
        {
          "name": "G#5",
          "midi": 80,
          "time": 112.79063000000026,
          "velocity": 0.5039370078740157,
          "duration": 0.2199611083333366
        },
        {
          "name": "C5",
          "midi": 72,
          "time": 113.02318800000026,
          "velocity": 0.5039370078740157,
          "duration": 0.2199611083333366
        },
        {
          "name": "G#5",
          "midi": 80,
          "time": 113.02318800000026,
          "velocity": 0.5039370078740157,
          "duration": 0.2199611083333366
        },
        {
          "name": "G#4",
          "midi": 68,
          "time": 113.25574600000026,
          "velocity": 0.5039370078740157,
          "duration": 3.9408891083333373
        },
        {
          "name": "D#5",
          "midi": 75,
          "time": 113.25574600000026,
          "velocity": 0.5039370078740157,
          "duration": 0.2199611083333366
        },
        {
          "name": "C#5",
          "midi": 73,
          "time": 113.48830400000026,
          "velocity": 0.5039370078740157,
          "duration": 0.33042615833333855
        },
        {
          "name": "A#5",
          "midi": 82,
          "time": 113.48830400000026,
          "velocity": 0.5039370078740157,
          "duration": 0.33042615833333855
        },
        {
          "name": "C#5",
          "midi": 73,
          "time": 113.83714100000026,
          "velocity": 0.5039370078740157,
          "duration": 0.33042615833333855
        },
        {
          "name": "A#5",
          "midi": 82,
          "time": 113.83714100000026,
          "velocity": 0.5039370078740157,
          "duration": 0.33042615833333855
        },
        {
          "name": "D#5",
          "midi": 75,
          "time": 115.34876800000026,
          "velocity": 0.5039370078740157,
          "duration": 0.2199611083333366
        },
        {
          "name": "C6",
          "midi": 84,
          "time": 115.34876800000026,
          "velocity": 0.5039370078740157,
          "duration": 0.2199611083333366
        },
        {
          "name": "D#5",
          "midi": 75,
          "time": 115.58132600000026,
          "velocity": 0.5039370078740157,
          "duration": 0.10949605833333464
        },
        {
          "name": "C6",
          "midi": 84,
          "time": 115.58132600000026,
          "velocity": 0.5039370078740157,
          "duration": 0.10949605833333464
        },
        {
          "name": "D#5",
          "midi": 75,
          "time": 115.69760500000027,
          "velocity": 0.5039370078740157,
          "duration": 0.2199611083333366
        },
        {
          "name": "C6",
          "midi": 84,
          "time": 115.69760500000027,
          "velocity": 0.5039370078740157,
          "duration": 0.2199611083333366
        },
        {
          "name": "C#5",
          "midi": 73,
          "time": 115.93016300000026,
          "velocity": 0.5039370078740157,
          "duration": 0.10949605833333464
        },
        {
          "name": "A#5",
          "midi": 82,
          "time": 115.93016300000026,
          "velocity": 0.5039370078740157,
          "duration": 0.10949605833333464
        },
        {
          "name": "C#5",
          "midi": 73,
          "time": 116.04644200000027,
          "velocity": 0.5039370078740157,
          "duration": 0.2199611083333366
        },
        {
          "name": "A#5",
          "midi": 82,
          "time": 116.04644200000027,
          "velocity": 0.5039370078740157,
          "duration": 0.2199611083333366
        },
        {
          "name": "C#5",
          "midi": 73,
          "time": 116.27900000000027,
          "velocity": 0.5039370078740157,
          "duration": 0.2199611083333366
        },
        {
          "name": "A#5",
          "midi": 82,
          "time": 116.27900000000027,
          "velocity": 0.5039370078740157,
          "duration": 0.2199611083333366
        },
        {
          "name": "C5",
          "midi": 72,
          "time": 116.51155800000026,
          "velocity": 0.5039370078740157,
          "duration": 0.2199611083333366
        },
        {
          "name": "G#5",
          "midi": 80,
          "time": 116.51155800000026,
          "velocity": 0.5039370078740157,
          "duration": 0.2199611083333366
        },
        {
          "name": "C5",
          "midi": 72,
          "time": 116.74411600000026,
          "velocity": 0.5039370078740157,
          "duration": 0.2199611083333366
        },
        {
          "name": "G#5",
          "midi": 80,
          "time": 116.74411600000026,
          "velocity": 0.5039370078740157,
          "duration": 0.2199611083333366
        },
        {
          "name": "G#4",
          "midi": 68,
          "time": 116.97667400000026,
          "velocity": 0.5039370078740157,
          "duration": 6.731585108333334
        },
        {
          "name": "D#5",
          "midi": 75,
          "time": 116.97667400000026,
          "velocity": 0.5039370078740157,
          "duration": 0.2199611083333366
        },
        {
          "name": "C#5",
          "midi": 73,
          "time": 117.20923200000026,
          "velocity": 0.5039370078740157,
          "duration": 0.33042615833333855
        },
        {
          "name": "A#5",
          "midi": 82,
          "time": 117.20923200000026,
          "velocity": 0.5039370078740157,
          "duration": 0.33042615833333855
        },
        {
          "name": "C5",
          "midi": 72,
          "time": 117.55806900000026,
          "velocity": 0.5039370078740157,
          "duration": 0.33042615833333855
        },
        {
          "name": "G#5",
          "midi": 80,
          "time": 117.55806900000026,
          "velocity": 0.5039370078740157,
          "duration": 0.33042615833333855
        },
        {
          "name": "C5",
          "midi": 72,
          "time": 118.60458000000027,
          "velocity": 0.5039370078740157,
          "duration": 0.10949605833333464
        },
        {
          "name": "G#5",
          "midi": 80,
          "time": 118.60458000000027,
          "velocity": 0.5039370078740157,
          "duration": 0.10949605833333464
        },
        {
          "name": "C#5",
          "midi": 73,
          "time": 118.72085900000027,
          "velocity": 0.5039370078740157,
          "duration": 0.10949605833333464
        },
        {
          "name": "A#5",
          "midi": 82,
          "time": 118.72085900000027,
          "velocity": 0.5039370078740157,
          "duration": 0.10949605833333464
        },
        {
          "name": "D#5",
          "midi": 75,
          "time": 118.83713800000028,
          "velocity": 0.5039370078740157,
          "duration": 0.2199611083333366
        },
        {
          "name": "C6",
          "midi": 84,
          "time": 118.83713800000028,
          "velocity": 0.5039370078740157,
          "duration": 0.2199611083333366
        },
        {
          "name": "E5",
          "midi": 76,
          "time": 119.06969600000028,
          "velocity": 0.5039370078740157,
          "duration": 0.4408912083333263
        },
        {
          "name": "C#6",
          "midi": 85,
          "time": 119.06969600000028,
          "velocity": 0.5039370078740157,
          "duration": 0.4408912083333263
        },
        {
          "name": "D#5",
          "midi": 75,
          "time": 119.53481200000027,
          "velocity": 0.5039370078740157,
          "duration": 0.2199611083333366
        },
        {
          "name": "C6",
          "midi": 84,
          "time": 119.53481200000027,
          "velocity": 0.5039370078740157,
          "duration": 0.2199611083333366
        },
        {
          "name": "C#5",
          "midi": 73,
          "time": 119.76737000000027,
          "velocity": 0.5039370078740157,
          "duration": 0.2199611083333366
        },
        {
          "name": "A#5",
          "midi": 82,
          "time": 119.76737000000027,
          "velocity": 0.5039370078740157,
          "duration": 0.2199611083333366
        },
        {
          "name": "C5",
          "midi": 72,
          "time": 119.99992800000027,
          "velocity": 0.5039370078740157,
          "duration": 0.4408912083333263
        },
        {
          "name": "G#5",
          "midi": 80,
          "time": 119.99992800000027,
          "velocity": 0.5039370078740157,
          "duration": 0.4408912083333263
        },
        {
          "name": "C#5",
          "midi": 73,
          "time": 120.46504400000026,
          "velocity": 0.5039370078740157,
          "duration": 0.4408912083333263
        },
        {
          "name": "A#5",
          "midi": 82,
          "time": 120.46504400000026,
          "velocity": 0.5039370078740157,
          "duration": 0.4408912083333263
        },
        {
          "name": "C5",
          "midi": 72,
          "time": 121.62783400000025,
          "velocity": 0.5039370078740157,
          "duration": 0.2199611083333366
        },
        {
          "name": "F5",
          "midi": 77,
          "time": 121.62783400000025,
          "velocity": 0.5039370078740157,
          "duration": 0.2199611083333366
        },
        {
          "name": "C#5",
          "midi": 73,
          "time": 121.86039200000025,
          "velocity": 0.5039370078740157,
          "duration": 0.2199611083333366
        },
        {
          "name": "G#5",
          "midi": 80,
          "time": 121.86039200000025,
          "velocity": 0.5039370078740157,
          "duration": 0.2199611083333366
        },
        {
          "name": "D#5",
          "midi": 75,
          "time": 122.09295000000024,
          "velocity": 0.5039370078740157,
          "duration": 0.2199611083333366
        },
        {
          "name": "A#5",
          "midi": 82,
          "time": 122.09295000000024,
          "velocity": 0.5039370078740157,
          "duration": 0.2199611083333366
        },
        {
          "name": "D#5",
          "midi": 75,
          "time": 122.32550800000024,
          "velocity": 0.5039370078740157,
          "duration": 0.2199611083333366
        },
        {
          "name": "A#5",
          "midi": 82,
          "time": 122.32550800000024,
          "velocity": 0.5039370078740157,
          "duration": 0.2199611083333366
        },
        {
          "name": "G#5",
          "midi": 80,
          "time": 122.55806600000024,
          "velocity": 0.5039370078740157,
          "duration": 0.10949605833333464
        },
        {
          "name": "G5",
          "midi": 79,
          "time": 122.67434500000024,
          "velocity": 0.5039370078740157,
          "duration": 0.10949605833333464
        },
        {
          "name": "F5",
          "midi": 77,
          "time": 122.79062400000025,
          "velocity": 0.5039370078740157,
          "duration": 0.2199611083333366
        },
        {
          "name": "G#4",
          "midi": 68,
          "time": 123.48829800000026,
          "velocity": 0.5039370078740157,
          "duration": 0.452519108333334
        },
        {
          "name": "D#5",
          "midi": 75,
          "time": 123.48829800000026,
          "velocity": 0.5039370078740157,
          "duration": 0.2199611083333366
        },
        {
          "name": "G#4",
          "midi": 68,
          "time": 123.72085600000025,
          "velocity": 0.5039370078740157,
          "duration": 4.638563108333329
        },
        {
          "name": "D#5",
          "midi": 75,
          "time": 123.72085600000025,
          "velocity": 0.5039370078740157,
          "duration": 0.2199611083333366
        },
        {
          "name": "A#4",
          "midi": 70,
          "time": 123.95341400000025,
          "velocity": 0.5039370078740157,
          "duration": 0.2199611083333366
        },
        {
          "name": "F5",
          "midi": 77,
          "time": 123.95341400000025,
          "velocity": 0.5039370078740157,
          "duration": 0.2199611083333366
        },
        {
          "name": "C5",
          "midi": 72,
          "time": 124.18597200000025,
          "velocity": 0.5039370078740157,
          "duration": 0.4408912083333263
        },
        {
          "name": "G#5",
          "midi": 80,
          "time": 124.18597200000025,
          "velocity": 0.5039370078740157,
          "duration": 0.4408912083333263
        },
        {
          "name": "F5",
          "midi": 77,
          "time": 124.65108800000024,
          "velocity": 0.5039370078740157,
          "duration": 0.33042615833333855
        },
        {
          "name": "C6",
          "midi": 84,
          "time": 124.65108800000024,
          "velocity": 0.5039370078740157,
          "duration": 0.33042615833333855
        },
        {
          "name": "F5",
          "midi": 77,
          "time": 124.99992500000025,
          "velocity": 0.5039370078740157,
          "duration": 0.33042615833333855
        },
        {
          "name": "C6",
          "midi": 84,
          "time": 124.99992500000025,
          "velocity": 0.5039370078740157,
          "duration": 0.33042615833333855
        },
        {
          "name": "D#5",
          "midi": 75,
          "time": 126.51155200000025,
          "velocity": 0.5039370078740157,
          "duration": 0.2199611083333366
        },
        {
          "name": "C6",
          "midi": 84,
          "time": 126.51155200000025,
          "velocity": 0.5039370078740157,
          "duration": 0.2199611083333366
        },
        {
          "name": "D#5",
          "midi": 75,
          "time": 126.74411000000025,
          "velocity": 0.5039370078740157,
          "duration": 0.10949605833333464
        },
        {
          "name": "C6",
          "midi": 84,
          "time": 126.74411000000025,
          "velocity": 0.5039370078740157,
          "duration": 0.10949605833333464
        },
        {
          "name": "D#5",
          "midi": 75,
          "time": 126.86038900000025,
          "velocity": 0.5039370078740157,
          "duration": 0.2199611083333366
        },
        {
          "name": "C6",
          "midi": 84,
          "time": 126.86038900000025,
          "velocity": 0.5039370078740157,
          "duration": 0.2199611083333366
        },
        {
          "name": "C#5",
          "midi": 73,
          "time": 127.09294700000025,
          "velocity": 0.5039370078740157,
          "duration": 0.10949605833333464
        },
        {
          "name": "A#5",
          "midi": 82,
          "time": 127.09294700000025,
          "velocity": 0.5039370078740157,
          "duration": 0.10949605833333464
        },
        {
          "name": "C#5",
          "midi": 73,
          "time": 127.20922600000026,
          "velocity": 0.5039370078740157,
          "duration": 0.2199611083333366
        },
        {
          "name": "A#5",
          "midi": 82,
          "time": 127.20922600000026,
          "velocity": 0.5039370078740157,
          "duration": 0.2199611083333366
        },
        {
          "name": "C#5",
          "midi": 73,
          "time": 127.44178400000025,
          "velocity": 0.5039370078740157,
          "duration": 0.2199611083333366
        },
        {
          "name": "A#5",
          "midi": 82,
          "time": 127.44178400000025,
          "velocity": 0.5039370078740157,
          "duration": 0.2199611083333366
        },
        {
          "name": "C5",
          "midi": 72,
          "time": 127.67434200000025,
          "velocity": 0.5039370078740157,
          "duration": 0.2199611083333366
        },
        {
          "name": "G#5",
          "midi": 80,
          "time": 127.67434200000025,
          "velocity": 0.5039370078740157,
          "duration": 0.2199611083333366
        },
        {
          "name": "C5",
          "midi": 72,
          "time": 127.90690000000025,
          "velocity": 0.5039370078740157,
          "duration": 0.21996110833332239
        },
        {
          "name": "G#5",
          "midi": 80,
          "time": 127.90690000000025,
          "velocity": 0.5039370078740157,
          "duration": 0.21996110833332239
        },
        {
          "name": "G#4",
          "midi": 68,
          "time": 128.13945800000025,
          "velocity": 0.5039370078740157,
          "duration": 3.9408891083334083
        },
        {
          "name": "D#5",
          "midi": 75,
          "time": 128.13945800000025,
          "velocity": 0.5039370078740157,
          "duration": 0.2199611083333366
        },
        {
          "name": "C#5",
          "midi": 73,
          "time": 128.37201600000026,
          "velocity": 0.5039370078740157,
          "duration": 0.33042615833332434
        },
        {
          "name": "A#5",
          "midi": 82,
          "time": 128.37201600000026,
          "velocity": 0.5039370078740157,
          "duration": 0.33042615833332434
        },
        {
          "name": "C#5",
          "midi": 73,
          "time": 128.72085300000026,
          "velocity": 0.5039370078740157,
          "duration": 0.33042615833332434
        },
        {
          "name": "A#5",
          "midi": 82,
          "time": 128.72085300000026,
          "velocity": 0.5039370078740157,
          "duration": 0.33042615833332434
        },
        {
          "name": "D#5",
          "midi": 75,
          "time": 130.23248000000027,
          "velocity": 0.5039370078740157,
          "duration": 0.2199611083333366
        },
        {
          "name": "C6",
          "midi": 84,
          "time": 130.23248000000027,
          "velocity": 0.5039370078740157,
          "duration": 0.2199611083333366
        },
        {
          "name": "D#5",
          "midi": 75,
          "time": 130.46503800000028,
          "velocity": 0.5039370078740157,
          "duration": 0.10949605833332043
        },
        {
          "name": "C6",
          "midi": 84,
          "time": 130.46503800000028,
          "velocity": 0.5039370078740157,
          "duration": 0.10949605833332043
        },
        {
          "name": "D#5",
          "midi": 75,
          "time": 130.58131700000027,
          "velocity": 0.5039370078740157,
          "duration": 0.2199611083333366
        },
        {
          "name": "C6",
          "midi": 84,
          "time": 130.58131700000027,
          "velocity": 0.5039370078740157,
          "duration": 0.2199611083333366
        },
        {
          "name": "C#5",
          "midi": 73,
          "time": 130.81387500000028,
          "velocity": 0.5039370078740157,
          "duration": 0.10949605833332043
        },
        {
          "name": "A#5",
          "midi": 82,
          "time": 130.81387500000028,
          "velocity": 0.5039370078740157,
          "duration": 0.10949605833332043
        },
        {
          "name": "C#5",
          "midi": 73,
          "time": 130.93015400000027,
          "velocity": 0.5039370078740157,
          "duration": 0.2199611083333366
        },
        {
          "name": "A#5",
          "midi": 82,
          "time": 130.93015400000027,
          "velocity": 0.5039370078740157,
          "duration": 0.2199611083333366
        },
        {
          "name": "C#5",
          "midi": 73,
          "time": 131.16271200000028,
          "velocity": 0.5039370078740157,
          "duration": 0.2199611083333366
        },
        {
          "name": "A#5",
          "midi": 82,
          "time": 131.16271200000028,
          "velocity": 0.5039370078740157,
          "duration": 0.2199611083333366
        },
        {
          "name": "C5",
          "midi": 72,
          "time": 131.3952700000003,
          "velocity": 0.5039370078740157,
          "duration": 0.2199611083333366
        },
        {
          "name": "G#5",
          "midi": 80,
          "time": 131.3952700000003,
          "velocity": 0.5039370078740157,
          "duration": 0.2199611083333366
        },
        {
          "name": "C5",
          "midi": 72,
          "time": 131.6278280000003,
          "velocity": 0.5039370078740157,
          "duration": 0.2199611083333366
        },
        {
          "name": "G#5",
          "midi": 80,
          "time": 131.6278280000003,
          "velocity": 0.5039370078740157,
          "duration": 0.2199611083333366
        },
        {
          "name": "G#4",
          "midi": 68,
          "time": 131.86038600000032,
          "velocity": 0.5039370078740157,
          "duration": 10.109490058333364
        },
        {
          "name": "D#5",
          "midi": 75,
          "time": 131.86038600000032,
          "velocity": 0.5039370078740157,
          "duration": 0.2199611083333366
        },
        {
          "name": "C#5",
          "midi": 73,
          "time": 132.09294400000033,
          "velocity": 0.5039370078740157,
          "duration": 0.33042615833332434
        },
        {
          "name": "A#5",
          "midi": 82,
          "time": 132.09294400000033,
          "velocity": 0.5039370078740157,
          "duration": 0.33042615833332434
        },
        {
          "name": "C5",
          "midi": 72,
          "time": 132.44178100000033,
          "velocity": 0.5039370078740157,
          "duration": 0.33042615833332434
        },
        {
          "name": "G#5",
          "midi": 80,
          "time": 132.44178100000033,
          "velocity": 0.5039370078740157,
          "duration": 0.33042615833332434
        },
        {
          "name": "C5",
          "midi": 72,
          "time": 133.4882920000003,
          "velocity": 0.5039370078740157,
          "duration": 0.10949605833332043
        },
        {
          "name": "G#5",
          "midi": 80,
          "time": 133.4882920000003,
          "velocity": 0.5039370078740157,
          "duration": 0.10949605833332043
        },
        {
          "name": "C#5",
          "midi": 73,
          "time": 133.6045710000003,
          "velocity": 0.5039370078740157,
          "duration": 0.10949605833332043
        },
        {
          "name": "A#5",
          "midi": 82,
          "time": 133.6045710000003,
          "velocity": 0.5039370078740157,
          "duration": 0.10949605833332043
        },
        {
          "name": "D#5",
          "midi": 75,
          "time": 133.7208500000003,
          "velocity": 0.5039370078740157,
          "duration": 0.2199611083333366
        },
        {
          "name": "C6",
          "midi": 84,
          "time": 133.7208500000003,
          "velocity": 0.5039370078740157,
          "duration": 0.2199611083333366
        },
        {
          "name": "E5",
          "midi": 76,
          "time": 133.9534080000003,
          "velocity": 0.5039370078740157,
          "duration": 0.4408912083333405
        },
        {
          "name": "C#6",
          "midi": 85,
          "time": 133.9534080000003,
          "velocity": 0.5039370078740157,
          "duration": 0.4408912083333405
        },
        {
          "name": "D#5",
          "midi": 75,
          "time": 134.4185240000003,
          "velocity": 0.5039370078740157,
          "duration": 0.2199611083333366
        },
        {
          "name": "C6",
          "midi": 84,
          "time": 134.4185240000003,
          "velocity": 0.5039370078740157,
          "duration": 0.2199611083333366
        },
        {
          "name": "C#5",
          "midi": 73,
          "time": 134.65108200000032,
          "velocity": 0.5039370078740157,
          "duration": 0.2199611083333366
        },
        {
          "name": "A#5",
          "midi": 82,
          "time": 134.65108200000032,
          "velocity": 0.5039370078740157,
          "duration": 0.2199611083333366
        },
        {
          "name": "C5",
          "midi": 72,
          "time": 134.88364000000033,
          "velocity": 0.5039370078740157,
          "duration": 0.4408912083333405
        },
        {
          "name": "G#5",
          "midi": 80,
          "time": 134.88364000000033,
          "velocity": 0.5039370078740157,
          "duration": 0.4408912083333405
        },
        {
          "name": "C#5",
          "midi": 73,
          "time": 135.34875600000032,
          "velocity": 0.5039370078740157,
          "duration": 0.4408912083333405
        },
        {
          "name": "A#5",
          "midi": 82,
          "time": 135.34875600000032,
          "velocity": 0.5039370078740157,
          "duration": 0.4408912083333405
        },
        {
          "name": "C5",
          "midi": 72,
          "time": 136.51154600000032,
          "velocity": 0.5039370078740157,
          "duration": 0.2199611083333366
        },
        {
          "name": "G#5",
          "midi": 80,
          "time": 136.51154600000032,
          "velocity": 0.5039370078740157,
          "duration": 0.2199611083333366
        },
        {
          "name": "C5",
          "midi": 72,
          "time": 136.74410400000033,
          "velocity": 0.5039370078740157,
          "duration": 0.4408912083333405
        },
        {
          "name": "G#5",
          "midi": 80,
          "time": 136.74410400000033,
          "velocity": 0.5039370078740157,
          "duration": 0.4408912083333405
        },
        {
          "name": "C#5",
          "midi": 73,
          "time": 137.20922000000033,
          "velocity": 0.5039370078740157,
          "duration": 0.4408912083333405
        },
        {
          "name": "A#5",
          "midi": 82,
          "time": 137.20922000000033,
          "velocity": 0.5039370078740157,
          "duration": 0.4408912083333405
        },
        {
          "name": "C5",
          "midi": 72,
          "time": 138.37201000000033,
          "velocity": 0.5039370078740157,
          "duration": 0.2199611083333366
        },
        {
          "name": "G#5",
          "midi": 80,
          "time": 138.37201000000033,
          "velocity": 0.5039370078740157,
          "duration": 0.2199611083333366
        },
        {
          "name": "C5",
          "midi": 72,
          "time": 138.60456800000034,
          "velocity": 0.5039370078740157,
          "duration": 0.4408912083333405
        },
        {
          "name": "G#5",
          "midi": 80,
          "time": 138.60456800000034,
          "velocity": 0.5039370078740157,
          "duration": 0.4408912083333405
        },
        {
          "name": "C#5",
          "midi": 73,
          "time": 139.06968400000034,
          "velocity": 0.5039370078740157,
          "duration": 0.4408912083333405
        },
        {
          "name": "A#5",
          "midi": 82,
          "time": 139.06968400000034,
          "velocity": 0.5039370078740157,
          "duration": 0.4408912083333405
        },
        {
          "name": "C#5",
          "midi": 73,
          "time": 139.53480000000033,
          "velocity": 0.5039370078740157,
          "duration": 0.33042615833332434
        },
        {
          "name": "A#5",
          "midi": 82,
          "time": 139.53480000000033,
          "velocity": 0.5039370078740157,
          "duration": 0.33042615833332434
        },
        {
          "name": "C5",
          "midi": 72,
          "time": 139.88363700000033,
          "velocity": 0.5039370078740157,
          "duration": 0.6618213083333444
        },
        {
          "name": "G#5",
          "midi": 80,
          "time": 139.88363700000033,
          "velocity": 0.5039370078740157,
          "duration": 0.6618213083333444
        },
        {
          "name": "C#5",
          "midi": 73,
          "time": 141.16270600000036,
          "velocity": 0.5039370078740157,
          "duration": 0.4408912083333405
        },
        {
          "name": "G#4",
          "midi": 68,
          "time": 141.86038000000036,
          "velocity": 0.5039370078740157,
          "duration": 0.5746120583332868
        },
        {
          "name": "C#5",
          "midi": 73,
          "time": 141.86038000000036,
          "velocity": 0.5039370078740157,
          "duration": 0.10949605833332043
        },
        {
          "name": "C5",
          "midi": 72,
          "time": 141.97665900000035,
          "velocity": 0.5039370078740157,
          "duration": 0.10949605833332043
        },
        {
          "name": "G#4",
          "midi": 68,
          "time": 142.32549600000033,
          "velocity": 0.5039370078740157,
          "duration": 0.5746120583332868
        },
        {
          "name": "C#5",
          "midi": 73,
          "time": 142.32549600000033,
          "velocity": 0.5039370078740157,
          "duration": 0.10949605833332043
        },
        {
          "name": "C5",
          "midi": 72,
          "time": 142.44177500000032,
          "velocity": 0.5039370078740157,
          "duration": 0.10949605833332043
        },
        {
          "name": "G#4",
          "midi": 68,
          "time": 142.7906120000003,
          "velocity": 0.5039370078740157,
          "duration": 2.9001920583332605
        },
        {
          "name": "C#5",
          "midi": 73,
          "time": 142.7906120000003,
          "velocity": 0.5039370078740157,
          "duration": 0.10949605833332043
        },
        {
          "name": "C5",
          "midi": 72,
          "time": 142.9068910000003,
          "velocity": 0.5039370078740157,
          "duration": 0.10949605833332043
        },
        {
          "name": "G4",
          "midi": 67,
          "time": 143.25572800000026,
          "velocity": 0.5039370078740157,
          "duration": 0.2199611083333366
        },
        {
          "name": "C5",
          "midi": 72,
          "time": 143.25572800000026,
          "velocity": 0.5039370078740157,
          "duration": 0.2199611083333366
        },
        {
          "name": "G4",
          "midi": 67,
          "time": 143.95340200000027,
          "velocity": 0.5039370078740157,
          "duration": 0.10949605833332043
        },
        {
          "name": "C5",
          "midi": 72,
          "time": 143.95340200000027,
          "velocity": 0.5039370078740157,
          "duration": 0.10949605833332043
        },
        {
          "name": "G4",
          "midi": 67,
          "time": 144.06968100000026,
          "velocity": 0.5039370078740157,
          "duration": 0.10949605833332043
        },
        {
          "name": "C5",
          "midi": 72,
          "time": 144.06968100000026,
          "velocity": 0.5039370078740157,
          "duration": 0.10949605833332043
        },
        {
          "name": "G4",
          "midi": 67,
          "time": 144.18596000000025,
          "velocity": 0.5039370078740157,
          "duration": 0.11531000833332428
        },
        {
          "name": "C5",
          "midi": 72,
          "time": 144.18596000000025,
          "velocity": 0.5039370078740157,
          "duration": 0.11531000833332428
        },
        {
          "name": "G4",
          "midi": 67,
          "time": 144.41851800000023,
          "velocity": 0.5039370078740157,
          "duration": 0.11531000833332428
        },
        {
          "name": "C5",
          "midi": 72,
          "time": 144.41851800000023,
          "velocity": 0.5039370078740157,
          "duration": 0.11531000833332428
        },
        {
          "name": "G4",
          "midi": 67,
          "time": 144.65107600000022,
          "velocity": 0.5039370078740157,
          "duration": 0.4408912083333405
        },
        {
          "name": "C5",
          "midi": 72,
          "time": 144.65107600000022,
          "velocity": 0.5039370078740157,
          "duration": 0.4408912083333405
        },
        {
          "name": "G#4",
          "midi": 68,
          "time": 145.58130800000023,
          "velocity": 0.5039370078740157,
          "duration": 0.5746120583332868
        },
        {
          "name": "C#5",
          "midi": 73,
          "time": 145.58130800000023,
          "velocity": 0.5039370078740157,
          "duration": 0.10949605833332043
        },
        {
          "name": "C5",
          "midi": 72,
          "time": 145.69758700000023,
          "velocity": 0.5039370078740157,
          "duration": 0.10949605833332043
        },
        {
          "name": "G#4",
          "midi": 68,
          "time": 146.0464240000002,
          "velocity": 0.5039370078740157,
          "duration": 0.5746120583332868
        },
        {
          "name": "C#5",
          "midi": 73,
          "time": 146.0464240000002,
          "velocity": 0.5039370078740157,
          "duration": 0.10949605833332043
        },
        {
          "name": "C5",
          "midi": 72,
          "time": 146.1627030000002,
          "velocity": 0.5039370078740157,
          "duration": 0.10949605833332043
        },
        {
          "name": "G#4",
          "midi": 68,
          "time": 146.51154000000017,
          "velocity": 0.5039370078740157,
          "duration": 1.5048440583332763
        },
        {
          "name": "C#5",
          "midi": 73,
          "time": 146.51154000000017,
          "velocity": 0.5039370078740157,
          "duration": 0.10949605833332043
        },
        {
          "name": "C5",
          "midi": 72,
          "time": 146.62781900000016,
          "velocity": 0.5039370078740157,
          "duration": 0.10949605833332043
        },
        {
          "name": "C5",
          "midi": 72,
          "time": 146.97665600000013,
          "velocity": 0.5039370078740157,
          "duration": 0.2199611083333366
        },
        {
          "name": "F4",
          "midi": 65,
          "time": 147.67433000000014,
          "velocity": 0.5039370078740157,
          "duration": 0.10949605833332043
        },
        {
          "name": "C5",
          "midi": 72,
          "time": 147.67433000000014,
          "velocity": 0.5039370078740157,
          "duration": 0.10949605833332043
        },
        {
          "name": "F4",
          "midi": 65,
          "time": 147.79060900000013,
          "velocity": 0.5039370078740157,
          "duration": 0.10949605833332043
        },
        {
          "name": "C5",
          "midi": 72,
          "time": 147.79060900000013,
          "velocity": 0.5039370078740157,
          "duration": 0.10949605833332043
        },
        {
          "name": "G#4",
          "midi": 68,
          "time": 147.90688800000012,
          "velocity": 0.5039370078740157,
          "duration": 0.22577505833331202
        },
        {
          "name": "F5",
          "midi": 77,
          "time": 147.90688800000012,
          "velocity": 0.5039370078740157,
          "duration": 0.10949605833332043
        },
        {
          "name": "G#4",
          "midi": 68,
          "time": 148.02316700000011,
          "velocity": 0.5039370078740157,
          "duration": 0.3362401083333282
        },
        {
          "name": "F5",
          "midi": 77,
          "time": 148.02316700000011,
          "velocity": 0.5039370078740157,
          "duration": 0.10949605833332043
        },
        {
          "name": "G#4",
          "midi": 68,
          "time": 148.1394460000001,
          "velocity": 0.5039370078740157,
          "duration": 0.4525191083333482
        },
        {
          "name": "F5",
          "midi": 77,
          "time": 148.1394460000001,
          "velocity": 0.5039370078740157,
          "duration": 0.2199611083333366
        },
        {
          "name": "G#4",
          "midi": 68,
          "time": 148.37200400000012,
          "velocity": 0.5039370078740157,
          "duration": 3.4757731083334136
        },
        {
          "name": "F5",
          "midi": 77,
          "time": 148.37200400000012,
          "velocity": 0.5039370078740157,
          "duration": 0.2199611083333366
        },
        {
          "name": "D#4",
          "midi": 63,
          "time": 148.60456200000013,
          "velocity": 0.5039370078740157,
          "duration": 0.2199611083333366
        },
        {
          "name": "C5",
          "midi": 72,
          "time": 148.60456200000013,
          "velocity": 0.5039370078740157,
          "duration": 0.2199611083333366
        },
        {
          "name": "F4",
          "midi": 65,
          "time": 148.83712000000014,
          "velocity": 0.5039370078740157,
          "duration": 0.6618213083333444
        },
        {
          "name": "C5",
          "midi": 72,
          "time": 148.83712000000014,
          "velocity": 0.5039370078740157,
          "duration": 0.6618213083333444
        },
        {
          "name": "F4",
          "midi": 65,
          "time": 149.53479400000015,
          "velocity": 0.5039370078740157,
          "duration": 0.2199611083333366
        },
        {
          "name": "A#4",
          "midi": 70,
          "time": 149.53479400000015,
          "velocity": 0.5039370078740157,
          "duration": 0.2199611083333366
        },
        {
          "name": "F4",
          "midi": 65,
          "time": 149.76735200000016,
          "velocity": 0.5039370078740157,
          "duration": 0.2199611083333366
        },
        {
          "name": "C5",
          "midi": 72,
          "time": 149.76735200000016,
          "velocity": 0.5039370078740157,
          "duration": 0.2199611083333366
        },
        {
          "name": "F4",
          "midi": 65,
          "time": 149.99991000000017,
          "velocity": 0.5039370078740157,
          "duration": 0.2199611083333366
        },
        {
          "name": "C5",
          "midi": 72,
          "time": 149.99991000000017,
          "velocity": 0.5039370078740157,
          "duration": 0.2199611083333366
        },
        {
          "name": "F4",
          "midi": 65,
          "time": 150.23246800000018,
          "velocity": 0.5039370078740157,
          "duration": 0.2199611083333366
        },
        {
          "name": "C5",
          "midi": 72,
          "time": 150.23246800000018,
          "velocity": 0.5039370078740157,
          "duration": 0.2199611083333366
        },
        {
          "name": "F4",
          "midi": 65,
          "time": 150.9301420000002,
          "velocity": 0.5039370078740157,
          "duration": 0.10949605833332043
        },
        {
          "name": "C5",
          "midi": 72,
          "time": 150.9301420000002,
          "velocity": 0.5039370078740157,
          "duration": 0.10949605833332043
        },
        {
          "name": "F4",
          "midi": 65,
          "time": 151.04642100000018,
          "velocity": 0.5039370078740157,
          "duration": 0.10949605833332043
        },
        {
          "name": "C5",
          "midi": 72,
          "time": 151.04642100000018,
          "velocity": 0.5039370078740157,
          "duration": 0.10949605833332043
        },
        {
          "name": "F4",
          "midi": 65,
          "time": 151.16270000000017,
          "velocity": 0.5039370078740157,
          "duration": 0.2199611083333366
        },
        {
          "name": "C5",
          "midi": 72,
          "time": 151.16270000000017,
          "velocity": 0.5039370078740157,
          "duration": 0.2199611083333366
        },
        {
          "name": "F4",
          "midi": 65,
          "time": 151.39525800000018,
          "velocity": 0.5039370078740157,
          "duration": 0.2199611083333366
        },
        {
          "name": "C5",
          "midi": 72,
          "time": 151.39525800000018,
          "velocity": 0.5039370078740157,
          "duration": 0.2199611083333366
        },
        {
          "name": "G#4",
          "midi": 68,
          "time": 151.6278160000002,
          "velocity": 0.5039370078740157,
          "duration": 0.342054058333332
        },
        {
          "name": "F5",
          "midi": 77,
          "time": 151.6278160000002,
          "velocity": 0.5039370078740157,
          "duration": 0.2199611083333366
        },
        {
          "name": "G#4",
          "midi": 68,
          "time": 151.8603740000002,
          "velocity": 0.5039370078740157,
          "duration": 0.22577505833331202
        },
        {
          "name": "F5",
          "midi": 77,
          "time": 151.8603740000002,
          "velocity": 0.5039370078740157,
          "duration": 0.10949605833332043
        },
        {
          "name": "G#4",
          "midi": 68,
          "time": 151.9766530000002,
          "velocity": 0.5039370078740157,
          "duration": 3.359494108333422
        },
        {
          "name": "F5",
          "midi": 77,
          "time": 151.9766530000002,
          "velocity": 0.5039370078740157,
          "duration": 0.10949605833332043
        },
        {
          "name": "F4",
          "midi": 65,
          "time": 152.0929320000002,
          "velocity": 0.5039370078740157,
          "duration": 0.2199611083333366
        },
        {
          "name": "C5",
          "midi": 72,
          "time": 152.0929320000002,
          "velocity": 0.5039370078740157,
          "duration": 0.2199611083333366
        },
        {
          "name": "F4",
          "midi": 65,
          "time": 152.3254900000002,
          "velocity": 0.5039370078740157,
          "duration": 0.2199611083333366
        },
        {
          "name": "C5",
          "midi": 72,
          "time": 152.3254900000002,
          "velocity": 0.5039370078740157,
          "duration": 0.2199611083333366
        },
        {
          "name": "F4",
          "midi": 65,
          "time": 152.5580480000002,
          "velocity": 0.5039370078740157,
          "duration": 0.4408912083333405
        },
        {
          "name": "C5",
          "midi": 72,
          "time": 152.5580480000002,
          "velocity": 0.5039370078740157,
          "duration": 0.4408912083333405
        },
        {
          "name": "F4",
          "midi": 65,
          "time": 153.25572200000022,
          "velocity": 0.5039370078740157,
          "duration": 0.2199611083333366
        },
        {
          "name": "C#5",
          "midi": 73,
          "time": 153.25572200000022,
          "velocity": 0.5039370078740157,
          "duration": 0.2199611083333366
        },
        {
          "name": "F4",
          "midi": 65,
          "time": 153.48828000000023,
          "velocity": 0.5039370078740157,
          "duration": 0.2199611083333366
        },
        {
          "name": "C5",
          "midi": 72,
          "time": 153.48828000000023,
          "velocity": 0.5039370078740157,
          "duration": 0.2199611083333366
        },
        {
          "name": "F4",
          "midi": 65,
          "time": 153.72083800000024,
          "velocity": 0.5039370078740157,
          "duration": 0.2199611083333366
        },
        {
          "name": "C5",
          "midi": 72,
          "time": 153.72083800000024,
          "velocity": 0.5039370078740157,
          "duration": 0.2199611083333366
        },
        {
          "name": "F4",
          "midi": 65,
          "time": 153.95339600000025,
          "velocity": 0.5039370078740157,
          "duration": 0.2199611083333366
        },
        {
          "name": "C5",
          "midi": 72,
          "time": 153.95339600000025,
          "velocity": 0.5039370078740157,
          "duration": 0.2199611083333366
        },
        {
          "name": "F5",
          "midi": 77,
          "time": 154.41851200000025,
          "velocity": 0.5039370078740157,
          "duration": 0.2199611083333366
        },
        {
          "name": "C5",
          "midi": 72,
          "time": 154.65107000000026,
          "velocity": 0.5039370078740157,
          "duration": 0.2199611083333366
        },
        {
          "name": "C5",
          "midi": 72,
          "time": 154.88362800000027,
          "velocity": 0.5039370078740157,
          "duration": 0.2199611083333366
        },
        {
          "name": "G#4",
          "midi": 68,
          "time": 155.11618600000028,
          "velocity": 0.5039370078740157,
          "duration": 0.4525191083333482
        },
        {
          "name": "D#5",
          "midi": 75,
          "time": 155.11618600000028,
          "velocity": 0.5039370078740157,
          "duration": 0.2199611083333366
        },
        {
          "name": "G#4",
          "midi": 68,
          "time": 155.3487440000003,
          "velocity": 0.5039370078740157,
          "duration": 4.638563108333415
        },
        {
          "name": "D#5",
          "midi": 75,
          "time": 155.3487440000003,
          "velocity": 0.5039370078740157,
          "duration": 0.2199611083333366
        },
        {
          "name": "A#4",
          "midi": 70,
          "time": 155.5813020000003,
          "velocity": 0.5039370078740157,
          "duration": 0.2199611083333366
        },
        {
          "name": "F5",
          "midi": 77,
          "time": 155.5813020000003,
          "velocity": 0.5039370078740157,
          "duration": 0.2199611083333366
        },
        {
          "name": "C5",
          "midi": 72,
          "time": 155.81386000000032,
          "velocity": 0.5039370078740157,
          "duration": 0.4408912083333405
        },
        {
          "name": "G#5",
          "midi": 80,
          "time": 155.81386000000032,
          "velocity": 0.5039370078740157,
          "duration": 0.4408912083333405
        },
        {
          "name": "F5",
          "midi": 77,
          "time": 156.2789760000003,
          "velocity": 0.5039370078740157,
          "duration": 0.33042615833332434
        },
        {
          "name": "C6",
          "midi": 84,
          "time": 156.2789760000003,
          "velocity": 0.5039370078740157,
          "duration": 0.33042615833332434
        },
        {
          "name": "F5",
          "midi": 77,
          "time": 156.62781300000032,
          "velocity": 0.5039370078740157,
          "duration": 0.33042615833332434
        },
        {
          "name": "C6",
          "midi": 84,
          "time": 156.62781300000032,
          "velocity": 0.5039370078740157,
          "duration": 0.33042615833332434
        },
        {
          "name": "D#5",
          "midi": 75,
          "time": 158.13944000000032,
          "velocity": 0.5039370078740157,
          "duration": 0.2199611083333366
        },
        {
          "name": "C6",
          "midi": 84,
          "time": 158.13944000000032,
          "velocity": 0.5039370078740157,
          "duration": 0.2199611083333366
        },
        {
          "name": "D#5",
          "midi": 75,
          "time": 158.37199800000033,
          "velocity": 0.5039370078740157,
          "duration": 0.10949605833332043
        },
        {
          "name": "C6",
          "midi": 84,
          "time": 158.37199800000033,
          "velocity": 0.5039370078740157,
          "duration": 0.10949605833332043
        },
        {
          "name": "D#5",
          "midi": 75,
          "time": 158.48827700000032,
          "velocity": 0.5039370078740157,
          "duration": 0.2199611083333366
        },
        {
          "name": "C6",
          "midi": 84,
          "time": 158.48827700000032,
          "velocity": 0.5039370078740157,
          "duration": 0.2199611083333366
        },
        {
          "name": "C#5",
          "midi": 73,
          "time": 158.72083500000033,
          "velocity": 0.5039370078740157,
          "duration": 0.10949605833332043
        },
        {
          "name": "A#5",
          "midi": 82,
          "time": 158.72083500000033,
          "velocity": 0.5039370078740157,
          "duration": 0.10949605833332043
        },
        {
          "name": "C#5",
          "midi": 73,
          "time": 158.83711400000033,
          "velocity": 0.5039370078740157,
          "duration": 0.2199611083333366
        },
        {
          "name": "A#5",
          "midi": 82,
          "time": 158.83711400000033,
          "velocity": 0.5039370078740157,
          "duration": 0.2199611083333366
        },
        {
          "name": "C#5",
          "midi": 73,
          "time": 159.06967200000034,
          "velocity": 0.5039370078740157,
          "duration": 0.2199611083333366
        },
        {
          "name": "A#5",
          "midi": 82,
          "time": 159.06967200000034,
          "velocity": 0.5039370078740157,
          "duration": 0.2199611083333366
        },
        {
          "name": "C5",
          "midi": 72,
          "time": 159.30223000000035,
          "velocity": 0.5039370078740157,
          "duration": 0.2199611083333366
        },
        {
          "name": "G#5",
          "midi": 80,
          "time": 159.30223000000035,
          "velocity": 0.5039370078740157,
          "duration": 0.2199611083333366
        },
        {
          "name": "C5",
          "midi": 72,
          "time": 159.53478800000036,
          "velocity": 0.5039370078740157,
          "duration": 0.2199611083333366
        },
        {
          "name": "G#5",
          "midi": 80,
          "time": 159.53478800000036,
          "velocity": 0.5039370078740157,
          "duration": 0.2199611083333366
        },
        {
          "name": "G#4",
          "midi": 68,
          "time": 159.76734600000037,
          "velocity": 0.5039370078740157,
          "duration": 3.9408891083334083
        },
        {
          "name": "D#5",
          "midi": 75,
          "time": 159.76734600000037,
          "velocity": 0.5039370078740157,
          "duration": 0.2199611083333366
        },
        {
          "name": "C#5",
          "midi": 73,
          "time": 159.99990400000038,
          "velocity": 0.5039370078740157,
          "duration": 0.33042615833332434
        },
        {
          "name": "A#5",
          "midi": 82,
          "time": 159.99990400000038,
          "velocity": 0.5039370078740157,
          "duration": 0.33042615833332434
        },
        {
          "name": "C#5",
          "midi": 73,
          "time": 160.3487410000004,
          "velocity": 0.5039370078740157,
          "duration": 0.33042615833332434
        },
        {
          "name": "A#5",
          "midi": 82,
          "time": 160.3487410000004,
          "velocity": 0.5039370078740157,
          "duration": 0.33042615833332434
        },
        {
          "name": "D#5",
          "midi": 75,
          "time": 161.8603680000004,
          "velocity": 0.5039370078740157,
          "duration": 0.2199611083333366
        },
        {
          "name": "C6",
          "midi": 84,
          "time": 161.8603680000004,
          "velocity": 0.5039370078740157,
          "duration": 0.2199611083333366
        },
        {
          "name": "D#5",
          "midi": 75,
          "time": 162.0929260000004,
          "velocity": 0.5039370078740157,
          "duration": 0.10949605833332043
        },
        {
          "name": "C6",
          "midi": 84,
          "time": 162.0929260000004,
          "velocity": 0.5039370078740157,
          "duration": 0.10949605833332043
        },
        {
          "name": "D#5",
          "midi": 75,
          "time": 162.2092050000004,
          "velocity": 0.5039370078740157,
          "duration": 0.2199611083333366
        },
        {
          "name": "C6",
          "midi": 84,
          "time": 162.2092050000004,
          "velocity": 0.5039370078740157,
          "duration": 0.2199611083333366
        },
        {
          "name": "C#5",
          "midi": 73,
          "time": 162.4417630000004,
          "velocity": 0.5039370078740157,
          "duration": 0.10949605833332043
        },
        {
          "name": "A#5",
          "midi": 82,
          "time": 162.4417630000004,
          "velocity": 0.5039370078740157,
          "duration": 0.10949605833332043
        },
        {
          "name": "C#5",
          "midi": 73,
          "time": 162.5580420000004,
          "velocity": 0.5039370078740157,
          "duration": 0.2199611083333366
        },
        {
          "name": "A#5",
          "midi": 82,
          "time": 162.5580420000004,
          "velocity": 0.5039370078740157,
          "duration": 0.2199611083333366
        },
        {
          "name": "C#5",
          "midi": 73,
          "time": 162.7906000000004,
          "velocity": 0.5039370078740157,
          "duration": 0.2199611083333366
        },
        {
          "name": "A#5",
          "midi": 82,
          "time": 162.7906000000004,
          "velocity": 0.5039370078740157,
          "duration": 0.2199611083333366
        },
        {
          "name": "C5",
          "midi": 72,
          "time": 163.02315800000042,
          "velocity": 0.5039370078740157,
          "duration": 0.2199611083333366
        },
        {
          "name": "G#5",
          "midi": 80,
          "time": 163.02315800000042,
          "velocity": 0.5039370078740157,
          "duration": 0.2199611083333366
        },
        {
          "name": "C5",
          "midi": 72,
          "time": 163.25571600000043,
          "velocity": 0.5039370078740157,
          "duration": 0.2199611083333366
        },
        {
          "name": "G#5",
          "midi": 80,
          "time": 163.25571600000043,
          "velocity": 0.5039370078740157,
          "duration": 0.2199611083333366
        },
        {
          "name": "G#4",
          "midi": 68,
          "time": 163.48827400000044,
          "velocity": 0.5039370078740157,
          "duration": 6.731585108333377
        },
        {
          "name": "D#5",
          "midi": 75,
          "time": 163.48827400000044,
          "velocity": 0.5039370078740157,
          "duration": 0.2199611083333366
        },
        {
          "name": "C#5",
          "midi": 73,
          "time": 163.72083200000046,
          "velocity": 0.5039370078740157,
          "duration": 0.33042615833332434
        },
        {
          "name": "A#5",
          "midi": 82,
          "time": 163.72083200000046,
          "velocity": 0.5039370078740157,
          "duration": 0.33042615833332434
        },
        {
          "name": "C5",
          "midi": 72,
          "time": 164.06966900000046,
          "velocity": 0.5039370078740157,
          "duration": 0.33042615833332434
        },
        {
          "name": "G#5",
          "midi": 80,
          "time": 164.06966900000046,
          "velocity": 0.5039370078740157,
          "duration": 0.33042615833332434
        },
        {
          "name": "C5",
          "midi": 72,
          "time": 165.11618000000044,
          "velocity": 0.5039370078740157,
          "duration": 0.10949605833332043
        },
        {
          "name": "G#5",
          "midi": 80,
          "time": 165.11618000000044,
          "velocity": 0.5039370078740157,
          "duration": 0.10949605833332043
        },
        {
          "name": "C#5",
          "midi": 73,
          "time": 165.23245900000043,
          "velocity": 0.5039370078740157,
          "duration": 0.10949605833332043
        },
        {
          "name": "A#5",
          "midi": 82,
          "time": 165.23245900000043,
          "velocity": 0.5039370078740157,
          "duration": 0.10949605833332043
        },
        {
          "name": "D#5",
          "midi": 75,
          "time": 165.34873800000042,
          "velocity": 0.5039370078740157,
          "duration": 0.2199611083333366
        },
        {
          "name": "C6",
          "midi": 84,
          "time": 165.34873800000042,
          "velocity": 0.5039370078740157,
          "duration": 0.2199611083333366
        },
        {
          "name": "E5",
          "midi": 76,
          "time": 165.58129600000044,
          "velocity": 0.5039370078740157,
          "duration": 0.4408912083333405
        },
        {
          "name": "C#6",
          "midi": 85,
          "time": 165.58129600000044,
          "velocity": 0.5039370078740157,
          "duration": 0.4408912083333405
        },
        {
          "name": "D#5",
          "midi": 75,
          "time": 166.04641200000043,
          "velocity": 0.5039370078740157,
          "duration": 0.2199611083333366
        },
        {
          "name": "C6",
          "midi": 84,
          "time": 166.04641200000043,
          "velocity": 0.5039370078740157,
          "duration": 0.2199611083333366
        },
        {
          "name": "C#5",
          "midi": 73,
          "time": 166.27897000000044,
          "velocity": 0.5039370078740157,
          "duration": 0.2199611083333366
        },
        {
          "name": "A#5",
          "midi": 82,
          "time": 166.27897000000044,
          "velocity": 0.5039370078740157,
          "duration": 0.2199611083333366
        },
        {
          "name": "C5",
          "midi": 72,
          "time": 166.51152800000045,
          "velocity": 0.5039370078740157,
          "duration": 0.4408912083333405
        },
        {
          "name": "G#5",
          "midi": 80,
          "time": 166.51152800000045,
          "velocity": 0.5039370078740157,
          "duration": 0.4408912083333405
        },
        {
          "name": "C#5",
          "midi": 73,
          "time": 166.97664400000045,
          "velocity": 0.5039370078740157,
          "duration": 0.4408912083333405
        },
        {
          "name": "A#5",
          "midi": 82,
          "time": 166.97664400000045,
          "velocity": 0.5039370078740157,
          "duration": 0.4408912083333405
        },
        {
          "name": "C5",
          "midi": 72,
          "time": 168.13943400000045,
          "velocity": 0.5039370078740157,
          "duration": 0.2199611083333366
        },
        {
          "name": "F5",
          "midi": 77,
          "time": 168.13943400000045,
          "velocity": 0.5039370078740157,
          "duration": 0.2199611083333366
        },
        {
          "name": "C#5",
          "midi": 73,
          "time": 168.37199200000046,
          "velocity": 0.5039370078740157,
          "duration": 0.2199611083333366
        },
        {
          "name": "G#5",
          "midi": 80,
          "time": 168.37199200000046,
          "velocity": 0.5039370078740157,
          "duration": 0.2199611083333366
        },
        {
          "name": "D#5",
          "midi": 75,
          "time": 168.60455000000047,
          "velocity": 0.5039370078740157,
          "duration": 0.2199611083333366
        },
        {
          "name": "A#5",
          "midi": 82,
          "time": 168.60455000000047,
          "velocity": 0.5039370078740157,
          "duration": 0.2199611083333366
        },
        {
          "name": "D#5",
          "midi": 75,
          "time": 168.83710800000048,
          "velocity": 0.5039370078740157,
          "duration": 0.2199611083333366
        },
        {
          "name": "A#5",
          "midi": 82,
          "time": 168.83710800000048,
          "velocity": 0.5039370078740157,
          "duration": 0.2199611083333366
        },
        {
          "name": "G#5",
          "midi": 80,
          "time": 169.0696660000005,
          "velocity": 0.5039370078740157,
          "duration": 0.10949605833332043
        },
        {
          "name": "G5",
          "midi": 79,
          "time": 169.1859450000005,
          "velocity": 0.5039370078740157,
          "duration": 0.10949605833332043
        },
        {
          "name": "F5",
          "midi": 77,
          "time": 169.30222400000048,
          "velocity": 0.5039370078740157,
          "duration": 0.2199611083333366
        },
        {
          "name": "G#4",
          "midi": 68,
          "time": 169.99989800000048,
          "velocity": 0.5039370078740157,
          "duration": 0.4525191083333482
        },
        {
          "name": "D#5",
          "midi": 75,
          "time": 169.99989800000048,
          "velocity": 0.5039370078740157,
          "duration": 0.2199611083333366
        },
        {
          "name": "G#4",
          "midi": 68,
          "time": 170.2324560000005,
          "velocity": 0.5039370078740157,
          "duration": 4.638563108333415
        },
        {
          "name": "D#5",
          "midi": 75,
          "time": 170.2324560000005,
          "velocity": 0.5039370078740157,
          "duration": 0.2199611083333366
        },
        {
          "name": "A#4",
          "midi": 70,
          "time": 170.4650140000005,
          "velocity": 0.5039370078740157,
          "duration": 0.2199611083333366
        },
        {
          "name": "F5",
          "midi": 77,
          "time": 170.4650140000005,
          "velocity": 0.5039370078740157,
          "duration": 0.2199611083333366
        },
        {
          "name": "C5",
          "midi": 72,
          "time": 170.69757200000052,
          "velocity": 0.5039370078740157,
          "duration": 0.4408912083333405
        },
        {
          "name": "G#5",
          "midi": 80,
          "time": 170.69757200000052,
          "velocity": 0.5039370078740157,
          "duration": 0.4408912083333405
        },
        {
          "name": "F5",
          "midi": 77,
          "time": 171.16268800000051,
          "velocity": 0.5039370078740157,
          "duration": 0.33042615833332434
        },
        {
          "name": "C6",
          "midi": 84,
          "time": 171.16268800000051,
          "velocity": 0.5039370078740157,
          "duration": 0.33042615833332434
        },
        {
          "name": "F5",
          "midi": 77,
          "time": 171.51152500000052,
          "velocity": 0.5039370078740157,
          "duration": 0.33042615833332434
        },
        {
          "name": "C6",
          "midi": 84,
          "time": 171.51152500000052,
          "velocity": 0.5039370078740157,
          "duration": 0.33042615833332434
        },
        {
          "name": "D#5",
          "midi": 75,
          "time": 173.02315200000052,
          "velocity": 0.5039370078740157,
          "duration": 0.2199611083333366
        },
        {
          "name": "C6",
          "midi": 84,
          "time": 173.02315200000052,
          "velocity": 0.5039370078740157,
          "duration": 0.2199611083333366
        },
        {
          "name": "D#5",
          "midi": 75,
          "time": 173.25571000000053,
          "velocity": 0.5039370078740157,
          "duration": 0.10949605833332043
        },
        {
          "name": "C6",
          "midi": 84,
          "time": 173.25571000000053,
          "velocity": 0.5039370078740157,
          "duration": 0.10949605833332043
        },
        {
          "name": "D#5",
          "midi": 75,
          "time": 173.37198900000053,
          "velocity": 0.5039370078740157,
          "duration": 0.2199611083333366
        },
        {
          "name": "C6",
          "midi": 84,
          "time": 173.37198900000053,
          "velocity": 0.5039370078740157,
          "duration": 0.2199611083333366
        },
        {
          "name": "C#5",
          "midi": 73,
          "time": 173.60454700000054,
          "velocity": 0.5039370078740157,
          "duration": 0.10949605833332043
        },
        {
          "name": "A#5",
          "midi": 82,
          "time": 173.60454700000054,
          "velocity": 0.5039370078740157,
          "duration": 0.10949605833332043
        },
        {
          "name": "C#5",
          "midi": 73,
          "time": 173.72082600000053,
          "velocity": 0.5039370078740157,
          "duration": 0.2199611083333366
        },
        {
          "name": "A#5",
          "midi": 82,
          "time": 173.72082600000053,
          "velocity": 0.5039370078740157,
          "duration": 0.2199611083333366
        },
        {
          "name": "C#5",
          "midi": 73,
          "time": 173.95338400000054,
          "velocity": 0.5039370078740157,
          "duration": 0.2199611083333366
        },
        {
          "name": "A#5",
          "midi": 82,
          "time": 173.95338400000054,
          "velocity": 0.5039370078740157,
          "duration": 0.2199611083333366
        },
        {
          "name": "C5",
          "midi": 72,
          "time": 174.18594200000055,
          "velocity": 0.5039370078740157,
          "duration": 0.2199611083333366
        },
        {
          "name": "G#5",
          "midi": 80,
          "time": 174.18594200000055,
          "velocity": 0.5039370078740157,
          "duration": 0.2199611083333366
        },
        {
          "name": "C5",
          "midi": 72,
          "time": 174.41850000000056,
          "velocity": 0.5039370078740157,
          "duration": 0.2199611083333366
        },
        {
          "name": "G#5",
          "midi": 80,
          "time": 174.41850000000056,
          "velocity": 0.5039370078740157,
          "duration": 0.2199611083333366
        },
        {
          "name": "G#4",
          "midi": 68,
          "time": 174.65105800000057,
          "velocity": 0.5039370078740157,
          "duration": 3.9408891083334083
        },
        {
          "name": "D#5",
          "midi": 75,
          "time": 174.65105800000057,
          "velocity": 0.5039370078740157,
          "duration": 0.2199611083333366
        },
        {
          "name": "C#5",
          "midi": 73,
          "time": 174.8836160000006,
          "velocity": 0.5039370078740157,
          "duration": 0.33042615833332434
        },
        {
          "name": "A#5",
          "midi": 82,
          "time": 174.8836160000006,
          "velocity": 0.5039370078740157,
          "duration": 0.33042615833332434
        },
        {
          "name": "C#5",
          "midi": 73,
          "time": 175.2324530000006,
          "velocity": 0.5039370078740157,
          "duration": 0.33042615833332434
        },
        {
          "name": "A#5",
          "midi": 82,
          "time": 175.2324530000006,
          "velocity": 0.5039370078740157,
          "duration": 0.33042615833332434
        },
        {
          "name": "D#5",
          "midi": 75,
          "time": 176.7440800000006,
          "velocity": 0.5039370078740157,
          "duration": 0.2199611083333366
        },
        {
          "name": "C6",
          "midi": 84,
          "time": 176.7440800000006,
          "velocity": 0.5039370078740157,
          "duration": 0.2199611083333366
        },
        {
          "name": "D#5",
          "midi": 75,
          "time": 176.9766380000006,
          "velocity": 0.5039370078740157,
          "duration": 0.10949605833332043
        },
        {
          "name": "C6",
          "midi": 84,
          "time": 176.9766380000006,
          "velocity": 0.5039370078740157,
          "duration": 0.10949605833332043
        },
        {
          "name": "D#5",
          "midi": 75,
          "time": 177.0929170000006,
          "velocity": 0.5039370078740157,
          "duration": 0.2199611083333366
        },
        {
          "name": "C6",
          "midi": 84,
          "time": 177.0929170000006,
          "velocity": 0.5039370078740157,
          "duration": 0.2199611083333366
        },
        {
          "name": "C#5",
          "midi": 73,
          "time": 177.3254750000006,
          "velocity": 0.5039370078740157,
          "duration": 0.10949605833332043
        },
        {
          "name": "A#5",
          "midi": 82,
          "time": 177.3254750000006,
          "velocity": 0.5039370078740157,
          "duration": 0.10949605833332043
        },
        {
          "name": "C#5",
          "midi": 73,
          "time": 177.4417540000006,
          "velocity": 0.5039370078740157,
          "duration": 0.2199611083333366
        },
        {
          "name": "A#5",
          "midi": 82,
          "time": 177.4417540000006,
          "velocity": 0.5039370078740157,
          "duration": 0.2199611083333366
        },
        {
          "name": "C#5",
          "midi": 73,
          "time": 177.6743120000006,
          "velocity": 0.5039370078740157,
          "duration": 0.2199611083333366
        },
        {
          "name": "A#5",
          "midi": 82,
          "time": 177.6743120000006,
          "velocity": 0.5039370078740157,
          "duration": 0.2199611083333366
        },
        {
          "name": "C5",
          "midi": 72,
          "time": 177.90687000000062,
          "velocity": 0.5039370078740157,
          "duration": 0.2199611083333366
        },
        {
          "name": "G#5",
          "midi": 80,
          "time": 177.90687000000062,
          "velocity": 0.5039370078740157,
          "duration": 0.2199611083333366
        },
        {
          "name": "C5",
          "midi": 72,
          "time": 178.13942800000063,
          "velocity": 0.5039370078740157,
          "duration": 0.2199611083333366
        },
        {
          "name": "G#5",
          "midi": 80,
          "time": 178.13942800000063,
          "velocity": 0.5039370078740157,
          "duration": 0.2199611083333366
        },
        {
          "name": "G#4",
          "midi": 68,
          "time": 178.37198600000065,
          "velocity": 0.5039370078740157,
          "duration": 8.824607108333367
        },
        {
          "name": "D#5",
          "midi": 75,
          "time": 178.37198600000065,
          "velocity": 0.5039370078740157,
          "duration": 0.2199611083333366
        },
        {
          "name": "C#5",
          "midi": 73,
          "time": 178.60454400000066,
          "velocity": 0.5039370078740157,
          "duration": 0.33042615833332434
        },
        {
          "name": "A#5",
          "midi": 82,
          "time": 178.60454400000066,
          "velocity": 0.5039370078740157,
          "duration": 0.33042615833332434
        },
        {
          "name": "C5",
          "midi": 72,
          "time": 178.95338100000066,
          "velocity": 0.5039370078740157,
          "duration": 0.33042615833332434
        },
        {
          "name": "G#5",
          "midi": 80,
          "time": 178.95338100000066,
          "velocity": 0.5039370078740157,
          "duration": 0.33042615833332434
        },
        {
          "name": "C5",
          "midi": 72,
          "time": 179.99989200000064,
          "velocity": 0.5039370078740157,
          "duration": 0.10949605833332043
        },
        {
          "name": "G#5",
          "midi": 80,
          "time": 179.99989200000064,
          "velocity": 0.5039370078740157,
          "duration": 0.10949605833332043
        },
        {
          "name": "C#5",
          "midi": 73,
          "time": 180.11617100000063,
          "velocity": 0.5039370078740157,
          "duration": 0.10949605833332043
        },
        {
          "name": "A#5",
          "midi": 82,
          "time": 180.11617100000063,
          "velocity": 0.5039370078740157,
          "duration": 0.10949605833332043
        },
        {
          "name": "D#5",
          "midi": 75,
          "time": 180.23245000000063,
          "velocity": 0.5039370078740157,
          "duration": 0.2199611083333366
        },
        {
          "name": "C6",
          "midi": 84,
          "time": 180.23245000000063,
          "velocity": 0.5039370078740157,
          "duration": 0.2199611083333366
        },
        {
          "name": "E5",
          "midi": 76,
          "time": 180.46500800000064,
          "velocity": 0.5039370078740157,
          "duration": 0.4408912083333405
        },
        {
          "name": "C#6",
          "midi": 85,
          "time": 180.46500800000064,
          "velocity": 0.5039370078740157,
          "duration": 0.4408912083333405
        },
        {
          "name": "D#5",
          "midi": 75,
          "time": 180.93012400000063,
          "velocity": 0.5039370078740157,
          "duration": 0.2199611083333366
        },
        {
          "name": "C6",
          "midi": 84,
          "time": 180.93012400000063,
          "velocity": 0.5039370078740157,
          "duration": 0.2199611083333366
        },
        {
          "name": "C#5",
          "midi": 73,
          "time": 181.16268200000064,
          "velocity": 0.5039370078740157,
          "duration": 0.2199611083333366
        },
        {
          "name": "A#5",
          "midi": 82,
          "time": 181.16268200000064,
          "velocity": 0.5039370078740157,
          "duration": 0.2199611083333366
        },
        {
          "name": "C5",
          "midi": 72,
          "time": 181.39524000000065,
          "velocity": 0.5039370078740157,
          "duration": 0.4408912083333405
        },
        {
          "name": "G#5",
          "midi": 80,
          "time": 181.39524000000065,
          "velocity": 0.5039370078740157,
          "duration": 0.4408912083333405
        },
        {
          "name": "C#5",
          "midi": 73,
          "time": 181.86035600000065,
          "velocity": 0.5039370078740157,
          "duration": 0.4408912083333405
        },
        {
          "name": "A#5",
          "midi": 82,
          "time": 181.86035600000065,
          "velocity": 0.5039370078740157,
          "duration": 0.4408912083333405
        },
        {
          "name": "C5",
          "midi": 72,
          "time": 183.02314600000065,
          "velocity": 0.5039370078740157,
          "duration": 0.2199611083333366
        },
        {
          "name": "G#5",
          "midi": 80,
          "time": 183.02314600000065,
          "velocity": 0.5039370078740157,
          "duration": 0.2199611083333366
        },
        {
          "name": "C5",
          "midi": 72,
          "time": 183.25570400000066,
          "velocity": 0.5039370078740157,
          "duration": 0.4408912083333405
        },
        {
          "name": "G#5",
          "midi": 80,
          "time": 183.25570400000066,
          "velocity": 0.5039370078740157,
          "duration": 0.4408912083333405
        },
        {
          "name": "C#5",
          "midi": 73,
          "time": 183.72082000000066,
          "velocity": 0.5039370078740157,
          "duration": 0.4408912083333405
        },
        {
          "name": "A#5",
          "midi": 82,
          "time": 183.72082000000066,
          "velocity": 0.5039370078740157,
          "duration": 0.4408912083333405
        },
        {
          "name": "C5",
          "midi": 72,
          "time": 184.88361000000066,
          "velocity": 0.5039370078740157,
          "duration": 0.2199611083333366
        },
        {
          "name": "G#5",
          "midi": 80,
          "time": 184.88361000000066,
          "velocity": 0.5039370078740157,
          "duration": 0.2199611083333366
        },
        {
          "name": "C5",
          "midi": 72,
          "time": 185.11616800000067,
          "velocity": 0.5039370078740157,
          "duration": 0.4408912083333405
        },
        {
          "name": "G#5",
          "midi": 80,
          "time": 185.11616800000067,
          "velocity": 0.5039370078740157,
          "duration": 0.4408912083333405
        },
        {
          "name": "C#5",
          "midi": 73,
          "time": 185.58128400000066,
          "velocity": 0.5039370078740157,
          "duration": 0.4408912083333405
        },
        {
          "name": "A#5",
          "midi": 82,
          "time": 185.58128400000066,
          "velocity": 0.5039370078740157,
          "duration": 0.4408912083333405
        },
        {
          "name": "C#5",
          "midi": 73,
          "time": 186.04640000000066,
          "velocity": 0.5039370078740157,
          "duration": 0.33042615833332434
        },
        {
          "name": "A#5",
          "midi": 82,
          "time": 186.04640000000066,
          "velocity": 0.5039370078740157,
          "duration": 0.33042615833332434
        },
        {
          "name": "D#5",
          "midi": 75,
          "time": 186.39523700000066,
          "velocity": 0.5039370078740157,
          "duration": 0.2199611083333366
        },
        {
          "name": "G#5",
          "midi": 80,
          "time": 186.39523700000066,
          "velocity": 0.5039370078740157,
          "duration": 0.2199611083333366
        },
        {
          "name": "F4",
          "midi": 65,
          "time": 186.74407400000067,
          "velocity": 0.5039370078740157,
          "duration": 0.2199611083333366
        },
        {
          "name": "F5",
          "midi": 77,
          "time": 186.74407400000067,
          "velocity": 0.5039370078740157,
          "duration": 0.2199611083333366
        },
        {
          "name": "G#4",
          "midi": 68,
          "time": 186.97663200000068,
          "velocity": 0.5039370078740157,
          "duration": 3.94088910833338
        },
        {
          "name": "G#5",
          "midi": 80,
          "time": 186.97663200000068,
          "velocity": 0.5039370078740157,
          "duration": 0.2199611083333366
        },
        {
          "name": "A#4",
          "midi": 70,
          "time": 187.2091900000007,
          "velocity": 0.5039370078740157,
          "duration": 0.2199611083333366
        },
        {
          "name": "A#5",
          "midi": 82,
          "time": 187.2091900000007,
          "velocity": 0.5039370078740157,
          "duration": 0.2199611083333366
        },
        {
          "name": "C5",
          "midi": 72,
          "time": 187.4417480000007,
          "velocity": 0.5039370078740157,
          "duration": 0.4408912083333405
        },
        {
          "name": "C6",
          "midi": 84,
          "time": 187.4417480000007,
          "velocity": 0.5039370078740157,
          "duration": 0.4408912083333405
        },
        {
          "name": "F4",
          "midi": 65,
          "time": 190.4650020000007,
          "velocity": 0.5039370078740157,
          "duration": 0.2199611083333366
        },
        {
          "name": "F5",
          "midi": 77,
          "time": 190.4650020000007,
          "velocity": 0.5039370078740157,
          "duration": 0.2199611083333366
        },
        {
          "name": "G#4",
          "midi": 68,
          "time": 190.69756000000072,
          "velocity": 0.5039370078740157,
          "duration": 3.94088910833338
        },
        {
          "name": "G#5",
          "midi": 80,
          "time": 190.69756000000072,
          "velocity": 0.5039370078740157,
          "duration": 0.2199611083333366
        },
        {
          "name": "D#5",
          "midi": 75,
          "time": 190.93011800000073,
          "velocity": 0.5039370078740157,
          "duration": 0.2199611083333366
        },
        {
          "name": "D#6",
          "midi": 87,
          "time": 190.93011800000073,
          "velocity": 0.5039370078740157,
          "duration": 0.2199611083333366
        },
        {
          "name": "F5",
          "midi": 77,
          "time": 191.16267600000074,
          "velocity": 0.5039370078740157,
          "duration": 0.4408912083333405
        },
        {
          "name": "C6",
          "midi": 84,
          "time": 191.16267600000074,
          "velocity": 0.5039370078740157,
          "duration": 0.4408912083333405
        },
        {
          "name": "C5",
          "midi": 72,
          "time": 192.32546600000074,
          "velocity": 0.5039370078740157,
          "duration": 0.2199611083333366
        },
        {
          "name": "G#5",
          "midi": 80,
          "time": 192.32546600000074,
          "velocity": 0.5039370078740157,
          "duration": 0.2199611083333366
        },
        {
          "name": "C5",
          "midi": 72,
          "time": 192.55802400000076,
          "velocity": 0.5039370078740157,
          "duration": 0.4408912083333405
        },
        {
          "name": "G#5",
          "midi": 80,
          "time": 192.55802400000076,
          "velocity": 0.5039370078740157,
          "duration": 0.4408912083333405
        },
        {
          "name": "C#5",
          "midi": 73,
          "time": 193.02314000000075,
          "velocity": 0.5039370078740157,
          "duration": 0.4408912083333405
        },
        {
          "name": "A#5",
          "midi": 82,
          "time": 193.02314000000075,
          "velocity": 0.5039370078740157,
          "duration": 0.4408912083333405
        },
        {
          "name": "C#5",
          "midi": 73,
          "time": 193.48825600000075,
          "velocity": 0.5039370078740157,
          "duration": 0.33042615833332434
        },
        {
          "name": "A#5",
          "midi": 82,
          "time": 193.48825600000075,
          "velocity": 0.5039370078740157,
          "duration": 0.33042615833332434
        },
        {
          "name": "D#5",
          "midi": 75,
          "time": 193.83709300000075,
          "velocity": 0.5039370078740157,
          "duration": 0.2199611083333366
        },
        {
          "name": "G#5",
          "midi": 80,
          "time": 193.83709300000075,
          "velocity": 0.5039370078740157,
          "duration": 0.2199611083333366
        },
        {
          "name": "F4",
          "midi": 65,
          "time": 194.18593000000075,
          "velocity": 0.5039370078740157,
          "duration": 0.2199611083333366
        },
        {
          "name": "F5",
          "midi": 77,
          "time": 194.18593000000075,
          "velocity": 0.5039370078740157,
          "duration": 0.2199611083333366
        },
        {
          "name": "G#4",
          "midi": 68,
          "time": 194.41848800000076,
          "velocity": 0.5039370078740157,
          "duration": 3.94088910833338
        },
        {
          "name": "G#5",
          "midi": 80,
          "time": 194.41848800000076,
          "velocity": 0.5039370078740157,
          "duration": 0.2199611083333366
        },
        {
          "name": "A#4",
          "midi": 70,
          "time": 194.65104600000078,
          "velocity": 0.5039370078740157,
          "duration": 0.2199611083333366
        },
        {
          "name": "A#5",
          "midi": 82,
          "time": 194.65104600000078,
          "velocity": 0.5039370078740157,
          "duration": 0.2199611083333366
        },
        {
          "name": "C5",
          "midi": 72,
          "time": 194.8836040000008,
          "velocity": 0.5039370078740157,
          "duration": 0.4408912083333405
        },
        {
          "name": "C6",
          "midi": 84,
          "time": 194.8836040000008,
          "velocity": 0.5039370078740157,
          "duration": 0.4408912083333405
        },
        {
          "name": "F4",
          "midi": 65,
          "time": 197.9068580000008,
          "velocity": 0.5039370078740157,
          "duration": 0.2199611083333366
        },
        {
          "name": "F5",
          "midi": 77,
          "time": 197.9068580000008,
          "velocity": 0.5039370078740157,
          "duration": 0.2199611083333366
        },
        {
          "name": "G#4",
          "midi": 68,
          "time": 198.1394160000008,
          "velocity": 0.5039370078740157,
          "duration": 0
        },
        {
          "name": "G#5",
          "midi": 80,
          "time": 198.1394160000008,
          "velocity": 0.5039370078740157,
          "duration": 0.2199611083333366
        },
        {
          "name": "D#5",
          "midi": 75,
          "time": 198.37197400000082,
          "velocity": 0.5039370078740157,
          "duration": 0.2199611083333366
        },
        {
          "name": "D#6",
          "midi": 87,
          "time": 198.37197400000082,
          "velocity": 0.5039370078740157,
          "duration": 0.2199611083333366
        },
        {
          "name": "F5",
          "midi": 77,
          "time": 198.60453200000083,
          "velocity": 0.5039370078740157,
          "duration": 0.4408912083333405
        },
        {
          "name": "C6",
          "midi": 84,
          "time": 198.60453200000083,
          "velocity": 0.5039370078740157,
          "duration": 0.4408912083333405
        },
        {
          "name": "C5",
          "midi": 72,
          "time": 199.76732200000083,
          "velocity": 0.5039370078740157,
          "duration": 0.2199611083333366
        },
        {
          "name": "G#5",
          "midi": 80,
          "time": 199.76732200000083,
          "velocity": 0.5039370078740157,
          "duration": 0.2199611083333366
        },
        {
          "name": "C5",
          "midi": 72,
          "time": 199.99988000000084,
          "velocity": 0.5039370078740157,
          "duration": 0.4408912083333405
        },
        {
          "name": "G#5",
          "midi": 80,
          "time": 199.99988000000084,
          "velocity": 0.5039370078740157,
          "duration": 0.4408912083333405
        },
        {
          "name": "C#5",
          "midi": 73,
          "time": 200.46499600000084,
          "velocity": 0.5039370078740157,
          "duration": 0.4408912083333405
        },
        {
          "name": "A#5",
          "midi": 82,
          "time": 200.46499600000084,
          "velocity": 0.5039370078740157,
          "duration": 0.4408912083333405
        },
        {
          "name": "C#5",
          "midi": 73,
          "time": 200.93011200000083,
          "velocity": 0.5039370078740157,
          "duration": 0.33042615833332434
        },
        {
          "name": "A#5",
          "midi": 82,
          "time": 200.93011200000083,
          "velocity": 0.5039370078740157,
          "duration": 0.33042615833332434
        },
        {
          "name": "C5",
          "midi": 72,
          "time": 201.27894900000084,
          "velocity": 0.5039370078740157,
          "duration": 1.3246116083333277
        },
        {
          "name": "D#5",
          "midi": 75,
          "time": 201.27894900000084,
          "velocity": 0.5039370078740157,
          "duration": 1.3246116083333277
        },
        {
          "name": "G#5",
          "midi": 80,
          "time": 201.27894900000084,
          "velocity": 0.5039370078740157,
          "duration": 1.3246116083333277
        }
      ]
    },
    {
      "instrument_number": -1,
      "notes": [
        {
          "name": "C#2",
          "midi": 37,
          "time": 0,
          "velocity": 0.6299212598425197,
          "duration": 0.21996110833333332
        },
        {
          "name": "G#2",
          "midi": 44,
          "time": 0.232558,
          "velocity": 0.6299212598425197,
          "duration": 0.21996110833333332
        },
        {
          "name": "C#3",
          "midi": 49,
          "time": 0.465116,
          "velocity": 0.6299212598425197,
          "duration": 0.21996110833333338
        },
        {
          "name": "D#3",
          "midi": 51,
          "time": 0.697674,
          "velocity": 0.6299212598425197,
          "duration": 0.21996110833333338
        },
        {
          "name": "F3",
          "midi": 53,
          "time": 0.9302320000000001,
          "velocity": 0.6299212598425197,
          "duration": 0.21996110833333338
        },
        {
          "name": "G#3",
          "midi": 56,
          "time": 1.1627900000000002,
          "velocity": 0.6299212598425197,
          "duration": 0.21996110833333327
        },
        {
          "name": "C4",
          "midi": 60,
          "time": 1.3953480000000003,
          "velocity": 0.6299212598425197,
          "duration": 0.21996110833333327
        },
        {
          "name": "F4",
          "midi": 65,
          "time": 1.6279060000000003,
          "velocity": 0.6299212598425197,
          "duration": 0.21996110833333327
        },
        {
          "name": "C3",
          "midi": 48,
          "time": 1.8604640000000003,
          "velocity": 0.6299212598425197,
          "duration": 0.21996110833333304
        },
        {
          "name": "E3",
          "midi": 52,
          "time": 2.093022,
          "velocity": 0.6299212598425197,
          "duration": 0.2199611083333335
        },
        {
          "name": "G3",
          "midi": 55,
          "time": 2.32558,
          "velocity": 0.6299212598425197,
          "duration": 0.2199611083333335
        },
        {
          "name": "C4",
          "midi": 60,
          "time": 2.558138,
          "velocity": 0.6299212598425197,
          "duration": 0.2199611083333335
        },
        {
          "name": "E4",
          "midi": 64,
          "time": 2.790696,
          "velocity": 0.6299212598425197,
          "duration": 0.2199611083333335
        },
        {
          "name": "G4",
          "midi": 67,
          "time": 3.023254,
          "velocity": 0.6299212598425197,
          "duration": 0.2199611083333335
        },
        {
          "name": "A#4",
          "midi": 70,
          "time": 3.255812,
          "velocity": 0.6299212598425197,
          "duration": 0.2199611083333335
        },
        {
          "name": "C5",
          "midi": 72,
          "time": 3.48837,
          "velocity": 0.6299212598425197,
          "duration": 0.2199611083333335
        },
        {
          "name": "F2",
          "midi": 41,
          "time": 3.7209280000000002,
          "velocity": 0.6299212598425197,
          "duration": 0.2199611083333335
        },
        {
          "name": "C3",
          "midi": 48,
          "time": 3.9534860000000003,
          "velocity": 0.6299212598425197,
          "duration": 0.2199611083333335
        },
        {
          "name": "F3",
          "midi": 53,
          "time": 4.186044000000001,
          "velocity": 0.6299212598425197,
          "duration": 0.21996110833333304
        },
        {
          "name": "G#3",
          "midi": 56,
          "time": 4.418602000000001,
          "velocity": 0.6299212598425197,
          "duration": 0.21996110833333304
        },
        {
          "name": "C4",
          "midi": 60,
          "time": 4.651160000000001,
          "velocity": 0.6299212598425197,
          "duration": 0.21996110833333304
        },
        {
          "name": "F4",
          "midi": 65,
          "time": 4.883718000000001,
          "velocity": 0.6299212598425197,
          "duration": 0.21996110833333304
        },
        {
          "name": "A#4",
          "midi": 70,
          "time": 5.116276000000001,
          "velocity": 0.6299212598425197,
          "duration": 0.21996110833333304
        },
        {
          "name": "C5",
          "midi": 72,
          "time": 5.348834000000001,
          "velocity": 0.6299212598425197,
          "duration": 0.21996110833333304
        },
        {
          "name": "G#3",
          "midi": 56,
          "time": 5.581392000000001,
          "velocity": 0.6299212598425197,
          "duration": 0.21996110833333304
        },
        {
          "name": "D#4",
          "midi": 63,
          "time": 5.813950000000001,
          "velocity": 0.6299212598425197,
          "duration": 0.21996110833333304
        },
        {
          "name": "F4",
          "midi": 65,
          "time": 6.046508000000001,
          "velocity": 0.6299212598425197,
          "duration": 0.21996110833333304
        },
        {
          "name": "G#4",
          "midi": 68,
          "time": 6.279066000000001,
          "velocity": 0.6299212598425197,
          "duration": 0.21996110833333304
        },
        {
          "name": "A#4",
          "midi": 70,
          "time": 6.511624000000001,
          "velocity": 0.6299212598425197,
          "duration": 0.21996110833333304
        },
        {
          "name": "C5",
          "midi": 72,
          "time": 6.744182000000001,
          "velocity": 0.6299212598425197,
          "duration": 0.21996110833333304
        },
        {
          "name": "D#5",
          "midi": 75,
          "time": 6.976740000000001,
          "velocity": 0.6299212598425197,
          "duration": 0.21996110833333304
        },
        {
          "name": "F5",
          "midi": 77,
          "time": 7.209298000000001,
          "velocity": 0.6299212598425197,
          "duration": 0.21996110833333304
        },
        {
          "name": "C#2",
          "midi": 37,
          "time": 7.441856000000001,
          "velocity": 0.6299212598425197,
          "duration": 0.21996110833333304
        },
        {
          "name": "G#2",
          "midi": 44,
          "time": 7.674414000000001,
          "velocity": 0.6299212598425197,
          "duration": 0.21996110833333304
        },
        {
          "name": "C#3",
          "midi": 49,
          "time": 7.906972000000001,
          "velocity": 0.6299212598425197,
          "duration": 0.21996110833333304
        },
        {
          "name": "D#3",
          "midi": 51,
          "time": 8.13953,
          "velocity": 0.6299212598425197,
          "duration": 0.21996110833333304
        },
        {
          "name": "F3",
          "midi": 53,
          "time": 8.372088,
          "velocity": 0.6299212598425197,
          "duration": 0.21996110833333304
        },
        {
          "name": "G#3",
          "midi": 56,
          "time": 8.604645999999999,
          "velocity": 0.6299212598425197,
          "duration": 0.21996110833333304
        },
        {
          "name": "C4",
          "midi": 60,
          "time": 8.837203999999998,
          "velocity": 0.6299212598425197,
          "duration": 0.21996110833333304
        },
        {
          "name": "F4",
          "midi": 65,
          "time": 9.069761999999997,
          "velocity": 0.6299212598425197,
          "duration": 0.21996110833333304
        },
        {
          "name": "C3",
          "midi": 48,
          "time": 9.302319999999996,
          "velocity": 0.6299212598425197,
          "duration": 0.21996110833333482
        },
        {
          "name": "E3",
          "midi": 52,
          "time": 9.534877999999997,
          "velocity": 0.6299212598425197,
          "duration": 0.21996110833333304
        },
        {
          "name": "G3",
          "midi": 55,
          "time": 9.767435999999996,
          "velocity": 0.6299212598425197,
          "duration": 0.21996110833333304
        },
        {
          "name": "C4",
          "midi": 60,
          "time": 9.999993999999996,
          "velocity": 0.6299212598425197,
          "duration": 0.21996110833333304
        },
        {
          "name": "E4",
          "midi": 64,
          "time": 10.232551999999995,
          "velocity": 0.6299212598425197,
          "duration": 0.21996110833333304
        },
        {
          "name": "G4",
          "midi": 67,
          "time": 10.465109999999994,
          "velocity": 0.6299212598425197,
          "duration": 0.21996110833333304
        },
        {
          "name": "A#4",
          "midi": 70,
          "time": 10.697667999999993,
          "velocity": 0.6299212598425197,
          "duration": 0.21996110833333304
        },
        {
          "name": "C5",
          "midi": 72,
          "time": 10.930225999999992,
          "velocity": 0.6299212598425197,
          "duration": 0.21996110833333304
        },
        {
          "name": "F2",
          "midi": 41,
          "time": 11.162783999999991,
          "velocity": 0.6299212598425197,
          "duration": 0.21996110833333482
        },
        {
          "name": "C3",
          "midi": 48,
          "time": 11.395341999999992,
          "velocity": 0.6299212598425197,
          "duration": 0.21996110833333304
        },
        {
          "name": "F3",
          "midi": 53,
          "time": 11.627899999999991,
          "velocity": 0.6299212598425197,
          "duration": 0.21996110833333304
        },
        {
          "name": "G#3",
          "midi": 56,
          "time": 11.86045799999999,
          "velocity": 0.6299212598425197,
          "duration": 0.21996110833333304
        },
        {
          "name": "C4",
          "midi": 60,
          "time": 12.09301599999999,
          "velocity": 0.6299212598425197,
          "duration": 0.21996110833333304
        },
        {
          "name": "F4",
          "midi": 65,
          "time": 12.325573999999989,
          "velocity": 0.6299212598425197,
          "duration": 0.21996110833333304
        },
        {
          "name": "A#4",
          "midi": 70,
          "time": 12.558131999999988,
          "velocity": 0.6299212598425197,
          "duration": 0.21996110833333304
        },
        {
          "name": "C5",
          "midi": 72,
          "time": 12.790689999999987,
          "velocity": 0.6299212598425197,
          "duration": 0.21996110833333304
        },
        {
          "name": "G#2",
          "midi": 44,
          "time": 13.023247999999986,
          "velocity": 0.6299212598425197,
          "duration": 0.330426158333335
        },
        {
          "name": "G#3",
          "midi": 56,
          "time": 13.023247999999986,
          "velocity": 0.6299212598425197,
          "duration": 0.330426158333335
        },
        {
          "name": "G#2",
          "midi": 44,
          "time": 13.372084999999988,
          "velocity": 0.6299212598425197,
          "duration": 0.21996110833333304
        },
        {
          "name": "G#3",
          "midi": 56,
          "time": 13.372084999999988,
          "velocity": 0.6299212598425197,
          "duration": 0.21996110833333304
        },
        {
          "name": "C3",
          "midi": 48,
          "time": 13.604642999999987,
          "velocity": 0.6299212598425197,
          "duration": 0.10949605833333287
        },
        {
          "name": "D#3",
          "midi": 51,
          "time": 13.720921999999986,
          "velocity": 0.6299212598425197,
          "duration": 0.10949605833333287
        },
        {
          "name": "G#3",
          "midi": 56,
          "time": 13.837200999999984,
          "velocity": 0.6299212598425197,
          "duration": 0.10949605833333287
        },
        {
          "name": "G#2",
          "midi": 44,
          "time": 13.953479999999983,
          "velocity": 0.6299212598425197,
          "duration": 0.3304261583333332
        },
        {
          "name": "G#3",
          "midi": 56,
          "time": 13.953479999999983,
          "velocity": 0.6299212598425197,
          "duration": 0.3304261583333332
        },
        {
          "name": "G#2",
          "midi": 44,
          "time": 14.302316999999983,
          "velocity": 0.6299212598425197,
          "duration": 0.21996110833333304
        },
        {
          "name": "G#3",
          "midi": 56,
          "time": 14.302316999999983,
          "velocity": 0.6299212598425197,
          "duration": 0.21996110833333304
        },
        {
          "name": "C3",
          "midi": 48,
          "time": 14.534874999999982,
          "velocity": 0.6299212598425197,
          "duration": 0.10949605833333287
        },
        {
          "name": "D#3",
          "midi": 51,
          "time": 14.65115399999998,
          "velocity": 0.6299212598425197,
          "duration": 0.10949605833333287
        },
        {
          "name": "G#3",
          "midi": 56,
          "time": 14.76743299999998,
          "velocity": 0.6299212598425197,
          "duration": 0.10949605833333287
        },
        {
          "name": "C#3",
          "midi": 49,
          "time": 14.883711999999978,
          "velocity": 0.6299212598425197,
          "duration": 0.330426158333335
        },
        {
          "name": "C#4",
          "midi": 61,
          "time": 14.883711999999978,
          "velocity": 0.6299212598425197,
          "duration": 0.330426158333335
        },
        {
          "name": "C#3",
          "midi": 49,
          "time": 15.23254899999998,
          "velocity": 0.6299212598425197,
          "duration": 0.3304261583333332
        },
        {
          "name": "C#4",
          "midi": 61,
          "time": 15.23254899999998,
          "velocity": 0.6299212598425197,
          "duration": 0.3304261583333332
        },
        {
          "name": "C#3",
          "midi": 49,
          "time": 15.581385999999979,
          "velocity": 0.6299212598425197,
          "duration": 0.4408912083333316
        },
        {
          "name": "C#4",
          "midi": 61,
          "time": 15.581385999999979,
          "velocity": 0.6299212598425197,
          "duration": 0.4408912083333316
        },
        {
          "name": "C#3",
          "midi": 49,
          "time": 16.046501999999975,
          "velocity": 0.6299212598425197,
          "duration": 0.330426158333335
        },
        {
          "name": "C#4",
          "midi": 61,
          "time": 16.046501999999975,
          "velocity": 0.6299212598425197,
          "duration": 0.330426158333335
        },
        {
          "name": "F3",
          "midi": 53,
          "time": 16.39533899999998,
          "velocity": 0.6299212598425197,
          "duration": 0.10949605833333464
        },
        {
          "name": "G#3",
          "midi": 56,
          "time": 16.51161799999998,
          "velocity": 0.6299212598425197,
          "duration": 0.10949605833333464
        },
        {
          "name": "C#4",
          "midi": 61,
          "time": 16.627896999999983,
          "velocity": 0.6299212598425197,
          "duration": 0.10949605833333464
        },
        {
          "name": "C3",
          "midi": 48,
          "time": 16.744175999999985,
          "velocity": 0.6299212598425197,
          "duration": 0.330426158333335
        },
        {
          "name": "C4",
          "midi": 60,
          "time": 16.744175999999985,
          "velocity": 0.6299212598425197,
          "duration": 0.330426158333335
        },
        {
          "name": "C3",
          "midi": 48,
          "time": 17.09301299999999,
          "velocity": 0.6299212598425197,
          "duration": 0.330426158333335
        },
        {
          "name": "C4",
          "midi": 60,
          "time": 17.09301299999999,
          "velocity": 0.6299212598425197,
          "duration": 0.330426158333335
        },
        {
          "name": "C3",
          "midi": 48,
          "time": 17.44184999999999,
          "velocity": 0.6299212598425197,
          "duration": 0.4408912083333334
        },
        {
          "name": "C4",
          "midi": 60,
          "time": 17.44184999999999,
          "velocity": 0.6299212598425197,
          "duration": 0.4408912083333334
        },
        {
          "name": "C3",
          "midi": 48,
          "time": 17.90696599999999,
          "velocity": 0.6299212598425197,
          "duration": 0.330426158333335
        },
        {
          "name": "C4",
          "midi": 60,
          "time": 17.90696599999999,
          "velocity": 0.6299212598425197,
          "duration": 0.330426158333335
        },
        {
          "name": "E3",
          "midi": 52,
          "time": 18.255802999999993,
          "velocity": 0.6299212598425197,
          "duration": 0.10949605833333464
        },
        {
          "name": "G3",
          "midi": 55,
          "time": 18.372081999999995,
          "velocity": 0.6299212598425197,
          "duration": 0.10949605833333464
        },
        {
          "name": "C4",
          "midi": 60,
          "time": 18.488360999999998,
          "velocity": 0.6299212598425197,
          "duration": 0.10949605833333464
        },
        {
          "name": "F2",
          "midi": 41,
          "time": 18.60464,
          "velocity": 0.6299212598425197,
          "duration": 0.330426158333335
        },
        {
          "name": "F3",
          "midi": 53,
          "time": 18.60464,
          "velocity": 0.6299212598425197,
          "duration": 0.330426158333335
        },
        {
          "name": "F2",
          "midi": 41,
          "time": 18.953477000000003,
          "velocity": 0.6299212598425197,
          "duration": 0.330426158333335
        },
        {
          "name": "F3",
          "midi": 53,
          "time": 18.953477000000003,
          "velocity": 0.6299212598425197,
          "duration": 0.330426158333335
        },
        {
          "name": "F2",
          "midi": 41,
          "time": 19.302314000000006,
          "velocity": 0.6299212598425197,
          "duration": 0.4408912083333334
        },
        {
          "name": "F3",
          "midi": 53,
          "time": 19.302314000000006,
          "velocity": 0.6299212598425197,
          "duration": 0.4408912083333334
        },
        {
          "name": "F2",
          "midi": 41,
          "time": 19.767430000000004,
          "velocity": 0.6299212598425197,
          "duration": 0.330426158333335
        },
        {
          "name": "F3",
          "midi": 53,
          "time": 19.767430000000004,
          "velocity": 0.6299212598425197,
          "duration": 0.330426158333335
        },
        {
          "name": "G#2",
          "midi": 44,
          "time": 20.116267000000008,
          "velocity": 0.6299212598425197,
          "duration": 0.10949605833333464
        },
        {
          "name": "C3",
          "midi": 48,
          "time": 20.23254600000001,
          "velocity": 0.6299212598425197,
          "duration": 0.10949605833333464
        },
        {
          "name": "F3",
          "midi": 53,
          "time": 20.348825000000012,
          "velocity": 0.6299212598425197,
          "duration": 0.10949605833333464
        },
        {
          "name": "G#2",
          "midi": 44,
          "time": 20.465104000000014,
          "velocity": 0.6299212598425197,
          "duration": 0.330426158333335
        },
        {
          "name": "G#3",
          "midi": 56,
          "time": 20.465104000000014,
          "velocity": 0.6299212598425197,
          "duration": 0.330426158333335
        },
        {
          "name": "G#2",
          "midi": 44,
          "time": 20.813941000000018,
          "velocity": 0.6299212598425197,
          "duration": 0.330426158333335
        },
        {
          "name": "G#3",
          "midi": 56,
          "time": 20.813941000000018,
          "velocity": 0.6299212598425197,
          "duration": 0.330426158333335
        },
        {
          "name": "G#2",
          "midi": 44,
          "time": 21.16277800000002,
          "velocity": 0.6299212598425197,
          "duration": 0.4408912083333334
        },
        {
          "name": "G#3",
          "midi": 56,
          "time": 21.16277800000002,
          "velocity": 0.6299212598425197,
          "duration": 0.4408912083333334
        },
        {
          "name": "G#2",
          "midi": 44,
          "time": 21.62789400000002,
          "velocity": 0.6299212598425197,
          "duration": 0.330426158333335
        },
        {
          "name": "G#3",
          "midi": 56,
          "time": 21.62789400000002,
          "velocity": 0.6299212598425197,
          "duration": 0.330426158333335
        },
        {
          "name": "C3",
          "midi": 48,
          "time": 21.976731000000022,
          "velocity": 0.6299212598425197,
          "duration": 0.10949605833333464
        },
        {
          "name": "D#3",
          "midi": 51,
          "time": 22.093010000000024,
          "velocity": 0.6299212598425197,
          "duration": 0.10949605833333464
        },
        {
          "name": "G#3",
          "midi": 56,
          "time": 22.209289000000027,
          "velocity": 0.6299212598425197,
          "duration": 0.10949605833333464
        },
        {
          "name": "C#3",
          "midi": 49,
          "time": 22.32556800000003,
          "velocity": 0.6299212598425197,
          "duration": 0.330426158333335
        },
        {
          "name": "G#3",
          "midi": 56,
          "time": 22.32556800000003,
          "velocity": 0.6299212598425197,
          "duration": 0.330426158333335
        },
        {
          "name": "G#3",
          "midi": 56,
          "time": 22.674405000000032,
          "velocity": 0.6299212598425197,
          "duration": 0.330426158333335
        },
        {
          "name": "C#4",
          "midi": 61,
          "time": 22.674405000000032,
          "velocity": 0.6299212598425197,
          "duration": 0.330426158333335
        },
        {
          "name": "F4",
          "midi": 65,
          "time": 22.674405000000032,
          "velocity": 0.6299212598425197,
          "duration": 0.330426158333335
        },
        {
          "name": "C#4",
          "midi": 61,
          "time": 23.023242000000035,
          "velocity": 0.6299212598425197,
          "duration": 0.4408912083333334
        },
        {
          "name": "F4",
          "midi": 65,
          "time": 23.023242000000035,
          "velocity": 0.6299212598425197,
          "duration": 0.4408912083333334
        },
        {
          "name": "G#4",
          "midi": 68,
          "time": 23.023242000000035,
          "velocity": 0.6299212598425197,
          "duration": 0.4408912083333334
        },
        {
          "name": "G3",
          "midi": 55,
          "time": 23.488358000000034,
          "velocity": 0.6299212598425197,
          "duration": 0.4408912083333334
        },
        {
          "name": "G4",
          "midi": 67,
          "time": 23.488358000000034,
          "velocity": 0.6299212598425197,
          "duration": 0.4408912083333334
        },
        {
          "name": "F3",
          "midi": 53,
          "time": 23.953474000000032,
          "velocity": 0.6299212598425197,
          "duration": 0.21996110833333304
        },
        {
          "name": "F4",
          "midi": 65,
          "time": 23.953474000000032,
          "velocity": 0.6299212598425197,
          "duration": 0.21996110833333304
        },
        {
          "name": "C3",
          "midi": 48,
          "time": 24.186032000000033,
          "velocity": 0.6299212598425197,
          "duration": 0.330426158333335
        },
        {
          "name": "G#3",
          "midi": 56,
          "time": 24.186032000000033,
          "velocity": 0.6299212598425197,
          "duration": 0.330426158333335
        },
        {
          "name": "G3",
          "midi": 55,
          "time": 24.534869000000036,
          "velocity": 0.6299212598425197,
          "duration": 0.330426158333335
        },
        {
          "name": "A#3",
          "midi": 58,
          "time": 24.534869000000036,
          "velocity": 0.6299212598425197,
          "duration": 0.330426158333335
        },
        {
          "name": "C4",
          "midi": 60,
          "time": 24.534869000000036,
          "velocity": 0.6299212598425197,
          "duration": 0.330426158333335
        },
        {
          "name": "F4",
          "midi": 65,
          "time": 24.534869000000036,
          "velocity": 0.6299212598425197,
          "duration": 0.330426158333335
        },
        {
          "name": "G3",
          "midi": 55,
          "time": 24.88370600000004,
          "velocity": 0.6299212598425197,
          "duration": 0.4408912083333334
        },
        {
          "name": "A#3",
          "midi": 58,
          "time": 24.88370600000004,
          "velocity": 0.6299212598425197,
          "duration": 0.4408912083333334
        },
        {
          "name": "C4",
          "midi": 60,
          "time": 24.88370600000004,
          "velocity": 0.6299212598425197,
          "duration": 0.4408912083333334
        },
        {
          "name": "D#4",
          "midi": 63,
          "time": 24.88370600000004,
          "velocity": 0.6299212598425197,
          "duration": 0.4408912083333334
        },
        {
          "name": "A#2",
          "midi": 46,
          "time": 25.348822000000037,
          "velocity": 0.6299212598425197,
          "duration": 0.21996110833333304
        },
        {
          "name": "A#3",
          "midi": 58,
          "time": 25.348822000000037,
          "velocity": 0.6299212598425197,
          "duration": 0.21996110833333304
        },
        {
          "name": "F3",
          "midi": 53,
          "time": 25.58138000000004,
          "velocity": 0.6299212598425197,
          "duration": 0.21996110833333304
        },
        {
          "name": "C4",
          "midi": 60,
          "time": 25.58138000000004,
          "velocity": 0.6299212598425197,
          "duration": 0.21996110833333304
        },
        {
          "name": "G#3",
          "midi": 56,
          "time": 25.81393800000004,
          "velocity": 0.6299212598425197,
          "duration": 0.21996110833333304
        },
        {
          "name": "C#4",
          "midi": 61,
          "time": 25.81393800000004,
          "velocity": 0.6299212598425197,
          "duration": 0.21996110833333304
        },
        {
          "name": "C4",
          "midi": 60,
          "time": 26.04649600000004,
          "velocity": 0.6299212598425197,
          "duration": 0.330426158333335
        },
        {
          "name": "D#4",
          "midi": 63,
          "time": 26.04649600000004,
          "velocity": 0.6299212598425197,
          "duration": 0.330426158333335
        },
        {
          "name": "F3",
          "midi": 53,
          "time": 26.395333000000043,
          "velocity": 0.6299212598425197,
          "duration": 0.330426158333335
        },
        {
          "name": "C4",
          "midi": 60,
          "time": 26.395333000000043,
          "velocity": 0.6299212598425197,
          "duration": 0.330426158333335
        },
        {
          "name": "F3",
          "midi": 53,
          "time": 26.744170000000047,
          "velocity": 0.6299212598425197,
          "duration": 0.4408912083333334
        },
        {
          "name": "G#3",
          "midi": 56,
          "time": 26.744170000000047,
          "velocity": 0.6299212598425197,
          "duration": 0.4408912083333334
        },
        {
          "name": "F3",
          "midi": 53,
          "time": 27.209286000000045,
          "velocity": 0.6299212598425197,
          "duration": 0.4408912083333334
        },
        {
          "name": "G#3",
          "midi": 56,
          "time": 27.209286000000045,
          "velocity": 0.6299212598425197,
          "duration": 0.4408912083333334
        },
        {
          "name": "F3",
          "midi": 53,
          "time": 27.674402000000043,
          "velocity": 0.6299212598425197,
          "duration": 0.21996110833333304
        },
        {
          "name": "G#2",
          "midi": 44,
          "time": 27.906960000000044,
          "velocity": 0.6299212598425197,
          "duration": 0.330426158333335
        },
        {
          "name": "G#3",
          "midi": 56,
          "time": 27.906960000000044,
          "velocity": 0.6299212598425197,
          "duration": 0.330426158333335
        },
        {
          "name": "G#2",
          "midi": 44,
          "time": 28.255797000000047,
          "velocity": 0.6299212598425197,
          "duration": 0.21996110833333304
        },
        {
          "name": "G#3",
          "midi": 56,
          "time": 28.255797000000047,
          "velocity": 0.6299212598425197,
          "duration": 0.21996110833333304
        },
        {
          "name": "C3",
          "midi": 48,
          "time": 28.48835500000005,
          "velocity": 0.6299212598425197,
          "duration": 0.10949605833333464
        },
        {
          "name": "D#3",
          "midi": 51,
          "time": 28.60463400000005,
          "velocity": 0.6299212598425197,
          "duration": 0.10949605833333464
        },
        {
          "name": "G#3",
          "midi": 56,
          "time": 28.720913000000053,
          "velocity": 0.6299212598425197,
          "duration": 0.10949605833333464
        },
        {
          "name": "G#2",
          "midi": 44,
          "time": 28.837192000000055,
          "velocity": 0.6299212598425197,
          "duration": 0.330426158333335
        },
        {
          "name": "G#3",
          "midi": 56,
          "time": 28.837192000000055,
          "velocity": 0.6299212598425197,
          "duration": 0.330426158333335
        },
        {
          "name": "G#2",
          "midi": 44,
          "time": 29.186029000000058,
          "velocity": 0.6299212598425197,
          "duration": 0.330426158333335
        },
        {
          "name": "G#3",
          "midi": 56,
          "time": 29.186029000000058,
          "velocity": 0.6299212598425197,
          "duration": 0.330426158333335
        },
        {
          "name": "G#2",
          "midi": 44,
          "time": 29.53486600000006,
          "velocity": 0.6299212598425197,
          "duration": 0.21996110833333304
        },
        {
          "name": "G#3",
          "midi": 56,
          "time": 29.53486600000006,
          "velocity": 0.6299212598425197,
          "duration": 0.21996110833333304
        },
        {
          "name": "C#3",
          "midi": 49,
          "time": 29.767424000000062,
          "velocity": 0.5039370078740157,
          "duration": 0.21996110833333304
        },
        {
          "name": "G#3",
          "midi": 56,
          "time": 29.999982000000063,
          "velocity": 0.5039370078740157,
          "duration": 0.21996110833333304
        },
        {
          "name": "C#4",
          "midi": 61,
          "time": 30.232540000000064,
          "velocity": 0.5039370078740157,
          "duration": 0.21996110833333304
        },
        {
          "name": "D#4",
          "midi": 63,
          "time": 30.465098000000065,
          "velocity": 0.5039370078740157,
          "duration": 0.21996110833333304
        },
        {
          "name": "G#4",
          "midi": 68,
          "time": 30.697656000000066,
          "velocity": 0.5039370078740157,
          "duration": 0.21996110833333304
        },
        {
          "name": "F4",
          "midi": 65,
          "time": 30.930214000000067,
          "velocity": 0.5039370078740157,
          "duration": 0.21996110833333304
        },
        {
          "name": "D#4",
          "midi": 63,
          "time": 31.162772000000068,
          "velocity": 0.5039370078740157,
          "duration": 0.21996110833333304
        },
        {
          "name": "C#4",
          "midi": 61,
          "time": 31.39533000000007,
          "velocity": 0.5039370078740157,
          "duration": 0.21996110833333304
        },
        {
          "name": "D#3",
          "midi": 51,
          "time": 31.62788800000007,
          "velocity": 0.5039370078740157,
          "duration": 0.21996110833333304
        },
        {
          "name": "A#3",
          "midi": 58,
          "time": 31.86044600000007,
          "velocity": 0.5039370078740157,
          "duration": 0.21996110833333304
        },
        {
          "name": "D#4",
          "midi": 63,
          "time": 32.09300400000007,
          "velocity": 0.5039370078740157,
          "duration": 0.2199611083333366
        },
        {
          "name": "F4",
          "midi": 65,
          "time": 32.325562000000076,
          "velocity": 0.5039370078740157,
          "duration": 0.2199611083333366
        },
        {
          "name": "A#4",
          "midi": 70,
          "time": 32.55812000000008,
          "velocity": 0.5039370078740157,
          "duration": 0.2199611083333366
        },
        {
          "name": "G4",
          "midi": 67,
          "time": 32.790678000000085,
          "velocity": 0.5039370078740157,
          "duration": 0.2199611083333366
        },
        {
          "name": "F4",
          "midi": 65,
          "time": 33.02323600000009,
          "velocity": 0.5039370078740157,
          "duration": 0.2199611083333366
        },
        {
          "name": "D#4",
          "midi": 63,
          "time": 33.255794000000094,
          "velocity": 0.5039370078740157,
          "duration": 0.2199611083333366
        },
        {
          "name": "F2",
          "midi": 41,
          "time": 33.4883520000001,
          "velocity": 0.5039370078740157,
          "duration": 0.2199611083333366
        },
        {
          "name": "C3",
          "midi": 48,
          "time": 33.7209100000001,
          "velocity": 0.5039370078740157,
          "duration": 0.2199611083333366
        },
        {
          "name": "F3",
          "midi": 53,
          "time": 33.95346800000011,
          "velocity": 0.5039370078740157,
          "duration": 0.2199611083333366
        },
        {
          "name": "G3",
          "midi": 55,
          "time": 34.18602600000011,
          "velocity": 0.5039370078740157,
          "duration": 0.2199611083333366
        },
        {
          "name": "C4",
          "midi": 60,
          "time": 34.418584000000116,
          "velocity": 0.5039370078740157,
          "duration": 0.2199611083333366
        },
        {
          "name": "A#3",
          "midi": 58,
          "time": 34.65114200000012,
          "velocity": 0.5039370078740157,
          "duration": 0.2199611083333366
        },
        {
          "name": "F3",
          "midi": 53,
          "time": 34.883700000000125,
          "velocity": 0.5039370078740157,
          "duration": 0.2199611083333366
        },
        {
          "name": "C3",
          "midi": 48,
          "time": 35.11625800000013,
          "velocity": 0.5039370078740157,
          "duration": 0.2199611083333366
        },
        {
          "name": "G#2",
          "midi": 44,
          "time": 35.348816000000134,
          "velocity": 0.5039370078740157,
          "duration": 0.2199611083333366
        },
        {
          "name": "D#3",
          "midi": 51,
          "time": 35.58137400000014,
          "velocity": 0.5039370078740157,
          "duration": 0.2199611083333366
        },
        {
          "name": "G#3",
          "midi": 56,
          "time": 35.81393200000014,
          "velocity": 0.5039370078740157,
          "duration": 0.2199611083333366
        },
        {
          "name": "A#3",
          "midi": 58,
          "time": 36.04649000000015,
          "velocity": 0.5039370078740157,
          "duration": 0.2199611083333366
        },
        {
          "name": "D#4",
          "midi": 63,
          "time": 36.27904800000015,
          "velocity": 0.5039370078740157,
          "duration": 0.2199611083333366
        },
        {
          "name": "C4",
          "midi": 60,
          "time": 36.51160600000016,
          "velocity": 0.5039370078740157,
          "duration": 0.2199611083333366
        },
        {
          "name": "A#3",
          "midi": 58,
          "time": 36.74416400000016,
          "velocity": 0.5039370078740157,
          "duration": 0.2199611083333366
        },
        {
          "name": "G#3",
          "midi": 56,
          "time": 36.976722000000166,
          "velocity": 0.5039370078740157,
          "duration": 0.2199611083333366
        },
        {
          "name": "C#3",
          "midi": 49,
          "time": 37.20928000000017,
          "velocity": 0.5039370078740157,
          "duration": 0.2199611083333366
        },
        {
          "name": "C#4",
          "midi": 61,
          "time": 37.20928000000017,
          "velocity": 0.5039370078740157,
          "duration": 0.2199611083333366
        },
        {
          "name": "G#3",
          "midi": 56,
          "time": 37.441838000000175,
          "velocity": 0.5039370078740157,
          "duration": 0.2199611083333366
        },
        {
          "name": "C#3",
          "midi": 49,
          "time": 37.67439600000018,
          "velocity": 0.5039370078740157,
          "duration": 0.2199611083333366
        },
        {
          "name": "C#4",
          "midi": 61,
          "time": 37.67439600000018,
          "velocity": 0.5039370078740157,
          "duration": 0.2199611083333366
        },
        {
          "name": "G#3",
          "midi": 56,
          "time": 37.906954000000184,
          "velocity": 0.5039370078740157,
          "duration": 0.2199611083333366
        },
        {
          "name": "C#3",
          "midi": 49,
          "time": 38.13951200000019,
          "velocity": 0.5039370078740157,
          "duration": 0.2199611083333366
        },
        {
          "name": "C#4",
          "midi": 61,
          "time": 38.13951200000019,
          "velocity": 0.5039370078740157,
          "duration": 0.2199611083333366
        },
        {
          "name": "G#3",
          "midi": 56,
          "time": 38.37207000000019,
          "velocity": 0.5039370078740157,
          "duration": 0.2199611083333366
        },
        {
          "name": "C#3",
          "midi": 49,
          "time": 38.6046280000002,
          "velocity": 0.5039370078740157,
          "duration": 0.2199611083333366
        },
        {
          "name": "C#4",
          "midi": 61,
          "time": 38.6046280000002,
          "velocity": 0.5039370078740157,
          "duration": 0.2199611083333366
        },
        {
          "name": "G#3",
          "midi": 56,
          "time": 38.8371860000002,
          "velocity": 0.5039370078740157,
          "duration": 0.2199611083333366
        },
        {
          "name": "D#3",
          "midi": 51,
          "time": 39.069744000000206,
          "velocity": 0.5039370078740157,
          "duration": 0.2199611083333366
        },
        {
          "name": "D#4",
          "midi": 63,
          "time": 39.069744000000206,
          "velocity": 0.5039370078740157,
          "duration": 0.2199611083333366
        },
        {
          "name": "A#3",
          "midi": 58,
          "time": 39.30230200000021,
          "velocity": 0.5039370078740157,
          "duration": 0.2199611083333366
        },
        {
          "name": "D#3",
          "midi": 51,
          "time": 39.534860000000215,
          "velocity": 0.5039370078740157,
          "duration": 0.2199611083333366
        },
        {
          "name": "D#4",
          "midi": 63,
          "time": 39.534860000000215,
          "velocity": 0.5039370078740157,
          "duration": 0.2199611083333366
        },
        {
          "name": "A#3",
          "midi": 58,
          "time": 39.76741800000022,
          "velocity": 0.5039370078740157,
          "duration": 0.2199611083333366
        },
        {
          "name": "D#3",
          "midi": 51,
          "time": 39.999976000000224,
          "velocity": 0.5039370078740157,
          "duration": 0.2199611083333366
        },
        {
          "name": "D#4",
          "midi": 63,
          "time": 39.999976000000224,
          "velocity": 0.5039370078740157,
          "duration": 0.2199611083333366
        },
        {
          "name": "A#3",
          "midi": 58,
          "time": 40.23253400000023,
          "velocity": 0.5039370078740157,
          "duration": 0.2199611083333366
        },
        {
          "name": "D#3",
          "midi": 51,
          "time": 40.46509200000023,
          "velocity": 0.5039370078740157,
          "duration": 0.2199611083333366
        },
        {
          "name": "D#4",
          "midi": 63,
          "time": 40.46509200000023,
          "velocity": 0.5039370078740157,
          "duration": 0.2199611083333366
        },
        {
          "name": "A#3",
          "midi": 58,
          "time": 40.69765000000024,
          "velocity": 0.5039370078740157,
          "duration": 0.2199611083333366
        },
        {
          "name": "F2",
          "midi": 41,
          "time": 40.93020800000024,
          "velocity": 0.5039370078740157,
          "duration": 0.2199611083333366
        },
        {
          "name": "F3",
          "midi": 53,
          "time": 40.93020800000024,
          "velocity": 0.5039370078740157,
          "duration": 0.2199611083333366
        },
        {
          "name": "C3",
          "midi": 48,
          "time": 41.162766000000246,
          "velocity": 0.5039370078740157,
          "duration": 0.2199611083333366
        },
        {
          "name": "F2",
          "midi": 41,
          "time": 41.39532400000025,
          "velocity": 0.5039370078740157,
          "duration": 0.2199611083333366
        },
        {
          "name": "F3",
          "midi": 53,
          "time": 41.39532400000025,
          "velocity": 0.5039370078740157,
          "duration": 0.2199611083333366
        },
        {
          "name": "C3",
          "midi": 48,
          "time": 41.627882000000255,
          "velocity": 0.5039370078740157,
          "duration": 0.2199611083333366
        },
        {
          "name": "F2",
          "midi": 41,
          "time": 41.86044000000026,
          "velocity": 0.5039370078740157,
          "duration": 0.2199611083333366
        },
        {
          "name": "F3",
          "midi": 53,
          "time": 41.86044000000026,
          "velocity": 0.5039370078740157,
          "duration": 0.2199611083333366
        },
        {
          "name": "C3",
          "midi": 48,
          "time": 42.092998000000264,
          "velocity": 0.5039370078740157,
          "duration": 0.2199611083333366
        },
        {
          "name": "F2",
          "midi": 41,
          "time": 42.32555600000027,
          "velocity": 0.5039370078740157,
          "duration": 0.2199611083333366
        },
        {
          "name": "F3",
          "midi": 53,
          "time": 42.32555600000027,
          "velocity": 0.5039370078740157,
          "duration": 0.2199611083333366
        },
        {
          "name": "C3",
          "midi": 48,
          "time": 42.55811400000027,
          "velocity": 0.5039370078740157,
          "duration": 0.2199611083333366
        },
        {
          "name": "G#2",
          "midi": 44,
          "time": 42.79067200000028,
          "velocity": 0.5039370078740157,
          "duration": 0.4408912083333334
        },
        {
          "name": "C#3",
          "midi": 49,
          "time": 42.79067200000028,
          "velocity": 0.5039370078740157,
          "duration": 0.4408912083333334
        },
        {
          "name": "G#3",
          "midi": 56,
          "time": 42.79067200000028,
          "velocity": 0.5039370078740157,
          "duration": 0.4408912083333334
        },
        {
          "name": "G#2",
          "midi": 44,
          "time": 43.25578800000028,
          "velocity": 0.5039370078740157,
          "duration": 0.4408912083333334
        },
        {
          "name": "C#3",
          "midi": 49,
          "time": 43.25578800000028,
          "velocity": 0.5039370078740157,
          "duration": 0.4408912083333334
        },
        {
          "name": "G#3",
          "midi": 56,
          "time": 43.25578800000028,
          "velocity": 0.5039370078740157,
          "duration": 0.4408912083333334
        },
        {
          "name": "G#2",
          "midi": 44,
          "time": 43.72090400000028,
          "velocity": 0.5039370078740157,
          "duration": 0.2199611083333366
        },
        {
          "name": "C#3",
          "midi": 49,
          "time": 43.72090400000028,
          "velocity": 0.5039370078740157,
          "duration": 0.2199611083333366
        },
        {
          "name": "G#3",
          "midi": 56,
          "time": 43.72090400000028,
          "velocity": 0.5039370078740157,
          "duration": 0.2199611083333366
        },
        {
          "name": "G#2",
          "midi": 44,
          "time": 43.953462000000286,
          "velocity": 0.5039370078740157,
          "duration": 0.2199611083333366
        },
        {
          "name": "C#3",
          "midi": 49,
          "time": 43.953462000000286,
          "velocity": 0.5039370078740157,
          "duration": 0.2199611083333366
        },
        {
          "name": "G#3",
          "midi": 56,
          "time": 43.953462000000286,
          "velocity": 0.5039370078740157,
          "duration": 0.2199611083333366
        },
        {
          "name": "G#2",
          "midi": 44,
          "time": 44.18602000000029,
          "velocity": 0.5039370078740157,
          "duration": 0.2199611083333366
        },
        {
          "name": "C#3",
          "midi": 49,
          "time": 44.18602000000029,
          "velocity": 0.5039370078740157,
          "duration": 0.2199611083333366
        },
        {
          "name": "F3",
          "midi": 53,
          "time": 44.18602000000029,
          "velocity": 0.5039370078740157,
          "duration": 0.2199611083333366
        },
        {
          "name": "G#3",
          "midi": 56,
          "time": 44.18602000000029,
          "velocity": 0.5039370078740157,
          "duration": 0.2199611083333366
        },
        {
          "name": "G#2",
          "midi": 44,
          "time": 44.418578000000295,
          "velocity": 0.5039370078740157,
          "duration": 0.2199611083333366
        },
        {
          "name": "C#3",
          "midi": 49,
          "time": 44.418578000000295,
          "velocity": 0.5039370078740157,
          "duration": 0.2199611083333366
        },
        {
          "name": "F3",
          "midi": 53,
          "time": 44.418578000000295,
          "velocity": 0.5039370078740157,
          "duration": 0.2199611083333366
        },
        {
          "name": "G#3",
          "midi": 56,
          "time": 44.418578000000295,
          "velocity": 0.5039370078740157,
          "duration": 0.2199611083333366
        },
        {
          "name": "D#4",
          "midi": 63,
          "time": 45.3488100000003,
          "velocity": 0.5039370078740157,
          "duration": 0.2199611083333366
        },
        {
          "name": "C#4",
          "midi": 61,
          "time": 45.5813680000003,
          "velocity": 0.5039370078740157,
          "duration": 0.2199611083333366
        },
        {
          "name": "G#3",
          "midi": 56,
          "time": 45.81392600000031,
          "velocity": 0.5039370078740157,
          "duration": 0.2199611083333366
        },
        {
          "name": "F3",
          "midi": 53,
          "time": 46.04648400000031,
          "velocity": 0.5039370078740157,
          "duration": 0.2199611083333366
        },
        {
          "name": "D#3",
          "midi": 51,
          "time": 46.27904200000032,
          "velocity": 0.5039370078740157,
          "duration": 0.2199611083333366
        },
        {
          "name": "C#3",
          "midi": 49,
          "time": 46.51160000000032,
          "velocity": 0.5039370078740157,
          "duration": 0.4408912083333334
        },
        {
          "name": "G#3",
          "midi": 56,
          "time": 46.51160000000032,
          "velocity": 0.5039370078740157,
          "duration": 0.4408912083333334
        },
        {
          "name": "G#3",
          "midi": 56,
          "time": 46.97671600000032,
          "velocity": 0.5039370078740157,
          "duration": 0.4408912083333334
        },
        {
          "name": "C#4",
          "midi": 61,
          "time": 46.97671600000032,
          "velocity": 0.5039370078740157,
          "duration": 0.4408912083333334
        },
        {
          "name": "F4",
          "midi": 65,
          "time": 46.97671600000032,
          "velocity": 0.5039370078740157,
          "duration": 0.4408912083333334
        },
        {
          "name": "G#3",
          "midi": 56,
          "time": 47.441832000000325,
          "velocity": 0.5039370078740157,
          "duration": 0.33042615833333144
        },
        {
          "name": "C#4",
          "midi": 61,
          "time": 47.441832000000325,
          "velocity": 0.5039370078740157,
          "duration": 0.33042615833333144
        },
        {
          "name": "D#4",
          "midi": 63,
          "time": 47.441832000000325,
          "velocity": 0.5039370078740157,
          "duration": 0.33042615833333144
        },
        {
          "name": "G#3",
          "midi": 56,
          "time": 47.79066900000032,
          "velocity": 0.5039370078740157,
          "duration": 0.33042615833333144
        },
        {
          "name": "C#4",
          "midi": 61,
          "time": 47.79066900000032,
          "velocity": 0.5039370078740157,
          "duration": 0.33042615833333144
        },
        {
          "name": "F4",
          "midi": 65,
          "time": 47.79066900000032,
          "velocity": 0.5039370078740157,
          "duration": 0.33042615833333144
        },
        {
          "name": "G#3",
          "midi": 56,
          "time": 48.13950600000032,
          "velocity": 0.5039370078740157,
          "duration": 0.2199611083333366
        },
        {
          "name": "C#4",
          "midi": 61,
          "time": 48.13950600000032,
          "velocity": 0.5039370078740157,
          "duration": 0.2199611083333366
        },
        {
          "name": "D#4",
          "midi": 63,
          "time": 48.13950600000032,
          "velocity": 0.5039370078740157,
          "duration": 0.2199611083333366
        },
        {
          "name": "C3",
          "midi": 48,
          "time": 48.37206400000032,
          "velocity": 0.5039370078740157,
          "duration": 0.4408912083333334
        },
        {
          "name": "G3",
          "midi": 55,
          "time": 48.37206400000032,
          "velocity": 0.5039370078740157,
          "duration": 0.4408912083333334
        },
        {
          "name": "G3",
          "midi": 55,
          "time": 48.83718000000032,
          "velocity": 0.5039370078740157,
          "duration": 0.4408912083333334
        },
        {
          "name": "C4",
          "midi": 60,
          "time": 48.83718000000032,
          "velocity": 0.5039370078740157,
          "duration": 0.4408912083333334
        },
        {
          "name": "F4",
          "midi": 65,
          "time": 48.83718000000032,
          "velocity": 0.5039370078740157,
          "duration": 0.4408912083333334
        },
        {
          "name": "G3",
          "midi": 55,
          "time": 49.302296000000325,
          "velocity": 0.5039370078740157,
          "duration": 0.33042615833333144
        },
        {
          "name": "C4",
          "midi": 60,
          "time": 49.302296000000325,
          "velocity": 0.5039370078740157,
          "duration": 0.33042615833333144
        },
        {
          "name": "E4",
          "midi": 64,
          "time": 49.302296000000325,
          "velocity": 0.5039370078740157,
          "duration": 0.33042615833333144
        },
        {
          "name": "G3",
          "midi": 55,
          "time": 49.65113300000032,
          "velocity": 0.5039370078740157,
          "duration": 0.33042615833333144
        },
        {
          "name": "C4",
          "midi": 60,
          "time": 49.65113300000032,
          "velocity": 0.5039370078740157,
          "duration": 0.33042615833333144
        },
        {
          "name": "F4",
          "midi": 65,
          "time": 49.65113300000032,
          "velocity": 0.5039370078740157,
          "duration": 0.33042615833333144
        },
        {
          "name": "G3",
          "midi": 55,
          "time": 49.99997000000032,
          "velocity": 0.5039370078740157,
          "duration": 0.2199611083333366
        },
        {
          "name": "C4",
          "midi": 60,
          "time": 49.99997000000032,
          "velocity": 0.5039370078740157,
          "duration": 0.2199611083333366
        },
        {
          "name": "E4",
          "midi": 64,
          "time": 49.99997000000032,
          "velocity": 0.5039370078740157,
          "duration": 0.2199611083333366
        },
        {
          "name": "F3",
          "midi": 53,
          "time": 50.23252800000032,
          "velocity": 0.5039370078740157,
          "duration": 0.4408912083333334
        },
        {
          "name": "C4",
          "midi": 60,
          "time": 50.23252800000032,
          "velocity": 0.5039370078740157,
          "duration": 0.4408912083333334
        },
        {
          "name": "G#3",
          "midi": 56,
          "time": 50.697644000000324,
          "velocity": 0.5039370078740157,
          "duration": 0.4408912083333334
        },
        {
          "name": "C4",
          "midi": 60,
          "time": 50.697644000000324,
          "velocity": 0.5039370078740157,
          "duration": 0.4408912083333334
        },
        {
          "name": "F4",
          "midi": 65,
          "time": 50.697644000000324,
          "velocity": 0.5039370078740157,
          "duration": 0.4408912083333334
        },
        {
          "name": "G#3",
          "midi": 56,
          "time": 51.162760000000326,
          "velocity": 0.5039370078740157,
          "duration": 0.33042615833333144
        },
        {
          "name": "C4",
          "midi": 60,
          "time": 51.162760000000326,
          "velocity": 0.5039370078740157,
          "duration": 0.33042615833333144
        },
        {
          "name": "D#4",
          "midi": 63,
          "time": 51.162760000000326,
          "velocity": 0.5039370078740157,
          "duration": 0.33042615833333144
        },
        {
          "name": "G#3",
          "midi": 56,
          "time": 51.51159700000032,
          "velocity": 0.5039370078740157,
          "duration": 0.33042615833333144
        },
        {
          "name": "C4",
          "midi": 60,
          "time": 51.51159700000032,
          "velocity": 0.5039370078740157,
          "duration": 0.33042615833333144
        },
        {
          "name": "F4",
          "midi": 65,
          "time": 51.51159700000032,
          "velocity": 0.5039370078740157,
          "duration": 0.33042615833333144
        },
        {
          "name": "G#3",
          "midi": 56,
          "time": 51.86043400000032,
          "velocity": 0.5039370078740157,
          "duration": 0.2199611083333366
        },
        {
          "name": "C4",
          "midi": 60,
          "time": 51.86043400000032,
          "velocity": 0.5039370078740157,
          "duration": 0.2199611083333366
        },
        {
          "name": "D#4",
          "midi": 63,
          "time": 51.86043400000032,
          "velocity": 0.5039370078740157,
          "duration": 0.2199611083333366
        },
        {
          "name": "D#3",
          "midi": 51,
          "time": 52.09299200000032,
          "velocity": 0.5039370078740157,
          "duration": 0.4408912083333334
        },
        {
          "name": "G#3",
          "midi": 56,
          "time": 52.09299200000032,
          "velocity": 0.5039370078740157,
          "duration": 0.4408912083333334
        },
        {
          "name": "D#3",
          "midi": 51,
          "time": 52.558108000000324,
          "velocity": 0.5039370078740157,
          "duration": 0.4408912083333334
        },
        {
          "name": "G#3",
          "midi": 56,
          "time": 52.558108000000324,
          "velocity": 0.5039370078740157,
          "duration": 0.4408912083333334
        },
        {
          "name": "C4",
          "midi": 60,
          "time": 52.558108000000324,
          "velocity": 0.5039370078740157,
          "duration": 0.4408912083333334
        },
        {
          "name": "D#3",
          "midi": 51,
          "time": 53.023224000000326,
          "velocity": 0.5039370078740157,
          "duration": 0.33042615833333144
        },
        {
          "name": "G#3",
          "midi": 56,
          "time": 53.023224000000326,
          "velocity": 0.5039370078740157,
          "duration": 0.33042615833333144
        },
        {
          "name": "A#3",
          "midi": 58,
          "time": 53.023224000000326,
          "velocity": 0.5039370078740157,
          "duration": 0.33042615833333144
        },
        {
          "name": "D#3",
          "midi": 51,
          "time": 53.37206100000032,
          "velocity": 0.5039370078740157,
          "duration": 0.33042615833333144
        },
        {
          "name": "G#3",
          "midi": 56,
          "time": 53.37206100000032,
          "velocity": 0.5039370078740157,
          "duration": 0.33042615833333144
        },
        {
          "name": "C4",
          "midi": 60,
          "time": 53.37206100000032,
          "velocity": 0.5039370078740157,
          "duration": 0.33042615833333144
        },
        {
          "name": "D#3",
          "midi": 51,
          "time": 53.72089800000032,
          "velocity": 0.5039370078740157,
          "duration": 0.2199611083333366
        },
        {
          "name": "G#3",
          "midi": 56,
          "time": 53.72089800000032,
          "velocity": 0.5039370078740157,
          "duration": 0.2199611083333366
        },
        {
          "name": "A#3",
          "midi": 58,
          "time": 53.72089800000032,
          "velocity": 0.5039370078740157,
          "duration": 0.2199611083333366
        },
        {
          "name": "C#3",
          "midi": 49,
          "time": 53.95345600000032,
          "velocity": 0.5039370078740157,
          "duration": 0.4408912083333334
        },
        {
          "name": "G#3",
          "midi": 56,
          "time": 53.95345600000032,
          "velocity": 0.5039370078740157,
          "duration": 0.4408912083333334
        },
        {
          "name": "G#3",
          "midi": 56,
          "time": 54.418572000000324,
          "velocity": 0.5039370078740157,
          "duration": 0.4408912083333334
        },
        {
          "name": "C#4",
          "midi": 61,
          "time": 54.418572000000324,
          "velocity": 0.5039370078740157,
          "duration": 0.4408912083333334
        },
        {
          "name": "F4",
          "midi": 65,
          "time": 54.418572000000324,
          "velocity": 0.5039370078740157,
          "duration": 0.4408912083333334
        },
        {
          "name": "G#3",
          "midi": 56,
          "time": 54.883688000000326,
          "velocity": 0.5039370078740157,
          "duration": 0.33042615833333144
        },
        {
          "name": "C#4",
          "midi": 61,
          "time": 54.883688000000326,
          "velocity": 0.5039370078740157,
          "duration": 0.33042615833333144
        },
        {
          "name": "D#4",
          "midi": 63,
          "time": 54.883688000000326,
          "velocity": 0.5039370078740157,
          "duration": 0.33042615833333144
        },
        {
          "name": "G#3",
          "midi": 56,
          "time": 55.23252500000032,
          "velocity": 0.5039370078740157,
          "duration": 0.33042615833333144
        },
        {
          "name": "C#4",
          "midi": 61,
          "time": 55.23252500000032,
          "velocity": 0.5039370078740157,
          "duration": 0.33042615833333144
        },
        {
          "name": "F4",
          "midi": 65,
          "time": 55.23252500000032,
          "velocity": 0.5039370078740157,
          "duration": 0.33042615833333144
        },
        {
          "name": "G#3",
          "midi": 56,
          "time": 55.58136200000032,
          "velocity": 0.5039370078740157,
          "duration": 0.2199611083333366
        },
        {
          "name": "C#4",
          "midi": 61,
          "time": 55.58136200000032,
          "velocity": 0.5039370078740157,
          "duration": 0.2199611083333366
        },
        {
          "name": "D#4",
          "midi": 63,
          "time": 55.58136200000032,
          "velocity": 0.5039370078740157,
          "duration": 0.2199611083333366
        },
        {
          "name": "C3",
          "midi": 48,
          "time": 55.81392000000032,
          "velocity": 0.5039370078740157,
          "duration": 0.4408912083333334
        },
        {
          "name": "G3",
          "midi": 55,
          "time": 55.81392000000032,
          "velocity": 0.5039370078740157,
          "duration": 0.4408912083333334
        },
        {
          "name": "G3",
          "midi": 55,
          "time": 56.279036000000325,
          "velocity": 0.5039370078740157,
          "duration": 0.4408912083333334
        },
        {
          "name": "C4",
          "midi": 60,
          "time": 56.279036000000325,
          "velocity": 0.5039370078740157,
          "duration": 0.4408912083333334
        },
        {
          "name": "F4",
          "midi": 65,
          "time": 56.279036000000325,
          "velocity": 0.5039370078740157,
          "duration": 0.4408912083333334
        },
        {
          "name": "G3",
          "midi": 55,
          "time": 56.74415200000033,
          "velocity": 0.5039370078740157,
          "duration": 0.33042615833333144
        },
        {
          "name": "C4",
          "midi": 60,
          "time": 56.74415200000033,
          "velocity": 0.5039370078740157,
          "duration": 0.33042615833333144
        },
        {
          "name": "E4",
          "midi": 64,
          "time": 56.74415200000033,
          "velocity": 0.5039370078740157,
          "duration": 0.33042615833333144
        },
        {
          "name": "G3",
          "midi": 55,
          "time": 57.09298900000032,
          "velocity": 0.5039370078740157,
          "duration": 0.33042615833333144
        },
        {
          "name": "C4",
          "midi": 60,
          "time": 57.09298900000032,
          "velocity": 0.5039370078740157,
          "duration": 0.33042615833333144
        },
        {
          "name": "F4",
          "midi": 65,
          "time": 57.09298900000032,
          "velocity": 0.5039370078740157,
          "duration": 0.33042615833333144
        },
        {
          "name": "G3",
          "midi": 55,
          "time": 57.44182600000032,
          "velocity": 0.5039370078740157,
          "duration": 0.2199611083333366
        },
        {
          "name": "C4",
          "midi": 60,
          "time": 57.44182600000032,
          "velocity": 0.5039370078740157,
          "duration": 0.2199611083333366
        },
        {
          "name": "E4",
          "midi": 64,
          "time": 57.44182600000032,
          "velocity": 0.5039370078740157,
          "duration": 0.2199611083333366
        },
        {
          "name": "F3",
          "midi": 53,
          "time": 57.67438400000032,
          "velocity": 0.5039370078740157,
          "duration": 0.4408912083333334
        },
        {
          "name": "C4",
          "midi": 60,
          "time": 57.67438400000032,
          "velocity": 0.5039370078740157,
          "duration": 0.4408912083333334
        },
        {
          "name": "G#3",
          "midi": 56,
          "time": 58.139500000000325,
          "velocity": 0.5039370078740157,
          "duration": 0.4408912083333334
        },
        {
          "name": "C4",
          "midi": 60,
          "time": 58.139500000000325,
          "velocity": 0.5039370078740157,
          "duration": 0.4408912083333334
        },
        {
          "name": "F4",
          "midi": 65,
          "time": 58.139500000000325,
          "velocity": 0.5039370078740157,
          "duration": 0.4408912083333334
        },
        {
          "name": "G#3",
          "midi": 56,
          "time": 58.60461600000033,
          "velocity": 0.5039370078740157,
          "duration": 0.33042615833333144
        },
        {
          "name": "C4",
          "midi": 60,
          "time": 58.60461600000033,
          "velocity": 0.5039370078740157,
          "duration": 0.33042615833333144
        },
        {
          "name": "D#4",
          "midi": 63,
          "time": 58.60461600000033,
          "velocity": 0.5039370078740157,
          "duration": 0.33042615833333144
        },
        {
          "name": "G#3",
          "midi": 56,
          "time": 58.95345300000032,
          "velocity": 0.5039370078740157,
          "duration": 0.33042615833333144
        },
        {
          "name": "C4",
          "midi": 60,
          "time": 58.95345300000032,
          "velocity": 0.5039370078740157,
          "duration": 0.33042615833333144
        },
        {
          "name": "F4",
          "midi": 65,
          "time": 58.95345300000032,
          "velocity": 0.5039370078740157,
          "duration": 0.33042615833333144
        },
        {
          "name": "G#3",
          "midi": 56,
          "time": 59.30229000000032,
          "velocity": 0.5039370078740157,
          "duration": 0.2199611083333366
        },
        {
          "name": "C4",
          "midi": 60,
          "time": 59.30229000000032,
          "velocity": 0.5039370078740157,
          "duration": 0.2199611083333366
        },
        {
          "name": "D#4",
          "midi": 63,
          "time": 59.30229000000032,
          "velocity": 0.5039370078740157,
          "duration": 0.2199611083333366
        },
        {
          "name": "D#3",
          "midi": 51,
          "time": 59.53484800000032,
          "velocity": 0.5039370078740157,
          "duration": 0.4408912083333334
        },
        {
          "name": "G#3",
          "midi": 56,
          "time": 59.53484800000032,
          "velocity": 0.5039370078740157,
          "duration": 0.4408912083333334
        },
        {
          "name": "D#3",
          "midi": 51,
          "time": 59.999964000000325,
          "velocity": 0.5039370078740157,
          "duration": 0.4408912083333334
        },
        {
          "name": "G#3",
          "midi": 56,
          "time": 59.999964000000325,
          "velocity": 0.5039370078740157,
          "duration": 0.4408912083333334
        },
        {
          "name": "C4",
          "midi": 60,
          "time": 59.999964000000325,
          "velocity": 0.5039370078740157,
          "duration": 0.4408912083333334
        },
        {
          "name": "D#3",
          "midi": 51,
          "time": 60.46508000000033,
          "velocity": 0.5039370078740157,
          "duration": 0.33042615833333144
        },
        {
          "name": "G#3",
          "midi": 56,
          "time": 60.46508000000033,
          "velocity": 0.5039370078740157,
          "duration": 0.33042615833333144
        },
        {
          "name": "A#3",
          "midi": 58,
          "time": 60.46508000000033,
          "velocity": 0.5039370078740157,
          "duration": 0.33042615833333144
        },
        {
          "name": "D#3",
          "midi": 51,
          "time": 60.81391700000032,
          "velocity": 0.5039370078740157,
          "duration": 0.33042615833333144
        },
        {
          "name": "G#3",
          "midi": 56,
          "time": 60.81391700000032,
          "velocity": 0.5039370078740157,
          "duration": 0.33042615833333144
        },
        {
          "name": "C4",
          "midi": 60,
          "time": 60.81391700000032,
          "velocity": 0.5039370078740157,
          "duration": 0.33042615833333144
        },
        {
          "name": "D#3",
          "midi": 51,
          "time": 61.16275400000032,
          "velocity": 0.5039370078740157,
          "duration": 0.2199611083333366
        },
        {
          "name": "G#3",
          "midi": 56,
          "time": 61.16275400000032,
          "velocity": 0.5039370078740157,
          "duration": 0.2199611083333366
        },
        {
          "name": "A#3",
          "midi": 58,
          "time": 61.16275400000032,
          "velocity": 0.5039370078740157,
          "duration": 0.2199611083333366
        },
        {
          "name": "C#3",
          "midi": 49,
          "time": 61.395312000000324,
          "velocity": 0.5039370078740157,
          "duration": 0.4408912083333334
        },
        {
          "name": "G#3",
          "midi": 56,
          "time": 61.395312000000324,
          "velocity": 0.5039370078740157,
          "duration": 0.4408912083333334
        },
        {
          "name": "G#3",
          "midi": 56,
          "time": 61.860428000000326,
          "velocity": 0.5039370078740157,
          "duration": 0.4408912083333334
        },
        {
          "name": "C#4",
          "midi": 61,
          "time": 61.860428000000326,
          "velocity": 0.5039370078740157,
          "duration": 0.4408912083333334
        },
        {
          "name": "F4",
          "midi": 65,
          "time": 61.860428000000326,
          "velocity": 0.5039370078740157,
          "duration": 0.4408912083333334
        },
        {
          "name": "G#3",
          "midi": 56,
          "time": 62.32554400000033,
          "velocity": 0.5039370078740157,
          "duration": 0.33042615833333144
        },
        {
          "name": "C#4",
          "midi": 61,
          "time": 62.32554400000033,
          "velocity": 0.5039370078740157,
          "duration": 0.33042615833333144
        },
        {
          "name": "D#4",
          "midi": 63,
          "time": 62.32554400000033,
          "velocity": 0.5039370078740157,
          "duration": 0.33042615833333144
        },
        {
          "name": "G#3",
          "midi": 56,
          "time": 62.674381000000324,
          "velocity": 0.5039370078740157,
          "duration": 0.33042615833333144
        },
        {
          "name": "C#4",
          "midi": 61,
          "time": 62.674381000000324,
          "velocity": 0.5039370078740157,
          "duration": 0.33042615833333144
        },
        {
          "name": "F4",
          "midi": 65,
          "time": 62.674381000000324,
          "velocity": 0.5039370078740157,
          "duration": 0.33042615833333144
        },
        {
          "name": "G#3",
          "midi": 56,
          "time": 63.02321800000032,
          "velocity": 0.5039370078740157,
          "duration": 0.2199611083333366
        },
        {
          "name": "C#4",
          "midi": 61,
          "time": 63.02321800000032,
          "velocity": 0.5039370078740157,
          "duration": 0.2199611083333366
        },
        {
          "name": "D#4",
          "midi": 63,
          "time": 63.02321800000032,
          "velocity": 0.5039370078740157,
          "duration": 0.2199611083333366
        },
        {
          "name": "C3",
          "midi": 48,
          "time": 63.255776000000324,
          "velocity": 0.5039370078740157,
          "duration": 0.4408912083333334
        },
        {
          "name": "G3",
          "midi": 55,
          "time": 63.255776000000324,
          "velocity": 0.5039370078740157,
          "duration": 0.4408912083333334
        },
        {
          "name": "G3",
          "midi": 55,
          "time": 63.720892000000326,
          "velocity": 0.5039370078740157,
          "duration": 0.4408912083333334
        },
        {
          "name": "A#3",
          "midi": 58,
          "time": 63.720892000000326,
          "velocity": 0.5039370078740157,
          "duration": 0.4408912083333334
        },
        {
          "name": "C4",
          "midi": 60,
          "time": 63.720892000000326,
          "velocity": 0.5039370078740157,
          "duration": 0.4408912083333334
        },
        {
          "name": "F4",
          "midi": 65,
          "time": 63.720892000000326,
          "velocity": 0.5039370078740157,
          "duration": 0.4408912083333334
        },
        {
          "name": "G3",
          "midi": 55,
          "time": 64.18600800000033,
          "velocity": 0.5039370078740157,
          "duration": 0.33042615833333855
        },
        {
          "name": "A#3",
          "midi": 58,
          "time": 64.18600800000033,
          "velocity": 0.5039370078740157,
          "duration": 0.33042615833333855
        },
        {
          "name": "C4",
          "midi": 60,
          "time": 64.18600800000033,
          "velocity": 0.5039370078740157,
          "duration": 0.33042615833333855
        },
        {
          "name": "E4",
          "midi": 64,
          "time": 64.18600800000033,
          "velocity": 0.5039370078740157,
          "duration": 0.33042615833333855
        },
        {
          "name": "G3",
          "midi": 55,
          "time": 64.53484500000033,
          "velocity": 0.5039370078740157,
          "duration": 0.33042615833333855
        },
        {
          "name": "A#3",
          "midi": 58,
          "time": 64.53484500000033,
          "velocity": 0.5039370078740157,
          "duration": 0.33042615833333855
        },
        {
          "name": "C4",
          "midi": 60,
          "time": 64.53484500000033,
          "velocity": 0.5039370078740157,
          "duration": 0.33042615833333855
        },
        {
          "name": "F4",
          "midi": 65,
          "time": 64.53484500000033,
          "velocity": 0.5039370078740157,
          "duration": 0.33042615833333855
        },
        {
          "name": "G3",
          "midi": 55,
          "time": 64.88368200000033,
          "velocity": 0.5039370078740157,
          "duration": 0.2199611083333366
        },
        {
          "name": "A#3",
          "midi": 58,
          "time": 64.88368200000033,
          "velocity": 0.5039370078740157,
          "duration": 0.2199611083333366
        },
        {
          "name": "C4",
          "midi": 60,
          "time": 64.88368200000033,
          "velocity": 0.5039370078740157,
          "duration": 0.2199611083333366
        },
        {
          "name": "E4",
          "midi": 64,
          "time": 64.88368200000033,
          "velocity": 0.5039370078740157,
          "duration": 0.2199611083333366
        },
        {
          "name": "F3",
          "midi": 53,
          "time": 65.11624000000033,
          "velocity": 0.5039370078740157,
          "duration": 0.4408912083333405
        },
        {
          "name": "C4",
          "midi": 60,
          "time": 65.11624000000033,
          "velocity": 0.5039370078740157,
          "duration": 0.4408912083333405
        },
        {
          "name": "G#3",
          "midi": 56,
          "time": 65.58135600000034,
          "velocity": 0.5039370078740157,
          "duration": 0.4408912083333263
        },
        {
          "name": "C4",
          "midi": 60,
          "time": 65.58135600000034,
          "velocity": 0.5039370078740157,
          "duration": 0.4408912083333263
        },
        {
          "name": "F4",
          "midi": 65,
          "time": 65.58135600000034,
          "velocity": 0.5039370078740157,
          "duration": 0.4408912083333263
        },
        {
          "name": "G#3",
          "midi": 56,
          "time": 66.04647200000034,
          "velocity": 0.5039370078740157,
          "duration": 0.33042615833333855
        },
        {
          "name": "C4",
          "midi": 60,
          "time": 66.04647200000034,
          "velocity": 0.5039370078740157,
          "duration": 0.33042615833333855
        },
        {
          "name": "D#4",
          "midi": 63,
          "time": 66.04647200000034,
          "velocity": 0.5039370078740157,
          "duration": 0.33042615833333855
        },
        {
          "name": "G#3",
          "midi": 56,
          "time": 66.39530900000034,
          "velocity": 0.5039370078740157,
          "duration": 0.33042615833333855
        },
        {
          "name": "C4",
          "midi": 60,
          "time": 66.39530900000034,
          "velocity": 0.5039370078740157,
          "duration": 0.33042615833333855
        },
        {
          "name": "F4",
          "midi": 65,
          "time": 66.39530900000034,
          "velocity": 0.5039370078740157,
          "duration": 0.33042615833333855
        },
        {
          "name": "G#3",
          "midi": 56,
          "time": 66.74414600000034,
          "velocity": 0.5039370078740157,
          "duration": 0.2199611083333366
        },
        {
          "name": "C4",
          "midi": 60,
          "time": 66.74414600000034,
          "velocity": 0.5039370078740157,
          "duration": 0.2199611083333366
        },
        {
          "name": "D#4",
          "midi": 63,
          "time": 66.74414600000034,
          "velocity": 0.5039370078740157,
          "duration": 0.2199611083333366
        },
        {
          "name": "D#3",
          "midi": 51,
          "time": 66.97670400000034,
          "velocity": 0.5039370078740157,
          "duration": 0.4408912083333405
        },
        {
          "name": "G#3",
          "midi": 56,
          "time": 66.97670400000034,
          "velocity": 0.5039370078740157,
          "duration": 0.4408912083333405
        },
        {
          "name": "D#3",
          "midi": 51,
          "time": 67.44182000000035,
          "velocity": 0.5039370078740157,
          "duration": 0.4408912083333263
        },
        {
          "name": "G#3",
          "midi": 56,
          "time": 67.44182000000035,
          "velocity": 0.5039370078740157,
          "duration": 0.4408912083333263
        },
        {
          "name": "C4",
          "midi": 60,
          "time": 67.44182000000035,
          "velocity": 0.5039370078740157,
          "duration": 0.4408912083333263
        },
        {
          "name": "D#3",
          "midi": 51,
          "time": 67.90693600000034,
          "velocity": 0.5039370078740157,
          "duration": 0.33042615833333855
        },
        {
          "name": "G#3",
          "midi": 56,
          "time": 67.90693600000034,
          "velocity": 0.5039370078740157,
          "duration": 0.33042615833333855
        },
        {
          "name": "A#3",
          "midi": 58,
          "time": 67.90693600000034,
          "velocity": 0.5039370078740157,
          "duration": 0.33042615833333855
        },
        {
          "name": "D#3",
          "midi": 51,
          "time": 68.25577300000035,
          "velocity": 0.5039370078740157,
          "duration": 0.33042615833333855
        },
        {
          "name": "G#3",
          "midi": 56,
          "time": 68.25577300000035,
          "velocity": 0.5039370078740157,
          "duration": 0.33042615833333855
        },
        {
          "name": "C4",
          "midi": 60,
          "time": 68.25577300000035,
          "velocity": 0.5039370078740157,
          "duration": 0.33042615833333855
        },
        {
          "name": "D#3",
          "midi": 51,
          "time": 68.60461000000035,
          "velocity": 0.5039370078740157,
          "duration": 0.2199611083333366
        },
        {
          "name": "G#3",
          "midi": 56,
          "time": 68.60461000000035,
          "velocity": 0.5039370078740157,
          "duration": 0.2199611083333366
        },
        {
          "name": "A#3",
          "midi": 58,
          "time": 68.60461000000035,
          "velocity": 0.5039370078740157,
          "duration": 0.2199611083333366
        },
        {
          "name": "C#3",
          "midi": 49,
          "time": 68.83716800000035,
          "velocity": 0.5039370078740157,
          "duration": 0.4408912083333405
        },
        {
          "name": "G#3",
          "midi": 56,
          "time": 68.83716800000035,
          "velocity": 0.5039370078740157,
          "duration": 0.4408912083333405
        },
        {
          "name": "G#3",
          "midi": 56,
          "time": 69.30228400000036,
          "velocity": 0.5039370078740157,
          "duration": 0.4408912083333263
        },
        {
          "name": "C#4",
          "midi": 61,
          "time": 69.30228400000036,
          "velocity": 0.5039370078740157,
          "duration": 0.4408912083333263
        },
        {
          "name": "F4",
          "midi": 65,
          "time": 69.30228400000036,
          "velocity": 0.5039370078740157,
          "duration": 0.4408912083333263
        },
        {
          "name": "G#3",
          "midi": 56,
          "time": 69.76740000000035,
          "velocity": 0.5039370078740157,
          "duration": 0.33042615833333855
        },
        {
          "name": "C#4",
          "midi": 61,
          "time": 69.76740000000035,
          "velocity": 0.5039370078740157,
          "duration": 0.33042615833333855
        },
        {
          "name": "D#4",
          "midi": 63,
          "time": 69.76740000000035,
          "velocity": 0.5039370078740157,
          "duration": 0.33042615833333855
        },
        {
          "name": "G#3",
          "midi": 56,
          "time": 70.11623700000035,
          "velocity": 0.5039370078740157,
          "duration": 0.33042615833333855
        },
        {
          "name": "C#4",
          "midi": 61,
          "time": 70.11623700000035,
          "velocity": 0.5039370078740157,
          "duration": 0.33042615833333855
        },
        {
          "name": "F4",
          "midi": 65,
          "time": 70.11623700000035,
          "velocity": 0.5039370078740157,
          "duration": 0.33042615833333855
        },
        {
          "name": "G#3",
          "midi": 56,
          "time": 70.46507400000036,
          "velocity": 0.5039370078740157,
          "duration": 0.2199611083333366
        },
        {
          "name": "C#4",
          "midi": 61,
          "time": 70.46507400000036,
          "velocity": 0.5039370078740157,
          "duration": 0.2199611083333366
        },
        {
          "name": "D#4",
          "midi": 63,
          "time": 70.46507400000036,
          "velocity": 0.5039370078740157,
          "duration": 0.2199611083333366
        },
        {
          "name": "C3",
          "midi": 48,
          "time": 70.69763200000035,
          "velocity": 0.5039370078740157,
          "duration": 0.4408912083333405
        },
        {
          "name": "G3",
          "midi": 55,
          "time": 70.69763200000035,
          "velocity": 0.5039370078740157,
          "duration": 0.4408912083333405
        },
        {
          "name": "G3",
          "midi": 55,
          "time": 71.16274800000036,
          "velocity": 0.5039370078740157,
          "duration": 0.4408912083333263
        },
        {
          "name": "C4",
          "midi": 60,
          "time": 71.16274800000036,
          "velocity": 0.5039370078740157,
          "duration": 0.4408912083333263
        },
        {
          "name": "F4",
          "midi": 65,
          "time": 71.16274800000036,
          "velocity": 0.5039370078740157,
          "duration": 0.4408912083333263
        },
        {
          "name": "G3",
          "midi": 55,
          "time": 71.62786400000036,
          "velocity": 0.5039370078740157,
          "duration": 0.33042615833333855
        },
        {
          "name": "C4",
          "midi": 60,
          "time": 71.62786400000036,
          "velocity": 0.5039370078740157,
          "duration": 0.33042615833333855
        },
        {
          "name": "E4",
          "midi": 64,
          "time": 71.62786400000036,
          "velocity": 0.5039370078740157,
          "duration": 0.33042615833333855
        },
        {
          "name": "G3",
          "midi": 55,
          "time": 71.97670100000036,
          "velocity": 0.5039370078740157,
          "duration": 0.33042615833333855
        },
        {
          "name": "C4",
          "midi": 60,
          "time": 71.97670100000036,
          "velocity": 0.5039370078740157,
          "duration": 0.33042615833333855
        },
        {
          "name": "F4",
          "midi": 65,
          "time": 71.97670100000036,
          "velocity": 0.5039370078740157,
          "duration": 0.33042615833333855
        },
        {
          "name": "G3",
          "midi": 55,
          "time": 72.32553800000036,
          "velocity": 0.5039370078740157,
          "duration": 0.2199611083333366
        },
        {
          "name": "C4",
          "midi": 60,
          "time": 72.32553800000036,
          "velocity": 0.5039370078740157,
          "duration": 0.2199611083333366
        },
        {
          "name": "E4",
          "midi": 64,
          "time": 72.32553800000036,
          "velocity": 0.5039370078740157,
          "duration": 0.2199611083333366
        },
        {
          "name": "F3",
          "midi": 53,
          "time": 72.55809600000036,
          "velocity": 0.5039370078740157,
          "duration": 0.4408912083333405
        },
        {
          "name": "C4",
          "midi": 60,
          "time": 72.55809600000036,
          "velocity": 0.5039370078740157,
          "duration": 0.4408912083333405
        },
        {
          "name": "G#3",
          "midi": 56,
          "time": 73.02321200000037,
          "velocity": 0.5039370078740157,
          "duration": 0.4408912083333263
        },
        {
          "name": "C4",
          "midi": 60,
          "time": 73.02321200000037,
          "velocity": 0.5039370078740157,
          "duration": 0.4408912083333263
        },
        {
          "name": "F4",
          "midi": 65,
          "time": 73.02321200000037,
          "velocity": 0.5039370078740157,
          "duration": 0.4408912083333263
        },
        {
          "name": "G#3",
          "midi": 56,
          "time": 73.48832800000037,
          "velocity": 0.5039370078740157,
          "duration": 0.33042615833333855
        },
        {
          "name": "C4",
          "midi": 60,
          "time": 73.48832800000037,
          "velocity": 0.5039370078740157,
          "duration": 0.33042615833333855
        },
        {
          "name": "D#4",
          "midi": 63,
          "time": 73.48832800000037,
          "velocity": 0.5039370078740157,
          "duration": 0.33042615833333855
        },
        {
          "name": "G#3",
          "midi": 56,
          "time": 73.83716500000037,
          "velocity": 0.5039370078740157,
          "duration": 0.33042615833333855
        },
        {
          "name": "C4",
          "midi": 60,
          "time": 73.83716500000037,
          "velocity": 0.5039370078740157,
          "duration": 0.33042615833333855
        },
        {
          "name": "F4",
          "midi": 65,
          "time": 73.83716500000037,
          "velocity": 0.5039370078740157,
          "duration": 0.33042615833333855
        },
        {
          "name": "G#3",
          "midi": 56,
          "time": 74.18600200000037,
          "velocity": 0.5039370078740157,
          "duration": 0.2199611083333366
        },
        {
          "name": "C4",
          "midi": 60,
          "time": 74.18600200000037,
          "velocity": 0.5039370078740157,
          "duration": 0.2199611083333366
        },
        {
          "name": "D#4",
          "midi": 63,
          "time": 74.18600200000037,
          "velocity": 0.5039370078740157,
          "duration": 0.2199611083333366
        },
        {
          "name": "D#3",
          "midi": 51,
          "time": 74.41856000000037,
          "velocity": 0.5039370078740157,
          "duration": 0.4408912083333405
        },
        {
          "name": "G#3",
          "midi": 56,
          "time": 74.41856000000037,
          "velocity": 0.5039370078740157,
          "duration": 0.4408912083333405
        },
        {
          "name": "D#3",
          "midi": 51,
          "time": 74.88367600000038,
          "velocity": 0.5039370078740157,
          "duration": 0.4408912083333263
        },
        {
          "name": "G#3",
          "midi": 56,
          "time": 74.88367600000038,
          "velocity": 0.5039370078740157,
          "duration": 0.4408912083333263
        },
        {
          "name": "C4",
          "midi": 60,
          "time": 74.88367600000038,
          "velocity": 0.5039370078740157,
          "duration": 0.4408912083333263
        },
        {
          "name": "D#3",
          "midi": 51,
          "time": 75.34879200000037,
          "velocity": 0.5039370078740157,
          "duration": 0.33042615833333855
        },
        {
          "name": "G#3",
          "midi": 56,
          "time": 75.34879200000037,
          "velocity": 0.5039370078740157,
          "duration": 0.33042615833333855
        },
        {
          "name": "A#3",
          "midi": 58,
          "time": 75.34879200000037,
          "velocity": 0.5039370078740157,
          "duration": 0.33042615833333855
        },
        {
          "name": "D#3",
          "midi": 51,
          "time": 75.69762900000038,
          "velocity": 0.5039370078740157,
          "duration": 0.33042615833333855
        },
        {
          "name": "G#3",
          "midi": 56,
          "time": 75.69762900000038,
          "velocity": 0.5039370078740157,
          "duration": 0.33042615833333855
        },
        {
          "name": "C4",
          "midi": 60,
          "time": 75.69762900000038,
          "velocity": 0.5039370078740157,
          "duration": 0.33042615833333855
        },
        {
          "name": "D#3",
          "midi": 51,
          "time": 76.04646600000038,
          "velocity": 0.5039370078740157,
          "duration": 0.2199611083333366
        },
        {
          "name": "G#3",
          "midi": 56,
          "time": 76.04646600000038,
          "velocity": 0.5039370078740157,
          "duration": 0.2199611083333366
        },
        {
          "name": "A#3",
          "midi": 58,
          "time": 76.04646600000038,
          "velocity": 0.5039370078740157,
          "duration": 0.2199611083333366
        },
        {
          "name": "G#3",
          "midi": 56,
          "time": 76.27902400000038,
          "velocity": 0.5039370078740157,
          "duration": 0.33042615833333855
        },
        {
          "name": "C#4",
          "midi": 61,
          "time": 76.27902400000038,
          "velocity": 0.5039370078740157,
          "duration": 0.33042615833333855
        },
        {
          "name": "G#3",
          "midi": 56,
          "time": 76.62786100000038,
          "velocity": 0.5039370078740157,
          "duration": 0.6618213083333302
        },
        {
          "name": "C4",
          "midi": 60,
          "time": 76.62786100000038,
          "velocity": 0.5039370078740157,
          "duration": 0.6618213083333302
        },
        {
          "name": "A#3",
          "midi": 58,
          "time": 77.67437200000037,
          "velocity": 0.5039370078740157,
          "duration": 0.10949605833333464
        },
        {
          "name": "G#3",
          "midi": 56,
          "time": 77.79065100000038,
          "velocity": 0.5039370078740157,
          "duration": 0.10949605833333464
        },
        {
          "name": "G3",
          "midi": 55,
          "time": 77.90693000000039,
          "velocity": 0.5039370078740157,
          "duration": 0.10949605833333464
        },
        {
          "name": "F3",
          "midi": 53,
          "time": 78.02320900000039,
          "velocity": 0.5039370078740157,
          "duration": 0.10949605833333464
        },
        {
          "name": "C#3",
          "midi": 49,
          "time": 78.1394880000004,
          "velocity": 0.5039370078740157,
          "duration": 0.33042615833333855
        },
        {
          "name": "C#3",
          "midi": 49,
          "time": 78.4883250000004,
          "velocity": 0.5039370078740157,
          "duration": 0.33042615833333855
        },
        {
          "name": "C#4",
          "midi": 61,
          "time": 78.4883250000004,
          "velocity": 0.5039370078740157,
          "duration": 0.33042615833333855
        },
        {
          "name": "C#3",
          "midi": 49,
          "time": 78.8371620000004,
          "velocity": 0.5039370078740157,
          "duration": 0.4408912083333263
        },
        {
          "name": "C#4",
          "midi": 61,
          "time": 78.8371620000004,
          "velocity": 0.5039370078740157,
          "duration": 0.4408912083333263
        },
        {
          "name": "C#3",
          "midi": 49,
          "time": 79.3022780000004,
          "velocity": 0.5039370078740157,
          "duration": 0.33042615833333855
        },
        {
          "name": "C#4",
          "midi": 61,
          "time": 79.3022780000004,
          "velocity": 0.5039370078740157,
          "duration": 0.33042615833333855
        },
        {
          "name": "F3",
          "midi": 53,
          "time": 79.6511150000004,
          "velocity": 0.5039370078740157,
          "duration": 0.10949605833333464
        },
        {
          "name": "G#3",
          "midi": 56,
          "time": 79.76739400000041,
          "velocity": 0.5039370078740157,
          "duration": 0.10949605833333464
        },
        {
          "name": "C#4",
          "midi": 61,
          "time": 79.88367300000041,
          "velocity": 0.5039370078740157,
          "duration": 0.10949605833333464
        },
        {
          "name": "C3",
          "midi": 48,
          "time": 79.99995200000042,
          "velocity": 0.5039370078740157,
          "duration": 0.33042615833333855
        },
        {
          "name": "C3",
          "midi": 48,
          "time": 80.34878900000042,
          "velocity": 0.5039370078740157,
          "duration": 0.33042615833333855
        },
        {
          "name": "C4",
          "midi": 60,
          "time": 80.34878900000042,
          "velocity": 0.5039370078740157,
          "duration": 0.33042615833333855
        },
        {
          "name": "C3",
          "midi": 48,
          "time": 80.69762600000043,
          "velocity": 0.5039370078740157,
          "duration": 0.4408912083333263
        },
        {
          "name": "C4",
          "midi": 60,
          "time": 80.69762600000043,
          "velocity": 0.5039370078740157,
          "duration": 0.4408912083333263
        },
        {
          "name": "C3",
          "midi": 48,
          "time": 81.16274200000042,
          "velocity": 0.5039370078740157,
          "duration": 0.33042615833333855
        },
        {
          "name": "C4",
          "midi": 60,
          "time": 81.16274200000042,
          "velocity": 0.5039370078740157,
          "duration": 0.33042615833333855
        },
        {
          "name": "D#3",
          "midi": 51,
          "time": 81.51157900000042,
          "velocity": 0.5039370078740157,
          "duration": 0.10949605833333464
        },
        {
          "name": "G3",
          "midi": 55,
          "time": 81.62785800000043,
          "velocity": 0.5039370078740157,
          "duration": 0.10949605833333464
        },
        {
          "name": "C4",
          "midi": 60,
          "time": 81.74413700000044,
          "velocity": 0.5039370078740157,
          "duration": 0.10949605833333464
        },
        {
          "name": "F2",
          "midi": 41,
          "time": 81.86041600000044,
          "velocity": 0.5039370078740157,
          "duration": 0.33042615833333855
        },
        {
          "name": "F2",
          "midi": 41,
          "time": 82.20925300000044,
          "velocity": 0.5039370078740157,
          "duration": 0.33042615833333855
        },
        {
          "name": "F3",
          "midi": 53,
          "time": 82.20925300000044,
          "velocity": 0.5039370078740157,
          "duration": 0.33042615833333855
        },
        {
          "name": "F2",
          "midi": 41,
          "time": 82.55809000000045,
          "velocity": 0.5039370078740157,
          "duration": 0.4408912083333263
        },
        {
          "name": "F3",
          "midi": 53,
          "time": 82.55809000000045,
          "velocity": 0.5039370078740157,
          "duration": 0.4408912083333263
        },
        {
          "name": "F2",
          "midi": 41,
          "time": 83.02320600000044,
          "velocity": 0.5039370078740157,
          "duration": 0.33042615833333855
        },
        {
          "name": "F3",
          "midi": 53,
          "time": 83.02320600000044,
          "velocity": 0.5039370078740157,
          "duration": 0.33042615833333855
        },
        {
          "name": "G#2",
          "midi": 44,
          "time": 83.37204300000045,
          "velocity": 0.5039370078740157,
          "duration": 0.10949605833333464
        },
        {
          "name": "C3",
          "midi": 48,
          "time": 83.48832200000045,
          "velocity": 0.5039370078740157,
          "duration": 0.10949605833333464
        },
        {
          "name": "F3",
          "midi": 53,
          "time": 83.60460100000046,
          "velocity": 0.5039370078740157,
          "duration": 0.10949605833333464
        },
        {
          "name": "G#2",
          "midi": 44,
          "time": 83.72088000000046,
          "velocity": 0.5039370078740157,
          "duration": 0.33042615833333855
        },
        {
          "name": "G#2",
          "midi": 44,
          "time": 84.06971700000047,
          "velocity": 0.5039370078740157,
          "duration": 0.33042615833333855
        },
        {
          "name": "G#3",
          "midi": 56,
          "time": 84.06971700000047,
          "velocity": 0.5039370078740157,
          "duration": 0.33042615833333855
        },
        {
          "name": "G#2",
          "midi": 44,
          "time": 84.41855400000047,
          "velocity": 0.5039370078740157,
          "duration": 0.4408912083333263
        },
        {
          "name": "G#3",
          "midi": 56,
          "time": 84.41855400000047,
          "velocity": 0.5039370078740157,
          "duration": 0.4408912083333263
        },
        {
          "name": "G#2",
          "midi": 44,
          "time": 84.88367000000046,
          "velocity": 0.5039370078740157,
          "duration": 0.33042615833333855
        },
        {
          "name": "G#3",
          "midi": 56,
          "time": 84.88367000000046,
          "velocity": 0.5039370078740157,
          "duration": 0.33042615833333855
        },
        {
          "name": "C3",
          "midi": 48,
          "time": 85.23250700000047,
          "velocity": 0.5039370078740157,
          "duration": 0.10949605833333464
        },
        {
          "name": "D#3",
          "midi": 51,
          "time": 85.34878600000047,
          "velocity": 0.5039370078740157,
          "duration": 0.10949605833333464
        },
        {
          "name": "G#3",
          "midi": 56,
          "time": 85.46506500000048,
          "velocity": 0.5039370078740157,
          "duration": 0.10949605833333464
        },
        {
          "name": "C#3",
          "midi": 49,
          "time": 85.58134400000048,
          "velocity": 0.5039370078740157,
          "duration": 0.33042615833333855
        },
        {
          "name": "G#3",
          "midi": 56,
          "time": 85.58134400000048,
          "velocity": 0.5039370078740157,
          "duration": 0.33042615833333855
        },
        {
          "name": "C#4",
          "midi": 61,
          "time": 85.58134400000048,
          "velocity": 0.5039370078740157,
          "duration": 0.33042615833333855
        },
        {
          "name": "C#3",
          "midi": 49,
          "time": 85.93018100000049,
          "velocity": 0.5039370078740157,
          "duration": 0.33042615833333855
        },
        {
          "name": "G#3",
          "midi": 56,
          "time": 85.93018100000049,
          "velocity": 0.5039370078740157,
          "duration": 0.33042615833333855
        },
        {
          "name": "C#4",
          "midi": 61,
          "time": 85.93018100000049,
          "velocity": 0.5039370078740157,
          "duration": 0.33042615833333855
        },
        {
          "name": "C#3",
          "midi": 49,
          "time": 86.27901800000049,
          "velocity": 0.5039370078740157,
          "duration": 0.4408912083333263
        },
        {
          "name": "G#3",
          "midi": 56,
          "time": 86.27901800000049,
          "velocity": 0.5039370078740157,
          "duration": 0.4408912083333263
        },
        {
          "name": "C4",
          "midi": 60,
          "time": 86.27901800000049,
          "velocity": 0.5039370078740157,
          "duration": 0.4408912083333263
        },
        {
          "name": "C#3",
          "midi": 49,
          "time": 86.74413400000049,
          "velocity": 0.5039370078740157,
          "duration": 0.33042615833333855
        },
        {
          "name": "G#3",
          "midi": 56,
          "time": 86.74413400000049,
          "velocity": 0.5039370078740157,
          "duration": 0.33042615833333855
        },
        {
          "name": "C4",
          "midi": 60,
          "time": 86.74413400000049,
          "velocity": 0.5039370078740157,
          "duration": 0.33042615833333855
        },
        {
          "name": "C#3",
          "midi": 49,
          "time": 87.09297100000049,
          "velocity": 0.5039370078740157,
          "duration": 0.33042615833333855
        },
        {
          "name": "G#3",
          "midi": 56,
          "time": 87.09297100000049,
          "velocity": 0.5039370078740157,
          "duration": 0.33042615833333855
        },
        {
          "name": "C4",
          "midi": 60,
          "time": 87.09297100000049,
          "velocity": 0.5039370078740157,
          "duration": 0.33042615833333855
        },
        {
          "name": "C3",
          "midi": 48,
          "time": 87.44180800000049,
          "velocity": 0.5039370078740157,
          "duration": 0.33042615833333855
        },
        {
          "name": "G3",
          "midi": 55,
          "time": 87.44180800000049,
          "velocity": 0.5039370078740157,
          "duration": 0.33042615833333855
        },
        {
          "name": "C4",
          "midi": 60,
          "time": 87.44180800000049,
          "velocity": 0.5039370078740157,
          "duration": 0.33042615833333855
        },
        {
          "name": "C3",
          "midi": 48,
          "time": 87.7906450000005,
          "velocity": 0.5039370078740157,
          "duration": 0.33042615833333855
        },
        {
          "name": "G3",
          "midi": 55,
          "time": 87.7906450000005,
          "velocity": 0.5039370078740157,
          "duration": 0.33042615833333855
        },
        {
          "name": "C4",
          "midi": 60,
          "time": 87.7906450000005,
          "velocity": 0.5039370078740157,
          "duration": 0.33042615833333855
        },
        {
          "name": "C3",
          "midi": 48,
          "time": 88.1394820000005,
          "velocity": 0.5039370078740157,
          "duration": 0.4408912083333263
        },
        {
          "name": "G3",
          "midi": 55,
          "time": 88.1394820000005,
          "velocity": 0.5039370078740157,
          "duration": 0.4408912083333263
        },
        {
          "name": "A#3",
          "midi": 58,
          "time": 88.1394820000005,
          "velocity": 0.5039370078740157,
          "duration": 0.4408912083333263
        },
        {
          "name": "C3",
          "midi": 48,
          "time": 88.6045980000005,
          "velocity": 0.5039370078740157,
          "duration": 0.33042615833333855
        },
        {
          "name": "G3",
          "midi": 55,
          "time": 88.6045980000005,
          "velocity": 0.5039370078740157,
          "duration": 0.33042615833333855
        },
        {
          "name": "A#3",
          "midi": 58,
          "time": 88.6045980000005,
          "velocity": 0.5039370078740157,
          "duration": 0.33042615833333855
        },
        {
          "name": "C3",
          "midi": 48,
          "time": 88.9534350000005,
          "velocity": 0.5039370078740157,
          "duration": 0.33042615833333855
        },
        {
          "name": "G3",
          "midi": 55,
          "time": 88.9534350000005,
          "velocity": 0.5039370078740157,
          "duration": 0.33042615833333855
        },
        {
          "name": "A#3",
          "midi": 58,
          "time": 88.9534350000005,
          "velocity": 0.5039370078740157,
          "duration": 0.33042615833333855
        },
        {
          "name": "F2",
          "midi": 41,
          "time": 89.3022720000005,
          "velocity": 0.5039370078740157,
          "duration": 0.33042615833333855
        },
        {
          "name": "C3",
          "midi": 48,
          "time": 89.3022720000005,
          "velocity": 0.5039370078740157,
          "duration": 0.33042615833333855
        },
        {
          "name": "F3",
          "midi": 53,
          "time": 89.3022720000005,
          "velocity": 0.5039370078740157,
          "duration": 0.33042615833333855
        },
        {
          "name": "F2",
          "midi": 41,
          "time": 89.6511090000005,
          "velocity": 0.5039370078740157,
          "duration": 0.33042615833333855
        },
        {
          "name": "C3",
          "midi": 48,
          "time": 89.6511090000005,
          "velocity": 0.5039370078740157,
          "duration": 0.33042615833333855
        },
        {
          "name": "F3",
          "midi": 53,
          "time": 89.6511090000005,
          "velocity": 0.5039370078740157,
          "duration": 0.33042615833333855
        },
        {
          "name": "F2",
          "midi": 41,
          "time": 89.9999460000005,
          "velocity": 0.5039370078740157,
          "duration": 0.4408912083333263
        },
        {
          "name": "C3",
          "midi": 48,
          "time": 89.9999460000005,
          "velocity": 0.5039370078740157,
          "duration": 0.4408912083333263
        },
        {
          "name": "F3",
          "midi": 53,
          "time": 89.9999460000005,
          "velocity": 0.5039370078740157,
          "duration": 0.4408912083333263
        },
        {
          "name": "F2",
          "midi": 41,
          "time": 90.4650620000005,
          "velocity": 0.5039370078740157,
          "duration": 0.33042615833333855
        },
        {
          "name": "C3",
          "midi": 48,
          "time": 90.4650620000005,
          "velocity": 0.5039370078740157,
          "duration": 0.33042615833333855
        },
        {
          "name": "F3",
          "midi": 53,
          "time": 90.4650620000005,
          "velocity": 0.5039370078740157,
          "duration": 0.33042615833333855
        },
        {
          "name": "F2",
          "midi": 41,
          "time": 90.8138990000005,
          "velocity": 0.5039370078740157,
          "duration": 0.33042615833333855
        },
        {
          "name": "C3",
          "midi": 48,
          "time": 90.8138990000005,
          "velocity": 0.5039370078740157,
          "duration": 0.33042615833333855
        },
        {
          "name": "F3",
          "midi": 53,
          "time": 90.8138990000005,
          "velocity": 0.5039370078740157,
          "duration": 0.33042615833333855
        },
        {
          "name": "G#2",
          "midi": 44,
          "time": 91.1627360000005,
          "velocity": 0.5039370078740157,
          "duration": 0.2199611083333366
        },
        {
          "name": "C#3",
          "midi": 49,
          "time": 91.1627360000005,
          "velocity": 0.5039370078740157,
          "duration": 0.2199611083333366
        },
        {
          "name": "G#3",
          "midi": 56,
          "time": 91.1627360000005,
          "velocity": 0.5039370078740157,
          "duration": 0.2199611083333366
        },
        {
          "name": "G#2",
          "midi": 44,
          "time": 91.3952940000005,
          "velocity": 0.5039370078740157,
          "duration": 0.2199611083333366
        },
        {
          "name": "C#3",
          "midi": 49,
          "time": 91.3952940000005,
          "velocity": 0.5039370078740157,
          "duration": 0.2199611083333366
        },
        {
          "name": "G#3",
          "midi": 56,
          "time": 91.3952940000005,
          "velocity": 0.5039370078740157,
          "duration": 0.2199611083333366
        },
        {
          "name": "G#2",
          "midi": 44,
          "time": 91.6278520000005,
          "velocity": 0.5039370078740157,
          "duration": 0.2199611083333366
        },
        {
          "name": "C#3",
          "midi": 49,
          "time": 91.6278520000005,
          "velocity": 0.5039370078740157,
          "duration": 0.2199611083333366
        },
        {
          "name": "G#3",
          "midi": 56,
          "time": 91.6278520000005,
          "velocity": 0.5039370078740157,
          "duration": 0.2199611083333366
        },
        {
          "name": "G#2",
          "midi": 44,
          "time": 91.8604100000005,
          "velocity": 0.5039370078740157,
          "duration": 0.2199611083333366
        },
        {
          "name": "C#3",
          "midi": 49,
          "time": 91.8604100000005,
          "velocity": 0.5039370078740157,
          "duration": 0.2199611083333366
        },
        {
          "name": "G#3",
          "midi": 56,
          "time": 91.8604100000005,
          "velocity": 0.5039370078740157,
          "duration": 0.2199611083333366
        },
        {
          "name": "G#2",
          "midi": 44,
          "time": 92.0929680000005,
          "velocity": 0.5039370078740157,
          "duration": 0.2199611083333366
        },
        {
          "name": "D#3",
          "midi": 51,
          "time": 92.0929680000005,
          "velocity": 0.5039370078740157,
          "duration": 0.2199611083333366
        },
        {
          "name": "G#3",
          "midi": 56,
          "time": 92.0929680000005,
          "velocity": 0.5039370078740157,
          "duration": 0.2199611083333366
        },
        {
          "name": "G#2",
          "midi": 44,
          "time": 92.3255260000005,
          "velocity": 0.5039370078740157,
          "duration": 0.2199611083333366
        },
        {
          "name": "D#3",
          "midi": 51,
          "time": 92.3255260000005,
          "velocity": 0.5039370078740157,
          "duration": 0.2199611083333366
        },
        {
          "name": "G#3",
          "midi": 56,
          "time": 92.3255260000005,
          "velocity": 0.5039370078740157,
          "duration": 0.2199611083333366
        },
        {
          "name": "G#2",
          "midi": 44,
          "time": 92.55808400000049,
          "velocity": 0.5039370078740157,
          "duration": 0.2199611083333366
        },
        {
          "name": "D#3",
          "midi": 51,
          "time": 92.55808400000049,
          "velocity": 0.5039370078740157,
          "duration": 0.2199611083333366
        },
        {
          "name": "G#3",
          "midi": 56,
          "time": 92.55808400000049,
          "velocity": 0.5039370078740157,
          "duration": 0.2199611083333366
        },
        {
          "name": "G#2",
          "midi": 44,
          "time": 92.79064200000049,
          "velocity": 0.5039370078740157,
          "duration": 0.2199611083333366
        },
        {
          "name": "D#3",
          "midi": 51,
          "time": 92.79064200000049,
          "velocity": 0.5039370078740157,
          "duration": 0.2199611083333366
        },
        {
          "name": "G#3",
          "midi": 56,
          "time": 92.79064200000049,
          "velocity": 0.5039370078740157,
          "duration": 0.2199611083333366
        },
        {
          "name": "C#3",
          "midi": 49,
          "time": 93.02320000000049,
          "velocity": 0.5039370078740157,
          "duration": 0.2199611083333366
        },
        {
          "name": "G#3",
          "midi": 56,
          "time": 93.25575800000048,
          "velocity": 0.5039370078740157,
          "duration": 0.2199611083333366
        },
        {
          "name": "C#4",
          "midi": 61,
          "time": 93.48831600000048,
          "velocity": 0.5039370078740157,
          "duration": 0.2199611083333366
        },
        {
          "name": "D#4",
          "midi": 63,
          "time": 93.72087400000048,
          "velocity": 0.5039370078740157,
          "duration": 0.2199611083333366
        },
        {
          "name": "F4",
          "midi": 65,
          "time": 93.95343200000048,
          "velocity": 0.5039370078740157,
          "duration": 0.2199611083333366
        },
        {
          "name": "D#4",
          "midi": 63,
          "time": 94.18599000000047,
          "velocity": 0.5039370078740157,
          "duration": 0.2199611083333366
        },
        {
          "name": "F4",
          "midi": 65,
          "time": 94.41854800000047,
          "velocity": 0.5039370078740157,
          "duration": 0.2199611083333366
        },
        {
          "name": "D#4",
          "midi": 63,
          "time": 94.65110600000047,
          "velocity": 0.5039370078740157,
          "duration": 0.2199611083333366
        },
        {
          "name": "D#3",
          "midi": 51,
          "time": 94.88366400000046,
          "velocity": 0.5039370078740157,
          "duration": 0.2199611083333366
        },
        {
          "name": "A#3",
          "midi": 58,
          "time": 95.11622200000046,
          "velocity": 0.5039370078740157,
          "duration": 0.2199611083333366
        },
        {
          "name": "D#4",
          "midi": 63,
          "time": 95.34878000000046,
          "velocity": 0.5039370078740157,
          "duration": 0.2199611083333366
        },
        {
          "name": "F4",
          "midi": 65,
          "time": 95.58133800000046,
          "velocity": 0.5039370078740157,
          "duration": 0.2199611083333366
        },
        {
          "name": "G4",
          "midi": 67,
          "time": 95.81389600000045,
          "velocity": 0.5039370078740157,
          "duration": 0.2199611083333366
        },
        {
          "name": "F4",
          "midi": 65,
          "time": 96.04645400000045,
          "velocity": 0.5039370078740157,
          "duration": 0.2199611083333366
        },
        {
          "name": "G4",
          "midi": 67,
          "time": 96.27901200000045,
          "velocity": 0.5039370078740157,
          "duration": 0.2199611083333366
        },
        {
          "name": "F4",
          "midi": 65,
          "time": 96.51157000000045,
          "velocity": 0.5039370078740157,
          "duration": 0.2199611083333366
        },
        {
          "name": "F2",
          "midi": 41,
          "time": 96.74412800000044,
          "velocity": 0.5039370078740157,
          "duration": 0.2199611083333366
        },
        {
          "name": "C3",
          "midi": 48,
          "time": 96.97668600000044,
          "velocity": 0.5039370078740157,
          "duration": 0.2199611083333366
        },
        {
          "name": "F3",
          "midi": 53,
          "time": 97.20924400000044,
          "velocity": 0.5039370078740157,
          "duration": 0.2199611083333366
        },
        {
          "name": "G3",
          "midi": 55,
          "time": 97.44180200000044,
          "velocity": 0.5039370078740157,
          "duration": 0.2199611083333366
        },
        {
          "name": "G#3",
          "midi": 56,
          "time": 97.67436000000043,
          "velocity": 0.5039370078740157,
          "duration": 0.2199611083333366
        },
        {
          "name": "G3",
          "midi": 55,
          "time": 97.90691800000043,
          "velocity": 0.5039370078740157,
          "duration": 0.2199611083333366
        },
        {
          "name": "G#3",
          "midi": 56,
          "time": 98.13947600000043,
          "velocity": 0.5039370078740157,
          "duration": 0.2199611083333366
        },
        {
          "name": "G3",
          "midi": 55,
          "time": 98.37203400000043,
          "velocity": 0.5039370078740157,
          "duration": 0.2199611083333366
        },
        {
          "name": "G#2",
          "midi": 44,
          "time": 98.60459200000042,
          "velocity": 0.5039370078740157,
          "duration": 0.2199611083333366
        },
        {
          "name": "C3",
          "midi": 48,
          "time": 98.83715000000042,
          "velocity": 0.5039370078740157,
          "duration": 0.2199611083333366
        },
        {
          "name": "D#3",
          "midi": 51,
          "time": 99.06970800000042,
          "velocity": 0.5039370078740157,
          "duration": 0.2199611083333366
        },
        {
          "name": "G3",
          "midi": 55,
          "time": 99.30226600000042,
          "velocity": 0.5039370078740157,
          "duration": 0.2199611083333366
        },
        {
          "name": "G#3",
          "midi": 56,
          "time": 99.53482400000041,
          "velocity": 0.5039370078740157,
          "duration": 0.2199611083333366
        },
        {
          "name": "G3",
          "midi": 55,
          "time": 99.76738200000041,
          "velocity": 0.5039370078740157,
          "duration": 0.2199611083333366
        },
        {
          "name": "G#3",
          "midi": 56,
          "time": 99.99994000000041,
          "velocity": 0.5039370078740157,
          "duration": 0.2199611083333366
        },
        {
          "name": "G3",
          "midi": 55,
          "time": 100.2324980000004,
          "velocity": 0.5039370078740157,
          "duration": 0.2199611083333366
        },
        {
          "name": "C#3",
          "midi": 49,
          "time": 100.4650560000004,
          "velocity": 0.5039370078740157,
          "duration": 0.2199611083333366
        },
        {
          "name": "C#4",
          "midi": 61,
          "time": 100.4650560000004,
          "velocity": 0.5039370078740157,
          "duration": 0.2199611083333366
        },
        {
          "name": "G#3",
          "midi": 56,
          "time": 100.6976140000004,
          "velocity": 0.5039370078740157,
          "duration": 0.2199611083333366
        },
        {
          "name": "C#3",
          "midi": 49,
          "time": 100.9301720000004,
          "velocity": 0.5039370078740157,
          "duration": 0.2199611083333366
        },
        {
          "name": "C#4",
          "midi": 61,
          "time": 100.9301720000004,
          "velocity": 0.5039370078740157,
          "duration": 0.2199611083333366
        },
        {
          "name": "G#3",
          "midi": 56,
          "time": 101.1627300000004,
          "velocity": 0.5039370078740157,
          "duration": 0.2199611083333366
        },
        {
          "name": "C#3",
          "midi": 49,
          "time": 101.39528800000039,
          "velocity": 0.5039370078740157,
          "duration": 0.2199611083333366
        },
        {
          "name": "C#4",
          "midi": 61,
          "time": 101.39528800000039,
          "velocity": 0.5039370078740157,
          "duration": 0.2199611083333366
        },
        {
          "name": "G#3",
          "midi": 56,
          "time": 101.62784600000039,
          "velocity": 0.5039370078740157,
          "duration": 0.2199611083333366
        },
        {
          "name": "C#3",
          "midi": 49,
          "time": 101.86040400000039,
          "velocity": 0.5039370078740157,
          "duration": 0.2199611083333366
        },
        {
          "name": "C#4",
          "midi": 61,
          "time": 101.86040400000039,
          "velocity": 0.5039370078740157,
          "duration": 0.2199611083333366
        },
        {
          "name": "G#3",
          "midi": 56,
          "time": 102.09296200000038,
          "velocity": 0.5039370078740157,
          "duration": 0.2199611083333366
        },
        {
          "name": "D#3",
          "midi": 51,
          "time": 102.32552000000038,
          "velocity": 0.5039370078740157,
          "duration": 0.2199611083333366
        },
        {
          "name": "D#4",
          "midi": 63,
          "time": 102.32552000000038,
          "velocity": 0.5039370078740157,
          "duration": 0.2199611083333366
        },
        {
          "name": "A#3",
          "midi": 58,
          "time": 102.55807800000038,
          "velocity": 0.5039370078740157,
          "duration": 0.2199611083333366
        },
        {
          "name": "D#3",
          "midi": 51,
          "time": 102.79063600000038,
          "velocity": 0.5039370078740157,
          "duration": 0.2199611083333366
        },
        {
          "name": "D#4",
          "midi": 63,
          "time": 102.79063600000038,
          "velocity": 0.5039370078740157,
          "duration": 0.2199611083333366
        },
        {
          "name": "A#3",
          "midi": 58,
          "time": 103.02319400000037,
          "velocity": 0.5039370078740157,
          "duration": 0.2199611083333366
        },
        {
          "name": "D#3",
          "midi": 51,
          "time": 103.25575200000037,
          "velocity": 0.5039370078740157,
          "duration": 0.2199611083333366
        },
        {
          "name": "D#4",
          "midi": 63,
          "time": 103.25575200000037,
          "velocity": 0.5039370078740157,
          "duration": 0.2199611083333366
        },
        {
          "name": "A#3",
          "midi": 58,
          "time": 103.48831000000037,
          "velocity": 0.5039370078740157,
          "duration": 0.2199611083333366
        },
        {
          "name": "D#3",
          "midi": 51,
          "time": 103.72086800000037,
          "velocity": 0.5039370078740157,
          "duration": 0.2199611083333366
        },
        {
          "name": "D#4",
          "midi": 63,
          "time": 103.72086800000037,
          "velocity": 0.5039370078740157,
          "duration": 0.2199611083333366
        },
        {
          "name": "A#3",
          "midi": 58,
          "time": 103.95342600000036,
          "velocity": 0.5039370078740157,
          "duration": 0.2199611083333366
        },
        {
          "name": "F2",
          "midi": 41,
          "time": 104.18598400000036,
          "velocity": 0.5039370078740157,
          "duration": 0.2199611083333366
        },
        {
          "name": "F3",
          "midi": 53,
          "time": 104.18598400000036,
          "velocity": 0.5039370078740157,
          "duration": 0.2199611083333366
        },
        {
          "name": "C3",
          "midi": 48,
          "time": 104.41854200000036,
          "velocity": 0.5039370078740157,
          "duration": 0.2199611083333366
        },
        {
          "name": "F2",
          "midi": 41,
          "time": 104.65110000000035,
          "velocity": 0.5039370078740157,
          "duration": 0.2199611083333366
        },
        {
          "name": "F3",
          "midi": 53,
          "time": 104.65110000000035,
          "velocity": 0.5039370078740157,
          "duration": 0.2199611083333366
        },
        {
          "name": "C3",
          "midi": 48,
          "time": 104.88365800000035,
          "velocity": 0.5039370078740157,
          "duration": 0.2199611083333366
        },
        {
          "name": "F2",
          "midi": 41,
          "time": 105.11621600000035,
          "velocity": 0.5039370078740157,
          "duration": 0.2199611083333366
        },
        {
          "name": "F3",
          "midi": 53,
          "time": 105.11621600000035,
          "velocity": 0.5039370078740157,
          "duration": 0.2199611083333366
        },
        {
          "name": "C3",
          "midi": 48,
          "time": 105.34877400000035,
          "velocity": 0.5039370078740157,
          "duration": 0.2199611083333366
        },
        {
          "name": "F2",
          "midi": 41,
          "time": 105.58133200000034,
          "velocity": 0.5039370078740157,
          "duration": 0.2199611083333366
        },
        {
          "name": "F3",
          "midi": 53,
          "time": 105.58133200000034,
          "velocity": 0.5039370078740157,
          "duration": 0.2199611083333366
        },
        {
          "name": "C3",
          "midi": 48,
          "time": 105.81389000000034,
          "velocity": 0.5039370078740157,
          "duration": 0.2199611083333366
        },
        {
          "name": "G#2",
          "midi": 44,
          "time": 106.04644800000034,
          "velocity": 0.5039370078740157,
          "duration": 0.4408912083333405
        },
        {
          "name": "C#3",
          "midi": 49,
          "time": 106.04644800000034,
          "velocity": 0.5039370078740157,
          "duration": 0.4408912083333405
        },
        {
          "name": "G#3",
          "midi": 56,
          "time": 106.04644800000034,
          "velocity": 0.5039370078740157,
          "duration": 0.4408912083333405
        },
        {
          "name": "G#2",
          "midi": 44,
          "time": 106.51156400000035,
          "velocity": 0.5039370078740157,
          "duration": 0.4408912083333263
        },
        {
          "name": "C#3",
          "midi": 49,
          "time": 106.51156400000035,
          "velocity": 0.5039370078740157,
          "duration": 0.4408912083333263
        },
        {
          "name": "G#3",
          "midi": 56,
          "time": 106.51156400000035,
          "velocity": 0.5039370078740157,
          "duration": 0.4408912083333263
        },
        {
          "name": "G#2",
          "midi": 44,
          "time": 106.97668000000034,
          "velocity": 0.5039370078740157,
          "duration": 0.2199611083333366
        },
        {
          "name": "C#3",
          "midi": 49,
          "time": 106.97668000000034,
          "velocity": 0.5039370078740157,
          "duration": 0.2199611083333366
        },
        {
          "name": "G#3",
          "midi": 56,
          "time": 106.97668000000034,
          "velocity": 0.5039370078740157,
          "duration": 0.2199611083333366
        },
        {
          "name": "G#2",
          "midi": 44,
          "time": 107.20923800000034,
          "velocity": 0.5039370078740157,
          "duration": 0.2199611083333366
        },
        {
          "name": "C#3",
          "midi": 49,
          "time": 107.20923800000034,
          "velocity": 0.5039370078740157,
          "duration": 0.2199611083333366
        },
        {
          "name": "G#3",
          "midi": 56,
          "time": 107.20923800000034,
          "velocity": 0.5039370078740157,
          "duration": 0.2199611083333366
        },
        {
          "name": "G#2",
          "midi": 44,
          "time": 107.44179600000034,
          "velocity": 0.5039370078740157,
          "duration": 0.2199611083333366
        },
        {
          "name": "C#3",
          "midi": 49,
          "time": 107.44179600000034,
          "velocity": 0.5039370078740157,
          "duration": 0.2199611083333366
        },
        {
          "name": "F3",
          "midi": 53,
          "time": 107.44179600000034,
          "velocity": 0.5039370078740157,
          "duration": 0.2199611083333366
        },
        {
          "name": "G#3",
          "midi": 56,
          "time": 107.44179600000034,
          "velocity": 0.5039370078740157,
          "duration": 0.2199611083333366
        },
        {
          "name": "G#2",
          "midi": 44,
          "time": 107.67435400000033,
          "velocity": 0.5039370078740157,
          "duration": 0.2199611083333366
        },
        {
          "name": "C#3",
          "midi": 49,
          "time": 107.67435400000033,
          "velocity": 0.5039370078740157,
          "duration": 0.2199611083333366
        },
        {
          "name": "F3",
          "midi": 53,
          "time": 107.67435400000033,
          "velocity": 0.5039370078740157,
          "duration": 0.2199611083333366
        },
        {
          "name": "G#3",
          "midi": 56,
          "time": 107.67435400000033,
          "velocity": 0.5039370078740157,
          "duration": 0.2199611083333366
        },
        {
          "name": "G#3",
          "midi": 56,
          "time": 107.90691200000033,
          "velocity": 0.5039370078740157,
          "duration": 0.4408912083333405
        },
        {
          "name": "G#4",
          "midi": 68,
          "time": 107.90691200000033,
          "velocity": 0.5039370078740157,
          "duration": 0.4408912083333405
        },
        {
          "name": "G3",
          "midi": 55,
          "time": 108.37202800000034,
          "velocity": 0.5039370078740157,
          "duration": 0.4408912083333263
        },
        {
          "name": "G4",
          "midi": 67,
          "time": 108.37202800000034,
          "velocity": 0.5039370078740157,
          "duration": 0.4408912083333263
        },
        {
          "name": "F3",
          "midi": 53,
          "time": 108.83714400000034,
          "velocity": 0.5039370078740157,
          "duration": 0.2199611083333366
        },
        {
          "name": "F4",
          "midi": 65,
          "time": 108.83714400000034,
          "velocity": 0.5039370078740157,
          "duration": 0.2199611083333366
        },
        {
          "name": "C#3",
          "midi": 49,
          "time": 109.06970200000033,
          "velocity": 0.5039370078740157,
          "duration": 0.2199611083333366
        },
        {
          "name": "C#4",
          "midi": 61,
          "time": 109.06970200000033,
          "velocity": 0.5039370078740157,
          "duration": 0.2199611083333366
        },
        {
          "name": "G#2",
          "midi": 44,
          "time": 109.30226000000033,
          "velocity": 0.5039370078740157,
          "duration": 0.2199611083333366
        },
        {
          "name": "G#3",
          "midi": 56,
          "time": 109.30226000000033,
          "velocity": 0.5039370078740157,
          "duration": 0.2199611083333366
        },
        {
          "name": "D#2",
          "midi": 39,
          "time": 109.53481800000033,
          "velocity": 0.5039370078740157,
          "duration": 0.2199611083333366
        },
        {
          "name": "D#3",
          "midi": 51,
          "time": 109.53481800000033,
          "velocity": 0.5039370078740157,
          "duration": 0.2199611083333366
        },
        {
          "name": "C#3",
          "midi": 49,
          "time": 109.76737600000033,
          "velocity": 0.5039370078740157,
          "duration": 0.4408912083333405
        },
        {
          "name": "G#3",
          "midi": 56,
          "time": 109.76737600000033,
          "velocity": 0.5039370078740157,
          "duration": 0.4408912083333405
        },
        {
          "name": "G#3",
          "midi": 56,
          "time": 110.23249200000033,
          "velocity": 0.5039370078740157,
          "duration": 0.4408912083333263
        },
        {
          "name": "C#4",
          "midi": 61,
          "time": 110.23249200000033,
          "velocity": 0.5039370078740157,
          "duration": 0.4408912083333263
        },
        {
          "name": "F4",
          "midi": 65,
          "time": 110.23249200000033,
          "velocity": 0.5039370078740157,
          "duration": 0.4408912083333263
        },
        {
          "name": "G#3",
          "midi": 56,
          "time": 110.69760800000033,
          "velocity": 0.5039370078740157,
          "duration": 0.33042615833333855
        },
        {
          "name": "C#4",
          "midi": 61,
          "time": 110.69760800000033,
          "velocity": 0.5039370078740157,
          "duration": 0.33042615833333855
        },
        {
          "name": "D#4",
          "midi": 63,
          "time": 110.69760800000033,
          "velocity": 0.5039370078740157,
          "duration": 0.33042615833333855
        },
        {
          "name": "G#3",
          "midi": 56,
          "time": 111.04644500000033,
          "velocity": 0.5039370078740157,
          "duration": 0.33042615833333855
        },
        {
          "name": "C#4",
          "midi": 61,
          "time": 111.04644500000033,
          "velocity": 0.5039370078740157,
          "duration": 0.33042615833333855
        },
        {
          "name": "F4",
          "midi": 65,
          "time": 111.04644500000033,
          "velocity": 0.5039370078740157,
          "duration": 0.33042615833333855
        },
        {
          "name": "G#3",
          "midi": 56,
          "time": 111.39528200000034,
          "velocity": 0.5039370078740157,
          "duration": 0.2199611083333366
        },
        {
          "name": "C#4",
          "midi": 61,
          "time": 111.39528200000034,
          "velocity": 0.5039370078740157,
          "duration": 0.2199611083333366
        },
        {
          "name": "D#4",
          "midi": 63,
          "time": 111.39528200000034,
          "velocity": 0.5039370078740157,
          "duration": 0.2199611083333366
        },
        {
          "name": "C3",
          "midi": 48,
          "time": 111.62784000000033,
          "velocity": 0.5039370078740157,
          "duration": 0.4408912083333405
        },
        {
          "name": "G3",
          "midi": 55,
          "time": 111.62784000000033,
          "velocity": 0.5039370078740157,
          "duration": 0.4408912083333405
        },
        {
          "name": "G3",
          "midi": 55,
          "time": 112.09295600000034,
          "velocity": 0.5039370078740157,
          "duration": 0.4408912083333263
        },
        {
          "name": "C4",
          "midi": 60,
          "time": 112.09295600000034,
          "velocity": 0.5039370078740157,
          "duration": 0.4408912083333263
        },
        {
          "name": "F4",
          "midi": 65,
          "time": 112.09295600000034,
          "velocity": 0.5039370078740157,
          "duration": 0.4408912083333263
        },
        {
          "name": "G3",
          "midi": 55,
          "time": 112.55807200000034,
          "velocity": 0.5039370078740157,
          "duration": 0.33042615833333855
        },
        {
          "name": "C4",
          "midi": 60,
          "time": 112.55807200000034,
          "velocity": 0.5039370078740157,
          "duration": 0.33042615833333855
        },
        {
          "name": "E4",
          "midi": 64,
          "time": 112.55807200000034,
          "velocity": 0.5039370078740157,
          "duration": 0.33042615833333855
        },
        {
          "name": "G3",
          "midi": 55,
          "time": 112.90690900000034,
          "velocity": 0.5039370078740157,
          "duration": 0.33042615833333855
        },
        {
          "name": "C4",
          "midi": 60,
          "time": 112.90690900000034,
          "velocity": 0.5039370078740157,
          "duration": 0.33042615833333855
        },
        {
          "name": "F4",
          "midi": 65,
          "time": 112.90690900000034,
          "velocity": 0.5039370078740157,
          "duration": 0.33042615833333855
        },
        {
          "name": "G3",
          "midi": 55,
          "time": 113.25574600000034,
          "velocity": 0.5039370078740157,
          "duration": 0.2199611083333366
        },
        {
          "name": "C4",
          "midi": 60,
          "time": 113.25574600000034,
          "velocity": 0.5039370078740157,
          "duration": 0.2199611083333366
        },
        {
          "name": "E4",
          "midi": 64,
          "time": 113.25574600000034,
          "velocity": 0.5039370078740157,
          "duration": 0.2199611083333366
        },
        {
          "name": "F3",
          "midi": 53,
          "time": 113.48830400000034,
          "velocity": 0.5039370078740157,
          "duration": 0.4408912083333405
        },
        {
          "name": "C4",
          "midi": 60,
          "time": 113.48830400000034,
          "velocity": 0.5039370078740157,
          "duration": 0.4408912083333405
        },
        {
          "name": "G#3",
          "midi": 56,
          "time": 113.95342000000035,
          "velocity": 0.5039370078740157,
          "duration": 0.4408912083333263
        },
        {
          "name": "C4",
          "midi": 60,
          "time": 113.95342000000035,
          "velocity": 0.5039370078740157,
          "duration": 0.4408912083333263
        },
        {
          "name": "F4",
          "midi": 65,
          "time": 113.95342000000035,
          "velocity": 0.5039370078740157,
          "duration": 0.4408912083333263
        },
        {
          "name": "G#3",
          "midi": 56,
          "time": 114.41853600000034,
          "velocity": 0.5039370078740157,
          "duration": 0.33042615833333855
        },
        {
          "name": "C4",
          "midi": 60,
          "time": 114.41853600000034,
          "velocity": 0.5039370078740157,
          "duration": 0.33042615833333855
        },
        {
          "name": "D#4",
          "midi": 63,
          "time": 114.41853600000034,
          "velocity": 0.5039370078740157,
          "duration": 0.33042615833333855
        },
        {
          "name": "G#3",
          "midi": 56,
          "time": 114.76737300000035,
          "velocity": 0.5039370078740157,
          "duration": 0.33042615833333855
        },
        {
          "name": "C4",
          "midi": 60,
          "time": 114.76737300000035,
          "velocity": 0.5039370078740157,
          "duration": 0.33042615833333855
        },
        {
          "name": "F4",
          "midi": 65,
          "time": 114.76737300000035,
          "velocity": 0.5039370078740157,
          "duration": 0.33042615833333855
        },
        {
          "name": "G#3",
          "midi": 56,
          "time": 115.11621000000035,
          "velocity": 0.5039370078740157,
          "duration": 0.2199611083333366
        },
        {
          "name": "C4",
          "midi": 60,
          "time": 115.11621000000035,
          "velocity": 0.5039370078740157,
          "duration": 0.2199611083333366
        },
        {
          "name": "D#4",
          "midi": 63,
          "time": 115.11621000000035,
          "velocity": 0.5039370078740157,
          "duration": 0.2199611083333366
        },
        {
          "name": "D#3",
          "midi": 51,
          "time": 115.34876800000035,
          "velocity": 0.5039370078740157,
          "duration": 0.4408912083333405
        },
        {
          "name": "G#3",
          "midi": 56,
          "time": 115.34876800000035,
          "velocity": 0.5039370078740157,
          "duration": 0.4408912083333405
        },
        {
          "name": "D#3",
          "midi": 51,
          "time": 115.81388400000036,
          "velocity": 0.5039370078740157,
          "duration": 0.4408912083333263
        },
        {
          "name": "G#3",
          "midi": 56,
          "time": 115.81388400000036,
          "velocity": 0.5039370078740157,
          "duration": 0.4408912083333263
        },
        {
          "name": "C4",
          "midi": 60,
          "time": 115.81388400000036,
          "velocity": 0.5039370078740157,
          "duration": 0.4408912083333263
        },
        {
          "name": "D#3",
          "midi": 51,
          "time": 116.27900000000035,
          "velocity": 0.5039370078740157,
          "duration": 0.33042615833333855
        },
        {
          "name": "G#3",
          "midi": 56,
          "time": 116.27900000000035,
          "velocity": 0.5039370078740157,
          "duration": 0.33042615833333855
        },
        {
          "name": "A#3",
          "midi": 58,
          "time": 116.27900000000035,
          "velocity": 0.5039370078740157,
          "duration": 0.33042615833333855
        },
        {
          "name": "D#3",
          "midi": 51,
          "time": 116.62783700000035,
          "velocity": 0.5039370078740157,
          "duration": 0.33042615833333855
        },
        {
          "name": "G#3",
          "midi": 56,
          "time": 116.62783700000035,
          "velocity": 0.5039370078740157,
          "duration": 0.33042615833333855
        },
        {
          "name": "C4",
          "midi": 60,
          "time": 116.62783700000035,
          "velocity": 0.5039370078740157,
          "duration": 0.33042615833333855
        },
        {
          "name": "D#3",
          "midi": 51,
          "time": 116.97667400000036,
          "velocity": 0.5039370078740157,
          "duration": 0.2199611083333366
        },
        {
          "name": "G#3",
          "midi": 56,
          "time": 116.97667400000036,
          "velocity": 0.5039370078740157,
          "duration": 0.2199611083333366
        },
        {
          "name": "A#3",
          "midi": 58,
          "time": 116.97667400000036,
          "velocity": 0.5039370078740157,
          "duration": 0.2199611083333366
        },
        {
          "name": "C#3",
          "midi": 49,
          "time": 117.20923200000036,
          "velocity": 0.5039370078740157,
          "duration": 0.4408912083333405
        },
        {
          "name": "G#3",
          "midi": 56,
          "time": 117.20923200000036,
          "velocity": 0.5039370078740157,
          "duration": 0.4408912083333405
        },
        {
          "name": "G#3",
          "midi": 56,
          "time": 117.67434800000036,
          "velocity": 0.5039370078740157,
          "duration": 0.4408912083333263
        },
        {
          "name": "C#4",
          "midi": 61,
          "time": 117.67434800000036,
          "velocity": 0.5039370078740157,
          "duration": 0.4408912083333263
        },
        {
          "name": "F4",
          "midi": 65,
          "time": 117.67434800000036,
          "velocity": 0.5039370078740157,
          "duration": 0.4408912083333263
        },
        {
          "name": "G#3",
          "midi": 56,
          "time": 118.13946400000036,
          "velocity": 0.5039370078740157,
          "duration": 0.33042615833333855
        },
        {
          "name": "C#4",
          "midi": 61,
          "time": 118.13946400000036,
          "velocity": 0.5039370078740157,
          "duration": 0.33042615833333855
        },
        {
          "name": "D#4",
          "midi": 63,
          "time": 118.13946400000036,
          "velocity": 0.5039370078740157,
          "duration": 0.33042615833333855
        },
        {
          "name": "G#3",
          "midi": 56,
          "time": 118.48830100000036,
          "velocity": 0.5039370078740157,
          "duration": 0.33042615833333855
        },
        {
          "name": "C#4",
          "midi": 61,
          "time": 118.48830100000036,
          "velocity": 0.5039370078740157,
          "duration": 0.33042615833333855
        },
        {
          "name": "F4",
          "midi": 65,
          "time": 118.48830100000036,
          "velocity": 0.5039370078740157,
          "duration": 0.33042615833333855
        },
        {
          "name": "G#3",
          "midi": 56,
          "time": 118.83713800000037,
          "velocity": 0.5039370078740157,
          "duration": 0.2199611083333366
        },
        {
          "name": "C#4",
          "midi": 61,
          "time": 118.83713800000037,
          "velocity": 0.5039370078740157,
          "duration": 0.2199611083333366
        },
        {
          "name": "D#4",
          "midi": 63,
          "time": 118.83713800000037,
          "velocity": 0.5039370078740157,
          "duration": 0.2199611083333366
        },
        {
          "name": "C3",
          "midi": 48,
          "time": 119.06969600000036,
          "velocity": 0.5039370078740157,
          "duration": 0.4408912083333405
        },
        {
          "name": "G3",
          "midi": 55,
          "time": 119.06969600000036,
          "velocity": 0.5039370078740157,
          "duration": 0.4408912083333405
        },
        {
          "name": "G3",
          "midi": 55,
          "time": 119.53481200000037,
          "velocity": 0.5039370078740157,
          "duration": 0.4408912083333263
        },
        {
          "name": "C4",
          "midi": 60,
          "time": 119.53481200000037,
          "velocity": 0.5039370078740157,
          "duration": 0.4408912083333263
        },
        {
          "name": "F4",
          "midi": 65,
          "time": 119.53481200000037,
          "velocity": 0.5039370078740157,
          "duration": 0.4408912083333263
        },
        {
          "name": "G3",
          "midi": 55,
          "time": 119.99992800000037,
          "velocity": 0.5039370078740157,
          "duration": 0.33042615833333855
        },
        {
          "name": "C4",
          "midi": 60,
          "time": 119.99992800000037,
          "velocity": 0.5039370078740157,
          "duration": 0.33042615833333855
        },
        {
          "name": "E4",
          "midi": 64,
          "time": 119.99992800000037,
          "velocity": 0.5039370078740157,
          "duration": 0.33042615833333855
        },
        {
          "name": "G3",
          "midi": 55,
          "time": 120.34876500000037,
          "velocity": 0.5039370078740157,
          "duration": 0.33042615833333855
        },
        {
          "name": "C4",
          "midi": 60,
          "time": 120.34876500000037,
          "velocity": 0.5039370078740157,
          "duration": 0.33042615833333855
        },
        {
          "name": "F4",
          "midi": 65,
          "time": 120.34876500000037,
          "velocity": 0.5039370078740157,
          "duration": 0.33042615833333855
        },
        {
          "name": "G3",
          "midi": 55,
          "time": 120.69760200000037,
          "velocity": 0.5039370078740157,
          "duration": 0.2199611083333366
        },
        {
          "name": "C4",
          "midi": 60,
          "time": 120.69760200000037,
          "velocity": 0.5039370078740157,
          "duration": 0.2199611083333366
        },
        {
          "name": "E4",
          "midi": 64,
          "time": 120.69760200000037,
          "velocity": 0.5039370078740157,
          "duration": 0.2199611083333366
        },
        {
          "name": "F3",
          "midi": 53,
          "time": 120.93016000000037,
          "velocity": 0.5039370078740157,
          "duration": 0.4408912083333405
        },
        {
          "name": "C4",
          "midi": 60,
          "time": 120.93016000000037,
          "velocity": 0.5039370078740157,
          "duration": 0.4408912083333405
        },
        {
          "name": "G#3",
          "midi": 56,
          "time": 121.39527600000038,
          "velocity": 0.5039370078740157,
          "duration": 0.4408912083333263
        },
        {
          "name": "C4",
          "midi": 60,
          "time": 121.39527600000038,
          "velocity": 0.5039370078740157,
          "duration": 0.4408912083333263
        },
        {
          "name": "F4",
          "midi": 65,
          "time": 121.39527600000038,
          "velocity": 0.5039370078740157,
          "duration": 0.4408912083333263
        },
        {
          "name": "G#3",
          "midi": 56,
          "time": 121.86039200000037,
          "velocity": 0.5039370078740157,
          "duration": 0.33042615833333855
        },
        {
          "name": "C4",
          "midi": 60,
          "time": 121.86039200000037,
          "velocity": 0.5039370078740157,
          "duration": 0.33042615833333855
        },
        {
          "name": "D#4",
          "midi": 63,
          "time": 121.86039200000037,
          "velocity": 0.5039370078740157,
          "duration": 0.33042615833333855
        },
        {
          "name": "G#3",
          "midi": 56,
          "time": 122.20922900000038,
          "velocity": 0.5039370078740157,
          "duration": 0.33042615833333855
        },
        {
          "name": "C4",
          "midi": 60,
          "time": 122.20922900000038,
          "velocity": 0.5039370078740157,
          "duration": 0.33042615833333855
        },
        {
          "name": "F4",
          "midi": 65,
          "time": 122.20922900000038,
          "velocity": 0.5039370078740157,
          "duration": 0.33042615833333855
        },
        {
          "name": "G#3",
          "midi": 56,
          "time": 122.55806600000038,
          "velocity": 0.5039370078740157,
          "duration": 0.2199611083333366
        },
        {
          "name": "C4",
          "midi": 60,
          "time": 122.55806600000038,
          "velocity": 0.5039370078740157,
          "duration": 0.2199611083333366
        },
        {
          "name": "D#4",
          "midi": 63,
          "time": 122.55806600000038,
          "velocity": 0.5039370078740157,
          "duration": 0.2199611083333366
        },
        {
          "name": "D#3",
          "midi": 51,
          "time": 122.79062400000038,
          "velocity": 0.5039370078740157,
          "duration": 0.4408912083333405
        },
        {
          "name": "G#3",
          "midi": 56,
          "time": 122.79062400000038,
          "velocity": 0.5039370078740157,
          "duration": 0.4408912083333405
        },
        {
          "name": "D#3",
          "midi": 51,
          "time": 123.25574000000039,
          "velocity": 0.5039370078740157,
          "duration": 0.4408912083333263
        },
        {
          "name": "G#3",
          "midi": 56,
          "time": 123.25574000000039,
          "velocity": 0.5039370078740157,
          "duration": 0.4408912083333263
        },
        {
          "name": "C4",
          "midi": 60,
          "time": 123.25574000000039,
          "velocity": 0.5039370078740157,
          "duration": 0.4408912083333263
        },
        {
          "name": "D#3",
          "midi": 51,
          "time": 123.72085600000038,
          "velocity": 0.5039370078740157,
          "duration": 0.33042615833333855
        },
        {
          "name": "G#3",
          "midi": 56,
          "time": 123.72085600000038,
          "velocity": 0.5039370078740157,
          "duration": 0.33042615833333855
        },
        {
          "name": "A#3",
          "midi": 58,
          "time": 123.72085600000038,
          "velocity": 0.5039370078740157,
          "duration": 0.33042615833333855
        },
        {
          "name": "D#3",
          "midi": 51,
          "time": 124.06969300000038,
          "velocity": 0.5039370078740157,
          "duration": 0.33042615833333855
        },
        {
          "name": "G#3",
          "midi": 56,
          "time": 124.06969300000038,
          "velocity": 0.5039370078740157,
          "duration": 0.33042615833333855
        },
        {
          "name": "C4",
          "midi": 60,
          "time": 124.06969300000038,
          "velocity": 0.5039370078740157,
          "duration": 0.33042615833333855
        },
        {
          "name": "D#3",
          "midi": 51,
          "time": 124.41853000000039,
          "velocity": 0.5039370078740157,
          "duration": 0.2199611083333366
        },
        {
          "name": "G#3",
          "midi": 56,
          "time": 124.41853000000039,
          "velocity": 0.5039370078740157,
          "duration": 0.2199611083333366
        },
        {
          "name": "A#3",
          "midi": 58,
          "time": 124.41853000000039,
          "velocity": 0.5039370078740157,
          "duration": 0.2199611083333366
        },
        {
          "name": "C#3",
          "midi": 49,
          "time": 124.65108800000039,
          "velocity": 0.5039370078740157,
          "duration": 0.4408912083333405
        },
        {
          "name": "G#3",
          "midi": 56,
          "time": 124.65108800000039,
          "velocity": 0.5039370078740157,
          "duration": 0.4408912083333405
        },
        {
          "name": "G#3",
          "midi": 56,
          "time": 125.1162040000004,
          "velocity": 0.5039370078740157,
          "duration": 0.4408912083333263
        },
        {
          "name": "C#4",
          "midi": 61,
          "time": 125.1162040000004,
          "velocity": 0.5039370078740157,
          "duration": 0.4408912083333263
        },
        {
          "name": "F4",
          "midi": 65,
          "time": 125.1162040000004,
          "velocity": 0.5039370078740157,
          "duration": 0.4408912083333263
        },
        {
          "name": "G#3",
          "midi": 56,
          "time": 125.58132000000039,
          "velocity": 0.5039370078740157,
          "duration": 0.33042615833333855
        },
        {
          "name": "C#4",
          "midi": 61,
          "time": 125.58132000000039,
          "velocity": 0.5039370078740157,
          "duration": 0.33042615833333855
        },
        {
          "name": "D#4",
          "midi": 63,
          "time": 125.58132000000039,
          "velocity": 0.5039370078740157,
          "duration": 0.33042615833333855
        },
        {
          "name": "G#3",
          "midi": 56,
          "time": 125.93015700000039,
          "velocity": 0.5039370078740157,
          "duration": 0.33042615833333855
        },
        {
          "name": "C#4",
          "midi": 61,
          "time": 125.93015700000039,
          "velocity": 0.5039370078740157,
          "duration": 0.33042615833333855
        },
        {
          "name": "F4",
          "midi": 65,
          "time": 125.93015700000039,
          "velocity": 0.5039370078740157,
          "duration": 0.33042615833333855
        },
        {
          "name": "G#3",
          "midi": 56,
          "time": 126.2789940000004,
          "velocity": 0.5039370078740157,
          "duration": 0.2199611083333366
        },
        {
          "name": "C#4",
          "midi": 61,
          "time": 126.2789940000004,
          "velocity": 0.5039370078740157,
          "duration": 0.2199611083333366
        },
        {
          "name": "D#4",
          "midi": 63,
          "time": 126.2789940000004,
          "velocity": 0.5039370078740157,
          "duration": 0.2199611083333366
        },
        {
          "name": "C3",
          "midi": 48,
          "time": 126.51155200000039,
          "velocity": 0.5039370078740157,
          "duration": 0.4408912083333405
        },
        {
          "name": "G3",
          "midi": 55,
          "time": 126.51155200000039,
          "velocity": 0.5039370078740157,
          "duration": 0.4408912083333405
        },
        {
          "name": "G3",
          "midi": 55,
          "time": 126.9766680000004,
          "velocity": 0.5039370078740157,
          "duration": 0.4408912083333263
        },
        {
          "name": "A#3",
          "midi": 58,
          "time": 126.9766680000004,
          "velocity": 0.5039370078740157,
          "duration": 0.4408912083333263
        },
        {
          "name": "C4",
          "midi": 60,
          "time": 126.9766680000004,
          "velocity": 0.5039370078740157,
          "duration": 0.4408912083333263
        },
        {
          "name": "F4",
          "midi": 65,
          "time": 126.9766680000004,
          "velocity": 0.5039370078740157,
          "duration": 0.4408912083333263
        },
        {
          "name": "G3",
          "midi": 55,
          "time": 127.4417840000004,
          "velocity": 0.5039370078740157,
          "duration": 0.33042615833333855
        },
        {
          "name": "A#3",
          "midi": 58,
          "time": 127.4417840000004,
          "velocity": 0.5039370078740157,
          "duration": 0.33042615833333855
        },
        {
          "name": "C4",
          "midi": 60,
          "time": 127.4417840000004,
          "velocity": 0.5039370078740157,
          "duration": 0.33042615833333855
        },
        {
          "name": "E4",
          "midi": 64,
          "time": 127.4417840000004,
          "velocity": 0.5039370078740157,
          "duration": 0.33042615833333855
        },
        {
          "name": "G3",
          "midi": 55,
          "time": 127.7906210000004,
          "velocity": 0.5039370078740157,
          "duration": 0.33042615833333855
        },
        {
          "name": "A#3",
          "midi": 58,
          "time": 127.7906210000004,
          "velocity": 0.5039370078740157,
          "duration": 0.33042615833333855
        },
        {
          "name": "C4",
          "midi": 60,
          "time": 127.7906210000004,
          "velocity": 0.5039370078740157,
          "duration": 0.33042615833333855
        },
        {
          "name": "F4",
          "midi": 65,
          "time": 127.7906210000004,
          "velocity": 0.5039370078740157,
          "duration": 0.33042615833333855
        },
        {
          "name": "G3",
          "midi": 55,
          "time": 128.13945800000042,
          "velocity": 0.5039370078740157,
          "duration": 0.2199611083333366
        },
        {
          "name": "A#3",
          "midi": 58,
          "time": 128.13945800000042,
          "velocity": 0.5039370078740157,
          "duration": 0.2199611083333366
        },
        {
          "name": "C4",
          "midi": 60,
          "time": 128.13945800000042,
          "velocity": 0.5039370078740157,
          "duration": 0.2199611083333366
        },
        {
          "name": "E4",
          "midi": 64,
          "time": 128.13945800000042,
          "velocity": 0.5039370078740157,
          "duration": 0.2199611083333366
        },
        {
          "name": "F3",
          "midi": 53,
          "time": 128.37201600000043,
          "velocity": 0.5039370078740157,
          "duration": 0.4408912083333405
        },
        {
          "name": "C4",
          "midi": 60,
          "time": 128.37201600000043,
          "velocity": 0.5039370078740157,
          "duration": 0.4408912083333405
        },
        {
          "name": "G#3",
          "midi": 56,
          "time": 128.83713200000042,
          "velocity": 0.5039370078740157,
          "duration": 0.4408912083333405
        },
        {
          "name": "C4",
          "midi": 60,
          "time": 128.83713200000042,
          "velocity": 0.5039370078740157,
          "duration": 0.4408912083333405
        },
        {
          "name": "F4",
          "midi": 65,
          "time": 128.83713200000042,
          "velocity": 0.5039370078740157,
          "duration": 0.4408912083333405
        },
        {
          "name": "G#3",
          "midi": 56,
          "time": 129.30224800000042,
          "velocity": 0.5039370078740157,
          "duration": 0.33042615833332434
        },
        {
          "name": "C4",
          "midi": 60,
          "time": 129.30224800000042,
          "velocity": 0.5039370078740157,
          "duration": 0.33042615833332434
        },
        {
          "name": "D#4",
          "midi": 63,
          "time": 129.30224800000042,
          "velocity": 0.5039370078740157,
          "duration": 0.33042615833332434
        },
        {
          "name": "G#3",
          "midi": 56,
          "time": 129.65108500000042,
          "velocity": 0.5039370078740157,
          "duration": 0.33042615833332434
        },
        {
          "name": "C4",
          "midi": 60,
          "time": 129.65108500000042,
          "velocity": 0.5039370078740157,
          "duration": 0.33042615833332434
        },
        {
          "name": "F4",
          "midi": 65,
          "time": 129.65108500000042,
          "velocity": 0.5039370078740157,
          "duration": 0.33042615833332434
        },
        {
          "name": "G#3",
          "midi": 56,
          "time": 129.99992200000042,
          "velocity": 0.5039370078740157,
          "duration": 0.2199611083333366
        },
        {
          "name": "C4",
          "midi": 60,
          "time": 129.99992200000042,
          "velocity": 0.5039370078740157,
          "duration": 0.2199611083333366
        },
        {
          "name": "D#4",
          "midi": 63,
          "time": 129.99992200000042,
          "velocity": 0.5039370078740157,
          "duration": 0.2199611083333366
        },
        {
          "name": "D#3",
          "midi": 51,
          "time": 130.23248000000044,
          "velocity": 0.5039370078740157,
          "duration": 0.4408912083333405
        },
        {
          "name": "G#3",
          "midi": 56,
          "time": 130.23248000000044,
          "velocity": 0.5039370078740157,
          "duration": 0.4408912083333405
        },
        {
          "name": "D#3",
          "midi": 51,
          "time": 130.69759600000043,
          "velocity": 0.5039370078740157,
          "duration": 0.4408912083333405
        },
        {
          "name": "G#3",
          "midi": 56,
          "time": 130.69759600000043,
          "velocity": 0.5039370078740157,
          "duration": 0.4408912083333405
        },
        {
          "name": "C4",
          "midi": 60,
          "time": 130.69759600000043,
          "velocity": 0.5039370078740157,
          "duration": 0.4408912083333405
        },
        {
          "name": "D#3",
          "midi": 51,
          "time": 131.16271200000043,
          "velocity": 0.5039370078740157,
          "duration": 0.33042615833332434
        },
        {
          "name": "G#3",
          "midi": 56,
          "time": 131.16271200000043,
          "velocity": 0.5039370078740157,
          "duration": 0.33042615833332434
        },
        {
          "name": "A#3",
          "midi": 58,
          "time": 131.16271200000043,
          "velocity": 0.5039370078740157,
          "duration": 0.33042615833332434
        },
        {
          "name": "D#3",
          "midi": 51,
          "time": 131.51154900000043,
          "velocity": 0.5039370078740157,
          "duration": 0.33042615833332434
        },
        {
          "name": "G#3",
          "midi": 56,
          "time": 131.51154900000043,
          "velocity": 0.5039370078740157,
          "duration": 0.33042615833332434
        },
        {
          "name": "C4",
          "midi": 60,
          "time": 131.51154900000043,
          "velocity": 0.5039370078740157,
          "duration": 0.33042615833332434
        },
        {
          "name": "D#3",
          "midi": 51,
          "time": 131.86038600000043,
          "velocity": 0.5039370078740157,
          "duration": 0.2199611083333366
        },
        {
          "name": "G#3",
          "midi": 56,
          "time": 131.86038600000043,
          "velocity": 0.5039370078740157,
          "duration": 0.2199611083333366
        },
        {
          "name": "A#3",
          "midi": 58,
          "time": 131.86038600000043,
          "velocity": 0.5039370078740157,
          "duration": 0.2199611083333366
        },
        {
          "name": "C#3",
          "midi": 49,
          "time": 132.09294400000044,
          "velocity": 0.5039370078740157,
          "duration": 0.4408912083333405
        },
        {
          "name": "G#3",
          "midi": 56,
          "time": 132.09294400000044,
          "velocity": 0.5039370078740157,
          "duration": 0.4408912083333405
        },
        {
          "name": "G#3",
          "midi": 56,
          "time": 132.55806000000044,
          "velocity": 0.5039370078740157,
          "duration": 0.4408912083333405
        },
        {
          "name": "C#4",
          "midi": 61,
          "time": 132.55806000000044,
          "velocity": 0.5039370078740157,
          "duration": 0.4408912083333405
        },
        {
          "name": "F4",
          "midi": 65,
          "time": 132.55806000000044,
          "velocity": 0.5039370078740157,
          "duration": 0.4408912083333405
        },
        {
          "name": "G#3",
          "midi": 56,
          "time": 133.02317600000043,
          "velocity": 0.5039370078740157,
          "duration": 0.33042615833332434
        },
        {
          "name": "C#4",
          "midi": 61,
          "time": 133.02317600000043,
          "velocity": 0.5039370078740157,
          "duration": 0.33042615833332434
        },
        {
          "name": "D#4",
          "midi": 63,
          "time": 133.02317600000043,
          "velocity": 0.5039370078740157,
          "duration": 0.33042615833332434
        },
        {
          "name": "G#3",
          "midi": 56,
          "time": 133.37201300000044,
          "velocity": 0.5039370078740157,
          "duration": 0.33042615833332434
        },
        {
          "name": "C#4",
          "midi": 61,
          "time": 133.37201300000044,
          "velocity": 0.5039370078740157,
          "duration": 0.33042615833332434
        },
        {
          "name": "F4",
          "midi": 65,
          "time": 133.37201300000044,
          "velocity": 0.5039370078740157,
          "duration": 0.33042615833332434
        },
        {
          "name": "G#3",
          "midi": 56,
          "time": 133.72085000000044,
          "velocity": 0.5039370078740157,
          "duration": 0.2199611083333366
        },
        {
          "name": "C#4",
          "midi": 61,
          "time": 133.72085000000044,
          "velocity": 0.5039370078740157,
          "duration": 0.2199611083333366
        },
        {
          "name": "D#4",
          "midi": 63,
          "time": 133.72085000000044,
          "velocity": 0.5039370078740157,
          "duration": 0.2199611083333366
        },
        {
          "name": "C3",
          "midi": 48,
          "time": 133.95340800000045,
          "velocity": 0.5039370078740157,
          "duration": 0.4408912083333405
        },
        {
          "name": "G3",
          "midi": 55,
          "time": 133.95340800000045,
          "velocity": 0.5039370078740157,
          "duration": 0.4408912083333405
        },
        {
          "name": "G3",
          "midi": 55,
          "time": 134.41852400000045,
          "velocity": 0.5039370078740157,
          "duration": 0.4408912083333405
        },
        {
          "name": "C4",
          "midi": 60,
          "time": 134.41852400000045,
          "velocity": 0.5039370078740157,
          "duration": 0.4408912083333405
        },
        {
          "name": "F4",
          "midi": 65,
          "time": 134.41852400000045,
          "velocity": 0.5039370078740157,
          "duration": 0.4408912083333405
        },
        {
          "name": "G3",
          "midi": 55,
          "time": 134.88364000000044,
          "velocity": 0.5039370078740157,
          "duration": 0.33042615833332434
        },
        {
          "name": "C4",
          "midi": 60,
          "time": 134.88364000000044,
          "velocity": 0.5039370078740157,
          "duration": 0.33042615833332434
        },
        {
          "name": "E4",
          "midi": 64,
          "time": 134.88364000000044,
          "velocity": 0.5039370078740157,
          "duration": 0.33042615833332434
        },
        {
          "name": "G3",
          "midi": 55,
          "time": 135.23247700000044,
          "velocity": 0.5039370078740157,
          "duration": 0.33042615833332434
        },
        {
          "name": "C4",
          "midi": 60,
          "time": 135.23247700000044,
          "velocity": 0.5039370078740157,
          "duration": 0.33042615833332434
        },
        {
          "name": "F4",
          "midi": 65,
          "time": 135.23247700000044,
          "velocity": 0.5039370078740157,
          "duration": 0.33042615833332434
        },
        {
          "name": "G3",
          "midi": 55,
          "time": 135.58131400000045,
          "velocity": 0.5039370078740157,
          "duration": 0.2199611083333366
        },
        {
          "name": "C4",
          "midi": 60,
          "time": 135.58131400000045,
          "velocity": 0.5039370078740157,
          "duration": 0.2199611083333366
        },
        {
          "name": "E4",
          "midi": 64,
          "time": 135.58131400000045,
          "velocity": 0.5039370078740157,
          "duration": 0.2199611083333366
        },
        {
          "name": "F3",
          "midi": 53,
          "time": 135.81387200000046,
          "velocity": 0.5039370078740157,
          "duration": 0.4408912083333405
        },
        {
          "name": "C4",
          "midi": 60,
          "time": 135.81387200000046,
          "velocity": 0.5039370078740157,
          "duration": 0.4408912083333405
        },
        {
          "name": "G#3",
          "midi": 56,
          "time": 136.27898800000045,
          "velocity": 0.5039370078740157,
          "duration": 0.4408912083333405
        },
        {
          "name": "C4",
          "midi": 60,
          "time": 136.27898800000045,
          "velocity": 0.5039370078740157,
          "duration": 0.4408912083333405
        },
        {
          "name": "F4",
          "midi": 65,
          "time": 136.27898800000045,
          "velocity": 0.5039370078740157,
          "duration": 0.4408912083333405
        },
        {
          "name": "G#3",
          "midi": 56,
          "time": 136.74410400000045,
          "velocity": 0.5039370078740157,
          "duration": 0.33042615833332434
        },
        {
          "name": "C4",
          "midi": 60,
          "time": 136.74410400000045,
          "velocity": 0.5039370078740157,
          "duration": 0.33042615833332434
        },
        {
          "name": "D#4",
          "midi": 63,
          "time": 136.74410400000045,
          "velocity": 0.5039370078740157,
          "duration": 0.33042615833332434
        },
        {
          "name": "G#3",
          "midi": 56,
          "time": 137.09294100000045,
          "velocity": 0.5039370078740157,
          "duration": 0.33042615833332434
        },
        {
          "name": "C4",
          "midi": 60,
          "time": 137.09294100000045,
          "velocity": 0.5039370078740157,
          "duration": 0.33042615833332434
        },
        {
          "name": "F4",
          "midi": 65,
          "time": 137.09294100000045,
          "velocity": 0.5039370078740157,
          "duration": 0.33042615833332434
        },
        {
          "name": "G#3",
          "midi": 56,
          "time": 137.44177800000045,
          "velocity": 0.5039370078740157,
          "duration": 0.2199611083333366
        },
        {
          "name": "C4",
          "midi": 60,
          "time": 137.44177800000045,
          "velocity": 0.5039370078740157,
          "duration": 0.2199611083333366
        },
        {
          "name": "D#4",
          "midi": 63,
          "time": 137.44177800000045,
          "velocity": 0.5039370078740157,
          "duration": 0.2199611083333366
        },
        {
          "name": "D#3",
          "midi": 51,
          "time": 137.67433600000047,
          "velocity": 0.5039370078740157,
          "duration": 0.4408912083333405
        },
        {
          "name": "G#3",
          "midi": 56,
          "time": 137.67433600000047,
          "velocity": 0.5039370078740157,
          "duration": 0.4408912083333405
        },
        {
          "name": "D#3",
          "midi": 51,
          "time": 138.13945200000046,
          "velocity": 0.5039370078740157,
          "duration": 0.4408912083333405
        },
        {
          "name": "G#3",
          "midi": 56,
          "time": 138.13945200000046,
          "velocity": 0.5039370078740157,
          "duration": 0.4408912083333405
        },
        {
          "name": "C4",
          "midi": 60,
          "time": 138.13945200000046,
          "velocity": 0.5039370078740157,
          "duration": 0.4408912083333405
        },
        {
          "name": "D#3",
          "midi": 51,
          "time": 138.60456800000046,
          "velocity": 0.5039370078740157,
          "duration": 0.33042615833332434
        },
        {
          "name": "G#3",
          "midi": 56,
          "time": 138.60456800000046,
          "velocity": 0.5039370078740157,
          "duration": 0.33042615833332434
        },
        {
          "name": "A#3",
          "midi": 58,
          "time": 138.60456800000046,
          "velocity": 0.5039370078740157,
          "duration": 0.33042615833332434
        },
        {
          "name": "D#3",
          "midi": 51,
          "time": 138.95340500000046,
          "velocity": 0.5039370078740157,
          "duration": 0.33042615833332434
        },
        {
          "name": "G#3",
          "midi": 56,
          "time": 138.95340500000046,
          "velocity": 0.5039370078740157,
          "duration": 0.33042615833332434
        },
        {
          "name": "C4",
          "midi": 60,
          "time": 138.95340500000046,
          "velocity": 0.5039370078740157,
          "duration": 0.33042615833332434
        },
        {
          "name": "D#3",
          "midi": 51,
          "time": 139.30224200000046,
          "velocity": 0.5039370078740157,
          "duration": 0.2199611083333366
        },
        {
          "name": "G#3",
          "midi": 56,
          "time": 139.30224200000046,
          "velocity": 0.5039370078740157,
          "duration": 0.2199611083333366
        },
        {
          "name": "A#3",
          "midi": 58,
          "time": 139.30224200000046,
          "velocity": 0.5039370078740157,
          "duration": 0.2199611083333366
        },
        {
          "name": "G#3",
          "midi": 56,
          "time": 139.53480000000047,
          "velocity": 0.5039370078740157,
          "duration": 0.33042615833332434
        },
        {
          "name": "C#4",
          "midi": 61,
          "time": 139.53480000000047,
          "velocity": 0.5039370078740157,
          "duration": 0.33042615833332434
        },
        {
          "name": "G#3",
          "midi": 56,
          "time": 139.88363700000048,
          "velocity": 0.5039370078740157,
          "duration": 0.4408912083333405
        },
        {
          "name": "C4",
          "midi": 60,
          "time": 139.88363700000048,
          "velocity": 0.5039370078740157,
          "duration": 0.4408912083333405
        },
        {
          "name": "G#3",
          "midi": 56,
          "time": 140.4650320000005,
          "velocity": 0.5039370078740157,
          "duration": 0.4408912083333405
        },
        {
          "name": "D#3",
          "midi": 51,
          "time": 140.9301480000005,
          "velocity": 0.5039370078740157,
          "duration": 0.4408912083333405
        },
        {
          "name": "C#3",
          "midi": 49,
          "time": 141.39526400000048,
          "velocity": 0.5039370078740157,
          "duration": 0.4408912083333405
        },
        {
          "name": "G#3",
          "midi": 56,
          "time": 141.86038000000048,
          "velocity": 0.5039370078740157,
          "duration": 0.4408912083333405
        },
        {
          "name": "C#4",
          "midi": 61,
          "time": 142.32549600000047,
          "velocity": 0.5039370078740157,
          "duration": 0.4408912083333405
        },
        {
          "name": "C4",
          "midi": 60,
          "time": 142.79061200000046,
          "velocity": 0.5039370078740157,
          "duration": 0.4408912083333405
        },
        {
          "name": "C3",
          "midi": 48,
          "time": 143.25572800000046,
          "velocity": 0.5039370078740157,
          "duration": 0.4408912083333405
        },
        {
          "name": "E3",
          "midi": 52,
          "time": 143.72084400000045,
          "velocity": 0.5039370078740157,
          "duration": 0.4408912083333405
        },
        {
          "name": "A#3",
          "midi": 58,
          "time": 144.18596000000045,
          "velocity": 0.5039370078740157,
          "duration": 0.4408912083333405
        },
        {
          "name": "C4",
          "midi": 60,
          "time": 144.65107600000044,
          "velocity": 0.5039370078740157,
          "duration": 0.4408912083333405
        },
        {
          "name": "F2",
          "midi": 41,
          "time": 145.11619200000044,
          "velocity": 0.5039370078740157,
          "duration": 0.4408912083333405
        },
        {
          "name": "C3",
          "midi": 48,
          "time": 145.58130800000043,
          "velocity": 0.5039370078740157,
          "duration": 0.4408912083333405
        },
        {
          "name": "G3",
          "midi": 55,
          "time": 146.04642400000043,
          "velocity": 0.5039370078740157,
          "duration": 0.4408912083333405
        },
        {
          "name": "G#3",
          "midi": 56,
          "time": 146.51154000000042,
          "velocity": 0.5039370078740157,
          "duration": 0.4408912083333405
        },
        {
          "name": "G#2",
          "midi": 44,
          "time": 146.97665600000042,
          "velocity": 0.5039370078740157,
          "duration": 0.4408912083333405
        },
        {
          "name": "D#3",
          "midi": 51,
          "time": 147.4417720000004,
          "velocity": 0.5039370078740157,
          "duration": 0.4408912083333405
        },
        {
          "name": "G3",
          "midi": 55,
          "time": 147.9068880000004,
          "velocity": 0.5039370078740157,
          "duration": 0.4408912083333405
        },
        {
          "name": "G#3",
          "midi": 56,
          "time": 148.3720040000004,
          "velocity": 0.5039370078740157,
          "duration": 0.4408912083333405
        },
        {
          "name": "C#3",
          "midi": 49,
          "time": 148.8371200000004,
          "velocity": 0.5039370078740157,
          "duration": 0.4408912083333405
        },
        {
          "name": "G#3",
          "midi": 56,
          "time": 149.3022360000004,
          "velocity": 0.5039370078740157,
          "duration": 0.4408912083333405
        },
        {
          "name": "C#4",
          "midi": 61,
          "time": 149.7673520000004,
          "velocity": 0.5039370078740157,
          "duration": 0.4408912083333405
        },
        {
          "name": "C4",
          "midi": 60,
          "time": 150.23246800000038,
          "velocity": 0.5039370078740157,
          "duration": 0.4408912083333405
        },
        {
          "name": "C3",
          "midi": 48,
          "time": 150.69758400000038,
          "velocity": 0.5039370078740157,
          "duration": 0.4408912083333405
        },
        {
          "name": "E3",
          "midi": 52,
          "time": 151.16270000000037,
          "velocity": 0.5039370078740157,
          "duration": 0.4408912083333405
        },
        {
          "name": "A#3",
          "midi": 58,
          "time": 151.62781600000037,
          "velocity": 0.5039370078740157,
          "duration": 0.4408912083333405
        },
        {
          "name": "C4",
          "midi": 60,
          "time": 152.09293200000036,
          "velocity": 0.5039370078740157,
          "duration": 0.4408912083333405
        },
        {
          "name": "F2",
          "midi": 41,
          "time": 152.55804800000035,
          "velocity": 0.5039370078740157,
          "duration": 0.4408912083333405
        },
        {
          "name": "C3",
          "midi": 48,
          "time": 153.02316400000035,
          "velocity": 0.5039370078740157,
          "duration": 0.4408912083333405
        },
        {
          "name": "G3",
          "midi": 55,
          "time": 153.48828000000034,
          "velocity": 0.5039370078740157,
          "duration": 0.4408912083333405
        },
        {
          "name": "G#3",
          "midi": 56,
          "time": 153.95339600000034,
          "velocity": 0.5039370078740157,
          "duration": 0.4408912083333405
        },
        {
          "name": "G#2",
          "midi": 44,
          "time": 154.41851200000033,
          "velocity": 0.5039370078740157,
          "duration": 0.8827514083333483
        },
        {
          "name": "C#3",
          "midi": 49,
          "time": 154.41851200000033,
          "velocity": 0.5039370078740157,
          "duration": 0.8827514083333483
        },
        {
          "name": "G#3",
          "midi": 56,
          "time": 154.41851200000033,
          "velocity": 0.5039370078740157,
          "duration": 0.8827514083333483
        },
        {
          "name": "G#2",
          "midi": 44,
          "time": 155.34874400000035,
          "velocity": 0.5039370078740157,
          "duration": 0.8827514083333199
        },
        {
          "name": "D#3",
          "midi": 51,
          "time": 155.34874400000035,
          "velocity": 0.5039370078740157,
          "duration": 0.8827514083333199
        },
        {
          "name": "G#3",
          "midi": 56,
          "time": 155.34874400000035,
          "velocity": 0.5039370078740157,
          "duration": 0.8827514083333199
        },
        {
          "name": "C#2",
          "midi": 37,
          "time": 156.27897600000034,
          "velocity": 0.5039370078740157,
          "duration": 0.2199611083333366
        },
        {
          "name": "G#2",
          "midi": 44,
          "time": 156.51153400000035,
          "velocity": 0.5039370078740157,
          "duration": 0.2199611083333366
        },
        {
          "name": "C#3",
          "midi": 49,
          "time": 156.74409200000036,
          "velocity": 0.5039370078740157,
          "duration": 0.2199611083333366
        },
        {
          "name": "D#3",
          "midi": 51,
          "time": 156.97665000000038,
          "velocity": 0.5039370078740157,
          "duration": 0.2199611083333366
        },
        {
          "name": "F3",
          "midi": 53,
          "time": 157.2092080000004,
          "velocity": 0.5039370078740157,
          "duration": 0.2199611083333366
        },
        {
          "name": "G#3",
          "midi": 56,
          "time": 157.4417660000004,
          "velocity": 0.5039370078740157,
          "duration": 0.2199611083333366
        },
        {
          "name": "C4",
          "midi": 60,
          "time": 157.6743240000004,
          "velocity": 0.5039370078740157,
          "duration": 0.2199611083333366
        },
        {
          "name": "F4",
          "midi": 65,
          "time": 157.90688200000042,
          "velocity": 0.5039370078740157,
          "duration": 0.2199611083333366
        },
        {
          "name": "C2",
          "midi": 36,
          "time": 158.13944000000043,
          "velocity": 0.5039370078740157,
          "duration": 0.2199611083333366
        },
        {
          "name": "E2",
          "midi": 40,
          "time": 158.37199800000045,
          "velocity": 0.5039370078740157,
          "duration": 0.2199611083333366
        },
        {
          "name": "G2",
          "midi": 43,
          "time": 158.60455600000046,
          "velocity": 0.5039370078740157,
          "duration": 0.2199611083333366
        },
        {
          "name": "C3",
          "midi": 48,
          "time": 158.83711400000047,
          "velocity": 0.5039370078740157,
          "duration": 0.2199611083333366
        },
        {
          "name": "E3",
          "midi": 52,
          "time": 159.06967200000048,
          "velocity": 0.5039370078740157,
          "duration": 0.2199611083333366
        },
        {
          "name": "G3",
          "midi": 55,
          "time": 159.3022300000005,
          "velocity": 0.5039370078740157,
          "duration": 0.2199611083333366
        },
        {
          "name": "A#3",
          "midi": 58,
          "time": 159.5347880000005,
          "velocity": 0.5039370078740157,
          "duration": 0.2199611083333366
        },
        {
          "name": "C4",
          "midi": 60,
          "time": 159.76734600000052,
          "velocity": 0.5039370078740157,
          "duration": 0.2199611083333366
        },
        {
          "name": "F2",
          "midi": 41,
          "time": 159.99990400000053,
          "velocity": 0.5039370078740157,
          "duration": 0.2199611083333366
        },
        {
          "name": "C3",
          "midi": 48,
          "time": 160.23246200000054,
          "velocity": 0.5039370078740157,
          "duration": 0.2199611083333366
        },
        {
          "name": "F3",
          "midi": 53,
          "time": 160.46502000000055,
          "velocity": 0.5039370078740157,
          "duration": 0.2199611083333366
        },
        {
          "name": "G#3",
          "midi": 56,
          "time": 160.69757800000056,
          "velocity": 0.5039370078740157,
          "duration": 0.2199611083333366
        },
        {
          "name": "C4",
          "midi": 60,
          "time": 160.93013600000057,
          "velocity": 0.5039370078740157,
          "duration": 0.2199611083333366
        },
        {
          "name": "F4",
          "midi": 65,
          "time": 161.16269400000058,
          "velocity": 0.5039370078740157,
          "duration": 0.2199611083333366
        },
        {
          "name": "A#4",
          "midi": 70,
          "time": 161.3952520000006,
          "velocity": 0.5039370078740157,
          "duration": 0.2199611083333366
        },
        {
          "name": "C5",
          "midi": 72,
          "time": 161.6278100000006,
          "velocity": 0.5039370078740157,
          "duration": 0.2199611083333366
        },
        {
          "name": "G#2",
          "midi": 44,
          "time": 161.86036800000062,
          "velocity": 0.5039370078740157,
          "duration": 0.2199611083333366
        },
        {
          "name": "D#3",
          "midi": 51,
          "time": 162.09292600000063,
          "velocity": 0.5039370078740157,
          "duration": 0.2199611083333366
        },
        {
          "name": "F3",
          "midi": 53,
          "time": 162.32548400000064,
          "velocity": 0.5039370078740157,
          "duration": 0.2199611083333366
        },
        {
          "name": "G#3",
          "midi": 56,
          "time": 162.55804200000065,
          "velocity": 0.5039370078740157,
          "duration": 0.2199611083333366
        },
        {
          "name": "A#3",
          "midi": 58,
          "time": 162.79060000000067,
          "velocity": 0.5039370078740157,
          "duration": 0.2199611083333366
        },
        {
          "name": "C4",
          "midi": 60,
          "time": 163.02315800000068,
          "velocity": 0.5039370078740157,
          "duration": 0.2199611083333366
        },
        {
          "name": "D#4",
          "midi": 63,
          "time": 163.2557160000007,
          "velocity": 0.5039370078740157,
          "duration": 0.2199611083333366
        },
        {
          "name": "F4",
          "midi": 65,
          "time": 163.4882740000007,
          "velocity": 0.5039370078740157,
          "duration": 0.2199611083333366
        },
        {
          "name": "C#2",
          "midi": 37,
          "time": 163.7208320000007,
          "velocity": 0.5039370078740157,
          "duration": 0.2199611083333366
        },
        {
          "name": "G#2",
          "midi": 44,
          "time": 163.95339000000072,
          "velocity": 0.5039370078740157,
          "duration": 0.2199611083333366
        },
        {
          "name": "C#3",
          "midi": 49,
          "time": 164.18594800000074,
          "velocity": 0.5039370078740157,
          "duration": 0.2199611083333366
        },
        {
          "name": "D#3",
          "midi": 51,
          "time": 164.41850600000075,
          "velocity": 0.5039370078740157,
          "duration": 0.2199611083333366
        },
        {
          "name": "F3",
          "midi": 53,
          "time": 164.65106400000076,
          "velocity": 0.5039370078740157,
          "duration": 0.2199611083333366
        },
        {
          "name": "G#3",
          "midi": 56,
          "time": 164.88362200000077,
          "velocity": 0.5039370078740157,
          "duration": 0.2199611083333366
        },
        {
          "name": "C4",
          "midi": 60,
          "time": 165.11618000000078,
          "velocity": 0.5039370078740157,
          "duration": 0.2199611083333366
        },
        {
          "name": "F4",
          "midi": 65,
          "time": 165.3487380000008,
          "velocity": 0.5039370078740157,
          "duration": 0.2199611083333366
        },
        {
          "name": "C2",
          "midi": 36,
          "time": 165.5812960000008,
          "velocity": 0.5039370078740157,
          "duration": 0.2199611083333366
        },
        {
          "name": "E2",
          "midi": 40,
          "time": 165.81385400000082,
          "velocity": 0.5039370078740157,
          "duration": 0.2199611083333366
        },
        {
          "name": "G2",
          "midi": 43,
          "time": 166.04641200000083,
          "velocity": 0.5039370078740157,
          "duration": 0.2199611083333366
        },
        {
          "name": "C3",
          "midi": 48,
          "time": 166.27897000000084,
          "velocity": 0.5039370078740157,
          "duration": 0.2199611083333366
        },
        {
          "name": "E3",
          "midi": 52,
          "time": 166.51152800000085,
          "velocity": 0.5039370078740157,
          "duration": 0.2199611083333366
        },
        {
          "name": "G3",
          "midi": 55,
          "time": 166.74408600000086,
          "velocity": 0.5039370078740157,
          "duration": 0.2199611083333366
        },
        {
          "name": "A#3",
          "midi": 58,
          "time": 166.97664400000087,
          "velocity": 0.5039370078740157,
          "duration": 0.2199611083333366
        },
        {
          "name": "C4",
          "midi": 60,
          "time": 167.2092020000009,
          "velocity": 0.5039370078740157,
          "duration": 0.2199611083333366
        },
        {
          "name": "F2",
          "midi": 41,
          "time": 167.4417600000009,
          "velocity": 0.5039370078740157,
          "duration": 0.2199611083333366
        },
        {
          "name": "C3",
          "midi": 48,
          "time": 167.6743180000009,
          "velocity": 0.5039370078740157,
          "duration": 0.2199611083333366
        },
        {
          "name": "F3",
          "midi": 53,
          "time": 167.90687600000092,
          "velocity": 0.5039370078740157,
          "duration": 0.2199611083333366
        },
        {
          "name": "G#3",
          "midi": 56,
          "time": 168.13943400000093,
          "velocity": 0.5039370078740157,
          "duration": 0.2199611083333366
        },
        {
          "name": "C4",
          "midi": 60,
          "time": 168.37199200000094,
          "velocity": 0.5039370078740157,
          "duration": 0.2199611083333366
        },
        {
          "name": "F4",
          "midi": 65,
          "time": 168.60455000000096,
          "velocity": 0.5039370078740157,
          "duration": 0.2199611083333366
        },
        {
          "name": "A#4",
          "midi": 70,
          "time": 168.83710800000097,
          "velocity": 0.5039370078740157,
          "duration": 0.2199611083333366
        },
        {
          "name": "C5",
          "midi": 72,
          "time": 169.06966600000098,
          "velocity": 0.5039370078740157,
          "duration": 0.2199611083333366
        },
        {
          "name": "G#2",
          "midi": 44,
          "time": 169.302224000001,
          "velocity": 0.5039370078740157,
          "duration": 0.33042615833332434
        },
        {
          "name": "C#3",
          "midi": 49,
          "time": 169.302224000001,
          "velocity": 0.5039370078740157,
          "duration": 0.33042615833332434
        },
        {
          "name": "G#3",
          "midi": 56,
          "time": 169.302224000001,
          "velocity": 0.5039370078740157,
          "duration": 0.33042615833332434
        },
        {
          "name": "G#2",
          "midi": 44,
          "time": 169.651061000001,
          "velocity": 0.5039370078740157,
          "duration": 0.33042615833332434
        },
        {
          "name": "C#3",
          "midi": 49,
          "time": 169.651061000001,
          "velocity": 0.5039370078740157,
          "duration": 0.33042615833332434
        },
        {
          "name": "G#3",
          "midi": 56,
          "time": 169.651061000001,
          "velocity": 0.5039370078740157,
          "duration": 0.33042615833332434
        },
        {
          "name": "G#2",
          "midi": 44,
          "time": 169.999898000001,
          "velocity": 0.5039370078740157,
          "duration": 0.2199611083333366
        },
        {
          "name": "C#3",
          "midi": 49,
          "time": 169.999898000001,
          "velocity": 0.5039370078740157,
          "duration": 0.2199611083333366
        },
        {
          "name": "G#3",
          "midi": 56,
          "time": 169.999898000001,
          "velocity": 0.5039370078740157,
          "duration": 0.2199611083333366
        },
        {
          "name": "G#2",
          "midi": 44,
          "time": 170.232456000001,
          "velocity": 0.5039370078740157,
          "duration": 0.33042615833332434
        },
        {
          "name": "D#3",
          "midi": 51,
          "time": 170.232456000001,
          "velocity": 0.5039370078740157,
          "duration": 0.33042615833332434
        },
        {
          "name": "G#3",
          "midi": 56,
          "time": 170.232456000001,
          "velocity": 0.5039370078740157,
          "duration": 0.33042615833332434
        },
        {
          "name": "G#2",
          "midi": 44,
          "time": 170.581293000001,
          "velocity": 0.5039370078740157,
          "duration": 0.33042615833332434
        },
        {
          "name": "D#3",
          "midi": 51,
          "time": 170.581293000001,
          "velocity": 0.5039370078740157,
          "duration": 0.33042615833332434
        },
        {
          "name": "G#3",
          "midi": 56,
          "time": 170.581293000001,
          "velocity": 0.5039370078740157,
          "duration": 0.33042615833332434
        },
        {
          "name": "G#2",
          "midi": 44,
          "time": 170.93013000000101,
          "velocity": 0.5039370078740157,
          "duration": 0.2199611083333366
        },
        {
          "name": "D#3",
          "midi": 51,
          "time": 170.93013000000101,
          "velocity": 0.5039370078740157,
          "duration": 0.2199611083333366
        },
        {
          "name": "G#3",
          "midi": 56,
          "time": 170.93013000000101,
          "velocity": 0.5039370078740157,
          "duration": 0.2199611083333366
        },
        {
          "name": "C#3",
          "midi": 49,
          "time": 171.16268800000103,
          "velocity": 0.5039370078740157,
          "duration": 0.4408912083333405
        },
        {
          "name": "G#3",
          "midi": 56,
          "time": 171.16268800000103,
          "velocity": 0.5039370078740157,
          "duration": 0.4408912083333405
        },
        {
          "name": "G#3",
          "midi": 56,
          "time": 171.62780400000102,
          "velocity": 0.5039370078740157,
          "duration": 0.4408912083333405
        },
        {
          "name": "C#4",
          "midi": 61,
          "time": 171.62780400000102,
          "velocity": 0.5039370078740157,
          "duration": 0.4408912083333405
        },
        {
          "name": "F4",
          "midi": 65,
          "time": 171.62780400000102,
          "velocity": 0.5039370078740157,
          "duration": 0.4408912083333405
        },
        {
          "name": "G#3",
          "midi": 56,
          "time": 172.09292000000102,
          "velocity": 0.5039370078740157,
          "duration": 0.33042615833332434
        },
        {
          "name": "C#4",
          "midi": 61,
          "time": 172.09292000000102,
          "velocity": 0.5039370078740157,
          "duration": 0.33042615833332434
        },
        {
          "name": "D#4",
          "midi": 63,
          "time": 172.09292000000102,
          "velocity": 0.5039370078740157,
          "duration": 0.33042615833332434
        },
        {
          "name": "G#3",
          "midi": 56,
          "time": 172.44175700000102,
          "velocity": 0.5039370078740157,
          "duration": 0.33042615833332434
        },
        {
          "name": "C#4",
          "midi": 61,
          "time": 172.44175700000102,
          "velocity": 0.5039370078740157,
          "duration": 0.33042615833332434
        },
        {
          "name": "F4",
          "midi": 65,
          "time": 172.44175700000102,
          "velocity": 0.5039370078740157,
          "duration": 0.33042615833332434
        },
        {
          "name": "G#3",
          "midi": 56,
          "time": 172.79059400000102,
          "velocity": 0.5039370078740157,
          "duration": 0.2199611083333366
        },
        {
          "name": "C#4",
          "midi": 61,
          "time": 172.79059400000102,
          "velocity": 0.5039370078740157,
          "duration": 0.2199611083333366
        },
        {
          "name": "D#4",
          "midi": 63,
          "time": 172.79059400000102,
          "velocity": 0.5039370078740157,
          "duration": 0.2199611083333366
        },
        {
          "name": "C3",
          "midi": 48,
          "time": 173.02315200000103,
          "velocity": 0.5039370078740157,
          "duration": 0.4408912083333405
        },
        {
          "name": "G3",
          "midi": 55,
          "time": 173.02315200000103,
          "velocity": 0.5039370078740157,
          "duration": 0.4408912083333405
        },
        {
          "name": "G3",
          "midi": 55,
          "time": 173.48826800000103,
          "velocity": 0.5039370078740157,
          "duration": 0.4408912083333405
        },
        {
          "name": "C4",
          "midi": 60,
          "time": 173.48826800000103,
          "velocity": 0.5039370078740157,
          "duration": 0.4408912083333405
        },
        {
          "name": "F4",
          "midi": 65,
          "time": 173.48826800000103,
          "velocity": 0.5039370078740157,
          "duration": 0.4408912083333405
        },
        {
          "name": "G3",
          "midi": 55,
          "time": 173.95338400000102,
          "velocity": 0.5039370078740157,
          "duration": 0.33042615833332434
        },
        {
          "name": "C4",
          "midi": 60,
          "time": 173.95338400000102,
          "velocity": 0.5039370078740157,
          "duration": 0.33042615833332434
        },
        {
          "name": "E4",
          "midi": 64,
          "time": 173.95338400000102,
          "velocity": 0.5039370078740157,
          "duration": 0.33042615833332434
        },
        {
          "name": "G3",
          "midi": 55,
          "time": 174.30222100000103,
          "velocity": 0.5039370078740157,
          "duration": 0.33042615833332434
        },
        {
          "name": "C4",
          "midi": 60,
          "time": 174.30222100000103,
          "velocity": 0.5039370078740157,
          "duration": 0.33042615833332434
        },
        {
          "name": "F4",
          "midi": 65,
          "time": 174.30222100000103,
          "velocity": 0.5039370078740157,
          "duration": 0.33042615833332434
        },
        {
          "name": "G3",
          "midi": 55,
          "time": 174.65105800000103,
          "velocity": 0.5039370078740157,
          "duration": 0.2199611083333366
        },
        {
          "name": "C4",
          "midi": 60,
          "time": 174.65105800000103,
          "velocity": 0.5039370078740157,
          "duration": 0.2199611083333366
        },
        {
          "name": "E4",
          "midi": 64,
          "time": 174.65105800000103,
          "velocity": 0.5039370078740157,
          "duration": 0.2199611083333366
        },
        {
          "name": "F3",
          "midi": 53,
          "time": 174.88361600000104,
          "velocity": 0.5039370078740157,
          "duration": 0.4408912083333405
        },
        {
          "name": "C4",
          "midi": 60,
          "time": 174.88361600000104,
          "velocity": 0.5039370078740157,
          "duration": 0.4408912083333405
        },
        {
          "name": "G#3",
          "midi": 56,
          "time": 175.34873200000104,
          "velocity": 0.5039370078740157,
          "duration": 0.4408912083333405
        },
        {
          "name": "C4",
          "midi": 60,
          "time": 175.34873200000104,
          "velocity": 0.5039370078740157,
          "duration": 0.4408912083333405
        },
        {
          "name": "F4",
          "midi": 65,
          "time": 175.34873200000104,
          "velocity": 0.5039370078740157,
          "duration": 0.4408912083333405
        },
        {
          "name": "G#3",
          "midi": 56,
          "time": 175.81384800000103,
          "velocity": 0.5039370078740157,
          "duration": 0.33042615833332434
        },
        {
          "name": "C4",
          "midi": 60,
          "time": 175.81384800000103,
          "velocity": 0.5039370078740157,
          "duration": 0.33042615833332434
        },
        {
          "name": "D#4",
          "midi": 63,
          "time": 175.81384800000103,
          "velocity": 0.5039370078740157,
          "duration": 0.33042615833332434
        },
        {
          "name": "G#3",
          "midi": 56,
          "time": 176.16268500000103,
          "velocity": 0.5039370078740157,
          "duration": 0.33042615833332434
        },
        {
          "name": "C4",
          "midi": 60,
          "time": 176.16268500000103,
          "velocity": 0.5039370078740157,
          "duration": 0.33042615833332434
        },
        {
          "name": "F4",
          "midi": 65,
          "time": 176.16268500000103,
          "velocity": 0.5039370078740157,
          "duration": 0.33042615833332434
        },
        {
          "name": "G#3",
          "midi": 56,
          "time": 176.51152200000104,
          "velocity": 0.5039370078740157,
          "duration": 0.2199611083333366
        },
        {
          "name": "C4",
          "midi": 60,
          "time": 176.51152200000104,
          "velocity": 0.5039370078740157,
          "duration": 0.2199611083333366
        },
        {
          "name": "D#4",
          "midi": 63,
          "time": 176.51152200000104,
          "velocity": 0.5039370078740157,
          "duration": 0.2199611083333366
        },
        {
          "name": "D#3",
          "midi": 51,
          "time": 176.74408000000105,
          "velocity": 0.5039370078740157,
          "duration": 0.4408912083333405
        },
        {
          "name": "G#3",
          "midi": 56,
          "time": 176.74408000000105,
          "velocity": 0.5039370078740157,
          "duration": 0.4408912083333405
        },
        {
          "name": "D#3",
          "midi": 51,
          "time": 177.20919600000104,
          "velocity": 0.5039370078740157,
          "duration": 0.4408912083333405
        },
        {
          "name": "G#3",
          "midi": 56,
          "time": 177.20919600000104,
          "velocity": 0.5039370078740157,
          "duration": 0.4408912083333405
        },
        {
          "name": "C4",
          "midi": 60,
          "time": 177.20919600000104,
          "velocity": 0.5039370078740157,
          "duration": 0.4408912083333405
        },
        {
          "name": "D#3",
          "midi": 51,
          "time": 177.67431200000104,
          "velocity": 0.5039370078740157,
          "duration": 0.33042615833332434
        },
        {
          "name": "G#3",
          "midi": 56,
          "time": 177.67431200000104,
          "velocity": 0.5039370078740157,
          "duration": 0.33042615833332434
        },
        {
          "name": "A#3",
          "midi": 58,
          "time": 177.67431200000104,
          "velocity": 0.5039370078740157,
          "duration": 0.33042615833332434
        },
        {
          "name": "D#3",
          "midi": 51,
          "time": 178.02314900000104,
          "velocity": 0.5039370078740157,
          "duration": 0.33042615833332434
        },
        {
          "name": "G#3",
          "midi": 56,
          "time": 178.02314900000104,
          "velocity": 0.5039370078740157,
          "duration": 0.33042615833332434
        },
        {
          "name": "C4",
          "midi": 60,
          "time": 178.02314900000104,
          "velocity": 0.5039370078740157,
          "duration": 0.33042615833332434
        },
        {
          "name": "D#3",
          "midi": 51,
          "time": 178.37198600000104,
          "velocity": 0.5039370078740157,
          "duration": 0.2199611083333366
        },
        {
          "name": "G#3",
          "midi": 56,
          "time": 178.37198600000104,
          "velocity": 0.5039370078740157,
          "duration": 0.2199611083333366
        },
        {
          "name": "A#3",
          "midi": 58,
          "time": 178.37198600000104,
          "velocity": 0.5039370078740157,
          "duration": 0.2199611083333366
        },
        {
          "name": "C#3",
          "midi": 49,
          "time": 178.60454400000106,
          "velocity": 0.5039370078740157,
          "duration": 0.4408912083333405
        },
        {
          "name": "G#3",
          "midi": 56,
          "time": 178.60454400000106,
          "velocity": 0.5039370078740157,
          "duration": 0.4408912083333405
        },
        {
          "name": "G#3",
          "midi": 56,
          "time": 179.06966000000105,
          "velocity": 0.5039370078740157,
          "duration": 0.4408912083333405
        },
        {
          "name": "C#4",
          "midi": 61,
          "time": 179.06966000000105,
          "velocity": 0.5039370078740157,
          "duration": 0.4408912083333405
        },
        {
          "name": "F4",
          "midi": 65,
          "time": 179.06966000000105,
          "velocity": 0.5039370078740157,
          "duration": 0.4408912083333405
        },
        {
          "name": "G#3",
          "midi": 56,
          "time": 179.53477600000105,
          "velocity": 0.5039370078740157,
          "duration": 0.33042615833332434
        },
        {
          "name": "C#4",
          "midi": 61,
          "time": 179.53477600000105,
          "velocity": 0.5039370078740157,
          "duration": 0.33042615833332434
        },
        {
          "name": "D#4",
          "midi": 63,
          "time": 179.53477600000105,
          "velocity": 0.5039370078740157,
          "duration": 0.33042615833332434
        },
        {
          "name": "G#3",
          "midi": 56,
          "time": 179.88361300000105,
          "velocity": 0.5039370078740157,
          "duration": 0.33042615833332434
        },
        {
          "name": "C#4",
          "midi": 61,
          "time": 179.88361300000105,
          "velocity": 0.5039370078740157,
          "duration": 0.33042615833332434
        },
        {
          "name": "F4",
          "midi": 65,
          "time": 179.88361300000105,
          "velocity": 0.5039370078740157,
          "duration": 0.33042615833332434
        },
        {
          "name": "G#3",
          "midi": 56,
          "time": 180.23245000000105,
          "velocity": 0.5039370078740157,
          "duration": 0.2199611083333366
        },
        {
          "name": "C#4",
          "midi": 61,
          "time": 180.23245000000105,
          "velocity": 0.5039370078740157,
          "duration": 0.2199611083333366
        },
        {
          "name": "D#4",
          "midi": 63,
          "time": 180.23245000000105,
          "velocity": 0.5039370078740157,
          "duration": 0.2199611083333366
        },
        {
          "name": "C3",
          "midi": 48,
          "time": 180.46500800000106,
          "velocity": 0.5039370078740157,
          "duration": 0.4408912083333405
        },
        {
          "name": "G3",
          "midi": 55,
          "time": 180.46500800000106,
          "velocity": 0.5039370078740157,
          "duration": 0.4408912083333405
        },
        {
          "name": "G3",
          "midi": 55,
          "time": 180.93012400000106,
          "velocity": 0.5039370078740157,
          "duration": 0.4408912083333405
        },
        {
          "name": "C4",
          "midi": 60,
          "time": 180.93012400000106,
          "velocity": 0.5039370078740157,
          "duration": 0.4408912083333405
        },
        {
          "name": "F4",
          "midi": 65,
          "time": 180.93012400000106,
          "velocity": 0.5039370078740157,
          "duration": 0.4408912083333405
        },
        {
          "name": "G3",
          "midi": 55,
          "time": 181.39524000000105,
          "velocity": 0.5039370078740157,
          "duration": 0.33042615833332434
        },
        {
          "name": "C4",
          "midi": 60,
          "time": 181.39524000000105,
          "velocity": 0.5039370078740157,
          "duration": 0.33042615833332434
        },
        {
          "name": "E4",
          "midi": 64,
          "time": 181.39524000000105,
          "velocity": 0.5039370078740157,
          "duration": 0.33042615833332434
        },
        {
          "name": "G3",
          "midi": 55,
          "time": 181.74407700000106,
          "velocity": 0.5039370078740157,
          "duration": 0.33042615833332434
        },
        {
          "name": "C4",
          "midi": 60,
          "time": 181.74407700000106,
          "velocity": 0.5039370078740157,
          "duration": 0.33042615833332434
        },
        {
          "name": "F4",
          "midi": 65,
          "time": 181.74407700000106,
          "velocity": 0.5039370078740157,
          "duration": 0.33042615833332434
        },
        {
          "name": "G3",
          "midi": 55,
          "time": 182.09291400000106,
          "velocity": 0.5039370078740157,
          "duration": 0.2199611083333366
        },
        {
          "name": "C4",
          "midi": 60,
          "time": 182.09291400000106,
          "velocity": 0.5039370078740157,
          "duration": 0.2199611083333366
        },
        {
          "name": "E4",
          "midi": 64,
          "time": 182.09291400000106,
          "velocity": 0.5039370078740157,
          "duration": 0.2199611083333366
        },
        {
          "name": "F3",
          "midi": 53,
          "time": 182.32547200000107,
          "velocity": 0.5039370078740157,
          "duration": 0.4408912083333405
        },
        {
          "name": "C4",
          "midi": 60,
          "time": 182.32547200000107,
          "velocity": 0.5039370078740157,
          "duration": 0.4408912083333405
        },
        {
          "name": "G#3",
          "midi": 56,
          "time": 182.79058800000107,
          "velocity": 0.5039370078740157,
          "duration": 0.4408912083333405
        },
        {
          "name": "C4",
          "midi": 60,
          "time": 182.79058800000107,
          "velocity": 0.5039370078740157,
          "duration": 0.4408912083333405
        },
        {
          "name": "F4",
          "midi": 65,
          "time": 182.79058800000107,
          "velocity": 0.5039370078740157,
          "duration": 0.4408912083333405
        },
        {
          "name": "G#3",
          "midi": 56,
          "time": 183.25570400000106,
          "velocity": 0.5039370078740157,
          "duration": 0.33042615833332434
        },
        {
          "name": "C4",
          "midi": 60,
          "time": 183.25570400000106,
          "velocity": 0.5039370078740157,
          "duration": 0.33042615833332434
        },
        {
          "name": "D#4",
          "midi": 63,
          "time": 183.25570400000106,
          "velocity": 0.5039370078740157,
          "duration": 0.33042615833332434
        },
        {
          "name": "G#3",
          "midi": 56,
          "time": 183.60454100000106,
          "velocity": 0.5039370078740157,
          "duration": 0.33042615833332434
        },
        {
          "name": "C4",
          "midi": 60,
          "time": 183.60454100000106,
          "velocity": 0.5039370078740157,
          "duration": 0.33042615833332434
        },
        {
          "name": "F4",
          "midi": 65,
          "time": 183.60454100000106,
          "velocity": 0.5039370078740157,
          "duration": 0.33042615833332434
        },
        {
          "name": "G#3",
          "midi": 56,
          "time": 183.95337800000107,
          "velocity": 0.5039370078740157,
          "duration": 0.2199611083333366
        },
        {
          "name": "C4",
          "midi": 60,
          "time": 183.95337800000107,
          "velocity": 0.5039370078740157,
          "duration": 0.2199611083333366
        },
        {
          "name": "D#4",
          "midi": 63,
          "time": 183.95337800000107,
          "velocity": 0.5039370078740157,
          "duration": 0.2199611083333366
        },
        {
          "name": "D#3",
          "midi": 51,
          "time": 184.18593600000108,
          "velocity": 0.5039370078740157,
          "duration": 0.4408912083333405
        },
        {
          "name": "G#3",
          "midi": 56,
          "time": 184.18593600000108,
          "velocity": 0.5039370078740157,
          "duration": 0.4408912083333405
        },
        {
          "name": "D#3",
          "midi": 51,
          "time": 184.65105200000107,
          "velocity": 0.5039370078740157,
          "duration": 0.4408912083333405
        },
        {
          "name": "G#3",
          "midi": 56,
          "time": 184.65105200000107,
          "velocity": 0.5039370078740157,
          "duration": 0.4408912083333405
        },
        {
          "name": "C4",
          "midi": 60,
          "time": 184.65105200000107,
          "velocity": 0.5039370078740157,
          "duration": 0.4408912083333405
        },
        {
          "name": "D#3",
          "midi": 51,
          "time": 185.11616800000107,
          "velocity": 0.5039370078740157,
          "duration": 0.33042615833332434
        },
        {
          "name": "G#3",
          "midi": 56,
          "time": 185.11616800000107,
          "velocity": 0.5039370078740157,
          "duration": 0.33042615833332434
        },
        {
          "name": "A#3",
          "midi": 58,
          "time": 185.11616800000107,
          "velocity": 0.5039370078740157,
          "duration": 0.33042615833332434
        },
        {
          "name": "D#3",
          "midi": 51,
          "time": 185.46500500000107,
          "velocity": 0.5039370078740157,
          "duration": 0.33042615833332434
        },
        {
          "name": "G#3",
          "midi": 56,
          "time": 185.46500500000107,
          "velocity": 0.5039370078740157,
          "duration": 0.33042615833332434
        },
        {
          "name": "C4",
          "midi": 60,
          "time": 185.46500500000107,
          "velocity": 0.5039370078740157,
          "duration": 0.33042615833332434
        },
        {
          "name": "D#3",
          "midi": 51,
          "time": 185.81384200000107,
          "velocity": 0.5039370078740157,
          "duration": 0.2199611083333366
        },
        {
          "name": "G#3",
          "midi": 56,
          "time": 185.81384200000107,
          "velocity": 0.5039370078740157,
          "duration": 0.2199611083333366
        },
        {
          "name": "A#3",
          "midi": 58,
          "time": 185.81384200000107,
          "velocity": 0.5039370078740157,
          "duration": 0.2199611083333366
        },
        {
          "name": "C#3",
          "midi": 49,
          "time": 186.04640000000109,
          "velocity": 0.5039370078740157,
          "duration": 0.4408912083333405
        },
        {
          "name": "G#3",
          "midi": 56,
          "time": 186.04640000000109,
          "velocity": 0.5039370078740157,
          "duration": 0.4408912083333405
        },
        {
          "name": "G#3",
          "midi": 56,
          "time": 186.51151600000108,
          "velocity": 0.5039370078740157,
          "duration": 0.4408912083333405
        },
        {
          "name": "C#4",
          "midi": 61,
          "time": 186.51151600000108,
          "velocity": 0.5039370078740157,
          "duration": 0.4408912083333405
        },
        {
          "name": "F4",
          "midi": 65,
          "time": 186.51151600000108,
          "velocity": 0.5039370078740157,
          "duration": 0.2325580000000116
        },
        {
          "name": "G#3",
          "midi": 56,
          "time": 186.97663200000108,
          "velocity": 0.5039370078740157,
          "duration": 0.33042615833332434
        },
        {
          "name": "C#4",
          "midi": 61,
          "time": 186.97663200000108,
          "velocity": 0.5039370078740157,
          "duration": 0.33042615833332434
        },
        {
          "name": "D#4",
          "midi": 63,
          "time": 186.97663200000108,
          "velocity": 0.5039370078740157,
          "duration": 0.33042615833332434
        },
        {
          "name": "G#3",
          "midi": 56,
          "time": 187.32546900000108,
          "velocity": 0.5039370078740157,
          "duration": 0.33042615833332434
        },
        {
          "name": "C#4",
          "midi": 61,
          "time": 187.32546900000108,
          "velocity": 0.5039370078740157,
          "duration": 0.33042615833332434
        },
        {
          "name": "F4",
          "midi": 65,
          "time": 187.32546900000108,
          "velocity": 0.5039370078740157,
          "duration": 0.33042615833332434
        },
        {
          "name": "G#3",
          "midi": 56,
          "time": 187.67430600000108,
          "velocity": 0.5039370078740157,
          "duration": 0.2199611083333366
        },
        {
          "name": "C#4",
          "midi": 61,
          "time": 187.67430600000108,
          "velocity": 0.5039370078740157,
          "duration": 0.2199611083333366
        },
        {
          "name": "D#4",
          "midi": 63,
          "time": 187.67430600000108,
          "velocity": 0.5039370078740157,
          "duration": 0.2199611083333366
        },
        {
          "name": "C3",
          "midi": 48,
          "time": 187.9068640000011,
          "velocity": 0.5039370078740157,
          "duration": 0.4408912083333405
        },
        {
          "name": "G3",
          "midi": 55,
          "time": 187.9068640000011,
          "velocity": 0.5039370078740157,
          "duration": 0.4408912083333405
        },
        {
          "name": "G3",
          "midi": 55,
          "time": 188.3719800000011,
          "velocity": 0.5039370078740157,
          "duration": 0.4408912083333405
        },
        {
          "name": "C4",
          "midi": 60,
          "time": 188.3719800000011,
          "velocity": 0.5039370078740157,
          "duration": 0.4408912083333405
        },
        {
          "name": "F4",
          "midi": 65,
          "time": 188.3719800000011,
          "velocity": 0.5039370078740157,
          "duration": 0.4408912083333405
        },
        {
          "name": "G3",
          "midi": 55,
          "time": 188.83709600000108,
          "velocity": 0.5039370078740157,
          "duration": 0.33042615833332434
        },
        {
          "name": "C4",
          "midi": 60,
          "time": 188.83709600000108,
          "velocity": 0.5039370078740157,
          "duration": 0.33042615833332434
        },
        {
          "name": "E4",
          "midi": 64,
          "time": 188.83709600000108,
          "velocity": 0.5039370078740157,
          "duration": 0.33042615833332434
        },
        {
          "name": "G3",
          "midi": 55,
          "time": 189.18593300000109,
          "velocity": 0.5039370078740157,
          "duration": 0.33042615833332434
        },
        {
          "name": "C4",
          "midi": 60,
          "time": 189.18593300000109,
          "velocity": 0.5039370078740157,
          "duration": 0.33042615833332434
        },
        {
          "name": "F4",
          "midi": 65,
          "time": 189.18593300000109,
          "velocity": 0.5039370078740157,
          "duration": 0.33042615833332434
        },
        {
          "name": "G3",
          "midi": 55,
          "time": 189.5347700000011,
          "velocity": 0.5039370078740157,
          "duration": 0.2199611083333366
        },
        {
          "name": "C4",
          "midi": 60,
          "time": 189.5347700000011,
          "velocity": 0.5039370078740157,
          "duration": 0.2199611083333366
        },
        {
          "name": "E4",
          "midi": 64,
          "time": 189.5347700000011,
          "velocity": 0.5039370078740157,
          "duration": 0.2199611083333366
        },
        {
          "name": "F3",
          "midi": 53,
          "time": 189.7673280000011,
          "velocity": 0.5039370078740157,
          "duration": 0.4408912083333405
        },
        {
          "name": "C4",
          "midi": 60,
          "time": 189.7673280000011,
          "velocity": 0.5039370078740157,
          "duration": 0.4408912083333405
        },
        {
          "name": "G#3",
          "midi": 56,
          "time": 190.2324440000011,
          "velocity": 0.5039370078740157,
          "duration": 0.4408912083333405
        },
        {
          "name": "C4",
          "midi": 60,
          "time": 190.2324440000011,
          "velocity": 0.5039370078740157,
          "duration": 0.4408912083333405
        },
        {
          "name": "F4",
          "midi": 65,
          "time": 190.2324440000011,
          "velocity": 0.5039370078740157,
          "duration": 0.2325580000000116
        },
        {
          "name": "G#3",
          "midi": 56,
          "time": 190.6975600000011,
          "velocity": 0.5039370078740157,
          "duration": 0.33042615833332434
        },
        {
          "name": "C4",
          "midi": 60,
          "time": 190.6975600000011,
          "velocity": 0.5039370078740157,
          "duration": 0.33042615833332434
        },
        {
          "name": "D#4",
          "midi": 63,
          "time": 190.6975600000011,
          "velocity": 0.5039370078740157,
          "duration": 0.33042615833332434
        },
        {
          "name": "G#3",
          "midi": 56,
          "time": 191.0463970000011,
          "velocity": 0.5039370078740157,
          "duration": 0.33042615833332434
        },
        {
          "name": "C4",
          "midi": 60,
          "time": 191.0463970000011,
          "velocity": 0.5039370078740157,
          "duration": 0.33042615833332434
        },
        {
          "name": "F4",
          "midi": 65,
          "time": 191.0463970000011,
          "velocity": 0.5039370078740157,
          "duration": 0.33042615833332434
        },
        {
          "name": "G#3",
          "midi": 56,
          "time": 191.3952340000011,
          "velocity": 0.5039370078740157,
          "duration": 0.2199611083333366
        },
        {
          "name": "C4",
          "midi": 60,
          "time": 191.3952340000011,
          "velocity": 0.5039370078740157,
          "duration": 0.2199611083333366
        },
        {
          "name": "D#4",
          "midi": 63,
          "time": 191.3952340000011,
          "velocity": 0.5039370078740157,
          "duration": 0.2199611083333366
        },
        {
          "name": "D#3",
          "midi": 51,
          "time": 191.6277920000011,
          "velocity": 0.5039370078740157,
          "duration": 0.4408912083333405
        },
        {
          "name": "G#3",
          "midi": 56,
          "time": 191.6277920000011,
          "velocity": 0.5039370078740157,
          "duration": 0.4408912083333405
        },
        {
          "name": "D#3",
          "midi": 51,
          "time": 192.0929080000011,
          "velocity": 0.5039370078740157,
          "duration": 0.4408912083333405
        },
        {
          "name": "G#3",
          "midi": 56,
          "time": 192.0929080000011,
          "velocity": 0.5039370078740157,
          "duration": 0.4408912083333405
        },
        {
          "name": "C4",
          "midi": 60,
          "time": 192.0929080000011,
          "velocity": 0.5039370078740157,
          "duration": 0.4408912083333405
        },
        {
          "name": "D#3",
          "midi": 51,
          "time": 192.5580240000011,
          "velocity": 0.5039370078740157,
          "duration": 0.33042615833332434
        },
        {
          "name": "G#3",
          "midi": 56,
          "time": 192.5580240000011,
          "velocity": 0.5039370078740157,
          "duration": 0.33042615833332434
        },
        {
          "name": "A#3",
          "midi": 58,
          "time": 192.5580240000011,
          "velocity": 0.5039370078740157,
          "duration": 0.33042615833332434
        },
        {
          "name": "D#3",
          "midi": 51,
          "time": 192.9068610000011,
          "velocity": 0.5039370078740157,
          "duration": 0.33042615833332434
        },
        {
          "name": "G#3",
          "midi": 56,
          "time": 192.9068610000011,
          "velocity": 0.5039370078740157,
          "duration": 0.33042615833332434
        },
        {
          "name": "C4",
          "midi": 60,
          "time": 192.9068610000011,
          "velocity": 0.5039370078740157,
          "duration": 0.33042615833332434
        },
        {
          "name": "D#3",
          "midi": 51,
          "time": 193.2556980000011,
          "velocity": 0.5039370078740157,
          "duration": 0.2199611083333366
        },
        {
          "name": "G#3",
          "midi": 56,
          "time": 193.2556980000011,
          "velocity": 0.5039370078740157,
          "duration": 0.2199611083333366
        },
        {
          "name": "A#3",
          "midi": 58,
          "time": 193.2556980000011,
          "velocity": 0.5039370078740157,
          "duration": 0.2199611083333366
        },
        {
          "name": "C#3",
          "midi": 49,
          "time": 193.48825600000112,
          "velocity": 0.5039370078740157,
          "duration": 0.4408912083333405
        },
        {
          "name": "G#3",
          "midi": 56,
          "time": 193.48825600000112,
          "velocity": 0.5039370078740157,
          "duration": 0.4408912083333405
        },
        {
          "name": "G#3",
          "midi": 56,
          "time": 193.9533720000011,
          "velocity": 0.5039370078740157,
          "duration": 0.4408912083333405
        },
        {
          "name": "C#4",
          "midi": 61,
          "time": 193.9533720000011,
          "velocity": 0.5039370078740157,
          "duration": 0.4408912083333405
        },
        {
          "name": "F4",
          "midi": 65,
          "time": 193.9533720000011,
          "velocity": 0.5039370078740157,
          "duration": 0.2325580000000116
        },
        {
          "name": "G#3",
          "midi": 56,
          "time": 194.4184880000011,
          "velocity": 0.5039370078740157,
          "duration": 0.33042615833332434
        },
        {
          "name": "C#4",
          "midi": 61,
          "time": 194.4184880000011,
          "velocity": 0.5039370078740157,
          "duration": 0.33042615833332434
        },
        {
          "name": "D#4",
          "midi": 63,
          "time": 194.4184880000011,
          "velocity": 0.5039370078740157,
          "duration": 0.33042615833332434
        },
        {
          "name": "G#3",
          "midi": 56,
          "time": 194.7673250000011,
          "velocity": 0.5039370078740157,
          "duration": 0.33042615833332434
        },
        {
          "name": "C#4",
          "midi": 61,
          "time": 194.7673250000011,
          "velocity": 0.5039370078740157,
          "duration": 0.33042615833332434
        },
        {
          "name": "F4",
          "midi": 65,
          "time": 194.7673250000011,
          "velocity": 0.5039370078740157,
          "duration": 0.33042615833332434
        },
        {
          "name": "G#3",
          "midi": 56,
          "time": 195.1161620000011,
          "velocity": 0.5039370078740157,
          "duration": 0.2199611083333366
        },
        {
          "name": "C#4",
          "midi": 61,
          "time": 195.1161620000011,
          "velocity": 0.5039370078740157,
          "duration": 0.2199611083333366
        },
        {
          "name": "D#4",
          "midi": 63,
          "time": 195.1161620000011,
          "velocity": 0.5039370078740157,
          "duration": 0.2199611083333366
        },
        {
          "name": "C3",
          "midi": 48,
          "time": 195.34872000000112,
          "velocity": 0.5039370078740157,
          "duration": 0.4408912083333405
        },
        {
          "name": "G3",
          "midi": 55,
          "time": 195.34872000000112,
          "velocity": 0.5039370078740157,
          "duration": 0.4408912083333405
        },
        {
          "name": "G3",
          "midi": 55,
          "time": 195.81383600000112,
          "velocity": 0.5039370078740157,
          "duration": 0.4408912083333405
        },
        {
          "name": "C4",
          "midi": 60,
          "time": 195.81383600000112,
          "velocity": 0.5039370078740157,
          "duration": 0.4408912083333405
        },
        {
          "name": "F4",
          "midi": 65,
          "time": 195.81383600000112,
          "velocity": 0.5039370078740157,
          "duration": 0.4408912083333405
        },
        {
          "name": "G3",
          "midi": 55,
          "time": 196.2789520000011,
          "velocity": 0.5039370078740157,
          "duration": 0.33042615833332434
        },
        {
          "name": "C4",
          "midi": 60,
          "time": 196.2789520000011,
          "velocity": 0.5039370078740157,
          "duration": 0.33042615833332434
        },
        {
          "name": "E4",
          "midi": 64,
          "time": 196.2789520000011,
          "velocity": 0.5039370078740157,
          "duration": 0.33042615833332434
        },
        {
          "name": "G3",
          "midi": 55,
          "time": 196.62778900000112,
          "velocity": 0.5039370078740157,
          "duration": 0.33042615833332434
        },
        {
          "name": "C4",
          "midi": 60,
          "time": 196.62778900000112,
          "velocity": 0.5039370078740157,
          "duration": 0.33042615833332434
        },
        {
          "name": "F4",
          "midi": 65,
          "time": 196.62778900000112,
          "velocity": 0.5039370078740157,
          "duration": 0.33042615833332434
        },
        {
          "name": "G3",
          "midi": 55,
          "time": 196.97662600000112,
          "velocity": 0.5039370078740157,
          "duration": 0.2199611083333366
        },
        {
          "name": "C4",
          "midi": 60,
          "time": 196.97662600000112,
          "velocity": 0.5039370078740157,
          "duration": 0.2199611083333366
        },
        {
          "name": "E4",
          "midi": 64,
          "time": 196.97662600000112,
          "velocity": 0.5039370078740157,
          "duration": 0.2199611083333366
        },
        {
          "name": "F3",
          "midi": 53,
          "time": 197.20918400000113,
          "velocity": 0.5039370078740157,
          "duration": 0.4408912083333405
        },
        {
          "name": "C4",
          "midi": 60,
          "time": 197.20918400000113,
          "velocity": 0.5039370078740157,
          "duration": 0.4408912083333405
        },
        {
          "name": "G#3",
          "midi": 56,
          "time": 197.67430000000112,
          "velocity": 0.5039370078740157,
          "duration": 0.4408912083333405
        },
        {
          "name": "C4",
          "midi": 60,
          "time": 197.67430000000112,
          "velocity": 0.5039370078740157,
          "duration": 0.4408912083333405
        },
        {
          "name": "F4",
          "midi": 65,
          "time": 197.67430000000112,
          "velocity": 0.5039370078740157,
          "duration": 0.2325580000000116
        },
        {
          "name": "G#3",
          "midi": 56,
          "time": 198.13941600000112,
          "velocity": 0.5039370078740157,
          "duration": 0.33042615833332434
        },
        {
          "name": "C4",
          "midi": 60,
          "time": 198.13941600000112,
          "velocity": 0.5039370078740157,
          "duration": 0.33042615833332434
        },
        {
          "name": "D#4",
          "midi": 63,
          "time": 198.13941600000112,
          "velocity": 0.5039370078740157,
          "duration": 0.33042615833332434
        },
        {
          "name": "G#3",
          "midi": 56,
          "time": 198.48825300000112,
          "velocity": 0.5039370078740157,
          "duration": 0.33042615833332434
        },
        {
          "name": "C4",
          "midi": 60,
          "time": 198.48825300000112,
          "velocity": 0.5039370078740157,
          "duration": 0.33042615833332434
        },
        {
          "name": "F4",
          "midi": 65,
          "time": 198.48825300000112,
          "velocity": 0.5039370078740157,
          "duration": 0.33042615833332434
        },
        {
          "name": "G#3",
          "midi": 56,
          "time": 198.83709000000113,
          "velocity": 0.5039370078740157,
          "duration": 0.2199611083333366
        },
        {
          "name": "C4",
          "midi": 60,
          "time": 198.83709000000113,
          "velocity": 0.5039370078740157,
          "duration": 0.2199611083333366
        },
        {
          "name": "D#4",
          "midi": 63,
          "time": 198.83709000000113,
          "velocity": 0.5039370078740157,
          "duration": 0.2199611083333366
        },
        {
          "name": "D#3",
          "midi": 51,
          "time": 199.06964800000114,
          "velocity": 0.5039370078740157,
          "duration": 0.4408912083333405
        },
        {
          "name": "G#3",
          "midi": 56,
          "time": 199.06964800000114,
          "velocity": 0.5039370078740157,
          "duration": 0.4408912083333405
        },
        {
          "name": "D#3",
          "midi": 51,
          "time": 199.53476400000113,
          "velocity": 0.5039370078740157,
          "duration": 0.4408912083333405
        },
        {
          "name": "G#3",
          "midi": 56,
          "time": 199.53476400000113,
          "velocity": 0.5039370078740157,
          "duration": 0.4408912083333405
        },
        {
          "name": "C4",
          "midi": 60,
          "time": 199.53476400000113,
          "velocity": 0.5039370078740157,
          "duration": 0.4408912083333405
        },
        {
          "name": "D#3",
          "midi": 51,
          "time": 199.99988000000113,
          "velocity": 0.5039370078740157,
          "duration": 0.33042615833332434
        },
        {
          "name": "G#3",
          "midi": 56,
          "time": 199.99988000000113,
          "velocity": 0.5039370078740157,
          "duration": 0.33042615833332434
        },
        {
          "name": "A#3",
          "midi": 58,
          "time": 199.99988000000113,
          "velocity": 0.5039370078740157,
          "duration": 0.33042615833332434
        },
        {
          "name": "D#3",
          "midi": 51,
          "time": 200.34871700000113,
          "velocity": 0.5039370078740157,
          "duration": 0.33042615833332434
        },
        {
          "name": "G#3",
          "midi": 56,
          "time": 200.34871700000113,
          "velocity": 0.5039370078740157,
          "duration": 0.33042615833332434
        },
        {
          "name": "C4",
          "midi": 60,
          "time": 200.34871700000113,
          "velocity": 0.5039370078740157,
          "duration": 0.33042615833332434
        },
        {
          "name": "D#3",
          "midi": 51,
          "time": 200.69755400000113,
          "velocity": 0.5039370078740157,
          "duration": 0.2199611083333366
        },
        {
          "name": "G#3",
          "midi": 56,
          "time": 200.69755400000113,
          "velocity": 0.5039370078740157,
          "duration": 0.2199611083333366
        },
        {
          "name": "A#3",
          "midi": 58,
          "time": 200.69755400000113,
          "velocity": 0.5039370078740157,
          "duration": 0.2199611083333366
        },
        {
          "name": "G#3",
          "midi": 56,
          "time": 200.93011200000115,
          "velocity": 0.5039370078740157,
          "duration": 0.33042615833332434
        },
        {
          "name": "C#4",
          "midi": 61,
          "time": 200.93011200000115,
          "velocity": 0.5039370078740157,
          "duration": 0.33042615833332434
        },
        {
          "name": "G#3",
          "midi": 56,
          "time": 201.27894900000115,
          "velocity": 0.5039370078740157,
          "duration": 1.3246116083333277
        },
        {
          "name": "C4",
          "midi": 60,
          "time": 201.27894900000115,
          "velocity": 0.5039370078740157,
          "duration": 1.3246116083333277
        }
      ]
    }
  ]
}
