{"header":{"title":"Dance The Night Away","artist":"TWICE","source":"https://musescore.com/user/13242701/scores/5179264","bpm":118.0001337334849,"duration":179.45848305416794},"tracks":[{"instrument_number":0,"notes":[{"name":"F5","midi":77,"time":0,"velocity":0.3858267716535433,"duration":0.24046582916666664},{"name":"G5","midi":79,"time":0.254237,"velocity":0.3858267716535433,"duration":0.24046582916666664},{"name":"A5","midi":81,"time":0.508474,"velocity":0.3858267716535433,"duration":0.2404658291666667},{"name":"F5","midi":77,"time":0.762711,"velocity":0.3858267716535433,"duration":0.1197032541666666},{"name":"G5","midi":79,"time":0.8898294999999999,"velocity":0.3858267716535433,"duration":0.2404658291666667},{"name":"A#5","midi":82,"time":1.1440664999999999,"velocity":0.3858267716535433,"duration":0.2404658291666666},{"name":"D5","midi":74,"time":1.3983034999999997,"velocity":0.3858267716535433,"duration":0.48199097916666656},{"name":"F5","midi":77,"time":2.2881329999999998,"velocity":0.3858267716535433,"duration":0.2404658291666668},{"name":"F5","midi":77,"time":2.54237,"velocity":0.3858267716535433,"duration":0.2404658291666668},{"name":"D5","midi":74,"time":2.7966070000000003,"velocity":0.3858267716535433,"duration":0.11970325416666672},{"name":"E5","midi":76,"time":2.9237255,"velocity":0.3858267716535433,"duration":0.2404658291666668},{"name":"F5","midi":77,"time":3.1779625000000005,"velocity":0.3858267716535433,"duration":0.2404658291666668},{"name":"G5","midi":79,"time":3.4321995000000007,"velocity":0.3858267716535433,"duration":0.2404658291666668},{"name":"E5","midi":76,"time":3.686436500000001,"velocity":0.3858267716535433,"duration":0.11970325416666672},{"name":"F5","midi":77,"time":3.813555000000001,"velocity":0.3858267716535433,"duration":0.24046582916666637},{"name":"F5","midi":77,"time":4.067792000000001,"velocity":0.3858267716535433,"duration":0.24046582916666637},{"name":"G5","midi":79,"time":4.322029000000001,"velocity":0.3858267716535433,"duration":0.24046582916666637},{"name":"A5","midi":81,"time":4.576266,"velocity":0.3858267716535433,"duration":0.24046582916666637},{"name":"F5","midi":77,"time":4.830503,"velocity":0.3858267716535433,"duration":0.11970325416666672},{"name":"G5","midi":79,"time":4.9576215,"velocity":0.3858267716535433,"duration":0.24046582916666637},{"name":"A#5","midi":82,"time":5.2118585,"velocity":0.3858267716535433,"duration":0.24046582916666637},{"name":"D5","midi":74,"time":5.4660955,"velocity":0.3858267716535433,"duration":0.48199097916666656},{"name":"F5","midi":77,"time":6.355925,"velocity":0.3858267716535433,"duration":0.24046582916666637},{"name":"F5","midi":77,"time":6.610162,"velocity":0.3858267716535433,"duration":0.24046582916666637},{"name":"D5","midi":74,"time":6.864399,"velocity":0.3858267716535433,"duration":0.11970325416666672},{"name":"E5","midi":76,"time":6.9915175,"velocity":0.3858267716535433,"duration":0.24046582916666637},{"name":"F5","midi":77,"time":7.245754499999999,"velocity":0.3858267716535433,"duration":0.24046582916666637},{"name":"G5","midi":79,"time":7.499991499999999,"velocity":0.3858267716535433,"duration":0.24046582916666637},{"name":"F5","midi":77,"time":7.754228499999999,"velocity":0.6299212598425197,"duration":0.361228404166666},{"name":"F4","midi":65,"time":8.135583999999998,"velocity":0.5039370078740157,"duration":0.2531776791666669},{"name":"F4","midi":65,"time":8.644057999999998,"velocity":0.5039370078740157,"duration":0.2531776791666669},{"name":"F4","midi":65,"time":9.152531999999997,"velocity":0.5039370078740157,"duration":0.24046582916666637},{"name":"F4","midi":65,"time":9.406768999999997,"velocity":0.5039370078740157,"duration":0.24046582916666637},{"name":"F4","midi":65,"time":9.661005999999997,"velocity":0.5039370078740157,"duration":0.24046582916666637},{"name":"G4","midi":67,"time":9.915242999999997,"velocity":0.5039370078740157,"duration":0.48199097916666744},{"name":"A4","midi":69,"time":10.423716999999998,"velocity":0.5039370078740157,"duration":0.48199097916666744},{"name":"F4","midi":65,"time":12.457612999999998,"velocity":0.5039370078740157,"duration":0.2531776791666669},{"name":"F4","midi":65,"time":12.966086999999998,"velocity":0.5039370078740157,"duration":0.24046582916666637},{"name":"F4","midi":65,"time":13.220323999999998,"velocity":0.5039370078740157,"duration":0.24046582916666637},{"name":"F4","midi":65,"time":13.474560999999998,"velocity":0.5039370078740157,"duration":0.24046582916666637},{"name":"F4","midi":65,"time":13.728797999999998,"velocity":0.5039370078740157,"duration":0.24046582916666637},{"name":"G4","midi":67,"time":13.983034999999997,"velocity":0.5039370078740157,"duration":0.48199097916666744},{"name":"F4","midi":65,"time":14.491508999999999,"velocity":0.5039370078740157,"duration":0.48199097916666744},{"name":"A4","midi":69,"time":16.271168,"velocity":0.5039370078740157,"duration":0.24046582916666637},{"name":"C5","midi":72,"time":16.525405,"velocity":0.5039370078740157,"duration":0.24046582916666637},{"name":"A#4","midi":70,"time":16.779642,"velocity":0.5039370078740157,"duration":0.24046582916666637},{"name":"A4","midi":69,"time":17.033879,"velocity":0.5039370078740157,"duration":0.11970325416666583},{"name":"G4","midi":67,"time":17.160997499999997,"velocity":0.5039370078740157,"duration":0.24046582916666637},{"name":"F4","midi":65,"time":17.415234499999997,"velocity":0.5039370078740157,"duration":0.24046582916666637},{"name":"A4","midi":69,"time":17.669471499999997,"velocity":0.5039370078740157,"duration":0.3612284041666669},{"name":"F4","midi":65,"time":20.338959999999997,"velocity":0.6299212598425197,"duration":0.2531776791666651},{"name":"F4","midi":65,"time":20.847433999999996,"velocity":0.6299212598425197,"duration":0.2531776791666651},{"name":"C4","midi":60,"time":21.355907999999996,"velocity":0.6299212598425197,"duration":0.24046582916666637},{"name":"F4","midi":65,"time":21.610144999999996,"velocity":0.6299212598425197,"duration":0.24046582916666637},{"name":"F4","midi":65,"time":21.864381999999996,"velocity":0.6299212598425197,"duration":0.24046582916666637},{"name":"G4","midi":67,"time":22.118618999999995,"velocity":0.6299212598425197,"duration":0.48199097916666744},{"name":"F4","midi":65,"time":22.627092999999995,"velocity":0.6299212598425197,"duration":0.48199097916666744},{"name":"F4","midi":65,"time":24.406751999999997,"velocity":0.7559055118110236,"duration":0.1684320124999985},{"name":"F4","midi":65,"time":24.57624333333333,"velocity":0.7559055118110236,"duration":0.1684320124999985},{"name":"F4","midi":65,"time":24.745734666666664,"velocity":0.7559055118110236,"duration":0.1684320124999985},{"name":"F4","midi":65,"time":24.915225999999997,"velocity":0.7559055118110236,"duration":0.1684320124999985},{"name":"F4","midi":65,"time":25.08471733333333,"velocity":0.7559055118110236,"duration":0.1684320124999985},{"name":"F4","midi":65,"time":25.254208666666663,"velocity":0.7559055118110236,"duration":0.1684320124999985},{"name":"F4","midi":65,"time":25.423699999999997,"velocity":0.7559055118110236,"duration":0.1684320124999985},{"name":"F4","midi":65,"time":25.59319133333333,"velocity":0.7559055118110236,"duration":0.1684320124999985},{"name":"F4","midi":65,"time":25.762682666666663,"velocity":0.7559055118110236,"duration":0.1684320124999985},{"name":"F4","midi":65,"time":25.932173999999996,"velocity":0.7559055118110236,"duration":1.0158886791666681},{"name":"F4","midi":65,"time":27.203359,"velocity":0.7559055118110236,"duration":1.0158886791666681},{"name":"F4","midi":65,"time":28.474544,"velocity":0.7559055118110236,"duration":0.1684320124999985},{"name":"A4","midi":69,"time":28.474544,"velocity":0.7559055118110236,"duration":0.1684320124999985},{"name":"F4","midi":65,"time":28.644035333333335,"velocity":0.7559055118110236,"duration":0.1684320124999985},{"name":"A4","midi":69,"time":28.644035333333335,"velocity":0.7559055118110236,"duration":0.1684320124999985},{"name":"F4","midi":65,"time":28.813526666666668,"velocity":0.7559055118110236,"duration":0.1684320124999985},{"name":"A4","midi":69,"time":28.813526666666668,"velocity":0.7559055118110236,"duration":0.1684320124999985},{"name":"F4","midi":65,"time":28.983018,"velocity":0.7559055118110236,"duration":0.1684320124999985},{"name":"A4","midi":69,"time":28.983018,"velocity":0.7559055118110236,"duration":0.1684320124999985},{"name":"F4","midi":65,"time":29.152509333333334,"velocity":0.7559055118110236,"duration":0.1684320124999985},{"name":"A4","midi":69,"time":29.152509333333334,"velocity":0.7559055118110236,"duration":0.1684320124999985},{"name":"F4","midi":65,"time":29.322000666666668,"velocity":0.7559055118110236,"duration":0.1684320124999985},{"name":"A4","midi":69,"time":29.322000666666668,"velocity":0.7559055118110236,"duration":0.1684320124999985},{"name":"F4","midi":65,"time":29.491492,"velocity":0.7559055118110236,"duration":0.1684320124999985},{"name":"A4","midi":69,"time":29.491492,"velocity":0.7559055118110236,"duration":0.1684320124999985},{"name":"F4","midi":65,"time":29.660983333333334,"velocity":0.7559055118110236,"duration":0.1684320124999985},{"name":"A4","midi":69,"time":29.660983333333334,"velocity":0.7559055118110236,"duration":0.1684320124999985},{"name":"F4","midi":65,"time":29.830474666666667,"velocity":0.7559055118110236,"duration":0.1684320124999985},{"name":"A4","midi":69,"time":29.830474666666667,"velocity":0.7559055118110236,"duration":0.1684320124999985},{"name":"F4","midi":65,"time":29.999966,"velocity":0.7559055118110236,"duration":1.0158886791666681},{"name":"A4","midi":69,"time":29.999966,"velocity":0.7559055118110236,"duration":1.0158886791666681},{"name":"C4","midi":60,"time":31.271151000000003,"velocity":0.7559055118110236,"duration":1.0158886791666646},{"name":"F4","midi":65,"time":31.271151000000003,"velocity":0.7559055118110236,"duration":1.0158886791666646},{"name":"A4","midi":69,"time":31.271151000000003,"velocity":0.7559055118110236,"duration":1.0158886791666646},{"name":"A4","midi":69,"time":32.542336,"velocity":0.6299212598425197,"duration":0.24046582916666637},{"name":"C5","midi":72,"time":32.796572999999995,"velocity":0.6299212598425197,"duration":0.24046582916666637},{"name":"A#4","midi":70,"time":33.05080999999999,"velocity":0.6299212598425197,"duration":0.24046582916666637},{"name":"A4","midi":69,"time":33.30504699999999,"velocity":0.6299212598425197,"duration":0.11970325416666583},{"name":"G4","midi":67,"time":33.43216549999999,"velocity":0.6299212598425197,"duration":0.24046582916666637},{"name":"F4","midi":65,"time":33.686402499999986,"velocity":0.6299212598425197,"duration":0.24046582916666637},{"name":"A4","midi":69,"time":33.94063949999998,"velocity":0.6299212598425197,"duration":0.3612284041666669},{"name":"F4","midi":65,"time":37.372838999999985,"velocity":0.6299212598425197,"duration":0.11970325416666583},{"name":"G4","midi":67,"time":37.49995749999999,"velocity":0.6299212598425197,"duration":0.11970325416666583},{"name":"A4","midi":69,"time":37.62707599999999,"velocity":0.6299212598425197,"duration":0.24046582916666637},{"name":"F4","midi":65,"time":37.881312999999984,"velocity":0.6299212598425197,"duration":0.11970325416666583},{"name":"G4","midi":67,"time":38.008431499999986,"velocity":0.6299212598425197,"duration":0.11970325416666583},{"name":"A4","midi":69,"time":38.13554999999999,"velocity":0.6299212598425197,"duration":0.24046582916666637},{"name":"F4","midi":65,"time":38.389786999999984,"velocity":0.6299212598425197,"duration":0.24046582916666637},{"name":"G4","midi":67,"time":38.64402399999998,"velocity":0.6299212598425197,"duration":0.9650412791666696},{"name":"F5","midi":77,"time":40.677919999999986,"velocity":0.5039370078740157,"duration":0.24046582916666637},{"name":"G5","midi":79,"time":40.93215699999998,"velocity":0.5039370078740157,"duration":0.24046582916666637},{"name":"A5","midi":81,"time":41.18639399999998,"velocity":0.5118110236220472,"duration":0.24046582916666637},{"name":"F5","midi":77,"time":41.440630999999975,"velocity":0.5118110236220472,"duration":0.11970325416666583},{"name":"G5","midi":79,"time":41.56774949999998,"velocity":0.5118110236220472,"duration":0.24046582916666637},{"name":"A#5","midi":82,"time":41.82198649999997,"velocity":0.5196850393700787,"duration":0.24046582916666637},{"name":"D5","midi":74,"time":42.07622349999997,"velocity":0.5196850393700787,"duration":0.5836857791666645},{"name":"F5","midi":77,"time":42.96605299999997,"velocity":0.5354330708661418,"duration":0.24046582916666637},{"name":"F5","midi":77,"time":43.22028999999996,"velocity":0.5433070866141733,"duration":0.24046582916666637},{"name":"D5","midi":74,"time":43.47452699999996,"velocity":0.5433070866141733,"duration":0.11970325416666583},{"name":"E5","midi":76,"time":43.60164549999996,"velocity":0.5433070866141733,"duration":0.24046582916666637},{"name":"F5","midi":77,"time":43.85588249999996,"velocity":0.5511811023622047,"duration":0.24046582916666637},{"name":"G5","midi":79,"time":44.11011949999995,"velocity":0.5511811023622047,"duration":0.3612284041666669},{"name":"E5","midi":76,"time":44.49147499999995,"velocity":0.5590551181102362,"duration":0.24046582916666637},{"name":"F5","midi":77,"time":44.74571199999995,"velocity":0.5669291338582677,"duration":0.24046582916666637},{"name":"G5","midi":79,"time":44.999948999999944,"velocity":0.5669291338582677,"duration":0.24046582916666637},{"name":"A5","midi":81,"time":45.25418599999994,"velocity":0.5748031496062992,"duration":0.24046582916666637},{"name":"F5","midi":77,"time":45.50842299999994,"velocity":0.5748031496062992,"duration":0.11970325416666583},{"name":"G5","midi":79,"time":45.63554149999994,"velocity":0.5748031496062992,"duration":0.24046582916666637},{"name":"A#5","midi":82,"time":45.889778499999935,"velocity":0.5826771653543307,"duration":0.24046582916666637},{"name":"D5","midi":74,"time":46.14401549999993,"velocity":0.5826771653543307,"duration":0.5836857791666645},{"name":"F5","midi":77,"time":47.03384499999993,"velocity":0.5984251968503937,"duration":0.24046582916666637},{"name":"F5","midi":77,"time":47.288081999999925,"velocity":0.6062992125984252,"duration":0.24046582916666637},{"name":"D5","midi":74,"time":47.54231899999992,"velocity":0.6062992125984252,"duration":0.11970325416666583},{"name":"E5","midi":76,"time":47.66943749999992,"velocity":0.6062992125984252,"duration":0.24046582916666637},{"name":"F5","midi":77,"time":47.92367449999992,"velocity":0.6141732283464567,"duration":0.24046582916666637},{"name":"G5","midi":79,"time":48.177911499999915,"velocity":0.6141732283464567,"duration":0.24046582916666637},{"name":"E5","midi":76,"time":48.43214849999991,"velocity":0.6220472440944882,"duration":0.11970325416666583},{"name":"F5","midi":77,"time":48.55926699999991,"velocity":0.6220472440944882,"duration":0.24046582916666637},{"name":"C6","midi":84,"time":48.81350399999991,"velocity":0.6299212598425197,"duration":0.3612284041666669},{"name":"C6","midi":84,"time":49.19485949999991,"velocity":0.6299212598425197,"duration":0.3612284041666669},{"name":"C6","midi":84,"time":49.576214999999905,"velocity":0.6377952755905512,"duration":0.48199097916666744},{"name":"A5","midi":81,"time":50.084688999999905,"velocity":0.6456692913385826,"duration":0.24046582916666637},{"name":"G5","midi":79,"time":50.3389259999999,"velocity":0.6535433070866141,"duration":0.48199097916666744},{"name":"C6","midi":84,"time":50.8473999999999,"velocity":0.6614173228346457,"duration":0.3612284041666669},{"name":"C6","midi":84,"time":51.2287554999999,"velocity":0.6614173228346457,"duration":0.3612284041666669},{"name":"C6","midi":84,"time":51.6101109999999,"velocity":0.6692913385826772,"duration":0.48199097916666744},{"name":"A5","midi":81,"time":52.1185849999999,"velocity":0.6771653543307087,"duration":0.24046582916666637},{"name":"G5","midi":79,"time":52.37282199999989,"velocity":0.6850393700787402,"duration":0.48199097916666744},{"name":"F5","midi":77,"time":52.88129599999989,"velocity":0.6929133858267716,"duration":0.24046582916666637},{"name":"G5","midi":79,"time":53.13553299999989,"velocity":0.6929133858267716,"duration":0.24046582916666637},{"name":"A5","midi":81,"time":53.389769999999885,"velocity":0.7007874015748031,"duration":0.24046582916666637},{"name":"F5","midi":77,"time":53.64400699999988,"velocity":0.7007874015748031,"duration":0.11970325416666583},{"name":"G5","midi":79,"time":53.77112549999988,"velocity":0.7007874015748031,"duration":0.24046582916666637},{"name":"A#5","midi":82,"time":54.02536249999988,"velocity":0.7086614173228346,"duration":0.24046582916666637},{"name":"D5","midi":74,"time":54.279599499999875,"velocity":0.7086614173228346,"duration":0.24046582916666637},{"name":"D5","midi":74,"time":54.53383649999987,"velocity":0.7165354330708661,"duration":0.11970325416666583},{"name":"F5","midi":77,"time":54.66095499999987,"velocity":0.7165354330708661,"duration":0.7235161291666685},{"name":"F5","midi":77,"time":55.67790299999987,"velocity":0.7322834645669292,"duration":0.24046582916666637},{"name":"E5","midi":76,"time":55.93213999999987,"velocity":0.7401574803149606,"duration":0.24046582916666637},{"name":"F5","midi":77,"time":56.186376999999865,"velocity":0.7401574803149606,"duration":0.11970325416666583},{"name":"G5","midi":79,"time":56.31349549999987,"velocity":0.7401574803149606,"duration":0.24046582916666637},{"name":"E5","midi":76,"time":56.56773249999986,"velocity":0.7480314960629921,"duration":0.24046582916666637},{"name":"F4","midi":65,"time":56.94908799999986,"velocity":0.7559055118110236,"duration":0.24046582916666637},{"name":"G4","midi":67,"time":57.20332499999986,"velocity":0.7559055118110236,"duration":0.24046582916666637},{"name":"A4","midi":69,"time":57.457561999999854,"velocity":0.7559055118110236,"duration":0.24046582916666637},{"name":"F4","midi":65,"time":57.71179899999985,"velocity":0.7559055118110236,"duration":0.11970325416666583},{"name":"G4","midi":67,"time":57.83891749999985,"velocity":0.7559055118110236,"duration":0.24046582916666637},{"name":"A#4","midi":70,"time":58.09315449999985,"velocity":0.7559055118110236,"duration":0.24046582916666637},{"name":"D4","midi":62,"time":58.347391499999844,"velocity":0.7559055118110236,"duration":0.48199097916666744},{"name":"F4","midi":65,"time":59.23722099999984,"velocity":0.7559055118110236,"duration":0.24046582916666637},{"name":"F4","midi":65,"time":59.49145799999984,"velocity":0.7559055118110236,"duration":0.24046582916666637},{"name":"D4","midi":62,"time":59.745694999999834,"velocity":0.7559055118110236,"duration":0.11970325416666583},{"name":"A#4","midi":70,"time":59.872813499999836,"velocity":0.905511811023622,"duration":0.25317767916666867},{"name":"A4","midi":69,"time":60.12705049999984,"velocity":0.905511811023622,"duration":0.25317767916666867},{"name":"G4","midi":67,"time":60.38128749999984,"velocity":0.905511811023622,"duration":0.25317767916666867},{"name":"E4","midi":64,"time":60.635524499999846,"velocity":0.905511811023622,"duration":0.12605917916666698},{"name":"F4","midi":65,"time":60.76264299999985,"velocity":0.905511811023622,"duration":0.49470282916666974},{"name":"G4","midi":67,"time":61.27111699999985,"velocity":0.7559055118110236,"duration":0.24046582916666637},{"name":"A4","midi":69,"time":61.525353999999844,"velocity":0.7559055118110236,"duration":0.24046582916666637},{"name":"F4","midi":65,"time":61.77959099999984,"velocity":0.7559055118110236,"duration":0.11970325416666583},{"name":"G4","midi":67,"time":61.90670949999984,"velocity":0.7559055118110236,"duration":0.24046582916666637},{"name":"A#4","midi":70,"time":62.16094649999984,"velocity":0.7559055118110236,"duration":0.24046582916666637},{"name":"D4","midi":62,"time":62.415183499999834,"velocity":0.7559055118110236,"duration":0.48199097916666744},{"name":"F4","midi":65,"time":63.30501299999983,"velocity":0.7559055118110236,"duration":0.24046582916666637},{"name":"F4","midi":65,"time":63.55924999999983,"velocity":0.7559055118110236,"duration":0.24046582916666637},{"name":"D4","midi":62,"time":63.813486999999824,"velocity":0.7559055118110236,"duration":0.11970325416666583},{"name":"E5","midi":76,"time":63.940605499999826,"velocity":0.7559055118110236,"duration":0.24046582916667347},{"name":"F5","midi":77,"time":64.19484249999984,"velocity":0.7559055118110236,"duration":0.24046582916666637},{"name":"G5","midi":79,"time":64.44907949999984,"velocity":0.7559055118110236,"duration":0.24046582916666637},{"name":"E5","midi":76,"time":64.70331649999984,"velocity":0.7559055118110236,"duration":0.11970325416666583},{"name":"F5","midi":77,"time":64.83043499999984,"velocity":0.7559055118110236,"duration":0.24046582916666637},{"name":"C6","midi":84,"time":65.08467199999984,"velocity":0.905511811023622,"duration":0.38029617916666325},{"name":"C6","midi":84,"time":65.46602749999984,"velocity":0.905511811023622,"duration":0.38029617916666325},{"name":"C6","midi":84,"time":65.84738299999984,"velocity":0.905511811023622,"duration":0.507414679166672},{"name":"A5","midi":81,"time":66.35585699999984,"velocity":0.7559055118110236,"duration":0.24046582916666637},{"name":"G5","midi":79,"time":66.61009399999985,"velocity":0.7559055118110236,"duration":0.48199097916666744},{"name":"C6","midi":84,"time":67.11856799999985,"velocity":0.905511811023622,"duration":0.38029617916666325},{"name":"C6","midi":84,"time":67.49992349999985,"velocity":0.905511811023622,"duration":0.38029617916666325},{"name":"D6","midi":86,"time":67.88127899999985,"velocity":0.905511811023622,"duration":0.507414679166672},{"name":"A5","midi":81,"time":68.38975299999986,"velocity":0.7559055118110236,"duration":0.24046582916666637},{"name":"G5","midi":79,"time":68.64398999999986,"velocity":0.7559055118110236,"duration":0.48199097916666744},{"name":"F4","midi":65,"time":69.15246399999987,"velocity":0.7559055118110236,"duration":0.24046582916666637},{"name":"G4","midi":67,"time":69.40670099999987,"velocity":0.7559055118110236,"duration":0.24046582916666637},{"name":"A4","midi":69,"time":69.66093799999987,"velocity":0.7559055118110236,"duration":0.24046582916666637},{"name":"F4","midi":65,"time":69.91517499999988,"velocity":0.7559055118110236,"duration":0.11970325416666583},{"name":"A#4","midi":70,"time":70.04229349999987,"velocity":0.7559055118110236,"duration":0.24046582916666637},{"name":"A4","midi":69,"time":70.29653049999988,"velocity":0.7559055118110236,"duration":0.24046582916666637},{"name":"G4","midi":67,"time":70.55076749999988,"velocity":0.7559055118110236,"duration":0.48199097916666744},{"name":"F5","midi":77,"time":71.94907099999988,"velocity":0.7559055118110236,"duration":0.24046582916666637},{"name":"A#5","midi":82,"time":72.20330799999988,"velocity":0.7559055118110236,"duration":0.24046582916666637},{"name":"A5","midi":81,"time":72.45754499999988,"velocity":0.7559055118110236,"duration":0.11970325416666583},{"name":"G5","midi":79,"time":72.58466349999988,"velocity":0.7559055118110236,"duration":0.24046582916666637},{"name":"F5","midi":77,"time":72.83890049999988,"velocity":0.7559055118110236,"duration":0.3612284041666669},{"name":"C5","midi":72,"time":73.22025599999988,"velocity":0.7559055118110236,"duration":0.48199097916666744},{"name":"C6","midi":84,"time":73.22025599999988,"velocity":0.7559055118110236,"duration":0.48199097916666744},{"name":"C5","midi":72,"time":73.72872999999989,"velocity":0.7559055118110236,"duration":0.48199097916666744},{"name":"C6","midi":84,"time":73.72872999999989,"velocity":0.7559055118110236,"duration":0.48199097916666744},{"name":"C5","midi":72,"time":74.23720399999989,"velocity":0.7559055118110236,"duration":0.24046582916666637},{"name":"C6","midi":84,"time":74.23720399999989,"velocity":0.7559055118110236,"duration":0.24046582916666637},{"name":"F4","midi":65,"time":74.4914409999999,"velocity":0.7559055118110236,"duration":0.11970325416666583},{"name":"C5","midi":72,"time":74.61855949999989,"velocity":0.7559055118110236,"duration":0.3612284041666669},{"name":"C6","midi":84,"time":74.61855949999989,"velocity":0.7559055118110236,"duration":0.3612284041666669},{"name":"F4","midi":65,"time":74.99991499999989,"velocity":0.7559055118110236,"duration":0.24046582916666637},{"name":"C5","midi":72,"time":75.25415199999989,"velocity":0.7559055118110236,"duration":0.24046582916666637},{"name":"C6","midi":84,"time":75.25415199999989,"velocity":0.7559055118110236,"duration":0.24046582916666637},{"name":"C5","midi":72,"time":75.5083889999999,"velocity":0.7559055118110236,"duration":0.24046582916666637},{"name":"C6","midi":84,"time":75.5083889999999,"velocity":0.7559055118110236,"duration":0.24046582916666637},{"name":"C5","midi":72,"time":75.7626259999999,"velocity":0.7559055118110236,"duration":0.24046582916666637},{"name":"C6","midi":84,"time":75.7626259999999,"velocity":0.7559055118110236,"duration":0.24046582916666637},{"name":"F4","midi":65,"time":76.0168629999999,"velocity":0.7559055118110236,"duration":0.11970325416666583},{"name":"C5","midi":72,"time":76.1439814999999,"velocity":0.7559055118110236,"duration":0.9650412791666696},{"name":"C6","midi":84,"time":76.1439814999999,"velocity":0.7559055118110236,"duration":0.9650412791666696},{"name":"C5","midi":72,"time":77.2880479999999,"velocity":0.7559055118110236,"duration":0.48199097916666744},{"name":"C6","midi":84,"time":77.2880479999999,"velocity":0.7559055118110236,"duration":0.48199097916666744},{"name":"C5","midi":72,"time":77.79652199999991,"velocity":0.7559055118110236,"duration":0.48199097916666744},{"name":"C6","midi":84,"time":77.79652199999991,"velocity":0.7559055118110236,"duration":0.48199097916666744},{"name":"C5","midi":72,"time":78.30499599999992,"velocity":0.7559055118110236,"duration":0.24046582916666637},{"name":"C6","midi":84,"time":78.30499599999992,"velocity":0.7559055118110236,"duration":0.24046582916666637},{"name":"F4","midi":65,"time":78.55923299999992,"velocity":0.7559055118110236,"duration":0.11970325416666583},{"name":"C5","midi":72,"time":78.68635149999992,"velocity":0.7559055118110236,"duration":0.3612284041666669},{"name":"C6","midi":84,"time":78.68635149999992,"velocity":0.7559055118110236,"duration":0.3612284041666669},{"name":"F4","midi":65,"time":79.06770699999991,"velocity":0.7559055118110236,"duration":0.24046582916666637},{"name":"C5","midi":72,"time":79.32194399999992,"velocity":0.7559055118110236,"duration":0.24046582916666637},{"name":"C6","midi":84,"time":79.32194399999992,"velocity":0.7559055118110236,"duration":0.24046582916666637},{"name":"C5","midi":72,"time":79.57618099999992,"velocity":0.7559055118110236,"duration":0.24046582916666637},{"name":"C6","midi":84,"time":79.57618099999992,"velocity":0.7559055118110236,"duration":0.24046582916666637},{"name":"C5","midi":72,"time":79.83041799999992,"velocity":0.7559055118110236,"duration":0.24046582916666637},{"name":"C6","midi":84,"time":79.83041799999992,"velocity":0.7559055118110236,"duration":0.24046582916666637},{"name":"F4","midi":65,"time":80.08465499999993,"velocity":0.7559055118110236,"duration":0.11970325416666583},{"name":"C5","midi":72,"time":80.21177349999992,"velocity":0.7559055118110236,"duration":0.9650412791666696},{"name":"C6","midi":84,"time":80.21177349999992,"velocity":0.7559055118110236,"duration":0.9650412791666696},{"name":"F4","midi":65,"time":81.35583999999993,"velocity":0.6299212598425197,"duration":0.25317767916666867},{"name":"F4","midi":65,"time":81.86431399999994,"velocity":0.6299212598425197,"duration":0.25317767916666867},{"name":"F4","midi":65,"time":82.37278799999994,"velocity":0.6299212598425197,"duration":0.24046582916666637},{"name":"F4","midi":65,"time":82.62702499999995,"velocity":0.6299212598425197,"duration":0.24046582916666637},{"name":"F4","midi":65,"time":82.88126199999995,"velocity":0.6299212598425197,"duration":0.24046582916666637},{"name":"G4","midi":67,"time":83.13549899999995,"velocity":0.6299212598425197,"duration":0.48199097916666744},{"name":"A4","midi":69,"time":83.64397299999996,"velocity":0.6299212598425197,"duration":0.48199097916666744},{"name":"F4","midi":65,"time":85.67786899999996,"velocity":0.6299212598425197,"duration":0.25317767916666867},{"name":"F4","midi":65,"time":86.18634299999997,"velocity":0.6299212598425197,"duration":0.24046582916666637},{"name":"F4","midi":65,"time":86.44057999999997,"velocity":0.6299212598425197,"duration":0.24046582916666637},{"name":"F4","midi":65,"time":86.69481699999997,"velocity":0.6299212598425197,"duration":0.24046582916666637},{"name":"F4","midi":65,"time":86.94905399999998,"velocity":0.6299212598425197,"duration":0.24046582916666637},{"name":"G4","midi":67,"time":87.20329099999998,"velocity":0.6299212598425197,"duration":0.48199097916666744},{"name":"F4","midi":65,"time":87.71176499999999,"velocity":0.6299212598425197,"duration":0.48199097916666744},{"name":"A4","midi":69,"time":89.49142399999998,"velocity":0.6299212598425197,"duration":0.24046582916666637},{"name":"C5","midi":72,"time":89.74566099999998,"velocity":0.6299212598425197,"duration":0.24046582916666637},{"name":"A#4","midi":70,"time":89.99989799999999,"velocity":0.6299212598425197,"duration":0.24046582916666637},{"name":"A4","midi":69,"time":90.25413499999999,"velocity":0.6299212598425197,"duration":0.11970325416666583},{"name":"G4","midi":67,"time":90.38125349999999,"velocity":0.6299212598425197,"duration":0.24046582916666637},{"name":"F4","midi":65,"time":90.63549049999999,"velocity":0.6299212598425197,"duration":0.24046582916666637},{"name":"A4","midi":69,"time":90.88972749999999,"velocity":0.6299212598425197,"duration":0.3612284041666669},{"name":"F4","midi":65,"time":94.32192699999999,"velocity":0.6299212598425197,"duration":0.11970325416666583},{"name":"G4","midi":67,"time":94.44904549999998,"velocity":0.6299212598425197,"duration":0.11970325416666583},{"name":"A4","midi":69,"time":94.57616399999998,"velocity":0.6299212598425197,"duration":0.24046582916666637},{"name":"F4","midi":65,"time":94.83040099999998,"velocity":0.6299212598425197,"duration":0.11970325416666583},{"name":"G4","midi":67,"time":94.95751949999998,"velocity":0.6299212598425197,"duration":0.11970325416666583},{"name":"A4","midi":69,"time":95.08463799999997,"velocity":0.6299212598425197,"duration":0.24046582916666637},{"name":"F4","midi":65,"time":95.33887499999997,"velocity":0.6299212598425197,"duration":0.24046582916666637},{"name":"G4","midi":67,"time":95.59311199999998,"velocity":0.6299212598425197,"duration":0.9650412791666696},{"name":"F5","midi":77,"time":97.62700799999998,"velocity":0.5039370078740157,"duration":0.24046582916666637},{"name":"G5","midi":79,"time":97.88124499999998,"velocity":0.5039370078740157,"duration":0.24046582916666637},{"name":"A5","midi":81,"time":98.13548199999998,"velocity":0.5039370078740157,"duration":0.24046582916666637},{"name":"F5","midi":77,"time":98.38971899999999,"velocity":0.5039370078740157,"duration":0.11970325416666583},{"name":"G5","midi":79,"time":98.51683749999998,"velocity":0.5039370078740157,"duration":0.24046582916666637},{"name":"A#5","midi":82,"time":98.77107449999998,"velocity":0.5039370078740157,"duration":0.24046582916666637},{"name":"D5","midi":74,"time":99.02531149999999,"velocity":0.5039370078740157,"duration":0.48199097916666744},{"name":"F5","midi":77,"time":99.91514099999999,"velocity":0.5039370078740157,"duration":0.24046582916666637},{"name":"F5","midi":77,"time":100.169378,"velocity":0.5039370078740157,"duration":0.24046582916666637},{"name":"D5","midi":74,"time":100.423615,"velocity":0.5039370078740157,"duration":0.11970325416666583},{"name":"E5","midi":76,"time":100.55073349999999,"velocity":0.5039370078740157,"duration":0.24046582916666637},{"name":"F5","midi":77,"time":100.8049705,"velocity":0.5039370078740157,"duration":0.24046582916666637},{"name":"G5","midi":79,"time":101.0592075,"velocity":0.5039370078740157,"duration":0.3612284041666669},{"name":"E5","midi":76,"time":101.440563,"velocity":0.5039370078740157,"duration":0.24046582916666637},{"name":"F5","midi":77,"time":101.6948,"velocity":0.5039370078740157,"duration":0.24046582916666637},{"name":"G5","midi":79,"time":101.949037,"velocity":0.5039370078740157,"duration":0.24046582916666637},{"name":"A5","midi":81,"time":102.20327400000001,"velocity":0.5039370078740157,"duration":0.24046582916666637},{"name":"F5","midi":77,"time":102.45751100000001,"velocity":0.5039370078740157,"duration":0.11970325416666583},{"name":"G5","midi":79,"time":102.5846295,"velocity":0.5039370078740157,"duration":0.24046582916666637},{"name":"A#5","midi":82,"time":102.83886650000001,"velocity":0.5039370078740157,"duration":0.24046582916666637},{"name":"D5","midi":74,"time":103.09310350000001,"velocity":0.5039370078740157,"duration":0.48199097916666744},{"name":"F5","midi":77,"time":103.98293300000002,"velocity":0.5039370078740157,"duration":0.24046582916666637},{"name":"F5","midi":77,"time":104.23717000000002,"velocity":0.5039370078740157,"duration":0.24046582916666637},{"name":"D5","midi":74,"time":104.49140700000002,"velocity":0.5039370078740157,"duration":0.11970325416666583},{"name":"E5","midi":76,"time":104.61852550000002,"velocity":0.5039370078740157,"duration":0.24046582916666637},{"name":"F5","midi":77,"time":104.87276250000002,"velocity":0.5039370078740157,"duration":0.24046582916666637},{"name":"G5","midi":79,"time":105.12699950000003,"velocity":0.5039370078740157,"duration":0.24046582916666637},{"name":"E5","midi":76,"time":105.38123650000003,"velocity":0.5039370078740157,"duration":0.11970325416666583},{"name":"F5","midi":77,"time":105.50835500000002,"velocity":0.5039370078740157,"duration":0.24046582916666637},{"name":"F5","midi":77,"time":105.76259200000003,"velocity":0.5039370078740157,"duration":0.3612284041666669},{"name":"C6","midi":84,"time":105.76259200000003,"velocity":0.5039370078740157,"duration":0.3612284041666669},{"name":"F5","midi":77,"time":106.14394750000002,"velocity":0.5039370078740157,"duration":0.3612284041666669},{"name":"C6","midi":84,"time":106.14394750000002,"velocity":0.5039370078740157,"duration":0.3612284041666669},{"name":"F5","midi":77,"time":106.52530300000002,"velocity":0.5039370078740157,"duration":0.48199097916666744},{"name":"C6","midi":84,"time":106.52530300000002,"velocity":0.5039370078740157,"duration":0.48199097916666744},{"name":"A5","midi":81,"time":107.03377700000003,"velocity":0.5039370078740157,"duration":0.24046582916666637},{"name":"G5","midi":79,"time":107.28801400000003,"velocity":0.5039370078740157,"duration":0.48199097916666744},{"name":"F5","midi":77,"time":107.79648800000004,"velocity":0.5039370078740157,"duration":0.3612284041666669},{"name":"C6","midi":84,"time":107.79648800000004,"velocity":0.5039370078740157,"duration":0.3612284041666669},{"name":"F5","midi":77,"time":108.17784350000004,"velocity":0.5039370078740157,"duration":0.3612284041666669},{"name":"C6","midi":84,"time":108.17784350000004,"velocity":0.5039370078740157,"duration":0.3612284041666669},{"name":"F5","midi":77,"time":108.55919900000004,"velocity":0.5039370078740157,"duration":0.48199097916666744},{"name":"C6","midi":84,"time":108.55919900000004,"velocity":0.5039370078740157,"duration":0.48199097916666744},{"name":"A5","midi":81,"time":109.06767300000004,"velocity":0.5039370078740157,"duration":0.24046582916666637},{"name":"G5","midi":79,"time":109.32191000000005,"velocity":0.5039370078740157,"duration":0.48199097916666744},{"name":"F5","midi":77,"time":109.83038400000005,"velocity":0.5039370078740157,"duration":0.24046582916666637},{"name":"G5","midi":79,"time":110.08462100000006,"velocity":0.5039370078740157,"duration":0.24046582916666637},{"name":"A5","midi":81,"time":110.33885800000006,"velocity":0.5039370078740157,"duration":0.24046582916666637},{"name":"F5","midi":77,"time":110.59309500000006,"velocity":0.5039370078740157,"duration":0.11970325416666583},{"name":"G5","midi":79,"time":110.72021350000006,"velocity":0.5039370078740157,"duration":0.24046582916666637},{"name":"A#5","midi":82,"time":110.97445050000006,"velocity":0.5039370078740157,"duration":0.24046582916666637},{"name":"D5","midi":74,"time":111.22868750000006,"velocity":0.5039370078740157,"duration":0.24046582916666637},{"name":"D5","midi":74,"time":111.48292450000007,"velocity":0.5039370078740157,"duration":0.11970325416666583},{"name":"F5","midi":77,"time":111.61004300000006,"velocity":0.5039370078740157,"duration":0.7235161291666685},{"name":"F5","midi":77,"time":112.62699100000006,"velocity":0.5039370078740157,"duration":0.24046582916666637},{"name":"A#5","midi":82,"time":112.88122800000006,"velocity":0.5039370078740157,"duration":0.24046582916666637},{"name":"A5","midi":81,"time":113.13546500000007,"velocity":0.5039370078740157,"duration":0.11970325416666583},{"name":"G5","midi":79,"time":113.26258350000006,"velocity":0.5039370078740157,"duration":0.24046582916666637},{"name":"E5","midi":76,"time":113.51682050000007,"velocity":0.5039370078740157,"duration":0.24046582916666637},{"name":"F4","midi":65,"time":113.89817600000006,"velocity":0.7559055118110236,"duration":0.24046582916666637},{"name":"G4","midi":67,"time":114.15241300000007,"velocity":0.7559055118110236,"duration":0.24046582916666637},{"name":"A4","midi":69,"time":114.40665000000007,"velocity":0.7559055118110236,"duration":0.24046582916666637},{"name":"F4","midi":65,"time":114.66088700000007,"velocity":0.7559055118110236,"duration":0.11970325416666583},{"name":"G4","midi":67,"time":114.78800550000007,"velocity":0.7559055118110236,"duration":0.24046582916666637},{"name":"A#4","midi":70,"time":115.04224250000007,"velocity":0.7559055118110236,"duration":0.24046582916666637},{"name":"D4","midi":62,"time":115.29647950000007,"velocity":0.7559055118110236,"duration":0.48199097916666744},{"name":"F4","midi":65,"time":116.18630900000008,"velocity":0.7559055118110236,"duration":0.24046582916666637},{"name":"F4","midi":65,"time":116.44054600000008,"velocity":0.7559055118110236,"duration":0.24046582916666637},{"name":"D4","midi":62,"time":116.69478300000009,"velocity":0.7559055118110236,"duration":0.11970325416666583},{"name":"A#4","midi":70,"time":116.82190150000008,"velocity":0.905511811023622,"duration":0.25317767916666867},{"name":"C5","midi":72,"time":116.82190150000008,"velocity":0.905511811023622,"duration":0.25317767916666867},{"name":"A4","midi":69,"time":117.07613850000008,"velocity":0.905511811023622,"duration":0.25317767916666867},{"name":"C5","midi":72,"time":117.07613850000008,"velocity":0.905511811023622,"duration":0.25317767916666867},{"name":"G4","midi":67,"time":117.33037550000009,"velocity":0.905511811023622,"duration":0.25317767916666867},{"name":"C5","midi":72,"time":117.33037550000009,"velocity":0.905511811023622,"duration":0.25317767916666867},{"name":"E4","midi":64,"time":117.58461250000009,"velocity":0.905511811023622,"duration":0.12605917916665987},{"name":"F4","midi":65,"time":117.71173100000009,"velocity":0.905511811023622,"duration":0.49470282916666974},{"name":"C5","midi":72,"time":117.71173100000009,"velocity":0.905511811023622,"duration":0.25317767916666867},{"name":"G4","midi":67,"time":118.22020500000009,"velocity":0.7559055118110236,"duration":0.24046582916666637},{"name":"A4","midi":69,"time":118.4744420000001,"velocity":0.7559055118110236,"duration":0.24046582916666637},{"name":"F4","midi":65,"time":118.7286790000001,"velocity":0.7559055118110236,"duration":0.11970325416666583},{"name":"G4","midi":67,"time":118.8557975000001,"velocity":0.7559055118110236,"duration":0.24046582916666637},{"name":"A#4","midi":70,"time":119.1100345000001,"velocity":0.7559055118110236,"duration":0.24046582916666637},{"name":"D4","midi":62,"time":119.3642715000001,"velocity":0.7559055118110236,"duration":0.48199097916666744},{"name":"F4","midi":65,"time":120.2541010000001,"velocity":0.7559055118110236,"duration":0.24046582916666637},{"name":"F4","midi":65,"time":120.50833800000011,"velocity":0.7559055118110236,"duration":0.24046582916666637},{"name":"D4","midi":62,"time":120.76257500000011,"velocity":0.7559055118110236,"duration":0.11970325416666583},{"name":"E5","midi":76,"time":120.8896935000001,"velocity":0.7559055118110236,"duration":0.24046582916666637},{"name":"F5","midi":77,"time":121.14393050000011,"velocity":0.7559055118110236,"duration":0.24046582916666637},{"name":"G5","midi":79,"time":121.39816750000011,"velocity":0.7559055118110236,"duration":0.24046582916666637},{"name":"E5","midi":76,"time":121.65240450000012,"velocity":0.7559055118110236,"duration":0.11970325416666583},{"name":"F5","midi":77,"time":121.77952300000011,"velocity":0.7559055118110236,"duration":0.24046582916666637},{"name":"F5","midi":77,"time":122.03376000000011,"velocity":0.905511811023622,"duration":0.38029617916666325},{"name":"C6","midi":84,"time":122.03376000000011,"velocity":0.905511811023622,"duration":0.38029617916666325},{"name":"F5","midi":77,"time":122.41511550000011,"velocity":0.905511811023622,"duration":0.38029617916666325},{"name":"C6","midi":84,"time":122.41511550000011,"velocity":0.905511811023622,"duration":0.38029617916666325},{"name":"F5","midi":77,"time":122.79647100000011,"velocity":0.905511811023622,"duration":0.507414679166672},{"name":"C6","midi":84,"time":122.79647100000011,"velocity":0.905511811023622,"duration":0.507414679166672},{"name":"F5","midi":77,"time":123.30494500000012,"velocity":0.7559055118110236,"duration":0.24046582916666637},{"name":"A5","midi":81,"time":123.30494500000012,"velocity":0.7559055118110236,"duration":0.24046582916666637},{"name":"G5","midi":79,"time":123.55918200000012,"velocity":0.7559055118110236,"duration":0.48199097916666744},{"name":"F5","midi":77,"time":124.06765600000013,"velocity":0.905511811023622,"duration":0.38029617916666325},{"name":"C6","midi":84,"time":124.06765600000013,"velocity":0.905511811023622,"duration":0.38029617916666325},{"name":"F5","midi":77,"time":124.44901150000013,"velocity":0.905511811023622,"duration":0.38029617916666325},{"name":"C6","midi":84,"time":124.44901150000013,"velocity":0.905511811023622,"duration":0.38029617916666325},{"name":"G5","midi":79,"time":124.83036700000012,"velocity":0.905511811023622,"duration":0.507414679166672},{"name":"D6","midi":86,"time":124.83036700000012,"velocity":0.905511811023622,"duration":0.507414679166672},{"name":"F5","midi":77,"time":125.33884100000013,"velocity":0.7559055118110236,"duration":0.24046582916666637},{"name":"A5","midi":81,"time":125.33884100000013,"velocity":0.7559055118110236,"duration":0.24046582916666637},{"name":"G5","midi":79,"time":125.59307800000013,"velocity":0.7559055118110236,"duration":0.48199097916666744},{"name":"F4","midi":65,"time":126.10155200000014,"velocity":0.7559055118110236,"duration":0.24046582916666637},{"name":"G4","midi":67,"time":126.35578900000014,"velocity":0.7559055118110236,"duration":0.24046582916666637},{"name":"A4","midi":69,"time":126.61002600000015,"velocity":0.7559055118110236,"duration":0.24046582916666637},{"name":"F4","midi":65,"time":126.86426300000015,"velocity":0.7559055118110236,"duration":0.11970325416666583},{"name":"A#4","midi":70,"time":126.99138150000014,"velocity":0.7559055118110236,"duration":0.24046582916666637},{"name":"A4","midi":69,"time":127.24561850000015,"velocity":0.7559055118110236,"duration":0.24046582916666637},{"name":"G4","midi":67,"time":127.49985550000015,"velocity":0.7559055118110236,"duration":0.48199097916666744},{"name":"F5","midi":77,"time":128.89815900000016,"velocity":0.7559055118110236,"duration":0.24046582916668058},{"name":"A#5","midi":82,"time":129.15239600000018,"velocity":0.7559055118110236,"duration":0.24046582916668058},{"name":"A5","midi":81,"time":129.4066330000002,"velocity":0.7559055118110236,"duration":0.11970325416666583},{"name":"G5","midi":79,"time":129.5337515000002,"velocity":0.7559055118110236,"duration":0.24046582916668058},{"name":"F5","midi":77,"time":129.7879885000002,"velocity":0.7559055118110236,"duration":0.3612284041666669},{"name":"F4","midi":65,"time":130.16934400000022,"velocity":0.6299212598425197,"duration":0.24046582916668058},{"name":"C5","midi":72,"time":130.42358100000024,"velocity":0.6299212598425197,"duration":0.24046582916668058},{"name":"A5","midi":81,"time":130.67781800000026,"velocity":0.6299212598425197,"duration":0.24046582916668058},{"name":"G4","midi":67,"time":130.93205500000028,"velocity":0.6299212598425197,"duration":0.3612284041666669},{"name":"A#4","midi":70,"time":131.3134105000003,"velocity":0.6299212598425197,"duration":0.11970325416666583},{"name":"D5","midi":74,"time":131.44052900000028,"velocity":0.6299212598425197,"duration":0.24046582916668058},{"name":"A5","midi":81,"time":131.6947660000003,"velocity":0.6299212598425197,"duration":0.11970325416666583},{"name":"F5","midi":77,"time":131.8218845000003,"velocity":0.6299212598425197,"duration":0.11970325416666583},{"name":"D5","midi":74,"time":131.9490030000003,"velocity":0.6299212598425197,"duration":0.24046582916668058},{"name":"A#4","midi":70,"time":132.4574770000003,"velocity":0.6299212598425197,"duration":0.11970325416666583},{"name":"D5","midi":74,"time":132.5845955000003,"velocity":0.6299212598425197,"duration":0.11970325416666583},{"name":"F5","midi":77,"time":132.71171400000028,"velocity":0.6299212598425197,"duration":0.11970325416666583},{"name":"D6","midi":86,"time":132.83883250000028,"velocity":0.6299212598425197,"duration":0.24046582916668058},{"name":"C5","midi":72,"time":133.0930695000003,"velocity":0.6299212598425197,"duration":0.3612284041666669},{"name":"F5","midi":77,"time":133.4744250000003,"velocity":0.6299212598425197,"duration":0.24046582916668058},{"name":"C6","midi":84,"time":133.72866200000033,"velocity":0.6299212598425197,"duration":0.24046582916668058},{"name":"G5","midi":79,"time":133.98289900000034,"velocity":0.6299212598425197,"duration":0.24046582916668058},{"name":"F4","midi":65,"time":134.23713600000036,"velocity":0.6299212598425197,"duration":0.24046582916668058},{"name":"C5","midi":72,"time":134.49137300000038,"velocity":0.6299212598425197,"duration":0.24046582916668058},{"name":"A5","midi":81,"time":134.7456100000004,"velocity":0.6299212598425197,"duration":0.24046582916668058},{"name":"G4","midi":67,"time":134.99984700000041,"velocity":0.6299212598425197,"duration":0.3612284041666669},{"name":"A#4","midi":70,"time":135.38120250000043,"velocity":0.6299212598425197,"duration":0.11970325416666583},{"name":"D5","midi":74,"time":135.50832100000042,"velocity":0.6299212598425197,"duration":0.24046582916668058},{"name":"A5","midi":81,"time":135.76255800000044,"velocity":0.6299212598425197,"duration":0.11970325416666583},{"name":"F5","midi":77,"time":135.88967650000043,"velocity":0.6299212598425197,"duration":0.11970325416666583},{"name":"D5","midi":74,"time":136.01679500000043,"velocity":0.6299212598425197,"duration":0.24046582916668058},{"name":"A#4","midi":70,"time":136.52526900000043,"velocity":0.6299212598425197,"duration":0.11970325416666583},{"name":"D5","midi":74,"time":136.65238750000043,"velocity":0.6299212598425197,"duration":0.11970325416666583},{"name":"F5","midi":77,"time":136.77950600000042,"velocity":0.6299212598425197,"duration":0.11970325416666583},{"name":"D6","midi":86,"time":136.90662450000042,"velocity":0.6299212598425197,"duration":0.24046582916668058},{"name":"C5","midi":72,"time":137.16086150000044,"velocity":0.6299212598425197,"duration":0.3612284041666669},{"name":"F5","midi":77,"time":137.54221700000045,"velocity":0.6299212598425197,"duration":0.24046582916668058},{"name":"C6","midi":84,"time":137.79645400000047,"velocity":0.6299212598425197,"duration":0.24046582916668058},{"name":"G5","midi":79,"time":138.05069100000048,"velocity":0.6299212598425197,"duration":0.24046582916668058},{"name":"F4","midi":65,"time":138.3049280000005,"velocity":0.6299212598425197,"duration":0.24046582916668058},{"name":"C5","midi":72,"time":138.55916500000052,"velocity":0.6299212598425197,"duration":0.24046582916668058},{"name":"A5","midi":81,"time":138.81340200000054,"velocity":0.6299212598425197,"duration":0.24046582916668058},{"name":"G4","midi":67,"time":139.06763900000055,"velocity":0.6299212598425197,"duration":0.3612284041666669},{"name":"A#4","midi":70,"time":139.44899450000057,"velocity":0.6299212598425197,"duration":0.11970325416666583},{"name":"D5","midi":74,"time":139.57611300000056,"velocity":0.6299212598425197,"duration":0.24046582916668058},{"name":"A5","midi":81,"time":139.83035000000058,"velocity":0.6299212598425197,"duration":0.11970325416666583},{"name":"F5","midi":77,"time":139.95746850000057,"velocity":0.6299212598425197,"duration":0.11970325416666583},{"name":"D5","midi":74,"time":140.08458700000057,"velocity":0.6299212598425197,"duration":0.24046582916668058},{"name":"A#4","midi":70,"time":140.59306100000057,"velocity":0.6299212598425197,"duration":0.11970325416666583},{"name":"D5","midi":74,"time":140.72017950000057,"velocity":0.6299212598425197,"duration":0.11970325416666583},{"name":"F5","midi":77,"time":140.84729800000056,"velocity":0.6299212598425197,"duration":0.11970325416666583},{"name":"D6","midi":86,"time":140.97441650000056,"velocity":0.6299212598425197,"duration":0.24046582916668058},{"name":"C5","midi":72,"time":141.22865350000058,"velocity":0.6299212598425197,"duration":0.3612284041666669},{"name":"F5","midi":77,"time":141.6100090000006,"velocity":0.6299212598425197,"duration":0.24046582916668058},{"name":"C6","midi":84,"time":141.8642460000006,"velocity":0.6299212598425197,"duration":0.24046582916668058},{"name":"G5","midi":79,"time":142.11848300000062,"velocity":0.6299212598425197,"duration":0.24046582916668058},{"name":"F4","midi":65,"time":142.37272000000064,"velocity":0.8818897637795275,"duration":0.24046582916668058},{"name":"G4","midi":67,"time":142.62695700000066,"velocity":0.8818897637795275,"duration":0.24046582916668058},{"name":"A4","midi":69,"time":142.88119400000068,"velocity":0.8818897637795275,"duration":0.24046582916668058},{"name":"F4","midi":65,"time":143.1354310000007,"velocity":0.8818897637795275,"duration":0.11970325416666583},{"name":"A#4","midi":70,"time":143.2625495000007,"velocity":0.8818897637795275,"duration":0.24046582916668058},{"name":"A4","midi":69,"time":143.5167865000007,"velocity":0.8818897637795275,"duration":0.24046582916668058},{"name":"G4","midi":67,"time":143.77102350000072,"velocity":0.8818897637795275,"duration":0.48199097916665323},{"name":"F5","midi":77,"time":145.16932700000072,"velocity":0.8818897637795275,"duration":0.24046582916668058},{"name":"G5","midi":79,"time":145.42356400000074,"velocity":0.8818897637795275,"duration":0.24046582916668058},{"name":"A#5","midi":82,"time":145.42356400000074,"velocity":0.8818897637795275,"duration":0.24046582916668058},{"name":"A5","midi":81,"time":145.67780100000076,"velocity":0.8818897637795275,"duration":0.11970325416666583},{"name":"G5","midi":79,"time":145.80491950000075,"velocity":0.8818897637795275,"duration":0.24046582916668058},{"name":"A#5","midi":82,"time":145.80491950000075,"velocity":0.8818897637795275,"duration":0.24046582916668058},{"name":"F5","midi":77,"time":146.05915650000077,"velocity":0.8818897637795275,"duration":0.24046582916668058},{"name":"C6","midi":84,"time":146.05915650000077,"velocity":0.8818897637795275,"duration":0.24046582916668058},{"name":"A5","midi":81,"time":146.31339350000079,"velocity":0.8818897637795275,"duration":1.9311418791666597},{"name":"F6","midi":89,"time":146.31339350000079,"velocity":0.8818897637795275,"duration":1.9311418791666597},{"name":"F4","midi":65,"time":148.72864500000077,"velocity":0.8818897637795275,"duration":0.24046582916668058},{"name":"F4","midi":65,"time":148.98288200000079,"velocity":0.8818897637795275,"duration":0.24046582916668058},{"name":"D4","midi":62,"time":149.2371190000008,"velocity":0.8818897637795275,"duration":0.11970325416666583},{"name":"A#4","midi":70,"time":149.3642375000008,"velocity":1,"duration":0.25317767916666867},{"name":"C5","midi":72,"time":149.3642375000008,"velocity":1,"duration":0.25317767916666867},{"name":"A4","midi":69,"time":149.6184745000008,"velocity":1,"duration":0.25317767916666867},{"name":"C5","midi":72,"time":149.6184745000008,"velocity":1,"duration":0.25317767916666867},{"name":"G4","midi":67,"time":149.87271150000078,"velocity":1,"duration":0.25317767916666867},{"name":"C5","midi":72,"time":149.87271150000078,"velocity":1,"duration":0.25317767916666867},{"name":"E4","midi":64,"time":150.12694850000076,"velocity":1,"duration":0.12605917916667408},{"name":"F4","midi":65,"time":150.25406700000076,"velocity":1,"duration":0.49470282916666974},{"name":"C5","midi":72,"time":150.25406700000076,"velocity":1,"duration":0.25317767916666867},{"name":"G4","midi":67,"time":150.76254100000077,"velocity":0.8818897637795275,"duration":0.24046582916668058},{"name":"A4","midi":69,"time":151.01677800000078,"velocity":0.8818897637795275,"duration":0.24046582916668058},{"name":"F4","midi":65,"time":151.2710150000008,"velocity":0.8818897637795275,"duration":0.11970325416666583},{"name":"G4","midi":67,"time":151.3981335000008,"velocity":0.8818897637795275,"duration":0.24046582916668058},{"name":"A#4","midi":70,"time":151.6523705000008,"velocity":0.8818897637795275,"duration":0.24046582916668058},{"name":"D4","midi":62,"time":151.90660750000083,"velocity":0.8818897637795275,"duration":0.48199097916665323},{"name":"F4","midi":65,"time":152.79643700000082,"velocity":0.8818897637795275,"duration":0.24046582916668058},{"name":"F4","midi":65,"time":153.05067400000084,"velocity":0.8818897637795275,"duration":0.24046582916668058},{"name":"D4","midi":62,"time":153.30491100000086,"velocity":0.8818897637795275,"duration":0.11970325416666583},{"name":"E5","midi":76,"time":153.43202950000085,"velocity":0.8818897637795275,"duration":0.24046582916668058},{"name":"F5","midi":77,"time":153.68626650000087,"velocity":0.8818897637795275,"duration":0.24046582916668058},{"name":"G5","midi":79,"time":153.9405035000009,"velocity":0.8818897637795275,"duration":0.24046582916668058},{"name":"E5","midi":76,"time":154.1947405000009,"velocity":0.8818897637795275,"duration":0.11970325416666583},{"name":"F5","midi":77,"time":154.3218590000009,"velocity":0.8818897637795275,"duration":0.24046582916668058},{"name":"F5","midi":77,"time":154.57609600000092,"velocity":1,"duration":0.38029617916666325},{"name":"C6","midi":84,"time":154.57609600000092,"velocity":1,"duration":0.38029617916666325},{"name":"F5","midi":77,"time":154.9574515000009,"velocity":1,"duration":0.38029617916666325},{"name":"C6","midi":84,"time":154.9574515000009,"velocity":1,"duration":0.38029617916666325},{"name":"F5","midi":77,"time":155.33880700000088,"velocity":1,"duration":0.5074146791666578},{"name":"C6","midi":84,"time":155.33880700000088,"velocity":1,"duration":0.5074146791666578},{"name":"F5","midi":77,"time":155.84728100000086,"velocity":0.8818897637795275,"duration":0.24046582916668058},{"name":"A5","midi":81,"time":155.84728100000086,"velocity":0.8818897637795275,"duration":0.24046582916668058},{"name":"G5","midi":79,"time":156.10151800000088,"velocity":0.8818897637795275,"duration":0.48199097916665323},{"name":"F5","midi":77,"time":156.60999200000086,"velocity":1,"duration":0.38029617916666325},{"name":"C6","midi":84,"time":156.60999200000086,"velocity":1,"duration":0.38029617916666325},{"name":"F5","midi":77,"time":156.99134750000084,"velocity":1,"duration":0.38029617916666325},{"name":"C6","midi":84,"time":156.99134750000084,"velocity":1,"duration":0.38029617916666325},{"name":"G5","midi":79,"time":157.37270300000083,"velocity":1,"duration":0.5074146791666578},{"name":"D6","midi":86,"time":157.37270300000083,"velocity":1,"duration":0.5074146791666578},{"name":"F5","midi":77,"time":157.8811770000008,"velocity":0.8818897637795275,"duration":0.24046582916668058},{"name":"A5","midi":81,"time":157.8811770000008,"velocity":0.8818897637795275,"duration":0.24046582916668058},{"name":"G5","midi":79,"time":158.13541400000082,"velocity":0.8818897637795275,"duration":0.48199097916665323},{"name":"F4","midi":65,"time":158.6438880000008,"velocity":0.8818897637795275,"duration":0.24046582916668058},{"name":"G4","midi":67,"time":158.89812500000082,"velocity":0.8818897637795275,"duration":0.24046582916668058},{"name":"A4","midi":69,"time":159.15236200000083,"velocity":0.8818897637795275,"duration":0.24046582916668058},{"name":"F4","midi":65,"time":159.40659900000085,"velocity":0.8818897637795275,"duration":0.11970325416666583},{"name":"A#4","midi":70,"time":159.53371750000085,"velocity":0.8818897637795275,"duration":0.24046582916668058},{"name":"A4","midi":69,"time":159.78795450000086,"velocity":0.8818897637795275,"duration":0.24046582916668058},{"name":"G4","midi":67,"time":160.04219150000088,"velocity":0.8818897637795275,"duration":0.48199097916665323},{"name":"F5","midi":77,"time":161.44049500000088,"velocity":0.8818897637795275,"duration":0.24046582916668058},{"name":"A#5","midi":82,"time":161.6947320000009,"velocity":0.8818897637795275,"duration":0.24046582916668058},{"name":"A5","midi":81,"time":161.94896900000091,"velocity":0.8818897637795275,"duration":0.11970325416666583},{"name":"G5","midi":79,"time":162.0760875000009,"velocity":0.8818897637795275,"duration":0.24046582916668058},{"name":"F5","midi":77,"time":162.33032450000093,"velocity":0.8818897637795275,"duration":0.3612284041666669},{"name":"C5","midi":72,"time":163.47439100000094,"velocity":0.6299212598425197,"duration":0.3612284041666669},{"name":"C5","midi":72,"time":163.85574650000095,"velocity":0.6299212598425197,"duration":0.24046582916668058},{"name":"A4","midi":69,"time":164.10998350000096,"velocity":0.6299212598425197,"duration":0.24046582916668058},{"name":"D5","midi":74,"time":164.36422050000098,"velocity":0.6299212598425197,"duration":0.24046582916668058},{"name":"C5","midi":72,"time":164.618457500001,"velocity":0.6299212598425197,"duration":0.3612284041666669},{"name":"C5","midi":72,"time":165.508287000001,"velocity":0.6299212598425197,"duration":0.3612284041666669},{"name":"C5","midi":72,"time":165.889642500001,"velocity":0.6299212598425197,"duration":0.24046582916668058},{"name":"A4","midi":69,"time":166.14387950000102,"velocity":0.6299212598425197,"duration":0.24046582916668058},{"name":"D5","midi":74,"time":166.39811650000104,"velocity":0.6299212598425197,"duration":0.24046582916668058},{"name":"C5","midi":72,"time":166.65235350000106,"velocity":0.6299212598425197,"duration":0.3612284041666669},{"name":"C5","midi":72,"time":167.54218300000105,"velocity":0.6299212598425197,"duration":0.3612284041666669},{"name":"C5","midi":72,"time":167.92353850000106,"velocity":0.6299212598425197,"duration":0.24046582916668058},{"name":"A4","midi":69,"time":168.17777550000108,"velocity":0.6299212598425197,"duration":0.24046582916668058},{"name":"D5","midi":74,"time":168.4320125000011,"velocity":0.6299212598425197,"duration":0.24046582916668058},{"name":"C5","midi":72,"time":168.6862495000011,"velocity":0.6299212598425197,"duration":0.3612284041666669},{"name":"C5","midi":72,"time":169.5760790000011,"velocity":0.6299212598425197,"duration":0.24046582916668058},{"name":"C5","midi":72,"time":169.83031600000112,"velocity":0.6299212598425197,"duration":0.24046582916668058},{"name":"A#4","midi":70,"time":170.08455300000114,"velocity":0.6299212598425197,"duration":0.11970325416666583},{"name":"A4","midi":69,"time":170.21167150000113,"velocity":0.6299212598425197,"duration":0.24046582916668058},{"name":"A#4","midi":70,"time":170.46590850000115,"velocity":0.6299212598425197,"duration":0.11970325416666583},{"name":"F4","midi":65,"time":170.59302700000114,"velocity":0.6299212598425197,"duration":0.7235161291666543},{"name":"C5","midi":72,"time":170.59302700000114,"velocity":0.6299212598425197,"duration":0.7235161291666543},{"name":"C5","midi":72,"time":171.60997500000113,"velocity":0.6299212598425197,"duration":0.24046582916668058},{"name":"C5","midi":72,"time":171.86421200000115,"velocity":0.6299212598425197,"duration":0.24046582916668058},{"name":"A#4","midi":70,"time":172.11844900000116,"velocity":0.6299212598425197,"duration":0.11970325416666583},{"name":"A4","midi":69,"time":172.24556750000116,"velocity":0.6299212598425197,"duration":0.24046582916668058},{"name":"D5","midi":74,"time":172.49980450000118,"velocity":0.6299212598425197,"duration":0.11970325416666583},{"name":"F4","midi":65,"time":172.62692300000117,"velocity":0.6299212598425197,"duration":0.7235161291666543},{"name":"C5","midi":72,"time":172.62692300000117,"velocity":0.6299212598425197,"duration":0.7235161291666543},{"name":"C5","midi":72,"time":173.64387100000116,"velocity":0.6299212598425197,"duration":0.24046582916668058},{"name":"C5","midi":72,"time":173.89810800000117,"velocity":0.6299212598425197,"duration":0.24046582916668058},{"name":"A#4","midi":70,"time":174.1523450000012,"velocity":0.6299212598425197,"duration":0.11970325416666583},{"name":"A4","midi":69,"time":174.27946350000119,"velocity":0.6299212598425197,"duration":0.24046582916668058},{"name":"D5","midi":74,"time":174.5337005000012,"velocity":0.6299212598425197,"duration":0.11970325416666583},{"name":"F4","midi":65,"time":174.6608190000012,"velocity":0.6299212598425197,"duration":0.7235161291666543},{"name":"C5","midi":72,"time":174.6608190000012,"velocity":0.6299212598425197,"duration":0.7235161291666543},{"name":"C5","midi":72,"time":175.67776700000118,"velocity":0.6299212598425197,"duration":0.24046582916668058},{"name":"C5","midi":72,"time":175.9320040000012,"velocity":0.6299212598425197,"duration":0.24046582916668058},{"name":"A#4","midi":70,"time":176.18624100000122,"velocity":0.6299212598425197,"duration":0.11970325416666583},{"name":"A4","midi":69,"time":176.3133595000012,"velocity":0.6299212598425197,"duration":0.24046582916668058},{"name":"D5","midi":74,"time":176.56759650000123,"velocity":0.6299212598425197,"duration":0.11970325416666583},{"name":"F4","midi":65,"time":176.69471500000122,"velocity":0.6299212598425197,"duration":0.48199097916665323},{"name":"C5","midi":72,"time":176.69471500000122,"velocity":0.6299212598425197,"duration":0.48199097916665323},{"name":"F5","midi":77,"time":177.7116630000012,"velocity":0.6299212598425197,"duration":0.24046582916668058},{"name":"A#5","midi":82,"time":177.96590000000123,"velocity":0.6299212598425197,"duration":0.24046582916668058},{"name":"A5","midi":81,"time":178.22013700000124,"velocity":0.6299212598425197,"duration":0.11970325416666583},{"name":"G5","midi":79,"time":178.34725550000124,"velocity":0.6299212598425197,"duration":0.24046582916668058},{"name":"F5","midi":77,"time":178.60149250000126,"velocity":0.6299212598425197,"duration":0.24046582916668058},{"name":"F5","midi":77,"time":178.85572950000127,"velocity":0.6299212598425197,"duration":0.602753554166668}]},{"instrument_number":-1,"notes":[{"name":"F1","midi":29,"time":0,"velocity":0.3858267716535433,"duration":0.7235161291666666},{"name":"F2","midi":41,"time":0,"velocity":0.3858267716535433,"duration":0.7235161291666666},{"name":"G1","midi":31,"time":0.7627109999999999,"velocity":0.3858267716535433,"duration":1.2065664291666667},{"name":"G2","midi":43,"time":0.7627109999999999,"velocity":0.3858267716535433,"duration":1.2065664291666667},{"name":"A#1","midi":34,"time":2.033896,"velocity":0.3858267716535433,"duration":0.7235161291666667},{"name":"A#2","midi":46,"time":2.033896,"velocity":0.3858267716535433,"duration":0.7235161291666667},{"name":"C2","midi":36,"time":2.796607,"velocity":0.3858267716535433,"duration":1.2065664291666671},{"name":"C3","midi":48,"time":2.796607,"velocity":0.3858267716535433,"duration":1.2065664291666671},{"name":"F1","midi":29,"time":4.067792000000001,"velocity":0.3858267716535433,"duration":0.7235161291666667},{"name":"F2","midi":41,"time":4.067792000000001,"velocity":0.3858267716535433,"duration":0.7235161291666667},{"name":"G1","midi":31,"time":4.830503000000001,"velocity":0.3858267716535433,"duration":1.2065664291666662},{"name":"G2","midi":43,"time":4.830503000000001,"velocity":0.3858267716535433,"duration":1.2065664291666662},{"name":"A#1","midi":34,"time":6.101688000000001,"velocity":0.3858267716535433,"duration":0.7235161291666667},{"name":"A#2","midi":46,"time":6.101688000000001,"velocity":0.3858267716535433,"duration":0.7235161291666667},{"name":"C2","midi":36,"time":6.8643990000000015,"velocity":0.3858267716535433,"duration":1.2065664291666662},{"name":"C3","midi":48,"time":6.8643990000000015,"velocity":0.3858267716535433,"duration":1.2065664291666662},{"name":"F2","midi":41,"time":8.135584000000001,"velocity":0.5039370078740157,"duration":1.2065664291666671},{"name":"C3","midi":48,"time":8.135584000000001,"velocity":0.5039370078740157,"duration":1.2065664291666671},{"name":"G2","midi":43,"time":9.406769000000002,"velocity":0.5039370078740157,"duration":0.48199097916666744},{"name":"D3","midi":50,"time":9.406769000000002,"velocity":0.5039370078740157,"duration":0.48199097916666744},{"name":"F2","midi":41,"time":10.169480000000004,"velocity":0.5039370078740157,"duration":0.48199097916666744},{"name":"A#2","midi":46,"time":10.169480000000004,"velocity":0.5039370078740157,"duration":0.48199097916666744},{"name":"F3","midi":53,"time":10.932191000000005,"velocity":0.5039370078740157,"duration":0.24046582916666637},{"name":"E3","midi":52,"time":11.186428000000005,"velocity":0.5039370078740157,"duration":0.24046582916666637},{"name":"D3","midi":50,"time":11.440665000000005,"velocity":0.5039370078740157,"duration":0.24046582916666637},{"name":"C3","midi":48,"time":11.694902000000004,"velocity":0.5039370078740157,"duration":0.48199097916666744},{"name":"F2","midi":41,"time":12.203376000000006,"velocity":0.5039370078740157,"duration":1.2065664291666671},{"name":"C3","midi":48,"time":12.203376000000006,"velocity":0.5039370078740157,"duration":1.2065664291666671},{"name":"G2","midi":43,"time":13.474561000000007,"velocity":0.5039370078740157,"duration":0.48199097916666744},{"name":"D3","midi":50,"time":13.474561000000007,"velocity":0.5039370078740157,"duration":0.48199097916666744},{"name":"F2","midi":41,"time":14.237272000000008,"velocity":0.5039370078740157,"duration":0.48199097916666744},{"name":"A#2","midi":46,"time":14.237272000000008,"velocity":0.5039370078740157,"duration":0.48199097916666744},{"name":"F3","midi":53,"time":14.99998300000001,"velocity":0.5039370078740157,"duration":0.24046582916666637},{"name":"E3","midi":52,"time":15.254220000000009,"velocity":0.5039370078740157,"duration":0.24046582916666637},{"name":"F3","midi":53,"time":15.508457000000009,"velocity":0.5039370078740157,"duration":0.24046582916666637},{"name":"G3","midi":55,"time":15.762694000000009,"velocity":0.5039370078740157,"duration":0.24046582916666814},{"name":"F3","midi":53,"time":16.01693100000001,"velocity":0.5039370078740157,"duration":0.24046582916666637},{"name":"F3","midi":53,"time":18.05082700000001,"velocity":0.5039370078740157,"duration":0.24046582916666637},{"name":"A3","midi":57,"time":18.30506400000001,"velocity":0.5039370078740157,"duration":0.24046582916666637},{"name":"C4","midi":60,"time":18.55930100000001,"velocity":0.5039370078740157,"duration":0.24046582916666637},{"name":"A#3","midi":58,"time":18.81353800000001,"velocity":0.5039370078740157,"duration":0.24046582916666637},{"name":"A3","midi":57,"time":19.067775000000008,"velocity":0.5039370078740157,"duration":0.11970325416666583},{"name":"G3","midi":55,"time":19.194893500000006,"velocity":0.5039370078740157,"duration":0.24046582916666637},{"name":"F3","midi":53,"time":19.449130500000006,"velocity":0.5039370078740157,"duration":0.24046582916666637},{"name":"A3","midi":57,"time":19.703367500000006,"velocity":0.5039370078740157,"duration":0.48199097916666744},{"name":"F2","midi":41,"time":20.338960000000007,"velocity":0.6299212598425197,"duration":1.2065664291666671},{"name":"C3","midi":48,"time":20.338960000000007,"velocity":0.6299212598425197,"duration":1.2065664291666671},{"name":"G2","midi":43,"time":21.610145000000006,"velocity":0.6299212598425197,"duration":0.48199097916666744},{"name":"D3","midi":50,"time":21.610145000000006,"velocity":0.6299212598425197,"duration":0.48199097916666744},{"name":"F2","midi":41,"time":22.372856000000006,"velocity":0.6299212598425197,"duration":0.48199097916666744},{"name":"A#2","midi":46,"time":22.372856000000006,"velocity":0.6299212598425197,"duration":0.48199097916666744},{"name":"A3","midi":57,"time":23.135567000000005,"velocity":0.6299212598425197,"duration":0.24046582916666637},{"name":"G3","midi":55,"time":23.389804000000005,"velocity":0.6299212598425197,"duration":0.24046582916666637},{"name":"A3","midi":57,"time":23.644041000000005,"velocity":0.6299212598425197,"duration":0.24046582916666637},{"name":"A#3","midi":58,"time":23.898278000000005,"velocity":0.6299212598425197,"duration":0.24046582916666637},{"name":"A3","midi":57,"time":24.152515000000005,"velocity":0.6299212598425197,"duration":0.24046582916666637},{"name":"F2","midi":41,"time":24.406752000000004,"velocity":0.6299212598425197,"duration":0.965041279166666},{"name":"C3","midi":48,"time":24.406752000000004,"velocity":0.6299212598425197,"duration":0.965041279166666},{"name":"G2","midi":43,"time":25.423700000000004,"velocity":0.6299212598425197,"duration":0.965041279166666},{"name":"D3","midi":50,"time":25.423700000000004,"velocity":0.6299212598425197,"duration":0.965041279166666},{"name":"A#2","midi":46,"time":26.440648000000003,"velocity":0.6299212598425197,"duration":0.723516129166665},{"name":"F3","midi":53,"time":26.440648000000003,"velocity":0.6299212598425197,"duration":0.723516129166665},{"name":"C3","midi":48,"time":27.203359000000003,"velocity":0.6299212598425197,"duration":1.2065664291666671},{"name":"G3","midi":55,"time":27.203359000000003,"velocity":0.6299212598425197,"duration":1.2065664291666671},{"name":"F2","midi":41,"time":28.474544,"velocity":0.6299212598425197,"duration":0.965041279166666},{"name":"C3","midi":48,"time":28.474544,"velocity":0.6299212598425197,"duration":0.965041279166666},{"name":"G2","midi":43,"time":29.491492,"velocity":0.6299212598425197,"duration":0.965041279166666},{"name":"D3","midi":50,"time":29.491492,"velocity":0.6299212598425197,"duration":0.965041279166666},{"name":"A#2","midi":46,"time":30.50844,"velocity":0.6299212598425197,"duration":0.723516129166665},{"name":"F3","midi":53,"time":30.50844,"velocity":0.6299212598425197,"duration":0.723516129166665},{"name":"C3","midi":48,"time":31.271151,"velocity":0.6299212598425197,"duration":1.2065664291666671},{"name":"G3","midi":55,"time":31.271151,"velocity":0.6299212598425197,"duration":1.2065664291666671},{"name":"F3","midi":53,"time":34.321995,"velocity":0.6299212598425197,"duration":0.24046582916666637},{"name":"A3","midi":57,"time":34.576232,"velocity":0.6299212598425197,"duration":0.24046582916666637},{"name":"C4","midi":60,"time":34.830468999999994,"velocity":0.6299212598425197,"duration":0.24046582916666637},{"name":"A#3","midi":58,"time":35.08470599999999,"velocity":0.6299212598425197,"duration":0.24046582916666637},{"name":"A3","midi":57,"time":35.338942999999986,"velocity":0.6299212598425197,"duration":0.11970325416666583},{"name":"G3","midi":55,"time":35.46606149999999,"velocity":0.6299212598425197,"duration":0.24046582916666637},{"name":"F3","midi":53,"time":35.720298499999984,"velocity":0.6299212598425197,"duration":0.24046582916666637},{"name":"A3","midi":57,"time":35.97453549999998,"velocity":0.6299212598425197,"duration":0.48199097916666744},{"name":"F2","midi":41,"time":36.61012799999998,"velocity":0.6299212598425197,"duration":1.2065664291666636},{"name":"C3","midi":48,"time":36.61012799999998,"velocity":0.6299212598425197,"duration":1.2065664291666636},{"name":"G2","midi":43,"time":37.88131299999998,"velocity":0.6299212598425197,"duration":0.48199097916666744},{"name":"D3","midi":50,"time":37.88131299999998,"velocity":0.6299212598425197,"duration":0.48199097916666744},{"name":"F2","midi":41,"time":38.64402399999998,"velocity":0.6299212598425197,"duration":0.48199097916666744},{"name":"A#2","midi":46,"time":38.64402399999998,"velocity":0.6299212598425197,"duration":0.48199097916666744},{"name":"F3","midi":53,"time":39.40673499999998,"velocity":0.6299212598425197,"duration":0.24046582916666637},{"name":"C3","midi":48,"time":39.66097199999998,"velocity":0.6299212598425197,"duration":0.24046582916666637},{"name":"G3","midi":55,"time":39.915208999999976,"velocity":0.6299212598425197,"duration":0.24046582916666637},{"name":"F3","midi":53,"time":40.16944599999997,"velocity":0.6299212598425197,"duration":0.48199097916666744},{"name":"F4","midi":65,"time":40.67791999999997,"velocity":0.5039370078740157,"duration":0.9650412791666696},{"name":"C5","midi":72,"time":40.67791999999997,"velocity":0.5039370078740157,"duration":0.9650412791666696},{"name":"G4","midi":67,"time":41.69486799999998,"velocity":0.5196850393700787,"duration":0.9650412791666625},{"name":"D5","midi":74,"time":41.69486799999998,"velocity":0.5196850393700787,"duration":0.38135549999999796},{"name":"A#3","midi":58,"time":42.71181599999998,"velocity":0.5354330708661418,"duration":0.7235161291666685},{"name":"F4","midi":65,"time":42.71181599999998,"velocity":0.5354330708661418,"duration":0.7235161291666685},{"name":"C4","midi":60,"time":43.47452699999998,"velocity":0.5433070866141733,"duration":1.2065664291666636},{"name":"G4","midi":67,"time":43.47452699999998,"velocity":0.5433070866141733,"duration":1.2065664291666636},{"name":"F4","midi":65,"time":44.745711999999976,"velocity":0.5669291338582677,"duration":0.9650412791666696},{"name":"C5","midi":72,"time":44.745711999999976,"velocity":0.5669291338582677,"duration":0.9650412791666696},{"name":"G4","midi":67,"time":45.76265999999998,"velocity":0.5826771653543307,"duration":0.9650412791666625},{"name":"D5","midi":74,"time":45.76265999999998,"velocity":0.5826771653543307,"duration":0.38135549999999796},{"name":"A#3","midi":58,"time":46.77960799999998,"velocity":0.5984251968503937,"duration":0.7235161291666685},{"name":"F4","midi":65,"time":46.77960799999998,"velocity":0.5984251968503937,"duration":0.7235161291666685},{"name":"C4","midi":60,"time":47.542318999999985,"velocity":0.6062992125984252,"duration":1.2065664291666636},{"name":"G4","midi":67,"time":47.542318999999985,"velocity":0.6062992125984252,"duration":1.2065664291666636},{"name":"F2","midi":41,"time":48.81350399999998,"velocity":0.6299212598425197,"duration":0.9650412791666696},{"name":"C3","midi":48,"time":48.81350399999998,"velocity":0.6299212598425197,"duration":0.9650412791666696},{"name":"F3","midi":53,"time":48.81350399999998,"velocity":0.6299212598425197,"duration":0.9650412791666696},{"name":"G2","midi":43,"time":49.83045199999999,"velocity":0.6456692913385826,"duration":0.9650412791666696},{"name":"D3","midi":50,"time":49.83045199999999,"velocity":0.6456692913385826,"duration":0.9650412791666696},{"name":"G3","midi":55,"time":49.83045199999999,"velocity":0.6456692913385826,"duration":0.9650412791666696},{"name":"A#2","midi":46,"time":50.84739999999999,"velocity":0.6614173228346457,"duration":0.9650412791666696},{"name":"F3","midi":53,"time":50.84739999999999,"velocity":0.6614173228346457,"duration":0.9650412791666696},{"name":"A#3","midi":58,"time":50.84739999999999,"velocity":0.6614173228346457,"duration":0.9650412791666696},{"name":"C3","midi":48,"time":51.864348,"velocity":0.6771653543307087,"duration":0.9650412791666696},{"name":"G3","midi":55,"time":51.864348,"velocity":0.6771653543307087,"duration":0.9650412791666696},{"name":"C4","midi":60,"time":51.864348,"velocity":0.6771653543307087,"duration":0.9650412791666696},{"name":"F2","midi":41,"time":52.881296000000006,"velocity":0.6929133858267716,"duration":0.9650412791666696},{"name":"C3","midi":48,"time":52.881296000000006,"velocity":0.6929133858267716,"duration":0.9650412791666696},{"name":"F3","midi":53,"time":52.881296000000006,"velocity":0.6929133858267716,"duration":0.9650412791666696},{"name":"G2","midi":43,"time":53.89824400000001,"velocity":0.7086614173228346,"duration":0.9650412791666696},{"name":"D3","midi":50,"time":53.89824400000001,"velocity":0.7086614173228346,"duration":0.9650412791666696},{"name":"G3","midi":55,"time":53.89824400000001,"velocity":0.7086614173228346,"duration":0.9650412791666696},{"name":"A#2","midi":46,"time":54.91519200000002,"velocity":0.7244094488188977,"duration":0.7235161291666685},{"name":"F3","midi":53,"time":54.91519200000002,"velocity":0.7244094488188977,"duration":0.7235161291666685},{"name":"A#3","midi":58,"time":54.91519200000002,"velocity":0.7244094488188977,"duration":0.7235161291666685},{"name":"C3","midi":48,"time":55.67790300000002,"velocity":0.7322834645669292,"duration":1.2065664291666636},{"name":"G3","midi":55,"time":55.67790300000002,"velocity":0.7322834645669292,"duration":1.2065664291666636},{"name":"C4","midi":60,"time":55.67790300000002,"velocity":0.7322834645669292,"duration":1.2065664291666636},{"name":"F2","midi":41,"time":56.94908800000002,"velocity":0.7559055118110236,"duration":0.24046582916666637},{"name":"C3","midi":48,"time":57.203325000000014,"velocity":0.7559055118110236,"duration":0.24046582916666637},{"name":"F3","midi":53,"time":57.45756200000001,"velocity":0.7559055118110236,"duration":0.3612284041666669},{"name":"G2","midi":43,"time":57.83891750000001,"velocity":0.7559055118110236,"duration":0.24046582916666637},{"name":"D3","midi":50,"time":58.093154500000004,"velocity":0.7559055118110236,"duration":0.24046582916666637},{"name":"G3","midi":55,"time":58.3473915,"velocity":0.7559055118110236,"duration":0.3612284041666669},{"name":"D3","midi":50,"time":58.728747,"velocity":0.7559055118110236,"duration":0.24046582916666637},{"name":"A#2","midi":46,"time":58.982983999999995,"velocity":0.7559055118110236,"duration":0.24046582916666637},{"name":"F3","midi":53,"time":59.23722099999999,"velocity":0.7559055118110236,"duration":0.24046582916666637},{"name":"A#3","midi":58,"time":59.49145799999999,"velocity":0.7559055118110236,"duration":0.3612284041666669},{"name":"C3","midi":48,"time":59.872813499999985,"velocity":0.7559055118110236,"duration":0.24046582916666637},{"name":"G3","midi":55,"time":60.12705049999998,"velocity":0.7559055118110236,"duration":0.24046582916666637},{"name":"C4","midi":60,"time":60.38128749999998,"velocity":0.7559055118110236,"duration":0.3612284041666669},{"name":"G3","midi":55,"time":60.762642999999976,"velocity":0.7559055118110236,"duration":0.24046582916666637},{"name":"F2","midi":41,"time":61.01687999999997,"velocity":0.7559055118110236,"duration":0.24046582916666637},{"name":"C3","midi":48,"time":61.27111699999997,"velocity":0.7559055118110236,"duration":0.24046582916666637},{"name":"F3","midi":53,"time":61.525353999999965,"velocity":0.7559055118110236,"duration":0.3612284041666669},{"name":"G2","midi":43,"time":61.90670949999996,"velocity":0.7559055118110236,"duration":0.24046582916666637},{"name":"D3","midi":50,"time":62.16094649999996,"velocity":0.7559055118110236,"duration":0.24046582916666637},{"name":"G3","midi":55,"time":62.415183499999955,"velocity":0.7559055118110236,"duration":0.3612284041666669},{"name":"D3","midi":50,"time":62.79653899999995,"velocity":0.7559055118110236,"duration":0.24046582916666637},{"name":"A#2","midi":46,"time":63.05077599999995,"velocity":0.7559055118110236,"duration":0.24046582916666637},{"name":"F3","midi":53,"time":63.305012999999946,"velocity":0.7559055118110236,"duration":0.24046582916666637},{"name":"A#3","midi":58,"time":63.55924999999994,"velocity":0.7559055118110236,"duration":0.3612284041666669},{"name":"C3","midi":48,"time":63.94060549999994,"velocity":0.7559055118110236,"duration":0.24046582916667347},{"name":"G3","midi":55,"time":64.19484249999995,"velocity":0.7559055118110236,"duration":0.24046582916666637},{"name":"C4","midi":60,"time":64.44907949999995,"velocity":0.7559055118110236,"duration":0.3612284041666669},{"name":"G3","midi":55,"time":64.83043499999995,"velocity":0.7559055118110236,"duration":0.24046582916666637},{"name":"F2","midi":41,"time":65.08467199999996,"velocity":0.7559055118110236,"duration":0.24046582916666637},{"name":"C3","midi":48,"time":65.33890899999996,"velocity":0.7559055118110236,"duration":0.24046582916666637},{"name":"F3","midi":53,"time":65.59314599999996,"velocity":0.7559055118110236,"duration":0.3612284041666669},{"name":"G2","midi":43,"time":66.10161999999997,"velocity":0.7559055118110236,"duration":0.24046582916666637},{"name":"D3","midi":50,"time":66.35585699999997,"velocity":0.7559055118110236,"duration":0.24046582916666637},{"name":"G3","midi":55,"time":66.61009399999998,"velocity":0.7559055118110236,"duration":0.24046582916666637},{"name":"D3","midi":50,"time":66.86433099999998,"velocity":0.7559055118110236,"duration":0.24046582916666637},{"name":"A#2","midi":46,"time":67.11856799999998,"velocity":0.7559055118110236,"duration":0.24046582916666637},{"name":"F3","midi":53,"time":67.37280499999999,"velocity":0.7559055118110236,"duration":0.24046582916666637},{"name":"A#3","midi":58,"time":67.62704199999999,"velocity":0.7559055118110236,"duration":0.3612284041666669},{"name":"C3","midi":48,"time":68.135516,"velocity":0.7559055118110236,"duration":0.24046582916666637},{"name":"G3","midi":55,"time":68.389753,"velocity":0.7559055118110236,"duration":0.24046582916666637},{"name":"C4","midi":60,"time":68.64399,"velocity":0.7559055118110236,"duration":0.24046582916666637},{"name":"G3","midi":55,"time":68.898227,"velocity":0.7559055118110236,"duration":0.24046582916666637},{"name":"F2","midi":41,"time":69.15246400000001,"velocity":0.7559055118110236,"duration":0.24046582916666637},{"name":"C3","midi":48,"time":69.40670100000001,"velocity":0.7559055118110236,"duration":0.24046582916666637},{"name":"F3","midi":53,"time":69.66093800000002,"velocity":0.7559055118110236,"duration":0.3612284041666669},{"name":"G2","midi":43,"time":70.04229350000001,"velocity":0.7559055118110236,"duration":0.24046582916666637},{"name":"D3","midi":50,"time":70.29653050000002,"velocity":0.7559055118110236,"duration":0.24046582916666637},{"name":"G3","midi":55,"time":70.55076750000002,"velocity":0.7559055118110236,"duration":0.3612284041666669},{"name":"D3","midi":50,"time":70.93212300000002,"velocity":0.7559055118110236,"duration":0.24046582916666637},{"name":"A#2","midi":46,"time":71.18636000000002,"velocity":0.7559055118110236,"duration":0.24046582916666637},{"name":"F3","midi":53,"time":71.44059700000003,"velocity":0.7559055118110236,"duration":0.24046582916666637},{"name":"A#3","midi":58,"time":71.69483400000003,"velocity":0.7559055118110236,"duration":0.24046582916666637},{"name":"F3","midi":53,"time":71.94907100000003,"velocity":0.7559055118110236,"duration":0.24046582916666637},{"name":"C3","midi":48,"time":72.20330800000004,"velocity":0.7559055118110236,"duration":0.24046582916666637},{"name":"G3","midi":55,"time":72.45754500000004,"velocity":0.7559055118110236,"duration":0.24046582916666637},{"name":"C4","midi":60,"time":72.71178200000004,"velocity":0.7559055118110236,"duration":0.48199097916666744},{"name":"F2","midi":41,"time":73.22025600000005,"velocity":0.7559055118110236,"duration":0.25317767916666867},{"name":"C3","midi":48,"time":73.22025600000005,"velocity":0.7559055118110236,"duration":0.25317767916666867},{"name":"G2","midi":43,"time":73.98296700000004,"velocity":0.7559055118110236,"duration":0.25317767916666867},{"name":"D3","midi":50,"time":73.98296700000004,"velocity":0.7559055118110236,"duration":0.25317767916666867},{"name":"A#2","midi":46,"time":75.25415200000005,"velocity":0.7559055118110236,"duration":0.25317767916666867},{"name":"F3","midi":53,"time":75.25415200000005,"velocity":0.7559055118110236,"duration":0.25317767916666867},{"name":"A#2","midi":46,"time":76.27110000000005,"velocity":0.7559055118110236,"duration":0.24046582916666637},{"name":"F3","midi":53,"time":76.27110000000005,"velocity":0.7559055118110236,"duration":0.24046582916666637},{"name":"A#2","midi":46,"time":76.52533700000005,"velocity":0.7559055118110236,"duration":0.3612284041666669},{"name":"F3","midi":53,"time":76.52533700000005,"velocity":0.7559055118110236,"duration":0.3612284041666669},{"name":"C3","midi":48,"time":76.90669250000005,"velocity":0.7559055118110236,"duration":0.18961842916667138},{"name":"G3","midi":55,"time":76.90669250000005,"velocity":0.7559055118110236,"duration":0.18961842916667138},{"name":"F2","midi":41,"time":77.28804800000005,"velocity":0.7559055118110236,"duration":0.25317767916666867},{"name":"C3","midi":48,"time":77.28804800000005,"velocity":0.7559055118110236,"duration":0.25317767916666867},{"name":"G2","midi":43,"time":78.05075900000004,"velocity":0.7559055118110236,"duration":0.25317767916666867},{"name":"D3","midi":50,"time":78.05075900000004,"velocity":0.7559055118110236,"duration":0.25317767916666867},{"name":"A#2","midi":46,"time":79.32194400000004,"velocity":0.7559055118110236,"duration":0.25317767916666867},{"name":"F3","midi":53,"time":79.32194400000004,"velocity":0.7559055118110236,"duration":0.25317767916666867},{"name":"A#2","midi":46,"time":80.33889200000004,"velocity":0.7559055118110236,"duration":0.24046582916666637},{"name":"F3","midi":53,"time":80.33889200000004,"velocity":0.7559055118110236,"duration":0.24046582916666637},{"name":"A#2","midi":46,"time":80.59312900000005,"velocity":0.7559055118110236,"duration":0.3612284041666669},{"name":"F3","midi":53,"time":80.59312900000005,"velocity":0.7559055118110236,"duration":0.3612284041666669},{"name":"C3","midi":48,"time":80.97448450000005,"velocity":0.7559055118110236,"duration":0.18961842916667138},{"name":"G3","midi":55,"time":80.97448450000005,"velocity":0.7559055118110236,"duration":0.18961842916667138},{"name":"F2","midi":41,"time":81.35584000000004,"velocity":0.6299212598425197,"duration":1.2065664291666707},{"name":"C3","midi":48,"time":81.35584000000004,"velocity":0.6299212598425197,"duration":1.2065664291666707},{"name":"G2","midi":43,"time":82.62702500000005,"velocity":0.6299212598425197,"duration":0.48199097916666744},{"name":"D3","midi":50,"time":82.62702500000005,"velocity":0.6299212598425197,"duration":0.48199097916666744},{"name":"F2","midi":41,"time":83.38973600000004,"velocity":0.6299212598425197,"duration":0.48199097916666744},{"name":"A#2","midi":46,"time":83.38973600000004,"velocity":0.6299212598425197,"duration":0.48199097916666744},{"name":"C3","midi":48,"time":84.15244700000004,"velocity":0.6299212598425197,"duration":0.24046582916666637},{"name":"F3","midi":53,"time":84.15244700000004,"velocity":0.6299212598425197,"duration":0.24046582916666637},{"name":"C3","midi":48,"time":84.40668400000004,"velocity":0.6299212598425197,"duration":0.24046582916666637},{"name":"E3","midi":52,"time":84.40668400000004,"velocity":0.6299212598425197,"duration":0.24046582916666637},{"name":"D3","midi":50,"time":84.66092100000004,"velocity":0.6299212598425197,"duration":0.24046582916666637},{"name":"C3","midi":48,"time":84.91515800000005,"velocity":0.6299212598425197,"duration":0.48199097916666744},{"name":"F2","midi":41,"time":85.42363200000005,"velocity":0.6299212598425197,"duration":1.2065664291666707},{"name":"C3","midi":48,"time":85.42363200000005,"velocity":0.6299212598425197,"duration":1.2065664291666707},{"name":"G2","midi":43,"time":86.69481700000006,"velocity":0.6299212598425197,"duration":0.48199097916666744},{"name":"D3","midi":50,"time":86.69481700000006,"velocity":0.6299212598425197,"duration":0.48199097916666744},{"name":"F2","midi":41,"time":87.45752800000005,"velocity":0.6299212598425197,"duration":0.48199097916666744},{"name":"A#2","midi":46,"time":87.45752800000005,"velocity":0.6299212598425197,"duration":0.48199097916666744},{"name":"F3","midi":53,"time":88.22023900000005,"velocity":0.6299212598425197,"duration":0.24046582916666637},{"name":"A3","midi":57,"time":88.22023900000005,"velocity":0.6299212598425197,"duration":0.24046582916666637},{"name":"E3","midi":52,"time":88.47447600000005,"velocity":0.6299212598425197,"duration":0.24046582916666637},{"name":"G3","midi":55,"time":88.47447600000005,"velocity":0.6299212598425197,"duration":0.24046582916666637},{"name":"F3","midi":53,"time":88.72871300000006,"velocity":0.6299212598425197,"duration":0.24046582916666637},{"name":"A3","midi":57,"time":88.72871300000006,"velocity":0.6299212598425197,"duration":0.24046582916666637},{"name":"G3","midi":55,"time":88.98295000000006,"velocity":0.6299212598425197,"duration":0.24046582916666637},{"name":"A#3","midi":58,"time":88.98295000000006,"velocity":0.6299212598425197,"duration":0.24046582916666637},{"name":"F3","midi":53,"time":89.23718700000006,"velocity":0.6299212598425197,"duration":0.24046582916666637},{"name":"A3","midi":57,"time":89.23718700000006,"velocity":0.6299212598425197,"duration":0.24046582916666637},{"name":"F3","midi":53,"time":91.27108300000006,"velocity":0.6299212598425197,"duration":0.24046582916666637},{"name":"A3","midi":57,"time":91.52532000000006,"velocity":0.6299212598425197,"duration":0.24046582916666637},{"name":"C4","midi":60,"time":91.77955700000007,"velocity":0.6299212598425197,"duration":0.24046582916666637},{"name":"A#3","midi":58,"time":92.03379400000007,"velocity":0.6299212598425197,"duration":0.24046582916666637},{"name":"A3","midi":57,"time":92.28803100000007,"velocity":0.6299212598425197,"duration":0.11970325416666583},{"name":"G3","midi":55,"time":92.41514950000007,"velocity":0.6299212598425197,"duration":0.24046582916666637},{"name":"F3","midi":53,"time":92.66938650000007,"velocity":0.6299212598425197,"duration":0.24046582916666637},{"name":"A3","midi":57,"time":92.92362350000008,"velocity":0.6299212598425197,"duration":0.48199097916666744},{"name":"F2","midi":41,"time":93.55921600000008,"velocity":0.6299212598425197,"duration":1.2065664291666707},{"name":"C3","midi":48,"time":93.55921600000008,"velocity":0.6299212598425197,"duration":1.2065664291666707},{"name":"G2","midi":43,"time":94.83040100000008,"velocity":0.6299212598425197,"duration":0.48199097916666744},{"name":"D3","midi":50,"time":94.83040100000008,"velocity":0.6299212598425197,"duration":0.48199097916666744},{"name":"F2","midi":41,"time":95.59311200000008,"velocity":0.6299212598425197,"duration":0.48199097916666744},{"name":"A#2","midi":46,"time":95.59311200000008,"velocity":0.6299212598425197,"duration":0.48199097916666744},{"name":"F3","midi":53,"time":96.35582300000007,"velocity":0.6299212598425197,"duration":0.24046582916666637},{"name":"C3","midi":48,"time":96.61006000000008,"velocity":0.6299212598425197,"duration":0.24046582916666637},{"name":"G3","midi":55,"time":96.86429700000008,"velocity":0.6299212598425197,"duration":0.24046582916666637},{"name":"F3","midi":53,"time":97.11853400000008,"velocity":0.6299212598425197,"duration":0.48199097916666744},{"name":"F4","midi":65,"time":97.62700800000009,"velocity":0.5039370078740157,"duration":0.48199097916666744},{"name":"C5","midi":72,"time":98.1354820000001,"velocity":0.5039370078740157,"duration":0.48199097916666744},{"name":"G4","midi":67,"time":98.6439560000001,"velocity":0.5039370078740157,"duration":0.7235161291666685},{"name":"A4","midi":69,"time":99.4066670000001,"velocity":0.5039370078740157,"duration":0.24046582916666637},{"name":"A#3","midi":58,"time":99.6609040000001,"velocity":0.5039370078740157,"duration":0.48199097916666744},{"name":"F4","midi":65,"time":100.16937800000011,"velocity":0.5039370078740157,"duration":0.48199097916666744},{"name":"C4","midi":60,"time":100.67785200000012,"velocity":0.5039370078740157,"duration":0.48199097916666744},{"name":"G4","midi":67,"time":101.18632600000012,"velocity":0.5039370078740157,"duration":0.48199097916666744},{"name":"F4","midi":65,"time":101.69480000000013,"velocity":0.5039370078740157,"duration":0.48199097916666744},{"name":"C5","midi":72,"time":102.20327400000014,"velocity":0.5039370078740157,"duration":0.48199097916666744},{"name":"G4","midi":67,"time":102.71174800000014,"velocity":0.5039370078740157,"duration":0.7235161291666685},{"name":"A4","midi":69,"time":103.47445900000014,"velocity":0.5039370078740157,"duration":0.24046582916666637},{"name":"A#3","midi":58,"time":103.72869600000014,"velocity":0.5039370078740157,"duration":0.48199097916666744},{"name":"F4","midi":65,"time":104.23717000000015,"velocity":0.5039370078740157,"duration":0.48199097916666744},{"name":"C4","midi":60,"time":104.74564400000015,"velocity":0.5039370078740157,"duration":0.48199097916666744},{"name":"G4","midi":67,"time":105.25411800000016,"velocity":0.5039370078740157,"duration":0.48199097916666744},{"name":"F2","midi":41,"time":105.76259200000017,"velocity":0.5039370078740157,"duration":0.48199097916666744},{"name":"C3","midi":48,"time":105.76259200000017,"velocity":0.5039370078740157,"duration":0.48199097916666744},{"name":"F3","midi":53,"time":106.27106600000018,"velocity":0.5039370078740157,"duration":0.48199097916666744},{"name":"G2","midi":43,"time":106.77954000000018,"velocity":0.5039370078740157,"duration":0.48199097916666744},{"name":"D3","midi":50,"time":106.77954000000018,"velocity":0.5039370078740157,"duration":0.48199097916666744},{"name":"G3","midi":55,"time":107.28801400000019,"velocity":0.5039370078740157,"duration":0.48199097916666744},{"name":"A#2","midi":46,"time":107.7964880000002,"velocity":0.5039370078740157,"duration":0.48199097916666744},{"name":"F3","midi":53,"time":107.7964880000002,"velocity":0.5039370078740157,"duration":0.48199097916666744},{"name":"A#3","midi":58,"time":108.3049620000002,"velocity":0.5039370078740157,"duration":0.48199097916666744},{"name":"C3","midi":48,"time":108.81343600000021,"velocity":0.5039370078740157,"duration":0.48199097916666744},{"name":"G3","midi":55,"time":108.81343600000021,"velocity":0.5039370078740157,"duration":0.48199097916666744},{"name":"C4","midi":60,"time":109.32191000000022,"velocity":0.5039370078740157,"duration":0.48199097916666744},{"name":"F2","midi":41,"time":109.83038400000022,"velocity":0.5039370078740157,"duration":0.48199097916666744},{"name":"C3","midi":48,"time":109.83038400000022,"velocity":0.5039370078740157,"duration":0.48199097916666744},{"name":"F3","midi":53,"time":110.33885800000023,"velocity":0.5039370078740157,"duration":0.48199097916666744},{"name":"G2","midi":43,"time":110.84733200000024,"velocity":0.5039370078740157,"duration":0.48199097916666744},{"name":"D3","midi":50,"time":110.84733200000024,"velocity":0.5039370078740157,"duration":0.48199097916666744},{"name":"G3","midi":55,"time":111.35580600000024,"velocity":0.5039370078740157,"duration":0.48199097916666744},{"name":"A#2","midi":46,"time":111.86428000000025,"velocity":0.5039370078740157,"duration":0.48199097916666744},{"name":"F3","midi":53,"time":111.86428000000025,"velocity":0.5039370078740157,"duration":0.48199097916666744},{"name":"A#3","midi":58,"time":112.37275400000026,"velocity":0.5039370078740157,"duration":0.48199097916666744},{"name":"C3","midi":48,"time":112.88122800000026,"velocity":0.5039370078740157,"duration":0.48199097916666744},{"name":"G3","midi":55,"time":112.88122800000026,"velocity":0.5039370078740157,"duration":0.48199097916666744},{"name":"C4","midi":60,"time":113.38970200000027,"velocity":0.5039370078740157,"duration":0.48199097916666744},{"name":"F2","midi":41,"time":113.89817600000028,"velocity":0.7559055118110236,"duration":0.24046582916666637},{"name":"C3","midi":48,"time":114.15241300000028,"velocity":0.7559055118110236,"duration":0.24046582916666637},{"name":"F3","midi":53,"time":114.40665000000028,"velocity":0.7559055118110236,"duration":0.3612284041666669},{"name":"G2","midi":43,"time":114.78800550000028,"velocity":0.7559055118110236,"duration":0.24046582916666637},{"name":"D3","midi":50,"time":115.04224250000028,"velocity":0.7559055118110236,"duration":0.24046582916666637},{"name":"G3","midi":55,"time":115.29647950000029,"velocity":0.7559055118110236,"duration":0.3612284041666669},{"name":"D3","midi":50,"time":115.67783500000029,"velocity":0.7559055118110236,"duration":0.24046582916666637},{"name":"A#2","midi":46,"time":115.93207200000029,"velocity":0.7559055118110236,"duration":0.24046582916666637},{"name":"F3","midi":53,"time":116.18630900000029,"velocity":0.7559055118110236,"duration":0.24046582916666637},{"name":"A#3","midi":58,"time":116.4405460000003,"velocity":0.7559055118110236,"duration":0.3612284041666669},{"name":"C3","midi":48,"time":116.8219015000003,"velocity":0.7559055118110236,"duration":0.24046582916666637},{"name":"G3","midi":55,"time":117.0761385000003,"velocity":0.7559055118110236,"duration":0.24046582916666637},{"name":"C4","midi":60,"time":117.3303755000003,"velocity":0.7559055118110236,"duration":0.3612284041666669},{"name":"G3","midi":55,"time":117.7117310000003,"velocity":0.7559055118110236,"duration":0.24046582916666637},{"name":"F2","midi":41,"time":117.9659680000003,"velocity":0.7559055118110236,"duration":0.24046582916666637},{"name":"C3","midi":48,"time":118.2202050000003,"velocity":0.7559055118110236,"duration":0.24046582916666637},{"name":"F3","midi":53,"time":118.47444200000031,"velocity":0.7559055118110236,"duration":0.3612284041666669},{"name":"G2","midi":43,"time":118.8557975000003,"velocity":0.7559055118110236,"duration":0.24046582916666637},{"name":"D3","midi":50,"time":119.11003450000031,"velocity":0.7559055118110236,"duration":0.24046582916666637},{"name":"G3","midi":55,"time":119.36427150000031,"velocity":0.7559055118110236,"duration":0.3612284041666669},{"name":"D3","midi":50,"time":119.74562700000031,"velocity":0.7559055118110236,"duration":0.24046582916666637},{"name":"A#2","midi":46,"time":119.99986400000031,"velocity":0.7559055118110236,"duration":0.24046582916666637},{"name":"F3","midi":53,"time":120.25410100000032,"velocity":0.7559055118110236,"duration":0.24046582916666637},{"name":"A#3","midi":58,"time":120.50833800000032,"velocity":0.7559055118110236,"duration":0.3612284041666669},{"name":"C3","midi":48,"time":120.88969350000032,"velocity":0.7559055118110236,"duration":0.24046582916666637},{"name":"G3","midi":55,"time":121.14393050000032,"velocity":0.7559055118110236,"duration":0.24046582916666637},{"name":"C4","midi":60,"time":121.39816750000033,"velocity":0.7559055118110236,"duration":0.3612284041666669},{"name":"G3","midi":55,"time":121.77952300000032,"velocity":0.7559055118110236,"duration":0.24046582916666637},{"name":"F2","midi":41,"time":122.03376000000033,"velocity":0.7559055118110236,"duration":0.24046582916666637},{"name":"C3","midi":48,"time":122.28799700000033,"velocity":0.7559055118110236,"duration":0.24046582916666637},{"name":"F3","midi":53,"time":122.54223400000033,"velocity":0.7559055118110236,"duration":0.3612284041666669},{"name":"G2","midi":43,"time":123.05070800000034,"velocity":0.7559055118110236,"duration":0.24046582916666637},{"name":"D3","midi":50,"time":123.30494500000034,"velocity":0.7559055118110236,"duration":0.24046582916666637},{"name":"G3","midi":55,"time":123.55918200000035,"velocity":0.7559055118110236,"duration":0.24046582916666637},{"name":"D3","midi":50,"time":123.81341900000035,"velocity":0.7559055118110236,"duration":0.24046582916666637},{"name":"A#2","midi":46,"time":124.06765600000035,"velocity":0.7559055118110236,"duration":0.24046582916666637},{"name":"F3","midi":53,"time":124.32189300000036,"velocity":0.7559055118110236,"duration":0.24046582916666637},{"name":"A#3","midi":58,"time":124.57613000000036,"velocity":0.7559055118110236,"duration":0.3612284041666669},{"name":"C3","midi":48,"time":125.08460400000037,"velocity":0.7559055118110236,"duration":0.24046582916666637},{"name":"G3","midi":55,"time":125.33884100000037,"velocity":0.7559055118110236,"duration":0.24046582916666637},{"name":"C4","midi":60,"time":125.59307800000038,"velocity":0.7559055118110236,"duration":0.24046582916666637},{"name":"G3","midi":55,"time":125.84731500000038,"velocity":0.7559055118110236,"duration":0.24046582916666637},{"name":"F2","midi":41,"time":126.10155200000038,"velocity":0.7559055118110236,"duration":0.24046582916666637},{"name":"C3","midi":48,"time":126.35578900000039,"velocity":0.7559055118110236,"duration":0.24046582916666637},{"name":"F3","midi":53,"time":126.61002600000039,"velocity":0.7559055118110236,"duration":0.3612284041666669},{"name":"G2","midi":43,"time":126.99138150000039,"velocity":0.7559055118110236,"duration":0.24046582916666637},{"name":"D3","midi":50,"time":127.24561850000039,"velocity":0.7559055118110236,"duration":0.24046582916666637},{"name":"G3","midi":55,"time":127.4998555000004,"velocity":0.7559055118110236,"duration":0.3612284041666669},{"name":"D3","midi":50,"time":127.88121100000039,"velocity":0.7559055118110236,"duration":0.24046582916666637},{"name":"A#2","midi":46,"time":128.1354480000004,"velocity":0.7559055118110236,"duration":0.24046582916668058},{"name":"F3","midi":53,"time":128.3896850000004,"velocity":0.7559055118110236,"duration":0.24046582916668058},{"name":"A#3","midi":58,"time":128.64392200000043,"velocity":0.7559055118110236,"duration":0.24046582916668058},{"name":"F3","midi":53,"time":128.89815900000045,"velocity":0.7559055118110236,"duration":0.24046582916668058},{"name":"C3","midi":48,"time":129.15239600000046,"velocity":0.7559055118110236,"duration":0.24046582916668058},{"name":"G3","midi":55,"time":129.40663300000048,"velocity":0.7559055118110236,"duration":0.24046582916668058},{"name":"C4","midi":60,"time":129.6608700000005,"velocity":0.7559055118110236,"duration":0.48199097916665323},{"name":"F2","midi":41,"time":130.16934400000048,"velocity":0.6299212598425197,"duration":0.7235161291666543},{"name":"C3","midi":48,"time":130.16934400000048,"velocity":0.6299212598425197,"duration":0.7235161291666543},{"name":"G2","midi":43,"time":130.93205500000047,"velocity":0.6299212598425197,"duration":1.2065664291666565},{"name":"D3","midi":50,"time":130.93205500000047,"velocity":0.6299212598425197,"duration":1.2065664291666565},{"name":"A#2","midi":46,"time":132.20324000000048,"velocity":0.6299212598425197,"duration":0.7235161291666543},{"name":"F3","midi":53,"time":132.20324000000048,"velocity":0.6299212598425197,"duration":0.7235161291666543},{"name":"C3","midi":48,"time":132.96595100000047,"velocity":0.6299212598425197,"duration":1.2065664291666565},{"name":"G3","midi":55,"time":132.96595100000047,"velocity":0.6299212598425197,"duration":1.2065664291666565},{"name":"F2","midi":41,"time":134.23713600000048,"velocity":0.6299212598425197,"duration":0.7235161291666543},{"name":"C3","midi":48,"time":134.23713600000048,"velocity":0.6299212598425197,"duration":0.7235161291666543},{"name":"G2","midi":43,"time":134.99984700000047,"velocity":0.6299212598425197,"duration":1.2065664291666565},{"name":"D3","midi":50,"time":134.99984700000047,"velocity":0.6299212598425197,"duration":1.2065664291666565},{"name":"A#2","midi":46,"time":136.27103200000047,"velocity":0.6299212598425197,"duration":0.7235161291666543},{"name":"F3","midi":53,"time":136.27103200000047,"velocity":0.6299212598425197,"duration":0.7235161291666543},{"name":"C3","midi":48,"time":137.03374300000047,"velocity":0.6299212598425197,"duration":1.2065664291666565},{"name":"G3","midi":55,"time":137.03374300000047,"velocity":0.6299212598425197,"duration":1.2065664291666565},{"name":"F2","midi":41,"time":138.30492800000047,"velocity":0.6299212598425197,"duration":0.7235161291666543},{"name":"C3","midi":48,"time":138.30492800000047,"velocity":0.6299212598425197,"duration":0.7235161291666543},{"name":"G2","midi":43,"time":139.06763900000047,"velocity":0.6299212598425197,"duration":1.2065664291666565},{"name":"D3","midi":50,"time":139.06763900000047,"velocity":0.6299212598425197,"duration":1.2065664291666565},{"name":"A#2","midi":46,"time":140.33882400000047,"velocity":0.6299212598425197,"duration":0.7235161291666543},{"name":"F3","midi":53,"time":140.33882400000047,"velocity":0.6299212598425197,"duration":0.7235161291666543},{"name":"C3","midi":48,"time":141.10153500000047,"velocity":0.6299212598425197,"duration":1.2065664291666565},{"name":"G3","midi":55,"time":141.10153500000047,"velocity":0.6299212598425197,"duration":1.2065664291666565},{"name":"A#2","midi":46,"time":144.40661600000047,"velocity":0.8818897637795275,"duration":0.48199097916665323},{"name":"F3","midi":53,"time":144.40661600000047,"velocity":0.8818897637795275,"duration":0.48199097916665323},{"name":"A#2","midi":46,"time":144.91509000000045,"velocity":0.8818897637795275,"duration":0.24046582916668058},{"name":"F3","midi":53,"time":144.91509000000045,"velocity":0.8818897637795275,"duration":0.24046582916668058},{"name":"C3","midi":48,"time":145.16932700000046,"velocity":0.8818897637795275,"duration":0.48199097916665323},{"name":"G3","midi":55,"time":145.16932700000046,"velocity":0.8818897637795275,"duration":0.48199097916665323},{"name":"C3","midi":48,"time":145.67780100000044,"velocity":0.8818897637795275,"duration":0.48199097916665323},{"name":"G3","midi":55,"time":145.67780100000044,"velocity":0.8818897637795275,"duration":0.48199097916665323},{"name":"F2","midi":41,"time":146.44051200000044,"velocity":0.8818897637795275,"duration":0.24046582916668058},{"name":"C3","midi":48,"time":146.69474900000046,"velocity":0.8818897637795275,"duration":0.24046582916668058},{"name":"F3","midi":53,"time":146.94898600000047,"velocity":0.8818897637795275,"duration":0.3612284041666669},{"name":"G2","midi":43,"time":147.3303415000005,"velocity":0.8818897637795275,"duration":0.24046582916668058},{"name":"D3","midi":50,"time":147.5845785000005,"velocity":0.8818897637795275,"duration":0.24046582916668058},{"name":"G3","midi":55,"time":147.83881550000052,"velocity":0.8818897637795275,"duration":0.3612284041666669},{"name":"D3","midi":50,"time":148.22017100000053,"velocity":0.8818897637795275,"duration":0.24046582916668058},{"name":"A#2","midi":46,"time":148.47440800000055,"velocity":0.8818897637795275,"duration":0.24046582916668058},{"name":"F3","midi":53,"time":148.72864500000057,"velocity":0.8818897637795275,"duration":0.24046582916668058},{"name":"A#3","midi":58,"time":148.9828820000006,"velocity":0.8818897637795275,"duration":0.3612284041666669},{"name":"C3","midi":48,"time":149.3642375000006,"velocity":0.8818897637795275,"duration":0.24046582916668058},{"name":"G3","midi":55,"time":149.61847450000062,"velocity":0.8818897637795275,"duration":0.24046582916668058},{"name":"C4","midi":60,"time":149.87271150000063,"velocity":0.8818897637795275,"duration":0.3612284041666669},{"name":"G3","midi":55,"time":150.25406700000065,"velocity":0.8818897637795275,"duration":0.24046582916668058},{"name":"F2","midi":41,"time":150.50830400000066,"velocity":0.8818897637795275,"duration":0.24046582916668058},{"name":"C3","midi":48,"time":150.76254100000068,"velocity":0.8818897637795275,"duration":0.24046582916668058},{"name":"F3","midi":53,"time":151.0167780000007,"velocity":0.8818897637795275,"duration":0.3612284041666669},{"name":"G2","midi":43,"time":151.3981335000007,"velocity":0.8818897637795275,"duration":0.24046582916668058},{"name":"D3","midi":50,"time":151.65237050000073,"velocity":0.8818897637795275,"duration":0.24046582916668058},{"name":"G3","midi":55,"time":151.90660750000075,"velocity":0.8818897637795275,"duration":0.3612284041666669},{"name":"D3","midi":50,"time":152.28796300000076,"velocity":0.8818897637795275,"duration":0.24046582916668058},{"name":"A#2","midi":46,"time":152.54220000000078,"velocity":0.8818897637795275,"duration":0.24046582916668058},{"name":"F3","midi":53,"time":152.7964370000008,"velocity":0.8818897637795275,"duration":0.24046582916668058},{"name":"A#3","midi":58,"time":153.0506740000008,"velocity":0.8818897637795275,"duration":0.3612284041666669},{"name":"C3","midi":48,"time":153.43202950000082,"velocity":0.8818897637795275,"duration":0.24046582916668058},{"name":"G3","midi":55,"time":153.68626650000084,"velocity":0.8818897637795275,"duration":0.24046582916668058},{"name":"C4","midi":60,"time":153.94050350000086,"velocity":0.8818897637795275,"duration":0.3612284041666669},{"name":"G3","midi":55,"time":154.32185900000087,"velocity":0.8818897637795275,"duration":0.24046582916668058},{"name":"F2","midi":41,"time":154.5760960000009,"velocity":0.8818897637795275,"duration":0.24046582916668058},{"name":"C3","midi":48,"time":154.8303330000009,"velocity":0.8818897637795275,"duration":0.24046582916668058},{"name":"F3","midi":53,"time":155.08457000000092,"velocity":0.8818897637795275,"duration":0.3612284041666669},{"name":"G2","midi":43,"time":155.59304400000093,"velocity":0.8818897637795275,"duration":0.24046582916668058},{"name":"D3","midi":50,"time":155.84728100000095,"velocity":0.8818897637795275,"duration":0.24046582916668058},{"name":"G3","midi":55,"time":156.10151800000097,"velocity":0.8818897637795275,"duration":0.24046582916668058},{"name":"D3","midi":50,"time":156.35575500000098,"velocity":0.8818897637795275,"duration":0.24046582916668058},{"name":"A#2","midi":46,"time":156.609992000001,"velocity":0.8818897637795275,"duration":0.24046582916668058},{"name":"F3","midi":53,"time":156.86422900000102,"velocity":0.8818897637795275,"duration":0.24046582916668058},{"name":"A#3","midi":58,"time":157.11846600000104,"velocity":0.8818897637795275,"duration":0.3612284041666669},{"name":"C3","midi":48,"time":157.62694000000104,"velocity":0.8818897637795275,"duration":0.24046582916668058},{"name":"G3","midi":55,"time":157.88117700000106,"velocity":0.8818897637795275,"duration":0.24046582916668058},{"name":"C4","midi":60,"time":158.13541400000108,"velocity":0.8818897637795275,"duration":0.24046582916668058},{"name":"G3","midi":55,"time":158.3896510000011,"velocity":0.8818897637795275,"duration":0.24046582916668058},{"name":"F2","midi":41,"time":158.6438880000011,"velocity":0.8818897637795275,"duration":0.24046582916668058},{"name":"C3","midi":48,"time":158.89812500000113,"velocity":0.8818897637795275,"duration":0.24046582916668058},{"name":"F3","midi":53,"time":159.15236200000115,"velocity":0.8818897637795275,"duration":0.3612284041666669},{"name":"G2","midi":43,"time":159.53371750000116,"velocity":0.8818897637795275,"duration":0.24046582916668058},{"name":"D3","midi":50,"time":159.78795450000118,"velocity":0.8818897637795275,"duration":0.24046582916668058},{"name":"G3","midi":55,"time":160.0421915000012,"velocity":0.8818897637795275,"duration":0.3612284041666669},{"name":"D3","midi":50,"time":160.4235470000012,"velocity":0.8818897637795275,"duration":0.24046582916668058},{"name":"A#2","midi":46,"time":160.67778400000122,"velocity":0.8818897637795275,"duration":0.24046582916668058},{"name":"F3","midi":53,"time":160.93202100000124,"velocity":0.8818897637795275,"duration":0.24046582916668058},{"name":"A#3","midi":58,"time":161.18625800000126,"velocity":0.8818897637795275,"duration":0.24046582916668058},{"name":"F3","midi":53,"time":161.44049500000128,"velocity":0.8818897637795275,"duration":0.24046582916668058},{"name":"C3","midi":48,"time":161.6947320000013,"velocity":0.8818897637795275,"duration":0.24046582916668058},{"name":"G3","midi":55,"time":161.9489690000013,"velocity":0.8818897637795275,"duration":0.24046582916668058},{"name":"C4","midi":60,"time":162.20320600000133,"velocity":0.8818897637795275,"duration":0.48199097916665323},{"name":"F2","midi":41,"time":162.7116800000013,"velocity":0.6299212598425197,"duration":0.24046582916668058},{"name":"C3","midi":48,"time":162.96591700000133,"velocity":0.6299212598425197,"duration":0.24046582916668058},{"name":"F3","midi":53,"time":163.22015400000134,"velocity":0.6299212598425197,"duration":0.3612284041666669},{"name":"G2","midi":43,"time":163.60150950000136,"velocity":0.6299212598425197,"duration":0.24046582916668058},{"name":"D3","midi":50,"time":163.85574650000137,"velocity":0.6299212598425197,"duration":0.24046582916668058},{"name":"G3","midi":55,"time":164.1099835000014,"velocity":0.6299212598425197,"duration":0.3612284041666669},{"name":"D3","midi":50,"time":164.4913390000014,"velocity":0.6299212598425197,"duration":0.24046582916668058},{"name":"A#2","midi":46,"time":164.74557600000142,"velocity":0.6299212598425197,"duration":0.24046582916668058},{"name":"F3","midi":53,"time":164.99981300000144,"velocity":0.6299212598425197,"duration":0.24046582916668058},{"name":"A#3","midi":58,"time":165.25405000000146,"velocity":0.6299212598425197,"duration":0.3612284041666669},{"name":"C3","midi":48,"time":165.63540550000147,"velocity":0.6299212598425197,"duration":0.24046582916668058},{"name":"G3","midi":55,"time":165.8896425000015,"velocity":0.6299212598425197,"duration":0.24046582916668058},{"name":"C4","midi":60,"time":166.1438795000015,"velocity":0.6299212598425197,"duration":0.3612284041666669},{"name":"G3","midi":55,"time":166.52523500000152,"velocity":0.6299212598425197,"duration":0.24046582916668058},{"name":"F2","midi":41,"time":166.77947200000153,"velocity":0.6299212598425197,"duration":0.24046582916668058},{"name":"C3","midi":48,"time":167.03370900000155,"velocity":0.6299212598425197,"duration":0.24046582916668058},{"name":"F3","midi":53,"time":167.28794600000157,"velocity":0.6299212598425197,"duration":0.3612284041666669},{"name":"G2","midi":43,"time":167.66930150000158,"velocity":0.6299212598425197,"duration":0.24046582916668058},{"name":"D3","midi":50,"time":167.9235385000016,"velocity":0.6299212598425197,"duration":0.24046582916668058},{"name":"G3","midi":55,"time":168.17777550000162,"velocity":0.6299212598425197,"duration":0.3612284041666669},{"name":"D3","midi":50,"time":168.55913100000163,"velocity":0.6299212598425197,"duration":0.24046582916668058},{"name":"A#2","midi":46,"time":168.81336800000165,"velocity":0.6299212598425197,"duration":0.24046582916668058},{"name":"F3","midi":53,"time":169.06760500000166,"velocity":0.6299212598425197,"duration":0.24046582916668058},{"name":"A#3","midi":58,"time":169.32184200000168,"velocity":0.6299212598425197,"duration":0.3612284041666669},{"name":"C3","midi":48,"time":169.7031975000017,"velocity":0.6299212598425197,"duration":0.24046582916668058},{"name":"G3","midi":55,"time":169.9574345000017,"velocity":0.6299212598425197,"duration":0.24046582916668058},{"name":"C4","midi":60,"time":170.21167150000173,"velocity":0.6299212598425197,"duration":0.3612284041666669},{"name":"G3","midi":55,"time":170.59302700000174,"velocity":0.6299212598425197,"duration":0.24046582916668058},{"name":"F2","midi":41,"time":170.84726400000176,"velocity":0.6299212598425197,"duration":0.24046582916668058},{"name":"C3","midi":48,"time":171.10150100000178,"velocity":0.6299212598425197,"duration":0.24046582916668058},{"name":"F3","midi":53,"time":171.3557380000018,"velocity":0.6299212598425197,"duration":0.3612284041666669},{"name":"G2","midi":43,"time":171.7370935000018,"velocity":0.6299212598425197,"duration":0.24046582916668058},{"name":"D3","midi":50,"time":171.99133050000182,"velocity":0.6299212598425197,"duration":0.24046582916668058},{"name":"G3","midi":55,"time":172.24556750000184,"velocity":0.6299212598425197,"duration":0.3612284041666669},{"name":"D3","midi":50,"time":172.62692300000185,"velocity":0.6299212598425197,"duration":0.24046582916668058},{"name":"A#2","midi":46,"time":172.88116000000187,"velocity":0.6299212598425197,"duration":0.24046582916668058},{"name":"F3","midi":53,"time":173.1353970000019,"velocity":0.6299212598425197,"duration":0.24046582916668058},{"name":"A#3","midi":58,"time":173.3896340000019,"velocity":0.6299212598425197,"duration":0.3612284041666669},{"name":"C3","midi":48,"time":173.77098950000192,"velocity":0.6299212598425197,"duration":0.24046582916668058},{"name":"G3","midi":55,"time":174.02522650000193,"velocity":0.6299212598425197,"duration":0.24046582916668058},{"name":"C4","midi":60,"time":174.27946350000195,"velocity":0.6299212598425197,"duration":0.3612284041666669},{"name":"G3","midi":55,"time":174.66081900000196,"velocity":0.6299212598425197,"duration":0.24046582916668058},{"name":"F2","midi":41,"time":174.91505600000198,"velocity":0.6299212598425197,"duration":0.24046582916668058},{"name":"C3","midi":48,"time":175.169293000002,"velocity":0.6299212598425197,"duration":0.24046582916668058},{"name":"F3","midi":53,"time":175.42353000000202,"velocity":0.6299212598425197,"duration":0.3612284041666669},{"name":"G2","midi":43,"time":175.80488550000203,"velocity":0.6299212598425197,"duration":0.24046582916668058},{"name":"D3","midi":50,"time":176.05912250000205,"velocity":0.6299212598425197,"duration":0.24046582916668058},{"name":"G3","midi":55,"time":176.31335950000206,"velocity":0.6299212598425197,"duration":0.3612284041666669},{"name":"D3","midi":50,"time":176.69471500000208,"velocity":0.6299212598425197,"duration":0.24046582916668058},{"name":"A#2","midi":46,"time":176.9489520000021,"velocity":0.6299212598425197,"duration":0.24046582916668058},{"name":"F3","midi":53,"time":177.2031890000021,"velocity":0.6299212598425197,"duration":0.24046582916668058},{"name":"A#3","midi":58,"time":177.45742600000213,"velocity":0.6299212598425197,"duration":0.3612284041666669}]}]}