{"header":{"title":"River Flows In You","artist":"Yiruma","source":"https://musescore.com/user/12461571/scores/3291706","bpm":64.99978333405555,"duration":166.98324891666888},"tracks":[{"instrument_number":0,"notes":[{"name":"A5","midi":81,"time":0,"velocity":0.5039370078740157,"duration":0.43653991666666664},{"name":"G#5","midi":80,"time":0.46153999999999995,"velocity":0.5039370078740157,"duration":0.4365399166666667},{"name":"A5","midi":81,"time":0.92308,"velocity":0.5039370078740157,"duration":0.4365399166666667},{"name":"G#5","midi":80,"time":1.38462,"velocity":0.5039370078740157,"duration":0.4365399166666666},{"name":"A5","midi":81,"time":1.8461599999999998,"velocity":0.5039370078740157,"duration":0.4365399166666668},{"name":"E5","midi":76,"time":2.3077,"velocity":0.5039370078740157,"duration":0.4365399166666668},{"name":"A5","midi":81,"time":2.7692400000000004,"velocity":0.5039370078740157,"duration":0.4365399166666668},{"name":"D5","midi":74,"time":3.2307800000000007,"velocity":0.5039370078740157,"duration":3.5057809166666662},{"name":"A4","midi":69,"time":6.9231,"velocity":0.5039370078740157,"duration":0.21730841666666656},{"name":"C#5","midi":73,"time":7.1538699999999995,"velocity":0.5039370078740157,"duration":0.21730841666666656},{"name":"A5","midi":81,"time":7.384639999999999,"velocity":0.5039370078740157,"duration":0.4365399166666668},{"name":"G#5","midi":80,"time":7.8461799999999995,"velocity":0.5039370078740157,"duration":0.4365399166666668},{"name":"A5","midi":81,"time":8.30772,"velocity":0.5039370078740157,"duration":0.4365399166666659},{"name":"G#5","midi":80,"time":8.76926,"velocity":0.5039370078740157,"duration":0.4365399166666659},{"name":"A5","midi":81,"time":9.230799999999999,"velocity":0.5039370078740157,"duration":0.4365399166666659},{"name":"E5","midi":76,"time":9.692339999999998,"velocity":0.5039370078740157,"duration":0.4365399166666659},{"name":"A5","midi":81,"time":10.153879999999997,"velocity":0.5039370078740157,"duration":0.4365399166666659},{"name":"D5","midi":74,"time":10.615419999999997,"velocity":0.5039370078740157,"duration":3.505780916666666},{"name":"A4","midi":69,"time":14.307739999999995,"velocity":0.5039370078740157,"duration":0.21730841666666656},{"name":"C#5","midi":73,"time":14.538509999999995,"velocity":0.5039370078740157,"duration":0.21730841666666656},{"name":"A5","midi":81,"time":14.769279999999995,"velocity":0.5039370078740157,"duration":0.4365399166666659},{"name":"G#5","midi":80,"time":15.230819999999994,"velocity":0.5039370078740157,"duration":0.21730841666666656},{"name":"A5","midi":81,"time":15.461589999999994,"velocity":0.5039370078740157,"duration":0.4365399166666659},{"name":"A4","midi":69,"time":15.923129999999993,"velocity":0.5039370078740157,"duration":0.21730841666666834},{"name":"G#5","midi":80,"time":16.153899999999997,"velocity":0.5039370078740157,"duration":0.21730841666666834},{"name":"A5","midi":81,"time":16.38467,"velocity":0.5039370078740157,"duration":0.4365399166666677},{"name":"A4","midi":69,"time":16.84621,"velocity":0.5039370078740157,"duration":0.21730841666666834},{"name":"E5","midi":76,"time":17.076980000000002,"velocity":0.5039370078740157,"duration":0.21730841666666834},{"name":"A5","midi":81,"time":17.307750000000006,"velocity":0.5039370078740157,"duration":0.4365399166666677},{"name":"A4","midi":69,"time":17.769290000000005,"velocity":0.5039370078740157,"duration":0.21730841666666834},{"name":"D5","midi":74,"time":18.00006000000001,"velocity":0.5039370078740157,"duration":0.21730841666666834},{"name":"A4","midi":69,"time":18.23083000000001,"velocity":0.5039370078740157,"duration":0.21730841666666834},{"name":"B4","midi":71,"time":18.461600000000015,"velocity":0.5039370078740157,"duration":0.0615386666666673},{"name":"C#5","midi":73,"time":18.525061750000017,"velocity":0.5039370078740157,"duration":0.3750012500000004},{"name":"D5","midi":74,"time":18.923140000000018,"velocity":0.5039370078740157,"duration":0.4365399166666677},{"name":"A4","midi":69,"time":19.384680000000017,"velocity":0.5039370078740157,"duration":0.4365399166666677},{"name":"E5","midi":76,"time":19.384680000000017,"velocity":0.5039370078740157,"duration":0.4365399166666677},{"name":"C#5","midi":73,"time":19.846220000000017,"velocity":0.5039370078740157,"duration":0.4365399166666677},{"name":"G#4","midi":68,"time":20.307760000000016,"velocity":0.5039370078740157,"duration":1.3134659166666651},{"name":"B4","midi":71,"time":20.307760000000016,"velocity":0.5039370078740157,"duration":1.3134659166666651},{"name":"A4","midi":69,"time":21.692380000000014,"velocity":0.5039370078740157,"duration":0.21730841666666834},{"name":"G#4","midi":68,"time":21.923150000000017,"velocity":0.5039370078740157,"duration":0.21730841666666834},{"name":"A4","midi":69,"time":22.15392000000002,"velocity":0.5039370078740157,"duration":1.0942344166666658},{"name":"E4","midi":64,"time":23.30777000000002,"velocity":0.5039370078740157,"duration":0.21730841666666834},{"name":"A4","midi":69,"time":23.538540000000022,"velocity":0.5039370078740157,"duration":0.21730841666666834},{"name":"B4","midi":71,"time":23.769310000000026,"velocity":0.5039370078740157,"duration":0.21730841666666834},{"name":"C#5","midi":73,"time":24.00008000000003,"velocity":0.5039370078740157,"duration":1.3134659166666651},{"name":"C#5","midi":73,"time":25.384700000000027,"velocity":0.5039370078740157,"duration":0.21730841666666834},{"name":"D5","midi":74,"time":25.61547000000003,"velocity":0.5039370078740157,"duration":0.21730841666666834},{"name":"E5","midi":76,"time":25.846240000000034,"velocity":0.5039370078740157,"duration":1.3134659166666651},{"name":"D5","midi":74,"time":27.230860000000032,"velocity":0.5039370078740157,"duration":0.21730841666666834},{"name":"C#5","midi":73,"time":27.461630000000035,"velocity":0.5039370078740157,"duration":0.21730841666666834},{"name":"B4","midi":71,"time":27.69240000000004,"velocity":0.5039370078740157,"duration":1.7519289166666674},{"name":"A4","midi":69,"time":29.53856000000004,"velocity":0.5039370078740157,"duration":0.11346191666666527},{"name":"C#5","midi":73,"time":29.65394500000004,"velocity":0.5039370078740157,"duration":0.11346191666666527},{"name":"A5","midi":81,"time":29.76933000000004,"velocity":0.5039370078740157,"duration":0.21730841666666834},{"name":"G#5","midi":80,"time":30.000100000000042,"velocity":0.5039370078740157,"duration":0.21730841666666834},{"name":"A5","midi":81,"time":30.230870000000046,"velocity":0.5039370078740157,"duration":0.4365399166666677},{"name":"A4","midi":69,"time":30.692410000000045,"velocity":0.5039370078740157,"duration":0.21730841666666834},{"name":"G#5","midi":80,"time":30.92318000000005,"velocity":0.5039370078740157,"duration":0.21730841666666834},{"name":"A5","midi":81,"time":31.15395000000005,"velocity":0.5039370078740157,"duration":0.4365399166666677},{"name":"A4","midi":69,"time":31.61549000000005,"velocity":0.5039370078740157,"duration":0.21730841666666834},{"name":"E5","midi":76,"time":31.846260000000054,"velocity":0.5039370078740157,"duration":0.21730841666666478},{"name":"A5","midi":81,"time":32.07703000000005,"velocity":0.5039370078740157,"duration":0.4365399166666677},{"name":"A4","midi":69,"time":32.53857000000005,"velocity":0.5039370078740157,"duration":0.21730841666666834},{"name":"D5","midi":74,"time":32.76934000000005,"velocity":0.5039370078740157,"duration":0.21730841666666834},{"name":"A4","midi":69,"time":33.00011000000005,"velocity":0.5039370078740157,"duration":0.21730841666666834},{"name":"B4","midi":71,"time":33.23088000000005,"velocity":0.5039370078740157,"duration":0.061538666666663744},{"name":"C#5","midi":73,"time":33.294341750000044,"velocity":0.5039370078740157,"duration":0.37500124999999684},{"name":"D5","midi":74,"time":33.69242000000004,"velocity":0.5039370078740157,"duration":0.4365399166666677},{"name":"E5","midi":76,"time":34.15396000000004,"velocity":0.5039370078740157,"duration":0.4365399166666677},{"name":"C#6","midi":85,"time":34.61550000000004,"velocity":0.5039370078740157,"duration":0.4365399166666677},{"name":"B5","midi":83,"time":35.07704000000004,"velocity":0.5039370078740157,"duration":0.4365399166666677},{"name":"E5","midi":76,"time":35.53858000000004,"velocity":0.5039370078740157,"duration":0.4365399166666677},{"name":"B5","midi":83,"time":36.00012000000004,"velocity":0.5039370078740157,"duration":0.11346191666666527},{"name":"C#6","midi":85,"time":36.115505000000034,"velocity":0.5039370078740157,"duration":0.11346191666666527},{"name":"B5","midi":83,"time":36.23089000000003,"velocity":0.5039370078740157,"duration":0.21730841666666834},{"name":"A5","midi":81,"time":36.46166000000003,"velocity":0.5039370078740157,"duration":0.21730841666666834},{"name":"G#5","midi":80,"time":36.69243000000003,"velocity":0.5039370078740157,"duration":0.21730841666666834},{"name":"E5","midi":76,"time":36.92320000000003,"velocity":0.5039370078740157,"duration":1.3134659166666651},{"name":"A5","midi":81,"time":36.92320000000003,"velocity":0.5039370078740157,"duration":1.3134659166666651},{"name":"A4","midi":69,"time":38.30782000000003,"velocity":0.5039370078740157,"duration":0.21730841666666834},{"name":"B4","midi":71,"time":38.53859000000003,"velocity":0.5039370078740157,"duration":0.21730841666666834},{"name":"C#5","midi":73,"time":38.76936000000003,"velocity":0.5039370078740157,"duration":0.4365399166666677},{"name":"E4","midi":64,"time":39.23090000000003,"velocity":0.5039370078740157,"duration":0.4365399166666677},{"name":"A4","midi":69,"time":39.692440000000026,"velocity":0.5039370078740157,"duration":0.4365399166666677},{"name":"C#5","midi":73,"time":40.153980000000026,"velocity":0.5039370078740157,"duration":0.21730841666666834},{"name":"D5","midi":74,"time":40.384750000000025,"velocity":0.5039370078740157,"duration":0.21730841666666834},{"name":"E5","midi":76,"time":40.615520000000025,"velocity":0.5039370078740157,"duration":0.4365399166666677},{"name":"E4","midi":64,"time":41.077060000000024,"velocity":0.5039370078740157,"duration":0.4365399166666677},{"name":"C#5","midi":73,"time":41.538600000000024,"velocity":0.5039370078740157,"duration":0.4365399166666677},{"name":"D5","midi":74,"time":42.00014000000002,"velocity":0.5039370078740157,"duration":0.21730841666666834},{"name":"C#5","midi":73,"time":42.23091000000002,"velocity":0.5039370078740157,"duration":0.21730841666666834},{"name":"B4","midi":71,"time":42.46168000000002,"velocity":0.5039370078740157,"duration":0.8750029166666664},{"name":"A5","midi":81,"time":43.38476000000002,"velocity":0.5039370078740157,"duration":0.21730841666666834},{"name":"B5","midi":83,"time":43.61553000000002,"velocity":0.5039370078740157,"duration":0.21730841666666834},{"name":"A5","midi":81,"time":43.84630000000002,"velocity":0.5039370078740157,"duration":0.21730841666666834},{"name":"G#5","midi":80,"time":44.07707000000002,"velocity":0.5039370078740157,"duration":0.21730841666666834},{"name":"A5","midi":81,"time":44.30784000000002,"velocity":0.5039370078740157,"duration":0.21730841666666834},{"name":"A4","midi":69,"time":44.53861000000002,"velocity":0.5039370078740157,"duration":0.21730841666666834},{"name":"E5","midi":76,"time":44.76938000000002,"velocity":0.5039370078740157,"duration":0.21730841666666834},{"name":"A4","midi":69,"time":45.00015000000002,"velocity":0.5039370078740157,"duration":0.21730841666666834},{"name":"A5","midi":81,"time":45.23092000000002,"velocity":0.5039370078740157,"duration":0.21730841666666834},{"name":"B5","midi":83,"time":45.46169000000002,"velocity":0.5039370078740157,"duration":0.21730841666666834},{"name":"A5","midi":81,"time":45.69246000000002,"velocity":0.5039370078740157,"duration":0.21730841666666834},{"name":"G#5","midi":80,"time":45.92323000000002,"velocity":0.5039370078740157,"duration":0.21730841666666834},{"name":"A5","midi":81,"time":46.15400000000002,"velocity":0.5039370078740157,"duration":0.21730841666666834},{"name":"A4","midi":69,"time":46.38477000000002,"velocity":0.5039370078740157,"duration":0.21730841666666834},{"name":"E5","midi":76,"time":46.61554000000002,"velocity":0.5039370078740157,"duration":0.21730841666666834},{"name":"A4","midi":69,"time":46.84631000000002,"velocity":0.5039370078740157,"duration":0.21730841666666834},{"name":"A5","midi":81,"time":47.07708000000002,"velocity":0.5039370078740157,"duration":0.21730841666666834},{"name":"B5","midi":83,"time":47.307850000000016,"velocity":0.5039370078740157,"duration":0.21730841666666834},{"name":"A5","midi":81,"time":47.538620000000016,"velocity":0.5039370078740157,"duration":0.21730841666666834},{"name":"G#5","midi":80,"time":47.769390000000016,"velocity":0.5039370078740157,"duration":0.21730841666666834},{"name":"A5","midi":81,"time":48.000160000000015,"velocity":0.5039370078740157,"duration":0.21730841666666834},{"name":"B5","midi":83,"time":48.230930000000015,"velocity":0.5039370078740157,"duration":0.21730841666666834},{"name":"C#6","midi":85,"time":48.461700000000015,"velocity":0.5039370078740157,"duration":0.21730841666666834},{"name":"D6","midi":86,"time":48.692470000000014,"velocity":0.5039370078740157,"duration":0.21730841666666834},{"name":"E6","midi":88,"time":48.923240000000014,"velocity":0.5039370078740157,"duration":0.21730841666666834},{"name":"C#6","midi":85,"time":49.154010000000014,"velocity":0.5039370078740157,"duration":0.21730841666666834},{"name":"B5","midi":83,"time":49.38478000000001,"velocity":0.5039370078740157,"duration":0.21730841666666834},{"name":"A5","midi":81,"time":49.61555000000001,"velocity":0.5039370078740157,"duration":0.21730841666666834},{"name":"G#5","midi":80,"time":49.84632000000001,"velocity":0.5039370078740157,"duration":0.4365399166666677},{"name":"B4","midi":71,"time":50.30786000000001,"velocity":0.5039370078740157,"duration":0.4365399166666677},{"name":"A5","midi":81,"time":50.76940000000001,"velocity":0.5039370078740157,"duration":0.21730841666666834},{"name":"B5","midi":83,"time":51.00017000000001,"velocity":0.5039370078740157,"duration":0.21730841666666834},{"name":"A5","midi":81,"time":51.23094000000001,"velocity":0.5039370078740157,"duration":0.21730841666666834},{"name":"G#5","midi":80,"time":51.46171000000001,"velocity":0.5039370078740157,"duration":0.21730841666666834},{"name":"A5","midi":81,"time":51.69248000000001,"velocity":0.5039370078740157,"duration":0.21730841666666834},{"name":"A4","midi":69,"time":51.92325000000001,"velocity":0.5039370078740157,"duration":0.21730841666666834},{"name":"E5","midi":76,"time":52.15402000000001,"velocity":0.5039370078740157,"duration":0.21730841666666834},{"name":"A4","midi":69,"time":52.38479000000001,"velocity":0.5039370078740157,"duration":0.21730841666666834},{"name":"A5","midi":81,"time":52.61556000000001,"velocity":0.5039370078740157,"duration":0.21730841666666834},{"name":"B5","midi":83,"time":52.84633000000001,"velocity":0.5039370078740157,"duration":0.21730841666666834},{"name":"A5","midi":81,"time":53.07710000000001,"velocity":0.5039370078740157,"duration":0.21730841666666834},{"name":"G#5","midi":80,"time":53.30787000000001,"velocity":0.5039370078740157,"duration":0.21730841666666834},{"name":"A5","midi":81,"time":53.53864000000001,"velocity":0.5039370078740157,"duration":0.21730841666666834},{"name":"A4","midi":69,"time":53.76941000000001,"velocity":0.5039370078740157,"duration":0.21730841666666834},{"name":"E5","midi":76,"time":54.00018000000001,"velocity":0.5039370078740157,"duration":0.21730841666666834},{"name":"A4","midi":69,"time":54.23095000000001,"velocity":0.5039370078740157,"duration":0.21730841666666834},{"name":"A5","midi":81,"time":54.46172000000001,"velocity":0.5039370078740157,"duration":0.21730841666666834},{"name":"B5","midi":83,"time":54.69249000000001,"velocity":0.5039370078740157,"duration":0.21730841666666834},{"name":"A5","midi":81,"time":54.923260000000006,"velocity":0.5039370078740157,"duration":0.21730841666666834},{"name":"G#5","midi":80,"time":55.154030000000006,"velocity":0.5039370078740157,"duration":0.21730841666666834},{"name":"A5","midi":81,"time":55.384800000000006,"velocity":0.5039370078740157,"duration":0.21730841666666834},{"name":"B5","midi":83,"time":55.615570000000005,"velocity":0.5039370078740157,"duration":0.21730841666666834},{"name":"C#6","midi":85,"time":55.846340000000005,"velocity":0.5039370078740157,"duration":0.21730841666666834},{"name":"D6","midi":86,"time":56.077110000000005,"velocity":0.5039370078740157,"duration":0.21730841666666834},{"name":"E6","midi":88,"time":56.307880000000004,"velocity":0.5039370078740157,"duration":0.21730841666666834},{"name":"C#6","midi":85,"time":56.538650000000004,"velocity":0.5039370078740157,"duration":0.21730841666666834},{"name":"B5","midi":83,"time":56.769420000000004,"velocity":0.5039370078740157,"duration":0.21730841666666834},{"name":"A5","midi":81,"time":57.00019,"velocity":0.5039370078740157,"duration":0.21730841666666834},{"name":"G#5","midi":80,"time":57.23096,"velocity":0.5039370078740157,"duration":0.4365399166666677},{"name":"B4","midi":71,"time":57.6925,"velocity":0.5039370078740157,"duration":0.4365399166666677},{"name":"A5","midi":81,"time":58.15404,"velocity":0.5039370078740157,"duration":0.21730841666666834},{"name":"A5","midi":81,"time":58.38481,"velocity":0.5039370078740157,"duration":0.1076926666666651},{"name":"B5","midi":83,"time":58.500195,"velocity":0.5039370078740157,"duration":0.1076926666666651},{"name":"A5","midi":81,"time":58.615579999999994,"velocity":0.5039370078740157,"duration":0.21730841666666834},{"name":"G#5","midi":80,"time":58.846349999999994,"velocity":0.5039370078740157,"duration":0.21730841666666834},{"name":"A5","midi":81,"time":59.077119999999994,"velocity":0.5039370078740157,"duration":0.21730841666666834},{"name":"A4","midi":69,"time":59.30788999999999,"velocity":0.5039370078740157,"duration":0.21730841666666834},{"name":"E5","midi":76,"time":59.53865999999999,"velocity":0.5039370078740157,"duration":0.21730841666666834},{"name":"A4","midi":69,"time":59.76942999999999,"velocity":0.5039370078740157,"duration":0.21730841666666834},{"name":"A5","midi":81,"time":60.00019999999999,"velocity":0.5039370078740157,"duration":0.21730841666666834},{"name":"A5","midi":81,"time":60.23096999999999,"velocity":0.5039370078740157,"duration":0.1076926666666651},{"name":"B5","midi":83,"time":60.34635499999999,"velocity":0.5039370078740157,"duration":0.1076926666666651},{"name":"A5","midi":81,"time":60.461739999999985,"velocity":0.5039370078740157,"duration":0.21730841666666834},{"name":"G#5","midi":80,"time":60.692509999999984,"velocity":0.5039370078740157,"duration":0.21730841666666834},{"name":"A5","midi":81,"time":60.923279999999984,"velocity":0.5039370078740157,"duration":0.21730841666666834},{"name":"A4","midi":69,"time":61.154049999999984,"velocity":0.5039370078740157,"duration":0.21730841666666834},{"name":"E5","midi":76,"time":61.38481999999998,"velocity":0.5039370078740157,"duration":0.21730841666666834},{"name":"A4","midi":69,"time":61.61558999999998,"velocity":0.5039370078740157,"duration":0.21730841666666834},{"name":"A5","midi":81,"time":61.84635999999998,"velocity":0.5039370078740157,"duration":0.21730841666666834},{"name":"A5","midi":81,"time":62.07712999999998,"velocity":0.5039370078740157,"duration":0.1076926666666651},{"name":"B5","midi":83,"time":62.19251499999998,"velocity":0.5039370078740157,"duration":0.1076926666666651},{"name":"A5","midi":81,"time":62.307899999999975,"velocity":0.5039370078740157,"duration":0.21730841666666834},{"name":"G#5","midi":80,"time":62.538669999999975,"velocity":0.5039370078740157,"duration":0.21730841666666834},{"name":"A5","midi":81,"time":62.769439999999975,"velocity":0.5039370078740157,"duration":0.21730841666666834},{"name":"B5","midi":83,"time":63.000209999999974,"velocity":0.5039370078740157,"duration":0.21730841666666834},{"name":"C#6","midi":85,"time":63.230979999999974,"velocity":0.5039370078740157,"duration":0.21730841666666834},{"name":"D6","midi":86,"time":63.461749999999974,"velocity":0.5039370078740157,"duration":0.21730841666666834},{"name":"E6","midi":88,"time":63.69251999999997,"velocity":0.5039370078740157,"duration":0.21730841666666834},{"name":"C#6","midi":85,"time":63.92328999999997,"velocity":0.5039370078740157,"duration":0.21730841666666123},{"name":"B5","midi":83,"time":64.15405999999997,"velocity":0.5039370078740157,"duration":0.21730841666666834},{"name":"A5","midi":81,"time":64.38482999999998,"velocity":0.5039370078740157,"duration":0.21730841666666834},{"name":"G#5","midi":80,"time":64.61559999999999,"velocity":0.5039370078740157,"duration":0.4365399166666606},{"name":"B4","midi":71,"time":65.07713999999999,"velocity":0.5039370078740157,"duration":0.4365399166666606},{"name":"A5","midi":81,"time":65.53867999999999,"velocity":0.5039370078740157,"duration":0.21730841666666834},{"name":"A5","midi":81,"time":65.76944999999999,"velocity":0.5039370078740157,"duration":0.1076926666666651},{"name":"B5","midi":83,"time":65.884835,"velocity":0.5039370078740157,"duration":0.1076926666666651},{"name":"A5","midi":81,"time":66.00022,"velocity":0.5039370078740157,"duration":0.21730841666666834},{"name":"G#5","midi":80,"time":66.23099,"velocity":0.5039370078740157,"duration":0.21730841666666834},{"name":"A5","midi":81,"time":66.46176000000001,"velocity":0.5039370078740157,"duration":0.21730841666666834},{"name":"A4","midi":69,"time":66.69253000000002,"velocity":0.5039370078740157,"duration":0.21730841666666834},{"name":"E5","midi":76,"time":66.92330000000003,"velocity":0.5039370078740157,"duration":0.21730841666666834},{"name":"A4","midi":69,"time":67.15407000000003,"velocity":0.5039370078740157,"duration":0.21730841666666834},{"name":"A5","midi":81,"time":67.38484000000004,"velocity":0.5039370078740157,"duration":0.21730841666666834},{"name":"A5","midi":81,"time":67.61561000000005,"velocity":0.5039370078740157,"duration":0.1076926666666651},{"name":"B5","midi":83,"time":67.73099500000005,"velocity":0.5039370078740157,"duration":0.1076926666666651},{"name":"A5","midi":81,"time":67.84638000000005,"velocity":0.5039370078740157,"duration":0.21730841666666834},{"name":"G#5","midi":80,"time":68.07715000000006,"velocity":0.5039370078740157,"duration":0.21730841666666834},{"name":"A5","midi":81,"time":68.30792000000007,"velocity":0.5039370078740157,"duration":0.21730841666666834},{"name":"A4","midi":69,"time":68.53869000000007,"velocity":0.5039370078740157,"duration":0.21730841666666834},{"name":"E5","midi":76,"time":68.76946000000008,"velocity":0.5039370078740157,"duration":0.21730841666666834},{"name":"A4","midi":69,"time":69.00023000000009,"velocity":0.5039370078740157,"duration":0.21730841666666834},{"name":"A5","midi":81,"time":69.2310000000001,"velocity":0.5039370078740157,"duration":0.21730841666666834},{"name":"B5","midi":83,"time":69.4617700000001,"velocity":0.5039370078740157,"duration":0.21730841666666834},{"name":"A5","midi":81,"time":69.69254000000011,"velocity":0.5039370078740157,"duration":0.21730841666666834},{"name":"G#5","midi":80,"time":69.92331000000011,"velocity":0.5039370078740157,"duration":0.21730841666666834},{"name":"A5","midi":81,"time":70.15408000000012,"velocity":0.5039370078740157,"duration":0.21730841666666834},{"name":"B5","midi":83,"time":70.38485000000013,"velocity":0.5039370078740157,"duration":0.21730841666666834},{"name":"C#6","midi":85,"time":70.61562000000013,"velocity":0.5039370078740157,"duration":0.21730841666666834},{"name":"D6","midi":86,"time":70.84639000000014,"velocity":0.5039370078740157,"duration":0.21730841666666834},{"name":"E6","midi":88,"time":71.07716000000015,"velocity":0.5039370078740157,"duration":0.21730841666666834},{"name":"C#6","midi":85,"time":71.30793000000016,"velocity":0.5039370078740157,"duration":0.21730841666666834},{"name":"B5","midi":83,"time":71.53870000000016,"velocity":0.5039370078740157,"duration":0.21730841666666834},{"name":"A5","midi":81,"time":71.76947000000017,"velocity":0.5039370078740157,"duration":0.21730841666666834},{"name":"G#5","midi":80,"time":72.00024000000018,"velocity":0.5039370078740157,"duration":0.4365399166666606},{"name":"B4","midi":71,"time":72.46178000000018,"velocity":0.5039370078740157,"duration":0.4365399166666606},{"name":"G#4","midi":68,"time":72.92332000000017,"velocity":0.5039370078740157,"duration":0.4365399166666606},{"name":"E4","midi":64,"time":73.38486000000017,"velocity":0.5039370078740157,"duration":0.8750029166666735},{"name":"A4","midi":69,"time":74.30794000000019,"velocity":0.5039370078740157,"duration":0.21730841666666834},{"name":"C#5","midi":73,"time":74.5387100000002,"velocity":0.5039370078740157,"duration":0.21730841666666834},{"name":"A5","midi":81,"time":74.7694800000002,"velocity":0.5039370078740157,"duration":0.4365399166666606},{"name":"G#5","midi":80,"time":75.2310200000002,"velocity":0.5039370078740157,"duration":0.21730841666666834},{"name":"A5","midi":81,"time":75.4617900000002,"velocity":0.5039370078740157,"duration":0.4365399166666606},{"name":"A4","midi":69,"time":75.9233300000002,"velocity":0.5039370078740157,"duration":0.21730841666666834},{"name":"G#5","midi":80,"time":76.15410000000021,"velocity":0.5039370078740157,"duration":0.21730841666666834},{"name":"A5","midi":81,"time":76.38487000000022,"velocity":0.5039370078740157,"duration":0.4365399166666606},{"name":"A4","midi":69,"time":76.84641000000022,"velocity":0.5039370078740157,"duration":0.21730841666666834},{"name":"G#5","midi":80,"time":77.07718000000023,"velocity":0.5039370078740157,"duration":0.21730841666666834},{"name":"A5","midi":81,"time":77.30795000000023,"velocity":0.5039370078740157,"duration":0.4365399166666606},{"name":"A4","midi":69,"time":77.76949000000023,"velocity":0.5039370078740157,"duration":0.21730841666666834},{"name":"D5","midi":74,"time":78.00026000000024,"velocity":0.5039370078740157,"duration":0.21730841666666834},{"name":"A4","midi":69,"time":78.23103000000025,"velocity":0.5039370078740157,"duration":0.21730841666666834},{"name":"B4","midi":71,"time":78.46180000000025,"velocity":0.5039370078740157,"duration":0.061538666666663744},{"name":"C#5","midi":73,"time":78.52526175000025,"velocity":0.5039370078740157,"duration":0.37500124999999684},{"name":"D5","midi":74,"time":78.92334000000025,"velocity":0.5039370078740157,"duration":0.4365399166666606},{"name":"A4","midi":69,"time":79.38488000000025,"velocity":0.5039370078740157,"duration":0.4365399166666606},{"name":"E5","midi":76,"time":79.38488000000025,"velocity":0.5039370078740157,"duration":0.4365399166666606},{"name":"C#5","midi":73,"time":79.84642000000025,"velocity":0.5039370078740157,"duration":0.4365399166666606},{"name":"G#4","midi":68,"time":80.30796000000025,"velocity":0.5039370078740157,"duration":1.3134659166666722},{"name":"B4","midi":71,"time":80.30796000000025,"velocity":0.5039370078740157,"duration":1.3134659166666722},{"name":"A4","midi":69,"time":81.69258000000026,"velocity":0.5039370078740157,"duration":0.21730841666666834},{"name":"G#4","midi":68,"time":81.92335000000027,"velocity":0.5039370078740157,"duration":0.21730841666666834},{"name":"E4","midi":64,"time":82.15412000000028,"velocity":0.5039370078740157,"duration":0.9211569166666607},{"name":"A4","midi":69,"time":82.15412000000028,"velocity":0.5039370078740157,"duration":0.9211569166666607},{"name":"E4","midi":64,"time":83.07720000000027,"velocity":0.5039370078740157,"duration":0.21730841666666834},{"name":"A4","midi":69,"time":83.07720000000027,"velocity":0.5039370078740157,"duration":0.21730841666666834},{"name":"E4","midi":64,"time":83.30797000000028,"velocity":0.5039370078740157,"duration":0.21730841666666834},{"name":"A4","midi":69,"time":83.53874000000029,"velocity":0.5039370078740157,"duration":0.21730841666666834},{"name":"B4","midi":71,"time":83.7695100000003,"velocity":0.5039370078740157,"duration":0.21730841666666834},{"name":"C#5","midi":73,"time":84.0002800000003,"velocity":0.5039370078740157,"duration":0.21730841666666834},{"name":"E4","midi":64,"time":84.23105000000031,"velocity":0.5039370078740157,"duration":0.21730841666666834},{"name":"A4","midi":69,"time":84.46182000000032,"velocity":0.5039370078740157,"duration":0.21730841666666834},{"name":"B4","midi":71,"time":84.69259000000032,"velocity":0.5039370078740157,"duration":0.21730841666666834},{"name":"C#5","midi":73,"time":84.92336000000033,"velocity":0.5039370078740157,"duration":0.21730841666666834},{"name":"E4","midi":64,"time":85.15413000000034,"velocity":0.5039370078740157,"duration":0.21730841666666834},{"name":"C#5","midi":73,"time":85.38490000000034,"velocity":0.5039370078740157,"duration":0.21730841666666834},{"name":"D5","midi":74,"time":85.61567000000035,"velocity":0.5039370078740157,"duration":0.21730841666666834},{"name":"E5","midi":76,"time":85.84644000000036,"velocity":0.5039370078740157,"duration":0.21730841666666834},{"name":"E4","midi":64,"time":86.07721000000036,"velocity":0.5039370078740157,"duration":0.21730841666666834},{"name":"C#5","midi":73,"time":86.30798000000037,"velocity":0.5039370078740157,"duration":0.21730841666666834},{"name":"D5","midi":74,"time":86.53875000000038,"velocity":0.5039370078740157,"duration":0.21730841666666834},{"name":"E5","midi":76,"time":86.76952000000038,"velocity":0.5039370078740157,"duration":0.21730841666666834},{"name":"E4","midi":64,"time":87.00029000000039,"velocity":0.5039370078740157,"duration":0.21730841666666834},{"name":"D5","midi":74,"time":87.2310600000004,"velocity":0.5039370078740157,"duration":0.21730841666666834},{"name":"C#5","midi":73,"time":87.4618300000004,"velocity":0.5039370078740157,"duration":0.21730841666666834},{"name":"B4","midi":71,"time":87.69260000000041,"velocity":0.5039370078740157,"duration":0.21730841666666834},{"name":"E4","midi":64,"time":87.92337000000042,"velocity":0.5039370078740157,"duration":0.21730841666666834},{"name":"D5","midi":74,"time":88.15414000000042,"velocity":0.5039370078740157,"duration":0.21730841666666834},{"name":"C#5","midi":73,"time":88.38491000000043,"velocity":0.5039370078740157,"duration":0.21730841666666834},{"name":"B4","midi":71,"time":88.61568000000044,"velocity":0.5039370078740157,"duration":0.4365399166666606},{"name":"G#4","midi":68,"time":89.07722000000044,"velocity":0.5039370078740157,"duration":0.4365399166666606},{"name":"C#5","midi":73,"time":89.53876000000044,"velocity":0.5039370078740157,"duration":0.061538666666663744},{"name":"A5","midi":81,"time":89.60222175000044,"velocity":0.5039370078740157,"duration":0.37500124999999684},{"name":"G#5","midi":80,"time":90.00030000000044,"velocity":0.5039370078740157,"duration":0.21730841666666834},{"name":"A5","midi":81,"time":90.23107000000044,"velocity":0.5039370078740157,"duration":0.4365399166666606},{"name":"A4","midi":69,"time":90.69261000000044,"velocity":0.5039370078740157,"duration":0.21730841666666834},{"name":"G#5","midi":80,"time":90.92338000000045,"velocity":0.5039370078740157,"duration":0.21730841666666834},{"name":"A5","midi":81,"time":91.15415000000046,"velocity":0.5039370078740157,"duration":0.4365399166666606},{"name":"A4","midi":69,"time":91.61569000000046,"velocity":0.5039370078740157,"duration":0.21730841666666834},{"name":"E5","midi":76,"time":91.84646000000046,"velocity":0.5039370078740157,"duration":0.21730841666666834},{"name":"A5","midi":81,"time":92.07723000000047,"velocity":0.5039370078740157,"duration":0.4365399166666606},{"name":"A4","midi":69,"time":92.53877000000047,"velocity":0.5039370078740157,"duration":0.21730841666666834},{"name":"D5","midi":74,"time":92.76954000000048,"velocity":0.5039370078740157,"duration":0.21730841666666834},{"name":"A4","midi":69,"time":93.00031000000048,"velocity":0.5039370078740157,"duration":0.21730841666666834},{"name":"B4","midi":71,"time":93.23108000000049,"velocity":0.5039370078740157,"duration":0.061538666666663744},{"name":"C#5","midi":73,"time":93.29454175000049,"velocity":0.5039370078740157,"duration":0.37500124999999684},{"name":"D5","midi":74,"time":93.69262000000049,"velocity":0.5039370078740157,"duration":0.4365399166666606},{"name":"E5","midi":76,"time":94.15416000000049,"velocity":0.5039370078740157,"duration":0.4365399166666606},{"name":"C#6","midi":85,"time":94.61570000000049,"velocity":0.5039370078740157,"duration":0.4365399166666606},{"name":"B5","midi":83,"time":95.07724000000049,"velocity":0.5039370078740157,"duration":0.4365399166666606},{"name":"E5","midi":76,"time":95.53878000000049,"velocity":0.5039370078740157,"duration":0.4365399166666606},{"name":"E5","midi":76,"time":96.00032000000049,"velocity":0.5039370078740157,"duration":0.11346191666666527},{"name":"C#6","midi":85,"time":96.11570500000049,"velocity":0.5039370078740157,"duration":0.11346191666666527},{"name":"B5","midi":83,"time":96.23109000000049,"velocity":0.5039370078740157,"duration":0.21730841666666834},{"name":"A5","midi":81,"time":96.4618600000005,"velocity":0.5039370078740157,"duration":0.21730841666666834},{"name":"G#5","midi":80,"time":96.6926300000005,"velocity":0.5039370078740157,"duration":0.21730841666666834},{"name":"E5","midi":76,"time":96.92340000000051,"velocity":0.5039370078740157,"duration":1.3134659166666722},{"name":"A5","midi":81,"time":96.92340000000051,"velocity":0.5039370078740157,"duration":1.3134659166666722},{"name":"A4","midi":69,"time":98.30802000000052,"velocity":0.5039370078740157,"duration":0.21730841666666834},{"name":"B4","midi":71,"time":98.53879000000053,"velocity":0.5039370078740157,"duration":0.21730841666666834},{"name":"C#5","midi":73,"time":98.76956000000054,"velocity":0.5039370078740157,"duration":0.21730841666666834},{"name":"E4","midi":64,"time":99.00033000000055,"velocity":0.5039370078740157,"duration":0.21730841666666834},{"name":"A4","midi":69,"time":99.23110000000055,"velocity":0.5039370078740157,"duration":0.21730841666666834},{"name":"B4","midi":71,"time":99.46187000000056,"velocity":0.5039370078740157,"duration":0.21730841666666834},{"name":"C#5","midi":73,"time":99.69264000000057,"velocity":0.5039370078740157,"duration":0.21730841666666834},{"name":"E4","midi":64,"time":99.92341000000057,"velocity":0.5039370078740157,"duration":0.21730841666666834},{"name":"C#5","midi":73,"time":100.15418000000058,"velocity":0.5039370078740157,"duration":0.21730841666666834},{"name":"D5","midi":74,"time":100.38495000000059,"velocity":0.5039370078740157,"duration":0.21730841666666834},{"name":"E5","midi":76,"time":100.6157200000006,"velocity":0.5039370078740157,"duration":0.21730841666666834},{"name":"E4","midi":64,"time":100.8464900000006,"velocity":0.5039370078740157,"duration":0.21730841666666834},{"name":"C#5","midi":73,"time":101.0772600000006,"velocity":0.5039370078740157,"duration":0.21730841666666834},{"name":"D5","midi":74,"time":101.30803000000061,"velocity":0.5039370078740157,"duration":0.21730841666666834},{"name":"E5","midi":76,"time":101.53880000000062,"velocity":0.5039370078740157,"duration":0.21730841666666834},{"name":"E4","midi":64,"time":101.76957000000063,"velocity":0.5039370078740157,"duration":0.21730841666666834},{"name":"D5","midi":74,"time":102.00034000000063,"velocity":0.5039370078740157,"duration":0.21730841666666834},{"name":"C#5","midi":73,"time":102.23111000000064,"velocity":0.5039370078740157,"duration":0.21730841666666834},{"name":"B4","midi":71,"time":102.46188000000065,"velocity":0.5039370078740157,"duration":0.21730841666666834},{"name":"E4","midi":64,"time":102.69265000000065,"velocity":0.5039370078740157,"duration":0.21730841666666834},{"name":"G#4","midi":68,"time":102.92342000000066,"velocity":0.5039370078740157,"duration":0.21730841666666834},{"name":"B4","midi":71,"time":103.15419000000067,"velocity":0.5039370078740157,"duration":0.21730841666666834},{"name":"A5","midi":81,"time":103.38496000000067,"velocity":0.5039370078740157,"duration":0.21730841666666834},{"name":"B5","midi":83,"time":103.61573000000068,"velocity":0.5039370078740157,"duration":0.21730841666666834},{"name":"A5","midi":81,"time":103.84650000000069,"velocity":0.5039370078740157,"duration":0.21730841666666834},{"name":"G#5","midi":80,"time":104.0772700000007,"velocity":0.5039370078740157,"duration":0.21730841666666834},{"name":"A5","midi":81,"time":104.3080400000007,"velocity":0.5039370078740157,"duration":0.21730841666666834},{"name":"A4","midi":69,"time":104.53881000000071,"velocity":0.5039370078740157,"duration":0.21730841666666834},{"name":"E5","midi":76,"time":104.76958000000072,"velocity":0.5039370078740157,"duration":0.21730841666666834},{"name":"A4","midi":69,"time":105.00035000000072,"velocity":0.5039370078740157,"duration":0.21730841666666834},{"name":"A5","midi":81,"time":105.23112000000073,"velocity":0.5039370078740157,"duration":0.21730841666666834},{"name":"A5","midi":81,"time":105.46189000000074,"velocity":0.5039370078740157,"duration":0.1076926666666651},{"name":"B5","midi":83,"time":105.57727500000074,"velocity":0.5039370078740157,"duration":0.1076926666666651},{"name":"A5","midi":81,"time":105.69266000000074,"velocity":0.5039370078740157,"duration":0.21730841666666834},{"name":"G#5","midi":80,"time":105.92343000000075,"velocity":0.5039370078740157,"duration":0.21730841666666834},{"name":"A5","midi":81,"time":106.15420000000076,"velocity":0.5039370078740157,"duration":0.21730841666666834},{"name":"A4","midi":69,"time":106.38497000000076,"velocity":0.5039370078740157,"duration":0.21730841666666834},{"name":"E5","midi":76,"time":106.61574000000077,"velocity":0.5039370078740157,"duration":0.21730841666666834},{"name":"A4","midi":69,"time":106.84651000000078,"velocity":0.5039370078740157,"duration":0.21730841666666834},{"name":"A5","midi":81,"time":107.07728000000078,"velocity":0.5039370078740157,"duration":0.21730841666666834},{"name":"A5","midi":81,"time":107.30805000000079,"velocity":0.5039370078740157,"duration":0.1076926666666651},{"name":"B5","midi":83,"time":107.4234350000008,"velocity":0.5039370078740157,"duration":0.1076926666666651},{"name":"A5","midi":81,"time":107.5388200000008,"velocity":0.5039370078740157,"duration":0.21730841666666834},{"name":"G#5","midi":80,"time":107.7695900000008,"velocity":0.5039370078740157,"duration":0.21730841666666834},{"name":"A5","midi":81,"time":108.00036000000081,"velocity":0.5039370078740157,"duration":0.21730841666666834},{"name":"B5","midi":83,"time":108.23113000000082,"velocity":0.5039370078740157,"duration":0.21730841666666834},{"name":"C#6","midi":85,"time":108.46190000000082,"velocity":0.5039370078740157,"duration":0.21730841666666834},{"name":"D6","midi":86,"time":108.69267000000083,"velocity":0.5039370078740157,"duration":0.21730841666666834},{"name":"E6","midi":88,"time":108.92344000000084,"velocity":0.5039370078740157,"duration":0.21730841666666834},{"name":"C#6","midi":85,"time":109.15421000000084,"velocity":0.5039370078740157,"duration":0.21730841666666834},{"name":"B5","midi":83,"time":109.38498000000085,"velocity":0.5039370078740157,"duration":0.055769416666663574},{"name":"C#6","midi":85,"time":109.44267250000085,"velocity":0.5039370078740157,"duration":0.055769416666663574},{"name":"B5","midi":83,"time":109.50036500000085,"velocity":0.5039370078740157,"duration":0.1076926666666651},{"name":"A5","midi":81,"time":109.61575000000086,"velocity":0.5039370078740157,"duration":0.21730841666666834},{"name":"G#5","midi":80,"time":109.84652000000087,"velocity":0.5039370078740157,"duration":0.21730841666666834},{"name":"A4","midi":69,"time":110.07729000000087,"velocity":0.5039370078740157,"duration":0.21730841666666834},{"name":"E5","midi":76,"time":110.30806000000088,"velocity":0.5039370078740157,"duration":0.21730841666666834},{"name":"A4","midi":69,"time":110.53883000000089,"velocity":0.5039370078740157,"duration":0.21730841666666834},{"name":"A5","midi":81,"time":110.76960000000089,"velocity":0.5039370078740157,"duration":0.21730841666666834},{"name":"A5","midi":81,"time":111.0003700000009,"velocity":0.5039370078740157,"duration":0.1076926666666651},{"name":"B5","midi":83,"time":111.1157550000009,"velocity":0.5039370078740157,"duration":0.1076926666666651},{"name":"A5","midi":81,"time":111.2311400000009,"velocity":0.5039370078740157,"duration":0.21730841666666834},{"name":"G#5","midi":80,"time":111.46191000000091,"velocity":0.5039370078740157,"duration":0.21730841666666834},{"name":"A5","midi":81,"time":111.69268000000092,"velocity":0.5039370078740157,"duration":0.21730841666666834},{"name":"A4","midi":69,"time":111.92345000000093,"velocity":0.5039370078740157,"duration":0.21730841666666834},{"name":"E5","midi":76,"time":112.15422000000093,"velocity":0.5039370078740157,"duration":0.21730841666666834},{"name":"A4","midi":69,"time":112.38499000000094,"velocity":0.5039370078740157,"duration":0.21730841666666834},{"name":"A5","midi":81,"time":112.61576000000095,"velocity":0.5039370078740157,"duration":0.21730841666666834},{"name":"A5","midi":81,"time":112.84653000000095,"velocity":0.5039370078740157,"duration":0.1076926666666651},{"name":"B5","midi":83,"time":112.96191500000096,"velocity":0.5039370078740157,"duration":0.1076926666666651},{"name":"A5","midi":81,"time":113.07730000000096,"velocity":0.5039370078740157,"duration":0.21730841666666834},{"name":"G#5","midi":80,"time":113.30807000000097,"velocity":0.5039370078740157,"duration":0.21730841666666834},{"name":"A5","midi":81,"time":113.53884000000097,"velocity":0.5039370078740157,"duration":0.21730841666666834},{"name":"A4","midi":69,"time":113.76961000000098,"velocity":0.5039370078740157,"duration":0.21730841666666834},{"name":"E5","midi":76,"time":114.00038000000099,"velocity":0.5039370078740157,"duration":0.21730841666666834},{"name":"A4","midi":69,"time":114.231150000001,"velocity":0.5039370078740157,"duration":0.21730841666666834},{"name":"A5","midi":81,"time":114.461920000001,"velocity":0.5039370078740157,"duration":0.21730841666666834},{"name":"A5","midi":81,"time":114.69269000000101,"velocity":0.5039370078740157,"duration":0.1076926666666651},{"name":"B5","midi":83,"time":114.80807500000101,"velocity":0.5039370078740157,"duration":0.1076926666666651},{"name":"A5","midi":81,"time":114.92346000000101,"velocity":0.5039370078740157,"duration":0.21730841666666834},{"name":"G#5","midi":80,"time":115.15423000000102,"velocity":0.5039370078740157,"duration":0.21730841666666834},{"name":"A5","midi":81,"time":115.38500000000103,"velocity":0.5039370078740157,"duration":0.21730841666666834},{"name":"B5","midi":83,"time":115.61577000000104,"velocity":0.5039370078740157,"duration":0.21730841666666834},{"name":"C#6","midi":85,"time":115.84654000000104,"velocity":0.5039370078740157,"duration":0.21730841666666834},{"name":"D6","midi":86,"time":116.07731000000105,"velocity":0.5039370078740157,"duration":0.21730841666666834},{"name":"E6","midi":88,"time":116.30808000000106,"velocity":0.5039370078740157,"duration":0.21730841666666834},{"name":"C#6","midi":85,"time":116.53885000000106,"velocity":0.5039370078740157,"duration":0.21730841666666834},{"name":"B5","midi":83,"time":116.76962000000107,"velocity":0.5039370078740157,"duration":0.055769416666663574},{"name":"C#6","midi":85,"time":116.82731250000107,"velocity":0.5039370078740157,"duration":0.055769416666663574},{"name":"B5","midi":83,"time":116.88500500000107,"velocity":0.5039370078740157,"duration":0.1076926666666651},{"name":"A5","midi":81,"time":117.00039000000108,"velocity":0.5039370078740157,"duration":0.21730841666666834},{"name":"G#5","midi":80,"time":117.23116000000108,"velocity":0.5039370078740157,"duration":0.21730841666666834},{"name":"A4","midi":69,"time":117.46193000000109,"velocity":0.5039370078740157,"duration":0.21730841666666834},{"name":"E5","midi":76,"time":117.6927000000011,"velocity":0.5039370078740157,"duration":0.21730841666666834},{"name":"A4","midi":69,"time":117.9234700000011,"velocity":0.5039370078740157,"duration":0.21730841666666834},{"name":"A5","midi":81,"time":118.15424000000111,"velocity":0.5039370078740157,"duration":0.21730841666666834},{"name":"A5","midi":81,"time":118.38501000000112,"velocity":0.5039370078740157,"duration":0.1076926666666651},{"name":"B5","midi":83,"time":118.50039500000112,"velocity":0.5039370078740157,"duration":0.1076926666666651},{"name":"A5","midi":81,"time":118.61578000000112,"velocity":0.5039370078740157,"duration":0.21730841666666834},{"name":"G#5","midi":80,"time":118.84655000000113,"velocity":0.5039370078740157,"duration":0.21730841666666834},{"name":"A5","midi":81,"time":119.07732000000114,"velocity":0.5039370078740157,"duration":0.21730841666666834},{"name":"A4","midi":69,"time":119.30809000000114,"velocity":0.5039370078740157,"duration":0.21730841666666834},{"name":"E5","midi":76,"time":119.53886000000115,"velocity":0.5039370078740157,"duration":0.21730841666666834},{"name":"A4","midi":69,"time":119.76963000000116,"velocity":0.5039370078740157,"duration":0.21730841666666834},{"name":"A5","midi":81,"time":120.00040000000116,"velocity":0.5039370078740157,"duration":0.21730841666666834},{"name":"B5","midi":83,"time":120.23117000000117,"velocity":0.5039370078740157,"duration":0.21730841666666834},{"name":"A5","midi":81,"time":120.46194000000118,"velocity":0.5039370078740157,"duration":0.21730841666666834},{"name":"G#5","midi":80,"time":120.69271000000118,"velocity":0.5039370078740157,"duration":0.21730841666666834},{"name":"A5","midi":81,"time":120.92348000000119,"velocity":0.5039370078740157,"duration":0.21730841666666834},{"name":"A4","midi":69,"time":121.1542500000012,"velocity":0.5039370078740157,"duration":0.21730841666666834},{"name":"E5","midi":76,"time":121.3850200000012,"velocity":0.5039370078740157,"duration":0.21730841666666834},{"name":"A4","midi":69,"time":121.61579000000121,"velocity":0.5039370078740157,"duration":0.21730841666666834},{"name":"A5","midi":81,"time":121.84656000000122,"velocity":0.5039370078740157,"duration":0.21730841666666834},{"name":"A5","midi":81,"time":122.07733000000123,"velocity":0.5039370078740157,"duration":0.1076926666666651},{"name":"B5","midi":83,"time":122.19271500000123,"velocity":0.5039370078740157,"duration":0.1076926666666651},{"name":"A5","midi":81,"time":122.30810000000123,"velocity":0.5039370078740157,"duration":0.21730841666666834},{"name":"G#5","midi":80,"time":122.53887000000124,"velocity":0.5039370078740157,"duration":0.21730841666666834},{"name":"A5","midi":81,"time":122.76964000000125,"velocity":0.5039370078740157,"duration":0.21730841666666834},{"name":"B5","midi":83,"time":123.00041000000125,"velocity":0.5039370078740157,"duration":0.21730841666666834},{"name":"C#6","midi":85,"time":123.23118000000126,"velocity":0.5039370078740157,"duration":0.21730841666666834},{"name":"D6","midi":86,"time":123.46195000000127,"velocity":0.5039370078740157,"duration":0.21730841666666834},{"name":"E6","midi":88,"time":123.69272000000127,"velocity":0.5039370078740157,"duration":0.21730841666666834},{"name":"C#6","midi":85,"time":123.92349000000128,"velocity":0.5039370078740157,"duration":0.21730841666666834},{"name":"B5","midi":83,"time":124.15426000000129,"velocity":0.5039370078740157,"duration":0.21730841666666834},{"name":"A5","midi":81,"time":124.3850300000013,"velocity":0.5039370078740157,"duration":0.21730841666666834},{"name":"G#5","midi":80,"time":124.6158000000013,"velocity":0.5039370078740157,"duration":0.4365399166666606},{"name":"B4","midi":71,"time":125.0773400000013,"velocity":0.5039370078740157,"duration":0.4365399166666606},{"name":"A5","midi":81,"time":125.5388800000013,"velocity":0.5039370078740157,"duration":0.21730841666666834},{"name":"A5","midi":81,"time":125.7696500000013,"velocity":0.5039370078740157,"duration":0.1076926666666651},{"name":"B5","midi":83,"time":125.88503500000131,"velocity":0.5039370078740157,"duration":0.1076926666666651},{"name":"A5","midi":81,"time":126.00042000000131,"velocity":0.5039370078740157,"duration":0.21730841666666834},{"name":"G#5","midi":80,"time":126.23119000000132,"velocity":0.5039370078740157,"duration":0.21730841666666834},{"name":"A5","midi":81,"time":126.46196000000133,"velocity":0.5039370078740157,"duration":0.21730841666666834},{"name":"A4","midi":69,"time":126.69273000000133,"velocity":0.5039370078740157,"duration":0.21730841666666834},{"name":"E5","midi":76,"time":126.92350000000134,"velocity":0.5039370078740157,"duration":0.21730841666666834},{"name":"A4","midi":69,"time":127.15427000000135,"velocity":0.5039370078740157,"duration":0.21730841666666834},{"name":"A5","midi":81,"time":127.38504000000135,"velocity":0.5039370078740157,"duration":0.21730841666666834},{"name":"A5","midi":81,"time":127.61581000000136,"velocity":0.5039370078740157,"duration":0.1076926666666651},{"name":"B5","midi":83,"time":127.73119500000136,"velocity":0.5039370078740157,"duration":0.1076926666666651},{"name":"A5","midi":81,"time":127.84658000000137,"velocity":0.5039370078740157,"duration":0.21730841666665413},{"name":"G#5","midi":80,"time":128.07735000000136,"velocity":0.5039370078740157,"duration":0.21730841666666834},{"name":"A5","midi":81,"time":128.30812000000137,"velocity":0.5039370078740157,"duration":0.21730841666666834},{"name":"A4","midi":69,"time":128.53889000000137,"velocity":0.5039370078740157,"duration":0.21730841666666834},{"name":"E5","midi":76,"time":128.76966000000138,"velocity":0.5039370078740157,"duration":0.21730841666666834},{"name":"A4","midi":69,"time":129.0004300000014,"velocity":0.5039370078740157,"duration":0.21730841666666834},{"name":"A5","midi":81,"time":129.2312000000014,"velocity":0.5039370078740157,"duration":0.21730841666666834},{"name":"A5","midi":81,"time":129.4619700000014,"velocity":0.5039370078740157,"duration":0.10769266666667932},{"name":"B5","midi":83,"time":129.5773550000014,"velocity":0.5039370078740157,"duration":0.10769266666667932},{"name":"A5","midi":81,"time":129.6927400000014,"velocity":0.5039370078740157,"duration":0.21730841666666834},{"name":"G#5","midi":80,"time":129.92351000000141,"velocity":0.5039370078740157,"duration":0.21730841666666834},{"name":"A5","midi":81,"time":130.15428000000142,"velocity":0.5039370078740157,"duration":0.21730841666666834},{"name":"B5","midi":83,"time":130.38505000000143,"velocity":0.5039370078740157,"duration":0.21730841666666834},{"name":"C#6","midi":85,"time":130.61582000000143,"velocity":0.5039370078740157,"duration":0.21730841666666834},{"name":"D6","midi":86,"time":130.84659000000144,"velocity":0.5039370078740157,"duration":0.21730841666666834},{"name":"E6","midi":88,"time":131.07736000000145,"velocity":0.5039370078740157,"duration":0.21730841666666834},{"name":"C#6","midi":85,"time":131.30813000000146,"velocity":0.5039370078740157,"duration":0.21730841666666834},{"name":"B5","midi":83,"time":131.53890000000146,"velocity":0.5039370078740157,"duration":0.21730841666666834},{"name":"A5","midi":81,"time":131.76967000000147,"velocity":0.5039370078740157,"duration":0.21730841666666834},{"name":"G#5","midi":80,"time":132.00044000000148,"velocity":0.5039370078740157,"duration":0.4365399166666748},{"name":"B4","midi":71,"time":132.4619800000015,"velocity":0.5039370078740157,"duration":0.4365399166666748},{"name":"G#4","midi":68,"time":132.9235200000015,"velocity":0.5039370078740157,"duration":0.4365399166666748},{"name":"E4","midi":64,"time":133.38506000000152,"velocity":0.5039370078740157,"duration":0.4365399166666748},{"name":"A4","midi":69,"time":133.84660000000153,"velocity":0.5039370078740157,"duration":0.11346191666666527},{"name":"C#5","midi":73,"time":133.96198500000153,"velocity":0.5039370078740157,"duration":0.11346191666666527},{"name":"A5","midi":81,"time":134.07737000000154,"velocity":0.5039370078740157,"duration":0.21730841666666834},{"name":"G#5","midi":80,"time":134.30814000000154,"velocity":0.5039370078740157,"duration":0.4365399166666748},{"name":"A5","midi":81,"time":134.76968000000156,"velocity":0.5039370078740157,"duration":0.4365399166666748},{"name":"G#5","midi":80,"time":135.23122000000157,"velocity":0.5039370078740157,"duration":0.4365399166666748},{"name":"A4","midi":69,"time":135.69276000000158,"velocity":0.5039370078740157,"duration":0.4365399166666748},{"name":"C#5","midi":73,"time":135.69276000000158,"velocity":0.5039370078740157,"duration":0.4365399166666748},{"name":"A5","midi":81,"time":135.69276000000158,"velocity":0.5039370078740157,"duration":0.4365399166666748},{"name":"E5","midi":76,"time":136.1543000000016,"velocity":0.5039370078740157,"duration":0.4365399166666748},{"name":"A5","midi":81,"time":136.6158400000016,"velocity":0.5039370078740157,"duration":0.4365399166666748},{"name":"D5","midi":74,"time":137.07738000000163,"velocity":0.5039370078740157,"duration":0.4365399166666748},{"name":"A4","midi":69,"time":137.53892000000164,"velocity":0.5039370078740157,"duration":0.4365399166666748},{"name":"C#5","midi":73,"time":137.53892000000164,"velocity":0.5039370078740157,"duration":0.4365399166666748},{"name":"D5","midi":74,"time":138.00046000000165,"velocity":0.5039370078740157,"duration":0.4365399166666748},{"name":"A4","midi":69,"time":138.46200000000167,"velocity":0.5039370078740157,"duration":0.4365399166666748},{"name":"E5","midi":76,"time":138.46200000000167,"velocity":0.5039370078740157,"duration":0.4365399166666748},{"name":"C#5","midi":73,"time":138.92354000000168,"velocity":0.5039370078740157,"duration":0.4365399166666748},{"name":"B4","midi":71,"time":139.3850800000017,"velocity":0.5039370078740157,"duration":0.8750029166666593},{"name":"A4","midi":69,"time":140.3081600000017,"velocity":0.5039370078740157,"duration":0.4365399166666748},{"name":"G#4","midi":68,"time":140.7697000000017,"velocity":0.5039370078740157,"duration":0.4365399166666748},{"name":"C#4","midi":61,"time":141.23124000000172,"velocity":0.5039370078740157,"duration":0.9211569166666607},{"name":"E4","midi":64,"time":141.3523942500017,"velocity":0.5039370078740157,"duration":0.7980795833333332},{"name":"A4","midi":69,"time":141.47547158333504,"velocity":0.5039370078740157,"duration":0.6750022500000057},{"name":"E4","midi":64,"time":142.15432000000172,"velocity":0.5039370078740157,"duration":0.4365399166666748},{"name":"A4","midi":69,"time":142.61586000000173,"velocity":0.5039370078740157,"duration":0.21730841666666834},{"name":"B4","midi":71,"time":142.84663000000174,"velocity":0.5039370078740157,"duration":0.21730841666666834},{"name":"C#5","midi":73,"time":143.07740000000175,"velocity":0.5039370078740157,"duration":0.4365399166666748},{"name":"E4","midi":64,"time":143.53894000000176,"velocity":0.5039370078740157,"duration":0.4365399166666748},{"name":"A4","midi":69,"time":144.00048000000177,"velocity":0.5039370078740157,"duration":0.4365399166666748},{"name":"C#5","midi":73,"time":144.4620200000018,"velocity":0.5039370078740157,"duration":0.21730841666666834},{"name":"D5","midi":74,"time":144.6927900000018,"velocity":0.5039370078740157,"duration":0.21730841666666834},{"name":"E5","midi":76,"time":144.9235600000018,"velocity":0.5039370078740157,"duration":0.4365399166666748},{"name":"E4","midi":64,"time":145.3851000000018,"velocity":0.5039370078740157,"duration":0.4365399166666748},{"name":"C#5","midi":73,"time":145.84664000000183,"velocity":0.5039370078740157,"duration":0.4365399166666748},{"name":"D5","midi":74,"time":146.30818000000184,"velocity":0.5039370078740157,"duration":0.21730841666666834},{"name":"C#5","midi":73,"time":146.53895000000185,"velocity":0.5039370078740157,"duration":0.21730841666666834},{"name":"B4","midi":71,"time":146.76972000000185,"velocity":0.5039370078740157,"duration":1.5326974166666787},{"name":"A4","midi":69,"time":148.38511000000187,"velocity":0.5039370078740157,"duration":0.10769266666667932},{"name":"C#5","midi":73,"time":148.50049500000188,"velocity":0.5039370078740157,"duration":0.10769266666667932},{"name":"A5","midi":81,"time":148.61588000000188,"velocity":0.5039370078740157,"duration":0.4365399166666748},{"name":"G#5","midi":80,"time":149.0774200000019,"velocity":0.5039370078740157,"duration":0.4365399166666748},{"name":"A5","midi":81,"time":149.5389600000019,"velocity":0.5039370078740157,"duration":0.4365399166666748},{"name":"G#5","midi":80,"time":150.00050000000192,"velocity":0.5039370078740157,"duration":0.4365399166666748},{"name":"A4","midi":69,"time":150.46204000000193,"velocity":0.5039370078740157,"duration":0.45961691666664706},{"name":"E5","midi":76,"time":150.58319425000192,"velocity":0.5039370078740157,"duration":0.33653958333331957},{"name":"A5","midi":81,"time":150.70627158333525,"velocity":0.5039370078740157,"duration":0.21346224999999208},{"name":"E5","midi":76,"time":150.92358000000192,"velocity":0.5039370078740157,"duration":0.4365399166666748},{"name":"A5","midi":81,"time":151.38512000000193,"velocity":0.5039370078740157,"duration":0.4365399166666748},{"name":"D5","midi":74,"time":151.84666000000195,"velocity":0.5039370078740157,"duration":0.4365399166666748},{"name":"B4","midi":71,"time":152.30820000000196,"velocity":0.5039370078740157,"duration":0.061538666666677955},{"name":"C#5","midi":73,"time":152.37166175000198,"velocity":0.5039370078740157,"duration":0.37500124999999684},{"name":"D5","midi":74,"time":152.76974000000197,"velocity":0.5039370078740157,"duration":0.4365399166666748},{"name":"E5","midi":76,"time":153.231280000002,"velocity":0.5039370078740157,"duration":0.4365399166666748},{"name":"C#6","midi":85,"time":153.692820000002,"velocity":0.5039370078740157,"duration":0.4365399166666748},{"name":"E5","midi":76,"time":154.15436000000201,"velocity":0.5039370078740157,"duration":1.3134659166666722},{"name":"B5","midi":83,"time":154.15436000000201,"velocity":0.5039370078740157,"duration":1.3134659166666722},{"name":"A4","midi":69,"time":155.53898000000203,"velocity":0.5039370078740157,"duration":0.21730841666666834},{"name":"E4","midi":64,"time":156.00052000000204,"velocity":0.5039370078740157,"duration":1.3134659166666722},{"name":"A4","midi":69,"time":156.00052000000204,"velocity":0.5039370078740157,"duration":1.3134659166666722},{"name":"A4","midi":69,"time":157.38514000000205,"velocity":0.5039370078740157,"duration":0.21730841666666834},{"name":"B4","midi":71,"time":157.61591000000206,"velocity":0.5039370078740157,"duration":0.21730841666666834},{"name":"C#5","midi":73,"time":157.84668000000207,"velocity":0.5039370078740157,"duration":0.4365399166666748},{"name":"E4","midi":64,"time":158.30822000000208,"velocity":0.5039370078740157,"duration":0.4365399166666748},{"name":"A4","midi":69,"time":158.7697600000021,"velocity":0.5039370078740157,"duration":0.4365399166666748},{"name":"C#5","midi":73,"time":159.2313000000021,"velocity":0.5039370078740157,"duration":0.21730841666666834},{"name":"D5","midi":74,"time":159.46207000000211,"velocity":0.5039370078740157,"duration":0.21730841666666834},{"name":"E5","midi":76,"time":159.69284000000212,"velocity":0.5039370078740157,"duration":0.4365399166666748},{"name":"E4","midi":64,"time":160.15438000000213,"velocity":0.5039370078740157,"duration":0.4365399166666748},{"name":"A4","midi":69,"time":160.61592000000215,"velocity":0.5039370078740157,"duration":0.4365399166666748},{"name":"D5","midi":74,"time":161.07746000000216,"velocity":0.5039370078740157,"duration":0.21730841666666834},{"name":"C#5","midi":73,"time":161.30823000000217,"velocity":0.5039370078740157,"duration":0.21730841666666834},{"name":"B4","midi":71,"time":161.53900000000218,"velocity":0.5039370078740157,"duration":0.8750029166666593},{"name":"E4","midi":64,"time":162.46208000000217,"velocity":0.5039370078740157,"duration":0.8750029166666593},{"name":"A4","midi":69,"time":163.38516000000217,"velocity":0.5039370078740157,"duration":0.4365399166666748},{"name":"A3","midi":57,"time":163.8467000000022,"velocity":0.5039370078740157,"duration":0.4365399166666748},{"name":"C#4","midi":61,"time":164.3082400000022,"velocity":0.5039370078740157,"duration":0.4365399166666748},{"name":"F#4","midi":66,"time":164.7697800000022,"velocity":0.5039370078740157,"duration":0.4365399166666748},{"name":"A4","midi":69,"time":165.23132000000223,"velocity":0.5039370078740157,"duration":1.7519289166666567},{"name":"A5","midi":81,"time":165.23132000000223,"velocity":0.5039370078740157,"duration":1.7519289166666567}]},{"instrument_number":-1,"notes":[{"name":"F#3","midi":54,"time":0,"velocity":0.5039370078740157,"duration":0.43653991666666664},{"name":"C#4","midi":61,"time":0.46153999999999995,"velocity":0.5039370078740157,"duration":0.4365399166666667},{"name":"F#4","midi":66,"time":0.92308,"velocity":0.5039370078740157,"duration":0.8750029166666665},{"name":"D3","midi":50,"time":1.8461599999999998,"velocity":0.5039370078740157,"duration":0.4365399166666668},{"name":"A3","midi":57,"time":2.3077,"velocity":0.5039370078740157,"duration":0.4365399166666668},{"name":"E4","midi":64,"time":2.7692400000000004,"velocity":0.5039370078740157,"duration":4.382706916666667},{"name":"F#3","midi":54,"time":7.38464,"velocity":0.5039370078740157,"duration":0.4365399166666668},{"name":"C#4","midi":61,"time":7.84618,"velocity":0.5039370078740157,"duration":0.4365399166666659},{"name":"F#4","midi":66,"time":8.30772,"velocity":0.5039370078740157,"duration":0.8750029166666664},{"name":"D3","midi":50,"time":9.2308,"velocity":0.5039370078740157,"duration":0.4365399166666659},{"name":"A3","midi":57,"time":9.69234,"velocity":0.5039370078740157,"duration":0.4365399166666659},{"name":"E4","midi":64,"time":10.15388,"velocity":0.5039370078740157,"duration":4.382706916666667},{"name":"F#3","midi":54,"time":14.769279999999998,"velocity":0.5039370078740157,"duration":0.4365399166666659},{"name":"C#4","midi":61,"time":15.230819999999998,"velocity":0.5039370078740157,"duration":0.4365399166666659},{"name":"F#4","midi":66,"time":15.692359999999997,"velocity":0.5039370078740157,"duration":0.8750029166666664},{"name":"D3","midi":50,"time":16.615439999999996,"velocity":0.5039370078740157,"duration":0.4365399166666677},{"name":"A3","midi":57,"time":17.076979999999995,"velocity":0.5039370078740157,"duration":0.4365399166666677},{"name":"E4","midi":64,"time":17.538519999999995,"velocity":0.5039370078740157,"duration":0.4365399166666677},{"name":"D3","midi":50,"time":18.000059999999994,"velocity":0.5039370078740157,"duration":0.4365399166666677},{"name":"A2","midi":45,"time":18.461599999999994,"velocity":0.5039370078740157,"duration":0.4365399166666677},{"name":"E3","midi":52,"time":18.923139999999993,"velocity":0.5039370078740157,"duration":0.4365399166666677},{"name":"C#4","midi":61,"time":19.384679999999992,"velocity":0.5039370078740157,"duration":0.8750029166666664},{"name":"E3","midi":52,"time":20.30775999999999,"velocity":0.5039370078740157,"duration":0.4365399166666677},{"name":"B3","midi":59,"time":20.76929999999999,"velocity":0.5039370078740157,"duration":0.4365399166666677},{"name":"E4","midi":64,"time":21.23083999999999,"velocity":0.5039370078740157,"duration":0.8750029166666664},{"name":"F#3","midi":54,"time":22.15391999999999,"velocity":0.5039370078740157,"duration":0.4365399166666677},{"name":"C#4","midi":61,"time":22.615459999999988,"velocity":0.5039370078740157,"duration":0.4365399166666677},{"name":"F#4","midi":66,"time":23.076999999999988,"velocity":0.5039370078740157,"duration":0.8750029166666664},{"name":"D3","midi":50,"time":24.000079999999986,"velocity":0.5039370078740157,"duration":0.4365399166666677},{"name":"A3","midi":57,"time":24.461619999999986,"velocity":0.5039370078740157,"duration":0.4365399166666677},{"name":"E4","midi":64,"time":24.923159999999985,"velocity":0.5039370078740157,"duration":0.8750029166666664},{"name":"A2","midi":45,"time":25.846239999999984,"velocity":0.5039370078740157,"duration":0.4365399166666677},{"name":"E3","midi":52,"time":26.307779999999983,"velocity":0.5039370078740157,"duration":0.4365399166666677},{"name":"C#4","midi":61,"time":26.769319999999983,"velocity":0.5039370078740157,"duration":0.8750029166666664},{"name":"E3","midi":52,"time":27.69239999999998,"velocity":0.5039370078740157,"duration":0.4365399166666677},{"name":"B3","midi":59,"time":28.15393999999998,"velocity":0.5039370078740157,"duration":0.4365399166666677},{"name":"G#4","midi":68,"time":28.61547999999998,"velocity":0.5039370078740157,"duration":0.8750029166666664},{"name":"F#3","midi":54,"time":29.53855999999998,"velocity":0.5039370078740157,"duration":0.4365399166666677},{"name":"C#4","midi":61,"time":30.00009999999998,"velocity":0.5039370078740157,"duration":0.4365399166666677},{"name":"F#4","midi":66,"time":30.461639999999978,"velocity":0.5039370078740157,"duration":0.8750029166666664},{"name":"D3","midi":50,"time":31.384719999999977,"velocity":0.5039370078740157,"duration":0.4365399166666677},{"name":"A3","midi":57,"time":31.846259999999976,"velocity":0.5039370078740157,"duration":0.43653991666666414},{"name":"E4","midi":64,"time":32.30779999999997,"velocity":0.5039370078740157,"duration":0.4365399166666677},{"name":"D3","midi":50,"time":32.76933999999997,"velocity":0.5039370078740157,"duration":0.4365399166666677},{"name":"A2","midi":45,"time":33.23087999999997,"velocity":0.5039370078740157,"duration":0.4365399166666677},{"name":"E3","midi":52,"time":33.69241999999997,"velocity":0.5039370078740157,"duration":0.4365399166666677},{"name":"C#4","midi":61,"time":34.15395999999997,"velocity":0.5039370078740157,"duration":0.4365399166666677},{"name":"A2","midi":45,"time":34.61549999999997,"velocity":0.5039370078740157,"duration":0.4365399166666677},{"name":"E3","midi":52,"time":35.07703999999997,"velocity":0.5039370078740157,"duration":0.4365399166666677},{"name":"B3","midi":59,"time":35.53857999999997,"velocity":0.5039370078740157,"duration":0.4365399166666677},{"name":"E4","midi":64,"time":36.00011999999997,"velocity":0.5039370078740157,"duration":0.8750029166666664},{"name":"F#3","midi":54,"time":36.923199999999966,"velocity":0.5039370078740157,"duration":0.4365399166666677},{"name":"C#4","midi":61,"time":37.384739999999965,"velocity":0.5039370078740157,"duration":0.4365399166666677},{"name":"F#4","midi":66,"time":37.846279999999965,"velocity":0.5039370078740157,"duration":0.8750029166666664},{"name":"D3","midi":50,"time":38.76935999999996,"velocity":0.5039370078740157,"duration":0.4365399166666677},{"name":"B3","midi":59,"time":39.23089999999996,"velocity":0.5039370078740157,"duration":0.4365399166666677},{"name":"E4","midi":64,"time":39.69243999999996,"velocity":0.5039370078740157,"duration":0.8750029166666664},{"name":"A2","midi":45,"time":40.61551999999996,"velocity":0.5039370078740157,"duration":0.4365399166666677},{"name":"E3","midi":52,"time":41.07705999999996,"velocity":0.5039370078740157,"duration":0.4365399166666677},{"name":"C#4","midi":61,"time":41.53859999999996,"velocity":0.5039370078740157,"duration":0.8750029166666664},{"name":"E3","midi":52,"time":42.46167999999996,"velocity":0.5039370078740157,"duration":0.4365399166666677},{"name":"B3","midi":59,"time":42.92321999999996,"velocity":0.5039370078740157,"duration":0.4365399166666677},{"name":"E4","midi":64,"time":43.38475999999996,"velocity":0.5039370078740157,"duration":0.8750029166666664},{"name":"F#3","midi":54,"time":44.307839999999956,"velocity":0.5039370078740157,"duration":0.4365399166666677},{"name":"C#4","midi":61,"time":44.769379999999956,"velocity":0.5039370078740157,"duration":0.4365399166666677},{"name":"F#4","midi":66,"time":45.230919999999955,"velocity":0.5039370078740157,"duration":0.4365399166666677},{"name":"F#3","midi":54,"time":45.692459999999954,"velocity":0.5039370078740157,"duration":0.4365399166666677},{"name":"D3","midi":50,"time":46.153999999999954,"velocity":0.5039370078740157,"duration":0.4365399166666677},{"name":"A3","midi":57,"time":46.61553999999995,"velocity":0.5039370078740157,"duration":0.4365399166666677},{"name":"E4","midi":64,"time":47.07707999999995,"velocity":0.5039370078740157,"duration":0.4365399166666677},{"name":"D3","midi":50,"time":47.53861999999995,"velocity":0.5039370078740157,"duration":0.4365399166666677},{"name":"A2","midi":45,"time":48.00015999999995,"velocity":0.5039370078740157,"duration":0.4365399166666677},{"name":"E3","midi":52,"time":48.46169999999995,"velocity":0.5039370078740157,"duration":0.4365399166666677},{"name":"C#4","midi":61,"time":48.92323999999995,"velocity":0.5039370078740157,"duration":0.4365399166666677},{"name":"A2","midi":45,"time":49.38477999999995,"velocity":0.5039370078740157,"duration":0.4365399166666677},{"name":"E3","midi":52,"time":49.84631999999995,"velocity":0.5039370078740157,"duration":0.4365399166666677},{"name":"B3","midi":59,"time":50.30785999999995,"velocity":0.5039370078740157,"duration":0.4365399166666677},{"name":"E4","midi":64,"time":50.76939999999995,"velocity":0.5039370078740157,"duration":0.4365399166666677},{"name":"E3","midi":52,"time":51.23093999999995,"velocity":0.5039370078740157,"duration":0.4365399166666677},{"name":"F#3","midi":54,"time":51.69247999999995,"velocity":0.5039370078740157,"duration":0.4365399166666677},{"name":"C#4","midi":61,"time":52.154019999999946,"velocity":0.5039370078740157,"duration":0.4365399166666677},{"name":"E4","midi":64,"time":52.615559999999945,"velocity":0.5039370078740157,"duration":0.4365399166666677},{"name":"F#3","midi":54,"time":53.077099999999945,"velocity":0.5039370078740157,"duration":0.4365399166666677},{"name":"D3","midi":50,"time":53.538639999999944,"velocity":0.5039370078740157,"duration":0.4365399166666677},{"name":"B3","midi":59,"time":54.00017999999994,"velocity":0.5039370078740157,"duration":0.4365399166666677},{"name":"E4","midi":64,"time":54.46171999999994,"velocity":0.5039370078740157,"duration":0.4365399166666677},{"name":"D3","midi":50,"time":54.92325999999994,"velocity":0.5039370078740157,"duration":0.4365399166666677},{"name":"A2","midi":45,"time":55.38479999999994,"velocity":0.5039370078740157,"duration":0.4365399166666677},{"name":"E3","midi":52,"time":55.84633999999994,"velocity":0.5039370078740157,"duration":0.4365399166666677},{"name":"C#4","midi":61,"time":56.30787999999994,"velocity":0.5039370078740157,"duration":0.4365399166666677},{"name":"A2","midi":45,"time":56.76941999999994,"velocity":0.5039370078740157,"duration":0.4365399166666677},{"name":"E3","midi":52,"time":57.23095999999994,"velocity":0.5039370078740157,"duration":0.4365399166666677},{"name":"B3","midi":59,"time":57.69249999999994,"velocity":0.5039370078740157,"duration":0.4365399166666677},{"name":"E4","midi":64,"time":58.15403999999994,"velocity":0.5039370078740157,"duration":0.4365399166666677},{"name":"E3","midi":52,"time":58.61557999999994,"velocity":0.5039370078740157,"duration":0.4365399166666677},{"name":"F#2","midi":42,"time":59.07711999999994,"velocity":0.5039370078740157,"duration":0.4365399166666677},{"name":"C#3","midi":49,"time":59.538659999999936,"velocity":0.5039370078740157,"duration":0.4365399166666677},{"name":"F#3","midi":54,"time":60.000199999999936,"velocity":0.5039370078740157,"duration":0.4365399166666677},{"name":"F#2","midi":42,"time":60.461739999999935,"velocity":0.5039370078740157,"duration":0.4365399166666677},{"name":"D3","midi":50,"time":60.923279999999934,"velocity":0.5039370078740157,"duration":0.4365399166666677},{"name":"A3","midi":57,"time":61.384819999999934,"velocity":0.5039370078740157,"duration":0.4365399166666677},{"name":"C#4","midi":61,"time":61.84635999999993,"velocity":0.5039370078740157,"duration":0.4365399166666677},{"name":"D3","midi":50,"time":62.30789999999993,"velocity":0.5039370078740157,"duration":0.4365399166666677},{"name":"A2","midi":45,"time":62.76943999999993,"velocity":0.5039370078740157,"duration":0.4365399166666677},{"name":"E3","midi":52,"time":63.23097999999993,"velocity":0.5039370078740157,"duration":0.4365399166666677},{"name":"C#4","midi":61,"time":63.69251999999993,"velocity":0.5039370078740157,"duration":0.4365399166666606},{"name":"A2","midi":45,"time":64.15405999999993,"velocity":0.5039370078740157,"duration":0.4365399166666606},{"name":"E2","midi":40,"time":64.61559999999993,"velocity":0.5039370078740157,"duration":0.4365399166666606},{"name":"B2","midi":47,"time":65.07713999999993,"velocity":0.5039370078740157,"duration":0.4365399166666606},{"name":"G#3","midi":56,"time":65.53867999999993,"velocity":0.5039370078740157,"duration":0.4365399166666606},{"name":"E2","midi":40,"time":66.00021999999993,"velocity":0.5039370078740157,"duration":0.4365399166666606},{"name":"F#2","midi":42,"time":66.46175999999993,"velocity":0.5039370078740157,"duration":0.4365399166666606},{"name":"C#3","midi":49,"time":66.92329999999993,"velocity":0.5039370078740157,"duration":0.4365399166666606},{"name":"F#3","midi":54,"time":67.38483999999993,"velocity":0.5039370078740157,"duration":0.4365399166666606},{"name":"F#2","midi":42,"time":67.84637999999993,"velocity":0.5039370078740157,"duration":0.4365399166666606},{"name":"D3","midi":50,"time":68.30791999999992,"velocity":0.5039370078740157,"duration":0.4365399166666606},{"name":"A3","midi":57,"time":68.76945999999992,"velocity":0.5039370078740157,"duration":0.4365399166666606},{"name":"E4","midi":64,"time":69.23099999999992,"velocity":0.5039370078740157,"duration":0.4365399166666606},{"name":"D3","midi":50,"time":69.69253999999992,"velocity":0.5039370078740157,"duration":0.4365399166666606},{"name":"A2","midi":45,"time":70.15407999999992,"velocity":0.5039370078740157,"duration":0.4365399166666606},{"name":"E3","midi":52,"time":70.61561999999992,"velocity":0.5039370078740157,"duration":0.4365399166666606},{"name":"C#4","midi":61,"time":71.07715999999992,"velocity":0.5039370078740157,"duration":0.4365399166666606},{"name":"A2","midi":45,"time":71.53869999999992,"velocity":0.5039370078740157,"duration":0.4365399166666606},{"name":"E2","midi":40,"time":72.00023999999992,"velocity":0.5039370078740157,"duration":0.4365399166666606},{"name":"B2","midi":47,"time":72.46177999999992,"velocity":0.5039370078740157,"duration":0.4365399166666606},{"name":"G#3","midi":56,"time":72.92331999999992,"velocity":0.5039370078740157,"duration":1.751928916666671},{"name":"F#3","midi":54,"time":74.76947999999992,"velocity":0.5039370078740157,"duration":0.4365399166666606},{"name":"C#4","midi":61,"time":75.23101999999992,"velocity":0.5039370078740157,"duration":0.4365399166666606},{"name":"F#4","midi":66,"time":75.69255999999992,"velocity":0.5039370078740157,"duration":0.8750029166666735},{"name":"D3","midi":50,"time":76.61563999999993,"velocity":0.5039370078740157,"duration":0.4365399166666606},{"name":"A3","midi":57,"time":77.07717999999993,"velocity":0.5039370078740157,"duration":0.4365399166666606},{"name":"E4","midi":64,"time":77.53871999999993,"velocity":0.5039370078740157,"duration":0.4365399166666606},{"name":"D3","midi":50,"time":78.00025999999993,"velocity":0.5039370078740157,"duration":0.4365399166666606},{"name":"A2","midi":45,"time":78.46179999999993,"velocity":0.5039370078740157,"duration":0.4365399166666606},{"name":"E3","midi":52,"time":78.92333999999992,"velocity":0.5039370078740157,"duration":0.4365399166666606},{"name":"C#4","midi":61,"time":79.38487999999992,"velocity":0.5039370078740157,"duration":0.4365399166666606},{"name":"A2","midi":45,"time":79.84641999999992,"velocity":0.5039370078740157,"duration":0.4365399166666606},{"name":"E3","midi":52,"time":80.30795999999992,"velocity":0.5039370078740157,"duration":0.4365399166666606},{"name":"B3","midi":59,"time":80.76949999999992,"velocity":0.5039370078740157,"duration":0.4365399166666606},{"name":"E4","midi":64,"time":81.23103999999992,"velocity":0.5039370078740157,"duration":0.8750029166666735},{"name":"F#3","midi":54,"time":82.15411999999993,"velocity":0.5039370078740157,"duration":0.4365399166666606},{"name":"C#4","midi":61,"time":82.61565999999993,"velocity":0.5039370078740157,"duration":1.3134659166666722},{"name":"D3","midi":50,"time":84.00027999999995,"velocity":0.5039370078740157,"duration":0.4365399166666606},{"name":"A3","midi":57,"time":84.46181999999995,"velocity":0.5039370078740157,"duration":0.4365399166666606},{"name":"D4","midi":62,"time":84.92335999999995,"velocity":0.5039370078740157,"duration":0.8750029166666735},{"name":"A2","midi":45,"time":85.84643999999996,"velocity":0.5039370078740157,"duration":0.4365399166666606},{"name":"E3","midi":52,"time":86.30797999999996,"velocity":0.5039370078740157,"duration":0.4365399166666606},{"name":"C#4","midi":61,"time":86.76951999999996,"velocity":0.5039370078740157,"duration":0.4365399166666606},{"name":"A2","midi":45,"time":87.23105999999996,"velocity":0.5039370078740157,"duration":0.4365399166666606},{"name":"E3","midi":52,"time":87.69259999999996,"velocity":0.5039370078740157,"duration":0.4365399166666606},{"name":"B3","midi":59,"time":88.15413999999996,"velocity":0.5039370078740157,"duration":0.4365399166666606},{"name":"E4","midi":64,"time":88.61567999999995,"velocity":0.5039370078740157,"duration":0.8750029166666735},{"name":"F#3","midi":54,"time":89.53875999999997,"velocity":0.5039370078740157,"duration":0.4365399166666606},{"name":"C#4","midi":61,"time":90.00029999999997,"velocity":0.5039370078740157,"duration":0.4365399166666606},{"name":"F#4","midi":66,"time":90.46183999999997,"velocity":0.5039370078740157,"duration":0.4365399166666606},{"name":"F#3","midi":54,"time":90.92337999999997,"velocity":0.5039370078740157,"duration":0.4365399166666606},{"name":"D3","midi":50,"time":91.38491999999997,"velocity":0.5039370078740157,"duration":0.4365399166666606},{"name":"A3","midi":57,"time":91.84645999999996,"velocity":0.5039370078740157,"duration":0.4365399166666606},{"name":"E4","midi":64,"time":92.30799999999996,"velocity":0.5039370078740157,"duration":0.4365399166666606},{"name":"D3","midi":50,"time":92.76953999999996,"velocity":0.5039370078740157,"duration":0.4365399166666606},{"name":"A2","midi":45,"time":93.23107999999996,"velocity":0.5039370078740157,"duration":0.4365399166666606},{"name":"E3","midi":52,"time":93.69261999999996,"velocity":0.5039370078740157,"duration":0.4365399166666606},{"name":"C#4","midi":61,"time":94.15415999999996,"velocity":0.5039370078740157,"duration":0.4365399166666606},{"name":"A2","midi":45,"time":94.61569999999996,"velocity":0.5039370078740157,"duration":0.4365399166666606},{"name":"E3","midi":52,"time":95.07723999999996,"velocity":0.5039370078740157,"duration":0.4365399166666606},{"name":"B3","midi":59,"time":95.53877999999996,"velocity":0.5039370078740157,"duration":0.4365399166666606},{"name":"E4","midi":64,"time":96.00031999999996,"velocity":0.5039370078740157,"duration":0.4365399166666606},{"name":"E3","midi":52,"time":96.46185999999996,"velocity":0.5039370078740157,"duration":0.4365399166666606},{"name":"F#3","midi":54,"time":96.92339999999996,"velocity":0.5039370078740157,"duration":0.4365399166666606},{"name":"C#4","midi":61,"time":97.38493999999996,"velocity":0.5039370078740157,"duration":0.4365399166666606},{"name":"F#4","midi":66,"time":97.84647999999996,"velocity":0.5039370078740157,"duration":0.8750029166666735},{"name":"D3","midi":50,"time":98.76955999999997,"velocity":0.5039370078740157,"duration":0.4365399166666606},{"name":"A3","midi":57,"time":99.23109999999997,"velocity":0.5039370078740157,"duration":0.4365399166666606},{"name":"D4","midi":62,"time":99.69263999999997,"velocity":0.5039370078740157,"duration":0.4365399166666606},{"name":"D3","midi":50,"time":100.15417999999997,"velocity":0.5039370078740157,"duration":0.4365399166666606},{"name":"A2","midi":45,"time":100.61571999999997,"velocity":0.5039370078740157,"duration":0.4365399166666606},{"name":"E3","midi":52,"time":101.07725999999997,"velocity":0.5039370078740157,"duration":0.4365399166666606},{"name":"C#4","midi":61,"time":101.53879999999997,"velocity":0.5039370078740157,"duration":0.4365399166666606},{"name":"A2","midi":45,"time":102.00033999999997,"velocity":0.5039370078740157,"duration":0.4365399166666606},{"name":"E2","midi":40,"time":102.46187999999997,"velocity":0.5039370078740157,"duration":0.4365399166666606},{"name":"B2","midi":47,"time":102.92341999999996,"velocity":0.5039370078740157,"duration":0.4365399166666606},{"name":"G#3","midi":56,"time":103.38495999999996,"velocity":0.5039370078740157,"duration":0.4365399166666606},{"name":"E2","midi":40,"time":103.84649999999996,"velocity":0.5039370078740157,"duration":0.4365399166666606},{"name":"F#2","midi":42,"time":104.30803999999996,"velocity":0.5039370078740157,"duration":0.4365399166666606},{"name":"C#3","midi":49,"time":104.76957999999996,"velocity":0.5039370078740157,"duration":0.4365399166666606},{"name":"F#4","midi":66,"time":105.23111999999996,"velocity":0.5039370078740157,"duration":0.4365399166666606},{"name":"F#3","midi":54,"time":105.69265999999996,"velocity":0.5039370078740157,"duration":0.4365399166666606},{"name":"D3","midi":50,"time":106.15419999999996,"velocity":0.5039370078740157,"duration":0.4365399166666606},{"name":"A3","midi":57,"time":106.61573999999996,"velocity":0.5039370078740157,"duration":0.4365399166666606},{"name":"E4","midi":64,"time":107.07727999999996,"velocity":0.5039370078740157,"duration":0.4365399166666606},{"name":"D3","midi":50,"time":107.53881999999996,"velocity":0.5039370078740157,"duration":0.4365399166666606},{"name":"A2","midi":45,"time":108.00035999999996,"velocity":0.5039370078740157,"duration":0.4365399166666606},{"name":"E3","midi":52,"time":108.46189999999996,"velocity":0.5039370078740157,"duration":0.4365399166666606},{"name":"C#4","midi":61,"time":108.92343999999996,"velocity":0.5039370078740157,"duration":0.4365399166666606},{"name":"A2","midi":45,"time":109.38497999999996,"velocity":0.5039370078740157,"duration":0.4365399166666606},{"name":"E2","midi":40,"time":109.84651999999996,"velocity":0.5039370078740157,"duration":0.4365399166666606},{"name":"B2","midi":47,"time":110.30805999999995,"velocity":0.5039370078740157,"duration":0.4365399166666606},{"name":"G#3","midi":56,"time":110.76959999999995,"velocity":0.5039370078740157,"duration":0.4365399166666606},{"name":"E2","midi":40,"time":111.23113999999995,"velocity":0.5039370078740157,"duration":0.4365399166666606},{"name":"F#2","midi":42,"time":111.69267999999995,"velocity":0.5039370078740157,"duration":0.4365399166666606},{"name":"C#3","midi":49,"time":112.15421999999995,"velocity":0.5039370078740157,"duration":0.4365399166666606},{"name":"F#4","midi":66,"time":112.61575999999995,"velocity":0.5039370078740157,"duration":0.4365399166666606},{"name":"F#3","midi":54,"time":113.07729999999995,"velocity":0.5039370078740157,"duration":0.4365399166666606},{"name":"D3","midi":50,"time":113.53883999999995,"velocity":0.5039370078740157,"duration":0.4365399166666606},{"name":"A3","midi":57,"time":114.00037999999995,"velocity":0.5039370078740157,"duration":0.4365399166666606},{"name":"E4","midi":64,"time":114.46191999999995,"velocity":0.5039370078740157,"duration":0.4365399166666606},{"name":"D3","midi":50,"time":114.92345999999995,"velocity":0.5039370078740157,"duration":0.4365399166666606},{"name":"A2","midi":45,"time":115.38499999999995,"velocity":0.5039370078740157,"duration":0.4365399166666606},{"name":"E3","midi":52,"time":115.84653999999995,"velocity":0.5039370078740157,"duration":0.4365399166666606},{"name":"C#4","midi":61,"time":116.30807999999995,"velocity":0.5039370078740157,"duration":0.4365399166666606},{"name":"A2","midi":45,"time":116.76961999999995,"velocity":0.5039370078740157,"duration":0.4365399166666606},{"name":"E2","midi":40,"time":117.23115999999995,"velocity":0.5039370078740157,"duration":0.4365399166666606},{"name":"B2","midi":47,"time":117.69269999999995,"velocity":0.5039370078740157,"duration":0.4365399166666606},{"name":"G#3","midi":56,"time":118.15423999999994,"velocity":0.5039370078740157,"duration":0.4365399166666606},{"name":"E2","midi":40,"time":118.61577999999994,"velocity":0.5039370078740157,"duration":0.4365399166666606},{"name":"F#2","midi":42,"time":119.07731999999994,"velocity":0.5039370078740157,"duration":0.4365399166666606},{"name":"C#3","midi":49,"time":119.53885999999994,"velocity":0.5039370078740157,"duration":0.4365399166666606},{"name":"F#4","midi":66,"time":120.00039999999994,"velocity":0.5039370078740157,"duration":0.4365399166666606},{"name":"F#3","midi":54,"time":120.46193999999994,"velocity":0.5039370078740157,"duration":0.4365399166666606},{"name":"D3","midi":50,"time":120.92347999999994,"velocity":0.5039370078740157,"duration":0.4365399166666606},{"name":"A3","midi":57,"time":121.38501999999994,"velocity":0.5039370078740157,"duration":0.4365399166666606},{"name":"E4","midi":64,"time":121.84655999999994,"velocity":0.5039370078740157,"duration":0.4365399166666606},{"name":"D3","midi":50,"time":122.30809999999994,"velocity":0.5039370078740157,"duration":0.4365399166666606},{"name":"A2","midi":45,"time":122.76963999999994,"velocity":0.5039370078740157,"duration":0.4365399166666606},{"name":"E3","midi":52,"time":123.23117999999994,"velocity":0.5039370078740157,"duration":0.4365399166666606},{"name":"C#4","midi":61,"time":123.69271999999994,"velocity":0.5039370078740157,"duration":0.4365399166666606},{"name":"A2","midi":45,"time":124.15425999999994,"velocity":0.5039370078740157,"duration":0.4365399166666606},{"name":"E2","midi":40,"time":124.61579999999994,"velocity":0.5039370078740157,"duration":0.4365399166666606},{"name":"B2","midi":47,"time":125.07733999999994,"velocity":0.5039370078740157,"duration":0.4365399166666606},{"name":"G#3","midi":56,"time":125.53887999999993,"velocity":0.5039370078740157,"duration":0.4365399166666606},{"name":"E2","midi":40,"time":126.00041999999993,"velocity":0.5039370078740157,"duration":0.4365399166666606},{"name":"F#2","midi":42,"time":126.46195999999993,"velocity":0.5039370078740157,"duration":0.4365399166666606},{"name":"C#3","midi":49,"time":126.92349999999993,"velocity":0.5039370078740157,"duration":0.4365399166666606},{"name":"F#4","midi":66,"time":127.38503999999993,"velocity":0.5039370078740157,"duration":0.4365399166666606},{"name":"F#3","midi":54,"time":127.84657999999993,"velocity":0.5039370078740157,"duration":0.4365399166666748},{"name":"D3","midi":50,"time":128.30811999999995,"velocity":0.5039370078740157,"duration":0.4365399166666748},{"name":"A3","midi":57,"time":128.76965999999996,"velocity":0.5039370078740157,"duration":0.4365399166666748},{"name":"E4","midi":64,"time":129.23119999999997,"velocity":0.5039370078740157,"duration":0.4365399166666748},{"name":"D3","midi":50,"time":129.69274,"velocity":0.5039370078740157,"duration":0.4365399166666748},{"name":"A2","midi":45,"time":130.15428,"velocity":0.5039370078740157,"duration":0.4365399166666748},{"name":"E3","midi":52,"time":130.61582,"velocity":0.5039370078740157,"duration":0.4365399166666748},{"name":"C#4","midi":61,"time":131.07736000000003,"velocity":0.5039370078740157,"duration":0.4365399166666748},{"name":"A2","midi":45,"time":131.53890000000004,"velocity":0.5039370078740157,"duration":0.4365399166666748},{"name":"E2","midi":40,"time":132.00044000000005,"velocity":0.5039370078740157,"duration":0.4365399166666748},{"name":"B2","midi":47,"time":132.46198000000007,"velocity":0.5039370078740157,"duration":0.4365399166666748},{"name":"G#3","midi":56,"time":132.92352000000008,"velocity":0.5039370078740157,"duration":0.8750029166666593},{"name":"F#3","midi":54,"time":133.84660000000008,"velocity":0.5039370078740157,"duration":1.7519289166666567},{"name":"C#4","midi":61,"time":133.84660000000008,"velocity":0.5039370078740157,"duration":1.7519289166666567},{"name":"E3","midi":52,"time":135.69276000000008,"velocity":0.5039370078740157,"duration":0.4365399166666748},{"name":"D4","midi":62,"time":136.1543000000001,"velocity":0.5039370078740157,"duration":0.4365399166666748},{"name":"F#4","midi":66,"time":136.6158400000001,"velocity":0.5039370078740157,"duration":0.4365399166666748},{"name":"E3","midi":52,"time":137.07738000000012,"velocity":0.5039370078740157,"duration":0.4365399166666748},{"name":"E3","midi":52,"time":137.53892000000013,"velocity":0.5039370078740157,"duration":0.4365399166666748},{"name":"C#4","midi":61,"time":138.00046000000015,"velocity":0.5039370078740157,"duration":0.4365399166666748},{"name":"A3","midi":57,"time":138.46200000000016,"velocity":0.5039370078740157,"duration":0.8750029166666593},{"name":"E4","midi":64,"time":139.38508000000016,"velocity":0.5039370078740157,"duration":1.7519289166666567},{"name":"G#4","midi":68,"time":139.38508000000016,"velocity":0.5039370078740157,"duration":1.7519289166666567},{"name":"F#2","midi":42,"time":141.23124000000016,"velocity":0.5039370078740157,"duration":0.4365399166666748},{"name":"C#3","midi":49,"time":141.69278000000017,"velocity":0.5039370078740157,"duration":1.3134659166666722},{"name":"D3","midi":50,"time":143.07740000000018,"velocity":0.5039370078740157,"duration":0.4365399166666748},{"name":"A3","midi":57,"time":143.5389400000002,"velocity":0.5039370078740157,"duration":0.4365399166666748},{"name":"E4","midi":64,"time":144.0004800000002,"velocity":0.5039370078740157,"duration":0.8750029166666593},{"name":"A2","midi":45,"time":144.9235600000002,"velocity":0.5039370078740157,"duration":0.4365399166666748},{"name":"E3","midi":52,"time":145.38510000000022,"velocity":0.5039370078740157,"duration":0.4365399166666748},{"name":"C#4","midi":61,"time":145.84664000000024,"velocity":0.5039370078740157,"duration":0.8750029166666593},{"name":"E3","midi":52,"time":146.76972000000023,"velocity":0.5039370078740157,"duration":0.4365399166666748},{"name":"B3","midi":59,"time":147.23126000000025,"velocity":0.5039370078740157,"duration":0.4365399166666748},{"name":"E4","midi":64,"time":147.69280000000026,"velocity":0.5039370078740157,"duration":0.8750029166666593},{"name":"F#3","midi":54,"time":148.61588000000026,"velocity":0.5039370078740157,"duration":0.4365399166666748},{"name":"C#4","midi":61,"time":149.07742000000027,"velocity":0.5039370078740157,"duration":0.4365399166666748},{"name":"F#4","midi":66,"time":149.5389600000003,"velocity":0.5039370078740157,"duration":0.8750029166666593},{"name":"D3","midi":50,"time":150.4620400000003,"velocity":0.5039370078740157,"duration":0.4365399166666748},{"name":"A3","midi":57,"time":150.9235800000003,"velocity":0.5039370078740157,"duration":0.4365399166666748},{"name":"E4","midi":64,"time":151.3851200000003,"velocity":0.5039370078740157,"duration":0.4365399166666748},{"name":"D3","midi":50,"time":151.84666000000033,"velocity":0.5039370078740157,"duration":0.4365399166666748},{"name":"A2","midi":45,"time":152.30820000000034,"velocity":0.5039370078740157,"duration":0.4365399166666748},{"name":"E3","midi":52,"time":152.76974000000035,"velocity":0.5039370078740157,"duration":0.4365399166666748},{"name":"C#4","midi":61,"time":153.23128000000037,"velocity":0.5039370078740157,"duration":0.8750029166666593},{"name":"E3","midi":52,"time":154.15436000000037,"velocity":0.5039370078740157,"duration":0.4365399166666748},{"name":"B3","midi":59,"time":154.61590000000038,"velocity":0.5039370078740157,"duration":0.4365399166666748},{"name":"G#4","midi":68,"time":155.0774400000004,"velocity":0.5039370078740157,"duration":0.8750029166666593},{"name":"F#2","midi":42,"time":156.0005200000004,"velocity":0.5039370078740157,"duration":0.4365399166666748},{"name":"C#3","midi":49,"time":156.4620600000004,"velocity":0.5039370078740157,"duration":0.4365399166666748},{"name":"F#3","midi":54,"time":156.92360000000042,"velocity":0.5039370078740157,"duration":0.8750029166666593},{"name":"D3","midi":50,"time":157.84668000000042,"velocity":0.5039370078740157,"duration":0.4365399166666748},{"name":"A3","midi":57,"time":158.30822000000043,"velocity":0.5039370078740157,"duration":0.4365399166666748},{"name":"D4","midi":62,"time":158.76976000000045,"velocity":0.5039370078740157,"duration":0.8750029166666593},{"name":"A2","midi":45,"time":159.69284000000044,"velocity":0.5039370078740157,"duration":0.4365399166666748},{"name":"E3","midi":52,"time":160.15438000000046,"velocity":0.5039370078740157,"duration":0.4365399166666748},{"name":"C#4","midi":61,"time":160.61592000000047,"velocity":0.5039370078740157,"duration":0.8750029166666593},{"name":"E2","midi":40,"time":161.53900000000047,"velocity":0.5039370078740157,"duration":0.4365399166666748},{"name":"B2","midi":47,"time":162.00054000000048,"velocity":0.5039370078740157,"duration":0.4365399166666748},{"name":"G#3","midi":56,"time":162.4620800000005,"velocity":0.5039370078740157,"duration":0.8750029166666593},{"name":"F#2","midi":42,"time":163.3851600000005,"velocity":0.5039370078740157,"duration":0.4365399166666748},{"name":"C#3","midi":49,"time":163.8467000000005,"velocity":0.5039370078740157,"duration":0.4365399166666748},{"name":"F#3","midi":54,"time":164.30824000000052,"velocity":0.5039370078740157,"duration":0.8750029166666593},{"name":"C#4","midi":61,"time":165.23132000000052,"velocity":0.5039370078740157,"duration":1.7519289166666567}]}]}